<svg width="1300" height="1000" xmlns="http://www.w3.org/2000/svg"><g><path d="M25.215946537449398 25.663046731709347 C101.45689897524629 25.09443178647921, 180.7394234849674 22.779840189855776, 222.32452375382212 24.097906715484697 M24.92071759771341 24.99093783440828 C77.0270218800357 24.29768453245047, 131.23797243724997 25.086880565674072, 222.88158309210334 25.988128698373693 M223.88821495921775 24.36552885078224 C223.9239781365731 131.67023945005562, 223.77796208217654 236.93557109660523, 223.81995595006788 475.7344829353114 M222.77600798917564 24.75524588826832 C221.7001948465297 189.98284070441323, 221.86329248511086 355.2002144489177, 222.53299554405316 474.6828579211365 M224.54937041948205 476.6001667463872 C161.59447514587376 478.49837853507836, 99.50021574556496 476.7727828095755, 23.005613309737512 476.3134752612393 M222.3771781127498 475.43778796966575 C164.2780026658412 473.8559031939352, 106.94210059919746 474.0651423709389, 24.695048370754336 474.73236353102425 M25.1808061724226 475.91581665753273 C25.393133987585582 364.3510768981517, 24.909156176014214 251.66797178177129, 25.70928518152567 24.59509035029511 M25.36502786666196 475.0491016308685 C27.38730954635766 338.34374700419727, 26.94248739786213 202.44671491285004, 24.818192784834515 25.477239199030766" stroke="#000" stroke-width="1" fill="none"/></g><g><path d="M148.58110033917734 98.55096052583808 C169.2160119496818 99.31049831721259, 187.24412585952405 99.11967177205972, 207.62190626221224 98.60316110053219 M147.30689335030556 99.0306067192036 C167.537789621245 98.93550341381035, 185.58444524113656 99.20392127182573, 206.7234229909075 99.8860516391979 M204.67272610887215 100.72183028000961 C205.067251517557 112.5661338449054, 206.44587318892198 126.48552583710837, 207.07642707945197 148.12611681729302 M206.2453200311882 100.5489455282855 C206.8744007164968 118.10561503370906, 205.82576617358424 136.8381634310657, 205.92901373200172 149.4498356008106 M204.40324754094277 149.99964756010428 C186.13689053599472 150.16175140692343, 165.68177221783301 149.55213765005973, 147.74647667038423 151.5108360915506 M205.64581232767716 150.16070175850732 C186.50837013349098 150.6040864070125, 167.77166548552023 150.99036626917817, 147.47699373002996 149.17554782678542 M146.48220735857768 150.76723671396388 C147.62972575279184 140.70186150767418, 147.92699194337277 130.66657354078012, 147.08496530254422 101.36489698330213 M147.54098881401615 150.40577463419868 C147.6623864193482 138.91151325303716, 147.59994344291928 128.80566959871965, 148.00444260381346 100.33451559951293" stroke="rgb(0, 0, 0)" stroke-width="1" fill="none"/></g><text text-anchor="begin" font-family="Consolas, Courier" font-size="20" fill="rgb(0, 0, 0)" x="50" y="130">lst1</text><text fill="rgb(150, 100, 28)" text-anchor="middle" font-family="Consolas, Courier" font-size="20" x="177" y="130">id82</text><g><path d="M146.46095973635656 176.8936592979303 C161.36825481078563 175.82540946318872, 177.95574955711368 175.68030947255124, 205.41159795616215 176.6691332405153 M148.0709999244208 174.2462747846357 C164.87226903290997 173.83760605343204, 182.10075810387514 174.31560664895483, 205.07439354082754 175.84139530704888 M206.230587811619 173.70765090531987 C206.91656019978856 189.70031840225562, 205.02181264408006 206.35032924519652, 204.6067050960709 225.61921748519208 M205.9713746267857 174.97610058256993 C206.7447589113638 193.37724983815716, 206.19026078569033 211.9727222366336, 205.91259823111622 225.05458578624393 M207.22600284847624 223.58106686813187 C183.23276269168238 225.33503331039444, 162.0380277047508 224.12310669522563, 148.15876469444865 226.48051167641864 M205.89434556126596 224.83980205841107 C189.58855860546984 225.55199633229884, 171.94737087622542 225.0480405247364, 148.79759778487633 225.0663132082688 M147.4822064980406 225.1304514448871 C148.702793673148 205.63665831521266, 147.51159051030132 188.60067748043662, 148.5369783600265 176.15778237771892 M147.4487326421234 224.7125005274637 C146.9810172070424 208.29926409365464, 147.41547145417312 191.1987456169573, 147.38807076019165 175.62891824984644" stroke="rgb(0, 0, 0)" stroke-width="1" fill="none"/></g><text text-anchor="begin" font-family="Consolas, Courier" font-size="20" fill="rgb(0, 0, 0)" x="50" y="205">lst2</text><text fill="rgb(150, 100, 28)" text-anchor="middle" font-family="Consolas, Courier" font-size="20" x="177" y="205">id84</text><g><path d="M149.59606025808853 248.9656406325228 C168.3733960950838 247.90236326106455, 191.41893777195196 250.4702601115706, 207.72517948117243 248.8489787127083 M147.26569627291713 249.24110687274302 C160.78806702621978 249.6022805242087, 172.3063418757515 248.80969139739292, 206.9781966920251 250.34959133765494 M205.82370036166904 249.66009561746105 C206.78575102140567 264.66802116195635, 206.7134729672297 279.10782620103146, 206.11242803194668 300.426643143049 M205.61691122525988 249.373895979306 C206.69759419244656 268.0233439766313, 206.07513734846333 287.93709206430884, 205.5175085193215 299.5492894312037 M206.2165898863414 298.4989018249488 C186.8834413665089 302.05176353659846, 167.77866438353144 299.91279503620774, 148.03400127988834 301.9798693842367 M205.86430497656573 300.25760869907083 C188.3752613527358 300.6752253446706, 169.87323711787508 300.0379997230619, 147.80642968799933 300.2562243893095 M147.59036586668253 300.66489298417866 C146.34800282174777 280.66283539156115, 148.08671471496177 260.44244541759537, 149.56534154499593 249.62176412877352 M148.92758522360128 299.6119255811049 C148.2335441326039 285.4519560980264, 148.5934297355001 272.91663295228375, 148.2039195774788 249.5113632692209" stroke="rgb(0, 0, 0)" stroke-width="1" fill="none"/></g><text text-anchor="begin" font-family="Consolas, Courier" font-size="20" fill="rgb(0, 0, 0)" x="50" y="280">p</text><text fill="rgb(150, 100, 28)" text-anchor="middle" font-family="Consolas, Courier" font-size="20" x="177" y="280">id99</text><g><path d="M147.19129656831188 326.3638844120285 C160.7077397596604 326.132476661629, 175.4448221191552 324.3252126167015, 207.04311163095971 326.2504459629901 M148.83211235885196 325.8762411433373 C164.5271712067802 323.8641534021628, 181.83574851968027 325.2556490631007, 205.74495892091488 324.202959527569 M204.14837623261704 326.9110509032484 C205.49922237090712 336.43859435566696, 206.69233480441355 348.22277824713575, 204.29348029163245 376.26119074121027 M205.3053464752466 325.2560992872137 C204.81775435823718 338.99478007836495, 206.10438822131093 351.9048639387838, 206.04696337613973 375.10660407385603 M207.7309195976182 376.23714309011257 C187.12645238129554 374.655437875166, 168.60379113237158 374.7766751581477, 149.72965791832468 376.10434898296154 M205.38962283429174 374.22564886005455 C193.27166470665543 374.4032346686291, 178.27286531492314 374.7871387017853, 147.50148806475264 375.06087207495483 M146.12694869548355 376.05670649753966 C149.02900439134984 356.6454922662572, 149.9025018061772 342.05888474513273, 149.59625030997063 324.83669429396065 M148.82321095362596 375.5518537956472 C147.59833830479187 357.71424352774056, 146.85981994755952 339.3954827417666, 147.86247067990888 325.0334853455815" stroke="rgb(0, 0, 0)" stroke-width="1" fill="none"/></g><text text-anchor="begin" font-family="Consolas, Courier" font-size="20" fill="rgb(0, 0, 0)" x="50" y="355">d</text><text fill="rgb(150, 100, 28)" text-anchor="middle" font-family="Consolas, Courier" font-size="20" x="177" y="355">id10</text><g><path d="M148.20733280950657 399.8853277057393 C161.65587975079583 401.47434172300115, 173.22733566908073 401.90733386282386, 205.5587700873902 401.21706214003353 M147.9718981572033 400.2613524949434 C167.43401082196308 399.9384547286574, 189.73653809500308 400.19349966447527, 205.04558221098398 400.21611232312677 M205.69241087151389 398.57722824500615 C206.60813286316719 419.2279312053447, 205.02824805121264 437.6133786947287, 207.0420854209771 449.2768377936582 M206.06618138422013 400.632353537743 C207.20449573802972 415.3485858310504, 206.54851516520716 429.60072631973173, 206.1005013556108 450.0441625603131 M206.02401846018523 448.22816815116295 C187.5350406335173 451.1857647511519, 168.8833569077126 449.91692002967835, 148.1470054269769 450.739146830415 M206.70226925353143 450.91264840116526 C183.10441623029607 450.08429223763017, 160.4613028002176 450.0633355791574, 147.6103203350937 450.03414604919055 M147.8542179856871 451.633755969416 C148.09089967638926 434.5963887168967, 146.22306182568914 418.60322825728156, 146.86085459547698 398.1608380879733 M148.1330994305928 450.7817480117063 C148.69634258030993 438.8086736232116, 147.52388048824585 426.65102260782186, 147.91384578883103 400.3187798343019" stroke="rgb(0, 0, 0)" stroke-width="1" fill="none"/></g><text text-anchor="begin" font-family="Consolas, Courier" font-size="20" fill="rgb(0, 0, 0)" x="50" y="430">t</text><text fill="rgb(150, 100, 28)" text-anchor="middle" font-family="Consolas, Courier" font-size="20" x="177" y="430">id11</text><g><path d="M25.03599622494987 25.664002311745463 C64.4868675053918 25.54020134845936, 103.74128242847543 22.135606274419462, 130.3130208444712 26.69576298399624 M25.263704809067086 24.8794022565178 C66.59626888452756 25.355135630046625, 109.52441235754128 24.93613524656157, 131.08492314918007 24.023136193751732 M132.8310099094099 24.14488705514835 C132.93114185290187 39.80204699732202, 129.9879305617342 53.514968610081525, 129.93573780984886 75.24400837443117 M131.09363464888278 24.715474514354916 C131.80077379857133 43.77826391012306, 130.79343696259838 61.87607218061674, 130.29747974277723 75.57429638496235 M129.8697825857835 75.68340248804074 C109.40648744718831 73.57933548639078, 83.70316875126758 73.57018448914188, 26.2929156030573 73.80062426935311 M131.08656849148355 74.51030169363858 C94.48739477846759 76.14687210118427, 59.02056587395259 74.39157755079773, 24.41356379211789 75.9589371127111 M25.342589431057956 75.14538941211966 C25.717575800387834 58.41857766213203, 25.722853144754186 37.43008677670873, 24.939869289300525 23.95101804716275 M24.737574100377266 75.70779120530818 C24.577900593129453 60.08487723612503, 24.70780912586878 42.730839793325714, 25.870597007479233 24.38017820910773" stroke="#000" stroke-width="1" fill="none"/></g><text fill="rgb(27, 14, 139)" text-anchor="middle" font-family="Consolas, Courier" font-size="20" x="78" y="55">__main__</text><g><path d="M25.372536945086118 675.2473237457531 C97.90197402837192 674.1122778553713, 172.83004201897802 676.6325372882751, 224.9856615217841 675.0681561063542 M24.817839869971394 674.2764835163928 C80.32831713962099 673.8309012515952, 134.5091328417853 674.7598293453237, 223.4930024540024 675.6361865521645 M223.24698178640057 676.0683322572711 C225.3376086450812 756.143759684802, 222.5856230923062 841.1863253545991, 221.68256026883319 899.677095136823 M223.09238171129624 674.9930185531691 C220.87782436753653 763.8584975717815, 221.41685996460234 852.7692150984127, 222.4399429774024 900.0450711671514 M222.2314230356347 898.9103664898043 C149.74509050457354 899.7373689221366, 72.74324394051104 900.6006073874178, 23.84527900959372 898.9307258706177 M222.4264002291872 900.3592881829352 C168.5851097471204 899.5703912670087, 116.25455696663137 898.431139831749, 25.088508869367963 900.6080616418911 M24.37748087008413 900.663119713508 C24.484397174206865 844.0435298575774, 23.440486463896768 785.2239456603418, 26.66771843156736 675.3411105692436 M24.394801584371645 900.7445581214429 C23.994334257726802 837.2866511276828, 24.394193633540972 774.5697743690073, 25.521859107667435 675.1717059276737" stroke="#000" stroke-width="1" fill="none"/></g><g><path d="M146.23046390518434 750.6370771346348 C160.673835251163 751.836775997479, 177.11233947278248 750.364193783283, 206.0846776112638 749.4949409271125 M147.57796983994118 750.8490256469918 C163.94113577842245 751.0749414168034, 180.16370341400744 751.0760932052012, 206.9670029228051 750.2200080598116 M205.96807995200396 750.3042757241776 C207.5961370292283 762.6426070381008, 205.068369817935 772.9900147468904, 204.1897732794951 799.7614079720088 M206.8344485328116 749.8874634664551 C205.6723931394823 768.896529034196, 206.32454879667802 788.7652912358924, 206.17216609220458 800.5774254698271 M206.2013303737307 800.7711421713101 C192.15556134636387 799.9683420817973, 178.78933452146998 801.6029335045695, 148.98835222206696 798.1959330393189 M206.9136993110714 799.580466409741 C190.25842298123257 799.1721223016459, 173.70172415031772 799.3293264074052, 148.53964709836495 800.9876142443593 M149.26326445945332 798.8195594201446 C148.18163652383137 785.1585837264054, 148.30943498035847 770.6969443414869, 146.62974378024023 748.1384058350759 M147.39517011685226 800.4947884200745 C147.42797203968354 784.7337203224823, 147.95930181097668 770.2154662244666, 148.18186814404277 750.6520013399444" stroke="rgb(0, 0, 0)" stroke-width="1" fill="none"/></g><text text-anchor="begin" font-family="Consolas, Courier" font-size="20" fill="rgb(0, 0, 0)" x="50" y="780">age</text><text fill="rgb(150, 100, 28)" text-anchor="middle" font-family="Consolas, Courier" font-size="20" x="177" y="780">id12</text><g><path d="M149.90782124614117 825.0003438234545 C167.4803542804716 825.7997704039993, 188.7293718937436 824.2124466229191, 205.6830660036981 825.2705763281111 M147.00727510143395 824.2961721864126 C164.13620490212332 825.6770382996336, 181.84041146394878 826.4474825229765, 205.99020527230581 824.3283151700265 M207.31463177429794 824.1443115105704 C205.10451810739383 834.6656232218705, 208.2576539849925 846.6159520883291, 207.09028483633364 876.6084495453764 M206.58404589227376 824.3515982777075 C206.2014052234735 835.5112034080166, 205.52452237570134 847.8017705242638, 205.19141190814872 874.4089333805897 M207.99113743155257 874.373238966303 C189.2264335563292 873.6265385694518, 173.6990371732113 874.1168034308561, 148.9881041300241 876.5991483080275 M206.20282033187922 874.6817043174765 C187.38012972479197 875.7401206297758, 169.69324883749485 876.154361513755, 147.30620964141684 875.5396066224433 M146.43560428548406 876.5177414517308 C147.37642582991455 861.5489214163417, 146.61124143852572 845.5697189141774, 148.67631071806292 823.5995198523315 M148.2008872089549 875.3466831756376 C147.75933602912352 855.0846041092543, 148.80433317567986 836.9665065161238, 148.51243317243183 824.7409142140134" stroke="rgb(0, 0, 0)" stroke-width="1" fill="none"/></g><text text-anchor="begin" font-family="Consolas, Courier" font-size="20" fill="rgb(0, 0, 0)" x="50" y="855">name</text><text fill="rgb(150, 100, 28)" text-anchor="middle" font-family="Consolas, Courier" font-size="20" x="177" y="855">id17</text><g><path d="M23.328406757960046 674.5744990864335 C41.34304929672736 675.3534977482128, 54.2204702859972 676.4419095831438, 83.62804629687332 675.5419120362576 M24.988658240304744 675.1385868316593 C40.29646948997912 675.6152297881982, 57.232492689973604 675.244668344983, 82.62742027109287 674.0212120728307 M84.89943074168465 673.0449327183172 C81.80834096390063 692.2562335813159, 84.40428641067106 711.1247817464962, 83.5242934917573 725.2217551539616 M83.58975399531607 674.7499561519458 C82.6400562774438 690.816947930179, 82.38670383841944 707.2742180062061, 83.28871726921686 724.9832743527804 M83.5352306837247 726.1355475676132 C65.30255883892386 726.635643284693, 45.96184831535643 726.4970114708469, 23.443677446239224 724.9775522711229 M82.29072696692805 724.5640313696742 C67.32649786534803 724.1839277382605, 49.42231728693762 725.2801925395324, 24.917978490473516 725.9879153331817 M24.508888151929995 725.5058059004274 C24.431645656891668 713.7879046414517, 24.86127946580183 701.4523162615444, 26.406350658735786 676.8599931817481 M25.470722332525483 724.3000020017506 C25.95399768053531 713.0144562491772, 26.121862076904865 700.3607198863625, 25.043088176596815 674.2234356681987" stroke="#000" stroke-width="1" fill="none"/></g><text fill="rgb(27, 14, 139)" text-anchor="middle" font-family="Consolas, Courier" font-size="20" x="54" y="705">func</text><g><path d="M258.7821472273501 24.16569558285933 C313.8565234558685 27.216600896173826, 372.0341378653073 26.953182600332752, 539.1769193071194 24.32777530416321 M257.61928459675283 24.94170947199894 C363.00550969881766 24.370711463639065, 466.59287705723654 24.619411800674, 539.4517837385752 24.678697225498492 M541.7260326440652 24.879623055425363 C541.8430533962124 65.42881218453994, 540.4596945585681 104.6589407760998, 540.9403131543395 153.91362437822218 M539.6028179335776 24.32826789056362 C540.6764878011755 55.089936776922336, 541.3679789197639 85.31951380241323, 540.62611389054 154.762309397651 M540.854306928864 153.7695905438932 C449.93182260207 154.84029126277923, 360.3232606781336 156.40170126454368, 259.21675427285555 155.4251204523251 M540.2537480957021 154.6321333606184 C442.2789222296794 154.29287671962692, 345.6256344478763 154.32226139592953, 258.02855279685014 154.59389986727294 M259.43640475864913 153.74949356620448 C256.96616842750376 110.24799319940834, 258.32054155236716 64.77564057554022, 257.9277851983302 24.084620955927512 M258.76496055229165 154.68386152043107 C258.16983070747057 125.83539487208003, 258.9466920973644 98.8812077042631, 258.7478510730613 24.02778434789545" stroke="#000" stroke-width="1" fill="none"/></g><g><path d="M281.86626808258615 89.26221795543705 C304.787610119554 89.94233283588022, 322.9556293306077 89.46271171870058, 341.58917117168306 90.58157510051647 M282.72058968214276 89.40765048305946 C295.11635760713 90.01144086170731, 308.4604491039099 89.76467406496451, 340.20289684148355 89.96898107945681 M341.6106634538832 89.10360823240151 C339.39884333982445 103.9163520657476, 339.5801322705615 119.18153081513843, 340.32966627066287 140.99779449901555 M341.3581249937257 89.83892304594578 C341.4555132022051 108.75574619145455, 339.96817580218146 129.57332961210236, 341.571627933292 139.59914237114984 M342.5835558132369 140.6038852033346 C319.63326512125207 141.01648328296167, 299.28686105664394 139.24299469854802, 281.8584652421845 141.9561474720705 M340.0112811046485 140.74778348145867 C322.9124459395026 140.69984849066725, 305.4046254382621 140.03846737963227, 282.888427027399 140.19460025898698 M281.86573643965966 140.13811559521548 C284.22365127074164 119.72127347944121, 282.8798744094494 101.37702465836901, 284.9413748885681 89.40722190217448 M282.0587812524888 139.00186368494946 C281.9011394153871 128.63238476298747, 282.99848079950937 114.4931843987709, 282.42707292111436 90.90947456234852" stroke="rgb(0, 0, 0)" stroke-width="1" fill="none"/></g><text text-anchor="middle" font-family="Consolas, Courier" font-size="20" fill="rgb(150, 100, 28)" x="312" y="120">id19</text><g><path d="M339.2710878161853 91.1104122594318 C358.1488823108206 90.27501094712046, 373.3084502713099 90.9196004215166, 398.4526895481711 91.81373091774982 M341.5769048250995 89.71979009540527 C362.05772515231445 89.26905668042636, 382.68162584352234 89.68307790349286, 398.32118460051834 90.38762165475744 M397.55264380536175 90.5614334616439 C399.7493474201081 100.27648035168485, 398.94533170226316 113.31187314825084, 397.5609498664576 140.85777233414709 M398.4334174418945 89.05328185060426 C398.9480010546713 101.6565700605914, 399.57820067681905 112.2606061858361, 398.3282141901811 140.48668575387427 M398.5988593876216 138.7980325506256 C385.3595821878727 140.475872453162, 367.9033907510541 140.98864840822284, 339.55587380023286 141.44087474524727 M398.8426135273857 140.90673201193104 C386.1693392379284 139.92752335522886, 373.7015506364808 139.41372962228044, 341.7604660659957 140.95770901130146 M341.3149950300587 141.58492159224383 C339.03791293917834 121.53394144839109, 340.36968587957 99.2391600976868, 342.39655951464437 89.07720166892312 M341.9275834391088 140.63168342481822 C340.1075457322572 125.82093374081208, 341.25705152182076 113.4139250007665, 341.02936552087544 90.2938859105623" stroke="rgb(0, 0, 0)" stroke-width="1" fill="none"/></g><text text-anchor="middle" font-family="Consolas, Courier" font-size="20" fill="rgb(150, 100, 28)" x="370" y="120">id43</text><g><path d="M398.00271468349405 88.21442775158808 C413.8093012510681 90.84726683962758, 429.83086275863883 88.46605164292686, 458.7159949119982 91.58775433980773 M398.0865526905777 89.41512171482103 C411.4603818256509 90.18686915430345, 422.25253558671943 90.64551472877285, 456.6371516579417 89.25692669907355 M458.31538377108313 89.55715177093519 C456.0268220388813 106.82293709767788, 457.3499125384788 127.73856187335245, 458.52218322702987 139.2550065003072 M456.0531066404364 90.72930814950367 C458.1435978075431 106.0551820077989, 457.64578266209986 120.3028680853955, 457.5716822865391 140.72235135217974 M458.46541538528317 139.8085611939198 C441.69150795632396 139.40164239250737, 432.03386009876624 140.96839118468216, 398.027993874515 141.1110097672531 M456.1465259111 139.57898205254094 C435.7971942920267 141.3749091922208, 414.340560420191 140.86801611889126, 399.1242867465275 140.17765013377974 M400.393549752851 139.96865595413576 C400.2765522518651 123.40966648034751, 399.5234623723103 108.01627949555852, 399.93176183166327 90.0046640507271 M398.5292384349326 139.72588086275866 C399.035491593787 126.32051030760219, 398.54340635985056 113.22329756372909, 399.37499986127165 89.3154027818501" stroke="rgb(0, 0, 0)" stroke-width="1" fill="none"/></g><text text-anchor="middle" font-family="Consolas, Courier" font-size="20" fill="rgb(150, 100, 28)" x="428" y="120">id28</text><g><path d="M457.79029442289016 90.25236367938629 C479.9808734888198 90.95308990171151, 500.4000568057754 88.84711892344788, 516.6821496947432 88.77965714534062 M457.21078983312793 90.3078328563318 C471.2722372872465 88.98759623250749, 483.61342560701695 90.07386531393018, 515.6399440995677 89.8907089258648 M515.9312895287131 91.17970123157724 C515.0021462270265 102.15768002402118, 514.7147831210103 111.58772732127689, 515.3424378919399 140.9932725740656 M515.9821262532532 90.22147921598463 C514.5607403921094 107.33026194538951, 515.8914371903857 122.90970928548025, 514.5770795030338 139.88939081288117 M513.5413772821131 139.62411811053576 C502.2986619577807 141.58391670984548, 489.1048267407556 141.86771567737526, 455.57495046843104 141.7457848409938 M514.379418428964 140.44576632309003 C493.88067017503863 139.9388875395376, 472.70197482109023 139.65140021005888, 456.14715119690214 139.4426107964017 M457.8895442616575 138.84617955030123 C457.64839006584197 124.36005739579605, 457.0310188389211 106.1508241096669, 458.4646661463629 91.36805193248252 M456.63416027646537 139.8231909973523 C456.29319511481594 126.95254823017653, 457.5461467837408 112.34945681403931, 457.0507453083212 89.5095478616314" stroke="rgb(0, 0, 0)" stroke-width="1" fill="none"/></g><text text-anchor="middle" font-family="Consolas, Courier" font-size="20" fill="rgb(150, 100, 28)" x="486" y="120">id49</text><text fill="rgb(150, 100, 28)" text-anchor="middle" font-family="Consolas, Courier" font-size="20" x="288" y="55">id82</text><text fill="rgb(27, 14, 139)" text-anchor="middle" font-family="Consolas, Courier" font-size="20" x="510" y="55">list</text><g><path d="M258.8215656306002 23.757541211554695 C272.8330137908205 26.56024648319775, 291.5349599306887 24.32572623564714, 316.02489317755067 25.25550975394774 M258.8992692348762 25.042389087033648 C272.5198886861011 24.735017611639364, 287.14253464965026 25.473721312151852, 317.17467427700353 24.48848934189666 M318.5073128911236 25.85029431518817 C319.5157152829868 42.0706703375631, 317.65959709469746 60.59699906138569, 317.9184209540757 75.44263916169582 M317.0814257259431 25.97650541548206 C317.5695341420303 41.58542010570348, 318.44919775014125 56.15514777690265, 318.6834182986052 75.70872904411208 M316.9442188859726 74.00963309603362 C301.9472218583617 74.68704380331303, 282.30596986381954 75.59354789933309, 259.9085021814433 76.83311779068444 M317.9123411770337 74.54422860700171 C296.02763779473645 75.37188001924761, 271.51045733581964 74.9625257686588, 258.357740475656 74.88434079283724 M257.2547098580005 75.87474571784016 C260.03586679959295 53.267333246459046, 259.3254886964329 35.57490428269532, 257.8605743291792 23.846394473533515 M257.4871476025294 74.9633665580046 C258.0180824292682 61.80537871917824, 258.7431742958187 48.53091557223779, 257.31928654829807 25.55047030322811" stroke="#000" stroke-width="1" fill="none"/></g><g><path d="M480.9764766750618 23.93855897824832 C500.5576147516559 24.531541360910357, 519.8443547533085 26.3209967837548, 538.2770741947339 25.59548971062058 M480.2338756518475 24.956781853687435 C502.73607727460376 25.547919399788405, 527.036079760224 25.820784735695526, 540.6734939886074 24.26225502825501 M539.8510039709881 24.912117064842327 C542.3940664098528 35.24234099283665, 540.1775216162438 50.70337270181462, 539.789870628266 75.5286881317394 M539.8960395120715 25.36287666880003 C540.2564622825189 43.432043881186054, 539.7565284849409 62.22515532656171, 540.1947333765446 75.58007299849272 M541.4899137765324 76.13665644551222 C523.2043289754856 73.26464539101846, 507.62832875864785 73.3033705316131, 480.71678897736444 74.89951083528481 M539.5550488883881 75.39171977009376 C521.0299874741596 75.4548304224037, 501.8402493607179 75.66208619766468, 480.7247530795285 74.72779118898755 M478.3142443852467 75.77927865314753 C481.23612354184775 57.085241302791715, 479.3924010982874 39.82918805025613, 479.0041527678144 23.533352174678207 M479.8534436303478 75.01632250954992 C479.59768449364304 58.29526499208522, 480.22027684244534 38.883494387058356, 479.7205348456122 24.381075015571227" stroke="#000" stroke-width="1" fill="none"/></g><g><path d="M571.1050869474697 25.360295222427677 C658.8298718825221 25.248863294219042, 749.731242773547 23.184518031554262, 852.4025360172438 24.25793891996135 M570.5580765914799 24.990436652035527 C677.6190096755801 26.002736338970806, 786.7428357149932 27.267886236034432, 852.4463305941379 25.21647685786289 M852.233435477847 23.130733671964066 C854.2505626234107 54.78085494262928, 851.7919942900382 86.35173394565727, 853.1834042403724 176.6272374508698 M851.8872408630253 24.091206190769288 C851.2966022403917 59.488775030706435, 853.1332014354506 94.50001923616615, 851.6639458262184 174.19192844889878 M851.2840698747841 174.1615592831922 C742.4624591384543 172.57750523833658, 636.6800220785759 172.3068804887297, 569.5632760523029 174.90569627392577 M852.35083714533 175.24696105487226 C795.1245500275686 175.665794326692, 739.0490491034443 175.9125476986359, 570.1952168463608 175.700781443861 M571.0028454825795 175.85254026898264 C569.5738240627559 118.40054019256605, 569.0408672108852 62.93486303666663, 568.7433518932164 23.080801389965636 M570.5501381971573 175.64844500173007 C569.5433306505554 134.61798924078016, 570.1480958753733 95.57187003467371, 569.8845239477738 24.50116215256412" stroke="#000" stroke-width="1" fill="none"/></g><g><path d="M593.7234450874062 108.2321446427157 C612.2692895832639 110.39301112380751, 634.1531075586288 109.0600817708861, 652.0680694055407 110.41760184282266 M595.0295056243724 110.21700365815518 C612.4361540451175 111.17398822013371, 630.4902820181838 110.6996508452792, 653.8472931028356 110.37390697151446 M653.6111578745382 109.44403039372838 C652.3644724825385 121.90055351248547, 652.1685668038606 130.2156852316575, 653.9651469752888 160.06724126906497 M653.1344787015378 109.6689762690749 C651.7644147142084 120.90793054095883, 653.2249104138398 133.16370112380295, 652.0996426398498 160.04818983897826 M653.2005408999138 159.9411142904929 C641.1676541592748 159.4707269898876, 628.1894312405552 159.73724272548384, 595.4877870006989 160.02488211943594 M653.0797890580219 159.4207325716166 C637.7239242538067 160.65647328005093, 622.2725813223377 159.58396373800812, 594.092231315649 160.0425075363837 M593.0736489283343 160.55147404369276 C595.6918853313608 145.73302303441065, 596.1840373114646 128.81553009519882, 593.1421933767849 111.54003150141104 M595.2116574304102 159.46411287445147 C595.6359625591286 149.0213273807663, 595.5216389953453 137.4708431700851, 595.6888347391645 110.65955243434165" stroke="rgb(0, 0, 0)" stroke-width="1" fill="none"/></g><text text-anchor="middle" font-family="Consolas, Courier" font-size="20" fill="rgb(150, 100, 28)" x="624" y="140">id32</text><text fill="rgb(150, 100, 28)" text-anchor="middle" font-family="Consolas, Courier" font-size="20" x="624" y="97.5">0</text><g><path d="M651.9909310434653 111.31798870434707 C668.6001615516792 109.87774723546696, 685.5570161269727 109.06550945543155, 711.9472418201752 111.02675165411442 M653.2559055675537 109.86311754134385 C672.4305729143097 109.05311929706237, 692.105358318133 109.14650963656253, 710.5014462120486 109.30821406107304 M710.4150749724773 108.48024322731348 C711.623792830741 121.20455300964055, 712.438113240003 137.4302439794724, 711.3622482573926 159.90570647527645 M711.2977985255328 109.51274246774936 C711.4983630144166 127.32020912739131, 709.7740777952981 144.49462252082228, 711.4811408204702 160.26729902411188 M709.0591628717349 159.50547969445603 C691.3283585550292 158.7455432818051, 670.2316258395546 159.41829723735754, 652.3730395438597 159.212660452046 M711.8264611695815 160.89084854667183 C698.7827604464236 159.76531877828234, 687.017892087852 159.27367230286478, 653.826287674249 160.23885448931043 M653.4584761860208 158.1351260485836 C651.8824207432193 142.0593567079216, 653.6120863485362 122.349089687141, 652.0959889707743 109.93059045444225 M653.5014816006722 160.25733845679588 C653.3778901838514 142.89554141546034, 652.800342008319 124.33659628803484, 652.6974185666004 110.14113467922941" stroke="rgb(0, 0, 0)" stroke-width="1" fill="none"/></g><text text-anchor="middle" font-family="Consolas, Courier" font-size="20" fill="rgb(150, 100, 28)" x="682" y="140">id10</text><text fill="rgb(150, 100, 28)" text-anchor="middle" font-family="Consolas, Courier" font-size="20" x="682" y="97.5">1</text><g><path d="M711.9344629060363 110.00012008473374 C732.1926582630999 110.49027196476833, 755.961085670774 107.61306351607173, 767.2293489879155 111.98456524075591 M710.7680674168702 109.48795589450789 C733.1767903356765 111.21553348419828, 753.94000753823 110.21097487509462, 769.7902639418489 109.4282983570804 M767.3687949703187 109.49001944187498 C768.3113783620752 121.36516867009166, 767.3859823673461 133.98915901264553, 770.1472226653267 161.32589420297697 M768.8453109503029 110.75462466071863 C770.0131337013862 124.90869883934423, 769.4842692706391 141.44477601812665, 769.0325715001266 160.3178698885419 M770.89363984979 159.9882286714324 C749.4354377800726 160.37502269521354, 731.4119274133062 158.86128595727772, 712.5157641649855 160.8237214662388 M768.9315112519753 159.56018693377948 C753.8090082412518 160.92300049507037, 739.8768994959448 159.693760341347, 710.8737359777108 159.30789863038746 M710.1813917625498 158.5179586000807 C710.7676961642068 147.08912383099292, 710.0220726747145 131.90509330066055, 710.9678454293075 109.01189895891585 M711.6675653067259 160.687072374422 C710.6947849733701 139.20737881286286, 710.6228931185468 121.22442034518727, 711.707236861206 110.2364086503305" stroke="rgb(0, 0, 0)" stroke-width="1" fill="none"/></g><text text-anchor="middle" font-family="Consolas, Courier" font-size="20" fill="rgb(150, 100, 28)" x="740" y="140">id90</text><text fill="rgb(150, 100, 28)" text-anchor="middle" font-family="Consolas, Courier" font-size="20" x="740" y="97.5">2</text><g><path d="M768.2148688038908 111.64994417461209 C790.6795187212076 110.56402063805257, 808.1434900617716 110.60486309100513, 827.8299194979754 108.14016209502579 M769.774168159402 110.44907795347514 C784.9536301271039 111.1782671519099, 800.0446037900539 110.89927478669031, 826.4485716837347 110.89153886648499 M826.8838662666262 108.34313840075731 C826.2518565804162 129.10809436078569, 825.432966342324 146.68582610190572, 825.3069082002871 160.96253897843363 M827.5651352663591 109.87099436702484 C827.7554538440997 125.94865744511796, 826.1552325076415 141.4839308962622, 827.3217786699316 160.81466084923525 M825.3034729732772 158.48141736899913 C808.2095323449657 160.18852374306536, 790.4097394973554 159.77852650516144, 769.0483715338238 160.8354207554228 M826.1835988439229 159.23892907577792 C804.964546578907 159.28925879170828, 783.5742888370854 159.52265373746081, 768.135649862628 160.2314264728707 M770.6814335120831 161.72902827263317 C768.1785819685423 148.99364457988847, 769.6841694250468 138.38656182908235, 767.487545394319 108.94867870047459 M768.0450133433366 160.06506310095537 C768.4636843804641 140.86842177757688, 769.9327767466697 121.97851342412919, 768.8704274937567 109.89345435677419" stroke="rgb(0, 0, 0)" stroke-width="1" fill="none"/></g><text text-anchor="middle" font-family="Consolas, Courier" font-size="20" fill="rgb(150, 100, 28)" x="798" y="140">id57</text><text fill="rgb(150, 100, 28)" text-anchor="middle" font-family="Consolas, Courier" font-size="20" x="798" y="97.5">3</text><text fill="rgb(150, 100, 28)" text-anchor="middle" font-family="Consolas, Courier" font-size="20" x="600" y="55">id84</text><text fill="rgb(27, 14, 139)" text-anchor="middle" font-family="Consolas, Courier" font-size="20" x="822" y="55">list</text><g><path d="M570.4519778685033 24.68672961197256 C589.5559287028645 24.6460028754569, 605.409009057428 23.565052426503797, 631.2472715173642 25.47120594091112 M569.2338896271783 24.470712880370872 C592.1460630238065 25.291856441918394, 614.5495056915212 25.043912902024797, 629.938853966325 24.456092105150418 M631.4367087871219 23.765630745969087 C629.1134043807614 40.90915324125692, 630.0344573285062 56.558536853522625, 631.2623266474806 75.77173570717328 M630.3040158189065 25.0280706532259 C630.1640920505286 41.585942131731805, 630.5717064835374 58.47024278005207, 629.2063668979978 74.51170503734666 M631.2656590517721 73.67153505843945 C616.2509651635328 74.21288363527552, 600.8802349429947 74.10211041177672, 570.8353962830421 73.68146645091991 M629.161151256739 74.83224927563205 C614.847197843795 74.02428395616077, 600.5602536311891 74.38500410422043, 570.8531452530644 75.95601139957988 M570.5706022445615 74.79368938274936 C567.9835232887673 60.552398298991946, 571.7618470633611 44.06090455567044, 571.8232554380461 24.253324716296486 M569.4080725958376 74.32259135382924 C569.8327152293391 64.58782046171204, 569.4374302173446 52.87887373625694, 569.3219819263296 24.652173067861355" stroke="#000" stroke-width="1" fill="none"/></g><g><path d="M792.4035722837302 23.088342367485996 C811.0815478916463 22.79764420748461, 831.262733905254 24.301881342788725, 852.4065321405889 26.21517953407112 M791.237940179213 25.004026460629614 C809.9485769798043 23.940121787785955, 830.4499108891663 23.925466485690986, 851.5678750457649 25.552629858213937 M852.4656372074534 26.41775315509936 C850.4212938363926 35.01902448704127, 852.1676427635339 48.301718724435716, 850.1836715166947 76.50879639196495 M852.77976515676 25.545721975502023 C851.3879643529202 40.64851449500498, 851.2171758147257 58.88279088246944, 852.7443216799181 75.64877484368239 M850.4807294996056 74.8663781053365 C830.1116475954703 73.9388610548262, 805.6941728608039 77.25099103689494, 791.1588580967723 75.66876461265815 M852.7707826967674 74.21840187065959 C834.577882750158 75.28321778968889, 816.4034913575038 73.98513770573996, 792.0956553380156 75.08317712772964 M790.9404758574684 76.82299122901438 C793.5204756182511 58.64030304820163, 791.2468603003687 39.68667185893179, 792.8715363351896 24.573255113227887 M792.4083997864631 75.53356272843189 C791.9907965029378 59.49866082553838, 792.7816706813918 43.9204488679363, 792.9662767369783 24.733246073762082" stroke="#000" stroke-width="1" fill="none"/></g><g><path d="M882.3742906552204 26.145858290023547 C948.0261171991525 26.89532943023238, 1015.3902430601657 25.333707542520933, 1082.9714489422538 24.223509524905772 M881.7172357911987 25.889956607504054 C942.6365075931143 24.958647578103857, 1002.4570678969076 24.008323089051775, 1082.8669839054567 24.837481634348325 M1082.8955834428068 26.748586400092755 C1080.8839283129773 67.17023797817046, 1079.701712023166 112.40554322614327, 1080.6540401270274 153.0964256101841 M1081.7340128140963 24.506316172997835 C1080.5553526396525 61.315452922283036, 1081.966327852459 97.08542622529887, 1082.6281225678165 155.70814170165858 M1080.8682738784441 154.28311619933655 C1033.7107933943557 155.11700221005074, 982.5072563564237 154.31017204757399, 883.6818660544609 153.27202547342557 M1081.5243245200368 154.67650789253736 C1020.3089974962047 155.31117221982606, 958.9099211157827 155.48103909454025, 881.8033061799879 154.6000050754146 M883.825494913646 154.7246797275904 C880.436717628123 122.68642466997103, 882.8631781868385 87.68643288820867, 881.3680861987186 26.233395891126285 M881.524783205012 154.95234307333573 C883.1257674504195 122.48646809670315, 882.936165020242 88.78071415449674, 881.9405545284045 24.57547884279663" stroke="#000" stroke-width="1" fill="none"/></g><g><path d="M876.419663620407 20.295841311293383 C922.7277148034104 18.244068841452577, 970.6903977060309 17.42066978854922, 1089.6869787918217 20.176310416691667 M875.8210274556612 18.821776075939 C937.7146509492297 17.13348267278391, 998.8544149094582 18.490878670083223, 1087.2887963368692 18.541944394138596 M1087.085622226894 18.61727829040729 C1087.4239507564405 59.823892994730116, 1087.3189550263435 104.56749988230693, 1087.9689190593044 159.71963679608106 M1087.6011253710908 18.64451934675803 C1089.4554661315392 48.0763714001329, 1089.343352323369 79.14093323331113, 1087.6448071791083 160.13049649686354 M1086.5643779474242 161.96106167320036 C1020.2849608544325 162.96191155035683, 955.043286449859 162.21952737459367, 874.9628212664493 159.53248179525986 M1088.7503010673179 161.13714221338944 C1035.5558002059424 159.94536039630327, 984.6234770642811 160.35822248164126, 876.4403784823267 160.88432246575 M874.3829419345861 161.9703287356128 C877.4427670157786 113.76835853875662, 877.8675228410742 63.700839933878854, 876.6809542116856 20.75163799540333 M875.2601675269921 161.14587273153526 C875.1968724563004 115.8355975619056, 875.9777451083695 70.04777565218279, 875.8096885787836 19.24165328045398" stroke="rgb(0, 0, 0)" stroke-width="1" fill="none"/></g><text text-anchor="middle" font-family="Consolas, Courier" font-size="20" fill="rgb(27, 14, 139)" x="982" y="115">1969</text><text fill="rgb(150, 100, 28)" text-anchor="middle" font-family="Consolas, Courier" font-size="20" x="912" y="55">id19</text><text fill="rgb(27, 14, 139)" text-anchor="middle" font-family="Consolas, Courier" font-size="20" x="1052" y="55">int</text><g><path d="M881.5289411767117 26.410121844784737 C895.2071268301092 26.150872568175703, 910.61105327881 26.180728933745204, 940.1931815615909 24.522911876025876 M881.9244322102578 24.956256284689637 C899.8194006924252 25.53241123355705, 917.9420656284877 23.990512814903067, 942.1411315218554 24.36523288151063 M942.4694700791337 24.050034832859353 C943.2483535265609 39.57423898328165, 942.6980972083721 52.70573794521842, 942.9498859117755 75.46611318063125 M942.1226781189935 24.12814831980005 C942.7362367061721 39.88236785246605, 942.5248855325352 55.98654689593644, 941.1576607902297 74.81348294226001 M943.165167491577 74.87172223109596 C924.4042971311986 74.85917825645747, 903.7299711837029 76.73032105498116, 880.4395277089388 75.41584085547075 M941.6897530824905 75.42365467196792 C926.4933976604891 74.41102430004463, 912.3517572459543 74.32798989303444, 882.4473482645815 75.43575979911117 M881.1654669296609 75.73844749538063 C880.7699512164926 56.12299557585352, 881.281891832151 36.35393951954148, 883.4723537955252 25.633759200231637 M882.9149757063315 74.00923362088304 C880.6733550235269 55.28340931930858, 881.1039513141395 35.28058664172486, 882.0445607163578 24.63452467112093" stroke="#000" stroke-width="1" fill="none"/></g><g><path d="M1020.5363233134862 25.432900332030876 C1042.288005105999 26.090934204738893, 1060.7237271301353 25.675662163917643, 1083.8998236983753 26.06719903253468 M1021.7862099282132 25.542168869126947 C1038.6869216884377 24.476613972910993, 1057.1275361864573 23.91903616555711, 1081.450138694011 24.40230252652738 M1080.2820164702823 23.4072122705155 C1081.3986268718131 42.1335446474313, 1082.8488627840825 58.971138456126646, 1080.9977016561518 76.97613590208513 M1082.9467875796493 25.86329392107937 C1081.904827473892 37.910770161269234, 1081.6666739474917 51.24140416531907, 1081.0094005684907 75.77132170601125 M1083.7277277447286 76.13477239951287 C1070.2019386295847 73.72305200314986, 1056.0883299962657 74.36041410191143, 1022.8582090268729 76.53098732353541 M1081.9165388985828 75.34407782428593 C1069.318626287445 75.35811525740029, 1056.000194141594 73.62805867503533, 1021.3750574981372 74.80108936477981 M1023.8074353528971 73.36984932286782 C1021.13832052138 54.27115075131728, 1023.582271100652 37.86796184361001, 1022.8239821023163 24.898002226224914 M1021.246824968199 75.71533917847512 C1020.7239790333273 59.48586640240976, 1021.8124968304205 43.30934365728345, 1022.7016474223707 25.33782903573144" stroke="#000" stroke-width="1" fill="none"/></g><g><path d="M258.463393775037 256.52983448944974 C332.77172185236475 254.60245452647834, 406.14518350691895 253.87339946361, 456.54814886538406 255.94696727943102 M257.3115811267929 254.82360206930585 C318.09253366786146 255.67991505792, 376.95060792601055 256.1459713451063, 458.24620243622945 254.69818239791596 M458.4547271421826 256.801165746955 C458.4505856450708 301.4807123432116, 459.0237904387144 347.98699799546733, 459.83905761234826 384.6710042138728 M457.56842766866396 254.4513722663273 C458.6992736631979 291.21438726841865, 459.4724787967691 325.5943643840824, 458.92136264162843 384.87690441072846 M458.3200271966777 384.58883312604934 C413.69453947154796 385.69782016893384, 369.140714154074 387.32151842628986, 259.366258269821 384.92031037812643 M457.9083057811962 384.2844469005231 C395.8911724694168 385.80940999655877, 335.7106033885538 386.4839097249045, 258.24064326916 384.8759064838252 M258.060809912068 384.95780671627944 C258.83459732957164 351.6033974862018, 258.61730579120865 315.5825565032472, 258.5510030864878 256.1587544756243 M257.14698396650874 385.11525322424035 C257.29700856552836 334.11169068670597, 256.3647031211074 284.19353795157787, 257.5572537381823 255.29805456280252" stroke="#000" stroke-width="1" fill="none"/></g><g><path d="M252.897848757182 247.83904987569926 C325.6139944323976 246.60144260278628, 398.68507366560925 247.54520961604467, 462.5852907115022 247.31544884382862 M252.56430878053547 248.3624545861294 C298.61323198742116 251.51869856643614, 345.2484627958487 250.28393548358008, 463.3291645368015 249.16427157323383 M463.151340408621 250.51029910205125 C467.2673248849462 284.65606954590504, 465.8127226732205 324.4018211677011, 462.4911341674496 392.01871697620663 M464.11860118670353 249.97964160491287 C461.94722794474706 306.230800509591, 462.33348879387415 361.735118625009, 464.78567504038205 391.92153839918006 M465.0204254235017 389.5648489254529 C403.4428627061261 393.69367454230076, 346.1016630822715 392.3218755337493, 253.33707029440808 389.5824774688296 M464.35901877218726 390.26030980233617 C389.4816401858922 389.10799254713316, 313.7728551489152 389.5497928557035, 251.83075239119393 390.26365639633315 M251.15650980382784 390.69283499784575 C249.98049986239624 345.72234413444727, 250.96165680362412 298.90274819460393, 252.76350268648642 250.09323762619218 M252.46828883638372 391.30776244690134 C252.74441225547858 340.14247650314275, 253.424665820181 289.1433620678584, 251.31169949171831 249.3730829322643" stroke="rgb(0, 0, 0)" stroke-width="1" fill="none"/></g><text text-anchor="middle" font-family="Consolas, Courier" font-size="20" fill="rgb(27, 14, 139)" x="358" y="345">True</text><text fill="rgb(150, 100, 28)" text-anchor="middle" font-family="Consolas, Courier" font-size="20" x="288" y="285">id32</text><text fill="rgb(27, 14, 139)" text-anchor="middle" font-family="Consolas, Courier" font-size="20" x="428" y="285">bool</text><g><path d="M259.0713746427093 256.2928830800585 C277.49952264555225 255.22696403804827, 299.78221558634283 256.0618366868173, 318.52507509321356 253.549402807694 M258.3147062120699 254.7125735208321 C275.8816869909792 255.56959850491643, 293.0847664179668 254.94021422221851, 317.7628088958549 255.87378254554258 M319.2951850736477 253.69551328161896 C317.2830891059885 269.7678967248851, 317.27345097408187 288.85837492630577, 318.7849818956309 303.48747800994744 M317.5480969718548 254.72022125124673 C317.4453408192363 271.8326610694934, 317.4395845466792 290.0445980000933, 318.7835421740502 304.2181205817561 M317.7315839350287 304.39016423981315 C303.8401631447419 303.57897184845774, 287.03883042867136 304.9022857805353, 256.8298107262443 303.1797510530469 M318.6225984726117 304.134030046266 C296.21651076968607 303.80537536609194, 274.4566769058598 304.9743007972991, 257.35134981985027 304.38567773030695 M256.50766827329505 303.1573871041269 C257.3173315649771 292.117980522511, 259.68759412414687 283.8687457495869, 256.826648349446 255.52864613318792 M257.18355366850204 305.0327422234305 C257.6478537706384 293.4334053381113, 258.2017377619838 283.74724222953375, 257.53525112307807 254.50194450308865" stroke="#000" stroke-width="1" fill="none"/></g><g><path d="M397.1340234213825 254.01688774191584 C412.4047065128848 256.16622397459884, 425.8684478234417 253.484814189042, 456.1550645830533 253.94483385963443 M398.93468863009804 254.42130430908222 C420.8228544367788 254.07515488682145, 442.93508759771527 253.9715347815713, 458.1450350636608 254.90153287108274 M457.58471964738635 253.5829259326375 C457.8803191290777 271.3373271477473, 457.123067500277 288.4770459942567, 457.56052079932 306.3365382092307 M457.7586934146642 255.28463778280124 C458.1743545472408 266.75634448302424, 458.49347795490877 277.8432245016231, 457.7534403524482 304.59928664100994 M459.3377102782281 306.7711940075394 C436.9126665608602 304.77335696798525, 416.87635727723415 305.8037949935521, 397.529640015053 304.2432875083861 M457.1763206942118 305.3000208942761 C441.1785190825512 304.03503982475974, 422.3049558504666 304.8211480096084, 397.6118298437468 305.03718893495653 M399.3410411304122 304.34761906912513 C399.550108299394 288.01686308062875, 398.2600870875288 270.887638215495, 396.5312691765106 253.2797077382315 M397.83499329609083 305.1631911768941 C397.6539615052655 290.1562754112234, 398.73424003831127 275.5328335308995, 398.94534227821435 254.77542836100818" stroke="#000" stroke-width="1" fill="none"/></g><g><path d="M500.65857028292413 254.24051369908668 C574.9956180546543 255.37453344107598, 651.4451569323451 256.88307168934335, 701.4544926608648 256.60025321966657 M499.84347444505835 254.88532783161904 C555.5585023198208 254.85989436748952, 610.9793319910739 255.79189842868425, 700.5525268321776 254.5582266452881 M698.0776402586891 255.9182226400664 C698.3722913815197 296.4369157120272, 699.7276579505561 341.53752083612085, 699.0934541886498 386.45032555893107 M699.3094097957668 255.17390344704927 C700.5411087882886 283.39449672135015, 701.0387887218737 313.5440164280819, 699.0617031613896 385.0205998416632 M699.3163928867514 384.3715909435013 C628.8854453426475 385.80698016391545, 558.3553620611589 384.1656860773335, 501.35203597553044 383.61441628228954 M700.6175280375862 385.0218269333635 C620.5281383494048 384.5641080073301, 541.4623708501913 384.35693758100604, 499.7758499608391 384.95608922840836 M498.7070769639517 385.31650628506907 C499.80806449212565 347.3021946362226, 498.7533081899644 306.20451151967785, 501.0244669191807 256.5462813553583 M499.5701172547305 384.81570569732213 C499.18594127501945 348.250327696712, 499.76237724193186 312.8028965309956, 499.48385090252054 254.04608656527952" stroke="#000" stroke-width="1" fill="none"/></g><g><path d="M494.31994147938104 250.16071932138857 C563.2666467759803 246.6323752165878, 632.728421508776 246.0748741409967, 705.6493119994996 250.72341308016118 M493.47392661885715 248.34056668900178 C570.2291023122156 248.38159373623165, 644.9461717191728 249.14367273132243, 705.1917505023515 249.43875000708752 M704.5818543278676 250.53512370958575 C706.60541474358 289.7747769120074, 707.5501767297592 325.9633428764729, 707.1448842421185 391.30791113490085 M706.91568847901 249.07027996959357 C706.6842885208702 298.01834060645234, 707.1355913070312 347.69875728555587, 705.3323444021728 391.96035743441587 M704.604949950483 390.20730299944853 C633.9530578730931 392.84186918979367, 560.2279674651851 392.16235256647633, 493.4189780988833 389.47619709647097 M706.6664088102013 390.43027825969295 C638.9852510558188 390.33448405322883, 572.7857790085677 389.63688662561384, 493.71877368991915 390.2964337692087 M495.54768837727437 390.99435357550936 C494.99799310750245 355.1758553309182, 495.9995702306102 325.0292526073304, 494.84523273642066 249.10873545698786 M494.8834568711872 391.6417850294886 C493.8655588403305 345.90374514576047, 492.14005062467334 303.05572174947423, 493.37625807387116 249.47765782526332" stroke="rgb(0, 0, 0)" stroke-width="1" fill="none"/></g><text text-anchor="middle" font-family="Consolas, Courier" font-size="20" fill="rgb(27, 14, 139)" x="600" y="345">"David is cool"</text><text fill="rgb(150, 100, 28)" text-anchor="middle" font-family="Consolas, Courier" font-size="20" x="530" y="285">id43</text><text fill="rgb(27, 14, 139)" text-anchor="middle" font-family="Consolas, Courier" font-size="20" x="670" y="285">str</text><g><path d="M501.876463647548 256.19379827199214 C523.6384333484663 255.28397225018716, 545.4474519061537 255.4046728595497, 558.557939425401 253.0533722307293 M499.791797690163 254.89453892999995 C516.5903012692258 254.67779017102154, 533.6627587602502 254.83935516354867, 559.5566180531309 255.34293481531523 M560.308115730545 254.25902568860522 C562.1639336747888 271.9327313908955, 560.8312883220873 290.0544799285524, 558.2482394522553 304.73026998440696 M560.5785446596317 255.72546593243845 C559.7388455271039 270.9315953267927, 559.0128600737708 284.695438594125, 559.6073666302186 305.222006029255 M561.3045438196408 303.48094479597455 C541.3673475743166 306.6508720451052, 525.0836098243971 303.3088378780206, 500.47369644506153 306.4911329310221 M559.9432617288898 304.4281153352546 C538.1059206169153 304.5075522027236, 515.4528660111887 304.7016795679286, 499.38741420141685 304.92559433855314 M498.0843833383953 303.40876094542995 C499.54752590554864 283.9463370609293, 500.71460372861196 267.18175644981153, 498.8667861513892 254.8891241898118 M500.92988429322537 305.47327028566986 C500.121206187817 289.4820285324734, 499.18299876100724 275.4096886654743, 500.2494490322076 254.34464814173745" stroke="#000" stroke-width="1" fill="none"/></g><g><path d="M638.0098676972858 255.53540682975685 C660.1835235712056 254.33823065919455, 677.5213257266211 257.0713646697714, 699.4264616305853 253.3862150527699 M639.7235277700938 255.71742109797768 C663.576817115456 254.50489258244684, 687.3084092189497 253.9434432700977, 700.0742493263673 255.13549424125017 M701.8047743705264 255.81071548952994 C699.9372043100082 270.7329424796896, 701.3398672942028 289.7133792918924, 700.4619278447136 305.7724765367531 M700.4952296868652 254.90780014374317 C700.6420979544706 265.16517304402686, 699.1772047079003 275.42115158389123, 699.9682166186368 304.8352350266963 M700.4293379980222 303.94669333630014 C687.0291636968033 306.3348788469705, 673.14077875481 306.6627157640969, 641.7102655422193 304.29344192535655 M700.0816569075141 305.6343261686821 C687.2783243567912 304.6871205591217, 676.2088584685673 304.9387094427612, 639.7896367926863 305.67763230102383 M638.5172768897361 303.931796192169 C641.0709331371886 285.60467356091044, 638.5515046708734 266.23297158250267, 640.8324365987736 255.90419709503277 M640.2481151918047 304.75327669619026 C639.9183755455103 289.29866074507, 639.3051579370375 271.89855578766225, 640.3134583880309 255.7647710015287" stroke="#000" stroke-width="1" fill="none"/></g><g><path d="M973.4899525970359 254.71872843282378 C1030.9801025234085 257.05738132163077, 1092.2348448414928 257.4053890261976, 1171.089172727148 256.46947428514454 M971.4242782972265 254.80695589668483 C1018.0333991285748 256.41169460285187, 1062.7008435882867 256.3726405332324, 1171.2471880010953 254.10831901443922 M1173.455123697386 254.35225860427627 C1172.0841626636557 299.4196143070731, 1169.3301558704704 340.0794030787958, 1171.390352395661 384.99806126462033 M1171.7471806795709 255.5576839346604 C1173.0618105713631 294.1109115154703, 1172.6506278615955 334.0913669872928, 1171.346814305001 384.05612039246887 M1173.1665622246114 383.3433918215603 C1109.470879650688 385.0229587913696, 1049.5421785341603 385.66405558665525, 973.747960148501 384.51429648207363 M1171.5378256542338 384.87405586474415 C1110.8365073897112 385.23858132911505, 1050.940230234481 384.17719855101666, 972.0336684400793 385.4086797612565 M972.9003136559515 386.5679339231343 C973.2637437185195 358.93368911710405, 972.0206349213871 331.1027218273928, 973.2857980174184 256.6931193697942 M972.4337871947037 385.5381868238385 C971.752679670838 352.1705366804583, 972.1555739099817 319.02441373294073, 971.8300933585696 255.09176076722906" stroke="#000" stroke-width="1" fill="none"/></g><g><path d="M966.1733799382484 247.89813455282427 C1025.831007705312 248.33978343888512, 1089.2886355663134 247.87165617583761, 1177.7274731982288 248.71061218361274 M965.6291001909444 249.1541569288394 C1038.4228241216895 247.2665270901669, 1109.1039063682513 246.73101754041167, 1177.7519581746333 249.1383237444551 M1177.8243662871328 249.10974938673561 C1177.1043534014077 293.43339667875233, 1177.0967390983683 338.46907058724685, 1179.1684324217872 389.41478510215376 M1177.0813941429437 249.8441890726577 C1179.2265963769614 285.426202580366, 1179.1921966017583 322.7709630438133, 1177.2485846478514 391.79371658197687 M1179.0020433164743 390.1815169627923 C1103.4378421811946 390.09738197603633, 1027.5338614451387 388.49500628065033, 967.2751369206874 390.90565196896114 M1178.635527443917 391.4033688272136 C1130.5574371916907 391.01333671066294, 1083.7983010602522 392.2789243309555, 966.825682477062 391.08327862894004 M967.7745484808152 391.1772117506773 C965.4940944552542 360.9852025969092, 964.3018703973434 330.97232833272415, 966.0539720978102 249.05823997269874 M966.5405520377735 390.01876225383126 C967.1048844906904 360.0846514752572, 966.8923563806545 331.39266685204063, 965.2276119894651 248.5362377001756" stroke="rgb(0, 0, 0)" stroke-width="1" fill="none"/></g><g><path d="M996.6131489325304 318.353316335008 C1010.0785483304315 319.36867349637384, 1025.3933291312192 320.3908285984822, 1054.3348874390372 319.6358793475756 M997.3509074891568 320.98590977726764 C1017.8781879801155 321.31674656879517, 1038.4709606350805 320.97640748482485, 1054.768426781896 320.44672189056587 M1056.2653394488414 321.32598542744796 C1054.8251167248243 336.6877805391557, 1053.3973576031935 358.2241263420674, 1055.2936040957118 368.8791930212791 M1055.2376512267042 320.15043380804576 C1054.987193970896 333.91902249640583, 1056.0940499956707 347.9277117067733, 1055.2951781832587 370.42308245367195 M1056.6476375071097 368.3448013846356 C1033.0513175264791 369.6800891589711, 1016.0989168216082 369.4859781127316, 998.5416595106434 369.512470244932 M1054.5293773762169 369.30335666774994 C1041.3556032599547 370.33923345570577, 1028.0576310687045 370.6472649548715, 996.3785340551101 369.2208897988944 M996.3327371573753 369.40418469183015 C998.4615690279205 355.88172121759084, 997.3972024603067 344.1599318302455, 996.3339676621918 318.79150883932834 M997.0109181165342 370.45212870591064 C997.4711777120009 355.20222691735944, 997.6352473043787 342.12322395412355, 996.754884055209 319.348944102175" stroke="rgb(0, 0, 0)" stroke-width="1" fill="none"/></g><text text-anchor="middle" font-family="Consolas, Courier" font-size="20" fill="rgb(150, 100, 28)" x="1026" y="350">id82</text><g><path d="M1056.236097666038 321.0942319768309 C1074.617456044489 320.6981894051781, 1095.4857678251349 319.0581687431264, 1111.3459955794942 319.3717475449691 M1055.2015916685675 320.511256825131 C1076.3056083565536 320.54870002804495, 1097.1903851396492 319.8543799042339, 1113.0410674803209 319.7126737272743 M1111.9342221330717 321.54681720263847 C1113.898468390403 336.7447853705641, 1112.1307269992703 352.9441321089993, 1113.2226360176983 371.2332603733635 M1112.2417266734724 319.0358277108029 C1112.5316679374312 335.82978996821413, 1113.7965405987022 352.7801060433026, 1113.7216248183533 369.4872624996605 M1111.5643657574972 369.3537924908786 C1091.6914634869934 371.1500220167132, 1066.9832449035948 370.6041216456409, 1055.3354440885842 369.45470727630044 M1112.0005432654639 370.7723685901843 C1096.019292714893 369.10871164305064, 1080.3122514685242 369.59352423804927, 1055.422335961929 369.7046140435789 M1053.5229590870895 368.7515491788215 C1056.7515443612476 350.25415653505684, 1056.0458861680124 331.8328101069142, 1053.2930725656033 320.96983418467227 M1054.3385400541922 369.43381751757346 C1055.0566964747577 353.2034679042708, 1054.2977964354873 337.1269315046083, 1054.6124316818507 319.44697440635116" stroke="rgb(0, 0, 0)" stroke-width="1" fill="none"/></g><text text-anchor="middle" font-family="Consolas, Courier" font-size="20" fill="rgb(150, 100, 28)" x="1084" y="350">id76</text><text fill="rgb(150, 100, 28)" text-anchor="middle" font-family="Consolas, Courier" font-size="20" x="1002" y="285">id11</text><text fill="rgb(27, 14, 139)" text-anchor="middle" font-family="Consolas, Courier" font-size="20" x="1137" y="285">tuple</text><g><path d="M970.9774381518768 254.42801757890103 C989.5269499980735 253.03301122797086, 1009.7820537206263 256.4494789352151, 1033.2616198825353 256.33370632884987 M971.5640529776026 255.05815652238334 C995.9478254559842 254.34345887017972, 1019.597156335406 254.25508473191408, 1031.8724080049178 255.1840054039024 M1033.9716529748982 253.1612183885357 C1033.217125310215 266.30847780197627, 1031.983565151635 275.68739390683527, 1030.0920925657442 305.55645507916256 M1032.7488599524074 254.1215883387622 C1031.8213031423054 264.6713956836087, 1031.4323157351193 276.2566993569036, 1032.8299355567863 305.4815931063956 M1031.0660417018062 306.77618025675224 C1010.1791941658581 305.845542488534, 983.4249755706792 306.0310342692042, 972.3080575085197 303.1654473716792 M1031.3006578361785 304.4132317825812 C1011.3836402086077 304.2050840761748, 992.6069220707499 305.938921952968, 971.7750072496658 304.5917324509545 M971.4648592693103 304.4300558917325 C972.4195964301441 294.24972283304265, 970.4877025182441 281.31799739976947, 973.1446735491252 255.1287154772259 M971.5840261397749 304.0108350926925 C972.7107512876541 292.39719300011217, 972.0880807483537 281.33232462846723, 971.4012437709304 254.6784628634678" stroke="#000" stroke-width="1" fill="none"/></g><g><path d="M1100.6891454886597 255.66643228150147 C1126.2753181167707 255.87325695526766, 1147.3396117939046 253.37317405905017, 1170.1340058383257 256.8988961964996 M1101.8762458351362 254.69303530097457 C1121.3651959006625 253.96140025880305, 1141.9165130255324 253.88897000845742, 1172.2402873076949 255.22616625062233 M1172.2446187687174 254.10906287874099 C1173.6880744766318 268.767457525891, 1171.384609560696 283.19199459411936, 1173.059919958733 305.03038767050845 M1171.8948032498506 254.73941984988318 C1170.8143740451824 270.668093641658, 1171.58753583123 284.8501416898549, 1171.315736371229 305.50291584057425 M1170.796717005584 304.11178199385466 C1151.7589136535596 305.3680125608359, 1129.3436070817247 304.3136446748887, 1102.7278033630712 304.5193236019706 M1172.725406548243 305.17201320911306 C1150.9738614584187 305.49584825313883, 1131.6331407728135 304.81234054484827, 1101.3187472522627 304.35188891707486 M1102.1620372273583 305.0001539586341 C1102.606259003844 291.5378904635564, 1103.19560968521 279.984429689865, 1100.7204273807367 253.5610773321664 M1101.2239976434494 305.16475263664677 C1101.555592890589 292.36769147889225, 1103.255267592388 281.96589346007306, 1102.1427251940247 254.6631430185048" stroke="#000" stroke-width="1" fill="none"/></g></svg>