<svg data-theme="dark" width="287" height="217" xmlns="http://www.w3.org/2000/svg"><title>Python memory model diagram showing objects</title><style>
        :root {
        --fade-text-color: rgb(0, 0, 0);
        --hide-text-color: white;

        --highlight-value-text-color: rgb(27, 14, 139);
        --highlight-id-text-color: rgb(150, 100, 28);

        --highlight-box-fill: yellow;
        --highlight-box-line-color: rgb(0, 0, 0);

        --fade-box-fill: rgb(247, 247, 247);
        --fade-box-line-color: gray;

        --hide-box-fill: white;

        --primitive-value-color: rgb(27, 14, 139);
        --id-text-color: rgb(150, 100, 28);
        --default-font-size: 20px;

        --highlight-object-fill: rgba(255, 255, 0, 0.6);
    }

        text {
            font-family: Consolas, Courier;
            font-size: 20px;
        }
        text.default {
            fill: rgb(0, 0, 0);
            text-anchor: middle;
        }
        text.attribute {
            fill: rgb(27, 14, 139);
            text-anchor: start;
        }
        text.variable {
            fill: rgb(0, 0, 0);
            text-anchor: start;
        }
        text.id {
            cursor: auto;
            fill: rgb(150, 100, 28);
            text-anchor: middle;
        }
        text.type {
            fill: rgb(27, 14, 139);
            text-anchor: middle;
        }
        text.value {
            fill: rgb(27, 14, 139);
            text-anchor: middle;
        }
        path {
            stroke: rgb(0, 0, 0);
        }
        .highlighted path {
            fill: var(--highlight-object-fill) !important;
        }
    
        [data-theme="dark"] {
            --highlight-value-text-color: #110875;
            --highlight-id-text-color: #6e4409;

            --fade-text-color: #BBBBBB;
            --hide-text-color: #121212;

            --highlight-box-fill: #EDB926;
            --highlight-box-line-color: #FFFFFF;

            --fade-box-fill: #2C2C2C;
            --fade-box-line-color: #666666;

            --hide-box-fill: #121212;

            --highlight-object-fill: rgba(72, 207, 173, 0.3);
        }
        [data-theme="dark"] text.default,
        [data-theme="dark"] text.variable {
            fill: rgb(224, 224, 224);
        }
        [data-theme="dark"] text.attribute,
        [data-theme="dark"] text.type,
        [data-theme="dark"] text.value {
            fill: rgb(144, 164, 237);
        }
        [data-theme="dark"] text.id {
            fill: rgb(255, 183, 77);
        }
        [data-theme="dark"] path {
            stroke: rgb(204, 204, 204);
        }
</style><g role="graphics-object"><title>Int id54 with value 4</title><g id="object-0"><path d="M49.518145267489686 26.578770003394887 L248.95267902474123 26.862553206784426 L249.07123163205534 154.10670898376762 L50.85339246089747 155.5347897157784" stroke="none" stroke-width="0" fill="black"/><path d="M50.323869900872815 24.137919934426264 C126.52543582853046 25.15647281676692, 200.48720058506805 28.480008200227903, 248.86808387944845 25.629877989122097 M50.39424328969297 24.24208673172627 C128.44988525170308 24.360013806200893, 204.66175997553768 25.1075513028727, 250.61114643466982 25.213791360705763 M250.6177866054626 26.05998772821757 C248.85381539889076 72.85446015129881, 250.48533832572105 119.41403650805617, 250.31840352720496 154.88538243886666 M249.5736553848459 24.008230342298774 C251.2327172408084 58.03922706357212, 250.2668484922169 93.23349461873146, 249.57398643540168 155.61540702900365 M249.61872290214617 155.07013336402036 C182.4037262025936 156.35437658884192, 112.38143537487049 156.40695666551724, 48.5134873623346 154.5153684393405 M249.366513387826 154.26273907355315 C174.31199351865155 156.8381073090479, 100.9286220935361 156.63458727410898, 49.560180659337966 155.27396813510754 M48.71172896004862 155.819253721096 C49.78767280407859 121.74984639579662, 48.279061826366444 89.68741116509368, 48.36097552695385 23.069899474728008 M49.461545217707155 155.90377389378315 C50.02288204060475 111.30604055137073, 50.3784906000616 65.35182055898348, 49.34995694020057 24.37244898672534" stroke="#000" stroke-width="1" fill="none"/></g><g><path d="M44.49936705813179 20.611023225010022 L254.6318422865481 19.156708369824592 L255.52722490539432 160.63311458237177 L43.279993222688596 159.12618741670266" stroke="none" stroke-width="0" fill="none"/><path d="M44.667661679367505 19.740791945785304 C110.89688853522678 15.966580997740259, 181.5553258293156 17.05656920964681, 255.0883919856224 18.170967966455784 M44.72818431601876 19.31606175150819 C96.98871765416736 20.479682069117498, 149.62058101738646 20.356417043051692, 256.48655509246345 19.46376991818464 M254.98367238947307 19.439994891427226 C253.6953324114187 71.27518826545669, 253.98773892162103 125.14049634967049, 255.20361980878022 159.5003566950551 M255.80667827259805 19.782096768257766 C256.41965090300016 50.96665217834182, 256.9913710676057 82.90804624045005, 256.80257495825964 160.17613734995766 M254.88368591820188 160.23996787297241 C188.7841140535973 160.48380045793868, 122.05244677519009 159.55361455313314, 44.19414036005142 162.28683647073646 M255.27223928596854 161.07320496250003 C202.27668554633235 161.90655438421857, 149.06778313208227 163.23923597310963, 44.7907909810935 161.74307984878814 M42.8755515962299 159.6640730010876 C43.32104212949118 124.01980491304975, 43.37557837529704 89.59596746859843, 42.741687477407694 19.721670829102244 M44.85019613138857 160.63024541951006 C42.86057921966978 106.59300711922843, 43.28928839829173 51.54856113290618, 44.850808171905484 19.85152996066201" stroke="rgb(0, 0, 0)" stroke-width="1" fill="none"/></g><g><path d="M49.20610139264015 23.427531341406286 L110.7354564545527 23.907378461904855 L110.8491573992294 75.74795538853604 L51.43904245946992 73.01618215964746" stroke="none" stroke-width="0" fill="none"/><path d="M48.30300320713847 25.216504725937117 C66.17627841155327 26.40245611584137, 82.37751643313801 25.95885505551848, 110.63720923957325 24.629465620197447 M49.684352577439725 25.708275669363157 C63.8444403355328 24.184796500312054, 75.18032952497163 25.253949887657996, 109.3431362624074 25.378112910067713 M108.78131564287474 26.147009836015627 C111.05189164937676 42.689779884060044, 108.75813848491697 58.297803688367964, 108.32055398631769 73.01981318973714 M110.36997321292071 25.299461567888603 C109.65471474833805 43.67315418896371, 110.51751410793631 62.68173257538013, 109.26946669059265 75.17970024512576 M108.5596756321914 76.7103457384872 C93.74262467256003 73.33753733790394, 74.47114304657367 75.45006753215743, 49.150653585181985 74.75580050434095 M109.29321154762151 74.48062115989948 C89.2039974686786 75.28770030976624, 68.73340551508382 75.80717302762777, 50.10165675565688 75.71016549061163 M48.43061100619834 74.16143627861227 C50.17673730503998 61.23673138488072, 48.41470291427152 47.244480794991176, 49.01214663313955 26.973699826449163 M50.936867542638176 75.24697377230211 C50.39847569504587 63.12877806765515, 50.251127927950066 51.85525363803054, 50.72528620573595 24.775608651303994" stroke="rgb(0, 0, 0)" stroke-width="1" fill="none"/><text x="80" y="55" class="id" aria-label="id: id54">id54</text></g><g><path d="M189.769563851926 23.884508475022745 L249.72163255504253 25.097093016855915 L249.906029019315 76.91673232127066 L189.9043145081366 75.54483706053844" stroke="none" stroke-width="0" fill="none"/><path d="M190.82636782798122 23.750611070469997 C203.15382027486962 27.387259537363008, 216.9682404368225 26.421731696531072, 250.8576212122513 25.034372573367303 M189.4717242261582 25.210768157702116 C205.85888064300792 25.66351752256724, 222.41235270717183 26.335919243380378, 250.88999562536944 24.79839169284016 M251.29786947482964 24.145177292243183 C248.51635257356693 42.27485733569647, 250.06954575967455 55.047806247128186, 249.39465704249042 75.18274288923837 M249.61825300003414 25.51632843482578 C250.85281747916295 45.03124589608653, 250.94687683822002 63.889963805175164, 249.9790244310551 75.99363137087036 M248.71055666097888 74.82636574703105 C234.64174214994802 73.6333036048693, 215.57485335419855 77.35785427781362, 188.07581969061545 75.08315348255364 M250.90190950188037 75.72819080831046 C237.43578556400035 76.22845144532315, 223.66001425358576 74.81885585202868, 189.22217810777346 75.3057949396113 M190.57613054070177 76.93936163716872 C191.05285600139968 65.36695281918692, 188.51947863991765 54.66714043528521, 191.44645791981625 24.957967413814046 M189.20218582773987 75.06741814420273 C189.67312490039998 55.57960972475066, 190.20601690050182 38.274383662726294, 190.62662352105883 25.987891670196532" stroke="rgb(0, 0, 0)" stroke-width="1" fill="none"/><text x="220" y="55" class="type" aria-label="type: int">int</text></g><text x="150" y="115" class="value" aria-label="value: 4">4</text></g></svg>