<svg data-theme="dark" width="287" height="217" xmlns="http://www.w3.org/2000/svg"><title>Python memory model diagram showing objects</title><style>
        :root {
        --fade-text-color: rgb(0, 0, 0);
        --hide-text-color: white;

        --highlight-value-text-color: rgb(27, 14, 139);
        --highlight-id-text-color: rgb(150, 100, 28);

        --highlight-box-fill: yellow;
        --highlight-box-line-color: rgb(0, 0, 0);

        --fade-box-fill: rgb(247, 247, 247);
        --fade-box-line-color: gray;

        --hide-box-fill: white;

        --primitive-value-color: rgb(27, 14, 139);
        --id-text-color: rgb(150, 100, 28);
        --default-font-size: 20px;

        --highlight-object-fill: rgba(255, 255, 0, 0.6);
    }

        text {
            font-family: Consolas, Courier;
            font-size: 20px;
        }
        text.default {
            fill: rgb(0, 0, 0);
            text-anchor: middle;
        }
        text.attribute {
            fill: rgb(27, 14, 139);
            text-anchor: start;
        }
        text.variable {
            fill: rgb(0, 0, 0);
            text-anchor: start;
        }
        text.id {
            cursor: auto;
            fill: rgb(150, 100, 28);
            text-anchor: middle;
        }
        text.type {
            fill: rgb(27, 14, 139);
            text-anchor: middle;
        }
        text.value {
            fill: rgb(27, 14, 139);
            text-anchor: middle;
        }
        path {
            stroke: rgb(0, 0, 0);
        }
        .highlighted path {
            fill: var(--highlight-object-fill) !important;
        }
    
        [data-theme="dark"] {
            --highlight-value-text-color: #110875;
            --highlight-id-text-color: #6e4409;

            --fade-text-color: #BBBBBB;
            --hide-text-color: #121212;

            --highlight-box-fill: #EDB926;
            --highlight-box-line-color: #FFFFFF;

            --fade-box-fill: #2C2C2C;
            --fade-box-line-color: #666666;

            --hide-box-fill: #121212;

            --highlight-object-fill: rgba(72, 207, 173, 0.3);
        }
        [data-theme="dark"] text.default,
        [data-theme="dark"] text.variable {
            fill: rgb(224, 224, 224);
        }
        [data-theme="dark"] text.attribute,
        [data-theme="dark"] text.type,
        [data-theme="dark"] text.value {
            fill: rgb(144, 164, 237);
        }
        [data-theme="dark"] text.id {
            fill: rgb(255, 183, 77);
        }
        [data-theme="dark"] path {
            stroke: rgb(204, 204, 204);
        }
</style><g role="graphics-object"><title>Int id54 with value 4</title><g id="object-0"><path d="M48.65471002093686 24.644918962116428 L251.06338048853524 26.99553409776641 L251.60805028178538 153.04006247930334 L48.69744242885457 154.67342723379255" stroke="none" stroke-width="0" fill="black"/><path d="M49.263801112758436 24.82877927039633 C116.40637856628732 24.804200035478004, 185.187616683386 25.515963168740424, 249.9997199612831 24.264353833480047 M49.24350169637355 24.703459686437736 C120.50981122211685 26.310502883181233, 190.15748392950974 25.35611353906923, 249.96061243530607 24.59061026863674 M249.045414066328 23.048831950682988 C250.14727600780049 54.33601428833231, 249.4555635084121 83.27218485295, 249.12506850354197 155.4575351356501 M249.72367629222583 25.2872717389053 C250.62562581767102 68.95668822116302, 252.16255682680597 113.23955121365319, 249.3345356808067 155.59958300117495 M249.57609312653886 154.75387124592777 C188.9833093678584 154.57895699235465, 129.12038107508914 155.3737697293991, 49.14599808050458 155.97441830117708 M249.86698484628218 155.382674772155 C202.0277400745079 157.21474951657743, 155.50198450127797 156.64584377350909, 49.915379617737734 155.83146222846358 M51.22596773416817 153.22124215372168 C49.48497344695493 127.66635238703418, 48.84000103850005 97.80419690103261, 51.309560840630326 25.486272733347757 M50.10816363242123 154.5101963580914 C49.84249252400886 107.58492520767453, 49.27767538854684 57.99957614141537, 49.12563897246834 24.687351975447335" stroke="#000" stroke-width="1" fill="none"/></g><g><path d="M42.46237376425968 19.35032335384375 L257.76648210538013 17.147453036234452 L254.5617346085118 161.04027254890698 L42.93637876687965 160.04567479262536" stroke="none" stroke-width="0" fill="none"/><path d="M42.60939680930962 20.275846882433953 C99.70089496402895 20.582592109239183, 154.50180551695325 20.085811172725766, 255.47174306900533 19.29169271182281 M43.47520281621937 18.212387997967227 C120.88887887486781 18.16318828170909, 197.5398867775792 18.653530949861217, 255.33465586250284 19.832095219113597 M256.9037453961143 20.387452212442742 C254.19834167105134 57.340367169356576, 257.92849656624804 93.96392956869293, 256.3782213969625 160.25109765193878 M255.23269452534146 18.021596167499936 C256.1879157585096 51.67577390912292, 256.5488280761887 82.97940231630585, 256.1652268810782 160.3861904559287 M255.01101870419478 161.81996964807902 C179.7617318362718 163.47492886565857, 103.4414054787834 162.3104339669658, 45.73771684904443 159.77113746000742 M255.64189039095783 161.34773139664145 C191.68040471702733 161.12062359787643, 127.61292821408796 161.04264478618367, 44.369516278020086 161.17966605937085 M43.15184788956556 162.87849991855566 C44.81184332474979 111.10627411949977, 43.03138480587302 62.185777025556625, 44.51957333806516 20.47699525759286 M43.814542506967 160.44761734554456 C42.744102648049186 108.26432236484335, 43.21846555082729 54.25258928868278, 44.66070586330791 19.699380707643414" stroke="rgb(0, 0, 0)" stroke-width="1" fill="none"/></g><g><path d="M51.04167356404442 26.675920008963132 L110.56505944906876 23.397795360760703 L109.43394036330139 76.91109310276578 L48.79639223860214 75.54980202689237" stroke="none" stroke-width="0" fill="none"/><path d="M48.039537274349804 26.929618397422114 C66.7999607638667 25.409318297637263, 81.32199057615752 25.392339081232077, 108.20613967092471 24.34405559843972 M50.92897596960616 24.244099909704 C67.74684891526795 25.497619965440666, 84.6941869477889 23.61839190280474, 109.60963890197843 25.446648588812412 M110.25182028894679 26.101808566470268 C108.39603461021822 34.199234807708876, 109.10795815099691 48.55572201655698, 109.00571853692819 76.75870200010245 M109.11265552011078 25.642866789798614 C108.72931406827084 42.0611771196686, 109.04363205416664 57.607914993928325, 110.54616273161868 74.91628737622057 M108.65492026179234 74.3526030456261 C98.41555956124898 74.47376936310023, 85.78562355718245 73.14411098263474, 50.27681884364351 74.7778057891595 M110.78597485020386 74.10709148378251 C96.25819545623051 75.4727097675943, 80.68428744915353 75.51151713014008, 50.83992372083057 75.69460743879563 M49.470554293744605 73.05796680016928 C50.43252056971873 61.6524607966341, 51.34763901578137 51.66044898146886, 49.17526933439127 23.46794490839039 M49.91413685272812 75.19634471308544 C50.97565237033615 63.98659819679823, 51.000918986384654 55.24507306348693, 50.69291158291703 25.67425985649375" stroke="rgb(0, 0, 0)" stroke-width="1" fill="none"/><text x="80" y="55" class="id" aria-describedby="desc-0">id54<title id="desc-0">Object id: id54</title></text></g><g><path d="M190.3792927557487 24.66581910086299 L249.1491621645488 24.015996638810055 L250.13297200214086 75.91419861284402 L189.85387004287213 76.76767503660824" stroke="none" stroke-width="0" fill="none"/><path d="M191.43830654380412 24.74403573181062 C211.17744720495403 26.44627962891545, 234.27681947209427 23.17872350637546, 249.6306102610599 25.596598546395555 M189.49855574337298 24.44141721547517 C213.42995882922997 25.13544663047599, 234.73293035957843 25.18709152558044, 250.64806162903193 24.784660896439416 M248.9500678883547 23.70365207944913 C248.37889244393006 35.16321306627546, 250.48780665344916 46.48994680841189, 248.99832860152145 75.07454749041857 M249.37484737909764 25.46010826989543 C250.22130821273487 42.81807322198496, 249.38006652007388 62.03065074264849, 250.36746068700393 74.92709267669872 M249.5291016535899 75.91990329314879 C228.7185809502397 74.05499965669998, 206.91588309127164 73.85309302301644, 188.15596396383597 74.89417906565345 M250.26772291629604 75.63015443200939 C234.9847552366542 74.30680143211842, 217.4318528514742 74.33872987139337, 189.5153646656984 74.86639319929499 M191.0339607390198 75.83277301210761 C190.06452995968476 61.58819972459647, 188.04873431725363 47.272072797857746, 190.23679236147228 26.32229251923303 M189.30196884701147 74.9816164240557 C190.2334606931557 56.66882224058725, 190.36205992974337 36.663012139508005, 189.49039642386592 24.321855162467777" stroke="rgb(0, 0, 0)" stroke-width="1" fill="none"/><text x="220" y="55" class="type" aria-describedby="desc-1">int<title id="desc-1">Object type: int</title></text></g><text x="150" y="115" class="value" aria-describedby="desc-2">4<title id="desc-2">Value: 4</title></text></g></svg>