<svg width="287" height="292" data-theme="dark" xmlns="http://www.w3.org/2000/svg"><style>
        :root {
        --fade-text-color: rgb(0, 0, 0);
        --hide-text-color: white;

        --highlight-value-text-color: rgb(27, 14, 139);
        --highlight-id-text-color: rgb(150, 100, 28);

        --highlight-box-fill: yellow;
        --highlight-box-line-color: rgb(0, 0, 0);

        --fade-box-fill: rgb(247, 247, 247);
        --fade-box-line-color: gray;

        --hide-box-fill: white;

        --primitive-value-color: rgb(27, 14, 139);
        --id-text-color: rgb(150, 100, 28);
        --default-font-size: 20px;

        --highlight-object-fill: rgba(255, 255, 0, 0.6);
    }

        text {
            font-family: Consolas, Courier;
            font-size: 20px;
        }
        text.default {
            fill: rgb(0, 0, 0);
            text-anchor: middle;
        }
        text.attribute {
            fill: rgb(27, 14, 139);
            text-anchor: start;
        }
        text.variable {
            fill: rgb(0, 0, 0);
            text-anchor: start;
        }
        text.id {
            cursor: auto;
            fill: rgb(150, 100, 28);
            text-anchor: middle;
        }
        text.type {
            fill: rgb(27, 14, 139);
            text-anchor: middle;
        }
        text.value {
            fill: rgb(27, 14, 139);
            text-anchor: middle;
        }
        path {
            stroke: rgb(0, 0, 0);
        }
        .highlighted path {
            fill: var(--highlight-object-fill) !important;
        }
    
        [data-theme="dark"] {
            --highlight-value-text-color: #110875;
            --highlight-id-text-color: #6e4409;

            --fade-text-color: #BBBBBB;
            --hide-text-color: #121212;

            --highlight-box-fill: #EDB926;
            --highlight-box-line-color: #FFFFFF;

            --fade-box-fill: #2C2C2C;
            --fade-box-line-color: #666666;

            --hide-box-fill: #121212;

            --highlight-object-fill: rgba(72, 207, 173, 0.3);
        }
        [data-theme="dark"] text.default,
        [data-theme="dark"] text.variable {
            fill: rgb(224, 224, 224);
        }
        [data-theme="dark"] text.attribute,
        [data-theme="dark"] text.type,
        [data-theme="dark"] text.value {
            fill: rgb(144, 164, 237);
        }
        [data-theme="dark"] text.id {
            fill: rgb(255, 183, 77);
        }
        [data-theme="dark"] path {
            stroke: rgb(204, 204, 204);
        }
</style><g id="object-0"><path d="M48.90518915223789 24.146660779832764 L251.64454488791299 25.54761219617373 L249.8571716483561 155.17454308082364 L49.54738598870202 154.819727712005" stroke="none" stroke-width="0" fill="black"/><path d="M49.17922978752884 23.758623089360725 C104.27307416347506 23.322158086693808, 157.5989508848355 25.05140882660805, 251.2424731566976 23.21038965543357 M50.51989404096509 24.852569646494725 C95.58116598654844 25.992486081760568, 139.0051259013749 25.078309815481088, 249.41423578153828 24.666330481396972 M250.55043954450193 25.583665976786175 C251.2939906705651 72.79391608991969, 248.90385099657038 121.11878406407254, 250.5163093059627 155.62553335909215 M249.59712304697052 24.2198182580457 C248.80608416899628 56.63207614453663, 249.44510754124838 87.02683907708932, 250.04464144792954 155.55749386895764 M250.7641804429538 154.54979502447765 C198.2996266385273 155.2089920188919, 144.45333002957148 158.0071694214542, 50.282153594145804 153.4082280101012 M250.13302431871702 155.37411417432202 C171.85437439683784 157.08896798725468, 93.9342605454282 157.3398833594339, 49.76180097621859 154.90638837393533 M48.71796660343739 155.9627361974145 C48.29432697405271 103.9145517434796, 50.317402094422725 56.66460125713496, 49.43412840600231 25.76012916309283 M49.318223449195074 155.43984443591378 C50.99018641373692 124.19905594786593, 51.2153376003038 92.26631421623468, 50.049222718197065 25.016227024647986" stroke="#000" stroke-width="1" fill="none"/></g><g><path d="M44.843454817512644 20.686615948167237 L254.4277702670812 20.842442999564717 L254.85628978959733 159.65848441610524 L45.72670981738747 161.84084198151535" stroke="none" stroke-width="0" fill="none"/><path d="M43.531890409023944 20.66414174132283 C101.06711586507997 21.150744600636177, 157.66997729007312 21.06891307487682, 257.738438729752 20.427668304264643 M44.79201200859275 19.750658588904855 C107.65452667256038 19.88021143094058, 171.13115779987157 20.03129432822605, 256.18180554696124 18.556335379240846 M256.33656637749345 19.569275778558463 C257.42401498749985 62.37976216594885, 255.54761227218737 108.02020441148633, 256.6971739521134 159.084248539224 M256.3839035388675 19.145973483641285 C256.2229571123251 63.10869223119262, 255.3750693456414 107.57294202233203, 256.05165399908077 160.88065693400523 M254.95755489936664 161.6148613757617 C201.83387731051022 159.077799969417, 149.05239641194956 159.48157389411168, 42.80500580185411 159.83485970999098 M255.4087181803795 160.90485309192368 C208.03254186212882 159.19769580116974, 158.87128717024333 160.65861321758476, 44.51596938848712 161.5336104112417 M44.94154095450658 162.59546496697854 C45.00663249549005 106.76532378447848, 44.899225821227645 55.280535577670356, 44.24806009573957 18.845255203496567 M43.25519031637611 161.8887257666889 C45.494617493556376 104.55203745962388, 45.640546875631465 50.67611799304865, 43.22373200194491 18.720812241096244" stroke="rgb(0, 0, 0)" stroke-width="1" fill="none"/></g><text x="150" y="115" class="value">4</text><g><path d="M48.71851081737501 25.668224143562398 L108.93472563646318 23.91798718988598 L111.53703112024554 74.77485116019487 L49.464029219899686 76.92033044763348" stroke="none" stroke-width="0" fill="red"/><path d="M49.22903560032148 26.741842896740092 C72.8292071298287 24.193232191950656, 91.55756424789627 23.373418483808027, 111.18191614490696 25.80404865967986 M50.82403474881698 24.25488999702925 C61.978153857837995 24.31345459782353, 74.79492891177117 25.106844995555207, 109.1646903999651 25.60420300668638 M108.67354682422153 26.133752932797428 C109.18021601839921 40.21046043888482, 109.62137571619212 54.671007521319474, 108.78048405064438 73.61256162837495 M110.51449831219476 25.22037220650816 C109.38297535936344 38.93863260506421, 110.32619896662061 52.378129956316286, 109.36438220247463 75.76580807099926 M111.5051604030198 74.12101344283636 C92.37908368516973 74.99951285289968, 72.31301825736459 76.30665759158981, 48.94025128378506 73.16656439817187 M110.48266044835266 75.84762468623751 C95.97266917380935 74.39926200357033, 81.51266473588281 75.48374074058563, 49.341403401028906 74.84635336671388 M48.15526231070446 75.33548280192834 C48.472831129660946 63.39549633004443, 52.094069073154095 56.35409920250413, 50.58551907897086 23.697843714621353 M49.85420497052373 74.42085696753034 C49.53479711968527 64.24135917683606, 50.74691243066764 52.954294077947935, 49.67449090682919 24.237543376875543" stroke="#000" stroke-width="1" fill="none"/></g><g><path d="M191.85084612066422 24.038014588888988 L251.62643115977514 25.602230096141373 L249.38036875201453 76.37666423390502 L190.08436013230568 73.13080374362711" stroke="none" stroke-width="0" fill="yellow"/><path d="M190.68628575042317 24.94556780698777 C203.72581705293277 25.144343947274358, 215.62241834337146 26.666074824415542, 250.63841391448554 23.990742882100122 M189.77153858878322 25.6197295995377 C208.57368202833322 23.45596377249212, 225.6197389705659 24.82870156739422, 250.21247323415344 24.930214732671626 M249.25755511100462 24.77429093870027 C249.75962858258305 41.53031937694048, 249.0722277163391 62.01437357084103, 251.1698714225696 73.89481725988976 M249.410845206919 25.028711514127913 C249.92940758472207 35.58779825852813, 249.78664407435846 47.82636782499424, 249.06151873837325 75.99064720249827 M249.8343535046752 76.00547397586395 C232.0333703384835 74.71032443971819, 216.54730155536186 73.83442975681632, 189.62737235259237 73.58599112490529 M249.4408278079364 75.33361548710559 C238.1717889792029 74.99077501048562, 224.72919073346912 75.70163387698959, 189.44462784101208 74.91474956263131 M189.18365412680822 75.91578073702281 C191.1729285120034 59.192308439240534, 190.13801736991516 41.961265830146054, 189.0207001954389 25.249721293385846 M189.73064589173404 74.51356630427463 C189.29068857188057 54.69541362836097, 189.46279318177497 36.71829137546585, 190.45052099923055 25.836762827284275" stroke="#000" stroke-width="1" fill="none"/></g><text x="80" y="55" class="id">id54</text><text x="220" y="55" class="type">int</text></svg>