<svg width="287" height="217" xmlns="http://www.w3.org/2000/svg"><title>Python memory model diagram showing objects</title><style>
        :root {
        --fade-text-color: rgb(0, 0, 0);
        --hide-text-color: white;

        --highlight-value-text-color: rgb(27, 14, 139);
        --highlight-id-text-color: rgb(150, 100, 28);

        --highlight-box-fill: yellow;
        --highlight-box-line-color: rgb(0, 0, 0);

        --fade-box-fill: rgb(247, 247, 247);
        --fade-box-line-color: gray;

        --hide-box-fill: white;

        --primitive-value-color: rgb(27, 14, 139);
        --id-text-color: rgb(150, 100, 28);
        --default-font-size: 20px;

        --highlight-object-fill: rgba(255, 255, 0, 0.6);
    }

        text {
            font-family: Consolas, Courier;
            font-size: 20px;
        }
        text.default {
            fill: rgb(0, 0, 0);
            text-anchor: middle;
        }
        text.attribute {
            fill: rgb(27, 14, 139);
            text-anchor: start;
        }
        text.variable {
            fill: rgb(0, 0, 0);
            text-anchor: start;
        }
        text.id {
            cursor: auto;
            fill: rgb(150, 100, 28);
            text-anchor: middle;
        }
        text.type {
            fill: rgb(27, 14, 139);
            text-anchor: middle;
        }
        text.value {
            fill: rgb(27, 14, 139);
            text-anchor: middle;
        }
        path {
            stroke: rgb(0, 0, 0);
        }
        .highlighted path {
            fill: var(--highlight-object-fill) !important;
        }
    </style><g role="graphics-object"><title>Int id54 with value 4</title><g id="object-0"><path d="M51.12467140936347 24.354234363337433 L248.39641977858182 25.82158564661073 L249.55534496577985 156.41945650758925 L48.09912860215191 156.90520675002315" stroke="none" stroke-width="0" fill="black"/><path d="M49.63662824188272 26.502552213146817 C122.61147041307318 27.47954347695348, 196.3351874105562 25.520323149295503, 249.7778356553953 24.55962761460751 M50.259119697891876 25.227365939470726 C121.92467842859834 23.83856019863036, 193.68179712865833 23.932151937046832, 249.1859610781067 24.765409406965546 M251.79677036576467 23.50709768682209 C248.32723179767572 58.554454605569994, 248.87972310914998 94.59881320878891, 251.53715059850123 155.26536639830437 M250.98801488034505 24.016070436881165 C249.14228176114472 56.12722863828433, 250.5386567784985 84.87183290060597, 249.4038354816813 154.58694392380733 M250.60985843708892 156.0698837474181 C209.12198159345502 154.39630442126108, 165.30811301143214 157.05053784473898, 49.53513585337368 154.53426001461284 M250.60385357652606 155.46115705153755 C178.3488553851992 156.27314509850754, 107.15923062863241 155.48080691658205, 49.889277246203406 155.218495451674 M49.71017152035952 155.55871012216275 C49.80962254984897 128.54028294118513, 49.86966121135611 100.35570035807606, 48.36140385218733 23.93693575351719 M49.07525511677641 155.9950709867484 C50.72026168582561 115.09660998312242, 50.815634947102595 75.39660826395315, 50.985412040040764 25.725760978807457" stroke="#000" stroke-width="1" fill="none"/></g><g><path d="M44.46262028078309 19.131990950262818 L256.94771559779696 20.411240545130934 L255.43432008705923 160.54402250664972 L42.75721456375724 162.64423023836798" stroke="none" stroke-width="0" fill="none"/><path d="M42.47543091784267 18.67847548609177 C115.62214722904594 18.48222578492313, 185.64954172344287 21.251794587429355, 254.9750614808205 20.46874084523656 M44.65571518294833 18.904438645017017 C107.87063798116718 20.390350761735, 172.77644314872728 19.169609639415892, 256.67667938404907 19.205082122130296 M255.63809985942007 18.818486807072702 C254.53524312146433 51.56857644393672, 255.062632981676 82.15361293242171, 256.66830893669436 160.54658551827413 M255.3761102772746 19.945955131079195 C255.9145980150107 68.47102829750645, 255.92241254971643 116.84070610268682, 255.3908515904023 160.70795381454153 M257.0709561856226 160.32126139741035 C210.898139126516 159.07360856868078, 163.95391680091936 161.91924929224876, 45.636369617057085 159.31008159953728 M256.4321579506886 161.02598438748967 C172.42816870284972 159.46915713524425, 89.79149632849112 159.05978417474876, 43.41811705949842 161.19941692384646 M42.46390342102329 162.23059767352436 C44.11728446517523 126.1487480704714, 45.46755546714483 91.83058969059653, 43.44554010856739 20.670366015504648 M43.60362580640266 160.53276074700338 C42.784874317064656 113.04429242911164, 42.69168581423246 64.81267872827746, 44.13795968143364 18.00191346054086" stroke="rgb(0, 0, 0)" stroke-width="1" fill="none"/></g><g><path d="M51.453520822737836 26.971108362498086 L110.10241253241212 23.99990333492383 L109.61300319113556 75.70396278385711 L48.803827273246796 73.35057903840749" stroke="none" stroke-width="0" fill="red"/><path d="M50.41093070297869 26.306246825399487 C71.66415632689731 24.411981270310783, 93.56472095329987 26.036669804069707, 111.18571767806151 26.031133992216155 M50.08728647398175 24.698968257390938 C65.21566808706248 24.383533328833597, 77.7850030958609 24.642378628771773, 110.95228879427586 24.898940521203926 M110.92687522297014 25.961630447834665 C110.27039640316498 42.2924870124248, 108.8739625230587 56.5714860372641, 108.82992044166586 75.02447127208961 M109.5991109900132 24.03089344783175 C109.25591854864592 42.614199389782904, 109.39879935797477 60.26035346119996, 109.37480725204354 74.62038341369882 M109.99157838085674 76.85601358198954 C90.46753201366965 74.50846800164676, 69.73685104704028 74.88985261323906, 49.11581549019187 75.29191699581547 M110.69333577298359 74.40688985222971 C89.15772949654442 73.99207714062442, 69.14879883556411 75.59227981742758, 50.81465152300714 75.97027724532121 M48.643169204832176 76.95093021564622 C51.53761013471149 62.83193177065016, 51.46640366232371 51.27500895405942, 50.6279341022119 26.133453547063905 M49.967474626235806 75.29916407799897 C51.355347172220334 59.53239635553771, 50.049058683341606 43.22361817537712, 49.49736580418693 25.961713042241616" stroke="#000" stroke-width="1" fill="none"/><text x="80" y="55" class="id" aria-describedby="desc-0">id54<title id="desc-0">Object id</title></text></g><g><path d="M189.57360436121203 25.936561296383523 L248.55955361675774 25.83558043329178 L249.8157996582148 73.19374647208402 L189.5490699325715 75.73986089250296" stroke="none" stroke-width="0" fill="yellow"/><path d="M190.91349780962528 25.613497881579438 C206.17233379008178 25.267952352149635, 224.46463955058078 23.978703736492587, 248.23242819932386 24.043607467769363 M190.38139721002807 25.197565337862798 C203.3342444262355 25.755081843948354, 216.3055506644066 24.543430787249214, 250.8941530234263 25.23710809914209 M248.20340823978077 24.57559347050892 C248.69368318306033 36.42859670438132, 248.75308481079793 48.23597848818567, 248.8073176568819 73.48494963140143 M250.6865172719754 24.540455727609487 C249.54814577214879 36.227030003507764, 250.28897829570363 50.20795147721395, 249.16639126798913 75.94784787120827 M248.25435693163482 75.10950492475308 C232.8006020902599 73.88342918207033, 214.90677465560074 76.60225529398751, 188.86733989107492 73.80512082777695 M250.15888309636264 75.6454954512551 C235.652598502035 74.18071657553891, 223.62294533731009 74.5217847696394, 190.7990520706913 74.7946879483841 M190.7796044996242 75.49793381421165 C190.46514872573988 58.991517414365276, 191.18633549038537 40.64612746039104, 188.15193125761238 23.627968361069982 M189.49874678371498 75.27483841728113 C190.29049259211348 56.76444579069916, 189.6416301003188 38.86711458792451, 189.67291715225733 25.453622133284096" stroke="#000" stroke-width="1" fill="none"/><text x="220" y="55" class="type" aria-describedby="desc-1">int<title id="desc-1">Object type</title></text></g><text x="150" y="115" class="value" aria-describedby="desc-2">4<title id="desc-2">Value</title></text></g></svg>