<svg width="287" height="217" xmlns="http://www.w3.org/2000/svg"><style>
        :root {
        --fade-text-color: rgb(0, 0, 0);
        --hide-text-color: white;

        --highlight-value-text-color: rgb(27, 14, 139);
        --highlight-id-text-color: rgb(150, 100, 28);

        --highlight-box-fill: yellow;
        --highlight-box-line-color: rgb(0, 0, 0);

        --fade-box-fill: rgb(247, 247, 247);
        --fade-box-line-color: gray;

        --hide-box-fill: white;

        --primitive-value-color: rgb(27, 14, 139);
        --id-text-color: rgb(150, 100, 28);
        --default-font-size: 20px;

        --highlight-object-fill: rgba(255, 255, 0, 0.6);
    }

        text {
            font-family: Consolas, Courier;
            font-size: 20px;
        }
        text.default {
            fill: rgb(0, 0, 0);
            text-anchor: middle;
        }
        text.attribute {
            fill: rgb(27, 14, 139);
            text-anchor: start;
        }
        text.variable {
            fill: rgb(0, 0, 0);
            text-anchor: start;
        }
        text.id {
            cursor: auto;
            fill: rgb(150, 100, 28);
            text-anchor: middle;
        }
        text.type {
            fill: rgb(27, 14, 139);
            text-anchor: middle;
        }
        text.value {
            fill: rgb(27, 14, 139);
            text-anchor: middle;
        }
        path {
            stroke: rgb(0, 0, 0);
        }
        .highlighted path {
            fill: var(--highlight-object-fill) !important;
        }
    </style><g id="object-0"><path d="M50.5436400884648 25.37456070451638 L248.00558481628582 26.457815786706202 L248.86522193678684 153.86448281491755 L49.06190408017099 154.595833336058" stroke="none" stroke-width="0" fill="black"/><path d="M48.77420936184488 25.704875166165387 C111.44711330590121 24.29583101491745, 174.01582921862348 25.077665850873704, 251.2180213674276 25.182837429190826 M49.76422112127962 25.390777067954296 C114.03170626099325 26.11763909542625, 177.32080376581104 25.51726686215756, 250.74920566324036 25.38003468030587 M250.87395997154331 25.671250133092123 C251.5292355866133 76.89987380269075, 250.07147702136393 129.69248254670254, 248.96518454034626 154.53949095690268 M250.71144241151984 24.92751361014861 C250.05203672589164 75.98040138501668, 251.54471236972086 125.73148276295595, 249.30856386663692 155.52206197346226 M251.43153030907757 155.76504731333608 C196.97620182415764 154.98095573979097, 148.1783357860731 156.41311679816047, 50.5641885306939 156.74415391075178 M250.18606854402267 155.71191282387423 C183.31719311165048 155.05622099315465, 115.33690267281926 154.39845140442026, 50.6672869531762 155.63483205665273 M49.094293409027415 154.6572095586611 C49.01293743118579 124.2511813201159, 51.46273882866847 91.28242119746041, 50.524427972514026 26.010863827205608 M50.64122537917284 155.46237814838074 C50.26091267461333 108.26372086723687, 51.627850216083445 60.56479278534806, 50.58522142301468 25.111154976554317" stroke="#000" stroke-width="1" fill="none"/></g><g><path d="M44.29377608203242 18.732473136671576 L256.094565619022 17.418368790614814 L255.25281896609297 162.26832752631708 L45.94072508293172 160.20532149119742" stroke="none" stroke-width="0" fill="none"/><path d="M45.67338951461248 17.393744832472915 C124.26201485562002 18.936343655302668, 201.02806476700965 20.47783490840817, 257.68378012705455 18.979986766096378 M43.93268407523775 19.217656733211815 C91.66122293635442 20.418595108832495, 140.6578490713252 20.23134606665897, 256.45223457565186 18.33742103062765 M254.25069472556456 17.5908297993413 C257.0569527827181 75.19275747502675, 255.6653044236125 126.05792014651742, 254.468473757522 159.86604134574907 M256.7985402664853 18.443650645774312 C254.3578680887216 74.14499042110515, 255.8772231586756 130.9343981995463, 255.16032713623218 160.61843398888783 M257.3036228328585 161.729565167282 C209.59037697635407 158.89695393444373, 163.029754502494 159.63377079904288, 44.03219115866661 159.6674171107008 M256.25886223053084 161.40211239134837 C205.66376062992276 159.96464662717867, 157.27290515416638 159.43128502909286, 43.95792948546148 160.35516764716434 M44.63108003550261 162.78893690916468 C44.9184689893298 110.22777407986871, 44.60048894868049 64.56825230954884, 44.41613847214333 17.299410084151308 M43.795739134120886 160.25436010089757 C44.914083447348666 117.7909777845878, 44.41503904625882 73.832393799089, 44.93027488619388 18.974972334926264" stroke="rgb(0, 0, 0)" stroke-width="1" fill="none"/></g><text x="150" y="115" class="value">4</text><g><path d="M50.24819682318175 23.426943071054865 L109.83860439267683 24.932659188811144 L111.81612204411297 74.54537531253885 L50.46646644738869 74.27474245179397" stroke="none" stroke-width="0" fill="none"/><path d="M51.57534565719388 26.30924277208494 C66.57347814754921 25.11105331341976, 84.1243536881438 24.116151196150867, 109.77039564954717 23.74405929453215 M49.7797293679904 25.755905417835606 C71.69873454732797 24.75806021009206, 94.39380480712038 25.38112931666213, 109.10502754581633 24.5147634881283 M111.93256327272371 26.354796522205714 C109.68776823746516 41.821871974197194, 110.33880251050863 61.819993906238494, 110.89780037795443 76.03415712170053 M110.81606111358542 25.786582848975986 C109.98001626007729 39.6963250403716, 109.9328542339338 53.56076827362418, 110.8260860020221 75.76802363698997 M109.42577590554502 76.20506576322626 C90.46713891214776 74.1312925831237, 67.66991760298411 73.21831974050536, 48.57371338486028 76.77587978781392 M110.40251296571985 74.27715659848701 C94.40616636234837 75.40618045522066, 80.55576426575429 75.57213386502761, 50.76487546948836 75.28301359378213 M48.024707442470614 73.00832552760049 C49.99815782721636 62.696452172009984, 51.72782791661727 45.63451364229127, 48.98568101537136 24.31164467797242 M50.15864023746509 74.11230867080582 C50.49576430285352 65.04978806618918, 49.602747920721725 53.40950633201179, 50.862791506785 24.182520794740313" stroke="rgb(0, 0, 0)" stroke-width="1" fill="none"/></g><g><path d="M190.12564552143155 24.899069853976044 L251.86918402859013 23.733829797927573 L248.34029760316946 76.86822690932163 L190.34202502613806 74.15194090417879" stroke="none" stroke-width="0" fill="none"/><path d="M191.77159347729082 23.646650039676427 C205.88950292036483 23.850579361082872, 220.0837529362062 26.733344635977936, 250.46328172743154 24.64455701846981 M190.28672827661617 24.428818924181122 C210.01504973494994 24.37408688998282, 228.61676782008223 24.454545187614606, 250.2204827179438 24.22917764685975 M251.03207235899566 26.23410408771292 C250.03384374285255 40.51019033611628, 248.30294036190844 56.71688479097832, 251.09114696455825 76.81855190796904 M250.09692668679355 24.624257922950143 C249.59109050820547 43.50156407792112, 248.9941384777467 63.795225898662736, 250.7889120713693 75.2022220357483 M251.64996148829425 74.9568196757263 C229.77384195405762 74.42420519280165, 205.85556436444702 77.40588795012314, 188.76598387570422 74.28206234877032 M250.94534682509112 75.66493743799252 C228.5588631944705 74.66778688755325, 208.46345384662266 74.99578328993297, 190.32848998760775 75.25077157433334 M188.43637567247356 73.06806241349656 C191.41228995186918 61.35773775097101, 188.624714683634 52.48813868061738, 190.19107777929912 26.255919406193023 M189.5812465112611 74.06275097487323 C189.76324726895075 62.23232388127785, 191.09889660950455 51.83952281338159, 190.221285999463 25.671518552508868" stroke="rgb(0, 0, 0)" stroke-width="1" fill="none"/></g><text x="80" y="55" class="id">id54</text><text x="220" y="55" class="type">int</text></svg>