<svg data-theme="dark" width="287" height="217" xmlns="http://www.w3.org/2000/svg"><title>Python memory model diagram showing objects</title><style>
        :root {
        --fade-text-color: rgb(0, 0, 0);
        --hide-text-color: white;

        --highlight-value-text-color: rgb(27, 14, 139);
        --highlight-id-text-color: rgb(150, 100, 28);

        --highlight-box-fill: yellow;
        --highlight-box-line-color: rgb(0, 0, 0);

        --fade-box-fill: rgb(247, 247, 247);
        --fade-box-line-color: gray;

        --hide-box-fill: white;

        --primitive-value-color: rgb(27, 14, 139);
        --id-text-color: rgb(150, 100, 28);
        --default-font-size: 20px;

        --highlight-object-fill: rgba(255, 255, 0, 0.6);
    }

        text {
            font-family: Consolas, Courier;
            font-size: 20px;
        }
        text.default {
            fill: rgb(0, 0, 0);
            text-anchor: middle;
        }
        text.attribute {
            fill: rgb(27, 14, 139);
            text-anchor: start;
        }
        text.variable {
            fill: rgb(0, 0, 0);
            text-anchor: start;
        }
        text.id {
            cursor: auto;
            fill: rgb(150, 100, 28);
            text-anchor: middle;
        }
        text.type {
            fill: rgb(27, 14, 139);
            text-anchor: middle;
        }
        text.value {
            fill: rgb(27, 14, 139);
            text-anchor: middle;
        }
        path {
            stroke: rgb(0, 0, 0);
        }
        .highlighted path {
            fill: var(--highlight-object-fill) !important;
        }
    
        [data-theme="dark"] {
            --highlight-value-text-color: #110875;
            --highlight-id-text-color: #6e4409;

            --fade-text-color: #BBBBBB;
            --hide-text-color: #121212;

            --highlight-box-fill: #EDB926;
            --highlight-box-line-color: #FFFFFF;

            --fade-box-fill: #2C2C2C;
            --fade-box-line-color: #666666;

            --hide-box-fill: #121212;

            --highlight-object-fill: rgba(72, 207, 173, 0.3);
        }
        [data-theme="dark"] text.default,
        [data-theme="dark"] text.variable {
            fill: rgb(224, 224, 224);
        }
        [data-theme="dark"] text.attribute,
        [data-theme="dark"] text.type,
        [data-theme="dark"] text.value {
            fill: rgb(144, 164, 237);
        }
        [data-theme="dark"] text.id {
            fill: rgb(255, 183, 77);
        }
        [data-theme="dark"] path {
            stroke: rgb(204, 204, 204);
        }
</style><g role="graphics-object"><title>Int id54 with value 4</title><g id="object-0"><path d="M51.33918069976515 25.854081953587915 L251.85075787721522 23.750965328569883 L249.98092781143282 155.53706213196924 L51.726694677221325 156.37258749272806" stroke="none" stroke-width="0" fill="black"/><path d="M49.672104152673164 23.581770665393446 C122.9981248322974 22.89919910593187, 197.22096899934448 25.39667704281528, 249.4135151061048 23.933661994630132 M49.11817842867663 24.48271556413678 C121.60604412866645 26.133847837468135, 191.9353854003414 26.66206100596047, 250.6889653489338 24.70835876458367 M250.34555513795513 24.511056761017564 C249.85948919663522 74.95551767413208, 249.2797329709722 121.76708467329152, 250.83319991322927 156.90512060632602 M250.21944664311334 25.248591026740073 C248.58930074907727 70.93521509784118, 248.33116386063327 117.29098360712149, 250.4756863397733 155.10348977021758 M248.58923357448984 154.04138983531428 C197.45550116125287 155.5148799712765, 148.3740411304593 154.632342648824, 50.64267999090741 153.58565264561796 M250.59550472552166 154.16173333056 C186.8579439931239 156.12028128039697, 124.50162932718662 155.5661602889113, 50.001613244706945 154.5228213308732 M51.385487850292705 155.40038280807246 C50.162968402598715 115.0318097318138, 49.27763844021172 72.20346795323572, 48.925770907950884 26.952384394826872 M50.86371198959931 154.5219636082651 C48.69205372808876 123.44753577133865, 49.727443433714456 91.9766884657801, 49.75332498453529 25.611453255117084" stroke="#000" stroke-width="1" fill="none"/></g><g><path d="M45.43252943756053 19.077402394600302 L256.6298317743176 20.443094702210125 L255.31139285857643 162.33017175382506 L44.97307215731984 160.09363469220582" stroke="none" stroke-width="0" fill="none"/><path d="M45.58421632187272 17.597257226541675 C94.9991817478319 19.126975658643175, 143.01940611212513 17.285870180837122, 256.42646783620535 19.70290187880256 M44.47942664047373 18.16063584407777 C97.05757166425525 19.4195847016457, 150.2464151816861 19.2836285315724, 255.26104383774637 18.931292570732875 M257.78667377610725 20.48785889467823 C258.6751313518586 62.40604406734893, 258.75972744324935 104.38463888738254, 256.6722374645197 159.18064610052645 M256.80133702162976 18.07248777994999 C257.0648695951174 70.22146055488595, 257.0794410021877 122.3992729181002, 255.05838520845205 161.06006938603733 M257.148991424229 161.2469912798259 C184.17953679183682 160.05193421524135, 111.31000063369923 159.8838199774139, 43.34738596669763 161.02625858030245 M255.45768294444338 160.9145193164691 C208.30319989437646 162.4914362423264, 159.29466884240702 161.36231754981176, 43.31242114583001 161.2698249263985 M45.383447861281624 161.9277351025759 C46.41504714828 122.33247949196301, 43.41905845763781 87.7157225834281, 44.4140698726704 19.480612190251804 M44.45697859218963 160.60249482425334 C44.49520647328269 111.42105210169065, 45.819497304048994 59.410247581550486, 44.83807373206289 19.573874493919" stroke="rgb(0, 0, 0)" stroke-width="1" fill="none"/></g><g><path d="M48.16182495385947 25.397793063993543 L111.18840139941798 26.524464467389755 L108.88670066954879 75.46209395815076 L51.795777007494245 76.56529261789565" stroke="none" stroke-width="0" fill="red"/><path d="M50.408514761065106 26.275883587573553 C71.35577305782107 25.79973600336454, 92.06341524014151 23.076928678129853, 110.25542785770325 26.900411794059746 M49.49653362756767 24.95023814422181 C62.30622490999771 25.373648558026073, 76.83275891946565 25.305004093516306, 110.01329316568143 24.546415601800337 M108.58310992503093 26.03200058522505 C109.03340041009139 38.86226941229061, 108.90569811688357 50.20938999618166, 108.78962814530297 75.08153612619394 M110.6518631384249 24.549138886220067 C109.55594985933065 44.015572935775396, 109.86075675075281 60.09909036020636, 109.06442371440662 75.11028183204732 M109.16971163227296 74.30455730753894 C89.36117972453049 77.04891905782364, 67.76236252952886 75.99588035830389, 49.76792019269366 75.31275104613117 M109.26023583932094 75.33805006794267 C95.68796420033509 73.86469313382936, 83.06264168189793 75.60381904986808, 50.33315020373169 74.28787869643007 M51.38323629044163 76.41661883026946 C48.5701772381131 56.804732978865744, 51.9713918826281 34.85826088029014, 48.931872339074864 24.384633683479166 M50.95341029276532 75.9182102250627 C49.260133927483096 56.426984625394454, 49.33914409410832 35.177196181600024, 50.21022247238588 24.172961391893672" stroke="#000" stroke-width="1" fill="none"/><text x="80" y="55" class="id" aria-describedby="desc-0">id54<title id="desc-0">Object id: id54</title></text></g><g><path d="M189.67311107774873 23.31090183036299 L249.3517475993332 25.646785222009154 L248.4565667563582 73.90611150419451 L191.424486160155 74.17026360369769" stroke="none" stroke-width="0" fill="yellow"/><path d="M188.17052287268788 25.593791739685656 C205.17432731056178 27.280505801336705, 219.3487156518723 25.88219714335648, 248.95405947110382 26.760862978761956 M189.83175849438047 25.447339794940312 C205.5323709968161 24.896149421989566, 219.82235658695663 25.33799420138468, 250.31913591658693 25.332774123228173 M251.45464969238176 23.389490338938508 C248.7531066597041 37.3178418037173, 252.20114202096178 45.47449187730173, 248.37376047387116 75.64030711496405 M250.12628344569043 25.268159107688295 C249.60885132773905 40.720224178906015, 250.51091678431098 56.588619729558474, 249.23017291320718 75.23078188493528 M249.3130864133776 73.42372729297098 C231.0570726575018 74.21611858159393, 209.71763866527334 74.56019327103685, 188.10870020820948 76.76746784331044 M249.32605163953397 75.94435842903393 C232.07849401267018 75.302071901318, 215.31375351501308 74.6984595019863, 189.70286809197182 75.45800082980041 M189.53111264888017 75.22751014135075 C191.8007726471302 61.400066662021736, 190.33916082640025 46.0008096499515, 189.0239469208169 25.1844075328842 M190.19024778738876 75.26291301149928 C189.15004352063917 55.84816536345572, 189.49516709043021 37.900925212593506, 189.56934895150965 24.232550340254633" stroke="#000" stroke-width="1" fill="none"/><text x="220" y="55" class="type" aria-describedby="desc-1">int<title id="desc-1">Object type: int</title></text></g><text x="150" y="115" class="value" aria-describedby="desc-2">4<title id="desc-2">Value: 4</title></text></g></svg>