<svg width="287" height="292" xmlns="http://www.w3.org/2000/svg"><style>
        :root {
        --fade-text-color: rgb(0, 0, 0);
        --hide-text-color: white;

        --highlight-value-text-color: rgb(27, 14, 139);
        --highlight-id-text-color: rgb(150, 100, 28);

        --highlight-box-fill: yellow;
        --highlight-box-line-color: rgb(0, 0, 0);

        --fade-box-fill: rgb(247, 247, 247);
        --fade-box-line-color: gray;

        --hide-box-fill: white;

        --primitive-value-color: rgb(27, 14, 139);
        --id-text-color: rgb(150, 100, 28);
        --default-font-size: 20px;

        --highlight-object-fill: rgba(255, 255, 0, 0.6);
    }

        text {
            font-family: Consolas, Courier;
            font-size: 20px;
        }
        text.default {
            fill: rgb(0, 0, 0);
            text-anchor: middle;
        }
        text.attribute {
            fill: rgb(27, 14, 139);
            text-anchor: start;
        }
        text.variable {
            fill: rgb(0, 0, 0);
            text-anchor: start;
        }
        text.id {
            cursor: auto;
            fill: rgb(150, 100, 28);
            text-anchor: middle;
        }
        text.type {
            fill: rgb(27, 14, 139);
            text-anchor: middle;
        }
        text.value {
            fill: rgb(27, 14, 139);
            text-anchor: middle;
        }
        path {
            stroke: rgb(0, 0, 0);
        }
        .highlighted path {
            fill: var(--highlight-object-fill) !important;
        }
    </style><g id="object-0"><path d="M49.866892595657006 23.858966920397812 L249.2293196007338 25.501512930354068 L250.78143375499758 156.86726040692122 L50.172010329553075 154.1684661922854" stroke="none" stroke-width="0" fill="black"/><path d="M48.46138569107487 25.375080201495653 C94.24714318861943 23.751675932988302, 139.01041411924737 24.656504645022352, 249.84937243328787 23.632946547748684 M50.61259932107729 25.171454186324944 C110.01952706644421 23.998962903856267, 171.29538369918754 24.349324894305145, 250.55858956237216 24.27618569797087 M248.82175745501777 23.58958601824233 C249.57305550759182 61.41725149437488, 247.312986066945 99.19335477738771, 250.58068399879411 153.56288988208445 M250.14422018662646 25.280528782595336 C248.34004053242882 63.219460867347806, 249.3511904154704 101.52556100299654, 250.11898507649923 155.95819898468676 M250.42260626734728 156.57561294402407 C177.68130767438547 152.99083551634962, 103.07198288443401 153.09776773074034, 49.99170775840581 156.71430248564405 M250.3771974027509 155.86827333099623 C178.61996249627583 155.36442991125227, 107.13552568538624 155.13343042844204, 50.893955161982745 155.8108374511245 M48.55283306931783 153.25611913040717 C48.86746667606784 112.47642633092538, 50.57854770988746 68.39327822495414, 48.841392613146304 23.65458229771813 M50.416920057962265 154.18989033848624 C50.39233653605383 120.80045681808538, 49.658175641907356 86.06652871276863, 50.105228207285094 24.878324770136643" stroke="#000" stroke-width="1" fill="none"/></g><g><path d="M44.10434107089954 18.64027502266818 L257.28127586160446 20.870418215742454 L254.38502847601825 161.02043172413028 L42.98338682766954 161.48221594373126" stroke="none" stroke-width="0" fill="none"/><path d="M42.357604584840416 17.52788965995012 C118.0589960797077 16.692484324335876, 194.38968836057825 18.474889238622257, 255.59545277860724 18.24306824932583 M44.269664604118084 19.00845809889057 C87.3315768075611 18.745336763904355, 131.63671726446827 19.104082504153027, 255.50055406838234 18.517916598474283 M255.83060959101607 18.231086685120765 C253.27271398533355 50.91084642264838, 253.58861936812298 82.25508164757402, 255.69576387326072 162.88205623624927 M256.9312227155197 18.744568965318017 C257.9544357280219 70.70753795383384, 256.3454005531191 122.66308895616737, 256.20335558542297 161.23912825569414 M256.68441957065136 162.24608310749872 C182.72522225665034 161.4427076641788, 108.62931968509753 162.4679793201968, 45.73642695266857 161.72027294601202 M256.0965390861604 160.9036854209833 C183.6866641835582 160.44775153898752, 113.02259319254067 159.59018646938307, 43.13319891161445 161.65442113340742 M44.6437919741423 162.44227224428414 C43.094271802551226 122.97789262699979, 45.13416358387003 80.05906971701403, 43.35046715490148 17.82397098419799 M44.48178333581271 160.9945629079094 C43.37442355962347 130.49369087528697, 42.78550324515769 97.43878758114572, 43.924054940392296 19.789496110115753" stroke="rgb(0, 0, 0)" stroke-width="1" fill="none"/></g><text x="150" y="115" class="value">4</text><g><path d="M51.094800176374726 24.530580080851756 L109.92514031532569 25.025293162777068 L110.46755094691795 76.88418144898873 L49.90695387021372 74.86143110270528" stroke="none" stroke-width="0" fill="red"/><path d="M50.97643080487413 24.582610449012 C65.1312447792146 25.009905974624996, 81.41789891924306 24.89725945859195, 110.07721490321481 25.394121843199432 M49.66816254550339 25.001100062919484 C63.799687996899785 25.13963376870687, 76.86044755312051 26.14280224736558, 109.79151469002035 25.015665346397864 M108.60193028352383 24.911821579225943 C111.15124158505623 39.61888098753162, 108.60009322403106 54.91018837451773, 108.27880401849998 74.52983722732652 M110.29498132177851 25.52972034198811 C110.8828770656154 43.776621400725304, 109.3305129267482 63.90216244712648, 110.80692556687323 74.21672538781246 M108.82510117403679 75.67574287028924 C93.30102912635024 75.77700192816818, 76.59680737233833 75.64317280871789, 48.526120098292324 75.64516701965672 M110.09394006891523 74.82699024439361 C98.06445839560979 75.74838796617034, 85.18537007849083 75.43279506313723, 50.4122541056291 75.76868153292538 M49.18463475605722 76.02659883623342 C48.61434891273451 55.89427239312018, 49.401523206959155 36.04533834595619, 51.58140698433928 24.049240501968782 M49.6629028215357 75.46603763194837 C50.38914636855635 58.64592219084902, 49.85987831391055 42.0590337400305, 49.150079865331676 25.40629022416395" stroke="#000" stroke-width="1" fill="none"/></g><g><path d="M188.56002040369046 25.340490876317652 L248.30432493501263 26.315632020148954 L250.88605475422906 74.55323460685241 L191.71956882963545 74.2752641979092" stroke="none" stroke-width="0" fill="yellow"/><path d="M191.2288942943462 23.72695950257779 C210.1083859327402 25.99776214364936, 228.02831738746394 24.40278523057019, 249.3079579695676 25.257821840846695 M189.12886883560674 24.09812804998592 C203.2493723573267 24.635589789332574, 216.39873851811146 23.979849326682448, 250.89993208562828 25.238762684433436 M248.57066162585005 23.848485153434904 C248.81516579920296 43.91499859153039, 249.78855654965395 64.23784614852212, 250.44372802685103 76.61084180147323 M250.99848684995646 25.775412329780025 C249.87314277132413 43.3631278415417, 250.8546052763766 64.36554955609884, 250.23634541558252 74.97744800159859 M251.54798979060607 73.12808673964895 C230.56058054251838 76.54742779626868, 215.18399946112297 76.23702338736739, 190.24393935941782 73.80347157000189 M250.4283680530414 74.65430446444155 C231.0252202673878 74.12334421042696, 211.25316787606195 73.71187544418304, 189.0561665691296 74.00563956482105 M191.96415427433425 76.06142541170158 C191.22406226275461 58.75123335189074, 188.7178077194012 40.69487081798817, 190.3922334842033 23.10336161986948 M190.11792017638015 75.53013162785503 C189.23540648303089 60.50844781978842, 188.65925280446032 48.040673725800595, 189.76853289650165 25.322948034308464" stroke="#000" stroke-width="1" fill="none"/></g><text x="80" y="55" class="id">id54</text><text x="220" y="55" class="type">int</text></svg>