<svg width="287" height="292" xmlns="http://www.w3.org/2000/svg"><style>
        :root {
        --fade-text-color: rgb(0, 0, 0);
        --hide-text-color: white;

        --highlight-value-text-color: rgb(27, 14, 139);
        --highlight-id-text-color: rgb(150, 100, 28);

        --highlight-box-fill: yellow;
        --highlight-box-line-color: rgb(0, 0, 0);

        --fade-box-fill: rgb(247, 247, 247);
        --fade-box-line-color: gray;

        --hide-box-fill: white;

        --primitive-value-color: rgb(27, 14, 139);
        --id-text-color: rgb(150, 100, 28);
        --default-font-size: 20px;

        --highlight-object-fill: rgba(255, 255, 0, 0.6);
    }

        text {
            font-family: Consolas, Courier;
            font-size: 20px;
        }
        text.default {
            fill: rgb(0, 0, 0);
            text-anchor: middle;
        }
        text.attribute {
            fill: rgb(27, 14, 139);
            text-anchor: start;
        }
        text.variable {
            fill: rgb(0, 0, 0);
            text-anchor: start;
        }
        text.id {
            cursor: auto;
            fill: rgb(150, 100, 28);
            text-anchor: middle;
        }
        text.type {
            fill: rgb(27, 14, 139);
            text-anchor: middle;
        }
        text.value {
            fill: rgb(27, 14, 139);
            text-anchor: middle;
        }
        path {
            stroke: rgb(0, 0, 0);
        }
        .highlighted path {
            fill: var(--highlight-object-fill) !important;
        }
    </style><g id="object-0"><path d="M49.14787748014099 23.117092869347513 L251.79660307792835 26.301192355831486 L250.38493095547582 153.52315827202438 L51.74495951543895 153.90491722381765" stroke="none" stroke-width="0" fill="black"/><path d="M48.43325172585361 26.474912190722602 C125.22626840090537 26.08574033031972, 200.101336325616 26.713759909296936, 251.38525633918093 24.199769561444214 M49.37096030447226 25.291214366148203 C125.05095571334759 26.139830609030113, 198.28877407851297 27.136663358545047, 250.20435058319282 25.088313542676453 M248.2789474056046 26.244977654922376 C250.28385304576906 74.2094048013092, 249.53684173816356 124.79852541586344, 250.08059088523478 156.3150380912116 M250.20884941731848 25.266397729477585 C250.25572202092917 67.16399065599921, 250.0492161611569 107.56850515067306, 249.58235419121837 155.53902458386045 M251.55488109282217 155.90808840049635 C169.60259699645306 154.88492175753282, 92.84030498279111 153.08070685742587, 48.519462006326016 156.7892138023395 M250.77789712252655 155.84333217747601 C195.11500763941783 153.6392145279688, 141.01534195788022 153.51903032867244, 49.69489762928706 155.84688175309054 M50.828207419620156 155.30035451513461 C48.974985684673754 121.20784657873247, 50.89786150995434 89.72638900123266, 51.50549439591005 26.362917845459044 M49.54689471840373 154.59711101741226 C48.64174079910489 119.36454850555008, 49.394001979878944 82.71244491566824, 49.01027956870345 25.54317492493611" stroke="#000" stroke-width="1" fill="none"/></g><g><path d="M43.72843185595028 17.64451079756749 L254.0287557960695 18.13531988906857 L256.90153786689075 160.4534490930303 L42.58328712338259 161.510406898301" stroke="none" stroke-width="0" fill="none"/><path d="M43.81808280091899 19.47909242255705 C86.65531789304663 18.031500011597746, 130.47173593205298 16.18799058840014, 255.26037737535347 20.24639056162104 M44.83683292143317 19.13578385174154 C125.62474048676876 18.165896169557346, 206.95387337646957 17.631792854089955, 256.59733100755426 19.559921364021683 M254.17975660943478 18.685559710061753 C257.30697611113163 71.96435436530643, 254.56422352364416 124.26191332274031, 257.02970499370275 159.7722963153346 M256.12357550042685 18.28649986177758 C256.98963185619755 59.35975542688155, 255.53281242532907 100.82532680758332, 256.8239598187907 160.8920158510418 M255.86484567603645 160.68652745224094 C187.63761907980683 161.90485288418762, 118.11786625705315 160.5413097036603, 44.97584673210415 159.50105552707853 M256.55877460660895 160.1745704166566 C175.4331897204369 162.61799208932456, 96.01305094509357 162.48075366409887, 43.76623163430728 161.71156097063795 M43.24354590006973 159.67488406437758 C42.656551425215405 129.9786625302851, 42.705135768685295 101.93963832869245, 45.56964858029305 19.056254901700697 M44.04717539435264 161.12496836722076 C45.61401928635455 106.8906838852364, 44.79552226841333 54.66869304949461, 43.752128824367084 18.71917816681678" stroke="rgb(0, 0, 0)" stroke-width="1" fill="none"/></g><text x="150" y="115" class="value">4</text><g><path d="M51.44000466800469 25.588121037086225 L108.18343279178723 25.728459835997327 L109.14215704096573 74.96244983769961 L48.906664398550184 74.24715997336418" stroke="none" stroke-width="0" fill="none"/><path d="M50.038745579603294 26.75862585831259 C73.1615534119047 25.771833351467293, 95.13685259438185 22.810674871207436, 108.07263287493612 26.457495604802254 M49.23768817142267 25.259464289367106 C64.38323649398366 23.86060912401689, 80.16440122733756 24.570856646838845, 109.56615297131906 24.046899572740866 M108.89518089510204 26.516243991343245 C111.51265075017145 40.541580234752516, 108.50982299863229 61.2921794425252, 108.17466542426334 76.11878594086339 M110.15560074644674 24.671469511812678 C111.0882028430984 42.43812668011559, 110.59190446125831 59.75073682285165, 110.4431816770085 74.93023716239172 M111.084517283532 73.4195319345104 C89.16911829316281 74.35970480678789, 71.51942935543795 75.82200636718868, 48.011772584101905 75.65204966049393 M110.77202452268278 75.66509233657403 C97.63890985135873 74.73373212870578, 86.30920524833789 73.74028966721151, 49.08561211348846 74.11803150560227 M51.43147772563702 76.41384055889334 C51.021572225375 55.23958882943447, 48.77651087737952 35.998352632402636, 49.590568029153 25.600868859567296 M49.90406544184163 74.37046963065075 C49.52927220634128 64.85191460417032, 49.763966787522776 53.80343101400307, 49.46329003152954 24.593794886187393" stroke="rgb(0, 0, 0)" stroke-width="1" fill="none"/></g><g><path d="M189.41794910872719 26.155939192633085 L249.44888630509018 23.295833363537902 L249.96305618428562 75.30512999891155 L188.77942317683434 73.03049404097607" stroke="none" stroke-width="0" fill="none"/><path d="M189.35320379262487 23.46915507127824 C202.32649294751877 25.500499522460725, 215.26371806471204 25.10735043427536, 251.60944032551288 24.372736811776193 M190.72482148676556 24.22499087294753 C207.44840921967165 23.908229079492912, 223.7223315318706 23.90509717123416, 249.48778540766978 24.95341048394721 M249.31006649943782 23.859043299909874 C249.24454459011113 43.151922929493814, 251.3122595643148 62.3193055951595, 249.59588922317846 73.92281207255648 M249.93873789459025 25.533418011463947 C249.31153834231458 39.814524722189006, 250.9526644010265 52.94676817849492, 249.86254876797096 75.36195874098844 M250.4944119675581 74.44151663781199 C231.28673449864388 76.0402832524607, 214.72704920678387 74.8675297373126, 190.11587420832905 75.22952246729878 M250.7395829543963 75.40169666385837 C230.37237411145782 75.79977615291936, 211.53335752711678 75.7825875248331, 190.0666290329055 75.08999082483665 M189.3322321006028 75.57540278139865 C189.46505896868487 58.040820590291325, 191.38553526148397 38.96624010285938, 191.19303414063447 23.1626278133611 M189.89162166634895 74.67034779659886 C190.58907010831237 55.89638499411772, 190.381895080194 34.86349274494458, 189.42401424033028 25.279967680618793" stroke="rgb(0, 0, 0)" stroke-width="1" fill="none"/></g><text x="80" y="55" class="id">id54</text><text x="220" y="55" class="type">int</text></svg>