<svg data-theme="dark" width="287" height="217" xmlns="http://www.w3.org/2000/svg"><title>Python memory model diagram showing objects</title><style>
        :root {
        --fade-text-color: rgb(0, 0, 0);
        --hide-text-color: white;

        --highlight-value-text-color: rgb(27, 14, 139);
        --highlight-id-text-color: rgb(150, 100, 28);

        --highlight-box-fill: yellow;
        --highlight-box-line-color: rgb(0, 0, 0);

        --fade-box-fill: rgb(247, 247, 247);
        --fade-box-line-color: gray;

        --hide-box-fill: white;

        --primitive-value-color: rgb(27, 14, 139);
        --id-text-color: rgb(150, 100, 28);
        --default-font-size: 20px;

        --highlight-object-fill: rgba(255, 255, 0, 0.6);
    }

        text {
            font-family: Consolas, Courier;
            font-size: 20px;
        }
        text.default {
            fill: rgb(0, 0, 0);
            text-anchor: middle;
        }
        text.attribute {
            fill: rgb(27, 14, 139);
            text-anchor: start;
        }
        text.variable {
            fill: rgb(0, 0, 0);
            text-anchor: start;
        }
        text.id {
            cursor: auto;
            fill: rgb(150, 100, 28);
            text-anchor: middle;
        }
        text.type {
            fill: rgb(27, 14, 139);
            text-anchor: middle;
        }
        text.value {
            fill: rgb(27, 14, 139);
            text-anchor: middle;
        }
        path {
            stroke: rgb(0, 0, 0);
        }
        .highlighted path {
            fill: var(--highlight-object-fill) !important;
        }
    
        [data-theme="dark"] {
            --highlight-value-text-color: #110875;
            --highlight-id-text-color: #6e4409;

            --fade-text-color: #BBBBBB;
            --hide-text-color: #121212;

            --highlight-box-fill: #EDB926;
            --highlight-box-line-color: #FFFFFF;

            --fade-box-fill: #2C2C2C;
            --fade-box-line-color: #666666;

            --hide-box-fill: #121212;

            --highlight-object-fill: rgba(72, 207, 173, 0.3);
        }
        [data-theme="dark"] text.default,
        [data-theme="dark"] text.variable {
            fill: rgb(224, 224, 224);
        }
        [data-theme="dark"] text.attribute,
        [data-theme="dark"] text.type,
        [data-theme="dark"] text.value {
            fill: rgb(144, 164, 237);
        }
        [data-theme="dark"] text.id {
            fill: rgb(255, 183, 77);
        }
        [data-theme="dark"] path {
            stroke: rgb(204, 204, 204);
        }
</style><g role="graphics-object"><title>Int id54 with value 4</title><g id="object-0"><path d="M50.298422647357775 26.482138363167582 L251.07749058533034 25.199343962454854 L250.91992566518996 156.3892426170296 L51.13863833776907 154.69935249714814" stroke="none" stroke-width="0" fill="black"/><path d="M48.709621591620305 24.8645376819057 C102.00594104145152 25.455220730971178, 152.88293324660097 23.136098742940376, 250.37420009798112 24.367416414590682 M49.515866868088935 25.851158543711936 C115.76768974241268 25.901797411973444, 182.24880422310986 25.98340252998353, 250.14439814162287 24.452380143841165 M250.84462642684025 23.909779165383895 C249.45443565175808 66.39471251554474, 249.87599050814413 107.7967274170629, 250.8574999232897 155.37349890962253 M250.5387265479787 25.587892301202174 C248.73553555120847 74.85059148730072, 249.7691921908695 127.24738302706453, 250.4995073207845 155.1074807253455 M251.12059559959104 155.81809151645356 C189.4619811108829 152.2564186351696, 131.436586541265 153.1983599719859, 50.8402662934712 155.80508294932267 M249.174720898268 155.07670981249152 C206.77090121920153 154.1958274975502, 163.737062703251 155.34632332727446, 49.999532336739726 154.41657683697778 M49.48162609467662 153.41526053484543 C49.92348578849193 111.57512866518778, 51.14731062228115 68.81199558525984, 50.211713863054555 25.86929712934721 M50.770952084671364 154.77675713814696 C48.887706146440664 115.37259706394568, 50.585966349884316 74.63915061648079, 49.17762359537885 24.277227061988732" stroke="#000" stroke-width="1" fill="none"/></g><g><path d="M42.80355956997421 20.652353088705933 L254.9581336528045 18.491688512073374 L256.2436947482446 160.04403475344947 L42.68150277217585 159.5558911764476" stroke="none" stroke-width="0" fill="none"/><path d="M45.27286765458276 20.669158209408096 C99.90457478988806 21.21663266174027, 153.46244849224817 20.60009146127902, 254.38873498933455 20.11665454059219 M43.48048742606688 18.840773772035764 C106.09496312674725 19.712792139014283, 167.07342928968322 20.202254327738636, 255.42229052122389 19.647626287137832 M254.6440319074699 18.744626553754017 C256.1462974139087 65.59288276036666, 258.1656274393389 111.30709839602736, 257.8679387709956 159.12620522036153 M256.9514281214107 18.489114342170506 C257.0467154635331 60.59392337117395, 256.2171938325843 100.88575336310925, 255.38463990188083 161.03033616351587 M255.7923211739808 159.63556363195437 C211.14248600271367 160.89083293157847, 170.55330815606195 159.73553882535464, 43.95362086679726 161.676371252707 M256.24424741117394 161.7274767850485 C192.78509154986975 159.62353635587021, 131.0269765390934 159.15420113059838, 43.789976354506685 160.48864263364752 M45.277266675855536 160.1979707368406 C42.77168660071418 104.64017473867965, 44.14527978307244 49.49292241308056, 42.901835099973454 19.3539364152931 M44.562385626707034 160.1125831453468 C42.54779094285745 119.10227325417846, 44.33918264972688 76.13651260005581, 44.90039315283338 18.617199466479004" stroke="rgb(0, 0, 0)" stroke-width="1" fill="none"/></g><g><path d="M49.91356132716127 24.009999774803035 L108.76940538718152 25.072693804694527 L111.61214510112619 73.60795749236848 L50.30527893136936 75.18225633873394" stroke="none" stroke-width="0" fill="red"/><path d="M51.422871788266654 26.768230546855015 C72.94381342500351 25.57399261974671, 94.20290624952824 24.050952720091143, 109.25707269652435 25.153246865521982 M50.93457352797472 24.892182750326022 C71.9742126541159 25.17639038518076, 94.59089399994622 25.729293754995215, 109.25494473354993 24.464066672571164 M110.22568626490786 26.813813977178476 C109.54631268613679 45.02830525485918, 107.92466940082558 63.195704056642526, 110.81408619002423 76.87551049180426 M110.58744824457946 25.755298795717756 C110.33572893987841 41.24307863072738, 110.44009370393005 58.3354190543729, 109.40102349623885 75.65925240954873 M110.2877138690925 76.24557181589381 C96.36581299368964 76.54216229156792, 82.12641090614501 74.576090486118, 51.137755875661426 73.60446051315039 M109.59294451420556 74.0803391844766 C93.77781790237998 75.20941195151502, 76.06924139451897 75.64577497151706, 49.09044098167321 75.64141917976457 M48.467095531739254 75.07598452711498 C51.67434550879376 61.42025428743028, 48.05456349480777 46.51555789690549, 48.929490734155735 26.873599879272952 M49.54427262514622 74.34006366750167 C50.52606004934231 57.168551129892315, 49.91925322926529 36.8256263342192, 50.456721984059 24.428828612914746" stroke="#000" stroke-width="1" fill="none"/><text x="80" y="55" class="id" aria-describedby="desc-0">id54<title id="desc-0">Object id</title></text></g><g><path d="M190.10158706178612 25.16840495329768 L249.95102426522362 26.708529523124703 L250.4419622678273 75.41025587043286 L188.5427981106735 76.27432795138427" stroke="none" stroke-width="0" fill="yellow"/><path d="M190.6727821743455 25.962387986572544 C203.56077272818538 26.399773171877094, 216.65921890173846 24.23419583081021, 248.92332465407608 23.433112297111336 M189.61642457244574 25.3155934607881 C214.3692312454924 24.921068624298165, 237.67091134372436 25.371945368905404, 249.99760862928323 24.277911952063732 M249.28573220740319 26.578671921491843 C250.81242669434062 36.65673578746705, 249.49028879133564 51.27330352743306, 251.80117319713494 76.71541199123244 M250.6740855177273 25.763031487203286 C250.69519482834923 41.10786210115214, 250.03090377838498 58.4681394945586, 249.07277042007257 75.61203694913017 M250.3450407361113 73.8145378589225 C236.15980867170848 73.03311942879319, 225.29332763072358 75.88879948031462, 191.75666218757777 73.13340288915552 M250.805108121901 75.05373363392783 C238.66244456777883 74.71661908089268, 226.74233023291183 75.1804121247387, 189.40258656627853 74.11864126954991 M190.06924557778208 76.48573458456613 C188.7314539373036 58.24040727558287, 190.36559076914332 37.93292559700507, 189.7342554303067 25.757598847322313 M190.48582977609627 74.31549486574445 C190.60396579464194 65.25967598715083, 190.05235810854956 55.55743989084009, 190.50468720533908 25.536006891906197" stroke="#000" stroke-width="1" fill="none"/><text x="220" y="55" class="type" aria-describedby="desc-1">int<title id="desc-1">Object type</title></text></g><text x="150" y="115" class="value" aria-describedby="desc-2">4<title id="desc-2">Value</title></text></g></svg>