<svg width="287" height="292" data-theme="dark" xmlns="http://www.w3.org/2000/svg"><style>
        :root {
        --fade-text-color: rgb(0, 0, 0);
        --hide-text-color: white;

        --highlight-value-text-color: rgb(27, 14, 139);
        --highlight-id-text-color: rgb(150, 100, 28);

        --highlight-box-fill: yellow;
        --highlight-box-line-color: rgb(0, 0, 0);

        --fade-box-fill: rgb(247, 247, 247);
        --fade-box-line-color: gray;

        --hide-box-fill: white;

        --primitive-value-color: rgb(27, 14, 139);
        --id-text-color: rgb(150, 100, 28);
        --default-font-size: 20px;

        --highlight-object-fill: rgba(255, 255, 0, 0.6);
    }

        text {
            font-family: Consolas, Courier;
            font-size: 20px;
        }
        text.default {
            fill: rgb(0, 0, 0);
            text-anchor: middle;
        }
        text.attribute {
            fill: rgb(27, 14, 139);
            text-anchor: start;
        }
        text.variable {
            fill: rgb(0, 0, 0);
            text-anchor: start;
        }
        text.id {
            cursor: auto;
            fill: rgb(150, 100, 28);
            text-anchor: middle;
        }
        text.type {
            fill: rgb(27, 14, 139);
            text-anchor: middle;
        }
        text.value {
            fill: rgb(27, 14, 139);
            text-anchor: middle;
        }
        path {
            stroke: rgb(0, 0, 0);
        }
        .highlighted path {
            fill: var(--highlight-object-fill) !important;
        }
    
        [data-theme="dark"] {
            --highlight-value-text-color: #110875;
            --highlight-id-text-color: #6e4409;

            --fade-text-color: #BBBBBB;
            --hide-text-color: #121212;

            --highlight-box-fill: #EDB926;
            --highlight-box-line-color: #FFFFFF;

            --fade-box-fill: #2C2C2C;
            --fade-box-line-color: #666666;

            --hide-box-fill: #121212;

            --highlight-object-fill: rgba(72, 207, 173, 0.3);
        }
        [data-theme="dark"] text.default,
        [data-theme="dark"] text.variable {
            fill: rgb(224, 224, 224);
        }
        [data-theme="dark"] text.attribute,
        [data-theme="dark"] text.type,
        [data-theme="dark"] text.value {
            fill: rgb(144, 164, 237);
        }
        [data-theme="dark"] text.id {
            fill: rgb(255, 183, 77);
        }
        [data-theme="dark"] path {
            stroke: rgb(204, 204, 204);
        }
</style><g id="object-0"><path d="M48.112736479346445 24.684564793635985 L251.48902878855696 26.27252597724592 L249.70236319826415 155.9728846619943 L48.32756460881871 153.88332441866334" stroke="none" stroke-width="0" fill="black"/><path d="M50.692854212177004 25.745482230302766 C104.90820671522904 24.141249205182973, 164.03177728719965 25.152282843007576, 249.3090833741043 24.614319194754273 M50.004117401215154 24.45264397541375 C101.51273580607383 23.53234269971594, 153.09216216307038 24.34509951515424, 249.8626255587851 25.215965235190925 M248.12780545224058 23.40431228127505 C250.4253466614757 54.1087526018187, 249.36538585383147 82.6377498698607, 250.66680511697515 153.30222806254955 M250.61729394667418 24.66387872328192 C249.7128531991354 67.69485433290122, 248.6027337324239 111.22213857636828, 249.07444039897004 155.0064452363916 M249.9099758680344 155.4478930755563 C182.50991517401718 153.6721638734368, 120.19631838989783 155.66775618953315, 50.400901649030665 156.20362847924494 M250.59857972629405 154.62088749448074 C202.33298971298078 153.26064561737041, 155.70809028919885 154.1503518886072, 50.149219477135645 155.19398965033818 M49.401409934477904 153.73246118140887 C47.34859140670322 115.28251090937339, 48.54452688725208 75.76616268738034, 50.56529053404403 23.857406375648644 M49.36932481922234 154.98531175830823 C48.7114434353087 126.47159089755719, 48.51083088612109 99.88816755078237, 50.114312270101536 24.015072146708185" stroke="#000" stroke-width="1" fill="none"/></g><g><path d="M45.271228332242615 20.314430082988068 L256.7749808819288 17.18860598203156 L254.80187728787848 159.4756212852908 L44.81024437952502 160.61485805166092" stroke="none" stroke-width="0" fill="none"/><path d="M44.192950667768805 19.070259957409117 C109.17662789204972 19.798947066264386, 172.0650726136925 17.80203858812594, 256.1269228545409 17.963145363464157 M43.37190688850716 19.006342300069857 C122.14345605179983 18.953902198530677, 200.6952065447982 19.041097436269457, 256.8581803518207 18.55876398873475 M257.998685566415 19.817056494626033 C254.49279185453577 62.29788021370099, 254.5402743198302 106.2751931046329, 254.8209244199182 159.43623728798812 M255.40655202999588 19.54157795209742 C256.96738859708535 55.291716249849905, 256.1345048028032 90.92786974508161, 256.9561399024022 160.7040120044543 M256.19951534538234 160.71621474491727 C186.08653058254922 161.80212894029782, 113.03517048006944 162.5112478752437, 45.232206332289756 162.3910259658899 M256.1896633036697 161.59961290621968 C171.9781769031557 159.28081225399566, 88.60965271684498 159.9460220705486, 44.07431241698395 161.13358802608548 M43.248781281337685 162.75894472187449 C43.24039754676456 120.74129871059763, 45.216034584729584 80.77541944218365, 45.88948419890221 20.890930896392256 M44.58222502786688 160.35481008789165 C43.21017031425858 132.96811330522291, 43.87298912141818 103.66889453574602, 43.901407416021094 19.313890850601" stroke="rgb(0, 0, 0)" stroke-width="1" fill="none"/></g><text x="150" y="115" class="value">4</text><g><path d="M50.059185272634345 26.13893314171888 L109.17884731362527 25.785063359247953 L110.12661001335329 76.52560370327757 L49.11311587415105 73.79716328830447" stroke="none" stroke-width="0" fill="red"/><path d="M51.222338994643295 24.9747690833349 C66.93016750752805 25.589566561363412, 84.39359677388879 26.495854544422556, 108.86648726746213 25.710520415995536 M50.16379599931718 24.417918940725492 C68.83328653690158 25.199786372994488, 87.22217258684834 25.619574106819478, 110.20294294407984 24.758812686892952 M111.93814983287214 25.249016608604126 C111.06408781449323 38.87287386924035, 110.27448694772195 56.680051769196226, 111.3516546344985 73.14208949489972 M109.11253596269658 25.103747840121674 C110.61415626427355 44.94310772175814, 110.51280386265725 65.37775444877752, 110.5149397435885 74.75585781308187 M108.4208529226062 74.32304163652671 C89.10458606842296 74.27208167204458, 70.25006203171588 75.36877425419229, 49.35569873699741 76.05241591954464 M110.60089923032476 74.58952556738917 C94.90434288038357 75.30176399992165, 79.35315702536865 75.15862654362927, 49.27781966032149 75.91616007083913 M49.03852293738367 74.89165115269175 C48.22498346306902 64.09998745952338, 48.11723814612525 52.62853796994008, 49.871759713467696 23.409032162859614 M50.91650616700063 75.69260977388656 C50.48868029659318 55.43317259603625, 51.14493066053222 35.938833545377676, 50.25927507228357 25.26310876294646" stroke="#000" stroke-width="1" fill="none"/></g><g><path d="M188.84261447509752 23.70258925176922 L251.5047097082095 24.091606872902627 L251.65644231359144 75.43429813548642 L188.75172770364483 73.23845512528555" stroke="none" stroke-width="0" fill="yellow"/><path d="M188.79181182949068 23.57303664025191 C210.1900300876203 26.341315182256324, 228.53791744759656 26.02757753947871, 249.41026531603654 24.978895073091472 M190.52048313723802 25.07678896831722 C213.48711256675026 25.339980601505765, 237.9925343653209 26.24978774404491, 249.28298332661626 24.662460486941008 M249.42181992830837 24.406480809067176 C250.5681240336067 33.82497192597611, 249.1198342499004 46.57934950711359, 250.0041728166447 76.75613670046552 M249.75783666407796 25.257248540313135 C249.5996031168161 41.80166656998964, 250.11074375307365 60.355018271227394, 249.95817079972247 75.42633002955806 M251.36783872398127 74.73177456895367 C230.6783443369649 73.88215927571459, 206.09865206086803 74.01421183136925, 191.64373478324902 74.90707672604735 M249.38195523640468 75.16626254643332 C237.62526119326438 74.82713305081553, 224.48187399068757 75.4337241303962, 190.66090999789213 75.89342638299051 M190.63354204307413 75.56978131137154 C189.37949078024985 64.61559022989655, 188.50091468484874 50.223645695893836, 191.83413438442665 26.15616192654283 M190.64138638441813 74.17962635491543 C190.55814161535173 60.76144047686266, 189.97315492551914 46.38962011618841, 190.94608428542608 24.853566132698035" stroke="#000" stroke-width="1" fill="none"/></g><text x="80" y="55" class="id">id54</text><text x="220" y="55" class="type">int</text></svg>