<svg width="287" height="217" xmlns="http://www.w3.org/2000/svg"><title>Python memory model diagram showing objects</title><style>
        :root {
        --fade-text-color: rgb(0, 0, 0);
        --hide-text-color: white;

        --highlight-value-text-color: rgb(27, 14, 139);
        --highlight-id-text-color: rgb(150, 100, 28);

        --highlight-box-fill: yellow;
        --highlight-box-line-color: rgb(0, 0, 0);

        --fade-box-fill: rgb(247, 247, 247);
        --fade-box-line-color: gray;

        --hide-box-fill: white;

        --primitive-value-color: rgb(27, 14, 139);
        --id-text-color: rgb(150, 100, 28);
        --default-font-size: 20px;

        --highlight-object-fill: rgba(255, 255, 0, 0.6);
    }

        text {
            font-family: Consolas, Courier;
            font-size: 20px;
        }
        text.default {
            fill: rgb(0, 0, 0);
            text-anchor: middle;
        }
        text.attribute {
            fill: rgb(27, 14, 139);
            text-anchor: start;
        }
        text.variable {
            fill: rgb(0, 0, 0);
            text-anchor: start;
        }
        text.id {
            cursor: auto;
            fill: rgb(150, 100, 28);
            text-anchor: middle;
        }
        text.type {
            fill: rgb(27, 14, 139);
            text-anchor: middle;
        }
        text.value {
            fill: rgb(27, 14, 139);
            text-anchor: middle;
        }
        path {
            stroke: rgb(0, 0, 0);
        }
        .highlighted path {
            fill: var(--highlight-object-fill) !important;
        }
    </style><g role="graphics-object"><title>Int id54 with value 4</title><g id="object-0"><path d="M49.64349267746431 24.686800374606207 L250.02815223315918 24.034426525335473 L250.25880399981847 155.4453183675961 L50.9129661144555 154.80624500935318" stroke="none" stroke-width="0" fill="black"/><path d="M48.71276584538375 24.877704371171124 C103.01390620668562 25.674464862146735, 153.23600532943135 26.729997438286823, 251.1782793868332 23.563906235237628 M50.88779104619431 25.821186913836335 C117.15773301949908 22.550692533330082, 185.86684318753936 22.424511138372566, 249.8553336975377 25.11274606253211 M251.04855454832767 23.54068990324229 C249.43751761979783 60.15646201633412, 249.1626144918039 98.47807562906961, 249.83186230281578 154.55263165021208 M250.31398434686736 24.320964230386622 C249.68169199434442 64.56093176625131, 249.14425024054154 103.78234527767789, 249.55072646310572 154.9964507557756 M248.551076677044 153.56297035431498 C198.0706233719626 153.73499594265633, 146.10315788736136 155.37457769758038, 50.853807415905045 155.36151602511455 M249.8282486628088 155.25727250214365 C200.34642625384177 156.23571562540974, 149.46453463670105 155.31168747990986, 49.31745835743684 155.5415292879986 M48.58346321884147 155.59810763590022 C51.3135703360059 111.69679803071655, 52.12793713594486 70.46627258636312, 49.543674702849835 26.80472342534099 M50.35607739811085 155.13888874279817 C48.329843559784614 110.31458852500117, 49.79834324309845 65.44077673592537, 49.6880808017441 25.54395034650278" stroke="#000" stroke-width="1" fill="none"/></g><g><path d="M43.24064282127297 20.166600277096848 L257.38133161824123 18.736018415226145 L254.25430138266128 162.25987944005075 L42.04931247932961 161.45675578478517" stroke="none" stroke-width="0" fill="none"/><path d="M45.28589739641829 18.35179666767294 C111.0401017236255 20.318724019904288, 175.83797526755316 20.943573532814494, 255.93199133586717 20.61531966813233 M43.6212591408016 19.16134924613421 C92.37233104493485 18.88723765701144, 141.19973151066213 20.120682149896243, 256.1284456092342 18.68517172366073 M254.7319156991172 17.430583111527568 C254.7418499695438 62.995665894209715, 253.7556935684462 102.40289126699254, 255.5786334971786 159.6262580176473 M255.55331481884585 19.814070104943116 C254.91903383542228 73.79055915640426, 255.25042469504345 129.81637952848487, 255.71645920270043 161.10496462792875 M255.31746550637425 159.52498496818603 C204.2152963693551 161.34593594529508, 152.75252198580336 161.71702133383357, 43.73023875359416 160.02429823945894 M255.4275051527059 160.77819905652976 C183.00987018885982 159.82168625289088, 109.22049089850074 159.79891547824013, 43.89533149034245 160.79967688743696 M44.690374489114596 161.4853867008184 C43.6904766755735 123.59596173393864, 45.93796157570997 91.16363235610969, 44.4388832224917 17.298321930544123 M44.61578520030187 161.81494621079926 C43.03663973237458 126.89954180166609, 43.121430258973675 93.18123045029554, 43.52299622855486 19.245944386591017" stroke="rgb(0, 0, 0)" stroke-width="1" fill="none"/></g><text x="150" y="115" class="value">4</text><g><path d="M49.24095906331693 26.271411136197013 L108.64810596278258 24.485170198903884 L111.68149691431631 74.63999264761047 L49.15638245905884 76.25360009596177" stroke="none" stroke-width="0" fill="none"/><path d="M49.08299876953874 24.141965687179198 C69.02060885433083 24.61834847024201, 89.9045777239247 23.278948441946177, 109.92934460087672 25.244680827618186 M49.1017348715516 25.061535844704796 C65.9382851678446 24.51375231437509, 83.29572996166732 25.106404580500737, 110.14960631096655 24.005801943650923 M109.57254586628997 23.20916931947264 C109.41851269303893 42.75469132523052, 108.06099201280841 57.584931233800624, 108.75064900276789 76.847865558953 M109.81254435348067 25.53864435995348 C110.58401897339174 44.907898432769635, 110.59823315242271 64.93169065648911, 110.37498542491494 75.64425671245941 M109.76514498743228 76.17934794662725 C98.69101623502587 74.41128971123918, 85.36883517113088 73.94692472448536, 50.304879400734904 74.7179983726991 M109.79303480924824 75.51077623216395 C95.93501072603902 75.89925770189987, 82.71343024658536 74.62564841197627, 50.729427606783844 74.14474434784316 M48.757485316730396 73.83839538630095 C48.34048725581139 62.35887206490101, 48.119641432812436 47.2697311738131, 49.93641330595408 24.217577584349016 M49.11691041602696 75.73377049850897 C50.17024024936605 64.4665997749449, 49.600151905399485 52.67321570300607, 49.886554331050974 25.921962684774748" stroke="rgb(0, 0, 0)" stroke-width="1" fill="none"/></g><g><path d="M188.35009942264273 24.65510802020084 L248.8697558793894 23.977764786837817 L250.93684420511192 74.14605512515318 L191.97534801952014 73.0592306647366" stroke="none" stroke-width="0" fill="none"/><path d="M190.39591412279208 26.88281911326985 C208.77351120491193 25.061770724683804, 223.00706058431436 24.410590487227132, 251.71548359248607 26.03115189324001 M189.58470071617944 24.865521701375158 C211.11742635250855 25.56666837839538, 233.62715499765685 25.867761896834697, 250.268049920609 24.511425082757615 M250.38479466285966 23.335385767202283 C251.17839512446744 40.08671127979383, 247.8184549182105 51.794806412205205, 250.93621642706998 75.36818480112062 M250.81634660728025 25.12799969299256 C251.34219822448523 45.462770229995016, 251.23937051595928 64.52177902986455, 249.54814311395182 74.25040603498174 M248.9047791848899 73.58015896962974 C227.26223380572554 73.13267277363197, 207.64754533727066 75.23050218566478, 188.40204255589111 76.85528870033863 M250.0700872695611 74.02957226423678 C233.2849759194842 75.97282229348332, 216.68152859559132 75.04333386270574, 190.5568472168871 75.78782399693158 M191.6722605032247 74.9118676687647 C190.18965914690764 58.883587517618565, 188.54309792987854 42.55990423472502, 190.21246313420173 25.070536583864197 M189.29777956738363 74.54038662068656 C190.94306578918605 54.73210241352262, 190.6290694463806 34.76932100748747, 190.54680020007743 24.810758816853088" stroke="rgb(0, 0, 0)" stroke-width="1" fill="none"/></g><text x="80" y="55" class="id">id54</text><text x="220" y="55" class="type">int</text></g></svg>