<svg width="287" height="292" xmlns="http://www.w3.org/2000/svg"><style>
        :root {
        --fade-text-color: rgb(0, 0, 0);
        --hide-text-color: white;

        --highlight-value-text-color: rgb(27, 14, 139);
        --highlight-id-text-color: rgb(150, 100, 28);

        --highlight-box-fill: yellow;
        --highlight-box-line-color: rgb(0, 0, 0);

        --fade-box-fill: rgb(247, 247, 247);
        --fade-box-line-color: gray;

        --hide-box-fill: white;

        --primitive-value-color: rgb(27, 14, 139);
        --id-text-color: rgb(150, 100, 28);
        --default-font-size: 20px;

        --highlight-object-fill: rgba(255, 255, 0, 0.6);
    }

        text {
            font-family: Consolas, Courier;
            font-size: 20px;
        }
        text.default {
            fill: rgb(0, 0, 0);
            text-anchor: middle;
        }
        text.attribute {
            fill: rgb(27, 14, 139);
            text-anchor: start;
        }
        text.variable {
            fill: rgb(0, 0, 0);
            text-anchor: start;
        }
        text.id {
            cursor: auto;
            fill: rgb(150, 100, 28);
            text-anchor: middle;
        }
        text.type {
            fill: rgb(27, 14, 139);
            text-anchor: middle;
        }
        text.value {
            fill: rgb(27, 14, 139);
            text-anchor: middle;
        }
        path {
            stroke: rgb(0, 0, 0);
        }
        .highlighted path {
            fill: var(--highlight-object-fill) !important;
        }
    </style><g id="object-0"><path d="M49.10106135626967 21.506311950498798 L249.06342798867192 27.547843589272446 L248.4744872923304 156.96268665940508 L51.222057666568375 154.71394770985222" stroke="none" stroke-width="0" fill="var(--fade-box-fill)"/><path d="M53.51842641405551 25.251906577107768 C100.76557679027104 22.70155345802036, 150.07099489610118 22.028886767424762, 248.62232004502448 28.343036669509917 M49.97728183678582 24.765590206983042 C103.79329597761033 21.466135277324515, 158.4494709227954 21.826108938413164, 249.0753689442456 25.062179362645157 M251.21577301745407 26.19752582545951 C251.04855911561884 61.50806880892497, 247.54020012193865 100.03509222006058, 253.77296054266748 154.62292274994974 M251.0208733652627 23.445215956242848 C247.0904755401259 65.35578010659061, 246.04867214709213 107.81651985731516, 251.50327233381083 154.41410962855247 M246.44503207233663 154.0786863136733 C188.1139386819257 159.28118688357887, 118.37533641964811 159.36115718825008, 47.97019512661186 153.88910046089728 M251.60486098367886 154.9248502296631 C180.30896588717675 157.5590286226167, 109.1344131342627 158.08176353818322, 50.196630635965086 154.4929152875952 M49.75740011943572 155.1387698558764 C46.895534032804356 117.45281430488666, 46.728335766271705 75.4413597896701, 52.808406369012545 28.675433426827183 M49.65954805479307 155.99767743420153 C52.05778293107763 104.42898804121772, 54.35095476736911 56.3742129361599, 48.44127885488449 26.941858704535473" stroke="var(--fade-box-line-color)" stroke-width="0.5" fill="none"/></g><g><path d="M44.27059845219974 20.327098069151056 L255.56935984232467 17.35249073442645 L255.06351481180013 160.77281815542955 L43.49832649996063 159.0287271426638" stroke="none" stroke-width="0" fill="none"/><path d="M44.87097220279944 17.603526375558424 C103.35230800585484 18.974017443756402, 165.260329833707 17.773165155611718, 256.77236707851216 20.322087708872186 M43.790149293444145 18.36526096888046 C119.27761219625071 20.022043941956316, 196.4933553450952 20.350713700377074, 255.13899195282784 19.766826240944475 M254.44584571415422 17.450749588326964 C253.8724227496646 49.35096258101998, 253.53349766153605 80.26407374329143, 257.94628151958807 162.99594670553876 M255.99061136546308 18.83309924483516 C255.823873438033 55.64135487071472, 254.05106766506273 92.79706457035505, 256.8146597527232 161.1177049098709 M254.5464923804804 162.54347027827163 C206.2712781545352 162.20432568058166, 153.2806056672301 162.23675803762947, 42.799675827101524 160.71259002752902 M256.0702272618588 161.83455699685197 C210.2356696078925 162.29582854959173, 164.48165226370654 161.4827176327228, 44.34945425300138 161.36161127443992 M44.53309833730059 162.76066069712158 C44.80550695264464 109.64553222306564, 43.682784970517446 58.305541351879356, 45.55774139491266 19.453720690773416 M43.25025837272537 161.8827375330018 C42.520074908918836 121.36591505641698, 43.6368598570668 82.43585586672958, 44.246476102887314 18.211326698064997" stroke="rgb(0, 0, 0)" stroke-width="1" fill="none"/></g><text x="150" y="115" style="font-weight:bolder; font-size:22px; fill:var(--fade-text-color); fill-opacity:0.4; " class="value">"Hello"</text><g><path d="M46.35516716760497 27.858327790846964 L113.97768140703381 21.531313359158993 L110.59017024449953 77.93899913978771 L52.91194842167221 76.91525244123973" stroke="none" stroke-width="0" fill="none"/><path d="M50.550868150599186 23.578392228704956 C65.43541989771276 26.95300965215491, 90.38099199089234 26.941675469579486, 112.08228511194878 21.448536411053915 M50.26578480493545 26.09666287596024 C72.06092438710397 23.771485278290815, 95.47389025398986 24.850021726448407, 111.66821333821156 23.13865496183564 M116.68681085538246 22.287552548162317 C110.30975271631763 42.60042274889955, 114.55162348691704 51.22011170982813, 110.92669060371463 73.67239305732389 M112.4744879998442 25.592341119865466 C113.30139890771261 35.09816567609907, 113.23222482848914 43.8702073633902, 113.46796801626955 75.09285031608994 M114.14307054323639 74.91779687804754 C93.33395433873416 77.37307367051041, 65.37737467589919 76.19046377465706, 48.74899352364956 78.49451297837481 M114.22576590895125 76.1490890371482 C89.359471916707 75.7082877422409, 65.98429378845503 73.48501406297406, 48.629844119543485 74.74996056490008 M47.59064488677525 77.4945801359228 C49.931505715356124 61.06167458406489, 50.32078877424628 49.93394670149597, 51.24076506020627 21.896411045726843 M50.459721048251986 76.15858013682148 C50.41784656008884 61.577999686399544, 49.88608554033459 45.95677349548476, 51.81338185622154 23.933840820583697" stroke="var(--fade-box-line-color)" stroke-width="0.5" fill="none"/></g><g><path d="M189.70758248730968 25.51077031119039 L253.4958267552009 27.350310998742003 L246.50203819934993 78.13769077979072 L193.79475216977346 71.3673344507161" stroke="none" stroke-width="0" fill="none"/><path d="M192.68308619900552 27.688143513661586 C207.10786467719134 22.061074516609278, 229.58457445714092 24.72924055071036, 249.09795718197688 21.656471231193386 M188.30543092842765 23.07810520328971 C210.8822715500288 26.58777488052509, 233.67369826548935 24.088403561813458, 248.52837697069177 24.69599698386187 M250.64795287325023 25.68034527989741 C247.32311247395646 40.80369275690619, 248.80437167707908 51.33361885775974, 249.78165603614906 72.72544738811563 M249.1504545709452 23.192263149826193 C250.86532113404922 42.691495641782865, 249.75350085178445 58.76756070735252, 251.60158678331132 76.06790997525674 M247.76183966534336 72.74380058386649 C226.33365767018753 74.49150578651673, 209.45868224203434 72.6042934418009, 187.59145913917655 76.51452130485947 M251.51885966802877 73.87724414073296 C227.1372874217552 76.0207767213103, 207.12711963052422 76.89075314061002, 189.6712323781973 74.4426678918578 M193.40429363276738 72.36066254789682 C189.69477080443153 67.60562544622312, 186.96167182191948 51.300315027959265, 192.74666762423755 27.2460338464108 M189.3295606291877 74.83625977085997 C190.5385760156705 58.31133845858891, 191.1494659070327 40.14139297521109, 191.72841019280222 25.431244333081615" stroke="var(--fade-box-line-color)" stroke-width="0.5" fill="none"/></g><text x="81.4" y="55" style="font-weight:bolder; font-size:22px; fill:var(--fade-text-color); fill-opacity:0.4; font-style:italic; " class="id">id10</text><text x="220" y="55" style="font-weight:bolder; font-size:22px; fill:var(--fade-text-color); fill-opacity:0.4; " class="type">str</text></svg>