<svg data-theme="dark" width="287" height="217" xmlns="http://www.w3.org/2000/svg"><title>Python memory model diagram showing objects</title><style>
        :root {
        --fade-text-color: rgb(0, 0, 0);
        --hide-text-color: white;

        --highlight-value-text-color: rgb(27, 14, 139);
        --highlight-id-text-color: rgb(150, 100, 28);

        --highlight-box-fill: yellow;
        --highlight-box-line-color: rgb(0, 0, 0);

        --fade-box-fill: rgb(247, 247, 247);
        --fade-box-line-color: gray;

        --hide-box-fill: white;

        --primitive-value-color: rgb(27, 14, 139);
        --id-text-color: rgb(150, 100, 28);
        --default-font-size: 20px;

        --highlight-object-fill: rgba(255, 255, 0, 0.6);
    }

        text {
            font-family: Consolas, Courier;
            font-size: 20px;
        }
        text.default {
            fill: rgb(0, 0, 0);
            text-anchor: middle;
        }
        text.attribute {
            fill: rgb(27, 14, 139);
            text-anchor: start;
        }
        text.variable {
            fill: rgb(0, 0, 0);
            text-anchor: start;
        }
        text.id {
            cursor: auto;
            fill: rgb(150, 100, 28);
            text-anchor: middle;
        }
        text.type {
            fill: rgb(27, 14, 139);
            text-anchor: middle;
        }
        text.value {
            fill: rgb(27, 14, 139);
            text-anchor: middle;
        }
        path {
            stroke: rgb(0, 0, 0);
        }
        .highlighted path {
            fill: var(--highlight-object-fill) !important;
        }
    
        [data-theme="dark"] {
            --highlight-value-text-color: #110875;
            --highlight-id-text-color: #6e4409;

            --fade-text-color: #BBBBBB;
            --hide-text-color: #121212;

            --highlight-box-fill: #EDB926;
            --highlight-box-line-color: #FFFFFF;

            --fade-box-fill: #2C2C2C;
            --fade-box-line-color: #666666;

            --hide-box-fill: #121212;

            --highlight-object-fill: rgba(72, 207, 173, 0.3);
        }
        [data-theme="dark"] text.default,
        [data-theme="dark"] text.variable {
            fill: rgb(224, 224, 224);
        }
        [data-theme="dark"] text.attribute,
        [data-theme="dark"] text.type,
        [data-theme="dark"] text.value {
            fill: rgb(144, 164, 237);
        }
        [data-theme="dark"] text.id {
            fill: rgb(255, 183, 77);
        }
        [data-theme="dark"] path {
            stroke: rgb(204, 204, 204);
        }
</style><g role="graphics-object"><title>Str id10 with value "Hello"</title><g id="object-0"><path d="M51.68995751840178 22.786986448267008 L251.33435263312435 27.692757866208982 L251.49604494601505 155.61977187593016 L48.95891607794127 152.63534447990972" stroke="none" stroke-width="0" fill="var(--fade-box-fill)"/><path d="M49.03868748328609 26.323926873913937 C113.29415824110467 19.765966207824775, 172.55104921381147 21.251470768216652, 253.19824188295908 22.914181037365317 M48.837474237473266 24.788270692023485 C116.37443131261813 20.183283745642363, 182.42535175413965 23.57455660359512, 250.93795006997252 23.82083803103703 M247.38048833947963 26.61706849649317 C247.4704503687997 72.47642341700222, 245.99345769625106 113.93661853746787, 251.6819531857472 153.1838588596133 M248.91795286057993 25.392653258510705 C249.49757162339048 62.17414246822276, 252.59265468131272 95.56003151170961, 251.19268429864593 153.0521286545062 M246.92401617899293 154.74706806934563 C182.93735702221102 148.3116936535928, 115.47021247267587 151.28774395195714, 49.896070085598524 156.75757005971084 M248.50337861238128 155.6516145654024 C192.68003579048155 154.6706374066273, 133.50315813239456 152.9714767564833, 50.82811304865703 156.54674476843178 M50.6763789542253 154.22631175987206 C49.05232409042124 115.63695597879622, 46.74208060760958 81.23609631478996, 47.372507753873506 27.473385055575914 M50.52977865161545 155.94135512625985 C51.67587480352509 109.8572366995523, 50.71704183889896 62.69530534912044, 51.09615290255053 25.330197604593515" stroke="var(--fade-box-line-color)" stroke-width="0.5" fill="none"/></g><g><path d="M42.06976941957774 19.718069657947478 L256.6621513439105 18.416042978323137 L254.4761795675805 162.1970226918778 L43.095541277846124 162.9783804195236" stroke="none" stroke-width="0" fill="none"/><path d="M43.91412981519048 19.164739981060652 C85.93534118678075 19.97012900290541, 130.8799380838248 21.130476692338092, 257.04732188889426 19.423330766500627 M44.84297190983112 18.862632898108476 C104.87805657090594 19.659676337701722, 164.58365313753384 19.145803317141382, 256.11048576373247 19.280012823078994 M255.9018471436266 17.29008106396601 C256.53011432759115 69.68018749700224, 255.02069276260764 118.25035901576263, 255.1837315108072 159.84526812544595 M255.96994247620913 19.38101473288322 C256.4832463309389 58.22439902314136, 255.795124444572 97.64981954148662, 255.0471029556447 161.1019519668878 M254.89568945792522 160.4263579022479 C203.6502144126562 162.12412161353421, 149.5813863823925 159.8722419015361, 42.529727290794206 162.12306252842595 M256.41558819484413 160.47488085797414 C199.51717140821515 161.439694452332, 143.59643257529967 161.94883853793303, 43.5058807913112 161.19030726029564 M43.83721719335898 162.31999274220104 C45.65603146634897 119.37525431374283, 46.37065631944133 77.90612365307966, 45.97158875502333 18.023170379494996 M44.517366247869944 160.557167840221 C44.411690422151985 121.1934358409104, 43.494722523517886 80.65035557947994, 44.04869983246382 19.137932643805357" stroke="rgb(0, 0, 0)" stroke-width="1" fill="none"/></g><g><path d="M47.283322401009585 27.656549592168048 L111.86214582151605 22.688475143059467 L109.02511321607359 75.59654773080811 L48.30412756503076 78.2904865290951" stroke="none" stroke-width="0" fill="none"/><path d="M53.70119801678918 23.235192750123797 C71.38298952266102 25.17778271788218, 99.4341426701694 20.520288595415956, 111.5454429634778 21.183736166897063 M49.97395110170939 26.350289410875035 C71.17327856035412 23.821322917889447, 90.16963785242253 24.30810051698345, 111.90529073658517 26.707112761615498 M114.27086196896832 22.812504307300973 C110.1691141748638 42.91686001474079, 112.49378255230782 60.71730652597506, 114.29154043315764 77.97411235657565 M113.09858423869558 25.504443358641396 C111.79945909140868 43.32990706875805, 112.25860644539684 66.12733530831578, 114.58399340105251 76.0718125800503 M111.12910616737025 77.25874714577631 C100.38816882702623 76.52814662201557, 87.12029513347002 76.90180273859455, 53.843155820533525 73.36568454456176 M112.15875688615056 74.20854024101135 C98.62820888110063 76.4612425164707, 82.98606034057089 76.20586824324677, 51.53494972983229 74.86345993245799 M52.80203101794905 74.52089913465574 C47.97879082901088 59.982976526626565, 49.65641717180682 51.96592397365758, 49.75460571168107 24.077630514961726 M49.2873125956439 74.96834691177878 C48.81544858172386 54.203954710776394, 48.18570921855188 38.61397821114468, 51.52758087787052 26.394284180124014" stroke="var(--fade-box-line-color)" stroke-width="0.5" fill="none"/><text x="81.4" y="55" style="font-weight:bolder; font-size:22px; fill:var(--fade-text-color); fill-opacity:0.4; font-style:italic; " class="id" aria-label="id: id10">id10</text></g><g><path d="M193.34984438907546 21.189778238809986 L246.89229483038972 23.357922859185457 L251.3178377070311 74.6516290512804 L187.3589830009329 72.37744946665521" stroke="none" stroke-width="0" fill="none"/><path d="M189.89836692504966 27.543847948300368 C212.41810786727078 27.604644899448466, 233.9252930272075 23.530555423260157, 250.22704728889266 28.92159483926304 M191.6093746044117 23.665343158945483 C208.77267463945864 24.857402031795434, 231.0526809896444 24.374147944914622, 248.65949989621075 24.099157874572672 M253.9914481218399 24.208613003956202 C248.5599003616206 42.37318078668132, 251.84376849176172 53.2488092232302, 247.1551452834667 74.16113191759862 M251.97078180138766 26.961281743179022 C252.60493933262254 33.89163627561313, 249.9426104279764 45.08739448531603, 251.8707289392202 75.43487748800956 M249.18789638417255 72.84906515632717 C232.4469523238849 70.4346551956255, 205.29678095583674 74.97284585756798, 189.96083926659637 77.36892136379937 M249.50004671137816 75.17653497953616 C230.92293301923738 75.13751645815296, 211.25516423103915 73.94113200697606, 189.96779463264068 76.7727665540137 M192.62733072128262 78.34684234262664 C189.70247960942228 60.92821167598314, 188.23124760028594 44.494021731702055, 188.8090375334244 23.804493197201445 M189.65544035707313 76.38920978147836 C188.23793294122203 60.392021778012115, 189.2765959732504 47.273631455288644, 190.00172048064962 23.081166470426037" stroke="var(--fade-box-line-color)" stroke-width="0.5" fill="none"/><text x="220" y="55" style="font-weight:bolder; font-size:22px; fill:var(--fade-text-color); fill-opacity:0.4; " class="type" aria-label="type: str">str</text></g><text x="150" y="115" style="font-weight:bolder; font-size:22px; fill:var(--fade-text-color); fill-opacity:0.4; " class="value" aria-label="value: &quot;Hello&quot;">"Hello"</text></g></svg>