<svg width="287" height="217" xmlns="http://www.w3.org/2000/svg"><style>
        :root {
        --fade-text-color: rgb(0, 0, 0);
        --hide-text-color: white;

        --highlight-value-text-color: rgb(27, 14, 139);
        --highlight-id-text-color: rgb(150, 100, 28);

        --highlight-box-fill: yellow;
        --highlight-box-line-color: rgb(0, 0, 0);

        --fade-box-fill: rgb(247, 247, 247);
        --fade-box-line-color: gray;

        --hide-box-fill: white;

        --primitive-value-color: rgb(27, 14, 139);
        --id-text-color: rgb(150, 100, 28);
        --default-font-size: 20px;

        --highlight-object-fill: rgba(255, 255, 0, 0.6);
    }

        text {
            font-family: Consolas, Courier;
            font-size: 20px;
        }
        text.default {
            fill: rgb(0, 0, 0);
            text-anchor: middle;
        }
        text.attribute {
            fill: rgb(27, 14, 139);
            text-anchor: start;
        }
        text.variable {
            fill: rgb(0, 0, 0);
            text-anchor: start;
        }
        text.id {
            cursor: auto;
            fill: rgb(150, 100, 28);
            text-anchor: middle;
        }
        text.type {
            fill: rgb(27, 14, 139);
            text-anchor: middle;
        }
        text.value {
            fill: rgb(27, 14, 139);
            text-anchor: middle;
        }
        path {
            stroke: rgb(0, 0, 0);
        }
        .highlighted path {
            fill: var(--highlight-object-fill) !important;
        }
    </style><g id="object-0"><path d="M50.47378990212773 25.273467908101907 L249.3741401883527 23.35450425884686 L247.0551977209518 151.45082988195924 L50.031468088400416 151.00423770883998" stroke="none" stroke-width="0" fill="var(--fade-box-fill)"/><path d="M48.65624293359634 21.83611705011246 C118.44602732405966 18.867243057343252, 182.86274295801812 23.316000793864685, 249.1739427946199 25.94484365367476 M48.86930177636174 23.519444182586795 C123.10782530339418 26.809044428155136, 194.31382726222728 28.69628916420101, 250.27888852458602 25.852617699288036 M248.87363853228723 25.97633770734484 C249.12088680983462 57.47512324507947, 253.75393066987127 89.89685895350604, 246.302655502137 156.10184406591782 M249.64527245533787 23.530494780356484 C251.39148938006807 72.40746906060754, 248.7010648380353 118.72874075438179, 249.69894363539157 156.34508415983143 M247.61110913749937 155.17148266377038 C204.13738473574833 155.74183192039007, 158.51827225311067 155.79465851821743, 47.953600799939416 156.7916608051863 M250.93304146513339 154.36618203553428 C190.0861378617706 159.9206617855457, 130.52867791804115 159.85880151150113, 51.284806251141205 153.95998024926186 M49.00724418298669 156.67881279121443 C49.64822664911431 125.88366620427823, 52.835065196103905 90.90639861834207, 50.519450601279445 26.227251072784348 M49.452960928290516 154.76646565595073 C49.9125149494741 113.17856258773149, 52.12921131091133 75.13267211209072, 51.2842902637461 26.5853027674459" stroke="var(--fade-box-line-color)" stroke-width="0.5" fill="none"/></g><g><path d="M42.696870786051 20.73153514390238 L254.1462320295633 17.54395426317169 L257.97985402726044 159.331337826916 L43.74486280263906 161.99180067684853" stroke="none" stroke-width="0" fill="none"/><path d="M44.82750260729123 19.455057161215016 C105.91923824395184 19.826203495961348, 170.46229460530915 20.37329489936789, 256.39997894863006 17.71730561671034 M43.342546186595506 19.506277113638163 C121.21180403475742 17.85572900033344, 199.50151316537247 18.2014017413122, 256.52469416644004 18.534456717946913 M254.92866017482066 18.12356531864331 C256.40247494654653 59.66693017626199, 257.17769411597055 103.14908872574873, 257.8454773161256 161.51039242153655 M255.39264667430177 18.586513024345958 C255.63417118016716 58.72843540316608, 254.99117316885736 96.86277049168817, 255.03546546912293 160.24359236202187 M256.7143360052828 159.34993188786436 C197.19571359077787 161.27600659150193, 138.47056755799832 163.24454392297278, 42.778181856925386 160.06178523310726 M255.92233060114103 160.23482626550714 C183.97021138963706 161.16026949144475, 111.3401097431854 161.2151542921743, 43.55943069806279 161.86947830733246 M42.867786981088756 160.17438562131974 C44.61568867233408 132.37568144716593, 45.466128049604876 102.70922839902616, 45.29766457600677 20.695541840558818 M43.9738187270018 161.30271429523344 C43.4571159422923 106.45150875431699, 43.31533540341007 53.27384819975237, 43.9646208901817 19.262369991441254" stroke="rgb(0, 0, 0)" stroke-width="1" fill="none"/></g><text x="150" y="115" style="font-weight:bolder; font-size:22px; fill:var(--fade-text-color); fill-opacity:0.4; " class="value">"Hello"</text><g><path d="M48.223826626364364 28.537788429395356 L110.77446683495265 25.195072442834007 L114.40408405313735 77.18886370726352 L50.93460074334182 77.88904622034403" stroke="none" stroke-width="0" fill="none"/><path d="M53.35710230394305 26.229296695510058 C72.67408487965521 23.669302465050343, 86.5528937428679 24.042882696709846, 111.08556572540057 25.614583524314213 M48.611065654276196 25.41358001946445 C71.59351977757493 25.077517696115248, 96.43298851171201 25.835034266161053, 112.47098493036904 23.356054649046197 M109.66259702075142 21.40077997418466 C113.11585259961733 44.98643888980179, 113.35450995253875 60.565342912798656, 113.18470789313557 72.48787512918388 M113.0249778009546 23.223922136582484 C112.34277865634049 41.190898065900974, 112.88700121859594 56.69261295804877, 114.24100039355002 75.18650901448248 M115.73697657025296 77.45727297786559 C91.459592167428 72.21844471125968, 71.16530819054393 71.39946395114785, 48.890605537182964 71.61840187359392 M113.91968502931286 75.17910647919184 C93.8595864384215 76.61822467080383, 77.47228649248736 75.20839807794702, 48.82732066065427 73.00043332267039 M48.616962981650445 76.65398338215208 C48.43426185759621 61.08273307663647, 48.604050804903125 50.787323434942834, 47.847145237229086 22.33586434729513 M49.589517710309345 74.68708504325419 C50.73805134250339 58.52810895383699, 48.03407706880082 44.17332509614921, 51.03028821920924 25.94303955356417" stroke="var(--fade-box-line-color)" stroke-width="0.5" fill="none"/></g><g><path d="M191.61264293942185 26.29606936168462 L247.06366464836378 28.794352956523614 L252.40915211461055 76.88855507998242 L190.61853493266952 75.33248962845872" stroke="none" stroke-width="0" fill="none"/><path d="M190.5289291693073 28.912759302142675 C213.87402585257877 29.970903633484152, 233.1400237614775 24.57676545798795, 248.33048921487395 27.665688330195366 M190.59149758778614 26.66627703929435 C211.02363737970285 26.713730999656285, 228.7093838382809 24.6092821953206, 249.4106571533578 24.68944899577736 M248.2794553200598 23.533632820578205 C250.92816420233405 42.001447312806725, 254.76191642455996 58.2260245836163, 249.30940964252943 75.10577312497878 M248.81975341967237 25.713734460493974 C249.39281875949666 43.12125841617912, 252.0281233627919 58.48596216829569, 249.99725901685574 73.66465016516565 M248.70408071505855 71.84769220542805 C239.77332638437971 74.00584930347479, 226.07128172207766 73.26770406256269, 192.65177576459422 78.2996846435554 M249.95336394860837 75.46833049491268 C224.5162452197211 74.22029332364065, 203.63380351042682 76.43827837067401, 190.8322681305667 76.77741903423215 M191.09549972285672 78.07949692643362 C186.15272640930255 64.03642476826562, 190.9199880234192 50.39565034598561, 190.2056054280786 21.560410818572464 M188.10245192139664 73.33401853305233 C187.42273380908452 66.38607163301724, 188.3982075374713 55.994684307590454, 188.9635441434396 23.51559016621483" stroke="var(--fade-box-line-color)" stroke-width="0.5" fill="none"/></g><text x="81.4" y="55" style="font-weight:bolder; font-size:22px; fill:var(--fade-text-color); fill-opacity:0.4; font-style:italic; " class="id">id10</text><text x="220" y="55" style="font-weight:bolder; font-size:22px; fill:var(--fade-text-color); fill-opacity:0.4; " class="type">str</text></svg>