<svg data-theme="dark" width="287" height="217" xmlns="http://www.w3.org/2000/svg"><title>Python memory model diagram showing objects</title><style>
        :root {
        --fade-text-color: rgb(0, 0, 0);
        --hide-text-color: white;

        --highlight-value-text-color: rgb(27, 14, 139);
        --highlight-id-text-color: rgb(150, 100, 28);

        --highlight-box-fill: yellow;
        --highlight-box-line-color: rgb(0, 0, 0);

        --fade-box-fill: rgb(247, 247, 247);
        --fade-box-line-color: gray;

        --hide-box-fill: white;

        --primitive-value-color: rgb(27, 14, 139);
        --id-text-color: rgb(150, 100, 28);
        --default-font-size: 20px;

        --highlight-object-fill: rgba(255, 255, 0, 0.6);
    }

        text {
            font-family: Consolas, Courier;
            font-size: 20px;
        }
        text.default {
            fill: rgb(0, 0, 0);
            text-anchor: middle;
        }
        text.attribute {
            fill: rgb(27, 14, 139);
            text-anchor: start;
        }
        text.variable {
            fill: rgb(0, 0, 0);
            text-anchor: start;
        }
        text.id {
            cursor: auto;
            fill: rgb(150, 100, 28);
            text-anchor: middle;
        }
        text.type {
            fill: rgb(27, 14, 139);
            text-anchor: middle;
        }
        text.value {
            fill: rgb(27, 14, 139);
            text-anchor: middle;
        }
        path {
            stroke: rgb(0, 0, 0);
        }
        .highlighted path {
            fill: var(--highlight-object-fill) !important;
        }
    
        [data-theme="dark"] {
            --highlight-value-text-color: #110875;
            --highlight-id-text-color: #6e4409;

            --fade-text-color: #BBBBBB;
            --hide-text-color: #121212;

            --highlight-box-fill: #EDB926;
            --highlight-box-line-color: #FFFFFF;

            --fade-box-fill: #2C2C2C;
            --fade-box-line-color: #666666;

            --hide-box-fill: #121212;

            --highlight-object-fill: rgba(72, 207, 173, 0.3);
        }
        [data-theme="dark"] text.default,
        [data-theme="dark"] text.variable {
            fill: rgb(224, 224, 224);
        }
        [data-theme="dark"] text.attribute,
        [data-theme="dark"] text.type,
        [data-theme="dark"] text.value {
            fill: rgb(144, 164, 237);
        }
        [data-theme="dark"] text.id {
            fill: rgb(255, 183, 77);
        }
        [data-theme="dark"] path {
            stroke: rgb(204, 204, 204);
        }
</style><g role="graphics-object"><title>Str id10 with value "Hello"</title><g id="object-0"><path d="M46.50745009096747 28.90363980870508 L250.07989066224545 26.229000900743724 L252.63540644024957 155.1079320328255 L46.02351412132845 158.00551928431346" stroke="none" stroke-width="0" fill="var(--fade-box-fill)"/><path d="M47.47246531157507 23.719754568449687 C126.98839472776562 21.806605512947, 201.1686508748683 21.008385396294166, 251.63799831536406 28.571730053305597 M50.112276115740315 24.90302243876422 C98.68207611260264 23.09187455246041, 145.0256523001171 23.040497861609296, 250.60340947344278 24.677781997697778 M249.0225742149257 24.513156710850062 C247.4690534825869 56.30550730762822, 251.41808060457444 87.1243660110952, 248.43583790057048 153.80376220638274 M250.91200188274624 25.75336575774297 C252.50490950309907 68.94800769793115, 249.86963974679065 117.6560725534045, 251.32875925699054 154.67054224363415 M250.3523176360212 155.45481542064076 C179.6114734886205 155.7109983926205, 101.06966095462445 154.88863454784754, 53.59329881768026 151.54467106171435 M251.13828149567962 153.91239057652078 C197.3592435256772 158.2654949048552, 147.80810286428562 157.42264137084194, 50.81822146542843 156.17204726627466 M53.59359359401918 153.68798213944234 C50.0469307920156 108.46564631239463, 53.07934341166431 65.73107689370352, 49.87848372830554 21.235596043991247 M50.58122392579858 154.6347312057021 C49.657756475515704 125.40279261499941, 52.53748737916664 93.69750098312977, 48.06875415794167 26.637446828499854" stroke="var(--fade-box-line-color)" stroke-width="0.5" fill="none"/></g><g><path d="M42.736542851792166 17.931339305121437 L256.4708044726374 17.510292777924654 L257.320688922071 161.1906583162294 L43.53423558645097 161.2606980775919" stroke="none" stroke-width="0" fill="none"/><path d="M44.01162836228501 17.473749895803362 C127.40712969301363 21.238251904306765, 211.26346797701933 21.651443769853095, 256.9186977324126 18.288130203375154 M44.83730806066006 19.02394581331238 C93.194012141464 20.07739924499998, 144.44305748248243 19.96806691497372, 255.36653349875291 19.105340536421824 M254.52603920296664 18.517245086558958 C255.2112857631421 66.39011152136321, 258.0270010470816 108.97097883783333, 256.36704324308346 161.52281260125721 M255.87771898809422 19.88089990578598 C255.08523194167105 58.31371721177033, 255.5995056458165 95.44998268131445, 256.7632535537271 160.8879822579677 M256.95349618597703 160.22285885140755 C185.6638043896473 161.41265061363973, 111.55042638583669 159.09789642386713, 43.00058672697341 160.13785241960738 M256.8752496354793 160.649255801916 C192.33842805645864 161.4356940881959, 126.35156589669988 162.40073379489849, 44.0213849106609 160.53062141479438 M42.79225831000587 161.3202088623684 C45.48070157654934 110.47543256473226, 44.327126338774484 61.05186968041404, 45.76043335878623 20.09002055902273 M43.931365594385504 160.98442093276847 C43.48353902484897 107.0934513277676, 44.0454677691733 51.28661442403603, 43.977221860780766 18.020743441450332" stroke="rgb(0, 0, 0)" stroke-width="1" fill="none"/></g><g><path d="M52.22528614167321 28.52478962315542 L116.77686556256624 26.61735414073624 L111.24131470698997 71.82816782358317 L47.79881422618663 74.46229296091315" stroke="none" stroke-width="0" fill="none"/><path d="M48.7095281268889 21.718323620214534 C68.04553509489375 20.89544884683019, 87.99524858929092 27.92400902817728, 115.02005741990666 26.278561136655753 M51.17546909070536 25.811846567487205 C64.33721276903094 23.681364579007322, 79.98751424322593 23.736341691419934, 112.76898904549674 26.13624995558954 M115.72066303155252 25.77439478441073 C111.8643835803626 39.08112085205976, 114.52626978361076 43.22102564694586, 109.10829478836774 71.53050057596703 M114.70444301412604 24.5362593319022 C111.18891129924135 41.006254469222, 114.0472221511245 59.84908700901963, 114.11657015701377 75.31259620313364 M114.98533552790087 71.74362560239558 C92.18577269265256 74.42497434823487, 70.6461685027992 72.12820347768682, 51.14772804834866 72.76733078002283 M113.79480842675373 76.2613761487305 C98.50029528214282 77.0782767162232, 82.75736549788257 77.61908611167337, 50.49319514826738 73.31109805137132 M50.75903479064286 72.42059926113777 C46.69203950527546 58.14276370281783, 50.441202649117066 38.45000122366999, 51.14876109214878 25.113926341190215 M51.51293680302552 73.94557024052071 C49.06222237411366 58.73832214404005, 49.018964007937335 45.18792548793465, 50.39325768308609 26.90949999807752" stroke="var(--fade-box-line-color)" stroke-width="0.5" fill="none"/><text x="81.4" y="55" style="font-weight:bolder; font-size:22px; fill:var(--fade-text-color); fill-opacity:0.4; font-style:italic; " class="id" aria-describedby="desc-0">id10<title id="desc-0">Object id: id10</title></text></g><g><path d="M193.50026905763926 21.62025323087324 L252.1621705551493 21.590852513934223 L253.38931582748674 73.26134272946467 L192.13840997318255 74.34257211826015" stroke="none" stroke-width="0" fill="none"/><path d="M188.8308257118712 26.124457563580627 C209.6784938895521 23.499873093593376, 228.72852364995427 23.459045495135634, 250.82961040841926 27.694271244575106 M189.46665752685107 26.367013449368013 C211.10265335905993 25.39363837390518, 231.68984959679744 23.285555381259016, 249.73543375911066 25.857076087268226 M246.32713902572632 27.907961832939193 C247.46302007065754 37.457208114757584, 250.1224732975015 46.07763472132679, 249.3741148048141 73.80932854756523 M248.8325610317538 25.242968762535554 C252.61164172269403 36.37045994154226, 252.60865452615502 44.45710912538018, 249.3985284091148 75.61516901985482 M253.14938553051192 73.9985309892719 C229.6325438629389 70.3178285943411, 200.9951942074837 73.64177446669544, 193.4392859665938 76.24438403117102 M248.61717001689888 76.48343744648649 C235.58986160449194 75.8400051292857, 222.59333196803823 73.98732089341206, 191.7045244934886 76.98552249528487 M186.20858568485332 71.62556569209967 C189.91311325801587 66.08115153650726, 186.55455436616947 47.50099193763715, 187.07889580335524 24.644372399904153 M188.4661680860946 76.27747800660912 C189.25480540698516 63.87513811768599, 190.85861526048663 50.406511635936035, 190.33742853473245 24.078498758654437" stroke="var(--fade-box-line-color)" stroke-width="0.5" fill="none"/><text x="220" y="55" style="font-weight:bolder; font-size:22px; fill:var(--fade-text-color); fill-opacity:0.4; " class="type" aria-describedby="desc-1">str<title id="desc-1">Object type: str</title></text></g><text x="150" y="115" style="font-weight:bolder; font-size:22px; fill:var(--fade-text-color); fill-opacity:0.4; " class="value" aria-describedby="desc-2">"Hello"<title id="desc-2">Value: "Hello"</title></text></g></svg>