<svg width="287" height="217" xmlns="http://www.w3.org/2000/svg"><title>Python memory model diagram showing objects</title><style>
        :root {
        --fade-text-color: rgb(0, 0, 0);
        --hide-text-color: white;

        --highlight-value-text-color: rgb(27, 14, 139);
        --highlight-id-text-color: rgb(150, 100, 28);

        --highlight-box-fill: yellow;
        --highlight-box-line-color: rgb(0, 0, 0);

        --fade-box-fill: rgb(247, 247, 247);
        --fade-box-line-color: gray;

        --hide-box-fill: white;

        --primitive-value-color: rgb(27, 14, 139);
        --id-text-color: rgb(150, 100, 28);
        --default-font-size: 20px;

        --highlight-object-fill: rgba(255, 255, 0, 0.6);
    }

        text {
            font-family: Consolas, Courier;
            font-size: 20px;
        }
        text.default {
            fill: rgb(0, 0, 0);
            text-anchor: middle;
        }
        text.attribute {
            fill: rgb(27, 14, 139);
            text-anchor: start;
        }
        text.variable {
            fill: rgb(0, 0, 0);
            text-anchor: start;
        }
        text.id {
            cursor: auto;
            fill: rgb(150, 100, 28);
            text-anchor: middle;
        }
        text.type {
            fill: rgb(27, 14, 139);
            text-anchor: middle;
        }
        text.value {
            fill: rgb(27, 14, 139);
            text-anchor: middle;
        }
        path {
            stroke: rgb(0, 0, 0);
        }
        .highlighted path {
            fill: var(--highlight-object-fill) !important;
        }
    </style><g role="graphics-object"><title>Str id10 with value "Hello"</title><g id="object-0"><path d="M52.41047682928393 22.189447462080494 L251.93642171789608 22.32190293710414 L249.6137236509527 154.55761447632256 L52.758272030269325 155.64870952567932" stroke="none" stroke-width="0" fill="var(--fade-box-fill)"/><path d="M53.552613112908716 25.00643640439772 C124.65116488654645 25.532680416994427, 199.143062095799 26.38027435704459, 248.63753874439854 24.016985988393504 M49.17400459048859 25.49603470618864 C90.3449011649589 23.446743786644724, 130.52744596592652 22.910256348557485, 249.93967854162824 25.81024834208091 M250.51389979992544 28.164538118850373 C250.22757622972753 66.81939073603114, 246.73727243150768 114.43927554010845, 248.82098822281992 152.07030740688924 M250.31994705071193 26.016760985779612 C248.08755821241928 56.704815371836396, 246.89219942238316 89.03576080200338, 250.3157666620286 154.00442868479135 M249.449857878103 151.70754749319127 C170.74071049093752 156.58638751169642, 93.69175649297053 153.27381650322457, 49.370787005501974 156.00525167340777 M249.3799992192735 156.41667830882952 C207.87240266231564 155.28366023728927, 163.46817356122392 155.6560805788909, 50.5282252503776 156.05229085140655 M53.309160166248695 152.60718236124123 C53.37403154444939 106.24013836569642, 49.41193299510974 56.22225190409258, 46.80521011981517 27.07227598553144 M50.55329311170519 154.5073946868765 C51.76092464731363 127.01827455055859, 49.68718715129402 96.89140992957445, 48.23486796484598 26.57729409814452" stroke="var(--fade-box-line-color)" stroke-width="0.5" fill="none"/></g><g><path d="M43.764982474567475 19.7300457481234 L256.43535913073663 18.417062490863856 L255.70384820625225 162.8893426941948 L43.71399544240171 160.29221858069" stroke="none" stroke-width="0" fill="none"/><path d="M43.76563083460364 20.74950354835464 C102.32202374129629 15.716837887151568, 163.33348020307344 16.88625377792387, 255.77726535264128 18.05502389713801 M43.70149119507786 18.19542826312656 C100.27444192001077 19.50226060344427, 155.76579541786788 20.10661361960388, 256.0057612371314 19.022311749154042 M257.81698885940807 20.238648644210564 C256.5923446649739 62.142593713052506, 255.82277114907828 103.34545310392913, 256.54658885245 160.03215904440836 M255.9659049319347 19.18555590994215 C256.64238056137435 54.164379929433366, 255.70424268677291 90.44611042943288, 255.6318883339134 160.77345694879867 M255.20037836744294 162.54201388976338 C211.5935688175315 158.7148115203319, 165.58065583779822 159.5405561117745, 44.007507038256136 161.37206221173437 M256.80330716947464 161.40335152780744 C182.82987808906978 160.0369275578144, 109.5471474954773 160.24067282546264, 44.305928977952654 161.48951589171986 M45.25865070988981 161.82695735162073 C43.78396816223049 125.10938806360925, 45.519400426281855 92.06210727349935, 44.29069329818666 18.613260168261544 M43.571039624074295 160.0455775082612 C43.94032935901733 122.04522815799066, 44.965905658145886 82.3732460496797, 44.61649953477721 18.443986842237585" stroke="rgb(0, 0, 0)" stroke-width="1" fill="none"/></g><text x="150" y="115" style="font-weight:bolder; font-size:22px; fill:var(--fade-text-color); fill-opacity:0.4; " class="value">"Hello"</text><g><path d="M47.91147112651774 23.77191734295659 L113.31696296437204 22.132712289781463 L111.0213754192928 78.05129576682036 L52.60732027094942 77.73332776775985" stroke="none" stroke-width="0" fill="none"/><path d="M50.73747842290994 23.85267875068361 C66.1726463886428 26.70573845313387, 82.80656944266873 20.920862254900463, 115.008756082534 27.878555375984682 M51.62897763886214 23.372984905292427 C68.89190033735898 24.340268165876257, 89.18414637793309 24.962302098560748, 111.30391100297314 25.961640049366512 M113.63755859950626 26.09235354782841 C113.02907213772416 36.931680401366364, 114.24908823000459 53.54822484665803, 110.88583349917121 71.17716448379582 M112.40902525857572 25.29504151737452 C114.07318892587999 39.7663355562639, 113.48526348331711 53.67789504510979, 112.23195791111704 75.90076097776466 M111.59773372916695 77.22621458617053 C96.3173631285512 72.13853250600332, 83.77963921362063 72.51553857622892, 51.89760858226222 77.08093773993454 M111.41591847568345 74.77839472198143 C94.74705718702374 75.72865631117344, 74.95474134978497 75.41147730724586, 51.831443144000616 74.12885085311142 M49.613464775410876 71.86914015104068 C50.14949357671458 57.71765135578994, 46.67287243885107 37.22326421260049, 53.841201815439355 24.81159902140795 M51.35741553221609 73.31694287058909 C48.66269872385177 57.20923391568569, 48.62174656208454 38.527036750398594, 48.378583774411425 25.41274799052286" stroke="var(--fade-box-line-color)" stroke-width="0.5" fill="none"/></g><g><path d="M192.85479257418217 22.651939669785392 L250.28808918127768 24.50551300416925 L247.548608573552 73.78773889163966 L187.93017705342464 74.43903927128878" stroke="none" stroke-width="0" fill="none"/><path d="M190.14774751090766 28.1438902777342 C202.5229179073225 25.833389506936108, 213.13230062851787 22.452623228372286, 253.2530477558704 27.988764853832606 M188.31966271733654 25.900550175558763 C201.7520060112051 25.095584111851856, 217.0644820511982 26.62510400188635, 251.3484359298401 24.977413692444046 M247.37508540190927 25.5440532697736 C246.07489245662453 37.81926662848683, 247.84540272837822 50.57938029562266, 248.283497144644 72.25859694163897 M248.93720030649058 25.540878384133908 C252.71248442824958 42.277254897153796, 251.061944804523 57.678157672597926, 251.58855125822083 73.63999691701939 M247.47085734245357 76.58162188285011 C225.5200976626327 73.12913378747824, 207.73446624227796 74.16279820163565, 188.37830414906108 72.92465681086317 M251.74685805761715 73.686223333751 C233.10632250006933 74.3180230334428, 218.0228954727146 74.89878063441024, 188.19444816459034 75.18466761674651 M192.17969835214097 72.818131116721 C185.7777328225407 53.665752524209054, 188.66167497996054 39.57545152777057, 188.29288549719223 26.38644163268132 M191.18386495300803 76.50473600850515 C191.3504383794491 57.45032049002761, 189.31002661020014 39.94952654611906, 190.06592336485923 25.57897514126527" stroke="var(--fade-box-line-color)" stroke-width="0.5" fill="none"/></g><text x="81.4" y="55" style="font-weight:bolder; font-size:22px; fill:var(--fade-text-color); fill-opacity:0.4; font-style:italic; " class="id">id10</text><text x="220" y="55" style="font-weight:bolder; font-size:22px; fill:var(--fade-text-color); fill-opacity:0.4; " class="type">str</text></g></svg>