<svg data-theme="dark" width="285" height="217" xmlns="http://www.w3.org/2000/svg"><title>Python memory model diagram showing objects</title><style>
        :root {
        --fade-text-color: rgb(0, 0, 0);
        --hide-text-color: white;

        --highlight-value-text-color: rgb(27, 14, 139);
        --highlight-id-text-color: rgb(150, 100, 28);

        --highlight-box-fill: yellow;
        --highlight-box-line-color: rgb(0, 0, 0);

        --fade-box-fill: rgb(247, 247, 247);
        --fade-box-line-color: gray;

        --hide-box-fill: white;

        --primitive-value-color: rgb(27, 14, 139);
        --id-text-color: rgb(150, 100, 28);
        --default-font-size: 20px;

        --highlight-object-fill: rgba(255, 255, 0, 0.6);
    }

        text {
            font-family: Consolas, Courier;
            font-size: 20px;
        }
        text.default {
            fill: rgb(0, 0, 0);
            text-anchor: middle;
        }
        text.attribute {
            fill: rgb(27, 14, 139);
            text-anchor: start;
        }
        text.variable {
            fill: rgb(0, 0, 0);
            text-anchor: start;
        }
        text.id {
            cursor: auto;
            fill: rgb(150, 100, 28);
            text-anchor: middle;
        }
        text.type {
            fill: rgb(27, 14, 139);
            text-anchor: middle;
        }
        text.value {
            fill: rgb(27, 14, 139);
            text-anchor: middle;
        }
        path {
            stroke: rgb(0, 0, 0);
        }
        .highlighted path {
            fill: var(--highlight-object-fill) !important;
        }
    
        [data-theme="dark"] {
            --highlight-value-text-color: #110875;
            --highlight-id-text-color: #6e4409;

            --fade-text-color: #BBBBBB;
            --hide-text-color: #121212;

            --highlight-box-fill: #EDB926;
            --highlight-box-line-color: #FFFFFF;

            --fade-box-fill: #2C2C2C;
            --fade-box-line-color: #666666;

            --hide-box-fill: #121212;

            --highlight-object-fill: rgba(72, 207, 173, 0.3);
        }
        [data-theme="dark"] text.default,
        [data-theme="dark"] text.variable {
            fill: rgb(224, 224, 224);
        }
        [data-theme="dark"] text.attribute,
        [data-theme="dark"] text.type,
        [data-theme="dark"] text.value {
            fill: rgb(144, 164, 237);
        }
        [data-theme="dark"] text.id {
            fill: rgb(255, 183, 77);
        }
        [data-theme="dark"] path {
            stroke: rgb(204, 204, 204);
        }
</style><g><title>Group of 1 objects</title><g role="graphics-object"><title>Str id43 with value "David is cool"</title><g id="object-0"><path d="M24.99883923800878 25.276058725675124 L248.19175854722687 25.196624265566243 L247.86094544537926 155.38693171394237 L24.61361471863175 155.1683576860778" stroke="none" stroke-width="0" fill="var(--highlight-box-fill)"/><path d="M25.228637437706553 25.161455546795853 C113.91351178082758 25.040544957317785, 202.16286754743675 24.88633323889642, 248.08879223195223 24.718053746215816 M25.031482024106385 25.035863777748244 C85.57663420562037 25.06110985769814, 146.44487232977684 25.005034446379977, 247.90970274153236 24.844656543789867 M248.02464754113277 24.87120468614353 C248.145596757652 51.279966870053116, 247.69629771376282 76.809134686223, 248.07661367314427 155.0336685342033 M248.0062674384194 25.044545007962782 C248.17667989724924 72.8190931916401, 247.91383027340768 120.96153952306956, 248.12516851731127 154.92197624832568 M247.8216160319779 154.97603795922745 C173.07445250097697 155.06119961623583, 98.07238385129942 154.79138397349172, 24.801007193356973 155.2832338026805 M248.04926072063975 154.89693739625224 C188.7013968535493 154.71011128573898, 129.39721274220065 154.60900005621824, 25.163758420353442 154.89362786484568 M25.322743548494575 154.78293539218566 C24.69093139238971 127.28828983725279, 24.965412495726735 99.4905976805792, 25.377278175371185 25.244205781311514 M25.07255026484149 154.82317559734577 C24.77133898938269 124.63050014264903, 24.78637980471001 94.09184707063942, 25.131345015641937 24.87020568238504" stroke="var(--highlight-box-line-color)" stroke-width="4" fill="none"/></g><g><path d="M17.428375874339352 17.571993163364933 L253.02481960953222 19.76157752739303 L252.24735975079096 162.4367591824453 L17.930308311574684 161.8347613012101" stroke="none" stroke-width="0" fill="none"/><path d="M17.40962546273845 18.254315100606256 C85.6706944154586 18.67219762665663, 152.3859420974281 17.24800627722797, 254.76775781561227 20.02002720545986 M18.90444674769647 19.020219177103485 C112.01883882634179 19.261833655634778, 204.22337972141753 19.368078347999262, 253.73232203061198 19.489796892954402 M253.32512438790624 20.174057942061623 C253.61559417325282 64.30862653131575, 253.56964863850493 112.73452483236412, 255.11115027265686 162.0955033745801 M254.4446013536844 18.13783951372508 C254.5649991046799 61.30910694160803, 255.33205437060053 102.48627984733169, 254.27188952081514 161.39567268757844 M252.74262008654122 161.6675837406752 C179.25478263993892 160.3204879220014, 104.08256514373558 163.25539515491104, 20.3262755225958 159.5613639089619 M254.2804103310005 161.33926306465852 C186.22141348088718 162.09076499949336, 118.91991925625605 163.24616353286294, 19.172429595266035 160.37697072948825 M18.23229888801601 160.8187784232377 C16.818381750753588 123.54103786270363, 17.92203113542152 83.66775812852178, 20.155330246749266 20.751761219161406 M19.451705595422734 160.46705772102058 C18.377283981870065 122.13043903332323, 19.160569230449113 84.98041033086436, 19.855718040547046 19.28684516598497" stroke="rgb(0, 0, 0)" stroke-width="1" fill="none"/></g><g><path d="M24.69448020462871 24.66486470371501 L87.63182432682578 25.349862260036957 L87.81312552761642 75.2740764366287 L25.08475063167501 74.95768301445032" stroke="none" stroke-width="0" fill="none"/><path d="M24.82070072486444 24.76827748021013 C45.066437875853396 25.19694773889368, 64.86337563394574 25.209226692531953, 87.93031380437279 25.211429286695708 M24.936687561422858 25.04896143763121 C42.82346003642724 25.133467339112023, 60.82834221385114 24.967859455343984, 87.74813546664697 24.888873303844164 M87.42544717134355 24.700432893722436 C88.23098636345537 44.73932170770651, 87.53164343008488 64.4435166089036, 87.63963939485708 75.38605698099546 M87.94689862752544 24.9688241054901 C88.02031457410877 37.23321614646528, 87.8421415600185 49.199901247729336, 87.95304805977607 75.05695069004746 M87.6473138467122 74.65308947571673 C66.41960441701998 74.92196349776638, 44.13695639362215 75.22175249157135, 24.666641394927165 75.3377143210196 M87.93114678542352 74.84689736880364 C69.12572877913402 75.16702782637404, 50.334922066489604 74.91373888818785, 25.045808343208723 75.04436045195087 M25.16544748754749 74.65872068178507 C24.640376501666477 58.292509289875255, 24.74735511837226 40.87250529993896, 25.226713232082854 24.669432234259553 M24.997881081103984 75.0630190646041 C25.150986272304937 57.83010270509962, 24.91250330218649 40.64664626092374, 24.95613531488869 25.09654219114629" stroke="var(--highlight-box-line-color)" stroke-width="4" fill="none"/><text x="56.4" y="55" style="font-weight:bolder; font-size:22px; fill:var(--highlight-id-text-color); font-style:italic; " class="id" aria-describedby="desc-0">id43<title id="desc-0">Object id</title></text></g><g><path d="M188.26696050918494 25.06714525619244 L248.35660616831865 25.355048521974865 L248.20840184732947 74.61915857383968 L187.66059683261744 74.68674011771311" stroke="none" stroke-width="0" fill="var(--hide-box-fill)"/><path d="M188.28760358162384 24.828741893323972 C204.9849094991771 25.13253030876974, 222.74725096323954 24.816910009822085, 247.65007065495982 25.354513812982198 M187.95298272178673 24.825335334027642 C211.06745136881935 25.129323126347348, 234.0923180617976 25.12193692961851, 248.1311096386747 25.070751332466763 M248.20485489698152 24.850384365003965 C247.82341682946125 35.21968533462801, 247.73138072201144 45.56435850563351, 247.96146860173306 75.07131305735324 M248.1921150951778 25.110976887131354 C247.76962021281219 37.14043242395158, 247.9575427691995 49.06978325202054, 248.14716184395778 74.9429537134705 M248.22025282207184 75.2283235081484 C229.75760622369984 75.00192913146368, 211.66594882136914 75.01846191746037, 188.38371556259162 75.31223722429618 M248.16427046808315 74.98212445871609 C224.25663644034876 74.90280939950354, 200.50644961184935 75.07189940549365, 188.06053153245958 74.97451291901882 M188.2663484260041 75.1676655565743 C187.98395574219742 64.75359209731009, 188.16799959553637 53.72501450321063, 187.74331264195112 24.82791676094442 M188.03505321078592 75.19698085715451 C187.95694462127224 61.06577125150759, 188.24878079370148 47.15859522793165, 187.9186710568277 24.916735069071045" stroke="var(--highlight-box-line-color)" stroke-width="4" fill="none"/><text x="218" y="55" style="font-weight:bolder; font-size:22px; fill:var(--hide-text-color); fill-opacity:0; " class="type" aria-describedby="desc-1">str<title id="desc-1">Object type</title></text></g><text x="136.5" y="115" style="font-weight:bolder; font-size:22px; fill:var(--highlight-value-text-color); " class="value" aria-describedby="desc-2">"David is cool"<title id="desc-2">Value</title></text></g></g></svg>