<svg width="285" height="217" xmlns="http://www.w3.org/2000/svg"><title>Python memory model diagram showing objects</title><style>
        :root {
        --fade-text-color: rgb(0, 0, 0);
        --hide-text-color: white;

        --highlight-value-text-color: rgb(27, 14, 139);
        --highlight-id-text-color: rgb(150, 100, 28);

        --highlight-box-fill: yellow;
        --highlight-box-line-color: rgb(0, 0, 0);

        --fade-box-fill: rgb(247, 247, 247);
        --fade-box-line-color: gray;

        --hide-box-fill: white;

        --primitive-value-color: rgb(27, 14, 139);
        --id-text-color: rgb(150, 100, 28);
        --default-font-size: 20px;

        --highlight-object-fill: rgba(255, 255, 0, 0.6);
    }

        text {
            font-family: Consolas, Courier;
            font-size: 20px;
        }
        text.default {
            fill: rgb(0, 0, 0);
            text-anchor: middle;
        }
        text.attribute {
            fill: rgb(27, 14, 139);
            text-anchor: start;
        }
        text.variable {
            fill: rgb(0, 0, 0);
            text-anchor: start;
        }
        text.id {
            cursor: auto;
            fill: rgb(150, 100, 28);
            text-anchor: middle;
        }
        text.type {
            fill: rgb(27, 14, 139);
            text-anchor: middle;
        }
        text.value {
            fill: rgb(27, 14, 139);
            text-anchor: middle;
        }
        path {
            stroke: rgb(0, 0, 0);
        }
        .highlighted path {
            fill: var(--highlight-object-fill) !important;
        }
    </style><g><title>Group of 1 objects</title><g role="graphics-object"><title>Str id43 with value "David is cool"</title><g id="object-0"><path d="M24.97570840170093 24.63586392524278 L248.21960808821825 25.035000350345115 L247.96798412528017 155.06818174538705 L25.322643091970058 154.88828460525238" stroke="none" stroke-width="0" fill="var(--highlight-box-fill)"/><path d="M24.9719099425565 24.92201890397798 C71.0166172272885 24.684884443984853, 117.6664260772585 24.605231459382367, 248.0668701562137 25.017505885322578 M24.925001606099357 25.093495977830568 C75.74683608865405 24.910216293540444, 126.26752290286873 25.11636029169358, 248.1459848411235 24.941523169530846 M247.64276219166356 25.12187070777949 C247.65877577198398 74.5215779769211, 247.80407622579295 124.98434996528266, 248.35159649340608 155.31504354031983 M248.19558643640136 25.125474788877685 C247.8644415013205 74.55975835182299, 247.90826292548823 123.98667673829408, 248.13678277813568 155.10039367181707 M248.01445694176925 155.07807090971926 C188.33604708418918 154.8930193024754, 128.75089898246605 154.61725562028502, 25.324781952081636 154.768845078015 M247.93186896698967 154.8532930175478 C166.9399226228042 155.0968872098496, 86.08753505568532 155.21971718214274, 25.030315124990718 154.95925859118074 M25.350502572310063 155.0173159291496 C24.771814226397034 105.5816111814635, 24.936676954940335 55.97249180916306, 25.394077539611217 25.06153284533392 M25.01825401723779 155.14352930780757 C25.076599544392547 118.28319989392702, 25.07390458467989 82.09636724043769, 25.06472370384459 25.17500232051298" stroke="var(--highlight-box-line-color)" stroke-width="4" fill="none"/></g><g><path d="M19.928762447511307 17.856114726742913 L254.91976795979605 17.369078925878625 L255.46698495862634 161.25239770552992 L18.196851256051005 162.88574225465757" stroke="none" stroke-width="0" fill="none"/><path d="M17.92691596543425 20.650019430728094 C110.29652323808952 20.59769300699371, 197.62961095258765 19.77136775969318, 252.80911382544753 19.417178469480007 M19.625514118970067 18.76907880128814 C74.21673155013664 18.15535476966175, 128.7973471166526 18.730188985689033, 254.5463198557734 18.943934414384497 M254.89541151157567 18.122423413064276 C256.1729694099556 64.62572836520728, 253.92229985850364 110.57344980431084, 252.02819108771953 162.6482288975642 M254.8428541106185 18.42659886933565 C252.74954740243015 64.9247869907289, 252.8493649011436 111.28166582047982, 254.21445759938825 161.55910105247793 M253.70387462577858 161.93879576053126 C178.41527353306253 161.03827535702908, 102.2287997717895 161.9042865894563, 19.284024148563294 160.5036684352483 M254.49941762479386 160.61912557921798 C197.18869172421472 161.9115560344555, 139.55124666333464 162.120856123077, 19.579156717017504 161.49715399760862 M18.833358162638543 160.79729079852515 C18.99050001240265 123.3665325529337, 20.8696000759696 86.6075858254703, 17.85589548499356 18.118678767636652 M19.436479314726444 161.89080318385504 C20.509723282991317 129.3760365997814, 19.616790208869283 98.03325730743254, 19.05416927452965 18.465989859770485" stroke="rgb(0, 0, 0)" stroke-width="1" fill="none"/></g><g><path d="M24.836264164972377 25.040759179741045 L87.41446015916416 24.862911306897303 L87.77357722783121 74.7707344133527 L25.041016654684558 74.97367990466448" stroke="none" stroke-width="0" fill="none"/><path d="M25.399057548643874 25.236983589654475 C45.03353601090656 25.119769556976095, 64.86858285909072 24.782808135419145, 88.18962000742223 25.367609995392137 M25.180016760648524 25.11651611779103 C45.630273810355845 25.283552470144016, 66.32971749238192 24.92318243222019, 87.71472265756927 24.92343841006848 M87.69961753942754 25.056732850799467 C88.05758096322049 44.48876574502187, 87.71715817093694 62.98585783551043, 87.45290009240067 74.90281632317576 M87.71237849953957 24.80883586283999 C87.98169617121803 40.16718157618738, 87.80270533492136 55.34154935242295, 87.89834661136445 75.18245036013867 M87.40261069071634 75.11887424580807 C71.76487741890611 74.76610272715614, 56.77576290274718 75.31596603228698, 25.12605683164637 74.6451816836098 M87.63991220025073 75.06155308548024 C73.97330246108797 75.10748495632622, 60.15299680057845 75.01902316857345, 24.99570576057383 74.8965981607608 M24.921802025029532 74.99021690387096 C24.94788638913924 61.39418656446801, 24.74705913015859 47.85022899661898, 24.610310477738324 25.170081678693727 M25.09005613555684 74.97947171258691 C25.08665683693176 61.91011121765229, 24.93459008166305 49.025836843165976, 24.850674926331898 24.89912059377818" stroke="var(--highlight-box-line-color)" stroke-width="4" fill="none"/><text x="56.4" y="55" style="font-weight:bolder; font-size:22px; fill:var(--highlight-id-text-color); font-style:italic; " class="id" aria-describedby="desc-0">id43<title id="desc-0">Object id</title></text></g><g><path d="M187.63490417504204 24.676832080781967 L247.92036594943076 25.288556064020355 L248.33681939285378 74.61126615554718 L187.7838536093127 74.60688688586754" stroke="none" stroke-width="0" fill="var(--hide-box-fill)"/><path d="M188.0239489324893 25.373465227483422 C202.32542040816392 24.719321769040338, 216.86057369567968 24.991350942315687, 248.33835900064344 24.928036314260112 M187.83598661572995 25.185967993443157 C206.64406411021466 24.932997437870316, 225.56261755591458 24.844199387493223, 248.0557094927372 24.913610781280205 M247.6862814897398 24.85330827820995 C248.12370910897252 41.649552505842315, 247.86768966999466 58.625629915771604, 247.6758736172383 75.33343676014472 M247.86860615297698 25.11524221537765 C248.21327191667137 36.49140574035241, 248.18625701241166 47.78376287127011, 247.99494636933855 75.08012461061193 M247.76899913673094 74.73101308759433 C229.12973116780884 74.73160034214831, 210.1373692742746 75.46971283668842, 187.7280586741447 75.17930759687115 M247.98309414265162 74.97867232262804 C232.92402101168858 75.04983826458312, 217.66820737786767 75.01627552265667, 188.19058171997813 75.15824311419696 M188.33616702256003 74.93280254443425 C188.4200347468516 64.47085440709998, 188.29014467720103 54.45858086919925, 188.32752054048356 24.693177233597247 M187.82610330178932 74.81645929641489 C188.11989462149296 62.55328886316566, 187.89797313920917 50.098540581366464, 187.83690981431315 25.12790295792037" stroke="var(--highlight-box-line-color)" stroke-width="4" fill="none"/><text x="218" y="55" style="font-weight:bolder; font-size:22px; fill:var(--hide-text-color); fill-opacity:0; " class="type" aria-describedby="desc-1">str<title id="desc-1">Object type</title></text></g><text x="136.5" y="115" style="font-weight:bolder; font-size:22px; fill:var(--highlight-value-text-color); " class="value" aria-describedby="desc-2">"David is cool"<title id="desc-2">Value</title></text></g></g></svg>