<svg data-theme="dark" width="310" height="217" xmlns="http://www.w3.org/2000/svg"><title>Python memory model diagram showing objects</title><style>
        :root {
        --fade-text-color: rgb(0, 0, 0);
        --hide-text-color: white;

        --highlight-value-text-color: rgb(27, 14, 139);
        --highlight-id-text-color: rgb(150, 100, 28);

        --highlight-box-fill: yellow;
        --highlight-box-line-color: rgb(0, 0, 0);

        --fade-box-fill: rgb(247, 247, 247);
        --fade-box-line-color: gray;

        --hide-box-fill: white;

        --primitive-value-color: rgb(27, 14, 139);
        --id-text-color: rgb(150, 100, 28);
        --default-font-size: 20px;

        --highlight-object-fill: rgba(255, 255, 0, 0.6);
    }

        text {
            font-family: Consolas, Courier;
            font-size: 20px;
        }
        text.default {
            fill: rgb(0, 0, 0);
            text-anchor: middle;
        }
        text.attribute {
            fill: rgb(27, 14, 139);
            text-anchor: start;
        }
        text.variable {
            fill: rgb(0, 0, 0);
            text-anchor: start;
        }
        text.id {
            cursor: auto;
            fill: rgb(150, 100, 28);
            text-anchor: middle;
        }
        text.type {
            fill: rgb(27, 14, 139);
            text-anchor: middle;
        }
        text.value {
            fill: rgb(27, 14, 139);
            text-anchor: middle;
        }
        path {
            stroke: rgb(0, 0, 0);
        }
        .highlighted path {
            fill: var(--highlight-object-fill) !important;
        }
    
        [data-theme="dark"] {
            --highlight-value-text-color: #110875;
            --highlight-id-text-color: #6e4409;

            --fade-text-color: #BBBBBB;
            --hide-text-color: #121212;

            --highlight-box-fill: #EDB926;
            --highlight-box-line-color: #FFFFFF;

            --fade-box-fill: #2C2C2C;
            --fade-box-line-color: #666666;

            --hide-box-fill: #121212;

            --highlight-object-fill: rgba(72, 207, 173, 0.3);
        }
        [data-theme="dark"] text.default,
        [data-theme="dark"] text.variable {
            fill: rgb(224, 224, 224);
        }
        [data-theme="dark"] text.attribute,
        [data-theme="dark"] text.type,
        [data-theme="dark"] text.value {
            fill: rgb(144, 164, 237);
        }
        [data-theme="dark"] text.id {
            fill: rgb(255, 183, 77);
        }
        [data-theme="dark"] path {
            stroke: rgb(204, 204, 204);
        }
</style><g role="graphics-object"><title>Str id43 with value "David is cool"</title><g id="object-0"><path d="M50.1398066356888 25.287401405852645 L273.1490395400592 25.02636098718791 L272.8363857673402 154.958733910696 L49.8195669647964 154.66071540411252" stroke="none" stroke-width="0" fill="var(--highlight-box-fill)"/><path d="M49.982289723247455 24.860533918333697 C128.03189651907275 24.78090807259264, 205.3183224006621 24.955157579122474, 272.80486517186193 25.05351980152537 M50.01218682332648 25.080234127013505 C116.18993452931618 24.71897436500228, 182.39589528040847 24.575730562405234, 272.87322793889194 24.971942618629452 M272.8944605240585 24.999802115703975 C272.95916898350885 65.15133413322268, 272.74235090559444 104.96541844567257, 273.24889856624486 155.07709267571104 M272.9410124828715 24.974213425694476 C272.83705234176716 63.4793175313973, 272.87155855120824 101.94751630035093, 272.80840252803836 155.0753700670632 M273.002153318668 155.17604819803563 C207.7269740299206 154.5947085699914, 142.29138907739267 154.57210551331437, 50.159355866533744 155.2053956027065 M273.05583046794715 154.8998473606061 C216.8979220623135 154.91217722850794, 160.89164262294466 154.72249661199115, 50.03844270495069 154.89036875808006 M49.81844656321865 154.84323805568528 C49.7981706391036 116.87087802872655, 49.96622190034175 78.80843260720336, 50.21699709349465 25.194917999214685 M50.01766794570615 154.82554492716446 C49.99850247902688 119.19025172293509, 50.001294456933735 83.33660806487791, 49.85885003235491 24.94542678660582" stroke="var(--highlight-box-line-color)" stroke-width="4" fill="none"/></g><g><path d="M44.07481032214414 19.775440890511828 L279.1158021427706 19.388653602612738 L279.9016545526848 162.40059326734828 L45.06708461858789 159.70768365382497" stroke="none" stroke-width="0" fill="none"/><path d="M44.96187002697145 19.993496238865344 C129.54897240338656 19.411957103294256, 213.7525915718278 16.891689482201926, 280.49519796065977 17.86540196905103 M43.895840633140104 19.037235474153405 C120.74912845583886 19.50087685707092, 196.847158944623 19.013801197582705, 279.05672780496093 19.472241750077174 M277.07442842171037 20.94236133471185 C281.2652499680929 70.11522540662578, 279.61620798659214 116.53255044102349, 280.8624671487647 161.23404439268057 M278.74162507976274 19.37020065687294 C279.2053611620954 70.19747259211664, 280.6116840579579 119.16574500865822, 278.24185918376594 161.22207679666425 M280.17582362672306 159.60434007864927 C216.99337362134034 162.53626062377342, 152.77852361890177 162.34951343640583, 45.33308233631782 162.43218158744907 M279.6002659132452 160.2849658693422 C193.3460428646367 162.7349435484299, 107.27412346123421 163.00057079022636, 43.895142204403186 161.6602844711449 M44.158301662285744 161.03051021178257 C43.83808588034409 122.23666422605164, 43.03417517607571 84.57131645793163, 42.641302539085444 20.295514782412578 M44.31575130833489 160.5818931132822 C44.42146402625256 120.84080932116949, 45.74968887625291 80.163681936303, 43.54954530807732 18.746043360801742" stroke="rgb(0, 0, 0)" stroke-width="1" fill="none"/></g><text x="161.5" y="115" style="font-weight:bolder; font-size:22px; fill:var(--highlight-value-text-color); " class="value">"David is cool"</text><g><path d="M50.00494653368669 25.17042139947744 L112.45755740607684 24.840417471547493 L112.83244217220401 75.33136255015569 L50.23632923803629 74.83701767118366" stroke="none" stroke-width="0" fill="none"/><path d="M49.69466297256284 24.756234525778037 C64.50020154551476 25.135189653744575, 79.32722348785042 25.177456452757962, 112.4635234585639 25.373660217858895 M49.828418619753236 25.133307606998457 C70.85940811434364 25.036095425771062, 92.01197153698682 24.82502178814099, 112.90251079318872 24.96950964340714 M112.90323051503644 24.937048360208227 C112.393165823136 40.973260421075956, 112.39523957461988 56.700957554837494, 112.52252410643736 74.84711714947551 M112.98667446617584 24.931255805203943 C112.990885986752 43.936019702467505, 112.73071394408045 62.76738681923038, 112.88788038872131 74.93601185018495 M112.7638745480097 74.6018210695744 C89.57473537796687 74.90800316818392, 67.12606034948227 74.6811308885755, 50.35371749319956 75.22273044812324 M112.9387522277705 75.0646187985582 C92.41919428387402 74.87633374033777, 72.20204762481596 75.03625610325298, 50.0701855581136 74.9823097611086 M49.68542782891977 74.74752216507 C49.87521805368754 62.56445098416833, 50.19801865342952 49.91129096885517, 49.91736755355827 24.673840063415213 M49.958534415750265 74.89746826709388 C49.91856282369312 60.08958102329064, 49.8995662681551 45.109142418072864, 49.987534131102926 25.130974818336426" stroke="var(--highlight-box-line-color)" stroke-width="4" fill="none"/></g><g><path d="M213.03363887028266 24.616939399037477 L272.8448949582723 25.08451316961593 L273.1914024741989 74.73076201078504 L212.9387072535306 74.66687291296691" stroke="none" stroke-width="0" fill="var(--hide-box-fill)"/><path d="M212.64879388368033 25.11196511879324 C235.7032447864194 25.168036648132723, 258.257824215555 24.823367965836177, 272.9261964264725 24.72005292458383 M213.0871909558926 24.882317832305578 C230.23557437745154 25.15743998817582, 247.8971836250784 24.91423150471471, 273.18573891047095 25.06498794767589 M272.7550124885438 25.108620659187082 C273.0133978399664 44.900802302326305, 273.1751766621217 64.7334121702207, 273.35995329134795 74.82109962846404 M273.11807708844884 25.116105525242723 C273.19669119968046 36.324851601881065, 272.828285555165 47.62345868519306, 272.8106091619781 75.11218526385854 M272.68602310152323 74.95237306447183 C253.6272588797315 75.1536738947033, 233.6350558299568 75.18830086368752, 212.8132816847497 74.86429584592788 M273.04372604543715 75.06426679776845 C252.98315423427476 74.980497998837, 233.16158550585052 74.82254251372386, 213.1756545013429 75.10787868917956 M213.1191418354212 75.25448681585904 C213.0351549352847 57.67185783245802, 212.6846580840311 40.35026907706909, 212.63641813956716 25.07509340392914 M212.88600816526005 74.91964414486999 C213.19035267989545 55.87023041021706, 213.00559613525812 36.59335884432943, 212.9542066905638 25.185381466145426" stroke="var(--highlight-box-line-color)" stroke-width="4" fill="none"/></g><text x="81.4" y="55" style="font-weight:bolder; font-size:22px; fill:var(--highlight-id-text-color); font-style:italic; " class="id">id43</text><text x="243" y="55" style="font-weight:bolder; font-size:22px; fill:var(--hide-text-color); fill-opacity:0; " class="type">str</text></g></svg>