<svg width="310" height="217" xmlns="http://www.w3.org/2000/svg"><title>Python memory model diagram showing objects</title><style>
        :root {
        --fade-text-color: rgb(0, 0, 0);
        --hide-text-color: white;

        --highlight-value-text-color: rgb(27, 14, 139);
        --highlight-id-text-color: rgb(150, 100, 28);

        --highlight-box-fill: yellow;
        --highlight-box-line-color: rgb(0, 0, 0);

        --fade-box-fill: rgb(247, 247, 247);
        --fade-box-line-color: gray;

        --hide-box-fill: white;

        --primitive-value-color: rgb(27, 14, 139);
        --id-text-color: rgb(150, 100, 28);
        --default-font-size: 20px;

        --highlight-object-fill: rgba(255, 255, 0, 0.6);
    }

        text {
            font-family: Consolas, Courier;
            font-size: 20px;
        }
        text.default {
            fill: rgb(0, 0, 0);
            text-anchor: middle;
        }
        text.attribute {
            fill: rgb(27, 14, 139);
            text-anchor: start;
        }
        text.variable {
            fill: rgb(0, 0, 0);
            text-anchor: start;
        }
        text.id {
            cursor: auto;
            fill: rgb(150, 100, 28);
            text-anchor: middle;
        }
        text.type {
            fill: rgb(27, 14, 139);
            text-anchor: middle;
        }
        text.value {
            fill: rgb(27, 14, 139);
            text-anchor: middle;
        }
        path {
            stroke: rgb(0, 0, 0);
        }
        .highlighted path {
            fill: var(--highlight-object-fill) !important;
        }
    </style><g role="graphics-object"><title>Str id43 with value "David is cool"</title><g id="object-0"><path d="M50.12341804842776 25.078350816747115 L272.9936949981718 24.74656370060846 L272.88808556169215 155.0951127933893 L49.89429870710707 154.61436536493127" stroke="none" stroke-width="0" fill="var(--highlight-box-fill)"/><path d="M49.96133735999757 24.85922397293082 C101.11038828764468 25.576232962327552, 152.9480492221987 25.577065311611065, 273.1678953749813 24.79572060676563 M50.01628590761297 25.00819872919043 C129.82206973170418 25.286187920724917, 209.58039406499958 25.229338843551346, 272.9824889169367 25.06034620269609 M273.10201657364934 25.13478949881097 C273.14603248342615 64.00954018290605, 272.7710042643326 103.5682608642851, 272.8910253968595 154.97305479909355 M272.88578598109484 25.02376247204934 C273.2735330000576 54.15557640308671, 273.1726054917097 83.28649037454538, 273.10184865076326 154.87525104270927 M273.17998648955165 154.7273010793447 C222.69629266465176 155.04240933473926, 172.18431823078342 155.52314867193044, 49.94832641016608 154.90469851255787 M273.15584528951854 154.8418731854194 C205.8573357265207 154.72834169835866, 138.6658251253558 154.623737398985, 49.92233581163721 154.93614355005744 M50.05256108752808 154.74125306216746 C49.99137438703119 116.09330462237857, 50.241853681951575 77.83981177927731, 49.742403073423446 24.952013848861984 M49.95019219716809 154.8080319648599 C50.300426132714485 105.75991446966968, 50.289681494136694 56.519834457937776, 49.91904519249043 25.15368168629518" stroke="var(--highlight-box-line-color)" stroke-width="4" fill="none"/></g><g><path d="M43.26326925929361 19.533377421499804 L280.3462191314007 20.323559106790647 L280.7650556311414 159.46087466411294 L45.29000484762461 162.45198539479122" stroke="none" stroke-width="0" fill="none"/><path d="M43.60405169936758 19.97161364032229 C105.51259638220752 22.131024389286054, 167.081445640656 20.533174780701962, 279.5460923041727 20.214943388674392 M43.48408517760157 18.87809358912089 C122.02058344652978 17.942603296447285, 199.9422965343086 19.21637919182806, 278.5741601429804 18.649347107006477 M280.9747024011936 18.138578327864646 C277.6063696373503 64.67370400218748, 278.58122688486486 113.07499709379584, 277.60962432133084 160.60692152316085 M278.3523035207891 18.309664930442842 C279.4491095186337 62.392610096429856, 280.61753320293883 104.43960428107147, 279.81846674608573 160.62215271970564 M279.6361946218807 161.65545954649556 C206.73367251550064 160.33064449516826, 132.62490480982373 160.23731725615147, 44.88487960303746 159.6426053396424 M278.189513943759 160.18808866413943 C218.36385730629576 160.54797584275826, 158.5780434192561 159.90548948834422, 44.702319531617235 160.61625940963802 M44.89891142472795 160.7905393192199 C42.923901243103046 105.61854998040445, 43.943865032756776 49.954564973431445, 45.12005304205686 17.640045088497843 M44.96266346980659 161.10322964325204 C45.41010918266423 129.5776821770137, 44.904078448181586 97.37635423511034, 44.0296818156384 18.90829956355983" stroke="rgb(0, 0, 0)" stroke-width="1" fill="none"/></g><text x="161.5" y="115" style="font-weight:bolder; font-size:22px; fill:var(--highlight-value-text-color); " class="value">"David is cool"</text><g><path d="M50.204804261212786 24.76291190586328 L113.00314619118858 24.62085742486649 L112.71799990029531 75.18256720044587 L49.9327539167632 75.00808900092686" stroke="none" stroke-width="0" fill="none"/><path d="M49.615590021559555 24.76825259669723 C68.96706017571358 25.045736130265116, 88.84882466597264 24.852037188437812, 112.7248349132649 25.37058590370579 M49.873533888792416 24.936150813296415 C69.91240687263607 25.01306079508356, 89.81662410786898 24.896245077407666, 112.87765482582137 25.108071517425522 M113.1604389051072 24.972215593407682 C112.53537246655486 38.71484186448445, 112.61503018812418 52.18685937876006, 112.68834499850804 75.17784242439862 M112.6450693719581 25.09469487457949 C112.95689382981678 38.467823941034816, 113.05025361252693 51.509637630924615, 112.83819152613091 75.01363245025837 M112.75570502310663 74.80040899630298 C91.53502540604167 75.31685433581619, 69.9454239468928 75.03222302735199, 49.839529355333674 75.18300604309349 M112.75211543539938 75.03940470684324 C90.0560886385766 74.80838613592702, 67.35616006275595 75.06038136080184, 50.02312971792238 74.98737145949289 M49.60529478867472 74.80797885803759 C49.74370288096107 55.2792376065564, 49.954660081061405 34.872674146650276, 50.03572616662722 25.07502118054961 M49.87772828676354 74.9915835143495 C49.996035953486306 55.81507942436457, 49.939312278047524 36.386411839254414, 49.908193523535196 25.126231436703808" stroke="var(--highlight-box-line-color)" stroke-width="4" fill="none"/></g><g><path d="M212.92164746084538 25.39691277760282 L273.1625844172797 24.950863574170818 L273.09022439443373 74.94744076867319 L212.9470607388739 75.16971757055461" stroke="none" stroke-width="0" fill="var(--hide-box-fill)"/><path d="M213.33551607277684 24.82146025968788 C229.00565852217846 25.375512709274883, 244.99017296639803 24.821931480640107, 273.20644873556273 25.301321354782175 M212.90737134493074 25.023411838278328 C225.58668542703003 25.250359716085814, 238.0777243452176 24.918012987114484, 273.1082094572531 24.898430963306055 M273.13661697215036 25.13624547267154 C273.13267815983653 39.50051853391335, 272.82742288213 53.15200188344846, 273.20283227972624 75.32980499798336 M273.17840008126973 25.085390855907495 C272.99782389803005 40.990306357674996, 272.99024134380437 57.41556106681104, 272.9485113190483 74.81787212411425 M272.77112292585446 75.01937093819045 C255.8413936391746 74.7630453581247, 238.36445480444345 75.3485912611686, 213.32404310685894 74.88011125261778 M273.1465891968872 74.92183179463532 C254.68025645049266 74.84708991572394, 236.08843721838895 74.88600909367923, 213.08490260724406 74.94157265849807 M212.6117973816642 74.92480293247128 C212.67687694652977 56.629883752995624, 212.91100635979603 38.289005993365485, 212.708638979066 24.970320638550962 M212.87283284051728 75.0899369173986 C212.92758806337517 60.25322597648895, 213.00253200433468 45.472045918898154, 213.11759126807058 25.089970792548236" stroke="var(--highlight-box-line-color)" stroke-width="4" fill="none"/></g><text x="81.4" y="55" style="font-weight:bolder; font-size:22px; fill:var(--highlight-id-text-color); font-style:italic; " class="id">id43</text><text x="243" y="55" style="font-weight:bolder; font-size:22px; fill:var(--hide-text-color); fill-opacity:0; " class="type">str</text></g></svg>