<svg data-theme="dark" width="275" height="375" xmlns="http://www.w3.org/2000/svg"><title>Python memory model diagram showing objects</title><style>
        :root {
        --fade-text-color: rgb(0, 0, 0);
        --hide-text-color: white;

        --highlight-value-text-color: rgb(27, 14, 139);
        --highlight-id-text-color: rgb(150, 100, 28);

        --highlight-box-fill: yellow;
        --highlight-box-line-color: rgb(0, 0, 0);

        --fade-box-fill: rgb(247, 247, 247);
        --fade-box-line-color: gray;

        --hide-box-fill: white;

        --primitive-value-color: rgb(27, 14, 139);
        --id-text-color: rgb(150, 100, 28);
        --default-font-size: 20px;

        --highlight-object-fill: rgba(255, 255, 0, 0.6);
    }

        text {
            font-family: Consolas, Courier;
            font-size: 20px;
        }
        text.default {
            fill: rgb(0, 0, 0);
            text-anchor: middle;
        }
        text.attribute {
            fill: rgb(27, 14, 139);
            text-anchor: start;
        }
        text.variable {
            fill: rgb(0, 0, 0);
            text-anchor: start;
        }
        text.id {
            cursor: auto;
            fill: rgb(150, 100, 28);
            text-anchor: middle;
        }
        text.type {
            fill: rgb(27, 14, 139);
            text-anchor: middle;
        }
        text.value {
            fill: rgb(27, 14, 139);
            text-anchor: middle;
        }
        path {
            stroke: rgb(0, 0, 0);
        }
        .highlighted path {
            fill: var(--highlight-object-fill) !important;
        }
    
        [data-theme="dark"] {
            --highlight-value-text-color: #110875;
            --highlight-id-text-color: #6e4409;

            --fade-text-color: #BBBBBB;
            --hide-text-color: #121212;

            --highlight-box-fill: #EDB926;
            --highlight-box-line-color: #FFFFFF;

            --fade-box-fill: #2C2C2C;
            --fade-box-line-color: #666666;

            --hide-box-fill: #121212;

            --highlight-object-fill: rgba(72, 207, 173, 0.3);
        }
        [data-theme="dark"] text.default,
        [data-theme="dark"] text.variable {
            fill: rgb(224, 224, 224);
        }
        [data-theme="dark"] text.attribute,
        [data-theme="dark"] text.type,
        [data-theme="dark"] text.value {
            fill: rgb(144, 164, 237);
        }
        [data-theme="dark"] text.id {
            fill: rgb(255, 183, 77);
        }
        [data-theme="dark"] path {
            stroke: rgb(204, 204, 204);
        }
</style><g role="graphics-object"><title>Dict id32 with 3 entries</title><desc>Entries: id5: id10, id6: id20, id7: id30</desc><g id="object-0"><path d="M51.32166660213106 26.26205625283497 L249.93894933213656 26.655572543201107 L248.76870710555107 324.25428511296013 L48.88207547558404 326.8883464651828" stroke="none" stroke-width="0" fill="none"/><path d="M49.86585605184378 26.5027959806516 C121.03856844254516 27.98239153037881, 190.4743576935113 26.85283429842082, 249.47793026499744 25.875473237990402 M49.954889904251374 24.35460593876694 C108.44065225517227 25.048563682895278, 166.3174043461263 24.906738029537998, 249.75788797571434 24.921088840141497 M249.2677398487184 26.139488221664987 C246.71723778165943 117.58049654679186, 248.65942213069025 211.50429743947524, 250.87831128377357 324.09639755428054 M249.72820071831407 24.72574256629636 C249.59566913599468 122.34433840050787, 250.60218168166136 221.56052051836323, 249.97120226215276 325.1877044566516 M250.85354235677684 326.0297042995868 C182.51602417263265 323.83008395895286, 114.79119907926894 324.30359866486305, 50.07996861506602 323.9353844151989 M250.56146301829506 324.2919297403866 C177.77131455317166 326.60724546915105, 105.31208015198047 326.41154586137316, 49.70985131422085 325.4931646675738 M50.16007601479878 325.33492037650024 C51.08520696060066 263.2664592623191, 51.01277913853038 199.8480106750469, 50.85867999466223 23.70393895952048 M50.670482156972945 324.7739991699553 C47.36439327410638 247.15225804746035, 47.16739207001067 169.5925429029572, 50.51403425073311 25.453470419231603" stroke="rgb(0, 0, 0)" stroke-width="1" fill="none"/></g><g><path d="M50.361113932685974 25.828775006349794 L111.0963801820607 24.523807083544117 L110.83536342318854 76.1833606349306 L50.45842737632002 76.93891509434587" stroke="none" stroke-width="0" fill="none"/><path d="M49.342749248800665 26.950360739575554 C66.16666028797547 25.871527019979737, 82.44403204733818 26.53984325619392, 109.2223130534834 23.502586243696417 M49.14430124954559 25.60519693863192 C62.62077824105071 25.412048118562907, 77.56960885285022 26.184428986828493, 110.72752185101417 25.01816719045716 M109.45589680303513 24.74079968239781 C109.89024007274367 41.55205551389694, 110.4625121424584 60.595800009007924, 110.783312904016 73.31655433862564 M110.92776689498317 25.66400918167921 C109.44042901549567 44.537718033737534, 111.04508649325837 62.70750173591719, 110.10710176500831 74.02443303318086 M108.70125855795614 74.41414721986142 C96.46814168427966 73.87137991379598, 83.15060546864092 77.02155525834917, 50.543155704152625 76.60973388054435 M109.40102710114006 74.9056297250802 C95.50303742990319 73.99430270416293, 82.50057399655182 74.11789898467852, 49.06382989899701 74.55761039749348 M48.90330388531697 76.0151073894894 C49.06812484605477 56.87282097758699, 50.78282969511349 36.328395390064685, 49.46882451800899 26.64021596489901 M50.16412419209674 74.5828159240611 C49.54416386119679 59.20767476604125, 50.80049373523136 43.46097592016061, 49.6477726834226 24.090542185072" stroke="rgb(0, 0, 0)" stroke-width="1" fill="none"/><text x="80" y="55" class="id" aria-label="id: id32">id32</text></g><g><path d="M189.4961258262784 24.23348600759006 L248.5425692564501 24.919028801097372 L250.40364539947285 76.89446692583846 L191.03480035591733 76.15997454752326" stroke="none" stroke-width="0" fill="none"/><path d="M190.0417512397455 25.8200405463103 C207.15769046360148 24.47563115105914, 226.63703855113346 26.55866323482492, 251.30620212029677 23.726417097082873 M189.98148429031409 25.244846092009972 C205.78914255036085 24.768627510604226, 221.30787421875982 25.135111352500175, 250.46158534015404 24.857725984054124 M248.99333611715622 24.510799296438663 C248.81874038481988 37.20132041976121, 249.34515434311817 51.648172839080964, 248.63005602906077 74.93779370183383 M249.31620550580953 25.78132242409351 C249.5519593031264 39.80394267650527, 250.23182274952097 56.56818082212736, 250.1875125871598 74.77079400649913 M250.43744321511403 75.60907573642952 C237.5365922099352 75.37325061119243, 225.0906261446395 74.02807882073206, 188.1911893335195 76.05932021730888 M250.71621531356837 75.75831256355129 C235.30829065616538 75.42629979219234, 219.02954672608396 75.06663922663445, 190.12172066218255 75.12930386818888 M189.2248328438746 75.47850789388168 C189.75546088984723 61.660220476314244, 188.81145794560504 47.34533717741334, 190.12080230220107 23.56330525567289 M190.34301891379613 74.99132380164268 C189.17774991545278 58.29667757955054, 189.33876105500045 42.57433907402051, 190.3747174728462 25.41321048546086" stroke="rgb(0, 0, 0)" stroke-width="1" fill="none"/><text x="220" y="55" class="type" aria-label="type: dict">dict</text></g><g><path d="M73.36719181284664 100.72756252260328 L125.43757588615024 101.26798529125467 L123.7701303892419 149.15956052085102 L74.2303472566551 150.42582780082734" stroke="none" stroke-width="0" fill="red"/><path d="M73.41036644537527 101.76641579194943 C90.74358552374234 99.51935467850397, 109.71018666585009 100.49682090734898, 123.41160699513408 98.50402431653535 M75.91302569541762 100.38885735230184 C85.71917055417912 99.53471331946821, 98.08985923057962 100.52965291660954, 125.82022871422551 100.30810870237212 M124.47576873634073 101.61763895174049 C124.59813071937859 112.91385389042901, 124.91109909317984 129.29429489240175, 123.08932547709924 148.21441766159037 M124.35507276440364 100.01140802137432 C124.15073347915774 116.94071279745984, 124.3639902772044 135.76175626914187, 125.54636861547313 150.07934564541057 M124.50685375232392 150.180184796186 C114.92172494748203 149.3817206318975, 105.44293677625222 150.94445901012526, 76.68875209393836 150.10253367562981 M124.20523093490269 149.64367913745596 C107.74871538206457 150.1802335972086, 91.37058335938062 149.71448375268744, 74.85919390413628 149.47907700671053 M74.40767227846375 151.12181436376773 C77.04972516838907 132.9869550954831, 76.33761570784598 115.05406075368747, 74.70188703972063 98.55277879823652 M74.37705042122944 150.72050656796782 C74.17393070428085 137.65426891307354, 74.55581445121982 126.93807313670024, 75.17910873165627 100.07898587442646" stroke="#000" stroke-width="1" fill="none"/><text x="102" y="130" class="id" aria-label="key: id5">id5</text></g><g><path d="M169.7895781661275 98.37493628296097 L229.28141699629512 98.44964282443541 L230.36238329477146 151.82173752668785 L171.18137486323775 151.1824769761975" stroke="none" stroke-width="0" fill="none"/><path d="M171.5450305401253 99.69322362858607 C188.14620779439286 100.26506656297947, 208.8410154531703 97.61720203882048, 231.74167299900077 99.61053445261223 M169.57573556915852 100.33914995812631 C184.01068439151467 99.48174349078208, 196.86071704153758 98.72988882319612, 230.52149104934844 99.25211333785153 M229.27870474195808 98.77113854138207 C230.91215409340813 115.54994637022456, 228.29142973337466 126.49491811040616, 230.6889980993428 151.02119993434434 M230.10094657521597 99.85169590181454 C230.77972792981714 113.67264723357188, 230.69741858286312 127.27840527049904, 230.07709017026102 149.47002279615026 M228.57146750271116 149.07268704368275 C213.75310955847004 148.96658873957995, 195.24116688452145 150.1594452082424, 168.95076708211414 149.29212811599868 M229.25517075500682 150.77929638879644 C215.85941247113195 149.40170321707117, 202.15751657778108 150.34175390818285, 170.69052115448008 149.98753629774959 M169.82811614728192 149.60408373773947 C170.4112497193982 135.73749183569836, 169.8809797772996 125.46937279739875, 171.88364953640945 99.59263679459421 M169.00049386369008 149.11063886681492 C169.14875946839578 138.84151097395903, 169.87330777499275 127.86291145448784, 169.20285029512132 99.04182188183559" stroke="rgb(0, 0, 0)" stroke-width="1" fill="none"/><text x="200" y="130" class="id" aria-label="value: id10">id10</text></g><text x="150" y="130" style="" class="default" aria-hidden="true" aria-label=":">:</text><g><path d="M76.12010762592698 175.60928382734159 L125.77071371676156 175.8744528896267 L124.48318259470497 225.5393601872487 L76.72814611148425 223.50527068282412" stroke="none" stroke-width="0" fill="none"/><path d="M74.62900903455966 176.49296676805017 C93.73951269971211 173.27137387694785, 113.42225181924191 176.54025002520348, 125.03611523211205 174.45612441659728 M74.82304092581542 175.76768538633013 C92.417777475348 175.9017593575701, 107.82873079267563 174.72129891357613, 124.52357086185629 175.79183434611897 M126.52920066950416 174.16129215139824 C123.50057601348651 187.99945242662878, 125.50243773963439 201.55923727528392, 123.54284708274054 223.26108187771266 M124.16028521120793 175.33623307389038 C126.17722412211194 184.84380652644361, 126.32874864894607 194.2801221893375, 125.33829958993863 225.7667964398012 M124.01087587293038 223.69941264458112 C107.11753860739302 224.12969296244108, 90.45440341185045 225.59071677944291, 74.49861049875553 224.4122269587514 M125.27969052248193 224.36225180951286 C114.49401182321857 224.86061371127263, 102.64125369487405 225.84958333175032, 74.57965294240412 225.767140986348 M73.87288247273905 223.10330202386638 C75.50051322797917 208.73146181627547, 76.58086541897686 197.32119366109757, 73.79946617868971 175.89525530390853 M75.44641219624889 224.92422642164746 C75.05377932584021 206.10667987753425, 74.85766044960872 186.41360568182262, 75.19021511380036 175.3543812889399" stroke="rgb(0, 0, 0)" stroke-width="1" fill="none"/><text x="102" y="205" class="id" aria-label="key: id6">id6</text></g><g><path d="M170.4063577530132 175.49232153902764 L231.2410162890973 173.75472420573132 L228.80687131827338 224.71867820259973 L171.06899242515934 223.65538048817757" stroke="none" stroke-width="0" fill="green"/><path d="M170.33093940228684 176.4995958933254 C191.78781147286415 173.94135131647135, 212.69961630654473 175.48199928916145, 230.90539646833733 176.01486530288713 M169.05932949190026 174.00115849504198 C190.1071570415811 175.9169978112817, 208.16669932991002 175.105400787499, 230.740554562233 175.71944267947725 M229.02486984378064 173.3733728859938 C228.17749617377842 195.00153946468382, 229.63575545287807 212.9377033453479, 230.1738420996189 223.21755211476423 M229.94747260593306 174.11601026428036 C229.33783029290882 187.43951565973515, 229.37823244301697 201.2734024784467, 230.76657443893 225.84320876445753 M231.88112852528258 226.3434910845825 C216.4494839068211 225.82450068688183, 201.05035123045343 225.80730051068844, 168.72658581013323 223.47757958665917 M230.0008301567815 225.77527121696522 C216.89160339781296 224.8365853922809, 203.4122282544486 223.9339043381317, 170.77418123130127 225.60527520484777 M168.34286783769312 223.63826192602505 C171.40007784515086 213.43101019774255, 169.40267318917165 202.959793395798, 170.88359586156156 174.29810421221438 M170.17942451065446 225.6116981906715 C170.55509455041525 206.87782328010704, 170.94311183814418 190.34098733338857, 169.99465031989217 174.2198519848407" stroke="#000" stroke-width="1" fill="none"/><text x="200" y="205" class="id" aria-label="value: id20">id20</text></g><text x="150" y="205" style="" class="default" aria-hidden="true" aria-label=":">:</text><g><path d="M75.83801414663128 251.88301154372516 L125.27668231088535 251.60688808537904 L125.80246866536591 300.50908229703793 L73.90406187265239 301.1124808163897" stroke="none" stroke-width="0" fill="none"/><path d="M75.39213825513977 249.17670772615207 C94.03820568430436 250.43569677479874, 112.96399170410832 251.41750917457523, 123.86024278125815 251.86563683234644 M74.17570397128438 249.94517197645948 C89.23717302979693 249.6007939335969, 101.59499516370094 250.4543961561221, 125.82439375697474 250.90566681284486 M126.34049214352241 248.52647038050975 C125.32690819355142 265.3072529332972, 126.2456709417869 278.5602575155208, 124.22367484802848 300.66390670466126 M124.61639837984711 250.33066841985976 C125.0197133974775 268.31327491855353, 124.46138099599014 288.3357722876687, 124.9588328743893 300.3630221157755 M124.66630822118606 301.99521956074693 C111.47012698723681 297.7222673139578, 97.46642649463348 298.2683738946533, 76.90744344387892 298.9231614640642 M124.19598448036623 300.427966062478 C107.7242429133434 299.8543452267577, 88.18866517600419 300.0048069915548, 75.12156357889806 299.739863071046 M76.80383036849514 300.162265472577 C72.94714121987779 284.0397506173523, 73.33273021537502 271.05380347787235, 74.8878484267525 249.00789560323403 M74.24837464086967 299.16231381885586 C74.71016438556337 280.4902194383264, 74.78671455265297 261.6519908864543, 75.24516824403793 249.26490129106233" stroke="rgb(0, 0, 0)" stroke-width="1" fill="none"/><text x="102" y="280" style="font-style:italic; " class="id" aria-label="key: id7">id7</text></g><g><path d="M171.79128918890984 251.9903016606825 L228.7041526452354 248.965978591959 L228.7284632890764 298.1257787258471 L169.61193669163953 299.78653150322145" stroke="none" stroke-width="0" fill="none"/><path d="M171.14456520574595 249.84588215697457 C194.31807215585468 247.99389414708622, 214.1951200603684 248.9185867584476, 228.40654537386035 250.51473613813675 M170.46788776764635 249.00952871733958 C190.6851912727989 249.3091430639426, 211.7467579213627 248.7203306714214, 230.99838571014968 249.01392981720858 M231.98250531005937 249.16534791004125 C228.94703859496772 268.43884097245405, 227.79579837539941 289.3352910077552, 228.53426071504632 301.6832765905673 M230.5209578142071 249.95219340607 C229.72906625349108 263.0101454049981, 230.1146539059321 275.91169261518263, 230.29283985793055 300.93353940589196 M229.019697506892 299.9506886947206 C208.5587824196006 301.0668122958636, 184.947865734968 301.70108951839836, 169.33000041698253 298.69514397014206 M230.08247218767045 299.23787102438695 C217.07027617998392 301.32900305217873, 205.6145691295548 300.4419362187945, 170.64003797785628 299.22505730186464 M169.31171575190433 300.60135015197267 C172.07299571253026 286.0356367845707, 168.3439865569618 270.0460101240119, 170.48924226895642 248.1032645353609 M169.64246190752945 299.6179390642259 C170.05114555463223 283.5424471056716, 169.78315468920803 267.1544510920146, 169.6277457709861 249.1756853822817" stroke="rgb(0, 0, 0)" stroke-width="1" fill="none"/><text x="200" y="280" style="font-style:italic; " class="id" aria-label="value: id30">id30</text></g><text x="150" y="280" style="" class="default" aria-hidden="true" aria-label=":">:</text></g></svg>