<svg width="275" height="375" xmlns="http://www.w3.org/2000/svg"><style>
        :root {
        --fade-text-color: rgb(0, 0, 0);
        --hide-text-color: white;

        --highlight-value-text-color: rgb(27, 14, 139);
        --highlight-id-text-color: rgb(150, 100, 28);

        --highlight-box-fill: yellow;
        --highlight-box-line-color: rgb(0, 0, 0);

        --fade-box-fill: rgb(247, 247, 247);
        --fade-box-line-color: gray;

        --hide-box-fill: white;

        --primitive-value-color: rgb(27, 14, 139);
        --id-text-color: rgb(150, 100, 28);
        --default-font-size: 20px;

        --highlight-object-fill: rgba(255, 255, 0, 0.6);
    }

        text {
            font-family: Consolas, Courier;
            font-size: 20px;
        }
        text.default {
            fill: rgb(0, 0, 0);
            text-anchor: middle;
        }
        text.attribute {
            fill: rgb(27, 14, 139);
            text-anchor: start;
        }
        text.variable {
            fill: rgb(0, 0, 0);
            text-anchor: start;
        }
        text.id {
            cursor: auto;
            fill: rgb(150, 100, 28);
            text-anchor: middle;
        }
        text.type {
            fill: rgb(27, 14, 139);
            text-anchor: middle;
        }
        text.value {
            fill: rgb(27, 14, 139);
            text-anchor: middle;
        }
        path {
            stroke: rgb(0, 0, 0);
        }
        .highlighted path {
            fill: var(--highlight-object-fill) !important;
        }
    </style><g id="object-0"><path d="M49.78003658329226 23.526953704488736 L249.9120703526639 26.662002417672365 L249.46126070156154 326.92617526019865 L51.7138248894781 326.8379024924434" stroke="none" stroke-width="0" fill="none"/><path d="M49.09152641472692 25.244294894792894 C105.04796139218112 26.817310318216744, 159.8195359945734 23.711277354107185, 248.63818036454725 25.972402225221902 M49.843677314861374 25.743987570160122 C117.8748840625138 25.756861582050636, 186.42114706574995 25.840633867725636, 249.47817038831394 24.282681761657155 M250.41006011298057 23.639268559331107 C249.49798338846946 88.34147513442953, 249.91188224940947 151.65276712203632, 248.74979880037972 325.07199547912757 M249.48672993346472 24.646843333617316 C252.67977386590184 138.6049486459914, 252.47193577863675 251.3936827101632, 249.37857187273872 325.0252255732228 M249.0589062184798 324.74682897229854 C191.08167685924448 325.097578694295, 130.64653079642147 325.0074315095861, 50.21228967514214 325.5701388678113 M249.41406903103024 325.66711890570696 C186.14634923217207 325.13809405220474, 123.80341211122611 326.041875500086, 50.198065863431886 325.55727514378424 M51.04264542995583 326.35567495675963 C49.43737982990082 243.79148550851238, 48.95876382844204 162.35120826755622, 48.69473900775351 24.246671293156943 M50.44089868367647 325.3938484020266 C49.17435385828432 223.76799073636604, 49.349408878380736 124.07288877486762, 49.84848121170078 24.74642416019393" stroke="rgb(0, 0, 0)" stroke-width="1" fill="none"/></g><g><path d="M74.43350692209967 99.8369600870801 L123.56227305125543 99.8091703162486 L124.40844442339511 150.769299791825 L76.47557506978339 148.9433352109939" stroke="none" stroke-width="0" fill="red"/><path d="M76.43217369105511 98.49305522127928 C93.28281428355187 99.4284712790497, 108.99044664869571 100.03047871712246, 124.80399505165548 99.32568104416603 M75.24523246206529 99.71695026437015 C95.25410647688898 99.6723347780392, 115.09355212224493 99.10079281798598, 125.73016368863566 99.04880780194641 M126.49043517729154 101.71289531695408 C123.9057442631105 110.90058964388497, 125.10538701639398 123.58400933364723, 123.28139646906988 151.2623213338597 M124.46878176330561 99.98609673875066 C125.56013711163381 117.85139862791785, 125.66342982090114 134.80842823418791, 124.02787983257754 150.05940628199457 M124.85367256264053 149.687421517677 C107.22292006676327 150.0523037983829, 87.3018768082561 148.5756905028997, 74.81634437660664 148.83436985057588 M124.68358160706475 150.31189163486346 C113.9646769218501 149.2745897047021, 104.3975640691897 150.5026433952308, 75.77949738305063 149.42052470897622 M74.98430120224953 149.52386301312853 C74.83498426449383 137.87841439388848, 74.62622609268657 124.74847045396778, 76.79800944009638 99.92592818385063 M75.65220115064734 150.5695122047346 C74.66197016086993 135.18951986273095, 75.9194489747571 121.58768065952992, 74.19100205383756 100.33923982566061" stroke="#000" stroke-width="1" fill="none"/></g><text x="102" y="130" class="id">id5</text><g><path d="M75.91879755232843 175.2962559830802 L123.22984035043874 173.15291241842672 L125.96938453887206 224.8616307990713 L74.01053931100141 223.55769447278746" stroke="none" stroke-width="0" fill="none"/><path d="M73.68566274135053 175.57862771259863 C84.75178471960848 175.00150533457779, 96.78771504612882 174.6912280659834, 126.80849308755222 174.70002216283675 M75.32254182509485 175.97752720088772 C90.48056053607621 175.90710771089988, 104.64437129521592 174.6039241540123, 125.29320943410055 175.09358106296557 M125.68797182066615 173.7897771296758 C125.81881946430705 186.4511077076188, 127.01954866621145 194.87190066985738, 125.11754992221071 225.37160706041564 M125.90928119893182 175.3217187372167 C125.29223045796591 187.96972543056015, 124.61000955805956 201.93580849808276, 125.03389197274626 225.35196876339472 M124.56257619657389 226.23343657372843 C105.56828949720887 223.30935556038608, 88.43340089986137 224.77932584865798, 75.33433591353833 226.46333847462208 M124.97690028313853 225.39376572346893 C111.58981862159612 225.63550257775964, 99.59108392394332 226.2572297958186, 74.74392562308039 225.29789434894212 M75.56055599605065 224.14083084516486 C73.30774850165866 216.03295575772864, 72.96339156526766 204.1309417283742, 74.4747291329643 174.17150662914352 M75.01922827947824 225.32751948596396 C74.64179854003683 210.86331231010473, 73.64981212849462 196.98453962124267, 74.74204505537874 175.96808491831175" stroke="rgb(0, 0, 0)" stroke-width="1" fill="none"/></g><text x="102" y="205" class="id">id6</text><g><path d="M75.19812064274235 250.55947544493137 L126.86087600974815 248.21227757867914 L126.08636343301544 298.6180019073526 L76.5745096333492 300.1961890752986" stroke="none" stroke-width="0" fill="none"/><path d="M74.00551165276164 251.84310141876722 C94.66217000685226 251.12280516102447, 111.42872232772106 251.05080566729578, 125.12939704113825 249.67632454596855 M75.08765233345967 250.2839893160061 C94.96820408318813 250.34639284419342, 115.48646969291505 250.53951830961137, 125.41530602512769 250.61023965710777 M126.15326142673136 248.4904824502283 C123.96952223817978 263.53288850174556, 123.90235828450929 273.44700547531824, 123.645508998187 299.09821535080164 M125.1325379434418 249.45089816425573 C124.51127127469096 266.33289631583415, 124.96285406990842 283.64812699967183, 125.61935500473528 300.68764819217716 M123.18103931125039 300.59911958190764 C111.7905393698886 299.5871580350224, 94.954644839923 299.13921683267284, 76.93989118552169 301.63639086134344 M124.03783152380328 300.1578543253167 C109.55924691293635 300.43074302941585, 93.75382356081377 299.9919453239987, 74.57911488613819 300.20469871453406 M73.29110042630201 299.395066600829 C74.32003657220527 285.1114811415061, 75.90217497348287 272.4400231979737, 75.71935262335725 251.90731553587057 M74.45764357576726 299.98543231319644 C75.09176163295609 288.3371562963276, 74.40606897827143 275.44202571860086, 75.41960119672308 249.27528402319268" stroke="rgb(0, 0, 0)" stroke-width="1" fill="none"/></g><text x="102" y="280" style="font-style:italic; " class="id">id7</text><g><path d="M171.67170343577837 101.31192556593368 L231.46901269082423 98.07634641428017 L230.01603572792573 148.83747324438482 L171.37834235403747 149.19901019534905" stroke="none" stroke-width="0" fill="none"/><path d="M171.47148784029332 98.94597900081864 C187.10072586016057 99.37035256692866, 201.16741719287816 100.3963331534035, 230.20734249011056 99.25007277815695 M169.60830601718962 100.54440504729233 C182.72727407952365 99.34629043334621, 195.36236111638885 99.31978458263596, 230.28241582790096 100.16803250384166 M228.22815866444023 100.23205877566032 C231.44551399045557 111.77688316757914, 228.86857943550564 126.88274916198564, 228.74185974236514 150.70623264700635 M230.56706520324602 99.90232906415818 C231.2926058092053 115.7557226154279, 230.67769931432633 130.01953510455886, 230.2594443386121 149.29051826124956 M228.38422035987585 151.39791445705157 C209.68818480134289 151.01809908446606, 189.16698685998446 152.36641237811233, 168.97537385959487 150.09476436043164 M229.82001650854684 149.37765638483995 C217.2862267137128 149.761108364063, 204.25783100197285 150.6603780724364, 170.17879820466086 149.64715474316438 M171.75370705909492 148.28315577556404 C169.38227538357492 135.0192411196564, 168.14418237721088 124.5281347614805, 171.00755468621165 100.06038520120849 M169.16875026317084 149.32851496460006 C170.92734460080496 133.45986731451936, 170.5371253553069 115.22645402033713, 170.4126361824581 99.8282757475052" stroke="rgb(0, 0, 0)" stroke-width="1" fill="none"/></g><text x="150" y="130" style="" class="default">:</text><text x="200" y="130" class="id">id10</text><g><path d="M168.71325667584753 173.50753631813674 L229.55577012581662 174.81237658875122 L228.73698198660693 226.22290352466686 L171.73282864602794 224.97477549081714" stroke="none" stroke-width="0" fill="green"/><path d="M168.63414190696975 175.97510039251344 C183.71340560402035 173.7162969018471, 198.8533663055876 175.7801060211705, 229.28905632704266 173.6839727779032 M170.60085600152405 175.5677055081023 C186.012680902552 174.77428628450053, 202.5511329394752 174.57167475161756, 230.28443552409115 175.11373195240606 M228.63122241949534 175.88940623006096 C228.4623281222782 187.81483344612843, 228.55745738894547 204.39234418912224, 230.74564752485588 225.92359003660076 M229.78572663497715 175.54667656847826 C230.3180337265994 192.36160927004966, 229.96813536339826 210.17713799073496, 230.73401246845256 224.8797268232298 M229.92666417681812 226.17381004222503 C209.24755433247287 226.44809863910592, 186.23111616786014 226.56630784400045, 171.43354393636272 223.47762590022577 M229.53846193150005 225.9285204089718 C217.11054542567186 224.59429848556545, 205.4108535117698 225.44065643857988, 170.3647505529426 224.76296688355674 M170.5192596540101 226.3950871465017 C168.98710402017883 212.42815719167254, 168.99983017678287 196.99424017591812, 168.7452901136624 176.09165876484929 M169.51791801147684 225.39018077757305 C170.12354384206319 208.04945581669958, 170.33119217087767 190.98485866220764, 169.5589472498782 175.5010775468746" stroke="#000" stroke-width="1" fill="none"/></g><text x="150" y="205" style="" class="default">:</text><text x="200" y="205" class="id">id20</text><g><path d="M171.30872516794773 249.5867099033345 L229.0846791027996 250.35499415988986 L230.94143363754313 298.0575266654403 L170.32301290940515 299.53728197026163" stroke="none" stroke-width="0" fill="none"/><path d="M170.46236816749283 251.04499323759185 C193.39018460992048 248.89341929529596, 215.16357989693446 251.40499067184845, 231.00679704011714 251.72169200329523 M170.58453989423052 250.70473744176923 C187.71968834019697 250.9802740375562, 204.52506987769942 251.56312904399527, 229.06045788457757 250.94681668511961 M229.77149166531677 249.12024672086875 C229.4469404683982 263.2321352132149, 228.16084102556962 278.11767268120275, 231.7327718326329 301.38042697735125 M229.20372013531107 249.44506442097722 C230.79984976289666 261.14886497041215, 230.85216768521826 274.1831616446392, 230.91935813921984 300.21578023870364 M231.75492814258982 301.7265104182116 C206.78662764086357 301.35904430311865, 181.99444760793648 300.08499208032816, 170.70327259468706 298.4537605546514 M230.78201076969958 300.3873840095045 C209.7561341938414 298.5291669863123, 189.8467968111143 300.3866703682915, 169.94312190059736 300.32445784464085 M169.37950387520408 300.53142594854177 C168.4507421079998 283.21860296682166, 172.33204950955596 268.4545431233125, 168.86534077056916 248.40983474970852 M169.0212011143954 299.92647052118883 C169.9793894491342 286.7082633244667, 170.11934359676135 274.72531424659815, 169.30530137622893 249.86472063559071" stroke="rgb(0, 0, 0)" stroke-width="1" fill="none"/></g><text x="150" y="280" style="" class="default">:</text><text x="200" y="280" style="font-style:italic; " class="id">id30</text><g><path d="M51.30203506980034 24.660795585066097 L111.94554437252656 24.150120674300922 L109.74150555287514 75.48922239546823 L50.150450932991475 73.07554296073928" stroke="none" stroke-width="0" fill="none"/><path d="M50.19196707972607 25.40272245723932 C68.09146724274125 27.273684263640394, 83.9176962204921 25.248203696949773, 109.8802745566726 25.18339371757281 M50.828828988695875 25.775568287499887 C71.37181175343142 25.699808485373694, 91.3326757417413 24.76015425400373, 110.22877361262728 25.62962660625434 M109.58353079776299 24.934171023540216 C111.5838149981883 38.93800203340833, 109.4383506271689 55.18073545480467, 110.2505770100426 75.2751335882879 M109.80952668594114 25.924209096955884 C108.82138977000623 38.081996480388526, 108.9501456683098 48.965566118267596, 110.7165756047041 75.12350637543558 M110.2552247484887 75.21956384646495 C90.85175665003871 75.92384558990501, 68.84848164578932 76.41725120066012, 50.37472360726962 76.0123633895925 M109.35270155009665 74.83781773679395 C88.30024662801502 74.69120473478388, 67.31025028520175 75.3621404127582, 50.053446687018216 75.56368893092157 M49.36564662421835 74.21149077940966 C49.974539263994515 58.94943656124238, 49.31523683559347 38.27728690970953, 51.86995864453306 23.09298601903757 M49.00764212232507 74.0132573838016 C50.37594351795919 62.88376783217718, 51.0436424807976 50.85419560385084, 50.63516761201972 24.8864981353859" stroke="rgb(0, 0, 0)" stroke-width="1" fill="none"/></g><g><path d="M189.86350807429977 23.936762123268814 L251.52300437872051 25.458276882527905 L251.4849131761903 75.92493389813549 L191.44740139059127 75.95772116418343" stroke="none" stroke-width="0" fill="none"/><path d="M188.85290939086516 23.360858109021397 C208.30785892416245 24.654667055700358, 230.0708701445262 23.479053917640982, 249.41544665837205 24.93676482298308 M190.93913525162063 24.368191464339866 C213.0303079887763 26.004824920394636, 234.84285674677088 25.991092126456103, 249.65596393353388 24.38244598321472 M250.01311613657901 23.31904694559209 C251.42674916414563 44.278621540489475, 250.20313146945406 65.79589658950202, 250.815694280748 75.49324746845852 M250.9026865367942 24.72489267556007 C250.37296904398136 41.32285341364136, 250.2082286432014 56.17490938778272, 249.48171713540515 75.29328399024087 M250.34227400887238 74.97921583626577 C237.87989140668722 73.7475204474018, 221.9371172754229 73.79013286128149, 191.62142255513902 76.7462216081128 M250.153974218713 74.4504558610027 C229.08752033590605 74.24492376385061, 209.03416723846644 75.21440157269366, 190.00457078284276 75.83173831396932 M188.15352817474377 75.11693473846414 C191.48689272133583 55.84682932103788, 191.30204258649266 35.660793275431125, 191.64621907619986 23.89014258512631 M189.83990719509427 75.04904741462339 C190.1592291482447 58.55828925015927, 190.24393179814302 44.28991813622361, 189.2177725681153 25.52936579776945" stroke="rgb(0, 0, 0)" stroke-width="1" fill="none"/></g><text x="80" y="55" class="id">id32</text><text x="220" y="55" class="type">dict</text></svg>