<svg data-theme="dark" width="275" height="375" xmlns="http://www.w3.org/2000/svg"><title>Python memory model diagram showing objects</title><style>
        :root {
        --fade-text-color: rgb(0, 0, 0);
        --hide-text-color: white;

        --highlight-value-text-color: rgb(27, 14, 139);
        --highlight-id-text-color: rgb(150, 100, 28);

        --highlight-box-fill: yellow;
        --highlight-box-line-color: rgb(0, 0, 0);

        --fade-box-fill: rgb(247, 247, 247);
        --fade-box-line-color: gray;

        --hide-box-fill: white;

        --primitive-value-color: rgb(27, 14, 139);
        --id-text-color: rgb(150, 100, 28);
        --default-font-size: 20px;

        --highlight-object-fill: rgba(255, 255, 0, 0.6);
    }

        text {
            font-family: Consolas, Courier;
            font-size: 20px;
        }
        text.default {
            fill: rgb(0, 0, 0);
            text-anchor: middle;
        }
        text.attribute {
            fill: rgb(27, 14, 139);
            text-anchor: start;
        }
        text.variable {
            fill: rgb(0, 0, 0);
            text-anchor: start;
        }
        text.id {
            cursor: auto;
            fill: rgb(150, 100, 28);
            text-anchor: middle;
        }
        text.type {
            fill: rgb(27, 14, 139);
            text-anchor: middle;
        }
        text.value {
            fill: rgb(27, 14, 139);
            text-anchor: middle;
        }
        path {
            stroke: rgb(0, 0, 0);
        }
        .highlighted path {
            fill: var(--highlight-object-fill) !important;
        }
    
        [data-theme="dark"] {
            --highlight-value-text-color: #110875;
            --highlight-id-text-color: #6e4409;

            --fade-text-color: #BBBBBB;
            --hide-text-color: #121212;

            --highlight-box-fill: #EDB926;
            --highlight-box-line-color: #FFFFFF;

            --fade-box-fill: #2C2C2C;
            --fade-box-line-color: #666666;

            --hide-box-fill: #121212;

            --highlight-object-fill: rgba(72, 207, 173, 0.3);
        }
        [data-theme="dark"] text.default,
        [data-theme="dark"] text.variable {
            fill: rgb(224, 224, 224);
        }
        [data-theme="dark"] text.attribute,
        [data-theme="dark"] text.type,
        [data-theme="dark"] text.value {
            fill: rgb(144, 164, 237);
        }
        [data-theme="dark"] text.id {
            fill: rgb(255, 183, 77);
        }
        [data-theme="dark"] path {
            stroke: rgb(204, 204, 204);
        }
</style><g><title>Group of 1 objects</title><g role="graphics-object"><title>Dict id32 with 3 entries</title><desc>Entries: id5: id10, id6: id20, id7: id30</desc><g id="object-0"><path d="M51.10248378511396 23.58703005769315 L249.9595735640553 25.047268800423762 L250.7754489477911 323.246937866172 L50.09871779425963 326.294796159964" stroke="none" stroke-width="0" fill="none"/><path d="M50.886768018732596 25.634134122886145 C108.15178704067945 27.125453565540912, 168.50637064109705 26.506865391069528, 250.5070060415436 23.343151834536375 M49.760773732439546 24.928664433475873 C93.31331391592917 23.565331526283437, 136.6346359809455 23.864710968483962, 249.8897047356023 24.81028408682346 M251.10354888226408 25.25063741561405 C252.1869430134044 141.30738242236407, 252.81442314727758 258.6056148146204, 248.7521417434547 325.88000398503624 M250.69277807172617 25.31451732641547 C251.83028678039219 105.50581434011208, 251.23769153659237 186.166172421022, 249.91817117331468 324.85924338987155 M250.89719841840147 323.2521839272286 C185.35532384045032 323.14104514919075, 119.66813246503717 322.32292727794805, 49.74518249288967 324.50973598352857 M249.76041322033717 324.27037104493735 C192.96779155063584 323.36661681048315, 135.41142911007543 324.09785653247457, 50.35077334348073 324.82785637400815 M49.33497327402477 326.45628496646304 C51.68942916310702 243.62539611930657, 50.51099065133113 162.45830978817082, 49.190192383754926 25.963855311749242 M50.58543200768089 324.6572560344597 C49.509283819114636 220.5475743950671, 48.588951598902895 116.48543797189537, 49.93585544013541 25.191541353388487" stroke="rgb(0, 0, 0)" stroke-width="1" fill="none"/></g><g><path d="M48.00520146760861 26.501012566686043 L111.3217416793538 24.34400147668185 L110.27383569457527 76.60962683060538 L49.01145706739895 74.94029133687214" stroke="none" stroke-width="0" fill="none"/><path d="M49.02792789155347 26.394969472182165 C66.99845386677114 24.393469283644812, 81.00313110470864 23.835171002278287, 111.30646527112276 25.451369499016963 M49.61483311416027 25.77321586215859 C72.8590400289092 25.39686528559748, 95.97188680116551 24.627684836033396, 110.32022830158958 24.35178780053287 M108.23570585792822 25.719924386705976 C109.62956347923966 38.166597251285324, 108.72825257597717 52.05246324331494, 110.30875892076926 74.18809085844963 M109.30308062462964 24.49765632254223 C110.22941657576149 37.83290056018505, 109.1390612152621 51.0687378509009, 109.06687929862484 74.84477840617384 M108.1096385137742 75.75038313913655 C92.48210715233745 74.43105596084447, 76.0866634257182 74.92310384401802, 51.38111166532866 75.95628927218749 M109.29445177954332 74.35981848471401 C87.30631573216965 74.54227112959924, 65.28224559256243 75.0723487387309, 50.71441870203941 74.70002909114102 M50.87905540214943 73.68575736407801 C49.15956949885454 57.010138945603316, 49.328807292557244 41.8674613024001, 49.93211254126658 25.637477573628736 M50.53768845779439 75.17601579053219 C49.627111634892586 61.072648938429204, 49.961119500180196 48.34538090897851, 49.290085625935404 24.764533186180355" stroke="rgb(0, 0, 0)" stroke-width="1" fill="none"/><text x="80" y="55" class="id" aria-describedby="desc-0">id32<title id="desc-0">Object id</title></text></g><g><path d="M190.31607648440098 24.504772283424803 L250.88527216922824 23.36224356253613 L250.90658430292112 75.43420754164883 L190.7585618817476 74.30884431397334" stroke="none" stroke-width="0" fill="none"/><path d="M188.0899096215589 26.966613204151344 C204.3368900721322 25.67826319440801, 219.2365625616668 23.708246190487653, 250.70852222647673 25.869371432740575 M190.20870200879838 25.0744660379525 C212.6251234348192 26.144616050591143, 234.68913471400586 25.097311832953036, 249.8059775592342 25.93524498079897 M249.93682983667813 26.962283372760453 C249.69802290938142 40.622051049850405, 248.05174941585813 54.558373904668144, 248.83071133183213 76.10249678637096 M250.38342054544447 24.690119490616333 C250.1708362581194 36.38310258704572, 250.2805668560218 49.894959457912044, 249.52946128222615 75.69115571379358 M249.91918862240627 73.92694206954162 C231.8865717064183 73.49097504849469, 215.63630139554246 72.86293620633012, 189.0415969823914 76.36185718514233 M250.58199416379938 74.6889644661232 C229.0045002082997 74.7238262213782, 208.15683040481485 76.52617415242241, 190.12369384426495 74.21170507192615 M188.47001131160954 75.01152305417409 C190.63821484621693 64.3531940138705, 189.92585360173652 51.33684707926627, 191.69996216751684 24.552012942291757 M190.86777292191033 75.0883028681486 C190.16396367523814 56.960887791326044, 188.92973412436663 39.60064507783004, 189.45388351187242 25.502535015100225" stroke="rgb(0, 0, 0)" stroke-width="1" fill="none"/><text x="220" y="55" class="type" aria-describedby="desc-1">dict<title id="desc-1">Object type</title></text></g><g><path d="M75.13460734455609 101.6799659165639 L124.96814542810758 100.76375110182245 L126.62617118100759 151.90955859938109 L76.63666676469558 148.04255726968665" stroke="none" stroke-width="0" fill="red"/><path d="M73.50015233101881 100.18390378050292 C93.60265933058395 101.62835373212444, 111.0909711779021 99.51121579732612, 126.06810854095002 101.03299922561483 M74.31085186250482 99.80266590892347 C86.26617616971667 100.87295660711207, 97.5088801669742 100.54163404798288, 125.91415750259684 99.85533603275249 M125.55465847523924 101.66099943231738 C124.23158603156324 119.00153905087767, 123.79602751082093 136.31747004257878, 125.14599197121777 149.4552684831257 M125.44086112162637 99.24822179408102 C125.61092149162782 112.92186884481592, 124.19665075064377 127.57041406124918, 125.36430980268027 149.59056666319066 M125.97328388541465 150.26711489354423 C112.16562086703608 151.52509969218028, 98.62674919247287 149.85952438459958, 74.19938326487068 148.55300808450085 M125.09460988028717 150.68376034767778 C111.8132179396376 150.83624409360553, 99.18415311614801 150.84323620045512, 75.6117233235218 150.5175683879148 M76.05588417075776 150.48677875422678 C75.82102564462264 140.6289699675185, 76.35584658067813 129.04099903288198, 74.88979176576727 98.1612721162002 M75.76607342856661 150.64942465124213 C75.75103663728571 134.10225788519998, 74.55055457523406 115.97838966489746, 74.0434737656765 100.02224076282137" stroke="#000" stroke-width="1" fill="none"/><text x="102" y="130" class="id" aria-describedby="desc-2">id5<title id="desc-2">Dictionary key</title></text></g><g><path d="M168.37957638135296 100.46610567606366 L231.95614408084208 99.67742826742388 L230.3453884132985 150.76529946500477 L169.9992629756711 148.5713686562989" stroke="none" stroke-width="0" fill="none"/><path d="M168.8834811887842 101.92748785400005 C188.4033912879504 100.06611403512278, 203.46058999714592 100.94186706864912, 231.8913348842068 100.05327733311046 M169.7080413690501 100.62190988569594 C186.84987738110902 99.2517554007106, 202.48026815424836 100.44084791536393, 230.81837940221774 99.21071608053879 M228.09809168532502 99.18469187270745 C230.18769015860508 116.46425494999625, 228.27101721153923 129.96730177496295, 228.9971368203643 149.65052627531 M230.79189983554897 100.19948834428523 C231.30419756957792 113.12548992205635, 230.72813507360615 127.35849445993917, 230.5982339550534 150.80652532782184 M230.32331879928927 148.70349478170732 C219.3634013142701 149.4561344986472, 206.587383953201 150.28153115162544, 168.58894954398755 151.80313285383988 M229.6475045127345 149.82564416268036 C209.00407141933525 150.33506389670612, 189.22710253468085 149.70152246349534, 169.37451686032426 149.61940148663857 M168.0249342612337 149.11639547778046 C169.59826238472087 131.92459951394343, 170.08678160752365 112.39057476465416, 170.83194031509947 98.62611672952687 M169.6998039800415 149.4135848411756 C170.084748378313 133.70239588183838, 170.78107173585872 116.39885072931081, 170.38057372843622 100.92955557999328" stroke="rgb(0, 0, 0)" stroke-width="1" fill="none"/><text x="200" y="130" class="id" aria-describedby="desc-3">id10<title id="desc-3">Dictionary value</title></text></g><text x="150" y="130" style="" class="default" aria-hidden="true">:</text><g><path d="M74.55013536571948 173.7440523569157 L126.40954427163683 174.38962301103024 L124.16384877385515 226.27154577513926 L75.45341683570574 223.3128377653222" stroke="none" stroke-width="0" fill="none"/><path d="M75.73809864817109 173.9262684699212 C90.16423672193976 174.58548622203497, 107.05539642671897 177.14025260788412, 124.88632366208151 176.32125202143772 M75.94569513100848 175.69008559770015 C89.69423547193698 175.47728807383209, 105.73971165577053 175.1580287660865, 125.89602967426569 174.1340830728905 M124.25097298860237 176.03532568421116 C126.21431829390734 189.28252903827303, 125.62005765338426 200.22562407111462, 126.1249280565948 223.66737506683535 M124.27433719465517 175.6676083915041 C124.85248476458997 194.74775898357757, 125.49710677271823 213.60197470109782, 124.45698731368584 224.62689864616235 M125.74598216926273 225.38818140664864 C111.92865273151386 223.6009813525467, 96.48081807773045 223.71521293224538, 76.53123075449746 223.4532216990051 M125.91253746236741 224.80733339608273 C108.90714348950007 224.3782908843004, 93.42384047661159 224.14899606458573, 74.75649694391399 224.70998446111201 M73.97606132664113 223.95459018609412 C75.57818977173389 209.49474725048898, 74.83503149161908 196.58130382260768, 75.23800167345293 173.82016321927577 M75.2094643293104 225.48518712246118 C74.35156225238907 206.75161776623298, 75.46036376302577 188.2810154336843, 75.43323777424426 175.37321083199524" stroke="rgb(0, 0, 0)" stroke-width="1" fill="none"/><text x="102" y="205" class="id" aria-describedby="desc-4">id6<title id="desc-4">Dictionary key</title></text></g><g><path d="M169.4374528143548 175.95010881746543 L231.28647289684383 174.3861661966494 L229.54796977704095 223.4737187138992 L171.38679344487537 225.2576529214662" stroke="none" stroke-width="0" fill="green"/><path d="M170.10682642815226 173.26540430384378 C188.75746267166159 175.12906868786703, 205.7887267641941 176.23212444236577, 231.77062974064563 175.62970767933973 M170.3186470566806 174.17623858556632 C189.42971752114363 174.85240102569597, 207.90034441537242 175.31891578451635, 229.76354207482999 174.483661162252 M229.55747272611012 176.68570386188776 C231.77239014110035 188.65386669984534, 230.83612815626083 200.03404131260962, 230.89207583508423 226.18520368909043 M230.11181701259378 174.60283508725183 C229.56925678248882 187.74084940669778, 228.93678540868774 201.29277234586775, 229.14301406812405 225.50411717708363 M229.4806456971931 225.74931519369093 C210.4202722079998 223.69761341875432, 187.40739415797293 224.33302019867276, 171.61668066681713 224.2359751601294 M230.5951921033457 224.67408131592188 C213.53174827610096 225.21722329404054, 197.01328801772857 224.1705776555184, 169.28588514861045 225.43003381423165 M169.69974308826272 223.43417552788014 C168.83800120009712 208.98824122085873, 169.3431436241715 189.87606481163886, 170.60083081193386 174.78387624119026 M170.69346188969806 225.48275957665774 C169.89640731981638 205.49290268147467, 169.99308108870335 187.846871355533, 169.35144317675116 174.97184125785947" stroke="#000" stroke-width="1" fill="none"/><text x="200" y="205" class="id" aria-describedby="desc-5">id20<title id="desc-5">Dictionary value</title></text></g><text x="150" y="205" style="" class="default" aria-hidden="true">:</text><g><path d="M73.62595564032756 248.2123745790625 L124.17381164157665 251.95204388052193 L125.93621303906009 298.24628938879835 L74.764874348142 298.5241038179543" stroke="none" stroke-width="0" fill="none"/><path d="M76.09544156974603 249.12435147527208 C88.73005503887468 248.4396087757849, 101.47528130966572 251.45162213325534, 125.77872481952252 250.56910886864245 M75.63679988918996 250.48916463015476 C94.76644405296197 249.43096411675006, 113.7370697424267 249.5521571040256, 124.82414413592878 249.66681482400446 M125.75424548264085 248.5124177593791 C126.75952789062768 260.9864030813377, 123.51890978986093 275.36604738099214, 123.43785570504639 301.452367402021 M125.13482029441589 249.6620293905953 C125.72701302438504 263.5120511037044, 124.56832396346711 278.18424962247394, 124.10493398481005 300.7980265209252 M125.79360000886486 299.7245377878737 C114.3852991929662 300.904427815495, 103.29658074540784 297.86245376181444, 75.8433000998741 298.99822979513743 M125.38482516932072 299.50938629969687 C105.93560503988537 300.3249976731542, 87.19359920777747 299.5270286499923, 74.59965203011755 299.8781653888891 M76.55793233989706 300.7953001636313 C74.64899134591677 290.3751210015811, 73.81768192124697 277.4537036501118, 73.61103778271924 248.67577560173405 M75.40993492922296 300.43804656092175 C74.7262526067872 286.37016563898794, 75.69175817713919 271.30658821437635, 75.68051344001435 250.7532386838032" stroke="rgb(0, 0, 0)" stroke-width="1" fill="none"/><text x="102" y="280" style="font-style:italic; " class="id" aria-describedby="desc-6">id7<title id="desc-6">Dictionary key</title></text></g><g><path d="M170.22573788425757 248.10794128611985 L231.02587236694941 249.37805157805983 L228.80539353586045 300.08730980413475 L168.03921160963185 300.6068211230623" stroke="none" stroke-width="0" fill="none"/><path d="M171.97808215916928 249.58316513758177 C188.57123493200328 249.61117980109805, 208.05301671922467 251.11656584342776, 229.6682127112478 251.4150044699923 M170.03380349943967 249.70457382103214 C191.30831450586626 250.2494547553401, 211.2811910079964 250.64615901027494, 230.52197251546892 249.60159304480354 M228.33251435855067 249.4538772458771 C229.26455344502585 267.4745343285641, 230.46586302585274 280.43100843882456, 228.4975985488565 301.97582210159504 M229.1701723780651 249.583937368742 C230.02413071279247 268.36989104059836, 229.48099626875336 288.7709526976254, 229.67593570617709 300.37227180392154 M230.94393976318733 301.113246846537 C214.92311470908345 299.4229362664407, 202.42934902203524 301.88209165231603, 170.33806455101026 301.2368601348354 M229.46711627929815 299.7040887384641 C211.93432159934162 300.16407216341094, 192.92742849101353 299.5913595838648, 170.75640836052102 299.39976470180665 M168.2928017958527 301.54374824544345 C169.3265935668802 283.15822736788084, 168.70652107436894 269.3153398478121, 168.40887798060723 250.12339064320832 M169.60730023889806 299.75504702724663 C170.96713770632 285.1435348802793, 170.9780101415278 271.1551489664052, 170.82505352990933 250.50104961797751" stroke="rgb(0, 0, 0)" stroke-width="1" fill="none"/><text x="200" y="280" style="font-style:italic; " class="id" aria-describedby="desc-7">id30<title id="desc-7">Dictionary value</title></text></g><text x="150" y="280" style="" class="default" aria-hidden="true">:</text></g></g></svg>