<svg data-theme="dark" width="275" height="375" xmlns="http://www.w3.org/2000/svg"><title>Python memory model diagram showing objects</title><style>
        :root {
        --fade-text-color: rgb(0, 0, 0);
        --hide-text-color: white;

        --highlight-value-text-color: rgb(27, 14, 139);
        --highlight-id-text-color: rgb(150, 100, 28);

        --highlight-box-fill: yellow;
        --highlight-box-line-color: rgb(0, 0, 0);

        --fade-box-fill: rgb(247, 247, 247);
        --fade-box-line-color: gray;

        --hide-box-fill: white;

        --primitive-value-color: rgb(27, 14, 139);
        --id-text-color: rgb(150, 100, 28);
        --default-font-size: 20px;

        --highlight-object-fill: rgba(255, 255, 0, 0.6);
    }

        text {
            font-family: Consolas, Courier;
            font-size: 20px;
        }
        text.default {
            fill: rgb(0, 0, 0);
            text-anchor: middle;
        }
        text.attribute {
            fill: rgb(27, 14, 139);
            text-anchor: start;
        }
        text.variable {
            fill: rgb(0, 0, 0);
            text-anchor: start;
        }
        text.id {
            cursor: auto;
            fill: rgb(150, 100, 28);
            text-anchor: middle;
        }
        text.type {
            fill: rgb(27, 14, 139);
            text-anchor: middle;
        }
        text.value {
            fill: rgb(27, 14, 139);
            text-anchor: middle;
        }
        path {
            stroke: rgb(0, 0, 0);
        }
        .highlighted path {
            fill: var(--highlight-object-fill) !important;
        }
    
        [data-theme="dark"] {
            --highlight-value-text-color: #110875;
            --highlight-id-text-color: #6e4409;

            --fade-text-color: #BBBBBB;
            --hide-text-color: #121212;

            --highlight-box-fill: #EDB926;
            --highlight-box-line-color: #FFFFFF;

            --fade-box-fill: #2C2C2C;
            --fade-box-line-color: #666666;

            --hide-box-fill: #121212;

            --highlight-object-fill: rgba(72, 207, 173, 0.3);
        }
        [data-theme="dark"] text.default,
        [data-theme="dark"] text.variable {
            fill: rgb(224, 224, 224);
        }
        [data-theme="dark"] text.attribute,
        [data-theme="dark"] text.type,
        [data-theme="dark"] text.value {
            fill: rgb(144, 164, 237);
        }
        [data-theme="dark"] text.id {
            fill: rgb(255, 183, 77);
        }
        [data-theme="dark"] path {
            stroke: rgb(204, 204, 204);
        }
</style><g role="graphics-object"><title>Dict id32 with 3 entries</title><desc>Entries: id5: id10, id6: id20, id7: id30</desc><g id="object-0"><path d="M50.29181748522435 24.95808900818197 L250.0837328036423 23.173432802921912 L249.02290239782525 325.951248151364 L48.88644541274695 325.6805883344803" stroke="none" stroke-width="0" fill="none"/><path d="M50.13780714216329 25.04452461738215 C98.28344349439385 22.243833990087587, 150.17897762671535 21.701045170020137, 249.509278909594 24.919352877035557 M49.40112395148077 24.125036060339607 C96.1325470931967 24.945846476394248, 141.7424110604153 24.814814135496867, 250.38818033878525 24.999030641227 M250.21348387217208 26.0851904977633 C253.36384607429488 128.0844186702277, 251.55853366762582 234.5983265834249, 249.04024073195288 324.18976006974975 M249.69581694815133 25.581380707270835 C250.08676219563506 95.85904998110817, 250.0333025139884 164.91235750412855, 250.07042392942617 324.49232385059844 M251.63113742672374 324.50044581385254 C192.14235035270477 322.29089951950675, 135.48367956506326 323.9272218020272, 51.05287504437526 326.421350564816 M249.60814566508608 324.8570739570453 C197.4836304723178 324.7947830039865, 147.33848035860126 323.47607712887134, 49.69028452556149 324.44422722414987 M51.22240995016375 324.8999507447349 C51.601675574166805 234.9107829331919, 50.80453150605373 141.8644955153389, 49.005386335086506 25.625891725946097 M49.87281227658334 325.60831825219316 C47.99941121925846 229.8380564035224, 47.651293749302376 134.4026039259969, 50.21570089537202 25.231434554468613" stroke="rgb(0, 0, 0)" stroke-width="1" fill="none"/></g><g><path d="M48.340218030129876 25.467473225732345 L111.72333211898797 24.077474220345994 L110.09985598335412 73.43953555578187 L51.500792254300116 74.63127783740511" stroke="none" stroke-width="0" fill="none"/><path d="M49.271936134333075 26.72522628536628 C61.82193137462292 23.53518910535339, 78.07101761613225 26.033618553838014, 110.21227766135463 23.422649545625 M49.06872486207523 25.399427112545816 C70.57936561257199 25.720757101540865, 90.0274605846972 25.11518423218104, 110.77718911470951 25.270158059510212 M111.23917601794457 23.477570105933534 C110.17190844965063 43.908739640584315, 111.88436434985802 58.872434561788914, 109.48032840319027 76.54580436110068 M110.03508782730843 24.596157927896225 C109.46386140395744 43.08942965360612, 110.89046080004393 60.54660483129561, 110.65631138077129 75.24329785286885 M111.52484959833083 74.49240426931891 C86.96880633105553 73.42268894122049, 66.71005585455818 74.59785881714718, 48.66551499876104 73.3018153777855 M110.93171752072496 75.02082116758369 C97.37214465029727 74.65393757909077, 84.30156368297972 75.38461496651362, 49.4644492598271 74.57817172287182 M48.959793525323924 73.21187872315738 C49.31009806008424 60.69078774931979, 51.252071123956526 47.18358914385554, 51.11235398397207 24.80529385868867 M49.27651541618784 75.9633436572225 C49.09753610340388 58.861686159812365, 49.30525021988552 45.176506415624836, 49.195270286993114 25.758960023479283" stroke="rgb(0, 0, 0)" stroke-width="1" fill="none"/><text x="80" y="55" class="id" aria-describedby="desc-0">id32<title id="desc-0">Object id: id32</title></text></g><g><path d="M190.4595206623984 24.7982910474422 L248.03893514724328 24.093990429137712 L251.35596207289333 74.02435818550818 L191.26820052867316 75.1445298671794" stroke="none" stroke-width="0" fill="none"/><path d="M191.64461953561144 26.758308314414283 C207.86180041948725 22.924722600711195, 229.33866451747355 23.737759123829445, 250.75537742694138 23.062242975957552 M190.04099161977157 24.734661843140856 C212.70544696491078 24.553073139884777, 234.9753576958903 24.206699581379066, 249.5148219283083 24.258961232180162 M249.84421289166707 25.57164539829719 C249.91694503081536 42.79018644727126, 249.95889321517245 64.60684677303524, 250.39436701271998 76.98107712024567 M250.93222466686626 25.95630981616258 C249.82498224019102 37.329895538380846, 250.60489482283458 49.07648390405455, 250.06710086509102 74.4307777155459 M251.51208140077128 74.79639691279758 C230.81334370073236 77.28387114354562, 207.78526311238514 75.89634306042262, 191.45970201631872 73.13725436342602 M250.410073768801 74.91368143002077 C232.90239483643526 74.6327900306646, 212.85498636139502 74.38858779313105, 190.63432095631413 74.72808329826881 M190.93075415528753 76.55486606873895 C188.50283762690745 60.584146898299004, 189.68590202588788 46.87450921313299, 191.42492050385727 23.9859970707097 M189.86042801266234 74.43138803941552 C191.23350119432638 62.08137655880636, 191.27618737485216 49.05178245129578, 189.91122603549633 24.537630468626627" stroke="rgb(0, 0, 0)" stroke-width="1" fill="none"/><text x="220" y="55" class="type" aria-describedby="desc-1">dict<title id="desc-1">Object type: dict</title></text></g><g><path d="M73.27370405597635 99.87700359913867 L125.6953185892535 99.4977019046999 L126.64099936626812 149.21280573915817 L73.90197735490132 149.44064195468775" stroke="none" stroke-width="0" fill="red"/><path d="M75.99953585841799 99.36367102919728 C90.19210656913239 99.04718708217003, 105.2440287747593 98.30191434832338, 125.57799759747643 98.74317437380407 M74.10503196019036 100.9004355821787 C85.92121718785216 99.50773928509967, 95.52145883321516 99.25331273886837, 125.67722796040051 99.21241136829211 M126.19567369505148 99.71822731383953 C126.20850695786386 112.3497399434133, 123.52556182036048 121.55058947281185, 123.71987216634406 150.61728856026934 M124.60527493875576 100.27174890401479 C124.05737221643743 119.13734585343909, 124.57762399596517 138.36299259752698, 125.01042586498004 149.1113799475341 M123.35225168233279 149.9307531977708 C112.49987001116307 150.2532742002816, 98.16218285941687 149.14135926377554, 76.56410774743325 148.82949142380397 M124.55721641324234 150.4594926023805 C112.82859182618378 150.3278546885439, 100.84507614338689 150.16964276613635, 75.67906446168998 149.7202982262839 M74.80481012786791 148.44432270699437 C74.24239728830081 132.5821848766821, 73.99949506626224 117.35369491123407, 75.33423747068424 100.26400395248005 M75.25064855486983 149.04107265364806 C75.62285468975715 138.85809026311432, 75.21688566732728 128.9834217344145, 75.25092111306202 100.40417760562637" stroke="#000" stroke-width="1" fill="none"/><text x="102" y="130" class="id" aria-describedby="desc-2">id5<title id="desc-2">Dictionary key: id5</title></text></g><g><path d="M169.95168929240722 100.3899263131242 L228.9843611025954 98.06202299511064 L229.9569917921376 149.39433820542482 L168.7319183551326 148.7740017294569" stroke="none" stroke-width="0" fill="none"/><path d="M169.23206211929158 99.40632341308194 C183.09143162152674 100.91245264182484, 194.06848894615428 98.20783874462016, 229.6216431241093 100.76772832200174 M170.73846302389111 100.66097566104874 C190.15447898080708 99.8910570246627, 207.81921031560287 99.33835298300703, 230.89918007625255 99.01429502546557 M230.27897489620437 100.87023262267971 C230.4320082841982 115.88858557043771, 231.30041986341632 126.81036294920061, 229.30681538700554 149.99423165443892 M229.71038476711237 100.45075880874292 C229.83024401922535 115.45361643061973, 228.94884368722447 130.03328980578442, 229.918980781387 149.0964614860185 M229.43265858389722 150.73986415121368 C214.03915453433464 148.16783845753343, 197.30404680516102 150.1492671297171, 169.2284509847821 148.3435272161473 M230.70390437340367 149.41421405021327 C214.79818301354248 150.2869689404092, 199.38863007658264 150.27151757368085, 169.22887775063208 149.64510978520863 M171.96896021550543 151.14442704955866 C170.84767254860947 138.08281748802023, 169.58665169794253 122.0359947429341, 168.78742982453352 100.30379056060299 M170.67524903691944 150.60491214926657 C171.22191649825993 134.99001188032452, 170.05658004075576 118.16456427055644, 169.4841504239861 99.71319868876603" stroke="rgb(0, 0, 0)" stroke-width="1" fill="none"/><text x="200" y="130" class="id" aria-describedby="desc-3">id10<title id="desc-3">Dictionary value: id10</title></text></g><text x="150" y="130" style="" class="default" aria-hidden="true">:</text><g><path d="M76.22171922642765 175.4525179045832 L124.23341994772531 175.36770928941183 L126.40620613197058 226.71996575666734 L73.75469113816793 225.1922732928173" stroke="none" stroke-width="0" fill="none"/><path d="M74.21060560672672 173.70992847121767 C91.25050263681003 175.97286945730238, 105.10093706020669 175.7284383971213, 124.78864748331775 175.21853890747985 M74.69672955004373 175.82711017180856 C91.59004795320082 175.3818335513008, 109.33421331273314 174.7177470201277, 125.10484921025534 175.25173737973537 M126.61776561062325 173.3152603595677 C124.38996246791564 189.72524274455748, 125.02228118705551 207.8220272808627, 125.76866819521396 223.9252912051164 M124.42436339085837 175.96702917814395 C125.30616362800988 191.27715201257456, 125.04137980512562 207.62377620698183, 125.04676256053766 224.95021664297502 M124.02726322460555 226.34526577722033 C106.98130814282088 225.16537111675595, 87.59387234140335 224.40054465036312, 74.81597350542732 223.28877163234938 M125.24188370578055 225.68742290145474 C113.75462088990217 224.4288637761687, 101.40985292167416 225.6183152994323, 75.34667766443803 224.1187438392079 M76.29158487576595 225.48519651347817 C75.01191964875919 209.34494811480172, 76.86975373992486 197.4745564456278, 73.71235323662783 174.65066365148738 M74.42545042411028 225.48506071810337 C75.65284129012372 205.77433310330525, 73.93581857666862 184.8071827341208, 75.27818863915932 175.05394915293235" stroke="rgb(0, 0, 0)" stroke-width="1" fill="none"/><text x="102" y="205" class="id" aria-describedby="desc-4">id6<title id="desc-4">Dictionary key: id6</title></text></g><g><path d="M171.00642277933886 176.43318690788442 L231.8993110104797 174.4290363663049 L231.5757304544354 225.85218097484852 L169.22738986624796 224.51675491236765" stroke="none" stroke-width="0" fill="green"/><path d="M170.6769505176776 175.72391899262533 C191.22581809283963 173.69280608922224, 212.0786947338638 175.5753349716511, 228.72267841849353 175.14221867272371 M170.34599298051813 175.05448526629434 C189.19597471482928 174.48980840794968, 207.84898053823636 174.11269069004865, 229.57665173125918 175.22959197124192 M229.56723337719063 173.7034471620596 C229.49674118875518 189.2469162452848, 227.90521714129807 205.97306276532552, 230.83257623798434 225.0145399851999 M230.91503266814559 174.08537693455807 C231.44039957183986 186.24346106939436, 230.74869635039025 197.81677853277392, 230.06850343673284 225.8818615460116 M230.05721837199744 224.1294760836223 C212.87481938029234 227.20089729169746, 191.26442979178418 223.63565575962966, 171.89734028071427 224.74048925864528 M229.0956678486791 225.3394641255118 C215.5745580516809 225.0461429993786, 198.93173812482604 224.61538989008693, 170.2161660934796 225.58163830096336 M171.4213996153541 225.8984638699897 C170.45843970511604 211.3224718679482, 170.4238372628501 200.63663178434004, 169.55662966760343 174.71807566724772 M169.7468758747153 225.0687872423838 C169.92805203718797 207.8850016185369, 170.67723743700478 190.34239336350427, 170.20760081966185 175.63760398310282" stroke="#000" stroke-width="1" fill="none"/><text x="200" y="205" class="id" aria-describedby="desc-5">id20<title id="desc-5">Dictionary value: id20</title></text></g><text x="150" y="205" style="" class="default" aria-hidden="true">:</text><g><path d="M75.90121358428517 250.998456648681 L124.92812323044612 250.40342443681763 L125.84953610023761 300.7072527460754 L75.23091487186454 298.59153844112905" stroke="none" stroke-width="0" fill="none"/><path d="M73.1088420861968 249.21076308442287 C96.58185964460176 248.1799643172772, 114.6606972514289 251.1998131549458, 123.01518571173665 249.85409486142072 M75.4349514286705 249.59101988953043 C87.34511773780837 250.40876413925525, 99.55030163623846 248.95476581306968, 125.44790870193012 249.93874500520428 M125.60963212272024 250.05211183686805 C126.76185475797732 268.41479193136195, 123.48146026336615 286.2411711525754, 125.2368209313796 301.73266200794893 M125.90874234210585 250.68508465439464 C124.61440642127197 262.34920118774266, 124.64839834315845 272.7914037082896, 125.41155572314652 299.2821205865217 M126.82637888440962 300.49854135255606 C105.3780010461433 301.1979865639486, 89.512799137492 299.2512254056639, 74.691910238891 298.35562667277304 M125.91913548667996 299.49900079406984 C106.79241569958357 299.805358712773, 88.38746564008818 299.9382201580683, 75.41102308856887 299.37942641970903 M75.97040462129429 298.0192629524371 C76.5194022970431 285.3818872126105, 74.0489982108972 269.30336281894154, 75.6004419952705 248.32920812273954 M74.76539844498491 300.07831774001244 C75.97292577365803 286.3938511151747, 76.186469370475 271.2350475766054, 74.45757877837609 249.7332265873396" stroke="rgb(0, 0, 0)" stroke-width="1" fill="none"/><text x="102" y="280" style="font-style:italic; " class="id" aria-describedby="desc-6">id7<title id="desc-6">Dictionary key: id7</title></text></g><g><path d="M168.0653466544796 250.8938859144184 L228.26686080556598 250.6212258634854 L228.9649985042981 299.36118068753774 L169.12077959887358 298.93688686811004" stroke="none" stroke-width="0" fill="none"/><path d="M168.25549970646603 251.35853229506523 C191.29444829975503 250.41051564540297, 213.3162544965979 250.07206487005396, 231.6634263764033 248.14979667924158 M169.58436349683248 249.5409392809389 C185.02360828661133 249.53916336302382, 202.0128520747723 248.7203821648594, 230.67845281024194 250.00863869652417 M231.42024749227892 249.8786435204654 C229.56523765010988 261.0768936183597, 231.65512582799406 272.21925281609987, 230.60295368104525 301.3505965680644 M229.44290790822512 249.0264590471189 C229.55683956815025 268.7304557203915, 230.61014951162534 285.42745754827877, 229.54903125356108 299.35560826404134 M229.0760845212764 299.53934218583424 C210.97441228735784 300.6997654535932, 190.69797144875568 300.7864203792616, 170.18360715632306 301.17876619848596 M229.19990670607385 300.16678255676516 C214.72135396505746 299.8052042891769, 198.97464909616357 300.59311089429366, 169.99920600110272 299.5601398369533 M169.41868949498323 300.96843475168623 C171.01382100259326 282.5148151826115, 170.4016040547703 269.02871087819784, 170.59152592352876 251.756574882655 M170.3071518597207 300.1701588955368 C169.02494552798035 282.2407928751392, 168.64762249522332 262.71758735991205, 170.55324095607685 249.24227209871742" stroke="rgb(0, 0, 0)" stroke-width="1" fill="none"/><text x="200" y="280" style="font-style:italic; " class="id" aria-describedby="desc-7">id30<title id="desc-7">Dictionary value: id30</title></text></g><text x="150" y="280" style="" class="default" aria-hidden="true">:</text></g></svg>