<svg width="287" height="217" xmlns="http://www.w3.org/2000/svg"><title>Python memory model diagram showing objects</title><style>
        :root {
        --fade-text-color: rgb(0, 0, 0);
        --hide-text-color: white;

        --highlight-value-text-color: rgb(27, 14, 139);
        --highlight-id-text-color: rgb(150, 100, 28);

        --highlight-box-fill: yellow;
        --highlight-box-line-color: rgb(0, 0, 0);

        --fade-box-fill: rgb(247, 247, 247);
        --fade-box-line-color: gray;

        --hide-box-fill: white;

        --primitive-value-color: rgb(27, 14, 139);
        --id-text-color: rgb(150, 100, 28);
        --default-font-size: 20px;

        --highlight-object-fill: rgba(255, 255, 0, 0.6);
    }

        text {
            font-family: Consolas, Courier;
            font-size: 20px;
        }
        text.default {
            fill: rgb(0, 0, 0);
            text-anchor: middle;
        }
        text.attribute {
            fill: rgb(27, 14, 139);
            text-anchor: start;
        }
        text.variable {
            fill: rgb(0, 0, 0);
            text-anchor: start;
        }
        text.id {
            cursor: auto;
            fill: rgb(150, 100, 28);
            text-anchor: middle;
        }
        text.type {
            fill: rgb(27, 14, 139);
            text-anchor: middle;
        }
        text.value {
            fill: rgb(27, 14, 139);
            text-anchor: middle;
        }
        path {
            stroke: rgb(0, 0, 0);
        }
        .highlighted path {
            fill: var(--highlight-object-fill) !important;
        }
    </style><g><title>Group of 1 objects</title><g role="graphics-object"><title>Str id22 with value "Fade"</title><g id="object-0"><path d="M49.69254002668767 21.86869303977577 L251.3698775999239 26.378968343990365 L247.55024930248578 153.73517970085953 L50.826840387314924 154.52509187624707" stroke="none" stroke-width="0" fill="var(--fade-box-fill)"/><path d="M47.72529091771549 25.451835581778283 C117.62632852030947 27.629454582065815, 179.65851880869045 24.2081943882357, 247.0874569978128 28.130863414087795 M48.492679951457305 24.373816563449466 C119.51918097482866 23.607052825204743, 190.39006011511646 20.918543353095203, 250.11129227489755 24.75373860258445 M249.76459542285448 23.71561471889871 C252.1367215994444 55.920804444054696, 249.86399583384392 91.41127802002735, 253.65729571949984 157.89210396990683 M251.43424698419673 26.722482264282107 C248.36315990573866 71.84912161980162, 249.03111604648424 123.00188865567615, 251.1708200913692 153.06047108744002 M252.16419832186108 158.02439405511856 C188.92490439452155 151.47592640144347, 133.7415170841736 153.8955045175886, 51.76720076179126 156.03619832768285 M250.0806661720137 156.6859456090802 C193.84740995404795 159.16277338598726, 137.11661930575394 157.21487722404456, 51.65035062198475 153.5767952400001 M47.80942500969219 155.6611859070693 C48.943526561580946 121.30252517928568, 51.660961526531366 89.79333807249776, 48.71002217660144 22.51997351852161 M48.66887720775388 154.45690359297444 C50.7838642063452 118.21698179094673, 52.87866066690771 83.38951764457583, 49.72372237430987 26.025688079320236" stroke="var(--fade-box-line-color)" stroke-width="0.5" fill="none"/></g><g><path d="M43.32126248613944 19.203810205745217 L256.12192505278915 20.914688557945848 L257.16625247875345 162.8436464180119 L43.53430622338515 160.2906307081404" stroke="none" stroke-width="0" fill="none"/><path d="M42.88070472770503 17.8463301234448 C124.84829907593621 19.865436624169536, 206.92770462610991 19.27598490289707, 255.2657146849358 18.280086081643457 M44.27927550616041 18.78906096456106 C128.9063952738465 18.537171168613717, 212.90761132318224 18.969037726216325, 255.89662738708194 19.36917589979293 M257.10228495437843 17.12316604025197 C256.4818656573009 59.265233738346616, 255.81861916525378 98.18268060352969, 256.56648375712643 160.20373853363225 M255.33668849173404 18.10507322788411 C257.3750654349711 68.0068846128922, 257.9636073029609 117.28795796812412, 256.25981691065675 160.20203136203287 M256.8740733086336 162.74351804934673 C205.07583332862876 163.3379807694619, 155.21296425900272 163.6113846503501, 43.20053659726652 159.85893132073178 M256.8420713496333 160.9404038719521 C175.62888938399774 160.1065255848488, 95.66816044881129 160.39853405538852, 43.51677302586404 160.39941904816584 M44.06162238342549 161.17686728043319 C45.653705788038664 123.9302830405635, 44.21643345753722 88.9273316670087, 42.930668699327775 18.259038669781937 M43.216403838809015 161.51309295482974 C43.33824867163851 129.05109741048318, 43.549131490930286 98.05587381262035, 43.421365910902495 18.26990073829554" stroke="rgb(0, 0, 0)" stroke-width="1" fill="none"/></g><g><path d="M53.457825530353205 27.512166027904982 L111.558920439909 26.45633774663147 L111.71057287519126 72.68842523592745 L53.84396789867785 71.73572717067381" stroke="none" stroke-width="0" fill="none"/><path d="M52.51480019803635 27.591778838378993 C60.9870574608049 27.047244724520482, 80.63207684674073 25.478499916986898, 111.27282348087721 28.482306633003738 M48.797467526598 23.17304724156565 C72.90909592938802 24.76953475277617, 93.07902062288895 27.23756833937332, 108.845461119119 26.884962173821187 M108.68016689465128 21.688319086547814 C113.37851083153873 37.94964497479651, 106.26881027167647 46.97987869289429, 111.7425078302966 71.2848662281937 M108.41370314749656 23.609038955554315 C110.41023687668256 38.42135535424079, 107.98938636902712 52.50725201509118, 109.30495922401278 74.22971662440254 M112.68852572893206 74.49072307178992 C90.66707738671744 73.35127441940695, 77.64724163311277 79.40468104352853, 52.370278026790075 75.11263726404881 M110.54729028364119 73.52524389271501 C88.71459557287147 75.70572343035317, 66.52928848152466 75.77668022616221, 50.85659275168425 75.04804320778881 M46.99314930916961 71.82003918706928 C47.41154423627924 53.12681119025271, 49.3112840651416 39.95531237384761, 48.01413075191002 24.63481984142695 M51.52732169587166 73.30228070034258 C50.639655061876084 59.42860352551742, 50.747823936617856 48.0201232440513, 48.193240229867605 23.999684606231483" stroke="var(--fade-box-line-color)" stroke-width="0.5" fill="none"/><text x="80" y="55" style="fill-opacity:0.4; fill:var(--fade-text-color); " class="id" aria-describedby="desc-0">id22<title id="desc-0">Object id</title></text></g><g><path d="M192.27393647478183 27.52565265331997 L252.99910715196987 22.197316324264193 L246.55658140928762 75.43875763410684 L188.7533672149014 77.90705208141492" stroke="none" stroke-width="0" fill="none"/><path d="M193.86366104622712 26.286542035545352 C202.9576035439362 24.889588262253476, 215.5354615156935 29.455463963765578, 248.7980462935725 27.27482932637912 M191.6514908384846 24.620679904188492 C213.0817324983548 22.935350269866753, 233.98080833803735 25.756130460091406, 249.28758726187436 25.205365366772384 M250.73725317072004 23.48583768428626 C248.12947661306202 45.463686794019765, 252.72981691324551 63.378914283432735, 250.89443469752032 77.58151367762937 M250.26550450677223 26.815770405401715 C248.6740008697269 40.89271523154389, 250.1013331295806 59.29289227303467, 248.1081923894895 74.52908524864402 M249.54649742546786 77.67493109639695 C223.86114587148725 74.48264169458042, 205.97991422121947 77.12783235382219, 192.14383365606776 71.66176611136312 M249.5866961057276 74.42084518285363 C230.4880531654108 75.38728901842009, 212.13272862740962 74.54341216186008, 191.47386449006123 73.27024442414432 M188.40023122306494 75.69747518342857 C190.20368322084795 63.6461184596016, 185.48226677567786 48.43023135684172, 193.45871098447662 26.154952985108615 M190.98599107572127 75.50160786507288 C191.1138919236001 65.11432116907041, 191.4765613544426 51.96013188855873, 188.62345568093932 26.400829970528953" stroke="var(--fade-box-line-color)" stroke-width="0.5" fill="none"/><text x="220" y="55" style="fill-opacity:0.4; fill:var(--fade-text-color); " class="type" aria-describedby="desc-1">str<title id="desc-1">Object type</title></text></g><text x="150" y="115" style="fill-opacity:0.4; fill:var(--fade-text-color); " class="value" aria-describedby="desc-2">"Fade"<title id="desc-2">Value</title></text></g></g></svg>