<svg width="287" height="217" xmlns="http://www.w3.org/2000/svg"><title>Python memory model diagram showing objects</title><style>
        :root {
        --fade-text-color: rgb(0, 0, 0);
        --hide-text-color: white;

        --highlight-value-text-color: rgb(27, 14, 139);
        --highlight-id-text-color: rgb(150, 100, 28);

        --highlight-box-fill: yellow;
        --highlight-box-line-color: rgb(0, 0, 0);

        --fade-box-fill: rgb(247, 247, 247);
        --fade-box-line-color: gray;

        --hide-box-fill: white;

        --primitive-value-color: rgb(27, 14, 139);
        --id-text-color: rgb(150, 100, 28);
        --default-font-size: 20px;

        --highlight-object-fill: rgba(255, 255, 0, 0.6);
    }

        text {
            font-family: Consolas, Courier;
            font-size: 20px;
        }
        text.default {
            fill: rgb(0, 0, 0);
            text-anchor: middle;
        }
        text.attribute {
            fill: rgb(27, 14, 139);
            text-anchor: start;
        }
        text.variable {
            fill: rgb(0, 0, 0);
            text-anchor: start;
        }
        text.id {
            cursor: auto;
            fill: rgb(150, 100, 28);
            text-anchor: middle;
        }
        text.type {
            fill: rgb(27, 14, 139);
            text-anchor: middle;
        }
        text.value {
            fill: rgb(27, 14, 139);
            text-anchor: middle;
        }
        path {
            stroke: rgb(0, 0, 0);
        }
        .highlighted path {
            fill: var(--highlight-object-fill) !important;
        }
    </style><g role="graphics-object"><title>Str id24 with value "Fade Type"</title><g id="object-0"><path d="M48.973742477304405 24.386281826297928 L248.73039878968817 26.661668591892116 L248.53557486576494 155.83983110940386 L50.5203124111692 153.24443059292244" stroke="none" stroke-width="0" fill="none"/><path d="M50.8638891273098 26.586823902591988 C119.470086879017 22.42240953519377, 184.73040627125397 24.7809908117123, 249.75317391557914 26.705318176146513 M50.115447416332835 24.840876665581956 C102.69023793159627 23.620657005083537, 156.493639196354 23.68375366494567, 250.5748394807369 24.87907043700308 M251.83034058308127 24.703304402920452 C248.3116673025885 74.73433852727396, 249.8354517030451 122.96534509831307, 251.38118358915548 154.21349764378388 M249.51344940171924 25.478393290025586 C250.3270157532133 68.16385196027822, 250.46621389088617 110.90066003437352, 249.81534811079706 155.42206073653475 M248.92180540217603 156.55545725072454 C187.10250986085336 153.8022726058306, 125.44334921524786 155.06505558818543, 50.64434441204777 155.68696079293235 M249.57997597612683 155.0597456370419 C176.32810726947756 154.601467323293, 104.87414752404511 153.00141959123152, 49.92893681008822 154.755933946996 M49.832080624118 153.11882668566923 C53.030443685106306 116.43527003929161, 49.33690986876031 78.80129139184126, 50.53958443058142 25.508005260267463 M49.20279200933492 155.508300450078 C50.94123881502056 126.75776735966238, 51.77973586095633 97.7804249257103, 49.18116987190159 25.646203188772294" stroke="rgb(0, 0, 0)" stroke-width="1" fill="none"/></g><g><path d="M42.62670609589327 18.950247374779504 L256.89306923353456 19.983816852897963 L256.5297287222475 160.90602369406807 L43.24033097825761 162.1913885970312" stroke="none" stroke-width="0" fill="none"/><path d="M43.36987921319072 19.59097718508621 C109.61372667715135 18.130642611928113, 173.05127608340155 15.684860049748435, 256.2399108133709 19.507009109244038 M44.6350232591419 19.70800249275063 C103.99663116763347 17.480055889599743, 162.97138404660188 17.84273081704914, 255.6490963940031 18.85213975307708 M254.91621641242983 19.031228860511643 C257.13933404829885 64.57003186763312, 256.3744304398697 114.53299817111434, 257.18207590557756 160.93532139567318 M255.23141580031415 18.781313145644344 C255.91846454557023 51.206906704341776, 256.9866561679725 85.43933304762459, 256.3918704774272 161.1244999379428 M255.56459104868642 161.02346799513094 C188.13004874845035 159.56310152932045, 118.85449962403345 160.42566226372605, 45.65763514065161 161.54180409427227 M256.6898290248415 160.26913040591717 C200.34436850517542 162.58323257780603, 145.37722014679483 162.39440368049824, 44.60981880887416 160.59934830924252 M44.07782888825572 161.1994377363417 C42.825476929714526 128.75497706173223, 43.64748940252381 93.71451470839929, 42.93842267041466 20.618910584293275 M43.83221210386748 161.41153561993437 C43.890975745510175 106.77968802063596, 43.95648275988443 53.696700460324095, 44.27477238519764 18.956610374017835" stroke="rgb(0, 0, 0)" stroke-width="1" fill="none"/></g><text x="150" y="115" class="value">"Fade Type"</text><g><path d="M48.35423173838282 24.726424490221557 L109.03150235641876 26.06600613939351 L110.00471402413804 75.90978574436673 L49.43461007185698 76.41801082186826" stroke="none" stroke-width="0" fill="none"/><path d="M50.75933855400934 25.532994521705838 C72.23195220786005 23.567845949309515, 92.99098907263975 23.27589695157851, 108.94223017758978 26.193392231856823 M49.895802422791796 25.995276043293856 C63.72555415252576 24.161286714185383, 76.91122247697416 23.944143428397705, 109.82950120825026 24.927557527464387 M110.4755112912506 26.588973609767862 C110.46673399906562 38.61782441514855, 111.35943375113922 52.42350232679798, 109.35446010667786 74.11039267637652 M109.38692476882935 25.555031329692394 C110.19458787560124 41.57230009857838, 111.09242224826338 57.50462602291452, 110.91886668121204 75.38652260472762 M111.20776077981918 74.68100042583829 C94.75160396488138 76.34200571026116, 77.25817005146685 74.09194656054966, 49.09277283800427 73.14562010578089 M110.92121726254881 75.69476772023623 C88.07690726904774 74.09012283773097, 64.9727751405902 73.96424361486737, 49.8873959478129 75.26032976165372 M51.64646100389593 74.35520770022305 C48.66243083022463 58.847289423048686, 51.37258807422287 41.183802261568545, 48.80125368321688 26.5327734377357 M49.478291969687966 75.02590723694158 C50.2372099544716 56.03094923071939, 49.00845048222955 35.635648786030174, 49.37976673890785 25.830261664828768" stroke="rgb(0, 0, 0)" stroke-width="1" fill="none"/></g><g><path d="M191.7526382498333 24.211357225554657 L253.20892068921205 27.473533925767406 L250.3399340041344 78.8213384135129 L192.74436250132857 78.80793173708955" stroke="none" stroke-width="0" fill="none"/><path d="M186.29402616825143 25.276114439865474 C202.81334909683818 28.470290746578435, 221.9834114073559 21.803983269615053, 253.44923892394368 21.17502211260883 M191.75155087192405 25.561455440821003 C207.4275343505529 25.5253602051092, 222.76235144647427 27.419132608772667, 248.9069303096556 26.472882290048304 M249.92494454086884 27.323463852141906 C247.81988973550315 45.4151349734648, 245.9870646615388 58.30686032301342, 248.72486532563155 73.36940728548309 M250.35782549555108 26.136263426494644 C250.96331939520067 40.31545134891341, 248.81392217403913 52.384539686958846, 249.37950810816687 76.74083899990966 M253.86379612582408 76.85908372149433 C230.68809886968836 77.48439497314628, 209.11874514434484 78.0637270746268, 191.63286547610855 72.28418000060753 M249.01090591292822 73.82485469959437 C233.19101566164576 75.04316591207859, 218.40709550878137 74.00338715234889, 191.63307666626594 73.08480495988351 M188.06097850392462 77.72659844440885 C186.21031301500764 51.916292035830175, 186.83050878099417 38.48625057967772, 192.0337631196204 27.40263630764856 M189.31791628749662 76.24332574437922 C190.08272787389683 61.979743539926865, 191.81894982678253 48.80008963184208, 188.44087696364966 26.06144238214266" stroke="var(--fade-box-line-color)" stroke-width="0.5" fill="none"/></g><text x="80" y="55" class="id">id24</text><text x="220" y="55" style="fill-opacity:0.4; fill:var(--fade-text-color); " class="type">str</text></g></svg>