<svg width="287" height="217" xmlns="http://www.w3.org/2000/svg"><title>Python memory model diagram showing objects</title><style>
        :root {
        --fade-text-color: rgb(0, 0, 0);
        --hide-text-color: white;

        --highlight-value-text-color: rgb(27, 14, 139);
        --highlight-id-text-color: rgb(150, 100, 28);

        --highlight-box-fill: yellow;
        --highlight-box-line-color: rgb(0, 0, 0);

        --fade-box-fill: rgb(247, 247, 247);
        --fade-box-line-color: gray;

        --hide-box-fill: white;

        --primitive-value-color: rgb(27, 14, 139);
        --id-text-color: rgb(150, 100, 28);
        --default-font-size: 20px;

        --highlight-object-fill: rgba(255, 255, 0, 0.6);
    }

        text {
            font-family: Consolas, Courier;
            font-size: 20px;
        }
        text.default {
            fill: rgb(0, 0, 0);
            text-anchor: middle;
        }
        text.attribute {
            fill: rgb(27, 14, 139);
            text-anchor: start;
        }
        text.variable {
            fill: rgb(0, 0, 0);
            text-anchor: start;
        }
        text.id {
            cursor: auto;
            fill: rgb(150, 100, 28);
            text-anchor: middle;
        }
        text.type {
            fill: rgb(27, 14, 139);
            text-anchor: middle;
        }
        text.value {
            fill: rgb(27, 14, 139);
            text-anchor: middle;
        }
        path {
            stroke: rgb(0, 0, 0);
        }
        .highlighted path {
            fill: var(--highlight-object-fill) !important;
        }
    </style><g role="graphics-object"><title>Str id24 with value "Fade Type"</title><g id="object-0"><path d="M49.69242278641421 25.556465572815696 L251.54067953926005 24.479834138786064 L251.6827341758058 156.84566701037156 L50.989472215973805 153.05498518567902" stroke="none" stroke-width="0" fill="none"/><path d="M50.917034757083094 23.833899570243876 C108.07940552444417 24.373585639386313, 162.24264214518823 26.495941801533313, 248.48256449324217 23.906987165279414 M50.13516556517811 25.744273178497412 C89.89199095508525 23.674586148697784, 130.13543174014058 22.933913552179582, 250.78494628423357 24.848234414848985 M251.182478548918 26.40437579194599 C248.23682068838892 70.97539896710636, 250.74226297578468 119.98302256265345, 251.4104454809327 153.13994238723166 M250.84175762130423 25.15028356361545 C250.15954850186185 64.34300326084143, 248.39319426657028 104.4360633218951, 250.5710226974137 155.64655234078367 M250.8022270729281 155.70291672199997 C199.72278912807357 155.15964788492892, 150.26584954546252 155.88346595716257, 51.1230570325172 153.78078011551355 M250.0751528835149 154.84412011514556 C191.20973355274526 157.42428247718541, 134.00153220777077 156.96722636589553, 49.96235965230054 155.60098906817126 M48.513228352194545 155.12212057581274 C49.97174930017701 122.80255163771395, 50.70698499456216 87.33040581464967, 49.08879915715755 23.165248941485707 M49.45833478960327 154.43003818712273 C50.234380953962436 117.18054473362922, 49.442739638205595 78.7257506746283, 50.162942703266275 24.34666001707077" stroke="rgb(0, 0, 0)" stroke-width="1" fill="none"/></g><g><path d="M45.3888274285455 17.92306646474772 L256.9180280439432 20.823039750565492 L256.70366758740107 161.19229356556684 L42.48131811534087 160.3556088288415" stroke="none" stroke-width="0" fill="none"/><path d="M43.50994816673277 18.109457372656113 C93.3920428438023 20.490918556261363, 139.97426256122984 20.074772595367882, 255.1806439340276 17.880120021877513 M44.59285530470181 18.832555056026344 C114.84716867479975 20.403820392618346, 186.1185663855091 21.02249309924611, 256.461962253535 18.61699369486171 M254.24161042139434 17.389826443974098 C256.8138272100269 61.76900103096631, 257.98738716081596 106.50606186995289, 254.08655252052844 159.2205034590046 M256.1108214519918 19.78682903153256 C255.25953999746153 67.00418927514642, 255.72112507016087 115.26304840588753, 256.87142059431034 161.56621236140165 M254.6659946825299 159.64198939143532 C209.79004627344872 160.15022933859018, 166.09572701232375 161.69736399866554, 43.83878368973009 160.8676779503106 M256.17903304961874 161.49144269233986 C203.5831003133266 159.42758890430395, 152.93424563159104 159.42273346339525, 43.574050097517 160.48650708420607 M45.34495057357562 160.54374544140785 C42.122862738801636 121.93236696775222, 42.276489891394135 86.2900497964252, 43.95342627503739 17.247086915081365 M43.87947846112027 161.04921796820858 C43.01101041752213 104.16488588635129, 42.87734754422005 48.3755205791439, 44.359229309546194 18.60318821528523" stroke="rgb(0, 0, 0)" stroke-width="1" fill="none"/></g><g><path d="M51.5430117440409 23.151204832707116 L111.42818221457675 26.341270460027097 L110.89354453910995 76.73111558369493 L49.75515039207693 74.28521003735902" stroke="none" stroke-width="0" fill="none"/><path d="M48.097679252845566 24.15391507691024 C65.38716417520234 26.716747896825552, 84.10220505399546 24.101612931192157, 108.63687741995464 26.765941608576675 M49.29361109739703 25.84953025884819 C64.95261995165293 24.817704874037545, 79.58989027289734 25.332060515361267, 109.81689955856717 25.877606031193395 M108.26740364802772 26.641040381995104 C110.1107231258892 40.76869078457932, 111.52910075407137 54.95695524423361, 110.04285914902829 74.72569110615827 M110.6212650398629 25.099114304268333 C109.57702326508314 42.905754208826124, 110.62799735506522 60.24354244650627, 109.96416533227519 75.8617946440317 M111.51223293468969 75.71445139734217 C91.35207336113965 74.88657673346795, 75.50185014600206 75.06306904424731, 48.757119582844126 74.44648880037643 M110.63823397858536 75.5758555793442 C91.00466668454884 74.32086858133808, 72.38585561362046 75.28024994989764, 49.833467564957616 75.64173241725913 M50.60237021969206 76.6653923958955 C51.494501326328475 63.230276087349985, 48.2067739628576 51.10747542684975, 48.76616691357525 24.08046487004328 M50.97823000018403 74.77657517011419 C51.214287923703814 64.1731873478035, 49.5450475352549 54.4766494709939, 50.31242821940541 24.867264895530454" stroke="rgb(0, 0, 0)" stroke-width="1" fill="none"/><text x="80" y="55" class="id" aria-describedby="desc-0">id24<title id="desc-0">Object id</title></text></g><g><path d="M190.35210829367912 25.94106975745018 L250.17883259386437 25.439856133285595 L252.9627474151405 78.0315243671581 L188.91984404116647 74.02161489747483" stroke="none" stroke-width="0" fill="none"/><path d="M186.01630076461663 24.260560361216328 C204.86217095573699 24.572846358420797, 224.41225703084575 24.231973177281915, 253.10000529467848 27.42582462241161 M191.12627783914624 25.766440560238973 C202.2939036030708 24.32627728915601, 215.43711061560262 25.00083562889765, 249.26121606760938 24.22114149855151 M251.1543729584807 23.80407474758821 C249.5160954698423 37.44546547891828, 250.2825275714199 46.848584425744605, 246.92301924424132 77.50279665067131 M251.22613476982536 26.19717043433645 C248.98565965816766 36.86883865976841, 251.1518030929305 44.88026049158742, 250.81935136276778 73.17060446936648 M249.32300450251753 72.52722782944377 C229.2148862628785 77.67504321004857, 208.50688995131225 72.75183610517763, 186.49528409702165 76.48449034248466 M249.9280571798256 74.26976475666349 C229.7387258523506 76.39066272155375, 212.4152803131945 74.29186136766495, 191.03305922604613 74.96350144683382 M190.52423107851382 71.41881669353906 C193.8679492157701 62.11976945176572, 188.39810461715922 45.004205686115284, 186.54880451311544 23.364212299389862 M188.05273279624402 75.01857449824325 C190.9098011191709 56.079659924430956, 188.71891193375333 41.358719611542384, 191.8909308215273 23.93951806008497" stroke="var(--fade-box-line-color)" stroke-width="0.5" fill="none"/><text x="220" y="55" style="fill-opacity:0.4; fill:var(--fade-text-color); " class="type" aria-describedby="desc-1">str<title id="desc-1">Object type</title></text></g><text x="150" y="115" class="value" aria-describedby="desc-2">"Fade Type"<title id="desc-2">Value</title></text></g></svg>