<svg width="287" height="217" xmlns="http://www.w3.org/2000/svg"><title>Python memory model diagram showing objects</title><style>
        :root {
        --fade-text-color: rgb(0, 0, 0);
        --hide-text-color: white;

        --highlight-value-text-color: rgb(27, 14, 139);
        --highlight-id-text-color: rgb(150, 100, 28);

        --highlight-box-fill: yellow;
        --highlight-box-line-color: rgb(0, 0, 0);

        --fade-box-fill: rgb(247, 247, 247);
        --fade-box-line-color: gray;

        --hide-box-fill: white;

        --primitive-value-color: rgb(27, 14, 139);
        --id-text-color: rgb(150, 100, 28);
        --default-font-size: 20px;

        --highlight-object-fill: rgba(255, 255, 0, 0.6);
    }

        text {
            font-family: Consolas, Courier;
            font-size: 20px;
        }
        text.default {
            fill: rgb(0, 0, 0);
            text-anchor: middle;
        }
        text.attribute {
            fill: rgb(27, 14, 139);
            text-anchor: start;
        }
        text.variable {
            fill: rgb(0, 0, 0);
            text-anchor: start;
        }
        text.id {
            cursor: auto;
            fill: rgb(150, 100, 28);
            text-anchor: middle;
        }
        text.type {
            fill: rgb(27, 14, 139);
            text-anchor: middle;
        }
        text.value {
            fill: rgb(27, 14, 139);
            text-anchor: middle;
        }
        path {
            stroke: rgb(0, 0, 0);
        }
        .highlighted path {
            fill: var(--highlight-object-fill) !important;
        }
    </style><g role="graphics-object"><title>Str id23 with value "Fade ID"</title><g id="object-0"><path d="M50.58530712776118 25.132717142897253 L249.9576136176638 24.52779702272474 L249.73548052387892 154.75517344196635 L51.79930921714687 156.09420455517875" stroke="none" stroke-width="0" fill="none"/><path d="M50.534663174628946 24.527498548038597 C114.66940824915785 22.730382763105432, 181.25531860596445 22.86322982916972, 250.1843257660313 24.009052320695154 M49.650685238123096 24.689914234425842 C94.09790829532895 23.335401775654464, 137.4982670302852 23.243623715615875, 249.6504579543533 25.048279187472446 M250.18235390758755 23.96714794696827 C248.95535790236931 62.614312055143465, 251.70918292552344 96.45150713528675, 250.97214379157714 154.5848798626893 M249.85534124430367 24.479788647390752 C249.75851709190886 70.1648452617816, 250.96567712457596 114.3714141211826, 249.82809617734463 155.37704022257734 M251.69496740107047 156.5416829729662 C193.45039950600315 155.19588324484374, 137.92028679738533 155.75114074652706, 51.38689720428448 155.69598291286786 M250.12630718592857 154.74139005351262 C200.95938205099043 155.26066159111886, 153.57839277970461 156.01049992505284, 50.145920600174044 155.17722914308752 M49.97391973962233 156.7168591892865 C49.74834930396642 114.61316110031653, 48.29459265896317 76.12865808898091, 49.540390813815534 23.8182763914495 M49.91966304526066 155.17640678743808 C51.265676362991016 120.97558067277215, 49.91469787990522 87.21708607880011, 50.11373154483504 24.31640783247516" stroke="rgb(0, 0, 0)" stroke-width="1" fill="none"/></g><g><path d="M43.0186277680538 20.918900807441076 L254.26907857279545 18.99784497202986 L254.89313761852992 160.1654844514775 L45.99941375159126 161.08922252213694" stroke="none" stroke-width="0" fill="none"/><path d="M45.16575208996587 17.612003682244417 C117.71386107194259 18.28986547572179, 187.076590170554 19.682269523741187, 257.54207507942857 19.17248128586262 M44.57695092872371 18.718229121703743 C103.144292518087 18.699028313051944, 161.66126518535938 18.30263164154247, 255.990519325488 18.78524869134022 M255.37263527316637 20.71184692286144 C255.51613359391789 73.02110107881657, 254.2348216020876 123.303227899595, 257.8188443082612 159.3544151850189 M255.52280957399662 18.78730878736442 C256.0678231848698 65.64049515902838, 255.2343637010228 111.69828135876986, 256.3958993251353 161.8477582026026 M254.24009523360328 161.34305909783467 C181.9261418538622 160.96141177408023, 107.08951109727393 162.76037145981743, 43.067782576232524 161.1235566500082 M256.47551758303945 161.01620363328962 C178.88182812798848 160.53452290452157, 100.44127425899464 160.1569060028104, 43.68007941067194 160.41446321952958 M45.43236097975576 159.06721543778517 C44.72804693588463 111.47581840100814, 45.128631280027314 60.82152758666025, 42.680104839342256 19.505019772765067 M43.09990507717258 161.3178325214244 C43.81678434597118 117.38159527885256, 41.98209058324006 75.87343555349835, 43.14535513226333 18.136508119446702" stroke="rgb(0, 0, 0)" stroke-width="1" fill="none"/></g><text x="150" y="115" class="value">"Fade ID"</text><g><path d="M46.58044936167579 24.050879336593628 L108.47133658882824 25.747772907258646 L110.73148566322617 77.06797767676892 L50.92265108511459 77.08943616398044" stroke="none" stroke-width="0" fill="none"/><path d="M47.46169668243533 25.590040678061953 C68.93188624357914 21.278904226864967, 95.164481614368 22.784359623139288, 110.5586390330445 28.897040487588868 M48.308393725721416 25.53830226073789 C75.57138826188074 24.62328108639215, 97.36120883822117 24.179577527140633, 109.19724310256834 24.668131908483826 M111.52806663664053 27.193975941748505 C108.0286835330943 40.56536590483695, 109.14718996636127 62.26319724007128, 110.79962792467865 75.65210463991666 M109.45824567753534 24.323693074028434 C109.48160308553054 36.37181960434152, 107.65968878985747 45.25502813516262, 108.92626601302757 73.00150191487448 M113.58673076907496 71.08213810493865 C87.72604215928865 73.47149537472312, 75.42390326069149 74.27503588647427, 52.44384992132219 75.36457254810837 M108.56250212948797 75.5665002470551 C96.22934758923729 76.82065321173317, 84.0461699211681 75.59684784451322, 51.74329253161748 73.06418980926068 M47.66976744004941 73.70655340645061 C49.486938631716114 60.61762390103313, 45.70053398888101 50.846016080158265, 51.60557495013483 26.43737978621548 M49.61956491483802 74.20834957823413 C49.659995397133365 55.79045268240471, 50.13951614468986 35.60743242946573, 51.95884778318057 25.669492853274782" stroke="var(--fade-box-line-color)" stroke-width="0.5" fill="none"/></g><g><path d="M189.62030643696227 23.89111595804603 L248.48596728151583 26.22193951932648 L251.503932568116 76.91844359916283 L190.59758746013893 73.54648041353171" stroke="none" stroke-width="0" fill="none"/><path d="M191.88724415522248 25.887803729199113 C213.48924311059153 25.968044401551104, 234.4279641056671 23.671326860724847, 248.40054719897378 26.621523834535097 M189.29159963886153 24.68019883148196 C205.6228716818633 25.365969388845045, 219.9836499147296 25.36472058147296, 249.9602728148771 25.012494582053854 M248.0858010120887 25.12116245322281 C251.04793032133875 42.39105925071933, 250.40255720522688 58.72723494345471, 250.7887580400018 74.14839483042486 M250.29996154764788 25.311956012166448 C248.6889799539819 44.015106154384114, 249.32878654976943 64.50765378832266, 250.24869405032916 75.75095720279235 M249.67836966138563 75.47396966438856 C238.6869639631689 74.68233384188505, 224.03598585680274 74.6301343165798, 189.5464339375141 76.77200362730738 M250.4666086089549 74.32130063106447 C228.69066878094344 74.04863399717856, 205.959282824161 73.69328812882844, 190.86683622593898 75.70067074969236 M190.79359347343464 75.39478162229364 C189.8354802938804 59.078870096335045, 189.25314306472234 46.29176548711473, 190.06900276889579 24.545763707601033 M190.09917257206067 74.93688618058867 C188.98994248504565 59.801039777100634, 189.50889790673654 42.85861526090652, 189.55151688374605 25.528420877648188" stroke="rgb(0, 0, 0)" stroke-width="1" fill="none"/></g><text x="80" y="55" style="fill-opacity:0.4; fill:var(--fade-text-color); " class="id">id23</text><text x="220" y="55" class="type">str</text></g></svg>