<svg width="287" height="217" xmlns="http://www.w3.org/2000/svg"><style>
        :root {
        --fade-text-color: rgb(0, 0, 0);
        --hide-text-color: white;

        --highlight-value-text-color: rgb(27, 14, 139);
        --highlight-id-text-color: rgb(150, 100, 28);

        --highlight-box-fill: yellow;
        --highlight-box-line-color: rgb(0, 0, 0);

        --fade-box-fill: rgb(247, 247, 247);
        --fade-box-line-color: gray;

        --hide-box-fill: white;

        --primitive-value-color: rgb(27, 14, 139);
        --id-text-color: rgb(150, 100, 28);
        --default-font-size: 20px;

        --highlight-object-fill: rgba(255, 255, 0, 0.6);
    }

        text {
            font-family: Consolas, Courier;
            font-size: 20px;
        }
        text.default {
            fill: rgb(0, 0, 0);
            text-anchor: middle;
        }
        text.attribute {
            fill: rgb(27, 14, 139);
            text-anchor: start;
        }
        text.variable {
            fill: rgb(0, 0, 0);
            text-anchor: start;
        }
        text.id {
            cursor: auto;
            fill: rgb(150, 100, 28);
            text-anchor: middle;
        }
        text.type {
            fill: rgb(27, 14, 139);
            text-anchor: middle;
        }
        text.value {
            fill: rgb(27, 14, 139);
            text-anchor: middle;
        }
        path {
            stroke: rgb(0, 0, 0);
        }
        .highlighted path {
            fill: var(--highlight-object-fill) !important;
        }
    </style><g id="object-0"><path d="M52.19610243459235 28.973462278335646 L249.35941917776125 25.12615782278502 L250.19460431374895 151.7857276018459 L49.00944232689713 154.37528332106885" stroke="none" stroke-width="0" fill="var(--fade-box-fill)"/><path d="M50.04580807998258 28.0908222227891 C120.02339526391475 27.091280511461783, 190.99997597376836 27.340397871374993, 250.09744212312816 24.824314960709188 M50.77445521574681 25.068626237751364 C96.27686863667525 25.25559580700883, 138.1184650735589 24.500855297992164, 249.70714360773678 25.583008262227576 M251.43433038013825 25.098668025226182 C243.86850239563444 66.09382017478457, 247.24739717116898 105.9072164053991, 247.6375935886505 154.22272230769872 M248.8110108785909 25.976833332674353 C248.9945754620601 78.10883445628279, 249.85779005746716 126.1468719775785, 249.59056893009574 155.7696484635315 M250.54595539441289 157.81376155010852 C187.21143048041418 158.75792485116955, 116.04659857428824 161.2121298612016, 52.09510211745506 155.52545376742145 M251.7322584654671 154.48829866166818 C193.34056585161534 157.48616329558672, 139.40462228223873 156.87234410712406, 51.459535993551 153.46877536117384 M48.55115869141597 157.00888229458377 C50.00324573016297 107.50390165218865, 52.2458254259265 61.91506731894548, 51.80087403803764 25.088230361786298 M51.886035017783236 156.13866316650615 C49.15070795708773 110.88216500380406, 50.842134662800184 63.89749425456182, 50.49609865670557 23.37438954949782" stroke="var(--fade-box-line-color)" stroke-width="0.5" fill="none"/></g><g><path d="M44.20118565231985 18.66432581919036 L256.4274551817177 19.8813010635238 L255.96138733389031 161.87695240601886 L43.67100271473072 159.29998338569422" stroke="none" stroke-width="0" fill="none"/><path d="M43.86903908930836 17.586735135971157 C92.96416298392394 19.99843023370918, 142.5893804205707 21.123780681850405, 255.34574195789423 17.65519818598833 M44.566750251218444 19.61355759497447 C105.89227758915435 18.63889213658994, 168.78423921529924 18.760895697482002, 255.2364906705578 18.33166706752613 M255.15724300240993 18.517795262774907 C254.4092794461406 64.88061248178248, 256.38785495814375 111.81061825654209, 257.0112665995967 160.9504491432841 M256.04253001287645 18.919728907911527 C254.01722603726103 64.57885386133687, 254.19794691470287 111.66495837919024, 255.52156090827708 161.25884736460466 M254.93234646774218 160.13448132801653 C193.15385851123236 159.93170684220138, 131.70016082675193 161.22664630405933, 44.64382560107566 159.33467751429546 M255.44665298583678 160.4831995071871 C190.73559821491017 158.79654717749025, 127.40705486015892 158.5865321600232, 44.654807773162425 160.96958748420246 M42.30494823910338 161.25108090897808 C43.28833714259202 116.88201577330247, 44.32973468311357 75.49478178472818, 44.39344610393063 18.580091805998237 M43.13578731221823 160.1557280875633 C43.69524464544884 127.20383760019102, 44.166726545599886 93.83328868135207, 44.42412818600279 19.73479309614401" stroke="rgb(0, 0, 0)" stroke-width="1" fill="none"/></g><text x="150" y="115" style="fill-opacity:0.4; fill:var(--fade-text-color); " class="value">"Fade"</text><g><path d="M51.89598909261022 24.415130715740062 L110.00375682857153 27.954835131188844 L109.90727628616901 75.04055417623043 L48.210865717312544 73.5057893688263" stroke="none" stroke-width="0" fill="none"/><path d="M53.29463188917491 27.362729796049017 C69.89743405745821 22.302919182457092, 96.42543217071047 25.37620410508434, 112.32634632623511 21.07973230602547 M49.949429684254376 26.665964967396363 C66.54277682802982 23.850170792968168, 87.29364898930683 23.585763051740557, 108.32305226946728 24.26092067321705 M109.84102929745744 22.253897536205326 C114.66531517806855 47.285853737716145, 109.11375359096253 61.5758431844374, 111.01223833747996 78.77978267287635 M110.56463060967897 25.35528367681905 C109.18378459895811 44.06186229021614, 109.11310153109861 63.30674953512262, 110.40073487816034 76.46873636913743 M106.38084189091033 72.26409068918825 C87.40143459518006 74.86897849640009, 64.01976712583392 75.65757976882861, 47.588543486859635 75.36404710603745 M109.58140702233274 74.85189968454291 C87.68205267426885 72.46303106360371, 61.3039045475062 74.02274849161708, 49.12319701007527 76.35203077641648 M48.14354802433869 73.20272015556621 C51.45905124897173 60.17112584668912, 46.707267855333924 55.74625872478828, 51.199688372865396 22.041817942753376 M50.55575081519526 73.22160808594198 C52.31419339646334 64.83818462633906, 49.614892568676794 53.10161981736347, 51.48578388729982 26.173444835066338" stroke="var(--fade-box-line-color)" stroke-width="0.5" fill="none"/></g><g><path d="M191.80920263584636 23.2995140369246 L252.7660590743556 27.05060607393945 L250.8339915412524 78.44050761018397 L186.19879860786165 75.83119721287876" stroke="none" stroke-width="0" fill="none"/><path d="M186.21842820788635 26.99860717908461 C208.52338161833126 25.05523050340548, 230.8000353700773 27.95977414297967, 247.8962772822606 23.67301524927089 M188.65936938238514 26.96231100795526 C207.86266420220616 24.46680420725056, 220.80984840162643 22.683374564638072, 251.02169317850885 26.062854774968216 M250.5414291581389 22.383061893052457 C246.14023388926313 37.02611583092106, 245.553537323571 48.61626637934493, 248.48410850150447 74.65606677614942 M248.58675586410214 23.379815167576893 C249.90282083802327 40.17910118065014, 247.76156436687234 55.50755600066695, 248.35667075441657 76.88442373641732 M247.33451721627418 72.74354308336402 C236.0149352099772 72.53916079639559, 221.2346579209404 78.69641898036681, 193.2546436918124 76.48757433264609 M251.6781258409725 75.07162435864852 C226.80811075034904 75.43102210281617, 204.06924735498603 73.19888003137622, 189.20765918647913 74.43656645954067 M187.32955289709017 72.87192293770352 C188.09424710427444 59.61765824804349, 194.7063109095706 47.44071661051464, 187.8801919440778 27.687557256413086 M188.7302892214144 73.20328955444094 C190.44516165850962 57.05433294954521, 187.86730930589002 37.44167397130692, 188.06332678236956 26.178089220277833" stroke="var(--fade-box-line-color)" stroke-width="0.5" fill="none"/></g><text x="80" y="55" style="fill-opacity:0.4; fill:var(--fade-text-color); " class="id">id22</text><text x="220" y="55" style="fill-opacity:0.4; fill:var(--fade-text-color); " class="type">str</text></svg>