<svg width="287" height="217" xmlns="http://www.w3.org/2000/svg"><title>Python memory model diagram showing objects</title><style>
        :root {
        --fade-text-color: rgb(0, 0, 0);
        --hide-text-color: white;

        --highlight-value-text-color: rgb(27, 14, 139);
        --highlight-id-text-color: rgb(150, 100, 28);

        --highlight-box-fill: yellow;
        --highlight-box-line-color: rgb(0, 0, 0);

        --fade-box-fill: rgb(247, 247, 247);
        --fade-box-line-color: gray;

        --hide-box-fill: white;

        --primitive-value-color: rgb(27, 14, 139);
        --id-text-color: rgb(150, 100, 28);
        --default-font-size: 20px;

        --highlight-object-fill: rgba(255, 255, 0, 0.6);
    }

        text {
            font-family: Consolas, Courier;
            font-size: 20px;
        }
        text.default {
            fill: rgb(0, 0, 0);
            text-anchor: middle;
        }
        text.attribute {
            fill: rgb(27, 14, 139);
            text-anchor: start;
        }
        text.variable {
            fill: rgb(0, 0, 0);
            text-anchor: start;
        }
        text.id {
            cursor: auto;
            fill: rgb(150, 100, 28);
            text-anchor: middle;
        }
        text.type {
            fill: rgb(27, 14, 139);
            text-anchor: middle;
        }
        text.value {
            fill: rgb(27, 14, 139);
            text-anchor: middle;
        }
        path {
            stroke: rgb(0, 0, 0);
        }
        .highlighted path {
            fill: var(--highlight-object-fill) !important;
        }
    </style><g role="graphics-object"><title>Str id23 with value "Fade ID"</title><g id="object-0"><path d="M51.75572818948476 24.37089612206155 L249.50205840124502 25.219361174090473 L248.61196460017254 154.5171154890582 L51.037649401194244 154.24586912393497" stroke="none" stroke-width="0" fill="none"/><path d="M49.98098309901829 26.112482133412435 C89.43879043511026 25.962994122452237, 131.15096175083323 24.032058767384665, 250.6945076207027 23.81798885615832 M50.48569610220751 25.74362385913852 C111.06366841045254 25.761491582510843, 171.39529965980967 26.290565831109184, 250.69236070405813 24.936358478882347 M249.1752086777944 23.677321171358 C250.58880756880205 75.04543629506458, 251.0832468545407 125.92624744294727, 250.75764381170848 156.60399675859708 M250.45224950254618 25.064471455104858 C250.62358408326722 76.01370806687386, 250.37166447732122 128.47471429228068, 249.56117882869918 155.5126094269513 M249.39456448826888 155.77031412742045 C197.7621256479948 155.7460029789835, 148.55342320231256 152.66396993791588, 50.81340822029157 155.33109012547214 M250.1514058944613 155.81396649200147 C192.50022563966849 153.46441658530458, 134.4884764908309 153.70661068652439, 49.93887683124827 154.3071444640909 M51.6236505371106 155.53680456978185 C51.08427844375094 108.80750956880313, 48.324106840341656 59.24450821728172, 48.60430354353092 26.57633334503693 M50.5874377281826 155.89055387622207 C50.61122184321449 127.79859433982874, 51.53323715452058 101.07250145745742, 49.48932663811605 24.349106168164507" stroke="rgb(0, 0, 0)" stroke-width="1" fill="none"/></g><g><path d="M45.417467736141376 20.02344296807593 L254.64359245082096 19.023602681600323 L256.95915893803345 159.2197071070539 L45.350485513011826 161.14644256466113" stroke="none" stroke-width="0" fill="none"/><path d="M44.72331465582345 18.370456888945117 C125.35961859104457 20.563350229060774, 208.8401394871463 20.371380852331658, 257.45633131448403 19.8495807384375 M43.95376741681852 18.843269506133144 C86.24600441902501 19.721784436114216, 129.43274409810192 20.040590984313983, 256.28896876643876 18.33259450733694 M254.59402863783404 18.1908460404596 C256.8561846264587 62.979634184582196, 255.48221302595377 108.86006837202883, 257.99614186919973 159.542980164282 M256.1312431764377 18.743311623840423 C255.15165879005812 54.50902781010139, 256.0071849091702 90.2725613018922, 255.0511926468951 161.095419792784 M257.0565302940767 159.36340972394402 C202.64688421904816 160.18344239002886, 150.5181857592941 160.32346195364602, 44.645286928201344 161.73861543119384 M255.56876438879704 161.68821295309988 C191.58179486309493 159.9584810865181, 125.28058844773977 160.43178572369587, 43.35487494496253 160.52793792000054 M44.778291005259774 162.23356165324188 C43.917018821900804 116.42667908742581, 43.932273370222056 71.7510426825405, 43.18344032070796 17.57176742647441 M43.30793173214618 160.19707840777218 C43.262733726108344 109.21623625957228, 44.2475971856955 57.72012288052659, 44.95401726582691 18.848179512426896" stroke="rgb(0, 0, 0)" stroke-width="1" fill="none"/></g><g><path d="M53.49223954036982 23.157781148524386 L106.03487078777255 28.88792297419952 L111.1294702042444 74.54440609049433 L47.990189473618756 74.21489921264883" stroke="none" stroke-width="0" fill="none"/><path d="M48.52110767453276 22.773124616158846 C64.08237773292407 21.347607753982267, 79.57257558980267 21.12256546008242, 108.05102819312674 27.369135434318828 M50.5552698441467 23.094430220066933 C66.91385206432695 27.739143931197894, 85.75220196517954 25.90822814261557, 110.7570830882438 24.5643517201705 M108.63582878286444 28.56830747466535 C111.74561838446147 45.17500495641899, 108.72513260115136 58.982616877030786, 113.33217488230737 71.9084003466214 M109.6852411725779 23.97429481173201 C108.97308822408503 38.94982144389341, 109.73715769152693 52.52605167619491, 109.46444724415935 73.07040791699664 M113.53168077596759 75.1882780388145 C86.34053710528993 74.90478146078505, 65.24973545613024 76.64902401371151, 49.16239240418791 77.5302449437928 M111.58987469841688 73.02163599830455 C92.65922613508164 74.71159369984575, 72.17249483373813 75.86981636007125, 51.427721555598175 75.9143855606047 M47.06256735721878 71.76220407334831 C48.00695785443426 61.14193059891143, 53.015635961635326 47.48687720621331, 47.45256790319144 21.75266656559021 M50.20143830792154 75.63334082563841 C49.78042919289523 55.69338250125888, 51.6660005620485 36.41916587653741, 49.29658721747751 23.691521000273198" stroke="var(--fade-box-line-color)" stroke-width="0.5" fill="none"/><text x="80" y="55" style="fill-opacity:0.4; fill:var(--fade-text-color); " class="id" aria-describedby="desc-0">id23<title id="desc-0">Object id: id23</title></text></g><g><path d="M188.3427930100027 24.794978962744427 L248.736266270385 24.367083569060497 L249.13586005720853 76.79129883166065 L188.6084316315072 76.50085220551195" stroke="none" stroke-width="0" fill="none"/><path d="M191.49745291052162 23.123543691705784 C207.6560563080832 24.09942121709237, 224.7006514390701 27.1495888400596, 249.55384411072745 24.78634161685807 M190.4685034090269 24.372073156555686 C204.98087383336085 24.28944724090104, 221.72368735133242 24.241634203153726, 250.05407478382008 25.696061198517057 M249.10075990567123 24.219969698187796 C248.8147163539694 41.72538889309926, 251.74568025426422 55.0512407344755, 248.64073543949164 74.19982239611286 M250.9115318132773 25.655181722324173 C250.2164611930238 38.9855094841253, 250.20194600429434 50.97705944584688, 249.78977702386442 74.64177499246428 M249.44461735688103 73.85295636243806 C234.11905426279034 73.95134357954828, 217.26715298060097 73.54212383853267, 188.77866875816164 75.67773278798148 M250.86122369780713 74.76679796008916 C237.54926083383782 74.09490006035416, 223.5754825986505 75.4348630585174, 190.0393226172477 74.23635156255617 M189.20070501801084 73.36179620609931 C188.3747764782613 65.13258151070004, 190.97852057123478 52.06208118920922, 190.08377288913923 26.650608137055084 M190.68650738791172 74.39377964141583 C190.52997848270581 56.91315053477246, 189.47885697041352 38.491797960763606, 190.51339989529032 25.747528293237828" stroke="rgb(0, 0, 0)" stroke-width="1" fill="none"/><text x="220" y="55" class="type" aria-describedby="desc-1">str<title id="desc-1">Object type: str</title></text></g><text x="150" y="115" class="value" aria-describedby="desc-2">"Fade ID"<title id="desc-2">Value: "Fade ID"</title></text></g></svg>