<svg data-theme="dark" width="287" height="217" xmlns="http://www.w3.org/2000/svg"><title>Python memory model diagram showing objects</title><style>
        :root {
        --fade-text-color: rgb(0, 0, 0);
        --hide-text-color: white;

        --highlight-value-text-color: rgb(27, 14, 139);
        --highlight-id-text-color: rgb(150, 100, 28);

        --highlight-box-fill: yellow;
        --highlight-box-line-color: rgb(0, 0, 0);

        --fade-box-fill: rgb(247, 247, 247);
        --fade-box-line-color: gray;

        --hide-box-fill: white;

        --primitive-value-color: rgb(27, 14, 139);
        --id-text-color: rgb(150, 100, 28);
        --default-font-size: 20px;

        --highlight-object-fill: rgba(255, 255, 0, 0.6);
    }

        text {
            font-family: Consolas, Courier;
            font-size: 20px;
        }
        text.default {
            fill: rgb(0, 0, 0);
            text-anchor: middle;
        }
        text.attribute {
            fill: rgb(27, 14, 139);
            text-anchor: start;
        }
        text.variable {
            fill: rgb(0, 0, 0);
            text-anchor: start;
        }
        text.id {
            cursor: auto;
            fill: rgb(150, 100, 28);
            text-anchor: middle;
        }
        text.type {
            fill: rgb(27, 14, 139);
            text-anchor: middle;
        }
        text.value {
            fill: rgb(27, 14, 139);
            text-anchor: middle;
        }
        path {
            stroke: rgb(0, 0, 0);
        }
        .highlighted path {
            fill: var(--highlight-object-fill) !important;
        }
    
        [data-theme="dark"] {
            --highlight-value-text-color: #110875;
            --highlight-id-text-color: #6e4409;

            --fade-text-color: #BBBBBB;
            --hide-text-color: #121212;

            --highlight-box-fill: #EDB926;
            --highlight-box-line-color: #FFFFFF;

            --fade-box-fill: #2C2C2C;
            --fade-box-line-color: #666666;

            --hide-box-fill: #121212;

            --highlight-object-fill: rgba(72, 207, 173, 0.3);
        }
        [data-theme="dark"] text.default,
        [data-theme="dark"] text.variable {
            fill: rgb(224, 224, 224);
        }
        [data-theme="dark"] text.attribute,
        [data-theme="dark"] text.type,
        [data-theme="dark"] text.value {
            fill: rgb(144, 164, 237);
        }
        [data-theme="dark"] text.id {
            fill: rgb(255, 183, 77);
        }
        [data-theme="dark"] path {
            stroke: rgb(204, 204, 204);
        }
</style><g><title>Group of 1 objects</title><g role="graphics-object"><title>Str id23 with value "Fade ID"</title><g id="object-0"><path d="M51.798044505936744 23.383683539037033 L250.05198736639326 24.700430376557605 L251.10521848729363 153.96106748267118 L51.20973311054691 154.41638978250728" stroke="none" stroke-width="0" fill="none"/><path d="M48.57772305386868 26.20577961379919 C120.01333916462694 25.870421322146015, 191.58720517863935 26.089174492985666, 250.64336160717758 23.229288633923172 M50.020954663842865 25.44504369847986 C92.84309893530006 23.19943382506959, 133.7825696025163 24.046180027890017, 250.81120668912078 25.345851409399174 M248.2965167188555 26.85818886793967 C251.5263024751327 59.18360368408237, 250.26043819125218 93.14716654381839, 248.80941110173984 155.72743029411217 M250.80433366706228 24.162083103320143 C249.00552696273908 72.75699822669183, 248.70973196507867 120.86267412853485, 250.0114154062181 154.61802783810066 M248.49462902544101 154.64096185660497 C203.47607786481493 154.72471228802286, 155.81578750389306 154.88410021102212, 49.62561322057469 153.3612462722057 M250.30701589618974 154.1686437205764 C189.74445111643487 154.8838485074137, 131.471216155839 153.88032853429027, 49.13559793362403 155.36549196114797 M48.49653772717419 155.84532429711157 C50.0853086965434 115.3369714032005, 51.58865759080382 70.44117432546182, 49.79307359134144 24.143510451009163 M49.02346174941842 155.17472849288782 C50.36777486204809 123.94854592742462, 50.35322851401851 95.25435374382582, 49.08360495840124 24.6882504547298" stroke="rgb(0, 0, 0)" stroke-width="1" fill="none"/></g><g><path d="M43.33069813025382 18.288685159252722 L255.54055995828418 19.1716788897577 L254.6215814643349 162.86827151974015 L44.060121691897606 161.0815686908362" stroke="none" stroke-width="0" fill="none"/><path d="M43.56634601721833 17.86878863708691 C128.21447409173203 20.354075089206585, 211.8769813423705 17.43026560364881, 254.27848543927357 19.74411384931017 M43.97994974930721 18.411982376392277 C101.50202840305323 19.957910009466246, 159.4066670984213 19.507193068164202, 255.19951676570318 18.140072521229403 M254.73539395159992 20.46805077703025 C255.19017514387951 60.948418986831875, 256.1067503492697 107.13071744089618, 257.6951175717321 161.71366299418548 M255.6287866045587 19.818129256659997 C253.83926219842502 58.80800742035495, 254.39042816843545 101.06509668314952, 255.9291035794828 161.9832469053758 M256.5894326989997 160.6277095437087 C207.9434274697336 159.68500736897778, 159.99309422092074 161.41183060531483, 43.33347852809322 159.68070683307866 M255.7740871464422 161.64927300962026 C202.58753595995236 163.39129368686204, 147.66086433067943 162.21273143394242, 43.31388236028286 161.14095252071454 M42.73982932493975 162.89894139157417 C41.613844439333825 111.52414351721731, 44.75991417821312 61.401887386271866, 44.967307833245144 18.622719313888066 M43.45750311411339 161.1248512937757 C42.75073013367391 121.5426680193988, 43.38574987841668 84.71480576340358, 44.53156160506932 19.374300377888666" stroke="rgb(0, 0, 0)" stroke-width="1" fill="none"/></g><g><path d="M46.15555075231653 24.67364464370897 L106.19771238846687 22.63202503283371 L108.45154713130884 73.97077765074567 L46.83526615741755 73.5351811220468" stroke="none" stroke-width="0" fill="none"/><path d="M46.7964529059411 26.03974888652906 C68.0943050687863 28.631920289035385, 95.58815388254806 23.45680168106482, 108.77714781850875 21.927931239986833 M48.87628399971716 25.403769391384735 C62.67069188401144 25.167410828414695, 75.31686485280682 25.09921906510188, 111.79302754190313 25.820160029289184 M108.72964099225771 28.768305016055248 C114.34772024351369 37.087485006529676, 111.74808681259692 55.25096795092789, 107.41596251605446 71.6801509761244 M109.24484828049097 24.707826777479 C108.14115204925972 42.4395895078981, 108.3653846198092 57.56670832436818, 108.20476545910378 73.78588259995297 M113.6335905563827 74.64508602643198 C91.38585551737683 70.6762409800899, 76.62607056679538 75.2280294169362, 49.939041135924754 78.30798534799996 M110.82077514161477 73.61138020441648 C97.14956780359036 75.89539959578117, 82.0112809190056 74.45020948782134, 49.10737119131544 73.23972568314973 M52.499993262647706 71.67414530614936 C50.38612011578815 64.03896002211255, 49.982671096397205 52.2519593237963, 46.8485154949037 22.978105299261237 M50.55504890911271 76.74617815236108 C50.255863743638315 58.075522602085606, 52.62937565508141 37.94397281935584, 48.62028775058109 26.662719101714277" stroke="var(--fade-box-line-color)" stroke-width="0.5" fill="none"/><text x="80" y="55" style="fill-opacity:0.4; fill:var(--fade-text-color); " class="id" aria-describedby="desc-0">id23<title id="desc-0">Object id</title></text></g><g><path d="M191.01370991125057 24.275845164795513 L250.61651144586565 25.152949093099313 L251.5520214101507 76.67142081334171 L190.1262719663213 74.93242888385804" stroke="none" stroke-width="0" fill="none"/><path d="M190.52329823931223 23.428829592388265 C205.83268458010895 23.492833074107555, 223.9969269015034 24.309936995753144, 250.20035700341737 23.241541769995138 M190.2807280971388 24.401077101627695 C209.21073263773252 25.140358971748192, 228.18408238949374 24.635785575284928, 249.54553716481402 25.285864209927873 M250.5286396219766 25.970125412375502 C249.631103207107 38.290545506145854, 251.4350180269002 49.52332299265801, 249.1422370190627 76.37423490893225 M249.2597246556311 24.71346884517383 C250.31018866577529 37.547749519046754, 249.78299982653178 49.758051565813936, 250.49674801058552 75.17888802630088 M251.11585024966527 74.06225418100308 C238.1651576775138 76.38327309901736, 225.10552397298707 76.13138874879832, 190.70707156886058 74.78121018184457 M249.66467984198232 75.66964586125319 C235.72077213886055 76.08210045682617, 221.500142510994 76.32275447383896, 190.02149819186212 75.63415614809323 M188.22151990953284 73.39030984654953 C188.84055459491634 62.04441277006775, 188.97396188132484 48.92895597934002, 190.50552375259707 26.17294012644463 M189.86213318837918 75.52497687815783 C189.7437905526217 63.00587969673426, 188.66074720836332 50.10432479829676, 190.31326106726542 25.347353584857427" stroke="rgb(0, 0, 0)" stroke-width="1" fill="none"/><text x="220" y="55" class="type" aria-describedby="desc-1">str<title id="desc-1">Object type</title></text></g><text x="150" y="115" class="value" aria-describedby="desc-2">"Fade ID"<title id="desc-2">Value</title></text></g></g></svg>