<svg width="287" height="217" xmlns="http://www.w3.org/2000/svg"><style>
        :root {
        --fade-text-color: rgb(0, 0, 0);
        --hide-text-color: white;

        --highlight-value-text-color: rgb(27, 14, 139);
        --highlight-id-text-color: rgb(150, 100, 28);

        --highlight-box-fill: yellow;
        --highlight-box-line-color: rgb(0, 0, 0);

        --fade-box-fill: rgb(247, 247, 247);
        --fade-box-line-color: gray;

        --hide-box-fill: white;

        --primitive-value-color: rgb(27, 14, 139);
        --id-text-color: rgb(150, 100, 28);
        --default-font-size: 20px;

        --highlight-object-fill: rgba(255, 255, 0, 0.6);
    }

        text {
            font-family: Consolas, Courier;
            font-size: 20px;
        }
        text.default {
            fill: rgb(0, 0, 0);
            text-anchor: middle;
        }
        text.attribute {
            fill: rgb(27, 14, 139);
            text-anchor: start;
        }
        text.variable {
            fill: rgb(0, 0, 0);
            text-anchor: start;
        }
        text.id {
            cursor: auto;
            fill: rgb(150, 100, 28);
            text-anchor: middle;
        }
        text.type {
            fill: rgb(27, 14, 139);
            text-anchor: middle;
        }
        text.value {
            fill: rgb(27, 14, 139);
            text-anchor: middle;
        }
        path {
            stroke: rgb(0, 0, 0);
        }
        .highlighted path {
            fill: var(--highlight-object-fill) !important;
        }
    </style><g id="object-0"><path d="M50.370619190937944 24.265926663502416 L249.7406695668727 23.684111635518633 L249.0590057511126 153.6445962215046 L51.756611158923675 156.44343853983722" stroke="none" stroke-width="0" fill="none"/><path d="M51.00202173197556 24.181107361708985 C129.12334083051937 27.429280920255298, 208.37251270533895 27.696248490610245, 249.82230634822884 25.79198031041316 M49.22955498833125 25.389420335450048 C106.22806255344928 26.95806728727487, 162.2252716726004 25.60965031547697, 250.4058424625662 25.833320535036137 M248.7567716135916 26.48475509098991 C250.43800063181828 58.994926334340335, 251.3184447028378 91.789587777613, 251.23356593664073 154.94206699689653 M250.54353674658924 24.0717918452045 C250.0324316859285 52.45559801599316, 250.22735829248046 80.13395325422623, 250.9175511697876 155.2855612525737 M249.77774801344938 155.257909913721 C171.0079605705732 158.212812147699, 92.98885052683721 156.47967794496904, 48.51133145752811 154.72934287598696 M249.14443650910985 155.28478553305828 C192.45944221198542 155.10359741476194, 136.18204442745795 155.56781591216486, 50.06767916245972 155.53458705598902 M48.81683653929646 153.17793162608535 C47.55946924647536 106.65734394380758, 51.1499071704545 55.78224037231756, 49.98739187220161 25.631148601454527 M49.94327312469945 154.41057851836857 C51.29229214921291 114.21496781637204, 51.510397477578024 71.78551053692235, 49.40880064325674 24.78810547313529" stroke="rgb(0, 0, 0)" stroke-width="1" fill="none"/></g><g><path d="M43.99798686241697 19.567250536069835 L257.8405977159193 17.34519590360353 L257.5064892837675 162.30657536888225 L42.63590388609747 160.99299169449003" stroke="none" stroke-width="0" fill="none"/><path d="M44.65417386914524 18.91039518133022 C96.55195624521527 19.30031000091071, 151.53955723458455 21.098065962666364, 254.3978501804664 20.061001598180095 M44.743226402151734 18.685133169059185 C120.7583379791126 17.09880161469373, 196.91798742476462 18.637667713668943, 255.46694022695203 18.20683221078787 M256.3247203903421 18.640846763810664 C254.75766153225175 58.391797296726644, 254.61852253188738 99.61370926123186, 257.29467416926997 162.95585269579416 M256.8130589742333 18.616156395168485 C256.4241405036124 74.09642487549677, 257.32700541663735 129.950550392499, 256.1361265214365 161.15249706843207 M256.7024248617446 159.32783124364605 C172.55699709607384 162.59821915285647, 90.19128285572293 161.8985475792048, 44.215226759914344 162.14378979176195 M256.7687580045532 161.03602422211904 C196.86876747714348 160.78475141978168, 137.8488970770639 161.56268206826945, 43.50394546828358 160.6248060104869 M44.49125107418759 159.62247141403572 C43.77766913744125 115.2919281372287, 43.76341946568179 67.50863984988457, 43.551392974253964 19.405771892287127 M43.633053112437054 160.30765129778237 C46.15522518866446 117.04441271508075, 45.9465824121867 73.35764518473952, 43.188029828597195 18.52499599303052" stroke="rgb(0, 0, 0)" stroke-width="1" fill="none"/></g><text x="150" y="115" class="value">"Fade Type"</text><g><path d="M51.47678151932226 23.458209878013093 L111.01076985034743 23.234901821094947 L109.73004180380448 73.44560217337263 L48.18929409632171 73.03971103220427" stroke="none" stroke-width="0" fill="none"/><path d="M51.66536193507348 25.772411590516192 C74.38174312836861 24.687602050296558, 96.099440550238 23.241843256178164, 109.30548537621712 25.236824971724403 M49.0084821658219 25.059314850478703 C69.45066584350835 25.69415328886908, 87.72301602917614 25.836509841299044, 109.33221710570261 25.64359267945622 M110.45871018236076 23.106577961063273 C110.2847514207283 40.32596789396782, 111.8823234208002 52.860862354502046, 108.00793063877882 74.96128575636196 M109.96956208579014 25.987851661699207 C111.03798741534114 39.20180204212362, 110.14146629376337 52.487959564039365, 110.21378081438591 74.61914293408437 M109.78096598301721 74.96374824533726 C86.38773618766508 76.02940330337522, 65.56372160145177 76.15637195226859, 48.32214098719402 75.06805770436756 M109.78248313984365 75.18120204506342 C96.55426316659035 75.88200316095872, 82.6999079447087 75.88862178689993, 50.42958056666925 75.8927238237183 M49.351849521468395 76.40807470633943 C48.9907983535354 60.38189119804099, 49.502157307870945 46.967674358146894, 51.666159402972646 24.22959312571887 M50.656752275338405 74.6042846561316 C51.019383637629865 62.77096366824153, 49.44267465507609 52.08495586758595, 50.11968048238533 24.006105513542845" stroke="rgb(0, 0, 0)" stroke-width="1" fill="none"/></g><g><path d="M193.3574718877728 28.78895246341763 L248.7805302542021 26.971652145767926 L250.94515845859243 71.21611228496558 L190.67964940301528 73.95196132786681" stroke="none" stroke-width="0" fill="none"/><path d="M189.428390385506 21.555308174004807 C213.1318009051287 27.956109835947185, 232.8450724572631 27.13108750937219, 250.624847340088 26.912485111055375 M189.86921997131174 23.24586864181756 C205.12589675136667 26.371191539366535, 224.14465319330446 24.93398663441742, 249.24424509263048 26.037292501453685 M253.6727756243572 26.24102529714197 C248.53585389454923 38.72188372316879, 253.79144952273066 61.0263581189324, 246.0791904801612 75.73277327679986 M249.95094099706648 24.09561233410618 C249.67475167481868 44.56552764996202, 251.00058985846692 62.00921453033979, 250.70301794395124 76.36228767772003 M253.82926781254898 72.63634294946048 C226.36229971556665 70.46928790568245, 207.82951441653387 75.97516436987794, 192.85073625343273 73.54458067182811 M249.64125174388923 74.15041633304136 C238.22350791332013 74.22519644434145, 226.7282801205532 74.62387373558758, 188.69878333657462 73.72672616278214 M186.45339301112102 73.01773287380581 C191.30532988844658 55.40943129945079, 187.64317643406483 39.02847194447618, 186.17323123767204 23.118270192055725 M190.5990093723854 76.01982827617202 C191.75070104539193 65.95080305022164, 190.6971083989599 52.0379237560714, 188.34834839019575 25.188042019291903" stroke="var(--fade-box-line-color)" stroke-width="0.5" fill="none"/></g><text x="80" y="55" class="id">id24</text><text x="220" y="55" style="fill-opacity:0.4; fill:var(--fade-text-color); " class="type">str</text></svg>