<svg width="262" height="217" xmlns="http://www.w3.org/2000/svg"><title>Python memory model diagram showing objects</title><style>
        :root {
        --fade-text-color: rgb(0, 0, 0);
        --hide-text-color: white;

        --highlight-value-text-color: rgb(27, 14, 139);
        --highlight-id-text-color: rgb(150, 100, 28);

        --highlight-box-fill: yellow;
        --highlight-box-line-color: rgb(0, 0, 0);

        --fade-box-fill: rgb(247, 247, 247);
        --fade-box-line-color: gray;

        --hide-box-fill: white;

        --primitive-value-color: rgb(27, 14, 139);
        --id-text-color: rgb(150, 100, 28);
        --default-font-size: 20px;

        --highlight-object-fill: rgba(255, 255, 0, 0.6);
    }

        text {
            font-family: Consolas, Courier;
            font-size: 20px;
        }
        text.default {
            fill: rgb(0, 0, 0);
            text-anchor: middle;
        }
        text.attribute {
            fill: rgb(27, 14, 139);
            text-anchor: start;
        }
        text.variable {
            fill: rgb(0, 0, 0);
            text-anchor: start;
        }
        text.id {
            cursor: auto;
            fill: rgb(150, 100, 28);
            text-anchor: middle;
        }
        text.type {
            fill: rgb(27, 14, 139);
            text-anchor: middle;
        }
        text.value {
            fill: rgb(27, 14, 139);
            text-anchor: middle;
        }
        path {
            stroke: rgb(0, 0, 0);
        }
        .highlighted path {
            fill: var(--highlight-object-fill) !important;
        }
    </style><g><title>Group of 1 objects</title><g role="graphics-object"><title>Str id24 with value "Fade Type"</title><g id="object-0"><path d="M26.529537553780454 26.507181799945887 L225.94763457251474 25.330346006841296 L225.11299499631568 155.54799923496688 L23.442842111913265 153.4726298478937" stroke="none" stroke-width="0" fill="none"/><path d="M24.43539343439492 25.176723737788155 C83.4415888075665 24.033700684695365, 140.04317307860495 23.33477266288718, 224.26979837457162 25.800677915735346 M25.566213972234486 24.7732353229472 C76.25107266677249 23.74870622030787, 128.94600600138168 23.949055298404215, 224.55800849404815 24.57003454092985 M226.47073437139747 25.862543762991457 C226.34870915712318 55.8901682062593, 225.451065547299 82.5301744575729, 226.04186319417852 155.4816853374576 M224.8183036394957 25.559578409271733 C224.09905839491174 59.915645230711085, 224.71152895757888 94.06072526227855, 224.3084546404488 154.75315740626402 M223.8587783941962 155.51793529040435 C157.97787654209063 152.7691047936311, 89.46879277658941 154.04864432079796, 24.78031873791593 155.04458832116427 M225.41276616294886 154.35740507859634 C181.4329234477527 154.54223513710855, 137.81056562701193 155.3912283277475, 24.948094380430206 155.21466243074843 M24.988245751694443 156.82289235627863 C27.134200826275563 110.30928255281319, 27.93764487983123 65.77139222341617, 23.330204050296466 24.208558393599155 M25.473027100891997 154.99335308190973 C23.744490435923538 120.5823465657533, 24.18233845230847 85.13101695263082, 24.112516826253124 24.647784448494615" stroke="rgb(0, 0, 0)" stroke-width="1" fill="none"/></g><g><path d="M20.484314753011503 19.518715938226187 L232.6600358895057 17.64487570949956 L230.12087179120587 160.11565025452816 L19.031883006572176 161.7527224817347" stroke="none" stroke-width="0" fill="none"/><path d="M17.49846380392506 18.128816109191124 C99.8051352940287 20.27196946441147, 179.69054529467314 18.68620157854031, 231.71413821882285 20.310914438908714 M19.69156604972662 18.538045091759994 C67.94992545129439 18.658634755876687, 116.19166377997686 19.39962611577436, 230.96490424142928 18.827768049306243 M229.26234894072638 17.786496589722304 C228.4289287022075 66.8390510716278, 228.83381974894795 117.81094151054228, 229.04033695973513 161.9056112458881 M230.63612846297036 19.01601581266668 C230.6808648441208 59.8651373502002, 231.9147468026953 102.14729413224177, 231.6891415220444 161.72128515908588 M229.377918509056 160.86924956244752 C189.034457000243 158.45934630131356, 143.84035071203448 160.27493074339614, 19.92566587717766 162.46417033245254 M231.15537212297704 161.03086564103623 C163.4892154003422 158.65089780326244, 97.21886112015964 159.23610938398934, 19.709270838754392 160.5648807370395 M19.491126846635403 162.81504658860436 C17.000599342210773 127.1882365374947, 18.28841424900854 93.92229088036888, 17.79340487545721 17.009743263405475 M19.078130203515144 160.10886861083443 C17.936666865109757 106.07485944865502, 17.642791653783014 50.333075156603044, 18.349766167582818 18.665006564054757" stroke="rgb(0, 0, 0)" stroke-width="1" fill="none"/></g><g><path d="M26.46361520970897 26.234930461884055 L83.7159496535374 25.4131228787295 L84.10569378990796 75.57811854835562 L25.131622512480902 74.37801859645715" stroke="none" stroke-width="0" fill="none"/><path d="M26.27778026732068 26.57600828996575 C45.72810088557395 23.857804280985235, 65.98083471080756 23.517756348225923, 83.76802377439068 24.032189516832688 M25.00586857598459 24.898525384608092 C41.83570100113472 25.204270929547494, 57.715850414973694 24.254173436784793, 84.07726508184312 24.80823337336861 M85.16995185995928 25.748634172683307 C85.36728991697683 38.400734600887944, 85.67177852585075 51.15688727088318, 85.15000099402184 73.168882118496 M84.42004600180661 24.76015607784796 C85.27655892734626 36.2263496688715, 85.25701947744942 47.34753598759904, 85.83500572834868 74.76053812251813 M85.95499906153947 74.85292265584572 C68.9980422537731 73.51902707796704, 52.695535611065665 76.60764003033513, 23.04692742991316 75.74071812576081 M85.39388407851769 74.51032390189638 C61.94487306380386 74.86306784145343, 39.68298267079536 74.55140045206176, 25.317727350450276 75.96025865230513 M23.001963005424983 74.69612674440154 C25.11207352364983 56.906820755389795, 24.92234926479558 40.01086742610317, 26.804266550945556 25.981881090380273 M25.11629651894004 75.56931518312335 C24.524661431038613 62.64164414453542, 24.00421177349852 51.74174067376257, 25.47000825005736 25.890345724411294" stroke="rgb(0, 0, 0)" stroke-width="1" fill="none"/><text x="55" y="55" class="id" aria-describedby="desc-0">id24<title id="desc-0">Object id</title></text></g><g><path d="M166.60082686249677 25.680833613332794 L227.77553653021053 26.25977983058562 L226.9262779248678 75.64093447276625 L163.71699380815068 78.20558752456193" stroke="none" stroke-width="0" fill="none"/><path d="M168.55150945139292 25.43485062222171 C176.92658496493607 25.57946095174784, 188.3853684057137 24.560560406815014, 224.04294313824394 25.342267619594505 M164.08082294431523 26.609996124336917 C181.76794424639104 25.178598961712908, 193.9266585675602 25.01771984951135, 223.17813731586594 23.45218051057827 M227.66134633254828 26.120639307148572 C225.46986051330745 37.99562888729617, 226.70983326609002 47.33343114172502, 225.70304579453827 71.1577125272711 M226.73480538533576 23.709015144733964 C226.48412757372625 40.63805568440936, 222.88498273788275 54.433986987646534, 225.9191177301644 75.82796965922408 M223.2517897454182 76.00112697528937 C200.82340961564896 78.0540352434449, 178.2325879504913 70.72423581063661, 166.0255509937164 75.02887072313652 M224.79654630226867 76.40419768887958 C202.51665489012953 74.33689306855966, 180.3719790929747 72.81408192986609, 166.5106874736217 74.85068826829541 M161.1963449160897 72.41945714876398 C169.31735720693433 66.49101754147438, 162.690805098479 58.563726283852645, 161.39513581768597 24.626657972401812 M163.74890617373222 76.23790187301499 C163.013660803586 57.61810942160097, 163.96710719660226 41.98417999283002, 166.94448559027782 26.742444720015175" stroke="var(--fade-box-line-color)" stroke-width="0.5" fill="none"/><text x="195" y="55" style="fill-opacity:0.4; fill:var(--fade-text-color); " class="type" aria-describedby="desc-1">str<title id="desc-1">Object type</title></text></g><text x="125" y="115" class="value" aria-describedby="desc-2">"Fade Type"<title id="desc-2">Value</title></text></g></g></svg>