<svg width="287" height="217" xmlns="http://www.w3.org/2000/svg"><title>Python memory model diagram showing objects</title><style>
        :root {
        --fade-text-color: rgb(0, 0, 0);
        --hide-text-color: white;

        --highlight-value-text-color: rgb(27, 14, 139);
        --highlight-id-text-color: rgb(150, 100, 28);

        --highlight-box-fill: yellow;
        --highlight-box-line-color: rgb(0, 0, 0);

        --fade-box-fill: rgb(247, 247, 247);
        --fade-box-line-color: gray;

        --hide-box-fill: white;

        --primitive-value-color: rgb(27, 14, 139);
        --id-text-color: rgb(150, 100, 28);
        --default-font-size: 20px;

        --highlight-object-fill: rgba(255, 255, 0, 0.6);
    }

        text {
            font-family: Consolas, Courier;
            font-size: 20px;
        }
        text.default {
            fill: rgb(0, 0, 0);
            text-anchor: middle;
        }
        text.attribute {
            fill: rgb(27, 14, 139);
            text-anchor: start;
        }
        text.variable {
            fill: rgb(0, 0, 0);
            text-anchor: start;
        }
        text.id {
            cursor: auto;
            fill: rgb(150, 100, 28);
            text-anchor: middle;
        }
        text.type {
            fill: rgb(27, 14, 139);
            text-anchor: middle;
        }
        text.value {
            fill: rgb(27, 14, 139);
            text-anchor: middle;
        }
        path {
            stroke: rgb(0, 0, 0);
        }
        .highlighted path {
            fill: var(--highlight-object-fill) !important;
        }
    </style><g role="graphics-object"><title>Str id24 with value "Fade Type"</title><g id="object-0"><path d="M50.54534772236887 23.538876345613808 L250.53911167775024 26.173252247120608 L249.5707607512682 156.04287644696808 L51.18231650734666 153.06459810811097" stroke="none" stroke-width="0" fill="none"/><path d="M51.28071563564414 26.080437638843506 C121.84173239984331 22.84009824291482, 194.37062603883018 23.877249011071623, 251.24898259994356 26.557356536847614 M50.63834771448539 25.137585272680962 C115.72458589175082 26.164395145461878, 181.89314037706788 26.713639004185456, 249.5084103660255 24.874510138765174 M250.83903811656307 24.698399444704243 C249.88171235970134 53.24548567043035, 252.51942270626438 82.24500700439226, 248.78819374320003 154.03118263284605 M249.47859038141618 25.169002384555963 C250.07991750985428 77.08240338015139, 249.16286622418093 127.68016712705047, 250.00491951279142 154.10308408432576 M250.86269283754098 153.79368522626598 C170.54907850776618 153.4380121546667, 91.2865172607192 152.24974112095373, 48.687443643512715 154.04415230291417 M250.6033334495857 155.5289838532699 C201.32546342002576 155.81066892038345, 154.12839584930256 155.56757083082124, 50.43968595217375 154.99514521947995 M48.11195851344604 155.51250107560932 C51.799102168443284 127.83529943642242, 49.30783418582378 97.42608080362893, 51.853821661885455 23.80186366467889 M49.96683163467416 154.0336422694116 C50.4042704172962 127.42377005940416, 50.60793536115677 97.67377722136, 50.31603184752958 24.215017291895677" stroke="rgb(0, 0, 0)" stroke-width="1" fill="none"/></g><g><path d="M44.74137483883383 19.684413794921838 L257.30899803242477 20.186073161452995 L254.64097079852692 161.73799767687248 L43.29068461925 161.68949285429747" stroke="none" stroke-width="0" fill="none"/><path d="M45.18215956961191 18.174649322013128 C92.11938918151182 19.209695556389804, 138.4856364302527 19.7340512117162, 257.08334405801116 20.001790118972828 M44.1991359759929 18.535672436557377 C124.78765838816344 19.12056879690999, 205.94963603685045 18.665559008010472, 255.47487071006123 18.8563973757949 M255.4831590681285 20.52303984262565 C257.44168995546437 51.2043349145836, 256.0446578745416 84.21041312424244, 256.0341504515759 162.55324645711931 M255.4544256073535 18.62033106344819 C255.34546061062306 48.945112159126715, 254.84000239770737 77.67609350627035, 256.8182196855585 161.75613830599858 M257.11251090996853 161.41590209609163 C186.49413696589986 162.0443450091177, 112.88607931934047 163.0948994328304, 45.556168592838844 160.13873107254676 M255.17609689079836 161.19004630222736 C183.9159903742409 162.7341581781484, 111.01515811012196 161.8465158547189, 44.31627826751982 160.75123653965093 M43.69689186109263 161.98720838772402 C42.2003217614445 120.91037858621637, 43.69821117092033 83.85119598815164, 42.13171242419349 18.99080134861277 M44.670022009235254 161.62988314177784 C44.41805194633968 128.81013897708726, 44.23562081366926 94.9561559155088, 44.62760166533331 19.554571080352556" stroke="rgb(0, 0, 0)" stroke-width="1" fill="none"/></g><g><path d="M51.18286393765136 25.127492866966534 L108.49461381925529 23.963803608215414 L108.9055839106164 74.31282249161933 L48.19671744369716 75.50566481204214" stroke="none" stroke-width="0" fill="none"/><path d="M51.533346126849786 25.215381445751802 C68.28480295125098 25.987361101849988, 87.68840609152822 22.844999088040804, 108.90459749710061 24.692680999739345 M49.71236573961529 24.10570739517453 C72.29345687551613 23.92710456845352, 93.67053805754432 25.55339350054476, 110.79809541571449 24.733520603099507 M110.34887993454903 25.51409372893982 C109.71384345332557 41.739149580188545, 107.96224778356198 57.05618856566791, 111.45844459506628 76.49119289506204 M109.98829036468233 25.3596955953087 C110.5629433777317 37.401818509062956, 109.4162687401009 49.371042253915846, 109.56033952211925 75.19253839278451 M108.42962541701046 73.17949347287129 C97.87126970832671 76.20315737636135, 81.12237133889032 75.91796485483714, 48.81211270533232 73.56339349117953 M109.82284044951972 74.32201366247403 C89.89842440874227 74.86339728388498, 71.26150240103136 74.90657279756705, 49.33668679408263 75.16726983649332 M49.76660398130371 74.20056516016027 C48.02299601291067 60.04825892794674, 49.7801924908062 42.93138119339844, 51.14372127845043 23.733946268154543 M49.20214770146796 75.90868270537695 C50.15347471310514 56.01504336242207, 49.225414044954306 39.186435449994875, 49.21146149399262 25.31542713289941" stroke="rgb(0, 0, 0)" stroke-width="1" fill="none"/><text x="80" y="55" class="id" aria-label="id: id24">id24</text></g><g><path d="M189.95591065842774 24.86765704825237 L251.64282102051894 21.56010996827046 L246.9674146009026 71.35509492558158 L192.8235290644759 72.66110123742675" stroke="none" stroke-width="0" fill="none"/><path d="M189.7667200303105 25.706728221427284 C210.1795917236287 21.575445449987434, 224.61697590269756 27.868788857795224, 252.0702133210973 28.759435489063865 M191.5799841865731 25.915313107511658 C212.5906646286744 24.96127746204894, 233.584607420894 25.350173343010834, 249.34932818881958 25.763285732028585 M249.21345770211357 24.83949154895563 C249.87643502957124 40.15198405579452, 251.78657150372405 56.04105706052846, 252.10668449910153 73.05812933008309 M250.21134547230076 23.3824581754582 C250.01189200116255 44.069910516088065, 250.79231406044093 60.22078074168985, 251.64102776198774 76.00282271000259 M251.7067117557199 76.13516498569692 C233.34953808605653 76.23869928380026, 218.6057805998728 74.46300640275169, 191.61905611780224 72.43622377724213 M250.696475074697 76.6704758237654 C224.72769788972826 76.24413509645774, 203.78064712312823 75.38228862480122, 189.41927895628967 75.12699438261085 M186.90053154438957 73.90227974569835 C189.31747942721609 55.3048341495558, 191.14859772770816 43.41089099394187, 192.67845050820546 22.931667753981884 M188.45669789691527 76.89946575987581 C189.24659052929314 56.55108146977995, 191.49472684418896 35.77447184198815, 191.40382255258916 24.47187365110696" stroke="var(--fade-box-line-color)" stroke-width="0.5" fill="none"/><text x="220" y="55" style="fill-opacity:0.4; fill:var(--fade-text-color); " class="type" aria-label="type: str">str</text></g><text x="150" y="115" class="value" aria-label="value: &quot;Fade Type&quot;">"Fade Type"</text></g></svg>