<svg data-theme="dark" width="287" height="217" xmlns="http://www.w3.org/2000/svg"><title>Python memory model diagram showing objects</title><style>
        :root {
        --fade-text-color: rgb(0, 0, 0);
        --hide-text-color: white;

        --highlight-value-text-color: rgb(27, 14, 139);
        --highlight-id-text-color: rgb(150, 100, 28);

        --highlight-box-fill: yellow;
        --highlight-box-line-color: rgb(0, 0, 0);

        --fade-box-fill: rgb(247, 247, 247);
        --fade-box-line-color: gray;

        --hide-box-fill: white;

        --primitive-value-color: rgb(27, 14, 139);
        --id-text-color: rgb(150, 100, 28);
        --default-font-size: 20px;

        --highlight-object-fill: rgba(255, 255, 0, 0.6);
    }

        text {
            font-family: Consolas, Courier;
            font-size: 20px;
        }
        text.default {
            fill: rgb(0, 0, 0);
            text-anchor: middle;
        }
        text.attribute {
            fill: rgb(27, 14, 139);
            text-anchor: start;
        }
        text.variable {
            fill: rgb(0, 0, 0);
            text-anchor: start;
        }
        text.id {
            cursor: auto;
            fill: rgb(150, 100, 28);
            text-anchor: middle;
        }
        text.type {
            fill: rgb(27, 14, 139);
            text-anchor: middle;
        }
        text.value {
            fill: rgb(27, 14, 139);
            text-anchor: middle;
        }
        path {
            stroke: rgb(0, 0, 0);
        }
        .highlighted path {
            fill: var(--highlight-object-fill) !important;
        }
    
        [data-theme="dark"] {
            --highlight-value-text-color: #110875;
            --highlight-id-text-color: #6e4409;

            --fade-text-color: #BBBBBB;
            --hide-text-color: #121212;

            --highlight-box-fill: #EDB926;
            --highlight-box-line-color: #FFFFFF;

            --fade-box-fill: #2C2C2C;
            --fade-box-line-color: #666666;

            --hide-box-fill: #121212;

            --highlight-object-fill: rgba(72, 207, 173, 0.3);
        }
        [data-theme="dark"] text.default,
        [data-theme="dark"] text.variable {
            fill: rgb(224, 224, 224);
        }
        [data-theme="dark"] text.attribute,
        [data-theme="dark"] text.type,
        [data-theme="dark"] text.value {
            fill: rgb(144, 164, 237);
        }
        [data-theme="dark"] text.id {
            fill: rgb(255, 183, 77);
        }
        [data-theme="dark"] path {
            stroke: rgb(204, 204, 204);
        }
</style><g role="graphics-object"><title>Str id22 with value "Fade"</title><g id="object-0"><path d="M49.16724788340834 24.42657476401174 L251.61406777558915 23.46976048139694 L251.2169421701615 157.5032751332596 L53.33768235201687 152.38806828390148" stroke="none" stroke-width="0" fill="var(--fade-box-fill)"/><path d="M47.873145589912525 26.23426843511245 C119.10578296987171 24.319922695341187, 182.2488870322572 23.603986072358357, 248.03448260486613 21.86368748914069 M50.247835027172655 26.58560902199536 C103.27975216987491 20.424847863745587, 157.62517819980283 20.191913405105726, 249.9893968046769 25.640180944775732 M252.2977964109265 25.824490853772318 C252.71470281758303 61.43247260729931, 249.52851688874597 106.284366950444, 252.2421935333942 154.06901264893736 M249.42089087268573 24.188832470588387 C247.1909002400736 69.19521412715915, 247.31401664902128 115.80951509191904, 249.6058553217478 155.7587525523354 M253.5354414220524 154.9177667042484 C196.6159545778422 159.9086355367311, 145.8369803564295 157.86220412947748, 52.46767091059655 154.54866109435153 M249.80035742072033 155.43417383218707 C194.79935714559872 153.35397873456526, 142.93884763328992 154.04087612494885, 50.99614397763241 154.2306530472987 M47.79074924910924 156.77376548295734 C46.12738388557087 130.2744585736746, 46.51776756438967 95.1311701478478, 47.99982970111337 21.102625893988623 M49.602204645798935 153.8432014240528 C51.11465142585882 113.88056216929041, 50.4105945758465 76.51447431917839, 49.98755646208008 23.120544930101413" stroke="var(--fade-box-line-color)" stroke-width="0.5" fill="none"/></g><g><path d="M42.541752659789346 18.089870492871174 L257.5049779550018 20.230960092228116 L254.65829516336154 160.81364897076264 L43.66852341029449 160.7432787144365" stroke="none" stroke-width="0" fill="none"/><path d="M42.339389716089464 19.875663106583254 C120.2544513104504 17.375818174092977, 199.0613197586989 16.91528014787587, 254.2739267149754 19.31881458109627 M43.685186575834244 18.267862192184502 C97.79484977837771 20.755641506202995, 150.11853733493666 20.503255298617642, 256.1374861551558 19.56240843158008 M256.13847360439314 19.911465789964925 C257.41628415016316 65.60832797512947, 258.7207526719565 116.09594949080329, 257.7324388077844 160.22384216931007 M256.0581124782742 18.814313582008786 C256.4652411457547 51.12883413420254, 255.7516807472305 84.43498610836372, 255.0293570492462 161.8188735289996 M256.96887525417594 160.50000107154852 C208.85552322539212 158.04347242543736, 166.31006902119208 158.8595876373426, 44.207611508334814 161.2715247297726 M256.02163488926703 161.5211584312451 C194.0505415327813 162.908813346763, 133.55342427545597 162.24198420112637, 44.338344609789054 160.7361450362948 M42.026775372869984 159.7908505389918 C43.48365437218673 113.37609116509182, 40.829942118241206 70.1501751660011, 45.596414107119394 20.883890628560774 M44.98596463489217 160.5688966341796 C45.004608047379385 120.50091533362726, 43.989123382968494 80.59263032890959, 44.9702829725205 18.891248828164503" stroke="rgb(0, 0, 0)" stroke-width="1" fill="none"/></g><g><path d="M49.245537198762776 24.4576718090277 L110.62773477065161 21.536705894855274 L108.54820616800065 75.39895801389079 L47.93803871904149 78.06981116899394" stroke="none" stroke-width="0" fill="none"/><path d="M53.35509390758609 26.25427958145414 C72.51724019624335 25.79184671961323, 97.27708749602375 23.834456967403682, 113.6459608985921 21.73506224435631 M49.677995968948814 24.150415585328897 C73.29358663361195 24.171766436374448, 96.49322789947797 26.356291131549742, 110.00227044285226 25.48093404859503 M107.27952898159734 27.281875672796467 C112.64633533648646 41.06769433244125, 109.73909089950433 54.99099553598299, 113.10659151266508 75.13965094362545 M110.91043635502221 25.42656369334568 C109.98539348378372 35.47382850490865, 108.89813290179046 49.98709742675301, 111.84384789660764 74.46174591980011 M112.96430900889344 77.93318881688577 C87.61230586039677 74.44101005140026, 69.76833497434487 71.663671725215, 53.971811470665614 71.02478111924921 M110.0981445457157 75.97883034056538 C95.85929837149222 75.40897238792961, 85.50243027888224 74.81434129659236, 49.186541461419054 73.31834817946208 M46.7086488738086 74.63412320800553 C51.840879959428904 52.63402095633439, 51.54488278266135 39.090952589167856, 47.890519351882986 21.38682812236076 M51.24914941634865 74.24994125130303 C50.73005324761015 54.950740893337475, 49.90580197480885 37.51992517119949, 50.6805632209293 25.589789728889016" stroke="var(--fade-box-line-color)" stroke-width="0.5" fill="none"/><text x="80" y="55" style="fill-opacity:0.4; fill:var(--fade-text-color); " class="id" aria-describedby="desc-0">id22<title id="desc-0">Object id: id22</title></text></g><g><path d="M193.51987916331018 25.32498168039033 L251.3143995433832 28.394974517781627 L253.12151779722558 76.40494884442205 L188.92720992394229 77.83974377627177" stroke="none" stroke-width="0" fill="none"/><path d="M186.13809258572886 23.307601452009145 C203.42656939838943 24.459797655783934, 218.3346984662188 20.39293669470269, 249.37523109451746 23.54566025205453 M190.9396109922039 25.12995355638704 C211.5637291255962 24.08135742750668, 229.00790794954048 25.423790700242094, 251.6579233169125 24.521164908177834 M246.32136045570715 22.805968566480683 C248.36326229294224 42.79747788669698, 251.96390315945322 56.5744447565448, 248.8201771552658 74.69312712331592 M249.82941417232664 24.219921074428264 C247.88214124127606 35.84175393672846, 249.4071652156033 43.6491018014253, 250.64445454750725 76.884154492228 M246.61226137698966 75.0101091226175 C225.41242928228627 73.24800311224783, 205.35571352504223 74.91631503828646, 186.46628718239003 76.9030502773188 M249.59504020895469 76.94349978146414 C239.2983151732314 77.59514147195875, 223.4603504551716 77.84102745005728, 189.86320383153165 75.85733613792124 M193.26818636787684 77.26658696792624 C193.35179090002745 63.468071152754185, 186.54815080936976 47.31201273033112, 191.9038694856556 25.344778347200737 M189.8322133113155 73.18039261229812 C189.4436591641054 65.25114669117991, 189.5485060253247 52.10098597445449, 190.62033128366517 25.11461835196755" stroke="var(--fade-box-line-color)" stroke-width="0.5" fill="none"/><text x="220" y="55" style="fill-opacity:0.4; fill:var(--fade-text-color); " class="type" aria-describedby="desc-1">str<title id="desc-1">Object type: str</title></text></g><text x="150" y="115" style="fill-opacity:0.4; fill:var(--fade-text-color); " class="value" aria-describedby="desc-2">"Fade"<title id="desc-2">Value: "Fade"</title></text></g></svg>