<svg width="287" height="217" xmlns="http://www.w3.org/2000/svg"><title>Python memory model diagram showing objects</title><style>
        :root {
        --fade-text-color: rgb(0, 0, 0);
        --hide-text-color: white;

        --highlight-value-text-color: rgb(27, 14, 139);
        --highlight-id-text-color: rgb(150, 100, 28);

        --highlight-box-fill: yellow;
        --highlight-box-line-color: rgb(0, 0, 0);

        --fade-box-fill: rgb(247, 247, 247);
        --fade-box-line-color: gray;

        --hide-box-fill: white;

        --primitive-value-color: rgb(27, 14, 139);
        --id-text-color: rgb(150, 100, 28);
        --default-font-size: 20px;

        --highlight-object-fill: rgba(255, 255, 0, 0.6);
    }

        text {
            font-family: Consolas, Courier;
            font-size: 20px;
        }
        text.default {
            fill: rgb(0, 0, 0);
            text-anchor: middle;
        }
        text.attribute {
            fill: rgb(27, 14, 139);
            text-anchor: start;
        }
        text.variable {
            fill: rgb(0, 0, 0);
            text-anchor: start;
        }
        text.id {
            cursor: auto;
            fill: rgb(150, 100, 28);
            text-anchor: middle;
        }
        text.type {
            fill: rgb(27, 14, 139);
            text-anchor: middle;
        }
        text.value {
            fill: rgb(27, 14, 139);
            text-anchor: middle;
        }
        path {
            stroke: rgb(0, 0, 0);
        }
        .highlighted path {
            fill: var(--highlight-object-fill) !important;
        }
    </style><g role="graphics-object"><title>Str id24 with value "Fade Type"</title><g id="object-0"><path d="M49.06896737492447 24.398925566746737 L251.11813347485054 23.843649707666053 L248.55228033878535 155.60515674969238 L50.899206750900376 153.247132809654" stroke="none" stroke-width="0" fill="none"/><path d="M48.850212819809904 25.152582601054334 C102.72315801777107 27.879408824516354, 153.60182507729854 27.768213358189804, 249.4209962533222 26.403856120390344 M49.30613805922089 25.584210107295704 C115.77948055878575 23.41156971055075, 182.88763173927828 23.90020349053273, 249.95112129397873 25.86823796699287 M248.7619864628497 24.271803166676296 C248.79610559778192 58.36066021485911, 249.82505331318703 93.77788494317387, 248.15675532754392 154.76019316203468 M249.35801552774916 25.712233603177882 C249.5104925671703 64.47076605568944, 249.8524586480966 103.90761954167401, 249.11562227311293 155.76898660459648 M251.1563790379258 154.9238733433749 C205.295372357122 155.43389686439048, 164.95656081179104 154.42645646594406, 51.47700509007416 156.44846328804724 M249.60476648201373 155.34262092740434 C182.23849531905955 155.0265672332205, 116.08360482798551 154.91266995978637, 50.569782667259915 155.1148186816511 M49.904918096670876 155.65850964333944 C50.07944230574107 116.50183346634415, 49.825431059639115 78.15180383835094, 48.066582148130664 26.65650635260161 M50.218165008351534 155.23537094372762 C49.887415413819184 120.38550994853615, 50.65944135158776 85.37135444185509, 50.53247237890089 25.134537569894103" stroke="rgb(0, 0, 0)" stroke-width="1" fill="none"/></g><g><path d="M45.25207157437952 17.226638286057245 L255.18549851607233 17.450312781262454 L255.55978975606132 160.81242468391835 L44.925550302617104 159.2066339365841" stroke="none" stroke-width="0" fill="none"/><path d="M42.29230455543511 19.976740210227614 C113.22125792606944 18.22576743265865, 179.78789282837005 17.376695604724226, 255.11942705890328 20.00092626316817 M44.69264936046639 18.514457541594854 C108.50368481737152 17.855080536349554, 173.39150360301298 18.484777957282677, 255.61312589308784 18.97014619478043 M254.75009556549867 17.161507842011993 C253.80093633781868 60.29325191524014, 255.31561685379563 99.46894344860657, 255.6938930745859 162.20587852353844 M256.4680835383749 18.065717039739628 C255.7626054758692 66.14321987280509, 255.9001984297842 114.83845456426674, 256.0070831991827 161.39008258143517 M255.97621857899995 161.2921405825671 C193.5420181482095 164.3117265205464, 129.56551684129073 161.52626678673744, 42.680821054978075 159.47908907057052 M256.75437872295566 160.79875986051812 C184.61613045764472 162.19500135335636, 112.67595637170292 160.6940918394832, 43.18301935469537 161.70983048489424 M43.401611461261 160.46215208959563 C46.74292379030528 116.2939372767977, 46.54783571511608 72.00039614313584, 43.93900366922323 20.562246026199908 M44.12525523937541 161.66255050170685 C44.992671290910565 130.2688360335942, 43.77404306961449 99.49807955800945, 44.0767734677598 18.39028460770441" stroke="rgb(0, 0, 0)" stroke-width="1" fill="none"/></g><text x="150" y="115" class="value">"Fade Type"</text><g><path d="M49.2954544833502 24.18267352276168 L111.62729880491636 24.115077921716747 L111.87584464151061 76.27036210543503 L51.01265950791433 73.79598290371085" stroke="none" stroke-width="0" fill="none"/><path d="M50.61325393405246 24.386171476212184 C67.19176096306774 25.883091763805027, 88.14460101119946 26.144499665503456, 111.9144701580013 24.299311370413907 M49.16348798290551 24.24695230312422 C65.9011572360167 25.93176703310597, 80.28684696201474 25.018991134248957, 109.95667339421688 25.48715876353368 M108.71639977113448 23.146840346691008 C109.5897246994881 41.08838799805473, 111.0407205799227 57.01323096873711, 109.8604179328923 75.92291033162564 M109.42953261480248 24.099293100529533 C109.25120574364657 34.61509205105383, 109.0400118847799 44.367926446723374, 109.19493986089975 75.67869613739461 M108.3092602632968 76.82844902737635 C89.68244051810007 73.9285550844042, 68.9003924366452 76.84353296347935, 51.16947463456367 75.94637515599513 M109.72356199074402 74.98151561169708 C89.9709609578841 75.80057947654484, 70.82246122256966 76.16281125584183, 49.579682463520435 75.9012045736783 M49.78031929727808 75.4937088151386 C48.79858772545289 64.45165935771496, 48.514067669044806 51.67621012361673, 49.649270735152726 24.433942334686833 M50.245225585822666 75.0995806146311 C49.8438357462034 58.78345171126324, 49.92650079198866 42.03659873374635, 50.20793559823554 24.481293991642886" stroke="rgb(0, 0, 0)" stroke-width="1" fill="none"/></g><g><path d="M191.8639675392648 25.500940014243987 L249.44188239241882 21.032627102677743 L249.36910440364062 74.33854484583722 L189.76161048290604 73.36971220884737" stroke="none" stroke-width="0" fill="none"/><path d="M193.20977972209946 27.003828396164856 C205.6246193250705 23.848005689010826, 216.73804937842152 23.61518157573645, 250.88381223398196 21.795164910366857 M188.50109303543306 24.62427763410376 C206.01905550639634 26.0005652842586, 218.8400010346373 25.846395170249195, 250.60727416750976 23.996299272532163 M246.8753007059025 25.290806126521204 C247.43390532914344 38.11851296204047, 246.60348917974596 52.962510854974404, 250.09992905653496 77.39243847497006 M251.44923921763262 23.687492853843484 C250.0876169535119 44.63613949872866, 250.29898743528383 63.62619614860964, 248.33827831861186 73.7550317301901 M246.94517790861 75.30529574929167 C235.49856356182158 71.08078237115306, 216.23023931592104 73.02178669734096, 189.3410964069228 71.90115856136279 M248.8934727933058 74.83021991621068 C236.75193456996365 72.92527644525562, 223.777184617634 75.1964554078985, 188.71139520780577 75.65405192866444 M190.80549626627743 76.98275757696 C191.07350585581318 65.80771806223628, 190.09390624438697 50.583099320935034, 190.7793191228149 24.40638228584239 M189.3196144642344 74.34552546190683 C190.32093753748973 60.04289123516102, 192.24657744416427 43.55831946803502, 190.4608428002751 25.101854804240205" stroke="var(--fade-box-line-color)" stroke-width="0.5" fill="none"/></g><text x="80" y="55" class="id">id24</text><text x="220" y="55" style="fill-opacity:0.4; fill:var(--fade-text-color); " class="type">str</text></g></svg>