<svg data-theme="dark" width="287" height="217" xmlns="http://www.w3.org/2000/svg"><title>Python memory model diagram showing objects</title><style>
        :root {
        --fade-text-color: rgb(0, 0, 0);
        --hide-text-color: white;

        --highlight-value-text-color: rgb(27, 14, 139);
        --highlight-id-text-color: rgb(150, 100, 28);

        --highlight-box-fill: yellow;
        --highlight-box-line-color: rgb(0, 0, 0);

        --fade-box-fill: rgb(247, 247, 247);
        --fade-box-line-color: gray;

        --hide-box-fill: white;

        --primitive-value-color: rgb(27, 14, 139);
        --id-text-color: rgb(150, 100, 28);
        --default-font-size: 20px;

        --highlight-object-fill: rgba(255, 255, 0, 0.6);
    }

        text {
            font-family: Consolas, Courier;
            font-size: 20px;
        }
        text.default {
            fill: rgb(0, 0, 0);
            text-anchor: middle;
        }
        text.attribute {
            fill: rgb(27, 14, 139);
            text-anchor: start;
        }
        text.variable {
            fill: rgb(0, 0, 0);
            text-anchor: start;
        }
        text.id {
            cursor: auto;
            fill: rgb(150, 100, 28);
            text-anchor: middle;
        }
        text.type {
            fill: rgb(27, 14, 139);
            text-anchor: middle;
        }
        text.value {
            fill: rgb(27, 14, 139);
            text-anchor: middle;
        }
        path {
            stroke: rgb(0, 0, 0);
        }
        .highlighted path {
            fill: var(--highlight-object-fill) !important;
        }
    
        [data-theme="dark"] {
            --highlight-value-text-color: #110875;
            --highlight-id-text-color: #6e4409;

            --fade-text-color: #BBBBBB;
            --hide-text-color: #121212;

            --highlight-box-fill: #EDB926;
            --highlight-box-line-color: #FFFFFF;

            --fade-box-fill: #2C2C2C;
            --fade-box-line-color: #666666;

            --hide-box-fill: #121212;

            --highlight-object-fill: rgba(72, 207, 173, 0.3);
        }
        [data-theme="dark"] text.default,
        [data-theme="dark"] text.variable {
            fill: rgb(224, 224, 224);
        }
        [data-theme="dark"] text.attribute,
        [data-theme="dark"] text.type,
        [data-theme="dark"] text.value {
            fill: rgb(144, 164, 237);
        }
        [data-theme="dark"] text.id {
            fill: rgb(255, 183, 77);
        }
        [data-theme="dark"] path {
            stroke: rgb(204, 204, 204);
        }
</style><g><title>Group of 1 objects</title><g role="graphics-object"><title>Str id24 with value "Fade Type"</title><g id="object-0"><path d="M48.64522336460908 24.13548553623889 L249.91331296334891 24.63354413644693 L249.77899379122587 155.0187519050943 L50.58433596334024 155.06187422506142" stroke="none" stroke-width="0" fill="none"/><path d="M50.70207533928071 25.446855906378374 C90.33447279779253 23.61758260069307, 134.09093410691347 23.55657975936375, 248.62519887006295 26.66401825028047 M49.84035854986462 24.90287685543552 C126.57523102366386 24.972982566933084, 202.1896033408634 26.197898851273873, 250.36087732386014 24.33061535159243 M251.05344479215645 25.817606125707776 C248.31739137702027 59.20344635692925, 251.22437618663668 94.84111477998393, 251.23671714954688 154.56595434559395 M249.63125202146725 24.918270473268322 C248.6573322508986 53.17881856904651, 248.73110292410834 79.2189351689211, 250.65772652052522 154.0652467279957 M248.39118443832476 154.69651013529855 C206.09307799212655 154.3480654369095, 159.68613842885418 155.70956588147712, 49.64920922693129 154.7580913190071 M250.58011946628048 154.65254057120137 C179.68926517340196 154.9591386311151, 108.26665148379756 154.4871654902936, 50.74988348924098 155.5034119478566 M50.545016504188844 155.05331837852142 C50.232584158968606 124.52813858958734, 50.03617412640389 94.63430882894818, 48.167059721811654 25.342491785334005 M50.803524809283076 155.72587115740407 C50.05551028364738 113.51897698176985, 49.09834689630722 72.98683589341215, 50.906232725987955 25.269763540488412" stroke="rgb(0, 0, 0)" stroke-width="1" fill="none"/></g><g><path d="M43.26408213205835 17.774664852712462 L255.94270234770147 20.817983496183565 L257.03268064951317 161.08376488662077 L45.65404543013452 160.3102461087738" stroke="none" stroke-width="0" fill="none"/><path d="M42.56648876137101 20.08936715388557 C125.79255265127397 17.957397634361893, 206.72930151982467 19.14553480402651, 257.3583509089752 20.088023068003245 M43.26841304219667 18.64047668098222 C109.56899962263557 18.75412868729429, 175.24773132629858 18.11090841269529, 255.92962740005862 18.310545224373744 M256.91533732035947 17.400064250860357 C258.1289340065432 71.55085382001633, 258.81870704178846 124.00182054060312, 257.88868292968834 159.02259944560566 M256.0966501404915 18.28833416983505 C255.65447311876483 47.97522213339638, 255.73617392162183 78.25932531105136, 256.1198660578602 161.59190452351143 M256.3398380887312 160.9589459464413 C173.87730604530796 159.83812962235103, 93.89418562411109 160.27108799699104, 44.60026939492634 162.47650159130276 M256.64871444237104 161.10017850665756 C200.8610047516539 160.36460828443245, 144.25756462160334 160.76922807686248, 43.98661418871754 160.2383012329282 M43.94960310871022 162.7938215393263 C44.70072075895215 129.12902709525923, 43.544157752832376 99.77261655604198, 44.39020094159728 20.518788874894987 M44.8776091160236 161.497912821448 C44.74731335363445 108.42013580253557, 44.55485101552077 55.5038564244285, 44.24587757105885 19.12922918314365" stroke="rgb(0, 0, 0)" stroke-width="1" fill="none"/></g><g><path d="M51.63289219991325 26.74774643442313 L110.37493112802989 24.127445310455204 L109.01089030391306 75.82253109708928 L50.90700927023315 76.25099795818434" stroke="none" stroke-width="0" fill="none"/><path d="M48.932221906689016 23.82378671961393 C66.52713355678196 23.644855945311946, 79.39297956982251 22.739192229554583, 111.70767733055183 23.888976467326014 M50.061999220626866 24.70042936540717 C65.64634813062459 25.486593173973844, 80.71899594122024 24.929660488670603, 110.65786726921765 24.86842771556109 M108.7870513857298 25.823894092838348 C110.75413772591838 46.20512297670443, 111.96300071809262 63.24644649375839, 109.03730248680516 76.3358382142796 M109.03298595989958 25.60555149757708 C109.67983448450136 40.498150721598655, 111.18231293636848 54.71544236367438, 109.62086255868708 74.40313857173403 M109.68656101343274 74.6192392679526 C97.6158265712709 75.59538125818814, 84.03462027628467 76.4132303057375, 49.8732622840197 76.63823622218133 M110.44509015851513 74.52567039290865 C86.08329968384045 74.84713731005732, 62.89337391846654 75.83169676296457, 49.92576900363417 75.31230604117074 M48.72421812829701 76.80603530170302 C52.09164089086877 58.78944193217589, 48.977251901813716 39.10986815476266, 48.78543066406162 25.79052254216737 M50.66639394047176 75.02672672433435 C49.85234569629137 56.38860913956255, 50.161779982924244 37.5616938912352, 49.29279597014944 25.82360336071367" stroke="rgb(0, 0, 0)" stroke-width="1" fill="none"/><text x="80" y="55" class="id" aria-describedby="desc-0">id24<title id="desc-0">Object id</title></text></g><g><path d="M193.72945957278918 26.652556601504237 L250.31799963714965 25.863856931800683 L247.59675229552036 78.07269982597732 L189.97311561707085 76.36873265630373" stroke="none" stroke-width="0" fill="none"/><path d="M190.24046554785198 21.790283364125496 C207.42314434432322 26.37258791178032, 222.8983784504623 26.9605210119065, 251.50333148526235 24.158190831377027 M189.63080701836412 26.169171228124558 C205.101383584065 25.84875027040114, 224.16566097690867 25.48721569082032, 251.8370870693668 24.571953829452635 M250.84068356231717 25.593294678965655 C251.7770307873706 41.39321635908739, 251.17116026942918 62.67884926238384, 247.34696140900166 75.02427575284422 M250.4291246894304 23.758259153701953 C250.48621299926822 46.345758616510025, 247.4972082725024 65.18954271698108, 249.63142291174864 74.09127882149508 M250.41251949799187 74.98586950564206 C231.9167216543109 73.32722938217917, 222.17042274497334 77.40992036948789, 188.82116159172256 73.68203700414871 M251.13480278655726 75.82058366075285 C226.79727416695917 73.83549212763499, 208.1349517122124 76.79715671467486, 191.3398254606823 76.85569839994321 M192.6835288986155 74.37517208597339 C188.0845838645408 67.7697590744327, 186.81493113221606 56.05529607550977, 186.36514470992714 28.6970884738091 M189.21408714624593 76.4490378016354 C190.2813791128773 56.32792734865305, 191.29286547386846 38.20237367974409, 189.14137178997257 24.802107241347727" stroke="var(--fade-box-line-color)" stroke-width="0.5" fill="none"/><text x="220" y="55" style="fill-opacity:0.4; fill:var(--fade-text-color); " class="type" aria-describedby="desc-1">str<title id="desc-1">Object type</title></text></g><text x="150" y="115" class="value" aria-describedby="desc-2">"Fade Type"<title id="desc-2">Value</title></text></g></g></svg>