<svg data-theme="dark" width="262" height="217" xmlns="http://www.w3.org/2000/svg"><title>Python memory model diagram showing objects</title><style>
        :root {
        --fade-text-color: rgb(0, 0, 0);
        --hide-text-color: white;

        --highlight-value-text-color: rgb(27, 14, 139);
        --highlight-id-text-color: rgb(150, 100, 28);

        --highlight-box-fill: yellow;
        --highlight-box-line-color: rgb(0, 0, 0);

        --fade-box-fill: rgb(247, 247, 247);
        --fade-box-line-color: gray;

        --hide-box-fill: white;

        --primitive-value-color: rgb(27, 14, 139);
        --id-text-color: rgb(150, 100, 28);
        --default-font-size: 20px;

        --highlight-object-fill: rgba(255, 255, 0, 0.6);
    }

        text {
            font-family: Consolas, Courier;
            font-size: 20px;
        }
        text.default {
            fill: rgb(0, 0, 0);
            text-anchor: middle;
        }
        text.attribute {
            fill: rgb(27, 14, 139);
            text-anchor: start;
        }
        text.variable {
            fill: rgb(0, 0, 0);
            text-anchor: start;
        }
        text.id {
            cursor: auto;
            fill: rgb(150, 100, 28);
            text-anchor: middle;
        }
        text.type {
            fill: rgb(27, 14, 139);
            text-anchor: middle;
        }
        text.value {
            fill: rgb(27, 14, 139);
            text-anchor: middle;
        }
        path {
            stroke: rgb(0, 0, 0);
        }
        .highlighted path {
            fill: var(--highlight-object-fill) !important;
        }
    
        [data-theme="dark"] {
            --highlight-value-text-color: #110875;
            --highlight-id-text-color: #6e4409;

            --fade-text-color: #BBBBBB;
            --hide-text-color: #121212;

            --highlight-box-fill: #EDB926;
            --highlight-box-line-color: #FFFFFF;

            --fade-box-fill: #2C2C2C;
            --fade-box-line-color: #666666;

            --hide-box-fill: #121212;

            --highlight-object-fill: rgba(72, 207, 173, 0.3);
        }
        [data-theme="dark"] text.default,
        [data-theme="dark"] text.variable {
            fill: rgb(224, 224, 224);
        }
        [data-theme="dark"] text.attribute,
        [data-theme="dark"] text.type,
        [data-theme="dark"] text.value {
            fill: rgb(144, 164, 237);
        }
        [data-theme="dark"] text.id {
            fill: rgb(255, 183, 77);
        }
        [data-theme="dark"] path {
            stroke: rgb(204, 204, 204);
        }
</style><g><title>Group of 1 objects</title><g role="graphics-object"><title>Str id22 with value "Fade"</title><g id="object-0"><path d="M27.69870964709652 22.756275000247705 L222.98621351236645 28.425781168561343 L226.38237427985504 156.05028331361768 L24.716570359794854 154.50936570474175" stroke="none" stroke-width="0" fill="var(--fade-box-fill)"/><path d="M21.68224304323661 26.254647893820184 C99.91824443908085 25.61476745591147, 175.33121803949024 28.76654308692355, 222.85728537964928 26.89530321206196 M23.679919141065973 23.20280514999411 C89.05606873379566 24.61379246122387, 155.17362647161613 26.283587168461047, 225.02364592339535 23.32151568046948 M226.67242386740432 21.72281620659597 C226.8411959289231 75.73733260138117, 220.7328007288906 124.23730921232212, 227.8545293718224 156.2119583646201 M225.54394630822884 25.283881530234126 C224.08350684139407 71.1941022634263, 225.50926763681147 114.87878753879238, 226.64742765800227 153.71909994473452 M223.74780375062093 156.29405142611512 C169.81494451458883 153.77717681242652, 122.83590217833462 156.42562379643067, 28.013159598273308 157.7722021416948 M226.30083610748744 153.3406888469021 C168.1645131256465 156.04164486186548, 109.39208776709204 158.06255198206304, 24.050798854419224 154.0159085978008 M21.008376226585117 157.32478727903063 C21.797154165861187 107.83307857838071, 21.297264373590593 71.33617193795935, 22.414107831560322 21.225695475663404 M26.77785666554459 154.54317733783435 C25.48437099250097 116.52585431230645, 21.92675255881983 78.73480254905697, 26.031507891771128 23.98274558860843" stroke="var(--fade-box-line-color)" stroke-width="0.5" fill="none"/></g><g><path d="M17.776059204497738 17.618940026241578 L232.7227682927013 18.250660706019197 L230.23443410041858 160.6905133486395 L19.750696456487777 161.2974349543471" stroke="none" stroke-width="0" fill="none"/><path d="M17.757026284792914 20.457914459547784 C68.42796809836267 20.137040570198536, 115.57430523168381 19.403281124519324, 229.37133633644055 17.551023126421228 M19.171593219402872 18.564455680546583 C84.81483888835784 21.430048347077193, 150.10783431458785 21.050886028132727, 230.70148500124404 18.295033440685216 M230.24346877590014 20.51800300436989 C233.55975333592968 69.38528993314301, 232.36099458363748 118.40166921862642, 229.40677667848658 159.24827034207917 M231.8737806662451 19.934021689542814 C231.61272776277127 48.63132017584072, 230.59156106362127 78.78492045623939, 230.94870586196114 161.11602839087763 M230.84579985821625 160.2252830879321 C159.34034926821107 158.21525981327105, 89.50869511758907 160.4822171468872, 18.15248041479995 162.71877708472138 M231.55328820733448 161.3274313502108 C170.86477719935243 161.268686136969, 111.40903474318708 161.31582240980572, 18.655246855377218 160.40717101938534 M18.634325283959562 159.9961458065554 C17.914968502104458 104.62979013665243, 17.910453003304404 47.32456650671883, 20.440583480898972 18.513844804146633 M18.418569778187333 160.83813811304827 C18.780631161813535 129.30494739381837, 19.340506326275932 98.60824366605456, 18.83698889325806 18.55013779913347" stroke="rgb(0, 0, 0)" stroke-width="1" fill="none"/></g><g><path d="M24.21702167819317 23.338659953181804 L83.03397886900113 26.082463895488736 L87.77026389195271 78.99393226875674 L26.334465555317927 78.66511309224073" stroke="none" stroke-width="0" fill="none"/><path d="M24.17150656334723 23.265481490681864 C45.46256531650913 21.203484116096615, 62.80042987993388 26.08668744899535, 85.39383729644669 26.773634532896892 M25.614134783290837 26.618957079732507 C39.20389510850158 23.509770024747944, 50.01389147973814 24.174574621121184, 83.50242774445144 26.826942392626613 M84.18139605013516 23.497201817926538 C84.29065534197795 43.207851308170724, 87.51148562343843 66.70688243218258, 82.11250800144133 78.0892727160664 M86.91493080164746 26.80068466079545 C85.83511468982974 43.34951829738293, 84.74179139147446 64.04978923840108, 85.91595952188835 76.38485240084873 M85.06802181033291 71.95090283430865 C73.05596566467183 76.92418830952317, 57.79162943746396 76.7292461040832, 27.829672479097773 77.60473513127121 M84.49110453406523 74.2593325902876 C73.67919626460969 74.57706385103249, 59.76083588478758 77.11797834419225, 24.04875954272047 75.13166533517024 M27.437782553129068 78.89393877802647 C27.190531124992418 56.8500826617604, 23.08108931576779 44.363986938524945, 26.509170205702183 22.842120830372203 M26.546376938179222 75.92641055473062 C23.231589994258208 58.142768394586895, 23.40766062793449 43.70053347226035, 24.015961755784787 25.48156389968721" stroke="var(--fade-box-line-color)" stroke-width="0.5" fill="none"/><text x="55" y="55" style="fill-opacity:0.4; fill:var(--fade-text-color); " class="id" aria-describedby="desc-0">id22<title id="desc-0">Object id</title></text></g><g><path d="M162.26433307914297 28.90289336536394 L223.1203323277916 25.172920445759498 L222.9026765625973 71.61897722871598 L165.9009148626399 78.62132023640876" stroke="none" stroke-width="0" fill="none"/><path d="M164.68369032974596 27.63930451204645 C181.6254489353911 21.08765640354018, 200.31413122787143 24.05700326011314, 226.15487650204113 23.559195030682403 M165.0843692575021 25.294330196323877 C179.66543256717102 25.408391274290725, 192.07170677211897 24.182057246117704, 225.6012705543634 25.910245524523095 M222.19926287450244 28.590467012798083 C221.91266793007077 39.69409209448681, 220.95561048615326 53.149832576138195, 225.8522711343413 74.01216058175173 M225.8181229394305 26.08314410537048 C225.1415968635351 44.200561711147245, 222.5383804989702 61.8100187273353, 224.93059189911926 75.80081753729013 M221.55049073241716 77.56176505032425 C201.9913216095015 78.91382011786824, 176.52507234654126 78.7485052890111, 168.04371474544166 71.03627687744886 M224.43716834539927 74.790298102002 C208.73034436839365 72.14252475920138, 192.8687644872847 75.06386482326138, 166.0236939596049 75.1231343836146 M164.77865091232428 73.96895259746424 C161.5505188683425 63.816685888746, 163.0909025636029 49.318039348714805, 163.65770964838714 26.47732963703943 M163.74168791468364 73.96578863408776 C162.47571026741304 58.20019553501225, 163.13824763462904 41.5845919856276, 166.96914016236667 25.0752894988718" stroke="var(--fade-box-line-color)" stroke-width="0.5" fill="none"/><text x="195" y="55" style="fill-opacity:0.4; fill:var(--fade-text-color); " class="type" aria-describedby="desc-1">str<title id="desc-1">Object type</title></text></g><text x="125" y="115" style="fill-opacity:0.4; fill:var(--fade-text-color); " class="value" aria-describedby="desc-2">"Fade"<title id="desc-2">Value</title></text></g></g></svg>