<svg width="287" height="217" xmlns="http://www.w3.org/2000/svg"><title>Python memory model diagram showing objects</title><style>
        :root {
        --fade-text-color: rgb(0, 0, 0);
        --hide-text-color: white;

        --highlight-value-text-color: rgb(27, 14, 139);
        --highlight-id-text-color: rgb(150, 100, 28);

        --highlight-box-fill: yellow;
        --highlight-box-line-color: rgb(0, 0, 0);

        --fade-box-fill: rgb(247, 247, 247);
        --fade-box-line-color: gray;

        --hide-box-fill: white;

        --primitive-value-color: rgb(27, 14, 139);
        --id-text-color: rgb(150, 100, 28);
        --default-font-size: 20px;

        --highlight-object-fill: rgba(255, 255, 0, 0.6);
    }

        text {
            font-family: Consolas, Courier;
            font-size: 20px;
        }
        text.default {
            fill: rgb(0, 0, 0);
            text-anchor: middle;
        }
        text.attribute {
            fill: rgb(27, 14, 139);
            text-anchor: start;
        }
        text.variable {
            fill: rgb(0, 0, 0);
            text-anchor: start;
        }
        text.id {
            cursor: auto;
            fill: rgb(150, 100, 28);
            text-anchor: middle;
        }
        text.type {
            fill: rgb(27, 14, 139);
            text-anchor: middle;
        }
        text.value {
            fill: rgb(27, 14, 139);
            text-anchor: middle;
        }
        path {
            stroke: rgb(0, 0, 0);
        }
        .highlighted path {
            fill: var(--highlight-object-fill) !important;
        }
    </style><g role="graphics-object"><title>Str id23 with value "Fade ID"</title><g id="object-0"><path d="M49.15794461276879 25.250475288025903 L248.49226416202984 25.02858403012663 L251.95297498006283 154.66694645495335 L49.1886100065944 154.6280223402207" stroke="none" stroke-width="0" fill="none"/><path d="M51.687986245984995 25.10108465116348 C123.794003355689 26.313750467509035, 198.29985014492672 23.9387004451551, 249.39415671799523 25.533705510564506 M49.118515503467485 24.912702957669392 C125.15517422104784 23.106641698769202, 201.50565269279403 23.292085516728555, 250.8973999278384 24.166448332050564 M249.72656039551552 23.594504054813463 C251.17016340140063 53.74822704943234, 249.26877735692426 81.65884810172943, 249.15702865884393 155.08994888329858 M250.31762602361434 24.401771407517046 C250.2211808011703 62.70100670448307, 250.28187852754837 101.70080874433181, 249.9064228693503 154.31533069557824 M249.72549272715753 155.26118525099162 C180.86611010269712 157.11077403641275, 112.26040726824411 157.3868362487034, 49.59290687145292 155.68127650489504 M249.95836829516958 155.2383767364999 C190.99970379181957 157.01817917419166, 132.91585717675355 157.36807996228484, 49.58814177682435 154.3661723864926 M51.493265683262116 154.3641286420446 C50.30452870133296 110.65024047537526, 50.621393750391995 64.38620918626869, 50.17169180596947 23.58705400170568 M50.62691728202317 154.44688853925214 C49.43937131441371 129.50582799135984, 49.038462951170125 103.33866570222526, 50.09454938724327 24.20546755091863" stroke="rgb(0, 0, 0)" stroke-width="1" fill="none"/></g><g><path d="M43.44197584485386 18.743367297495265 L256.00299248829197 17.316706649775796 L257.8931276451087 159.76475470812966 L45.45919994401134 161.07614727561202" stroke="none" stroke-width="0" fill="none"/><path d="M45.57405689232456 20.366892818546507 C112.43990696932545 19.984580636822642, 184.93193581095528 17.04439355153049, 255.15783844470005 17.405319964746703 M43.422218424258396 18.868397227283626 C98.40850648265572 19.576346864033987, 151.70559837312206 19.12661428304363, 255.45090134580568 18.19252610828711 M257.40082998639656 20.101138580015245 C256.69932220063805 73.78526068758887, 255.8802548113545 128.5020757943262, 254.8441031218818 161.73817715874998 M256.4118935907405 19.396496958749644 C256.87375861923385 61.73788052898314, 255.3162685136992 107.06770698085704, 256.7329585877097 161.5051908205664 M255.149363021677 162.08254277872024 C205.79445391103394 161.71060182191258, 154.33953000622554 161.8046835059712, 44.318859470905394 159.48910964219831 M256.641270482594 160.9540060484035 C191.8398664371642 161.33887433189446, 126.25048589255555 161.1346005817475, 44.62120208376099 161.5402171721521 M42.43926463872551 162.95700316063454 C46.240367437607944 124.06821229749914, 43.734343430010576 88.39776312716275, 42.6287087393016 17.765417419597824 M44.663634357652484 160.49126950496768 C42.718301616829905 131.25149722703406, 42.869600438419155 103.03261276515319, 44.746536888262796 18.040501012268912" stroke="rgb(0, 0, 0)" stroke-width="1" fill="none"/></g><text x="150" y="115" class="value">"Fade ID"</text><g><path d="M52.345646834620176 23.114445486556967 L111.19083231217567 23.68565625048827 L109.70030262139618 74.36282566196049 L53.01911829936162 76.95289441009668" stroke="none" stroke-width="0" fill="none"/><path d="M48.27100221002066 23.803966484122803 C58.88897170914218 22.223462954444216, 71.41254240304366 25.517267057550836, 108.27233884839708 24.343812515929137 M49.44356627011062 26.65732055371092 C68.41735210158052 25.01798206095889, 86.19768365093363 25.533549063266648, 108.71205753073096 24.298214798103295 M110.98094701102481 26.251535822958257 C111.25845357602131 41.44470749239016, 111.19986896334672 64.29500529677017, 113.70272495089128 77.6516340074789 M109.74309291154019 24.543115621154396 C109.04392027645083 44.33187073045359, 108.49393575264693 59.2745644336098, 110.73200689334546 75.52379611684596 M113.39297144261059 73.6884333767576 C94.05110613216614 76.34039873359696, 70.88178503828487 74.74910735472362, 51.539880866132826 74.78946525664286 M109.83248332821697 76.23948147435473 C88.09866292830147 75.84830569264024, 68.77068849805919 75.46246865337824, 49.92233041335294 75.26977321997107 M48.28676740566869 71.56936953615353 C51.26264190238154 56.20426603249019, 49.829154770177794 39.56462827143099, 52.45878419608411 26.086220566208855 M51.972842662046794 74.69719775545491 C49.80029678884242 63.56913258430534, 51.88454401097855 51.606713034695524, 49.755715455922285 24.046430888890402" stroke="var(--fade-box-line-color)" stroke-width="0.5" fill="none"/></g><g><path d="M188.46108722098327 23.93701705835864 L251.7209109223409 24.953878240363693 L251.37924113015487 75.66565182772648 L191.77823138808722 75.38912428114978" stroke="none" stroke-width="0" fill="none"/><path d="M190.86034293052393 23.435832727485455 C205.99834517454195 24.84919953828072, 218.4222272504664 25.3838778909704, 248.80560285194858 23.47952920042816 M190.6723839736345 24.5812024138048 C205.78615758044012 25.156220784020125, 222.49473019858212 25.142995084628403, 249.9913470466319 24.532487020706313 M250.94102479517056 25.869908945388225 C250.0066179697884 39.27083989251138, 250.26158963243253 53.902483969326184, 249.50115484206077 74.7769653057256 M249.5901181957628 25.76500190845387 C250.63117921095917 35.419726281686344, 250.46268021605715 45.11148866391717, 250.9496582097026 75.9079814064802 M251.20268833554223 76.43852951704741 C235.573851535422 75.46003500020083, 218.00417663548936 72.61948469824476, 188.382850834557 74.2735291948562 M250.7250253163166 75.78397272053544 C232.11200657571567 74.4390537814036, 213.19042913870172 75.91731528105117, 190.56142759094854 75.40921847551998 M191.7029257736605 74.26534360279113 C191.46973115720888 58.082975754592496, 189.88815032336265 40.203124787834625, 189.4592436330863 26.408853483859332 M190.84612286101003 75.73043321437393 C190.50941942640475 59.72954832236943, 188.83568779768493 45.18822087996313, 190.91800240811727 24.162730271735175" stroke="rgb(0, 0, 0)" stroke-width="1" fill="none"/></g><text x="80" y="55" style="fill-opacity:0.4; fill:var(--fade-text-color); " class="id">id23</text><text x="220" y="55" class="type">str</text></g></svg>