<svg data-theme="dark" width="287" height="217" xmlns="http://www.w3.org/2000/svg"><title>Python memory model diagram showing objects</title><style>
        :root {
        --fade-text-color: rgb(0, 0, 0);
        --hide-text-color: white;

        --highlight-value-text-color: rgb(27, 14, 139);
        --highlight-id-text-color: rgb(150, 100, 28);

        --highlight-box-fill: yellow;
        --highlight-box-line-color: rgb(0, 0, 0);

        --fade-box-fill: rgb(247, 247, 247);
        --fade-box-line-color: gray;

        --hide-box-fill: white;

        --primitive-value-color: rgb(27, 14, 139);
        --id-text-color: rgb(150, 100, 28);
        --default-font-size: 20px;

        --highlight-object-fill: rgba(255, 255, 0, 0.6);
    }

        text {
            font-family: Consolas, Courier;
            font-size: 20px;
        }
        text.default {
            fill: rgb(0, 0, 0);
            text-anchor: middle;
        }
        text.attribute {
            fill: rgb(27, 14, 139);
            text-anchor: start;
        }
        text.variable {
            fill: rgb(0, 0, 0);
            text-anchor: start;
        }
        text.id {
            cursor: auto;
            fill: rgb(150, 100, 28);
            text-anchor: middle;
        }
        text.type {
            fill: rgb(27, 14, 139);
            text-anchor: middle;
        }
        text.value {
            fill: rgb(27, 14, 139);
            text-anchor: middle;
        }
        path {
            stroke: rgb(0, 0, 0);
        }
        .highlighted path {
            fill: var(--highlight-object-fill) !important;
        }
    
        [data-theme="dark"] {
            --highlight-value-text-color: #110875;
            --highlight-id-text-color: #6e4409;

            --fade-text-color: #BBBBBB;
            --hide-text-color: #121212;

            --highlight-box-fill: #EDB926;
            --highlight-box-line-color: #FFFFFF;

            --fade-box-fill: #2C2C2C;
            --fade-box-line-color: #666666;

            --hide-box-fill: #121212;

            --highlight-object-fill: rgba(72, 207, 173, 0.3);
        }
        [data-theme="dark"] text.default,
        [data-theme="dark"] text.variable {
            fill: rgb(224, 224, 224);
        }
        [data-theme="dark"] text.attribute,
        [data-theme="dark"] text.type,
        [data-theme="dark"] text.value {
            fill: rgb(144, 164, 237);
        }
        [data-theme="dark"] text.id {
            fill: rgb(255, 183, 77);
        }
        [data-theme="dark"] path {
            stroke: rgb(204, 204, 204);
        }
</style><g role="graphics-object"><title>Str id23 with value "Fade ID"</title><g id="object-0"><path d="M49.8697148106786 24.323261580523834 L249.66120161354797 25.54008846812671 L249.1600349005278 154.08162292389872 L49.902812702122134 156.20112177754214" stroke="none" stroke-width="0" fill="none"/><path d="M51.775981514363586 23.65700151914215 C104.73497381741859 24.600066205246225, 158.78896138313542 24.207738319213334, 250.66147465116552 24.85369403758065 M50.47722667087367 24.965345626891338 C92.8430227001989 22.901030445067484, 136.84724889177357 22.730123497704056, 249.15798135039103 24.257191438570352 M251.87637392828157 25.064178283847838 C251.0897853762188 63.54611767479641, 250.16897884991033 104.46395997841776, 251.73465538768326 154.36595487329325 M250.99321083407781 24.045697086082374 C249.51543161534832 62.01192794957086, 249.2332048223755 98.6295858798904, 249.53206127851018 155.97769549062144 M249.31478238308043 153.7864440910372 C184.09031930210008 155.47437096726225, 121.6845096332483 153.83514256047505, 49.30982913316066 156.60427321483064 M249.81154104430675 155.28739075289639 C173.63410184908923 155.2740116065951, 98.688897503824 153.73406730591873, 50.84093838657746 155.15017628860357 M48.70367293973109 155.1671022581077 C49.54317127531972 122.14289038777788, 49.971220358193115 86.2946048864563, 51.44637733961496 23.958459040465236 M49.73135248273175 154.90852907131207 C49.80777954436031 114.14712171318315, 49.47314067661189 71.83388051590174, 50.692692363460765 25.06706630028665" stroke="rgb(0, 0, 0)" stroke-width="1" fill="none"/></g><g><path d="M42.569564123390954 18.500382011752 L256.64486261678894 17.33634846801535 L257.73529783598923 159.02067708197222 L45.01450356596649 159.27347984956364" stroke="none" stroke-width="0" fill="none"/><path d="M44.28282914718448 18.939266815190756 C104.58383676432263 19.501309603093958, 162.50465240582298 20.85571056521392, 255.2248679323528 18.43996017858647 M43.56877255741548 18.3933454425601 C105.61801821670674 19.730015754269782, 166.89600676803758 19.52205583323942, 255.89049903876702 19.662933850999526 M254.63459640899327 20.345166178419767 C255.86381052554106 70.36189063492311, 255.03752580006827 118.08313695089441, 255.501015052039 160.360728207753 M256.2895447937058 19.999919833986514 C257.44511731167916 67.9941817305743, 257.6638336518407 116.4930261397909, 256.5769817301788 160.1407377943792 M255.48588108594555 159.52590473084302 C193.40216818734402 162.1591459789123, 128.17365142765695 159.23824262609207, 42.344916490159434 159.50784451490114 M256.03751548394195 160.3537628581643 C191.8710480996832 159.30224978945193, 127.47574595719313 159.563644993949, 43.25113353643918 161.72862503736323 M42.44165629384088 159.0698255457309 C42.825690229391924 110.50541363419576, 42.3793976728069 59.050157385549674, 42.85523719361191 17.50636934489721 M43.40033272933363 160.03222364292205 C43.54597191837848 120.84994012812903, 42.251074669615434 80.54272397244696, 44.56760599698144 18.80110818215206" stroke="rgb(0, 0, 0)" stroke-width="1" fill="none"/></g><g><path d="M48.6132021202073 25.04927530067681 L107.60179126747636 24.7376477915223 L108.3956299142766 73.12059256772358 L50.70798168269053 75.7985785489684" stroke="none" stroke-width="0" fill="none"/><path d="M49.41734833060677 28.218910501203396 C72.11819041757154 26.946956614649896, 92.13168387934128 20.365753159113172, 106.22130950166978 26.98107025267514 M50.156344402818156 24.845254746977307 C68.26811652794186 26.02141544522971, 90.27983230799343 23.92678515195147, 110.73112604683901 24.042259119837777 M113.16453239658574 28.459727650998587 C106.13110599219365 39.72611070507645, 112.33944902116633 55.603948581105236, 111.76607343480289 73.08287206867358 M108.56894476000527 25.50524392015889 C109.53173570375141 37.63592099518261, 108.57641898830141 51.04278901403882, 108.5237248313696 75.65585206935744 M108.75725773830231 76.9938864295123 C85.83833318003144 76.11439365716193, 71.13445707392853 77.42490022239838, 53.68102029806354 75.94229094755887 M110.40348305440426 74.15392243512365 C97.39814623627375 75.90886255962427, 83.41608767931372 75.0667645285075, 51.95556194545054 75.05959875694916 M49.49519948108654 74.04609371785116 C45.54487019535814 56.21084122204305, 45.385601172315944 41.88457729188141, 51.94137955017267 24.66940545276482 M51.42777579922169 74.38108902953836 C52.07444078580389 63.91131962185885, 52.502658786185066 49.915052190173625, 49.540968244242855 23.871232257050526" stroke="var(--fade-box-line-color)" stroke-width="0.5" fill="none"/><text x="80" y="55" style="fill-opacity:0.4; fill:var(--fade-text-color); " class="id" aria-describedby="desc-0">id23<title id="desc-0">Object id</title></text></g><g><path d="M189.23889097144627 24.44227430349785 L251.91991849587242 24.1123976141689 L249.5424513208686 75.0015094980966 L190.0009457517895 76.375540659058" stroke="none" stroke-width="0" fill="none"/><path d="M191.19390542605436 24.68693949355088 C211.62804207055774 25.183813662891282, 229.16525982902238 26.23740162773037, 250.12025789101304 23.45726546248198 M190.94018866204846 25.602613639609242 C209.22367913545924 25.349118901664777, 228.96129780257598 23.96133627233914, 249.11849449650055 24.62515595097563 M248.73393401303798 25.31353141987977 C248.44639890577514 38.33440504415644, 251.20277589501652 46.4193785332395, 251.13151700085018 74.36505869524298 M249.1986777134207 24.997719129132296 C250.2858137058504 43.61744886395296, 249.81168892413652 63.958841075450025, 249.80048511124525 75.60319744602695 M248.48438209876076 76.03564113108531 C230.41531313593757 74.21411218239213, 209.2518200462353 75.00787996376413, 189.85454421867294 76.95497759881874 M250.03920236063735 74.75507562765506 C234.33072881935118 74.09711474243474, 218.09314606911445 74.73185127658881, 189.12891668495908 74.5144892059268 M189.1115908766152 74.8230550078964 C189.25602999263094 58.20940721966359, 188.554876722024 42.04040902184287, 189.44945017395705 23.653974757512994 M189.3139728468906 74.35234061800745 C191.0211928255919 59.87779624651131, 190.22208574518748 45.597982944455744, 190.01048072693897 24.77867492871678" stroke="rgb(0, 0, 0)" stroke-width="1" fill="none"/><text x="220" y="55" class="type" aria-describedby="desc-1">str<title id="desc-1">Object type</title></text></g><text x="150" y="115" class="value" aria-describedby="desc-2">"Fade ID"<title id="desc-2">Value</title></text></g></svg>