<svg data-theme="dark" width="262" height="217" xmlns="http://www.w3.org/2000/svg"><title>Python memory model diagram showing objects</title><style>
        :root {
        --fade-text-color: rgb(0, 0, 0);
        --hide-text-color: white;

        --highlight-value-text-color: rgb(27, 14, 139);
        --highlight-id-text-color: rgb(150, 100, 28);

        --highlight-box-fill: yellow;
        --highlight-box-line-color: rgb(0, 0, 0);

        --fade-box-fill: rgb(247, 247, 247);
        --fade-box-line-color: gray;

        --hide-box-fill: white;

        --primitive-value-color: rgb(27, 14, 139);
        --id-text-color: rgb(150, 100, 28);
        --default-font-size: 20px;

        --highlight-object-fill: rgba(255, 255, 0, 0.6);
    }

        text {
            font-family: Consolas, Courier;
            font-size: 20px;
        }
        text.default {
            fill: rgb(0, 0, 0);
            text-anchor: middle;
        }
        text.attribute {
            fill: rgb(27, 14, 139);
            text-anchor: start;
        }
        text.variable {
            fill: rgb(0, 0, 0);
            text-anchor: start;
        }
        text.id {
            cursor: auto;
            fill: rgb(150, 100, 28);
            text-anchor: middle;
        }
        text.type {
            fill: rgb(27, 14, 139);
            text-anchor: middle;
        }
        text.value {
            fill: rgb(27, 14, 139);
            text-anchor: middle;
        }
        path {
            stroke: rgb(0, 0, 0);
        }
        .highlighted path {
            fill: var(--highlight-object-fill) !important;
        }
    
        [data-theme="dark"] {
            --highlight-value-text-color: #110875;
            --highlight-id-text-color: #6e4409;

            --fade-text-color: #BBBBBB;
            --hide-text-color: #121212;

            --highlight-box-fill: #EDB926;
            --highlight-box-line-color: #FFFFFF;

            --fade-box-fill: #2C2C2C;
            --fade-box-line-color: #666666;

            --hide-box-fill: #121212;

            --highlight-object-fill: rgba(72, 207, 173, 0.3);
        }
        [data-theme="dark"] text.default,
        [data-theme="dark"] text.variable {
            fill: rgb(224, 224, 224);
        }
        [data-theme="dark"] text.attribute,
        [data-theme="dark"] text.type,
        [data-theme="dark"] text.value {
            fill: rgb(144, 164, 237);
        }
        [data-theme="dark"] text.id {
            fill: rgb(255, 183, 77);
        }
        [data-theme="dark"] path {
            stroke: rgb(204, 204, 204);
        }
</style><g><title>Group of 1 objects</title><g role="graphics-object"><title>Str id24 with value "Fade Type"</title><g id="object-0"><path d="M26.272669794929925 24.17309436537981 L225.50735865923556 24.21162970154753 L226.5280409086908 156.81198280997285 L23.337540640776965 153.6394552262601" stroke="none" stroke-width="0" fill="none"/><path d="M25.716324165568746 24.71834027638265 C97.37100985834437 25.87356459015706, 168.59007480932183 24.331567644038447, 225.6487642153506 24.231247780674884 M25.255155155097814 24.349218840526525 C89.67658787331234 23.485358998127158, 154.76514448548002 24.3526092945904, 225.23339979346352 24.460369150404553 M226.90988578969387 25.18950782271708 C227.1791812021523 55.61059217550283, 225.45730426055215 84.85749396448867, 224.55592647585237 155.84586701894207 M225.79300423116356 25.613274453895286 C224.4808490303437 68.83901474181135, 224.53164649009543 113.26351222921753, 224.9166134110631 154.57678160985444 M225.0726204674302 155.4171021510528 C149.97861875007686 156.98446102783413, 76.70511989543556 154.67526304821013, 26.175110280573207 155.19933173241438 M224.88230162543547 154.98582808710157 C151.58101259074974 153.29056165708144, 80.53518404055303 153.29328255571554, 25.89110895715294 154.18707853601924 M25.201170741777005 154.95779825565543 C23.778416008052915 103.74927230527808, 26.803267574239882 52.02057658045119, 23.548086314564433 25.560900714362717 M24.905178365088 154.4350966662648 C24.92073722697225 124.71679610539661, 23.903622593904903 97.12549646361569, 24.96595902587534 25.341219936543183" stroke="rgb(0, 0, 0)" stroke-width="1" fill="none"/></g><g><path d="M19.197097534809686 17.263946025423913 L229.95571738728506 19.24715787567758 L230.07060192245953 159.89673898032643 L18.17857323317067 159.05549404307823" stroke="none" stroke-width="0" fill="none"/><path d="M17.276322473428113 20.68380291086249 C77.22555844411191 18.101395286620804, 132.99340305267813 17.585832935071956, 230.28717675185075 18.10143132844779 M18.322694437313938 18.838942033954034 C86.82331719496577 18.006591731558974, 155.10744576405853 17.509083591782872, 230.86193792702812 19.844577580285264 M232.9747329084079 20.31986678160537 C230.5349085473112 55.03283670259736, 229.75218658999742 85.26402047505808, 232.09739632294924 161.2004860665593 M231.01281647038832 19.569016369255653 C229.88370342849115 65.8776377209513, 231.35184538166024 114.35154995640248, 231.68474180360735 160.24695745926283 M229.4428439950971 159.5256182157882 C164.87420038905276 160.54706670000567, 97.63263313630404 159.5195270574851, 19.87227799253198 161.303599734404 M231.00181601870807 161.471596296438 C168.88794775927263 160.66423668351885, 105.74214080365535 159.33994051959132, 18.38840805228648 161.29814733445545 M19.109862906898396 160.4412530188661 C19.511344961587106 108.42926323014368, 17.57972947072639 57.54134863440836, 17.121584963187782 20.40452463154181 M19.761770982998943 161.4409852017185 C20.441615292127235 106.47836367829389, 19.989134604983942 52.02932740088155, 19.021576654132545 18.89924329989752" stroke="rgb(0, 0, 0)" stroke-width="1" fill="none"/></g><g><path d="M23.235801787624837 24.747003805331655 L86.72854497744817 26.057943945485253 L84.96022763919181 74.56482880358445 L25.51773391746226 76.38586574367078" stroke="none" stroke-width="0" fill="none"/><path d="M23.113615997134225 24.78039592458243 C42.04186415020713 25.128377249860947, 54.90352872487316 24.161543028205877, 83.77035640601203 26.688927910506195 M24.00848534771489 24.814424519587284 C41.94573003043927 24.39160910496907, 58.79488769779609 25.05739377910275, 84.0578581051722 25.217168070318557 M83.58324428056692 26.283636743169588 C86.67228182441289 40.822750188179874, 84.71383454901844 55.104280078733844, 84.41350500024583 73.92337255490466 M85.5046338943151 24.419897178051933 C85.84510066570053 39.46963243917657, 84.70460945308534 52.282166427943324, 85.86329078472384 74.72988054687718 M86.20443334588839 75.55395146464143 C63.69139717763411 72.92155754456613, 47.11816041766954 73.79544644817796, 25.039005816332903 75.96254797184812 M84.71609909796979 75.59095136985067 C66.28302048274816 75.2862526744826, 49.07226260654707 73.64864116274383, 24.67713979727059 74.67522056154625 M24.824383187504566 75.24132453489315 C24.498143978348992 56.24178390719342, 25.16907339592693 38.42909889696887, 23.39649861301907 23.815202432895738 M25.215361845758814 75.85022955066029 C25.64335972733284 60.24064204031206, 25.1780182871863 47.371397845514906, 25.69699427051368 25.803882595959028" stroke="rgb(0, 0, 0)" stroke-width="1" fill="none"/><text x="55" y="55" class="id" aria-describedby="desc-0">id24<title id="desc-0">Object id</title></text></g><g><path d="M168.11533746582873 25.524537158971718 L226.15630420474292 25.58193745962228 L222.78743940099804 73.36411750332645 L162.5684549832456 73.42508430797034" stroke="none" stroke-width="0" fill="none"/><path d="M162.1478842618331 21.79466491954188 C181.49696728415904 21.947508269287738, 190.99702973032157 22.747509303193677, 221.42323616732662 28.782698337669967 M165.87995848605647 23.0564570598337 C177.71541664853723 22.599486918519933, 193.2553174546503 25.516417195221408, 223.57070747822522 23.935756029101032 M224.94389749504742 21.434457891909346 C226.75114528396279 42.32590679706266, 227.60095413700793 57.23383110151839, 226.76702866496382 75.45567339004054 M226.08406183578592 23.09948768895973 C226.57820433381576 42.071889612471544, 223.7543461405048 54.98481466220351, 223.61253512798538 74.02381471981757 M228.62642311233523 72.25850010496335 C204.58872752043547 77.67485746796241, 183.65170968728893 79.0500908682334, 165.45772355425254 76.54290757519937 M223.56584553774664 75.73884770498574 C203.9609464685744 76.45796613318814, 186.33106550044144 73.51985528782686, 164.82101485169846 74.27164888632578 M162.4990353534499 78.04372311637705 C168.6613224800381 59.29922038347908, 164.9730774783411 41.85565336749333, 164.3423879863554 25.333662867220205 M163.54809266686954 73.28857968743824 C165.1315612209731 61.40394971385583, 164.92646140603068 52.30471755986473, 165.41454695023134 24.500763913050662" stroke="var(--fade-box-line-color)" stroke-width="0.5" fill="none"/><text x="195" y="55" style="fill-opacity:0.4; fill:var(--fade-text-color); " class="type" aria-describedby="desc-1">str<title id="desc-1">Object type</title></text></g><text x="125" y="115" class="value" aria-describedby="desc-2">"Fade Type"<title id="desc-2">Value</title></text></g></g></svg>