<svg data-theme="dark" width="287" height="217" xmlns="http://www.w3.org/2000/svg"><title>Python memory model diagram showing objects</title><style>
        :root {
        --fade-text-color: rgb(0, 0, 0);
        --hide-text-color: white;

        --highlight-value-text-color: rgb(27, 14, 139);
        --highlight-id-text-color: rgb(150, 100, 28);

        --highlight-box-fill: yellow;
        --highlight-box-line-color: rgb(0, 0, 0);

        --fade-box-fill: rgb(247, 247, 247);
        --fade-box-line-color: gray;

        --hide-box-fill: white;

        --primitive-value-color: rgb(27, 14, 139);
        --id-text-color: rgb(150, 100, 28);
        --default-font-size: 20px;

        --highlight-object-fill: rgba(255, 255, 0, 0.6);
    }

        text {
            font-family: Consolas, Courier;
            font-size: 20px;
        }
        text.default {
            fill: rgb(0, 0, 0);
            text-anchor: middle;
        }
        text.attribute {
            fill: rgb(27, 14, 139);
            text-anchor: start;
        }
        text.variable {
            fill: rgb(0, 0, 0);
            text-anchor: start;
        }
        text.id {
            cursor: auto;
            fill: rgb(150, 100, 28);
            text-anchor: middle;
        }
        text.type {
            fill: rgb(27, 14, 139);
            text-anchor: middle;
        }
        text.value {
            fill: rgb(27, 14, 139);
            text-anchor: middle;
        }
        path {
            stroke: rgb(0, 0, 0);
        }
        .highlighted path {
            fill: var(--highlight-object-fill) !important;
        }
    
        [data-theme="dark"] {
            --highlight-value-text-color: #110875;
            --highlight-id-text-color: #6e4409;

            --fade-text-color: #BBBBBB;
            --hide-text-color: #121212;

            --highlight-box-fill: #EDB926;
            --highlight-box-line-color: #FFFFFF;

            --fade-box-fill: #2C2C2C;
            --fade-box-line-color: #666666;

            --hide-box-fill: #121212;

            --highlight-object-fill: rgba(72, 207, 173, 0.3);
        }
        [data-theme="dark"] text.default,
        [data-theme="dark"] text.variable {
            fill: rgb(224, 224, 224);
        }
        [data-theme="dark"] text.attribute,
        [data-theme="dark"] text.type,
        [data-theme="dark"] text.value {
            fill: rgb(144, 164, 237);
        }
        [data-theme="dark"] text.id {
            fill: rgb(255, 183, 77);
        }
        [data-theme="dark"] path {
            stroke: rgb(204, 204, 204);
        }
</style><g role="graphics-object"><title>Str id23 with value "Fade ID"</title><g id="object-0"><path d="M51.48886939331902 26.112486493885566 L251.83737226934198 23.605275191553744 L250.34323848571975 153.48860105137413 L48.84098422411108 155.56873634260893" stroke="none" stroke-width="0" fill="none"/><path d="M50.07587105019741 24.083152224278905 C107.00718578362167 23.4853722638803, 165.03452600204918 24.19191185022175, 251.7255720681667 23.238212758521694 M50.585609851101395 24.22693184606284 C97.30246133082997 23.077972211823322, 145.69565175551134 23.73629741545114, 250.7269328259824 25.423272747708854 M249.54679249482504 24.714665015510292 C250.56297063578907 78.16283488460238, 248.9660602270402 128.77219982479292, 249.99571448816894 153.1265247987497 M249.86474934597683 25.281439093994216 C249.28405699100253 70.07230197795931, 249.70565656457677 116.61080804023483, 249.68503293252235 155.86293897918 M250.35062946186883 153.37196969580168 C184.02552773172889 155.1416111313135, 120.70668456849528 152.7688836421116, 48.39246756141798 154.63536033785286 M249.36259179065675 154.48218480305772 C185.49832141065636 155.33211137986137, 118.53209347954652 156.28310142897746, 50.12873306815387 155.89039258529334 M50.540010508864384 155.33668952023095 C49.78866209926719 113.74512814035259, 50.860293156569995 73.96835084383623, 51.29237188458642 23.231125124299457 M50.84376806036397 154.79833715320135 C51.59836428067541 111.96321067853947, 50.83612484152189 67.41051359820426, 50.849365156347496 24.74182955181164" stroke="rgb(0, 0, 0)" stroke-width="1" fill="none"/></g><g><path d="M43.50052089310939 19.23464889589783 L254.8300003298953 18.290948347221207 L254.1841642489396 160.75327117998705 L42.05974839661279 160.87775327971278" stroke="none" stroke-width="0" fill="none"/><path d="M43.316166309946816 20.160984783060908 C118.80922405334844 18.034995608324312, 194.31676742738424 19.06579453325211, 256.54542589314656 17.368497221982402 M43.87227375660927 19.02060158700002 C98.24084198751534 18.341933108801676, 152.19585971049688 17.945669977940575, 256.02216781156113 18.6760840820606 M256.0337349556704 20.39034674196619 C258.24353661330736 72.52323766431154, 255.83122441798326 129.1976798850751, 256.61685991832036 162.5875710157541 M256.43019042620324 18.746632121886847 C254.72085617380708 66.82733405855966, 255.58913988816795 117.5176296673254, 255.77165229504376 161.63334712027904 M257.5720425020216 160.2327784385866 C174.83460091707911 163.16087115360168, 95.8896319679515 162.93173994343786, 43.4932915871632 161.1431473755277 M255.67180476184433 161.0618721272829 C181.12779055019408 160.20460825161584, 106.16633452440747 161.17164904194078, 43.827125789724356 160.3556047141869 M42.605087180698455 162.2193600878313 C42.782103325603785 110.70523748446206, 45.891333191171235 57.94836654063607, 45.38474820521042 20.15407052000503 M44.77720967573845 161.62608819192258 C44.29000492844463 108.54811555430362, 44.23482430919885 56.351199305974404, 44.10846991679081 19.075715794565557" stroke="rgb(0, 0, 0)" stroke-width="1" fill="none"/></g><g><path d="M49.81562910201696 23.565271502531903 L113.00186803937413 28.560392632951128 L110.52814245607367 76.13268353497499 L52.81671613074883 74.42783458409515" stroke="none" stroke-width="0" fill="none"/><path d="M46.09941067362356 22.710282871735686 C70.10404787740002 27.864464740054835, 91.74666457604047 28.163685513264447, 110.55392274456959 24.758231256326233 M48.91337978114067 26.54688676767664 C67.1236844744914 26.19176816394091, 86.29537582841496 24.09146567010659, 110.10339678385776 23.406531162037176 M109.45739898251935 25.411435419655955 C108.79089576463144 35.851024609987256, 111.60856732593348 47.62885569973506, 112.55737947410174 74.64410348760343 M108.80904793902279 24.05153009461208 C109.97392002370258 43.09151499411588, 109.16786056699608 58.44514526553255, 111.72187418426704 75.19307726427506 M107.68225405854184 74.89084374063835 C91.1074660160799 70.09240669851694, 76.94388561639579 74.40229773884825, 52.08736385966171 75.3068082626757 M109.50950430900538 73.40154395557316 C91.38572258332218 75.90308499321797, 77.21289274596596 76.50389318748066, 50.43072216627187 74.30046466147337 M48.228256068151545 72.58926030830855 C48.38583745833386 63.7461916176489, 48.712772753092196 49.46524077392222, 51.84404711432063 22.939716194208945 M50.646273583720216 76.37842494204641 C48.806986561724514 65.07850616038489, 50.57867260275827 53.432451511281286, 49.66310069241138 23.148738011940203" stroke="var(--fade-box-line-color)" stroke-width="0.5" fill="none"/><text x="80" y="55" style="fill-opacity:0.4; fill:var(--fade-text-color); " class="id" aria-label="id: id23">id23</text></g><g><path d="M191.123750354741 25.64901724735589 L249.92671636711464 25.660892711096153 L251.64431677804777 74.62086493670397 L190.40377430494877 76.38270432890172" stroke="none" stroke-width="0" fill="none"/><path d="M188.31816813232456 26.02988556529754 C209.5438316402656 25.14837383340938, 232.65326973057694 24.989516476957302, 249.25991051504718 25.898747695810698 M190.13874475436344 25.474850171710415 C202.5308519150776 25.60288772855078, 216.48805905609322 24.205616849019982, 250.9035762051431 25.601422893182352 M248.83356878927876 26.08058764120195 C249.7212818276711 42.347934028685856, 248.80860556277244 61.09132238476075, 250.26676422641302 75.80433467852832 M250.28162689699911 25.590423055625326 C250.99065779979105 36.24104100940049, 250.43011642389 47.44016764851303, 249.32266502974707 75.3518462431769 M251.88444078590837 76.15654953637276 C231.86839321778245 75.36691416215544, 209.78824362648646 76.21663597149609, 188.5350236316637 74.62688619115485 M250.22813829304383 74.36850968878392 C226.51790674504014 74.97513023603442, 203.5627368831285 75.43932668865394, 190.50849951737177 75.58629488813853 M189.39308849735912 75.07559473239336 C189.7609315177558 61.97328977393669, 191.39226548975466 52.1848288137877, 191.9788627398657 24.57568943712321 M190.51654804604252 74.10759087457993 C190.78741504838376 54.970126757236265, 189.81238617656985 36.94795591715723, 189.41588564987927 25.493136696372463" stroke="rgb(0, 0, 0)" stroke-width="1" fill="none"/><text x="220" y="55" class="type" aria-label="type: str">str</text></g><text x="150" y="115" class="value" aria-label="value: &quot;Fade ID&quot;">"Fade ID"</text></g></svg>