<svg width="287" height="292" xmlns="http://www.w3.org/2000/svg"><style>
        :root {
        --fade-text-color: rgb(0, 0, 0);
        --hide-text-color: white;

        --highlight-value-text-color: rgb(27, 14, 139);
        --highlight-id-text-color: rgb(150, 100, 28);

        --highlight-box-fill: yellow;
        --highlight-box-line-color: rgb(0, 0, 0);

        --fade-box-fill: rgb(247, 247, 247);
        --fade-box-line-color: gray;

        --hide-box-fill: white;

        --primitive-value-color: rgb(27, 14, 139);
        --id-text-color: rgb(150, 100, 28);
        --default-font-size: 20px;

        --highlight-object-fill: rgba(255, 255, 0, 0.6);
    }

        text {
            font-family: Consolas, Courier;
            font-size: 20px;
        }
        text.default {
            fill: rgb(0, 0, 0);
            text-anchor: middle;
        }
        text.attribute {
            fill: rgb(27, 14, 139);
            text-anchor: start;
        }
        text.variable {
            fill: rgb(0, 0, 0);
            text-anchor: start;
        }
        text.id {
            cursor: auto;
            fill: rgb(150, 100, 28);
            text-anchor: middle;
        }
        text.type {
            fill: rgb(27, 14, 139);
            text-anchor: middle;
        }
        text.value {
            fill: rgb(27, 14, 139);
            text-anchor: middle;
        }
        path {
            stroke: rgb(0, 0, 0);
        }
        .highlighted path {
            fill: var(--highlight-object-fill) !important;
        }
    </style><g id="object-0"><path d="M51.1096222876132 24.218127468549216 L250.13108540060196 23.83668419737756 L251.36892720023258 156.3541813878847 L48.90632688107992 154.59131934019345" stroke="none" stroke-width="0" fill="none"/><path d="M49.1858176370291 26.71134338903924 C124.78985175791652 22.01158213715295, 202.20930126948844 24.346566024635173, 251.5282395446774 23.59534810976273 M49.94710000133119 24.241239693345598 C125.49638085532207 23.691966607572358, 203.18485850931773 23.094477488210288, 249.82076599651566 25.15497757304115 M250.14921011270002 25.53808301348053 C247.52389875820285 70.97344999290473, 250.1942042427312 121.00323722227037, 249.46479241059853 155.8120457446231 M249.52470951230862 24.474416552505424 C249.80440662482152 52.85300655878744, 250.02918427684887 79.75696515741697, 249.81627935274224 154.8915129461639 M251.15182145069733 153.84102530825265 C204.7150712343886 154.96585512282343, 160.1227687757956 155.28585419818475, 50.483331797283455 154.39208340306547 M249.961171968478 155.35932464256783 C208.3920877282173 155.25885693941828, 165.83715887839531 154.2126368854103, 49.921333695504686 154.62822332768133 M50.07393872991616 155.08848386075965 C51.323790858278585 103.74575694472463, 50.87765126514337 56.17366904458546, 50.06950979787818 25.800119185747334 M49.17668570646047 155.8715928651111 C51.71002155639871 125.91242304930701, 50.54971548411396 98.45050736961109, 50.2542679727809 25.984656786807008" stroke="rgb(0, 0, 0)" stroke-width="1" fill="none"/></g><g><path d="M44.11943833713055 19.682727668062633 L254.4159689965456 19.00441131256906 L257.5861527907305 159.34895680028959 L44.05684873547469 159.69983373812647" stroke="none" stroke-width="0" fill="none"/><path d="M45.400783904626316 20.687241449596595 C106.82764019486349 20.47903056617473, 168.96984000010747 20.502957751671175, 255.0224791145054 19.83457928588312 M44.83240463213505 19.231056855012486 C117.28113488201923 21.519168367863436, 190.5981196873907 19.998548141770158, 256.79634402044894 19.62861985072229 M254.77784055456587 18.54029866415675 C256.77086228531397 49.39142778891741, 256.62839855603806 83.04233700839328, 257.2233294751019 161.0802248299125 M256.8733792082412 18.45551933200255 C255.95483176241947 64.67659833787008, 256.55002825969854 108.14924808541227, 255.0902581213418 161.48986595150748 M256.6662529598496 159.46200712241503 C208.6456843325403 162.3198143155279, 161.66590403263277 162.67198059796658, 43.84102549057594 162.54180007063917 M255.39746716934832 161.15688794291532 C198.369593535679 162.51832777518746, 141.8383343280352 161.7399666087734, 44.286961813324766 160.49088676500838 M44.059964857096745 159.73455056618914 C44.163283431593364 127.48186595843164, 43.844553229352805 93.42239871077082, 43.31511532889363 18.461075569830157 M43.00924421203996 161.68036213804822 C44.80610482394357 117.64706228078118, 43.80763265265409 73.01772815584029, 43.51974260843879 19.233209012993147" stroke="rgb(0, 0, 0)" stroke-width="1" fill="none"/></g><text x="150" y="115" class="value">"Fade ID"</text><g><path d="M50.198921659718835 23.024042594918697 L112.98439416698508 28.369399505064262 L112.35922240903274 73.75621268383597 L47.68251385765632 78.50166379625924" stroke="none" stroke-width="0" fill="none"/><path d="M47.78196250950689 21.590395019622314 C69.13581215939321 23.818233757294333, 89.57965740578305 29.65283247810781, 111.55623262917496 21.494988696639574 M48.967295280596694 24.1004263336548 C66.29085383532399 25.558738676641745, 85.65914910798664 24.637781754940377, 109.15471339656716 25.310286940533675 M112.52535399712409 23.431353033419526 C108.21101468977645 33.33421759301072, 109.18713803037095 48.846167201545256, 113.65575528573527 72.53691975575896 M109.51426497801424 26.184994413761686 C111.64321819228212 38.35203225352694, 108.24229024896724 50.036230369980416, 109.36465762417889 74.16691169569121 M109.6659279643822 73.76566267707967 C94.36576050323663 76.6035411268005, 84.3228975074703 74.43704629763045, 52.699337335177 72.92749933545045 M109.5754800054105 76.77624671309349 C92.9169440723568 74.51659744742452, 72.04759288386555 74.28624938818774, 51.69676404118066 75.35335403438572 M48.79172225226423 73.73091314997566 C51.07267898443725 60.03056935423382, 51.15119472515649 46.8704806050471, 48.624238595439536 22.99658415181916 M51.094954501617934 76.90556553210034 C50.38002177018516 54.974338820955175, 48.93053163911229 38.58315914745748, 49.09801898381592 25.913530940888254" stroke="var(--fade-box-line-color)" stroke-width="0.5" fill="none"/></g><g><path d="M191.51485639510346 25.55580497228246 L251.23968818078026 24.859589628460085 L250.48993499402278 75.08605452971103 L190.2823932334451 74.57383797162473" stroke="none" stroke-width="0" fill="none"/><path d="M190.65787848061396 26.57024171128532 C209.94915274202467 24.87350177372642, 230.49670715291336 24.160941397702015, 249.51326051039513 26.544412071372328 M189.3358983492196 25.323703679723476 C212.31973152284775 26.33648915588826, 236.0532120207774 24.9122304439203, 249.45449939383846 25.660239895437012 M248.07646163329917 23.220261068546787 C248.4470572354089 40.724555753142745, 251.43373764188408 57.519508706429136, 248.07308331614806 76.33375432522007 M249.21692084490252 24.041297838933033 C249.1118084515298 37.089273252184285, 249.07336724075222 50.754403857100336, 250.61038269207245 74.17311899302268 M250.89286241950495 74.61160930513584 C235.44208500947195 74.72402187042276, 218.98933834135536 75.41171185861984, 190.04924045674022 73.47044849980203 M249.2820913398092 75.05029846339434 C232.86634803098144 74.61626456143301, 217.02883430645596 74.19837148241172, 190.62132784847208 75.4521111157325 M191.75709676926638 76.65708579745352 C192.34810476339933 56.008114411148966, 191.16647482247797 40.73660750235041, 188.11902464241356 23.575649893995063 M190.15909139571514 75.00872935881068 C189.82674855003648 63.24017149564655, 190.36751883259714 50.49183285853199, 189.49744546287357 25.509651054085307" stroke="rgb(0, 0, 0)" stroke-width="1" fill="none"/></g><text x="80" y="55" style="fill-opacity:0.4; fill:var(--fade-text-color); " class="id">id23</text><text x="220" y="55" class="type">str</text></svg>