<svg width="287" height="217" xmlns="http://www.w3.org/2000/svg"><title>Python memory model diagram showing objects</title><style>
        :root {
        --fade-text-color: rgb(0, 0, 0);
        --hide-text-color: white;

        --highlight-value-text-color: rgb(27, 14, 139);
        --highlight-id-text-color: rgb(150, 100, 28);

        --highlight-box-fill: yellow;
        --highlight-box-line-color: rgb(0, 0, 0);

        --fade-box-fill: rgb(247, 247, 247);
        --fade-box-line-color: gray;

        --hide-box-fill: white;

        --primitive-value-color: rgb(27, 14, 139);
        --id-text-color: rgb(150, 100, 28);
        --default-font-size: 20px;

        --highlight-object-fill: rgba(255, 255, 0, 0.6);
    }

        text {
            font-family: Consolas, Courier;
            font-size: 20px;
        }
        text.default {
            fill: rgb(0, 0, 0);
            text-anchor: middle;
        }
        text.attribute {
            fill: rgb(27, 14, 139);
            text-anchor: start;
        }
        text.variable {
            fill: rgb(0, 0, 0);
            text-anchor: start;
        }
        text.id {
            cursor: auto;
            fill: rgb(150, 100, 28);
            text-anchor: middle;
        }
        text.type {
            fill: rgb(27, 14, 139);
            text-anchor: middle;
        }
        text.value {
            fill: rgb(27, 14, 139);
            text-anchor: middle;
        }
        path {
            stroke: rgb(0, 0, 0);
        }
        .highlighted path {
            fill: var(--highlight-object-fill) !important;
        }
    </style><g><title>Group of 1 objects</title><g role="graphics-object"><title>Str id24 with value "Fade Type"</title><g id="object-0"><path d="M49.81202412372235 25.80389618306624 L249.26156261602722 24.39621054117411 L248.4956388890167 155.24292172758703 L49.09515086958846 153.0586351349065" stroke="none" stroke-width="0" fill="none"/><path d="M48.542396737772 23.655818069435913 C104.8003463115187 25.27290934512828, 162.78589556051986 25.57731715456429, 249.27091394302002 23.888058953642908 M50.19321976990181 24.71810769754906 C93.99914875867175 25.738035772111452, 137.68830244774722 25.17753313493516, 249.447814300025 24.375388977462347 M249.8732646117279 25.97040817090745 C251.10702255030256 55.23253659942136, 248.74892384280528 86.56428434181413, 249.08658274272653 155.62874924698565 M249.48120981613607 24.50664122724078 C249.87406952471738 67.06195718010592, 250.03723241895582 106.956952722561, 249.83630585553186 154.5837687146186 M251.22982386291685 154.05933924570246 C181.61001873522855 154.37269669887053, 111.0957588888667 156.520972477006, 50.490288570036824 153.44994016333249 M250.19219487770272 154.15150308394507 C207.827551809705 154.33697704240586, 166.26220051590465 153.9278529482278, 49.72555253467017 155.7844959646014 M49.19939230401215 155.24717121181592 C50.00407623383741 109.27082374758155, 49.65347340990947 61.80065801073836, 51.967241119261 26.31801116640934 M49.996250465795896 155.99165055056136 C50.345900366850685 109.0120854107857, 49.431227546750215 63.46455680757223, 50.5964964010102 25.472644004112343" stroke="rgb(0, 0, 0)" stroke-width="1" fill="none"/></g><g><path d="M44.88891192981738 19.373968765175114 L257.5886653859657 20.067274909565903 L254.73281290944539 160.78013496710346 L42.15638939484563 160.9118928941005" stroke="none" stroke-width="0" fill="none"/><path d="M44.834829542108224 17.739913866028214 C95.75203898674924 17.080730805663034, 149.7375080947534 19.690179617175808, 257.25811489205836 18.377595939229774 M43.98663501740736 19.280225481099617 C98.0205654772379 20.755367333414064, 152.76365895043185 21.409638621309927, 255.50101239321086 19.746268299554192 M257.4749596052455 19.182217727484428 C256.1452569536399 69.19269924721483, 257.73196599547856 120.26249600154539, 256.0340331367166 159.02918911796633 M255.20149285608318 19.561648535338662 C256.05403797542596 51.20962944967305, 255.06036230181672 82.55287912553635, 255.38433851108954 160.1458253840849 M255.68320013059537 160.95118249474595 C181.28729648011557 158.69924294808004, 108.60549306600493 160.29470962138132, 43.84382171901802 160.3076499539411 M256.03311238950266 160.32382696423485 C210.18330985821396 161.81865154160096, 163.3578637916175 160.84007223081224, 44.350034892701196 160.96744308368505 M43.19566724430289 159.32787213218302 C45.8653492910183 112.89457132240432, 46.04256871506675 63.64351994991996, 42.212105979985324 18.869065243701687 M44.93225565878078 160.66367152780805 C43.36732516999908 110.09675850096401, 44.02046706759625 56.8127873227982, 44.26248418314026 18.92994522513351" stroke="rgb(0, 0, 0)" stroke-width="1" fill="none"/></g><g><path d="M48.27868890399759 23.631240980027226 L110.12039410698972 25.1199527541162 L108.01628923616332 75.76246796254172 L50.11615381886022 73.59511331041801" stroke="none" stroke-width="0" fill="none"/><path d="M51.49969688094605 25.94136615889949 C64.58165323182293 23.81760671428445, 79.55968295961671 24.726676458815703, 110.2748576357356 24.778053558354742 M49.607936389837306 24.010790505197953 C71.67266698961643 25.3392284342253, 95.15906199908909 23.792757884229992, 110.47435928161599 25.463891065362223 M108.30853681757324 23.961930350778754 C110.44026116185756 36.66018611098414, 108.915315514658 48.20380537494223, 108.84508230193168 74.58396213091811 M110.38316315449111 25.00342844942373 C110.96809940107252 36.17977069827895, 110.16830676776786 47.131262051340094, 110.17256855980683 75.24435756154423 M110.43516497773881 76.23111862374851 C98.79247058035928 74.30052669195663, 85.58247787035337 77.25886774877672, 48.176804123628536 76.94145728814348 M110.43152488961614 75.98126674341968 C95.88069133250403 75.74465480309725, 81.81219039946691 75.12583757244387, 49.77713670858265 74.09665720834398 M48.903696211751495 73.60797221073626 C51.48573196538493 60.20172574372425, 48.5879367710072 51.15846210669135, 50.68890775592995 24.213772327354594 M50.87718528171618 74.75611005638436 C50.78257972846317 57.86407142828009, 49.82900760051079 40.074896241839475, 50.24048567414754 24.883420695142018" stroke="rgb(0, 0, 0)" stroke-width="1" fill="none"/><text x="80" y="55" class="id" aria-describedby="desc-0">id24<title id="desc-0">Object id</title></text></g><g><path d="M189.67049365584478 25.66342663023255 L252.939353221114 27.409421466934567 L246.19025428966125 76.60626360927633 L187.04971845784186 77.75275258311082" stroke="none" stroke-width="0" fill="none"/><path d="M190.67101547817526 25.904284716082167 C204.6570585279104 22.368720999471616, 221.7615376621472 27.611263108017944, 247.97539764341525 27.28441067445636 M190.18382800056483 24.13040864283876 C210.38964964051095 24.085769538917734, 231.566629507941 23.350600842562812, 250.39058073017586 23.13537240811106 M252.56220248452303 21.453881615303054 C248.75739653740018 38.68247466536945, 252.3538870020808 46.26544451386491, 249.9139730247208 71.75629314322146 M251.93272543627688 23.50222534939113 C251.8393667137485 43.37949744034202, 251.7523018283859 62.357496977808204, 251.69197645314884 74.49904554751035 M246.35753886552197 78.95847678218183 C235.98858869295557 73.19627946760593, 215.44419512423244 77.34820868674694, 193.78436035303244 72.76880848739762 M250.20764249509983 75.0254594153415 C227.51235062102486 73.89433808140046, 203.11875418144274 74.4718923262664, 191.03164144122263 75.5914888913013 M192.7600722514072 73.25811213483362 C191.42860380112842 56.56238288313158, 186.7020379996166 47.43537996123698, 191.3601851165831 21.430056810927066 M189.41377927579043 73.52191185309961 C190.5858847431175 60.68459168840061, 190.1282648754491 44.97704409781709, 188.5855008822197 26.473419167601214" stroke="var(--fade-box-line-color)" stroke-width="0.5" fill="none"/><text x="220" y="55" style="fill-opacity:0.4; fill:var(--fade-text-color); " class="type" aria-describedby="desc-1">str<title id="desc-1">Object type</title></text></g><text x="150" y="115" class="value" aria-describedby="desc-2">"Fade Type"<title id="desc-2">Value</title></text></g></g></svg>