<svg width="287" height="217" xmlns="http://www.w3.org/2000/svg"><style>
        :root {
        --fade-text-color: rgb(0, 0, 0);
        --hide-text-color: white;

        --highlight-value-text-color: rgb(27, 14, 139);
        --highlight-id-text-color: rgb(150, 100, 28);

        --highlight-box-fill: yellow;
        --highlight-box-line-color: rgb(0, 0, 0);

        --fade-box-fill: rgb(247, 247, 247);
        --fade-box-line-color: gray;

        --hide-box-fill: white;

        --primitive-value-color: rgb(27, 14, 139);
        --id-text-color: rgb(150, 100, 28);
        --default-font-size: 20px;

        --highlight-object-fill: rgba(255, 255, 0, 0.6);
    }

        text {
            font-family: Consolas, Courier;
            font-size: 20px;
        }
        text.default {
            fill: rgb(0, 0, 0);
            text-anchor: middle;
        }
        text.attribute {
            fill: rgb(27, 14, 139);
            text-anchor: start;
        }
        text.variable {
            fill: rgb(0, 0, 0);
            text-anchor: start;
        }
        text.id {
            cursor: auto;
            fill: rgb(150, 100, 28);
            text-anchor: middle;
        }
        text.type {
            fill: rgb(27, 14, 139);
            text-anchor: middle;
        }
        text.value {
            fill: rgb(27, 14, 139);
            text-anchor: middle;
        }
        path {
            stroke: rgb(0, 0, 0);
        }
        .highlighted path {
            fill: var(--highlight-object-fill) !important;
        }
    </style><g id="object-0"><path d="M50.72445472047519 26.87021049691967 L248.87921637606473 23.26765292665953 L250.62734437223347 154.89325559171328 L50.64294265240372 156.73970520375488" stroke="none" stroke-width="0" fill="none"/><path d="M51.09298986873616 26.04151468951083 C114.9278453689348 25.841522404092004, 180.2155626157268 27.683778035633914, 250.54104489863465 23.955558849825884 M50.00539169519264 24.183220190448196 C129.35140910495713 25.167328965627377, 208.289032811736 24.449984640778826, 249.2662106995547 25.701291433682307 M251.19713133920567 23.72301443649291 C249.43146779356738 63.432502589332216, 248.08376077598558 101.62729605142434, 250.94800466358942 156.33715826741206 M250.0842986353892 25.78679561351816 C249.07208707123502 68.20487939949048, 248.18014407291724 113.45036004216026, 249.02681754629523 154.47671007127022 M249.9541634614278 155.78333445440956 C189.73087281391122 156.79725873284536, 130.85919588282255 153.2971876267355, 50.9322878010348 154.88867426066994 M249.23254397344292 154.34948787472177 C179.88047679394722 153.42402581666136, 107.65679636219699 153.3481439642014, 50.13453800134794 154.41448642962632 M48.483615099268626 154.13453158167604 C50.29368520506519 117.31180386273665, 52.54141233288392 82.57735127910543, 50.90603490586106 24.705635284634585 M50.55302251971414 154.36181049529037 C50.39554550565047 113.73205259579957, 50.03340211353279 70.91161679308475, 50.897175039722185 25.92920320923057" stroke="rgb(0, 0, 0)" stroke-width="1" fill="none"/></g><g><path d="M42.53343740969547 17.88461361571112 L257.8885793134114 20.2180447833956 L255.71068064928005 161.7323832778545 L44.50212974012588 161.3723690978466" stroke="none" stroke-width="0" fill="none"/><path d="M43.5006744302018 19.906661548176885 C116.6352383968894 21.341810291664466, 186.50705293345314 20.321582504321366, 256.4175792086349 18.13420780121948 M44.033354156440595 19.875722288677206 C128.65117838295822 19.896286245100246, 210.91716401367952 20.312225287205905, 255.7982594266237 19.7000411933062 M254.19594541045765 18.049288949850578 C256.9525138727331 54.789952695161354, 255.75274366836592 90.28571461707662, 254.9437202148454 159.0341712049284 M256.1176121973224 18.845328026004456 C256.1207128020719 64.12436190394536, 256.0570982884022 108.73961639166025, 256.6950627331525 160.95753223060254 M254.49001679761005 160.75854597912954 C206.75782170709638 160.02574070260727, 159.16518679166 159.1066245600035, 45.1592190795885 159.79841815436194 M256.47798453988236 161.5932589175464 C188.03422940999727 162.04567222744996, 121.41037941222453 161.49436212988385, 44.23305932580594 161.4881054724641 M44.809542135578454 160.71337710977514 C42.15047209656302 130.86075571786816, 43.167539995853716 97.73058701472132, 43.954080609034676 19.895915867750972 M44.46431270291889 161.09238727465745 C44.58798653772205 115.44223165162607, 45.047427028967775 70.27582736987252, 43.70790212574298 18.34461126140764" stroke="rgb(0, 0, 0)" stroke-width="1" fill="none"/></g><text x="150" y="115" class="value">"Fade ID"</text><g><path d="M53.291237398540815 22.35370044123111 L109.27352778148718 25.01735855311816 L106.08376113652508 72.84191200440775 L48.11209152558186 74.71171671013776" stroke="none" stroke-width="0" fill="none"/><path d="M49.5298040369848 23.39491709772074 C62.67657395710254 26.71044205167545, 72.94920362717588 27.686638759044143, 108.57662952412231 23.058244650514244 M50.90173671836578 26.887127347272816 C65.8352653700265 23.22843947965681, 76.25265653675253 24.74025673119449, 111.44702638299859 23.333479549393445 M107.0907318392665 22.089957350565086 C107.93338140545666 41.82861289741906, 109.1147946897276 60.77441897751803, 107.64945957914145 78.83577896226743 M111.88925237659686 26.131684388413458 C109.99764872291668 35.75151917832904, 111.41855409482879 48.248586466273046, 109.79008067495973 73.58547721998671 M106.380964210899 73.37723773884025 C95.73177817443506 76.36035861201808, 83.88600830304196 76.4974148180565, 50.16470483764305 71.31228570421476 M111.46743616328959 76.37450097054257 C93.04149812769325 73.12421379709015, 77.78039132782057 76.16061597840606, 49.480996282210256 76.49128137086377 M53.41896827300528 76.94420258405567 C52.157640993346426 59.774156220149955, 49.154020801264714 46.021260193565915, 50.45548526759187 22.84346935136071 M51.34869023975082 76.09482404342658 C51.14693922315754 57.590924491975514, 50.665153330581944 41.193579780191016, 49.68035094543226 23.144200145915867" stroke="var(--fade-box-line-color)" stroke-width="0.5" fill="none"/></g><g><path d="M191.0978905072011 26.127461376155537 L250.5172961641866 23.664850361179067 L251.1513735096075 74.56883694111686 L188.91187982176513 73.81484814382367" stroke="none" stroke-width="0" fill="none"/><path d="M190.99134174435986 25.60577955504257 C202.63848309216374 24.651151397144183, 217.18324699449786 24.72851152691648, 250.11837920266157 23.021277930882192 M189.39347907060036 25.03264704456111 C202.96489653347012 24.786188919461956, 213.7670259228483 26.367938195191734, 249.74892180799816 25.11892297929449 M250.27457001244608 24.96161324387642 C248.72064636733396 40.13839553800678, 248.1378883825931 51.070025103913515, 251.88631760530555 76.4517654474828 M249.10625030381294 24.356859829300937 C250.38105335801887 42.99933056027521, 249.8102667155215 60.34979810042641, 250.06263027186333 74.12279540271975 M251.8363261062001 75.35388087356739 C231.93104869391067 76.20989580578703, 212.4414652831529 76.84940277198076, 189.49194662315753 75.57289747302772 M249.05963266695045 75.92038653371516 C228.3964785138292 74.347886148369, 207.15691338618484 73.64914660952532, 189.65730569287268 74.01340538756928 M189.06085458091556 75.26016647964258 C189.25948286479814 65.36904212893924, 189.11955174715257 51.8939276634425, 189.55939110925254 25.475184899862448 M190.93365220209094 74.83188926812495 C189.26778190564573 61.60519762660058, 189.8168784875902 45.94419329786491, 189.84797625613237 25.86845340792864" stroke="rgb(0, 0, 0)" stroke-width="1" fill="none"/></g><text x="80" y="55" style="fill-opacity:0.4; fill:var(--fade-text-color); " class="id">id23</text><text x="220" y="55" class="type">str</text></svg>