<svg data-theme="dark" width="262" height="217" xmlns="http://www.w3.org/2000/svg"><title>Python memory model diagram showing objects</title><style>
        :root {
        --fade-text-color: rgb(0, 0, 0);
        --hide-text-color: white;

        --highlight-value-text-color: rgb(27, 14, 139);
        --highlight-id-text-color: rgb(150, 100, 28);

        --highlight-box-fill: yellow;
        --highlight-box-line-color: rgb(0, 0, 0);

        --fade-box-fill: rgb(247, 247, 247);
        --fade-box-line-color: gray;

        --hide-box-fill: white;

        --primitive-value-color: rgb(27, 14, 139);
        --id-text-color: rgb(150, 100, 28);
        --default-font-size: 20px;

        --highlight-object-fill: rgba(255, 255, 0, 0.6);
    }

        text {
            font-family: Consolas, Courier;
            font-size: 20px;
        }
        text.default {
            fill: rgb(0, 0, 0);
            text-anchor: middle;
        }
        text.attribute {
            fill: rgb(27, 14, 139);
            text-anchor: start;
        }
        text.variable {
            fill: rgb(0, 0, 0);
            text-anchor: start;
        }
        text.id {
            cursor: auto;
            fill: rgb(150, 100, 28);
            text-anchor: middle;
        }
        text.type {
            fill: rgb(27, 14, 139);
            text-anchor: middle;
        }
        text.value {
            fill: rgb(27, 14, 139);
            text-anchor: middle;
        }
        path {
            stroke: rgb(0, 0, 0);
        }
        .highlighted path {
            fill: var(--highlight-object-fill) !important;
        }
    
        [data-theme="dark"] {
            --highlight-value-text-color: #110875;
            --highlight-id-text-color: #6e4409;

            --fade-text-color: #BBBBBB;
            --hide-text-color: #121212;

            --highlight-box-fill: #EDB926;
            --highlight-box-line-color: #FFFFFF;

            --fade-box-fill: #2C2C2C;
            --fade-box-line-color: #666666;

            --hide-box-fill: #121212;

            --highlight-object-fill: rgba(72, 207, 173, 0.3);
        }
        [data-theme="dark"] text.default,
        [data-theme="dark"] text.variable {
            fill: rgb(224, 224, 224);
        }
        [data-theme="dark"] text.attribute,
        [data-theme="dark"] text.type,
        [data-theme="dark"] text.value {
            fill: rgb(144, 164, 237);
        }
        [data-theme="dark"] text.id {
            fill: rgb(255, 183, 77);
        }
        [data-theme="dark"] path {
            stroke: rgb(204, 204, 204);
        }
</style><g><title>Group of 1 objects</title><g role="graphics-object"><title>Str id23 with value "Fade ID"</title><g id="object-0"><path d="M24.718453496489275 23.682096428908025 L223.8399131067368 24.80196782426477 L225.6157984174446 153.06168691773593 L24.33386847707049 153.23997848102096" stroke="none" stroke-width="0" fill="none"/><path d="M25.62549097552673 23.962802250639893 C99.52807796717248 22.35875627885744, 175.94457440951265 23.584447092768958, 224.41915290595102 24.253482293961923 M25.534624647166858 24.976780529926184 C75.51873924682225 23.990907505468062, 125.45082546079843 24.06397357728734, 224.77272750508357 24.977445379981795 M226.39580900265634 23.618323447777687 C226.1517417924099 73.4104223477186, 226.5378614989427 122.70797528706247, 223.12132145094236 156.57620564853767 M225.27091267155365 24.68516773171499 C224.76047915531723 67.7505967746881, 224.6931323583471 108.90503494177875, 224.48122179268887 154.5328773129327 M225.02628004977495 156.2250986132709 C166.83561860703065 153.627564117633, 112.23308342469105 156.04729925593102, 23.25841196009122 154.79485583519718 M224.2222447503843 154.40881219742118 C172.41385901387076 156.63491285484312, 119.6846158370856 155.02533223980598, 25.250024323507386 154.50020992914506 M25.031717974663273 155.5630511950732 C27.51568178253882 127.48954811822159, 26.51993186166359 97.86597255405263, 23.588433653573247 25.395620339684914 M25.509668061720234 155.81715207417793 C26.748041191087943 110.55102839131632, 25.895357394864956 65.93613517336503, 25.80935302961095 25.292974089512825" stroke="rgb(0, 0, 0)" stroke-width="1" fill="none"/></g><g><path d="M17.919980983703002 20.388649420926594 L230.24519189736833 17.772935699853985 L231.5205644957472 160.55518863291465 L18.610080551030205 161.7953084528412" stroke="none" stroke-width="0" fill="none"/><path d="M18.278005739655683 17.630670204297047 C84.30909419061031 20.852035490826378, 151.71478954432175 21.635298877624106, 231.5352785244476 18.956210175398905 M18.732472297417136 18.91514426946127 C73.86297669958569 18.91508318589609, 128.83796296406823 20.09261920863208, 230.17527143880653 19.79182482999807 M232.70649918366024 19.084652573240255 C231.52766469827858 69.18931584249987, 234.0997832071174 121.57400036051337, 230.11465595883627 160.96598881912126 M230.96895874242975 19.662706286302637 C232.15889195200685 69.05530542846559, 231.476429615573 119.51794276844147, 231.8505086373137 161.18582708565066 M232.19441149004416 160.37214824920386 C146.8680816723752 162.6903075574541, 65.05426938374208 163.69487609184932, 19.987579006108987 161.213639674241 M231.0102398844605 160.35347242683167 C159.30904131954532 162.20664543881168, 85.54084796366728 163.17283497809686, 19.566957258391444 161.5171415691444 M19.49963168238976 160.08325739736313 C18.02873300780731 112.77441909803017, 19.22889947026716 63.24051106968981, 19.205452850764736 18.39333163699903 M18.868835292965606 160.16476964269182 C17.862230778961827 109.5324385034545, 17.84539423541965 57.55587288084163, 19.534612756805412 18.08743008947698" stroke="rgb(0, 0, 0)" stroke-width="1" fill="none"/></g><g><path d="M28.899049489727147 28.587309000877667 L81.99673277854187 28.586928486451637 L88.26337720920507 74.03311680133355 L21.879810889338017 78.79743816209522" stroke="none" stroke-width="0" fill="none"/><path d="M23.2210109585289 28.90158245162819 C35.70860346560567 29.849132395734763, 48.25616377476059 30.120001607784303, 82.40406285195672 28.830214649688095 M26.51291569944537 23.17698974016849 C42.81155939150344 23.45210709379067, 61.58819207351273 25.249871698885883, 83.68163411127193 23.736570152491094 M84.48974415148793 23.44189406628373 C80.6693836134599 44.60189881533068, 83.94804591691745 63.52672484698685, 83.30565225227976 75.44993542404303 M84.84130536911273 25.769327861109954 C84.87983544709726 35.28433726132062, 87.05803944813952 48.50632056707705, 83.7543938357613 75.16329992755266 M84.92240298221054 71.11943208148463 C63.35833911724873 78.34958320985871, 39.13711066496696 72.77409899397364, 23.40491636218001 78.03066989414512 M86.8686103167943 76.1840474359778 C59.683825559615826 74.15597707798041, 37.58883044021355 74.6426413401225, 23.131870297658583 75.05279802833839 M21.73998030717288 71.5746551451086 C22.808102745883094 59.177998048714144, 23.366108990013558 50.71866735741398, 22.26238318412952 25.928532691587677 M25.042433194646378 75.0552611784044 C27.030409848722222 60.57651995220411, 26.78989067197608 45.92129555903529, 24.40625528159081 23.273003028329835" stroke="var(--fade-box-line-color)" stroke-width="0.5" fill="none"/><text x="55" y="55" style="fill-opacity:0.4; fill:var(--fade-text-color); " class="id" aria-describedby="desc-0">id23<title id="desc-0">Object id</title></text></g><g><path d="M166.75833682658444 26.37087427714765 L224.2634436933486 23.5428837051076 L223.1528341689475 75.31090246248156 L166.75350876540261 76.85460356888727" stroke="none" stroke-width="0" fill="none"/><path d="M165.03991843443777 25.451225696570077 C181.78322022985677 25.27943372923064, 195.10675051064823 24.251013713378104, 223.36918833690234 25.935347467348635 M164.93983891363808 24.437352251302794 C179.95782248864896 25.500501841448123, 192.79241365151861 25.263688884355897, 225.88261761663253 25.718655463500003 M224.94978948686898 25.117646063216377 C223.456088741857 45.65724461198826, 224.65273733319944 64.14224237519007, 226.09312434815203 76.64587739084922 M224.93139845483793 25.28171589063561 C225.30540041991514 45.03673888552078, 225.12451196220374 64.20814979071905, 225.50418832075664 75.4556755966757 M223.65428921332835 76.0955527596393 C202.60628591451643 75.70463450380412, 184.9594487862592 74.25595012091487, 164.1779165188635 74.75447623866148 M224.0514221936834 74.90202592930082 C202.62289394555967 74.79490420027705, 179.38602780097517 74.24707632323921, 165.90300665727773 75.20571147304075 M164.05103159473836 76.3762007411034 C162.80376472366044 58.8531814493851, 165.11724190864305 42.59246333931697, 163.31683010579493 26.83446488381835 M164.15137100940746 74.63107644885314 C164.6691882011991 59.095064732964325, 164.95983903062822 45.35303418901052, 165.96404110221562 25.22156113214083" stroke="rgb(0, 0, 0)" stroke-width="1" fill="none"/><text x="195" y="55" class="type" aria-describedby="desc-1">str<title id="desc-1">Object type</title></text></g><text x="125" y="115" class="value" aria-describedby="desc-2">"Fade ID"<title id="desc-2">Value</title></text></g></g></svg>