<svg width="287" height="217" xmlns="http://www.w3.org/2000/svg"><title>Python memory model diagram showing objects</title><style>
        :root {
        --fade-text-color: rgb(0, 0, 0);
        --hide-text-color: white;

        --highlight-value-text-color: rgb(27, 14, 139);
        --highlight-id-text-color: rgb(150, 100, 28);

        --highlight-box-fill: yellow;
        --highlight-box-line-color: rgb(0, 0, 0);

        --fade-box-fill: rgb(247, 247, 247);
        --fade-box-line-color: gray;

        --hide-box-fill: white;

        --primitive-value-color: rgb(27, 14, 139);
        --id-text-color: rgb(150, 100, 28);
        --default-font-size: 20px;

        --highlight-object-fill: rgba(255, 255, 0, 0.6);
    }

        text {
            font-family: Consolas, Courier;
            font-size: 20px;
        }
        text.default {
            fill: rgb(0, 0, 0);
            text-anchor: middle;
        }
        text.attribute {
            fill: rgb(27, 14, 139);
            text-anchor: start;
        }
        text.variable {
            fill: rgb(0, 0, 0);
            text-anchor: start;
        }
        text.id {
            cursor: auto;
            fill: rgb(150, 100, 28);
            text-anchor: middle;
        }
        text.type {
            fill: rgb(27, 14, 139);
            text-anchor: middle;
        }
        text.value {
            fill: rgb(27, 14, 139);
            text-anchor: middle;
        }
        path {
            stroke: rgb(0, 0, 0);
        }
        .highlighted path {
            fill: var(--highlight-object-fill) !important;
        }
    </style><g><title>Group of 1 objects</title><g role="graphics-object"><title>Str id23 with value "Fade ID"</title><g id="object-0"><path d="M49.994423502054076 23.841991438398097 L249.23152542969112 23.082070109339824 L249.56340512562755 155.44202613274962 L48.405838433171496 156.9268405416696" stroke="none" stroke-width="0" fill="none"/><path d="M49.29945860807137 25.62946750434109 C92.04423185217509 26.505263031575364, 133.47429487382865 25.795361158445733, 249.17069584737138 26.282239025022832 M50.01903959747661 25.551675990626528 C99.08628983893485 23.658102718298913, 148.29684422849868 23.043654581055904, 249.9532823073758 24.797976771257435 M251.16106483262675 25.339038543722115 C251.50889823647333 70.49245763579941, 249.8881103999695 116.7414678348508, 251.7761793916841 153.18161976785618 M250.85360700423647 24.848681372324116 C249.8498117108198 53.46513532511453, 249.4109311027205 82.93731348486881, 249.78410785061567 155.88532195769602 M248.31542469328258 153.62389701303516 C179.7195482283219 156.20162814484664, 108.93595329349894 155.98763929691134, 49.59472541768475 153.51557287067726 M249.83662257480668 155.24943258244167 C171.21834576488513 154.56040477168375, 91.10839443880097 155.40457742117775, 50.79523630442602 154.66415028701334 M51.71438750840758 153.28384128940746 C48.91541463843332 126.6136915026911, 49.95624898793424 95.56638212485421, 51.43264009549857 23.909275181528077 M49.19793294297129 155.21751077969344 C50.4607984695898 116.21296284828661, 51.050909834223454 75.30688611490042, 49.11696241472166 24.60285500647339" stroke="rgb(0, 0, 0)" stroke-width="1" fill="none"/></g><g><path d="M44.004660291255156 20.947222512425547 L255.05834448227523 20.15080664774127 L255.8979735139663 159.83218647094617 L42.603827198267545 159.19244533723844" stroke="none" stroke-width="0" fill="none"/><path d="M45.668419316252624 18.9930513002652 C121.00236223029347 19.51105857300476, 196.73130246786718 19.93283882631364, 255.45769675666392 17.278234916188733 M44.40146611164647 18.337766504531544 C111.03413774457722 19.99201358962432, 179.2524692090644 19.30613520501928, 255.61675530472777 18.17190261546173 M257.1329995065751 18.660565070792423 C253.94618172090574 74.73866817942529, 253.0330701694665 131.74483542976714, 255.79147380205 159.94037655749287 M255.1469219593806 18.123100610183137 C255.67788753494892 51.42705422910439, 255.71771206092814 86.6010659212631, 255.8798576105742 160.85561798449388 M257.3381369248871 159.31840631822158 C185.78021710718792 161.87062696764477, 115.7516321273954 160.4417930445455, 44.17012949081404 161.54012007927108 M256.833540153016 161.34585893085102 C172.18792332238743 159.36586943596316, 87.1113870706712 160.18296939036324, 43.67842190063442 160.49268712572908 M44.95750525216188 161.5236969963942 C42.69145033997819 114.08511216074822, 42.436762011760905 65.13056158124871, 42.90531816721334 17.36126563746063 M43.07365995128344 160.40916882675776 C43.89411551933993 110.45481376659137, 44.85020057983335 61.44664399875747, 43.47128441900964 19.834465759556792" stroke="rgb(0, 0, 0)" stroke-width="1" fill="none"/></g><g><path d="M49.392240263704466 22.272500734639323 L107.92234656852946 22.213803484759378 L106.15299999600091 76.3968520704807 L53.27128434542713 76.3692015998096" stroke="none" stroke-width="0" fill="none"/><path d="M51.79699411937445 27.94669105595967 C66.61049235974565 27.677651821599323, 86.97643746821939 26.91078519095551, 108.00481150687612 28.876048470322583 M50.75502365295162 24.84996906391417 C73.43920064376462 22.862174259267526, 98.36945701889564 26.204934960100648, 110.27934407377954 24.535615522754295 M108.86099406474804 28.777082225768034 C108.2696678234987 41.28923048724925, 107.76311063299337 62.712829714868704, 112.38628231321167 75.52116582510692 M109.52823948110735 23.44591297329928 C110.60338273637434 40.416075219648434, 111.29119268052798 54.60821129096286, 110.21128807727709 75.81629584770329 M109.3975551793437 73.92421232892832 C91.87747344009588 73.13154824054706, 69.12613764705668 72.33491898137387, 48.08849439281508 74.09140221108595 M110.30672205428273 74.54389230109979 C97.81110520072579 74.16101550248004, 80.78369949935605 74.42509605963271, 48.472624562009564 74.24155986236583 M50.14791877634574 77.53313683355952 C46.957989207782624 65.4662119714649, 53.07986683690774 52.03602306971554, 52.573186174762625 25.21479053226544 M51.32488859117165 76.14477444036771 C50.945632446438445 56.489488644587375, 49.18653208609838 40.505970244305104, 48.62905356812695 26.980695302302678" stroke="var(--fade-box-line-color)" stroke-width="0.5" fill="none"/><text x="80" y="55" style="fill-opacity:0.4; fill:var(--fade-text-color); " class="id" aria-describedby="desc-0">id23<title id="desc-0">Object id</title></text></g><g><path d="M191.84497269107166 24.906965082369645 L250.07400657355535 23.519801556970478 L251.12091035073013 76.12689742242192 L189.92639992556218 76.7318617655237" stroke="none" stroke-width="0" fill="none"/><path d="M189.22860334779554 24.109614024995714 C204.40860814160348 24.37818420957823, 221.19339546883842 24.693123847539702, 248.6928524011219 25.980861094343457 M189.15542461366104 25.68765631368911 C212.884821362993 24.50802993004626, 234.26872767690415 24.490968805412344, 249.6119124830445 24.177778820434924 M248.42568110235763 24.306316146153076 C250.11314909541386 35.47958458229401, 248.48253486790765 46.200217641429, 251.95379058247545 74.46412015990407 M249.20691977002116 24.093314089165904 C251.20367541484268 43.9326080681218, 250.93614027308084 65.6191148064793, 250.3363767865774 74.11749133095464 M248.22921556125016 74.63011110767472 C234.45130975305415 75.18878126710094, 218.60540961580992 74.1771265517706, 190.912061477012 75.99083770388965 M250.42087700240066 74.93441361978412 C234.78901594133978 75.09651288194091, 218.86300505877776 75.10865492870185, 189.62072870643493 75.45082429266056 M188.60633338657863 73.84547568703559 C190.01340161000857 63.55157388036736, 188.55975811846994 52.23955716808738, 191.73561856121412 23.94708297191493 M190.6859921595169 75.07677428948156 C189.61092175364314 60.93620757384959, 189.0342979246087 48.21484452321189, 190.90339623040273 24.366800855869432" stroke="rgb(0, 0, 0)" stroke-width="1" fill="none"/><text x="220" y="55" class="type" aria-describedby="desc-1">str<title id="desc-1">Object type</title></text></g><text x="150" y="115" class="value" aria-describedby="desc-2">"Fade ID"<title id="desc-2">Value</title></text></g></g></svg>