<svg width="287" height="217" xmlns="http://www.w3.org/2000/svg"><title>Python memory model diagram showing objects</title><style>
        :root {
        --fade-text-color: rgb(0, 0, 0);
        --hide-text-color: white;

        --highlight-value-text-color: rgb(27, 14, 139);
        --highlight-id-text-color: rgb(150, 100, 28);

        --highlight-box-fill: yellow;
        --highlight-box-line-color: rgb(0, 0, 0);

        --fade-box-fill: rgb(247, 247, 247);
        --fade-box-line-color: gray;

        --hide-box-fill: white;

        --primitive-value-color: rgb(27, 14, 139);
        --id-text-color: rgb(150, 100, 28);
        --default-font-size: 20px;

        --highlight-object-fill: rgba(255, 255, 0, 0.6);
    }

        text {
            font-family: Consolas, Courier;
            font-size: 20px;
        }
        text.default {
            fill: rgb(0, 0, 0);
            text-anchor: middle;
        }
        text.attribute {
            fill: rgb(27, 14, 139);
            text-anchor: start;
        }
        text.variable {
            fill: rgb(0, 0, 0);
            text-anchor: start;
        }
        text.id {
            cursor: auto;
            fill: rgb(150, 100, 28);
            text-anchor: middle;
        }
        text.type {
            fill: rgb(27, 14, 139);
            text-anchor: middle;
        }
        text.value {
            fill: rgb(27, 14, 139);
            text-anchor: middle;
        }
        path {
            stroke: rgb(0, 0, 0);
        }
        .highlighted path {
            fill: var(--highlight-object-fill) !important;
        }
    </style><g role="graphics-object"><title>Str id26 with value "Hide ID"</title><g id="object-0"><path d="M49.81945323971795 24.99380559273909 L251.33302634718095 23.16231185321372 L249.58748947580256 156.5276353624562 L49.26548711327148 154.16345309337436" stroke="none" stroke-width="0" fill="none"/><path d="M51.03260193921012 26.408684382213586 C126.23062471010726 24.745675967920526, 200.80602961938808 24.961295975968067, 248.63403355549056 24.563682885345585 M49.35462336325266 24.108252363851296 C94.15381244712701 24.091944828517352, 138.3401622675721 24.643027131874884, 249.84003210902486 24.822695107752384 M249.14892102830544 26.417147515846395 C251.77836399026427 60.26622822840866, 250.3710655562764 91.5464933584071, 248.57035771304265 155.48253866457 M250.36234650820916 24.60735444515712 C249.09038772795526 70.6661747148773, 249.35764525994858 114.84764692105492, 249.58864884023754 155.90436984973516 M249.21582561536468 155.9033148329527 C189.25033550870873 154.42733694852686, 132.6200763197426 153.7432613546762, 50.57980045376729 154.82144883264257 M249.97867345994243 155.87703040521868 C199.96659819681562 155.35536937682454, 150.6535265122282 155.71860652539564, 49.4805491708127 154.40863611912104 M50.39864488919514 155.540441851507 C50.25227615719836 126.91343672385213, 49.10531987668008 98.29069133079932, 48.04398911490375 25.045690433684637 M50.555058404173344 155.787423165469 C50.13238679096564 108.33195548559199, 50.94224822369622 60.40044978008677, 49.22900526689258 24.820550681502617" stroke="rgb(0, 0, 0)" stroke-width="1" fill="none"/></g><g><path d="M43.208761133708215 18.69079610838619 L255.25528785816928 17.455376687025602 L255.6152053664984 162.07082307142997 L43.56635130924825 162.74460092012754" stroke="none" stroke-width="0" fill="none"/><path d="M44.86997509896677 18.778238852075955 C118.41369978467122 17.876624543352275, 189.3372909044513 16.50686600763673, 255.11313697347435 20.1551697673241 M43.21415619838107 19.103582015338983 C93.28212767742531 19.9066827285825, 144.58858488882 19.435229961812404, 256.720515307806 19.272936886566843 M257.3145464843601 18.371591026173025 C254.2357802635485 73.7605336353182, 254.5620124580982 130.5232680376158, 255.32514930308068 161.65424531808193 M255.30575109483595 19.59243237459738 C256.98745110345766 54.21775951365026, 256.25655551310695 91.02100898574119, 256.9208915796224 161.4241496938077 M255.6473733117038 162.52925985994236 C176.68731098307205 160.24801698128033, 95.54775813878861 163.1006669580975, 42.47672194372747 161.734263530762 M255.40507910595858 161.3396451252168 C203.67543269169758 161.72100730163223, 150.92486852915053 160.49871179661264, 44.43536106210621 160.27335547104224 M42.20325645586544 162.9273172260422 C45.35291227496155 128.77984274889636, 43.215905612060546 95.84008553793234, 42.10419349153424 19.618830428222868 M44.90169883239845 160.89299281480666 C44.85084047199087 106.05200780692762, 45.60139376707324 51.98377475601488, 44.56833252383835 18.639571421327055" stroke="rgb(0, 0, 0)" stroke-width="1" fill="none"/></g><text x="150" y="115" class="value">"Hide ID"</text><g><path d="M49.96949733490968 26.68524219066486 L108.54354606404385 25.460560002216972 L110.66478304049235 76.75412739756288 L48.456367149930045 73.38098237865019" stroke="none" stroke-width="0" fill="var(--hide-box-fill)"/><path d="M51.786966155991585 26.03905713545631 C66.1243613855978 26.84835374469808, 80.07639390878681 26.185036321966518, 110.53546257739664 25.901946923530442 M49.074641438732 25.56274680325238 C72.00724517644312 25.253017074194723, 95.71412417541069 24.47902688005598, 110.93263051047762 25.823995683190553 M109.13155849617539 25.267626561793815 C108.09300417300933 40.69533883575548, 110.11042056544214 58.54052780443568, 108.10739549029367 73.43802174410163 M110.62779679318179 24.014891781802113 C109.43703525891125 39.93264320546431, 110.07849204054565 54.480593159874466, 109.71338331537726 75.59523296722443 M110.13267583215486 76.59392973220204 C93.03302036341023 74.34262392720971, 79.75878744369149 75.50989025180905, 49.49288246708698 74.37002067224464 M110.6054697335613 75.47642819589241 C85.63840450508349 74.66662947166066, 63.33798598139653 76.00885617144762, 50.19649483352397 75.42243272294901 M51.40246793393171 74.46387382366683 C49.68629432871961 59.71802352395972, 48.14753167469819 47.70426285570496, 48.39131396069583 25.17001834500248 M49.45754926847208 75.91142886274005 C48.9248482795397 63.49045461030229, 49.145592132684314 50.50763288343792, 50.330669396492695 25.1406436309354" stroke="#000" stroke-width="1" fill="none"/></g><g><path d="M189.9917309092695 24.970942752374896 L248.77482280284934 26.80253540894608 L249.93224893769073 74.27070419797548 L191.57147064508297 74.70705501829772" stroke="none" stroke-width="0" fill="none"/><path d="M190.77241383868704 23.88125590844261 C210.3830103902362 25.484307886547, 231.56215050009655 26.86867590231002, 248.44345546723613 24.954266896905363 M189.14353180288762 24.291362021857662 C213.75966576553427 24.177003822628098, 237.52618634554335 24.87847951151698, 250.00713504560355 25.092634120921502 M249.2323152580032 25.82485510856702 C248.0824112392502 40.18708368996165, 247.98308647384033 51.655382140658645, 248.88916636760294 74.05541537220881 M249.972249335375 24.92380189209721 C251.17646716947755 40.21941850975391, 249.6500154600535 55.6099092749497, 250.55989909707176 75.99986954536621 M251.15807375306443 75.43064059331509 C238.0115472830457 74.58735714539368, 222.00968472975666 74.39777533369372, 188.9512591986831 76.9341543147326 M250.74436883473325 75.83561410362965 C228.98514359638796 76.08266222376407, 209.06486913261608 75.68284499598084, 189.97034349633654 74.68998811041759 M190.97490564762018 75.18768142301005 C189.92241947276102 57.416168377788246, 191.11502340310838 43.61230835954099, 191.30252248351263 23.886183423296657 M189.96386677676094 75.8340415312219 C190.05046232846252 56.16903922783602, 190.44400996368225 35.988256699767064, 190.02648633992771 25.075582935621753" stroke="rgb(0, 0, 0)" stroke-width="1" fill="none"/></g><text x="80" y="55" style="fill-opacity:0; fill:var(--hide-text-color); " class="id">id26</text><text x="220" y="55" class="type">str</text></g></svg>