<svg width="262" height="217" xmlns="http://www.w3.org/2000/svg"><title>Python memory model diagram showing objects</title><style>
        :root {
        --fade-text-color: rgb(0, 0, 0);
        --hide-text-color: white;

        --highlight-value-text-color: rgb(27, 14, 139);
        --highlight-id-text-color: rgb(150, 100, 28);

        --highlight-box-fill: yellow;
        --highlight-box-line-color: rgb(0, 0, 0);

        --fade-box-fill: rgb(247, 247, 247);
        --fade-box-line-color: gray;

        --hide-box-fill: white;

        --primitive-value-color: rgb(27, 14, 139);
        --id-text-color: rgb(150, 100, 28);
        --default-font-size: 20px;

        --highlight-object-fill: rgba(255, 255, 0, 0.6);
    }

        text {
            font-family: Consolas, Courier;
            font-size: 20px;
        }
        text.default {
            fill: rgb(0, 0, 0);
            text-anchor: middle;
        }
        text.attribute {
            fill: rgb(27, 14, 139);
            text-anchor: start;
        }
        text.variable {
            fill: rgb(0, 0, 0);
            text-anchor: start;
        }
        text.id {
            cursor: auto;
            fill: rgb(150, 100, 28);
            text-anchor: middle;
        }
        text.type {
            fill: rgb(27, 14, 139);
            text-anchor: middle;
        }
        text.value {
            fill: rgb(27, 14, 139);
            text-anchor: middle;
        }
        path {
            stroke: rgb(0, 0, 0);
        }
        .highlighted path {
            fill: var(--highlight-object-fill) !important;
        }
    </style><g><title>Group of 1 objects</title><g role="graphics-object"><title>Str id25 with value "Hide"</title><g id="object-0"><path d="M24.13265398774734 24.657392224873973 L226.3786353959317 24.23576783621462 L224.3733109250408 153.89469677524335 L25.29750775857654 155.58466628033474" stroke="none" stroke-width="0" fill="var(--hide-box-fill)"/><path d="M26.749220634065733 26.33928544397093 C93.05613472404669 24.50911573137939, 161.29073392217262 27.486692941670643, 223.5858599969359 26.21004865991568 M25.86175226300481 25.855363193339066 C91.77001022031983 25.519839415826514, 159.5767181847956 23.913360107873167, 225.4868340398352 25.67803473175304 M224.41726702389082 26.399465214430812 C224.80471082529988 61.340013661019064, 224.85139801327117 93.75856718552188, 225.42330719430234 155.23664582173447 M225.2039738897902 24.206398402795415 C223.63609737361534 61.710067228768445, 224.11706429656644 98.59539945669367, 224.7947288502209 155.81787155511782 M223.6617039478429 156.45723535586927 C178.61595922499896 155.6635249722148, 129.25801144315824 153.82267512253856, 23.668473210978814 155.8459913944623 M224.1207160770854 154.13229194421496 C162.59113447155772 154.4920101313699, 100.62571432395833 155.42561323769624, 25.22680284592763 155.7724133984205 M26.892438806004428 153.43515215352943 C23.667115757563003 123.30164992158493, 23.833692855442912 88.37049607832515, 24.238478525221225 23.8561773424709 M25.46212108541014 154.96089912713344 C25.12325066050065 124.38223066569321, 26.510701233981393 94.70563582885052, 25.142470037250455 24.571307928981525" stroke="#000" stroke-width="1" fill="none"/></g><g><path d="M17.998246140407534 18.24613423820926 L229.2775599395416 19.452681427790353 L232.99595281952335 162.60946727594074 L20.25275124715097 159.37978801016996" stroke="none" stroke-width="0" fill="none"/><path d="M19.702445821308036 19.493156307286547 C101.2048094703632 20.70721683847739, 184.2116073551165 20.39672652708539, 231.7146959210516 19.001702058943415 M18.650375299735593 18.12511911620316 C64.26282313407134 19.4343513567006, 108.13841902266323 19.97673604427765, 231.63169731363365 19.163699031933877 M229.93862114392536 20.26871986268621 C231.65987668462904 66.81415163477328, 231.0563402478548 112.63231907661373, 230.70182348279025 161.60427939761644 M231.88185919390588 18.151158768808592 C230.53295729200372 66.42052212804354, 230.07061103972683 114.83156663962147, 231.75913916048998 161.3461057135635 M231.58702555989282 159.55252495464157 C166.04525998686174 160.16201784231626, 98.9164668128799 160.9353024599403, 17.836016164874938 159.91402569007715 M231.01355063393788 161.30004463074584 C181.2781983672516 163.1812220064825, 132.44640900550255 161.85273756227662, 18.80648786566853 161.45538368058774 M20.322974890297132 159.19960054494248 C19.965259885163555 105.24214488528423, 17.79457010072808 50.6130879647566, 20.421180347794103 20.92423135844637 M18.51541355118931 160.84106018337386 C18.967651038648036 116.24105285158966, 20.180987541211984 73.8335043576409, 18.538959086899457 19.19392805254186" stroke="rgb(0, 0, 0)" stroke-width="1" fill="none"/></g><g><path d="M23.914093486957636 26.90926029205129 L84.88042150607637 24.266984379846857 L84.16856164397326 73.17543748188201 L23.49649446868968 76.57999226801857" stroke="none" stroke-width="0" fill="var(--hide-box-fill)"/><path d="M26.2396410806678 23.94566009749546 C37.00471211408885 23.705908268079128, 50.6515485381349 25.62498307512137, 84.87766813034379 26.72704700668428 M24.979875101088727 25.7434561716159 C44.78751858007663 24.053120503326326, 64.52225995636854 25.481389060881902, 85.71693749663278 24.863405104798204 M84.72589643979288 24.87691226721236 C86.1986619124032 39.97349269687382, 85.10927420825908 58.97958811580518, 84.24329529506981 73.50767168537902 M84.0579509916323 25.69445100553949 C84.59937984995761 43.561575614565974, 85.3183080757292 59.56223014040443, 84.2913963095702 74.30081728208634 M86.51050222733437 73.62148236328935 C66.27699140341551 76.04922817570495, 45.953752447450555 75.24589423355778, 23.30774024303882 74.37701508330086 M85.30973272146976 75.69722650239493 C69.53867066290404 75.78465885920427, 54.12422118777297 74.30893859960206, 24.579264483904563 74.55531960929356 M25.91316985786996 74.10089641031668 C25.24348414309734 59.280316829881095, 24.078955083270593 46.98364868831012, 25.477264155876316 26.665469582718096 M24.05909547710587 75.73164463329928 C24.32018533157856 57.47993643236003, 25.302477269861356 41.32537157116916, 24.09336487365596 25.5824135910392" stroke="#000" stroke-width="1" fill="none"/><text x="55" y="55" style="fill-opacity:0; fill:var(--hide-text-color); " class="id" aria-describedby="desc-0">id25<title id="desc-0">Object id</title></text></g><g><path d="M165.7829792787101 25.9294230004744 L225.97754798823638 26.23235263527979 L223.28510636546656 73.78139111192885 L164.29281780590077 74.236232846288" stroke="none" stroke-width="0" fill="var(--hide-box-fill)"/><path d="M166.24202705432282 24.19087147050804 C176.84577880778335 22.404991765603263, 187.89577151645472 25.852463269709798, 225.24264448079452 26.196956455042187 M164.6738182939812 24.146089919790267 C177.83814790979895 25.551119352180176, 190.34816922986167 24.6574110318101, 224.59952819374925 24.1600629936843 M223.94104087858642 24.96854068439562 C223.7344551728832 42.47526817054985, 223.42554458877134 58.98052930699266, 225.88362857843467 75.6199866530216 M224.75425295883932 24.982664572314413 C224.31384841318044 37.20552712228273, 225.9773242972595 49.44583182175085, 225.61498724692967 74.96527930837647 M225.7423127407936 75.42213676796541 C207.79159195318752 77.12409674114001, 189.6876494833159 75.59840819427468, 166.97304600124895 73.17651004929425 M225.77125294472054 75.71767213738235 C204.93544472598506 74.68797912983868, 186.57170243794482 74.99078440333352, 165.85729808649108 74.24929124840304 M166.71917917333917 74.82416217265502 C164.28287850038382 60.01298715413839, 165.6238206282049 45.1703180798095, 163.83282818168632 25.825844489823496 M164.18658380297933 74.63828516393754 C164.93822865192098 63.47795519795515, 166.00165345098134 52.26518206539523, 164.952572164046 24.535202632193403" stroke="#000" stroke-width="1" fill="none"/><text x="195" y="55" style="fill-opacity:0; fill:var(--hide-text-color); " class="type" aria-describedby="desc-1">str<title id="desc-1">Object type</title></text></g><text x="125" y="115" style="fill-opacity:0; fill:var(--hide-text-color); " class="value" aria-describedby="desc-2">"Hide"<title id="desc-2">Value</title></text></g></g></svg>