<svg data-theme="dark" width="287" height="217" xmlns="http://www.w3.org/2000/svg"><title>Python memory model diagram showing objects</title><style>
        :root {
        --fade-text-color: rgb(0, 0, 0);
        --hide-text-color: white;

        --highlight-value-text-color: rgb(27, 14, 139);
        --highlight-id-text-color: rgb(150, 100, 28);

        --highlight-box-fill: yellow;
        --highlight-box-line-color: rgb(0, 0, 0);

        --fade-box-fill: rgb(247, 247, 247);
        --fade-box-line-color: gray;

        --hide-box-fill: white;

        --primitive-value-color: rgb(27, 14, 139);
        --id-text-color: rgb(150, 100, 28);
        --default-font-size: 20px;

        --highlight-object-fill: rgba(255, 255, 0, 0.6);
    }

        text {
            font-family: Consolas, Courier;
            font-size: 20px;
        }
        text.default {
            fill: rgb(0, 0, 0);
            text-anchor: middle;
        }
        text.attribute {
            fill: rgb(27, 14, 139);
            text-anchor: start;
        }
        text.variable {
            fill: rgb(0, 0, 0);
            text-anchor: start;
        }
        text.id {
            cursor: auto;
            fill: rgb(150, 100, 28);
            text-anchor: middle;
        }
        text.type {
            fill: rgb(27, 14, 139);
            text-anchor: middle;
        }
        text.value {
            fill: rgb(27, 14, 139);
            text-anchor: middle;
        }
        path {
            stroke: rgb(0, 0, 0);
        }
        .highlighted path {
            fill: var(--highlight-object-fill) !important;
        }
    
        [data-theme="dark"] {
            --highlight-value-text-color: #110875;
            --highlight-id-text-color: #6e4409;

            --fade-text-color: #BBBBBB;
            --hide-text-color: #121212;

            --highlight-box-fill: #EDB926;
            --highlight-box-line-color: #FFFFFF;

            --fade-box-fill: #2C2C2C;
            --fade-box-line-color: #666666;

            --hide-box-fill: #121212;

            --highlight-object-fill: rgba(72, 207, 173, 0.3);
        }
        [data-theme="dark"] text.default,
        [data-theme="dark"] text.variable {
            fill: rgb(224, 224, 224);
        }
        [data-theme="dark"] text.attribute,
        [data-theme="dark"] text.type,
        [data-theme="dark"] text.value {
            fill: rgb(144, 164, 237);
        }
        [data-theme="dark"] text.id {
            fill: rgb(255, 183, 77);
        }
        [data-theme="dark"] path {
            stroke: rgb(204, 204, 204);
        }
</style><g><title>Group of 1 objects</title><g role="graphics-object"><title>Str id26 with value "Hide ID"</title><g id="object-0"><path d="M48.82292250082171 24.572390875954383 L251.04878739098567 25.858711751702963 L249.06266889331556 154.27913982266142 L48.06179861383231 154.05484631968545" stroke="none" stroke-width="0" fill="none"/><path d="M49.835418818450826 23.836945557318302 C99.73724204361332 26.135951393210306, 149.9290327962111 24.97020890358657, 250.9874620295786 25.40110114396288 M49.58358160327037 25.03253124873018 C127.80169943763946 25.947707248940976, 204.5101972740137 25.695678689571732, 249.49032185803497 25.662303181598624 M250.20021963676876 24.682456934049874 C249.09208360678795 64.37567105331587, 250.46805453452623 108.24884485627877, 248.10657508075693 154.57026045491048 M249.45013338149815 25.156190987950268 C251.1372586534043 55.34680559299269, 250.49526013132748 83.22666529735653, 249.316235405327 155.90872569193374 M248.9651416741742 154.76962453531294 C194.65910531098612 154.0480978029186, 141.91496188991877 154.87171599143159, 49.94054442256651 155.8022043512501 M250.3542643464168 154.58966088199685 C201.18257295996685 153.0588628995957, 151.50475610524728 153.353766721161, 49.75137940503683 155.40233021012307 M48.8900139968554 156.15361015218033 C49.918112078636824 121.86348985267804, 48.15591924247416 87.17983329064523, 51.00695980526973 25.151219124633773 M50.24797215737143 155.17898154578725 C50.37564855752003 128.8620784709756, 51.465822549848234 102.74219561309494, 49.74021349282035 25.965354728074164" stroke="rgb(0, 0, 0)" stroke-width="1" fill="none"/></g><g><path d="M42.17735259442436 18.978166372425896 L257.89423301252003 19.390115319451066 L257.42420374400297 160.74637278184818 L45.78460372766215 159.9680545926582" stroke="none" stroke-width="0" fill="none"/><path d="M43.1446295551022 19.500025274584722 C116.85584603542664 16.16174627878847, 189.17274449463403 18.118392864732005, 254.62251036435555 18.363176906718255 M44.85222169469619 19.235646102236696 C121.5231451589839 17.955625205576162, 197.96555996378817 18.30437086846144, 255.46802813925532 19.769484301972113 M257.15415206694735 18.86028869599148 C253.33845257222194 49.63960296328687, 253.48631525360918 85.18002537438737, 255.7013715052851 161.476315913415 M255.89371800868534 19.649459251019668 C254.64402600738367 50.79159086400072, 256.296971959873 82.52436167347612, 255.72788983753858 161.41828349321497 M256.6756325163511 161.1376142498536 C198.74372295252894 163.27176434454748, 138.4528998910565 160.71461650026, 42.83268535985221 159.4528277990217 M255.47640669211162 160.54573419456392 C192.58280918008253 162.18589819885383, 129.41602071606147 161.62811410452784, 44.37325946553886 160.6325260209967 M45.715196041764855 161.1569719734088 C45.97407896807214 114.10443568538889, 43.98515208631732 67.59799033641521, 43.964799496620344 18.37781487047459 M44.511348370361475 161.02742580549554 C44.25225526875502 115.90369846377548, 44.07706013826678 69.72072641677244, 44.43715154850927 19.794440410508297" stroke="rgb(0, 0, 0)" stroke-width="1" fill="none"/></g><g><path d="M50.14884904564618 24.497509091393564 L109.49623658056733 23.681572995232358 L108.92593303159055 76.12228481296242 L48.94603097457925 73.50227158421364" stroke="none" stroke-width="0" fill="var(--hide-box-fill)"/><path d="M49.64114864154759 23.934968476199153 C69.6469387050162 26.18004699276839, 89.65993576134382 24.246119890330718, 111.19538706949704 23.45531824387737 M49.133498028344185 24.085510080746076 C68.0657759663302 25.17159001114479, 84.27797697986209 25.367417758946342, 109.71281925488928 25.922917656153388 M110.19235274402422 26.699308759346785 C109.75509293579958 45.63663844807453, 112.35456176914946 65.10096415237223, 110.01428440446388 74.7057967249555 M110.13008507165543 24.232835086198243 C109.3064503151034 36.78824560505323, 110.36585032388435 46.52109859055958, 110.27206980243463 75.87261703937553 M109.38675576061742 76.10039373054065 C89.63497979179652 75.33207017216652, 69.39720102033452 75.27805736393985, 49.50622332592405 74.33892375542185 M110.66600717118007 74.4523101425244 C86.94211991444142 75.0189171169407, 63.03464078273533 75.63107887544105, 50.92222553662497 75.96727650441738 M48.37061202077159 73.74179565546979 C49.651357575062434 60.04815482621083, 48.57989327185169 44.87016082400909, 51.73122898379977 26.560511352337027 M50.1991538604899 75.85256115584616 C50.85977633103917 64.63256199718514, 49.53784803770228 52.523661346032334, 49.77082073271738 25.951609801922988" stroke="#000" stroke-width="1" fill="none"/><text x="80" y="55" style="fill-opacity:0; fill:var(--hide-text-color); " class="id" aria-describedby="desc-0">id26<title id="desc-0">Object id</title></text></g><g><path d="M188.950901437831 24.888295899762102 L248.0100823727504 26.979676020912642 L251.27900990806668 76.61144198530761 L188.19045030100725 75.93644491023795" stroke="none" stroke-width="0" fill="none"/><path d="M190.24712518906878 26.210192557202852 C205.18531023778928 24.443620956197613, 217.80176961540485 23.363264239942186, 251.46323878212607 23.037671034469472 M190.64148279145854 25.557090233126264 C209.69950450950827 24.28307440354281, 231.6209015041352 24.15037569504301, 250.4277987789273 24.060381645943075 M251.5052025140568 26.15824880836594 C248.91635869255808 44.18285536465665, 247.9675206357898 63.0193065883767, 248.23076775098113 76.29509473994014 M249.81221876666626 24.94707019380875 C249.41728224964578 34.69485843311661, 250.21473412659628 46.844418544683876, 250.77520100315718 75.55603069392296 M251.22597699979812 73.40608184290548 C237.09477270287326 76.6859011699193, 222.2495632913691 73.15147020161322, 188.1644773439594 74.97956487729235 M249.1219977577113 75.17281545623962 C227.61631238285494 74.46878180539733, 204.50158612262172 74.28022223046716, 190.18229357877698 75.49334223148587 M189.4801985870968 73.53398373560684 C190.2713011056112 58.41313594847489, 190.725587982156 42.23201131925755, 189.40269916793696 26.95901739300457 M189.8262873321345 75.11466112308162 C190.2807904451347 59.620389223973376, 189.3193309161787 44.5864894323743, 189.3060183804991 25.51437349200703" stroke="rgb(0, 0, 0)" stroke-width="1" fill="none"/><text x="220" y="55" class="type" aria-describedby="desc-1">str<title id="desc-1">Object type</title></text></g><text x="150" y="115" class="value" aria-describedby="desc-2">"Hide ID"<title id="desc-2">Value</title></text></g></g></svg>