<svg width="287" height="292" xmlns="http://www.w3.org/2000/svg"><style>
        :root {
        --fade-text-color: rgb(0, 0, 0);
        --hide-text-color: white;

        --highlight-value-text-color: rgb(27, 14, 139);
        --highlight-id-text-color: rgb(150, 100, 28);

        --highlight-box-fill: yellow;
        --highlight-box-line-color: rgb(0, 0, 0);

        --fade-box-fill: rgb(247, 247, 247);
        --fade-box-line-color: gray;

        --hide-box-fill: white;

        --primitive-value-color: rgb(27, 14, 139);
        --id-text-color: rgb(150, 100, 28);
        --default-font-size: 20px;

        --highlight-object-fill: rgba(255, 255, 0, 0.6);
    }

        text {
            font-family: Consolas, Courier;
            font-size: 20px;
        }
        text.default {
            fill: rgb(0, 0, 0);
            text-anchor: middle;
        }
        text.attribute {
            fill: rgb(27, 14, 139);
            text-anchor: start;
        }
        text.variable {
            fill: rgb(0, 0, 0);
            text-anchor: start;
        }
        text.id {
            cursor: auto;
            fill: rgb(150, 100, 28);
            text-anchor: middle;
        }
        text.type {
            fill: rgb(27, 14, 139);
            text-anchor: middle;
        }
        text.value {
            fill: rgb(27, 14, 139);
            text-anchor: middle;
        }
        path {
            stroke: rgb(0, 0, 0);
        }
        .highlighted path {
            fill: var(--highlight-object-fill) !important;
        }
    </style><g id="object-0"><path d="M51.64433961411777 24.802838164253657 L250.92431646856954 26.22545338820791 L248.59336915749134 153.20676798873902 L51.86352151540333 156.04911957935096" stroke="none" stroke-width="0" fill="var(--hide-box-fill)"/><path d="M51.55491333052131 24.808486855981414 C113.33419749344537 23.000061571688022, 175.09316175157824 24.746159382757497, 249.33943561461402 26.328175713248445 M49.63224518380527 24.83302058422386 C129.55424621234891 25.960720376994615, 208.89087829204814 26.15188983102259, 250.85294446684438 24.399796820922734 M251.51975057209938 26.93748295207478 C248.90701962849263 50.507009831418266, 250.50357463357986 77.50715532869259, 250.97407719439204 156.54734314092286 M250.39764843173901 25.32092015071374 C249.92238436777032 76.34499055750732, 249.11691962304053 128.63697427462714, 249.17497405642268 154.78773383466358 M251.24160465805576 153.76395681460636 C179.76711254147742 156.54632418940716, 109.0495505907348 155.1713368835941, 48.82410711443858 154.1208938890307 M249.87851592080648 154.27609880405234 C185.1990979393552 152.72729670610124, 118.36000606755782 154.03554066326507, 50.03735650462906 154.32878449555773 M49.823296371994275 155.24335707118766 C48.53329939150369 123.2858528955617, 50.04629765980354 93.66930613870586, 50.58736123946661 23.725667546239606 M50.48741202832196 154.07121230454612 C50.14544683948363 109.19026509010568, 50.781484312846935 62.03773290886356, 50.549168426582014 24.400006036634025" stroke="#000" stroke-width="1" fill="none"/></g><g><path d="M43.42909617130397 17.9620682034153 L257.62501075657815 19.147391969309858 L255.18854435812588 161.04401029587237 L43.960160113312014 159.2142996528799" stroke="none" stroke-width="0" fill="none"/><path d="M43.71089367756866 19.36441220511131 C116.87910615769223 19.512457050998616, 189.2214084113023 20.77952331663753, 256.7063110217915 19.263877629289155 M43.794819704485185 18.901613867260878 C113.23597335570855 17.092504334410965, 184.08482898140397 17.145467995837233, 256.1994130253401 18.95261136646517 M254.17530250307837 19.44543497774565 C256.6094206702811 62.308881614152924, 256.0984921932808 107.58340831106544, 256.9148935516144 160.6937227300811 M256.17664627833153 18.22856135501202 C256.1922990170956 72.32714838877384, 256.21974284826376 127.10846917184361, 256.5920815482783 161.34947341428784 M256.6187072031341 160.6826994689024 C179.88522002534586 160.46324824011504, 105.92892594437694 161.1120991360178, 44.102022465733185 160.07328091329123 M256.4521966775665 160.58884820810923 C211.80011145296854 162.52978889385042, 167.68317001667813 162.26470037545428, 44.449057151287306 160.4811075210509 M43.66279129548367 161.24257075469433 C44.84407379706495 122.04989218300086, 46.64449331842023 82.07764875699142, 43.75308160089296 20.24337849729214 M44.02749503594561 160.82714747054817 C45.600052455000885 116.4747509131369, 44.70847089214772 70.2539150666484, 44.19159475812053 18.305751965581834" stroke="rgb(0, 0, 0)" stroke-width="1" fill="none"/></g><text x="150" y="115" style="fill-opacity:0; fill:var(--hide-text-color); " class="value">"Hide"</text><g><path d="M51.78756791357338 23.77897575530733 L111.59118707183637 26.263388642746843 L108.53030542468886 75.75588000062237 L49.14956466855756 75.83198513985107" stroke="none" stroke-width="0" fill="var(--hide-box-fill)"/><path d="M50.36517736137765 23.20328719391344 C69.88898141535765 22.863437926098037, 94.5282839873565 24.540647197682517, 108.65802856723191 23.879302218525293 M49.70338618907579 25.233698559730595 C74.09920847127243 26.106939179378543, 96.36030034568742 25.2639414025431, 109.49813204847712 24.11255441115846 M111.47258200292536 24.67510319356822 C108.14190074366351 36.99550351193627, 110.07109183036398 51.92342066782109, 111.83117192104463 74.82351169759845 M109.85966112827046 24.7309505919996 C110.01562428222431 39.48065547323703, 110.09970087526777 55.8548073120687, 110.79134805397561 75.22741764501663 M111.01708212313316 75.14316977697915 C89.81287176103864 75.79465398192399, 66.32791669936454 76.99399641227143, 49.59710498011149 73.57744824458605 M110.29793310869036 74.90849340160104 C97.13746767182761 75.41318597149878, 86.15725227877618 75.2223765208957, 50.03566843376549 75.74313646162315 M48.47572095697466 75.43843081722788 C50.029580006031445 62.460583901362924, 51.610734151214935 46.80191401843422, 49.26218182770124 23.791717481081346 M49.84699372282542 75.64165710070145 C51.21557407264481 60.34311464540467, 49.65742342738062 46.299241298261535, 49.01522472253526 24.652860484106395" stroke="#000" stroke-width="1" fill="none"/></g><g><path d="M189.37552210652382 26.328697804163028 L249.21110284423855 26.36520066825988 L251.87280293741455 75.60086418496158 L190.59319207886065 74.5043403576513" stroke="none" stroke-width="0" fill="var(--hide-box-fill)"/><path d="M189.70654866374286 26.299646380793117 C208.8799045260467 22.790025314303357, 230.08571898912126 25.892475384945648, 250.19127024140022 25.236186413279842 M190.77872813828125 25.146373976983657 C211.7707811044146 25.028906771532498, 232.50381520039267 25.94361133410099, 250.17072626396237 24.20894061433912 M251.9165565021542 26.589980795096277 C251.32951157396943 35.40428055007229, 248.40684365457477 46.00738694654526, 249.35821595926416 76.05955254249905 M250.18214738743202 25.951373000716654 C249.96604522480197 36.96275519608825, 250.78369929984692 50.29939247661268, 250.89606605024858 75.20301660630706 M249.74510667853153 74.81058665502191 C227.1257804556673 73.06881890289876, 205.3911368450913 74.58116697702587, 189.26360443127405 75.46119100774864 M249.30016534907577 74.70132334690422 C229.13279631513723 74.63552548392144, 209.629983045347 75.11581485126503, 190.03318365803273 75.55665540372306 M191.5376913624336 74.69671498121839 C190.32767438440092 58.097741077587024, 190.19154736839278 46.23650852326744, 189.0590472693941 25.826811331416536 M190.75639770534613 74.46720340825058 C189.35533497216068 63.910078130741915, 190.52388354136104 51.13746198371585, 189.96203535565655 25.600740815992054" stroke="#000" stroke-width="1" fill="none"/></g><text x="80" y="55" style="fill-opacity:0; fill:var(--hide-text-color); " class="id">id25</text><text x="220" y="55" style="fill-opacity:0; fill:var(--hide-text-color); " class="type">str</text></svg>