<svg data-theme="dark" width="262" height="217" xmlns="http://www.w3.org/2000/svg"><title>Python memory model diagram showing objects</title><style>
        :root {
        --fade-text-color: rgb(0, 0, 0);
        --hide-text-color: white;

        --highlight-value-text-color: rgb(27, 14, 139);
        --highlight-id-text-color: rgb(150, 100, 28);

        --highlight-box-fill: yellow;
        --highlight-box-line-color: rgb(0, 0, 0);

        --fade-box-fill: rgb(247, 247, 247);
        --fade-box-line-color: gray;

        --hide-box-fill: white;

        --primitive-value-color: rgb(27, 14, 139);
        --id-text-color: rgb(150, 100, 28);
        --default-font-size: 20px;

        --highlight-object-fill: rgba(255, 255, 0, 0.6);
    }

        text {
            font-family: Consolas, Courier;
            font-size: 20px;
        }
        text.default {
            fill: rgb(0, 0, 0);
            text-anchor: middle;
        }
        text.attribute {
            fill: rgb(27, 14, 139);
            text-anchor: start;
        }
        text.variable {
            fill: rgb(0, 0, 0);
            text-anchor: start;
        }
        text.id {
            cursor: auto;
            fill: rgb(150, 100, 28);
            text-anchor: middle;
        }
        text.type {
            fill: rgb(27, 14, 139);
            text-anchor: middle;
        }
        text.value {
            fill: rgb(27, 14, 139);
            text-anchor: middle;
        }
        path {
            stroke: rgb(0, 0, 0);
        }
        .highlighted path {
            fill: var(--highlight-object-fill) !important;
        }
    
        [data-theme="dark"] {
            --highlight-value-text-color: #110875;
            --highlight-id-text-color: #6e4409;

            --fade-text-color: #BBBBBB;
            --hide-text-color: #121212;

            --highlight-box-fill: #EDB926;
            --highlight-box-line-color: #FFFFFF;

            --fade-box-fill: #2C2C2C;
            --fade-box-line-color: #666666;

            --hide-box-fill: #121212;

            --highlight-object-fill: rgba(72, 207, 173, 0.3);
        }
        [data-theme="dark"] text.default,
        [data-theme="dark"] text.variable {
            fill: rgb(224, 224, 224);
        }
        [data-theme="dark"] text.attribute,
        [data-theme="dark"] text.type,
        [data-theme="dark"] text.value {
            fill: rgb(144, 164, 237);
        }
        [data-theme="dark"] text.id {
            fill: rgb(255, 183, 77);
        }
        [data-theme="dark"] path {
            stroke: rgb(204, 204, 204);
        }
</style><g><title>Group of 1 objects</title><g role="graphics-object"><title>Str id25 with value "Hide"</title><g id="object-0"><path d="M26.7375339485157 23.04217736718922 L225.00964518845083 24.175465004690487 L224.9970353626113 156.00590083856545 L24.441286034078775 156.22648302116679" stroke="none" stroke-width="0" fill="var(--hide-box-fill)"/><path d="M23.695641757698155 25.37333948616474 C81.69306496229756 25.27158533499662, 139.09709899940447 24.008239079147803, 223.73406481144195 26.566892457863098 M25.02359236259539 24.264008009952605 C97.7575247828754 26.009759160885462, 171.92677319373934 26.701229301140817, 225.20249214534516 25.089582293021945 M226.77716451597726 25.16609501537136 C227.75750340207193 71.38510373277744, 226.97806154698102 113.7569222250599, 226.19641226235592 153.67790784724207 M224.1904465339627 24.511782757472783 C226.18719526588913 51.85130616396348, 225.41728050545856 80.47775197370255, 224.8090627257121 154.34503308643352 M224.0335821584602 153.58532402204557 C143.93454107533913 155.96767194868374, 64.74401782087205 158.38207107382885, 23.271706012863135 154.92997126564302 M225.20074214700819 155.69840777766166 C153.6999639770479 153.81077471999046, 82.6521881823996 154.58295117436595, 24.285413377811036 154.6940930912611 M24.37022561011765 153.48387747587034 C25.470449240467197 122.34020426787903, 25.985750600895596 85.72978169035525, 24.8883280612134 25.46760444786184 M25.4864857900335 154.13776897124401 C24.23072559062279 104.26353297511163, 24.937864144592908 50.7581502868101, 25.130602651243166 25.406931430641734" stroke="#000" stroke-width="1" fill="none"/></g><g><path d="M17.553307928839086 20.535517380253232 L232.96493780040618 18.50418972923068 L230.51587247197625 162.56932873499522 L20.44554727134863 159.0670124229931" stroke="none" stroke-width="0" fill="none"/><path d="M19.547558806076154 17.435474949532978 C88.42815592575984 19.55295905721498, 153.3118860043308 19.699935110604624, 230.52441128167533 19.062456559532528 M19.494773029302664 19.511896176136275 C97.73572823814085 20.027619235791114, 177.8876828351426 20.191235126465468, 230.36674176949063 19.48786083946832 M230.8921793241642 17.911518715523282 C233.7157752558001 48.227851330965315, 230.80727770322517 76.74650812855012, 232.3113277474855 161.4802793119527 M231.92139110619067 18.95017696822446 C230.19819754821899 64.00539998025269, 228.80972694500613 106.64226675546408, 230.54376919283484 160.22429307190856 M229.4647063067081 162.00591768181303 C177.83700792400478 160.9988864535656, 123.78434854164432 162.26924259671858, 18.053111505499782 160.760752901285 M231.7449575196373 160.1697785114964 C149.3522235224861 160.01934506026896, 68.27999922793624 159.17269227167603, 18.92840705987697 160.1538174852049 M17.067517654154518 159.26188718688346 C19.332405539574324 124.04918175589144, 18.312647486980072 88.62506588920517, 17.493488395159467 18.89242067689863 M19.9781412034842 160.32112060542815 C17.04380662379058 118.23992386881619, 17.309761855435333 75.01594560939517, 18.861777443897747 19.198997541709616" stroke="rgb(0, 0, 0)" stroke-width="1" fill="none"/></g><g><path d="M23.23641873566008 23.01527003782553 L83.69376332264649 24.7077642713022 L85.07821691812745 76.15421206052575 L26.344595720663182 74.42914260298386" stroke="none" stroke-width="0" fill="var(--hide-box-fill)"/><path d="M26.076528068240243 23.023130424718133 C40.803845426966575 24.808445484764796, 55.39199868950562 24.147224004684325, 86.85008726095666 25.61243584061326 M24.00276390394342 25.276465015054388 C47.43387341388731 24.036219505543908, 68.83876100696598 24.092255952840304, 84.70097181867109 24.507818289240223 M83.89130378507451 25.48709719367302 C85.68650742505928 38.092477566887524, 84.30644781291055 51.30582464198901, 83.03428489552326 73.4943070384765 M84.6296438390675 24.344497349338333 C85.51539202217724 40.44259531839296, 84.391916099002 56.04846912666869, 84.7546996543262 74.18790453253034 M86.91407131759347 75.74469908138575 C70.14302740863559 75.63043440570534, 54.743125457579886 73.48478071376879, 23.50790357909029 73.12871991038374 M84.49504631325793 74.19083378450212 C67.75506193581367 75.56711689332631, 49.83305575052807 75.58816959815081, 24.367040445079333 75.5758969496304 M26.323199526910965 75.6573190057063 C24.594506145085063 54.99402407492303, 25.79489329026826 39.534522512546154, 26.36417432093468 24.874331597554935 M24.60690306722461 75.92077396517661 C24.089903547960862 57.554773140456014, 24.4424435439641 38.92735286740358, 25.139712921444982 25.19510450930517" stroke="#000" stroke-width="1" fill="none"/><text x="55" y="55" style="fill-opacity:0; fill:var(--hide-text-color); " class="id" aria-describedby="desc-0">id25<title id="desc-0">Object id</title></text></g><g><path d="M165.9655886231781 25.53908466328783 L224.08849923852267 23.362400978980194 L223.1467849537489 74.13655678724288 L163.44409197142215 73.10034576568714" stroke="none" stroke-width="0" fill="var(--hide-box-fill)"/><path d="M166.90239107753652 23.45993424048373 C181.92145730122627 23.951855958977525, 202.8498706308199 23.6494312360596, 224.83420791615066 24.241912578284722 M164.9291622249509 24.085461567760024 C182.1392621642701 25.298012465750944, 200.06450597335416 23.838309225522682, 225.82155639077786 24.40084358198125 M224.2159438847607 24.774779866423124 C224.74679824392237 36.19813485907149, 224.55985608336331 50.8078641561499, 224.20171355346426 73.42487187217328 M225.97336056824574 24.67848191552035 C225.55296321183144 43.80969693631526, 224.02602571689357 62.57130403714374, 224.3343197661696 74.5299102769453 M225.3256553168242 73.96402664472757 C200.61967266407027 76.12516997212333, 178.33953444944237 74.52289116639483, 165.16708742789965 74.65115912816135 M224.8398326098446 74.62870736029654 C209.77470583158856 75.36446834388899, 193.1429558895098 75.60027496634906, 165.40917856345064 75.63544867573039 M165.73598142742946 76.91743922613836 C163.627735875589 54.30749749579419, 165.99726529001887 37.35253631107444, 166.4846019720158 23.39317376071314 M165.3626954262161 75.95442352239995 C164.06010912450523 59.25061637394604, 165.09089991824743 41.55887685823838, 165.5384946653457 24.793916876326207" stroke="#000" stroke-width="1" fill="none"/><text x="195" y="55" style="fill-opacity:0; fill:var(--hide-text-color); " class="type" aria-describedby="desc-1">str<title id="desc-1">Object type</title></text></g><text x="125" y="115" style="fill-opacity:0; fill:var(--hide-text-color); " class="value" aria-describedby="desc-2">"Hide"<title id="desc-2">Value</title></text></g></g></svg>