<svg data-theme="dark" width="304" height="217" xmlns="http://www.w3.org/2000/svg"><title>Python memory model diagram showing objects</title><style>
        :root {
        --fade-text-color: rgb(0, 0, 0);
        --hide-text-color: white;

        --highlight-value-text-color: rgb(27, 14, 139);
        --highlight-id-text-color: rgb(150, 100, 28);

        --highlight-box-fill: yellow;
        --highlight-box-line-color: rgb(0, 0, 0);

        --fade-box-fill: rgb(247, 247, 247);
        --fade-box-line-color: gray;

        --hide-box-fill: white;

        --primitive-value-color: rgb(27, 14, 139);
        --id-text-color: rgb(150, 100, 28);
        --default-font-size: 20px;

        --highlight-object-fill: rgba(255, 255, 0, 0.6);
    }

        text {
            font-family: Consolas, Courier;
            font-size: 20px;
        }
        text.default {
            fill: rgb(0, 0, 0);
            text-anchor: middle;
        }
        text.attribute {
            fill: rgb(27, 14, 139);
            text-anchor: start;
        }
        text.variable {
            fill: rgb(0, 0, 0);
            text-anchor: start;
        }
        text.id {
            cursor: auto;
            fill: rgb(150, 100, 28);
            text-anchor: middle;
        }
        text.type {
            fill: rgb(27, 14, 139);
            text-anchor: middle;
        }
        text.value {
            fill: rgb(27, 14, 139);
            text-anchor: middle;
        }
        path {
            stroke: rgb(0, 0, 0);
        }
        .highlighted path {
            fill: var(--highlight-object-fill) !important;
        }
    
        [data-theme="dark"] {
            --highlight-value-text-color: #110875;
            --highlight-id-text-color: #6e4409;

            --fade-text-color: #BBBBBB;
            --hide-text-color: #121212;

            --highlight-box-fill: #EDB926;
            --highlight-box-line-color: #FFFFFF;

            --fade-box-fill: #2C2C2C;
            --fade-box-line-color: #666666;

            --hide-box-fill: #121212;

            --highlight-object-fill: rgba(72, 207, 173, 0.3);
        }
        [data-theme="dark"] text.default,
        [data-theme="dark"] text.variable {
            fill: rgb(224, 224, 224);
        }
        [data-theme="dark"] text.attribute,
        [data-theme="dark"] text.type,
        [data-theme="dark"] text.value {
            fill: rgb(144, 164, 237);
        }
        [data-theme="dark"] text.id {
            fill: rgb(255, 183, 77);
        }
        [data-theme="dark"] path {
            stroke: rgb(204, 204, 204);
        }
</style><g role="graphics-object"><title>Str id28 with value "Hide Container"</title><g id="object-0"><path d="M51.07422091975511 26.955390581536406 L265.72351030942053 24.64528547626703 L265.723608689951 154.3380480159646 L48.92390787750257 156.02926382303556" stroke="none" stroke-width="0" fill="var(--hide-box-fill)"/><path d="M51.38847637512231 24.44192236004821 C123.94611752471803 26.3310356502205, 197.42123619048797 27.087521139825725, 265.30963393259736 23.749825136344118 M50.28462726584759 25.73114340337805 C120.04689230839108 25.89055658265275, 189.54416690928485 27.612842083000427, 267.18347954412843 24.683584778504482 M268.50395256588365 26.51003935052905 C266.30634546136343 52.01837754523136, 268.4611709135265 82.21565835307183, 268.68314356921667 154.60071428917556 M266.62369162508344 25.0100210727584 C267.54637433527813 74.81605639727033, 268.2896330691235 126.49676986064152, 266.96325881328454 155.94194373305848 M268.3305441175468 154.58898786535102 C211.3954979350954 151.91888966693287, 155.79170029342865 151.81983978021114, 51.394521146181965 154.1981299052569 M267.09071053290023 154.76154016110937 C222.67960946156396 154.02835750154, 180.3092130190763 154.13614006821481, 50.66091051753519 154.51894244081237 M50.73085607094862 156.45809267299995 C48.5628004010383 111.17033411649692, 50.3397583957262 62.64852941172755, 51.47561980080348 26.405888242761524 M49.04080990713797 155.29896571838995 C49.061801795715745 125.0890230346919, 49.49873182952946 95.1940845357364, 49.414761486296065 24.978213045817114" stroke="#000" stroke-width="1" fill="none"/></g><g><path d="M42.98791150662507 19.065173143757256 L273.87576389894014 17.950342180128978 L273.4402237403123 160.34157607916114 L43.85480201108812 162.3301701364754" stroke="none" stroke-width="0" fill="none"/><path d="M44.910265254133144 20.275646935677052 C111.29325436389017 18.966377005643896, 177.95821989310505 19.991683485608085, 273.09444192103007 17.88642359852879 M44.26175474269454 19.330440684037764 C100.73247798610619 18.73510161969504, 158.83291353269775 19.26442136858527, 272.2914383978229 19.528042783505846 M274.6167838922443 19.20687804718494 C275.2939595374573 60.438439671983076, 274.36308366309555 106.0192388591162, 273.0716929045169 160.82880352154052 M272.13850674134943 19.37554968510752 C272.06102815408906 75.3491239376612, 273.03227896042694 133.0253058809067, 273.3819922796705 161.77888557711609 M273.0282680710676 162.1108708769164 C224.5674890330792 161.9657067198176, 178.50847383979794 162.1628612741887, 43.34281812413975 161.06468132690586 M272.2868462558127 160.5169424852582 C219.127756910083 163.029183532973, 165.0760902810792 162.69822689150175, 44.81545606776369 160.656699676608 M42.19936781416067 159.44212528261045 C43.34109759802351 105.2936722665939, 45.12116893134223 48.8036708968042, 42.923629186141675 18.567801041037622 M43.45246501715043 160.00940451996348 C42.87339122180501 126.781607067126, 43.272904923206966 93.15026348887743, 44.86336212201208 18.54841566893024" stroke="rgb(0, 0, 0)" stroke-width="1" fill="none"/></g><text x="158.5" y="115" style="fill-opacity:0; fill:var(--hide-text-color); " class="value">"Hide Container"</text><g><path d="M48.75195970672675 24.873992594140162 L109.48490052070596 25.498193128075048 L108.05072773217053 74.25606622685402 L51.71905552847115 76.34745140439625" stroke="none" stroke-width="0" fill="none"/><path d="M48.19024317711996 23.53901297176383 C63.40263959072031 27.505396195746467, 74.04957218147953 26.24254731549877, 108.00575206575091 26.226744836616543 M49.62217217447496 24.56488130653021 C64.32403307009672 25.43038563956702, 78.66041103834407 24.31626309978026, 110.25364928448296 25.170219984597516 M111.7152707452279 26.80628583504516 C110.07290252329379 44.1009230371632, 109.18438635996151 59.22818788364343, 111.99178549589573 76.69807591737703 M110.55435740641063 24.13413867130769 C110.21787588808061 41.67523960931125, 108.89399672311038 57.365428608978654, 110.21154976025417 74.38158897664232 M111.75962643263462 74.57741078503118 C86.27418179037689 75.11058048122045, 61.870969250669724 75.47860742174534, 50.636620640061096 73.72130968340217 M110.93534208443742 74.92761197974231 C89.53420988096553 74.64116157346947, 69.65892505939908 74.55158953585124, 50.906265354569776 74.57580086348604 M50.517022623181575 75.00283708986336 C49.666543559766495 63.50435464955971, 51.35422046142181 48.982251671887155, 51.67529523324312 23.044932108273578 M50.49453866973949 74.2733156180192 C49.90614861126836 63.27512493872066, 50.647911643751236 52.311136961438, 50.83979308448542 24.17845359556641" stroke="rgb(0, 0, 0)" stroke-width="1" fill="none"/></g><g><path d="M208.9341467521209 25.648791028076218 L267.86664910099176 25.149645133650708 L268.5349768937591 75.07700201731798 L208.78126601281764 74.51321653688079" stroke="none" stroke-width="0" fill="none"/><path d="M207.70167605680925 25.994864893706115 C221.9269356253475 26.403061107862197, 235.3894730874933 26.355012407878384, 268.70139150518537 24.92845746587148 M207.16851361186121 24.390736257294005 C220.09712868259658 26.30553449421178, 233.5422410672666 24.64987026090855, 267.80699232045123 25.455118502109947 M265.28024267239886 24.33228584774234 C266.9109665914812 39.461822555796836, 266.996125888321 54.75609654802692, 268.01695048158007 75.9688849293293 M267.26080347208637 24.835287846820634 C267.4650125391177 39.26759564739533, 266.32149651147057 51.224161325413206, 266.15900905804614 74.99890266291582 M268.40059378785156 74.93099582716019 C251.96719520069828 75.77287250066597, 236.1865971137883 76.53331063958566, 208.26664660708875 73.63631108920362 M266.1001309929453 75.76040047266413 C244.0952668298516 74.25823141451615, 218.75512116985877 73.79478548837777, 206.79014904747132 75.12015102281495 M207.66740795577567 73.68595167105086 C205.85997169883638 57.68731500578397, 206.30029926945667 40.564130891411416, 207.91493648187037 23.82710878010797 M207.38979829738503 74.41960318902855 C206.74344568031148 64.27486015875489, 207.41844749130644 53.76447266491412, 206.91960441794205 24.412001047917713" stroke="rgb(0, 0, 0)" stroke-width="1" fill="none"/></g><text x="80" y="55" class="id">id28</text><text x="237" y="55" class="type">str</text></g></svg>