<svg data-theme="dark" width="287" height="217" xmlns="http://www.w3.org/2000/svg"><title>Python memory model diagram showing objects</title><style>
        :root {
        --fade-text-color: rgb(0, 0, 0);
        --hide-text-color: white;

        --highlight-value-text-color: rgb(27, 14, 139);
        --highlight-id-text-color: rgb(150, 100, 28);

        --highlight-box-fill: yellow;
        --highlight-box-line-color: rgb(0, 0, 0);

        --fade-box-fill: rgb(247, 247, 247);
        --fade-box-line-color: gray;

        --hide-box-fill: white;

        --primitive-value-color: rgb(27, 14, 139);
        --id-text-color: rgb(150, 100, 28);
        --default-font-size: 20px;

        --highlight-object-fill: rgba(255, 255, 0, 0.6);
    }

        text {
            font-family: Consolas, Courier;
            font-size: 20px;
        }
        text.default {
            fill: rgb(0, 0, 0);
            text-anchor: middle;
        }
        text.attribute {
            fill: rgb(27, 14, 139);
            text-anchor: start;
        }
        text.variable {
            fill: rgb(0, 0, 0);
            text-anchor: start;
        }
        text.id {
            cursor: auto;
            fill: rgb(150, 100, 28);
            text-anchor: middle;
        }
        text.type {
            fill: rgb(27, 14, 139);
            text-anchor: middle;
        }
        text.value {
            fill: rgb(27, 14, 139);
            text-anchor: middle;
        }
        path {
            stroke: rgb(0, 0, 0);
        }
        .highlighted path {
            fill: var(--highlight-object-fill) !important;
        }
    
        [data-theme="dark"] {
            --highlight-value-text-color: #110875;
            --highlight-id-text-color: #6e4409;

            --fade-text-color: #BBBBBB;
            --hide-text-color: #121212;

            --highlight-box-fill: #EDB926;
            --highlight-box-line-color: #FFFFFF;

            --fade-box-fill: #2C2C2C;
            --fade-box-line-color: #666666;

            --hide-box-fill: #121212;

            --highlight-object-fill: rgba(72, 207, 173, 0.3);
        }
        [data-theme="dark"] text.default,
        [data-theme="dark"] text.variable {
            fill: rgb(224, 224, 224);
        }
        [data-theme="dark"] text.attribute,
        [data-theme="dark"] text.type,
        [data-theme="dark"] text.value {
            fill: rgb(144, 164, 237);
        }
        [data-theme="dark"] text.id {
            fill: rgb(255, 183, 77);
        }
        [data-theme="dark"] path {
            stroke: rgb(204, 204, 204);
        }
</style><g role="graphics-object"><title>Str id25 with value "Hide"</title><g id="object-0"><path d="M50.267822198694375 23.70988839481949 L248.88087726417248 23.502045730471146 L248.45741606695483 155.54307156736093 L50.80238583100404 153.98624285780147" stroke="none" stroke-width="0" fill="var(--hide-box-fill)"/><path d="M51.317676137790464 25.342210277223312 C125.52161395336363 25.625144286324158, 201.07931738699497 25.605835278046694, 250.4444119267333 24.94998674660401 M50.7883599342432 25.493044746094444 C118.97803176532399 25.21379589241142, 189.82311923800748 25.69073763341028, 249.40010665141648 25.708893720521406 M248.60594813444825 24.389207788074305 C250.21936962418212 55.08809247786805, 251.27521801468674 90.92421146094244, 250.43925281857202 153.50279821216563 M250.79994768019196 24.52402593040883 C249.4870166075992 50.755856017209176, 250.14907094966216 77.93787427959147, 249.6591040408162 155.65668866052343 M248.2679881808945 153.40832579896662 C170.02923022097085 155.43530411815894, 93.79317482086002 153.11972240838517, 49.17878143448802 154.88014497046547 M250.23500401858564 155.44371503891384 C176.4153642684225 155.47429427345074, 103.80323964563411 154.95704986428407, 49.12268572658238 155.5385110221577 M49.84461917710949 154.12085466882817 C52.21056826754713 108.2248004231327, 49.35153273413892 66.40208726536409, 48.26454159832552 24.51748924986923 M49.782095285388635 155.35432594050735 C50.94385255713663 102.28485751345568, 49.110132291778335 50.73340762557794, 49.34809566079305 24.763568970598694" stroke="#000" stroke-width="1" fill="none"/></g><g><path d="M44.41760294568681 19.019293622150602 L255.67767355003957 17.869625027789912 L254.6138689437749 161.93090041631945 L42.12701682184146 159.2001894702947" stroke="none" stroke-width="0" fill="none"/><path d="M43.028422978682 18.680588347657743 C110.46982203471568 17.308435919796246, 176.4245286747628 19.017254623153146, 256.00643472838703 18.2662699694766 M43.42004237467656 19.05244093522916 C96.52648819306539 21.035595482321256, 148.2439982809235 20.251234669059563, 256.53850016963173 18.445779002491662 M257.5596592180363 17.982130376529234 C256.85149683885857 70.20197228397409, 256.56285292337935 119.5761942937001, 255.6535646247301 161.11325759304208 M255.0413085341775 18.913933028625134 C254.88415297714855 59.120770756292465, 255.27638912689216 96.87801745629491, 255.82525339851537 160.29904514692066 M257.60002293032255 162.47819746278347 C173.23710909978314 160.29421662898835, 87.77116577163687 158.8644412663536, 42.32786966956594 160.959700983796 M256.408710166811 161.46656475379427 C210.73750489796896 160.20015352515367, 165.82412757791235 160.9551172328211, 44.602625502378636 160.59212928398858 M45.76737236118328 160.79502001408773 C43.69570814483898 127.32222728630917, 43.27154730130133 93.59953448938066, 44.3581867945786 17.09596619355458 M44.76947830832751 160.99470531206387 C42.053567973521446 117.84787276166921, 43.266660971077464 74.81313747342031, 44.90598234722263 19.398532652577302" stroke="rgb(0, 0, 0)" stroke-width="1" fill="none"/></g><text x="150" y="115" style="fill-opacity:0; fill:var(--hide-text-color); " class="value">"Hide"</text><g><path d="M51.16489927626624 23.30087815954091 L111.49655247860787 26.288768349196125 L109.66335649748186 76.49030752373932 L49.494317015108365 73.45709925426162" stroke="none" stroke-width="0" fill="var(--hide-box-fill)"/><path d="M51.73747298961044 25.318734017770105 C61.7517797564751 23.716003654063854, 76.95464226502787 23.15997754066912, 111.52828551712052 23.718335598454523 M50.66360433531567 25.521407225842278 C65.18283389287495 25.32161982257795, 77.73332886787975 24.239243394433153, 109.11033823391385 24.34958868866709 M108.09014772186389 26.44831005851519 C109.41079908693827 36.96666193903875, 112.23736705512856 51.789420563253685, 110.30496100610236 74.74842836040808 M110.1333029561806 24.123572537734436 C110.32407639704816 41.37490458223422, 111.2680018111204 56.743776084564885, 109.94893659968592 75.76095188320159 M110.2094896948641 76.909492802727 C86.03973717963743 73.46942857324392, 64.6268822858786 75.99807506188355, 49.175055299305214 73.58883132247533 M110.095003332191 74.36607476191213 C88.7806848317421 74.60564559933799, 69.70404448540638 74.65422535471123, 49.30128058857551 74.87531200713359 M49.901072475614576 76.90256699787574 C51.8578852639259 65.33073278117944, 49.96725681869187 55.62556116778772, 50.27887453219531 24.69416917064243 M49.85768996734588 75.77668068559605 C49.85826491074596 55.02958262006957, 50.99316499278449 36.842405259736154, 50.878852337804105 25.76677965786731" stroke="#000" stroke-width="1" fill="none"/></g><g><path d="M188.19292783042422 25.339170369065343 L250.7985854948661 23.725684182438233 L248.57864175810857 73.06750681842024 L190.86962012758673 76.77355063418737" stroke="none" stroke-width="0" fill="var(--hide-box-fill)"/><path d="M189.04596271709732 25.374576475618888 C212.40303568009114 26.941370464149124, 232.494424759 24.816646393904318, 249.57854806953088 23.781616693357677 M189.31258835164942 25.041715506989853 C209.12767832510934 25.370625870840836, 228.75085098257247 24.444767903533442, 250.76648143922498 25.922246472097395 M249.32834952028085 24.926225440118188 C250.20308587998466 41.657385918302936, 248.96011038670582 56.3286563471015, 250.63382011619458 76.17510339589509 M249.96432764959292 25.55556515385086 C250.523496813699 35.69757374391031, 250.31137350150237 46.45141559819514, 250.3026409613636 75.30387427916958 M251.42333106664884 76.23659975824779 C235.81832553672032 75.4360508935724, 217.59018672084486 75.36046677078531, 190.55614252672112 75.89429121683403 M250.88764398737456 75.33604415906085 C235.40389413585604 75.18901608764301, 220.6169045556804 74.1448530067625, 189.581509857736 74.89540371653602 M191.91727355605414 74.17976983805242 C191.1893969265517 60.27834226996837, 187.53990446564546 49.87107060100607, 189.55093706024257 24.78298030033185 M189.4650411789457 74.97405619985693 C190.55860152191494 56.66325894392018, 189.20099424197517 39.48230577944796, 190.44276448936395 24.567907973455558" stroke="#000" stroke-width="1" fill="none"/></g><text x="80" y="55" style="fill-opacity:0; fill:var(--hide-text-color); " class="id">id25</text><text x="220" y="55" style="fill-opacity:0; fill:var(--hide-text-color); " class="type">str</text></g></svg>