<svg data-theme="dark" width="287" height="217" xmlns="http://www.w3.org/2000/svg"><title>Python memory model diagram showing objects</title><style>
        :root {
        --fade-text-color: rgb(0, 0, 0);
        --hide-text-color: white;

        --highlight-value-text-color: rgb(27, 14, 139);
        --highlight-id-text-color: rgb(150, 100, 28);

        --highlight-box-fill: yellow;
        --highlight-box-line-color: rgb(0, 0, 0);

        --fade-box-fill: rgb(247, 247, 247);
        --fade-box-line-color: gray;

        --hide-box-fill: white;

        --primitive-value-color: rgb(27, 14, 139);
        --id-text-color: rgb(150, 100, 28);
        --default-font-size: 20px;

        --highlight-object-fill: rgba(255, 255, 0, 0.6);
    }

        text {
            font-family: Consolas, Courier;
            font-size: 20px;
        }
        text.default {
            fill: rgb(0, 0, 0);
            text-anchor: middle;
        }
        text.attribute {
            fill: rgb(27, 14, 139);
            text-anchor: start;
        }
        text.variable {
            fill: rgb(0, 0, 0);
            text-anchor: start;
        }
        text.id {
            cursor: auto;
            fill: rgb(150, 100, 28);
            text-anchor: middle;
        }
        text.type {
            fill: rgb(27, 14, 139);
            text-anchor: middle;
        }
        text.value {
            fill: rgb(27, 14, 139);
            text-anchor: middle;
        }
        path {
            stroke: rgb(0, 0, 0);
        }
        .highlighted path {
            fill: var(--highlight-object-fill) !important;
        }
    
        [data-theme="dark"] {
            --highlight-value-text-color: #110875;
            --highlight-id-text-color: #6e4409;

            --fade-text-color: #BBBBBB;
            --hide-text-color: #121212;

            --highlight-box-fill: #EDB926;
            --highlight-box-line-color: #FFFFFF;

            --fade-box-fill: #2C2C2C;
            --fade-box-line-color: #666666;

            --hide-box-fill: #121212;

            --highlight-object-fill: rgba(72, 207, 173, 0.3);
        }
        [data-theme="dark"] text.default,
        [data-theme="dark"] text.variable {
            fill: rgb(224, 224, 224);
        }
        [data-theme="dark"] text.attribute,
        [data-theme="dark"] text.type,
        [data-theme="dark"] text.value {
            fill: rgb(144, 164, 237);
        }
        [data-theme="dark"] text.id {
            fill: rgb(255, 183, 77);
        }
        [data-theme="dark"] path {
            stroke: rgb(204, 204, 204);
        }
</style><g role="graphics-object"><title>Str id25 with value "Hide"</title><g id="object-0"><path d="M51.3187903643033 25.56224456368218 L251.92150428405904 26.231958195294 L249.7362458021323 153.1289132414862 L51.430428379816796 156.3215508597795" stroke="none" stroke-width="0" fill="var(--hide-box-fill)"/><path d="M48.76086877674151 23.84387575763011 C118.39924256347308 25.029573265999375, 183.78247557099445 24.42054628403364, 251.09049215954144 26.65626600515411 M49.76094423499863 24.817500371626252 C124.67136183711486 24.66726091907708, 199.51108782014092 23.71308240242187, 249.5076403883836 25.729615216036972 M249.22470468427886 25.234592457047643 C248.5042123741441 70.45263128266757, 247.9813023365218 117.55831723467071, 250.76264931683232 153.68563446092327 M249.6968774242966 25.133072125482958 C251.20195004463582 59.32048099856521, 250.9355602690468 93.36483709279545, 249.74056281601105 155.98160926774014 M249.05603172919425 155.2345963683923 C178.88181127548685 155.69382012491687, 109.97736595468525 156.09347495486278, 49.78464150843702 156.74986225307566 M249.760920855423 154.8039543800112 C179.59031855219249 157.26445072427867, 109.81956575217156 156.50393815503418, 49.279165385024555 154.86206644133847 M49.17164332251172 153.82031475027338 C50.410673273897764 108.06031493141977, 49.092218591034545 61.29092936309009, 50.96428291723335 26.621624637768758 M50.033340676359806 155.25125745518923 C49.75070853597509 112.46946851862437, 49.892447393718456 71.41410872102253, 49.42036831882098 24.439190609986273" stroke="#000" stroke-width="1" fill="none"/></g><g><path d="M45.38325124161114 17.253023087107795 L257.89300117187844 19.24075288790765 L254.7140390202147 162.39642213939823 L42.77206076219686 159.0222587163685" stroke="none" stroke-width="0" fill="none"/><path d="M45.27996968409899 20.107464673250636 C102.77385038288412 21.692007824954487, 165.82785523051885 20.062600117852195, 257.4610424732125 20.34562208915403 M43.362663861774294 19.809620985675647 C109.71486448959293 19.825880371338386, 176.02499974892152 20.153595554138924, 255.43577042533406 18.216444069551947 M256.5272077692609 20.96424940623296 C256.26377881879455 53.680414597650575, 256.7314721292595 87.34953441289758, 255.0889287826148 159.31877415968628 M255.98127765454456 18.061536010803746 C255.93027214073592 55.404469241523216, 255.3043332534113 92.97422485551604, 255.54618950490467 161.62303284499959 M256.1100206094509 162.32898298680686 C208.927049657486 160.93851767455513, 163.67601565634445 159.92268932136145, 42.868612457414145 160.4800282886414 M255.87289936065713 161.29410043289002 C196.31550621315597 161.571333740364, 138.595925130867 162.1821857100564, 43.93507980000419 161.10278615432736 M44.809576421557175 161.2853957400198 C44.95925003884872 110.30659463497044, 44.538904159765906 61.64158470169566, 42.26620221052778 19.53771367731052 M43.26024065501384 161.83688327792274 C43.43346509215851 106.18930477574457, 43.96488377611116 52.304875628150086, 44.6572944285714 18.181596011897817" stroke="rgb(0, 0, 0)" stroke-width="1" fill="none"/></g><text x="150" y="115" style="fill-opacity:0; fill:var(--hide-text-color); " class="value">"Hide"</text><g><path d="M48.9337835743787 26.368568117439057 L111.916080040777 26.255289549715137 L109.2923023556552 76.13544001110816 L50.32365134108753 76.37307574598479" stroke="none" stroke-width="0" fill="var(--hide-box-fill)"/><path d="M50.36943498482307 26.13245485633822 C74.0396531509099 24.608325926244436, 94.65491422905245 24.593005482034563, 111.23072459844275 23.83231093280279 M50.58035774727456 25.428365006953058 C62.32889602475652 24.272002241527005, 76.00870405877751 24.854894538704894, 110.56616564168617 25.394016772503214 M109.41497226590549 25.543484945251897 C108.72182128543791 35.86807123951655, 110.39380961455353 48.82440934767797, 108.73451169223011 74.30940029294311 M110.00749667290559 24.695746772999446 C109.38453784899342 37.47120552681691, 110.14536061890651 50.22625352527031, 110.53913842499966 75.67609387296756 M108.4903079982165 74.62375127539664 C94.0968346766073 72.94882916428224, 76.4533963877574 73.35336705769548, 49.06128366556358 76.38973889395851 M109.7311613572589 75.24138722628403 C88.31256666617956 76.12430474263897, 66.31153617688254 74.73553876115912, 50.967367699351904 75.79080113946519 M48.89163737924194 74.58339520131986 C50.00545275228747 63.80586614426227, 49.30180800577757 51.37926489504405, 49.527326741938076 25.671685116917963 M49.27576986816618 75.16224029898818 C50.956306773190335 55.525222449686176, 50.11445392040314 37.94294286143794, 50.233849289109855 25.382881147176" stroke="#000" stroke-width="1" fill="none"/></g><g><path d="M189.22448805612726 25.057655460634813 L249.17231823301353 24.214264163754898 L249.54036016043767 76.506968407557 L190.76823959463212 74.9845620065154" stroke="none" stroke-width="0" fill="var(--hide-box-fill)"/><path d="M191.11151322424203 23.327600504901227 C205.1842767055954 24.237307556333242, 223.08958007934726 26.148737204314962, 248.07578017496294 23.305510496578037 M190.76161011349237 24.32171363626222 C212.55767875732909 25.616653952147274, 235.77659614912483 25.392455427548768, 250.87591874927006 25.671490493176233 M250.88877200542512 23.504853942902503 C250.82762886062463 36.84116509221788, 250.17372874101991 49.755731491810124, 251.01938144899017 75.05804212793358 M249.84726116956432 24.99908280620192 C251.05430434137895 42.95317463197423, 250.59138850407098 61.89363554630416, 249.93903460583672 75.02492567157346 M248.87735680826623 76.57863483145948 C234.6304981786962 76.90975562965357, 218.06195362591885 77.29051687075848, 189.72121955468157 75.2500381695737 M250.77044714833713 75.71903119279092 C238.75967689891954 75.22877310742413, 225.96734686877812 74.29529010922202, 190.55828153064738 74.35621591341254 M189.52110651041392 75.30216653384727 C190.26298700930232 59.78033932398445, 191.19260551304058 49.54737320279799, 191.64577707145048 25.774240806243704 M189.49479836908793 74.1130304105466 C191.15768522412083 58.606467388065184, 190.6715985526738 40.132279908745396, 189.65155432029638 25.111979908213936" stroke="#000" stroke-width="1" fill="none"/></g><text x="80" y="55" style="fill-opacity:0; fill:var(--hide-text-color); " class="id">id25</text><text x="220" y="55" style="fill-opacity:0; fill:var(--hide-text-color); " class="type">str</text></g></svg>