<svg data-theme="dark" width="304" height="217" xmlns="http://www.w3.org/2000/svg"><style>
        :root {
        --fade-text-color: rgb(0, 0, 0);
        --hide-text-color: white;

        --highlight-value-text-color: rgb(27, 14, 139);
        --highlight-id-text-color: rgb(150, 100, 28);

        --highlight-box-fill: yellow;
        --highlight-box-line-color: rgb(0, 0, 0);

        --fade-box-fill: rgb(247, 247, 247);
        --fade-box-line-color: gray;

        --hide-box-fill: white;

        --primitive-value-color: rgb(27, 14, 139);
        --id-text-color: rgb(150, 100, 28);
        --default-font-size: 20px;

        --highlight-object-fill: rgba(255, 255, 0, 0.6);
    }

        text {
            font-family: Consolas, Courier;
            font-size: 20px;
        }
        text.default {
            fill: rgb(0, 0, 0);
            text-anchor: middle;
        }
        text.attribute {
            fill: rgb(27, 14, 139);
            text-anchor: start;
        }
        text.variable {
            fill: rgb(0, 0, 0);
            text-anchor: start;
        }
        text.id {
            cursor: auto;
            fill: rgb(150, 100, 28);
            text-anchor: middle;
        }
        text.type {
            fill: rgb(27, 14, 139);
            text-anchor: middle;
        }
        text.value {
            fill: rgb(27, 14, 139);
            text-anchor: middle;
        }
        path {
            stroke: rgb(0, 0, 0);
        }
        .highlighted path {
            fill: var(--highlight-object-fill) !important;
        }
    
        [data-theme="dark"] {
            --highlight-value-text-color: #110875;
            --highlight-id-text-color: #6e4409;

            --fade-text-color: #BBBBBB;
            --hide-text-color: #121212;

            --highlight-box-fill: #EDB926;
            --highlight-box-line-color: #FFFFFF;

            --fade-box-fill: #2C2C2C;
            --fade-box-line-color: #666666;

            --hide-box-fill: #121212;

            --highlight-object-fill: rgba(72, 207, 173, 0.3);
        }
        [data-theme="dark"] text.default,
        [data-theme="dark"] text.variable {
            fill: rgb(224, 224, 224);
        }
        [data-theme="dark"] text.attribute,
        [data-theme="dark"] text.type,
        [data-theme="dark"] text.value {
            fill: rgb(144, 164, 237);
        }
        [data-theme="dark"] text.id {
            fill: rgb(255, 183, 77);
        }
        [data-theme="dark"] path {
            stroke: rgb(204, 204, 204);
        }
</style><g id="object-0"><path d="M48.9765690302619 23.918164970667828 L267.4625995640533 23.20931990861666 L268.300174839388 154.45132756734932 L48.99063238631331 155.80727043781667" stroke="none" stroke-width="0" fill="var(--hide-box-fill)"/><path d="M51.674396885557236 24.535632009162526 C101.57352888939437 24.803136229975237, 152.81330089081993 26.451367737021418, 268.5862872069519 25.56435054862045 M50.472343383488706 25.23457701907956 C95.32520774074732 24.865031657408284, 139.35555130797147 26.341860012241856, 266.6958669774982 24.865930740741714 M267.20607686574533 26.7438411977086 C267.35587432563614 53.82447404265454, 267.67025782608107 78.39490549728848, 267.6773635131592 156.9534857261941 M266.30941818134653 25.108232169335977 C269.2013766324157 51.58916331041904, 268.9074953905153 78.45695005426717, 267.64625266135454 155.70242692606809 M265.9981629421087 154.8868695917032 C184.9147818825919 157.40935450992475, 103.83677428732102 157.19587235132929, 51.524233388372764 155.84961689103335 M267.274854401593 154.4073564557802 C190.81047430967294 153.83778639379238, 115.13085325210035 155.05120689726292, 49.42387214030674 154.74092133619533 M50.10165789921547 154.26705235670917 C49.14901496322885 117.09938129880453, 48.99460296457707 78.5802347080826, 50.300811551825475 26.714106744434112 M49.633253916749524 155.90323950940632 C50.21373536049048 127.20512728771952, 50.484167213921786 100.99229181889339, 49.0781342208416 25.042245598628885" stroke="#000" stroke-width="1" fill="none"/></g><g><path d="M43.89739660572579 20.029299765109663 L272.05162476704174 17.588843179881447 L271.52986492038485 159.73322780927913 L45.05379381116037 159.4092855298487" stroke="none" stroke-width="0" fill="none"/><path d="M42.852023821395804 17.96962445514059 C96.01102971338082 17.972795656065866, 151.70194778706917 18.017823373557256, 272.2494812936162 18.907136501717872 M43.20438596845272 19.592445627222055 C134.4529385055876 19.212818933593137, 225.1161362143893 19.328115589334313, 272.77752973201575 19.605176714213705 M273.458636877359 19.679396088847717 C271.16810770697504 59.61005492202174, 272.05815505768294 96.66151896455781, 274.03167043109954 162.52400840558005 M273.44253942665733 18.229210120548448 C272.4428999707393 65.9757169057684, 272.7246803892478 115.27487549257427, 272.6997923991603 160.41941398630394 M271.86583409710676 160.79322435962163 C198.39753526954223 162.77617940916704, 126.47755375495231 160.5922334659198, 43.10754314062118 162.53819903724926 M273.2951816851324 160.2256839090715 C201.06978554424765 160.4981829665432, 130.48996830373076 160.9164678314983, 44.15700401523341 160.47756482515518 M42.41614737415824 161.01087648376685 C44.259838549340195 128.47130902579318, 43.52148685579248 94.90920266149202, 43.23067461174159 17.42417000138585 M44.11413415697465 161.10977904275387 C43.78066300222459 111.65244117404555, 43.2250215155 62.24874815926481, 44.69023890125427 19.430274586351683" stroke="rgb(0, 0, 0)" stroke-width="1" fill="none"/></g><text x="158.5" y="115" style="fill-opacity:0; fill:var(--hide-text-color); " class="value">"Hide Container"</text><g><path d="M49.790044488492256 26.292643083125206 L111.4389946389897 24.4143463748512 L111.594110668822 74.24140546460876 L49.11583611019365 75.42988327816252" stroke="none" stroke-width="0" fill="none"/><path d="M51.57186927659998 24.96158618234744 C70.84664674486257 25.623741517139283, 91.3066346782603 22.695525122245055, 110.63749703192136 24.831075095325097 M50.69393194873983 25.217536453095786 C62.19692800130758 25.805105827808212, 76.29718064963616 25.640068600849055, 109.70793808399671 25.675482065401013 M108.9552304027743 24.717885029499673 C109.38263921517931 38.73276009996174, 109.89430916626841 54.3987546589556, 108.75283992018072 74.00167629526395 M110.29557472768366 24.79517325381319 C110.15544126487896 36.323191234794365, 110.54913198964391 47.42579667036124, 110.44450227399118 75.62627857697382 M110.52275036970232 76.00142362259842 C97.35863101644321 76.80679691209728, 82.88617747090683 75.2925501486604, 48.37239786009911 73.6845566296488 M109.83440941819478 75.94253433866984 C86.8307395919982 74.31553220780634, 65.9694557314648 74.17678905499513, 50.02400445893418 74.1478152329135 M48.12944421686408 75.48074460333771 C50.762525660559064 62.155811168498545, 48.80601814943354 46.10884528648374, 51.30043063804892 26.92712703915341 M50.763534351608556 75.66505215758686 C49.47897799964677 64.32287714302814, 50.40937607541035 51.54988080723587, 50.41680801492342 25.30295881542018" stroke="rgb(0, 0, 0)" stroke-width="1" fill="none"/></g><g><path d="M208.17009812838594 25.828268416310337 L268.4312422954971 24.050258721548058 L266.50748585319434 74.33557580079534 L208.63496297158116 75.31571586789346" stroke="none" stroke-width="0" fill="none"/><path d="M207.56953074345833 24.88022383286449 C224.74277618555743 25.499745245994234, 241.95380784636583 22.8187331019569, 267.40941158837984 26.169717924157034 M207.52035645992214 25.58475030028043 C226.63562017547264 24.81587974212348, 243.9742532388196 25.179272657607573, 267.3418913963691 24.32303908197786 M268.1430450123828 24.351404823336267 C265.94054717245444 37.466348808223465, 264.9335494420949 51.36497387906268, 266.9771634234773 76.66059355396968 M267.5215587582311 25.560153528389566 C266.5884941348587 39.53375436808141, 267.01898036100835 53.97575122447057, 266.48085314768974 75.30906852363478 M268.1125566046631 75.56327273433745 C246.71090100805515 73.69533577160706, 228.51866369371254 76.25579091208724, 206.26298152952305 73.52486360428887 M267.8423881288069 75.4708365037173 C255.28546231759955 74.80441403761752, 242.17084089165488 73.88893198915736, 207.72601692787399 75.67992927154002 M208.06270502972288 76.05534220057577 C206.6712858619629 61.73840890781358, 206.24989124966532 47.63717044365847, 207.5595050536548 26.223335661287553 M206.7624057458127 75.4385327012977 C207.28111398294905 58.68121686208853, 206.994485398484 40.76531736592568, 207.6277206292342 25.468111995703364" stroke="rgb(0, 0, 0)" stroke-width="1" fill="none"/></g><text x="80" y="55" class="id">id28</text><text x="237" y="55" class="type">str</text></svg>