<svg width="304" height="217" xmlns="http://www.w3.org/2000/svg"><title>Python memory model diagram showing objects</title><style>
        :root {
        --fade-text-color: rgb(0, 0, 0);
        --hide-text-color: white;

        --highlight-value-text-color: rgb(27, 14, 139);
        --highlight-id-text-color: rgb(150, 100, 28);

        --highlight-box-fill: yellow;
        --highlight-box-line-color: rgb(0, 0, 0);

        --fade-box-fill: rgb(247, 247, 247);
        --fade-box-line-color: gray;

        --hide-box-fill: white;

        --primitive-value-color: rgb(27, 14, 139);
        --id-text-color: rgb(150, 100, 28);
        --default-font-size: 20px;

        --highlight-object-fill: rgba(255, 255, 0, 0.6);
    }

        text {
            font-family: Consolas, Courier;
            font-size: 20px;
        }
        text.default {
            fill: rgb(0, 0, 0);
            text-anchor: middle;
        }
        text.attribute {
            fill: rgb(27, 14, 139);
            text-anchor: start;
        }
        text.variable {
            fill: rgb(0, 0, 0);
            text-anchor: start;
        }
        text.id {
            cursor: auto;
            fill: rgb(150, 100, 28);
            text-anchor: middle;
        }
        text.type {
            fill: rgb(27, 14, 139);
            text-anchor: middle;
        }
        text.value {
            fill: rgb(27, 14, 139);
            text-anchor: middle;
        }
        path {
            stroke: rgb(0, 0, 0);
        }
        .highlighted path {
            fill: var(--highlight-object-fill) !important;
        }
    </style><g role="graphics-object"><title>Str id28 with value "Hide Container"</title><g id="object-0"><path d="M48.29177590809472 24.764624585725024 L266.38368474469155 25.239620997019042 L266.6160095645419 153.96253959394414 L50.84845825421151 153.47871998968188" stroke="none" stroke-width="0" fill="var(--hide-box-fill)"/><path d="M51.68199786787195 25.19365783997676 C115.87917709150881 24.6994218787122, 183.69300797061956 24.073584368105838, 267.8706401411033 24.58828029439257 M49.96825405436332 24.13050952801683 C103.84173704349881 24.667636934695633, 158.78143882019899 24.053211026003382, 267.7157695065723 24.81718345098649 M267.8009159064097 24.91889363025954 C266.4227776735764 61.54512408974166, 266.33978018920385 101.66193897665427, 267.43606186193796 155.26205338036573 M266.0052932504956 24.351825630670895 C265.09540875315116 70.94661018963855, 264.90630377523377 116.77205853151054, 266.53574371621835 155.8017864019233 M267.11616713161607 154.23801161148546 C219.9197081713283 156.35511004386788, 176.24461058354018 156.0038042475079, 49.25737153386268 155.7426419933047 M267.38094817133225 154.22217521578563 C211.8548583263281 153.39792897995105, 158.14554779309438 153.71427742643021, 49.97994812588592 154.83434728206836 M51.87486135580992 156.39381359325236 C50.4710396896993 112.10013418034465, 51.568989239727294 69.2903192095202, 48.421715131467444 26.475861534975433 M50.26623622307605 155.86970274279295 C49.44472363787294 112.39255923775737, 49.643283656161685 69.34067590565999, 50.8096316584738 25.194783245868166" stroke="#000" stroke-width="1" fill="none"/></g><g><path d="M43.60065871628474 17.140546677783377 L271.33619522125474 17.20593264760467 L271.1451788281604 160.63402768404532 L43.43566237803772 162.773971443957" stroke="none" stroke-width="0" fill="none"/><path d="M43.38042015637851 17.990929555308554 C107.2888545322717 21.61042470109249, 169.7916624458731 19.53015995571237, 272.7221550916705 17.640863496411583 M43.37421226292937 18.490431352266533 C118.41986533894459 17.67902696703052, 193.1725197070026 17.462604483084203, 272.77565605869455 18.264182342443224 M274.3688288263123 17.531395532704817 C271.8568114700566 70.11640917609544, 272.0461931869696 118.23746089045922, 272.3016885547906 159.48399847515924 M272.4058376670744 19.782984505787777 C272.1967914204047 62.22257140174049, 272.1732949611432 107.06116100315816, 272.8990910003811 160.39801477465522 M272.88328097260904 161.21939932374323 C213.29782196714265 157.5010331788707, 153.57913413784829 158.36108521455796, 42.48386850358701 161.0598643675195 M272.81542849011805 161.507330649645 C212.6769183514345 161.82288468540196, 152.67699681279532 161.57131457082946, 43.72473088125351 161.05518961474564 M45.57426907609163 161.06459625469554 C46.12015585347859 129.81181157263018, 44.27979898142747 103.34244227034978, 43.47541185705888 19.40930659781114 M44.66013543403335 161.90404907688662 C42.20493065624255 110.41084842841997, 43.80202370322568 62.355693997420296, 43.18145919517155 19.63755397074182" stroke="rgb(0, 0, 0)" stroke-width="1" fill="none"/></g><text x="158.5" y="115" style="fill-opacity:0; fill:var(--hide-text-color); " class="value">"Hide Container"</text><g><path d="M49.472947648938955 26.197836107221757 L109.24062722464237 23.84913096873333 L109.66031078153863 76.75245031006244 L48.934120479289085 73.03168668207782" stroke="none" stroke-width="0" fill="none"/><path d="M50.417415498655764 24.004978451988897 C66.91341386996635 25.92346932347859, 82.54153387747502 25.468621808587795, 111.88777371795503 26.638907248651932 M49.11893001640529 25.52141141591142 C67.62346976036095 26.215542747214872, 85.28540695946286 26.200737654443316, 110.10297651033405 25.012497878416617 M109.12721229596967 24.324426120928266 C110.62953523502316 34.947878952567514, 108.63325614514635 45.49869448620917, 109.6856831416205 75.77299275836889 M109.01671581255525 24.995489041288845 C110.06636539654531 41.19732890313206, 110.96769169260008 57.52063646547212, 110.69027592269205 74.68300022155924 M108.95649612278274 73.22703308887333 C96.64244585355542 73.7136166153468, 84.09066022765323 73.4283412635052, 50.08324590366889 75.90995180245464 M110.96967375109087 75.37692649952001 C93.11912229070636 74.05682207332467, 74.67403981137498 75.42152357173335, 50.80575394935995 75.06626829899189 M48.56230662878604 76.72480990072253 C50.07255312119658 60.58677250220968, 52.123527455064625 48.97937765587741, 51.84495274652176 24.381037653321016 M50.996007767227006 74.60890746086879 C48.92681986423483 64.6690344146316, 49.980881600339025 55.63454472435512, 50.41002130341586 25.887764150812693" stroke="rgb(0, 0, 0)" stroke-width="1" fill="none"/></g><g><path d="M208.2159693251897 26.253603795713023 L265.6636687360076 23.387659971700995 L267.1894701692998 73.81323176788725 L208.73481432939903 73.1778792448967" stroke="none" stroke-width="0" fill="none"/><path d="M206.44630938477414 23.9316888485859 C217.2762342077086 24.426982668557205, 231.91558614195833 25.4087083256939, 265.3902822634204 25.767096103906344 M206.49902724271962 24.208145704377063 C224.33377730814286 25.244623411910823, 242.09431234522523 25.35291182523959, 266.75213062169775 24.58439028491078 M265.7979554066452 24.5770333728538 C267.7802751876896 34.72969674271984, 268.47094115601124 45.308466347710855, 266.53551034268787 74.7285759658029 M267.0486491627733 25.17509163000888 C267.864779732065 39.12403446438307, 266.2213284839732 55.57650840411644, 267.4666944287033 74.25364596700584 M267.75698551152857 76.6379881033717 C252.1469030090748 74.04006295442095, 237.6701861079002 76.63175827999949, 208.98540081188594 76.90912626626591 M266.25513566871905 75.91120199609749 C244.41718473674814 75.40965619646474, 221.68606018871805 75.4309806693676, 206.5042112887523 74.69412766959863 M206.7896435142829 74.0746526427424 C206.83604673333835 63.03878425377563, 204.89348051527807 48.56893053318527, 208.02520888814806 23.197308477164608 M206.4471006625966 75.75818730893337 C206.2159953849732 58.25960059990634, 206.10554594731937 43.54342803399745, 207.79469061045378 25.320254784001484" stroke="rgb(0, 0, 0)" stroke-width="1" fill="none"/></g><text x="80" y="55" class="id">id28</text><text x="237" y="55" class="type">str</text></g></svg>