<svg data-theme="dark" width="287" height="217" xmlns="http://www.w3.org/2000/svg"><title>Python memory model diagram showing objects</title><style>
        :root {
        --fade-text-color: rgb(0, 0, 0);
        --hide-text-color: white;

        --highlight-value-text-color: rgb(27, 14, 139);
        --highlight-id-text-color: rgb(150, 100, 28);

        --highlight-box-fill: yellow;
        --highlight-box-line-color: rgb(0, 0, 0);

        --fade-box-fill: rgb(247, 247, 247);
        --fade-box-line-color: gray;

        --hide-box-fill: white;

        --primitive-value-color: rgb(27, 14, 139);
        --id-text-color: rgb(150, 100, 28);
        --default-font-size: 20px;

        --highlight-object-fill: rgba(255, 255, 0, 0.6);
    }

        text {
            font-family: Consolas, Courier;
            font-size: 20px;
        }
        text.default {
            fill: rgb(0, 0, 0);
            text-anchor: middle;
        }
        text.attribute {
            fill: rgb(27, 14, 139);
            text-anchor: start;
        }
        text.variable {
            fill: rgb(0, 0, 0);
            text-anchor: start;
        }
        text.id {
            cursor: auto;
            fill: rgb(150, 100, 28);
            text-anchor: middle;
        }
        text.type {
            fill: rgb(27, 14, 139);
            text-anchor: middle;
        }
        text.value {
            fill: rgb(27, 14, 139);
            text-anchor: middle;
        }
        path {
            stroke: rgb(0, 0, 0);
        }
        .highlighted path {
            fill: var(--highlight-object-fill) !important;
        }
    
        [data-theme="dark"] {
            --highlight-value-text-color: #110875;
            --highlight-id-text-color: #6e4409;

            --fade-text-color: #BBBBBB;
            --hide-text-color: #121212;

            --highlight-box-fill: #EDB926;
            --highlight-box-line-color: #FFFFFF;

            --fade-box-fill: #2C2C2C;
            --fade-box-line-color: #666666;

            --hide-box-fill: #121212;

            --highlight-object-fill: rgba(72, 207, 173, 0.3);
        }
        [data-theme="dark"] text.default,
        [data-theme="dark"] text.variable {
            fill: rgb(224, 224, 224);
        }
        [data-theme="dark"] text.attribute,
        [data-theme="dark"] text.type,
        [data-theme="dark"] text.value {
            fill: rgb(144, 164, 237);
        }
        [data-theme="dark"] text.id {
            fill: rgb(255, 183, 77);
        }
        [data-theme="dark"] path {
            stroke: rgb(204, 204, 204);
        }
</style><g role="graphics-object"><title>Str id26 with value "Hide ID"</title><g id="object-0"><path d="M48.50553503106018 26.45959391260774 L250.13972733497505 23.407432227481024 L248.98955234459248 155.04065401827063 L50.88381434487351 153.25969179455336" stroke="none" stroke-width="0" fill="none"/><path d="M51.21186933814923 26.75035973642614 C107.78589471937208 23.47478761145158, 164.86567514434296 23.896877119525584, 250.68100617100018 24.102592178715096 M50.24928742635157 25.20406317787265 C110.99997360692517 23.903498008494452, 172.39847170366727 23.065345992257875, 249.37433930093573 25.123298638244744 M251.1007439247001 24.644956790661237 C250.16366909725676 52.72390778178832, 251.0339989991777 81.65930611677513, 248.65769550604548 153.04400333128015 M249.62003932339883 25.602311413266925 C250.74322009654344 57.70653053527158, 250.5767899535529 90.0254467977314, 249.92641453589275 155.35547951398266 M249.34975431613248 155.66206007672602 C180.5615286802014 153.84052814946912, 107.52303968597658 154.97690001549296, 48.67635053619554 154.67754559688004 M249.5854250022752 154.9117397466606 C178.36409786521367 156.1837317485011, 107.2788487706919 155.6962515546857, 50.55985054557994 155.13613290163354 M49.60369018634246 153.37670601748854 C48.92223187424569 122.7752308275838, 48.42166679679305 94.91340001215372, 51.287673234628556 24.137042752192908 M49.3034022691276 154.22661835517835 C50.8289901806741 115.46241908759335, 51.25252963118074 75.854126992542, 49.7131177497954 25.42339907097984" stroke="rgb(0, 0, 0)" stroke-width="1" fill="none"/></g><g><path d="M44.2117604891437 19.175608762918042 L255.7094986063328 20.81341031633091 L255.75902791685905 159.04497886913074 L42.82283557737837 162.95368327806156" stroke="none" stroke-width="0" fill="none"/><path d="M44.46045072712673 18.402149996649733 C120.71357138418077 18.8197431812709, 196.61391403993824 21.186383669630317, 256.18349800841327 17.35390642784609 M44.44364431049844 18.94269931375588 C127.30785063753956 19.934243852875824, 211.78833520178208 18.687144911455675, 256.26176445767044 19.66435376501501 M254.78882159168765 17.877962630590872 C256.3737332460023 49.0546281399248, 256.3544579351043 81.0699107172385, 257.41696147078005 160.5598887099013 M256.71803137256575 18.98631892936934 C257.8167565019467 62.558733825021534, 257.52120629766705 104.07884466025492, 255.5678478935481 161.8663865412334 M254.80955943622772 159.80195139758732 C205.51568682834045 158.28614796637416, 150.77208216172832 158.71488388819844, 44.135159136514986 162.6936064331681 M255.91816376263174 160.91402529241182 C183.22443866764812 162.78458253361273, 112.17905244759032 161.6781267516438, 43.89862776496635 161.3922461333485 M43.75774954246995 162.25575566626924 C43.2997965825098 118.92560706774644, 43.48712220543972 82.56834008801013, 42.932003852203216 20.686287491485487 M44.290670423189155 161.59202546398976 C45.716126773779784 116.8477860957864, 46.15573627961183 71.50650477176433, 43.260747456565845 18.515740318694508" stroke="rgb(0, 0, 0)" stroke-width="1" fill="none"/></g><g><path d="M49.65504483605891 24.163816019494192 L110.92751912920994 25.6870395445695 L109.02298942555119 73.60707178032985 L50.34212872810687 75.46651944311456" stroke="none" stroke-width="0" fill="var(--hide-box-fill)"/><path d="M51.684307934496225 24.12300077386028 C61.97727024178794 23.463343582007635, 73.18984349946454 23.240622052755146, 111.7785838946322 26.866733170477954 M50.79029547248323 25.714653084930024 C66.33846869800637 25.668677388347092, 81.34321570755606 26.016359852599575, 110.00267051926716 24.351844629371662 M111.85159275830408 25.140065692029424 C109.31582374288207 40.99391362771203, 110.39151964287323 59.862765273026206, 108.18126898359216 75.80482546257792 M109.68816102878225 25.54294489517259 C110.84587417540418 36.12712759063315, 109.5265860728031 49.65818266518877, 109.40160273926598 74.8056029603096 M110.69037817122596 75.38556269326975 C96.1039023231045 76.35806847088183, 82.97436161578952 74.4333935231133, 50.84136069035858 74.56489634839036 M110.54467058331394 75.98555457018205 C91.63246730664522 73.89059835724883, 74.82469313672024 74.31298500289053, 49.80335506328383 75.62141825860567 M51.89521386245715 76.21634288860677 C48.409086239313176 60.50173786017154, 49.5942127287109 47.68076373426057, 49.99771601702617 25.81325192506933 M50.10688202034246 75.60134931049238 C49.916929280662046 61.709447565595944, 49.01738199270517 48.35328435713852, 50.587759084957966 24.409138061634852" stroke="#000" stroke-width="1" fill="none"/><text x="80" y="55" style="fill-opacity:0; fill:var(--hide-text-color); " class="id" aria-describedby="desc-0">id26<title id="desc-0">Object id: id26</title></text></g><g><path d="M189.8376745911163 23.570580220985057 L250.89171166725242 26.376029144079364 L249.6590457170746 76.52964941383507 L190.04716779440426 75.9868678409397" stroke="none" stroke-width="0" fill="none"/><path d="M191.71533897725467 26.855756027612667 C214.18177678288387 26.710204398401636, 233.6556285715159 26.69182864273597, 250.28544544125666 24.594626461318363 M190.97230419465114 24.65685331852932 C213.04871401910816 24.614972679497455, 237.09373186437216 25.5886923263465, 249.00310737074616 24.274041583635157 M250.9104976883468 25.184243243709417 C250.0607455867441 35.07620282278403, 248.65577069430287 48.01463646820806, 249.9437560645979 75.36309545985225 M250.57020649519856 24.48830779850804 C248.9340871547405 43.86913099637163, 249.226536214254 63.302440670281555, 249.53264201352016 74.87876813010047 M251.6823403985301 73.50578909613 C225.76261662156574 75.21590787853489, 203.87795300273072 74.07424914950246, 188.55277892842486 73.54459682213852 M249.61700852523572 74.90215839709157 C229.67303456075072 74.24535755162162, 211.82627044082983 74.73714094697367, 189.75528571641993 74.08119301053893 M188.24843842097255 74.8385333192855 C191.22470988169025 62.96810917674347, 188.29471297263575 54.88591737060616, 189.13413513608683 24.709260816478544 M189.83723802042815 74.25841405855074 C190.15473026732366 62.61333948816383, 190.25089537614465 51.995437774140576, 190.30203500242305 24.269660801255615" stroke="rgb(0, 0, 0)" stroke-width="1" fill="none"/><text x="220" y="55" class="type" aria-describedby="desc-1">str<title id="desc-1">Object type: str</title></text></g><text x="150" y="115" class="value" aria-describedby="desc-2">"Hide ID"<title id="desc-2">Value: "Hide ID"</title></text></g></svg>