<svg data-theme="dark" width="287" height="217" xmlns="http://www.w3.org/2000/svg"><title>Python memory model diagram showing objects</title><style>
        :root {
        --fade-text-color: rgb(0, 0, 0);
        --hide-text-color: white;

        --highlight-value-text-color: rgb(27, 14, 139);
        --highlight-id-text-color: rgb(150, 100, 28);

        --highlight-box-fill: yellow;
        --highlight-box-line-color: rgb(0, 0, 0);

        --fade-box-fill: rgb(247, 247, 247);
        --fade-box-line-color: gray;

        --hide-box-fill: white;

        --primitive-value-color: rgb(27, 14, 139);
        --id-text-color: rgb(150, 100, 28);
        --default-font-size: 20px;

        --highlight-object-fill: rgba(255, 255, 0, 0.6);
    }

        text {
            font-family: Consolas, Courier;
            font-size: 20px;
        }
        text.default {
            fill: rgb(0, 0, 0);
            text-anchor: middle;
        }
        text.attribute {
            fill: rgb(27, 14, 139);
            text-anchor: start;
        }
        text.variable {
            fill: rgb(0, 0, 0);
            text-anchor: start;
        }
        text.id {
            cursor: auto;
            fill: rgb(150, 100, 28);
            text-anchor: middle;
        }
        text.type {
            fill: rgb(27, 14, 139);
            text-anchor: middle;
        }
        text.value {
            fill: rgb(27, 14, 139);
            text-anchor: middle;
        }
        path {
            stroke: rgb(0, 0, 0);
        }
        .highlighted path {
            fill: var(--highlight-object-fill) !important;
        }
    
        [data-theme="dark"] {
            --highlight-value-text-color: #110875;
            --highlight-id-text-color: #6e4409;

            --fade-text-color: #BBBBBB;
            --hide-text-color: #121212;

            --highlight-box-fill: #EDB926;
            --highlight-box-line-color: #FFFFFF;

            --fade-box-fill: #2C2C2C;
            --fade-box-line-color: #666666;

            --hide-box-fill: #121212;

            --highlight-object-fill: rgba(72, 207, 173, 0.3);
        }
        [data-theme="dark"] text.default,
        [data-theme="dark"] text.variable {
            fill: rgb(224, 224, 224);
        }
        [data-theme="dark"] text.attribute,
        [data-theme="dark"] text.type,
        [data-theme="dark"] text.value {
            fill: rgb(144, 164, 237);
        }
        [data-theme="dark"] text.id {
            fill: rgb(255, 183, 77);
        }
        [data-theme="dark"] path {
            stroke: rgb(204, 204, 204);
        }
</style><g role="graphics-object"><title>Str id25 with value "Hide"</title><g id="object-0"><path d="M51.845450990092615 24.817713151338527 L249.78708502662946 26.20110740294339 L248.11097847224625 156.7751256122681 L50.666974716224125 156.4686439163811" stroke="none" stroke-width="0" fill="var(--hide-box-fill)"/><path d="M51.33516592862661 23.253388286071353 C104.90244252376544 22.626379347652097, 156.82255874820348 23.668872401905404, 249.58399950707675 24.176185980489066 M49.56945443510722 25.343669038943105 C113.74250448276759 24.220336907739835, 177.65703575594134 23.9384778670391, 249.47529812373418 25.23399950758466 M251.7784568981026 25.406146006814275 C248.49231815142895 60.04912870531062, 247.00305656313583 95.1057752091748, 249.85193990426058 156.64659667576 M249.77045916873857 25.171032039007336 C248.76148365076847 67.55205261934401, 249.72610585963545 107.4144467767664, 250.46811636965978 154.33864300372554 M248.99705805916494 156.60191005795875 C180.56814891420257 152.19310593513805, 115.87620965498736 154.99809077768398, 49.801115132977564 156.1230875830258 M250.83040877029373 154.43800239567787 C200.29805515952853 154.09937456951968, 149.69036331646097 155.2246895822611, 49.18061449293958 154.32942308986765 M51.222834238143655 153.05502024035857 C50.24932838518962 104.81165314353089, 48.9411933727455 52.514105987427875, 49.414952408916726 26.34081545742209 M49.351906444875844 155.72081439875842 C49.53094150607768 111.79149838068935, 49.76331491170093 66.62161975084192, 50.10251283819106 24.555623697405778" stroke="#000" stroke-width="1" fill="none"/></g><g><path d="M43.59712051705354 19.377093025238594 L256.82353939606276 18.722299223159233 L254.31455746047962 159.11002182414242 L44.4568093085507 162.57758974797395" stroke="none" stroke-width="0" fill="none"/><path d="M42.287835421495764 20.04888570178046 C96.12003682542229 20.767760819470574, 150.14036111632873 19.131194391841255, 256.78565840662844 19.394395628861275 M43.29597083140039 18.393475209574355 C108.99432641733593 16.969048199124913, 173.61804963879743 17.46954676226514, 256.5725220844981 18.810126698182575 M254.50247113382906 19.301123582374395 C253.4286366334654 54.720501136035054, 256.22748962017096 93.71932219928074, 254.2598368512074 159.35823575692046 M255.2150895372231 19.662774862672688 C256.260491887496 60.16342639159996, 255.67604836468746 101.58606507954237, 256.9221944264273 161.03146793984232 M255.2943482685772 162.25097015603373 C186.66817437601864 159.8727777815263, 119.37682443034966 158.27043684419593, 43.5856133373641 162.24986070109216 M256.2197390438396 161.10945637419374 C180.24398427009476 159.73977417968655, 104.65681737522745 161.10768152209317, 43.58552794887696 160.45975764689663 M42.61859290896726 160.35434516357807 C43.54257307396952 113.00111891517784, 43.44154357747472 60.97123472765961, 43.20116717508917 20.559717030897836 M43.681228267042584 160.85866203030653 C43.273965668590996 106.00952790442474, 44.07340848416064 49.73606381761884, 44.00720644735614 19.205426942040624" stroke="rgb(0, 0, 0)" stroke-width="1" fill="none"/></g><g><path d="M50.569375647106554 26.504078878046364 L109.53828008148045 25.842130765004274 L111.93486746449263 74.40048174479304 L51.41383861012326 76.60717649203849" stroke="none" stroke-width="0" fill="var(--hide-box-fill)"/><path d="M50.06412506902208 23.13426643044932 C68.97728430420392 26.64294743058406, 88.55038400410149 24.96570529073967, 108.55230729711481 23.215801082853098 M49.01839242657071 24.131286396667598 C63.6500664243151 25.12833612378404, 78.84781877799387 25.558755956889275, 110.53088177740324 25.123520076545493 M110.89959147008751 26.396698243806064 C110.74386721306001 41.67857136691716, 108.69297524979766 60.41630143733097, 110.19335364965823 75.4486247677285 M109.17167007807349 24.339676528842567 C109.89858735456498 40.28288433846558, 110.95616705347345 55.02645519977298, 110.50828970608944 74.44155988278787 M108.03919862263268 74.97120312475047 C89.28380117624661 74.21680148050731, 71.64263088213816 76.30416588977296, 48.04069106851533 75.45969256398762 M109.79911228175067 75.24133525310546 C97.54269026734806 74.90995656869691, 83.8045146819103 75.68911998455668, 50.31858484592836 75.1988390649217 M49.26965777545091 74.25541058157643 C48.63959156160862 60.95755874655754, 51.376447682482784 48.96679310565198, 48.00323212597466 26.245976641766 M49.12781057097386 74.9647588930367 C49.65961224185443 59.33921293998583, 50.66944432687836 42.294475263970725, 50.252627618362446 24.52172967146831" stroke="#000" stroke-width="1" fill="none"/><text x="80" y="55" style="fill-opacity:0; fill:var(--hide-text-color); " class="id" aria-describedby="desc-0">id25<title id="desc-0">Object id</title></text></g><g><path d="M191.73846231476873 23.018987735798177 L251.15210159083335 23.55780645314683 L248.4747543119391 76.92930258560891 L189.3224671813137 74.218078557739" stroke="none" stroke-width="0" fill="var(--hide-box-fill)"/><path d="M189.94024714113846 26.7925527694893 C208.4398070253024 23.714545617037334, 227.39329170680597 24.383459704150873, 250.4373981390836 25.944489672119747 M189.47618058432016 24.38786531672129 C202.0251360788306 25.04968630104992, 215.24219393675315 26.196572177203468, 249.48646148271973 25.553530742507796 M251.7209031268831 24.765794841970628 C248.48648423603962 37.92239154164884, 248.00826857808585 48.40970779947465, 248.05263883449197 73.8080665424276 M250.5805369303555 25.972235440101798 C250.75014179539963 40.21455667819502, 250.75513730349775 54.638934473084404, 249.40238160461587 75.47224295896268 M251.15867786877996 74.63066314165019 C231.143208535941 73.47621609273756, 209.63196638563875 76.2509322163177, 190.57943943767853 76.92167325876694 M250.32576047719667 75.62533663631056 C226.62063799247204 75.7224285246144, 204.48442622160243 75.8556329951012, 190.80295446761545 74.35979465911507 M188.45808675460066 75.23520529742092 C190.8591453043003 55.52744010828828, 191.6382958925956 37.796476152148514, 189.14126945890908 25.28923788174088 M189.84254933247868 75.70010552088695 C189.1743392142152 57.54569049219151, 189.18160861950523 40.296290954565436, 190.1432975079115 25.542880708872456" stroke="#000" stroke-width="1" fill="none"/><text x="220" y="55" style="fill-opacity:0; fill:var(--hide-text-color); " class="type" aria-describedby="desc-1">str<title id="desc-1">Object type</title></text></g><text x="150" y="115" style="fill-opacity:0; fill:var(--hide-text-color); " class="value" aria-describedby="desc-2">"Hide"<title id="desc-2">Value</title></text></g></svg>