<svg data-theme="dark" width="287" height="217" xmlns="http://www.w3.org/2000/svg"><title>Python memory model diagram showing objects</title><style>
        :root {
        --fade-text-color: rgb(0, 0, 0);
        --hide-text-color: white;

        --highlight-value-text-color: rgb(27, 14, 139);
        --highlight-id-text-color: rgb(150, 100, 28);

        --highlight-box-fill: yellow;
        --highlight-box-line-color: rgb(0, 0, 0);

        --fade-box-fill: rgb(247, 247, 247);
        --fade-box-line-color: gray;

        --hide-box-fill: white;

        --primitive-value-color: rgb(27, 14, 139);
        --id-text-color: rgb(150, 100, 28);
        --default-font-size: 20px;

        --highlight-object-fill: rgba(255, 255, 0, 0.6);
    }

        text {
            font-family: Consolas, Courier;
            font-size: 20px;
        }
        text.default {
            fill: rgb(0, 0, 0);
            text-anchor: middle;
        }
        text.attribute {
            fill: rgb(27, 14, 139);
            text-anchor: start;
        }
        text.variable {
            fill: rgb(0, 0, 0);
            text-anchor: start;
        }
        text.id {
            cursor: auto;
            fill: rgb(150, 100, 28);
            text-anchor: middle;
        }
        text.type {
            fill: rgb(27, 14, 139);
            text-anchor: middle;
        }
        text.value {
            fill: rgb(27, 14, 139);
            text-anchor: middle;
        }
        path {
            stroke: rgb(0, 0, 0);
        }
        .highlighted path {
            fill: var(--highlight-object-fill) !important;
        }
    
        [data-theme="dark"] {
            --highlight-value-text-color: #110875;
            --highlight-id-text-color: #6e4409;

            --fade-text-color: #BBBBBB;
            --hide-text-color: #121212;

            --highlight-box-fill: #EDB926;
            --highlight-box-line-color: #FFFFFF;

            --fade-box-fill: #2C2C2C;
            --fade-box-line-color: #666666;

            --hide-box-fill: #121212;

            --highlight-object-fill: rgba(72, 207, 173, 0.3);
        }
        [data-theme="dark"] text.default,
        [data-theme="dark"] text.variable {
            fill: rgb(224, 224, 224);
        }
        [data-theme="dark"] text.attribute,
        [data-theme="dark"] text.type,
        [data-theme="dark"] text.value {
            fill: rgb(144, 164, 237);
        }
        [data-theme="dark"] text.id {
            fill: rgb(255, 183, 77);
        }
        [data-theme="dark"] path {
            stroke: rgb(204, 204, 204);
        }
</style><g role="graphics-object"><title>Str id26 with value "Hide ID"</title><g id="object-0"><path d="M51.31100701215742 23.585139659327808 L251.03563986127082 24.81995037814623 L248.01639734057974 153.62606971972156 L49.3927523796442 156.5048024980191" stroke="none" stroke-width="0" fill="none"/><path d="M51.75918085268394 26.036501686276907 C108.90390550907131 22.09239776411522, 168.0141397984869 23.591645652417988, 249.41493069930414 25.03210372812307 M50.46688235583586 25.16060073370515 C101.68094044914665 26.687450809740714, 153.6092333866177 26.428243875654886, 249.46907581168063 25.464608790615078 M248.12575732476083 26.94825698843416 C252.73554512178364 78.35537538325345, 252.47539989510702 129.37551035778776, 250.39638934022938 156.6039837575674 M250.40450366921183 24.807481021980607 C251.70574975944348 57.15032397616045, 250.00379662822843 89.86863094270929, 249.33464502755083 155.0700083863533 M251.38649782931643 155.0441286321136 C181.5708734982837 154.89131534647555, 110.91016052187618 154.3042109985618, 50.783217140418365 156.64332515783101 M250.75685780170036 155.6259334320291 C185.71461030763246 154.63695235939156, 122.8927896199739 154.6221041684973, 49.57167693254427 155.01508845666265 M49.9552961455744 154.42948658067456 C47.90258386876205 128.13542937442173, 48.777119738217635 97.56285284398855, 48.34677027944683 23.21008947715384 M49.410267201536435 155.8421152068473 C49.95542599321045 111.85659072872399, 49.90698273351754 69.3915454794076, 49.13864623467345 24.438291036312748" stroke="rgb(0, 0, 0)" stroke-width="1" fill="none"/></g><g><path d="M44.444055408070156 20.713349923935088 L256.13487719264987 19.797510068950956 L254.74804834331508 162.2377316129628 L45.9505987688905 161.3627455920742" stroke="none" stroke-width="0" fill="none"/><path d="M45.18638792440733 19.591804736927994 C103.69767577791168 19.612377173600652, 160.8872851543085 20.812315692519668, 255.23325183942944 17.55640463461685 M44.32472359585724 18.653106007593102 C110.52070400684228 16.967437641668013, 178.97945505230527 17.811078918065768, 255.41237633781466 19.691455452178133 M255.83244096110755 20.801632900677646 C255.5643366330815 68.49832103899166, 258.3676380656836 118.73652358007558, 257.50447854364626 162.8083047572477 M256.4104123779281 18.88958813854819 C255.00772444238663 57.98285057561376, 255.21136597084322 95.35158248143199, 256.6904611495519 160.97293690643323 M257.28591033797824 162.4863952413585 C177.83838467306865 160.2825574309451, 99.33564105129378 157.89731532226284, 43.895909470114916 159.9596233929607 M255.17999165992228 161.20321662078908 C204.74468052396603 159.19341209920265, 152.74725057535935 160.01023533471997, 44.03051883253873 161.36691621461213 M44.077783605670746 162.09247358871096 C42.0854887910597 129.62771667669958, 42.78091241355159 101.45768834238373, 44.367499112759596 20.980543600347847 M43.77299380798562 161.36303541279 C44.26813462287321 125.59785154715065, 44.00081490222066 92.72509007980737, 43.95665588058375 18.57765052956872" stroke="rgb(0, 0, 0)" stroke-width="1" fill="none"/></g><text x="150" y="115" class="value">"Hide ID"</text><g><path d="M50.80434409448709 23.114940155594404 L110.4558182527328 24.03368751763398 L109.72979149547811 73.66612483225494 L49.895965213439496 76.23415833160784" stroke="none" stroke-width="0" fill="var(--hide-box-fill)"/><path d="M50.1280387608838 24.728448887698903 C69.52039951887987 22.6724817723849, 87.74451666853935 23.34911426154843, 110.7332695565266 23.102510748172634 M49.27847439486473 25.494048357060358 C64.72523104495798 25.28900871042072, 78.90039490968532 24.861252701659627, 110.05187707234812 25.048026204011936 M109.10765542185139 24.760528239312137 C109.88097308569263 38.49576021901649, 108.846829366716 52.37509432072433, 111.7340384912861 76.69725167198185 M110.7136213936887 24.62905801081685 C110.03783316933958 43.435975538017956, 109.8961663910473 62.92227590585296, 109.58746329609987 74.20481942948747 M108.1600437683854 73.62265771824322 C92.19700551850042 74.21553549300044, 74.76473800631045 75.01249785089584, 50.269892208547844 74.12570890964669 M109.25084220058848 74.37687917880469 C94.37432349749872 75.23334786703924, 80.88900507513932 76.2729508604061, 50.16734642704073 75.21480201566585 M51.31232104343385 76.78524183931289 C49.80175820222327 61.50751420619753, 52.03060130211111 47.118540240696156, 50.726672737622565 26.12716106833458 M49.06068226226361 74.51993968935447 C50.60906305983127 57.917650916003254, 50.7565672649561 42.634075988342, 49.3662755664823 24.609672724275324" stroke="#000" stroke-width="1" fill="none"/></g><g><path d="M188.88431569584608 25.399838125546765 L248.6059272434323 24.243623705163653 L250.4874415218514 73.37221898039382 L190.60404547729354 76.90701880205603" stroke="none" stroke-width="0" fill="none"/><path d="M189.97541623147438 23.391637779696786 C213.8945178236286 24.797884809000752, 235.10008516863127 25.72667769254074, 248.25260785070176 24.671764281563895 M190.39765739008917 24.99441347042349 C209.54424609897933 24.791479808226022, 231.60376622485245 25.811176845056696, 249.865183923487 24.510687068143557 M251.48804606882317 26.013900384139212 C249.24989159813768 42.756219571301756, 247.7423312073264 61.777971274604475, 250.46555227243044 76.84469233717526 M249.35078432917888 25.235223251124324 C249.50084725250474 43.603450175793846, 248.9366535937363 61.886972370780704, 250.4641727303605 75.17737867161233 M249.64911467230814 76.46554992777477 C234.49844962512955 74.6475276398245, 217.65526793944298 75.83053972066949, 191.63324672543024 73.86416296746582 M250.40724156287797 75.20144711661902 C236.1297708768243 74.52282388577888, 220.55676293963887 74.21344336311971, 189.1776228789641 75.89733285703024 M190.75396063643961 73.19750203919027 C188.8220840250189 58.91502856200198, 189.66495762485576 47.12937342259915, 189.20795382856627 25.223688712496944 M189.4765559605397 74.82188502085485 C190.81323838437072 63.97975299208378, 190.5259201975192 52.666266296920234, 190.28576919934284 25.891217864178703" stroke="rgb(0, 0, 0)" stroke-width="1" fill="none"/></g><text x="80" y="55" style="fill-opacity:0; fill:var(--hide-text-color); " class="id">id26</text><text x="220" y="55" class="type">str</text></g></svg>