<svg width="287" height="217" xmlns="http://www.w3.org/2000/svg"><title>Python memory model diagram showing objects</title><style>
        :root {
        --fade-text-color: rgb(0, 0, 0);
        --hide-text-color: white;

        --highlight-value-text-color: rgb(27, 14, 139);
        --highlight-id-text-color: rgb(150, 100, 28);

        --highlight-box-fill: yellow;
        --highlight-box-line-color: rgb(0, 0, 0);

        --fade-box-fill: rgb(247, 247, 247);
        --fade-box-line-color: gray;

        --hide-box-fill: white;

        --primitive-value-color: rgb(27, 14, 139);
        --id-text-color: rgb(150, 100, 28);
        --default-font-size: 20px;

        --highlight-object-fill: rgba(255, 255, 0, 0.6);
    }

        text {
            font-family: Consolas, Courier;
            font-size: 20px;
        }
        text.default {
            fill: rgb(0, 0, 0);
            text-anchor: middle;
        }
        text.attribute {
            fill: rgb(27, 14, 139);
            text-anchor: start;
        }
        text.variable {
            fill: rgb(0, 0, 0);
            text-anchor: start;
        }
        text.id {
            cursor: auto;
            fill: rgb(150, 100, 28);
            text-anchor: middle;
        }
        text.type {
            fill: rgb(27, 14, 139);
            text-anchor: middle;
        }
        text.value {
            fill: rgb(27, 14, 139);
            text-anchor: middle;
        }
        path {
            stroke: rgb(0, 0, 0);
        }
        .highlighted path {
            fill: var(--highlight-object-fill) !important;
        }
    </style><g role="graphics-object"><title>Str id27 with value "Hide Type"</title><g id="object-0"><path d="M51.877741857370715 24.33112256412642 L248.70323872586945 25.674977695585085 L248.9438265456478 156.18866460635167 L50.5941378296307 153.59162965376328" stroke="none" stroke-width="0" fill="none"/><path d="M48.99137024479483 24.98807192719335 C92.11666367147448 26.597182907515403, 136.78874658409475 26.190337813226215, 248.3844420871314 25.845798547905286 M50.63118783281825 24.370209891391674 C92.48484501614011 25.129181256718788, 135.13781185040082 26.098395598494506, 250.06726682553 25.804185546082447 M251.89955030951512 24.34270357011811 C250.31489769744547 57.07704078630813, 249.07824000954247 88.45761630825038, 250.96889843503243 154.69513610284397 M250.84444036919197 24.78106262800601 C250.99763839871207 71.78338935922923, 250.15442507919212 118.04364701640152, 249.45975338342396 154.75726273023722 M250.71425392699615 153.6100196095164 C198.38064760900284 156.3545371352365, 146.2141470363044 156.08452507509568, 48.88503686277644 154.18845788436803 M249.49080202204084 154.29451128883127 C205.64310871345606 155.8536514342575, 163.49209222394126 154.71336045174394, 49.34880034343335 155.1224989748847 M49.81302149550593 153.83011539865555 C50.624391892375264 105.08766041892301, 51.03482699591324 57.386661413609126, 49.298912654606966 24.942740378765073 M49.95600932672064 155.77328456631096 C48.46921695905581 123.15423255774449, 50.162023575184946 91.54905044673744, 49.20881513188568 25.92094306288868" stroke="rgb(0, 0, 0)" stroke-width="1" fill="none"/></g><g><path d="M43.98468800526259 17.927770381863425 L255.07911014828784 17.663502372847645 L254.41910956372482 160.85310519903751 L43.75442176314898 161.59112722243435" stroke="none" stroke-width="0" fill="none"/><path d="M42.43386392520129 20.010768857553664 C120.39113238606565 18.92155157572626, 200.22890063485576 18.934862862007805, 257.1606216023277 18.659790093790324 M43.858840523127554 18.807759848684352 C110.73097944722377 18.42091471821026, 177.00141241303695 17.337308132851746, 255.30769436152806 18.247592140794918 M254.49012271459736 20.4551911085676 C257.74559385032995 75.72308457353053, 259.0544348108847 131.6953254653184, 256.41515289285564 160.6970634883462 M256.19872971018884 19.030378960784034 C256.4690291838388 66.60477774689936, 256.1914552279386 113.3021501781375, 256.0339105598521 160.23322153202184 M256.3072463378305 162.73235563510525 C194.86072855927603 160.85731230375754, 135.23616664723139 160.699093326836, 42.306179472814385 160.7775831606164 M256.1479218180765 160.47379209097014 C206.313902621148 163.0024757450452, 158.66639032607068 161.88937547586204, 44.05855781812032 160.16468092792437 M43.55353334630547 162.2353424856037 C42.3631936187383 120.99578010404119, 44.54671845154631 77.63667276930319, 43.492664301465624 18.570916311525362 M44.61818764212168 160.7562862850836 C45.08328871357022 124.31589537027926, 46.16541290183246 89.840015823339, 44.64852441130266 19.557992390603786" stroke="rgb(0, 0, 0)" stroke-width="1" fill="none"/></g><text x="150" y="115" class="value">"Hide Type"</text><g><path d="M51.21182562778546 24.958946602451505 L109.63935510856768 26.71124075388562 L108.51315338484726 76.18382598192596 L49.67543959651351 76.87549893733984" stroke="none" stroke-width="0" fill="none"/><path d="M51.85501741453326 23.781385461226627 C70.79971015205953 23.507818338572328, 88.16540914016595 26.393086133867328, 108.95236674849227 25.920160039436507 M49.16742128579333 25.673436392555715 C68.39039656855354 25.550069226494834, 86.48263204099578 24.342573755987903, 109.57199470059278 24.791888516671257 M111.05958639155648 23.430772828336977 C112.01807290016578 37.337852177177496, 110.70061968296788 45.23005480244889, 109.28208854588343 74.62989638851946 M110.206151960166 25.17585992206269 C110.38927067768837 36.963714616610645, 109.11969211565726 49.08134989549691, 110.3564704396636 75.4725565596999 M108.211527508118 75.51191656587453 C89.86014268705712 75.90362188414957, 67.40951926138516 74.12835272601879, 49.22070904776419 74.36656109030996 M109.04544858200977 74.98109790779235 C94.91935942084505 75.43560819540238, 79.93119776206083 76.05370752433144, 50.21722456360326 75.52700416745095 M48.90648869420314 75.67597909940793 C49.87969342850081 63.8792484350148, 51.193279720585956 54.05544641741156, 49.32757578284112 23.3656553086244 M49.23773319780191 75.58821068748244 C48.61312692551982 58.2598164500076, 50.36935769450256 41.54750414174495, 49.48150792753411 24.951835680526983" stroke="rgb(0, 0, 0)" stroke-width="1" fill="none"/></g><g><path d="M188.61126121501644 23.47998315465796 L248.9551086510069 24.058088481769182 L248.90841830653156 74.1482358889821 L190.63009636671958 76.63630916474334" stroke="none" stroke-width="0" fill="var(--hide-box-fill)"/><path d="M188.38213088124402 24.658724381609076 C208.66447980333004 24.648241334654788, 228.5727123112206 25.344610023570205, 250.41547848352872 23.71721613054689 M190.65012576290718 24.942675065285275 C201.88691736741924 24.639516633437204, 215.92845020773134 25.793600683612933, 249.71466551728753 25.863469692950506 M248.76757640781133 24.366221083640788 C249.015185145051 35.76570123137463, 248.56060354731568 51.620228048121604, 249.20950680045988 74.27784352366271 M249.71596415668205 25.169979409823924 C249.87704544937452 43.47888753594435, 249.29289835717364 62.56607024827489, 250.4678513521982 75.18634587715357 M250.66229272653266 76.94066947031567 C238.1882013786034 76.27599843245366, 224.1543184654524 75.1552851609258, 189.36186375443668 74.28907180477685 M249.58616788702736 75.84797542219653 C230.3325975166 73.963072687942, 209.3047638336786 75.44630451459648, 189.3671749721548 74.36292719287911 M191.55188876908537 76.48090910085894 C192.27852804151775 60.020641024905416, 191.7727677849044 45.63073793506795, 190.1369094257291 23.295390669224158 M190.19744304871207 74.20387291405144 C189.9040594125234 56.12910314995469, 190.03673138160846 36.10150161164719, 189.14641036438124 25.190271766375" stroke="#000" stroke-width="1" fill="none"/></g><text x="80" y="55" class="id">id27</text><text x="220" y="55" style="fill-opacity:0; fill:var(--hide-text-color); " class="type">str</text></g></svg>