<svg data-theme="dark" width="304" height="217" xmlns="http://www.w3.org/2000/svg"><title>Python memory model diagram showing objects</title><style>
        :root {
        --fade-text-color: rgb(0, 0, 0);
        --hide-text-color: white;

        --highlight-value-text-color: rgb(27, 14, 139);
        --highlight-id-text-color: rgb(150, 100, 28);

        --highlight-box-fill: yellow;
        --highlight-box-line-color: rgb(0, 0, 0);

        --fade-box-fill: rgb(247, 247, 247);
        --fade-box-line-color: gray;

        --hide-box-fill: white;

        --primitive-value-color: rgb(27, 14, 139);
        --id-text-color: rgb(150, 100, 28);
        --default-font-size: 20px;

        --highlight-object-fill: rgba(255, 255, 0, 0.6);
    }

        text {
            font-family: Consolas, Courier;
            font-size: 20px;
        }
        text.default {
            fill: rgb(0, 0, 0);
            text-anchor: middle;
        }
        text.attribute {
            fill: rgb(27, 14, 139);
            text-anchor: start;
        }
        text.variable {
            fill: rgb(0, 0, 0);
            text-anchor: start;
        }
        text.id {
            cursor: auto;
            fill: rgb(150, 100, 28);
            text-anchor: middle;
        }
        text.type {
            fill: rgb(27, 14, 139);
            text-anchor: middle;
        }
        text.value {
            fill: rgb(27, 14, 139);
            text-anchor: middle;
        }
        path {
            stroke: rgb(0, 0, 0);
        }
        .highlighted path {
            fill: var(--highlight-object-fill) !important;
        }
    
        [data-theme="dark"] {
            --highlight-value-text-color: #110875;
            --highlight-id-text-color: #6e4409;

            --fade-text-color: #BBBBBB;
            --hide-text-color: #121212;

            --highlight-box-fill: #EDB926;
            --highlight-box-line-color: #FFFFFF;

            --fade-box-fill: #2C2C2C;
            --fade-box-line-color: #666666;

            --hide-box-fill: #121212;

            --highlight-object-fill: rgba(72, 207, 173, 0.3);
        }
        [data-theme="dark"] text.default,
        [data-theme="dark"] text.variable {
            fill: rgb(224, 224, 224);
        }
        [data-theme="dark"] text.attribute,
        [data-theme="dark"] text.type,
        [data-theme="dark"] text.value {
            fill: rgb(144, 164, 237);
        }
        [data-theme="dark"] text.id {
            fill: rgb(255, 183, 77);
        }
        [data-theme="dark"] path {
            stroke: rgb(204, 204, 204);
        }
</style><g role="graphics-object"><title>Str id28 with value "Hide Container"</title><g id="object-0"><path d="M50.59518656344692 26.272945696770137 L268.5892451160358 25.972654601545493 L267.3724512092292 156.4609517835337 L48.92003175750095 155.35446665027166" stroke="none" stroke-width="0" fill="var(--hide-box-fill)"/><path d="M50.54893999299049 26.664459924373574 C124.10300498526428 24.74833430494712, 201.2477813091522 22.215254658474368, 266.4443411571033 24.138904088298595 M50.60417532809007 24.933668035016183 C114.59267361926698 24.11597311931867, 178.92852590676222 23.793679734344853, 267.40237178705473 24.81922251394412 M265.41454062890557 24.115570699439434 C268.8639991698105 76.90225319034322, 266.2115692677308 128.27371713297094, 267.4197026715503 156.84930015157863 M266.2976874190963 24.791487101603963 C265.8423392404097 51.9083346031896, 267.39405466712276 80.33202527330945, 267.7055368306033 155.04074636684618 M268.35653521268057 154.70817397546008 C212.37788531776067 155.24864432169198, 154.7168981433282 154.85514397081818, 49.11037967268645 155.99763044007196 M266.9587300760446 155.0775791877761 C213.55212300249428 155.13778914547487, 160.41728441727093 155.47723965280227, 50.64487314063371 155.13641088099791 M51.873679867170125 154.22352165619336 C49.19236759120004 104.26156041981683, 50.30650931898857 52.18847407731872, 48.645976456683364 23.257248421649823 M50.04006409474574 155.44716032856223 C51.168325133648544 113.15235746554517, 50.762251818793 71.56038388351702, 50.98003093570245 25.830279387342696" stroke="#000" stroke-width="1" fill="none"/></g><g><path d="M43.967018940156045 17.892954056634842 L271.51612920650166 19.751753166688083 L271.17674999378085 162.88224804987826 L43.39689191127977 160.04605383404643" stroke="none" stroke-width="0" fill="none"/><path d="M43.826140836068696 17.570818868768793 C89.98832813294946 17.794978103607438, 136.9379465878668 18.919951443692035, 271.63619570202576 18.86227005744526 M43.59706485577065 18.544390122441367 C115.37538036240856 19.69493478499311, 187.0979293156341 20.00492118827039, 273.25250375231957 19.577269413492584 M274.6861813868719 20.06586009857644 C273.71349172439875 71.78443115617644, 275.6321349885571 123.46268249893281, 271.54826058983946 162.5342768220354 M272.1548588028288 19.533609276972772 C274.01641998770225 63.43892542071248, 272.6850477247992 105.85224904439775, 272.4693434784355 160.42456890959133 M272.35469094848776 161.71647890510118 C213.68279806409106 162.58716781353002, 153.87109149846978 162.86567338937462, 43.826715224032526 161.9458369600405 M272.2993299376954 160.54597770110442 C184.29479930512753 160.35538914197664, 94.44090267727088 158.78594817639924, 43.399964514981086 160.67275058915206 M42.843306419978425 159.53028244013555 C42.96980918189544 123.3722594915719, 44.6653701735853 82.60052632950095, 45.03263144649078 19.68602995581181 M44.230076276588385 160.67901660597062 C43.83884935846065 109.64336525360633, 44.41276730725895 57.867821653957876, 44.87276452987322 18.297115091993092" stroke="rgb(0, 0, 0)" stroke-width="1" fill="none"/></g><text x="158.5" y="115" style="fill-opacity:0; fill:var(--hide-text-color); " class="value">"Hide Container"</text><g><path d="M48.04172914569513 26.229223731215264 L109.38817957945604 26.86818236470898 L109.57429160834562 76.09825817699972 L50.06689269618994 73.82135937851226" stroke="none" stroke-width="0" fill="none"/><path d="M51.464863240984194 25.06725655552649 C65.42858085724417 25.294966106472792, 84.32678291394176 25.67504278551456, 110.12428848270878 25.694163578981822 M50.20976965847522 24.042972936294266 C74.27315408494208 25.878774781088044, 96.29360614310947 25.779568231969762, 110.77339297635407 24.54786658780411 M109.09146390597232 23.11990815174733 C108.68945739584255 40.885480008036275, 108.98076736659709 57.397371556712685, 110.663603598977 73.42828170359688 M109.03860731105517 25.011929796383154 C109.35541236663293 44.18188889227666, 110.41988118753042 61.538299618925436, 109.43388960211009 75.70361007131369 M108.01386214233356 76.65926241669779 C93.56920045190925 73.5780745875173, 73.74223753779866 73.69432971345036, 51.13223190016968 75.91682640599493 M109.90713533150311 75.22592873345427 C91.3849222497251 75.47562138763173, 72.57580297047315 74.76901685424473, 50.539171630817336 74.20609805049682 M51.25546911504428 73.28179990291756 C49.29164469128042 64.00139518764654, 49.356104045280404 50.04525336217786, 51.44316651134844 25.809483226396956 M49.0810554866666 75.77021480679856 C49.63729145921069 57.37865329610421, 49.43718460638477 39.70646282424365, 50.15269091153454 25.606487398038684" stroke="rgb(0, 0, 0)" stroke-width="1" fill="none"/></g><g><path d="M208.473784729852 23.854551081360377 L268.9069147462149 26.251841121617858 L268.2145432973032 75.46566939430113 L206.0094147043782 73.9967832017929" stroke="none" stroke-width="0" fill="none"/><path d="M208.9927137768772 26.72829854145155 C231.29851315346943 25.444217534937792, 254.32025780175667 23.324877191144466, 266.1175283464181 26.79002504048493 M207.49205179278894 24.918368379122143 C227.4644044654834 24.941589228864082, 248.380782375591 23.961532479679285, 267.64710832000645 25.044689508817978 M267.86012697600563 23.152755946316685 C268.86465260428196 39.893943703668924, 267.64561949738857 49.91679371075944, 268.74229586891227 76.37712986798697 M267.08301975867715 24.60557212026401 C266.3929409058277 42.786702814635376, 266.59976453626797 60.06545984275747, 267.4406372170864 75.85434549113009 M266.70858505445136 75.50291804584225 C252.1752179246146 75.30555817799655, 232.0332360889171 73.28408995963483, 207.65816477064982 75.45195920942223 M266.28732847834607 74.04916875192691 C249.97010100269264 75.90061785918516, 233.55261775324877 75.70157182276384, 206.414916726465 74.6788429451672 M208.67264266857055 75.91861189092073 C206.9166444276239 64.62007275954745, 205.94925467820045 48.972645750156815, 208.04667354911874 24.507658793098997 M207.45502549538395 74.53132988208688 C207.6472202171836 61.3292337361532, 207.86608742654752 49.989376631451385, 206.3503371333641 24.832163968910535" stroke="rgb(0, 0, 0)" stroke-width="1" fill="none"/></g><text x="80" y="55" class="id">id28</text><text x="237" y="55" class="type">str</text></g></svg>