<svg width="287" height="217" xmlns="http://www.w3.org/2000/svg"><title>Python memory model diagram showing objects</title><style>
        :root {
        --fade-text-color: rgb(0, 0, 0);
        --hide-text-color: white;

        --highlight-value-text-color: rgb(27, 14, 139);
        --highlight-id-text-color: rgb(150, 100, 28);

        --highlight-box-fill: yellow;
        --highlight-box-line-color: rgb(0, 0, 0);

        --fade-box-fill: rgb(247, 247, 247);
        --fade-box-line-color: gray;

        --hide-box-fill: white;

        --primitive-value-color: rgb(27, 14, 139);
        --id-text-color: rgb(150, 100, 28);
        --default-font-size: 20px;

        --highlight-object-fill: rgba(255, 255, 0, 0.6);
    }

        text {
            font-family: Consolas, Courier;
            font-size: 20px;
        }
        text.default {
            fill: rgb(0, 0, 0);
            text-anchor: middle;
        }
        text.attribute {
            fill: rgb(27, 14, 139);
            text-anchor: start;
        }
        text.variable {
            fill: rgb(0, 0, 0);
            text-anchor: start;
        }
        text.id {
            cursor: auto;
            fill: rgb(150, 100, 28);
            text-anchor: middle;
        }
        text.type {
            fill: rgb(27, 14, 139);
            text-anchor: middle;
        }
        text.value {
            fill: rgb(27, 14, 139);
            text-anchor: middle;
        }
        path {
            stroke: rgb(0, 0, 0);
        }
        .highlighted path {
            fill: var(--highlight-object-fill) !important;
        }
    </style><g role="graphics-object"><title>Str id25 with value "Hide"</title><g id="object-0"><path d="M51.37326224763254 23.419007972785998 L250.0071469792747 25.577232476943756 L250.55724550630487 154.0713793109894 L48.62145936673271 155.6797822878378" stroke="none" stroke-width="0" fill="var(--hide-box-fill)"/><path d="M51.68992912370977 23.81301875952338 C122.58121480121895 24.733295566753856, 193.50861623447034 25.06453454580937, 250.41489700024542 23.2518999962774 M49.64474458789877 24.33301801225256 C121.64808430702678 25.138382486952086, 194.2046261458553 24.273770757033546, 249.86677125705594 25.404744019980257 M249.8986587095172 23.31016259034097 C250.10338597521968 75.12313056690157, 250.57470361275935 121.49322812027822, 251.43216115190563 155.62105339102257 M249.74899652111108 24.44216357549124 C248.80996884710433 54.42080869089765, 250.44604158877087 84.48653402826929, 249.89372839989164 155.2524072727772 M248.2364920452946 154.3981866084425 C207.22402963410875 157.31174178128146, 164.41002319103933 157.5194861983815, 50.830417516049636 155.71436654434515 M250.7983513237388 155.80343949140433 C187.19930164739327 154.86713274931162, 123.204916006573 154.721854246612, 50.47552701078836 155.46407493874403 M49.2105197763796 155.49769451714457 C48.865452270186516 111.15941347563492, 49.25835113128666 62.51080304080156, 48.53190248391747 23.708749391506828 M50.54792636470543 154.11254054769813 C48.91965989869207 111.18807183592688, 48.39957177583896 68.92809944926991, 50.702151416724284 25.291461125602567" stroke="#000" stroke-width="1" fill="none"/></g><g><path d="M44.17964790980879 18.25461574372045 L254.47616995368463 19.99677273998687 L256.72603371696846 162.459417247878 L42.83090461463106 160.789685060742" stroke="none" stroke-width="0" fill="none"/><path d="M44.50253493615904 17.29991253986425 C91.41605210067932 18.72811533932972, 134.22853094553727 18.329205208974418, 256.24583724389606 20.56450656147305 M43.228000251390476 19.17263856121393 C120.89072328935241 18.29928858234402, 198.2754660605624 17.40002482312435, 256.3466897102536 19.609698718683536 M255.44611819140573 17.157118775451416 C256.14444048633294 50.92591650373879, 257.4394504046056 81.31611491226883, 256.507015193493 160.28272563587464 M256.5882147696947 18.272195728408626 C253.94780929136493 47.41872283164888, 254.66917222581864 76.98270884229999, 256.5837685239887 160.3090364874131 M254.68975096531457 161.98783971153324 C195.4690880845427 160.3543642172614, 133.18788009077068 160.68584769617715, 43.257746254020496 160.454161876777 M256.4557706669853 161.256167203205 C206.50668815838534 159.78079167190316, 155.7952818104407 158.42923921746643, 43.36001827610775 160.13281736635528 M42.67762671003399 159.38455302178616 C47.10808263255648 123.79574408778888, 46.3223703735499 86.14831192251592, 45.33660248122804 20.85060960646835 M43.107182325323436 161.22096751683262 C44.54753254525792 127.19520587466957, 45.78074365668193 93.03214871102178, 43.53064252866063 18.388640115161277" stroke="rgb(0, 0, 0)" stroke-width="1" fill="none"/></g><g><path d="M51.18230491050109 25.98661139166294 L111.52507762067135 24.36357404660226 L110.60830548440715 76.22563755484653 L51.864494621386 75.12141501698643" stroke="none" stroke-width="0" fill="var(--hide-box-fill)"/><path d="M51.034222450216056 23.2971496774658 C65.05383189089612 22.986718226427644, 77.89690924831925 24.63724833054221, 108.2343236816607 23.891190386882332 M49.09797499539512 25.613862222832523 C71.43429276830804 25.48090497127345, 92.81497691668694 26.082979527507614, 109.1124534135795 24.77351490951666 M110.24446884918649 24.17043660583614 C110.36998401285429 40.44031528374941, 109.99557597041127 54.28324177565313, 108.50574451680761 75.22542767212539 M109.5693097080958 25.557457395427456 C111.37570163274131 41.68549549464386, 110.72098488681311 59.79884793126039, 109.11595368689905 75.02358821238327 M108.10589762074001 74.11513811669393 C86.5237314732183 76.83755609268773, 67.9083016782043 74.02337749310966, 49.755476937268256 76.50148670988958 M109.77338346973764 75.68108529278753 C87.9640296768222 75.08021717432942, 63.297046618887585 75.87848852439582, 49.63728627648247 74.47587420744335 M50.82568289683848 73.3712905433139 C48.64343636720623 63.52366874547819, 49.061714618899984 47.8618967951614, 49.648949726223115 25.91084081589652 M50.805695489333466 74.34498172032494 C50.68276150190208 58.17254357709389, 49.99720219027678 42.74673332299362, 50.320959523710904 24.946767104569258" stroke="#000" stroke-width="1" fill="none"/><text x="80" y="55" style="fill-opacity:0; fill:var(--hide-text-color); " class="id" aria-describedby="desc-0">id25<title id="desc-0">Object id: id25</title></text></g><g><path d="M190.49971276931913 26.777252000205763 L248.92807308794409 24.938361508462876 L248.67420550492253 74.2412567592171 L189.1794711037849 74.9065759145442" stroke="none" stroke-width="0" fill="var(--hide-box-fill)"/><path d="M190.77161533087155 24.127828661169104 C208.9005486090479 24.030484227276137, 227.59442485325687 25.004001130537706, 248.75684838522054 23.5421178491775 M190.55366527280228 24.30701665548248 C209.76807932209962 24.098671824153236, 230.757246868306 24.136954790032306, 250.5297234740296 24.71692010061002 M250.85467116039044 25.605432260040097 C250.72768119871785 41.90702838234448, 249.0499572353228 59.24460626047029, 251.9041543759602 76.01332218944016 M250.03428499063628 25.26266007420462 C249.86870689954122 41.249503782620415, 249.7414438538394 58.98877790307908, 250.33118377933238 74.22707177804078 M250.4414740729632 73.56381794164236 C231.41119109415135 73.94065937551846, 208.78038598461015 73.86645701619535, 190.14639130205296 73.15539062915958 M249.28536010448283 74.28283501866574 C228.03524864384445 74.60882296375358, 205.67335639164332 73.48317319180845, 190.78807941871156 75.70529824274156 M190.76797266355382 73.2843423225233 C191.9533225352276 54.48871765666439, 188.46531180843607 34.78486784361158, 189.9487796705157 23.751961248429122 M189.38646799336044 74.3181750380019 C190.43207099167867 56.74465268977044, 190.13717622806797 37.375509312641924, 190.54473299798778 25.940957429566367" stroke="#000" stroke-width="1" fill="none"/><text x="220" y="55" style="fill-opacity:0; fill:var(--hide-text-color); " class="type" aria-describedby="desc-1">str<title id="desc-1">Object type: str</title></text></g><text x="150" y="115" style="fill-opacity:0; fill:var(--hide-text-color); " class="value" aria-describedby="desc-2">"Hide"<title id="desc-2">Value: "Hide"</title></text></g></svg>