<svg data-theme="dark" width="287" height="217" xmlns="http://www.w3.org/2000/svg"><title>Python memory model diagram showing objects</title><style>
        :root {
        --fade-text-color: rgb(0, 0, 0);
        --hide-text-color: white;

        --highlight-value-text-color: rgb(27, 14, 139);
        --highlight-id-text-color: rgb(150, 100, 28);

        --highlight-box-fill: yellow;
        --highlight-box-line-color: rgb(0, 0, 0);

        --fade-box-fill: rgb(247, 247, 247);
        --fade-box-line-color: gray;

        --hide-box-fill: white;

        --primitive-value-color: rgb(27, 14, 139);
        --id-text-color: rgb(150, 100, 28);
        --default-font-size: 20px;

        --highlight-object-fill: rgba(255, 255, 0, 0.6);
    }

        text {
            font-family: Consolas, Courier;
            font-size: 20px;
        }
        text.default {
            fill: rgb(0, 0, 0);
            text-anchor: middle;
        }
        text.attribute {
            fill: rgb(27, 14, 139);
            text-anchor: start;
        }
        text.variable {
            fill: rgb(0, 0, 0);
            text-anchor: start;
        }
        text.id {
            cursor: auto;
            fill: rgb(150, 100, 28);
            text-anchor: middle;
        }
        text.type {
            fill: rgb(27, 14, 139);
            text-anchor: middle;
        }
        text.value {
            fill: rgb(27, 14, 139);
            text-anchor: middle;
        }
        path {
            stroke: rgb(0, 0, 0);
        }
        .highlighted path {
            fill: var(--highlight-object-fill) !important;
        }
    
        [data-theme="dark"] {
            --highlight-value-text-color: #110875;
            --highlight-id-text-color: #6e4409;

            --fade-text-color: #BBBBBB;
            --hide-text-color: #121212;

            --highlight-box-fill: #EDB926;
            --highlight-box-line-color: #FFFFFF;

            --fade-box-fill: #2C2C2C;
            --fade-box-line-color: #666666;

            --hide-box-fill: #121212;

            --highlight-object-fill: rgba(72, 207, 173, 0.3);
        }
        [data-theme="dark"] text.default,
        [data-theme="dark"] text.variable {
            fill: rgb(224, 224, 224);
        }
        [data-theme="dark"] text.attribute,
        [data-theme="dark"] text.type,
        [data-theme="dark"] text.value {
            fill: rgb(144, 164, 237);
        }
        [data-theme="dark"] text.id {
            fill: rgb(255, 183, 77);
        }
        [data-theme="dark"] path {
            stroke: rgb(204, 204, 204);
        }
</style><g role="graphics-object"><title>Str id19 with value "Highlight"</title><g id="object-0"><path d="M50.15736926721083 24.80553651317932 L249.72446115773292 24.945975592965578 L250.23837943269996 154.61534792411734 L49.93968721779829 155.21946369945093" stroke="none" stroke-width="0" fill="var(--highlight-box-fill)"/><path d="M50.11865181217086 24.712843487311137 C102.35565401533668 24.446270892410187, 154.79123736928747 24.523153502661103, 249.86258253459104 24.857191828522684 M50.169498649486805 25.172882551087767 C105.545344208726 24.9476725662814, 161.18718994170186 24.75582542129409, 250.01390588599398 25.004185343626496 M250.1887630289179 25.2403016944962 C249.99877463754143 64.2202066319239, 250.5364964671292 102.84518571036708, 250.11268372467822 155.08495418729805 M249.92490599816662 25.085209781571894 C250.28788069984012 75.31118259936545, 250.28109464712412 125.8632325213362, 249.9992689561591 155.05474704062317 M250.31090838965804 154.98256789561935 C208.01230058892637 155.60870108624383, 166.84038809640887 155.3400791530721, 50.24097330152459 154.83436915910056 M249.96534489952808 154.86572105059275 C173.37099805680833 154.77142242504766, 96.48807383255108 154.65185711897655, 49.93027910206578 155.16499962275134 M49.82101456839538 154.81703561958892 C50.35080582354268 121.10553136499112, 49.611251382307316 87.41665013349285, 49.72245164699054 25.327354090744013 M50.069685653407376 155.19664144615288 C49.827149582649106 103.62298728141054, 49.839645507105914 52.33994248960403, 50.03072007302146 24.999953579168622" stroke="var(--highlight-box-line-color)" stroke-width="4" fill="none"/></g><g><path d="M45.30592526763286 19.974813847861782 L257.26988589148755 18.189395016478926 L257.51046919439284 160.63288820574147 L43.5394396384714 160.13178694696512" stroke="none" stroke-width="0" fill="none"/><path d="M43.594469355964215 18.99984376277364 C97.41898154843604 17.07805926505716, 153.9191197160524 16.435561637380527, 254.83780004356046 19.729907327274542 M43.522529489676856 18.28711502436144 C107.45379256527849 20.9801175555343, 169.49966369570595 20.723125833778607, 256.38956244470813 19.371356375528137 M257.8923426964102 18.037062951297145 C255.622284998319 55.83651830967368, 255.40890119649976 89.530782458378, 256.8385771517431 160.06130167790397 M256.6124503538543 18.683353541456906 C257.1098250861791 50.23252334040201, 257.8704599638926 80.78982802581504, 255.27619471784809 160.4275069991821 M256.88392377184283 162.0920621765083 C204.01628095498577 163.12015060942053, 150.84187921559652 162.30893914300484, 43.3124092603759 160.82668723917888 M255.70497025814777 160.24509017533344 C189.7981490771637 161.65751016404678, 122.03789480036046 161.73427875602303, 43.75980587603181 160.1398447925531 M45.62751266283668 159.69985699689934 C42.52159728043695 127.70391268598867, 42.25671664146319 92.04567035891527, 43.65518673553163 18.0204845317512 M43.124826249232555 160.2548095913805 C42.002507769842936 122.19138323158744, 42.04365275273618 83.73282287856873, 44.44224058496256 19.269501429538888" stroke="rgb(0, 0, 0)" stroke-width="1" fill="none"/></g><g><path d="M50.13116890472964 25.087171990763228 L112.70006726462435 24.785803866604443 L112.99816693220268 75.11436911840795 L49.91677555988794 74.9776507113567" stroke="none" stroke-width="0" fill="none"/><path d="M50.12388838939691 25.329482095780346 C73.62489903095614 25.166309110869154, 97.29035372983444 24.7119695597286, 112.57096948181614 24.681655045787913 M49.97070401358715 24.979699960371086 C68.02832173325702 25.226364952270803, 86.16747235449915 24.939469475514812, 112.66239501277225 24.845644760280365 M113.11574523333681 25.043568299300414 C112.89404757610438 45.06170592248351, 112.67600722516477 64.80613455293425, 112.72870052691867 75.12799693790322 M112.81463306038927 24.97763977879668 C112.94062359785603 44.622711058227914, 112.90827121694696 64.31089558562192, 112.89806970969109 75.14407976357545 M112.55798171894082 74.64388808848209 C88.83214958412412 74.7905519484678, 65.67919681588234 74.68853907348736, 50.26389268199986 74.62277239260752 M112.8232292540385 74.9865080082711 C93.7204563722813 74.9160082743141, 74.86032433397084 74.86752668912219, 50.16552463064763 75.04087605298754 M49.767235894313835 74.950688483455 C49.96254669353586 56.355833187471504, 49.816123749884696 38.047418569598875, 50.009124811625966 25.38700326402263 M49.81610698681257 74.92732977355482 C50.13671192886305 61.726948744486826, 49.922356992746515 48.33466478490265, 50.07270183200612 25.05149323933945" stroke="var(--highlight-box-line-color)" stroke-width="4" fill="none"/><text x="81.4" y="55" style="font-weight:bolder; font-size:22px; fill:var(--highlight-id-text-color); " class="id" aria-describedby="desc-0">id19<title id="desc-0">Object id</title></text></g><g><path d="M190.06630280941818 25.31549040966299 L250.35259709398892 24.915519279555 L249.77362896340847 74.81574049832074 L189.9702554721352 75.01777512682906" stroke="none" stroke-width="0" fill="none"/><path d="M190.1601019403901 25.326989961904626 C207.54466118102428 24.9744092537135, 225.16292084014708 25.36101444036545, 249.77916866131972 24.87173621475084 M189.93911910605797 25.027518037058865 C202.0178778940893 24.717784794177327, 214.45541402101793 24.90046181742939, 249.90295161405137 24.97395164288282 M250.10786367588128 24.744156599919425 C249.92760971634885 44.66708732148778, 250.26937630343127 63.84193003021116, 250.22027552875056 75.23478553545002 M249.8511684387628 24.975102861039144 C249.92594201830022 36.60112364407794, 250.10596934338017 48.08008960023057, 250.00946856964853 75.13053399185202 M250.18861029699593 74.76754021887437 C228.38707813097093 74.71719167711238, 206.84572395119773 74.55634276537373, 190.11416829205533 74.95809877133802 M249.8064808231927 74.9660972598308 C227.79892379415205 74.86079349683844, 205.65197201995883 75.16118026465152, 189.96203136998216 74.83289587541373 M190.3978376248662 75.07491443856424 C189.79390050876535 61.219514522446445, 190.1048954324917 47.42347203378776, 190.26139771743058 24.98093570852726 M190.0661980302633 74.92005575941579 C190.01943458743713 58.19997747739397, 190.04906162147884 41.64852601003807, 189.81861225553106 25.109496987336957" stroke="var(--highlight-box-line-color)" stroke-width="4" fill="none"/><text x="220" y="55" style="font-weight:bolder; font-size:22px; fill:var(--highlight-value-text-color); " class="type" aria-describedby="desc-1">str<title id="desc-1">Object type</title></text></g><text x="150" y="115" style="font-weight:bolder; font-size:22px; fill:var(--highlight-value-text-color); " class="value" aria-describedby="desc-2">"Highlight"<title id="desc-2">Value</title></text></g></svg>