<svg data-theme="dark" width="287" height="217" xmlns="http://www.w3.org/2000/svg"><style>
        :root {
        --fade-text-color: rgb(0, 0, 0);
        --hide-text-color: white;

        --highlight-value-text-color: rgb(27, 14, 139);
        --highlight-id-text-color: rgb(150, 100, 28);

        --highlight-box-fill: yellow;
        --highlight-box-line-color: rgb(0, 0, 0);

        --fade-box-fill: rgb(247, 247, 247);
        --fade-box-line-color: gray;

        --hide-box-fill: white;

        --primitive-value-color: rgb(27, 14, 139);
        --id-text-color: rgb(150, 100, 28);
        --default-font-size: 20px;

        --highlight-object-fill: rgba(255, 255, 0, 0.6);
    }

        text {
            font-family: Consolas, Courier;
            font-size: 20px;
        }
        text.default {
            fill: rgb(0, 0, 0);
            text-anchor: middle;
        }
        text.attribute {
            fill: rgb(27, 14, 139);
            text-anchor: start;
        }
        text.variable {
            fill: rgb(0, 0, 0);
            text-anchor: start;
        }
        text.id {
            cursor: auto;
            fill: rgb(150, 100, 28);
            text-anchor: middle;
        }
        text.type {
            fill: rgb(27, 14, 139);
            text-anchor: middle;
        }
        text.value {
            fill: rgb(27, 14, 139);
            text-anchor: middle;
        }
        path {
            stroke: rgb(0, 0, 0);
        }
        .highlighted path {
            fill: var(--highlight-object-fill) !important;
        }
    
        [data-theme="dark"] {
            --highlight-value-text-color: #110875;
            --highlight-id-text-color: #6e4409;

            --fade-text-color: #BBBBBB;
            --hide-text-color: #121212;

            --highlight-box-fill: #EDB926;
            --highlight-box-line-color: #FFFFFF;

            --fade-box-fill: #2C2C2C;
            --fade-box-line-color: #666666;

            --hide-box-fill: #121212;

            --highlight-object-fill: rgba(72, 207, 173, 0.3);
        }
        [data-theme="dark"] text.default,
        [data-theme="dark"] text.variable {
            fill: rgb(224, 224, 224);
        }
        [data-theme="dark"] text.attribute,
        [data-theme="dark"] text.type,
        [data-theme="dark"] text.value {
            fill: rgb(144, 164, 237);
        }
        [data-theme="dark"] text.id {
            fill: rgb(255, 183, 77);
        }
        [data-theme="dark"] path {
            stroke: rgb(204, 204, 204);
        }
</style><g id="object-0"><path d="M49.7430315393134 24.164000718077723 L249.1002227731021 26.365281036969172 L251.34157861180515 153.29465678409196 L50.203076504116886 153.9983981284391" stroke="none" stroke-width="0" fill="none"/><path d="M48.23926537873398 26.43369068763601 C112.42167820567757 26.8524389329012, 175.64184931371798 25.466042778137247, 249.1175492965717 24.17402115630099 M49.817648349175826 25.23139498776885 C109.07789555222213 25.91892797427225, 169.2150360022943 25.62835255160178, 249.6205930202546 25.33101894073976 M248.30061489749522 23.088827023179174 C249.57415841264992 56.271289173907114, 252.30421337908254 85.96058599750613, 251.17432085692994 154.85803649069155 M250.45143139562046 25.936846658314295 C250.98822548736774 53.977765594600015, 251.82018729378086 82.02613882615199, 250.96844242853356 155.4753023946468 M251.54543921279222 153.67700856986866 C185.38467979838885 155.00784670114638, 118.58944803455752 155.8513901491008, 50.16764429069485 154.58722399763573 M250.81305820202112 154.9802634115971 C191.97616643956735 155.41083558906521, 135.4199729970152 155.26029451406734, 50.12214690655228 154.44703265436664 M50.98350768541853 156.13904583151862 C49.33918881923334 126.52906847724418, 47.30544681897488 99.580549145351, 49.42585408930354 24.88187629353773 M49.908269879251236 155.8458278542126 C50.03103264397657 117.08850529347346, 50.9142700013661 80.9830759711668, 49.38514681898341 24.585158355827634" stroke="rgb(0, 0, 0)" stroke-width="1" fill="none"/></g><g><path d="M43.09155147690416 20.489172123221323 L256.6750703782415 20.357576673096947 L255.14582977539737 159.56953703569013 L44.127644488685526 160.25982188614321" stroke="none" stroke-width="0" fill="none"/><path d="M45.75709168142713 19.989329201593808 C126.0189280156725 20.818539311693534, 207.36706648800242 21.008914645669282, 255.71985098211536 17.802265070334595 M43.59734543873249 19.514272810188938 C90.66293429240483 19.38416242816362, 138.74715808025573 19.885118306984364, 255.55950674242348 18.303760027311807 M256.5543465782213 17.186228692223057 C257.9399777943971 53.30892663920393, 258.2924052425403 87.92406962744292, 254.096376933317 160.68494284262167 M256.1813423053663 18.253203994808306 C256.0536003541016 76.15066579948432, 256.59186334107164 131.60986946894283, 255.41111811004237 160.31481279660554 M255.72596827180027 161.67264787584034 C192.5342903964358 160.3855493559554, 129.3416959978173 160.23826425422607, 44.82420206800758 159.33893436899817 M255.5743317112952 160.18726282675792 C208.03354151888942 159.10374762994923, 159.95915093740044 158.87924974888932, 44.804369023395765 161.84595016745445 M42.98743671613873 162.08648304317632 C45.05762167982504 109.64243535760127, 46.60293559520512 56.28453625622017, 42.1719276380211 20.50641175607091 M43.88585379748482 160.751766509633 C44.62023565744998 120.47862132315923, 44.68382199928164 79.55277035730127, 44.56455761737558 19.636661469300357" stroke="rgb(0, 0, 0)" stroke-width="1" fill="none"/></g><text x="150" y="115" class="value">"Highlight ID"</text><g><path d="M49.66268868667338 24.636692164864193 L113.07843234787508 25.025547538151 L112.9465353965089 74.97876733540976 L50.233202277611724 75.15195312613383" stroke="none" stroke-width="0" fill="var(--highlight-box-fill)"/><path d="M49.67955154254219 25.337469470761818 C69.0398142937602 25.37530768593321, 87.60037077908213 24.957577667299645, 112.7110708698625 24.81366437976337 M49.97525689478777 24.939393590493484 C65.60993826664912 24.8855347891456, 81.27286692020886 24.96588445849041, 112.99128734730364 25.055282215038048 M112.91102200387895 24.740434126200686 C113.16892998998716 41.69034930812136, 112.9405146346363 58.17068884160508, 112.97731393092495 74.89666535161189 M112.98410309039984 25.144079640755447 C112.86222290681091 41.28191197600309, 112.87113414075051 57.49376074297042, 112.71973048520698 75.033784934644 M112.62798622558509 74.79596847764273 C96.21008600618404 74.70734607986267, 79.31739135460676 75.1211781122014, 50.10720500793609 74.74447577409235 M112.77282754560586 74.8127453263571 C99.68827338756823 75.23159828999671, 86.52217804420229 75.10881259463862, 49.86557152182781 74.982972445138 M49.92749886235936 75.1796085376022 C49.944515870731664 60.53279169263436, 50.31724647555257 45.91622794179432, 50.33791665254253 25.140181893568126 M50.16944450796145 74.80565792200481 C49.87733607373489 63.19465789098413, 49.7558153698473 51.3857370580043, 50.07853289025573 24.855685145992624" stroke="var(--highlight-box-line-color)" stroke-width="4" fill="none"/></g><g><path d="M190.94382138511244 25.118391851888056 L248.65126708588227 23.34741912783412 L250.46954280439707 75.99171219632679 L189.0750739085113 73.34416815208216" stroke="none" stroke-width="0" fill="none"/><path d="M188.34153199765404 26.060268526107272 C210.81982306484917 25.969777224192867, 235.0822577308097 25.56894545341773, 248.3681336577736 24.40219683322172 M190.773941988975 24.321698771704266 C209.42284902517375 25.019282228117902, 229.6160701681823 24.486344882796455, 250.6671094770771 24.169854315902317 M251.69733929250867 24.240628887350727 C251.46123437299218 37.84109005749089, 248.940270306071 48.623079150016636, 251.55477771575642 73.38120436295452 M249.99482065977912 25.608273921451907 C250.53911957014387 37.08745184263859, 250.23254866970746 47.06069201760482, 250.84298232143615 74.15125127037793 M248.037123695895 75.001724223384 C237.02621610650013 73.91350861795951, 220.05048804310024 75.01664205582165, 188.27859255442658 73.73828303289451 M249.71560129423833 74.45874466065057 C235.20524856063625 75.32533564457711, 220.40774716325856 75.76874981597756, 189.61789889290668 75.08245762798006 M191.9430502703075 73.51076113051597 C191.15047727255043 63.30894964294862, 191.71168731695224 49.684361511760216, 191.82586508529496 23.90267336516673 M190.3612230617722 75.24143084287363 C189.19904289866687 55.61342683768098, 190.92792302393374 36.357248311467266, 190.66524652623505 25.113621796583992" stroke="rgb(0, 0, 0)" stroke-width="1" fill="none"/></g><text x="81.4" y="55" style="font-weight:bolder; font-size:22px; fill:var(--highlight-id-text-color); " class="id">id20</text><text x="220" y="55" class="type">str</text></svg>