<svg data-theme="dark" width="262" height="217" xmlns="http://www.w3.org/2000/svg"><title>Python memory model diagram showing objects</title><style>
        :root {
        --fade-text-color: rgb(0, 0, 0);
        --hide-text-color: white;

        --highlight-value-text-color: rgb(27, 14, 139);
        --highlight-id-text-color: rgb(150, 100, 28);

        --highlight-box-fill: yellow;
        --highlight-box-line-color: rgb(0, 0, 0);

        --fade-box-fill: rgb(247, 247, 247);
        --fade-box-line-color: gray;

        --hide-box-fill: white;

        --primitive-value-color: rgb(27, 14, 139);
        --id-text-color: rgb(150, 100, 28);
        --default-font-size: 20px;

        --highlight-object-fill: rgba(255, 255, 0, 0.6);
    }

        text {
            font-family: Consolas, Courier;
            font-size: 20px;
        }
        text.default {
            fill: rgb(0, 0, 0);
            text-anchor: middle;
        }
        text.attribute {
            fill: rgb(27, 14, 139);
            text-anchor: start;
        }
        text.variable {
            fill: rgb(0, 0, 0);
            text-anchor: start;
        }
        text.id {
            cursor: auto;
            fill: rgb(150, 100, 28);
            text-anchor: middle;
        }
        text.type {
            fill: rgb(27, 14, 139);
            text-anchor: middle;
        }
        text.value {
            fill: rgb(27, 14, 139);
            text-anchor: middle;
        }
        path {
            stroke: rgb(0, 0, 0);
        }
        .highlighted path {
            fill: var(--highlight-object-fill) !important;
        }
    
        [data-theme="dark"] {
            --highlight-value-text-color: #110875;
            --highlight-id-text-color: #6e4409;

            --fade-text-color: #BBBBBB;
            --hide-text-color: #121212;

            --highlight-box-fill: #EDB926;
            --highlight-box-line-color: #FFFFFF;

            --fade-box-fill: #2C2C2C;
            --fade-box-line-color: #666666;

            --hide-box-fill: #121212;

            --highlight-object-fill: rgba(72, 207, 173, 0.3);
        }
        [data-theme="dark"] text.default,
        [data-theme="dark"] text.variable {
            fill: rgb(224, 224, 224);
        }
        [data-theme="dark"] text.attribute,
        [data-theme="dark"] text.type,
        [data-theme="dark"] text.value {
            fill: rgb(144, 164, 237);
        }
        [data-theme="dark"] text.id {
            fill: rgb(255, 183, 77);
        }
        [data-theme="dark"] path {
            stroke: rgb(204, 204, 204);
        }
</style><g><title>Group of 1 objects</title><g role="graphics-object"><title>Str id20 with value "Highlight ID"</title><g id="object-0"><path d="M26.491765125523877 23.295742548584776 L226.7001443530547 24.547720248228828 L223.66801340320717 156.5820940370632 L23.44479743384239 155.56933801859114" stroke="none" stroke-width="0" fill="none"/><path d="M25.902567176425183 23.757867502794777 C71.471404677501 27.707155046103843, 114.21265708224898 25.104520834594638, 225.7800813619938 23.526903276580374 M24.162000037687235 25.827066585329128 C101.74670981298009 22.893370095721362, 178.70985286921862 22.494826456711042, 225.35433700141851 25.52083419973549 M224.56463730865863 26.47049314881703 C224.37580912548853 60.35096924207426, 223.30099976592567 95.08287632398601, 226.48085677526373 154.95460487010828 M224.9740914173774 25.948130390435516 C225.4550094122647 59.05116056759956, 224.9835733055175 94.72569375960039, 225.4120352203804 155.50137058369774 M225.71962233200344 156.47184464512472 C181.48817099769366 156.5426582034318, 137.45956183519792 157.88429299874693, 25.468675482704697 156.5612707369728 M225.56388497477872 154.25567235460605 C147.36569994786308 153.99739424877572, 69.11468091756745 154.26144502410378, 24.15868538846548 154.74617317325723 M26.51217544499194 156.79294538309486 C25.99525189036914 117.164471246736, 22.255499531178828 81.25264389815426, 25.84941726996845 23.19623097758228 M24.494377519739107 154.71180206905476 C25.784587425653232 110.4255645427145, 24.63927643583001 65.23343906722457, 24.424000234631716 25.736900906060352" stroke="rgb(0, 0, 0)" stroke-width="1" fill="none"/></g><g><path d="M20.293069652319115 17.51291517498962 L230.22957980006444 19.02570435363946 L231.12024082364354 162.31055919447016 L17.979395111997064 160.01254066361693" stroke="none" stroke-width="0" fill="none"/><path d="M19.333323604064763 19.548716187551282 C63.57286673060302 19.57896344806233, 108.40809170582516 16.576932067396946, 229.5935217407754 19.847069884604412 M19.804844168739823 19.010646195567915 C74.61836515550452 19.216731627535186, 128.11681346688317 20.23132705650699, 230.44944398281157 18.650418346360894 M229.68966782904116 17.886502116599946 C231.41388179615748 60.95600893817491, 231.24588527569946 104.93300709531027, 231.41805304049083 160.055828253894 M230.05509326390992 19.967763291787655 C231.4766154424099 68.28656473998467, 230.54034208822426 117.84858809164365, 230.7967543459474 161.50256641215861 M230.74039328398678 162.13817988623674 C177.45515293045344 160.78623858483792, 124.23855738099337 161.22095803644862, 17.26130073029362 159.47445622526496 M231.744699605883 161.67878576111798 C157.08259332814438 160.07593223147754, 84.19039648006388 160.22699431220485, 18.875712400488485 161.52648793412317 M17.75304681685807 161.6269399054189 C19.169765418576024 105.67599046025879, 20.332335613930592 46.79116520780895, 18.461312272311318 18.916804431979337 M18.46599473996745 161.30797511524042 C19.010439902659826 133.08272274477423, 18.050790019759585 102.42188961820308, 19.363799488074875 19.811168256798396" stroke="rgb(0, 0, 0)" stroke-width="1" fill="none"/></g><g><path d="M25.203733966283043 25.109119476304965 L88.06970660298337 25.07763547168954 L87.89117859143992 75.02741590039709 L24.79457456308186 75.01915809536486" stroke="none" stroke-width="0" fill="var(--highlight-box-fill)"/><path d="M25.059452703823318 25.32622538488222 C42.98196040522504 25.047834434151277, 60.27786045196344 24.701302233476657, 87.58958574821956 25.35439318115983 M25.115918325946907 25.10089736257165 C49.49360637509261 25.003765633093327, 73.97429938133757 24.921911349632655, 87.85356861351559 25.139585041128107 M87.79084818479309 25.021299500351855 C88.07494048051201 41.476797123739246, 88.21864475437607 58.18064723419267, 87.52622690726982 75.2526362564022 M87.932633068976 24.852497816326963 C87.85615822917345 40.933343223310196, 87.63235715515795 57.0152207595216, 87.8630870507261 74.82189089849115 M88.0933600695383 74.96276529304849 C68.84559726016694 75.19363325864633, 49.06216955281241 75.35141130897257, 24.98500294956585 75.07030983773292 M87.89193879433839 74.84239198215764 C68.03338944742161 74.94190507377846, 48.40430365697217 75.02677091583762, 25.145803997240705 74.97623025307155 M24.66289458695005 74.7474175417216 C25.12799708869972 57.82289167949327, 25.005557886010937 41.051694727391244, 24.909302601817195 24.828838720530577 M24.977222525510395 75.18094522034383 C25.144813707962367 61.77121658842039, 25.24443121961479 48.66140059986548, 24.987974093770315 25.100141306716058" stroke="var(--highlight-box-line-color)" stroke-width="4" fill="none"/><text x="56.4" y="55" style="font-weight:bolder; font-size:22px; fill:var(--highlight-id-text-color); " class="id" aria-describedby="desc-0">id20<title id="desc-0">Object id</title></text></g><g><path d="M166.46113658747177 26.440758605480035 L225.3526690437284 25.56258532153157 L224.8148704892195 74.1312482808827 L164.1189386767521 76.67941851263095" stroke="none" stroke-width="0" fill="none"/><path d="M166.34945714918166 23.875539927843754 C186.61458415215796 25.701414211774697, 207.8732618863702 23.868284786615803, 224.72138975441746 25.2029984657394 M165.67974270133857 25.23373210760641 C176.81945597898692 24.159875330627, 188.0952519912487 23.701587274959465, 224.86682543529915 24.100977040596874 M223.3899368722057 23.052184885726852 C225.46929316722566 42.614133109232576, 225.71172561406746 62.16880437772207, 224.22535139244354 75.59561549435966 M224.25817185346096 25.31944038011325 C224.22765908218008 40.867471466425116, 224.92829907855338 56.29523076600013, 224.55598277790799 74.35721959453089 M226.21822871976394 75.57131570200369 C203.54350806480525 74.31233446924396, 185.46983312262068 73.35677764330437, 166.1804706290081 76.02424194859951 M224.07559850648403 75.29801318256214 C209.0391623140656 75.68355564980632, 193.6896176299487 74.42594742143073, 165.11528264994482 75.23434383379326 M166.131441693564 74.86429713450407 C165.83604469186182 54.918097551734135, 165.9347777112833 36.35812263357744, 165.58011268344634 25.12183110098322 M165.59007537318308 74.71700663247944 C163.606039331784 58.116443008821776, 164.79920661441463 41.79687805640481, 165.14106623903328 25.592067694511297" stroke="rgb(0, 0, 0)" stroke-width="1" fill="none"/><text x="195" y="55" class="type" aria-describedby="desc-1">str<title id="desc-1">Object type</title></text></g><text x="125" y="115" class="value" aria-describedby="desc-2">"Highlight ID"<title id="desc-2">Value</title></text></g></g></svg>