<svg width="262" height="217" xmlns="http://www.w3.org/2000/svg"><title>Python memory model diagram showing objects</title><style>
        :root {
        --fade-text-color: rgb(0, 0, 0);
        --hide-text-color: white;

        --highlight-value-text-color: rgb(27, 14, 139);
        --highlight-id-text-color: rgb(150, 100, 28);

        --highlight-box-fill: yellow;
        --highlight-box-line-color: rgb(0, 0, 0);

        --fade-box-fill: rgb(247, 247, 247);
        --fade-box-line-color: gray;

        --hide-box-fill: white;

        --primitive-value-color: rgb(27, 14, 139);
        --id-text-color: rgb(150, 100, 28);
        --default-font-size: 20px;

        --highlight-object-fill: rgba(255, 255, 0, 0.6);
    }

        text {
            font-family: Consolas, Courier;
            font-size: 20px;
        }
        text.default {
            fill: rgb(0, 0, 0);
            text-anchor: middle;
        }
        text.attribute {
            fill: rgb(27, 14, 139);
            text-anchor: start;
        }
        text.variable {
            fill: rgb(0, 0, 0);
            text-anchor: start;
        }
        text.id {
            cursor: auto;
            fill: rgb(150, 100, 28);
            text-anchor: middle;
        }
        text.type {
            fill: rgb(27, 14, 139);
            text-anchor: middle;
        }
        text.value {
            fill: rgb(27, 14, 139);
            text-anchor: middle;
        }
        path {
            stroke: rgb(0, 0, 0);
        }
        .highlighted path {
            fill: var(--highlight-object-fill) !important;
        }
    </style><g><title>Group of 1 objects</title><g role="graphics-object"><title>Str id19 with value "Highlight"</title><g id="object-0"><path d="M24.984725694623215 24.932650910755264 L225.06794314564263 24.893853915401046 L225.011202934432 155.22797299229842 L24.904535309256786 155.061453650208" stroke="none" stroke-width="0" fill="var(--highlight-box-fill)"/><path d="M25.322460823418485 25.180141905848238 C73.5111910471049 24.497066550773653, 122.50680650557291 24.840683745209347, 225.1440408264267 24.796223579583963 M24.98919020324992 24.853241105416604 C83.89762845827116 25.148315938354607, 142.3957743960914 24.99746631883692, 224.85374793389917 25.146909595447116 M224.86448443556 24.883245451206626 C225.52309792537426 55.209085606147404, 224.9410711936714 85.62437162247073, 224.670893652241 154.90964207730087 M224.9440586515074 24.987921411938192 C225.003448076451 60.78825298428457, 224.69012782277372 96.46036761652522, 225.15041018670445 154.89774523219992 M224.80211594737236 155.12882742237207 C163.23618898503423 154.81419729158875, 101.853760145616 154.9691164730232, 25.318478232385313 155.10395295934168 M225.12753242466158 154.96971368112273 C147.85264894912675 155.0303295778445, 70.65881515173135 154.85920358062836, 24.851059092223494 154.90466132280608 M24.93144718033244 155.00602057218643 C24.822213438579166 112.39933101736008, 25.278276780379063 70.34912852778122, 25.23819161679915 25.3042312124852 M25.087060250582358 155.02879584109897 C24.70029887069685 122.16936958061895, 24.95738348160146 88.91021205753214, 25.093604629650738 25.01915617075616" stroke="var(--highlight-box-line-color)" stroke-width="4" fill="none"/></g><g><path d="M20.38618075025562 17.371788046301766 L231.10577549361318 17.767514526966675 L229.86857962664655 160.79320500101244 L19.64861294039237 161.84157249073354" stroke="none" stroke-width="0" fill="none"/><path d="M18.023674271935192 20.222474752397055 C66.38256215026053 19.543900000273787, 111.93247152262947 17.33702353150413, 231.3578379362133 18.052337820680997 M18.97712387134933 18.574983620330627 C90.02020635126897 19.89684652582922, 159.3012699834033 21.131713493571016, 231.2133635963229 18.128366833021968 M229.10603609637892 20.685194495994075 C231.47537899481077 48.43505710686463, 229.10551764069703 81.89546310849433, 231.48856262881105 159.70511978157703 M231.49985265407236 19.00120574289282 C230.2202686592517 55.48358823052338, 230.3968901080579 90.35133495027121, 231.9183936799801 160.97047797415948 M232.60102318989664 160.08627307101625 C157.00666312568106 162.46462257690214, 82.92459115377778 162.2162856298378, 18.62027130078467 159.8002297718819 M230.18550393105556 161.69554108719527 C179.84082173867478 159.2470386142975, 126.6071743469034 160.77059929093062, 18.75425511254317 160.94350370489377 M19.08342145230505 159.09451902071038 C17.080602236936485 132.54383367248516, 19.721456373909984 100.49983984745396, 20.978344487801166 17.00432051819813 M18.823655029805604 160.06268293743747 C18.918870467532972 106.72945343599918, 17.716974327955423 52.44192816674463, 19.30567683174915 19.531291514365314" stroke="rgb(0, 0, 0)" stroke-width="1" fill="none"/></g><g><path d="M25.191999809372078 25.39032310159117 L87.59629540416572 24.86560321703086 L88.05379168804518 75.02984104613495 L24.75893348842211 75.02116320042795" stroke="none" stroke-width="0" fill="none"/><path d="M24.905456854873794 24.69069637165156 C42.60426460083526 25.1679075564017, 60.518592161683195 25.402175636736057, 87.50606316086079 25.280043611820467 M24.865963765204267 24.90609121332779 C42.52469011086397 25.068905221951006, 59.972977500924884 24.86324339960999, 87.83571384645907 24.88252304648899 M88.08888195341993 25.362555985648687 C87.8346302471985 43.92458863510837, 88.08584876157926 62.90488531577622, 88.03411072007191 75.36021450225317 M87.6723892663882 24.904149527685398 C87.83095193535226 36.01886990084044, 87.9273869365801 47.38478186005373, 87.74060169000046 74.92885368185075 M88.0693683920151 75.27826564840117 C69.04128262400444 74.79248848465326, 51.22358789972847 75.0660806218192, 25.315187797334982 75.15198000252111 M87.71074192326085 74.9096655762083 C69.48952217427835 74.95884679481668, 50.89103628396927 74.93569513736125, 24.916137355507118 74.98756344302636 M24.757385076419116 75.23309529657323 C24.99429020284076 56.115106653620835, 24.586991844728036 37.95559314291181, 25.06084949090932 24.926675633809214 M24.919753350825545 74.95064501532259 C25.08062567117416 60.773062114714236, 24.967343668984963 46.717612291603395, 24.9164584778266 24.844083549060425" stroke="var(--highlight-box-line-color)" stroke-width="4" fill="none"/><text x="56.4" y="55" style="font-weight:bolder; font-size:22px; fill:var(--highlight-id-text-color); " class="id" aria-describedby="desc-0">id19<title id="desc-0">Object id</title></text></g><g><path d="M164.8770678199699 25.140247335910512 L225.28514482359023 24.75198319237144 L224.87854973776243 75.12765605499897 L165.27659131641482 74.84217445744015" stroke="none" stroke-width="0" fill="none"/><path d="M165.00787899679014 25.199391190999503 C185.54113733387607 24.781499807405417, 205.59422653264824 25.001609589617644, 224.73078288974526 24.858929456905067 M164.8341128052226 25.005942950682147 C182.14158867502155 24.923920989805477, 199.80857927150635 25.22034283681507, 224.8793481384919 24.9298257686733 M225.35527045922672 24.903600821782106 C224.95678117886104 41.10866110905151, 224.8852343175041 56.85205002174817, 225.1620254852622 74.73069575465215 M225.11510088891285 25.064503248652514 C224.9377400476041 37.7920156688164, 225.1147819681892 50.49809694276325, 225.03046652273085 75.07872963033687 M224.8000961420229 75.05009299864021 C211.02739206901552 75.0591075585569, 196.71051059806283 75.4605438175244, 164.96422497558305 74.96347398095651 M225.12653524698882 75.02609445508527 C207.83279928220145 75.06898272101913, 190.4141126733971 74.84749318417819, 164.89712158684236 75.16589911027827 M164.69641245184437 74.66876320847894 C164.8982995650168 60.88466819778288, 165.34923651226708 47.13446794597296, 164.65265632111132 25.159304318262894 M165.11166394017832 74.86956180547185 C165.14083846509936 62.95086391285471, 164.82986932351199 51.00066189376683, 165.15426995765878 24.83108933482098" stroke="var(--highlight-box-line-color)" stroke-width="4" fill="none"/><text x="195" y="55" style="font-weight:bolder; font-size:22px; fill:var(--highlight-value-text-color); " class="type" aria-describedby="desc-1">str<title id="desc-1">Object type</title></text></g><text x="125" y="115" style="font-weight:bolder; font-size:22px; fill:var(--highlight-value-text-color); " class="value" aria-describedby="desc-2">"Highlight"<title id="desc-2">Value</title></text></g></g></svg>