<svg data-theme="dark" width="287" height="217" xmlns="http://www.w3.org/2000/svg"><title>Python memory model diagram showing objects</title><style>
        :root {
        --fade-text-color: rgb(0, 0, 0);
        --hide-text-color: white;

        --highlight-value-text-color: rgb(27, 14, 139);
        --highlight-id-text-color: rgb(150, 100, 28);

        --highlight-box-fill: yellow;
        --highlight-box-line-color: rgb(0, 0, 0);

        --fade-box-fill: rgb(247, 247, 247);
        --fade-box-line-color: gray;

        --hide-box-fill: white;

        --primitive-value-color: rgb(27, 14, 139);
        --id-text-color: rgb(150, 100, 28);
        --default-font-size: 20px;

        --highlight-object-fill: rgba(255, 255, 0, 0.6);
    }

        text {
            font-family: Consolas, Courier;
            font-size: 20px;
        }
        text.default {
            fill: rgb(0, 0, 0);
            text-anchor: middle;
        }
        text.attribute {
            fill: rgb(27, 14, 139);
            text-anchor: start;
        }
        text.variable {
            fill: rgb(0, 0, 0);
            text-anchor: start;
        }
        text.id {
            cursor: auto;
            fill: rgb(150, 100, 28);
            text-anchor: middle;
        }
        text.type {
            fill: rgb(27, 14, 139);
            text-anchor: middle;
        }
        text.value {
            fill: rgb(27, 14, 139);
            text-anchor: middle;
        }
        path {
            stroke: rgb(0, 0, 0);
        }
        .highlighted path {
            fill: var(--highlight-object-fill) !important;
        }
    
        [data-theme="dark"] {
            --highlight-value-text-color: #110875;
            --highlight-id-text-color: #6e4409;

            --fade-text-color: #BBBBBB;
            --hide-text-color: #121212;

            --highlight-box-fill: #EDB926;
            --highlight-box-line-color: #FFFFFF;

            --fade-box-fill: #2C2C2C;
            --fade-box-line-color: #666666;

            --hide-box-fill: #121212;

            --highlight-object-fill: rgba(72, 207, 173, 0.3);
        }
        [data-theme="dark"] text.default,
        [data-theme="dark"] text.variable {
            fill: rgb(224, 224, 224);
        }
        [data-theme="dark"] text.attribute,
        [data-theme="dark"] text.type,
        [data-theme="dark"] text.value {
            fill: rgb(144, 164, 237);
        }
        [data-theme="dark"] text.id {
            fill: rgb(255, 183, 77);
        }
        [data-theme="dark"] path {
            stroke: rgb(204, 204, 204);
        }
</style><g role="graphics-object"><title>Str id19 with value "Highlight"</title><g id="object-0"><path d="M50.04682633796184 24.853424897638654 L250.16656631628558 25.020512236197302 L250.21791877389003 154.95636712950946 L49.67934538678072 155.27138173496024" stroke="none" stroke-width="0" fill="var(--highlight-box-fill)"/><path d="M50.223353339685495 25.063375214715315 C90.31780036256745 25.23117683212852, 131.08499648433678 24.93520458822037, 250.08810891354184 25.187606256359977 M50.15176760269312 25.005098346858983 C99.00742648676182 24.860756492140016, 148.2998069116272 24.63999766388176, 250.08637379179655 24.957226375008595 M249.9732539295524 24.806101045647907 C250.04348093754794 57.83046130842473, 250.0702775070066 89.9282359923142, 249.8308231968238 154.80492223437733 M249.9175860095866 24.8026821706636 C249.95216803944638 52.10749562471618, 249.82982982069043 79.31604517796828, 249.90599273222534 154.86788218905735 M249.90269808712685 155.16734477668908 C208.28545218418523 154.87173756443462, 167.28173777254938 154.828432344262, 49.75995649110496 154.88058244308172 M249.92105741997048 155.0661228946159 C185.0910792040004 154.73337722352957, 120.2642830812065 154.83306795485183, 49.877877790836166 155.0368991524923 M49.714729007441946 154.9947052833827 C49.72558171126043 122.87493788098557, 49.706257933742755 90.11844510874552, 49.678932497886784 25.193049584030085 M50.01532925904054 155.03813358902917 C50.36904546431155 125.2201951828802, 50.251003053489256 95.68759403398477, 49.91771822282878 24.98826255515467" stroke="var(--highlight-box-line-color)" stroke-width="4" fill="none"/></g><g><path d="M45.22069269118405 17.264744923458345 L257.88899238043405 19.3837563704862 L255.43936120803463 162.91874563389732 L45.55723489351782 162.41077268716674" stroke="none" stroke-width="0" fill="none"/><path d="M44.18229538704965 19.994461881728007 C88.16986379016959 19.503455462890468, 130.58663973278573 16.33033849465276, 257.2088883566353 18.9572351404518 M44.22895831904131 18.822698529874625 C95.00752463264979 19.124753279348667, 146.92741132684597 20.31959556044448, 256.7506203391054 18.657439957621776 M257.2169216953457 19.342000278732147 C257.61237861024085 55.81222910819122, 255.950703066915 96.21240040803671, 257.43651741779985 159.01070255219057 M256.4000910758968 18.187191084830925 C256.4842531003589 57.38153021035181, 257.15070808001536 94.95720823507222, 256.2079739561219 160.57999353863747 M255.32265745646956 161.05258449203856 C184.11048568731604 161.47854583220098, 111.0494974807208 160.80235461850586, 43.25270110163218 160.45722567508946 M256.33388043202126 161.46408975181478 C196.5507620360277 160.2540072121808, 138.46498977530482 159.78972262111745, 44.79184098028126 161.78647768629477 M42.60006930573407 162.85943118526757 C44.25480778274923 109.14974581608351, 43.556003753541944 61.92757899243926, 45.742272728013866 18.977202539892954 M44.25710096061095 160.4102593633606 C42.26688390548121 116.14674376077599, 42.42428853226589 71.0041424051342, 43.67247703392316 19.050270949611434" stroke="rgb(0, 0, 0)" stroke-width="1" fill="none"/></g><text x="150" y="115" style="font-weight:bolder; font-size:22px; fill:var(--highlight-value-text-color); " class="value">"Highlight"</text><g><path d="M50.366157938329714 24.83951465878316 L113.04743170389467 25.086353311004867 L112.61975899445392 74.80086618576627 L49.91793416874928 75.05424162917873" stroke="none" stroke-width="0" fill="none"/><path d="M49.912718503434995 25.317558002072605 C65.38955958878715 24.843605848304524, 81.05597176539018 24.673688274125332, 112.60848703801081 25.270275260382014 M50.05563863295488 25.10741692606944 C73.84346454289108 25.102133771750854, 97.30643301647885 25.231139234996906, 112.94448338591313 25.192445841791777 M112.97710890514804 25.323900051285296 C112.54633063917287 42.26405415703359, 113.20129643258724 60.0466786383552, 112.99961547439494 75.08748374960565 M112.92340092191507 25.164904607094662 C112.64979975857928 43.56660090693395, 112.65073214385718 62.07666825224464, 112.85390315953956 75.02510059380653 M112.95846228283696 75.1309185951825 C94.41988955638656 74.93003404658788, 76.23452091105118 74.85137929612428, 50.07631331330067 75.23564486403559 M112.62210387608701 74.96359143774151 C89.6826503317665 74.82297745862391, 66.89137533581865 75.02709111019493, 50.075528369722974 75.16308455723818 M50.21213037347598 74.69647094833088 C49.875449441314466 62.29071819325756, 49.98860874860687 49.431834263004774, 49.828947551338864 24.99019376693611 M50.053707255289325 74.84293717500388 C50.05134272419002 57.58260177430879, 50.25510818505907 40.05414753219447, 49.8839303551372 25.006172679036876" stroke="var(--highlight-box-line-color)" stroke-width="4" fill="none"/></g><g><path d="M189.6951882237604 24.758600178759234 L249.74499530897486 24.65310812456311 L249.6419901087754 74.82478717360621 L189.85860091159407 74.86816084417761" stroke="none" stroke-width="0" fill="none"/><path d="M189.90646628292475 24.898368572923264 C213.36233362629855 25.21777926406573, 236.0849228243724 25.10408038370387, 250.34995590814037 24.929116343390884 M189.87161826117102 25.187342230566426 C208.8940995337925 24.93237702033643, 227.95605094613492 24.908354768501347, 249.8840587497417 25.003191088367018 M250.27463106469443 24.855586491334616 C249.77111692941295 41.93888655754876, 250.36666114198525 58.696890969435685, 250.1728665493617 75.35372484176851 M249.82681993193478 24.933819576224096 C249.7049166893918 41.767618852772934, 250.06419631408167 58.1116491025309, 249.93877128719686 74.8514963189009 M249.6007165654661 74.95735446807032 C233.21234374638493 74.85447904866545, 216.4734122274048 74.95117567180955, 190.0272582879757 74.72645853551796 M249.9320945258019 75.01718788937752 C234.79766769964107 75.10930372625468, 219.36842456515225 75.1875349618483, 190.17588431923826 74.95054698622592 M190.19277220384586 75.35755578032754 C190.05598080870016 62.9445138180407, 189.52043753791835 50.70859920460566, 190.01837527940882 24.78134431632758 M190.03200954258884 75.12816321446176 C189.95270565515696 59.51376426352493, 189.8119121403514 44.386689389283355, 190.0083194967848 24.908818399663808" stroke="var(--highlight-box-line-color)" stroke-width="4" fill="none"/></g><text x="81.4" y="55" style="font-weight:bolder; font-size:22px; fill:var(--highlight-id-text-color); " class="id">id19</text><text x="220" y="55" style="font-weight:bolder; font-size:22px; fill:var(--highlight-value-text-color); " class="type">str</text></g></svg>