<svg data-theme="dark" width="287" height="217" xmlns="http://www.w3.org/2000/svg"><title>Python memory model diagram showing objects</title><style>
        :root {
        --fade-text-color: rgb(0, 0, 0);
        --hide-text-color: white;

        --highlight-value-text-color: rgb(27, 14, 139);
        --highlight-id-text-color: rgb(150, 100, 28);

        --highlight-box-fill: yellow;
        --highlight-box-line-color: rgb(0, 0, 0);

        --fade-box-fill: rgb(247, 247, 247);
        --fade-box-line-color: gray;

        --hide-box-fill: white;

        --primitive-value-color: rgb(27, 14, 139);
        --id-text-color: rgb(150, 100, 28);
        --default-font-size: 20px;

        --highlight-object-fill: rgba(255, 255, 0, 0.6);
    }

        text {
            font-family: Consolas, Courier;
            font-size: 20px;
        }
        text.default {
            fill: rgb(0, 0, 0);
            text-anchor: middle;
        }
        text.attribute {
            fill: rgb(27, 14, 139);
            text-anchor: start;
        }
        text.variable {
            fill: rgb(0, 0, 0);
            text-anchor: start;
        }
        text.id {
            cursor: auto;
            fill: rgb(150, 100, 28);
            text-anchor: middle;
        }
        text.type {
            fill: rgb(27, 14, 139);
            text-anchor: middle;
        }
        text.value {
            fill: rgb(27, 14, 139);
            text-anchor: middle;
        }
        path {
            stroke: rgb(0, 0, 0);
        }
        .highlighted path {
            fill: var(--highlight-object-fill) !important;
        }
    
        [data-theme="dark"] {
            --highlight-value-text-color: #110875;
            --highlight-id-text-color: #6e4409;

            --fade-text-color: #BBBBBB;
            --hide-text-color: #121212;

            --highlight-box-fill: #EDB926;
            --highlight-box-line-color: #FFFFFF;

            --fade-box-fill: #2C2C2C;
            --fade-box-line-color: #666666;

            --hide-box-fill: #121212;

            --highlight-object-fill: rgba(72, 207, 173, 0.3);
        }
        [data-theme="dark"] text.default,
        [data-theme="dark"] text.variable {
            fill: rgb(224, 224, 224);
        }
        [data-theme="dark"] text.attribute,
        [data-theme="dark"] text.type,
        [data-theme="dark"] text.value {
            fill: rgb(144, 164, 237);
        }
        [data-theme="dark"] text.id {
            fill: rgb(255, 183, 77);
        }
        [data-theme="dark"] path {
            stroke: rgb(204, 204, 204);
        }
</style><g><title>Group of 1 objects</title><g role="graphics-object"><title>Str id20 with value "Highlight ID"</title><g id="object-0"><path d="M50.750278096160336 24.181677379476376 L249.12067496052836 23.04210045683775 L248.83302041952956 156.39392992638605 L51.24980599359485 153.10338881675173" stroke="none" stroke-width="0" fill="none"/><path d="M50.63889262802001 25.43177517541491 C126.58654172542285 27.263819146133738, 207.90783095177633 27.979968626225222, 251.51880824580186 25.601645305871404 M49.9648926950399 24.63666136379106 C120.62914530636598 24.36456780556906, 190.15392181290719 24.595280635200332, 250.8742662406956 24.28224482860477 M250.96504575747946 24.926079278546865 C252.63310334903758 71.90519195121561, 250.72335000549157 119.46764918073333, 251.16979745920423 154.09305626655558 M249.48826246754746 25.58676486793059 C250.75664153959238 52.87219809627852, 250.387176022338 81.6731404303284, 249.45070345130202 155.55880233331962 M250.4408034626726 156.0936705881047 C193.5842244336111 153.9168523622693, 135.11845967122238 156.2009407113728, 49.55742113902588 154.53063793949264 M249.9963748060127 154.32297206855077 C197.2938183716855 154.18965505533856, 145.4607102956803 154.9592442913718, 50.430770379735314 154.4312954542946 M48.132781103446064 153.25377368984337 C50.800502524950446 119.97560118791615, 48.94672510984769 87.84348506846965, 50.375228387731724 24.093252534539204 M50.015693844559706 154.02230124787195 C48.739457119426575 118.94367688034225, 48.31998944365215 83.25634440094268, 49.8316972722669 25.873443511303066" stroke="rgb(0, 0, 0)" stroke-width="1" fill="none"/></g><g><path d="M42.92376079197684 17.405869631515504 L255.5105501456122 19.537336280966574 L257.15021373950066 162.91521528628422 L43.75877059158171 161.83400881195448" stroke="none" stroke-width="0" fill="none"/><path d="M44.90758425790343 18.51771885857205 C106.617470763528 19.0712844125107, 170.84434379971083 21.35859834093423, 255.70364494943357 20.123374809538273 M43.86172525998382 18.54269252001676 C93.78904200268725 19.46687174991705, 142.08559541077673 18.591171927676587, 255.34650611085348 19.113711897655424 M257.70741136901995 20.39913629629224 C255.31826108522534 59.60020220482688, 257.5967884878481 101.98790254903334, 255.7476603041712 160.25774661341188 M256.1099790863808 18.044125496418648 C255.2708197049738 65.23736350872291, 253.93085127957133 110.65486986413445, 255.05161860296283 160.5967441741173 M255.98659966032528 160.15659282106836 C210.4397632303393 159.80001143162653, 164.93812391647273 160.82861302164062, 42.48091840355119 160.67211129185858 M255.47378146563958 160.5689239709345 C203.66629470267802 159.4225941709553, 152.9206681249945 158.91833323286357, 44.31245694675416 160.7108970951005 M44.819494561346914 160.51214605228313 C43.41226301500938 128.5808206982906, 43.67981855448197 93.41002330249134, 45.49482247763607 19.428480508565222 M44.51845118779945 160.05349229879613 C45.945796748790336 118.54083887008665, 45.15024631100613 76.84477745900503, 44.21960007060886 18.858353230448728" stroke="rgb(0, 0, 0)" stroke-width="1" fill="none"/></g><g><path d="M50.166894756773566 24.659768272544692 L112.75423468018784 25.358406216200468 L112.4886110900683 75.10937998813421 L50.290015353107066 74.8032347912997" stroke="none" stroke-width="0" fill="var(--highlight-box-fill)"/><path d="M50.26309974679589 25.085899843491156 C67.38080622302913 24.628579528466425, 84.05847259975005 24.860391124657536, 113.16859167149259 25.372784834457523 M50.06694865302691 25.146731521603556 C74.77618019717306 24.891739438530728, 99.50663936678836 24.931773518395666, 112.90187755761683 24.93762296649977 M112.5737345338372 24.852390803319235 C113.19771921833498 39.40583214213857, 112.84061331403801 53.19619462124606, 112.48472744513974 74.77532835885859 M112.73620081301317 24.877770197193446 C112.6655221977712 40.49549399577985, 112.61460315633948 55.5921463016524, 112.6579884665961 74.98063902865181 M112.96143639103268 75.17320388062572 C99.14256320936562 74.60991878481869, 84.8698237919237 75.12282892473701, 50.05907966882633 74.92236378255996 M112.69186252243523 75.00746225416776 C99.48057631398518 74.97278249241506, 86.15682533832455 74.95991111731036, 50.04067546052198 75.0250328684204 M50.31901952425019 74.96236019602387 C49.855383366382235 62.04826290312548, 50.208744066732 48.58871397159956, 49.98138236791918 25.142102616780456 M49.9456573576584 75.04484574927395 C50.18325593585878 59.35406620825712, 50.07695654029332 43.98062656907954, 50.0198268393787 24.957388309938924" stroke="var(--highlight-box-line-color)" stroke-width="4" fill="none"/><text x="81.4" y="55" style="font-weight:bolder; font-size:22px; fill:var(--highlight-id-text-color); " class="id" aria-describedby="desc-0">id20<title id="desc-0">Object id</title></text></g><g><path d="M190.42907209602166 24.89183908520215 L249.66604210580456 25.32054115680688 L249.74343851528693 75.06686043611845 L191.61163618594918 74.1084166272922" stroke="none" stroke-width="0" fill="none"/><path d="M189.55691538186556 25.302670615078476 C214.42103219357884 23.23620903072679, 235.4849358798736 25.24751522614747, 251.0179838855926 23.560477383052657 M190.47796681691517 25.751507758759253 C203.66522865932075 24.777207193761118, 214.80693932644718 25.369177201502445, 250.4097881944715 25.06361459969768 M248.12504610853512 23.121413550135298 C248.40504969927957 42.257740981127846, 247.6927634482127 61.248815081490875, 251.5432444003247 74.4491918246851 M250.78020014297482 24.3660048324668 C249.2624267147641 41.49811356544886, 249.2021461600357 57.491681867029655, 249.35519937130184 74.50413397382901 M250.67260119806116 74.89326148276723 C230.9746041422443 76.87796587260596, 209.88615152993614 74.17284698234086, 191.168556978386 73.6274632659887 M250.34394110694214 74.13672007614832 C230.55796823297842 75.04909197350511, 209.9148177554845 73.9577275905079, 190.49620064514218 75.13304758779203 M190.65133325397287 73.35586819527381 C189.86645622390486 61.81624926766797, 190.7127211836078 47.547696036120755, 190.9151147872964 24.467165100662687 M190.55398883230475 75.73852393640757 C189.78111302602792 62.001833993146015, 190.64536541845777 50.95742028481997, 189.01237320921058 25.979542513466477" stroke="rgb(0, 0, 0)" stroke-width="1" fill="none"/><text x="220" y="55" class="type" aria-describedby="desc-1">str<title id="desc-1">Object type</title></text></g><text x="150" y="115" class="value" aria-describedby="desc-2">"Highlight ID"<title id="desc-2">Value</title></text></g></g></svg>