<svg width="279" height="217" xmlns="http://www.w3.org/2000/svg"><title>Python memory model diagram showing objects</title><style>
        :root {
        --fade-text-color: rgb(0, 0, 0);
        --hide-text-color: white;

        --highlight-value-text-color: rgb(27, 14, 139);
        --highlight-id-text-color: rgb(150, 100, 28);

        --highlight-box-fill: yellow;
        --highlight-box-line-color: rgb(0, 0, 0);

        --fade-box-fill: rgb(247, 247, 247);
        --fade-box-line-color: gray;

        --hide-box-fill: white;

        --primitive-value-color: rgb(27, 14, 139);
        --id-text-color: rgb(150, 100, 28);
        --default-font-size: 20px;

        --highlight-object-fill: rgba(255, 255, 0, 0.6);
    }

        text {
            font-family: Consolas, Courier;
            font-size: 20px;
        }
        text.default {
            fill: rgb(0, 0, 0);
            text-anchor: middle;
        }
        text.attribute {
            fill: rgb(27, 14, 139);
            text-anchor: start;
        }
        text.variable {
            fill: rgb(0, 0, 0);
            text-anchor: start;
        }
        text.id {
            cursor: auto;
            fill: rgb(150, 100, 28);
            text-anchor: middle;
        }
        text.type {
            fill: rgb(27, 14, 139);
            text-anchor: middle;
        }
        text.value {
            fill: rgb(27, 14, 139);
            text-anchor: middle;
        }
        path {
            stroke: rgb(0, 0, 0);
        }
        .highlighted path {
            fill: var(--highlight-object-fill) !important;
        }
    </style><g><title>Group of 1 objects</title><g role="graphics-object"><title>Str id21 with value "Highlight Type"</title><g id="object-0"><path d="M25.87323785905456 25.058857760128998 L241.40209838303107 23.29054774512455 L241.23545552081666 155.4106000807263 L24.11572388232611 154.4335596683695" stroke="none" stroke-width="0" fill="none"/><path d="M23.55154590943516 25.499792365643824 C100.49212320623472 27.231737206266384, 176.36491092922586 26.330508620948745, 240.98578595712561 26.242218593797475 M25.266513835755724 25.416159182615434 C108.18591936611777 24.596905566783864, 192.18587126466787 25.806941086375794, 241.14202731222045 24.91961447734646 M243.2314857833967 24.828759980337885 C240.6270805312864 52.54066853737111, 240.62395472868795 79.599568230762, 243.80789512974366 156.83196849547747 M242.23468411813985 24.34348958837461 C242.07895647112275 75.50617845997132, 241.8791549884348 124.66388519059487, 241.25300093053048 155.0444113616256 M243.70358897558634 155.29271860822962 C187.73322844586164 158.12525297595846, 134.85377781449742 156.84435016018122, 23.486353692485352 156.02112970521742 M242.498765997947 154.81338220246562 C174.19743444359796 155.85789213336008, 106.3712771910439 156.16600096881263, 24.871497856627496 155.78085838439517 M24.93177313145666 156.2963749700409 C23.70932796338301 106.47487581725889, 26.735740017260845 57.87173565212249, 26.640066758873232 23.44670377362465 M25.093971433794028 154.35917329442975 C26.322389369349988 118.44961927352057, 26.713762775772103 84.09164396676651, 25.354221017066735 25.245993124504878" stroke="rgb(0, 0, 0)" stroke-width="1" fill="none"/></g><g><path d="M17.653813759094742 19.919535879505545 L247.225259239635 17.567824752799858 L247.40900096309448 160.94975090529377 L20.848631770657523 159.91912207069902" stroke="none" stroke-width="0" fill="none"/><path d="M17.618330930875327 17.371277768016903 C72.11100762117032 17.79342083905007, 122.15472213425691 20.39004820354058, 247.75778263282774 18.054977661314926 M19.022109155831522 19.23874585340533 C86.32297712900606 19.58714835225436, 153.95127099761754 19.44243580280605, 247.9663449060732 18.90528158590605 M248.92079744785042 20.53282832385713 C245.69127401278382 72.9158936026545, 245.21331742977537 121.28471692429389, 246.26710990860866 159.91509778048064 M247.96567507623104 18.476194879300945 C249.0428422763666 52.778060102587695, 249.77278372902225 86.18509619997552, 247.41246913790349 160.05857953197437 M246.35646360417928 160.2957886550969 C188.5052053724271 162.2845488361736, 131.53851216935405 162.00892652041827, 19.023458259309873 162.1395109345838 M247.8130547786641 160.35146586776256 C192.30298481430688 161.0994618236378, 137.65687765387386 161.50570538632297, 19.466793489634462 160.62300546327907 M18.832943707618192 161.57124057078036 C17.317463360155028 131.81230219686208, 19.08898554314131 103.69322743725614, 17.78154603833117 20.51491797730842 M18.959465340563504 160.96473490066901 C19.16687834608597 112.37386149496426, 18.989613156304276 64.58036858770471, 19.859174491589556 18.134722552028453" stroke="rgb(0, 0, 0)" stroke-width="1" fill="none"/></g><g><path d="M24.471923226999916 25.260323339908087 L84.35056428789619 23.77622221302211 L83.24229832042948 76.69760218735483 L23.321254714707187 73.76037348902463" stroke="none" stroke-width="0" fill="none"/><path d="M24.848365643326822 24.398930682458797 C43.3628326442147 25.19463709492088, 60.634902866183026 23.614221217707783, 84.15698617574628 26.666646243875437 M25.53107811802744 25.66987630368285 C43.47844706742983 24.30497800724069, 61.93524557364036 24.560326555866084, 85.29174720108318 25.400827499556776 M83.70711157098705 23.224195808754537 C84.7516624263079 34.93460269299314, 86.38920632493029 44.85695183710199, 86.68517230193721 74.52626315287793 M84.85921236252385 25.516379473557954 C84.13509598562713 42.91010678273522, 84.68460780218254 62.75391171732355, 84.94824838103494 74.173699744192 M84.3006379987028 75.04083974993101 C69.00019545717315 76.36647144829755, 50.04465735363633 74.41686323069916, 25.5393152784094 75.12363771326045 M84.98791139157984 75.21474775763414 C63.02579415190537 75.07385621865694, 39.79940213749356 75.73445227396876, 24.50884988444954 75.69911920728492 M26.683804147559343 76.68304930795803 C22.83539829330487 63.720606608600576, 26.003577782718217 51.68853413918608, 23.681189596259735 25.80749295581834 M24.340252659422013 75.64487642939764 C25.307987998559717 63.76930377903948, 25.575179782182147 50.59382993137491, 25.382992546491288 24.644152394205395" stroke="rgb(0, 0, 0)" stroke-width="1" fill="none"/><text x="55" y="55" class="id" aria-describedby="desc-0">id21<title id="desc-0">Object id</title></text></g><g><path d="M181.86247824099618 25.359728772878558 L241.96230343097918 25.35207638157484 L242.28080705203763 74.9985743846665 L182.19604760144856 75.31425496552934" stroke="none" stroke-width="0" fill="var(--highlight-box-fill)"/><path d="M181.65239712301866 25.240603365871284 C195.00490346981923 24.62054792984586, 208.39023881743765 24.80010354495621, 241.96730623014406 25.038597451548497 M181.87833989035366 25.142896502023454 C202.6472868529906 25.224999280915025, 222.78685108802304 25.253544536283897, 242.0610358919182 25.160860190397294 M241.89254210714822 24.871439239314427 C241.7553806030268 37.71937311359139, 242.12678318580018 50.51522891426872, 241.833348070569 74.68643134491303 M242.19745727153355 25.158573624875526 C241.81600919251633 38.78898323057606, 242.01601264121805 52.74074086245359, 241.82794402238693 75.04014209580983 M241.90574985908944 75.05880653765128 C226.85978016215637 75.019097286936, 211.38460977527953 75.40932225435816, 182.33599550724412 74.95664295657795 M242.0198705051655 74.92635033731281 C221.0544184570322 75.14275461309497, 200.479262553233 74.93540924878735, 181.8870531983865 74.93618651484309 M182.1284657440182 74.72252498840027 C181.71011579076276 62.15968345806398, 181.7739994508942 49.29718286243576, 182.28053213561083 24.777691146264527 M182.18669129834754 74.87173517246167 C181.88944002615474 64.83674021484188, 181.77716326077862 54.771011810100035, 182.08723216451224 24.880005027550858" stroke="var(--highlight-box-line-color)" stroke-width="4" fill="none"/><text x="212" y="55" style="font-weight:bolder; font-size:22px; fill:var(--highlight-value-text-color); " class="type" aria-describedby="desc-1">str<title id="desc-1">Object type</title></text></g><text x="133.5" y="115" class="value" aria-describedby="desc-2">"Highlight Type"<title id="desc-2">Value</title></text></g></g></svg>