<svg width="287" height="217" xmlns="http://www.w3.org/2000/svg"><style>
        :root {
        --fade-text-color: rgb(0, 0, 0);
        --hide-text-color: white;

        --highlight-value-text-color: rgb(27, 14, 139);
        --highlight-id-text-color: rgb(150, 100, 28);

        --highlight-box-fill: yellow;
        --highlight-box-line-color: rgb(0, 0, 0);

        --fade-box-fill: rgb(247, 247, 247);
        --fade-box-line-color: gray;

        --hide-box-fill: white;

        --primitive-value-color: rgb(27, 14, 139);
        --id-text-color: rgb(150, 100, 28);
        --default-font-size: 20px;

        --highlight-object-fill: rgba(255, 255, 0, 0.6);
    }

        text {
            font-family: Consolas, Courier;
            font-size: 20px;
        }
        text.default {
            fill: rgb(0, 0, 0);
            text-anchor: middle;
        }
        text.attribute {
            fill: rgb(27, 14, 139);
            text-anchor: start;
        }
        text.variable {
            fill: rgb(0, 0, 0);
            text-anchor: start;
        }
        text.id {
            cursor: auto;
            fill: rgb(150, 100, 28);
            text-anchor: middle;
        }
        text.type {
            fill: rgb(27, 14, 139);
            text-anchor: middle;
        }
        text.value {
            fill: rgb(27, 14, 139);
            text-anchor: middle;
        }
        path {
            stroke: rgb(0, 0, 0);
        }
        .highlighted path {
            fill: var(--highlight-object-fill) !important;
        }
    </style><g id="object-0"><path d="M49.20774121151903 23.460408634476007 L251.75171071314875 25.597512862343212 L249.421408677196 153.42933030379666 L49.30001405382948 153.1845480269316" stroke="none" stroke-width="0" fill="none"/><path d="M50.69963991382551 24.212866278219913 C112.93373212181457 23.700837198999874, 177.47511694018496 24.228174586064572, 248.62262842625603 23.283431679671686 M49.267339183994764 24.860143143483903 C119.9931570364887 24.718401964022014, 190.05337072327956 25.243861869532875, 250.23806279714435 24.18455627866374 M248.141271731723 25.382796037202684 C250.71279586504244 72.99540092416316, 251.15931511463603 122.07295269078065, 250.42613887128462 153.24050730013488 M249.20991794636697 24.92797378455068 C251.49039321106176 56.42757552795717, 251.11912414798562 86.10977925888098, 249.18509518201896 155.9422230608456 M251.28173530363807 154.3448202620806 C182.2100433853393 157.2573051967337, 115.6439856217646 157.66022893770145, 48.93961040535606 156.14562383944283 M250.2545369794465 155.2342346153322 C203.40315139388372 156.44556513881489, 154.63203712992865 156.0751927781181, 49.59703369156379 155.45508525864818 M49.20624531128871 154.61359740523886 C51.360179519408156 105.31484763591124, 48.919876107796235 56.333867028647425, 51.030255109237885 25.02526534120775 M49.04236381985942 155.55608580035454 C48.78663415760855 121.25446740996344, 49.509455173994326 87.10559451765533, 49.216691288985075 25.400614018144697" stroke="rgb(0, 0, 0)" stroke-width="1" fill="none"/></g><g><path d="M45.317283815947924 17.033685996488018 L255.93586477180975 17.394612015251884 L254.06078595161478 160.15330950064094 L42.644936746762866 162.20680412223012" stroke="none" stroke-width="0" fill="none"/><path d="M42.86071910747378 17.591899083418035 C125.99309988730963 20.49106385551222, 209.7457541711761 19.1361385448643, 255.8040829332721 20.36291159822985 M43.435929127027066 19.85924277326549 C91.82326917715389 17.265158156708143, 138.38368585149544 17.859043064858053, 256.45173597880927 18.75725351294752 M255.72036639352223 20.759770389186812 C258.2947773478901 49.742537584875734, 258.40429953813737 77.10719866972471, 257.73648084714364 160.98733509369444 M255.1933604667264 18.14978562939354 C257.6036377006292 51.27194990660977, 257.6389708546386 84.10078256482781, 255.2669385560928 161.91608171044643 M254.52739753226666 162.50013973996417 C188.24297952192728 160.98862434411845, 116.99620815942663 161.641088032924, 45.19421550939336 160.94695687601669 M256.53485238371405 161.20283773309157 C173.51846497598586 162.76225741941556, 91.58987505592816 161.29647870293982, 44.75620272127769 161.09933367703414 M43.401630253390074 162.35286517884785 C42.28135845196565 106.58062284963738, 45.30170941528419 54.9220765552708, 44.43896374409923 20.37796149741775 M44.24180415324264 160.84184708816167 C42.71450942962122 113.89976660393333, 43.658422712389466 67.47425321453989, 44.54789418088295 18.88910328415111" stroke="rgb(0, 0, 0)" stroke-width="1" fill="none"/></g><text x="150" y="115" class="value">"Highlight ID"</text><g><path d="M50.38700317784525 24.885625342792558 L113.10715267768903 25.345863470253068 L112.52260781967905 75.37628471328708 L50.202309811080895 75.08398653350918" stroke="none" stroke-width="0" fill="var(--highlight-box-fill)"/><path d="M50.01054639949196 25.298952223974144 C63.81007982632439 25.469922481010627, 77.88937341021173 25.18209598678088, 112.68492693801896 24.827707246676987 M50.093159102305336 25.184198819571158 C68.96993244709162 25.160501535868196, 87.46245987013914 25.17757081110219, 112.64140342236406 24.96636379263362 M112.85642993987547 24.78959464186737 C113.11601916689025 37.23984268529711, 112.9402711173641 50.182566934044765, 112.5771945988693 75.06154836387807 M112.6245409060311 25.157159988009084 C112.88649223741683 44.60734882228572, 112.88148275853516 64.05449827996985, 112.98376347526072 75.19673887612335 M112.60440616824012 75.23819898911727 C98.64978602398605 75.23054034042399, 83.9334071647898 75.05745199604118, 50.21855703471615 74.69468685713277 M112.87501149232737 74.8534960829788 C91.24329223523084 75.05727692950073, 69.78993039553468 75.10862477367752, 50.194367747617115 75.11937170901938 M50.385717434862556 74.68045372118706 C50.32085570449583 63.38230766809388, 50.041805411736 52.27018647744641, 49.75855179566086 25.041131109303144 M50.19181425455255 75.04786364568945 C49.8333404411901 61.07167911565792, 49.81025516786704 47.505364871600996, 50.15181199310066 24.968463770022183" stroke="var(--highlight-box-line-color)" stroke-width="4" fill="none"/></g><g><path d="M189.92479346957128 24.81603310025713 L248.29159122285898 23.74398531215988 L248.58297447950054 74.9253465866997 L191.9023474002585 73.48249941338088" stroke="none" stroke-width="0" fill="none"/><path d="M189.48335477402296 23.11497400309046 C209.199504330398 25.60971093933194, 229.98795993992096 25.27882283072413, 251.83076624571302 25.04544921382428 M189.64466085423814 24.155803982378075 C213.35533533183522 25.129079362617656, 235.76150015300695 26.451679925176038, 250.48526677723467 25.347454520253663 M249.78151735893985 23.736907922456783 C251.80727636530128 40.04701235447282, 251.60430471239926 57.859113422928544, 250.7175734891347 74.41203685247908 M249.4570463232857 25.784165692790584 C250.61383540177388 40.255525454387254, 250.59674725485027 57.15823097615278, 249.1185848993015 75.93636755152994 M251.44094132720969 74.20679951726893 C232.3359539470452 73.8207174205166, 217.59673515035536 76.83246677819196, 188.8712528801075 74.37315681394726 M249.21949420317497 75.93271990464939 C228.5994993175739 75.01512775254308, 207.1241458623736 74.14309570286989, 189.41170087972927 74.93880139438328 M191.9454458594489 73.58576446863759 C190.49988569880017 62.43568006904474, 189.338986423795 45.145838060553956, 188.55138018566726 25.79301446262211 M190.05124122151852 75.07982411664298 C191.16565766748778 62.12407030556762, 190.66320908067203 48.48141999779145, 189.99669349776454 24.983151500530695" stroke="rgb(0, 0, 0)" stroke-width="1" fill="none"/></g><text x="81.4" y="55" style="font-weight:bolder; font-size:22px; fill:var(--highlight-id-text-color); " class="id">id20</text><text x="220" y="55" class="type">str</text></svg>