<svg data-theme="dark" width="287" height="217" xmlns="http://www.w3.org/2000/svg"><title>Python memory model diagram showing objects</title><style>
        :root {
        --fade-text-color: rgb(0, 0, 0);
        --hide-text-color: white;

        --highlight-value-text-color: rgb(27, 14, 139);
        --highlight-id-text-color: rgb(150, 100, 28);

        --highlight-box-fill: yellow;
        --highlight-box-line-color: rgb(0, 0, 0);

        --fade-box-fill: rgb(247, 247, 247);
        --fade-box-line-color: gray;

        --hide-box-fill: white;

        --primitive-value-color: rgb(27, 14, 139);
        --id-text-color: rgb(150, 100, 28);
        --default-font-size: 20px;

        --highlight-object-fill: rgba(255, 255, 0, 0.6);
    }

        text {
            font-family: Consolas, Courier;
            font-size: 20px;
        }
        text.default {
            fill: rgb(0, 0, 0);
            text-anchor: middle;
        }
        text.attribute {
            fill: rgb(27, 14, 139);
            text-anchor: start;
        }
        text.variable {
            fill: rgb(0, 0, 0);
            text-anchor: start;
        }
        text.id {
            cursor: auto;
            fill: rgb(150, 100, 28);
            text-anchor: middle;
        }
        text.type {
            fill: rgb(27, 14, 139);
            text-anchor: middle;
        }
        text.value {
            fill: rgb(27, 14, 139);
            text-anchor: middle;
        }
        path {
            stroke: rgb(0, 0, 0);
        }
        .highlighted path {
            fill: var(--highlight-object-fill) !important;
        }
    
        [data-theme="dark"] {
            --highlight-value-text-color: #110875;
            --highlight-id-text-color: #6e4409;

            --fade-text-color: #BBBBBB;
            --hide-text-color: #121212;

            --highlight-box-fill: #EDB926;
            --highlight-box-line-color: #FFFFFF;

            --fade-box-fill: #2C2C2C;
            --fade-box-line-color: #666666;

            --hide-box-fill: #121212;

            --highlight-object-fill: rgba(72, 207, 173, 0.3);
        }
        [data-theme="dark"] text.default,
        [data-theme="dark"] text.variable {
            fill: rgb(224, 224, 224);
        }
        [data-theme="dark"] text.attribute,
        [data-theme="dark"] text.type,
        [data-theme="dark"] text.value {
            fill: rgb(144, 164, 237);
        }
        [data-theme="dark"] text.id {
            fill: rgb(255, 183, 77);
        }
        [data-theme="dark"] path {
            stroke: rgb(204, 204, 204);
        }
</style><g role="graphics-object"><title>Str id20 with value "Highlight ID"</title><g id="object-0"><path d="M48.14563387533756 26.676407640162516 L251.6604786074998 24.60803718845361 L249.45910874344608 153.34140833899173 L50.61069580853054 153.598591127455" stroke="none" stroke-width="0" fill="none"/><path d="M49.76110208020766 25.576410197843543 C99.20349524696879 25.279831423349574, 149.18234283103135 24.6764619619777, 250.36925653703273 23.78542598015785 M50.667808389552015 24.12470903136903 C94.0315568165211 24.996926925772463, 137.70170997213555 26.00676349113748, 250.11299984010665 25.759191891666386 M249.5617930987181 25.981778607535382 C252.56437266031705 56.18317555645604, 249.77062629142134 86.18091300171609, 248.08464555833015 153.3048986429671 M249.29907957807697 25.270354428936 C250.4191422428656 68.75149873062026, 250.33194912846722 112.44123104619968, 250.9996442077138 155.24598519286195 M251.67348336027612 153.8815935338645 C207.82506248112313 152.05123189945118, 168.2396828608633 153.68299314988548, 51.60359264162816 155.1431309385384 M250.04615161392852 154.7357720711439 C193.92973568778476 155.58080428792576, 137.33830989116802 155.5898760338843, 50.87363408342466 154.43726422931476 M50.31109885666004 156.1548108077426 C49.050856913331884 108.47129273180474, 47.99647440110053 56.643205231048576, 48.792130058078975 25.844618129809007 M50.71911217492655 154.99530782362777 C49.39518886986197 104.74699716734823, 47.83753255835203 54.56505353621714, 49.17658583752796 24.50537321702614" stroke="rgb(0, 0, 0)" stroke-width="1" fill="none"/></g><g><path d="M42.03309782203736 17.133184424171485 L254.37790254264732 18.050933040532446 L255.622554415329 159.16464289670702 L45.29264724234878 161.58365702147398" stroke="none" stroke-width="0" fill="none"/><path d="M43.0994356529428 18.22431078175383 C92.14021371302364 17.67421290539643, 141.48139054712945 19.888657753109726, 254.47863199982885 19.55287146712583 M44.6424115774378 19.471173274497623 C92.79648695054985 19.442263310110295, 140.58872528860235 19.54918685819953, 255.7932956313091 18.63763315646512 M256.1016129024948 17.365814437846602 C258.96636621161116 58.48129779874388, 258.4193609725424 96.69252344387128, 254.19327299116736 162.96628534185857 M256.8727498810611 18.49788893235147 C257.76993010302533 56.92978294204686, 257.5938382221262 95.59707519860524, 256.52394557440635 160.0402278280554 M257.40299844539595 160.5137228324871 C201.77321487598482 161.6587128323938, 147.9954384711145 161.187476740709, 43.31996666505662 162.29682064899353 M256.2604877481353 161.07523052451714 C171.49642939245416 159.6102429434434, 86.35460459795063 160.65527361095644, 44.836175245365176 160.79757282040958 M45.46546076440835 159.70732097678575 C42.86254764252193 123.31388746191287, 45.78229869824726 85.38707815717677, 42.57807144585143 20.015010712616196 M43.87989918507411 161.24767903291965 C45.64979442127893 113.56819625092545, 45.06325685120399 63.77930473449659, 44.70427241379967 19.88955093993466" stroke="rgb(0, 0, 0)" stroke-width="1" fill="none"/></g><text x="150" y="115" class="value">"Highlight ID"</text><g><path d="M49.937233956323254 25.009714580596043 L112.50893819711295 25.1047192574554 L112.6993126737323 75.07444385647416 L49.7828065821583 75.34307768359618" stroke="none" stroke-width="0" fill="var(--highlight-box-fill)"/><path d="M50.32521602576668 25.033301645633347 C65.51104628282631 25.263119134655128, 80.4443575293258 25.37978858110051, 112.63751859079566 24.972652226055196 M49.82591098934937 24.99582018537503 C67.81358419899422 24.932754118680233, 85.57278443945238 25.070246858054404, 112.62549619819217 24.887705494220167 M112.72695601541695 24.6727251548165 C112.83613150314821 35.32040729499641, 112.59481696434003 44.96022211582064, 112.4811098384213 75.237525048718 M112.9063454374764 24.847080603238854 C112.96196950904188 43.85566671866444, 112.86445124485117 62.56655397588221, 112.67049563160266 75.09385822490705 M113.00229293579284 74.6070380267017 C94.79847821683963 75.01498365260647, 76.80509616098904 75.00056467901514, 49.972992068674266 74.77839194907767 M112.81312418603797 74.91454106959674 C92.05139959686845 74.84281452509077, 71.64777918748574 75.09049626201916, 50.18848128504065 75.00158505028335 M50.386601467571055 75.35219289905281 C50.19088839995434 64.88515482990816, 50.17071925345322 54.07913838930509, 50.258005767166956 24.986908545123864 M49.88093852781972 74.99809878591614 C50.105400063590004 57.40477836785871, 50.057156515847346 39.839574043373425, 49.8340953647219 24.86607340861208" stroke="var(--highlight-box-line-color)" stroke-width="4" fill="none"/></g><g><path d="M190.7800782191891 25.86513417779859 L251.77912758185755 24.340911424385894 L249.06780237025515 74.59346268416914 L189.5171500457616 75.2545283225592" stroke="none" stroke-width="0" fill="none"/><path d="M188.32417310678983 24.24404579586114 C204.6528838792058 25.38267883373622, 217.1242142282769 26.8094623038042, 251.09300108890793 26.06013391303454 M190.40854785845713 24.96650911938273 C201.66700951433785 23.636600537390446, 214.98920030713646 23.672872983594967, 249.44069217053078 24.769715150503647 M249.63893369451858 24.514248098856456 C247.76375064803477 42.149711996804136, 250.48915575985365 58.52898186811204, 251.70387096144123 75.58645380382998 M250.42859549990843 25.654571547373017 C250.511972635967 36.65936510347805, 249.88258960233046 48.28205246955327, 250.02020422192234 74.87301263564332 M251.04283572724637 73.1940545826653 C231.4880014615441 74.16648709758151, 217.340384339546 74.32493688771284, 188.81637759315834 76.84533866471843 M249.1447193872239 74.85797714570894 C233.38717731940469 74.45619340232535, 216.84976121685582 74.53500906648149, 190.94246956537128 74.02316230031037 M190.3676553777669 76.6322333927574 C190.29740621470506 55.91611072587377, 190.02702504813644 34.846755827028055, 190.37719148403383 26.962172219950943 M190.28699813224864 74.97744204330631 C190.88947547639395 63.19519034148511, 190.37833633914514 51.26194464032259, 190.87990221028144 25.701045742872207" stroke="rgb(0, 0, 0)" stroke-width="1" fill="none"/></g><text x="81.4" y="55" style="font-weight:bolder; font-size:22px; fill:var(--highlight-id-text-color); " class="id">id20</text><text x="220" y="55" class="type">str</text></g></svg>