<svg width="287" height="217" xmlns="http://www.w3.org/2000/svg"><style>
        :root {
        --fade-text-color: rgb(0, 0, 0);
        --hide-text-color: white;

        --highlight-value-text-color: rgb(27, 14, 139);
        --highlight-id-text-color: rgb(150, 100, 28);

        --highlight-box-fill: yellow;
        --highlight-box-line-color: rgb(0, 0, 0);

        --fade-box-fill: rgb(247, 247, 247);
        --fade-box-line-color: gray;

        --hide-box-fill: white;

        --primitive-value-color: rgb(27, 14, 139);
        --id-text-color: rgb(150, 100, 28);
        --default-font-size: 20px;

        --highlight-object-fill: rgba(255, 255, 0, 0.6);
    }

        text {
            font-family: Consolas, Courier;
            font-size: 20px;
        }
        text.default {
            fill: rgb(0, 0, 0);
            text-anchor: middle;
        }
        text.attribute {
            fill: rgb(27, 14, 139);
            text-anchor: start;
        }
        text.variable {
            fill: rgb(0, 0, 0);
            text-anchor: start;
        }
        text.id {
            cursor: auto;
            fill: rgb(150, 100, 28);
            text-anchor: middle;
        }
        text.type {
            fill: rgb(27, 14, 139);
            text-anchor: middle;
        }
        text.value {
            fill: rgb(27, 14, 139);
            text-anchor: middle;
        }
        path {
            stroke: rgb(0, 0, 0);
        }
        .highlighted path {
            fill: var(--highlight-object-fill) !important;
        }
    </style><g id="object-0"><path d="M49.635903145035975 24.67187074933285 L249.6283255653731 24.758757226592042 L250.33519085072876 154.99613529715677 L50.275077848706275 155.18052493296827" stroke="none" stroke-width="0" fill="var(--highlight-box-fill)"/><path d="M50.29232989963676 25.21911187688565 C104.26392466292144 25.384829892515814, 158.5084064627603 25.000072805277732, 250.01129975526555 25.117620105057753 M50.01728583768058 25.15972681560429 C92.6757551984969 25.181343038395955, 135.10731866602464 24.908969843890816, 250.1391931089593 24.992957733324197 M249.9772103294342 24.603972388246152 C250.300220239032 71.56408103294065, 250.30362654601876 118.31287060807324, 250.34433349417782 154.75195281192595 M250.00419321210398 24.85724936382717 C249.69043159420067 74.71294515809147, 249.90512745970713 124.889726777014, 249.880878551006 155.11442618500513 M249.968757874487 155.21045555714193 C173.89117274375934 154.899567889591, 98.53004208304003 154.85079621709184, 49.991947937001775 154.86184125073643 M250.09162466116666 154.95339590999765 C172.03669919265545 154.70032799938105, 93.60625095073304 154.51773687118612, 49.97153207416067 154.93803590508972 M50.24522944744511 155.33045103185233 C49.41773367467923 122.15869141077214, 49.782127860376455 88.67238183379916, 50.17648298706225 24.96904485440341 M50.10317695884552 155.1248113689546 C50.1305743519658 127.85378810614031, 49.9380629523448 100.78752200527806, 50.08801432401932 24.97530179403374" stroke="var(--highlight-box-line-color)" stroke-width="4" fill="none"/></g><g><path d="M42.602448132217425 17.591848662247685 L257.8442678254078 19.894897659649693 L257.4370029358654 162.78257587671635 L43.99959675614862 159.0241048567001" stroke="none" stroke-width="0" fill="none"/><path d="M44.96387962571261 20.50354153764903 C119.50278311505285 20.289549275412067, 192.3398620946449 19.512737842278835, 254.90012921970995 18.612111979297794 M43.53836988794408 18.891893188443373 C106.5485539842433 20.887302271509498, 168.17784594318567 21.08498852895832, 256.037766347716 19.092580003814177 M257.6019347442379 18.28741705847608 C256.9300295605101 67.86762335388126, 256.4845375013556 117.46839440272218, 257.31297407845864 160.2014677152561 M255.1504745582097 19.581474448361327 C255.73367292530588 74.91663197109148, 255.21965384486495 129.26513785173117, 255.8738641739592 160.23778708258666 M255.6079849969908 161.25004474662185 C206.27422504868264 161.44795091838157, 153.88653613980907 163.2925445628985, 43.72986072192432 160.2184820730268 M256.8169239882909 160.3850059238963 C172.80345122510963 159.92019207329903, 89.74597487448457 159.56115005055796, 44.165540178936794 160.67496362764876 M45.735294691859174 159.15356695531042 C45.27855666441129 131.7266293782905, 42.10629085723079 103.5420055958352, 45.54428172034087 20.131392314603307 M43.91535318347223 160.68229694264338 C46.13307956183743 110.9109273255504, 44.18879539657486 57.922671929905526, 44.88173078179822 19.191380125787454" stroke="rgb(0, 0, 0)" stroke-width="1" fill="none"/></g><text x="150" y="115" style="font-weight:bolder; font-size:22px; fill:var(--highlight-value-text-color); " class="value">"Highlight"</text><g><path d="M49.96293228435474 25.128847626401278 L112.89455053931106 24.903460439436863 L112.73013301752351 74.83312790473987 L49.68069393446173 74.65390980319903" stroke="none" stroke-width="0" fill="none"/><path d="M49.836505242706366 25.157015751159392 C69.17103287063738 24.719188602500022, 89.25784849272098 25.259043100160717, 112.42299958176643 24.629549871992136 M49.90015583828498 24.98208662371839 C70.94774885088934 25.19114026208617, 92.1261714203085 25.052715024656653, 112.97713928351604 24.804122706333526 M112.51192443364249 24.965315951895796 C112.87738854135688 44.22793909713527, 112.4617559265718 63.41992266625382, 113.12365117767123 74.96742324199109 M112.84240407715335 24.88007733847477 C112.8453363054798 38.77277491755351, 112.74151997339874 52.72509788212028, 112.92473744033008 75.11733598918262 M112.55737983202323 75.36814689637471 C92.03571739438753 74.91731366512452, 71.55256295173922 75.22427401448418, 50.07757651051455 75.21259059221039 M112.98211273352581 74.80814519891297 C91.68508361322444 75.20082479232902, 70.69457246556533 74.92467700621964, 49.9797401884732 75.02505277367933 M49.88804025655902 74.61399752500917 C49.988320062057184 59.89118972600077, 50.1350680650838 45.7800276105538, 50.21125750936578 25.15947108336885 M50.065401010145315 75.11973075890903 C50.112609243580394 60.169437776105234, 50.20289337747311 45.7509424577609, 49.88159301238552 25.03184576161069" stroke="var(--highlight-box-line-color)" stroke-width="4" fill="none"/></g><g><path d="M190.2917091773729 24.811900158670692 L250.08022375376558 24.64309481072567 L250.1441036442252 75.29407505907054 L190.28620983792962 74.89229157865691" stroke="none" stroke-width="0" fill="none"/><path d="M190.38478169364356 25.31661029716004 C210.14134524594684 24.62266657450811, 230.0123135717848 25.09965395632302, 250.3808022911525 24.905897639041477 M190.1451488999091 25.01500926424239 C212.46384133297747 25.106159465799383, 235.3031273284938 24.90191847111476, 250.18462803730995 25.144213685644566 M250.03754052540236 24.917738844701756 C250.0109386733261 36.1685007835719, 250.04748597726984 47.02458785149172, 250.08696481878408 74.79644480435486 M250.19875460236815 25.177838247211128 C250.05925101089846 44.538898447314246, 249.95850521837625 63.790478082226755, 249.9036134981389 74.94480808296251 M249.87783849040767 74.62355405636896 C236.9635596615612 75.0254861853077, 223.6826389667344 74.99745231828173, 189.97628661113023 74.89474626978922 M250.0547261384222 74.82042488444615 C235.5715916541306 75.14730518509168, 220.78806236910452 74.86002193226072, 189.88336396411106 74.97758190256549 M189.97900962180958 74.60153394106695 C189.8389509426173 63.73916438860986, 190.1302718962462 52.95117024135474, 189.8197991768779 24.682254393178983 M190.062042802734 74.8118887331361 C189.8718272013728 63.568121132639504, 190.2186683911644 52.02997122913469, 189.84144562801782 25.068209629166446" stroke="var(--highlight-box-line-color)" stroke-width="4" fill="none"/></g><text x="81.4" y="55" style="font-weight:bolder; font-size:22px; fill:var(--highlight-id-text-color); " class="id">id19</text><text x="220" y="55" style="font-weight:bolder; font-size:22px; fill:var(--highlight-value-text-color); " class="type">str</text></svg>