<svg width="287" height="217" xmlns="http://www.w3.org/2000/svg"><title>Python memory model diagram showing objects</title><style>
        :root {
        --fade-text-color: rgb(0, 0, 0);
        --hide-text-color: white;

        --highlight-value-text-color: rgb(27, 14, 139);
        --highlight-id-text-color: rgb(150, 100, 28);

        --highlight-box-fill: yellow;
        --highlight-box-line-color: rgb(0, 0, 0);

        --fade-box-fill: rgb(247, 247, 247);
        --fade-box-line-color: gray;

        --hide-box-fill: white;

        --primitive-value-color: rgb(27, 14, 139);
        --id-text-color: rgb(150, 100, 28);
        --default-font-size: 20px;

        --highlight-object-fill: rgba(255, 255, 0, 0.6);
    }

        text {
            font-family: Consolas, Courier;
            font-size: 20px;
        }
        text.default {
            fill: rgb(0, 0, 0);
            text-anchor: middle;
        }
        text.attribute {
            fill: rgb(27, 14, 139);
            text-anchor: start;
        }
        text.variable {
            fill: rgb(0, 0, 0);
            text-anchor: start;
        }
        text.id {
            cursor: auto;
            fill: rgb(150, 100, 28);
            text-anchor: middle;
        }
        text.type {
            fill: rgb(27, 14, 139);
            text-anchor: middle;
        }
        text.value {
            fill: rgb(27, 14, 139);
            text-anchor: middle;
        }
        path {
            stroke: rgb(0, 0, 0);
        }
        .highlighted path {
            fill: var(--highlight-object-fill) !important;
        }
    </style><g role="graphics-object"><title>Str id19 with value "Highlight"</title><g id="object-0"><path d="M49.72405010592521 24.944385186647164 L250.09843347928495 25.03625807569129 L249.8109142629837 154.60024192667325 L49.68771842698923 154.74094764631056" stroke="none" stroke-width="0" fill="var(--highlight-box-fill)"/><path d="M49.69739825118939 24.92571216970054 C124.15044038625763 24.879198514577734, 197.57209903621342 25.062252219547148, 249.98922975902258 25.286341446646247 M50.08353526072462 24.876624682435164 C109.32356628847371 25.173329548998662, 168.6714572546603 25.02113643226396, 249.94825791628483 24.848025675126724 M249.78577658747182 24.927089534116853 C250.01757220709482 75.15966780268874, 249.95839159046707 124.1977009751832, 250.11940496230943 155.0587096423252 M250.15657406021822 24.965814468392292 C249.60292581654792 60.535991324976266, 249.71769571886307 95.88511031001332, 249.88539368247476 155.00464894977372 M250.22444528481205 155.30888016174157 C202.53242229622597 154.7793381835288, 155.74093371200783 154.90392397761906, 50.13155705504153 154.68524289060886 M249.98624113427883 155.04204748286546 C189.07871274535273 154.96473767875358, 128.52121712556698 154.727165842048, 49.91717613693875 155.0161520640234 M49.98934989342362 155.37390461331398 C50.17247041319567 111.49896486395978, 50.19186414943675 68.2929791649207, 49.921885464789256 25.223137165738468 M49.8805439108857 154.82788100384298 C49.9926438447947 120.30500074431514, 50.05131677631946 85.58498205906612, 50.061878676134874 24.85572585885044" stroke="var(--highlight-box-line-color)" stroke-width="4" fill="none"/></g><g><path d="M42.35251609754376 20.045743977159894 L256.9304473100856 17.974219931701807 L255.82447239955607 159.014783521064 L45.74808245122217 162.75180584017113" stroke="none" stroke-width="0" fill="none"/><path d="M45.40788949356623 20.616954499632968 C88.57557163916451 19.627242170038627, 131.87109446630012 20.486277294862436, 256.1446606306831 18.058899392177537 M44.72673803202594 18.853241234164276 C126.94987787452449 16.7994132988646, 210.7146967500407 18.119473059979907, 255.80155625014459 19.243074055760914 M255.42230284785214 19.955140815848047 C254.44993635730376 59.241092701205694, 256.8225668041933 101.34626926887084, 255.51151461357043 161.2686756861894 M255.16419038002013 18.4609209890423 C256.8834025520702 60.192775433302, 257.2170985452534 103.10390439471287, 255.17927751600587 160.5646728788469 M256.6743209599363 159.30782400728128 C184.1930578907462 161.9435229661815, 110.89356669900882 160.22194060587924, 44.171682883398454 162.27539670523103 M255.94306617822988 160.60255610466922 C178.91879175157334 162.27542796842613, 102.14219628932256 162.38897013543448, 44.644395640238514 161.48268471580644 M43.82302827607641 162.56466928626713 C41.07777870622015 116.95570260933295, 42.449676000334954 68.20777078176982, 45.828464865245 18.720561284377965 M44.03647173105466 160.50044676423812 C45.88733125460153 114.36184510525803, 45.08619555316462 66.12354233599359, 43.05155969277014 19.553651745019984" stroke="rgb(0, 0, 0)" stroke-width="1" fill="none"/></g><g><path d="M50.39328117427874 24.778510383482057 L113.17567150478922 25.144201987629582 L112.67715387889528 74.71586979162095 L50.31033359725665 75.14416650849303" stroke="none" stroke-width="0" fill="none"/><path d="M49.787203368878444 25.162158319142122 C72.12802198575409 25.300360965452676, 94.3459651573198 25.074116463644014, 112.96315681502477 24.86846983823773 M50.09324945183521 24.93671681575274 C73.85224702964379 24.945053448624144, 98.14004484346627 24.96800855349679, 112.87143266097296 24.848628371810975 M112.47621588097283 24.91449658091201 C112.74737768503697 35.27234644937189, 112.951842298881 46.129470617110385, 113.00326202485702 74.6297971182827 M112.85096099573931 24.838681407892263 C112.80372223463104 36.61830787736155, 112.64037916657267 48.58530197072789, 112.61849431440548 75.02970735658684 M112.99586948051667 74.94514280199598 C95.71713328638253 75.30271935828088, 78.43084781963373 74.7622518186014, 50.08236543805439 75.22055016502088 M112.8087517030737 75.0359292543206 C93.0015858811052 74.9946401339962, 73.30285091210857 75.00292991844644, 50.152060048400514 74.81143620012058 M49.908603220010356 74.91363400885616 C50.10149780258035 59.59843076616628, 50.142246563918846 44.4168209130549, 50.35146266826872 24.785564306574745 M50.1119183051965 75.00374142889581 C50.23747187532148 56.0417203142822, 50.07828158437522 37.21197444283856, 49.877332768422804 25.120595504397084" stroke="var(--highlight-box-line-color)" stroke-width="4" fill="none"/><text x="81.4" y="55" style="font-weight:bolder; font-size:22px; fill:var(--highlight-id-text-color); " class="id" aria-label="id: id19">id19</text></g><g><path d="M189.68167329670715 25.0425681226677 L250.18595821121195 24.71178961614392 L250.09749355594192 75.39170696798192 L189.70021708104173 75.08089287455037" stroke="none" stroke-width="0" fill="none"/><path d="M189.65786849121548 24.667312729433217 C208.34781926768522 25.268169972498093, 226.5674124993645 25.12504240321313, 249.98833968452334 24.889168994755643 M190.13127892301628 24.84064332278695 C210.52323781174397 24.83058458648617, 230.9097743225719 25.100574133587518, 250.04095819121605 25.14903137918996 M250.2714720851538 24.768566508757054 C249.91706117103251 41.124367487718544, 250.34924858311567 57.14343302945175, 249.64346362107452 75.29806914155914 M250.03821080429321 24.89435145142231 C249.90110192464175 36.019164273702934, 250.07939000087566 46.739084685884926, 249.87258777228428 74.97494745675549 M250.2039410926139 74.67071761457618 C228.4287660034341 75.09762164555077, 206.2119453793328 74.84771006026175, 190.23221636316396 75.03768874514057 M250.19406989352728 74.83449202871468 C230.4103330457916 74.9639091488512, 210.82329587026928 75.09070146834681, 190.16796535832154 74.85980292873995 M190.29555023547752 74.86391266578187 C189.66858464816136 65.02286517919345, 190.05201051043974 54.69084876493945, 190.29531460422976 25.321804570651047 M190.1296368130972 75.08491228401472 C190.1558108969793 64.5943878643633, 190.07292763516182 54.554132785698364, 189.80915846417994 25.014919239205305" stroke="var(--highlight-box-line-color)" stroke-width="4" fill="none"/><text x="220" y="55" style="font-weight:bolder; font-size:22px; fill:var(--highlight-value-text-color); " class="type" aria-label="type: str">str</text></g><text x="150" y="115" style="font-weight:bolder; font-size:22px; fill:var(--highlight-value-text-color); " class="value" aria-label="value: &quot;Highlight&quot;">"Highlight"</text></g></svg>