<svg data-theme="dark" width="304" height="217" xmlns="http://www.w3.org/2000/svg"><title>Python memory model diagram showing objects</title><style>
        :root {
        --fade-text-color: rgb(0, 0, 0);
        --hide-text-color: white;

        --highlight-value-text-color: rgb(27, 14, 139);
        --highlight-id-text-color: rgb(150, 100, 28);

        --highlight-box-fill: yellow;
        --highlight-box-line-color: rgb(0, 0, 0);

        --fade-box-fill: rgb(247, 247, 247);
        --fade-box-line-color: gray;

        --hide-box-fill: white;

        --primitive-value-color: rgb(27, 14, 139);
        --id-text-color: rgb(150, 100, 28);
        --default-font-size: 20px;

        --highlight-object-fill: rgba(255, 255, 0, 0.6);
    }

        text {
            font-family: Consolas, Courier;
            font-size: 20px;
        }
        text.default {
            fill: rgb(0, 0, 0);
            text-anchor: middle;
        }
        text.attribute {
            fill: rgb(27, 14, 139);
            text-anchor: start;
        }
        text.variable {
            fill: rgb(0, 0, 0);
            text-anchor: start;
        }
        text.id {
            cursor: auto;
            fill: rgb(150, 100, 28);
            text-anchor: middle;
        }
        text.type {
            fill: rgb(27, 14, 139);
            text-anchor: middle;
        }
        text.value {
            fill: rgb(27, 14, 139);
            text-anchor: middle;
        }
        path {
            stroke: rgb(0, 0, 0);
        }
        .highlighted path {
            fill: var(--highlight-object-fill) !important;
        }
    
        [data-theme="dark"] {
            --highlight-value-text-color: #110875;
            --highlight-id-text-color: #6e4409;

            --fade-text-color: #BBBBBB;
            --hide-text-color: #121212;

            --highlight-box-fill: #EDB926;
            --highlight-box-line-color: #FFFFFF;

            --fade-box-fill: #2C2C2C;
            --fade-box-line-color: #666666;

            --hide-box-fill: #121212;

            --highlight-object-fill: rgba(72, 207, 173, 0.3);
        }
        [data-theme="dark"] text.default,
        [data-theme="dark"] text.variable {
            fill: rgb(224, 224, 224);
        }
        [data-theme="dark"] text.attribute,
        [data-theme="dark"] text.type,
        [data-theme="dark"] text.value {
            fill: rgb(144, 164, 237);
        }
        [data-theme="dark"] text.id {
            fill: rgb(255, 183, 77);
        }
        [data-theme="dark"] path {
            stroke: rgb(204, 204, 204);
        }
</style><g role="graphics-object"><title>Str id21 with value "Highlight Type"</title><g id="object-0"><path d="M50.135361952265455 23.266348010158158 L265.42234874264665 24.550226407554597 L268.57146339982717 154.7192272723451 L50.754361739049095 155.75703927539587" stroke="none" stroke-width="0" fill="none"/><path d="M49.5707648062555 26.321541667080872 C111.84518328560027 23.179630346883943, 170.7264617215369 26.100292454072715, 266.6092212617957 25.826008170642368 M49.75805576615614 25.317991201766336 C103.69951164233015 25.15191659633177, 157.67025459768476 24.29240284234398, 267.61405683433475 25.730178518852114 M265.4710575247064 26.102451245908842 C267.34706205321663 65.58123891538962, 265.58306218481914 104.32601833266924, 268.12717151464244 153.13622792595353 M267.71408025939076 24.657897461757738 C265.52530299128165 59.16221661660351, 266.2498149129782 91.71537461490877, 267.88889549825444 155.58319939284453 M265.61102422960147 154.97498241859083 C181.7684808316767 153.92189012884612, 98.81000674744718 153.89110526263403, 51.35478702267813 154.8270841787076 M266.640207525853 154.9870688718349 C223.1235224290439 154.98673098562682, 179.5353774937443 154.89576158776728, 50.75035655387274 154.79751175914143 M50.09810858895371 154.59778582441277 C50.80785290849053 119.5530682215315, 50.139887154133326 83.59498025981247, 48.63116281998136 25.512259298622322 M49.28774206838972 155.88098065887323 C48.30566061657512 129.39942127513683, 49.6797621942341 101.37375425946625, 50.53783517446186 25.70890142391282" stroke="rgb(0, 0, 0)" stroke-width="1" fill="none"/></g><g><path d="M45.451057200760665 19.497416622562092 L274.995888584695 20.675042411973518 L274.12258139874814 161.00719150271107 L45.26730231701242 161.85087437760538" stroke="none" stroke-width="0" fill="none"/><path d="M45.56963199478412 19.12296762762871 C95.66854420229124 18.39481989633004, 150.35652385087587 18.407492855000367, 273.01840659802156 18.65910232935189 M44.074354993544915 19.844618228075202 C134.35027043294662 18.209698682048412, 225.43351749799024 16.939409520482986, 273.84961104147027 19.13068028187223 M271.98923214374327 19.896789005415016 C270.4879624185491 70.78179817899618, 274.1058955163939 119.11678811935502, 271.9536318348033 162.1569002312023 M273.18275367635334 19.866344520395746 C274.89618803897906 62.58499960272557, 274.0821404005075 107.53787946830673, 272.87628944854845 161.93820408999431 M274.46620717212 160.70439643613412 C192.64022697084874 162.01975275504057, 114.25702951959735 163.97631779497402, 45.04602610027456 162.05678063338675 M273.30648060584963 161.54987255407178 C193.63322724395832 162.42628504781322, 115.89787479734905 162.17949437182722, 44.76311547502308 161.01454991057608 M45.1526288343592 160.94216712004234 C44.040484149179136 109.57226271700875, 46.93398063946813 58.94061733366073, 45.619166022008955 20.09306353473514 M43.23840578932827 161.22593333656488 C42.92705166227229 117.70597257792988, 42.44341026527138 74.2559351566189, 43.73943727607806 18.006084328983036" stroke="rgb(0, 0, 0)" stroke-width="1" fill="none"/></g><g><path d="M51.45095487681754 25.518773105066934 L108.01978134488866 25.873793169127765 L110.89176562378115 73.8622389916591 L49.09353294177285 74.39434965688005" stroke="none" stroke-width="0" fill="none"/><path d="M49.17850171255716 26.71148037580031 C71.66212319340707 24.856186465504827, 92.70716646611785 24.022819819342203, 108.56866306652982 26.76759030176749 M49.007683708433206 25.58631111289771 C67.4602092684232 24.61572460331996, 85.32584574220012 24.77637218184855, 110.0899718379407 25.41986005736819 M111.81226573275606 24.69674214920144 C111.9015831802188 44.08441287693365, 112.05471971799574 58.85117523533955, 108.45850264482574 74.18611198626724 M109.54440210308154 25.81303310531886 C109.33170349744148 38.91203699928704, 110.12671699238851 52.356753476903414, 110.22173924164477 74.86385307486228 M110.22818868078137 74.2563670572396 C88.99462449641423 76.63268829729066, 68.66466205171511 74.10153702230573, 48.762122719064095 73.82786193263405 M110.99806625123804 74.74041139976242 C89.38182174289837 76.00128617409571, 69.87805219955044 75.92219979886184, 49.20668644198145 75.49236515606762 M48.48225389335871 74.1004640336194 C50.13485379976607 61.06222694208864, 50.5539712149757 47.65805605997275, 50.875852420688794 26.346619539577397 M49.422798407787695 75.481246797255 C48.61319281428593 57.89032843034923, 50.06242156295666 40.392523014090315, 49.53732064688481 24.90546844752342" stroke="rgb(0, 0, 0)" stroke-width="1" fill="none"/><text x="80" y="55" class="id" aria-describedby="desc-0">id21<title id="desc-0">Object id: id21</title></text></g><g><path d="M207.39040524982988 25.06148316722701 L267.2392101898053 25.23547502326924 L267.0939553833666 74.61165564914727 L206.89668452864598 75.00528763420256" stroke="none" stroke-width="0" fill="var(--highlight-box-fill)"/><path d="M207.14963850844964 24.826498942535647 C223.77869927714448 25.280614461404582, 240.45641033177205 25.0617656784927, 267.18911499675113 24.670396533366603 M206.8240076421063 25.005278978262353 C225.18709661213126 24.841693290306253, 243.04402208779203 24.878048422726152, 267.05394394109027 25.122359382310577 M266.6161915988747 25.26260246883978 C266.74769099191167 35.414018312365585, 266.8705403121447 46.405375525814144, 266.77749559107775 74.89856631657324 M266.8483860606898 25.007888873388058 C266.9396509108132 43.46209928355086, 266.7463296789152 61.96733650926076, 266.8565929570873 74.87213952219463 M267.08165252687 75.01224552437476 C248.54708176114315 75.44120952839756, 230.5114635039792 75.29235617096582, 207.0359324389072 74.84826240855604 M266.85136201343033 74.8055155060144 C252.82317558351443 75.03878314576417, 238.4131653707939 74.85516057745973, 207.0962922022884 75.01180730780703 M206.97351910428927 74.77680529382503 C207.0649321962976 63.43647316087647, 206.8290277244041 50.95418420116845, 206.93145866746113 25.36425339987847 M207.08199619217447 75.08530195908978 C207.04165908115525 56.96711036293801, 207.0952202089302 39.21261439719394, 207.17384838046425 25.129774606978312" stroke="var(--highlight-box-line-color)" stroke-width="4" fill="none"/><text x="237" y="55" style="font-weight:bolder; font-size:22px; fill:var(--highlight-value-text-color); " class="type" aria-describedby="desc-1">str<title id="desc-1">Object type: str</title></text></g><text x="158.5" y="115" class="value" aria-describedby="desc-2">"Highlight Type"<title id="desc-2">Value: "Highlight Type"</title></text></g></svg>