<svg width="287" height="217" xmlns="http://www.w3.org/2000/svg"><title>Python memory model diagram showing objects</title><style>
        :root {
        --fade-text-color: rgb(0, 0, 0);
        --hide-text-color: white;

        --highlight-value-text-color: rgb(27, 14, 139);
        --highlight-id-text-color: rgb(150, 100, 28);

        --highlight-box-fill: yellow;
        --highlight-box-line-color: rgb(0, 0, 0);

        --fade-box-fill: rgb(247, 247, 247);
        --fade-box-line-color: gray;

        --hide-box-fill: white;

        --primitive-value-color: rgb(27, 14, 139);
        --id-text-color: rgb(150, 100, 28);
        --default-font-size: 20px;

        --highlight-object-fill: rgba(255, 255, 0, 0.6);
    }

        text {
            font-family: Consolas, Courier;
            font-size: 20px;
        }
        text.default {
            fill: rgb(0, 0, 0);
            text-anchor: middle;
        }
        text.attribute {
            fill: rgb(27, 14, 139);
            text-anchor: start;
        }
        text.variable {
            fill: rgb(0, 0, 0);
            text-anchor: start;
        }
        text.id {
            cursor: auto;
            fill: rgb(150, 100, 28);
            text-anchor: middle;
        }
        text.type {
            fill: rgb(27, 14, 139);
            text-anchor: middle;
        }
        text.value {
            fill: rgb(27, 14, 139);
            text-anchor: middle;
        }
        path {
            stroke: rgb(0, 0, 0);
        }
        .highlighted path {
            fill: var(--highlight-object-fill) !important;
        }
    </style><g><title>Group of 1 objects</title><g role="graphics-object"><title>Str id20 with value "Highlight ID"</title><g id="object-0"><path d="M49.213741774493684 26.719302564549093 L249.64879550436626 24.841291402198415 L251.0614528055063 154.61526003731208 L51.07622164568052 155.6441331109495" stroke="none" stroke-width="0" fill="none"/><path d="M49.94983849922663 26.704413821490522 C126.82794575493324 25.167369370883396, 200.70549536412722 26.535554017414153, 249.8250580577771 25.427086042211258 M50.28123441307397 24.365475742806726 C96.96456458920778 25.11642868493294, 143.12588058166565 23.496633524306766, 249.8967980153707 24.38939630092706 M250.51849203321464 23.58203807551547 C251.33349874287038 60.15686148033239, 251.9210138953595 95.25485490211037, 251.84431625589394 155.9518463775974 M250.8910311140781 24.380643941546225 C249.1227807778641 59.00933466000699, 248.9840168481423 93.17025315083909, 250.9639575952614 155.0982029772023 M249.75954602988475 154.81131732237822 C176.14941500427307 156.929498447439, 98.91550523332376 156.68208409991604, 48.39411900305806 153.4153553387879 M249.49902727954807 154.39510941252627 C176.8038150438337 152.55512356127238, 102.66212242006445 153.26189344481122, 50.76203214031321 154.25555887770167 M49.00918361349848 156.34722488575937 C48.87716728016201 107.32147287903273, 49.0521068104737 60.88985389485204, 49.584593540754106 25.48429898949195 M49.037915791150155 154.796437656565 C49.256335126752575 120.2423791589818, 50.44072458956377 87.82742227155366, 50.724478674827566 24.847220294691184" stroke="rgb(0, 0, 0)" stroke-width="1" fill="none"/></g><g><path d="M42.04228472831515 19.72688101784068 L254.80733710453762 18.232072271321783 L255.08898936353995 161.18730807412507 L43.95600590739602 160.34211093785933" stroke="none" stroke-width="0" fill="none"/><path d="M42.686981755540465 19.720984150950017 C114.13125071592054 19.29295600302316, 182.2334852293405 20.55706747369375, 254.46832607123758 19.797088660833083 M43.158854868075764 18.783978365900204 C89.42388296742098 17.140119322634124, 135.09742908067014 17.040427004655257, 256.3341085343615 18.184050260322387 M256.92699899900504 19.012370180190022 C257.1105214919274 50.279934880291336, 255.12497267153663 79.47647566535231, 254.93697401204525 162.71091741605284 M256.6714163855846 19.456119219924258 C255.59241345354644 72.20509194524345, 255.821450289927 126.38269581020215, 256.9798811241755 161.87335368171034 M256.85317868816634 161.7194282646194 C179.7079473201523 164.21642750466557, 99.18539861565402 163.6206071468335, 45.58408788367949 160.80816283658595 M256.1391246076269 160.95174479461747 C209.99294510102658 162.51660153688488, 161.900168604725 161.76097999263413, 44.60942143766189 161.25787665582013 M45.536696786227104 159.54287302986853 C41.96426229985929 110.77429084320458, 41.44060039974476 61.24589247926396, 42.84591298976841 18.54126567145028 M44.14062013149079 161.71397979003447 C45.183210162161004 109.49202263151976, 45.50537862572519 58.05882834306336, 44.66273595549082 18.677962501821316" stroke="rgb(0, 0, 0)" stroke-width="1" fill="none"/></g><g><path d="M49.662368759793665 25.380773592337537 L112.54492814701106 24.95579067706466 L112.80896338127306 75.31704131008651 L50.056356807662524 74.99687996226845" stroke="none" stroke-width="0" fill="var(--highlight-box-fill)"/><path d="M50.175690194013185 25.111149786768923 C73.78038343487927 25.187695535983238, 97.72969036822518 25.263586964905347, 112.78117865140794 24.626937820635877 M49.85307027947046 24.83746341620401 C70.14652524477573 24.912889815596856, 90.63913411708016 24.897518113290676, 112.68927222284681 24.841126093053656 M113.09343260266188 25.344630820228115 C112.92390107369766 37.78061578690977, 112.81924448205656 50.32432051365964, 113.01368287966517 74.63889131120743 M112.67204048615726 25.064010691575017 C112.64608741943671 45.044544336465925, 112.85625190150208 64.81841953976283, 112.74043626341542 74.90614042954093 M112.68948923553289 74.98853767811681 C88.68382514645704 75.1156935592649, 63.9660988291591 75.28064748456596, 50.31652196816818 75.28924251111845 M112.9972352427981 75.06181246286835 C89.7058304508087 75.0727791414251, 66.66484548355426 74.85735344931182, 50.10982430672853 75.15351059842611 M49.830704002206986 75.07965007214624 C50.160062156492906 62.3733364274027, 49.74290885669546 50.266665502902285, 50.20165615714865 24.902213784240878 M49.9718585659112 74.96456695428488 C50.0553530683392 59.60906864644833, 49.911844491697906 44.41966961760798, 50.053048159449034 24.966838166957587" stroke="var(--highlight-box-line-color)" stroke-width="4" fill="none"/><text x="81.4" y="55" style="font-weight:bolder; font-size:22px; fill:var(--highlight-id-text-color); " class="id" aria-describedby="desc-0">id20<title id="desc-0">Object id</title></text></g><g><path d="M189.2903927049595 25.299366815822584 L248.73016258893412 25.98178482666772 L251.49533191297562 73.1659438237036 L191.29441834982563 75.7773434705341" stroke="none" stroke-width="0" fill="none"/><path d="M188.0952508678685 23.979684889212393 C205.0913578096754 25.55248429195835, 218.86915045900105 24.283988580856867, 249.62869892889046 26.015472232054016 M189.17582807430577 24.760790984807787 C204.22058650515604 24.552935387019755, 216.10391383979396 24.88607815180935, 250.31975535308186 24.85763631573055 M250.41999741732883 25.930360119324718 C250.4652158097352 42.98210964575952, 251.08332685672195 62.25716874216083, 249.2778542601382 74.89172281332122 M250.96549103653075 25.708700178880793 C250.86846575860716 41.38450725703928, 251.1865026151723 59.8719686934466, 249.10024218813413 75.69812848805184 M249.77516941110474 75.25532976527508 C225.1040445125808 76.53121144373536, 204.95367333183276 76.51588945763778, 191.06494220253504 74.10313240301237 M250.5827978554643 74.24657910252189 C226.35894523588328 75.50194122145345, 203.42688628542172 75.69826083957837, 189.70773067654255 75.5003033743349 M190.17792454987216 75.96618089210442 C189.38566826496717 63.11039775368448, 191.79732531519474 51.874846261750484, 188.96715177086386 26.97977701090064 M189.79044346577737 74.7396556754641 C189.11891768840698 63.53583941717982, 188.99853015352272 54.39354933079434, 190.00097135226477 24.92834240808741" stroke="rgb(0, 0, 0)" stroke-width="1" fill="none"/><text x="220" y="55" class="type" aria-describedby="desc-1">str<title id="desc-1">Object type</title></text></g><text x="150" y="115" class="value" aria-describedby="desc-2">"Highlight ID"<title id="desc-2">Value</title></text></g></g></svg>