<svg data-theme="dark" width="304" height="217" xmlns="http://www.w3.org/2000/svg"><title>Python memory model diagram showing objects</title><style>
        :root {
        --fade-text-color: rgb(0, 0, 0);
        --hide-text-color: white;

        --highlight-value-text-color: rgb(27, 14, 139);
        --highlight-id-text-color: rgb(150, 100, 28);

        --highlight-box-fill: yellow;
        --highlight-box-line-color: rgb(0, 0, 0);

        --fade-box-fill: rgb(247, 247, 247);
        --fade-box-line-color: gray;

        --hide-box-fill: white;

        --primitive-value-color: rgb(27, 14, 139);
        --id-text-color: rgb(150, 100, 28);
        --default-font-size: 20px;

        --highlight-object-fill: rgba(255, 255, 0, 0.6);
    }

        text {
            font-family: Consolas, Courier;
            font-size: 20px;
        }
        text.default {
            fill: rgb(0, 0, 0);
            text-anchor: middle;
        }
        text.attribute {
            fill: rgb(27, 14, 139);
            text-anchor: start;
        }
        text.variable {
            fill: rgb(0, 0, 0);
            text-anchor: start;
        }
        text.id {
            cursor: auto;
            fill: rgb(150, 100, 28);
            text-anchor: middle;
        }
        text.type {
            fill: rgb(27, 14, 139);
            text-anchor: middle;
        }
        text.value {
            fill: rgb(27, 14, 139);
            text-anchor: middle;
        }
        path {
            stroke: rgb(0, 0, 0);
        }
        .highlighted path {
            fill: var(--highlight-object-fill) !important;
        }
    
        [data-theme="dark"] {
            --highlight-value-text-color: #110875;
            --highlight-id-text-color: #6e4409;

            --fade-text-color: #BBBBBB;
            --hide-text-color: #121212;

            --highlight-box-fill: #EDB926;
            --highlight-box-line-color: #FFFFFF;

            --fade-box-fill: #2C2C2C;
            --fade-box-line-color: #666666;

            --hide-box-fill: #121212;

            --highlight-object-fill: rgba(72, 207, 173, 0.3);
        }
        [data-theme="dark"] text.default,
        [data-theme="dark"] text.variable {
            fill: rgb(224, 224, 224);
        }
        [data-theme="dark"] text.attribute,
        [data-theme="dark"] text.type,
        [data-theme="dark"] text.value {
            fill: rgb(144, 164, 237);
        }
        [data-theme="dark"] text.id {
            fill: rgb(255, 183, 77);
        }
        [data-theme="dark"] path {
            stroke: rgb(204, 204, 204);
        }
</style><g><title>Group of 1 objects</title><g role="graphics-object"><title>Str id21 with value "Highlight Type"</title><g id="object-0"><path d="M49.70916581476586 24.63107268473233 L265.6940952119006 23.329224737574528 L267.38059073900195 154.32651751055127 L50.10407652350404 155.5105006450393" stroke="none" stroke-width="0" fill="none"/><path d="M48.861796064801986 23.773153967187074 C120.5574970671912 24.95889012224634, 191.6312312249134 26.583776967956453, 266.3674949724414 23.40283306014337 M49.679966031110425 25.317634760723532 C109.27702612503258 23.200769894276583, 168.6647154716991 24.296995773267415, 267.0790510997231 24.173324883455482 M268.2186091386701 24.289004994461123 C265.76758371446374 74.01323993618541, 265.7425672863158 125.66397433068173, 265.2411392621292 156.46943159627347 M267.1990595699551 24.20063738947129 C265.9105643716655 55.50268525708871, 267.75182152615196 87.52068913583814, 266.0377662886423 154.65578388364156 M268.60055372114215 154.4311431497628 C199.22034446353916 153.21747908061047, 131.81133246722905 153.72992326436338, 49.139693667778374 156.49152331420174 M266.9555440801437 155.80349267701524 C207.20041555064012 156.57384096554787, 145.25791762336203 155.74531703671065, 50.05138286213768 154.83747426939237 M50.35925218118926 154.7698908142271 C51.373637541171426 122.89681082483675, 49.890906001461964 91.29368164962528, 51.38770904172724 23.8011478357963 M50.89726073419288 155.36998609344923 C49.986231015079746 126.45380885350976, 48.73011331761269 96.3763925637959, 50.484954613836244 24.646849737098783" stroke="rgb(0, 0, 0)" stroke-width="1" fill="none"/></g><g><path d="M44.37979047376969 17.2944920046297 L271.4362767068467 17.79489099220141 L274.45793245076754 160.96352699814926 L44.61418916222552 159.1147674876027" stroke="none" stroke-width="0" fill="none"/><path d="M44.343871533738835 20.6371348674347 C101.3817320518349 18.613234024061814, 155.97951281697772 18.030819565164634, 273.13799018807435 18.18350734346353 M43.28954961346076 19.118304593603973 C130.13086155510848 19.169629345594384, 214.7369076272683 18.333881332814762, 273.4201757101507 18.98812984661189 M274.2087850979732 19.39574013007002 C275.17524689434043 66.896293316583, 274.08834171039456 116.74855942352545, 274.8157154284081 161.64941314770547 M273.15515499235903 18.661992598705307 C272.91069247410235 72.50851645991379, 272.30631297293604 125.35827643962737, 272.7846128429903 161.27184940815476 M272.54168119604157 161.58588990899918 C217.56214477520948 162.96780419059908, 159.4872855524029 160.26596928325353, 43.896056465808435 160.1080104025314 M273.3122302629533 161.17740306134877 C218.94460938829818 162.19518649629313, 165.39573696123603 161.7478277513136, 44.135500985504024 160.2709270915504 M45.274613744457675 162.0962874051849 C46.24188231159106 108.63154183596028, 43.1143114908385 55.648995151012706, 45.810271973712226 17.12077537821836 M43.77821877303926 161.72278259758 C44.96089720644925 123.88523641305666, 44.74404189152932 84.13180223553412, 43.43576108058214 19.9183525852741" stroke="rgb(0, 0, 0)" stroke-width="1" fill="none"/></g><g><path d="M48.43428579526371 24.193394622737358 L111.39292886584239 24.106046116998755 L111.96238679155964 74.60029357151971 L51.12761656164435 73.41381058884427" stroke="none" stroke-width="0" fill="none"/><path d="M49.178263938737366 25.57761040663069 C66.63910437042256 26.836862773318366, 81.5206340620761 25.84548063422583, 110.37166397651794 26.996452708533567 M49.363759841460976 24.137501777692307 C67.79860476364301 25.96582679491567, 84.60842091706375 24.361339697884294, 110.02912992206481 24.816998904987347 M110.65120086667073 25.853446237602377 C111.29020065553188 37.414637858763754, 110.60496976656486 50.37606096466019, 109.74443797171253 75.77707416255414 M110.38032430147099 25.369149007432963 C110.70175474087061 37.449557373231904, 108.92559958690173 48.36433461852845, 110.37605306222731 75.00141650823122 M111.04836475148099 75.79955309915043 C88.1851867058486 75.03344008836632, 67.85651281495954 72.7225965262909, 49.20804075598573 74.64225634019773 M109.15785709005358 74.38505751268964 C90.17342008004563 74.25908569960775, 69.42346012895946 73.9732630020773, 49.75204683049257 74.57860468382252 M50.800403787792554 75.49510422887819 C49.781512822184425 60.02640076825508, 51.03251527795909 45.766931717997636, 49.49358783032621 25.62424552374487 M49.84747563134797 74.92207851174413 C49.404799780821875 56.730662563763175, 50.651224645192556 39.357274811967336, 50.921021731175756 25.475332803713812" stroke="rgb(0, 0, 0)" stroke-width="1" fill="none"/><text x="80" y="55" class="id" aria-describedby="desc-0">id21<title id="desc-0">Object id</title></text></g><g><path d="M206.61976119462778 24.617326462747354 L267.2834233140278 24.908504938150493 L266.9955817962486 74.99955867676381 L207.1909585700698 75.28390923444124" stroke="none" stroke-width="0" fill="var(--highlight-box-fill)"/><path d="M206.88898350365793 24.81536090201068 C228.6205041121204 25.33117143237084, 249.57430791197942 24.922385192715534, 266.6011733173847 24.970576861151866 M206.84490445857466 25.160797616559318 C224.84085248535717 24.85848545262085, 242.8671858772015 24.910747295886043, 266.87411913714 25.160594015442445 M267.36602236462153 24.700319130370854 C266.92293560092077 44.733486395201645, 267.3666460469858 65.14078402625626, 267.0132287655524 74.99507633728551 M267.11074064303574 25.01723931675618 C267.23110538043653 35.04403477829379, 267.0466253166648 45.39678919890052, 266.9632619155063 74.80893907616966 M267.3496527098148 74.81549185653948 C247.32130127781133 74.58496995501936, 227.90449029983012 75.2611874555805, 206.78045206514273 75.22233782809617 M267.1002564692389 75.09967126762103 C248.8714138598885 74.92847220428239, 230.48948042771997 74.98317910315495, 206.93824668912185 75.1258674134593 M206.7470015826675 74.63552176119063 C206.70574820013698 62.27708436585268, 206.65659932016737 49.19143438482387, 206.70922702760015 24.787041229351917 M206.9245528338598 74.90463647324697 C207.00850440785817 63.57903502993254, 206.80648454229774 52.1663394045842, 206.8002641876274 24.854012696636588" stroke="var(--highlight-box-line-color)" stroke-width="4" fill="none"/><text x="237" y="55" style="font-weight:bolder; font-size:22px; fill:var(--highlight-value-text-color); " class="type" aria-describedby="desc-1">str<title id="desc-1">Object type</title></text></g><text x="158.5" y="115" class="value" aria-describedby="desc-2">"Highlight Type"<title id="desc-2">Value</title></text></g></g></svg>