<svg width="287" height="217" xmlns="http://www.w3.org/2000/svg"><title>Python memory model diagram showing objects</title><style>
        :root {
        --fade-text-color: rgb(0, 0, 0);
        --hide-text-color: white;

        --highlight-value-text-color: rgb(27, 14, 139);
        --highlight-id-text-color: rgb(150, 100, 28);

        --highlight-box-fill: yellow;
        --highlight-box-line-color: rgb(0, 0, 0);

        --fade-box-fill: rgb(247, 247, 247);
        --fade-box-line-color: gray;

        --hide-box-fill: white;

        --primitive-value-color: rgb(27, 14, 139);
        --id-text-color: rgb(150, 100, 28);
        --default-font-size: 20px;

        --highlight-object-fill: rgba(255, 255, 0, 0.6);
    }

        text {
            font-family: Consolas, Courier;
            font-size: 20px;
        }
        text.default {
            fill: rgb(0, 0, 0);
            text-anchor: middle;
        }
        text.attribute {
            fill: rgb(27, 14, 139);
            text-anchor: start;
        }
        text.variable {
            fill: rgb(0, 0, 0);
            text-anchor: start;
        }
        text.id {
            cursor: auto;
            fill: rgb(150, 100, 28);
            text-anchor: middle;
        }
        text.type {
            fill: rgb(27, 14, 139);
            text-anchor: middle;
        }
        text.value {
            fill: rgb(27, 14, 139);
            text-anchor: middle;
        }
        path {
            stroke: rgb(0, 0, 0);
        }
        .highlighted path {
            fill: var(--highlight-object-fill) !important;
        }
    </style><g role="graphics-object"><title>Str id20 with value "Highlight ID"</title><g id="object-0"><path d="M50.67795511586933 24.049512727436486 L248.27149294532856 25.633499612569615 L249.40975231644094 154.17302166228592 L49.644926772320865 156.01811499052863" stroke="none" stroke-width="0" fill="none"/><path d="M51.12994686186039 24.864684960675138 C114.6394527371807 24.377936969348866, 174.9868165602648 26.976666748381, 250.4203408398697 24.12553466903532 M50.40327819469665 25.00019553735219 C100.27495278490723 24.525771100176566, 150.5088318673911 25.902250010929695, 250.04656151949774 24.910445572840203 M250.1290322633402 23.598007377874282 C251.04273655483252 49.94816097941312, 248.83989407144063 77.04060628861781, 251.73187970925923 154.92584700307424 M249.17519430667468 25.562286415713853 C250.52243361202093 57.9590041214893, 250.08175778558788 92.1005090180408, 249.24876643044666 154.90730507266642 M248.6151328971095 153.4889560613239 C173.49016158794478 157.4895196260053, 96.3483501930699 156.79956308993394, 49.66540130811302 153.48428444956457 M249.94663271659402 155.0408532337593 C208.9057137591119 154.84394526054373, 169.1257553068794 154.64593953017868, 49.42273443113152 154.35042936165243 M49.4002491829139 156.3021743339249 C52.408127175899445 126.69654468615768, 52.572954261807986 95.69662183127997, 49.911103245574424 23.177823152427763 M50.06038157753909 155.16913296051405 C50.27219137816835 109.67099155815212, 51.71514631545394 65.15811173744893, 49.19784805259498 24.74544461555569" stroke="rgb(0, 0, 0)" stroke-width="1" fill="none"/></g><g><path d="M45.07684974906775 18.559609399146336 L256.0467296350286 19.4205810945096 L257.08905595101743 159.2224070157544 L43.68171817094746 162.93621712632302" stroke="none" stroke-width="0" fill="none"/><path d="M42.93219541216628 17.39709309722934 C106.25294556160026 20.681952754773206, 167.87462628561244 19.240863415158458, 256.47619086402904 19.135960812521173 M43.434428778897846 18.30809147807235 C94.32123197534443 19.703811023960313, 143.18182680334107 19.208920878064795, 256.86486115656425 19.588436995933357 M256.81010871196094 20.607862150194613 C255.33376085051438 65.65805061245698, 256.18078801675256 112.14816252233152, 254.31182789257406 160.9995710533155 M256.4847857383417 19.927020561926355 C255.58251630135564 56.65925071466683, 254.3844315731095 93.00667302214285, 255.88053293731642 161.91342191702188 M254.9597111235259 159.71415075508733 C195.7241000220979 159.73959234909165, 136.59972799746086 159.4699291069528, 43.35883796881027 161.24899983245012 M255.29365709417146 161.67997758639183 C207.88287194001754 159.87693155926237, 160.44458309429535 158.84573944340502, 43.80451433288888 161.6962734665536 M42.44923338672693 160.93084749108831 C46.14755985915002 122.18846566229094, 46.24728441501135 87.18279577743719, 45.80429533962076 20.629921676108964 M44.20275427265824 161.62019283775786 C44.09140691103707 121.56004361498532, 44.36030450418802 83.74061458381732, 43.01139646697916 18.744146496626712" stroke="rgb(0, 0, 0)" stroke-width="1" fill="none"/></g><text x="150" y="115" class="value">"Highlight ID"</text><g><path d="M49.93106053875221 24.919961428365774 L112.5875271989287 25.2079454037998 L112.53094185271533 74.82069289011923 L50.107909660783726 74.64938344204249" stroke="none" stroke-width="0" fill="var(--highlight-box-fill)"/><path d="M50.079733924122706 25.24679252882318 C71.09703595200097 24.89476742507615, 92.95158936548168 24.89026789967696, 112.86480745025369 24.946822803205812 M50.1182300277943 25.109482741559063 C74.15809772177344 24.810258859350103, 98.58703677446911 24.977561994435636, 112.72212422795515 24.817616140277618 M112.50351560536045 25.083772534483927 C112.76125779612305 37.72239010829194, 113.12960467876931 50.39574043885545, 112.71553163209514 74.98756640942237 M112.65765639728178 24.924581786970272 C112.59213736110999 37.45107144916057, 112.95965655507887 49.81991182454319, 112.679607225022 74.92682920145414 M112.88079453121155 74.62679908850387 C96.32830626838603 75.13394948790078, 80.05907861404866 75.09708726479688, 49.881788553678405 75.2307063319896 M112.7854347459187 74.97661020679139 C93.75839719753124 75.04455650086628, 74.94295860303288 75.17489154703166, 50.19126734521113 75.1909153492081 M49.74339685504366 75.14952612570202 C49.64874045396154 56.43218564905174, 49.94119784691018 37.62553158530619, 50.393162750799696 25.063321765634345 M49.98221628741479 74.95046004321513 C49.87334217979366 58.88669827844583, 50.03498917676512 42.969279379774264, 50.00619705586951 25.076286862245528" stroke="var(--highlight-box-line-color)" stroke-width="4" fill="none"/></g><g><path d="M189.29672769190634 23.413994935946686 L248.2553731666075 24.93249532866258 L250.48600194775355 73.22570415357207 L188.48103311589693 73.25340986355896" stroke="none" stroke-width="0" fill="none"/><path d="M190.5523852875008 25.098749617168448 C211.52293630798403 24.4871443006547, 230.24147673720233 23.48600081465692, 248.67858012351422 23.53835689654173 M189.04744044804227 24.925907744399115 C202.79514333584484 23.684484451811784, 216.09902791021656 25.322803059893378, 249.21149849814907 25.43709357967998 M251.88727116901632 23.211789706048904 C248.73642032190972 35.79162575731391, 248.58196441648414 45.98150769855919, 248.8819360973202 75.46705389326927 M250.12373464596556 25.073622824103385 C250.7049258509892 37.67113163780313, 250.9309802919367 49.87311529510246, 250.2088338372388 74.09286982972927 M251.4337590752513 75.68627407783897 C230.84565547817897 72.99796619033906, 212.15615359810002 75.2460421517088, 189.59204529425486 74.0346516214647 M249.92124234376692 74.7478156008143 C233.29800706361956 75.07648836508285, 216.19628020474548 74.96147213108193, 189.08396925951513 75.40792011986537 M190.19313996996644 74.4356017465413 C190.09325128692626 56.37945300099907, 188.27555596948082 37.43951759032034, 191.42706198051553 25.38680144666231 M189.12958534985438 74.6607918821855 C189.83248017144783 61.39204603083022, 190.92726267343994 46.48106191179842, 189.54870842104498 24.049327927676128" stroke="rgb(0, 0, 0)" stroke-width="1" fill="none"/></g><text x="81.4" y="55" style="font-weight:bolder; font-size:22px; fill:var(--highlight-id-text-color); " class="id">id20</text><text x="220" y="55" class="type">str</text></g></svg>