<svg width="291" height="205" xmlns="http://www.w3.org/2000/svg"><style>
        :root {
        --fade-text-color: rgb(0, 0, 0);
        --hide-text-color: white;

        --highlight-value-text-color: rgb(27, 14, 139);
        --highlight-id-text-color: rgb(150, 100, 28);

        --highlight-box-fill: yellow;
        --highlight-box-line-color: rgb(0, 0, 0);

        --fade-box-fill: rgb(247, 247, 247);
        --fade-box-line-color: gray;

        --hide-box-fill: white;

        --primitive-value-color: rgb(27, 14, 139);
        --id-text-color: rgb(150, 100, 28);
        --default-font-size: 20px;

        --highlight-object-fill: rgba(255, 255, 0, 0.6);
    }

        text {
            font-family: Consolas, Courier;
            font-size: 20px;
        }
        text.default {
            fill: rgb(0, 0, 0);
            text-anchor: middle;
        }
        text.attribute {
            fill: rgb(27, 14, 139);
            text-anchor: start;
        }
        text.variable {
            fill: rgb(0, 0, 0);
            text-anchor: start;
        }
        text.id {
            cursor: auto;
            fill: rgb(150, 100, 28);
            text-anchor: middle;
        }
        text.type {
            fill: rgb(27, 14, 139);
            text-anchor: middle;
        }
        text.value {
            fill: rgb(27, 14, 139);
            text-anchor: middle;
        }
        path {
            stroke: rgb(0, 0, 0);
        }
        .highlighted path {
            fill: var(--highlight-object-fill) !important;
        }
    </style><g id="object-0"><path d="M51.9390279984005 23.721183168727375 L266.28298723722975 23.031296130700547 L265.97168871420473 156.11990963595065 L49.57644646888821 156.666959900233" stroke="none" stroke-width="0" fill="none"/><path d="M51.183681873658024 26.390601521001276 C125.50034130658781 24.307128008206412, 202.1076850299187 23.679595476999246, 266.40780965963444 26.024056673136823 M49.189614290125725 25.622796319297876 C99.52564947779612 25.359532804385278, 148.75538394781842 25.05207222590563, 265.25170204624163 24.15223499563871 M266.1306625732962 23.05306271279947 C265.78551563435065 69.37893321652743, 267.37390729582114 111.82944924805949, 266.3819344827777 154.29885168098926 M265.1529604366668 25.372230094852295 C264.7872106355969 68.50336835553274, 264.65931278807454 112.02754944260342, 266.5164555707974 154.35406777565396 M265.6555988451717 153.27993187424545 C197.70901818739935 155.16820607168123, 131.29073534222968 155.20074937561793, 48.50777837367076 154.7802292777731 M265.4012223881282 155.8590717459269 C210.44557922253333 155.21399149241213, 153.33397147308878 155.72128551384228, 49.237472718991654 155.1952394139342 M49.16662896319026 153.39622527454625 C48.81684979493929 124.26407122819715, 49.759972279864 94.33192593764305, 48.99647938233825 24.76118709538098 M49.2647236555768 154.87587476374426 C50.87658047758605 107.64618420262872, 50.75757271168278 61.43466253706497, 50.798866371780825 24.841708727239478" stroke="rgb(0, 0, 0)" stroke-width="1" fill="none"/></g><g><path d="M74.35538798112657 88.04784544822607 L124.42565396157839 89.7528730185964 L123.87039189906812 139.06813526857803 L75.21797799711715 141.9281350128147" stroke="none" stroke-width="0" fill="none"/><path d="M76.74896620624219 89.08721693167269 C91.71986435757249 89.41265601981932, 112.09837807275406 89.95322543190694, 124.1262260714331 90.23409544506488 M74.24591912604295 89.65371639044916 C89.40377278239569 90.3506317511278, 106.57094445362215 90.66535045947151, 124.28244383551612 90.02457219266878 M124.98821670436006 91.42817887905736 C125.60200056085175 106.4267012812702, 122.78869561264561 124.57783353874417, 125.96511973685216 138.65353342942606 M125.7634240142322 90.65527511374292 C125.18611917023054 106.99459963432787, 125.06466261805768 124.40262801582625, 124.30678452523267 139.18319105325023 M125.62264074561708 138.9933240008697 C111.76121628567209 141.87979130050365, 100.97405386854757 141.50745639743027, 76.39500558357159 140.163824351129 M124.10508337330734 139.57027217690407 C108.14453707249022 140.4774783744338, 90.18450219996907 139.88336891412249, 74.45739918419332 140.11775704288277 M73.36663669350308 140.4188928417273 C76.66057498876461 122.38397893656797, 75.64820404851017 101.96265223848617, 74.61643758503465 88.733913339244 M75.08764741412804 139.7903661021852 C76.03877574911085 124.20147982714158, 75.99607956154952 108.57947672045024, 75.4055650210071 89.94426855311536" stroke="rgb(0, 0, 0)" stroke-width="1" fill="none"/></g><text x="100" y="120" class="id"></text><g><path d="M123.0597818221497 91.94668054526478 L181.90558756643637 89.68823321430811 L184.28910328350068 138.30022510462788 L124.42727022418914 138.94271204664093" stroke="none" stroke-width="0" fill="none"/><path d="M125.88327446086028 88.2914006625384 C145.1718337592089 87.89794487969135, 165.79303008559864 89.65046750758165, 183.3599878017431 88.93791063545508 M125.78734855590208 89.22005081238281 C141.64597724939608 90.28611109423875, 157.69739129788388 88.46664741497891, 182.40015994130502 89.38438654268843 M182.7933264674968 91.91210120197093 C180.63436880503244 102.21583831226658, 181.2184304223139 114.5427327444484, 182.85050085341783 141.40716046601327 M183.54877147944697 89.58164540887388 C182.6605081919902 107.50050748894081, 183.1050572431469 125.53922809100763, 182.78130040017143 140.9265735397856 M184.17988713086984 138.33246181374528 C172.11732020104944 141.4287598420133, 157.82438415426645 137.98999211322086, 124.89588687667802 141.69246125739224 M182.33725610030348 139.61708034013031 C167.7429990640846 141.26988275391318, 151.50073758298677 139.53065998315583, 124.36532970256192 139.8009394702834 M125.95501059896839 139.8620245205213 C124.3574964751466 122.15555863795491, 124.7829580433833 107.32667250240638, 124.84576198809786 90.5467065436073 M125.05346187327297 140.14174820011883 C125.56014204918522 125.09141402900599, 124.85435315192322 109.42733815597671, 125.14269170668587 89.00733588219438" stroke="rgb(0, 0, 0)" stroke-width="1" fill="none"/></g><text x="154" y="120" style="font-style:italic; " class="id">id10</text><g><path d="M181.38604379038384 88.33694499181702 L239.05651381374338 90.27867867023978 L242.81621713648647 139.7250023103514 L181.6880973397279 141.3746397897303" stroke="none" stroke-width="0" fill="red"/><path d="M182.4304244387365 88.90530116292742 C193.1466734896314 91.13761034792212, 206.43804235559278 92.25598923739071, 242.06743977408905 88.19519577846135 M183.59340500562135 89.20430508048366 C202.35626600326748 90.70467682297543, 221.35907542443948 90.49337302527056, 241.67550868370836 90.3038720652447 M241.01960513250873 91.61671733136704 C242.19372660344598 104.44143485824647, 241.44354103678958 119.02915157122285, 239.7067215046328 140.62214721620032 M241.10272342485456 89.33447564344253 C242.31969073911313 108.92587173074679, 240.4512351715404 128.59748810524786, 240.67319030102152 140.0396092580721 M241.24531431720274 141.40108599759114 C223.50752045414575 138.04619543689594, 202.19700092379114 141.53772432448926, 181.64189909917405 138.48206843495134 M241.88956119285692 139.31468967332395 C225.9280696437106 140.52520321221232, 211.90090866732035 141.28992633230058, 182.07600642064918 140.14262920630176 M181.33249235912945 141.12785532932472 C182.30039393502705 123.41362558907767, 184.04005244950696 103.15107187084386, 184.22515062470436 89.16203334188512 M183.77415496514013 139.5104154983736 C182.29833515230928 123.68642753940262, 183.5339411333562 107.40790362702093, 182.57265958614317 90.62624771923545" stroke="#000" stroke-width="1" fill="none"/></g><text x="212" y="120" class="id">id20</text><g><path d="M48.188930224045734 25.71988659710727 L109.71181669746713 23.91572569502496 L110.48065556928113 74.2593545704231 L51.22462797207405 75.31275322100113" stroke="none" stroke-width="0" fill="none"/><path d="M50.64170234419569 23.94225997980218 C73.02937641395694 25.900733346065472, 92.33963265877438 25.91273153514459, 111.35100517909723 23.53332956395149 M50.94865433052595 24.224587243558183 C69.27727556629983 25.092673397528483, 88.02564911266279 24.21450710296199, 109.8937465718682 24.745465854628176 M111.45362514379006 24.843036057367886 C109.7956029097095 42.468007010934585, 108.20552063145865 54.7327888891782, 110.64709695161208 75.49063116737422 M109.24078128504112 25.03597912444723 C108.8581130647562 37.46848252452107, 109.11271051399153 48.53265258734556, 110.51593226017901 74.61433928444318 M108.45955928827534 75.2160210129396 C88.13244353650677 76.58712771639156, 67.09790868637151 75.78274311705279, 50.916024301209916 76.02106466709529 M110.04887808626077 74.03708773360559 C90.69448661267468 75.98043380332204, 70.19573015794376 75.66299372754654, 50.38019534418449 75.63519687662212 M51.14464141556685 76.86966522767418 C47.86052670647501 57.578907481977254, 49.73049100789241 42.025304721962414, 50.1263238081514 23.254613715468412 M49.31077090771583 74.7087499447788 C50.459163349119876 62.80650145875438, 51.19943567236638 51.48792210090687, 49.674264997909475 24.49930110675294" stroke="rgb(0, 0, 0)" stroke-width="1" fill="none"/></g><g><path d="M207.7638136429616 24.691970342459076 L267.33086933480695 23.192922929747922 L265.8907511838939 74.42999514727833 L207.1248826486488 75.70332774793513" stroke="none" stroke-width="0" fill="none"/><path d="M204.72345067163673 26.347688897773264 C217.98269782918408 26.260065666544314, 233.23224839367742 23.223637820985143, 264.3380225777443 23.00791789247793 M206.2413595932775 25.58994674576892 C223.65538012183097 24.66691960353105, 239.26707180901505 24.653573556541694, 266.75769841866645 24.727385476245132 M267.638763603077 24.570635395030177 C264.1137660701575 39.06590231216222, 266.5804789379948 53.96548743449395, 264.8687675191256 73.35339290177227 M265.708401255862 25.051469486051303 C266.3808560117721 38.68825360279942, 265.38358207176867 51.50077670379647, 265.004196938218 74.23364145291343 M265.6118781171465 73.99972238396863 C247.3471322733855 74.40469137527725, 232.043472409539 74.01553486924111, 204.0145309643294 75.68823985450224 M265.1342741141069 75.25435764072817 C249.91219022374457 76.1458379461082, 235.79522539209825 74.81172339178985, 206.96105464413 75.1889460710249 M205.5424472193325 75.95903759700097 C205.18025168945584 61.296798030563025, 206.77882867973744 46.509089334478155, 207.2128745919466 23.561033682017154 M205.25627389657842 74.12549757514125 C206.20557024186257 64.00383593858396, 206.5803859553872 52.62638346213032, 206.7462253783287 24.75384851721958" stroke="rgb(0, 0, 0)" stroke-width="1" fill="none"/></g><text x="80" y="55" class="id">id32</text><text x="236" y="55" class="type">list</text></svg>