<svg width="291" height="205" xmlns="http://www.w3.org/2000/svg"><title>Python memory model diagram showing objects</title><style>
        :root {
        --fade-text-color: rgb(0, 0, 0);
        --hide-text-color: white;

        --highlight-value-text-color: rgb(27, 14, 139);
        --highlight-id-text-color: rgb(150, 100, 28);

        --highlight-box-fill: yellow;
        --highlight-box-line-color: rgb(0, 0, 0);

        --fade-box-fill: rgb(247, 247, 247);
        --fade-box-line-color: gray;

        --hide-box-fill: white;

        --primitive-value-color: rgb(27, 14, 139);
        --id-text-color: rgb(150, 100, 28);
        --default-font-size: 20px;

        --highlight-object-fill: rgba(255, 255, 0, 0.6);
    }

        text {
            font-family: Consolas, Courier;
            font-size: 20px;
        }
        text.default {
            fill: rgb(0, 0, 0);
            text-anchor: middle;
        }
        text.attribute {
            fill: rgb(27, 14, 139);
            text-anchor: start;
        }
        text.variable {
            fill: rgb(0, 0, 0);
            text-anchor: start;
        }
        text.id {
            cursor: auto;
            fill: rgb(150, 100, 28);
            text-anchor: middle;
        }
        text.type {
            fill: rgb(27, 14, 139);
            text-anchor: middle;
        }
        text.value {
            fill: rgb(27, 14, 139);
            text-anchor: middle;
        }
        path {
            stroke: rgb(0, 0, 0);
        }
        .highlighted path {
            fill: var(--highlight-object-fill) !important;
        }
    </style><g role="graphics-object"><title>List id32 with 3 elements</title><desc>Elements: blank, id10, id20</desc><g id="object-0"><path d="M51.81635592260584 23.31235721226664 L266.3116304654629 26.805818773097634 L265.1860195016836 155.73461060126075 L49.03635103761563 155.88504235065696" stroke="none" stroke-width="0" fill="none"/><path d="M50.47818920167105 23.26075710908107 C98.44463405626148 24.32748338756732, 145.0989982540108 22.182447505244284, 264.72349449787816 25.905928208904733 M49.29315708038612 25.23183520402145 C111.2075319929842 24.24838238327565, 172.79569515356766 23.94085131357555, 265.42340143984796 24.951859025124573 M265.26872430565163 26.325687069280875 C264.7909396889959 74.1058299171411, 265.412016549978 125.01426522578086, 265.27041347425023 156.76971020519346 M265.0155166630426 24.14792081249425 C264.8040925133903 67.34623449826724, 264.7125614736015 111.99625103209652, 265.93807598841624 154.61133611663269 M265.9932717322349 154.5049869368923 C193.58469548880484 154.03111825626047, 125.66987917807812 154.5970976374263, 48.40543715369183 154.82943543976123 M266.28761238715197 154.79948829229525 C192.01541996546212 152.67465462642585, 117.42285782728456 152.4371992556111, 49.54343495490174 155.0856741623281 M51.295611464616286 154.72578787846413 C47.97556483149543 105.31188156810455, 48.66143099140668 59.01551957668538, 51.7347580268502 23.81808239668607 M50.483457471036694 155.54339853282406 C47.9372591820734 113.32657623550656, 49.6833113812796 69.01663395158464, 50.829875990793525 24.833299789544384" stroke="rgb(0, 0, 0)" stroke-width="1" fill="none"/></g><g><path d="M75.28998564528975 91.65834444435302 L124.05385123914492 89.7614044433763 L124.95107808539599 139.12230219639167 L74.67411199241909 141.7548431693005" stroke="none" stroke-width="0" fill="none"/><path d="M76.81061002068401 89.2560249167122 C89.56375895273321 88.22317505197732, 99.45454902581564 88.08570556794882, 125.26400271322156 91.38711419630556 M74.39181069757242 90.97815566644478 C88.21651788250225 90.51971434196781, 102.38549547941118 89.33430350270453, 124.16804842231181 89.03788386718905 M125.23731990637842 90.01544954443871 C124.42859959770527 101.67704147566113, 124.77274206917619 113.38245345794404, 126.11930224691558 141.00823827677164 M125.78576033186037 89.65911595347298 C124.06046033318495 105.06470652974679, 125.68736282431996 118.32883739181196, 124.90098401953948 140.8220915743809 M125.65240666713325 138.25440732782346 C114.70371228333613 138.45817321669068, 100.7861571142312 139.50871509373707, 74.4080771200815 139.75555863776324 M125.96877806543775 139.8229212184499 C115.37715735444661 140.83502030921, 103.14996422054915 138.86919868379192, 74.38386158536787 140.40934241457418 M73.03343441356655 141.8338718670226 C74.05746399861266 129.9395438502521, 72.66057523348154 117.81894443776547, 75.71553663209662 89.05014100774622 M74.49032838322181 140.58503748540946 C75.24863830422014 123.39859520860155, 74.36717258753627 105.67030933114422, 74.60764342934353 89.3013590209485" stroke="rgb(0, 0, 0)" stroke-width="1" fill="none"/></g><text x="100" y="120" class="id"></text><g><path d="M125.28188177574127 90.73804420458269 L181.30535420540193 88.78835275538543 L182.888382600896 138.7503187557013 L126.41440228067083 141.11056717778652" stroke="none" stroke-width="0" fill="none"/><path d="M125.53037980373803 91.08209005659964 C145.97744616262239 91.77903460454705, 170.04754847373187 90.65645090647472, 181.06033538377986 90.9077521211952 M125.4826162969249 89.60538504111504 C148.20314968769662 90.37929946610521, 170.1954030647085 89.67601066504768, 183.13427258535262 89.86038229491706 M183.8860212665607 89.92450993747143 C184.8690127516052 102.6575673471582, 184.59408331895824 115.58538259234075, 182.91917370838553 140.37187320289348 M183.00712529544685 89.3644124145682 C183.52988869807808 104.24555776905585, 184.07841820004504 116.90873027155305, 182.37801085229015 139.81755895408446 M182.1000083851691 139.8095496415888 C162.81636525319757 138.5441670618779, 140.95635345986764 141.99129473139078, 123.21889503437913 138.6518568360034 M183.46090461323524 140.11994918926942 C165.723881799551 139.38686477113643, 148.0341099440664 140.17059048527113, 124.51453589537769 140.61870192835866 M124.64968966270149 139.63405337306702 C125.14377608354033 127.58497060002902, 124.59544514820566 114.43145398889492, 124.46236004862719 90.68968706886024 M124.78648345080668 140.36747624924877 C125.25847483747934 125.00438309536825, 125.59881970477475 109.11675756020063, 125.25040748432248 90.71885784836113" stroke="rgb(0, 0, 0)" stroke-width="1" fill="none"/></g><text x="154" y="120" style="font-style:italic; " class="id">id10</text><g><path d="M181.35759017820988 89.68237243844597 L242.3748524984446 88.54522591586866 L241.19941209601706 138.86988430013054 L184.01466869492324 139.87479996798155" stroke="none" stroke-width="0" fill="red"/><path d="M182.49202314052386 88.39214690299502 C194.51587135517 91.01072570069323, 207.094578759039 88.6135208534626, 239.20041569007262 88.30908410321673 M183.34804234476914 90.63824421120474 C198.38050402037496 90.07137746871864, 214.6063766377339 90.7778998597273, 240.3148794006735 89.14516747473581 M239.6607348411553 88.20875805163776 C242.52573102643112 98.83204527493523, 238.9947319107894 112.66662118558976, 239.6080235409153 141.32318911257238 M240.89882995702757 90.93305835141977 C240.84738982375762 104.79577720682688, 241.0224783463293 119.90300405557956, 240.68351134732077 139.77359187853344 M240.14996513768364 138.10635227010366 C225.52549139680715 141.81119877015078, 210.6281214871045 139.710906013808, 181.7256948021358 139.1997348014713 M241.02018896417997 139.75815531186424 C228.7877687531497 139.2982896318333, 217.84369507927397 139.32981699030842, 182.37415449118626 140.37842435853332 M181.2181631374318 140.4331370241972 C182.99641369798786 124.08556103902278, 182.77038531174938 109.7825085938167, 182.26048112946194 90.67701131212648 M183.94711698252806 139.82107809575655 C183.58196675672818 125.01467783686415, 182.10178998013538 108.25731242467295, 182.31179102032797 90.53184359840908" stroke="#000" stroke-width="1" fill="none"/></g><text x="212" y="120" class="id">id20</text><g><path d="M48.780596188097356 23.24201077665971 L111.31570287558287 25.848852837651645 L108.93762319981643 73.88470683024804 L48.56674486556232 75.14973334467278" stroke="none" stroke-width="0" fill="none"/><path d="M48.081800224633476 26.466949507621983 C64.3283594509436 23.57098784608717, 79.81558308435152 23.60893838309896, 109.13574213316247 26.424097854454565 M49.83084919756506 24.68845743597311 C67.54838825086614 25.424452615716532, 86.77001869066797 23.852289324963735, 110.5712933693606 24.566841053634676 M111.43972248071907 23.457220920263453 C111.29232044125257 42.41417655177054, 110.0354455769993 56.60641063778727, 108.15982343198482 74.78984111748679 M109.68403889766451 25.69596701496943 C109.97710992457435 34.81079360495228, 110.85191588327338 46.738914986647664, 109.8099241459484 75.66877733627952 M109.57194909338467 73.93802171599782 C97.52733752223054 73.33322031881369, 85.44574043832598 73.94602564593501, 51.471424780799396 74.83174367001544 M110.64988755162416 75.082102551714 C92.18819636042488 74.7066265127328, 73.01332073540352 73.82720858984526, 49.972387349543084 74.77252786929287 M49.87197360906131 75.83960754728565 C51.97596084939391 55.523958439374184, 52.31445085665995 36.655419362380975, 48.10459512399912 23.9306059346664 M49.9665636748561 75.41183438688542 C49.499896237300085 63.651718584364964, 49.805668892891404 50.80673970900536, 50.425415380829335 24.725873408996005" stroke="rgb(0, 0, 0)" stroke-width="1" fill="none"/></g><g><path d="M206.462682654023 25.66026308576787 L264.96750595087957 25.847358766137106 L267.59337541118407 75.96528192986422 L207.9961193352844 75.59193797390004" stroke="none" stroke-width="0" fill="none"/><path d="M207.60951535077652 23.554769187320773 C219.76015017195832 23.203758267151965, 235.48315842428605 26.767421227285496, 267.533983533073 25.974659279227513 M206.1519370749967 24.139157793729538 C220.48638192489955 24.772851373381414, 233.9658376976579 24.39116669942609, 266.8720076019325 25.71188212535582 M265.8131933792393 25.133220387413484 C264.8958264628607 42.66021960050642, 266.62614950807495 58.23262589081527, 265.0966207003213 73.8686853492683 M266.1402975729912 24.226075348189454 C264.59325411077424 36.094780471819696, 264.7511317059953 49.38747136701284, 266.4523757338231 74.80489471999267 M264.7033524560103 76.81401507951448 C250.06860495506035 73.26868763884166, 235.78962156648714 75.04219412468326, 207.5210372922362 76.69419362580858 M265.9885636500732 75.08467987661213 C243.2324085489173 75.79196861222223, 221.98862313476633 75.1269805006087, 205.50567695517492 75.20901144026602 M205.38781875546906 73.50206641042804 C207.1672614090167 61.11978033437717, 205.78209033056297 45.90903249859426, 204.3328166544774 23.17739221710299 M205.52671617569425 74.17675456118188 C206.23157243665995 64.59696777344975, 206.8292008537327 54.87935554717256, 205.977874836499 24.45975172754855" stroke="rgb(0, 0, 0)" stroke-width="1" fill="none"/></g><text x="80" y="55" class="id">id32</text><text x="236" y="55" class="type">list</text></g></svg>