<svg width="291" height="205" xmlns="http://www.w3.org/2000/svg"><title>Python memory model diagram showing objects</title><style>
        :root {
        --fade-text-color: rgb(0, 0, 0);
        --hide-text-color: white;

        --highlight-value-text-color: rgb(27, 14, 139);
        --highlight-id-text-color: rgb(150, 100, 28);

        --highlight-box-fill: yellow;
        --highlight-box-line-color: rgb(0, 0, 0);

        --fade-box-fill: rgb(247, 247, 247);
        --fade-box-line-color: gray;

        --hide-box-fill: white;

        --primitive-value-color: rgb(27, 14, 139);
        --id-text-color: rgb(150, 100, 28);
        --default-font-size: 20px;

        --highlight-object-fill: rgba(255, 255, 0, 0.6);
    }

        text {
            font-family: Consolas, Courier;
            font-size: 20px;
        }
        text.default {
            fill: rgb(0, 0, 0);
            text-anchor: middle;
        }
        text.attribute {
            fill: rgb(27, 14, 139);
            text-anchor: start;
        }
        text.variable {
            fill: rgb(0, 0, 0);
            text-anchor: start;
        }
        text.id {
            cursor: auto;
            fill: rgb(150, 100, 28);
            text-anchor: middle;
        }
        text.type {
            fill: rgb(27, 14, 139);
            text-anchor: middle;
        }
        text.value {
            fill: rgb(27, 14, 139);
            text-anchor: middle;
        }
        path {
            stroke: rgb(0, 0, 0);
        }
        .highlighted path {
            fill: var(--highlight-object-fill) !important;
        }
    </style><g role="graphics-object"><title>List id32 with 3 elements</title><desc>Elements: blank, id10, id20</desc><g id="object-0"><path d="M49.807547287197494 24.93047187507324 L264.458446542654 25.644032388780296 L266.6821799870263 156.8174156971476 L51.76242241114935 154.67432948891093" stroke="none" stroke-width="0" fill="none"/><path d="M51.64254298408255 23.429762042193087 C96.44007518942836 23.510493819240033, 143.24585536556438 24.608033298250028, 264.63326261596006 24.474217174402554 M50.75622710419347 25.71971596544659 C99.49115658471449 24.603812813203135, 150.63207342392877 24.369722573298667, 265.44015113088244 25.259619773539075 M267.375697935424 25.809271510712797 C267.06290873113494 76.46322605609915, 265.11263784815276 126.58354807865875, 264.79215101293926 153.33407184774586 M265.58010606175526 24.202169982826963 C266.3194997433346 58.03889135931977, 266.29589928958785 92.15358465000807, 266.4360583542425 154.55935330153352 M266.1723728237768 154.4878723093425 C213.57634029902226 156.714387228776, 161.83917870457574 157.3351272143332, 49.23842327512944 154.8598002461728 M266.6471616311111 154.87926480262186 C204.59113315729536 154.48422459008532, 141.88553389556978 155.3269479632034, 49.41203712973265 154.84002194889857 M51.39860144005177 153.66778246800996 C48.93737645626235 126.27354799770471, 50.21536266953575 94.8443266519965, 50.81400615869901 25.817341681837856 M50.83259803991432 155.95294978017847 C49.55318355690762 118.60862226036609, 49.80130544024986 83.68704757118844, 50.80597520054351 25.96909986143435" stroke="rgb(0, 0, 0)" stroke-width="1" fill="none"/></g><g><path d="M48.06959791404303 25.26313632489728 L110.33826780509182 24.87495968221821 L111.18275507151917 75.89592791555084 L51.892816327101116 76.19764926438381" stroke="none" stroke-width="0" fill="none"/><path d="M50.528695069351755 23.044071135812615 C64.27226033640746 23.83324400515752, 79.8883240866093 24.074271286913767, 110.17265184319143 23.96427914992487 M49.25945192798697 24.567370819398874 C67.18580271548235 24.68210769111321, 85.1094773193078 24.552877394261717, 110.54696877471865 24.532795428566757 M108.06548251040914 23.06676545176846 C109.85721906198573 36.490525611142616, 111.35335445520228 50.3802064690906, 108.6746959997615 75.62891841560653 M110.2818517702654 25.93547742848356 C110.52187066139443 41.499623652666784, 110.08914038401393 58.61659615408074, 110.53482104124878 75.52962075169623 M110.02221289513545 76.61887097154771 C96.21765894412428 76.35187205772482, 85.05525285588921 74.85684700619885, 48.82790769472498 73.62147928256888 M109.04465798446192 74.54981235622033 C92.24949862019793 75.35102453318821, 74.16987240902266 74.16268439890837, 49.019310910517895 75.04243627658465 M49.47323186286848 74.71412445455395 C51.13153072230924 63.005297491772325, 51.43648281494918 46.34175908889068, 48.055268274994354 24.13698452378452 M50.1107761591956 75.22465280285715 C49.822473913618005 60.56077037440093, 50.97688415107619 48.25865310121401, 49.32789977236777 24.57888959380214" stroke="rgb(0, 0, 0)" stroke-width="1" fill="none"/><text x="80" y="55" class="id" aria-describedby="desc-0">id32<title id="desc-0">Object id: id32</title></text></g><g><path d="M206.24908777667483 25.871949295577643 L264.7189922746979 25.960822650607465 L266.8989454115944 75.45968751910401 L206.2364080767332 75.41178585600893" stroke="none" stroke-width="0" fill="none"/><path d="M205.28542128375676 26.402091867790787 C221.07763601452237 26.632906203618347, 234.036576884197 25.105809513130772, 266.52860680508485 23.298975834595655 M206.82841053999798 25.576061500572205 C223.09510341077888 25.2511784886521, 238.99447313041114 25.51350823596667, 265.56307353939934 24.482470249446543 M264.11353009607814 26.601575020462427 C266.91304590264764 46.167876250748435, 264.5527458917248 63.80943928404416, 264.43990200349464 75.62843600090764 M265.32060408665956 24.92546807870366 C266.0270878555979 39.624415776897074, 265.97796235433964 55.944332152325345, 266.70777126199516 74.56553629160591 M264.4126961925327 73.6958575961863 C255.21685223289134 75.47945245048567, 243.03154625516214 76.32613250531233, 204.35026313357938 73.66608132897323 M265.8555382625703 74.87002520235266 C250.71969430518845 74.67785077431257, 236.35054108244134 73.86493395067218, 205.96684813571386 75.70467333080927 M205.83324555219602 76.25523367096136 C204.5532629435809 62.44061552251118, 207.41971227825647 49.23415358477183, 206.05390604509407 25.58549800628334 M206.99135096835116 75.44293037852474 C205.83166411766427 62.750979313795725, 206.75725385727947 51.091443908358116, 205.87165759948783 24.107166106103364" stroke="rgb(0, 0, 0)" stroke-width="1" fill="none"/><text x="236" y="55" class="type" aria-describedby="desc-1">list<title id="desc-1">Object type: list</title></text></g><g><path d="M75.30943935186134 88.45962593907531 L124.34283202019226 89.50852926088503 L126.56892052492461 141.35000816456355 L76.77315366912062 140.16402849068038" stroke="none" stroke-width="0" fill="none"/><path d="M76.77439276295603 88.41696351050275 C94.9857030891574 91.03649822889129, 113.68231464669647 88.50088892311273, 125.39293074083854 89.21101467582274 M74.80290713098191 89.98888857603792 C87.17917787406026 89.86110429516633, 99.0321519011449 90.22259155710663, 125.8974799479299 90.35954972068077 M125.97141013318439 90.81731183305236 C125.71090652313153 105.81444840056768, 123.53298534780059 118.99089317798608, 126.89374183526796 138.0855641747731 M125.82245685170426 90.16822504223936 C125.39285235306886 107.57670595992073, 124.20108025076316 124.3988217049653, 125.32495363580949 139.26581414701113 M125.40181491057348 140.31606723249502 C112.40750706533572 138.55456507003927, 100.16562956432148 140.6463661679311, 75.65106807920102 140.7298878463115 M124.33521819933122 140.8603748912736 C108.6452365079121 140.13956784806166, 94.75355806895712 140.34839669089385, 75.52740497595127 139.67521888788357 M76.35725576150641 138.95653175041096 C74.88231197554923 128.99484786761906, 72.89178372638246 116.4322987300698, 76.46273742459942 91.00703830629644 M75.44004558226642 139.91574290734016 C75.52662637014113 126.11368840952613, 75.53531779202842 112.77058522188956, 74.40207415344885 90.96632244411789" stroke="rgb(0, 0, 0)" stroke-width="1" fill="none"/><text x="100" y="120" class="id" aria-label="blank entry"></text></g><g><path d="M124.76241233207016 91.20772925466137 L181.2518237486769 90.71236631415037 L184.46528118905547 140.42794176042025 L124.35363629464399 139.69861203703448" stroke="none" stroke-width="0" fill="none"/><path d="M125.88914372625119 88.61196256480257 C142.48244005613049 88.61029799625655, 156.768532626347 90.94311377933488, 181.5123096579095 90.76075270635049 M125.69198688583958 90.20752896776688 C138.45882652172233 88.68940672840206, 150.51653170234064 90.53817255816901, 182.71416072874393 90.69065009611403 M184.87343683298158 91.83960522957884 C185.15297031640253 102.45945520668823, 183.22890843311686 117.46455936539753, 181.48137240707888 141.45141540089452 M182.88569330123485 89.51643879324098 C183.5351381512627 106.58360821030941, 183.24773328647552 122.13654644179172, 182.6985760591433 139.1328173091259 M182.603801828565 139.62617081185525 C159.39708904079922 140.74250455790352, 140.01116229223206 138.20373974820242, 123.10124333314423 140.4585826433837 M183.13250199846422 139.73070281521422 C167.18861408515906 140.38873509176088, 151.76292337311887 140.20384989206093, 124.30385934397331 139.39370293157396 M124.19663671605987 140.34800516382322 C125.74432606144501 123.04001697469253, 125.39769783796115 109.54890539747724, 124.0238372970087 88.42464589417831 M125.21897143569745 140.75959550567205 C125.76361751742287 128.0333403936869, 125.29340571176272 117.65806349307724, 125.149564427427 89.87420852141113" stroke="rgb(0, 0, 0)" stroke-width="1" fill="none"/><text x="154" y="120" style="font-style:italic; " class="id" aria-describedby="desc-2">id10<title id="desc-2">Element: id10</title></text></g><g><path d="M181.10479984781784 88.10732909642559 L241.7550395433346 91.5816280016867 L239.0707446670625 139.43377958701637 L183.05496447673596 141.30253555459288" stroke="none" stroke-width="0" fill="red"/><path d="M182.8134676215114 91.76288225633293 C204.31837817015528 89.45242067575438, 220.41245350649353 89.77800931611385, 242.4475191252352 90.94562724996847 M182.7010171876977 90.16788845927204 C195.902832839032 90.16192026878791, 207.36276676496456 89.39008268979026, 241.41209014442262 90.83970813134594 M242.2459385203027 90.40489095678033 C241.46423118230385 102.14744461107854, 242.26585851855188 116.24977197984134, 239.62883899233387 138.8578279451187 M241.21611385931058 90.09154191558964 C240.84896961493766 102.6178888857397, 240.19954442395485 116.370453120024, 241.51230042044887 140.67826060163247 M241.01654179844263 138.92441552751686 C230.30641583820722 138.97089577418092, 216.55749858262143 141.35749594891612, 182.39752811648805 140.84183702247162 M240.64426089021327 140.5453244348638 C220.90407548480994 141.22579494865394, 199.33412137038624 140.3619367236189, 183.9703762342069 140.57047349380224 M184.5142600281476 139.80150719049146 C181.5269010325091 125.04785757949385, 181.44925066438518 106.75217277910507, 182.82216599724026 88.06167078791506 M183.6811188773751 139.19730905634884 C183.90752220162207 120.45855424846206, 183.4154047015281 100.20346747694823, 182.7411986925959 89.85579191880026" stroke="#000" stroke-width="1" fill="none"/><text x="212" y="120" class="id" aria-describedby="desc-3">id20<title id="desc-3">Element: id20</title></text></g></g></svg>