<svg data-theme="dark" width="291" height="205" xmlns="http://www.w3.org/2000/svg"><style>
        :root {
        --fade-text-color: rgb(0, 0, 0);
        --hide-text-color: white;

        --highlight-value-text-color: rgb(27, 14, 139);
        --highlight-id-text-color: rgb(150, 100, 28);

        --highlight-box-fill: yellow;
        --highlight-box-line-color: rgb(0, 0, 0);

        --fade-box-fill: rgb(247, 247, 247);
        --fade-box-line-color: gray;

        --hide-box-fill: white;

        --primitive-value-color: rgb(27, 14, 139);
        --id-text-color: rgb(150, 100, 28);
        --default-font-size: 20px;

        --highlight-object-fill: rgba(255, 255, 0, 0.6);
    }

        text {
            font-family: Consolas, Courier;
            font-size: 20px;
        }
        text.default {
            fill: rgb(0, 0, 0);
            text-anchor: middle;
        }
        text.attribute {
            fill: rgb(27, 14, 139);
            text-anchor: start;
        }
        text.variable {
            fill: rgb(0, 0, 0);
            text-anchor: start;
        }
        text.id {
            cursor: auto;
            fill: rgb(150, 100, 28);
            text-anchor: middle;
        }
        text.type {
            fill: rgb(27, 14, 139);
            text-anchor: middle;
        }
        text.value {
            fill: rgb(27, 14, 139);
            text-anchor: middle;
        }
        path {
            stroke: rgb(0, 0, 0);
        }
        .highlighted path {
            fill: var(--highlight-object-fill) !important;
        }
    
        [data-theme="dark"] {
            --highlight-value-text-color: #110875;
            --highlight-id-text-color: #6e4409;

            --fade-text-color: #BBBBBB;
            --hide-text-color: #121212;

            --highlight-box-fill: #EDB926;
            --highlight-box-line-color: #FFFFFF;

            --fade-box-fill: #2C2C2C;
            --fade-box-line-color: #666666;

            --hide-box-fill: #121212;

            --highlight-object-fill: rgba(72, 207, 173, 0.3);
        }
        [data-theme="dark"] text.default,
        [data-theme="dark"] text.variable {
            fill: rgb(224, 224, 224);
        }
        [data-theme="dark"] text.attribute,
        [data-theme="dark"] text.type,
        [data-theme="dark"] text.value {
            fill: rgb(144, 164, 237);
        }
        [data-theme="dark"] text.id {
            fill: rgb(255, 183, 77);
        }
        [data-theme="dark"] path {
            stroke: rgb(204, 204, 204);
        }
</style><g id="object-0"><path d="M50.553511172457846 25.798291681839768 L264.1492772585936 25.089432357140396 L267.43041197908383 155.14445678712548 L49.59421406071243 153.0871333678569" stroke="none" stroke-width="0" fill="none"/><path d="M49.929387853325295 25.09812114896124 C130.27148625120836 27.480491650462884, 207.90745971253753 25.13360964888687, 265.5199414446077 25.209394798419613 M50.72681298023044 25.521806816250276 C114.36120428446635 26.927264796365325, 179.55911204638872 25.56982830969845, 265.3554948050115 25.10861130577785 M267.7083242818929 25.500083014534276 C264.079408876451 67.8037960655143, 266.193726089557 113.98366828645915, 265.1236457261958 153.97932389370374 M266.8797786455347 25.707586439033573 C264.8659589074733 59.02901534606387, 265.5904808431811 94.25075223115913, 266.8909398662578 155.61916305020694 M266.90705685223037 154.8167683930364 C182.84455651026443 158.356313253748, 104.29655117389869 156.9691149740978, 49.43756398581361 153.45255904105866 M265.9701707399173 154.89784090206072 C197.36393021659637 152.819071678676, 127.78709917670581 153.17446970663164, 50.12560915416034 154.64469617653367 M48.344559158999886 154.67423455134076 C49.789625692040616 107.53140116570864, 48.31514456978347 63.66234623710339, 50.61358406947706 23.244898456695033 M50.04468833662664 155.02001968278503 C50.63407888799691 124.90757302941624, 50.6488610108835 95.8322422938509, 49.52855240439874 25.86910582214405" stroke="rgb(0, 0, 0)" stroke-width="1" fill="none"/></g><g><path d="M76.07299735372179 89.26985152295129 L124.00904695220154 88.1640606442158 L124.90557250961872 141.4501603530101 L76.3852903797761 140.1671769895252" stroke="none" stroke-width="0" fill="none"/><path d="M74.21727006619507 89.97937105003035 C87.55017130051229 88.7159672760513, 95.46275504004078 89.2011998476937, 125.30202079381873 88.21677529868151 M74.60574073649839 90.77924048000573 C84.4055642204261 88.70154738872965, 95.48305580147385 89.57267001858274, 125.64876800770686 89.25758493557646 M123.38657422436897 90.33291187613877 C124.45234034920021 108.27258634201138, 125.50813986107975 127.65405404798703, 126.31609791890568 139.22393048192143 M125.20996358561953 90.63234390062077 C124.57393149384924 109.94414187522055, 124.0079213891668 128.39053315678728, 124.7117517028068 140.1879967508332 M124.78283889849162 139.20249197511382 C110.39475252465678 139.46039074014166, 94.14138204278267 138.0632608037878, 73.77786833265819 139.99582451381193 M125.3008349676812 139.72980024392166 C106.83168372861729 139.72900112596352, 88.05691783674537 140.16009959313834, 74.31905479418843 140.2761733146001 M75.28187608797673 140.6607193124846 C75.88272509727194 123.5879680765477, 74.58410617819757 104.65340649256645, 74.40506893614274 88.78093693255039 M75.40158503778596 139.74581619616538 C75.8907976688058 128.9021741795118, 75.8001256448948 119.08382242840042, 74.90343042843604 89.47528055947018" stroke="rgb(0, 0, 0)" stroke-width="1" fill="none"/></g><text x="100" y="120" class="id"></text><g><path d="M126.60342777420898 91.48835472404029 L183.4095500184464 88.75488160033265 L182.80300466924254 141.00429559392683 L126.72864359151792 139.6764551507032" stroke="none" stroke-width="0" fill="none"/><path d="M125.94950066701034 91.89806045097708 C137.6362565558444 88.85021015721554, 149.78772678886065 91.1937006263598, 184.8702892651733 88.44191422397232 M125.10332268753454 90.275637219414 C140.8287131182102 89.58596503582066, 155.67025616368386 90.25709971523713, 182.06530237333763 89.78552770424649 M184.8432247153394 88.16465444105218 C182.81575492725452 109.7966696283991, 181.80370491414232 129.49912267235197, 182.22985909073742 140.9310749032306 M183.07323008025836 89.44685321602391 C182.8782575179771 102.56081443645624, 182.06282458160726 116.45518566285666, 182.65632721549267 140.67831114527823 M183.90332442412924 140.26842581155444 C171.41047492980348 140.14160083096797, 160.38036795106228 140.72125079629967, 125.87252515818126 138.02554613127825 M182.9315677091236 139.2953005320976 C171.4314503029714 139.38398253393748, 157.30453459808987 138.92718250372636, 125.03969214930173 139.329017428509 M123.71706669624864 139.30379893677932 C125.39037859252007 129.10382127834635, 127.2538154484127 114.48416430724173, 123.40077009798927 88.57545567595488 M124.81043684223899 139.4819008857823 C124.69819631685688 119.48132644180828, 125.54318380889065 101.59796220941217, 124.07926347935816 89.37344116244903" stroke="rgb(0, 0, 0)" stroke-width="1" fill="none"/></g><text x="154" y="120" style="font-style:italic; " class="id">id10</text><g><path d="M184.00328314775595 90.88209368481253 L240.94316864779967 88.13443984965905 L241.2768649561209 138.4592573722383 L184.10983719650204 140.79450293021102" stroke="none" stroke-width="0" fill="red"/><path d="M183.1697915968649 90.79515339409944 C201.08992370499092 90.82904284252548, 218.16884395780656 88.34242069990133, 240.5711954573743 89.46974328706412 M183.01599052216338 90.33178717170594 C196.76266504806614 89.3101730286321, 209.3284742263867 90.55846929663163, 241.1438245618955 89.42456534425361 M241.11010135751783 88.41866813020215 C242.89095861972794 102.57194662698025, 243.29062702386008 115.2689859523196, 240.46079453177924 141.24034581939338 M240.92265987988011 90.13000694927594 C240.4506354770607 100.05333442335527, 240.81711014034678 111.60441154304945, 241.06384650273253 140.17747681631744 M239.89611250392795 138.58715030713992 C219.30379188773313 139.78159818776123, 202.06268938822964 140.60171716711824, 181.07099106525868 141.04561396341336 M241.9653785808367 140.44026802921888 C225.58738974155332 141.24082018391212, 207.6744763888179 141.1950184204062, 182.58578196103358 139.91987747655455 M181.05947511623938 140.47461939294317 C180.87043700479754 120.72274603052519, 181.19572365774593 105.56825406316713, 182.5890085853061 90.27113295997843 M182.49554124177783 140.24228551609957 C183.28703658521377 123.20295620289215, 183.94022344876035 106.2103481811062, 182.90610291976887 90.88504199400045" stroke="#000" stroke-width="1" fill="none"/></g><text x="212" y="120" class="id">id20</text><g><path d="M48.81958069675778 24.735927870039284 L110.83122965390442 26.396529680667292 L111.00743468882577 76.8203339233961 L51.16050958397879 74.41852063694766" stroke="none" stroke-width="0" fill="none"/><path d="M51.496832438454085 25.193689253933766 C68.38060597928458 24.275623369163554, 86.69972445020183 23.73877013795459, 109.21052537534632 23.686097321399306 M49.07051184184503 24.18318452447468 C74.2235072206814 24.697226578287093, 98.01058015761424 24.740496734380862, 110.04257156891374 24.48390838308427 M109.30974565756128 23.881886184710787 C110.86665980511908 38.39742133727692, 111.50070296289819 50.99098429823911, 108.64125706006715 74.12160922358521 M109.55276228911457 24.36449051990965 C108.77731325953472 34.64381038837895, 109.90044130281855 45.64693513638311, 109.50847206792699 74.7908448157224 M110.23397313135402 73.02810429507767 C94.52582336416665 73.25936602676428, 82.11462086620845 73.83769534428096, 51.99553025283342 75.78778431831064 M109.3337823118514 75.25562431086199 C96.66766659247757 75.51733277532021, 84.22056108191093 76.05559142692191, 50.066339715124904 74.2794845622311 M49.72585049894414 75.32590921441042 C49.24168701865126 60.34629060936609, 51.05457665922555 49.59942256724167, 50.066522361933224 26.185311298664363 M50.3449165161087 75.40053552943338 C49.27398645007682 57.51511807610066, 49.711878730694785 39.84634166173784, 50.452883973133105 25.51306469375717" stroke="rgb(0, 0, 0)" stroke-width="1" fill="none"/></g><g><path d="M207.14881811465375 24.136712729631668 L267.20384993440877 24.54829831167504 L264.0006378555451 73.67229332050037 L207.91991702062182 75.43913331211375" stroke="none" stroke-width="0" fill="none"/><path d="M206.79006541226155 23.881737687977143 C223.48265824181516 23.073797699865295, 243.59944159959304 24.866726482471513, 264.1141073874534 25.578212657438527 M205.55447049765746 25.97412360638015 C227.3317608113075 25.543590289167078, 246.90257018033722 24.7259365350589, 265.390211959889 25.77203964835601 M265.8239107707094 25.88875259401455 C265.1757717978092 41.436990413740716, 266.4347911725004 57.68989084549918, 265.3903130448565 76.27929796202858 M266.5035373940434 25.619465172076723 C265.75002204296 40.03196104775505, 265.0620407892191 54.56930449743446, 266.9383696310866 75.90619365962223 M266.71736424200435 76.96206396968957 C245.58364187175656 75.0276410229071, 225.44989806428788 75.49139278796947, 204.7054998148399 76.10836618572077 M265.9242915514823 74.98742651216354 C250.65304487393024 74.87776811082747, 234.56355092182227 75.79867553802472, 206.3212542432349 74.26454357266053 M205.57468033868307 73.31859506348893 C205.28615877459083 62.17996357737023, 206.7283917793961 46.959615894895975, 204.14566279324308 23.243401854667713 M206.68148105375434 75.92269463528568 C205.20070044449645 62.94278888757415, 206.05866510896095 51.918845520363185, 205.2775501651612 25.741674562416488" stroke="rgb(0, 0, 0)" stroke-width="1" fill="none"/></g><text x="80" y="55" class="id">id32</text><text x="236" y="55" class="type">list</text></svg>