<svg data-theme="dark" width="316" height="205" xmlns="http://www.w3.org/2000/svg"><title>Python memory model diagram showing objects</title><style>
        :root {
        --fade-text-color: rgb(0, 0, 0);
        --hide-text-color: white;

        --highlight-value-text-color: rgb(27, 14, 139);
        --highlight-id-text-color: rgb(150, 100, 28);

        --highlight-box-fill: yellow;
        --highlight-box-line-color: rgb(0, 0, 0);

        --fade-box-fill: rgb(247, 247, 247);
        --fade-box-line-color: gray;

        --hide-box-fill: white;

        --primitive-value-color: rgb(27, 14, 139);
        --id-text-color: rgb(150, 100, 28);
        --default-font-size: 20px;

        --highlight-object-fill: rgba(255, 255, 0, 0.6);
    }

        text {
            font-family: Consolas, Courier;
            font-size: 20px;
        }
        text.default {
            fill: rgb(0, 0, 0);
            text-anchor: middle;
        }
        text.attribute {
            fill: rgb(27, 14, 139);
            text-anchor: start;
        }
        text.variable {
            fill: rgb(0, 0, 0);
            text-anchor: start;
        }
        text.id {
            cursor: auto;
            fill: rgb(150, 100, 28);
            text-anchor: middle;
        }
        text.type {
            fill: rgb(27, 14, 139);
            text-anchor: middle;
        }
        text.value {
            fill: rgb(27, 14, 139);
            text-anchor: middle;
        }
        path {
            stroke: rgb(0, 0, 0);
        }
        .highlighted path {
            fill: var(--highlight-object-fill) !important;
        }
    
        [data-theme="dark"] {
            --highlight-value-text-color: #110875;
            --highlight-id-text-color: #6e4409;

            --fade-text-color: #BBBBBB;
            --hide-text-color: #121212;

            --highlight-box-fill: #EDB926;
            --highlight-box-line-color: #FFFFFF;

            --fade-box-fill: #2C2C2C;
            --fade-box-line-color: #666666;

            --hide-box-fill: #121212;

            --highlight-object-fill: rgba(72, 207, 173, 0.3);
        }
        [data-theme="dark"] text.default,
        [data-theme="dark"] text.variable {
            fill: rgb(224, 224, 224);
        }
        [data-theme="dark"] text.attribute,
        [data-theme="dark"] text.type,
        [data-theme="dark"] text.value {
            fill: rgb(144, 164, 237);
        }
        [data-theme="dark"] text.id {
            fill: rgb(255, 183, 77);
        }
        [data-theme="dark"] path {
            stroke: rgb(204, 204, 204);
        }
</style><g role="graphics-object"><title>Set id32 with 3 elements</title><desc>Elements: id5, id10, id20</desc><g id="object-0"><path d="M50.047524305250306 25.68306794153038 L291.38314661424863 25.044991824449628 L289.14634565119866 154.2734851133727 L51.04391603558056 154.47651472164026" stroke="none" stroke-width="0" fill="none"/><path d="M51.13402601852752 26.06132234524227 C116.83986661789604 23.07903584820477, 183.7844598454351 22.73500316879584, 290.1903218389165 24.709487868193225 M49.23460372013933 24.640270249509847 C141.61115258827675 24.5762322914343, 234.0571609076712 24.79333771641603, 291.3477652317911 25.270399376661924 M292.79925964065296 26.99532435330964 C292.1329254336438 53.35033102566992, 290.5013151305819 82.0204426865922, 289.3039465691158 156.5246246579083 M290.38435444337847 25.99497039055535 C292.8607028873444 50.53985007588004, 292.3814565526013 78.29905698076726, 290.74000310974634 154.57037209635038 M290.6032746809744 153.49049348006685 C216.12861247276547 157.82901219565974, 144.74516763471058 157.5053982614711, 50.95546205174401 155.73191987174678 M290.3276797316079 155.7224311788188 C219.83655995631628 153.0536938773346, 149.03032868912953 153.49920105052485, 50.67261923072376 155.5841579908806 M48.784334083077326 153.89817992869877 C51.918540996814485 109.8309778470694, 50.11183045592761 61.90730285312882, 48.59588836554467 23.48439272065002 M49.24085474487209 155.5225251004839 C49.6544784267309 129.36119788731844, 48.81430191107869 102.82352928233581, 49.67258206174466 24.781479739936152" stroke="rgb(0, 0, 0)" stroke-width="1" fill="none"/></g><g><path d="M50.0639929000692 25.260863825981204 L108.47735120755846 23.107293383921846 L110.53647981959996 74.11672729987498 L51.817393335495694 73.916702049808" stroke="none" stroke-width="0" fill="none"/><path d="M49.45392224856701 23.351883294722533 C68.34849855620752 23.200176073206464, 87.96364458004571 25.029965634449393, 111.23977591353446 26.999959807007937 M49.76715914488953 24.764274035592763 C73.88150437490589 25.328506066342555, 98.12492296896711 24.396217712877455, 110.87691882409281 25.646520235531447 M108.94524667250515 24.72188855458726 C108.2285736974448 40.909318162074086, 110.18249875401281 53.49972697382083, 108.45152693911423 74.93659383044783 M110.57187445444842 25.203409616832793 C109.17193070111378 39.549722374295854, 109.60036059657354 53.53995427229629, 110.54918055935077 74.29759492522686 M111.82864100733565 76.09856616741077 C95.50097235614254 73.34523380089448, 83.23900913759219 76.37154508943952, 50.600872535154856 76.68590388466718 M110.38043534108884 75.94420953833013 C88.82530282194767 76.07096222142363, 67.23668239459404 75.55458698450845, 50.66417094702207 74.58540205284508 M50.821183613105546 75.19173343565944 C50.90367135300052 58.374294731608025, 51.996111874608246 46.9089873268047, 51.113428517331364 26.578287506647314 M49.099619368475715 75.68670237741581 C49.36358925977631 65.71147839564708, 49.49124150787279 53.931360736790516, 49.73459556807201 24.097663985494123" stroke="rgb(0, 0, 0)" stroke-width="1" fill="none"/><text x="80" y="55" class="id" aria-describedby="desc-0">id32<title id="desc-0">Object id: id32</title></text></g><g><path d="M229.7270821586475 24.28081113840731 L289.23578664735635 23.129347008951086 L290.89335226730844 73.37098903737132 L230.7559404949681 74.59890127469615" stroke="none" stroke-width="0" fill="none"/><path d="M230.75224737637262 25.86616356515966 C249.10212360112752 23.56644688263625, 267.3725207326142 25.235266127970792, 289.22571256871555 25.957080465977974 M231.35495477909203 25.817423919722785 C245.52403813068074 25.145824499555236, 260.7754622034468 26.19623046451271, 290.02238867451956 25.649512105915186 M292.75798962664993 26.2418756285807 C290.06701129574986 40.3196396050645, 292.649701950628 54.004937024999954, 291.42558218296705 76.40948947162609 M290.9096704648246 24.52927254993957 C291.21086461346044 44.18632953123721, 291.3455594161837 61.63910712619768, 291.7238512798912 75.54062726953818 M292.72887852374066 74.06567333410514 C278.2004111234454 73.22461203498963, 266.6184201474883 73.18954233264117, 229.21953848840496 76.57458161585349 M291.08726661787824 74.69679642278383 C277.93705157488336 75.05302792162026, 265.73723963675377 76.29691573138294, 231.21157605173892 74.30002876072612 M230.3505482624902 75.72189838954117 C230.3868591412186 62.679145501313386, 232.0807591492424 47.79684204577681, 232.20654886177334 24.191182116930335 M231.28152548904188 74.61793934483383 C230.935219389585 59.874605267143366, 231.1739335289069 44.90415799612854, 230.49699612429487 25.72295557142517" stroke="rgb(0, 0, 0)" stroke-width="1" fill="none"/><text x="261" y="55" class="type" aria-describedby="desc-1">set<title id="desc-1">Object type: set</title></text></g><g><path d="M76.8966851590165 88.01110629828102 L124.22349010334734 89.70119291934047 L125.98727303279598 141.0684323751955 L75.82967033673154 139.6518946155047" stroke="none" stroke-width="0" fill="none"/><path d="M74.59660861290277 90.26499703091652 C88.36262097783325 88.10033589774874, 105.42513690392694 91.4925571190488, 126.93773020790775 88.99310743423652 M74.86650800308001 89.66547290350985 C93.92875176079312 90.28355021197942, 111.51740583140379 90.91299836580642, 125.67585806239467 89.76361949127045 M125.15743074220929 90.67584384250767 C124.61698044964558 106.93782319825061, 126.03521837574672 128.27526890093512, 125.12535216233482 141.40076405817166 M124.8573428700205 89.4842673688525 C123.91191442164654 103.95890928404046, 124.40465472378035 118.70598057464545, 124.30753131792136 140.76668605035573 M126.29882425912113 139.69820715521428 C109.48234537448339 137.99607214707532, 93.23506741200995 138.07125215674762, 74.23346277257394 141.78460295941284 M124.11970774621912 139.79638017657797 C111.47749219976991 139.9877272568709, 99.26704460567372 139.7990829370887, 74.2918833840402 139.93841729882936 M76.37739624456977 141.02965256520696 C73.23513566443845 129.218724463907, 74.23907654331785 116.24040693556856, 75.05871921347581 90.75148339159603 M75.02483464942955 140.71384159123022 C75.28018461256607 125.34384020894646, 74.0916904843869 109.75889915853881, 75.09229747688029 89.76300831099515" stroke="rgb(0, 0, 0)" stroke-width="1" fill="none"/><text x="100" y="120" style="font-style:italic; " class="id" aria-describedby="desc-2">id5<title id="desc-2">Element: id5</title></text></g><g><path d="M137.25582415170143 90.47225124750388 L196.28360574739688 90.63637853534416 L194.20531474006637 139.2691187050728 L139.25186755511444 140.22678574853023" stroke="none" stroke-width="0" fill="blue"/><path d="M136.4416725884815 91.95324500196296 C155.5333257049368 89.45850337423519, 177.1309379033369 90.32803929315044, 197.0100698826304 90.15358538778912 M136.7510655978855 90.17488162749319 C154.8276290369539 91.0041122297765, 171.5635446583345 90.75468766124408, 196.4532256161541 90.89467038226984 M194.56490129890008 89.75634450919068 C194.77828804220678 104.68413106542897, 195.37370530740648 117.48641523605582, 195.41685903227713 140.38054800412255 M196.03482266044944 90.4581446275862 C195.83393922046469 103.83095148630477, 194.76382547257822 119.70561229191976, 195.91184044677166 139.49254637786083 M194.92378762646527 141.12793663690306 C183.0256352033617 140.9300658795298, 169.43863670742238 138.57711105012277, 138.86466071200633 138.0977681141569 M195.54489125576154 140.19635767139977 C181.70722841014654 140.10011391569608, 168.0315950564394 139.96279490164568, 137.21229422515066 139.22748110011347 M137.07361886847306 140.0498083987744 C138.4888772241566 119.99481837034115, 136.4548155884958 102.2090118952267, 138.0949279883815 90.71498849031921 M136.84783342062272 139.9092352410462 C136.63002982452704 127.32228407828697, 137.935236072522 114.84048261849428, 136.70639351786198 89.59054322293775" stroke="#000" stroke-width="1" fill="none"/><text x="166.5" y="120" class="id" aria-describedby="desc-3">id10<title id="desc-3">Element: id10</title></text></g><text x="131.25" y="120" style="" class="default" aria-hidden="true">,</text><g><path d="M209.18548100730848 90.21058847445772 L264.7893016117699 88.15842185514636 L266.09649073807316 140.27675061994148 L207.9186551222927 140.58487382172876" stroke="none" stroke-width="0" fill="none"/><path d="M209.77863497421285 89.48043494746439 C231.6953791853623 89.70552583916044, 253.31944294157626 90.65965808467946, 267.01467731638826 89.38848835445975 M207.27911099544565 90.29664966854554 C226.51542599165805 90.2988848122409, 243.79106966986697 90.45619714811019, 266.47699206941974 90.08548346045556 M265.5214418712368 89.90543923758332 C264.4841125119882 102.2328908172725, 265.0396753005319 113.07889273172643, 267.8778273925949 141.6806654245828 M266.2225912632153 89.21300896938877 C265.07431725017335 100.61834749655522, 266.05087759698733 113.36687831470442, 265.8266122796392 140.1294229202771 M265.4484952928127 139.21288157140333 C243.1636684282764 141.09517926813112, 219.74036946456167 138.10388954221904, 208.30482183279753 139.6180457220998 M265.75636305249327 139.0555215048747 C243.32229774939157 139.62100158609894, 220.97923283555622 140.16925522139175, 208.87627111521417 140.16818332560464 M206.65414891142987 138.65681152157575 C207.87866206238363 127.745959509145, 209.98959097814742 112.88277850299309, 209.52200467280937 88.94565524000896 M207.29081629779614 140.70302409465006 C207.38134744350435 128.21845819179242, 207.23224348824155 115.46091670856504, 207.70806361221693 89.6011462400948" stroke="rgb(0, 0, 0)" stroke-width="1" fill="none"/><text x="237" y="120" class="id" aria-describedby="desc-4">id20<title id="desc-4">Element: id20</title></text></g><text x="201.75" y="120" style="" class="default" aria-hidden="true">,</text><text x="62.5" y="120" style="" class="default" aria-hidden="true">{</text><text x="278.5" y="120" style="" class="default" aria-hidden="true">}</text></g></svg>