<svg data-theme="dark" width="316" height="205" xmlns="http://www.w3.org/2000/svg"><title>Python memory model diagram showing objects</title><style>
        :root {
        --fade-text-color: rgb(0, 0, 0);
        --hide-text-color: white;

        --highlight-value-text-color: rgb(27, 14, 139);
        --highlight-id-text-color: rgb(150, 100, 28);

        --highlight-box-fill: yellow;
        --highlight-box-line-color: rgb(0, 0, 0);

        --fade-box-fill: rgb(247, 247, 247);
        --fade-box-line-color: gray;

        --hide-box-fill: white;

        --primitive-value-color: rgb(27, 14, 139);
        --id-text-color: rgb(150, 100, 28);
        --default-font-size: 20px;

        --highlight-object-fill: rgba(255, 255, 0, 0.6);
    }

        text {
            font-family: Consolas, Courier;
            font-size: 20px;
        }
        text.default {
            fill: rgb(0, 0, 0);
            text-anchor: middle;
        }
        text.attribute {
            fill: rgb(27, 14, 139);
            text-anchor: start;
        }
        text.variable {
            fill: rgb(0, 0, 0);
            text-anchor: start;
        }
        text.id {
            cursor: auto;
            fill: rgb(150, 100, 28);
            text-anchor: middle;
        }
        text.type {
            fill: rgb(27, 14, 139);
            text-anchor: middle;
        }
        text.value {
            fill: rgb(27, 14, 139);
            text-anchor: middle;
        }
        path {
            stroke: rgb(0, 0, 0);
        }
        .highlighted path {
            fill: var(--highlight-object-fill) !important;
        }
    
        [data-theme="dark"] {
            --highlight-value-text-color: #110875;
            --highlight-id-text-color: #6e4409;

            --fade-text-color: #BBBBBB;
            --hide-text-color: #121212;

            --highlight-box-fill: #EDB926;
            --highlight-box-line-color: #FFFFFF;

            --fade-box-fill: #2C2C2C;
            --fade-box-line-color: #666666;

            --hide-box-fill: #121212;

            --highlight-object-fill: rgba(72, 207, 173, 0.3);
        }
        [data-theme="dark"] text.default,
        [data-theme="dark"] text.variable {
            fill: rgb(224, 224, 224);
        }
        [data-theme="dark"] text.attribute,
        [data-theme="dark"] text.type,
        [data-theme="dark"] text.value {
            fill: rgb(144, 164, 237);
        }
        [data-theme="dark"] text.id {
            fill: rgb(255, 183, 77);
        }
        [data-theme="dark"] path {
            stroke: rgb(204, 204, 204);
        }
</style><g><title>Group of 1 objects</title><g role="graphics-object"><title>Set id32 with 3 elements</title><desc>Elements: id5, id10, id20</desc><g id="object-0"><path d="M49.16486483786834 26.030094202062795 L292.93410179141307 26.57076257212612 L292.06536763046444 156.89914171608865 L50.202751966866785 153.25337524203576" stroke="none" stroke-width="0" fill="none"/><path d="M49.21576424844419 24.50523125038777 C137.45113463835773 26.435853408745903, 223.55676820612737 26.162236498754165, 289.52548018276127 24.387592146489403 M50.535648282523866 25.75624302293098 C100.83627182612969 24.003280252318316, 149.76174486311157 23.925622241169297, 290.8460767044843 25.012437039816614 M289.3283790199855 23.171554692269368 C293.37139613135275 68.34958691983823, 293.07067872099833 110.86953849261508, 291.10839504133656 156.49611117436004 M290.44752246680787 24.811355171948463 C290.01519749585407 63.81624824914863, 290.6774938951224 104.09782942356524, 290.0111088015146 154.14130675294322 M291.0954570290013 153.75742880888407 C207.49437413965958 156.23849835365638, 123.45753026491633 154.08894880962987, 50.59075468069174 155.63099726824672 M290.33975422562963 155.5149967766272 C217.32877864594292 155.42273811459208, 143.47374286911244 155.6040717162926, 50.440184627548085 154.20211635700804 M48.82713601817615 154.51401743024556 C51.8836998398396 118.55578244766464, 51.750403960409656 79.24455478221755, 49.472398389833494 23.26509280523262 M49.997824730857175 154.87784395103338 C50.27929511383589 109.06475761273752, 49.60553942623862 64.52449188290231, 49.52749512253388 25.178384639954658" stroke="rgb(0, 0, 0)" stroke-width="1" fill="none"/></g><g><path d="M49.56225226895227 26.512864600676494 L111.45212668138868 24.782603409456442 L109.06296010873002 76.09378764045788 L50.78876933545983 76.01268468183318" stroke="none" stroke-width="0" fill="none"/><path d="M49.96662772392388 23.950306341652823 C67.29051534907158 24.266906602092284, 84.2625732580718 23.574635330978435, 110.63353657312273 25.60206991877044 M50.51175267150005 24.41057818127888 C63.18268679667213 24.624620633589995, 77.1883047635574 25.890001367450076, 109.32954742285285 24.66003077279765 M108.23548875156229 25.270774207159487 C108.99499485295627 45.92931763487195, 111.19923155474395 62.613855064065646, 108.01793940351412 73.74134123306457 M110.00135862107292 25.884762380850084 C111.39096583533033 43.93668460834442, 110.37552154235202 60.366605710019435, 109.54165436031106 74.07605588105578 M111.48063373010305 73.0531855829245 C87.08057777265707 76.13216388012833, 64.8307162529985 75.48209485254694, 49.252429746973704 76.2586522498423 M110.86074199742156 75.20922267420396 C89.39642018460121 74.19168380808706, 68.7188103087303 73.65481223418466, 50.4490377841223 74.94707676175446 M50.02487651892912 76.50439448423421 C50.250002161329576 63.30642089269483, 49.04107466291579 49.52378334457095, 51.273995134405666 26.5069335826661 M49.39224997017608 74.95827538649093 C50.00412222311154 61.519424361885534, 49.66453931022329 48.870718417539365, 50.229474028914204 25.053118284318337" stroke="rgb(0, 0, 0)" stroke-width="1" fill="none"/><text x="80" y="55" class="id" aria-describedby="desc-0">id32<title id="desc-0">Object id</title></text></g><g><path d="M231.9169320180957 23.808043878076585 L290.0985416459679 23.6944023846395 L291.1876768586028 73.84460095780612 L232.36739179035115 76.99898916181454" stroke="none" stroke-width="0" fill="none"/><path d="M229.05535879647437 23.247683764833923 C254.51064273955862 24.006413437848167, 277.8879207876138 24.676008714186118, 290.7926234247616 24.874055106954312 M230.11576379192513 25.086658238197607 C251.3066487897 24.670409719038645, 270.6797087362344 25.463301290922917, 291.25323049281525 24.213162187223926 M289.270179691094 23.657915571748426 C291.65477486720977 41.67052209532875, 290.2953667452602 55.83383951008237, 292.095883433343 73.9072053341098 M291.2220317660827 24.21441672768063 C291.126582517536 42.16121165212242, 290.9506113833926 58.262735121749685, 290.74990815949945 75.97956672954537 M291.9656074334815 74.64210651514277 C267.21420218378205 74.31996649654965, 247.49229078022353 72.77554599013624, 231.3919545650425 76.53291199834864 M291.1895010970443 74.13392098935732 C267.45820910889876 75.05380553652839, 245.96996132380448 76.20213335285288, 230.6059906268042 75.20700228448426 M230.2209343098883 74.39433825309258 C229.51872871730762 54.35029635409136, 229.5182033053387 37.4227202510149, 230.53139957436971 23.420090914964717 M230.00497027670832 74.02401440206292 C231.82964494608032 65.00437572235701, 231.5817542366705 53.65354007867932, 230.42752047775636 24.72545629214469" stroke="rgb(0, 0, 0)" stroke-width="1" fill="none"/><text x="261" y="55" class="type" aria-describedby="desc-1">set<title id="desc-1">Object type</title></text></g><g><path d="M74.72629931131094 89.93448613278201 L124.38783993833552 89.41229175309255 L124.4270102267947 140.39639405982132 L76.75093946237493 139.33481990589934" stroke="none" stroke-width="0" fill="none"/><path d="M76.7703646721491 88.43185471989547 C90.55072714344045 90.22659709272213, 105.73773611681943 89.18228752972888, 125.04693919522833 90.14349424041532 M75.15771906554214 89.85141899163395 C84.81047523125201 90.26946357127717, 95.76216935551906 89.87786906084493, 124.97405574764655 89.11522837481444 M123.32612068215631 89.263662355494 C127.24325357963417 107.6125760172341, 124.66552096823708 126.25917265737948, 124.88818226639837 140.9331500965781 M125.7286078542988 90.57761355637516 C126.27225843459738 100.62724191888931, 125.42994871429637 110.33553464910709, 125.54950463052342 140.11862024982628 M126.65850800111197 141.32225987609243 C116.41806608775485 140.22215353533622, 105.1381285429317 141.88043186517982, 76.60437230857589 141.21051207064176 M125.26785648824752 139.5266566773833 C106.67548114334117 140.06172735073923, 89.4478151550446 140.65909010927544, 75.28948060997054 139.9662772310879 M73.96523857385749 139.6955235921824 C73.2675936026276 122.80640075251546, 73.88686619993709 104.95365991070142, 74.70612628765606 90.35817811086567 M74.9923146377227 139.10100839349073 C74.23529779040295 123.57097650606698, 75.19577007788516 106.72366106903225, 74.00155786886206 89.78071782428678" stroke="rgb(0, 0, 0)" stroke-width="1" fill="none"/><text x="100" y="120" style="font-style:italic; " class="id" aria-describedby="desc-2">id5<title id="desc-2">Element</title></text></g><g><path d="M137.12112573594345 89.69161074680117 L193.67022228502327 89.40055858906472 L197.17501054789577 141.8143116357708 L135.64400772396453 140.60572212176777" stroke="none" stroke-width="0" fill="blue"/><path d="M136.66926104848278 91.84818209686385 C150.6516845800318 89.00021454436607, 165.79195743309833 89.20209836438083, 194.8366836742655 91.71105907052038 M136.71289285816232 90.45908636040623 C154.70898744833065 89.58305735164008, 173.5904906642265 89.73748606449657, 195.78003243473162 89.4053425454946 M194.40132637613505 89.24296290039268 C194.21458307483243 102.82975346134451, 196.28398844698515 116.35565446166665, 196.67955074942546 138.2884001522492 M194.5110088451592 89.60086866154661 C196.80910707441654 105.3536331225723, 195.11931261590408 118.65656821830895, 195.5385730058555 139.463106818733 M194.59591149103787 140.22427400687215 C179.88834429791495 140.59731617560686, 166.35395663174432 139.67169215833505, 136.56705755281084 138.08414564175186 M196.10454898636002 140.74384064336292 C179.8018433138721 141.32650823827663, 164.03496798357438 140.15653403171348, 137.5670815081422 140.55589133536364 M137.9456983229154 138.34008709333747 C136.38921943563489 130.69095168180857, 137.38198619132726 119.4056233702876, 136.3507303170014 90.22612820077524 M137.24994243609314 140.47240773015332 C137.68709307168245 130.49730264069854, 136.56243305427756 119.23773257219622, 137.7847890356013 90.68657876191016" stroke="#000" stroke-width="1" fill="none"/><text x="166.5" y="120" class="id" aria-describedby="desc-3">id10<title id="desc-3">Element</title></text></g><text x="131.25" y="120" style="" class="default" aria-hidden="true">,</text><g><path d="M209.6384559511761 90.54804256752129 L267.6876290585892 90.6801137413704 L265.95164834593777 140.7534811037501 L208.93253396346705 138.2470774730296" stroke="none" stroke-width="0" fill="none"/><path d="M208.22449323326188 88.07312540736392 C222.60535688401143 90.01952539416601, 239.45708763103738 91.66034053292888, 267.8934646460763 88.37899353884164 M208.79892176482687 90.0888967429083 C228.60020360138623 89.46979005401687, 248.48461138178544 90.85760213851546, 266.20122025774333 90.49812361214998 M264.22824459230986 89.8953230719178 C265.17166739860716 101.4434914026669, 267.7211247012844 118.30464807825679, 265.7352068064107 141.37244853628582 M266.9455435863762 89.49596832349556 C265.8219030775975 109.6205310139545, 265.6457393187902 129.29922946020855, 265.19866227185247 139.3706418926519 M266.6771202669126 141.55956060654742 C241.9902264503896 141.63106675221286, 221.94555833057575 141.5178810852808, 208.95744841094523 139.98259783339117 M266.1938824448693 139.04010295539254 C243.37146097540517 139.38227379386552, 219.68442587659715 140.58934549786136, 207.689707659314 139.80045435125132 M209.92842717378434 139.175845930795 C207.13123059436555 128.8994386951707, 206.9419328574494 118.41224432988216, 209.34212042480382 91.59891578722899 M208.7167589398259 140.59611675654997 C207.7303394426489 122.21237059760387, 207.6650663473446 103.04933879361045, 207.24118003686448 90.70915097391506" stroke="rgb(0, 0, 0)" stroke-width="1" fill="none"/><text x="237" y="120" class="id" aria-describedby="desc-4">id20<title id="desc-4">Element</title></text></g><text x="201.75" y="120" style="" class="default" aria-hidden="true">,</text><text x="62.5" y="120" style="" class="default" aria-hidden="true">{</text><text x="278.5" y="120" style="" class="default" aria-hidden="true">}</text></g></g></svg>