<svg data-theme="dark" width="316" height="205" xmlns="http://www.w3.org/2000/svg"><title>Python memory model diagram showing objects</title><style>
        :root {
        --fade-text-color: rgb(0, 0, 0);
        --hide-text-color: white;

        --highlight-value-text-color: rgb(27, 14, 139);
        --highlight-id-text-color: rgb(150, 100, 28);

        --highlight-box-fill: yellow;
        --highlight-box-line-color: rgb(0, 0, 0);

        --fade-box-fill: rgb(247, 247, 247);
        --fade-box-line-color: gray;

        --hide-box-fill: white;

        --primitive-value-color: rgb(27, 14, 139);
        --id-text-color: rgb(150, 100, 28);
        --default-font-size: 20px;

        --highlight-object-fill: rgba(255, 255, 0, 0.6);
    }

        text {
            font-family: Consolas, Courier;
            font-size: 20px;
        }
        text.default {
            fill: rgb(0, 0, 0);
            text-anchor: middle;
        }
        text.attribute {
            fill: rgb(27, 14, 139);
            text-anchor: start;
        }
        text.variable {
            fill: rgb(0, 0, 0);
            text-anchor: start;
        }
        text.id {
            cursor: auto;
            fill: rgb(150, 100, 28);
            text-anchor: middle;
        }
        text.type {
            fill: rgb(27, 14, 139);
            text-anchor: middle;
        }
        text.value {
            fill: rgb(27, 14, 139);
            text-anchor: middle;
        }
        path {
            stroke: rgb(0, 0, 0);
        }
        .highlighted path {
            fill: var(--highlight-object-fill) !important;
        }
    
        [data-theme="dark"] {
            --highlight-value-text-color: #110875;
            --highlight-id-text-color: #6e4409;

            --fade-text-color: #BBBBBB;
            --hide-text-color: #121212;

            --highlight-box-fill: #EDB926;
            --highlight-box-line-color: #FFFFFF;

            --fade-box-fill: #2C2C2C;
            --fade-box-line-color: #666666;

            --hide-box-fill: #121212;

            --highlight-object-fill: rgba(72, 207, 173, 0.3);
        }
        [data-theme="dark"] text.default,
        [data-theme="dark"] text.variable {
            fill: rgb(224, 224, 224);
        }
        [data-theme="dark"] text.attribute,
        [data-theme="dark"] text.type,
        [data-theme="dark"] text.value {
            fill: rgb(144, 164, 237);
        }
        [data-theme="dark"] text.id {
            fill: rgb(255, 183, 77);
        }
        [data-theme="dark"] path {
            stroke: rgb(204, 204, 204);
        }
</style><g role="graphics-object"><title>Set id32 with 3 elements</title><desc>Elements: id5, id10, id20</desc><g id="object-0"><path d="M48.87126511147685 25.640646479885557 L291.0226817721361 26.729970825399725 L290.95110229235894 156.711737870969 L48.14099244835636 156.55072642807824" stroke="none" stroke-width="0" fill="none"/><path d="M51.534962995199734 26.555902533799276 C140.2538650966072 27.862748454667283, 229.44914526959207 27.75633571281203, 291.84842472521905 24.25819172474607 M49.87862690262038 25.353098192007455 C99.30559313466372 24.95807270699989, 148.5647748396434 24.499839018424282, 291.79376777959516 25.0159672967139 M289.28597416447326 25.171839372769885 C290.3077543931387 58.902003527458966, 289.70336044820857 91.8433953453373, 291.8799134164739 155.01699520804686 M290.7502753097803 24.83006149693851 C290.8650753090901 65.9079870875032, 291.5407769330656 106.98245703697374, 290.2290766908559 154.54559771509523 M292.3765817147171 156.4000349830731 C220.6776234934452 156.51931519839786, 153.5066241048154 155.47456919554008, 48.57634647730254 155.1069341007429 M291.05926696078745 155.21985106943353 C217.8749014082117 153.9431927203472, 143.9279966865832 154.03040980639037, 50.6086437327305 154.27680393803982 M50.69060388170361 153.13528333241942 C47.395367598078906 119.04285297949188, 48.0413824595784 81.72462731341558, 49.835532888770175 25.196822987446545 M50.043998826193025 154.06957790130463 C50.19233376476029 104.01649306121436, 48.69929987359951 50.97770210741262, 50.96932328201544 25.165473010107508" stroke="rgb(0, 0, 0)" stroke-width="1" fill="none"/></g><g><path d="M75.0149763728135 88.84322331529582 L125.24260245732579 88.40013582243492 L123.74953733737674 138.09677466809936 L76.56631078937512 139.14580520122627" stroke="none" stroke-width="0" fill="none"/><path d="M76.76284301035746 91.56221487084893 C88.47792989444274 92.29000663746777, 101.9353409024603 92.01349743294112, 125.22816985340553 91.69965435086155 M74.93526283358813 89.73157801827317 C95.21744025768884 90.04022392961366, 114.14471420576407 89.84053379091557, 125.78671292500906 90.20986270346329 M125.4316560640926 88.14855629990193 C123.37467533384049 104.53677452997277, 123.29102142414595 119.16359630575786, 126.56600354115429 138.87530148495995 M124.6349572396912 90.38322590180334 C125.60071674045324 105.2164007338381, 125.74420495326224 120.12054735290076, 125.00029316892558 139.01095915340267 M125.93651275241062 138.62660007602773 C110.63778571656232 138.0971368917421, 94.04728010208649 140.81730460841106, 74.57952373806866 140.54791454952144 M125.61869256643031 140.6957205237963 C112.45787119358666 140.401898838474, 99.67922071833182 139.5915168366693, 75.24504171450741 139.00507135623369 M75.49373544379361 139.04156617290403 C74.4477328370097 125.77266172031501, 75.5625819397202 116.75741771560949, 76.07082012291862 88.49019871692975 M75.84852985926848 140.62477583311232 C75.99060861873208 122.42852004943187, 75.06628933068495 105.14210568101502, 75.9478869237643 90.52585827325781" stroke="rgb(0, 0, 0)" stroke-width="1" fill="none"/></g><text x="100" y="120" style="font-style:italic; " class="id">id5</text><g><path d="M139.01260009054843 89.4574656387413 L196.98847169203637 91.53930968139545 L196.34360338790128 139.89586028116514 L135.74215257883282 138.66405551942768" stroke="none" stroke-width="0" fill="blue"/><path d="M136.32310621095223 90.60581480335914 C148.24616576120826 89.46726212097968, 162.32022936131207 91.71810912350348, 197.4914029572995 91.85104601921398 M137.4554357865305 90.2158038559163 C152.068806243395 90.45824976406723, 166.74219030904928 90.97704167293725, 196.43200206433985 90.2344376236064 M195.563266595584 89.4578651668875 C195.89801269181854 102.26542939177327, 193.64416074757966 110.21905333226482, 196.73861547117446 138.64225333386082 M194.85875653419924 90.9469662915257 C196.00501756619232 102.08214639543992, 195.40735677669755 113.78298005709489, 195.46806494665546 140.2508581596287 M195.20886766345077 141.78416196905007 C176.2174543743539 139.24486613175506, 155.8514404629831 138.94503728708153, 137.6507591936537 141.0068392854009 M195.45684065844887 140.77571660795888 C180.9382894960766 139.6729925201913, 168.19655570867175 141.1966969292889, 136.70488341796803 140.02124650956142 M137.36804103284035 140.70080474234484 C136.80518148763647 125.8906400598534, 137.47125738993086 114.28761714531908, 136.31670052288408 89.02670242883381 M137.4720269691865 140.76558486001133 C137.2240596891957 124.33564341162302, 136.30727140757344 107.1744115884598, 138.32775034547524 89.55588525908604" stroke="#000" stroke-width="1" fill="none"/></g><text x="166.5" y="120" class="id">id10</text><text x="131.25" y="120" style="" class="default">,</text><g><path d="M207.00092265177585 89.31266431390885 L264.51962814721765 88.99980368232234 L265.7798020529233 138.8466160152629 L208.08965814575197 141.147451629844" stroke="none" stroke-width="0" fill="none"/><path d="M206.9763209959329 89.52494408420725 C219.25379739334926 90.01704511188724, 234.24870015110716 90.72804448446745, 265.34052293091173 90.78357797892275 M207.50512882460367 89.88010456785304 C227.73008741905062 89.4737235277443, 249.1751750291434 90.48557523786582, 265.6284206590528 89.13977069868136 M266.2390904336294 91.65874223543256 C264.21043677259826 103.40594738439749, 265.0441323977674 117.1691051276093, 266.8659005698574 138.8925986430853 M265.3419213232035 89.3065822398152 C266.7977501570955 101.923593060381, 266.8902140445295 114.79235465549147, 265.96702226594334 139.54980607103428 M266.8813955297578 141.24412455981275 C243.95066820449924 140.56201744775825, 222.33323697494137 138.11171222840866, 208.16002337015996 141.76523226686373 M265.30433836100866 140.598783392331 C254.6253809763015 139.67428700884457, 242.28046692940453 140.13276380441678, 208.21980013804472 140.03172172286338 M208.9019658903963 138.1367157230014 C208.85444817596593 129.0536525645828, 209.00478432488177 117.11646357345364, 207.91819485282434 88.8749292876111 M207.1051915093941 139.6118140403591 C208.45477139196257 123.22833931405847, 208.49503595083183 104.68614550048817, 207.4042770264809 90.02607358081386" stroke="rgb(0, 0, 0)" stroke-width="1" fill="none"/></g><text x="237" y="120" class="id">id20</text><text x="201.75" y="120" style="" class="default">,</text><g><path d="M50.833163103614304 25.748380912265564 L108.97316415048901 26.912769518382994 L110.85646269274481 73.95257493909055 L50.32206779481348 75.27724849028239" stroke="none" stroke-width="0" fill="none"/><path d="M49.1629187739931 24.978484921953974 C65.67285568736725 23.10444020801449, 79.50722428436876 23.06414087813829, 110.88340842279311 25.025781708575643 M50.10071105478689 25.76876433203339 C68.1837192420882 24.412869972877516, 84.74000522949456 25.614999360788627, 110.85778971796088 25.243109902060993 M109.39796594161443 23.838406566423537 C110.50678498165523 42.026503589047046, 107.98209208743212 58.53993803944429, 108.1601628253266 76.98701673829318 M109.8733152622491 24.628864977972693 C109.00811470698676 45.085893160856884, 109.5785813103982 63.50734211337553, 110.78566600859526 75.24901701137617 M111.31053977352848 74.5998524654417 C90.02245584853486 73.09421772012661, 72.1011531826801 73.19189374641687, 50.86824707870963 73.09873378269495 M110.46199930191467 75.99549979140278 C97.72365040646642 74.47043474725776, 83.56105872611147 74.52818611100591, 50.43111588803497 75.56840812619994 M48.12245439079713 74.36163224805001 C50.55055428160459 58.483214357878026, 47.96449933015161 42.72500297646036, 48.1349368101526 25.99470694531682 M49.8913426655019 74.85318274578141 C49.105657023107106 65.54395843919102, 49.72262982099705 55.07121756024342, 50.017865433756626 25.221308448624136" stroke="rgb(0, 0, 0)" stroke-width="1" fill="none"/></g><g><path d="M229.5831519495832 23.608185426591916 L289.37349418615884 23.515569243498934 L291.0961025678467 76.78606192132499 L231.5787982072461 73.09159914143106" stroke="none" stroke-width="0" fill="none"/><path d="M229.8686085972764 26.732171914450554 C252.60868835746297 26.315019764941553, 273.3896563958646 25.90267622323329, 292.3592417040925 25.344198629514278 M230.51320262867546 25.823945051833135 C246.92306931181875 25.613688030245893, 263.78894929835525 25.523272586240438, 291.336668519448 25.11596703092942 M291.67859400703014 24.17875946937116 C292.68207790798084 34.688146085766874, 291.1143222283921 46.91081285923232, 289.6486108302603 75.19715028333256 M291.81184310593943 25.56128237887347 C291.02335608193243 37.400287213674645, 291.11889963396845 50.9261281765541, 290.7676413938246 75.64033790189644 M291.7577994002054 76.77869426073306 C272.48752061620803 74.73194806134025, 255.29490718373629 73.73560669170774, 232.34447810254733 75.88549393373553 M290.9460516108135 74.02395316617988 C266.4125759364358 75.99844927628766, 242.48155738500392 74.49353812026393, 230.45326118116802 74.41509941876085 M231.0823498083137 75.9825142806954 C230.90841251446804 60.9874105823239, 231.11724754492752 43.085391081030444, 231.87956542426346 23.825825137712062 M230.78436888709504 74.22556689932928 C230.51451557178723 62.135655970967285, 231.72648310752857 48.03756236495852, 230.32272116258045 24.586833740149007" stroke="rgb(0, 0, 0)" stroke-width="1" fill="none"/></g><text x="80" y="55" class="id">id32</text><text x="261" y="55" class="type">set</text><text x="62.5" y="120" style="" class="default">{</text><text x="278.5" y="120" style="" class="default">}</text></g></svg>