<svg data-theme="dark" width="287" height="217" xmlns="http://www.w3.org/2000/svg"><title>Python memory model diagram showing objects</title><style>
        :root {
        --fade-text-color: rgb(0, 0, 0);
        --hide-text-color: white;

        --highlight-value-text-color: rgb(27, 14, 139);
        --highlight-id-text-color: rgb(150, 100, 28);

        --highlight-box-fill: yellow;
        --highlight-box-line-color: rgb(0, 0, 0);

        --fade-box-fill: rgb(247, 247, 247);
        --fade-box-line-color: gray;

        --hide-box-fill: white;

        --primitive-value-color: rgb(27, 14, 139);
        --id-text-color: rgb(150, 100, 28);
        --default-font-size: 20px;

        --highlight-object-fill: rgba(255, 255, 0, 0.6);
    }

        text {
            font-family: Consolas, Courier;
            font-size: 20px;
        }
        text.default {
            fill: rgb(0, 0, 0);
            text-anchor: middle;
        }
        text.attribute {
            fill: rgb(27, 14, 139);
            text-anchor: start;
        }
        text.variable {
            fill: rgb(0, 0, 0);
            text-anchor: start;
        }
        text.id {
            cursor: auto;
            fill: rgb(150, 100, 28);
            text-anchor: middle;
        }
        text.type {
            fill: rgb(27, 14, 139);
            text-anchor: middle;
        }
        text.value {
            fill: rgb(27, 14, 139);
            text-anchor: middle;
        }
        path {
            stroke: rgb(0, 0, 0);
        }
        .highlighted path {
            fill: var(--highlight-object-fill) !important;
        }
    
        [data-theme="dark"] {
            --highlight-value-text-color: #110875;
            --highlight-id-text-color: #6e4409;

            --fade-text-color: #BBBBBB;
            --hide-text-color: #121212;

            --highlight-box-fill: #EDB926;
            --highlight-box-line-color: #FFFFFF;

            --fade-box-fill: #2C2C2C;
            --fade-box-line-color: #666666;

            --hide-box-fill: #121212;

            --highlight-object-fill: rgba(72, 207, 173, 0.3);
        }
        [data-theme="dark"] text.default,
        [data-theme="dark"] text.variable {
            fill: rgb(224, 224, 224);
        }
        [data-theme="dark"] text.attribute,
        [data-theme="dark"] text.type,
        [data-theme="dark"] text.value {
            fill: rgb(144, 164, 237);
        }
        [data-theme="dark"] text.id {
            fill: rgb(255, 183, 77);
        }
        [data-theme="dark"] path {
            stroke: rgb(204, 204, 204);
        }
</style><g role="graphics-object"><title>Str id54 with value "Hello"</title><g id="object-0"><path d="M51.732834532372266 23.976749176334376 L251.43491651804675 24.596616989875926 L251.25251981210212 153.86851954752802 L51.31130466668772 154.08362704727864" stroke="none" stroke-width="0" fill="none"/><path d="M48.634519750006824 25.16650890636235 C89.01211413035402 26.631620417268365, 130.52907369645388 26.74901156068891, 249.10675398650721 23.701409595842282 M50.115048666666915 25.06717543804663 C124.92107831793179 25.886644018327363, 199.07088232702364 27.28267389902574, 249.63477062113452 25.353129885057346 M251.9275227144646 25.520320275591143 C247.37411088350424 54.50569090175569, 247.98464037699011 79.68246570869027, 250.74587912735063 156.75628488477645 M249.31636139650493 25.854263973935172 C252.13748777065388 69.44887792650849, 250.78662145098278 113.07547158678811, 250.18654107548792 155.12894109891442 M251.41040834403032 154.37861488999323 C207.9561171859782 155.940586675312, 169.74518565531804 154.36876219604497, 50.745779348889805 153.4970166751481 M249.58416739599534 154.61283295733728 C170.5930740219498 155.3624524714228, 92.43759551596533 155.78257825432317, 50.42863720046601 155.70558704327476 M50.932418256686915 155.65687804873238 C49.08464544451158 114.67381859679102, 50.20982417776629 72.8007619829877, 51.69958763743314 24.552421791539786 M50.37858067317863 155.7218783055586 C50.20544094581307 104.70665471590385, 48.67290686148717 55.167904952177736, 49.28240969992321 25.355404509082224" stroke="rgb(0, 0, 0)" stroke-width="1" fill="none"/></g><g><path d="M42.937595695926596 18.54581749430615 L255.96058613729235 17.25718119718084 L254.11596556453406 160.4024716892473 L45.0871027023157 161.0935106755739" stroke="none" stroke-width="0" fill="none"/><path d="M43.21939292680187 17.89684087555524 C117.82908470956977 20.3383685654219, 193.0697842911442 19.37577433163054, 255.32032235664488 18.3981360750939 M44.66734361725589 19.50786678160897 C114.95521373707287 18.367847790841484, 185.2417331062016 20.047131680130857, 255.87369276109294 18.59783347863713 M255.21082908487716 17.343014260648683 C257.3043227941076 75.66116433277816, 256.8362984405465 131.16696280043718, 257.5029258971946 160.37037602122425 M256.97388874655445 18.664512175775844 C255.10690182564198 68.69346200786327, 255.25132768658838 118.72702535837055, 255.3746792164768 161.08321274501736 M257.6266841373421 160.81703112595713 C175.58807547841226 161.59873941796945, 91.40524072298342 162.108747832593, 43.28250013075879 160.97926053428944 M256.4677900559047 161.54184487213539 C180.5728955971938 161.6635532472191, 105.61423260979183 162.29625116459795, 44.05898308796643 160.37928516859688 M43.173716083922166 161.87509546012666 C44.25384970446695 107.67908506364272, 45.617603088190975 48.856962957144574, 42.57773152979037 19.06444202718371 M43.95802887866476 160.26437027009956 C44.48012588098179 112.71127445708086, 45.163244373141566 65.94534354711297, 44.85372560244512 18.75864301817578" stroke="rgb(0, 0, 0)" stroke-width="1" fill="none"/></g><g><path d="M50.571958290314974 25.304771281323028 L110.62416342071063 24.427440850356973 L109.47165185683522 76.05386103322088 L48.74558482116917 76.54514553798073" stroke="none" stroke-width="0" fill="none"/><path d="M49.9817853637084 24.22277787755873 C62.36720724014424 27.365055520512765, 78.74142018864022 26.21035727342364, 110.28240990933607 25.204639283125243 M49.81431833497601 24.99261854911358 C72.01568416744665 25.1533160090163, 95.17450801258404 24.350336816365804, 110.76403394313726 24.74662414881919 M110.09607391889232 23.006598703916453 C110.31715439720647 41.05949132897444, 112.28841764131711 59.44239938022544, 109.21836415763129 75.4614685542705 M109.44332682435835 25.699762329126177 C110.6658436980105 40.246794221750505, 109.48497127294888 54.273660561859494, 109.10805616722675 74.99773437143509 M108.11182133248502 73.33648644573252 C89.59405454714909 73.87416454888243, 67.81494082900191 74.58214614835379, 50.94951986120955 75.78480598339746 M110.93737065590503 75.19794231194892 C97.55231207805599 74.55680896954877, 85.36869481018515 75.51714040110565, 49.12309032095458 75.0217667431838 M49.52456373609153 76.57825630022596 C52.11109389129306 65.28176279315039, 50.99594225466375 55.783117987040484, 50.548304515491076 24.124333429572943 M50.51423329598755 75.74031448430623 C51.371835935235 59.18197712700715, 51.08459899496141 41.93686811248568, 49.692962213611125 25.037929880988543" stroke="rgb(0, 0, 0)" stroke-width="1" fill="none"/><text x="80" y="55" class="id" aria-label="id: id54">id54</text></g><g><path d="M190.24998884546162 26.35544095634058 L250.75601764234946 24.757547897567 L248.0676249345609 73.25002164422942 L188.55159769788426 75.15029703606946" stroke="none" stroke-width="0" fill="none"/><path d="M189.54941812113384 23.99535948448704 C203.42050012387077 23.75611604263706, 219.0424122989797 23.256754173727117, 249.3843426424331 24.14501190528656 M190.43183651893736 25.23480662823481 C207.66809047682 25.748164202270754, 227.2528632764393 24.43725715977721, 250.2383123088214 25.445251986503884 M249.2061132839822 26.98791280347396 C251.76504181065872 38.72597540385314, 250.0335876586169 51.56049044338344, 248.5522366153038 75.68101416770122 M250.60325608268926 24.375933177202793 C250.49109404233985 44.94936303306254, 250.03888062418122 63.53823308083415, 250.51918414536883 74.39950669939107 M250.7212649854487 74.5558213258902 C235.4398851481194 73.14058824026782, 223.93787593996967 73.6039244807857, 190.44081792090503 75.24307601201645 M249.75489850278532 74.03881714860063 C230.8544243884846 75.39229043422624, 211.2306352412749 75.30221601470308, 190.90570515563243 74.91288163744719 M189.53147892890615 73.8830933467687 C188.08746894257257 59.02302223921717, 190.49434502541138 39.42949193117639, 190.20058886383273 24.66622283018846 M190.82582795444767 75.85812007347853 C188.69171390851432 57.99867484064015, 188.8377398871695 41.22980440230217, 190.9660895772199 25.86831320929035" stroke="rgb(0, 0, 0)" stroke-width="1" fill="none"/><text x="220" y="55" class="type" aria-label="type: str">str</text></g><text x="150" y="115" style="font-style:italic; font-weight:bold; fill:black; " class="value" aria-label="value: &quot;Hello&quot;">"Hello"</text></g></svg>