<svg width="287" height="217" xmlns="http://www.w3.org/2000/svg"><title>Python memory model diagram showing objects</title><style>
        :root {
        --fade-text-color: rgb(0, 0, 0);
        --hide-text-color: white;

        --highlight-value-text-color: rgb(27, 14, 139);
        --highlight-id-text-color: rgb(150, 100, 28);

        --highlight-box-fill: yellow;
        --highlight-box-line-color: rgb(0, 0, 0);

        --fade-box-fill: rgb(247, 247, 247);
        --fade-box-line-color: gray;

        --hide-box-fill: white;

        --primitive-value-color: rgb(27, 14, 139);
        --id-text-color: rgb(150, 100, 28);
        --default-font-size: 20px;

        --highlight-object-fill: rgba(255, 255, 0, 0.6);
    }

        text {
            font-family: Consolas, Courier;
            font-size: 20px;
        }
        text.default {
            fill: rgb(0, 0, 0);
            text-anchor: middle;
        }
        text.attribute {
            fill: rgb(27, 14, 139);
            text-anchor: start;
        }
        text.variable {
            fill: rgb(0, 0, 0);
            text-anchor: start;
        }
        text.id {
            cursor: auto;
            fill: rgb(150, 100, 28);
            text-anchor: middle;
        }
        text.type {
            fill: rgb(27, 14, 139);
            text-anchor: middle;
        }
        text.value {
            fill: rgb(27, 14, 139);
            text-anchor: middle;
        }
        path {
            stroke: rgb(0, 0, 0);
        }
        .highlighted path {
            fill: var(--highlight-object-fill) !important;
        }
    </style><g role="graphics-object"><title>Str id54 with value "Hello"</title><g id="object-0"><path d="M48.71113135450366 25.009588445259748 L249.21406167871683 24.652386495719007 L248.38948737945483 154.53931526032068 L49.59593110586119 153.92728865146023" stroke="none" stroke-width="0" fill="none"/><path d="M49.92494594023452 26.164138614659628 C114.67364701164293 24.84214081693682, 175.14571749478657 24.773046899109275, 249.08490402876257 24.42282337810591 M50.140088366161365 25.09506717159076 C119.48128656771381 24.353812744065696, 190.46784265716204 22.79431718961723, 250.83383183572067 24.73233843321122 M251.9872209811816 25.096091356778814 C250.4647240831656 66.29707500275669, 251.7838427163613 107.07808223737086, 249.16448857271988 155.95122314120724 M249.64250579643175 24.42266275111437 C250.64871670241428 71.37730192952257, 249.38233723332377 117.11565346284979, 250.35996850813214 155.28756662291585 M250.26983745782118 156.0399129606971 C202.2373606122227 153.8150544161345, 151.1622790113041 156.2041725094134, 50.286985596723376 156.29135687220386 M250.7144417750426 154.14036876427895 C203.2289467703407 155.78419575742427, 157.49075040554155 156.63510834381898, 49.38667789141333 155.0131691209217 M51.837157860997 156.40877019403985 C49.4563954726103 107.05037833365517, 47.873939032369414 58.57219618470162, 48.53114596221641 25.383013896599344 M50.07671537769593 154.41523038509573 C49.98500344092245 125.43316055964446, 48.85539708644295 95.90736703795528, 49.80556608060624 25.502187640574412" stroke="rgb(0, 0, 0)" stroke-width="1" fill="none"/></g><g><path d="M45.4992763905063 18.43706121421372 L255.91326284127933 19.980314551323417 L257.1829977323778 159.20059894373034 L44.45304267782484 160.84391732172526" stroke="none" stroke-width="0" fill="none"/><path d="M45.62238255978404 19.491229653389617 C94.5014645308154 16.0636226341302, 145.54565569751497 17.176205393113218, 256.6714667284368 17.86967148264468 M43.135767909599934 19.30867473400472 C103.14337799190965 17.88963622480636, 164.221542834655 17.536103627447797, 256.65258512262244 19.811086818396408 M257.69801919323555 19.335769419345333 C256.86235289971773 50.31259859664539, 255.02413953250155 81.19541712014595, 255.02701731203686 161.11463239124296 M255.22263598140546 19.55886346190713 C255.53135581291681 66.92723540907939, 256.2417335479645 116.34836836116543, 256.66855518349814 160.57666284128044 M255.69884439016167 159.78889541389148 C189.40395270102317 160.5104943769011, 121.80364202658247 159.45968197783085, 43.584554367771645 162.28220919057162 M256.7750268613408 161.62290225324767 C179.80008010187046 163.18317669119514, 101.50795107050477 161.9838092196908, 43.75562636083475 161.6909067451965 M43.143321254898154 160.6566074711713 C44.613617570911956 114.18591721307104, 41.553484007969885 66.32552670806338, 42.68199491806305 18.01519693492004 M44.24020417388297 161.9204141663868 C44.30812598692113 110.59152310453189, 43.80316785871835 59.5536571721804, 44.84595070792057 18.567386243154562" stroke="rgb(0, 0, 0)" stroke-width="1" fill="none"/></g><g><path d="M49.347773565146426 23.960638597305838 L110.22269482440885 26.0290443652793 L111.35240392589606 73.37357139726028 L51.270345241125355 73.06818950729652" stroke="none" stroke-width="0" fill="none"/><path d="M48.16111200335661 25.342659551959052 C63.632779583708874 24.97362948691479, 74.70675063253547 24.187867563991848, 108.23533160346808 23.0870672884289 M50.60403056934613 24.735837470960973 C70.95180479239136 23.799257447433654, 93.40255461546806 24.108275712370343, 109.05519336001227 24.91103439215486 M108.00505675250653 23.77676381387247 C111.41832597883186 39.879372743998516, 111.03577897468543 55.194012481864256, 110.49648361059914 73.83749842479504 M110.66468458816172 24.844891623232776 C109.81041646646312 44.35336195703546, 109.33794831615003 63.13136799416719, 109.36013401210575 74.92452349391799 M108.5848420145706 73.62694130241641 C99.34895314691039 73.3845199081961, 86.69288642575387 73.45310949774921, 48.23094298234393 73.88963986231568 M110.71830881956645 75.02978471770132 C92.32748079799303 74.41465065916846, 75.20935006467498 75.10745887115347, 49.122907702010416 75.65312154084035 M48.31761669250997 74.09473882334937 C51.28359309267579 59.33979709764248, 51.544214087645976 44.42494361261615, 49.0989423599125 23.720181406880577 M50.32233919041666 74.80559592483684 C48.70969888621546 59.90866311250684, 50.265511733944436 47.17696880351208, 49.23227811373379 24.600967072904837" stroke="rgb(0, 0, 0)" stroke-width="1" fill="none"/><text x="80" y="55" class="id" aria-describedby="desc-0">id54<title id="desc-0">Object id</title></text></g><g><path d="M188.67689821008815 26.06053551553354 L250.4760234187907 26.75051578437453 L248.51960196950148 74.13492899000717 L191.72141624946465 75.35351285354878" stroke="none" stroke-width="0" fill="none"/><path d="M189.35192131233262 23.408233063005934 C204.65846342768407 23.852235044103526, 218.48432533125998 24.575894959242785, 248.096129194763 25.016208591137218 M190.7242534452352 25.396251472085847 C202.84040085889742 25.00675980030338, 214.9964793970817 25.614582442154177, 249.4109364401121 25.502966727420436 M248.5284555991394 23.80187973353756 C248.24789865368513 35.03251964271877, 251.16044371234037 48.40394636293112, 251.51923239698715 76.77400561479106 M249.96221838277202 25.253895286274695 C249.99626812871986 44.14337613708923, 251.21482750880446 64.392621734968, 249.03853973559805 74.71915005882381 M250.80602307606776 76.0084136067274 C230.52161676668698 76.7353642259592, 212.41532301517938 74.41257764401327, 190.23168465597755 75.5647726395541 M249.0014094051754 75.82577264092878 C226.1303628559749 76.04271329937468, 203.58847538560497 75.48592010549399, 189.13647912559128 75.42803670991938 M190.1079326527394 74.76018208985141 C191.74771706427464 57.63554991208334, 188.27173159618505 40.68656370909941, 191.83463537489314 25.726019176719948 M190.32223079125174 74.63203832608752 C190.98113778202202 64.9990780965985, 189.68693566852937 53.67148597497728, 190.01418324743273 25.545996992123964" stroke="rgb(0, 0, 0)" stroke-width="1" fill="none"/><text x="220" y="55" class="type" aria-describedby="desc-1">str<title id="desc-1">Object type</title></text></g><text x="150" y="115" style="font-style:italic; font-weight:bold; fill:black; " class="value" aria-describedby="desc-2">"Hello"<title id="desc-2">Value</title></text></g></svg>