<svg width="287" height="292" data-theme="dark" xmlns="http://www.w3.org/2000/svg"><style>
        :root {
        --fade-text-color: rgb(0, 0, 0);
        --hide-text-color: white;

        --highlight-value-text-color: rgb(27, 14, 139);
        --highlight-id-text-color: rgb(150, 100, 28);

        --highlight-box-fill: yellow;
        --highlight-box-line-color: rgb(0, 0, 0);

        --fade-box-fill: rgb(247, 247, 247);
        --fade-box-line-color: gray;

        --hide-box-fill: white;

        --primitive-value-color: rgb(27, 14, 139);
        --id-text-color: rgb(150, 100, 28);
        --default-font-size: 20px;

        --highlight-object-fill: rgba(255, 255, 0, 0.6);
    }

        text {
            font-family: Consolas, Courier;
            font-size: 20px;
        }
        text.default {
            fill: rgb(0, 0, 0);
            text-anchor: middle;
        }
        text.attribute {
            fill: rgb(27, 14, 139);
            text-anchor: start;
        }
        text.variable {
            fill: rgb(0, 0, 0);
            text-anchor: start;
        }
        text.id {
            cursor: auto;
            fill: rgb(150, 100, 28);
            text-anchor: middle;
        }
        text.type {
            fill: rgb(27, 14, 139);
            text-anchor: middle;
        }
        text.value {
            fill: rgb(27, 14, 139);
            text-anchor: middle;
        }
        path {
            stroke: rgb(0, 0, 0);
        }
        .highlighted path {
            fill: var(--highlight-object-fill) !important;
        }
    
        [data-theme="dark"] {
            --highlight-value-text-color: #110875;
            --highlight-id-text-color: #6e4409;

            --fade-text-color: #BBBBBB;
            --hide-text-color: #121212;

            --highlight-box-fill: #EDB926;
            --highlight-box-line-color: #FFFFFF;

            --fade-box-fill: #2C2C2C;
            --fade-box-line-color: #666666;

            --hide-box-fill: #121212;

            --highlight-object-fill: rgba(72, 207, 173, 0.3);
        }
        [data-theme="dark"] text.default,
        [data-theme="dark"] text.variable {
            fill: rgb(224, 224, 224);
        }
        [data-theme="dark"] text.attribute,
        [data-theme="dark"] text.type,
        [data-theme="dark"] text.value {
            fill: rgb(144, 164, 237);
        }
        [data-theme="dark"] text.id {
            fill: rgb(255, 183, 77);
        }
        [data-theme="dark"] path {
            stroke: rgb(204, 204, 204);
        }
</style><g id="object-0"><path d="M51.86899296263587 25.987176294020827 L250.17557609742624 26.848838214311435 L249.5645747656108 153.0431249452551 L49.97064595108038 153.07512973263005" stroke="none" stroke-width="0" fill="none"/><path d="M51.33338732533839 26.117949438395392 C125.6150130229987 25.084683400475573, 202.2052739620858 26.36472065844156, 251.46257808263462 25.066318103878068 M50.78724686895818 24.67439356793312 C95.60924809621766 25.228070474871057, 140.67178071875463 25.106434049745314, 249.44029315087027 25.617659972552534 M251.29616035976832 24.08590528971953 C248.68885597211238 57.45248644904693, 249.4620275635713 91.37324140641068, 249.67254334102034 153.2182936392042 M249.24752655411058 25.984770117664308 C249.09604162239427 75.02928852359963, 249.17478285911312 122.74320628193925, 250.88413013482477 154.74759640040796 M249.8334958448988 156.49951625162575 C202.42722326774464 155.18487687944562, 154.01369763558526 154.5092365357251, 49.60232159723154 154.30608039010266 M250.4229321834598 155.33902864601887 C204.40639390910286 156.1692113365679, 160.1353540644456 156.14230568579765, 49.6157523638549 155.35091387746317 M51.36745174915957 154.57894375328158 C52.47155257759665 114.4114969336173, 49.48653367902243 74.5098652434004, 50.64778118587289 23.77379684648325 M50.709432559797804 155.44904921465317 C50.60501165406585 121.47343545283772, 50.588222200130815 87.94788943843221, 49.673464577585754 25.921597260204873" stroke="rgb(0, 0, 0)" stroke-width="1" fill="none"/></g><g><path d="M43.51884026531474 19.819388352495515 L257.4825434901714 17.924560699124868 L254.15203329262584 159.71776300570593 L44.96886568205659 161.1676097388001" stroke="none" stroke-width="0" fill="none"/><path d="M44.89993405824265 17.672503498515788 C107.56499086191558 19.487330157695283, 171.7687761238843 20.678497719671235, 255.72131153326308 19.975172999269958 M44.50665770469487 18.33661633330026 C120.38192839808917 18.528095727793275, 195.8776248295994 18.6996041507586, 256.6595933927309 19.341218179634158 M254.93079987512664 17.153208334821258 C258.25809169651683 52.6393785500703, 258.70117998252783 86.45964532552286, 257.35986395642647 159.80109173896352 M256.6730458778881 18.87006051922332 C255.97332972980436 70.44919066393958, 254.68572235995939 123.18030741668152, 256.3752988070768 160.93348694561595 M256.3650642845962 162.1706018272817 C178.5753816029784 161.39610265659294, 103.17742174460146 164.16732839938226, 45.15975963880547 162.67154728828152 M256.27862086220966 161.44679453389796 C200.39556659120208 159.187083728637, 144.87741295951395 159.50062353452745, 44.571062195767865 161.14311209638433 M43.08084225735881 161.6742649134951 C43.527227815318106 117.07274920345169, 44.910766439992194 72.5672378955724, 44.399473773486875 19.715482203528218 M44.75209523406598 161.84436093127906 C43.05501731357685 131.2499454369457, 43.19875099285907 99.47411967629843, 44.484784528249264 18.44782965968873" stroke="rgb(0, 0, 0)" stroke-width="1" fill="none"/></g><text x="150" y="115" class="value">4</text><g><path d="M51.60011430293599 23.42941177223444 L110.93778717721547 23.319347238282376 L108.23571665469503 76.69671820094568 L48.64877738436271 76.5402971050266" stroke="none" stroke-width="0" fill="none"/><path d="M50.188850776399285 23.387871184253537 C66.76844937017931 25.926034794670286, 83.2940163326048 24.902688421216165, 108.80638157676911 23.12501972424062 M49.73830958974984 24.929050941961524 C69.97495510748621 24.567393091057134, 89.91789949712185 25.716658204718293, 110.55727068241872 25.09406041409918 M109.7063419078656 26.076771381607212 C112.03125189098712 42.15827281207134, 110.64260743778595 57.208829170957266, 110.94053666364117 73.35941117768941 M110.31191754052676 24.512853393452946 C109.61105025183839 44.783648438297845, 109.50127915553402 65.2947529116675, 110.63887244687669 74.3828922128997 M108.78948522055826 73.51027219787503 C88.53036120963803 74.17567533455798, 67.00348803583034 74.04971922652857, 48.15907410062441 73.97428579322941 M110.06732921719541 75.44570304121154 C97.52854950476373 74.83010247546578, 84.78223582325757 74.51092885492945, 49.76842363882393 75.24416367713468 M49.3707010587406 74.65880790034899 C52.06969138130245 58.18268825887458, 51.73188737508421 43.44699898065879, 50.44153146420669 26.924523620693286 M50.50553643879113 75.19756489812458 C50.22996080309508 59.05520221576904, 51.22488244692003 42.437952339308836, 49.40370152122858 24.475437919840676" stroke="rgb(0, 0, 0)" stroke-width="1" fill="none"/></g><g><path d="M190.99236899476705 23.61495351512636 L251.93947810861368 24.83409818653848 L248.1088726813192 73.85380233302257 L189.88699020555296 74.20421839401425" stroke="none" stroke-width="0" fill="green"/><path d="M190.33146417095455 23.198320459950484 C203.6833503998441 26.194467700541278, 214.40402554279308 23.55425497837007, 251.02664837940222 26.956663627355724 M189.69214465943216 25.524889390031596 C204.53936467278638 25.654024353203518, 221.66969587092066 24.713023171171514, 250.06755505788794 25.120119136238596 M249.09384466332918 23.587101899659213 C248.3267255926975 37.306832593173425, 248.92802515206853 46.611840502580634, 248.93095745540603 75.22165172334562 M249.1409225906494 24.245389021446115 C249.83872139208415 37.1772115628108, 249.4468945969608 51.62696645013713, 250.08181433135258 75.85128299612316 M249.1840087789483 76.21450820834932 C232.71627857671035 75.80051020650328, 217.74571169906213 76.22745644870905, 188.11899135198829 75.86776114328015 M250.83276860778267 75.13831933646776 C236.62728095937314 75.0639331617198, 222.45449728191042 74.61133408641075, 189.31088343928312 74.67415355538205 M188.06942679805923 75.9389335452802 C189.96656906475965 61.47826776351248, 191.85574201116242 50.848612935805484, 189.49706833955196 24.87857786753945 M190.23342474425976 74.50510076564947 C191.07757592749263 64.82225372437331, 191.23408264375226 53.32777292540501, 189.55154850750557 24.799593574866304" stroke="#000" stroke-width="1" fill="none"/></g><text x="80" y="55" class="id">id54</text><text x="220" y="55" style="font-style:italic; " class="type">int</text></svg>