<svg width="287" height="217" xmlns="http://www.w3.org/2000/svg"><title>Python memory model diagram showing objects</title><style>
        :root {
        --fade-text-color: rgb(0, 0, 0);
        --hide-text-color: white;

        --highlight-value-text-color: rgb(27, 14, 139);
        --highlight-id-text-color: rgb(150, 100, 28);

        --highlight-box-fill: yellow;
        --highlight-box-line-color: rgb(0, 0, 0);

        --fade-box-fill: rgb(247, 247, 247);
        --fade-box-line-color: gray;

        --hide-box-fill: white;

        --primitive-value-color: rgb(27, 14, 139);
        --id-text-color: rgb(150, 100, 28);
        --default-font-size: 20px;

        --highlight-object-fill: rgba(255, 255, 0, 0.6);
    }

        text {
            font-family: Consolas, Courier;
            font-size: 20px;
        }
        text.default {
            fill: rgb(0, 0, 0);
            text-anchor: middle;
        }
        text.attribute {
            fill: rgb(27, 14, 139);
            text-anchor: start;
        }
        text.variable {
            fill: rgb(0, 0, 0);
            text-anchor: start;
        }
        text.id {
            cursor: auto;
            fill: rgb(150, 100, 28);
            text-anchor: middle;
        }
        text.type {
            fill: rgb(27, 14, 139);
            text-anchor: middle;
        }
        text.value {
            fill: rgb(27, 14, 139);
            text-anchor: middle;
        }
        path {
            stroke: rgb(0, 0, 0);
        }
        .highlighted path {
            fill: var(--highlight-object-fill) !important;
        }
    </style><g role="graphics-object"><title>Int id54 with value 4</title><g id="object-0"><path d="M48.098306036569134 23.829710177041456 L251.45363089135975 23.658367518709973 L249.3088753911297 156.49301989082377 L50.20322513819599 156.4405057704794" stroke="none" stroke-width="0" fill="none"/><path d="M51.51540518090862 25.18969709652653 C126.63538046255641 26.514901373739942, 204.6372922008644 26.174794619994376, 250.83106493570054 25.36910276207288 M50.3452144685634 25.562466647204026 C93.13474757237255 25.03782500018989, 136.59162861974414 25.757117661768234, 250.73352258224395 24.465289680567977 M249.96696143085404 23.313743823823987 C251.07857734624437 57.102064527729866, 249.0111275729359 85.64413394937246, 250.5483073923372 153.43560105566493 M249.2887561755099 25.431806254320875 C248.22773804109073 75.49190686031724, 249.37473679860312 125.95302484798835, 249.73276788908038 155.99795536044218 M250.0322342019109 155.59080530083966 C193.83790115207952 154.63058319064433, 137.3090267869286 157.2853457947927, 48.69530090486809 154.5016799919395 M249.96058883229225 155.8277362478861 C175.4076817530716 155.3321710394716, 101.31312722882495 155.11648849639315, 49.7815360248188 155.15756415076447 M51.70550079430689 153.11688372918718 C49.136023324584094 117.46422651647885, 50.924265443617905 75.31153450319935, 48.725211568204436 25.937202736508905 M50.98546912681409 154.74836688275124 C50.62483322113369 108.96272866642492, 50.6572997437245 61.16347554385548, 50.733710588275756 24.81356237575837" stroke="rgb(0, 0, 0)" stroke-width="1" fill="none"/></g><g><path d="M42.404070858038565 19.166451612280994 L254.33671261177784 17.02575331657252 L254.14653115959334 161.4175923214999 L42.12835674721032 162.15511577461467" stroke="none" stroke-width="0" fill="none"/><path d="M43.52199160885987 18.082049311230357 C129.52163593735563 17.862965459342075, 212.7045798352532 19.670009465980655, 257.6130945751086 17.567634336018386 M43.547147575842786 19.28897198419643 C89.84193013346994 18.246979152215225, 135.69710749827004 17.673849306252443, 256.1042601034943 18.228220828274413 M255.92611862482676 18.178454446185604 C257.67923869108625 68.86811015215791, 258.4112586846054 117.58669822665527, 257.356755947082 161.814689682411 M256.2557363501821 18.011086641771495 C254.56332981074942 48.704613309445385, 254.66598925343433 79.11394885754498, 256.88559610126725 161.21858523926628 M255.47086949859366 161.50891776891558 C213.3643989574357 159.5436235251846, 170.65002717114683 160.5344625435591, 45.433043686669485 160.21151421151274 M255.76017247536439 161.84568688810674 C209.99450682801864 161.59624750132502, 161.95033613230302 162.1952496610584, 43.33140598867243 160.92817981024328 M44.85344014648418 162.20103123494928 C42.291875692728325 110.66165005603538, 43.38390378801751 66.15749292936047, 44.21861370125072 17.41238373744165 M43.46454142389413 161.01045096048682 C43.01077612569721 123.24641438379932, 41.96319720657886 87.89750032112669, 44.72136643889304 19.559346194933912" stroke="rgb(0, 0, 0)" stroke-width="1" fill="none"/></g><g><path d="M51.71069176009959 25.766181345431477 L108.13645855483965 23.182503078342858 L111.84452150221658 74.21382603059234 L49.715485972186144 74.25457212363239" stroke="none" stroke-width="0" fill="none"/><path d="M48.246701352754535 23.34893077849263 C62.39239588025903 22.827330073370327, 76.53414911631637 23.338795314369825, 109.17160124518162 24.497054183423852 M49.66540582512907 25.12693011828072 C66.76632949015648 24.754189018284634, 82.57547893696487 24.19939225082659, 109.037196840263 24.19520311853129 M108.13362387221024 26.270804980781577 C111.73120903401005 37.346663942915114, 108.30662463847801 46.90336643238785, 110.60133928450229 75.45255012975679 M109.5487484556006 24.984004180655734 C108.53330038321042 44.768807877102255, 109.22318137653347 63.927124410769956, 109.88638028503725 74.15213755587297 M108.57741768241806 73.01170025993201 C94.16462256885306 74.28128878079278, 74.14916625307275 75.85197749577578, 51.61332466947501 73.42185028206214 M110.02805540007948 74.12249901334692 C86.73168519612571 76.07939573412499, 63.79296953981964 75.57082285779201, 49.53744262840257 74.83377375245755 M49.302051921922754 73.48549607268431 C50.809397441226224 59.0845223319682, 49.5788125023461 44.12963932862412, 50.67586863507793 24.924686554836505 M50.65861859935853 75.90870374370887 C49.136959069920806 61.22362201855995, 50.21518269914264 48.250472981502796, 50.326221843530334 25.764625226771287" stroke="rgb(0, 0, 0)" stroke-width="1" fill="none"/><text x="80" y="55" class="id" aria-label="id: id54">id54</text></g><g><path d="M189.98834178810458 25.66842896895185 L250.31960261231336 25.430966208042975 L249.20616353083014 76.64386379637475 L190.5970902483837 74.95055351376014" stroke="none" stroke-width="0" fill="green"/><path d="M189.57407952309376 26.218452580044055 C203.0360270609549 26.018501529591596, 217.78345258298384 23.647583318027806, 251.9026310373556 24.44773479565599 M190.625319596732 25.52806732876952 C209.61767142617998 23.67863947404325, 229.9331137729684 25.0905547373842, 250.04275230213568 24.415135955253074 M248.05611535016456 23.868146013393464 C248.93266215569378 36.885996979440364, 251.11235964944893 52.04107871209916, 250.3066645797891 75.38484450592694 M249.2859097097732 25.039673451099127 C249.0438029960818 43.18099619141591, 250.40937918013748 60.47763773476215, 250.53785368404334 75.49839608567666 M249.77606810207064 76.9767838687166 C235.3008448621687 74.60396626404038, 218.30284283248952 75.22614384161936, 189.10761839371827 75.59796505997132 M250.68941327684615 75.11112247737846 C229.95531750834013 74.28425005465202, 210.3797787187813 73.80038961572716, 190.01560742539073 75.79013549573205 M189.73257525418123 76.90641057725527 C191.38220643206037 62.04011506754991, 189.48568227380306 51.23114542624759, 189.57556525292384 24.863106143691745 M190.3344287672659 75.06395802666921 C190.58581757194577 64.09545574975192, 189.93210222670064 53.55946995260369, 189.9514513492067 25.903692003405467" stroke="#000" stroke-width="1" fill="none"/><text x="220" y="55" style="font-style:italic; " class="type" aria-label="type: int">int</text></g><text x="150" y="115" class="value" aria-label="value: 4">4</text></g></svg>