<svg width="262" height="217" xmlns="http://www.w3.org/2000/svg"><title>Python memory model diagram showing objects</title><style>
        :root {
        --fade-text-color: rgb(0, 0, 0);
        --hide-text-color: white;

        --highlight-value-text-color: rgb(27, 14, 139);
        --highlight-id-text-color: rgb(150, 100, 28);

        --highlight-box-fill: yellow;
        --highlight-box-line-color: rgb(0, 0, 0);

        --fade-box-fill: rgb(247, 247, 247);
        --fade-box-line-color: gray;

        --hide-box-fill: white;

        --primitive-value-color: rgb(27, 14, 139);
        --id-text-color: rgb(150, 100, 28);
        --default-font-size: 20px;

        --highlight-object-fill: rgba(255, 255, 0, 0.6);
    }

        text {
            font-family: Consolas, Courier;
            font-size: 20px;
        }
        text.default {
            fill: rgb(0, 0, 0);
            text-anchor: middle;
        }
        text.attribute {
            fill: rgb(27, 14, 139);
            text-anchor: start;
        }
        text.variable {
            fill: rgb(0, 0, 0);
            text-anchor: start;
        }
        text.id {
            cursor: auto;
            fill: rgb(150, 100, 28);
            text-anchor: middle;
        }
        text.type {
            fill: rgb(27, 14, 139);
            text-anchor: middle;
        }
        text.value {
            fill: rgb(27, 14, 139);
            text-anchor: middle;
        }
        path {
            stroke: rgb(0, 0, 0);
        }
        .highlighted path {
            fill: var(--highlight-object-fill) !important;
        }
    </style><g><title>Group of 1 objects</title><g role="graphics-object"><title>Str id54 with value "Hello"</title><g id="object-0"><path d="M23.50732636269588 26.56577909546755 L223.63038393125973 24.151334534883897 L225.63593520460097 155.51960814067152 L23.505172807073436 153.4077790287324" stroke="none" stroke-width="0" fill="none"/><path d="M25.391326381382925 24.411784089207757 C98.65273758247281 26.0994261609354, 174.04950544480096 27.326372147397553, 225.22144437990866 26.312471460204 M24.959991086708275 24.850994163930395 C77.27093533928243 24.931274276689628, 128.19118670178898 23.691051973692804, 224.43798342566538 25.24276653193361 M225.77188962239975 26.39967517980198 C223.92497272993154 55.17543291030458, 226.07360785253107 85.23740739569796, 223.53950486342114 155.43388587088702 M225.66628974793136 24.7744236831186 C225.5522261006242 67.16475873295317, 225.57543028252738 111.0438440098773, 224.14244016329363 154.33906349423575 M224.02158251941879 153.82659876350667 C184.83165499890282 157.64665148247943, 140.2189778243089 156.81577964437332, 26.505345385284006 155.11408714202872 M224.56265298546654 155.5648599391475 C170.88029192781784 155.25200209964953, 115.24484012802395 155.4700606809166, 24.10968618201789 155.1523312904862 M25.855140660508305 155.94564609372645 C25.904497714678534 123.81244591839663, 24.116332146595514 91.2238076691992, 25.126157279651036 26.24746575440207 M24.006276579940007 155.9830223496839 C25.463650932346628 107.84315752747563, 24.756557437825347 60.68946622395022, 24.70145581623093 24.052391912111037" stroke="rgb(0, 0, 0)" stroke-width="1" fill="none"/></g><g><path d="M20.903994086431602 19.983370246061735 L231.63227841120988 19.474006907655063 L229.90887358048332 159.34112438868362 L17.548607373395118 161.99089362031597" stroke="none" stroke-width="0" fill="none"/><path d="M20.72770739474406 17.702119404061133 C65.04809406395918 19.535905302333603, 111.23893946469346 18.598694258933907, 232.69536528055636 19.94450211478993 M18.46534410281708 18.9878008584193 C100.86367402157087 18.203052417371655, 182.70325295045404 18.049994465010325, 231.81120632838767 19.234284198614333 M231.60442889925628 20.993744585666917 C229.85694683950348 72.51773281528679, 233.63669148637007 126.41474563391064, 230.89611449099345 162.9157043776844 M230.1816013848522 18.819947250736536 C229.95621931220472 51.50820712058813, 229.73042341122007 85.77660195388452, 231.7317692692117 160.09163458174515 M231.67351807388968 159.6453347055038 C164.43577368006223 160.51930113446994, 97.95453708436904 161.08048806285743, 18.81797599373482 162.51528167937596 M231.57919007517467 161.03597376693668 C147.47666193867138 162.3555571971672, 65.1193402417252 163.0159196428258, 19.04923446412632 161.8218295157228 M18.156921007453548 161.06697867860967 C18.87049794819052 120.40161587810196, 16.61332807405556 77.02171404735353, 20.883055676191752 20.547547347142448 M18.100476831511294 160.0795719593797 C19.375432894451976 129.493611480848, 18.154569885848424 97.03052390238521, 18.746884543042786 19.31160241407716" stroke="rgb(0, 0, 0)" stroke-width="1" fill="none"/></g><g><path d="M26.275906116825624 24.815430019137647 L83.3335960819496 26.406717172694407 L83.89177034478509 74.30733475227528 L26.187460246080732 73.13759353869042" stroke="none" stroke-width="0" fill="none"/><path d="M25.799473766051936 25.03724037150711 C47.02488688884687 26.34370729933013, 66.24357958638888 24.943834856129186, 85.29273270291581 26.974651373195524 M25.52579226875308 25.826884328546353 C46.059986162846904 25.924230124812603, 67.73433778374493 25.623593954005162, 85.08037985231364 25.368139389175663 M86.05797635509377 24.36581019671708 C86.78543543119734 41.611789411970605, 85.23155077734471 60.841812168632764, 84.95787328433815 75.54217531861929 M85.57615020378985 24.451566951305686 C84.99934939097993 35.881235434294446, 85.5909394751368 46.7499272203522, 85.48908176871205 75.49569101934796 M86.30974685514408 75.98230898445132 C63.498415144276066 76.53080995721366, 42.90565475177478 72.61636652772195, 24.998424775641478 76.84777809976885 M85.501828033313 75.54015332410907 C67.20221743991478 74.16945330440579, 48.6009730519231 73.94164966598342, 25.80424460349496 75.68090369139881 M25.858217409996573 75.85063090357876 C26.84656380770066 60.76736030740936, 24.06022743155025 43.93005912240955, 25.666825658913773 23.28844528982497 M25.256039520172685 74.56082799360678 C24.15391562919342 62.70288539712695, 24.824506857403208 49.39795223714356, 25.677090290808255 24.184203887880912" stroke="rgb(0, 0, 0)" stroke-width="1" fill="none"/><text x="55" y="55" class="id" aria-describedby="desc-0">id54<title id="desc-0">Object id</title></text></g><g><path d="M164.63207883740165 25.397883926416114 L224.9792244726482 25.684327744071375 L224.97302277969675 76.48543502875836 L166.71454253219505 75.94535091178088" stroke="none" stroke-width="0" fill="none"/><path d="M166.16206011678452 24.469551568644388 C183.9803624087788 24.9196811850978, 199.57304139511322 25.824954512121067, 225.60877899122332 24.92208118445433 M164.02262529579355 24.54071827238715 C183.35382234145848 24.87041355597667, 199.60845269513044 24.071200250175664, 224.13242293752157 24.141424199297447 M223.7255532877093 24.426838504102037 C226.0876210531644 41.42520828594137, 226.70680377566555 59.0651996251527, 224.77348858934292 75.69833963516234 M225.0611776631097 24.666580251035455 C226.3281432013348 36.01441341850069, 224.60569719394618 48.362457008976065, 224.55582143799668 75.44155611048376 M225.97765116138433 75.07503649298505 C211.0476783511141 74.87041592079568, 195.03808462462598 76.11395094755065, 165.17843765610147 73.43925296048194 M225.3764951505838 74.72474321375219 C211.3573916778287 76.08645760013437, 197.48638017714745 75.92560401984177, 164.9511913229948 75.29740071908871 M166.94467992817803 73.22349260987764 C163.1401109325422 59.07330636789524, 165.33324602035103 45.832158557992344, 163.7536893791861 24.633523824490837 M165.10453256394013 74.78640000556955 C164.94591566560112 58.84704885804829, 165.56968431920112 44.081340875316386, 165.86630477677497 25.776997502122985" stroke="rgb(0, 0, 0)" stroke-width="1" fill="none"/><text x="195" y="55" class="type" aria-describedby="desc-1">str<title id="desc-1">Object type</title></text></g><text x="125" y="115" style="font-style:italic; font-weight:bold; fill:black; " class="value" aria-describedby="desc-2">"Hello"<title id="desc-2">Value</title></text></g></g></svg>