<svg width="287" height="217" xmlns="http://www.w3.org/2000/svg"><title>Python memory model diagram showing objects</title><style>
        :root {
        --fade-text-color: rgb(0, 0, 0);
        --hide-text-color: white;

        --highlight-value-text-color: rgb(27, 14, 139);
        --highlight-id-text-color: rgb(150, 100, 28);

        --highlight-box-fill: yellow;
        --highlight-box-line-color: rgb(0, 0, 0);

        --fade-box-fill: rgb(247, 247, 247);
        --fade-box-line-color: gray;

        --hide-box-fill: white;

        --primitive-value-color: rgb(27, 14, 139);
        --id-text-color: rgb(150, 100, 28);
        --default-font-size: 20px;

        --highlight-object-fill: rgba(255, 255, 0, 0.6);
    }

        text {
            font-family: Consolas, Courier;
            font-size: 20px;
        }
        text.default {
            fill: rgb(0, 0, 0);
            text-anchor: middle;
        }
        text.attribute {
            fill: rgb(27, 14, 139);
            text-anchor: start;
        }
        text.variable {
            fill: rgb(0, 0, 0);
            text-anchor: start;
        }
        text.id {
            cursor: auto;
            fill: rgb(150, 100, 28);
            text-anchor: middle;
        }
        text.type {
            fill: rgb(27, 14, 139);
            text-anchor: middle;
        }
        text.value {
            fill: rgb(27, 14, 139);
            text-anchor: middle;
        }
        path {
            stroke: rgb(0, 0, 0);
        }
        .highlighted path {
            fill: var(--highlight-object-fill) !important;
        }
    </style><g role="graphics-object"><title>Str id54 with value "Hello"</title><g id="object-0"><path d="M51.87322447901864 24.922440380340035 L249.14385784765983 25.97259118410338 L251.80280495513065 155.31289236498958 L50.77432052588124 153.44010697609878" stroke="none" stroke-width="0" fill="none"/><path d="M49.40020256748338 26.228029918593688 C115.45293334419554 24.51656431018551, 181.83214110870742 24.44463273371082, 249.6928425576865 26.024967653642285 M50.373499810772444 25.593819505079416 C114.0407048942856 23.041956695908784, 178.74552520304056 23.497760883861194, 249.60568649968056 25.70386854243934 M249.60638578562984 24.418013827668656 C253.2528048659008 51.92132422404448, 252.18124618954 81.7993098520662, 248.68500755122753 156.13737846742842 M249.74464000566982 25.85203100560115 C250.03865669709518 56.86976706827303, 248.95923029733774 89.4018577917105, 250.91548006007793 154.67483947713453 M248.68345016377734 153.56912321726998 C174.74375165872715 152.83879690492347, 98.57935872197503 152.6643468625314, 49.458645643703676 155.31832437455952 M249.67866868034974 154.9653556899281 C199.24110067596195 153.18581662283935, 149.51968601747387 154.12147888450954, 49.37487566144127 155.32991986469494 M49.896678521907575 153.6137134969403 C50.81256082918872 126.05026663272655, 50.007029988679285 94.9813872653278, 48.831950414835305 26.458067824528744 M49.835386382584915 155.57052487303457 C49.229499837404255 118.55688111343748, 49.103618398920815 80.73360480729745, 50.47769712396452 24.473936273945306" stroke="rgb(0, 0, 0)" stroke-width="1" fill="none"/></g><g><path d="M45.847001359957844 17.3300936156194 L256.9077984561166 19.741878986851475 L256.83287888799003 161.46344067085099 L43.30920623835837 160.5192092346976" stroke="none" stroke-width="0" fill="none"/><path d="M45.00005764369536 20.6016784944123 C117.20898761175623 20.029866152805244, 191.11410568748065 19.207930895549417, 256.0474517478132 18.216628162484003 M44.76862084659162 18.66218062919853 C96.01720455049703 18.486021866305872, 147.4833726642757 17.363307692793487, 255.67363659326762 19.558927776481 M255.46175983608225 20.474535124203637 C253.98307880394066 71.6066250578068, 254.62120537910386 126.35968110087336, 256.8443375029657 159.31154274019704 M255.55818194104387 18.40048456583916 C255.90263291889505 74.11459619873051, 255.92790863921752 130.0551246786232, 256.4847573203297 161.8465018486821 M255.00674500798445 161.47721695794263 C206.3591896972111 161.2791534423605, 156.06316837436205 161.32684227431326, 42.97315929443089 161.96852422547545 M255.1249190692826 160.89314012335927 C205.48646328979225 161.6402915524017, 155.79743653698193 162.25140989954338, 43.51104806010274 161.8684766770269 M45.6837801321736 159.31736742183355 C44.76763183637601 118.62840959785426, 43.9500492457786 74.8556781671342, 43.41294847595721 18.125018842506428 M44.819048491746145 160.76959755234296 C45.16228325624345 113.48113107871049, 44.915941079106915 64.51726010769394, 44.888769209166426 19.24523039950006" stroke="rgb(0, 0, 0)" stroke-width="1" fill="none"/></g><text x="150" y="115" style="font-style:italic; font-weight:bold; fill:black; " class="value">"Hello"</text><g><path d="M48.055139325839804 23.807128904423255 L111.95382633278489 23.395178720169458 L111.34799203652132 75.53318616201263 L50.932436853582004 76.84109493419784" stroke="none" stroke-width="0" fill="none"/><path d="M48.28958888881238 26.267665543358955 C67.95933891844896 26.194105757428343, 82.66414372413446 24.516339825268183, 109.44780450863256 26.80882681783313 M49.24275679869777 25.98856629674637 C72.78933810616837 25.51289589613453, 94.07575054543453 24.041774669835462, 110.80238961172513 25.57309677905307 M109.4789920262228 23.566070226556203 C108.35438192742747 43.77009897300798, 108.69988297651105 61.674143157641836, 110.31439102061584 74.9325845675812 M109.69437319590499 25.006748193736165 C110.42174655550056 37.19072455293542, 109.40084919046905 49.3544356118121, 109.24162378740608 74.77030340625704 M109.31249881813481 75.87631897672912 C95.60149605951575 75.54486991952415, 78.13000638564053 76.96279448005072, 48.57404116029744 74.58788423984711 M109.39858277648372 74.01160942141192 C90.40634469362203 75.48744600230656, 70.66284993650932 75.41820193202007, 49.00177060782764 75.15966088913532 M48.32579754371215 73.19371540226338 C49.94112791849839 57.49902450554604, 51.46692308563571 42.19365010365315, 51.49493781157009 25.798724031684916 M50.38095881831994 74.45905382201799 C50.86406588566092 59.26468977481807, 49.504936326905145 44.90847602260061, 49.50407819843965 25.618288232888148" stroke="rgb(0, 0, 0)" stroke-width="1" fill="none"/></g><g><path d="M188.18200910067134 24.240561553904847 L250.5790061388186 23.438702088729528 L251.49505300577903 73.4736809095915 L191.27580121224224 75.62563247975983" stroke="none" stroke-width="0" fill="none"/><path d="M190.99723634245535 26.344676960225385 C206.15462478201488 24.29165980430187, 224.88441834710565 25.908705833575386, 250.30385536759422 25.642096767980394 M190.51125106328504 24.807018769358034 C205.7098008333189 24.062688520733644, 219.62625123837626 25.022703845776363, 250.44644864644704 24.02581933750778 M248.1814436395274 23.393856478258623 C250.08616725508196 39.04756723641545, 248.63533614660213 49.14766185383012, 250.7644231716484 73.3039945511013 M250.62085308973445 25.899277617005875 C251.13074615553882 38.8032277819178, 250.05498470544038 51.607303982244986, 249.85362572264927 74.9691395497836 M248.2173741293545 75.77854189625432 C228.55131559640876 72.95260441034392, 209.75956638103546 74.0037941189472, 191.9547337743034 74.87621875003002 M250.41474041024725 74.52351604156873 C236.23548029553427 75.74126275628062, 221.18221030894074 75.51032467175233, 190.3674279496988 75.41686002414662 M189.04754631445607 74.83737531296319 C190.70913029417167 56.23206198131548, 190.87065728994403 38.4391062487359, 189.84205601171172 26.25961897316342 M189.0067732047107 74.496700914336 C190.97086168058624 56.39429411610211, 189.23025865399504 37.48508212416698, 190.65960140737906 24.75064556176172" stroke="rgb(0, 0, 0)" stroke-width="1" fill="none"/></g><text x="80" y="55" class="id">id54</text><text x="220" y="55" class="type">str</text></g></svg>