<svg width="287" height="217" xmlns="http://www.w3.org/2000/svg"><style>
        :root {
        --fade-text-color: rgb(0, 0, 0);
        --hide-text-color: white;

        --highlight-value-text-color: rgb(27, 14, 139);
        --highlight-id-text-color: rgb(150, 100, 28);

        --highlight-box-fill: yellow;
        --highlight-box-line-color: rgb(0, 0, 0);

        --fade-box-fill: rgb(247, 247, 247);
        --fade-box-line-color: gray;

        --hide-box-fill: white;

        --primitive-value-color: rgb(27, 14, 139);
        --id-text-color: rgb(150, 100, 28);
        --default-font-size: 20px;

        --highlight-object-fill: rgba(255, 255, 0, 0.6);
    }

        text {
            font-family: Consolas, Courier;
            font-size: 20px;
        }
        text.default {
            fill: rgb(0, 0, 0);
            text-anchor: middle;
        }
        text.attribute {
            fill: rgb(27, 14, 139);
            text-anchor: start;
        }
        text.variable {
            fill: rgb(0, 0, 0);
            text-anchor: start;
        }
        text.id {
            cursor: auto;
            fill: rgb(150, 100, 28);
            text-anchor: middle;
        }
        text.type {
            fill: rgb(27, 14, 139);
            text-anchor: middle;
        }
        text.value {
            fill: rgb(27, 14, 139);
            text-anchor: middle;
        }
        path {
            stroke: rgb(0, 0, 0);
        }
        .highlighted path {
            fill: var(--highlight-object-fill) !important;
        }
    </style><g id="object-0"><path d="M48.87083084269621 26.43159767748371 L248.43770071893064 25.850616190437876 L250.4270139656096 153.2102885848218 L51.2330676779071 154.49795847433523" stroke="none" stroke-width="0" fill="none"/><path d="M51.72819267037889 23.337654537079978 C130.55029215614462 25.73255145605102, 209.9730254424506 24.627380447728658, 250.9160704890407 24.50286375257665 M49.56268961055749 24.571573616554637 C102.99920325698638 25.458544644855248, 154.4124468104019 24.450235185697228, 249.72045479278216 25.615448957835717 M251.78530642853366 26.208195727839904 C247.18827307304673 50.499527314545034, 249.00444432217017 81.1422407005093, 249.25660268598497 153.01875099476493 M250.62325964906333 25.78732225040639 C250.0680721887132 64.00632875955667, 249.03355903559776 102.4410761986624, 250.96107794979287 154.80819254616864 M249.97669143603514 156.06112027418132 C197.1136789526365 153.10251740983244, 146.6767176160903 155.1937881098426, 48.31278196804399 154.87612362279262 M250.42306674024923 154.1696661766236 C207.3544356259244 155.74998582706232, 162.95029255889494 155.05432098498565, 50.098809643489545 155.85945284458478 M51.126195408321166 154.34921144864532 C49.67198378850875 121.0815712578718, 47.98643977853905 85.71473980045154, 50.27111663961621 26.260752268195525 M50.995675811709 155.943771129845 C48.68499805320517 128.40410580419717, 48.53071085513936 100.96084134239088, 50.13727101752116 24.020467573120627" stroke="rgb(0, 0, 0)" stroke-width="1" fill="none"/></g><g><path d="M45.68277221043576 17.132935498678755 L254.67140473757684 17.324683291355687 L255.8444949541298 162.74867417874245 L43.572770590533615 160.78080700846462" stroke="none" stroke-width="0" fill="none"/><path d="M43.032783308191895 18.988326832156954 C109.75876675806101 21.264945318947763, 173.8508458107486 18.305886838312908, 255.3141285336428 20.562599684850575 M43.813058725079046 19.811885626182516 C89.15174660918532 19.23198123215056, 133.6866367662924 18.916712031905465, 255.52868228037687 18.468267586319282 M256.47152382033056 18.73592280401078 C254.77922660177714 70.95534486485316, 255.06873836784717 125.5544487843058, 256.9087786342775 159.52000234212431 M256.39752828904534 19.93562773996537 C256.5920201118008 76.40424453371173, 256.2475933260183 132.83837641808273, 256.1865325692875 160.05662945262839 M256.91184323820255 162.70256894408297 C209.10278328651722 160.85004840519508, 165.6543328995523 162.22996306837362, 43.15466731325234 162.05587119942177 M255.72760323649797 161.74924656045403 C174.13432979412568 160.4369523413893, 92.40108201827852 161.40513294799908, 44.75202908040399 161.53730859681335 M43.15339231828676 159.43172761562056 C45.11723507052137 125.27985668373528, 43.44257405406029 87.02701383172646, 42.280223738374836 17.383282916844575 M44.031856582415514 160.67150134729502 C42.54660711603131 104.60757692253507, 42.99788208835599 48.093277318189315, 44.76286786147935 18.135539433476506" stroke="rgb(0, 0, 0)" stroke-width="1" fill="none"/></g><text x="150" y="115" style="font-style:italic; font-weight:bold; fill:black; " class="value">"Hello"</text><g><path d="M48.54246855663179 23.29761402363802 L109.35032673145217 23.49227063898176 L110.95380256489175 76.6430813290802 L49.47733022772881 74.46131940583793" stroke="none" stroke-width="0" fill="none"/><path d="M48.335527906119 26.918797093326827 C70.81115907202343 23.015369370843384, 95.63216800590244 26.18128406973295, 109.50006777646843 24.03642881392776 M50.45376535126713 24.543803421555907 C67.11987427536344 25.832173849942674, 84.88214923647449 25.756637333707168, 109.90895494212062 24.781911090303268 M111.54077124725163 26.419905295627366 C108.36031975641689 38.95642045207061, 108.29808769692376 55.837327923225054, 108.26381941448473 76.88993098567688 M109.55790141609931 24.096579335421822 C110.33562350050107 36.42283581258771, 109.81720918352914 50.20637072580251, 109.83260877484516 74.24634475227093 M111.1979552048792 75.77737424473878 C88.56324239575284 75.05086514412093, 70.49127496840705 75.3813354641389, 51.84611156090384 73.06000251697165 M110.2006754398039 75.11014941803272 C86.81752346002399 74.73349539897278, 64.70306910761492 74.84405444165544, 49.631112662582154 74.12336129455885 M49.73077231794295 74.7508603417968 C49.062043192718015 58.27483747708614, 49.73321160461444 38.262769099759105, 49.17258507299902 23.591178626290624 M50.99993725970597 75.45254823373037 C49.53637522942305 55.72234752427043, 49.2636002889429 37.31525599919361, 50.62493846551686 25.82766230255539" stroke="rgb(0, 0, 0)" stroke-width="1" fill="none"/></g><g><path d="M190.6473559888403 23.691884163297807 L248.49492340259175 26.813711062021234 L250.7296196316413 76.3707654720307 L189.75056316145898 76.7872082401475" stroke="none" stroke-width="0" fill="none"/><path d="M190.81625664103683 26.903225060923766 C211.20362333076625 26.49338191169292, 232.88149739819337 24.744911960220335, 251.83639876302524 24.67512462045844 M189.31098966001284 24.65645403724431 C213.7865706259892 23.997922032114964, 237.60398806566303 25.591472802098487, 249.05109358508884 25.811245453512893 M248.6850092751066 23.986789292814592 C251.40227691021366 38.56372408870766, 251.58432046002247 46.628613503777444, 250.81052416222775 74.62977115771324 M250.90848275002298 25.891934794598235 C250.0725349629098 41.85966422109878, 250.37580887309204 59.51365383410654, 250.7091011986503 74.76154880605242 M251.6701329851749 76.87882910401291 C235.69421913758535 74.17037940700304, 218.02960553482768 74.38546015319041, 188.2437854938528 75.42755550316795 M249.07657420838572 74.02389696562815 C226.94541920756143 75.17087157178706, 204.5729712638599 74.50488291790263, 189.49734845446673 75.43102216431592 M188.39669615983232 75.04863488412784 C188.58554771043862 57.152031374409766, 189.10188114638802 38.32735073300695, 188.9020262314446 24.164030304781388 M190.4796404931962 75.46624692060203 C190.4497531443719 58.27793550752958, 190.3930005444054 42.694093659312216, 190.04609031757641 25.535832146895576" stroke="rgb(0, 0, 0)" stroke-width="1" fill="none"/></g><text x="80" y="55" class="id">id54</text><text x="220" y="55" class="type">str</text></svg>