<svg data-theme="dark" width="287" height="217" xmlns="http://www.w3.org/2000/svg"><title>Python memory model diagram showing objects</title><style>
        :root {
        --fade-text-color: rgb(0, 0, 0);
        --hide-text-color: white;

        --highlight-value-text-color: rgb(27, 14, 139);
        --highlight-id-text-color: rgb(150, 100, 28);

        --highlight-box-fill: yellow;
        --highlight-box-line-color: rgb(0, 0, 0);

        --fade-box-fill: rgb(247, 247, 247);
        --fade-box-line-color: gray;

        --hide-box-fill: white;

        --primitive-value-color: rgb(27, 14, 139);
        --id-text-color: rgb(150, 100, 28);
        --default-font-size: 20px;

        --highlight-object-fill: rgba(255, 255, 0, 0.6);
    }

        text {
            font-family: Consolas, Courier;
            font-size: 20px;
        }
        text.default {
            fill: rgb(0, 0, 0);
            text-anchor: middle;
        }
        text.attribute {
            fill: rgb(27, 14, 139);
            text-anchor: start;
        }
        text.variable {
            fill: rgb(0, 0, 0);
            text-anchor: start;
        }
        text.id {
            cursor: auto;
            fill: rgb(150, 100, 28);
            text-anchor: middle;
        }
        text.type {
            fill: rgb(27, 14, 139);
            text-anchor: middle;
        }
        text.value {
            fill: rgb(27, 14, 139);
            text-anchor: middle;
        }
        path {
            stroke: rgb(0, 0, 0);
        }
        .highlighted path {
            fill: var(--highlight-object-fill) !important;
        }
    
        [data-theme="dark"] {
            --highlight-value-text-color: #110875;
            --highlight-id-text-color: #6e4409;

            --fade-text-color: #BBBBBB;
            --hide-text-color: #121212;

            --highlight-box-fill: #EDB926;
            --highlight-box-line-color: #FFFFFF;

            --fade-box-fill: #2C2C2C;
            --fade-box-line-color: #666666;

            --hide-box-fill: #121212;

            --highlight-object-fill: rgba(72, 207, 173, 0.3);
        }
        [data-theme="dark"] text.default,
        [data-theme="dark"] text.variable {
            fill: rgb(224, 224, 224);
        }
        [data-theme="dark"] text.attribute,
        [data-theme="dark"] text.type,
        [data-theme="dark"] text.value {
            fill: rgb(144, 164, 237);
        }
        [data-theme="dark"] text.id {
            fill: rgb(255, 183, 77);
        }
        [data-theme="dark"] path {
            stroke: rgb(204, 204, 204);
        }
</style><g role="graphics-object"><title>Int id54 with value 4</title><g id="object-0"><path d="M48.555164928543725 23.333779247905248 L248.72056536521143 26.75702895819386 L248.37298859971597 153.5994490421221 L48.356700016814116 156.41149230834367" stroke="none" stroke-width="0" fill="none"/><path d="M48.4602674205399 26.31416528058407 C126.14812431824757 26.836778601469668, 201.38903564325383 25.894638686417704, 249.65834951701387 24.601826441698552 M50.70458364443783 25.679737266006768 C96.96509238810215 23.482331938956335, 143.51582130348868 24.81974506582228, 249.15221345361235 24.27742362966281 M248.31208525099981 25.376831103478747 C250.89031535224098 56.7683979201203, 250.2693905349921 86.45974164130475, 250.3171166250933 153.52827432631142 M250.37043738473915 25.6993963150377 C249.5659859962741 69.88781627275291, 248.09800093852905 113.09932551109921, 249.55708819544776 154.37436178142482 M249.5638126028652 154.09044695251106 C201.62342044272756 155.41318605286511, 155.28406976866705 156.90087004178196, 48.78328828545713 154.17111443698104 M250.78738230281684 155.19500940174788 C209.50910354082953 155.96599853436723, 167.61998369873433 156.15460383755058, 50.22590970685021 155.37577863770875 M49.91208814386938 153.71936375137275 C51.80361862236488 109.99932194690888, 49.1984576868567 60.02861807104959, 49.22750812441579 24.003973053309412 M50.693313618417584 155.92735332638637 C50.69183570433419 124.47993095870422, 50.68587992294653 92.22025584683819, 50.94608714612436 25.811579610111202" stroke="rgb(0, 0, 0)" stroke-width="1" fill="none"/></g><g><path d="M45.002530175876494 19.28555443093987 L256.1427702220171 19.248554983278073 L254.44218688184446 159.05579975287338 L44.70752415543346 160.12330480151482" stroke="none" stroke-width="0" fill="none"/><path d="M44.46519140239115 19.339850434733478 C121.30076177338852 19.237634497024015, 195.33068585019365 20.452907365461567, 256.5858494386685 18.07032511528192 M44.58676238824442 18.159784636449302 C98.01434442036614 17.59687736882853, 151.2836183235738 18.432070196571473, 256.240777731899 19.07875557306551 M254.27861798456263 20.461878018269104 C256.1952232537729 49.93403930873537, 258.73301385490277 79.49809666229183, 256.260185409814 160.63118405862352 M256.79832886069 19.08578611190578 C255.68921780679602 56.389657598665345, 256.52549390335344 92.67188266753074, 256.74708002292266 161.29364651707908 M257.41506227604236 160.45097143448473 C192.14535146343087 162.54524693032346, 127.07040239383451 162.38910494415583, 43.656294662235204 161.16585052616745 M255.46982929300577 160.52399390343157 C198.36238361843812 161.56706455364352, 139.26267872236744 160.63667941931618, 44.17913292732162 161.10832758933162 M43.37885075812007 162.67756747913074 C44.38126486101146 109.67302021009411, 42.41833106966024 60.44118919972705, 42.317141835837404 17.726485633017724 M44.108234487497846 161.04504350692687 C42.63111538729517 117.80003259876662, 42.51979609270256 73.48924538145795, 44.37748789514961 18.700564098279237" stroke="rgb(0, 0, 0)" stroke-width="1" fill="none"/></g><text x="150" y="115" class="value">4</text><g><path d="M48.48729382746843 26.051141155676387 L109.83906396077784 26.33668059758689 L110.6303796924722 75.40447945187623 L48.79731655631613 73.70009828763425" stroke="none" stroke-width="0" fill="none"/><path d="M50.773910175011125 26.887335390421672 C63.64902711235423 25.528741986500208, 78.78367826613523 24.635462669929197, 110.30804522722951 25.22342275718223 M49.13532870713097 24.9996446326116 C62.43282280678896 25.923501986303517, 76.55589500469551 24.936658963491894, 109.22176742855821 24.03811846632625 M109.89320673531827 25.335578048681207 C110.9631322186449 42.73062353968068, 109.71742843664214 58.29536340030639, 110.44772392266026 76.34578971890625 M109.34904926886055 25.492274468653175 C110.29023614855615 37.981765333947315, 110.80903297583346 50.12603083336156, 110.1934372698144 74.43662053744708 M110.88012872581707 76.63588089551305 C88.4607217879898 76.22526047878087, 64.19680282873645 73.60861501179035, 49.411343815786246 74.1464619714108 M110.41976014140467 75.1946797053027 C89.03277095313175 75.64702111829989, 68.7180730151535 74.6777374316294, 49.08195293088375 74.80500709848174 M49.582064038844784 75.64822359648669 C49.90339197365631 60.38937675874242, 51.19751718728237 47.193732953074665, 48.87163768546918 24.180398615385563 M50.46942733739797 74.46247923827673 C49.78914435765945 64.39171715108041, 50.37297001265081 53.17545527571397, 49.47042356420852 24.207327813308456" stroke="rgb(0, 0, 0)" stroke-width="1" fill="none"/></g><g><path d="M189.66218886248032 25.46576936458252 L250.29166383485796 23.579478342927338 L249.09468934256833 76.64773871457109 L188.18616039411938 73.7947815959579" stroke="none" stroke-width="0" fill="green"/><path d="M191.26885901808208 25.12420533153967 C205.12991747304127 23.564975711976672, 223.1361365810553 24.419993754758973, 250.95171444882544 24.64700599495772 M189.29910058485711 24.892656116393585 C209.07793811801687 26.00658582016869, 229.2596218511445 25.28313671069789, 249.1754972357985 25.699604581849943 M249.16442041359372 26.975612422220443 C251.9819294077315 42.80840105264406, 251.89533017427965 59.43537344531279, 249.17490009081942 74.66455776247 M249.42810951433168 24.240739981167426 C250.06501908587063 42.03436433787612, 250.50263519634055 58.73049543827074, 249.55497822722907 74.16259596875588 M248.369137716796 76.06249204078323 C228.5373982703998 76.91064669276078, 209.90035196095857 73.33080685864522, 191.17324688997817 74.41276150249344 M250.59350744414144 74.6625265699945 C236.10275780654655 74.616603439607, 223.19646506858294 75.40021485980004, 190.82107357298665 74.43656183265819 M189.94724778944482 76.02874271992685 C188.82962405106534 58.972301900461375, 191.8451876364324 41.11015566387872, 188.29103037372045 24.77303619969588 M190.8965364189725 74.1640773158973 C189.46999130835863 56.10494344331642, 190.11886469684362 37.45766383851552, 189.06837593779596 25.626150164390292" stroke="#000" stroke-width="1" fill="none"/></g><text x="80" y="55" class="id">id54</text><text x="220" y="55" style="font-style:italic; " class="type">int</text></g></svg>