<svg width="287" height="217" xmlns="http://www.w3.org/2000/svg"><title>Python memory model diagram showing objects</title><style>
        :root {
        --fade-text-color: rgb(0, 0, 0);
        --hide-text-color: white;

        --highlight-value-text-color: rgb(27, 14, 139);
        --highlight-id-text-color: rgb(150, 100, 28);

        --highlight-box-fill: yellow;
        --highlight-box-line-color: rgb(0, 0, 0);

        --fade-box-fill: rgb(247, 247, 247);
        --fade-box-line-color: gray;

        --hide-box-fill: white;

        --primitive-value-color: rgb(27, 14, 139);
        --id-text-color: rgb(150, 100, 28);
        --default-font-size: 20px;

        --highlight-object-fill: rgba(255, 255, 0, 0.6);
    }

        text {
            font-family: Consolas, Courier;
            font-size: 20px;
        }
        text.default {
            fill: rgb(0, 0, 0);
            text-anchor: middle;
        }
        text.attribute {
            fill: rgb(27, 14, 139);
            text-anchor: start;
        }
        text.variable {
            fill: rgb(0, 0, 0);
            text-anchor: start;
        }
        text.id {
            cursor: auto;
            fill: rgb(150, 100, 28);
            text-anchor: middle;
        }
        text.type {
            fill: rgb(27, 14, 139);
            text-anchor: middle;
        }
        text.value {
            fill: rgb(27, 14, 139);
            text-anchor: middle;
        }
        path {
            stroke: rgb(0, 0, 0);
        }
        .highlighted path {
            fill: var(--highlight-object-fill) !important;
        }
    </style><g><title>Group of 1 objects</title><g role="graphics-object"><title>Str id54 with value "Hello"</title><g id="object-0"><path d="M48.14478821846716 25.983894954449845 L248.73252134279704 25.604784590519607 L248.76069961670424 153.4471590714933 L51.88712398143053 153.8644627687448" stroke="none" stroke-width="0" fill="none"/><path d="M51.30845663726811 25.48519859692308 C105.44106521553557 24.929272800714017, 162.65502549202134 27.926911089596906, 248.32343725262612 25.328550555901575 M49.19192334509271 25.02612658015354 C104.00583887678465 24.901035895332924, 158.6117749819331 24.02675008057601, 250.2504840812213 25.757984967202653 M250.87913237030466 24.353155333962107 C247.75054491500225 68.58311639725126, 250.28429715399312 110.49642279814836, 251.3867517229622 153.24668310391922 M250.26955325733292 25.54234761167485 C249.79898387540987 54.65528437841118, 248.45833704319375 84.13303057041668, 250.6048627455126 154.45765543094356 M250.57268160791784 154.1713314701526 C182.8285352922424 156.12223941653846, 111.64288865356266 156.35397839246045, 50.289841545915856 156.62800985492697 M249.49616205938955 155.56960929231144 C178.20096905728147 155.18270737847206, 105.39264173357823 156.02033786365925, 49.333816805276186 154.37552080740252 M48.221838450034326 155.1829366005855 C48.73111410261866 124.86801826711522, 47.87247092819166 92.97042409789574, 51.34258150527852 24.2675405187461 M49.81552671813486 154.8374563390311 C49.849163665790826 104.25956374097665, 47.9700010767287 54.52261649618977, 49.23135147676049 25.892505310970847" stroke="rgb(0, 0, 0)" stroke-width="1" fill="none"/></g><g><path d="M45.423339364325145 17.664039472468673 L255.3639400715679 20.084043846156984 L257.0967332499175 159.97209846489397 L43.49378664719153 162.83968047065392" stroke="none" stroke-width="0" fill="none"/><path d="M43.59407933011498 19.400199841606618 C125.40236537221462 17.106742189900125, 202.73123208156747 16.722738409570685, 257.2333871542583 17.42871717640525 M43.23191377403402 18.36561202437853 C89.37382221541706 18.801634634381443, 135.4516582736841 18.437597979866243, 256.21081088758143 18.851416196598688 M256.4938717271031 19.90293929940263 C253.6649920063976 72.52461095062148, 257.4927644527739 127.26182305417798, 256.22522845091447 159.4117296527255 M255.33293314593885 18.893828615464663 C254.5448989594992 64.63513672134947, 255.56974721800717 107.82018786398511, 256.49643327253636 161.61620624360674 M256.45211162319436 159.80741258040865 C182.30801539341616 161.32478786189372, 107.78031715038593 161.03983562002787, 44.00672956905593 160.03339983992336 M256.73826523779167 160.57844680429503 C197.06804270909652 161.03030544135538, 138.36617756055512 160.538500337103, 43.64530291922885 160.59788074751145 M42.53054062458861 162.06679192113816 C45.4007746559213 121.77194951078673, 46.19694092122518 79.5001352770599, 44.11273430061589 17.305605918190196 M44.70404648623146 161.41558216224445 C44.045926515356996 119.60632562438363, 43.42948263891412 79.52938506449463, 43.76427207421089 18.533938945820132" stroke="rgb(0, 0, 0)" stroke-width="1" fill="none"/></g><g><path d="M51.540554272030356 24.532172873416695 L110.43497805903827 25.752107281203582 L111.67880141832049 75.80887313297181 L49.517386067026514 74.3948867537398" stroke="none" stroke-width="0" fill="none"/><path d="M50.9285626722367 26.348685432188503 C68.16067439246186 26.644634701927277, 89.52247571894226 24.819369247035898, 110.87045889599656 25.434684011586945 M50.92415604488438 24.987226945952656 C66.81401158228286 25.455916232418986, 83.41607886296445 26.11733144726076, 109.18550568247512 24.968447858096333 M110.40157412107817 25.971694410663687 C108.96687391265 36.0740207362313, 111.37122451197254 47.27076123217575, 109.02119666278384 76.03837088460904 M109.93765052982263 24.886972895704922 C110.85576421174459 43.75572657780489, 110.35254681019876 64.36982615774515, 110.23738715787026 74.53701976243835 M110.18649908254736 75.76094259695506 C88.1079086900394 76.74576896266294, 64.98703122695255 74.50060418825709, 50.34310412398692 75.08139441288503 M109.53004643713317 74.60133322477299 C90.96186979531382 75.76746431632914, 71.53150756721493 73.88883682750655, 50.43105724349606 74.40899718739077 M48.413754602028305 75.88785154137172 C51.42523613009143 57.415458287911534, 48.52727717847268 38.33899837727975, 48.20777977284789 26.532842255709543 M49.185608887022 75.22287600192357 C50.80676539696204 63.329913107138374, 50.401778951250655 49.41462613722416, 49.97587320283174 25.808227431461088" stroke="rgb(0, 0, 0)" stroke-width="1" fill="none"/><text x="80" y="55" class="id" aria-describedby="desc-0">id54<title id="desc-0">Object id</title></text></g><g><path d="M188.50915179634873 25.5542084615141 L251.5718581219318 23.683615409078275 L249.8367313050289 73.6785323417309 L191.93638212429926 76.93232019836408" stroke="none" stroke-width="0" fill="none"/><path d="M190.06678937514693 24.504480726298205 C212.01868712536594 25.716561671275052, 233.26557529422766 27.026727733419943, 250.68713317834644 23.11596216957425 M189.79629713487262 25.439564555520057 C207.06988901450646 24.15264735739363, 225.7029856199874 24.671167354312704, 250.3942133245684 24.510528478857374 M249.37290267933608 23.81979763852509 C249.92545624447877 38.27852513769992, 250.63375975059995 50.1207227208131, 248.73873191339942 76.3084765712985 M249.28099036067036 24.746693899269562 C249.78766835791845 40.36055961884694, 250.83999734156401 55.821447217216395, 250.95615469665077 75.00437905801547 M249.14822781226525 75.75408340170479 C226.88852632182198 75.20623207412638, 203.30798017941035 73.44905587025568, 190.79335747525892 75.2789765545523 M249.5737105602068 74.76661064724617 C227.15080767901148 73.85071559252842, 204.67820795953105 75.43921743009554, 189.05640357834903 74.03273842122442 M189.78903052252113 76.19513858389351 C188.99574049410228 63.776907158248946, 189.09780003623175 53.2224885001275, 189.4280514326826 26.177686879185075 M189.4955588481321 75.0313069837715 C188.68566148974378 55.994661184821396, 189.6767103478145 38.02510961729474, 189.90683947550906 25.763866930925808" stroke="rgb(0, 0, 0)" stroke-width="1" fill="none"/><text x="220" y="55" class="type" aria-describedby="desc-1">str<title id="desc-1">Object type</title></text></g><text x="150" y="115" style="font-style:italic; font-weight:bold; fill:black; " class="value" aria-describedby="desc-2">"Hello"<title id="desc-2">Value</title></text></g></g></svg>