<svg width="287" height="292" xmlns="http://www.w3.org/2000/svg"><style>
        :root {
        --fade-text-color: rgb(0, 0, 0);
        --hide-text-color: white;

        --highlight-value-text-color: rgb(27, 14, 139);
        --highlight-id-text-color: rgb(150, 100, 28);

        --highlight-box-fill: yellow;
        --highlight-box-line-color: rgb(0, 0, 0);

        --fade-box-fill: rgb(247, 247, 247);
        --fade-box-line-color: gray;

        --hide-box-fill: white;

        --primitive-value-color: rgb(27, 14, 139);
        --id-text-color: rgb(150, 100, 28);
        --default-font-size: 20px;

        --highlight-object-fill: rgba(255, 255, 0, 0.6);
    }

        text {
            font-family: Consolas, Courier;
            font-size: 20px;
        }
        text.default {
            fill: rgb(0, 0, 0);
            text-anchor: middle;
        }
        text.attribute {
            fill: rgb(27, 14, 139);
            text-anchor: start;
        }
        text.variable {
            fill: rgb(0, 0, 0);
            text-anchor: start;
        }
        text.id {
            cursor: auto;
            fill: rgb(150, 100, 28);
            text-anchor: middle;
        }
        text.type {
            fill: rgb(27, 14, 139);
            text-anchor: middle;
        }
        text.value {
            fill: rgb(27, 14, 139);
            text-anchor: middle;
        }
        path {
            stroke: rgb(0, 0, 0);
        }
        .highlighted path {
            fill: var(--highlight-object-fill) !important;
        }
    </style><g id="object-0"><path d="M50.07658968354573 24.14113219882425 L251.58385093640487 23.402683119407996 L249.20792660459512 153.87175006281038 L48.388073150668056 156.76572698003508" stroke="none" stroke-width="0" fill="none"/><path d="M50.97937253001188 24.784885632868278 C104.82387919144536 26.42572124740367, 163.73118283964706 26.02847249422698, 251.4420474811185 25.585416195134886 M50.61871396777503 25.041013322376035 C129.26730914986308 26.124280599218835, 206.55912686934752 25.80131911677468, 249.86608785601743 25.759822060800797 M251.37496526389816 23.376862974047533 C250.0982076421849 51.57165080850762, 249.61152969490837 76.27709747060099, 248.57266918816134 154.05035216576107 M249.14737590249504 24.19665624352747 C249.98197706456946 69.29158163295583, 248.78010317822617 112.94054948522317, 249.04230066332937 155.2301181947506 M250.58536364973304 154.17100289878164 C181.7099992301955 154.0824367939932, 113.73978406503342 154.00706225808608, 50.03896765976759 154.82538140568388 M250.4797752911074 154.40575630926293 C194.683624751541 155.04549896495234, 139.30406317261068 154.65718114441728, 49.10216893460538 154.90681797186502 M48.29900957578579 153.69265056543986 C50.26542449607179 113.48221038373426, 49.34955466306093 73.88657824263471, 49.82890841082154 26.651468347903453 M49.377494122167256 155.71019795239903 C49.02550484242606 121.71602791851161, 48.71281205592197 87.86794423060678, 50.62508305414227 24.762863024782916" stroke="rgb(0, 0, 0)" stroke-width="1" fill="none"/></g><g><path d="M45.39409815251705 18.02180015102257 L257.421466474689 18.488578686206452 L256.9157716019678 160.09140092135334 L45.31029185022768 160.7141981045093" stroke="none" stroke-width="0" fill="none"/><path d="M44.10858869136975 20.50314713012094 C104.88483874330458 20.788938429303066, 166.18763422643607 19.63347793836602, 255.6126798496101 20.322795794817104 M44.12866070709495 19.509175863668663 C107.18835767042485 17.33701651557785, 171.82059814967872 18.3842456204461, 255.59610654199736 19.195330166476428 M254.88396556647888 18.86934044753093 C257.4842326484897 63.08249475742643, 255.00815500268445 108.90421965271102, 257.6580522346689 160.50592838046654 M256.4679412296366 19.176660996623994 C256.65452446247065 53.89108177841272, 255.70582047098947 91.06822671957354, 256.5739228922918 161.23023713400974 M255.81042157493806 160.37024584463742 C184.7995738673064 161.74787238212554, 116.04271435795575 161.12980464000947, 45.25569757327248 160.02590692556953 M255.88961058252528 160.58445586558844 C177.46841781292724 162.19417243934, 99.93530049763278 162.02648247502384, 43.38308910787064 161.28576462206865 M43.11454497319734 160.25706201205938 C43.85853530055661 128.78567839875416, 42.911290304196235 93.2341099461449, 44.276745429963306 18.35911544708253 M43.63180965159008 160.9450418328783 C44.523596361599694 124.72227366962736, 43.5866210978706 88.23614259337467, 44.50866744982468 19.270870695848664" stroke="rgb(0, 0, 0)" stroke-width="1" fill="none"/></g><text x="150" y="115" class="value">4</text><g><path d="M51.54939595870353 23.07707758372974 L111.24826581802697 24.048390165131142 L111.89644501664117 74.20862816109721 L49.2785372246773 75.87067397533033" stroke="none" stroke-width="0" fill="none"/><path d="M51.23587134160371 24.37290661645583 C67.63674460290477 26.35489425004568, 86.85086285125689 23.358959741644966, 111.13093265681768 25.073644772207185 M49.35775726031182 24.943492512063454 C69.91835150723908 24.523685784633262, 88.86034835923155 26.13115533180155, 110.64624719313738 24.71742305450998 M111.84451516846624 24.49615315132492 C111.71509703939985 41.05221746329151, 109.34262622899435 54.204753869096294, 110.25138697651295 76.38833246753732 M109.36085011363066 24.52098598407024 C110.54061116978808 41.02051503770335, 109.72261263955559 55.17685312407268, 109.78822496164157 75.77589532338293 M108.20250092144485 76.06324397298198 C91.11473367453401 73.88194446435232, 74.8359702382034 77.0735794896821, 51.92100023168739 74.5970423191392 M110.45711410324182 74.74033089692006 C86.24219659357789 74.1246211206904, 62.533674350757586 75.12468245402317, 50.52965062980818 74.61127452583919 M49.52058896541346 74.51996932706359 C50.242019467600876 60.172040914560235, 49.37960005205178 41.91487626681496, 48.303267084372806 24.01115423170201 M49.557485770624325 75.01070216292796 C50.83798785636898 59.76682354917447, 49.975378453718406 42.94338850134849, 50.44631880953368 25.120494170029147" stroke="rgb(0, 0, 0)" stroke-width="1" fill="none"/></g><g><path d="M188.1841854111235 24.54594431091512 L250.05204530512813 26.024130404340184 L248.8384840329415 76.57517484003036 L190.71477388748193 75.51613231091402" stroke="none" stroke-width="0" fill="green"/><path d="M188.15496106876986 26.05171900744696 C206.81714061583034 27.066595253091855, 226.74162802120225 25.179530286982036, 251.00081643858334 25.36365364575534 M190.7286699454327 25.17182270279078 C203.339789276686 23.50447957849424, 216.65480024931267 23.928648478639744, 250.56188817699186 25.280745116492998 M251.82286776458636 25.96733995146746 C251.50148048436023 43.43485662422567, 249.07511623064536 63.201774451523896, 248.54525214725564 76.1947332283267 M250.6658668541952 25.058446095300162 C250.28050927379846 43.06363108579114, 248.74181010295072 61.319760455490574, 250.74390529760055 74.55959909121978 M251.38628680969558 75.6757261811365 C235.32235255592667 75.55136536874386, 216.62097589229123 73.84527533828701, 188.98360017748874 75.94023351105542 M249.33499406038428 74.07046550621529 C233.39224529174848 75.86479218390836, 217.8911397246173 74.77786034244554, 189.50542427249496 74.53534154266683 M189.85180413962732 73.62701204591959 C188.95896588153335 58.14295974835549, 189.47010568749624 42.93374779081522, 191.95544516676654 24.303447538803823 M189.3597572645591 75.74839219283206 C189.1760227686092 56.88572644725183, 190.60679163217407 37.50440571769325, 190.2133556940392 24.72764398050002" stroke="#000" stroke-width="1" fill="none"/></g><text x="80" y="55" class="id">id54</text><text x="220" y="55" style="font-style:italic; " class="type">int</text></svg>