<svg data-theme="dark" width="287" height="217" xmlns="http://www.w3.org/2000/svg"><title>Python memory model diagram showing objects</title><style>
        :root {
        --fade-text-color: rgb(0, 0, 0);
        --hide-text-color: white;

        --highlight-value-text-color: rgb(27, 14, 139);
        --highlight-id-text-color: rgb(150, 100, 28);

        --highlight-box-fill: yellow;
        --highlight-box-line-color: rgb(0, 0, 0);

        --fade-box-fill: rgb(247, 247, 247);
        --fade-box-line-color: gray;

        --hide-box-fill: white;

        --primitive-value-color: rgb(27, 14, 139);
        --id-text-color: rgb(150, 100, 28);
        --default-font-size: 20px;

        --highlight-object-fill: rgba(255, 255, 0, 0.6);
    }

        text {
            font-family: Consolas, Courier;
            font-size: 20px;
        }
        text.default {
            fill: rgb(0, 0, 0);
            text-anchor: middle;
        }
        text.attribute {
            fill: rgb(27, 14, 139);
            text-anchor: start;
        }
        text.variable {
            fill: rgb(0, 0, 0);
            text-anchor: start;
        }
        text.id {
            cursor: auto;
            fill: rgb(150, 100, 28);
            text-anchor: middle;
        }
        text.type {
            fill: rgb(27, 14, 139);
            text-anchor: middle;
        }
        text.value {
            fill: rgb(27, 14, 139);
            text-anchor: middle;
        }
        path {
            stroke: rgb(0, 0, 0);
        }
        .highlighted path {
            fill: var(--highlight-object-fill) !important;
        }
    
        [data-theme="dark"] {
            --highlight-value-text-color: #110875;
            --highlight-id-text-color: #6e4409;

            --fade-text-color: #BBBBBB;
            --hide-text-color: #121212;

            --highlight-box-fill: #EDB926;
            --highlight-box-line-color: #FFFFFF;

            --fade-box-fill: #2C2C2C;
            --fade-box-line-color: #666666;

            --hide-box-fill: #121212;

            --highlight-object-fill: rgba(72, 207, 173, 0.3);
        }
        [data-theme="dark"] text.default,
        [data-theme="dark"] text.variable {
            fill: rgb(224, 224, 224);
        }
        [data-theme="dark"] text.attribute,
        [data-theme="dark"] text.type,
        [data-theme="dark"] text.value {
            fill: rgb(144, 164, 237);
        }
        [data-theme="dark"] text.id {
            fill: rgb(255, 183, 77);
        }
        [data-theme="dark"] path {
            stroke: rgb(204, 204, 204);
        }
</style><g role="graphics-object"><title>Str id54 with value "Hello"</title><g id="object-0"><path d="M51.23536303209094 25.768591303291778 L250.7207416594044 24.6919352772574 L249.42403011264938 153.17557966027596 L50.46772661421661 155.6658888986435" stroke="none" stroke-width="0" fill="none"/><path d="M50.68619128162816 26.02049492795226 C108.96929402186747 24.76085487227414, 166.38479236559084 25.538015849532943, 248.57191695521539 24.434880527105097 M49.38464634705408 25.41140186976729 C101.10776632353397 26.96707316002849, 152.2978802930204 27.01088758588007, 249.55976001171967 24.497342526573675 M249.510484995205 25.11139264789944 C249.95761492806082 74.31651464063593, 248.29449094101608 126.63173672481342, 248.6419703803246 154.02353295363946 M249.95575348528868 25.82154254375279 C250.18487367093013 75.44789398656408, 250.39938140715728 126.57991435924548, 249.6356678657922 155.3132469996621 M248.2752314251671 154.24568934429143 C174.39639435102407 157.18953514023434, 97.52286640716031 155.6651762258936, 48.65805591071226 155.6904994992254 M250.53119187663847 154.51867701691154 C203.60230850932336 154.99924344740603, 157.4831922115376 155.04662890119027, 50.02629193563346 155.0589059559092 M49.0402868724795 155.55341866469115 C52.71895174298116 111.77060037655038, 49.76192405029381 71.39409045872473, 51.4573035241926 26.439391100441483 M49.911907656706546 155.59133066431605 C49.937650782885385 118.14536294156419, 49.70939944849557 79.97096945577951, 49.91761180508523 25.436174341315475" stroke="rgb(0, 0, 0)" stroke-width="1" fill="none"/></g><g><path d="M42.010045554336585 20.65200442897071 L255.90530470186835 18.042105114053882 L254.62100272811782 159.88997524599984 L43.14852921439409 162.9431364781393" stroke="none" stroke-width="0" fill="none"/><path d="M42.91586166257883 17.41837855818734 C124.0368080252737 19.52172979228724, 199.90812161805079 16.893241229774546, 257.44753653232465 19.36119993154241 M43.48456235015336 18.588881300694997 C127.16391716734167 19.4920289505583, 209.9887191076255 18.745731127813126, 256.7461750773926 18.999059589346576 M255.48057455515954 19.82048609309671 C255.1917288139273 59.462058303614626, 255.04891862247095 96.99795424324964, 257.32821612612327 159.63758345738225 M256.59586815360285 18.431809153668322 C257.5773269572509 51.941480427816046, 256.6622811379998 85.88830942172784, 256.3446701759556 160.86206540808107 M257.2316476161999 162.55032362434972 C173.0494312067077 161.86867560894635, 92.64328841910111 159.3220260479685, 45.31712693460756 159.5588947043544 M256.1692205141775 160.6600066422547 C190.65448755213944 161.06119168894904, 125.29166578638613 161.54772133495374, 44.813212168860986 161.52811777969282 M42.76044245970736 161.48910724632435 C42.47271524939588 120.03568227152383, 41.6213591082649 75.12390199502138, 45.04643045144903 17.576984193010496 M43.800913673308465 160.29230037026127 C43.812833233953285 119.61543397566176, 42.59788723729713 79.72667191888964, 44.00176888138882 19.105177866966443" stroke="rgb(0, 0, 0)" stroke-width="1" fill="none"/></g><text x="150" y="115" style="font-style:italic; font-weight:bold; fill:black; " class="value">"Hello"</text><g><path d="M51.67862256776821 23.705452858530354 L110.17616620111595 23.163087688504486 L108.81064734392328 75.23316226804762 L51.62552038770343 73.32087061261474" stroke="none" stroke-width="0" fill="none"/><path d="M51.62652784613482 24.33788613763556 C66.25586906133006 25.478372286920333, 82.34128730150958 24.65157293035133, 109.53645885876801 26.14752005677534 M50.153297334314026 25.44290230425418 C70.18599072123696 24.659097602121868, 90.66375554994816 25.564499633962185, 110.6579595997426 24.683315322552946 M110.56890020903528 26.1317059010492 C109.77591251573102 35.05575820481687, 110.4076053794488 47.14281612362976, 110.14022692900804 74.6457933389376 M110.98193650182125 24.18524805203312 C110.59203217096933 38.90327093707119, 110.26446954251335 52.939949675956996, 110.55210394114249 75.8319617651213 M110.53569806711135 73.59672125393634 C89.50643738796347 74.48860327984858, 68.62874937195905 73.69595700695577, 49.98255780714963 74.08061225330381 M109.32792577165955 75.17591529751552 C97.51119794563549 74.1981213864539, 85.01541012192924 74.16964192741214, 50.412688454474534 75.7369211850399 M48.84131075585413 75.97373081655289 C47.94207671655704 56.883249844319046, 50.21946729183675 40.03990119018841, 51.827748041181 23.961048040713138 M50.29252177293782 74.67036785515596 C48.56223851911116 59.123799766253335, 50.46543174142094 45.02541484990728, 49.7378783562721 24.201199720023578" stroke="rgb(0, 0, 0)" stroke-width="1" fill="none"/></g><g><path d="M190.95708395713228 26.274898839049296 L248.0532161885712 26.000525986723993 L248.84140299020922 74.39673789722498 L190.11283727645886 73.35689868134511" stroke="none" stroke-width="0" fill="none"/><path d="M191.935770708476 24.864629088078605 C211.49866394324272 24.965923444633894, 237.10870376641782 24.31569612727704, 250.67428371083395 26.032089878948092 M190.38173703403035 25.129210188753113 C201.45892561026236 24.062007662802518, 215.00170772215492 23.674615043486657, 249.32476542495317 24.672517872212133 M251.5323233950716 26.12975746858966 C252.01268859330665 43.454694002736034, 250.99551675204842 60.56075902244743, 249.69012522728315 76.88767092205275 M249.22029576344545 24.989823507957638 C251.03529211615378 43.52184151001652, 249.2607635668864 60.50387311993878, 250.6319510689001 74.83460224021913 M250.53562637743468 75.80308237028518 C228.90483204824517 74.35474110353094, 205.2016124654148 75.68844818412609, 189.5245360174183 76.02143105719415 M249.91778521169348 75.05066033624645 C235.46859516083623 74.74558279921214, 220.30751587734557 75.44266059048459, 190.07720846277545 75.95697274071495 M190.5026960515648 74.05133504221465 C188.38811623900799 60.10230014572016, 189.7629910096103 48.52683686680725, 188.74878833190104 26.128109635427247 M189.40006875406277 74.88132196770479 C190.2523056488015 55.58093582979137, 189.15911791756477 38.2706836603045, 190.99289896554484 25.583818175359273" stroke="rgb(0, 0, 0)" stroke-width="1" fill="none"/></g><text x="80" y="55" class="id">id54</text><text x="220" y="55" class="type">str</text></g></svg>