<svg width="275" height="205" xmlns="http://www.w3.org/2000/svg"><title>Python memory model diagram showing objects</title><style>
        :root {
        --fade-text-color: rgb(0, 0, 0);
        --hide-text-color: white;

        --highlight-value-text-color: rgb(27, 14, 139);
        --highlight-id-text-color: rgb(150, 100, 28);

        --highlight-box-fill: yellow;
        --highlight-box-line-color: rgb(0, 0, 0);

        --fade-box-fill: rgb(247, 247, 247);
        --fade-box-line-color: gray;

        --hide-box-fill: white;

        --primitive-value-color: rgb(27, 14, 139);
        --id-text-color: rgb(150, 100, 28);
        --default-font-size: 20px;

        --highlight-object-fill: rgba(255, 255, 0, 0.6);
    }

        text {
            font-family: Consolas, Courier;
            font-size: 20px;
        }
        text.default {
            fill: rgb(0, 0, 0);
            text-anchor: middle;
        }
        text.attribute {
            fill: rgb(27, 14, 139);
            text-anchor: start;
        }
        text.variable {
            fill: rgb(0, 0, 0);
            text-anchor: start;
        }
        text.id {
            cursor: auto;
            fill: rgb(150, 100, 28);
            text-anchor: middle;
        }
        text.type {
            fill: rgb(27, 14, 139);
            text-anchor: middle;
        }
        text.value {
            fill: rgb(27, 14, 139);
            text-anchor: middle;
        }
        path {
            stroke: rgb(0, 0, 0);
        }
        .highlighted path {
            fill: var(--highlight-object-fill) !important;
        }
    </style><g role="graphics-object"><title>Tuple id32 with 2 elements</title><desc>Elements: id10, id30</desc><g id="object-0"><path d="M48.415524857047025 26.659322222291244 L251.20210038925092 24.656421327728776 L248.8893435560652 155.71492910228343 L50.93116482849365 155.69965683411624" stroke="none" stroke-width="0" fill="none"/><path d="M51.60979057549474 24.80318613015146 C112.11690428583952 25.073551084609274, 174.41616658971242 23.120434142296013, 250.05754719080372 23.376641670026377 M50.381997897642634 24.575199322047126 C121.96039089496529 24.282733246297916, 194.37157233091017 23.7475378489945, 250.36143863533974 24.933477623615243 M250.38339526012038 25.05382352060262 C251.78072143302145 55.84318323505991, 249.10985226846827 82.31557535178419, 248.18427040640856 153.18563992976047 M250.52707813267705 25.311719284248532 C249.51513563781154 69.35337969427565, 248.5272814625038 113.39640188548687, 249.48284453286624 155.8447511701722 M250.18127591593588 153.76114174772272 C208.35669799213602 155.06431971715844, 168.5535804275324 152.3776168786693, 50.72249282289083 155.6173057403024 M250.26950959034494 154.15259026252335 C172.71411338536885 156.78765863241497, 94.57007190644339 155.85565149765736, 49.23697845616738 155.57745281135743 M51.366534341166364 155.98548641820017 C50.96092602113276 111.75741453384234, 48.484589290414185 66.39750154943293, 49.332641569920014 25.96992412588559 M49.79021619046082 155.99052017387234 C48.82955486174342 107.18772231554208, 50.24261638557464 58.32309297496535, 50.56288378750734 24.206456533070437" stroke="rgb(0, 0, 0)" stroke-width="1" fill="none"/></g><g><path d="M43.902575610220175 18.038805202047655 L256.9051229997244 17.227471331315424 L255.70707457165932 159.7902685727287 L44.10545294252294 159.62209204581808" stroke="none" stroke-width="0" fill="none"/><path d="M43.31159460021811 18.74825085897312 C126.93159365950292 16.561628914046548, 207.21354265421957 19.3883741296614, 256.75133973410016 18.105236774049136 M44.077849215760644 19.224339583744893 C125.9000141461829 19.966900816648344, 207.14802450556533 20.141923549445483, 255.50689146223513 19.214674446280586 M256.44686761391637 20.229805702124672 C256.761880294257 66.51671306249382, 258.17072617033773 115.19675125641768, 254.64699440985464 161.58243014222742 M255.09977643080668 18.35256939555943 C257.47253349179016 66.12918795779142, 256.5656903466759 113.90930138988507, 256.07707817719944 160.10095696870675 M256.70204626242116 161.1412051331758 C182.4055800440524 161.2588677055123, 105.40020101141475 159.28235785726048, 43.45834526754481 160.72259551294033 M256.58244990061985 161.50287138558585 C180.5420343576041 160.65918520599396, 104.1717950274448 160.61333551357623, 44.18905780252296 161.0678872161068 M45.634590309064066 160.8255398748625 C42.862529383446216 111.22910921876083, 44.93601554094623 57.152056643101155, 45.17444088113598 19.049872603085124 M44.67477452985189 161.06516810856644 C43.65257124899785 124.19748347509405, 42.692924925993744 87.4170369002811, 43.1664828500671 18.65279047341848" stroke="rgb(0, 0, 0)" stroke-width="1" fill="none"/></g><g><path d="M74.25946384547494 88.92887734840934 L133.15535110625774 88.45794090591704 L131.4545443237924 138.50620943351606 L75.9349897031515 138.37576223117742" stroke="none" stroke-width="0" fill="green"/><path d="M76.88510582594088 91.61544704623167 C95.86316229644486 90.63793872140239, 116.903583327346 89.5228066441555, 133.90392844890988 88.19707247639371 M75.24498770543539 89.07713624106657 C88.67423044936862 90.7615046922086, 103.40318826806352 90.1133300039625, 133.53051952410567 90.94194644354322 M134.06883340645948 88.613104109981 C132.29517391653957 109.48086381790037, 133.59873733904388 128.28240045366437, 133.39078116448155 139.63254377264607 M133.2609908218239 89.05698405922202 C133.8595898958955 103.35640429912162, 132.41657729947968 119.18601849705458, 132.32382817248813 139.21534084468385 M134.07045804417984 140.8228553092316 C116.70273356977481 140.1399488383664, 100.91192606928622 140.0475369908338, 73.02911365105838 138.7884055874414 M133.09928043366494 140.62570870516325 C115.45486489669767 141.00029312361042, 99.11183170642458 140.67443382468497, 75.90820663327386 139.17030268907993 M76.51867560859178 141.63548048325893 C75.33907109036366 123.21166371851784, 76.47594825329989 101.85619694958352, 76.8237053054142 88.5520695636458 M75.74127668576375 140.60913804057702 C75.33890737310436 123.24345848441453, 76.02584469503756 104.29067971702044, 75.69549971723758 90.1778849132017" stroke="#000" stroke-width="1" fill="none"/></g><text x="104" y="120" class="id">id10</text><g><path d="M131.65050087475072 88.23161309033793 L192.76646558660036 89.53909998642919 L190.82934184115578 138.73102818681454 L131.31232990353507 138.60889964513046" stroke="none" stroke-width="0" fill="none"/><path d="M132.16962139800657 90.59999764261067 C143.52044133102373 89.2724110535881, 155.7636287514996 90.31777395895823, 191.21837872938133 91.98833409666697 M132.02102552081686 90.73111230405516 C152.47197624452082 90.6036878515921, 169.9642495226243 90.69056147224408, 190.5198459162501 89.40425434016774 M190.0774753686933 88.12167868833083 C192.50632613290017 107.15635083282439, 191.54228204580127 120.62031251497167, 191.38276513409735 141.6323962015905 M190.44467806787017 90.10174334863551 C191.67666791974474 105.26477009564407, 190.48554057902874 120.35905348299146, 191.86489378125393 139.16684136378424 M190.55338777807629 139.86392081330686 C176.26745123397092 141.59348901373622, 161.32453046615038 140.34708417236342, 131.30091981320658 139.67299215955998 M190.33783717332796 140.99060855989634 C167.58251671101957 140.18836170282367, 145.34070817731487 139.88476044495687, 132.45909355944872 139.2770016844715 M132.7604206166956 140.6416958021489 C133.43748464062858 128.8945532466207, 133.32335886823788 120.70304479311467, 132.6591830280166 89.3610118855374 M133.8215125288357 139.56519020767746 C133.2840765143049 126.49485718769702, 133.45830667311876 114.13505266677986, 133.7517989307367 90.97245585776017" stroke="rgb(0, 0, 0)" stroke-width="1" fill="none"/></g><text x="162" y="120" style="font-style:italic; " class="id">id30</text><g><path d="M49.632586682455916 26.432099777598168 L109.4730128899557 23.336427003917088 L111.87954030098321 74.36350904871995 L49.8105716051789 76.21337171088224" stroke="none" stroke-width="0" fill="none"/><path d="M49.576624489349236 26.964708985336003 C68.84054219721509 24.004577843467963, 88.37252393632042 25.147944612897604, 108.60169741474694 26.879533505509066 M49.03848709675967 24.18098782075064 C66.62023956090498 23.482401399578634, 82.31085152123956 25.069172944539623, 110.72108506486424 24.627276985669628 M108.8926958613275 24.69863101471808 C111.16079924810957 37.28456811678804, 111.50410929659888 52.788953513292455, 110.73565657389247 76.00233394461381 M110.598428071829 25.831867922357585 C110.18371700434908 40.04800631525619, 109.21215575876715 54.8582077291622, 109.60387695893338 74.04317227531621 M108.61634078797226 73.78113254384189 C86.85300604146482 75.57139156798294, 67.53973188743636 74.13412229647359, 48.91849749277371 75.46546247910221 M109.96279991109364 75.21488125143334 C87.98137767241838 74.65262103647387, 64.86990465146472 74.65178217916143, 50.89045744429801 75.28135881947468 M49.009861252559155 75.08679892250191 C50.29979377944043 53.9632021033495, 51.585536603170766 35.146814464653865, 49.75064446466295 23.45622846575437 M50.10877994282165 74.3154366397241 C49.73702651674419 60.958447124893894, 49.755695492004335 45.8765972578592, 49.743472729432135 24.706764648633435" stroke="rgb(0, 0, 0)" stroke-width="1" fill="none"/></g><g><path d="M181.05458867391602 23.460719057180075 L248.7788762745585 24.564912454246066 L250.73923968280008 75.88908312387446 L180.33952355771743 74.95637527184715" stroke="none" stroke-width="0" fill="none"/><path d="M178.57262371237897 26.897270942897276 C206.01700914962143 24.455697419611617, 227.9444018098952 26.759895772773277, 249.5292428443214 25.963364236928577 M180.2888310099569 24.821065820512878 C201.81548132383222 25.485873468321667, 223.70558548206455 24.26052541389608, 249.8145749129523 25.467087210831455 M248.3709892013606 26.55561709005691 C250.4404567866459 43.066944179460734, 250.872805856021 59.036989613059276, 250.8558051192195 76.28614304801528 M250.3188826963037 24.66415672092914 C249.48135654859547 41.49827464544578, 250.0423399410696 56.97601819155539, 249.10603015806583 74.85157076102534 M248.25874859861494 74.43348084258542 C230.7345463263503 76.21901486657045, 209.25729465399243 76.87032194430618, 179.38390341951114 74.54717767887333 M249.63448022363895 75.43034725951682 C228.23616781860244 76.10037414910806, 204.88076678140467 75.98214007289083, 179.7889345760146 75.99874523967925 M181.7549201327458 76.88127195558599 C181.20720792544137 60.708545431145076, 178.1588473738011 45.82372362751531, 179.68582676708115 24.251381224305792 M179.99555202198582 74.06281926076754 C179.49746567437987 63.552268618430645, 180.36960637583124 50.903844468680205, 179.54874306672227 24.456210334131498" stroke="rgb(0, 0, 0)" stroke-width="1" fill="none"/></g><text x="80" y="55" class="id">id32</text><text x="215" y="55" class="type">tuple</text></g></svg>