<svg width="1300" height="800" xmlns="http://www.w3.org/2000/svg"><style>
        text {
            font-family: Consolas, Courier;
            font-size: 20px;
        }
        text.default {
            fill: rgb(0, 0, 0);
            text-anchor: middle;
        }
        text.attribute {
            fill: rgb(27, 14, 139);
            text-anchor: start;
        }
        text.variable {
            fill: rgb(0, 0, 0);
            text-anchor: start;
        }
        text.id { 
            fill: rgb(150, 100, 28);
            text-anchor: middle;
        }
        text.type {
            fill: rgb(27, 14, 139);
            text-anchor: middle;
        }
        text.value {
            fill: rgb(27, 14, 139);
            text-anchor: middle;
        }
        path {
            stroke: rgb(0, 0, 0);
        }
    </style><g><path d="M26.276034757019843 26.200075599949507 C91.31793365200437 25.02521743777239, 155.0918867270056 24.69513667872849, 222.99549607953867 24.443587295350856 M24.480458728910772 24.08225317235921 C95.68595527924526 23.875602992545677, 164.02500769043735 22.775794698294433, 223.854578253168 24.58406757338375 M223.78659415179231 24.97323931126161 C223.88176266547885 196.27324529973836, 224.88881235377372 364.9514485128745, 223.87160070853 474.8511485083525 M223.12596527875417 25.474100619114207 C223.53615404509247 155.88736781871762, 223.58963452268316 286.6223524082449, 222.825999167968 475.38177796437583 M222.40339733044357 476.1672871815317 C155.88102087208043 474.50779233368513, 86.27995317123585 474.3374284208551, 25.090612723460048 476.5403065556988 M223.04338527110627 474.8355182360365 C157.7767084321329 474.73887202005136, 93.6406572524565 474.75578925846656, 25.857853092306836 475.9132802900991 M24.435688584517887 474.8117287898103 C23.653855239790737 384.1731854438435, 23.28632510010002 294.61638711788714, 24.43473367938274 24.591713778189895 M25.482855884070037 474.62528984301684 C24.009891673602258 297.9157099165672, 24.614093617092696 121.25730276875657, 25.367579662427637 24.864843789534234" stroke="rgb(0, 0, 0)" stroke-width="1" fill="none"/></g><g><path d="M148.63716784289946 98.36550289954167 C170.25521242734385 99.14925482330108, 193.24797849292293 99.08461927142714, 205.09064557765376 98.44152263594907 M147.20619944203423 99.61939849857544 C169.23917250684997 99.05329956152296, 189.71338998900998 100.4044249695164, 205.67733597869633 100.28824497986366 M207.75155914672024 98.8200800168959 C205.50729215900347 117.17366946255972, 204.8985780339745 131.14541755868845, 205.83202454417662 150.86653059770975 M205.3157244366132 99.30314079329315 C205.64639274767998 113.6646319996457, 206.99845249982116 127.78394408468826, 206.96860080515359 149.8242222206522 M205.40811863971746 149.28332196923017 C189.03390139803736 149.91063709697133, 173.48431120601597 150.30704580744737, 148.1960021095753 148.65559532657014 M206.90502262078914 150.19568663827803 C185.5501881206633 149.989740610643, 165.64771570555197 150.14909841120132, 148.18108001462727 150.28439170160405 M146.510632723096 148.38338873277675 C147.27427915800422 135.00078088149866, 148.1446663302319 121.74617115932028, 149.08525375539975 98.9537135414763 M147.27690706905588 149.19878081381424 C147.5492468274977 133.23697916755964, 148.90075751022434 116.57091110014922, 147.015194781321 99.46190269398382" stroke="rgb(0, 0, 0)" stroke-width="1" fill="none"/></g><text x="50" y="130" class="variable">lst1</text><text x="177" y="130" class="id">id82</text><g><path d="M146.06945270335646 173.3871170647066 C162.28575575224468 173.53729050544487, 176.43742197890026 174.18226765615736, 204.68723564199868 175.393140106783 M147.72674343090642 174.27668429204112 C167.68781346214013 175.8943482017928, 186.35906968130962 174.39227703596518, 206.40631997123577 174.87708828613913 M206.66272575209436 176.3443866021354 C207.60058580160924 190.05725409451057, 206.5176723744907 204.0596283819466, 207.30244386026433 225.74948105643983 M205.53125276660137 174.8457601895587 C205.64236619917574 186.9216963649403, 206.5352526737552 196.4631032325059, 206.43386800985374 224.28627535468758 M206.26572358579298 224.2152468713413 C184.30930764116263 225.84312945703053, 161.75161839402836 225.39470848175262, 147.1404779304491 226.25962689809958 M205.3095044995543 225.66656293030806 C190.77107436555858 225.74239574334737, 174.16524541678405 225.04292111145884, 147.0039984332582 224.1639105107588 M147.62321005825729 224.06349442640516 C146.68835925785055 210.17202851564645, 147.4437521257209 192.76358031773546, 146.605192038856 176.72411555163416 M148.7832227392842 225.4546719906897 C148.86358051215825 208.62818208566702, 148.06956763416412 193.87853298581985, 147.4710123660056 175.01441456116456" stroke="rgb(0, 0, 0)" stroke-width="1" fill="none"/></g><text x="50" y="205" class="variable">lst2</text><text x="177" y="205" class="id">id84</text><g><path d="M148.2905856195491 249.1210837721751 C167.40709724616636 251.36896044212708, 188.23680614125672 251.41952077980687, 205.04844727896474 248.03330120086633 M147.54094131342998 249.89947644126354 C167.42839176774174 249.53662204832276, 187.14657906782145 249.30783930583092, 206.55104294739618 250.26115830663076 M205.2749383232617 248.14282345277934 C206.22368551620642 268.89383075029286, 204.12872198269258 286.48898183128813, 204.47791245433683 301.024935675063 M206.93648867347187 250.38335691782754 C207.04453823119982 266.18242819101107, 205.57772797907683 280.58357469571564, 206.5611218812601 299.72734107270145 M206.84924957468525 298.71394806480674 C192.12467033837316 297.5862286928587, 176.52494664144928 298.327701874605, 147.06222044920202 301.0007699505417 M206.1852152063699 299.07396647594965 C188.0095982566536 299.47653457667656, 167.92275660299026 300.45366974216853, 147.06369924506077 300.1362498151641 M149.72582463968513 300.41239411796437 C148.14054328083162 288.7333633982505, 147.55635462071632 276.1791014632074, 146.60890630533865 251.7387097787627 M148.99027319865758 300.96606051034865 C147.03125898308932 284.04722156404654, 147.81627129917754 270.0790178867344, 148.44673445780805 250.00530693570764" stroke="rgb(0, 0, 0)" stroke-width="1" fill="none"/></g><text x="50" y="280" class="variable">p</text><text x="177" y="280" class="id">id99</text><g><path d="M147.0855135138748 324.18540015244275 C158.39152762930038 326.93225252886344, 173.37946981167084 326.83541890011145, 205.4598724461165 323.78532435883307 M147.4175000802612 325.5408313410812 C165.4492215693944 324.28487859279835, 181.63715622939336 323.93889773596766, 206.13296243601107 324.7238568183342 M207.60126767696735 325.07906628108805 C205.51453845877657 339.8655967773811, 206.1139390858159 351.4103662830267, 207.33215398658086 376.3522840325457 M205.75863371295827 324.1148165946414 C205.64620588082718 337.8602287362364, 207.04779098485383 349.00099370820544, 205.78041068761956 375.3634028132655 M205.14676648937638 373.3209685123175 C186.32595429537832 374.14967985112935, 172.27389403538552 376.3542645332386, 148.44142514598153 375.5549812042821 M205.01984778712932 375.9051024787598 C186.88468166439213 373.51525256290284, 167.89106336490906 374.52353855156343, 147.72482371238758 375.9348626434812 M149.21256634641423 375.8703007378811 C149.2653935030918 361.42155941088987, 146.4479016618363 351.8666630623221, 146.9805515239928 324.30440468245274 M147.95034599931137 374.9602275983272 C148.3810778006757 355.0293665893561, 149.268538590037 336.08344379427, 148.39979877102607 325.5220038162483" stroke="rgb(0, 0, 0)" stroke-width="1" fill="none"/></g><text x="50" y="355" class="variable">d</text><text x="177" y="355" class="id">id10</text><g><path d="M146.9795773243157 401.4883705107892 C168.92632326581975 398.6225829599952, 187.50674977855155 397.8540772906831, 205.26068857307726 401.4192869803297 M148.8666202429023 399.2642178430527 C170.6117180098984 399.72106129451885, 191.98393205211417 399.6688158279638, 206.05038327556036 399.05113927750847 M207.7388083359019 398.3784253119608 C205.61165581894073 418.47701096061, 206.58765955140015 436.72958679069325, 205.79878072052185 449.5181289685184 M205.50009829693875 400.8294074277972 C205.17630845699813 415.06673059089616, 206.3783590390139 429.2581251357054, 205.02391205811125 449.7581872619 M205.9215757036055 449.6239395562915 C187.58621331964406 447.6779487092569, 171.9283255964023 449.5579937727785, 148.4441509884261 451.3060411410515 M206.11452211984383 450.0843446637855 C186.24711805034332 450.56808796934934, 168.02626253810263 450.3982976426504, 147.3902435651835 449.44261191382867 M147.59087667225552 450.39662299772374 C149.1817669152884 431.0905885626594, 148.14557387596875 410.3689147427432, 148.42210840274475 399.14452612918745 M147.75247830567076 449.13880311045824 C148.4053391243295 435.4127598828323, 148.4113048529146 418.9058136219843, 148.48689088850435 399.33242477032604" stroke="rgb(0, 0, 0)" stroke-width="1" fill="none"/></g><text x="50" y="430" class="variable">t</text><text x="177" y="430" class="id">id11</text><g><path d="M23.202266215582362 23.786924733173084 C63.65505758365997 25.30247987928085, 100.04731437338282 25.41218106380132, 132.90338840574995 25.781345637688478 M24.450598104294524 25.55314590462927 C54.105195939289985 24.599837374860318, 86.09417505594783 24.807222464732597, 131.45393885705 24.670970490409353 M130.64947792484207 23.73054593024825 C130.13151039819996 44.472931431118255, 128.63101425654295 63.198740628788244, 132.34294328984657 73.38456305563469 M131.88232098027433 25.93261589284493 C129.72167332680874 40.4296511259781, 129.6230684652505 56.52051535032111, 131.69620076639092 74.82342834027477 M129.41628134604323 75.87921625433182 C108.10088269187688 73.9031576426662, 82.41238851611708 73.7960210045622, 26.8749448510795 75.61910981293023 M131.61259051993775 75.39136375654968 C96.98360407945813 76.75665121982684, 62.10647711596235 75.19983454157092, 24.224676937935232 74.01482062795735 M24.158890595144307 73.82856916375115 C24.166569438544702 61.68600928552139, 24.66438631397883 49.37487636958807, 23.80669039042942 24.491026649711653 M25.864257143760895 75.75713702082777 C25.81210673960386 61.04656974973899, 25.990828721298787 46.63053883433556, 24.41083680620804 24.9791898222047" stroke="rgb(0, 0, 0)" stroke-width="1" fill="none"/></g><text x="78" y="55" class="type">__main__</text><g><path d="M23.52530084695723 475.9625548780862 C76.72159122835804 473.45848300878157, 125.72328359770827 474.7030337197751, 221.32248314059726 474.58448224875843 M24.942848669996977 475.72536857448006 C93.10018275520808 473.24333761455097, 160.8274624456679 472.26650366257985, 222.84612686774747 474.9660439785065 M221.7175658984512 476.657299687595 C225.17426988195663 549.9172225261276, 222.00537701756735 625.593521105019, 221.98849853887543 698.8067833928524 M223.15650911955632 474.54890437030434 C224.2368933084543 528.6426450882145, 224.43992797075327 584.0691774882961, 223.10260471638367 700.6637075713379 M224.72456572839081 701.5887858824307 C166.1513024230013 697.2604319541537, 109.30686460141887 700.0199724200837, 25.73274695493553 698.5823527888866 M223.22326312942195 700.8122020731519 C178.24594961503504 699.1671898873868, 133.8065272601649 697.5604979042744, 24.08976016900818 699.8121734569244 M23.902248654108263 699.910945291817 C24.54069618579559 625.3041203483417, 22.46511835599765 550.2180495179895, 23.337553169569578 473.9466462549679 M24.716899295238676 700.5885753129019 C26.32021563609845 644.8748388847471, 25.2829812269129 590.3623735000684, 25.083541393201624 474.76727890031094" stroke="rgb(0, 0, 0)" stroke-width="1" fill="none"/></g><g><path d="M146.64895233705184 550.6249485140514 C165.81842709654595 548.8804071178113, 186.96369188505125 551.3204805822402, 204.6622298116918 551.0861955749253 M148.87571746888224 549.6103844811414 C170.64260766126978 549.5895376660575, 192.7015011314686 550.3225463474777, 206.8287650170413 550.2289072775695 M206.76456722877347 550.9836663571763 C205.6327872638501 565.6891633776049, 207.5820816135072 581.7462446686291, 206.7020731296098 601.623465133393 M206.42573193444005 550.7625247296187 C206.18458030132825 567.5553241233519, 206.54446595140197 583.6332577427929, 205.25245124772644 599.8496458069309 M205.66977403736936 601.4189112598287 C185.80647990861752 599.251454847222, 164.34932204093238 601.3796443192251, 149.90987179606785 601.6379966150187 M205.61764510684492 599.8157223766129 C188.74630926337156 599.978061842475, 170.75436933336053 599.956621357509, 147.8202220938612 600.0641006427472 M149.50053527727545 600.5525369080586 C147.15867621518123 582.944178738635, 146.05198104620752 565.0345391688247, 148.54132159790439 550.7888574894785 M148.10450323669477 600.3860417772917 C147.89639992100592 581.4925629909671, 148.22412301590035 564.073493623399, 147.37296830666585 550.4355412318008" stroke="rgb(0, 0, 0)" stroke-width="1" fill="none"/></g><text x="50" y="580" class="variable">age</text><text x="177" y="580" class="id">id12</text><g><path d="M149.7511131655413 624.9221759751902 C159.82284218118272 624.6495922608981, 173.0930482872424 626.702808035033, 204.5022830463474 624.9343584286534 M147.26218466474265 624.5670087352765 C171.0995684852931 625.7986296563372, 193.0405853113791 624.9959583313583, 206.40225164529406 624.5894914958265 M204.9093588834072 623.2081454870803 C204.4479561051671 642.9675912428586, 207.19273818282545 659.7618057515085, 207.80915863687375 675.1742534087192 M206.4865713613897 625.7914253851632 C206.22749656749903 640.6527144230686, 205.7717664042434 655.2826787101816, 206.28521252385164 674.1568716670415 M204.81376816335094 674.0402523973746 C187.22802943293058 672.6020955532562, 170.62778144445116 673.4874480170848, 147.9087680747431 675.3772806462262 M205.72033333469585 675.1801908359921 C192.95042769450905 675.275262742877, 178.6493307192244 676.1459231078113, 147.9617398734071 674.5170246175064 M146.68546396379244 675.5382107051099 C147.39884221942344 659.9386805481433, 149.09430557404227 643.3140685797308, 149.68071287585371 624.9706886022772 M147.79779972765098 675.7672500149949 C147.64468665015804 655.881357238395, 148.00435257779648 635.8332037152766, 148.89831800919083 625.256468993301" stroke="rgb(0, 0, 0)" stroke-width="1" fill="none"/></g><text x="50" y="655" class="variable">name</text><text x="177" y="655" class="id">id17</text><g><path d="M25.754790577175378 476.8115255268425 C52.06039536256349 476.92566098953085, 79.72631795230753 473.8838214393958, 100.51860722559421 475.2977985868037 M24.009177818456866 475.31848029050946 C45.55692520130923 474.56845772177843, 68.83862077448002 474.2176149682958, 100.29684992587953 475.5181388807502 M100.2845277043045 473.8683389688666 C102.2484285081835 493.73903203421906, 101.92144803829638 507.24107739469395, 102.17364264436804 525.495575565622 M101.93464335455523 475.4885751615715 C99.83205222105806 495.07675376982013, 99.84984525832807 514.3718512552352, 100.51983666503124 525.3419341314254 M99.05912894032458 523.6364527455642 C85.69045208275085 525.977661019322, 68.37884853053718 524.281555313718, 23.889704776637156 526.9578794103464 M100.68806021629698 524.9692517532851 C75.56063387818936 525.9587452565025, 51.526151460784334 524.4241942575349, 24.59741137799537 525.0524973450334 M25.256869802886875 524.7662050062754 C24.22217495786957 509.9955296345865, 26.69923522596203 498.3758364740257, 26.43053243898538 476.72041788693025 M25.67628368339262 524.1667485102729 C24.810092265136603 512.6748039570526, 23.83404760484158 499.92050186258695, 24.639077882727076 475.8771770161117" stroke="rgb(0, 0, 0)" stroke-width="1" fill="none"/></g><text x="63" y="505" style="font-weight:bolder; font-size:22px; " class="type">tuple</text><g><path d="M248.3857940904874 26.32097529667402 C316.81678791545096 26.356899586527, 383.4403027963289 24.939491052556132, 529.5314466656758 25.574421202987974 M247.69041938554994 24.73121515123673 C358.1698163446723 24.210098856797178, 467.2361901106989 23.557769060324766, 530.7085533708611 24.74303357009226 M529.5004047001689 23.446889103219572 C531.8673589301197 69.1680134286693, 531.994431429138 117.17800063540582, 530.2989816497053 153.17817602146815 M530.016743606387 25.828515649358764 C530.7410904547978 69.33825797243075, 530.6575954639935 114.09262678885767, 530.2827063597612 154.6499637671881 M531.3785146039353 156.33543206502716 C442.1266293518985 151.60828093083322, 350.64783447226955 153.19529299710453, 249.38934853826464 155.34587887205672 M530.3732896434492 154.2812404775088 C441.4028163449552 153.66843514567316, 351.1990516303015 154.11798690211322, 247.74857497185488 155.3527766494855 M246.9860492683928 154.9238938920924 C248.6878929399208 103.5272546739792, 246.35669670650248 52.398757862761094, 249.5569705113285 24.92734409681613 M247.7768658571739 155.78517734999863 C247.37871405511297 121.56697232414365, 247.65252248663055 86.49862938093828, 248.60513614435206 25.42600367079364" stroke="rgb(0, 0, 0)" stroke-width="1" fill="none"/></g><g><path d="M271.5632957759658 89.49160608753499 C288.6929476998694 90.3331482765148, 304.01899112345797 90.79632665271157, 332.51052404823406 89.70306075491914 M273.9678346339127 90.21458750167477 C293.1446523274538 89.8539091237286, 314.16606349871944 89.8563037883276, 331.21343438636274 90.24886639682919 M329.9631957595652 90.3088705454639 C332.3169630908339 102.39252730772643, 328.89860815743333 112.92526274095007, 331.47682413253966 140.61569169283177 M331.44533753549194 89.73767029806497 C330.7025279147496 99.25553632444002, 329.8394691571234 110.87561898655953, 331.6406419358854 140.32968538615268 M332.07115641638416 138.8784234309132 C312.7348205549157 140.06640878148025, 293.40475732662685 141.5301212166289, 272.33395177076244 138.68302279997408 M330.96321191840104 140.8637130559125 C311.46604253109564 140.24122474474137, 294.6485863643713 139.5368935986146, 273.6910328995147 140.09500347184488 M271.72264525476265 138.95030709886169 C273.7446277802569 127.38348213332826, 273.0626699254934 115.37788131142165, 271.29633368704873 89.3520455712739 M272.4384715802682 140.76247087644356 C272.1566068788991 119.64487421725839, 273.0421174591947 100.84179380883147, 273.99585627513943 89.04025853143062" stroke="rgb(0, 0, 0)" stroke-width="1" fill="none"/></g><text x="302" y="120" class="id">id19</text><g><path d="M329.82874737782913 91.96825308968504 C353.16683393399285 90.94573758831929, 369.49262246388497 88.75094916824753, 389.3830249420844 90.64332302177507 M331.1600183047278 89.41247864992056 C343.8410231227107 89.99069750414598, 356.2987986896407 89.30834182347498, 388.7335679293901 90.85408892032768 M387.1155616467434 88.59425510219836 C389.33562200292204 105.18532085998129, 390.1560587467383 119.04402536841351, 390.87523564223886 138.23506445846755 M389.2101466974744 89.26626527730977 C389.838812296254 104.52227880377205, 389.80022294848425 116.8484194447314, 389.3255778214976 140.05790477294696 M388.81806717749714 140.14966811043794 C375.030345132266 139.73724047937665, 365.92626907058167 141.00328391353827, 331.844321072251 138.34955189459208 M389.22298418235556 139.5255693125327 C372.63468012774746 139.51153429026556, 355.857081582294 139.81679659883474, 331.17977599697434 140.7984295195719 M330.0810287011178 138.60555454509782 C331.5423178740707 127.07669632213303, 331.7408135179983 110.46037470950036, 331.44549333455103 88.64080224885329 M331.26286212791325 139.4896564335771 C331.70543995205605 128.84877194251405, 332.05237671654385 117.36230762329983, 331.6925135915328 89.02614556480493" stroke="rgb(0, 0, 0)" stroke-width="1" fill="none"/></g><text x="360" y="120" class="id">id43</text><g><path d="M388.04102503751943 90.82086648280229 C409.44433605631394 91.52150142936644, 432.9477907974884 90.04272034244748, 445.85232199548926 89.08539057519869 M389.7206923326287 89.77827390004116 C408.81804362516215 90.20921223120122, 427.15404030937754 89.57442581475544, 447.3753615237636 89.43520450673704 M448.3048192593171 91.76285970815738 C447.9904080409124 105.93245439059997, 445.5348111874714 120.01514847190683, 447.76577104816374 138.35604212885943 M446.491513708734 90.46255646803301 C445.97668014629886 105.87646335274961, 446.09541058674245 122.44736079437692, 447.21230568525857 139.7245879051057 M448.58523401371855 138.6186958261082 C432.85668033018186 138.76937666685726, 420.90633027715086 142.28542202784908, 390.9856897136834 138.39659552178793 M446.276974836691 140.86139969481113 C431.3720183404199 140.55799975323472, 415.7307505846226 139.4929850287974, 388.54381288159016 140.07754893078226 M388.8287054703572 139.23240228084168 C389.17400876641767 126.31502980310822, 386.7788240694818 113.93063166816496, 387.83183134989815 88.11064758707681 M389.8765043979719 140.14251471990906 C389.15467373727165 120.4573003331479, 388.95607407314196 100.14222749646292, 389.38925475185465 89.79203005296523" stroke="rgb(0, 0, 0)" stroke-width="1" fill="none"/></g><text x="418" y="120" class="id">id28</text><g><path d="M445.5847178694009 88.58182893936048 C461.97466111585163 91.11185321041243, 477.80185513799887 89.18968860733544, 504.887598756621 89.23842020932459 M447.5840093850559 89.31496730911849 C463.5268075345645 90.01579914477733, 479.5914327171939 90.73912343427125, 505.8107534010481 89.57345439828188 M504.5632475471366 90.8472456569772 C505.23909536690024 101.4113264959072, 505.32196820020033 111.2417222782097, 506.9821447661483 141.91682213007635 M505.21878512499984 90.76227261402434 C505.50319425629533 106.80968348170667, 504.9233727243709 121.70980838757599, 505.4648703528775 140.905062676688 M505.02379091986353 139.31615845204976 C489.81729566541816 138.53587002390617, 473.24411329931957 137.99960059872686, 447.41730636052444 141.9720093747769 M505.3557953016884 140.01851099423783 C483.0622894036271 140.9253041012797, 461.68065042807405 140.85502772618085, 446.33069737197224 140.67838862417474 M446.67072693994726 140.6431663068422 C445.1094780414645 129.3967212915494, 445.5172156528376 116.7680432051148, 448.9124854065941 91.11605668058775 M447.99983685551643 140.09385283260042 C446.56260512484533 127.68847993646888, 447.991486712264 116.10230925561089, 447.2116430332534 89.0061680719499" stroke="rgb(0, 0, 0)" stroke-width="1" fill="none"/></g><text x="476" y="120" class="id">id49</text><g><path d="M248.94797400151685 24.732275871083186 C263.6389750526025 23.834817802315637, 279.1051797933962 26.73391684570167, 308.59930085486303 23.480529982009106 M248.05048566659403 25.542348855376343 C261.3150403727511 23.822631800405915, 274.8936917642121 25.46591874405218, 307.22768490094785 25.210277878939014 M308.60806514696304 24.134977674609658 C307.3017359473189 39.04686822868892, 309.0900771729822 51.39771815858229, 307.0727343577543 74.4375252159535 M308.7696167980482 25.172336727943787 C308.2949988581684 34.91641283560478, 307.89936524263305 45.97358221065911, 307.5445079640797 75.97092016306877 M308.36569737278097 74.90391302896793 C289.75575659142703 77.1476059570978, 270.7026377614645 75.94942273018296, 248.59009802218955 75.56184940598902 M307.9277367613883 74.30506234461575 C285.3492836501395 74.26376289418546, 263.53692910752085 74.75096751708583, 247.42025081910126 75.61111297196676 M247.18890638762124 74.51932055933197 C247.53196121071014 57.192143764330616, 246.38234252873508 42.89512851784414, 248.83949413173875 24.446170130489644 M248.60798037032419 74.04972050390255 C247.9037867354442 65.26068784159358, 247.82178888346576 55.16071630412929, 247.20171802818408 24.19992371246657" stroke="rgb(0, 0, 0)" stroke-width="1" fill="none"/></g><g><path d="M471.13982166969504 24.34357778719784 L530.3581581337177 25.05356133074976 L530.3627965501043 75.0395286508295 L469.2924395930673 76.41821434154262" stroke="none" stroke-width="0" fill="white"/><path d="M469.03017011542704 24.985676239026247 C483.0002399480334 25.205338402923296, 498.8802096137199 24.408230384668492, 529.1954310725545 24.20974943873272 M469.1359772996896 25.688798835204388 C488.3143399563131 24.369874190590046, 505.2511700919836 24.352987157321593, 529.0333710075523 24.490988747965844 M530.128351234562 26.582587248869924 C530.9716396408975 33.76440571696689, 529.9606838897498 43.78168083111286, 529.0656299774877 75.71763218738064 M530.7562394505902 24.69028253807237 C530.3832741631542 38.549099328055014, 530.0578403547757 53.979486881912145, 529.1123632259863 74.40894409791584 M531.7356326702526 75.06186986601946 C517.0092394780617 77.07074420200512, 500.265869071549 76.59754545432497, 470.1310769324027 74.4550657602211 M530.2685138956607 74.67896987040902 C516.3443291971739 75.09337184971811, 501.0609779437323 76.48835782769137, 469.33597862193807 75.80074511567152 M468.17507591366825 73.69755921788375 C468.7118353606196 55.25543733691669, 469.561200610771 36.76802324403109, 468.4367904634089 23.02905304493584 M469.165989901974 74.189823405987 C470.8360823397171 60.68180002995318, 470.7547307328018 47.759316128024864, 470.57305999478734 24.585785915324816" stroke="#000" stroke-width="1" fill="none"/></g><text x="278" y="55" class="id">id54</text><text x="500" y="55" style="fill-opacity:0; " class="type">list</text><g><path d="M555.3747797119445 25.16661839824633 L778.315023293512 25.09905441335498 L777.9882990864069 154.69436950599948 L555.3411328849767 155.18887522795114" stroke="none" stroke-width="0" fill="yellow"/><path d="M554.9756182037796 25.331226854271833 C634.6734544084268 25.53056326839436, 715.0708858453438 25.464178070616107, 777.9054349096311 25.21316192970058 M554.952404246844 24.944526315685827 C609.3754175076275 25.15418862029136, 663.751990075913 25.289267324999386, 777.956291513213 24.934898629464396 M778.0613731727877 25.263288560438102 C777.6783205189478 55.02329368772906, 778.2042438895423 84.44917725134916, 778.3547273300062 154.89129496693164 M778.1027973487869 25.16764447493716 C778.0104716062737 69.58297822031146, 778.0383828135114 114.49666547409144, 777.8745994286879 154.9009510929079 M778.0650782173688 155.02939438994437 C722.1252949788122 154.46359478785837, 666.1845403099616 154.71851281710622, 555.10124657959 154.82941744188872 M778.0969719747775 154.97138610949696 C725.5743216181318 155.1777547169822, 673.2952940375291 155.37982389736084, 554.9952799045592 155.11920482806224 M555.3361312160278 155.17386200949113 C554.6197140517431 119.65981440525556, 554.4909829771724 84.29749710700611, 555.1246863181608 24.680483229989207 M554.9058759017066 154.90329063601263 C554.8894771805471 116.30021373584107, 555.1414261686186 77.4543834865694, 554.8508617809888 25.11816567750985" stroke="#000" stroke-width="4" fill="none"/></g><g><path d="M549.4888922863079 19.758846651391753 C637.9258153879033 22.524964033909157, 730.5679785254935 20.11619456890621, 782.8652954536475 18.154941242647666 M549.5678162611543 19.474676345867845 C597.0676034548153 18.211066310708553, 644.978822907324 17.154504524843, 784.5457026202959 18.182099048548665 M783.7477468069723 20.166909179326126 C784.862904210589 49.79952579079645, 786.1854500075211 78.48644000353369, 784.4854650448927 161.74861843970376 M784.4815303009473 19.455378562396234 C785.6676529357551 58.313208169398685, 785.5772766765815 99.73663106392644, 783.2496019187213 161.18995962179167 M784.2501979640904 162.07431893591166 C713.065399760976 159.45614549491162, 640.4567655573006 161.81405843035526, 549.2186885420011 160.32954810721827 M783.4565392099053 161.33144905730964 C695.4058043123512 159.73931048416458, 607.8878411499429 160.28556524231297, 549.1662328466059 161.0806127141777 M548.1785044159999 162.75190505198958 C548.0256529898658 127.73017744859185, 549.120129401838 94.30551762745431, 547.5306159646632 20.261734877311312 M549.3661338865121 161.8707572260577 C549.0196976537975 124.91309226359192, 547.5624265333705 87.32655227009262, 549.3090404447933 19.78516135955402" stroke="rgb(0, 0, 0)" stroke-width="1" fill="none"/></g><text x="666.5" y="115" style="font-weight:bolder; font-size:22px; " class="value">"David is cool"</text><g><path d="M554.7014306576342 24.723023649476772 C577.1222788582058 25.35337710284515, 599.0280612245249 24.98486552222693, 617.5133882988071 25.186758891160714 M555.0109623270915 25.091330804634715 C576.8271294756801 24.85623725556194, 598.406394695704 24.71625717803989, 617.670787635912 24.8043066135583 M618.160330703408 24.70517466695875 C617.6431975616674 44.205661351748, 617.6026665748027 63.98411709957331, 618.0758122839167 75.29853638687136 M617.9986829800365 25.04709441198281 C618.000085261817 43.8087176998489, 617.8849893326026 62.51954537590357, 617.6348038782122 74.97363143772299 M617.8599333327016 75.24145758171164 C595.1002787413206 74.89634291164202, 571.8585478520425 74.62623101095149, 555.2687220993681 74.89087120817454 M617.6445783407906 75.15046065393453 C604.7404581083625 74.8905129447065, 591.7540305862641 74.90376285547485, 555.1068001983303 74.99432329802765 M554.9178910174757 75.1345898447046 C554.7157575435805 58.60590278046489, 555.0277996821306 42.25647018306515, 555.3793374962314 24.746923763539 M555.1314744089268 75.15609442408818 C555.1376798886599 60.845666044557994, 554.9932948433805 46.6300687818627, 554.8403227232006 24.87327902807586" stroke="#000" stroke-width="4" fill="none"/></g><g><path d="M717.8721636410717 25.16612591369731 L777.984813079653 24.805265003311455 L777.6843899851862 74.79216865592196 L718.2023847485834 74.92132774421259" stroke="none" stroke-width="0" fill="white"/><path d="M718.246405772243 25.17916236264609 C736.0364221303868 24.887439648120708, 754.382214880949 24.829556858598792, 777.8220651286592 25.054993031133193 M718.049803526979 25.03530229498037 C738.0690894169043 24.911205361664592, 757.8568494182268 24.8392363350748, 777.8259750717762 24.88933992795824 M777.8828172724084 25.287862031513537 C778.385054929717 36.39862768280858, 778.1138012390481 48.46740029428201, 777.8581302036611 75.15768379379934 M777.810914398893 25.122376650786972 C777.9803289884486 43.78708248245559, 778.0081090077417 62.42334150186718, 778.1411911462397 74.80554386388027 M777.967413398193 74.85938349600578 C762.5945393588406 75.23322081214928, 746.6661404877077 74.8179311732913, 718.209989323335 75.19037581780344 M778.1389255474926 74.95177987774231 C757.8471614665017 74.80286087783266, 737.9657221884154 75.03378657001657, 717.9571646126924 74.83555787460497 M718.0811869881851 74.73529054437788 C717.8957275149148 58.50639756144342, 717.8071327503732 41.456520354012355, 717.8362868104214 24.874616878453384 M717.8706896886571 74.87271779678642 C717.9593126018998 55.893818837135356, 718.220842841123 36.89124749745329, 717.9470988160912 25.037167294993264" stroke="#000" stroke-width="4" fill="none"/></g><text x="586.4" y="55" style="font-weight:bolder; font-size:22px; " class="id">id43</text><text x="748" y="55" style="font-weight:bolder; font-size:22px; fill-opacity:0; " class="type">str</text><g><path d="M815.1606057517305 25.092913830791844 L1015.0246190701605 25.269483260960758 L1015.2755606211506 155.39371203926436 L815.2851325984798 154.64776488897928" stroke="none" stroke-width="0" fill="yellow"/><path d="M815.3025553776059 25.06489197851616 C893.0999112491643 25.367117451345713, 971.5561280215718 25.449215208899243, 1014.8679259654882 25.22256683163389 M815.1417438938582 25.010645006172833 C889.9469154382854 24.766673774860365, 964.9762087005795 24.88704968342797, 1014.9183874804984 25.06060975347507 M1014.9927474226159 24.72752010483466 C1014.914654969243 54.8071265258356, 1014.7430596236168 83.76710328405493, 1014.988483813523 154.8891967007947 M1015.0856224531867 24.8982388417702 C1014.7794702886163 67.437680406231, 1014.6957852643003 109.71992700916618, 1014.8190987447643 154.9513632571425 M1014.7675836811405 155.01919745904692 C942.605040809504 155.26950109965387, 869.5130060683049 154.76628560692586, 814.6535537844182 154.66662814340964 M1015.1289825764288 154.97233783410974 C972.757848439935 155.1026577083584, 930.3012107638976 154.99159212257274, 814.8221772740374 154.8969754809391 M814.8163004507403 155.14791309946642 C815.291814545715 126.20173444145293, 814.9269689596935 97.21109407482695, 814.6232984017681 25.355486856478887 M815.003638208721 155.1800166776392 C814.9493816302645 127.68177672191649, 814.8989022766672 100.58075943674221, 815.1544997183083 24.824222077123757" stroke="#000" stroke-width="4" fill="none"/></g><g><path d="M809.6422419390918 17.58084652382631 C884.8809477246682 20.25052209376936, 964.6721168053255 21.477845264771194, 1022.4242559942559 19.227359509053468 M809.3054850439338 19.395211923239238 C862.254426566392 18.376115248629308, 913.3441150704334 18.52199681766897, 1020.7210311624306 18.36880444175153 M1019.4983997298654 19.43748571292778 C1018.9767069262953 49.12139347456602, 1021.0960515877298 76.95699927051982, 1022.0404484701446 160.7373601973469 M1020.9838240500175 18.610755940955833 C1021.3476388857683 69.95766000173148, 1020.1550934567435 122.28419838340993, 1021.9304915592153 161.35448640930764 M1019.943411014252 161.66791121880482 C957.9657095486591 160.8930457681943, 893.7500000218115 161.86434860896193, 807.815685420844 160.27398400754328 M1021.464157080508 160.47709893728995 C953.9389876845794 162.53910690055162, 885.821944512885 161.72571467386348, 809.2320286652916 161.5013528146554 M808.2920502462365 159.70505988673145 C810.8004665517798 120.6626194224798, 808.7990612645051 81.96536872834285, 807.0237183592745 20.50002233845889 M808.3057707700997 161.30137835163956 C810.4689121202633 110.42849450704051, 809.7536994942277 61.52298913084556, 808.9767843019052 18.75902090515943" stroke="rgb(0, 0, 0)" stroke-width="1" fill="none"/></g><g><path d="M841.0597800900931 90.1183529972068 C852.2552506320066 90.83361919290492, 866.9103759639083 88.35478614918317, 902.2908749614035 89.87960300061238 M839.4210189233918 89.1523561384654 C861.6220463044931 90.44632063147212, 880.93101762694 89.72245636651844, 902.4149262804475 90.97975522017289 M903.2189586020518 89.9332801883017 C901.8437548009764 104.42817726962444, 904.492421668706 119.89461836356982, 903.5269022373342 139.40045212874168 M902.2417854920251 90.80148171551899 C903.91297435846 109.41402312210059, 903.0790556526101 127.4919272606617, 901.9331050867411 140.16039422238848 M904.563263353889 138.30992358769655 C882.8270309103899 138.0047854378548, 862.1414305554512 138.30265898562547, 838.6449193370171 139.87416289393417 M903.0052355961468 140.94507959417115 C877.3996595948978 139.26422564381934, 854.522642286837 139.9117148974446, 839.1168047649776 140.33662386248864 M840.7364808673401 138.8293773492572 C841.8780653849121 128.19808812179232, 839.8653169407339 115.37579238429957, 839.0068576296655 90.33277871692691 M840.6640721048025 140.81272143756087 C840.3105812584356 127.81124052646187, 841.0223969671795 116.66258464330147, 839.222554315923 90.17476822951001" stroke="rgb(0, 0, 0)" stroke-width="1" fill="none"/></g><text x="871.4" y="120" style="font-weight:bolder; font-size:22px; " class="id">id82</text><g><path d="M902.2480656566835 88.16792175241865 C924.9873998029187 89.30985993898733, 943.7171883585166 89.90844187188918, 965.5078884214558 91.17065950678479 M902.3502302280817 90.5185371335656 C916.2609087158418 90.28698431572735, 931.4781516746267 89.79708881662351, 965.7114420518088 89.30873661331313 M967.0210537042564 91.00731902697248 C966.9933074947288 111.32319034889267, 963.5409999365296 129.18882856809196, 967.2982659030802 141.15560618258408 M965.6158238597217 90.92756433247042 C966.0118736245415 108.986992155546, 966.0078035616173 127.20323942994375, 965.2405108146503 140.05403048865773 M966.3228594903876 139.32650468473292 C946.3556403362392 140.77156425930988, 925.6222595448378 139.76187257469982, 904.1837176322721 140.72773546705386 M964.7720066755367 139.9607226039952 C946.8046995627869 139.93894316776343, 927.5743984739971 140.48216728911976, 903.535326913095 139.0884993715131 M902.4956487632958 139.4486138623725 C901.3992664398794 123.389494645359, 902.0934097545776 106.21038634102436, 902.6232733975296 89.76167833003137 M903.0624563821431 139.01553382099206 C902.1481569661116 128.9338903308421, 902.3775476512458 117.01732527456277, 902.7225664117602 89.52664651118015" stroke="rgb(0, 0, 0)" stroke-width="1" fill="none"/></g><text x="934.1999999999999" y="120" style="font-weight:bolder; font-size:22px; " class="id">id76</text><g><path d="M814.8720046748048 24.805158824679918 C836.8764512361191 25.431623163027083, 858.6837712763314 24.935901498610484, 877.421258219523 25.24496770130205 M814.922403746205 24.918459930674064 C828.5641531106186 24.77161619410889, 841.6009364914471 24.915902812423443, 877.6173163638722 24.94114232826004 M878.1510617004853 24.951049923134537 C877.4894420764543 37.593372662944894, 877.6733151654857 49.77618825313458, 878.0008576048964 75.31646494788883 M877.7142773212111 24.963393029817325 C877.6927965322695 44.52221915143728, 877.8504011860845 63.57234397500511, 877.7208066426253 75.01504920836311 M878.1430401990244 74.69159535660432 C856.6346197284904 75.0676296535351, 835.1609609884663 74.515087835486, 815.072414593688 75.23846868009852 M877.7805122195799 75.0755009837979 C862.8472613480888 75.20308753411094, 848.034680528437 75.02296406873829, 815.1839170619342 75.03122516043865 M815.3071714763169 75.34347129590375 C815.4415184133102 55.15325083875876, 815.0895438449631 35.31990990754074, 815.3390843170107 24.929553524195335 M815.052847097098 75.0539179572503 C815.0397710274877 64.73184992402456, 814.9687774859466 54.89451775478361, 815.0246311560338 24.961500226410898" stroke="#000" stroke-width="4" fill="none"/></g><g><path d="M939.1888897620709 24.759994456098998 C962.6241157136301 25.090149398042755, 986.5172206294039 25.010226559101156, 1015.327269649006 24.867893891067926 M939.1002827437118 25.167486798881004 C954.9815873889411 25.014397079041885, 971.0977418334332 24.774008165165014, 1015.1990132090738 25.03861056094451 M1014.8942733326758 25.11109974980703 C1014.693700151691 38.05983011903684, 1015.0850691401868 50.78127743857058, 1015.2211749292014 74.76650863296852 M1014.9769547182918 24.927621264877914 C1014.8937198829387 39.85238502737089, 1015.1127637277955 54.85710774382368, 1014.9791200135076 75.07330521406193 M1015.2966157734725 75.00134395426475 C992.3971977123982 74.53434238070031, 970.6398969073122 75.13722271293155, 939.353244003974 75.19159341397649 M1014.8891632995776 74.89406724866014 C990.7989632550159 74.97876865635803, 966.9453515149678 75.04391886175127, 938.9861870465315 74.99426025593608 M938.8633534599034 75.39215082032284 C938.8353840472461 59.32179726355848, 938.8420262326932 44.28829077575713, 939.2549297714705 24.860941928356294 M938.9326039881224 75.01276557376715 C939.0231086129105 57.221737347173104, 939.1371848251048 39.11260488855785, 939.0259301419201 25.192588257771636" stroke="#000" stroke-width="4" fill="none"/></g><text x="846.4" y="55" style="font-weight:bolder; font-size:22px; " class="id">id11</text><text x="977" y="55" style="font-weight:bolder; font-size:22px; " class="type">tuple</text><g><path d="M246.6368293277258 191.88830739099262 L500.8371923669433 193.75504612384708 L500.5182330104061 319.99898096656455 L244.80331500931592 322.66822881672607" stroke="none" stroke-width="0" fill="rgb(247, 247, 247)"/><path d="M245.72789782219888 191.3458428344709 C306.2429887600701 188.07526632636407, 367.10171412124305 186.85220551447125, 494.91110303410017 194.77877508066243 M247.80001540969593 191.48099486008002 C299.7535276517704 188.01002865250177, 355.2418384648431 188.057106868942, 496.8225956314151 193.4353379631422 M494.69317996276294 191.2418035057553 C491.5810502539281 228.4138396429288, 497.8315952729119 273.7427565739329, 493.45820147218114 323.0821032454547 M495.10002751085636 193.0598161496687 C499.6099610717687 231.01422885263182, 499.5880402940662 273.48732242577665, 496.7555303683537 320.97686950193054 M497.94495913669056 320.0662918163559 C437.96045723936794 318.2247528582746, 381.20035028570584 317.0064242951435, 251.12656183757133 319.3470752995494 M498.53080093451035 323.18615568116417 C421.81724071432933 320.0686099296375, 348.4200152904065 320.7099498497546, 248.35256296111544 323.10015322826894 M250.79687897745947 318.3260986707689 C250.93652637969564 285.29406852039057, 246.84005339583808 250.8056196725557, 251.2059632836988 189.62218862140708 M246.09289193811853 322.46225204375895 C247.45895873562034 293.08329378521375, 244.9070302669758 262.72459238986625, 247.4599038531637 192.9494151189325" stroke="#000" stroke-width="0.5" fill="none"/></g><g><path d="M272.53640474858304 258.6983141704777 C287.9594363665802 255.1205955292081, 299.8986267141374 255.32791107635995, 330.6548366630023 258.34308180159803 M273.72917654833526 257.2193510152853 C293.1650782065262 256.7284653882231, 311.14143079642673 256.5808181073442, 330.69144639306137 257.28227035305974 M330.81234714078676 257.86956193035894 C331.1964873888923 271.7892797020532, 328.94953356245964 288.22129188135864, 329.67363746613097 305.5422621026157 M331.6986949498067 257.5556090298743 C330.69601782197776 276.2796761756213, 330.79607243605864 295.50975405595614, 330.3488039829493 307.79105191717554 M330.26610825136726 306.1255279030151 C309.3312947507822 307.9187425319551, 285.6694008485044 308.40970697766716, 271.28427307282055 308.0215206898004 M330.62210249579726 307.6142816669531 C309.53832093912337 306.6470959537154, 287.6715317334948 307.7868936253903, 273.32259292132187 306.5986908009507 M272.2184070926796 308.4961479535244 C270.8504831868944 287.04759066401806, 272.8841741628043 268.0866396546697, 273.8707505028094 255.86793642614992 M273.6294071518384 307.35545661389784 C272.8242782813786 291.2588996115237, 273.1332619403587 275.4596195238364, 273.16957378705143 257.8651250783637" stroke="rgb(0, 0, 0)" stroke-width="1" fill="none"/></g><text x="302" y="287" style="fill-opacity:0.4; " class="id">id36</text><g><path d="M341.9782960560751 256.5261298946476 C364.48740700213307 257.84658759347656, 382.4209313213477 258.0964331719252, 403.08465536659025 256.74672276144975 M343.04850115657587 257.5234576224779 C356.48558648928974 256.5208767400993, 369.02945451130597 256.60637540449414, 401.47122133939945 257.230624771317 M400.1944691705713 256.17110572891045 C401.8152861832981 273.86431868823706, 401.88104108153004 286.34190665614864, 403.11889801762516 307.21004696532424 M402.0477964085881 256.3285647034394 C401.568048242281 275.2489719623182, 402.29212516335787 293.1169809557741, 401.0913586547428 307.8795904646483 M401.8823002365756 306.179449377892 C389.197779525933 307.2243981756884, 375.4452339851931 306.56493667520505, 343.2852208832948 306.23227468073566 M402.19401349015766 307.5687506970034 C381.482253080339 306.01418667159464, 358.850042116426 305.75801308914936, 342.6573047725635 307.4298280846812 M343.65017159044413 305.2570920428353 C341.69357301868234 295.3882591965932, 343.44096491693193 284.61835895850794, 341.755730659272 257.2774529551241 M342.5214898102943 307.35914488444115 C343.06123506233115 290.76540412619374, 342.92440168690524 275.6169508943256, 343.2051869145824 256.7699376109951" stroke="rgb(0, 0, 0)" stroke-width="1" fill="none"/></g><text x="372.5" y="287" style="fill-opacity:0.4; " class="id">id49</text><text x="337.25" y="287" style="" class="default">,</text><g><path d="M413.47859228133166 256.7541792664674 C431.7457721788687 254.88513382663177, 448.5017929886967 254.97148203594904, 470.73544527297554 258.2196211340449 M413.43902012217893 257.96119477522456 C433.0166018772852 255.62735275680896, 451.72378460332794 257.00062115315245, 471.57374763860304 257.3117257042392 M472.7907980242288 255.1775861456382 C473.18923086083487 274.9559046396874, 470.9515864603349 290.57205027090856, 472.9741303068153 306.656298645855 M471.26936076719574 257.83610675938706 C471.9530106739105 272.2455435597943, 472.1844966383629 289.4838142402942, 472.2407656826693 307.6518943239731 M473.42196194466965 306.28617632966086 C452.3755191172049 309.0026829895681, 436.6776133416147 308.42613024882587, 412.22796636969224 305.5103778457829 M471.53479004818115 306.1963776329693 C454.17847673328504 306.5956513496995, 437.0426649153354 305.77035262943093, 414.40062933841693 306.028450646532 M414.3194584130269 306.96678351673415 C414.5541608067047 292.15214854678345, 415.5767500424603 272.978969567724, 412.1386673760388 256.56224163193673 M414.2992737820179 307.9539817005219 C413.4460370856244 292.7596162137372, 414.9612000820836 278.88668160669164, 414.50234993416746 257.68675124146705" stroke="rgb(0, 0, 0)" stroke-width="1" fill="none"/></g><text x="443" y="287" style="fill-opacity:0.4; " class="id">id64</text><text x="407.75" y="287" style="" class="default">,</text><g><path d="M250.5215255484944 189.17615654103676 C264.4836640139887 193.73403106351472, 286.021428178298 195.603480198849, 309.5457068004579 193.10815714543276 M249.3611911463378 190.53696803138135 C269.40710560754593 192.22904571266156, 288.78338741009287 194.07905987561264, 309.4424378853076 190.5637874813917 M308.33497218137165 195.85247931878249 C304.28215043698503 211.94503803994508, 306.6895251237031 234.61726358024345, 304.1824738927523 240.2763973973762 M307.7836946189667 190.05451147850198 C305.79913166853805 204.814399022624, 308.3549021141273 219.66877252793319, 308.75849411999894 241.57972131040347 M309.4654323809845 243.88044174775337 C291.47540019982404 245.85465882845247, 275.35826474538453 244.38017518033638, 247.93072224062269 240.38889839745647 M309.3344983084618 241.05724525914073 C286.77972248637474 243.85326923033213, 262.80428884212336 243.80581341865292, 246.77695633458325 242.8979704079914 M248.48718805728396 243.7548688576349 C249.41954935243862 226.9016539825585, 246.75190228867962 217.11627230435562, 244.94813735345255 188.06133019752198 M246.58311844566455 242.2134544452323 C246.14631424878618 230.28064707780746, 247.4768128062195 215.16309337712192, 246.57079404441257 190.7051083500467" stroke="#000" stroke-width="0.5" fill="none"/></g><g><path d="M436.03740034311954 195.82461985921725 C457.76498557956717 191.13536345059345, 474.9079595315665 190.62333889137165, 500.1106102381339 193.50843275550363 M438.15332387355693 193.8562373262066 C449.89089608898433 190.5755670993165, 462.3674822104686 189.79006059928642, 497.92446672949217 193.41277281439076 M498.9513013045165 191.99609604583415 C499.35726413904086 204.68138986872862, 494.47013514816445 214.85194031147714, 499.9316570337444 238.03115662536771 M496.2580038375186 193.9633497461667 C498.31085217705265 205.73920412699908, 495.6948088425899 222.30945214486235, 498.5897748501607 242.64584926143124 M498.65401194044125 240.58250139933747 C478.6827237229872 237.37718248818635, 458.15922813151565 242.93584434542313, 435.9629840472493 243.9022315682224 M497.9649840498253 242.9209637082803 C481.21862252224787 243.8495561938796, 467.4828766968262 244.67855568844294, 436.1797327381919 240.9619100611801 M433.04435087508153 239.88104120027924 C438.2891916686376 228.05913734230788, 433.94653826001786 210.74852532761443, 440.3281043792298 195.54939713048745 M438.307907618366 241.0368120704469 C437.7032334305236 225.4424973447904, 436.4677111401589 207.7479573702252, 437.62246807031136 190.2177966298495" stroke="#000" stroke-width="0.5" fill="none"/></g><text x="278" y="222" style="fill-opacity:0.4; " class="id">id90</text><text x="467" y="222" style="fill-opacity:0.4; " class="type">set</text><text x="260.5" y="287" style="" class="default">{</text><text x="484.5" y="287" style="" class="default">}</text></svg>