<svg width="287" height="292" xmlns="http://www.w3.org/2000/svg"><style>
        text {
            font-family: Consolas, Courier;
            font-size: 20px;
        }
        text.default {
            fill: rgb(0, 0, 0);
            text-anchor: middle;
        }
        text.attribute {
            fill: rgb(27, 14, 139);
            text-anchor: start;
        }
        text.variable {
            fill: rgb(0, 0, 0);
            text-anchor: start;
        }
        text.id { 
            fill: rgb(150, 100, 28);
            text-anchor: middle;
        }
        text.type {
            fill: rgb(27, 14, 139);
            text-anchor: middle;
        }
        text.value {
            fill: rgb(27, 14, 139);
            text-anchor: middle;
        }
        path {
            stroke: rgb(0, 0, 0);
        }
    </style><g><path d="M49.89486678134067 25.2431982906347 C107.01314802305909 26.04260293904417, 164.88331513591783 25.981165346424074, 249.33953235871897 26.249467936369335 M49.34845331970408 25.228977609436374 C122.3888792873165 25.733286117437846, 194.59479883331227 25.197394002020914, 250.41489180844832 24.244940042747327 M251.8979806677104 26.393568051664438 C247.56741004651343 55.717903912627314, 247.3809015040933 87.28177122158152, 248.51160255912737 153.1241084867471 M250.00609508045304 25.1291075771868 C249.5911816273256 65.38848502241305, 249.47184217312036 106.26425885181129, 249.14201374340163 154.30051291759221 M250.59483569077955 155.82009527738865 C198.26433033510696 155.37982873419855, 144.4797185717188 154.986948334654, 50.89225072336828 155.6059919158021 M250.42313132326112 154.7561562577944 C170.6391628965685 153.35576174295934, 91.04957618388872 154.14200972363562, 49.30899263915621 155.45168888296334 M51.773166101601646 155.78475308282586 C49.7803287159295 115.86889299359945, 51.18429548360781 75.11859624383396, 48.880285044215 26.502241553299225 M50.04516053595398 155.35716016686283 C48.3914701694775 106.95310999671001, 48.92720124925094 57.38199054303511, 50.36426022216651 25.26061348005678" stroke="rgb(0, 0, 0)" stroke-width="1" fill="none"/></g><g><path d="M43.99673242934687 18.4722011635371 C98.83040844787372 19.984842443945013, 153.00769558546145 18.202339174572806, 257.1076794552425 19.952653379939317 M44.79901305479789 18.7692588091722 C92.43924656412005 16.827660007449737, 141.10747577460643 17.680750764645147, 255.85852384019114 18.93940121862614 M254.94872573976113 18.91233569007766 C257.89646633646396 66.58591044595295, 257.53310384590105 113.15550099934585, 255.41676158938262 161.0974242389238 M256.0511676135046 18.558889321940512 C255.03358579600223 51.45700431371464, 256.5399703087635 85.223451204078, 256.84132825508266 161.11151675454383 M257.7588121435939 162.00647045896343 C190.17895477848677 160.92347931329778, 123.19346554233373 158.83945401063437, 43.59492622753939 160.56158061844798 M255.51346337562293 160.17744184814833 C170.98100371676918 161.52548163420212, 87.35157718697745 161.6616946571472, 44.19809028457861 160.18285859824738 M42.962183964932194 160.78100421788403 C43.55351756490097 106.8558219469118, 42.8752018761524 51.261330960572195, 45.46232637680791 17.05949122093429 M44.474459282081334 160.1529061535519 C44.73827330473164 118.71266712854317, 44.679377682405395 78.21707097922668, 43.14854270464907 19.551770773556306" stroke="rgb(0, 0, 0)" stroke-width="1" fill="none"/></g><text x="150" y="115" class="value">124</text><g><path d="M51.321449673187075 26.603542851797517 C67.19555496898349 26.290068355328913, 84.40164943998002 24.653737216855312, 110.46342079235907 23.87172697876842 M49.17161706145157 24.57504031095557 C72.18100600585171 23.945946952539174, 95.80442986558995 24.11137121880874, 109.18296281878898 24.882329305609264 M109.83680077196702 25.867603315505146 C111.63219208149164 42.28498826769647, 108.87021242342233 63.517607272042305, 108.53970749010071 73.87718092864888 M109.15454967534687 25.686890294087892 C109.75887301403102 40.74740715401067, 110.06978346316461 59.07047398118595, 110.17655728944787 75.7439531360469 M110.12657420954201 74.28037804563075 C88.19600080001638 76.2188703515196, 64.39265510756357 73.42941077911995, 50.32682204809811 74.96244901993524 M109.32531597949158 75.72046084595033 C90.19220876004752 75.63966361080935, 70.18916940839715 75.56647501804962, 49.91592549651723 75.10292745550773 M48.353919683008655 74.65760912371152 C48.34758609329267 54.624425482699095, 51.8908883946997 39.17368105250211, 51.42635389289229 26.423359289980386 M49.93118703695605 74.62076637892568 C49.9141522990773 57.889028317086215, 48.6274500696221 38.58208176425403, 49.2680042056027 24.800014610093612" stroke="rgb(0, 0, 0)" stroke-width="1" fill="none"/></g><g><path d="M188.60413132571088 24.364612995124016 C208.24753842553153 26.250266367834126, 230.01642005173818 25.25559738787454, 248.72723641201293 26.64354484109848 M190.15445426867035 24.33219979370694 C207.42055421252633 24.866344860814888, 225.99477255164908 26.04306598743236, 250.561144594927 25.415177726327812 M251.9088306627145 26.48383227438213 C249.1019510970715 40.20961104301721, 247.56652626384812 56.461215763748676, 250.3859989057429 73.7393762123056 M250.5145561648288 24.48655759240833 C250.32935195575115 34.69895106377653, 249.2578514770631 45.61118024172627, 250.92439188342686 74.51538940726601 M249.06323099266325 76.88672436898678 C233.84265491733055 74.51450705537593, 217.05910783336142 73.07680203893868, 190.83733597281798 75.07829581378243 M250.72921185733722 74.45066213564512 C227.50784778635827 74.9809585908966, 207.3082228461347 73.80765232817579, 190.97400456428232 75.18160087628362 M189.9865935779688 73.50636867926337 C188.46581033744283 60.332611735274966, 188.37671456624494 41.4392713501142, 191.40025520092928 26.489188299326077 M189.9754642962902 74.26557243516862 C190.07303519368205 63.295993550186914, 189.89552682478202 53.14675459429299, 189.00043230628276 24.75712971554735" stroke="rgb(0, 0, 0)" stroke-width="1" fill="none"/></g><text x="80" y="55" class="id">id19</text><text x="220" y="55" class="type">int</text></svg>