<svg width="291" height="300" xmlns="http://www.w3.org/2000/svg"><style>
        text {
            font-family: Consolas, Courier;
            font-size: 20px;
        }
        text.default {
            fill: rgb(0, 0, 0);
            text-anchor: middle;
        }
        text.attribute {
            fill: rgb(27, 14, 139);
            text-anchor: start;
        }
        text.variable {
            fill: rgb(0, 0, 0);
            text-anchor: start;
        }
        text.id { 
            fill: rgb(150, 100, 28);
            text-anchor: middle;
        }
        text.type {
            fill: rgb(27, 14, 139);
            text-anchor: middle;
        }
        text.value {
            fill: rgb(27, 14, 139);
            text-anchor: middle;
        }
        path {
            stroke: rgb(0, 0, 0);
        }
    </style><g><path d="M48.6754995041105 23.931917795084658 C110.614369375179 27.362943748406256, 170.97858922186583 25.470067284042923, 267.7332806147318 24.184555928830314 M49.30836282117288 24.216257076274424 C99.20271941257951 26.095212463646057, 148.3570461693868 26.69256072325987, 265.4139103088257 25.138018816395565 M264.76445390341286 25.626367333566147 C263.17034212511805 76.67057132800163, 263.0005604176271 129.3926407356411, 267.2040144571284 176.76344425557855 M266.6698731657996 25.779977720192722 C266.51968089600535 84.31433270335792, 266.43924711973943 143.00836510995913, 265.88539224405287 174.35898377644784 M266.5153974758987 174.02116124696275 C217.71183085888083 174.27250298568998, 170.6034140221447 173.84910221049142, 50.331543243630406 175.0475957728411 M265.35273995098754 174.52695259941595 C193.77115018167177 174.81870425918362, 122.34010937329381 175.02138404317364, 49.339501274966864 175.7818952747281 M50.545791363034894 175.9393371191821 C48.09124067999596 130.2213101258537, 50.28252539069567 83.3791519041144, 51.35092172189604 25.009308451130508 M50.58812137486869 175.70652593698946 C48.97392515741991 124.90631453575132, 49.54013277771464 75.80040937148422, 49.216288475411496 24.27703375406308" stroke="rgb(0, 0, 0)" stroke-width="1" fill="none"/></g><g><path d="M43.227662452022315 19.096183473839837 C104.4348135134068 18.37312740112185, 165.28794426074447 19.402663721834394, 272.93405877905667 17.826083581660438 M43.37880373828893 19.405814789906973 C104.54858033988931 17.11872911892144, 166.3902401831551 18.60980024517719, 272.62792386827124 19.522981035785882 M272.03696350585875 17.09888634926179 C273.3291605630974 70.90654773037632, 272.65774973085007 124.19728550233596, 272.666655101326 181.02673816148405 M271.763271118107 18.63104866999025 C273.15015652532026 61.81127553544856, 272.29961765646067 104.3276881812628, 271.9884366544782 180.54938642042083 M271.08181393800186 180.09863209061808 C226.01562030353352 180.78485745049966, 177.03332408527768 179.51866436603723, 44.15776347378227 181.87874129541092 M271.65479173377145 180.44102579242121 C222.0003107374151 180.0542578366859, 172.0409182124842 180.86258585209148, 43.95892222355064 181.5189597928277 M45.26303774194962 180.58943881436335 C45.10280519379547 143.6475552839858, 42.840352229039624 109.19892617487264, 43.563587932316544 20.24640250106395 M44.72548233231004 180.46662549976242 C44.86726877195771 139.07397096742085, 44.667932227676985 96.68846114236531, 44.37762820804118 19.140388694756712" stroke="rgb(0, 0, 0)" stroke-width="1" fill="none"/></g><g><path d="M74.95703631571575 110.0600554419904 C96.84928991821941 108.34337689050463, 115.01521808141351 108.8803132380869, 132.50773668717534 110.06337911743674 M74.62601995676928 110.47705959790827 C89.26276569751471 111.15620677203312, 106.17140594068034 109.90827929993179, 133.34993106367438 109.62412496373683 M132.80481311100104 109.82893058404343 C131.96781521112592 123.59066284779387, 132.21122391052796 139.84569152223156, 133.1862250036189 158.78750484870207 M133.14670197902075 109.22492995789634 C132.03807049131308 121.68207386799227, 131.97931099824578 133.7378224504546, 132.08446825011043 159.84883685089488 M132.87049885154917 161.48939091907405 C116.81963202447413 158.09743989943115, 97.96432866582211 161.88371728618685, 75.18606562890204 159.80383016937353 M132.0278132015619 160.96165303755583 C118.92013336872272 160.41163235192343, 107.66051354562798 160.68509520298437, 74.29807933158301 160.46868775297423 M73.6436726861471 161.65536885224495 C74.95411389500981 141.56680384121842, 74.42128859658416 125.97464847896023, 74.09618794536632 109.46449219589826 M74.41251417175516 160.54767305884556 C74.70612229818217 146.308349838184, 75.17531865752368 134.80967137576852, 74.4701426809576 109.15567320988092" stroke="rgb(0, 0, 0)" stroke-width="1" fill="none"/></g><text x="104" y="140" class="id">id82</text><text x="104" y="97.5" class="id">0</text><g><path d="M132.1820049014104 109.67099804633072 C149.51768973308694 109.0641532380215, 170.85177118470548 109.03935048081001, 189.04903348584975 110.54882238516757 M133.60871344707408 109.33669452530039 C148.0688329012767 110.07569091346471, 160.74834468045444 108.85102038924809, 190.78300886447124 110.04520511487075 M190.45249957752833 109.48455179364254 C190.70190526204868 127.06755609195908, 190.6020919852496 142.07478812823746, 192.85092870876403 161.52908062631968 M191.64544384680855 109.73098886159045 C191.06943444847204 125.96191816408722, 190.3519574015145 143.45895079251184, 191.046613527928 159.6170790718266 M189.94623867734637 159.09739048215528 C178.78297310381257 161.02774967640354, 163.73248429187032 160.1501826214711, 132.79021095969034 158.45857000636516 M190.07089419145308 160.5216123812503 C177.9833695502673 159.24530549693688, 164.14610654511526 159.55763633671592, 132.37487836578867 159.388628580512 M133.17154839719214 159.3770513590026 C132.63470077166514 148.59522999599676, 134.03041530686278 133.9686367821887, 132.90203594603102 110.13067734568703 M132.57949309933426 159.47383087520032 C131.9319139633238 140.0774029900327, 132.14059574082563 121.92241988293482, 132.13766701008842 110.3673810469594" stroke="rgb(0, 0, 0)" stroke-width="1" fill="none"/></g><text x="162" y="140" class="id">id76</text><text x="162" y="97.5" class="id">1</text><g><path d="M192.2458695303964 110.65483602926118 C205.47413734443626 109.42857978004955, 218.9268207742997 109.08899391994413, 242.60913672939253 111.4520346547865 M190.03170615497245 109.93046422694121 C208.06382270526717 110.78734229688914, 226.22873958237082 109.66722688646038, 240.19657309151 110.50490729644679 M241.5125063638533 109.92612489072118 C241.4056482066977 119.69608005825265, 240.34572294153637 131.54027463675232, 240.7992761095848 160.423830383653 M240.12936291828655 110.60052024723682 C241.31857447156352 123.2192960135303, 241.6611956250976 136.56116456680914, 240.57401488020096 160.91203325202306 M240.9679019921953 159.21025798535968 C229.46600653929522 159.57748014039743, 214.83739118884563 160.3865847739596, 192.95793245033292 160.42135232732937 M241.14097085669965 160.09925794183644 C231.22353593610612 160.34206160132908, 219.7680377140655 159.6569741323421, 191.40750737842842 159.38713327503348 M189.37091682123798 160.02560077803625 C190.03108491967592 149.51406137649752, 190.91239520805382 139.03967459786483, 191.70263236230295 108.25952780275995 M191.0322027724553 159.69477442196336 C191.29201709402102 143.55032965032842, 190.76910702189062 128.09160162736958, 191.59026791270452 109.13228423291547" stroke="rgb(0, 0, 0)" stroke-width="1" fill="none"/></g><text x="216" y="140" class="id"></text><text x="216" y="97.5" class="id">2</text><g><path d="M50.262991179036725 23.935876944839634 C71.63999089605296 26.62419588541188, 95.66549396056082 26.171651405494977, 109.73124344408976 24.551644729536115 M49.45140807203411 24.841271669856994 C63.89950032949669 24.785081935268995, 78.26070814525755 24.972403143909208, 109.80990984227763 25.994593124953894 M111.28609040111502 26.080436608478063 C111.3254448313896 40.65503372301297, 109.5374594294795 55.54478561635594, 109.86114696113556 73.52389893269219 M109.43372122586405 24.128951914793735 C108.88313508824059 43.078914775830306, 110.2289111776943 59.50546644894347, 109.9167881578156 75.36815388578157 M108.41913352651143 74.96011321754393 C93.31094495151484 76.56962443625893, 76.79258266346613 73.19575502344809, 49.986229231625835 76.27262142106781 M109.18984090844661 74.61998749266111 C88.06072996321217 75.66467155049234, 66.15682724171512 74.57475032702656, 50.758591927614205 74.7357115393888 M50.06215631395662 73.00931731537553 C49.215224751085515 62.06921137861685, 49.133416298017664 52.880593573823106, 49.452676290354546 26.790576656876738 M50.6568993717952 75.51474335121621 C50.233515325562394 65.71227391468521, 50.68077122969002 55.21287700808412, 50.47888630772726 25.49856989197051" stroke="rgb(0, 0, 0)" stroke-width="1" fill="none"/></g><g><path d="M195.96343897894525 23.25268924000165 C214.86651318630757 25.253003781642636, 235.5276393034558 26.53772171121141, 265.6515310431425 23.964012942376367 M195.86454444959452 25.102254911352652 C217.56402909714416 24.873109120046745, 238.96604034950448 24.606449090252678, 266.0641119785492 24.327267202095918 M267.18938059602965 25.5904464782894 C266.5120206572248 36.91907027819153, 267.17039684137114 45.957866155028725, 267.99870892295036 76.55895012020291 M266.7420400767928 24.1280569675131 C265.0767813149039 36.90481274379055, 265.9686566730955 48.2338432846927, 266.8081309501878 75.7768830144168 M267.6932672059046 75.77955071580553 C242.26555052650443 74.5332204966449, 217.96780081715798 72.6646812525265, 196.57061085207584 74.46123309961126 M265.331409531433 75.57147010827984 C250.60951314887066 76.04167203328586, 234.7454412591812 75.85578797890891, 195.91288244757388 74.02046602137837 M194.3888860774622 74.77440532703493 C194.92201495872493 66.20372632908825, 197.1076944584384 55.62532828134296, 196.15535523713592 26.775341323271867 M196.3227316603103 74.07117303501254 C195.85807939207112 57.32644591734633, 196.50356519629923 38.93601321776216, 195.9854509029557 24.985502038898698" stroke="rgb(0, 0, 0)" stroke-width="1" fill="none"/></g><text x="80" y="55" class="id">id11</text><text x="231" y="55" class="type">tuple</text></svg>