<svg width="287" height="292" data-theme="dark" xmlns="http://www.w3.org/2000/svg"><style>
        :root {
        --fade-text-color: rgb(0, 0, 0);
        --hide-text-color: white;

        --highlight-value-text-color: rgb(27, 14, 139);
        --highlight-id-text-color: rgb(150, 100, 28);

        --highlight-box-fill: yellow;
        --highlight-box-line-color: rgb(0, 0, 0);

        --fade-box-fill: rgb(247, 247, 247);
        --fade-box-line-color: gray;

        --hide-box-fill: white;

        --primitive-value-color: rgb(27, 14, 139);
        --id-text-color: rgb(150, 100, 28);
        --default-font-size: 20px;

        --highlight-object-fill: rgba(255, 255, 0, 0.6);
    }

        text {
            font-family: Consolas, Courier;
            font-size: 20px;
        }
        text.default {
            fill: rgb(0, 0, 0);
            text-anchor: middle;
        }
        text.attribute {
            fill: rgb(27, 14, 139);
            text-anchor: start;
        }
        text.variable {
            fill: rgb(0, 0, 0);
            text-anchor: start;
        }
        text.id {
            cursor: auto;
            fill: rgb(150, 100, 28);
            text-anchor: middle;
        }
        text.type {
            fill: rgb(27, 14, 139);
            text-anchor: middle;
        }
        text.value {
            fill: rgb(27, 14, 139);
            text-anchor: middle;
        }
        path {
            stroke: rgb(0, 0, 0);
        }
        .highlighted path {
            fill: var(--highlight-object-fill) !important;
        }
    
        [data-theme="dark"] {
            --highlight-value-text-color: #110875;
            --highlight-id-text-color: #6e4409;

            --fade-text-color: #BBBBBB;
            --hide-text-color: #121212;

            --highlight-box-fill: #EDB926;
            --highlight-box-line-color: #FFFFFF;

            --fade-box-fill: #2C2C2C;
            --fade-box-line-color: #666666;

            --hide-box-fill: #121212;

            --highlight-object-fill: rgba(72, 207, 173, 0.3);
        }
        [data-theme="dark"] text.default,
        [data-theme="dark"] text.variable {
            fill: rgb(224, 224, 224);
        }
        [data-theme="dark"] text.attribute,
        [data-theme="dark"] text.type,
        [data-theme="dark"] text.value {
            fill: rgb(144, 164, 237);
        }
        [data-theme="dark"] text.id {
            fill: rgb(255, 183, 77);
        }
        [data-theme="dark"] path {
            stroke: rgb(204, 204, 204);
        }
</style><g id="object-0"><path d="M48.145040830469256 23.153268527499744 L248.481905039989 25.329208139396385 L248.26242618831674 153.51666671930786 L48.34182841373043 156.5902484976045" stroke="none" stroke-width="0" fill="none"/><path d="M48.29402961171693 24.854052915398498 C121.89930966294804 25.4955891084495, 196.89629053023708 25.959440548573113, 250.62157673806178 23.2896344635696 M49.971830341049056 24.35546758210243 C108.34003257109049 26.712317105211262, 168.18710172954013 25.570289181935635, 250.31015810732666 24.70339097745838 M251.47782704225554 26.67377312667876 C248.711025090368 59.43691808708749, 252.36786979324285 92.68128033171605, 251.31703870878914 153.63153674711927 M249.55719536818177 25.02006791004898 C251.34178187340856 52.972760894237524, 250.59562879587548 82.01221466802522, 249.76100743839152 154.467281852226 M249.66420993227885 153.88003596053002 C195.19364180267053 154.91651057626567, 138.82851652303734 154.13320786030397, 48.94443753147825 155.5866455814228 M249.6048586697858 155.25467980831962 C175.32068472137115 155.7363837671866, 101.37036946898088 155.522561862128, 49.52166794710116 155.2297444891737 M48.4730936658558 153.71066492323055 C52.905430420761064 122.9031971180249, 51.34887138656423 89.79186289010234, 51.628635485477844 23.600038331783704 M50.054161783717404 154.72182518719885 C48.85294438368826 113.92736188987156, 49.12515665709448 74.02392860937657, 50.53915093580947 24.801896356758476" stroke="rgb(0, 0, 0)" stroke-width="1" fill="none"/></g><g><path d="M43.08553420732176 17.971873543870505 L256.6317347644664 20.520498974386424 L254.26612155169673 162.45052965837368 L45.30480485849563 160.02769341797952" stroke="none" stroke-width="0" fill="none"/><path d="M42.28270782406912 20.541662148229815 C88.71093983678881 18.50010867182556, 129.63262093617428 17.588297968856292, 255.01352938748835 18.073512981350667 M43.81424694999334 19.477012174736423 C106.3474054275677 20.14515267129646, 168.73391617093233 19.34895397076369, 256.5414733144312 19.28013636301251 M254.48564185556066 17.44557401671596 C255.07793576903097 62.35253582161814, 256.9518967465901 104.72538700948107, 254.19654471751483 161.72517698749493 M255.64679474789855 19.210451311187665 C256.3805490948968 71.48825125441017, 255.27601045234505 122.71997853527851, 256.5332521194767 161.34892794422916 M254.49452279840287 160.6883809259641 C207.8280376142335 161.93005066115578, 157.8033886201424 160.95575222073512, 44.15551012823343 161.99415115803885 M256.81329332730843 161.66918027234945 C195.35094259575283 162.13661917887597, 134.08302765239728 161.2985308375125, 43.42319936114338 160.1321191790055 M45.093589945645334 162.68477283652325 C44.503576057469964 118.41597276139201, 46.16866607603522 75.13060750662765, 42.26248473346563 18.171162420570553 M43.71608345376845 161.03556769835447 C44.8184249209355 118.13539182427967, 43.92816342692366 74.5918435128409, 44.109855292462555 19.87947798957422" stroke="rgb(0, 0, 0)" stroke-width="1" fill="none"/></g><text x="150" y="115" class="value">"Fade Type"</text><g><path d="M49.526926060790174 26.502670290275915 L110.64145143445883 26.94662366378968 L110.98109098397919 76.8458703541971 L49.76116906175112 75.54645068277785" stroke="none" stroke-width="0" fill="none"/><path d="M49.41529779963074 23.68451283311582 C65.50534005500303 24.558549644161303, 79.88839876663619 26.227072662746778, 111.45941971041901 24.838593485062678 M50.83051735667944 24.50174971590421 C65.91139805216658 25.729490429474524, 83.84083606783697 25.839625040985602, 110.41380331298441 24.68900228022418 M108.82363472217352 24.603766170507935 C110.96822172972965 41.65229381226464, 108.05330404490334 52.84812057382174, 108.54690753923953 75.70124126583403 M109.83134427374229 24.357424641519625 C108.70844373646092 41.94726170041105, 109.27118886198693 60.24288199705087, 109.78562609682142 74.03805515737943 M111.16308346782883 76.8013075785894 C93.42464292644723 75.56934016643703, 77.83579986063637 74.14152028134986, 49.1387615502987 75.11273713697105 M110.02954991626527 74.64280560530072 C92.92435874097363 75.94484996080249, 77.43035637521238 74.48682342478328, 50.141379863754175 75.97610904568957 M48.998253624823455 75.32791408657698 C49.980318098510935 65.27455908922835, 49.94550980176908 54.852186363734255, 50.636146959856276 24.22178129993687 M50.93435279370776 74.02094165780991 C49.98225276610018 61.429267399313176, 50.870070656622886 48.87834046512302, 50.84251094754778 25.005810314862977" stroke="rgb(0, 0, 0)" stroke-width="1" fill="none"/></g><g><path d="M188.8404378904125 24.44785062795599 L253.18941767047698 21.92775400697532 L251.83805490073757 71.92949650761587 L192.47235718536697 74.93135803725667" stroke="none" stroke-width="0" fill="none"/><path d="M192.9620725009244 22.73598862923289 C201.58891797632847 23.67242697291072, 218.59093173314506 23.533835270766332, 248.99730173703068 26.37002612967744 M188.4237930139575 23.028903825385793 C205.15670775595999 24.36809467571077, 217.8019948752829 24.670685977304075, 249.315776645069 25.374321113714586 M251.90609049516544 21.460850523347364 C249.5346585835536 40.8846802918184, 250.8828551116198 52.12507283847615, 251.86982543720652 72.1657752317248 M248.91370543482535 24.539647169259037 C249.42122362555935 37.40074617752236, 249.35835427819538 50.58008206711861, 251.22696803513278 76.96536486407486 M247.7559384189528 71.25646155823186 C230.90784658213175 70.96857061875983, 214.81248772031566 72.99023934829837, 187.6903479115509 73.31992073854109 M249.0197104598681 74.59883562293805 C231.75053208589432 73.83694638305559, 215.43266582833965 75.96092457790598, 190.13806639606793 75.10881318620798 M191.70298984387432 74.67090005945616 C191.84876752396536 58.46953489142782, 187.76200394355192 39.142444832620896, 186.6313042826425 26.80280210815758 M189.45540462275275 76.5077421080367 C191.72256086774766 61.51454134438669, 190.09843281200614 45.859063823428855, 188.08640337115742 24.487857933570815" stroke="var(--fade-box-line-color)" stroke-width="0.5" fill="none"/></g><text x="80" y="55" class="id">id24</text><text x="220" y="55" style="fill-opacity:0.4; fill:var(--fade-text-color); " class="type">str</text></svg>