<svg width="287" height="292" xmlns="http://www.w3.org/2000/svg"><style>
        :root {
        --fade-text-color: rgb(0, 0, 0);
        --hide-text-color: white;

        --highlight-value-text-color: rgb(27, 14, 139);
        --highlight-id-text-color: rgb(150, 100, 28);

        --highlight-box-fill: yellow;
        --highlight-box-line-color: rgb(0, 0, 0);

        --fade-box-fill: rgb(247, 247, 247);
        --fade-box-line-color: gray;

        --hide-box-fill: white;

        --primitive-value-color: rgb(27, 14, 139);
        --id-text-color: rgb(150, 100, 28);
        --default-font-size: 20px;

        --highlight-object-fill: rgba(255, 255, 0, 0.6);
    }

        text {
            font-family: Consolas, Courier;
            font-size: 20px;
        }
        text.default {
            fill: rgb(0, 0, 0);
            text-anchor: middle;
        }
        text.attribute {
            fill: rgb(27, 14, 139);
            text-anchor: start;
        }
        text.variable {
            fill: rgb(0, 0, 0);
            text-anchor: start;
        }
        text.id {
            cursor: auto;
            fill: rgb(150, 100, 28);
            text-anchor: middle;
        }
        text.type {
            fill: rgb(27, 14, 139);
            text-anchor: middle;
        }
        text.value {
            fill: rgb(27, 14, 139);
            text-anchor: middle;
        }
        path {
            stroke: rgb(0, 0, 0);
        }
        .highlighted path {
            fill: var(--highlight-object-fill) !important;
        }
    </style><g id="object-0"><path d="M51.118519900560464 25.470662732633294 L249.21183780583982 25.061535984989284 L249.30867510614755 153.06801120269853 L51.74499116877889 155.24407643901316" stroke="none" stroke-width="0" fill="none"/><path d="M50.63824543772304 26.742129835930143 C94.72139798664296 25.513824936943095, 143.2584051357854 24.481451441814535, 251.55087244194885 26.028785850226903 M49.4587398969866 25.23749459184966 C118.19892858863483 24.387270329135294, 188.89081770753893 25.68694064107841, 249.31295491144965 25.66974465403969 M248.3130179650472 23.69201864489723 C249.247267406157 72.0750978237494, 250.15388608174786 117.50630860183485, 250.50518195880124 155.4612336224457 M250.04333392535514 25.337182475377315 C251.6039337431693 76.04733134667472, 250.95867391880296 126.11316075636873, 249.8369874512251 154.710178879071 M248.51709491489254 155.26011100051238 C177.8183219894813 156.07524579202564, 106.53000022801943 155.0758458656663, 51.544306027517955 156.72675090321212 M250.30063405743704 155.20848933062177 C208.38980661448088 157.1476662652585, 167.50226279202766 156.80277607926638, 50.0885922697275 154.41777005876108 M49.05538366786767 154.6276885192625 C51.32830704043202 121.97805170307299, 49.430708542336006 87.05079687148687, 48.784623600143895 24.083948972605363 M50.680621331788934 154.40000138763725 C49.78845692999685 107.50418576670386, 49.52889255318028 60.540597121401326, 50.84004284540412 24.148728945731033" stroke="rgb(0, 0, 0)" stroke-width="1" fill="none"/></g><g><path d="M45.51494757797278 18.236252662466164 L254.31148945543836 19.404616722987214 L257.22627080314265 159.96741648475313 L44.294173421824645 162.15695256962724" stroke="none" stroke-width="0" fill="none"/><path d="M44.93522631196821 17.37593821599696 C93.06241107283346 20.39395458396419, 143.23270040858787 18.992737774526965, 257.2883687426348 19.596177390179697 M43.40811950991226 18.421129350918783 C114.27274249254636 17.92344309896677, 182.97036963736 19.02736923436577, 255.96058109224683 19.704204072837694 M257.9807436044465 19.57088843566839 C256.76497887306465 51.144968106217306, 253.20343342581594 84.4028114788166, 256.77636440817133 161.28707321492536 M255.30348296463626 18.932263902881207 C255.56493997669767 47.775665023876115, 256.96386507866583 76.2119267704941, 255.23017572396373 161.35441082305135 M256.6836081670087 161.02493014528685 C198.54365450205202 161.00911102335212, 144.38967545131862 160.98445415218532, 43.5999267782054 159.66936170984678 M255.15616931672605 161.32316940198513 C190.24773938214824 160.72163922315724, 126.00562296140744 160.42549284799537, 43.89083821809192 160.9800204634694 M44.1909437480227 162.9482346798248 C43.35095553237345 124.10769242393633, 45.0335928583776 84.79719004455562, 43.71476035782079 17.37314744366681 M44.31007762226252 161.3985730263504 C44.7728056731822 128.44174016918342, 46.21621518788392 94.4759787961611, 44.30136753998587 18.13836860470283" stroke="rgb(0, 0, 0)" stroke-width="1" fill="none"/></g><text x="150" y="115" class="value">"Hide ID"</text><g><path d="M48.93938698360691 26.98347861207906 L108.42061178389548 25.363026356570035 L110.17376281098562 75.62083899159101 L50.953401359974464 75.74542556151813" stroke="none" stroke-width="0" fill="var(--hide-box-fill)"/><path d="M49.55921066571297 26.822781139455056 C69.77535840736631 26.508442944698924, 86.36933314049426 26.351151781265024, 111.74343119476579 26.571587475064895 M49.75075903973691 25.43002201014533 C66.29448884411434 23.832618799740892, 84.43022992519202 24.767904429571374, 109.85112776642376 24.324075906089643 M110.60883031146605 24.3986484977693 C109.27481563103454 41.31050346137071, 109.8442603232217 53.59361841454442, 110.86114487634094 76.77603635876727 M110.97161842011683 25.753760394360498 C109.88973085701849 41.97154489006205, 110.45749177768064 56.471946450378454, 109.80612393835356 75.89609352136686 M111.88817291574894 75.52309563077623 C96.73484928953526 76.42630538579643, 82.8389156527963 76.78247784688342, 48.36271448884925 73.43898771259583 M109.88065358938474 74.65500254670722 C91.67563715574762 74.640958070359, 74.34775739232023 74.93858638039933, 49.73720011742985 74.22587563845363 M51.05370964283022 74.58794708504651 C50.947668290666755 64.55685641814961, 49.3996533416942 52.735584968866135, 50.06080721588198 24.683963713258528 M49.743037360410185 75.65494310189189 C49.410745919127066 56.86283426508205, 50.468266983942726 36.9859573660114, 50.18002691185342 25.762021275232243" stroke="#000" stroke-width="1" fill="none"/></g><g><path d="M188.19691161783737 23.664875923754472 L249.21224852559706 24.51205684219579 L249.89499393867627 74.66858599201119 L189.53633758774126 74.41712394760847" stroke="none" stroke-width="0" fill="none"/><path d="M191.99104272478573 25.452994482865165 C201.81635572361859 23.508159813617628, 217.4741519595329 25.780669136422503, 251.21937408066313 25.18792622243146 M190.79115528773218 24.17195009287156 C201.81731982302577 25.46965383173518, 215.53168455337868 24.976879665936636, 250.3719699608148 24.12845624670011 M249.35537794177097 26.65581750060944 C248.3772490381175 35.290480529265835, 251.7330662528619 43.46150551809679, 251.59727911329736 73.41534510565057 M249.81923336627207 25.598742504083724 C250.47698857494862 40.1328312576787, 249.09421873403613 56.010120678136836, 249.11392706020118 75.83715082862693 M248.64129022462473 76.72028593072223 C233.90713229225577 74.01728163221306, 222.6893577492278 76.57423620451283, 189.43766225290133 76.84601182032662 M250.9702101410352 74.91056647630356 C234.80108952022667 74.4634921717271, 219.9806437552997 74.24049426636971, 189.57262517519428 75.05507077361567 M189.68224254546524 74.64300097498933 C189.28451674025024 61.886928188188946, 188.53196742388627 51.71586486085019, 190.27876975879084 26.303520255093098 M189.26216881750605 75.46202373108594 C189.85947829188805 57.25292557922445, 189.68275635313444 38.142850979281135, 189.77230501087405 25.950029512257526" stroke="rgb(0, 0, 0)" stroke-width="1" fill="none"/></g><text x="80" y="55" style="fill-opacity:0; fill:var(--hide-text-color); " class="id">id26</text><text x="220" y="55" class="type">str</text></svg>