<svg width="304" height="292" xmlns="http://www.w3.org/2000/svg"><style>
        :root {
        --fade-text-color: rgb(0, 0, 0);
        --hide-text-color: white;

        --highlight-value-text-color: rgb(27, 14, 139);
        --highlight-id-text-color: rgb(150, 100, 28);

        --highlight-box-fill: yellow;
        --highlight-box-line-color: rgb(0, 0, 0);

        --fade-box-fill: rgb(247, 247, 247);
        --fade-box-line-color: gray;

        --hide-box-fill: white;

        --primitive-value-color: rgb(27, 14, 139);
        --id-text-color: rgb(150, 100, 28);
        --default-font-size: 20px;

        --highlight-object-fill: rgba(255, 255, 0, 0.6);
    }

        text {
            font-family: Consolas, Courier;
            font-size: 20px;
        }
        text.default {
            fill: rgb(0, 0, 0);
            text-anchor: middle;
        }
        text.attribute {
            fill: rgb(27, 14, 139);
            text-anchor: start;
        }
        text.variable {
            fill: rgb(0, 0, 0);
            text-anchor: start;
        }
        text.id {
            cursor: auto;
            fill: rgb(150, 100, 28);
            text-anchor: middle;
        }
        text.type {
            fill: rgb(27, 14, 139);
            text-anchor: middle;
        }
        text.value {
            fill: rgb(27, 14, 139);
            text-anchor: middle;
        }
        path {
            stroke: rgb(0, 0, 0);
        }
        .highlighted path {
            fill: var(--highlight-object-fill) !important;
        }
    </style><g id="object-0"><path d="M50.013656821768166 25.722830844237976 L267.8461544974302 23.876020015137417 L267.51589736193915 155.98507983632592 L49.72719785668317 153.92807050587766" stroke="none" stroke-width="0" fill="var(--hide-box-fill)"/><path d="M48.33851340282118 24.031041306347515 C103.57586830047764 27.196786908718988, 155.3381753361038 27.42545331105428, 266.88411019948 25.85977143634024 M49.73552462563679 24.154897887044235 C115.48301098358327 25.50878975123407, 179.12429448827925 24.96379435387656, 267.62221014650237 24.16016598157185 M266.52117256522786 26.70489097173332 C268.38916130151995 73.55820191928797, 265.1716654228024 120.2182232548396, 267.2617597286096 153.3684358160068 M267.10740731347073 25.32322101388452 C267.4554418501261 71.53921987552178, 267.7492328975142 116.12575843491732, 267.3416083649098 154.54040455792787 M266.43203144678057 154.8980649923755 C186.81896772706804 155.68421155120322, 107.17736179728217 154.34840773324302, 48.424908307969254 156.58366540487685 M267.68736247391547 155.50299291181108 C210.30553644730406 154.74168363342304, 154.91358096429346 155.49197471425228, 50.00187194478216 154.79694551670346 M51.102785898781825 155.10602649070623 C48.10440287153753 107.30295068100173, 51.0833831874706 62.24324205672542, 51.85112401551949 23.48655926775325 M50.366611831643716 155.8117668821367 C48.95930118750471 113.67464571330575, 49.26342953506605 70.76493688068858, 50.80103005869613 24.062866371627983" stroke="#000" stroke-width="1" fill="none"/></g><g><path d="M44.14979175484032 20.598388187099488 L274.15205748081434 17.156101297683257 L272.34578065277293 161.94955343585391 L45.38140544770231 161.3953967055101" stroke="none" stroke-width="0" fill="none"/><path d="M43.48921729433993 18.857588133009298 C97.73393259889991 19.01431402752756, 150.86140090837264 20.13127945751316, 271.8362930381219 17.515274449112994 M44.2687250591759 18.439814954401477 C116.76956519809804 16.599275341042, 189.99105342556658 17.6674103648407, 272.75802810995776 19.299499473325707 M274.2114497833809 20.19696976424708 C273.670641149117 49.730610737632055, 270.43324963294924 83.87484414386873, 274.1538144876855 162.99673173079418 M272.68809502378616 18.594153988751003 C272.6523992993588 71.40042517533827, 273.9691097138309 122.29761572287063, 273.8776488682726 160.13604160112183 M271.5423330964001 162.52311389633795 C213.55930195836717 160.5380258439319, 155.93350685697234 161.0641144274939, 43.02888434328426 161.42536917579542 M273.31672560170296 161.25464939083193 C203.39922675914903 158.73064235326325, 135.1256562699635 159.82082618524873, 43.271807024456265 161.1088520039499 M45.64515280707462 160.33629840961717 C41.389341063362224 124.08042509724493, 44.86011282349913 88.26541329088685, 45.40379783911605 17.45865941760318 M43.033250113260436 160.8288455104422 C43.22898114708824 105.34006049872553, 44.00658047088849 51.80509360792106, 43.077658325040346 19.15921675620961" stroke="rgb(0, 0, 0)" stroke-width="1" fill="none"/></g><text x="158.5" y="115" style="fill-opacity:0; fill:var(--hide-text-color); " class="value">"Hide Container"</text><g><path d="M49.00348899296905 25.012259360327324 L108.06664694230413 24.846330617795935 L108.21323275528327 73.12433599770151 L49.60287543529569 76.77854994069956" stroke="none" stroke-width="0" fill="none"/><path d="M51.353554879162004 25.824652110318855 C63.16334682910558 24.20399149980623, 75.63107990885621 25.716605816752597, 108.08216996969718 24.184771988719255 M50.609569677128974 24.879601057977297 C65.83117818756303 25.96739868360349, 82.49881349345371 24.087770999025096, 109.44409428824282 24.270931981000405 M110.06574532940816 23.269313458634244 C111.26988086721104 41.839698313789285, 111.43170979906222 59.92349769216906, 109.39811206911284 75.4950207640947 M109.06209339301118 25.609411201696755 C110.14630556435957 39.82388074002226, 110.3523488868797 53.186171717942486, 110.35347324315953 75.00469805736498 M111.26287709491656 75.8648601239966 C86.67482627512298 75.69278706261281, 65.75639708047608 75.32483301651921, 48.76241073062402 74.67094277775362 M109.65031959956873 74.94037808496732 C94.34558430104126 75.27545608876017, 76.95283452273743 75.20075704895089, 49.9572388420403 75.96727065780155 M49.66146800965994 73.5246918594139 C51.85269000143387 64.77803490787562, 48.37128447324558 52.05498206760559, 49.41846780306263 23.817523798506716 M49.64318702760128 75.92534871240447 C48.91049284634665 64.82316815554942, 49.04484160516146 54.6348745690588, 50.624369272113434 24.97669836489097" stroke="rgb(0, 0, 0)" stroke-width="1" fill="none"/></g><g><path d="M207.70321801442137 24.98702549514838 L266.9838870406566 24.134985583724976 L268.3613881496384 75.01091486065691 L206.99846513654387 75.76769843410537" stroke="none" stroke-width="0" fill="none"/><path d="M205.9361430576258 26.6338608942226 C221.12147310998836 25.87501353836622, 239.56471283517322 26.063929321271797, 265.19189174644964 25.046388774765475 M207.6434768073908 24.95827475554661 C226.7127287241778 25.33817302302152, 248.4848173871518 24.725254018759273, 267.5831122986243 25.92118219469798 M266.7177788371936 23.95959627639224 C267.0566787540786 38.98046121658463, 267.5690538927129 51.64429264103773, 265.96684152145406 73.30698147445936 M266.9331515995193 24.12276844375357 C267.2450098182305 43.71050517616101, 266.95596095506886 63.21570251031814, 267.0128148090332 74.65422056362203 M265.35810880754195 74.49430938486324 C249.4582141895766 75.03843537524166, 232.13127100090767 74.45034870768656, 207.69284500094906 73.26997038605599 M266.2598226724218 75.87086198149026 C253.198339012396 74.10864811043051, 238.72841141454742 74.8330128530888, 207.35154203060497 74.60201680658204 M207.62611443350485 74.48204008254233 C207.9742171361214 59.74874345003056, 206.4441399998829 42.95108210818697, 208.51542537168055 26.243740496764396 M206.47502854046732 75.1642586642151 C207.657384313109 62.37991274580559, 207.13662595150578 47.33172255076295, 206.14187340165554 25.371751298992436" stroke="rgb(0, 0, 0)" stroke-width="1" fill="none"/></g><text x="80" y="55" class="id">id28</text><text x="237" y="55" class="type">str</text></svg>