<svg width="287" height="292" data-theme="dark" xmlns="http://www.w3.org/2000/svg"><style>
        :root {
        --fade-text-color: rgb(0, 0, 0);
        --hide-text-color: white;

        --highlight-value-text-color: rgb(27, 14, 139);
        --highlight-id-text-color: rgb(150, 100, 28);

        --highlight-box-fill: yellow;
        --highlight-box-line-color: rgb(0, 0, 0);

        --fade-box-fill: rgb(247, 247, 247);
        --fade-box-line-color: gray;

        --hide-box-fill: white;

        --primitive-value-color: rgb(27, 14, 139);
        --id-text-color: rgb(150, 100, 28);
        --default-font-size: 20px;

        --highlight-object-fill: rgba(255, 255, 0, 0.6);
    }

        text {
            font-family: Consolas, Courier;
            font-size: 20px;
        }
        text.default {
            fill: rgb(0, 0, 0);
            text-anchor: middle;
        }
        text.attribute {
            fill: rgb(27, 14, 139);
            text-anchor: start;
        }
        text.variable {
            fill: rgb(0, 0, 0);
            text-anchor: start;
        }
        text.id {
            cursor: auto;
            fill: rgb(150, 100, 28);
            text-anchor: middle;
        }
        text.type {
            fill: rgb(27, 14, 139);
            text-anchor: middle;
        }
        text.value {
            fill: rgb(27, 14, 139);
            text-anchor: middle;
        }
        path {
            stroke: rgb(0, 0, 0);
        }
        .highlighted path {
            fill: var(--highlight-object-fill) !important;
        }
    
        [data-theme="dark"] {
            --highlight-value-text-color: #110875;
            --highlight-id-text-color: #6e4409;

            --fade-text-color: #BBBBBB;
            --hide-text-color: #121212;

            --highlight-box-fill: #EDB926;
            --highlight-box-line-color: #FFFFFF;

            --fade-box-fill: #2C2C2C;
            --fade-box-line-color: #666666;

            --hide-box-fill: #121212;

            --highlight-object-fill: rgba(72, 207, 173, 0.3);
        }
        [data-theme="dark"] text.default,
        [data-theme="dark"] text.variable {
            fill: rgb(224, 224, 224);
        }
        [data-theme="dark"] text.attribute,
        [data-theme="dark"] text.type,
        [data-theme="dark"] text.value {
            fill: rgb(144, 164, 237);
        }
        [data-theme="dark"] text.id {
            fill: rgb(255, 183, 77);
        }
        [data-theme="dark"] path {
            stroke: rgb(204, 204, 204);
        }
</style><g id="object-0"><path d="M49.666184741171406 24.058763910176552 L250.69051242865143 25.198379701481077 L249.3976476079553 154.33220410442988 L48.11476423481923 156.50106034064035" stroke="none" stroke-width="0" fill="none"/><path d="M49.93936893378978 25.084841344599884 C125.76798166445401 23.086261751555902, 205.0599677366002 25.575418734238518, 250.58895183055898 24.489078931118282 M50.51612575129929 24.234513198404358 C119.55165132457037 25.167640819594762, 191.51885694800592 25.162155703726526, 250.73061928983114 25.176402814096658 M251.3369845080853 23.18799838905943 C250.26842759540688 69.92388535843266, 250.2400971053585 111.48609107650054, 251.01830336012938 154.18979319206278 M250.14922084293949 24.174861086132942 C249.6001077434318 57.91856174040821, 248.70575029491445 89.06447097509832, 250.09464563039703 154.6304187099159 M249.93669929925406 154.99245734789463 C184.26095314341575 157.27067974235854, 115.3372242525796 155.73431208907772, 48.61395304529759 155.12741582003508 M249.29207411028514 155.5982534449515 C200.26204041254593 155.13419493067, 151.29508696402846 155.28158669237857, 49.39824265818156 155.06773641852203 M51.517601234783186 155.77049989819713 C51.37571538146403 115.81615660866802, 48.5871034984699 78.1272342065607, 49.07870838110544 26.31767016433357 M49.367881852569866 154.7085368607363 C49.79647971789239 127.7508984781197, 47.86495151835942 98.80370350856144, 49.377073216527776 25.901758974930484" stroke="rgb(0, 0, 0)" stroke-width="1" fill="none"/></g><g><path d="M45.12523793795805 18.058079429684152 L257.05397190293627 20.955711599279 L256.02605712405654 162.04772746479475 L44.970843308645 159.350902757336" stroke="none" stroke-width="0" fill="none"/><path d="M43.52340205123385 19.136675823346756 C124.4929954901919 17.37517780851572, 204.77909303592634 19.04196633129075, 257.0481023635102 18.691014629215775 M43.33275601921496 19.772247272477436 C128.55808485989354 19.619746697259615, 213.41497820438042 19.562184662908102, 255.88920287069155 19.83900381947409 M255.85690633862754 18.83786137496044 C255.1861592627661 71.47390304735605, 253.27468578966358 122.86129364430796, 257.70253782036224 161.11199147227885 M256.0195683803187 19.552134542644158 C256.24975765186815 68.23794356343028, 255.4671391970251 117.89553809300969, 256.0325303976299 160.43065028284235 M254.28819843690263 161.53632356731424 C213.02770345443977 162.8194651920225, 169.06520540858978 162.7469937393813, 42.87473447763098 160.26381473465923 M255.15622368060167 161.04736111139752 C198.16768016419553 162.44409914562885, 138.02119734663242 161.50296369715778, 44.42716288261017 161.85602712055388 M45.82512671459812 159.6892949114367 C45.48269436619091 125.79198620554111, 44.17176392508085 86.91286706032483, 44.4878585859051 19.05812132970846 M43.039670686910775 161.33269245678397 C46.045688247345566 111.23557657421533, 45.27656722211723 61.47361337343823, 44.70417446988686 19.873731459932536" stroke="rgb(0, 0, 0)" stroke-width="1" fill="none"/></g><text x="150" y="115" class="value">"Hide Type"</text><g><path d="M49.71228059767176 26.85752432843437 L110.7168069902676 26.29582001629107 L111.91977335107515 75.38004335832066 L51.5509164366901 73.78503336231617" stroke="none" stroke-width="0" fill="none"/><path d="M49.82143135229054 26.458900113433614 C66.2497161250368 26.069745881431146, 81.32133232329996 24.697012624672084, 108.15655683280033 25.9085894723118 M49.93198541482377 25.055126290133376 C68.51138673808663 25.74473360660918, 86.88933685790686 24.449967495643065, 110.35754579990807 25.80550074860023 M110.85191981716514 25.86674564452634 C111.8875924005753 43.32039923919843, 110.39181031275221 57.45990492690702, 108.23497523336637 76.12812162133653 M110.53911566790418 25.178564557948413 C110.07913229088105 35.67728099164583, 109.2342915502647 47.895986929629345, 110.73066816071145 74.20115148082543 M111.43623279386816 76.3825955459315 C87.15456390155359 74.67026883094705, 63.33550997121789 74.98906918377881, 51.002766090466686 76.84496239502725 M110.51299724969498 74.09574675503106 C85.28855804039961 74.15010269699972, 61.49482132099162 74.75091693311465, 50.36757423105332 75.012027428386 M51.824511737028494 76.03742320599517 C49.65879666857913 61.23183207605774, 50.297074209900785 44.92439426444251, 49.79090775437925 26.19140175616562 M50.05079919797518 74.25186268754405 C49.0030793462682 58.66349859452174, 49.38543253022898 42.0440931551223, 50.0368498727243 24.55625784399358" stroke="rgb(0, 0, 0)" stroke-width="1" fill="none"/></g><g><path d="M189.99613510251524 23.25856872563842 L249.93263486956639 23.101069653959275 L249.43729455439626 75.29139318908938 L188.50198741532515 75.4747315289349" stroke="none" stroke-width="0" fill="var(--hide-box-fill)"/><path d="M188.6374849710765 24.613056773134225 C207.16914942997764 24.805800513969032, 227.04913665620754 25.30367996826908, 248.13307585606444 23.290980617665877 M190.2756136987789 25.950098576457076 C206.5389033099609 25.593127419223322, 222.65315453488114 26.06874694763792, 250.6960951343446 25.550425728447618 M249.42858464039742 25.202644908329212 C251.48454622849323 39.950781756846716, 249.4748273699152 55.265693290791624, 248.59933218095338 75.72871400498988 M250.12724317291753 25.067331300156905 C250.15411860937655 37.32275057389121, 250.355670708996 50.21930516367192, 250.70986071807303 75.90111426114315 M250.97736313379855 73.72524705674388 C230.14452633859716 76.12381733376881, 208.14240992037477 76.60804705234024, 189.24404157159876 73.07110147317835 M250.25744380141282 75.75535731815691 C234.19332217263204 75.09496997482255, 218.1647986470917 75.19424156412913, 190.57752077644878 74.51975633787977 M191.0434064504013 76.05511399312994 C188.25633666964333 63.829484617160034, 189.66818997220594 53.59463877052008, 189.13142391523448 24.615134152809418 M189.5496443001787 74.49359593007533 C189.958432892308 56.50496033593366, 190.37282991565596 39.36014225045351, 189.53095287825423 25.03713684767463" stroke="#000" stroke-width="1" fill="none"/></g><text x="80" y="55" class="id">id27</text><text x="220" y="55" style="fill-opacity:0; fill:var(--hide-text-color); " class="type">str</text></svg>