<svg width="304" height="292" data-theme="dark" xmlns="http://www.w3.org/2000/svg"><style>
        :root {
        --fade-text-color: rgb(0, 0, 0);
        --hide-text-color: white;

        --highlight-value-text-color: rgb(27, 14, 139);
        --highlight-id-text-color: rgb(150, 100, 28);

        --highlight-box-fill: yellow;
        --highlight-box-line-color: rgb(0, 0, 0);

        --fade-box-fill: rgb(247, 247, 247);
        --fade-box-line-color: gray;

        --hide-box-fill: white;

        --primitive-value-color: rgb(27, 14, 139);
        --id-text-color: rgb(150, 100, 28);
        --default-font-size: 20px;

        --highlight-object-fill: rgba(255, 255, 0, 0.6);
    }

        text {
            font-family: Consolas, Courier;
            font-size: 20px;
        }
        text.default {
            fill: rgb(0, 0, 0);
            text-anchor: middle;
        }
        text.attribute {
            fill: rgb(27, 14, 139);
            text-anchor: start;
        }
        text.variable {
            fill: rgb(0, 0, 0);
            text-anchor: start;
        }
        text.id {
            cursor: auto;
            fill: rgb(150, 100, 28);
            text-anchor: middle;
        }
        text.type {
            fill: rgb(27, 14, 139);
            text-anchor: middle;
        }
        text.value {
            fill: rgb(27, 14, 139);
            text-anchor: middle;
        }
        path {
            stroke: rgb(0, 0, 0);
        }
        .highlighted path {
            fill: var(--highlight-object-fill) !important;
        }
    
        [data-theme="dark"] {
            --highlight-value-text-color: #110875;
            --highlight-id-text-color: #6e4409;

            --fade-text-color: #BBBBBB;
            --hide-text-color: #121212;

            --highlight-box-fill: #EDB926;
            --highlight-box-line-color: #FFFFFF;

            --fade-box-fill: #2C2C2C;
            --fade-box-line-color: #666666;

            --hide-box-fill: #121212;

            --highlight-object-fill: rgba(72, 207, 173, 0.3);
        }
        [data-theme="dark"] text.default,
        [data-theme="dark"] text.variable {
            fill: rgb(224, 224, 224);
        }
        [data-theme="dark"] text.attribute,
        [data-theme="dark"] text.type,
        [data-theme="dark"] text.value {
            fill: rgb(144, 164, 237);
        }
        [data-theme="dark"] text.id {
            fill: rgb(255, 183, 77);
        }
        [data-theme="dark"] path {
            stroke: rgb(204, 204, 204);
        }
</style><g id="object-0"><path d="M49.552928512230466 23.648457290048633 L266.05568076940193 23.638513212654473 L267.86194985435014 154.82261796914653 L48.17325772456513 156.42674286102275" stroke="none" stroke-width="0" fill="none"/><path d="M50.42971298164992 26.378341642044898 C98.35809371083938 26.2966971996321, 144.40902835350317 24.237310971801897, 266.7279287950033 26.354578980016345 M50.11532659236971 24.38009500214238 C98.14750055706673 24.08771809019894, 146.22287284834374 23.011479000692095, 266.9353426100673 24.449929093152537 M267.8304808824994 26.464787530891787 C264.86873791334284 68.42250141821256, 268.64367866670045 114.2551763467446, 268.9150725300813 155.65538429345992 M266.7301636809171 25.233874292844018 C266.48611976050637 71.6745548792695, 266.5096533463481 120.2257216147085, 267.17149205592057 154.80309733994977 M266.55606107381396 155.9626930540709 C189.4675511760791 154.92428986304492, 110.89461933379013 156.85048223660252, 49.91302048023613 155.7657032807286 M266.65156184386916 155.39922741101498 C215.40265227713226 155.8502093601257, 165.09942655485946 155.8518729357185, 49.43311577209956 155.54932592545092 M51.27585906798873 154.09644890120018 C52.21270756971516 106.99372372356781, 49.34315164530336 57.20252803091286, 48.74124309439283 26.491230350381063 M50.24099924165988 154.5734256379435 C50.91030990816337 124.25044082020723, 49.86803285344121 96.43814929414168, 50.09040795485949 25.580588755143495" stroke="rgb(0, 0, 0)" stroke-width="1" fill="none"/></g><g><path d="M43.313040560549204 18.632714042406466 L271.3163891589001 20.46276504147739 L273.2030574183212 160.50664767820737 L42.08537812883644 159.9785239020871" stroke="none" stroke-width="0" fill="none"/><path d="M42.4630475194245 19.217443463158528 C114.99541007026627 19.605906553364356, 186.91952957746804 20.682515546094702, 272.3023706129699 20.0988952637236 M44.27649098078706 18.776889990770552 C94.77089127401972 17.63055017410733, 146.131692267042 16.848624165330097, 272.4084069695572 19.216365804306484 M273.9363229939716 17.68634249217193 C272.41785362120606 73.10680361984218, 273.4012893026832 132.09970081825645, 273.6462224233692 161.05862480501844 M273.26653080839833 19.263094471821784 C273.24365774542053 49.141657471836844, 273.1066090654208 78.45933812874515, 273.91813372979055 160.7805635511435 M273.84484526142177 159.36334175267933 C214.28149193278242 163.2235600873622, 157.72194045473483 161.25433548441666, 43.75630946232133 161.7410232337631 M272.2884141091544 160.3350593691828 C210.54894297674088 159.50713401454124, 148.44878827278998 158.66413298674246, 43.9362479206853 160.3134794884076 M43.918051084997444 160.17066815812504 C43.35834211704348 105.46798968035057, 43.12017728443306 51.21665390001727, 45.56126860038008 20.17809667708299 M43.723964058763315 160.9091639192345 C42.32496648468988 121.45299316665188, 42.01057416462426 84.70948086310638, 43.62283790381987 19.441823507203875" stroke="rgb(0, 0, 0)" stroke-width="1" fill="none"/></g><text x="158.5" y="115" class="value">"Highlight Type"</text><g><path d="M51.724371414394604 23.969428809177593 L111.48650410670635 23.70483484158143 L110.65449493353407 75.01287413421646 L50.11400970532973 75.09308886979242" stroke="none" stroke-width="0" fill="none"/><path d="M50.457184718390515 26.175571281888814 C71.85002354908696 23.365250570351908, 97.0236448268685 24.20584779424816, 110.37877727673052 24.169388593398054 M49.46797633213872 25.931417723290096 C72.64668826628467 24.536841035183837, 94.10057795553206 23.715341609129293, 109.31899803516227 25.802315681289027 M108.8643770300195 23.63877675134323 C110.24189470648442 40.6257568158359, 112.16643990699129 52.946219860831114, 108.62073838819836 74.97460475109678 M109.88535543080863 25.489801222718533 C110.36280393565448 42.82425308625188, 110.63514476136729 61.20042320011198, 109.45768864685266 75.73095808428715 M109.55090969295536 73.76651954586436 C89.41923022212299 77.14843607120862, 68.45378020870929 75.2953192817004, 48.53456880534948 75.2945180943978 M109.80763075151938 75.38175765270545 C98.22140140254025 74.51680598742611, 84.22884918207392 75.68966752241231, 50.756477189640776 75.76574524700911 M49.61784896591971 76.85527866887787 C48.24566779653548 63.861146978970766, 50.802522498452966 48.0600448708565, 49.39504855952639 24.00237422056869 M49.63984825667141 74.99024626564753 C49.74303456726606 64.3364386622161, 50.28072080284722 53.12513563623653, 49.71248831974976 24.50542166550327" stroke="rgb(0, 0, 0)" stroke-width="1" fill="none"/></g><g><path d="M206.81509454454505 24.903052307800753 L266.9388344080242 25.12658287439111 L266.91359831121133 75.04065258572004 L207.3666810140207 74.87785321501616" stroke="none" stroke-width="0" fill="var(--highlight-box-fill)"/><path d="M206.7816249650319 25.228405750841056 C226.28656262193772 24.78954135625319, 245.0740979178671 25.426296742630992, 267.201939822343 25.108522464888853 M207.1813083355415 25.027296651055213 C223.780334262371 25.032678551360306, 240.80540628339014 24.98470874764867, 266.83025225267926 25.031923617242377 M267.33988967601005 24.87402774902406 C267.32510739581136 41.694936971981704, 267.209826892754 58.38783293094517, 267.0999822510561 75.29406229160442 M267.14527142588616 25.184274711861903 C267.0402093961654 40.25459006732247, 267.0988797902985 55.62055374570325, 267.0592088258199 74.86990015888409 M267.0687858275128 75.23178732255755 C249.01783193459258 74.9176590204161, 231.73310816066655 75.36136937006174, 207.29306815550893 75.38048494796222 M266.80228714423896 74.89642941715822 C253.5573542419921 75.08104506635885, 239.94151587659655 74.85286571643184, 206.96758728614472 75.16261852936604 M206.76281710363673 75.33727669136263 C207.0972284981354 62.081260848663604, 207.20564173000733 48.378112740102154, 207.25812817553586 24.60282715480876 M206.8176544800065 75.01876683447935 C207.02198239598826 64.59356661720489, 206.88268848468172 54.05337825316598, 206.95290588211267 25.15070721934633" stroke="var(--highlight-box-line-color)" stroke-width="4" fill="none"/></g><text x="80" y="55" class="id">id21</text><text x="237" y="55" style="font-weight:bolder; font-size:22px; fill:var(--highlight-value-text-color); " class="type">str</text></svg>