<svg width="287" height="292" xmlns="http://www.w3.org/2000/svg"><style>
        text {
            font-family: Consolas, Courier;
            font-size: 20px;
        }
        text.default {
            fill: rgb(0, 0, 0);
            text-anchor: middle;
        }
        text.attribute {
            fill: rgb(27, 14, 139);
            text-anchor: start;
        }
        text.variable {
            fill: rgb(0, 0, 0);
            text-anchor: start;
        }
        text.id { 
            fill: rgb(150, 100, 28);
            text-anchor: middle;
        }
        text.type {
            fill: rgb(27, 14, 139);
            text-anchor: middle;
        }
        text.value {
            fill: rgb(27, 14, 139);
            text-anchor: middle;
        }
        path {
            stroke: rgb(0, 0, 0);
        }
    </style><g><path d="M51.563976105170546 24.004867542054896 C98.85654788022062 25.415656895325426, 146.94387159621667 24.022083167611882, 248.73914485258214 25.211432602851588 M50.784734321571506 24.195054753062884 C119.09069654257019 26.319765811750983, 188.02196875635335 26.56217820180825, 250.369203038778 25.478509233659572 M249.65957533026233 23.02965404035424 C251.6345724678726 62.604689695970194, 252.35603786876231 102.80637780863107, 251.1684142589374 153.44409787105639 M249.8779413803101 24.140025655964617 C250.0983153329909 57.28494245602457, 249.8616279036188 89.15799137127102, 250.0868108206943 155.47736205738278 M249.1922759926127 154.91497372131377 C173.17893184000684 155.90671988840802, 98.86552717537009 155.78311230925524, 48.34909285883997 155.426744807796 M249.1129398340355 154.1507022139694 C202.00926092433667 153.44346991904283, 155.09488681233864 154.0865822344466, 50.52512334495457 155.49847251504534 M49.168664975062 156.12755738817353 C48.18681493740882 102.55500164028624, 48.459472527323676 51.15570958120968, 48.64241763661851 23.156200038109233 M49.619957127684174 154.58287445249965 C50.328257145447175 102.85835220643837, 51.39350837767703 51.95406835272048, 50.539786286755486 25.21250693918125" stroke="rgb(0, 0, 0)" stroke-width="1" fill="none"/></g><g><path d="M45.0119658936274 18.15014203598295 C89.39508806188657 19.017861721524245, 138.72432929510902 20.765634706276362, 254.453554227771 18.945402321376402 M43.99128345253877 18.329802548647532 C100.2214637262031 20.499520594051344, 158.48672177065876 19.288870076146676, 255.22370712944962 19.28473237980004 M257.66349589928643 18.485899419378633 C255.09008191914785 61.77228980099053, 254.61707323944736 103.08645001931019, 256.85830304145816 159.00325000711686 M256.16396953819515 18.01795516422081 C256.2322558220001 71.90415892947414, 256.6653314810878 124.48653970992285, 256.9045777988876 161.02503682791303 M254.77703906874913 159.37765437091826 C191.94472874179507 163.2327071176031, 130.42773333650752 163.39323917452052, 42.29717567405053 159.30452433379122 M255.6794477033405 161.536244291208 C209.5386808165228 160.39921218517415, 161.44030373695085 160.87819835470722, 43.42932612101809 160.57258721337757 M42.93633166082531 161.00668965246197 C44.175391356468644 118.02757131340783, 45.80127552919993 72.40882976127703, 42.468091466335856 17.392534756832728 M43.21807322101046 161.71100921040528 C43.235114481477325 126.46256514672672, 43.051908184154506 89.25453216515893, 43.26079252417984 18.932777958204206" stroke="rgb(0, 0, 0)" stroke-width="1" fill="none"/></g><text x="150" y="115" class="value">True</text><g><path d="M48.61324499599992 23.0291208335917 C63.92250425159549 23.044602110303508, 80.24792574530224 23.055815577962367, 110.33799952348264 25.614114801899067 M49.98285630171966 24.84011911612995 C68.5442568556751 24.345568607947584, 87.3300978320779 23.92430434092736, 110.67627626589399 24.961206098160993 M108.82276299757199 25.561934633348045 C108.58888496904598 37.09346647245947, 108.72201939547632 46.09509345306387, 110.85430414877617 76.45890638048127 M109.22512477392722 25.51338449287967 C110.24342925506276 36.43036017778634, 110.77421578811362 49.686280529042385, 110.36101303687835 75.02790268852476 M109.50902410663694 75.12459251526231 C88.49951874922209 73.77005546541857, 65.33855707620206 74.66935384854726, 49.44379169424309 74.1000421013556 M110.51803294725143 74.94107792612174 C90.48349402069496 74.72026577511735, 71.55194335287757 73.82547556789277, 50.84934771169855 74.44006080937511 M50.46252893932329 74.46682075363657 C51.05889520041583 64.99553910166449, 51.73207127532271 53.78706301286278, 50.2322168506097 24.288141968755635 M50.02480571196893 75.17227689193479 C49.015852317851376 56.118971753099025, 50.34933255334495 38.05287568975133, 49.34885155967307 25.142715731372096" stroke="rgb(0, 0, 0)" stroke-width="1" fill="none"/></g><g><path d="M191.22601835615168 23.81398611463643 C212.47349863090759 26.92500021148389, 231.24754569787623 27.124314390661237, 248.8347020136755 24.94792066358477 M189.96696507973687 24.590745292299143 C213.98113019057718 25.929940286991908, 236.05555752792057 25.34935187430297, 250.6429030990432 25.951805284087943 M248.29185398329068 23.45791401806374 C249.63782615263304 39.402399711928474, 248.39383939526047 54.01211963892507, 249.61570461732572 74.76538670432637 M249.23365186806672 24.19429979504425 C249.52421150772255 40.47243333031494, 250.51630974110935 56.788305871021215, 249.78168948728566 74.84921920816907 M249.0384372060077 75.55109348455736 C233.30462528851038 74.25705145254547, 216.5012675681257 76.04465017980756, 189.08983983542927 76.80537005855324 M249.5718033698547 75.78307842634855 C237.1743833792936 74.12044008274954, 224.12225510105327 75.7203705441625, 189.74956641458306 75.76011783692674 M189.85116067800377 76.33802204721214 C192.100394470872 59.50585233859976, 190.86317443319402 44.23470267772139, 191.11249663910672 25.309820420432736 M190.5317346914021 75.91803594822598 C190.11409794374464 60.3917165624576, 189.2445291882027 47.217932404420765, 190.96236567701277 25.323023753459147" stroke="rgb(0, 0, 0)" stroke-width="1" fill="none"/></g><text x="80" y="55" class="id">id32</text><text x="220" y="55" class="type">bool</text></svg>