<svg width="287" height="292" xmlns="http://www.w3.org/2000/svg"><style>
        text {
            font-family: Consolas, Courier;
            font-size: 20px;
        }
        text.default {
            fill: rgb(0, 0, 0);
            text-anchor: middle;
        }
        text.attribute {
            fill: rgb(27, 14, 139);
            text-anchor: start;
        }
        text.variable {
            fill: rgb(0, 0, 0);
            text-anchor: start;
        }
        text.id { 
            fill: rgb(150, 100, 28);
            text-anchor: middle;
        }
        text.type {
            fill: rgb(27, 14, 139);
            text-anchor: middle;
        }
        text.value {
            fill: rgb(27, 14, 139);
            text-anchor: middle;
        }
        path {
            stroke: rgb(0, 0, 0);
        }
    </style><g><path d="M51.717154995244776 26.49598828443792 C116.9286384782104 25.9178747379859, 184.2870015943563 26.576786416564428, 251.07239567687284 24.23945176174759 M50.21361639499364 25.81509688250187 C90.63831277374096 23.938944848746516, 132.03856482252965 22.975590431179455, 250.26703034258298 24.86042549677706 M249.21641478897016 24.84375862073358 C251.028050414437 71.0723076471777, 252.22854640248173 120.0572377367864, 250.8130546048489 155.39498393897586 M249.4161882451177 25.936544371066837 C249.56826512634362 75.03848516751208, 249.7726677724814 126.70726210996894, 249.26555515007703 155.63739499462102 M251.23552212361378 155.47323900425988 C193.0810681259181 157.63387015604306, 136.17167776239808 155.82870231429405, 49.28461792366299 154.0572068080333 M249.4680984478305 155.54988827547555 C207.26257441886438 155.62309986960446, 163.37990793517375 155.68501327611486, 49.22972287684056 155.7585317083427 M49.10855070888332 156.91083319102947 C50.50119609741246 118.06950543162108, 51.24576981470238 77.42492320866049, 50.283962866116866 24.77487503306553 M49.14903999056931 155.23085533578353 C49.3802967749657 117.11140019815087, 49.11190328688609 80.77156155752513, 49.21219781838439 24.54220627504134" stroke="rgb(0, 0, 0)" stroke-width="1" fill="none"/></g><g><path d="M45.64636855661601 18.7142404784465 C128.07881864876973 19.00227385526788, 211.63786899118372 18.589920361626763, 255.40155393467796 20.172091649949554 M43.69324222220223 19.487135348052746 C120.378031912103 18.374947412324225, 197.01938949032336 19.9286564639615, 256.2046981586862 18.54432363176272 M256.9318812383893 18.286850681249422 C256.28876901643076 66.58050991654179, 257.7043595732037 112.90539975139946, 255.4759327075293 161.6121312778908 M255.0863383249836 18.21060557664289 C256.40554687385696 73.37509098224767, 257.8356555705522 128.99502205029773, 256.655944759649 161.953776505752 M256.12996599884235 162.12873911298504 C208.02938553419574 158.87071678485086, 162.8212602487324 158.24856045881216, 44.709830883647484 161.37537316985515 M256.82104628988304 160.85090948360642 C194.56214436785882 162.7208237402114, 134.3540691998425 162.53137081754892, 44.72706959066684 161.37370091398694 M44.20040296938481 160.4149894250717 C44.1652299868094 114.59112985288887, 43.326425138580845 70.54484704521805, 45.14154216746946 17.184682354399786 M44.65771368794539 160.5538958445613 C42.6644406037687 120.95815268338905, 42.16513107721531 79.17636650330138, 44.72350047434756 18.753068863855788" stroke="rgb(0, 0, 0)" stroke-width="1" fill="none"/></g><text x="150" y="115" class="value"></text><g><path d="M48.658831511702324 23.93129335549426 C70.49113824195722 24.727034012566623, 90.40134361921321 22.887565045205754, 108.17863905802383 25.060530449616316 M49.55147431167308 25.77791905493327 C63.650977000786526 24.004878412384322, 77.45828905429255 24.71298434674503, 110.46674933489555 25.756453791072232 M110.83458480497356 26.83564283473799 C111.17539028769608 42.874952271738586, 108.41887072337438 59.00039726772809, 108.10190181226851 73.1079996061775 M110.86855682598942 25.48100143094921 C111.05635758873825 40.51565172954167, 110.51596232044322 53.8934565134695, 110.7023633134075 75.42643031761074 M109.63693375291992 73.50322253799064 C90.8063565622335 75.30219341156258, 72.64021261161108 76.86128104440868, 48.994517744774726 75.3195277893206 M110.76074645954417 75.62324993913869 C92.97971671188508 74.47988615711078, 75.16990042837203 74.17169141834421, 49.129670269816316 74.63797838067775 M50.309203830258646 73.02008337000161 C51.2422994933652 63.16314952471445, 48.455881479852394 48.95954944863973, 51.788678297748774 25.562457456662965 M49.55320056688063 75.9443418464316 C48.7297613088313 59.051054192803896, 50.48103451630405 44.36578333002776, 50.643928403627655 24.583060461149483" stroke="rgb(0, 0, 0)" stroke-width="1" fill="none"/></g><g><path d="M181.9794672159004 25.321940101411684 C196.40258866971303 24.122664428958124, 212.17581315756192 24.05979517390198, 251.69619057849874 23.5193886291065 M180.1304601666284 24.755436439232582 C197.84798190328863 23.706560070371378, 215.0660442462077 24.500566868885844, 249.57007220165127 25.610522747911737 M249.2855491829166 23.36837707399378 C251.44843901089564 42.10912119179349, 251.896453984227 62.151463950553264, 249.27515610308512 75.48640125547277 M250.5407580410018 25.65907049111559 C250.97859832319529 45.71979613819915, 251.08667895945067 64.82897916934543, 250.2857563166375 74.8022688235917 M248.09285731266766 74.16059501803316 C235.84039833885782 72.92480096777756, 220.93792960542334 74.04820348292448, 181.79280087982212 73.26584896396793 M249.2381884877687 75.74907172218312 C223.6786504287447 74.5396136587825, 198.21150374092596 74.79669800097382, 179.3477817376531 74.30278313637837 M181.20874105309235 75.70765512562015 C180.48659836729044 58.938709941574274, 181.6626385108723 41.581330638665044, 179.99139030863762 24.86967396836255 M180.17796539551298 74.33046353419917 C180.36972547513696 63.5981117508954, 180.87634109521503 52.514660136938375, 180.30879382264376 25.481668066167835" stroke="rgb(0, 0, 0)" stroke-width="1" fill="none"/></g><text x="80" y="55" class="id">id76</text><text x="215" y="55" class="type">float</text></svg>