<svg width="291" height="280" xmlns="http://www.w3.org/2000/svg"><style>
        text {
            font-family: Consolas, Courier;
            font-size: 20px;
        }
        text.default {
            fill: rgb(0, 0, 0);
            text-anchor: middle;
        }
        text.attribute {
            fill: rgb(27, 14, 139);
            text-anchor: start;
        }
        text.variable {
            fill: rgb(0, 0, 0);
            text-anchor: start;
        }
        text.id { 
            fill: rgb(150, 100, 28);
            text-anchor: middle;
        }
        text.type {
            fill: rgb(27, 14, 139);
            text-anchor: middle;
        }
        text.value {
            fill: rgb(27, 14, 139);
            text-anchor: middle;
        }
        path {
            stroke: rgb(0, 0, 0);
        }
    </style><g><path d="M49.74566624359647 24.690361774488835 C110.09084148311943 24.3821125113624, 170.4778067075252 22.499075566982413, 265.63296088841673 23.624497147160678 M49.63784038377977 24.204678716200277 C114.2765688508825 23.300121740784057, 180.2192696235173 24.03974130347426, 265.6702168945124 24.1913305155005 M267.8851924686015 25.57621580055702 C265.4319477069685 60.15039352430376, 265.2883125613728 97.2897586545388, 266.16923947908066 155.4605213615582 M265.9337020604543 24.809271589570606 C265.44772393165425 62.32202261945095, 265.2000954946776 100.40460886538709, 266.52775808290676 155.45408582915616 M267.03743848154573 154.88596453648938 C211.48160449999102 157.2155232999735, 157.6347289177335 154.51103930316984, 50.962765917314655 156.4296095044971 M265.7418401147426 154.83576276663996 C181.07073814757982 156.35517857385867, 94.60155539251933 155.60693220720668, 49.54679052416473 154.80218194900988 M50.956159348166786 155.95271087985154 C51.009868269578554 109.58812154731577, 52.014169349111036 63.07248330236102, 49.01922152725631 24.17477029932256 M49.9630482607937 154.34915516745895 C48.393350408324764 129.3259504542364, 49.636742825670495 103.09993862720738, 49.67150483838051 24.290339131399335" stroke="rgb(0, 0, 0)" stroke-width="1" fill="none"/></g><g><path d="M43.98550696911596 18.681550879144673 C130.37641564222514 21.059520387331144, 215.0205846930088 18.409719203843803, 271.4509783769284 18.641543334796747 M44.033493490222334 18.46106634064438 C119.20757303067694 19.07953151234079, 194.60461623795214 20.3162550805318, 271.83161137788795 19.278715277085162 M270.4908869385808 18.209626931649392 C273.12756930038125 51.31443382486069, 272.5593711051674 88.90633884986222, 271.45122475320454 161.04146013559017 M271.26539921816567 19.999603124807802 C272.38760797664315 76.04920080939523, 272.0914770146244 131.77249562992003, 272.673023092389 160.3816500037903 M272.94742425509367 162.6324043896204 C215.03948364461937 162.321426276751, 156.88610938989757 162.95100040751396, 45.53261746563739 160.54549525762872 M271.1997762505942 161.0056597280238 C223.31154765322282 159.46284648397926, 175.1849032646719 159.6306640949541, 43.403802704672316 161.02333410531145 M45.254061425403094 160.78438462908022 C43.37451172802653 130.16763914563148, 43.821267986886994 94.82270266930996, 45.04192751875604 19.55473730505441 M43.73830951535222 161.93048500548298 C43.140509552261136 132.26401291718307, 44.0839135760866 102.19177722461724, 44.57292253495234 18.20479794475127" stroke="rgb(0, 0, 0)" stroke-width="1" fill="none"/></g><g><path d="M75.56663550119669 88.07228904763146 C87.01099062542878 89.59345035490695, 98.9304045506465 89.7834812344617, 134.21252013494143 91.08792044986463 M75.23813372298864 90.11102438413124 C87.59346364665512 91.34630544108101, 101.54417098412542 90.90930411774096, 133.86444331579463 90.12535781496177 M133.30595442755146 91.93653781999241 C132.57886624725333 98.77138678978301, 132.33710653044614 108.53797708943523, 133.56004513976754 139.02765698336853 M133.94578631121632 90.50400277315018 C132.01203627039604 102.96922881994678, 133.68001979128906 114.88798572488452, 132.71967649605207 139.74859135400115 M132.14967836092694 141.98828968460415 C118.04729801921053 137.92898397794744, 102.01519009564782 139.0101515422583, 75.72805732667447 140.59061975880442 M133.0542651544739 140.42428538248168 C114.48829816554176 140.19449890284278, 95.00555661212444 139.88911051857497, 75.44734831526095 139.85560049003067 M73.39319100559331 141.0852311668104 C75.69821417050576 125.07470059491547, 76.0942193001262 113.21869340194473, 76.22131300318728 89.39781805392307 M74.30038004463427 139.2486222568781 C74.75654968673491 128.8612714389739, 74.25979351167868 116.83195439404602, 75.69803029592109 90.74872697057972" stroke="rgb(0, 0, 0)" stroke-width="1" fill="none"/></g><text x="104" y="120" class="id">id82</text><g><path d="M134.61695900243342 89.01646795415088 C145.90280395301056 90.90526939316321, 159.71533095715063 88.16530339614198, 189.91973833945218 89.90167011290488 M132.99954988441374 89.63359421913862 C154.7290595345835 90.04528824404532, 175.10255983362933 88.72515202742798, 191.70720666524045 89.10740299312891 M191.6793301094524 90.22961648548679 C191.84749388574267 108.64579569845783, 192.65619127203186 126.41036984864064, 191.4408186356076 141.86849721160218 M190.08706050694562 90.65343378857082 C190.58718626088032 110.71767906912406, 189.61408250300974 129.30674111509572, 190.45060595640211 139.11700399589208 M190.9210882095984 138.95666038412446 C178.39211482470566 139.57457316941546, 163.52051430946537 141.46811915558993, 134.34034006371243 139.4051052695066 M191.47904045249186 139.51974216868723 C175.09855584223016 140.0186003289336, 158.4228253115624 139.21915492592228, 133.31835799312657 139.71005100110702 M133.062002924593 139.4991777890655 C134.09441130366582 129.104244519046, 132.6897110141565 119.68246003552237, 131.79513584919917 88.19747487666405 M133.63337017892164 140.91426647273877 C132.45010900602307 126.38955727784122, 133.037724871594 111.38463599563228, 133.68730173613412 90.97042414833092" stroke="rgb(0, 0, 0)" stroke-width="1" fill="none"/></g><text x="162" y="120" class="id">id76</text><g><path d="M190.97173196402665 91.74401458991103 C203.15900367183417 90.32926569530254, 217.71678003327125 88.64886282751644, 239.96025211590532 91.85140124381363 M190.380803427003 89.70316900063024 C209.51895783768896 88.76496872825919, 228.23626841904291 89.93023683474277, 241.87707532262561 90.69478285651535 M242.62537179750058 91.82897781533575 C238.88387961062742 107.72977932259846, 238.82951600404758 127.812190494936, 242.95795167259533 141.62694152185318 M240.361513487781 90.56724759787758 C240.1867773163839 106.06758599755446, 240.89831138665377 123.65960220347519, 241.5068818702277 139.2088277926735 M240.1198014977215 138.80805099193944 C230.15257617778553 138.26832899320308, 220.54252467237117 139.8316398625507, 190.24655749038067 138.86367943976174 M241.28579630001872 139.00685369226846 C221.16075244849247 140.1447896577741, 203.10313963450227 140.07067601208658, 191.8592111583156 140.10921221487416 M192.52829565881606 139.3785273757159 C190.74231143686765 125.25188997298206, 190.19597695733393 110.27816392489633, 190.3344155731743 91.63059038760296 M191.17360059519285 140.7280792146264 C190.48197328875352 127.22693916073996, 191.04683099405406 113.81573997675008, 191.58383669969487 90.86367207158263" stroke="rgb(0, 0, 0)" stroke-width="1" fill="none"/></g><text x="216" y="120" class="id"></text><g><path d="M48.078674632264125 26.195129976058936 C67.993142311024 24.20700225030665, 84.0513355898611 25.874842570973804, 108.7384126342791 24.680600459191933 M50.37601513284312 24.483340610460438 C70.68668555883752 23.922804203645445, 90.20635802367191 25.398406908660988, 109.27505038073835 25.7412121352852 M108.94311339144576 25.34444336723238 C108.67645609442592 39.898543379579635, 110.58178727291045 57.044378046098004, 111.12792639006346 75.83990107898694 M109.79211781561094 24.9578070240887 C109.15972599241847 41.25312602681857, 109.4789941321002 56.219759417114105, 109.59730204207023 75.37822573185802 M109.98336657517284 74.2100211065093 C98.34476266559918 76.01470331245756, 83.04662647160849 76.23175814183166, 51.861803080148825 76.88084835386644 M110.43701892382644 74.21158708727395 C94.624330135053 74.95486518480392, 80.55117469323335 75.3332982801434, 49.970614430269194 74.39301028489385 M50.793876139278254 75.21897044791598 C51.3495802301657 60.933048657989225, 51.52851560456834 45.25535866396292, 49.15318435431574 26.191755239539845 M49.52163679673672 74.60048819063859 C51.24425582194162 61.31535950627931, 49.83462648635476 48.4707699729969, 49.268855180371915 25.688239022298845" stroke="rgb(0, 0, 0)" stroke-width="1" fill="none"/></g><g><path d="M194.60754161417537 23.25688396989441 C223.14910001161485 25.698099960622116, 249.10929362700392 25.199918935130327, 265.83795904071246 23.046735716617214 M196.68419813860473 24.801631656548548 C211.93004571650613 25.95252205084992, 229.47667705817307 25.309221200703444, 266.94375957898615 24.871167912057484 M265.9511206966984 25.309270186001044 C265.10522058127856 35.88550839884294, 264.5576611602681 49.74806653708806, 267.07647664381295 74.35153638363138 M265.20025158717823 25.709189315456367 C265.87967611869254 40.926041639238626, 265.0028710236042 55.465927374816346, 266.09189355881796 75.20416975379491 M265.1881844641195 76.59626565979613 C243.91432243435847 75.41101841118545, 219.26920376923732 75.40184432477908, 194.54726208428335 75.85361488605321 M266.2100556119278 74.73339212249635 C242.06271745619537 75.30846184847076, 218.35169982771728 74.9122982509553, 195.23694378307283 75.89530168725541 M194.2939890452208 73.0923137038369 C195.8265326665657 59.26286891850347, 196.24239338387432 43.61332067827089, 197.9737253638206 25.769545144402002 M195.72394787217306 75.83811112266366 C196.93093964514256 56.05158100109229, 195.70378106223393 35.854315134735465, 196.4506537108932 25.601597156194597" stroke="rgb(0, 0, 0)" stroke-width="1" fill="none"/></g><text x="80" y="55" class="id">id11</text><text x="231" y="55" class="type">tuple</text></svg>