<svg width="1399" height="992" xmlns="http://www.w3.org/2000/svg"><g><path d="M23.995498617351554 201.05385394230427 C69.67285737742256 200.06865570442088, 115.72394218905656 200.8057979777099, 221.35487381402172 201.49175529487462 M24.461756536913324 200.17105118220036 C64.48088660565469 202.09966484112746, 106.2661812870864 201.96423375608882, 223.1989371695646 200.383897456629 M223.91906138931657 199.95169236786435 C222.66496532784254 348.7711785628894, 223.855674099224 496.4131242813324, 223.81663889469974 649.0901558609228 M222.62846109348524 200.33918741868987 C223.51200804588507 360.03708131744315, 224.03528089396124 520.024493648262, 222.95557382912995 649.7795867806454 M223.03158711326304 648.5216733379219 C159.73775787781884 647.5422298224635, 92.76683336643069 649.2600185705143, 23.673303420054992 651.6116378060792 M222.5347637080143 649.7586488342145 C160.91893774243644 652.6401211818348, 100.5137258995919 650.8010608697878, 24.248601532500153 649.7671610099169 M24.134152449130767 649.0607190714321 C23.189380565025274 490.08345174539534, 23.619495625437185 327.88068704170837, 25.22246019456683 199.11357740968512 M25.147024183138434 650.4184790542108 C26.30518836438786 507.8063867981405, 26.223321535311975 364.8910636691875, 24.93389068529507 199.56674531619228" stroke="#000" stroke-width="1" fill="none"/></g><g><path d="M146.98631776416292 275.78742492969815 C162.33122203197127 277.221092596494, 177.57813614600633 274.7560677569758, 207.4739415963819 275.45332295421633 M147.57056769068595 274.91729871677467 C162.29131738230677 275.11658419377375, 177.6024695446612 275.07797902515296, 206.2830281627995 274.3697171440379 M206.9601846665572 273.657936441599 C207.32440889693984 289.66492696503445, 205.61945551020497 304.9474396782964, 204.4264618676567 325.71002279754777 M205.92755414868785 274.68627312830233 C206.13638598268295 293.27115302979985, 205.34549592210166 310.37754011159547, 206.96862999892423 325.09200122598634 M204.9055004610548 323.10277884313564 C191.19026090210963 323.4657627135167, 171.5593010384135 323.51226162827305, 146.3408227824495 323.02569346102155 M206.17728911159628 324.1624185495163 C184.8236467521614 324.19469492294166, 163.01311435167628 323.9603475065614, 148.19962807165317 324.57025570612564 M147.4713903444487 323.79491343184645 C149.89489535665885 308.27320534970767, 146.83817785554479 290.56818699865715, 146.8418895478735 273.4381830325013 M148.92843520763472 324.73764557868515 C149.06449788825094 309.8698881320219, 148.99922865698085 294.31325443786886, 147.4539246546673 274.6546369534002" stroke="rgb(0, 0, 0)" stroke-width="1" fill="none"/></g><text text-anchor="middle" font-family="Consolas, Courier" font-size="20" fill="rgb(0, 0, 0)" x="50" y="305">lst1</text><text fill="rgb(150, 100, 28)" text-anchor="middle" font-family="Consolas, Courier" font-size="20" x="177" y="305">id82</text><g><path d="M147.68990930420355 350.6331589106741 C164.8943919020037 350.91850258080103, 184.624197010187 350.4960742406728, 204.0152154741379 348.512525352921 M148.86275782709814 350.8611983881429 C163.2806799560098 350.0205248423288, 177.12955524108003 349.3020361867067, 206.03682014192927 349.2726790900782 M204.81663926825857 351.85016061656904 C206.26548789559024 360.7500545276215, 205.52815757183157 372.1379838871701, 204.46643688693067 400.0088648210253 M205.3347949277873 349.47071324916186 C206.8300434946671 364.3508723512706, 206.7079955353672 380.45063473893225, 205.32183010622555 400.619907402699 M206.3980642329661 398.1947896751078 C193.2323296820769 400.4873174084036, 181.17657529996862 399.5613667595741, 148.83836885748718 400.2973931573868 M205.94423487564663 400.7876888657423 C188.29344861827363 398.96907062808305, 168.3390477178245 399.7813821918763, 148.8461815750536 399.84149765908427 M149.82942707815323 400.1802282388901 C146.74024499258454 381.8381216886762, 150.23317174245742 364.3146937272844, 148.30235874594797 351.6699286396655 M148.84201173257424 400.1310593145141 C147.8353406586825 380.0267208295427, 149.12297442351883 359.7865165736873, 148.36707578130253 349.6651842268721" stroke="rgb(0, 0, 0)" stroke-width="1" fill="none"/></g><text text-anchor="middle" font-family="Consolas, Courier" font-size="20" fill="rgb(0, 0, 0)" x="50" y="380">lst2</text><text fill="rgb(150, 100, 28)" text-anchor="middle" font-family="Consolas, Courier" font-size="20" x="177" y="380">id84</text><g><path d="M149.56204661105977 424.96949098320204 C161.5863696968996 425.5235476517963, 173.16556839530875 426.4743603282586, 205.4822150141813 425.5464583258521 M147.23369674323246 424.030171078755 C168.23337507167022 424.2923890118537, 188.65226619606656 424.3046406374135, 205.18645206280456 425.31803679073556 M206.12959721627283 423.453392077706 C204.20380362010775 434.2611600617591, 203.79804158029006 444.4991376926316, 204.62412412440915 476.8339351459113 M206.65904445028193 425.56963325303195 C204.64438181748486 440.4126045682878, 205.87812647605116 457.9569296365064, 206.6927997886631 475.3514380275463 M204.56910995952538 475.338319395774 C195.33926053288124 474.7939368661622, 180.85452438784912 474.6001044100366, 147.2922273326848 474.1703355258816 M206.627885979964 475.5653044427142 C183.14855325961128 475.8136580721122, 159.33951117907597 474.93018378356777, 147.57364329583893 474.50136193603174 M148.0193720879209 475.4754882665849 C146.2934551955087 459.6350284657043, 147.23691767953733 447.2598569082339, 147.91494631569333 425.8183796901003 M148.55757233834683 474.4418892749077 C148.43607467195858 454.1938442474398, 148.2925060233456 435.25923564188827, 148.40629562444414 424.75264436048496" stroke="rgb(0, 0, 0)" stroke-width="1" fill="none"/></g><text text-anchor="middle" font-family="Consolas, Courier" font-size="20" fill="rgb(0, 0, 0)" x="50" y="455">p</text><text fill="rgb(150, 100, 28)" text-anchor="middle" font-family="Consolas, Courier" font-size="20" x="177" y="455">id99</text><g><path d="M147.7976696828204 499.45056461018464 C164.93270845376045 500.6662691286812, 179.80411460435724 499.93758692629655, 207.39084136235763 501.6465154895081 M147.68140799180895 499.942460366349 C168.41908247859905 499.57418747683835, 189.97791759187393 499.180437267303, 205.13326631118335 499.26204805849574 M204.58319975502 499.13556380299303 C206.27822743365832 517.7814033249588, 205.2881565671553 538.1167635861507, 206.99553354933957 548.7696854865587 M205.2628121293046 499.5881896669553 C207.04003413891942 515.7257393557151, 206.8902964766681 533.8061650012502, 205.05760890471885 549.856616641373 M205.6987258808365 551.3911255061262 C190.09414977556492 548.5654811764111, 170.03471531856303 549.0752648490715, 146.81452053122246 549.9091788184198 M206.00552707972855 550.738225603429 C189.590775405813 550.2326590451198, 173.27750373173973 550.048906128204, 148.99850392832778 550.0076597070137 M147.22806752070838 551.6678928428623 C148.95937060078384 533.2659901751894, 147.80706486220646 519.2111564698644, 147.67739359525092 501.5245622843969 M147.60099871538998 549.5292079716039 C147.30307132776142 536.4502576740389, 148.25021458367723 522.366871807861, 147.65369341953098 499.4622604941965" stroke="rgb(0, 0, 0)" stroke-width="1" fill="none"/></g><text text-anchor="middle" font-family="Consolas, Courier" font-size="20" fill="rgb(0, 0, 0)" x="50" y="530">d</text><text fill="rgb(150, 100, 28)" text-anchor="middle" font-family="Consolas, Courier" font-size="20" x="177" y="530">id10</text><g><path d="M147.1836953681527 574.7608684785944 C167.82798302016792 575.371324094668, 186.091211289059 573.9657139820494, 207.037471329543 573.6139954314423 M147.6258951652229 574.8655993840456 C165.3911059054939 573.9903531447188, 184.30511685424463 573.7756588116046, 206.51947074414787 574.9631189611608 M207.13885360469538 573.9116530375314 C206.6572581330675 595.6117721795416, 207.3326138068706 614.4263723188517, 207.84661097199373 625.9736604174876 M205.19169781631362 575.1886187737434 C205.028005868956 589.0844521708374, 205.49008211691182 603.7647716517358, 206.7122390172603 624.7679130863004 M207.88093500687873 623.6860405248725 C184.96391307481036 626.5002766787798, 161.14657344245649 626.9991235262364, 149.27594997734138 624.4104101381108 M205.68577964112868 624.6088411764359 C190.44164387998336 624.6297789252735, 175.91093726683027 625.2075619756231, 147.9918874888854 624.8535889254276 M146.98351965057492 625.6860034457792 C148.56737019197837 614.0642851277481, 148.02022589984895 606.8246783341435, 149.04590876277788 573.2131625149275 M147.75906231216973 624.0655714554098 C147.72221189810676 611.3420272682865, 147.10651555576626 596.9102785186277, 148.8205574680764 574.4931808205249" stroke="rgb(0, 0, 0)" stroke-width="1" fill="none"/></g><text text-anchor="middle" font-family="Consolas, Courier" font-size="20" fill="rgb(0, 0, 0)" x="50" y="605">t</text><text fill="rgb(150, 100, 28)" text-anchor="middle" font-family="Consolas, Courier" font-size="20" x="177" y="605">id11</text><g><path d="M25.978994111205065 200.8358548152002 C59.503015586607255 199.5664196371775, 88.58729457624032 200.95281244478227, 130.49005155452528 200.84817942648118 M24.501045054674492 200.36836603809266 C50.71274791186144 200.16429003629872, 77.17293255494697 198.9113919405568, 130.76894818740286 199.04824713572296 M132.56345938832794 198.52368411820913 C129.56269530575173 218.1708917267995, 132.76394799907612 233.8901351349059, 129.31080188403686 251.16348514193217 M131.36443390418262 199.29936935394082 C130.90519995907562 215.69845565215445, 131.45586177538866 232.65728683888156, 131.19158881355423 249.03293397344044 M130.96041054157098 251.77022558107322 C103.36247705964885 249.71829664406795, 78.66539707722768 249.09653327368756, 23.983864966119974 251.92958925863297 M131.80954017823652 249.36985362014548 C92.29000322174785 250.03456608647392, 53.825354623780015 248.67005610406488, 24.2888323444856 250.99174590999485 M26.34009414333506 249.6811102177954 C23.553706294888592 239.72120991948955, 25.457085236968748 224.09731802279617, 23.38546500112404 199.43424336618094 M25.08028464678302 249.66342374103368 C24.72946719572603 238.82216801613592, 25.274611251090793 229.70538475023164, 24.575270033760667 199.73006486343985" stroke="#000" stroke-width="1" fill="none"/></g><text fill="rgb(27, 14, 139)" text-anchor="middle" font-family="Consolas, Courier" font-size="20" x="78" y="230">__main__</text><g><path d="M349.9758310740306 11.906580926687464 C397.0968663752068 10.60720250745442, 447.86443130946355 11.620422531651297, 547.3293127627713 11.053524245028285 M349.1293370903947 9.745686320574876 C422.1093231619383 11.494730531722611, 495.62069857115773 11.351687249757452, 547.4577637164801 10.276914663700445 M547.6007178079312 8.487651217398634 C549.4104225518967 71.72770597458212, 547.351763382552 131.53720682947304, 547.1419048606734 234.069514250614 M547.9907233505619 9.581667257044321 C549.6222554298477 62.09590799188224, 549.2326148431109 113.97252979039273, 547.8054818378691 235.07970473051165 M548.6568951341658 234.3466680708503 C472.4387855550346 233.46736655939958, 398.6814735975676 233.14054600552868, 349.47522153521845 233.63291996676327 M547.2989638197207 234.00320716889874 C489.42355153612806 236.44407024051003, 429.0330617406014 235.8248493697727, 350.71278229467197 235.6838648370989 M348.64824890606883 234.44371180673497 C349.8591802173891 155.49023434297274, 349.41228820157187 76.45156544966585, 348.47517712824674 10.357201527883971 M350.1570362544402 234.38500513491022 C349.006718069271 172.32027793962547, 350.29517517803174 109.75946985909327, 349.77464915963986 9.15257112337012" stroke="#000" stroke-width="1" fill="none"/></g><g><path d="M471.48372309746014 83.50240271361147 C491.1307617193008 84.13156151601363, 507.24461397394106 85.99816206562507, 529.1070712132132 85.42023384818275 M472.9274828218225 84.68378308578146 C488.75468608294335 85.64060436092419, 506.27527287368036 85.75672167592437, 531.3661813145934 85.4163738613904 M530.6702341692119 83.70770353979562 C529.9413196608589 102.28716359545953, 528.7919109085299 121.5535216375782, 532.8524204001674 135.4502099469874 M530.1770738782352 85.66047388414945 C530.3836260179146 102.80895407926525, 530.6116414298001 119.07744623834148, 530.8556315953034 135.92578494807267 M530.2828752069508 135.51236506847664 C519.2743906077573 135.62906737544583, 507.760412959316 132.6382256504512, 473.07435338030984 135.19965696657897 M531.4158074295157 135.41021436334813 C517.4869427516334 134.90989033859685, 502.0156537981712 135.9868129843005, 473.0652123028048 134.63988661811356 M473.4038945149887 136.10312159662823 C472.4912087320558 116.5236877736035, 473.62902318278856 101.64025011487946, 473.49935754608526 85.4091680481467 M473.75654344373487 135.00046385999676 C473.48736827932936 117.47634115784385, 474.02466375822974 99.33004462723511, 472.9231651574205 85.099894777545" stroke="rgb(0, 0, 0)" stroke-width="1" fill="none"/></g><text text-anchor="middle" font-family="Consolas, Courier" font-size="20" fill="rgb(27, 14, 139)" x="375" y="115">age</text><text fill="rgb(150, 100, 28)" text-anchor="middle" font-family="Consolas, Courier" font-size="20" x="502" y="115">id12</text><g><path d="M474.30002240678635 159.96450831939111 C493.2692823684784 160.375915803382, 512.7273883014906 159.2705419167084, 530.7976390998566 158.30158631274492 M473.8721189547534 159.99952048800805 C493.6152787928479 160.0914806491386, 513.5435211792171 160.21092768319846, 530.6753366421603 159.493654231444 M531.1529391547974 159.63855132471218 C531.3669029868888 171.56045955893242, 530.6858647711881 182.18748259798136, 532.0715377771861 209.79396753339603 M531.0841078361483 159.31622331484894 C530.7963223945933 176.68022307306273, 531.0096054951748 191.14732041704468, 531.6394997558049 210.44413525039218 M529.3466628288234 210.42854074355813 C515.4745957632747 208.22856735125845, 503.4848147604889 210.0908469994916, 473.956688729992 208.30294219155792 M530.7724237439614 209.5638081017231 C518.5675360062414 209.70126750494632, 508.5514120755982 210.0574616027448, 473.09980561079624 209.99502863509173 M474.0082080549751 211.18999640070447 C474.58061950774896 190.17150375572012, 473.15142069765557 173.99985694882932, 474.64897916076933 159.7385000946794 M472.7156415970917 210.66004430378138 C472.9410653315149 196.62463656785658, 473.3693938085725 182.00095458308974, 472.32094022267125 160.78349063967786" stroke="rgb(0, 0, 0)" stroke-width="1" fill="none"/></g><text text-anchor="middle" font-family="Consolas, Courier" font-size="20" fill="rgb(27, 14, 139)" x="375" y="190">name</text><text fill="rgb(150, 100, 28)" text-anchor="middle" font-family="Consolas, Courier" font-size="20" x="502" y="190">id17</text><text fill="rgb(150, 100, 28)" text-anchor="middle" font-family="Consolas, Courier" font-size="20" x="380" y="40">id99</text><text fill="rgb(27, 14, 139)" text-anchor="middle" font-family="Consolas, Courier" font-size="20" x="507" y="40">Person</text><g><path d="M351.5308964119922 11.07490168825419 C364.03911826032845 9.081970956710972, 373.8774506435787 9.19623934551742, 411.6228928344396 9.572624530235325 M349.70893069507616 9.540518863563271 C364.05448358142854 10.87299971657993, 376.65603067834303 9.720475387786149, 410.04736652716076 10.184113087386699 M408.18493377548816 10.200576094192462 C409.7999133731156 21.0583841178021, 407.75170041883183 30.34691402678691, 411.3863227946582 58.15500192094061 M409.86136791962434 9.803173882504726 C410.05984292229306 29.768736726077574, 409.62730880901745 49.38508236345911, 409.6894686802805 60.0242928585991 M410.94658541677035 60.530726702619454 C391.78193999311173 59.304429041796425, 369.77046342372665 61.210852349221476, 351.6085673364555 61.21894544654877 M409.19639899625986 59.20445355008633 C389.0803072675233 60.363515452437284, 367.9186925666142 60.79208606514988, 349.6397157532046 60.00877327032493 M350.52025496795903 61.05959339172318 C350.71360396383886 46.07157273007609, 348.6114750911812 29.272696270599255, 351.2815355194541 8.256400515822694 M350.6028475795981 59.6432030739879 C350.1108943725324 42.07342827787657, 350.76671621987515 25.713849485133082, 350.286032187398 9.919202880429248" stroke="#000" stroke-width="1" fill="none"/></g><g><path d="M465.26111655933715 8.991092295491859 C489.4153696400425 10.911097957355476, 515.4128056684574 10.036181582013864, 548.2294215350064 10.733915486798647 M466.27488454953584 9.245142596713823 C497.0594219063886 10.295910341609947, 528.732156847864 10.129072842833596, 547.6886990397508 10.823166844148934 M549.579567056033 10.073505406391007 C547.8159116833602 22.723172354589188, 549.7911888993311 38.07738276207645, 546.3848760998509 59.39481786326069 M547.1560566579739 10.061968376489304 C548.5183346896869 26.837552266867434, 548.9255001854674 46.22832188354335, 548.6131295921762 60.84969781281915 M548.7102390192209 60.32322798353722 C522.9231021367601 59.03657350366918, 497.7751137066336 60.5471773216523, 466.5677897227427 59.64172034776979 M548.5482087810223 59.21503571441254 C523.0254773054351 61.360015957363856, 496.926374522513 61.06689263081431, 466.40729555305217 60.86955116997619 M467.46659299022326 58.800908872392824 C463.66197729199905 43.12623097512588, 463.78970542702035 29.44372492709761, 466.5902386770776 10.272485123681534 M466.9488063189838 59.18362468994392 C465.79601334101454 43.39173686747986, 466.14979899498695 27.202320128249, 466.2072155547003 9.849019677322316" stroke="#000" stroke-width="1" fill="none"/></g><g><path d="M350.7986284095879 349.0703097571891 C462.85926816734116 352.69957205853314, 574.849589869627 350.7652803584802, 633.0462996028439 349.97400783746315 M349.3676938100715 349.3543517975352 C419.94656880409616 350.2552854288954, 490.3763485874783 350.57719848861944, 632.1516433099242 349.963838384691 M632.6110641404915 351.77385371730577 C632.0246966026028 402.04465341642555, 631.2461809566665 452.5653715615735, 630.2870989932102 479.43725589190973 M632.8654716049434 349.2178012234632 C632.7656379329883 397.4588621757744, 632.6430877400679 445.84845708835473, 631.1312803385647 480.08162893942654 M630.9271240425064 480.98297377814833 C526.1285442776143 480.8568650741166, 417.51738257325803 482.7004870364734, 350.40921854950034 480.13964212207753 M631.7409475185341 480.0265029327038 C549.5480278368807 480.0444057806729, 467.908722979729 479.9409005979348, 349.9187484940071 480.42044292591885 M349.5351364231464 478.43329948364345 C349.4463474420777 442.68553968686723, 351.78044679276724 405.29600371231834, 350.9386198637618 349.0627146932679 M350.34999846024493 479.7537071379781 C349.43688103739936 448.90945826174635, 348.8365388398611 415.89027977560283, 349.64776861280643 350.0649627519788" stroke="#000" stroke-width="1" fill="none"/></g><g><path d="M374.2009927623089 414.0863016968609 C390.53278657516086 414.8422674231995, 403.68318159330744 415.2206132542509, 432.1843238643196 413.0378560664569 M375.7947193268607 415.7544808152001 C387.7621064426202 413.58711344197457, 400.4363689649154 415.3445630660392, 432.9768662624431 415.0171211016513 M433.06869001940925 416.83625887465206 C432.44451418600465 426.0406076441403, 434.23632617631364 435.8077992742116, 432.24699543576685 465.6040046372327 M432.39566739375954 415.77238789443817 C432.20193841255286 427.58502297085465, 432.8848090378381 441.2364697025963, 432.72397447925357 465.57707986483166 M432.00711582330655 463.37829841525297 C420.3933126596262 463.9231790009216, 406.6177503228257 464.1266796541084, 374.96015339420615 464.4234405801459 M433.4616176771001 464.83099508165066 C411.3968949578561 464.64326832960865, 389.51781176637337 464.2765300855652, 374.92288763394265 464.8562114932172 M374.7358074705402 466.05392135201214 C375.2777863166089 447.6258790789441, 375.8565211496465 434.1746491235027, 374.4510317085865 413.9195215854215 M375.01512521521255 465.08751982451696 C375.04641492997234 445.2291621039752, 375.0864506170826 426.85178540548713, 374.37656881603635 414.04573166568576" stroke="rgb(0, 0, 0)" stroke-width="1" fill="none"/></g><text text-anchor="middle" font-family="Consolas, Courier" font-size="20" fill="rgb(150, 100, 28)" x="404" y="445">id19</text><g><path d="M431.20350916040405 416.4118284202603 C449.2262117563934 414.6420615681792, 461.37407269036436 416.61922644376546, 489.1035026714222 415.4704815491447 M433.7065666605859 415.669607994178 C455.65686124907904 414.5850466596778, 478.97266875780923 414.8839393631825, 490.3441540627941 415.1190001464419 M491.1259443364547 414.4550234585964 C491.6955491119713 431.99295681362867, 492.1076172181555 447.09646142238955, 489.2762272776831 464.81546367238445 M490.22181322963553 414.2401341678849 C490.4358041672619 433.72183502786896, 490.5804137679843 452.5950257877141, 491.1219866365858 465.3345354956351 M490.05539793290615 465.94949186665855 C469.4151712473082 464.2156242430586, 448.82647692195235 464.61794552499765, 431.81544484661515 463.24817383347596 M490.5430012973277 464.1835081364214 C474.95498710610656 464.9753427574721, 457.9217189048093 464.39777188444157, 432.4735761392093 464.7330254180259 M434.8297030453227 463.3846630557649 C430.90651935570355 445.1608171155044, 434.5129840549853 426.4358516985011, 433.736396738114 416.7443818673606 M433.7403346137419 464.38891921369543 C433.31847718198884 451.58716862962575, 433.0308502993093 440.3142156583994, 433.6450915667906 414.40838629806075" stroke="rgb(0, 0, 0)" stroke-width="1" fill="none"/></g><text text-anchor="middle" font-family="Consolas, Courier" font-size="20" fill="rgb(150, 100, 28)" x="462" y="445">id43</text><g><path d="M490.68940597471544 413.1423819200279 C514.9432810275957 415.4062460635034, 534.1096507610088 414.1051684675193, 549.2986301455354 413.36201043251117 M491.64024802816 414.0786124607674 C505.42011268043325 415.87650013883734, 521.8921719129843 414.8386505313611, 549.2595613941794 414.3802043832414 M548.7752112865645 416.8307137996703 C549.0556768550059 430.46660898243834, 548.0391011430154 445.6295369629951, 549.2854358352332 465.98760010762186 M548.6200454597963 415.6642869212885 C549.4851233013064 431.6647043786878, 549.1188185892121 448.78871947837894, 548.5668618877072 464.5576651397688 M548.9030741096045 465.77361823122123 C535.4656957148661 464.6694662904649, 522.0224678558166 466.6926930416599, 492.4508420425642 463.92917022543674 M548.0832037869557 464.84650699293303 C531.7985266697181 465.2689467780479, 513.0265766911318 464.53018426183604, 491.14655204328545 464.7305807702307 M490.9747187568349 463.0166999736075 C490.2521524847878 446.53477899061505, 493.45309791614864 431.5530234152254, 490.9488245849448 416.4710413276248 M490.626235744494 465.66856862713365 C490.05592181777314 452.14969513246916, 490.97631933061706 440.0386933970827, 490.2214326757992 415.46474144640797" stroke="rgb(0, 0, 0)" stroke-width="1" fill="none"/></g><text text-anchor="middle" font-family="Consolas, Courier" font-size="20" fill="rgb(150, 100, 28)" x="520" y="445">id28</text><g><path d="M549.1518445917006 413.7057626687854 C571.1086094724011 415.88388341912935, 590.2356301298596 416.8742990678655, 608.8276644668191 413.5081597376631 M548.0691056757522 414.54514752217545 C561.839630390563 414.83188245731014, 572.5833019629886 414.55774004319, 607.0184566231275 415.3304403368217 M606.8258620068881 415.0336287416178 C606.8634291689613 431.54482310212643, 605.5988654854347 446.5674154548536, 608.4692915459633 464.2415675175068 M607.9580746870195 415.31801536718035 C608.1998689890113 432.4784955331176, 608.3352050892463 450.56570656865915, 607.2300178944894 464.10198665111295 M605.9795322936731 463.73066477117976 C583.3587128263017 465.87265495581, 564.6307799857459 466.60882860065834, 547.7472491788716 466.93252993194466 M606.6073370205087 465.5784949786249 C587.4125614175592 465.51644807319286, 568.2383702016886 465.36209764209246, 549.4723503336002 464.23970852728286 M547.4870189733368 464.0061320517032 C547.4035704411734 453.7533351915724, 549.505939736231 439.55358587628064, 549.5244514328845 414.91023765363025 M548.0684530989572 465.9510851168527 C548.55598964285 452.50919388491644, 549.1236116594724 440.6910890713985, 549.4330147689061 415.62283625014294" stroke="rgb(0, 0, 0)" stroke-width="1" fill="none"/></g><text text-anchor="middle" font-family="Consolas, Courier" font-size="20" fill="rgb(150, 100, 28)" x="578" y="445">id49</text><text fill="rgb(150, 100, 28)" text-anchor="middle" font-family="Consolas, Courier" font-size="20" x="380" y="380">id82</text><text fill="rgb(27, 14, 139)" text-anchor="middle" font-family="Consolas, Courier" font-size="20" x="602" y="380">list</text><g><path d="M351.67495895055936 350.58402657562806 C368.00095666364456 349.4275214830134, 390.19524970843355 347.93660174494295, 408.4944066741515 350.18267322944547 M349.45041735084294 350.72499657937755 C366.570087467472 350.09994338678143, 383.17954928869693 350.0966038415389, 410.09236592656055 350.27803728266906 M409.412648751566 349.5765365748215 C408.9923972952724 370.39037177352384, 409.58921469415986 390.0705158821036, 410.36285269374275 401.43840208098146 M409.74354098349306 350.4307373442565 C410.33570895748977 360.22807442784745, 408.59401606669104 371.13697443451804, 409.32478393658016 399.44207969652297 M409.03059367718987 398.74084591515856 C391.15076371488186 398.1693589735977, 373.1084498191783 400.8861632010513, 351.1154171550739 400.05454092885054 M409.3342520532786 400.39480542820525 C393.3227346476005 400.5221719216152, 377.5420431727312 399.94879591941884, 350.30269825018433 399.24666099305335 M351.43835403269844 401.78102463551147 C351.8801587362764 387.53487174642197, 350.4896606940493 377.4610306817208, 350.93356595841874 349.5383217043941 M350.78825229411126 400.3985823283305 C351.42308310599145 384.90175148021865, 350.96679849887096 370.7710813242995, 349.4773685077118 349.0451829718762" stroke="#000" stroke-width="1" fill="none"/></g><g><path d="M572.608319730613 349.2114465054921 C595.2280564081515 349.10589781451154, 619.9954320849205 351.23108418299347, 630.0319915663057 351.87465769496225 M571.2211974313344 349.0429183895062 C588.8634723006678 349.1531044136674, 608.1395543489139 348.8745245098809, 632.8220641959687 349.0622775046927 M631.3667654740898 350.6701794024418 C631.1303417651712 361.74265562339593, 630.5227878552466 371.2281498267807, 631.9906717240834 401.38576878306577 M631.1912505548231 350.95507414013247 C632.6254746600858 360.75940491042564, 632.4956924266128 370.4269426326801, 632.7266604085423 400.22975967258003 M630.3526280161951 399.2967399333488 C614.9495397693038 400.5939187925348, 596.960518056673 398.9819568558785, 571.3562377943817 401.15879083966024 M631.1147553520976 400.31512430168806 C611.4227853494849 399.6915222846335, 589.9044616787316 400.4512783331008, 571.5710783834719 400.7277004131324 M571.5969088532661 399.22297805405856 C572.5432420110965 384.46951326875757, 571.952654170964 364.65346387894556, 570.0584588487021 349.60087260255 M572.3106301812259 400.00372923567784 C571.4095142174374 382.95300695441296, 572.3110106289406 365.26386548143165, 571.0064700212997 350.74004947460224" stroke="#000" stroke-width="1" fill="none"/></g><g><path d="M350.8545446213834 600.0880992028459 C451.1914523208593 598.6717687600575, 553.2214942210796 597.5876198315455, 633.2421739411787 600.7488520902425 M349.5769111429978 600.063956714788 C443.595015347582 597.6540146130943, 537.0429403691346 598.4131997826887, 631.6425362003757 600.6748438157792 M630.9250762676037 600.613709390213 C633.6425945171411 651.0281786801588, 631.8943722363585 700.0042801322405, 631.7109156933128 750.6752198631629 M632.8864758884292 599.8273633627266 C632.069341739924 655.346042530993, 632.2412526851514 709.9136248040219, 632.3038777367912 749.9462361572674 M631.8438566677763 750.1622937214405 C561.7620018387149 747.9840078314652, 493.60323979742043 748.6058769210483, 351.4497667842327 749.9388916567761 M631.55452094812 750.2771508629584 C560.0817972351455 752.4029031757481, 487.14183668606375 751.8389929876586, 350.1119343391291 749.7324930555413 M349.3396922583424 748.8573490235585 C348.95670401154945 712.0604091198284, 349.4413786280986 669.4247347529324, 351.7042493114548 599.0319856219796 M349.9746943697588 749.3648595535238 C349.1051638969767 703.984451446671, 350.05811528764684 659.5493274825732, 349.5807708298311 599.0271415073682" stroke="#000" stroke-width="1" fill="none"/></g><g><path d="M373.7528151112175 684.2541936528133 C396.3936193927494 686.1828164688595, 421.3299178402964 686.2564415233053, 434.2597793036733 686.6140727353201 M374.53774782984806 684.6626053753604 C391.56159818968274 684.4926385218272, 406.9086125279761 684.3739219842338, 433.02210797640174 684.8152749056945 M433.5449100092747 684.1955807450476 C432.87331512720436 703.9037345881183, 434.5419108642172 719.3729715131898, 432.7104177440294 736.28930707204 M432.53470224951553 684.1919749607628 C433.0740929247869 701.6977692323052, 432.3621093482643 716.688404165302, 432.5737390684994 735.2307802796157 M432.35747949874536 733.08854285902 C417.37082170683135 735.414646652566, 397.3445634411863 736.9952544518385, 374.66342152201315 734.866239012923 M433.37155629545623 734.9086068553036 C418.81072444060703 735.8252625436572, 401.96817615729725 735.8954082759238, 375.7858128560819 734.1881900017253 M375.2335382553772 736.5102277202466 C373.4569458210145 717.7011487187243, 375.9087261385571 698.8329491784743, 374.24895710490824 684.1350004207161 M374.4018845877779 735.0383167787029 C375.03350935196954 718.7126884508135, 375.0453158194663 702.2947713218854, 375.73236092444324 684.1441009462428" stroke="rgb(0, 0, 0)" stroke-width="1" fill="none"/></g><text text-anchor="middle" font-family="Consolas, Courier" font-size="20" fill="rgb(150, 100, 28)" x="404" y="715">id32</text><text fill="rgb(150, 100, 28)" text-anchor="middle" font-family="Consolas, Courier" font-size="20" x="404" y="672.5">0</text><g><path d="M432.5334801081973 685.8664528116191 C447.2080554317167 683.7549730725165, 457.5315600411632 682.5558816998584, 489.81623275262837 686.738896774154 M433.66663905105963 684.6259715765684 C446.1648013506877 684.2283453313997, 459.00205484693277 685.3162057807893, 490.0528861872033 684.8638701101833 M490.16327560993074 685.2254806724152 C492.3657221275063 696.7854103097023, 491.4382064151532 705.4287467492442, 489.78552538973753 736.5449616165433 M490.85798472118177 685.6478690397958 C492.31379413826346 698.0025416420842, 491.16219637852845 709.9256256372839, 491.4869221817259 734.2664627858304 M491.44172211299286 736.6081220906387 C470.9363518960525 733.2000691702165, 452.17752947754286 736.0385213154915, 432.79081193472166 733.398755327067 M490.1025159069021 735.6406171536158 C468.5669848102449 735.114969891195, 445.09419541804334 735.1614887995376, 432.5618317974563 735.777774286268 M433.37404833710497 735.914036046164 C433.23993947242974 719.5532555692072, 432.385613822808 700.7831800138631, 431.82788531520436 683.5657640820359 M432.4869970304106 734.9663350974325 C432.9575027887331 716.8588063084369, 433.23821434162807 699.163030798266, 432.38832138433224 684.2979493217242" stroke="rgb(0, 0, 0)" stroke-width="1" fill="none"/></g><text text-anchor="middle" font-family="Consolas, Courier" font-size="20" fill="rgb(150, 100, 28)" x="462" y="715">id10</text><text fill="rgb(150, 100, 28)" text-anchor="middle" font-family="Consolas, Courier" font-size="20" x="462" y="672.5">1</text><g><path d="M489.29015516605637 683.0118778238823 C510.2734616051272 686.1188815175709, 529.199897051962 684.5496851020251, 550.885148620937 683.9201319960832 M490.9666433204551 685.7322725069696 C510.09486899855773 685.1112496194266, 530.0340883952879 684.6602788852038, 548.9225393288286 684.3882759573924 M549.4779535328294 684.3260754308302 C549.1530434979989 703.6277581082419, 549.0961108246389 723.6025118921642, 549.0047337976237 735.7699690038315 M548.2624988391673 684.6564798281661 C549.1609174727953 703.9590742064712, 547.9503955193296 723.9208192454473, 549.7147808045358 734.2277560173216 M548.3965339515496 735.8003166035464 C532.6311371276008 734.6083506475857, 516.2393830691252 733.3056298939621, 492.6201822332406 734.3412454859674 M548.7171622623782 735.4555905655952 C536.6337615884453 734.3307180808295, 523.925950434143 736.1121810645091, 491.37335543785986 735.3460047066551 M489.6321067597445 733.7465647931526 C493.06641153682807 719.2287847304415, 490.39409709049056 704.6050978908679, 490.50192913572243 684.2615975622915 M491.8447758996269 734.9604951423291 C491.45882725742763 719.9517773565537, 491.2416054500009 706.7181482429486, 491.208660896496 685.3375260721865" stroke="rgb(0, 0, 0)" stroke-width="1" fill="none"/></g><text text-anchor="middle" font-family="Consolas, Courier" font-size="20" fill="rgb(150, 100, 28)" x="520" y="715">id90</text><text fill="rgb(150, 100, 28)" text-anchor="middle" font-family="Consolas, Courier" font-size="20" x="520" y="672.5">2</text><g><path d="M548.2560223129695 685.9281756731207 C565.7632989678519 684.4863703512412, 579.8166699745288 685.8687587296301, 606.6223641678499 683.1431192529818 M549.8788422720498 685.7576001486196 C563.4717202299263 684.8628630062288, 579.2000716036323 685.7330893904386, 607.3770602392491 684.6767314327324 M606.3550829591306 686.7086640517966 C606.8033328524508 704.2167136773236, 608.2940935043183 723.2038785708919, 608.207937398926 734.3450932097169 M606.056867954114 684.5663186839994 C606.2509939035162 696.2533940581187, 606.5506211151185 706.7219658059922, 606.6618779672203 734.614448883653 M605.9198622391389 733.6923250657622 C590.8345324712834 733.6237176102364, 579.0062438547172 736.1535761573452, 547.1599469332406 735.7959018069415 M606.4688917175043 734.9992523672425 C588.1930959403827 735.5810700970335, 568.6913647262758 735.1348435544488, 548.5616126648206 735.2121418183134 M550.294841323797 734.9702022774962 C549.8065334484822 714.0911950525553, 548.042544359715 697.2608647048604, 547.3854179082502 685.0089498651381 M548.8737391761915 735.2005238915054 C549.3959676685497 715.47407538898, 549.7980431829205 695.2358008759046, 549.9931919952785 684.8279313847926" stroke="rgb(0, 0, 0)" stroke-width="1" fill="none"/></g><text text-anchor="middle" font-family="Consolas, Courier" font-size="20" fill="rgb(150, 100, 28)" x="578" y="715">id57</text><text fill="rgb(150, 100, 28)" text-anchor="middle" font-family="Consolas, Courier" font-size="20" x="578" y="672.5">3</text><text fill="rgb(150, 100, 28)" text-anchor="middle" font-family="Consolas, Courier" font-size="20" x="380" y="630">id84</text><text fill="rgb(27, 14, 139)" text-anchor="middle" font-family="Consolas, Courier" font-size="20" x="602" y="630">list</text><g><path d="M350.08005621888947 601.0245989168682 C367.60350873805436 600.180901813748, 384.43289171506405 600.4768214254775, 408.4998521018771 598.6110847131353 M349.12903252077723 600.306666704098 C369.12616260505035 598.8157028491555, 389.8357580139361 598.8723258547284, 409.1172651380151 599.6402486542188 M408.7961999586026 599.9178515580079 C407.9160362076415 614.895285553307, 409.0268491128627 629.3389516374162, 410.8485567079121 650.398881257611 M410.09056531605955 599.7041662391658 C410.36122909459795 614.4552281578292, 409.65952422406326 630.0562481263988, 410.5340783880093 649.1325934685973 M410.38408718911694 649.3100548978019 C385.0906582001317 651.4237059349143, 363.16629741672386 651.1675616375359, 349.87879928930494 648.104667103183 M409.1952078540669 650.0671952612072 C396.20786415972225 649.6359623830352, 380.5057390355597 650.3120499784717, 349.17105541124766 649.0675447938788 M351.9942946572593 648.6641306087535 C350.4977567040797 637.6057031598054, 349.29353938187677 624.2428737858809, 350.23036047035237 599.2038673574658 M349.9220927880111 649.9257709837601 C348.90497082029066 637.4411984200901, 349.455580779323 625.6891255449092, 349.0790079961669 600.4975143186642" stroke="#000" stroke-width="1" fill="none"/></g><g><path d="M571.3484493497892 599.2015520280324 C594.2503086192711 601.8101420013306, 617.8426813841355 598.625967712961, 633.5275418377645 600.9847642543341 M571.9746035429097 600.5346607303912 C592.271175820398 601.2686580683961, 610.4721182802737 599.7556310701777, 631.439453236082 599.3745060446959 M631.158170913031 598.9188695680966 C631.4790612546707 615.0045248914016, 631.5283424607436 632.3939728971984, 631.9527782165328 649.2792308523902 M632.1390163852706 599.4512209593413 C631.4812670394238 616.803385982422, 631.5479804928086 635.3100797848934, 631.7592751777404 650.9733069849393 M633.9438236684181 648.2524062449409 C615.539179961098 651.1889269697226, 599.2099284729055 648.3078406420229, 573.1082441882368 650.2898713682366 M631.5239118864088 650.1297789722831 C609.29432471829 649.2725626889032, 587.1082180009913 649.4914096457949, 572.555944292632 649.0690881981424 M573.8088035888502 650.2005698926939 C572.6978922831115 631.7144340129099, 571.6888720357447 611.336706651622, 570.5687217097473 598.8670323957095 M572.1610479546853 650.5267450445483 C573.0807071241512 632.794741309896, 572.2303591395261 617.4087700508369, 571.7103382436138 599.429546321435" stroke="#000" stroke-width="1" fill="none"/></g><g><path d="M749.0353832282949 10.982220415493465 C794.9015096540072 10.418826641693474, 841.0895211520237 9.204174767762444, 950.8458675871668 10.121295861149898 M750.1488815466653 10.633449581254403 C806.2674911185276 11.94255597624999, 862.983685501459 12.002349914818451, 950.1864102501912 10.833316762218242 M951.7096027056643 11.654593159476795 C950.4185257184334 54.572287492614834, 947.6710420318368 94.59242675862124, 948.0873538116034 139.34767071646868 M949.3487754247502 9.290450585549632 C948.5463222950938 47.44151946403531, 949.2183722308104 84.90723278144236, 949.5131323661722 139.20151233046184 M948.5013286832692 141.69947837914813 C884.1459356111643 142.17240311769484, 820.7540863972881 142.8235619450448, 748.8333103125552 140.82666402323395 M949.4732890364049 140.18479975186528 C904.3122392688375 140.74028252111367, 858.3062654811829 140.02650816690598, 749.3124690373644 140.42415536416624 M751.1847653430972 141.04677424501432 C750.6878954517448 111.36572019083273, 748.4156933037603 79.24899567856068, 751.7340882935523 9.17270798035109 M750.8145775546186 140.75365346064976 C748.991508485643 111.69968820144877, 748.945498669191 85.11549888722925, 749.6537586738683 10.532630470811286" stroke="#000" stroke-width="1" fill="none"/></g><g><path d="M745.3967772324174 5.268831044966356 C818.8030884160979 3.239162147675314, 895.8603717819141 5.231768141937881, 956.6964649212538 3.6378352299102437 M743.3121500308703 4.343088309858807 C799.4032437409895 6.052512836429183, 854.7162139011066 4.641055876392084, 956.3789803989523 4.534045226686384 M956.1376015024732 3.0470381150559573 C956.5339256880121 51.38106395968696, 953.4195427399003 98.37644513890159, 956.0127371616227 145.666283872299 M956.779280919548 3.7041455516704915 C957.7819705766506 54.05732822266398, 956.1185912962917 103.293385564782, 956.8690792494763 145.71060083782714 M954.8075137951764 144.88651003959396 C876.0612252427902 146.68169287237924, 797.6655226890639 145.49722214484407, 744.1223686278777 147.3078006024528 M955.7840444028609 145.3619755775884 C877.8949113260477 145.6646114408369, 799.7994526323697 145.79301644517696, 743.6085262613151 145.5331692976345 M743.437561434366 145.49657211689617 C743.2399549903945 93.05436841227, 743.0116529631377 38.99280078430306, 744.49524681657 2.9418857353218195 M743.8343118094052 146.81248820276923 C744.6136553959298 115.86326895612, 743.8351363311251 87.33326534602125, 743.6668076066312 3.066873261339536" stroke="rgb(0, 0, 0)" stroke-width="1" fill="none"/></g><text text-anchor="middle" font-family="Consolas, Courier" font-size="20" fill="rgb(27, 14, 139)" x="850" y="100">1969</text><text fill="rgb(150, 100, 28)" text-anchor="middle" font-family="Consolas, Courier" font-size="20" x="780" y="40">id19</text><text fill="rgb(27, 14, 139)" text-anchor="middle" font-family="Consolas, Courier" font-size="20" x="920" y="40">int</text><g><path d="M749.7854657563464 10.01387667658718 C761.9994074798672 9.20808661316628, 777.1905302122632 9.982016155096122, 810.7583795856716 9.703298880458355 M749.0754044783417 10.983068312663562 C762.6856911529701 8.837965362918403, 775.2690431559507 9.113527058061747, 809.7382661023119 9.2998975095739 M811.1448014942478 9.16308664879434 C810.9237380786336 22.595005290437175, 808.6948444259327 30.27802309797298, 809.1811921215296 61.14797331961897 M810.7003527019608 10.519135844051883 C810.587900741244 25.962772599376294, 810.1257292810583 42.31907089464396, 810.8886641990118 60.22969479270343 M808.812264033512 60.800578535293525 C789.7898599911885 61.2876713779277, 768.420899462416 58.29527520790067, 751.454046316915 58.965804570464954 M809.5681533723499 59.333723841624966 C797.4842852060315 59.091667753190414, 784.7075083384003 59.640716455975635, 750.4315994662766 59.584142352121006 M749.8801204266429 59.8439409622366 C749.2431154838234 41.99337304817604, 751.9905468907704 26.415343195542402, 748.7055398504303 8.786344309864871 M749.4766883025457 60.93318590997763 C750.3647286437841 45.94463081299496, 750.3389606453642 32.56236177173564, 749.9699661923185 9.79350294473639" stroke="#000" stroke-width="1" fill="none"/></g><g><path d="M891.5912718193903 10.995679986855631 C902.2928200367237 11.35785738430487, 915.5930651277926 8.7578859052721, 949.8915463092341 11.339343425720443 M889.9410507944306 10.270523891366773 C911.9027353759601 8.832517140921325, 933.8928498306841 8.939291824372496, 950.2945837244584 10.52612029691587 M950.2797567997204 9.269228055479815 C952.3590845273006 22.17434112015596, 951.0896681146079 34.1372969319827, 948.8086813566848 60.84196360884557 M949.6401318878329 9.099167777942684 C950.602905027206 21.099801720598986, 950.3085682350837 30.041447930719535, 949.9183064880527 60.996857349578775 M951.9953037228547 60.84678505451061 C938.8393439677297 58.85149648284813, 923.379500296027 58.41708833139595, 889.0437636901672 61.126229050413585 M949.8185141931011 59.196183708792326 C926.357537233747 58.994989075287044, 904.2629054430139 60.72886114181274, 890.4707842223222 59.2498384222907 M891.4346227426026 60.53284476466344 C891.8220095219556 43.087608605772715, 888.9653789765699 23.866711707678956, 889.5847744194867 9.343927696164563 M890.8018992976903 59.81970312600409 C891.335246155787 48.45115658521001, 890.8791834960718 37.44910505533924, 889.2135421274394 10.585598606534203" stroke="#000" stroke-width="1" fill="none"/></g><g><path d="M748.5485545100747 249.0888386742423 C799.4435600001797 249.60120658605996, 852.1595216549591 248.6328612684986, 949.1669113403647 251.18939742722668 M749.5858981774414 249.54887722363497 C826.4948801737556 249.11737734976776, 902.8737009287586 249.68067400785606, 950.6937468145127 250.47481688257807 M950.9560596329585 249.95727446213678 C949.9002083592394 297.5404488634965, 951.1721416634673 342.2763307271574, 950.7408897379706 380.54489305638214 M949.8413485435441 249.2393905093849 C948.38807680009 281.1337968274568, 948.6805349476801 312.01150031484485, 949.0450694038561 380.19451645590595 M951.3041516249232 380.2737658125474 C883.0617628205696 381.01585154087184, 815.9069040221395 379.21962468401614, 750.3780107849493 379.43917476024205 M950.1104765789929 379.7060215319779 C892.8079968291073 380.07206612181415, 835.8856934395072 380.67345906848993, 749.6475322810927 379.65408882640764 M751.3223081859119 378.6630409105517 C747.96536030298 331.94644926300373, 750.537329951214 284.40866384235227, 750.6013543388879 250.8806530188394 M749.9940100052028 380.94620629209334 C751.2495817869922 335.3638793257336, 751.2495790038812 292.14372870461017, 749.3501246675968 250.24553664149968" stroke="#000" stroke-width="1" fill="none"/></g><g><path d="M744.6563501372665 244.6399351848259 C802.6672644212642 243.85553339800262, 861.5029602054263 244.18072252234748, 954.454729367339 245.57707364709069 M744.4487427035403 244.84029814553423 C805.4398324510062 244.67306196865349, 867.5228976378653 245.19546781532503, 955.565716585411 244.0849794523225 M956.0442418439466 244.13117418720546 C956.171752281138 286.3065825085569, 957.2916535874301 328.4730671615115, 955.8550301321518 384.88726853085745 M955.9639190099052 243.23113061638273 C955.7180743984709 284.00320128542006, 955.9308952544102 324.651188568587, 956.3305541630906 385.822614788405 M955.5566960450326 387.6581782477705 C904.1183113557319 386.2291968699945, 853.2626665155703 382.87610888963616, 744.4249640757625 385.64151756827397 M956.8338513214202 385.7802442197162 C896.8816463984288 386.53174184973653, 837.2294286058957 386.1255523029483, 744.7942703803658 385.3692498595756 M744.9641666745634 384.0279794305893 C744.0592519460683 329.6166190865245, 745.594195994249 274.7275878534613, 744.7965043514351 244.94915466086903 M744.9684292769799 386.7735529592814 C744.0985041279015 342.21390199928635, 743.6631234017142 300.6567581837128, 743.3955234686741 243.45491997180105" stroke="rgb(0, 0, 0)" stroke-width="1" fill="none"/></g><text text-anchor="middle" font-family="Consolas, Courier" font-size="20" fill="rgb(27, 14, 139)" x="850" y="340">True</text><text fill="rgb(150, 100, 28)" text-anchor="middle" font-family="Consolas, Courier" font-size="20" x="780" y="280">id32</text><text fill="rgb(27, 14, 139)" text-anchor="middle" font-family="Consolas, Courier" font-size="20" x="920" y="280">bool</text><g><path d="M748.2200167366684 248.8153039633132 C770.7169026032444 251.66709956528618, 787.0598195702618 249.9808352774849, 810.2118916249268 250.30466241779024 M749.2219099333817 249.9659468466421 C765.016838487266 249.95477309659722, 779.7790643122541 250.54165249035526, 809.1439388649889 249.54231993221964 M808.9149898769438 250.03118117481264 C808.5999700286673 261.3068032983787, 809.9737742798949 274.04208098543285, 809.4936402059462 300.0672590400586 M809.7741266722034 250.4036560899447 C810.3045219937796 262.3678137612413, 810.4257131481718 276.3117657365976, 810.250521037315 299.8632172830157 M808.0530002947179 299.9163527741358 C791.8278945176298 301.9218080565766, 774.912822774256 299.2103946941268, 748.5979704118614 300.46830079925417 M809.0855955771259 299.5881540692001 C794.7936542427345 299.6227816095027, 779.6920125113159 300.3605653996345, 750.6712238024174 299.0568650662621 M751.1535858770656 300.18887897577713 C749.4540187788646 285.1708784073893, 748.2144701992361 272.45096906872135, 749.5322142573835 249.77042499334982 M749.21928715633 299.3769228324857 C749.9628984988256 283.1608043295919, 749.2819181454923 266.83142326523654, 750.7602141267805 249.29184174643672" stroke="#000" stroke-width="1" fill="none"/></g><g><path d="M890.4445853379913 250.87630308248237 C906.1928088156629 249.6894275927671, 925.8180661878558 249.47591786513112, 949.8393964354067 248.40761903453642 M889.1348931413468 250.01745736210978 C906.7469657349718 249.95280328199874, 923.7493641255143 248.68796353267558, 950.3851033832134 250.83615310170612 M948.2953064772342 249.2080873605853 C950.4434341314732 268.7172716884668, 949.3371150383829 288.7153759674634, 950.9935119067196 300.78107771085456 M950.1744824501988 250.230912706794 C950.9316752807704 261.87369304126315, 951.0139458758312 272.65714544032005, 950.7389952833548 300.3336822259737 M951.4816216392413 299.8628072935669 C925.266594572139 302.0377125214799, 900.6219707665405 301.97026357845937, 889.4512450888984 301.1517631525891 M950.1317280270281 299.48625431577733 C934.4053141073746 300.04312084953045, 917.1160990539393 300.50588456966364, 889.7389169495827 299.08971566206395 M888.2838106554627 301.6036012743185 C888.2656590552533 287.7090999200601, 891.5826500870456 273.5967712506381, 891.0863744359785 249.08845566069897 M890.1341343676106 300.0091578707173 C889.861914335642 286.5457143771971, 889.4055563800049 274.50982038975474, 890.5685517094046 250.4996209182461" stroke="#000" stroke-width="1" fill="none"/></g><g><path d="M749.3835598203143 498.4756086503066 C818.7803417307423 501.0238441791868, 886.6907397521924 498.99674005203514, 949.4763699324451 498.7063695382867 M749.8674208740343 499.2685638840146 C797.7133151194508 499.8188015246648, 845.3260608412122 500.54856870050867, 949.103029833463 499.44196606890114 M950.794757295222 500.48710211225847 C950.6244452403578 530.0561816739643, 948.0847780139723 556.0446377138136, 949.2012459360785 631.330741683377 M950.8403420172245 499.3057721436214 C950.4656476773632 533.6660281994223, 949.6056187407369 567.7995041290794, 950.5270967238378 629.8609594656375 M951.1035253870206 631.3580033187129 C894.2256263929538 629.3332705464907, 839.2467392279086 629.6408457168219, 751.6941864233065 629.6135686462379 M950.5222878566567 629.8734634872342 C888.3322269085274 629.9233994836528, 825.9442604479308 629.9816333002954, 750.7818770839061 630.3483055286289 M749.6033221063776 629.6392226493897 C749.0171815960912 591.3869565910268, 752.2104337873137 552.3064431233296, 749.4069953240901 501.38249932802677 M750.2079159099612 630.8243471226106 C750.2461893815528 587.2193854004624, 751.8683431558342 545.6477177196276, 750.0057321835935 500.4249970754713" stroke="#000" stroke-width="1" fill="none"/></g><g><path d="M743.6535608364882 495.29651824141655 C810.3826903301643 495.70201017543053, 877.9915363836817 493.6041853304585, 954.5420510308703 492.6030740274312 M743.3040226811063 494.31936138418934 C805.896216391366 493.3249516587621, 867.6599764196734 493.2957036268571, 955.5405161031714 494.56176944627435 M956.4720115991031 492.6908166218209 C955.6471625234734 540.3476406276678, 953.6461544893755 583.9385847533492, 954.2159485966259 634.3880538944112 M955.7047881919701 493.270948170832 C954.9940550245453 536.4455357907267, 955.2763004133136 581.4216212469396, 955.8576746240179 636.9708527244421 M956.3241987511385 635.2803056100082 C878.1469661001478 635.2280946591142, 804.0483591305109 635.8986131974111, 744.2865421690489 636.1690107053512 M955.8199748394563 635.1961295139441 C896.9526081037078 634.9567079528904, 839.6930683279045 634.1424822417445, 743.9674747891727 635.4441318948782 M743.0268554877141 634.4523952485521 C742.778663330319 597.410279755016, 742.5025291525434 563.8729645371401, 743.9876755100543 494.2752046909824 M744.2172124471867 636.3817532333513 C742.7536503347295 602.1946909442379, 743.8408763409002 571.0169868261946, 743.505961921223 493.13290039919906" stroke="rgb(0, 0, 0)" stroke-width="1" fill="none"/></g><text text-anchor="middle" font-family="Consolas, Courier" font-size="20" fill="rgb(27, 14, 139)" x="850" y="590">"David is cool"</text><text fill="rgb(150, 100, 28)" text-anchor="middle" font-family="Consolas, Courier" font-size="20" x="780" y="530">id43</text><text fill="rgb(27, 14, 139)" text-anchor="middle" font-family="Consolas, Courier" font-size="20" x="920" y="530">str</text><g><path d="M748.9123848603031 500.65286511124015 C766.4337774555464 501.4334571322886, 783.8614215561 498.76388059339035, 809.741060811319 501.85800689125057 M749.8425668733314 499.12867816597446 C772.7421473399327 500.9399691226693, 793.9422147241738 501.07233234259246, 809.7427323246425 500.6730638372811 M810.0414587558486 500.56806339179275 C808.7036755004277 518.4781527223499, 811.8031904794359 532.450360046878, 811.7574463401402 549.9628942017935 M809.1828327790945 499.42193490565035 C810.1579915990126 510.9746650883252, 809.2860496487624 523.3848572802567, 810.7910609175125 549.8642356066957 M809.1596147688526 550.1244652631132 C791.9667388658419 551.4083730130683, 777.1596739103682 549.1031992901613, 750.7692411333985 550.7251335679458 M809.0308493380214 549.5148736705686 C796.2951437643221 551.2131627039141, 782.3086759016456 550.841457246586, 750.9760628892822 549.6553466388381 M751.8612531707879 550.2295739905637 C750.2904650512617 536.6507883262585, 750.7979184429481 524.1545050749935, 749.9756037064825 498.6349733717352 M749.6717546078407 549.7009402185558 C750.7741896608406 533.3201175500925, 748.8068060683406 514.6450192360609, 750.5385672092641 499.8591525479497" stroke="#000" stroke-width="1" fill="none"/></g><g><path d="M889.7920293263277 499.15673365097246 C909.151867146669 500.9642278982239, 925.7047219700422 501.02251180985945, 949.9084137472938 501.6827517393646 M890.4588210535214 500.80973288206144 C903.7294813596823 499.93160437669616, 917.5251036076221 499.35011803341854, 950.5052494734806 500.252899480758 M950.31738119296 498.3880681215067 C950.6808930955982 515.7417949931732, 950.8243128565132 531.3042668911806, 951.3157770069314 551.8224497636113 M949.5616266056604 499.62669404752114 C950.3086317808217 515.8765248857276, 950.9395308206726 530.9000754063459, 950.7708369051633 549.6365527743217 M948.7624011205888 550.5854746565691 C934.4048900837885 550.5311041072716, 915.2710367584865 549.495408760581, 890.4593092780837 548.891856633238 M949.9874336561348 549.7531054036606 C936.070921615167 550.5422029552691, 923.249532315489 549.7963430503721, 889.5541424485072 550.0123136871069 M891.345139412838 550.9736559804145 C889.8805698429635 531.6540292741736, 888.1098312147064 514.1462916170486, 891.668661462944 501.7518446028861 M890.9983809383348 550.7232215589122 C888.6567211416909 539.9565417926304, 890.5956635429724 528.8080515278749, 889.3848181159299 499.5654136225714" stroke="#000" stroke-width="1" fill="none"/></g><g><path d="M1051.087173779956 40.048999938498255 C1108.3207545711327 40.65819200469219, 1169.007127415028 41.15643015404072, 1248.7627035812106 38.40405077382983 M1049.306122041882 39.56766144599709 C1123.4704316445536 39.948158413521654, 1197.089618876903 41.26577910527266, 1249.6877968169756 39.8172942657534 M1248.1340005372172 41.96978723971877 C1248.8797730461351 77.03290363368971, 1251.1906379582488 113.30472107545658, 1249.258661268504 171.49201706212952 M1250.9720929214586 40.53062854449413 C1250.2674575691315 81.95234214862114, 1249.3486070430597 123.44226550076081, 1250.5706186633645 170.1025587870282 M1249.3246045054989 169.219299678101 C1182.397403876997 172.11887777123255, 1118.7512705093977 172.42924084647157, 1049.9069434847272 170.2592768127257 M1249.9414403747132 169.41617148494214 C1202.6158545405606 168.5861922995885, 1155.3617726834752 169.32745799254826, 1050.257861931248 170.86616383609208 M1049.1685839689358 170.6398285403461 C1051.3510554197414 136.49986844253593, 1050.726136953568 103.28359375416683, 1051.9069086314948 38.50486092468812 M1050.820621604161 170.26617847646818 C1050.079884316355 124.07054612603915, 1050.1753726676473 77.96999496460063, 1049.601322972469 40.90094837937472" stroke="#000" stroke-width="1" fill="none"/></g><g><path d="M1044.4901250174853 33.44337967518043 C1086.2778224808092 31.978013966151565, 1130.8844594596078 32.82900154205083, 1257.606751044073 34.64121758022865 M1043.3404501129685 33.20606300841422 C1116.0419465548453 33.92570942806403, 1186.267316486823 34.247046707260196, 1256.7789451468304 33.15980896279861 M1254.6421697325684 32.13437984273461 C1254.4299479082815 73.43636522951327, 1254.7944636952188 114.66884760657224, 1255.653887934584 176.5758776611043 M1256.1166094047542 33.31010174340631 C1256.7638671728223 75.2447925630786, 1256.6002069387537 115.08641780630266, 1256.228845200909 175.62180011397874 M1256.7524334024624 176.72571368945512 C1181.2863897242166 175.76607477671587, 1107.0333576116557 175.78758119327983, 1042.543825456672 175.7510567324976 M1255.3200071955282 176.41002953743043 C1172.9895995920476 177.6484165418292, 1089.0926671573511 178.11244455724443, 1044.3623582471976 176.78934847235553 M1045.348283999901 175.8574187144981 C1043.3726178533195 130.4452237046948, 1044.7030360310382 88.42878695614971, 1042.3220519516394 33.37512216411123 M1043.333738247761 176.41386837478169 C1043.7645787832 141.0273929118331, 1043.2229091601705 107.95847820333468, 1044.3602213048748 33.58104693261001" stroke="rgb(0, 0, 0)" stroke-width="1" fill="none"/></g><g><path d="M1075.334504143095 103.52175729762963 C1094.6857591690834 102.6356539465147, 1115.9371496566982 105.30939315781183, 1134.030176395139 106.05294498900273 M1075.9719994692455 104.3249264801204 C1092.3264733600658 104.58912428964267, 1109.7174308616698 104.82545502339073, 1132.717189257257 105.06996902134345 M1131.1786308119824 104.13775964994147 C1131.2925706267558 114.89316806177001, 1131.386218609715 127.38091661993717, 1131.2970619174685 155.6960775666511 M1133.6146476729273 104.9204702132665 C1133.476968816866 117.00901319978395, 1132.9494482018754 128.35194331813761, 1132.5936770582935 155.646105219817 M1134.7861593487175 156.39826818558709 C1113.8404556469188 155.83743297636474, 1096.9057835277804 153.2192321032294, 1074.7446086141845 156.61912568127062 M1132.7572296284281 154.24844262544673 C1113.4316298545173 155.1369269363743, 1093.8281155407253 155.65458580025168, 1074.6307529770208 155.92312154429584 M1073.282547461948 153.7926946264318 C1073.5366289208068 138.7662319607369, 1073.042146962775 122.74962480751316, 1076.2850663998784 105.65866622245949 M1074.1487611426983 154.39061412002775 C1075.3122482215088 145.2956176709192, 1075.2886442083839 134.88556713887897, 1075.8812631342705 104.742380696689" stroke="rgb(0, 0, 0)" stroke-width="1" fill="none"/></g><text text-anchor="middle" font-family="Consolas, Courier" font-size="20" fill="rgb(150, 100, 28)" x="1104" y="135">id82</text><g><path d="M1134.3808614310417 105.38044390540476 C1146.3714511869787 105.49684255425072, 1162.5126740148353 103.90880328624824, 1190.9115786349064 106.84808294357767 M1132.2265311405763 105.69421453386998 C1149.057054694387 104.97269328054611, 1163.9100023522633 104.73808588799356, 1191.4650096923804 105.21260958649191 M1191.7283035902014 106.39603590736256 C1190.2784302066732 115.04633073627693, 1190.9364872610622 128.12947704048298, 1190.7202540674757 156.46337798898998 M1190.6216563909377 105.98830843388203 C1191.3761936185936 124.66823781413869, 1189.7506504912922 143.17130845551216, 1191.118401950436 155.98804811703374 M1189.8251082323138 155.94176660039062 C1176.644697224663 156.31968029770707, 1162.9633999803764 156.61069036966435, 1133.6835035299762 154.34936763269866 M1190.4821234148187 154.69942682861176 C1178.4798710649736 154.43473476949856, 1167.8650944033304 155.97090406882802, 1133.8289829941325 154.4332008610179 M1132.2032510502597 155.27134663941933 C1132.09947127168 139.51984933082989, 1134.4295916359813 120.70328222980022, 1131.70377823379 104.07190578460305 M1132.8134536520079 154.11042891873998 C1132.2524287776857 141.67895811494932, 1133.2160448650327 127.71807156819622, 1132.2777666619932 104.17934235961032" stroke="rgb(0, 0, 0)" stroke-width="1" fill="none"/></g><text text-anchor="middle" font-family="Consolas, Courier" font-size="20" fill="rgb(150, 100, 28)" x="1162" y="135">id76</text><text fill="rgb(150, 100, 28)" text-anchor="middle" font-family="Consolas, Courier" font-size="20" x="1080" y="70">id11</text><text fill="rgb(27, 14, 139)" text-anchor="middle" font-family="Consolas, Courier" font-size="20" x="1215" y="70">tuple</text><g><path d="M1048.3255820469574 41.396406625128506 C1072.0990054103966 41.95425556060123, 1098.0736227025739 39.02672661028563, 1110.795323558662 38.97280341911981 M1049.8660653291308 39.08919271352416 C1067.8493111973476 40.4935922560311, 1086.4714793875187 39.44177417631358, 1110.2481322804344 39.59878081330539 M1111.270251549152 41.505321135346065 C1110.3934618873866 53.5334850318698, 1108.4867063804993 64.42714614374036, 1110.6232415145018 91.54458856265083 M1110.1974000359141 39.11828422374402 C1109.4717625068631 50.28705629312389, 1110.068950833214 61.00058356501355, 1109.7065561099812 89.85468026638516 M1111.1741192600007 88.60478087180374 C1087.3741573955306 89.55262443827061, 1061.6128683474803 88.63915625547034, 1051.6184753341845 89.07423759584943 M1109.8887505633002 89.03466775256636 C1094.2501015079104 89.37083098200029, 1079.5513071659923 90.76145129943552, 1050.015309368703 90.36435063498139 M1048.794507379499 91.79963410900389 C1052.3617186277781 70.53550249558184, 1051.895542081619 55.01797475861457, 1051.851117292547 39.22278727460044 M1050.2250333392556 90.50289682627678 C1049.3980639231818 75.9719307452688, 1049.9715015595316 62.312896057379135, 1049.8044912510552 39.45109470063698" stroke="#000" stroke-width="1" fill="none"/></g><g><path d="M1181.877724644305 38.90922007616669 C1198.406133282193 38.5808682853808, 1214.1640569251613 41.53722345306519, 1249.0559804511308 41.56605648057084 M1179.9069680722687 39.394807614879795 C1195.3143482727148 40.28630501249409, 1211.793179636382 39.95319971632012, 1249.530707627293 40.409005070854874 M1251.4054176003763 40.33402408592195 C1248.0445266025386 57.14720148789318, 1250.288865845856 75.67644301565315, 1248.718018938712 88.96687959020294 M1250.8939617977633 40.66042498942863 C1250.8995531833054 50.30734064068473, 1250.6837463166269 59.781949758510585, 1249.434577658405 89.93596491741906 M1249.6051305347048 90.7029037667859 C1228.4620795380702 90.95171484991386, 1206.1110284786532 89.08010247472347, 1179.5754562588806 88.05447448995494 M1250.0249430277465 89.02382749854966 C1226.2198541621879 89.28634231245992, 1203.4172075668353 90.56213422963681, 1179.0512910803127 89.70261327916636 M1180.6034084604903 89.34534888549722 C1178.5831648681985 77.31477366817113, 1178.6208046876416 64.43437347301163, 1178.2498146416208 39.01571896091492 M1179.9159134209024 90.98920466688705 C1180.3736567062067 79.79094522039114, 1178.7888746271406 68.89374505321327, 1180.552345363572 40.08961006182939" stroke="#000" stroke-width="1" fill="none"/></g><g><path d="M1051.5505700322462 258.5413541908069 C1144.7744625732216 260.60050525495643, 1240.6357949015126 258.3934360355709, 1297.3901109220903 261.4567877899865 M1050.5672748941256 259.97581981744355 C1113.5352143122718 258.0873400161073, 1175.7386317835142 258.23039917076414, 1298.488484568955 259.25423512137945 M1298.7791701540189 261.3215329683856 C1300.1132782204973 301.1272213373858, 1298.611159439156 341.28191182656064, 1297.6672452934008 390.3944821974883 M1298.9731468070404 260.7833507632568 C1299.4907778781205 290.9136548897551, 1299.3768007559586 321.43383169756305, 1299.5651199573624 389.5741632654298 M1300.3696645886282 389.0668959735572 C1205.702432350139 388.2935266019915, 1114.2274854618113 388.91745831055147, 1050.9867465792777 388.49442801313194 M1298.4226263782837 389.424087514389 C1243.0773160429692 392.0227337401961, 1188.1265557912252 391.3320810643727, 1049.2917787998363 390.12575260303953 M1050.1321526185093 390.65476700535413 C1049.5226860202558 342.69302755011825, 1048.5366288444754 290.8154863731358, 1048.7638683626672 261.9971499416515 M1050.9709557251415 389.9593049241095 C1049.8295236169456 353.6885532062161, 1051.0946955022716 316.94523976803583, 1049.921581140749 260.8530252341854" stroke="#000" stroke-width="1" fill="none"/></g><g><path d="M1076.0734561271502 323.5532131484515 C1095.3716959482624 323.5216263597069, 1118.4893489329622 324.47169488848795, 1134.3099469105323 325.44964799917886 M1075.169068024707 324.612828570114 C1094.5679827352428 324.4325814983785, 1115.0654877716972 324.9453298542728, 1132.9495122019605 325.83971307850544 M1133.9972830162333 326.1172400691079 C1133.250071890889 343.8894106623914, 1135.1307991833746 362.72280609018924, 1133.118883497005 374.40585683119093 M1132.3500916005703 325.3601481488173 C1134.1803899334595 336.909356198054, 1134.017156310714 348.28874073202866, 1132.5145436470937 374.52280687495613 M1133.3159757219753 373.2950394863365 C1112.2785580101906 374.1317350652195, 1094.3322963292137 376.49675038873244, 1073.9004052334606 376.06136417601596 M1133.6468201500322 374.97203281638804 C1112.1270642687498 375.4217077116416, 1091.7711319899784 375.22161675956147, 1074.6399766744848 375.35297594957535 M1073.526408188254 376.6189711764439 C1075.3684689486252 355.4105293384773, 1076.771908395393 337.7805156426226, 1076.4883393661685 326.133093759211 M1074.557773414731 375.7106593095544 C1073.8066921451943 359.89893278776907, 1075.5517159554295 347.0516255902823, 1075.4622649068867 324.4430297216061" stroke="rgb(0, 0, 0)" stroke-width="1" fill="none"/></g><text text-anchor="middle" font-family="Consolas, Courier" font-size="20" fill="rgb(150, 100, 28)" x="1104" y="355">id36</text><g><path d="M1146.9814949869103 326.1789951977475 C1168.7645395917446 324.12915297999166, 1191.1917797093172 324.648559994784, 1202.2071580141924 324.39001184988655 M1145.6941209362133 325.64120523537287 C1161.2652757345886 324.1377200590238, 1178.9442728484403 325.0230278209653, 1203.5529162190608 325.67354605894667 M1201.881982804702 325.8128443460976 C1205.0463717839054 342.9398871046423, 1204.2910818906364 358.38451625545304, 1205.445223885045 374.47802551947086 M1202.7736761963138 324.9809690376511 C1203.3193924405193 337.6623028935472, 1203.145926972573 351.38764270276744, 1203.5067266101714 374.8388375244645 M1205.0876566618078 376.21770791542656 C1184.2740419690624 375.25155166982836, 1168.6873992335256 376.2072438236588, 1144.5255510210789 373.3642449007401 M1202.731647220738 374.6100044287129 C1190.2477031475466 375.63713651192654, 1177.9256722374978 375.01182126783664, 1145.6078674768175 374.17996907969064 M1145.3224580946414 373.25724860356803 C1145.3153485106084 359.55772881963475, 1146.8889226908582 344.1903420451798, 1145.870130218673 325.4945384173002 M1146.008279067833 374.7902853281568 C1145.186056197326 358.49666784380526, 1145.9544775350528 341.2177891708643, 1145.9813275484028 325.8794029545614" stroke="rgb(0, 0, 0)" stroke-width="1" fill="none"/></g><text text-anchor="middle" font-family="Consolas, Courier" font-size="20" fill="rgb(150, 100, 28)" x="1174.5" y="355">id49</text><text fill="rgb(0, 0, 0)" text-anchor="middle" font-family="Consolas, Courier" font-size="20" x="1139.25" y="355">,</text><g><path d="M1216.2394181129957 324.51228426804045 C1240.7698712191464 325.3558889019427, 1260.7341510638635 323.8765503375583, 1275.7991779265087 324.7152784013251 M1215.4596202153434 325.9123149526386 C1238.3167334862812 324.0315217022207, 1260.0979018679195 325.05330525478803, 1273.1208441565257 324.9091627491402 M1272.1109000600425 324.64846416296535 C1275.5562367181365 339.22275707778175, 1273.8209786367847 351.90822576701504, 1275.8351605432306 373.19432686132114 M1273.8884186028622 325.92454326144775 C1274.470928119237 341.18099577984674, 1273.522449168053 356.2563376904942, 1274.9464617463263 375.16315596616494 M1275.6647936001104 376.89712320912327 C1261.015105136409 376.3417588948657, 1247.970492627209 373.96761167301565, 1216.1330952540848 376.2525369720963 M1273.0507087210194 375.1121061857985 C1261.1231335719062 375.29788299600983, 1249.010241542794 375.7067888554299, 1215.8324389684856 375.3220745064265 M1214.2213713384974 373.60012808914405 C1215.1449292982074 357.3463928854816, 1216.6025972423215 337.80929277305034, 1215.2310998531657 326.5012444654352 M1216.0509263812155 374.44848781754865 C1216.358987195116 360.7047806089259, 1216.071700908633 348.0351462438772, 1216.621827371142 325.37681439456543" stroke="rgb(0, 0, 0)" stroke-width="1" fill="none"/></g><text text-anchor="middle" font-family="Consolas, Courier" font-size="20" fill="rgb(150, 100, 28)" x="1245" y="355">id64</text><text fill="rgb(0, 0, 0)" text-anchor="middle" font-family="Consolas, Courier" font-size="20" x="1209.75" y="355">,</text><text fill="rgb(150, 100, 28)" text-anchor="middle" font-family="Consolas, Courier" font-size="20" x="1080" y="290">id90</text><text fill="rgb(27, 14, 139)" text-anchor="middle" font-family="Consolas, Courier" font-size="20" x="1269" y="290">set</text><g><path d="M1050.747991431312 258.2844056213057 C1071.7938846575746 258.14873073948326, 1093.578599066864 261.10357456157254, 1109.2353957589933 261.9666297177301 M1050.1920646908475 260.37879374248666 C1066.9336235306796 259.87388756977106, 1085.505271980408 260.5141676787765, 1109.5424874603634 259.8229853506749 M1109.367683777498 258.30947380995855 C1108.425128297299 278.8286397601991, 1111.015775460442 296.04241038058194, 1110.0880366483584 309.8975880375679 M1110.9637147137523 260.7020251681606 C1110.824351886844 270.234374444245, 1109.070075518 280.40352918520637, 1109.9621192839008 309.7645828054317 M1109.9395219302694 311.27778331929767 C1091.6294417738422 310.5399319763977, 1070.111914459766 311.2493443770703, 1049.759019681333 309.0760659670082 M1110.989026198131 310.1213754747896 C1094.5598654872701 310.3791108984014, 1077.8389752433814 310.18899559735706, 1050.4013959799636 310.90677598298026 M1048.0469520164427 311.5787059234204 C1049.6299781809987 300.57708277017275, 1049.6187715949716 288.6591479867601, 1050.939307498504 258.71628136853366 M1050.068705538727 310.9489594453354 C1049.1426975006145 293.090305388469, 1049.8624035793748 273.72158626789786, 1049.6529533964929 260.74488037456075" stroke="#000" stroke-width="1" fill="none"/></g><g><path d="M1238.9548871805946 259.2314544148258 C1259.8771172020101 259.76314619191163, 1276.9961403755844 262.31241982123504, 1298.593307072001 259.02577489040846 M1238.533044628564 259.80374944640937 C1255.018311510815 260.79565873138694, 1270.9309559457345 259.7732247343429, 1299.233893516614 259.89292516345785 M1300.9760701130108 259.4295356083776 C1298.837936371006 272.46246599739095, 1298.4666802958748 286.62751852560984, 1297.6638507362277 311.50797764802064 M1298.366849217744 260.35035007843896 C1298.6357969210712 278.5463652082083, 1297.8227686825428 298.0440795354766, 1299.9862708336157 309.17584101449467 M1297.8897950750097 309.8076161494099 C1284.7277639811684 311.56176140671926, 1271.922857983601 310.55606011761176, 1238.7477531244294 311.0174008403565 M1298.0207950343201 309.71334248742465 C1281.8381558838605 310.20036551416626, 1264.3062800414048 310.01779069352204, 1238.7332356149552 309.47386120341855 M1240.1457322275428 310.2891058894413 C1239.5363910269712 298.18495785868123, 1240.007566513053 284.62352024821007, 1239.4779771057351 260.44831129149685 M1238.3626208191401 309.45006090792265 C1238.0651424475063 293.93923106115005, 1239.0237020011264 276.96131638774426, 1239.4041146477691 260.41813553939954" stroke="#000" stroke-width="1" fill="none"/></g><text fill="rgb(0, 0, 0)" text-anchor="middle" font-family="Consolas, Courier" font-size="20" x="1062.5" y="355">{</text><text fill="rgb(0, 0, 0)" text-anchor="middle" font-family="Consolas, Courier" font-size="20" x="1286.5" y="355">}</text><g><path d="M1075.1673179554664 574.2237665618518 C1095.910727624654 573.272647176134, 1116.4834626259726 573.9145872455185, 1124.8037794886943 576.871010210295 M1075.6129662318838 574.4385522784419 C1086.3859351827466 575.5737988876905, 1096.1789260720682 574.769840170629, 1124.5646567548652 575.6904937673047 M1125.4820741525969 575.7704024292649 C1125.6025412025488 589.8879884527772, 1123.0660857620796 606.475170552693, 1125.3808894600656 626.1822275482092 M1125.9923936942996 574.8508313092268 C1125.1115707292631 593.0805844297561, 1125.5620580366276 609.1702985979609, 1125.1687589348908 624.2419225935168 M1123.962674705402 624.8387598450155 C1114.3303091099087 626.6774426890254, 1102.4751936360378 623.9026555282533, 1073.0802256829904 624.2779180929018 M1124.8513893019967 625.9913402589655 C1107.5113814279016 626.3906985269494, 1090.8614157683603 625.0854056193335, 1074.5206875181316 625.394310204302 M1074.8462525930458 623.6199239939976 C1075.84705690938 606.7731336970901, 1075.0779610998482 586.3613311595465, 1074.1673383866346 575.4529442869706 M1075.846910219245 624.7127908912422 C1075.8387577470246 608.825444387801, 1075.145492557719 591.8084576944966, 1074.1531033269491 574.7026905699989" stroke="rgb(0, 0, 0)" stroke-width="1" fill="none"/></g><text text-anchor="middle" font-family="Consolas, Courier" font-size="20" fill="rgb(150, 100, 28)" x="1102" y="605">idx</text><g><path d="M1075.020339164157 648.241092384189 C1094.2942169176913 648.1740538767235, 1109.4834648815972 651.254745227286, 1123.964106514351 650.891555516846 M1074.4601044026779 649.7207478795509 C1088.1220392690377 649.6412174997926, 1100.8414050000097 649.3806014715321, 1125.455310685451 650.0355468748427 M1125.7082394850443 648.7456578145247 C1125.9496979918647 661.91732044605, 1123.7364636746274 676.900679073377, 1125.8240954708426 701.0282420899193 M1125.6879870554114 650.8072021943926 C1124.1639373887162 669.0259972081041, 1125.687440733714 687.4912490911614, 1124.8831637688857 700.7376743271999 M1123.9588294826178 700.5563977094589 C1106.804376789219 700.043650944162, 1084.8100970203586 698.4232770365657, 1076.9316587067815 699.4973528744717 M1125.267736552764 699.3587392869214 C1110.3957454292686 699.5667701489363, 1093.9530318740692 699.0550800576045, 1075.7137366419283 699.1277432181735 M1076.057417248764 698.1194266739252 C1074.6208754720105 689.0961563968502, 1073.6166654620013 676.3480832302824, 1075.3459802400498 649.9803801862683 M1074.63021687304 700.0061904950579 C1075.4168531881523 681.0570021827198, 1075.877768750775 664.316380472532, 1074.1158450268467 649.3367182066559" stroke="rgb(0, 0, 0)" stroke-width="1" fill="none"/></g><text text-anchor="middle" font-family="Consolas, Courier" font-size="20" fill="rgb(150, 100, 28)" x="1102" y="680">idy</text><g><path d="M1073.1655263405453 725.8599724445141 C1096.3785490928608 723.8047674632693, 1113.036881063037 725.2301462945409, 1125.803745306151 725.1710017826141 M1075.6481475726468 724.3525457656631 C1090.8239869684605 723.6341901753382, 1106.6047550419512 723.7360504713772, 1125.0111430347413 724.9377350722704 M1124.4237234571606 724.3459860473642 C1126.2996373159622 740.1149009481825, 1126.4927027738668 757.6604963385669, 1126.1988676522967 776.2413523759176 M1125.2560186984674 724.6523349712779 C1124.0906367946664 737.3229930653928, 1125.7043797321091 749.2917429021878, 1124.9843701872953 774.3350152971839 M1126.1454811168392 773.8662548016445 C1107.3178746404033 772.5776365686553, 1086.7555013643014 773.3292031616975, 1076.1885030537983 774.9830134040963 M1125.1101530116518 774.1329771851562 C1105.7921032489064 775.1519719480018, 1085.1102780548606 775.6195908143301, 1074.4066586250156 774.9790453235228 M1073.6119959524049 776.1529112131414 C1075.6115390662835 760.6295453462543, 1075.8753908198028 745.2857681495323, 1074.1403191611837 725.538667004096 M1074.1263391457217 774.932628280341 C1075.152962178833 756.7823361194403, 1075.0011930654787 741.2954546436627, 1075.6256195085227 725.3679367499401" stroke="rgb(0, 0, 0)" stroke-width="1" fill="none"/></g><text text-anchor="middle" font-family="Consolas, Courier" font-size="20" fill="rgb(150, 100, 28)" x="1102" y="755">idz</text><text fill="rgb(0, 0, 0)" x="1156" y="605" text-anchor="middle" font-family="Consolas, Courier" font-size="20">:</text><g><path d="M1177.7210594601715 573.7012757527456 C1193.1368534972487 574.6512976552657, 1208.8027659794902 574.2898193732282, 1237.80454992501 573.5248636732003 M1175.781329503323 574.0125674599702 C1199.5556199406149 575.4926325261499, 1222.9651907936718 574.8773544128862, 1236.593975594572 575.7673839413179 M1237.7519115958964 573.4234211739006 C1235.8654869578709 586.1163315323417, 1234.0227728442524 596.9106712370807, 1234.88565362002 626.346405786718 M1235.2763886852738 574.5867206875579 C1236.58771290223 590.5669928049692, 1237.0092848097947 605.989202589519, 1236.7022598368956 625.4430550300665 M1235.925925553754 626.5341497628715 C1216.028079637365 625.6935696766556, 1191.7825948241532 626.0870216539025, 1175.564139819984 626.8382998266068 M1236.398779280002 625.9601874142195 C1222.1744513857673 625.7685399126736, 1210.0792461726255 625.9363222005509, 1175.7481683255319 624.5298287798244 M1175.6478883355903 624.2657937546774 C1175.995221079264 609.5131941486286, 1175.9002861930944 591.934932502681, 1177.6339173777067 573.0291035379757 M1175.9838248658382 625.7600296152307 C1177.152167085165 605.8176310976572, 1175.7159722369615 587.2852014058508, 1175.3445548600341 575.8071522714159" stroke="rgb(0, 0, 0)" stroke-width="1" fill="none"/></g><text text-anchor="middle" font-family="Consolas, Courier" font-size="20" fill="rgb(150, 100, 28)" x="1206" y="605">id81</text><text fill="rgb(0, 0, 0)" x="1156" y="680" text-anchor="middle" font-family="Consolas, Courier" font-size="20">:</text><g><path d="M1177.8365169948695 649.320944556862 C1197.5064919047172 649.5025257269455, 1215.6195826397372 652.1058478748245, 1246.1683944807808 650.5591165112929 M1175.0558888535863 649.7331629645412 C1193.9756856489087 650.3873543383766, 1213.0239435918375 650.8256676756918, 1247.9691740677913 649.9780093548161 M1249.3605105932027 649.8250191915105 C1247.2122442498235 666.1797562268571, 1246.80220598604 684.869914557427, 1249.5246052271025 701.1679789908727 M1247.6504557643643 649.3710498905172 C1247.6283417290601 667.266175917254, 1247.3561630899214 682.703536679023, 1248.5306308241557 700.5126498627067 M1248.3195864655904 700.8418871739095 C1227.3071175029145 699.9219765046512, 1202.4726848346975 699.8625835608891, 1177.1401360658206 698.2051075448084 M1247.2511299654934 699.3835944883512 C1227.159605834217 699.7899882232988, 1208.8415830931883 701.6181008327529, 1175.1577342077062 699.852107884364 M1177.71319862144 699.034245521959 C1176.116534130224 690.9785116469387, 1174.6084932499707 678.379678562254, 1177.9762457044449 651.9930827227773 M1175.7744174567204 700.4255593178775 C1176.5172361643984 681.0557183380048, 1175.729321715154 659.4845835664256, 1176.9232501137408 650.0871685424763" stroke="rgb(0, 0, 0)" stroke-width="1" fill="none"/></g><text text-anchor="middle" font-family="Consolas, Courier" font-size="20" fill="rgb(150, 100, 28)" x="1212" y="680">id100</text><text fill="rgb(0, 0, 0)" x="1156" y="755" text-anchor="middle" font-family="Consolas, Courier" font-size="20">:</text><g><path d="M1174.0788972925823 726.8604180028095 C1202.191499971603 723.8147960188078, 1230.9072301180706 726.0863181000797, 1247.1080846508332 724.1636556969396 M1175.959582336953 725.9437718265114 C1199.4239407179064 725.6095008013468, 1223.143572219558 724.2089197676491, 1247.518778381812 724.075025145391 M1246.9089884147563 725.8785760615272 C1248.5069419397275 743.3109080503261, 1248.507068816211 763.3826095100728, 1248.3578215614677 774.301336709597 M1247.69774399775 724.6794918556169 C1248.5046268402816 735.363360377059, 1248.3894014298648 746.3742618811392, 1247.0083595093677 774.8982896604748 M1247.5966409569571 776.8571668197999 C1234.5063381052923 775.3806231035395, 1218.0116641967657 773.1551087546737, 1177.1459869048667 774.3424613958501 M1248.5385372812843 774.485784406793 C1230.3924412430747 775.6109936793418, 1212.6515049587454 775.5083414643441, 1175.8244450119985 774.009564600378 M1175.7184959980384 775.3245754904516 C1174.160673875069 759.5579527058292, 1174.754315435051 740.2483748593609, 1176.0400485617424 723.9306829465529 M1176.276242198493 775.7274076610786 C1176.155055247389 763.8650993435735, 1175.9493261991358 752.5382917031667, 1175.9773806061066 724.4865681599925" stroke="rgb(0, 0, 0)" stroke-width="1" fill="none"/></g><text text-anchor="middle" font-family="Consolas, Courier" font-size="20" fill="rgb(150, 100, 28)" x="1212" y="755">id121</text><g><path d="M1048.478155763242 498.3872258812809 C1107.0167950624184 499.41961027633306, 1167.5083580150088 501.3969650149151, 1262.9178746229843 501.717983580269 M1050.5348207224627 499.60851466910026 C1092.7404797555116 501.35136203395007, 1136.4995243450624 500.5191082069893, 1261.149790370531 500.6049100872475 M1260.5575723555978 499.8511364202432 C1258.9678799048688 614.1600074126851, 1260.9844618442366 727.345802229688, 1263.052024151417 801.1667454480786 M1262.1543765583153 500.1361549312337 C1263.091351556296 597.3675797308388, 1263.82266850847 695.637265201146, 1262.3256828611427 799.3000033272692 M1261.6174149131507 798.4679947337629 C1211.3609893640867 799.4970657826296, 1156.537018484459 799.6907405964886, 1048.8930488134295 800.6147218495606 M1261.900860173833 800.3550625455039 C1201.8820698134055 798.5947264546171, 1141.3861261513664 799.2496783102717, 1049.1404185522126 799.92625867471 M1051.1698421295034 798.5346545674231 C1052.4447994332104 705.8670858345118, 1052.0534126116852 610.3333420596654, 1050.131490044737 500.7051787725277 M1050.677044142379 800.5342459016649 C1049.8917015437921 719.2086268924818, 1049.8080194434322 639.2004211504579, 1049.3712046506944 500.71684821492795" stroke="#000" stroke-width="1" fill="none"/></g><text fill="rgb(150, 100, 28)" text-anchor="middle" font-family="Consolas, Courier" font-size="20" x="1080" y="530">id10</text><text fill="rgb(27, 14, 139)" text-anchor="middle" font-family="Consolas, Courier" font-size="20" x="1232" y="530">dict</text><g><path d="M1051.2385436979773 500.50659952522705 C1069.6835319137967 498.6271781467004, 1090.4802337040442 500.8207311244404, 1108.0080845762225 500.2664219004381 M1050.615358079637 499.2382742843491 C1072.7147754208909 499.5211598913737, 1095.6795876937551 500.5424169814145, 1110.0581048947104 500.9668285805977 M1110.0096132322947 501.05693637215205 C1111.6244928717922 517.6001201357253, 1111.1096399900598 533.3623277509914, 1110.7437154529407 551.8947577656007 M1110.039316594443 500.869992958973 C1110.7110409613265 518.185912486822, 1109.5501514814348 535.583090039566, 1110.811025447088 550.4222282818604 M1110.6244370426002 550.9354097840181 C1091.8094888078472 548.4705673157292, 1073.6427813151925 548.5477211929424, 1049.515367399737 549.4191370333849 M1109.8589653460258 550.8513945935285 C1088.2257161442576 549.7817179248027, 1066.9484186816262 549.1258042712166, 1049.9538161960638 550.4598526879739 M1050.5859988365162 551.5956770117833 C1051.2474843699956 538.6193781794285, 1049.016673259447 527.4840125433037, 1049.3441253775975 500.5303824679195 M1050.0417890358196 549.8211839832582 C1049.185813531207 534.1176175383506, 1049.5655169857664 516.6164575043281, 1050.2107736158478 499.98894680619355" stroke="#000" stroke-width="1" fill="none"/></g><g><path d="M1203.5319841545545 499.76213010481683 C1218.6175576483463 502.13600554154993, 1238.744825452347 498.58075789638735, 1263.8710823330114 500.3004834447879 M1201.8864266841258 500.4259810512769 C1214.4960612378327 498.7937191565427, 1226.2833236136312 499.648576365467, 1262.3901125384882 499.49330996422054 M1260.5748202801358 501.50320207185723 C1261.53499511665 518.829906666867, 1260.4155656843616 540.419215666682, 1260.2366427865895 549.0463073356765 M1262.4430987149708 500.34798748704725 C1260.9448048943852 516.1792572871014, 1261.4733547892122 532.8026672851714, 1261.062698180275 550.2817143945757 M1261.632712793311 548.1509679110744 C1245.6972592199754 549.1608362882786, 1232.655988365998 549.677891896446, 1201.1515621591332 549.837067323035 M1262.0879247859539 549.6994920156947 C1239.217005091911 550.0419643655416, 1217.6401008454982 550.7079412402348, 1202.1847896511208 549.7812817129296 M1203.214225139979 548.5902705608479 C1200.8372434179878 534.6808771675833, 1202.4574726266428 522.0123440844178, 1200.282009765279 501.2999396928273 M1202.6101226066314 550.7187682415034 C1201.0540693876244 537.2547839957745, 1202.5246948457254 523.6497549221808, 1201.6749774831742 500.3950978604787" stroke="#000" stroke-width="1" fill="none"/></g><g><path d="M750.405660129077 749.0107560047434 C815.2604716604428 748.5400657465599, 885.2080538229335 748.9545652502138, 951.4549778654674 750.9527536535762 M749.2532262298092 749.7034832413138 C797.1131694908538 749.2258908158034, 843.9372450237502 750.5360078786388, 949.4392254203749 750.2399474301857 M950.2972253483742 748.252216507796 C951.4180610647006 784.8124298591438, 950.1102295487232 821.4233473735426, 948.3078743357823 880.9061321090023 M950.4696890019333 749.7448537433957 C949.2720921437646 778.0483001938588, 949.149336621394 806.3495176891064, 950.921294857933 879.9167876940561 M950.6069626014106 880.4119933366036 C891.9554413595537 883.1142733204291, 829.4368456346882 882.2130558796999, 751.4921620517174 879.0061837736786 M950.0986967153368 879.8830235359246 C905.4314075880689 880.6660922403466, 859.6552036312477 880.8644466043831, 750.1749795417041 880.370344174461 M748.5985087572676 880.7352549703819 C749.6863778867148 849.7899293601552, 751.0175609602913 818.4241351563854, 748.3258384641841 750.7927250987535 M750.3260303853199 880.718134558648 C748.8376659502824 845.5785619899666, 748.3860972191196 811.2658077533245, 749.8408753426246 749.1734558371965" stroke="#000" stroke-width="1" fill="none"/></g><g><path d="M742.5110749317479 744.0086407477795 C807.7082443649952 743.7644563036646, 870.1480351395646 746.6827528817155, 955.1380081332768 744.6705633862581 M744.2093512386342 744.7758203688927 C825.3472276142227 744.6296131413145, 906.8833132279851 745.7232158424931, 955.9205736470744 744.5173735470781 M954.6825925715409 742.0785446847308 C954.8113579591841 775.6549746292993, 956.1915483253546 807.983882313746, 955.8753943763553 885.5725616472974 M956.6994742298835 744.4619424618116 C955.7331793321393 794.1198834702808, 955.6180688134231 845.2425655271302, 955.7951040261237 885.6728068299852 M957.6133383271707 885.0741166720518 C893.7390067975331 884.531158747503, 831.5888558356189 883.3895316776371, 744.1904499140002 886.8122064849215 M955.3417169514282 886.763087821406 C909.4776108658448 884.3054346507776, 863.8271726234087 884.0968150600264, 744.6530367173925 886.5510192459598 M744.9843844250241 887.4468305570738 C742.449329264712 848.5275109221376, 744.1083019469161 805.4906349845012, 745.6493580298167 743.6711104220012 M743.843845925585 885.8028133872552 C745.3855923194727 841.5926841933679, 744.4819837452736 798.1928306615872, 744.2272477664409 743.3023400862556" stroke="rgb(0, 0, 0)" stroke-width="1" fill="none"/></g><text text-anchor="middle" font-family="Consolas, Courier" font-size="20" fill="rgb(27, 14, 139)" x="850" y="840">"None"</text><text fill="rgb(150, 100, 28)" text-anchor="middle" font-family="Consolas, Courier" font-size="20" x="780" y="780">id13</text><text fill="rgb(27, 14, 139)" text-anchor="middle" font-family="Consolas, Courier" font-size="20" x="920" y="780">None</text><g><path d="M751.4648764961029 751.4116657503807 C763.8568631790664 751.0882614176909, 778.5966697591325 749.0435811692826, 810.4906897648519 751.1566372395216 M750.649954214834 749.7566839457503 C762.3013045084158 750.0211175205252, 775.1546281486103 749.3838913253727, 810.4065852193459 750.9843381144691 M810.7571821836533 749.8300589421583 C810.9016705153393 769.6885104746277, 810.2635963301753 788.0289171847857, 808.160011484349 801.465729815552 M810.8758718451381 749.722283863305 C809.4117835309535 767.7509280769227, 810.1795052507389 786.2681144262101, 810.6485105830643 800.0024019712296 M810.1356786708193 799.6130355434861 C791.8842624214727 801.2554206968892, 770.5336391978759 800.8605131555614, 749.2875408468265 798.6316593752555 M809.9408703135562 800.8799570531929 C788.8516646195008 800.0587902247718, 768.8931821890685 800.343702736108, 749.093942373145 799.4994545807369 M748.5602763980334 799.6655659698014 C749.3603861349634 786.4834554798227, 751.2000073787088 775.2665307148048, 750.7593951764889 751.4576950540612 M749.1275159106377 799.6903845233593 C749.1728479468002 789.4704098578792, 749.9715792212628 778.0054363128072, 749.500150920458 750.0806112473975" stroke="#000" stroke-width="1" fill="none"/></g><g><path d="M888.6200712218612 748.4041391449623 C903.6714951066442 750.620141590375, 915.8277832959026 750.9826272529231, 951.9198063217791 751.3745907360915 M889.5580896761254 750.4916502891036 C907.5272027378018 750.3742350442552, 925.028022928576 750.5959526329567, 949.7319074811073 750.2939048684207 M948.9314753163857 749.6419051482845 C950.5255991270492 771.6431923090466, 948.6640256537595 788.7629974180245, 949.6876774380661 799.4613789941637 M949.5827047619609 749.4705792691946 C950.4072782882021 763.9133815230359, 949.5139809305947 776.9435545335722, 949.0374985919404 799.6252499750888 M950.5613324670064 798.0169598245415 C925.0992820951828 798.7295618079539, 902.3740579708812 799.7511348637424, 891.8308715220754 799.6842998608647 M949.6567765031533 799.2858916037347 C935.7093915722198 800.0836455532607, 921.2793016890627 799.9493954745516, 890.7324333715902 799.216900203381 M891.8262098746094 801.4412290214422 C890.9141396875705 781.8706785895395, 891.9087356488668 766.4267793778179, 889.6578607611566 749.5292985607556 M890.6599553048472 800.9244088863568 C890.3422048542723 784.0339759595403, 890.4549508777652 766.8289982252812, 889.4927874107387 749.2683929223072" stroke="#000" stroke-width="1" fill="none"/></g></svg>