<svg width="1362" height="900" xmlns="http://www.w3.org/2000/svg"><g><path d="M26.505580827911217 200.04961729383996 C91.92831935149844 202.1043856356707, 160.02294804253418 200.70379843882668, 223.99783610916947 201.25918102142433 M24.884559266309154 199.21135017992134 C89.2694771737965 200.28057035163926, 153.87284022512085 198.86711321370362, 223.65424032486106 200.8464842346877 M222.29758086993527 200.15715482236862 C222.56829944452045 376.07748280001744, 222.8620511027217 554.0000851639812, 223.29434621410113 649.9857461492282 M223.28797453243445 199.80850163834876 C221.96695856944925 352.5814312476254, 221.7692865276978 504.1331638368208, 222.54283338486513 650.313288394518 M223.96304432391088 650.3832932679 C178.60113534241856 649.1197961992212, 132.51619073293446 648.726538092733, 26.257298307655937 651.2169111063974 M222.75912565620663 649.6658465280028 C145.42306786790422 652.3422002809814, 69.02424767307564 650.8688812728577, 24.914159200875368 649.30673583316 M25.159912781780434 649.0572984167086 C24.239433603405853 526.9539326962206, 25.049631885104798 403.2897841820394, 24.71239592966057 199.23693490859426 M24.656800924659596 649.715661349003 C25.337687404835457 472.82697631560717, 25.666967473403734 296.14206406536107, 24.68415137678233 199.69282350535306" stroke="#000" stroke-width="1" fill="none"/></g><g><path d="M147.11392866336544 275.5064837950366 C168.4171993658912 273.632643840195, 187.0904073432408 275.7025807892069, 207.50196644642742 276.7973044939847 M148.76584941758864 275.81832508776864 C163.56218157290846 275.1958299261708, 178.8401670135996 274.79059649252133, 206.31932715511996 274.53152699935885 M206.40847197865247 273.2454935944512 C206.5980191503829 294.225017159023, 205.18131738159278 311.22460650033184, 206.60540913971525 323.57581514911027 M205.18637582681848 275.73165961604576 C207.39350427999258 289.20766566964284, 205.70526393386712 304.2108798027699, 205.53491360381202 324.3254004229603 M207.43183398998724 323.2649939595182 C185.1305069354597 323.46287614227003, 162.52326702955423 323.01556046415345, 148.13709471208873 326.60147494477366 M205.1111793999066 325.0791067298005 C188.14071485049357 323.9315432497481, 169.51030067904034 325.1683123653615, 147.97161400887234 324.1773277842478 M148.25209945291616 324.38221246296956 C150.24256157421158 305.0757045688779, 146.56530757830043 284.6907453428005, 147.03201301341613 276.0689248708071 M148.76650539976478 324.15901109733943 C148.97517612065633 310.71663385540546, 147.33152953476193 297.3982331747451, 147.37083570155391 274.67902419540883" stroke="rgb(0, 0, 0)" stroke-width="1" fill="none"/></g><text text-anchor="begin" font-family="Consolas, Courier" font-size="20" fill="rgb(0, 0, 0)" x="50" y="305">lst1</text><text fill="rgb(150, 100, 28)" text-anchor="middle" font-family="Consolas, Courier" font-size="20" x="177" y="305">id82</text><g><path d="M148.00284421703168 348.82313477537895 C161.293644679278 352.42355627664165, 178.20918518940238 351.5006974242134, 206.52113914160591 349.3189374371303 M148.79441838678798 349.0438316899018 C162.4138582120599 349.13026229138393, 176.51993641451153 350.6708120884731, 206.94831451361313 349.6146896868935 M207.79262349123687 349.8204611893398 C205.36854296381821 366.19685044190504, 204.23296602618208 385.1064227908357, 207.41184451301632 400.3896117407032 M205.65951248503225 350.5185916500677 C205.28046935475462 364.32301684746176, 204.72358051192168 376.7525471081344, 206.24006201043986 400.9929687750483 M206.6596640806186 400.90931474961326 C187.60294434345303 400.72423345243675, 167.33884000630442 401.20074010483006, 147.74499118142592 400.00799471843584 M206.7474729001994 400.3741029460245 C190.04997859787045 400.2970425950141, 174.80455891157828 399.96337309084043, 148.92772408609713 399.57814502913413 M146.07677191144657 399.0544359613283 C147.79761212111177 385.1651528983575, 149.52538043032845 374.19353580860746, 149.5156267940917 348.4949803453325 M148.3892799417717 399.4364977545262 C149.05608938194234 381.52343936752504, 149.25458231401868 363.12129562923093, 147.5807713613181 349.8783321915448" stroke="rgb(0, 0, 0)" stroke-width="1" fill="none"/></g><text text-anchor="begin" font-family="Consolas, Courier" font-size="20" fill="rgb(0, 0, 0)" x="50" y="380">lst2</text><text fill="rgb(150, 100, 28)" text-anchor="middle" font-family="Consolas, Courier" font-size="20" x="177" y="380">id84</text><g><path d="M148.44863417631544 425.0681623740365 C166.4002942720166 423.076720707055, 186.23810300408795 423.23097794608884, 205.28280110998807 426.51855257341225 M147.2454793032477 425.78411321183165 C164.84632748955784 424.6587960139811, 181.93940297717378 424.42912252690815, 205.7127702768943 424.660659886134 M205.71663239700285 424.341893462625 C204.57337159207472 445.6657701788486, 206.15009261204463 461.0108966493972, 204.58166867114403 475.85899093391413 M205.09774108579336 424.1345803348231 C205.18321479572273 442.8667089662082, 206.49091763606202 461.8452707212561, 206.83984261837804 474.69889353020443 M205.38289134780277 476.0601129428987 C188.65497309436608 476.003441127526, 172.71981697949312 473.00631567320806, 146.51246046168094 475.0309060372891 M206.2365353090636 475.9367030663721 C184.03291302031863 473.5558018563206, 163.3746018098583 473.83506322038886, 148.60419839964058 475.3747394841264 M148.55311031460778 476.33619729390654 C149.1381076003102 459.69158353600307, 146.477298428609 442.6029511071888, 147.0029988535568 424.3403007055466 M148.6047019066967 475.54920668830044 C148.43686663405438 460.49979420266595, 148.089838492283 447.2999988522692, 148.45947685456278 424.48465443212126" stroke="rgb(0, 0, 0)" stroke-width="1" fill="none"/></g><text text-anchor="begin" font-family="Consolas, Courier" font-size="20" fill="rgb(0, 0, 0)" x="50" y="455">p</text><text fill="rgb(150, 100, 28)" text-anchor="middle" font-family="Consolas, Courier" font-size="20" x="177" y="455">id99</text><g><path d="M146.9187443590674 500.25244012224175 C164.10828649714503 499.65858167463733, 178.98623225862622 498.02150357850405, 205.9388608862176 500.0888752486808 M148.2137320956115 499.3356050618488 C169.58822952735102 499.66833231834755, 192.4462373140147 501.42845910747263, 206.1834046273189 500.74527280216734 M204.5620579111087 499.70743783905897 C205.87766415307146 519.2855439385297, 207.17137956162605 537.4077217743329, 204.80328565078534 550.6462833019124 M206.80117516250186 499.0470913381966 C206.15805556072274 514.403174870845, 205.58535434030432 528.3963537743022, 206.2080079592948 549.3966800712415 M207.61387213513123 551.6706968130725 C195.69295200075214 549.3783028797711, 184.07246826583514 551.3002981314714, 148.6927598269772 550.6117481711673 M205.1192487861791 549.3891304938046 C185.40328814064742 550.7959167991551, 163.26580250404265 550.7665157561313, 147.5250569858867 550.7309289349015 M149.68766810822893 550.0270934069842 C148.41385124672647 532.4182345558052, 146.0655301811359 516.7627998800046, 148.99503611697662 498.9779233414079 M147.24547601420366 549.4723051425165 C148.17082153900108 539.1796335848543, 147.83212488095324 529.085866423151, 148.72924752077788 500.7211242435423" stroke="rgb(0, 0, 0)" stroke-width="1" fill="none"/></g><text text-anchor="begin" font-family="Consolas, Courier" font-size="20" fill="rgb(0, 0, 0)" x="50" y="530">d</text><text fill="rgb(150, 100, 28)" text-anchor="middle" font-family="Consolas, Courier" font-size="20" x="177" y="530">id10</text><g><path d="M149.1577204058419 576.9791002262172 C167.71235419384385 572.9237585696718, 188.0520194572468 574.8531693777495, 204.6252952084073 576.763321556684 M148.7513843221721 574.2023472119721 C167.14010051667452 575.0889409571233, 187.5421845841029 574.5899950908006, 206.3773241933269 574.9882013586813 M205.94277952326524 575.1043071855734 C206.23773005035534 589.6720063777398, 207.70572130160272 606.3579876465353, 204.89521801545823 623.6180651337828 M205.66472489606173 575.6409133553418 C206.39963695268713 584.2112143489205, 206.6338569845533 595.2008999423421, 206.59078412673924 624.829836316979 M207.76898388410766 624.7103977687832 C186.97051693089526 625.0304250426348, 169.57211187163958 623.0736482158235, 148.72199851576627 623.5648048090906 M205.5686182558978 625.6102526623339 C186.54878282862782 625.6098016678455, 165.92813733231483 624.3840215417034, 147.88776012594974 625.7322561051673 M149.73929466595348 624.0670150150418 C147.33756891186675 605.3882832622315, 147.02717911852517 586.6358107482923, 149.48041353916085 575.9309657947232 M147.56772242277884 624.0591167884338 C148.54134010186388 611.9176483647275, 146.88454094130336 598.1495267484826, 147.55634834003615 574.2127394752911" stroke="rgb(0, 0, 0)" stroke-width="1" fill="none"/></g><text text-anchor="begin" font-family="Consolas, Courier" font-size="20" fill="rgb(0, 0, 0)" x="50" y="605">t</text><text fill="rgb(150, 100, 28)" text-anchor="middle" font-family="Consolas, Courier" font-size="20" x="177" y="605">id11</text><g><path d="M26.21686435912524 198.3486618612898 C63.68287667120235 201.4719572640849, 97.69086351148236 202.42721460502375, 130.13690169203036 200.44710356934175 M24.812114402444255 200.44912718253093 C58.67138227959455 201.2777542857669, 94.3846050171777 200.76642335664067, 131.99185866010163 200.22186372549052 M132.04142835774667 199.53024393225587 C132.77206624433973 211.95503705203814, 129.89694611874722 227.44041372328775, 130.35954650768122 250.0697585133949 M130.3448002307153 199.3287202099835 C131.73328162390462 213.681601490724, 130.20546143527693 227.17704330002306, 130.54519476331123 250.3738396697293 M130.70648803824693 249.4313421639412 C94.16721769527733 251.07629625463804, 54.21192596773018 250.07577318775793, 26.75874255989349 249.11703682231658 M130.60301590304232 250.30183365665536 C102.91210096945433 251.36486081695344, 75.6035418241451 250.66664791316688, 25.934169549679346 250.92332013514942 M25.280172474416126 249.19505364602264 C27.050625488824814 233.17360826593662, 25.855634179496082 215.9334244188007, 23.95586916762197 198.19879496633618 M25.401853782777543 250.37797663467637 C24.922979495756568 231.4720087711219, 23.945948737159135 213.10576966889124, 25.07520049730623 200.61550218740635" stroke="#000" stroke-width="1" fill="none"/></g><text fill="rgb(27, 14, 139)" text-anchor="middle" font-family="Consolas, Courier" font-size="20" x="78" y="230">__main__</text><g><path d="M1073.4220519075113 575.8321792050892 C1091.9053325546959 574.4776235575214, 1111.1441507917111 575.4885630430667, 1123.8388642763325 576.4413491812745 M1074.7040112975963 575.9691418326183 C1094.0784876572816 574.1111765041744, 1111.47964396987 574.7803204604304, 1125.986266228872 574.1370006537372 M1125.5355397168678 575.2050378474609 C1125.643174357589 587.7089906675917, 1122.8001905036385 598.1287737173167, 1123.5936107296593 626.5364337161835 M1124.8792225104303 574.1243161540865 C1124.3871744977691 585.6657103404277, 1125.2242304946287 596.2349430959498, 1124.313403060483 624.5718473272917 M1124.1261820107495 624.783064013105 C1115.713625918354 625.2987744882063, 1102.9311281507692 626.5382034939149, 1074.67291384421 624.539707626493 M1125.9447202057893 624.8825512957732 C1114.6314734593168 626.2534296946349, 1103.5532564967118 626.0927067778239, 1075.902748404914 624.537101373014 M1076.2203231817873 624.8726894953859 C1072.935981461958 605.8967140705, 1075.2581611672676 589.9201378204212, 1076.6831611821867 575.2679929267691 M1075.1401217429593 625.6623466165055 C1074.973223130008 605.2844527955307, 1075.4730794478587 588.1167812590994, 1074.8559197100813 574.844749190587" stroke="rgb(0, 0, 0)" stroke-width="1" fill="none"/></g><text text-anchor="middle" font-family="Consolas, Courier" font-size="20" fill="rgb(150, 100, 28)" x="1102" y="605">idx</text><g><path d="M1076.1525563514347 649.1865020484125 C1087.1470816304218 651.4904460178187, 1102.7789603979722 651.2250823377996, 1126.3602774193466 650.5914405192275 M1075.415440889691 649.352085500614 C1088.5590289437737 651.1240298173163, 1102.2813343109399 649.9902493792451, 1124.2932241526207 650.000139451598 M1125.4621573874929 650.619823229897 C1124.6855595694715 665.7681188993882, 1123.2782734902805 685.4792696644289, 1126.6589204255883 698.7652622211084 M1125.7875684359283 650.1651968761597 C1124.0521050935074 666.5094802276323, 1123.8180224182934 683.0788939787004, 1124.6281344941694 699.3524451343027 M1123.1919862079417 698.564106084264 C1112.0664745552594 698.7664341084637, 1104.0448115123904 700.2236621581876, 1073.052229165161 698.0196970206874 M1125.4426621905138 699.7170430599813 C1106.550526603881 699.7355180857905, 1089.2821322640762 700.807803221762, 1075.3685767990846 699.0171614309966 M1076.6819725184123 701.6258000683814 C1075.6374116406762 681.22057662035, 1075.3942875022774 665.5482821146355, 1075.9131808137283 651.3417409220083 M1075.847316021006 699.7299399763203 C1074.6560321130946 682.7581482758379, 1073.9640333926388 665.4132227040932, 1074.58212985862 650.4131985131079" stroke="rgb(0, 0, 0)" stroke-width="1" fill="none"/></g><text text-anchor="middle" font-family="Consolas, Courier" font-size="20" fill="rgb(150, 100, 28)" x="1102" y="680">idy</text><g><path d="M1074.9709419534097 724.7978206567883 C1086.2310107356484 723.4624794167671, 1099.2520145967264 725.079150928707, 1125.7743297212044 725.3203770084235 M1075.9761319782983 725.701955953558 C1086.8762382976686 724.9035796417553, 1098.6839167935348 725.6254815532602, 1125.388058625974 725.7835623059514 M1123.5385020053623 726.2778289002575 C1125.1212927091615 739.9234329884287, 1123.6647890077625 753.7543028177992, 1124.133574225378 773.3945261601182 M1124.965131258404 724.3696576349183 C1124.7910637074494 742.3463777305841, 1124.7451093497518 759.6879481057119, 1124.1675560233969 775.2094517279439 M1126.5730480315578 776.5461465812664 C1105.0869972002213 773.3538284139411, 1085.0914110238489 773.8262065725602, 1074.6529923175424 774.4181051534505 M1125.7941148963964 775.59361084846 C1109.405583026431 775.3216804937948, 1093.0238185077228 774.6993721377331, 1074.3936245119326 774.14324605371 M1074.6583493171802 775.4839652905499 C1075.140767501894 755.8402243063454, 1074.7364857066348 737.9733254951548, 1073.2052021891825 724.8994135061447 M1075.3871090015675 774.5957162848882 C1074.2647681554322 760.5509066199689, 1075.515313754433 744.5497257023153, 1075.1032793574852 724.3637623754753" stroke="rgb(0, 0, 0)" stroke-width="1" fill="none"/></g><text text-anchor="middle" font-family="Consolas, Courier" font-size="20" fill="rgb(150, 100, 28)" x="1102" y="755">idz</text><text fill="rgb(0, 0, 0)" x="1156" y="605" text-anchor="middle" font-family="Consolas, Courier" font-size="20">:</text><g><path d="M1175.4683836712588 575.7531114015783 C1196.091775408514 572.9517373191566, 1217.9451058447148 575.7693850799918, 1236.260277179858 574.1868644024295 M1176.4978810333146 574.3359184113168 C1189.739319402426 574.1589387887428, 1202.6559388390178 574.5477448181384, 1236.037117749227 574.3558125293514 M1235.02778706876 574.7003758929101 C1236.9660190224674 588.7024308622197, 1235.3275574445374 604.0991182340667, 1235.3405093162462 625.4067549872499 M1236.5660767717086 574.3171007650946 C1235.4809583200058 590.1998242845211, 1235.2033313749423 603.2773086805444, 1235.9103100357531 625.5403659333483 M1237.057592716816 624.243602499622 C1218.7100233590945 623.2083685987283, 1197.7582281915663 622.8257138189979, 1174.552791238049 623.8694515547828 M1235.9737512651138 625.891106705518 C1215.8223404151647 624.8170545479196, 1197.2577038340191 624.8740416973465, 1176.1882813624477 624.624888156846 M1174.3964792763197 624.0127466617016 C1174.0737468919774 610.8351575746065, 1177.6018026652732 598.6370948981781, 1174.9906392285363 575.4593899130924 M1175.1809502159717 625.6152808552617 C1176.0499192537297 609.7935751203428, 1175.9352338019175 593.3059160973336, 1175.243546541417 574.503861254398" stroke="rgb(0, 0, 0)" stroke-width="1" fill="none"/></g><text text-anchor="middle" font-family="Consolas, Courier" font-size="20" fill="rgb(150, 100, 28)" x="1206" y="605">id81</text><text fill="rgb(0, 0, 0)" x="1156" y="680" text-anchor="middle" font-family="Consolas, Courier" font-size="20">:</text><g><path d="M1174.1997084363277 649.4652709232398 C1202.743925581006 651.2665954446845, 1226.1724107293137 651.0940757732906, 1248.7106677346842 649.9927111182727 M1176.592693919241 649.3447119593169 C1194.8770351190615 650.3072093898528, 1214.584563184727 650.446595713296, 1248.6217474448597 650.3597233268611 M1247.4760093906746 648.0062371305282 C1248.3822154160732 671.5544148010772, 1248.7596968189132 688.3681170451363, 1248.7908582965567 698.7534697866885 M1247.8623907088006 649.9774396741836 C1247.6117849524512 667.498381103478, 1248.2426754461078 686.1886145990492, 1247.1209856648254 700.6742346094459 M1246.641100643882 700.3709368042682 C1234.943413970044 700.7366694096395, 1217.9232052223101 701.5239024465969, 1177.0356742585639 701.2858476564738 M1248.0538371998723 700.3170477621586 C1218.525781130247 700.4290913541265, 1190.267125397071 699.5320342267172, 1175.6355913364596 700.4215373503582 M1176.4557200439854 700.982204738134 C1176.615104635861 685.9783932713424, 1176.1271659737538 670.8051659651464, 1177.4222232939228 648.2842207209928 M1176.7196494882492 700.3237234124874 C1175.164370067971 685.6815499870569, 1175.9185946296277 669.0120090679782, 1176.734526997497 650.8257129192718" stroke="rgb(0, 0, 0)" stroke-width="1" fill="none"/></g><text text-anchor="middle" font-family="Consolas, Courier" font-size="20" fill="rgb(150, 100, 28)" x="1212" y="680">id100</text><text fill="rgb(0, 0, 0)" x="1156" y="755" text-anchor="middle" font-family="Consolas, Courier" font-size="20">:</text><g><path d="M1175.450854956932 726.4104801014506 C1200.366510880227 723.679200733519, 1226.9908147332433 724.0485259281154, 1249.2655091401418 726.6851059951541 M1176.402802670163 725.4863431393577 C1203.7618141095338 724.0688351497124, 1231.2341078700435 724.9923911262586, 1247.6027652970693 724.6081599763204 M1246.667666878908 724.8766188205992 C1246.5423485964131 738.8794606875118, 1249.8347583889074 747.311253148878, 1248.3821837534574 776.5836393769806 M1247.6166542985995 725.6362402799169 C1248.2655888011348 740.8264161670417, 1248.3142411598526 755.6701936219553, 1247.4949394273535 774.5583445094472 M1249.0510847955998 776.551590908506 C1230.324639568721 774.7804416897822, 1211.1036353946668 776.6833293291733, 1176.8621884190316 775.7933610950656 M1248.3945970510674 774.9659725068287 C1227.4659308434204 776.0723968022289, 1208.5730930545506 774.5771299707584, 1176.1680142490204 775.3759543232036 M1177.385178797095 774.0518381642848 C1175.3622341225803 755.6240915320725, 1175.2218310054684 735.422563119573, 1174.3508598793633 726.6228183602499 M1176.7764011060738 774.5182030121928 C1175.1127701281332 759.3371664102083, 1176.1617734120618 745.0789568725542, 1175.815420621384 725.4849916775827" stroke="rgb(0, 0, 0)" stroke-width="1" fill="none"/></g><text text-anchor="middle" font-family="Consolas, Courier" font-size="20" fill="rgb(150, 100, 28)" x="1212" y="755">id121</text><g><path d="M1048.8711090841991 499.71435839905894 C1122.5898839713873 500.10442411195197, 1192.8863290297813 503.0930393699048, 1261.7822797535287 499.92320415974353 M1050.7637842393783 500.78172670971236 C1115.2192804613046 500.14592509707734, 1182.407302410002 501.47261777516627, 1261.140344221635 499.46854923489656 M1263.1816962725948 500.38366277876275 C1260.1716328680477 585.0751680913545, 1262.1001738433924 670.2647168525205, 1263.3981644451858 800.0340334306935 M1262.5530419579816 499.4687051265274 C1260.9323784913736 592.248634712522, 1260.7919465384139 685.3284225676921, 1261.8338335527487 799.9393853425016 M1261.7008087094064 800.8123326449735 C1184.7112567564593 797.5180791660042, 1106.743529636362 798.0551320672157, 1050.6557169562338 801.7407945330905 M1261.8762699909685 799.8290849030161 C1191.964348156441 800.8020111939493, 1123.074083882117 799.9188187360855, 1050.3597548090115 800.8016071276605 M1050.5752774656885 800.5977546317717 C1051.7841568173044 686.2525851888057, 1051.0566728181402 572.2323374591136, 1051.0227785726893 499.6630611768935 M1050.3658531455033 800.0573487659242 C1048.5462630827722 707.465562087724, 1048.3991714473468 616.0434902900715, 1050.2558007535768 499.5044254802793" stroke="#000" stroke-width="1" fill="none"/></g><text fill="rgb(150, 100, 28)" text-anchor="middle" font-family="Consolas, Courier" font-size="20" x="1080" y="530">id10</text><text fill="rgb(27, 14, 139)" text-anchor="middle" font-family="Consolas, Courier" font-size="20" x="1232" y="530">dict</text><g><path d="M1049.7112640805296 499.44296692841647 C1068.9165347097774 501.41767718633344, 1091.6029611850415 497.7447028540381, 1108.0209231063754 500.03463388475274 M1050.7387807913813 500.22761543008255 C1064.3254614899229 500.5245489248969, 1080.6686646333264 499.8672914118973, 1109.745591817405 500.2141644785084 M1110.2596066819835 500.19338735630544 C1111.101453777913 515.2885941844925, 1109.8884725789844 531.8694735694284, 1108.8523386887246 550.3236141964062 M1109.5035576074854 499.52554938411765 C1108.780433274476 510.8984773609599, 1109.931238971229 519.9384862648235, 1109.1409208087941 549.7034764922902 M1110.0663309895122 551.1379130517744 C1095.7136382052347 550.382566188587, 1078.743986949603 551.012584820863, 1051.7588102227667 551.3501351008881 M1109.5091917778054 550.419325152222 C1094.0511855426992 551.1827172127594, 1078.6024929209614 551.2658484024055, 1049.6247949664491 550.2227221070445 M1051.2560562099013 551.645389903054 C1049.4121498303589 541.3284691832015, 1051.374214545843 530.0569436881289, 1050.3437397759717 499.8423653328563 M1050.3800321788885 549.6867458978554 C1049.944870727669 530.9490335564298, 1049.2627779474 512.1936134852557, 1049.3509041609605 500.6989799628483" stroke="#000" stroke-width="1" fill="none"/></g><g><path d="M1200.3207015479531 498.7234327597541 C1219.8755961407908 499.4694474641259, 1238.9225326803103 499.55740339729687, 1262.0433078502479 500.4888588350966 M1202.4087065934605 500.2924803338703 C1216.5637679976824 499.26670764286007, 1231.530578011742 499.8645364172149, 1262.3792318705405 500.3520744890978 M1262.109688162385 498.4692677249139 C1261.3449172560283 515.702593233687, 1259.9894879852188 531.5052267761263, 1263.1243596924223 548.9226117168172 M1262.9793383479184 500.4935900206431 C1263.1612076686965 513.7361183143653, 1261.8096852534065 529.0827650287385, 1261.593911418484 550.6368210136429 M1261.0668091156572 549.0088297227534 C1246.0458995050255 551.2752650899598, 1234.26388279011 548.6454407879302, 1200.5583104948648 551.4190725189311 M1262.9362786724023 549.9537851803 C1248.445472564365 550.2973364577923, 1234.8910384711673 550.0279791035363, 1201.3371637465812 550.174673130828 M1202.9341702127363 550.038102693866 C1201.8192362994305 534.5044240486628, 1201.9904257064657 517.1604189335848, 1200.669868131412 500.7406447320015 M1201.8210817348443 550.7270675572122 C1200.751732927294 536.9173636964575, 1201.5501759145725 524.7762810477132, 1201.738937725721 500.8352639430256" stroke="#000" stroke-width="1" fill="none"/></g><g><path d="M1049.1694454613805 39.74061662565343 C1123.1602482841438 42.09227972406205, 1194.4511946549405 40.861440130959785, 1250.0314218185106 41.53736341069313 M1050.4921407584256 39.89479329237244 C1125.5973240160322 38.8420182129488, 1199.0712776388448 38.31670037975626, 1249.1937699638745 39.8684108565121 M1249.3988304247584 41.984001610151466 C1247.475510374949 89.37992345481854, 1248.3715313651621 137.3645298737315, 1251.8710521152298 170.71026114261542 M1250.2007374902842 39.65143509683234 C1249.4705428788177 90.49735678189616, 1249.9984700825228 141.1338499533436, 1249.5544622563673 170.21775977045144 M1250.1863938427518 171.21016916291745 C1173.7397522107065 171.2614040442362, 1100.0580807156512 169.9597228873324, 1049.2175326177082 169.50419245149706 M1249.6545181894285 170.80062915860282 C1195.3764392816113 170.93553726723346, 1141.1889166269236 171.21209483480376, 1049.2235583201455 170.36031803335243 M1048.7233454704767 168.7655976903016 C1047.2125405207848 137.69213822315285, 1047.375957516552 105.69003780222197, 1049.599135987971 38.166358545989034 M1050.2781012025366 170.72339943753056 C1051.598790410143 132.15362552805078, 1050.759089009104 95.1513399939505, 1049.5097590271523 39.20382286413407" stroke="#000" stroke-width="1" fill="none"/></g><g><path d="M1042.8572456659806 32.632781172044254 C1107.254602473583 36.09291150649235, 1168.384774474231 32.93703245501466, 1256.3237257355536 35.168339618268504 M1043.569178384999 33.84756668828627 C1110.930380443395 36.26600224850174, 1177.9833148542298 36.07737901600268, 1256.2797401209098 34.25508430533661 M1257.9526482735687 33.41119856211289 C1256.8186606629604 74.61307467678935, 1256.1614100886359 115.40943829033529, 1254.838386147219 174.3374727706684 M1256.0138804659432 34.346822096038444 C1254.340397930295 74.93115330405033, 1254.6577143887948 114.1739780575703, 1255.0477784049076 175.96991201856514 M1257.6284026991445 175.38982255562888 C1209.779383539133 176.34582212590982, 1166.2606644670607 174.61748995009563, 1042.5162936529628 176.09134801229976 M1255.2983297860362 175.30698348516788 C1190.0417338471568 174.39966861284185, 1125.7874284607897 174.98358596576105, 1043.75723406757 175.5279431323679 M1045.8762437212738 174.2045258488212 C1042.7732232645772 138.11632076957073, 1045.1398551161385 98.25539551670438, 1044.340293992402 34.4555527816312 M1044.0958765263479 175.18430291507985 C1045.853103246728 124.68863671106085, 1044.2819362279317 73.41421908981872, 1044.4452769957072 33.91519387345163" stroke="rgb(0, 0, 0)" stroke-width="1" fill="none"/></g><g><path d="M1074.0282009175846 106.9579433827533 C1094.9521173320115 106.36604766106248, 1115.6928257597856 105.62018758415797, 1133.248156526615 103.72733318226057 M1074.1547590783919 104.48235371744155 C1090.3822317812826 104.77214800961704, 1104.046771362247 106.43980795648763, 1133.6101606830046 104.12357669323544 M1132.3937191058078 106.9169614239445 C1134.5902396109311 118.9749070771413, 1133.9402983863843 127.56092110292589, 1134.8543701759072 156.566935635047 M1132.1398532311734 104.25094260335146 C1132.8075156538252 117.29120243187435, 1133.7127376975607 131.03353915485258, 1133.168098097284 155.7235180574177 M1132.2712331537284 154.53541211609942 C1116.6471262401737 154.56688254912106, 1103.3814730122506 155.29582862097516, 1076.9207830509622 156.03483071298209 M1132.1683335499401 154.67414055392743 C1120.4570553116123 153.83319388734304, 1106.0694605749736 155.56101087057115, 1075.2848763132695 154.58130552644693 M1075.7110996615688 154.021990676288 C1074.106675844325 141.1399333846111, 1076.339179392327 129.0503261497239, 1076.4367551506896 106.14316744137645 M1074.272568966507 154.06979474705074 C1074.0805497259903 139.90964354506912, 1074.7403997781007 124.62935989926576, 1075.6841845478395 105.3905949841628" stroke="rgb(0, 0, 0)" stroke-width="1" fill="none"/></g><text text-anchor="middle" font-family="Consolas, Courier" font-size="20" fill="rgb(150, 100, 28)" x="1104" y="135">id82</text><g><path d="M1131.3599059599983 106.27423102671885 C1146.5312046642928 104.07060792046278, 1163.336325692303 102.87973062606017, 1190.9005035828143 103.2715222789467 M1132.845820274166 104.45774244399924 C1145.6000423538765 104.940923575045, 1157.7821559213296 103.95736517890501, 1191.0392144861291 104.35876837908147 M1189.3599115120833 105.16455766773933 C1189.8834332845336 120.67046022970219, 1191.005007061179 134.42715807020943, 1192.6743789184338 156.1588169565632 M1190.1209839643366 104.92044877879962 C1190.8549191648474 122.43005732753574, 1190.3353583092369 139.71474747247333, 1191.2032777627414 155.57698537552488 M1190.1345140861251 155.96496329893606 C1173.4958336078992 154.3293512649055, 1158.2291683845258 154.19625647481666, 1131.077403527391 153.1512443188598 M1191.1004639664923 155.31867151870932 C1174.0111696281022 153.72976150079913, 1158.5318718964659 153.82165370888822, 1133.5354404663487 155.6730981326965 M1131.7484810118754 154.38075747752484 C1134.8911818509441 142.1141136052465, 1132.507856136071 128.97880556308428, 1134.7526990047347 105.60837973286081 M1132.0079771282496 154.7778113503684 C1132.1232884106857 141.35972973683866, 1132.685420742513 128.28674412637096, 1132.3595993267909 105.71350058057969" stroke="rgb(0, 0, 0)" stroke-width="1" fill="none"/></g><text text-anchor="middle" font-family="Consolas, Courier" font-size="20" fill="rgb(150, 100, 28)" x="1162" y="135">id76</text><text fill="rgb(150, 100, 28)" text-anchor="middle" font-family="Consolas, Courier" font-size="20" x="1080" y="70">id11</text><text fill="rgb(27, 14, 139)" text-anchor="middle" font-family="Consolas, Courier" font-size="20" x="1215" y="70">tuple</text><g><path d="M1051.1892276187248 39.30823489818713 C1065.819584483753 40.389244040498475, 1081.2735882431093 37.87671452331585, 1110.5651594081514 38.32954581670641 M1050.734471799682 40.02408614449594 C1062.6624438118365 40.646983398347544, 1076.5386985608777 40.137933028728995, 1109.89720582556 39.10203880703403 M1111.3105107769723 38.98302783149499 C1109.2675835454327 48.65358929187062, 1110.5202262579908 62.11166554760867, 1109.432503250881 88.7886355788117 M1109.2119805158895 40.880228978845956 C1111.0064687522754 52.793530026262715, 1110.2663274667566 67.34075452517129, 1110.2274082838528 89.99280919732 M1110.1579214782491 91.42554870385511 C1095.4975521765898 88.83313054499413, 1083.3945083025199 88.73299933402288, 1050.54635659163 89.96284177104906 M1109.0681506476171 89.31895356989637 C1094.6839856436545 90.01167287256824, 1080.0941004034999 90.26397001167287, 1050.2621850865228 89.07778672506737 M1050.4645077351252 88.20835607026369 C1052.2416489898758 71.17338665529876, 1049.139636880811 49.73275337076413, 1051.2097930884177 38.849471036983836 M1050.7906631292158 89.98304074964354 C1050.2821790179814 75.46292420334629, 1050.1659470365319 61.7686934865863, 1049.8519857767446 39.73658548305348" stroke="#000" stroke-width="1" fill="none"/></g><g><path d="M1181.4354560176935 40.66089091497628 C1206.371657153426 39.69475758182099, 1233.7575174112053 38.558994641459684, 1249.427197587735 39.88820797152789 M1179.7625558398363 40.596170257199226 C1202.3076069650651 39.59333929692426, 1226.311271772277 40.00905170231019, 1249.0202574877842 39.62325227666949 M1251.909094936864 41.005331738375084 C1248.8039809473144 61.06582701633986, 1248.9101434058098 77.95745410560818, 1251.899048104437 91.7471434865157 M1249.7930720287343 40.37614853734608 C1250.4440925317872 54.771923829056014, 1250.083475143722 69.07368771884752, 1249.8174965522524 89.88335683720112 M1251.4165180675845 91.11886674016006 C1228.9624521884227 90.6504796792734, 1205.3314486268391 91.70811230581418, 1180.0057680537675 91.92706470114618 M1250.4428970701363 90.02990229509857 C1233.9066416450876 90.62449954581766, 1217.14160980298 90.45557280675109, 1180.9070611307739 89.30846193039517 M1181.0886566314107 91.6238797013499 C1180.787359976837 74.74487359922561, 1180.4756023545926 59.37461414931605, 1179.3721364337332 41.0729574765006 M1179.6252905647673 89.44670711859993 C1178.8444240256133 76.05815380101387, 1180.4602183199563 62.80849688567078, 1179.555692455516 39.99670232944263" stroke="#000" stroke-width="1" fill="none"/></g><g><path d="M749.4749968181522 248.34704638099248 C802.6245011105149 248.90745885383183, 858.4695242849265 248.5028315179759, 948.5642729737463 248.7540266259992 M750.5694349529131 250.03134311978692 C807.07008130257 248.83426744859128, 863.1752602845735 247.8117947623244, 950.3109304011484 249.74862439495934 M948.1654696714419 249.45453698736293 C950.5956605395758 276.39025363353727, 948.7613426455889 307.4123327932414, 950.7709475996911 379.62180810775357 M950.401186826965 249.61094511443727 C948.874043994085 292.33413530922206, 950.1519787617474 334.425544247308, 949.6257605542665 379.3433807392702 M949.9922764726069 380.0842032947221 C882.9544132008444 378.25110694261, 820.3756632879152 379.28249681241573, 750.6292135295171 378.20965823934415 M949.1590810785394 380.205109829081 C891.9427274834064 378.35105938188053, 835.1623598752157 377.83889506467705, 750.7962290677706 380.457519538945 M750.5880537695732 379.2286657131907 C751.2938917667851 341.1764932379669, 749.720326338451 305.58159998384514, 748.6288158758307 250.98219647508523 M750.3893274035903 380.2612705040485 C749.1636577768287 328.98663918245745, 749.8001254145242 279.54333543186897, 749.4449315812078 249.02570838696747" stroke="#000" stroke-width="1" fill="none"/></g><g><path d="M742.9984749552576 243.67853522700713 C811.3891274879352 241.51907324716097, 878.8617067363165 242.22895598921787, 957.6411412321887 242.7647516752504 M744.0944819609206 243.38132283879747 C815.4527473690877 245.41200683340423, 885.9841501775101 245.39472535688324, 955.6704260329445 244.25590039972354 M954.7575698252956 244.4676578999967 C955.4388420215043 292.7280510721186, 953.8845133827059 344.41765016759183, 954.8941813724873 387.1630590803338 M956.404088145257 243.4570483117923 C955.6110906180334 297.40373578586883, 955.9657282868823 352.1402633612268, 956.0507774094726 385.30606679238747 M954.4675313487021 385.6522870350567 C908.9628781032076 386.2106204545233, 864.3733016976306 387.8840958168587, 743.7498935454312 384.360359606562 M955.5591968055415 385.20376105909133 C903.4911673085983 385.7448703858539, 849.4269618979979 385.1238684653318, 743.346334223583 386.3350578295795 M744.2555634241406 385.3914641220643 C742.033058496635 343.4653328269811, 743.4857950624721 295.5668399181178, 744.2709232038872 244.7758092930151 M744.1842832595938 385.5477168525571 C743.2208101173858 355.35091803259775, 743.0145443467659 325.5409051429887, 743.4066998402419 243.256275346959" stroke="rgb(0, 0, 0)" stroke-width="1" fill="none"/></g><text text-anchor="middle" font-family="Consolas, Courier" font-size="20" fill="rgb(27, 14, 139)" x="850" y="340">True</text><text fill="rgb(150, 100, 28)" text-anchor="middle" font-family="Consolas, Courier" font-size="20" x="780" y="280">id32</text><text fill="rgb(27, 14, 139)" text-anchor="middle" font-family="Consolas, Courier" font-size="20" x="920" y="280">bool</text><g><path d="M748.8440115786563 249.7834783563124 C766.5606213273256 249.90330732705982, 784.9548787207269 250.83083800637965, 808.2119243575997 251.0174396003826 M750.5008350321391 249.19003501751286 C767.0545440255562 250.78480881866113, 784.2315653805805 250.64185902486443, 810.7795878780584 249.36846280330718 M809.8755442863539 250.5350202358943 C810.5745835112644 264.960655266569, 808.2377495223749 275.3952136308194, 811.925239515534 298.6485655223356 M810.2030598476196 249.71962412479988 C810.2453174762351 262.41681688899666, 809.5643205612383 273.5103667411758, 810.0890867992126 300.5865678767136 M809.8052860235408 299.2474651897828 C785.7440205744857 299.38020581984296, 763.6939585594919 297.9413197893019, 751.3278517877183 301.1765213161465 M810.0597277219425 299.9147478047587 C786.9930902141078 300.58719504107995, 765.3621840219841 300.30451923792936, 750.0386809366738 299.7265687606864 M750.1662774759972 300.61267743973633 C748.6163299400545 282.85574481594193, 750.4195411371809 264.46789805837227, 751.4787301368565 248.74703287134335 M749.7015044332496 300.65315709281936 C749.9295971381554 283.8207536283569, 750.0809002310372 268.88480672863767, 750.1441420785899 250.40673935143187" stroke="#000" stroke-width="1" fill="none"/></g><g><path d="M890.6841636159028 250.17913311435916 C909.7177014157032 251.870538020533, 928.0652115762106 248.50036654046173, 950.2644177955175 248.2625864139237 M890.0625123476102 249.52541600695142 C908.2952716181519 249.07195585743824, 926.1960659094324 250.3052080302701, 949.5947368895373 249.24348822222458 M948.334928193748 248.40988056253673 C949.716860256268 267.2938564572006, 950.3810365328793 282.01197714872274, 949.2613196589953 298.3201058168813 M949.7455326310085 250.88783131490163 C949.3913967488428 265.1164606372755, 951.179489477532 278.9686616720822, 949.4016367520358 299.0056446232742 M949.4744353649047 299.1678996314357 C925.7167679123901 298.19222644185044, 907.2882634194216 298.43085746826563, 888.586344661176 298.58424245280855 M949.987861192909 299.20341041939474 C930.5153967969889 299.6890354590774, 911.7362030742571 298.9385462326395, 889.3923881350987 299.2806389440295 M889.3705266537698 299.7814328978649 C888.6867393919636 280.0080729934083, 890.3491417257654 262.3302215192872, 891.3461206270568 249.18806426209045 M889.5533750189692 299.0024425979344 C888.901100893692 289.41891307680413, 888.8960526682921 278.7464172306447, 890.3225293819646 250.66865771340056" stroke="#000" stroke-width="1" fill="none"/></g></svg>