<svg width="1399" height="992" xmlns="http://www.w3.org/2000/svg"><g><path d="M23.361050031022437 198.5612098435472 C88.66899664383335 200.3484596243778, 152.2386007876463 200.7344665597468, 221.21187285826105 199.8146838583533 M24.982736142253167 199.3144821723003 C69.79535315876618 199.66865920544498, 115.56645180608251 199.0803580088121, 223.92093530288943 199.46554130840906 M222.62023831720637 199.82435676275693 C223.6790919684173 317.9842006171433, 225.01734883576168 436.5055846460896, 222.51679944562684 650.6949687707244 M223.43722223783058 200.42275693199937 C221.28502684612428 358.0121211476515, 220.8023503030299 516.3101560817186, 223.44509206901185 650.0238534944044 M223.50320948340493 650.8053551672235 C183.0747814733586 650.7989798178376, 143.39603813638195 649.440488621474, 24.789707482956526 648.6741363028372 M222.56425288119402 650.5274604229007 C156.14844372249766 650.6676189241166, 91.08722268426018 650.7472701628902, 25.734911344970843 650.8054602240331 M24.603935009576585 650.7041075530575 C25.349653891654853 521.1626107651804, 25.706133363692423 391.9235456156322, 25.54760289780873 200.29144547741194 M24.678472052794135 650.0734632403652 C23.629455302064297 532.409788973289, 23.62074948621829 414.9668582192344, 25.174706792156545 199.825454790795" stroke="#000" stroke-width="1" fill="none"/></g><g><path d="M149.64430482148956 275.0661561175998 C164.68382095217925 275.63505914730445, 179.6848342319913 276.9054327109151, 207.60174049336624 275.40957625545695 M147.7037208210944 274.30373472629145 C159.42118819672945 274.8520873680666, 170.2925811623442 275.3271584378836, 206.83481339990314 275.1505135793428 M204.5564038446745 273.4682077846988 C205.5269661151174 291.37406619089336, 206.9132696463851 309.59995765973525, 206.83437275121264 324.3213804189982 M205.1152669187361 274.9905996123387 C206.8622883694152 287.16524778437764, 206.95788399837275 298.9121709779337, 205.9520868739984 325.2607633298465 M204.101139531601 325.8446510121533 C194.4622980583402 324.09326184206367, 179.07830329811074 322.97079430472826, 147.6570063556224 323.6114703971422 M206.1519423624357 325.6589352176711 C192.44110837637126 325.2040277835734, 180.73618187433766 325.5107150573651, 148.83040426134716 325.2439432070264 M146.21450757221857 323.91885753024616 C149.609540724933 308.0009427596199, 146.60158048545293 287.07220585567654, 146.35177380507835 274.8780433151824 M148.09835226913876 324.59394371968466 C148.74390086682246 310.03802189797096, 148.2701204470402 296.48856547427437, 147.0906258641769 275.0864074910723" stroke="rgb(0, 0, 0)" stroke-width="1" fill="none"/></g><text text-anchor="begin" font-family="Consolas, Courier" font-size="20" fill="rgb(0, 0, 0)" x="50" y="305">lst1</text><text fill="rgb(150, 100, 28)" text-anchor="middle" font-family="Consolas, Courier" font-size="20" x="177" y="305">id82</text><g><path d="M148.79172828564586 348.59208374190825 C162.16420997866229 350.1810976300955, 172.91366767066725 351.79325846851776, 206.51509486689716 351.8970139192431 M148.22987892722574 349.91153454744745 C164.82389283226397 350.02278505775985, 179.82170207245866 350.27818191547254, 205.29138741570185 350.688942338534 M205.59754461398646 351.64751528076255 C205.11443596107387 370.0714975097111, 205.74955549307356 387.7456707991854, 207.67264361811326 400.35281905875917 M205.02668419280906 350.12934592483356 C206.5235659632799 361.1379863928179, 204.81493943292472 371.7001118306104, 205.37026580064617 400.86420909407445 M205.52449258413168 398.64266571160954 C192.0497184147392 401.5379457505381, 175.67549775925758 401.6291247428552, 146.86435964962504 399.3741401025194 M206.7049373058249 399.86925439577954 C186.62023014208208 399.8912309177185, 167.7160997520349 400.19521088218266, 147.83196844754383 400.1094853480279 M148.75955240363922 398.34711475007583 C148.20579443457498 382.9427081402356, 147.15339585465412 365.92137788086563, 148.94877107279794 350.64132827034155 M148.93267259538203 400.5758369583742 C146.7200863594602 385.0644742365228, 146.95097707955676 371.02452551911705, 148.6789213932026 350.94156944695874" stroke="rgb(0, 0, 0)" stroke-width="1" fill="none"/></g><text text-anchor="begin" font-family="Consolas, Courier" font-size="20" fill="rgb(0, 0, 0)" x="50" y="380">lst2</text><text fill="rgb(150, 100, 28)" text-anchor="middle" font-family="Consolas, Courier" font-size="20" x="177" y="380">id84</text><g><path d="M146.36941961758475 423.7734780154783 C171.22243783021605 425.5277176438137, 193.06610551755082 426.0828264619935, 204.50886314920703 425.58668868593446 M147.49098074800625 425.8119766037464 C164.3002026832629 425.442105718481, 179.96076523194196 425.65106201554653, 206.35215021343475 425.787950635519 M205.8073371541481 426.7868341777886 C206.74357085220646 442.2709361810605, 205.1689869661104 459.2834681046557, 206.09712301253916 475.94603884552447 M206.95505958471296 424.21053521451216 C205.78134357973144 440.6131063573065, 206.11820410542617 457.0408755560578, 205.37917034240672 475.69910072261996 M205.3664214199645 475.6347247827659 C185.77766494987767 477.16438049183523, 163.02315380852605 475.0762908817282, 146.84404019502801 475.2648262371897 M206.28338960596065 475.15011612704734 C188.4307887595618 475.12333904010313, 171.35514229645554 475.2778966636854, 148.86523498544017 474.4358955125575 M146.1911796022979 474.6686273536207 C145.97264977102816 461.349520296563, 147.02526217537596 442.4622016116792, 149.6122401502615 426.7309360948154 M148.06812406980612 474.54813281064594 C148.54708170106363 460.27577562362654, 147.42943758969832 445.5452782223765, 148.20248610969776 425.1215185372763" stroke="rgb(0, 0, 0)" stroke-width="1" fill="none"/></g><text text-anchor="begin" font-family="Consolas, Courier" font-size="20" fill="rgb(0, 0, 0)" x="50" y="455">p</text><text fill="rgb(150, 100, 28)" text-anchor="middle" font-family="Consolas, Courier" font-size="20" x="177" y="455">id99</text><g><path d="M149.96054681235677 498.39487388729947 C171.2290699018895 501.7520573008308, 190.7516533763739 498.9751874217323, 205.03135216270056 501.1455019484662 M148.60282752029636 499.3844204531987 C160.24566912766088 499.63110776687154, 172.28507433245386 499.9179571204429, 206.67831579188723 500.6301719196434 M205.21692843420317 499.8534350496836 C205.5484637880729 512.1980679162733, 204.62603227489447 528.4652875911502, 205.12569644710564 551.7035495071921 M206.57070342166267 500.15976756711694 C205.96057168443573 514.8473434573573, 206.79430012365637 531.9448528752895, 206.33466378291521 550.3902363285524 M206.26832751968254 549.0199510206912 C181.8212386352801 551.2727939292193, 160.35894351197712 548.4623672413959, 146.18622322028426 548.5015941694749 M206.97036546051856 549.3272430768517 C191.92355497408192 550.0156292345911, 177.5884429137411 550.0405991563762, 148.03630485728448 550.0466212565852 M146.88615921918364 549.7472092093984 C147.33559595106811 532.7113860625298, 147.13407618370096 515.2668598162386, 149.18226443784792 500.6303814789739 M148.19848781583565 550.6657507249661 C148.7447297893738 536.7589674689252, 147.85273009154986 524.9128963489901, 148.50899042242116 500.85337807665695" stroke="rgb(0, 0, 0)" stroke-width="1" fill="none"/></g><text text-anchor="begin" font-family="Consolas, Courier" font-size="20" fill="rgb(0, 0, 0)" x="50" y="530">d</text><text fill="rgb(150, 100, 28)" text-anchor="middle" font-family="Consolas, Courier" font-size="20" x="177" y="530">id10</text><g><path d="M146.44645490844397 576.9081336495987 C162.57098401082322 575.4157538828962, 180.25674726289625 575.334635911794, 207.66333818351472 575.6531781593451 M148.8517422417508 575.5574595713567 C170.89843121945376 574.1182488032358, 191.82775818320013 573.8361888854587, 206.07955063875917 574.9642247864614 M207.38811010901745 574.3218705489145 C206.70333005690338 591.1345083564271, 205.24979181875366 606.0150150934733, 206.06824227996015 623.6555507052065 M205.00620258886883 574.599090528726 C206.11518727199987 593.684131705762, 205.32875908950598 614.1916035828518, 205.05096247417765 625.6887582907567 M207.80548439452338 623.1247843192014 C183.17899657197523 626.3932554094504, 165.98684509442324 624.8553485974954, 148.58796825548617 625.3298443292084 M206.47977609656022 624.7926051293684 C192.88539922214102 625.3942829693299, 178.53387057941907 624.7074465409186, 148.27998452613394 624.344469590553 M147.03811203743214 623.4828798762346 C147.41777403673754 606.5090886509334, 148.7953875521102 586.9688987190578, 146.11718429472032 574.7830290775864 M147.59967899192728 624.3937763647111 C149.01818320919207 606.7082439012908, 148.48687300182186 588.2258203204692, 147.6959413438087 574.7706740922555" stroke="rgb(0, 0, 0)" stroke-width="1" fill="none"/></g><text text-anchor="begin" font-family="Consolas, Courier" font-size="20" fill="rgb(0, 0, 0)" x="50" y="605">t</text><text fill="rgb(150, 100, 28)" text-anchor="middle" font-family="Consolas, Courier" font-size="20" x="177" y="605">id11</text><g><path d="M24.496923414902536 199.96709684146163 C59.983489748302624 198.855964630817, 94.37350339438986 202.09781200487976, 131.86048145024796 201.5958755271189 M24.982850373407626 199.09717869286334 C54.77331098231539 200.6875190241024, 86.89763261672158 200.3225112765624, 131.09438511844434 199.25562765626344 M130.43935480357993 198.748150769274 C128.78830809353263 210.63012090131065, 131.5909521117064 221.72256827199362, 131.52529114818523 250.74532922129026 M131.3449363145744 199.79478364672187 C131.7731057300245 215.61533299044754, 130.40698529108914 233.18470835260413, 130.8603531581122 249.49288574938575 M132.3319955151549 251.67241944835686 C93.0039371371215 252.63990126944256, 56.06619971213146 251.28512229248946, 26.674278712318543 248.01393723370919 M131.18631670189518 249.31151018933232 C94.83195936582064 249.98731241609536, 61.40147456865999 250.30834882011865, 24.458920158429656 250.09854673291784 M24.466234692767205 251.21076371893216 C25.607869198184957 234.64305640568804, 25.602880685721328 219.6144602414679, 25.856972419810813 200.3329608113908 M25.51337585898651 249.01854741900638 C23.79129976977749 237.14518275096754, 24.08036465866897 221.72782524188582, 24.850782272983082 200.8115409964308" stroke="#000" stroke-width="1" fill="none"/></g><text fill="rgb(27, 14, 139)" text-anchor="middle" font-family="Consolas, Courier" font-size="20" x="78" y="230">__main__</text><g><path d="M349.9182663641638 9.707394153380362 C404.06534359188646 11.164766170584308, 456.3381422247937 12.751020805639207, 547.7293618034789 9.866880716502585 M349.7890600283489 10.376590586761882 C409.99892085851116 8.2989127763081, 469.1777462603997 9.448636488628539, 547.0299957133747 9.453026209802768 M548.4860124880203 10.025067910041523 C549.1780679595927 64.39938206782631, 546.8536235690202 116.71387375201509, 547.2315741377041 236.33989376333756 M548.30491368039 9.6301292068303 C548.2731764181307 80.84350601135698, 548.4821577903449 150.24616937461533, 547.577299684535 234.41352643033437 M546.0328477609135 233.39692931580547 C472.2857917343326 233.92635907828742, 397.90088321076 233.7701843866524, 351.78663966331885 234.64805040584804 M547.2284040016126 234.16834253118512 C477.30898387010257 235.60622748247235, 407.0759113728191 236.07539861999948, 350.06097192913836 234.51928990780402 M348.53592393915596 235.1454041654373 C351.9493607883909 185.79308667580563, 352.4625233779096 137.98646887966763, 349.6275705465184 11.683512813971971 M350.0997441201539 235.56221513604117 C350.2092294680081 164.63171023500314, 348.8886462723766 94.58755101618164, 349.366902949379 10.00392802864673" stroke="#000" stroke-width="1" fill="none"/></g><g><path d="M474.7422862383799 85.87946562309247 C493.1823766640323 86.43745675611599, 514.6710218655537 86.96535424539957, 529.1152080169926 85.86913412016 M473.5574798826714 84.96282324118256 C485.80862968969257 84.18233687817805, 499.23826920888246 83.72965321263634, 531.675909229516 85.10223372041207 M530.022178850213 83.67117957417467 C529.5938371468073 97.7439825428512, 529.5484084318844 111.54223388914735, 531.978357520318 133.4007356067588 M531.327064085626 84.17774137586399 C530.6179171746625 99.11600676444586, 531.3536948055207 115.40723608121388, 531.0820639016639 134.54658270604185 M530.1129974121319 135.70682095752235 C515.9138291950165 135.12504166255897, 497.9556621355662 133.83649567111252, 474.27943303119946 136.56538891687154 M530.8049129829582 134.57075218159173 C518.5214753475067 134.45672832623015, 503.7919324919802 133.89486768029556, 473.1656440894426 134.82832307348437 M473.1528943382953 135.85916494990153 C472.6125125574235 118.1186891439718, 474.31111807149307 99.45400551640131, 474.6213806695463 86.79947735666326 M472.7429760975494 134.57926596302798 C472.5291719786236 118.53781085059126, 472.6104733051187 101.89706374652785, 472.6672183713823 84.56184287839882" stroke="rgb(0, 0, 0)" stroke-width="1" fill="none"/></g><text text-anchor="begin" font-family="Consolas, Courier" font-size="20" fill="rgb(27, 14, 139)" x="375" y="115">age</text><text fill="rgb(150, 100, 28)" text-anchor="middle" font-family="Consolas, Courier" font-size="20" x="502" y="115">id12</text><g><path d="M474.1004270766466 161.65371370549556 C492.4562992299867 158.92476562386923, 510.0227767083013 160.9202643296722, 532.910963999121 160.86990686976887 M472.3894625534387 160.03198794616108 C492.6701129288756 159.64090945989707, 510.30972022748136 159.00974540708185, 530.2314692415172 159.8896957623156 M531.0290249327122 158.1064888391329 C531.5388073585842 176.2272542180992, 528.9825251640588 193.47367926530717, 531.7394799861493 210.8277860893015 M530.3255081247836 160.65199119361813 C531.0694804302342 171.07183200196968, 530.446986888212 180.23415079852938, 531.2617515945099 210.626228603344 M530.5185067421608 211.75673765759356 C508.40197908564653 208.96065457618096, 488.8134002884941 210.96010699151037, 474.352939464361 208.43364050576537 M530.5799447598566 210.92073902176483 C515.4933886319994 209.48152665433196, 499.51217513191403 211.26838170410554, 472.68773886809873 210.2824001506904 M474.98785251750064 211.9831526147156 C473.76871199891616 192.63271712033577, 474.0587196179284 174.98289101495567, 474.51846101931125 161.7387417606041 M473.81528825065504 210.12419158125874 C473.8763322991332 195.61761456952712, 472.45998225463944 182.3736332207089, 473.40686941871485 160.79092737285478" stroke="rgb(0, 0, 0)" stroke-width="1" fill="none"/></g><text text-anchor="begin" font-family="Consolas, Courier" font-size="20" fill="rgb(27, 14, 139)" x="375" y="190">name</text><text fill="rgb(150, 100, 28)" text-anchor="middle" font-family="Consolas, Courier" font-size="20" x="502" y="190">id17</text><text fill="rgb(150, 100, 28)" text-anchor="middle" font-family="Consolas, Courier" font-size="20" x="380" y="40">id99</text><text fill="rgb(27, 14, 139)" text-anchor="middle" font-family="Consolas, Courier" font-size="20" x="507" y="40">Person</text><g><path d="M351.6749519337772 8.490149290490923 C367.0423251098594 8.510781024966391, 381.55651783811703 11.238531400614079, 411.9604287063362 10.900984056248486 M350.73384376637244 10.68693557915409 C364.60028468041895 9.646510949781586, 379.4859431815527 10.562235774889844, 410.70054642565185 9.143291994361897 M411.70635263191866 10.35790675205939 C409.4232008583866 30.875147193978545, 408.2612604656642 47.569848524291984, 409.19842832610425 61.92892488836106 M409.9756273029185 10.345458013435277 C410.1201727634996 28.05392001898932, 410.72204744071195 44.29640304383249, 409.91690515724065 59.87656509400268 M411.1623862547941 58.864399570138715 C390.5952149833368 61.0099379175414, 368.40548512612656 62.156543000072325, 351.93871836469276 61.716937981103925 M409.66425733158803 59.008880473827475 C391.53958523162817 60.381594114228, 371.0461280355023 60.657320485329905, 349.6153923201727 59.1484978466499 M349.11830880137217 61.703188004378475 C348.3387877601277 44.58973136512677, 348.4739139538997 24.73936749636132, 349.04683412900187 11.729002790453684 M349.9727783940006 59.611575276960835 C349.6784104699448 46.56937098342853, 349.3316628853932 32.85763028327837, 350.9064693919352 9.324840099851432" stroke="#000" stroke-width="1" fill="none"/></g><g><path d="M465.67628104084014 9.56423187512376 C498.6106211696341 12.440685638677689, 525.5025329382577 10.569129438908483, 546.4501106397712 8.121667591412454 M466.84750811852035 9.105136383717849 C486.93816498828477 11.260911936191498, 508.86109124959376 10.90676927556285, 548.018598543576 10.40502659703882 M547.3065303192392 8.821059898819662 C546.5936513398083 27.606576059259915, 549.2307235152489 48.54719706109701, 549.3076852565628 59.63083987433642 M547.0343357455744 10.654356099819218 C547.6755265362286 26.33103450080643, 548.390943338432 42.98227807252916, 548.0054507746097 59.78381574895119 M546.5079036672892 60.7085058020675 C524.474135599837 60.764583348216874, 496.80701217205086 60.90519574288615, 466.2007862706158 61.57079502982104 M547.1857737979336 59.38782427089212 C520.2344326162395 61.34685150990658, 492.8726840910704 61.31470256586596, 465.0371420660724 59.150552248874824 M467.7221269558293 58.274805946496116 C467.77045651018443 40.43877973523261, 465.4736405014058 21.455711929851663, 465.4483154079022 8.458091672414005 M466.9489071338816 60.082031807184094 C467.2318382348492 49.416188791618154, 466.25890360495197 38.69808505631632, 465.039964643471 10.923889244152999" stroke="#000" stroke-width="1" fill="none"/></g><g><path d="M348.94551671701487 349.04445691161106 C428.41056384328266 350.58397625977796, 507.834861629362 348.6899017272348, 632.1762466273113 350.58230206160346 M349.95190506992395 349.62720351403186 C447.75602328563485 350.4360008726401, 543.7662481879928 350.7737606231384, 632.6312938705918 350.67781760824363 M631.4622397538764 350.3105677843649 C632.7700740428318 377.07861100429693, 629.8119940230423 403.5532185919682, 630.1884623507824 479.4405553254787 M632.0829788273218 350.5264260295046 C631.2061053480096 378.62190212746333, 630.7810394535481 406.46535870982274, 631.5911055885513 480.18419339396087 M632.164737614318 479.3004502679943 C531.7334726134491 479.2335571979035, 433.659978402925 478.589040609525, 351.1979880725937 481.21341655656147 M631.5422601182468 480.5557563869433 C532.0760215015007 480.8018147204422, 434.07055620656956 480.9668224545898, 350.26800751687404 479.81943113678466 M350.51957635104634 479.87098420848923 C348.7435220767092 431.7508412194192, 349.5739692364624 386.3621656414053, 351.3436200273267 350.5046223136367 M349.0867906175258 480.29999504795563 C350.90691545233585 437.9401893145082, 350.42229904346357 395.41326296828373, 349.6248744924657 350.8101332379567" stroke="#000" stroke-width="1" fill="none"/></g><g><path d="M375.56172071418257 413.5317550474579 C395.1060929488938 415.463134068305, 415.77910468298086 412.88512871347376, 431.64536300547303 415.590448157794 M375.63046003149026 414.48985020716873 C392.1476106700328 415.32572565393593, 408.4695065503835 415.36978430636225, 433.6341971364061 414.6644606728853 M433.17953636711076 413.71937346049856 C431.4590819958089 435.20434992601105, 434.2256152292133 451.57665784939945, 433.67963285622966 464.6214131529823 M432.94940476174423 414.19536376074115 C433.503207088569 430.9602023998064, 432.6210503049756 447.61383999054397, 433.11159221610166 465.13758594439497 M434.46686028206426 464.31056223628156 C423.089452101973 466.744593828918, 410.3738598518743 466.9973247047676, 375.6199311983858 466.2356898932716 M432.74670106849624 465.4462250633947 C419.04703950927785 465.58351262484103, 402.85913434459826 465.3740875887455, 374.5430469351969 464.7703787270691 M375.88709465988427 466.1612928696036 C375.48336454021916 453.1542182130891, 375.46513749583266 443.16419414375116, 376.06052799037803 413.7200597541421 M375.67634620810213 464.84417366271794 C375.6600470689083 454.5659456180403, 375.68282854640296 444.14755982799505, 375.4826442091692 415.76601075052645" stroke="rgb(0, 0, 0)" stroke-width="1" fill="none"/></g><text text-anchor="middle" font-family="Consolas, Courier" font-size="20" fill="rgb(150, 100, 28)" x="404" y="445">id19</text><g><path d="M431.8003178040059 415.9659340813426 C452.83029917033616 416.4347157845268, 475.0221046235558 415.6923177669043, 489.85773716230295 416.5563742440953 M433.98634499518664 414.6252132506208 C447.1918146264817 414.62938902463003, 462.51654005962723 414.312907791946, 490.7093374713955 415.06149328110894 M490.57242368494826 414.8973475896264 C491.0841627058695 428.0411682271731, 492.3745913061666 446.42993085456794, 492.0081905530535 465.7887347232666 M491.2628230287285 414.2588961128933 C490.94507693327586 426.69265414346256, 490.4103517745368 439.7679189486043, 491.89692451182407 465.3075679791858 M490.1044354917759 465.4577715098504 C474.3201237481458 465.7247323153609, 461.5856027659717 464.282551341746, 431.5044459583718 464.6450176461866 M491.5148409241996 465.5830523613223 C472.86992980381467 465.93697811328883, 455.4940532872539 465.3772442738405, 432.3742283005801 464.9268960590524 M433.7927341653955 466.6063606280927 C431.9461083345773 453.4449810317793, 431.70869558231243 438.8329153956972, 434.31570083309975 413.39890601485956 M432.7663551920535 465.0103472535513 C433.4762076385088 450.23493906292913, 433.4737311397684 433.93968340270783, 433.65782705127833 414.18081914950443" stroke="rgb(0, 0, 0)" stroke-width="1" fill="none"/></g><text text-anchor="middle" font-family="Consolas, Courier" font-size="20" fill="rgb(150, 100, 28)" x="462" y="445">id43</text><g><path d="M489.1364862494886 415.78963248747993 C504.62868677572226 414.9960421663475, 515.9964606832948 413.704487459682, 550.6865973400603 414.8195251644434 M491.5700598303753 415.89773870033946 C505.8112137471076 415.14081392495774, 522.481212755582 416.1016156858083, 549.7408449431648 414.97261673681663 M550.5441007745445 414.861436402963 C549.6354548618006 434.43819582599525, 549.1520767587343 452.7639396667474, 548.3751064278075 466.8607966118378 M549.5077629079589 415.4949701083167 C548.4842553135026 427.43893704434527, 548.2625342944059 439.4982765525179, 548.777413351272 465.981322321721 M547.8091475826561 466.5027414661458 C532.1898770139152 465.91224851147217, 518.9269944009418 464.0434987909318, 489.122299450336 465.491786309666 M548.9371022686091 465.0253966571591 C529.2145837716824 465.4135585282378, 511.78843587356477 465.45003342713096, 491.38835548369116 464.75236160405666 M489.1482024079892 465.0011334378497 C491.6143567922885 445.1809837865554, 489.9209791294487 429.253311399773, 492.4251963213833 415.85516207957085 M491.23821664060773 465.89342433486934 C490.2572791185394 455.56515813339746, 489.8954056322164 444.4979273370816, 490.6289811604309 414.42978907989647" stroke="rgb(0, 0, 0)" stroke-width="1" fill="none"/></g><text text-anchor="middle" font-family="Consolas, Courier" font-size="20" fill="rgb(150, 100, 28)" x="520" y="445">id28</text><g><path d="M549.4380002381407 414.36721555853364 C563.5229406493474 417.24034345721, 580.3774461584932 416.95052308322704, 608.4862016363588 413.6031008482588 M548.7945116073223 415.3193257247747 C564.7635034433573 414.97325355838615, 581.2659087248597 415.25798066177737, 606.031904830626 414.6230927922263 M607.4619934821801 414.98133882708487 C606.249671475178 424.7551259008539, 606.5412623558481 439.5679677687913, 608.113371980486 465.93557529125866 M606.922155700012 414.96723397300116 C607.251504874398 432.6097715744915, 606.3610840863645 448.8613478590115, 606.3483234092982 465.03673981024065 M606.4707547170259 466.66894908714795 C586.1937172525268 464.87109637499685, 565.5992348178986 463.7447539639537, 547.5021831306148 466.8134859147381 M607.666223468579 464.9764470079602 C588.498074680601 465.4805980921719, 571.144710191519 465.61280330334773, 548.8404161528726 464.3223268304768 M548.3034880415248 463.593399462522 C549.274734220327 451.5793927666799, 548.5346946241758 438.61250419613356, 547.5498898500584 416.56936795047835 M549.9559297675298 464.04794638545104 C549.274879494235 449.95473418340663, 548.4815334312323 436.59397905466625, 548.030427907801 415.09474234782897" stroke="rgb(0, 0, 0)" stroke-width="1" fill="none"/></g><text text-anchor="middle" font-family="Consolas, Courier" font-size="20" fill="rgb(150, 100, 28)" x="578" y="445">id49</text><text fill="rgb(150, 100, 28)" text-anchor="middle" font-family="Consolas, Courier" font-size="20" x="380" y="380">id82</text><text fill="rgb(27, 14, 139)" text-anchor="middle" font-family="Consolas, Courier" font-size="20" x="602" y="380">list</text><g><path d="M348.76626234335595 348.04777182237166 C371.1592327372384 348.0685017678429, 389.815978011343 349.9203928041749, 410.28207922218695 351.78659152710327 M349.97409904453787 349.9369081328231 C371.9623126267913 350.8218359222745, 392.2070927760193 349.2913606006075, 409.8041918846669 350.1459302537749 M410.7397216934758 348.12742091870587 C408.91205264614143 365.70618492980475, 408.8477775861244 380.11859827087096, 411.5528284304417 400.0245612313499 M409.6686817626389 350.5399236617938 C410.78483211275227 361.77070863789055, 410.292419370878 371.2617080552913, 409.7498662358505 400.77175465130387 M411.7400822322992 400.66114515300706 C391.6369533042097 400.4651552222118, 375.1763362373916 401.1580012424366, 351.89118770739697 400.1603712076133 M409.96428476730114 399.64997579730493 C395.0817521935869 400.4149035186489, 380.4810778561911 399.8273088954744, 349.63133569034966 400.11417443993645 M348.4902401406497 400.4119352228853 C352.1541311424322 379.1145317560397, 351.8723778717851 360.22360079631926, 349.34788204016957 351.21247083578254 M350.41367119813356 399.70728585478645 C350.3422738379018 387.4253016411847, 350.4540487700948 374.9603414746462, 349.0605768190152 349.05808619469093" stroke="#000" stroke-width="1" fill="none"/></g><g><path d="M570.3756743019652 348.9135462420343 C589.8275584493414 350.63939793643544, 604.011866555236 350.4572762710102, 632.6933176488475 350.0793775081008 M572.2165481925913 349.874090162856 C592.89443229034 349.45870783991404, 613.6414868186359 350.2618093522054, 632.5807517685155 349.00135914221727 M633.7868075462817 348.5095551334198 C630.9153462952116 369.58644994064286, 632.7670852506748 390.02408782366865, 633.6675457760946 401.1254222958485 M631.3902935383264 350.3475553575617 C631.3778625613468 368.12551725726104, 632.7544363295409 386.0458380328087, 631.4852493148778 399.7926238788633 M630.2533511695966 400.70154716518823 C614.3273916205795 402.18974683344635, 594.7852641675825 400.6928013435111, 572.4942030415168 399.7508537550661 M632.5694307570691 400.7216082235053 C613.6017252023759 400.0745070247451, 597.5967827085994 400.4682052950548, 571.7718259233694 400.73783232781955 M573.8463184036061 400.2256458113488 C573.4433602390915 387.8411314637386, 571.2392952941875 378.95606355826226, 571.1727773586621 348.3842717275211 M572.4486164459992 399.7398319427735 C572.5583422648949 386.98044497665194, 572.2901624715636 372.29708709951393, 572.2523685943638 349.2912080480081" stroke="#000" stroke-width="1" fill="none"/></g><g><path d="M351.4412503613466 599.3170988290343 C461.4171719723944 597.0023470152206, 571.1821632761353 597.3526500728582, 631.6625161488766 600.2801964136742 M349.91388203861527 599.9254244672277 C463.16166814206 601.0661931630978, 575.363718757063 599.9407248593589, 631.6949537731523 600.6327020278674 M633.2068037315531 600.4949179459924 C631.7847155286656 651.7844257271107, 631.6371362621949 706.6016875667967, 632.8679219413528 751.0031483373731 M631.7559792324015 599.2178008200538 C631.9922815222565 640.5709065211998, 631.1173602034472 681.9422974858803, 631.6769117125439 750.7827175804814 M630.987286483366 749.8902649102413 C526.1015503196803 752.0613176155026, 419.87459778014176 750.5599186931199, 348.69821901946045 750.9229862782927 M631.9483669617885 749.4827436390661 C540.0881298614545 751.1584994679532, 447.7350931571579 751.7057433362834, 349.683005243319 750.209746439509 M350.82606034172414 749.4840764265155 C348.78510956680896 704.993530274416, 347.66250104525733 659.3001130324498, 349.2538056142841 601.494012441402 M350.4952882222469 750.5835462132295 C348.98082764815723 714.6412627997342, 349.46202636417564 677.6758843163084, 349.25633700015965 600.024509342992" stroke="#000" stroke-width="1" fill="none"/></g><g><path d="M373.55440490707775 683.9143827537674 C389.2782714470094 684.2581795811038, 402.53235991142753 684.8244453273533, 433.1001959603402 686.0970836701983 M374.54538244991306 685.3261936301545 C387.48309218372395 685.1271410261382, 398.95689722214547 685.4412820574715, 433.9932800090777 685.3570966071443 M434.27098462177446 686.2551311091439 C431.8983437158885 697.2169685054575, 432.7822838498071 712.322662960689, 431.90551697227556 733.6376142465141 M432.0684665622378 684.0543869100918 C433.2659591604197 701.1807493715102, 433.78025503913466 717.8573825487842, 432.6938529845526 735.3364880655174 M431.75680595844807 733.8069489485974 C412.3965800919712 733.6442854048071, 394.76640013916557 735.6046087961976, 375.9798683692614 735.1183803793729 M432.5277804308333 734.1633903078664 C413.39501980771456 734.4597735192569, 393.34279248941766 734.7361483717552, 374.89949071708065 735.7066110643422 M373.57129585995597 734.4610119597186 C375.66477520988445 722.8053750212143, 376.54432513732326 709.2884088538793, 374.23548310200067 683.5257559635487 M375.62280387667994 734.3686378785727 C374.68040460914784 718.1931531245249, 374.7939921277652 700.133632211685, 374.0842175969551 684.5639674481597" stroke="rgb(0, 0, 0)" stroke-width="1" fill="none"/></g><text text-anchor="middle" font-family="Consolas, Courier" font-size="20" fill="rgb(150, 100, 28)" x="404" y="715">id32</text><text fill="rgb(150, 100, 28)" text-anchor="middle" font-family="Consolas, Courier" font-size="20" x="404" y="672.5">0</text><g><path d="M431.06931244660433 683.7685913698505 C456.3885522319887 686.5046985916854, 477.685449325788 683.375960452283, 491.27498894220815 683.6387589138681 M432.49344611930627 685.6263016781085 C446.86665244871875 684.6856033947231, 462.7134384831894 685.5647360262781, 490.8720209803797 685.1326435410405 M489.0062290097645 685.2308174187053 C489.1635540380922 699.4506642075582, 490.1545122302253 716.6871357299098, 489.27374071908685 734.8324107320685 M491.7883846156633 685.1718082460736 C490.4580495879064 695.8876626728044, 490.9135527149463 706.3006832335446, 491.45834713615915 734.0362922241058 M492.34730911799954 735.9551314697645 C475.4644644084611 737.2246619092546, 458.1060506230225 734.4776324260987, 433.3033324714269 735.3053828766583 M490.24948245326283 735.5809818292598 C479.0640722079975 734.5161468299848, 464.6704073669703 734.763975812201, 432.44973278672603 735.2485007278781 M434.05818603268233 733.4493478518064 C434.8745601734655 718.6885230675504, 431.6019554333118 703.418572251001, 431.827612654596 685.9396558570838 M432.7283638688537 734.0681377590416 C432.851276654879 723.8601582769976, 432.709556334842 712.8087511133217, 433.4263455558881 685.3939672228122" stroke="rgb(0, 0, 0)" stroke-width="1" fill="none"/></g><text text-anchor="middle" font-family="Consolas, Courier" font-size="20" fill="rgb(150, 100, 28)" x="462" y="715">id10</text><text fill="rgb(150, 100, 28)" text-anchor="middle" font-family="Consolas, Courier" font-size="20" x="462" y="672.5">1</text><g><path d="M490.88273480811375 685.2730065373133 C511.75150310131045 686.0148484000053, 532.9271990967941 684.9310999964016, 547.8105517927795 683.9272173018431 M491.936633145939 685.5646877728693 C504.96342155074393 685.2624924998466, 517.4284416055231 685.9038728303866, 549.8115737269275 685.0022093846392 M550.7133805382916 684.3380405100291 C547.0167898635411 699.3276087511812, 547.0589545387105 714.7874685343725, 549.8236031780667 735.7656922016321 M549.0239754128937 684.5449134673643 C549.9059119848229 695.9217456573753, 548.9819956808768 705.1630720362492, 548.3575323745869 735.1031886649218 M547.3711454535818 736.0981919758582 C531.961942547008 736.6568295217323, 517.8214296592483 735.1613676110524, 489.7657030757779 735.7135009176016 M548.6909094448655 735.795955818207 C534.1044002417104 733.5792858014898, 518.5780361171086 734.3672750938777, 490.52417459370224 735.3433359934802 M491.52892513857427 734.4611225508318 C492.55596652819764 725.234119032816, 490.845804802759 714.3569423883771, 489.3111447887613 683.7646401009013 M490.0704695081586 734.4799688314309 C490.7525307115468 716.1563908125464, 490.2837354240195 698.4552852413843, 491.6947295110955 684.9884888109074" stroke="rgb(0, 0, 0)" stroke-width="1" fill="none"/></g><text text-anchor="middle" font-family="Consolas, Courier" font-size="20" fill="rgb(150, 100, 28)" x="520" y="715">id90</text><text fill="rgb(150, 100, 28)" text-anchor="middle" font-family="Consolas, Courier" font-size="20" x="520" y="672.5">2</text><g><path d="M548.460994838077 685.6117485318022 C567.802405909858 683.6842033812641, 586.024091886288 684.8977094668768, 608.0346955004848 686.3640172354711 M549.5931141732163 685.8811883353287 C563.9063435874859 685.0544741419433, 578.1365363821183 684.0299533123336, 606.8265278662799 685.5233933637046 M608.138686753581 685.4981590934024 C607.2509682402064 703.0482545772581, 607.424463825397 717.842496920828, 605.5334105828094 735.9424165826592 M607.2547912797756 685.4451960515275 C607.5596092604032 698.4934265072923, 606.965340700934 712.0300623005515, 606.7124100478088 734.4241218501634 M608.2543609867689 735.5627031741437 C596.6063329192837 733.2460807269603, 582.1817084362899 736.3414731698124, 550.6138482621268 733.5626693326227 M606.7929695694287 734.2996637221396 C586.4089541593868 736.3586971960739, 564.8050020863865 735.5553983679091, 549.9453143878256 734.8714694767565 M548.5489569223331 736.7857700742168 C549.5846831957346 725.34580875996, 546.9411109490884 714.1005102956426, 547.1198372304342 683.9073089910888 M549.7342685621678 735.2189481373546 C548.5180782116039 722.8683431094795, 549.0184025268646 709.8707607881447, 548.1577534562557 684.6472692210518" stroke="rgb(0, 0, 0)" stroke-width="1" fill="none"/></g><text text-anchor="middle" font-family="Consolas, Courier" font-size="20" fill="rgb(150, 100, 28)" x="578" y="715">id57</text><text fill="rgb(150, 100, 28)" text-anchor="middle" font-family="Consolas, Courier" font-size="20" x="578" y="672.5">3</text><text fill="rgb(150, 100, 28)" text-anchor="middle" font-family="Consolas, Courier" font-size="20" x="380" y="630">id84</text><text fill="rgb(27, 14, 139)" text-anchor="middle" font-family="Consolas, Courier" font-size="20" x="602" y="630">list</text><g><path d="M348.09773270410676 601.6477880788017 C366.56823165443535 600.9760111044362, 379.1486603052427 598.8368818817155, 409.46985058554145 599.9315335719787 M350.4083816638925 600.4468740506436 C373.71905984751317 600.5784631379695, 397.5100659258895 599.7605912454605, 410.3302977176231 600.2166441353751 M410.81452379889987 601.1564050489778 C411.0579205086663 615.7627040810288, 409.1207769764237 628.3426780482636, 410.94550472801797 651.8225974577712 M409.7297566293304 600.6645138741386 C410.96298691889524 610.7952854548888, 409.32184229027604 622.5944879018455, 409.5681367709688 650.1683432534401 M408.28907869934125 648.618852444418 C386.6111748404515 648.7992254378669, 361.38406065082444 651.432013634609, 348.74830461211025 648.0929696989857 M409.3154339085708 649.3647808911747 C397.24547723451144 649.8147950301852, 384.14565681495867 651.462049549608, 349.0706612071245 649.0288803560787 M351.5198601098417 649.6554912803163 C349.6087150323733 634.9788235659786, 351.04695658072603 621.7792920792309, 349.43082951897617 598.5280582699709 M349.0976983884273 650.099322432521 C350.15912664942744 632.0519394984799, 349.7523800874425 615.8939996504998, 349.1502514333403 599.7025347178371" stroke="#000" stroke-width="1" fill="none"/></g><g><path d="M572.5616036003198 598.5091742967971 C591.4872289655095 600.3299984433197, 608.3343892963696 600.7694132291981, 632.1422209323356 598.0705400184589 M572.658223960038 600.3885604554127 C593.0258085514304 599.5954212246374, 613.2133342537313 599.0010343046594, 632.9587227766021 599.9845687530561 M630.9272074024997 601.4897130769016 C632.5799330279405 612.6811502297718, 633.745351042993 623.0361030500711, 633.745645198732 649.2814583479212 M631.1875699091506 600.4579610655181 C631.799400224688 616.407934667334, 632.5811322874405 635.4440265927911, 632.8278512619834 650.9211747601306 M631.0154223574727 648.2785590337735 C606.7464206715545 651.6388080955045, 586.7296299160241 651.413550130427, 572.8656139367862 651.1986984239403 M632.9022413275219 649.0788259221422 C615.0311050619856 649.1737843393777, 598.7582231938891 649.7276694449451, 572.5098634586084 649.4557474559379 M573.5248432319536 648.8847775945358 C573.9727711821345 634.154282754385, 572.1076164667999 614.3101350333297, 571.2349291087419 600.9268211254955 M572.2677439880023 650.185042331357 C572.1313659933594 636.3239825159983, 570.9745484053703 621.7974736944981, 571.2733960751013 600.2607359510301" stroke="#000" stroke-width="1" fill="none"/></g><g><path d="M748.479588623156 9.148688213175848 C830.4961381715809 10.371269718378198, 908.4362207013553 12.233501554883468, 948.9311967305805 10.484607664187196 M750.5501538024583 9.86913545794849 C794.8788868613757 9.323997081833086, 840.7187172256998 9.527166672005901, 949.6617552690482 9.701610462972843 M951.620002027833 10.515323248211814 C950.3412510567368 46.5375102477067, 950.9317626747461 81.13791762790204, 950.6118616931276 141.90265915303272 M950.5384662813914 10.95278197008431 C950.7526175985067 54.41763143313239, 950.2007468150465 99.03368566521183, 950.5657537153602 140.89676843867286 M949.1975543938604 141.10048488489866 C891.7130382172876 137.40173494948536, 835.2085135707979 137.9081467485626, 748.5633631420635 139.31310759007928 M949.3963635142626 139.43387720078977 C900.1510023814187 139.56953350290397, 849.7465240243567 139.74626281300348, 749.8058399053484 139.2170253437028 M750.4073309018473 141.9865688531747 C747.9643092400688 94.75504170143832, 748.058308927245 47.053569474012185, 751.004944759817 11.838003303615452 M750.973139096212 140.86009494965774 C749.2267227088294 109.40175680571902, 750.4442953996103 77.7218810620214, 750.5617986595232 9.097241354749851" stroke="#000" stroke-width="1" fill="none"/></g><g><path d="M745.5480641911373 2.952642252610582 C793.5000787728633 6.493909123665373, 845.024178437809 6.1387521793200195, 955.1429092224047 4.581442656774791 M743.8882213664974 4.683891910958965 C807.8989947771 4.0907398561988995, 871.4983823935232 3.9027901938890506, 956.4678774543048 4.08997150435074 M956.7968075452694 3.0850683755606436 C955.1527166718862 50.1495149017346, 957.7247552888413 95.41308216564728, 957.6503954922464 145.5887234411136 M956.9809389394719 3.2400326865379245 C955.730164758516 52.72085675388489, 955.6233592200061 102.72429886024439, 955.5173793016804 145.5721396614822 M955.9168800961125 144.55532577200356 C886.2938309178065 143.52084665595507, 812.9735219455451 144.6595987008082, 742.9416310564429 144.41335008040485 M955.5269038789955 146.40840312735065 C894.5974787473734 147.2818729152611, 832.8457538462936 147.13999991332892, 744.2782310334387 145.88305748771646 M745.631240790582 147.41939522355958 C743.9468854913995 98.16368063545373, 742.1159469382608 49.05195459937485, 743.150866110424 5.015326863587858 M744.9911940369833 145.92201786015454 C744.3109123222774 101.28025002118356, 743.7384060804915 56.89518302582387, 743.8892959403453 4.6496773944040175" stroke="rgb(0, 0, 0)" stroke-width="1" fill="none"/></g><text text-anchor="middle" font-family="Consolas, Courier" font-size="20" fill="rgb(27, 14, 139)" x="850" y="100">1969</text><text fill="rgb(150, 100, 28)" text-anchor="middle" font-family="Consolas, Courier" font-size="20" x="780" y="40">id19</text><text fill="rgb(27, 14, 139)" text-anchor="middle" font-family="Consolas, Courier" font-size="20" x="920" y="40">int</text><g><path d="M750.7517210580763 9.197899513191285 C771.3445346723053 8.337177032226304, 792.0580904589847 11.591523060650399, 808.516190282013 11.596432761292062 M749.2050743288405 9.519241566569182 C772.3561748537427 10.758240047248119, 795.0113459017906 9.13882655097277, 809.9017513840579 9.876503502151959 M811.9504813988573 9.177130333768279 C810.3764767092963 27.97307094458464, 809.9538200913628 48.06669719804566, 810.649149380048 58.55995736160783 M810.273880659005 9.535622118435008 C809.150103750136 22.068262380322977, 809.9879306631769 34.19505210656756, 809.5946167365796 59.83539952119001 M808.6579779799035 59.09399477293185 C789.2706758424557 58.94561615941928, 773.324892201039 59.35774930251551, 749.2192730624068 58.13390358696559 M809.7689399729444 59.60531656619952 C785.9020481459739 59.908102059502276, 763.2894716614765 60.76115985665935, 750.591597154477 60.86578486458751 M749.098776317594 58.45490656976921 C749.8391561512967 47.90959537773865, 747.9485062442691 39.863989269964385, 748.4792263839655 10.93980038116972 M750.526746858118 59.29021402927096 C750.4582525615566 44.0206000693231, 749.5222818340628 27.626995334731532, 750.26607799691 9.773265693549655" stroke="#000" stroke-width="1" fill="none"/></g><g><path d="M888.6619943443919 11.663411887536926 C911.8944070245672 9.146879370901448, 930.9592666782728 11.257987747186448, 949.2977095345718 11.144330189172159 M890.3222737114877 9.363142633788133 C912.4243687826813 11.379496318173663, 935.2286557568514 11.16011769183013, 950.3354855886219 10.889452100783728 M949.7502184287106 10.437117509281666 C951.8069597708918 25.940149415569223, 950.1980672156458 41.73766594168157, 949.6325001927632 60.12716344898513 M949.5351316746243 9.762227897177077 C949.7820932528758 27.945552123942175, 949.4695943434534 45.3568982424861, 950.1077665054349 59.79090104836651 M950.2407567275887 59.51038160266859 C931.6761557041825 59.31286696955541, 915.6622658261808 60.323820842556415, 891.790652001248 59.320029777520354 M950.0051313784193 60.3724299844383 C928.6261091622775 60.8289180431539, 906.8724771665062 60.357759297574894, 889.7626860192098 59.79155005187148 M891.0366691400185 58.89144020514175 C888.2068623221481 50.208217593515606, 890.2044605922472 39.07373400705056, 891.2233995719948 11.882405114669407 M889.3947670800752 59.91188014887247 C890.0401852835461 44.809581025999364, 890.0491793994164 30.64564729863688, 889.2918514211627 10.48842349489472" stroke="#000" stroke-width="1" fill="none"/></g><g><path d="M750.0495078371813 249.34871145910813 C810.9057342399881 252.96047633240642, 871.4047165941228 253.35499408857382, 949.6178379590195 249.81103714643302 M749.9826396329003 250.81829029804757 C805.2080891335501 249.55318065864464, 859.9117607095814 248.7847835369947, 950.1443230396832 250.2492986084043 M950.4647428409695 251.7061285647044 C950.5720862835067 295.5730779380084, 951.000131073658 340.30365711412486, 948.9283749571772 381.9550476445157 M950.0546118002385 250.64919459415205 C951.5955139277261 299.8928364552257, 950.5802646766047 351.50928310830324, 949.8194194583137 379.05228950273397 M951.6916547458245 378.95075029787336 C894.5079394928424 382.04566214981327, 839.5393723674604 379.7102220063281, 750.2647518892143 379.0456555414815 M949.6208422908267 379.31860930672076 C907.7702573816686 378.3427411114171, 866.8860437489255 378.41705156482925, 750.3502796245103 380.3878085975687 M748.9080330861641 379.47264792823745 C749.5931203310186 337.910231982571, 749.6029490669877 298.9139373914261, 751.7503064471746 249.38064645905956 M750.598868148773 379.5478435907917 C748.8912468210019 348.38395530011525, 749.8580120897482 315.4177259526696, 750.135966611198 250.93495261385746" stroke="#000" stroke-width="1" fill="none"/></g><g><path d="M742.2407682671612 243.68278151465128 C802.1363018039796 245.71885355976423, 863.7506428207724 246.35095382888667, 956.8128586288743 245.24611831871354 M744.7457004311352 244.53478572620244 C819.3461492722453 241.60488774457397, 894.1417347844074 242.9104529267774, 956.877289855115 243.63510905716052 M956.9589256512045 243.68056647119116 C956.9648921210397 298.9690596597855, 955.8442182091383 357.6133625935722, 954.0182122059517 384.8550147281084 M956.1233494996624 243.34299641651975 C955.0879739592885 289.41434147245576, 956.090434523465 332.931408639056, 956.394682519253 385.56063652007384 M956.6659994260036 387.01617460700555 C910.5248744306425 385.5702418378497, 867.2834119906946 386.43418852220844, 744.2315116059376 384.540530978695 M956.2430310298669 386.71371713109903 C880.190064697113 385.1172721088035, 803.1946010085087 385.4641907861874, 744.4332383968219 386.443641199107 M742.8917658684678 384.34960616166103 C745.0908930942073 355.519188864751, 744.0562521087727 328.73766733168026, 742.4378410387332 244.93650113113102 M744.7457942916652 386.7080978970263 C743.0538003396842 339.56088721161075, 742.9065875732164 293.18822651300775, 744.4062306856929 244.55487123292653" stroke="rgb(0, 0, 0)" stroke-width="1" fill="none"/></g><text text-anchor="middle" font-family="Consolas, Courier" font-size="20" fill="rgb(27, 14, 139)" x="850" y="340">True</text><text fill="rgb(150, 100, 28)" text-anchor="middle" font-family="Consolas, Courier" font-size="20" x="780" y="280">id32</text><text fill="rgb(27, 14, 139)" text-anchor="middle" font-family="Consolas, Courier" font-size="20" x="920" y="280">bool</text><g><path d="M749.282942874921 248.31939578671046 C772.8254535544182 248.69071333068004, 798.1600093165604 249.08199199262313, 808.6168993414628 250.7316721982083 M749.426861438774 249.05323746410198 C767.3020927353207 251.11097162983162, 785.9108638584913 250.76795476543853, 809.2135794491796 250.88463837449783 M809.7849587448479 251.11995503025514 C810.5669579117991 266.37040543791653, 809.6782604892236 283.4993969148242, 810.4048759103848 299.08545602128135 M809.754948734825 250.8312646989913 C809.2660292640339 269.523027964659, 810.3883345151778 286.69286373570367, 809.972167163621 299.8560143069747 M808.8878479942264 301.133988260593 C798.2749312999837 300.9991467429705, 782.9355296017434 301.3134046518968, 748.7930687143605 298.6496590779396 M809.0497117565583 300.9910446378349 C791.705546142551 299.9871654651868, 773.0644015595367 300.4645473213552, 749.5143627096588 299.8537007761466 M751.4695429156911 301.27807484923414 C750.6539442874389 286.5586647792333, 749.4195144384835 274.9649879501799, 748.1059283584074 251.9526803095549 M750.2016579202605 300.28571428540636 C749.4479595812419 282.6974077539167, 749.6000937959357 263.64694962477125, 750.6303905804641 249.06158348766024" stroke="#000" stroke-width="1" fill="none"/></g><g><path d="M890.829543564034 250.14915243863177 C911.589232842184 250.69075541067414, 930.3490705450718 251.78937986454272, 948.4565909932709 248.53467837856778 M889.0429165439527 249.50974255040583 C906.9195837489667 249.15407775603575, 922.8690577997975 249.91930403537162, 950.4304027160665 250.51682498588752 M951.0576168348259 250.18908837544802 C948.8100777611571 259.119643773647, 951.1752029974306 270.166530328551, 950.2238159559805 298.3954228012706 M949.7791932405278 250.019229603449 C949.5179828285573 267.50463563149265, 949.8360114777397 285.2218604855809, 950.038483554198 299.1331148636033 M948.5970072087802 301.9885393248286 C936.7535085237133 301.06278242918245, 924.6169697272082 301.4347336365486, 891.0498724979732 300.88456858166006 M950.0671541354936 300.45236032076014 C928.369575643934 300.3862736162586, 909.0145526941944 299.9849906064447, 889.7118332117117 300.6108727247158 M891.4984238706621 299.52021600752147 C890.9351040081939 283.2920364331543, 889.6916469920982 266.2678554679951, 891.1589800645478 248.27045668101772 M890.5786469336599 300.38013109629685 C888.9568279089567 283.6638740509435, 890.3649644725684 264.6322618521789, 890.0465248310812 250.89692862667926" stroke="#000" stroke-width="1" fill="none"/></g><g><path d="M751.6549101735235 501.0960466130594 C829.0633252361233 499.2825518451359, 907.4237240953014 499.17642325844287, 949.9654776352465 500.20686639031334 M749.8264517458136 500.24898975789927 C817.9502761303526 500.8860580144755, 886.76226676797 502.0945112143268, 950.0527490316737 500.8810728241101 M950.3132489178953 501.5814658106307 C950.2700329977143 542.8543751295205, 949.052356289208 588.5741380222133, 951.0478956113408 628.8381868327346 M949.4970059043874 499.54430355701385 C948.453033250566 533.5472466669587, 949.6005073685542 566.2721170563888, 949.2110334293474 630.4947762511732 M949.4283125596847 630.5242094984839 C899.3251357357121 629.7990310082488, 845.44219164329 629.4934305176906, 749.236993634379 629.2459519090701 M949.7776526212409 630.6958313983483 C902.418004461347 630.0419277413749, 854.9989982087286 630.8277575931858, 750.3132975738613 629.8361000472867 M749.2516860820672 630.3163753384538 C750.912507420074 588.2572242288388, 749.3958993031279 549.4298924608566, 748.2248609993051 500.260509518429 M750.6169873588447 630.1847826130523 C750.3941105750814 584.5431247263865, 750.1652287505065 539.6908885153543, 750.5579828044557 500.9975209345715" stroke="#000" stroke-width="1" fill="none"/></g><g><path d="M742.3774807586277 493.8873870332231 C809.2709905410553 493.3731744695635, 871.5754625339653 492.5672262703064, 954.3335104722589 494.13371762790416 M744.7491623091366 494.4053158275954 C812.166082637202 492.9946995917552, 880.3250538697597 493.6886613484445, 955.4742144703893 494.72480436287384 M956.41598856592 492.1469962774117 C957.6637464359987 530.8705819344569, 956.2985681973481 569.8423106389164, 957.2581929311184 637.3989421993581 M956.4840898512161 493.8610239036872 C956.6982064462306 532.0362683845717, 955.4374468431663 570.5252780420055, 955.0459452784634 636.4629807061112 M954.9332976192653 634.8083322645374 C913.6565952609553 633.9385893761556, 870.5970870938621 634.9087314519692, 742.6616193173564 637.2300171455081 M955.6815711627402 636.3943957651247 C886.596308638033 635.2798333590796, 818.3344955377795 635.8415706177426, 743.9915676187362 635.3848335567759 M743.1131375292235 634.8685871329718 C742.6411608207742 591.2581794065666, 742.883274974539 550.0571279967693, 745.9296616749126 494.45840599989725 M744.0799166362243 635.410186339602 C743.0031382027285 583.1077661235149, 743.7793161968198 531.6031759405614, 744.4655877967338 494.3837854683369" stroke="rgb(0, 0, 0)" stroke-width="1" fill="none"/></g><text text-anchor="middle" font-family="Consolas, Courier" font-size="20" fill="rgb(27, 14, 139)" x="850" y="590">"David is cool"</text><text fill="rgb(150, 100, 28)" text-anchor="middle" font-family="Consolas, Courier" font-size="20" x="780" y="530">id43</text><text fill="rgb(27, 14, 139)" text-anchor="middle" font-family="Consolas, Courier" font-size="20" x="920" y="530">str</text><g><path d="M748.08642055484 499.92635437985143 C771.4121681679303 497.9371047950399, 792.9641055655414 499.2951465398161, 810.2864277213737 501.47229533518964 M749.1348006258631 499.11368333362 C766.2214513336542 500.75044706455844, 784.0421341924588 500.45214694217634, 810.9188889752329 500.2568931520953 M809.3494663818512 499.4211787123499 C810.0292816073155 515.8481215201139, 810.7068749018856 530.568997314007, 811.302157051429 548.82464545136 M810.2187867193451 500.37029662548423 C809.545461078647 513.8311894472936, 809.121538241164 528.1094781430346, 809.2788999833843 549.7008994214127 M810.6610621532984 550.0512525732807 C790.0783401729525 548.8332645022026, 773.2304507500409 547.7599428456354, 749.9423413632366 549.8396625672332 M810.9217707862954 550.185608176793 C796.3334249821127 550.4242126142595, 781.2535699198514 549.0787121350972, 750.126935668439 549.9127504610193 M749.1241016647981 548.0372257045215 C750.4944116330545 539.8644931322214, 750.0422023482266 530.6410202396628, 748.7408495991128 501.13328045277535 M749.8257025475433 550.2278079825279 C750.3590637094919 535.5172762539042, 749.7579618787594 520.3035652356671, 749.3019609337123 499.2573051416204" stroke="#000" stroke-width="1" fill="none"/></g><g><path d="M888.7443850634387 499.1122718259184 C905.5514804248078 498.61451129032935, 920.5821663127759 501.7179522995315, 948.8808218059299 498.1268920252748 M889.3571044543182 500.0535251234199 C910.3077414283518 500.0410357533326, 931.6466086814783 499.5723758073632, 950.3135164261345 500.20188479152836 M948.6553349518399 500.75727950632864 C950.6741859130154 516.9063044111921, 948.9567253872591 528.1487232359806, 950.4662039901809 549.7312803065195 M949.0375324271679 499.1432634128323 C948.8723300747116 513.8952005030847, 948.8915777703046 526.7412149113927, 950.7892665053399 550.4714117074004 M948.4291429938967 549.8862940210496 C934.7098422419318 550.0712814307759, 921.1367144987418 550.6687389393853, 890.9102400936409 548.1688949889485 M950.0023331549073 550.717247870701 C932.0520967217456 551.2250538532328, 913.6273427223522 549.7272688806247, 889.654802900656 550.320564218685 M890.601683569152 548.1621395857594 C891.0337210593189 537.9668320022497, 889.0381706282744 526.594775299154, 889.354189146336 499.5085045300931 M889.3135185421924 549.7914108920589 C889.8592146116774 531.8976528463809, 888.9400597170917 515.5830019118732, 890.7473609871405 499.2581443788455" stroke="#000" stroke-width="1" fill="none"/></g><g><path d="M1051.2259017143956 39.28805724340154 C1094.8204830759814 38.231762513130036, 1143.4227563195489 39.78046159613709, 1249.8408879180124 38.38764795868414 M1049.8114677730546 40.00003195575287 C1114.6548337471754 42.01850670486586, 1178.9324222271664 41.527190763861796, 1249.1613840183352 39.23131085416101 M1249.426486306636 40.82760080452101 C1249.6177989457074 76.24650163507228, 1248.7528933631347 111.79118499231386, 1248.4095493461366 169.56454814831716 M1250.9858738272899 40.65986284225171 C1247.764255048557 70.62633860995828, 1248.0554158356497 101.87327867757377, 1250.3536817060524 170.33653928925352 M1249.0109112913044 170.4916657431524 C1201.3796396253233 170.50218065796872, 1156.2756508111645 170.97196569202507, 1051.3537740569793 171.44782940430048 M1250.546944840597 170.7144796403739 C1177.045382342724 170.72240277846754, 1104.0852513729808 170.4581510067061, 1049.4403521153329 170.13562917050572 M1050.8487154383488 168.25886496441626 C1049.7493343578158 141.86213417183419, 1050.6150546175922 119.30555448630304, 1048.4532724669302 40.99103897459623 M1049.6539220663476 169.6684049047338 C1049.1227837240156 122.21269521132628, 1049.1512245463146 76.69951209842216, 1049.9999385010863 40.13743238179854" stroke="#000" stroke-width="1" fill="none"/></g><g><path d="M1043.8338879025603 34.0435193686346 C1126.4822659655626 32.263974348235905, 1213.8004635536656 32.7000194155933, 1256.9593019384242 33.74658444890675 M1043.7008217692492 34.29393142013091 C1092.3449525444944 35.62303433981323, 1140.7005448562336 34.945336789358514, 1255.3562629793064 34.25102690917741 M1255.4296641216372 33.156037642890354 C1253.6506995392838 73.29698699319849, 1255.7240172346571 107.0464005028906, 1255.2949814391543 176.4402317094871 M1255.5655979088122 33.407273841564006 C1257.7294154800825 75.64265331939168, 1257.6895883179177 119.58139393393937, 1256.8580543732473 175.71767998404374 M1256.0053468084234 174.3448625263107 C1194.0710058968984 175.1632432665192, 1131.7519177542624 175.90006195860155, 1042.9972717800845 176.7445268541467 M1256.8202378724598 175.6650407883785 C1181.0386539475876 177.28069798895814, 1106.8916478013216 177.48073345437544, 1044.7915775778122 176.27102207395276 M1045.6719896667096 175.888120824317 C1043.8210616968538 133.39506582202344, 1043.7148176866544 92.40491881553417, 1045.8812712757135 35.6235372470969 M1043.8313873223726 175.03795488920923 C1044.591393143983 135.7854574221416, 1043.3410612045636 94.82443532958341, 1043.1659290866955 34.743947020309236" stroke="rgb(0, 0, 0)" stroke-width="1" fill="none"/></g><g><path d="M1073.8725866666782 104.9981559402631 C1093.3955128805903 106.0215906101888, 1110.0163239223875 105.83909038778567, 1131.456252283944 104.2976334552196 M1074.2768424774054 105.16085260152167 C1087.7010616638788 105.18801023213597, 1099.1530550485056 106.31644016080273, 1132.3353989691577 104.92723191139386 M1134.6000359346829 104.7026311828354 C1131.902487946575 118.62368180077056, 1134.508052688944 128.84163206101277, 1131.5143631054602 154.55246644972434 M1133.8052223449017 104.61432340412635 C1133.0823404319935 116.19363082967459, 1133.1104895212084 125.6154606518992, 1133.758116998314 155.81824719761403 M1133.7724640940144 153.3109169985632 C1109.27342788942 154.2365664368357, 1085.5522504588155 155.2770870129769, 1074.3905047232631 153.08681096652003 M1133.0693091065393 155.6431176715474 C1117.6648162583995 154.95066904955198, 1102.7228323638274 155.72493886417195, 1075.5481048331724 155.55581329648493 M1073.83055079351 154.60671778629364 C1076.674457021926 141.84710008113566, 1076.6134145262656 132.0806876923334, 1074.9243855825887 103.23990096108513 M1074.7104006390034 154.45289111939428 C1074.6859753627275 139.4142101970838, 1075.1341523976891 123.65166538059846, 1074.2501073434769 104.56564572838617" stroke="rgb(0, 0, 0)" stroke-width="1" fill="none"/></g><text text-anchor="middle" font-family="Consolas, Courier" font-size="20" fill="rgb(150, 100, 28)" x="1104" y="135">id82</text><g><path d="M1132.5563984432822 104.74002186663826 C1145.8651735883834 106.53060301411708, 1160.7862199213737 106.06450225330083, 1191.7021521531883 103.08403495117022 M1133.6055878798672 104.36316337602906 C1149.3999841052382 104.51076896800588, 1164.8836924433122 104.79141447183052, 1190.5872856164774 105.94104834149022 M1189.6443852426323 103.94102145069152 C1189.7228854046525 117.59844426380995, 1190.2586246782435 131.00547032993802, 1191.469132660658 155.41910591925443 M1190.9806427353815 104.21712806219834 C1190.50238478339 117.92711520875541, 1192.0227531829573 131.39954303398133, 1190.8018486257652 155.18887653430374 M1189.1463225971838 154.5669083311169 C1179.3805398798265 156.2856191456531, 1168.2879117045682 154.95138167007974, 1133.674490936983 153.66121099367578 M1190.4278112459153 154.43260846349446 C1174.3622819542454 154.98818142480192, 1156.2753215175214 154.4937666712363, 1133.9023792798916 154.24187794432333 M1134.036787142804 153.35029333171047 C1132.3528926122926 143.73209046250628, 1132.7053107670401 128.90398381037417, 1134.2418158418225 105.38115233657929 M1132.4849208084415 154.77159135535422 C1133.3923114929462 135.3827851091483, 1131.9355654426022 116.49499486231394, 1132.26259854833 104.05401543296841" stroke="rgb(0, 0, 0)" stroke-width="1" fill="none"/></g><text text-anchor="middle" font-family="Consolas, Courier" font-size="20" fill="rgb(150, 100, 28)" x="1162" y="135">id76</text><text fill="rgb(150, 100, 28)" text-anchor="middle" font-family="Consolas, Courier" font-size="20" x="1080" y="70">id11</text><text fill="rgb(27, 14, 139)" text-anchor="middle" font-family="Consolas, Courier" font-size="20" x="1215" y="70">tuple</text><g><path d="M1050.365869097137 40.55181533725033 C1070.9242415485853 41.55201980138083, 1093.6027152873537 39.85825483330205, 1108.395795490781 39.45241652490113 M1049.287081278911 40.494174713255404 C1067.20232322755 41.009217256141305, 1085.5331631654599 40.54140844098235, 1110.986771851504 39.8686473687964 M1111.9615162205446 38.9639845317592 C1108.9528968215227 51.60692167284914, 1109.472057941135 60.48462705957292, 1111.397985756203 88.94453048423782 M1109.1741766885557 40.17439861897638 C1110.8931992249315 49.145849649641896, 1109.6890763375332 59.620923369661284, 1109.1467975176458 90.2414142616428 M1111.9860956526716 91.66474126689366 C1088.8812631654978 88.58605452790779, 1067.9916070965885 91.40453740993514, 1048.3547132433268 89.72690661061128 M1110.1613026567595 90.47816093494413 C1088.7170533151539 89.21973570697824, 1067.3577317825484 90.89221535405686, 1049.2661901452702 89.35627620110624 M1051.9753286587893 88.36465314525651 C1049.7550579201966 76.75416839462376, 1048.2830102680991 62.61725855101561, 1051.0493867313394 40.04461382025379 M1050.7035023806227 90.8258874306221 C1049.5228222615106 71.82136204244388, 1049.4491722382663 51.914571889261055, 1050.6957490722978 39.272696827392586" stroke="#000" stroke-width="1" fill="none"/></g><g><path d="M1181.9447461375153 38.48680572744507 C1194.5894533263345 38.07718896746606, 1207.9548403601902 40.216350129717505, 1249.7341322156392 39.31989464364264 M1180.9435483985646 40.8750807009363 C1205.1520774933103 40.65079223020496, 1230.53825040659 39.42685602954682, 1250.7643704485483 39.33873174267182 M1251.6019370115469 38.76346450747573 C1249.4030613112866 50.12148918527013, 1248.7223846658264 64.35581898197142, 1250.889588894275 88.28370907657413 M1250.058465039518 40.61004280782513 C1249.3948240103368 55.15963054465291, 1250.4877707579676 71.64800845480163, 1249.1757846692317 90.93145473632418 M1249.3305553062985 91.30952116308407 C1233.5524913285878 87.95811419211832, 1220.8121556408132 91.49450857865477, 1179.889531797428 91.82060404634754 M1250.358267615776 89.35747220881687 C1233.3250035032286 89.65163918686953, 1214.6797454609082 89.18627886206319, 1179.1410744719244 90.52940102183497 M1180.1164374843015 91.99580516717803 C1181.6043586902708 76.8661595680765, 1182.3146376355212 60.80990689822149, 1179.3999798760094 40.54419124975168 M1180.3263494011144 89.7550009862208 C1180.0917417799658 76.52099824571984, 1179.829672916093 62.49974045420709, 1179.6494226534846 40.49944183733358" stroke="#000" stroke-width="1" fill="none"/></g><g><path d="M1048.5027080480745 259.85488857476844 C1136.4938473976733 258.2333815968503, 1224.8893980801256 257.38628384927813, 1299.2586828107544 261.3997970654222 M1050.7895551669692 260.39353518605986 C1111.4797370191043 262.34093836727277, 1174.589284612105 262.7256802976568, 1299.0607882353368 260.5750643073526 M1298.9260994995207 260.25808402311674 C1299.9334634646227 308.14758373376515, 1298.457124703635 355.67858889514173, 1300.478576662034 389.3856950238052 M1298.1893746163673 259.3838521257009 C1298.2950588028218 297.68221446645987, 1298.0604459803574 337.7108769785432, 1298.8179800572957 390.3174967853005 M1298.2291478251602 389.4608381180615 C1239.579019333949 390.44407810514525, 1182.6431527040613 391.7513417408019, 1049.1711974845673 390.25848628204955 M1298.6489618456703 390.3783666881071 C1204.2333284487765 390.62134582919015, 1109.549023521795 390.38468455580886, 1049.9068782426864 390.1942812307429 M1050.3696085362415 391.5444575508127 C1047.7480440449567 348.90622184134764, 1051.431730712424 307.173408879865, 1048.7780118302248 260.46588535386866 M1050.2425874146018 389.33655235859976 C1049.8049910518132 345.6136198604593, 1049.0832737462554 300.75441069367395, 1050.0555661709275 259.114740691117" stroke="#000" stroke-width="1" fill="none"/></g><g><path d="M1075.0552577136423 326.4692480460933 C1097.1212370096614 323.5331988089794, 1121.0582715338314 326.93692903470924, 1134.4912345615874 326.7331952228161 M1075.7761770612797 324.4084039517458 C1091.7637114695933 325.57285597608177, 1108.8892837236708 324.5503315732993, 1132.3601082541054 325.56237641147874 M1131.089314303684 325.97557506402023 C1134.5766980318474 339.122970245285, 1134.3468836923514 351.3119406257059, 1131.2583063164527 375.38963743872233 M1133.5448055012375 324.6991086437221 C1133.9748568373764 335.1336561449568, 1132.4864552278916 346.10846111558396, 1133.439142029069 374.877925261363 M1134.7694415585693 374.69029862850425 C1110.5669707354425 376.9568262596684, 1088.6307396351501 374.2323379886981, 1076.028950232564 373.8634776085202 M1132.446751122045 375.49133375501685 C1120.7249036178957 375.496581735621, 1108.8943658473129 375.2180511438593, 1075.1062720747982 375.38824766320266 M1073.6964165601055 373.1246814813776 C1076.7978410054106 363.5167555502566, 1073.9153257448404 351.14005221054924, 1075.6304232267555 324.7204790293757 M1074.527699747653 374.7337947058145 C1075.2780774928112 355.7599342595514, 1074.3064766184295 335.3130077098285, 1075.6504850024564 324.2275371235508" stroke="rgb(0, 0, 0)" stroke-width="1" fill="none"/></g><text text-anchor="middle" font-family="Consolas, Courier" font-size="20" fill="rgb(150, 100, 28)" x="1104" y="355">id36</text><g><path d="M1143.6926640360896 325.6621142204296 C1167.1419619910755 326.4857073725479, 1187.9584061874898 326.7805499349667, 1202.4896265698333 324.26175909112607 M1146.0117528788219 325.8621718785817 C1163.0715094742263 324.3592098937015, 1180.5534586314786 325.2011996303644, 1202.5274526470403 325.4318376731926 M1201.6875770343643 323.083504068701 C1203.122987873578 340.90728333689896, 1202.9975771089728 360.7346335045834, 1202.8045428721607 373.358900520002 M1203.5265336777265 324.7139761949698 C1204.0250038261752 343.42180387739285, 1202.478740852552 360.2431011541461, 1204.361861306024 375.16630051591204 M1202.411065210757 376.1658042144859 C1186.8893826373092 375.2112702825149, 1170.672592130755 376.0936517438743, 1145.3623647900795 374.6378211023586 M1202.647013140837 375.2574146403404 C1189.8104867372526 374.9542448266945, 1177.4397131217538 374.6616291076251, 1146.0419918277257 374.57992735380606 M1143.8604992385217 373.627995586845 C1145.5839433139818 357.7456367042593, 1146.0483947233886 339.44157308839016, 1144.183596277339 323.31154343983934 M1144.7587158340516 374.30833683467614 C1145.7307197667003 363.5373093321974, 1144.493570183348 351.31658888364456, 1146.2827488662192 325.7186385129241" stroke="rgb(0, 0, 0)" stroke-width="1" fill="none"/></g><text text-anchor="middle" font-family="Consolas, Courier" font-size="20" fill="rgb(150, 100, 28)" x="1174.5" y="355">id49</text><text fill="rgb(0, 0, 0)" text-anchor="middle" font-family="Consolas, Courier" font-size="20" x="1139.25" y="355">,</text><g><path d="M1216.1289739827498 323.20029618273026 C1231.9013705237576 327.0638676883601, 1244.6941693588756 325.44272398593876, 1275.4804958650411 325.01809889903103 M1216.1957291171443 325.4314191537331 C1235.7615684582588 325.24755994271163, 1254.4980103417981 324.53144082759957, 1273.79058747732 325.5635472994439 M1272.387234056728 326.90204701524596 C1275.5373499406644 337.7210981132716, 1272.913368333737 353.818799739366, 1274.432824530779 374.1903813930297 M1274.510636432711 324.34900999675705 C1273.072037294962 335.3092986926038, 1273.882610493408 344.7194687534832, 1273.3010234652643 375.33980292956215 M1273.226132244771 374.6773152450002 C1261.754491063644 373.1312841643027, 1249.5052964443557 373.51744827320766, 1214.2273800608252 376.110241393248 M1273.901945820691 375.82929518183926 C1258.9401615413594 375.73053585880035, 1244.4797167738006 375.35110616127633, 1215.4907272282474 374.26875130842404 M1215.9694449614717 374.87921107651067 C1216.696825885891 361.9035994406908, 1217.7120962197585 347.18794197575573, 1217.6773902549558 324.73992102608366 M1215.5017563879933 375.40687966267524 C1214.9937885572276 358.9249731409682, 1216.0566734326212 341.0074356693391, 1215.3512100995672 325.1783430366738" stroke="rgb(0, 0, 0)" stroke-width="1" fill="none"/></g><text text-anchor="middle" font-family="Consolas, Courier" font-size="20" fill="rgb(150, 100, 28)" x="1245" y="355">id64</text><text fill="rgb(0, 0, 0)" text-anchor="middle" font-family="Consolas, Courier" font-size="20" x="1209.75" y="355">,</text><text fill="rgb(150, 100, 28)" text-anchor="middle" font-family="Consolas, Courier" font-size="20" x="1080" y="290">id90</text><text fill="rgb(27, 14, 139)" text-anchor="middle" font-family="Consolas, Courier" font-size="20" x="1269" y="290">set</text><g><path d="M1050.4085814408577 258.8105858738347 C1073.432896865272 259.19733919873477, 1096.463885640653 260.97559099038307, 1108.514951903908 261.13323896646074 M1050.7916829703456 260.44535769686934 C1066.4084801466702 260.22337410811735, 1081.3066434999473 259.60868670934514, 1110.5098185283318 259.8487026258986 M1108.7088812472064 261.2319077644642 C1110.4113212604234 277.98817030229355, 1111.9297150028292 297.64996265240416, 1109.7439076417095 310.0561151941853 M1109.0300178591503 259.6499392828582 C1109.879598468271 275.8329099555616, 1109.396564302815 292.02510049609344, 1109.7312766896891 309.8091039177545 M1109.8752389765275 311.94365303874105 C1090.2886091354937 310.97695479816275, 1071.8207411357268 311.26682449627265, 1048.6803282225367 311.8175789040423 M1110.2043898199183 310.5120379528845 C1087.7300876964855 310.80430167025395, 1067.0361793883305 309.6926394356707, 1050.0184699565884 310.8555028740375 M1051.1142386253264 308.2659041136134 C1049.2810575625426 297.26975471348, 1051.5129694450427 286.0985328460123, 1048.3344132742523 260.36481809807896 M1050.4645270513922 310.99098206626763 C1050.561129022497 293.8828598533141, 1050.422716299877 275.8032262261364, 1049.270828958138 260.29394483157415" stroke="#000" stroke-width="1" fill="none"/></g><g><path d="M1239.831654757638 258.78898369555674 C1253.6267619925252 260.4732699952271, 1270.201397942896 258.5574036521741, 1299.6123243048037 261.1950590095009 M1238.643427852933 260.61089888788945 C1254.719015892498 261.1229825097134, 1270.0563527665026 260.29223613444486, 1299.0486288030334 260.65098480784957 M1300.0885744930333 259.77140163670003 C1300.7633941241481 275.76634770445156, 1300.4368416278373 293.3223598077456, 1297.386054866957 308.88647951926345 M1299.086724351973 259.7162780921119 C1298.590391201773 275.8236392387082, 1298.8508992756094 291.4444564194862, 1298.5145754662785 309.6573143225924 M1298.925515270364 311.779470249719 C1275.788561863212 311.32388938881155, 1255.9786475890605 310.795447224523, 1237.7656701721091 310.6313568539885 M1299.3155265766118 310.5730864346706 C1284.3514397045053 310.00697243145027, 1272.5433101276246 311.22139054978084, 1239.6686074270365 309.41671610617016 M1237.727059324486 310.716493073284 C1239.8373580137004 295.4387366737156, 1239.434196076732 282.5527567360465, 1239.5759064970587 261.6907712221003 M1238.5412932824406 310.0715086385443 C1238.7306341334738 295.8015722092967, 1238.4251349010233 282.47921205461034, 1239.599645653942 260.8369390171276" stroke="#000" stroke-width="1" fill="none"/></g><text fill="rgb(0, 0, 0)" text-anchor="middle" font-family="Consolas, Courier" font-size="20" x="1062.5" y="355">{</text><text fill="rgb(0, 0, 0)" text-anchor="middle" font-family="Consolas, Courier" font-size="20" x="1286.5" y="355">}</text><g><path d="M1075.4364986821984 575.9952093073557 C1091.2928259617931 576.3220180389663, 1109.2387110349769 575.6025919486254, 1124.3920840499113 575.0803596222067 M1074.9602848296297 574.2923809745866 C1090.3962636151393 574.3781923553755, 1105.7905992258236 575.1552050307499, 1125.3961428518085 575.1293391973521 M1125.8029488502298 573.3381101791358 C1124.059192772063 589.345145800287, 1123.911845966435 600.6670414219558, 1126.451053824424 623.6306159070011 M1124.018384535395 575.7879913331448 C1124.1901190794697 586.0525490774033, 1124.2122701587882 598.5878388514897, 1124.6744114257112 624.3589822631803 M1125.0852831580103 625.6437839447746 C1107.0654113739602 624.840799868905, 1090.5186514298753 626.9836893095079, 1076.434893015637 623.7971239338161 M1124.5159777927252 625.3120901584161 C1107.6677796598185 624.7021639237472, 1088.0711986805852 623.8649885649263, 1075.83180976982 625.2417886692102 M1074.631128003733 625.9674622498784 C1075.184535504474 608.8809082112674, 1075.5527914886509 593.1490432681708, 1073.3435853604512 573.9397545490193 M1075.8415930088677 625.1397550607476 C1075.91237136925 606.3351264946298, 1074.8421711083374 585.400850617743, 1075.3711251318798 575.0199566907197" stroke="rgb(0, 0, 0)" stroke-width="1" fill="none"/></g><text text-anchor="middle" font-family="Consolas, Courier" font-size="20" fill="rgb(150, 100, 28)" x="1102" y="605">idx</text><g><path d="M1073.8012582006277 648.1007251346555 C1086.4372647301368 648.4394732776533, 1098.266323377924 650.8137653251645, 1124.3316634946714 649.2336396421532 M1075.6338700579663 650.8538223899999 C1085.6777668473894 649.5420348394345, 1098.2636921537053 649.6196568488796, 1125.5544036044614 650.26059752515 M1126.5533359172541 651.7953612317433 C1122.9363871747212 665.8401595076318, 1123.8920773937512 679.8938377417855, 1125.0588227465767 698.4411599431838 M1125.687652111265 650.1450055758926 C1124.8586667572376 659.9645371014938, 1125.120907097841 670.5752130792633, 1125.1462709072964 700.2304197321034 M1125.3536566014106 698.6769991080935 C1111.0458200028247 698.4277800513256, 1098.8696641656525 700.2483346154388, 1073.947238989553 699.8825253368059 M1125.8869470772804 700.628753000442 C1110.0567495800615 699.4382790088176, 1094.1167884588144 698.6966781212963, 1074.4716390933881 699.0205071439907 M1076.8788667070764 701.3282291902208 C1075.1905213626385 691.3546551975192, 1075.9203963210043 678.100664722754, 1073.3374274394853 651.9077172121345 M1074.0501140265521 700.4058065690058 C1074.3800918614982 689.2262693971666, 1074.2219389282611 678.2390302456959, 1074.3848572105871 650.0162772919747" stroke="rgb(0, 0, 0)" stroke-width="1" fill="none"/></g><text text-anchor="middle" font-family="Consolas, Courier" font-size="20" fill="rgb(150, 100, 28)" x="1102" y="680">idy</text><g><path d="M1074.7774382940468 724.4927909303422 C1090.251373885124 726.4195466403197, 1104.027217014376 723.8147017244794, 1126.8026582238747 726.4572553762683 M1075.462592290198 724.7048725941625 C1090.3863721806388 725.0276413155907, 1103.954634464738 724.9606046396042, 1125.8453263617037 725.2140934957458 M1125.7095215944405 726.4961717689123 C1126.1403317973436 734.6105079608002, 1127.078807640248 747.2769859445217, 1124.5976795873032 773.8447857721395 M1124.646188847395 725.5644707517366 C1124.523066311704 743.2411457253925, 1124.3152865332513 762.9835991734286, 1125.0687456956 775.4501080202483 M1126.303880166429 775.6279342320455 C1106.3807498981816 776.1626418640519, 1092.681858227998 775.8619201318566, 1074.6930533192988 773.6985425221333 M1124.0396911885512 775.7436941077017 C1112.826963754464 775.5847449657178, 1100.4877255238307 775.4011682642173, 1074.3698744833184 774.0748690033906 M1074.1774884809815 775.8971678421383 C1073.1912224648531 757.4211982772728, 1075.9743170256716 735.0209751496659, 1073.9857305656535 726.0065230696371 M1075.2134677278264 775.2172904086106 C1074.2317375615733 763.5229452456811, 1074.9493335636355 751.4096364988054, 1075.4435641567127 724.0198841750322" stroke="rgb(0, 0, 0)" stroke-width="1" fill="none"/></g><text text-anchor="middle" font-family="Consolas, Courier" font-size="20" fill="rgb(150, 100, 28)" x="1102" y="755">idz</text><text fill="rgb(0, 0, 0)" x="1156" y="605" text-anchor="middle" font-family="Consolas, Courier" font-size="20">:</text><g><path d="M1177.2430572715111 574.0498540377525 C1193.1728297416637 573.5723720428805, 1213.8968352669751 574.5054812604948, 1236.476998267106 574.6252052561291 M1176.4882269098748 575.9311470431908 C1191.835102763591 574.2488002060777, 1206.0825665300488 575.2224148457007, 1236.9772751405565 574.449629634744 M1237.9342574409197 574.4183524781862 C1235.9451145076948 589.2303938919249, 1234.9831576150466 601.3382645673748, 1235.3705563576038 624.9789558339692 M1235.4829379269577 574.3219103673304 C1237.0719864380683 594.394185656159, 1236.1351886627479 612.4915381999759, 1235.1631212640002 625.5367890751255 M1236.689332799081 625.9474602205444 C1217.8249376182707 626.182196875403, 1196.4825819683977 623.6842784934591, 1174.7898149043438 626.4378064299002 M1235.1180923327129 624.3831378809122 C1217.112966547885 625.5301510637732, 1197.1740832276487 624.1955780993901, 1175.998995733806 624.113755324118 M1174.5304801251953 623.5555541968719 C1176.3967713762631 604.4372505793423, 1175.1483821858099 584.863381769686, 1175.2291580062163 573.5197154727762 M1175.214757862818 625.6512638365834 C1176.2280986246049 612.3035515559145, 1175.4517995237547 597.4428802584712, 1175.1134871188856 575.3688439340563" stroke="rgb(0, 0, 0)" stroke-width="1" fill="none"/></g><text text-anchor="middle" font-family="Consolas, Courier" font-size="20" fill="rgb(150, 100, 28)" x="1206" y="605">id81</text><text fill="rgb(0, 0, 0)" x="1156" y="680" text-anchor="middle" font-family="Consolas, Courier" font-size="20">:</text><g><path d="M1174.4161327182612 651.304686826323 C1201.10774761465 649.5322395701452, 1228.825881884584 649.0528050212149, 1246.9198908137298 650.5757034601825 M1176.5039917027887 650.7996174936833 C1202.2758340835342 649.2152664643316, 1230.5626989288182 649.8001545648734, 1247.155193665994 649.447601060353 M1246.088973752288 649.8536238183009 C1249.5696554296226 668.2710451426325, 1249.0270197456139 686.0319241712191, 1246.1122687893903 700.9843853950252 M1248.6887185391138 650.8060101100508 C1248.105327743781 660.1197618032136, 1248.0838197326104 670.8566929972894, 1248.6025585411237 700.4775938029517 M1249.527409619557 700.4550599782915 C1232.2424900018307 698.8840477349855, 1215.7314127740133 699.043105950615, 1174.6140367610915 701.216528816857 M1248.328184520022 700.859557529351 C1220.7565011300499 701.1662121945362, 1192.6008618383653 700.7526555527251, 1176.242708965254 700.0231680202727 M1174.059665380249 700.6871688042849 C1176.0315285688612 685.0511722959819, 1174.980934296964 664.5980721639617, 1177.778848036031 649.3322780867223 M1176.699800491302 700.5130042073195 C1175.8541078671024 681.2262145103243, 1175.561416126939 661.8289948602181, 1176.4642275392823 650.0654112696584" stroke="rgb(0, 0, 0)" stroke-width="1" fill="none"/></g><text text-anchor="middle" font-family="Consolas, Courier" font-size="20" fill="rgb(150, 100, 28)" x="1212" y="680">id100</text><text fill="rgb(0, 0, 0)" x="1156" y="755" text-anchor="middle" font-family="Consolas, Courier" font-size="20">:</text><g><path d="M1177.9071711574359 724.7321764617648 C1197.4233580776877 724.6169369243099, 1215.776257828506 723.1352953475408, 1247.394506569297 723.6326934974106 M1175.9244868015069 725.1159968749787 C1193.9673910953054 724.7169259598784, 1212.6541644579977 725.3142557277173, 1248.1150617387514 725.396001784332 M1248.2576628853476 726.852844860964 C1246.79294989346 737.599360472184, 1247.6774330001183 749.9288558907942, 1246.401731067566 776.9787471445576 M1247.8010853938376 725.7332557790465 C1248.9295488789526 736.0108963345762, 1248.1901910626198 745.9184885482547, 1248.8306021154976 774.8191038973473 M1246.011798599394 775.3343746659854 C1221.002139088912 776.3066367635503, 1196.3089168810563 776.8390894857646, 1176.7214830743244 774.9012327658852 M1247.7318175537898 774.8270096015234 C1229.0242462744989 776.0120253807397, 1209.4893103804036 775.3893571973564, 1175.060843060182 774.2211226274253 M1175.4975587591994 775.0956480847098 C1178.0415862783846 755.5968996300879, 1174.7406459166973 736.9014269090682, 1176.6279458437355 723.5169481678619 M1176.6312645482653 775.4771357073216 C1176.2482446680583 759.1206085901513, 1174.9945832937003 744.0740458379095, 1175.1287046548082 724.7931874170663" stroke="rgb(0, 0, 0)" stroke-width="1" fill="none"/></g><text text-anchor="middle" font-family="Consolas, Courier" font-size="20" fill="rgb(150, 100, 28)" x="1212" y="755">id121</text><g><path d="M1050.850259987565 501.4372386632294 C1125.2666605173436 499.287092606582, 1198.6531681690037 502.61986180862385, 1263.0757579636029 500.75090927848566 M1050.091590552924 499.3196307141067 C1096.8378976540362 499.21994031110205, 1142.974172770619 500.00279913956064, 1261.264882367727 499.63270042438216 M1262.7353213429078 501.3525919959314 C1262.5776212975727 616.8333602070035, 1263.2097777005567 734.0685190470057, 1262.2120300659083 799.8732164802768 M1262.0457440694308 500.00644155865035 C1262.5571611890712 570.5621172367904, 1261.8851747786782 641.8258757497272, 1262.6783986801538 799.2703005894625 M1261.9330092734447 798.8990945851901 C1193.2635474289243 799.4652648266779, 1127.7965908872957 797.7276600346248, 1049.417695431148 801.750637857951 M1261.3200535585142 799.6290501715205 C1198.719401043104 799.793723435379, 1134.4389082689281 798.8266205639268, 1049.9485918626424 800.1227447182835 M1049.7233698392563 798.7415989266989 C1050.4633788170072 688.0126056141079, 1050.3157685025362 574.3383973989169, 1049.3184196745133 499.214419172251 M1049.6058469799334 799.817643072971 C1051.3858890954677 693.3164083664882, 1050.9901245637134 586.5023164834262, 1049.9859314469982 499.31189332346383" stroke="#000" stroke-width="1" fill="none"/></g><text fill="rgb(150, 100, 28)" text-anchor="middle" font-family="Consolas, Courier" font-size="20" x="1080" y="530">id10</text><text fill="rgb(27, 14, 139)" text-anchor="middle" font-family="Consolas, Courier" font-size="20" x="1232" y="530">dict</text><g><path d="M1050.5027727394709 498.10446307293455 C1066.432386394834 499.85667268113457, 1085.5862795507383 501.30505515819834, 1110.127487958826 501.20440268945964 M1049.3677178029593 499.2843049435941 C1064.6542767233705 500.1337239750014, 1081.3608518129467 500.96229596722833, 1109.2240303052904 500.88612200205597 M1110.669846009251 501.1994220101444 C1109.676932897408 519.9674139749453, 1107.97726931139 537.9463407123461, 1110.7762868849086 549.4814118585983 M1109.083363722833 500.0370630573976 C1110.5825095298894 516.8330640469387, 1109.7352973562615 534.5134428845306, 1110.3464126209146 549.9290868069924 M1111.5940186683483 551.3919705513032 C1091.5761450625484 549.2142480978541, 1070.8641294977288 551.7444792818183, 1049.1171973428143 548.0430925086491 M1109.2521034822491 549.595328072774 C1096.4751053572222 550.0015411216394, 1081.3558682946364 549.2404650890262, 1050.5795974594419 550.8697789309666 M1048.6926867889542 549.3981956303707 C1049.3281848198576 533.9229064965756, 1051.1917269244002 518.4437808622255, 1050.4004462095918 500.92948236950537 M1050.4060256384184 549.5557652551145 C1049.1599483091977 533.7781288625928, 1049.208200165459 517.0649149714255, 1050.2920127926448 499.9117158209134" stroke="#000" stroke-width="1" fill="none"/></g><g><path d="M1202.4289419975112 499.91358875166765 C1217.8865410094702 498.052700170816, 1231.7796809700628 501.70305966072755, 1261.5488567481163 498.1063249423451 M1201.5467984045945 500.7062957478978 C1220.7241083973765 499.7689531757737, 1237.4258383573153 500.7495561893085, 1261.5595435370822 500.0512993704797 M1260.1278167709381 501.70687237531666 C1263.2213256830348 517.7241605927187, 1259.9116372157355 533.2671813836376, 1262.7570513503915 551.4536791063214 M1262.049074534204 500.3709164719713 C1262.0546958206885 518.7357053960142, 1261.7560474610848 539.0930424223643, 1262.7387386421728 550.8775098181504 M1262.889919225146 550.4692765930095 C1243.373848208192 550.81554947708, 1228.0272599393552 551.7042667239504, 1203.0103258272436 551.5790985974215 M1262.8786256081476 549.902251543942 C1242.972865978195 550.1868137426985, 1225.7556258790319 550.1609848313949, 1201.5955972773322 549.9111673261978 M1201.5654046080508 549.7159083619238 C1202.5682706048972 535.3873128956195, 1201.1615049169886 516.5288360075134, 1203.3662117120246 501.49436668635457 M1201.3136349564425 550.1028911615313 C1201.4223667774456 538.3859635301391, 1201.9027881333373 524.8841169939876, 1201.8530125685377 499.93390639074653" stroke="#000" stroke-width="1" fill="none"/></g><g><path d="M749.0375627002336 748.8700440736643 C820.3091197512375 749.93433512812, 890.5926940505453 748.8737806202357, 950.2454769817368 749.7478012954256 M749.594453450872 749.7462535872684 C822.6757697593547 749.1476390559632, 893.3599687616739 748.7574917839623, 950.4019316786253 749.3050487307864 M948.643355216325 749.1937393438349 C950.2763929138487 778.0636163343621, 948.5496753894973 807.5827556707138, 951.5868014459381 881.5470616800908 M950.5487933552158 750.7646667540398 C949.6994475137061 783.3392124288616, 949.01479129947 816.5777683907443, 950.5389150686633 879.3326702245629 M950.7402038285804 880.9650333263197 C897.0513355677111 880.4906562606883, 847.2719800012856 879.9578987641838, 748.7011003136013 879.6014723017483 M949.2803733142259 879.1350731084361 C869.2132888600037 878.436115854847, 789.5999312324889 878.8446492455714, 749.4453679728805 880.4110197606785 M748.7849589186128 879.5810857773146 C750.5165543204503 830.9253431857321, 748.2654429764447 780.902443476902, 749.7370656852682 749.4011352391942 M749.546468816673 880.7294288639503 C749.1354930452497 847.6125205204024, 747.9326925497855 815.0333509312967, 749.0959006300087 749.8747236868171" stroke="#000" stroke-width="1" fill="none"/></g><g><path d="M743.2637027059337 745.4930312253296 C797.8030823434493 743.3541679213289, 855.0307205869149 745.1683535388308, 956.145902663279 744.1437918265342 M744.4159991084858 744.8408974433818 C805.7705011077647 743.2268859584599, 866.3580138540714 743.0224462717536, 955.7321659588303 743.4712620105214 M954.3212214358267 744.0719638986324 C955.9388194605364 799.1174293751753, 954.7906551267397 853.7640021587531, 955.0173764010522 884.9457244525913 M956.331315969817 743.0627347852117 C954.2437719799336 798.5106339819047, 955.1037029199737 854.7799341966593, 955.5707213163274 885.5538543560057 M955.5526206206719 887.7263838442176 C901.1359921937216 886.6936656977913, 845.7083723827169 886.6810865660595, 744.5668380932366 884.9233564044821 M955.2455657366438 886.4985136152904 C873.2008515743424 885.8686126255228, 791.283539307545 885.9264736177195, 743.6901670224356 886.4517180733463 M743.6692382765536 886.4706500356948 C744.723854631244 837.0773228859456, 744.8764569993655 787.6341951426526, 744.7368029538511 742.7040550637616 M743.217853440612 886.8795069371861 C744.1824129813118 838.4423948280249, 743.2977967864883 789.2928540481578, 743.7139325986551 744.9774155017157" stroke="rgb(0, 0, 0)" stroke-width="1" fill="none"/></g><text text-anchor="middle" font-family="Consolas, Courier" font-size="20" fill="rgb(27, 14, 139)" x="850" y="840">"None"</text><text fill="rgb(150, 100, 28)" text-anchor="middle" font-family="Consolas, Courier" font-size="20" x="780" y="780">id13</text><text fill="rgb(27, 14, 139)" text-anchor="middle" font-family="Consolas, Courier" font-size="20" x="920" y="780">None</text><g><path d="M749.8518911126798 749.3118546769966 C770.5346695570371 750.1675709841608, 785.603422370915 750.2845128547548, 808.3899948721145 748.0719855020308 M749.0665272536323 749.3669106887029 C770.225801934698 750.5013341651043, 790.1146326809319 748.856745630302, 809.3412513267032 749.8092609443684 M808.0502402539146 751.4063237481452 C809.3238576491835 763.4680741982236, 811.2628913664159 775.3367434444581, 811.8449951623285 800.1572524032036 M809.087879495611 749.9845100047736 C810.3676873001084 769.600333275231, 810.8810886585497 789.7426329635297, 810.6508957234232 799.5307178965929 M811.1417952989673 801.3896049948572 C787.5802251195726 799.0520511199618, 769.1979808236855 801.789899574248, 750.3773763369186 798.5063216521852 M809.3549701770465 799.5607977006841 C788.4354053173274 800.6227011181671, 765.8420260150097 800.2314621889219, 750.1581138233303 799.6107975043153 M748.3556731770104 801.9459772527862 C749.2918943623375 786.488105675581, 749.2104146023847 775.642079987948, 751.2468128849612 748.8350245127099 M750.6338660723821 799.2673874482499 C749.7824621349218 786.82283231273, 749.4365109722879 773.2042623668689, 749.5599465992615 749.798403057003" stroke="#000" stroke-width="1" fill="none"/></g><g><path d="M891.2433796490255 751.5717533766045 C912.6766346137399 750.8684072508996, 938.4444319921074 748.7070840480851, 951.8012716243906 751.6634527097976 M889.8277820012429 750.1434421540183 C911.8478778216919 750.2621958896931, 934.8655146237674 749.9098097860239, 949.7216111420921 750.1355167512618 M950.6656485874939 750.1410686113601 C948.4593599330254 767.0361835851082, 948.6266602972566 780.555226445711, 950.4612430129439 800.11944868663 M949.3641888457939 749.9963854938636 C949.4068968756332 763.4102865654553, 949.5286464492327 777.696216222502, 950.3201004234729 799.1654911389253 M949.291087323277 798.3962206635229 C934.0893005519479 800.1288421443899, 918.9924526822774 799.7076718570131, 888.869160854813 801.2168839576406 M950.7042843236368 800.1882520400972 C931.9354958713409 798.7578766552365, 913.6376053660637 798.6736799999372, 890.3524472422721 799.4446624605428 M891.0513970996658 801.7257431815677 C888.1061543897293 781.6987997020278, 888.2911459989174 761.2020484750741, 888.4182098067196 750.3161296869135 M889.3549929634664 799.3031843675808 C890.4351187023361 785.8776849878806, 890.7212916193017 772.3450782230216, 889.355508166957 749.8844477108696" stroke="#000" stroke-width="1" fill="none"/></g></svg>