<svg width="1300" height="867" xmlns="http://www.w3.org/2000/svg"><g><path d="M25.856214739995746 23.270953125414387 C67.91670794296672 27.674956640999092, 111.55879618035374 25.541467259003266, 221.89625898496683 24.806185807307244 M25.27811439167861 24.332712775407504 C89.40837156857822 25.79561505424904, 156.0645877447203 26.07069995278169, 222.7308925877129 25.05608557224 M222.80858014708997 24.035927363559743 C223.2194108628183 149.8507611775701, 221.88588332687328 275.27785408187077, 222.8778518843738 475.6697019222967 M222.57036217699186 25.317181572488686 C222.04168045196812 126.30685996773208, 221.54854224697726 228.46117738324818, 223.09620855863596 474.5854445583288 M224.51524980003657 476.745426271406 C161.5240339789837 474.3860879942349, 96.25624138714572 472.8196194610153, 26.99286630770022 474.4157588844346 M222.19704359638112 475.3084975773876 C166.1568048380374 473.3770533393954, 110.0443872680934 473.01361251580124, 25.211125799395184 475.5793641621788 M24.074218769814948 475.0996888902603 C25.61916951328284 313.3075322419584, 26.87479798068708 151.6060386032032, 25.552928154073182 24.520044385135943 M25.433698790374343 475.3417669042329 C26.38319713355893 379.85382301642017, 26.322392204073218 284.98285273660895, 24.665211283918985 24.688161702371996" stroke="#000" stroke-width="1" fill="none"/></g><g><path d="M147.21036902907875 99.55255258677606 C160.8761758158417 99.11565551051794, 178.93556172217538 101.24182963131578, 204.94672729200863 98.26268661632392 M148.82992288639582 99.7787513373075 C162.37230129039705 100.93808145494833, 175.90048561106653 100.15162960802732, 205.03413180060664 100.75161328579718 M207.30898500847397 98.18949452071146 C206.41319252665792 116.87402131475727, 207.47464640871002 132.12177520908463, 207.2186583990119 149.4504267522617 M206.1809940107702 100.08733269460156 C205.53732097761394 114.4569384011992, 205.6983798011365 128.25750297787957, 206.0828134906505 149.44466127127373 M204.19735130523668 151.58733872848572 C184.95946924512748 148.97377104911052, 163.33395584758406 148.50064313921325, 148.03991785856599 150.2919980220236 M206.99614381808053 150.16351282882152 C188.5051950829752 150.68311017444225, 169.45946366384476 149.72138305862802, 148.26189131580944 149.86674042119077 M148.15210555980406 149.74475134345505 C148.4305666838449 136.22473122734596, 145.93556628613788 119.23437030618456, 147.8897719688846 101.32113162557046 M147.84630476588575 149.45074774781847 C148.77493172970904 139.62448176352035, 148.6464140773925 129.58011523837783, 148.23080468114935 100.11356823270059" stroke="rgb(0, 0, 0)" stroke-width="1" fill="none"/></g><text text-anchor="middle" font-family="Consolas, Courier" font-size="20" fill="rgb(0, 0, 0)" x="50" y="130">lst1</text><text fill="rgb(150, 100, 28)" text-anchor="middle" font-family="Consolas, Courier" font-size="20" x="177" y="130">id82</text><g><path d="M147.11600528223866 176.66122555805606 C166.66953295857817 175.3025105203826, 189.2309457113577 175.79020973472936, 205.10608492459838 176.05436807715483 M147.83777947670862 175.7131668376855 C162.2370158394844 174.43461696556832, 178.52028787031517 176.08200381231964, 205.40507245915057 174.59123603187942 M206.08936755184365 176.84395832776437 C207.24431955716662 187.3066801049344, 204.68722594915712 202.25290767197535, 205.80330254639952 226.08032052273154 M205.47898957258542 174.32307567173063 C205.1306692185274 193.71392854380235, 205.5385095332381 214.45902452660303, 205.25847575904496 224.15090434048275 M205.11800618179558 225.19539420113702 C193.98480001735433 226.62491680935156, 180.1018524975048 225.39755509765573, 148.4912399895374 225.4801385727842 M205.5728311279771 224.25442194551297 C193.65714106073352 224.19902677981605, 181.56332967965946 225.19239214296215, 148.52315699448582 224.38902556627778 M148.73520159615094 223.65513905965395 C149.69531285151592 208.29649163502106, 149.0134215175575 187.9204880428435, 148.77245481815976 176.63709376922895 M147.59184133960918 225.55924944469254 C147.44832056848767 211.04607068271935, 148.07055029730827 196.5525393507641, 147.14070897300658 174.75990814015648" stroke="rgb(0, 0, 0)" stroke-width="1" fill="none"/></g><text text-anchor="middle" font-family="Consolas, Courier" font-size="20" fill="rgb(0, 0, 0)" x="50" y="205">lst2</text><text fill="rgb(150, 100, 28)" text-anchor="middle" font-family="Consolas, Courier" font-size="20" x="177" y="205">id84</text><g><path d="M148.6896150809119 248.77034631858584 C167.70887253648493 251.30855005520874, 189.21980938890957 249.22387325301048, 206.22530497781105 248.9534572789938 M148.08304146611323 249.4380469176116 C167.3109177124275 250.06825187217655, 187.54279577906993 249.49155062554163, 206.09564051788135 249.36014454935216 M207.45015565475123 251.13481394196572 C204.5722654462182 266.43156300677725, 204.02446031808228 280.40245573613333, 204.47919955030315 300.11184346878076 M205.87000184019752 250.99381769896092 C206.64155487625177 262.97165155280646, 206.56087279238042 276.8817615970009, 206.4847343263984 300.95988321513386 M207.99795632663427 301.2576021152911 C186.49316226236465 302.2955826111591, 170.12524305180312 302.3922568636632, 148.95461559159062 298.8664524288235 M205.8698679881116 300.8869575219619 C191.76696898283384 299.700857975077, 175.86622406721145 299.99229249138574, 148.05501252695913 300.55902167177 M147.2372941810833 301.02754423800843 C148.78343523669577 290.305049102453, 150.07400853306456 277.7755183506908, 147.85984183733768 251.33372647947556 M147.76123129877706 300.5574226979538 C147.45277018299313 287.9930970585132, 148.44085090302548 277.15578989455054, 148.55716529547917 249.00607260140987" stroke="rgb(0, 0, 0)" stroke-width="1" fill="none"/></g><text text-anchor="middle" font-family="Consolas, Courier" font-size="20" fill="rgb(0, 0, 0)" x="50" y="280">p</text><text fill="rgb(150, 100, 28)" text-anchor="middle" font-family="Consolas, Courier" font-size="20" x="177" y="280">id99</text><g><path d="M148.413235318099 323.19017075917895 C166.2781513329427 323.2442400717733, 181.316160093523 325.6276305203283, 206.37575892982557 326.97208441752525 M147.11369382828522 325.7814712120746 C171.3238260363746 325.9067846656726, 192.7180646589472 324.6667303703608, 206.5936302876061 324.1552429115446 M205.61058578143604 323.89783038728496 C208.04540794862692 337.2659592527011, 206.6253006029427 346.1357711797244, 206.7586781587841 375.614715268992 M206.63540922802667 324.3042665191022 C206.0147506848796 341.08700784566327, 206.38967974141408 355.92222721686176, 206.26176285252947 374.0862260080826 M207.33281523749048 376.715957487351 C188.33558684014247 375.01607821425233, 171.9243494498255 374.88972049438723, 147.54196058623378 374.5956933313747 M206.87360860261055 374.68533160028306 C191.2720615320709 374.95631697917344, 175.54965625613897 375.9028419697749, 147.43674088065455 375.43806465460966 M146.25457934987065 376.8328399366919 C146.3176176190819 359.34462383411847, 148.1901851002566 346.6720927938021, 149.23007813045302 325.25579491108937 M147.34946543181576 375.7919134783364 C147.6044642740243 357.71380903656626, 147.88957429031638 338.9754850793073, 148.59881868598046 325.6459181609129" stroke="rgb(0, 0, 0)" stroke-width="1" fill="none"/></g><text text-anchor="middle" font-family="Consolas, Courier" font-size="20" fill="rgb(0, 0, 0)" x="50" y="355">d</text><text fill="rgb(150, 100, 28)" text-anchor="middle" font-family="Consolas, Courier" font-size="20" x="177" y="355">id10</text><g><path d="M149.06607266206277 400.87463968397645 C160.35329578847356 402.09691504924297, 173.72904958501226 398.7807230097196, 206.7583337514574 400.60113766149055 M147.6329384243865 400.16421095846596 C168.3603999310871 399.79821816447065, 189.1018594634396 400.6756309138599, 205.18539764958126 400.8052440224395 M207.1374826878464 400.85090131383225 C205.57120197303965 417.0914247842527, 206.13399225802033 431.9802895523775, 205.58668925625324 448.1898851212639 M206.2357633454061 399.09179082167316 C205.93228637382595 418.55486862422765, 206.7469369083273 437.651775220609, 206.29871389405136 449.22772031436176 M206.93837759692187 451.58093525597144 C182.98398727384546 452.130483332905, 162.4285576769727 448.50730099710347, 149.28234119668733 449.1678126165392 M206.8079184980351 449.70765578797244 C189.09223453355352 449.981765813056, 174.24604067649804 449.81565625911975, 148.13190312808442 449.5580969689903 M147.94933203674378 451.65431862649035 C147.60372127671286 438.67237569882235, 146.41567717394773 426.76599227981114, 148.54746203452837 399.8262917394264 M148.85976924097952 450.08909390564355 C148.6683304689581 436.1709734874124, 147.91498946468278 423.02634877483877, 148.3003402683644 399.17579316311054" stroke="rgb(0, 0, 0)" stroke-width="1" fill="none"/></g><text text-anchor="middle" font-family="Consolas, Courier" font-size="20" fill="rgb(0, 0, 0)" x="50" y="430">t</text><text fill="rgb(150, 100, 28)" text-anchor="middle" font-family="Consolas, Courier" font-size="20" x="177" y="430">id11</text><g><path d="M23.528371519852676 25.757203805321247 C48.39939258091689 23.571000185369048, 70.61434289651869 25.94582725389283, 131.48522698549277 24.358425248863334 M24.405281254201892 24.31785148915426 C54.34386010412009 24.543692063417858, 82.04386268632962 25.081502467210147, 131.95339264165182 25.706407263368412 M130.00750734935377 26.913485557433063 C129.67931951168737 38.76979879506775, 132.78224559961853 53.50716877001294, 129.71127080987216 75.842673982873 M130.5050875405983 24.81903627202398 C131.18451857425225 37.802208738708565, 130.91807612990982 48.37424309126773, 131.00181531707855 74.64503001935212 M130.301725590833 74.42729338995792 C94.2484953334654 76.14651329581092, 58.75392213602825 74.61017894620693, 24.22098280912026 74.96071417368398 M131.40748001555392 75.57120314053167 C101.76515470838966 76.32789797921758, 73.49176093397965 75.73078595580341, 24.60658243565318 74.87210424706456 M23.518967917310743 73.88188209257657 C23.499235008949707 60.80199547079891, 26.559926285025067 49.15036628981425, 25.83215435861646 24.827332266595423 M25.128681024680176 75.2493668192727 C24.92195824699451 59.203082259577535, 23.891934851724802 42.58333991509828, 25.635363610408533 25.11611139993262" stroke="#000" stroke-width="1" fill="none"/></g><text fill="rgb(27, 14, 139)" text-anchor="middle" font-family="Consolas, Courier" font-size="20" x="78" y="55">__main__</text><g><path d="M247.82158584265778 24.16019585369913 C299.7922560718642 27.23573011096663, 349.38676375686833 24.25697461209035, 446.41033368325986 26.267191546683822 M247.68713698796745 24.991947276140838 C299.30473167380893 26.398757351842054, 349.3839352652317 26.22489531139553, 445.63339185213886 25.15257844861287 M447.23012560585914 24.70041206596329 C445.9397078516001 108.88387746391172, 444.13395589787444 190.9474169622246, 446.12968015110675 249.79374924469346 M445.79273814343145 25.72976321153861 C447.6360471398839 89.2232293146266, 448.09361130699165 153.91906496833857, 445.27016194637963 249.71257200432623 M447.2292937712214 250.01947290120523 C390.8605763475065 250.07530979617778, 333.51254338543396 252.74338598537273, 248.65016990482553 248.0143782691196 M446.5563462827891 250.67543569145028 C395.22861031195475 249.51613503325567, 346.0318744999444 249.57529432872207, 248.34742433587894 250.54492074669065 M246.4801070142506 248.95504903496823 C247.99887250539837 170.74682603683215, 245.94650852208503 93.70746270667699, 249.4243349562801 24.336209347931884 M247.7544919975811 249.47784584744963 C247.243929822523 167.1505191428357, 247.78229381835177 83.33052870054185, 247.4577758171548 24.552581310994835" stroke="#000" stroke-width="1" fill="none"/></g><g><path d="M372.6769086673252 99.58724292501785 C382.42886869545765 100.32336745954457, 397.45244566226154 99.46012946079415, 430.517311306403 100.11880404656843 M371.5654001929464 99.30118672103569 C383.7517561159205 100.8855220339185, 396.0396659078219 99.85815375747787, 429.14223885018515 99.94932953228572 M430.4093251534205 99.07160443787917 C427.1865169285714 111.71436154271827, 427.805728766316 124.68129484079397, 428.69569587638614 151.68886677641308 M429.4270133648331 99.42349557862984 C428.66799271525485 115.6371950782766, 429.8967082488141 130.85307955503902, 428.76759487937943 149.06118882163688 M430.99214460101365 148.690783756376 C407.66319737473185 148.8723789970271, 385.4021936293031 148.6256605921551, 372.16745780801756 148.2577085080971 M429.45544479722366 149.06080939526942 C413.6002448492783 150.24636626288785, 399.1099241903785 150.97509348826563, 370.4483527106504 150.57814003618665 M370.3820705912524 151.44498611030346 C369.4402092255628 138.47155938118377, 371.1459774304883 130.1355805338488, 371.44026239387836 100.1710447528627 M371.1025643969646 149.97860153366102 C372.07611532423596 135.43830502251066, 371.53749923598815 121.81311572025623, 371.89099960028733 99.66981786557311" stroke="rgb(0, 0, 0)" stroke-width="1" fill="none"/></g><text text-anchor="middle" font-family="Consolas, Courier" font-size="20" fill="rgb(150, 100, 28)" x="273" y="130">age</text><text fill="rgb(150, 100, 28)" text-anchor="middle" font-family="Consolas, Courier" font-size="20" x="400" y="130">id12</text><g><path d="M369.87974709914874 175.802660204209 C383.7002741560748 175.13909336075676, 400.2657226834555 173.95644149459758, 428.59736850896456 175.9618676817862 M370.8696379005396 175.84840296172456 C383.87524158046085 174.81307181948776, 395.288175854203 175.80009767974573, 429.109618973834 174.4158690872009 M429.6437410017848 176.58956163502245 C427.2802182904132 189.62445370697634, 430.32764144348783 203.65391267077578, 428.9307519836342 225.13634925889352 M428.50703262314164 175.70641447114562 C427.8427464819777 190.1430125397033, 428.1533561503853 204.9542106100816, 428.35669342375076 225.43513973071057 M430.30601449365975 226.43576666128 C415.6674774133738 226.0951372148909, 399.17114406383615 225.38787368039405, 372.55259082359794 223.40730728910114 M429.19978085771044 225.60088001763663 C409.3885974431624 225.04906961396344, 388.2295887575441 225.43143881842795, 370.6068121245007 225.73201954078414 M370.80554633614105 225.92663741940112 C372.0349381921981 213.03213803906996, 372.70222912281014 198.8536596628946, 369.3328127328381 175.94433667254933 M370.2422410707165 224.55347642274265 C371.7759991485453 209.4603786456453, 371.66262472694063 192.62851745086388, 371.00722089988886 175.5647524664699" stroke="rgb(0, 0, 0)" stroke-width="1" fill="none"/></g><text text-anchor="middle" font-family="Consolas, Courier" font-size="20" fill="rgb(150, 100, 28)" x="273" y="205">name</text><text fill="rgb(150, 100, 28)" text-anchor="middle" font-family="Consolas, Courier" font-size="20" x="400" y="205">id17</text><text fill="rgb(150, 100, 28)" text-anchor="middle" font-family="Consolas, Courier" font-size="20" x="278" y="55">id99</text><text fill="rgb(27, 14, 139)" text-anchor="middle" font-family="Consolas, Courier" font-size="22px" font-weight="bolder" x="411" y="55">tuple</text><g><path d="M249.29695979258898 24.698238571802378 C270.10358708606003 22.930564019567818, 294.76421185336727 24.379556674304762, 308.57785697257043 23.679149624674785 M247.13399648675315 25.872039477840147 C263.0123948143537 25.309653105331822, 277.4106301464303 25.939069593531695, 308.49032336109883 25.26180476114746 M309.863145269357 25.89500484810398 C308.59315585710556 41.04169180354126, 308.53762628867696 53.28960046180272, 308.5088851565811 73.22970254789122 M307.03077114988287 25.818265530830445 C307.58881454792754 42.553556145732315, 307.55049173043966 58.26347973591218, 307.728293317385 75.31392663038889 M308.0761104732431 75.5855736040932 C289.96146761981623 75.97496546710254, 271.4212745635157 77.18008460136689, 248.9761984347659 73.89672059079005 M308.97639990421237 74.8951243460644 C288.44165159485806 74.7895746331864, 270.6185340989497 73.85242751774831, 247.0931750585695 75.67597359742595 M247.73559434757667 73.63983252718889 C246.94903353912252 58.705863390103126, 250.3659153534567 45.9213596259772, 246.06914911464855 24.471382888991016 M248.3106882791751 74.52701251605009 C246.9302357393419 63.136640986789274, 247.58073636641726 51.19103881011574, 247.66059357709884 24.778855161266073" stroke="#000" stroke-width="1" fill="none"/></g><g><path d="M375.86923072134675 24.992231198933652 L445.90839112141913 24.920739791379297 L445.6150711062812 74.65963205747047 L375.8903334897706 75.05984762789959" stroke="none" stroke-width="0" fill="yellow"/><path d="M375.6859515201501 25.125431312875804 C403.7477034630898 24.790447402977943, 431.5712903132069 24.83708167410632, 446.3934189873375 25.1066168281611 M375.89353606600736 25.14744849649909 C396.6996730638927 24.823273676966327, 417.6013603181029 24.92172062823068, 445.86169068189446 24.830166180766636 M445.9284422538212 25.269510457185635 C445.8334105034472 41.994999762094906, 445.93936484538233 58.63955706134081, 445.7276549958119 74.67338865722692 M446.17208127129845 25.120725479840992 C446.1792570301697 36.80279151157985, 446.118887777938 48.637447124132706, 445.9700574570219 75.06603919611507 M445.67548416144047 74.96597961881064 C421.7568042367218 75.18668748262783, 397.19367375590895 75.28909194678786, 376.3752894995498 75.23027370557564 M445.92434374644023 75.10955702800153 C430.0588342704959 75.07928392710583, 414.19317064330454 75.07093071826084, 375.8446221771414 75.04823478212344 M376.31703775317203 75.30890676240821 C376.34916506885133 60.59108104247028, 376.4678450202188 45.93050240877847, 375.80199009669906 25.23279786768324 M376.12544954452346 74.89207606097 C376.01438146182454 62.43810616586054, 376.202139183675 49.90846510606391, 376.17563033431446 24.844985101429174" stroke="#000" stroke-width="4" fill="none"/></g><g><path d="M469.5804529526097 25.904227151394217 C558.975010556807 25.607004463914674, 649.1704700192046 23.55137856982366, 752.6393183945992 25.62096921389164 M471.39967682701376 25.348037915594645 C534.0238447419586 24.23680872706516, 597.6941584790576 24.828151151451365, 753.5251109808256 25.63775664991817 M754.2955355159723 25.194666240447138 C753.7859667600198 76.58375648775962, 753.8811695519643 123.8898890935539, 754.9738019632273 154.62221398936094 M753.5078411710059 25.477156829689825 C751.289220400625 55.35263983468532, 752.9811593907554 87.7376416336084, 752.5341962293905 155.00868654716 M751.8917689550162 155.41557031116187 C648.271532148832 153.56430862671374, 542.918861714494 154.85242805640624, 472.47885444314886 156.31045429751546 M753.4185374681266 154.6862169447925 C666.5654907778539 155.27539944590276, 579.7049610802204 155.8839985775657, 470.5585855395318 154.30667535589353 M469.6156428310604 155.17064959452892 C472.94153338380227 115.04765352396701, 472.1444250648049 74.84199244999151, 470.11978045660334 23.829788896669093 M470.3003665910011 155.4638958246942 C471.8802912671621 124.79571559975729, 472.1357403895683 94.57353504754633, 471.56191319679266 24.346495644167486" stroke="#000" stroke-width="1" fill="none"/></g><g><path d="M494.6786107214285 91.30553475568182 C507.9369601743485 91.59542794539631, 518.717525132302 89.08973667141973, 555.1464237182198 90.48849510178451 M496.4202779908971 89.42654808415749 C511.5076674799772 89.94115939554504, 525.9320887125875 90.09608286282091, 554.8230734036872 90.51156248778446 M555.9380823239175 90.66310410523957 C553.4166893039378 105.26117956798828, 555.6007384915331 118.2757926545596, 555.0746656619018 138.77709528074217 M553.341959116887 90.2888947654385 C554.8075681544034 104.60392615644048, 553.6663611284688 117.83012961396315, 554.6236028154464 139.03974450481638 M555.2494449227363 139.2741659150741 C532.2238138265468 141.0671621040405, 514.7349920165842 139.0830516560374, 494.14411473774015 140.7932428484706 M554.0218097956913 140.6902160880745 C535.2167058439941 140.0996964646508, 517.8808263548839 140.02720135477156, 495.316370539332 140.29372457741638 M496.2789134251327 139.72385687229126 C495.2660330319312 120.74407684011979, 496.35134718292545 103.81008770433057, 495.5886784162155 89.2372602727069 M496.8470615566902 140.06582929857174 C495.6431506067619 126.77605711638105, 495.72075058821827 114.43941739665728, 496.8212939706657 90.58448372295182" stroke="rgb(0, 0, 0)" stroke-width="1" fill="none"/></g><text text-anchor="middle" font-family="Consolas, Courier" font-size="20" fill="rgb(150, 100, 28)" x="525" y="120">id19</text><g><path d="M552.4766834541662 89.76091001871005 C566.1371919011107 90.24741716580324, 579.1679319907197 88.27057978573092, 613.7926919134778 89.32564580227525 M554.4171551492299 90.8543087739636 C576.401542441983 88.89869885773035, 596.8984132939989 88.59115537419665, 612.3456909119055 89.5723206844122 M611.6524058749897 90.51147976340415 C611.8782267254633 110.57733924505081, 611.1537799025717 130.2763714172041, 613.8913780866145 138.15457260519852 M612.4602187537834 90.34987297566576 C611.7627537731815 100.15369785051148, 610.9692222680613 110.58029732708914, 611.5239347188972 139.21796474164995 M610.7293166569835 139.5176771327582 C587.2737501405765 138.7576145028513, 566.8148160438591 141.7378867564429, 554.3601274003192 140.21612824931518 M612.6133581438119 140.29800382876718 C598.8332583700042 141.05229860259266, 586.8193686112517 140.17492757701808, 554.0606584824521 140.74849562447162 M553.9336036533382 139.43344758615072 C551.9420086759645 126.28772755331123, 555.1007359027077 111.8647741417988, 555.1705282671795 90.52674720378957 M554.0054703507536 140.18450241013852 C554.2326433600588 120.57139554646224, 554.1161744623705 99.07719259776337, 554.8673842262978 90.80123378186414" stroke="rgb(0, 0, 0)" stroke-width="1" fill="none"/></g><text text-anchor="middle" font-family="Consolas, Courier" font-size="20" fill="rgb(150, 100, 28)" x="583" y="120">id43</text><g><path d="M611.6751292400111 88.60524240800393 C625.6718473771231 91.9089911653752, 634.9201603201213 90.01644522789856, 671.9765293874918 91.20724408250781 M611.5691887528025 89.33046186291149 C633.2306663393208 90.31653865508177, 652.961814075295 89.94757613877657, 670.4742868611454 89.83350429319778 M669.0276548274213 91.74324722523616 C669.1639339817594 105.989171791355, 671.6152701780169 125.15817425693474, 670.899754883809 141.10748715147642 M669.7524105055393 89.74093522086906 C670.206751788329 103.32069062645809, 669.2705138207281 115.25772926627867, 670.3391233082203 139.95917183437592 M670.1135532971967 141.27547298395407 C656.7556675140979 140.44286165822112, 645.5030355412138 140.9317032548046, 613.6140243056765 138.7537375929565 M670.3716548760133 139.38405213995625 C651.7615378929289 141.0743276784456, 633.4426787103523 141.3395272314275, 611.6859966443258 139.9222509357363 M612.8399985876753 140.0073748945464 C610.2503368238192 126.18738193413931, 612.4609772479488 112.1098499225342, 612.6175010469099 88.50104390057054 M611.6647310738409 140.27375566942297 C612.4879461434803 122.40161034340191, 612.2555137383885 102.16394529272041, 611.6420180049062 90.13619897389073" stroke="rgb(0, 0, 0)" stroke-width="1" fill="none"/></g><text text-anchor="middle" font-family="Consolas, Courier" font-size="20" fill="rgb(150, 100, 28)" x="641" y="120">id28</text><g><path d="M668.0358504071826 89.28187988925941 C691.2633860356805 91.65628731590273, 712.8248480444864 89.78562479121862, 726.8697646202046 89.50437362797223 M669.9947351955661 90.79393681645786 C681.7773377158273 90.00946485787733, 695.1802516386434 89.24254259807681, 728.0506449818357 90.14888390695756 M728.3521843105958 88.60894740337403 C726.7584158820989 107.2973622699512, 729.2565512315034 119.74963810115324, 728.0309479200716 139.16170162210966 M728.2880373316424 90.6514970741929 C728.2911516595133 108.77882630074586, 728.026254805319 126.99353788353446, 728.8148012106253 139.022889940917 M727.1231321975812 138.99219377025773 C710.9704228933725 140.73944183303684, 696.9169647131018 137.94445015377644, 668.2680601173024 141.76811308821883 M728.5843770720984 140.6493477192077 C711.9658257678514 140.8851303208984, 695.7285117784965 140.98639574893238, 669.3592891731557 139.3654075360716 M671.216204625011 141.54860695184965 C671.4508204278127 123.66503623117264, 669.3603031056389 103.83253191885427, 671.0407307917753 88.3542227615037 M670.2194619655481 139.14457520095203 C670.7983062494723 121.3827651232934, 669.8661807440207 103.34389648193856, 670.5757848264773 90.3966673026991" stroke="rgb(0, 0, 0)" stroke-width="1" fill="none"/></g><text text-anchor="middle" font-family="Consolas, Courier" font-size="20" fill="rgb(150, 100, 28)" x="699" y="120">id49</text><text fill="rgb(150, 100, 28)" text-anchor="middle" font-family="Consolas, Courier" font-size="20" x="501" y="55">id54</text><text fill="rgb(27, 14, 139)" text-anchor="middle" font-family="Consolas, Courier" font-size="20" x="723" y="55">list</text><g><path d="M470.6665033770146 25.584058456839625 C488.36595762882456 25.984786180149893, 502.9667667390422 24.461528671611504, 531.3952595580142 23.05341480915787 M471.6159622594211 25.24849461998509 C485.1047331943539 23.836083696072095, 498.43656004625683 24.494935087744675, 531.04475307584 24.960283196376828 M530.4488039382221 25.052988575342077 C531.7045208061214 45.561625564544826, 532.6234797245301 65.53037678007985, 530.2241417967075 76.64600534434159 M531.7787214122974 25.523731402201843 C531.5436295833317 35.08515474442239, 531.6296706640874 46.74594764166616, 531.4828288991085 75.46644530702228 M531.8615454924694 76.53367312658659 C512.3026048824916 77.54964311796476, 496.14875805046876 74.31937741942323, 469.711738491653 75.68892988527742 M531.6482009411313 75.42361691089985 C517.358097976721 74.4263983509583, 502.8599443157927 75.66476337761218, 471.69052278821556 75.74614353661092 M470.5538650678784 76.17203108283853 C469.16591902878577 61.55237312240151, 469.48525003968257 48.58296581502715, 470.1250639785427 24.4144360149571 M471.4358299529983 75.51566668232647 C471.1493792562919 64.5319392865582, 471.8487902722971 53.25534468899958, 470.2268212048209 25.004820906815862" stroke="#000" stroke-width="1" fill="none"/></g><g><path d="M691.4310352498732 23.979739002636414 L752.4136812674973 23.094005291887456 L752.0112681924757 75.30251447461313 L691.5570773785272 76.17767023229615" stroke="none" stroke-width="0" fill="white"/><path d="M692.4751136554 24.360263737458986 C705.9385528323867 23.661050796825858, 723.5240396369262 26.449347002689077, 754.7940453248938 26.64718862727638 M692.755304938674 24.573738369428526 C707.7019260148776 26.15374654843299, 721.8317833789384 26.354768004740027, 752.9902195712195 25.997919179445937 M753.6985133464132 24.482686063354336 C751.9638779958566 44.95982766150654, 755.4857541195321 64.26933061040674, 753.6899537314874 76.275178893387 M752.5573872446288 24.568452486089225 C752.4733643065733 38.874413064191806, 752.9025109559461 55.455063262061806, 752.2455998573296 75.16938935173874 M751.7006029286789 73.01791251937031 C735.5114410385754 76.36538253369385, 719.7107919115809 75.22109025079355, 692.4674413522242 75.15275347324489 M753.4919316696652 75.23003995780753 C738.6702238151955 74.29181631857729, 727.2284885573173 75.76990507928696, 693.3037952374833 74.54846577327791 M692.7768482715602 73.45584252304418 C693.5440241384066 55.87849241008739, 691.722508573185 41.42823783941663, 694.4208728932066 24.422167528047122 M693.6668849883739 74.07602020771564 C691.9915465544739 60.459721023769106, 692.239385776913 43.97656341081309, 693.5849135868352 25.49207328754327" stroke="#000" stroke-width="1" fill="none"/></g><g><path d="M777.4269399226581 24.224960224342432 C884.2298387148714 26.186469297817055, 990.8480082355724 25.76801360013392, 1059.9126228015468 26.05375681901829 M778.7367353934134 25.358269256986244 C878.2337668932494 25.523665580995402, 978.3281011282121 26.091726923782062, 1059.2417117122725 24.296362448426585 M1060.6677794226725 26.549632745910156 C1061.913076132097 79.1117713088771, 1059.9771889831213 132.61436826834216, 1060.8065901244806 175.42046597336798 M1059.9474538248735 25.543247949621705 C1060.2263097706032 60.99129138783077, 1059.4004614265216 95.30136310299824, 1060.6552311896241 174.30065486327788 M1058.6659547565332 175.86385179031998 C989.4012790667618 175.85997311005474, 922.3356273606386 175.81552925120548, 777.3342843087322 173.92563054026832 M1060.1854665123194 175.4191802331571 C981.1893427536656 174.37310378827507, 904.0216320906356 173.5461204263877, 778.4785945886209 174.60288913968444 M777.4386557249268 173.9562481018541 C778.2481132902741 117.16240638451009, 781.0267324060472 59.268582570546954, 778.6504306818572 26.141437166364124 M778.5348003387307 175.81077408006715 C778.3732460006345 119.82675267833906, 778.3276373479013 65.63647294011028, 778.2190718652089 25.06608500283581" stroke="#000" stroke-width="1" fill="none"/></g><g><path d="M803.6666012090973 110.06377912227268 C817.3638873039204 109.32161304005929, 833.044491019188 111.2698829932362, 861.0565887688952 110.05276673774121 M802.3611834770115 110.3954801029768 C825.2719123421249 110.24555649937689, 848.0774040799561 111.00621889141364, 861.0226415138231 110.6964797232115 M861.9143342816426 109.76373182029666 C858.9105740286112 127.03695061894547, 858.921362993787 141.97087493807402, 862.3333911973916 160.90072376890794 M860.8595020612061 110.80208854613097 C860.5369042902629 123.01613471347622, 859.9076522607966 135.43032175652138, 860.8474735326448 159.96992535363384 M862.4397963961685 161.62357567068307 C846.6915145765935 162.2531667322399, 836.2832157820923 159.32334058214963, 804.8856284540187 159.27027444459463 M861.359524770251 159.76185693335822 C840.3158318283635 159.41228325373578, 817.6589405385491 160.67231439545589, 802.7773370065725 160.888742559665 M804.1321315892693 159.9234777678525 C804.4866519590577 139.65605609431506, 802.5980912190726 122.11099174971109, 804.3817180734218 111.16276326526359 M802.8195825424918 160.57387626758316 C804.3014944485567 148.82404472418511, 802.5346920729327 135.89511561402585, 802.0318845318424 110.05511021375183" stroke="rgb(0, 0, 0)" stroke-width="1" fill="none"/></g><text text-anchor="middle" font-family="Consolas, Courier" font-size="20" fill="rgb(150, 100, 28)" x="832" y="140">id32</text><text fill="rgb(150, 100, 28)" text-anchor="middle" font-family="Consolas, Courier" font-size="20" x="832" y="97.5">0</text><g><path d="M860.0841223878019 108.49848796094288 C877.1168511430706 110.96648506985966, 896.7776788707805 109.81168685850014, 917.6389669295353 110.84169910207426 M860.0964092247754 109.41279645403536 C875.9222579966107 109.1825143766137, 889.0610631995701 109.93146083942483, 919.4192755661948 109.00144863239906 M917.9618293742511 111.91886480467038 C920.4691428681964 127.73877565123006, 917.6550715449749 147.9426381549225, 919.6015427468808 160.9520593650191 M919.1698387682541 110.66384070553606 C919.2320009351984 121.32599139267779, 918.1782820325689 132.06624766917201, 919.8589394294272 160.20525165866982 M918.6596791580762 161.83888619498026 C906.6718521351373 157.7449479473578, 892.144027769621 158.92985062669703, 862.7785705469336 158.83963038263394 M918.1301547158257 159.9931720396164 C900.4132242341078 159.93396693178494, 881.9483657154085 158.92962318008162, 860.8305872458549 160.2844259741904 M860.1804200785979 161.72222121870996 C861.1452816609968 141.7710856251019, 863.0406857750617 122.70928843956686, 861.0730388756888 108.21285222931395 M860.5510655030916 160.55617308859973 C861.4564156448537 140.31530211848786, 860.3203142757706 120.82030811381573, 861.1748708773672 110.01209055793142" stroke="rgb(0, 0, 0)" stroke-width="1" fill="none"/></g><text text-anchor="middle" font-family="Consolas, Courier" font-size="20" fill="rgb(150, 100, 28)" x="890" y="140">id10</text><text fill="rgb(150, 100, 28)" text-anchor="middle" font-family="Consolas, Courier" font-size="20" x="890" y="97.5">1</text><g><path d="M919.2929023008177 111.56730371466257 C934.0781534257607 111.01279439202679, 953.6829022464713 110.82310117356514, 977.3038491802267 108.22570142302075 M919.048590919053 110.64730403123085 C931.2696533005761 110.46521421542244, 943.6615628401306 109.91078737525446, 977.706263961113 110.73903597896381 M977.9417064236471 110.7008188127405 C976.3462811229399 122.55611952907566, 976.7204866175498 137.38589270030556, 976.0401966969667 160.52938528732398 M977.4206884181908 109.00699584866415 C977.9175459087593 123.29888923981005, 976.6132127246067 134.73751798365203, 977.7781636540365 160.25904904816986 M975.230931943586 158.4439911082499 C957.1892098114237 160.47448318285046, 938.6577601156772 160.69792707099225, 918.8837119914026 161.91032939165586 M976.8706386240195 160.71737577013994 C953.7280737858013 159.47083034919626, 932.2065064520835 159.87057033394495, 919.52605153382 160.60489660798564 M919.1986837228088 159.2367292013693 C918.724099015271 144.41816025417396, 919.5953893431549 132.80935879294506, 920.3989175229444 110.73304638083916 M919.436059132766 159.03340809831516 C919.6371828933454 147.69896104991167, 919.2238444059755 137.6995347803449, 919.983691290408 110.34992684390652" stroke="rgb(0, 0, 0)" stroke-width="1" fill="none"/></g><text text-anchor="middle" font-family="Consolas, Courier" font-size="20" fill="rgb(150, 100, 28)" x="948" y="140">id90</text><text fill="rgb(150, 100, 28)" text-anchor="middle" font-family="Consolas, Courier" font-size="20" x="948" y="97.5">2</text><g><path d="M975.3435714780709 109.02757019846882 C997.9590176192385 108.54638689403507, 1021.7884278984253 109.3584455853756, 1035.7684533628485 111.19100956666418 M977.5967805058611 110.61258237482512 C995.0544869999247 110.2406986168353, 1012.2966961823648 110.38505908602394, 1034.9821860671066 109.46198596644209 M1034.7681229359546 110.24112721735801 C1033.2342868063217 122.62045678396734, 1035.4243318178794 134.9791535691197, 1034.5032072650718 160.06070137746156 M1035.8782977509827 109.80798571677897 C1035.3875674672533 121.8736837126234, 1033.8460580909198 133.1151970643743, 1034.5134702859827 160.75460136600967 M1036.5043535782404 160.374766113279 C1016.2171476359979 160.18017645447324, 994.189445475075 159.06667523592222, 976.5326422514623 159.24971058261423 M1034.2664851027823 159.71975424730945 C1019.0401760659217 159.00546016783153, 1001.9052054044364 160.4867313358177, 976.1424738319042 159.73374405436738 M975.4035749668786 161.18602890984585 C975.8109174150867 142.25975164690655, 976.3856671119892 128.1838057512065, 975.2674979082993 109.9343833900475 M977.0556790877157 160.90067089701233 C978.3227162876063 140.99771309740652, 977.856226311781 120.47572232828176, 976.9947758712192 110.13568098013364" stroke="rgb(0, 0, 0)" stroke-width="1" fill="none"/></g><text text-anchor="middle" font-family="Consolas, Courier" font-size="20" fill="rgb(150, 100, 28)" x="1006" y="140">id57</text><text fill="rgb(150, 100, 28)" text-anchor="middle" font-family="Consolas, Courier" font-size="20" x="1006" y="97.5">3</text><text fill="rgb(150, 100, 28)" text-anchor="middle" font-family="Consolas, Courier" font-size="20" x="808" y="55">id84</text><text fill="rgb(27, 14, 139)" text-anchor="middle" font-family="Consolas, Courier" font-size="20" x="1030" y="55">list</text><g><path d="M776.608382207911 23.025498574115616 C800.1786947811461 26.02175696382137, 819.0833211933004 23.44680790270232, 838.9445264663625 26.81242240339444 M778.7104779850548 24.505264958190516 C790.4034494227343 25.958134757100396, 802.3178891602558 25.937617699120892, 838.858780880244 25.444196834934484 M836.212527935687 23.718104657891004 C836.4160171400321 39.081586490095816, 838.8026532206148 54.93464711953811, 838.9170701887379 76.9416284378951 M837.3804988079895 25.33922804610079 C837.5074836977848 44.30993566080534, 838.4712419455077 64.39079171311855, 838.8019013547774 75.18698863521088 M838.6966154459735 75.6780238833962 C824.3521549897931 76.29977237467631, 810.9271291285046 76.15576417214196, 776.2528220440804 74.73808603518336 M837.757160149565 74.48758148688758 C822.3204624588582 74.50761527056258, 805.2435684261892 74.5770434148905, 778.7318333011815 74.09315464371635 M776.4816636892026 75.05231677802331 C777.92974943195 59.452259874725414, 778.6891163480957 45.98369958316228, 779.3056560629799 25.001947471014656 M778.9629432776968 75.86756147668069 C777.6814446339995 62.70338470980965, 777.9045234594718 52.5187503417198, 777.9368151190164 25.43148525927858" stroke="#000" stroke-width="1" fill="none"/></g><g><path d="M1001.778026645427 26.15511068537658 C1016.9357813053824 26.047931868117832, 1032.873065563772 23.191835231591682, 1058.7052373316822 26.778216272261695 M999.0281919197311 25.849233790798376 C1012.5893801549206 26.119743791305634, 1023.8932560750359 26.258904571449573, 1060.379279140752 25.37667154860936 M1059.8749685002124 25.626066214585133 C1060.1731441970537 38.93894818721841, 1058.9131373966054 54.20481812433985, 1061.9942201407762 74.06254663453215 M1059.2408583562058 25.913782670102652 C1059.2038087933158 44.032848816681906, 1060.926583548073 61.70331870309094, 1059.3327126574598 74.21601532616675 M1058.633811156029 74.84544234972351 C1037.5213742641693 75.48191950400837, 1015.7379339884881 73.0314716297742, 1000.0291556431772 73.72712599365929 M1060.4257345776452 74.37463840878381 C1042.7626475942159 76.44232658123046, 1026.771134221256 76.30625311871118, 1000.6672509564547 75.77294991312996 M1000.7536567714602 73.08521004060512 C1000.627498949602 64.05803596809311, 999.0708780929424 52.45794714200133, 999.1944586660239 24.975232277667523 M999.3963474894321 74.41342963285875 C999.622762854885 64.84615534341727, 1000.4183999268416 52.752716676973876, 1000.5042367020803 24.49958480349334" stroke="#000" stroke-width="1" fill="none"/></g><g><path d="M247.50036952334722 274.22063103618314 C319.0187160651923 277.4016212647748, 388.7837221520413 276.23133052593386, 446.91806730873634 274.10986789463215 M247.87174733563475 274.40100622741994 C327.58697537760537 276.46167594606436, 406.9383211106144 275.26758400163624, 448.49279501617093 275.00589242410234 M446.3291481112407 275.3259357493702 C447.9388633800041 312.1141018928311, 448.34550165240415 350.8834439243531, 449.16268632998776 403.3075368647636 M448.37434996921013 274.87653918123897 C447.4296149433372 307.50178733158964, 447.4223568397623 338.03798211358804, 447.6576831074255 404.2200942872497 M448.82089370070963 405.0010048353521 C393.943445464469 406.69835008450104, 337.6237062443483 407.2449582956704, 246.5001081096823 406.40526701413586 M448.6684887664045 405.2231852750093 C391.8644270683205 405.0569672691307, 336.91554764758695 405.55123687801034, 248.23496855398736 404.74850217779965 M247.71236429573054 406.8366359575574 C249.20413163851646 358.08060103157527, 248.8246871010931 307.79210830154636, 249.85596611235056 276.84590320599153 M248.79242836724123 405.3946297050475 C248.30294138725205 368.3130648210394, 248.7663584969032 330.98818957797147, 248.62902046570935 275.0250210869396" stroke="#000" stroke-width="1" fill="none"/></g><g><path d="M241.30199326490893 270.19862752235537 C300.175226383313 270.3077126975382, 356.95980483088033 268.68400259662695, 453.25687114634076 267.4256690373632 M241.60290531361804 268.4783879852797 C286.27138631467335 271.13417018904954, 332.33710094352426 271.1955917105279, 454.161689586476 269.21937436539156 M454.71964884036106 269.8892957653953 C455.8476808087876 324.5315636866859, 453.61370806127525 379.6442678506378, 454.80549344196595 412.6634916695503 M454.9344202594652 268.0090914225069 C454.0236839317359 322.5275389477151, 454.27319522510413 376.24981533029865, 454.93579232477236 410.11639141363247 M455.5983448460412 410.55805942780563 C389.81486037041503 411.36617667853153, 327.73772905487345 408.7132869093889, 240.70425567249148 412.1934358624665 M453.24083773733724 410.692342384607 C381.66879307523027 410.54087984398194, 310.28114964879336 410.4728483766731, 241.47658900705676 410.32923078929105 M241.5723150784503 410.3467631361194 C240.93497611131892 361.5394201914644, 242.56393127545135 316.59716823045494, 241.27771581530575 267.93567637371393 M241.79023973251049 410.7677118760816 C242.88083940016057 379.88371091683865, 242.1169713735585 348.3548916866903, 241.59973987729148 269.25720830767597" stroke="rgb(0, 0, 0)" stroke-width="1" fill="none"/></g><text text-anchor="middle" font-family="Consolas, Courier" font-size="20" fill="rgb(27, 14, 139)" x="348" y="365">1969</text><text fill="rgb(150, 100, 28)" text-anchor="middle" font-family="Consolas, Courier" font-size="22px" font-weight="bolder" x="278" y="305">id19</text><text fill="rgb(27, 14, 139)" text-anchor="middle" font-family="Consolas, Courier" font-size="20" x="418" y="305">int</text><g><path d="M247.73161211444435 274.6323429668681 L308.11143756058993 274.9621416904317 L307.71423377572245 325.07191483990727 L248.04200594387402 324.8419191684929" stroke="none" stroke-width="0" fill="yellow"/><path d="M247.7482228296462 275.00421865163963 C269.25978431842094 275.0538677505207, 290.7181259620329 274.81403436672383, 308.1005179819459 275.275086619705 M247.98081705278668 274.919758354419 C264.55505059055787 274.83926219648043, 281.1957037506346 275.14885446056405, 307.9821876661164 274.9708537569175 M307.8575173052039 274.69513920089616 C307.8665766556038 292.02734321232066, 307.678195016422 309.9993923888115, 308.2659871566666 325.2649613121482 M307.96494481977754 274.9615685131449 C307.98606666003934 292.3726574898557, 308.1296022991524 310.23476343398045, 307.96972199044257 325.1910833993898 M308.15061625043245 325.21051407547446 C292.20494198509954 325.1054006546406, 275.3368310931408 325.2966170043781, 248.08305534824214 325.3916040956706 M308.0929375802809 324.9968608255317 C286.9243590857222 324.9051358732108, 265.74047527427933 325.13941055695153, 247.97218035420426 324.950889007201 M247.70001855267947 325.3262375816538 C247.95001258251892 307.3226074920958, 248.27248929795243 289.4250980040591, 248.35590881005297 274.9357409401194 M247.98718240068152 324.94132692281954 C248.02179837843389 311.59517366052006, 248.2335432865633 298.13034541962054, 247.87634691379725 274.88918958133837" stroke="#000" stroke-width="4" fill="none"/></g><g><path d="M389.1256644694529 275.8435430251041 C407.16170356942797 273.7759056563326, 426.72380259708353 276.4110495209377, 449.6189082094512 275.90948796931565 M387.30835590126253 274.41033795523185 C405.0049238108546 275.8893131462038, 419.7030812131332 275.9239591702586, 448.97663191033007 274.1822400410109 M448.42675642428736 274.70575867472184 C449.1917512681419 284.5210183671928, 447.4076752977036 296.98448334051767, 447.61458651404376 323.8347644913405 M447.13402344400527 274.0235308531862 C447.36268100563774 285.429076243336, 448.90862029742414 294.47713252380413, 448.6870902108208 325.92352060485285 M448.5755738587024 323.542912697987 C430.7352767341213 324.2722297174158, 412.89223626316283 324.9196021133501, 389.4235024997122 324.06328429398235 M448.48533204079365 324.0651377633664 C431.5901859399413 324.8252031476653, 415.41735798018453 325.4455460284749, 388.38510148554974 325.3708150230034 M386.41209614737903 326.485339241656 C388.0768737987818 313.4390108022101, 387.3598890874499 300.4203556807158, 386.0872336579146 273.4187604256542 M387.36384684055764 325.9977549130303 C387.7833745988097 310.89212045514176, 387.44551038186063 295.68428327016943, 388.76710494785533 274.90343625432064" stroke="#000" stroke-width="1" fill="none"/></g><g><path d="M485.5327548295587 275.9493620812978 C552.0573799035401 274.91595404651264, 621.3816388699686 275.51258759496073, 684.0709435190907 275.19710494501953 M484.622553293942 275.34978143869057 C526.1159143312817 276.5166521333983, 568.7057204353858 274.96490688210133, 685.8093570074592 275.3376091808348 M684.080953839767 275.96931583051406 C686.7114285435036 308.85470253725936, 683.351855753779 342.69260622412503, 685.857225007305 405.6376679908618 M685.5204756816538 274.9783696228053 C685.2911809850297 303.5786920239167, 685.9259701094478 330.8608441024545, 684.2904626303676 404.4555957700916 M684.6444271140659 403.9198805661996 C607.4097214523954 404.62155867495335, 529.774658392921 405.1854372983564, 484.7563258622343 405.577187219507 M685.5625446540714 404.8546959234526 C614.097255364744 406.4949498312695, 545.3937182435836 406.17179142407457, 484.99229776595666 404.89619471714843 M485.56009168222585 405.6475782090019 C486.3201280726121 358.13093328344075, 486.8499057518451 307.33954357968037, 483.18308720994014 273.2266325992449 M485.8671172975451 404.7672821560867 C484.5477093071042 375.55667730524715, 485.7323143695986 346.82412495232114, 484.28904633662944 274.0416476697045" stroke="#000" stroke-width="1" fill="none"/></g><g><path d="M477.2617677136996 270.6866430177914 C554.0290076885567 265.6187116626296, 626.6536972509144 267.1439410522971, 691.3384806800706 269.00552215452234 M478.90198861061765 269.76101508871426 C536.4037864405885 267.0065952747919, 594.3508514536142 267.72243016641426, 691.628139701727 269.16558804606626 M689.9017593317084 269.569250421055 C690.4414138964468 303.8371383537654, 689.7864710495621 341.8043953945093, 691.4364375214757 410.84610538764247 M690.1976486779135 269.93721963931716 C689.9243201889014 302.502038869034, 690.410289110381 335.30469590962764, 691.5799703482306 411.6326321798697 M692.7448057704636 410.57904427462813 C630.0501662982701 410.92307518281046, 571.3968786497137 412.12315486474233, 478.75807251196966 411.9501938024654 M690.4918464439257 410.9474273955427 C608.6245725623218 413.2865175803888, 524.9480304051822 412.79116850854393, 478.33070016778834 411.7732801034362 M480.6811925165919 409.86349019453377 C478.48074977231886 359.20506101966805, 480.23175671282837 310.1414739111551, 480.3170002720997 267.57304118912657 M478.6800651369601 410.4634612941717 C479.044156527905 363.6305332869563, 478.99936222482705 317.76389188121715, 478.7175082288416 268.78445279771387" stroke="rgb(0, 0, 0)" stroke-width="1" fill="none"/></g><text text-anchor="middle" font-family="Consolas, Courier" font-size="20" fill="rgb(27, 14, 139)" x="585" y="365">True</text><text fill="rgb(150, 100, 28)" text-anchor="middle" font-family="Consolas, Courier" font-size="20" x="515" y="305">id32</text><text fill="rgb(27, 14, 139)" text-anchor="middle" font-family="Consolas, Courier" font-size="20" x="655" y="305">bool</text><g><path d="M485.4663177793649 276.09427462574877 C499.4806879717967 275.47752871790647, 517.8786797684853 274.8148803821941, 545.8206010208252 276.76436147056967 M484.7466673339229 274.0100029248708 C503.9673140569671 274.8511607680848, 523.7773140243119 274.61919115789783, 544.6279292472949 275.7318466918734 M546.2750330037553 275.009662890688 C545.978664155882 284.2297595908475, 545.6150112262519 295.7025861117814, 543.6799725535093 324.8101251058599 M545.2923434736979 275.86794575637185 C546.0928260472082 290.59107780949626, 544.608472557953 307.79548032998406, 545.2494466667767 324.287061011967 M543.9924903429071 323.98061955639315 C524.3482074667172 326.6908281514604, 503.64582522388076 326.1558333019686, 486.53196334317136 325.1134932869931 M545.7038486801044 325.89646326161875 C530.9259924127242 324.7528094894321, 515.5556380853315 324.32576775916345, 484.0751800303862 325.4497620920717 M486.2894157106135 325.13027917611987 C484.6397249779889 311.25132708126915, 484.00561904550955 296.0804071826656, 486.8948884959957 273.7768035563864 M484.4601743263369 324.6557744841734 C484.39672025640726 307.68847510507436, 485.41142612079864 289.9248284432235, 484.1320540877973 275.070604703918" stroke="#000" stroke-width="1" fill="none"/></g><g><path d="M626.0199472188581 275.3396038976736 C638.0015863089058 276.4110886461519, 649.4075459744877 276.3175321112739, 685.9278488773846 273.4971414908298 M624.3103129462588 275.3563775240534 C648.4056620135825 275.25899428268633, 673.6544086751197 274.5302241546751, 685.1171582667813 275.17859246404157 M684.9114658468144 274.26355467263795 C683.0145708257178 291.8915002681579, 683.3072942531558 308.4607507941865, 686.9242494839852 325.9530488064592 M685.6985257973403 275.67992132207934 C684.8510173349142 287.3532392170657, 685.3410497112632 299.79723593032696, 684.2529710944488 324.47714445810453 M685.7992893929251 323.5403348025818 C666.8129349999163 323.80814451773136, 646.3011198622219 325.9174622906756, 625.1219020788386 325.02690823503895 M684.7791468376503 325.4979900884049 C672.7899089181677 324.6603967384382, 660.1509251700578 323.6567343044943, 625.0388062391077 324.80541896393134 M623.3272027680234 325.2803107845665 C624.8768784001908 313.2746382124264, 625.9208985924372 306.1233486612839, 623.4490171739048 273.33021208873737 M624.5014288570993 325.64791843716654 C624.2858025256415 306.6938029596893, 624.5719897738793 287.1252215983267, 625.2468714364451 275.7718472766233" stroke="#000" stroke-width="1" fill="none"/></g><g><path d="M722.0315815903142 275.12151318073217 L921.8181365405047 274.77523516239137 L922.3054568873279 405.103827139953 L722.0693063581991 404.8159194417473" stroke="none" stroke-width="0" fill="yellow"/><path d="M722.2499149619233 274.6942376376742 C800.035390686254 274.90654439644067, 878.5013443911533 274.57667358827035, 921.8284650734597 275.23592085260435 M722.0473461578825 274.98607841349707 C797.5461955436774 274.8153718768588, 873.0540274010693 274.6662109961144, 921.9675965622553 275.00430886023224 M922.1113101972114 274.6419044359937 C922.3820046246817 322.40551980315104, 922.1099770680215 370.14439669705166, 921.8262662524596 404.61420421057136 M921.9562206190639 274.8224944584616 C921.8521373731538 309.5787416137777, 921.7151007556614 344.588320184916, 921.9992061862832 405.01753913442667 M922.3567276123932 405.2738670018325 C866.3975035822248 405.0494928872454, 811.6476905633504 404.36789570322804, 721.7298135651835 405.12312362873735 M921.8948828519405 404.86910281093986 C869.3381461853703 404.96171296583765, 816.701570043746 404.7251235642866, 721.9056732017243 404.92099126664357 M722.0062709634944 405.26241486348584 C722.2710985422831 372.36913573305316, 721.7791064113045 338.8420735148862, 722.2080804622973 274.6675147830567 M721.8651798353806 405.07498393771783 C722.0917381935777 356.26524757897226, 721.7773703377323 307.56750146727893, 721.9309969398896 274.8503252447975" stroke="#000" stroke-width="4" fill="none"/></g><g><path d="M716.5389923546636 270.133752022539 C759.2262948107561 270.54910870978097, 805.3697215036026 269.68271301814406, 928.4187837780269 269.4366321492747 M716.3676070567241 268.81885723892356 C785.8841841122652 267.4085894303431, 856.8912026273982 268.2626778792682, 928.7237718429969 269.2073418378904 M926.7854206004614 267.1675481764373 C926.7207385317247 309.6900605182064, 929.9450562766837 352.2354107505445, 928.4483201516404 409.4563578514586 M928.2227581206412 269.9845858168917 C927.1612561012573 311.63735394515965, 928.0111440884518 354.5387939802702, 928.2111741502198 411.0503641190848 M929.4376908784047 410.7761344011151 C857.920149904687 412.57686550182655, 786.8880593232458 410.2684351615744, 714.5297254548998 410.38751876153555 M928.2036194080961 411.7264396382109 C872.5090067171029 411.32621422176095, 818.253883616638 411.7110245052412, 716.579968382627 410.4927378126265 M715.0040813483413 411.09092998882073 C717.301380964523 372.09497000545787, 714.9438068640632 333.5195094575847, 714.7916441184096 269.5267385447756 M715.4786494681961 411.67762162273465 C716.056369025446 357.0374623631211, 715.2567044114091 304.0882786222876, 716.5145256678304 269.40333293686245" stroke="rgb(0, 0, 0)" stroke-width="1" fill="none"/></g><text text-anchor="middle" font-family="Consolas, Courier" font-size="22px" fill="rgb(27, 14, 139)" font-weight="bolder" x="822" y="365">"David is cool"</text><text fill="rgb(150, 100, 28)" text-anchor="middle" font-family="Consolas, Courier" font-size="22px" font-weight="bolder" font-style="italic" x="752" y="305">id43</text><text fill="rgb(27, 14, 139)" text-anchor="middle" font-family="Consolas, Courier" font-size="22px" font-weight="bolder" x="892" y="305">str</text><g><path d="M722.0980129220131 274.8241407828493 C735.2593025030053 274.9066290174907, 747.8242000006744 275.33207495897824, 781.9772713059201 274.7978003205353 M722.0527502058383 275.0339973525667 C735.1112043410303 275.107675939645, 748.7071793523189 275.22568834400994, 782.1850798089151 274.85592556024346 M782.1840373691863 275.2456806219325 C782.1498824183534 289.5710740409579, 782.326208443535 304.32441405034854, 781.9259873547945 324.85291400736065 M781.8630104535207 274.8945910778899 C781.9463887917129 287.071904500273, 782.163675420832 298.9486670414151, 782.0456227262266 324.9157112750847 M781.8649767868717 325.16639998362285 C760.2785867680085 324.97341248248466, 738.4229712238019 325.24841082635754, 721.8268741797028 324.66392313182416 M781.938101680759 325.0907149566193 C766.9842301504657 325.030879345805, 752.4406114826779 324.7872104144451, 721.8085014818836 324.904621902077 M722.1185431753515 324.85980863409713 C721.95484206344 310.0100431815702, 721.7474418786788 294.62396244763795, 722.0679282695468 275.0399112952036 M722.0655371147012 325.0593929736798 C722.0845960480552 314.6629271916602, 722.0907228262313 304.2423942991406, 721.9603066930828 274.9526585427201" stroke="#000" stroke-width="4" fill="none"/></g><g><path d="M861.6779807115241 275.0628651861018 L922.3015633033262 275.2849898039125 L921.9432929360903 324.8998808775544 L862.3913769539696 324.75882592800906" stroke="none" stroke-width="0" fill="white"/><path d="M861.6535184183335 275.2316442199695 C876.6060652868632 275.00809530447515, 891.8927987691627 275.34507146737405, 922.3316981768755 274.6559917555617 M861.8342665961965 275.0127480053414 C879.1515345318433 275.1029579187997, 896.4769797982791 274.8497641090163, 922.1898017449771 275.0560717315702 M921.8051356019238 274.7907530531751 C922.1077816225526 286.7463033758608, 922.198643843232 298.7891216833435, 921.8520634759866 325.0826321916338 M921.9821273364488 274.96558831552807 C922.1513295570024 286.20076005462187, 921.9509905557085 297.104824089866, 922.0061165277834 325.15305019447914 M922.2540187982962 324.8789676079179 C901.0849355912266 325.26480629371906, 879.9595174579284 325.28694875114735, 861.9016427860148 324.6689387089471 M921.9601385065799 325.10894714216784 C908.6015355139223 325.0573807561592, 895.2195533797657 325.03570087617067, 862.1253474406054 324.8344730057068 M861.6874031777763 324.71907179393673 C861.6232996751485 310.16585054666297, 861.8607291412359 294.27098036026786, 861.6350463339941 275.1779480589147 M862.1869514504643 324.8929552582819 C862.0508185638043 305.3513108660956, 861.8892572518561 285.93420020900527, 862.1288427327125 275.11887150841727" stroke="#000" stroke-width="4" fill="none"/></g><g><path d="M958.6406454141262 274.9711845842424 L1158.6791652093 275.29533306996433 L1159.3506542413982 405.13545479995133 L959.2276370598786 404.96736327039275" stroke="none" stroke-width="0" fill="white"/><path d="M958.8363421874932 274.94843283365583 C1016.1510432822201 274.84987006472153, 1073.6619468182305 274.9555202881787, 1158.6472608741751 274.74868886777966 M958.877490825001 274.8261685978373 C1025.3592713505839 275.0593250423324, 1091.8926356962952 275.10749737304565, 1158.8471212354232 275.07848205965627 M1159.1572650540256 274.8816938819435 C1158.9482778329118 309.77262285022846, 1159.1358499559838 344.7329043189071, 1158.9136252376532 404.7847919746303 M1159.0813159478992 275.1020016967121 C1158.9184682659159 325.74511420166726, 1158.9254955409187 376.45367769138454, 1158.9010942845148 404.83932544381025 M1159.0015393873134 405.24706648092354 C1110.1850749026742 404.6439481829457, 1061.8338448231011 404.73228696402214, 959.3407144963337 405.0753399936641 M1159.0301219823739 404.83237729566406 C1096.7973718843666 405.0451687365986, 1034.486214765505 405.1367292156217, 958.9396200799931 405.1218719040838 M958.7801221213664 404.8889473920669 C959.4387673833514 359.4499916899085, 959.6253138913928 313.49997753516226, 959.3676280077138 274.63454570744545 M959.0170903833927 404.84964786167404 C959.2351427201012 370.2391027969431, 959.3072104629322 335.5101923961464, 958.8239733555292 274.8196703575507" stroke="#000" stroke-width="4" fill="none"/></g><g><path d="M953.1060485305047 270.48853296721916 C1027.1572846128706 269.8612036359881, 1099.3488889333614 267.7536993483922, 1165.2002847744498 269.7869930317894 M952.3102226667326 269.7880303712741 C1021.2452221943219 267.89854483697815, 1088.875957083617 268.6301600984372, 1165.313927123061 269.1926353422108 M1166.2336864549027 267.9908556180859 C1165.7131489028786 302.8473566574341, 1167.2814651593735 336.1570600644069, 1165.9949842016333 411.65051291725183 M1165.630361468731 269.2830337048952 C1165.3794426295176 314.07028901853766, 1165.2211678872004 358.80052691544694, 1165.24383195661 411.86079179053 M1165.4915934911244 410.2550327277845 C1106.7608690526065 409.85716511418656, 1043.7483314039882 408.9754079144888, 954.6750296085878 411.51293482185196 M1164.9611067193537 411.5482864772229 C1097.6159935021328 409.9190072814598, 1029.5023422954284 411.18670174889195, 953.5000987776926 410.5378297815022 M954.5512601997729 411.1339664697595 C952.8792581873707 367.86930523300043, 953.1254495790361 326.29825993800205, 954.8072748137299 267.3854318676022 M953.7627257211103 411.5311189785504 C953.669751596248 380.5535127610606, 954.1932225298129 350.5971332469544, 952.5496736825108 269.0595421151549" stroke="rgb(0, 0, 0)" stroke-width="1" fill="none"/></g><g><path d="M985.0665498301535 340.4689896399118 C1001.2863800114872 338.5147170946778, 1020.7436342092866 341.38628971146596, 1043.7748879477524 339.247905403257 M983.0441335599143 339.9590247646472 C1005.348553882568 341.43041114279475, 1027.3000104624796 339.9482554643267, 1042.0840499508606 340.28151084710754 M1042.1220984953811 340.6467027020696 C1042.9524367833094 353.18812814726596, 1043.2394094908555 365.7174613867019, 1042.4966082783567 391.56724459600895 M1041.5150716527717 340.76702929545183 C1043.4757706960204 352.15485399350734, 1041.937150774013 365.1013418231389, 1041.8726048192777 390.88211731126427 M1041.0274871306594 391.1936591923503 C1027.0060098716178 388.3435121287878, 1011.9243455671668 389.21707467525454, 985.823237150179 388.2133453585149 M1041.6740775795104 390.01870161758353 C1030.301789976751 389.33409741357207, 1017.8396132087752 389.70511540813646, 984.7154141090919 389.83839079807245 M983.6441148157369 389.24539419256314 C983.7613142520721 373.40956927775204, 982.8605749313726 357.12276184177836, 985.2288825732765 339.29448115875186 M984.5420336234054 389.7904595358602 C984.5547663838522 378.7747892767196, 984.0018661551188 366.27744521636424, 983.1516133379447 339.2851789216649" stroke="rgb(0, 0, 0)" stroke-width="1" fill="none"/></g><text text-anchor="middle" font-family="Consolas, Courier" font-size="22px" fill="rgb(150, 100, 28)" font-weight="bolder" x="1013" y="370">id82</text><g><path d="M1040.8115971414572 341.63920752348145 C1053.161432166763 340.00438547745335, 1067.0600869281427 340.0193274862667, 1098.1752320610726 338.67764789878845 M1042.1703061023666 339.20408850030174 C1064.321758512054 340.7188303514301, 1086.2330013556643 338.7906773349124, 1099.6815232779597 340.5135387339888 M1099.5758791908938 338.11927775399164 C1101.0872180591073 356.0444273845298, 1099.9907300460202 376.881148892039, 1098.5203169541383 388.87576005363076 M1100.8939727953045 340.2000371701391 C1099.6941632672845 355.5496235072326, 1099.2223688650877 372.13954401419886, 1100.969906635577 389.2451201111384 M1101.2145234367988 390.7139506790626 C1082.0020878692962 388.9326073358609, 1063.6787615356939 389.0743301518771, 1042.823692156673 388.62279168596723 M1099.3775887001968 390.717166622511 C1078.5593220641658 389.8661827889334, 1056.176141727917 389.5677614274435, 1041.6792800601625 390.5535135333053 M1042.3955284651456 391.27399464115604 C1043.2252810750274 373.73854117754644, 1042.3082139741227 353.83152615852117, 1042.4605369937015 341.4691321788416 M1042.9680350467559 390.0419668608347 C1043.316542985747 370.8359332118977, 1043.1983942725708 350.9990435513608, 1041.6166184309789 340.6707590002511" stroke="rgb(0, 0, 0)" stroke-width="1" fill="none"/></g><text text-anchor="middle" font-family="Consolas, Courier" font-size="22px" fill="rgb(150, 100, 28)" font-weight="bolder" x="1071" y="370">id76</text><text fill="rgb(150, 100, 28)" text-anchor="middle" font-family="Consolas, Courier" font-size="22px" font-weight="bolder" x="989" y="305">id11</text><text fill="rgb(27, 14, 139)" text-anchor="middle" font-family="Consolas, Courier" font-size="22px" font-weight="bolder" x="1124" y="305">tuple</text><g><path d="M958.8251543152701 275.1988828921412 C975.2334785149349 275.0842811435056, 992.1307839561046 275.0745158309856, 1018.8162684965966 275.3823594188904 M958.8907508278351 275.006777929285 C982.0744366177998 274.9797434217151, 1005.0430989988272 275.0860185126622, 1019.1340321351154 274.84311500461394 M1019.3639990639352 275.3431080475129 C1019.3180839776228 289.1404847004554, 1019.1174138433719 303.2159756695019, 1019.2115216147453 325.07746685952395 M1019.0996665832101 274.83082329022994 C1018.9608391620094 290.414487430337, 1018.973867957761 305.8047820300942, 1019.1234425651955 325.18689630847365 M1018.8055208489859 324.65326623323364 C999.9781116100221 325.10053294705347, 980.579982055372 325.014843357928, 959.1300513779394 324.9941804577987 M1019.0990604519203 324.9789451561651 C1006.7185574459737 324.9946144059491, 994.6606721257002 324.77161939753387, 958.8747084521477 324.9336548972052 M959.3159693139207 325.14827499180717 C959.3941057159909 307.00228248660113, 958.912620582781 288.7797621548432, 959.3691327260715 274.63612589519596 M959.1372921439304 324.82320882050493 C958.797654816105 310.0536756029335, 958.9859760674171 295.49858830545537, 959.1883613503733 274.89262645226114" stroke="#000" stroke-width="4" fill="none"/></g><g><path d="M1088.786646314614 274.64976166874385 C1108.501381086946 275.11447649682515, 1128.389466771247 275.24523804439826, 1159.075189815148 274.8109201624998 M1089.1293691278017 275.0358851023941 C1106.3121006890449 275.04717069695454, 1123.5280472678785 275.0316891462422, 1158.8516353769312 274.99548559823916 M1158.8070340954287 275.2533056800261 C1159.2031688688478 292.4904752245371, 1159.3910343622392 309.46455970555616, 1158.930778899326 324.8064930511004 M1159.1671048365322 274.89217737793086 C1159.264350259879 291.03106839910794, 1159.2708927369495 306.9813284295877, 1158.9632490360552 325.19283106006844 M1158.8684140310736 324.979012902734 C1134.3298222678052 324.85817337239115, 1109.2478548873544 325.061501724998, 1089.3338672253403 324.9163580037903 M1158.9525676518297 325.17350997103944 C1143.5951471218266 325.0834984295689, 1128.023234713564 325.12247022414846, 1089.1128889226807 325.1590289971407 M1089.3689948254287 324.7161203197875 C1088.6956470847756 313.1897679200117, 1089.004578595747 302.18389670302196, 1088.8712070585646 275.1240221101499 M1089.1922158691777 324.85628359846856 C1088.9905069773406 311.71640618413875, 1088.900352024659 298.69049114359194, 1089.1956955290746 274.94629787206884" stroke="#000" stroke-width="4" fill="none"/></g><g><path d="M250.18810995441103 438.73802534627214 L497.87584619828874 445.3786605876913 L498.8321092528573 573.7865084990394 L250.71647151336788 571.739738555356" stroke="none" stroke-width="0" fill="rgb(247, 247, 247)"/><path d="M247.45609959399277 444.01051239494296 C314.49913137780607 447.26254194078166, 383.32186599380515 442.92767768232375, 497.17685670373413 441.8142914547642 M247.4869887497946 441.4237425611717 C313.75199858552486 437.9780582015748, 381.1719389448694 438.3677931837604, 497.1254777402811 442.5733100297673 M495.16693062349424 445.80505476494926 C496.2798383631031 472.22556601261454, 493.61520631425975 496.33356266700486, 494.44075261369267 571.7620429256642 M495.57766889609695 440.20587359597624 C496.31788680122764 474.16340639827075, 494.18447312974695 508.29712383118715, 496.86228071926126 571.3190311848996 M495.44230757044795 569.2988221432921 C418.5175921216416 572.5273752712492, 345.76745584155606 573.6903364203522, 247.14709462541634 571.9316414024428 M496.2460536878298 573.0679794604225 C423.09562951347567 569.4938556269124, 349.06869164331965 567.7251696356527, 248.9629252395096 572.7722765527495 M247.21725473845407 570.0297414600287 C247.32062558235816 522.5313867183003, 250.35385984764227 476.8981084809655, 245.47862194705368 445.3658421819422 M247.68414197318128 572.3957639030017 C248.93851763762706 523.1415761434944, 250.15384237148945 471.0341962138408, 246.63500193321778 441.9338981979477" stroke="#000" stroke-width="0.5" fill="none"/></g><g><path d="M273.8071988501099 507.2886806983403 C289.9886902716219 507.9134498565003, 306.0889137851005 506.07058120160724, 330.77978839887464 508.1640689481839 M272.28657443273244 506.4313082231054 C291.7477624138155 506.3849969403716, 311.19883530746654 507.2225993692252, 331.9839866637107 507.57675049358636 M331.11141405082327 506.2795165175179 C329.84192276849024 518.6864096550847, 332.09146646477075 531.350887878377, 331.43174143713844 556.0639581569546 M331.77121955420137 506.7208927828075 C330.3445113167242 522.551809294472, 330.49184970897613 536.3924777126729, 330.6665881914259 556.2972647984343 M332.4957934750672 555.0271906294383 C308.0625418787958 555.5757837624105, 286.86509197876046 555.6846405548099, 273.82128866793124 556.5154161080301 M330.24500618882183 556.9514063444559 C317.753143742182 556.6408205297552, 303.4195672199416 556.5679767516204, 273.70815661458744 556.8246374714158 M273.57684575152786 555.9228634941022 C271.4761597622577 542.3536076870137, 275.10599757508817 527.8984311089912, 273.9161260416444 507.4586458103033 M273.34598727503743 557.0614412607541 C273.1860149492092 541.77489936401, 273.6206252771523 524.2835290077551, 273.36921647708164 506.51719116658865" stroke="rgb(0, 0, 0)" stroke-width="1" fill="none"/></g><text text-anchor="middle" font-family="Consolas, Courier" font-size="20" fill="rgb(150, 100, 28)" fill-opacity="0.4" x="302" y="537">id36</text><g><path d="M342.0801916426204 506.4627345647312 C359.02013183609773 507.5079259683154, 375.6442314741928 504.77697669683226, 401.06419765043796 508.28305232292604 M343.5763882497463 506.6701532379107 C363.1410037553997 506.19694943977436, 382.6361926047833 506.06202482496553, 401.67427576649095 507.0138273700933 M399.71433230285237 508.7894721912132 C401.7402443809813 524.2334564502554, 402.24668443700165 540.3445996888327, 400.2662155977314 557.9881971115235 M401.6267397254012 507.95432800693385 C401.40476424813977 518.4666679413659, 402.0408840520771 530.7170931820957, 401.77894760138014 556.8697714793561 M403.18551022097 555.4824664141435 C379.59526102459535 555.2163492219236, 356.11956548072703 556.6939600439766, 343.7620652531072 558.589372194527 M400.76648626396315 556.0998887702546 C382.32637028202424 557.5393335334253, 362.28361897681265 558.489383898028, 343.6468471490697 556.9017919040084 M345.28212551000433 556.9333705936825 C342.07106427846475 536.549590204755, 344.5658099799979 519.2320160553219, 344.9628577037398 506.963532549387 M343.23217896590756 557.4967595105195 C342.5917942094634 545.6325268409532, 342.6520935743148 533.5134338758064, 343.7510122872898 506.43360464062533" stroke="rgb(0, 0, 0)" stroke-width="1" fill="none"/></g><text text-anchor="middle" font-family="Consolas, Courier" font-size="20" fill="rgb(150, 100, 28)" fill-opacity="0.4" x="372.5" y="537">id49</text><text fill="rgb(0, 0, 0)" text-anchor="middle" font-family="Consolas, Courier" font-size="20" x="337.25" y="537">,</text><g><path d="M415.2744337221242 505.6860328746954 C434.17277736798167 508.4511811481024, 457.0548934101077 507.6842325950457, 472.2561887262113 506.9143749044649 M413.12362313108827 506.58464879303864 C428.23463633862656 506.1097733492304, 440.9826965837908 506.11028974671933, 471.76587100186345 507.26595993185924 M470.9881534944282 505.42011555954025 C472.21126169335486 528.1084316635988, 471.0234596342907 545.604533186507, 471.0654800471111 557.4469844545827 M471.6545008568096 506.99901161045443 C471.74698475599376 520.3802295796312, 473.00874437398863 533.6559669582372, 471.67207723700585 556.7589964064448 M471.5263032004939 556.5635692131336 C457.73729133823866 556.0238302567842, 441.7299839548786 557.0422747401132, 412.6029553333177 557.430088608797 M472.1692486364739 557.5227733116 C458.5843476430627 557.0667666057723, 443.72534196406906 556.3484954282906, 413.0357543517016 556.7632175370453 M412.2541543672648 558.8980210959634 C415.76648083247085 537.9495765813161, 416.1688645636068 519.6245229874074, 414.0543395932326 508.6443392715587 M414.3501813462629 557.561185972684 C413.3306988242338 541.2774588192661, 413.2803264984553 525.085098717264, 414.9241147590992 507.9487340002754" stroke="rgb(0, 0, 0)" stroke-width="1" fill="none"/></g><text text-anchor="middle" font-family="Consolas, Courier" font-size="20" fill="rgb(150, 100, 28)" fill-opacity="0.4" x="443" y="537">id64</text><text fill="rgb(0, 0, 0)" text-anchor="middle" font-family="Consolas, Courier" font-size="20" x="407.75" y="537">,</text><text fill="rgb(150, 100, 28)" text-anchor="middle" font-family="Consolas, Courier" font-size="20" fill-opacity="0.4" x="278" y="472">id90</text><text fill="rgb(27, 14, 139)" text-anchor="middle" font-family="Consolas, Courier" font-size="20" fill-opacity="0.4" x="467" y="472">set</text><g><path d="M248.78897780385807 438.5548354700918 C258.81646615436324 445.1622905807743, 276.74336858004693 440.5514236491465, 307.0122153976475 439.7689418926126 M248.08189526025603 442.03557513950335 C263.6103806570816 443.06384901548745, 275.9791454327364 440.3083862458404, 309.8782219094581 441.00227006343255 M311.65633828350946 440.60870722555296 C306.45286731242646 457.72553312052463, 305.1477918492262 464.08397959869023, 310.81925162940485 490.02286682473243 M306.419306862041 440.41738044260296 C306.5670862046715 453.61666259670284, 305.21781090260475 462.5414786788342, 308.7609350981414 493.95202752504224 M307.8158242975039 491.7340262418433 C288.0980490652373 488.8021196256265, 272.5971210162416 491.5713831006652, 248.67327040851472 489.322985868422 M308.9269655238109 491.1277262186222 C292.29447491702615 494.2990060164739, 274.8829310818557 493.7955452239375, 249.28586638654164 492.2507565376182 M251.94062203947578 492.11031411613794 C249.6391667458547 478.97497424557383, 251.20787775260274 462.7694275392007, 251.56121235710026 439.27136711900675 M249.34832698425603 491.97864685152285 C248.51782670253118 474.956467041927, 247.2285076479799 454.78215519078867, 249.81932818824973 443.19012804652624" stroke="#000" stroke-width="0.5" fill="none"/></g><g><path d="M440.29416759422605 444.56169801186945 C462.2302190752914 444.04104992365257, 480.8349376307997 443.78177772611303, 494.2778202858638 440.97192176187616 M436.0797833074414 441.71501533000065 C451.03108601810305 442.5203240182994, 462.7160158454015 439.0542257546794, 498.8396565883742 443.40626913591467 M498.310693799785 439.52622231886477 C496.161951924431 459.9588723827525, 497.8465887358391 484.18953797840123, 494.4929899311501 488.23959719392667 M497.1568421428787 441.67685607425403 C498.4309299503618 454.9408772954863, 495.60542669268574 467.2858619857565, 498.05152447938883 491.4082283403229 M497.9216527054029 491.64601189773344 C470.66341417578116 492.1815190685572, 451.7434084486509 494.71377302747266, 438.5925928847692 490.25342477402927 M496.42335541987745 491.6093497878024 C484.45407263596616 490.0187566022082, 468.6164291154775 493.06675968871025, 437.5976929424121 491.24053291675585 M439.22828350652975 493.9281778211676 C434.5667849002194 484.4539686106979, 437.3299313044379 468.6387912218596, 440.7683662946181 439.25226687504 M437.69179480347407 491.3184381442996 C435.9746828706811 475.4232497727927, 435.2995417116366 457.98411593298783, 438.83731501885813 440.55876150161646" stroke="#000" stroke-width="0.5" fill="none"/></g><text fill="rgb(0, 0, 0)" text-anchor="middle" font-family="Consolas, Courier" font-size="20" x="260.5" y="537">{</text><text fill="rgb(0, 0, 0)" text-anchor="middle" font-family="Consolas, Courier" font-size="20" x="484.5" y="537">}</text><g><path d="M546.6684863551437 517.7506683369868 C565.7377932886246 516.3216756376701, 580.8414901446929 517.5928799160957, 596.4326794935278 515.1556271394569 M547.6238736841852 517.7135311040006 C563.590109762461 516.3726019292642, 577.9171624834884 517.8152226219117, 597.7022746035725 516.3514740990805 M596.3843836994546 517.5628860823687 C596.1723159251276 528.9628278828346, 597.8480034316805 544.5679431841561, 597.427430455631 565.7070507123514 M596.9686770515789 516.9995659536748 C596.6623237041138 537.3161684786908, 595.8418819433648 555.8132237741161, 597.5217921214758 567.0813766483559 M596.513368328101 568.9720544936426 C584.0550582123211 567.7558023984448, 566.147628082928 566.9446100450683, 545.9990522540794 568.2001431088819 M596.1331101013392 566.786228189618 C584.6935833094466 567.0219321531395, 573.6365736420616 566.7451490729864, 546.7558178425155 567.9858183282599 M548.9251141224782 565.8163795283034 C545.809777909202 556.2425446116513, 546.1105866639653 546.7801680439367, 548.8432663398131 518.6242115011801 M546.3919179598894 567.1600981886643 C547.2388570215162 556.5977894944601, 545.5166199064768 545.3038188831493, 546.5115778750234 516.9732144738942" stroke="rgb(0, 0, 0)" stroke-width="1" fill="none"/></g><text text-anchor="middle" font-family="Consolas, Courier" font-size="20" fill="rgb(150, 100, 28)" x="574" y="547">idx</text><g><path d="M545.6960378997255 590.569509076438 C563.0966441406626 590.582189840462, 582.6214113583686 592.4706319267909, 598.1512989368906 592.4087876398916 M546.3455480094434 592.5764269359396 C558.6996998279253 592.7246433934274, 570.91347633901 592.4027816271148, 596.9258289443832 591.3909799487386 M596.2685857057486 593.6996605970626 C597.2101950225684 609.8127491450391, 596.1713894664124 623.7571698489888, 596.9228082127738 642.4432891641447 M596.4826951897594 591.0856978608814 C597.9572598331905 606.8815020350332, 597.283778642303 622.6922243534843, 597.6331441277873 641.8407955336363 M595.0902251136775 642.8334907123926 C585.0504418213629 643.2028135490322, 569.980587212147 643.4659862498511, 546.770049819032 643.4755312559575 M597.9190200745148 642.0574945606826 C584.9546980948489 642.5510316943062, 571.3012368930345 642.763354462416, 546.0266798735297 642.7155681676907 M548.9507832170318 640.7634760945265 C547.9932162062303 623.3447659288784, 545.6451077505343 603.1870876108554, 548.9165445919482 593.4545477497344 M546.8793084770193 641.6755834304449 C547.3598973419554 629.4718272621595, 546.6988951709025 618.7474079467296, 547.7749923066748 592.6346866264283" stroke="rgb(0, 0, 0)" stroke-width="1" fill="none"/></g><text text-anchor="middle" font-family="Consolas, Courier" font-size="20" fill="rgb(150, 100, 28)" x="574" y="622">idy</text><g><path d="M545.012670804985 667.2175584742625 C566.3111453310788 667.5405840451423, 584.3045503427378 668.1544345354154, 595.2547823876783 667.7173063245114 M547.4990371938156 666.5326288629376 C563.2293262869282 666.8963534392816, 578.5452628038598 667.6259695380563, 596.3021234060108 666.281293362421 M598.6439539992269 667.4629820973695 C597.928154987011 684.2915130210863, 598.2615986550206 702.765934121727, 598.6094802875658 718.6911648628136 M597.0104860938716 666.2791308833736 C597.5571846133587 681.1121648869249, 597.6316277437849 695.6238300990586, 596.438093061662 717.6178374960276 M597.3296461936131 718.0941082387246 C586.013283799708 715.6666357905727, 570.8066836262622 718.3015543211275, 546.7633440899185 718.9672615148006 M597.7490917097615 717.0405002392704 C585.9094858284355 716.2782958279915, 574.5578537387559 715.8355207817799, 546.6816366701689 716.4114981353209 M546.449152372072 717.8143785617849 C546.5334968148051 702.216529135818, 546.2913440462394 687.0793661496464, 545.7611389369962 665.7450830018835 M547.0048696914814 716.612030096837 C546.6425679010225 701.550732032005, 547.402080255584 686.007973982573, 546.1715112538263 667.6746686515829" stroke="rgb(0, 0, 0)" stroke-width="1" fill="none"/></g><text text-anchor="middle" font-family="Consolas, Courier" font-size="20" fill="rgb(150, 100, 28)" x="574" y="697">idz</text><text fill="rgb(0, 0, 0)" x="628" y="547" text-anchor="middle" font-family="Consolas, Courier" font-size="20">:</text><g><path d="M646.8088849956301 516.0603328013308 C664.6252838150434 515.241986218449, 685.7402831761957 517.6554985212636, 706.9712764194361 516.1907514841392 M647.1824523221015 516.6028037135444 C661.4547023778326 517.4635586881536, 673.0584903337075 516.2812620718267, 707.177087558164 516.86108647876 M708.2218478105145 517.2804844449386 C708.5988275857316 529.8737965992842, 706.0659786222693 540.2819147659725, 709.753244971067 565.1179047499743 M707.1538859734037 517.7959688528807 C708.3305164489835 530.4047423054556, 708.6618327578601 542.6313949480606, 707.7935375830401 566.4309787975582 M708.1968589353374 568.4262077834176 C695.2602203361859 569.0302558108517, 679.415797870648 567.3328105170938, 648.9178625674757 566.8947633369438 M707.6230996618126 566.677033264303 C686.5619688989427 566.3283942078034, 663.5686950593523 565.8161578068399, 647.803667998272 566.9241228311972 M649.6459721358361 566.8879121530724 C650.419197652594 550.5815103357261, 647.783280672358 532.6849843742419, 647.6194564031608 518.0035184314582 M647.5474466422285 566.4640629577145 C647.7903356162421 549.1067218140331, 647.0055865315246 531.5255203132672, 648.0483003141138 516.0612884062085" stroke="rgb(0, 0, 0)" stroke-width="1" fill="none"/></g><text text-anchor="middle" font-family="Consolas, Courier" font-size="20" fill="rgb(150, 100, 28)" x="678" y="547">id81</text><text fill="rgb(0, 0, 0)" x="628" y="622" text-anchor="middle" font-family="Consolas, Courier" font-size="20">:</text><g><path d="M647.0386185668195 593.702456952186 C675.6260689812151 593.0186195640007, 700.7331177231307 592.2810140575732, 720.9670040368956 592.6140822025637 M648.3656247165788 591.2913202438145 C664.7352456926548 593.5130530221246, 682.9366677998709 591.8221030324086, 719.907489464648 592.899601849557 M721.6176705116455 591.6283705647566 C718.158956434971 607.5964250076523, 717.7171097377966 619.9125390663372, 721.142910289205 641.366990455586 M719.7052856245458 592.4582077288316 C718.9154519323152 608.1466899680221, 720.6807625980063 624.6389448430166, 719.0964954442803 641.8193492144475 M718.86791043739 642.5419717827738 C704.5669344497901 640.9093144184435, 688.8417374390401 640.4225707800041, 649.566474158504 641.5785978103171 M720.4527358125628 641.8741001977711 C698.5833621620255 642.0228579391081, 679.4152181656397 641.5250326085271, 647.650596706247 642.8626984253744 M648.7072571846829 643.4956519309743 C648.6290483358745 620.1501924270823, 648.3152224339599 602.3737572876763, 646.1422210058723 590.9450973251596 M647.6348602933169 642.6710761218714 C648.700592877596 631.6009226045343, 648.4236242724998 619.6948265629254, 647.7290155419305 591.4104719788057" stroke="rgb(0, 0, 0)" stroke-width="1" fill="none"/></g><text text-anchor="middle" font-family="Consolas, Courier" font-size="20" fill="rgb(150, 100, 28)" x="684" y="622">id100</text><text fill="rgb(0, 0, 0)" x="628" y="697" text-anchor="middle" font-family="Consolas, Courier" font-size="20">:</text><g><path d="M648.629497110019 666.1877137478474 C677.6712435895283 664.8687545461474, 705.2002690988154 666.8401517668939, 720.7251014305165 666.9988466844592 M647.1381908155915 667.3621792276793 C663.4949267307765 666.9258629410036, 678.7508536964158 667.378584606493, 720.4491243655284 667.6063701795686 M720.6935666491803 667.1183251398268 C718.7450302290181 682.8567551208575, 719.6700304961713 703.3045223449395, 718.2052253268702 717.0644881162632 M720.8225747670144 667.937149072465 C719.4611163538727 680.5051328011194, 720.4597914155087 696.5578161910192, 719.0618155144417 716.2571630446058 M719.2359844267654 718.5780124582667 C701.9651618740371 716.2106429909094, 681.9301495088226 716.1117653695446, 647.2322225351137 717.3387005388716 M719.6013226634527 717.8523091273781 C697.7867519096859 715.6155056376839, 673.8181712717085 717.3765838579761, 647.8118404789385 717.1601934630029 M649.7849485149417 717.3363781499384 C649.1445938891683 705.6433100633553, 647.2418273549808 692.7904810651817, 647.1612364514609 667.1242321672192 M648.5321521754522 717.1054862031624 C648.9711171645047 704.6467142851077, 648.0266842582797 692.2053264307568, 647.0176887860715 667.6701299158515" stroke="rgb(0, 0, 0)" stroke-width="1" fill="none"/></g><text text-anchor="middle" font-family="Consolas, Courier" font-size="20" fill="rgb(150, 100, 28)" x="684" y="697">id121</text><g><path d="M520.5462556057865 443.3278801697828 L733.7392895694272 442.5440059182864 L734.6697833079209 742.9736631929209 L520.5773569056665 742.117735440229" stroke="none" stroke-width="0" fill="white"/><path d="M521.4522805772077 443.67078448634965 C601.0815904125956 443.0343651897943, 676.4586259428781 441.1479893908677, 732.7373933489578 442.1484409365363 M522.4723096590034 442.5085385695768 C571.8828405677469 442.8004969185104, 620.122957094063 442.3696002237087, 733.5224482035511 442.05968745987053 M732.6590996238684 442.38054941749397 C737.4614131847559 553.6876774936909, 735.0362477303692 668.9609836249343, 733.3410432407117 741.0309253688076 M733.5794905425801 441.48406623959227 C732.289969895838 513.2562046074983, 732.1943429371304 583.2129335912717, 733.8383699294646 742.3096821834331 M732.499756358249 742.2809031954721 C654.9541842886428 740.544921717341, 579.2630248615654 742.9696127923328, 522.9429895753709 743.3566015710397 M733.4687709277387 742.3988293285307 C671.2305147361272 741.6439762614491, 607.1337287977437 740.7469858755051, 521.7087975626466 742.4101204176495 M523.3070854409485 743.1085879149256 C524.2758308560236 634.4924643318899, 523.5043077704676 524.7020724705261, 522.3961142942877 441.18674703985033 M522.3013465436894 742.6192436930753 C523.1614385746718 670.4778610801986, 523.1239369037819 598.0711290459554, 521.7278662545779 441.9758565695895" stroke="#000" stroke-width="1" fill="none"/></g><text fill="rgb(150, 100, 28)" text-anchor="middle" font-family="Consolas, Courier" font-size="20" x="552" y="472">id10</text><text fill="rgb(27, 14, 139)" text-anchor="middle" font-family="Consolas, Courier" font-size="20" x="704" y="472">dict</text><g><path d="M523.0198274050409 442.99445509888614 L581.3340411996554 442.3592503000421 L583.4585686303056 493.69821484208967 L523.1808242693386 492.2587436282938" stroke="none" stroke-width="0" fill="white"/><path d="M522.7039938525911 443.5187992368741 C544.1595550329761 441.223807099695, 567.0757173923862 442.5516455089111, 583.8860929584054 442.11883393935096 M522.7275274946877 442.47629220265156 C542.9272049427935 441.95945777907826, 562.934723809969 443.18930811154235, 581.3343688870526 442.4866491416966 M583.6775559472985 441.23545844212043 C582.2077584121758 453.13498992258945, 580.2735821758068 468.7946848375481, 581.8671954393766 492.9659467114344 M581.7426919455975 442.8300200321517 C582.1898247230118 452.47623813897883, 582.4230958993816 464.6958245657616, 582.8137451939219 491.06373764336644 M582.4102425563666 492.0056741117927 C561.6934179867613 490.963014546083, 544.2637322840274 493.85595084414155, 523.5513547901018 491.2029739894389 M582.790236474455 491.8211960296556 C563.1890889631837 492.52893478997623, 546.1204169472737 491.8303972248993, 521.2571771199189 492.8742623960535 M523.7316060027497 490.6741082518803 C521.8111383685549 478.5699342115842, 522.3718010685758 465.7983038295686, 521.266397634524 440.96788586845605 M521.8561748545931 492.4994667764559 C522.9937453076355 475.1828256336353, 522.4867668902212 457.3824278607198, 522.6660775538531 441.0078222929677" stroke="#000" stroke-width="1" fill="none"/></g><g><path d="M674.9520795376452 441.23432928504957 L735.5797439050757 443.11615105819214 L734.3526295216645 493.69498383536694 L675.1158593846624 490.1573448795918" stroke="none" stroke-width="0" fill="white"/><path d="M673.0877937611555 441.00002960633714 C694.833887225767 444.26587904171674, 720.8699830452076 443.89977740984597, 732.3119693149702 441.4336259677803 M674.7726408609298 442.8827565051388 C693.6973966553696 441.5217945153788, 714.9399684355592 442.31750648774977, 734.1468554970496 441.70385186478546 M735.3009414612981 440.91259620316174 C732.5774180415833 457.02782048595503, 733.1749215602823 468.5931696357927, 735.661417569657 493.13111053485835 M734.2937186886091 442.846012555909 C734.3719670275843 451.9367902677537, 732.9835841992851 464.03238335516795, 733.4025992679749 492.6222160761822 M733.8905556923214 492.78219695822554 C719.1803199741014 492.15318728838776, 702.3019968526144 491.50071768624275, 675.5434379524582 491.86300845697104 M734.8954461873636 492.1615301905977 C722.5892606305547 492.3616039952441, 709.1895140611432 491.8115199367307, 673.4960890361715 492.9848244039008 M674.9788358954145 490.8622381691401 C673.7155169704673 482.1439901777728, 672.6032762215906 469.55526326287173, 673.8153559115406 442.6033706283661 M674.2661189688183 492.087831943502 C674.8558459894638 474.96317334375607, 674.0211932554841 459.4569783212512, 674.872389792605 442.6477249539771" stroke="#000" stroke-width="1" fill="none"/></g><g><path d="M758.9720054732226 440.8241486927376 C805.1084706821889 440.33650853964525, 854.4239637797809 439.64408626404395, 959.7865731330908 440.4596715590459 M759.2673565884194 441.7798697726349 C832.3618776783453 441.0948453518333, 907.4384735323415 439.89167885226914, 959.7187568185697 442.858499025853 M958.8385838943102 442.1117562935831 C957.9216348421724 481.8658814767331, 960.9366332724791 521.873100563871, 958.9040637311834 572.5733720522359 M959.9657443348299 441.4944748113947 C960.5846770824107 486.62173390328957, 960.4025137476494 529.9618235320306, 959.6653408202905 572.1292910350063 M957.796078870213 571.9510875683256 C906.0649657467214 572.9804038445499, 852.259862304079 572.3334281921744, 759.6323729596284 573.5976526939256 M959.4954690128462 572.1063635811959 C883.9068676439733 572.1854945791185, 809.716204819025 572.5243185104974, 758.1812415059045 572.0405960517691 M757.7123009716657 570.7318073376814 C759.4780093847712 530.566424534804, 757.8402871260748 485.79919873558646, 757.8503075056676 442.0403235557946 M759.7141995729119 572.9848909891983 C757.7910988663733 525.4375544181037, 757.4334818485846 477.42986816949815, 759.499302965116 442.2232770182187" stroke="#000" stroke-width="1" fill="none"/></g><g><path d="M751.318546691833 436.90220023516736 C829.3047903553626 434.334207908768, 907.3019759350644 435.5928366988983, 963.2749127430556 437.4378741161462 M753.8652415481416 436.612955126606 C822.5902421311281 434.9069762761662, 892.09225806506 435.10472534005737, 965.5808543385315 436.7233542951211 M966.3415750897278 435.42552768017237 C964.5039257023534 482.0689620628198, 964.9749861328356 523.3639042344704, 966.2725156812351 578.4448087078639 M965.2571705275179 436.65886047550475 C966.0518061815526 468.3682804845612, 965.7192253840198 501.10917362214354, 964.9715722129883 577.2533017456515 M965.1083490562266 577.872036645038 C895.3363585822246 578.7167375148473, 827.296864748705 578.8584284512979, 753.8888317949074 578.1585325086247 M964.94887041857 577.9545830116571 C909.720525486188 577.6030925337152, 852.6320480430969 577.8172720338086, 752.917199211661 577.8408481036154 M751.877023804007 578.5442854218711 C750.903570469448 539.7871768776852, 750.6449662422913 503.73999085943836, 753.055262621052 437.6280521697065 M753.9681390747774 578.2850292627504 C754.3245543553588 526.8137566726426, 754.1566207471147 477.3622099283357, 752.9957871574221 435.94440235815546" stroke="rgb(0, 0, 0)" stroke-width="1" fill="none"/></g><text text-anchor="middle" font-family="Consolas, Courier" font-size="20" fill="rgb(27, 14, 139)" x="859" y="532">"None"</text><text fill="rgb(150, 100, 28)" text-anchor="middle" font-family="Consolas, Courier" font-size="20" x="789" y="472">id13</text><text fill="rgb(27, 14, 139)" text-anchor="middle" font-family="Consolas, Courier" font-size="20" fill-opacity="0.4" x="929" y="472">None</text><g><path d="M760.691209842394 440.8994783867527 C774.7417682164809 440.49400281045854, 787.5906950876205 444.13850048773435, 817.5350476720681 440.88783832626706 M758.6226348354159 442.59947018148296 C775.1646791924952 441.82595881621756, 789.227385159997 442.77538917711325, 819.4887893345292 442.6694132289502 M818.152053108873 441.830737520549 C818.8596020675514 455.6343764227146, 819.916008577702 466.7122379555639, 820.7248465247795 492.0662400562271 M819.8704478785392 441.0357252557964 C819.9149105419054 461.14463128246217, 818.5529786716407 480.44964648615377, 819.3891188739588 491.17239116427425 M817.4265466271835 491.5088267468183 C804.662868532021 491.1309054131975, 792.7216541759783 490.2795979071755, 759.8823743727609 491.1837415113 M819.5763945634997 492.04817467218544 C800.9535519922538 491.65351315727725, 784.0999754175114 491.9875398905272, 758.9339377239058 492.36731457995165 M757.2635313422454 493.5902353427931 C757.2125807995161 476.8603742260816, 759.3315017797456 457.8473553987286, 759.0261999274375 441.6383260652716 M758.5748920177455 492.3355923662174 C760.0340708267039 472.8740503367226, 758.8941400462063 454.70431717346617, 759.434633293638 442.6288904403385" stroke="#000" stroke-width="1" fill="none"/></g><g><path d="M896.1721755514887 440.10556625949823 C914.1138551874634 443.6610624407984, 931.8878846416058 440.6406028777487, 961.985406256767 441.936277312882 M897.414378348457 442.12120659107563 C915.4443098480938 444.6411504812848, 934.3872828234868 441.9758447685987, 957.6481160241717 440.8591906073649 M955.2949416783163 443.49623924179707 C959.4621178462268 458.8686647173743, 961.7158519396488 476.92037182866613, 957.4508870716619 488.24806966446323 M960.5651329803502 443.43423108155446 C960.7089842599262 453.9858595531521, 959.2428972926066 470.385206363075, 960.6390527220901 492.6199477293925 M956.8962903839742 489.5611149518253 C940.0732936951389 491.7650695634238, 924.3203831436741 489.7269139091997, 901.7466505531413 491.78723480362316 M957.4788953696283 491.4380564498428 C936.6479511778367 493.16456256631005, 914.764037755739 494.2800455354467, 900.548137184257 491.51710770078716 M896.3388691024223 495.31057852194414 C898.3132377940146 472.3824697639982, 901.8193662961467 452.51390780884583, 901.241963629319 440.6633691768692 M897.8353087666696 492.07021193376676 C898.4136500039759 475.57011831984573, 898.135343876882 454.258216424376, 899.5476112525436 443.9682886412298" stroke="#000" stroke-width="0.5" fill="none"/></g></svg>