<svg data-theme="dark" width="521.2" height="500" xmlns="http://www.w3.org/2000/svg"><style>
        :root {
        --fade-text-color: rgb(0, 0, 0);
        --hide-text-color: white;

        --highlight-value-text-color: rgb(27, 14, 139);
        --highlight-id-text-color: rgb(150, 100, 28);

        --highlight-box-fill: yellow;
        --highlight-box-line-color: rgb(0, 0, 0);

        --fade-box-fill: rgb(247, 247, 247);
        --fade-box-line-color: gray;

        --hide-box-fill: white;

        --primitive-value-color: rgb(27, 14, 139);
        --id-text-color: rgb(150, 100, 28);
        --default-font-size: 20px;

        --highlight-object-fill: rgba(255, 255, 0, 0.6);
    }

        text {
            font-family: Consolas, Courier;
            font-size: 20px;
        }
        text.default {
            fill: rgb(0, 0, 0);
            text-anchor: middle;
        }
        text.attribute {
            fill: rgb(27, 14, 139);
            text-anchor: start;
        }
        text.variable {
            fill: rgb(0, 0, 0);
            text-anchor: start;
        }
        text.id {
            cursor: auto;
            fill: rgb(150, 100, 28);
            text-anchor: middle;
        }
        text.type {
            fill: rgb(27, 14, 139);
            text-anchor: middle;
        }
        text.value {
            fill: rgb(27, 14, 139);
            text-anchor: middle;
        }
        path {
            stroke: rgb(0, 0, 0);
        }
        .highlighted path {
            fill: var(--highlight-object-fill) !important;
        }
    
        [data-theme="dark"] {
            --highlight-value-text-color: #110875;
            --highlight-id-text-color: #6e4409;

            --fade-text-color: #BBBBBB;
            --hide-text-color: #121212;

            --highlight-box-fill: #EDB926;
            --highlight-box-line-color: #FFFFFF;

            --fade-box-fill: #2C2C2C;
            --fade-box-line-color: #666666;

            --hide-box-fill: #121212;

            --highlight-object-fill: rgba(72, 207, 173, 0.3);
        }
        [data-theme="dark"] text.default,
        [data-theme="dark"] text.variable {
            fill: rgb(224, 224, 224);
        }
        [data-theme="dark"] text.attribute,
        [data-theme="dark"] text.type,
        [data-theme="dark"] text.value {
            fill: rgb(144, 164, 237);
        }
        [data-theme="dark"] text.id {
            fill: rgb(255, 183, 77);
        }
        [data-theme="dark"] path {
            stroke: rgb(204, 204, 204);
        }
</style><g id="object-0"><path d="M24.614885751705728 26.060716714030697 L223.37360057853044 25.25329387978148 L224.8913173653978 476.0269158641343 L23.05622874790398 475.74271556299556" stroke="none" stroke-width="0" fill="none"/><path d="M25.905165635221238 23.5630912779136 C77.71830424448682 25.535825260429792, 128.05133218277106 26.96059659735994, 224.96844596199918 24.943048176272082 M25.21925627704228 25.28774408766338 C67.52243457237293 27.07224624759604, 110.67054278893083 27.06917430888008, 223.5751570949993 25.523725210696337 M223.3442163388725 24.769906673620163 C224.13436960526232 124.69541127223546, 223.64487252214886 224.40960099827768, 222.26436042743114 474.3758421691379 M223.18520594119283 25.053644254181382 C225.04576815106907 131.9240720186023, 224.78684141460803 238.19770493852295, 222.98845416024463 474.89621208847007 M224.18020495939746 476.9991178491588 C158.28572693851575 474.45557835126385, 97.12843262549691 477.63869655819684, 24.22849463989905 475.53595218466927 M222.40474703921583 475.144360823319 C144.89404315292046 475.93973716352, 68.24699683732496 475.49738453578465, 25.11267222093518 475.3326762944141 M25.275049671921316 474.94047096179986 C22.478114619032034 363.6827204670943, 22.79263672552678 250.95241279295942, 24.985768428520736 25.338593224148422 M24.804749364424037 475.0947688542601 C26.528732377622998 359.88335796939674, 26.854658312564776 244.39854834035154, 24.56219663986609 25.034368590441098" stroke="rgb(0, 0, 0)" stroke-width="1" fill="none"/></g><g><path d="M147.1109163492588 100.67064319447405 L206.27636551179694 99.97181380812272 L207.62523128021326 150.48442508502472 L149.60861233238128 148.82569136688332" stroke="none" stroke-width="0" fill="none"/><path d="M149.79922445301415 98.37355567386894 C164.09275803126292 99.13535163905122, 177.8361235124731 97.98711263748898, 206.02126219460905 101.39466346065655 M148.05822869756335 99.83568817420793 C171.64385844511585 100.09974868946968, 193.154836947614 99.23862478584212, 206.8149115712591 100.71590996799719 M207.9939083363199 98.58860487627224 C204.51981208249362 114.1427717226634, 206.60129345766182 130.3945429548827, 206.60807296755993 148.2236102845516 M206.2022728441408 100.06919603955565 C206.90550828177027 112.3500644514607, 206.03152617954976 125.73636955066571, 205.36941904550466 149.01983696245202 M204.09497600148836 149.64604049850632 C186.97817111053104 151.12998438999375, 166.14301470550004 149.79140900200056, 147.94515322156386 151.2263635491053 M206.63675553031288 149.39882162586 C191.73627858273707 149.68645309945396, 177.6767513478321 149.39779709634402, 148.56303454269644 149.83846857611167 M148.69545411213397 148.76081555003188 C147.24146103651103 134.575955968725, 147.80330771067082 113.96303712792611, 148.51375814397778 101.26437159675186 M148.449023201843 150.4821848222974 C148.29709855053858 137.03547519808936, 147.857977547974 123.9628665796266, 147.8442219393284 99.70713013060612" stroke="rgb(0, 0, 0)" stroke-width="1" fill="none"/></g><text x="50" y="130" class="variable">lst1</text><text x="177" y="130" class="id">id82</text><g><path d="M147.50481252676713 175.96265390006704 L205.25953986739404 176.44145927066697 L205.3665222444819 224.3230900160853 L147.90312837451538 225.89091090187057" stroke="none" stroke-width="0" fill="none"/><path d="M149.7178846434827 175.2522646129557 C165.20121605240018 173.73923955709392, 177.75475109309582 176.57418640947247, 204.11337081509618 176.16615587402677 M147.72820204955553 174.49143902159574 C163.8960345677475 175.46912124215663, 181.18285688795854 174.45779638754934, 206.59823770456154 174.92617150434452 M207.90499855286285 173.3290512288701 C208.2358995824958 185.77296004840034, 207.38849192008743 197.61112540234421, 205.43135541982372 224.069391142126 M206.7502061112998 175.06158054841467 C206.23998696685246 186.1133704537542, 205.02876220496415 197.08490508459084, 206.82955405120245 224.58861533048935 M207.23346568177783 224.08614352620228 C186.29315370606295 226.4140636576703, 168.98025037885085 223.66564017079693, 147.4689003203946 223.93485225523872 M205.06346100989424 224.81267433166838 C187.07894642136415 224.96442825759712, 170.8172858017467 225.26647192293012, 147.3067324757646 224.1885279449379 M149.07710035020034 223.6955112819923 C148.09027234805527 212.3228835353406, 147.99974675426978 202.60869735503516, 149.36155877021113 174.29494689909035 M147.88881970393302 224.73510796548902 C148.14921222677515 213.0957417721836, 148.61636427254183 198.70717308757506, 148.324063109791 174.6295831154081" stroke="rgb(0, 0, 0)" stroke-width="1" fill="none"/></g><text x="50" y="205" class="variable">lst2</text><text x="177" y="205" class="id">id84</text><g><path d="M148.35121449681816 249.18177861323107 L205.02713089509697 249.4678260533699 L205.08601968325846 300.4186551621731 L148.18961254397132 301.8772215522899" stroke="none" stroke-width="0" fill="none"/><path d="M148.15754045747133 248.40590778286585 C164.3213713354366 249.05823618608042, 179.89535069239963 250.2787966976737, 206.65131425989355 250.09162928430172 M147.44081180308143 250.36441118003663 C160.85781911067298 248.8500204337026, 174.2562036193187 249.77694061161583, 205.4319567175366 250.88635499973583 M207.36874355447145 249.9952760487816 C207.30752134126365 261.4751790455343, 206.8575499894781 269.8330651924267, 205.53568163264092 301.31618968485867 M205.54871573298536 250.90691984116282 C205.99039249205464 262.36131279203653, 206.91954399616364 275.9460401281574, 205.36257630046535 300.6524875539969 M207.4244450151091 298.37448890562314 C191.9765742458071 300.6145811470445, 177.47271770545694 299.0844401091191, 146.50300559645837 298.7243977307107 M205.5848214991924 299.7443107141834 C186.25694241221998 299.54138569361083, 165.07541747220023 299.4886229163453, 147.33670732863297 300.9660323146179 M146.33633061235454 301.20603898876817 C146.01225991950108 281.87972995332586, 147.9857517595854 261.575792025189, 147.17914322482048 250.45299506692265 M147.0424221406245 299.770484691731 C148.5361048041664 281.3677440610846, 147.28525485068474 262.63954104187326, 147.04135043208063 250.46893428974386" stroke="rgb(0, 0, 0)" stroke-width="1" fill="none"/></g><text x="50" y="280" class="variable">p</text><text x="177" y="280" class="id">id99</text><g><path d="M146.0018238503911 326.30994282391356 L205.61102757754637 323.5623462632077 L207.23921277310754 373.8053025588769 L146.70506516444513 376.5501561120624" stroke="none" stroke-width="0" fill="none"/><path d="M147.5502203207522 324.9698313702378 C164.84828518330568 325.70019896090895, 186.53074863319947 325.400823396924, 206.69562620297052 326.1983231624545 M148.52511486209167 324.035118274497 C166.71043905953417 325.3070671380414, 185.4463200348821 325.5001464656975, 205.57941970488534 324.9876154771843 M206.6827088807354 324.4689122435649 C204.99120285594398 346.0081786059773, 205.2095152895561 365.1363087957572, 206.1684114734479 375.49865645575494 M205.43779869867265 324.72634961247087 C205.14954006554754 336.8593739796984, 206.16245289194086 349.53707206127, 205.54454602592003 374.5312345832869 M204.6377593703369 374.4549186232802 C195.15186292546557 377.38597136275524, 180.95611562263437 374.25402001500555, 148.1930528466174 376.19622108110815 M206.42082856810043 374.33112822878945 C184.64604965348974 375.8383806120108, 162.86601073745973 376.28871357410185, 147.62186514608712 375.883478247488 M146.85612651366827 375.40462861417643 C148.6427320632365 360.9144958306116, 146.27098760407904 349.9259685603678, 147.93614774941693 323.03250032644576 M148.56406527858567 374.6964451826389 C147.78968048049703 354.6999757307141, 147.454148649418 335.4538882905441, 147.01091834101126 325.7910572106604" stroke="rgb(0, 0, 0)" stroke-width="1" fill="none"/></g><text x="50" y="355" class="variable">d</text><text x="177" y="355" class="id">id10</text><g><path d="M149.9363541512732 401.1152061144963 L207.62162487856486 398.8330984521187 L204.03478756663625 449.0237824747834 L149.55342132009685 448.77964047164346" stroke="none" stroke-width="0" fill="none"/><path d="M149.69305415557218 400.8010027733747 C168.4031005281281 398.13892271862625, 192.09142026756135 398.68860539443585, 205.13113953062106 398.1293029840055 M147.96417199732159 400.0543111576655 C162.355850808068 400.6990181500968, 174.89607765292823 399.1422211100456, 206.3895105908084 399.74487161535285 M204.71712000808554 398.61816154663506 C205.69628380238913 414.2726352887044, 203.79747838985145 427.7348755123338, 205.42805630008854 449.2728578835396 M206.7070877100713 399.19479991842945 C206.34388500629092 415.6425951881414, 207.1171809928565 430.0372000176186, 205.15353284353887 449.1880940496185 M206.46735463364527 450.92499662916487 C191.09696313084874 451.0051287936974, 178.4835773858248 449.08664014738196, 146.98317732533008 450.33587005820027 M205.42449618581884 450.82760001652065 C185.2214073600253 451.01252938266344, 164.77618820510062 450.72956604731354, 148.04006545330765 450.7064497278818 M147.96085939641821 448.10755900011833 C148.36454436345127 432.7153778784241, 146.3795041283267 415.43141874840313, 146.8089349122408 399.71335659401825 M147.99483349365354 449.1153905683785 C147.7277884187013 435.9106942442919, 149.3753925989569 420.4907918159245, 148.0603143426463 400.0582122233943" stroke="rgb(0, 0, 0)" stroke-width="1" fill="none"/></g><text x="50" y="430" class="variable">t</text><text x="177" y="430" class="id">id11</text><g><path d="M26.542637628726233 23.947685456020007 L130.5660012851386 23.33529963700941 L132.886815804155 73.8052768078472 L25.029561181872893 75.81527043553655" stroke="none" stroke-width="0" fill="none"/><path d="M23.24248772491483 25.914765670372056 C61.473761248621024 25.221518858636813, 100.15420174993115 27.546278528556044, 130.40115795395857 26.360191538311895 M25.126231134968574 24.926054539621845 C65.4304730063945 23.861752797998456, 108.27679497574613 23.91872063547228, 131.89256196990385 24.63147491055744 M129.75962889689777 23.126253914624087 C131.21607561679497 44.48354696240108, 132.0299612557128 61.73839409546469, 131.15238226847254 74.9417440613043 M131.03230613323703 25.601343638247247 C130.91134982698793 34.29591948671387, 131.29175541007177 44.54323572533927, 130.73834776164512 74.47263990253765 M131.70616665843767 73.83281690130889 C109.00676683691128 72.78874405361935, 83.98119424210972 76.01639288882055, 25.765470216599013 75.94690652750005 M130.9387417524705 75.82303141445159 C96.02867415972534 75.75888695941548, 61.30873357635356 75.6046709516243, 25.705498888677166 75.24400226475593 M24.685731774532194 73.90899417257585 C26.447962339742304 57.071060995698055, 23.571889078425716 39.04812543528466, 26.76596177849028 26.091700800181997 M24.13247458150038 74.83945088855478 C25.099900621799385 65.74936019329043, 24.55210982904931 54.6403532009272, 25.69654298607076 25.351938521633627" stroke="rgb(0, 0, 0)" stroke-width="1" fill="none"/></g><text x="78" y="55" class="type">__main__</text><g id="object-1"><path d="M248.04495671033393 24.80381671955947 L484.2185375491922 25.25206747818601 L484.0064764109751 155.2858851707543 L248.32546095300452 155.32841137434747" stroke="none" stroke-width="0" fill="var(--highlight-box-fill)"/><path d="M247.8971704996564 24.946245698224633 C325.5106408858372 25.21209949172862, 402.4643422686155 25.462937822122377, 484.1231389809218 24.832944499516145 M248.06947794363603 24.91573901633209 C315.98740921935337 25.028416231293548, 383.87209995779006 25.02724975899897, 484.23797386522335 24.913593943893336 M483.92599063402207 25.097336976191084 C484.0297763486836 63.34638010637644, 484.1420543741306 100.86500284685725, 483.9888692410923 155.31797103334426 M484.10590331438266 24.819424762681308 C484.49903089506245 67.96339010046718, 484.26321210517733 110.66852114149007, 484.0036265825676 155.12825224378503 M484.26809355700163 154.9570691641065 C432.4261509587292 154.80164256417766, 380.57215161706625 154.69447044654774, 247.73719479053239 154.6713622923501 M484.1181099976149 155.07457351768363 C416.01077519564564 155.30814228055786, 347.6977246961679 155.5145793667943, 248.11638798915212 155.07172007242195 M247.94342258988897 155.22073679348267 C248.57034511098647 121.43080023137644, 248.585045480471 87.4911106947939, 247.9177195890593 25.085941144578538 M247.84218580085977 154.94339646046515 C247.9751348344388 105.60471546290476, 247.7131335949904 56.126123385877996, 247.88099651420382 25.19350561696756" stroke="var(--highlight-box-line-color)" stroke-width="4" fill="none"/></g><g><path d="M243.83864195748632 17.23249495982537 L490.11640878081266 18.62524467010722 L490.1415847936222 159.01953939539655 L242.35943456368142 161.72068749437446" stroke="none" stroke-width="0" fill="none"/><path d="M241.1704042274687 18.46536508126239 C304.9069122811616 16.45556140273552, 367.4368361952721 17.779538074220547, 489.302815664507 19.321884652022586 M241.4470292927328 18.811228779331625 C294.6449989448589 20.910239631074102, 345.97378132541047 19.62459361905636, 489.4177126998103 19.36910896676418 M488.35503971087286 19.0595826699161 C489.6889109869471 63.60660900425521, 490.59292578352165 108.9267046534076, 490.29907600433546 160.4463463402013 M490.4787506175655 18.682372226797217 C489.5409662377883 49.87564001568168, 489.51633639423227 82.01760006917304, 490.1138013764618 161.19177450244726 M488.62089638428296 161.1531575185798 C416.9502598579656 159.42899776729217, 347.373800956338 160.63571961697653, 241.921379601579 162.60344928593366 M490.0409211996737 161.23991249517994 C426.6594720091105 163.58852075097568, 362.17707349008896 162.46823618971243, 241.7141071298418 161.34657300062224 M242.96042469897048 160.96742614121914 C241.2847222663714 123.85923875961099, 243.28404430251157 85.80343498551277, 240.71773050059676 17.54186174621288 M242.25360553266574 160.82466971814858 C241.0986237373437 129.40420112623084, 242.42203146093252 98.31123241199704, 242.77693001782214 19.48683762175222" stroke="rgb(0, 0, 0)" stroke-width="1" fill="none"/></g><text x="366.1" y="115" style="font-weight:bolder; font-size:22px; fill:var(--highlight-value-text-color); " class="value">"David is cool!"</text><g><path d="M248.19384717420147 25.069788634015225 L311.01526431317984 25.142684363992867 L310.86868533964775 75.16459594256257 L248.11579699679137 74.95312484553187" stroke="none" stroke-width="0" fill="none"/><path d="M248.019426638757 24.71402687011781 C263.17232487223333 25.041236988900177, 278.3298585777235 25.01054323070415, 310.56264297890266 24.735387661629243 M248.04015366926095 24.95711169960729 C261.6318959345827 24.865618848788838, 274.9735966102546 24.824590650921582, 310.66891567073776 24.83581239946977 M310.8725260382659 24.978709301417986 C310.9161788426597 36.93619739592724, 310.60371065164406 49.56700191482106, 310.9806225156007 75.19243159516853 M310.74322589753086 24.890022812046187 C310.69821658970807 35.74932312282304, 310.87097219166174 46.35591801005061, 310.81366201665963 75.06393181959042 M310.6856722933419 75.39796370385838 C297.8956855849556 75.15058170717917, 285.2883043850181 74.9037971984087, 248.19285036157717 74.74665526163162 M310.7687480559837 75.03815516084947 C291.3965763284969 74.78465413250805, 271.7864469346979 74.920389799205, 248.1569328377844 74.81597148816749 M248.14674539148442 74.61435897991964 C248.33471357576724 56.83681793336899, 247.92610606988018 38.0010386564441, 248.05865524725473 25.12976456931348 M248.17965569667516 74.84287862185178 C248.0492208576409 58.66767265304426, 247.8730811568816 42.33047565489289, 248.09006136718307 25.18382994253398" stroke="var(--highlight-box-line-color)" stroke-width="4" fill="none"/></g><g><path d="M424.1820713231031 24.708647100468802 L483.97243933068967 24.983012908502158 L484.2112708859687 75.16475470576542 L424.0418829419722 75.03896793933748" stroke="none" stroke-width="0" fill="none"/><path d="M423.8658976342066 25.21345116783702 C447.2854387377957 25.268765911640376, 471.28830736061366 24.85212298876568, 484.53626339671894 24.89461269266 M424.0361442311417 25.095368407682972 C439.9870667959569 24.875109684939233, 455.7229771756057 24.882935393668905, 484.1306450045407 25.014090191751485 M484.0892432264484 25.34716998229415 C484.0946422675771 37.876115289723316, 484.5778495683192 50.34350345325892, 484.2871233101811 75.3807769137771 M484.11516386989183 25.045893194697925 C484.3144175255209 36.4500722291913, 484.4562073420468 48.06227816291894, 484.215562115494 75.02158381097941 M484.2612513429737 75.01649301632028 C460.74511595157446 75.39303003332418, 437.809145206352 74.78490627983831, 423.9115513484125 75.35387505998277 M484.044732962541 74.85831844206757 C471.6703908445402 75.06013042280132, 458.67106231934224 74.96527852054379, 424.20423278184506 74.85754770624862 M423.9584077116831 74.72015113352693 C424.05068375523985 55.433888600815, 424.3102263834668 35.54481695906274, 424.20042017553004 24.82184163593363 M424.3558909986885 74.91159904989888 C424.0251729486621 58.26448062144302, 424.07368901147714 41.873001895451644, 424.19255627845826 24.87982057248352" stroke="var(--highlight-box-line-color)" stroke-width="4" fill="none"/></g><text x="279.4" y="55" style="font-weight:bolder; font-size:22px; fill:var(--highlight-id-text-color); " class="id">id19</text><text x="454.2" y="55" style="font-weight:bolder; font-size:22px; fill:var(--highlight-value-text-color); " class="type">str</text><g id="object-2"><path d="M246.14688914531644 191.79519275894236 L447.97273541570485 193.52703234017736 L448.82746895227064 323.79230482872345 L246.42072504139892 321.78055315031696" stroke="none" stroke-width="0" fill="none"/><path d="M247.15163211624525 190.40846023529386 C298.13152090994555 192.46679761334315, 346.55349834789547 194.79728608902096, 446.43822270989654 193.29784015948363 M247.88910575469302 192.56770090047064 C304.3808127127778 191.12579921896682, 362.29950335674573 190.7366708738274, 447.7335515859798 191.4346860961073 M448.79986338935106 190.49738738424185 C448.1548916025982 243.41742148776532, 449.67612251905524 295.0685260242045, 447.1653876374873 321.53246021208065 M448.3320104774062 191.4872324165797 C447.74845503140523 231.2725161441426, 446.3390923050597 268.92251256630584, 447.58287409017186 321.27410936653695 M447.12487478959304 323.1013310667963 C381.70747208267886 319.65104467151997, 316.55359179638066 320.61492543322754, 249.19945144045363 320.40239599849644 M447.48726470638826 322.04713854003455 C374.9659560480844 321.51435369719155, 301.3765564582684 322.6122710108315, 248.62468963376458 322.4245540682625 M246.5555131317682 320.34168710133616 C245.65002475777712 271.5826042307967, 246.6585888181012 225.5614723538622, 247.46281854802473 193.4684378071215 M248.4372767910608 322.0821419646835 C248.68367243172602 281.1885305378107, 249.15774999157765 241.9298982607781, 248.45486697672106 191.86106672233794" stroke="rgb(0, 0, 0)" stroke-width="1" fill="none"/></g><g><path d="M240.74084292376827 184.978060031063 L454.56968722775287 186.3120784928623 L453.6532065239944 327.592397033925 L243.87049006590615 329.5201442001093" stroke="none" stroke-width="0" fill="none"/><path d="M243.1307759037922 186.73170509355853 C297.8212969401499 185.19386351580874, 352.99964541414147 184.63746655487188, 453.75030011990407 184.69597596252 M242.0520195376022 185.3182779667695 C316.5856221437736 185.05197817404647, 393.349597836919 184.28022147191317, 453.4956319252105 186.22714786926267 M455.7972074693022 186.87552705828872 C454.02346747015 226.43056766965955, 455.13299878538595 268.43554424543856, 452.0439570210229 326.76050436181765 M454.2180950941823 186.26140978512964 C454.0914524925535 218.48682546130192, 453.8326044723977 251.61985237265236, 453.8832607283212 328.0560643106685 M454.58051517090064 327.0818342313399 C406.768645966313 329.02046758375116, 358.45961501191397 328.9718589364789, 243.33810694910525 328.06877226097845 M453.5061513188304 328.854256253554 C398.67807614082705 328.6761178828931, 342.7178064689329 329.5610579129527, 242.4942294763273 327.15106844771987 M242.82015671605666 329.2939909743662 C244.34466645275504 295.3208582921319, 242.29944152312288 260.77664080809876, 243.76933172585316 187.0371604762332 M242.86059252782306 328.9934337225146 C242.09796816142003 295.6909962703572, 241.4832402099301 264.94364808580514, 242.0812709172999 186.2280043271807" stroke="rgb(0, 0, 0)" stroke-width="1" fill="none"/></g><text x="348" y="282" class="value">7</text><g><path d="M247.53636148739054 192.25775135816633 L306.4287862355996 190.64654857373208 L309.03704211173164 240.57528820620863 L247.628798750587 241.3980455800632" stroke="none" stroke-width="0" fill="none"/><path d="M247.65345312375877 190.8409955825032 C265.66419537058465 192.37820809829813, 284.21352665619196 190.75989044779578, 307.87450523863833 192.77520060862807 M247.52385023648534 191.27492122648337 C261.86839475835853 191.81792653044656, 273.11965766257185 191.28615625599983, 308.2500580647955 192.80043299482125 M308.9817457132289 192.80040882576782 C310.0330438555499 206.01956657706646, 309.3630293284421 218.23130986392397, 307.16371475904197 243.15032612362904 M308.03004039326896 192.49442515683242 C307.8057615228018 207.1614846959991, 307.94019966090343 223.88929409917148, 308.8811508908859 242.03383033974197 M309.08777978026035 240.51802679738375 C294.793781491151 241.72955178828684, 277.2566375679668 239.6958110294321, 247.39395859605474 242.1500205395171 M308.1905648383259 241.56113440065386 C287.4387514451375 243.09872533793444, 265.9041953069108 241.6429016443785, 248.62168587328782 242.20070616161425 M247.9345966674265 240.81102132962167 C250.03466825678512 224.442152894548, 246.431779795612 208.47114904027643, 248.24178252660954 190.21084720222484 M248.50999372781737 242.0060988801128 C247.42009031674394 226.07895796058193, 246.99303014013168 208.97667418114864, 248.5478925200074 191.4108645686125" stroke="rgb(0, 0, 0)" stroke-width="1" fill="none"/></g><g><path d="M387.5932578907694 190.58051650714708 L446.8588611896227 190.44206812903883 L446.30550919694497 243.44046822928817 L388.9095337195939 243.97146873206535" stroke="none" stroke-width="0" fill="none"/><path d="M387.08088538602897 190.79197613423517 C409.11119540390905 191.5689989275002, 428.4354821221348 192.61128146780916, 449.98422880951455 192.58839693737406 M388.2052559973661 192.24945650184864 C402.12190021093375 192.48444750010879, 416.782712562511 192.11774629518908, 448.06799647752297 191.56139295078077 M448.95721340595395 191.45078416368477 C450.0681333995556 210.4872579698776, 446.24445853601327 230.43257682733955, 447.5497527157033 243.69373980453014 M447.1846830993708 191.2828939234297 C447.01289056630304 206.6042134957425, 447.644896147631 220.4873675330616, 448.56636309687656 242.23765991067796 M448.13183661018604 243.75799996985137 C434.15973674511457 243.73632006283867, 418.2689619389343 242.76934184040348, 389.8993065753121 241.6561380227452 M447.1521631604372 241.14632774734991 C433.137363122028 242.1634888496262, 419.5004994333973 240.78401199611383, 388.3051778961322 241.4036256554173 M386.47032085056446 242.0263446417777 C386.6250821691447 223.05230703908336, 388.487522852521 203.6756265536506, 386.7919825309879 192.5989701830566 M387.44559047419534 241.991828668956 C388.57585096720913 229.82070173293351, 389.0693743815877 217.1657975578158, 388.0578163357936 191.20555082848657" stroke="rgb(0, 0, 0)" stroke-width="1" fill="none"/></g><text x="278" y="222" class="id">id13</text><text x="418" y="222" class="type">int</text></svg>