<svg width="521.2" height="500" xmlns="http://www.w3.org/2000/svg"><title>Python memory model diagram showing stack frames and objects</title><style>
        :root {
        --fade-text-color: rgb(0, 0, 0);
        --hide-text-color: white;

        --highlight-value-text-color: rgb(27, 14, 139);
        --highlight-id-text-color: rgb(150, 100, 28);

        --highlight-box-fill: yellow;
        --highlight-box-line-color: rgb(0, 0, 0);

        --fade-box-fill: rgb(247, 247, 247);
        --fade-box-line-color: gray;

        --hide-box-fill: white;

        --primitive-value-color: rgb(27, 14, 139);
        --id-text-color: rgb(150, 100, 28);
        --default-font-size: 20px;

        --highlight-object-fill: rgba(255, 255, 0, 0.6);
    }

        text {
            font-family: Consolas, Courier;
            font-size: 20px;
        }
        text.default {
            fill: rgb(0, 0, 0);
            text-anchor: middle;
        }
        text.attribute {
            fill: rgb(27, 14, 139);
            text-anchor: start;
        }
        text.variable {
            fill: rgb(0, 0, 0);
            text-anchor: start;
        }
        text.id {
            cursor: auto;
            fill: rgb(150, 100, 28);
            text-anchor: middle;
        }
        text.type {
            fill: rgb(27, 14, 139);
            text-anchor: middle;
        }
        text.value {
            fill: rgb(27, 14, 139);
            text-anchor: middle;
        }
        path {
            stroke: rgb(0, 0, 0);
        }
        .highlighted path {
            fill: var(--highlight-object-fill) !important;
        }
    </style><g role="graphics-object"><title>Stack frame for __main__</title><g id="object-0"><path d="M23.44828975020109 25.739144854758734 L221.0841687742922 26.660429597665278 L222.5629365651416 475.5614295856607 L23.34514513984258 474.12383506089185" stroke="none" stroke-width="0" fill="none"/><path d="M24.12831816874132 23.102317538744032 C97.4067897825891 26.526838535488345, 173.7011052696068 24.600473868553852, 222.20345109072488 24.840718359727568 M24.125162437990028 25.91854802398702 C91.0182166493517 25.827779117340512, 159.43416722370225 26.199368273463307, 222.15317751008737 24.586082214133235 M222.3355329583359 24.857358843187143 C224.54757809195175 202.98289291348124, 224.5080743099897 381.72611794875843, 222.03932598624095 474.21594860696376 M222.90626311762793 25.29076186983647 C223.73835420951866 160.9595870415819, 224.1684999082591 296.32596965417946, 222.92893159135488 475.23606835743976 M224.84033220634325 474.25047703561796 C180.28058644852118 475.38864249382505, 136.9562487881946 474.2921339901933, 25.37094191868065 474.0485819887789 M223.45294618921298 474.0951341815876 C173.43264145856668 472.5879752016304, 123.4729839769213 472.40391076917115, 25.56257736166167 475.95618151354574 M24.19235671427403 474.4794966367009 C24.71802970950321 371.85106097715203, 25.235420420734894 269.839908180494, 24.96035556057482 25.817601038408174 M24.815694271962528 475.2887162434004 C26.66526572363961 305.99885650609644, 26.908732652947943 137.6499548047897, 24.562264529319467 25.180180257060346" stroke="rgb(0, 0, 0)" stroke-width="1" fill="none"/></g><g><path d="M146.31154147921583 100.92684416875555 L205.4740624259465 100.98542707057771 L206.45959638836402 149.43190406611745 L147.78868708893367 151.0005292479561" stroke="none" stroke-width="0" fill="none"/><path d="M149.76895348514807 101.14293667852448 C161.8154378096116 98.93196524670113, 173.43658885951868 101.04158283665504, 205.8170882235172 101.51080906989975 M148.7754919137853 100.91569900018497 C165.60619568043722 99.83308006122101, 184.76425730449105 100.1838887994481, 206.26015985284621 100.00202082813462 M204.22977216146842 101.0242907876059 C207.83063397153742 111.47425765750326, 204.18013626952984 121.59851766177505, 206.4940541958248 150.9313085150614 M205.01364307553857 100.63508328811349 C206.23117121719912 110.19905637763753, 206.26949504411817 121.28861256946384, 206.99963933262794 150.64838386792803 M207.8243822456929 151.01546044384918 C186.0024415372382 150.57812964406946, 168.8160957358062 150.5417177441654, 149.82375415114285 150.43967241451196 M206.22702152306724 149.28055073276738 C183.99798035192472 149.86109074305224, 161.1176001131232 150.73386551290406, 148.24999249747077 149.39245949362655 M147.20496253982242 149.55886590472494 C146.50503916946207 138.35530054918127, 147.35354700230084 128.38730107304505, 148.71850252329656 98.27954261209098 M147.61421214587108 150.66264829042694 C147.52441401355188 135.12814677827467, 148.09069438735602 119.23005296886409, 147.9329434159626 100.39477761420967" stroke="rgb(0, 0, 0)" stroke-width="1" fill="none"/></g><text x="50" y="130" class="variable">lst1</text><text x="177" y="130" class="id">id82</text><g><path d="M146.72287648886996 176.24055682062527 L204.05821651708865 175.82196353428262 L207.1062023377636 223.88691773001085 L147.8894651064458 225.69206710978546" stroke="none" stroke-width="0" fill="none"/><path d="M146.05151011669162 173.56184504694968 C161.8212621315285 175.18596374536264, 179.5258458751165 174.86114000381306, 207.66320085996662 173.14911104907756 M148.1912814049704 175.4996581513567 C164.3811865720692 174.86371044058774, 183.3729990000096 174.8236495111307, 205.6011647026857 175.61762420031246 M206.2459947459664 176.0635605984154 C204.98875474151544 190.41853708923216, 206.77397311028778 206.4363008104985, 207.3193126336532 223.57191354738052 M206.47167219024826 174.99182575107784 C206.6230177931778 193.6797042967711, 204.93898081711941 211.8110665186341, 205.53675048307005 225.05430534706585 M205.47395962423565 226.46991442939745 C184.4537822779049 224.77059465580606, 163.87374248407636 223.87395141723601, 148.39208778846933 226.12077923069424 M206.56078601674812 225.66487397521007 C184.87339451543687 224.8462425893409, 163.90806951588067 224.20097160493825, 148.05415029683743 225.27692934715606 M147.0321494755546 223.34383751433808 C147.70699308515617 206.53080835789302, 149.32470916962257 189.8457868853211, 148.4857960889009 176.20543770282316 M147.0130786911605 224.9566051934096 C147.64958903468508 206.19616117962445, 148.77755009400008 187.44035326532625, 147.3056577856545 175.6761442700001" stroke="rgb(0, 0, 0)" stroke-width="1" fill="none"/></g><text x="50" y="205" class="variable">lst2</text><text x="177" y="205" class="id">id84</text><g><path d="M148.92204440280227 251.43418765955846 L206.96702521510406 249.37109288868515 L207.1674523966776 299.47652328660035 L148.8022919438107 301.9341774413951" stroke="none" stroke-width="0" fill="none"/><path d="M146.35824825154725 249.13654516264577 C159.4627782312968 251.61467151047717, 169.80572925727876 251.72899711993577, 207.84735443423295 248.23047638620577 M147.1666271701825 249.1296989931417 C166.64473871457625 249.68260153220325, 186.02559638078702 251.23435180677347, 205.60270428356762 249.46764412569252 M206.68386621564758 248.3738677599285 C207.18584380047307 268.6220730710156, 207.87221156123184 282.0520516078738, 206.48244680656927 299.86400335596505 M205.05635764288155 250.99273276694586 C205.41905146464822 260.4277548981108, 206.12311975509593 271.13712715446763, 205.3975866859585 300.72003839459643 M207.30665812483642 301.1670248542332 C189.39480335385537 300.4504666764658, 169.66105503533666 298.4703519341169, 149.0656293623894 298.6970186201265 M206.53153372654972 299.45263989599147 C186.76328098564662 299.26945706555625, 164.97982018907913 299.7941740903538, 147.51902514046782 299.8915907095967 M148.49609143618648 300.72011418391264 C147.97222341352756 290.71474758480264, 146.52447201091366 276.0961657302369, 146.7903986769031 251.72034876134435 M148.57553091462896 299.9457970459219 C147.02042289691522 280.5813255666945, 147.88029603844083 261.3607297501116, 147.22174366270784 250.78172283721688" stroke="rgb(0, 0, 0)" stroke-width="1" fill="none"/></g><text x="50" y="280" class="variable">p</text><text x="177" y="280" class="id">id99</text><g><path d="M147.27534079139238 326.3481814378122 L205.09796321685235 325.0223589267371 L206.0485721904624 376.32009546093406 L146.1312805991725 375.37194695293886" stroke="none" stroke-width="0" fill="none"/><path d="M146.27208796670735 325.7761869633173 C162.56040276326942 325.2459734604144, 173.46253208608826 324.18469323199537, 204.5455399933287 324.7886881988479 M148.6307782969336 325.00383855334644 C161.00587765390682 324.30241995240607, 175.39894227218352 325.2650576742303, 205.1619030843621 324.5449416324811 M207.77312617283818 325.7100904427808 C204.09654514659746 338.0165827505086, 207.31539195229558 351.39305053718135, 207.62321755796924 376.70736167703234 M205.89386073429938 325.3606362553363 C205.9275880849351 336.9597335774856, 206.03567802097913 347.88868178479373, 205.04016866357944 374.60509429837265 M205.2134555495285 375.531467364775 C183.5662214279338 375.26136472101183, 160.1397483912963 375.49507052938026, 147.08116431186636 374.97662904678026 M205.60005661148722 375.7726336765605 C186.3851288445074 374.870203031392, 167.6773877808097 373.970418047656, 147.55453375304165 375.185973783476 M147.40502451932352 374.88227388659857 C146.50014380324978 360.2029477474213, 148.14667701452814 349.86635748752224, 149.64983966289782 323.3207002827792 M148.20264976053832 375.61782021827895 C147.2800007546066 355.77790382988275, 148.39382129671765 336.9051327817695, 148.60591288045327 325.7644247934348" stroke="rgb(0, 0, 0)" stroke-width="1" fill="none"/></g><text x="50" y="355" class="variable">d</text><text x="177" y="355" class="id">id10</text><g><path d="M149.9798022598908 400.5507155713993 L204.89178819320546 400.6897646003105 L204.27620435618914 450.0775252459443 L146.52761779096406 449.06709999120625" stroke="none" stroke-width="0" fill="none"/><path d="M147.5391633472495 401.7163686900735 C163.3056790949711 398.2100714807721, 176.67891900065118 400.69410335129993, 204.77744833779593 398.1844146642568 M147.12662488834488 399.10912279995785 C170.65597206618014 400.9093850188736, 192.97865832347318 400.516696678355, 206.37053137683844 399.15438155815804 M204.50446103814136 398.3686438540212 C206.08030309946858 410.5977749112696, 206.1498038077705 421.50621303650286, 207.83704337228738 449.06688552486924 M205.63772611107316 400.56282022936114 C206.79984344262644 418.3331449730141, 206.07619994979788 438.08864119119414, 205.08485863320124 450.3334196019015 M207.47867425775428 450.98342243430125 C191.20789951711566 449.948413679282, 173.50532557153787 449.7805142741067, 149.74766689478207 449.22094066785877 M205.96021656779095 450.5153707407174 C194.07894284223602 450.30254350253574, 180.78355158572953 449.7755261429735, 148.8238989964553 450.0256769405964 M147.64150944397605 450.7786010008674 C146.07835334680092 431.93704505519, 146.06745531229134 410.3459551710171, 146.17665507722108 399.3296150192837 M148.51035451375543 450.52287497374687 C148.03155238578137 435.9122424171799, 148.60067078482524 421.75855830726005, 148.28881794663528 399.2390843698784" stroke="rgb(0, 0, 0)" stroke-width="1" fill="none"/></g><text x="50" y="430" class="variable">t</text><text x="177" y="430" class="id">id11</text><g><path d="M23.751060238209213 25.939390905699003 L131.2733336043434 24.313052403578162 L131.77330610909107 74.40258252009016 L23.681334382190425 76.4045379976367" stroke="none" stroke-width="0" fill="none"/><path d="M23.884559182978624 23.7857780519278 C64.50010798808171 24.37386508009038, 104.27542414761528 24.367147790042782, 132.45988583764114 26.742384989457292 M25.614162577456923 25.876697997946373 C62.98034171831545 25.264164268953238, 102.15151281654668 23.789089714915853, 131.03276051987302 24.05390518647315 M130.82863979984558 23.980154135699053 C130.41048340296135 38.12322779573128, 132.5921812921108 50.430094815357734, 131.2499728799666 73.35551063512968 M130.31669216313244 24.640969449665043 C131.56528707418923 36.5934772833606, 131.45839220070948 49.55162796359493, 131.05632565168787 75.98464383722141 M132.47887626826207 75.87372863746012 C106.39536292498865 73.55930189482049, 84.91738020092468 74.11174717591912, 25.34588284898862 74.45733069474886 M131.48580384662503 75.17796075834931 C97.7004234907309 76.16281938949075, 65.33021324705614 75.57668105593585, 24.10774033755918 74.44544198578534 M25.006937785298945 76.86545148246955 C26.545431443419083 61.366594937772454, 23.62967611298842 49.353811219662276, 25.922700774210462 24.19392424507123 M24.31807757797354 74.81525251697606 C25.085217511102144 59.679454393214876, 24.835403654192227 45.633009288757435, 24.526101075721392 24.06481498177262" stroke="rgb(0, 0, 0)" stroke-width="1" fill="none"/></g><text x="78" y="55" class="type">__main__</text></g><g role="graphics-object"><title>Str id19 with value "David is cool!"</title><g id="object-1"><path d="M247.6760916988963 24.900160484465495 L484.32676866679185 25.049408748493004 L483.96563244550487 155.14265423693203 L248.0807665830457 154.74536009840324" stroke="none" stroke-width="0" fill="var(--highlight-box-fill)"/><path d="M248.25207764602894 24.98491543925952 C306.80005161088576 24.71314505083367, 364.8225484772461 25.037531445329297, 483.94940112795854 24.91171289386593 M248.1505759638849 24.863791757388913 C299.5427147759597 24.813906486879038, 350.75757239575256 24.832618349220507, 484.36193761433935 24.894696047956096 M484.1271978347086 24.910059532126763 C483.92392215816676 54.83371802333939, 483.74005736817264 84.51266517742593, 484.1954329744297 155.14719801891115 M484.16917763361295 24.96537416865301 C484.43186991442514 70.9208015217413, 484.3779260306664 116.60633845242437, 484.1136431410536 154.94852301271862 M484.2611290524325 154.8594701507218 C403.97052124549447 155.19043878311638, 324.0588609460831 155.2670540394577, 247.84111975075396 155.04562421149475 M484.12072117597006 155.1515580467888 C422.46415107147493 154.4643092991301, 360.8932875966895 154.72081605206427, 247.87440351593543 155.1006632448338 M247.6788633082066 155.03083393070355 C248.4083223971115 111.95292150621165, 248.24008803094344 69.22530131477139, 248.07570931872502 25.077130161616783 M247.93265145877322 155.08412548088012 C248.08447204285343 109.04228768692249, 247.98722595610357 63.25289868265088, 248.1622109705992 25.083404169392484" stroke="var(--highlight-box-line-color)" stroke-width="4" fill="none"/></g><g><path d="M241.43981373096898 18.8137460569321 L488.4353573574332 18.733845274801688 L489.5751450663338 161.40967925787135 L241.24650266391555 162.46124650628119" stroke="none" stroke-width="0" fill="none"/><path d="M241.2339204642192 17.500249954441877 C317.37740852538593 17.15764378299835, 390.64013853779664 16.958667996924415, 490.5159053006204 18.166577793759807 M241.63711854137094 18.958617374361285 C313.133386379312 20.425282176657564, 385.0680997920088 20.73339893058378, 490.0917784225967 18.888853698040926 M490.8820602520525 18.083703681718923 C489.5156363392979 63.44645482412419, 489.35812503535954 110.11803646084472, 491.2500253892262 159.62087508194458 M490.9443877747585 19.724740051112004 C489.42335483222416 49.06109614485499, 489.9238795127202 80.60818893515885, 489.59366868030946 160.95706533274426 M491.509441686419 162.50529514848387 C410.17636297139103 164.00353564129085, 331.5643647112434 163.68811190155114, 241.9329804003853 161.34560465640922 M489.7770505942755 160.3423344241694 C438.1346361985469 158.75690339097838, 385.38051873029275 158.597867108178, 242.6949614387066 161.06118995480193 M241.80541084491978 161.64481498017997 C243.48406729763767 106.02671831318818, 244.0887096876989 53.75441756597591, 242.44711537344705 19.35617141825356 M241.58972851300481 161.92748117582457 C242.54183772325786 132.13298987218434, 242.37863693517775 104.45725962828817, 241.76142072700839 18.027621628940718" stroke="rgb(0, 0, 0)" stroke-width="1" fill="none"/></g><text x="366.1" y="115" style="font-weight:bolder; font-size:22px; fill:var(--highlight-value-text-color); " class="value">"David is cool!"</text><g><path d="M248.11912193213698 24.987183059043105 L310.7089570757552 24.74925682208391 L310.79425613403953 75.3508515960297 L247.94809035102298 75.36033090815225" stroke="none" stroke-width="0" fill="none"/><path d="M247.98637303753546 25.338674563803213 C272.7609335758509 24.92651777141518, 296.9953058226146 25.21016538158646, 310.86904507113815 24.848053558977195 M248.1638042908785 24.96042454370439 C266.8972215955971 24.985323602602392, 285.537507739075 25.147451395830622, 310.6402740470288 24.869640142888024 M310.85845092598254 24.714584569294367 C310.5997368974263 36.00888727763398, 310.37153813117556 47.77783112935828, 311.18144543983664 74.76026145482928 M310.82476138604903 25.0277118749331 C310.7919070910369 42.8345950255345, 310.79799233946875 60.88038156895937, 310.81446881017484 74.87917768205097 M311.07409675725233 74.64889410511948 C288.96774304913964 74.56730524357171, 266.7522011815507 75.22074739522989, 248.013231353651 74.86800816052657 M310.92072746537957 75.15494254084507 C286.38944134269445 75.17131455901963, 261.6557483328036 75.01746829542218, 247.9481093629696 74.8045988181151 M247.862079023593 74.90937858411623 C248.37299536200914 61.98577731340868, 247.88206709618746 49.07820188170774, 248.06956529295786 25.235867732904232 M247.89685467297687 74.94420052232633 C247.9317465567195 64.00430658731692, 248.13843887749175 52.73887310695502, 247.8566699319881 24.99980960458547" stroke="var(--highlight-box-line-color)" stroke-width="4" fill="none"/></g><g><path d="M424.09047595484816 24.63758494644663 L484.3467952721001 24.873187824182015 L483.85359782304766 75.35532691179752 L424.05382525387097 74.99369305277683" stroke="none" stroke-width="0" fill="none"/><path d="M424.0109674323601 25.35181763560472 C444.7975621086338 24.682785716349382, 465.742313951538 24.671443695941008, 484.08064681781946 24.953001601419828 M424.1914610949232 25.07035686032979 C438.7362333274241 24.84638127920531, 453.0221806355384 24.969999134601537, 484.3647153731496 25.127704442356617 M484.45615770846547 24.75122783842369 C484.5734310506441 37.02765138303665, 484.58997065967554 49.21026347362941, 484.4044335052032 75.35630156300762 M484.14915124222625 25.128615322396165 C484.3421072130604 35.62513623369879, 484.15895006203766 46.51039666595949, 484.0929163511883 74.8969343346621 M484.38656574421174 74.83308550381041 C471.90366655419473 75.1623776760249, 459.04568819963936 75.06597668928843, 424.2371675026278 74.99068053636697 M484.1981296608615 75.07298807364306 C461.80985232976377 74.86161826641316, 439.70256109751926 74.83159276888705, 424.25975409159093 74.86388885314697 M424.2838790144256 74.88197762712561 C424.4997377184626 61.89721576993731, 424.0974150755369 49.91457554607994, 424.2102804236782 24.824720500929526 M424.1207792807769 75.14862327883812 C424.0050329683332 55.732023933772666, 424.2912107054673 36.943483043698116, 424.2305709203138 25.166533024067665" stroke="var(--highlight-box-line-color)" stroke-width="4" fill="none"/></g><text x="279.4" y="55" style="font-weight:bolder; font-size:22px; fill:var(--highlight-id-text-color); " class="id">id19</text><text x="454.2" y="55" style="font-weight:bolder; font-size:22px; fill:var(--highlight-value-text-color); " class="type">str</text></g><g role="graphics-object"><title>Int id13 with value 7</title><g id="object-2"><path d="M249.6053323703124 190.24102750538967 L447.5590031335013 190.65016568677802 L449.4547856287242 320.8775381086055 L247.3138941249637 323.28636872474937" stroke="none" stroke-width="0" fill="none"/><path d="M248.05949944122278 193.66559085459497 C328.22055203402573 191.71149161836934, 405.8051400599844 191.6680059549029, 448.2942354036722 191.702079842705 M248.11131432446086 192.88114309599928 C313.5715904748873 191.84577872500637, 380.69615961826867 191.9965462114654, 447.49694964972446 192.61686228082624 M449.4165582187181 191.63309050554156 C447.77747036141545 216.75708699976187, 448.5227626206038 244.59175819704677, 446.2096805349133 320.3260264103259 M447.497457398207 192.21762626170934 C448.70870189536333 226.08293374381722, 448.88373101048387 260.27894772422115, 447.01844730435477 321.4073472175638 M447.3887240857746 322.77039089798916 C369.9050553918332 321.5616689219915, 294.8508810284181 322.26983669829525, 247.23503626474795 320.3833307207023 M448.6570538307277 322.37563670333384 C389.240503810869 320.4525662440883, 331.66264135845057 320.512794151587, 248.66222576116894 321.7725719814647 M247.33944999104298 321.23398121308867 C246.74146735676672 281.22787493417405, 249.82638232094018 242.8011105874187, 247.69419877080176 193.2834784481826 M247.48840196592184 322.75580106599483 C246.9108853379179 286.88521704911767, 247.39713815612137 254.33737157060997, 248.26928948634458 192.4488425072742" stroke="rgb(0, 0, 0)" stroke-width="1" fill="none"/></g><g><path d="M242.98089060668357 186.0601493720901 L454.7093155691029 184.35880862230803 L454.3490677732382 327.86766002913936 L240.7282275246374 327.24696640451003" stroke="none" stroke-width="0" fill="none"/><path d="M242.43301134656082 185.2034343894821 C302.91313547237525 186.17294387636693, 361.3063407267235 183.49692663895763, 452.92321652215486 186.5363857679064 M242.02663928947828 186.52685317454004 C295.5550065253072 186.62923045455787, 347.7824239497233 186.6556440315259, 453.8807941061977 185.7243774874808 M452.30432985779987 184.29678649290986 C455.8712625450224 236.44879544217258, 455.6067048698632 286.08535104708426, 453.11802792606153 328.52300929792216 M453.0267027862066 185.3613467904371 C454.75579311577576 236.91667914140172, 454.9737051408811 289.5602339468458, 453.2271594842134 327.3974005190861 M453.0667198164982 326.44917256505596 C390.3449199573983 328.63706052296317, 324.5143804897497 329.5830342752082, 240.3882431270833 329.15113461425807 M453.72704633412627 327.21356643305205 C389.7619049437324 327.56184279755246, 324.3333802828775 328.28591797411735, 241.8811966573287 328.021416346442 M240.60367139638802 329.6072057440078 C241.76982952890498 292.8309277197114, 241.33713928455327 257.47880514496813, 242.7435468323773 187.64195488901737 M241.32297941141434 327.8140592971923 C242.13571217223264 278.8993360100321, 241.59926970387227 227.6907753205258, 241.63317871519803 185.72949080476766" stroke="rgb(0, 0, 0)" stroke-width="1" fill="none"/></g><text x="348" y="282" class="value">7</text><g><path d="M249.85638064298064 190.5096438366004 L308.09193960521077 191.7316917398133 L307.19153006273103 240.4616466744156 L246.78543729251518 240.38175927033936" stroke="none" stroke-width="0" fill="none"/><path d="M249.83202344146457 193.8105795187001 C264.34523366912106 193.47681669263034, 281.9985834768999 192.65238036478135, 306.65416807820907 192.74157434822894 M247.1472463248123 192.81676536858302 C262.6419174246679 191.80443906377963, 275.291881732692 191.1866730078516, 307.6295912829534 192.21552799667506 M307.36677838599525 190.59902520971684 C308.78528984139587 210.33180265162036, 307.3742281562127 228.27706272477764, 306.5440075626194 243.52019760944077 M307.2853107921988 191.00464990232112 C307.2132991731541 208.57737858137762, 308.1016308558025 224.663812183828, 308.16465808967223 242.18977456264523 M308.1679165924682 243.11455066669805 C291.1090844685683 241.567013552188, 277.5133568457577 240.94018441604408, 249.79212999691 240.9793780005829 M307.3820169652076 241.95083530077397 C294.2911312766186 240.5941363405482, 282.33564257605417 242.3590850014734, 247.9132287480623 241.09472478809246 M249.68315391675193 240.14924401280902 C248.64505420169175 231.4499410953406, 247.154813694136 215.69368505455915, 248.96414320497337 191.02691650198025 M248.0704741925299 242.26522314707876 C247.9161933774086 229.183640301224, 248.78435145059404 216.29829194281507, 248.68039494579764 191.5080992762471" stroke="rgb(0, 0, 0)" stroke-width="1" fill="none"/></g><g><path d="M388.54153775649013 191.1920331374096 L447.2460382606198 192.9492572531304 L448.84316505219357 241.88821527721518 L387.07283379422574 240.6676040120352" stroke="none" stroke-width="0" fill="none"/><path d="M386.37813502543185 190.29164043154609 C407.9486256514398 193.1760219025192, 430.09211438388036 193.34712974920885, 448.96770228713723 191.87158107989592 M387.54565194829223 192.2934476045653 C409.0194232237864 190.92001474147617, 431.8482002879959 190.90505163624334, 447.47602213557207 192.39138187435776 M446.13012644641077 193.14443717311602 C447.8251554138669 210.47442230878752, 447.4062940880706 225.52407167623298, 448.5555512457576 241.76445496531156 M447.4294987399253 192.73169676151855 C447.4235515867005 206.73651062009037, 447.6084207119431 223.1339016982509, 448.82427053110234 242.2438628116218 M449.6631898721276 243.72681264076385 C430.68711478419453 242.70204103110314, 409.5275806260569 241.37050480973048, 388.4748485180912 243.4695797302643 M447.92355814752847 242.99550046044868 C432.41630928007646 242.17881104251228, 414.39361473165894 242.17980868329255, 388.4516375015306 242.315319549222 M386.0483820305818 243.10506575406168 C388.5914075511687 227.065675451095, 386.9833890707657 212.93147737084777, 389.00939428355093 192.49719362341878 M388.217670210827 242.28456403409197 C388.71542705555686 228.12923430167234, 387.3642056990746 214.93705885111217, 387.22564824471146 191.5273204692044" stroke="rgb(0, 0, 0)" stroke-width="1" fill="none"/></g><text x="278" y="222" class="id">id13</text><text x="418" y="222" class="type">int</text></g></svg>