<svg width="521.2" height="500" xmlns="http://www.w3.org/2000/svg"><title>Python memory model diagram showing stack frames and objects</title><style>
        :root {
        --fade-text-color: rgb(0, 0, 0);
        --hide-text-color: white;

        --highlight-value-text-color: rgb(27, 14, 139);
        --highlight-id-text-color: rgb(150, 100, 28);

        --highlight-box-fill: yellow;
        --highlight-box-line-color: rgb(0, 0, 0);

        --fade-box-fill: rgb(247, 247, 247);
        --fade-box-line-color: gray;

        --hide-box-fill: white;

        --primitive-value-color: rgb(27, 14, 139);
        --id-text-color: rgb(150, 100, 28);
        --default-font-size: 20px;

        --highlight-object-fill: rgba(255, 255, 0, 0.6);
    }

        text {
            font-family: Consolas, Courier;
            font-size: 20px;
        }
        text.default {
            fill: rgb(0, 0, 0);
            text-anchor: middle;
        }
        text.attribute {
            fill: rgb(27, 14, 139);
            text-anchor: start;
        }
        text.variable {
            fill: rgb(0, 0, 0);
            text-anchor: start;
        }
        text.id {
            cursor: auto;
            fill: rgb(150, 100, 28);
            text-anchor: middle;
        }
        text.type {
            fill: rgb(27, 14, 139);
            text-anchor: middle;
        }
        text.value {
            fill: rgb(27, 14, 139);
            text-anchor: middle;
        }
        path {
            stroke: rgb(0, 0, 0);
        }
        .highlighted path {
            fill: var(--highlight-object-fill) !important;
        }
    </style><g role="graphics-object"><title>Stack frame for __main__</title><g id="object-0"><path d="M25.9745826344113 24.85039195861938 L221.8275647103285 26.133743543333473 L221.78069820545429 473.28359266253875 L25.186955288340613 475.3254814390497" stroke="none" stroke-width="0" fill="none"/><path d="M26.7268177609009 23.034508003347398 C102.30833702948269 26.23284943773217, 183.69962723128253 23.512943329559004, 224.48071017791494 26.945406047292394 M25.854036840685527 25.290001414322724 C65.40953193536015 25.211612008899404, 105.09206858590171 25.355973993349217, 222.32908583558591 25.844258230071066 M222.25377941346107 25.305594470256178 C222.95556293166166 178.80689103009257, 222.0192716097267 331.95017603762375, 222.06806469904487 474.91743570703017 M223.44551008394524 25.029024216590695 C224.15589833753228 158.55440943185886, 224.21098656831165 291.5927952278981, 223.18005674907766 474.84038357687723 M223.34799698102452 475.963297909973 C160.6775563384169 472.28899502962526, 96.97845833367754 472.66303638054336, 24.282014470705985 476.4246401368268 M223.86168630744234 474.15393784123444 C158.27371535864373 476.1264291898463, 94.27687199680491 475.76494015335044, 25.73065500160676 474.9436259352737 M25.11354852966458 474.197998480621 C27.357520232268264 341.35662700629535, 27.10292650447361 205.4645385331854, 24.381629242289836 24.9979156707035 M24.615566173455772 475.03520888866103 C24.167557784839808 312.2749058868921, 24.819861272639663 150.2909389435835, 25.180461148896132 25.461842425513634" stroke="rgb(0, 0, 0)" stroke-width="1" fill="none"/></g><g><path d="M23.113432752252756 23.479317572062868 L132.03615801734298 25.861069403406155 L129.84555256988168 74.82400224679785 L24.03132534144169 75.71316652577529" stroke="none" stroke-width="0" fill="none"/><path d="M23.266115951519662 26.83407518043847 C67.17535659991321 26.218493616875133, 103.68971533328417 23.327489996242182, 131.28029371846657 26.9960982588384 M24.01169944190321 25.42931967959164 C48.298058548448665 25.298681412193467, 71.38693861417104 24.423392297750755, 130.16203339152418 24.884690845874587 M132.88326525380518 24.556210047687205 C130.1259035106409 38.36686548189865, 130.91622491889405 49.52529300006568, 131.38485803674888 74.39354539391809 M130.68833246708144 25.478113447852053 C129.89092452557162 39.41922273170546, 129.68260654545944 51.75948168482458, 130.96129759320866 75.87530510450853 M130.76881214067322 74.07559124913388 C103.74157688943605 74.00624967439406, 75.85780823520598 73.57748252046476, 23.121420477835958 76.79519498548947 M130.6542281757536 74.56390381347705 C90.3080159552645 73.72410097587951, 51.17885373343409 73.43169109096453, 24.42358789090242 75.3567348774373 M23.953479976622344 76.83736981306646 C27.14927699027881 62.24712516120577, 23.2838834516142 50.41881662140375, 23.30375423586493 25.743998707352382 M24.149561193807045 74.60887990435653 C24.47342749081948 60.74218006269634, 25.143704294614256 45.81032554900991, 24.824433627261662 25.68659207709941" stroke="rgb(0, 0, 0)" stroke-width="1" fill="none"/><text x="78" y="55" class="type" aria-label="stack frame name: __main__">__main__</text></g><text x="50" y="130" class="variable" aria-label="attribute name: lst1">lst1</text><g><path d="M146.73978892125433 98.23552000338454 L207.59344566928763 100.3042137503037 L204.13158774172857 149.1125873851651 L146.92416928052984 149.75109436363638" stroke="none" stroke-width="0" fill="none"/><path d="M146.11527225349096 98.83216654465035 C169.87341789098429 100.27679324443177, 193.05226937160307 101.13769053545731, 204.7427087157809 101.83238366502842 M148.79381250028226 100.13712074755523 C160.30445497673037 99.99115089536049, 174.12112418442015 99.2637847668469, 205.5411660801703 100.14849156262078 M206.10372775066156 99.19216015491921 C205.60487184968076 115.90768644131246, 206.12564116935482 128.5688874558116, 205.4927857858496 151.4940509447805 M205.71954750250205 99.0246472919565 C207.06136646898238 119.33533121180417, 206.00438459731654 137.46522540697384, 205.88747183952918 149.66486684095835 M207.44987602421477 148.0918213289076 C186.3685122205065 149.1738015753243, 161.60848023047132 149.1167029272695, 149.58566264013578 149.95791762024814 M205.30223094178027 149.0629387435706 C188.6374346291009 149.08731658609858, 172.8493166600974 148.54667970799719, 147.89465726564015 149.58124274937637 M147.79628180337141 149.57462392440002 C148.6219439044163 137.88643809319242, 149.34018892245746 128.57333828828467, 149.10076882914606 100.0430826235952 M148.49340255688284 150.83208715777076 C147.51366130136364 137.28677386595933, 147.03161202480572 122.95201727820687, 148.7560770324619 99.24440165061088" stroke="rgb(0, 0, 0)" stroke-width="1" fill="none"/><text x="177" y="130" class="id" aria-label="attribute value: id82">id82</text></g><text x="50" y="205" class="variable" aria-label="attribute name: lst2">lst2</text><g><path d="M148.5944523247228 174.680340125964 L204.6896333128945 174.56085545626 L207.20826268676294 225.26461040669585 L146.24631038768663 226.76591369166346" stroke="none" stroke-width="0" fill="none"/><path d="M146.60505560436698 175.9759015500149 C163.2845369412051 174.2151424953515, 179.7263822595737 176.98748813628086, 206.0219126482313 173.182701328474 M147.56205972768893 175.2115819389672 C167.64322888950622 176.22699361841146, 188.54535358030958 176.06973869165233, 206.31640746621568 175.70180360029985 M204.45518620787115 175.9743372897729 C204.75322223256504 190.41984299215562, 205.44155382702215 200.74703693640203, 204.25744546713156 225.38013657095442 M206.40355259579414 175.71845664085586 C205.5692633545252 192.9213936840569, 205.0504498888856 210.99154512394426, 206.94030279728338 225.79734994489263 M205.31817917175005 223.75688517320086 C192.58943577702843 224.25062700119992, 177.8455499514927 222.71006161187216, 147.70511790723714 226.74637962349163 M206.0792273044988 225.16588590786185 C191.01365437304054 225.19642171913492, 178.60345620765335 226.39068507249445, 147.7059698862909 225.36212899882088 M147.60837277966365 224.75828275801726 C147.09589233246595 203.11957864425423, 148.24658548842913 186.48642258508616, 146.13008993849985 175.83674306839478 M147.61255573901784 224.7892025267878 C147.5802200216774 211.79869684880808, 147.52678899513936 198.54450518666533, 147.35820228721434 174.83120233252163" stroke="rgb(0, 0, 0)" stroke-width="1" fill="none"/><text x="177" y="205" class="id" aria-label="attribute value: id84">id84</text></g><text x="50" y="280" class="variable" aria-label="attribute name: p">p</text><g><path d="M148.45316007813537 248.75398548231576 L206.45127448742392 251.82777230507455 L205.3149086166874 301.02768057788927 L149.9652921709194 299.1151945504651" stroke="none" stroke-width="0" fill="none"/><path d="M147.80886417933456 249.58948639962392 C164.17288786296524 251.9464264185531, 180.59754223576329 250.9704994595529, 205.88586970629444 251.03061677434272 M148.01360787020982 250.97563276158374 C166.28920374946148 250.08899926357793, 183.5695958434404 250.3497480014694, 205.93616936529148 249.64789040793073 M207.3994390407096 249.18463474825126 C205.97554480688382 266.5044737647842, 205.3095932622533 280.73919130025945, 207.87358125809774 299.9798405798844 M206.9813951665209 250.91013966541942 C205.0607334207113 262.6441573449464, 206.4285414804183 273.7321032432722, 205.29536167749555 299.9466851220405 M206.7279786751523 300.49817355533116 C184.96919179801722 301.5276306546965, 164.06758438613159 301.2514843303995, 148.05072614018852 301.48989418982285 M206.07148592835313 300.7645620239982 C182.93900728576077 300.3365793385652, 160.51845071570094 300.4901247730133, 147.47043850744248 299.1077132048635 M149.76555689480787 299.7061868196406 C148.73169706030316 288.60907574365166, 148.3041012903255 274.1416043673611, 147.4256560866988 249.00802959951167 M148.44365552135292 299.3330208046531 C148.98069113616415 285.2285745891533, 147.06214565282113 270.04511830294916, 148.07550048390146 250.03733408218494" stroke="rgb(0, 0, 0)" stroke-width="1" fill="none"/><text x="177" y="280" class="id" aria-label="attribute value: id99">id99</text></g><text x="50" y="355" class="variable" aria-label="attribute name: d">d</text><g><path d="M147.2414248298679 324.5120774286843 L205.97034326507435 323.04424767949246 L204.0987770457035 375.82129272835044 L149.96541324079857 376.4522526667627" stroke="none" stroke-width="0" fill="none"/><path d="M147.16628817655712 324.4228170727208 C171.07626602688572 326.3137257173531, 191.06910166756205 324.2894604003928, 205.32975554780097 325.6236770477324 M148.1522715744028 325.3937300040023 C168.43859420526704 325.7865955417744, 188.6289898059978 325.7241668050592, 205.70002856472587 324.40814679402683 M207.47840367450638 324.6304005407257 C205.18895483726783 344.87895456700033, 204.3949122622524 362.55715089982476, 206.05115588616485 374.2185852611706 M205.40709599642653 325.4400599447167 C205.79021763274903 334.9040915693972, 206.99698284206758 346.6242554989266, 205.04011374485157 374.6918687219138 M204.35030582587058 374.6665539554744 C183.6443770749232 374.81409771119513, 162.88192790972647 374.2284253689463, 148.7192972996821 374.8310706928133 M206.2856717701004 374.19880110131646 C189.74462432916414 375.6021287702432, 174.1129076620813 376.0263346494903, 148.811281511814 374.6655716988371 M148.01946574930756 375.0502235709297 C149.33411466533548 363.9104827339027, 150.0194792654187 350.8080147250848, 149.41260449594003 326.4316475179131 M147.90386535449238 374.5364049124742 C148.86849088227135 362.3782780657873, 147.89360505461156 349.412978007918, 148.53483858748638 324.2153714966428" stroke="rgb(0, 0, 0)" stroke-width="1" fill="none"/><text x="177" y="355" class="id" aria-label="attribute value: id10">id10</text></g><text x="50" y="430" class="variable" aria-label="attribute name: t">t</text><g><path d="M148.2506784186546 399.21686319938783 L207.28462174509593 399.03685467979597 L207.37649931098136 450.50542126988773 L146.41885155915247 450.07785713379707" stroke="none" stroke-width="0" fill="none"/><path d="M148.30440391151032 399.8951609439465 C164.22688512057516 401.3298370544197, 179.970348038477 399.5984936410439, 205.819276837776 399.58195946736987 M147.4872991735804 399.7998407741133 C166.85982095737978 401.2728233418598, 185.78948679242822 400.41634425250663, 205.72376082266257 399.6476231546639 M205.37699114540263 399.7804409773943 C207.57303451215608 417.6167065279151, 205.41093609914387 433.49534806109466, 206.28096903921178 449.50346326261126 M206.47902318311898 399.78435613332516 C205.25758833911112 411.27285489490737, 205.64833525114403 423.87649900705657, 206.1647860979012 450.8288968019964 M204.3951654394849 449.2001097818399 C185.0478345936363 451.82033318924493, 166.6064781592189 449.51635780472736, 146.44808651472448 449.5488682998226 M206.87973833118707 449.0001619082197 C187.31678861916586 449.50382855784017, 170.50955059930735 450.0858401961998, 147.33760099561002 450.1672771707292 M149.82744077956596 450.9971269166432 C150.36468433622392 435.9381796195945, 150.1486492884392 424.3148887235474, 149.04959466915386 400.03923749285093 M148.11673401691252 449.32897394930876 C148.55300273096955 433.12901200575243, 147.49198871428197 418.14706704226444, 148.79292967325048 400.58033248594086" stroke="rgb(0, 0, 0)" stroke-width="1" fill="none"/><text x="177" y="430" class="id" aria-label="attribute value: id11">id11</text></g></g><g role="graphics-object"><title>Str id19 with value "David is cool!"</title><g id="object-1"><path d="M247.98060179512845 24.895982929702075 L484.10834219673336 25.354089241223736 L484.46590492984285 155.27088994494304 L248.34941224324064 155.35066116204052" stroke="none" stroke-width="0" fill="var(--highlight-box-fill)"/><path d="M247.70407658622108 25.216416191602672 C297.06989192089384 25.139225823619753, 345.9270309921253 24.835817052734654, 483.9371404191263 24.913877389153825 M247.94433095870292 25.016936652207946 C341.0363545682661 24.731086819776277, 434.1344630237104 24.698900482673576, 484.20019045240895 24.92110953017267 M484.1813418520571 24.796304945245044 C484.29095354924226 61.58535824649715, 484.4790545675746 98.26830792855279, 484.5522586591706 155.2324014757372 M484.15314153195186 24.87283343112709 C484.0316043598778 71.36227942216526, 483.96609778733585 117.45893346659265, 484.26355080820304 154.86810403926577 M484.00171390050474 154.84118612755563 C414.57104147461735 154.70958567113556, 344.9247523933211 154.98599963925824, 248.00292780929792 154.87893958750843 M484.3575159908554 155.01583078590545 C419.81203776365305 154.60186157527028, 355.5925544655965 154.8368421711865, 248.1610535246298 154.953716695318 M248.03884537872833 155.05255366052674 C247.48069680911217 113.14701773669735, 247.95383987939113 71.12855742542922, 248.03455440462903 24.922194380128243 M247.9357481184909 155.14953975406627 C248.2831975604104 105.24652419473205, 248.1552429046605 55.59962977646648, 248.09686101783169 25.125753770419216" stroke="var(--highlight-box-line-color)" stroke-width="4" fill="none"/></g><g><path d="M241.78413623652153 20.10032239197287 L490.87441803110045 20.35831200270807 L488.28825801383516 162.06827215680397 L240.67927928735827 161.04570218509897" stroke="none" stroke-width="0" fill="none"/><path d="M243.62817802955635 19.0156639748509 C341.0678484587642 17.37849496864411, 439.014487342937 15.694092213404721, 488.71492564781494 19.735163560202356 M241.3082730195194 19.339155111709488 C310.22941973317955 18.101076058177316, 376.9386954190286 18.244892671755224, 490.25527047293565 18.63405584292018 M490.30347125155623 18.12787488966212 C491.2434525052885 63.9564290664352, 489.8669557180908 109.69854090554522, 489.4175077340926 161.13510514237865 M489.4272371128704 19.794637726169295 C489.37407506832267 70.81074120482475, 489.08007156828523 121.37886976301738, 489.3159385131043 161.98654902321007 M490.2403774530443 161.02178177974932 C430.0939865246913 163.4535066786107, 369.54968234553195 163.45805711995035, 243.50755766721787 159.50511823260064 M489.49649969270945 161.25953438891503 C404.35256873260823 161.14114172522983, 317.8886567033794 162.05323702856577, 241.98086486919155 160.3337754012551 M241.6929758969834 160.91524852460014 C240.24635137340616 111.82390888538902, 240.26942570034234 61.2843233210007, 242.59424116777782 17.400020809224678 M241.90450158725866 160.40832775942954 C243.10556293181102 113.87323344927287, 242.86375832425279 65.52147219607563, 241.81322703474484 19.955754801501705" stroke="rgb(0, 0, 0)" stroke-width="1" fill="none"/></g><g><path d="M248.02374115546974 24.989696971908884 L310.53107269512566 24.617721397023836 L310.95034051994037 75.24425682857623 L247.71255982898688 74.85022141719121" stroke="none" stroke-width="0" fill="none"/><path d="M248.3043377630254 24.72706736177713 C272.0371300130212 24.974563655553183, 296.72191967673876 25.297008862564592, 310.8993972093647 24.730687050404338 M248.07857045544657 24.810958821544975 C264.671861038279 24.994793304271095, 281.3083270253402 25.07413286746406, 310.6629957160198 24.847936227780732 M310.65087864900636 25.39577695872529 C310.5041286748367 39.897703269557155, 310.82916651351957 54.26327071304601, 310.543206540304 74.65658860444239 M310.6507483733099 24.962320614138267 C310.90102796210573 43.85668969795607, 311.050341778709 62.566586396080126, 310.9951414583937 74.83997540902183 M310.9470949565696 75.16617834109324 C296.73368495545384 75.07274226859938, 282.6946087961903 75.02523860852459, 247.64435179054055 74.9884281938116 M310.8893072606271 74.91973445106821 C293.682305635638 74.90554005902462, 276.47405285859503 74.88878246245223, 247.9395349003062 75.00616488406752 M247.9551606298903 75.1524269420914 C247.73479377284224 63.64048082085523, 247.61980327396955 52.79998526990844, 248.389670820898 24.678123925536493 M248.0121467591137 74.8566088485812 C247.96513061424096 57.47623874225122, 247.85317449038888 39.79640135898043, 248.04031839667542 24.82600404588314" stroke="var(--highlight-box-line-color)" stroke-width="4" fill="none"/><text x="279.4" y="55" style="font-weight:bolder; font-size:22px; fill:var(--highlight-id-text-color); " class="id" aria-label="id: id19">id19</text></g><g><path d="M424.41177009662647 25.28010981975015 L483.8883467697131 24.714402092056783 L484.2861729276568 75.27960247041456 L423.8321399005632 74.99410568966508" stroke="none" stroke-width="0" fill="none"/><path d="M424.0694993538529 24.669644804538557 C437.1834237936437 24.667586658782884, 449.7129773019318 24.833823128566507, 484.450943154536 25.263379613256497 M424.3776924879779 25.083309437000946 C437.2805219603356 25.108343436777904, 450.42799299595646 24.931955702663647, 484.1675626784045 25.142392816498255 M484.5504950268828 25.280136391801193 C484.4907233726209 38.06885398695144, 484.3833642405942 50.799973374738634, 484.2384642663165 75.27104591947626 M484.04207664457084 24.87202713466495 C484.0445185195291 39.927260109333005, 484.0158259114343 54.53527474462214, 484.31917018697305 74.91962426312301 M484.43790043494323 75.22927895155364 C460.8316252454454 74.58392342543561, 438.1523509537253 74.74338865422007, 424.05813093008044 75.37238568834908 M484.0763733464703 75.18357901891957 C469.8104350948345 74.94515926084684, 454.9153405251134 75.1055158545272, 424.3367258905396 74.94117970199802 M424.31859025109657 74.80160709442131 C424.58753334618643 54.99579292474565, 424.4854154611228 34.92722711178603, 424.5558576802921 24.68183926676297 M424.0066112957235 75.04752751363816 C424.27483891325534 56.63615027738939, 424.3620203961063 38.31071298079386, 424.3607298034584 24.921219625877804" stroke="var(--highlight-box-line-color)" stroke-width="4" fill="none"/><text x="454.2" y="55" style="font-weight:bolder; font-size:22px; fill:var(--highlight-value-text-color); " class="type" aria-label="type: str">str</text></g><text x="366.1" y="115" style="font-weight:bolder; font-size:22px; fill:var(--highlight-value-text-color); " class="value" aria-label="value: &quot;David is cool!&quot;">"David is cool!"</text></g><g role="graphics-object"><title>Int id13 with value 7</title><g id="object-2"><path d="M247.3051182198919 191.754900628792 L446.6104436009689 190.5692913293508 L449.0046867191708 321.8681104549678 L246.32108098884856 321.94478803771796" stroke="none" stroke-width="0" fill="none"/><path d="M249.73813071285068 193.3182270907402 C291.646042184684 192.16443976406862, 333.3717353941272 193.80267443215544, 449.45049703182326 192.81035412627136 M248.47350232096474 192.76339741262544 C324.1639399922272 191.864546683234, 399.3903646513166 191.60092171154272, 448.2578184302777 192.6063820478189 M449.64140298348406 190.8471785745353 C449.3174962411381 240.83791554834423, 449.62059544144785 293.15628629417665, 447.2065748074967 323.2088761969217 M447.62634480720203 191.29931993498494 C447.5557765421431 225.1765036507318, 448.0092174362308 256.5460235380762, 448.6172907644398 321.78599712483515 M447.1652689681504 320.7603354577555 C376.53190748649735 322.53013168225675, 305.91237876773425 324.06633293214287, 247.86663832464947 321.8720240847053 M448.731546689516 321.65168706885146 C406.2406750262586 322.91276799385054, 366.01114427628494 321.6163954986711, 247.9317510996151 322.83981692324323 M248.02115226444886 321.5922567672567 C248.50629565834808 273.27184624781415, 249.39954716464567 226.37970128887983, 248.03469047283278 193.19798331150827 M248.3445008422806 322.52050469672776 C248.81658938528255 283.473879611256, 247.78785408293442 243.4293541310723, 247.79418852543384 191.99108365977494" stroke="rgb(0, 0, 0)" stroke-width="1" fill="none"/></g><g><path d="M242.47838166443907 184.539748622542 L453.25075479616453 187.62174538765942 L455.4896204035275 327.0682489811548 L242.08954196924253 328.7544424267077" stroke="none" stroke-width="0" fill="none"/><path d="M243.11736513915423 186.3050343044468 C310.6079140781444 188.0409970421796, 381.94352900655457 187.61600879322827, 452.4801305100384 187.4724146015246 M241.33181183463606 186.44093907901444 C288.0918716045827 188.36109285390995, 334.1574975428833 187.56436040769515, 453.65658221691785 186.35969706701525 M452.7726739689241 187.10850025141406 C453.3257494345008 239.5534720939758, 455.6097933586449 295.3124976751975, 453.2053882692663 328.12877226903413 M454.50740964313263 185.8973659412462 C455.5585847411358 226.36394067696483, 455.5264966937923 267.5983432260858, 454.13978526200236 327.0267012292997 M453.4654354941208 327.56237233849214 C374.42863430263407 327.8196791628317, 295.01542475915124 331.17822167637956, 242.6868941971157 328.55854429313325 M453.48545282613594 328.23342483997334 C391.2851682482798 328.7243409767774, 328.9295224198477 327.9946200298182, 241.38398599274248 327.20742975020516 M240.6513990618496 329.0056651108328 C243.52181108108198 282.5154467129403, 241.96472852324533 234.34314965063933, 241.00705583291716 184.59697937823847 M242.27648730947016 327.38425967993385 C242.69373407656073 278.55646574872094, 243.0315502206459 230.4153392684138, 242.6704011586952 185.7122362326236" stroke="rgb(0, 0, 0)" stroke-width="1" fill="none"/></g><g><path d="M249.23687893120066 192.90513576830153 L306.7898684819936 191.07724180737046 L308.5453819420291 242.2519228272867 L248.55963781692148 243.45267292710258" stroke="none" stroke-width="0" fill="none"/><path d="M248.82583048763988 191.4766420678214 C264.39716752441075 192.20587263993636, 281.7480731307013 192.89263915356253, 309.67085804900756 190.9982011142079 M248.08270309779948 191.0931770785778 C266.8426097319433 191.96666719577993, 284.22016076652994 191.25541270811104, 307.5353847618409 192.75091779663234 M307.2070920137262 190.649483883573 C307.4678066724586 206.66629543481707, 307.01615468957516 223.03585834100056, 308.0827468862143 240.100816803211 M307.26503208813796 192.8151468635806 C308.1047735863704 206.66152775961388, 307.64260526379286 220.24627134120414, 307.0648966039284 241.37448637319608 M308.8728923001266 242.38969861165222 C292.80035875079534 241.8003439882705, 274.6727071012214 242.10395647410297, 249.3653582365077 241.83018685164075 M308.1024192285892 241.95208687894575 C288.9615461717666 242.29513013106055, 267.38232943931996 241.36237948904864, 247.05200585116646 242.56786503820712 M249.56020580475888 242.4443612004353 C247.04016282809582 228.45581737514604, 249.51352233616498 217.9286831508473, 248.51796468629146 193.87979539690758 M248.95558956465732 241.69330234972585 C248.32118334245897 229.48236273451502, 247.55889747497142 216.80881219463973, 248.86984520850626 191.49748810984107" stroke="rgb(0, 0, 0)" stroke-width="1" fill="none"/><text x="278" y="222" class="id" aria-label="id: id13">id13</text></g><g><path d="M387.32102345917946 193.80505937266682 L448.44111167493105 190.02093860304748 L447.86700578419124 242.49566550845918 L386.94707671617965 243.5694309609663" stroke="none" stroke-width="0" fill="none"/><path d="M387.91142051444723 193.8174328561234 C401.68319338550697 192.28046964052007, 415.87413244044905 192.65821730000295, 449.634151003197 192.43419163378758 M388.8338883826979 191.91194639446974 C402.61528489473443 190.6654313181002, 419.02346928608654 191.02989709651945, 447.34160493648983 191.40610750341185 M449.70886690114185 192.30995042532976 C448.6788153161212 207.82865023673716, 449.2329481462068 224.13725316218176, 447.13607565961314 241.95261657887983 M448.4162410993782 191.32426416197654 C449.0269362542771 207.48440651120052, 447.69129085694783 222.29330856336492, 447.1365092977325 242.8447524796078 M449.05363312862613 240.52988906624094 C428.37164807030234 240.31959853115268, 412.249863970161 240.07549392390146, 388.8712196357957 240.4914295676346 M448.8347920562516 242.47444812120054 C427.33480465587877 242.96593322037103, 407.22084833588303 242.60329145755927, 387.8900539623114 242.02748091134174 M388.05746578358946 242.47956280926854 C389.0052065532555 229.29059468087465, 389.3344995301291 217.04689431448514, 389.7751520144446 192.9694136748463 M388.45924297945453 241.38721797102667 C388.14767575515947 224.95205633870623, 388.7494467762376 207.51622879206818, 388.6354338864361 191.94200164115904" stroke="rgb(0, 0, 0)" stroke-width="1" fill="none"/><text x="418" y="222" class="type" aria-label="type: int">int</text></g><text x="348" y="282" class="value" aria-label="value: 7">7</text></g></svg>