<svg width="521.2" height="500" xmlns="http://www.w3.org/2000/svg"><title>Python memory model diagram showing stack frames and objects</title><style>
        :root {
        --fade-text-color: rgb(0, 0, 0);
        --hide-text-color: white;

        --highlight-value-text-color: rgb(27, 14, 139);
        --highlight-id-text-color: rgb(150, 100, 28);

        --highlight-box-fill: yellow;
        --highlight-box-line-color: rgb(0, 0, 0);

        --fade-box-fill: rgb(247, 247, 247);
        --fade-box-line-color: gray;

        --hide-box-fill: white;

        --primitive-value-color: rgb(27, 14, 139);
        --id-text-color: rgb(150, 100, 28);
        --default-font-size: 20px;

        --highlight-object-fill: rgba(255, 255, 0, 0.6);
    }

        text {
            font-family: Consolas, Courier;
            font-size: 20px;
        }
        text.default {
            fill: rgb(0, 0, 0);
            text-anchor: middle;
        }
        text.attribute {
            fill: rgb(27, 14, 139);
            text-anchor: start;
        }
        text.variable {
            fill: rgb(0, 0, 0);
            text-anchor: start;
        }
        text.id {
            cursor: auto;
            fill: rgb(150, 100, 28);
            text-anchor: middle;
        }
        text.type {
            fill: rgb(27, 14, 139);
            text-anchor: middle;
        }
        text.value {
            fill: rgb(27, 14, 139);
            text-anchor: middle;
        }
        path {
            stroke: rgb(0, 0, 0);
        }
        .highlighted path {
            fill: var(--highlight-object-fill) !important;
        }
    </style><g role="graphics-object"><title>Stack frame for __main__</title><g id="object-0"><path d="M26.39484372940379 24.959005110396983 L224.7283464869843 26.973498071899925 L222.3534566281592 475.5756154284205 L24.51847389974315 476.74980266768335" stroke="none" stroke-width="0" fill="none"/><path d="M26.020811062914994 23.837098825722432 C87.38701466391754 22.991017163386253, 149.1591208448765 23.126513831170772, 224.24447889151045 25.122876818000755 M25.812720033511404 25.19733108568082 C103.9030330008923 22.54749794948016, 181.06556775777196 23.589226572681984, 223.82437516272986 24.497046008711415 M222.14755552561812 24.47046696277839 C223.79100102329946 147.9668569390071, 223.48809012929902 272.3745632014351, 222.14813941185454 474.4890598108762 M222.9320637813465 24.67001238379635 C222.29883247797125 147.9414110156219, 222.49058073859825 271.45735946512184, 223.38048365761847 475.33723267703914 M224.76098394416798 475.5064324213297 C163.44964806529669 473.72757846607743, 106.44321365747511 477.00480684228904, 24.75640145209874 475.65112362154565 M223.60557525878266 475.5551592115929 C165.7257398647099 474.4425603713579, 108.88552971982102 475.1327448285555, 24.049232628306143 475.9790801660287 M25.878291408936516 474.475485298929 C25.520513827967857 351.33702304380336, 27.334755639455835 229.9654726508868, 24.563115388836625 25.662030807063452 M24.72625436517183 475.3644960659101 C26.411790359615814 332.541645056587, 26.050417628758268 190.43496999380392, 24.81973720174092 25.332693912095856" stroke="rgb(0, 0, 0)" stroke-width="1" fill="none"/></g><g><path d="M25.52288308604259 26.42370282596307 L129.95481695130448 26.82953265880615 L131.56745883145737 76.40850236152532 L25.90798033105782 73.50484860030696" stroke="none" stroke-width="0" fill="none"/><path d="M25.162059579655498 23.577805379899132 C53.23816706633048 25.357857476992457, 78.95461375029551 27.699400835950083, 130.20457686708914 23.36131700452217 M25.997553727757392 24.709864706325543 C55.74508395502113 23.600860133603227, 85.72673596906485 23.79764310613155, 130.86695099935793 25.66600097335337 M130.78748183248413 25.02711710468756 C131.6680953291364 43.9765967076125, 130.75090281816705 65.82436340996139, 129.76805898400693 75.8133947570705 M130.843488726863 25.09039349503533 C130.94771876832 42.484718193061035, 131.06227348677123 58.988312499717445, 130.97522893988287 75.01681892621568 M129.92907281164554 75.16945981330528 C104.42876022391324 76.22448476600343, 82.42827165372428 73.71061166687163, 25.386497120525128 76.82302386403941 M131.3502579057782 74.73591800071802 C109.28323064577182 73.45320801955863, 85.0995511132986 74.64909029735752, 24.92516539255374 75.82675198608756 M24.755760979623766 74.4721443975595 C26.843874768011645 61.450844232588544, 23.530889687199608 46.799152086109025, 26.149687759649524 25.842814605235784 M24.258579400573378 75.40773473829617 C25.25663272646806 63.85990032475816, 24.40934274970411 51.45529943388002, 25.365705075248542 24.50769308474278" stroke="rgb(0, 0, 0)" stroke-width="1" fill="none"/><text x="78" y="55" class="type" aria-describedby="desc-0">__main__<title id="desc-0">Function name</title></text></g><text x="50" y="130" class="variable" aria-describedby="desc-1">lst1<title id="desc-1">Parameter name</title></text><g><path d="M149.26892454131277 101.64465744333069 L204.81988384584088 101.97548586750672 L204.91454789148113 148.6680102016062 L146.2458854317356 148.8664732315257" stroke="none" stroke-width="0" fill="none"/><path d="M147.94142318641133 98.45252868091502 C160.39561100166645 98.59474740350551, 173.95910702931448 99.67557139377051, 206.11101874721282 98.31388943437196 M148.10080401364496 100.97456617861071 C166.54912396057972 100.20104100351713, 183.899681857281 99.7796953947569, 205.64904235128634 100.72023176459228 M206.69535373545253 99.3528273512074 C206.0261078655859 117.38288129698267, 206.04765020633346 137.44257788749508, 204.06791977722912 148.15465326221758 M205.9206463048385 99.83146259708793 C206.13580210517478 120.11343739321404, 207.2535625489878 138.4424798520574, 205.30175804760418 150.77590679645968 M205.90133167165433 149.26724690368994 C186.36050404855595 149.53461608348562, 165.5532904531653 149.85439324151517, 148.29298535769163 148.09224084384965 M205.18094136833295 149.65251102016208 C193.57267869786278 150.30701882801137, 180.93519735095867 150.38578097490958, 147.43837351984982 150.26984233586995 M148.83142565049602 150.45036482903976 C146.960633454308 139.6807740584415, 148.23941825190818 127.7793143894468, 146.5081532032909 100.38281807880588 M147.04582404313 149.9630218443708 C146.77663360785454 138.0920528897067, 146.8412544478488 123.95628076752897, 148.86736193856404 100.23399238039534" stroke="rgb(0, 0, 0)" stroke-width="1" fill="none"/><text x="177" y="130" class="id" aria-describedby="desc-2">id82<title id="desc-2">Parameter value</title></text></g><text x="50" y="205" class="variable" aria-describedby="desc-3">lst2<title id="desc-3">Parameter name</title></text><g><path d="M148.08020011880302 176.3772480121377 L206.4045966954576 175.5477795057144 L206.29343302581213 223.44210966957928 L148.58845957209292 224.3045835096619" stroke="none" stroke-width="0" fill="none"/><path d="M148.33070748239527 173.52632197958613 C162.23925289030646 176.74818048502144, 172.9294030149019 173.4925813571402, 206.63576208705533 175.59620293918863 M148.61279904866302 174.28717182220853 C159.42169210172247 176.24387265150042, 171.64138650360684 176.26826726528878, 206.69709473543693 175.82750795328045 M207.96084772230873 174.10639326877927 C204.9590756881624 194.5085170146211, 205.081471496253 214.98920865956967, 206.5004683722959 223.10149598395654 M205.88212161545 175.7636224528998 C206.81280325521217 187.86164328707954, 206.13751232118543 199.73730175175137, 206.770618543664 225.45109947236034 M205.67820064404853 224.7885754357049 C184.0485333145906 224.17573446462382, 160.60741185911414 225.6497873814643, 147.49892123661655 225.2539145575923 M206.54194427706256 225.1311773090804 C185.69554764850696 224.7000323975738, 166.73353370782576 225.97597826744095, 148.90837510922663 224.9354613509627 M146.36372861063458 225.20590637942988 C149.3724951247576 207.22800806125753, 150.0279473117618 194.2849883172066, 147.07545875110085 176.694343769133 M147.04011900602674 225.81183727777395 C147.0966246730158 207.85801650625248, 146.89967426667073 190.1192259728774, 147.7703744801558 174.38546484747877" stroke="rgb(0, 0, 0)" stroke-width="1" fill="none"/><text x="177" y="205" class="id" aria-describedby="desc-4">id84<title id="desc-4">Parameter value</title></text></g><text x="50" y="280" class="variable" aria-describedby="desc-5">p<title id="desc-5">Parameter name</title></text><g><path d="M147.79686651416148 250.94374238697745 L204.92697380071664 248.49924163664488 L204.9107480624933 301.3743648274077 L146.43931290811364 301.58656653460685" stroke="none" stroke-width="0" fill="none"/><path d="M149.62576766746056 251.458704994279 C167.24867311708817 250.03768776174448, 184.49057191536417 250.23330642323396, 204.43616628395546 251.30826556548374 M147.09714080343514 249.30847802810874 C164.51519159065282 250.65004342093854, 182.97509237321228 249.02961853563062, 206.37911993631403 249.7153055383249 M207.11275092198932 250.50359589393145 C205.1894301614005 264.4604272668649, 204.55851313733595 282.012841751287, 205.193504231226 300.807439962688 M205.15141803753778 250.4324163189435 C206.80288477450551 264.9111637175906, 206.5002815198005 281.17595844579847, 206.02239713082244 299.8544408576739 M204.1464986627745 301.66499978054355 C186.06771689195597 298.37470703556124, 167.40390491613454 299.9416661626249, 146.70974215569987 298.15498797881816 M206.29130250109787 299.20486146806735 C192.36083493096535 301.5427725035015, 178.36737527792943 300.692394217528, 148.5275755159513 299.63614157442356 M147.68907678992926 300.8404105946303 C148.88697760909378 289.4021656972, 149.27702440010634 277.1174113258316, 148.30834585377843 251.06654168203002 M147.1433212163432 299.466438035728 C147.61686806061576 279.74126958279663, 148.50571333823177 262.0093326446084, 148.40357276519862 250.91712966697887" stroke="rgb(0, 0, 0)" stroke-width="1" fill="none"/><text x="177" y="280" class="id" aria-describedby="desc-6">id99<title id="desc-6">Parameter value</title></text></g><text x="50" y="355" class="variable" aria-describedby="desc-7">d<title id="desc-7">Parameter name</title></text><g><path d="M148.7310014955812 324.57179787510154 L207.55059965220832 325.547569820064 L204.16902842168273 375.8110132706192 L147.74751369446972 375.82197161143745" stroke="none" stroke-width="0" fill="none"/><path d="M149.20229290663096 323.2983312101509 C165.10655377934302 326.1584396655708, 185.6065898383014 323.50396261481075, 205.3060875921053 323.57852672575336 M148.96396004052667 324.37363292536685 C170.1022927390762 323.78591371451546, 194.83039710646472 324.19306075605897, 206.95283658988177 324.4387043717114 M206.56282728189922 326.2956627814351 C206.59357413972566 342.00425063843875, 206.84331494208342 361.2844983855329, 207.5312861979423 374.79657468232267 M205.1533435497272 324.7986856765461 C206.48860645732677 341.56438061814987, 205.68088997801803 356.90741101141793, 206.749597938466 374.1984419710311 M204.17106090833425 375.3632291941343 C194.94550196271834 373.0413830715701, 179.54417059283833 374.85014823884086, 149.90803247357738 373.7214018442878 M206.5582655201209 375.70749435440337 C188.68438578884442 374.90828968253356, 171.98981471139618 374.07961803436956, 147.46839650886895 374.8161948615031 M149.6373872702931 374.0135141536363 C148.13671237416594 354.5532262775228, 149.46505879050778 338.4921519380216, 148.76700811362485 323.5201279658437 M148.9787891397402 374.77869749517833 C148.42996476740683 356.11153220863736, 148.39742691663704 336.7642824297422, 147.66932615146035 325.5390527274124" stroke="rgb(0, 0, 0)" stroke-width="1" fill="none"/><text x="177" y="355" class="id" aria-describedby="desc-8">id10<title id="desc-8">Parameter value</title></text></g><text x="50" y="430" class="variable" aria-describedby="desc-9">t<title id="desc-9">Parameter name</title></text><g><path d="M148.96425406857557 401.74468079190814 L206.1495713508645 398.63609853118896 L205.86673585767528 448.8032157060989 L146.11597979711541 451.7761505947546" stroke="none" stroke-width="0" fill="none"/><path d="M149.8656449960104 400.80995665855085 C162.41539988121465 401.7300899258531, 181.8012132805164 401.1952606034682, 207.40407694161732 400.9363048849936 M148.56632418111744 400.474391746186 C171.24685911431334 401.05899433901, 192.13008222851536 399.67529068627175, 206.59734936042884 400.75025679978387 M206.19332725849975 399.82000751667516 C205.4978816007115 416.5332500376743, 205.74434672209009 433.6588084030304, 207.60136783697712 448.3346036515164 M206.5617307185035 399.0150168265204 C206.2231218323948 417.83112504540105, 205.37532900954307 436.62220670934795, 206.19001231802116 450.0996720020849 M205.93355189139174 451.94986963518676 C189.56526901698118 450.361503231573, 172.603540115308 448.25038974921097, 147.17502774827727 449.8953605820686 M206.9445090908579 450.92379489162585 C192.48946514775227 449.792874436442, 179.0820269802093 450.42970765093384, 147.44608778512267 449.168747994248 M146.67665984529611 450.71168946366356 C149.23277019391378 437.2301887860517, 148.5809839284501 421.7466375834025, 149.00862931577413 400.6083807378793 M148.4578764211206 450.5708448253143 C146.97745066316645 436.2282975107591, 147.43219448051224 424.7976886350427, 147.94909896475735 400.2341330744099" stroke="rgb(0, 0, 0)" stroke-width="1" fill="none"/><text x="177" y="430" class="id" aria-describedby="desc-10">id11<title id="desc-10">Parameter value</title></text></g></g><g role="graphics-object"><title>Str id19 with value "David is cool!"</title><g id="object-1"><path d="M247.8073768842437 25.17743644627382 L484.5481023870397 25.0145665954951 L483.87669395926525 154.63382573982344 L248.19597031359473 154.84886712870434" stroke="none" stroke-width="0" fill="var(--highlight-box-fill)"/><path d="M248.18632074535347 25.070280230018376 C332.891284074029 24.668763052316667, 418.17374401832694 25.157338670413267, 484.1125807439409 24.827277809447622 M248.06954599739106 24.923805631978674 C320.01029954777624 24.670336931056088, 391.84453377255244 24.773585821153365, 484.27681311172876 25.062880353763646 M483.858072687979 25.271172003220492 C484.1623101839544 64.50555910752624, 483.9674523006968 103.76057707174837, 484.17154184740156 154.87586361566412 M484.07402170697 24.957194484564827 C484.1958860809504 76.08388028832108, 484.16531447864156 127.55195186871929, 484.17116592541294 154.9584624555378 M484.50451168610846 154.8427319859559 C423.8900918913075 155.27385154080793, 364.39684668988514 155.203408386938, 248.27769233346237 154.9795660822985 M484.09912475578045 155.04734486454828 C400.1205502185779 155.16222992066173, 316.218713854758 155.2254925040537, 248.14574167677367 154.94022371510255 M247.71481240729082 155.251135093174 C247.9473884622183 107.40945854537644, 248.0294810023251 59.76768107006597, 248.06564964071163 24.751549489705354 M248.00753815008056 155.17483832968205 C248.1507187582199 118.90969796784506, 248.22814319602284 82.68025976058232, 247.99017616299193 24.81124094250632" stroke="var(--highlight-box-line-color)" stroke-width="4" fill="none"/></g><g><path d="M242.5679082215107 19.13607635371738 L489.8223236531501 19.81864278581304 L490.8540272131933 160.86827536333965 L243.2673507022441 161.54955340483974" stroke="none" stroke-width="0" fill="none"/><path d="M240.86374038146226 19.51134373866816 C315.0746036871496 16.70284915155283, 388.0711795588707 16.3366982637269, 489.90568143438713 19.861458581923998 M242.5988405027928 18.569809060577395 C326.07548845681015 18.081058374862476, 408.1250820266221 17.479811073175775, 489.44722796355876 19.77419375307733 M489.85475831113655 17.84650792607829 C488.14098315662744 67.3032021318958, 490.9022959649787 119.48002422288843, 490.21004349376165 159.68799845968005 M490.670409937594 18.80467055382232 C490.27861998683005 74.15772611710338, 490.8294330649064 130.87317788834392, 490.3347583488522 160.5058320259972 M491.00635539311776 159.52339211435356 C419.47579340267873 160.1488838206085, 344.83044411706754 159.48754931019226, 241.12314733131973 159.85740029573319 M489.78094941693695 161.44148824492524 C396.02550415146476 161.61697518800776, 300.81469600517187 161.97771526516647, 241.49147723975824 160.59699322704725 M243.53324678622755 160.19598815697432 C244.3678399085071 121.3966839422254, 242.98177767905295 84.39778273808237, 240.66425795687275 20.386282799779533 M241.37288478406344 161.78483942843624 C240.63806057453533 117.30939420509323, 241.28372461715088 75.33261838248683, 242.1912468792883 19.757414306674704" stroke="rgb(0, 0, 0)" stroke-width="1" fill="none"/></g><g><path d="M247.90741805834776 25.39816741009955 L310.68598468553665 24.849205867696774 L310.824513967296 74.95222089023349 L247.68812436288954 75.35424400488459" stroke="none" stroke-width="0" fill="none"/><path d="M247.91532001034776 24.67582114924532 C263.75253818490734 24.892666805724684, 279.7845732804879 25.052337061527393, 310.41882557718117 24.672741926772634 M248.10348394300186 24.93992127576677 C271.05362759110676 24.910554103979155, 294.31639892841997 24.944816118646905, 310.6806227551329 24.906448902631624 M310.48827222956965 24.78145415655932 C310.9515705167916 43.94204576108847, 310.49344555121024 62.31332676019831, 310.69831487500517 74.93115328449836 M310.66421308316325 25.175968877890572 C310.72617051942535 40.57585888682377, 310.96496736804716 56.38148172331208, 310.9047058169645 75.16253390499027 M310.96017480516275 74.65230519638024 C296.9424413922376 75.2487100040958, 282.7243697926299 74.83386285957991, 248.2178995484005 75.11820726746558 M310.9353946544995 74.93742029789128 C288.8403239647174 75.01537817439524, 266.5632299125391 75.03950079926301, 247.85203321455947 74.99387739782844 M248.11355642222108 74.93808081505492 C247.76837960500654 64.69195860458296, 247.6596222111459 54.86971751921167, 248.21531568824233 25.351733048889148 M247.95311445487164 75.18905831547508 C248.01585761839934 63.52604772601571, 248.09618086469882 51.91530350221909, 248.15522843687924 24.993406997002126" stroke="var(--highlight-box-line-color)" stroke-width="4" fill="none"/><text x="279.4" y="55" style="font-weight:bolder; font-size:22px; fill:var(--highlight-id-text-color); " class="id" aria-describedby="desc-11">id19<title id="desc-11">Object id</title></text></g><g><path d="M424.0460729622233 25.142371949224668 L484.254275841428 24.635073968733234 L484.5108207199972 75.22069188908252 L424.4404020223837 75.39548511094841" stroke="none" stroke-width="0" fill="none"/><path d="M423.8400575312348 25.306052300324545 C436.8426829084524 25.121746171679224, 449.4847064162293 25.0116819954383, 484.4131849448065 25.175207052181815 M424.1765144300084 24.95210617249538 C448.1837934020969 24.828123958091478, 471.84909482384415 24.994464772886484, 484.2832619782422 25.044518694988824 M484.0338960831059 24.747909103551102 C484.08443322476245 37.56675263065712, 484.5478267367013 50.013202865322945, 484.4018782271549 74.90632421934829 M484.04724425882034 25.059249611112623 C484.181981137138 41.343238058191865, 484.07922602002714 57.476877562448436, 484.195160669125 75.19416247652676 M483.870920548464 75.22088510477393 C463.9159041743659 75.09665990593669, 444.0545282184001 75.14358373705713, 424.18012023194854 74.73375919011869 M484.13458606882386 75.13971500585612 C466.93280083354074 75.14040330600473, 449.5356463434793 74.98445569807248, 424.1633989112311 74.98830399189931 M424.0838216010437 75.02407258460485 C424.05818355322816 63.732220367590145, 423.7494669634637 51.858306146758075, 424.51767269715714 25.078110335155994 M424.1612527846054 75.0888154095959 C424.4087025930323 55.82881265462578, 424.3715500097297 37.00731740181301, 424.2948106188664 25.1815370020077" stroke="var(--highlight-box-line-color)" stroke-width="4" fill="none"/><text x="454.2" y="55" style="font-weight:bolder; font-size:22px; fill:var(--highlight-value-text-color); " class="type" aria-describedby="desc-12">str<title id="desc-12">Object type</title></text></g><text x="366.1" y="115" style="font-weight:bolder; font-size:22px; fill:var(--highlight-value-text-color); " class="value" aria-describedby="desc-13">"David is cool!"<title id="desc-13">Value</title></text></g><g role="graphics-object"><title>Int id13 with value 7</title><g id="object-2"><path d="M247.40062984410199 191.92857660451577 L449.5602492114206 193.1166502828832 L448.25332913660316 321.88455542896634 L246.48116109963414 323.9797890649877" stroke="none" stroke-width="0" fill="none"/><path d="M247.32328141782133 190.4371628134446 C298.46286799903254 192.84237335175675, 351.32158148757355 193.99680938513382, 447.6236032539916 193.2444567942513 M247.15542798797512 192.226396126386 C319.7620416104536 193.10136271142983, 390.18505742412094 192.0091865239133, 447.17474170643095 192.81860842650474 M447.31829950837374 192.07109848801485 C448.5885467032595 226.31154441587117, 449.93968198042893 263.2498811261047, 447.4457099879963 323.440693664842 M447.46036638703254 191.08257117080393 C446.4652463273546 236.84625033274253, 446.7891510873457 281.9309113462441, 448.4179212818575 322.34959535716405 M447.5601737340366 320.69163621110073 C396.35556616436804 321.49670481691686, 344.6892522792093 319.40629011072156, 248.2567743218888 320.3973121153372 M448.59436693003255 322.803758492585 C391.30138664134677 320.95012683222205, 335.95991952921065 321.3426050554741, 247.60936095540842 322.0198159215031 M249.68026789713662 323.0282726332674 C247.03071981350388 294.7573871081935, 246.81971176245176 269.59264527175867, 246.75696704755669 192.75598060833687 M247.16633140067475 321.9245277989543 C246.81582563824438 278.56254403650235, 247.59598580958559 237.02632202942257, 248.23576583417537 191.830353379695" stroke="rgb(0, 0, 0)" stroke-width="1" fill="none"/></g><g><path d="M240.49047574775767 186.1360244146553 L455.72559283981707 186.19016071210467 L454.2977204049704 327.34671749377503 L243.21970846354503 329.9650089256307" stroke="none" stroke-width="0" fill="none"/><path d="M241.56614436843984 186.39287049485196 C293.1480153634716 188.3238069149004, 342.56540430398155 188.41801011416655, 453.95521373078395 184.80807114133162 M242.34304589879423 186.75799490546365 C308.6617567016199 186.07754094937653, 376.52282810212483 184.93182347392633, 453.7629778172286 186.83910040880463 M455.74014729479313 185.96944326478436 C456.3487752131788 221.99251206428673, 455.31387654302654 255.22816444369016, 455.4082430074076 326.396386982544 M453.58324311694133 185.65497781126854 C454.7811710016609 228.37183737513678, 453.8478155234849 269.64835472726486, 453.160944730439 328.70400066720913 M454.6963738670553 328.66621783351616 C391.74726439369397 328.0745330337432, 329.74447385348753 328.28746103479085, 241.04828649684362 327.63761159984637 M454.42001298293405 327.7680220670039 C384.7489417994645 328.7952544438138, 315.8072149371234 328.0617779909943, 242.59592634616635 328.1140736583655 M241.41785836070207 328.94651698186806 C242.1413909081881 271.41663426989754, 241.46245220123575 216.76268309911674, 242.26949231017596 186.84183682625294 M241.6291701904337 327.25879607908195 C243.48285130793604 292.39050561165885, 241.8300153467758 256.21545540908323, 241.7908717655338 185.5652958880475" stroke="rgb(0, 0, 0)" stroke-width="1" fill="none"/></g><g><path d="M246.2168607837545 192.15222173043404 L308.6600094705561 193.4756779632446 L307.70845799354186 241.3244208840622 L246.18377075034974 241.55323468970676" stroke="none" stroke-width="0" fill="none"/><path d="M249.00139967494297 190.6676854600773 C267.6617542489877 194.37267235092057, 289.30715197866044 192.01094251081915, 306.07430402288804 192.68194529698187 M248.20888129346218 192.73662652352772 C267.02706662293883 190.87153579703747, 285.41401295313835 191.16264690997622, 307.06601421980804 192.19236060287562 M306.9999604382454 191.21241483514748 C308.37934033335864 203.63270105366414, 306.1938433836247 217.5110535882075, 308.61926962253506 240.24920773325348 M307.44412676413685 191.0055866034089 C307.0552959365299 212.76547379487164, 306.78957238617335 231.23301932483128, 307.09739664289685 242.37195647861668 M308.3901501755197 243.4839478476088 C285.15345006134737 242.90019756631068, 265.22754546607115 240.1527347503092, 246.67013013159178 240.60560322070566 M308.251842815029 241.11641601610532 C285.1078895325086 241.40700701255156, 262.55554532544227 242.14883321037405, 248.7150827252613 241.78063779148206 M248.17497975150914 243.5151957585439 C249.65924278767778 231.20581463550948, 246.84042537815967 217.27206131096995, 249.4980218421435 192.83231982536907 M248.54600029774025 241.6893896930249 C247.54054167911605 229.8458218180785, 246.94211632616128 215.87343194865366, 248.15822114202234 192.24517156159047" stroke="rgb(0, 0, 0)" stroke-width="1" fill="none"/><text x="278" y="222" class="id" aria-describedby="desc-14">id13<title id="desc-14">Object id</title></text></g><g><path d="M389.85696503726945 190.4248507937864 L447.00432762072035 193.75971206260934 L446.2890670939356 242.92411010197168 L389.29607223595673 243.68303990806908" stroke="none" stroke-width="0" fill="none"/><path d="M388.3445292216148 191.0875737909643 C410.7143983039475 192.78188213623605, 433.55515785603205 194.14995831270974, 446.07006070156103 191.31038458683838 M388.75798948537397 192.4207707287748 C409.7422848445837 193.4546247436477, 431.251148972096 192.17320612012307, 447.77171334873213 192.9202024398549 M448.08599311854766 190.81487347301837 C447.55126329902623 208.0386171520555, 448.7898180222085 220.48689049569117, 447.1306648743146 243.63431940995216 M448.53828838257454 192.03157883387223 C447.89866959834154 211.75289394878953, 448.1811148721194 230.6067303599086, 448.1180289407873 241.0884472847464 M446.69269003992196 240.12136119541466 C426.8879964418794 244.01025850525016, 405.71052332751117 242.54015536483467, 386.1514960058104 243.4330747978625 M448.86802768458296 241.18717604152118 C429.0921323157186 241.79098993152104, 411.73786696456443 241.78908404416185, 387.2387886962663 241.2820680577173 M387.9411806833094 241.83771067145813 C390.2539113209992 229.13877792274144, 389.9457579736678 215.48942994917402, 387.1081104093418 193.72308825595914 M387.07348283025175 242.62665997058943 C386.63837817573136 228.63284815739075, 387.0862393830757 214.18439443094306, 387.71250153186736 191.72630789173118" stroke="rgb(0, 0, 0)" stroke-width="1" fill="none"/><text x="418" y="222" class="type" aria-describedby="desc-15">int<title id="desc-15">Object type</title></text></g><text x="348" y="282" class="value" aria-describedby="desc-16">7<title id="desc-16">Value</title></text></g></svg>