<svg data-theme="dark" width="521.2" height="500" xmlns="http://www.w3.org/2000/svg"><title>Python memory model diagram showing stack frames and objects</title><style>
        :root {
        --fade-text-color: rgb(0, 0, 0);
        --hide-text-color: white;

        --highlight-value-text-color: rgb(27, 14, 139);
        --highlight-id-text-color: rgb(150, 100, 28);

        --highlight-box-fill: yellow;
        --highlight-box-line-color: rgb(0, 0, 0);

        --fade-box-fill: rgb(247, 247, 247);
        --fade-box-line-color: gray;

        --hide-box-fill: white;

        --primitive-value-color: rgb(27, 14, 139);
        --id-text-color: rgb(150, 100, 28);
        --default-font-size: 20px;

        --highlight-object-fill: rgba(255, 255, 0, 0.6);
    }

        text {
            font-family: Consolas, Courier;
            font-size: 20px;
        }
        text.default {
            fill: rgb(0, 0, 0);
            text-anchor: middle;
        }
        text.attribute {
            fill: rgb(27, 14, 139);
            text-anchor: start;
        }
        text.variable {
            fill: rgb(0, 0, 0);
            text-anchor: start;
        }
        text.id {
            cursor: auto;
            fill: rgb(150, 100, 28);
            text-anchor: middle;
        }
        text.type {
            fill: rgb(27, 14, 139);
            text-anchor: middle;
        }
        text.value {
            fill: rgb(27, 14, 139);
            text-anchor: middle;
        }
        path {
            stroke: rgb(0, 0, 0);
        }
        .highlighted path {
            fill: var(--highlight-object-fill) !important;
        }
    
        [data-theme="dark"] {
            --highlight-value-text-color: #110875;
            --highlight-id-text-color: #6e4409;

            --fade-text-color: #BBBBBB;
            --hide-text-color: #121212;

            --highlight-box-fill: #EDB926;
            --highlight-box-line-color: #FFFFFF;

            --fade-box-fill: #2C2C2C;
            --fade-box-line-color: #666666;

            --hide-box-fill: #121212;

            --highlight-object-fill: rgba(72, 207, 173, 0.3);
        }
        [data-theme="dark"] text.default,
        [data-theme="dark"] text.variable {
            fill: rgb(224, 224, 224);
        }
        [data-theme="dark"] text.attribute,
        [data-theme="dark"] text.type,
        [data-theme="dark"] text.value {
            fill: rgb(144, 164, 237);
        }
        [data-theme="dark"] text.id {
            fill: rgb(255, 183, 77);
        }
        [data-theme="dark"] path {
            stroke: rgb(204, 204, 204);
        }
</style><g role="graphics-object"><title>Stack frame for __main__</title><g id="object-0"><path d="M25.39620278224137 23.80632828461577 L221.7141158719734 23.80393704281078 L222.21327892575906 474.41049201146484 L23.69784699993265 475.9018467950802" stroke="none" stroke-width="0" fill="none"/><path d="M23.510209271967703 25.341020912672608 C104.21801029851406 25.80719841460148, 179.03936416291688 27.103997258242345, 221.7596471431278 25.791812447417733 M24.525892724757554 25.159010089238606 C92.34543971546599 25.282589886763354, 157.08201989486003 25.083330323839206, 223.89436953485625 25.286004362110706 M223.67903689975486 25.60605094613958 C224.33477647636795 129.22982665606753, 223.51676966328267 230.84831443766018, 222.14783229694055 474.78962646643805 M223.2619991830149 25.02003931559673 C223.28324605146832 198.20405302023556, 223.39285572204946 370.87484853256063, 223.25532773151784 474.805671837278 M222.9757266914451 473.7404672419261 C163.7761790114545 472.8924916503002, 106.1026665028788 474.29757252466044, 24.651296326907293 473.1614797795794 M222.18161433884217 474.2540016456328 C149.94631372359797 473.73395369654787, 78.9777955483501 474.2191489171788, 25.485343645795762 474.4591394090317 M24.402859741349676 475.4185102737508 C25.877478590719228 354.5312172572786, 26.65945363570584 232.22209073035143, 25.366733985864972 25.384782689470036 M24.915327478525153 474.8733976567257 C24.434992525412326 362.8506756279995, 24.383311347930903 250.80077494574726, 25.238266477590393 24.83118396342869" stroke="rgb(0, 0, 0)" stroke-width="1" fill="none"/></g><g><path d="M23.736134575500227 23.691250743612724 L132.00743187096958 23.6634258147194 L131.50699772405284 75.90171728227001 L26.690239410701672 74.34379864409662" stroke="none" stroke-width="0" fill="none"/><path d="M23.33560627487678 25.10338260789808 C65.43126008208385 22.907868515459153, 104.8169896076555 23.649581669883954, 131.23454126371595 25.80580093421826 M24.420709936705066 24.692259230290546 C58.86154098983157 24.817258993788297, 93.91347661991182 24.25435476240506, 131.9106765732808 25.489339382087365 M131.26852819503475 26.248777547011517 C132.83893947303554 36.5727291077613, 132.6960185729095 47.64890737555917, 132.50858429785887 73.89798187287742 M130.17726012322413 24.55315548929275 C131.6463642039637 44.64164956063839, 131.92949338132505 63.79528785936065, 130.06330901895942 74.27789704264508 M131.26957631951635 74.84259718237092 C104.86844218218937 74.61564451223424, 77.90638286578753 73.76722528895496, 23.0099215766976 74.5163342719013 M130.95804116096167 75.61561285394497 C106.25025050388571 75.35316130876117, 80.69820020419435 75.9197965848316, 24.931538742295615 74.37015818319597 M25.73255684476709 75.79764547174946 C23.40627307651949 55.04037294213412, 26.944525362526875 38.33900099158747, 26.959974954358987 24.162178439169622 M24.396470940051213 75.14810957035347 C25.151848248181416 60.24532665767693, 24.189688088723653 46.00959143323479, 25.671832919304425 25.76578123181848" stroke="rgb(0, 0, 0)" stroke-width="1" fill="none"/><text x="78" y="55" class="type" aria-label="stack frame name: __main__">__main__</text></g><text x="50" y="130" class="variable" aria-label="attribute name: lst1">lst1</text><g><path d="M149.02945275638808 100.34502825881108 L206.19757263981822 98.12719014765825 L206.9459014983077 148.75733781758865 L147.78010463176824 150.66543813611258" stroke="none" stroke-width="0" fill="none"/><path d="M146.2432815066501 99.10610618665638 C168.37902778721423 101.61306805047758, 186.6962023063951 98.69480345493098, 207.17683825919804 101.195975382615 M148.19946208976444 100.90868362952739 C167.86571295936727 100.4598236327282, 188.89887617483254 101.15082559106098, 205.56247094622023 100.83710014524645 M207.57110779259511 99.55227846998287 C205.9100608901948 113.68671392813002, 207.8259171672993 124.68882841975281, 207.95344072600767 150.73835572993707 M205.89543922392758 100.55031062242074 C205.93474017585453 110.19522182513147, 206.73489290909768 122.93021826338658, 205.2640963121428 149.14710400530598 M205.45729425647573 150.16033981405184 C191.75079693358802 148.26457630416013, 174.54134352686458 149.04416234884064, 146.88414090401193 149.45145570137893 M206.06107347630163 150.8769950825687 C190.5029633622234 149.20207738627917, 176.39853804099195 150.58637237355688, 148.04882728145284 149.45272433373052 M148.0189925863618 150.65747469649003 C148.15914790066043 137.11357001826536, 148.0592130320831 129.82914071239873, 147.2793842279959 101.82920946208613 M147.56705705345837 149.25676813269942 C148.72465551602596 135.09314339551193, 148.8809845203268 121.46431306494782, 148.60752532505452 100.78171318394966" stroke="rgb(0, 0, 0)" stroke-width="1" fill="none"/><text x="177" y="130" class="id" aria-label="attribute value: id82">id82</text></g><text x="50" y="205" class="variable" aria-label="attribute name: lst2">lst2</text><g><path d="M149.15271035279773 175.22605053684202 L206.73650880265117 175.25335964818404 L205.91065944240745 226.1339321787025 L147.88141431417284 223.770624402292" stroke="none" stroke-width="0" fill="none"/><path d="M147.97178389648437 176.52645589079418 C167.0590482622645 175.24644308569358, 187.34319305928597 175.45749891983246, 207.2162428772185 174.39619740879613 M148.19442342664675 174.0747354099854 C166.1170632552129 174.3497972202932, 182.58968061241583 174.52701545326826, 205.4452319497195 175.8725460833891 M205.476189284741 176.24041910426004 C204.79746968628857 189.74115791322217, 206.87323740619607 203.45752006625602, 206.91035081255433 226.32995095466853 M205.56151930445077 175.17928022161277 C205.85429231232993 190.38837048550636, 205.80725942953225 203.70958681255215, 205.34227229982093 224.2003698674906 M207.67120330903575 224.70450056619228 C196.05961812435902 224.1546422907496, 184.34490247041177 224.6247970812064, 147.7554139912321 225.34156017807828 M205.1455596085455 225.06103452096247 C191.6883584999171 225.35303828694714, 175.4210552763984 226.008248120716, 147.3089213233661 225.3469400663732 M148.95705206251012 224.76096634301456 C148.45197663046758 208.3698502927016, 145.7949030747037 187.13688946959505, 146.21342765156115 174.85120596790995 M148.60476435809895 225.17936780272495 C148.8247770486891 213.90333381404076, 147.51665282347216 202.83565285348584, 147.0764304573272 174.1440020894554" stroke="rgb(0, 0, 0)" stroke-width="1" fill="none"/><text x="177" y="205" class="id" aria-label="attribute value: id84">id84</text></g><text x="50" y="280" class="variable" aria-label="attribute name: p">p</text><g><path d="M147.1665719581162 250.71409696445164 L205.51445509486416 250.63426418189718 L206.182019360111 300.58765484146573 L147.10926266157298 300.2547471284614" stroke="none" stroke-width="0" fill="none"/><path d="M147.910532607354 249.0202850184905 C164.11977136001008 248.87900132296753, 179.03133110429823 248.80353085519954, 205.66472090066026 249.0614330489484 M148.83748856383133 249.21681692422246 C168.21880078035588 250.49551448883105, 188.36211342638296 249.84863899542108, 206.52749684411285 250.22101949834686 M207.6915854424928 249.11463728411334 C206.89600089622482 263.02909844834016, 206.3640002537047 278.21100740397776, 206.906500124666 298.14598507522965 M205.31680437989166 250.81858946600647 C206.29985021220995 266.818469055524, 205.3681118147375 283.3863818725748, 206.05996089253964 299.770736983698 M207.87072152930426 298.49537739079153 C190.15126338061262 299.4835640425703, 174.87874462679352 299.2873552464476, 147.55368542313687 298.96071588373775 M205.07310918416096 300.59010978282475 C189.71702481437796 299.09336931444386, 173.36949272914217 298.97285824500807, 147.7299613681938 299.04810366599685 M146.00109547649924 300.41001904715336 C148.8344427606641 285.4910490908077, 146.11562970800674 270.0702667604347, 147.18010784826393 248.47338510128375 M147.09196328401623 300.43434816965964 C148.09032355794832 281.5106775063418, 149.2422408178112 262.88379820112164, 148.95450135293282 249.05924182129007" stroke="rgb(0, 0, 0)" stroke-width="1" fill="none"/><text x="177" y="280" class="id" aria-label="attribute value: id99">id99</text></g><text x="50" y="355" class="variable" aria-label="attribute name: d">d</text><g><path d="M147.15132425960218 326.4596571760158 L206.4393048451281 323.7358576924234 L207.03704521312795 373.66232050796486 L147.4617947148215 374.1020980801369" stroke="none" stroke-width="0" fill="none"/><path d="M148.60620257467417 325.85843315109946 C172.53879097406346 326.25387072534915, 194.4589757994058 322.79455097269516, 205.15048789029754 324.5405388597274 M147.0446009194257 325.59628865761067 C171.0738498487025 324.7080832463712, 193.77568983832103 326.28151447046366, 206.92271650050355 324.0094959755518 M206.83807495657635 323.8782882333675 C204.5722494586091 335.676337222447, 204.5116632638252 347.6107350284804, 205.15638976603998 375.18528543525434 M206.11357889061895 325.71297810608667 C205.7206197046228 337.0594706370083, 206.2496521991914 349.6655355415397, 205.72460061272722 374.3504084702166 M207.97508265891443 373.1760704665491 C183.64039160316912 374.4054389224954, 163.2502095741925 375.0024171318346, 146.22512523671207 373.0660154999638 M205.34054823984698 375.5556435517448 C190.0428875067057 374.1310517550069, 176.5185139659177 373.8527116711189, 148.53403725773603 375.54731840904867 M148.27092376083374 373.8764176502753 C146.5040616204634 363.45603300273217, 146.97578748766858 349.4077676232288, 146.2965321687972 323.9699726163844 M148.4936196610067 374.0056385566785 C147.55430710454334 363.8645232166399, 147.86584434518284 351.10306594825124, 148.6514411220168 324.7778275485322" stroke="rgb(0, 0, 0)" stroke-width="1" fill="none"/><text x="177" y="355" class="id" aria-label="attribute value: id10">id10</text></g><text x="50" y="430" class="variable" aria-label="attribute name: t">t</text><g><path d="M147.7810467647543 400.25431654902644 L207.19090947053155 400.9093431947106 L207.34865790667493 451.53293445422185 L148.3738406368569 451.1329888057972" stroke="none" stroke-width="0" fill="none"/><path d="M146.2143644214791 399.9235278185781 C168.89047113869108 398.8436399293536, 193.27868125685072 398.6104796876018, 205.07899073544974 398.95276519162707 M148.67291709997653 400.8105276824084 C162.16934267448477 399.08710639441966, 176.63362206468724 398.8425038743774, 205.24899398079057 400.3558632683632 M204.55401455868233 401.73143528852273 C207.10790611321406 413.55599303112007, 204.69943870553283 425.70410146663545, 204.29342999085438 449.3565250437266 M205.15855930021638 399.2215242812447 C205.35158296261213 410.13195840770476, 206.41531737428986 422.63378965574924, 205.71743395689077 450.00590755595675 M205.4900390231867 451.05181815876045 C188.90554558000167 450.5006237073661, 175.09687306105698 451.2577206575004, 146.1775867874255 448.3681082363079 M205.45529116514305 449.57964742627524 C187.07154144099857 450.25027933722185, 168.45659607886023 451.4150357261441, 147.85836046730924 450.4841525865127 M148.18472760386607 449.82554302464627 C146.6918862237088 433.61015909443944, 148.44118840280717 413.145237504152, 149.3851515946288 400.4964710837395 M147.00888261144095 449.70972010087513 C148.49563720669028 436.0747104194801, 148.53542830347536 421.52801686709313, 147.35311490432966 400.157430208062" stroke="rgb(0, 0, 0)" stroke-width="1" fill="none"/><text x="177" y="430" class="id" aria-label="attribute value: id11">id11</text></g></g><g role="graphics-object"><title>Str id19 with value "David is cool!"</title><g id="object-1"><path d="M248.1673178513619 24.97199825909849 L484.08680730807765 24.81602911126732 L484.3957896829601 154.67292002917372 L248.1243603759347 154.84513149221812" stroke="none" stroke-width="0" fill="var(--highlight-box-fill)"/><path d="M247.8464749678766 25.075779678878288 C314.191987328142 25.160582394960894, 380.23260966657296 25.152481022692985, 483.99999019829437 24.680759259967587 M247.86489147372578 24.845401635638837 C329.74519429656874 24.820753102215818, 411.2975186765266 24.905628138867986, 484.0523997591885 24.871986292722468 M484.1779889954144 25.18492415925655 C483.97445434341853 54.79907655444745, 483.77307328313367 85.05702439023932, 484.0332824924621 154.7663788108748 M484.2044471449771 25.08944840193039 C484.2222720968548 65.04270803435419, 484.118504980648 104.95716042947141, 484.1544289226207 155.10605112415058 M483.9046234847864 154.81829644132384 C432.9269333624651 155.01080640286696, 381.7578767766452 154.85958026404614, 248.2578450293604 154.85570473343427 M484.3489025838557 155.13448903463137 C402.73680098536454 154.9609085973373, 321.00284284379137 155.0372792207392, 248.03400851496428 155.14352636900028 M248.25560827615993 155.39344584404049 C247.98001865093156 110.58240006096905, 248.15739863094296 65.49348473778578, 248.09353437823376 25.03715239084592 M248.12897714172973 155.09724329005087 C248.04888172084307 113.7478947109035, 248.10389417297375 72.09539142728433, 248.13330366481932 25.083784250209774" stroke="var(--highlight-box-line-color)" stroke-width="4" fill="none"/></g><g><path d="M242.44654164299897 19.993047822365487 L492.06643878447335 19.470446033216326 L492.11629151217613 162.66519763726615 L243.53540942528485 160.6518251325558" stroke="none" stroke-width="0" fill="none"/><path d="M241.71634350821788 20.500889204992944 C302.6873100388972 19.117610533781036, 362.14849019876533 20.39207360697797, 490.64583773240264 20.45271306037878 M242.3073787374261 19.40248833556137 C321.94757913748833 18.976025634860147, 403.0429373826647 18.784173225574094, 489.60221766699357 19.817369634300874 M488.3797479245607 18.409544072291574 C491.8725606345575 59.629075777336105, 490.31101219786666 98.2028847241615, 490.88026244977164 161.71311758381884 M489.71527494961765 18.338380112575916 C492.2932088875571 65.9833172645395, 490.93138240792985 110.68829996483971, 490.8151432367146 161.65158252218004 M490.61554297680436 162.21368545211016 C434.9697371626828 162.9176158054367, 378.1263034280914 161.5573227247136, 241.35215125071545 160.0692788708202 M490.51258828534503 161.73167597811863 C432.7595315521433 159.05545713657943, 374.4094966053652 159.62897379258774, 241.6114114884343 160.45603206788212 M240.17717825363496 162.12905552349207 C241.0001651033934 125.59426709004073, 242.2996225688505 88.51330411345657, 242.10592890592417 18.98478074865252 M242.8846107632903 161.6875652335897 C243.85462538661565 118.1015891378182, 242.98206351537314 74.5832955500682, 241.42665713435227 18.19604377357902" stroke="rgb(0, 0, 0)" stroke-width="1" fill="none"/></g><g><path d="M247.910468846565 24.88105740576411 L310.9370222633492 25.16048567348972 L310.50615856404573 74.89907548915137 L248.21258981015364 75.10838234168183" stroke="none" stroke-width="0" fill="none"/><path d="M247.76056938604847 24.6355876799109 C269.02493512333916 25.199798425871585, 290.44451176891585 24.552460789158612, 310.9929150504706 24.896915240465372 M248.05814607438734 24.967269155478036 C264.7839022359553 25.042156429201132, 281.77904102584097 24.93347676456576, 310.8235425762415 25.05226084342154 M310.98316482676677 24.96785655242865 C311.0337009838105 41.97293304500563, 311.158882439597 58.742685756171085, 310.7510243360203 75.00068708556172 M310.9613499645057 25.05144006156572 C310.7333299086574 40.18235532863562, 311.07706902322934 55.124261411314066, 310.8032513184233 74.93863824374499 M310.4076920921252 74.88974595613442 C295.4496436435828 75.09607070694095, 279.7531837896121 75.01723029063184, 248.00449851685812 74.94086089140451 M310.6626059465662 75.07059563647289 C296.169733882569 74.77580714868634, 281.931109116394 75.04719594668107, 247.87317766084732 74.9718014242276 M247.64332568909074 75.05225106665208 C248.05430922038857 58.39641340576776, 247.80695725340243 42.22904860113934, 248.1859748434184 24.663772937823502 M247.83215809522792 74.84085279218617 C247.95965873025776 55.45884391511586, 248.26775127549558 35.480186769605545, 247.81442301665243 25.091217462476777" stroke="var(--highlight-box-line-color)" stroke-width="4" fill="none"/><text x="279.4" y="55" style="font-weight:bolder; font-size:22px; fill:var(--highlight-id-text-color); " class="id" aria-label="id: id19">id19</text></g><g><path d="M424.1087906357265 24.85344310163019 L484.41809959039165 24.85655887379798 L484.1657624136088 75.30614393014302 L424.3368659254866 74.80687017740226" stroke="none" stroke-width="0" fill="none"/><path d="M423.9471030608136 24.646995968985003 C442.5862863393264 24.75560251667375, 461.283212081864 25.29110480348131, 483.8190702122303 24.927601683582044 M424.1216198734741 25.115790216247238 C436.59397273128957 25.05953293440359, 449.1452272492065 24.858077014127954, 484.38584776484544 25.11263285713795 M483.86066246091275 25.08855381976572 C484.5350861017339 40.140913950359334, 483.86186783117995 54.507434885188204, 484.1296346957671 74.84684694410502 M484.3672724876709 24.889662033788422 C484.15220512830604 39.11648880987058, 484.1739882433399 53.28282040055572, 484.23275939189 74.86883137681022 M484.29162145796073 74.63499122548103 C463.59566450475 74.63159609572692, 443.5580314815539 75.19115635950254, 424.276421320537 74.63664383321732 M484.1458157375179 74.92994662082259 C462.25875134515115 74.86714888912111, 440.091897405961 74.80345449641942, 424.0162037317314 74.80693822916528 M424.14919562120525 75.38383508791217 C424.64925716448545 62.20565697661574, 424.44171047245675 48.525617135389005, 424.2425756651962 24.65544725091708 M424.38054506279605 74.84746094722809 C424.24386722192975 60.73399852386609, 424.4234966401539 46.57105039756775, 424.2617960577236 25.091049244658777" stroke="var(--highlight-box-line-color)" stroke-width="4" fill="none"/><text x="454.2" y="55" style="font-weight:bolder; font-size:22px; fill:var(--highlight-value-text-color); " class="type" aria-label="type: str">str</text></g><text x="366.1" y="115" style="font-weight:bolder; font-size:22px; fill:var(--highlight-value-text-color); " class="value" aria-label="value: &quot;David is cool!&quot;">"David is cool!"</text></g><g role="graphics-object"><title>Int id13 with value 7</title><g id="object-2"><path d="M248.67594180063705 193.29370775599224 L447.5632248474678 193.58136812587696 L449.2474853078042 320.8559532689691 L246.13079545146104 322.038490170493" stroke="none" stroke-width="0" fill="none"/><path d="M247.26184746612827 193.03854927171182 C304.87502960754796 191.5722946399368, 359.92861650470525 192.23678443323993, 448.08998303710706 192.2084937646964 M248.32524161065092 192.7626539756243 C316.2199602389477 191.4738032667297, 385.2773486053765 192.03898854389112, 448.63714285627447 192.3263557295841 M446.5705245993964 192.88580505468346 C449.32369327585275 226.39888952110755, 448.5376449014348 266.3969408322323, 447.38192665445763 321.98616351844856 M447.05332386353666 191.19036226716753 C446.6713740904498 239.4124132936243, 448.0736171537759 287.8723156764343, 447.25249295861903 322.0661097661948 M449.2968965641771 323.70647023196557 C383.6373005252655 320.6390808150637, 322.36948940766337 323.90861004752725, 247.3662914095039 323.04353131233387 M447.1417727696922 322.22458064316453 C374.26621020966525 321.7703649811977, 300.5683724047571 321.3521935526223, 247.14194745057966 322.001435051203 M247.81285602613627 323.5501273114305 C245.20812216476452 270.42272166477295, 246.22336452677382 221.7720785152302, 249.0571668042661 192.1095479710732 M248.01703516364435 322.84183026484556 C249.44025936763913 276.0235625474143, 247.6550017895609 231.0461528071399, 248.36650835116504 192.4325136611169" stroke="rgb(0, 0, 0)" stroke-width="1" fill="none"/></g><g><path d="M240.02211364004597 187.73819523871597 L452.04698988298554 187.59597351049476 L452.695330041735 329.99236450558703 L241.1188419248928 328.0311537867514" stroke="none" stroke-width="0" fill="none"/><path d="M241.71211163387284 184.99733502054877 C297.09135218544515 184.12220795567166, 350.6868827920237 185.6170484198475, 455.23214837529974 185.07498255714228 M241.2742480148857 185.77267059264918 C294.3144063341393 186.9682626001746, 344.99505548513645 186.7535172531576, 454.60389179472304 185.7982872255085 M453.02707437255367 184.39529226612376 C453.79644180127707 215.57133007725238, 454.9136465251913 249.60598444621618, 452.71284085232594 329.9095155062984 M454.145263442933 185.70191274108564 C452.76921900064247 216.9325462969599, 452.3704754389275 247.53568436742265, 453.56702285754193 328.8452510287589 M453.46554198134453 326.49519681856316 C386.2395697563938 328.22393034800126, 318.87490683202986 326.20098346182397, 242.9298595933584 326.6376030894523 M453.84783118334406 327.34775092117883 C386.9615133178984 327.0764451534764, 321.74957034105284 325.85975060673604, 241.8439462273125 327.62786874024977 M241.21526121933593 327.79364780438243 C243.18608606640987 274.39235279229445, 243.34951653830674 223.2056874591876, 242.70345570801857 185.57235545413744 M241.09412717211214 327.83174426945465 C241.5130912454351 274.2209812403107, 240.43373109006546 220.6724323423828, 242.70448972687478 185.8857349129881" stroke="rgb(0, 0, 0)" stroke-width="1" fill="none"/></g><g><path d="M248.57071681011084 193.80456937629293 L308.88951632209825 192.09686842119092 L308.18475232468444 241.6037704558532 L246.6290749408391 243.60342343239395" stroke="none" stroke-width="0" fill="none"/><path d="M246.34542097131768 193.76678872090758 C272.69659276354867 192.56405323927976, 296.2239479150592 192.79759131972767, 306.2935185477403 192.96356157566677 M247.98315602007062 191.63970373734153 C262.3313272343919 190.61471778458954, 275.043545305538 191.27701442848053, 308.41103735002054 192.06685981878047 M309.7675739968529 191.52319529956887 C306.8133459865393 208.87686805572858, 306.6849689836288 223.68959209399338, 307.8772996467392 243.05216036710473 M307.0212292140057 191.8833748927402 C307.80369377468725 205.0784989625129, 307.1675465625051 220.3141175403791, 307.15268727285945 241.85968843604635 M309.709042378815 240.05128192366166 C284.2152009148458 242.51623478236058, 262.3964944366896 241.47177817891483, 249.67087447629692 243.94199295391795 M307.4145428021011 242.64444167948452 C294.3291165433975 241.86182744147385, 281.2497113493017 242.4426387683905, 247.63529192037197 241.60264768766376 M249.86117237979343 240.09916895709443 C246.5738770233723 228.17292408206137, 250.13842643926668 218.54751603403767, 248.4558667365349 192.31493027541353 M248.05058794993423 241.35771038852803 C247.46356804690927 229.41717492277692, 247.9146892695831 218.46638129048617, 247.6560583346933 191.1340795030013" stroke="rgb(0, 0, 0)" stroke-width="1" fill="none"/><text x="278" y="222" class="id" aria-label="id: id13">id13</text></g><g><path d="M387.38742153970566 192.69363604523508 L446.7620986782224 190.0509207842458 L449.7534035513211 242.65950601036218 L388.6108465140764 242.11056448937032" stroke="none" stroke-width="0" fill="none"/><path d="M389.6529535677606 193.96262556417156 C407.8777698596866 190.88179143466007, 423.8375116593426 194.20184185770978, 449.8005143651508 192.3373825863024 M387.25254330157725 191.6651002937414 C401.23068478801304 191.13522607761982, 413.6155889624358 191.7666570066993, 448.1612537686517 192.3963211439818 M447.6027628631688 193.80339614708979 C446.96781209522584 204.17529230057156, 446.0418512545415 220.44833660017386, 446.50610963675587 240.27848848228814 M448.5036853669261 192.59191194405165 C447.94047654126797 207.45877303982897, 449.30332688112264 224.66216252066098, 448.8981382586679 242.73256344898448 M449.62216244402265 240.01142360425484 C427.2429676831718 242.86760290009224, 403.77202231061034 241.95849043687014, 389.49690968895356 241.15907945893227 M447.91320111924233 242.71243998122787 C427.39236345269774 241.2983989138039, 408.80584724098014 242.8387313679659, 387.38776955877944 241.34065983559242 M386.9658669045655 241.06423611769998 C390.05921166556675 223.62779385689902, 386.63769600138977 203.79509774813047, 388.2055483548257 193.7140602014079 M388.8519589311597 241.43599933978436 C388.76577551939823 224.05432478250393, 387.8824378341273 205.62306800359593, 387.6176362140746 192.59853567000803" stroke="rgb(0, 0, 0)" stroke-width="1" fill="none"/><text x="418" y="222" class="type" aria-label="type: int">int</text></g><text x="348" y="282" class="value" aria-label="value: 7">7</text></g></svg>