<svg width="1300" height="275" xmlns="http://www.w3.org/2000/svg"><title>Python memory model diagram showing stack frames and objects</title><style>
        :root {
        --fade-text-color: rgb(0, 0, 0);
        --hide-text-color: white;

        --highlight-value-text-color: rgb(27, 14, 139);
        --highlight-id-text-color: rgb(150, 100, 28);

        --highlight-box-fill: yellow;
        --highlight-box-line-color: rgb(0, 0, 0);

        --fade-box-fill: rgb(247, 247, 247);
        --fade-box-line-color: gray;

        --hide-box-fill: white;

        --primitive-value-color: rgb(27, 14, 139);
        --id-text-color: rgb(150, 100, 28);
        --default-font-size: 20px;

        --highlight-object-fill: rgba(255, 255, 0, 0.6);
    }

        text {
            font-family: Consolas, Courier;
            font-size: 20px;
        }
        text.default {
            fill: rgb(0, 0, 0);
            text-anchor: middle;
        }
        text.attribute {
            fill: rgb(27, 14, 139);
            text-anchor: start;
        }
        text.variable {
            fill: rgb(0, 0, 0);
            text-anchor: start;
        }
        text.id {
            cursor: auto;
            fill: rgb(150, 100, 28);
            text-anchor: middle;
        }
        text.type {
            fill: rgb(27, 14, 139);
            text-anchor: middle;
        }
        text.value {
            fill: rgb(27, 14, 139);
            text-anchor: middle;
        }
        path {
            stroke: rgb(0, 0, 0);
        }
        .highlighted path {
            fill: var(--highlight-object-fill) !important;
        }
    </style><g><title>Group of 1 stack frames</title><g role="graphics-object"><title>Stack frame for __main__</title><g id="object-0"><path d="M26.905259977871697 23.494120682598616 L192.3057046940135 26.872527710803254 L192.85270825555938 250.87881027438442 L24.509368028884296 251.64075813003964" stroke="none" stroke-width="0" fill="none"/><path d="M26.053499568952592 24.352710011580875 C74.07139076432888 26.12214843983924, 126.22609322251071 25.45788916767139, 192.25778794184887 26.332458140738936 M25.332413668748913 24.350304680606968 C72.11220821270955 23.6175354535988, 120.01260372752512 24.746180455201277, 190.31111045418638 24.788851663158226 M192.60011626694524 26.506553147323302 C191.5822240136294 80.69329538127975, 192.3792103248702 136.0194609172591, 191.10687927838916 251.50664008402703 M190.98072645120254 24.558127198236654 C190.77044310871415 94.7181261384542, 191.40153616893497 162.10972968691487, 190.85112024820538 249.3840894195492 M191.6889581000727 249.46595362629722 C146.83529969947898 249.21424341317802, 106.83444578908485 247.9422815598806, 25.123662108041 251.83514660757237 M190.22999817145603 250.765701422593 C154.9871303222311 250.834955377453, 120.79897193121452 249.48732607092944, 24.499867720000935 249.7727766506418 M23.456355562965307 251.19834821471244 C23.374861218813685 205.02405671465047, 24.369907048829653 157.80040428204984, 24.193180140502562 24.91035418087759 M24.42969937333433 250.01044196677623 C25.63592206286701 203.03454647077834, 25.486785320112936 156.5302232967198, 25.80435464320345 25.509232847603588" stroke="rgb(0, 0, 0)" stroke-width="1" fill="none"/></g><g><path d="M26.66913526033317 24.77347990266946 L129.93398410190656 24.03462745331966 L132.5213568670217 74.55909574150311 L24.96700286765412 74.74159404889495" stroke="none" stroke-width="0" fill="none"/><path d="M24.932279645224277 24.864411986874952 C57.02776217885392 26.328033329060197, 84.36145857587799 24.967982472071057, 129.38635264319586 23.270656774653485 M24.1562936389714 24.855094694384693 C53.366081353248155 25.82247762164697, 80.0051065901018 24.880026555733483, 130.15094966697995 24.44872033062664 M132.75144123137918 23.43405195063097 C129.5043444856321 42.685839259906146, 131.9661100536028 64.43165268262932, 132.93137531043604 75.63641588341818 M131.09308090445046 25.45142300034517 C130.13375035386517 38.02047409911236, 131.5497085031639 50.74915966141977, 131.12358632867432 74.04997072444819 M131.81788296145106 76.44608527958381 C104.00090390274784 74.59761454494857, 76.9948073821094 76.26126853369398, 26.750759210351735 74.45153761941853 M131.00998490358205 75.56850833043852 C105.82042369763641 74.95598660293909, 80.84422060323556 74.99892895242247, 25.51910650991174 74.48732841853493 M23.081729384610576 73.34053095552062 C23.92453888825558 57.398772736430764, 25.210414722141557 38.5342123090856, 26.837262207277462 23.625259718473114 M25.432597885829097 75.36628048475119 C24.433540984653213 56.39647732126449, 24.734858153811814 37.0412288342884, 25.53287537021174 24.93412401300894" stroke="rgb(0, 0, 0)" stroke-width="1" fill="none"/><text x="78" y="55" class="type" aria-describedby="desc-0">__main__<title id="desc-0">Function name</title></text></g><text x="50" y="130" class="variable" aria-describedby="desc-1">s<title id="desc-1">Parameter name</title></text><g><path d="M114.77926997434608 100.96150227061416 L173.59425016188993 100.06307905825362 L173.72063281410297 149.259117950705 L115.0970346792489 151.14907592379896" stroke="none" stroke-width="0" fill="none"/><path d="M115.92437459024495 99.13689150432369 C138.79908834333543 99.3063662393584, 159.05152938824767 99.16903309886101, 173.27939321704824 98.76456459210218 M115.11912091879276 99.71725249569926 C137.2352462974984 100.95964900229711, 156.35710833832385 99.44014553888066, 174.46185485493453 99.751875395159 M175.45330774615437 101.15314640845858 C173.37506510413104 115.8292499418736, 174.4842125459551 128.44457703743956, 174.74929301958355 148.47293843924547 M174.03664944937088 99.98058535741198 C174.30236411375967 117.98122920983796, 174.04624937810758 136.60232522540954, 173.74248921498184 150.1104811345031 M173.53304513001825 151.5150105602484 C153.66124432704856 150.0686215420072, 133.82628165761622 150.98119013612393, 116.31871850343586 151.64694208535414 M173.45153014115755 150.44291249670513 C152.65888898844503 149.29745600780888, 132.51360929556296 149.82887638900422, 116.4322167830783 150.85382246313966 M116.11728621435397 151.76930400108432 C115.03925191436178 133.59437815043688, 114.53186390118445 119.75956285171472, 117.06404287331704 98.9952972906203 M116.66158495308949 150.15809164884803 C116.46000994981658 137.24383525894584, 115.00354514135437 124.42325352896161, 115.50540446795866 100.78700401537004" stroke="rgb(0, 0, 0)" stroke-width="1" fill="none"/><text x="145" y="130" class="id" aria-describedby="desc-2">id19<title id="desc-2">Parameter value</title></text></g><text x="50" y="205" class="variable" aria-describedby="desc-3">x<title id="desc-3">Parameter name</title></text><g><path d="M117.38116979213747 175.73505245498285 L173.7381620859977 174.0202333955018 L174.3781364975073 225.13615861871483 L116.0115464035813 225.54550155044504" stroke="none" stroke-width="0" fill="none"/><path d="M114.18065955424395 173.55168569201416 C133.8768462887386 174.45722890768954, 153.25749334083784 174.5186493608747, 172.84863552312953 173.69954461954845 M116.72054901100248 175.8476438556327 C139.33559996964473 176.10254645118258, 162.59001615929412 174.35407003721983, 174.74407700714653 174.32022117723523 M174.36073993258307 175.23160592066196 C173.40384484082094 188.36980185411346, 173.3299867435499 198.25879985957127, 175.51430785070727 223.40227227473622 M174.4191106552264 175.54766874093787 C174.85381307871208 190.97557454535425, 173.8114483799285 206.829208095653, 174.440030426647 224.3198934002783 M174.6525946052178 226.70264486505226 C153.72704510202868 226.49202072440931, 131.09582544935756 223.03397754093808, 117.10593068150374 226.4870105200392 M173.9646686371939 224.53518214528188 C159.7199057480772 224.78544770887964, 146.96117616869213 225.65626621048298, 116.27924952272775 225.2740344397681 M114.07779289105645 223.82289656097853 C114.65500470488045 212.00651442105757, 114.69820562609125 196.95319596184342, 114.18660876214574 174.43252496486818 M116.55111606519691 225.099481520793 C115.34758306762572 208.82116253149297, 116.92264390546481 192.7135832115312, 116.8377187239018 175.614802559945" stroke="rgb(0, 0, 0)" stroke-width="1" fill="none"/><text x="145" y="205" class="id" aria-describedby="desc-4">id13<title id="desc-4">Parameter value</title></text></g></g></g><g><title>Group of 2 objects</title><g role="graphics-object"><title>Str id19 with value "David is cool!"</title><g id="object-1"><path d="M216.09008939133236 24.710418843837452 L452.5584909726725 24.770483103184276 L452.30587696055227 155.24302609959915 L215.86764194723335 154.76507441278537" stroke="none" stroke-width="0" fill="var(--highlight-box-fill)"/><path d="M216.22854369703532 24.821415495758696 C308.16303399709545 25.066016003880357, 400.8542979996543 24.525823015600945, 452.3958710551404 25.054414337158647 M216.092623696675 25.00981008544208 C304.92309888041683 25.14681856367032, 393.8297655760149 25.103569084123045, 452.13840240504067 25.152167758541218 M451.84469915758615 24.705953651120275 C451.59805619152786 58.79321612935073, 451.817348278659 93.35850309574882, 451.8849313595127 154.6138720090177 M452.31174035806083 25.11310167909155 C452.50911731621 55.594888332775305, 452.32761491178184 86.4995294950815, 452.10976222021264 154.99626844223522 M452.36487065642245 154.85012441214477 C401.5169267070462 154.77298167838228, 351.28582168441704 155.36398113266313, 216.03558433335402 155.04464480145552 M452.11009221549244 155.08226849236232 C384.3267620404767 154.8028207581287, 316.3009922750366 154.77334114292975, 216.0769818555013 154.87266505735084 M216.02555936371007 154.9986928952707 C216.21870657184934 110.70443113227005, 215.85186914398096 65.57173091555464, 215.90681861344052 24.886339672620455 M216.10137432033113 155.15077742160702 C215.6986209621387 122.82901993385158, 215.86567905733915 90.93461053294983, 216.15281089987207 25.10228716951433" stroke="var(--highlight-box-line-color)" stroke-width="4" fill="none"/></g><g><path d="M208.25196968594602 17.69844111201537 L458.85820578988546 20.350687654475244 L457.6305716303635 159.32361535967758 L208.49242082374678 160.0333200862233" stroke="none" stroke-width="0" fill="none"/><path d="M210.7339129795223 19.909147385958878 C290.28363581698943 20.338239916418406, 374.5169682556706 18.730617909416885, 459.0296524432266 19.490034810085152 M209.92571904963228 18.76193369990466 C296.03940067528674 19.47849651216695, 381.0634509370956 18.662426425654775, 457.53656470086594 18.640331732976748 M459.1897124043077 18.979515132433892 C456.2582987439144 56.75884602121711, 456.06835857818606 95.43886497498076, 456.46790373077846 162.92494684518968 M457.4827620323828 18.544110021159447 C457.53297088540484 48.167325046288575, 458.0891400586014 76.67973920540099, 459.06524272320456 161.46862025057735 M457.1743923594705 159.4845407817424 C399.2009131534712 162.8546752255903, 337.05560181094273 161.63127293000173, 211.04198287625573 160.74153086180752 M458.48421119283944 160.8443420179211 C399.18794558663916 162.08238403159703, 341.48618712345825 161.07053299213533, 210.1553492219479 161.6121415149612 M211.9951580705298 162.08803261662027 C210.85163408225046 128.3963032423613, 209.82524826587704 96.03025946497421, 211.60755816118922 17.633408713185098 M209.9810834606574 160.16881548232774 C211.81221245468197 120.66046107029068, 211.8085568947764 81.15724326884987, 210.46427043684298 18.1277524806588" stroke="rgb(0, 0, 0)" stroke-width="1" fill="none"/></g><g><path d="M216.20415387415485 24.903064491428832 L278.9232481982085 25.276853000787167 L278.8072448721955 74.88506126478119 L216.32949134708437 74.99740970637106" stroke="none" stroke-width="0" fill="none"/><path d="M215.99198725414846 25.208142352500627 C233.57176698171438 25.11301305270664, 251.36057360742092 24.782364571012724, 278.70746931469574 25.052551153560298 M216.1206601592557 25.03277249833821 C232.14159869731122 24.92364294361785, 248.30800744507718 24.867940133700124, 278.9915811679347 25.06028205631246 M279.0647338192558 24.892399802168796 C279.0654598832306 39.40682921470864, 278.51984812728966 53.71789961370021, 278.57384354000294 75.27803862156468 M278.97065351671256 25.00630411756324 C278.82375482779054 41.41013641015726, 278.77261101781284 57.6238274922031, 278.7649532444364 74.84640708389527 M278.9986975413081 74.98403537608158 C266.04947081298405 74.69209929083807, 253.69840238221028 74.7835358131486, 216.02118644920853 74.77441701283213 M278.92808793658213 74.99557555844784 C262.73704013912345 75.0434859178324, 246.90177662692656 74.70824261952953, 216.07613718856084 75.13752342861784 M216.21104035417665 75.22391663746936 C215.88125794435882 58.85898809063186, 216.22502714750576 42.68046285252077, 215.74289995548375 24.961097663153094 M216.0782793401202 74.90143146103956 C215.96341412965 62.11672051498299, 215.888129058688 49.45990967130149, 215.9538491649968 24.85648011870503" stroke="var(--highlight-box-line-color)" stroke-width="4" fill="none"/><text x="247.4" y="55" style="font-weight:bolder; font-size:22px; fill:var(--highlight-id-text-color); " class="id" aria-describedby="desc-5">id19<title id="desc-5">Object id</title></text></g><g><path d="M392.307777496315 24.708107633897704 L452.25012245809086 25.055204595334548 L452.3403091122488 75.32690513946625 L391.8998575551646 74.79324853820556" stroke="none" stroke-width="0" fill="none"/><path d="M392.32626686778036 24.82046932820998 C405.9220929018041 25.168422346134545, 419.8880965046478 25.17119890961477, 452.5113388552229 24.710503434716298 M392.2813614498933 24.9793707483135 C409.3824738846083 24.88959991864666, 427.1040291473734 24.926086874739603, 452.0334274525109 25.19385101558612 M452.1382720683329 24.913077939614123 C452.39651884776555 40.6894647120504, 452.47034862376773 56.1703338835528, 452.59424882608823 74.89393295167592 M452.1750406519551 24.835605057369147 C452.1482030320312 40.05634554955172, 452.3351251661633 55.23596544191263, 452.1368282370111 74.9752750320319 M452.5905235581462 75.22715147902687 C428.3077229959204 75.43418462197322, 404.99332927908563 75.04666448673164, 391.97716861694414 75.29388642908611 M452.29395373868635 75.08423511614033 C433.84572668333595 74.94540546942928, 415.2265125518696 74.94600459084315, 392.0591650474131 75.09617008962775 M391.9467055549346 74.85622947826424 C392.26386064971706 58.604832357091986, 392.3215178742019 42.12310887671747, 392.4164525658064 25.01543880511346 M392.1859064953109 74.96246021275758 C392.24599816318363 58.088476277667695, 392.4087986180621 40.98481932444118, 392.1549603173999 24.882638058201977" stroke="var(--highlight-box-line-color)" stroke-width="4" fill="none"/><text x="422.2" y="55" style="font-weight:bolder; font-size:22px; fill:var(--highlight-value-text-color); " class="type" aria-describedby="desc-6">str<title id="desc-6">Object type</title></text></g><text x="334.1" y="115" style="font-weight:bolder; font-size:22px; fill:var(--highlight-value-text-color); " class="value" aria-describedby="desc-7">"David is cool!"<title id="desc-7">Value</title></text></g><g role="graphics-object"><title>Int id13 with value 7</title><g id="object-2"><path d="M488.34492297276716 26.199073310129023 L688.3152323533626 24.171242596752908 L689.6532225442512 156.10073712752032 L489.7944986296785 154.00179010701953" stroke="none" stroke-width="0" fill="none"/><path d="M488.4603960643858 24.42516446209118 C530.7560757997275 25.432635912410458, 573.7507974860717 23.55090144167033, 688.0937511276746 25.22936030313523 M489.52421085698074 24.321629004996158 C542.4938333241377 26.11864772600092, 595.343372118674 27.363501051160057, 688.7482927811949 25.34291123870173 M690.9158396354006 24.883488901510965 C687.160613573668 74.96849419726774, 689.3852011807251 125.54922929795428, 690.4244968267994 155.80858128488515 M688.7898966734967 24.86375677930726 C688.9395550190378 58.50222770947377, 687.1675470276645 92.27777258287729, 689.0767056567672 155.41345566122823 M689.0710081350713 155.29727586629474 C624.035257614619 152.2384084325179, 560.0588500677839 154.47387451343815, 487.8699859010241 154.17819269991182 M689.419618137161 154.89214077864216 C627.5956635126581 156.1653087302683, 567.0163417264165 156.56977536596216, 489.8312948264359 154.14909643281953 M489.7485787157622 153.83276803569626 C488.425948973638 103.61380113881133, 486.391020675441 51.41154552381181, 488.8497439996597 26.766511961111828 M489.2079837820099 154.6993881639471 C487.90928700238646 105.94539477752782, 488.587983689034 57.452873315394626, 489.5877750305268 24.940787379225917" stroke="rgb(0, 0, 0)" stroke-width="1" fill="none"/></g><g><path d="M484.90438498984906 19.590540372643915 L695.4865018146833 19.92685678005292 L696.4950267715367 162.99728278515542 L483.19052301484606 161.89362393603835" stroke="none" stroke-width="0" fill="none"/><path d="M483.32882549524237 20.070194003527185 C561.5238890023512 18.85947723696451, 641.0309462036304 18.1471661970206, 693.8574071272134 18.647429367744053 M483.02952035474993 18.121860745206458 C536.7793401053058 18.14399975772002, 590.8028818939349 17.516721924333247, 695.2094381298383 19.400139542745105 M697.1412436940859 17.62152408777449 C693.4968465494395 57.27531948844075, 695.3611286525606 98.35424051263064, 696.103441424418 162.73818143658596 M695.5463826072955 19.135910342418292 C693.9270869971216 70.89721697546014, 694.9757972858624 122.60428055219731, 694.6832880893664 161.8707933610109 M695.4119337554808 162.16397082456527 C626.5619257440469 160.95235351787963, 560.6931545838194 163.2361417646078, 484.45819394354197 161.17139779011455 M695.384724098522 161.02052979468547 C643.5193346449477 160.89306082915598, 589.6932389725615 159.82253010920164, 482.39401902295 161.4931665422203 M482.233903958042 160.90367918499257 C486.0537515222831 109.14524192884213, 485.15469825567016 59.88962051369497, 482.7813204347534 17.83566607189387 M482.43434514584055 161.25212263173415 C482.43003833340265 105.52140326337104, 483.4296354815901 48.031683980095615, 482.53014152353285 19.286645536823986" stroke="rgb(0, 0, 0)" stroke-width="1" fill="none"/></g><g><path d="M487.7591344640251 26.984990073267088 L549.7570919502481 26.365129254664634 L550.0337339193312 75.9519280771051 L487.3287956266438 75.01090822439214" stroke="none" stroke-width="0" fill="none"/><path d="M488.9773692681066 25.78820931218466 C512.0311153901255 25.269137661771754, 537.2495900167722 24.46897255956862, 549.8985070647012 26.57692293514984 M489.97937018611736 25.714035933966194 C504.8442241933019 24.205490267206454, 521.2690744156129 24.045901876659094, 548.2109760359399 24.862741051943814 M547.4887527312936 25.63835089921767 C546.8849077100433 38.54217770190114, 550.374275383359 49.470732306131396, 550.221357047008 76.61188363685025 M548.6005745849417 25.732742054632553 C550.1304046114633 37.1047891662087, 549.346374852309 49.960681321688604, 548.7241129248011 75.14357257165867 M547.5946051138413 75.63490352077561 C534.6096423892296 76.60381628203403, 519.9694502574573 73.80514175307756, 487.41248051382064 76.39517493204112 M548.875681206267 74.44215607146185 C524.7881268144226 74.2219503463182, 503.00173165300157 75.28391656225585, 489.87747171577433 74.53684573405022 M488.80869763608735 75.0454894145332 C489.53004150326404 58.25117618255556, 489.9667425702684 40.22889436926223, 488.5304085230028 23.838278325366716 M489.3654921458761 74.6079247826631 C489.71194643775993 60.43401900903722, 489.71261834146094 44.60579015570726, 490.04649407203254 24.454617475761335" stroke="rgb(0, 0, 0)" stroke-width="1" fill="none"/><text x="519.2" y="55" class="id" aria-describedby="desc-8">id13<title id="desc-8">Object id</title></text></g><g><path d="M630.0243241378643 25.457418496317974 L687.5347712697802 23.353000459708465 L690.6791454622845 74.58063300900307 L627.7442736620789 75.62008899511319" stroke="none" stroke-width="0" fill="none"/><path d="M628.9567929872183 24.809017323083808 C642.1743172366281 26.99635932153828, 653.3135665973705 27.18651398870687, 687.4965829751947 25.560963773006296 M629.1102268014761 24.06039507125798 C648.6972115810214 25.22886220707208, 667.1181365561762 26.20577692865425, 688.5476551408033 24.430797557876065 M688.6872338090407 25.148279816145518 C689.1799937938696 39.009579773415965, 688.0576043407184 57.32943755185009, 691.1077739992365 74.02300462501574 M689.3053332932325 24.81640851375188 C689.461434657258 36.18474675312253, 689.4861384266002 46.86898188800487, 688.8758486262684 74.92318739078681 M689.4775265838657 76.14687250742914 C675.8438606676951 74.6796096590065, 661.9335997840474 75.92078533938351, 630.7374134811439 75.00030413774942 M689.6162520861919 75.80014443484232 C672.2752400321007 74.87834495620096, 655.5635587977017 74.92904176762998, 630.1462468142711 75.48015852748902 M628.1121236406667 74.9243100454553 C631.3427996299725 61.9867146550376, 628.4629935291482 49.57535724371285, 628.0317477268474 26.2314174648754 M629.1315032801155 75.55845856273498 C629.710799908119 59.207628677897155, 629.5748908992067 42.87612709006929, 629.2284171496625 24.412568992960367" stroke="rgb(0, 0, 0)" stroke-width="1" fill="none"/><text x="659.2" y="55" class="type" aria-describedby="desc-9">int<title id="desc-9">Object type</title></text></g><text x="589.2" y="115" class="value" aria-describedby="desc-10">7<title id="desc-10">Value</title></text></g></g></svg>