<svg width="287" height="217" xmlns="http://www.w3.org/2000/svg"><title>Python memory model diagram showing objects</title><style>
        :root {
        --fade-text-color: rgb(0, 0, 0);
        --hide-text-color: white;

        --highlight-value-text-color: rgb(27, 14, 139);
        --highlight-id-text-color: rgb(150, 100, 28);

        --highlight-box-fill: yellow;
        --highlight-box-line-color: rgb(0, 0, 0);

        --fade-box-fill: rgb(247, 247, 247);
        --fade-box-line-color: gray;

        --hide-box-fill: white;

        --primitive-value-color: rgb(27, 14, 139);
        --id-text-color: rgb(150, 100, 28);
        --default-font-size: 20px;

        --highlight-object-fill: rgba(255, 255, 0, 0.6);
    }

        text {
            font-family: Consolas, Courier;
            font-size: 20px;
        }
        text.default {
            fill: rgb(0, 0, 0);
            text-anchor: middle;
        }
        text.attribute {
            fill: rgb(27, 14, 139);
            text-anchor: start;
        }
        text.variable {
            fill: rgb(0, 0, 0);
            text-anchor: start;
        }
        text.id {
            cursor: auto;
            fill: rgb(150, 100, 28);
            text-anchor: middle;
        }
        text.type {
            fill: rgb(27, 14, 139);
            text-anchor: middle;
        }
        text.value {
            fill: rgb(27, 14, 139);
            text-anchor: middle;
        }
        path {
            stroke: rgb(0, 0, 0);
        }
        .highlighted path {
            fill: var(--highlight-object-fill) !important;
        }
    </style><g role="graphics-object"><title>Bool id32 with value true</title><g id="object-0"><path d="M48.40156220313972 24.02027330982715 L248.33938136189934 23.305822028596367 L251.5361813986252 153.25313228730704 L51.576751750969464 156.49439295287112" stroke="none" stroke-width="0" fill="none"/><path d="M49.59657504306974 24.865631555335835 C91.87885876486493 25.191343933325534, 132.3957229866687 22.433294642617373, 250.4811844381653 26.08410481479269 M50.68185560264018 24.270833751824505 C128.01507289062462 26.924627052417545, 207.15143707737712 26.732531575428823, 249.96380290342262 25.46149473728128 M248.80304377711917 25.859970250054026 C247.5713353584936 74.65682786053576, 249.1642432925968 120.36214775239108, 248.0090118627595 155.8879799587136 M250.52399340259007 25.252859155090256 C248.95760978702032 55.21328449648691, 248.24803033388898 85.25213321773313, 249.55175836307893 154.30335956843174 M250.32493527516868 154.55167133488771 C194.1859810185637 156.57295303666282, 135.76784653419398 156.19323420477588, 50.02100485883999 156.23894082609172 M250.16199959411463 154.75845749450667 C179.52823217446624 153.18285011564373, 109.90581768974553 154.4890384226555, 50.45634005337222 155.11860762062412 M49.34471704298137 155.54323524779116 C51.307646610484014 107.56168027098182, 49.63423557026087 57.22777181843021, 51.89497194629223 25.40068955768098 M49.99766018677642 154.55537943913973 C50.482645394064846 104.33869586796045, 51.20150733018381 55.11450569282615, 50.10263104577829 24.86453779979532" stroke="rgb(0, 0, 0)" stroke-width="1" fill="none"/></g><g><path d="M45.985137385689875 19.039025249733967 L256.2257389780253 17.358733704259812 L256.27665759846747 162.2285090868689 L42.52339720414874 162.42921791336664" stroke="none" stroke-width="0" fill="none"/><path d="M43.82468170412425 19.61016760058965 C120.25326026370581 19.581577822751832, 197.70169298858085 18.67136086099291, 255.06379523818595 18.97461822691048 M43.34801088535625 19.444727386125496 C88.61013728619326 18.765673806783035, 133.91627191932687 19.2133646917629, 255.41759514456066 19.365788791629132 M255.54107667720666 17.59454334281951 C256.5181764157559 54.703561842310904, 256.14282366148893 93.59567279591454, 254.95136915742958 160.73869837876842 M256.76898946067104 19.88531110265874 C255.93467291069476 64.24634156316327, 256.70166046801455 106.76228357161601, 255.98906367121705 160.40494450144467 M255.2907103612876 159.59470712102876 C193.71149689830335 159.601465462953, 134.33191911066015 160.13992205192562, 43.25024341544786 159.6067190834798 M256.77881054939445 160.26472877753295 C174.48390977878003 160.90211198093587, 91.74272305319829 161.53720042218123, 43.451353198922774 160.41352236191767 M45.457482422397966 159.34888640113903 C44.726364548083296 127.42655088350044, 43.19212685018564 88.92288180824968, 42.04260802631636 18.43483412756086 M43.29014033472628 161.84011479332048 C41.65807419765906 124.0892142153928, 43.515070213791624 87.95708147522726, 44.41914251845865 19.21952112603802" stroke="rgb(0, 0, 0)" stroke-width="1" fill="none"/></g><g><path d="M49.881822892684255 25.514898619215835 L109.14384439901197 26.66054249466488 L110.7470159767956 76.08749890339823 L51.75426273434582 75.28004819934789" stroke="none" stroke-width="0" fill="none"/><path d="M51.893586845564805 26.272257132727795 C68.77442914585433 25.840170476275386, 83.99230073249302 26.5373490845281, 108.38149064988994 25.494065975029336 M50.914377366074575 25.788131170895483 C70.46476454528644 24.054895041628065, 92.52602574027752 24.259915913240363, 110.47552134829905 24.570875357967772 M110.98683522810595 24.084943132180715 C110.95707492388767 45.00650627394253, 111.18846620557441 65.74963513582662, 109.74759263666867 73.19709238131837 M109.72799482520038 24.17339965435849 C110.397174848041 37.602213485307374, 109.54922185690762 50.87367259201076, 110.60174234390338 75.03501332879182 M110.93815715587411 76.66439365157454 C94.19294446721335 75.37754787432463, 80.21899498789415 72.86185434479589, 51.78811016276036 74.68327359600593 M110.57606960933721 74.521347354144 C95.40451914542693 74.89543488715786, 80.2974193249846 75.85818253850039, 49.22030492195109 75.65920648151089 M49.04990042807685 74.00296459491408 C49.7430275020225 57.60195061424279, 48.28837289256558 34.61046652842251, 48.88079457800321 23.879123698442054 M50.094445337640444 74.79721527206847 C50.686126800850765 58.781737134594266, 50.274292810190374 42.933184352406, 50.36826849850118 24.904873621064375" stroke="rgb(0, 0, 0)" stroke-width="1" fill="none"/><text x="80" y="55" class="id" aria-describedby="desc-0">id32<title id="desc-0">Object id: id32</title></text></g><g><path d="M188.03955720250744 23.45805281141973 L248.70606050437124 26.880697623345597 L248.00981418379436 73.33797546729731 L189.5782544315133 75.64916508115627" stroke="none" stroke-width="0" fill="none"/><path d="M190.0161237053402 25.36450282577435 C202.6052649955059 25.067012097753224, 215.04507686857346 22.74017675141642, 251.1165678306629 24.037099611535822 M189.99798832803486 24.45851069136313 C207.87176579007814 25.802092493521457, 228.38932275088888 24.682069830480398, 249.64776775849577 24.074399245585816 M248.01168017428532 24.575280353998995 C249.54223048269893 41.432534388316995, 250.19924083928328 57.71377436722295, 249.70007301970392 76.70126768749563 M249.29905833416638 25.116592590783917 C251.2101250450015 37.13660212777503, 250.98543283104115 48.322064507745885, 249.22205309083404 74.68033711371021 M248.73685740658917 76.9749221119329 C236.39046174876108 75.31122339562387, 224.2673645075241 73.45505034051854, 189.65260216438443 75.07993110334071 M250.92202073781777 75.37548793462206 C228.78127676746118 76.26210662504403, 206.80983216582058 75.74379941219973, 189.01726136645354 75.25038244081581 M189.91965221711527 74.54709918077258 C190.4978864992622 65.21732723781513, 189.585269072599 50.18105881657631, 189.49994334394287 26.57983475598882 M189.24198399071162 75.71962986251224 C190.41942818331032 59.660536222503936, 190.2571172394713 43.29419453204958, 189.4115657560468 24.50991546075038" stroke="rgb(0, 0, 0)" stroke-width="1" fill="none"/><text x="220" y="55" class="type" aria-describedby="desc-1">bool<title id="desc-1">Object type: bool</title></text></g><text x="150" y="115" class="value" aria-describedby="desc-2">True<title id="desc-2">Value: True</title></text></g></svg>