<svg width="287" height="217" xmlns="http://www.w3.org/2000/svg"><title>Python memory model diagram showing objects</title><style>
        :root {
        --fade-text-color: rgb(0, 0, 0);
        --hide-text-color: white;

        --highlight-value-text-color: rgb(27, 14, 139);
        --highlight-id-text-color: rgb(150, 100, 28);

        --highlight-box-fill: yellow;
        --highlight-box-line-color: rgb(0, 0, 0);

        --fade-box-fill: rgb(247, 247, 247);
        --fade-box-line-color: gray;

        --hide-box-fill: white;

        --primitive-value-color: rgb(27, 14, 139);
        --id-text-color: rgb(150, 100, 28);
        --default-font-size: 20px;

        --highlight-object-fill: rgba(255, 255, 0, 0.6);
    }

        text {
            font-family: Consolas, Courier;
            font-size: 20px;
        }
        text.default {
            fill: rgb(0, 0, 0);
            text-anchor: middle;
        }
        text.attribute {
            fill: rgb(27, 14, 139);
            text-anchor: start;
        }
        text.variable {
            fill: rgb(0, 0, 0);
            text-anchor: start;
        }
        text.id {
            cursor: auto;
            fill: rgb(150, 100, 28);
            text-anchor: middle;
        }
        text.type {
            fill: rgb(27, 14, 139);
            text-anchor: middle;
        }
        text.value {
            fill: rgb(27, 14, 139);
            text-anchor: middle;
        }
        path {
            stroke: rgb(0, 0, 0);
        }
        .highlighted path {
            fill: var(--highlight-object-fill) !important;
        }
    </style><g role="graphics-object"><title>Bool id32 with value true</title><g id="object-0"><path d="M49.52765975909003 24.760393134058482 L248.2916231225724 25.484244817856023 L249.10181464778947 154.79526265451582 L48.76096630994297 153.752377723234" stroke="none" stroke-width="0" fill="none"/><path d="M48.7777966837185 25.58593545513776 C114.33556677981056 23.704931304054384, 177.81490652281175 25.132046714898614, 250.8131230141208 25.084567263694733 M50.22424918143899 25.069120215401217 C90.71518300195999 24.31313210339923, 133.8983677785985 24.297641769497915, 249.2626499126964 25.788874172626024 M249.67104440104563 25.879919588875275 C249.88040217460178 63.906811536235395, 251.8900997050606 104.1838022250506, 250.72205583207136 155.8139198262526 M250.95720433836232 24.935242028232516 C250.17890957194382 63.329406072741186, 251.69568646087777 102.19111099422285, 250.64828516924982 155.33130942314148 M248.7146936173074 156.74931443516132 C192.6218020090697 152.07257333667002, 135.64455437493822 154.98907611047892, 51.10237241088909 155.85887495221033 M250.3695308973522 155.12342297979384 C207.02724138147963 153.99287773964795, 162.62003835481096 153.62301803778396, 50.58291187004218 155.5976236808363 M49.231959523197986 153.29553817623193 C50.572392018189056 116.83092750333859, 51.07897947573218 75.63017852834196, 48.08125833199073 24.32367858550842 M49.744558141542925 154.28705610982948 C50.398001751039644 123.03522341932548, 50.28802746783855 91.90357250594215, 49.405295767482244 25.82969353609453" stroke="rgb(0, 0, 0)" stroke-width="1" fill="none"/></g><g><path d="M44.41682763351304 20.341579296693407 L255.81608640271426 20.454078906982346 L257.22978611198704 159.4044451906309 L45.15247827504121 161.6833040632442" stroke="none" stroke-width="0" fill="none"/><path d="M44.45295180550612 17.85549192475097 C100.88445132085498 18.242896786974544, 158.4983652806661 19.13198279068851, 255.71934630057194 18.995333807759742 M44.601311204681316 18.453791510669486 C87.23072448275542 19.669491122967642, 130.2374002727056 19.651142182426224, 255.2301155828718 19.67378502653009 M257.28115321858047 17.754391487792407 C256.45988106394105 50.66498605049634, 256.5788482990317 78.87719494974236, 256.6476955784708 159.81136674820374 M255.6088703430418 19.705421318201324 C257.0800128859604 51.730808042306705, 256.77798867192155 86.90950752851371, 255.27804013307414 161.8348863255053 M256.83977192282646 159.84529609040678 C191.90277360366073 162.46532219728107, 131.99821412783885 162.63440272030962, 45.09040170625039 159.83761195409807 M256.03936245280204 160.15949934686435 C184.23672664792065 162.76684907134222, 111.88730109284533 161.72285867249008, 44.701990960789544 161.8318447847437 M42.6390592910787 160.5438327292861 C42.931003998242105 123.9696285823529, 41.08909567075495 87.75693588616758, 45.4884467707507 20.723174008770254 M43.732075329996434 160.80165366911496 C44.235913013683145 120.67036962435716, 44.697921621510076 78.70621482338476, 44.0514336844931 19.96851114043025" stroke="rgb(0, 0, 0)" stroke-width="1" fill="none"/></g><g><path d="M50.514096572452516 23.450379044385176 L108.8800571046846 25.48918902093341 L109.43463897109382 76.68186387277122 L48.924434921435896 73.97244927047481" stroke="none" stroke-width="0" fill="none"/><path d="M50.41345539103971 23.77319215280529 C67.87228397284558 26.377358384298947, 88.22982473967572 24.37957836723459, 108.91249221842708 23.76337026804319 M50.43380129947929 25.293582612168205 C65.77139317605167 24.19573600409203, 81.47329117326314 24.152698301977793, 109.90524142373688 25.26622366565704 M110.59395043694519 24.594401569952055 C108.19029430055038 36.66882358414583, 109.21927778306926 45.21552139348242, 110.7941582782739 74.03272749343976 M110.52683706901092 25.081042796103663 C108.90526161028407 34.978852547413794, 108.90719871281637 46.403552653995575, 110.86941921282119 75.04458544966957 M109.82219866217302 75.14941426228341 C94.5335664679676 76.23448921047327, 79.83643865563427 75.41656125399135, 50.241136426525586 75.70819554062858 M109.44676719551626 74.5747991169376 C96.79278770863338 74.9206600762212, 84.73427710388427 75.09998019684197, 49.61005533794424 75.12521845027189 M50.57803727295829 76.12362315276056 C50.38407086990123 61.36970896970874, 48.446941064404086 47.090065387362976, 50.41601861120787 24.13943291656467 M50.88855556809768 75.40857315961553 C50.44790923828372 55.78256545066239, 50.47909688664285 38.61442047303383, 50.837166964784295 25.847529073875876" stroke="rgb(0, 0, 0)" stroke-width="1" fill="none"/><text x="80" y="55" class="id" aria-label="id: id32">id32</text></g><g><path d="M190.5798864903396 26.3950635089947 L248.87045254535875 23.854868814899252 L249.85774348657336 74.52462536422698 L188.56986913654342 76.51762134729772" stroke="none" stroke-width="0" fill="none"/><path d="M189.70415993992842 26.270595392394295 C209.4491403591165 23.58007028069215, 223.16998225249978 24.63129408627115, 249.8298979915549 26.913339030757967 M190.0807135889516 25.4665987919776 C204.8701783989352 26.29948636891056, 221.15951677623502 24.85953138017255, 249.1238478572025 24.123093651646787 M251.41255551900326 26.716895441977886 C248.6849005540633 40.800237453673674, 250.41620809873345 60.174855256523465, 251.10495584375127 74.03825904476084 M249.86328120880975 25.834943949567513 C249.381558114246 43.94067727031475, 249.46370569396592 61.97027135326495, 250.07475632152583 74.18909564338696 M248.88317552701506 75.30406974910612 C229.9872971734686 73.82597139169361, 209.68381556281457 74.56207419109909, 188.77950301266074 73.72775856526687 M250.22497903259577 74.12149938384384 C227.68847548869905 75.03706493836623, 204.487042759209 76.25925356833913, 190.25024337191482 75.17999237982214 M190.0894850079194 75.5130901591313 C189.47382395998486 62.643151958187445, 191.93013143954212 47.623703415534976, 189.42334558073352 23.63161754022351 M190.86296646491758 74.9048136297423 C189.63050574722195 55.97932402041866, 189.78019052853512 38.03404000810746, 190.9998610847496 24.547214601871595" stroke="rgb(0, 0, 0)" stroke-width="1" fill="none"/><text x="220" y="55" class="type" aria-label="type: bool">bool</text></g><text x="150" y="115" class="value" aria-label="value: True">True</text></g></svg>