<svg data-theme="dark" width="287" height="217" xmlns="http://www.w3.org/2000/svg"><title>Python memory model diagram showing objects</title><style>
        :root {
        --fade-text-color: rgb(0, 0, 0);
        --hide-text-color: white;

        --highlight-value-text-color: rgb(27, 14, 139);
        --highlight-id-text-color: rgb(150, 100, 28);

        --highlight-box-fill: yellow;
        --highlight-box-line-color: rgb(0, 0, 0);

        --fade-box-fill: rgb(247, 247, 247);
        --fade-box-line-color: gray;

        --hide-box-fill: white;

        --primitive-value-color: rgb(27, 14, 139);
        --id-text-color: rgb(150, 100, 28);
        --default-font-size: 20px;

        --highlight-object-fill: rgba(255, 255, 0, 0.6);
    }

        text {
            font-family: Consolas, Courier;
            font-size: 20px;
        }
        text.default {
            fill: rgb(0, 0, 0);
            text-anchor: middle;
        }
        text.attribute {
            fill: rgb(27, 14, 139);
            text-anchor: start;
        }
        text.variable {
            fill: rgb(0, 0, 0);
            text-anchor: start;
        }
        text.id {
            cursor: auto;
            fill: rgb(150, 100, 28);
            text-anchor: middle;
        }
        text.type {
            fill: rgb(27, 14, 139);
            text-anchor: middle;
        }
        text.value {
            fill: rgb(27, 14, 139);
            text-anchor: middle;
        }
        path {
            stroke: rgb(0, 0, 0);
        }
        .highlighted path {
            fill: var(--highlight-object-fill) !important;
        }
    
        [data-theme="dark"] {
            --highlight-value-text-color: #110875;
            --highlight-id-text-color: #6e4409;

            --fade-text-color: #BBBBBB;
            --hide-text-color: #121212;

            --highlight-box-fill: #EDB926;
            --highlight-box-line-color: #FFFFFF;

            --fade-box-fill: #2C2C2C;
            --fade-box-line-color: #666666;

            --hide-box-fill: #121212;

            --highlight-object-fill: rgba(72, 207, 173, 0.3);
        }
        [data-theme="dark"] text.default,
        [data-theme="dark"] text.variable {
            fill: rgb(224, 224, 224);
        }
        [data-theme="dark"] text.attribute,
        [data-theme="dark"] text.type,
        [data-theme="dark"] text.value {
            fill: rgb(144, 164, 237);
        }
        [data-theme="dark"] text.id {
            fill: rgb(255, 183, 77);
        }
        [data-theme="dark"] path {
            stroke: rgb(204, 204, 204);
        }
</style><g role="graphics-object"><title>Bool id32 with value true</title><g id="object-0"><path d="M51.017470007872554 26.779900335136748 L250.29217654889194 23.55720102964532 L248.15984999225861 153.6338272113599 L51.43640087783364 154.99582364554746" stroke="none" stroke-width="0" fill="none"/><path d="M50.17487131677107 23.257567571017194 C116.99448471364366 23.84023485770539, 181.9479318198622 24.00914501898366, 248.40317828345263 23.67564289740077 M49.989785700349366 24.75983377195226 C103.55241225990046 23.739245403938543, 157.03342923041728 23.69617847726721, 250.17116009306605 25.511208053464646 M249.5459231203373 23.088288855946335 C251.94362537891746 52.19943240747183, 249.459985729277 79.3504609252491, 249.406194447398 154.17853363391364 M249.2587503097392 24.94318917978273 C249.0017548703913 60.92174279236775, 248.62307064988806 97.22240246833921, 250.29519143299822 155.3015882974071 M248.51958330839383 156.01219296941315 C176.90461977870422 155.51758542791197, 101.60600739105004 155.16321752327303, 48.5762551160797 155.31856520011092 M249.9516096337028 154.84108664898895 C205.56144010759473 155.61249491472415, 161.48527724080898 154.7423850045378, 49.570274641973135 155.3072104432426 M48.48440608945936 156.38930192774959 C48.8522770767001 104.03959476451712, 50.80224988819354 54.14883975529855, 48.59723724429291 26.320448050696225 M49.22607321496936 155.9562054246673 C50.70802568685745 106.62941376490475, 50.63249534117007 59.297714262737976, 49.49093847174437 25.474801946588816" stroke="rgb(0, 0, 0)" stroke-width="1" fill="none"/></g><g><path d="M42.008921483926706 19.108115001713294 L257.5598818765441 18.155208671119997 L256.22234637291206 161.1663066399104 L44.79285941668876 159.5401139753801" stroke="none" stroke-width="0" fill="none"/><path d="M45.0870841268724 18.843698726382346 C102.46737157008029 16.537180154913127, 157.88969742484244 18.500460736071368, 255.45496082307287 18.529971294608902 M44.16349207864948 18.700664764164028 C102.51624698912859 19.037691790364843, 160.51713343768324 18.71108587491779, 255.97726462447204 19.519808598858916 M255.10575640312777 20.970942812673847 C255.83186865209805 71.01648308251401, 255.79512564305918 125.87029642060969, 257.7516125050672 161.84370560528652 M256.89165765411354 18.09016631685249 C257.10042542169657 71.60806923636501, 257.52222580195024 125.43952366957382, 256.88639429227294 160.81995170609693 M255.70830786825752 161.41195950642603 C195.1560440986898 159.9707605813247, 138.9841082734999 159.369182863178, 43.038535936349746 159.4030015445494 M256.32936254437544 160.35739245326766 C195.4842574850349 160.9267836622852, 133.05474022509105 160.3191948284795, 44.39994554818415 160.46430519627336 M43.2259730969681 160.5341264379215 C44.135304147234365 120.85861067216304, 41.148548170884496 83.05558294612763, 42.74515099828552 20.408673880803747 M44.03536977430155 160.6339168586073 C43.737091412885825 124.50610951521305, 42.59189622035339 88.86201545396723, 44.283672054203095 18.13999578619708" stroke="rgb(0, 0, 0)" stroke-width="1" fill="none"/></g><g><path d="M50.077763933947935 25.778632259374106 L110.29531176348564 25.171195346452457 L111.14837065604176 74.29988864200627 L50.153908766038015 76.62250434839885" stroke="none" stroke-width="0" fill="none"/><path d="M51.33659545204643 23.02455737538565 C73.45567301989645 26.985788995650974, 94.91475436358704 24.042569964848052, 109.0065882001625 26.76620460961133 M49.73788841630038 24.884665270195278 C72.96463012407409 24.72217653087187, 96.20612913451298 24.581198718147355, 110.46671194072394 24.348728349689694 M110.93924170139664 24.781427765871246 C108.78914046757532 44.42647921105596, 109.90020916687834 61.80340495346342, 109.1395325176468 76.58831242305301 M110.0299725931852 25.797909102523548 C109.6928390015305 36.10328380097547, 110.23363533194609 47.60428382900865, 110.42534608862299 75.82067148013167 M110.2738247116933 75.37517346105744 C94.94493637204411 74.2703911271324, 78.8618134850089 74.72048996035855, 49.78550777578183 74.35549280553268 M110.22512897681547 74.08675902263928 C86.91491750087495 75.21076246711212, 63.0306423620202 75.50440484335074, 49.87526175601519 74.01864814109595 M49.44506226692624 74.76997311800969 C50.96728666611596 57.331257821040815, 48.900703376955796 41.45930815400425, 48.607364727244935 24.304721904539825 M49.41058325487733 75.84736912290182 C50.66019237602 60.39551280033159, 50.482013190540854 44.55609478731122, 49.568519073015516 24.04774882939272" stroke="rgb(0, 0, 0)" stroke-width="1" fill="none"/><text x="80" y="55" class="id" aria-describedby="desc-0">id32<title id="desc-0">Object id</title></text></g><g><path d="M188.84305918557075 24.206888568353374 L250.03587817123415 24.864073142837825 L248.01846454322975 74.57855514324397 L188.39126324120886 75.1779317696236" stroke="none" stroke-width="0" fill="none"/><path d="M188.74567117847823 24.774562807175023 C210.18637109565688 23.733995620960478, 232.9796598957514 26.408229035026352, 251.45868965078535 24.691491292801285 M190.17052230182725 24.250021620577314 C206.0280205876763 24.509131719025138, 222.11539723600578 25.646483758005594, 249.51469417807752 24.626415140488067 M249.0964039367883 25.57440047504797 C247.6630180919806 36.26269223410628, 250.63975058022706 44.86897829638206, 248.6365227509106 74.75025418302805 M250.4950416172889 25.56567168103777 C248.77862099034164 36.410761977472944, 249.69593462657062 45.94980949621725, 249.91019037664398 75.50460066880235 M250.46626850001613 73.18417545922924 C232.48771282542805 74.86035596501539, 216.33265378111724 75.73533557008685, 191.77296640556705 73.92973159960098 M249.37645541678359 75.08714014706415 C235.66018979750578 75.77178900974687, 222.59045354568616 75.33006966908012, 189.2082434598123 75.49563979365105 M191.91990617348944 75.58957187692627 C189.57465448260078 63.024008921192404, 188.46667627624703 54.202329163920915, 190.92485616687267 23.2580265762251 M190.76262132457884 75.04726146091332 C188.9323881316741 58.5450007539051, 189.37395418531895 41.6384117651323, 190.58355206346064 25.4889693688467" stroke="rgb(0, 0, 0)" stroke-width="1" fill="none"/><text x="220" y="55" class="type" aria-describedby="desc-1">bool<title id="desc-1">Object type</title></text></g><text x="150" y="115" class="value" aria-describedby="desc-2">True<title id="desc-2">Value</title></text></g></svg>