<svg width="287" height="217" xmlns="http://www.w3.org/2000/svg"><title>Python memory model diagram showing objects</title><style>
        :root {
        --fade-text-color: rgb(0, 0, 0);
        --hide-text-color: white;

        --highlight-value-text-color: rgb(27, 14, 139);
        --highlight-id-text-color: rgb(150, 100, 28);

        --highlight-box-fill: yellow;
        --highlight-box-line-color: rgb(0, 0, 0);

        --fade-box-fill: rgb(247, 247, 247);
        --fade-box-line-color: gray;

        --hide-box-fill: white;

        --primitive-value-color: rgb(27, 14, 139);
        --id-text-color: rgb(150, 100, 28);
        --default-font-size: 20px;

        --highlight-object-fill: rgba(255, 255, 0, 0.6);
    }

        text {
            font-family: Consolas, Courier;
            font-size: 20px;
        }
        text.default {
            fill: rgb(0, 0, 0);
            text-anchor: middle;
        }
        text.attribute {
            fill: rgb(27, 14, 139);
            text-anchor: start;
        }
        text.variable {
            fill: rgb(0, 0, 0);
            text-anchor: start;
        }
        text.id {
            cursor: auto;
            fill: rgb(150, 100, 28);
            text-anchor: middle;
        }
        text.type {
            fill: rgb(27, 14, 139);
            text-anchor: middle;
        }
        text.value {
            fill: rgb(27, 14, 139);
            text-anchor: middle;
        }
        path {
            stroke: rgb(0, 0, 0);
        }
        .highlighted path {
            fill: var(--highlight-object-fill) !important;
        }
    </style><g><title>Group of 1 objects</title><g role="graphics-object"><title>Bool id32 with value true</title><g id="object-0"><path d="M50.707442215906305 25.074065749314094 L250.0635832211296 26.69937797716087 L251.6490180517618 153.35427526366698 L48.468877734904524 155.01841713770315" stroke="none" stroke-width="0" fill="none"/><path d="M48.37950690095544 26.279927074998426 C104.23771820015955 23.119716829129732, 154.76243030474726 25.27440815121225, 248.9153245257247 24.47177317380121 M50.453224378434996 24.572348280046324 C122.11273162963305 24.99632700977506, 192.99611567209445 24.60221799159461, 249.98974448648764 24.141787281625852 M248.39616810900205 25.778821684872245 C250.59226101765609 53.323027665339765, 249.8285615903873 80.20180833716678, 251.39046018238238 154.4559428639479 M250.07918126593984 24.76645727279 C250.58027377553344 67.34288765925457, 250.7801737100925 108.47164027657642, 250.39291711957233 154.54429148959647 M251.3976149732399 154.73808899343976 C173.76788572146836 155.91668064108524, 99.18041214583624 157.76073205776595, 49.141116040801236 153.30069741175407 M250.82676834482814 154.90804442489136 C207.6907147044101 153.37779838604797, 165.17979312598516 154.16909998320625, 50.47325437541512 155.83290242638756 M51.77430429681756 155.2580206375484 C49.19988117797071 110.12915416723236, 52.202353977339115 64.3213013631617, 48.734712921824794 25.22929475104561 M49.68715743746328 154.7960417955244 C50.19832780436519 114.65790760207871, 51.574650578360604 74.42234208414136, 49.98025084910615 24.090646686573574" stroke="rgb(0, 0, 0)" stroke-width="1" fill="none"/></g><g><path d="M43.63345977092749 20.399536861519675 L254.60279683685053 20.186740973890373 L254.8198665848426 160.41389257826384 L45.13163263799727 162.95646592817076" stroke="none" stroke-width="0" fill="none"/><path d="M42.727691546530664 20.247290439399745 C125.50884643096767 17.94603132596511, 206.22459811955576 18.588582812283402, 255.5023683187078 18.7897656158171 M43.297550363086394 18.49078077415644 C110.9482706889756 19.28116836755007, 178.49744303595483 19.764928912165754, 256.4919162399247 18.141256954699408 M257.3051431126873 20.541261646216206 C256.82758471596406 65.11671797787352, 254.5644872620455 113.46686252711449, 257.41908369366166 159.03389884027672 M255.06285404433743 18.48192631676539 C257.15477944136455 54.549844764491475, 256.02400910017155 91.01828859043535, 255.53262177334162 160.12226260264362 M255.7104807892587 159.92566755310511 C213.6721772146028 163.41694186419778, 172.06407108690223 163.20858318347928, 43.14195571145459 159.6341195300083 M255.66100394539893 161.50495564470356 C177.54716150820119 159.16620811618418, 98.61095677242008 158.90855386434146, 44.80854840109035 160.30647125153337 M43.91270858052822 161.8908356361121 C43.78315525749288 129.24934821387814, 43.804053576622294 99.4199352105629, 42.24938535205204 19.598408145529604 M44.83513931430642 161.36860914793337 C44.784789982618605 110.86742891079638, 45.068176319278955 62.45124906817898, 43.392701771062924 18.42286572154859" stroke="rgb(0, 0, 0)" stroke-width="1" fill="none"/></g><g><path d="M48.34967834186602 26.530596726695062 L109.29874689232912 24.572037142643026 L108.91715719772233 73.2029482476919 L50.550961772076356 75.16592223408043" stroke="none" stroke-width="0" fill="none"/><path d="M49.27596827074434 26.92179046923591 C69.42092470182996 25.672937349200303, 91.40611417472853 26.87942575330691, 109.38447572072667 25.165102492002525 M50.92599350409334 24.79355117686009 C69.61386485748442 25.367001209188516, 90.14902237867422 25.089847524577124, 110.74864994419698 24.373206723141635 M108.74939938252838 23.56840612673034 C110.81423506972752 44.57867128175937, 109.39610208617532 59.228386254430205, 108.3287097310345 75.35253033846283 M109.46616393445154 24.052410242100173 C110.55308567553158 44.7186561844936, 110.36635832010971 63.074745799023354, 109.83186233853849 74.86942558605303 M110.01809302728728 73.18448495360536 C96.06476760399573 73.17975211288417, 81.78305292158258 76.09391959579952, 51.25137968312713 74.06158559657221 M110.3011541970401 75.05411720765223 C96.73816831813662 74.27818986625866, 82.57448373477443 75.44268108391374, 49.18413520883476 75.62128824553272 M51.79129917405409 75.9320548117007 C51.07472263307499 64.45523950198775, 48.713543166610876 54.6000865152013, 51.088874392271144 23.80352306617959 M49.37563641721895 74.28281159858095 C49.061777768433195 63.689266215036405, 49.43613682389565 49.86415509552615, 50.49341962524003 24.086083331703044" stroke="rgb(0, 0, 0)" stroke-width="1" fill="none"/><text x="80" y="55" class="id" aria-describedby="desc-0">id32<title id="desc-0">Object id</title></text></g><g><path d="M190.05989314918162 23.530670489095034 L249.1364302236534 25.071974720506088 L250.6624080655528 75.03103336508306 L188.00815304203633 73.46747332173034" stroke="none" stroke-width="0" fill="none"/><path d="M190.9144276157254 26.795930650298526 C210.84635521640024 25.03689734568364, 230.6366719500871 22.87458445438344, 249.31565702758482 23.332520150375718 M189.33317848790935 25.29929660159379 C203.13887908515122 24.80602422154223, 215.64425081989876 24.516156737146503, 249.15095129336987 25.29685366781797 M249.0980299841662 26.686475119057715 C251.97007243535623 36.243886249652505, 249.41290790712495 50.83210486010735, 248.2328837483711 75.59164453233726 M249.5103724796814 24.99423915673336 C249.70181275502483 40.42743641934426, 249.996147477629 57.56274632338037, 250.49253458893187 75.36947271508618 M250.7071782971629 75.49494447386674 C236.88285313323757 76.25423366459796, 223.53200363476031 75.86750688481598, 189.6450351126048 76.48308474814058 M250.40514357106898 74.57266814760261 C231.41948559131046 75.19620198630918, 211.82594661941758 74.6006766197861, 189.62460433028954 75.72862380169765 M189.00308276776386 76.79905839079589 C192.3678179577911 62.90110995130193, 192.13605381178937 50.13408814675041, 191.380025837977 26.179067057680516 M190.31365414713608 74.73357784846965 C189.7503866896287 63.39169475045124, 189.98193000796246 50.74484387624587, 190.03987427522276 24.119636441063953" stroke="rgb(0, 0, 0)" stroke-width="1" fill="none"/><text x="220" y="55" class="type" aria-describedby="desc-1">bool<title id="desc-1">Object type</title></text></g><text x="150" y="115" class="value" aria-describedby="desc-2">True<title id="desc-2">Value</title></text></g></g></svg>