<svg width="287" height="217" xmlns="http://www.w3.org/2000/svg"><title>Python memory model diagram showing objects</title><style>
        :root {
        --fade-text-color: rgb(0, 0, 0);
        --hide-text-color: white;

        --highlight-value-text-color: rgb(27, 14, 139);
        --highlight-id-text-color: rgb(150, 100, 28);

        --highlight-box-fill: yellow;
        --highlight-box-line-color: rgb(0, 0, 0);

        --fade-box-fill: rgb(247, 247, 247);
        --fade-box-line-color: gray;

        --hide-box-fill: white;

        --primitive-value-color: rgb(27, 14, 139);
        --id-text-color: rgb(150, 100, 28);
        --default-font-size: 20px;

        --highlight-object-fill: rgba(255, 255, 0, 0.6);
    }

        text {
            font-family: Consolas, Courier;
            font-size: 20px;
        }
        text.default {
            fill: rgb(0, 0, 0);
            text-anchor: middle;
        }
        text.attribute {
            fill: rgb(27, 14, 139);
            text-anchor: start;
        }
        text.variable {
            fill: rgb(0, 0, 0);
            text-anchor: start;
        }
        text.id {
            cursor: auto;
            fill: rgb(150, 100, 28);
            text-anchor: middle;
        }
        text.type {
            fill: rgb(27, 14, 139);
            text-anchor: middle;
        }
        text.value {
            fill: rgb(27, 14, 139);
            text-anchor: middle;
        }
        path {
            stroke: rgb(0, 0, 0);
        }
        .highlighted path {
            fill: var(--highlight-object-fill) !important;
        }
    </style><g role="graphics-object"><title>Bool id32 with value true</title><g id="object-0"><path d="M51.24858860191213 23.344698138668754 L248.4353064340179 23.54525813313387 L249.00529359548216 155.93265144715787 L48.4004258555859 155.96695619811956" stroke="none" stroke-width="0" fill="none"/><path d="M51.69537147935304 25.03733816308969 C96.35848941203973 24.685461718306488, 142.20399038771953 24.31581237939903, 249.0631218068078 24.848983923003935 M50.66226837809374 25.06918961833305 C117.87291726150393 27.157206682344626, 185.3573621621792 25.825760727191508, 249.30662115873182 24.332889320075424 M250.50583666245248 26.03454212443209 C251.43890107017222 77.23435307082322, 250.57250645091275 125.56010608242318, 248.9850596056286 154.4340040632663 M250.92267457375897 24.18921309680999 C250.1156000082463 72.91171492956133, 250.8350022705524 122.57493276704562, 250.9530238896764 155.2995239843368 M251.69775554213516 156.58896294005493 C179.80420414193807 158.00335489666213, 108.52948080569182 157.2417380256252, 49.64443486193136 155.02558036197462 M249.2469432829569 155.04930506575818 C196.42368541590457 155.69873376622277, 143.6739294365927 155.30964978338707, 50.11627947327554 154.6863232535037 M51.1917167071153 154.41390713407833 C51.75087346775081 118.32248789121475, 49.75506066695664 78.73964136091776, 51.53066540493387 23.264755391046975 M50.659371591326206 154.59728602488516 C49.481597402176156 117.31596703187859, 49.781218631393 79.93770508423361, 49.80830039779105 25.48404510121146" stroke="rgb(0, 0, 0)" stroke-width="1" fill="none"/></g><g><path d="M45.168176171048316 20.845353641114944 L254.51266818510123 19.156747990968476 L257.62370266984584 162.25276457855887 L42.897700337140186 162.73356391428678" stroke="none" stroke-width="0" fill="none"/><path d="M43.84560292457664 18.250554866779133 C96.61490749648443 15.84933111765043, 146.48830752340805 17.88417511818154, 254.5296521205112 20.356390856014354 M43.732515394729774 18.52700275566831 C87.27600232964885 19.939610315134537, 132.20449809166576 19.638680042034522, 256.0136813341712 18.266720412342128 M256.7056911572204 20.50789080028256 C254.418052285235 73.79367957256295, 254.3438971583609 131.64921504498824, 256.6173381116752 161.3640774348726 M256.779322259375 19.32874872199086 C256.4656961349706 52.23171432488928, 257.7765495704445 86.2514851165556, 256.0043394721353 160.98469580805627 M254.7373071382655 159.34525377954296 C188.5901219152534 159.82524328231548, 117.22136166601767 160.49163381910301, 43.01042028176981 160.37292008902378 M255.2595117887228 160.54609394688697 C194.75748716234506 160.05514341672622, 134.7796674853654 160.81585652816955, 43.91716783997891 161.81435501251136 M43.002267981008096 159.48315011471908 C45.52056180862456 116.33926127888003, 45.99666139466114 68.84155576277469, 43.35855268400634 19.338720322461644 M44.38225147330263 160.4098556810582 C44.28038407389637 115.01458653867415, 43.9239185584193 68.9226163444947, 43.21916094541929 18.31731509117783" stroke="rgb(0, 0, 0)" stroke-width="1" fill="none"/></g><g><path d="M51.61841935013663 24.76091205594184 L110.39954998848108 24.674254659610476 L109.22348677548248 76.98658363951368 L50.07563934800175 74.25483997861808" stroke="none" stroke-width="0" fill="none"/><path d="M51.269572320537925 26.06770573119094 C71.10320073152702 24.384976682246208, 90.35770927655051 24.034862713607332, 110.26543455966723 26.514555613910304 M49.89455159708717 24.50848693469201 C72.44415114522404 23.483319246908287, 96.38075438821593 24.109641647116106, 109.94877978557554 24.878053038361074 M110.49388800590143 25.912245778570075 C109.71711375994977 36.11140420624852, 111.46345008623463 46.37254864258487, 110.23080440743921 74.910406255415 M109.23670899888135 25.06801167042753 C110.65657918854642 38.52151811247306, 110.22337806846697 53.190076276427504, 110.53311053787746 74.00699930766149 M108.95824951396153 73.97987399732119 C91.67780023663475 76.83116045764325, 73.9505421461816 77.0234211714608, 51.72411703649261 74.65108273651371 M110.43020987097239 74.0779281011816 C88.38214942815357 75.03677840273667, 67.08044958796785 74.53831979988026, 50.97603980747356 74.8119537696068 M48.4889644447137 76.19653298065994 C49.01046882963576 57.71827419199331, 48.65885690397859 42.19731643232354, 51.80439956211495 23.15883588917744 M50.42896892635528 74.79282757463952 C48.9385976210512 60.223853712029396, 49.70012841877482 43.311420838002824, 49.35449004302411 25.330387081526837" stroke="rgb(0, 0, 0)" stroke-width="1" fill="none"/><text x="80" y="55" class="id" aria-describedby="desc-0">id32<title id="desc-0">Object id</title></text></g><g><path d="M191.5506485581226 26.841536803182905 L251.00296298943383 26.812661055312212 L251.87895336085762 76.97934005211488 L188.9584304014837 74.66529925434813" stroke="none" stroke-width="0" fill="none"/><path d="M188.82916029426954 26.76268311375516 C207.79737366624173 22.97686209262698, 228.46955131284398 24.490382349630213, 249.43058429151978 26.592220699572703 M189.30888090271716 24.934438148066278 C202.391659303217 24.297015601644596, 215.89420576748222 25.152392256197135, 249.30408293120962 24.346804103808218 M248.71734684245777 23.10609900978337 C251.7735554893483 34.75796925786021, 249.0788747012374 46.21063749862907, 248.3252952303578 76.29358327769403 M249.71516426546538 24.25930039547869 C249.9997782873257 42.83674823340469, 250.29453800846676 62.594073339735644, 249.26995179747593 74.54655357812943 M249.59778702987973 73.84869860122576 C233.19296022308046 74.09779846891801, 217.2668729778125 76.32695954227643, 188.73265063791078 75.39284014541909 M250.64861336125338 74.8613160040445 C234.0291490660494 74.1223746765718, 218.87560661379348 75.52562224534775, 190.16683066184805 74.2374003496808 M190.7646925257104 76.73345134729676 C189.3313910306043 58.945911383760055, 190.1990749243229 40.039866497109784, 190.1639630144039 24.107392586266293 M190.2178138163991 75.48747900655373 C190.3004503771046 56.59547372772375, 189.999002434276 35.58916495987879, 190.71329460275507 25.014892404602687" stroke="rgb(0, 0, 0)" stroke-width="1" fill="none"/><text x="220" y="55" class="type" aria-describedby="desc-1">bool<title id="desc-1">Object type</title></text></g><text x="150" y="115" class="value" aria-describedby="desc-2">True<title id="desc-2">Value</title></text></g></svg>