<svg width="287" height="292" xmlns="http://www.w3.org/2000/svg"><style>
        :root {
        --fade-text-color: rgb(0, 0, 0);
        --hide-text-color: white;

        --highlight-value-text-color: rgb(27, 14, 139);
        --highlight-id-text-color: rgb(150, 100, 28);

        --highlight-box-fill: yellow;
        --highlight-box-line-color: rgb(0, 0, 0);

        --fade-box-fill: rgb(247, 247, 247);
        --fade-box-line-color: gray;

        --hide-box-fill: white;

        --primitive-value-color: rgb(27, 14, 139);
        --id-text-color: rgb(150, 100, 28);
        --default-font-size: 20px;

        --highlight-object-fill: rgba(255, 255, 0, 0.6);
    }

        text {
            font-family: Consolas, Courier;
            font-size: 20px;
        }
        text.default {
            fill: rgb(0, 0, 0);
            text-anchor: middle;
        }
        text.attribute {
            fill: rgb(27, 14, 139);
            text-anchor: start;
        }
        text.variable {
            fill: rgb(0, 0, 0);
            text-anchor: start;
        }
        text.id {
            cursor: auto;
            fill: rgb(150, 100, 28);
            text-anchor: middle;
        }
        text.type {
            fill: rgb(27, 14, 139);
            text-anchor: middle;
        }
        text.value {
            fill: rgb(27, 14, 139);
            text-anchor: middle;
        }
        path {
            stroke: rgb(0, 0, 0);
        }
        .highlighted path {
            fill: var(--highlight-object-fill) !important;
        }
    </style><g id="object-0"><path d="M48.318266357472815 26.149273005257122 L251.0601516329489 24.05986513477478 L251.93764518957647 154.35260720789637 L50.22732979827362 156.79089744857595" stroke="none" stroke-width="0" fill="none"/><path d="M48.426850241248516 23.951767686659508 C101.99404252245995 24.856089732798562, 154.78379588937122 27.175063352617897, 251.16143521585388 23.76568572360703 M50.83461151441894 25.365657003991505 C116.2651716904136 26.31124126716407, 182.94512941487326 26.44264187490495, 250.86009981940686 24.13817973183432 M248.96454757929803 26.03618955385074 C252.6703120996349 56.09078527380189, 249.65815931823857 92.36868303077128, 249.20889263463368 155.23954354424524 M250.6389186231612 25.53410083043018 C247.99526183756913 70.72856707920057, 249.4009966067673 115.28128456219567, 250.72616322222183 154.03195380196118 M249.67674237098507 154.66696516893714 C207.34068840499 154.3636097416758, 162.4662745849874 152.81583663905084, 48.812561917809596 156.41983029951444 M250.2856388344974 155.10228272175615 C196.4225179295953 157.01243477013242, 141.72532869441702 156.09140956605546, 50.05802986925103 154.93141685564964 M49.32086070371163 154.34025449457633 C49.89457093477271 124.6662016828442, 51.3762267696571 93.6534464870831, 51.405846638607386 23.330205396206452 M49.43402161919361 155.79383866750163 C48.436222852750966 114.9092821915398, 48.590144913043254 75.08429573561405, 49.08148181957099 25.903673494242575" stroke="rgb(0, 0, 0)" stroke-width="1" fill="none"/></g><g><path d="M45.272657494775416 19.3816286659163 L255.02124120344166 17.10165733041866 L255.32597116195473 162.18382625583666 L45.144204300170315 162.43252699327374" stroke="none" stroke-width="0" fill="none"/><path d="M45.45656336985575 19.753435438546315 C111.58336847750074 18.348570329305154, 181.02071896158964 19.890853107872772, 255.89398297664155 18.864029905412362 M44.50232686700433 19.12392041604605 C87.55491715463337 18.36997951324902, 131.95998099447138 18.802759167956495, 256.26486646884433 18.61224232667079 M257.88461888134293 18.1228239462532 C256.6292877747442 68.3279894466494, 256.06876567628336 119.6632046155138, 256.02889791850464 162.66295999338953 M256.16569367721297 19.215851184986768 C254.7841971399857 63.00268588341783, 255.02753389640282 105.5788289028173, 256.649394769689 161.7520436430128 M256.03699324234327 160.99635197743814 C208.11385824072775 162.6362812919824, 164.12004907326696 163.07777395886276, 45.65155230550755 160.58842182204884 M256.30038111644905 160.5666885306261 C192.18017099653443 161.5259090760312, 128.34567364781412 161.5222097603778, 44.44387014445979 161.00248610837917 M43.59523571219128 161.9689171511077 C44.535290536036044 133.89827509974967, 41.06008219091425 101.73610137737852, 45.929871023304536 19.5791680165291 M43.25827171893083 161.05740418219156 C45.96542806835193 108.86877921326595, 45.22424087015884 55.51599343588781, 44.97182527805225 18.194998453850253" stroke="rgb(0, 0, 0)" stroke-width="1" fill="none"/></g><text x="150" y="115" class="value">True</text><g><path d="M49.36789803537161 26.33924402456922 L108.14486005058764 26.72779569477341 L109.30634818279992 76.72679773634096 L51.4563447836295 76.18385647321197" stroke="none" stroke-width="0" fill="none"/><path d="M49.24162417011425 25.67327900922512 C66.28684497816796 25.496687643711677, 83.54771391458425 22.953444484096895, 111.16390200443152 25.213781010522375 M49.03906360189951 25.36716615344413 C67.63168395507492 25.09200534391, 83.25551279684854 25.399060412563582, 109.91122406307404 24.912488679284163 M108.49145465879305 23.21769633210978 C109.32726185432057 35.1906306095147, 110.3293928275109 44.728390460912365, 110.6275102447881 73.1991933824981 M110.08019150456195 24.017079013514824 C109.57156393693431 44.21627763908246, 109.33973098678939 64.62351675657064, 109.07840852039651 75.40469497877285 M110.446252422676 74.64352825340818 C84.3973141652592 75.76210500196889, 61.23825458417147 74.78129487528433, 48.63102172921599 75.6890892938988 M110.44517836044841 74.29668847524162 C97.92824316534701 74.98786907732723, 85.52828746459849 74.56020373042102, 50.857696261714736 75.21652999335937 M48.85556402386072 76.89293158179834 C51.0964897020807 66.1122986291733, 48.78507506803056 54.65068160993464, 51.456367235201306 25.414794326048902 M49.06006295015061 74.10530575536801 C50.36923295176392 55.77424629812727, 51.02683041536044 36.06877088877631, 50.03661445110944 25.585011752860915" stroke="rgb(0, 0, 0)" stroke-width="1" fill="none"/></g><g><path d="M191.9080232542066 26.725051986629875 L248.0196700491361 26.958816085886152 L251.4243698850616 75.13813051327395 L191.40330245008494 76.63247858245619" stroke="none" stroke-width="0" fill="none"/><path d="M191.7994288164745 26.246174988792845 C206.05942845370532 24.35264024615961, 220.96264413945568 23.352127157240144, 250.07478179382753 25.215284833083757 M189.22989679349345 25.625792210488665 C207.30595447350606 25.050241339248974, 224.56176083308304 25.409406609887057, 250.59883340294547 25.135473773870153 M248.8133240843755 25.232834527382806 C250.44366654479083 41.778356247108405, 249.29136265655487 60.34592124877819, 249.8466504302214 74.77810799857613 M249.598930560078 24.187544708580027 C249.2837662768627 44.036624878749855, 250.71650534544636 60.72624554879958, 249.18710490072627 75.17175262461458 M251.70269243336458 75.47738656468161 C224.56818387047494 75.07507702030222, 201.75577254227431 75.7240347585376, 191.3851811045563 74.76077719210373 M250.5486227311254 75.21693532148417 C226.41514899013066 75.20119430007712, 203.0369305661245 75.89891695068584, 189.04132148236192 74.3442686869416 M190.7907513641701 73.51814950824513 C190.47013173583343 60.58291437160561, 188.20294327361466 44.46203272707193, 189.19017262407718 25.883976120004693 M190.89799327086146 75.35707117355568 C189.8685836281575 63.24629129786691, 189.4992257431132 50.06700160877076, 189.24763132156178 24.35318209802865" stroke="rgb(0, 0, 0)" stroke-width="1" fill="none"/></g><text x="80" y="55" class="id">id32</text><text x="220" y="55" class="type">bool</text></svg>