<svg data-theme="dark" width="287" height="217" xmlns="http://www.w3.org/2000/svg"><title>Python memory model diagram showing objects</title><style>
        :root {
        --fade-text-color: rgb(0, 0, 0);
        --hide-text-color: white;

        --highlight-value-text-color: rgb(27, 14, 139);
        --highlight-id-text-color: rgb(150, 100, 28);

        --highlight-box-fill: yellow;
        --highlight-box-line-color: rgb(0, 0, 0);

        --fade-box-fill: rgb(247, 247, 247);
        --fade-box-line-color: gray;

        --hide-box-fill: white;

        --primitive-value-color: rgb(27, 14, 139);
        --id-text-color: rgb(150, 100, 28);
        --default-font-size: 20px;

        --highlight-object-fill: rgba(255, 255, 0, 0.6);
    }

        text {
            font-family: Consolas, Courier;
            font-size: 20px;
        }
        text.default {
            fill: rgb(0, 0, 0);
            text-anchor: middle;
        }
        text.attribute {
            fill: rgb(27, 14, 139);
            text-anchor: start;
        }
        text.variable {
            fill: rgb(0, 0, 0);
            text-anchor: start;
        }
        text.id {
            cursor: auto;
            fill: rgb(150, 100, 28);
            text-anchor: middle;
        }
        text.type {
            fill: rgb(27, 14, 139);
            text-anchor: middle;
        }
        text.value {
            fill: rgb(27, 14, 139);
            text-anchor: middle;
        }
        path {
            stroke: rgb(0, 0, 0);
        }
        .highlighted path {
            fill: var(--highlight-object-fill) !important;
        }
    
        [data-theme="dark"] {
            --highlight-value-text-color: #110875;
            --highlight-id-text-color: #6e4409;

            --fade-text-color: #BBBBBB;
            --hide-text-color: #121212;

            --highlight-box-fill: #EDB926;
            --highlight-box-line-color: #FFFFFF;

            --fade-box-fill: #2C2C2C;
            --fade-box-line-color: #666666;

            --hide-box-fill: #121212;

            --highlight-object-fill: rgba(72, 207, 173, 0.3);
        }
        [data-theme="dark"] text.default,
        [data-theme="dark"] text.variable {
            fill: rgb(224, 224, 224);
        }
        [data-theme="dark"] text.attribute,
        [data-theme="dark"] text.type,
        [data-theme="dark"] text.value {
            fill: rgb(144, 164, 237);
        }
        [data-theme="dark"] text.id {
            fill: rgb(255, 183, 77);
        }
        [data-theme="dark"] path {
            stroke: rgb(204, 204, 204);
        }
</style><g role="graphics-object"><title>Bytes id76 with value b'\x00\x00'</title><g id="object-0"><path d="M51.52555503473654 23.792263324656037 L249.18269090476394 25.722037716191302 L249.24951298998073 154.21918138822892 L50.78631053060228 156.22293481615696" stroke="none" stroke-width="0" fill="none"/><path d="M48.90706171746063 25.200662775194633 C91.69955904230876 26.292063607341763, 136.61537470076675 26.88467374002657, 250.5315403925808 23.31586738146826 M49.77699515450621 25.148139590346222 C93.63523364033497 24.66594414905662, 138.49319147942046 25.65000693159375, 249.2827541009395 25.17485404647902 M249.33115879133953 23.77867005524007 C250.31622675455145 50.598695533201315, 247.73341453401548 81.09049835284607, 251.8953006089821 155.59055991451234 M250.34370005373225 24.029347022974815 C251.41969366328416 56.13917471028425, 250.11562590986892 87.63416154231616, 249.0160606349742 154.4927881217198 M250.89024366574176 156.73118522465685 C210.58980569381217 152.44618072118772, 169.32050379588847 155.6837135997135, 48.77071831426799 153.66089455079953 M250.58915653018192 154.26076956501132 C170.79761679116172 153.48434366520613, 90.05379298745129 153.77073088148018, 50.42271060300433 154.63184538563527 M50.8680511643054 153.48474583454077 C50.15451917563172 113.68520646931533, 49.122596622309615 74.07209564461249, 50.90432163364841 24.60972587775335 M50.48823534707524 154.97041711350926 C50.58230438314063 116.39210994502879, 51.04416571136055 77.37548972593544, 49.79580442352318 24.61475920732947" stroke="rgb(0, 0, 0)" stroke-width="1" fill="none"/></g><g><path d="M43.4519030979186 19.021235610609708 L255.61734138838796 20.89032560239146 L256.0622702176183 161.1086034736673 L45.03835953675386 160.57582479783247" stroke="none" stroke-width="0" fill="none"/><path d="M42.657847712787465 19.51943492307999 C104.84293648411378 17.695881408880943, 166.5246561130043 18.98367058907488, 257.1008988609947 19.262440466770148 M43.582979337825456 18.954091396224758 C100.75243138120734 19.484773238867138, 156.4009325829654 20.82575682890984, 255.5946772254871 19.86719113880218 M254.67879936791343 17.47559755280988 C253.62706684791084 61.908556528274204, 253.81996734496144 101.82924448924514, 254.7072065074192 159.55597333973472 M256.57678583344233 18.30641267135302 C257.9364441141388 60.32048628486079, 257.76292728465734 100.85308016770362, 256.347902124675 161.34824877771723 M256.1700347548822 162.42755843335812 C187.70439024802985 161.32438404716697, 121.53699238518448 161.91730656138242, 44.636920784252915 161.64813136922123 M256.42032893394344 161.56239595079586 C180.23303766593062 160.29406710735037, 104.10237426316222 160.12072640333346, 43.61456139097666 160.90834025819163 M43.82778432741783 161.82719182540234 C42.341068510239836 105.78837343437905, 43.64891482253611 45.95143170345523, 44.14513302370425 20.239118251654514 M43.30211649550047 160.12417711742387 C42.66324764029921 130.89053832828105, 41.9630583877207 100.62774974478013, 44.38017989246541 19.125579057384613" stroke="rgb(0, 0, 0)" stroke-width="1" fill="none"/></g><text x="150" y="115" class="value">b'\x00\x00'</text><g><path d="M50.25848086781426 23.356705824790687 L109.40481513685181 24.849420177524532 L111.01737305271809 76.78566421015638 L51.97672691538427 73.67010219051784" stroke="none" stroke-width="0" fill="none"/><path d="M49.15604065817195 26.464902862306314 C64.26352524546327 23.829093361110402, 76.37456013997428 25.763588172666793, 109.08855515123007 25.05141564964853 M50.54615820574316 24.995172260526193 C74.1710906542081 26.101185184491875, 96.33831436711073 25.54585414118957, 109.63546002953773 24.69328538675506 M111.85392620933045 24.548240926007246 C110.57893078519803 43.336509768050924, 108.59609411312377 60.28215348369278, 110.33875039019487 76.37610094415156 M110.70429509153082 24.193887350846097 C111.3245519853458 45.38496605525331, 109.95031757992942 63.30855655383702, 110.43582437032076 75.8818586731928 M110.31829908806283 75.83659986854579 C96.35191404335316 73.48963773431484, 84.35792522498151 75.57820931043328, 51.05921042129626 74.26846893194985 M109.0166005362761 74.83972716771412 C89.0199839923018 75.85988455308366, 68.51205799044502 74.18667161218515, 49.98620154039524 75.57748069852506 M51.71496560635601 73.40148078667376 C51.75671800232651 55.468577449167405, 48.63759004638239 37.11443183528651, 50.402970894761424 24.745854099430673 M50.74576284540154 75.28000966963727 C51.09499730167467 60.54120781242028, 49.61898369446356 47.84605551725761, 50.8168960637045 25.64959898845544" stroke="rgb(0, 0, 0)" stroke-width="1" fill="none"/></g><g><path d="M178.42994919384958 23.28700439700734 L248.10055115764695 23.21388487798258 L251.81479406352958 75.05140756606039 L179.05792770694083 73.70887419139777" stroke="none" stroke-width="0" fill="none"/><path d="M181.0137736039873 23.918352605600642 C204.53418123121807 25.727970997198433, 232.40919696110473 23.25991557587704, 248.91044683087364 23.93503533685854 M179.81800744358156 24.50968988793596 C204.69961404722739 24.987186408021305, 232.30993250489158 24.088658144718625, 249.01001309288347 25.476190259073395 M248.29524883626607 24.144299931601896 C249.59060375899503 37.79918377275514, 249.2573402813504 51.751449714902826, 249.31557355042398 76.0368696858304 M250.48824051214442 24.71925307710875 C249.0313025511853 41.75622157175637, 250.205827344905 59.42224968851269, 250.62966603046374 75.80789435536012 M251.860408658988 73.91096667752187 C230.63035495056448 76.30933715929288, 211.51427150820658 73.78029830862528, 179.88770576377112 74.9854141350851 M249.0555209587401 74.7849124512251 C227.0031286349901 74.04768235348284, 204.6237414226049 74.1359254148566, 179.54404496783303 75.14819781955929 M180.11397658064345 76.4356711223576 C178.1425698580947 61.690449778799255, 179.2675372859231 50.756639972404145, 178.86414657069918 24.929938134965123 M180.02220259719496 75.53497982598768 C180.08719573693304 62.94816430972805, 179.32371938549284 53.06289488156138, 179.0454126766233 25.63686823902189" stroke="rgb(0, 0, 0)" stroke-width="1" fill="none"/></g><text x="80" y="55" class="id">id76</text><text x="215" y="55" class="type">bytes</text></g></svg>