<svg width="287" height="217" xmlns="http://www.w3.org/2000/svg"><style>
        :root {
        --fade-text-color: rgb(0, 0, 0);
        --hide-text-color: white;

        --highlight-value-text-color: rgb(27, 14, 139);
        --highlight-id-text-color: rgb(150, 100, 28);

        --highlight-box-fill: yellow;
        --highlight-box-line-color: rgb(0, 0, 0);

        --fade-box-fill: rgb(247, 247, 247);
        --fade-box-line-color: gray;

        --hide-box-fill: white;

        --primitive-value-color: rgb(27, 14, 139);
        --id-text-color: rgb(150, 100, 28);
        --default-font-size: 20px;

        --highlight-object-fill: rgba(255, 255, 0, 0.6);
    }

        text {
            font-family: Consolas, Courier;
            font-size: 20px;
        }
        text.default {
            fill: rgb(0, 0, 0);
            text-anchor: middle;
        }
        text.attribute {
            fill: rgb(27, 14, 139);
            text-anchor: start;
        }
        text.variable {
            fill: rgb(0, 0, 0);
            text-anchor: start;
        }
        text.id {
            cursor: pointer;
            fill: rgb(150, 100, 28);
            text-anchor: middle;
        }
        text.type {
            fill: rgb(27, 14, 139);
            text-anchor: middle;
        }
        text.value {
            fill: rgb(27, 14, 139);
            text-anchor: middle;
        }
        path {
            stroke: rgb(0, 0, 0);
        }
        .highlighted path {
            fill: var(--highlight-object-fill) !important;
        }
    </style><g id="object-0"><path d="M50.72336360709494 24.870385571935863 L251.83440073691094 24.587842895283796 L248.08048896095053 154.04381233910996 L49.94359838130643 154.4214198074091" stroke="none" stroke-width="0" fill="none"/><path d="M51.57376403732493 24.31743487878618 C97.88957767307869 24.087387253707504, 143.503493475595 25.93111968344248, 249.9884454115691 24.94688175170487 M50.67199149751329 24.10806048721237 C99.71409995693323 24.917835042762768, 148.47303165130936 26.19456058857962, 249.6202890231364 24.221823457482113 M248.11046798580173 24.13301527823019 C248.3938549113949 57.83270305629133, 249.43865826909735 91.84113290817302, 250.07063737411048 156.9352198488007 M249.69886679656133 25.44462828692754 C248.57037750272787 72.72739883612046, 249.0401661433737 121.44057935419917, 249.35044633543012 154.8885665640027 M250.78501709955137 154.79414968643582 C199.6032552006564 154.89461602567994, 144.9689630176653 155.07998324961903, 50.062045084895544 154.89253658828838 M249.35829279349255 155.7800842662386 C192.20469459427954 156.48893201949036, 133.782226609945 157.59204744369384, 50.36135552139383 155.29309120755408 M51.83112712218641 156.92572944249244 C49.28834667578881 119.16995144581266, 50.61716792772028 81.14796837582037, 51.77024971047054 24.951869621366857 M50.927574581885814 154.99638510924657 C50.348542254040424 115.80338362026723, 50.19714254118735 77.77335323180304, 50.617597646700936 24.11097301989116" stroke="rgb(0, 0, 0)" stroke-width="1" fill="none"/></g><g><path d="M43.23912562436596 19.93540525762391 L257.8835568653609 18.324760957805655 L256.59980537398724 159.2051672926962 L44.5783543852291 160.59423103582964" stroke="none" stroke-width="0" fill="none"/><path d="M44.843019090949525 17.91014993503996 C97.76495510944409 16.681572475680635, 153.0863271971386 17.737186450984066, 255.7109777728708 19.98169855352713 M44.62106396884289 19.194773377875364 C90.97121074706504 18.055265896688937, 138.84312989083918 18.41835396732689, 255.20091884262987 18.602507601870645 M257.027514128949 18.778949063547465 C257.5992892145235 49.96124436796484, 257.5649516759109 81.31019277042778, 255.47995699002982 159.17296029754047 M256.2767571408952 18.136574124112904 C256.89175963479795 59.69471504424418, 257.24938295051993 100.43115098415328, 255.87979576502119 161.41723961205204 M257.4454346935545 160.98224725112775 C182.71136458143633 160.65652433888624, 106.20631571231712 159.1527791617129, 45.117752362824135 161.10257340198072 M255.16446384446562 160.15203641376752 C176.69487841665804 161.81248144781102, 97.73830102902598 162.25436107155903, 43.25110025603884 161.74158688744745 M45.76826065187567 162.15866747004137 C43.95353154605819 117.23352876288949, 42.66259625931528 70.84104118880569, 42.139613155152134 17.46964266800302 M43.999402769855365 161.05207899684004 C43.156330555331344 128.11614596067204, 44.325742345211175 95.08467347321984, 43.891252036183005 19.91650960772072" stroke="rgb(0, 0, 0)" stroke-width="1" fill="none"/></g><text x="150" y="115" class="value">b'\x00\x00'</text><g><path d="M51.286778806740955 26.16312460571239 L109.09654110303023 24.407236021575756 L110.31331850623957 76.95978603407309 L49.809361507511646 75.67138774013408" stroke="none" stroke-width="0" fill="none"/><path d="M48.419086776284885 25.183670298643424 C72.71531861080477 27.470060324337144, 96.22095364539616 23.71443664947205, 109.92748053526132 26.235056272416678 M50.24935030843829 25.247097934173986 C67.04332744931861 24.0707589064096, 82.75943699412123 24.24539538551671, 109.55830520335692 25.451225917240876 M110.2760512843174 24.922914572695998 C109.04521961978368 43.86674103156972, 109.85756082640235 60.05047901235415, 110.36131316545948 75.85929931950261 M109.81513367535044 24.48572431062632 C109.1660871590062 42.96072455321623, 110.6304718670892 59.43799288810959, 110.400695612829 75.29008325984218 M108.69368223244307 74.03978722502313 C91.64212590300045 73.83324821887855, 69.95332697785723 73.60774618532427, 48.42868313091874 75.79601371181377 M110.91365438605739 74.61210007311281 C96.67960010563608 75.44576701832453, 82.58059708619308 75.39315698007489, 49.96916943160203 74.32791687740426 M48.168012660456625 76.10803582771891 C51.496352071309204 63.98123979210076, 48.19194612700203 54.09443205231233, 49.300087461660496 25.85984215433814 M49.24347560925505 75.82237498948027 C48.785674088196345 58.80162505999062, 50.06962679911875 43.61087260778481, 49.766668604405545 24.124908094343457" stroke="rgb(0, 0, 0)" stroke-width="1" fill="none"/></g><g><path d="M180.86195186740477 26.318180848370226 L250.90013592489984 24.457901091378236 L250.49087452096583 73.34396783291447 L178.04160716338154 74.12334886809437" stroke="none" stroke-width="0" fill="none"/><path d="M178.0799177425807 25.893139528864502 C194.32007394793007 24.52450542822719, 211.67338786340855 25.8813118453017, 251.67172184956198 24.472574917817457 M180.5975089522159 25.73282157503409 C196.72986695026182 24.19604673057461, 211.66759203576086 25.396750715849695, 250.46140649958105 24.023223423058514 M249.64417589759134 26.594190667475537 C251.16041128580906 44.270716240623315, 247.57026076121633 60.75822441932952, 250.75954302912788 73.39857784589478 M249.92061708424973 25.991658385755137 C250.30995359857687 41.4996531539998, 250.26434299134408 58.6219746298722, 249.2750933099931 74.78582288917991 M251.6837948421014 74.29100867005683 C230.80696536758234 76.37720516062221, 210.39115475966312 76.31751224988818, 181.42613723951752 76.93476848254932 M250.3517628519749 74.5870361747727 C231.99997686512103 76.32207304239884, 214.26881531075085 75.66877930809275, 180.0086672586523 75.54591629283809 M181.02078382300803 76.5942529033859 C181.63814341841083 58.22129674426704, 181.47645950792833 46.46575683786168, 181.52391612834896 25.279679636072807 M180.81695870965953 74.19223572156255 C180.59300886555266 61.26784128318463, 181.12398450262458 46.34152256938992, 179.7130406466548 25.94756630901818" stroke="rgb(0, 0, 0)" stroke-width="1" fill="none"/></g><text x="80" y="55" class="id">id76</text><text x="215" y="55" class="type">bytes</text><script>
            function enableInteractivity() {
                // Inject the id value to object id mapping into script
                const idToObjectMap = {"id76":["object-0"]};

                function highlightObject(objectId) {
                    const objectBox = document.getElementById(objectId);
                    if (!objectBox) {
                        return;
                    }

                    objectBox.classList.add('highlighted');
                }

                function removeHighlight(objectId) {
                    const objectBox = document.getElementById(objectId);
                    if (!objectBox) {
                        return;
                    }

                    objectBox.classList.remove('highlighted');
                }

                function addEventListeners() {
                    document.querySelectorAll('text.id').forEach(idText =&gt; {
                        const idValue = idText.textContent.trim();
                        if (!idValue || !idValue.startsWith('id')) {
                            return;
                        }

                        idText.addEventListener('mouseover', () =&gt; {
                            const objectIds = idToObjectMap[idValue];
                            if (objectIds) {
                                objectIds.forEach(highlightObject);
                            }
                        });

                        idText.addEventListener('mouseout', () =&gt; {
                            const objectIds = idToObjectMap[idValue];
                            if (objectIds) {
                                objectIds.forEach(removeHighlight);
                            }
                        });
                    });
                }

                addEventListeners();
            }

            // Wait for DOM to be ready
            if (document.readyState === 'loading') {
                document.addEventListener('DOMContentLoaded', enableInteractivity);
            } else {
                enableInteractivity();
            }
        </script></svg>