<svg width="287" height="217" xmlns="http://www.w3.org/2000/svg"><title>Python memory model diagram showing objects</title><style>
        :root {
        --fade-text-color: rgb(0, 0, 0);
        --hide-text-color: white;

        --highlight-value-text-color: rgb(27, 14, 139);
        --highlight-id-text-color: rgb(150, 100, 28);

        --highlight-box-fill: yellow;
        --highlight-box-line-color: rgb(0, 0, 0);

        --fade-box-fill: rgb(247, 247, 247);
        --fade-box-line-color: gray;

        --hide-box-fill: white;

        --primitive-value-color: rgb(27, 14, 139);
        --id-text-color: rgb(150, 100, 28);
        --default-font-size: 20px;

        --highlight-object-fill: rgba(255, 255, 0, 0.6);
    }

        text {
            font-family: Consolas, Courier;
            font-size: 20px;
        }
        text.default {
            fill: rgb(0, 0, 0);
            text-anchor: middle;
        }
        text.attribute {
            fill: rgb(27, 14, 139);
            text-anchor: start;
        }
        text.variable {
            fill: rgb(0, 0, 0);
            text-anchor: start;
        }
        text.id {
            cursor: auto;
            fill: rgb(150, 100, 28);
            text-anchor: middle;
        }
        text.type {
            fill: rgb(27, 14, 139);
            text-anchor: middle;
        }
        text.value {
            fill: rgb(27, 14, 139);
            text-anchor: middle;
        }
        path {
            stroke: rgb(0, 0, 0);
        }
        .highlighted path {
            fill: var(--highlight-object-fill) !important;
        }
    </style><g><title>Group of 1 objects</title><g role="graphics-object"><title>Bytes id76 with value b'\x00\x00'</title><g id="object-0"><path d="M48.54940566935203 25.68300419071776 L250.917407129263 26.22612804075795 L251.60288694940132 155.71226955479204 L50.5555381338175 153.6841750849398" stroke="none" stroke-width="0" fill="none"/><path d="M49.006428806316144 25.502451029580886 C103.84729147623648 24.949465267806314, 157.36419578811422 25.37480765060069, 249.80962107799502 24.55388180523102 M50.26214906600039 25.444951771113885 C97.6679173509134 24.62529344262605, 143.8814798058156 25.982085643913628, 249.94912546794686 25.577451816320664 M249.40370580393554 26.19099191166609 C251.88970264060174 68.89868604691446, 252.22253347500765 117.20236877802746, 248.19597541813684 153.3622058768156 M250.20654393064854 25.94946914290643 C250.66600195444587 72.16526840264409, 251.1164631658004 119.329897191843, 250.6524252310963 154.59976797939797 M251.15941327357217 155.23561258034587 C203.81987267673819 156.3372742698372, 153.78145913650474 155.31583314929733, 48.309150387833384 156.78208654899615 M250.49497321913628 155.32329863092124 C172.4997290682533 154.11354161561746, 94.53899782632178 153.44888284914137, 49.663080023990034 154.25765517731364 M50.22013321746069 154.9008195864742 C49.720511348595345 113.34759671453757, 50.43362679398908 74.95142963215055, 48.04468103519963 25.707380848591594 M49.78173893933715 155.0963641153844 C50.461164176166996 118.89817339368511, 50.85875121054816 83.29220676904943, 49.02881355127556 24.14337214195566" stroke="rgb(0, 0, 0)" stroke-width="1" fill="none"/></g><g><path d="M45.26539655399574 17.020507229622414 L257.0623398168151 19.027114516231514 L255.06055593794264 162.98056232299092 L45.12259601610583 159.6373772953212" stroke="none" stroke-width="0" fill="none"/><path d="M44.01891165036335 20.532084731941293 C110.04223906843704 20.361560725051472, 174.47873050698948 20.599627382474218, 255.52006257628406 19.59870316838601 M44.20741176270586 19.443202776601318 C117.55226245225124 17.066063969406603, 191.13267095679169 17.303680917081195, 255.88415709286613 19.854469056399275 M255.0357061241632 20.39521401487877 C254.61736606211377 47.38926754506019, 256.5975199037164 80.02120607204441, 257.8951428701697 162.52732592058967 M255.00784885883496 18.14738262463168 C254.7607418096227 66.44470961182832, 254.40828211597363 114.15145088039424, 255.37731979276785 161.32910609560247 M257.3911910747016 161.21133676841228 C179.31610203009816 159.80700922107783, 103.04866919064267 160.34229841429095, 43.985428271123304 161.46301641898475 M255.15657128347303 161.2205272658865 C195.32424931975532 160.79561745517668, 133.1910398613108 160.91965437323753, 44.201631784047706 161.33662614412432 M44.809891459421635 161.97392336375475 C42.27256358779937 112.05372518662912, 42.819022219370936 63.623688109750525, 45.81075497941016 19.241192641350573 M44.1056297713095 161.53968284302732 C44.225300053750615 118.50070533328184, 44.515393073356265 77.25163147095958, 43.372136127783754 18.176825214294837" stroke="rgb(0, 0, 0)" stroke-width="1" fill="none"/></g><g><path d="M48.429041544150365 23.074066293938 L111.21677008660784 23.106932073290018 L109.93128857122909 74.36157615932404 L48.32480727223154 75.39318125465401" stroke="none" stroke-width="0" fill="none"/><path d="M51.319341827516745 23.575351930441634 C67.28275360978904 26.45519623489067, 80.22040437100455 25.544533675219633, 111.09409682438812 25.217428163136198 M49.288864608316885 24.50984643849669 C72.30990629497948 25.022902921165635, 96.10425843761833 24.27335581386862, 109.36585038686508 24.9786695231548 M110.30125966903854 26.86172416742368 C110.76798798073942 41.23311310345999, 108.53785172040955 59.815624844215534, 110.91894996228922 75.59621301577573 M110.96823791326504 25.90393470310246 C109.90848421573547 36.88909692951237, 108.91367949727386 46.85068617422218, 110.45849837758495 75.42346096112806 M110.93744981560013 75.49855758574529 C88.86688092543248 75.07250167147367, 67.38947995208726 74.16675349361361, 49.052083851663554 74.30961248996287 M110.88118094655997 75.17138309364039 C87.49524986123528 74.32630758052163, 65.7212712459573 74.44416732753378, 49.049725770416224 75.27795236206762 M51.61741465484251 74.27227869053706 C49.78083772791762 61.4514223750862, 49.613129531446596 48.6083149155754, 49.387345509028435 25.59172930566439 M50.35835128017644 74.76994136445707 C49.38687429957007 63.73101343891371, 49.71302996431121 51.930123132697766, 49.18273691529113 24.69575980414884" stroke="rgb(0, 0, 0)" stroke-width="1" fill="none"/><text x="80" y="55" class="id" aria-describedby="desc-0">id76<title id="desc-0">Object id</title></text></g><g><path d="M179.4530291274118 25.6415415916545 L249.36605531463556 26.609085605663783 L250.29037720526605 75.1889009335428 L181.63708494282426 73.28063080674396" stroke="none" stroke-width="0" fill="none"/><path d="M178.11598028832168 26.656417955228157 C206.43698961158333 23.216612774852692, 231.08757644371462 25.41354658680626, 250.25890756931838 23.30658971511051 M180.88542211664753 24.681620974399156 C200.70395110646254 26.28597677104583, 221.68984380462402 25.19664959024255, 250.65743412829212 24.534029233064942 M250.4694882284055 26.615330324210905 C249.7610145165178 38.07987638859998, 249.29145642955515 52.96812606781202, 248.08006626120087 75.38596311893761 M250.8327934754654 25.5083651786856 C250.52068034831441 40.448668134373726, 251.03487333382841 56.9045674350847, 249.07317965661554 75.5521718640228 M248.96037119178922 74.63276687142204 C232.63914374442274 75.6311293589414, 215.06389081443407 72.93536624017212, 179.91824306345723 76.74333264348208 M250.02970455420981 75.87777932015335 C231.91977535379397 74.67865287637542, 212.6778290740338 73.56746156387223, 179.45950604795138 74.04808359392136 M178.80168742831248 76.15862707363499 C178.22912908891536 57.029193537649014, 178.8869503794399 37.89459195422325, 179.36862145877924 23.065296399321028 M180.83336071116005 74.69520758604536 C180.03526224973166 56.505092844238334, 179.20169566839232 39.395438288378585, 179.77053959203954 25.613918446039413" stroke="rgb(0, 0, 0)" stroke-width="1" fill="none"/><text x="215" y="55" class="type" aria-describedby="desc-1">bytes<title id="desc-1">Object type</title></text></g><text x="150" y="115" class="value" aria-describedby="desc-2">b'\x00\x00'<title id="desc-2">Value</title></text></g></g></svg>