<svg data-theme="dark" width="287" height="217" xmlns="http://www.w3.org/2000/svg"><style>
        :root {
        --fade-text-color: rgb(0, 0, 0);
        --hide-text-color: white;

        --highlight-value-text-color: rgb(27, 14, 139);
        --highlight-id-text-color: rgb(150, 100, 28);

        --highlight-box-fill: yellow;
        --highlight-box-line-color: rgb(0, 0, 0);

        --fade-box-fill: rgb(247, 247, 247);
        --fade-box-line-color: gray;

        --hide-box-fill: white;

        --primitive-value-color: rgb(27, 14, 139);
        --id-text-color: rgb(150, 100, 28);
        --default-font-size: 20px;

        --highlight-object-fill: rgba(255, 255, 0, 0.6);
    }

        text {
            font-family: Consolas, Courier;
            font-size: 20px;
        }
        text.default {
            fill: rgb(0, 0, 0);
            text-anchor: middle;
        }
        text.attribute {
            fill: rgb(27, 14, 139);
            text-anchor: start;
        }
        text.variable {
            fill: rgb(0, 0, 0);
            text-anchor: start;
        }
        text.id {
            cursor: pointer;
            fill: rgb(150, 100, 28);
            text-anchor: middle;
        }
        text.type {
            fill: rgb(27, 14, 139);
            text-anchor: middle;
        }
        text.value {
            fill: rgb(27, 14, 139);
            text-anchor: middle;
        }
        path {
            stroke: rgb(0, 0, 0);
        }
        .highlighted path {
            fill: var(--highlight-object-fill) !important;
        }
    
        [data-theme="dark"] {
            --highlight-value-text-color: #110875;
            --highlight-id-text-color: #6e4409;

            --fade-text-color: #BBBBBB;
            --hide-text-color: #121212;

            --highlight-box-fill: #EDB926;
            --highlight-box-line-color: #FFFFFF;

            --fade-box-fill: #2C2C2C;
            --fade-box-line-color: #666666;

            --hide-box-fill: #121212;

            --highlight-object-fill: rgba(72, 207, 173, 0.3);
        }
        [data-theme="dark"] text.default,
        [data-theme="dark"] text.variable {
            fill: rgb(224, 224, 224);
        }
        [data-theme="dark"] text.attribute,
        [data-theme="dark"] text.type,
        [data-theme="dark"] text.value {
            fill: rgb(144, 164, 237);
        }
        [data-theme="dark"] text.id {
            fill: rgb(255, 183, 77);
        }
        [data-theme="dark"] path {
            stroke: rgb(204, 204, 204);
        }
</style><g id="object-0"><path d="M49.4030332558816 23.679681470292373 L248.5058676355163 26.292807984417667 L251.41010005936602 153.9816447316046 L51.66358950469573 156.47470333202284" stroke="none" stroke-width="0" fill="none"/><path d="M50.20400660702148 24.740663364593317 C124.74162077885107 23.93662035093581, 197.67653557010877 24.873158471463633, 249.24429698771667 25.464205117762845 M49.95015241269197 24.277558842940067 C98.09512916071185 25.280024092087125, 145.20837104319781 24.03570816880621, 250.45203897270554 24.76307929159386 M250.12419313699326 25.54480176679188 C250.38177243235745 57.732836926052386, 247.70962697715407 86.96893851261339, 250.12591746306464 154.8433473089982 M250.76374425779014 24.790248876554507 C252.1482352156825 52.49975973622462, 251.30738560922546 78.60788282162066, 249.0654108898536 155.92469986582105 M250.94015478582665 156.76446474862257 C180.37761727121412 155.1085379617096, 110.0192407233801 154.39401691860547, 51.10879066694991 156.6077224315352 M250.86391172337815 155.3044114448899 C187.1504219477033 154.21758638559393, 125.68691787526296 154.64343519924634, 49.44516071477492 155.50719251792307 M48.620831876827516 156.08170665131283 C48.97968231875813 117.88863370770432, 52.07656493999444 83.0996365210512, 51.92515323521574 24.198475534931482 M49.65081631881683 155.12440259170683 C48.429118576201596 104.97147849707628, 49.74206310432086 54.08378647056084, 50.109680384174546 24.315669861071974" stroke="rgb(0, 0, 0)" stroke-width="1" fill="none"/></g><g><path d="M45.816199130367075 20.1774669326219 L255.25371190786092 17.669810626140542 L254.1907388993409 160.592196589435 L44.59273853197206 160.0906541454953" stroke="none" stroke-width="0" fill="none"/><path d="M45.65091559211858 18.46137130924336 C122.18207200331508 19.915945769462855, 201.46601993412858 17.662780431652852, 254.73668327303997 18.668934916685878 M43.62916784696508 19.60898949119227 C99.55189946314566 19.739783057416954, 153.32970692027735 19.722610242293896, 255.99605927593439 19.34892939188192 M255.86925858508852 17.771266039386955 C254.30593078651077 60.41477432448524, 255.49325202125752 105.71325561944545, 256.15041345746397 160.74935224842147 M255.86218313755393 19.592216976559286 C256.7846825497044 55.6404685541591, 256.8905832456962 90.92254658822453, 256.2224673178013 161.15648253120258 M256.63326803526724 161.18899166037878 C190.29412957714257 159.3774618518792, 127.30437272989565 161.54271530898222, 42.61670648046857 161.09008600662995 M255.3322366466875 160.6505877949206 C210.71705062377376 159.24952596142774, 165.878545421897 159.61743067525325, 44.49421985429263 160.76712864398317 M44.01897542839098 160.7580523292715 C44.81577345817952 108.53000739218632, 44.13875148315214 56.953860085000336, 43.11946375686259 19.62526931572593 M44.10675564311002 161.2864936326476 C44.97071759814995 115.83993983235554, 44.36208826749699 69.07788998615328, 43.57674694744768 18.23876962208374" stroke="rgb(0, 0, 0)" stroke-width="1" fill="none"/></g><text x="150" y="115" class="value">b'\x00\x00'</text><g><path d="M51.610449827557254 24.185883872317028 L111.42697165842264 24.06778709008956 L109.69814584342552 73.17787510827971 L50.40198421191638 75.15135197987448" stroke="none" stroke-width="0" fill="none"/><path d="M50.47601093685137 23.84036478822746 C65.58743075312893 24.36362882006945, 85.1848258923049 25.13907067416686, 109.33608569648291 24.258211820035 M50.814161475577876 25.6900142938555 C66.8572284833408 25.48832261263142, 82.25062777871699 25.486643637635087, 110.39047520007365 24.543013145734967 M110.51352533186754 23.76884475389817 C111.67923094455537 38.86728405317993, 111.9822757878226 54.94354657014859, 109.92469269215216 75.0628000781628 M109.19812973132588 25.507509792123344 C110.72254105963108 40.47251804037308, 110.96903218968365 57.71385349095165, 110.60967634577588 75.36317386376845 M108.70543153702891 75.28913798869354 C97.74895350071051 76.37491846106367, 81.3237811488383 73.8304142668451, 49.447027267187465 74.9552832585108 M110.70300932329708 75.96185545520918 C86.85514517870386 74.77334522552137, 63.35745319390403 73.67652719084077, 50.795105191625396 75.83842240712393 M50.525056707401866 74.90155392091484 C49.265145410828815 64.09627923336726, 50.2492322875673 53.90925786853731, 51.496876561279514 25.045390443323946 M50.57099978620432 75.53460546561007 C50.46104918082651 56.513416655654225, 50.71383892053761 35.40592370243609, 50.783621609020145 24.13265820476159" stroke="rgb(0, 0, 0)" stroke-width="1" fill="none"/></g><g><path d="M180.0131335124395 24.727193876690663 L248.68556011792103 24.425377902248588 L249.0439854600246 73.42094803433476 L179.95887763331177 74.90832858821288" stroke="none" stroke-width="0" fill="none"/><path d="M180.233982191834 23.84081443021115 C192.98910599294095 25.428239751919797, 208.12746197523566 24.767963233560003, 249.631118319634 24.78532996919602 M180.48019143334426 24.023707236265885 C196.8477624780373 24.24753708123167, 215.3440501575814 24.25079564930757, 250.7494008584175 25.156719011206114 M248.7284676946309 25.47559905955028 C250.05904019829782 43.481656599545396, 250.03353099079158 61.6914336825484, 250.90540110349446 74.61203828476208 M249.87657659775897 24.925495196898915 C249.67464977433596 42.994500502283216, 250.7915443615226 62.00261571282923, 249.43654797618382 74.80406144630176 M248.01585341425607 74.71167737500053 C230.60899023491206 76.24770602994388, 207.67557628677977 74.85043906001704, 178.13354272882012 73.19243544325491 M249.95559255258817 75.79536304460805 C233.24698461409653 75.10746834136286, 215.95675105656954 75.1935361325745, 180.7360828136439 74.88238046853172 M180.11410824855486 75.66266468417797 C181.5556860633855 64.39415115596839, 178.24447278200927 53.8266780841588, 178.38141916668775 25.19127151618423 M180.4614998456853 74.15342644692615 C180.35016400118684 58.53140072379076, 179.78220915784237 44.769897369619365, 180.0117449993913 25.950037615650984" stroke="rgb(0, 0, 0)" stroke-width="1" fill="none"/></g><text x="80" y="55" class="id">id76</text><text x="215" y="55" class="type">bytes</text><script>
            function enableInteractivity() {
                // Inject the id value to object id mapping into script
                const idToObjectMap = {"id76":["object-0"]};

                function highlightObject(objectId) {
                    const objectBox = document.getElementById(objectId);
                    if (!objectBox) {
                        return;
                    }

                    objectBox.classList.add('highlighted');
                }

                function removeHighlight(objectId) {
                    const objectBox = document.getElementById(objectId);
                    if (!objectBox) {
                        return;
                    }

                    objectBox.classList.remove('highlighted');
                }

                function addEventListeners() {
                    document.querySelectorAll('text.id').forEach(idText =&gt; {
                        const idValue = idText.textContent.trim();
                        if (!idValue || !idValue.startsWith('id')) {
                            return;
                        }

                        idText.addEventListener('mouseover', () =&gt; {
                            const objectIds = idToObjectMap[idValue];
                            if (objectIds) {
                                objectIds.forEach(highlightObject);
                            }
                        });

                        idText.addEventListener('mouseout', () =&gt; {
                            const objectIds = idToObjectMap[idValue];
                            if (objectIds) {
                                objectIds.forEach(removeHighlight);
                            }
                        });
                    });
                }

                addEventListeners();
            }

            // Wait for DOM to be ready
            if (document.readyState === 'loading') {
                document.addEventListener('DOMContentLoaded', enableInteractivity);
            } else {
                enableInteractivity();
            }
        </script></svg>