<svg data-theme="dark" width="287" height="217" xmlns="http://www.w3.org/2000/svg"><title>Python memory model diagram showing objects</title><style>
        :root {
        --fade-text-color: rgb(0, 0, 0);
        --hide-text-color: white;

        --highlight-value-text-color: rgb(27, 14, 139);
        --highlight-id-text-color: rgb(150, 100, 28);

        --highlight-box-fill: yellow;
        --highlight-box-line-color: rgb(0, 0, 0);

        --fade-box-fill: rgb(247, 247, 247);
        --fade-box-line-color: gray;

        --hide-box-fill: white;

        --primitive-value-color: rgb(27, 14, 139);
        --id-text-color: rgb(150, 100, 28);
        --default-font-size: 20px;

        --highlight-object-fill: rgba(255, 255, 0, 0.6);
    }

        text {
            font-family: Consolas, Courier;
            font-size: 20px;
        }
        text.default {
            fill: rgb(0, 0, 0);
            text-anchor: middle;
        }
        text.attribute {
            fill: rgb(27, 14, 139);
            text-anchor: start;
        }
        text.variable {
            fill: rgb(0, 0, 0);
            text-anchor: start;
        }
        text.id {
            cursor: auto;
            fill: rgb(150, 100, 28);
            text-anchor: middle;
        }
        text.type {
            fill: rgb(27, 14, 139);
            text-anchor: middle;
        }
        text.value {
            fill: rgb(27, 14, 139);
            text-anchor: middle;
        }
        path {
            stroke: rgb(0, 0, 0);
        }
        .highlighted path {
            fill: var(--highlight-object-fill) !important;
        }
    
        [data-theme="dark"] {
            --highlight-value-text-color: #110875;
            --highlight-id-text-color: #6e4409;

            --fade-text-color: #BBBBBB;
            --hide-text-color: #121212;

            --highlight-box-fill: #EDB926;
            --highlight-box-line-color: #FFFFFF;

            --fade-box-fill: #2C2C2C;
            --fade-box-line-color: #666666;

            --hide-box-fill: #121212;

            --highlight-object-fill: rgba(72, 207, 173, 0.3);
        }
        [data-theme="dark"] text.default,
        [data-theme="dark"] text.variable {
            fill: rgb(224, 224, 224);
        }
        [data-theme="dark"] text.attribute,
        [data-theme="dark"] text.type,
        [data-theme="dark"] text.value {
            fill: rgb(144, 164, 237);
        }
        [data-theme="dark"] text.id {
            fill: rgb(255, 183, 77);
        }
        [data-theme="dark"] path {
            stroke: rgb(204, 204, 204);
        }
</style><g role="graphics-object"><title>Bytes id76 with value b'\x00\x00'</title><g id="object-0"><path d="M51.77425776772573 26.518904995313108 L249.00970950751667 25.624189865486276 L251.20226009862407 156.3977855191773 L51.70966147060677 154.7287608882932" stroke="none" stroke-width="0" fill="none"/><path d="M51.38805803569014 24.60109942763656 C115.5006297995334 21.791436969361328, 178.889774832045 22.672787210648785, 248.3855413232941 26.0396999876748 M49.6430522457773 25.89488945465971 C117.34209473518676 26.443621628288103, 183.85341429367253 26.598639870433633, 250.71731915855554 24.618727155712406 M250.92495344816803 26.044504911037937 C250.2763446905681 53.5226807252281, 249.64632772308335 80.24966588065692, 250.88491336123346 156.32007612988704 M250.9908281097152 24.038375909079093 C250.50762785664554 59.37885863477482, 249.09750694286038 93.1656830007477, 250.56058414968913 154.79980425287255 M250.89484432232354 153.73922949087893 C188.23869252187015 154.6776495667006, 127.03615982545982 156.22536755348534, 50.51306283681129 154.8305318559591 M249.47890666179794 155.4406634563093 C194.52929419412112 154.58295077449284, 138.60596068116723 154.7803307563681, 50.605487722864574 154.72746984862434 M48.039396646954366 153.7382006844528 C50.5373386615028 111.6954527706363, 47.66235964039332 70.5912451688391, 50.87152554706048 23.111805275048436 M50.62205911045613 154.05661979266964 C49.97957545618672 108.60497235131122, 50.35663151954237 62.80188082698178, 49.99044923133728 25.427118848271846" stroke="rgb(0, 0, 0)" stroke-width="1" fill="none"/></g><g><path d="M45.89748351918149 17.014508211391977 L255.6468251067564 20.687353853991485 L254.78292211985655 159.23174945860526 L42.783109215684554 159.75420858814618" stroke="none" stroke-width="0" fill="none"/><path d="M45.35748430643502 17.901057076072096 C110.8220100265474 16.34604223303339, 176.70959145932906 17.47006422581606, 256.42060619538756 20.70254977088712 M43.30614297938543 18.1201230969938 C117.83116797415599 19.76891984362824, 192.06159560963283 20.588244928089875, 256.67182448706745 18.55447148437716 M256.2008487406182 19.761923907808807 C258.6559532101132 67.85261609349197, 258.39638620626613 118.10991857069688, 257.3729479160641 159.1502873450039 M256.6704589069516 18.197470882540188 C255.16865271959776 48.63365090927398, 255.88302600808805 75.85967200440733, 255.36541231185828 161.53558420123926 M257.5690401683335 161.09649905578982 C176.77470442234875 163.5168321786523, 94.42899635654463 162.3673290043659, 45.62999077361018 159.8075812800175 M256.2572971416331 160.40169245003187 C199.26502767038775 163.38206688617586, 141.34516541689794 163.27855151731026, 44.198254369450076 160.39896859250948 M45.338242034996135 160.9910663238671 C44.99188741088052 113.49047167080633, 46.176187235868774 64.58037592369865, 44.73708718984283 20.624014341744676 M44.478134271393 161.8790187214562 C44.75749712320105 105.95326985497448, 45.40366175961037 50.00036812570855, 44.43119220983569 18.16564724300419" stroke="rgb(0, 0, 0)" stroke-width="1" fill="none"/></g><text x="150" y="115" class="value">b'\x00\x00'</text><g><path d="M48.0426611124592 24.983112346548726 L108.62321775350821 24.039183667921293 L108.19796343479848 74.96437177727744 L51.49255737398282 74.86924449656844" stroke="none" stroke-width="0" fill="none"/><path d="M50.72351138841385 24.535608605388322 C60.494650637896314 23.67350720309433, 73.73691018318812 26.17105892688824, 111.55633073434939 26.069463203371665 M50.12768004240157 25.53885883590851 C72.15187772359218 23.957318024586503, 93.43716518519393 23.975848162334394, 110.47595590720952 25.070894526611518 M111.84143914005692 26.754085640722565 C111.13305815517677 41.76803755375254, 111.3904088996468 57.20167728577891, 109.334711459589 75.98186041487679 M109.961099063666 25.91232140684984 C109.34334239530723 36.752167464849414, 109.75801335120072 51.1621251302252, 109.59378816043375 75.78831755129438 M111.10433647931288 74.56643352718518 C93.26249678715591 74.52244242095588, 75.79494010532714 74.33214067376095, 49.99856421758753 74.85525525962328 M109.73212201096156 75.84519594176894 C95.95835495306409 75.41664167893495, 83.56438124982465 74.89842942011575, 49.04088217906039 75.79320368173654 M51.78965001986525 76.90626121790969 C49.55384843814171 59.567406998058765, 51.263302677645385 49.045783745011775, 50.042729718912334 25.120622145213524 M49.07745615961399 74.14906105547809 C49.25973037178399 61.78408964894006, 49.39428039920607 50.38953582047147, 50.36445221586243 24.955279225022622" stroke="rgb(0, 0, 0)" stroke-width="1" fill="none"/></g><g><path d="M179.9235548545302 23.46948914246635 L249.8888788781246 23.290480353814516 L251.69545198783553 73.60514156648195 L181.18827725612357 75.01100655274234" stroke="none" stroke-width="0" fill="none"/><path d="M181.66686618357522 26.086227406226524 C202.5119925093779 26.30671722956143, 225.10563263327347 23.734657498613913, 248.52534985744572 25.677468191937024 M180.48190136820395 25.86804641016569 C201.26629759756142 23.94126899017092, 223.9149756683381 23.996424402538448, 250.0523159281232 24.800211872448983 M248.8682670450838 24.090461891322565 C249.6183489929942 41.759131511180655, 248.6005009871053 61.39057900257346, 248.16204226214396 73.00642574316309 M249.11876130270645 25.958016377545135 C250.5171704989455 40.347864777412255, 249.14449474158562 57.17691656322765, 250.37515460734838 75.90992469573592 M250.37265331600204 74.4983284411999 C232.09920197469748 76.25531454587583, 211.5140950274829 73.70073406827996, 179.10537398572964 74.6419111301143 M249.52807151665982 74.52809706601715 C225.58035372843298 74.50378829240525, 202.72462657651764 74.5711022654234, 179.56240005729745 74.43121987616911 M181.8936736936627 74.37485707556155 C179.4903840017272 64.35776515141637, 178.22718401443822 49.73380662600681, 178.8569432418621 24.60723558786389 M179.69284505478356 75.96792202147392 C179.82100169056554 58.65748213096287, 181.19496600071113 42.43307989102201, 180.86779039926026 24.976579695760282" stroke="rgb(0, 0, 0)" stroke-width="1" fill="none"/></g><text x="80" y="55" class="id">id76</text><text x="215" y="55" class="type">bytes</text></g></svg>