<svg data-theme="dark" width="273" height="375" xmlns="http://www.w3.org/2000/svg"><title>Python memory model diagram showing objects</title><style>
        :root {
        --fade-text-color: rgb(0, 0, 0);
        --hide-text-color: white;

        --highlight-value-text-color: rgb(27, 14, 139);
        --highlight-id-text-color: rgb(150, 100, 28);

        --highlight-box-fill: yellow;
        --highlight-box-line-color: rgb(0, 0, 0);

        --fade-box-fill: rgb(247, 247, 247);
        --fade-box-line-color: gray;

        --hide-box-fill: white;

        --primitive-value-color: rgb(27, 14, 139);
        --id-text-color: rgb(150, 100, 28);
        --default-font-size: 20px;

        --highlight-object-fill: rgba(255, 255, 0, 0.6);
    }

        text {
            font-family: Consolas, Courier;
            font-size: 20px;
        }
        text.default {
            fill: rgb(0, 0, 0);
            text-anchor: middle;
        }
        text.attribute {
            fill: rgb(27, 14, 139);
            text-anchor: start;
        }
        text.variable {
            fill: rgb(0, 0, 0);
            text-anchor: start;
        }
        text.id {
            cursor: auto;
            fill: rgb(150, 100, 28);
            text-anchor: middle;
        }
        text.type {
            fill: rgb(27, 14, 139);
            text-anchor: middle;
        }
        text.value {
            fill: rgb(27, 14, 139);
            text-anchor: middle;
        }
        path {
            stroke: rgb(0, 0, 0);
        }
        .highlighted path {
            fill: var(--highlight-object-fill) !important;
        }
    
        [data-theme="dark"] {
            --highlight-value-text-color: #110875;
            --highlight-id-text-color: #6e4409;

            --fade-text-color: #BBBBBB;
            --hide-text-color: #121212;

            --highlight-box-fill: #EDB926;
            --highlight-box-line-color: #FFFFFF;

            --fade-box-fill: #2C2C2C;
            --fade-box-line-color: #666666;

            --hide-box-fill: #121212;

            --highlight-object-fill: rgba(72, 207, 173, 0.3);
        }
        [data-theme="dark"] text.default,
        [data-theme="dark"] text.variable {
            fill: rgb(224, 224, 224);
        }
        [data-theme="dark"] text.attribute,
        [data-theme="dark"] text.type,
        [data-theme="dark"] text.value {
            fill: rgb(144, 164, 237);
        }
        [data-theme="dark"] text.id {
            fill: rgb(255, 183, 77);
        }
        [data-theme="dark"] path {
            stroke: rgb(204, 204, 204);
        }
</style><g role="graphics-object"><title>Class Person with 3 attributes</title><desc>Attributes: age, name, blank attribute name</desc><g id="object-0"><path d="M51.73916378265261 24.603021605510335 L249.94282505951492 24.77116914764524 L246.60169776447296 325.3047975382725 L48.20493160210188 325.3766613128183" stroke="none" stroke-width="0" fill="none"/><path d="M51.90603212096242 26.730552822066322 C90.0523094891963 27.371633054501505, 130.6870090271394 25.389543789003636, 248.48689210197034 25.62228264436831 M49.9257620260232 25.06757051063373 C100.6951691780598 24.928441763879082, 152.14339464154435 24.7612129440808, 248.67143337465725 24.879804490360893 M246.94071471967155 24.748255617507773 C248.25444826360405 119.88845773392354, 247.11090342351747 217.41426067663343, 246.8742389218651 324.1190344678448 M248.4374200670875 24.85846966796545 C249.9709479050051 85.52856834119872, 249.71728513252046 145.27934473623304, 248.28973958934193 324.980387078732 M248.3316866605144 324.42470505518514 C175.2352857276159 325.56675426400903, 102.44890497049542 326.4623290704768, 51.420190946331786 326.4027884579538 M247.584465249521 324.23299992331096 C204.61880621592766 325.7964163108406, 162.51982773256626 325.4800683801792, 50.31258533554897 324.1037184195678 M51.09989633686091 324.067468541157 C47.73350912862165 233.5801712252526, 46.74414970596985 138.7441003186199, 49.017626306151094 24.351807102873508 M50.48271215215085 325.1174359789333 C48.70131827826243 207.68438169033595, 48.52362150545482 90.17115579893799, 49.815373912943336 24.991932793021572" stroke="rgb(0, 0, 0)" stroke-width="1" fill="none"/></g><g><path d="M49.88346406460859 26.604188827575385 L109.10712377909641 25.38781701146003 L111.60543976855872 73.90121711746762 L49.81430323992323 73.75430035211559" stroke="none" stroke-width="0" fill="none"/><path d="M49.447425421648205 26.177422896691777 C68.88121194379869 26.60579175735637, 91.46228574948967 26.864869152329774, 109.59581393708565 23.398591313565802 M49.50376317071728 24.29515158415552 C69.284190497802 24.51887615565461, 90.25358327183838 24.895864351208402, 109.57156253828296 25.990844607527478 M108.30406169253448 24.066041023816936 C108.36398513916697 37.64985276698539, 110.86522980232469 52.00605198667196, 109.00321040771071 73.19838002723631 M109.47973418093312 24.462164217493953 C110.65163344909627 41.75909126957957, 110.53236011156233 56.71178310647468, 110.94046787133294 75.87007935066231 M111.40963090184815 73.12961276493165 C92.73833233955358 73.87181958937559, 75.04927336502672 73.96091646082118, 50.82793121120709 73.13534236674649 M109.78691799158256 75.15027818297628 C93.69379594852221 75.6669033800517, 76.14392564052223 75.69556231507414, 49.169275494347644 74.47871157817319 M51.36866757466301 76.86442826991316 C48.81807410760449 63.115571451262, 51.79762633508996 54.263021154158295, 48.000832213520944 23.243234983884324 M49.88707279219586 74.98373263932238 C50.5008765995234 60.55002223230416, 50.607955698225794 43.93862554780969, 49.549792764600866 24.63088417441914" stroke="rgb(0, 0, 0)" stroke-width="1" fill="none"/><text x="80" y="55" class="id" aria-label="id: id82">id82</text></g><g><path d="M166.32506951293857 23.817257078376027 L247.7351216367418 23.012817076524477 L248.8144568726274 76.59006372316941 L167.75544482791545 74.86930817779" stroke="none" stroke-width="0" fill="none"/><path d="M164.2532441838617 23.53058726165376 C193.05732068449402 26.473373679901208, 224.77235725708292 27.367577813536343, 249.2560519620013 26.794653312255043 M166.57571607195723 25.500516517145886 C184.94520345802118 25.174372549956612, 203.65915909553988 24.463464416279315, 248.34507661394582 24.44652049469506 M248.12181922972016 24.302269527790163 C247.1552746573717 40.77100549259672, 248.01121426487612 52.52498376104865, 249.845349974142 74.02179658035423 M248.29777731732776 25.663859463836243 C247.0376849475698 43.277624572754185, 248.05204814081847 61.13322118463695, 247.85001917296614 74.39957722125081 M246.86704994694315 74.51548527409196 C218.15503659980712 76.87766363248461, 189.9489978053057 75.6717995365737, 165.95811616933264 74.1092565888035 M248.4314243663226 75.65502017564773 C224.69090323712865 75.71003396068372, 201.30284142837158 75.17681328316424, 166.1296127088034 74.36625641606868 M164.70941798584198 74.24252271865767 C166.1785934395741 57.834415877324275, 165.56684593820705 40.93970670621618, 166.85475971583588 25.441453386771133 M165.11489092527964 75.81048003722113 C165.62797743549274 62.312999488719235, 166.2146880982327 47.792705189553175, 165.567013566511 25.886769246846008" stroke="rgb(0, 0, 0)" stroke-width="1" fill="none"/><text x="207" y="55" class="type" aria-label="type: Person">Person</text></g><text x="75" y="130" class="attribute" aria-label="attribute name: age">age</text><g><path d="M171.69167045568048 100.60849480892837 L229.34038334989833 100.90711690711892 L232.4966866673131 150.2924585182924 L174.82041632011172 149.97338299544788" stroke="none" stroke-width="0" fill="none"/><path d="M171.52861937452772 101.36534063205576 C186.70828954172833 100.099710109403, 197.79618537156904 100.62554353039563, 231.76417898912393 98.56248861436757 M172.00639272940313 99.54581291686335 C185.87180954916832 100.4254904784341, 198.79337022088444 100.92781498619954, 230.6938841599111 100.2178169353399 M232.83359639787378 99.33383327949542 C229.488328048538 120.24963037094074, 229.16347989351135 137.57012535155252, 232.33607715656393 151.0195820770835 M231.6443956785565 99.09312900811088 C229.6458440253468 114.36729217823881, 230.37771045933192 129.3031685283545, 230.02999976849182 150.00646061865228 M231.39969751892204 149.32878611775146 C209.08285992655348 149.58921188305592, 187.45616274526947 151.26544116423565, 174.8121950670447 151.4416298563455 M230.57619320535346 149.46276382728894 C217.2580741958329 149.14417549299154, 203.49671608773218 150.62071255332313, 173.85311186191686 149.42445927617032 M173.86521035597178 148.29895593319083 C174.68822076900682 131.2891292047987, 172.87869718993664 114.56189513158232, 173.5041037154007 99.32211771392082 M173.16103303929515 149.2306532007728 C173.0742258228698 130.52705358709818, 173.2064254205766 112.39879092167608, 173.3256126986175 100.13824040982084" stroke="rgb(0, 0, 0)" stroke-width="1" fill="none"/><text x="202" y="130" class="id" aria-label="attribute value: id12">id12</text></g><text x="75" y="205" class="attribute" aria-label="attribute name: name">name</text><g><path d="M173.42467811727929 173.9530750899881 L229.52759100140693 173.16583542460378 L229.8874001867534 224.8218876250317 L173.76906299109808 223.54557604956267" stroke="none" stroke-width="0" fill="none"/><path d="M174.6912151223501 174.4845358927185 C194.07850742855106 175.22506417077977, 213.4460994171163 175.2978419551547, 229.12951410786317 176.32659408754708 M172.80358364378785 175.2828567029541 C190.77585057264852 175.13253718080816, 208.4719980868119 175.44391287606064, 230.68652869117878 174.51935262427475 M229.6827294388227 176.29438082167226 C232.42644167489587 188.47519055572286, 230.66123688677274 203.81738010343034, 232.25074933586274 225.86238265266772 M231.93738947514382 174.89424703158508 C232.330095136161 190.3239196779493, 230.75913702032614 206.8743122338782, 230.7580082198793 225.85652426051578 M229.88572129493275 224.904082140268 C212.37489504865513 223.90425595516953, 191.38122880953026 226.85675766609592, 173.4018556062273 226.87634645090898 M231.69672655115252 224.876942184587 C214.18906861246415 224.83154687810173, 196.0945896732999 224.85546967212747, 172.73771978714626 224.64059461513543 M171.6623218007729 225.89419757239807 C172.72484884073063 215.70431500750743, 174.25657114011238 203.8237121169247, 173.58991170248595 174.24104219885174 M172.92036726909882 225.65173040379196 C172.6101422416746 208.4240464556335, 173.66810700007434 193.21204561759063, 173.93830829193985 175.8991325493654" stroke="rgb(0, 0, 0)" stroke-width="1" fill="none"/><text x="202" y="205" class="id" aria-label="attribute value: id17">id17</text></g><g><path d="M174.85436457185682 250.70547336972882 L223.09773200338898 251.29828880809123 L223.7049312448046 301.0926917714835 L174.29142319100833 300.0167811333303" stroke="none" stroke-width="0" fill="none"/><path d="M173.25879615039642 250.48508937284709 C185.1280016794458 249.0967283222223, 195.601438773494 248.75958993517662, 221.13566377876845 248.69264519213868 M173.94978500946777 249.4218646709174 C189.89154266041467 250.43599330712274, 207.78682468314054 249.81863555525058, 222.78756600638675 250.96730369926948 M221.1990699925544 249.0052829817441 C221.89515101991896 268.0252598197385, 224.9919373550673 282.0143843449077, 224.40180638876808 299.89821933881433 M222.24227233081984 250.65416870569146 C223.31347812988025 263.45459231299753, 222.09083743611484 278.11330636037997, 222.59221344737932 300.98661180326246 M224.65892031050558 299.64338037135803 C210.95272837634084 298.77612849002253, 201.22016977363938 301.3319456949879, 171.42352322723744 301.1974470288769 M222.62023961135063 299.824113838289 C212.1177220935905 300.9523434625821, 202.44273728639212 299.623439155068, 172.80957950386934 299.32606992943425 M171.19173510988372 300.5786662967913 C173.79571988874423 286.4377738776098, 175.28225465485082 269.9203522787725, 174.4927881836017 249.00414992042 M173.91117498228027 299.5793260986469 C172.26000135348337 281.0286239991097, 174.099855257844 260.6747455779414, 172.12977238175824 250.4447731040707" stroke="rgb(0, 0, 0)" stroke-width="1" fill="none"/><text x="198" y="280" class="id" aria-label="attribute value: "></text></g></g></svg>