<svg width="273" height="375" xmlns="http://www.w3.org/2000/svg"><title>Python memory model diagram showing objects</title><style>
        :root {
        --fade-text-color: rgb(0, 0, 0);
        --hide-text-color: white;

        --highlight-value-text-color: rgb(27, 14, 139);
        --highlight-id-text-color: rgb(150, 100, 28);

        --highlight-box-fill: yellow;
        --highlight-box-line-color: rgb(0, 0, 0);

        --fade-box-fill: rgb(247, 247, 247);
        --fade-box-line-color: gray;

        --hide-box-fill: white;

        --primitive-value-color: rgb(27, 14, 139);
        --id-text-color: rgb(150, 100, 28);
        --default-font-size: 20px;

        --highlight-object-fill: rgba(255, 255, 0, 0.6);
    }

        text {
            font-family: Consolas, Courier;
            font-size: 20px;
        }
        text.default {
            fill: rgb(0, 0, 0);
            text-anchor: middle;
        }
        text.attribute {
            fill: rgb(27, 14, 139);
            text-anchor: start;
        }
        text.variable {
            fill: rgb(0, 0, 0);
            text-anchor: start;
        }
        text.id {
            cursor: auto;
            fill: rgb(150, 100, 28);
            text-anchor: middle;
        }
        text.type {
            fill: rgb(27, 14, 139);
            text-anchor: middle;
        }
        text.value {
            fill: rgb(27, 14, 139);
            text-anchor: middle;
        }
        path {
            stroke: rgb(0, 0, 0);
        }
        .highlighted path {
            fill: var(--highlight-object-fill) !important;
        }
    </style><g role="graphics-object"><title>Class Person with 3 attributes</title><desc>Attributes: age, name, blank attribute name</desc><g id="object-0"><path d="M48.93056930244852 26.19245358036521 L249.93013002787762 24.450281342543228 L249.69062437749596 326.8027011225746 L49.094771551877535 325.3173003811477" stroke="none" stroke-width="0" fill="none"/><path d="M48.058263689641116 24.84775195019536 C117.01538652512247 25.407277558319077, 182.61160384192436 24.670202392016847, 249.18212434263745 25.13343474762486 M49.49593587423732 24.10644146080087 C98.86687846978978 23.500277570878374, 147.3235500974135 22.51767181589444, 248.2494642333057 24.55059428230051 M248.7634120339928 26.26413434596297 C251.02154466155866 138.3017772336364, 249.99283765054548 253.1002953929354, 246.5820058675732 324.82312847125894 M247.66359297697193 25.63498133926975 C246.25076245163152 90.55563572824282, 246.27589973589326 155.78923551775748, 248.06664950371206 324.99188318812816 M249.9672514730373 324.47272519105076 C176.69287003179528 322.25394950860544, 108.31503266491006 325.73482075531535, 48.379642093660316 324.1529386787691 M247.4652966145672 325.37696953498954 C203.76505165649536 325.0907305877472, 159.43771779835004 325.2920781538184, 49.44123554063478 325.76413382301695 M48.572386646522574 325.56785705311194 C49.71212139601332 220.1744447517683, 49.67005890929573 115.16763930408887, 51.0699940104452 24.60275044322168 M50.54725238499659 324.91898176187635 C49.76106223834306 219.7192449372325, 50.1531583259538 113.89171969040467, 50.569699880913895 25.177110485506482" stroke="rgb(0, 0, 0)" stroke-width="1" fill="none"/></g><g><path d="M171.15651578675073 100.30782612374136 L232.52371476628426 99.08227644758779 L232.4710419082935 150.66740236029355 L173.29794545380375 149.33382817539945" stroke="none" stroke-width="0" fill="none"/><path d="M172.52775063718485 101.39418868678408 C195.60190584580346 100.64463409727126, 218.78440361654552 100.68038782837971, 229.8497583099 101.4877598235213 M173.60390241780522 100.86544368551975 C190.48087640112237 98.67224347040613, 209.595733826453 98.77977777920192, 230.34009734394758 100.23048060506535 M231.3892993776537 98.88800550970006 C229.60925786636273 119.07038788431504, 230.96035534721952 133.4246644125789, 230.8827080241014 148.37372968950714 M231.47746597419368 99.24337770562764 C231.6113746445258 113.17089578038232, 230.36638563110574 123.88526665148447, 230.22780228834043 149.6535616942649 M230.77822063637797 151.69741245071597 C212.6722553441519 148.3504587306974, 191.76590985266472 149.387325920037, 171.376280524267 150.73525997301005 M231.7442474298307 150.38421582789647 C213.50642517157942 149.3875915796056, 197.3316000342054 149.11499184261822, 173.18834072084985 149.21490991275846 M174.73864475293462 149.50717391651017 C171.99708238297768 131.83366185113522, 172.94707485684168 112.34880370445816, 173.54837573704555 100.1169401919793 M172.25497015779507 150.85930304971185 C172.85926128897594 138.61601325042014, 172.56271641532993 127.7571397678069, 173.72917204275106 100.39444561062494" stroke="rgb(0, 0, 0)" stroke-width="1" fill="none"/></g><text x="75" y="130" class="attribute">age</text><text x="202" y="130" class="id">id12</text><g><path d="M173.25011580528377 175.48572785574913 L232.01124754489547 176.09297685765407 L232.12502613159808 223.010543848155 L171.05727567342313 225.05029130017917" stroke="none" stroke-width="0" fill="none"/><path d="M172.47035672357228 174.49850390314364 C184.75016551361475 173.3558974701488, 200.6119416731542 174.8072758787464, 231.9069920411535 175.8205039482539 M173.0358867927007 174.23025212485436 C191.28943366078775 174.30746593887315, 209.8038903034977 173.79270064469685, 231.3568118736811 175.12658455467567 M232.78406007536793 174.88657328660355 C230.69190414305174 193.82588365317434, 231.10538619328574 212.17576023712817, 230.20873350000187 224.8560390109806 M230.62816444437928 175.15038323639288 C230.92488258570555 190.67071947902957, 231.60125904996244 206.03277500157725, 231.27511594642422 224.81125151742654 M231.45924762617082 223.6066341397163 C211.56689044318324 226.5129497138748, 193.00806915330742 224.6581976727742, 173.38670455612618 223.36795280194784 M230.5716382220731 224.33469296016904 C218.86914429045567 224.8106480570525, 208.4350212213041 223.96007392304108, 173.21745559864297 224.7665005104733 M173.38910597921227 223.00499242145747 C174.43672847257062 213.49378364811923, 172.65609320413571 205.87353067261168, 171.4044889100983 175.80567810040728 M173.84948185980318 225.25355342963476 C172.27952126035746 207.77499932436612, 172.13533789372417 190.2522781363169, 172.80899196109326 174.34331685241216" stroke="rgb(0, 0, 0)" stroke-width="1" fill="none"/></g><text x="75" y="205" class="attribute">name</text><text x="202" y="205" class="id">id17</text><g><path d="M174.22232020867938 251.8608226515108 L222.2058493867623 248.49966652273545 L222.93878707059108 299.21251830172173 L173.6412957171421 301.28121385988203" stroke="none" stroke-width="0" fill="none"/><path d="M173.91675253703622 251.9297746756789 C192.1140245328461 249.85299461215865, 208.63468136369124 249.0799592223403, 223.30663740960173 250.38438571042713 M173.3866204324581 250.81703861284228 C188.94470180342057 250.26802490063994, 204.29042380673556 250.73722007824713, 223.00639951721297 249.58592591998863 M221.20362875330986 248.4254719655809 C221.87020447046038 264.847750466239, 223.01918613547414 276.40787427178986, 224.8492661811602 300.61796570063046 M223.09820383910915 250.48814718984994 C224.26940448249155 266.1315860630682, 223.79983903268564 281.7802169308689, 222.5319226077533 300.7295961414741 M222.10913129212443 300.7281622573848 C209.30730872522923 299.83500401477, 197.40643406118653 299.5096006487028, 172.23919497502524 299.9791862055175 M222.38993716168463 299.39346889341056 C203.38720560114695 299.61797575432934, 184.25390998446684 300.29397269972634, 173.8049202767598 300.83901783756863 M173.39323652683663 298.5672284089953 C170.78632239005972 282.74747519015955, 171.5602054138892 269.6002912659079, 172.6155794777798 251.62179441033686 M173.62523298046833 299.7561132498416 C172.51400335460065 285.4912931610652, 172.6541277115523 272.0097570093494, 172.5301437870049 250.5688907297421" stroke="rgb(0, 0, 0)" stroke-width="1" fill="none"/></g><text x="198" y="280" class="id"></text><g><path d="M51.26635990929862 25.59642638744758 L109.58879188175469 24.03168940825206 L110.69136645568318 76.07998951366294 L48.10700342053875 74.54912644789994" stroke="none" stroke-width="0" fill="none"/><path d="M50.44598784858929 25.45406819048253 C72.2188679812946 25.10083209757024, 95.1563176301666 24.02435610729751, 111.72382838689093 24.345191783293235 M50.515746520624894 24.776406541728523 C69.90558019417449 25.509428967107816, 89.17642524932242 24.919864598556217, 109.39476971395077 24.357012402317423 M109.79269932834286 23.779501792949677 C111.59196908817086 41.104324111125564, 108.69430309942906 58.12041128968316, 110.48672523890816 73.84876625152755 M110.44851111722478 24.727968541584858 C110.83750196032058 44.228612543592675, 110.41571894164635 62.237228029937484, 109.02509978396853 74.54789760856139 M110.65345469916635 73.49614401501591 C95.80074344288417 75.8009952374188, 81.21008082611941 75.52032423938816, 50.601696573418465 76.96876948339005 M109.66007628697491 75.91098708282587 C92.5178260048407 73.98499701553854, 75.04857464885954 75.19081374296796, 50.188688560455546 74.31760474948425 M49.931819083313336 74.72720558494356 C48.19343522501822 59.027297576144086, 51.27518057070127 43.95374481336465, 51.40653633594819 24.566145325706145 M49.67991231951707 75.3782540860951 C50.29737340318253 64.30836569644742, 48.89976160623702 53.78466518476533, 49.71748683806009 25.48211728197747" stroke="rgb(0, 0, 0)" stroke-width="1" fill="none"/></g><g><path d="M165.32773911266253 24.705856200549803 L246.75236513084243 26.170408055052768 L247.7014482433864 75.918860965974 L167.3857789311653 74.74246027689006" stroke="none" stroke-width="0" fill="none"/><path d="M165.20085559687672 24.09120200072803 C190.47621052747616 26.84610601015431, 211.19724058362905 26.522608242328893, 248.04217533858153 26.580792293776284 M166.2487870260256 25.51148148342212 C192.4062097731383 25.380746366972613, 217.11631174687327 25.37605339830444, 247.44748510496393 24.553455538155227 M246.78074318035388 23.232833189775043 C248.18122087931323 45.036794048077894, 247.63987354219483 61.07933825368617, 246.7550459679571 76.82942247081544 M247.4812128205249 25.300705324596517 C247.83462662223667 36.99598913962555, 248.56262837676607 48.03397170230505, 248.0087906137687 75.84506103518979 M246.4167228095159 76.11574637888859 C231.19562491624046 75.663746658229, 213.92647497972655 74.23950308725442, 166.7926935523618 75.87389057654536 M247.11955490114366 75.19519886323972 C219.1377847369122 75.67747761978934, 189.03202680951514 75.30286726427197, 165.92974567909343 75.52040836077407 M167.0134497041296 74.6798431616024 C167.18343075545855 57.07142477566239, 165.10309687226845 41.05791319015487, 164.45490428304564 23.32797399322819 M165.61421873055565 74.2218972687441 C166.3810313115261 63.99494135735677, 166.7266098449225 55.655759744242445, 165.87004933895668 25.062139762504298" stroke="rgb(0, 0, 0)" stroke-width="1" fill="none"/></g><text x="80" y="55" class="id">id82</text><text x="207" y="55" class="type">Person</text></g></svg>