<svg width="273" height="375" xmlns="http://www.w3.org/2000/svg"><title>Python memory model diagram showing objects</title><style>
        :root {
        --fade-text-color: rgb(0, 0, 0);
        --hide-text-color: white;

        --highlight-value-text-color: rgb(27, 14, 139);
        --highlight-id-text-color: rgb(150, 100, 28);

        --highlight-box-fill: yellow;
        --highlight-box-line-color: rgb(0, 0, 0);

        --fade-box-fill: rgb(247, 247, 247);
        --fade-box-line-color: gray;

        --hide-box-fill: white;

        --primitive-value-color: rgb(27, 14, 139);
        --id-text-color: rgb(150, 100, 28);
        --default-font-size: 20px;

        --highlight-object-fill: rgba(255, 255, 0, 0.6);
    }

        text {
            font-family: Consolas, Courier;
            font-size: 20px;
        }
        text.default {
            fill: rgb(0, 0, 0);
            text-anchor: middle;
        }
        text.attribute {
            fill: rgb(27, 14, 139);
            text-anchor: start;
        }
        text.variable {
            fill: rgb(0, 0, 0);
            text-anchor: start;
        }
        text.id {
            cursor: auto;
            fill: rgb(150, 100, 28);
            text-anchor: middle;
        }
        text.type {
            fill: rgb(27, 14, 139);
            text-anchor: middle;
        }
        text.value {
            fill: rgb(27, 14, 139);
            text-anchor: middle;
        }
        path {
            stroke: rgb(0, 0, 0);
        }
        .highlighted path {
            fill: var(--highlight-object-fill) !important;
        }
    </style><g role="graphics-object"><title>Class Person with 3 attributes</title><desc>Attributes: age, name, blank attribute name</desc><g id="object-0"><path d="M48.45414217965369 23.192481205886757 L246.7722998264681 26.93282068997757 L248.99334929380996 325.51993746571566 L49.92995090283468 323.1986025990299" stroke="none" stroke-width="0" fill="none"/><path d="M50.27681917888688 25.787245273671843 C105.1674726849918 27.537157428472256, 159.69233199147612 26.353722749518678, 247.88362832872815 26.697385279940626 M49.17417184838435 25.876683290463873 C107.27332630958314 23.531011021203966, 165.42719553673544 23.47100484986338, 248.38668038170402 24.728263520615805 M249.43679696966814 24.162979032428392 C249.78452851998819 120.21155564280643, 250.56187492873883 215.78246885923127, 248.549993990844 325.38418685497027 M248.1253800338888 25.64166579868407 C247.37910894588407 91.1763568592227, 246.99578041409285 158.02163931132353, 247.86801854837873 325.5728221800213 M249.39726428840825 325.24891222900095 C205.32067235430972 326.58634987223576, 162.2185158456201 326.9992223092412, 50.242945311076085 325.3032960647244 M248.18073754240544 324.2431265759319 C198.94687777480576 323.4669458945869, 150.6426784570325 323.31999449042155, 49.748107413633434 324.46925402706785 M50.063937162613605 325.1402404324738 C48.71014473129332 259.57285504474464, 48.72938170905552 195.44504688497034, 49.52864979372741 25.44317622056762 M50.082887331084564 324.8680126054086 C50.96669813979214 239.28467474865167, 50.868156603591494 154.3073432658688, 49.97114708574624 24.68950083879457" stroke="rgb(0, 0, 0)" stroke-width="1" fill="none"/></g><g><path d="M48.24369442592081 24.01928261520803 L110.60509486515835 24.073790854270452 L110.9107486461937 74.24644169435868 L51.441248017720376 74.64258240693388" stroke="none" stroke-width="0" fill="none"/><path d="M50.3303995896231 23.23213290754022 C68.42593020176574 25.078977843407095, 86.30891977209708 26.763062382787666, 108.79481812932568 23.770599325343046 M50.37719777056254 25.12032716475116 C68.16238773140324 25.266561923839415, 87.41770526374754 25.863963805012563, 109.36910670250028 25.021363341593204 M110.01506262505465 23.327560539985978 C111.39532837630922 39.34943082811858, 108.70210908334104 50.94020780487575, 109.53803257395074 73.42780660642616 M109.36652575061689 25.621274434452815 C110.45752010374008 39.48211801097921, 109.61247454721773 54.1223848718765, 109.95008437829539 74.0755979833513 M109.12534845000694 73.99080121282284 C87.45317803685674 75.55958280903701, 62.62628184218951 74.46902884827178, 51.02797076027784 73.75084767881114 M110.98099420316564 74.65653907213948 C90.78782812295893 76.41812107661319, 72.20647230605522 75.52941497884594, 49.45588169174113 74.07327573831938 M51.323561332788145 73.11246891854178 C50.15035782281448 60.79917671977997, 48.72901793542329 46.39417117079467, 51.78617763794587 23.288939496852095 M49.04554842143043 74.06240571459081 C49.25138418370981 57.261332620244865, 49.694766288250314 40.84553494056776, 50.14637025336554 25.731119336382886" stroke="rgb(0, 0, 0)" stroke-width="1" fill="none"/><text x="80" y="55" class="id" aria-describedby="desc-0">id82<title id="desc-0">Object id: id82</title></text></g><g><path d="M164.01608906781397 24.588205858422384 L248.73589935103143 25.65515393638441 L247.83976528659898 74.63157544328287 L164.34854223506065 73.17484400623393" stroke="none" stroke-width="0" fill="none"/><path d="M165.80638418474467 24.54458126165558 C181.05511838831282 26.351005565883725, 199.59295570190542 25.76561252548468, 247.9348335271995 26.90847363112118 M166.93157976623579 25.792882568561232 C196.82115403220368 24.043126630833846, 227.63743688080046 25.336629604781887, 248.98439856832056 24.181690772220925 M246.14391715547862 24.880633489695967 C245.94532531220548 42.1648315397195, 247.32853547805973 61.05348370797543, 247.28803015121184 73.55634369901301 M248.46858492669273 24.501517253585448 C248.29754444276566 37.83118473017975, 246.70914462434973 51.20843587881341, 248.45020863912825 74.20335054243102 M248.01665723093208 73.22308687102849 C225.88765938764743 74.05837496632891, 207.12941957458625 76.5046313013611, 165.89154635040944 76.92895094855501 M247.61467407879718 75.21290191502801 C219.17880315069985 75.00633536804693, 189.34300818612155 75.9379275758872, 165.04724931038456 75.9108558029168 M166.085799959481 74.92345446415682 C166.379033696135 65.67298711664503, 165.89466519964682 54.26793094008322, 164.81444051592112 24.80053973781442 M166.333808635002 74.51657986143685 C165.46958513477057 57.83176205497983, 166.03446997775174 39.084370654240125, 165.58203371449957 24.898594222287553" stroke="rgb(0, 0, 0)" stroke-width="1" fill="none"/><text x="207" y="55" class="type" aria-describedby="desc-1">Person<title id="desc-1">Object type: Person</title></text></g><text x="75" y="130" class="attribute" aria-describedby="desc-2">age<title id="desc-2">Attribute name: age</title></text><g><path d="M174.31165330594695 98.67316607414759 L230.72598151595597 99.4156895279436 L230.51064077813226 150.4163830887039 L171.73586408246987 151.27559394410807" stroke="none" stroke-width="0" fill="none"/><path d="M173.95520029813355 98.1153654616449 C192.74583583706354 101.56319511580054, 210.1183582443942 100.20171314229773, 232.55283116756974 99.65776584792422 M173.6566277973023 99.54978710283046 C196.62218476387176 99.17943251730578, 219.83177255528614 98.99118788209022, 231.23023634444144 99.0150936882121 M230.3168843659012 100.93305552619397 C231.71057357101915 116.65535584353232, 232.72629137513977 133.28156271563296, 230.39915146953308 149.30415825734843 M230.76116506945067 100.63091379536094 C230.68719836614633 112.32771931919582, 230.51580882785052 123.769734186942, 231.44174551414778 149.98162054228223 M230.88296316827157 150.39435611275584 C210.68351548368025 150.49862298261294, 194.97683157887946 148.99560747251155, 173.19244720392402 149.20796754490195 M230.23974110369963 150.83585545178053 C215.06126054605065 149.0053809768332, 199.95676002583596 149.31811067458548, 173.6460413691678 150.80223236892164 M173.61600556496526 148.45039513090055 C174.74695313255646 129.66409910940666, 173.8862558321588 111.45340313313037, 172.13797805985254 100.84196850060988 M173.4175083102692 149.41245802080084 C173.62491229403898 135.20394327500776, 172.8700645086837 122.52679002075872, 173.79412472532576 99.8496373738741" stroke="rgb(0, 0, 0)" stroke-width="1" fill="none"/><text x="202" y="130" class="id" aria-describedby="desc-3">id12<title id="desc-3">Attribute value: id12</title></text></g><text x="75" y="205" class="attribute" aria-describedby="desc-4">name<title id="desc-4">Attribute name: name</title></text><g><path d="M172.34322011899653 173.8443728545259 L231.69876423342686 174.79449077027752 L231.58410905861842 223.567209221362 L173.0279092805443 225.80220608194512" stroke="none" stroke-width="0" fill="none"/><path d="M172.9897586069601 174.47171169935075 C192.38470611787815 176.28485228418816, 212.83033609882756 177.09584671458987, 232.670920123469 176.17871844857953 M173.58908899361663 175.37128301256308 C190.4575800709751 175.45491640924055, 206.61901249606424 174.88366668546738, 231.39799139843683 175.0249368256858 M231.13006958114477 173.70905633553727 C230.13205533366664 185.32142307507038, 229.1061128073571 197.42278038280597, 229.4337866239837 224.25051170657355 M231.63338500141197 175.64151796953104 C231.98705034450126 189.30480300553404, 230.42143661177766 202.23334321397724, 231.42128565723635 225.9910981191304 M231.87597885866106 226.68775085944338 C215.93061728924638 226.16570351211047, 196.4799942381412 226.32894307545578, 173.3697215751545 223.0745894718104 M231.8258249606656 225.60552796928954 C218.5394650501937 224.29436550130671, 205.50941973487699 225.42507440981066, 173.39489232096324 225.16558980263503 M173.82469017951632 226.186514568227 C174.8690579131543 205.19654557566872, 173.205233990769 186.6120598121501, 171.29999260822217 173.39262506093763 M172.37945998579 225.62988466668713 C173.79838374936733 210.79453527475079, 172.19989205107035 198.54537836704964, 173.59561613954872 174.71506770938487" stroke="rgb(0, 0, 0)" stroke-width="1" fill="none"/><text x="202" y="205" class="id" aria-describedby="desc-5">id17<title id="desc-5">Attribute value: id17</title></text></g><g><path d="M172.66826000977827 250.1924103401462 L223.73923363137416 251.04204744414255 L222.8428001851952 299.24149845578705 L171.46065719425454 301.4852597955727" stroke="none" stroke-width="0" fill="none"/><path d="M171.97923759151686 248.97747029265207 C190.9810419094087 250.94539768448357, 206.85168578548888 247.76498082320148, 224.69710808052375 251.04581364383407 M172.69175692844146 250.5276712518333 C187.04969611986994 249.29195001215993, 200.32307121925132 251.05955066026786, 223.3202304424485 249.1797765127071 M223.7148333638192 249.51547558180263 C222.10057422961705 267.63838440531606, 224.88203059469149 287.71521589141327, 223.6551369387678 298.1925741909037 M223.80023162323053 249.79052398310137 C223.55864951500763 268.67542327892426, 222.64618201994531 286.2881938730346, 222.82137644952866 300.41753894921453 M222.65399129757967 300.3792440533904 C209.4901357136879 301.8448087765538, 198.91539143298476 300.3657168936141, 172.26781199498691 301.79775485811 M223.03889044790077 299.00987490511005 C209.90814194270288 300.7459799778076, 197.0702219908922 301.07237036498077, 172.99739368961497 300.87868674694033 M174.33516765321022 298.66542653409175 C172.7480205139335 287.3604583032654, 172.863148193602 271.9829634043359, 172.53281765014756 250.80227770955932 M172.9133246400401 299.3271765175656 C173.18655180991806 285.61781029869854, 173.0420539066137 273.6012761855094, 173.80071391907686 249.721628068573" stroke="rgb(0, 0, 0)" stroke-width="1" fill="none"/><text x="198" y="280" class="id" aria-label="blank entry"></text></g></g></svg>