<svg data-theme="dark" width="273" height="375" xmlns="http://www.w3.org/2000/svg"><title>Python memory model diagram showing objects</title><style>
        :root {
        --fade-text-color: rgb(0, 0, 0);
        --hide-text-color: white;

        --highlight-value-text-color: rgb(27, 14, 139);
        --highlight-id-text-color: rgb(150, 100, 28);

        --highlight-box-fill: yellow;
        --highlight-box-line-color: rgb(0, 0, 0);

        --fade-box-fill: rgb(247, 247, 247);
        --fade-box-line-color: gray;

        --hide-box-fill: white;

        --primitive-value-color: rgb(27, 14, 139);
        --id-text-color: rgb(150, 100, 28);
        --default-font-size: 20px;

        --highlight-object-fill: rgba(255, 255, 0, 0.6);
    }

        text {
            font-family: Consolas, Courier;
            font-size: 20px;
        }
        text.default {
            fill: rgb(0, 0, 0);
            text-anchor: middle;
        }
        text.attribute {
            fill: rgb(27, 14, 139);
            text-anchor: start;
        }
        text.variable {
            fill: rgb(0, 0, 0);
            text-anchor: start;
        }
        text.id {
            cursor: auto;
            fill: rgb(150, 100, 28);
            text-anchor: middle;
        }
        text.type {
            fill: rgb(27, 14, 139);
            text-anchor: middle;
        }
        text.value {
            fill: rgb(27, 14, 139);
            text-anchor: middle;
        }
        path {
            stroke: rgb(0, 0, 0);
        }
        .highlighted path {
            fill: var(--highlight-object-fill) !important;
        }
    
        [data-theme="dark"] {
            --highlight-value-text-color: #110875;
            --highlight-id-text-color: #6e4409;

            --fade-text-color: #BBBBBB;
            --hide-text-color: #121212;

            --highlight-box-fill: #EDB926;
            --highlight-box-line-color: #FFFFFF;

            --fade-box-fill: #2C2C2C;
            --fade-box-line-color: #666666;

            --hide-box-fill: #121212;

            --highlight-object-fill: rgba(72, 207, 173, 0.3);
        }
        [data-theme="dark"] text.default,
        [data-theme="dark"] text.variable {
            fill: rgb(224, 224, 224);
        }
        [data-theme="dark"] text.attribute,
        [data-theme="dark"] text.type,
        [data-theme="dark"] text.value {
            fill: rgb(144, 164, 237);
        }
        [data-theme="dark"] text.id {
            fill: rgb(255, 183, 77);
        }
        [data-theme="dark"] path {
            stroke: rgb(204, 204, 204);
        }
</style><g role="graphics-object"><title>Class Person with 3 attributes</title><desc>Attributes: age, name, blank attribute name</desc><g id="object-0"><path d="M49.88721381613474 24.295283467503754 L246.22522456251278 24.35228015857924 L249.21557072766936 323.64245400273336 L48.430319784880105 325.2153276192282" stroke="none" stroke-width="0" fill="none"/><path d="M49.65348817615848 26.25944788386825 C94.90036212158091 24.712978317146852, 143.62545070363586 27.970727178833947, 246.8178096186613 23.10141798164178 M50.799363028816906 25.606789070439177 C92.75733013142285 23.097050965309897, 134.138382129614 23.844662371398368, 247.7988421720338 25.875233007058227 M248.8880212075304 23.86930397392895 C249.19311376034065 101.49143770280652, 250.08043459230444 178.89791070251786, 247.42440797102282 323.73704122391626 M248.47974629781723 25.362123586600188 C249.18873194523783 122.12128889465511, 250.05106511108983 218.89812389886598, 248.65234061079812 324.97551790967026 M246.49688034704872 326.67799260794374 C204.22213439664645 324.9127518342467, 160.04272104343337 326.24225998445166, 51.867547496889394 325.98185473556583 M247.60359956694464 324.4019672176187 C176.13889744430568 326.16586125746295, 103.18087044874567 325.5133261473303, 49.82241004971183 324.7684653933819 M49.27931365887403 325.60644409204815 C51.588666703688254 216.27317552469148, 50.32547283489643 110.01009936739874, 48.747079273885994 25.74132977426696 M49.76984004438558 324.3408055879596 C47.59996451049388 213.63921583543993, 47.98025988026755 101.94818262021586, 49.58756593630973 24.967478404397898" stroke="rgb(0, 0, 0)" stroke-width="1" fill="none"/></g><g><path d="M172.46149336639115 100.62862990663321 L230.59240034289525 100.87781785053699 L232.67149697103312 150.42936696424619 L174.40115435456238 149.78430614041326" stroke="none" stroke-width="0" fill="none"/><path d="M171.18573589192903 99.8874902729792 C190.86803256899898 101.99945618334876, 207.91806229021134 101.13342268598484, 231.88142123047447 98.23994038250964 M172.9435881222932 99.56240787158372 C195.48890031440837 100.38907078644114, 218.8470231533873 99.23298813264942, 231.05363459894753 100.74120126544835 M230.85112026953044 100.2213301917834 C231.45224701597888 112.68967585681686, 228.66090293388666 122.1240119573595, 229.0720440536605 149.42399955370706 M231.44813940855812 99.58464369592194 C232.26707215629636 111.0165203972833, 230.98986473433493 122.63821755676676, 230.5858034763418 150.65020211507283 M232.77810775879695 149.97307358167023 C217.6281471140959 149.84140437687805, 207.85588479848852 151.66647707102072, 171.82541525973036 151.82275967645768 M231.48324292214883 149.97278601887356 C209.422813872527 149.99838250943228, 185.18429612674493 150.9818688207251, 172.30392475247214 149.38917490844298 M173.07051625206662 151.81570965179114 C171.77783351022885 138.15449093293677, 173.42397336926746 127.54316015258445, 173.8507926320269 99.17335632903651 M173.86871514049906 149.58958501673527 C173.17334979787782 130.77786412553644, 172.46160781747557 111.89427288996102, 172.7738241669422 100.02327946032636" stroke="rgb(0, 0, 0)" stroke-width="1" fill="none"/></g><text x="75" y="130" class="attribute">age</text><text x="202" y="130" class="id">id12</text><g><path d="M172.16856525627637 176.32353199377914 L229.38808132460252 175.59188767059794 L230.33257050905118 223.67047350528335 L174.37556870218177 225.05347034623398" stroke="none" stroke-width="0" fill="none"/><path d="M171.0125770409335 174.70720900555798 C187.76346173455167 174.73260785885776, 198.78280913817022 174.76311279382824, 229.3891798807302 174.6347027075214 M173.9816954738672 174.36959510068752 C186.45907009625543 174.7742402434452, 198.60941565776974 174.67932612267833, 231.41667497405535 174.91651590439892 M229.0721574442489 176.73352982089506 C228.95546240556746 188.15459587815155, 231.34706614418192 197.71101180830388, 229.27069281621743 226.72449718225877 M230.76911318332196 175.3333104836162 C231.649824878483 188.6407380903925, 230.34199310791115 201.5035050481883, 230.33813927449538 224.81034155141987 M232.62808407471314 225.93963202592707 C209.45525154389867 223.19216762712102, 188.60460328577568 226.63550730764857, 173.71451179145126 224.86199864869067 M230.41976699190482 225.51746728556546 C212.1023167523106 225.33575170732306, 192.87409494895428 226.0925580189119, 173.0654645015143 225.47679486347442 M172.47870998913848 225.33761942088506 C172.61518594221872 211.3826593508921, 172.16145178909872 198.92632944277926, 172.60075532870053 173.35407975994545 M172.87643297807514 225.48236787755715 C172.3703336606506 208.80277629259518, 173.8649072694407 195.33020267785005, 173.80386397855855 174.7105337111729" stroke="rgb(0, 0, 0)" stroke-width="1" fill="none"/></g><text x="75" y="205" class="attribute">name</text><text x="202" y="205" class="id">id17</text><g><path d="M172.1201676748551 248.01877065827935 L222.39800888296676 249.12431770516235 L221.96233517509793 298.58766382931395 L171.53355943073586 300.7348531051414" stroke="none" stroke-width="0" fill="none"/><path d="M173.03459589058312 251.77775197143575 C188.85323742945977 249.32282488710814, 206.2486180185031 250.69097143282434, 223.5229497940083 249.15155186947663 M173.89110611984339 250.0128640451412 C184.38980616182397 248.8343456506917, 193.5343801014003 249.70410285598297, 222.2407873679462 249.98420599077104 M224.30792185422484 250.91216203715823 C222.11594777280607 267.89170445906416, 221.95017160921833 286.36275516519095, 221.45023594533288 300.441578095282 M223.291092946313 250.06194311775454 C222.51974974235216 264.5357476338962, 222.45919020429736 280.6432070438013, 222.92839386933926 299.15259891132007 M222.58676673961503 298.90548251010745 C201.64218723583573 300.9324884821358, 183.75462256914398 298.89054070142754, 173.8227250373 299.2429660367035 M222.44628750751036 300.91977867999276 C211.8864495568172 300.8856117419464, 202.10022133659055 299.44691784368825, 172.54066638970787 300.1736833970712 M174.5242300375132 298.88600929925735 C171.97831681478377 289.6375519166423, 171.97398421625277 275.07020824114835, 172.6283923591518 249.2623686898243 M172.32055455341356 300.12398956771943 C173.97831933418723 283.81712077612315, 173.8045090819799 267.87333102196595, 172.0971384651921 250.33541206819052" stroke="rgb(0, 0, 0)" stroke-width="1" fill="none"/></g><text x="198" y="280" class="id"></text><g><path d="M48.18104601075613 26.336644243739883 L108.93502612000744 25.875543278325097 L108.93167720827688 73.70601448142706 L50.969976262391874 74.18366234186459" stroke="none" stroke-width="0" fill="none"/><path d="M48.95576075091147 26.223007112904842 C65.4966551512232 24.543051943295133, 86.3339626985215 26.936768620748623, 109.87322300990394 26.817457384447756 M49.19688523723756 25.109086503378293 C66.92502294113174 24.61773480162971, 81.955127209365 25.608381486434947, 109.35107370270975 25.05009009065858 M111.457029500111 26.380215151807807 C111.51221161160902 37.30665896820801, 110.81605658292125 47.76307640752012, 111.6527720497342 75.060571676345 M109.60517276071832 25.414230653265356 C109.9437340179658 37.30489361915049, 109.73617646050411 51.9401633782761, 110.29939368533475 75.60070790107608 M108.16394020619926 76.74212221506045 C88.20101696283606 73.87612551065152, 63.572031708437564 77.33443256765906, 49.62507037739074 74.6006207404882 M109.25534961700693 75.05866678659004 C98.00472424890994 74.65187899871582, 85.00784291388825 75.74355444942013, 49.19877674474749 74.66170269927122 M51.82265484057298 74.43967124080154 C49.049052125535525 60.07275987212782, 52.376983141583004 47.86901723711711, 49.37853161207587 26.74237646069687 M50.56128124605062 74.5773431371575 C49.05616833601781 64.96989540756121, 49.08804873598133 53.12836534340308, 50.90052910423499 25.939280040211536" stroke="rgb(0, 0, 0)" stroke-width="1" fill="none"/></g><g><path d="M166.36922758816198 23.79875357298792 L248.91913085882663 26.686267558763788 L246.519071310763 74.43422678317809 L164.18024751819917 73.16418378569254" stroke="none" stroke-width="0" fill="none"/><path d="M167.15226283177938 26.758171913459755 C181.69787654817458 24.281527022313977, 198.92719150557826 24.291597646225078, 248.31253666486484 23.83606813153502 M166.25186293402245 24.489259123894673 C193.3296264866835 26.04399333209522, 222.76583604346405 26.356165999184547, 247.41849022587832 24.63262575195251 M249.7888800318124 23.34773708494416 C247.8731272878766 37.196891167220784, 247.0478181083146 46.95699679223899, 249.7187716822155 74.62909623436057 M247.5534316126943 24.87454386764457 C248.32551034041975 37.78816669233573, 248.92309241929948 50.83036450295785, 248.7597261891818 75.2354807384941 M247.9204143982653 74.67994160724066 C228.46901337756404 76.82511480385678, 211.5914839213926 76.75171824466544, 166.3044865292677 75.28400265867549 M247.48285714497592 74.88278880478072 C218.6550224637076 75.35186935964816, 187.74246299128745 75.638978594305, 165.26981711878793 75.96054919763831 M166.44639754171018 73.77916828498688 C167.5497810309995 53.74815174510373, 164.89608332172213 37.472622359453254, 165.70716649828572 25.348418273488843 M166.7560426541411 74.33623282375999 C166.3089072758145 63.26800337498341, 165.62785032742946 50.689901047969094, 166.5923588936332 24.02778945399758" stroke="rgb(0, 0, 0)" stroke-width="1" fill="none"/></g><text x="80" y="55" class="id">id82</text><text x="207" y="55" class="type">Person</text></g></svg>