<svg data-theme="dark" width="273" height="375" xmlns="http://www.w3.org/2000/svg"><style>
        :root {
        --fade-text-color: rgb(0, 0, 0);
        --hide-text-color: white;

        --highlight-value-text-color: rgb(27, 14, 139);
        --highlight-id-text-color: rgb(150, 100, 28);

        --highlight-box-fill: yellow;
        --highlight-box-line-color: rgb(0, 0, 0);

        --fade-box-fill: rgb(247, 247, 247);
        --fade-box-line-color: gray;

        --hide-box-fill: white;

        --primitive-value-color: rgb(27, 14, 139);
        --id-text-color: rgb(150, 100, 28);
        --default-font-size: 20px;

        --highlight-object-fill: rgba(255, 255, 0, 0.6);
    }

        text {
            font-family: Consolas, Courier;
            font-size: 20px;
        }
        text.default {
            fill: rgb(0, 0, 0);
            text-anchor: middle;
        }
        text.attribute {
            fill: rgb(27, 14, 139);
            text-anchor: start;
        }
        text.variable {
            fill: rgb(0, 0, 0);
            text-anchor: start;
        }
        text.id {
            cursor: auto;
            fill: rgb(150, 100, 28);
            text-anchor: middle;
        }
        text.type {
            fill: rgb(27, 14, 139);
            text-anchor: middle;
        }
        text.value {
            fill: rgb(27, 14, 139);
            text-anchor: middle;
        }
        path {
            stroke: rgb(0, 0, 0);
        }
        .highlighted path {
            fill: var(--highlight-object-fill) !important;
        }
    
        [data-theme="dark"] {
            --highlight-value-text-color: #110875;
            --highlight-id-text-color: #6e4409;

            --fade-text-color: #BBBBBB;
            --hide-text-color: #121212;

            --highlight-box-fill: #EDB926;
            --highlight-box-line-color: #FFFFFF;

            --fade-box-fill: #2C2C2C;
            --fade-box-line-color: #666666;

            --hide-box-fill: #121212;

            --highlight-object-fill: rgba(72, 207, 173, 0.3);
        }
        [data-theme="dark"] text.default,
        [data-theme="dark"] text.variable {
            fill: rgb(224, 224, 224);
        }
        [data-theme="dark"] text.attribute,
        [data-theme="dark"] text.type,
        [data-theme="dark"] text.value {
            fill: rgb(144, 164, 237);
        }
        [data-theme="dark"] text.id {
            fill: rgb(255, 183, 77);
        }
        [data-theme="dark"] path {
            stroke: rgb(204, 204, 204);
        }
</style><g id="object-0"><path d="M50.68428977541569 23.814350781296255 L248.51071083448204 24.680654524350395 L247.73541338032956 323.26383594514044 L49.42845685145843 325.2445930320403" stroke="none" stroke-width="0" fill="none"/><path d="M49.703498303731024 24.31197360147609 C109.17149884493263 27.13690360644532, 172.52068520258732 24.280978124169547, 249.35211204776675 24.570255132743032 M49.26787092800331 25.937546445976867 C108.61957065281196 27.26823080012155, 165.60689965530605 25.720317160586916, 248.82421882049854 24.34836954142393 M247.96607752509564 25.417312276252087 C247.6987025250772 139.3853174134021, 248.9435937339402 254.42952074170498, 248.8567903951038 324.8764074608712 M247.82201861091087 25.279110347594727 C248.6811564033304 141.24452929864424, 249.3958041548298 258.54733535598785, 247.87191909029136 325.3154272188542 M247.44813724754204 326.391719378403 C183.38301576215858 324.3364086262244, 117.96692004676633 323.8753872294197, 50.58393043925791 324.323219210121 M247.53087689419414 325.2105892325533 C185.72116659886572 324.92268426847505, 125.29358622694427 325.63528432752304, 49.44912843656258 325.2611857061553 M50.29373120258198 324.7496557844435 C49.5278216181738 264.32325025203664, 49.36373734573317 202.0253395659846, 51.42031080353319 24.52423315900442 M50.12638693307252 325.51107302174717 C47.87033276821084 261.8569821380998, 48.897638961112996 199.52568445277063, 50.375031237705535 25.374915007079174" stroke="rgb(0, 0, 0)" stroke-width="1" fill="none"/></g><g><path d="M172.84941721465984 101.40539755709496 L232.3255970393662 100.43338565266498 L229.64112682339407 151.73652952461072 L174.30115083870695 151.38405508723392" stroke="none" stroke-width="0" fill="none"/><path d="M171.0630384936402 101.11207994632012 C187.98112590827728 99.20903289394063, 205.55713907659734 100.07729419466898, 231.20434159144952 100.60464731614435 M172.9682961901029 100.11851028583018 C186.39592419113677 98.6098032807752, 199.5655610093775 99.45318159980033, 231.88215684401058 100.67475136212936 M230.52870260651707 99.70066007238644 C230.8335354819694 119.45332966945226, 231.2176172063424 135.0425133957645, 230.7112035458157 149.9646929558388 M230.23134540428816 99.16007218210848 C231.63269221398042 115.70637048571639, 230.4063611507901 130.62452842667088, 230.17676978702806 149.04218365009953 M229.81725143547075 151.65736044915428 C212.2822893306309 150.7793011915925, 196.01013605363684 150.47810272928632, 172.92788441036245 149.58279544579585 M231.75265628444504 150.67334728537637 C210.67370575477037 149.35451681411723, 191.98054101094414 149.8405676151739, 172.54940805080992 149.49842829658422 M172.33202192809102 148.5533092615076 C170.95667479445663 136.8351133756919, 174.5378883858353 127.57300985837968, 172.3152782202668 99.10266824312117 M173.00261781020063 149.74707965437804 C172.5086015411999 131.1047264719628, 172.48142203047334 111.44864529338052, 173.18318840684358 100.77824841970346" stroke="rgb(0, 0, 0)" stroke-width="1" fill="none"/></g><text x="75" y="130" class="attribute">age</text><text x="202" y="130" class="id">id12</text><g><path d="M174.56126779524803 175.69417513967446 L232.65669233632465 173.72260923745839 L232.36304143633214 226.8397541283474 L173.26973805531384 224.8681965236124" stroke="none" stroke-width="0" fill="none"/><path d="M174.85133968553325 174.48339652851874 C186.63977085666204 174.03898764696552, 197.1807799963459 174.8653694174863, 230.289910620706 173.45051104947743 M173.20081374004016 174.4996392668324 C185.45539483710195 175.59740249519973, 198.5067454330591 176.12132550149232, 231.61693794703547 175.71616003818977 M229.26977913171154 176.1242289895387 C231.07516835750178 194.4365382195513, 230.30783324052183 212.36046068914834, 230.59476457992523 223.52287050219206 M231.15489288479228 174.12393618282834 C231.59613271097007 191.74469980539016, 231.99829530462495 210.33346143327503, 231.6970144700468 224.5713865857303 M229.98896829931795 225.1531239292121 C216.90067868391796 224.56216469721167, 201.52332811133886 223.75343297280617, 173.18293133220934 223.45707356508072 M230.30033665879134 225.79968615692763 C214.16917615364528 224.48750387412065, 196.24323800106635 225.16790892655314, 173.59807594108122 224.23010960094538 M174.09750080876418 225.71600845047152 C173.5369363219236 214.83700899438728, 171.70136041624332 202.3821568920112, 171.47842612311283 176.08970814445672 M173.5671126735202 225.4288294216476 C173.4940006290645 206.26712250323897, 173.27626924622953 188.25560268316494, 173.0401040433399 175.06120340913944" stroke="rgb(0, 0, 0)" stroke-width="1" fill="none"/></g><text x="75" y="205" class="attribute">name</text><text x="202" y="205" class="id">id17</text><g><path d="M173.27081308720503 249.35770503706235 L223.24023021930904 250.78672810622723 L223.7688591707469 298.61844498845784 L174.18813102443877 299.2398794382213" stroke="none" stroke-width="0" fill="none"/><path d="M173.18777695629788 250.6739093646253 C186.15525013969028 251.11910463326547, 199.7129978966825 249.77556570738423, 222.65092937714732 251.4763497570264 M172.67826522942133 250.3953810724969 C184.93240969407898 249.10563802094555, 197.64734186110627 249.2123418828742, 223.87597508567282 250.5316910949626 M222.1610078029751 249.46084326626345 C225.07789238398658 267.04871322500554, 222.9430825600259 283.15767033362937, 222.3673366981111 300.1044447310136 M222.32824720182978 250.47211636050267 C222.45372518526636 266.46479997864236, 222.54312546881695 282.3530251584403, 223.47303204361702 300.92367956092386 M221.71382498299963 300.20939898775896 C209.33164331249785 300.7537751567107, 199.7771734365832 297.64272202387514, 171.98862687486888 300.5084136109999 M223.5136505918564 300.3217891215628 C212.38058737168672 299.1310578899241, 201.722097826053 299.07536502378156, 172.75178282389714 300.36614288092846 M171.87956070854963 299.338959654935 C171.28772463614223 285.0233793579421, 172.36995194965243 273.71562058784247, 173.65089278290355 250.0048532219534 M173.85845033232815 300.5048408788768 C173.18835837848974 288.9094283191245, 172.92823607496783 277.77492993168556, 173.4259884271632 249.14674009977696" stroke="rgb(0, 0, 0)" stroke-width="1" fill="none"/></g><text x="198" y="280" class="id"></text><g><path d="M48.12040829044908 23.98925255375239 L110.60487490576236 24.118935045591616 L110.35023234645362 74.68334804903876 L51.2838560044402 74.96134603785795" stroke="none" stroke-width="0" fill="none"/><path d="M50.829502925713676 24.918096735180345 C63.62750429366158 25.303014141224768, 75.63610889406992 23.931222298035312, 108.68756042125884 26.492377139995195 M49.08159096757856 24.599510160903804 C68.73181088354643 25.80207960503053, 85.69864031411699 23.971589310282997, 110.60238017987898 25.607393276350262 M108.49898963890766 24.97841902779504 C108.11811807225402 44.05534024998526, 107.68990086514451 60.347328138512495, 110.80872808063822 76.14633677577464 M109.1379593895668 25.322405478845976 C109.24149874699498 40.45506016451983, 110.26562078948858 56.41581797054289, 109.80970484118978 74.74558199862078 M108.45988456756655 75.02034097609605 C92.11087460333248 75.80452367704532, 76.88001312214564 75.46443357088033, 51.07102140925727 74.64497479936576 M110.77585502555475 75.55697976030858 C87.75594565212404 74.56023919928697, 66.26313818062746 73.88458775400211, 50.75114107915494 74.9127901175856 M48.733520982070125 73.50877709420881 C49.209690930417196 59.93499765765052, 51.76207290950061 42.238931781283696, 49.96844949590666 24.26568091650934 M49.30444658061945 75.6163142699664 C50.61224608294856 61.701039246048374, 49.66018604942017 48.491599197547174, 50.46289448029012 25.50196714466042" stroke="rgb(0, 0, 0)" stroke-width="1" fill="none"/></g><g><path d="M164.11437915844587 26.321665237697292 L249.90133579524084 25.093922457159817 L249.62162189259266 76.33533320713008 L165.02287361730413 75.64417039831847" stroke="none" stroke-width="0" fill="none"/><path d="M166.4337770215855 24.834554274339254 C196.57525592241734 24.45963005189339, 227.828637449315 23.58383045885825, 248.05186242496805 24.335738464699137 M165.56666073188293 24.941521623241055 C192.9248502920253 25.267424900246084, 221.53401067686858 23.8418232240117, 247.8367124798579 24.012742845723185 M248.7422738196164 25.158372208318248 C249.32929969825977 45.002761539728304, 249.33797085583564 65.67096604149368, 246.643228767128 75.48557534902746 M248.42086636610932 24.07834675468207 C247.40793448236357 39.31933784089466, 246.96298643950806 54.25531571653404, 248.73997303067245 74.02850218289835 M246.42098607780034 74.2445470525446 C225.88884669340712 75.26447116930318, 203.72071861354087 75.42475496579071, 164.03260293805675 76.59205539772948 M247.99518602648536 74.5127114832293 C220.37884051936817 75.49195689006613, 192.58962674201948 75.99990613642899, 166.14196750336046 74.27683116920633 M164.21483844820037 73.0234825788297 C167.36357360387055 61.26465275176746, 167.5101988629858 50.6045410586453, 166.700457338683 24.04751067277037 M165.58959874539897 74.35800727517676 C167.31552600295362 61.585515652116555, 167.2897014709135 47.61437260475464, 165.57839013458047 24.423911772622724" stroke="rgb(0, 0, 0)" stroke-width="1" fill="none"/></g><text x="80" y="55" class="id">id82</text><text x="207" y="55" class="type">Person</text></svg>