<svg width="248" height="375" xmlns="http://www.w3.org/2000/svg"><title>Python memory model diagram showing objects</title><style>
        :root {
        --fade-text-color: rgb(0, 0, 0);
        --hide-text-color: white;

        --highlight-value-text-color: rgb(27, 14, 139);
        --highlight-id-text-color: rgb(150, 100, 28);

        --highlight-box-fill: yellow;
        --highlight-box-line-color: rgb(0, 0, 0);

        --fade-box-fill: rgb(247, 247, 247);
        --fade-box-line-color: gray;

        --hide-box-fill: white;

        --primitive-value-color: rgb(27, 14, 139);
        --id-text-color: rgb(150, 100, 28);
        --default-font-size: 20px;

        --highlight-object-fill: rgba(255, 255, 0, 0.6);
    }

        text {
            font-family: Consolas, Courier;
            font-size: 20px;
        }
        text.default {
            fill: rgb(0, 0, 0);
            text-anchor: middle;
        }
        text.attribute {
            fill: rgb(27, 14, 139);
            text-anchor: start;
        }
        text.variable {
            fill: rgb(0, 0, 0);
            text-anchor: start;
        }
        text.id {
            cursor: auto;
            fill: rgb(150, 100, 28);
            text-anchor: middle;
        }
        text.type {
            fill: rgb(27, 14, 139);
            text-anchor: middle;
        }
        text.value {
            fill: rgb(27, 14, 139);
            text-anchor: middle;
        }
        path {
            stroke: rgb(0, 0, 0);
        }
        .highlighted path {
            fill: var(--highlight-object-fill) !important;
        }
    </style><g><title>Group of 1 objects</title><g role="graphics-object"><title>Class Person with 3 attributes</title><desc>Attributes: age, name, blank attribute name</desc><g id="object-0"><path d="M25.615314725951965 24.07152702091478 L221.41424702376943 26.281397603587948 L223.3011333267554 324.61638362372 L24.431998103061733 325.4189060443917" stroke="none" stroke-width="0" fill="none"/><path d="M23.220583058436997 23.429081781561088 C87.60057825080264 25.793460978866207, 151.45937785297195 25.165568206984975, 223.2667688024039 26.542579591087694 M24.51478585939821 25.80868229596381 C85.21763422649194 23.683936383249485, 144.910834946338 23.979248753151097, 223.04620556833711 25.281189353977876 M222.42922206629447 24.916559074914126 C222.0330681559933 100.08455395837332, 222.11206261957577 174.66597776209986, 224.06191858115602 324.4799125873338 M222.5846695727409 25.237173487041773 C223.53141726952316 110.9096579570037, 223.13659984007893 195.83111293922764, 223.25987631063555 325.5451242297774 M222.06651595330598 323.53219408668133 C143.66428337608284 325.6067173040642, 67.15656587178258 325.2988091682754, 26.16901159337989 325.8081631235158 M222.1365289360075 325.95269303125394 C161.2913661661636 327.0471789576445, 98.10904778952758 326.32769107059397, 25.684897384439264 325.49591846961783 M23.56545412854855 325.4358009323936 C25.35344902496271 217.19521917379663, 27.424141699590212 109.84861854392598, 26.446217705453865 25.865195474108962 M24.7323178114634 324.3288716781874 C26.178209341879466 236.1928039787972, 27.073617975052223 145.56393394967802, 25.449493264194995 25.613031155645213" stroke="rgb(0, 0, 0)" stroke-width="1" fill="none"/></g><g><path d="M26.40415008507308 25.00066966422877 L85.29451455744947 25.688207504981317 L86.76557388562611 76.248709475842 L25.933048018508146 75.91892567010846" stroke="none" stroke-width="0" fill="none"/><path d="M24.803070023907942 25.14244529460259 C48.34722422251973 24.104925657114684, 73.07404768654335 23.69985022678879, 83.01376522981698 23.550966770449843 M25.030981269095083 25.86071632861696 C40.14067082705963 24.178137686634532, 54.078864645245595 25.179199896156216, 85.49017312127611 24.430908710899477 M84.41858569594442 26.911363892701946 C85.70654346026312 41.562242005561885, 86.0423682044751 55.69220800116833, 83.01340036057006 74.4646824750571 M84.03439416964149 24.456342273712195 C85.93417386920808 39.642968013271656, 84.27709937376798 54.34176278251468, 85.61340520031192 75.69942550170005 M83.92105419361897 75.54155878152417 C64.99148181481588 76.29977622297253, 40.58250894199896 73.76814668505494, 26.281102516961326 73.30601212234471 M84.9391171254666 75.81544185639382 C69.72036927843523 74.78637488403011, 55.099529344520086 76.11290638356759, 24.61836789628617 75.74454365544923 M25.092738501884515 74.53838070670037 C26.005222619106313 63.44548028523965, 24.864098983132656 47.871362268409115, 23.47140150098566 25.679221940449906 M25.78172358148236 74.493489964468 C25.833004522637047 64.39020139140005, 24.937009676864047 52.47478612784493, 25.59344937590178 24.460261181986244" stroke="rgb(0, 0, 0)" stroke-width="1" fill="none"/><text x="55" y="55" class="id" aria-describedby="desc-0">id82<title id="desc-0">Object id</title></text></g><g><path d="M141.9813841801801 24.13541338006018 L221.65763180786405 26.853328980745548 L224.43944454302166 76.45337198586786 L139.63534935134723 73.20790098773337" stroke="none" stroke-width="0" fill="none"/><path d="M142.58413644840556 25.022043060101417 C161.4291306967096 24.635955691487403, 178.98346913163064 25.908590821705843, 223.1981135158319 24.459098825092298 M140.35459426854814 25.107516559607667 C173.37225317638587 24.15351274345687, 205.26925228010865 24.206850575092865, 222.74988300304352 25.81433598299995 M223.394788732342 25.926027922011517 C220.61774804227653 36.04182221584857, 221.7939027569254 48.82293796560833, 224.10290077500275 75.45776331900882 M222.33580502449 25.361843973999306 C223.45819393222277 40.55127838985889, 222.1758087561574 54.47390104249031, 222.65039516351874 75.36501086903611 M221.10805713783037 74.49904832213144 C193.84206896309016 73.84443245285863, 164.7832067773168 76.00549200540472, 139.4854371300086 73.35964193203223 M222.86933424495098 74.30905087904773 C198.96879853001175 74.78946204328653, 175.24253913115064 74.73575808679077, 141.19733980614384 75.92315932113576 M142.05046260913994 76.4124846421815 C142.56201137188887 60.563588047523446, 138.66733976219516 47.11248294789711, 140.32401838719235 25.029287000280572 M141.1772908176316 74.29730191147355 C141.3229668403272 56.2397210587029, 140.34197632295113 38.208446512127175, 141.90352721829578 25.052671034474432" stroke="rgb(0, 0, 0)" stroke-width="1" fill="none"/><text x="182" y="55" class="type" aria-describedby="desc-1">Person<title id="desc-1">Object type</title></text></g><text x="50" y="130" class="attribute" aria-describedby="desc-2">age<title id="desc-2">Attribute name</title></text><g><path d="M149.98700559698995 99.81384248768421 L207.00340189605134 98.63628798090875 L207.35570728462204 150.0637018576442 L146.00185791180414 150.90977823399805" stroke="none" stroke-width="0" fill="none"/><path d="M148.75621991900405 99.84866713843041 C172.05065251470182 101.59683892317082, 194.20112754678718 101.80884714149414, 206.8374108825961 100.4245195110986 M148.2402242578262 100.30513328612862 C170.4422215761502 98.8586579348018, 191.66763495293392 100.05059360304664, 206.42032558082678 100.53459518790285 M204.2618706273549 101.53380611256108 C206.58876016876098 114.89824988431322, 206.31651045389586 130.79959512057394, 205.73264113079637 149.74325369485942 M206.60962203142063 100.21919897986369 C205.5188942582533 112.52786991212369, 205.4149361173597 125.65216325418892, 206.05927725701866 149.2202334007746 M206.59947321617386 148.62084415194647 C195.32856129067972 151.19602107707715, 180.67983262662503 147.69255800066142, 147.65805533545333 148.21148177100352 M206.45481193635027 149.6836926911575 C188.88340134278045 149.45791949631138, 170.61362594922667 148.94449075790692, 147.17316793233982 149.1117856811593 M149.48653276279248 149.9109341484885 C147.12978062565347 134.007280643829, 149.09727512001083 121.73181530784585, 146.68949939960171 100.43382273837896 M148.70399814198808 149.9569001949676 C147.80118248745217 132.89298779647945, 149.08719551840477 113.8804943009846, 148.636809619705 100.85671045829173" stroke="rgb(0, 0, 0)" stroke-width="1" fill="none"/><text x="177" y="130" class="id" aria-describedby="desc-3">id12<title id="desc-3">Attribute value</title></text></g><text x="50" y="205" class="attribute" aria-describedby="desc-4">name<title id="desc-4">Attribute name</title></text><g><path d="M148.7624017674037 175.57318314116247 L204.70864497356715 176.78318332865138 L206.14854876467422 225.56173078795217 L146.7532983315516 224.05506601978476" stroke="none" stroke-width="0" fill="none"/><path d="M147.1663543323105 173.33653004187363 C169.78097196806348 173.19950465074524, 192.90050674242687 174.0738847997419, 205.20701735501328 174.78760115940784 M148.47217035077614 175.1062773050675 C166.2115665588511 174.55698313791765, 185.6382367032084 174.80935652585143, 206.88564743847985 174.03327742554973 M205.8145471808449 173.56535280770245 C208.34205952022887 188.46831457156952, 206.1616607101783 201.152115163284, 204.66349859298666 223.4620604694114 M206.91264854275371 174.36983687072697 C206.05399378844513 189.27703643647658, 206.19290802338517 202.10889998763952, 206.8522780045375 224.07785888690856 M207.78964506427408 225.33455114620557 C188.480741273203 224.87716796139856, 173.77913212250124 226.07796817461914, 147.36338923671892 226.57416251913435 M205.25626102705138 224.69865425438883 C186.72056823792042 225.03152431103044, 165.2593677962093 225.35935584757007, 147.96250633957888 224.35015539878736 M147.38282198199937 225.9829466299551 C146.61831699784221 206.1907224190028, 146.66078961848098 186.1313353047884, 148.96381693164426 174.8542685498974 M148.07845564635323 224.82814395457086 C148.21707175376304 214.63510353417098, 149.1132851706954 203.8965983815701, 148.83786481177225 174.49882016456212" stroke="rgb(0, 0, 0)" stroke-width="1" fill="none"/><text x="177" y="205" class="id" aria-describedby="desc-5">id17<title id="desc-5">Attribute value</title></text></g><g><path d="M148.35596174372975 250.7714061097176 L196.6530423431961 250.8875213271872 L198.89170415716725 298.4395189843898 L146.70177294658203 299.6162916863798" stroke="none" stroke-width="0" fill="none"/><path d="M146.5229932691862 248.09282981529267 C156.89231833602733 249.02688934705145, 168.89504952463662 252.00238767965163, 196.98014328489143 251.70685110320161 M147.29886565261467 249.9123084495413 C165.60599032271188 249.9142246997715, 182.97770873135224 250.79518103762774, 198.21164163155632 250.56034485012654 M196.5556510148656 250.80175313813967 C197.8242787528661 259.98054204262155, 197.3055702516326 271.85527018875644, 198.182453729831 298.11446053275887 M198.07680130550244 250.98513753873402 C197.25190824702509 260.8130716210071, 198.74407917483816 273.69252098693823, 197.80632980417914 300.06921698194697 M198.1482523237187 299.7585258720587 C186.70089275648505 299.628704907978, 173.8118586084692 301.99921558983874, 149.9864766743983 301.06179803322124 M198.2698271904459 299.7039809406402 C185.00881523795 300.3593112407566, 174.49078615104588 300.9312059477062, 147.24717070005886 300.2031665489953 M146.33329431229663 298.0614120438031 C147.8953318655912 287.3608408417689, 148.08027529101093 279.359770499271, 148.33645529389025 251.48035700755415 M147.6562262217889 299.9227159844385 C147.79984758616408 284.94705214161615, 147.82813079242186 268.8746598985001, 148.10173211821248 250.95470995751097" stroke="rgb(0, 0, 0)" stroke-width="1" fill="none"/><text x="173" y="280" class="id" aria-label="blank entry" aria-describedby="desc-6"><title id="desc-6">Attribute value</title></text></g></g></g></svg>