<svg data-theme="dark" width="273" height="375" xmlns="http://www.w3.org/2000/svg"><title>Python memory model diagram showing objects</title><style>
        :root {
        --fade-text-color: rgb(0, 0, 0);
        --hide-text-color: white;

        --highlight-value-text-color: rgb(27, 14, 139);
        --highlight-id-text-color: rgb(150, 100, 28);

        --highlight-box-fill: yellow;
        --highlight-box-line-color: rgb(0, 0, 0);

        --fade-box-fill: rgb(247, 247, 247);
        --fade-box-line-color: gray;

        --hide-box-fill: white;

        --primitive-value-color: rgb(27, 14, 139);
        --id-text-color: rgb(150, 100, 28);
        --default-font-size: 20px;

        --highlight-object-fill: rgba(255, 255, 0, 0.6);
    }

        text {
            font-family: Consolas, Courier;
            font-size: 20px;
        }
        text.default {
            fill: rgb(0, 0, 0);
            text-anchor: middle;
        }
        text.attribute {
            fill: rgb(27, 14, 139);
            text-anchor: start;
        }
        text.variable {
            fill: rgb(0, 0, 0);
            text-anchor: start;
        }
        text.id {
            cursor: auto;
            fill: rgb(150, 100, 28);
            text-anchor: middle;
        }
        text.type {
            fill: rgb(27, 14, 139);
            text-anchor: middle;
        }
        text.value {
            fill: rgb(27, 14, 139);
            text-anchor: middle;
        }
        path {
            stroke: rgb(0, 0, 0);
        }
        .highlighted path {
            fill: var(--highlight-object-fill) !important;
        }
    
        [data-theme="dark"] {
            --highlight-value-text-color: #110875;
            --highlight-id-text-color: #6e4409;

            --fade-text-color: #BBBBBB;
            --hide-text-color: #121212;

            --highlight-box-fill: #EDB926;
            --highlight-box-line-color: #FFFFFF;

            --fade-box-fill: #2C2C2C;
            --fade-box-line-color: #666666;

            --hide-box-fill: #121212;

            --highlight-object-fill: rgba(72, 207, 173, 0.3);
        }
        [data-theme="dark"] text.default,
        [data-theme="dark"] text.variable {
            fill: rgb(224, 224, 224);
        }
        [data-theme="dark"] text.attribute,
        [data-theme="dark"] text.type,
        [data-theme="dark"] text.value {
            fill: rgb(144, 164, 237);
        }
        [data-theme="dark"] text.id {
            fill: rgb(255, 183, 77);
        }
        [data-theme="dark"] path {
            stroke: rgb(204, 204, 204);
        }
</style><g role="graphics-object"><title>Class Person with 3 attributes</title><desc>Attributes: age, name, blank attribute name</desc><g id="object-0"><path d="M49.474979838641694 24.708614265475042 L248.5395300718396 25.382000609625376 L249.8060134823954 325.0304016658713 L51.448522416547746 323.2393714526514" stroke="none" stroke-width="0" fill="none"/><path d="M48.73435059245461 26.657817711580485 C105.95438872797145 24.91500997035957, 161.69438635836119 26.19417532237615, 247.7058650386334 25.416293735170136 M49.40370163567381 24.07223179186311 C96.81375398766154 26.028295410877675, 142.99882349918963 26.484447974090898, 248.10624946600169 25.38567725446247 M246.66249663762025 26.162605629640822 C250.2441219612779 134.8572394385269, 248.3089451681771 241.98232503907766, 246.72450161013748 324.5399751217287 M248.00148513565907 24.67320710415308 C246.50237533456547 86.67346616519104, 246.3965500273764 149.4267966240753, 247.6404139150384 325.30944204491277 M248.43109439736065 326.8667040010389 C201.18758078829106 326.1802411465486, 156.72258365766072 326.6759696679393, 51.82151797675718 326.75865744689605 M247.62131792602602 325.2946580414373 C175.1251372073302 324.48154326551503, 102.8412698673649 325.1810849608674, 50.70340375246396 325.90402200120957 M50.34132563311665 324.02949433428097 C50.63331887864743 233.19976823929753, 51.257684516265144 139.4026355954039, 49.72662483590614 25.30382214655066 M49.89603264855168 324.86151682241774 C51.09251233150874 221.1197471615448, 51.159762505496175 117.02967802466785, 49.750993584438035 25.56021086250415" stroke="rgb(0, 0, 0)" stroke-width="1" fill="none"/></g><g><path d="M173.83770762837918 100.04811005859132 L232.1646804735299 99.87930021033718 L229.83856560178714 151.99547371705225 L174.11089470428382 148.76931144589102" stroke="none" stroke-width="0" fill="none"/><path d="M173.19728833672352 101.19658080626857 C187.88010837494997 99.20520277388042, 204.2484090517083 100.55477672731368, 232.46924787598866 100.63536542624732 M172.2492575771344 99.37970768535375 C190.30047735242712 100.06246310176573, 206.67264409758536 101.0216621923165, 230.35048853324204 99.22540661379905 M230.23698580267748 101.89615750394857 C230.29398982580142 111.02259557728186, 229.27108045125186 124.19340734546196, 231.29176993197632 151.6428690880741 M230.36848785203495 100.71690860711693 C230.42467735182868 119.92554414146012, 230.97162372408684 139.26956459943483, 230.82399777316894 150.16378217003663 M230.27207091829604 151.51507035622893 C214.54051507833793 151.36741344947757, 195.0120128343055 150.63632529455415, 171.61244594332342 148.24935464851768 M230.285685456313 150.87702806576874 C215.6532720850339 150.7118077760438, 199.3685507356359 150.63704494896484, 172.1709005880324 150.22754627860613 M174.71289543798514 150.55159073545227 C172.37184265124034 135.42378564507152, 174.27009367604916 123.65342166814314, 172.88180541168273 101.70532211123786 M173.85148488655506 150.4163768829125 C172.0977294898227 131.09990894925193, 173.2646638925864 114.57841475542371, 173.2691499113341 99.3555055847209" stroke="rgb(0, 0, 0)" stroke-width="1" fill="none"/></g><text x="75" y="130" class="attribute">age</text><text x="202" y="130" class="id">id12</text><g><path d="M171.7195231418394 173.44513185729846 L232.5261000764596 174.39655000850303 L230.13060280786235 226.25604331745 L173.25367690626246 225.83601902028227" stroke="none" stroke-width="0" fill="none"/><path d="M172.35308407958541 175.99370589353603 C194.65217568603072 176.56041267767253, 218.9033378104638 175.2224841912027, 229.80986363896534 174.43318793299943 M173.75150015339034 175.41392568362392 C191.1429349381727 174.95153476733097, 210.4541338714159 174.07669601116407, 230.07810345764105 175.58746022273442 M232.11282247404367 176.15988804671198 C230.37830084123425 186.90051978992312, 231.15302574567446 195.0186910389945, 229.07429832544508 225.7318767601649 M231.32373262730053 174.80293466320234 C230.41536064375163 190.45075933279668, 230.3958155380816 204.09783671493736, 231.2729181923206 224.7219676269295 M230.80971986004502 223.89708276463773 C215.16758057477324 224.1981419723096, 194.51959325686983 225.98652894094363, 171.7967379893915 223.25107936191986 M231.4333543787395 225.3774745014638 C211.4259887263014 224.39852279794272, 190.80345770309634 225.98453769444623, 172.92529053420725 224.56522850585583 M174.37940949841374 225.11597650780107 C170.94433004101197 212.09658140881626, 171.9365803940847 201.5466956032363, 171.3808129794035 173.2767300166397 M172.0159828349314 224.35903209464092 C173.95734457432144 207.7384922028567, 174.2655575065107 189.6465344395805, 172.6489367326263 174.18950249018422" stroke="rgb(0, 0, 0)" stroke-width="1" fill="none"/></g><text x="75" y="205" class="attribute">name</text><text x="202" y="205" class="id">id17</text><g><path d="M171.5108172785458 250.35916032215894 L221.31072933541074 248.19895007022834 L223.80689224040148 299.994448067117 L173.74110526486186 298.26440703897373" stroke="none" stroke-width="0" fill="none"/><path d="M174.81554261598765 251.84300095218248 C192.71018318277157 252.28750810107172, 212.58601737630414 249.32756075938136, 221.62620971728637 250.4523804355931 M172.79321293644594 250.0388902357702 C192.2102885194752 250.54502186840324, 208.9981136037577 249.317376980173, 223.08208550726627 250.82493122535985 M224.5961771673825 250.4321509092654 C223.44314870910057 263.7850118570367, 221.6462237518928 275.3696445449536, 221.67557004114397 299.5616375518939 M222.0937595145911 250.82837838124357 C223.58801177731792 259.80612389781305, 222.7043384232148 270.46493959735284, 222.1101182098695 299.39924125985715 M223.8073271935091 301.11824541360465 C210.40362418881318 300.0341981328331, 197.1040650129343 301.54739965681966, 171.46356474455456 298.03556673381183 M222.78733567917638 299.93209838371513 C208.10914967043823 299.432193015107, 194.3261551370974 301.3423281054401, 172.22023811311735 299.14063166925825 M172.99809833716648 298.42827114278134 C171.43034034444602 288.1512201382987, 172.52078765183956 278.07116712222177, 173.00695135970867 249.67027483084925 M172.4453910872002 299.15461288645446 C173.14092351499497 286.4280618321035, 172.67054065339303 275.066138649586, 172.29274084587246 249.99985884438948" stroke="rgb(0, 0, 0)" stroke-width="1" fill="none"/></g><text x="198" y="280" class="id"></text><g><path d="M48.3546978492121 26.919001924171088 L110.42528127008731 25.184884984411514 L108.91803749304202 74.77940738379813 L49.84312164566285 75.10744357659232" stroke="none" stroke-width="0" fill="none"/><path d="M50.04505830429775 23.13155277527287 C71.34976666149045 23.754207205428045, 88.25030806265814 24.746875564373802, 110.6600293089654 26.79842525825002 M49.223529570947484 24.901289991537993 C71.26848088015367 26.00243532009542, 94.63979351376895 24.910116443754823, 109.943946300902 24.021617448871915 M108.19800341902315 25.653349130807264 C109.99742126286152 34.08762182894617, 108.30068379396546 45.56534688391762, 109.10112098919545 73.84107837599366 M109.17372815959834 24.166228848094715 C110.20801864422525 43.59026753068113, 111.15449137990815 61.82706349466356, 110.38348631295017 75.98984194611539 M111.89986526950507 74.07052434345974 C96.35622321749815 75.7055704216059, 79.8945201475633 74.79196196810778, 50.391876367035024 75.26444543853736 M109.38552271527239 75.95372294407069 C91.76090407195974 74.1718021430173, 75.83710625481919 75.43771805203556, 50.3889911186467 74.66968461315942 M49.10472914328061 76.46118334921483 C50.636070663374625 58.00075931889201, 48.16527781578998 39.15460878974421, 48.8858220466296 23.422988633085957 M50.20129226228848 75.63163478034292 C49.47838053693614 61.43047553784811, 49.828031766284205 47.69828960996043, 49.110910192462796 24.666359688723126" stroke="rgb(0, 0, 0)" stroke-width="1" fill="none"/></g><g><path d="M167.41337529873158 26.314705246317242 L248.7545036042089 26.686648159519365 L247.77154835100293 76.3466564654142 L166.2334333243658 73.97630806014753" stroke="none" stroke-width="0" fill="none"/><path d="M167.49789463671377 23.90980067086672 C184.43017845037542 24.77451453974802, 203.26767892903973 23.728234458918095, 246.86917746035988 26.43187221418064 M166.94518924786874 24.423585347165442 C183.28464669434263 24.3263911038767, 198.9041052761055 24.8498120886551, 247.77791837286912 24.067719709370877 M249.9223674063801 25.093678218249636 C247.5734336513458 40.56922320413958, 248.10402055432263 57.340529625995615, 249.16989551977116 74.92629641369666 M247.29650903681934 25.24520583051615 C247.9740985915894 43.549068817726855, 247.5657940701536 62.97273487838468, 247.87724001484582 75.93588731010745 M249.6821780663301 75.43701016146841 C218.89602915349866 74.10581615892589, 188.60441759241036 77.41389902016564, 165.02425784550803 74.46187396248071 M248.2592126928441 74.16115986905521 C214.72748961814983 76.1133387085609, 181.96605299427634 75.96287213420348, 165.88069292618468 74.97233264871974 M164.10457095482946 76.77973799580434 C165.0242781397303 61.07722986378375, 166.50553772209298 45.394238310400276, 167.34947964607747 26.24919965437846 M166.07325898684923 74.30923200108546 C167.1329261873788 61.75100511045952, 166.39338041116164 47.77420988704685, 166.47745412881204 25.396769267409415" stroke="rgb(0, 0, 0)" stroke-width="1" fill="none"/></g><text x="80" y="55" class="id">id82</text><text x="207" y="55" class="type">Person</text></g></svg>