<svg width="262" height="217" xmlns="http://www.w3.org/2000/svg"><title>Python memory model diagram showing objects</title><style>
        :root {
        --fade-text-color: rgb(0, 0, 0);
        --hide-text-color: white;

        --highlight-value-text-color: rgb(27, 14, 139);
        --highlight-id-text-color: rgb(150, 100, 28);

        --highlight-box-fill: yellow;
        --highlight-box-line-color: rgb(0, 0, 0);

        --fade-box-fill: rgb(247, 247, 247);
        --fade-box-line-color: gray;

        --hide-box-fill: white;

        --primitive-value-color: rgb(27, 14, 139);
        --id-text-color: rgb(150, 100, 28);
        --default-font-size: 20px;

        --highlight-object-fill: rgba(255, 255, 0, 0.6);
    }

        text {
            font-family: Consolas, Courier;
            font-size: 20px;
        }
        text.default {
            fill: rgb(0, 0, 0);
            text-anchor: middle;
        }
        text.attribute {
            fill: rgb(27, 14, 139);
            text-anchor: start;
        }
        text.variable {
            fill: rgb(0, 0, 0);
            text-anchor: start;
        }
        text.id {
            cursor: auto;
            fill: rgb(150, 100, 28);
            text-anchor: middle;
        }
        text.type {
            fill: rgb(27, 14, 139);
            text-anchor: middle;
        }
        text.value {
            fill: rgb(27, 14, 139);
            text-anchor: middle;
        }
        path {
            stroke: rgb(0, 0, 0);
        }
        .highlighted path {
            fill: var(--highlight-object-fill) !important;
        }
    </style><g><title>Group of 1 objects</title><g role="graphics-object"><title>Complex id76 with value (4+2j)</title><g id="object-0"><path d="M25.081909497634758 25.84371358962653 L223.95335009277045 24.9420480517879 L225.83307264017722 154.71697551938286 L25.852246012951476 155.0666920527373" stroke="none" stroke-width="0" fill="none"/><path d="M23.94671090621086 24.882361415695318 C66.7826067531398 25.74009548775409, 112.43506052795699 24.91985233673205, 223.38912208270685 25.59982701375676 M25.51337755562996 25.310567720843746 C87.0596811293625 25.81567727090561, 149.95859620873975 25.486832786078452, 224.43039149916106 25.22132210767433 M226.80844534936026 25.68105013445355 C225.4788246651797 62.09164549792848, 226.9645960331687 101.7698915808816, 226.06258563192864 155.64824148382982 M224.68199690862957 24.655564554358588 C223.88226956665977 61.66927143182973, 224.57783677142095 98.42781890950602, 225.51873750414242 155.005547924431 M224.70956509790554 153.6860979928291 C146.04752021999735 157.1137025237143, 68.26017469354889 157.43436699803866, 26.533165432091398 153.66632327874225 M224.43098257440886 155.70277768991116 C150.07189894942073 156.4504699277441, 76.919289442934 155.94849408263963, 25.498889836175984 155.433346314602 M25.785365491802636 153.28364133309296 C26.9923329110908 125.88771322596212, 25.796714179274538 94.08907056327695, 23.461824640805606 26.195861700407537 M25.156583800820485 154.66906512006747 C23.654478203882984 118.66451961826878, 24.30910476338078 81.93312541673193, 25.461709856436514 25.160798894113753" stroke="rgb(0, 0, 0)" stroke-width="1" fill="none"/></g><g><path d="M17.133050915887242 18.6920950828939 L229.50804723108934 17.75584148725475 L231.72897755817363 161.1204286092939 L18.61630263624191 162.75218203832023" stroke="none" stroke-width="0" fill="none"/><path d="M17.53813804069827 19.43930787713336 C86.02560229202973 19.307682088142926, 151.2302830567671 17.318939966173346, 229.92652635368475 18.08872617359458 M19.185175035165322 19.37770345254462 C97.6234596420184 20.113897061428393, 175.58507268534393 20.092225468481498, 230.53632624510558 19.28207773127048 M232.1669713712634 19.977727818678776 C229.07246359822332 71.53596624877821, 229.24167899317578 121.18009023474886, 229.1970325667738 160.5256155670156 M230.96275298505037 18.162976321084315 C231.09688439506422 50.25530928267051, 231.61246719318135 80.18963433921775, 230.6547702712686 161.64329240806256 M229.76916007588318 161.02959473493706 C169.0212842246592 162.42375912264217, 110.07095759872091 162.38269431490212, 19.130021276542585 161.32174018772974 M230.9291482353514 160.28003606424414 C175.04188350796395 160.8579264178872, 118.76303612172138 160.69497833661288, 18.66492165342868 161.7792123062751 M17.156776418451763 162.37054653802252 C20.82619074336137 114.48369825123982, 19.584540567763657 68.81618110037317, 18.611322484348875 19.756108225356282 M19.718858222574305 160.02819799177374 C20.78237573500136 130.39001857840586, 20.663748808637234 98.08530368889008, 18.0360500378063 19.895045971166684" stroke="rgb(0, 0, 0)" stroke-width="1" fill="none"/></g><g><path d="M24.13343050678113 25.730713635718992 L84.74515177681135 24.430356314391464 L85.18227708258256 74.13409213852741 L23.973862166379895 76.85593438148989" stroke="none" stroke-width="0" fill="none"/><path d="M23.76552706720656 24.79981639104927 C43.028086087041295 25.68707614074337, 62.607315389081464 22.879552545229068, 83.48033230144871 23.411187192202362 M25.118026538490756 25.92499271372721 C47.25223747233766 25.08270455530134, 71.39507314133787 24.051665111245285, 85.1505404603344 25.165533359455164 M85.89373238270603 23.731516320335338 C85.1587215117151 42.10899974090036, 86.66028345406197 55.90370184621107, 84.44851664057634 76.34697948158237 M84.95463803813001 25.69379612451249 C83.88857895146337 41.515018734857115, 84.60630927635165 56.594963656301736, 85.57846737598302 74.70623043206272 M84.8165851816845 76.37630124845892 C70.87728304555974 72.73707439172964, 57.51631598131022 73.70631831641074, 24.082503374211534 76.08757865116075 M85.8578114038008 75.9754408907604 C67.28867237334994 74.64312154948995, 49.934513959894254 74.43525026408263, 24.8053238873394 75.20692585089839 M23.487989913532456 73.06798281187778 C26.433616724909882 62.698048678523094, 25.24955140547651 48.06711958332155, 24.63691362026771 23.559615159675985 M24.509372279458468 74.9678664735392 C25.357532088345096 56.94303033673608, 24.995961398180995 37.25123530580835, 24.399351409739236 24.924157671918902" stroke="rgb(0, 0, 0)" stroke-width="1" fill="none"/><text x="55" y="55" class="id" aria-describedby="desc-0">id76<title id="desc-0">Object id</title></text></g><g><path d="M131.3681094534651 24.17109324188072 L223.7224511862798 26.852707658642537 L223.59901332663296 73.2807120107154 L130.08378813227884 73.28099931276056" stroke="none" stroke-width="0" fill="none"/><path d="M129.10151262099288 23.273597428017258 C158.40253124130646 26.031086983107926, 187.6453791470517 24.821934980401377, 224.42787385143296 26.653806619512537 M130.3556818528232 25.37901790038162 C151.8797239413583 24.78891710979529, 170.87564539153414 23.62816599404367, 224.11498117851843 25.987071232118375 M224.27313863290075 25.564467262486254 C223.00084024522965 34.99447383916959, 224.72739350038043 48.13564361947538, 223.7832812530686 76.34671119619871 M224.17110505950765 24.638411264566987 C223.78828059342698 44.08750075389882, 225.39426791641148 63.48511229250824, 224.57044207927706 74.81680224846994 M223.4642189794947 73.80724822585356 C195.76973499686179 72.28422981006376, 169.72401528878905 74.95179846849892, 130.28289239700862 74.95000005132638 M224.6193856015855 74.79680276785285 C192.7450650808855 74.51358031013245, 158.21397238312983 73.74440990799374, 131.52680300823314 74.72330490697753 M130.3548060743808 73.92942052262958 C130.3847255305057 62.48998701112886, 131.81602797499167 45.06900299101991, 129.45930554236793 25.988822749715577 M131.54388894255155 74.49920516436816 C131.15314995008978 55.5803554825705, 131.88254288171163 36.541894444423285, 131.46687176210045 24.66950957612191" stroke="rgb(0, 0, 0)" stroke-width="1" fill="none"/><text x="178" y="55" class="type" aria-describedby="desc-1">complex<title id="desc-1">Object type</title></text></g><text x="125" y="115" class="value" aria-describedby="desc-2">(4+2j)<title id="desc-2">Value</title></text></g></g></svg>