<svg width="287" height="217" xmlns="http://www.w3.org/2000/svg"><title>Python memory model diagram showing objects</title><style>
        :root {
        --fade-text-color: rgb(0, 0, 0);
        --hide-text-color: white;

        --highlight-value-text-color: rgb(27, 14, 139);
        --highlight-id-text-color: rgb(150, 100, 28);

        --highlight-box-fill: yellow;
        --highlight-box-line-color: rgb(0, 0, 0);

        --fade-box-fill: rgb(247, 247, 247);
        --fade-box-line-color: gray;

        --hide-box-fill: white;

        --primitive-value-color: rgb(27, 14, 139);
        --id-text-color: rgb(150, 100, 28);
        --default-font-size: 20px;

        --highlight-object-fill: rgba(255, 255, 0, 0.6);
    }

        text {
            font-family: Consolas, Courier;
            font-size: 20px;
        }
        text.default {
            fill: rgb(0, 0, 0);
            text-anchor: middle;
        }
        text.attribute {
            fill: rgb(27, 14, 139);
            text-anchor: start;
        }
        text.variable {
            fill: rgb(0, 0, 0);
            text-anchor: start;
        }
        text.id {
            cursor: auto;
            fill: rgb(150, 100, 28);
            text-anchor: middle;
        }
        text.type {
            fill: rgb(27, 14, 139);
            text-anchor: middle;
        }
        text.value {
            fill: rgb(27, 14, 139);
            text-anchor: middle;
        }
        path {
            stroke: rgb(0, 0, 0);
        }
        .highlighted path {
            fill: var(--highlight-object-fill) !important;
        }
    </style><g role="graphics-object"><title>Complex id76 with value (4+2j)</title><g id="object-0"><path d="M48.45825839968765 25.981408560942032 L248.09869606381216 24.0554556754843 L251.55319197239263 156.84874264659055 L48.24016719014888 155.92470658222155" stroke="none" stroke-width="0" fill="none"/><path d="M50.14293459338348 26.769472775355233 C96.40710628256629 23.673862255581213, 139.49847655025133 22.685643456181545, 251.56208418839617 26.59936461016516 M49.3817671857367 24.783983301176683 C127.08248712566682 25.002150710603853, 202.1126441745254 24.734747023951996, 249.94940069007288 25.35317234673755 M250.89761179328175 25.527982866109284 C248.7748741794032 59.48446243150003, 250.53660743414287 89.84586674679664, 249.78160798149588 155.4034732004672 M250.9359921434712 25.71803832548056 C249.73767318011394 66.16006541896368, 249.4299448670967 107.59131348343679, 250.85988411853884 154.06989599824402 M250.20451168608832 153.59512856373945 C200.55421891746147 153.17593704461126, 152.5066501321341 153.30125336733082, 49.94678650568617 153.63893669232198 M250.05504531957172 154.90374778354402 C182.37114759338124 156.0779149594535, 116.36313296285535 156.75708533398745, 49.88055769639473 154.14469352152722 M51.88564510408426 153.36025497028956 C49.35087666046911 111.65766735753654, 52.61645921984131 73.95739691723007, 48.02555754801065 26.31064804479582 M50.30718291544777 155.35293700704676 C50.694936969419224 125.74273399463745, 50.12662354338862 97.69479738542061, 50.68064955406104 24.614837951639306" stroke="rgb(0, 0, 0)" stroke-width="1" fill="none"/></g><g><path d="M45.63882268758621 17.03347761106155 L256.80493752892954 20.108741505694578 L256.6050380836918 160.32337866164298 L44.847895272609954 161.6427637558858" stroke="none" stroke-width="0" fill="none"/><path d="M43.67883033273244 17.753213553712826 C110.58328404883481 18.824566333263302, 179.69275990822342 19.090762897856592, 256.19623346702946 19.013405181717815 M43.893002051933344 18.96656625847691 C101.40779249121772 20.59550932100954, 158.26957215357248 19.718862702809915, 255.55557704048144 19.5774658567735 M255.84986168464462 18.72124442452798 C257.50792463568865 51.77652084571463, 255.60753698469819 82.64671690602967, 257.40765470415204 161.0520735900344 M256.64977368801567 19.117473651830114 C257.6609961800564 72.75176252947378, 256.38101077102607 126.04877939276119, 256.25910104412065 160.63191770436995 M254.31487904112467 162.4238022690475 C211.90275822366104 161.97605966449635, 166.7017977753492 160.89100371905192, 44.983762754041024 162.46439843756423 M255.52919434222116 161.78501878517926 C178.84424689441894 160.86054759960007, 100.4638904705734 161.55353433376476, 43.35516513186295 161.7598678322882 M44.24241168177888 162.10425078585342 C44.640063971463206 124.53254875568783, 45.45635707320029 89.78575809503036, 42.57398159983083 17.281501995412192 M43.17931591943751 160.70820549727352 C46.3446355047625 106.59015981052708, 44.43924772914368 50.62291029197826, 44.807295689077215 18.572856615322948" stroke="rgb(0, 0, 0)" stroke-width="1" fill="none"/></g><g><path d="M50.09397793475778 24.449863041245145 L111.85683497064194 26.006909091822646 L109.21895621836424 75.38280348117266 L48.69139098052569 74.15942907045365" stroke="none" stroke-width="0" fill="none"/><path d="M49.12764044273706 26.687988616636204 C68.11781690870683 26.739085007695117, 87.21566609565194 26.08101666852817, 111.70820276381396 25.495634945636898 M49.2613614155083 25.66611920899666 C66.81141947297475 24.713184882333458, 85.82390209314859 24.477019855876897, 109.21337317842762 25.81737418252191 M109.0168739785667 26.396801311455775 C109.063432044393 39.20558661829407, 108.10548650262285 54.214874095244674, 108.9349065688794 76.26769347658424 M110.12710464549747 24.359928759258153 C110.44077195793825 37.88082492739325, 109.70609621171356 50.83363982093925, 110.71371504626829 74.50077653872691 M110.92075207068056 75.54705080015935 C88.68440927637745 74.08897216711709, 70.61748226100933 76.25422864708135, 51.06686428172825 76.15650597009284 M110.12530914607707 74.41152772046445 C94.5130628457628 75.62609541309351, 78.4035363249376 75.63944066588603, 50.424358469295065 74.20477737769504 M50.81823649793702 74.00246789670163 C50.919986784656594 62.13292788504355, 50.14311691796745 51.38315346017273, 51.631513598663425 24.35981362935701 M49.85654360744651 74.99422031253441 C49.53040358325811 62.6303759708982, 50.12308242419023 52.40712207024147, 49.894350465534345 25.937118078009604" stroke="rgb(0, 0, 0)" stroke-width="1" fill="none"/><text x="80" y="55" class="id" aria-label="id: id76">id76</text></g><g><path d="M154.40214477337727 26.291904485315158 L250.11065211151902 23.421737818568285 L248.6093801165223 76.08129500002647 L157.59213592081522 73.9910455341104" stroke="none" stroke-width="0" fill="none"/><path d="M155.84267495708968 26.33476159196231 C180.96871337495804 24.64261657515506, 206.2743532865624 26.52576004800574, 249.86385745877098 26.61587732240846 M155.01049379651352 24.708123633143753 C181.28628442072983 25.145851531049324, 206.91808448013833 25.090022552264312, 249.93071527842616 24.77189434422245 M249.58035746629588 24.63340780922039 C251.39499922623548 36.35159509823691, 251.012624618003 49.32106974383299, 249.13917215661874 73.56511037025179 M249.16816125279132 24.373081755115205 C249.46303153385387 37.96459030298827, 249.34780370319672 50.04674998433886, 249.17357280603446 75.75795617321724 M249.96808336656986 76.37552944319529 C226.93272884739702 77.62695308308932, 205.4608829918237 73.95045685504883, 154.12437742870665 75.74138864173719 M250.4664853976438 75.58097925175346 C214.52272837900784 76.3305402431663, 177.7916345056623 75.8916092344844, 155.173152474971 74.68507022996691 M154.43982121522708 73.37469276171018 C154.5716658184594 56.034322199503244, 157.7215468976055 36.03609825646044, 157.26802400338377 23.059132549893363 M156.00493814402026 74.26866629401833 C156.65742437859353 59.29408741570632, 156.47401659092682 44.98833027816808, 155.92715222653757 25.68887925305609" stroke="rgb(0, 0, 0)" stroke-width="1" fill="none"/><text x="203" y="55" class="type" aria-label="type: complex">complex</text></g><text x="150" y="115" class="value" aria-label="value: (4+2j)">(4+2j)</text></g></svg>