<svg data-theme="dark" width="287" height="217" xmlns="http://www.w3.org/2000/svg"><title>Python memory model diagram showing objects</title><style>
        :root {
        --fade-text-color: rgb(0, 0, 0);
        --hide-text-color: white;

        --highlight-value-text-color: rgb(27, 14, 139);
        --highlight-id-text-color: rgb(150, 100, 28);

        --highlight-box-fill: yellow;
        --highlight-box-line-color: rgb(0, 0, 0);

        --fade-box-fill: rgb(247, 247, 247);
        --fade-box-line-color: gray;

        --hide-box-fill: white;

        --primitive-value-color: rgb(27, 14, 139);
        --id-text-color: rgb(150, 100, 28);
        --default-font-size: 20px;

        --highlight-object-fill: rgba(255, 255, 0, 0.6);
    }

        text {
            font-family: Consolas, Courier;
            font-size: 20px;
        }
        text.default {
            fill: rgb(0, 0, 0);
            text-anchor: middle;
        }
        text.attribute {
            fill: rgb(27, 14, 139);
            text-anchor: start;
        }
        text.variable {
            fill: rgb(0, 0, 0);
            text-anchor: start;
        }
        text.id {
            cursor: auto;
            fill: rgb(150, 100, 28);
            text-anchor: middle;
        }
        text.type {
            fill: rgb(27, 14, 139);
            text-anchor: middle;
        }
        text.value {
            fill: rgb(27, 14, 139);
            text-anchor: middle;
        }
        path {
            stroke: rgb(0, 0, 0);
        }
        .highlighted path {
            fill: var(--highlight-object-fill) !important;
        }
    
        [data-theme="dark"] {
            --highlight-value-text-color: #110875;
            --highlight-id-text-color: #6e4409;

            --fade-text-color: #BBBBBB;
            --hide-text-color: #121212;

            --highlight-box-fill: #EDB926;
            --highlight-box-line-color: #FFFFFF;

            --fade-box-fill: #2C2C2C;
            --fade-box-line-color: #666666;

            --hide-box-fill: #121212;

            --highlight-object-fill: rgba(72, 207, 173, 0.3);
        }
        [data-theme="dark"] text.default,
        [data-theme="dark"] text.variable {
            fill: rgb(224, 224, 224);
        }
        [data-theme="dark"] text.attribute,
        [data-theme="dark"] text.type,
        [data-theme="dark"] text.value {
            fill: rgb(144, 164, 237);
        }
        [data-theme="dark"] text.id {
            fill: rgb(255, 183, 77);
        }
        [data-theme="dark"] path {
            stroke: rgb(204, 204, 204);
        }
</style><g role="graphics-object"><title>Complex id76 with value (4+2j)</title><g id="object-0"><path d="M51.65387652873513 23.41375853790812 L251.59333710066392 23.39263911291144 L248.50118392108448 153.70284704451447 L48.01156046303714 153.90647320127493" stroke="none" stroke-width="0" fill="none"/><path d="M51.68343466098259 26.661237205971076 C92.08877497550533 27.18064621381028, 138.217978698548 25.40533952802606, 248.61505710663678 23.31267326257187 M49.279504218196976 25.88424041932849 C112.32221993735538 23.581172059097934, 175.51249418207027 24.178641897985745, 249.4443887529468 24.96984976310047 M248.35992450019364 26.710728554113565 C249.0361292136175 71.79635568382336, 249.70864859244517 124.06380516379976, 251.36735379548838 155.1292389055182 M250.7135809918218 24.471174138496647 C248.81928657389724 53.15830250631224, 249.75449833957916 81.55542076792531, 249.54514990974587 155.33747651496782 M250.09998811814336 156.41711285635532 C197.71508853370574 154.47875996139473, 142.89875980150336 155.63781369736506, 48.80209244936199 156.47721789993327 M249.29276880596078 154.76245714414293 C170.94457269246573 153.53765509954087, 92.43795156436875 155.06102183182207, 49.486127001421075 154.53634490575052 M49.20597713927646 153.7604837351912 C47.8870581046933 115.82296085499544, 51.45031020760361 76.13686701845513, 50.94002500433152 26.528989478967322 M49.251983265777 154.68488998930138 C48.62674193478372 105.96768431973484, 47.91937110205659 55.82185669522014, 50.82575866189757 24.939281857108863" stroke="rgb(0, 0, 0)" stroke-width="1" fill="none"/></g><g><path d="M43.858381071736474 17.003639532694876 L257.73677377766126 17.918309610053665 L255.59095558559434 159.43346179400658 L42.36918945947451 159.77615940141197" stroke="none" stroke-width="0" fill="none"/><path d="M44.19507189222123 19.62696905939365 C99.78495851343325 16.368910564120963, 158.80935868458303 17.758550244101063, 256.66352454448435 18.791378038199703 M43.8410690287279 18.59832712267617 C119.15987041716639 17.378680613181427, 195.98495524668303 17.936705074238024, 256.18720273335066 19.036464563403698 M255.00047780665338 20.04515330638347 C256.41788125120354 71.74020840094818, 254.95281188734575 126.10473734203151, 255.84570605835722 162.44132612544053 M255.4422945668606 18.354371662942526 C255.45458026831702 48.212007634969666, 256.1892191308326 78.19391385235407, 256.78342960512185 161.10343216049299 M256.16939858072226 162.4879777605756 C185.76982346740922 164.06028940948747, 117.06635004460942 163.14841340313703, 44.47150055268569 159.9017015994601 M256.7146797170423 160.3122059572502 C210.11933053995799 159.60066017939022, 164.54621095201264 160.57490705865237, 44.145752028869836 160.45827883618335 M42.79397420281138 159.23483471729122 C44.36960865083023 131.4980532250499, 42.562672980340366 104.85221748042868, 42.26990641615686 17.158966498411022 M43.83363931749865 161.38430025798397 C45.138552085273886 110.74589474674163, 45.43457114078529 61.265832713070864, 43.40492494231099 19.63992119067753" stroke="rgb(0, 0, 0)" stroke-width="1" fill="none"/></g><g><path d="M48.528926949657865 23.34323625686285 L111.19037722052134 26.96382243273269 L109.35652275256312 73.10184177379979 L50.075256266667566 75.24324276628181" stroke="none" stroke-width="0" fill="none"/><path d="M50.352537381693324 25.922703608869135 C72.47848328949168 26.692169888127353, 95.60610758399513 24.947586257039077, 108.13756794462817 26.375291981493135 M49.26690297407429 25.97852753743911 C63.013016096642346 25.26399021543251, 76.74857520903588 26.24135835120128, 109.9189937004806 24.10604800583184 M111.60865122054314 23.218710001339264 C110.00272048471436 35.36187899935097, 109.53693139706249 49.981785008735976, 110.58187266194317 73.93612155163201 M109.71443099452542 25.498575082411563 C108.57124827213882 37.75230747855518, 109.47398755167728 50.67755760628817, 109.27604907500924 74.23692604002771 M111.36709921387194 75.89641326936729 C88.01693187260801 75.04934568403593, 70.7605573328893 75.02333800869064, 50.06021082367046 76.94076824754728 M110.31818436706237 74.78657595848836 C96.7905731588547 74.19347445876119, 81.18834826685764 74.45004302642363, 50.827228433930614 74.24203040936872 M49.47328692164572 74.05352027521383 C51.098396756842334 57.474540382018176, 47.67947200230861 34.144062445712876, 49.27922933493574 24.464580088369143 M49.457154458711635 74.91527540001563 C49.1182347941903 64.91400275803761, 48.734692666665545 52.90144867339933, 50.456516926728 25.36275516725738" stroke="rgb(0, 0, 0)" stroke-width="1" fill="none"/><text x="80" y="55" class="id" aria-describedby="desc-0">id76<title id="desc-0">Object id: id76</title></text></g><g><path d="M154.2172146229669 24.336736958687442 L248.24323956664608 25.007722307713642 L249.76020860538662 75.53527275211185 L156.06650320934816 76.6582240092119" stroke="none" stroke-width="0" fill="none"/><path d="M157.59287154884134 25.103333964881863 C184.3333185066509 25.157783430332014, 211.6822361677258 26.31668913198012, 249.96726745527337 25.76693012488503 M156.1506192660441 24.687555481407177 C174.60191806074224 24.808454264150733, 195.0426200600684 24.54310696631145, 250.75454169729693 25.22409825889488 M249.16255822898992 26.342189572925772 C250.99671844703727 44.89345043030228, 248.27145578712876 61.39933444748203, 249.82783384308425 74.70708266558943 M249.3706997241665 24.0045658850394 C250.7162117387596 45.40455161171834, 251.2125334666903 62.88424165911659, 250.18611919672765 75.23435855930502 M250.9362491207913 75.90140308097332 C221.5405759357229 73.31953589302093, 190.7314459694712 74.363343656656, 157.1461005492214 74.97159994447411 M249.90205921322917 74.37880001843808 C224.15400864653375 75.0986472824647, 198.75740668389804 74.58210235150379, 155.8628457889517 75.32374556444425 M155.05914568255866 73.595244256481 C156.71216468831713 64.65939780708958, 157.45965939324762 52.807125265540215, 156.67580149993407 26.726108736562715 M155.21732882281833 75.63548913758771 C156.23449203514258 59.72925042102442, 155.53695167143775 44.600045219017254, 156.68100924970412 25.613005683253512" stroke="rgb(0, 0, 0)" stroke-width="1" fill="none"/><text x="203" y="55" class="type" aria-describedby="desc-1">complex<title id="desc-1">Object type: complex</title></text></g><text x="150" y="115" class="value" aria-describedby="desc-2">(4+2j)<title id="desc-2">Value: (4+2j)</title></text></g></svg>