<svg width="287" height="217" xmlns="http://www.w3.org/2000/svg"><title>Python memory model diagram showing objects</title><style>
        :root {
        --fade-text-color: rgb(0, 0, 0);
        --hide-text-color: white;

        --highlight-value-text-color: rgb(27, 14, 139);
        --highlight-id-text-color: rgb(150, 100, 28);

        --highlight-box-fill: yellow;
        --highlight-box-line-color: rgb(0, 0, 0);

        --fade-box-fill: rgb(247, 247, 247);
        --fade-box-line-color: gray;

        --hide-box-fill: white;

        --primitive-value-color: rgb(27, 14, 139);
        --id-text-color: rgb(150, 100, 28);
        --default-font-size: 20px;

        --highlight-object-fill: rgba(255, 255, 0, 0.6);
    }

        text {
            font-family: Consolas, Courier;
            font-size: 20px;
        }
        text.default {
            fill: rgb(0, 0, 0);
            text-anchor: middle;
        }
        text.attribute {
            fill: rgb(27, 14, 139);
            text-anchor: start;
        }
        text.variable {
            fill: rgb(0, 0, 0);
            text-anchor: start;
        }
        text.id {
            cursor: auto;
            fill: rgb(150, 100, 28);
            text-anchor: middle;
        }
        text.type {
            fill: rgb(27, 14, 139);
            text-anchor: middle;
        }
        text.value {
            fill: rgb(27, 14, 139);
            text-anchor: middle;
        }
        path {
            stroke: rgb(0, 0, 0);
        }
        .highlighted path {
            fill: var(--highlight-object-fill) !important;
        }
    </style><g role="graphics-object"><title>Date id76 with value 2019-12-04</title><g id="object-0"><path d="M48.3554599208767 25.4599375291639 L249.74212927498618 24.599688806466535 L250.02318503036528 156.9716034405002 L50.76252260728533 156.3912351576888" stroke="none" stroke-width="0" fill="none"/><path d="M50.170867276235384 23.356105998094353 C95.77788637454572 26.532582847767394, 141.36173841914274 25.221583042524273, 251.6178016213391 24.976945987563052 M49.65444602597257 25.6295982792587 C118.45809902562304 23.168815713998256, 188.80541636470744 24.095969905069985, 249.9742455786633 24.153061938128026 M251.32675471362768 24.71410826723831 C249.89154216112243 78.87632782045482, 251.56588502202717 129.79205620280277, 250.62697449580205 156.04172745660335 M249.3274801921276 25.67152606670613 C250.24157478545237 77.45646201444163, 251.4782655969488 128.7396487390065, 249.9040940982995 155.33565857900183 M249.2733471278497 155.9046302194555 C178.21278300111055 156.33502719508658, 110.79453857536679 156.06998736925448, 48.531284279598964 153.84413414786238 M249.22502340158786 154.4536741378424 C173.46079299404548 153.65241355928396, 96.23428327225966 154.10137872645797, 50.06334914549599 154.99279338749608 M50.852673602538744 154.1379283124173 C47.76543297404081 125.61809140800021, 50.81501216989375 99.21696423924563, 51.750940166039456 25.168535599311248 M50.64419532580718 155.15209303096523 C48.86920657162041 113.82729323805681, 48.82032414283147 71.25235011211167, 49.11107843000566 24.77681604945215" stroke="rgb(0, 0, 0)" stroke-width="1" fill="none"/></g><g><path d="M43.90460891752182 20.42703493124674 L254.12933429137607 17.05216541936753 L254.115793251378 161.99559151294133 L43.13934418598145 159.75036038337097" stroke="none" stroke-width="0" fill="none"/><path d="M43.76364311302865 18.827029091484533 C98.94867159698214 18.909916898453258, 152.3303258482618 20.683170785689196, 254.5450598670166 20.179552211009966 M44.30254021127629 18.705413032210597 C120.62295967197905 19.353982694421966, 195.01041444892203 18.972481875418826, 255.43620528204224 19.191961536741946 M254.85549576530963 19.23895020408771 C257.0217672821113 58.373572003493955, 255.21702783753952 93.28198751120578, 256.63185102082485 159.39009596874607 M256.9946658441772 19.945255031141127 C257.0523297128686 63.75036046353621, 256.3123472943509 109.9873960616465, 256.017589118544 161.72426125263843 M257.63348747476385 160.97840069955407 C178.39764242885886 159.2885775251885, 104.95681500843858 158.10780080771252, 44.84561034152735 162.2572779258974 M256.04377195939827 161.2806831426304 C178.3167753591244 160.32492331749097, 100.99683999320783 160.38064155136777, 43.32376360346368 160.9801253058144 M42.48229262531246 162.68423135752835 C45.516662286705866 105.6310664553505, 44.27480217508659 55.70891892323332, 44.21856364822016 18.81591850451391 M43.83720095969842 160.72564239317796 C43.85128517944172 104.57826458584736, 43.28330497463123 50.17499517584016, 44.16527811689759 19.080547962866504" stroke="rgb(0, 0, 0)" stroke-width="1" fill="none"/></g><text x="150" y="115" class="value">2019-12-04</text><g><path d="M49.81569665200939 26.407054833446974 L110.99659160141206 23.08190983716644 L108.38888007790317 73.87127550341845 L50.415983538601665 74.71951044223988" stroke="none" stroke-width="0" fill="none"/><path d="M51.975852515258396 24.672068916390412 C72.06670037162502 23.85130721111776, 90.19718738555588 24.990580772702806, 108.49330869342782 26.01523480817763 M50.78574129104799 24.009377399398975 C65.57318159646059 24.26826981445308, 79.94897001666742 24.53432501698352, 109.71245177124598 25.80854263266802 M109.82957344799284 24.36662522515782 C111.29950830175378 40.25149526636981, 110.35855839047372 55.164802023031456, 110.92914414947424 75.12913738614526 M109.62474566550982 24.33175467047907 C110.39013203513977 44.2310105562148, 109.44698960142357 64.29760844216987, 110.85607195666384 75.02510322411963 M109.23527821775939 75.25614912055542 C93.93856148492094 74.60318552359537, 74.02354412882843 73.21031756888286, 50.95184361629514 73.5032942642543 M109.18966643825598 75.81482111525918 C87.67332443605811 74.43294836568556, 65.14887052201257 74.29445510036241, 50.100217117259795 75.20265621667554 M51.1336111098388 75.4177631001681 C51.49067270339535 58.11612730473651, 50.17715942871547 36.432752349513336, 49.74605795780894 25.41228141680931 M49.75305443668577 75.98217825524033 C48.79471280290397 59.2850452618314, 49.67250226035126 41.96311977219751, 50.725497348718356 24.918574711577076" stroke="rgb(0, 0, 0)" stroke-width="1" fill="none"/></g><g><path d="M190.58226617670545 26.735894543350067 L249.8876529682045 26.56928465463557 L250.53910267004179 76.71834166923453 L189.25027042532517 76.2909891295926" stroke="none" stroke-width="0" fill="none"/><path d="M191.7138537706245 24.04195707261056 C214.3051531244124 22.49792542515317, 237.2913005389891 24.322223758650278, 250.0693960382107 26.933135525122644 M190.0215673506226 25.432984572733638 C212.61548006075887 24.649903544355745, 235.69153870965403 25.129582409262632, 249.21238164849 24.558728361975632 M248.8607824361123 26.004728294739873 C251.6484257069746 42.37588631125127, 251.66114142524836 58.12422343130476, 251.2901394417425 74.62109792583186 M250.23358543366436 24.620321626065696 C250.4264040296502 35.10005365199116, 250.86608911613837 47.17252245954428, 250.7770750391142 74.19791867285694 M248.01948056909902 73.4817049109601 C232.64033664293217 75.67114232210524, 215.49042230545487 73.60260528152874, 190.43171947673247 74.61869708812989 M250.32211574023597 75.35572228701655 C233.61278256279667 75.64268508676474, 217.86118532232302 75.51962181716445, 189.79030652219615 74.81193871757291 M189.99771534439304 74.58444057974957 C188.63348137931175 55.12817301591765, 189.862601117583 37.458859039086434, 191.14438929713575 24.005084271659577 M189.16894215199193 75.99219732609298 C190.1458619581009 56.25083854529449, 189.96275184464926 39.39791451003997, 190.91282822805994 25.974757340970797" stroke="rgb(0, 0, 0)" stroke-width="1" fill="none"/></g><text x="80" y="55" class="id">id76</text><text x="220" y="55" class="type">date</text></g></svg>