<svg data-theme="dark" width="287" height="217" xmlns="http://www.w3.org/2000/svg"><title>Python memory model diagram showing objects</title><style>
        :root {
        --fade-text-color: rgb(0, 0, 0);
        --hide-text-color: white;

        --highlight-value-text-color: rgb(27, 14, 139);
        --highlight-id-text-color: rgb(150, 100, 28);

        --highlight-box-fill: yellow;
        --highlight-box-line-color: rgb(0, 0, 0);

        --fade-box-fill: rgb(247, 247, 247);
        --fade-box-line-color: gray;

        --hide-box-fill: white;

        --primitive-value-color: rgb(27, 14, 139);
        --id-text-color: rgb(150, 100, 28);
        --default-font-size: 20px;

        --highlight-object-fill: rgba(255, 255, 0, 0.6);
    }

        text {
            font-family: Consolas, Courier;
            font-size: 20px;
        }
        text.default {
            fill: rgb(0, 0, 0);
            text-anchor: middle;
        }
        text.attribute {
            fill: rgb(27, 14, 139);
            text-anchor: start;
        }
        text.variable {
            fill: rgb(0, 0, 0);
            text-anchor: start;
        }
        text.id {
            cursor: auto;
            fill: rgb(150, 100, 28);
            text-anchor: middle;
        }
        text.type {
            fill: rgb(27, 14, 139);
            text-anchor: middle;
        }
        text.value {
            fill: rgb(27, 14, 139);
            text-anchor: middle;
        }
        path {
            stroke: rgb(0, 0, 0);
        }
        .highlighted path {
            fill: var(--highlight-object-fill) !important;
        }
    
        [data-theme="dark"] {
            --highlight-value-text-color: #110875;
            --highlight-id-text-color: #6e4409;

            --fade-text-color: #BBBBBB;
            --hide-text-color: #121212;

            --highlight-box-fill: #EDB926;
            --highlight-box-line-color: #FFFFFF;

            --fade-box-fill: #2C2C2C;
            --fade-box-line-color: #666666;

            --hide-box-fill: #121212;

            --highlight-object-fill: rgba(72, 207, 173, 0.3);
        }
        [data-theme="dark"] text.default,
        [data-theme="dark"] text.variable {
            fill: rgb(224, 224, 224);
        }
        [data-theme="dark"] text.attribute,
        [data-theme="dark"] text.type,
        [data-theme="dark"] text.value {
            fill: rgb(144, 164, 237);
        }
        [data-theme="dark"] text.id {
            fill: rgb(255, 183, 77);
        }
        [data-theme="dark"] path {
            stroke: rgb(204, 204, 204);
        }
</style><g><title>Group of 1 objects</title><g role="graphics-object"><title>Date id76 with value 2019-12-04</title><g id="object-0"><path d="M48.69817286655195 25.59339032718023 L248.8806327302649 25.6858912525038 L248.88042386599028 156.03152862512525 L48.80473365236644 154.14025102833668" stroke="none" stroke-width="0" fill="none"/><path d="M51.31747934761196 26.638251293097994 C118.5160626027569 26.92247168353974, 191.48016900240586 25.024296331746342, 251.11457641823822 24.024173872984463 M50.01886800392089 24.601543271852904 C98.37407099129824 24.29176691144826, 148.28409770179033 25.013562212319965, 249.5434169863506 24.778704948337282 M248.8098654081005 23.849512312209093 C250.28114003608695 69.69894763630751, 248.5540791893914 117.75929474948991, 250.30893383544137 155.8345496987842 M250.7940325694714 25.802740914040253 C249.46483985263825 52.32761322211553, 250.57170782229812 78.54528329885939, 249.29241723660056 155.74439472983804 M251.07211738251982 153.35391919031622 C181.3311296481907 152.90129587292233, 110.69173419935771 155.29705719383026, 50.357143401854486 156.4346822621104 M249.4247611932163 155.2953868573705 C197.8283799557392 156.23538983846458, 146.66082026429103 155.74358751292922, 49.906236120216576 154.43382521541466 M51.05960065137017 154.9105566143078 C50.909985226450694 108.80845975644826, 48.7288479664404 62.633373735366824, 51.30583285686502 24.356904333184175 M50.03272596022718 155.08525383441315 C51.35858589953845 127.21428022785835, 50.34856826550829 98.7376525015798, 50.09580133249043 24.495750579398198" stroke="rgb(0, 0, 0)" stroke-width="1" fill="none"/></g><g><path d="M45.096887997139866 20.02782353148485 L254.27899507840425 20.81476218295331 L255.7391026219346 159.67378458467562 L42.52887601692795 160.33087939009027" stroke="none" stroke-width="0" fill="none"/><path d="M43.30966003170011 19.087513054184647 C92.16771987705783 20.35620641949556, 144.49451170022127 18.785446974463152, 257.63269930006146 20.659212461162692 M43.61040411796974 18.91621661195596 C98.28882906514995 18.816515946224964, 153.63565835753565 18.904010236372642, 256.0023203463835 19.592793546662357 M257.6556094000154 19.81321983543181 C255.63034973944139 60.29028638175605, 257.1600591708159 103.63377698692051, 257.16546449321487 159.04990457001898 M256.74354884239585 19.379069152787714 C255.53780658880467 48.776100222680505, 254.08923360054183 78.10094272683394, 255.4381170060426 161.46934687860778 M256.11926446371314 159.28650978928707 C213.52892950147557 160.9182851474502, 171.0005200608423 159.84220701468954, 45.53190368939433 159.43297020991542 M255.3406043762356 161.689927360648 C210.84079094644622 160.01941376593751, 166.68881512314826 159.5736927822432, 43.92109828818499 160.47895885475472 M45.403695518313015 162.79735067977384 C43.471427517937464 111.28420204025747, 42.60529311311606 58.260432137935, 45.84924603530931 17.493349692260463 M44.80673726632527 160.62980357474277 C43.37972905012669 132.32732437462315, 44.25642761163985 103.50675806250057, 43.42274267232731 18.33831588727934" stroke="rgb(0, 0, 0)" stroke-width="1" fill="none"/></g><g><path d="M51.968582942548196 26.83542894267807 L111.34583562362805 24.01455754736577 L108.10282257263518 75.17948617977319 L48.96741804482363 74.42524095928731" stroke="none" stroke-width="0" fill="none"/><path d="M49.39950106427632 24.274528585656448 C68.76478075578004 25.34679551421466, 89.37823158726773 26.74014817980127, 108.43558544983446 25.615128247867688 M50.16340347720626 25.698787182848115 C73.50338166406898 24.483175848439377, 96.21389615149623 24.886868045473104, 109.93235257219656 24.548224386282897 M110.37274667565512 25.659704401140125 C111.38039377291437 39.1454284400771, 108.98826909537627 55.97485992479694, 110.45358982497686 76.98031474507985 M110.03991378208761 25.889798433427366 C109.26827187715519 40.99593113114258, 109.29772533509772 59.251617848175265, 109.92003750639019 75.67897583794421 M111.44203733603283 73.89127200398914 C87.77994177229156 74.8516026678339, 69.85411671416999 74.29196007513272, 50.44471982409522 73.65204661673538 M110.8049816290568 74.2542535505475 C91.5316298602009 74.78979837762098, 74.51808964005427 75.67879060394169, 50.49721727317959 75.89927815645451 M49.62148924992239 73.08078256391369 C50.78108633241047 64.6556291703063, 48.421139384114596 50.45529093518868, 51.08195715996043 26.499215739916217 M49.312239416031964 75.80286876249139 C50.65917800449587 60.080245984160825, 51.21501217327612 43.43371999843675, 49.31727644474535 24.89719517714812" stroke="rgb(0, 0, 0)" stroke-width="1" fill="none"/><text x="80" y="55" class="id" aria-describedby="desc-0">id76<title id="desc-0">Object id</title></text></g><g><path d="M190.726892606682 23.009290024104747 L250.61522867020457 23.60696482867246 L250.56253869371386 73.28738096493234 L189.51863328988668 75.9259008319711" stroke="none" stroke-width="0" fill="none"/><path d="M190.55332420211164 24.295316240375477 C204.38183701463203 26.28612190883114, 214.56853621246964 25.134323504538777, 251.56605485150402 25.703488298363922 M189.1576327868746 24.177336856917428 C210.3143230251889 25.275776093069105, 230.01275763649795 24.595053392716242, 250.14533588550933 24.108533849879215 M250.55572626874994 25.494655263706875 C251.5547465882758 43.621723147503644, 248.90992601398105 58.165879060643796, 249.4356457312748 76.34453719878444 M249.92925232164376 25.971931098644205 C249.05876385048532 38.64860847225746, 250.50454279979635 50.72325979480766, 250.14995694324887 74.55158272743473 M250.0430522408211 75.91501088110455 C234.63284378275156 75.27766205243083, 215.5340049666145 76.20587922569916, 191.2281294015188 75.9365600454617 M250.44348074451537 74.32296522553149 C235.38296299814218 75.1662604608086, 219.90061182281303 75.0043079694731, 189.6172482277229 74.34369377934298 M189.11291428761714 76.23028487631873 C188.0712059017306 53.238549375618334, 191.56342261442856 34.76455333204125, 189.15512892385019 26.75798269023136 M190.66511457665106 74.32739708971755 C189.2888924931381 62.15715205167833, 189.4457560486952 49.38713923084623, 190.74616309028832 24.450553138439375" stroke="rgb(0, 0, 0)" stroke-width="1" fill="none"/><text x="220" y="55" class="type" aria-describedby="desc-1">date<title id="desc-1">Object type</title></text></g><text x="150" y="115" class="value" aria-describedby="desc-2">2019-12-04<title id="desc-2">Value</title></text></g></g></svg>