<svg data-theme="dark" width="262" height="217" xmlns="http://www.w3.org/2000/svg"><title>Python memory model diagram showing objects</title><style>
        :root {
        --fade-text-color: rgb(0, 0, 0);
        --hide-text-color: white;

        --highlight-value-text-color: rgb(27, 14, 139);
        --highlight-id-text-color: rgb(150, 100, 28);

        --highlight-box-fill: yellow;
        --highlight-box-line-color: rgb(0, 0, 0);

        --fade-box-fill: rgb(247, 247, 247);
        --fade-box-line-color: gray;

        --hide-box-fill: white;

        --primitive-value-color: rgb(27, 14, 139);
        --id-text-color: rgb(150, 100, 28);
        --default-font-size: 20px;

        --highlight-object-fill: rgba(255, 255, 0, 0.6);
    }

        text {
            font-family: Consolas, Courier;
            font-size: 20px;
        }
        text.default {
            fill: rgb(0, 0, 0);
            text-anchor: middle;
        }
        text.attribute {
            fill: rgb(27, 14, 139);
            text-anchor: start;
        }
        text.variable {
            fill: rgb(0, 0, 0);
            text-anchor: start;
        }
        text.id {
            cursor: auto;
            fill: rgb(150, 100, 28);
            text-anchor: middle;
        }
        text.type {
            fill: rgb(27, 14, 139);
            text-anchor: middle;
        }
        text.value {
            fill: rgb(27, 14, 139);
            text-anchor: middle;
        }
        path {
            stroke: rgb(0, 0, 0);
        }
        .highlighted path {
            fill: var(--highlight-object-fill) !important;
        }
    
        [data-theme="dark"] {
            --highlight-value-text-color: #110875;
            --highlight-id-text-color: #6e4409;

            --fade-text-color: #BBBBBB;
            --hide-text-color: #121212;

            --highlight-box-fill: #EDB926;
            --highlight-box-line-color: #FFFFFF;

            --fade-box-fill: #2C2C2C;
            --fade-box-line-color: #666666;

            --hide-box-fill: #121212;

            --highlight-object-fill: rgba(72, 207, 173, 0.3);
        }
        [data-theme="dark"] text.default,
        [data-theme="dark"] text.variable {
            fill: rgb(224, 224, 224);
        }
        [data-theme="dark"] text.attribute,
        [data-theme="dark"] text.type,
        [data-theme="dark"] text.value {
            fill: rgb(144, 164, 237);
        }
        [data-theme="dark"] text.id {
            fill: rgb(255, 183, 77);
        }
        [data-theme="dark"] path {
            stroke: rgb(204, 204, 204);
        }
</style><g><title>Group of 1 objects</title><g role="graphics-object"><title>Date id76 with value 2019-12-04</title><g id="object-0"><path d="M24.295921929613012 23.652761264225113 L223.8915468495803 24.859126281358186 L224.8004447162288 155.81605801355798 L25.96035884779713 155.898549409213" stroke="none" stroke-width="0" fill="none"/><path d="M25.611340391648994 25.106285088696808 C97.23469021613994 25.118805732100338, 168.6477049868625 26.676223344014453, 226.56897512282453 23.9987578073314 M25.850218976606865 25.665962706919927 C84.8525868832895 22.785286923562484, 145.52189738405795 22.498818720891173, 225.41044875241738 24.894024650828108 M225.56098750466234 25.591399443680572 C222.4298577223461 57.51888092718763, 223.84574623408625 93.44443650935101, 223.267736925615 153.51336303183987 M224.4804389622578 25.9939258879359 C225.21017885453446 71.57262077269024, 224.5959298588929 117.3274616399744, 225.23818046762122 154.50388004598517 M223.91364737265624 156.6877886128385 C173.32796964616912 156.72758115104705, 122.87643954602983 158.08603741624117, 25.856616707120995 155.05712802653602 M225.039365626765 154.22615219496026 C171.05163475664904 153.04984460293446, 119.34296791830262 153.9902053284754, 24.828569994772533 155.67702029768336 M26.849048722280056 156.98594393326997 C24.63591234097818 117.98173474649006, 23.96095839526594 81.01114910856525, 25.516890956918193 25.78946641162863 M25.207166651395767 154.81152786191433 C25.871965949234145 106.25667076976656, 26.59036792094606 58.41835157478286, 25.959099591449373 25.84401727204004" stroke="rgb(0, 0, 0)" stroke-width="1" fill="none"/></g><g><path d="M19.762027671794165 19.407819183704724 L229.79936032361067 20.844068227717337 L229.1412800776841 160.59849290784246 L19.92804614479345 162.6943088495704" stroke="none" stroke-width="0" fill="none"/><path d="M19.803282014907168 20.63475391285364 C93.53321017890956 16.831160370925947, 166.54793782948732 17.5178161182619, 232.39395421222002 19.078052272068458 M19.65789389932172 18.972091582112625 C77.32588159093694 19.580568943268915, 134.56563667353703 18.040223422564004, 231.74625027734362 19.51799011896437 M232.7910575018258 17.80831700195057 C232.82806083575917 51.67508218172112, 231.5922321825252 79.29303399801302, 230.62702463003046 159.61450171760825 M231.97890922715644 19.155686426210245 C230.66195465081833 55.65874874365391, 229.86594406954353 92.13861496435266, 231.13648716493105 160.8291350670399 M232.09411727869323 161.61444830550644 C170.02040498124308 159.14198296303036, 107.25568060070094 158.841777580064, 19.388564071868313 161.51821978234773 M230.68276840812968 160.13832910043487 C151.34081647012275 159.86578207422374, 72.3354933995738 159.52745218989213, 18.879681002516335 160.56616656415292 M19.521284040991954 159.57529626875169 C21.25430448369682 129.3152657585622, 19.978127162342787 94.31920477895927, 17.320312070279115 18.583580462724036 M18.455430162913824 160.53796030873352 C18.824255778681366 114.70231086859204, 18.763333682957292 68.15273130926775, 19.126451873137306 19.9671231535133" stroke="rgb(0, 0, 0)" stroke-width="1" fill="none"/></g><g><path d="M23.151286546091196 23.95398724308934 L83.57576945512844 23.293201467172032 L86.93273868722731 75.42769977855801 L24.718363786284023 74.18504940987171" stroke="none" stroke-width="0" fill="none"/><path d="M26.852990476458604 26.708013180306377 C48.261875467594436 27.10140536065201, 70.89595893957159 24.586216704653715, 84.80041411165766 24.351983308064504 M25.27806175755777 25.989143315029782 C43.09092294484444 25.602864918216397, 63.57373030234264 25.828111769418012, 85.16934173693276 25.596939718270267 M83.33032203276136 26.27058648520986 C85.27575718364601 38.44705630853207, 83.63142683805282 54.73395764255036, 83.16751162827904 76.0669877535453 M84.67591406420308 25.717002680918522 C86.30058720931906 38.39940673587138, 85.23143541636655 52.57008380267996, 84.0707189343881 74.59225311924982 M84.7731387025058 74.74152801684866 C65.92287378718859 75.9109321895984, 49.60138776050374 74.39139044899117, 23.020455502193272 73.03170310496634 M85.15358481429115 74.16085187887312 C61.995842111093054 74.17941813672897, 41.48858848384655 74.5740427509574, 24.13289540776516 74.22510812793729 M25.99048040596293 73.4704059189953 C25.4161955167842 61.54223848813695, 24.081961799150346 46.168795744614094, 23.721558030228408 26.001444402073258 M24.364462571699544 74.01791795976436 C24.185110372571064 62.37649137204275, 25.927638620617213 49.529562562832375, 25.232805982721803 24.918804787692633" stroke="rgb(0, 0, 0)" stroke-width="1" fill="none"/><text x="55" y="55" class="id" aria-describedby="desc-0">id76<title id="desc-0">Object id</title></text></g><g><path d="M166.9049839061573 25.339243359573413 L223.7159167557023 25.24877129410922 L223.28577455959916 76.01040809795971 L164.16772203213793 76.59679432982257" stroke="none" stroke-width="0" fill="none"/><path d="M164.75394794877957 24.40916764701509 C188.35968756599206 25.45568853035263, 209.72818480745067 24.429757387941514, 225.22934798231995 26.70590496347757 M164.5524286249084 25.28316942110068 C180.42627839187617 24.397929181813513, 193.72780159262769 24.430925077809523, 224.71213924116202 25.95784942931869 M224.32677317326113 25.54269415622324 C224.27868737925905 42.965871565829495, 224.78806458043636 63.97952048272739, 224.34163309457625 73.9982660790864 M224.21013149596894 25.48531859252786 C225.00669991215486 44.23342014581892, 224.53927175793595 62.741976631453916, 224.70096026539676 74.25429559505096 M223.50743410694415 73.38264883786668 C211.1762224586268 76.54312092404294, 196.8758991217435 75.81134911380704, 166.02479948071505 75.06356133603269 M225.82491608631656 74.08529255422694 C205.75410382534182 74.9685110879885, 186.46922866781074 74.82360597006948, 165.07194213195126 75.14988271226102 M166.96261542766027 75.92917026092289 C165.02459266289355 63.98858719539375, 163.57156611456716 48.91238875552567, 165.5305431735917 23.446776742779306 M165.52718887887758 75.85206768260895 C165.33804483167603 58.19916524816108, 165.0947478983334 41.71314086249697, 165.44840466125726 25.121255283099643" stroke="rgb(0, 0, 0)" stroke-width="1" fill="none"/><text x="195" y="55" class="type" aria-describedby="desc-1">date<title id="desc-1">Object type</title></text></g><text x="125" y="115" class="value" aria-describedby="desc-2">2019-12-04<title id="desc-2">Value</title></text></g></g></svg>