<svg width="287" height="217" xmlns="http://www.w3.org/2000/svg"><title>Python memory model diagram showing objects</title><style>
        :root {
        --fade-text-color: rgb(0, 0, 0);
        --hide-text-color: white;

        --highlight-value-text-color: rgb(27, 14, 139);
        --highlight-id-text-color: rgb(150, 100, 28);

        --highlight-box-fill: yellow;
        --highlight-box-line-color: rgb(0, 0, 0);

        --fade-box-fill: rgb(247, 247, 247);
        --fade-box-line-color: gray;

        --hide-box-fill: white;

        --primitive-value-color: rgb(27, 14, 139);
        --id-text-color: rgb(150, 100, 28);
        --default-font-size: 20px;

        --highlight-object-fill: rgba(255, 255, 0, 0.6);
    }

        text {
            font-family: Consolas, Courier;
            font-size: 20px;
        }
        text.default {
            fill: rgb(0, 0, 0);
            text-anchor: middle;
        }
        text.attribute {
            fill: rgb(27, 14, 139);
            text-anchor: start;
        }
        text.variable {
            fill: rgb(0, 0, 0);
            text-anchor: start;
        }
        text.id {
            cursor: auto;
            fill: rgb(150, 100, 28);
            text-anchor: middle;
        }
        text.type {
            fill: rgb(27, 14, 139);
            text-anchor: middle;
        }
        text.value {
            fill: rgb(27, 14, 139);
            text-anchor: middle;
        }
        path {
            stroke: rgb(0, 0, 0);
        }
        .highlighted path {
            fill: var(--highlight-object-fill) !important;
        }
    </style><g role="graphics-object"><title>Date id76 with value 2019-12-04</title><g id="object-0"><path d="M48.453998235329486 26.170495414423534 L248.7568611644031 23.406384886440854 L248.87154727747222 153.1730666884017 L50.766398694077765 156.051250206953" stroke="none" stroke-width="0" fill="none"/><path d="M50.541734709671005 23.31395397783728 C107.85528928530874 25.82552673405782, 166.4139982588474 26.024312028582646, 250.72000249079858 26.63159562207896 M50.08138892083288 25.573409626928033 C101.8124116771215 23.971001187146737, 155.3715575289616 23.22974389059306, 250.0712602404133 24.981066667236398 M248.43801450992194 24.135774205413036 C249.80036838252587 65.35467146695706, 248.4249577585622 107.73624747234626, 249.2534469206259 155.26509714192252 M249.71743535055222 25.63000814837227 C251.14335475768124 67.92395964157065, 250.05567458852843 110.70587113896757, 250.01126221984063 155.41603468375155 M251.38440775909348 155.21282158070116 C189.75686128631347 157.4705497965736, 132.03493736665553 155.03090703580938, 51.43169522545867 156.37505079373963 M250.02198744913647 155.79352566860925 C206.64597426315854 153.06603284974716, 161.45938603842276 154.2089663902832, 50.49283769066648 155.7884284284305 M48.43909515000257 155.06518445858427 C49.11869899551731 116.1176427752531, 51.82940683567048 78.0486866988012, 51.69468302931555 26.490078372100573 M50.7850176097613 155.57051908277944 C49.82952624164157 113.39036943049504, 50.620111757698936 73.4471311215783, 49.569785545054216 24.213044815420496" stroke="rgb(0, 0, 0)" stroke-width="1" fill="none"/></g><g><path d="M42.60549410155626 17.548733478708037 L255.52879590548267 17.20402207929266 L257.98098305252745 160.54800298964884 L43.856313189662984 162.1074256063415" stroke="none" stroke-width="0" fill="none"/><path d="M42.96879270164587 18.264324426725253 C115.1998539553196 20.314994099507434, 187.3765367323924 19.62345977309284, 256.918760580404 20.570744346431315 M43.37562561560335 19.649400110739 C102.1392008910503 18.2432487423144, 160.00387316455053 18.626699839974947, 255.63043875218435 19.627109480757937 M256.36942024845297 18.66001558277225 C256.8850632715538 48.13587171427332, 256.0603303215087 81.80108682498437, 256.373295800215 161.5120124234155 M255.4336416735965 18.83686341398035 C257.08444160147343 63.9467506564157, 258.0047706032141 111.19649431041296, 255.63908917725706 161.95013269810357 M254.71369719264925 160.86164599219538 C191.4927444830912 158.5671968545783, 122.74331028616949 161.29341845534321, 44.145120812097275 161.72398930905752 M255.23528322590994 160.37288900712912 C211.91458393172348 161.55292821864174, 167.35107473341557 161.20264036392007, 44.19172181782303 161.29562272989835 M43.31548499349984 160.53019807036833 C43.73612089337845 114.71464989073522, 45.10054273759749 67.81001475669785, 42.23125446935007 19.17606447437783 M44.66971002095434 160.44873801012454 C43.07218526100239 106.50326157190005, 43.553912525498504 52.46791135839851, 44.08367433376732 19.054409976883385" stroke="rgb(0, 0, 0)" stroke-width="1" fill="none"/></g><g><path d="M48.583074485783186 25.75521072116593 L109.86759180298115 26.492696330620372 L111.71811259906882 76.32862706381981 L49.710084120857104 76.16842052850573" stroke="none" stroke-width="0" fill="none"/><path d="M51.30583307332509 24.077916425751624 C66.185734911554 26.068859762274585, 82.06561383308684 25.757846232424107, 110.91514060826286 24.704856569228888 M50.45488914722243 25.961811975931095 C68.05439833286194 24.99219023935524, 87.04757240270585 24.189226356290355, 109.42371052840912 25.90249702731065 M110.04586340598048 25.928072903619142 C108.93661255885556 40.55835511293862, 111.12276459454945 55.27679650172281, 108.13846689087562 75.85101705218318 M110.0738315691223 25.509720032647802 C109.9527295956299 40.335743193430105, 108.9931581414182 56.43487321444142, 109.01290160255242 74.69797928679489 M109.85306045892018 74.20006744567141 C98.46315935041018 77.25946226754031, 84.18909319881391 74.8344852696881, 48.47370306382702 76.91929993671904 M109.8314883605456 75.69710213961885 C91.93286249153007 76.43904551016708, 72.83178417703714 75.46120294312134, 49.55096433937343 74.42008007646106 M50.311957682689304 76.90020480292891 C49.33628457451064 55.760040150438236, 48.416124782232856 35.90179606015478, 50.55596519182033 26.865085821214052 M50.24722582336569 74.6236196539649 C50.88141503303716 58.03678946495236, 51.05231064476956 41.304371153748605, 50.61110021446706 24.45006270973902" stroke="rgb(0, 0, 0)" stroke-width="1" fill="none"/><text x="80" y="55" class="id" aria-describedby="desc-0">id76<title id="desc-0">Object id</title></text></g><g><path d="M191.75765042642013 25.164338396279955 L251.83990886662608 26.648555559602887 L248.67374859632588 74.12263036756534 L189.2649294067174 76.88714262828071" stroke="none" stroke-width="0" fill="none"/><path d="M189.5941865307185 25.19094281206621 C211.73140191951327 22.673749405750144, 235.2001525809705 25.118913863718188, 251.33720714744715 24.82469226997047 M190.8057081948573 25.130714014384996 C202.41140234178945 24.801491984686024, 215.9751100398966 25.940441129475087, 249.4438394311721 25.748258624528056 M249.9392609571431 25.993863466481187 C251.36101549936296 39.29160545646023, 249.15796815447524 55.55260508570691, 248.59272989741538 74.19894573516395 M250.49665115674244 25.747315752134725 C249.65409554986036 35.58822737726427, 249.2759066002147 45.65878824199694, 249.49875189942762 74.60442760110114 M249.09210009544185 74.44360254604119 C237.83632132498693 75.9335306329602, 222.9414180924436 77.0994054309786, 191.9801658150829 73.43255090717915 M249.56473204520327 74.83589720817811 C229.4059448839547 74.20936099746021, 209.0670954594097 74.48079461382575, 190.26959868865646 75.46195445617393 M188.90717129982374 75.53416320901414 C188.40512010084515 61.51841585905131, 190.0907291669517 46.35584298056904, 190.9540378597827 26.67281728052667 M189.172288419142 74.39194759231003 C189.9085725289461 62.25875961779942, 189.14092296925753 47.63652077517878, 189.07238176324952 25.768255228962147" stroke="rgb(0, 0, 0)" stroke-width="1" fill="none"/><text x="220" y="55" class="type" aria-describedby="desc-1">date<title id="desc-1">Object type</title></text></g><text x="150" y="115" class="value" aria-describedby="desc-2">2019-12-04<title id="desc-2">Value</title></text></g></svg>