<svg data-theme="dark" width="287" height="217" xmlns="http://www.w3.org/2000/svg"><style>
        :root {
        --fade-text-color: rgb(0, 0, 0);
        --hide-text-color: white;

        --highlight-value-text-color: rgb(27, 14, 139);
        --highlight-id-text-color: rgb(150, 100, 28);

        --highlight-box-fill: yellow;
        --highlight-box-line-color: rgb(0, 0, 0);

        --fade-box-fill: rgb(247, 247, 247);
        --fade-box-line-color: gray;

        --hide-box-fill: white;

        --primitive-value-color: rgb(27, 14, 139);
        --id-text-color: rgb(150, 100, 28);
        --default-font-size: 20px;

        --highlight-object-fill: rgba(255, 255, 0, 0.6);
    }

        text {
            font-family: Consolas, Courier;
            font-size: 20px;
        }
        text.default {
            fill: rgb(0, 0, 0);
            text-anchor: middle;
        }
        text.attribute {
            fill: rgb(27, 14, 139);
            text-anchor: start;
        }
        text.variable {
            fill: rgb(0, 0, 0);
            text-anchor: start;
        }
        text.id {
            cursor: pointer;
            fill: rgb(150, 100, 28);
            text-anchor: middle;
        }
        text.type {
            fill: rgb(27, 14, 139);
            text-anchor: middle;
        }
        text.value {
            fill: rgb(27, 14, 139);
            text-anchor: middle;
        }
        path {
            stroke: rgb(0, 0, 0);
        }
        .highlighted path {
            fill: var(--highlight-object-fill) !important;
        }
    
        [data-theme="dark"] {
            --highlight-value-text-color: #110875;
            --highlight-id-text-color: #6e4409;

            --fade-text-color: #BBBBBB;
            --hide-text-color: #121212;

            --highlight-box-fill: #EDB926;
            --highlight-box-line-color: #FFFFFF;

            --fade-box-fill: #2C2C2C;
            --fade-box-line-color: #666666;

            --hide-box-fill: #121212;

            --highlight-object-fill: rgba(72, 207, 173, 0.3);
        }
        [data-theme="dark"] text.default,
        [data-theme="dark"] text.variable {
            fill: rgb(224, 224, 224);
        }
        [data-theme="dark"] text.attribute,
        [data-theme="dark"] text.type,
        [data-theme="dark"] text.value {
            fill: rgb(144, 164, 237);
        }
        [data-theme="dark"] text.id {
            fill: rgb(255, 183, 77);
        }
        [data-theme="dark"] path {
            stroke: rgb(204, 204, 204);
        }
</style><g id="object-0"><path d="M50.67388739953845 23.99550389302118 L251.63150333796818 25.28029550272135 L250.67016736324084 156.32259413542593 L49.520622311281706 154.4258255636406" stroke="none" stroke-width="0" fill="none"/><path d="M48.4848089715201 25.380625483307526 C129.32323890197273 24.729995643085473, 207.51810937953707 24.089345120712558, 249.07918579655708 24.51513537566287 M49.317694650881 25.201001262016465 C112.805442292259 25.15458648620982, 174.94493228565693 25.432875763607502, 250.48532248819797 25.212737068719267 M250.81489788412344 26.132060821148063 C249.9639216708906 63.56751824360521, 251.07125455872188 97.25551241172307, 249.5337848986182 155.52366723980936 M250.59137837581395 24.037425634255538 C250.90326732605303 76.3343600908557, 250.25164854752242 126.82854920802355, 249.1274083625741 155.97866266146096 M250.4589724869047 156.27663283697194 C179.8368186825086 154.12997600698003, 106.4671257629689 155.8366632791989, 51.01120152506638 153.4357620387425 M249.40375349176855 155.7120382094608 C179.97179628011452 155.21931492370894, 109.16389160555305 155.2002717579225, 50.83301772812404 155.14179861993594 M49.647813715123135 154.060769687121 C49.8464165734768 129.17020180568713, 48.24273439600848 102.42219972648837, 51.479895787139284 24.020140373915925 M49.597889592217875 154.58411080968256 C50.451331796603256 114.55785557418612, 49.45729953184003 71.34080021627969, 50.08993336735942 24.862455119137994" stroke="rgb(0, 0, 0)" stroke-width="1" fill="none"/></g><g><path d="M42.063946425206815 20.970027486654033 L257.37146958293334 18.03945752108605 L255.79060216219762 161.74172717221643 L42.96921772491294 162.6899311493053" stroke="none" stroke-width="0" fill="none"/><path d="M45.667777759738094 19.417151173297125 C118.18711739971066 19.088592430315774, 190.87040568877185 19.02373521040753, 254.61573054330313 20.577790712757544 M43.160901396343164 18.971119810594516 C118.91857020816241 20.266159125514456, 193.42348208681358 20.091826203428163, 256.4554529706807 18.160315340199492 M254.27036550231094 17.481824677614192 C255.56013699439796 48.857924940769465, 256.518232445161 81.91524449127522, 254.7358317714892 161.28767570033583 M256.5010195275192 19.279007950043948 C256.23822307327936 71.9881886135957, 257.6184538208565 124.26940048486551, 256.06076495915255 160.8265369341961 M255.69402828826327 160.36426442767575 C179.6644030950095 160.80079782567404, 105.54919280037765 161.03149506617333, 45.63354630600991 160.9125499969797 M255.32498172330068 161.2126543677404 C174.472034715473 158.81864329098627, 93.83257473071055 160.4751357935964, 44.37655323646184 160.97970801633755 M44.83698281445528 162.2539910220283 C43.17406955421837 112.4409502904701, 45.54343013438775 66.08004450991686, 42.153364354121656 19.1591646204222 M44.27844159967017 160.6858513961099 C43.440217732292105 111.28951598923621, 44.27021074925973 62.52526709127028, 44.41329296023855 19.870602232545913" stroke="rgb(0, 0, 0)" stroke-width="1" fill="none"/></g><text x="150" y="115" class="value">2019-12-04</text><g><path d="M49.50533621831442 23.44690709108044 L111.06685720484576 24.055014422806952 L109.88559579744386 74.77334084052353 L49.41781870169863 75.7573540727283" stroke="none" stroke-width="0" fill="none"/><path d="M48.18594563948659 25.285163196969787 C70.05600837109995 23.9078220354769, 87.19715739373693 27.09142173060235, 110.84569124973964 25.986672358366416 M50.44259712439067 25.43131063246546 C73.22532231446714 25.393162500673316, 97.75394421102503 25.51576583242438, 110.88107490222389 24.859773964914744 M109.04767232127502 25.94497244614609 C109.13027117782673 45.49437921564568, 108.40952318157491 65.0657579711458, 109.56946497807716 75.10278320984048 M110.30087942560809 25.30012418500735 C110.23018175977803 41.44682283802971, 109.15669110958498 58.37495928181102, 109.87797698201352 74.74083640730873 M108.58172070518563 76.62677928965309 C92.9956365184793 76.06802291850501, 72.07498233682199 74.13173987728159, 50.0822184108637 76.16536926108384 M110.80508414327758 74.52045104325647 C97.0043201336421 74.79976250101831, 82.22106316116823 75.04208601637825, 50.22689123645877 75.91277776453195 M49.66171810818151 74.7752061450832 C49.46138980115132 57.80443507407887, 50.80273031476011 39.4600658718069, 51.225536361324515 23.09024457720737 M49.89874974844391 74.4183323455263 C49.50567512260447 63.562011315641364, 49.6584534082739 52.20863063344446, 50.69871743680598 24.791870193646503" stroke="rgb(0, 0, 0)" stroke-width="1" fill="none"/></g><g><path d="M191.15335057774647 26.499283665472273 L250.9142888424068 23.27022955610813 L249.94745580744024 73.08883161894623 L189.17258558055573 73.06378140056107" stroke="none" stroke-width="0" fill="none"/><path d="M188.1303235786338 23.318845062812336 C206.45884740608363 23.327957498820645, 223.03299730534548 25.715630728881525, 248.97882181377227 23.11622025533034 M189.8298351868642 25.572950193514348 C203.29293502346772 25.355538334639814, 217.9317649938066 25.087204546297144, 250.823801260307 25.618767959480277 M248.80697287527775 25.679067677491524 C249.00105048460608 39.43836497583288, 251.1276629683156 52.228341419671736, 251.83999958996483 76.409189047501 M249.3122381728004 24.47595075872593 C250.16804428816454 42.655153608976725, 249.48508321130973 59.894397712832586, 249.17249322020018 75.71583837299885 M248.33184292567142 75.84506724250386 C237.24945559853217 76.83448933535077, 219.1737328703024 75.89598546700631, 191.59098457254993 73.70487229391443 M249.30367743325823 74.84690214494016 C237.0363646780892 73.94621590214781, 223.88844587006807 74.70703468720043, 189.57733136320715 74.07483034956965 M190.572892158071 73.45821032691308 C190.86872825100735 57.959209236728036, 191.84067091081724 39.25367735302922, 191.389486148815 24.549005574707284 M189.77066715080187 75.2133628624358 C190.45258636412137 55.27514641571276, 190.52699557712228 36.07550360840102, 189.21605808373158 25.335453063900495" stroke="rgb(0, 0, 0)" stroke-width="1" fill="none"/></g><text x="80" y="55" class="id">id76</text><text x="220" y="55" class="type">date</text><script>
            function enableInteractivity() {
                // Inject the id value to object id mapping into script
                const idToObjectMap = {"id76":["object-0"]};

                function highlightObject(objectId) {
                    const objectBox = document.getElementById(objectId);
                    if (!objectBox) {
                        return;
                    }

                    objectBox.classList.add('highlighted');
                }

                function removeHighlight(objectId) {
                    const objectBox = document.getElementById(objectId);
                    if (!objectBox) {
                        return;
                    }

                    objectBox.classList.remove('highlighted');
                }

                function addEventListeners() {
                    document.querySelectorAll('text.id').forEach(idText =&gt; {
                        const idValue = idText.textContent.trim();
                        if (!idValue || !idValue.startsWith('id')) {
                            return;
                        }

                        idText.addEventListener('mouseover', () =&gt; {
                            const objectIds = idToObjectMap[idValue];
                            if (objectIds) {
                                objectIds.forEach(highlightObject);
                            }
                        });

                        idText.addEventListener('mouseout', () =&gt; {
                            const objectIds = idToObjectMap[idValue];
                            if (objectIds) {
                                objectIds.forEach(removeHighlight);
                            }
                        });
                    });
                }

                addEventListeners();
            }

            // Wait for DOM to be ready
            if (document.readyState === 'loading') {
                document.addEventListener('DOMContentLoaded', enableInteractivity);
            } else {
                enableInteractivity();
            }
        </script></svg>