<svg width="275" height="375" xmlns="http://www.w3.org/2000/svg"><title>Python memory model diagram showing objects</title><style>
        :root {
        --fade-text-color: rgb(0, 0, 0);
        --hide-text-color: white;

        --highlight-value-text-color: rgb(27, 14, 139);
        --highlight-id-text-color: rgb(150, 100, 28);

        --highlight-box-fill: yellow;
        --highlight-box-line-color: rgb(0, 0, 0);

        --fade-box-fill: rgb(247, 247, 247);
        --fade-box-line-color: gray;

        --hide-box-fill: white;

        --primitive-value-color: rgb(27, 14, 139);
        --id-text-color: rgb(150, 100, 28);
        --default-font-size: 20px;

        --highlight-object-fill: rgba(255, 255, 0, 0.6);
    }

        text {
            font-family: Consolas, Courier;
            font-size: 20px;
        }
        text.default {
            fill: rgb(0, 0, 0);
            text-anchor: middle;
        }
        text.attribute {
            fill: rgb(27, 14, 139);
            text-anchor: start;
        }
        text.variable {
            fill: rgb(0, 0, 0);
            text-anchor: start;
        }
        text.id {
            cursor: auto;
            fill: rgb(150, 100, 28);
            text-anchor: middle;
        }
        text.type {
            fill: rgb(27, 14, 139);
            text-anchor: middle;
        }
        text.value {
            fill: rgb(27, 14, 139);
            text-anchor: middle;
        }
        path {
            stroke: rgb(0, 0, 0);
        }
        .highlighted path {
            fill: var(--highlight-object-fill) !important;
        }
    </style><g role="graphics-object"><title>Dict id10 with 3 entries</title><desc>Entries: blank key: id81, id1: blank, blank key: id12</desc><g id="object-0"><path d="M49.377767919951054 24.663917458026706 L248.64548878953383 24.446421682137107 L248.74263446471707 325.87304533420496 L49.648581955310725 324.33664395629853" stroke="none" stroke-width="0" fill="none"/><path d="M48.41100147723783 26.348902407613203 C98.07829878912834 22.338875577688633, 148.79944400848075 24.2493637651494, 249.284462254104 23.40265762694525 M49.83725994101924 24.221549619908863 C94.69735114467458 27.53882189175932, 139.61857684595785 26.442399104689056, 249.14983089885578 24.983661352978185 M248.81802772120076 24.774757194505785 C252.52162578537343 102.18512986078885, 252.53883653059088 177.15798689254834, 249.12737800045971 325.21869325646884 M250.16610092095854 24.825989961806854 C249.19169773555402 119.16458971544587, 248.82316147138752 212.73826079546066, 249.72568343137428 325.28823316652444 M248.245423273165 325.0835953471463 C170.37423404337224 325.3807459329634, 90.45962366113349 326.29255498066215, 48.897872559734054 323.92536987373114 M249.20027674146505 325.8164295670788 C172.20520198351878 324.9670414386791, 94.55425711181483 325.6286692520901, 50.53293383236594 325.01463482667305 M50.626805332877154 325.1416269664906 C50.12581540243455 207.04103126172254, 50.59291861924566 88.07600071095455, 48.77663350726403 24.231614174824887 M50.19011042822582 325.4850918964339 C49.04056841804992 219.76239476047522, 48.952749291723514 115.2856885698023, 49.3062281197482 25.558527537671917" stroke="rgb(0, 0, 0)" stroke-width="1" fill="none"/></g><g><path d="M76.38011933017634 99.81913429738934 L123.52342965687318 100.42843046499274 L126.01898788500687 151.90592605555784 L76.40835756610028 149.95917910101048" stroke="none" stroke-width="0" fill="none"/><path d="M75.93881917301148 100.28503860749024 C88.98812571787506 101.25992788271833, 103.94198877312127 98.96149192375681, 124.96273914570912 98.7760527050016 M75.95234818225647 100.18222020547925 C90.96537091356926 100.73425327489677, 106.53068026507886 99.94884910177318, 124.59708535092875 99.08995133439868 M125.59111301465585 100.0855080680189 C125.49719692188337 119.08319654614534, 123.58087193800245 140.79440326949103, 126.24990999131765 150.34026035764595 M124.08700769183896 99.94266375017598 C125.52230631037781 113.26929632180227, 125.07722695711844 126.03474594131313, 124.16814670800203 149.5514736943527 M124.25854738829416 149.49411225324152 C108.29178567994843 151.02608149949884, 93.648300500839 150.49221843417695, 74.1991283049503 150.65438198837185 M125.7934937241914 149.31351612427204 C112.72318087037023 148.86190662995074, 99.77949134870859 149.24851764848145, 74.63153129645674 150.8285531889375 M76.16291509835027 148.65570508431895 C75.44075368241442 135.31214187268031, 74.78455250235827 118.95171264122267, 75.72437709145296 101.33297703462358 M74.64893482222269 149.04157983142997 C74.44022035027865 134.25083116626527, 74.40106820660463 121.08494244251726, 74.67441296298547 100.10514240035195" stroke="rgb(0, 0, 0)" stroke-width="1" fill="none"/></g><text x="102" y="130" class="id"></text><g><path d="M73.92368237842246 173.88126086740903 L126.41591255719872 175.87090317395854 L124.8799972933737 224.80968987240755 L73.38379815791423 223.8883649475983" stroke="none" stroke-width="0" fill="none"/><path d="M75.83277726092597 173.68504078975988 C86.87728577758831 176.61927003588445, 95.8493934838308 177.02870427346352, 125.29055569405924 176.45731812767335 M75.80810057530908 175.6127128790995 C86.99253544337307 174.5736508116743, 99.80013462337311 174.2641381140154, 124.78345303858144 174.56543688165507 M123.39844448720154 174.0651785900453 C126.34911773306433 190.28399256718325, 124.28166380735712 202.33047270867706, 125.00342819012133 224.07478542022443 M124.62577684147568 174.63932760514402 C125.23368464886433 188.6948765321775, 123.88300834772448 204.35847842257, 125.61047155795356 224.24220999409795 M125.68630646066505 224.76106039851928 C114.46984890140438 225.256798228248, 103.4779583075525 225.92217473135116, 73.25729151151413 223.84296396782088 M125.14187345715143 224.75051948877692 C107.39331721123489 224.87558593339915, 90.29622025626216 223.9818239579875, 74.83674574434004 225.35982757219514 M73.43888705534411 226.90596799159897 C75.0029213447332 205.99847423249037, 73.09014254030012 190.93208805086755, 75.62046290235524 175.05536250309441 M74.16905017865649 224.6149976652238 C74.15593354841482 207.7190807549403, 74.25948489512764 190.89741901464058, 75.22731562223912 175.99133016810364" stroke="rgb(0, 0, 0)" stroke-width="1" fill="none"/></g><text x="102" y="205" class="id">id1</text><g><path d="M73.4099570104373 248.41142909481468 L125.93654095305963 248.81464604573495 L123.20575929241063 300.4570596893931 L75.28902674108748 301.94759318903584" stroke="none" stroke-width="0" fill="none"/><path d="M76.76635953389837 249.86033291377487 C92.56514295729026 251.58338414242684, 111.08845081982614 249.1665117804039, 125.75082134166176 250.4954244728611 M75.04227344422209 250.0034278720123 C91.56728870012961 249.67501915627895, 106.50826592301996 250.4781677427904, 124.89391150022317 250.40808487418875 M123.59463307013414 250.50966455562678 C124.09874666344376 261.9709821253336, 124.14901836892558 277.92923602878625, 123.95922972547328 300.103085986337 M124.13085976103824 250.20448855370094 C125.5010760740412 265.7165522809178, 124.76959976811591 283.399923404772, 125.70654650267302 300.60346736363823 M124.70631385918301 300.00095056241395 C110.82324127041908 301.7404202214173, 95.2820047352421 301.38335517587757, 75.78007871125843 298.57497657517627 M125.29395695910732 300.6470980765608 C112.11058203835422 299.4879346860051, 97.23513544007274 300.0238232297802, 75.88825261155772 300.041337953148 M74.1190430931847 300.4173304127828 C74.89443321149439 283.7593739115609, 74.42069398433726 266.7514704370961, 73.54375158955136 250.92832440746773 M74.97288850984815 300.27658512056485 C75.3619322371851 287.3328278564604, 75.66580931653994 276.002927749374, 74.82118639839135 249.69686958144774" stroke="rgb(0, 0, 0)" stroke-width="1" fill="none"/></g><text x="102" y="280" class="id"></text><g><path d="M170.59792784632728 99.8734795412418 L229.50936827292344 101.15047305612262 L231.09668323217554 149.12775815974146 L171.10570205910096 151.68499822397757" stroke="none" stroke-width="0" fill="none"/><path d="M170.29953325601946 99.00828658101824 C188.15644376425442 100.92287652265846, 207.63488427222828 100.56312525422551, 229.72148011660212 98.45158086462678 M170.5169313504964 99.18235567189271 C182.91849042751406 99.45529524229065, 197.23594758474565 98.81460311169646, 229.88177956107327 99.17398725778682 M228.6303489092699 101.00396387890302 C231.1244433877257 111.79941044433458, 228.7466861997844 125.33336086498981, 231.3822822542044 148.03080262351818 M230.82347905694925 100.4678958234603 C230.67972663929086 116.69117875575328, 230.30880641913294 131.37929697035545, 230.76301848846288 150.44400321497568 M228.87686131092883 148.71446290517702 C218.24496084180353 151.43841265955427, 201.7060329747902 151.09193944229847, 169.33964424643898 148.75405202242786 M229.29139357432038 149.04331500499595 C209.10212094317353 149.9197417948442, 188.60048703592835 149.86042809580883, 170.91938489010346 150.07354911523677 M170.71899299055565 150.44895502735767 C169.3187207077778 140.99888088775705, 171.06238979523283 130.12677874923423, 168.52873104276475 100.95035135143159 M169.71523711725334 149.0164163929924 C170.66884237281496 129.82106299628498, 170.6079601897972 110.35743126720007, 170.4855536920071 100.09594837015393" stroke="rgb(0, 0, 0)" stroke-width="1" fill="none"/></g><text x="150" y="130" style="" class="default">:</text><text x="200" y="130" class="id">id81</text><g><path d="M168.42766639733284 173.91068192237407 L218.05495936157317 173.20785722975768 L218.64492757536587 224.73117651557905 L169.6340366287171 223.59191042882077" stroke="none" stroke-width="0" fill="none"/><path d="M170.98918855426714 175.70244418796173 C180.44386111216014 176.61711876800146, 193.07274596221322 176.25026260000018, 220.86634642118412 176.19316566212962 M170.47548790913945 174.83754659404713 C180.13502304352883 174.17865861411585, 191.71315102293923 173.9978401126435, 219.79352430008802 174.50386762815333 M218.03080278395004 175.90639167835556 C219.2401525585797 189.1685603095861, 219.2382480137957 200.0919093345226, 221.25178240735792 223.18365084436556 M220.89112291787097 174.28222866184143 C219.12340179265723 185.91233033793978, 220.95450267781814 196.88027068755179, 219.60682700072078 224.57741483569774 M218.89544189993137 225.1976399823205 C201.11969238457783 223.60279210916198, 181.50327065091184 225.59453655739628, 170.212378585892 225.7077754683018 M220.6194077468857 224.86332688693335 C204.72956153090126 224.76016758503022, 188.4623227162856 225.55176868934797, 170.59791028051174 224.01094017661583 M170.37381938816085 226.72924000652353 C169.2922379283741 210.5867534324234, 170.460384442763 198.96079767169837, 171.48679654635671 173.61812104890333 M170.55302835913687 224.93073057732505 C170.40624668871146 211.04203688705584, 170.23641911182506 196.91757937220683, 169.25564245040528 174.58699460126232" stroke="rgb(0, 0, 0)" stroke-width="1" fill="none"/></g><text x="150" y="205" style="" class="default">:</text><text x="195" y="205" class="id"></text><g><path d="M170.43891813818033 248.60519205482197 L230.54068569878694 250.1538930199517 L229.72478688718567 298.4485916999274 L168.95131602549523 300.2326262867185" stroke="none" stroke-width="0" fill="none"/><path d="M171.75279864885567 250.8571167266105 C191.36956182402065 251.5322514309918, 210.45489183354726 250.9538343527637, 231.06664252028025 248.59458461052353 M170.21290120741918 249.596711429619 C192.59090750634627 249.90636365648527, 215.72834865561742 249.91456871343985, 230.84180681996952 250.63880574873298 M231.5794511211421 251.75690651025369 C231.68166968100664 267.19681105723265, 228.48648998603664 283.40014497059957, 230.27917667244654 299.7697599489554 M229.07401301125694 249.40584404521857 C230.4532643379594 269.5161046884015, 230.34385096300687 289.50001389683285, 230.97930786892016 300.15395994361063 M229.9102641155708 301.3980891305825 C212.75006523816927 301.8877535432155, 194.27163339817488 301.9902115549887, 171.90455147900218 299.7127959677004 M230.4526679474005 299.10261069337434 C213.4568912792168 300.4196072349491, 197.3265629633778 300.61197182600836, 169.93362860289352 299.74679716959713 M170.5130516336565 301.6343423973669 C170.22110384714296 283.16285581665136, 169.44067611965514 264.97369806448876, 170.17535149940355 250.55518934684568 M170.22883270279718 299.79508337655767 C169.50672852986733 286.8614852934629, 170.02118211958998 274.0307318800768, 170.14014780682214 249.00599008194334" stroke="rgb(0, 0, 0)" stroke-width="1" fill="none"/></g><text x="150" y="280" style="" class="default">:</text><text x="200" y="280" class="id">id12</text><g><path d="M51.57318047571337 24.345201871252495 L111.58745114343496 23.161960947929792 L108.68815506214428 76.6127947595614 L48.68163293725975 74.7986286873567" stroke="none" stroke-width="0" fill="none"/><path d="M48.931446126265826 23.44589780208525 C65.43205269529469 26.98002991529511, 83.16306237686845 26.41828140196873, 109.35778819233072 26.75521727310197 M49.0260938557161 25.07321794774383 C69.45191965034518 23.58419627821719, 88.81598870584867 24.868259175152055, 110.08140488048146 24.198311622291193 M111.50554748266927 25.706660680819102 C110.32460543505775 38.73979684260331, 109.54777255804623 48.39263248076392, 109.79253639584701 75.31167185789367 M109.7412649186705 25.005009332531188 C110.4022461865899 40.957461858492216, 108.9467007307299 58.40452766228475, 110.65389091347755 75.01163050488451 M111.44505229059914 74.3578083619944 C89.43389602012056 76.09816448411492, 69.94797676271214 73.57123620352782, 48.86400935458299 74.1638818892374 M110.18036595603499 75.18769496397334 C96.54489984142053 74.3999877988096, 83.12077623339954 74.82676383375879, 49.7106916512933 75.85125279116649 M51.0862470074773 74.60979362366803 C50.65506000974087 56.100376386979754, 50.23728122670931 39.46179842478739, 51.61318672795979 23.954541410429947 M49.9573580888105 74.66250718435559 C50.997436694081316 61.33033946909731, 50.43147915957229 47.669054924089004, 49.07698378517801 24.951446395131477" stroke="rgb(0, 0, 0)" stroke-width="1" fill="none"/></g><g><path d="M191.21158533842936 25.48329245754114 L248.7449090420878 26.61748711536636 L248.3263162910755 73.25142235205207 L190.8348382443141 76.33723423059465" stroke="none" stroke-width="0" fill="none"/><path d="M189.96568086594579 24.610223473248205 C211.86343430441744 23.576691399971093, 235.73099282195165 26.75692927730826, 248.81351696298208 23.70808647480961 M189.55022913917125 25.437509366887447 C204.71845732777652 25.119545093048536, 218.19593178260385 23.82213829481428, 250.78454857395062 24.164144273500828 M248.68255297742616 24.60064789711791 C252.02961289467885 44.51943735193695, 249.16751724478934 62.10717100777853, 250.8295407897716 73.04372935175599 M250.75589746292422 24.6602457496476 C250.87146089030298 38.41376761555259, 249.98902564781133 51.21813538842334, 249.88506596642668 75.77379872733593 M248.8191983530984 75.270714001707 C237.87037666151753 77.06926000851202, 222.50687226887035 76.49248740716058, 188.107498320556 76.33841567388494 M249.91315750621732 75.46134709180012 C230.77926467381047 74.9497407952367, 212.81383065632326 74.53782742654704, 189.4871204388111 74.16458969132947 M189.74073040595525 74.53108204719825 C191.52206787972594 54.536725647747446, 189.07630856533797 35.16172424202349, 190.74872378141026 24.747636621766794 M190.90810659777117 75.415441872466 C189.49361856003407 60.749644975018924, 189.98535245218955 44.68629921317551, 190.47671210145515 25.852220979604468" stroke="rgb(0, 0, 0)" stroke-width="1" fill="none"/></g><text x="80" y="55" class="id">id10</text><text x="220" y="55" class="type">dict</text></g></svg>