<svg data-theme="dark" width="287" height="675" xmlns="http://www.w3.org/2000/svg"><title>Python memory model diagram showing objects</title><style>
        :root {
        --fade-text-color: rgb(0, 0, 0);
        --hide-text-color: white;

        --highlight-value-text-color: rgb(27, 14, 139);
        --highlight-id-text-color: rgb(150, 100, 28);

        --highlight-box-fill: yellow;
        --highlight-box-line-color: rgb(0, 0, 0);

        --fade-box-fill: rgb(247, 247, 247);
        --fade-box-line-color: gray;

        --hide-box-fill: white;

        --primitive-value-color: rgb(27, 14, 139);
        --id-text-color: rgb(150, 100, 28);
        --default-font-size: 20px;

        --highlight-object-fill: rgba(255, 255, 0, 0.6);
    }

        text {
            font-family: Consolas, Courier;
            font-size: 20px;
        }
        text.default {
            fill: rgb(0, 0, 0);
            text-anchor: middle;
        }
        text.attribute {
            fill: rgb(27, 14, 139);
            text-anchor: start;
        }
        text.variable {
            fill: rgb(0, 0, 0);
            text-anchor: start;
        }
        text.id {
            cursor: auto;
            fill: rgb(150, 100, 28);
            text-anchor: middle;
        }
        text.type {
            fill: rgb(27, 14, 139);
            text-anchor: middle;
        }
        text.value {
            fill: rgb(27, 14, 139);
            text-anchor: middle;
        }
        path {
            stroke: rgb(0, 0, 0);
        }
        .highlighted path {
            fill: var(--highlight-object-fill) !important;
        }
    
        [data-theme="dark"] {
            --highlight-value-text-color: #110875;
            --highlight-id-text-color: #6e4409;

            --fade-text-color: #BBBBBB;
            --hide-text-color: #121212;

            --highlight-box-fill: #EDB926;
            --highlight-box-line-color: #FFFFFF;

            --fade-box-fill: #2C2C2C;
            --fade-box-line-color: #666666;

            --hide-box-fill: #121212;

            --highlight-object-fill: rgba(72, 207, 173, 0.3);
        }
        [data-theme="dark"] text.default,
        [data-theme="dark"] text.variable {
            fill: rgb(224, 224, 224);
        }
        [data-theme="dark"] text.attribute,
        [data-theme="dark"] text.type,
        [data-theme="dark"] text.value {
            fill: rgb(144, 164, 237);
        }
        [data-theme="dark"] text.id {
            fill: rgb(255, 183, 77);
        }
        [data-theme="dark"] path {
            stroke: rgb(204, 204, 204);
        }
</style><g role="graphics-object"><title>Dict id10 with 3 entries</title><desc>Entries: idx: id81, idy: id100, idz: id121</desc><g id="object-0"><path d="M50.96689207197902 26.159316415393768 L261.0626827251506 25.634798121755363 L262.46989414597004 625.4896844213713 L48.978606819911796 624.1036014097532" stroke="none" stroke-width="0" fill="none"/><path d="M51.05413107961393 24.78118342869127 C113.07969153250161 26.28552956249598, 173.53170672111662 27.007570180870054, 260.8381427628036 24.0765768087909 M50.64158791449243 25.20197222150261 C93.96282651482801 25.66263369703409, 139.60374772352165 25.911921300753537, 261.1467962349155 24.17670470524181 M262.2260854307186 24.5464618902615 C264.0880582468966 248.75173308430044, 263.8218543191015 473.1259190145107, 262.78614611902634 625.1440141911918 M262.18428342008605 25.067278321722114 C261.7156160478678 203.44539221940806, 261.9934435867886 381.9832971433746, 262.11888741665297 624.9780621653246 M261.88063201281204 626.0327802207916 C214.15813207612237 625.9053042425638, 169.6483686161551 624.9434977852393, 51.5488267999893 625.2937630996651 M262.83873335069995 624.9917954419519 C181.96977743671115 623.6413005468439, 100.82513364396186 623.8398600747074, 49.9344232958153 625.5673264239099 M50.51816834288758 625.2596396822627 C49.78824465583795 423.1369661706772, 50.83099289740362 220.88365674980844, 49.83497672204844 24.421194864628852 M50.317501030743685 625.2377327869697 C49.41487906961558 462.02231834139064, 49.42094338760521 298.84109164262725, 50.26080934952177 25.234096176896006" stroke="rgb(0, 0, 0)" stroke-width="1" fill="none"/></g><g><path d="M74.71700242879933 99.17332225473339 L124.38437866871628 101.16142361211554 L124.49894609514449 150.701068985075 L73.74555724212883 151.19098535052214" stroke="none" stroke-width="0" fill="none"/><path d="M75.84556559725016 99.94588897476703 C86.2199009085278 101.11239837003532, 101.14386968849058 102.02937938596364, 125.57271314295575 100.72660349926238 M74.72244635926444 100.75860822607308 C88.84533406450956 99.55757894420887, 104.50281893178962 100.44996543241061, 124.5129345556065 99.87633363132616 M123.5286745050609 100.8786731990504 C123.02823021202352 116.12537022007132, 123.39951495020472 136.57782446734905, 124.6378796903687 149.2965783269678 M124.04524201815667 100.18468177631064 C124.59036607690209 117.37821620294496, 125.65775402453366 133.31933203257594, 125.97570666891733 150.40761792306117 M123.3780071146285 151.23477191917456 C111.73580361467106 152.10601920494207, 95.95001530723046 150.22023203796624, 73.8467524272147 148.47522385772268 M125.73368109185337 149.34760469521748 C109.54596719031112 150.0013152114808, 93.64264255529996 150.29796781994602, 74.41226528009732 149.1378760228756 M75.17215589317 149.393962840649 C76.4291983538101 135.4841178962081, 75.45293088721559 118.39805315995721, 75.69172060865483 100.59895433604964 M74.71583656110919 149.595144378808 C76.32444158828851 132.4829507494886, 74.90658995606722 113.55076703042079, 74.53306129083013 99.45322284156032" stroke="rgb(0, 0, 0)" stroke-width="1" fill="none"/></g><text x="102" y="130" class="id">idx</text><g><path d="M76.27871158470673 173.97688891603977 L124.35665832739491 173.44151041673936 L126.77257954308236 225.41802857805152 L73.19134063937106 226.2681456950309" stroke="none" stroke-width="0" fill="none"/><path d="M76.01013142607052 173.3131090533267 C92.78721384266215 175.8597049256206, 112.73588522622865 173.96106346669265, 124.50633997234571 175.2634027950869 M75.96330423464313 175.23892355573713 C86.467719111661 175.65911508828762, 97.83887434334183 174.71328518208406, 124.25449694919318 174.54057601964385 M123.40307139055545 176.97414800758878 C124.67266558465106 191.33301707805268, 123.94126764839706 205.95793177321013, 126.59244711041917 225.53549101620337 M125.60702386733493 174.58828886968215 C125.56475964105726 195.55439225227414, 125.77201914422594 214.97281689078753, 124.14503179869754 225.17082194282784 M124.61268792183051 225.36175976976034 C106.39210812447702 224.65800928605228, 85.22991642541794 224.9336586420665, 75.90347190499337 224.16524295900706 M124.49015039463268 225.54060369819905 C104.36731283902627 224.89466740117916, 85.06585686943767 225.64671832521447, 75.8724305678191 225.99457160190934 M76.77075138268408 223.17812525244986 C75.2961623519925 212.31444816219022, 76.74527267102559 199.3799359153, 75.24617054525272 173.56959809290436 M74.7050743481332 224.64869820105147 C74.87771798880458 209.74909859765197, 76.41150013541757 196.5148300740244, 74.46415220890589 174.78190777521448" stroke="rgb(0, 0, 0)" stroke-width="1" fill="none"/></g><text x="102" y="205" class="id">idy</text><g><path d="M75.23049087843265 251.62705711510017 L126.7619226391147 248.06625800742395 L126.51197198821026 298.3630952607288 L74.60904339143778 301.1975892733542" stroke="none" stroke-width="0" fill="none"/><path d="M74.99954243167011 250.0080579340304 C88.69474800229163 251.19577029041938, 97.79580098835758 248.34426918901138, 124.55412639670433 249.39275989328388 M74.53326902173886 250.5909301923455 C86.11960651615436 249.3651472120495, 97.86292504645026 249.41522970475475, 125.44697440915935 250.2056792364672 M126.1381241478675 249.43647492690772 C123.25567781822811 261.67997478199686, 124.05161793045247 272.24303970789083, 125.63272062515234 301.48727648824337 M124.5721673356524 249.06927335273716 C125.3754324347478 267.1434057110859, 123.94281947362704 284.313458353679, 125.10806584503815 299.8459287739006 M125.44553761959543 298.2868348079564 C108.09558664369602 301.18062228270793, 92.58132293900552 301.43620074668775, 76.49224655867751 301.62950371887746 M125.29134455363778 300.47211037936603 C108.8734010030025 299.5277404608987, 90.83638181187543 300.67755001505867, 74.42580946188059 300.11920448646515 M73.56051214362903 299.68897301760956 C74.65132767222158 280.1707674250631, 75.51096999040286 263.71593909973853, 76.05232758614308 250.93755329362443 M75.69695862191527 300.12262893433797 C74.24218351239108 281.3429218189969, 74.26095733657334 263.4014819266342, 75.1679591857987 249.90341562166915" stroke="rgb(0, 0, 0)" stroke-width="1" fill="none"/></g><text x="102" y="280" class="id">idz</text><g><path d="M176.99910387019654 99.25758759620294 L235.40244517903827 98.80868016646558 L235.01286848414838 149.00177154514324 L174.02717638285372 149.55439383323633" stroke="none" stroke-width="0" fill="none"/><path d="M175.26270895040383 99.92654302811702 C194.39880631206407 100.06023901334179, 209.5405461656666 98.8000035560912, 235.030063727502 101.75936983079626 M175.54188720997604 100.23086267386631 C189.6965315278237 100.45962879356898, 201.50286246914968 99.1810632046991, 235.49313785525985 99.96152951515126 M235.64192727992216 100.6485879278401 C235.87626797073568 113.6517987340261, 236.75145955443688 127.70718485470506, 236.48507679394348 150.00471830634825 M236.47292856032928 99.56219280617174 C235.62381083499508 116.45735383272222, 236.5726886651241 133.26401758849653, 235.63702259002608 150.57889013976452 M236.82420957785692 150.6725494230812 C218.81552164506496 151.1280373869106, 202.6781449611522 148.83224689314264, 174.78749834618554 148.21540759564937 M235.729465685794 150.26319714493033 C219.81905057209806 148.7529607297916, 205.33210480261553 148.99382080075904, 176.97314931261295 150.0695751365406 M176.4839511519902 150.18335067179902 C176.53696691238414 133.48874842570888, 176.09581876974124 114.57619205659392, 174.63055952511428 101.93157260547416 M175.27350469172325 150.94855695180212 C175.4267665696814 133.5122080705473, 175.47521454869494 118.32598400280504, 176.3297279618285 100.43934607139516" stroke="rgb(0, 0, 0)" stroke-width="1" fill="none"/></g><text x="156" y="130" style="" class="default">:</text><text x="206" y="130" class="id">id81</text><g><path d="M174.51517257331008 175.7881664833185 L248.18930917713564 176.75976839438138 L248.7421521316499 224.3228621696365 L176.4817831013595 225.93452331740312" stroke="none" stroke-width="0" fill="none"/><path d="M175.14358749759805 173.90270052786954 C197.17961308228337 174.35857514037525, 220.09300886813443 174.13637360649415, 249.36502515813982 174.81880502296445 M175.13805841271162 175.80333945634362 C200.69624802498672 175.20914097068092, 224.72647797944958 175.26726590906276, 247.5246795887428 174.65983540201017 M247.69742658014053 174.43859243680217 C249.3670098305363 188.97268749089866, 249.72614482847217 199.81938172374973, 246.05290839130203 226.27746295091657 M248.0474980632854 174.52132146401257 C248.14852797484502 185.04556006491947, 247.83909584866686 197.33946416706493, 247.1781182025959 225.63567266753336 M246.628951370158 225.38039494136643 C219.03804261334875 226.41417048644325, 192.08605287483687 224.1949768314242, 174.87960918757872 223.73489531382526 M248.03054393886808 224.30387623100418 C220.50652341440824 225.778852802533, 193.52885032467486 226.3680251870619, 175.27948991827756 224.94900091461434 M175.53501943128464 224.93642056637196 C176.02151803210285 205.6090775990378, 177.8394707918601 187.98776239347345, 177.13826058073423 175.1841264358199 M176.5780879336999 225.2371817786501 C176.0075784575118 210.3567838071047, 176.24857638072692 197.18658285231447, 175.82425716951616 174.93935913800945" stroke="rgb(0, 0, 0)" stroke-width="1" fill="none"/></g><text x="156" y="205" style="" class="default">:</text><text x="212" y="205" class="id">id100</text><g><path d="M174.30800974796304 249.5862491886965 L247.14852487984265 248.4209519456236 L249.55463871370435 300.60906284946617 L176.0442952053875 298.2455883838189" stroke="none" stroke-width="0" fill="none"/><path d="M177.09593494459642 250.3644098624081 C194.5318440571486 250.8908489640871, 213.86591050440055 247.98716615722327, 249.11721897824012 251.9984108139516 M175.56707015214909 249.7872890020719 C191.6097287192647 250.81494908233566, 206.615805854648 250.20122627415614, 247.18300120261682 250.94791519759045 M247.8510801807812 251.9671318350642 C246.25156408113455 260.80748799416784, 246.56285457359849 274.69379936103746, 247.6742052832606 301.71143612276546 M248.11011163871927 250.53502101255958 C249.02391866963353 262.82101607395964, 247.93246085343617 276.2402413310555, 247.2636135733257 300.9831821722002 M246.45358510561655 299.40184204966124 C232.55632956257557 299.36377320882957, 218.15877617766316 298.47028337286474, 175.6851347401195 298.0917565764641 M248.01168108736414 299.65553189733424 C218.97205605767755 300.15119728852187, 192.479072366498 299.5505349375833, 176.19722873271485 299.79873466304554 M177.48767469569162 298.8613943846624 C174.65618413263567 282.52703937290414, 174.4266278883552 261.7331079612973, 175.75018185706864 249.18323809438957 M176.05519316259583 299.21291271235094 C176.83334155524676 280.6577257393742, 176.02833939971083 261.63070081594657, 176.11981624848872 250.73960338935197" stroke="rgb(0, 0, 0)" stroke-width="1" fill="none"/></g><text x="156" y="280" style="" class="default">:</text><text x="212" y="280" class="id">id121</text><g><path d="M48.99713134006761 25.301817336882955 L109.26912736468654 26.45890003296811 L111.92644046093815 75.80512694562967 L50.55968328399474 74.6612450965273" stroke="none" stroke-width="0" fill="none"/><path d="M51.632149697748886 23.518821810167513 C67.87289983728269 23.219320469444757, 90.47506014800557 23.755121111104724, 108.12664446134465 24.45767354980458 M49.18869292661246 25.4507603060034 C69.23492373004981 24.151409989340134, 87.51069354392838 25.237119729246537, 110.38320863009191 24.134151261033058 M108.87635074430575 26.857867973166343 C111.32772721972114 36.28575685265184, 108.58493346761284 47.57043631716888, 109.95056582750455 75.38586738195113 M110.01900461111218 24.518098373172567 C109.09099371890399 34.631235065012, 110.09238270459811 45.5301537100029, 109.05781679596653 74.0550457453285 M108.3826268597897 73.1195609373024 C90.06429123257755 73.33576057313415, 71.71554268606934 75.90457134742101, 51.26292126975649 74.06249014176954 M110.27362250354477 74.12358060837369 C94.64306612652348 75.21303659584345, 78.4736114820527 74.65366356809248, 50.00923074811498 74.42640065234073 M50.76215498865941 73.02101970011299 C50.702638889553825 60.23201094856036, 50.972047369226274 44.236598263474676, 51.28501042239157 24.30617179352128 M49.33408641928401 74.9552304004037 C49.34202797411452 54.92783113621239, 50.17728380293146 35.25005533352331, 50.4713545085611 24.940697161116425" stroke="rgb(0, 0, 0)" stroke-width="1" fill="none"/></g><g><path d="M200.82336920620733 26.153828511004438 L260.53033059203034 23.788227964851888 L260.86636407103083 75.203579679187 L201.26510759165222 74.02396660385565" stroke="none" stroke-width="0" fill="none"/><path d="M201.83717174964394 26.214089515096674 C218.30793991517993 24.573225412045257, 234.2897213095882 26.083702474181543, 263.735553887374 24.331857837036097 M201.01631841609264 25.41964285160431 C220.734428360878 25.00654982994674, 240.40460865002945 25.5524403318894, 262.2926910381304 24.3463506618699 M260.4864418025415 23.740041496059654 C261.55270806684626 34.985240449910904, 264.18596942004234 49.650832366254676, 261.94778888664746 74.60986432201345 M262.95199703699717 24.242524267038235 C261.871696631429 36.91170726528446, 261.4924976586158 47.3430039812665, 262.4109274071209 75.07871572840702 M262.364489605356 75.12459320246079 C241.9233814014669 73.98127334852308, 219.24293409853544 76.67529121916682, 201.1212430753377 73.71995526744816 M262.1491582681213 75.98061034136985 C242.52962528945073 74.72587463325534, 223.95893441524075 76.02811961921194, 202.5485464106866 74.77932724242034 M203.97844271567075 76.52769624874993 C200.13108495779963 62.519180628780475, 203.46191317987228 46.89760811101141, 203.76593083151337 26.233686092866407 M202.15759410720736 75.36036938539357 C200.83590265894858 61.6812003192948, 200.9515671735849 48.99030908478583, 201.85549365122705 24.449855206288767" stroke="rgb(0, 0, 0)" stroke-width="1" fill="none"/></g><text x="80" y="55" class="id">id10</text><text x="232" y="55" class="type">dict</text></g></svg>