<svg data-theme="dark" width="275" height="375" xmlns="http://www.w3.org/2000/svg"><title>Python memory model diagram showing objects</title><style>
        :root {
        --fade-text-color: rgb(0, 0, 0);
        --hide-text-color: white;

        --highlight-value-text-color: rgb(27, 14, 139);
        --highlight-id-text-color: rgb(150, 100, 28);

        --highlight-box-fill: yellow;
        --highlight-box-line-color: rgb(0, 0, 0);

        --fade-box-fill: rgb(247, 247, 247);
        --fade-box-line-color: gray;

        --hide-box-fill: white;

        --primitive-value-color: rgb(27, 14, 139);
        --id-text-color: rgb(150, 100, 28);
        --default-font-size: 20px;

        --highlight-object-fill: rgba(255, 255, 0, 0.6);
    }

        text {
            font-family: Consolas, Courier;
            font-size: 20px;
        }
        text.default {
            fill: rgb(0, 0, 0);
            text-anchor: middle;
        }
        text.attribute {
            fill: rgb(27, 14, 139);
            text-anchor: start;
        }
        text.variable {
            fill: rgb(0, 0, 0);
            text-anchor: start;
        }
        text.id {
            cursor: auto;
            fill: rgb(150, 100, 28);
            text-anchor: middle;
        }
        text.type {
            fill: rgb(27, 14, 139);
            text-anchor: middle;
        }
        text.value {
            fill: rgb(27, 14, 139);
            text-anchor: middle;
        }
        path {
            stroke: rgb(0, 0, 0);
        }
        .highlighted path {
            fill: var(--highlight-object-fill) !important;
        }
    
        [data-theme="dark"] {
            --highlight-value-text-color: #110875;
            --highlight-id-text-color: #6e4409;

            --fade-text-color: #BBBBBB;
            --hide-text-color: #121212;

            --highlight-box-fill: #EDB926;
            --highlight-box-line-color: #FFFFFF;

            --fade-box-fill: #2C2C2C;
            --fade-box-line-color: #666666;

            --hide-box-fill: #121212;

            --highlight-object-fill: rgba(72, 207, 173, 0.3);
        }
        [data-theme="dark"] text.default,
        [data-theme="dark"] text.variable {
            fill: rgb(224, 224, 224);
        }
        [data-theme="dark"] text.attribute,
        [data-theme="dark"] text.type,
        [data-theme="dark"] text.value {
            fill: rgb(144, 164, 237);
        }
        [data-theme="dark"] text.id {
            fill: rgb(255, 183, 77);
        }
        [data-theme="dark"] path {
            stroke: rgb(204, 204, 204);
        }
</style><g><title>Group of 1 objects</title><g role="graphics-object"><title>Dict id10 with 3 entries</title><desc>Entries: blank key: id81, id1: blank, blank key: id12</desc><g id="object-0"><path d="M48.687787863159045 23.352694256849766 L250.15398201961193 26.646345358499584 L251.46179425164402 324.5523311338243 L50.39673955682602 323.56065933753325" stroke="none" stroke-width="0" fill="none"/><path d="M49.41800968438953 26.762096237327377 C101.53527324013264 22.422041386148614, 155.378921781191 23.193358076439264, 248.25186078444324 24.520754609006545 M50.87196229086683 25.22571306407037 C110.12812745280317 23.747846967877532, 170.62650137676928 23.33965862544464, 250.21026776946545 25.312047632272247 M250.3814476492627 26.03887875660554 C247.73117810535652 133.8729541305333, 249.00336526988522 241.5402025456827, 249.47242318315068 325.7504489779917 M249.8589547837288 24.863981469722585 C248.19538558110648 119.07466797940926, 248.79817147538918 214.48175928553835, 250.02648465835614 324.65766874181463 M248.6697524074771 325.97551286168994 C175.6703401629768 324.59372495422315, 99.96917388167147 324.22791959180887, 49.57210907759193 324.76815754182195 M250.48219415313622 325.68656552527113 C186.7892191955994 325.9562725894067, 123.9390019547642 324.6049115234378, 50.03416543330467 325.4910243340724 M51.066989066649604 323.7351431455812 C49.03049848893903 255.93005084578087, 47.99075326566993 186.02770728295073, 50.40228229809808 24.891761101664564 M49.73163107385014 325.06185930140197 C50.818922597506415 204.3379190258213, 51.28098448155708 84.64816158680493, 50.46181401457008 24.71219277007182" stroke="rgb(0, 0, 0)" stroke-width="1" fill="none"/></g><g><path d="M50.16349817966678 24.201369761428055 L109.01200748666555 25.577154950876196 L108.5007757027081 74.46699087531127 L51.67172698503572 74.4920906580559" stroke="none" stroke-width="0" fill="none"/><path d="M49.414700971915515 25.64491002286726 C64.94178499428331 25.45044679397204, 79.01137771399357 24.35247886296271, 109.71328780629949 23.634753775824173 M50.80138153090671 24.166426326946997 C62.16560994955023 25.582054532650016, 74.49969774812322 25.665724731400594, 109.1926208897339 24.626716746297312 M111.42958178185421 26.996452740483846 C108.3186183139315 36.53918758902198, 108.74981867134433 44.18190782398844, 111.28141256542729 76.48579503522804 M109.14794999658602 25.128826510681826 C110.57865537490062 44.932146357627275, 110.45250896158906 63.515648556057336, 110.57108011056924 75.6809798578659 M110.76725623062634 75.43685182273376 C92.88137267589813 76.9159724962872, 74.71942264674225 73.46995743902606, 49.14339074333231 73.18119591230025 M110.78596920562616 74.93499298721974 C96.93212723390256 74.35422483048987, 83.67278342523727 74.303926596549, 50.65465300162889 74.30213747096563 M48.87735613726838 75.22830518252282 C51.08850623337746 63.11156021949106, 50.42382086974961 56.43605793078565, 50.97166641379901 24.29680205510764 M50.963405503348916 75.37228346381966 C49.36389203386215 60.85179733608975, 49.857220262359746 46.21295769045941, 49.463105664095956 24.4522153228001" stroke="rgb(0, 0, 0)" stroke-width="1" fill="none"/><text x="80" y="55" class="id" aria-describedby="desc-0">id10<title id="desc-0">Object id</title></text></g><g><path d="M190.5792744886033 25.40968769784684 L251.15966985574505 25.096151273982592 L250.90081499093156 74.0130693900254 L191.83681347406645 75.2858639491294" stroke="none" stroke-width="0" fill="none"/><path d="M189.41815491998074 25.256222677903494 C210.07115530303534 23.848475096703066, 230.88265791543893 26.12941728844098, 248.70717826267853 23.07749677918515 M190.7678062547103 24.340949531308443 C204.54265128983408 24.660086235537133, 216.49652964253332 24.981193502415916, 250.49482510170054 24.413323347689815 M249.84896896707076 24.685266580796643 C248.87050435505228 38.08875862270975, 251.90019588297986 52.735653808316314, 248.78109682724016 74.1857821645441 M249.08762836203928 24.886593839099724 C249.89387385640205 43.54733219696641, 249.44588015878662 63.90109941954522, 250.82505973197433 74.17854843979913 M251.43575681489838 75.59267417464274 C231.3713467940295 74.3150336521481, 213.96253806121464 73.92610961578072, 189.24744681964944 75.25436970949173 M250.96957241733443 75.87209557837207 C231.98528365820943 75.69487905575109, 212.65051847033976 74.97390888111946, 189.05552910104893 75.08927194858686 M191.85241193568257 75.7380308720016 C188.60514830926704 57.0508349047159, 190.85639792536364 40.86703952890559, 191.23144272451108 26.58040471496822 M190.32987165224577 74.86943829557751 C191.37229666665306 62.91265494611477, 191.07018162677767 50.236158744032196, 189.77529765262977 24.7563640472986" stroke="rgb(0, 0, 0)" stroke-width="1" fill="none"/><text x="220" y="55" class="type" aria-describedby="desc-1">dict<title id="desc-1">Object type</title></text></g><g><path d="M75.33933694778196 100.23888626292631 L124.80849714810199 101.17045078821931 L124.59614080087134 148.9268782578742 L76.46883083035706 150.39531683197146" stroke="none" stroke-width="0" fill="none"/><path d="M75.84742132258621 99.03438112131981 C86.75819904969201 99.53161326547416, 95.48297794711974 100.2254030545501, 123.01661925275701 98.90200551926675 M75.69109164032571 99.50930011567968 C86.18213470727049 100.19297768954245, 96.4432385370665 99.39721940109814, 124.91176601802809 100.12196349645214 M123.44272757174173 99.00235846534082 C125.81305698973298 111.67718721979999, 123.39278986678498 123.12813100730796, 124.48224121606599 150.37246683360664 M124.2834841957222 100.28186639843389 C124.98084729775857 115.24867130446339, 124.69759336195231 132.6227147251809, 125.06490230393928 149.80127145613676 M126.97403607808553 149.907418569484 C105.13369731790164 150.82809900375068, 89.84816596435572 149.82132033069004, 75.37744665030712 148.3068165842653 M125.98125899936795 150.96564149437668 C111.61770322701652 149.57291109943355, 96.46975792913993 149.97085147826596, 75.5288038422438 149.65803056543376 M74.06417238862052 148.90972020812657 C74.43410826485093 134.91566806669476, 73.1047752758404 118.3947615978338, 75.0998455876243 101.5415561674587 M74.25453967133254 150.65796577811105 C75.7930431757679 133.78866019873885, 74.46779865915171 118.03462314705074, 74.83006128554176 100.68094151649713" stroke="rgb(0, 0, 0)" stroke-width="1" fill="none"/><text x="102" y="130" class="id" aria-label="blank entry" aria-describedby="desc-2"><title id="desc-2">Dictionary key</title></text></g><g><path d="M168.99029494559156 100.71629080535212 L229.2412685710584 98.3246640979814 L231.99507553148416 151.36622392403913 L169.9640161198114 150.68787671395876" stroke="none" stroke-width="0" fill="none"/><path d="M170.41106594458225 99.00503756385794 C191.61317729876674 98.50530539885901, 214.39200409847416 101.73949941480693, 230.5613414410512 99.76335486994577 M169.19058896227344 100.27014429707486 C191.9110769822775 99.83965561459671, 211.32580224122592 99.12289972788528, 229.39059956737486 100.50460735399244 M228.96889488352886 99.69399472928536 C229.11876849356037 117.21544393221265, 228.69901538840853 133.69763673886285, 228.4586301726438 151.00217617640033 M230.29789565041077 99.13724757602438 C229.80857049689504 115.24849354163848, 231.40598854388045 130.4263350076278, 230.1720512616402 149.62533328172813 M231.89607190605585 149.0250525215659 C209.66410442594488 150.8036530784494, 185.1597064145623 151.17560416658267, 171.9794088795231 151.8945388137365 M230.9663376230097 149.08033223459393 C208.48699352449518 149.54799100414328, 186.15451007501582 150.34301298369166, 170.6193270264937 149.88130601859606 M171.58823089037318 149.72070792687788 C171.0123123634658 136.94985255148194, 167.63359950392936 124.43270319294416, 170.7924502662835 100.65343141953238 M169.08618543272883 150.6842449171917 C171.0424455707281 137.07391989487797, 171.3212040691383 122.780607890836, 169.20837843965043 99.27619750733443" stroke="rgb(0, 0, 0)" stroke-width="1" fill="none"/><text x="200" y="130" class="id" aria-describedby="desc-3">id81<title id="desc-3">Dictionary value</title></text></g><text x="150" y="130" style="" class="default" aria-hidden="true">:</text><g><path d="M73.69156859917491 175.70619538996277 L124.85455129994311 173.82404467323755 L126.86840663406504 226.62940939404152 L74.05134504395359 225.5070400451227" stroke="none" stroke-width="0" fill="none"/><path d="M76.73986401520537 173.04958712578218 C85.74213663346045 173.3575449908232, 96.19297012159637 174.3253737734429, 124.42016134248242 174.17870681098532 M74.27677611087984 175.1824115411472 C87.52391279153747 174.06114834432617, 99.26554071738632 174.39916681050926, 125.66561018592928 175.72299917996858 M125.4932945229791 173.51136534901747 C125.6174766481256 195.3836770673189, 125.49865151815362 213.28990036516285, 125.52101056801156 225.37315817861665 M125.20133068408063 175.9145413506622 C125.3704212232838 193.50433290053383, 124.5584513028191 211.07290937592597, 125.8400845209944 225.28577882471114 M126.09970610683605 223.06043970753942 C106.73627268699343 226.68216417721555, 84.58351440589917 225.52125797418046, 76.85868711134506 223.64174199081418 M124.71354845448195 224.75865218752065 C110.65767396369351 224.56819809511248, 97.70071078346307 224.96521978458387, 75.49793447687802 224.882319781355 M74.90766399404353 225.64311446410917 C76.08540112759346 213.86457759081495, 76.59580958935352 200.91346655926665, 76.4811453022959 175.09508396434623 M74.33462405297112 225.26427355198453 C74.9267742624645 211.00029430898883, 75.46826440611822 194.99157637287567, 75.55229784237942 175.1445162342185" stroke="rgb(0, 0, 0)" stroke-width="1" fill="none"/><text x="102" y="205" class="id" aria-describedby="desc-4">id1<title id="desc-4">Dictionary key</title></text></g><g><path d="M169.48308775152444 176.27699232508508 L221.70335931018985 176.28270479790908 L220.96148181448348 223.99653974239686 L170.04508161671023 225.6905298551149" stroke="none" stroke-width="0" fill="none"/><path d="M169.50079030186285 174.47748511842585 C180.55186152694165 176.51498296816325, 191.9974827518398 174.13930112253362, 221.63480268934646 176.16638291452165 M169.22229279498322 174.20874099791428 C180.75038348856094 175.32975908832628, 191.9965957759414 175.05752012449207, 219.06106534654208 175.55923739228098 M220.75976529371226 173.12111859585616 C220.00365509264202 192.19658237647494, 220.88418099856145 209.4084637993527, 220.247614182064 224.67300131029728 M220.161922429414 174.1629487909049 C219.48748604271188 193.39078476378904, 219.00386210176515 213.3262704726892, 220.80295781238797 225.2792770109336 M218.8285956264398 225.14043535593652 C204.36072151570605 226.59562669113302, 191.24278794147398 223.54171247897472, 171.4819912513832 223.77813859755076 M219.81862507594397 224.8809788634523 C206.14365288350888 224.92809501461377, 192.90323407865316 225.3300001135469, 169.3518364811437 224.96236622917536 M169.71445702811755 226.7983870371675 C168.1693208626105 212.8162588636553, 169.58680467569084 204.44720949036946, 171.28260888440363 174.39559797133032 M169.05436027951816 224.06189062257334 C169.95267080180486 206.13221929661125, 169.90503548733685 186.6895222859229, 170.26689516680298 175.10546218971356" stroke="rgb(0, 0, 0)" stroke-width="1" fill="none"/><text x="195" y="205" class="id" aria-label="blank entry" aria-describedby="desc-5"><title id="desc-5">Dictionary value</title></text></g><text x="150" y="205" style="" class="default" aria-hidden="true">:</text><g><path d="M74.70949369299008 249.2807687504479 L123.02317201704129 248.63142226807156 L126.51701201501565 299.8824966866902 L74.20531836955189 301.62159577490183" stroke="none" stroke-width="0" fill="none"/><path d="M76.03462957455459 249.38557467025822 C91.01323174705946 249.63240545905504, 104.69354786744786 251.04545758541374, 126.42706980633633 251.91522052276642 M75.0664604366186 250.58558620017865 C90.83582336644044 249.4932409414894, 105.76464484714847 249.18961196076057, 124.12203329401268 249.7608958057387 M126.97925993190587 251.28559210953773 C124.08526358761105 266.13021513971813, 122.99927915440708 284.69214355335185, 123.61993579015659 298.997802135697 M125.17282185681914 249.09071492357327 C124.68967606151848 268.5176407946021, 124.32274341916714 286.82247545556237, 125.10993362738796 299.03861500511033 M126.56727105990885 301.7832030902342 C112.05951238481727 301.6978533255149, 100.6970771126478 301.03310914815717, 73.13279869008241 298.18058425313444 M124.53659332651868 300.40696823146044 C111.42021986367968 300.3645779692372, 95.51847336483273 299.62964335781106, 74.53113085160243 300.1079054353301 M73.02715336590198 298.68992558049393 C75.00376073743594 290.0877740309013, 76.15104759049166 277.460243987992, 74.64044162199596 251.8012577878349 M74.95586303532373 299.17585953033495 C75.37817844113565 284.27424153345277, 75.0965577068424 271.18069882476277, 75.88204703630932 250.02774061735883" stroke="rgb(0, 0, 0)" stroke-width="1" fill="none"/><text x="102" y="280" class="id" aria-label="blank entry" aria-describedby="desc-6"><title id="desc-6">Dictionary key</title></text></g><g><path d="M171.7201226857764 249.69478026924793 L229.1652406620721 250.88517695341318 L231.44367465063 299.3631464019304 L171.97443793159314 301.94927660678775" stroke="none" stroke-width="0" fill="none"/><path d="M169.38758726828058 250.13429307419906 C191.64593092681386 251.70390023872926, 209.3723553661799 250.76936852691026, 231.07219812222553 249.49955320929877 M170.63692332442673 249.16114911634222 C189.97525133509325 250.36477826363347, 210.81627042640804 250.51229385511144, 230.72891285530926 249.1816084565696 M231.88019012943118 251.97476585803776 C231.9380785079524 267.50626072770905, 231.9118255445331 286.1039009151115, 228.9912438497768 300.3356609560052 M230.2573121347987 249.12391871878725 C229.80276082145977 269.2160441268358, 230.39592297250894 288.22724633062455, 229.82719074536726 300.6498475132842 M230.6760354279095 301.9597034162922 C208.54073856098074 299.50406556242126, 187.86758424846542 298.92413160574506, 171.67374159042973 299.47951202506357 M229.2532856581107 300.56775632916055 C214.03486066988773 299.8438093400084, 198.71382512641665 300.5245028837574, 170.5370627863994 299.4805414908007 M171.73294110592772 301.3792938444798 C169.7444026497197 289.6256658791999, 169.3380332001805 277.9040075541356, 170.32340294323285 249.1926941923096 M170.6957017097078 299.10277589373175 C169.8693696308304 284.9085552407668, 170.6942624098321 271.1948644828028, 169.0287421717933 249.67709484651243" stroke="rgb(0, 0, 0)" stroke-width="1" fill="none"/><text x="200" y="280" class="id" aria-describedby="desc-7">id12<title id="desc-7">Dictionary value</title></text></g><text x="150" y="280" style="" class="default" aria-hidden="true">:</text></g></g></svg>