<svg width="275" height="375" xmlns="http://www.w3.org/2000/svg"><style>
        :root {
        --fade-text-color: rgb(0, 0, 0);
        --hide-text-color: white;

        --highlight-value-text-color: rgb(27, 14, 139);
        --highlight-id-text-color: rgb(150, 100, 28);

        --highlight-box-fill: yellow;
        --highlight-box-line-color: rgb(0, 0, 0);

        --fade-box-fill: rgb(247, 247, 247);
        --fade-box-line-color: gray;

        --hide-box-fill: white;

        --primitive-value-color: rgb(27, 14, 139);
        --id-text-color: rgb(150, 100, 28);
        --default-font-size: 20px;

        --highlight-object-fill: rgba(255, 255, 0, 0.6);
    }

        text {
            font-family: Consolas, Courier;
            font-size: 20px;
        }
        text.default {
            fill: rgb(0, 0, 0);
            text-anchor: middle;
        }
        text.attribute {
            fill: rgb(27, 14, 139);
            text-anchor: start;
        }
        text.variable {
            fill: rgb(0, 0, 0);
            text-anchor: start;
        }
        text.id {
            cursor: auto;
            fill: rgb(150, 100, 28);
            text-anchor: middle;
        }
        text.type {
            fill: rgb(27, 14, 139);
            text-anchor: middle;
        }
        text.value {
            fill: rgb(27, 14, 139);
            text-anchor: middle;
        }
        path {
            stroke: rgb(0, 0, 0);
        }
        .highlighted path {
            fill: var(--highlight-object-fill) !important;
        }
    </style><g id="object-0"><path d="M50.534814946777 25.180351832882977 L250.84230022941944 24.71806494069474 L250.9782435419556 323.3027466536666 L49.29364347307189 323.83652613337273" stroke="none" stroke-width="0" fill="none"/><path d="M51.48325892184824 23.463375806650735 C123.77546510148146 25.311947535627386, 197.6849768720312 26.010536182798248, 248.7653345469716 23.412361270216763 M50.00565282009276 24.400437773684224 C91.81793072020253 25.578492399363853, 132.55005989834913 26.098754796441554, 250.74914261842898 25.202785792540865 M251.37487524779883 23.625645135844884 C249.04029646544143 132.2880160186112, 247.67099092253977 239.61812883002025, 250.52680551255565 326.34866091493404 M249.612459408757 24.72399188632625 C251.2734026524791 97.93576751103787, 250.58732046788714 169.11311694620676, 250.2418911347981 325.17345745407835 M250.3596848030914 325.08581649232804 C187.7883522657055 325.00504812260544, 125.15001521719924 324.3239333015786, 50.95374660221373 323.2053338168262 M249.83145916809792 325.1928435189744 C195.8027116726271 323.95779678563855, 144.0787971218504 323.62394273048307, 50.24997897449581 324.6403487151619 M50.09636664731441 325.78120243037154 C49.53197245152541 239.37367688906554, 47.50600988395153 157.20736407405187, 49.301382849230734 26.27804071045218 M50.606286961874865 325.15974023177904 C51.928726339005394 216.74554913435205, 51.82655141424476 109.07022178955089, 50.01541778499893 24.431072588112183" stroke="rgb(0, 0, 0)" stroke-width="1" fill="none"/></g><g><path d="M74.7005040776599 98.72870145363767 L123.65987320300682 99.6538097509206 L125.34278337298976 150.22264263423557 L74.16043010641891 151.8213973956453" stroke="none" stroke-width="0" fill="none"/><path d="M75.29481495811605 101.15357424184995 C87.1547661199988 98.11965800409234, 98.54353052634559 97.89275341105723, 125.38147101449982 98.21064306261559 M75.84875827529582 99.88561862444571 C93.34723548159643 100.12669712938859, 109.90148428959941 99.92548285946718, 124.61735490991616 100.55413241611554 M124.82480508456442 101.93168819842055 C123.72865149897342 116.63310722074846, 125.2469018237157 131.58000104173766, 125.2360810985369 150.03116798983814 M125.58292832345028 100.6789232693026 C125.96490700994734 113.91562170700848, 125.61184178810842 127.33813447701668, 125.72631240065616 149.64274977394447 M126.26896621874761 150.094071185098 C111.449758627313 150.3732893756019, 99.67863100973085 151.53802048779494, 73.59785837042213 148.88482704402077 M125.8309467758596 149.13463379181195 C108.50187208387705 149.55021568197125, 92.57466627178708 150.66257226838968, 74.20547554664849 149.59660764010684 M74.37768696180001 150.90819534638055 C74.42981337609275 130.83704660968127, 75.17688052536667 114.69465740719949, 76.22473043949239 101.84033522405916 M74.80824104988642 149.9416354584925 C75.53702426192055 131.09972940012898, 74.72774389613451 112.06811906478583, 74.22138198465218 100.93393583243831" stroke="rgb(0, 0, 0)" stroke-width="1" fill="none"/></g><text x="102" y="130" class="id"></text><g><path d="M73.5931135866125 176.10529823144006 L123.29143235446838 173.74913262560054 L123.42685325076005 224.81966269171315 L76.82417564766156 225.4219770949275" stroke="none" stroke-width="0" fill="none"/><path d="M74.50977790412614 176.8621450495393 C95.43008300445202 173.83681214739985, 112.57326548298485 173.2752587633661, 123.74050157246126 175.63272648797346 M75.82904473802198 175.35708931820471 C94.09158213868643 175.49583791556174, 112.58063852122271 174.2357192730796, 124.15642969044697 174.82460032769754 M123.71490972253874 175.0081679545151 C125.34960421022483 194.91513375902798, 125.07864766840663 211.09513394573298, 123.82727154404205 226.60728630570185 M124.69962162418828 175.4471763659346 C125.42978860190757 188.32611144666598, 126.34675132261154 200.21737608278966, 124.84469145042884 225.59605945386258 M126.52686663741511 225.25069338948447 C112.90566628395034 224.59676820529305, 102.82672786200018 226.4461121867428, 74.17049603998032 223.23920947849916 M125.77272278567892 224.27863127053365 C107.87442052839636 224.37556091980952, 92.05575789600735 225.3476262792218, 74.0954261933415 224.33892020649543 M74.64178512167042 225.5872089988838 C73.13849700271459 208.2706580844349, 75.4415301910832 186.99583617357504, 74.92082681515498 173.3073427375852 M75.8884115792135 225.89600626553977 C76.06244129605253 213.51777284520657, 74.63013084752332 203.99653020660094, 75.96181519451466 175.0528379861495" stroke="rgb(0, 0, 0)" stroke-width="1" fill="none"/></g><text x="102" y="205" class="id">id1</text><g><path d="M76.04443987517352 248.83203370913756 L124.59328201855712 249.86267192579143 L125.76253158228819 301.9584847589496 L73.95620796206745 299.1231105467612" stroke="none" stroke-width="0" fill="none"/><path d="M76.20349580148697 251.801612078538 C87.7472437193382 249.87264894754756, 97.32657496550634 250.20220032630303, 123.57749077789661 248.91028624002715 M74.85315076855504 250.65309628033938 C91.65691502516198 249.7156493734678, 108.71356639576254 249.05371710101775, 125.57399900976789 250.50414495373514 M123.38159730749751 249.85087545860554 C127.06663368419441 265.88738588857245, 124.25806013151073 283.95744047485556, 123.57741690524654 301.535295686387 M125.02993395912429 250.71544751851374 C124.95192832225436 262.11942869124005, 125.1164266032503 275.20272384222056, 125.1776248857054 299.64859555361363 M126.28337165460997 299.8143247778936 C107.42542985424477 300.2221816850134, 90.66582847318622 301.4340593006856, 75.23273320844359 299.13109211859506 M125.81766861378352 299.90907853209603 C108.55394366973627 298.8635336742574, 91.59968663836118 299.3241817487095, 75.8055258222643 299.803080282453 M73.94510780048398 300.95229002535234 C73.82562884600452 279.53934959684534, 76.11646617646483 260.7072298797501, 74.82511135701215 249.18134225472454 M74.20650083760957 300.6431373016753 C74.75594748388981 280.95719216800904, 73.81748686175133 260.264484779938, 74.38420085848456 250.7472331291375" stroke="rgb(0, 0, 0)" stroke-width="1" fill="none"/></g><text x="102" y="280" class="id"></text><g><path d="M170.82916158185313 99.16513327963716 L230.6023408641181 99.7449185917031 L231.28563266136794 149.64044133777367 L171.1530916457354 150.86321262652967" stroke="none" stroke-width="0" fill="none"/><path d="M169.36388952567683 100.1053933667863 C186.7347406034231 99.24707562923508, 198.4068250917151 101.95212117325833, 231.87912855587817 99.48596489614212 M169.65482985976655 100.03406513358989 C191.43623408510726 100.49558907339632, 213.06741267345862 100.34279294502326, 230.34925223313928 100.37522162818165 M228.32456763879617 100.04904248458534 C228.9743921586627 112.33320914651208, 228.45203739546656 123.43365202916274, 230.74009929818845 151.62537634913804 M230.40497028418724 100.5878470134296 C229.79431855376745 119.54617579620086, 229.15619948004982 138.92369696199316, 230.93696507011063 150.33930539858548 M230.77422441671428 151.54139078522672 C213.72968155016048 148.343245632861, 199.9889788245248 148.40380220317093, 170.53215690192388 151.76006615174055 M229.12114601377496 149.08244577527705 C217.2528576753294 149.5099521290776, 204.40288109170092 149.48390964332296, 169.35755929115203 150.88708741250727 M168.03284691376527 149.62958881007683 C170.95498762862016 129.82813646603952, 170.318244279082 112.34527937814771, 171.97526575485767 99.5684644297534 M170.94224639825268 149.77223738578368 C168.64485305233632 137.46715972059695, 170.50429465670678 126.66694458528845, 169.01771530863846 99.82768701238524" stroke="rgb(0, 0, 0)" stroke-width="1" fill="none"/></g><text x="150" y="130" style="" class="default">:</text><text x="200" y="130" class="id">id81</text><g><path d="M171.94725163513812 176.23505760521314 L219.8481508602629 173.88592076663565 L218.17133296291144 226.44155355920893 L171.57312450205103 225.31363424099217" stroke="none" stroke-width="0" fill="none"/><path d="M169.26738663411717 174.4273182441032 C184.42650755590066 174.1370716018277, 202.32199590375143 174.37996164366015, 219.41367286776523 175.18582372372185 M170.8372411484068 175.4879986045967 C186.94304850052296 174.65364251323768, 205.28735919917892 175.13021570111448, 219.32013573372302 175.93124716937572 M220.2406052303941 174.39974199518952 C220.81170385494212 190.83958980544793, 219.78361042769103 201.17837634146943, 218.34199212223405 225.82976110369532 M220.3098770991198 174.5340608779459 C218.71474761322125 188.22406794498903, 218.9633701614066 202.91699592353285, 219.4516219516054 224.0900046669517 M220.18402848636748 224.87097170836822 C208.75133219409892 225.06793302167833, 198.59786695072626 224.57972014287455, 168.711535782437 223.34086009868574 M219.62165131204367 225.14614945578472 C200.13695801483124 225.8439583308455, 181.22944119352462 225.25223623451848, 170.24465560057516 225.36296614829263 M170.67239142495728 226.03211269765626 C171.5340905912506 209.06901554199268, 169.28202658980481 193.57348781885008, 171.7983775180407 175.53835287495085 M170.34058730036134 224.8721367494004 C170.60081116336374 209.58437919561828, 170.4376222579281 194.92782348410972, 170.7551580033962 175.41769197941144" stroke="rgb(0, 0, 0)" stroke-width="1" fill="none"/></g><text x="150" y="205" style="" class="default">:</text><text x="195" y="205" class="id"></text><g><path d="M169.37509278617307 250.31602419103717 L228.6954469098304 251.5387894413458 L229.35301761409224 298.90025928140545 L171.88522271751768 300.99815964485686" stroke="none" stroke-width="0" fill="none"/><path d="M168.48884588684518 248.97231706737531 C185.5216050330331 248.57967348509, 201.21461120509835 251.69820537118628, 228.00794803907849 249.34609682821917 M170.02333193629175 249.5736842977876 C194.4636915151602 250.6385387183937, 218.01962896712516 249.5493220011743, 230.11674032578202 250.86506061483524 M228.99981723767027 251.54011012497983 C228.69638261307375 264.9512953735958, 230.46892696913673 280.1030772055465, 229.5561656500667 298.0469414039381 M229.0787753073893 249.1996691997598 C230.80601331575346 266.27023670587175, 230.3858555337629 283.76200893732386, 230.8383811273098 300.0787101612102 M228.26325742997187 298.0574195157752 C208.94948527072984 299.93778905266436, 191.04738924200086 299.99585971509333, 169.48966476335863 298.11423865152204 M230.78752653554432 299.1710254474013 C212.93030815432886 300.4313538106633, 196.15515551443846 299.0277850642178, 169.71373239888564 300.38320786220123 M168.64614382183774 301.8672763097344 C170.09849210413046 283.07101523558583, 170.58077523890844 267.5124835211827, 171.88991994697741 248.5728677652882 M170.44895350088086 300.00856603054723 C170.2677132012312 287.50504579200697, 170.98484438237716 275.0510033472557, 170.51307858779006 249.1220675411169" stroke="rgb(0, 0, 0)" stroke-width="1" fill="none"/></g><text x="150" y="280" style="" class="default">:</text><text x="200" y="280" class="id">id12</text><g><path d="M51.67570031334682 26.566335494822955 L109.01417222601818 23.18283352143216 L108.05609239786716 73.73242004026143 L49.284264325117206 75.73005858500174" stroke="none" stroke-width="0" fill="none"/><path d="M49.960689821705785 23.273608297266748 C66.27270765435685 23.429085362806706, 84.97453842228379 24.181089625600404, 109.3768772631163 26.8819302944351 M50.48210750627459 24.942026020982603 C65.87015341401687 26.153830363705495, 81.8177100746665 25.157886383713848, 110.02034332902922 24.97938956120992 M111.85366808759217 24.877621900265922 C111.3076878285058 43.70561274476523, 109.35269484924208 61.84303947245862, 111.74973957968294 73.92389336683502 M109.84247500229883 24.986032663864265 C109.11259184769855 36.12488172047724, 109.44468257694022 46.09639953442569, 110.82219400970261 75.95370586509281 M111.81171496538806 74.19193401300451 C92.25155263782914 75.07138501749992, 70.14113464182557 73.63060558478317, 51.758020272971784 74.85421593871507 M109.20032437107453 74.68664296267178 C91.10890338642541 74.35357066886242, 71.93788126852623 75.00095222638517, 49.33222873351275 75.02827026170078 M50.88358289010837 74.87284229784919 C52.10482842518386 57.564833700928524, 49.22112810260796 37.29276739118977, 51.599141041699106 26.943276441116705 M49.870118471943925 74.10932898772629 C50.45043299568154 61.26408132705672, 50.38045487164837 48.96236065061043, 49.459569285305186 25.145348190182236" stroke="rgb(0, 0, 0)" stroke-width="1" fill="none"/></g><g><path d="M190.83134905391577 26.250234460603856 L248.9568816871232 25.92100159788691 L250.42790847398754 75.15609915635278 L190.19662409655692 76.28012029178733" stroke="none" stroke-width="0" fill="none"/><path d="M191.0920886486217 25.708138307680066 C207.93091138770012 23.656092921663863, 226.89198396045154 26.54877019187373, 248.43583448004676 25.68972170477248 M189.57751992950338 24.302610503311598 C212.34304489682725 24.765616725981744, 234.9139923060769 26.363720644637876, 249.87989390666382 24.27974025095403 M251.29506081249022 26.48570272257819 C249.5751202924444 39.92921376950685, 252.39834391701197 52.609693899619586, 249.4135499368251 73.59893645417941 M250.8198795790498 25.581749608928387 C250.09572337739107 42.75873580401923, 250.59076984010434 59.91454383907301, 250.61807950149702 75.83056458571997 M248.41860042104287 73.06555251362892 C225.10704882648935 75.94203042687356, 204.12517566438004 74.89579226771257, 189.84998061774758 73.82878266014296 M250.32841855405056 74.7545468483319 C226.7865970462008 73.55901366297083, 203.37599861551 74.06725917027325, 190.19250204405373 75.77733622063657 M188.9648200982875 73.23172771098146 C188.49481273741833 62.64101252449306, 189.22515420381404 51.62677482311571, 189.36596948164086 24.063929390994932 M189.5198706916784 75.96673670774146 C190.50371676448398 58.148242085334786, 189.42207963233523 40.90356983206827, 189.43614378540414 25.67294912039539" stroke="rgb(0, 0, 0)" stroke-width="1" fill="none"/></g><text x="80" y="55" class="id">id10</text><text x="220" y="55" class="type">dict</text></svg>