<svg data-theme="dark" width="250" height="375" xmlns="http://www.w3.org/2000/svg"><title>Python memory model diagram showing objects</title><style>
        :root {
        --fade-text-color: rgb(0, 0, 0);
        --hide-text-color: white;

        --highlight-value-text-color: rgb(27, 14, 139);
        --highlight-id-text-color: rgb(150, 100, 28);

        --highlight-box-fill: yellow;
        --highlight-box-line-color: rgb(0, 0, 0);

        --fade-box-fill: rgb(247, 247, 247);
        --fade-box-line-color: gray;

        --hide-box-fill: white;

        --primitive-value-color: rgb(27, 14, 139);
        --id-text-color: rgb(150, 100, 28);
        --default-font-size: 20px;

        --highlight-object-fill: rgba(255, 255, 0, 0.6);
    }

        text {
            font-family: Consolas, Courier;
            font-size: 20px;
        }
        text.default {
            fill: rgb(0, 0, 0);
            text-anchor: middle;
        }
        text.attribute {
            fill: rgb(27, 14, 139);
            text-anchor: start;
        }
        text.variable {
            fill: rgb(0, 0, 0);
            text-anchor: start;
        }
        text.id {
            cursor: auto;
            fill: rgb(150, 100, 28);
            text-anchor: middle;
        }
        text.type {
            fill: rgb(27, 14, 139);
            text-anchor: middle;
        }
        text.value {
            fill: rgb(27, 14, 139);
            text-anchor: middle;
        }
        path {
            stroke: rgb(0, 0, 0);
        }
        .highlighted path {
            fill: var(--highlight-object-fill) !important;
        }
    
        [data-theme="dark"] {
            --highlight-value-text-color: #110875;
            --highlight-id-text-color: #6e4409;

            --fade-text-color: #BBBBBB;
            --hide-text-color: #121212;

            --highlight-box-fill: #EDB926;
            --highlight-box-line-color: #FFFFFF;

            --fade-box-fill: #2C2C2C;
            --fade-box-line-color: #666666;

            --hide-box-fill: #121212;

            --highlight-object-fill: rgba(72, 207, 173, 0.3);
        }
        [data-theme="dark"] text.default,
        [data-theme="dark"] text.variable {
            fill: rgb(224, 224, 224);
        }
        [data-theme="dark"] text.attribute,
        [data-theme="dark"] text.type,
        [data-theme="dark"] text.value {
            fill: rgb(144, 164, 237);
        }
        [data-theme="dark"] text.id {
            fill: rgb(255, 183, 77);
        }
        [data-theme="dark"] path {
            stroke: rgb(204, 204, 204);
        }
</style><g><title>Group of 1 objects</title><g role="graphics-object"><title>Dict id10 with 3 entries</title><desc>Entries: blank key: id81, id1: blank, blank key: id12</desc><g id="object-0"><path d="M24.92304324322729 25.39632309452661 L223.1398753723897 24.50795266251178 L226.02519734562603 323.8294003383065 L26.433741657602877 326.9079714208695" stroke="none" stroke-width="0" fill="none"/><path d="M23.333910029654234 23.605288626788667 C64.42675613709702 24.849699988930904, 104.8056056528206 24.97269479227539, 226.78747059869835 24.98046404084267 M25.21880386097987 25.451113985583277 C77.74531209613073 26.67558705020204, 132.76088773414742 26.69588874119526, 224.37224269896933 25.21684628910167 M225.74234703156955 26.062895420381622 C222.45163401720092 125.01602847720778, 223.97370578971407 227.81571225997047, 225.079552461164 326.2796588236332 M224.88987445909927 25.47990320031652 C224.15600691734812 116.13508829558718, 225.3919141025951 208.90007120956824, 224.39854741238804 324.80250027408766 M226.731790068176 326.0341951339629 C169.20833092520445 324.38732352213174, 114.53820956367532 326.5738425698152, 23.259047486921112 325.1170392669266 M224.67980522613945 325.0927620891281 C179.9589762116146 326.51962625968906, 135.38103176092315 327.05901981393725, 25.25983373263452 324.35730575771953 M26.226506405072886 324.63640569761714 C27.39719878854067 215.3834816584138, 26.90146100030547 102.68711034931714, 24.753467679435598 23.85010743913249 M25.04328270431303 325.38057877704273 C26.840147526205694 219.65428118539597, 26.49888192994106 114.57578915858667, 25.227168226894825 24.49288020306315" stroke="rgb(0, 0, 0)" stroke-width="1" fill="none"/></g><g><path d="M24.15011337107138 24.900639650879512 L86.08499620354208 25.4061332441256 L84.54543983638608 74.35708078332024 L26.644310409308176 73.43008453469402" stroke="none" stroke-width="0" fill="none"/><path d="M24.983073753794905 26.343098713636806 C41.696307720896144 26.06112939557285, 61.49458056611136 23.39515339475342, 83.29191141481714 23.42928794988821 M25.176463339613818 25.992550205831662 C37.56770083043443 26.41269256710052, 49.29544951237343 25.561091257671208, 85.46414250112957 25.28620065562724 M83.92057129902594 25.60057768451874 C85.69956810421529 37.79612009408112, 85.5877802788634 46.66044056988053, 83.3496569573287 75.74522730263251 M84.14547545244216 25.566757738240504 C86.08467955230594 36.62173933509638, 85.9501068868208 48.33855583971184, 84.65699532086097 74.42077083858878 M83.18153096726685 75.46403118499022 C67.8196414780164 74.71926849538404, 50.576199592055005 75.82947323110372, 26.124095933602824 76.1327828056325 M85.34730109343039 74.04349576985688 C62.64790748881434 75.73249336805607, 39.41613986693827 75.18023533836738, 25.03804654225406 75.87226365048352 M26.554682878344067 75.08768925820279 C26.893315622806444 58.68846855544483, 26.057349260524326 44.431576407405984, 26.350402031940625 24.628375041767207 M25.642594033244688 74.53387806055343 C25.35285544103601 59.068097216777154, 25.021719185570443 41.801885918517755, 25.570621968775804 24.117157785125062" stroke="rgb(0, 0, 0)" stroke-width="1" fill="none"/><text x="55" y="55" class="id" aria-describedby="desc-0">id10<title id="desc-0">Object id</title></text></g><g><path d="M165.62724154649695 23.811050188383405 L225.76486357161266 23.067342056577615 L226.63104313029578 74.19067412632378 L166.11126965895787 75.00664426997224" stroke="none" stroke-width="0" fill="none"/><path d="M165.3144975161706 23.088200418220403 C180.05111374730612 25.209257288418787, 196.5787186319909 25.99913205526824, 226.85672250573307 26.159820825747065 M165.5832359090661 24.02998004920692 C186.50394232881882 25.03440714348081, 206.9404431096531 24.03139113797413, 224.25021880431814 25.307949693747204 M224.22710401349775 24.214375866779466 C224.37027760017764 37.97611418871814, 225.48115152180566 52.38656054605877, 226.65717888727468 75.80037669949614 M224.02915025950094 24.94849358070356 C224.8957713396995 37.61246564945046, 224.05314411689898 50.71445895385875, 225.88135745056547 74.08107952178317 M223.41653348397784 76.4901840870194 C204.85079751785645 74.24899577782475, 183.73571113411134 74.61569456117036, 164.58689172653445 73.61307440001075 M224.6161932539812 75.32326138686128 C205.03030566913702 74.44179785287378, 184.03505677411616 74.21711828734975, 164.9751800519299 74.39439925555664 M163.45791898768462 76.83583480758871 C164.0399476478732 61.481670129270405, 165.49489494833614 47.947663196676764, 164.20143177032077 26.999870923490615 M164.43505980889464 75.55400536849389 C165.18260834395016 59.070016325352086, 164.31945112200592 41.5778176662927, 164.81751281560219 24.23133691496317" stroke="rgb(0, 0, 0)" stroke-width="1" fill="none"/><text x="195" y="55" class="type" aria-describedby="desc-1">dict<title id="desc-1">Object type</title></text></g><g><path d="M51.47341592981371 101.5516703552386 L99.07689164934865 100.61116123333557 L100.57648576624239 149.8242962196902 L49.12939576883256 151.44867461965106" stroke="none" stroke-width="0" fill="none"/><path d="M48.83655391199199 98.62818907023225 C64.16033151383074 101.37701112013286, 79.53710060761102 98.6401990745651, 101.87352918562488 99.2661909559443 M49.87628029987014 100.3179378201885 C63.081284738057676 100.00883565331648, 75.2066620628685 101.32042338813977, 99.17023579047974 99.72611538042419 M100.85073354856706 100.22352094785009 C98.41894581403434 114.53032149123693, 100.66054478045005 129.71835316067936, 100.9892608414881 148.92939605310173 M100.09191151193869 100.62141710398024 C99.03539916714044 117.84627518444299, 99.37311261647862 135.89507452793785, 100.92325488104973 149.97956979343547 M98.64357364157576 149.99664345103267 C81.04707897931205 149.60786020130647, 63.73027559802091 149.72344374719106, 50.09239652318119 150.4250457118082 M99.062798398599 149.42488120691257 C80.65306854847279 149.6651582127066, 60.19388588604059 149.68092542281798, 49.28570599679004 150.44047385651507 M48.897636427503556 149.2038239506146 C50.44619541392056 140.83993929039895, 49.16822055821907 128.58869352005573, 50.49732157922158 100.18102845839812 M50.47667479772647 150.45050232861726 C50.468967812804756 136.44151335382665, 50.61005952324915 125.09125401464341, 49.71917018827221 100.34177738596414" stroke="rgb(0, 0, 0)" stroke-width="1" fill="none"/><text x="77" y="130" class="id" aria-label="blank entry" aria-describedby="desc-2"><title id="desc-2">Dictionary key</title></text></g><g><path d="M144.60366772994308 98.04904383730918 L204.14449986209172 99.50789697955554 L203.95471862822953 150.17946474049702 L143.81847739597976 151.48323983315322" stroke="none" stroke-width="0" fill="none"/><path d="M144.54614364922566 100.83794945664029 C157.31584991027265 97.94504394100119, 172.1474610677316 101.73847635079073, 205.68724820091128 100.27364147744115 M144.87129195476888 100.95149981645466 C159.6325654169229 98.87711845038648, 174.77264189196165 99.84614637219521, 204.60023806234298 100.28194147794991 M205.47658156074866 100.46950780814268 C203.01248831159847 115.19477215931607, 206.71832399194258 133.59753960414224, 204.6806146421844 148.60001978411657 M204.56050579389958 100.69639895317196 C205.87520793080597 120.64261345668591, 205.08766680820423 140.36917671910436, 205.70923293908822 150.30552545503514 M206.17843026303564 150.08040899892413 C192.0102799952734 151.24802435146722, 177.26503316957107 148.8245675568422, 143.07153920406603 150.5412356888243 M205.89767568674782 149.6794528242783 C187.80619259748408 148.52389682594068, 172.44605319785146 149.44623163779212, 145.28998071242498 150.94586399598592 M145.08869929789205 151.1703339770528 C143.79887342231314 132.24985684635936, 147.08637305053603 116.09067689880895, 145.8883200537984 101.29725602830263 M144.06473362171945 150.54975515877416 C144.72863581765552 137.98664445045972, 144.26366134740363 125.00504478995231, 145.23589332905956 99.03258539723659" stroke="rgb(0, 0, 0)" stroke-width="1" fill="none"/><text x="175" y="130" class="id" aria-describedby="desc-3">id81<title id="desc-3">Dictionary value</title></text></g><text x="125" y="130" style="" class="default" aria-hidden="true">:</text><g><path d="M49.216871730912416 175.34894438682886 L101.68038710997804 176.79943540499974 L99.04238383859693 223.46751865083985 L48.55122684706915 223.22054252157884" stroke="none" stroke-width="0" fill="none"/><path d="M51.1444901644847 175.55261601620552 C67.6538425548735 175.41704846036046, 82.07512930779038 174.429498131343, 98.35272361968697 174.88506748164002 M49.48377525675765 174.32274085545072 C67.75746533891159 175.01237275253192, 84.82028327846052 175.93099022113526, 100.50518689996326 175.51703140223646 M98.3723043559593 175.90737728833082 C99.72478267691493 193.17089335357414, 98.20870108049442 214.1516086777243, 98.4447625199899 224.56607958396884 M100.68458230424541 175.75229682815248 C100.05078929533197 186.05739950816144, 99.14179687170024 196.65325835870829, 100.60859263243935 224.7544731755259 M98.5489085603601 224.97300052973318 C88.6661751135793 225.9282443395663, 74.42539509990272 223.31683952394033, 51.49653883406781 223.75814769111489 M99.06576623294325 225.26954710965853 C84.53800788288565 223.8375736618449, 70.51811143204955 223.69009601145805, 49.69991930746724 225.85794104220432 M48.39656661769875 224.58874488246582 C50.51717992519613 207.49887937771948, 49.01236651048014 186.95734675734337, 48.73957031242015 175.58331713275618 M50.859651022412365 224.75411519095306 C50.57929658724653 208.33204124178388, 49.11868177553901 192.11019855291576, 49.051355747124546 175.3790877430729" stroke="rgb(0, 0, 0)" stroke-width="1" fill="none"/><text x="77" y="205" class="id" aria-describedby="desc-4">id1<title id="desc-4">Dictionary key</title></text></g><g><path d="M145.42283662524596 173.34507343133527 L193.4423430288839 173.64014679684513 L195.37755044665118 225.61472658724293 L143.99224853701506 223.996932340985" stroke="none" stroke-width="0" fill="none"/><path d="M146.34294444328452 175.2630855740433 C155.8122239480792 175.09212501796316, 171.37982652049018 174.81620224436193, 193.99020323648588 173.86912508549514 M145.49842326862773 174.0379636464099 C158.77327129687666 174.68662224679338, 172.9684270072817 174.21145639809814, 195.95306147508396 174.03020305386005 M195.62544552650797 173.53587085213735 C195.71508957734704 184.02749751986028, 195.5906427599509 195.8561861524796, 195.28614401228987 226.81421333588915 M194.74000986293206 174.16743545398762 C195.57184917950298 194.56316398208006, 195.4384029484524 212.07787721792008, 195.42896993072176 225.1779457059028 M195.38552329489224 226.61912628590605 C180.94681303833022 226.4733746262604, 163.80968067569844 226.13681422857746, 143.0796937537219 225.8125994002727 M195.68813210464717 224.10818977792027 C183.36304136187087 223.76022567118906, 171.1457478732539 224.3317913471937, 145.1455505662323 225.30788835681287 M144.71607870926363 226.22279595393658 C143.85235834508782 206.99244219089547, 146.35774303339005 185.59249197939232, 144.47960880177953 176.21804316351327 M144.36841330059943 224.56380980334427 C144.87051480692935 206.8910147076241, 145.2274808615806 187.519159400032, 145.66611666967967 175.7720915081358" stroke="rgb(0, 0, 0)" stroke-width="1" fill="none"/><text x="170" y="205" class="id" aria-label="blank entry" aria-describedby="desc-5"><title id="desc-5">Dictionary value</title></text></g><text x="125" y="205" style="" class="default" aria-hidden="true">:</text><g><path d="M50.17757615078409 251.61432447587208 L98.51471533810631 248.13853445554432 L98.6101842208441 298.93389705583155 L50.41336799923133 299.15751167320275" stroke="none" stroke-width="0" fill="none"/><path d="M49.47699739147761 251.9191973577962 C61.70566419700006 249.5912408892047, 70.75807025789595 251.88503309672933, 100.21381431870151 250.1673006444551 M50.1032873755828 249.0273892975004 C67.66095754686116 250.11031305729708, 84.65909782909273 250.4428546765279, 99.04937467588854 249.16411725476732 M101.44077225277441 251.83574001090824 C101.53551766767528 269.68934822875224, 99.7273985060854 286.9195546960683, 100.28983209073385 301.0396553510335 M100.00745749437138 249.07915675596715 C99.72968046678099 265.4590809580674, 100.19939402385907 280.3588788097157, 100.68150426376093 299.34496515194627 M101.26362595297938 300.6437193769631 C88.31708025172713 298.76766596763906, 80.4982437750567 298.7628175381605, 49.62380068458866 300.87743786961005 M99.9410629836219 300.83266004077626 C80.40738614072114 299.9225937189164, 59.43917426084769 300.9500894241523, 50.33619427783205 299.8955717661232 M48.028260875436715 301.2442447197072 C50.27434857622127 285.6182114518268, 48.505859758237115 273.30675170824344, 49.28004805171028 249.6486454201155 M49.75015389488761 299.7757929764785 C49.4357989119226 281.4371558896271, 50.68719780201977 262.22704116161344, 49.038699862440524 250.2630764278597" stroke="rgb(0, 0, 0)" stroke-width="1" fill="none"/><text x="77" y="280" class="id" aria-label="blank entry" aria-describedby="desc-6"><title id="desc-6">Dictionary key</title></text></g><g><path d="M146.81300138885584 251.8627965830754 L205.29097679571274 248.90080469102872 L205.35367357285094 301.79685896259406 L144.22006042726844 301.5627600419018" stroke="none" stroke-width="0" fill="none"/><path d="M144.25109357149185 251.5480744642615 C165.4966099856391 249.20081024722072, 185.88856471296648 251.39279205704307, 203.54380530317917 251.88390026256351 M145.2400642146139 249.17604676302784 C166.85622470401856 249.73032037674596, 188.4453743102085 250.62325087185954, 205.29178475198674 250.69982859609505 M206.88306972262373 250.8223513149338 C203.39358877486225 259.0368078529248, 202.9882813874124 271.6830355754274, 205.00646921146532 299.1240746474541 M204.99118294445535 249.94297488374042 C204.68893304910205 261.73836508914246, 204.61032984003162 274.7165352402789, 204.35231159377057 300.40992342539425 M206.50446640257806 299.00879497481463 C189.49625311194234 298.61534835141146, 175.00912611533812 302.22793399843937, 144.6101565882901 299.1297296696005 M204.27417052064519 299.4508533267308 C188.04986082907465 300.83262741036543, 172.13952120582923 299.6259567100044, 145.5404983927196 300.50252296016305 M146.05463292626374 298.7288503203666 C146.2765692272945 287.5329481420555, 144.84641788315145 273.61947544546024, 145.74396296209912 248.96867763401025 M144.3101044159369 299.1567545927746 C144.22181775788928 286.83756426029885, 145.7771018565358 274.33738720633266, 144.23641245718898 250.18252776058605" stroke="rgb(0, 0, 0)" stroke-width="1" fill="none"/><text x="175" y="280" class="id" aria-describedby="desc-7">id12<title id="desc-7">Dictionary value</title></text></g><text x="125" y="280" style="" class="default" aria-hidden="true">:</text></g></g></svg>