<svg width="250" height="375" xmlns="http://www.w3.org/2000/svg"><title>Python memory model diagram showing objects</title><style>
        :root {
        --fade-text-color: rgb(0, 0, 0);
        --hide-text-color: white;

        --highlight-value-text-color: rgb(27, 14, 139);
        --highlight-id-text-color: rgb(150, 100, 28);

        --highlight-box-fill: yellow;
        --highlight-box-line-color: rgb(0, 0, 0);

        --fade-box-fill: rgb(247, 247, 247);
        --fade-box-line-color: gray;

        --hide-box-fill: white;

        --primitive-value-color: rgb(27, 14, 139);
        --id-text-color: rgb(150, 100, 28);
        --default-font-size: 20px;

        --highlight-object-fill: rgba(255, 255, 0, 0.6);
    }

        text {
            font-family: Consolas, Courier;
            font-size: 20px;
        }
        text.default {
            fill: rgb(0, 0, 0);
            text-anchor: middle;
        }
        text.attribute {
            fill: rgb(27, 14, 139);
            text-anchor: start;
        }
        text.variable {
            fill: rgb(0, 0, 0);
            text-anchor: start;
        }
        text.id {
            cursor: auto;
            fill: rgb(150, 100, 28);
            text-anchor: middle;
        }
        text.type {
            fill: rgb(27, 14, 139);
            text-anchor: middle;
        }
        text.value {
            fill: rgb(27, 14, 139);
            text-anchor: middle;
        }
        path {
            stroke: rgb(0, 0, 0);
        }
        .highlighted path {
            fill: var(--highlight-object-fill) !important;
        }
    </style><g><title>Group of 1 objects</title><g role="graphics-object"><title>Dict id10 with 3 entries</title><desc>Entries: id1: blank, blank key: id81, blank key: id12</desc><g id="object-0"><path d="M25.937336019231836 26.874391434603304 L223.86747621663233 25.578837583725132 L226.74635433646552 324.30834679576384 L25.400209974285776 325.80360149086255" stroke="none" stroke-width="0" fill="none"/><path d="M26.473206907424334 23.99839642629472 C94.87826528620872 23.34278681204167, 165.97925217331112 23.01712014699024, 226.63638922173112 25.476745843088658 M25.878584733906642 24.732891592538824 C83.97590763546413 26.003293602966416, 142.59575784109617 26.0576006863082, 225.61549475568236 25.389916371373893 M224.5740449477296 25.92260313044865 C223.06325867340507 89.31209960855514, 223.13821453591981 151.40471967491993, 224.8019500476891 324.4668361319252 M224.675119037305 25.480393597950265 C223.17131812733197 144.73462162850748, 223.88774341628832 265.0007861023172, 224.95302929785734 324.84606224465944 M225.27805834550094 324.6077795290432 C159.65026134055753 324.92598496185605, 98.62121150884006 323.44146781966805, 24.78384107713033 326.3841140346683 M225.8744477864106 324.67564076811254 C161.32863801830996 323.9770562657387, 98.12837261397281 323.7230299958356, 25.59543704409839 325.06531584787183 M23.899318214100322 324.5132625812837 C25.003366842447253 224.34264499543045, 25.321926234693453 120.29969467003907, 25.882344474447283 25.340766246951652 M25.535986630877748 324.5590373582305 C23.600108229675246 252.529834953378, 23.596268022699697 179.05598357969674, 24.739166618846312 25.65872248156504" stroke="rgb(0, 0, 0)" stroke-width="1" fill="none"/></g><g><path d="M26.338570765400203 26.68724477824014 L84.67166964090053 24.955042354939742 L84.18976228642578 76.13751076527547 L26.363555110393225 76.63941286391245" stroke="none" stroke-width="0" fill="none"/><path d="M26.868930444875108 25.26899722740891 C46.2264288394703 24.400750417103414, 62.06969111279301 23.668965212082878, 86.7675904210625 24.997281390521184 M24.777305809975395 25.717253219848224 C43.710455188273066 25.266110860428533, 61.39668352685825 24.870439674475772, 85.10473820621988 24.827388147174528 M83.41514065772014 26.47741078359901 C83.65782742897815 42.48422955665295, 84.33136429585048 60.0056987450969, 85.49699856821795 74.76385778311395 M84.5266674007346 24.646448789301857 C85.37299696588708 42.238177710199935, 85.4030978186347 57.103418520685885, 84.80298161142966 75.32051033441184 M86.76819580395188 75.44735715467597 C62.696404906503716 75.14139117689253, 38.87619282053307 74.6247386022664, 24.095309629669828 76.46976221908791 M84.03883000990356 75.59324424528455 C63.2573948801683 75.48721274229474, 43.06918356542613 74.68675933283095, 25.742254320608016 75.36711601721609 M26.788456561289994 73.90531915607882 C24.95082305101314 59.16974085655789, 25.465994631461434 46.53905532326434, 23.29012842338701 23.097978001189784 M25.023124714799003 75.58696284256173 C25.509538227643517 62.97178892427231, 25.414801310460312 52.30685124936751, 24.896460620977404 25.97303896587356" stroke="rgb(0, 0, 0)" stroke-width="1" fill="none"/><text x="55" y="55" class="id" aria-describedby="desc-0">id10<title id="desc-0">Object id</title></text></g><g><path d="M163.86127713305518 24.660573746610336 L225.4243854404263 26.33123261549475 L223.7628233410211 74.04663117064413 L163.99134650334668 74.58010058231847" stroke="none" stroke-width="0" fill="none"/><path d="M163.484384489189 24.13129861308442 C178.23787911028262 24.876467182739255, 193.85265399744858 26.05658842098419, 223.5397069582432 23.072882460561893 M165.80111062598272 25.63906332249475 C180.59886046326076 24.858841928096165, 196.35245194246224 24.696838422679065, 224.3667324221529 24.065161165829537 M224.40896956066376 25.66903859954778 C224.92215723749064 39.636708899793675, 223.36985256697213 55.57014508659121, 226.84552362977783 76.88585152282553 M225.41581976195943 24.48356372904917 C223.90202625738618 42.65849784289991, 224.00622264863418 59.502187112154054, 224.64580717333052 74.25186908308982 M226.32915712603273 75.3519392530945 C203.27907638726134 74.32847367633971, 183.60104840981955 74.24735410609055, 166.24345541479434 73.26888299941392 M224.394062908755 74.58730389762219 C200.929596742548 75.87801303818986, 178.8112772376166 74.7353938717673, 164.53909707015538 75.19982591681459 M166.09359965342335 76.19346188321958 C164.60680697299443 58.0671261395394, 163.08297070437328 39.72643532615816, 163.31876760114287 26.246652524019744 M164.6385418748365 75.41023268683325 C164.02697699982676 62.50316316904301, 164.42109969878666 50.67327829081654, 165.81567344685965 25.62941706938387" stroke="rgb(0, 0, 0)" stroke-width="1" fill="none"/><text x="195" y="55" class="type" aria-describedby="desc-1">dict<title id="desc-1">Object type</title></text></g><g><path d="M49.07374403538111 98.08878787796519 L101.59734661723105 99.58352781608605 L98.49238186493332 151.8193533693838 L51.04098375406766 149.8900114560591" stroke="none" stroke-width="0" fill="none"/><path d="M50.157495048373704 101.41818174969019 C66.16223030398179 97.9432115280054, 81.22587700620807 99.38772028226528, 99.75517688966717 99.73825761369967 M50.45667061362334 100.94393446213817 C66.8414378978679 99.82633442788122, 84.87076742066809 100.29104287698426, 100.60092089240189 99.91490582556942 M98.89416358808771 98.93055624703749 C100.94503741846407 113.41217644631492, 99.47057096709767 128.2419558521261, 99.70137556841097 151.37002446862678 M100.96609679845339 99.7950880770218 C101.20639383489718 109.85215009117998, 99.65190143767074 122.09788001771808, 100.75004445300345 150.61415519309378 M101.51988614153612 150.60017720129815 C90.36875726898329 150.3901284097822, 79.28785201505053 151.37924108426157, 50.67805420874169 150.12283134096785 M99.03995005741449 150.13423722113353 C81.83167158535693 149.98743647301444, 63.48642028701694 149.74400663897043, 49.71730714950079 149.4544410520051 M51.037708475582335 151.68272527963776 C51.97512471942041 137.2268502478333, 49.30299131400809 125.76938238957631, 50.47905060700032 100.79230665923187 M50.02611685110165 149.98239833173412 C50.56067026497748 138.97653014039756, 50.81491837981223 128.890861688774, 50.71233766097108 100.84430971088838" stroke="rgb(0, 0, 0)" stroke-width="1" fill="none"/><text x="77" y="130" class="id" aria-describedby="desc-2">id1<title id="desc-2">Dictionary key</title></text></g><g><path d="M145.94277918732445 99.41666686776989 L194.25867591509095 98.1635718351717 L193.0431963656612 148.9253989226269 L144.7477008516457 149.59078082660997" stroke="none" stroke-width="0" fill="none"/><path d="M144.88988851244937 100.40820049989385 C158.81163766803883 99.14808390243792, 171.93889507772 101.33639927426583, 195.2595459323915 101.80477178007644 M145.16009016821715 99.46958941947344 C158.73959829126755 100.32933956556684, 172.90534710842084 100.82859837085785, 194.61317989618783 99.8258203921684 M196.86966202185735 100.11110751123452 C195.6348567631946 108.69139127850458, 197.11207793460665 118.81447301569274, 193.31295766706282 150.3579061713947 M195.56288305462402 100.53438545664773 C194.688038051904 113.34159406838384, 194.20620445756805 126.52597912490106, 194.88641952103058 150.46617326911627 M195.75555732544348 149.9933158885647 C174.6922011441238 148.46265507963528, 155.9783364760786 151.60771732297508, 146.87512208767143 148.46453438920207 M194.78159543320106 149.54675071491167 C180.13462487988818 149.69226187230674, 165.4639455364533 149.14707028364984, 145.1027090415276 149.49995291160317 M144.0138855258066 148.35028897999553 C145.5323466873921 132.60530671966413, 144.23499731920793 112.95988368014234, 145.1533106894753 100.26219152169229 M145.1006244802285 149.2104768290724 C144.70885655961928 138.549057022996, 144.2730653549163 127.59141101961042, 145.7029824957753 99.31006915664129" stroke="rgb(0, 0, 0)" stroke-width="1" fill="none"/><text x="170" y="130" class="id" aria-label="blank entry" aria-describedby="desc-3"><title id="desc-3">Dictionary value</title></text></g><text x="125" y="130" style="" class="default" aria-hidden="true">:</text><g><path d="M51.47170499259134 173.33838090274003 L101.17675352253654 175.54552339772874 L100.7443393580998 225.1618254316401 L50.77058104548796 226.21702955460728" stroke="none" stroke-width="0" fill="none"/><path d="M49.24318028769122 176.91036603445264 C66.6500939085911 174.34239951967845, 86.40799863906406 175.22063805064147, 99.60711541243391 173.60236561213097 M50.303852251412835 175.68246564890092 C69.16823063039695 175.53461201212423, 86.4223627590635 175.95498963761926, 99.0827912617936 175.19183047844461 M98.01506569256688 173.67877393366734 C101.60519241208173 192.040402238778, 97.90565082665691 211.07727949929043, 99.90820225759157 223.5768939618756 M99.16423357381942 174.29308900136527 C99.85740635462126 185.31220724279171, 99.59946998097102 197.03029018240827, 100.96040134522254 225.5983264252056 M99.8904162585148 226.36718198254263 C79.69314285812183 226.61872728189852, 60.082786312414974 226.3356390711523, 48.295767780489776 224.5128835269383 M100.34748506061818 225.44291821429866 C80.61120947926506 225.976097795786, 61.48397305620078 224.54499945790863, 50.75639189676532 225.0963545492677 M50.61961767002752 224.26887601183995 C50.70149480617235 205.96127699377487, 51.04576023080046 191.2609481982524, 49.459243353902906 175.43502014572337 M50.72760956836458 225.95744698074148 C50.468801977629425 206.6264798668933, 50.12948314448726 188.98387056676148, 49.342856344202545 175.7833250920541" stroke="rgb(0, 0, 0)" stroke-width="1" fill="none"/><text x="77" y="205" class="id" aria-label="blank entry" aria-describedby="desc-4"><title id="desc-4">Dictionary key</title></text></g><g><path d="M145.12662127534054 174.48294510252268 L203.3224486155711 173.51299496482991 L203.49630697762368 224.91644061672196 L144.53298665485494 226.24375955599905" stroke="none" stroke-width="0" fill="none"/><path d="M146.8901867188174 176.33312502719764 C159.46504016728002 174.09149395659853, 173.8476574848443 172.777580740493, 204.06183678081683 173.62932371474952 M145.80123577263387 175.29442364234424 C159.0803022850913 175.47053769786828, 174.09410897718917 174.98844761867707, 205.04381675854862 175.31166745782522 M205.20784638039765 173.6209283678223 C204.8346939920708 194.97180367606188, 204.08406491841373 215.24867299558775, 203.93414382185077 225.9803745423614 M204.3800572533247 174.32718472851337 C206.12708331544604 186.9899670801283, 205.86288578693453 200.74032825739556, 205.94339594055018 224.52154488496618 M205.65993474337296 226.0147871026126 C189.35095700951643 226.0022208703794, 170.7457847975052 223.21860508651642, 145.4672146763897 226.96247357572722 M205.74947044621814 224.10717820600834 C193.24300612280618 223.95075048152987, 178.85537924462864 224.40605928177018, 144.72539579972275 224.33089879239887 M144.3508305665445 225.0055395449007 C144.5838005628561 211.4616676570069, 145.4727631114018 194.07459805398747, 144.85546529016656 174.54327700050362 M145.40169890634803 225.75723817433763 C145.22695167649 205.68345529599048, 144.5853242697499 186.58788180333573, 144.19414978847936 175.24466485029703" stroke="rgb(0, 0, 0)" stroke-width="1" fill="none"/><text x="175" y="205" class="id" aria-describedby="desc-5">id81<title id="desc-5">Dictionary value</title></text></g><text x="125" y="205" style="" class="default" aria-hidden="true">:</text><g><path d="M50.70337603122677 251.44378159036896 L99.93691064898003 248.848436150439 L99.21111488383264 300.3125643428584 L50.182596359723036 299.3503271523325" stroke="none" stroke-width="0" fill="none"/><path d="M51.37999788735101 249.9963849998625 C66.74481574521933 249.24219350489878, 84.11625209422355 250.6783982177315, 100.29833549323206 248.91347172677732 M49.13945143611927 249.09777170549864 C66.81447760798808 249.51220539053483, 84.39196954972768 249.69409060575398, 99.73811172618908 249.14815021537333 M100.24690043009376 249.71931735555978 C97.97701988544614 269.36300561306047, 100.79427450690777 284.6365319120754, 101.88298436872428 301.0019896606355 M99.95492665553851 250.12427395833805 C99.7162764244153 265.0894665797194, 100.66938650470595 278.517097616045, 100.35435469724757 299.6551934703984 M98.46337677175396 300.1604479620473 C90.09287077285732 300.1041034322337, 81.39970397516963 298.4401929349919, 50.39513653369712 301.6085502368882 M100.85223772121756 300.4151233652565 C84.79957079751902 300.0527710602377, 69.05699612754826 299.5782693343761, 49.78739966503311 300.81551735004405 M51.614048872952715 300.1503224601336 C48.1843251921727 288.7832441081149, 50.90610112272387 273.454970929083, 51.42248494292401 250.5921064290671 M50.74388128190788 299.9824625650571 C50.17485752650217 281.6753628092487, 49.88671207211933 262.51789999318964, 50.71965696485382 249.01772539625443" stroke="rgb(0, 0, 0)" stroke-width="1" fill="none"/><text x="77" y="280" class="id" aria-label="blank entry" aria-describedby="desc-6"><title id="desc-6">Dictionary key</title></text></g><g><path d="M143.63794670426273 251.9716013697166 L206.6489044418369 249.36385309859375 L203.0856207529171 298.5618264410245 L143.9888849738622 299.0956117410941" stroke="none" stroke-width="0" fill="none"/><path d="M143.1006401851171 250.48073681639588 C162.6108631638638 249.80937143063113, 178.81702204192246 248.63213217195585, 206.57168589057065 248.25843753769252 M145.9183065770856 250.5813410975103 C165.55511291139578 249.91345661853288, 186.51020026144545 249.27800547637673, 204.21943071990938 249.51357942902638 M204.46586352195277 248.37356773308878 C206.8202606528641 260.14870309540754, 206.86243049542097 274.3870146779946, 203.260872542448 301.7509328417489 M205.83691380384903 250.66209764209842 C206.39665994885982 261.8197604185383, 204.67663015288915 276.2109356813568, 204.0466734950263 299.83821574217734 M206.78358089267772 301.47407758998514 C188.6922252659347 298.96156352225194, 171.68563314729178 301.07269226007327, 146.59535000114957 301.3342583592332 M205.6825336076728 300.4532454066913 C186.426878589186 299.9248704857265, 167.57119597873339 299.16893533474587, 144.6520527775672 299.53601620821365 M146.86871055611957 301.2740959924785 C145.86889998198268 282.5335491997427, 143.8094200840814 265.5743627849006, 145.3151594806965 251.95847450091952 M144.05681789548345 299.7765687976949 C145.2688317316108 286.0721608625517, 144.25803955868327 270.1340991890214, 144.09154491762573 249.18406372894046" stroke="rgb(0, 0, 0)" stroke-width="1" fill="none"/><text x="175" y="280" class="id" aria-describedby="desc-7">id12<title id="desc-7">Dictionary value</title></text></g><text x="125" y="280" style="" class="default" aria-hidden="true">:</text></g></g></svg>