<svg width="275" height="375" xmlns="http://www.w3.org/2000/svg"><title>Python memory model diagram showing objects</title><style>
        :root {
        --fade-text-color: rgb(0, 0, 0);
        --hide-text-color: white;

        --highlight-value-text-color: rgb(27, 14, 139);
        --highlight-id-text-color: rgb(150, 100, 28);

        --highlight-box-fill: yellow;
        --highlight-box-line-color: rgb(0, 0, 0);

        --fade-box-fill: rgb(247, 247, 247);
        --fade-box-line-color: gray;

        --hide-box-fill: white;

        --primitive-value-color: rgb(27, 14, 139);
        --id-text-color: rgb(150, 100, 28);
        --default-font-size: 20px;

        --highlight-object-fill: rgba(255, 255, 0, 0.6);
    }

        text {
            font-family: Consolas, Courier;
            font-size: 20px;
        }
        text.default {
            fill: rgb(0, 0, 0);
            text-anchor: middle;
        }
        text.attribute {
            fill: rgb(27, 14, 139);
            text-anchor: start;
        }
        text.variable {
            fill: rgb(0, 0, 0);
            text-anchor: start;
        }
        text.id {
            cursor: auto;
            fill: rgb(150, 100, 28);
            text-anchor: middle;
        }
        text.type {
            fill: rgb(27, 14, 139);
            text-anchor: middle;
        }
        text.value {
            fill: rgb(27, 14, 139);
            text-anchor: middle;
        }
        path {
            stroke: rgb(0, 0, 0);
        }
        .highlighted path {
            fill: var(--highlight-object-fill) !important;
        }
    </style><g role="graphics-object"><title>Dict id10 with 3 entries</title><desc>Entries: blank key: id81, id1: blank, blank key: id12</desc><g id="object-0"><path d="M48.18356262434319 23.918788377336934 L248.47110089534942 26.25545928757157 L248.55229708022145 325.5412227243849 L50.65001113784257 326.1319431127879" stroke="none" stroke-width="0" fill="none"/><path d="M50.62110229361834 25.149549414611823 C118.83817206048286 26.930538529803837, 188.55231250607017 26.523138115717177, 248.8018735439904 24.38736243064205 M49.18227920182302 24.417835299027473 C93.53375233035241 25.05008843988089, 136.51728229495964 24.8892481018649, 250.70209646280483 24.459293438612832 M250.46783350533448 26.356852155564265 C252.11954030693224 114.46903513232904, 250.56568757914167 204.8342509197631, 250.37823797034434 325.08070884819944 M250.34090523229688 25.525994719563567 C248.27426880625788 87.77112835238812, 248.45419684898448 150.94190780272388, 250.46152281252185 324.32467449536455 M250.2421951411012 326.72578381179113 C197.90776275182162 326.16021663732914, 143.23800671993357 326.91055538626654, 48.30307374188932 326.7048370438049 M249.15683642364056 324.845915141451 C197.70416560338606 324.89328687997187, 146.54740378123898 326.0638909725522, 49.85973423813705 325.5051249441648 M49.0210519051687 324.34298889427237 C47.657251687119064 263.96016735155894, 48.34636783209301 204.22836070200935, 49.35308100013479 24.698595922220512 M49.837846295270616 324.6497200801108 C50.098162219233515 211.15952088721036, 49.26762323617309 98.21722695485344, 49.82429574061958 25.477667443912708" stroke="rgb(0, 0, 0)" stroke-width="1" fill="none"/></g><g><path d="M48.164014448606004 24.70406905344663 L109.83040050106668 24.41056645368039 L109.68627942458191 74.3199302662623 L49.26150724135491 74.84327909581403" stroke="none" stroke-width="0" fill="none"/><path d="M48.489800649477495 25.565178593093872 C68.43826503800024 23.552716934235043, 85.21065296088415 24.872870603527794, 110.33125875205751 25.016300924801012 M50.49367025970775 25.809345399915514 C66.66397883466192 24.764703622845914, 84.65967992280807 24.712647971885232, 109.05373988089046 25.218298252204214 M108.25534988072857 25.672234971815023 C109.8005130046083 37.04793875863121, 110.96779315279086 50.33984742326923, 110.1315167351258 73.99257295777772 M110.80502496152545 24.159234304273745 C109.31584268946682 38.10941737818949, 108.96002076305513 51.81996044468403, 110.81363211544584 74.9055700543039 M109.38471503979325 73.76314064485847 C93.23155155481074 74.15863095439529, 80.36404456439814 76.76597516776033, 51.33190579830223 75.39300710583989 M110.41223975260374 74.7804852922098 C97.1600485256393 74.61011429389441, 83.65394408578017 74.41646923463279, 50.54105400600317 74.13056577713056 M51.97611380323299 76.35886383356413 C51.636976691558914 63.62234690158144, 50.14728150752822 48.58767957579703, 50.738821855881035 25.29714856670226 M49.05325613720281 74.13378040426821 C50.34031866086894 56.648674276490844, 49.740030245329514 35.790528577909974, 50.04102233762312 25.419117475542485" stroke="rgb(0, 0, 0)" stroke-width="1" fill="none"/><text x="80" y="55" class="id" aria-label="id: id10">id10</text></g><g><path d="M190.88667650725944 26.234389929884347 L250.23498438431625 24.707204426254606 L251.18991860454108 76.75030437369315 L190.4836614780874 73.20693702215023" stroke="none" stroke-width="0" fill="none"/><path d="M191.73566998813396 25.685034808060973 C211.99880949861964 26.747824999606095, 235.50236626335882 25.849859668916352, 249.90527517798577 24.53561911165534 M190.23002030871223 25.170504184193412 C204.77451088901287 25.304910281487146, 220.98187709318267 25.788867586324276, 249.7610501914676 25.445190204943128 M249.1924850104801 25.854892893852053 C250.9829597459636 44.08410493821329, 251.96840461901337 61.227791009278135, 248.36016541020265 73.88266150124899 M250.33703245008982 24.100171202040492 C251.34296164635134 45.0705310150292, 251.12523289169053 65.70584652605375, 250.92866939479228 74.26075010318661 M251.0236838354028 74.52520444421842 C233.84008740800226 74.59657839328717, 216.5651899073297 73.44125878241019, 190.3404732733269 74.49748945088574 M250.97003047776408 75.48194121946972 C234.63827650898273 74.62558609906857, 218.2592696063574 75.08249699939938, 190.45318012378394 74.03948990830933 M188.794600870878 75.01219096443712 C190.30194543785433 65.93206950729983, 192.42762860101345 51.83056876011021, 190.1902424127666 24.428832950565724 M189.79546973547355 74.65756732811413 C190.24980440074583 65.20191387521925, 190.30133641471863 54.762744299910004, 190.8238003226959 24.44398859534644" stroke="rgb(0, 0, 0)" stroke-width="1" fill="none"/><text x="220" y="55" class="type" aria-label="type: dict">dict</text></g><g><path d="M74.72631053911816 100.179649482864 L125.51253856306458 100.81780749539709 L125.30386139436379 149.24975367052977 L75.49348128421744 148.26775396111992" stroke="none" stroke-width="0" fill="none"/><path d="M75.01031833496609 99.05083584606226 C91.21564979970202 98.94677693739789, 107.6772581432758 101.37758301801999, 124.63723486175687 101.92469809300461 M74.42609805205711 99.78241872515608 C87.28314082704976 99.8883020783083, 100.04822377875266 98.88087625807889, 125.25384534059212 100.96490128653862 M126.64749082052246 98.7789119983589 C125.24703825498587 111.37601267987858, 126.36594716772635 126.51981568800294, 126.66274393120509 149.3192828468129 M125.88951957106414 99.88724935090886 C125.65160915959713 119.04411498768486, 124.51549010061619 138.04615895730987, 124.93099022739263 150.93370312938364 M126.73659365579319 151.71754180717943 C112.283160003821 147.88145121789503, 96.22071242826064 151.0156185795287, 75.91681136737856 151.91622236622254 M124.71688398732215 149.87297592066042 C106.69198865163743 150.39874657735442, 89.64492840137218 150.8114037679236, 75.61044540637614 150.3896445042537 M73.6945941166009 150.8386319609795 C73.66088954563924 136.38111459167465, 73.86841659687155 121.69098539707748, 75.12458702766229 99.64454684160019 M75.24802881268968 150.7227102137099 C75.2064890142827 137.34654425358397, 74.7124278320556 123.89959510421292, 74.68176145429489 100.25537922746093" stroke="rgb(0, 0, 0)" stroke-width="1" fill="none"/><text x="102" y="130" class="id" aria-label="key: "></text></g><g><path d="M168.46711096459188 100.19674402124197 L229.22932952618646 99.63904460307356 L228.42076026769706 149.62962918402826 L168.849548468318 148.29691376738143" stroke="none" stroke-width="0" fill="none"/><path d="M168.2194419373398 98.36903098904578 C184.71966978199256 101.68518957747945, 202.94155125294867 99.63864423413932, 230.96884556398425 100.8740273946194 M170.92143398126777 100.66613880319647 C187.40734016369382 100.78065074949988, 206.35061124235278 100.02996145482392, 230.67630081576158 99.36627495158929 M229.05241686679634 100.13940303919733 C229.90489585954427 117.86387908463594, 232.3611173007099 131.92743793916094, 229.7977146313123 148.96163419148704 M229.21280244945436 99.75245469441063 C230.21036082608595 119.60860619734567, 230.72344030300516 138.03923764198973, 229.49363818511736 149.42226029386185 M231.82569466810546 148.91681327084171 C214.98931209561962 150.24678214807184, 197.18666714589733 149.48523183761242, 171.21233363339104 149.62967212249197 M229.84107742727838 149.83032845125382 C210.26671786513054 150.8770138160231, 192.02814800211132 150.65408565087768, 169.95510433915223 150.89193967335504 M171.68432093751096 150.70151277738384 C169.77337416453776 135.98239538411164, 169.90349931383506 123.45739097464731, 169.9188187594091 98.8687809816764 M169.75564191976352 150.15127527722026 C168.76347428785311 130.90435732983076, 170.01903177644954 111.91101616248108, 169.2742606210319 100.12058333096203" stroke="rgb(0, 0, 0)" stroke-width="1" fill="none"/><text x="200" y="130" class="id" aria-label="value: id81">id81</text></g><text x="150" y="130" style="" class="default" aria-hidden="true" aria-label=":">:</text><g><path d="M74.1155512154567 174.334210851301 L124.92964096642166 173.3745137339326 L123.94444957555146 224.3983585591738 L73.54420913728997 225.682587057391" stroke="none" stroke-width="0" fill="none"/><path d="M76.56857495566769 173.19376192790864 C85.84472827479944 176.59583980459516, 96.17603768910308 174.76147379055573, 126.06939529088673 175.56598372792428 M75.05464284209958 174.03014273880888 C87.30754060634247 175.36210403906094, 98.5881613473501 174.59895213781047, 124.4857682699322 175.63825484967498 M126.3891730397892 176.301889546675 C124.38775828900518 192.6059529811997, 125.42988146812264 207.31356214871545, 126.79696140091116 226.06134009820263 M125.93051030535541 174.7934696209851 C125.7432439311253 187.04335467711067, 124.4751745033186 200.7870729368881, 124.86983626848166 224.59482403339868 M124.88651082291973 223.1048745384555 C113.99413311133577 226.7773982824377, 104.55640380682833 224.55277860518376, 73.32857171401545 226.1816299092384 M125.655642820715 224.78145373330747 C105.5252141156943 224.6670562575811, 88.46419490532836 225.20076039528772, 75.69093224312071 224.74370557760025 M75.33844352590994 226.01768601098198 C75.98555566196151 205.77105276559053, 73.98350767089897 185.6722797657366, 73.12095375977661 174.78703557206867 M74.21938029922072 224.4959486565565 C75.45888497137494 213.45365209440786, 74.31124588100111 202.32647516546425, 75.68380728065559 175.80124261924325" stroke="rgb(0, 0, 0)" stroke-width="1" fill="none"/><text x="102" y="205" class="id" aria-label="key: id1">id1</text></g><g><path d="M168.48004659044696 174.0331207230603 L220.73558948134067 175.82613341849662 L221.23781816094467 225.431596220415 L170.49163665589003 224.45438020301796" stroke="none" stroke-width="0" fill="none"/><path d="M168.35751207903957 175.95559041157642 C185.4668558726189 175.44934842946228, 201.6433164076016 172.87872339681942, 221.5543859779779 176.6462112015512 M169.01193502288692 175.64056360551953 C182.09509722418042 174.821517718409, 195.63068800003848 175.70717515303087, 220.41335024025156 174.6429763055266 M221.50290690049457 173.8261460355748 C220.74815083990617 189.98262938423377, 221.68808903780456 200.76976474976217, 220.1206013441935 224.46874468884653 M219.97652894631358 174.00875243660465 C219.50704977146617 193.32135855866926, 219.50441120874007 212.4274897079396, 219.60327340534096 225.6372105344758 M221.10582489289317 225.85302899280015 C203.41197785967282 224.45742938506572, 188.54908230119176 225.27551884783733, 168.90360860086213 224.7122158484898 M219.2030189664949 225.10357995705738 C201.0499189165246 223.83187464021472, 182.66638130892267 224.22521962143767, 169.32939499038582 225.3188454577584 M169.5574758962225 226.93724173661818 C171.31536986632722 204.33995714652207, 171.52068034133737 185.93247200262644, 170.6037441015004 175.7203818643463 M169.69226555685808 224.6338639822348 C170.1734034465714 211.88832425131855, 170.6285760680676 196.7073221647679, 170.68767412035027 174.8470515038711" stroke="rgb(0, 0, 0)" stroke-width="1" fill="none"/><text x="195" y="205" class="id" aria-label="value: "></text></g><text x="150" y="205" style="" class="default" aria-hidden="true" aria-label=":">:</text><g><path d="M75.12819359616017 250.46434521346262 L124.03966204643343 248.37704171076695 L123.25825371255425 301.77205418387234 L76.35007868621096 299.08627242323956" stroke="none" stroke-width="0" fill="none"/><path d="M76.9421519599134 248.70931004986488 C87.63428294201712 249.74929927177286, 95.63439311155976 250.9140628398297, 124.99122662798263 250.79407472954586 M74.90587183962253 250.13753299140976 C95.19813939519516 248.87924903073935, 113.93048730648562 250.04630201621336, 124.00323663617621 250.80342037520646 M123.5660739011246 250.53743117006474 C124.13319321334764 269.8896285066553, 125.00904126559578 289.2588229056515, 125.98650089869852 301.41372312672974 M124.83666037834578 250.56434499116142 C125.4741151535643 267.3301114332275, 124.50056911391249 282.71287784319065, 124.60429246382658 300.46744505524117 M124.18150926744683 301.41509727947306 C115.31613077059411 298.9396436207276, 103.65053312735229 298.1680729996995, 76.22979765204737 300.34245506600365 M124.51276227135071 299.38930049586054 C107.14349702935988 299.5138686935629, 88.43249353120316 299.4980221464102, 75.30389120522798 299.6860887766256 M73.57897632883508 299.03412081161076 C73.42076902949312 284.66358964002757, 75.42917109808393 273.4177310422071, 74.18693974177985 250.02534636418707 M74.34062756325815 300.63931196125685 C74.11992890400602 285.6476871872422, 75.00770011954299 269.8476471266159, 75.1829151423716 249.8417967370902" stroke="rgb(0, 0, 0)" stroke-width="1" fill="none"/><text x="102" y="280" class="id" aria-label="key: "></text></g><g><path d="M171.39687604089764 249.78777944732803 L230.55145312897932 250.3982712186177 L230.4687536437293 300.8409794321038 L170.51832177302774 301.6960482456685" stroke="none" stroke-width="0" fill="none"/><path d="M168.85207260756343 249.06587335359825 C188.2033775719628 249.18795418021682, 204.8603502349982 250.05674347831274, 231.48837856024952 249.1964182667293 M170.49313838645224 249.15652916763088 C186.7966134891935 250.74205351285153, 202.07873931964286 249.54381738189184, 230.04876731164788 249.44292893854632 M229.0647370872955 248.17789035046496 C230.64443497468926 259.8666173137183, 231.24448133112773 273.01495812823674, 228.83664524059353 298.9793857504439 M230.73159503431896 249.9909535456508 C230.4758217823356 266.968983110442, 229.5044855269276 284.6782850584476, 229.51910097431 299.53140903111944 M229.15445696033962 299.92037091388187 C206.7690748750637 299.50330447089584, 186.044928796222 301.99827987250194, 170.59841342730928 299.98075444824684 M229.55948259135675 299.30401721035213 C217.32381322031756 301.4341354053271, 204.16245739280842 300.6776201036723, 169.3207819125484 300.7162572784465 M168.79514956542815 300.61633006422 C168.08056578933292 288.6552293156992, 169.91663989630177 278.38669527649853, 169.34053184503682 249.5120096155031 M170.28674659120298 299.497013919736 C170.055311786238 281.53769435704265, 170.06894804908583 264.23819470950167, 169.36114706593975 250.16684563948382" stroke="rgb(0, 0, 0)" stroke-width="1" fill="none"/><text x="200" y="280" class="id" aria-label="value: id12">id12</text></g><text x="150" y="280" style="" class="default" aria-hidden="true" aria-label=":">:</text></g></svg>