<svg width="275" height="375" xmlns="http://www.w3.org/2000/svg"><title>Python memory model diagram showing objects</title><style>
        :root {
        --fade-text-color: rgb(0, 0, 0);
        --hide-text-color: white;

        --highlight-value-text-color: rgb(27, 14, 139);
        --highlight-id-text-color: rgb(150, 100, 28);

        --highlight-box-fill: yellow;
        --highlight-box-line-color: rgb(0, 0, 0);

        --fade-box-fill: rgb(247, 247, 247);
        --fade-box-line-color: gray;

        --hide-box-fill: white;

        --primitive-value-color: rgb(27, 14, 139);
        --id-text-color: rgb(150, 100, 28);
        --default-font-size: 20px;

        --highlight-object-fill: rgba(255, 255, 0, 0.6);
    }

        text {
            font-family: Consolas, Courier;
            font-size: 20px;
        }
        text.default {
            fill: rgb(0, 0, 0);
            text-anchor: middle;
        }
        text.attribute {
            fill: rgb(27, 14, 139);
            text-anchor: start;
        }
        text.variable {
            fill: rgb(0, 0, 0);
            text-anchor: start;
        }
        text.id {
            cursor: auto;
            fill: rgb(150, 100, 28);
            text-anchor: middle;
        }
        text.type {
            fill: rgb(27, 14, 139);
            text-anchor: middle;
        }
        text.value {
            fill: rgb(27, 14, 139);
            text-anchor: middle;
        }
        path {
            stroke: rgb(0, 0, 0);
        }
        .highlighted path {
            fill: var(--highlight-object-fill) !important;
        }
    </style><g role="graphics-object"><title>Dict id10 with 3 entries</title><desc>Entries: id1: null, blank key: id81, blank key: id12</desc><g id="object-0"><path d="M48.617315323935 26.852811367464728 L248.3540877248113 25.91230170870037 L249.66389120875917 323.7321901298295 L48.01971400881207 325.1989424883333" stroke="none" stroke-width="0" fill="none"/><path d="M51.651684256122486 26.22413968954344 C119.39869688085214 24.72262625145548, 190.48066110323202 25.22614147997393, 249.58762518002345 23.29315112898587 M50.11044402983226 24.139125504093233 C108.71713576497744 23.79857550208241, 167.3140626687842 25.10918851809151, 250.70640706576498 24.297645489270376 M250.94824167332322 25.149041079844793 C250.45168702321877 118.49306930808642, 250.70564038166737 213.97080186965474, 250.3243663388763 323.6713995548798 M249.90134121048473 24.45163145228423 C251.3581572940915 104.90541134834416, 251.47313646962522 185.37436711797864, 250.3360713825466 325.6744007156738 M250.90930793241495 326.4210619108282 C197.1158777248881 327.3505019102773, 141.55641588047192 324.3952459956925, 51.04804156750867 324.0681244909842 M249.2382651064298 324.369565891194 C187.35650492735002 323.4429398917144, 123.76943851796938 323.03446729257996, 50.89855654280663 325.53615911227405 M48.63794191095646 325.8900552809973 C46.83452277346476 244.77621629980243, 48.606903541135466 167.8410809685946, 50.370318368853745 25.27617231320063 M49.55589204228855 324.81392948103667 C52.10892880627776 236.86833633607392, 51.733813148915246 149.79287671348445, 50.68161439965108 25.37549742849685" stroke="rgb(0, 0, 0)" stroke-width="1" fill="none"/></g><g><path d="M76.40749278811563 101.46757895087248 L126.43317740458322 99.66230460296208 L126.6586405560187 149.8919529790408 L76.84558839569752 151.79723333577766" stroke="none" stroke-width="0" fill="none"/><path d="M73.8694276927524 101.55671563233766 C89.20468123416688 100.71560985627613, 103.88553505017398 99.9772237576128, 124.35762104651114 100.68969034795799 M75.22817880804735 100.0591204511927 C92.72666511580344 99.91632854989678, 108.05587949023779 101.03437496287188, 125.96721746039447 99.70380908774322 M124.55965345926782 98.15931836907922 C123.15533323568889 117.11787740352781, 124.0609660636038 135.57308749085882, 124.34307363836867 151.26658357390124 M124.13113497813437 100.04981263904818 C124.55725554834517 115.02864686278123, 124.46524171203792 127.49012994309123, 125.14601894321207 150.06200986216126 M123.38632735065654 150.57109701068316 C106.23870021932738 148.8563857201773, 85.9487190143287 150.15329879330102, 76.68711816148415 149.43788587744936 M124.1944294806934 150.22164012647676 C112.14206461102056 149.71529367953187, 99.78858093240235 150.86802618048657, 75.35090108395443 149.0724197041626 M76.54316138192151 148.23222494905502 C75.2243734333162 134.7139913260909, 75.10451637824204 115.0266853013163, 73.70693521355197 101.69019357518685 M75.40497251029544 150.4740120417703 C74.64396753237813 131.37209650249252, 75.05770624321262 114.22941182871607, 75.35106203995844 99.2983856348742" stroke="rgb(0, 0, 0)" stroke-width="1" fill="none"/></g><text x="102" y="130" class="id">id1</text><g><path d="M74.618947343384 174.55031489342227 L124.72049113124405 176.40880815508132 L124.81600320348164 224.74661910877515 L74.75366421752537 224.01619213631665" stroke="none" stroke-width="0" fill="none"/><path d="M73.01210482353542 176.0581145807451 C95.0736393391452 174.70834374688775, 113.65955686699888 172.66597950913902, 126.74723436894512 174.6045730293426 M74.70303419861499 175.0482043720065 C86.40650533111288 174.78049400280187, 97.55079095200193 174.51278056466643, 124.27378205970525 175.2044321794722 M124.57667909111406 176.94589410227593 C125.52364869226058 189.4845724236486, 127.42604661591814 203.1993668284136, 125.0462339523714 223.09314410744412 M124.31179773543235 174.73647578108634 C125.06136724481826 192.5463843525163, 125.6022655101166 208.12212088604804, 124.06354154466123 225.40784309174308 M126.35244379612783 225.6944704844944 C112.41922953409032 226.49428328000042, 95.62835638028167 225.14631226834516, 74.89783853756242 223.29285526087088 M125.33139206262634 225.04501476591835 C109.56248942512626 224.2721696580957, 93.34490186284927 224.22011368614977, 75.5837367240424 225.80747510801126 M76.66759883458252 223.0917774617095 C74.94959465659234 209.58645751445266, 75.09506949185557 193.57276909242148, 73.27047351562285 175.26748228434755 M75.98364996273276 224.63874886402704 C75.03148809171834 210.7600819359998, 75.72351217394633 195.2526545083404, 74.38453798279922 175.98525248553133" stroke="rgb(0, 0, 0)" stroke-width="1" fill="none"/></g><text x="102" y="205" class="id"></text><g><path d="M76.56776159298802 248.5690412825601 L123.7896456470841 250.0483353546972 L123.56594828823492 298.48835216543307 L75.79467608339255 298.97871474032416" stroke="none" stroke-width="0" fill="none"/><path d="M74.40608460725385 250.11719166587855 C87.71747984301837 250.6382979215072, 104.71401123441169 249.8074859992394, 124.34090987589406 249.94702781206053 M75.20677809938167 250.9306758659411 C85.66368428645309 249.49190860537385, 95.80863360726407 249.53586566954147, 124.09284738501296 249.96196604716988 M124.59697007858406 250.77240845139312 C126.11240913525468 265.2362808511986, 125.59036989578955 278.66994216590246, 125.93989370196071 299.82688518780157 M125.5299587124479 249.9510029950889 C124.07356228486081 265.05655104645393, 125.37258822531362 278.85524844159806, 124.11126359370431 300.863692378973 M123.59454861419418 301.2500036488929 C110.76587121209498 298.35139666451545, 96.12475641773635 300.74317268288064, 76.24708789166415 301.30257828509525 M124.67293296846158 299.88634331554937 C109.2524285770221 299.4134467307859, 92.52659415603465 299.0022617360456, 74.9859382821054 299.7508435500175 M76.40079404497536 301.0386021658625 C76.30366897908982 288.0444708681565, 74.7733166864119 272.81900047067563, 74.13767874273724 250.5296237546984 M74.3820132943261 299.8136477032578 C75.05692305588194 282.0357974410152, 75.52797669870913 263.0971255557072, 74.81273951592647 250.62818717516052" stroke="rgb(0, 0, 0)" stroke-width="1" fill="none"/></g><text x="102" y="280" class="id"></text><g><path d="M170.834076395933 100.60559350936424 L218.88507803348048 101.57115816123044 L218.04194253409165 151.53738022647275 L170.82099358038997 151.92474969802728" stroke="none" stroke-width="0" fill="none"/><path d="M170.30845790020587 99.03502872919354 C187.18509111182632 99.37410513969027, 209.082263970054 101.96123386876558, 221.46411790308986 98.90287544191202 M169.54985555479047 99.60527858182273 C188.34906925676296 101.02184056803272, 207.41215003564037 100.5606994796362, 219.6982704009611 100.15798746066127 M221.71039028381603 99.52349944474753 C220.99674745395242 114.03725086863601, 222.096330067039 128.3884987867746, 221.0390639518087 148.65634860839526 M220.7792405408786 100.41294898325104 C220.83216706488477 114.2245320641879, 219.41088708219635 126.84099340848411, 219.26941014500528 149.01668098818556 M218.35740124184426 148.63979629724489 C208.5300095019933 149.06920607639998, 198.0585662497791 150.55918223856816, 168.40659854729566 148.57253671901546 M219.86762876010252 150.7617780416691 C203.145938992614 150.06539881533567, 184.93593541741112 149.74688237780381, 169.57327599904184 149.2934816192751 M168.90972317739818 151.37625243012823 C170.83060282716357 136.40330447938004, 169.5732719988902 123.24545916211605, 170.04867845292057 98.95297398379988 M169.5421842765871 149.51803560147437 C170.7782611966633 137.18433538333062, 169.9045542359145 123.32341993399626, 170.98592769958694 100.37548793281579" stroke="rgb(0, 0, 0)" stroke-width="1" fill="none"/></g><text x="150" y="130" style="" class="default">:</text><text x="195" y="130" class="id"></text><g><path d="M169.9557093336127 173.28026770946911 L229.0096455446587 176.2700746063574 L230.00265220178574 224.36677790825303 L171.3201737463237 224.2149180449016" stroke="none" stroke-width="0" fill="none"/><path d="M171.20655228016705 175.26409785254015 C192.2182416334497 176.92754324036574, 215.96966353363038 175.29206056686832, 230.7032170593603 175.12189830357605 M170.62908683328345 175.29343832684748 C185.11001616035955 174.1202134295617, 201.40514298815148 174.3834174047672, 230.7812278177548 175.63063795358198 M229.3663426260711 173.39825628503738 C231.9681278904705 194.65966436975089, 229.7261466933128 211.71409140132621, 229.6566095263763 225.65421214352526 M229.85994308394783 174.02988360584447 C230.3566966022663 188.4081303466035, 229.13711887077528 203.22456487704088, 229.07775652313885 224.07525761776392 M229.78447494781614 223.1113916244998 C214.9795533766956 225.60124168989884, 197.6900883596524 224.73948767048134, 169.00018211351951 223.23117314226099 M229.66371612158173 225.8712082765172 C212.45788296779142 226.23917519437654, 194.9306466875522 224.78458064811116, 169.22639115075364 225.6772010029545 M171.46194521244556 225.5674071430149 C170.0056077972284 206.14865474995213, 170.916036960877 186.52116642399477, 169.1971533929786 176.59817531951202 M169.30184339062222 225.28517704932852 C169.97630071713382 210.96153058716345, 169.7348684607248 195.97281252044087, 169.63030175007682 175.12538668930412" stroke="rgb(0, 0, 0)" stroke-width="1" fill="none"/></g><text x="150" y="205" style="" class="default">:</text><text x="200" y="205" class="id">id81</text><g><path d="M168.86050607835548 250.6506152989968 L228.49301696054312 249.20297287931237 L230.95788713962412 300.78400099951926 L171.5002956081282 298.33686889643053" stroke="none" stroke-width="0" fill="none"/><path d="M170.3981136834479 249.14750851072031 C186.32641119663427 250.10577080146146, 198.51400673611758 248.52983614014664, 230.38616257178913 251.35469451489382 M170.19958978424293 249.4865484790593 C188.62467063993665 250.0582693161987, 207.68425387054378 250.51223705312887, 230.1255179136442 250.95221346176362 M229.83747091888742 250.63463685122426 C228.76703797946504 265.31173767701205, 231.34253247591383 279.06181023073486, 231.75018190105604 299.8193334885912 M230.77773899019783 250.05662123519957 C230.0768827880809 267.2008424619854, 230.8750431178542 283.57824995629454, 230.377555483802 299.72538033100574 M231.08646624310805 301.3438358674005 C209.66810966824497 300.40033442936897, 189.44463006178947 299.0567671213111, 171.165846533369 298.06656057976653 M229.59896722038303 300.2101529103478 C206.10753951971915 301.3064164987041, 184.1551215892327 299.93115633742553, 169.37465765439583 300.47738686759965 M170.13651477904855 298.71996545234373 C169.7437800942481 286.8482439213025, 171.55390543461712 273.65966249133646, 168.01509322641732 249.2139003141311 M169.8323273900641 299.34507468287563 C171.1620635826199 289.5176187721601, 169.70455940939146 277.86854725748526, 170.112196730162 250.39354245028488" stroke="rgb(0, 0, 0)" stroke-width="1" fill="none"/></g><text x="150" y="280" style="" class="default">:</text><text x="200" y="280" class="id">id12</text><g><path d="M48.26283803211889 24.390277047655115 L108.00533451232583 23.137510926244346 L109.26605145934005 75.65190646136031 L48.02878521646041 73.86081343790684" stroke="none" stroke-width="0" fill="none"/><path d="M50.50532516739732 25.136578277297026 C72.665460874443 25.769545563950302, 92.08219447273952 27.07980607233224, 111.52281441545792 25.257700687416403 M50.74751479966412 24.99698961679671 C69.69086201682988 25.01672730866148, 90.0900741888878 24.614808946879965, 110.15517628291778 24.420010027270088 M108.38226448884465 23.390614224610182 C109.26062248947314 35.22695036697934, 108.35776031337963 49.46422167219225, 109.34280094130472 76.63556726212236 M110.83685787426792 25.13209995525052 C110.35146618091645 38.94948955511285, 110.80098695147277 51.76669618941726, 109.51328500011194 74.11153090313708 M108.65941541720697 73.11767083528238 C87.74696204411362 74.87778275518768, 64.85370260047192 75.0259672718255, 48.73887977284633 73.45045676478894 M109.3798329991655 74.50535840042296 C96.11910490120277 75.74919761000469, 82.60810881323746 75.45444969266755, 49.01928912906251 75.38700584334215 M49.889420117404 75.51860880426212 C48.51095609676876 60.48650491458574, 50.013689767426484 44.86849099178396, 48.55782491772712 23.39085298863757 M49.63105002508815 75.47037850835679 C49.880714278489506 61.806385638264196, 49.39235855331647 49.99350722166816, 49.72243416521674 24.020807184472297" stroke="rgb(0, 0, 0)" stroke-width="1" fill="none"/></g><g><path d="M191.49726153776825 26.9077235690769 L249.13314458226083 25.230990522231917 L251.06137133692476 74.26220327221998 L191.4737960351092 76.18916094779108" stroke="none" stroke-width="0" fill="none"/><path d="M191.55961996739916 26.405490121062865 C211.38357347551658 23.24056407439074, 227.23853165080547 25.720545769309222, 251.99670566791815 25.975748482483706 M189.645383707636 24.440603918718928 C202.84306557918254 24.155235412738584, 215.48152055928227 24.901632059660876, 250.67831833212995 25.50077333303689 M248.7698726063449 23.214231820632683 C249.28606594214045 42.94177399271152, 248.8318908816041 62.83918803418317, 248.2341801936058 75.71180815700605 M249.71466566824415 24.266964287922438 C249.38322990353223 44.895354138077785, 249.76480795388917 64.45078522204676, 249.60886739486162 74.99198221130688 M248.8009436747949 75.86517106292627 C232.291862695419 76.22011060892176, 209.4696217948931 75.87916824536272, 189.97226131505997 76.79489381829438 M249.63264860085528 75.62774777304985 C233.53702523070348 75.38127561523746, 219.58440571414093 74.37571163990208, 189.23474228278968 75.73810937126416 M191.57573269312866 76.16716285643541 C188.55600567314866 56.0894881301351, 189.6147473670032 39.81205825581487, 188.69291315468894 25.457359711993938 M189.7983957238562 74.4083143148821 C190.56674161824012 56.64726625991122, 191.01640951396004 35.98271092736674, 190.38328177810598 24.824846480879895" stroke="rgb(0, 0, 0)" stroke-width="1" fill="none"/></g><text x="80" y="55" class="id">id10</text><text x="220" y="55" class="type">dict</text></g></svg>