<svg width="287" height="675" xmlns="http://www.w3.org/2000/svg"><title>Python memory model diagram showing objects</title><style>
        :root {
        --fade-text-color: rgb(0, 0, 0);
        --hide-text-color: white;

        --highlight-value-text-color: rgb(27, 14, 139);
        --highlight-id-text-color: rgb(150, 100, 28);

        --highlight-box-fill: yellow;
        --highlight-box-line-color: rgb(0, 0, 0);

        --fade-box-fill: rgb(247, 247, 247);
        --fade-box-line-color: gray;

        --hide-box-fill: white;

        --primitive-value-color: rgb(27, 14, 139);
        --id-text-color: rgb(150, 100, 28);
        --default-font-size: 20px;

        --highlight-object-fill: rgba(255, 255, 0, 0.6);
    }

        text {
            font-family: Consolas, Courier;
            font-size: 20px;
        }
        text.default {
            fill: rgb(0, 0, 0);
            text-anchor: middle;
        }
        text.attribute {
            fill: rgb(27, 14, 139);
            text-anchor: start;
        }
        text.variable {
            fill: rgb(0, 0, 0);
            text-anchor: start;
        }
        text.id {
            cursor: auto;
            fill: rgb(150, 100, 28);
            text-anchor: middle;
        }
        text.type {
            fill: rgb(27, 14, 139);
            text-anchor: middle;
        }
        text.value {
            fill: rgb(27, 14, 139);
            text-anchor: middle;
        }
        path {
            stroke: rgb(0, 0, 0);
        }
        .highlighted path {
            fill: var(--highlight-object-fill) !important;
        }
    </style><g role="graphics-object"><title>Dict id10 with 3 entries</title><desc>Entries: idx: id81, idy: id100, idz: id121</desc><g id="object-0"><path d="M51.14848506650587 23.96285958434244 L261.6322305731717 26.40897300797033 L261.33402390634063 626.1762448624643 L49.13266984811968 623.6877182409654" stroke="none" stroke-width="0" fill="none"/><path d="M49.81407477699898 24.91471671365508 C125.28775030128695 25.017414594494433, 196.59279409904963 24.469448087639613, 263.0343849514707 26.211440533389933 M50.3999904741112 25.17106194214881 C118.18064322426832 25.40458498711158, 186.57369788218764 25.858012907589032, 262.5999559340624 24.711837983535826 M261.667082976505 24.91341333956549 C259.672940881166 151.71869962213205, 259.40631033628915 279.53873978908695, 262.2323957178994 624.8489207300918 M261.7375258980799 25.132351771501636 C263.41431959109315 148.9985692149214, 263.7594575321163 274.1494020180868, 261.6063636850271 624.7335408089384 M261.8411692521209 623.680462544816 C204.54102868799131 627.496805373795, 145.33013267148505 625.8471439857337, 51.59544760336643 623.473822565215 M262.72509811780066 625.5103949867068 C204.97260557484225 625.5100975496244, 147.52686013066165 625.6917054277444, 49.27997176351075 624.3920972789803 M50.468555343280606 624.8315983499872 C50.82311126624354 407.39233014741797, 51.116914540004 188.5098892152188, 50.298264938908 25.282236570797938 M50.35338936760355 624.6713528241764 C49.37504037284626 417.0638675921582, 49.369722306209304 209.01024512069245, 49.6863448670525 24.66000164498331" stroke="rgb(0, 0, 0)" stroke-width="1" fill="none"/></g><g><path d="M74.01990891848958 101.95338753830633 L126.24623177107702 101.31239551533052 L125.861614545987 148.08256596619344 L75.53214410019099 148.82783440451777" stroke="none" stroke-width="0" fill="none"/><path d="M75.8854632653112 100.64072039303025 C94.7770846026819 100.31233598476666, 114.37882820928554 100.21990022374528, 123.44608826407094 100.52158679250583 M74.870006362599 100.95019629478266 C87.15224494027773 99.4400061102331, 99.39814454120358 100.02513137582928, 125.0280233321066 100.32418815578347 M126.37057040482442 99.26693709998491 C126.22582145676259 114.55442264855314, 124.33652732561458 126.61743514585856, 123.18888765647907 151.71431324433578 M125.518420791259 99.80264058232487 C125.35516666559415 115.45317577732247, 125.17736754470354 130.9773898837866, 124.23067255325681 149.8389497277819 M126.60776874149104 148.9715570573631 C109.17454970949326 149.3422020303451, 94.2655394906277 149.8326024620709, 73.00232224342942 151.46740499061016 M124.09098200899318 150.28362054799285 C113.00104361177276 150.5314653395801, 101.39648283862816 150.7593594397532, 74.60322280529417 149.16183464879342 M75.19443291814068 149.4422132366127 C74.39007398107333 136.42136059410544, 76.32674010055761 124.28815214574193, 73.00378699573471 99.24479217286216 M74.29810602474828 150.32505667880523 C74.50020202126238 130.76536909848303, 74.33208177213042 111.13114424227703, 74.86778986337566 99.32361895909628" stroke="rgb(0, 0, 0)" stroke-width="1" fill="none"/></g><text x="102" y="130" class="id">idx</text><g><path d="M74.33098931149559 173.80248644203434 L125.08893532262445 174.568294440777 L126.45985948388866 226.54240386844583 L75.4120276673229 223.52505891294808" stroke="none" stroke-width="0" fill="none"/><path d="M76.20566623256963 176.1063915122209 C87.89227551967247 174.82183664748288, 103.43004271113757 176.7610787258237, 124.01290757617147 174.31164206850792 M75.11659689806837 174.0016353166516 C85.60992543632982 175.29484807365807, 97.31668970842975 175.43858048611867, 124.61360978966898 175.37322148639242 M123.07974435522048 173.84245696566646 C126.88573415698212 193.35292741595617, 126.2555371901784 209.9004442129883, 126.99144773178301 224.67177447462092 M125.2344991715712 175.2862117091955 C125.62446929313678 193.481786532049, 124.92556597982204 211.86744887523238, 124.34616588226598 224.55709763036563 M123.0039582368042 224.97546908221645 C113.91984338227152 224.6219520021691, 100.46913555264311 224.94417411010176, 75.03876659527538 223.93300047186247 M125.817134319111 225.32678548560244 C108.71903093553897 224.8697924924711, 93.40767673851201 226.06504132039169, 74.3041361288673 225.75627638825978 M74.61674508404187 224.32983430927345 C76.49287343742441 214.2308750154402, 75.21157278456286 200.04859551168065, 73.12168168717064 173.9890601107372 M74.99860063474094 224.15694778456566 C74.5915676332878 206.9268783033746, 74.9140783476113 188.73370535887182, 75.70987744489474 174.83171572560414" stroke="rgb(0, 0, 0)" stroke-width="1" fill="none"/></g><text x="102" y="205" class="id">idy</text><g><path d="M76.90977232503681 250.25325416114646 L126.48000273984908 249.38177113028254 L124.09743726424152 301.62981508320416 L75.3374577684605 301.2922509599159" stroke="none" stroke-width="0" fill="none"/><path d="M74.73215339281619 249.5031548749739 C90.64897178645916 248.33789089438883, 101.90413903986627 251.76629489616633, 124.60103163547544 248.63902600520927 M75.35374459592117 249.47736654751333 C91.15458013050636 248.75851576154213, 105.86659246121805 249.68138328790306, 124.42260904405215 250.2344840139486 M124.57445936887544 250.1458940625983 C122.57437799797032 267.0769830194054, 124.24016570592978 282.690554480866, 124.16155550920546 301.5850388229865 M124.47200451380661 249.4518627347598 C124.55054918534468 264.0422924102131, 125.00147524649256 276.96095013384826, 124.11353401777086 299.75590135075333 M125.81733650546883 301.2947317651537 C112.35418304343274 301.1130899582146, 103.26704018932797 301.5856192670344, 75.32646642261584 299.4697490665677 M125.8509920712075 299.60201352639757 C113.17394241019629 298.7244843606883, 102.39423516085925 299.10020986530395, 74.36315995691483 299.1898472392828 M76.97406742137163 301.403162402644 C75.93795805282535 285.9570018087646, 74.23781466279472 273.72929870322923, 75.0634818502608 250.47389544479077 M74.65722390209922 300.72099232131325 C75.09068227042779 279.70821212735075, 75.01359962210984 260.6917024925655, 74.38749817182374 249.14437759848133" stroke="rgb(0, 0, 0)" stroke-width="1" fill="none"/></g><text x="102" y="280" class="id">idz</text><g><path d="M174.40197608596856 99.2424821256897 L236.63926362773557 99.24919636663812 L235.57560468428443 149.9629484834479 L177.21650401629066 150.89451648530925" stroke="none" stroke-width="0" fill="none"/><path d="M174.98814590114208 100.79642048168625 C197.23184700781087 100.02129772346129, 221.49319616208427 101.33002652527479, 234.84233058429254 98.58706656566973 M175.11696027614542 100.06473181764264 C197.41665919384988 100.1524320126233, 219.87195024712705 100.07815940596728, 235.91892399323285 100.01411736996211 M234.88826672027778 101.1573100181483 C234.67420411881108 116.31679586542637, 236.49798372462593 132.0116932853606, 236.12856389288916 150.04590135387684 M236.6707801595343 99.26241186675699 C235.78680212943704 115.94773465315878, 235.68834061457326 132.25365160454118, 235.1566043764982 149.39658458457401 M236.94275511145244 148.50983567707908 C217.23761641474022 150.99459331438774, 196.94666735168175 148.41516234927286, 176.16176915132223 150.5060206430205 M235.37885467051336 149.090093291944 C220.19143716140124 151.08636190701378, 203.31394751631737 150.3423452300983, 175.00210464396216 149.1222364965153 M176.20988603329022 148.21551320994016 C177.77686719880475 131.36167694038377, 176.2677123590171 111.62384609502183, 176.45263510089575 101.12804753874829 M175.65313217764023 149.84164951703158 C176.2791750139616 138.50431663290001, 176.9382388541845 125.1618371833161, 175.77791798212954 100.07651040064601" stroke="rgb(0, 0, 0)" stroke-width="1" fill="none"/></g><text x="156" y="130" style="" class="default">:</text><text x="206" y="130" class="id">id81</text><g><path d="M177.11469685300025 176.08410898501265 L248.10555244415008 176.17920471887473 L249.38242129563133 224.8116003888484 L176.20509870100676 223.14622829769104" stroke="none" stroke-width="0" fill="none"/><path d="M175.0852845817896 174.62416713290315 C199.17926241671395 175.12995798553678, 218.83643374590574 175.95263123998103, 248.77579938834216 176.64246029389696 M176.86675047683624 174.02862098571427 C203.57565052407926 175.21468862808126, 228.8258730693276 173.61735080640952, 247.70499874682994 175.80570689103914 M246.88902562934885 176.1988701338705 C247.60945866754108 188.4867897760419, 249.16026575712112 203.84311953430137, 246.29823111548924 223.37538565878273 M248.60238889180033 175.44294568717706 C248.33358253832557 190.83369085427574, 248.09038712610078 206.28636752118626, 247.89886542965763 225.1351842620185 M247.3967617689857 223.41470578217337 C221.35274158561305 225.74557238120792, 195.04890665711906 224.22171846825452, 174.16507280626982 226.7346809005947 M248.43558152054635 224.1256080657939 C222.67513089483543 225.26341331471912, 197.48465089927936 225.09364070477974, 176.77258264672022 225.53562723573216 M177.33464567651728 223.62762463642284 C175.36334506153156 209.2202554200406, 176.09373337319767 196.4668095069932, 175.1409705375228 175.69058638052724 M175.99828103075993 225.4216308302796 C176.72466203123508 207.37370833269958, 176.2968926409504 189.72309522657233, 175.32852622899296 174.6350339007393" stroke="rgb(0, 0, 0)" stroke-width="1" fill="none"/></g><text x="156" y="205" style="" class="default">:</text><text x="212" y="205" class="id">id100</text><g><path d="M174.8791222143869 250.53210298182535 L248.4277596495692 249.159667229938 L249.3558926723275 300.88501174064936 L174.01792117818934 298.42287999870126" stroke="none" stroke-width="0" fill="none"/><path d="M174.08928886192933 248.52025380422464 C197.289115736294 248.87362190874384, 214.34904443779573 248.73572658292554, 249.86542162868815 250.53527233427067 M176.75868879867534 249.6520447452302 C191.7076881154535 249.87433268517867, 207.37430648405518 249.88398817050344, 248.20444585564312 250.18689304885226 M246.36823534892045 251.9950290877225 C247.83741370332174 261.05182944892755, 247.72870938738768 274.05718956996645, 247.60705060012717 298.52147203531564 M247.80838396564693 249.2187589302454 C247.9336677574223 265.2539276201653, 247.5432597360243 281.46582052575417, 248.3799549865003 299.5200461667602 M249.2520134316952 300.71534675013663 C227.72179448649376 299.9971469640754, 206.00155912049385 299.85283252143415, 176.7031627856558 300.21888794507834 M247.7795749791574 299.8095318217856 C234.2430978143665 300.1243400129716, 219.18030077989738 299.9828226868218, 175.1981453215421 299.9639057268602 M175.82170276499397 301.6997936175075 C176.05558173887798 288.0152735735, 176.042435125342 275.4092162471333, 176.30350229945165 248.97242155919605 M176.25443875481034 300.33617188660577 C175.82558332135548 281.32205393307123, 176.37534426151083 263.82612050956277, 176.24864568792327 249.62058020154956" stroke="rgb(0, 0, 0)" stroke-width="1" fill="none"/></g><text x="156" y="280" style="" class="default">:</text><text x="212" y="280" class="id">id121</text><g><path d="M50.48601716683483 26.35626369239794 L110.28091280195613 23.992011294309144 L111.53005567084882 74.0781887091004 L49.63744726060282 76.11617036656865" stroke="none" stroke-width="0" fill="none"/><path d="M51.5600639555991 25.603402975783947 C69.3323643354114 25.277504440046094, 89.29633100111995 24.487140407165107, 110.12225305792273 26.078920428253465 M50.114611493206986 25.2308636267181 C72.92360004532323 24.594888210145918, 96.75507922775911 25.72868777388056, 109.36697402423044 24.367738404471883 M111.56969892218731 26.098336835641476 C111.06028835587303 39.34649545269721, 111.58477765552897 57.2648414937549, 109.30161111702485 76.15546786704276 M109.50024930993997 25.876404036353403 C109.98983040654556 44.75530711622878, 110.89908930348139 63.756422035743626, 109.15362850895723 75.71395461079369 M111.67486006127444 73.3542332717213 C89.02029013187997 77.23009710133434, 62.578085411612754 76.4811977944583, 49.81606376520033 74.75145184389453 M110.53818493515283 75.07195037102021 C97.31377376043692 76.07415770591165, 84.5170857182765 75.68069157221491, 50.034684526505565 75.36992064550665 M50.27620480275005 75.72911528744399 C51.658612606322826 59.16078006433292, 51.08397976271727 47.805340822191845, 48.96598638122244 24.5362761587446 M49.882627487992885 75.12692335728144 C49.38945105105011 56.025117332318494, 50.5870635132 35.78579681092051, 49.15738789505178 24.661277084731527" stroke="rgb(0, 0, 0)" stroke-width="1" fill="none"/></g><g><path d="M203.91084635824444 26.19201498880147 L263.68491261795293 23.736566083037115 L260.54406495048835 76.69864601132966 L200.51237484566585 73.117775343285" stroke="none" stroke-width="0" fill="none"/><path d="M201.16441247814612 25.457215213916133 C226.22334299447374 26.92589600016364, 247.99805336648424 26.29639347745204, 262.34064786524544 24.693330431621533 M201.9901871531472 24.16640459373658 C225.5956559906553 26.177145838111095, 247.43603368198512 24.556843531043, 261.2810288112581 24.94875415337882 M262.5298673749413 25.858039869431117 C261.2745118696252 38.38795564358015, 262.06488036532255 51.80743896426372, 261.33266642334115 75.15032621368017 M261.5752300665555 24.26086279615202 C262.2843447681013 42.78421711844752, 262.3653654434756 62.609626172197686, 261.2911454119959 74.51535840094135 M260.15329483630615 74.2137233577042 C247.3831585332811 73.26574968266172, 234.29908354411563 73.26706955596875, 200.62684742021833 76.89220142148287 M261.2659967398083 74.1858410158963 C246.86370387751865 75.04247178361723, 228.80795029795016 74.90412977264717, 201.00447229626536 75.78710528970107 M203.08845942502933 73.7823511449046 C200.98890138811655 57.879614046202846, 201.28439152279296 42.87607782471182, 201.16991088565482 24.433419203932594 M201.30384999214084 75.20176395708161 C201.96385015587455 62.202050611446204, 201.1578943353193 47.96941523603406, 201.13588412698445 25.313638850258823" stroke="rgb(0, 0, 0)" stroke-width="1" fill="none"/></g><text x="80" y="55" class="id">id10</text><text x="232" y="55" class="type">dict</text></g></svg>