<svg data-theme="dark" width="275" height="375" xmlns="http://www.w3.org/2000/svg"><title>Python memory model diagram showing objects</title><style>
        :root {
        --fade-text-color: rgb(0, 0, 0);
        --hide-text-color: white;

        --highlight-value-text-color: rgb(27, 14, 139);
        --highlight-id-text-color: rgb(150, 100, 28);

        --highlight-box-fill: yellow;
        --highlight-box-line-color: rgb(0, 0, 0);

        --fade-box-fill: rgb(247, 247, 247);
        --fade-box-line-color: gray;

        --hide-box-fill: white;

        --primitive-value-color: rgb(27, 14, 139);
        --id-text-color: rgb(150, 100, 28);
        --default-font-size: 20px;

        --highlight-object-fill: rgba(255, 255, 0, 0.6);
    }

        text {
            font-family: Consolas, Courier;
            font-size: 20px;
        }
        text.default {
            fill: rgb(0, 0, 0);
            text-anchor: middle;
        }
        text.attribute {
            fill: rgb(27, 14, 139);
            text-anchor: start;
        }
        text.variable {
            fill: rgb(0, 0, 0);
            text-anchor: start;
        }
        text.id {
            cursor: auto;
            fill: rgb(150, 100, 28);
            text-anchor: middle;
        }
        text.type {
            fill: rgb(27, 14, 139);
            text-anchor: middle;
        }
        text.value {
            fill: rgb(27, 14, 139);
            text-anchor: middle;
        }
        path {
            stroke: rgb(0, 0, 0);
        }
        .highlighted path {
            fill: var(--highlight-object-fill) !important;
        }
    
        [data-theme="dark"] {
            --highlight-value-text-color: #110875;
            --highlight-id-text-color: #6e4409;

            --fade-text-color: #BBBBBB;
            --hide-text-color: #121212;

            --highlight-box-fill: #EDB926;
            --highlight-box-line-color: #FFFFFF;

            --fade-box-fill: #2C2C2C;
            --fade-box-line-color: #666666;

            --hide-box-fill: #121212;

            --highlight-object-fill: rgba(72, 207, 173, 0.3);
        }
        [data-theme="dark"] text.default,
        [data-theme="dark"] text.variable {
            fill: rgb(224, 224, 224);
        }
        [data-theme="dark"] text.attribute,
        [data-theme="dark"] text.type,
        [data-theme="dark"] text.value {
            fill: rgb(144, 164, 237);
        }
        [data-theme="dark"] text.id {
            fill: rgb(255, 183, 77);
        }
        [data-theme="dark"] path {
            stroke: rgb(204, 204, 204);
        }
</style><g role="graphics-object"><title>Dict id10 with 3 entries</title><desc>Entries: id1: blank, blank key: id81, blank key: id12</desc><g id="object-0"><path d="M48.934012517261195 25.326478868321036 L248.75467520846783 26.2690698906207 L250.15085812066678 326.26108385653373 L50.16981068960879 325.13576737578796" stroke="none" stroke-width="0" fill="none"/><path d="M51.000128607437674 24.31687850974604 C117.2482651051504 27.802381426128022, 185.05897424601451 26.949405860750627, 250.48720292385565 26.633757100464702 M49.74694449074644 24.202812323464286 C122.08105377244135 25.32811739327693, 194.76171180582145 25.0028255860245, 249.57703597574155 24.37365553561006 M250.82699200536504 23.672016442586845 C251.6522772591704 127.33157175617232, 250.93308118768215 228.30088893513985, 250.57279398376602 324.0874822086598 M250.26519468680112 24.77298242637822 C250.45412365660204 101.63337063157758, 250.85197916691936 179.0125354939823, 249.8892348789727 324.89873216002815 M250.6706275583025 323.4073332107591 C200.6917214919465 326.9454215316707, 148.83225552743187 323.4938617366602, 48.402056130094444 324.3103511465932 M249.50276929062937 325.02225040542476 C170.8195490254718 326.44457576211903, 93.06900423573539 325.9338718325287, 49.99037681902377 325.7649953760336 M50.53344955246383 325.31490672958205 C49.65175720257088 233.9182894613786, 48.910684643706595 143.6851785250907, 48.85182705466319 25.222126348387555 M49.70212591805766 324.87601450822007 C51.82969720652642 239.25442755543114, 51.51708656855258 154.26326864610894, 49.89034121543293 24.82193980985291" stroke="rgb(0, 0, 0)" stroke-width="1" fill="none"/></g><g><path d="M48.24420197755407 23.851494559017738 L108.42560536206932 23.02776011176484 L108.00562148290815 75.6095889333613 L49.43150853506896 73.13853452403842" stroke="none" stroke-width="0" fill="none"/><path d="M50.407921752267605 25.842587351444507 C62.91547383538847 26.247302575977933, 79.72249723620459 24.31328522954409, 108.34432644205205 25.37824336968161 M49.21917374721153 25.702966251848217 C65.07361199157666 25.445560125402064, 78.89003932056468 24.36308837424244, 110.73408732545623 24.598366021170886 M110.35302383891226 25.149593482433982 C111.35972053130419 40.416321637978214, 110.62174771892668 53.973563515805225, 111.93977579838025 74.75039788492616 M110.0643341142249 25.728360142523645 C110.5201298703349 38.80779646393859, 109.85992463129628 52.07132406434081, 110.88564872568222 74.86654325279841 M108.54058860756147 73.04643731963017 C96.16266939658591 72.71049772463874, 84.11005381975579 74.70430913151304, 51.19772123695116 73.5332758097019 M110.02946168271478 75.03317102521434 C88.38342709363604 74.55685018470847, 66.25641441344878 75.16670162215202, 49.9219827959868 75.49990786330952 M49.288658374758995 76.40527959361326 C51.79272412236597 63.248272032288185, 52.1804815532968 50.38940480994696, 49.30571754134385 26.455007561859567 M50.96277533767962 74.004338970075 C50.258677117974536 58.504918810731525, 50.902978799599914 42.40308135132098, 49.19087931944459 25.48172704840704" stroke="rgb(0, 0, 0)" stroke-width="1" fill="none"/><text x="80" y="55" class="id" aria-describedby="desc-0">id10<title id="desc-0">Object id: id10</title></text></g><g><path d="M189.2990929148009 24.570003314015207 L249.13894343325822 23.156975818022595 L250.4306196447065 76.79503507054471 L188.2817799959304 74.07838232429057" stroke="none" stroke-width="0" fill="none"/><path d="M189.70244869834292 26.52034755079721 C204.85279521576686 23.58232795528123, 217.05478995421967 24.994293218436063, 248.0228189330547 25.524368687083125 M189.97128030777236 24.776694059602082 C208.5580576913909 25.65233590735657, 227.49915969782924 25.113277660573747, 250.10549954238672 25.779547507036632 M248.26492021612896 25.37497347974024 C251.30810801553227 37.22529196635135, 249.2973539540917 54.93262133082479, 251.98387168239265 76.47879863834046 M249.608789440459 25.74686104763887 C250.6216412726351 44.16192999454201, 249.80171584427842 63.50625751320227, 249.08720567134716 74.62015870537259 M249.72248113647288 76.27909865138582 C229.57400953631443 77.47321594396652, 209.80722364627158 74.64722833377306, 189.81811734830399 74.67710130204208 M249.97212513457615 75.35391495466651 C234.56714000147713 73.75810047284563, 218.2682152251753 75.15947145676749, 189.30296796826866 74.86042379438925 M188.20127789751575 74.81823990810446 C190.1335981436269 58.051013995338465, 191.01893071220704 41.963786295784104, 189.31329859044232 23.686299025186383 M189.0454587525838 74.18799798960983 C189.82387584991784 63.944974433232396, 190.094224072651 51.039372682374164, 190.48835232456045 25.252657232814578" stroke="rgb(0, 0, 0)" stroke-width="1" fill="none"/><text x="220" y="55" class="type" aria-describedby="desc-1">dict<title id="desc-1">Object type: dict</title></text></g><g><path d="M76.5236298989669 100.77736974641721 L126.14231281233347 98.82373061103837 L125.02902006445719 148.52701739380097 L73.7596614677444 150.5492881275963" stroke="none" stroke-width="0" fill="none"/><path d="M74.45843491497904 99.55927007688398 C89.41377559747487 101.45492801173063, 100.78955979999007 101.10558059107079, 125.23954684075393 98.44714792935147 M75.22699904314402 99.70253464666588 C91.73938234278673 100.98125025254697, 108.65064695674131 100.30281319244318, 124.74083639783584 100.2102050157162 M124.43274405580804 101.50256638970625 C125.82761884869504 111.04887430554986, 125.87719439794728 119.07932957298502, 125.9485980209386 149.56869066492408 M125.00983215275637 99.44574800348987 C125.35955805708568 116.56131579717002, 125.642436212515 133.69585262115868, 124.06010972031795 150.0025826023423 M124.29765994226572 150.17688426313123 C109.28188539759032 151.30819455763222, 92.69761305207643 151.37910360763811, 76.59542924300862 150.9742125906573 M125.7522462671018 149.18248484713212 C112.65066428809652 150.34632212925206, 98.17696733703664 149.06280222440586, 75.02098304546455 150.84857066887872 M74.70089160976265 151.30546850209998 C76.72458382055531 128.9753067665495, 73.69919672653413 109.92555669215497, 75.06879364173716 99.00365729915615 M75.95331510484594 150.09471310299134 C75.9609997726595 133.22196541568292, 74.32306830583458 115.45663667268265, 74.56301298367491 100.6639116699221" stroke="rgb(0, 0, 0)" stroke-width="1" fill="none"/><text x="102" y="130" class="id" aria-describedby="desc-2">id1<title id="desc-2">Dictionary key: id1</title></text></g><g><path d="M170.62751150778183 100.99711119805923 L220.80646783931792 98.31066709696091 L221.25477525628776 151.41393570941207 L171.7629475498685 148.87459045148407" stroke="none" stroke-width="0" fill="none"/><path d="M170.12190982660167 101.68788828835235 C183.03792607623396 101.41652585485852, 199.6279493892408 98.93227263199269, 220.3928293333729 98.61441736657889 M170.11854699831835 99.2841289441789 C183.77446977575025 100.95851454616168, 197.26272505638966 99.61776504746003, 220.12262727656613 99.61404098456691 M218.28235895535062 99.6612337294497 C218.55182435991844 119.16084893663016, 221.64870767267587 138.60770862671762, 219.83196751044676 149.4909708010769 M219.07749900219295 100.18937933314085 C220.4967502270052 113.38874257256394, 221.12206706408276 127.26080251569432, 220.3797033026305 150.78475642412886 M219.28748193861108 148.20289642480546 C203.28496870017756 150.82745396840022, 188.17579499063845 150.28965349321834, 168.36489248887932 151.78640250667507 M219.58266628286427 149.187129305476 C204.72370963451522 150.04505149139038, 190.31662495364517 150.4911891531854, 169.91265917000655 150.95198280131805 M170.00676327699117 151.03524959141603 C170.00754311236386 132.37443978253202, 170.58847071543272 113.9945692059951, 170.70053155261388 100.94432411567134 M170.13457652686088 149.08016966090307 C169.44878968881878 132.64378096991948, 170.3734074282149 114.33076905417569, 169.0228782612268 100.32610947395433" stroke="rgb(0, 0, 0)" stroke-width="1" fill="none"/><text x="195" y="130" class="id" aria-label="blank entry"></text></g><text x="150" y="130" style="" class="default" aria-hidden="true">:</text><g><path d="M75.87272561606396 174.59100998878307 L125.47311272529409 173.42504161718526 L123.37936907485201 226.5170230313857 L74.25598700568005 223.40948089072683" stroke="none" stroke-width="0" fill="none"/><path d="M73.74998250386226 173.74004340295238 C92.25464503371467 173.94940932327174, 110.09638119617786 173.8355878956553, 125.70438878430502 174.61205959183232 M74.36636604920875 174.9122859270196 C90.17255294167681 174.51639219314904, 105.54518008662826 173.85232865726584, 124.39638191890019 175.06076065889658 M124.20883584076587 175.49737298670388 C124.34507750971392 187.31933863710304, 126.62349381592307 198.90939253965257, 126.084378664155 223.16429816360002 M125.899841871022 174.8448693504365 C125.90189107313385 192.88822246339234, 124.66138430087214 211.42269850926158, 125.4933141794456 224.97753929032984 M123.34391687181544 225.1444213245611 C114.91944749449101 224.50253994179533, 104.65471649316726 223.8067125567968, 73.2384070538109 225.50349507973343 M125.27206639326526 224.8481197454919 C106.90956870419564 224.65999946053572, 89.5083364812304 225.53743747837785, 74.10099529767957 224.32459091095538 M74.07204174311822 224.65867831831963 C74.64116283554752 206.24061853199527, 74.837720051656 188.9375640001862, 75.28283838281602 174.55748226361368 M75.04317470622865 224.74025564625188 C75.50210710177038 207.80171526660936, 74.20808464910698 190.68611818742067, 75.80526378309045 174.16907291568796" stroke="rgb(0, 0, 0)" stroke-width="1" fill="none"/><text x="102" y="205" class="id" aria-label="blank entry"></text></g><g><path d="M169.85437510041464 173.1048337774095 L228.3435651769927 176.7052087754367 L229.20461974623942 223.183637462518 L168.5996724976713 226.27595614648394" stroke="none" stroke-width="0" fill="none"/><path d="M168.8964431661477 176.2437599108108 C184.20327450656072 176.5713587430638, 197.87561716396877 177.0243987862537, 229.97504910374082 176.2382713735847 M170.80097318368504 175.87533459475156 C192.65386775369683 174.6585226715593, 214.09302938621414 174.75793593545066, 229.39146186004254 174.60571268826567 M231.22410964119896 173.3720757220296 C231.67577844469363 192.1773913545308, 231.23265921284448 207.8187128425437, 228.92010183675976 223.70105825621673 M229.31174090920197 175.2349457246532 C229.20663886310103 190.05479336330117, 229.43340191076908 202.90864402007938, 230.17507045122386 225.2863991653888 M231.6065741873065 223.118654883083 C210.4910026573549 226.23410407522812, 188.08452991815082 224.1530063564435, 170.20007282789496 223.231034146262 M229.57234884704167 225.28861624057598 C211.9949881356967 225.91710554630953, 194.28872566170412 224.26008202500068, 170.08307526543868 224.6351556459925 M169.44387081084386 224.07285016247613 C168.98550525677612 203.79096215796548, 168.84976259415004 185.43235364169752, 169.96419627218296 174.75299277864394 M170.96581802324957 225.2352827421301 C170.25265814432382 210.9755800506689, 169.2319328745949 197.6776794361264, 169.31456329705912 174.35705711947404" stroke="rgb(0, 0, 0)" stroke-width="1" fill="none"/><text x="200" y="205" class="id" aria-describedby="desc-3">id81<title id="desc-3">Dictionary value: id81</title></text></g><text x="150" y="205" style="" class="default" aria-hidden="true">:</text><g><path d="M76.3927829991094 250.38545208071304 L126.89161573461388 250.33581064041115 L125.61797180004393 301.7968357802488 L73.67893433198334 301.9878822094027" stroke="none" stroke-width="0" fill="none"/><path d="M76.72013809769602 250.7482785177038 C91.63296414235703 248.9021478214212, 107.36696222493588 248.55217911224227, 126.34447369114919 249.03992304729357 M74.10645290889175 250.542010035489 C93.36143834199727 251.22558966525162, 113.00929225414569 250.99753304504776, 124.75478481172317 249.66783022877667 M125.38398828278575 248.9260598138188 C125.93140381704502 271.19899099527026, 125.32750898373389 290.83079112794, 123.04745407798148 301.1784153685105 M124.84253107263001 249.49982275914724 C125.29282747312516 265.2127401660974, 125.91436242893302 281.88862415713743, 125.71141440111536 300.97768770468195 M124.0641509738433 299.70731200351514 C109.21294210883049 299.37839587915465, 99.27631634414413 302.2410891352517, 76.19790351412064 299.22753403564894 M124.3923701621407 299.20000157287075 C114.87391252717134 299.062035867687, 104.02444994144973 298.93069421373434, 75.05698177817764 299.6053411904165 M74.50683576584656 299.7912510363853 C77.04874609819169 285.0000871427739, 74.79352106334781 268.1576861555789, 75.45108303035023 251.9582801977535 M74.33248895958361 299.11403972125606 C75.84194696077304 281.30388217578695, 75.60437800042851 264.15702899074563, 75.28329461761702 250.71541350065502" stroke="rgb(0, 0, 0)" stroke-width="1" fill="none"/><text x="102" y="280" class="id" aria-label="blank entry"></text></g><g><path d="M170.09822921941142 249.6850088732189 L231.86318974686387 251.7759067663107 L228.5713463463328 300.6324999281355 L169.29519551630202 298.8085969861053" stroke="none" stroke-width="0" fill="none"/><path d="M170.28309379229623 249.061835864939 C184.9101601386542 250.18160120343921, 203.29853410197765 247.93231873392, 229.0090859057399 251.84660038227116 M169.4389330183964 250.3323133169353 C183.76763433555445 250.6429407175859, 199.33249935464545 250.192777739949, 230.38539495442393 250.7926320560107 M230.6137412652787 250.82783110368695 C230.87871224006216 269.42161244520145, 228.67122591385282 284.7048404034015, 229.9028635210268 299.39840190835224 M229.6814584395749 250.32547098723452 C230.27723568614417 265.83520891928094, 230.6096173110505 279.00501231425784, 229.4856481127637 299.7014063585144 M231.24851410244236 301.53284328914776 C207.9719561256181 301.47534740944013, 191.15371370148753 299.823183596142, 168.0114214653471 301.04737173722305 M230.48058365539475 299.8555068319495 C214.0941774305025 299.79718123860727, 198.9840061742472 299.24709002013657, 170.6825904349564 300.17098890060475 M171.61602912741967 300.6431119272696 C168.22762121021762 279.56694989922147, 170.68735168387042 260.2425578942566, 171.09935956663426 250.57663589700607 M169.2979866788278 300.1894258481579 C168.9019175209187 281.88777314051106, 169.7370461800562 265.12400986866044, 169.58756109810685 249.6865265227702" stroke="rgb(0, 0, 0)" stroke-width="1" fill="none"/><text x="200" y="280" class="id" aria-describedby="desc-4">id12<title id="desc-4">Dictionary value: id12</title></text></g><text x="150" y="280" style="" class="default" aria-hidden="true">:</text></g></svg>