<svg width="287" height="675" xmlns="http://www.w3.org/2000/svg"><title>Python memory model diagram showing objects</title><style>
        :root {
        --fade-text-color: rgb(0, 0, 0);
        --hide-text-color: white;

        --highlight-value-text-color: rgb(27, 14, 139);
        --highlight-id-text-color: rgb(150, 100, 28);

        --highlight-box-fill: yellow;
        --highlight-box-line-color: rgb(0, 0, 0);

        --fade-box-fill: rgb(247, 247, 247);
        --fade-box-line-color: gray;

        --hide-box-fill: white;

        --primitive-value-color: rgb(27, 14, 139);
        --id-text-color: rgb(150, 100, 28);
        --default-font-size: 20px;

        --highlight-object-fill: rgba(255, 255, 0, 0.6);
    }

        text {
            font-family: Consolas, Courier;
            font-size: 20px;
        }
        text.default {
            fill: rgb(0, 0, 0);
            text-anchor: middle;
        }
        text.attribute {
            fill: rgb(27, 14, 139);
            text-anchor: start;
        }
        text.variable {
            fill: rgb(0, 0, 0);
            text-anchor: start;
        }
        text.id {
            cursor: auto;
            fill: rgb(150, 100, 28);
            text-anchor: middle;
        }
        text.type {
            fill: rgb(27, 14, 139);
            text-anchor: middle;
        }
        text.value {
            fill: rgb(27, 14, 139);
            text-anchor: middle;
        }
        path {
            stroke: rgb(0, 0, 0);
        }
        .highlighted path {
            fill: var(--highlight-object-fill) !important;
        }
    </style><g role="graphics-object"><title>Dict id10 with 3 entries</title><desc>Entries: idx: id81, idy: id100, idz: id121</desc><g id="object-0"><path d="M50.12143501376337 24.139519473425036 L262.6508872034042 26.389225113530333 L261.72970253219296 626.7986337044779 L50.04574209313877 623.062048170781" stroke="none" stroke-width="0" fill="none"/><path d="M48.61648152700042 25.407806509876945 C128.2277561207823 25.2151328029578, 206.01332742756364 24.423893873942717, 261.1115651860089 25.68023657112825 M49.929044957855496 25.735364525241387 C129.20846708289503 23.979046142885256, 210.3179286276462 22.91105484155248, 261.81511863716025 24.436902634305483 M261.5157526580832 24.307522072227894 C259.5821323067887 156.1903801232928, 259.1501315222186 287.8670954958946, 262.5696991147137 625.4288119814083 M261.6403382720152 24.677236908533818 C263.6760056492499 184.72391238145764, 263.5797757333603 345.24687350530127, 261.7179433332277 624.8522299651213 M261.5902214276401 624.5734252361746 C184.01505119467018 622.9206918840704, 107.68525237437116 625.0124724599946, 51.63581325066797 625.7497491141177 M261.80357544671944 625.7943054600001 C211.19915135499357 623.8689764702522, 160.50608520642686 624.1192796647558, 49.27756103223592 624.7656766902018 M49.663953308905974 624.8955941039785 C50.02352164771304 499.73896283786746, 49.598059484579 375.15700820328766, 49.57001244299199 25.045796985770558 M50.31818048092684 624.6524390199303 C49.14025084739477 470.0008208569027, 49.10074248172036 314.70757119965833, 49.9392017537208 24.81826882551551" stroke="rgb(0, 0, 0)" stroke-width="1" fill="none"/></g><g><path d="M75.52180951483666 101.2271528848969 L125.22124046416155 99.98258936082128 L124.88521362920702 151.56074328283188 L76.23752466676319 148.58004285732633" stroke="none" stroke-width="0" fill="none"/><path d="M74.83308729349683 100.69386611133862 C88.50291912566365 101.29892881610803, 99.24985416230192 98.53456222488437, 124.72967875749994 100.63251679260144 M74.48054541413117 100.18189588314969 C89.41904341192132 99.4706817086356, 103.09279927274537 100.96161270270704, 125.60493117397111 100.42617481503552 M124.64770487898329 100.05550280692624 C125.24850221017238 111.44132463426115, 126.30850103016495 124.18193261243813, 126.97486585728181 151.2578092918939 M125.64877852007997 99.0304868161306 C124.34172524483779 120.14623584483996, 126.15308997201353 137.75872339395795, 124.11368698426591 150.1168877403755 M126.47324829314942 151.7520261218379 C110.5575029805686 148.90748156005347, 97.58530328570359 150.62614341649004, 75.43045924401859 149.25250360851027 M124.96015610663665 149.29984798045118 C114.54177164279861 151.05656410980697, 104.03159915882328 149.7267371191662, 75.31862467397998 150.03951623086067 M75.76392686028959 148.85910891405558 C73.28381607223517 133.69954817436377, 75.24248933317774 117.93171366484498, 76.9819363288211 101.52860918928779 M74.69362500455188 149.9697948908045 C74.62427182991945 132.70850704258083, 75.11119598377576 114.05962956399178, 74.38224346106966 99.62179082204584" stroke="rgb(0, 0, 0)" stroke-width="1" fill="none"/></g><text x="102" y="130" class="id">idx</text><g><path d="M74.75069405589532 176.8943908983633 L123.7046774107714 176.0479550793899 L124.78868370585683 225.98189213824992 L76.21329117013691 223.3979532309598" stroke="none" stroke-width="0" fill="none"/><path d="M74.82891858700243 176.7970094246633 C92.63899841143348 175.23976108616571, 113.09921881487188 175.3212318585682, 126.51908285935839 175.25863164951016 M75.23014167223644 175.91346863973158 C90.58105220533623 175.8606198060881, 108.41540629871942 175.90089814716828, 124.63256939985263 174.20701327760125 M125.31184308697571 175.72564531819992 C125.36560916160974 188.14375238506355, 124.66636781328903 198.61726369556067, 126.02938362428841 223.2148797757925 M124.45302283796126 175.78993933290758 C125.28523122846312 189.53552334659486, 124.7791623069302 203.4920358049808, 125.55390877561803 224.5601534170278 M123.79075934792341 223.6279992058058 C111.11427176740042 226.14108581926493, 100.35627620550578 224.01209922403828, 75.7951894638911 224.83889671390008 M125.2370915710069 224.83208638677988 C108.31207758487554 224.40711200260813, 94.50885046760287 225.0803433868829, 75.53146360247375 224.90167537514472 M74.22722857297076 223.05890759332834 C74.5811050584823 211.85248870667454, 73.27707835248823 202.27274332977322, 75.09557647672399 173.50190229900645 M74.40150369707912 225.75104954630064 C76.02056643042278 206.8667679526283, 75.94967275941211 188.6977174941041, 75.7040995780506 174.25388085637337" stroke="rgb(0, 0, 0)" stroke-width="1" fill="none"/></g><text x="102" y="205" class="id">idy</text><g><path d="M75.69712268345542 251.30068220479268 L126.09567724491639 250.2710654818864 L123.36434900778038 300.25788406755015 L73.92896925777433 298.3531621646796" stroke="none" stroke-width="0" fill="none"/><path d="M76.31832065804298 248.02334950995274 C87.89518035977677 248.76154313806512, 104.10480561062079 250.53787653540152, 123.6631036422207 249.10690629754805 M75.68613588039625 249.83252272882115 C89.270954488067 249.82298023080443, 104.5509179388519 250.51734983388928, 125.69527999839696 249.3131766585897 M126.6916244635599 251.50308110592127 C126.8124703942108 260.6907056317026, 124.49447290908478 270.219672528604, 124.33036377857226 299.94038349028455 M125.330117458973 249.12912149019618 C125.15297872986858 270.3545526086797, 125.13882937741744 290.18848479331103, 124.95287976825304 299.82535690569625 M123.66039520586916 300.49503601246477 C110.48133531849793 300.3947153566608, 97.1782523401154 300.2913186023527, 74.78446253536615 300.69148506868083 M125.5352308316416 300.02331244760353 C112.68470143725521 298.76585790880324, 100.392336431961 299.56272464434267, 75.82874834466816 299.7857818354733 M74.67093973430647 300.7026700176891 C76.3369066344667 287.35889402313734, 75.19449232502357 271.48856213979076, 74.28248657192917 250.46786713536144 M74.92579556768172 300.5396781543384 C74.47100080897697 288.9426917404052, 75.17588338171012 278.89741586010035, 75.25328234387796 249.4229080104878" stroke="rgb(0, 0, 0)" stroke-width="1" fill="none"/></g><text x="102" y="280" class="id">idz</text><g><path d="M174.30105659828868 99.5704612580668 L235.90765383433492 101.9567403265854 L235.85640332454363 150.16871738661183 L174.5166053121464 149.5035876257378" stroke="none" stroke-width="0" fill="none"/><path d="M177.55594473315531 99.27545614396148 C198.19529271774613 100.0819077449191, 221.8263233987482 99.06315455285065, 234.8599385186797 101.106854759747 M175.18360709611773 100.90366135703584 C199.48509239951247 100.3392699980471, 222.8758423617922 100.25362353991775, 236.79441547346826 99.40504824736664 M237.2904223807475 100.4851170489432 C236.01700508572208 115.51497120874113, 234.27456405578587 130.10801491898727, 235.84583039622183 148.84662187813151 M235.09212231030065 100.46684400142789 C236.11346324263087 110.8203646019022, 236.5297836103525 119.75458100518294, 235.88489862095759 150.97740688963353 M237.02930269919457 151.45984488780493 C214.08666638335384 151.07916324215918, 188.61254423180708 149.20291935137044, 174.7762062105062 151.5383395722026 M235.49373876377567 149.97018618818083 C219.27370037179756 150.17734108828205, 201.53515499524136 149.42967010307763, 175.807515056874 149.31876989847288 M176.37975906174447 150.87681404086752 C176.1881175288322 138.4112997089485, 177.9217793045521 127.67264087621044, 176.0468008810512 101.04216370361078 M175.9221861074096 149.005214016703 C175.19247312322634 140.30772696216243, 176.24073473223993 130.0463869556513, 176.75877972587458 100.00120939593276" stroke="rgb(0, 0, 0)" stroke-width="1" fill="none"/></g><text x="156" y="130" style="" class="default">:</text><text x="206" y="130" class="id">id81</text><g><path d="M177.6343588987397 175.23706194521458 L246.9212838956387 174.0676898687309 L247.48867565746417 225.65363583485552 L175.35784036006945 225.3072101708593" stroke="none" stroke-width="0" fill="none"/><path d="M176.03865660937862 176.53780929487783 C200.62038213997766 176.49923878841153, 221.81118540814214 176.3645858795888, 246.15717449548129 174.8682444531515 M176.23642025073502 175.84411810996275 C204.2728976654772 174.09929933446978, 233.00818303598732 174.3409900617771, 247.14280123205205 175.29654421675474 M249.1378711516837 175.70820325894314 C247.3209873982602 189.59993782525353, 248.92705670431567 207.49379885529197, 249.82331452330303 224.20070366410795 M247.7738824118359 175.71510481669483 C248.3081061768003 189.09829635970974, 247.08784765927012 201.85657925392624, 247.2059002308625 224.48078518421602 M248.14576682326094 225.44103928909772 C229.2130004442436 224.23405048711615, 212.8887264559495 225.7078218024873, 176.4626650134219 225.95181063081537 M248.69522238470157 224.3325288601839 C222.57948644210424 225.643889542664, 194.97835106281653 226.22735698685668, 175.61813687642078 225.7805565124386 M174.50409347690677 224.2913840934568 C175.24880933211998 210.36427858856885, 177.10076010713053 194.68681161055508, 174.789298927751 173.14926070594126 M176.07584441189047 224.43012721932922 C175.91551424509373 205.44621877608765, 176.3296763605404 185.63338044518946, 175.82099824647938 175.0707760829577" stroke="rgb(0, 0, 0)" stroke-width="1" fill="none"/></g><text x="156" y="205" style="" class="default">:</text><text x="212" y="205" class="id">id100</text><g><path d="M177.70370415577338 250.12014467236457 L248.5639552151473 250.93665628197482 L246.03795438545185 301.6872917756209 L174.357948779082 301.07648001973047" stroke="none" stroke-width="0" fill="none"/><path d="M177.13820807037442 249.11364806597695 C192.80450142502124 247.84566560499644, 210.24302263795428 248.5569230738395, 247.16380705831446 250.35729498118283 M176.9946862490167 249.71987898096992 C199.31774364594975 248.90186983011031, 221.57416209336412 248.92483478000085, 247.5418126372917 249.52184683626416 M246.02674170869315 249.55937442051345 C248.4193702872005 266.89237946554334, 246.64754256626532 287.98741412216276, 249.92761339056162 300.9760817171547 M247.84174020547033 250.53530747236584 C249.14950219556061 268.02281129567444, 247.94768231094153 284.601905737042, 247.6501299437857 299.5990933206798 M249.91062008527626 299.72769970607015 C227.48881541634657 299.80425805722024, 210.6053314111025 301.40352450580906, 177.00766691729555 298.259057073821 M248.18881966984293 300.92298110070266 C222.67908134287714 299.372334841354, 197.4155294098431 300.0223125452065, 176.9947265752979 299.37891871229897 M174.44799817738524 299.6717740080357 C176.9276018139722 287.9466131451261, 174.4135576337817 274.69585966423443, 175.28120172943355 251.9229203450654 M175.95646328773208 299.9157449062979 C175.84341526642706 287.08936783198516, 175.48753041897172 274.78710726621716, 176.43360086106478 250.5735504631239" stroke="rgb(0, 0, 0)" stroke-width="1" fill="none"/></g><text x="156" y="280" style="" class="default">:</text><text x="212" y="280" class="id">id121</text><g><path d="M48.526487143906024 24.354332693052644 L109.17886983683428 23.83890540978859 L109.47512108211524 75.430996388761 L51.290870710049184 75.16563642689462" stroke="none" stroke-width="0" fill="none"/><path d="M48.420873699329064 25.93582920367649 C63.199824139091724 23.57984200636252, 73.68208399847688 25.548639921523744, 111.83834046263458 23.357905061671545 M50.073952898708306 24.37966604665027 C63.23722302794276 25.582604083605688, 76.53416394751763 24.157572110481773, 110.5925576660355 25.61318159429456 M109.3572967740867 23.967853815864448 C111.4139560897738 44.760790671916965, 108.90998636968546 62.39600194946426, 108.15095899657366 75.01942486985506 M109.75240601130606 25.40868970010738 C109.57591301330886 41.4970235248601, 110.32245000762599 57.62688646019641, 110.3873744204164 74.1339555834085 M109.20145690813068 75.71644865022517 C89.87666391358998 74.29703003591028, 69.75891225841467 73.8458823525453, 51.789628023786584 73.13509546960863 M109.26105914086305 75.24095088817731 C91.14241963399382 76.29854677909341, 72.02936933779488 75.702791400414, 50.15496047823851 74.01513648333855 M49.16562325477622 73.30882728396094 C51.25955239306614 59.58851709526387, 50.44449058787163 45.92589607669261, 49.16127122773329 26.547379070481885 M50.289394275829764 75.26992555005093 C48.64782735736184 61.331442596651186, 49.93552935849684 48.73832666108974, 49.52849291536426 25.898893274900757" stroke="rgb(0, 0, 0)" stroke-width="1" fill="none"/></g><g><path d="M201.86628669590002 24.588756861332005 L263.9813937769514 26.238767303807826 L262.6759093306814 73.35855457739181 L202.2573910612396 73.48240737678199" stroke="none" stroke-width="0" fill="none"/><path d="M201.43799128030594 25.101963633440036 C217.2876236698781 26.362215982733154, 233.39504994502917 24.330742165655394, 263.81813070781385 23.385993776943874 M201.4983306394817 24.348787165183847 C221.39979798687176 24.372715438722217, 240.78826630363523 24.786813979334344, 262.92622497053003 25.442739978717693 M263.2109391251749 26.555021695958512 C263.36228795861837 41.885069824540615, 262.778796567852 53.74493142540644, 261.33735694222366 75.70911829229301 M262.11789744504557 25.79448958127604 C261.717167137797 42.38611867756478, 261.3544433868386 58.0537130998214, 261.4411283942081 74.38741077322534 M262.9075797389002 75.52008605286825 C247.70169352137341 74.07043389908168, 230.4821994229779 76.02141253983929, 201.44968332749792 76.78997282516383 M261.2920198485151 75.61051160144953 C248.23259313664852 74.57172274742572, 235.5223243659465 75.45165364612747, 202.1793185452932 75.77221986485117 M201.4342715313304 74.8640461576654 C200.9359928297083 54.62831798546708, 200.729525405924 37.1093222241305, 202.37786543059514 25.0136845723866 M201.99252755685157 74.53544569795791 C203.1162770311257 55.96388983217431, 201.65284331429592 36.37811478266238, 201.2872240108249 25.40458690274462" stroke="rgb(0, 0, 0)" stroke-width="1" fill="none"/></g><text x="80" y="55" class="id">id10</text><text x="232" y="55" class="type">dict</text></g></svg>