<svg width="275" height="375" xmlns="http://www.w3.org/2000/svg"><title>Python memory model diagram showing objects</title><style>
        :root {
        --fade-text-color: rgb(0, 0, 0);
        --hide-text-color: white;

        --highlight-value-text-color: rgb(27, 14, 139);
        --highlight-id-text-color: rgb(150, 100, 28);

        --highlight-box-fill: yellow;
        --highlight-box-line-color: rgb(0, 0, 0);

        --fade-box-fill: rgb(247, 247, 247);
        --fade-box-line-color: gray;

        --hide-box-fill: white;

        --primitive-value-color: rgb(27, 14, 139);
        --id-text-color: rgb(150, 100, 28);
        --default-font-size: 20px;

        --highlight-object-fill: rgba(255, 255, 0, 0.6);
    }

        text {
            font-family: Consolas, Courier;
            font-size: 20px;
        }
        text.default {
            fill: rgb(0, 0, 0);
            text-anchor: middle;
        }
        text.attribute {
            fill: rgb(27, 14, 139);
            text-anchor: start;
        }
        text.variable {
            fill: rgb(0, 0, 0);
            text-anchor: start;
        }
        text.id {
            cursor: auto;
            fill: rgb(150, 100, 28);
            text-anchor: middle;
        }
        text.type {
            fill: rgb(27, 14, 139);
            text-anchor: middle;
        }
        text.value {
            fill: rgb(27, 14, 139);
            text-anchor: middle;
        }
        path {
            stroke: rgb(0, 0, 0);
        }
        .highlighted path {
            fill: var(--highlight-object-fill) !important;
        }
    </style><g><title>Group of 1 objects</title><g role="graphics-object"><title>Dict id10 with 3 entries</title><desc>Entries: id1: blank, blank key: id81, blank key: id12</desc><g id="object-0"><path d="M51.392872632518184 25.674452253558083 L250.61910669052764 24.90531084923586 L249.44938540957244 326.2699780249196 L48.16135336428263 325.0423194647446" stroke="none" stroke-width="0" fill="none"/><path d="M50.015661644283114 24.420383951420067 C91.40349053768408 26.691518108393876, 136.577454107492 26.798656197789576, 251.79094920833546 23.334353869138152 M49.46471396943852 24.60564769420673 C94.60384915232663 25.175706223925534, 136.81975808102206 24.3424427354079, 250.6159450453088 24.469404815552778 M250.94102071521536 25.024077441019003 C248.36469985296662 87.70196799132935, 250.53568432200663 146.59957141464358, 249.76462292108883 325.4870453346864 M249.46547496373725 24.88468922638386 C248.3704140673557 115.71745808440541, 249.4593812434867 205.73043627385857, 250.48971690277867 325.2101203322608 M248.72015220491087 325.14402413308835 C185.05610682975015 325.60692049607667, 122.1469227545749 324.6058135574457, 51.00760163304472 326.7541038978122 M249.54246496966084 324.9868514831543 C176.77642541431453 327.10108956803845, 102.33414742018459 325.7404356391318, 49.102798524573274 325.00851373137965 M49.66494913818925 323.6184524120564 C50.72318803520576 209.11090761019818, 49.05057156894111 94.28832748909974, 49.65261994945135 25.25816345122379 M49.40850640643315 324.709933230962 C50.21791537673958 261.59132905911264, 49.722393405932635 198.1293830413373, 50.64075796529425 25.12874478073907" stroke="rgb(0, 0, 0)" stroke-width="1" fill="none"/></g><g><path d="M50.110655083118985 23.457118136641473 L109.2243689671875 26.908544855605754 L108.67002993560192 73.42587842703243 L51.08769557669096 75.05955522707488" stroke="none" stroke-width="0" fill="none"/><path d="M48.60027927018946 23.311158198562882 C63.46455985991456 25.437760786139645, 77.32767167215562 24.368968977050816, 108.20750688799036 26.47745159380313 M49.37566715199449 24.93933380580509 C64.13928543183064 24.357959585840934, 77.69186111941599 25.3101653267055, 110.26457462638504 24.134819626514403 M108.38269400771478 26.165425737564938 C110.57445211091539 45.27287458278264, 111.87766876645067 62.240392745660714, 109.73920524729732 73.97334914006917 M109.06695651184465 24.371270021782543 C110.24010044660238 41.187416139497024, 109.85998985898097 57.11668651322644, 110.33625349816695 74.83447919046117 M108.60523714489682 74.54832348449506 C93.5327610557449 75.23448505419968, 76.29516965683761 73.75670114869997, 51.732817941901175 75.32975409655944 M109.49051359362672 74.97777313455607 C97.99828336035254 75.70652539096461, 84.06072801954755 74.88483226878665, 50.929168355376525 74.40553537940093 M50.12798240040702 73.11885184487195 C51.23275058723147 55.19201207740612, 49.234303411913956 34.26517391569056, 49.69569638207912 26.450624336897654 M49.1173156100061 75.96273756307318 C50.600957452927155 57.11697221649031, 49.462866561691946 40.55980452989701, 50.3499851570858 25.34950491191701" stroke="rgb(0, 0, 0)" stroke-width="1" fill="none"/><text x="80" y="55" class="id" aria-describedby="desc-0">id10<title id="desc-0">Object id</title></text></g><g><path d="M189.23789971239742 25.406373532053564 L250.79664631146863 25.12092956763166 L249.08913967191904 75.58978338486016 L189.1658852893659 75.40071652556068" stroke="none" stroke-width="0" fill="none"/><path d="M188.58422349635322 26.011604449381345 C203.33666919046664 25.96286601906925, 213.3367398489698 23.387029953563243, 248.08982765463745 25.928762243039532 M189.6864492238622 24.084836975453424 C209.66367144893724 25.83855111839622, 230.29337492792584 24.637779908004504, 249.6415712086079 24.511364728294435 M249.97382457312932 25.99105191518119 C251.29503143297427 35.39907570793291, 250.66207786262436 45.416567006720825, 250.99981598711227 76.64390764695524 M250.53061024981915 25.3166678367485 C248.9266993405641 37.402218399758574, 248.85552685909084 50.31508274800535, 249.69697779727485 75.97725443225657 M248.7760264297636 75.70241410375093 C238.0041546221309 76.08846534981836, 222.94637137648076 74.3525346389566, 189.6517480580722 76.95294371271929 M250.94892971835273 75.90677948311819 C227.66835945611984 75.11699489241992, 206.6385936140167 75.97884526178304, 189.01991985963244 74.00915486397808 M188.7711917970622 73.37700428159874 C190.30854175282533 55.559466467142265, 189.39766261556173 36.396026591193994, 190.32611205691666 23.527755210050046 M190.8358036156635 75.93202461412204 C189.5648101746947 57.948090743945066, 190.87057589188507 39.49576031528076, 189.63504235580638 25.546869945988774" stroke="rgb(0, 0, 0)" stroke-width="1" fill="none"/><text x="220" y="55" class="type" aria-describedby="desc-1">dict<title id="desc-1">Object type</title></text></g><g><path d="M75.51150453997792 99.62489345657943 L123.27016631892344 99.91898062153297 L124.05688388687287 149.26066609074553 L75.92342551067355 149.187485993433" stroke="none" stroke-width="0" fill="none"/><path d="M73.01970687826686 101.37490534189519 C87.12136136062391 99.9660368615835, 98.52873967486678 98.3195636170953, 126.13365380814398 101.53388700943933 M75.20281227910938 99.82037977001973 C94.24937439026765 98.85371446261415, 112.52927518339776 99.5484903039419, 124.95405959807267 99.46108703340586 M125.91449466305882 98.85838222039742 C124.32082933461002 115.69696030334092, 126.38171942932537 133.6392338160832, 123.01004481370039 149.04179449958656 M124.16439438006182 99.7492561442223 C124.16224098654142 113.61446335372852, 125.28238499978677 126.98011319297157, 124.58205097653263 149.5284066864397 M125.66141953409766 151.45049191578704 C114.91253720609171 150.45850732247837, 102.26255568716303 148.61163002141376, 75.89381227944442 150.77163225796198 M125.47417256182158 150.69429210495588 C106.43476168603527 149.8781715665177, 86.5791540394849 150.49051086113192, 74.28834254584145 150.76674845434414 M73.14996584044684 149.73373669246845 C74.04901453747401 134.79447412299226, 74.38565207045943 119.0702169476508, 73.4694497183537 100.52641628197777 M74.55456262552723 150.04148479238637 C74.97682134381526 131.9413665080476, 74.8904231191505 114.00468248926464, 74.35008192882603 99.56779650601781" stroke="rgb(0, 0, 0)" stroke-width="1" fill="none"/><text x="102" y="130" class="id" aria-describedby="desc-2">id1<title id="desc-2">Dictionary key</title></text></g><g><path d="M169.60079155911683 100.15010552156336 L219.9175374904922 99.98923518587536 L218.59893710099053 150.13307467405122 L171.78311365247941 150.38208956072668" stroke="none" stroke-width="0" fill="none"/><path d="M170.9342623618945 100.15404665520263 C182.7203967333124 101.9940032948923, 195.74842655093784 101.74558488852597, 220.39440090803188 99.42844637875794 M169.60352435302016 99.76659233765065 C187.75732081074977 100.35644462018492, 206.4531841068689 99.78980513511917, 220.42277414613864 99.53987852385661 M221.37628017113477 98.88274002962355 C220.94963347334806 112.7217360861906, 221.03220790129458 124.34287717141815, 221.97776197116866 148.744575457652 M219.19315602874732 100.20431306888518 C220.90881723187218 109.29586160924008, 220.36897700711154 119.35055395432084, 220.652267543522 150.69070651637605 M218.01522401252652 150.80315873009275 C205.50309367459738 148.79690732636456, 187.2983983712796 149.65575009434212, 169.3413154290722 148.22834737899043 M219.42492017428242 149.4422232134983 C206.45054144285518 150.77419098246924, 191.87575853275268 150.1188669462209, 170.9763497008626 150.2965468542534 M170.8725950456841 148.20738963193838 C169.22062233918467 131.226900890023, 168.36050322014384 116.72816228483458, 171.7657677998712 98.21816028237201 M169.39459698350757 150.87639571478036 C169.30271003360392 134.30739171621252, 169.80972127065587 119.95257709930094, 170.32504061428085 100.93488445679432" stroke="rgb(0, 0, 0)" stroke-width="1" fill="none"/><text x="195" y="130" class="id" aria-label="blank entry" aria-describedby="desc-3"><title id="desc-3">Dictionary value</title></text></g><text x="150" y="130" style="" class="default" aria-hidden="true">:</text><g><path d="M73.51653031458746 175.39135287471026 L124.1118149741277 173.95745558182927 L126.14224181227685 223.60074416209235 L74.89745930960193 226.76930221567085" stroke="none" stroke-width="0" fill="none"/><path d="M76.09124977197057 175.7839381752887 C85.26430623651908 175.19948040124038, 99.18396968626882 175.9240807918449, 123.4358230591275 173.80229231879386 M74.72061447965038 175.56071904396958 C89.43972535237576 174.2251091028327, 101.78593911524679 174.47210317458698, 125.53409902353607 174.50567838274395 M124.25150275955099 175.67451897302226 C123.81161401099057 191.0428958091959, 125.55601867355023 210.71198625943003, 124.55475580353871 226.25672275260584 M124.01865362933735 175.2754244453629 C125.80779429571874 189.97262513286265, 124.10949295656968 204.16216834739026, 124.54247472872049 224.36408466998765 M125.15173721272842 224.73555984817003 C108.12814807684114 223.37632934967598, 91.92848644550696 225.02819371426955, 75.1907121808942 225.24034289375476 M125.8225573699579 225.53440026704362 C113.28306925009416 224.52238050899024, 102.64710928520418 224.2303150989255, 74.69389164588019 225.92660402051004 M74.2064998351821 225.39548092064908 C76.43234622584234 210.3112836493083, 74.81684793679925 196.0627911742458, 74.16092976445482 175.94347615450212 M75.36882204245083 224.80345786159037 C74.84267288957656 204.24091913985328, 74.48459446090338 185.17423863948062, 74.95974259464751 175.6154520317706" stroke="rgb(0, 0, 0)" stroke-width="1" fill="none"/><text x="102" y="205" class="id" aria-label="blank entry" aria-describedby="desc-4"><title id="desc-4">Dictionary key</title></text></g><g><path d="M170.47584792900338 174.30054873198287 L231.56685884494408 173.05160889814255 L231.78910450179066 224.41106399058188 L169.08742472033484 225.06969576261622" stroke="none" stroke-width="0" fill="none"/><path d="M168.89841309707163 173.8407228327331 C188.7676083643427 174.71642962136642, 208.54300626138405 176.1812017920708, 231.8946215718768 175.86545353058875 M170.1516064443123 175.41630444677799 C190.14563620578755 175.6840312300972, 208.46705853311144 174.69799205529637, 230.9351117584345 175.53393460120262 M228.2370093945493 176.7836181835011 C229.72302135690265 186.4614292729651, 231.23188909599125 200.9684081011044, 229.31737194372482 223.7472391036247 M229.96749692827103 175.37199971218638 C230.63849761721218 188.07785556596986, 229.83541635194723 200.6944390942881, 230.33429703754905 225.10205712393974 M230.03480845358385 226.2408074478945 C207.29000340237903 226.3156963636601, 185.45839420266617 224.5952896703073, 168.11176387478693 223.91105479338378 M229.998296862344 225.57570550490814 C216.48885097233128 225.63333080880548, 204.10959232927567 224.5274673470393, 169.4191997096732 225.29112869472777 M169.34331887663052 225.37078831432848 C171.95470526097037 213.93889894211625, 171.74659882327867 201.99949699268163, 171.40389828805905 173.35331050294172 M170.62474695808814 224.86801287821592 C170.22275557152 212.05960550485477, 169.52116773292715 199.0027341609165, 169.77701696627014 175.1454910876728" stroke="rgb(0, 0, 0)" stroke-width="1" fill="none"/><text x="200" y="205" class="id" aria-describedby="desc-5">id81<title id="desc-5">Dictionary value</title></text></g><text x="150" y="205" style="" class="default" aria-hidden="true">:</text><g><path d="M73.80174639241108 249.4263711080893 L123.44114182189438 249.4310055317454 L125.04322660977893 299.1714685329396 L75.46993891556076 300.7398502746652" stroke="none" stroke-width="0" fill="none"/><path d="M74.45129068262342 248.45253918289743 C91.5354386603497 250.6388128337206, 105.0650942456185 249.57076640570887, 123.44299181596442 248.25726192695404 M75.86176543793754 250.60245499930602 C94.41997293217736 250.39694658818144, 110.93550491425103 249.23932065190948, 124.62791999605116 250.27852605293506 M123.6370696151381 248.38175112339576 C125.7642127722671 266.5687318011134, 125.02586360235321 280.58376419935115, 125.49205094040133 300.8151318161048 M124.03576490042492 250.31817274003717 C124.76770346767124 262.67215248039423, 124.11541172704271 275.19432687407584, 125.10678507828494 299.75569566973496 M123.02070162632326 298.6381342570132 C114.39343754203091 298.9892858652625, 100.84631984053075 300.01522983242506, 76.43463890477584 298.5808766005325 M124.99734884558144 300.36929487335755 C114.3597327991943 300.3969164619902, 102.15282451274088 300.13629120882774, 74.5383395346585 300.5294921931399 M75.2193294944067 299.7556851879593 C75.17036211843812 281.1166235041214, 75.91664758826144 261.26860832183974, 75.0502837186155 250.37354692831943 M74.49694929163674 299.85586152950856 C74.17949306618137 286.3245917633311, 74.9937997955982 273.49369849884033, 74.64102301606582 249.8564501950807" stroke="rgb(0, 0, 0)" stroke-width="1" fill="none"/><text x="102" y="280" class="id" aria-label="blank entry" aria-describedby="desc-6"><title id="desc-6">Dictionary key</title></text></g><g><path d="M170.55755467880323 251.67290565933874 L229.81632673088862 250.93827206480435 L230.92433617096785 301.51862378061804 L170.15431443596822 299.862021505789" stroke="none" stroke-width="0" fill="none"/><path d="M169.32926332503135 251.40260029788013 C193.30415140989237 251.51710666854254, 217.21581010250307 249.69252590470563, 231.9776540008739 248.809820000127 M170.52891035677092 249.84697299160632 C187.14307762410533 249.52178953045777, 203.78937946812906 249.44659587276308, 230.78272277056345 249.7329404210834 M230.35511344839077 251.18086470236233 C230.57521817691674 266.1353897662617, 231.59992570062812 285.9036607435909, 228.58954788022317 299.28889899856915 M229.69766771175406 249.96232509697685 C228.89223496428056 263.43237299787893, 228.68372624651752 278.3858345261767, 229.2559372221468 300.9264741866589 M229.48377618753068 298.09875911480646 C207.21908381679125 298.26884014892, 181.2183026715429 301.07055397017814, 171.65267488344765 301.8696792981279 M229.64043367849177 299.01590111562984 C209.08798950923986 299.87632947950624, 188.16860449933893 299.06424914936207, 169.18790197127282 299.45703291732485 M170.4068354081443 299.00492552413283 C171.73979541448037 287.6525698332175, 169.13511775196002 273.5990844746254, 171.15795913760726 251.07215158622188 M169.08586401039076 300.5491310216673 C169.1877040926987 289.0210624026418, 169.57596352705193 277.47699831490246, 169.8823946259131 249.46663479524975" stroke="rgb(0, 0, 0)" stroke-width="1" fill="none"/><text x="200" y="280" class="id" aria-describedby="desc-7">id12<title id="desc-7">Dictionary value</title></text></g><text x="150" y="280" style="" class="default" aria-hidden="true">:</text></g></g></svg>