<svg data-theme="dark" width="275" height="375" xmlns="http://www.w3.org/2000/svg"><title>Python memory model diagram showing objects</title><style>
        :root {
        --fade-text-color: rgb(0, 0, 0);
        --hide-text-color: white;

        --highlight-value-text-color: rgb(27, 14, 139);
        --highlight-id-text-color: rgb(150, 100, 28);

        --highlight-box-fill: yellow;
        --highlight-box-line-color: rgb(0, 0, 0);

        --fade-box-fill: rgb(247, 247, 247);
        --fade-box-line-color: gray;

        --hide-box-fill: white;

        --primitive-value-color: rgb(27, 14, 139);
        --id-text-color: rgb(150, 100, 28);
        --default-font-size: 20px;

        --highlight-object-fill: rgba(255, 255, 0, 0.6);
    }

        text {
            font-family: Consolas, Courier;
            font-size: 20px;
        }
        text.default {
            fill: rgb(0, 0, 0);
            text-anchor: middle;
        }
        text.attribute {
            fill: rgb(27, 14, 139);
            text-anchor: start;
        }
        text.variable {
            fill: rgb(0, 0, 0);
            text-anchor: start;
        }
        text.id {
            cursor: auto;
            fill: rgb(150, 100, 28);
            text-anchor: middle;
        }
        text.type {
            fill: rgb(27, 14, 139);
            text-anchor: middle;
        }
        text.value {
            fill: rgb(27, 14, 139);
            text-anchor: middle;
        }
        path {
            stroke: rgb(0, 0, 0);
        }
        .highlighted path {
            fill: var(--highlight-object-fill) !important;
        }
    
        [data-theme="dark"] {
            --highlight-value-text-color: #110875;
            --highlight-id-text-color: #6e4409;

            --fade-text-color: #BBBBBB;
            --hide-text-color: #121212;

            --highlight-box-fill: #EDB926;
            --highlight-box-line-color: #FFFFFF;

            --fade-box-fill: #2C2C2C;
            --fade-box-line-color: #666666;

            --hide-box-fill: #121212;

            --highlight-object-fill: rgba(72, 207, 173, 0.3);
        }
        [data-theme="dark"] text.default,
        [data-theme="dark"] text.variable {
            fill: rgb(224, 224, 224);
        }
        [data-theme="dark"] text.attribute,
        [data-theme="dark"] text.type,
        [data-theme="dark"] text.value {
            fill: rgb(144, 164, 237);
        }
        [data-theme="dark"] text.id {
            fill: rgb(255, 183, 77);
        }
        [data-theme="dark"] path {
            stroke: rgb(204, 204, 204);
        }
</style><g role="graphics-object"><title>Dict id10 with 3 entries</title><desc>Entries: id1: blank, blank key: id81, blank key: id12</desc><g id="object-0"><path d="M51.206633390674966 25.648956829998532 L248.77140156540145 23.00652627784097 L249.03887293354427 326.8575871977127 L50.08624515143315 325.67774145310693" stroke="none" stroke-width="0" fill="none"/><path d="M49.20835388618819 24.483041025707575 C103.35860144512579 26.199760767706714, 156.98383674845405 26.40127304612552, 249.55603831510643 23.567878098745965 M50.29028822805204 25.729303202376567 C103.88208674104207 25.13949894421653, 158.2966583006397 25.853354112469216, 250.84115491465428 25.695653827292034 M250.18945797455052 25.77557283836435 C247.53325897688032 103.73469991021958, 250.04103831544853 185.30059019467922, 250.57480556829665 325.13737466531325 M249.96993293519017 25.65238743932845 C249.77290709265992 120.48034015271627, 249.79837520172157 216.5110372354041, 249.39485491509708 325.4194895730375 M248.53272812168538 324.3560039727298 C200.25113982382237 325.9024535368861, 148.012222805807 325.42391223682495, 50.99761093619615 324.62731249356045 M250.48416988044636 325.1041914156093 C177.5558685861707 325.7853656228712, 105.13833949769993 324.47625172481116, 50.15269494210933 324.4478425880486 M50.429126815456875 326.37054718679275 C49.13897427885305 234.2156157865332, 47.37780541151923 140.0141139567609, 51.09843673399523 23.97409911975405 M50.43629181982642 325.36760413481886 C51.81695893216508 229.0848921015064, 51.96032701568574 133.23088927690546, 49.382845742849675 24.96334725206162" stroke="rgb(0, 0, 0)" stroke-width="1" fill="none"/></g><g><path d="M48.6644952716211 26.656263863543995 L111.02072859151541 24.621384763329534 L108.99334840665725 76.06870060450804 L49.23302350402232 74.21722353886402" stroke="none" stroke-width="0" fill="none"/><path d="M49.45405618108326 25.02217920738466 C66.10274436330751 22.78004834749147, 80.43373926173156 23.412315305881624, 108.66647778733262 24.174060999653605 M50.303291706026684 24.09696870733189 C73.24467140534749 24.42057503508383, 95.7332537191029 25.854852918091847, 110.3802633916824 25.482635490368708 M108.22524262941805 24.08375281094551 C108.46899121147655 44.725537198338586, 109.882089050758 61.19293231062513, 108.67927974939795 74.47973545849665 M109.68168058332948 24.351412549461852 C110.97662066255808 40.259029739068495, 110.72619890160028 54.59534393459343, 109.90805205592265 74.95067348371099 M109.05067491366945 76.5630648621183 C86.77583307456143 74.97613599169648, 66.05754639255802 73.60463575039621, 48.85133432766115 74.16694177392411 M110.93241083124221 74.39533055542763 C94.2440325297781 74.01735316646645, 76.09998568645669 74.52080597490529, 50.58440978876418 75.72635618359595 M51.95818069711456 76.31700439508637 C51.00737407714344 63.745774894130356, 49.81506932158713 49.448564519113475, 50.35334658931087 24.845056852385408 M50.093212204287134 75.94928120057219 C49.93844824908722 55.64778770804693, 49.851147952010734 36.80719428215324, 49.86377908605439 25.643849745378155" stroke="rgb(0, 0, 0)" stroke-width="1" fill="none"/><text x="80" y="55" class="id" aria-label="id: id10">id10</text></g><g><path d="M190.0183912383911 26.46520858384911 L248.07770268631847 26.186149155410824 L248.41267863936076 73.54687497671041 L188.64104655676306 75.80116306384534" stroke="none" stroke-width="0" fill="none"/><path d="M191.73739447738123 25.380942001594242 C209.19996206218417 24.40016981537305, 223.77674895498873 26.41752028830406, 250.33838419020614 23.00123421733834 M189.42301853880664 24.530535506692114 C204.43613475997424 24.82848524836449, 217.54818335169492 25.358574897433304, 249.4912914549417 24.454107179482797 M248.84223641552964 25.16129189703541 C249.54174702107576 40.574052384079465, 249.49005729598886 54.322620711786904, 251.07209397952113 74.76729181376915 M249.15654946737695 25.901506469329156 C250.54859187401922 40.439300312509005, 250.08153270757785 55.71936941853032, 250.240147175872 74.91845758680236 M250.05798294100688 75.15901881746458 C228.85515498110615 75.57230014274262, 206.1749968798944 73.74460712830431, 188.06561569428385 76.8577384081962 M250.0597681050678 75.17282013092868 C225.6718349096629 73.88622354232285, 203.11008433232726 73.83975573860874, 189.4544831822013 75.6006574351372 M189.07778215429923 75.12577660705931 C191.17878069358696 64.12167304343441, 190.07408038064352 51.56002683365085, 189.73319233726883 24.451989157142503 M189.22692341903587 75.76831159576527 C190.4941971863559 63.20009057726766, 189.7703531852113 50.803685471467574, 190.94940677911202 24.502155454399777" stroke="rgb(0, 0, 0)" stroke-width="1" fill="none"/><text x="220" y="55" class="type" aria-label="type: dict">dict</text></g><g><path d="M75.50314750103676 98.70315581923079 L125.29489475474726 98.42364675693057 L126.18448031330112 151.3293457138928 L74.04715698560243 151.03868547903423" stroke="none" stroke-width="0" fill="none"/><path d="M75.04820154845417 100.24413758871562 C89.0560020421703 101.3805548521025, 107.07823911204603 99.26132410587962, 123.555584248808 100.65217534849683 M75.52381027700397 100.92138537747714 C90.76405068453278 99.5325934405571, 106.2485262369585 99.92106044005705, 125.98448649983489 99.09524717209759 M123.40895545662596 100.66160973225887 C124.12515775992092 115.77511689225054, 123.11575549188547 129.33554467584955, 123.18316762151743 149.690949025693 M125.23869202180683 99.92395581494095 C123.88105350043561 114.83470101797025, 125.05796418316807 130.6921102238111, 125.89906989494224 150.72563253166663 M125.65296066489813 148.80036856870876 C111.94090895492396 149.75294153064806, 94.99384952571855 147.65778987909158, 75.21906415006619 149.39917841968702 M125.11833257396032 150.02347418522663 C111.83807738314106 149.8597829282795, 100.35394571134141 149.6386069614887, 75.10675842683054 149.785214152382 M73.69435856352334 149.6398218300572 C76.53162765810129 141.04037091875975, 76.26256473554507 128.64497456776576, 76.95959314616127 101.52542236752564 M75.3489467848739 149.79238975013863 C74.95162632493656 133.61835400190535, 73.7619667041738 116.88742594898366, 74.54060877428073 99.34965575375954" stroke="rgb(0, 0, 0)" stroke-width="1" fill="none"/><text x="102" y="130" class="id" aria-label="key: id1">id1</text></g><g><path d="M170.16478093904183 100.47545447818177 L220.56783375273122 98.25939472511011 L218.0149544258299 150.44176318526473 L171.80124017589745 148.8299814948987" stroke="none" stroke-width="0" fill="none"/><path d="M171.60802293598178 99.72569796660926 C183.39670565628663 100.53833367239766, 200.9328233763142 100.92749671327338, 220.9018091101123 101.52257913548874 M170.86732058320908 99.98089462731966 C183.10382049868738 98.99696252533447, 198.17076012858016 99.10311347775894, 220.6723612153084 100.75192737918451 M220.3248988441518 98.28018504095272 C220.68241605355698 115.25638253677342, 220.20420947043004 127.55030989529627, 219.68882102072445 150.94630895625997 M220.83886918742326 100.18541004583898 C219.7425981897236 110.57611042766412, 221.30216078799856 121.71077207910349, 219.17733214081645 150.0604664378769 M219.2685284016853 149.79228570723555 C203.35135151516008 151.93334453630587, 191.42785724571004 151.94326289357141, 171.71316098282833 150.57581554641808 M219.34364989659414 150.89377298924646 C200.30203602856153 150.17512151407092, 180.72590986905072 149.8519668358625, 170.3706436018365 150.6192192824284 M170.2753415335294 149.09324617571016 C169.53193409150026 136.72714061625868, 172.11200503734844 127.06575127201259, 170.49483334355494 99.17271519761522 M169.11959399994575 150.60941968875372 C169.93880011350458 133.63123951884097, 170.53474436007681 119.24966019095156, 169.9705591347374 99.71650953324314" stroke="rgb(0, 0, 0)" stroke-width="1" fill="none"/><text x="195" y="130" class="id" aria-label="value: "></text></g><text x="150" y="130" style="" class="default" aria-hidden="true" aria-label=":">:</text><g><path d="M75.13158311379715 176.4854442928411 L126.74824033789172 174.6312228899279 L125.49511532515601 223.21003722163212 L74.26755893929752 224.95809704297994" stroke="none" stroke-width="0" fill="none"/><path d="M76.73060331474711 175.5445338815927 C92.4351353370355 175.69784128917215, 105.51419156512421 175.50271256601854, 125.80060487162048 176.56089632076225 M75.88210101889754 175.22110642389774 C84.71061083051669 174.61828787189611, 94.84522803068477 174.28826637502183, 125.58396712965408 174.1044179367748 M125.61957853480344 173.69399628169333 C125.52702468577505 194.2878307557145, 126.85219027083596 212.56084136703598, 124.21919966301004 223.81078998564465 M125.37392930893385 175.4007237161581 C124.27101045399901 193.0936991743364, 126.01359527010507 211.23236869385596, 125.89901868607402 224.33360730673465 M123.17744376068902 223.02651591972125 C114.91637906769246 227.09474823633875, 102.0142061355667 224.76805629554255, 73.11887469401944 225.60849713073776 M124.24165864454761 224.1490126669797 C107.00922909748671 225.59916609282692, 86.6147300141251 224.18255959481652, 74.71751940469485 224.894680384175 M76.35558752932974 223.36496002313504 C75.42944933980212 207.39868893697331, 74.16005452455202 191.99533647771062, 73.28656324771381 176.83969310176857 M75.13208591750238 225.77915067091644 C75.37701223970457 212.37527827131336, 75.32941789842006 198.8182469963946, 74.85467944771396 174.3692328527579" stroke="rgb(0, 0, 0)" stroke-width="1" fill="none"/><text x="102" y="205" class="id" aria-label="key: "></text></g><g><path d="M169.45350437196902 173.76748507978684 L229.7084932351685 176.3922860721547 L229.21263932034688 225.66298830310538 L169.801219263484 225.6686303390011" stroke="none" stroke-width="0" fill="none"/><path d="M171.8201553385718 175.1278249591604 C189.6843566948241 176.8757569699434, 207.28295587790956 174.39987091573164, 228.6116025398886 175.60439717209687 M169.1526960297506 175.634276781545 C186.11057716863274 175.72366911654774, 203.15162007938824 174.87183424532654, 230.0423514405527 174.6271132730232 M231.13818151235643 174.0068216069593 C230.16173647473954 190.25653363697478, 227.8011818755966 201.2281420018024, 228.60211047068063 224.70770208118952 M230.51143854370662 174.97855803247919 C230.20719914297092 185.72066697476836, 230.48515566963206 195.25785257796187, 230.940316235446 224.1512185997187 M229.79841000712605 223.45805762850148 C210.7028053956189 226.41097907041916, 188.36038938445515 223.84630973509357, 168.77611735018 226.79145793385368 M230.3535727662407 225.42596576757256 C216.2839050785462 225.56149117041562, 201.61304468674697 226.04116931720728, 170.92021694012422 225.23490186652376 M169.7488580070273 225.83953564750567 C168.79459424304923 207.08762049988485, 172.01792721250789 184.86740567738443, 168.16305204501353 176.11107579657698 M170.5345415715557 225.3709832907273 C169.22195519304273 209.62648220928074, 169.3368771591937 193.3812833683655, 169.92490532248954 175.39561460483648" stroke="rgb(0, 0, 0)" stroke-width="1" fill="none"/><text x="200" y="205" class="id" aria-label="value: id81">id81</text></g><text x="150" y="205" style="" class="default" aria-hidden="true" aria-label=":">:</text><g><path d="M76.9854754066995 251.81688747809852 L125.80431686373817 249.444765141766 L124.59298302790552 300.4951594587531 L73.23811862896373 301.2308813897793" stroke="none" stroke-width="0" fill="none"/><path d="M73.11319204055522 248.3341565240456 C86.67723310268774 248.80012369506923, 99.556550620273 250.96870253939562, 125.74395756081879 248.21723413764525 M74.72942272156723 249.29493365718267 C93.88255147896011 250.0010268640343, 114.23151750447963 250.3063346942031, 125.4152897945674 250.11214787740244 M123.16067721681642 251.54186863979788 C125.52964497533155 262.4970855579677, 126.05548250217751 274.66124857570816, 123.1022559130643 300.49491885541755 M125.85665475049464 249.9048355980849 C125.88460975479286 264.50028970059606, 125.54315330348507 279.66908594492855, 124.02284877388504 299.215919988251 M125.76647420147758 301.6910103010582 C110.12476102264601 299.9797138952192, 94.05348999090845 299.22188708672905, 75.79197016486029 300.79586180677114 M125.79423604853717 300.1647957835727 C108.26856453887525 299.6508069686208, 91.07208635499097 299.71003359932683, 74.95622654113672 300.0153184085909 M73.0382961129593 301.06703774966593 C73.23667929936583 278.8969140443806, 73.28742635956966 261.3174801224943, 73.91393916137676 249.47512293226868 M74.82715442398444 299.378910172967 C76.01633752733217 286.9241197510466, 75.04473600962413 276.44436918833776, 74.94728704939094 249.48473300701212" stroke="rgb(0, 0, 0)" stroke-width="1" fill="none"/><text x="102" y="280" class="id" aria-label="key: "></text></g><g><path d="M169.22765157149541 251.20001085169844 L229.44459288969918 249.8973264281325 L231.94306938585086 298.70475752683734 L169.00593355508224 301.81904439826417" stroke="none" stroke-width="0" fill="none"/><path d="M171.62247872457178 248.70613904430076 C186.153310334574 250.42103795318937, 202.20262766683092 249.12971380633547, 228.66561819508425 248.62929114499747 M169.81503407591313 250.74378079988236 C191.0650995811744 249.86679098690743, 211.3065344092013 250.99234891472057, 229.6372552594894 249.8755650217111 M231.43561478398757 250.02042316111317 C229.9806106075843 265.00502635813746, 229.77416024333695 281.18500858204317, 228.57511572983188 301.725582541524 M229.80436544021543 249.19180876272233 C229.98763472405747 261.2191505623374, 229.139708183038 271.79350774165664, 229.48934768570498 300.2561557924771 M229.11696646949798 300.0027151981471 C208.277722361086 301.07845597193705, 183.95948605979845 300.69529014644127, 169.0198102129657 298.4989875897522 M229.4613391715187 299.1390473310904 C217.86896221152097 300.5240100079489, 204.15491704785717 300.46750545280054, 170.43036029648334 299.6394466424778 M169.8047528050442 299.9895308255465 C171.5278076105921 286.74416412993395, 169.8792036883998 275.59153907753637, 171.64135174461637 249.36383775807968 M169.03894959532906 299.86047744346945 C169.87515591254288 289.7655072299001, 169.57886822848454 277.3827832935375, 169.17475062269233 250.32816002727776" stroke="rgb(0, 0, 0)" stroke-width="1" fill="none"/><text x="200" y="280" class="id" aria-label="value: id12">id12</text></g><text x="150" y="280" style="" class="default" aria-hidden="true" aria-label=":">:</text></g></svg>