<svg data-theme="dark" width="275" height="375" xmlns="http://www.w3.org/2000/svg"><title>Python memory model diagram showing objects</title><style>
        :root {
        --fade-text-color: rgb(0, 0, 0);
        --hide-text-color: white;

        --highlight-value-text-color: rgb(27, 14, 139);
        --highlight-id-text-color: rgb(150, 100, 28);

        --highlight-box-fill: yellow;
        --highlight-box-line-color: rgb(0, 0, 0);

        --fade-box-fill: rgb(247, 247, 247);
        --fade-box-line-color: gray;

        --hide-box-fill: white;

        --primitive-value-color: rgb(27, 14, 139);
        --id-text-color: rgb(150, 100, 28);
        --default-font-size: 20px;

        --highlight-object-fill: rgba(255, 255, 0, 0.6);
    }

        text {
            font-family: Consolas, Courier;
            font-size: 20px;
        }
        text.default {
            fill: rgb(0, 0, 0);
            text-anchor: middle;
        }
        text.attribute {
            fill: rgb(27, 14, 139);
            text-anchor: start;
        }
        text.variable {
            fill: rgb(0, 0, 0);
            text-anchor: start;
        }
        text.id {
            cursor: auto;
            fill: rgb(150, 100, 28);
            text-anchor: middle;
        }
        text.type {
            fill: rgb(27, 14, 139);
            text-anchor: middle;
        }
        text.value {
            fill: rgb(27, 14, 139);
            text-anchor: middle;
        }
        path {
            stroke: rgb(0, 0, 0);
        }
        .highlighted path {
            fill: var(--highlight-object-fill) !important;
        }
    
        [data-theme="dark"] {
            --highlight-value-text-color: #110875;
            --highlight-id-text-color: #6e4409;

            --fade-text-color: #BBBBBB;
            --hide-text-color: #121212;

            --highlight-box-fill: #EDB926;
            --highlight-box-line-color: #FFFFFF;

            --fade-box-fill: #2C2C2C;
            --fade-box-line-color: #666666;

            --hide-box-fill: #121212;

            --highlight-object-fill: rgba(72, 207, 173, 0.3);
        }
        [data-theme="dark"] text.default,
        [data-theme="dark"] text.variable {
            fill: rgb(224, 224, 224);
        }
        [data-theme="dark"] text.attribute,
        [data-theme="dark"] text.type,
        [data-theme="dark"] text.value {
            fill: rgb(144, 164, 237);
        }
        [data-theme="dark"] text.id {
            fill: rgb(255, 183, 77);
        }
        [data-theme="dark"] path {
            stroke: rgb(204, 204, 204);
        }
</style><g role="graphics-object"><title>Dict id10 with 3 entries</title><desc>Entries: blank key: id81, id1: blank, blank key: id12</desc><g id="object-0"><path d="M49.7991982541236 25.361979517404563 L248.8608569262181 26.168517311993334 L250.05139136053353 326.4211023216081 L51.686868999729434 324.8951531803238" stroke="none" stroke-width="0" fill="none"/><path d="M50.31569050723689 24.07627950208543 C120.60103851852037 25.116195363560934, 191.2742173076292 22.738759866541287, 249.79470337083185 26.008070212399737 M49.96181679389341 25.466582462756246 C118.2712520017297 27.156079452621544, 186.05168031317578 26.87719314871506, 250.42033351441128 25.562902333325393 M251.43579710288773 25.462335060636338 C250.0328583473793 97.36574001917684, 251.64497662821694 171.71188346583716, 248.863629900279 325.07955817576436 M250.31461690792605 24.93564496503595 C251.1368632885708 110.98583412160255, 250.8201113053524 197.5023619223386, 249.95402018816938 325.6408848810959 M251.25342087940143 323.5381334605169 C190.26925489532377 326.1389530009261, 129.66972729789404 325.79281512718967, 50.05599951132112 326.73671651946023 M250.77116986848853 325.3790718938065 C176.22127165056023 323.705886738315, 101.76439958577166 324.4267473686088, 49.920672728182666 324.38755049027026 M51.313561188353034 324.8727408111532 C48.85436985192652 229.69704205809495, 48.82323615164721 135.6879011066715, 49.56413859180326 26.315431546850114 M49.26673499009292 324.2979327111953 C51.75330197158947 232.28442714075115, 50.74703568339249 140.23246087728384, 50.28088847125425 25.674184110818477" stroke="rgb(0, 0, 0)" stroke-width="1" fill="none"/></g><g><path d="M75.8794940945761 100.948703355664 L123.96400128546611 101.0474163332047 L124.40926057947038 150.33574488064258 L75.62061186313775 150.70229130650515" stroke="none" stroke-width="0" fill="none"/><path d="M75.64067256800287 101.4031934783663 C86.31870941414378 98.76811273215661, 94.78231777740548 99.03352834545794, 125.12119938523807 98.48155482070025 M75.11548168984405 99.03195533630903 C93.34318037648016 100.56227764274927, 112.75351486318976 99.09081149651433, 124.8063600120152 100.61231348927681 M125.94308288439979 101.20491071236164 C124.3423683874872 119.17926614755177, 123.53755825397403 137.2983227736086, 125.13539641040765 150.87032571941944 M125.70761444425739 99.4690217856889 C124.54369889115384 118.2070626054947, 125.96214735314899 134.8333698603314, 125.82035071957736 150.89313684488965 M124.61181279235694 150.75938437771674 C114.40093315887175 151.51797317003485, 104.59079723200487 150.27326833362693, 73.8335749424358 151.6269785541938 M124.10451352978272 149.52485152009075 C112.24783894624174 149.7749383938154, 98.90528080878053 150.52682511000788, 74.92063520123644 149.77042623697906 M75.30889756552375 148.49357331319632 C73.18100987091177 137.050388206982, 74.64717960033703 128.08167531377293, 75.08974607171139 98.0482803656245 M75.45149060100628 149.27838372782543 C76.39005967846634 139.68840340836613, 75.99585169948577 129.57560257840507, 74.65495182812177 99.3065097215686" stroke="rgb(0, 0, 0)" stroke-width="1" fill="none"/></g><text x="102" y="130" class="id"></text><g><path d="M73.1514221852289 174.28663117017393 L126.60543906193477 176.6367999839615 L123.22661161607627 223.27108381520173 L74.28662743700046 226.24571921810667" stroke="none" stroke-width="0" fill="none"/><path d="M74.59606062014872 175.44159431465408 C86.93740418991864 174.83549735492048, 102.10119931609859 174.17094829244255, 124.71199914386831 176.77769460833548 M75.60316372984072 174.47709731102876 C94.2749843155627 174.8081529011144, 115.28140794815089 175.62108590094914, 125.93585916480951 174.9507709644613 M125.24145633446405 174.89517467834847 C125.12764681517187 193.41779442562347, 123.03776587736415 207.25802013800018, 126.20033337663084 224.0201657902351 M124.81616562030793 175.67099172021645 C125.4541122738854 190.01227275945254, 125.33345685794026 203.79506685681315, 125.95977823193618 225.33124085219663 M125.75441708648147 225.94605393648564 C112.76872025200849 223.73486898723667, 103.77320796352471 223.45973425495194, 75.228356827468 225.65040261610275 M125.81395278273803 225.9289944857944 C113.953853960114 225.37074699655946, 103.98679363642036 224.0272372579261, 74.24086328002248 224.06015969685993 M74.9381891280009 226.02742047373764 C76.47223378453872 204.99921708046895, 74.68936323994048 186.09222175425026, 75.91515754649517 173.84498649373552 M75.90938727219847 224.0817321660201 C76.28850700972554 206.38859212015063, 74.78594352293669 188.4489700042542, 74.2913618899323 174.95574524185992" stroke="rgb(0, 0, 0)" stroke-width="1" fill="none"/></g><text x="102" y="205" class="id">id1</text><g><path d="M74.00306442345872 251.68348171867237 L125.50375606807759 250.56505581674247 L123.06666851101988 299.9441494271246 L73.38640469419157 299.3001972285599" stroke="none" stroke-width="0" fill="none"/><path d="M74.55697950766493 248.37728210978966 C88.59389309112572 248.58260318127338, 100.90421261075319 250.70675166673448, 123.27443296254346 248.52625680444893 M75.96892570198027 249.0597181295413 C86.94114539302632 250.9818431101332, 99.83518039627567 249.52076655880182, 125.55127462205783 250.69080879617871 M124.9564688318861 248.85846792268006 C124.50808670349309 266.9518180595417, 125.09876302403438 281.8850104759508, 125.08819099876992 300.1878422606031 M124.44501855427717 249.28708071710957 C124.75500272656592 259.89395767961423, 124.9109096393378 270.79039992759584, 125.71058718240343 300.0070073779598 M123.74849116634425 300.33573307892397 C113.2100201103737 300.4377993117704, 100.36281695043535 300.99385104723393, 73.63746982216526 301.4222108464027 M124.69611993469269 300.35582833719883 C106.17945429480766 299.37332906445573, 86.1626720238737 300.7625282988846, 75.5331267765685 300.95976134908443 M76.01509663573356 301.1264737494377 C75.84927059361631 280.2127664162356, 75.2895030696001 262.96611244757753, 76.69410895665976 248.52807392675712 M75.056997288532 300.97528292064345 C75.55364868386775 287.100483795665, 75.2302348059556 275.7197807987265, 74.82655399774107 250.29833972053348" stroke="rgb(0, 0, 0)" stroke-width="1" fill="none"/></g><text x="102" y="280" class="id"></text><g><path d="M168.0014581593992 98.93379732539817 L229.91147148889397 100.42668955557815 L228.75714722542045 148.5812957548214 L171.53451584177225 151.5540800773314" stroke="none" stroke-width="0" fill="none"/><path d="M171.84732382110425 101.03353373113649 C187.88150525499236 98.15592274089109, 206.75071719199426 100.7117454813969, 230.0761132991635 98.11584813803162 M169.77490200912874 99.78485605633759 C182.81025313428316 100.38025928741224, 195.59462338880795 99.97418488319566, 229.94575504578228 99.588454136968 M230.52666780027403 100.51004498901935 C228.77665045210702 111.80622716823197, 231.07543868399426 125.31272409794506, 229.6998484234094 149.7291987809273 M229.15041382095447 100.18251976242667 C230.46891253011893 109.80468753254921, 230.50605409913854 120.90816801525509, 229.51003058718118 149.8074592475866 M229.51022055145532 150.93564031958547 C216.31865854911703 150.21735406770318, 203.83989598285424 149.23776398803594, 169.2632809012856 148.9880247260923 M229.28949242948121 149.4004376538277 C208.6936965434391 150.1655678638791, 188.51552676139838 150.6953324787671, 169.899318279457 149.03287804777665 M170.2545205908758 149.90413039226428 C169.73294720865104 139.42136993410625, 169.07656829101168 127.402822934007, 169.81553978535564 98.24865891285934 M170.62248437974424 149.96028394339783 C171.18217940680222 138.19567669497548, 171.3488867096799 126.09419033342148, 169.35288201131925 100.67484862573141" stroke="rgb(0, 0, 0)" stroke-width="1" fill="none"/></g><text x="150" y="130" style="" class="default">:</text><text x="200" y="130" class="id">id81</text><g><path d="M171.24301376700058 175.5329688541415 L218.64211572062035 176.32895248762767 L219.61870460873817 225.28588301105552 L168.18833779147053 224.51601266721465" stroke="none" stroke-width="0" fill="none"/><path d="M168.50040655999067 174.98225464925517 C182.10674990022974 177.35825161728494, 190.318359622124 177.1356987666755, 221.1467743721157 174.67515388084908 M169.29863697266768 174.9494278172942 C184.25860936868077 175.51710683571298, 198.00321237412922 173.88744788456296, 220.34268227221568 174.06292216131231 M221.12513363467173 175.88433066455252 C218.031501925865 188.96089179981809, 218.33507206251033 205.73155892894408, 221.43306189463542 224.04508302808057 M220.53103107340942 175.49184849584512 C220.14595104888227 188.88009691569022, 218.94898403649188 200.0055852343656, 219.39736989414715 225.3053146728845 M220.54343857734196 225.20687341836853 C206.34694127967185 224.08320918019257, 189.99933278389204 225.66923540891372, 169.77458211417837 224.55935319764234 M220.82148357699515 225.26507797016484 C203.40186591854064 224.5266364544926, 187.55218861032589 226.154437219737, 170.63345408901804 224.57503434813282 M171.26730665890005 224.42054829090404 C168.7731847245663 207.44458214325783, 169.35503236920712 187.33333213532853, 169.31676141984525 173.98315175474679 M169.45568507940996 224.91589548640903 C169.2671210818134 211.12826922601218, 170.76067987243167 195.23486568162627, 170.73735332833692 175.74498847508102" stroke="rgb(0, 0, 0)" stroke-width="1" fill="none"/></g><text x="150" y="205" style="" class="default">:</text><text x="195" y="205" class="id"></text><g><path d="M168.68379832433092 250.17257375709758 L228.15063412752005 249.27590934001412 L228.51217197030752 301.76124930724757 L170.26167881628552 299.0837598542818" stroke="none" stroke-width="0" fill="none"/><path d="M169.1032784241815 250.27308997510124 C183.6300277465458 250.0334737157338, 200.97035481015547 250.89402342892737, 230.5716202714208 250.51424066958103 M169.6183733757766 249.45340555326146 C183.49141810962033 249.14373274537482, 198.27477086712082 250.44425367357206, 230.01453149971573 249.67843417826654 M229.0356370413583 250.32235620533893 C231.0509292376471 265.14560818663807, 230.9387236751552 277.313923450104, 231.39202915957875 299.40962966540053 M229.2136740594082 250.608550843742 C229.3659893955262 262.3307168449643, 229.4726932506421 275.5714666911361, 229.55432519260268 300.2634383496214 M230.89480039124476 300.2779817804506 C209.9164496047103 299.6380968945755, 188.34766067099088 300.50806521110644, 170.0326241353288 298.5500493597167 M230.27408315150416 300.488214423821 C206.9742237949572 300.3184564537547, 184.6927522473655 300.73798797643127, 170.93091398854042 299.20178107253224 M170.17397291586693 299.21625687304186 C169.45061884948194 290.2523937964667, 168.90614295603876 278.6632909793183, 168.3228770961345 248.17191523463168 M169.11198389943928 300.0249355424914 C171.10102271185417 281.66516630973587, 169.54461138941798 261.9725851298844, 170.83858783606289 250.551403929245" stroke="rgb(0, 0, 0)" stroke-width="1" fill="none"/></g><text x="150" y="280" style="" class="default">:</text><text x="200" y="280" class="id">id12</text><g><path d="M49.605610802144895 26.559836229579155 L109.6462545027785 26.48524252609114 L108.0109656879358 74.93127042826471 L50.92157304625625 73.2366713551391" stroke="none" stroke-width="0" fill="none"/><path d="M50.448441671962975 23.27768822064784 C62.614569726273196 26.31497481673587, 78.10322437081848 23.924812454758527, 111.62410359100292 25.22314462104564 M50.74041243912112 25.13746579410702 C72.6025013998811 25.843823492954314, 97.27463882587487 25.85656608953957, 109.4448592925382 24.955719697447314 M111.88302536893394 23.209389632261228 C111.04873825553238 42.577280648894615, 111.89279505826718 58.44078776215431, 110.58360587781011 74.6083978019805 M109.3971347929506 25.539860026319808 C109.9295329771273 45.5563277039896, 110.99185336974251 64.19447477948113, 110.33285595941366 75.25686988842479 M111.23589961725223 76.10634285415432 C95.75369684436906 75.28477833005132, 82.63349478932207 74.38762758697223, 48.40427894503337 76.86055164827809 M110.14686052656327 74.23415822880594 C96.43996527634322 74.41910619674636, 82.58891357425378 75.61190519806094, 50.69492458884788 75.34899639337266 M51.01769892664632 74.21965121726494 C49.83268881839395 56.79061484633791, 49.43270050836964 38.54974612242079, 49.17732106630454 25.68046040092537 M49.46772981684502 75.0007975609469 C49.0776468739403 55.72842047414375, 49.59128094203806 36.62089305965177, 50.369966464061015 24.360938688793265" stroke="rgb(0, 0, 0)" stroke-width="1" fill="none"/></g><g><path d="M190.56373314877408 24.30357553833717 L248.36271089372985 26.162385728674362 L248.80385729321404 76.14659938303146 L190.51202028028666 75.0569929666882" stroke="none" stroke-width="0" fill="none"/><path d="M188.20629896997957 25.525849662058395 C210.32902469113904 26.706761141426885, 229.929924295329 24.758130637473506, 249.3201829033497 24.40581143237221 M189.19852704022063 24.40441740874231 C205.1194714731633 25.426773327329816, 217.52723975977648 25.52456811347128, 249.90986267032076 25.6393159595679 M248.4739154371085 26.01831975747297 C248.96290922397455 35.091369316415005, 251.0491752892841 47.594223605650384, 249.0430449822532 75.76779142383592 M249.38640184106902 25.520983098475234 C249.22407128562315 37.163938977337175, 248.99249397137166 50.22088791584823, 249.69776232470784 75.06066627507552 M250.95874035780764 76.20622561459571 C234.0531513897859 75.03752254718205, 221.21059979324872 72.55128152717604, 189.99330562122756 73.91856825846455 M250.7612338629034 74.37484942269202 C227.40458548243765 74.40691650436412, 204.78539953103652 75.11721989088102, 190.8177016106217 75.1410043251156 M189.17560105807132 74.69316067711921 C189.45225927146126 64.05756554385191, 191.2573628896216 51.56221653769063, 190.05331842409294 24.06788643679812 M190.2058382125396 74.21252963544308 C189.95787511638565 62.48629876738767, 189.41049264232646 49.87999213977533, 189.5544892502487 25.96365569484498" stroke="rgb(0, 0, 0)" stroke-width="1" fill="none"/></g><text x="80" y="55" class="id">id10</text><text x="220" y="55" class="type">dict</text></g></svg>