<svg width="275" height="375" xmlns="http://www.w3.org/2000/svg"><style>
        :root {
        --fade-text-color: rgb(0, 0, 0);
        --hide-text-color: white;

        --highlight-value-text-color: rgb(27, 14, 139);
        --highlight-id-text-color: rgb(150, 100, 28);

        --highlight-box-fill: yellow;
        --highlight-box-line-color: rgb(0, 0, 0);

        --fade-box-fill: rgb(247, 247, 247);
        --fade-box-line-color: gray;

        --hide-box-fill: white;

        --primitive-value-color: rgb(27, 14, 139);
        --id-text-color: rgb(150, 100, 28);
        --default-font-size: 20px;

        --highlight-object-fill: rgba(255, 255, 0, 0.6);
    }

        text {
            font-family: Consolas, Courier;
            font-size: 20px;
        }
        text.default {
            fill: rgb(0, 0, 0);
            text-anchor: middle;
        }
        text.attribute {
            fill: rgb(27, 14, 139);
            text-anchor: start;
        }
        text.variable {
            fill: rgb(0, 0, 0);
            text-anchor: start;
        }
        text.id {
            cursor: auto;
            fill: rgb(150, 100, 28);
            text-anchor: middle;
        }
        text.type {
            fill: rgb(27, 14, 139);
            text-anchor: middle;
        }
        text.value {
            fill: rgb(27, 14, 139);
            text-anchor: middle;
        }
        path {
            stroke: rgb(0, 0, 0);
        }
        .highlighted path {
            fill: var(--highlight-object-fill) !important;
        }
    </style><g id="object-0"><path d="M49.65445769248039 23.5077852386806 L248.55734225029633 25.942078947322212 L248.3574702907426 324.7444013451449 L51.69513396401911 323.68399603687794" stroke="none" stroke-width="0" fill="none"/><path d="M50.54585417194159 23.436457325368597 C102.02988711678461 25.340484201358855, 153.26649576599613 26.658025025769966, 248.51857679142478 26.21019458828409 M49.3416247603225 24.600843986875784 C114.44238295427932 26.333017120961987, 179.6857740338975 26.88697296900355, 249.33821133945094 25.19277425931557 M250.8558611717281 25.65637093192212 C249.34685273529988 92.23991173991334, 247.22583730824135 160.59302344145794, 250.64581183832038 325.4096916766518 M250.0308142498324 25.223642396423056 C250.79105415736475 128.08259881891817, 250.09401246670447 230.00889801548524, 249.81352267411745 324.8101403876118 M251.03590227856998 324.7390442623363 C209.0683249827967 327.23480036167194, 165.81785099892966 326.63091839468586, 48.32539039609664 325.27731652510556 M249.74638620728265 325.26922499696303 C201.55185472457197 323.5981442281347, 152.4103085696196 325.0700679607766, 49.53368646696116 324.9311313634934 M49.35369426048734 326.44007560500836 C48.21965266932487 247.2720800177066, 50.40260901640497 173.2884132371635, 50.049093130336445 26.457029888519756 M50.488039425276085 325.28565510100674 C48.56966600633921 215.35367446253198, 48.41676133726808 107.51043821263607, 50.31197916212828 25.170022338053855" stroke="rgb(0, 0, 0)" stroke-width="1" fill="none"/></g><g><path d="M73.9847682404235 101.90240243951592 L125.26347796265482 101.93860272514578 L125.41091726442761 150.76284305480834 L74.18766422311256 151.32868631528683" stroke="none" stroke-width="0" fill="none"/><path d="M73.05748212361105 101.77468072458929 C89.50800862885865 101.48922757227447, 103.9654301553727 98.27906704138653, 126.06320718403539 101.53216696183513 M75.56116488154986 100.0435814932892 C92.97248281598031 99.71404802927671, 109.03063190089729 100.79686076010496, 125.00511198763165 99.8014204922101 M123.00203951965338 100.68808279742733 C124.227373554765 112.10879767054968, 124.39586803936017 125.34735958439943, 124.62394266353643 149.71244001404742 M125.95820528244946 99.69179211155222 C124.32345549229078 116.13168064560672, 125.41343200740712 134.58160404898896, 125.18467371367323 150.43203685803184 M126.06937279210709 148.86084460552246 C105.57570745118146 148.93796084070985, 87.10665824055289 148.07833919838401, 74.26253358395783 150.60272352282763 M124.3345013008237 150.063174300243 C111.88362348832943 149.25155504277038, 100.2750148213983 150.20268981595106, 75.25475398582178 149.21852045485673 M73.22807253321803 148.5349558877942 C73.53030856681384 129.67546492015063, 75.38666018930434 113.77345396452102, 76.47887309909224 98.51457693939093 M74.87797864501793 150.691331504807 C75.42861649012039 139.52232086004582, 73.66126086859904 129.3887923749381, 74.51688128069377 100.6442670583161" stroke="rgb(0, 0, 0)" stroke-width="1" fill="none"/></g><text x="102" y="130" class="id">id1</text><g><path d="M73.87984804861289 173.9388272541984 L124.50600499701022 175.09440891908326 L125.12474459702965 225.0276167396615 L74.86089775181131 226.92608263640435" stroke="none" stroke-width="0" fill="none"/><path d="M73.29441568124011 176.15773761296555 C90.45672132292447 177.13576098318958, 104.2773922550915 173.7458770493173, 123.62399578782205 176.32909150253104 M75.52928160115854 175.14856826561285 C87.98078263621058 175.72007453011958, 99.99168430753727 175.7803161031833, 125.8972922303796 175.13411398609696 M125.70605817295875 175.0495466049137 C125.64853452879855 192.69428149369847, 126.43931129733122 212.74137592913513, 123.86788815104491 224.51515521056052 M124.70385074688137 174.1151370731793 C124.43811501440689 195.79089503506285, 125.45537487447687 214.8698302995145, 125.1742785947822 224.69215362206526 M125.64192778111067 226.63661433668182 C106.72777756619382 224.4027347771866, 92.10901634872894 223.73357047512206, 74.14061599784081 225.5782822679764 M124.07247236601272 225.74958537455797 C113.00247065578151 224.46604129188984, 102.18089724576595 224.98525385906564, 75.0196343144582 225.9031610577628 M74.16661591395673 225.3690729757091 C74.6474826468572 211.95218071448244, 74.51033809273827 199.73361120831697, 73.13689084303813 173.05374273981997 M75.99020991442418 224.12113495313756 C74.1090706691432 214.40392572696007, 74.43023263517004 203.48218217359437, 74.62885137087802 174.87862991021265" stroke="rgb(0, 0, 0)" stroke-width="1" fill="none"/></g><text x="102" y="205" class="id"></text><g><path d="M73.3897798496954 249.28150183971863 L124.63109595065005 251.73714963587307 L126.60387009739567 300.61714634107136 L75.78927371529996 299.8847038399167" stroke="none" stroke-width="0" fill="none"/><path d="M75.57686011515297 249.4262023659528 C90.56917263322119 249.14164279969444, 106.86839077832497 249.81188160240458, 126.89316539677205 251.53944757842402 M74.10295900598977 250.81244327366264 C90.47624149647736 250.30160919272777, 107.9480811720901 249.66444690096242, 125.43159116884678 249.11631731028262 M126.2539060511045 251.9351580931895 C126.44454375768822 259.0308281671048, 124.9528916015941 270.1574325040833, 125.26721171906318 298.28796956578765 M125.89377389083134 249.62825047956616 C125.77636659183523 261.3487222510836, 124.80150867166941 271.8218985067888, 125.93128185731969 299.23575416610737 M123.77586752450571 300.9597633133188 C111.85173495676676 297.97124074715265, 96.86177867022656 297.60808912266407, 76.96991485971962 298.4338759841861 M124.41150049229282 300.6521154387414 C106.28707863799373 299.9062275008092, 89.0037804368371 299.74837308560484, 75.78042003361503 300.7484582385264 M75.79034116891764 298.54762229700094 C73.21987163987816 289.1320509566526, 74.36142319904252 275.84309018945066, 73.20843947295506 251.60881659466702 M75.57189956410768 300.98758797431543 C75.04265478610706 281.54441873725807, 75.86521014675661 264.16112467392173, 75.75041491538114 249.8719906349861" stroke="rgb(0, 0, 0)" stroke-width="1" fill="none"/></g><text x="102" y="280" class="id"></text><g><path d="M170.2671337525055 98.79560536395283 L220.70223954135614 98.98094684046983 L219.25643766368455 149.0915127610043 L169.32073176131934 148.09617428384234" stroke="none" stroke-width="0" fill="none"/><path d="M171.09394171210153 101.78224003256774 C182.38523693484257 102.19064011982275, 193.54574806826938 99.18542544681797, 220.70674698562456 99.04709994978 M169.73141129983082 100.46405705018616 C184.77528379711518 100.37938471680536, 196.72881551756402 99.98438564021369, 220.98547920685456 99.42182788011043 M219.7406273319222 100.34731918937857 C219.91859453620665 116.94089704411283, 218.5968004241653 136.27788140891144, 220.99045066364175 148.5849479130433 M219.86801408756523 99.45526420424744 C220.6272709777566 110.06240821292843, 220.71044271258495 119.81772826761461, 219.7605831098584 149.11717354332634 M221.5853167083664 148.74473892825932 C207.02169594788722 151.57036250411636, 193.27055490708088 148.99963699481043, 169.65717317899 148.87445312425245 M219.67673476601402 150.98526575409355 C206.41677052841368 149.45866570129894, 191.63129150748617 150.4383774264131, 169.1842387734679 149.19294402984232 M170.5348199083787 148.72044710948623 C169.70940889766962 134.53274466638143, 171.35621782491774 124.38727740660845, 169.0448557933384 100.4535437441102 M169.11299726608397 149.3715751070581 C170.2022727184871 132.8538426970319, 170.68786460055745 115.27366622865713, 169.55396618011565 100.52068350293877" stroke="rgb(0, 0, 0)" stroke-width="1" fill="none"/></g><text x="150" y="130" style="" class="default">:</text><text x="195" y="130" class="id"></text><g><path d="M170.6006058628748 176.69277793844827 L228.99070904638054 175.76891917365853 L228.44370535429204 223.74370551627982 L170.47793849822412 226.58882872132614" stroke="none" stroke-width="0" fill="none"/><path d="M171.4132112566617 173.06467015754146 C186.7177681990585 176.0795181226675, 206.4947563543039 175.22854499184342, 228.71450732751464 173.6452921449509 M170.906943052736 175.91739890241118 C186.7359080175695 174.42097452854762, 203.14516882223384 174.75915341128152, 230.8011277679018 175.30681916809468 M230.08347933328272 175.23151167709676 C228.13836105705172 188.8966471480931, 230.0922407808854 206.3690516043747, 229.99436903368994 224.23990656832396 M229.10219585704223 175.8343592563562 C229.3668022937348 188.29783093484926, 231.1742906026598 201.81199900096956, 230.73748275739854 225.47013728123176 M230.95652367033418 225.00194743108315 C209.46280384355202 226.5174683110908, 186.46908969455987 225.91967690905062, 170.23311436149996 226.43466545462144 M229.34438915321516 224.21331709773452 C210.19476977642958 225.96980664717503, 190.3982642431041 225.63186024645628, 170.65788898009706 225.52405372144491 M169.37823104749776 226.54333100403733 C169.45545607551824 206.66544069759505, 168.8881892956161 194.09414491077632, 171.86267437705385 176.34691612789698 M170.44045681881795 225.9269595892146 C169.84115104937146 211.17095316141288, 170.2099301468543 198.07130987177885, 170.0521259888706 175.82442814846218" stroke="rgb(0, 0, 0)" stroke-width="1" fill="none"/></g><text x="150" y="205" style="" class="default">:</text><text x="200" y="205" class="id">id81</text><g><path d="M170.6810904199149 251.69004023309404 L230.59776872767972 249.58791026432476 L228.30701342277462 299.0408817317492 L168.68277524884195 300.8929084838166" stroke="none" stroke-width="0" fill="none"/><path d="M169.3160083373818 250.4986306318401 C188.97911412398878 248.21937094312023, 206.92084043463416 250.02754544632685, 229.69147331108744 251.0290642054645 M169.49701543555085 250.4611382018915 C183.03731347101458 250.00949032775733, 197.20065482604974 249.73914609622966, 229.88460148483668 250.31003639849547 M229.9641884022824 251.35991597312804 C230.36509395832775 266.71129494693514, 228.52255931948994 280.17570600144774, 231.1841233861286 298.5440404955037 M230.82751712211098 249.0280108366726 C230.51226137057046 266.15046140253565, 230.9246950088674 283.9553377174173, 229.8500979607483 300.0360491664697 M228.88036454194759 300.95679180033375 C215.29237204639807 300.41485740927726, 205.52045944817957 300.7408560251274, 169.0949803211925 301.1384712199887 M230.10297598751066 300.81098218319096 C213.00885246259912 301.07874455558726, 194.4744799843265 300.07853693566904, 170.91652435314498 299.7862540494514 M168.45169810150276 298.8032225811265 C171.39387917286157 281.83525049690735, 168.3336375421927 261.681012389996, 171.60055269004675 249.155790382376 M169.6331158142539 300.51853991304046 C169.38667583297195 287.7262789938166, 168.60367191201112 273.2305863049876, 170.1215631275427 249.05460184279983" stroke="rgb(0, 0, 0)" stroke-width="1" fill="none"/></g><text x="150" y="280" style="" class="default">:</text><text x="200" y="280" class="id">id12</text><g><path d="M48.73914122195366 24.40194984926142 L111.7871172513662 26.43773148926419 L110.63748527818427 75.94749535699327 L48.61153039950361 73.26344706744246" stroke="none" stroke-width="0" fill="none"/><path d="M50.78565005534165 23.55226961110784 C62.12015045146518 24.484680255404374, 73.4112966533013 23.010132034453136, 108.07028534701897 26.20593207568241 M49.54802314385043 24.571356648153294 C66.35293006439834 25.10852360130537, 81.13380434607474 24.09973831494985, 110.00519514987435 24.73472901594113 M110.84316323237121 24.126616170912676 C110.90345292080929 40.20161000506698, 108.15398788588351 53.30627045848435, 110.06166860533385 74.55696043032043 M109.05270378115395 24.75388727785493 C110.7969241636204 43.54439997139506, 109.9553749103899 60.870827622454726, 109.22355787489313 75.53240826406528 M110.36973700816226 76.40646015637837 C88.10734737862487 77.53842978992886, 69.27009755114993 76.03048335302782, 51.21217810862678 74.91881568965897 M109.23979632328906 75.54665014880361 C97.17826122179541 73.72949471753505, 85.18666817062226 74.26465959483548, 49.59142264947654 74.58557135898583 M49.53865154703717 75.93551094751943 C50.79091399890318 65.37041479536012, 49.71126919058948 53.75455409409186, 51.66318997337543 25.156706326788786 M49.7798939275079 75.09226350375673 C49.298188437355385 57.63692182820633, 50.65983545192712 39.987105856960454, 50.5816075642251 25.193891664125246" stroke="rgb(0, 0, 0)" stroke-width="1" fill="none"/></g><g><path d="M191.12527545287406 23.39854949695037 L251.6064654427276 26.768198040283732 L248.56476650363282 76.80761582893759 L189.08353975940568 75.58783677854831" stroke="none" stroke-width="0" fill="none"/><path d="M190.78733372106376 23.330899406492563 C206.3021022936498 24.1419030305532, 218.3804669681139 23.17014169254866, 248.9747134176397 24.706730551739927 M189.0095384873237 24.02984171586574 C204.05135171927614 25.793757176514813, 219.791496503618 24.786077827657444, 250.54744340974145 25.582223226489297 M248.54045748364553 24.66857250981765 C250.11652249658536 41.91845554873664, 247.7798831545885 57.71643254594164, 248.79564963803423 76.99616230727173 M249.42208047129498 25.144897197751266 C249.4341114111046 42.89405154726596, 251.11717548212627 58.580279414389686, 249.5772263907515 74.58303673338204 M250.4255820989575 74.20923603213785 C230.01532616297618 73.62729540136291, 208.02747171838436 72.83704288730962, 189.85851346683194 76.2639516360074 M250.5737312762158 75.20470537074047 C229.144457743728 74.85710224145953, 208.71144613200713 75.46704469681052, 190.93954888869243 75.72756980705229 M188.4237381041308 73.6714999004574 C190.3169445828257 57.06547300042432, 188.7907499725371 43.298299298857486, 188.74567581566507 25.073596075105677 M189.38130442156137 74.3368257802546 C190.05685435403274 58.3223783572779, 191.20064158767366 43.118903394030795, 189.84975010343447 24.11238329940901" stroke="rgb(0, 0, 0)" stroke-width="1" fill="none"/></g><text x="80" y="55" class="id">id10</text><text x="220" y="55" class="type">dict</text></svg>