<svg data-theme="dark" width="287" height="217" xmlns="http://www.w3.org/2000/svg"><title>Python memory model diagram showing objects</title><style>
        :root {
        --fade-text-color: rgb(0, 0, 0);
        --hide-text-color: white;

        --highlight-value-text-color: rgb(27, 14, 139);
        --highlight-id-text-color: rgb(150, 100, 28);

        --highlight-box-fill: yellow;
        --highlight-box-line-color: rgb(0, 0, 0);

        --fade-box-fill: rgb(247, 247, 247);
        --fade-box-line-color: gray;

        --hide-box-fill: white;

        --primitive-value-color: rgb(27, 14, 139);
        --id-text-color: rgb(150, 100, 28);
        --default-font-size: 20px;

        --highlight-object-fill: rgba(255, 255, 0, 0.6);
    }

        text {
            font-family: Consolas, Courier;
            font-size: 20px;
        }
        text.default {
            fill: rgb(0, 0, 0);
            text-anchor: middle;
        }
        text.attribute {
            fill: rgb(27, 14, 139);
            text-anchor: start;
        }
        text.variable {
            fill: rgb(0, 0, 0);
            text-anchor: start;
        }
        text.id {
            cursor: auto;
            fill: rgb(150, 100, 28);
            text-anchor: middle;
        }
        text.type {
            fill: rgb(27, 14, 139);
            text-anchor: middle;
        }
        text.value {
            fill: rgb(27, 14, 139);
            text-anchor: middle;
        }
        path {
            stroke: rgb(0, 0, 0);
        }
        .highlighted path {
            fill: var(--highlight-object-fill) !important;
        }
    
        [data-theme="dark"] {
            --highlight-value-text-color: #110875;
            --highlight-id-text-color: #6e4409;

            --fade-text-color: #BBBBBB;
            --hide-text-color: #121212;

            --highlight-box-fill: #EDB926;
            --highlight-box-line-color: #FFFFFF;

            --fade-box-fill: #2C2C2C;
            --fade-box-line-color: #666666;

            --hide-box-fill: #121212;

            --highlight-object-fill: rgba(72, 207, 173, 0.3);
        }
        [data-theme="dark"] text.default,
        [data-theme="dark"] text.variable {
            fill: rgb(224, 224, 224);
        }
        [data-theme="dark"] text.attribute,
        [data-theme="dark"] text.type,
        [data-theme="dark"] text.value {
            fill: rgb(144, 164, 237);
        }
        [data-theme="dark"] text.id {
            fill: rgb(255, 183, 77);
        }
        [data-theme="dark"] path {
            stroke: rgb(204, 204, 204);
        }
</style><g role="graphics-object"><title>Bool id0 with value blank</title><g id="object-0"><path d="M51.65811240904702 26.89366307157794 L248.88329943205983 23.643962339504974 L249.6155760117456 154.50903805862634 L48.106969835535644 156.45635305991425" stroke="none" stroke-width="0" fill="none"/><path d="M49.25884062167422 25.08088070974224 C114.33211973644738 22.01121805547206, 174.0424983336046 24.561239582555512, 248.4259878521978 24.7267464688062 M49.41948874532897 24.30679548190559 C125.20962607174371 26.643936283197952, 202.38163904927853 25.397944269300744, 250.71261536847445 25.800866950039786 M250.70698060550447 23.610248200524936 C252.24956867836784 64.87381313186977, 251.57990633389545 102.3390295436471, 250.94540287313802 153.63431120466186 M250.18603560353037 24.298434607987698 C251.48215610736452 66.00782713998295, 250.01982975565204 106.86451714978236, 250.37332139004462 154.7981243595795 M251.61863157191615 154.72940869047613 C190.99160115062895 155.73835750262137, 128.93479814194123 155.35868895284491, 48.866956552246286 154.2076726619457 M249.18981607415094 155.11745068620993 C195.0997679397801 153.23798115220043, 138.81993485004392 153.6477848087532, 49.784075499534644 155.04237670630226 M50.663723748062516 153.4679964327037 C51.77683863462841 124.34003664231415, 52.194154255522236 94.47066779739046, 48.9137749453141 26.644721398454568 M49.24181272781831 154.66125722999013 C50.0367141104182 116.37253999552586, 49.326590718882706 78.26690159745209, 49.908627919684264 24.74551788451436" stroke="rgb(0, 0, 0)" stroke-width="1" fill="none"/></g><g><path d="M42.985939460556374 17.880697197014847 L256.275428099357 20.134100141764264 L256.886472168483 161.41596980894914 L42.68757679713307 161.48751028194582" stroke="none" stroke-width="0" fill="none"/><path d="M45.68774442088581 20.29060905962923 C113.94686761578083 20.561491553808303, 181.809619337447 18.932157870184838, 256.7248288317194 19.994220080045668 M44.37989686446452 19.66261676999224 C102.88710792871525 19.076951228230524, 163.22317036858064 18.660904793196725, 256.6236974541346 18.17296536045098 M255.05793592478776 19.33446406409598 C254.38937058607834 67.57946619230889, 256.2352177679051 120.49950819192945, 255.79823462067117 162.85061325262885 M255.9757156917711 18.308021040980574 C257.04682249471335 53.52327273663231, 256.8417173996352 87.98237230134305, 256.6085437457066 161.89859144578097 M257.08716149162035 160.59315961770275 C191.15987577138836 159.7342689587735, 128.21413497181055 161.99090312537695, 44.15819774484493 162.3874521060412 M256.2843664284042 161.4054840114624 C177.43581217635892 161.13121230383516, 99.68516866494025 161.8783991018152, 44.38853507285531 160.45170030353395 M43.25013010745012 161.50059060176702 C44.44269229517004 123.33397818520626, 42.89240382515198 81.70932667721618, 44.59997102244501 20.11979779123247 M44.47777793891183 160.2297261187144 C42.173974651544086 132.18280047692173, 42.74403323652151 102.62792383013576, 43.39342464695847 19.782223961086924" stroke="rgb(0, 0, 0)" stroke-width="1" fill="none"/></g><g><path d="M50.62106412099216 24.772579436953734 L108.80095429262144 26.007113699390427 L109.65787820736695 76.45804665842184 L50.56622508813861 76.8217108510107" stroke="none" stroke-width="0" fill="none"/><path d="M51.117480733539935 26.498353029147687 C64.21057536570697 25.211925007856443, 79.28298196110221 24.69870070420251, 111.7526523245447 24.36322160754692 M49.840090893422285 25.91596954664158 C66.57429863202543 25.35221600229994, 82.26522468426943 24.874539647769577, 110.87693453144263 25.972009469785007 M108.96059384376127 26.548696098582546 C111.92285838603586 35.73125804161446, 109.23025735841605 49.11969434964021, 111.42748256616741 73.86576634308683 M110.98543782868893 25.326229602982092 C110.26514659360285 39.327616557802344, 110.48610434553704 52.90942777799518, 110.99856155404701 75.31193347219913 M111.93302880656827 74.68791007474019 C95.73815054666198 75.67299740089463, 82.42313363631226 74.21775896755348, 49.040729468924454 73.38036015383399 M109.02454709295667 75.99479450709504 C95.41700998585104 75.33342282824101, 78.55514946735032 75.03198600955764, 50.33743128914789 75.77114175900522 M50.993031410619174 73.72114657813484 C51.984979582410205 56.10626766396669, 51.54151041426949 42.29077549249196, 51.16803930097123 26.015143389899116 M50.256433586858805 74.85507811579639 C49.46366124150018 55.33411905630328, 50.808494293751416 35.41514832179716, 49.36393626270696 24.657436828056486" stroke="rgb(0, 0, 0)" stroke-width="1" fill="none"/></g><g><path d="M189.518375852169 23.37809638933564 L250.45680326994506 24.96183155570269 L249.82988528475292 75.10551860616145 L189.80802846032574 75.99049629656918" stroke="none" stroke-width="0" fill="none"/><path d="M188.6018293484256 24.83590673104652 C203.42548774303228 23.52867347779749, 222.17655721225083 23.843874519052015, 250.15345832627366 25.226315550191252 M189.81399750009032 25.12750642003186 C204.0227363468622 24.28272216582671, 217.11584214176852 25.334509228853516, 250.26763835827427 25.353427058119706 M251.7243182859302 23.812722065860648 C248.4443890998079 43.01430539028966, 248.1612778251655 59.499945597583576, 251.25548776881897 74.84846258879169 M250.2176147487826 25.368504332472128 C251.10306326538372 36.007531796032936, 250.47077116228445 45.765114330179436, 249.95221413095848 74.75998316200148 M248.69443402384348 74.38660694637004 C232.23824146599327 76.42556979072397, 218.5670997748658 75.31074523413318, 191.89492373353647 73.56714090029459 M250.9868578732418 74.2562899724259 C226.07605922793005 75.02679592423463, 203.99919491659452 76.21134781983145, 189.31143505530883 75.70440485278039 M189.79870707041516 75.86879093251962 C189.35883426842273 54.70848920728486, 191.90522210750657 35.45239336972062, 190.55654431955287 26.080772958360704 M189.59325683081713 74.92557061861963 C190.04537628115295 57.38380018783346, 189.31857006416183 39.05187110300227, 189.92126930539735 25.75202161403564" stroke="rgb(0, 0, 0)" stroke-width="1" fill="none"/></g><text x="80" y="55" class="id">id0</text><text x="220" y="55" class="type">bool</text></g></svg>