<svg width="287" height="217" xmlns="http://www.w3.org/2000/svg"><title>Python memory model diagram showing objects</title><style>
        :root {
        --fade-text-color: rgb(0, 0, 0);
        --hide-text-color: white;

        --highlight-value-text-color: rgb(27, 14, 139);
        --highlight-id-text-color: rgb(150, 100, 28);

        --highlight-box-fill: yellow;
        --highlight-box-line-color: rgb(0, 0, 0);

        --fade-box-fill: rgb(247, 247, 247);
        --fade-box-line-color: gray;

        --hide-box-fill: white;

        --primitive-value-color: rgb(27, 14, 139);
        --id-text-color: rgb(150, 100, 28);
        --default-font-size: 20px;

        --highlight-object-fill: rgba(255, 255, 0, 0.6);
    }

        text {
            font-family: Consolas, Courier;
            font-size: 20px;
        }
        text.default {
            fill: rgb(0, 0, 0);
            text-anchor: middle;
        }
        text.attribute {
            fill: rgb(27, 14, 139);
            text-anchor: start;
        }
        text.variable {
            fill: rgb(0, 0, 0);
            text-anchor: start;
        }
        text.id {
            cursor: auto;
            fill: rgb(150, 100, 28);
            text-anchor: middle;
        }
        text.type {
            fill: rgb(27, 14, 139);
            text-anchor: middle;
        }
        text.value {
            fill: rgb(27, 14, 139);
            text-anchor: middle;
        }
        path {
            stroke: rgb(0, 0, 0);
        }
        .highlighted path {
            fill: var(--highlight-object-fill) !important;
        }
    </style><g role="graphics-object"><title>Bool id0 with value blank</title><g id="object-0"><path d="M49.01909531951021 24.466355311039255 L251.48658121333722 23.420198247012195 L249.82256111761737 156.18960983005644 L51.164122793873695 155.22189737962617" stroke="none" stroke-width="0" fill="none"/><path d="M48.35779504330019 23.540999837010826 C128.25522114980836 24.188682922508228, 205.1198511116563 23.027106538350257, 250.69771969623 25.885408708446217 M50.78743085033003 25.32626879863293 C126.23645972728218 23.794952166572582, 204.3633418439428 23.473777281821356, 250.51136161416895 25.04304604861792 M249.58536196755307 24.995828761933886 C249.18470248328836 63.585771949533836, 248.75104909426167 101.28772293772552, 251.28395067995316 153.58963001229264 M249.39087429494612 24.28485861057295 C249.0224134221783 72.59569154521502, 249.0273083148154 122.83539077553696, 250.165031721387 155.91898553852445 M250.14151387233096 155.62224102686392 C204.90709648747043 155.8279849199576, 162.1154152755304 156.0248755297192, 49.9585630456742 155.7167867215128 M250.8806582515706 154.87524569209708 C197.7123241072864 154.7869612854667, 144.4071285484187 155.54683811201883, 50.742920228372306 154.7566475935128 M51.170303711677725 154.78666199798272 C51.106076405038266 120.69836212243843, 50.03809458608142 91.2380189654144, 50.3175047775116 26.963632455196013 M49.99077731660728 155.32528042192817 C50.52095566340296 109.84072549376764, 50.497661261602424 66.58396726020086, 49.854682868318925 25.79513766103547" stroke="rgb(0, 0, 0)" stroke-width="1" fill="none"/></g><g><path d="M44.319438830965524 20.63212073157297 L254.94860947262532 20.623945331524624 L255.5166228903147 161.3555145566234 L44.82972491307612 160.6002994881831" stroke="none" stroke-width="0" fill="none"/><path d="M44.57772835646407 20.724199357012026 C117.36556121976821 18.806107453942943, 193.07897690804057 21.7193672966168, 255.6783805793475 17.427713468225356 M44.26289444879355 19.23434410627689 C90.90572565390555 18.009143853728986, 135.955534140333 18.562695915317523, 255.93277028143726 18.856041510586156 M257.7650180114809 19.196452463511555 C256.1761192318785 50.99659570921306, 255.96122884341793 81.43195249595823, 257.8009481655947 159.27675807276196 M256.98136520244594 18.573323683455374 C255.7588326612802 66.3387279559153, 255.38452338081498 114.23922171401465, 256.9913628879597 161.27838627002748 M256.654971657696 160.30568531933832 C183.0552372990016 161.34985863181043, 112.32753997925302 160.03599057424677, 42.84539753390196 159.99924790955328 M255.39307111966144 161.81110619510164 C210.1904567805266 158.46598617148, 162.66616738570778 159.66111621184226, 43.444239906706045 160.29332909906168 M42.850190980932 160.88678309270244 C44.28809756681731 133.37605147664013, 43.47447346357643 104.33135640314782, 45.46436473403789 20.97266461391743 M44.14890439696278 160.45932318875597 C44.86757715532102 117.6931777161779, 45.31882537631092 74.21059278331795, 43.76030545696804 18.481507535469056" stroke="rgb(0, 0, 0)" stroke-width="1" fill="none"/></g><g><path d="M48.00507138399001 24.2478196879001 L108.16039765961257 26.843552917964765 L111.37344415551196 73.59297849221213 L48.663184569015215 73.1232204593261" stroke="none" stroke-width="0" fill="none"/><path d="M51.550323558176544 24.449666200362905 C69.1359223863526 22.644712247241763, 89.0808257226268 24.607294432349264, 111.7160522815488 23.353926883110205 M50.176638298555076 25.260152790173475 C67.36922672159626 24.33245586687351, 86.93777127199023 24.886612975366425, 109.3908432050186 25.001344463236418 M109.08586935033775 26.947795707939882 C108.2660804166195 36.9930728962847, 110.89785907798388 49.44401721603463, 109.57008144079914 75.61241913022718 M109.92895525459203 25.41054450092026 C110.94346206198074 37.885044202444604, 110.95094379620812 49.58198268350981, 110.33486030980961 75.51942916303994 M111.03571920450852 75.11706045490375 C95.9302705407453 74.32617796947791, 82.80680430900888 74.61379809314214, 48.95366812199954 74.03607902171399 M110.57666907021917 75.04212995121674 C88.33065200529222 75.73801829432013, 64.80227238944138 74.63916486716688, 49.51511014761647 75.80927195333363 M48.30661477508159 76.18477793685359 C50.53961427133757 56.488075385129626, 51.588858427758005 36.98678316193378, 49.04216451256307 26.2607113513984 M50.982514561716364 74.601821422095 C49.75287264736244 54.95867211752494, 50.657817009226335 36.29302824996817, 50.41048046461011 25.51823612184377" stroke="rgb(0, 0, 0)" stroke-width="1" fill="none"/></g><g><path d="M189.7952797826117 23.34418662925626 L250.46558855694445 23.07157876971128 L250.98311288599194 75.82652047016036 L191.9634318196203 73.76867412121452" stroke="none" stroke-width="0" fill="none"/><path d="M189.58034946971318 26.39225283232095 C206.01229582053182 26.011697980385208, 223.98390868915686 23.211617754308406, 251.55442099858143 25.209544375490424 M190.91817461108013 24.15971294302 C210.66972033702413 24.562203763909945, 232.7409706004949 24.633352698476436, 249.32995073511069 25.092474592343937 M248.73267916483385 24.186621977448212 C251.06762152635872 36.19594352067589, 248.93958959019176 46.26261967697504, 249.5193851361172 74.19282145911758 M250.01572370736235 25.86895145160382 C250.60325301134878 39.88372735746007, 250.49094819967186 55.03447060176634, 250.04958709815426 75.45196155729674 M250.79929824986124 75.89909725064985 C232.92786644504403 73.71651557262624, 211.7655170744278 75.44883272266323, 189.01922781155614 74.09681633155307 M249.86745601852357 74.23999342044122 C232.7294597556121 74.95765297585501, 216.56002186972927 75.37488878814096, 190.09484241954576 75.68208401893068 M189.74877812585825 75.98301121593022 C188.27222323547159 54.68266570462094, 188.43148166857554 37.63474708988317, 191.83101479872155 26.32930594863769 M189.84495695540647 75.98388860143999 C190.49854688145768 60.011271630977646, 189.2220077525286 44.75372921253279, 189.356585401768 25.573690259558898" stroke="rgb(0, 0, 0)" stroke-width="1" fill="none"/></g><text x="80" y="55" class="id">id0</text><text x="220" y="55" class="type">bool</text></g></svg>