<svg data-theme="dark" width="287" height="217" xmlns="http://www.w3.org/2000/svg"><title>Python memory model diagram showing objects</title><style>
        :root {
        --fade-text-color: rgb(0, 0, 0);
        --hide-text-color: white;

        --highlight-value-text-color: rgb(27, 14, 139);
        --highlight-id-text-color: rgb(150, 100, 28);

        --highlight-box-fill: yellow;
        --highlight-box-line-color: rgb(0, 0, 0);

        --fade-box-fill: rgb(247, 247, 247);
        --fade-box-line-color: gray;

        --hide-box-fill: white;

        --primitive-value-color: rgb(27, 14, 139);
        --id-text-color: rgb(150, 100, 28);
        --default-font-size: 20px;

        --highlight-object-fill: rgba(255, 255, 0, 0.6);
    }

        text {
            font-family: Consolas, Courier;
            font-size: 20px;
        }
        text.default {
            fill: rgb(0, 0, 0);
            text-anchor: middle;
        }
        text.attribute {
            fill: rgb(27, 14, 139);
            text-anchor: start;
        }
        text.variable {
            fill: rgb(0, 0, 0);
            text-anchor: start;
        }
        text.id {
            cursor: auto;
            fill: rgb(150, 100, 28);
            text-anchor: middle;
        }
        text.type {
            fill: rgb(27, 14, 139);
            text-anchor: middle;
        }
        text.value {
            fill: rgb(27, 14, 139);
            text-anchor: middle;
        }
        path {
            stroke: rgb(0, 0, 0);
        }
        .highlighted path {
            fill: var(--highlight-object-fill) !important;
        }
    
        [data-theme="dark"] {
            --highlight-value-text-color: #110875;
            --highlight-id-text-color: #6e4409;

            --fade-text-color: #BBBBBB;
            --hide-text-color: #121212;

            --highlight-box-fill: #EDB926;
            --highlight-box-line-color: #FFFFFF;

            --fade-box-fill: #2C2C2C;
            --fade-box-line-color: #666666;

            --hide-box-fill: #121212;

            --highlight-object-fill: rgba(72, 207, 173, 0.3);
        }
        [data-theme="dark"] text.default,
        [data-theme="dark"] text.variable {
            fill: rgb(224, 224, 224);
        }
        [data-theme="dark"] text.attribute,
        [data-theme="dark"] text.type,
        [data-theme="dark"] text.value {
            fill: rgb(144, 164, 237);
        }
        [data-theme="dark"] text.id {
            fill: rgb(255, 183, 77);
        }
        [data-theme="dark"] path {
            stroke: rgb(204, 204, 204);
        }
</style><g role="graphics-object"><title>Float id76 with value </title><g id="object-0"><path d="M48.448773229942745 23.594197661956137 L248.96027661821313 24.87770146758859 L250.40644734977445 156.27142248199345 L48.11083569431539 156.1463952643677" stroke="none" stroke-width="0" fill="none"/><path d="M51.384729924450205 23.878577559847304 C96.05718778134086 26.467551157683143, 140.05687720549847 25.24794484894116, 249.37264263502448 25.30518916211423 M50.37775779377735 25.62731742980467 C116.53016006822597 23.042993764276964, 182.06362866834917 23.874835278509575, 249.68874371071882 24.94158510135567 M250.37388726473165 25.80095664014354 C247.65404751442148 65.01696845019404, 249.287205275531 106.08205249332507, 248.34775321494683 153.13781251988917 M249.31547221982788 24.604835062810935 C249.65751211946824 64.1747490364842, 248.40646482187913 103.19491795430697, 250.28409023271274 154.50260248707485 M249.2072969852373 155.7706160854322 C173.01483483099304 153.21135694492122, 95.34017843234041 154.18423328965866, 50.70775505075908 153.39487341775262 M249.14675583909522 155.30731951878175 C206.51254706898942 155.8066691528515, 161.91618236012363 154.90990316752104, 50.80088735369524 155.78980780671424 M50.50327964852464 156.30895818944404 C50.53341286421549 111.85980149816945, 51.574707167346176 72.44204312709411, 51.40812189178308 25.998580815626877 M49.509807319763205 155.8307267079948 C50.15275836646072 105.35115179790031, 50.3505059382605 55.59787538092289, 49.71545795112731 25.828655182483512" stroke="rgb(0, 0, 0)" stroke-width="1" fill="none"/></g><g><path d="M44.38644067807698 20.367075080673644 L255.74729830043185 17.708530228506998 L256.2220648764441 160.80436983719375 L45.58633522836677 160.991609054694" stroke="none" stroke-width="0" fill="none"/><path d="M43.127264478193275 17.29216203864963 C93.89986834710568 18.59553169350486, 142.06884540542703 19.063307369576346, 255.09219106415713 20.005479876028932 M44.31964124104756 18.343733161652665 C90.7084554888072 18.817820845030276, 136.3581816602685 18.705904636451837, 255.81469855004605 19.089867829983096 M257.45045356453807 19.0613637472446 C252.66097018455594 73.55927387115906, 255.66456220653367 125.96255058140432, 254.73875516429618 160.8412077813859 M255.02651938518903 18.50758034504751 C256.11803174852906 60.01067354873701, 255.75733113603127 103.31067568908622, 255.02669203020707 161.15360128095335 M255.4824579354302 161.54041199604066 C195.32616177704998 159.71098808742414, 133.78498706279584 160.3726450778687, 42.67656092025077 160.2724425084136 M256.12223253790745 160.20400486434508 C213.47679236976248 159.04917830677164, 170.26133851300253 159.3734613744728, 43.7606277128836 161.52344661630426 M44.30664583585754 160.13470852258453 C42.5726511791556 105.77382134814653, 42.183110071269255 53.1622431806529, 45.673176072409206 18.587102383552878 M44.87402012404471 161.08907967264915 C42.65965990232074 130.60115787992254, 42.795710031965804 101.73735448838859, 43.47994961896477 18.89502758782208" stroke="rgb(0, 0, 0)" stroke-width="1" fill="none"/></g><g><path d="M48.568915542378285 23.404136306500146 L109.39814967812765 23.727822032193806 L111.57055643838382 74.26359920723166 L51.808357372656545 76.52440131255902" stroke="none" stroke-width="0" fill="none"/><path d="M48.883898825550624 25.100262575468985 C72.01751943888446 23.82961062602789, 92.32268317180655 23.54488694793199, 110.09453243186869 24.778429951120774 M49.10502342546981 25.05155491691184 C62.94951203633759 25.727911286140557, 75.85671556284781 25.067226397323626, 110.04603718702134 25.2742685421739 M110.60874108137098 24.789258901752497 C109.2802654823389 37.08849562643941, 110.26634158901491 45.99955698880102, 111.11238288891467 76.39350910681249 M109.30181472547694 25.076460193414473 C109.48884422564528 35.62148803860214, 109.68073144777154 47.24331691263034, 109.12408707731214 74.97095746886627 M108.16411243184913 76.33194947987192 C89.07734022722825 75.61988365094201, 63.659593777275376 75.98641065664945, 50.47369453628413 76.61905273810513 M109.2728759800124 75.00586131786895 C93.583045003987 75.96628448892623, 77.84969054927376 74.97567198193819, 49.144471954089724 74.10221398887823 M50.59294224129892 73.88578089640367 C50.118703312637884 61.51543630123329, 50.55709595186589 49.970524670091805, 51.5241462261979 26.23269940964714 M50.40666229555507 75.7740407629847 C49.25841391706791 55.97424189319965, 48.90726800692923 38.13463775752828, 49.03693492894832 24.990387445261604" stroke="rgb(0, 0, 0)" stroke-width="1" fill="none"/><text x="80" y="55" class="id" aria-label="id: id76">id76</text></g><g><path d="M180.1643668936018 26.056590432769294 L251.05731465423736 24.83074925303551 L248.80520606979422 76.38456993968002 L181.19227655111547 75.33887744207937" stroke="none" stroke-width="0" fill="none"/><path d="M180.37075496307054 26.16582040602917 C197.7660091263863 26.526251257689097, 218.0409002248142 25.886474618094624, 248.67731537383517 26.05344926019674 M180.76868217556873 24.297627732144385 C208.0432615140675 23.436372022638444, 234.44646970845827 23.624024502212038, 249.90585027208564 24.311126782563576 M249.4120449897304 25.257600019282552 C248.75662716977922 41.199364109646936, 247.94845997952714 57.408162026062094, 248.80030497841153 74.9804522192639 M250.6155414990651 25.702038849875034 C249.47451254512632 44.07750294614311, 250.3612669448959 63.06560599333982, 249.22061511198135 74.37132535735223 M250.89319152441948 73.2502099523107 C226.773119296668 74.85459271127284, 203.0535533010724 75.18466567623582, 179.4349986142174 73.24359619046885 M249.2504238672033 74.02984151453539 C230.69854022421802 74.54712202487407, 213.0381663147412 73.83053860573408, 180.2304686118685 74.64863392309306 M180.9438168823421 74.0103142778477 C181.17789009358933 57.88660825536149, 178.7678815185665 41.820351813738654, 180.08496312470803 23.08848795284471 M180.98924395154566 74.5935583267414 C180.32581456865057 55.01111390673688, 179.89454791541925 35.81121633647826, 179.27188842466154 25.909049085700605" stroke="rgb(0, 0, 0)" stroke-width="1" fill="none"/><text x="215" y="55" class="type" aria-label="type: float">float</text></g><text x="150" y="115" class="value" aria-label="value: "></text></g></svg>