<svg data-theme="dark" width="287" height="217" xmlns="http://www.w3.org/2000/svg"><title>Python memory model diagram showing objects</title><style>
        :root {
        --fade-text-color: rgb(0, 0, 0);
        --hide-text-color: white;

        --highlight-value-text-color: rgb(27, 14, 139);
        --highlight-id-text-color: rgb(150, 100, 28);

        --highlight-box-fill: yellow;
        --highlight-box-line-color: rgb(0, 0, 0);

        --fade-box-fill: rgb(247, 247, 247);
        --fade-box-line-color: gray;

        --hide-box-fill: white;

        --primitive-value-color: rgb(27, 14, 139);
        --id-text-color: rgb(150, 100, 28);
        --default-font-size: 20px;

        --highlight-object-fill: rgba(255, 255, 0, 0.6);
    }

        text {
            font-family: Consolas, Courier;
            font-size: 20px;
        }
        text.default {
            fill: rgb(0, 0, 0);
            text-anchor: middle;
        }
        text.attribute {
            fill: rgb(27, 14, 139);
            text-anchor: start;
        }
        text.variable {
            fill: rgb(0, 0, 0);
            text-anchor: start;
        }
        text.id {
            cursor: auto;
            fill: rgb(150, 100, 28);
            text-anchor: middle;
        }
        text.type {
            fill: rgb(27, 14, 139);
            text-anchor: middle;
        }
        text.value {
            fill: rgb(27, 14, 139);
            text-anchor: middle;
        }
        path {
            stroke: rgb(0, 0, 0);
        }
        .highlighted path {
            fill: var(--highlight-object-fill) !important;
        }
    
        [data-theme="dark"] {
            --highlight-value-text-color: #110875;
            --highlight-id-text-color: #6e4409;

            --fade-text-color: #BBBBBB;
            --hide-text-color: #121212;

            --highlight-box-fill: #EDB926;
            --highlight-box-line-color: #FFFFFF;

            --fade-box-fill: #2C2C2C;
            --fade-box-line-color: #666666;

            --hide-box-fill: #121212;

            --highlight-object-fill: rgba(72, 207, 173, 0.3);
        }
        [data-theme="dark"] text.default,
        [data-theme="dark"] text.variable {
            fill: rgb(224, 224, 224);
        }
        [data-theme="dark"] text.attribute,
        [data-theme="dark"] text.type,
        [data-theme="dark"] text.value {
            fill: rgb(144, 164, 237);
        }
        [data-theme="dark"] text.id {
            fill: rgb(255, 183, 77);
        }
        [data-theme="dark"] path {
            stroke: rgb(204, 204, 204);
        }
</style><g role="graphics-object"><title>Float id76 with value </title><g id="object-0"><path d="M48.638564034918254 24.414009220960473 L251.1853054640608 24.200019295199997 L249.414884026367 153.46073105044334 L48.819935537002344 153.64230966590372" stroke="none" stroke-width="0" fill="none"/><path d="M50.91144279625867 25.771115616517594 C102.26847502433678 21.655206383035917, 150.1342379295708 22.107810661904058, 250.05688380394915 25.615037241507945 M50.07238601749565 24.42942198814695 C110.67702191460211 25.505395945313964, 171.6938114859303 26.362252114294897, 249.9520386564069 25.253345563664727 M248.32617819604047 25.01670323727733 C249.44214653177136 54.36166076422139, 250.15283203666763 86.30994867717827, 251.13527804624277 154.7794575245509 M249.89425415532824 25.36663647946135 C249.57110387775708 54.30247749953799, 250.84067405612922 82.70827291489874, 250.28687266168174 155.80233965160545 M251.11830680796788 156.53628573793466 C180.9167891046421 156.71491794502919, 108.94627845545655 153.97382919798596, 49.5181463797727 153.44495399410792 M249.15195161096472 154.71519962655384 C193.09928927006396 157.26996324868117, 137.01713525568402 156.0165135004592, 50.850590704356875 155.57525287109345 M51.946785886641834 153.3003168110142 C48.90463718457467 117.58868827178442, 46.78702530138736 78.64778834589514, 48.469774720340844 23.236282797187982 M50.724991642295414 154.96681559706408 C49.69368508068908 129.1418726431781, 50.18959107428574 101.92166788343148, 50.57604281546251 24.427048282367156" stroke="rgb(0, 0, 0)" stroke-width="1" fill="none"/></g><g><path d="M43.38179688224512 18.731682824747402 L254.66304450636338 17.410515008446648 L255.18992399433853 159.86039608986744 L43.757421037754504 159.1846319673936" stroke="none" stroke-width="0" fill="none"/><path d="M45.49673154003081 18.119569354318735 C105.92465741530401 19.151978162557167, 171.54726617783 21.230827342756303, 257.12709059788966 18.050490984304002 M44.11226076793183 19.67850959600834 C128.188840378583 17.985856564793647, 212.7166829130424 18.517055830673858, 255.66853787317135 19.4409783388785 M256.61978021892185 17.525771464821613 C255.70222524849765 75.7449122183255, 257.1915611008939 127.8283103153633, 254.49249118399442 160.301013352742 M255.17378744718008 18.201950306303058 C255.5881469154613 54.844122652747636, 256.3788291604243 91.85615761764019, 256.8681991263944 160.7385308459535 M257.5163570448526 160.14362682337017 C170.70930429302965 159.2466766618137, 87.34673889502407 159.62042412062695, 44.8486894539548 162.34857171759583 M255.95242763076786 160.8557369124459 C206.38323276088843 161.9529412469825, 155.52998777888175 162.76689215784103, 44.50939724519048 161.59652536856055 M45.31275324501327 160.5874503569373 C42.43198508082252 114.82982076571328, 42.32262794467756 69.82319253365144, 43.72844740203144 18.393607124352645 M43.40075657460072 161.96229359685793 C43.47081816171034 129.49731364198234, 41.936932200746625 96.88605946686152, 43.87426423293372 18.373725412079576" stroke="rgb(0, 0, 0)" stroke-width="1" fill="none"/></g><text x="150" y="115" class="value"></text><g><path d="M48.01407150426097 26.94916009500819 L110.8335577417236 24.0782823802782 L109.92050625886252 75.12682090692981 L49.78543019422983 75.2208716654793" stroke="none" stroke-width="0" fill="none"/><path d="M51.64930740148095 23.257570697210454 C68.92332409750497 26.88003005655568, 86.15028697211503 23.757204262613037, 109.45807908600764 26.132371676141958 M50.25903005816719 24.026123136475267 C64.38828034781153 24.6651427229192, 77.42883724487442 24.82925647620994, 109.59738124223159 25.329344622538915 M110.7715262584451 25.034324603638435 C110.43312998966012 39.37625705489392, 110.15364772153009 57.671304400945516, 108.1467661694995 73.85050188623876 M109.76057938478232 25.48526157861288 C109.11366547839783 43.22068860877146, 109.82049949467077 59.68906777760695, 110.90763481125497 74.57887356878487 M111.73708458751254 74.24734051046899 C89.7675757455434 72.86508299372834, 65.65581995458884 74.18604804038685, 49.02432795266288 73.74488931617606 M109.47916971931747 75.25710790663095 C88.86778039467761 73.88680661824299, 68.00578098668306 74.82964814205033, 50.61029896667592 75.88176186861799 M48.24207483820874 73.6253663940093 C51.30325704161211 59.97456638319754, 50.09098245190953 40.62265120294529, 50.73889604910589 24.143281803976464 M50.0928306783177 74.42032571970321 C50.36107505932755 62.03462665431582, 50.01651990215056 49.82970511889293, 49.158055698529175 24.012170099688127" stroke="rgb(0, 0, 0)" stroke-width="1" fill="none"/></g><g><path d="M180.52944178844152 25.71988888352044 L251.70973343143638 26.325651451317462 L250.6301763391816 73.38150472363562 L181.0049359508474 74.68598828439359" stroke="none" stroke-width="0" fill="none"/><path d="M178.1483461463147 25.598660083358446 C205.189002714932 23.209946226641005, 229.54807534804516 24.545770674433317, 250.8556978891589 26.577083699694224 M179.95182178265236 25.4995973301457 C205.35091225986494 25.41272791448653, 232.4146669664734 23.64005149148543, 250.0763027507529 24.00347340336917 M251.49632844406048 26.58605220675629 C251.5572241856978 42.75550924150154, 248.37480419264983 57.940506858314734, 248.78861768740376 73.81443006991373 M249.38231133840196 25.410222899919617 C249.59947743115134 36.821800328424075, 249.75744010050417 48.62982040622664, 250.09771318987353 74.15410959828154 M250.77889136636583 75.78926911437024 C225.47277123510423 76.48450493732832, 203.92762811797166 74.28065052904721, 180.2354632080062 75.86747329641334 M249.73321394761717 75.04789746153287 C230.88948174000174 74.45432151570633, 210.1681126869987 74.29617196936096, 180.7576745905147 75.72137534350334 M178.41132985595164 75.83207104868153 C179.1056167044814 63.96964429146777, 181.34666467786286 50.882093751034276, 181.10590367705112 25.800840073079648 M180.80812081228206 75.12388365470915 C179.99775622047287 56.19361243023714, 180.4137085310235 36.42487846789153, 179.25544690601043 24.80174928288697" stroke="rgb(0, 0, 0)" stroke-width="1" fill="none"/></g><text x="80" y="55" class="id">id76</text><text x="215" y="55" class="type">float</text></g></svg>