<svg width="287" height="217" xmlns="http://www.w3.org/2000/svg"><title>Python memory model diagram showing objects</title><style>
        :root {
        --fade-text-color: rgb(0, 0, 0);
        --hide-text-color: white;

        --highlight-value-text-color: rgb(27, 14, 139);
        --highlight-id-text-color: rgb(150, 100, 28);

        --highlight-box-fill: yellow;
        --highlight-box-line-color: rgb(0, 0, 0);

        --fade-box-fill: rgb(247, 247, 247);
        --fade-box-line-color: gray;

        --hide-box-fill: white;

        --primitive-value-color: rgb(27, 14, 139);
        --id-text-color: rgb(150, 100, 28);
        --default-font-size: 20px;

        --highlight-object-fill: rgba(255, 255, 0, 0.6);
    }

        text {
            font-family: Consolas, Courier;
            font-size: 20px;
        }
        text.default {
            fill: rgb(0, 0, 0);
            text-anchor: middle;
        }
        text.attribute {
            fill: rgb(27, 14, 139);
            text-anchor: start;
        }
        text.variable {
            fill: rgb(0, 0, 0);
            text-anchor: start;
        }
        text.id {
            cursor: auto;
            fill: rgb(150, 100, 28);
            text-anchor: middle;
        }
        text.type {
            fill: rgb(27, 14, 139);
            text-anchor: middle;
        }
        text.value {
            fill: rgb(27, 14, 139);
            text-anchor: middle;
        }
        path {
            stroke: rgb(0, 0, 0);
        }
        .highlighted path {
            fill: var(--highlight-object-fill) !important;
        }
    </style><g role="graphics-object"><title>Float id76 with value 3.14</title><g id="object-0"><path d="M48.59456107113816 25.20889707722153 L248.651822810796 24.081781331117423 L250.45822713127703 156.4786529667498 L51.41713600096173 155.36000899058473" stroke="none" stroke-width="0" fill="none"/><path d="M49.37322017896925 24.639093267859547 C128.74528761735695 26.649696197985946, 204.15908699088416 26.029830059662235, 248.5250208151957 23.97365224873776 M49.72388361452755 25.159208133262165 C111.40104911374118 23.65033612015895, 172.36080330250712 24.719423077405736, 249.93036153218196 24.338376228394736 M251.13116258732094 26.609101556289275 C249.10527549028853 71.5782079034796, 248.4233564768983 122.08180511127071, 250.98141584283147 154.25274393222819 M250.69060256797297 24.290914921096473 C250.61294171024622 52.420870638044306, 249.95341833792983 81.27575053801793, 249.70458737800507 154.9812377874178 M250.56710290897885 156.74520230608073 C176.82596171232396 155.22818777158625, 105.4679017131246 155.1853545810866, 48.456650138149584 153.22114779162806 M250.27698181508146 155.669728167503 C192.75596833869358 156.0633497222466, 134.31794955566204 157.06278738551467, 50.24194214045345 154.67928025766906 M50.91479494595055 156.78138298195833 C50.990506082552756 108.0905444486515, 52.46570705221963 62.042402244564954, 48.94547408674592 24.80004856240973 M49.48825553343239 155.74742072769232 C51.515933879625976 125.81596046052006, 51.33173461394872 96.65577424038308, 50.13678148423221 24.555153782872065" stroke="rgb(0, 0, 0)" stroke-width="1" fill="none"/></g><g><path d="M42.59301179883691 18.67289105737866 L257.2688468095706 17.33963808342062 L256.36356607787184 160.50543398154915 L44.07418224892672 161.20406313596544" stroke="none" stroke-width="0" fill="none"/><path d="M42.73761773288985 18.75173231515069 C97.87960575759108 17.411403717471526, 149.9561756051403 16.80784464205178, 256.86950934750035 19.541017091767987 M43.84544724400941 18.59532142646696 C98.0577251381303 20.261601863317953, 150.71716643487142 19.60349575311611, 256.1046007167877 18.865215942170046 M254.74101358632424 17.308913454618683 C254.91613256101215 67.31849968215444, 257.7703951243189 115.82317163513824, 256.83731435457986 161.35089515059522 M255.57794510245097 19.86150008645981 C257.8942238354905 69.86383051142089, 257.0243983164422 120.18566411007795, 255.7995724779758 161.09718227433095 M257.38131020611854 162.4094847955638 C207.10528895617253 159.8133915610194, 156.5340285194839 160.39599398188892, 44.881171056472056 161.97278738802657 M256.8079914553727 160.22386717915197 C186.7900907903416 160.99040167834357, 115.08907755491028 161.01624533637386, 44.500174669118266 161.12990298016464 M42.90005420232275 162.67449921833514 C42.857002638375874 104.85400696934587, 44.330962931716265 49.42902131096771, 44.50859495883561 17.564525214502133 M43.17661615756612 161.42455112010447 C44.74213912538347 120.99591736929088, 46.08142223162925 80.79026578212104, 43.702724531580756 19.228693536092475" stroke="rgb(0, 0, 0)" stroke-width="1" fill="none"/></g><text x="150" y="115" class="value">3.14</text><g><path d="M48.061704478733034 26.89754642639815 L108.6887678328724 25.115076218212412 L111.80357329573798 73.4243585748508 L51.62561893520883 76.50941232540104" stroke="none" stroke-width="0" fill="none"/><path d="M51.83001755938487 24.825778998839674 C71.50737089382672 24.843031894860808, 96.94578124247661 26.316910347269946, 110.24981576969058 26.815767588240988 M49.5725712901729 24.70224235171261 C73.35551138049087 23.66593651219237, 94.12318982861723 24.527602478801683, 109.57498095385971 25.05435806931026 M111.3187285516913 23.416526830270072 C108.46877109257063 39.01532284208415, 110.35265756861236 51.26063752451109, 109.41817963760643 75.33040689753345 M110.39645853089881 25.533884284001783 C109.68545716908295 36.53188690507854, 109.97574039350009 49.27453371836924, 109.16168250088842 75.53395512759529 M108.85175504046028 76.05445210186593 C89.39120725884386 75.45660472030667, 64.71479813235676 75.2013931758645, 48.025698046933876 74.31562416019898 M109.84124363586764 75.00218104521977 C89.83172673279255 74.04964974271934, 69.41004896221897 74.0218876036938, 50.013087834661604 75.9518100142632 M49.55123053567934 75.4704232194568 C49.48642843784951 58.591970442969426, 49.495776613820965 44.598726253873885, 48.02524177354405 25.485680637965977 M49.91530197621349 74.2117218807277 C50.5258034418769 62.58699461284205, 49.69176312389777 49.80698561316106, 49.20471975957233 25.390730953414927" stroke="rgb(0, 0, 0)" stroke-width="1" fill="none"/></g><g><path d="M179.52868711014202 26.92441882397633 L248.4543111471907 23.80584327440278 L251.85138790493295 75.75404856666847 L178.72580213900707 76.82281847781724" stroke="none" stroke-width="0" fill="none"/><path d="M179.03022891689864 25.197465129889743 C195.21359573100548 24.20917655187056, 212.35923056696458 24.35581273007335, 250.03351296268082 23.06363052701692 M179.25693213759376 25.64142928828177 C197.5864029056344 25.175007306843348, 214.08709347082097 24.094296323883754, 250.3246138618833 24.524729918142064 M250.62434667667497 23.815463188625607 C250.01139567156346 42.67966916028585, 251.24679476599067 63.73418214514793, 251.77873211462708 75.0229531622917 M249.0112271081695 24.931046876484807 C249.7235584450463 41.19590502646519, 249.19984949346164 55.465518490350114, 249.9126790695563 75.83071581752222 M250.18102380469307 73.42269546178599 C221.83476573540617 72.96129131055334, 192.71402249681125 73.2496098161877, 178.71423009288677 73.92862522192654 M249.91095640894366 74.2049449914758 C228.56993595501498 76.0703709257086, 207.2036131621716 76.496341857101, 180.81889770457275 75.8968961152088 M179.8685259023618 73.28086044910786 C180.27144829729357 58.18349158209825, 180.45116356378176 43.76078107931837, 178.51004635971887 24.899822429831318 M180.56512048234674 75.504876367348 C180.1371518836359 63.566008818687926, 180.74570421970552 54.89721467695288, 179.0687418825868 24.655476748181442" stroke="rgb(0, 0, 0)" stroke-width="1" fill="none"/></g><text x="80" y="55" class="id">id76</text><text x="215" y="55" class="type">float</text></g></svg>