<svg width="287" height="217" xmlns="http://www.w3.org/2000/svg"><style>
        :root {
        --fade-text-color: rgb(0, 0, 0);
        --hide-text-color: white;

        --highlight-value-text-color: rgb(27, 14, 139);
        --highlight-id-text-color: rgb(150, 100, 28);

        --highlight-box-fill: yellow;
        --highlight-box-line-color: rgb(0, 0, 0);

        --fade-box-fill: rgb(247, 247, 247);
        --fade-box-line-color: gray;

        --hide-box-fill: white;

        --primitive-value-color: rgb(27, 14, 139);
        --id-text-color: rgb(150, 100, 28);
        --default-font-size: 20px;

        --highlight-object-fill: rgba(255, 255, 0, 0.6);
    }

        text {
            font-family: Consolas, Courier;
            font-size: 20px;
        }
        text.default {
            fill: rgb(0, 0, 0);
            text-anchor: middle;
        }
        text.attribute {
            fill: rgb(27, 14, 139);
            text-anchor: start;
        }
        text.variable {
            fill: rgb(0, 0, 0);
            text-anchor: start;
        }
        text.id {
            cursor: auto;
            fill: rgb(150, 100, 28);
            text-anchor: middle;
        }
        text.type {
            fill: rgb(27, 14, 139);
            text-anchor: middle;
        }
        text.value {
            fill: rgb(27, 14, 139);
            text-anchor: middle;
        }
        path {
            stroke: rgb(0, 0, 0);
        }
        .highlighted path {
            fill: var(--highlight-object-fill) !important;
        }
    </style><g id="object-0"><path d="M49.29258730302063 25.654451594422667 L250.05332540012466 24.14444274401284 L249.0594752013655 153.01414873095317 L48.71470662686807 155.14781505649293" stroke="none" stroke-width="0" fill="none"/><path d="M51.1893572744359 25.164808336275943 C124.27436179107636 24.979657174106798, 201.8099037322505 25.370994356317375, 251.15779040310824 24.648674527976645 M50.01134801511694 25.547328141269656 C107.1836130115702 23.750197445139637, 163.538129852499 23.597798352035245, 250.84222760627156 24.20903733437411 M250.57033885047204 25.16464542809988 C250.03339640470784 63.85750999272588, 251.14265037265088 103.11649458898066, 249.32663231299674 156.23594281583323 M250.2666612178343 24.081492145745596 C251.47916872995555 74.44422500203787, 251.0571659159637 121.78251675294838, 250.2076651951456 155.65521963708997 M249.8831880112907 153.34383935866674 C199.98589044914183 157.0776836558049, 145.1887998302379 158.58087035792, 48.427364574062395 154.33697096785494 M250.78815984775673 155.58258796133498 C197.68854359386626 153.42184787785345, 145.1162203244423 153.32487576670835, 49.85121257294178 154.3253283377014 M48.27108157790757 153.5185425315911 C49.20891555423473 113.1993647417461, 49.87295515224978 72.05848503924956, 50.353584245649756 24.28533697811198 M49.527409506744085 155.50866741653252 C48.78793293392441 120.39553251762875, 49.927041503835156 82.95908485691426, 50.7309300977251 25.023457604985943" stroke="rgb(0, 0, 0)" stroke-width="1" fill="none"/></g><g><path d="M42.54754595384661 17.053388244146937 L255.2524058525974 17.399069925360244 L257.7969463964417 160.67396951031208 L42.885637582377946 159.4767128472324" stroke="none" stroke-width="0" fill="none"/><path d="M44.137378951625735 19.922884824099985 C97.87396987082862 19.547727928427268, 155.7230590761169 18.471731667074856, 257.24054089278644 20.44876041149598 M43.46399751695723 18.32935510914177 C110.82286764986895 19.591792242666045, 179.76508152364153 19.259476011566335, 255.71243559740913 19.273536125384183 M256.0971941348046 20.685971762080577 C255.71371074448987 57.17781792803335, 256.918045711473 98.32421501230789, 256.00158313732476 160.72603107245394 M256.81691016246464 19.29782585479246 C255.15949978050926 50.482212733181115, 254.3512143772134 83.59881951402593, 255.71168084653613 161.3673427475085 M257.3302384585286 162.6279057258108 C205.989598604336 159.98086328135855, 152.3611055913434 159.08638565082808, 45.20275812173004 159.7170125307711 M255.864003350526 161.20065248251055 C208.66649678624893 160.62904222532194, 162.0574091148966 159.70589207878064, 43.49459890930268 160.8477277745028 M44.545064681433615 162.60230334238273 C44.7103604401715 109.28381182132993, 46.562254912117496 53.104727572057556, 43.093214887866274 17.78006462220944 M44.75594639794569 161.9712227300777 C43.92137211786841 113.41164941847279, 43.777465752071826 65.89584920902945, 43.68467118686271 18.77499913421582" stroke="rgb(0, 0, 0)" stroke-width="1" fill="none"/></g><text x="150" y="115" class="value"></text><g><path d="M50.906915046397195 24.285395433654184 L109.39470419482447 23.948585614013485 L111.76869038636138 73.35935681214539 L50.16342994146076 75.59428368976573" stroke="none" stroke-width="0" fill="none"/><path d="M49.175298910114336 23.293818847705044 C63.215013012068866 26.21325569275028, 75.00917872943522 26.69256966501909, 110.11318651907939 24.959578059289576 M50.95583950685519 24.47088719240426 C61.947622614229324 25.231466084301957, 75.86048709999515 24.537287555287534, 109.4777381248304 24.35316571974496 M111.36222250958897 24.271795244548635 C107.88514491078243 39.00617738649223, 108.06997625901948 51.95122144510871, 109.44463428748968 73.29989176627687 M110.26682334850238 25.28580961217459 C110.09098369114504 35.60717473927015, 110.07884197359803 47.416234071045615, 109.31492326832753 75.3931536862054 M109.84822670101272 74.4695596454747 C88.17065486590471 75.82761851315674, 65.46763122397266 74.00101750951457, 48.74341774439257 76.25074236699872 M109.79491346867658 74.53145013147412 C90.5606113418914 74.62490768072115, 73.3915112878535 74.24671487779152, 50.84801113173502 74.39036012209166 M49.27167014128966 76.47237167061729 C51.44102126392415 57.12998717590828, 48.05492502243355 41.93711418762432, 48.31055036512705 24.29319477302584 M49.257580595319915 75.55666316032031 C50.77584757368647 62.62635114799625, 51.23998204706423 51.003024024946455, 49.97595992754154 24.898146201508126" stroke="rgb(0, 0, 0)" stroke-width="1" fill="none"/></g><g><path d="M179.6580838787143 25.722806105777515 L251.37936120500243 24.01915894306779 L251.71029112496552 76.88198677495984 L179.23690717328572 76.39051029020088" stroke="none" stroke-width="0" fill="none"/><path d="M181.98761263808078 25.062559060930763 C204.89975005663052 25.341245901811362, 232.4314708721003 25.22824911990284, 249.27967598962502 26.240900998682978 M179.64957409549953 24.124759154968533 C205.415173778053 24.21975230978476, 229.71336654468664 25.34717222350789, 249.5438017577796 24.568997318994523 M250.65998743030994 23.05192916826674 C248.97129641323326 41.31323758972831, 252.02850964450158 56.694659981683564, 251.69949229310376 76.65376253295834 M249.47061495507526 25.349566792145133 C251.04850831832974 39.25425712868543, 250.4296483918188 54.302087760208664, 250.29360526972795 75.24144557606344 M249.0950542513128 75.72778087711553 C226.49125021566672 75.62972397670097, 205.1336399355971 77.62516631457368, 178.8229892652385 76.76582204494166 M249.17221024858566 74.0231882800178 C221.64443600024705 75.53012878096246, 194.2007752138418 75.76011774725109, 180.32675746603147 74.65441494818768 M178.45961136867305 73.59301676657607 C178.30891096585972 59.28054627606847, 180.05700428106726 45.771427412986945, 180.37847664199847 24.518161739625228 M180.438141011957 74.42887783314237 C179.75759692391242 58.836590587752724, 179.08078647247163 42.372380870661736, 179.05725670224018 25.01102272003841" stroke="rgb(0, 0, 0)" stroke-width="1" fill="none"/></g><text x="80" y="55" class="id">id76</text><text x="215" y="55" class="type">float</text></svg>