<svg data-theme="dark" width="394.5" height="205" xmlns="http://www.w3.org/2000/svg"><style>
        :root {
        --fade-text-color: rgb(0, 0, 0);
        --hide-text-color: white;

        --highlight-value-text-color: rgb(27, 14, 139);
        --highlight-id-text-color: rgb(150, 100, 28);

        --highlight-box-fill: yellow;
        --highlight-box-line-color: rgb(0, 0, 0);

        --fade-box-fill: rgb(247, 247, 247);
        --fade-box-line-color: gray;

        --hide-box-fill: white;

        --primitive-value-color: rgb(27, 14, 139);
        --id-text-color: rgb(150, 100, 28);
        --default-font-size: 20px;

        --highlight-object-fill: rgba(255, 255, 0, 0.6);
    }

        text {
            font-family: Consolas, Courier;
            font-size: 20px;
        }
        text.default {
            fill: rgb(0, 0, 0);
            text-anchor: middle;
        }
        text.attribute {
            fill: rgb(27, 14, 139);
            text-anchor: start;
        }
        text.variable {
            fill: rgb(0, 0, 0);
            text-anchor: start;
        }
        text.id {
            cursor: pointer;
            fill: rgb(150, 100, 28);
            text-anchor: middle;
        }
        text.type {
            fill: rgb(27, 14, 139);
            text-anchor: middle;
        }
        text.value {
            fill: rgb(27, 14, 139);
            text-anchor: middle;
        }
        path {
            stroke: rgb(0, 0, 0);
        }
        .highlighted path {
            fill: var(--highlight-object-fill) !important;
        }
    
        [data-theme="dark"] {
            --highlight-value-text-color: #110875;
            --highlight-id-text-color: #6e4409;

            --fade-text-color: #BBBBBB;
            --hide-text-color: #121212;

            --highlight-box-fill: #EDB926;
            --highlight-box-line-color: #FFFFFF;

            --fade-box-fill: #2C2C2C;
            --fade-box-line-color: #666666;

            --hide-box-fill: #121212;

            --highlight-object-fill: rgba(72, 207, 173, 0.3);
        }
        [data-theme="dark"] text.default,
        [data-theme="dark"] text.variable {
            fill: rgb(224, 224, 224);
        }
        [data-theme="dark"] text.attribute,
        [data-theme="dark"] text.type,
        [data-theme="dark"] text.value {
            fill: rgb(144, 164, 237);
        }
        [data-theme="dark"] text.id {
            fill: rgb(255, 183, 77);
        }
        [data-theme="dark"] path {
            stroke: rgb(204, 204, 204);
        }
</style><g id="object-0"><path d="M51.55241919320043 23.025899859051755 L369.32245902404145 23.630998785440593 L367.8961140021612 153.21107589588777 L49.266332279543064 154.16822294574987" stroke="none" stroke-width="0" fill="none"/><path d="M50.834472436616466 24.22021557813014 C160.5545909074004 25.578457070284138, 269.62461173843866 24.928356530973044, 368.1840641518904 23.82511341233258 M50.61404094575817 25.50677801403843 C144.14172924819823 26.60324300544638, 238.11042085474975 26.330510321361828, 369.74875715594715 25.175577654362684 M371.4431437368275 25.318726216620817 C367.78369958632067 60.533079264509155, 369.71406293563723 93.0163444827132, 370.0833639213246 153.84453822324926 M369.88275636088963 24.793323851507065 C368.86222769700515 68.19686756122411, 369.93961553387845 111.88324645047531, 368.8577944881507 155.8509148641354 M369.73628691512556 155.53724613563796 C267.7542285554597 156.28134932120793, 168.5621696400556 155.73849859798722, 50.63426764697941 154.15867377349005 M369.317404043646 155.26733881373704 C287.4565513370572 154.22081501744492, 206.45047749656345 154.6621959925201, 50.13301778351234 155.2920849582367 M50.482976263232246 156.32073552090662 C49.21754299123389 116.40238993580996, 48.70656957440399 75.5893779172327, 49.09265614658934 24.18279856393626 M50.529067795254576 155.00429677137453 C49.40574564997993 112.9836970965941, 51.09852938514772 73.86157332665856, 50.9166309386833 24.14068177054478" stroke="rgb(0, 0, 0)" stroke-width="1" fill="none"/></g><g><path d="M44.37161809044798 19.168606915518488 L376.2928317482523 19.634293826179963 L375.35826512571913 162.79318293316805 L42.25582388871031 161.8379956916697" stroke="none" stroke-width="0" fill="none"/><path d="M44.841369313213974 19.493392069419013 C116.81187348156443 18.56980117366718, 188.7202204576187 19.48902571675852, 375.12878817498836 18.31398338444426 M43.44092478238471 18.685887640686204 C115.6586445203471 20.1954113070511, 187.18287576985816 20.41505908493341, 375.0633449708427 19.189135054169277 M373.85761264505277 17.111257234532303 C375.3518491683086 67.73813206900364, 375.6717493728123 119.87506673083887, 374.4775009233299 162.276723706875 M375.26528837541485 19.061140467656653 C375.4802459559071 63.506137894752044, 375.22923201375625 107.53253933342747, 374.5554501467748 161.23708022882337 M376.4324662294768 162.15262297001047 C265.36283744435116 161.04132526873474, 157.04623390289848 161.04962216445873, 44.6032163355188 161.30432120292454 M375.7393207876953 160.38076281712435 C289.6471308827932 160.37830308284848, 202.80234874308312 159.70846977393552, 44.08698570937096 161.49454917826927 M43.345046145997095 161.84983865389412 C44.316462137445875 105.64293119751098, 43.872349726237424 48.88635282605697, 42.05173508231756 17.570426539603282 M44.44279328764495 160.61176540179565 C42.7221039779354 131.4401419406786, 42.54006191326948 101.66172985182101, 43.511030204703985 18.57432703217602" stroke="rgb(0, 0, 0)" stroke-width="1" fill="none"/></g><g><path d="M74.62008546057066 89.39744668731149 L133.3362563462404 90.54699203357046 L131.49968822578504 141.0724441862675 L73.90992158910566 140.80600419089862" stroke="none" stroke-width="0" fill="none"/><path d="M74.41842462302819 91.67410638558941 C90.94871894508196 90.00326570030946, 103.07685862236883 90.34729631113802, 131.9915326054224 91.6138974942498 M74.18109758391833 89.73517362205513 C93.649962647806 88.91699841386728, 110.23996870335358 90.13707406602414, 132.9774936955486 90.98386985925922 M131.26674703162726 88.71837294718227 C132.27200117906847 101.42503788881528, 133.140507461381 108.96504498662026, 134.05235927384376 140.24190443331707 M133.0064412010797 89.47527472351085 C133.2118529608649 105.20734919508213, 133.02453159473689 121.51022755754272, 132.0280645067353 139.63092926113305 M131.75669602192548 139.3539718791804 C117.70325200664476 141.68873230733936, 106.01332957704285 141.30447650199324, 73.74514927909894 139.795748043394 M133.5954668195947 139.01725705178438 C112.80197391560469 140.9088444686961, 94.52103378044684 140.2929005060456, 75.65116049002138 140.24544335961545 M76.55822780711082 141.72921038669975 C75.49028873268342 125.508409581932, 74.35763003288982 108.16624609971502, 74.30376512898722 88.51809491793011 M74.37003793206114 140.17237851333434 C74.60190245029119 128.62481638829377, 74.68369909268847 119.21088012910477, 74.39596256297382 89.27922414903111" stroke="rgb(0, 0, 0)" stroke-width="1" fill="none"/></g><text x="104" y="120" class="id">id36</text><g><path d="M145.85796314906972 88.10976897583097 L204.42235287076048 91.5260979489715 L205.40082628101882 139.39314472889194 L145.5553765949258 139.44675708973787" stroke="none" stroke-width="0" fill="none"/><path d="M143.75565571746205 90.08763094359087 C159.7993885480305 88.97342324173621, 178.76771224297036 89.81345068264798, 203.74795382619962 89.55622408572472 M146.39152539478943 90.6992184593803 C158.63395111107593 90.11931666589294, 172.90459103059754 88.70117811926579, 204.37431650996916 89.79480447147797 M203.25480167024762 90.58081190568404 C203.49014100059873 108.73701670940066, 205.32552681658342 129.27321427132478, 204.95004578620896 141.1109360277759 M203.14759688904664 90.57092842088953 C203.60020594077412 100.85589411485772, 204.20042311303177 111.08123950787544, 203.15536156405645 139.41814406815607 M203.7785285617549 141.99401849723517 C182.60193316252185 138.47961984091182, 161.6444618885627 140.79815957711168, 145.08211500376575 140.432451874837 M202.89336989553397 140.7150424353612 C180.26131685659598 141.09544555178175, 159.23866295497572 139.88877500198734, 146.35085630839427 139.2331713777769 M146.72935161236975 139.06448403262897 C144.60782957973657 124.30460246057751, 144.9717283248481 105.62494786302875, 147.47886563880976 88.93201939144618 M146.17512933647856 139.99526934071392 C145.41963682221143 124.11449650607939, 145.66883084221024 106.05105549434846, 144.74519267553652 90.34202048209545" stroke="rgb(0, 0, 0)" stroke-width="1" fill="none"/></g><text x="174.5" y="120" class="id">id49</text><text x="139.25" y="120" style="" class="default">,</text><g><path d="M217.43861818015804 89.04683741651775 L273.0944408642112 89.87807106371024 L273.1372248957729 138.57581333094373 L217.0169599894981 140.4571530680292" stroke="none" stroke-width="0" fill="none"/><path d="M215.78634267786296 91.9971162407045 C238.0000067061217 87.98768912529924, 258.63429058420934 88.28328172909654, 273.54234002124923 89.41245988757669 M216.28330613652327 89.56741062482445 C237.1841655632342 90.16715627090868, 259.0853391394976 89.41632237440767, 273.55506124655193 89.04755433643189 M274.3851479585706 91.67460514985714 C275.7478667999722 106.88987294143273, 275.8202444801694 122.82040381212236, 273.99099439504727 139.4588715233826 M274.93152446815577 90.6170520701523 C274.0331691780272 109.48487235589249, 273.8495279191467 130.40679335201006, 274.2038307922379 139.68847540407197 M272.28346941705706 138.51787681619936 C257.8206639208607 139.75669582335883, 237.8986635588812 140.38611743861452, 217.00531017008458 138.57419979927633 M273.7767581495864 140.0935524160998 C254.98827095830543 139.68586301368185, 234.21777176327564 139.54740568623427, 215.6259081126163 139.58771553873086 M217.81715531198876 139.28773285015558 C218.06744637759297 125.35032413853631, 217.2066542716051 114.13529160853105, 217.05617078391126 88.53250846295118 M215.4672244401461 140.2796560635482 C216.1917899549015 129.0470000991907, 215.6913926955876 118.77775130224674, 216.14149350546367 90.37818935607208" stroke="rgb(0, 0, 0)" stroke-width="1" fill="none"/></g><text x="245" y="120" class="id">id72</text><text x="209.75" y="120" style="" class="default">,</text><g><path d="M284.8011374420523 88.44249373706657 L346.4848355950346 88.84436217948804 L345.6717367245607 139.53391724612786 L284.7466805709975 140.90107623540925" stroke="none" stroke-width="0" fill="none"/><path d="M285.0612382809105 91.07174359738879 C307.54606107642985 90.01944098899881, 328.73290293052077 90.62444861549183, 342.94691909232284 91.75146016426238 M286.08938579795006 90.19547559335034 C305.62949691038693 90.49928990248378, 327.20010120382534 90.47850845424455, 343.8768909155345 89.36782145185478 M342.5951683667749 88.3297651351165 C344.6500564185421 105.5212591336647, 345.70153726168974 120.1875248448347, 344.6494875240796 139.25308447993288 M344.557440290131 90.32563292380603 C345.01225022146656 103.79946011652278, 345.4062607182942 117.2657860834491, 344.4389680038688 139.67067118351378 M346.1587327647489 140.3085198876358 C334.0673144233931 138.50355711559692, 320.8645341426877 138.05044607505158, 287.26962377198856 139.4380711940354 M344.4568386062793 139.27676474727707 C329.2771214253016 140.32209763757047, 315.11329074167634 139.5763775207943, 286.1321116582138 140.67258428855763 M285.0328601312677 138.19106134994223 C286.65624737571886 123.93435542158853, 285.37702741168675 103.70192337398291, 287.7548497578129 91.38743087393713 M286.76160526714835 139.1114701225871 C286.2936412619917 129.0265575186866, 286.00134541570026 120.2571100219422, 286.01059810774046 90.36889679719414" stroke="rgb(0, 0, 0)" stroke-width="1" fill="none"/></g><text x="315.5" y="120" class="id">id64</text><text x="280.25" y="120" style="" class="default">,</text><g><path d="M51.19879032418412 26.507800720857603 L108.78744083388523 26.81022602646021 L111.44518905460639 74.82288902076394 L48.36697757182331 73.66320099244633" stroke="none" stroke-width="0" fill="none"/><path d="M49.986794357037596 26.200910473302507 C68.11879559776918 24.698206388818875, 89.48828346338952 26.768961919542306, 111.77504556848564 25.67995675461449 M50.89544969280396 24.3274871914113 C61.81391424926554 25.99215652418318, 74.88575912321174 25.36325766198871, 110.15522210278581 24.61336558027176 M111.52807280530862 24.37187972551473 C109.25706288017676 37.06463063070835, 110.6095077778037 47.65120861633984, 111.09110251756312 76.09324674813242 M109.10729673498736 24.155211601196225 C110.90333011061726 42.46865796008119, 110.5274798126007 60.838854530778285, 109.99215044907764 75.61267375668966 M109.87671389864909 75.13837479093314 C93.10931051977435 73.69432537968706, 78.83259961166671 73.66817833084379, 48.23380508242974 73.07621014942113 M110.92164838775538 74.13068279887135 C92.18017040269575 74.65928451800663, 74.63037316548434 75.57504028629221, 49.10362035882074 74.6037866557777 M51.85082869526317 73.52535019913265 C49.31300213389826 62.94868387713562, 51.60487219309634 52.05683187260029, 50.77934420456491 26.075276978006574 M49.86786131297571 75.93657262776281 C49.62191924054052 57.35716472039845, 50.66969205773476 42.471713940954366, 49.334151515509134 24.75664107730612" stroke="rgb(0, 0, 0)" stroke-width="1" fill="none"/></g><g><path d="M252.28560963632816 24.65781147462965 L371.1300884188225 23.62633498454913 L371.23451289398247 76.7016101701943 L252.7075833355513 75.14252694079995" stroke="none" stroke-width="0" fill="none"/><path d="M251.97027288467285 23.575542132342974 C281.8130515677434 25.228551664801522, 307.99406984522625 23.196410140069183, 369.5594839401588 25.838352427109005 M250.60143430065503 24.989522665652526 C295.8589454566647 25.0279135560646, 338.7097514504948 24.99741904071667, 370.03786666266996 25.11128902368329 M368.5153073801416 23.76322558671433 C368.63344956830645 37.12995328459901, 370.67352271486357 49.974788070192425, 370.9560848164946 74.54078955082353 M369.6382220352436 25.473989300361534 C369.37281738498035 37.44387158581391, 368.8263983299585 49.505285678591086, 370.2972540248479 74.54810284726106 M368.4098181409122 75.93167565874566 C343.3015321119218 76.89508064974198, 317.30146346081665 76.2670402785098, 251.87983036147415 73.28009843840182 M369.6024346088671 74.40359820243252 C325.3284934833636 73.79406714984407, 280.5547266576804 73.60305890543044, 251.44948411409501 75.10939833265036 M250.24553741487176 74.55510791938403 C251.7756602466555 60.14778292644978, 250.21022551231346 43.674520770817104, 253.24621926669204 24.5657660633488 M251.94332955993337 75.01145427316206 C250.54835199728794 59.44809604958958, 250.97491352444516 43.66929275987075, 250.7322173346531 24.984875446389324" stroke="rgb(0, 0, 0)" stroke-width="1" fill="none"/></g><text x="80" y="55" class="id">id90</text><text x="310.5" y="55" class="type">frozenset</text><text x="62.5" y="120" style="" class="default">{</text><text x="357" y="120" style="" class="default">}</text><script>
            function enableInteractivity() {
                // Inject the id value to object id mapping into script
                const idToObjectMap = {"id90":["object-0"]};

                function highlightObject(objectId) {
                    const objectBox = document.getElementById(objectId);
                    if (!objectBox) {
                        return;
                    }

                    objectBox.classList.add('highlighted');
                }

                function removeHighlight(objectId) {
                    const objectBox = document.getElementById(objectId);
                    if (!objectBox) {
                        return;
                    }

                    objectBox.classList.remove('highlighted');
                }

                function addEventListeners() {
                    document.querySelectorAll('text.id').forEach(idText =&gt; {
                        const idValue = idText.textContent.trim();
                        if (!idValue || !idValue.startsWith('id')) {
                            return;
                        }

                        idText.addEventListener('mouseover', () =&gt; {
                            const objectIds = idToObjectMap[idValue];
                            if (objectIds) {
                                objectIds.forEach(highlightObject);
                            }
                        });

                        idText.addEventListener('mouseout', () =&gt; {
                            const objectIds = idToObjectMap[idValue];
                            if (objectIds) {
                                objectIds.forEach(removeHighlight);
                            }
                        });
                    });
                }

                addEventListeners();
            }

            // Wait for DOM to be ready
            if (document.readyState === 'loading') {
                document.addEventListener('DOMContentLoaded', enableInteractivity);
            } else {
                enableInteractivity();
            }
        </script></svg>