<svg width="378.5" height="205" xmlns="http://www.w3.org/2000/svg"><style>
        :root {
        --fade-text-color: rgb(0, 0, 0);
        --hide-text-color: white;

        --highlight-value-text-color: rgb(27, 14, 139);
        --highlight-id-text-color: rgb(150, 100, 28);

        --highlight-box-fill: yellow;
        --highlight-box-line-color: rgb(0, 0, 0);

        --fade-box-fill: rgb(247, 247, 247);
        --fade-box-line-color: gray;

        --hide-box-fill: white;

        --primitive-value-color: rgb(27, 14, 139);
        --id-text-color: rgb(150, 100, 28);
        --default-font-size: 20px;

        --highlight-object-fill: rgba(255, 255, 0, 0.6);
    }

        text {
            font-family: Consolas, Courier;
            font-size: 20px;
        }
        text.default {
            fill: rgb(0, 0, 0);
            text-anchor: middle;
        }
        text.attribute {
            fill: rgb(27, 14, 139);
            text-anchor: start;
        }
        text.variable {
            fill: rgb(0, 0, 0);
            text-anchor: start;
        }
        text.id {
            cursor: pointer;
            fill: rgb(150, 100, 28);
            text-anchor: middle;
        }
        text.type {
            fill: rgb(27, 14, 139);
            text-anchor: middle;
        }
        text.value {
            fill: rgb(27, 14, 139);
            text-anchor: middle;
        }
        path {
            stroke: rgb(0, 0, 0);
        }
        .highlighted path {
            fill: var(--highlight-object-fill) !important;
        }
    </style><g id="object-0"><path d="M49.96850388473386 25.899470021552034 L352.83124044788167 25.460066530520102 L355.06331118254184 153.48058147679754 L51.987663757005464 154.66457726710465" stroke="none" stroke-width="0" fill="none"/><path d="M50.996390470802886 25.888844165522624 C139.97861746389603 26.528881773440958, 226.37516887637517 25.15660371467385, 352.22919949159365 24.52952000849533 M49.98107342654043 25.225900616986962 C112.66011435080078 24.00528229402746, 174.35781663669454 24.34461921792946, 353.7956873978356 24.860291825744454 M353.3379450951374 24.718594867044107 C355.8579712651202 64.4524029477125, 353.13394682348866 106.5034214298617, 351.5921292115809 155.7087141525128 M353.0297277168323 24.443110257524644 C352.3779306096499 62.98552255278992, 351.84326489015064 99.34579040917211, 353.62744088568553 155.14434194688525 M354.8245424292953 154.79161378268756 C257.5723228151482 154.28127122384458, 165.75313844072636 154.78419530860754, 51.200523739717895 155.91072102029466 M353.5611988582848 155.5319271564148 C256.28348171682285 156.60122224674038, 160.47360631843077 156.65323171989803, 49.77558743853858 154.31095361162417 M51.27952411934178 156.96312330277274 C49.404260090611416 122.42254048989786, 51.16677732199317 89.04814211973309, 50.8325434522025 23.08340309111515 M50.87570240161239 154.23646542337102 C48.28972112230477 127.09110051978492, 48.30090652347734 97.88523934398854, 49.441594021312696 25.23934557650996" stroke="rgb(0, 0, 0)" stroke-width="1" fill="none"/></g><g><path d="M44.78116940781393 20.25974808077289 L357.9572050499552 18.206525565901742 L359.71840136788563 160.0469572614877 L43.00351741679216 161.22331073404533" stroke="none" stroke-width="0" fill="none"/><path d="M42.968766072724 20.06763832993617 C160.7806483445339 20.087976123452098, 276.0318754677891 17.839956510070962, 359.5071855152925 19.52097800809791 M43.633142488653334 18.43819677151147 C132.58798198905095 16.767749364770076, 221.6292666687382 17.550903305931936, 359.14609141104825 19.592577788827125 M361.2378656638244 17.622155392460343 C357.6197502971082 65.86765870941288, 358.7962954634655 113.43230227284545, 359.00417699202444 162.15203623462872 M358.59893230171946 18.577708226219173 C359.6038479150529 52.98934972324005, 360.45410991488535 87.21321288823812, 359.83481602796707 160.12431140077064 M359.27019767552724 160.79782512032597 C284.97878987474184 162.73577643394523, 209.2798906016992 162.7000035526714, 43.950237624256395 162.14549053054284 M359.4247706111255 160.61245544399574 C284.43924471982734 161.96426884096775, 210.12960947108223 160.84084840816303, 44.31243290841864 161.47039337959168 M42.27263393345387 161.5718777227902 C43.43873258516662 125.45706115871195, 44.14764125206669 90.74828329844817, 43.72723795804818 20.555574296598525 M43.319470652756735 161.84160073279133 C43.117407007495956 121.62864663759595, 42.783630789010424 80.31930664746908, 43.20295368695683 18.659259810467404" stroke="rgb(0, 0, 0)" stroke-width="1" fill="none"/></g><g><path d="M76.40261685785735 90.86657780424005 L126.80068760653546 88.52357740288508 L125.4038130257124 141.79821982103786 L74.10052164761046 138.04063211358945" stroke="none" stroke-width="0" fill="none"/><path d="M74.29385363615155 91.66066910439235 C89.31063294105972 91.08517489537184, 103.15589609868182 88.94861734778485, 126.8855784828525 88.50841042511215 M75.6239245995154 89.23624980993456 C94.09290445103058 89.43626947967685, 112.37920933577847 89.80593280387514, 125.99803453535726 89.09667244799664 M124.00408482242516 89.0880562594943 C126.3907219581711 104.19971860644647, 126.21493229378852 120.34439649149842, 123.48406202003794 139.25258261311203 M124.74789870526362 90.80202901147113 C123.7103650017075 104.11240092878595, 123.81207941778975 115.52350997651828, 125.8156475959022 139.39471932000947 M126.06317886717908 141.05267724891613 C106.70614507616811 139.1248234200275, 88.07620217044088 140.72629720981854, 75.20638439006929 141.33717756039493 M125.49692686852563 139.49155101333287 C107.54360434416535 141.22197363589035, 91.52154998216929 140.8231783768769, 74.85556073800716 139.14901565271293 M74.71307838566472 141.8105933822341 C73.74733431425356 126.0731561406457, 74.42438323363353 115.10825442482813, 73.29790148963687 89.8821328380266 M75.63640031230474 140.86254293718406 C75.39241654924307 125.11663129596259, 75.56425573249525 109.23044330740188, 74.81862106671716 89.11446391917623" stroke="rgb(0, 0, 0)" stroke-width="1" fill="none"/></g><text x="100" y="120" class="id"></text><g><path d="M137.09119714519102 91.65857203257417 L197.45564148360685 89.79938716469096 L196.09864528535675 141.79847724435393 L136.29611988314713 140.19031586829541" stroke="none" stroke-width="0" fill="none"/><path d="M139.25594144520662 91.54845242064054 C151.9375039706297 91.65851364136827, 164.88643834924702 91.61609843070366, 197.2918176514988 91.78984869207747 M138.07258670434888 89.03497829930237 C156.87555360285748 89.71490645457423, 175.82030246287388 89.22499472292363, 195.57897395247016 89.61533755805739 M193.54610056290824 88.80780929885974 C193.2598092363429 104.48088003500669, 193.55617220168338 118.52676472445178, 195.16496619374314 141.19893800027265 M196.28938616966997 89.83906090037719 C194.8116530763226 104.83120767343688, 194.91219949765488 117.8597102588675, 196.12501058938219 139.49471268434604 M194.19530384063003 138.3580997101833 C180.1500292834699 141.1883502049076, 162.991083698433 141.9803052997351, 139.07686862820992 141.92772910730687 M195.9937528811364 140.69454746006716 C181.23582936706313 139.36811610634092, 167.97613136782644 139.6217538123631, 137.91413201432073 139.88686529139392 M136.63250699333733 141.4970481962688 C137.8592031639867 124.86717755952861, 139.62291349792497 113.05102145483853, 136.01587561763202 90.95046556429487 M137.41048924184366 140.0171819810143 C138.22425700457478 122.69499648174464, 137.787966727056 105.24868710157637, 136.58674329843205 89.31490837917575" stroke="rgb(0, 0, 0)" stroke-width="1" fill="none"/></g><text x="166.5" y="120" class="id">id16</text><text x="131.25" y="120" style="" class="default">,</text><g><path d="M207.44002942280153 90.61591737835312 L259.99976826597435 91.4153454341153 L258.7933209383402 139.74322797312902 L208.88554305950024 140.15957325146638" stroke="none" stroke-width="0" fill="none"/><path d="M207.7826066365532 90.0721909378887 C225.47624156630934 90.99168168541374, 241.44755815820588 87.98915858242106, 259.7013831056718 89.82030085062733 M207.9266514369805 90.08533527774541 C220.30630137811767 88.82586715101016, 233.4153563778385 89.36252072745847, 257.55949385299544 90.51441047203737 M258.92148934588886 89.93912108117242 C258.05734185213623 103.4601431115343, 258.99828994834564 119.7714814727996, 258.12403596474655 139.7942712612485 M258.27002206673694 89.25270097973855 C257.034685118473 108.42470117390829, 257.7885771615088 126.51034419429232, 258.7528652746611 139.55586817356703 M258.804005194871 139.2603039237276 C239.613713819199 139.29473706652416, 220.17852262106823 141.32524587099059, 206.51065272907078 139.37119174826574 M257.45488319708045 139.5817855150731 C242.18414130532182 139.95712118931107, 227.1123888998755 140.22010249924708, 208.10803894052594 140.98249484270434 M206.32941547021287 138.9984824430156 C207.91690790893264 127.34588924322196, 208.2211571164679 116.10246806070936, 208.88648577143798 90.21803404849179 M207.57031775479126 139.39652828742865 C209.1161967645567 123.70201815533862, 207.89494256243796 106.67387031742376, 207.86180127575045 90.3115289395463" stroke="rgb(0, 0, 0)" stroke-width="1" fill="none"/></g><text x="233" y="120" class="id"></text><text x="201.75" y="120" style="" class="default">,</text><g><path d="M270.5910378291951 89.94335125002925 L326.8840622326263 88.5469375993894 L329.9809860687027 140.6517411852192 L271.88547548620966 139.9443350088715" stroke="none" stroke-width="0" fill="none"/><path d="M271.2962843372823 89.47964154374662 C283.576570276285 89.36645291348484, 297.22095418907963 90.14018357050001, 330.1810240532675 91.5582660019662 M271.23137010214054 89.7382318814186 C285.65513085139304 90.13751621996123, 302.39106331632627 90.65852615620507, 328.45637258347296 89.08131354421424 M327.4620813058523 89.14109162581123 C326.92791212359555 106.9802952346974, 327.33927891028605 126.54164592365244, 327.0132953043589 138.14770584053605 M327.615985435344 89.2726947162487 C327.7428364582045 110.02705749490181, 329.4427340270611 129.03080506645162, 329.061411466196 139.73693441157684 M329.99893747476904 141.37650638364335 C313.4281808699265 139.5941159042701, 296.1885923308908 141.13018941039743, 271.89768084830564 140.6659472401605 M328.5852407381528 139.1238356341077 C307.8232395689274 140.4124925623079, 287.7412919302782 141.01191835127855, 270.772612084861 139.49854977315277 M268.6966687490076 138.70012061362084 C271.88954131885004 130.24360833746104, 271.062720385173 117.76597128433788, 269.8078782203962 89.36230643530253 M269.94937436838626 139.94345648666214 C269.80224208688816 127.82031565558032, 270.20359502891006 114.7627517127164, 270.77971319346824 89.09755094344234" stroke="rgb(0, 0, 0)" stroke-width="1" fill="none"/></g><text x="299.5" y="120" class="id">id84</text><text x="264.25" y="120" style="" class="default">,</text><g><path d="M50.746967089349 23.809712659014682 L108.02168160210883 25.283838094409024 L111.63028549239644 74.27754982514043 L50.183515642151974 74.37337281852439" stroke="none" stroke-width="0" fill="none"/><path d="M49.837653656640754 25.97532429379573 C67.48452820462629 25.66235265832227, 85.06691971308864 24.36769770843098, 111.62161692169599 23.68771295998032 M49.24488695256095 25.335274856840794 C64.51644034420127 25.23295847586563, 79.94011626746503 24.62955761055459, 110.0003909747213 25.23121501398865 M109.84562422206267 24.068353449395058 C108.00562582142716 36.950384374057485, 109.43857897699566 47.68286839083192, 110.72437798427427 76.966180398023 M109.6642019316209 24.522860397634613 C109.40697852869235 36.745788103244045, 110.23281636514339 49.01593407537086, 109.45776601848522 75.68100390778362 M108.23024200711596 76.75714650639048 C90.42208203478604 73.99081435179845, 69.96942603689996 75.31211048663388, 48.40514547396937 76.98362750196455 M110.00038767609259 75.17046340836886 C96.62272141008198 74.17645292997662, 83.19755928217614 74.26205960262205, 50.27267790823783 74.34320096643755 M50.70408775109331 74.08684882241045 C48.58849140504695 62.01321616177841, 51.17177725025794 46.47720867392716, 48.064997339216006 24.000347523836453 M50.54542744446131 74.16607494744757 C49.680632115510534 57.33114865282009, 50.22533023701482 38.68172388227495, 49.37573981355015 24.20044746368564" stroke="rgb(0, 0, 0)" stroke-width="1" fill="none"/></g><g><path d="M237.18417603839475 25.82421568513563 L354.5777705228859 24.738701878138222 L355.11998524529434 76.74081392494577 L233.7316660994489 75.60514034144622" stroke="none" stroke-width="0" fill="none"/><path d="M234.2041098092564 26.017399638372915 C282.86660207679637 25.49407073943242, 327.9380512895748 23.93815268971183, 352.706514331468 23.11000314778063 M234.93301293480508 25.377600128859843 C282.1536660393806 26.405528614688816, 329.29363597435815 26.44284665998911, 354.3105519583509 24.819205142093967 M353.1776341570753 25.534917975805595 C352.4073121484592 41.84208181665875, 354.5062937317898 58.725087636317255, 352.1687596504746 75.8764904099549 M353.46576109810485 24.553256656172415 C354.4545694527701 42.2332859217997, 353.9128805037587 57.80282441130555, 353.55816561851975 75.81607605933443 M354.2073237409627 73.10627983571672 C321.8363168933887 73.72809173732313, 285.8695256611626 73.37649938931034, 234.82526446844298 74.90497642586898 M354.0879184254396 75.05862079938294 C312.89111710419303 73.9940172564077, 272.61662447485156 75.32162713429722, 234.5447813134725 74.6980246620291 M237.18865948242177 75.62498024813482 C235.4322770529358 60.41296624315585, 235.05213511133582 44.28406817056288, 234.5146697186504 25.474439773798437 M234.84518283481026 75.38496493033547 C235.34888071334166 59.32660635311231, 234.81163871706963 44.231742570868484, 234.52820214502643 25.608591785584245" stroke="rgb(0, 0, 0)" stroke-width="1" fill="none"/></g><text x="80" y="55" class="id">id90</text><text x="294.5" y="55" class="type">frozenset</text><text x="62.5" y="120" style="" class="default">{</text><text x="341" y="120" style="" class="default">}</text><script>
            function enableInteractivity() {
                // Inject the id value to object id mapping into script
                const idToObjectMap = {"id90":["object-0"]};

                function highlightObject(objectId) {
                    const objectBox = document.getElementById(objectId);
                    if (!objectBox) {
                        return;
                    }

                    objectBox.classList.add('highlighted');
                }

                function removeHighlight(objectId) {
                    const objectBox = document.getElementById(objectId);
                    if (!objectBox) {
                        return;
                    }

                    objectBox.classList.remove('highlighted');
                }

                function addEventListeners() {
                    document.querySelectorAll('text.id').forEach(idText =&gt; {
                        const idValue = idText.textContent.trim();
                        if (!idValue || !idValue.startsWith('id')) {
                            return;
                        }

                        idText.addEventListener('mouseover', () =&gt; {
                            const objectIds = idToObjectMap[idValue];
                            if (objectIds) {
                                objectIds.forEach(highlightObject);
                            }
                        });

                        idText.addEventListener('mouseout', () =&gt; {
                            const objectIds = idToObjectMap[idValue];
                            if (objectIds) {
                                objectIds.forEach(removeHighlight);
                            }
                        });
                    });
                }

                addEventListeners();
            }

            // Wait for DOM to be ready
            if (document.readyState === 'loading') {
                document.addEventListener('DOMContentLoaded', enableInteractivity);
            } else {
                enableInteractivity();
            }
        </script></svg>