<svg data-theme="dark" width="378.5" height="205" xmlns="http://www.w3.org/2000/svg"><title>Python memory model diagram showing objects</title><style>
        :root {
        --fade-text-color: rgb(0, 0, 0);
        --hide-text-color: white;

        --highlight-value-text-color: rgb(27, 14, 139);
        --highlight-id-text-color: rgb(150, 100, 28);

        --highlight-box-fill: yellow;
        --highlight-box-line-color: rgb(0, 0, 0);

        --fade-box-fill: rgb(247, 247, 247);
        --fade-box-line-color: gray;

        --hide-box-fill: white;

        --primitive-value-color: rgb(27, 14, 139);
        --id-text-color: rgb(150, 100, 28);
        --default-font-size: 20px;

        --highlight-object-fill: rgba(255, 255, 0, 0.6);
    }

        text {
            font-family: Consolas, Courier;
            font-size: 20px;
        }
        text.default {
            fill: rgb(0, 0, 0);
            text-anchor: middle;
        }
        text.attribute {
            fill: rgb(27, 14, 139);
            text-anchor: start;
        }
        text.variable {
            fill: rgb(0, 0, 0);
            text-anchor: start;
        }
        text.id {
            cursor: auto;
            fill: rgb(150, 100, 28);
            text-anchor: middle;
        }
        text.type {
            fill: rgb(27, 14, 139);
            text-anchor: middle;
        }
        text.value {
            fill: rgb(27, 14, 139);
            text-anchor: middle;
        }
        path {
            stroke: rgb(0, 0, 0);
        }
        .highlighted path {
            fill: var(--highlight-object-fill) !important;
        }
    
        [data-theme="dark"] {
            --highlight-value-text-color: #110875;
            --highlight-id-text-color: #6e4409;

            --fade-text-color: #BBBBBB;
            --hide-text-color: #121212;

            --highlight-box-fill: #EDB926;
            --highlight-box-line-color: #FFFFFF;

            --fade-box-fill: #2C2C2C;
            --fade-box-line-color: #666666;

            --hide-box-fill: #121212;

            --highlight-object-fill: rgba(72, 207, 173, 0.3);
        }
        [data-theme="dark"] text.default,
        [data-theme="dark"] text.variable {
            fill: rgb(224, 224, 224);
        }
        [data-theme="dark"] text.attribute,
        [data-theme="dark"] text.type,
        [data-theme="dark"] text.value {
            fill: rgb(144, 164, 237);
        }
        [data-theme="dark"] text.id {
            fill: rgb(255, 183, 77);
        }
        [data-theme="dark"] path {
            stroke: rgb(204, 204, 204);
        }
</style><g role="graphics-object"><title>Frozenset id90 with 4 elements</title><desc>Elements: blank, id16, blank, id84</desc><g id="object-0"><path d="M50.792078891443566 23.92048184807688 L352.5938729315094 25.569239542859435 L354.4077994086946 153.48598814276488 L48.46927200825176 156.1016367815015" stroke="none" stroke-width="0" fill="none"/><path d="M49.00964498361247 25.43638887350173 C111.32424220289701 26.684973902117683, 172.03428929369653 26.424082244991915, 353.03891533026507 23.840923938161083 M49.30262230689486 24.44497270493997 C122.68278660986971 25.319025090428536, 195.27972223760688 25.056377757183228, 353.22136569036826 24.44666392596059 M355.39796131956354 24.668987798410026 C351.9844140228122 59.09584057502422, 354.36778853283425 98.62324311107892, 352.8966953137593 153.90497522296732 M352.7190953974877 25.23147755826362 C352.5591843919931 53.490836465886275, 352.1315102982619 83.34026853430319, 353.35339890319517 155.76486132958274 M353.76588178564845 154.30715500189137 C282.5665255365236 155.5886305003778, 212.89514717236568 155.72039126543794, 50.51421996978101 154.17793549063708 M354.0874636910274 154.46294761783616 C282.8472182479626 153.25083129513087, 213.48173374618816 153.4868219277985, 50.43614057604884 154.6769141091407 M49.23756340161821 154.14451830645496 C52.224426339315194 126.71435387847494, 50.53668159789852 99.01656180019808, 48.83228715361664 23.602118425251994 M50.477613351948634 154.13868219151854 C49.45465751683545 116.22038697264477, 49.287699860929465 75.01141302589988, 50.433464659271266 25.633601934473546" stroke="rgb(0, 0, 0)" stroke-width="1" fill="none"/></g><g><path d="M49.616161086746985 26.11208155294052 L108.87009076760091 23.130661951141136 L110.16753230485178 76.62271613859636 L48.35442947558851 73.38601108221665" stroke="none" stroke-width="0" fill="none"/><path d="M48.466723406537966 26.83300828323805 C73.68329571684919 23.56443442371371, 96.70089144716061 26.005051745118557, 109.70999648981496 25.423650461372894 M50.46859559040983 24.710239521761693 C73.06192606368596 25.02943837043753, 97.54928377880239 25.42369925000196, 110.13179457204853 25.49268887606198 M111.12732788096625 24.3626181005353 C112.14856732377316 39.950346018376536, 108.929915998527 52.48799717792953, 109.77683943706943 74.23865706135709 M110.26725626821656 24.082312176674414 C110.3506488198298 42.653709168360464, 110.47160817718462 58.722600822063974, 109.23866578260235 75.35581222434996 M108.41151204554697 75.40904171382633 C88.11337493774224 73.83303499929913, 65.34717469571929 74.10486430444148, 49.89101657993192 73.689664939394 M109.50514289602069 75.16337672782528 C88.1349534603755 75.25350335841998, 64.92941819492495 75.54187612871429, 50.85391432348745 74.54799447765933 M49.87808689927945 75.1652527051857 C51.58539065060355 57.975056818084724, 50.39543585792139 41.88730305631057, 50.65900343634823 23.191012781514853 M50.43999548423912 74.13165930075408 C50.2516014550713 63.08676553986459, 50.048475727284234 52.73402723222998, 50.48593721574051 25.357688295778427" stroke="rgb(0, 0, 0)" stroke-width="1" fill="none"/><text x="80" y="55" class="id" aria-label="id: id90">id90</text></g><g><path d="M235.63604404982362 23.968567842238542 L354.5863740161189 25.89526760803919 L353.4366312161641 73.93034266161743 L237.4715713231519 74.04363037539746" stroke="none" stroke-width="0" fill="none"/><path d="M236.7042826628377 24.189233506915414 C272.4598634547757 25.482773893098443, 310.8756049718531 23.48977240751298, 352.5537058087828 26.79361483267709 M234.56224656698103 25.580478654100844 C279.39897890749086 26.081824304781303, 322.6699818029366 25.172413456596725, 353.361277555749 24.42627266034855 M352.72590487327966 23.117825786938205 C353.56027804871223 46.311550705623794, 353.84627878867224 65.31937692053927, 352.5247617440235 73.83048043202359 M353.561256379497 24.73579102786136 C354.04554611270487 40.127883778164296, 354.83224408267876 54.81079332112324, 352.50540403457245 74.21574779737878 M351.6567752104014 75.22468476481755 C326.5887749627634 74.44100906412945, 303.27736542795935 76.74703571124817, 233.60523084393728 76.09145027195567 M352.5967774994558 74.20330198182657 C329.52579614688386 74.78241713527022, 303.91363777375574 75.29581136076165, 235.13902973010252 74.8021604935339 M234.09142141128106 75.67978262909901 C234.75464878503976 58.45234373377574, 237.03081901580504 41.54509777418451, 235.0134715384464 24.835860383988212 M235.7669676550716 74.38483483912852 C235.0770843506746 61.83479056958407, 234.41765834715517 50.18567097084647, 236.09518794027633 24.574293691937378" stroke="rgb(0, 0, 0)" stroke-width="1" fill="none"/><text x="294.5" y="55" class="type" aria-label="type: frozenset">frozenset</text></g><g><path d="M44.12572407611964 18.48555215387887 L357.97649611793236 18.29556087317156 L360.1053728650648 162.99099638167593 L43.53366052351531 162.00103872521345" stroke="none" stroke-width="0" fill="none"/><path d="M45.28824973729298 19.03065041430853 C120.39681749928812 19.53406298107328, 197.05531056920063 21.025201624740784, 359.55817710272595 19.76329143245324 M43.91736095237139 18.776098274179425 C151.61553080173564 19.02529702104951, 259.11498835122217 19.073970760838858, 359.9344663940159 18.882217868962172 M358.9104934509199 20.67181449029123 C359.8220449191794 64.00941956328907, 358.702039482777 111.94201502010857, 360.7497976656087 162.93309293414433 M360.0941236144948 18.903685523069914 C359.7674085517884 51.43907334091054, 360.5155769295764 83.33607396580278, 360.42244345774554 160.2060787477975 M358.17137449103114 161.7935365449029 C276.0261256425744 160.33587337012, 192.89856863951718 158.21748714535704, 42.6627613385404 162.24703456822138 M360.0884613823646 161.69033270342644 C251.00904949030982 161.5829371719304, 143.3999604708594 162.43141080607796, 44.42001132771459 160.45733060187172 M43.5964904337476 161.92937971987558 C46.668640862186216 109.36523917991208, 43.870453594665946 53.22102042869112, 45.93919115366037 18.569608101863 M44.32295827369446 161.0672812218166 C45.432045402363414 112.04334782190178, 44.06320158903385 65.54631715886237, 44.09248286618651 18.974296588286514" stroke="rgb(0, 0, 0)" stroke-width="1" fill="none"/></g><g><path d="M75.79371512485591 89.05767044293799 L126.45176085379521 91.02813452218658 L124.65449021155992 139.22412438405104 L74.99038665154724 138.81946326286192" stroke="none" stroke-width="0" fill="none"/><path d="M73.64410659440152 91.76180838845319 C91.66645916384643 90.02111455129281, 112.39412852226044 92.03779839298684, 125.55855603674154 90.58988710799112 M74.72370888486209 90.12539370257883 C91.27250875153787 89.41977612233354, 108.52771728055883 90.42409575453644, 124.07152265239826 89.64330695206374 M123.93542161981252 91.4724346680189 C124.96076702924255 101.71271149393678, 126.50343874785807 115.23094281781884, 124.08899969883292 139.04950113807288 M124.68220406879837 89.11792892989038 C124.40364445799185 106.57969230560178, 125.4634772533367 120.8866379819135, 125.17180519530008 140.82098326718094 M123.06512563000048 140.13943024712216 C108.55082984450372 140.83822339339025, 96.18307200816739 140.52991980347076, 76.45452014060689 138.24714439147263 M124.68068962957467 140.03890984851495 C111.12618562128601 139.18691942507598, 94.98955010171164 139.09734534363875, 74.52367874867875 140.5640532471579 M74.23404234813253 140.9210461143553 C74.6594906096615 124.14458276110986, 73.17333858199665 106.83559293147229, 75.31651887914069 91.99855126779156 M74.90817558825898 139.00102973412908 C74.52260299458267 121.85581783823737, 75.74149018373893 103.90283064904617, 75.35963210012983 89.73606035663938" stroke="rgb(0, 0, 0)" stroke-width="1" fill="none"/><text x="100" y="120" class="id" aria-label="value: "></text></g><g><path d="M137.3660311716622 90.30851972697337 L197.0413389326348 88.62042681627416 L196.96725468517786 140.7201949735555 L138.94670423753882 139.021162606513" stroke="none" stroke-width="0" fill="none"/><path d="M139.10499330572645 90.0291838899558 C156.17349426562805 89.14021078803025, 174.66542623447094 88.7029651943853, 197.21047715781535 90.89514896802577 M137.84949508745675 89.87814963991845 C155.9799741119995 90.19194360581487, 175.7953437445649 89.4549091315148, 194.5296990565022 90.05806365092785 M195.83443229224292 88.06400415656066 C194.42293596720555 105.16630381291495, 195.49648386714173 122.4553269161436, 195.06257898100358 139.38620787123497 M196.35265581780598 89.57384381599414 C195.08807411885516 107.91685095339675, 195.21237009338324 123.85493238392225, 194.5300254933729 139.93908957063044 M197.1982327189207 139.08930144000212 C182.299981700622 139.5175787762167, 169.3639257159026 138.68312214984928, 136.9472208880301 139.1261646099931 M195.55042242856806 139.4634401640106 C172.9871739717258 138.9568968356228, 150.0684881677661 138.98222902057552, 138.12030599072008 139.9894186645407 M138.23706089009954 139.37858821119394 C136.5363758305637 124.26313392874566, 137.26798756536522 109.603844328383, 139.43758484995013 90.52823059644872 M137.67498564833352 139.42092181751056 C136.99114791776464 125.35288183239136, 138.83060957807888 108.979965270298, 137.12881568093073 89.31162643005372" stroke="rgb(0, 0, 0)" stroke-width="1" fill="none"/><text x="166.5" y="120" class="id" aria-label="value: id16">id16</text></g><text x="131.25" y="120" style="" class="default" aria-hidden="true" aria-label=",">,</text><g><path d="M208.2327305290006 90.21036279066199 L258.95151221651787 89.00436899406878 L257.706084999387 138.33918152891314 L209.21228633276394 139.13558796151602" stroke="none" stroke-width="0" fill="none"/><path d="M208.33780799920635 88.24784220009109 C222.59234264981225 90.21262919815601, 236.78041219061694 88.64753986880355, 257.23209785262384 91.25338006215696 M207.83493956386073 90.69635136566872 C221.75127057649712 90.24455655343853, 236.31467821107765 90.16583433304544, 258.345321238968 90.04786727986749 M259.2649091616156 89.89826559290876 C256.46025829750187 107.45314641015293, 258.8667380559888 124.08260923273964, 257.4361400972124 141.79558242817083 M258.8352682302114 90.04566759195228 C258.06675663957964 103.70719615948616, 258.9057912708157 115.54629250045271, 257.589065349384 139.7859591564123 M257.79480527556063 138.4329015785994 C245.78454460811056 137.76176190348616, 229.62577588933146 137.9891438667078, 209.74951532729926 138.65452091651514 M258.4321415721518 140.49924164010443 C242.67597222807606 140.42169613798617, 225.04208455068814 140.31146315969895, 207.960034138113 140.05153738071292 M207.70518721704855 139.92133283338592 C209.78282672673024 123.08320133676395, 208.74703885714877 108.791315817936, 206.87467525032136 89.34603930945521 M207.3731398996308 140.76733049040058 C208.80482960736887 123.38880315245865, 207.68530437411022 107.65670637131589, 207.94855377657308 90.47526674749062" stroke="rgb(0, 0, 0)" stroke-width="1" fill="none"/><text x="233" y="120" class="id" aria-label="value: "></text></g><text x="201.75" y="120" style="" class="default" aria-hidden="true" aria-label=",">,</text><g><path d="M270.509174734917 88.31749075491336 L330.4152094988755 89.48104318983725 L329.79713271441716 140.68205983642682 L272.26931549910427 140.2080930914663" stroke="none" stroke-width="0" fill="none"/><path d="M268.6502082311623 91.18495205305737 C293.4989000357496 89.9924164976971, 314.3921906621419 92.12873801360139, 327.0378690155446 91.61372959257984 M270.2898249986633 90.46754892057899 C289.0863577885372 89.60748699661687, 305.61486511915444 89.77608442422343, 328.2582974759714 90.62644836075238 M329.14014818810176 89.47483559209002 C329.73535698064217 108.93230616084874, 327.0377825932886 130.0233013532456, 329.2019872981456 138.41887720595943 M329.34989929010834 89.5119638169795 C327.5145970260981 105.05553885778191, 328.95638849200276 119.14421580780673, 328.9815314205104 139.7418779710376 M330.43376071730023 138.50273049525725 C309.17680798087895 139.72592933461118, 290.55226455083715 141.49451059791332, 270.00802556147 141.25274820657094 M327.7825579880806 139.04740288349467 C314.77696608198937 140.51553403120786, 300.9528332613071 140.56675493244055, 271.4360744035922 139.558276237272 M270.2251397904193 138.10717607019438 C268.4058095502465 128.14060793079906, 270.80299519225446 116.98043639158236, 268.6713334455914 90.42309067715884 M271.1390198781404 139.72333016083405 C270.44892341662376 121.50349556807636, 270.1332766144848 105.66142566878007, 270.71267631785093 90.59289209191823" stroke="rgb(0, 0, 0)" stroke-width="1" fill="none"/><text x="299.5" y="120" class="id" aria-label="value: id84">id84</text></g><text x="264.25" y="120" style="" class="default" aria-hidden="true" aria-label=",">,</text><text x="62.5" y="120" style="" class="default" aria-hidden="true" aria-label="{">{</text><text x="341" y="120" style="" class="default" aria-hidden="true" aria-label="}">}</text></g></svg>