<svg data-theme="dark" width="394.5" height="205" xmlns="http://www.w3.org/2000/svg"><title>Python memory model diagram showing objects</title><style>
        :root {
        --fade-text-color: rgb(0, 0, 0);
        --hide-text-color: white;

        --highlight-value-text-color: rgb(27, 14, 139);
        --highlight-id-text-color: rgb(150, 100, 28);

        --highlight-box-fill: yellow;
        --highlight-box-line-color: rgb(0, 0, 0);

        --fade-box-fill: rgb(247, 247, 247);
        --fade-box-line-color: gray;

        --hide-box-fill: white;

        --primitive-value-color: rgb(27, 14, 139);
        --id-text-color: rgb(150, 100, 28);
        --default-font-size: 20px;

        --highlight-object-fill: rgba(255, 255, 0, 0.6);
    }

        text {
            font-family: Consolas, Courier;
            font-size: 20px;
        }
        text.default {
            fill: rgb(0, 0, 0);
            text-anchor: middle;
        }
        text.attribute {
            fill: rgb(27, 14, 139);
            text-anchor: start;
        }
        text.variable {
            fill: rgb(0, 0, 0);
            text-anchor: start;
        }
        text.id {
            cursor: auto;
            fill: rgb(150, 100, 28);
            text-anchor: middle;
        }
        text.type {
            fill: rgb(27, 14, 139);
            text-anchor: middle;
        }
        text.value {
            fill: rgb(27, 14, 139);
            text-anchor: middle;
        }
        path {
            stroke: rgb(0, 0, 0);
        }
        .highlighted path {
            fill: var(--highlight-object-fill) !important;
        }
    
        [data-theme="dark"] {
            --highlight-value-text-color: #110875;
            --highlight-id-text-color: #6e4409;

            --fade-text-color: #BBBBBB;
            --hide-text-color: #121212;

            --highlight-box-fill: #EDB926;
            --highlight-box-line-color: #FFFFFF;

            --fade-box-fill: #2C2C2C;
            --fade-box-line-color: #666666;

            --hide-box-fill: #121212;

            --highlight-object-fill: rgba(72, 207, 173, 0.3);
        }
        [data-theme="dark"] text.default,
        [data-theme="dark"] text.variable {
            fill: rgb(224, 224, 224);
        }
        [data-theme="dark"] text.attribute,
        [data-theme="dark"] text.type,
        [data-theme="dark"] text.value {
            fill: rgb(144, 164, 237);
        }
        [data-theme="dark"] text.id {
            fill: rgb(255, 183, 77);
        }
        [data-theme="dark"] path {
            stroke: rgb(204, 204, 204);
        }
</style><g role="graphics-object"><title>Frozenset id90 with 4 elements</title><desc>Elements: id36, id49, id72, id64</desc><g id="object-0"><path d="M49.18678643600331 24.027662250037977 L368.12808567660943 24.446906189300115 L369.3250012405077 153.11883458457413 L51.196741461299055 156.65668493703427" stroke="none" stroke-width="0" fill="none"/><path d="M49.86129449258871 26.160424276842953 C173.31210255556704 25.567740596464162, 294.1750891604547 26.957330933560023, 370.1004086263029 24.81481545479647 M49.65732540813498 25.465092740087833 C122.17303249454683 25.57677024049373, 192.8493694278257 26.64384980629095, 369.38442770431476 25.20794406198675 M370.81195930693923 23.347738969341194 C369.55530588855356 74.58964987421675, 370.69329352896114 126.26776620216079, 369.31257377154344 156.7343461721628 M369.3394306116802 25.488975337516244 C369.70926546659695 63.90472064300064, 369.06829585154605 104.2911942445674, 370.3276826280373 155.47213725304601 M370.3098173858799 154.36041238186056 C272.6882988198787 155.18524824416, 178.5121870385708 157.18015514672516, 49.31510182263911 155.0889258899648 M368.8310168487717 155.1478823575914 C266.2053099328593 156.07168760484856, 163.40234134977732 156.6643103835058, 49.77811454209285 155.4426217446667 M51.92722574010035 153.91107475555 C51.95488489818686 120.01706440073882, 50.78603753518477 80.966777361467, 50.27550529788258 26.476056678682035 M50.76939731154995 155.3151408590344 C52.18328461382125 121.43415131520496, 50.687522885792255 88.23460533379262, 49.473568640457366 25.963585642422807" stroke="rgb(0, 0, 0)" stroke-width="1" fill="none"/></g><g><path d="M44.26432595722005 17.40591476394672 L374.4832776635774 19.10048181094215 L374.1333091557622 162.96448150903007 L42.91577479183857 160.0951225779719" stroke="none" stroke-width="0" fill="none"/><path d="M44.62382760095967 20.210876451481546 C164.4227669034007 18.427185467959134, 282.8369064775477 18.09989024578425, 374.35994840962894 20.28635318540761 M43.680363032053634 18.698322447906154 C125.39130434396876 20.695881616473482, 207.19084899557373 20.830252334186678, 375.49014260342625 19.305504451277226 M375.9359933847133 20.099470523528304 C377.02078625488866 50.256659319002104, 373.9727434264399 81.49615600098306, 374.62643875592863 159.15138925819016 M376.4167787243572 19.04598174585301 C375.6653018558572 55.381940623615904, 374.66144052703186 92.67120110427788, 375.6802535104331 160.27422148084293 M376.0341493867979 160.1367373215029 C301.9268901328449 162.02022241117206, 227.71506563134497 160.85019917470095, 44.027950905251885 160.94079066589714 M375.5348358752635 160.43287693232236 C306.4329282406971 159.05766496203344, 237.50609679628897 159.2297268312847, 44.0773702457759 160.5040890133318 M45.01766998372957 162.94528941713298 C41.44267524089824 118.83094642117202, 41.43384114222638 73.17956202167747, 45.30013172267007 17.015330201671606 M44.5313320486863 160.71716506066824 C44.453206845482235 105.8651176720863, 44.10599526572563 49.946655477313215, 43.70161456863692 18.973264138206044" stroke="rgb(0, 0, 0)" stroke-width="1" fill="none"/></g><g><path d="M75.79157108812626 91.20506619029712 L134.97433781982838 90.87809588660367 L134.8217328544584 140.09933652541343 L76.44866403653631 140.67001053699778" stroke="none" stroke-width="0" fill="none"/><path d="M76.37849320601013 89.36223696507349 C95.74326884701907 88.64289901204502, 120.24667830522438 89.48852705097566, 133.1751281098036 89.11397388742868 M74.42721049253795 89.6427776460806 C91.34720116909952 89.05053721979495, 107.57938255863304 90.04975671838092, 133.39132668549777 89.38473347749401 M131.62791584090758 90.77827894554784 C132.34512482032397 106.42981110228934, 134.88629199384 125.07110808397242, 132.44565990274364 140.5861338700865 M132.2580585978224 90.0227177368641 C133.9161467529143 110.51160834324284, 133.87187586997322 128.18005602311462, 133.39849767433304 140.5020149835481 M131.48321947782455 138.54544909426912 C113.42989753279454 142.0823433748301, 94.27699538565498 138.91953002517644, 74.46409869386856 141.01776345127192 M133.3130198026205 140.18778254815018 C118.75513739799139 140.13384814154702, 105.46310523710908 138.90337941620203, 74.21044064856302 139.76359205087834 M74.03583454975035 141.85630183915194 C74.40411716786008 120.4002981137886, 74.69151749011556 104.69318221828532, 74.81339068876233 89.00359337282224 M74.7639520462016 140.30326383485377 C76.04942535723174 126.33018491296255, 74.75485731818739 111.18732649520233, 75.67565432598327 90.0560343308635" stroke="rgb(0, 0, 0)" stroke-width="1" fill="none"/></g><text x="104" y="120" class="id">id36</text><g><path d="M144.43713719877954 90.50270305277103 L203.6985960442382 89.84365098440286 L204.91147620066795 138.67858243878032 L144.96735891106823 139.16909562859374" stroke="none" stroke-width="0" fill="none"/><path d="M144.5366474933797 89.64362006047396 C161.43941925263732 90.79578556910833, 179.3564828068834 90.97270472735124, 204.08838928166023 90.30014735182907 M145.47842702949453 90.68160713685964 C161.1362258815537 90.7553164461894, 176.3195945035521 89.55087818181615, 203.03914131792956 89.20788748615979 M203.95909284898136 88.89030476705616 C201.9276139653337 105.99806105609564, 201.41251439140348 123.38386616314763, 202.48498046372487 140.9008943599099 M203.63330208663402 89.26389954603503 C203.81664573778065 104.49887864105561, 203.08467136991771 118.95179372296312, 204.32354459123457 139.33325130142686 M204.0391134693924 141.67915695567916 C184.1076997221992 137.5457543199032, 165.07015181981933 138.32961434606966, 147.3191357252645 139.11283850687752 M202.6884166648385 140.94024346857634 C187.84784300285034 139.382160812083, 172.883780028578 139.47445253166177, 145.89912244624844 139.46149538950732 M146.58820578962786 141.5492167254577 C143.87882093435843 120.44358734561906, 144.0425367973825 103.95455641824462, 146.70776858955648 89.67984343975468 M145.66284333072545 140.82512065140958 C145.54308860167578 125.76691501086714, 144.99175055003457 110.17878502376303, 144.88158364611104 89.35736985838876" stroke="rgb(0, 0, 0)" stroke-width="1" fill="none"/></g><text x="174.5" y="120" class="id">id49</text><text x="139.25" y="120" style="" class="default">,</text><g><path d="M214.5260979995061 89.65775285340438 L272.09571137572533 90.75368636105073 L274.05378351626257 140.3479150031449 L215.24326961234866 138.54680298859043" stroke="none" stroke-width="0" fill="none"/><path d="M214.15057049545354 91.38082462509523 C236.6413695656072 87.7084761796258, 258.6170366081718 88.78219955577191, 274.8904389063752 91.61132626118318 M215.64488976644967 90.05576810732985 C229.73412274333103 90.05347215426632, 241.66642937104595 90.48099554788026, 274.82599800294275 90.05198614947588 M274.0353037517375 91.21858587407917 C275.70267658810513 100.55835732541509, 272.7772735049892 115.62415672497104, 275.1416365352751 140.78375952231198 M274.4180918551696 90.49531065478486 C274.8705450113653 102.25135000299477, 273.8786000658919 113.0824833727957, 274.2701429257911 139.20102404613948 M273.3878269566892 141.3907491068618 C259.8307790817472 139.55080985691635, 248.1471672078286 142.17226141130732, 215.71120951149092 138.11744671528146 M273.25443625034023 140.08414062260954 C262.4020514732105 141.0706533036982, 251.02292604604952 140.49631851581725, 215.65174387907314 139.11289573131492 M216.589278281513 141.85197795265321 C214.83150894226176 124.25118233471856, 215.0869771416704 109.15472653828763, 215.8224441107821 88.69686945051963 M215.37567135404862 139.2669241008515 C217.0647832905771 120.87127347652665, 216.77536813196957 101.02589558979301, 216.2857693948924 90.98402332136885" stroke="rgb(0, 0, 0)" stroke-width="1" fill="none"/></g><text x="245" y="120" class="id">id72</text><text x="209.75" y="120" style="" class="default">,</text><g><path d="M286.5973267669921 89.41274032081365 L344.61253993844343 90.0260402503429 L344.5206182148009 138.75467595591886 L288.4918762713782 139.3970826088903" stroke="none" stroke-width="0" fill="none"/><path d="M286.5594459448438 89.1333450502586 C306.30379452684264 89.66372598216208, 328.9673631061613 90.2877622822968, 344.43785867663854 89.70760221163404 M285.8920919604296 90.49247588551012 C302.6353344881616 90.27068506294705, 317.96334391571696 90.20903280140645, 344.6082485520918 89.04250715197807 M345.99748923619376 90.33291006367917 C342.96813650792114 107.4424001653073, 344.78021772384545 122.17703339217059, 342.7455594685459 140.0654928067484 M344.3145837271234 90.18642562685127 C343.69964892949855 106.88745389093683, 344.8434477659703 124.26027471847976, 344.66302314024244 140.51478785839407 M343.18735184721027 139.60636752791106 C323.57660800780735 138.66847613163424, 307.16780164300525 138.9849946548461, 285.16611373575125 141.47987260993193 M343.5027280314862 139.79061212554794 C321.42256278350925 141.5338705841448, 300.0744213226197 140.2599458503961, 286.13172076541855 140.66059848355556 M285.1497837976567 139.34543809014647 C286.0590679783103 125.08147710654788, 286.7258723721517 109.4868738382758, 285.25796620528763 88.72413494475046 M285.6447446855881 139.47353339751152 C287.50192622622643 127.12340755680141, 286.7127228539881 114.54114606625303, 286.3454062679353 90.84486899818798" stroke="rgb(0, 0, 0)" stroke-width="1" fill="none"/></g><text x="315.5" y="120" class="id">id64</text><text x="280.25" y="120" style="" class="default">,</text><g><path d="M48.98862775325075 24.96101662324738 L111.03910327007489 23.136203154384532 L108.25619166031683 76.71481035170665 L49.216827720832896 74.87105600513141" stroke="none" stroke-width="0" fill="none"/><path d="M51.77842003878881 26.953670355081 C60.59082689077177 25.89707865827652, 74.41272785085077 24.142918600517895, 109.77132814179998 25.26120029815443 M50.086432054545 24.422354518375887 C64.31460849974037 25.635781534070116, 80.2868606234393 24.375618121885008, 110.19371845251857 24.089963824697133 M108.63206159484521 24.299627897800324 C108.44837403892593 42.37496782935424, 109.17311028539646 60.950933747258986, 110.78244824165017 76.719805892203 M109.6187111969657 24.285646644111292 C108.66771309687098 36.846730612871404, 109.54574718685882 49.64455156993553, 109.81933435655198 75.98806043464931 M111.78590260633676 75.73694399620474 C96.84199975321609 73.37262207388581, 82.54278997586947 76.13253447749166, 48.48614137820014 76.87836949188873 M109.53886927263449 75.77786351133325 C88.95707271686952 75.58546779414303, 68.80853776353858 75.86510016702385, 50.182856492555935 75.92990335460433 M49.75241921556487 73.9227874378764 C49.82594780748978 54.6990845925613, 49.985949264800944 35.1349891707772, 51.17160867384144 23.188419290052934 M50.36872225013303 75.04036753517717 C51.03783016498938 61.609780046485426, 50.358344418642034 47.478856712045996, 49.445226710046036 25.345611563571076" stroke="rgb(0, 0, 0)" stroke-width="1" fill="none"/></g><g><path d="M252.83302569721474 24.24392960839519 L369.1204018545697 24.898646029959245 L369.2867924802486 76.0927595164859 L249.9493649815501 73.94514651096357" stroke="none" stroke-width="0" fill="none"/><path d="M251.86400964351543 26.93645244295949 C274.7740497368556 26.47723153113057, 301.1491683122969 23.273597467688905, 368.15519161442 23.513240814553555 M251.78438936745874 24.360775614818678 C288.5664325840538 25.558615324225727, 327.0653491722016 25.449066963049724, 368.5598967212008 24.59485614107698 M369.96431301552497 25.718465091685992 C371.55276885779887 39.49936478393746, 367.9476006917555 53.21453889485211, 370.6842623837597 74.57365628726562 M369.72236967848164 24.985712814339237 C368.28350120087794 39.909580877277065, 369.4186475726391 55.452675989433615, 369.55168353631615 74.84630001348243 M369.917908771907 76.62683145072084 C341.88849610951746 74.85334688824257, 313.97524198184504 76.64789863432534, 251.35600028545514 76.10636252700684 M369.59789706129 75.04045617785803 C341.7152716984701 74.29823395721586, 312.07691364254237 74.87872311534278, 250.56826552452628 74.18943153531376 M251.31545005723873 76.95135940929063 C250.90945182267953 56.73013402430707, 253.0099789123015 37.09088665419175, 251.50385465939775 26.331026962002856 M251.30223982248856 74.3364546948793 C251.4961129304061 56.43399576211265, 251.36651491462615 38.11742907097718, 251.94550881586773 25.85639836653722" stroke="rgb(0, 0, 0)" stroke-width="1" fill="none"/></g><text x="80" y="55" class="id">id90</text><text x="310.5" y="55" class="type">frozenset</text><text x="62.5" y="120" style="" class="default">{</text><text x="357" y="120" style="" class="default">}</text></g></svg>