<svg width="394.5" height="205" xmlns="http://www.w3.org/2000/svg"><title>Python memory model diagram showing objects</title><style>
        :root {
        --fade-text-color: rgb(0, 0, 0);
        --hide-text-color: white;

        --highlight-value-text-color: rgb(27, 14, 139);
        --highlight-id-text-color: rgb(150, 100, 28);

        --highlight-box-fill: yellow;
        --highlight-box-line-color: rgb(0, 0, 0);

        --fade-box-fill: rgb(247, 247, 247);
        --fade-box-line-color: gray;

        --hide-box-fill: white;

        --primitive-value-color: rgb(27, 14, 139);
        --id-text-color: rgb(150, 100, 28);
        --default-font-size: 20px;

        --highlight-object-fill: rgba(255, 255, 0, 0.6);
    }

        text {
            font-family: Consolas, Courier;
            font-size: 20px;
        }
        text.default {
            fill: rgb(0, 0, 0);
            text-anchor: middle;
        }
        text.attribute {
            fill: rgb(27, 14, 139);
            text-anchor: start;
        }
        text.variable {
            fill: rgb(0, 0, 0);
            text-anchor: start;
        }
        text.id {
            cursor: auto;
            fill: rgb(150, 100, 28);
            text-anchor: middle;
        }
        text.type {
            fill: rgb(27, 14, 139);
            text-anchor: middle;
        }
        text.value {
            fill: rgb(27, 14, 139);
            text-anchor: middle;
        }
        path {
            stroke: rgb(0, 0, 0);
        }
        .highlighted path {
            fill: var(--highlight-object-fill) !important;
        }
    </style><g role="graphics-object"><title>Frozenset id90 with 4 elements</title><desc>Elements: id36, id49, id72, id64</desc><g id="object-0"><path d="M50.55520538775337 23.252714974235936 L370.0917859496225 24.035847171621825 L370.4134795030296 155.4911291139722 L50.39830767436864 155.16208102610102" stroke="none" stroke-width="0" fill="none"/><path d="M50.57072839364374 25.20588090848545 C122.17728953228124 24.12088091014441, 193.8370496448424 24.02089196010113, 368.2957744147206 24.432665441125664 M50.09577461463334 24.780924912963297 C163.6464564252651 25.676160650474134, 276.5804634856127 25.497614493049742, 369.53495317991735 25.65072258384157 M368.7831076793181 26.871700143170322 C371.6312666124367 69.66966691088412, 370.35471436614523 117.2432938745648, 369.7943250516518 154.8945248358223 M368.66397846072954 24.64196771961057 C368.0878630097818 74.68941243340642, 369.2867522710789 124.4470813220453, 368.6682629992024 154.8896776942083 M369.0701830454217 154.56814038469497 C301.8663954836234 155.2421228319473, 236.43682926239944 153.4191835012693, 49.11292987426896 154.01073946115596 M369.74042336505875 155.29158113700385 C246.1319894515819 153.76863477321854, 122.23900259728278 153.6568447345571, 50.257534075564 155.51182646007143 M49.91971455432541 155.54752105407496 C50.26639858840405 126.0806151444393, 50.896222035559234 92.93046938632283, 49.646668882029296 24.949271730530167 M50.32598688607518 155.58741228208294 C49.93011221589809 104.47231527098924, 49.16424483314856 56.191237236623984, 50.37704715526174 24.039730653952624" stroke="rgb(0, 0, 0)" stroke-width="1" fill="none"/></g><g><path d="M48.27557722264006 25.425244480303235 L109.74718041209924 26.106405351615518 L109.07798954450865 75.34329752584951 L49.09229687773792 76.34918547847886" stroke="none" stroke-width="0" fill="none"/><path d="M49.79949028958252 23.40270968350766 C61.402651499587385 25.03233885328296, 74.55600791497287 26.80125880497433, 109.23970556918816 26.643932065118236 M49.38975414043764 25.88188595458323 C67.72254608036418 25.14785994138094, 87.7267154939414 25.53305835031864, 110.37716701316589 25.011003804694173 M109.85494118601304 23.991566394209894 C108.4387256335292 39.50333520267024, 109.46630917710198 54.037045279825875, 110.66993265651264 76.5298366164976 M110.77318132789863 24.388365718772643 C110.63808474940235 43.523638992725516, 108.90708174663477 61.69001266556909, 110.87976151585143 74.55613911119826 M109.43558711426833 76.50244402433472 C88.51858519675923 74.83100733125157, 68.00000939229527 74.48544571387625, 48.35226853437146 76.81322034347988 M110.08556061428035 75.41021150383888 C97.34072833338128 75.7879951409902, 83.15867013486175 74.63401639457257, 49.816934070518464 74.29821021464326 M50.870382090717484 75.47695417884105 C49.276643083477694 56.0158935572114, 50.90918381113401 39.45931927736267, 49.32178501255787 25.656956684726545 M50.37343333871308 74.52320919335686 C49.13766151056022 62.47368103922378, 48.71327368491455 50.80835870004998, 50.04766068770642 25.542077939478155" stroke="rgb(0, 0, 0)" stroke-width="1" fill="none"/><text x="80" y="55" class="id" aria-label="id: id90">id90</text></g><g><path d="M251.174978350755 26.071255228495748 L368.5501823062937 25.48608879865089 L367.99653471247746 74.42258351261962 L252.93716269585255 73.10033108033855" stroke="none" stroke-width="0" fill="none"/><path d="M252.52198070387325 25.721877740714632 C293.28878064224733 26.982712568946695, 334.6596923675356 27.238938323349316, 370.8164579252737 26.290735194557733 M252.0470435218787 25.722227844487946 C280.1778979560558 25.62422655591915, 307.7311562782405 26.028616869407365, 369.66487373087335 24.367019902642472 M368.3116924685507 26.820175536815533 C370.81840808885204 38.27219212557479, 371.00645504472857 53.896537526615674, 367.5419785869451 76.42772450375632 M370.00010582581814 24.252609713822203 C369.21753666254455 35.801828027022765, 369.59760851466996 47.93358457488402, 370.37120726003485 75.05554255611153 M371.47057423012626 74.00121798640079 C329.4897744658012 74.7074140749806, 291.51998727576085 75.38776710052109, 250.8124425033916 76.39430755087673 M368.5054090311013 74.73050846135683 C341.7413943089551 74.79314889890968, 314.84855769411405 75.89895214882361, 252.00444792923133 75.26915160173193 M251.47384247192423 74.14701285928982 C251.51164691400695 62.03292391056017, 249.86793090133426 44.802220196201006, 250.37041334876116 25.023142211370107 M250.94177470319903 75.01718592432788 C251.61084623675018 58.22605492702903, 252.61411861620175 39.79013601660409, 252.48287606796765 25.28308307695721" stroke="rgb(0, 0, 0)" stroke-width="1" fill="none"/><text x="310.5" y="55" class="type" aria-label="type: frozenset">frozenset</text></g><g><path d="M44.323710552655044 20.54587121316684 L375.9770135448742 19.36414476326143 L376.3268269247199 160.73698439552618 L45.84475668857636 162.01785342417455" stroke="none" stroke-width="0" fill="none"/><path d="M42.794236885554746 19.78520335176505 C146.88112149362564 19.73451768055758, 249.4585513672983 20.031052620611856, 375.85460322448347 17.8006799199928 M43.77100900946584 18.966970469226624 C125.59936514994477 20.372012353369385, 207.94236643981742 20.313302636603748, 375.00452630618 18.975730133757484 M374.4845521826568 19.30203468707981 C376.4087941448339 53.65509084191227, 376.2684620200898 88.79183150534126, 377.461964100946 162.42704575495014 M376.2907810360862 19.308769019871676 C375.7003994930793 59.075268505346855, 376.4930003202288 98.364009067255, 376.234107734902 160.0591301663048 M374.74032793383253 162.27251559017313 C266.32663741899773 161.27469510760517, 159.12481263526502 162.59109715159323, 44.19681346901406 160.95698553396713 M375.70280139330936 160.99516129582398 C251.86374799404845 162.1918466106747, 128.85485971162063 162.66321596470382, 44.059618564888446 160.82453167572635 M42.52174475441027 159.81218959112832 C44.48208897265568 110.22870035562607, 46.2357193257381 61.140358363547804, 43.67925746566026 18.001150953306357 M44.91044462199599 160.6404039666362 C43.97995854078853 106.0954571030549, 44.22707217394771 52.70170755712071, 43.38486421634367 19.23693856049596" stroke="rgb(0, 0, 0)" stroke-width="1" fill="none"/></g><g><path d="M76.62349989502697 91.6483854168016 L134.74830955543447 88.52525909063625 L131.77533531170698 138.77432924797438 L74.16040243643155 138.09359573986018" stroke="none" stroke-width="0" fill="none"/><path d="M76.98002190133211 91.8832878404692 C93.61811977420689 91.44804251727112, 109.17001112263958 87.87481838412755, 132.47726729417164 88.38235394069225 M74.5378725828368 89.46858678716697 C87.29232522454566 91.28952281984918, 98.38028174127045 89.85058422427342, 132.68833857036836 90.29936285504716 M131.45711420426366 91.05870223124052 C132.41591231615297 100.76113558352361, 132.55925335644466 109.08739791197443, 134.01672341205585 138.27811136552643 M132.58316798636412 89.69607700634437 C132.88272035631175 107.1101330101085, 132.55686547310634 123.29229515012027, 132.49383463247503 139.91411199814561 M134.9685593494094 138.70344584295262 C109.98377237078097 140.83317313387366, 90.19827013089414 138.28276540900828, 74.93370277125227 139.56488760592518 M132.11445150410188 139.7885247539896 C116.31630058065456 140.8198243676503, 100.03490796488576 139.56999454133518, 74.61406972922254 140.70507834800372 M73.24396510195153 140.13892251381205 C76.35583719412031 121.14883890220051, 72.8451017099485 103.26861865074655, 74.16455062792383 91.35953972318826 M75.8740482490216 140.78570570317572 C74.34708894939736 125.54378903350434, 74.62065032205916 108.70541606072764, 74.26716909108166 90.56701395717437" stroke="rgb(0, 0, 0)" stroke-width="1" fill="none"/><text x="104" y="120" class="id" aria-label="value: id36">id36</text></g><g><path d="M146.05456421892634 91.99517557575899 L203.25354727537518 90.17634488039452 L201.7160734956231 138.1826551206015 L144.15897473000308 139.93231361026974" stroke="none" stroke-width="0" fill="none"/><path d="M146.7295875386187 91.06440074860859 C166.47315538480058 90.35253309456776, 187.96606893193038 88.69669056665956, 201.6205739434199 88.149848519764 M146.36548156859567 90.21857990888576 C160.79798843171523 90.10853996190346, 177.2830285844807 89.71596321076942, 202.82966371342684 89.20402184604917 M202.62212537425535 90.13430594538495 C202.77137696509715 102.47349361283688, 202.56552805001172 119.12908515700462, 204.87382478090086 139.8503746594441 M202.56077840896984 89.40952657935038 C203.83714144359448 106.25458547704518, 203.78611723231754 123.20912805211796, 202.72136090845885 139.09647954170447 M204.88488836352747 140.90059914186307 C179.56933608423836 140.6100870594571, 157.98942435905764 139.83142103605425, 146.6934788012793 140.57297558598765 M203.59939030240713 139.6671014644042 C190.18013899297674 140.76469069340487, 178.6854883752995 140.55830527858782, 146.02908935990692 139.9295780766271 M144.39481539325598 139.85623586501364 C146.97897447835712 124.6633710412053, 145.6837435002523 112.0841998012306, 145.91701867753505 89.12384523964862 M146.41224344125692 139.30817949269917 C146.53072588058114 124.59641688356373, 146.2415907670806 107.44003999347163, 146.4433494121916 89.36109894246984" stroke="rgb(0, 0, 0)" stroke-width="1" fill="none"/><text x="174.5" y="120" class="id" aria-label="value: id49">id49</text></g><text x="139.25" y="120" style="" class="default" aria-hidden="true" aria-label=",">,</text><g><path d="M216.7628738138198 88.61593239051471 L272.1865308811673 88.32929097401565 L275.54251431740363 139.95352913938004 L214.28673961368384 140.92396966458932" stroke="none" stroke-width="0" fill="none"/><path d="M216.51336048738835 90.07616955142953 C232.26262169201078 91.32147298090912, 248.60987402465113 88.57946832887068, 273.58525227571545 89.12773712737385 M215.39491937063775 90.60782825566278 C229.50026367267927 89.31072707461634, 244.80391332630583 90.77786834659643, 274.95863794513247 89.33587103156518 M274.5511603604119 91.4082413208763 C273.9692826218154 103.63212961014554, 273.16841865753065 115.56868183804258, 275.0197121571455 138.50930044829607 M273.20737257556664 90.74474476677106 C274.5249485945366 107.20711172985189, 273.7617657292328 124.26722064265002, 274.9782827316617 139.66523605468458 M273.8432215791307 138.45568219159756 C250.49229319368752 138.5226789326226, 227.05150285925959 139.92658775141484, 217.37432181049311 140.63585380833283 M273.00478042656937 140.17419188014023 C253.8924724001885 140.02386290739267, 232.7664461741754 140.35616441677024, 215.975380087483 140.97601025434642 M214.91135582273688 141.75464673148403 C215.34919479333502 128.90215016514253, 216.21910435004682 113.84859689901057, 215.07048930531795 89.36051273896982 M216.27277062142443 140.7707705921882 C215.8223480664321 128.94301711405151, 215.6300074268785 116.9949409886143, 216.30835473877812 89.62109825792385" stroke="rgb(0, 0, 0)" stroke-width="1" fill="none"/><text x="245" y="120" class="id" aria-label="value: id72">id72</text></g><text x="209.75" y="120" style="" class="default" aria-hidden="true" aria-label=",">,</text><g><path d="M286.8935614294144 89.15193973211774 L345.2837893415749 88.81304874940895 L345.32979545598556 140.23398545368755 L287.7564096069827 138.85217972119193" stroke="none" stroke-width="0" fill="none"/><path d="M286.95847372987515 91.65236020048745 C307.0601431123185 91.66757690143022, 325.43514394813286 91.76860791380142, 345.0980417560834 89.810542633347 M286.20370815476093 90.16623547070604 C298.4795571291767 89.84810940715272, 309.72179806103355 89.28930131725214, 344.20566804751866 90.81461379439166 M344.5399664891063 88.89965084168593 C343.550592798506 105.33243970148165, 346.2762362944996 122.94596103261469, 344.37753372704657 139.02436324097164 M345.11229475275917 90.93175242798428 C345.20662593670806 104.77886719055155, 343.8172338488137 118.06356215141574, 344.19562559061563 139.22024736943365 M344.3168777692586 141.41193605675625 C330.0824337731178 137.8575522352894, 319.5446172083692 139.90505017214107, 287.66518951777573 140.6048064221674 M345.34520425148145 140.7746289641508 C331.30592048145314 139.26532474797952, 318.6126562754257 140.47025836788046, 285.5360531658366 139.07076593518065 M285.48577043661953 138.8170299071641 C287.7643780243202 128.9131436651028, 288.2029859971996 118.86614551236423, 286.3744949376306 91.19422052666675 M287.2126478796664 139.625474270726 C285.721980243268 128.42738931573473, 286.7524853573023 115.91484926043542, 287.22454824828293 89.79699975264569" stroke="rgb(0, 0, 0)" stroke-width="1" fill="none"/><text x="315.5" y="120" class="id" aria-label="value: id64">id64</text></g><text x="280.25" y="120" style="" class="default" aria-hidden="true" aria-label=",">,</text><text x="62.5" y="120" style="" class="default" aria-hidden="true" aria-label="{">{</text><text x="357" y="120" style="" class="default" aria-hidden="true" aria-label="}">}</text></g></svg>