<svg width="473" height="350" xmlns="http://www.w3.org/2000/svg"><title>Python memory model diagram showing stack frames</title><style>
        :root {
        --fade-text-color: rgb(0, 0, 0);
        --hide-text-color: white;

        --highlight-value-text-color: rgb(27, 14, 139);
        --highlight-id-text-color: rgb(150, 100, 28);

        --highlight-box-fill: yellow;
        --highlight-box-line-color: rgb(0, 0, 0);

        --fade-box-fill: rgb(247, 247, 247);
        --fade-box-line-color: gray;

        --hide-box-fill: white;

        --primitive-value-color: rgb(27, 14, 139);
        --id-text-color: rgb(150, 100, 28);
        --default-font-size: 20px;

        --highlight-object-fill: rgba(255, 255, 0, 0.6);
    }

        text {
            font-family: Consolas, Courier;
            font-size: 20px;
        }
        text.default {
            fill: rgb(0, 0, 0);
            text-anchor: middle;
        }
        text.attribute {
            fill: rgb(27, 14, 139);
            text-anchor: start;
        }
        text.variable {
            fill: rgb(0, 0, 0);
            text-anchor: start;
        }
        text.id {
            cursor: auto;
            fill: rgb(150, 100, 28);
            text-anchor: middle;
        }
        text.type {
            fill: rgb(27, 14, 139);
            text-anchor: middle;
        }
        text.value {
            fill: rgb(27, 14, 139);
            text-anchor: middle;
        }
        path {
            stroke: rgb(0, 0, 0);
        }
        .highlighted path {
            fill: var(--highlight-object-fill) !important;
        }
    </style><g><title>Group of 1 stack frames</title><g role="graphics-object"><title>Stack frame for func</title><g id="object-0"><path d="M24.553133017867637 25.868406625266324 L223.4584428251418 26.86054986313647 L221.90742698375388 326.77597343300016 L23.828697679009586 325.0850087438032" stroke="none" stroke-width="0" fill="none"/><path d="M23.163320614163883 24.286296587294196 C82.86666768316665 25.157467788862256, 141.858084313567 26.12281979509557, 221.60957716163412 26.711256856082116 M24.60678580134476 25.12584829544584 C79.77528008544988 22.941124586011163, 133.38754625332854 24.159537873440982, 223.80656080602682 25.456706657250976 M221.88715482783803 24.83683078144257 C221.32275691969826 100.48226565863571, 221.86619567519963 177.37974708868003, 221.68979970345558 323.6822246041477 M222.52097502066582 24.501530637042894 C224.73926864124724 89.14158792282419, 225.33880766364152 155.05085424356707, 223.53711930192944 324.43725813438033 M223.82134813025644 325.75988041770194 C148.76213328823928 326.50874117777954, 77.04057939528552 324.1536630180871, 25.025918625963385 326.15691678758304 M222.928111945925 325.2118344730819 C159.87191720319242 326.7043075204356, 96.67196194575662 326.333130126328, 25.13798406907296 324.61809777798794 M25.241236984476814 326.1317399512381 C24.22985441875078 254.36104713617112, 24.06519706963375 185.6810427428483, 25.513063315546265 25.884693275265523 M25.366209521611246 325.6160617032384 C26.567255088020907 219.26058152049302, 26.813766214065815 113.2116311178134, 24.29368331098033 24.839988068336254" stroke="rgb(0, 0, 0)" stroke-width="1" fill="none"/></g><g><path d="M24.38308471362013 24.623357770319114 L84.03092860916348 24.1035265340457 L84.97043727572195 75.67555764974905 L25.352766878352778 73.58160023501124" stroke="none" stroke-width="0" fill="none"/><path d="M25.198427484820193 25.799165941357728 C37.02105244206299 23.86450804360849, 52.7538937344604 24.300166035983043, 84.09898098807716 24.451990542003085 M25.643717060776744 25.26972610298684 C47.505535873028634 25.955767373577885, 71.84397362527073 24.562865415091174, 82.75914900359794 24.533871942989123 M84.06342359106858 25.702881852629304 C81.90715974917765 41.90823786603926, 81.1689328215675 60.05324490590158, 81.01530382491791 74.8403856635666 M83.0801436079795 24.07246637091782 C83.16112804348248 40.0385991533231, 83.27022961413944 56.937707297516546, 83.95335881990118 75.17806734921969 M81.49004658274097 73.09656625981688 C67.08217952369087 75.01106572368856, 51.14366398473442 73.0552872488687, 23.67774286776105 73.44192317485346 M82.31458294325621 74.46946551955224 C60.33486265981391 74.75077060562757, 40.034838557153826 75.37108836806254, 25.233689033806375 75.8071113921273 M24.355588247876224 73.28845179550893 C26.23952645383871 62.27714513431257, 25.007424871649857 51.56622037488453, 25.522535036488073 26.15295135858321 M25.73290521992847 75.5070668356196 C23.92340319746133 56.15377070288026, 25.29859268347685 38.9082278362138, 24.55326161717344 25.51386673577675" stroke="rgb(0, 0, 0)" stroke-width="1" fill="none"/><text x="54" y="55" class="type" aria-describedby="desc-0">func<title id="desc-0">Function name</title></text></g><text x="50" y="130" class="variable" aria-describedby="desc-1">age<title id="desc-1">Parameter name</title></text><g><path d="M148.57952033997296 98.03181827377728 L204.7484185862838 98.16607577970495 L205.66126933522733 148.92985074862634 L148.02624693605136 149.5638651218809" stroke="none" stroke-width="0" fill="none"/><path d="M146.58524936264814 98.72988045913625 C169.9149951591023 100.89425564352221, 192.65306039788967 101.0862890883245, 207.8923889831838 99.25966363573521 M148.40307859897783 100.0338364886197 C165.58406313387945 99.95220889959647, 185.3288091696561 99.28960744008691, 205.69848318831316 99.79875623977395 M207.1744615470173 100.63430109183874 C204.9869304978508 116.65122709135649, 206.59539626165716 129.24901233261787, 206.11019237627502 149.80541306524688 M206.7091491799728 99.055012469357 C205.6212094510353 114.30291694941872, 205.56087405769202 127.56436097430593, 205.5384403117526 150.12250273137803 M206.51521242161172 151.18616673084134 C186.52111237935543 150.14260413256335, 168.52481846752042 150.9396729222165, 147.2011004779651 148.95861091288495 M206.7534496177617 150.66948450404712 C183.78508654640038 150.95612834546426, 160.58200820597753 149.8195426870565, 147.0043290731836 150.95234650447028 M146.33896479817997 150.25043377159997 C146.9095925856255 136.71264149439023, 147.47517902151705 125.77327884169125, 146.43924857982205 100.63880670150438 M148.93246877227512 149.1783006523807 C147.9437054003782 138.36736108152024, 148.4352104740517 127.33810150169921, 148.99077623506867 99.80245376863375" stroke="rgb(0, 0, 0)" stroke-width="1" fill="none"/><text x="177" y="130" class="id" aria-describedby="desc-2">id12<title id="desc-2">Parameter value</title></text></g><text x="50" y="205" class="variable" aria-describedby="desc-3">name<title id="desc-3">Parameter name</title></text><g><path d="M147.44633715425726 173.92628405509495 L205.52335549639562 175.2046336367352 L205.4934052004654 223.47798957696284 L147.1838278971219 223.90048285752073" stroke="none" stroke-width="0" fill="none"/><path d="M147.92862429808332 175.22541833612186 C161.94506258530433 173.75040509662668, 174.4301904245415 175.60439315204638, 205.14196554735193 174.97072819770472 M147.72616421853073 175.76075210400498 C160.81952936490165 175.7973491338793, 172.352820066314 176.28667190100117, 206.1854670670444 175.18142913610404 M205.3503796497492 174.78255311957258 C204.54964204833158 189.48612141099758, 206.79578097497995 206.6513385971196, 204.7527948078977 225.6703661797778 M205.5844119665388 174.70312696149855 C204.59735327588078 194.68751400125606, 204.57748221546893 212.8963257970435, 205.55632331625526 225.8847994632906 M206.69335618339727 224.90229554696097 C193.06035062898692 225.599475011504, 183.91404412636035 224.47879094659598, 147.52966536165988 223.3468718639727 M205.25020809999833 224.2562324946475 C189.5488132274495 226.03152964757413, 173.24596561275823 225.30780776579593, 148.95882182703946 224.71073883807753 M147.1997900783924 223.15027370400577 C147.5973398053774 214.5550811191089, 146.29017053074213 203.83576619273026, 147.00092729948733 173.89652092159207 M148.88221759888543 225.35574110015938 C147.4352942936119 212.10234375828043, 147.51773004307788 198.0237603680912, 148.16572935466124 174.1462057252659" stroke="rgb(0, 0, 0)" stroke-width="1" fill="none"/><text x="177" y="205" class="id" aria-describedby="desc-4">id17<title id="desc-4">Parameter value</title></text></g><g><path d="M149.9203519940282 250.52159233047578 L196.03142182811433 248.11358768520768 L197.4684955342383 301.38488221563665 L147.60250086306135 300.5453043520151" stroke="none" stroke-width="0" fill="none"/><path d="M146.25505279566 249.58505244032523 C167.79681603075474 248.60475772408125, 184.03967811481223 251.53309356309083, 197.18864038223472 248.50895621374607 M148.72919001754835 249.84350973714064 C167.96614025890014 250.14951311167687, 187.20413305266817 250.15505293433873, 198.65772983944535 250.9222397621211 M196.28848678806654 248.7555965538409 C197.11794392834426 261.22029487292014, 197.24772794424803 271.9946529387593, 199.43697096240584 298.9475993631748 M198.933247091412 250.3829806242492 C198.8425950211645 264.87602139680916, 197.8620970295063 281.50198880586424, 197.15496791285273 299.60587969904554 M197.64470418766976 301.55464503187477 C181.42589855923347 300.83998870512806, 166.21646478946548 301.2951644434896, 148.2632431937767 300.4544181108301 M198.44832447728072 300.8369075183317 C185.4423692186981 300.76376915967006, 171.84629424245182 300.5463228843592, 147.68128254853966 299.21594628399015 M149.2910171151476 301.8925726838804 C148.41321329999494 287.2875794075247, 148.39762986444256 272.29616878826386, 147.0445749068895 249.42403581118714 M147.47370099239993 299.75061429101703 C147.87071691060373 282.3400223083435, 148.6877929796108 264.74488703359174, 148.50889193519404 249.481482481933" stroke="rgb(0, 0, 0)" stroke-width="1" fill="none"/><text x="173" y="280" class="id" aria-label="blank entry" aria-describedby="desc-5"><title id="desc-5">Parameter value</title></text></g></g></g></svg>