<svg width="473" height="350" xmlns="http://www.w3.org/2000/svg"><title>Python memory model diagram showing stack frames</title><style>
        :root {
        --fade-text-color: rgb(0, 0, 0);
        --hide-text-color: white;

        --highlight-value-text-color: rgb(27, 14, 139);
        --highlight-id-text-color: rgb(150, 100, 28);

        --highlight-box-fill: yellow;
        --highlight-box-line-color: rgb(0, 0, 0);

        --fade-box-fill: rgb(247, 247, 247);
        --fade-box-line-color: gray;

        --hide-box-fill: white;

        --primitive-value-color: rgb(27, 14, 139);
        --id-text-color: rgb(150, 100, 28);
        --default-font-size: 20px;

        --highlight-object-fill: rgba(255, 255, 0, 0.6);
    }

        text {
            font-family: Consolas, Courier;
            font-size: 20px;
        }
        text.default {
            fill: rgb(0, 0, 0);
            text-anchor: middle;
        }
        text.attribute {
            fill: rgb(27, 14, 139);
            text-anchor: start;
        }
        text.variable {
            fill: rgb(0, 0, 0);
            text-anchor: start;
        }
        text.id {
            cursor: auto;
            fill: rgb(150, 100, 28);
            text-anchor: middle;
        }
        text.type {
            fill: rgb(27, 14, 139);
            text-anchor: middle;
        }
        text.value {
            fill: rgb(27, 14, 139);
            text-anchor: middle;
        }
        path {
            stroke: rgb(0, 0, 0);
        }
        .highlighted path {
            fill: var(--highlight-object-fill) !important;
        }
    </style><g role="graphics-object"><title>Stack frame for func</title><g id="object-0"><path d="M26.4094628536072 24.40399117235611 L221.861313680084 23.5251356649595 L221.3851948047746 323.4077397047417 L23.480381064131087 326.7896876152138" stroke="none" stroke-width="0" fill="none"/><path d="M26.979380793930794 25.102734264962066 C75.23977061815627 26.97963113147548, 123.75169258137326 24.47298175534172, 224.76554232120452 26.168992638205008 M25.097305057412875 24.963060009745192 C66.96364141914076 24.721519963855293, 110.31896870040701 24.429342262401963, 223.81210175526934 24.633608469342256 M224.22957412995558 24.12889447698099 C223.46952593252024 111.71543195322099, 221.19940880495108 197.4366543431299, 223.68469600861857 323.7940167958521 M223.51739698659065 24.676912881206547 C223.71016970449642 122.40461014984612, 222.8174725531756 218.76729746000163, 223.08037708583547 325.1621457936709 M224.09248205229525 326.1171229859794 C150.18028602211055 325.0030864454602, 77.65402221588465 324.0552048380495, 24.93950376352541 325.89296378240266 M223.09132363754077 324.3365606837612 C182.73634055952505 324.55089038770416, 142.3367658632139 325.1859201559501, 24.63586575187584 324.03760197707953 M24.713237041188176 324.65255931214256 C24.91972566405005 231.07708110974397, 25.29617435053191 138.99505549487196, 24.53005495271007 26.244703802611053 M24.82594397748498 324.3556302020146 C24.549881319321766 259.12826195966124, 24.878352339399 193.26946090743468, 24.881736598584727 24.855582389499332" stroke="rgb(0, 0, 0)" stroke-width="1" fill="none"/></g><g><path d="M147.45466619185933 98.39559534452513 L204.774718504144 101.39265010113496 L207.30073606137668 148.8407374617004 L147.49375711643467 149.1680107723775" stroke="none" stroke-width="0" fill="none"/><path d="M146.34974514016852 101.20038896395913 C170.85539126039762 99.01600856303376, 193.10450617200243 98.82901278464838, 207.0755520871833 101.19315111878527 M148.03251940316093 100.68349363571592 C170.92056271104312 99.50427085029256, 192.92079845090896 99.77103728048625, 205.92342137111396 100.27505602416106 M207.53445396366132 100.70011009559141 C206.9147199822332 118.07257213684741, 205.45757598461634 134.22944420204865, 206.20551724106025 151.61079326113733 M205.26818912785387 100.14601740512315 C205.6464648664089 111.19866205939124, 206.5155308220309 123.80461503770005, 205.92516800111756 149.80766615469292 M206.12527303151188 151.58625972403175 C188.94550891564398 148.42801023438514, 173.56666822123597 148.34756707408752, 147.25537747903675 148.62177347893456 M205.1172275121032 149.74608960802638 C192.59262217679304 150.19086206667845, 179.06886270335 150.33134326346627, 147.21227145478252 150.21693680436158 M147.4109704128217 151.2893547592255 C146.46210908165511 132.21729662227838, 148.77282684950552 115.91531591540542, 147.88793881868628 98.67307670240223 M147.59127015703635 150.9905199155029 C148.3051105938797 135.65279463593257, 147.70677025692123 122.42617389142131, 148.16506499293823 100.66545187342054" stroke="rgb(0, 0, 0)" stroke-width="1" fill="none"/></g><text x="50" y="130" class="variable">age</text><text x="177" y="130" class="id">id12</text><g><path d="M146.599557162171 175.75750783090083 L205.1382288317896 174.0234016065709 L206.52848942663027 226.4098769325551 L148.0933928453865 225.58137177481217" stroke="none" stroke-width="0" fill="none"/><path d="M146.26629661648371 174.04042586173338 C166.32699310821357 175.17655173606872, 182.5470185347827 173.275336420243, 206.8994840451968 173.38926348126833 M148.61174194626162 174.7756283632528 C164.9353775785482 175.63829940860927, 181.08932147849623 175.27885336354058, 205.2205884403033 174.37208571585842 M206.1762835842815 174.68942869582997 C206.34566451106974 190.3295651570845, 205.47010945885373 203.21798339000298, 207.50354320844096 223.184618421424 M205.1597910901518 175.02199107879827 C206.74434571185216 189.20128599224623, 206.45441839092234 203.06181698795055, 205.38640048410645 225.2421768055123 M207.1682600783297 226.77196861320283 C190.7178570015367 225.70582164079224, 172.6159919174487 226.48273259649946, 146.74009957464096 225.2832410070987 M205.62312551341353 224.95702628149172 C186.71437493661693 224.5500963442802, 169.26033970004113 225.29317414029956, 148.8343604437043 224.05681776393598 M146.73388805265077 225.33851453137603 C147.35839399930583 216.07056853296174, 147.0128022320818 202.93504308749135, 147.50054716212242 175.11190405813153 M148.93773798248995 224.37772345552528 C147.69909352795057 205.7896959870648, 147.75664231820733 188.87199629662626, 147.25041859924602 175.04790260199783" stroke="rgb(0, 0, 0)" stroke-width="1" fill="none"/></g><text x="50" y="205" class="variable">name</text><text x="177" y="205" class="id">id17</text><g><path d="M147.64364633752044 249.92827784758444 L197.9128496203725 249.17335476374848 L198.34097606809917 301.6415616120613 L148.60231487884974 298.3272759233458" stroke="none" stroke-width="0" fill="none"/><path d="M149.45413001580138 250.29431372766024 C163.76984637190142 249.04206790155433, 181.8030236822796 248.5989650283858, 198.20185813627157 249.931206131449 M148.7534028517687 250.6522437990937 C166.39546793974208 250.15481025966463, 183.53995814089697 249.69133726955798, 198.44064770719675 250.57946488357118 M198.74623021516297 249.6566025633869 C198.14282424957779 268.7708606809363, 197.52589143963093 285.07681616987225, 198.6033595904432 301.887590524922 M198.21232771986365 249.12982369271202 C197.16898381723377 265.14919752447895, 198.39698180730036 281.24023146250323, 198.14920675233353 300.77636206062255 M197.2554268990503 300.1828771494769 C182.85556395070603 301.35580132803904, 166.16417072104025 298.5647660040896, 148.53174837694036 300.0804472593888 M198.48373423494093 299.87081132840865 C182.87477879048205 300.5953554013512, 168.35152589767407 300.183176050868, 148.4454142717847 299.4198377231844 M147.29016165345783 300.37989857867495 C148.2918878469211 288.86164358455534, 147.88001232504007 275.74303403241265, 147.80252153146267 249.14854308172352 M148.9217163324348 300.9651147680075 C149.02197330219207 288.68011660999963, 148.68293476045756 277.2637380535298, 148.88908206080933 250.34979949479015" stroke="rgb(0, 0, 0)" stroke-width="1" fill="none"/></g><text x="173" y="280" class="id"></text><g><path d="M25.738765885405957 23.97622549505231 L82.38589228980504 23.59402811676188 L82.28038033708447 76.25309546250908 L25.842916109027147 74.00653083188682" stroke="none" stroke-width="0" fill="none"/><path d="M25.838574208571334 25.515273382990046 C38.090787038323874 24.97479266578877, 55.42653831844214 26.91908068616187, 82.40529127036442 25.479078877048217 M24.71240532972576 24.741003126469952 C40.445693876216765 25.206939143748386, 54.38178636045959 24.978536575428038, 83.7124717360754 25.55571519005126 M82.08626304463318 25.682116302595684 C84.43805124438943 35.94656615280908, 82.4274910810158 45.37187494877875, 83.98540589782586 75.45964537857223 M83.36520567084634 24.59474887164014 C83.18762953652761 35.83731868734452, 82.88260700789505 48.00181299430495, 82.1845008798403 75.9904257577598 M81.1604911628354 73.89679660272213 C70.09517587849054 76.49578813535561, 59.81922414790425 75.30930692750317, 23.527178213063735 74.36078406591446 M83.59468375147506 75.86839177653182 C62.373977477879855 73.95672550587751, 40.8527104471471 74.59232149047776, 24.615917050440792 74.9636138204568 M25.973933056177994 76.66714142212086 C24.748342860475987 60.62140222349828, 24.001937989638176 47.531414869150936, 26.405116207253705 24.01566091136378 M24.123034976455116 75.47023424543134 C25.256912649507818 56.15018173614949, 25.322150154749664 38.05486094030815, 24.711110857129334 25.366368168276484" stroke="rgb(0, 0, 0)" stroke-width="1" fill="none"/></g><text x="54" y="55" class="type">func</text></g></svg>