<svg data-theme="dark" width="473" height="350" xmlns="http://www.w3.org/2000/svg"><title>Python memory model diagram showing stack frames</title><style>
        :root {
        --fade-text-color: rgb(0, 0, 0);
        --hide-text-color: white;

        --highlight-value-text-color: rgb(27, 14, 139);
        --highlight-id-text-color: rgb(150, 100, 28);

        --highlight-box-fill: yellow;
        --highlight-box-line-color: rgb(0, 0, 0);

        --fade-box-fill: rgb(247, 247, 247);
        --fade-box-line-color: gray;

        --hide-box-fill: white;

        --primitive-value-color: rgb(27, 14, 139);
        --id-text-color: rgb(150, 100, 28);
        --default-font-size: 20px;

        --highlight-object-fill: rgba(255, 255, 0, 0.6);
    }

        text {
            font-family: Consolas, Courier;
            font-size: 20px;
        }
        text.default {
            fill: rgb(0, 0, 0);
            text-anchor: middle;
        }
        text.attribute {
            fill: rgb(27, 14, 139);
            text-anchor: start;
        }
        text.variable {
            fill: rgb(0, 0, 0);
            text-anchor: start;
        }
        text.id {
            cursor: auto;
            fill: rgb(150, 100, 28);
            text-anchor: middle;
        }
        text.type {
            fill: rgb(27, 14, 139);
            text-anchor: middle;
        }
        text.value {
            fill: rgb(27, 14, 139);
            text-anchor: middle;
        }
        path {
            stroke: rgb(0, 0, 0);
        }
        .highlighted path {
            fill: var(--highlight-object-fill) !important;
        }
    
        [data-theme="dark"] {
            --highlight-value-text-color: #110875;
            --highlight-id-text-color: #6e4409;

            --fade-text-color: #BBBBBB;
            --hide-text-color: #121212;

            --highlight-box-fill: #EDB926;
            --highlight-box-line-color: #FFFFFF;

            --fade-box-fill: #2C2C2C;
            --fade-box-line-color: #666666;

            --hide-box-fill: #121212;

            --highlight-object-fill: rgba(72, 207, 173, 0.3);
        }
        [data-theme="dark"] text.default,
        [data-theme="dark"] text.variable {
            fill: rgb(224, 224, 224);
        }
        [data-theme="dark"] text.attribute,
        [data-theme="dark"] text.type,
        [data-theme="dark"] text.value {
            fill: rgb(144, 164, 237);
        }
        [data-theme="dark"] text.id {
            fill: rgb(255, 183, 77);
        }
        [data-theme="dark"] path {
            stroke: rgb(204, 204, 204);
        }
</style><g role="graphics-object"><title>Stack frame for func</title><g id="object-0"><path d="M24.88294692998902 25.49675499136943 L222.83372715502162 26.367951030129333 L221.8531029602611 324.20906480486605 L25.308175519585014 323.3105253223893" stroke="none" stroke-width="0" fill="none"/><path d="M25.075724703082834 23.97077334349107 C83.88178318427349 23.793836860531684, 142.36665264419173 24.76100389909167, 224.6734570303147 24.093827853221217 M25.988538209989102 24.283420238298525 C82.92092042707895 25.7920001401596, 140.71787523404936 25.188336395380208, 223.9872510673333 25.36969324395357 M223.1687068522603 25.51904287126283 C224.07543110796576 119.44319154693326, 222.07488182144368 216.84890822402548, 222.66016222183939 326.0435758218617 M223.06308635121374 24.73182884203402 C220.67557808977634 114.1057468732188, 220.8012535581896 204.27284912797336, 223.5148462128683 325.0572524248724 M223.4215087496395 325.19720762766974 C160.8662676047596 322.6783257510239, 103.75622673979656 324.8711575488115, 26.79618004854482 326.1368835355393 M222.56830484490098 324.28432283377026 C172.4629261767591 322.78823838325627, 123.5366433886268 322.60084270264167, 25.816261162045443 325.4697535939252 M23.680408416875974 324.9698038858847 C25.219995149929968 231.07725657152156, 25.484335240118646 133.50643127534244, 25.14767237266817 24.468074118625296 M25.3861530983623 324.6957165309486 C23.81838007913286 250.93924437662787, 24.087220562297876 175.39024366994397, 25.441262090232936 24.805425382259198" stroke="rgb(0, 0, 0)" stroke-width="1" fill="none"/></g><g><path d="M23.322666185284298 26.436963100528118 L83.16773666055772 24.932169040457843 L83.72928303428083 76.59128675018985 L25.229459177385444 76.1636365074801" stroke="none" stroke-width="0" fill="none"/><path d="M26.925559364684034 26.850514276483096 C43.02052450429852 23.56442107077865, 64.19656125401163 24.584647121610402, 84.5965187489702 26.169360806697544 M24.503106522574612 24.93608881739479 C46.51093777304149 24.762120267574605, 67.91227091870684 25.191128530722498, 83.71508769289426 24.708206149614398 M84.31838433693713 25.466887497832438 C81.58917005715621 43.054031759007174, 82.32545152390661 60.37425197433224, 83.1118718117095 76.01864990978147 M82.7490060592362 25.788486889476157 C82.84120220187255 39.57474313981052, 83.29687945122967 55.66656584061507, 82.8237537737451 74.84700737614816 M83.64118988433253 73.93463569265998 C63.33487866595238 77.00177097484257, 47.95294279017746 76.5317992675681, 25.41309581084482 75.30236760704328 M83.48936955878472 74.70120244149182 C68.80911871246141 76.07090302561801, 54.062230526306884 75.53521931270508, 25.68917404269089 75.97819417984614 M25.66117540684911 73.18833950138543 C25.651957208217098 54.99676456117687, 24.590935288205596 37.32805558735485, 23.515972644793617 26.18190366440757 M24.478109471269754 74.90873335253566 C25.364347064616332 59.977982774664326, 25.43313174042686 45.73484648079783, 25.692120029934735 25.53990886326895" stroke="rgb(0, 0, 0)" stroke-width="1" fill="none"/><text x="54" y="55" class="type" aria-describedby="desc-0">func<title id="desc-0">Function name: func</title></text></g><text x="50" y="130" class="variable" aria-describedby="desc-1">age<title id="desc-1">Attribute name: age</title></text><g><path d="M147.73604523151576 99.4301408056584 L207.28112835694753 98.30788688697255 L204.00934446384105 149.98484822393755 L147.22600278613535 151.62349597846583" stroke="none" stroke-width="0" fill="none"/><path d="M149.47345726787384 100.75335619636832 C166.05044509609874 99.68129885909963, 187.83321427995122 101.97300383491755, 207.58346646585937 99.14552130701193 M148.38747487664892 99.15314932423131 C164.7786313824139 99.539108206169, 179.90257021838858 101.05674577855636, 206.37969670150002 100.50773943779002 M207.00561912251862 101.38760374434331 C206.16650037088925 115.249874128749, 205.23722746099352 128.04100137527854, 204.92332980952534 148.9790318545943 M206.91531931790362 100.87488481490404 C206.52725479236506 113.4606355226521, 206.46465959620716 124.72289928503261, 206.0725322869804 150.50923229083074 M207.64593607183596 149.31104594871638 C186.99916499284194 150.8456166846088, 167.12279099631837 149.61952962885744, 148.98541948484893 148.78266622246872 M206.1021915378807 150.93921550020602 C191.26752179014784 149.59608895658099, 175.99830911127597 148.57739783071978, 148.24193130872027 150.79197060602695 M147.60917043299355 149.4762158350568 C147.4811664433675 132.22598926432914, 148.35345520050535 117.03160240619306, 149.56963140049655 98.66151095372729 M147.65664161199794 149.7405433251709 C148.36519291422837 132.49785520719837, 147.88454577051547 116.04022725762405, 147.5600479853393 100.14071706139515" stroke="rgb(0, 0, 0)" stroke-width="1" fill="none"/><text x="177" y="130" class="id" aria-describedby="desc-2">id12<title id="desc-2">Attribute value: id12</title></text></g><text x="50" y="205" class="variable" aria-describedby="desc-3">name<title id="desc-3">Attribute name: name</title></text><g><path d="M149.33246849230852 176.02759962946047 L207.98820205729592 176.8897713535161 L204.8508711787299 225.14878572339865 L147.9647139353663 226.90350630491676" stroke="none" stroke-width="0" fill="none"/><path d="M146.22883165126234 173.77566633176286 C163.91497537423643 173.78692260918396, 176.44697174654107 173.621582483208, 205.58204224869903 174.24418982180006 M147.79299627926184 175.47891176126714 C160.8626365055877 175.97551026625592, 176.14853024567628 176.0505969750015, 205.09318595255942 174.22499081979575 M205.168981797981 174.74042012108183 C204.64500136105346 184.2531334954471, 204.48212286903595 196.9392999252479, 205.37484212452284 223.70254892160713 M205.86080522155302 175.05616168516426 C206.6863960104711 192.42667264091648, 206.7069227752264 209.81370870505134, 206.6926812395274 224.36687432878546 M204.628293892986 224.67149991050627 C187.50803081020732 223.97876335512888, 166.2599012403427 225.23744821819724, 148.4894674403077 225.31378633021677 M206.48654839360378 224.00830639744257 C189.13136701580115 223.68357760619298, 172.70819873117213 225.1949996049153, 148.77758020100043 224.59043187818077 M146.91613625252822 223.12304636395706 C147.44596461520453 208.502037744191, 149.6062905301315 190.20258784260935, 146.5466682625588 175.99466944594178 M147.46237000736684 225.45348080426706 C147.57332993567383 207.6816493560937, 147.76757348611537 189.449438465506, 148.32287600832123 175.08393720548054" stroke="rgb(0, 0, 0)" stroke-width="1" fill="none"/><text x="177" y="205" class="id" aria-describedby="desc-4">id17<title id="desc-4">Attribute value: id17</title></text></g><g><path d="M149.02241311901318 251.6343447263544 L197.0109107070965 249.35111236260184 L196.97707994330392 300.0030574365721 L146.95436979025794 299.52782529011756" stroke="none" stroke-width="0" fill="none"/><path d="M148.36279835784757 251.87208155357362 C164.4385151976618 250.45250662288498, 180.81507602320153 247.73739457811863, 197.13243754139774 248.72960492016833 M147.5251052201317 249.43789452278764 C161.0126205499844 249.75968184296127, 174.9808567023351 249.54154389685596, 198.70394490382517 249.16292468587721 M196.66729435487287 250.1898667301475 C197.35130100565837 261.3134145540344, 197.63920614035104 271.2760314477904, 196.80880331529752 299.7541190372823 M198.3198809912685 249.2341699922722 C198.57186785728433 268.6510428638338, 198.17740527284718 287.71466168922774, 197.93270329756137 299.00085590535645 M197.21195126571962 299.70919190773526 C182.7268218280301 300.3363413300085, 169.4094871210032 298.7051133621586, 148.43776317913 300.8998453093316 M198.1403596002822 300.488629170508 C180.98391409471742 300.15006497025325, 164.18996168376566 299.6269719234227, 148.0948496936989 300.5829422724138 M147.43276904435209 299.39646741630156 C148.39962443810404 279.5288630155202, 146.44728479839154 263.94937644428535, 147.59601237164617 251.45692079091737 M148.8101808825463 300.9406618570338 C147.32684154518472 281.0934908229314, 146.8041887906964 259.9737956303184, 147.13277896656314 249.79848818186326" stroke="rgb(0, 0, 0)" stroke-width="1" fill="none"/><text x="173" y="280" class="id" aria-label="blank entry"></text></g></g></svg>