<svg width="287" height="217" xmlns="http://www.w3.org/2000/svg"><style>
        :root {
        --fade-text-color: rgb(0, 0, 0);
        --hide-text-color: white;

        --highlight-value-text-color: rgb(27, 14, 139);
        --highlight-id-text-color: rgb(150, 100, 28);

        --highlight-box-fill: yellow;
        --highlight-box-line-color: rgb(0, 0, 0);

        --fade-box-fill: rgb(247, 247, 247);
        --fade-box-line-color: gray;

        --hide-box-fill: white;

        --primitive-value-color: rgb(27, 14, 139);
        --id-text-color: rgb(150, 100, 28);
        --default-font-size: 20px;

        --highlight-object-fill: rgba(255, 255, 0, 0.6);
    }

        text {
            font-family: Consolas, Courier;
            font-size: 20px;
        }
        text.default {
            fill: rgb(0, 0, 0);
            text-anchor: middle;
        }
        text.attribute {
            fill: rgb(27, 14, 139);
            text-anchor: start;
        }
        text.variable {
            fill: rgb(0, 0, 0);
            text-anchor: start;
        }
        text.id {
            cursor: auto;
            fill: rgb(150, 100, 28);
            text-anchor: middle;
        }
        text.type {
            fill: rgb(27, 14, 139);
            text-anchor: middle;
        }
        text.value {
            fill: rgb(27, 14, 139);
            text-anchor: middle;
        }
        path {
            stroke: rgb(0, 0, 0);
        }
        .highlighted path {
            fill: var(--highlight-object-fill) !important;
        }
    </style><g id="object-0"><path d="M48.55072472058839 25.1013711438009 L251.51132692019775 25.774318142409104 L249.35433341489056 154.51475454833977 L49.99536337314045 154.65417454875038" stroke="none" stroke-width="0" fill="none"/><path d="M50.52842615086793 24.0017069539682 C109.07711700209119 24.394398251778934, 168.11800344128812 23.38461624560138, 249.22801141417676 25.71129977328361 M49.49692447076192 24.6369884910294 C94.51357396337072 23.836508680315358, 138.54619364950128 24.844342129052173, 250.76760247985368 24.612611421707914 M248.90273155037457 26.38038133344497 C250.750399583519 73.89402559251069, 251.8297506199574 123.32674224543055, 248.14335101191168 156.94672897787436 M249.67664140761482 25.907401765679843 C250.1351832711998 66.10241852062858, 251.64477088924977 105.96453399966842, 249.28010666952449 154.60234237510966 M248.41169352943876 153.72890374871022 C197.71972964822683 155.30829967108977, 146.50116546078021 154.37319526540654, 49.945148033658405 156.04508795200613 M249.77630510279178 155.04550855195652 C185.13592451501185 155.345924535452, 122.0331100194924 156.3671341197468, 50.16529485556429 155.22346705108075 M50.77796229856863 153.58969531293138 C49.625627116731756 109.22684890719069, 49.48009700486483 67.54400725259445, 49.97179309427945 25.64300729635309 M49.8229361311798 154.64633802025807 C50.415420145666594 115.14344954936651, 50.94592846225525 75.36327635237186, 49.55519079868306 24.181139580252232" stroke="rgb(0, 0, 0)" stroke-width="1" fill="none"/></g><g><path d="M44.74439060371687 19.68923892470717 L257.0239399712327 19.338270649679803 L255.62380418881548 162.46240386333508 L44.06848537565484 159.22937266403596" stroke="none" stroke-width="0" fill="none"/><path d="M43.432278808418175 18.38000853997069 C103.52739313286975 19.916038858306006, 164.66588263080337 21.037468689805056, 255.76100349956195 20.343405686736553 M44.19320772850437 18.19613498715089 C96.44941674435069 19.8607701051843, 146.8982887154834 20.239106151898305, 256.025338547379 19.068377190577706 M256.53834511489913 17.853005614222205 C255.154994298614 65.2715025457995, 258.65445593782545 110.26767958536283, 255.94972224211176 162.24918828688368 M255.35975396016207 19.12299533085473 C256.10538012697447 58.01261445489827, 254.6039368680956 98.07591533357723, 255.10410428284214 160.74166260596985 M256.07294862042784 160.5605631797865 C194.91411477516297 162.29988961957156, 137.0592255785528 163.0875253204248, 43.56032140489346 159.92034235175814 M256.1907971687654 160.7361265294294 C182.7114368071699 162.20958124749944, 109.26955663779844 161.6628308857861, 44.46601140548178 161.53574737439874 M42.54281902743434 161.577530204901 C44.46943287652603 117.52243415700727, 46.66849047154246 73.71338939654784, 44.77621864669365 19.429337559408097 M43.856997588393384 161.88139937609722 C44.90735841307697 125.29558517873888, 44.704547054825035 87.81943059544591, 43.6896612298409 19.575675689991566" stroke="rgb(0, 0, 0)" stroke-width="1" fill="none"/></g><text x="150" y="115" class="value">124</text><g><path d="M48.713335235959576 24.337858874781205 L110.48879809573174 25.5642630733458 L111.98420799833397 75.26866998488866 L48.71742070121898 74.23152920984178" stroke="none" stroke-width="0" fill="none"/><path d="M51.83509450274353 24.78408408510578 C61.8103525926786 27.520173118343738, 74.33892316477765 24.40621875658944, 111.74327245559179 25.43131697461108 M50.686547333890104 24.67646947120859 C67.88855867949002 26.16861163727445, 85.5161191608358 25.27715031861423, 110.89823635728311 25.41620710597482 M109.08776359685612 26.663172386387423 C107.78631052137222 38.42931593711267, 110.00936918343098 55.42436916936553, 108.9493579109655 74.80472526952154 M109.44243222129742 25.398324046898463 C111.05964797543525 38.70564878578965, 109.76311190253885 52.32402735141402, 110.76682765436195 74.11432911312026 M111.64631786704449 74.60584710944046 C88.3720933512224 74.30750196814807, 64.19203734819058 76.56406517033706, 49.31682535001928 73.09250048062113 M109.5486664201862 74.95763618898988 C89.74080524354021 75.55262334946984, 67.77773553695452 74.31450501650036, 50.328393341051644 74.59594442040122 M51.72528903645129 75.22107185564958 C48.62283482014605 58.108467454675576, 51.18727171930198 39.66655311463408, 49.68935452775008 24.084233128041273 M49.57568894511917 75.38806681843813 C49.08184280423126 55.37675790255075, 50.5108841927904 36.14169774968482, 49.6646902578241 24.140717245809505" stroke="rgb(0, 0, 0)" stroke-width="1" fill="none"/></g><g><path d="M189.65336444610128 26.9014355770119 L249.4529093738936 26.38941216027237 L248.00988889615155 74.62792763185094 L191.46408734702246 76.85509360422965" stroke="none" stroke-width="0" fill="none"/><path d="M188.31912754930337 26.543689915179023 C211.79622380375957 23.73366248253015, 231.889897702065 24.542688139177773, 249.55442728009976 23.231167803542096 M190.3073854413609 24.22078961422131 C213.7606830078185 25.226963968053226, 237.24785250915184 24.745128406484547, 250.31494675843166 24.933957700904614 M250.25127926192545 26.912977426755702 C250.21125134918765 42.80245991830596, 251.22702345218568 61.2862119692443, 250.6760241296096 76.17836908783036 M249.52544295457764 24.571067149846407 C250.50790451418234 37.924707943541314, 250.01211922471927 47.97593262919604, 250.19030287885258 75.9259615955798 M249.67132924669062 76.34099511527899 C234.93541799526665 73.80596045283896, 223.82237532734158 76.01454648402793, 191.8341167439839 76.29665469617849 M249.5163203658512 75.79537510979817 C237.56893662814537 75.6592056502649, 224.18671750093017 75.92984852308386, 190.3046117718711 74.29824051211097 M188.7871489147231 76.6946900419765 C189.54792895169675 64.87956437672636, 189.05493216608593 53.0069426726228, 191.35128392109985 26.409187479476905 M190.40785347073228 75.59905347731221 C189.29281653847596 64.32846158226592, 190.22101803608152 52.11961941543578, 189.21814523817812 25.970431869615844" stroke="rgb(0, 0, 0)" stroke-width="1" fill="none"/></g><text x="80" y="55" class="id">id19</text><text x="220" y="55" class="type">int</text></svg>