<svg width="287" height="217" xmlns="http://www.w3.org/2000/svg"><title>Python memory model diagram showing objects</title><style>
        :root {
        --fade-text-color: rgb(0, 0, 0);
        --hide-text-color: white;

        --highlight-value-text-color: rgb(27, 14, 139);
        --highlight-id-text-color: rgb(150, 100, 28);

        --highlight-box-fill: yellow;
        --highlight-box-line-color: rgb(0, 0, 0);

        --fade-box-fill: rgb(247, 247, 247);
        --fade-box-line-color: gray;

        --hide-box-fill: white;

        --primitive-value-color: rgb(27, 14, 139);
        --id-text-color: rgb(150, 100, 28);
        --default-font-size: 20px;

        --highlight-object-fill: rgba(255, 255, 0, 0.6);
    }

        text {
            font-family: Consolas, Courier;
            font-size: 20px;
        }
        text.default {
            fill: rgb(0, 0, 0);
            text-anchor: middle;
        }
        text.attribute {
            fill: rgb(27, 14, 139);
            text-anchor: start;
        }
        text.variable {
            fill: rgb(0, 0, 0);
            text-anchor: start;
        }
        text.id {
            cursor: auto;
            fill: rgb(150, 100, 28);
            text-anchor: middle;
        }
        text.type {
            fill: rgb(27, 14, 139);
            text-anchor: middle;
        }
        text.value {
            fill: rgb(27, 14, 139);
            text-anchor: middle;
        }
        path {
            stroke: rgb(0, 0, 0);
        }
        .highlighted path {
            fill: var(--highlight-object-fill) !important;
        }
    </style><g><title>Group of 1 objects</title><g role="graphics-object"><title>Int id19 with value 124</title><g id="object-0"><path d="M49.326361468380135 25.042344868528986 L251.17691617648367 25.433464442107667 L251.97225460193462 153.2142459902865 L50.49354668725125 155.36691666647428" stroke="none" stroke-width="0" fill="none"/><path d="M51.005809266326864 24.693073442864502 C93.00851921692278 27.430097335184108, 136.43426334507447 24.984025845858227, 248.89770471380356 23.781143802184072 M49.67333941404018 24.287438515845757 C98.08023270320741 23.88283746435004, 146.4196749354274 24.22839874168171, 249.80604958510762 25.341442763619266 M251.87156073747747 26.15674268373563 C248.54595622824834 78.0299270618046, 249.32206389151878 128.90687022834373, 250.7703747599914 153.1191705688557 M249.4517777141236 25.349384843445975 C249.05889388798246 65.8646574068863, 249.99630720099734 107.50658961033494, 250.93046007760913 154.51597698343582 M250.29362467568603 154.7892875315948 C184.376456522609 156.55235492603077, 122.84289811652428 156.12010721712218, 49.99832434624788 154.92992406034332 M250.34989386048537 155.43064339004326 C187.28921956914954 155.92731285740877, 123.03665057208059 156.56374102450698, 49.926453159838786 155.68178910942174 M48.42713401460624 153.7214490140154 C47.35252480867309 115.05365460375398, 50.16594720735306 77.47418652022014, 49.68834323240788 24.32834624598886 M50.52049665364154 155.2779160908693 C51.65219397431955 117.20715342631465, 50.653220527404535 76.57920667558435, 50.45074381765487 24.925575941173058" stroke="rgb(0, 0, 0)" stroke-width="1" fill="none"/></g><g><path d="M45.389924624990805 20.99814466439666 L257.74050273083714 19.083265106788556 L257.4308117360491 162.07755785098396 L43.189253008869215 162.05278315309639" stroke="none" stroke-width="0" fill="none"/><path d="M42.77060237822186 20.285084824278766 C114.26487493100886 18.884486668247533, 186.62505245631155 20.389147437495144, 256.6720998372758 17.726121509194677 M43.498949969086304 19.805074874689538 C92.67751006789771 16.743690470584028, 139.64518845747025 17.901211906617906, 255.25481472586742 19.220386917879082 M255.49526890896243 19.861285303163424 C256.47488351954723 49.67964933838897, 254.69411594296577 83.17421514403267, 255.20572229754936 162.30217441067435 M255.7023234447304 18.045080764512463 C254.99282109540803 65.23405774304435, 255.66398916310527 113.77759889264476, 256.65396382110856 160.75403548470763 M256.6030702713532 160.2774211015457 C205.19131176359235 160.89005203200057, 154.99648429604636 158.87326849912566, 42.56664582758022 162.37611286769234 M256.57242571781467 161.13190928228883 C208.74998490335707 161.35533433203153, 162.77036324329984 162.23886983617598, 44.526145171276234 161.4395409465357 M44.980366995403244 159.606323386113 C42.58400678581343 131.57924254564057, 42.17197733975003 99.34129207751532, 42.570878709686966 18.354801834961016 M43.80947205758744 160.32652188459693 C42.87278436863384 111.88334082241359, 42.553401831075696 60.22356883328446, 44.73970006639694 18.401283239729832" stroke="rgb(0, 0, 0)" stroke-width="1" fill="none"/></g><g><path d="M49.03216495840102 25.365781948449634 L110.0461942396557 25.964303806737394 L108.34214075403185 76.90738693299095 L48.829597404105996 76.25299984074077" stroke="none" stroke-width="0" fill="none"/><path d="M50.17333734613315 24.982234199895363 C70.0017695130087 25.16139968005998, 92.34915021273608 25.203971212745913, 108.93012717456953 25.73019981991114 M50.58724684731068 24.681643857629084 C71.33759308772956 25.799002493928043, 92.26685483242494 25.405373002356797, 110.06115306197991 24.58278697723591 M111.50135165565007 23.687653532614778 C110.39571217905336 44.619438825075925, 110.00497063724666 61.29171371168157, 110.51930264346242 73.95249661314045 M109.1278042276022 24.30838330539025 C109.35930474525699 43.53552783446579, 111.22628779425473 62.14381966814086, 109.8647904351676 74.59794599627826 M109.32052769676136 73.4615443391681 C95.6073273825498 75.7139099277546, 78.31342975091597 73.78387271738625, 49.372961224117155 76.20158936598624 M110.6261879387773 74.47747636890875 C92.25055336210401 76.14198922886226, 76.79107124028211 75.93328184095307, 50.11231703751352 75.0790664952785 M48.870457001034694 73.72242551308133 C47.98372586140809 58.07299561859395, 47.97518460756049 39.19357176364266, 49.466838738717904 25.08031668837071 M50.10833910102233 75.5468449817955 C49.081445190144976 62.2055693823299, 50.59279304445122 48.831735742555196, 49.012821142304475 25.10277548933501" stroke="rgb(0, 0, 0)" stroke-width="1" fill="none"/><text x="80" y="55" class="id" aria-describedby="desc-0">id19<title id="desc-0">Object id</title></text></g><g><path d="M189.53992500617366 23.8560339442908 L251.2685930830769 24.6982381555026 L250.04622089753937 73.31070136599259 L190.6951051902369 76.7288214289238" stroke="none" stroke-width="0" fill="none"/><path d="M189.01287789534922 24.362458317600506 C205.03830136131694 24.00014082222554, 221.48854408989388 26.647743635066227, 249.1303155538228 26.27468885895739 M189.18683874729615 25.616844447074453 C211.45746303446495 23.54532147516807, 230.4094005786742 23.488917807117065, 249.41710382454266 25.13905635693702 M251.46519252670856 26.741145813257894 C250.59501073657188 38.42300380329809, 250.78048625128704 55.031129565071836, 250.18244850701197 76.18034780023517 M249.35178564807492 24.582411680448573 C249.43601519971637 42.637891957825545, 249.43600896483815 57.86418571653512, 249.3593939189709 75.7480473341519 M248.6233822491992 74.52136850069033 C231.78529299186573 74.77374311950913, 212.63631868086597 75.73277838793638, 190.29466752099427 73.10589029226567 M250.0451083048243 75.25709522936947 C235.1458073182688 74.91282637918431, 221.07302480752108 75.62641790159357, 190.05723460091406 75.83202000894826 M190.6782314605107 74.26791581463337 C188.96284917779667 56.67360368802036, 191.7884115900051 41.69611445354244, 188.62110595005137 25.872899991553567 M189.28105808428484 74.97794424308245 C191.28145289627952 58.20107738851897, 190.2899062027421 39.42949855591712, 190.4135479124824 24.188249073536422" stroke="rgb(0, 0, 0)" stroke-width="1" fill="none"/><text x="220" y="55" class="type" aria-describedby="desc-1">int<title id="desc-1">Object type</title></text></g><text x="150" y="115" class="value" aria-describedby="desc-2">124<title id="desc-2">Value</title></text></g></g></svg>