<svg data-theme="dark" width="287" height="217" xmlns="http://www.w3.org/2000/svg"><title>Python memory model diagram showing objects</title><style>
        :root {
        --fade-text-color: rgb(0, 0, 0);
        --hide-text-color: white;

        --highlight-value-text-color: rgb(27, 14, 139);
        --highlight-id-text-color: rgb(150, 100, 28);

        --highlight-box-fill: yellow;
        --highlight-box-line-color: rgb(0, 0, 0);

        --fade-box-fill: rgb(247, 247, 247);
        --fade-box-line-color: gray;

        --hide-box-fill: white;

        --primitive-value-color: rgb(27, 14, 139);
        --id-text-color: rgb(150, 100, 28);
        --default-font-size: 20px;

        --highlight-object-fill: rgba(255, 255, 0, 0.6);
    }

        text {
            font-family: Consolas, Courier;
            font-size: 20px;
        }
        text.default {
            fill: rgb(0, 0, 0);
            text-anchor: middle;
        }
        text.attribute {
            fill: rgb(27, 14, 139);
            text-anchor: start;
        }
        text.variable {
            fill: rgb(0, 0, 0);
            text-anchor: start;
        }
        text.id {
            cursor: auto;
            fill: rgb(150, 100, 28);
            text-anchor: middle;
        }
        text.type {
            fill: rgb(27, 14, 139);
            text-anchor: middle;
        }
        text.value {
            fill: rgb(27, 14, 139);
            text-anchor: middle;
        }
        path {
            stroke: rgb(0, 0, 0);
        }
        .highlighted path {
            fill: var(--highlight-object-fill) !important;
        }
    
        [data-theme="dark"] {
            --highlight-value-text-color: #110875;
            --highlight-id-text-color: #6e4409;

            --fade-text-color: #BBBBBB;
            --hide-text-color: #121212;

            --highlight-box-fill: #EDB926;
            --highlight-box-line-color: #FFFFFF;

            --fade-box-fill: #2C2C2C;
            --fade-box-line-color: #666666;

            --hide-box-fill: #121212;

            --highlight-object-fill: rgba(72, 207, 173, 0.3);
        }
        [data-theme="dark"] text.default,
        [data-theme="dark"] text.variable {
            fill: rgb(224, 224, 224);
        }
        [data-theme="dark"] text.attribute,
        [data-theme="dark"] text.type,
        [data-theme="dark"] text.value {
            fill: rgb(144, 164, 237);
        }
        [data-theme="dark"] text.id {
            fill: rgb(255, 183, 77);
        }
        [data-theme="dark"] path {
            stroke: rgb(204, 204, 204);
        }
</style><g role="graphics-object"><title>Int id19 with value 124</title><g id="object-0"><path d="M50.28011276495848 26.2675541328975 L250.83281515118287 23.73740782474346 L251.2411772405201 155.8153845452612 L49.410274090259115 153.73167598385123" stroke="none" stroke-width="0" fill="none"/><path d="M50.325437211667605 24.231896637378135 C104.87265339173473 25.63959713893346, 163.25280494410782 24.65705244615689, 249.28777541946673 24.42419671673892 M50.654147493053344 25.65947350010342 C97.80803305210941 26.809748744589196, 146.99671667286 26.167182690825985, 249.64724322925642 25.69355392305069 M248.0535058218421 24.739631538499147 C248.06891731418955 53.989291422997724, 251.07071306789354 82.39705718856987, 250.77465381208648 155.6607559487942 M250.56223514393506 24.080035494816215 C248.75909567100476 60.570145013251796, 249.2846649591634 96.66146533819592, 249.65799710477555 155.79181447337533 M250.05433085986553 156.09964680461863 C192.85264095807935 155.4782197299594, 132.03063575105602 156.80536787428304, 49.28984137298419 155.69292718316566 M250.31219075605856 154.6522702359947 C181.28965916118415 155.66488745837927, 110.63432722694895 156.92629023977054, 49.71890190367461 154.1332839273966 M50.17951844760833 153.57117873943452 C48.21160876186856 119.55649267539411, 49.064466695714785 84.95077054332302, 48.302568056013975 23.93841629952279 M49.57256550729948 154.71169340128628 C49.76089390144589 117.50665065534984, 47.998222036825645 78.95273331591602, 49.92088054916746 25.872205758195864" stroke="rgb(0, 0, 0)" stroke-width="1" fill="none"/></g><g><path d="M43.4841327451878 20.427917652429013 L254.5275662622653 18.99735618653698 L255.54298078425265 161.9227784389686 L44.75146408723547 162.93032595622395" stroke="none" stroke-width="0" fill="none"/><path d="M45.60653573446344 19.699782626081337 C95.3128461595504 20.328466936379233, 146.1747334130939 20.516781283023185, 257.23314153134766 17.353428439835678 M44.36394824103313 18.69383862524362 C93.09439393799424 18.243829161811558, 141.0663456184852 17.961004644768558, 256.557558923871 19.536144565053203 M255.5332329338301 19.912337084488893 C254.958353185992 61.712022057227344, 254.9235245615756 101.78360617732498, 255.6847824762938 160.6317858508118 M256.66948433084474 19.679174390045862 C256.35322449659054 63.78923406320446, 256.2229913444471 107.33783571982596, 255.1575029203031 160.51124295072512 M255.55589753915885 162.11931316825903 C190.2266589841978 163.23101818089734, 126.04639872741868 161.38083944638763, 43.45991223209601 160.36394949038478 M255.3245961533457 161.2557819682322 C209.72131692779712 161.44470063762776, 164.05173126447352 160.3749171310647, 43.864302394588414 161.7193640185085 M42.00689994446551 159.81657471578916 C44.47679099388328 120.80472533578953, 45.16855122073611 79.85897690761924, 42.40326008522589 17.373479474136605 M43.66108133891539 161.54041535304881 C43.14422556420896 118.15428125892217, 43.188022490970575 75.47132987364992, 43.90042841387496 19.70157780748103" stroke="rgb(0, 0, 0)" stroke-width="1" fill="none"/></g><text x="150" y="115" class="value">124</text><g><path d="M48.58284953427997 25.38230845116489 L110.27881678358725 25.602245657040218 L108.22470389529568 76.82160203996892 L48.102194779541904 74.58081655055217" stroke="none" stroke-width="0" fill="none"/><path d="M49.701331473068144 23.02698118950236 C67.29067523601832 22.990295173427228, 84.03307028145277 24.736268458174834, 110.30098927618546 23.59354314910059 M49.15961960792701 25.884220993484057 C72.58026832709 25.74210309692834, 95.25291820354629 25.80830425870434, 110.83215615771071 25.766333768599385 M108.26366391773529 23.71536136851534 C109.77513804562217 39.63316333053374, 112.10840867981584 56.867800993813695, 108.03318433869275 73.54955259862831 M109.31599180512751 24.48273878973881 C111.05608343828882 40.052090720361115, 109.53586097309667 56.46696008355633, 110.40141983091931 74.06144807374415 M109.09922152230358 75.8478667630481 C94.45303640310628 76.21144365471397, 81.5386029906985 75.18133353024938, 50.65918239341247 74.5039941127354 M109.40952751606322 75.75017131254845 C98.7702377809171 74.55706820218788, 86.55639764912242 74.68139406413887, 49.42583270697338 75.46558511774822 M49.82666729322679 74.5878367450321 C49.9321675790792 55.462678136116644, 50.02966977476515 37.52067978232858, 50.46764458613536 25.855685217393184 M50.97032416483773 75.80533536331275 C50.403218065776784 61.494967775872524, 50.94823778957779 46.74428662442899, 49.80978622192744 24.655684015264214" stroke="rgb(0, 0, 0)" stroke-width="1" fill="none"/></g><g><path d="M191.13203589650675 26.5554109046174 L249.18623131527966 23.85330945064311 L249.6381411955288 76.23445967080343 L191.71239532950574 73.13422306255633" stroke="none" stroke-width="0" fill="none"/><path d="M191.03473005305798 25.431730732458426 C208.65314762192358 24.9561198091918, 225.80263846062735 23.35211656886453, 251.3197407945721 23.527727524121282 M190.48806214207787 24.42298668778717 C212.2909410388024 25.325878592459567, 237.04274501518339 24.89566212634599, 249.16853918221662 24.29911312640738 M250.99625605367712 24.60462955113534 C250.21135174532526 36.473028333500174, 250.22512953708045 48.771766577381634, 250.5405635166877 73.11904072572229 M250.73764699832327 24.988932733472872 C249.22775507348112 44.77853878305328, 248.97928503543886 63.78563518190346, 250.02154964831263 74.32827352293266 M251.26469108082526 75.95659733368615 C237.89984275344182 73.26169529315533, 219.94647399475198 74.21248757935058, 189.52359971923065 75.3510320881976 M249.05397642303714 74.68911216348596 C236.08094555756432 75.15937508422616, 222.28443567977627 74.98647248959347, 189.9930396972511 75.81704111052139 M189.87526543480743 74.96834153471792 C191.43807042677184 59.19163161236116, 190.89210614774007 41.1624561560145, 190.8464591866604 25.866334382780504 M190.32194925258122 74.48998128545739 C190.51485308875598 62.131791250494494, 190.35258460960577 47.400506716025106, 190.35360647453143 24.47746032183172" stroke="rgb(0, 0, 0)" stroke-width="1" fill="none"/></g><text x="80" y="55" class="id">id19</text><text x="220" y="55" class="type">int</text></g></svg>