<svg width="287" height="217" xmlns="http://www.w3.org/2000/svg"><title>Python memory model diagram showing objects</title><style>
        :root {
        --fade-text-color: rgb(0, 0, 0);
        --hide-text-color: white;

        --highlight-value-text-color: rgb(27, 14, 139);
        --highlight-id-text-color: rgb(150, 100, 28);

        --highlight-box-fill: yellow;
        --highlight-box-line-color: rgb(0, 0, 0);

        --fade-box-fill: rgb(247, 247, 247);
        --fade-box-line-color: gray;

        --hide-box-fill: white;

        --primitive-value-color: rgb(27, 14, 139);
        --id-text-color: rgb(150, 100, 28);
        --default-font-size: 20px;

        --highlight-object-fill: rgba(255, 255, 0, 0.6);
    }

        text {
            font-family: Consolas, Courier;
            font-size: 20px;
        }
        text.default {
            fill: rgb(0, 0, 0);
            text-anchor: middle;
        }
        text.attribute {
            fill: rgb(27, 14, 139);
            text-anchor: start;
        }
        text.variable {
            fill: rgb(0, 0, 0);
            text-anchor: start;
        }
        text.id {
            cursor: auto;
            fill: rgb(150, 100, 28);
            text-anchor: middle;
        }
        text.type {
            fill: rgb(27, 14, 139);
            text-anchor: middle;
        }
        text.value {
            fill: rgb(27, 14, 139);
            text-anchor: middle;
        }
        path {
            stroke: rgb(0, 0, 0);
        }
        .highlighted path {
            fill: var(--highlight-object-fill) !important;
        }
    </style><g role="graphics-object"><title>Int id19 with value </title><g id="object-0"><path d="M51.40921568609544 25.230017831320406 L250.61728761165807 24.903577478465117 L250.54446386648866 156.58632242407782 L51.59092361211976 153.98922979663226" stroke="none" stroke-width="0" fill="none"/><path d="M49.43799602218247 23.89910481897448 C123.40549667470593 23.936660581875756, 198.98695441439543 23.868720199833206, 250.86559194352066 23.49215141175533 M49.830035417573065 25.793422662091825 C111.16808028019705 23.978553957038937, 173.0365409508293 23.94227390298859, 250.05407894598997 25.245257106050524 M249.44416311647507 26.90383232477029 C250.6901830333032 51.11510606707837, 251.92679769509624 79.62060567861485, 249.45569663792543 155.98981832888293 M249.92720197242105 25.40597059097126 C249.56855916988187 70.12447577817188, 249.17227943248216 116.75359879454649, 249.10504975432988 155.13844832710237 M250.29228109280172 156.31423973680415 C191.93557812304658 155.3363605709566, 133.27645484966493 153.18966459653475, 51.274864687802854 155.12335590186603 M249.42636235944224 154.310590565975 C187.3804812369551 155.18041972186228, 125.76446559169446 155.28007319228803, 50.584911177224434 154.95059998356578 M50.779450154414135 155.5559024475615 C49.19122972177418 119.79973621614376, 51.17811396200405 82.61086970508032, 49.77279197153888 26.36394467349016 M50.65238664761329 155.68358784725666 C51.776378885218826 122.15915512810597, 50.61383732514915 86.57430078024089, 50.33403008651088 24.112577800391406" stroke="rgb(0, 0, 0)" stroke-width="1" fill="none"/></g><g><path d="M44.88492210141909 17.21542342086879 L257.20632384787217 20.671710092576056 L255.94803779459886 161.17716460866393 L44.14249729904156 159.96522200024782" stroke="none" stroke-width="0" fill="none"/><path d="M42.60384261568324 17.635644592547916 C116.29889016341261 18.648004604837706, 190.86239477148908 17.51264670781573, 254.35785783703855 18.89252462894415 M43.25447687510598 18.337439546242987 C96.80867020661547 20.56107804788419, 149.52008837624533 20.20851645136497, 256.21324863858285 19.64368067030529 M254.40953862749498 18.69929104796259 C256.9231829838868 57.12307623150995, 256.4857781388009 97.76473056867832, 254.74234698671802 162.24311019434316 M256.84371540016815 18.417177518719658 C256.7856371322194 63.689692198826855, 255.80150451955555 108.2871092158438, 256.65186847500144 161.1503006147387 M257.50554337325724 160.21045630018074 C186.47213365319365 162.51736459455472, 118.36605156325712 159.22679898059656, 43.20439471631733 160.59114802149563 M256.311347260364 161.53639914585153 C206.3436883599537 160.00698717697512, 157.404582089319 160.66001684009956, 43.83154363303494 161.6579630620725 M44.66845299998148 162.3722816885353 C44.98775164073642 107.58224679668744, 44.2949861029328 56.99540618754148, 44.531670094033764 19.689930876906303 M43.298051998703215 161.5098896882672 C45.48768217171395 127.14326075777444, 45.541773705294304 92.69369627546799, 44.01586089560987 18.226751026378118" stroke="rgb(0, 0, 0)" stroke-width="1" fill="none"/></g><g><path d="M51.07937463555419 23.864523873924604 L111.86309672423981 26.00503587765172 L109.41029044459223 75.48973656683773 L50.24053015269831 76.48247137447308" stroke="none" stroke-width="0" fill="none"/><path d="M51.30746168426445 26.151817516714573 C73.3588165533664 26.751876531127966, 96.65170726160054 23.260696988685893, 108.53565863259371 25.140523742902634 M50.78684553385691 24.489374835072397 C69.19743823858784 24.973911299933174, 86.32710092261974 26.474266316410137, 110.77027870626571 25.83805035196086 M111.68632529912722 24.955942520276132 C109.4571233173448 40.99393278138018, 111.7521318488085 61.577509517009624, 108.28124785305694 76.64236273188695 M109.5207416314908 24.722754190524 C109.47446323536866 43.94667861005761, 110.59040057382954 63.02743487486795, 109.73312827816221 74.93208582703006 M108.02793581903559 76.77029664619656 C94.07654577898809 74.06611716655115, 76.5328528616754 74.4001727645564, 49.657279619350426 75.2542647234564 M109.55596770964632 74.68629015057768 C88.62761479915763 74.45537408728474, 67.32252347671628 75.01317533570491, 50.38068710605396 74.99332135393212 M51.010326902063554 75.55226655157334 C49.69369503264801 62.31820866439447, 49.58896335729651 45.13778323212406, 50.834062905004586 25.410510272224695 M50.017183473902726 75.09179119648473 C50.720688323621296 65.08034034600512, 51.05691555328273 53.92630516563443, 49.773834636910536 24.085068327816188" stroke="rgb(0, 0, 0)" stroke-width="1" fill="none"/><text x="80" y="55" class="id" aria-describedby="desc-0">id19<title id="desc-0">Object id: id19</title></text></g><g><path d="M188.99856297692637 25.692376744599414 L248.57674680521225 25.764443025534426 L250.06365969793487 75.28086549979375 L190.85779792638326 74.84355083645792" stroke="none" stroke-width="0" fill="none"/><path d="M189.04328029062094 23.169972520528596 C204.62791580824725 24.065712531653027, 217.94246858991517 23.66668005412884, 249.45858232707334 26.742631720353717 M190.38732143720293 24.17332470144554 C211.67004171500886 23.613070601109175, 230.88081971186665 25.313634945716057, 249.3391048612462 25.030034890579092 M250.1014069512403 26.920419938741468 C249.00256321006287 40.46836881646324, 249.09608039789347 61.035723415157754, 248.25903121454417 74.61322075831637 M249.36916329891915 25.147353904652757 C249.37742584431442 42.320427484562565, 249.21656692755656 59.70526886122908, 249.33689408354573 74.71423754811005 M250.91325855008893 73.83433428794457 C227.85219924713132 73.33729000604565, 202.90415435269725 74.21532634086064, 191.41209776275528 76.06953204872843 M249.15419906757364 75.71134046675013 C231.37118102970058 75.4816005456523, 211.56789461083156 75.17671509482031, 189.00102686043508 75.74133742369554 M191.05654376536128 73.67160043386235 C188.44506311353425 66.04508489902476, 188.4590664595715 55.22053480862485, 190.1892964839711 23.02565542030865 M190.3127871662773 75.33440610583433 C190.57685544411672 56.33093418222241, 191.11976607974418 38.276608336350584, 190.39065899002614 25.671569725358797" stroke="rgb(0, 0, 0)" stroke-width="1" fill="none"/><text x="220" y="55" class="type" aria-describedby="desc-1">int<title id="desc-1">Object type: int</title></text></g><text x="150" y="115" class="value" aria-label="blank entry"></text></g></svg>