<svg data-theme="dark" width="287" height="217" xmlns="http://www.w3.org/2000/svg"><title>Python memory model diagram showing objects</title><style>
        :root {
        --fade-text-color: rgb(0, 0, 0);
        --hide-text-color: white;

        --highlight-value-text-color: rgb(27, 14, 139);
        --highlight-id-text-color: rgb(150, 100, 28);

        --highlight-box-fill: yellow;
        --highlight-box-line-color: rgb(0, 0, 0);

        --fade-box-fill: rgb(247, 247, 247);
        --fade-box-line-color: gray;

        --hide-box-fill: white;

        --primitive-value-color: rgb(27, 14, 139);
        --id-text-color: rgb(150, 100, 28);
        --default-font-size: 20px;

        --highlight-object-fill: rgba(255, 255, 0, 0.6);
    }

        text {
            font-family: Consolas, Courier;
            font-size: 20px;
        }
        text.default {
            fill: rgb(0, 0, 0);
            text-anchor: middle;
        }
        text.attribute {
            fill: rgb(27, 14, 139);
            text-anchor: start;
        }
        text.variable {
            fill: rgb(0, 0, 0);
            text-anchor: start;
        }
        text.id {
            cursor: auto;
            fill: rgb(150, 100, 28);
            text-anchor: middle;
        }
        text.type {
            fill: rgb(27, 14, 139);
            text-anchor: middle;
        }
        text.value {
            fill: rgb(27, 14, 139);
            text-anchor: middle;
        }
        path {
            stroke: rgb(0, 0, 0);
        }
        .highlighted path {
            fill: var(--highlight-object-fill) !important;
        }
    
        [data-theme="dark"] {
            --highlight-value-text-color: #110875;
            --highlight-id-text-color: #6e4409;

            --fade-text-color: #BBBBBB;
            --hide-text-color: #121212;

            --highlight-box-fill: #EDB926;
            --highlight-box-line-color: #FFFFFF;

            --fade-box-fill: #2C2C2C;
            --fade-box-line-color: #666666;

            --hide-box-fill: #121212;

            --highlight-object-fill: rgba(72, 207, 173, 0.3);
        }
        [data-theme="dark"] text.default,
        [data-theme="dark"] text.variable {
            fill: rgb(224, 224, 224);
        }
        [data-theme="dark"] text.attribute,
        [data-theme="dark"] text.type,
        [data-theme="dark"] text.value {
            fill: rgb(144, 164, 237);
        }
        [data-theme="dark"] text.id {
            fill: rgb(255, 183, 77);
        }
        [data-theme="dark"] path {
            stroke: rgb(204, 204, 204);
        }
</style><g role="graphics-object"><title>Int id19 with value 124</title><g id="object-0"><path d="M50.11222149533722 26.9214398576367 L249.6203990474086 25.199424776360907 L249.61181428342016 155.4665973004328 L50.26915951773732 153.87270795413605" stroke="none" stroke-width="0" fill="none"/><path d="M48.66687284480737 23.483204463228866 C110.20597069908486 26.035108708379347, 170.76685634762367 27.577351297358803, 249.80211223209534 26.311575751334516 M50.086358241053055 25.305661500434706 C103.72402834830993 23.462849979411715, 157.02350024852075 23.97842093689864, 249.54975629441844 25.890306395500513 M248.01170641093705 23.928299035135776 C248.85638176176744 73.60057245096172, 247.78348676709356 123.57501114914369, 250.9452596475043 154.78016538887925 M249.8657339243116 24.843203165044113 C249.4080292443522 51.811320183937035, 249.06711003680385 79.91685454820673, 250.46132280597666 154.29895124652532 M248.63469700479362 153.2687224485904 C210.1533058043375 153.0821451636202, 167.53826829626277 154.8644584529919, 51.70893334458869 154.64921976190587 M249.5175688138121 154.93308542026458 C205.0376520155945 154.1111258288993, 161.0774870163526 154.5802139596929, 50.037721628008626 155.352562985059 M51.61172567722859 153.03607292751732 C50.48566536753983 123.97846424578105, 48.728083405241364 95.51929092551224, 49.80159256287786 23.412817022570387 M49.8444362854553 154.5963677243591 C49.043117313727684 115.64248285891273, 49.79631229735738 74.87412339634768, 49.021860540924166 24.104942676052385" stroke="rgb(0, 0, 0)" stroke-width="1" fill="none"/></g><g><path d="M43.70061371081678 17.841305286919898 L255.60658848253195 17.85366029600746 L255.15144448309306 159.84079804059388 L42.89985002188757 159.61868675751657" stroke="none" stroke-width="0" fill="none"/><path d="M44.277264613013315 19.66787596418345 C123.70452192547528 17.753184043284936, 205.01917380916012 19.378112368186354, 254.9143066325979 19.56261787563194 M43.888631860278615 18.663458604122 C90.66564019936772 19.472975861356495, 137.16517764007975 18.231429044417723, 256.17935588354806 19.85781548110891 M256.5430875071563 18.959103781094075 C255.44514888026487 54.238835272447616, 256.3324758731159 89.42542988976433, 257.21365760956826 161.03374861231595 M255.97602314319468 19.342266182758358 C254.9537715588632 60.9669085608813, 254.92396427749247 102.35563325528355, 255.77062981480663 161.52910419544102 M256.2949793275525 161.5534923038829 C173.06186785687825 163.65363923233102, 91.35819147392209 163.4409169978746, 45.61875926568253 162.08498767927773 M255.76923936617936 160.64334262969123 C184.15593649904693 162.5082571840017, 110.83359706506731 162.39853588236844, 43.24593814637928 161.500133943183 M43.885830121235145 162.73297172406592 C44.995747902203654 113.34914439409458, 44.58991644555607 66.09445272409002, 44.382610004156824 18.22605449625361 M44.91006809804776 161.83331228964664 C43.51482566390743 117.56573423434321, 42.3893111877436 75.22261927319823, 43.66106028925349 18.57548537447188" stroke="rgb(0, 0, 0)" stroke-width="1" fill="none"/></g><g><path d="M51.86608544368333 25.223466446904872 L109.26861341309625 24.4520857400723 L109.75243544201611 76.09169717336285 L50.264307091154755 74.89232023840195" stroke="none" stroke-width="0" fill="none"/><path d="M50.59533021934101 24.18726510615071 C68.35944390848711 23.5577204287931, 89.37940033888141 26.76155676324789, 108.31737957818339 26.274168592666967 M49.05568354476237 25.543912628980596 C63.99384060519406 24.7906913400087, 80.55988824181236 25.129719111219448, 110.33995035221248 25.145572041599312 M110.7427773335592 24.581734425578887 C108.78804807339239 43.2893788632105, 107.97484968303623 59.60150820955117, 108.2970223485968 73.13496022882902 M110.4511148186975 25.747062776719577 C109.8116783041991 40.88573664668594, 109.78076256002649 57.039014880645794, 109.34938146812964 75.7448864800651 M109.80221459953314 76.34041168666678 C90.52332018991872 75.67460759151962, 69.50941861508812 75.17819799023094, 48.68071231308039 73.55658982450652 M109.3145385527447 74.92684505240538 C97.03667367135822 76.17584855477166, 83.70297976847576 75.32184970949156, 50.26369116930837 74.10643042116361 M48.00931362042372 73.4198107201651 C49.42907115146133 55.78183901368277, 50.02021241695829 38.218521475756425, 49.094872664956014 25.28345985804804 M49.562791761700424 74.14206354877548 C49.81003234716001 59.007641669349105, 49.75273407437978 44.77660257057986, 49.558060140124574 24.765817087919437" stroke="rgb(0, 0, 0)" stroke-width="1" fill="none"/><text x="80" y="55" class="id" aria-describedby="desc-0">id19<title id="desc-0">Object id: id19</title></text></g><g><path d="M191.35829593457044 26.333617079995324 L249.52713889264157 23.07787212751915 L251.95940522874048 75.24214194506938 L189.65676169110517 73.6066893407019" stroke="none" stroke-width="0" fill="none"/><path d="M188.08771512698402 24.884676076824697 C201.00118021709613 23.91697048525011, 215.36211596044728 26.07818281575051, 249.04858126460545 24.275483440915316 M189.02616380337525 24.381114693351016 C208.9867001497108 24.39908678894969, 227.2054935306338 24.701387186051974, 249.04028452432988 25.94927941968062 M248.4922905866244 23.26273309789898 C249.08553187311688 45.77518331507217, 251.51867698169414 64.71337693046054, 249.55026253689155 76.9836458153449 M250.85959784158416 25.920536590497754 C250.4356380043011 39.25709055776225, 249.4816158632582 52.777021537955775, 250.08724064633492 74.78845974321179 M251.1379818192286 75.56147530305584 C232.46675884315752 76.78824543990198, 211.58419224012212 74.83036374257937, 188.55306232803 76.96390993147332 M249.19179980434527 74.20959307519661 C237.72558168517537 74.75675209589922, 224.35851646978324 74.95307680143188, 190.5788819088622 75.54398314967402 M189.5582691786452 76.80559265851427 C188.49268975275115 62.75408594965303, 190.96216344659283 49.931287950319735, 189.6756598766155 23.519177200448514 M190.59810950351658 75.70482899243625 C190.36330625601423 63.89077204098168, 190.1650851598558 54.551270605623195, 189.79345538783295 25.45536591513629" stroke="rgb(0, 0, 0)" stroke-width="1" fill="none"/><text x="220" y="55" class="type" aria-describedby="desc-1">int<title id="desc-1">Object type: int</title></text></g><text x="150" y="115" class="value" aria-describedby="desc-2">124<title id="desc-2">Value: 124</title></text></g></svg>