<svg width="287" height="217" xmlns="http://www.w3.org/2000/svg"><style>
        :root {
        --fade-text-color: rgb(0, 0, 0);
        --hide-text-color: white;

        --highlight-value-text-color: rgb(27, 14, 139);
        --highlight-id-text-color: rgb(150, 100, 28);

        --highlight-box-fill: yellow;
        --highlight-box-line-color: rgb(0, 0, 0);

        --fade-box-fill: rgb(247, 247, 247);
        --fade-box-line-color: gray;

        --hide-box-fill: white;

        --primitive-value-color: rgb(27, 14, 139);
        --id-text-color: rgb(150, 100, 28);
        --default-font-size: 20px;

        --highlight-object-fill: rgba(255, 255, 0, 0.6);
    }

        text {
            font-family: Consolas, Courier;
            font-size: 20px;
        }
        text.default {
            fill: rgb(0, 0, 0);
            text-anchor: middle;
        }
        text.attribute {
            fill: rgb(27, 14, 139);
            text-anchor: start;
        }
        text.variable {
            fill: rgb(0, 0, 0);
            text-anchor: start;
        }
        text.id {
            cursor: auto;
            fill: rgb(150, 100, 28);
            text-anchor: middle;
        }
        text.type {
            fill: rgb(27, 14, 139);
            text-anchor: middle;
        }
        text.value {
            fill: rgb(27, 14, 139);
            text-anchor: middle;
        }
        path {
            stroke: rgb(0, 0, 0);
        }
        .highlighted path {
            fill: var(--highlight-object-fill) !important;
        }
    </style><g id="object-0"><path d="M49.463666979118116 25.98441864137785 L251.65877820648217 25.639583583507324 L250.85779473955134 156.97693294390714 L49.03317024278909 154.04127692848482" stroke="none" stroke-width="0" fill="none"/><path d="M51.73982784515372 23.79573140016777 C95.44432197536024 26.104474362274946, 136.5308909385047 24.086630978479292, 250.93203206162775 24.658456301089707 M49.47368084059484 24.48552748446867 C107.5084790937805 26.384598459174715, 164.09832804580344 27.395465477589934, 249.88412169090805 24.756684290833608 M251.5963168887186 23.242316742315737 C248.65221656037593 73.46136786287344, 247.0700555890705 117.79337196966348, 248.07749475113337 154.54772718101958 M249.84509322918638 24.765679545203984 C250.19222059386212 60.139174074208555, 249.36264475449073 96.54702701731618, 249.3490652529973 155.35540678144457 M249.9806360640641 155.24883542109953 C208.33726442087774 155.61692348765118, 168.96903829849245 156.869139959017, 49.76680969073039 155.22105270422648 M250.59991102785676 154.76642730188678 C170.78062444932218 155.01407214378898, 90.39025259774216 154.56503296793875, 49.78611354524832 154.98044962659597 M48.96750446038935 153.05025935798056 C50.434882285588436 111.62488181954889, 48.278962564927866 67.28799574559471, 51.5550957007604 26.011720083734918 M49.261422963354825 154.60619803559854 C48.48045305416857 119.86698012434132, 48.62830861111169 84.10994446094661, 49.212657562043354 24.8077810912688" stroke="rgb(0, 0, 0)" stroke-width="1" fill="none"/></g><g><path d="M44.92261159563047 20.26858633645884 L256.9797305251652 18.755437433445046 L256.26756638280744 161.55621588765376 L43.63914935733965 159.4144171811309" stroke="none" stroke-width="0" fill="none"/><path d="M44.196025078717604 18.602959961537945 C96.82260622499393 19.916401290374218, 149.32403011104597 17.848342697216648, 256.6637936801592 18.928904028839508 M44.78317051176782 18.75399393349122 C123.18396199125613 20.43878235222184, 201.2708314772018 20.210427501623705, 255.74054510434965 19.698355376007093 M255.86656387203533 17.251066868389213 C256.7797854533538 57.48980749479303, 255.7033108982383 93.91841895842455, 256.13920276432714 162.13884352278706 M256.2954717852256 18.668998449120046 C256.56526690531587 74.42458715473292, 256.35765705761054 132.27579911588978, 256.7463090663564 161.18861902361823 M256.76454430360474 161.25379733561485 C208.58729458360978 161.99531751383716, 163.35140391679877 160.6780087317349, 44.13284658939087 161.29096795855477 M255.44464001393476 161.44774562675624 C184.79175971577408 161.1160101384796, 111.60602347031194 160.48213056453923, 43.294021880236855 161.00094423998712 M43.00993247853198 162.47542802763485 C41.220134007137105 118.68832443460819, 41.4870608885203 73.8587000650174, 44.58270709513458 17.025788540390923 M44.83092194005531 161.10564020037768 C43.04275028336303 113.60412721283292, 44.085649976653656 67.26696812759474, 43.61388161011553 18.416842192763415" stroke="rgb(0, 0, 0)" stroke-width="1" fill="none"/></g><text x="150" y="115" class="value"></text><g><path d="M51.488698955653625 23.159952027931183 L110.50707743510381 24.15386242343741 L110.41246388071656 74.50680575486898 L49.44578869371616 76.21386763704014" stroke="none" stroke-width="0" fill="none"/><path d="M50.81096621847262 26.452018147904084 C70.42256027640494 23.289733609594414, 85.46974278860715 24.823959711413835, 110.15303235409357 26.75182341753086 M50.3374799513115 24.5107090601401 C69.29195493752412 24.245060266965982, 87.61336626106268 24.783526463578948, 110.51758742473632 24.891623513876755 M111.48750213986057 23.787324789646437 C111.08331785045688 35.49214642834132, 111.35077283247033 50.84556442970907, 109.26836024209257 75.13349438386254 M109.94945124263316 25.42298738363091 C110.5143737789706 36.03080123347218, 109.46883701888115 46.662833139444835, 110.97162100337849 74.78820392916812 M109.1191944830231 76.22552034533122 C93.49268556038776 76.86786983249402, 79.92431958924836 76.22683872455599, 48.989909384119144 73.22970133207993 M109.2473556843723 74.31535878985693 C97.3499672176784 74.35487844411892, 85.1625607528531 75.2628943092914, 49.22138417896307 75.91507417393474 M49.01677820246113 75.14812337968051 C51.584336381220105 66.22781423962878, 50.73708904778934 54.91259720445494, 48.91059024961828 26.16932494068098 M49.730159688620695 75.68171216246192 C49.17043704289164 56.72390187260942, 50.32937509791276 38.72985988397754, 49.52452376051016 24.768760181414322" stroke="rgb(0, 0, 0)" stroke-width="1" fill="none"/></g><g><path d="M190.83943579944437 26.011115889534633 L250.67186921823722 25.249990891127368 L249.76471821580367 75.01179623568731 L188.96309795524206 75.71744492749627" stroke="none" stroke-width="0" fill="none"/><path d="M191.2642076340926 24.0463645128928 C207.44928823322385 23.046890751598525, 221.01625066259805 25.55111799210132, 250.12970833457655 24.34403757522765 M189.0985587321136 24.075697072800033 C203.1893200573478 24.275815982508078, 217.80233276663637 25.74412984997952, 250.96604488158198 25.785470479773252 M250.84546490118478 23.370155283146605 C248.19788920037075 36.67360740053018, 249.03178824218264 48.92528134284326, 250.44267863129514 75.2640307808847 M250.86576795005854 24.114853415480592 C250.68727019676064 43.32767227391565, 249.56768621494496 63.968355322230714, 249.3234444995898 74.69735426640003 M251.25220424616217 76.90172169443852 C229.69803036130992 75.7063606364495, 211.77203804486203 73.96856573906054, 191.96163097853383 74.57650271309797 M249.0711002226023 74.18912997452011 C231.27529449419401 75.21285511614356, 210.15047433342383 74.70800863576595, 190.86088101188452 74.77484365654317 M191.61047873181744 75.35594393025984 C191.41068470583872 61.1516254482728, 191.5549390379523 43.34874169613454, 191.79532115283374 23.804338216874978 M189.57737251755955 75.49400462561245 C188.59689595107832 59.46156139252915, 189.57269664910183 44.59287954645552, 189.01758878880094 25.506346936662627" stroke="rgb(0, 0, 0)" stroke-width="1" fill="none"/></g><text x="80" y="55" class="id">id19</text><text x="220" y="55" class="type">int</text></svg>