<svg data-theme="dark" width="287" height="217" xmlns="http://www.w3.org/2000/svg"><title>Python memory model diagram showing objects</title><style>
        :root {
        --fade-text-color: rgb(0, 0, 0);
        --hide-text-color: white;

        --highlight-value-text-color: rgb(27, 14, 139);
        --highlight-id-text-color: rgb(150, 100, 28);

        --highlight-box-fill: yellow;
        --highlight-box-line-color: rgb(0, 0, 0);

        --fade-box-fill: rgb(247, 247, 247);
        --fade-box-line-color: gray;

        --hide-box-fill: white;

        --primitive-value-color: rgb(27, 14, 139);
        --id-text-color: rgb(150, 100, 28);
        --default-font-size: 20px;

        --highlight-object-fill: rgba(255, 255, 0, 0.6);
    }

        text {
            font-family: Consolas, Courier;
            font-size: 20px;
        }
        text.default {
            fill: rgb(0, 0, 0);
            text-anchor: middle;
        }
        text.attribute {
            fill: rgb(27, 14, 139);
            text-anchor: start;
        }
        text.variable {
            fill: rgb(0, 0, 0);
            text-anchor: start;
        }
        text.id {
            cursor: auto;
            fill: rgb(150, 100, 28);
            text-anchor: middle;
        }
        text.type {
            fill: rgb(27, 14, 139);
            text-anchor: middle;
        }
        text.value {
            fill: rgb(27, 14, 139);
            text-anchor: middle;
        }
        path {
            stroke: rgb(0, 0, 0);
        }
        .highlighted path {
            fill: var(--highlight-object-fill) !important;
        }
    
        [data-theme="dark"] {
            --highlight-value-text-color: #110875;
            --highlight-id-text-color: #6e4409;

            --fade-text-color: #BBBBBB;
            --hide-text-color: #121212;

            --highlight-box-fill: #EDB926;
            --highlight-box-line-color: #FFFFFF;

            --fade-box-fill: #2C2C2C;
            --fade-box-line-color: #666666;

            --hide-box-fill: #121212;

            --highlight-object-fill: rgba(72, 207, 173, 0.3);
        }
        [data-theme="dark"] text.default,
        [data-theme="dark"] text.variable {
            fill: rgb(224, 224, 224);
        }
        [data-theme="dark"] text.attribute,
        [data-theme="dark"] text.type,
        [data-theme="dark"] text.value {
            fill: rgb(144, 164, 237);
        }
        [data-theme="dark"] text.id {
            fill: rgb(255, 183, 77);
        }
        [data-theme="dark"] path {
            stroke: rgb(204, 204, 204);
        }
</style><g role="graphics-object"><title>Int id19 with value 124</title><g id="object-0"><path d="M51.814782800301565 26.138065190497766 L248.61404757900146 25.272313831311305 L248.80953003080563 155.93050484580422 L50.704770634594794 153.0007296029684" stroke="none" stroke-width="0" fill="none"/><path d="M50.14442256074185 26.50069843942902 C118.23349710413716 24.57699314326042, 184.41375618244888 25.347633972402516, 251.77810672537905 23.960068954735338 M49.43925453321224 25.29207030332875 C110.53676843912639 27.201434593644088, 171.73458667065952 26.57569143099181, 250.10604478236192 25.7837345212424 M249.0104183966956 24.792292192777058 C251.67374682085187 66.24361400631251, 249.12412027980548 108.08618231842414, 249.86064044675226 156.74938395715833 M249.52992428837265 25.984212863023043 C250.01005544657573 56.98020139844168, 250.09690667977424 88.27269277340042, 250.68414111678277 154.33158813744376 M249.49366825240742 153.56639844912084 C191.9997565140241 155.26568460861654, 135.52533474512904 153.30147047567405, 48.890648558591664 154.59211873744104 M249.31710672347157 154.32764481002664 C198.3344074566396 152.84238360507265, 146.54416396935017 153.72961435745574, 50.494299801534694 155.56764598212547 M48.84816384958308 156.55373060718767 C51.02598193803828 114.18569454482409, 50.35669717931655 73.02769994326873, 50.09464650804003 23.509900282667218 M50.592618773594545 154.71255806029325 C50.54314777748129 122.23701917509499, 51.87455528508161 88.47897037122132, 49.199187736386634 25.09618299766956" stroke="rgb(0, 0, 0)" stroke-width="1" fill="none"/></g><g><path d="M44.73225818135337 20.344429872559985 L257.1413205598741 17.102583932813715 L256.071766039447 159.09646154226542 L42.856792309192876 160.5981580441722" stroke="none" stroke-width="0" fill="none"/><path d="M44.94109768519183 18.175803189641577 C101.10091177069012 17.870581206667126, 157.0267452684416 16.404111891353377, 255.1530697641306 19.17826039326954 M43.42127189632076 18.514131401014104 C99.90029590523321 17.877420851159854, 154.04659209916971 17.642859911706935, 256.0512625907575 19.096841257863794 M254.45960340761576 20.574069134007274 C255.44983331464906 51.2897765758767, 258.0948754127325 82.9785108474489, 254.02946149415192 162.74609151424724 M256.6248761391469 19.884807624820418 C256.4217646674966 66.53587275755844, 256.6424291285926 113.08269562443016, 256.4601705568283 161.9931994302054 M255.5128166585429 161.65998736021203 C176.4013047643379 163.11406671167072, 96.21827827457254 163.52228374647797, 44.98993088553433 162.03709791069423 M255.31880637629155 161.56501924416605 C173.05323438954554 162.96186678837338, 90.50015027045278 161.3201410612755, 43.23432634648864 160.4831670066294 M42.288572090003925 159.79210503666783 C44.008150516231986 111.18733794440897, 46.55185887070664 59.81506465288797, 43.95585253562958 18.401978259641336 M43.57820142415157 160.77169870219612 C44.89960677700735 116.54169714567355, 45.32610598209133 73.2064719864705, 44.315506920937295 19.399272887564774" stroke="rgb(0, 0, 0)" stroke-width="1" fill="none"/></g><text x="150" y="115" class="value">124</text><g><path d="M51.055323728769245 26.98861006521711 L111.15493152504098 23.767096533840277 L108.52988235858771 76.8031963772815 L50.05313840864215 74.94424965313833" stroke="none" stroke-width="0" fill="none"/><path d="M49.61523407492488 25.42864933431379 C75.72011651892385 26.092519699443162, 97.9776188506143 25.634298203816538, 108.98174011277857 23.933407107315862 M49.637946105005 24.151153194347614 C70.52018322396314 25.811531786635133, 89.91453418631777 24.472286518284783, 110.7471807271335 25.884062798901017 M108.04731959092744 24.259999266263662 C112.25519151405307 36.402682823274965, 110.38065621987565 45.383740927347816, 110.02417841293344 73.00559077782083 M109.37465225216822 25.72612573090482 C109.24829318850611 40.83781196382993, 109.62970054828304 57.11360768337577, 109.22481090456769 74.87000825128746 M111.36162155131993 74.46367745875067 C94.95686727114364 76.96815020476492, 77.97696983055306 76.61163553419979, 50.331057398686774 75.47566076199176 M109.8824278014952 75.73544550715818 C97.55888932838567 75.83728355706808, 86.44129058464249 75.11657878636628, 49.88565718783665 75.88567362156812 M48.821573790827564 75.58481374338993 C49.207626903831944 63.84524448668117, 49.25708913179039 51.37447391367489, 51.94608656737127 24.469670485700572 M50.38553935467338 74.53752970319312 C49.60209034554227 58.99752852373433, 49.24955359023086 42.03098071911632, 49.3178237925117 25.371960977482352" stroke="rgb(0, 0, 0)" stroke-width="1" fill="none"/></g><g><path d="M191.7754721640001 26.93128754934878 L249.85618709947911 25.284483014411688 L250.04245586373753 73.61168776387458 L191.57762539647226 76.65457590336722" stroke="none" stroke-width="0" fill="none"/><path d="M189.60640677313287 26.159697813500298 C205.82281225305744 26.87475987535239, 225.40326960018115 25.746449036950494, 248.5935235575902 24.47765726172468 M190.9297267349311 25.235975864161862 C212.8513206252125 23.73045448686126, 237.11540767741081 23.567915949779334, 249.29875720337648 25.45570554311537 M249.10805069195695 26.234617306681983 C250.02142893515267 38.7089881405518, 248.73107384634284 49.93650740664207, 250.50377050255415 75.4165558229752 M249.2247868578346 24.92421348947559 C250.12336457563472 37.90972452183178, 250.7589004232739 53.33077095159501, 250.49782841491066 74.47547327564006 M251.54965206427391 76.27448294429024 C237.0499295143 74.35488666969094, 222.4510492437503 73.31284419173782, 190.9612308266831 74.76895805041801 M249.474008693217 75.18545551059687 C227.87513718987293 73.96057847508742, 205.089691661752 74.29651303098078, 189.40210384384702 75.6693799184977 M188.92041616717245 76.56888066460758 C190.20741579379225 64.73199697707211, 191.20345204169791 51.26204270826919, 190.4351999174406 24.074383070233544 M190.18915139719232 74.82935180818659 C190.5632998458551 64.75644578688843, 189.8616227974392 53.038724201111584, 190.1212424130289 25.01414048070541" stroke="rgb(0, 0, 0)" stroke-width="1" fill="none"/></g><text x="80" y="55" class="id">id19</text><text x="220" y="55" class="type">int</text></g></svg>