<svg data-theme="dark" width="287" height="217" xmlns="http://www.w3.org/2000/svg"><title>Python memory model diagram showing objects</title><style>
        :root {
        --fade-text-color: rgb(0, 0, 0);
        --hide-text-color: white;

        --highlight-value-text-color: rgb(27, 14, 139);
        --highlight-id-text-color: rgb(150, 100, 28);

        --highlight-box-fill: yellow;
        --highlight-box-line-color: rgb(0, 0, 0);

        --fade-box-fill: rgb(247, 247, 247);
        --fade-box-line-color: gray;

        --hide-box-fill: white;

        --primitive-value-color: rgb(27, 14, 139);
        --id-text-color: rgb(150, 100, 28);
        --default-font-size: 20px;

        --highlight-object-fill: rgba(255, 255, 0, 0.6);
    }

        text {
            font-family: Consolas, Courier;
            font-size: 20px;
        }
        text.default {
            fill: rgb(0, 0, 0);
            text-anchor: middle;
        }
        text.attribute {
            fill: rgb(27, 14, 139);
            text-anchor: start;
        }
        text.variable {
            fill: rgb(0, 0, 0);
            text-anchor: start;
        }
        text.id {
            cursor: auto;
            fill: rgb(150, 100, 28);
            text-anchor: middle;
        }
        text.type {
            fill: rgb(27, 14, 139);
            text-anchor: middle;
        }
        text.value {
            fill: rgb(27, 14, 139);
            text-anchor: middle;
        }
        path {
            stroke: rgb(0, 0, 0);
        }
        .highlighted path {
            fill: var(--highlight-object-fill) !important;
        }
    
        [data-theme="dark"] {
            --highlight-value-text-color: #110875;
            --highlight-id-text-color: #6e4409;

            --fade-text-color: #BBBBBB;
            --hide-text-color: #121212;

            --highlight-box-fill: #EDB926;
            --highlight-box-line-color: #FFFFFF;

            --fade-box-fill: #2C2C2C;
            --fade-box-line-color: #666666;

            --hide-box-fill: #121212;

            --highlight-object-fill: rgba(72, 207, 173, 0.3);
        }
        [data-theme="dark"] text.default,
        [data-theme="dark"] text.variable {
            fill: rgb(224, 224, 224);
        }
        [data-theme="dark"] text.attribute,
        [data-theme="dark"] text.type,
        [data-theme="dark"] text.value {
            fill: rgb(144, 164, 237);
        }
        [data-theme="dark"] text.id {
            fill: rgb(255, 183, 77);
        }
        [data-theme="dark"] path {
            stroke: rgb(204, 204, 204);
        }
</style><g role="graphics-object"><title>Int id19 with value 124</title><g id="object-0"><path d="M50.084264726342965 24.640656541325953 L249.84528713391987 23.682747938986736 L250.38182343127067 153.42006953293358 L49.8153672043925 153.3827245062142" stroke="none" stroke-width="0" fill="none"/><path d="M50.497038459706374 25.15962540743067 C131.55227852427532 25.515806992918723, 211.14088929114638 22.81886481843129, 249.66532134594235 26.04571312529344 M50.52442009981368 25.1860144484841 C109.85158073801695 24.491515589293414, 170.78511988349936 26.132314238262246, 250.55773643775984 24.500825309383206 M248.02245296004546 25.068460818612007 C250.24664710734 59.002549333444364, 251.5754907319973 94.15030384678215, 250.28272681722197 154.6401779985979 M249.33352248221303 24.550563376995996 C250.35867886319994 58.872666510524084, 251.29998164152983 92.08284521056595, 250.2272243824655 154.7575768372805 M249.32145306280546 155.30562974520456 C195.22189096152732 156.90334204058493, 141.8908983102788 157.1630501898214, 49.38450752403656 154.19350746809738 M250.48975718270373 154.8730379703642 C170.60346164311525 154.55375992437132, 92.23736717841442 154.0763479496904, 49.288800730289665 155.66968189536246 M50.06451614451921 155.02833168512132 C48.53643145773084 117.18787052624431, 49.50347928551636 82.44060689441872, 50.240074300619604 26.8168205887353 M50.77702594932731 155.3015767459155 C51.139766675547015 109.0184655039182, 50.3208378426606 62.26663358315582, 50.4757502416897 25.57796880201622" stroke="rgb(0, 0, 0)" stroke-width="1" fill="none"/></g><g><path d="M45.42226507255353 19.69637040297624 L257.406933631022 19.771220579291835 L256.1905526656385 161.8344338090314 L43.198469858434486 159.9087814166988" stroke="none" stroke-width="0" fill="none"/><path d="M44.40200276837424 18.907464174308824 C105.58291645935199 19.06852470975096, 167.6885849489238 19.579687995332602, 255.34905635309934 18.561477596647066 M43.15163768595034 18.471017534507478 C94.84606745221389 17.617232197615767, 145.70635418236094 18.290592763802202, 256.73373676935233 18.97367437602989 M255.04618689983562 19.436357000093274 C257.06976912228106 62.39306893312247, 255.1558543849058 101.59647212983077, 256.1303852497947 162.60422909481915 M256.6744324565531 19.457422830639473 C253.93700004194082 51.792282424875374, 255.73277268070285 86.52613129020331, 256.9474978120421 161.96596357089297 M255.7369923735843 160.9688346189402 C174.84550511856077 161.65554867814828, 94.10971513337063 159.82689161263073, 42.290735976302436 159.8934522012131 M256.60407218380044 160.38924180259048 C177.2172706401838 160.93089022226312, 99.46117558841055 159.61579471120086, 43.33200723249565 161.0423018199596 M42.75277311021112 162.85203300459074 C42.29241180871206 130.3303466365383, 42.55786175293783 102.3495179086144, 43.60961473731671 19.807884694158528 M44.364190855223406 161.32925014621256 C43.68171961398239 113.11837490258621, 42.56374594247881 65.8885654939615, 43.40134500263248 19.771568304931343" stroke="rgb(0, 0, 0)" stroke-width="1" fill="none"/></g><text x="150" y="115" class="value">124</text><g><path d="M51.635263614140975 24.033709190928334 L110.18292671666964 24.261712359518043 L111.2123799745257 75.06521277319176 L51.003372448589005 74.82220086552756" stroke="none" stroke-width="0" fill="none"/><path d="M50.17848777898634 25.768967116820807 C72.93013020413669 25.942957274224575, 90.30747484675459 24.94712900942566, 109.26766007509069 23.595457020268583 M50.07265617750065 24.0858222929761 C67.22712204615173 25.90273877327516, 83.07793465913326 25.887437663613305, 109.02095873746362 25.845470248855467 M110.64369390371641 25.95422051660119 C108.17534366649969 43.65171320457806, 108.41813467647802 61.054366404486004, 108.23383669887863 74.79814255577165 M110.09848849496703 25.107049282721448 C109.89406521940495 37.74664817432655, 108.79555249335463 49.07888018641628, 109.51146865268446 74.41705467218128 M111.8381924795824 73.13519744970078 C95.19042567362895 74.75652459180655, 83.34783387745888 75.95082685351159, 50.76256275776616 76.29984982251229 M110.30615527663971 75.58874119230408 C85.79525421440214 76.19909271802345, 63.78793229328824 74.59374755514084, 50.14471460165832 75.7595166321658 M51.71525363186436 76.07051146489705 C49.480873587552715 61.39232187391927, 50.080243079510055 46.99140140939828, 51.130719936269095 23.380913203474044 M49.25079106997213 75.57576692861394 C50.54592376032371 65.21405880859959, 49.42516387629694 54.699385106239156, 49.67071241975486 25.801390524268513" stroke="rgb(0, 0, 0)" stroke-width="1" fill="none"/></g><g><path d="M188.3002211384999 24.605787832826238 L248.38814421956002 25.15313194667915 L251.275283456822 76.10205536867512 L189.19661157487596 76.3483325770797" stroke="none" stroke-width="0" fill="none"/><path d="M189.7074143991749 25.37883924864805 C202.222784813047 25.92323112371777, 214.95254782510105 25.68956888765367, 248.69446269055462 26.030319337756623 M189.16793419819834 25.944114792006424 C210.48266693619206 24.21894719192705, 230.48482352751898 25.822069369906018, 249.2354203325171 25.044103003688118 M251.76478432566284 26.085655707651924 C251.26397646112227 33.93120366812798, 250.1702805486521 43.84717064961556, 248.09622225052868 73.84547698879076 M249.33231029404132 24.48205183067612 C249.7245276253386 36.27658513437823, 250.54797629267404 46.323952198135906, 249.75927580185535 75.32332981896589 M250.36451051551512 75.37300271059406 C232.7797314406081 76.2412510888256, 217.56553371372814 76.2185052567007, 188.63966146606086 73.84309758618592 M249.78108792819077 74.64682524077101 C233.03536083331844 74.3061076879992, 214.93597197990107 74.81116725626339, 189.4642217659948 75.06565781336246 M190.78264659588893 75.64189821681197 C191.34600743338638 58.69154630911671, 190.02925394250997 43.355033051125325, 188.8646956799688 24.809552793023396 M190.18051913003342 75.6227540918 C189.78121126544843 55.53239521277614, 190.03203829061732 37.4593994727506, 189.13186922139263 24.747878461006724" stroke="rgb(0, 0, 0)" stroke-width="1" fill="none"/></g><text x="80" y="55" class="id">id19</text><text x="220" y="55" class="type">int</text></g></svg>