<svg width="262" height="217" xmlns="http://www.w3.org/2000/svg"><title>Python memory model diagram showing objects</title><style>
        :root {
        --fade-text-color: rgb(0, 0, 0);
        --hide-text-color: white;

        --highlight-value-text-color: rgb(27, 14, 139);
        --highlight-id-text-color: rgb(150, 100, 28);

        --highlight-box-fill: yellow;
        --highlight-box-line-color: rgb(0, 0, 0);

        --fade-box-fill: rgb(247, 247, 247);
        --fade-box-line-color: gray;

        --hide-box-fill: white;

        --primitive-value-color: rgb(27, 14, 139);
        --id-text-color: rgb(150, 100, 28);
        --default-font-size: 20px;

        --highlight-object-fill: rgba(255, 255, 0, 0.6);
    }

        text {
            font-family: Consolas, Courier;
            font-size: 20px;
        }
        text.default {
            fill: rgb(0, 0, 0);
            text-anchor: middle;
        }
        text.attribute {
            fill: rgb(27, 14, 139);
            text-anchor: start;
        }
        text.variable {
            fill: rgb(0, 0, 0);
            text-anchor: start;
        }
        text.id {
            cursor: auto;
            fill: rgb(150, 100, 28);
            text-anchor: middle;
        }
        text.type {
            fill: rgb(27, 14, 139);
            text-anchor: middle;
        }
        text.value {
            fill: rgb(27, 14, 139);
            text-anchor: middle;
        }
        path {
            stroke: rgb(0, 0, 0);
        }
        .highlighted path {
            fill: var(--highlight-object-fill) !important;
        }
    </style><g><title>Group of 1 objects</title><g role="graphics-object"><title>Int id19 with value blank</title><g id="object-0"><path d="M23.582122114162818 23.95884571956509 L224.4662743914795 23.119468881163655 L225.23617164312836 156.06556143712362 L25.191098107181947 155.71097559767352" stroke="none" stroke-width="0" fill="none"/><path d="M24.59232087981475 23.873694663056284 C85.52718925449102 23.29870305843665, 142.01611431884552 23.043936486525645, 223.42508261676133 26.252387614631015 M25.084061017421046 24.14842106540842 C92.77932931090156 26.33698677132565, 160.40561276381837 26.120203365818142, 225.49553097477676 25.09582752940809 M225.4856813670676 23.104903467351477 C224.21269072645367 73.67337811128311, 223.36435067587806 120.71143532856712, 224.5418064827649 153.8394741625823 M225.337745499917 24.980057895103457 C226.12297845828053 55.47409636013868, 225.83589916262824 85.27898170691958, 225.23387179768355 155.32061793387655 M225.49529109401544 153.5892951360913 C175.84201854145485 155.71977324300613, 125.74150713296551 156.96178788745036, 23.83853353029355 154.26378006688196 M225.18798145347338 154.36578886437061 C155.20307545544696 155.06455190510587, 83.86041810729373 155.60660543896688, 25.67990417080267 154.9731956335749 M25.713775198658844 156.9874427284756 C25.451816176536276 125.05336608513888, 24.182928049797425 98.56779727793509, 23.447150043751442 26.262541328012727 M25.461869257285834 154.90751035662655 C26.389829660696257 103.8208066010791, 25.64261260179076 54.15386356548669, 25.038108182841896 24.374599473425015" stroke="rgb(0, 0, 0)" stroke-width="1" fill="none"/></g><g><path d="M19.528301799950476 20.699522387488354 L232.4729221226823 20.475422823669987 L232.96336650393468 162.69728985320342 L17.510418507598523 160.52921375227797" stroke="none" stroke-width="0" fill="none"/><path d="M20.712360553925727 19.883115085415923 C66.356875149069 18.780993434576985, 110.3880097272496 18.276337286642953, 230.44691727938797 18.13255926944147 M19.866860346918052 19.681044960135218 C92.26298446610002 19.822523588464204, 163.55803141720858 18.99113142669517, 231.38572070534076 19.64828017452941 M229.91895690448754 20.805327746880415 C228.32883600175091 63.58834857507384, 229.26851942113063 106.24951714656484, 229.0204082344864 159.69037504247154 M231.96532533248595 18.667676310518495 C231.11723960519467 53.45811896358037, 231.58810396488187 88.84942098721248, 231.44565159379934 160.54807336014574 M229.6597295416306 162.53631524168264 C186.57920521602776 159.0856001383585, 141.46948555627753 161.45085640704022, 18.440789213632232 160.31392708395583 M231.34800920518154 161.4293402453881 C175.49741621836404 159.05861496062195, 120.11907239707834 159.24901771044748, 18.490080518719743 160.6898723333135 M18.48017268183562 161.75287441214465 C19.90652325529815 110.9321858360974, 19.543892580157042 63.05539879694152, 17.145888993235946 18.176283302478517 M18.740003509701374 160.1391545147081 C18.401018969673434 117.8494735423296, 17.003448421305123 77.32370613168172, 18.06056521699533 19.08721886885992" stroke="rgb(0, 0, 0)" stroke-width="1" fill="none"/></g><g><path d="M26.179685876675762 25.326320341420264 L85.46586788129571 24.541672907015975 L84.37192137673229 73.73112159162619 L23.839476728338852 73.79271801148319" stroke="none" stroke-width="0" fill="none"/><path d="M26.2811626724998 24.742568327194014 C46.5545526742012 24.639575522611523, 64.48718390159361 26.50180114655716, 84.8936919147987 23.26985009234355 M25.009667573577474 24.477657284367666 C38.18715535510543 25.065540093306698, 50.8802161972785 24.189902270250833, 85.34814216811012 25.87654717772343 M85.09536701948542 26.76793460127376 C85.71938397363645 36.404695292287016, 83.80190594433613 49.94101513836703, 84.27498012966828 76.49529254160164 M84.21711119433515 24.43594199718028 C84.83630854177322 45.0443550194959, 84.6911383779668 63.66553637057589, 85.57668723041019 74.27490858405633 M84.20987282915905 76.93880334462285 C60.78049185858396 75.20139137193524, 38.53529793035423 76.18719028656051, 23.7408392444542 73.36963492116124 M84.99074940678342 74.6708652610951 C61.72567031762409 74.73542542591177, 37.71925740040692 75.47165760352942, 24.350495359801037 74.52686677236434 M23.537946322506556 74.12968514623252 C24.902828740457846 63.820431733379884, 26.910634133182526 49.248931748853494, 23.495815515716487 26.26145818168956 M24.801907207882927 74.4385268494775 C25.473274858567763 63.09082663114265, 24.870636029948603 51.90641023459706, 24.68613547709253 24.037616391240267" stroke="rgb(0, 0, 0)" stroke-width="1" fill="none"/><text x="55" y="55" class="id" aria-describedby="desc-0">id19<title id="desc-0">Object id</title></text></g><g><path d="M166.81260216373323 23.670673844719207 L226.7114897731562 24.52189762520707 L224.2014397383604 73.39144430414207 L163.94862337665916 73.10184342274334" stroke="none" stroke-width="0" fill="none"/><path d="M164.14531761680846 26.703698198139328 C176.29745237863094 22.93564070219219, 189.86507394849184 24.10567822687544, 225.07520960699918 25.13317077200819 M165.33099705322164 24.779830998983044 C178.86013137789087 24.91387530884683, 192.251760591074 24.494983877365822, 224.2615561247927 25.46510739886136 M225.66373106624604 25.81416623787844 C225.58163925555021 42.98841140449819, 225.3459393996764 65.65796869023475, 223.23086708666148 73.15792661506057 M225.05075656818653 24.65382218681762 C224.5247544042482 41.519401491847596, 225.48459711843273 59.30798725346459, 224.37910175917574 74.86835587198802 M225.65440978851888 74.1524306464527 C205.28053591765 76.05289862515025, 188.53314066990902 73.59766456406234, 166.82257639504564 74.02922809095733 M225.5597480990585 75.13033627589266 C204.07753818347905 74.76093263573112, 182.9257103352508 75.75864146119869, 165.68261175841945 74.8208073254084 M164.50222934999454 73.43397150324103 C165.84619115549876 62.59323129485484, 164.32491810073287 48.90723757396129, 163.26515516520243 24.770169050372385 M164.66301255271463 75.01610535639912 C164.7333469075287 61.59456281992954, 165.00921187673572 48.815079880604735, 165.16393160587683 24.252161896878842" stroke="rgb(0, 0, 0)" stroke-width="1" fill="none"/><text x="195" y="55" class="type" aria-describedby="desc-1">int<title id="desc-1">Object type</title></text></g></g></g></svg>