<svg data-theme="dark" width="287" height="217" xmlns="http://www.w3.org/2000/svg"><style>
        :root {
        --fade-text-color: rgb(0, 0, 0);
        --hide-text-color: white;

        --highlight-value-text-color: rgb(27, 14, 139);
        --highlight-id-text-color: rgb(150, 100, 28);

        --highlight-box-fill: yellow;
        --highlight-box-line-color: rgb(0, 0, 0);

        --fade-box-fill: rgb(247, 247, 247);
        --fade-box-line-color: gray;

        --hide-box-fill: white;

        --primitive-value-color: rgb(27, 14, 139);
        --id-text-color: rgb(150, 100, 28);
        --default-font-size: 20px;

        --highlight-object-fill: rgba(255, 255, 0, 0.6);
    }

        text {
            font-family: Consolas, Courier;
            font-size: 20px;
        }
        text.default {
            fill: rgb(0, 0, 0);
            text-anchor: middle;
        }
        text.attribute {
            fill: rgb(27, 14, 139);
            text-anchor: start;
        }
        text.variable {
            fill: rgb(0, 0, 0);
            text-anchor: start;
        }
        text.id {
            cursor: auto;
            fill: rgb(150, 100, 28);
            text-anchor: middle;
        }
        text.type {
            fill: rgb(27, 14, 139);
            text-anchor: middle;
        }
        text.value {
            fill: rgb(27, 14, 139);
            text-anchor: middle;
        }
        path {
            stroke: rgb(0, 0, 0);
        }
        .highlighted path {
            fill: var(--highlight-object-fill) !important;
        }
    
        [data-theme="dark"] {
            --highlight-value-text-color: #110875;
            --highlight-id-text-color: #6e4409;

            --fade-text-color: #BBBBBB;
            --hide-text-color: #121212;

            --highlight-box-fill: #EDB926;
            --highlight-box-line-color: #FFFFFF;

            --fade-box-fill: #2C2C2C;
            --fade-box-line-color: #666666;

            --hide-box-fill: #121212;

            --highlight-object-fill: rgba(72, 207, 173, 0.3);
        }
        [data-theme="dark"] text.default,
        [data-theme="dark"] text.variable {
            fill: rgb(224, 224, 224);
        }
        [data-theme="dark"] text.attribute,
        [data-theme="dark"] text.type,
        [data-theme="dark"] text.value {
            fill: rgb(144, 164, 237);
        }
        [data-theme="dark"] text.id {
            fill: rgb(255, 183, 77);
        }
        [data-theme="dark"] path {
            stroke: rgb(204, 204, 204);
        }
</style><g id="object-0"><path d="M51.70483321815562 23.82779454546648 L251.40326070819003 24.489558552166507 L249.5333523242287 153.16710625547682 L48.0035016102103 156.60515066272853" stroke="none" stroke-width="0" fill="none"/><path d="M50.01864781664883 24.27079816462541 C116.72995122543269 25.77005476100311, 182.01888429124764 23.366369958756486, 250.56246545468653 26.515905574026732 M50.25629192051659 24.33592919341521 C116.15074506832194 22.9712767154251, 181.1283754932452 23.29121460517661, 250.56047009171192 24.11176964954003 M250.8585271660189 23.817631140591743 C249.99776792317792 61.60857631954545, 250.5024680186722 100.2162376680141, 249.00701704744083 155.6920469117157 M250.4775550229354 24.646178586247295 C250.17766019082947 55.13350108052874, 251.44261779521062 84.82788107668642, 249.807507977084 155.45991458912977 M251.30722458050582 153.68836849801176 C173.55280430670885 153.76404138625153, 98.94733539353633 155.53951528941792, 48.47933559270711 155.23062787523645 M250.3657888294775 155.36458658637918 C206.6258088738244 155.15086700357182, 161.1256090117877 154.96958726318948, 49.63799879332163 155.43893297366014 M51.61217431863621 153.9705628688042 C49.166478146298346 127.27288064982935, 51.492579180321734 99.66657373923195, 50.36455102087541 23.14151344770625 M49.37101446688122 155.36106420678763 C48.44267466245615 115.8353716004878, 48.21805809585682 76.7295595584186, 50.34996308676993 24.29259341840025" stroke="rgb(0, 0, 0)" stroke-width="1" fill="none"/></g><g><path d="M44.70540336853645 18.047956945939937 L257.2269940985392 18.054983999712622 L254.94878992760977 159.32015105198138 L45.52145995498126 162.76643944566518" stroke="none" stroke-width="0" fill="none"/><path d="M43.10386855102922 18.216723060999062 C125.05990734040085 18.582805103016963, 202.69467614052684 17.59896083031666, 256.7034316473251 20.516377993642 M43.46874620054743 18.85475927500101 C121.57809743848748 19.438899514884636, 198.76939334574638 19.31291817951056, 255.1948772710703 18.16581230633656 M255.8026027651859 18.70654888597447 C255.44854680035348 66.1111856850509, 256.97157380047264 114.56302208062166, 257.8453588976169 162.1156671397675 M256.21146881836466 19.88643665905114 C257.0358476711126 66.29993500576822, 256.2003951292608 113.9939770874008, 255.05028700249093 160.6229915293561 M257.4831658574517 161.7248816456969 C171.8968621098363 160.98333483022307, 87.42363819911299 161.20235433002884, 45.47474352292758 160.6266990145869 M255.42332949431548 160.93464215833635 C181.67989486800064 159.4504588351018, 105.64885866791373 159.333159676585, 43.490595104749715 160.33170712135393 M45.824222605819884 160.88631580176906 C41.75891249672659 131.39146770234305, 43.93139999254903 100.61027423006071, 44.79879809677438 20.832030054060365 M44.036861467194356 160.78630320460803 C43.3538709982361 125.3319811187473, 43.380112136808705 89.04128341613017, 43.684301797747324 19.870895137650894" stroke="rgb(0, 0, 0)" stroke-width="1" fill="none"/></g><text x="150" y="115" class="value"></text><g><path d="M49.01886366740224 26.612253674604794 L110.28932771946843 23.71962564372416 L108.62172298738783 76.15123021679628 L49.80184536653242 75.32139119212933" stroke="none" stroke-width="0" fill="none"/><path d="M50.97109763864965 24.962864789761163 C69.15730675284793 26.628227538126875, 91.65578589287743 26.87218654106613, 110.3086623893794 24.30167059317217 M49.27836288917781 24.362407693295122 C63.79801245734673 24.867111106934782, 78.38455407523743 25.58681493366954, 110.42883829391812 25.402162199315498 M109.91767726441394 23.42216875716965 C109.44959252122493 43.658132999451915, 111.52843907490576 57.41725290214083, 108.45113032218343 73.68315656632188 M109.3782467050286 25.51881786973413 C110.85254211093847 43.86545724596673, 109.37904567948213 61.163430034352125, 109.66777377913886 75.37258756327263 M110.25234892881767 75.80790475610232 C97.31300711694612 73.42883684840125, 82.98671446936179 74.13266434566917, 51.79973904474865 74.48402347717955 M109.00425022347657 75.67415885701803 C89.29753961936207 74.54813406930607, 69.57861009086123 75.22474823910004, 50.20731141235608 75.22034269825019 M51.735684862944396 76.11948258119162 C50.82784699763213 62.12515141850442, 49.81451212204387 48.52352741028865, 48.140270201260044 23.887475754869826 M49.67515893901516 75.04728663566904 C48.88505138019577 60.93023090320813, 50.019125200737975 46.02200169969786, 49.201797471197324 25.27109599081971" stroke="rgb(0, 0, 0)" stroke-width="1" fill="none"/></g><g><path d="M189.69307312645674 26.040051535512088 L248.82649259675546 23.69947188103958 L248.06050401179633 75.82523231915471 L191.13326764020144 74.06274949075144" stroke="none" stroke-width="0" fill="none"/><path d="M188.0107018732646 24.01641616400319 C208.57921908972443 25.141033340651568, 226.89420656451156 24.030104861226413, 250.8909372699838 26.393601592075317 M189.54877116458735 24.998374838447315 C211.7765158958442 24.271391737599536, 233.43865427388954 25.47002508931875, 250.70310249689655 25.10720050703375 M249.30718070268267 24.109928681189185 C252.39061631864655 35.79432695991028, 249.51011416053058 43.70761657229994, 250.88893026361902 74.6453365323732 M249.306615278932 25.161198127022054 C250.15145956834624 41.07789168633796, 250.11818136874456 55.7345556805887, 249.12014934105133 74.79382153867883 M251.5258172183269 73.53999945939012 C229.06445242415742 72.90060056658355, 207.30051813409392 75.1216835509426, 189.11338637120681 75.08349960562464 M249.1889190443481 74.6104657130745 C227.61183558076308 74.99414124634414, 203.9145477015244 75.45615742407129, 189.86379009573764 75.12214452909703 M191.55959607064185 75.55013481467793 C191.0151343540493 64.17030182128839, 189.70066085260677 52.8415231653315, 190.28869238962642 26.003207496089797 M190.25995248513482 74.24389397612751 C189.00607987676017 60.126417063361814, 189.26125461877098 46.4132331662896, 189.71528215429703 25.052206520941947" stroke="rgb(0, 0, 0)" stroke-width="1" fill="none"/></g><text x="80" y="55" class="id">id19</text><text x="220" y="55" class="type">int</text></svg>