<svg data-theme="dark" width="287" height="217" xmlns="http://www.w3.org/2000/svg"><style>
        :root {
        --fade-text-color: rgb(0, 0, 0);
        --hide-text-color: white;

        --highlight-value-text-color: rgb(27, 14, 139);
        --highlight-id-text-color: rgb(150, 100, 28);

        --highlight-box-fill: yellow;
        --highlight-box-line-color: rgb(0, 0, 0);

        --fade-box-fill: rgb(247, 247, 247);
        --fade-box-line-color: gray;

        --hide-box-fill: white;

        --primitive-value-color: rgb(27, 14, 139);
        --id-text-color: rgb(150, 100, 28);
        --default-font-size: 20px;

        --highlight-object-fill: rgba(255, 255, 0, 0.6);
    }

        text {
            font-family: Consolas, Courier;
            font-size: 20px;
        }
        text.default {
            fill: rgb(0, 0, 0);
            text-anchor: middle;
        }
        text.attribute {
            fill: rgb(27, 14, 139);
            text-anchor: start;
        }
        text.variable {
            fill: rgb(0, 0, 0);
            text-anchor: start;
        }
        text.id {
            cursor: auto;
            fill: rgb(150, 100, 28);
            text-anchor: middle;
        }
        text.type {
            fill: rgb(27, 14, 139);
            text-anchor: middle;
        }
        text.value {
            fill: rgb(27, 14, 139);
            text-anchor: middle;
        }
        path {
            stroke: rgb(0, 0, 0);
        }
        .highlighted path {
            fill: var(--highlight-object-fill) !important;
        }
    
        [data-theme="dark"] {
            --highlight-value-text-color: #110875;
            --highlight-id-text-color: #6e4409;

            --fade-text-color: #BBBBBB;
            --hide-text-color: #121212;

            --highlight-box-fill: #EDB926;
            --highlight-box-line-color: #FFFFFF;

            --fade-box-fill: #2C2C2C;
            --fade-box-line-color: #666666;

            --hide-box-fill: #121212;

            --highlight-object-fill: rgba(72, 207, 173, 0.3);
        }
        [data-theme="dark"] text.default,
        [data-theme="dark"] text.variable {
            fill: rgb(224, 224, 224);
        }
        [data-theme="dark"] text.attribute,
        [data-theme="dark"] text.type,
        [data-theme="dark"] text.value {
            fill: rgb(144, 164, 237);
        }
        [data-theme="dark"] text.id {
            fill: rgb(255, 183, 77);
        }
        [data-theme="dark"] path {
            stroke: rgb(204, 204, 204);
        }
</style><g id="object-0"><path d="M50.34545450665458 24.000454857620475 L249.65354859793504 25.75870590164031 L250.15393939712766 153.01136552157314 L48.10247495757828 156.977542386658" stroke="none" stroke-width="0" fill="none"/><path d="M49.78270156315252 25.507208982096213 C91.27610599362846 23.904853899065202, 132.8482822163672 27.09143731837535, 249.9324555524567 23.96438553961417 M49.399557331489056 24.24241782197902 C128.82088489948174 25.916657673968803, 209.14793356637207 25.90229701713086, 249.33856360992223 25.792547548392484 M249.420534764171 24.476685806305532 C251.64814772021023 74.84054192687738, 251.07967096654863 123.52417206415934, 250.13907571467766 156.97879917215383 M249.58843211071968 24.70110074639179 C250.01176364651388 67.87436757533119, 250.5438406090514 109.68136544837256, 249.36034414923492 155.33262016384768 M251.6195400734097 154.52773821784416 C181.05345950782515 157.51900544758593, 110.5704811706335 157.21667012818205, 49.592433100294045 155.04718584690343 M250.70005899828405 155.7459453282211 C181.9708290037107 155.50468296736244, 114.18797763731592 155.50305419228994, 50.19793147988912 155.77298393766398 M48.41294652490291 155.95852478009644 C49.414727465234925 108.7425815126562, 50.93428030782307 63.156891469556236, 48.27383568336441 23.850191923824877 M50.02470134893555 154.01760607043673 C49.72384872431001 126.13230377957534, 48.82436533616497 97.20608558483488, 49.467734527520435 24.389148173583663" stroke="rgb(0, 0, 0)" stroke-width="1" fill="none"/></g><g><path d="M45.27432564263236 17.431350394240113 L256.8111812956609 19.677671915269123 L255.0531260293426 161.15616101357176 L44.23494065845266 159.50815160283136" stroke="none" stroke-width="0" fill="none"/><path d="M45.58206808862927 17.40080245716493 C127.01131634259939 18.628391703871497, 210.8635429511767 17.20829738950078, 254.48965144484686 20.417088321428743 M44.51516400329612 19.5335265531563 C109.19789547977165 19.99758257408825, 172.78287656689469 21.324033335746904, 256.38679008038696 19.58431001036008 M254.81147547001362 18.869913352484183 C257.7308855118519 69.68032864810314, 255.2228538744671 118.75143378599589, 254.11450760042612 161.39548837236572 M256.82985371636545 19.37881336296133 C254.83911722280533 49.794836379795186, 255.66981452698954 79.45918697584449, 256.8038427881454 160.90182342384458 M254.4561863697469 160.16710274980906 C197.42506608845076 164.0386267976101, 138.42904967080983 162.50891738138617, 44.39375065437263 161.61475515986393 M255.4600462952633 160.24006802021546 C212.77574467276398 158.33413016806242, 170.9924758050807 159.0494918372145, 44.6169615820403 161.84051210500664 M44.58395817905539 160.2012550855329 C43.925430838872266 126.35152638166299, 43.563516593233906 92.32602149967416, 45.83377192225468 20.17996792737287 M43.48064307541912 161.04064104307216 C45.42795552597586 127.30156404541268, 44.70729780367037 93.7113394603992, 44.73360598986252 19.231248523113873" stroke="rgb(0, 0, 0)" stroke-width="1" fill="none"/></g><text x="150" y="115" class="value">124</text><g><path d="M48.45001872276095 25.26657398718432 L108.57382090665972 23.01427588867434 L109.63638844511372 76.61260774620817 L51.27821653755685 76.63624804888177" stroke="none" stroke-width="0" fill="none"/><path d="M48.84225262562416 25.99260186263709 C68.83305029292896 25.894722038796342, 82.968523126652 24.346256145657183, 109.73903011928374 26.22475812010279 M50.57217744405606 25.24689048613909 C69.44787437467296 25.063252909118024, 89.89810150072326 24.9391947287011, 110.32291595365477 25.205699852290042 M109.75388266902155 23.867102282375654 C109.48888630796563 42.67582152685359, 111.35346686506577 62.73823368867361, 110.65914986621354 75.68202561976602 M110.99984492107983 24.99702465456989 C109.29414307112441 40.0606152724921, 109.70014616209946 56.60692266604593, 110.09669876500405 75.07874223299346 M111.75623831117231 74.34008185646822 C89.5293296175021 74.02367177957836, 71.98904366606082 76.21061091232428, 48.21344053686773 76.38548729333348 M109.81911316606087 75.15768590185708 C92.0548416081572 75.51800006418154, 73.2721503371046 75.58684688450025, 49.88193104136728 75.58386932213277 M51.30221465305206 76.84585392920698 C51.15091029892086 57.17801220406106, 50.02030916608544 38.65172577174976, 50.646512439693055 25.967400991612113 M50.66477907720883 74.13543363374106 C49.76865918695967 60.05431010667321, 50.57725989595181 46.57066134370176, 49.12920770614085 25.299795495121423" stroke="rgb(0, 0, 0)" stroke-width="1" fill="none"/></g><g><path d="M191.43611088917174 25.83527360694272 L249.72420501852656 26.98198277867677 L249.16004078602413 75.98712398818695 L189.0107086705691 76.32347830234974" stroke="none" stroke-width="0" fill="none"/><path d="M190.853249874084 24.985609143125266 C208.61816350633387 25.82601907562987, 225.59689422908696 25.749989416255765, 248.13530054524207 24.03179288698384 M190.58475982071604 24.21277109203401 C207.70406023853067 24.84772340458933, 226.07677933662342 25.224179690330086, 250.0557842064616 25.84072970861386 M248.62830134961675 24.179898289287973 C251.11583168414833 39.887030989613145, 249.02290640611585 51.53905960596547, 248.77888587035153 75.440175684646 M249.04071963914785 25.802341986713905 C250.4412141853719 38.48678667866365, 249.39878338630243 51.12073377732467, 250.42521644107546 75.04258794164048 M249.2600027952605 74.56864825045162 C227.2504835529077 76.42976345491142, 207.543144382542 77.04010119120457, 191.50302730572767 73.76943216756042 M250.2893094010869 74.09976461883956 C235.77067069679939 74.76850540977499, 221.8001696539836 74.98237211879771, 189.80536060420678 74.82205473778187 M189.61584666365977 73.73211365982705 C188.71551673628608 57.45817860186361, 191.90233089170493 38.99462498831777, 188.5380072892049 25.474940516798316 M189.26857788272198 74.41666676009467 C189.20684136911348 62.75533525551765, 190.3076664178962 50.339017692073064, 190.629650914079 25.701076300037656" stroke="rgb(0, 0, 0)" stroke-width="1" fill="none"/></g><text x="80" y="55" class="id">id19</text><text x="220" y="55" class="type">int</text></svg>