<svg data-theme="dark" width="357" height="225" xmlns="http://www.w3.org/2000/svg"><title>Python memory model diagram showing objects</title><style>
        :root {
        --fade-text-color: rgb(0, 0, 0);
        --hide-text-color: white;

        --highlight-value-text-color: rgb(27, 14, 139);
        --highlight-id-text-color: rgb(150, 100, 28);

        --highlight-box-fill: yellow;
        --highlight-box-line-color: rgb(0, 0, 0);

        --fade-box-fill: rgb(247, 247, 247);
        --fade-box-line-color: gray;

        --hide-box-fill: white;

        --primitive-value-color: rgb(27, 14, 139);
        --id-text-color: rgb(150, 100, 28);
        --default-font-size: 20px;

        --highlight-object-fill: rgba(255, 255, 0, 0.6);
    }

        text {
            font-family: Consolas, Courier;
            font-size: 20px;
        }
        text.default {
            fill: rgb(0, 0, 0);
            text-anchor: middle;
        }
        text.attribute {
            fill: rgb(27, 14, 139);
            text-anchor: start;
        }
        text.variable {
            fill: rgb(0, 0, 0);
            text-anchor: start;
        }
        text.id {
            cursor: auto;
            fill: rgb(150, 100, 28);
            text-anchor: middle;
        }
        text.type {
            fill: rgb(27, 14, 139);
            text-anchor: middle;
        }
        text.value {
            fill: rgb(27, 14, 139);
            text-anchor: middle;
        }
        path {
            stroke: rgb(0, 0, 0);
        }
        .highlighted path {
            fill: var(--highlight-object-fill) !important;
        }
    
        [data-theme="dark"] {
            --highlight-value-text-color: #110875;
            --highlight-id-text-color: #6e4409;

            --fade-text-color: #BBBBBB;
            --hide-text-color: #121212;

            --highlight-box-fill: #EDB926;
            --highlight-box-line-color: #FFFFFF;

            --fade-box-fill: #2C2C2C;
            --fade-box-line-color: #666666;

            --hide-box-fill: #121212;

            --highlight-object-fill: rgba(72, 207, 173, 0.3);
        }
        [data-theme="dark"] text.default,
        [data-theme="dark"] text.variable {
            fill: rgb(224, 224, 224);
        }
        [data-theme="dark"] text.attribute,
        [data-theme="dark"] text.type,
        [data-theme="dark"] text.value {
            fill: rgb(144, 164, 237);
        }
        [data-theme="dark"] text.id {
            fill: rgb(255, 183, 77);
        }
        [data-theme="dark"] path {
            stroke: rgb(204, 204, 204);
        }
</style><g role="graphics-object"><title>List id84 with 4 elements</title><desc>Elements: id32, id10, id90, id57</desc><g id="object-0"><path d="M48.18229712267035 26.44109393217429 L332.91021272133105 24.348104089945412 L333.65199328538114 173.79857184905651 L51.815246668737984 175.75705407423982" stroke="none" stroke-width="0" fill="none"/><path d="M51.08259614083979 25.217162952809378 C144.06408001441835 23.22036012519264, 238.28465345610843 24.815803361717155, 331.92395697357966 24.68446933909964 M49.605555160560016 24.424598207309792 C113.794793047715 25.33914377193437, 176.35720431479095 25.932523131943636, 332.1559296091528 24.272871866793476 M332.2466339948879 25.464649751665384 C329.6162027658046 63.08209321931855, 329.44938364268756 98.73142309647653, 331.5763539661143 176.68043211973344 M331.59913530366794 25.690880900662897 C332.7658725136553 84.63907711702774, 333.1556013890468 143.59137187971353, 331.6550237307584 174.79124389034985 M333.4688375641943 174.83015719547606 C257.55839390305607 174.8692459504439, 181.80970028001613 174.2279782309669, 48.98808827313661 175.42926863804846 M332.3411251810169 174.33326210197924 C231.0209748161055 173.33885502510338, 128.2193674977878 173.17638906039667, 50.379548241679565 175.02579610578863 M48.628971789794406 176.95153913720785 C47.727311485750725 133.7910985416121, 50.999509267770364 95.42720098713359, 49.325282016638745 23.783218880932594 M49.430067473340756 174.8211011055563 C49.459459149549765 114.70505905558569, 49.550595820037124 54.77013879019641, 49.24312768699793 25.642232541279277" stroke="rgb(0, 0, 0)" stroke-width="1" fill="none"/></g><g><path d="M48.12928010379973 24.26717362708832 L111.59908425627664 24.15697097270227 L109.68642891887109 74.21534081581581 L48.322041129184704 73.14775338792653" stroke="none" stroke-width="0" fill="none"/><path d="M48.26062122866751 24.34766522706833 C68.73060469345592 24.239273984838924, 87.06799920803135 26.056202623017484, 110.63794127162046 26.0554507400106 M49.40725959383181 24.76270655182194 C66.72894673654888 24.56597600072801, 84.56792000807506 25.768217514373376, 110.28352401381976 25.75567832335089 M108.6509106066035 23.14624162265133 C108.81862323441118 39.95419929996386, 110.02836655917366 51.417482520522725, 109.39765582670525 73.02226438396612 M110.90346780909495 24.810611298527007 C110.49635556565505 42.891695656034614, 111.36334165620246 62.35406757908225, 110.82148877072947 74.75741773077041 M110.53061097598496 74.57947721963323 C94.25173922710601 76.161763318723, 78.98352640393671 73.35749552005939, 51.70765779721463 74.00210312891015 M109.5110254253365 75.70742237426938 C97.92140436663249 76.42992286131808, 83.66613584079245 75.08007739332952, 49.483504215423075 75.75000651389726 M50.29621299226929 75.82914333435616 C51.447122533304245 62.5515856272668, 48.68315303148803 51.15823337948367, 48.48124382363305 26.582440726343872 M49.631547795863064 75.70131662295393 C49.11872702028149 58.77699368749726, 48.95439308073005 44.75283681047132, 50.77311710064146 25.855754343002364" stroke="rgb(0, 0, 0)" stroke-width="1" fill="none"/><text x="80" y="55" class="id" aria-describedby="desc-0">id84<title id="desc-0">Object id: id84</title></text></g><g><path d="M271.7218667218219 24.314772962823643 L330.2156931010239 24.25740959042463 L333.98130161217 76.61726154612286 L270.3759951616872 75.24788925107298" stroke="none" stroke-width="0" fill="none"/><path d="M270.97912024734023 26.86684012744039 C289.90094726219826 26.042410531536692, 310.0726669958033 24.45960590603059, 331.84890126677124 25.31723817945811 M272.28110322258436 24.246144084668426 C283.65941742510046 24.9005480680389, 296.21650443944276 24.588662537433862, 332.45301245308093 24.350193451075636 M332.82540730685736 24.3115413017661 C333.05342257763294 38.58624717417192, 330.9231738848234 52.549638931142745, 333.84477904485993 74.44051178425492 M332.266211245761 24.125154356324675 C331.75746831710853 43.48777762830622, 331.77667985528444 59.34296837737139, 332.193327851047 75.55362900155777 M332.9953803823489 75.91213594746242 C315.35719841778973 75.93577105240188, 294.7950018243908 74.19297447881569, 271.98268955183306 73.96816371632772 M332.008745529016 75.20882579950846 C309.56780979933285 76.0738017431059, 284.88351651658405 75.64411798267012, 272.84148937718675 74.92913319615941 M271.9588804894515 75.91595142152623 C270.3341834907111 60.00747635261538, 271.82549033641504 42.68678556819805, 272.21298179529083 25.737256095077946 M271.9202512919149 75.61602625193835 C271.61864326276805 56.72700574280462, 272.22164355399144 39.60939346322465, 272.67931676724993 25.043261997242748" stroke="rgb(0, 0, 0)" stroke-width="1" fill="none"/><text x="302" y="55" class="type" aria-describedby="desc-1">list<title id="desc-1">Object type: list</title></text></g><text x="104" y="97.5" class="id" aria-describedby="desc-2">0<title id="desc-2">Index: 0</title></text><g><path d="M76.08587826937645 109.96500941516693 L133.57232766619498 111.17629293011659 L132.31909143088478 160.4954857837136 L74.63971168394053 159.34182149665958" stroke="none" stroke-width="0" fill="none"/><path d="M73.00480132806406 110.68534828702268 C89.61794507872715 111.51459783424811, 106.60358195143418 111.57805146297068, 131.32969195569154 110.1757909406225 M74.80513923598626 109.68365583527746 C95.59602412804703 109.41449126275612, 114.60823364277014 111.16425506097296, 133.47106491662896 110.84593431400081 M132.58503928547347 111.63967769343316 C133.15004157695066 124.55040296521143, 135.16910243778787 134.71877373295484, 131.32601964308546 160.4009245879467 M133.77034886646422 110.82884923190123 C133.34683207575395 120.54821741871748, 132.99201505271148 133.70398829488977, 133.5658709078398 159.57028446183293 M133.56455109595524 158.37785598965144 C116.25166431000632 160.3250556569866, 100.43450620108115 160.40821437080746, 75.4844649294199 158.03295808758537 M133.05677347555485 160.83553461228098 C111.3296335868389 159.95381650589184, 88.7045928527601 158.79857362289536, 74.8132686261212 160.08303557776023 M74.57176397158642 159.55807777699556 C74.4309766757045 142.10896564859092, 76.1131402926072 123.39574037992364, 75.23492905834301 109.51165167366244 M74.7265829758151 160.51178873869924 C74.04756225476757 148.33908570233373, 74.74533366679373 135.93796996652839, 75.70118773357504 110.6597464439111" stroke="rgb(0, 0, 0)" stroke-width="1" fill="none"/><text x="104" y="140" class="id" aria-describedby="desc-3">id32<title id="desc-3">Element: id32</title></text></g><text x="162" y="97.5" class="id" aria-describedby="desc-4">1<title id="desc-4">Index: 1</title></text><g><path d="M132.07577777978526 111.07344740332347 L192.90588735335476 109.80956330620889 L191.2951641545392 158.50591600183202 L131.56416158116525 160.3438198910659" stroke="none" stroke-width="0" fill="none"/><path d="M132.39770194719347 108.73241508156846 C148.8848130478572 110.46929687993617, 165.97593347523116 111.38790827408114, 189.55899754862014 110.72015304341757 M132.52959356565052 110.76968860873086 C150.94681994977518 109.54096842891941, 168.56745577770187 109.2843499483055, 191.92888907351156 109.1451396618941 M191.33659124463068 109.31138847204676 C191.96817194236857 125.20659399577427, 192.5926530757883 143.60522741921838, 189.63518973580912 158.02467067504998 M190.57023664767178 109.43464270500627 C191.59020639918694 126.30407927692325, 189.9229004567268 142.69679142320783, 190.12078360393753 159.75403196533068 M190.53567832424054 161.3486898415241 C177.88789850278718 158.07959728768043, 167.43301200193477 160.65984442302513, 132.00594633520078 161.78025601022588 M191.9629944085346 159.12140116079595 C175.1073840465081 160.5643768928435, 158.44600656063963 160.25703901063477, 132.47612174292024 159.76301523553875 M131.80994694798449 160.87581546877493 C133.08263184854127 143.16081378048202, 133.83766647278588 126.8076619640263, 133.75257861559354 111.39398470440263 M133.3631177806557 160.78658121492478 C133.60704181586914 147.42014848379463, 134.0212608088771 135.03163206051843, 132.2452830531375 110.73445431511264" stroke="rgb(0, 0, 0)" stroke-width="1" fill="none"/><text x="162" y="140" class="id" aria-describedby="desc-5">id10<title id="desc-5">Element: id10</title></text></g><text x="220" y="97.5" class="id" aria-describedby="desc-6">2<title id="desc-6">Index: 2</title></text><g><path d="M190.7844736011053 110.53777568656213 L247.60289238168923 110.46755986116389 L248.2841758305948 161.19512415630658 L190.8529352709099 159.87950122847874" stroke="none" stroke-width="0" fill="none"/><path d="M190.58804427986388 110.90530709409853 C211.56410364645868 109.73185619068921, 234.45309970182348 110.15317383446721, 250.69627223632526 111.1433541110706 M190.91278184636283 109.71568931969969 C213.71273969436425 109.42342700067788, 236.1991321563962 110.69173673944935, 249.61828079834999 110.03989951498494 M249.32088901603439 110.47773443463433 C246.78615506482762 127.83836711280972, 246.85864872654992 148.04487886786316, 250.42506574733596 159.4273572782072 M248.609133762106 110.94220288959107 C249.21677381485452 126.11101161804743, 248.14730078086873 142.76688035781734, 248.34052489367173 159.0419392334861 M249.42900895118424 160.35451285934485 C231.80919919254558 158.17736009264635, 216.81539982915533 158.25460415074932, 190.31627765671385 161.53565772906177 M248.53040938584155 160.41870897069342 C228.49638597498955 159.9299607910741, 207.44186986002094 160.18096098437016, 190.79827959020454 160.53497770069893 M192.74272492982644 161.43422323654883 C189.43718399274093 140.0886299159347, 191.35262956626752 123.02024959793758, 192.54489202291185 108.41670217948571 M191.28484244182943 160.99618498785063 C190.36458538436867 146.176319422165, 190.4859517805189 131.4788081213333, 191.19174259998425 110.08659529774769" stroke="rgb(0, 0, 0)" stroke-width="1" fill="none"/><text x="220" y="140" class="id" aria-describedby="desc-7">id90<title id="desc-7">Element: id90</title></text></g><text x="278" y="97.5" class="id" aria-describedby="desc-8">3<title id="desc-8">Index: 3</title></text><g><path d="M248.33949440432886 110.02180893941977 L307.31784784893455 111.37561836321325 L306.1780610219049 161.99209281069673 L249.49023588650348 160.9756836266014" stroke="none" stroke-width="0" fill="none"/><path d="M248.62363750531813 108.4135019292856 C270.28195947356164 109.15413669493621, 292.24365198872994 109.04738718489679, 307.43927454511436 111.5027801267817 M248.84304800032382 109.37804474859618 C268.8331412803254 110.56222221472564, 287.54434635884354 109.4561202147899, 306.933112522043 109.43885640776175 M306.8543750465636 109.16531073166999 C307.13193927089685 125.31464933792276, 309.0513867789937 136.45490306708717, 305.7772334404935 161.5706256502411 M307.66478363137577 110.24348880242518 C306.38069868636336 119.29048232011768, 307.27175031413856 129.46943035561807, 306.73466531938203 159.68831589838297 M305.75458906166597 159.31995841795887 C295.7195594176277 157.61890427833646, 282.93814366180277 157.55376711713043, 249.31292670769932 158.94808324724116 M306.84236442528015 160.88904246454894 C286.9340508840174 161.0679270003623, 266.6887389331578 160.1159510468552, 248.46727008582283 160.7604996561106 M247.35714681269846 159.85479180825257 C247.90136222372007 146.26733141392785, 249.3026908804649 132.17010889354015, 247.1216371581473 109.76595096364576 M248.92140422043494 159.99140281872283 C248.9619850487731 145.43885786657643, 248.8198627979946 129.6699864987609, 248.92333623962776 109.98380042136085" stroke="rgb(0, 0, 0)" stroke-width="1" fill="none"/><text x="278" y="140" class="id" aria-describedby="desc-9">id57<title id="desc-9">Element: id57</title></text></g></g></svg>