<svg data-theme="dark" width="357" height="225" xmlns="http://www.w3.org/2000/svg"><title>Python memory model diagram showing objects</title><style>
        :root {
        --fade-text-color: rgb(0, 0, 0);
        --hide-text-color: white;

        --highlight-value-text-color: rgb(27, 14, 139);
        --highlight-id-text-color: rgb(150, 100, 28);

        --highlight-box-fill: yellow;
        --highlight-box-line-color: rgb(0, 0, 0);

        --fade-box-fill: rgb(247, 247, 247);
        --fade-box-line-color: gray;

        --hide-box-fill: white;

        --primitive-value-color: rgb(27, 14, 139);
        --id-text-color: rgb(150, 100, 28);
        --default-font-size: 20px;

        --highlight-object-fill: rgba(255, 255, 0, 0.6);
    }

        text {
            font-family: Consolas, Courier;
            font-size: 20px;
        }
        text.default {
            fill: rgb(0, 0, 0);
            text-anchor: middle;
        }
        text.attribute {
            fill: rgb(27, 14, 139);
            text-anchor: start;
        }
        text.variable {
            fill: rgb(0, 0, 0);
            text-anchor: start;
        }
        text.id {
            cursor: auto;
            fill: rgb(150, 100, 28);
            text-anchor: middle;
        }
        text.type {
            fill: rgb(27, 14, 139);
            text-anchor: middle;
        }
        text.value {
            fill: rgb(27, 14, 139);
            text-anchor: middle;
        }
        path {
            stroke: rgb(0, 0, 0);
        }
        .highlighted path {
            fill: var(--highlight-object-fill) !important;
        }
    
        [data-theme="dark"] {
            --highlight-value-text-color: #110875;
            --highlight-id-text-color: #6e4409;

            --fade-text-color: #BBBBBB;
            --hide-text-color: #121212;

            --highlight-box-fill: #EDB926;
            --highlight-box-line-color: #FFFFFF;

            --fade-box-fill: #2C2C2C;
            --fade-box-line-color: #666666;

            --hide-box-fill: #121212;

            --highlight-object-fill: rgba(72, 207, 173, 0.3);
        }
        [data-theme="dark"] text.default,
        [data-theme="dark"] text.variable {
            fill: rgb(224, 224, 224);
        }
        [data-theme="dark"] text.attribute,
        [data-theme="dark"] text.type,
        [data-theme="dark"] text.value {
            fill: rgb(144, 164, 237);
        }
        [data-theme="dark"] text.id {
            fill: rgb(255, 183, 77);
        }
        [data-theme="dark"] path {
            stroke: rgb(204, 204, 204);
        }
</style><g role="graphics-object"><title>List id84 with 4 elements</title><desc>Elements: id32, id10, id90, id57</desc><g id="object-0"><path d="M51.032571225095154 23.535188641984995 L331.1070402386608 25.34632298853231 L331.3657858513396 176.28255752350475 L48.85424647451051 176.47519694797867" stroke="none" stroke-width="0" fill="none"/><path d="M48.57381069483045 24.293474764594226 C119.67134876450469 27.0831317027721, 187.14678118020964 26.81922408200129, 333.1281262750048 23.763096449005523 M49.5017367167076 25.016717070151344 C112.03708042161027 24.805219720644967, 174.44325005510973 23.86278804944951, 332.0647971378239 25.536518112583593 M333.72201919282384 26.713463872603654 C330.4622135333998 77.4516538311434, 330.9878938950705 126.38139413237936, 330.59630494867025 173.32780558322872 M332.62450368470826 25.64558721633198 C331.53544332555936 56.57488777277567, 332.8933025952023 90.1622370879914, 331.1049518952896 175.28139432453676 M330.94538264062544 175.79798223641603 C247.0054433008883 177.38497781438613, 162.4256362432952 176.67956454332167, 51.00926083505752 176.3148013542325 M331.46319934360463 175.743570642348 C249.6712381552721 176.75765702741094, 169.03550185504056 176.62765382545444, 50.44844934184639 174.69776778330223 M48.09764440060839 176.79175506916908 C48.74756139230979 123.38179473949653, 51.801377001890124 69.20198346560674, 49.47986492212912 25.908454392428567 M49.06118929054622 175.360353055069 C49.28793621088822 140.95723077456933, 49.00779198707396 105.94443420774073, 49.02545197203538 24.10955056041015" stroke="rgb(0, 0, 0)" stroke-width="1" fill="none"/></g><g><path d="M51.95838727046494 25.367362721149576 L109.3054176445524 23.459583687367605 L109.92191467785344 76.5691111125422 L49.92471165258579 75.92485816115024" stroke="none" stroke-width="0" fill="none"/><path d="M51.56821260219366 26.474539209066926 C70.53573682445756 24.470118432662325, 86.15857362842077 26.0076700438636, 108.54131216925663 24.541504201404504 M50.28210379413468 24.680866205702564 C73.21426530058494 26.112254940017046, 96.13762975782774 25.35317371945214, 109.90827183305701 24.730600193368264 M108.95331900452412 25.97116717308558 C110.37556546913297 44.33247595697004, 110.66346272688152 62.45733843408865, 108.12072978468083 73.05615475454891 M109.8664602071659 24.717595023463623 C108.99640900675584 39.025827109766034, 109.61707640017802 53.060164397589354, 110.04148344595254 75.97836506382367 M109.3139703202788 75.9117775373377 C96.41862127794474 75.93655212062666, 83.21565770385095 76.21677786834911, 50.241189182842874 73.54586029853566 M109.97460179733173 75.67134442345998 C94.89361534517788 75.01754307883353, 77.7209289935302 74.57562017510648, 49.72834866196981 75.78746997226541 M49.1657445167266 73.25923025159516 C50.34528935763599 54.70668892885917, 49.18911787378331 36.467055427812184, 50.155200203263036 24.998127144027876 M50.77611240060258 74.31299087212662 C49.081694367156366 64.65957982044199, 49.230465193821296 53.66109941603701, 49.3071377123408 24.234129613891692" stroke="rgb(0, 0, 0)" stroke-width="1" fill="none"/><text x="80" y="55" class="id" aria-describedby="desc-0">id84<title id="desc-0">Object id</title></text></g><g><path d="M270.0084786736295 25.773541182816643 L333.28702277566174 26.475380297195173 L332.71901733095234 74.03500947790872 L270.5679792321774 76.21365722228715" stroke="none" stroke-width="0" fill="none"/><path d="M271.7406370720795 23.70411192654073 C287.58843392681706 24.422821008817554, 298.7737157856908 22.705663431323604, 333.39712645389625 25.418329865914615 M272.4012287483088 25.999631111665074 C288.7381808967052 24.05342226527036, 304.7158699504596 25.64038167549163, 331.2155747014072 25.518524660164704 M331.6316681130764 25.15093117020226 C330.53719650110594 41.860993590208906, 330.99008611957265 59.86049532473588, 330.02346951413557 75.15616912297371 M332.8226869285422 25.66221145588424 C331.63150659315966 40.26036178266489, 332.59293915007254 57.96941863987653, 331.4419949237102 74.32277433470291 M333.0507016914879 76.59996994593475 C316.17981714771753 73.69167199953908, 299.0843052086125 75.63192462217539, 271.63728713236685 75.87538867585783 M331.9181210933229 74.58182834929096 C314.13209405004574 74.77680487900152, 296.9067314513018 74.41415689507463, 272.742556975507 75.53422190343271 M271.60315767527237 74.44014713061942 C272.88494483836195 60.83117793710784, 273.71525786599 47.312176242569976, 270.3608919774012 25.319666453842924 M272.5902612594821 74.13219410280891 C271.27006921112945 62.746328318412836, 271.53889845903433 53.441524586861405, 272.6325191096073 25.509856207752417" stroke="rgb(0, 0, 0)" stroke-width="1" fill="none"/><text x="302" y="55" class="type" aria-describedby="desc-1">list<title id="desc-1">Object type</title></text></g><text x="104" y="97.5" class="id" aria-describedby="desc-2">0<title id="desc-2">Index</title></text><g><path d="M73.65794003933648 110.47435444128122 L133.7662677863459 110.65566183375677 L131.4281706877227 161.01156446742502 L76.93409496558904 158.57096916436834" stroke="none" stroke-width="0" fill="none"/><path d="M74.31114500285429 110.00964672413869 C90.73793466086943 111.53659285634066, 107.97627277139142 109.16918104888747, 132.8966883777364 111.65854304173376 M74.81149987933378 109.84025596661121 C96.11178734794994 109.58429970508236, 115.30189632584624 109.43883498586007, 132.27317315500395 109.06851895629028 M131.35552292978093 108.60882388164573 C131.50287153089602 127.96315740752583, 134.7900527092906 147.32709397297037, 133.2364541712165 160.75426153254378 M132.4070177694751 109.02261094365093 C133.35413809695402 124.72856228062864, 132.43655556381225 139.61013748674418, 133.45560864614592 159.0551401227325 M131.89815993071713 161.59060843637212 C117.22882575285439 158.23405387135952, 98.6653685573869 158.41970487518068, 73.185457507803 159.63969492680025 M133.71942069506 160.32223957553856 C118.8199766518276 159.43712745102334, 103.49074064338613 161.26850583760267, 74.6081255091026 159.31009759674467 M73.10125140185262 158.19213697912664 C73.76290117224548 142.08967820766526, 74.50599209855955 119.99205934066242, 74.7954626628587 108.08584994659266 M74.67279991767319 160.6684996597928 C74.54907772338925 142.05086910300975, 75.50700992200771 124.80202496384445, 75.05609931140596 110.82618708130589" stroke="rgb(0, 0, 0)" stroke-width="1" fill="none"/><text x="104" y="140" class="id" aria-describedby="desc-3">id32<title id="desc-3">Element</title></text></g><text x="162" y="97.5" class="id" aria-describedby="desc-4">1<title id="desc-4">Index</title></text><g><path d="M133.5375924295607 111.57297733930389 L189.24379648517234 110.82946127307072 L192.69949738363692 161.60764586776315 L134.77795123296383 161.95725150855858" stroke="none" stroke-width="0" fill="none"/><path d="M133.6511702254619 109.4623201067336 C155.96269784552783 108.42030201198712, 175.50343694451388 109.82230779663765, 192.95579438486493 109.19994724170394 M133.5362180022239 110.59747206800171 C147.9991486083188 109.92692821191133, 163.79925420673828 110.6728285955574, 190.5898787097657 110.26890734424413 M190.2072911493452 110.11849470563037 C190.68649512757216 124.96948279025038, 191.2440605011002 138.88364496488802, 191.3086319017009 158.49075478054795 M190.08356921803914 109.0420966714409 C190.64943201228684 126.58840907808906, 191.13025223828615 143.19648956190994, 191.3480093028285 160.34756038515002 M192.61893226589217 161.54288008126105 C179.73996361831522 159.66566008011026, 165.54900615212196 159.38465655714583, 132.20871184601174 161.52374831983406 M191.89154165806332 160.0906483143198 C177.46679073021008 161.18460247990598, 163.64570408867885 160.59650035726608, 133.05063635610293 159.00869346793024 M133.75009527226996 161.96743700517214 C134.9796055026233 140.5670471255443, 134.316966612869 124.4880616695285, 132.06423037128235 110.60257612222524 M132.98292225560127 159.7391916455915 C132.92443750153825 147.91571969300915, 133.15148214561208 134.37881467552458, 132.9994988776322 110.6599541682375" stroke="rgb(0, 0, 0)" stroke-width="1" fill="none"/><text x="162" y="140" class="id" aria-describedby="desc-5">id10<title id="desc-5">Element</title></text></g><text x="220" y="97.5" class="id" aria-describedby="desc-6">2<title id="desc-6">Index</title></text><g><path d="M191.41926343522937 108.50707690212506 L250.1744734971729 110.93012157244111 L250.5098936856934 160.16453734345077 L192.51844765813317 160.49195287532288" stroke="none" stroke-width="0" fill="none"/><path d="M189.44247553339767 108.89821372815086 C211.441268722965 109.24213410162783, 231.98134052650218 109.18397241182382, 249.65508897440216 110.09817480797089 M191.13334944583463 109.51072560839613 C210.6959761092564 110.63818080657923, 230.8740119183219 109.94880515635734, 248.20121007687194 110.1011021386257 M248.64907593540894 111.70500310479203 C248.6989301458851 123.06386314076309, 248.84442252129287 136.49731143732015, 248.3083966153994 158.8882154262233 M248.55491770369272 109.86156632339781 C248.97955433181298 127.28250688586019, 249.13955278314344 145.17881780792635, 249.19758870441092 160.71278657975827 M247.02463551614045 161.66455690079215 C235.93027087486988 158.11951361543126, 223.33703406125144 159.90090404037318, 190.37349619374186 161.40520859254897 M249.61404790573746 160.8064362235881 C231.97134431666362 160.47625750412396, 216.5687228847572 160.65437799598766, 190.33166048860068 159.08946747189253 M192.7444149515155 158.2379633192845 C190.5311538792827 139.9498035400649, 190.21604546102114 123.42955142217654, 192.65964685825324 109.3368862893065 M191.46714297994856 160.69229366763312 C192.02190558752895 140.0176971865292, 190.32665916821486 121.14543799709531, 190.62696984157688 110.84579799900169" stroke="rgb(0, 0, 0)" stroke-width="1" fill="none"/><text x="220" y="140" class="id" aria-describedby="desc-7">id90<title id="desc-7">Element</title></text></g><text x="278" y="97.5" class="id" aria-describedby="desc-8">3<title id="desc-8">Index</title></text><g><path d="M250.1672891343217 108.11540138031981 L305.42125789661 110.32406212606469 L305.72205048891806 161.6930700965487 L247.57790274651356 161.61654290523475" stroke="none" stroke-width="0" fill="none"/><path d="M247.36937639351618 111.37382584090925 C271.11543332125433 111.75437660309514, 291.71548501440896 109.01795364839808, 307.3403161827354 111.45459437005819 M248.80382343701393 110.68676193984143 C267.8161639313569 109.16073557086571, 286.23846635912673 109.87704169597858, 306.1794137759213 110.20406344699991 M307.0476052992812 111.93504167231876 C308.15871513749886 127.37049975822171, 306.6142560045406 142.42094205977034, 308.55552984418597 158.7151760006536 M306.7704757818058 109.69134759080589 C307.13544996647806 125.63018863594766, 307.4201924335541 142.84467392200943, 307.1274777805629 159.59518722915072 M308.5307373864794 161.83000535107917 C292.5283558868751 161.58101727779226, 281.6953158214473 161.4869748341002, 247.3085575817137 161.6985693524634 M307.1983860917305 160.61828739587924 C285.3852699640198 158.78886079471292, 265.1929045663917 159.8513360359976, 248.28757194626243 160.95057141291215 M247.48759086278463 158.88436057232417 C247.2056307857754 141.81306984023956, 248.00604824174013 129.08444656516818, 247.19687066408434 111.9978275573077 M249.80380941169662 160.7839238766432 C249.03162661054026 147.4866402625506, 247.97440539336225 136.4297883838337, 249.04060600912337 110.8875155969126" stroke="rgb(0, 0, 0)" stroke-width="1" fill="none"/><text x="278" y="140" class="id" aria-describedby="desc-9">id57<title id="desc-9">Element</title></text></g></g></svg>