<svg data-theme="dark" width="357" height="225" xmlns="http://www.w3.org/2000/svg"><title>Python memory model diagram showing objects</title><style>
        :root {
        --fade-text-color: rgb(0, 0, 0);
        --hide-text-color: white;

        --highlight-value-text-color: rgb(27, 14, 139);
        --highlight-id-text-color: rgb(150, 100, 28);

        --highlight-box-fill: yellow;
        --highlight-box-line-color: rgb(0, 0, 0);

        --fade-box-fill: rgb(247, 247, 247);
        --fade-box-line-color: gray;

        --hide-box-fill: white;

        --primitive-value-color: rgb(27, 14, 139);
        --id-text-color: rgb(150, 100, 28);
        --default-font-size: 20px;

        --highlight-object-fill: rgba(255, 255, 0, 0.6);
    }

        text {
            font-family: Consolas, Courier;
            font-size: 20px;
        }
        text.default {
            fill: rgb(0, 0, 0);
            text-anchor: middle;
        }
        text.attribute {
            fill: rgb(27, 14, 139);
            text-anchor: start;
        }
        text.variable {
            fill: rgb(0, 0, 0);
            text-anchor: start;
        }
        text.id {
            cursor: auto;
            fill: rgb(150, 100, 28);
            text-anchor: middle;
        }
        text.type {
            fill: rgb(27, 14, 139);
            text-anchor: middle;
        }
        text.value {
            fill: rgb(27, 14, 139);
            text-anchor: middle;
        }
        path {
            stroke: rgb(0, 0, 0);
        }
        .highlighted path {
            fill: var(--highlight-object-fill) !important;
        }
    
        [data-theme="dark"] {
            --highlight-value-text-color: #110875;
            --highlight-id-text-color: #6e4409;

            --fade-text-color: #BBBBBB;
            --hide-text-color: #121212;

            --highlight-box-fill: #EDB926;
            --highlight-box-line-color: #FFFFFF;

            --fade-box-fill: #2C2C2C;
            --fade-box-line-color: #666666;

            --hide-box-fill: #121212;

            --highlight-object-fill: rgba(72, 207, 173, 0.3);
        }
        [data-theme="dark"] text.default,
        [data-theme="dark"] text.variable {
            fill: rgb(224, 224, 224);
        }
        [data-theme="dark"] text.attribute,
        [data-theme="dark"] text.type,
        [data-theme="dark"] text.value {
            fill: rgb(144, 164, 237);
        }
        [data-theme="dark"] text.id {
            fill: rgb(255, 183, 77);
        }
        [data-theme="dark"] path {
            stroke: rgb(204, 204, 204);
        }
</style><g><title>Group of 1 objects</title><g role="graphics-object"><title>List id84 with 4 elements</title><desc>Elements: id32, id10, id90, id57</desc><g id="object-0"><path d="M49.66823775800214 23.983057957779998 L331.7097231024105 25.41771783165847 L331.59210136942784 176.3924241778594 L51.54534023650204 176.38128370719866" stroke="none" stroke-width="0" fill="none"/><path d="M49.02449396178862 24.245363846275065 C148.8815532127457 25.12749401608372, 248.42186408399886 25.677244024744287, 331.3522262233266 25.238231674418397 M49.637406121376706 25.625768125775014 C153.66674767488172 26.248901764462808, 258.39039535864254 26.515153218580533, 331.31235225888787 24.812597843148247 M330.98873260754243 25.18961896358605 C332.56653102858127 76.65419263303019, 331.0210010376931 124.71324369159292, 333.8697799005062 175.96105010623117 M331.2363736856707 24.854065558797856 C332.78247334689837 67.0373617109034, 333.27748040012193 107.98666297523528, 332.04382302772007 174.12116685095276 M331.1892850652323 175.65015626817055 C246.26374766435606 177.0907646433257, 161.40357110381618 177.17318468744458, 50.76711337650589 174.40643877794741 M332.0373521848414 175.10349772560625 C231.93056595125694 175.58393327309423, 132.23690742270324 175.9449225638103, 49.922462684676155 175.60084053431333 M48.6055439396505 173.41492189864343 C46.56759537329721 115.26593089488811, 48.283910260553355 59.241909000008995, 51.19762793821458 25.4643455726045 M50.90531898312679 174.93885732611574 C50.18467555964512 133.47859121793397, 50.27571455400519 94.02182908757092, 50.860839048466914 25.26934780321914" stroke="rgb(0, 0, 0)" stroke-width="1" fill="none"/></g><g><path d="M50.15741522691373 23.557456223078052 L108.8785541383851 24.82930251679593 L111.64296896021688 76.55131983662208 L51.7291120975821 73.879444699107" stroke="none" stroke-width="0" fill="none"/><path d="M48.13910293016255 25.80379918049354 C70.66845813312896 23.839829633577764, 88.8906932218537 24.54335252839588, 108.59521719416003 24.47336294287426 M49.495265480128175 25.069432153678186 C63.0022797041023 25.50468806307707, 75.7339390056611 24.87524047781225, 109.50668234626256 24.69117244886098 M109.64763661515569 26.917065732122335 C108.67062920209482 43.49146570515009, 111.48998257355949 59.69870934826598, 110.38260162822979 73.90473565279159 M109.51543856423211 24.471294111067436 C109.92698529508648 34.91768731617143, 111.22301303593046 45.268402212601416, 110.56523093905716 75.15059353721541 M110.44519966625866 75.68005680526034 C91.06309991858497 73.45943564097334, 69.86877963422681 76.0958655580563, 48.37297379352432 74.91440712524945 M109.12142334797049 75.24904967807832 C93.23533649832147 74.42425428432975, 75.74380398732671 75.4781033850132, 50.49361069997196 75.77725577288459 M51.48533754486469 74.10336898278953 C50.582921819612224 58.41096384750997, 50.085469561887386 46.748762968138095, 51.23831065548686 25.869756497372308 M49.61889798501642 75.20966461647238 C50.2009312167297 58.53521647048102, 50.21951531231896 42.10919446003769, 50.79006028676622 25.557498953389842" stroke="rgb(0, 0, 0)" stroke-width="1" fill="none"/><text x="80" y="55" class="id" aria-describedby="desc-0">id84<title id="desc-0">Object id</title></text></g><g><path d="M273.37505072427854 25.625021441893324 L332.81185091279553 26.77366777223359 L331.09983444974233 75.43707712758068 L271.1466496381361 75.54840633554593" stroke="none" stroke-width="0" fill="none"/><path d="M272.19755505263385 25.600146871611557 C290.4899487477583 27.09161634529785, 303.6582643093186 23.99752784944735, 331.06994555463257 24.979087875813327 M272.7484150836857 24.664168471133113 C293.3952129779009 24.226378852742236, 314.14032406256905 24.671436196953337, 331.8469627752607 25.145725345226587 M333.6918107489316 26.51925517240729 C332.93218936396323 40.54257394609613, 334.11247499966777 57.065333190960295, 332.52760373556225 73.55793583980656 M331.09561651345985 24.085550440743706 C331.88397440623214 39.145217011030795, 331.6855036556121 55.07677733991626, 331.7367120388698 75.11829965414775 M333.5092865303378 74.33171126052358 C313.65329750481277 73.07820031750981, 294.07806096956267 75.28269956705465, 273.4591779780311 73.63189001385015 M332.78113559295986 74.05781319990118 C315.06077149392974 76.10582398744474, 297.764772153265 74.90915471496125, 271.1168657816975 74.4133819195876 M272.0863702568605 76.00202964759406 C273.196326596375 63.53363143232465, 271.35467358189203 54.052791044693535, 273.16820484766924 23.81176057787311 M271.5188637656074 75.75513893535789 C271.702145511935 56.47372107220834, 272.4831751932391 39.24980879347653, 271.499161817871 25.05883051712585" stroke="rgb(0, 0, 0)" stroke-width="1" fill="none"/><text x="302" y="55" class="type" aria-describedby="desc-1">list<title id="desc-1">Object type</title></text></g><text x="104" y="97.5" class="id" aria-describedby="desc-2">0<title id="desc-2">Index</title></text><g><path d="M73.53150027819457 111.91750387213442 L134.51684104220465 110.30972315459083 L131.49436684956075 160.91623554904737 L75.04714972901992 161.73846237156206" stroke="none" stroke-width="0" fill="none"/><path d="M75.80697406028293 111.47050842767932 C95.82072772025913 108.90638612996459, 117.73856113937258 107.95305164334424, 131.03504041647247 109.08005729478393 M74.96678786223471 110.84481925962237 C94.31618801018395 110.14800336974093, 112.90233078346792 111.06166645054701, 133.4824007424697 110.95671789852169 M134.76559676417432 110.14241767432328 C134.5475818602402 127.99207164316036, 133.46495950124086 149.02069243065438, 133.16743371532883 161.57038812879102 M133.70388895468852 110.53426844188907 C133.24033522715533 121.20039306591472, 133.3913116727517 133.04418597021802, 133.60873357782665 159.78634721594455 M134.109529097682 159.25073210615182 C112.44729292833189 159.32672528635143, 88.195927875204 159.34326312861177, 74.48061624036725 158.24382594906348 M132.0083786971406 159.47283654370386 C114.80281939628561 159.22950838713263, 95.23298668594501 159.09556842427554, 75.81776305421499 159.55291969400815 M75.23017205568098 161.77446197867366 C77.22671020520735 140.63737380267088, 73.75030208493499 119.88668500583684, 73.94932187059312 111.38291203209853 M74.76370467991866 160.83928031091114 C74.39328577448329 148.54481895971688, 75.70487918729918 136.10814232225127, 74.38445683020677 110.59486840318583" stroke="rgb(0, 0, 0)" stroke-width="1" fill="none"/><text x="104" y="140" class="id" aria-describedby="desc-3">id32<title id="desc-3">Element</title></text></g><text x="162" y="97.5" class="id" aria-describedby="desc-4">1<title id="desc-4">Index</title></text><g><path d="M134.83432625056258 109.10986822005832 L191.31148678345704 108.8729428708999 L190.9321107260679 160.3135761477206 L134.36608086686272 161.60445864093472" stroke="none" stroke-width="0" fill="none"/><path d="M133.7669129383341 110.68315911385943 C146.72827020929128 109.89408858289528, 163.88569559970867 111.1688512241861, 192.85786164297033 111.50300157864511 M133.36955060770106 109.86016696842371 C145.71053936870467 111.24223360843811, 157.57678773853758 109.72980786751279, 191.98920960393366 110.30394275100772 M192.41963583001396 109.47646161270846 C192.60908582988537 128.04041055778308, 189.9843455519164 147.1104202332734, 190.93361610655907 158.41941337947847 M191.5442632021327 110.79759903075177 C191.11665438976775 128.50930538734184, 190.22754787448105 148.26169656388268, 190.49039131407397 160.10045357396822 M189.01991286068477 161.69014139451673 C175.14648167659922 158.3199651030889, 158.76280875381227 160.42380599611383, 132.1445917538672 160.08798567379338 M190.67926128803776 159.89124597819594 C171.08352989577352 159.67849871493343, 150.32106560689357 159.37938503372433, 132.28144217281923 160.10898774226092 M132.47921368015173 159.44432439727782 C133.6520363838442 138.54113840462756, 132.21162820115094 121.51912975285298, 134.43726791945406 108.88750326370469 M133.11898924656236 160.91498207881418 C133.7996103094921 149.5444506870324, 133.74524479521276 139.15365434574136, 133.83994160927315 110.82754974655977" stroke="rgb(0, 0, 0)" stroke-width="1" fill="none"/><text x="162" y="140" class="id" aria-describedby="desc-5">id10<title id="desc-5">Element</title></text></g><text x="220" y="97.5" class="id" aria-describedby="desc-6">2<title id="desc-6">Index</title></text><g><path d="M191.3259160499061 111.43618430395607 L249.14710034124116 110.2904356719678 L247.27690889363674 161.65817041917515 L190.90520549246162 161.1318465983636" stroke="none" stroke-width="0" fill="none"/><path d="M190.43990719157568 111.83787889711961 C214.007358803358 109.62249777470043, 236.18590530908557 108.50127013708627, 249.37765092594532 109.1517424120597 M190.0295399424136 110.12653223991913 C203.77220817351989 110.34403559651776, 216.37113228566366 109.98112208926514, 248.87417388837497 110.5703952180813 M250.2366819276158 109.55981973210599 C248.59035748735576 119.23449107385247, 250.38703639819803 131.74289511268444, 247.95198509504667 161.91056888861615 M249.27347745165844 109.42723934127515 C248.8521479364609 124.88682238548905, 248.46304234341662 138.66953727108756, 248.93582551497573 159.27736899734097 M247.64517189122955 160.30152140472248 C234.17158391579807 158.06241428220446, 220.33350515682514 161.3123913508898, 190.07099165835643 158.32164454470984 M248.38751570405165 159.3246223454247 C235.82874337967405 159.42021165248062, 223.13382824611483 159.74183215664522, 190.9099785001581 160.5442164096507 M190.65275769894413 158.4188240140744 C191.01289632947956 142.52818680338973, 191.86218653315976 122.33067159693506, 192.6477362063999 109.67958477362698 M190.13393122355026 159.17562500468026 C189.83718063057415 142.39888935891364, 191.26182264254484 127.04892281662599, 190.84400904038606 110.04788450027881" stroke="rgb(0, 0, 0)" stroke-width="1" fill="none"/><text x="220" y="140" class="id" aria-describedby="desc-7">id90<title id="desc-7">Element</title></text></g><text x="278" y="97.5" class="id" aria-describedby="desc-8">3<title id="desc-8">Index</title></text><g><path d="M250.86631753533814 111.02960358558855 L307.09198746731084 109.43752293293332 L305.85844942755483 160.91472664564483 L249.55458506758532 160.52416978869041" stroke="none" stroke-width="0" fill="none"/><path d="M248.40578776049279 108.12090356107436 C265.13138270452197 111.27056470311771, 281.20262707764334 108.25988242616825, 306.78204757244737 111.10083042679595 M248.34611813514127 109.43809576117975 C261.09321976140524 109.84409603690523, 274.02297161435575 109.55185194632281, 307.1439758418033 109.52310625679918 M306.6242215647362 110.99808005248838 C308.22501652317624 122.20070456377044, 309.1076486591177 131.29965847531906, 308.43834955098475 161.70674358938564 M307.6743605092505 109.27407265328233 C306.6529983362732 123.71020255183244, 308.1416215918152 138.04176622724242, 306.48229246652807 160.6590263975918 M306.9303156032738 160.67554943587257 C290.5236754749484 159.9511845260445, 270.16952225282995 159.92582654425806, 247.7873887438361 161.13554258464347 M306.7574770000467 160.88571114282047 C292.53466937506084 159.740642920041, 276.4859147886038 159.36310611929173, 248.27023083917857 159.5397296287443 M248.17592082615528 158.9572720901831 C250.3697805222298 149.62189753726523, 248.44304962405357 137.2776981850199, 249.4471815782654 110.258295195985 M248.1859816698389 159.61119187459246 C249.25269279259675 147.27926871224727, 249.31537027545082 136.5730944449803, 248.96375634823528 109.01106417491567" stroke="rgb(0, 0, 0)" stroke-width="1" fill="none"/><text x="278" y="140" class="id" aria-describedby="desc-9">id57<title id="desc-9">Element</title></text></g></g></g></svg>