<svg data-theme="dark" width="357" height="225" xmlns="http://www.w3.org/2000/svg"><style>
        :root {
        --fade-text-color: rgb(0, 0, 0);
        --hide-text-color: white;

        --highlight-value-text-color: rgb(27, 14, 139);
        --highlight-id-text-color: rgb(150, 100, 28);

        --highlight-box-fill: yellow;
        --highlight-box-line-color: rgb(0, 0, 0);

        --fade-box-fill: rgb(247, 247, 247);
        --fade-box-line-color: gray;

        --hide-box-fill: white;

        --primitive-value-color: rgb(27, 14, 139);
        --id-text-color: rgb(150, 100, 28);
        --default-font-size: 20px;

        --highlight-object-fill: rgba(255, 255, 0, 0.6);
    }

        text {
            font-family: Consolas, Courier;
            font-size: 20px;
        }
        text.default {
            fill: rgb(0, 0, 0);
            text-anchor: middle;
        }
        text.attribute {
            fill: rgb(27, 14, 139);
            text-anchor: start;
        }
        text.variable {
            fill: rgb(0, 0, 0);
            text-anchor: start;
        }
        text.id {
            cursor: auto;
            fill: rgb(150, 100, 28);
            text-anchor: middle;
        }
        text.type {
            fill: rgb(27, 14, 139);
            text-anchor: middle;
        }
        text.value {
            fill: rgb(27, 14, 139);
            text-anchor: middle;
        }
        path {
            stroke: rgb(0, 0, 0);
        }
        .highlighted path {
            fill: var(--highlight-object-fill) !important;
        }
    
        [data-theme="dark"] {
            --highlight-value-text-color: #110875;
            --highlight-id-text-color: #6e4409;

            --fade-text-color: #BBBBBB;
            --hide-text-color: #121212;

            --highlight-box-fill: #EDB926;
            --highlight-box-line-color: #FFFFFF;

            --fade-box-fill: #2C2C2C;
            --fade-box-line-color: #666666;

            --hide-box-fill: #121212;

            --highlight-object-fill: rgba(72, 207, 173, 0.3);
        }
        [data-theme="dark"] text.default,
        [data-theme="dark"] text.variable {
            fill: rgb(224, 224, 224);
        }
        [data-theme="dark"] text.attribute,
        [data-theme="dark"] text.type,
        [data-theme="dark"] text.value {
            fill: rgb(144, 164, 237);
        }
        [data-theme="dark"] text.id {
            fill: rgb(255, 183, 77);
        }
        [data-theme="dark"] path {
            stroke: rgb(204, 204, 204);
        }
</style><g id="object-0"><path d="M50.48220558824368 24.265515582128725 L330.2514404621161 24.059520727305337 L331.788342538615 176.37940688794467 L49.79456369746512 176.7959486700317" stroke="none" stroke-width="0" fill="none"/><path d="M51.204582238560434 25.171972711558396 C126.54153919289742 24.58393741727516, 202.14162420800935 23.71232615291611, 332.56898831251385 25.765225231947177 M49.80702061722482 24.666867147623627 C136.34021598939697 27.147147925558347, 223.01376588076647 26.421286258488905, 332.3973567893443 24.297538073792712 M333.94355578532765 23.6712037646577 C332.3380401274558 84.43134197869075, 333.5514069324823 138.19693720477952, 333.3826404209069 174.27794139120945 M332.8714865153159 25.40454413056881 C333.5547871002472 61.97876598556038, 332.395560480452 100.44440932140017, 332.41257981363276 175.9465421701791 M332.35716128671226 174.9417258617032 C241.79642673584618 176.948248138344, 151.20245706364406 175.0254364945554, 51.012307197699194 174.72135355618755 M331.76152450182667 175.36811620781125 C255.56666329079738 172.40350646957052, 178.47633140811385 172.724609576708, 50.7042558772155 174.84901398990112 M50.244216449067025 174.09852935226922 C52.260368172962814 139.52593161338353, 49.5743645610394 104.83661377035152, 50.957446239131386 23.58339039996111 M50.35472861502429 174.0839851292662 C49.05205362837164 117.89710213020236, 48.994411607826464 61.43372426484041, 50.388028459969895 24.551526326591482" stroke="rgb(0, 0, 0)" stroke-width="1" fill="none"/></g><g><path d="M75.7074964876182 109.82056043057962 L133.396046758827 108.66959036704964 L131.63457756325784 160.82281718949852 L73.87776643801041 159.46587410817295" stroke="none" stroke-width="0" fill="none"/><path d="M75.00437003277712 111.7939753698165 C94.58780628132521 109.05831210083304, 115.73006275144891 111.17353174999747, 133.61996549610086 110.51334324113512 M75.90533992462407 110.57021038903822 C96.53407342895518 109.00061228351437, 116.08980335446351 109.27630456590092, 133.33488244187745 109.85312936967601 M133.1497290624846 109.47144742149825 C131.28768515349574 124.66543458649731, 130.7681256736762 136.49535130820746, 133.97596411397456 158.3846407071496 M132.08255377725968 109.56134991796954 C134.12867913775372 122.25946830385762, 133.1040300068973 136.23027164273444, 133.9721100927118 159.0271644949 M131.9504424627566 159.93665702532545 C119.46704360583138 159.26916636647528, 101.89896929103753 161.20083039552998, 75.92848255450565 161.2876399737944 M133.6840157319819 159.40776396832996 C116.78765849781763 160.81366756486406, 99.24712297927141 160.47789799725834, 74.03013167188485 160.88896922708034 M73.57848968454081 160.87907920523517 C76.68979658862033 145.0040603003867, 73.59124537386685 130.48230852914224, 74.25313488369758 110.23486276466608 M74.89016719567955 159.24903796676568 C75.29304189088741 140.31466301699172, 75.84084573972034 120.43262475235116, 74.33375420415237 109.33949934476065" stroke="rgb(0, 0, 0)" stroke-width="1" fill="none"/></g><text x="104" y="140" class="id">id32</text><text x="104" y="97.5" class="id">0</text><g><path d="M132.1212728251168 109.68186394013378 L191.950694353738 111.81215531473357 L190.14775897253057 159.13333031912495 L133.91802870339876 161.4580069464211" stroke="none" stroke-width="0" fill="none"/><path d="M131.17779645325166 108.35061358960192 C148.56505926932573 108.86719915669485, 167.25343393555852 108.15528399643925, 189.3721141745738 110.51437929799955 M132.52552950988328 109.638595982447 C147.17690569420802 110.29474479260941, 163.43853193421512 109.52777741947787, 190.41643992793385 109.82176404655897 M189.4419409313574 111.44351173115541 C191.66465473102866 126.48474738022843, 190.7930115861225 142.73638502083378, 190.67807697804434 158.38003140743405 M191.65253700601426 110.55050196523179 C191.65998709250763 123.54451204400087, 191.05531046953834 134.61964289847916, 191.53204243088226 159.90476217994362 M192.04005888155817 158.02358304171446 C177.79693498135296 160.33636336835772, 164.42632140838728 160.19989840384764, 131.8722065606303 158.03737896089976 M190.8485662480973 159.71950233063956 C173.4118547205222 160.93247313717862, 157.5269003368393 160.50288121108022, 133.94215858023378 159.45199975843352 M131.03928439972688 161.09637103366185 C134.75504118999135 138.92928514255863, 134.2633224926647 120.83258344006893, 133.27304822679747 108.15113022965186 M133.8522174664821 159.9064314325208 C132.289073244466 144.12991514514107, 132.34921397193523 128.09128911555513, 133.41397829773086 109.99240349220457" stroke="rgb(0, 0, 0)" stroke-width="1" fill="none"/></g><text x="162" y="140" class="id">id10</text><text x="162" y="97.5" class="id">1</text><g><path d="M189.48295027729958 108.83192992512149 L248.60115924046517 108.0847961123388 L249.6184862936015 160.69274285189556 L191.15661168428258 161.74200953762232" stroke="none" stroke-width="0" fill="none"/><path d="M189.61260094332306 109.11632754285505 C203.41558630261477 111.38881349436784, 216.75675324626008 109.34142253309264, 248.78930428586858 109.76343940004725 M191.4714263124939 110.35456533257562 C211.22501705063348 109.29711404369705, 229.02798550627804 108.75719851447045, 249.13663757006947 110.60250170000265 M249.64046500294162 109.15596269746779 C250.67013970381197 123.28249313532729, 250.30129569365485 137.44166273482182, 247.1617340420823 159.04603886312393 M248.44417129371308 109.22180697053547 C249.80649508360108 128.70631009385752, 249.9197829128827 147.19846607982768, 249.21837452933957 159.220147114114 M250.89812450013653 161.69603827309862 C234.8985285685805 157.76539182265697, 219.41906540161537 160.49120727085804, 191.47860777691196 159.80235210325273 M249.64613832344236 160.1748357617696 C232.22224871391555 159.83133715642927, 214.9687351422873 159.05164169159372, 191.72085814912376 159.70750742692883 M190.93615733489926 159.1139067004049 C189.92296756937762 150.13865672103185, 188.71123343262906 140.01799794205033, 189.69009195986516 111.32036849121675 M191.8127048727212 159.86346163540773 C190.34050228842045 148.32922942025152, 191.21788903934342 137.66640401259713, 191.18321985856676 110.33032532580398" stroke="rgb(0, 0, 0)" stroke-width="1" fill="none"/></g><text x="220" y="140" class="id">id90</text><text x="220" y="97.5" class="id">2</text><g><path d="M249.74400334719707 108.05412736025298 L306.92380420855534 109.83027651401213 L307.6027191443004 160.41595091146274 L248.35113497535994 160.96674892534335" stroke="none" stroke-width="0" fill="none"/><path d="M247.17667424923494 111.22037351697486 C265.54418835316056 108.89493023319332, 287.4293560185579 109.00968255198346, 307.48428029515935 108.15332343143166 M248.03572444812193 110.65795238387577 C264.96884921122495 110.06445119640523, 281.41758289312645 110.50046272588656, 307.3369686935724 110.86780083593611 M308.2197410236175 110.03409219696395 C305.22319094286286 121.95342674425032, 306.9758113620499 135.13713156326926, 306.27040372688435 161.04739676028862 M307.94663459181305 110.48290504344186 C307.851138294067 126.59589898392097, 307.7151948402225 142.2839180341562, 306.6339487900815 160.46875302129268 M308.4104891311931 160.04363417304523 C286.9081867016384 159.4684952102712, 268.84100743605575 159.27892273710992, 250.1764224986666 159.80166617732564 M306.6060915676208 159.47705737017935 C289.96981050809455 160.41540868684922, 273.831013073072 159.98550188514773, 249.41368451550213 159.35216089295298 M247.14095564466024 158.83291965919153 C250.56566300803107 151.22151293983111, 249.84349541280505 139.49835101991985, 247.0529115030405 110.49858110468269 M249.61962008535477 160.42162518529392 C248.6210081939373 149.54798736005003, 248.07936037897196 137.04865491193507, 248.66991001699364 110.76295225291456" stroke="rgb(0, 0, 0)" stroke-width="1" fill="none"/></g><text x="278" y="140" class="id">id57</text><text x="278" y="97.5" class="id">3</text><g><path d="M51.25193707299817 24.372763843051654 L110.95042144337708 24.130022830059445 L109.55333451909475 73.43684682400475 L48.024832474144205 73.45264054575487" stroke="none" stroke-width="0" fill="none"/><path d="M50.80136770482886 25.799818809754573 C66.85818118300968 25.79563500423836, 82.92437924096592 25.49185406642593, 110.93466185216535 23.15435700550278 M49.095429693692495 24.714212119939084 C65.02024382558655 25.75823193887411, 79.60287002369631 24.66713258524404, 109.39457496042583 24.26016055103764 M110.1848620488222 24.229770629296418 C111.73853031477367 37.112333321740046, 110.32318876700543 46.85977864066992, 108.77994965809349 74.39994155898306 M110.29329942583134 25.67012999130381 C110.401739028651 44.74546870771663, 110.60688200932347 63.30272016766283, 110.25555459728649 75.77842566619759 M111.6667356935673 74.99930359503662 C93.3221209850344 72.94618873958886, 76.85470827316738 75.62164875793103, 50.03882019339808 75.21137466018618 M109.90960592582499 74.61700843630679 C91.78081810387991 75.55193100883845, 73.92986253836465 74.8533614985954, 49.308634816587464 75.88284403218233 M48.20785193067715 74.38540195479894 C50.216324498681246 57.950990110145604, 50.28494753407527 42.860581168202785, 49.10750582057153 23.504120506370672 M49.452270565822815 75.59006843766554 C50.161753401809825 59.678101454814076, 49.5267055809846 45.266462415637804, 49.88768371358678 25.93474721574163" stroke="rgb(0, 0, 0)" stroke-width="1" fill="none"/></g><g><path d="M271.7024996151334 25.824721095854606 L332.83563205092946 24.985477206535794 L331.2495396240911 75.64591293360537 L272.2268373522249 75.37379822180445" stroke="none" stroke-width="0" fill="none"/><path d="M272.5816075688481 24.816359123310047 C293.85989692821147 25.93090203376901, 317.5271422268253 23.423725254627513, 330.492262932035 26.643741505286883 M272.3743330893892 24.89027650932157 C292.5239441287615 24.81203248455964, 312.7195722753502 25.05749636193662, 332.1166132368513 25.866003974503354 M331.32936778091886 24.354249568990856 C329.7186991121005 41.61731036800198, 329.87656178692345 63.04442375596252, 330.22898663380346 74.13547040767965 M332.6268362345516 25.213230302805766 C332.85399902429145 38.344703296300914, 332.7981340670415 52.64199489895542, 332.45438314009203 75.12537391304737 M332.17698828552733 75.69605873699348 C306.692982937809 77.35054883732614, 286.4999527227479 74.01014666003775, 273.8189769689411 73.67118214543336 M332.80293054339387 74.710036889225 C319.0433903863304 75.5749130231972, 306.9214037739586 74.62995260955631, 272.7443331082492 74.0597997554519 M270.2990352009817 76.59141248174389 C271.90838358481324 65.77465364331086, 272.3094958766942 54.02502381499595, 272.588763481649 23.330157766150666 M272.3936694374241 74.8056455297794 C272.79184581656324 59.54720210406483, 271.17380223098934 43.76871669440423, 272.39961881510766 25.303622104091403" stroke="rgb(0, 0, 0)" stroke-width="1" fill="none"/></g><text x="80" y="55" class="id">id84</text><text x="302" y="55" class="type">list</text></svg>