<svg width="357" height="225" xmlns="http://www.w3.org/2000/svg"><title>Python memory model diagram showing objects</title><style>
        :root {
        --fade-text-color: rgb(0, 0, 0);
        --hide-text-color: white;

        --highlight-value-text-color: rgb(27, 14, 139);
        --highlight-id-text-color: rgb(150, 100, 28);

        --highlight-box-fill: yellow;
        --highlight-box-line-color: rgb(0, 0, 0);

        --fade-box-fill: rgb(247, 247, 247);
        --fade-box-line-color: gray;

        --hide-box-fill: white;

        --primitive-value-color: rgb(27, 14, 139);
        --id-text-color: rgb(150, 100, 28);
        --default-font-size: 20px;

        --highlight-object-fill: rgba(255, 255, 0, 0.6);
    }

        text {
            font-family: Consolas, Courier;
            font-size: 20px;
        }
        text.default {
            fill: rgb(0, 0, 0);
            text-anchor: middle;
        }
        text.attribute {
            fill: rgb(27, 14, 139);
            text-anchor: start;
        }
        text.variable {
            fill: rgb(0, 0, 0);
            text-anchor: start;
        }
        text.id {
            cursor: auto;
            fill: rgb(150, 100, 28);
            text-anchor: middle;
        }
        text.type {
            fill: rgb(27, 14, 139);
            text-anchor: middle;
        }
        text.value {
            fill: rgb(27, 14, 139);
            text-anchor: middle;
        }
        path {
            stroke: rgb(0, 0, 0);
        }
        .highlighted path {
            fill: var(--highlight-object-fill) !important;
        }
    </style><g role="graphics-object"><title>List id84 with 4 elements</title><desc>Elements: id32, id10, id90, id57</desc><g id="object-0"><path d="M48.70572033623272 25.461909673889096 L331.19003676725515 26.883531170299108 L330.4666693983598 173.19845529253598 L48.137169885754474 175.05046678950575" stroke="none" stroke-width="0" fill="none"/><path d="M49.26696699460614 26.324079406521236 C110.61970417291778 28.155833002650507, 171.37262075343662 27.840032366557864, 332.7863885060422 26.07510196144909 M50.556470909922105 24.646435799052817 C141.9675570278387 24.469037432839958, 233.2478303197746 24.252377411321902, 332.2765358538464 24.721697895574017 M331.29809161398214 25.163292651536207 C333.5808112792466 57.284594510573655, 331.66131722631803 87.57924110136558, 332.47394626353974 174.18583127556613 M332.4539223156214 24.509339793257446 C331.29935959993276 57.037772602479805, 331.02196011220167 89.91602379535871, 331.9623296656421 174.84675747868536 M331.4610147065352 175.02066074579102 C250.1783821949193 176.05262207119367, 166.7703462993971 174.599261705464, 49.42912390041461 176.4776582322489 M331.82659745751243 175.15475769181222 C267.2415439104115 174.13298106411588, 202.4136558792641 173.98412351136625, 49.44749448038511 174.55658507974755 M48.94239243462889 173.31420222530534 C47.03429048200235 115.46859651717591, 46.956380100040036 58.7924391104954, 48.76698489809241 25.250786521768767 M50.93023562860236 175.6597511059996 C51.00587227819961 142.85096624243124, 49.67518003557299 110.37413610673305, 50.054013568348864 24.963032963862656" stroke="rgb(0, 0, 0)" stroke-width="1" fill="none"/></g><g><path d="M73.16679501474934 110.89415221964798 L132.1235689902522 111.93994427281145 L131.44570906325416 158.43605755879523 L75.6411031157037 160.97505094955653" stroke="none" stroke-width="0" fill="none"/><path d="M74.81137231309984 110.29808686142422 C90.82611205681039 110.42843500961432, 111.22377490949376 109.71401668677068, 131.19862726882147 108.59530037389912 M74.81925228328873 110.48995086007679 C92.59984670789517 111.21139696676823, 108.13390800024779 111.39700414770851, 133.21241932384888 109.73066143048406 M133.54342922962388 109.90591326647993 C132.860302625459 121.66695153802803, 132.6700252680418 130.33242761945294, 132.0172341704374 161.39473086164935 M132.45517426869776 110.04080612134564 C133.95267370038232 129.8697965152495, 132.5239603160925 149.23962015603155, 132.57918279052961 159.3870267282599 M134.33003087604448 160.55250618034734 C112.4535089501327 160.90911410211643, 93.3148811760517 160.4875527824695, 76.64079335363901 158.74809409026517 M133.38431039743108 160.78451433685706 C119.3653070870609 160.37672427829585, 104.19311496128559 161.00074615307923, 74.10378970226921 160.3761583357852 M75.45323536548916 160.7900757352752 C77.19315120058431 149.52989184581355, 74.48018500626755 136.21007505706248, 74.09633041776986 111.6627007258836 M75.78478283916738 160.76932492826265 C75.70725365175036 147.9870890482546, 75.64308926458139 137.6053126977204, 75.71263997952556 110.36097072394169" stroke="rgb(0, 0, 0)" stroke-width="1" fill="none"/></g><text x="104" y="140" class="id">id32</text><text x="104" y="97.5" class="id">0</text><g><path d="M134.77071524632663 109.64882115000658 L190.99193234682534 108.85840564976064 L190.03373863480502 158.89404692850766 L132.25599392400815 159.60428765409387" stroke="none" stroke-width="0" fill="none"/><path d="M131.11356445425432 111.34350389398637 C146.50470107920668 109.20658877273671, 158.29573873155638 111.76898109105491, 189.42086960468876 108.96177672935919 M133.29204895992208 109.03891221418623 C150.05083924756266 110.35937388930977, 165.36460327116689 110.81769134066441, 191.1278347312714 110.44094551564163 M189.14071081862627 108.39278402168506 C191.0756926099946 130.15074951009203, 190.45613513459435 146.35696392133542, 190.75003147789946 161.61563949040107 M191.85416377914038 110.85282277672053 C190.60936132340868 128.1163566799854, 190.90118177367853 144.92003246027502, 191.32406289282682 159.8719711907205 M192.93049298013432 161.3141879291023 C174.7515293346493 159.33806102320412, 157.18796475272768 161.88395299319822, 134.98084311507202 158.79344229749574 M191.64322030187162 159.01235353640382 C168.52193493469684 160.12663493061368, 144.49096886006774 159.92126627096215, 132.20807029826915 160.3456638773279 M133.94639868633757 159.73673362024581 C134.4239990786217 143.0868836142544, 132.44552786722969 122.1638194657294, 134.45976578072677 111.12011816199691 M132.65989264160257 160.50924775670202 C133.56289455365592 146.3781850827917, 133.77639506054496 132.59666238616745, 133.98587452670495 109.08063377480046" stroke="rgb(0, 0, 0)" stroke-width="1" fill="none"/></g><text x="162" y="140" class="id">id10</text><text x="162" y="97.5" class="id">1</text><g><path d="M189.0507652310083 110.3461936080619 L249.8629518191839 108.44987356261281 L249.73627043689692 161.34658117216574 L192.43027955800707 161.32414810563935" stroke="none" stroke-width="0" fill="none"/><path d="M190.38856345288374 111.1376863498582 C209.85091418373938 110.66509735821593, 231.5813418706855 110.11384151961522, 248.53899717436727 109.27766925561608 M190.20933989297373 109.690511803607 C206.13723267666444 109.60946649749818, 222.6610317209467 111.33969325985991, 249.17108390310023 110.21036409450907 M249.0707709584841 108.79746445399928 C249.8534190318082 126.5564413725899, 247.78591434770826 140.22959080725786, 248.5058755460229 159.42875071575423 M248.17981316774157 109.36862277032928 C250.11380530170086 129.2565103149431, 250.17466344272543 150.17743441520406, 249.09846726092772 159.94746092816789 M248.02465050633268 158.63096438344633 C232.55582813596038 160.32194131493975, 217.82587204565863 157.97290997833517, 190.06585059636066 161.01065566487907 M249.7279098364915 160.59191966538265 C236.81441816051884 159.49535713499313, 224.4901636861678 159.04829414108525, 191.15196634029482 160.78154974017426 M192.30278293788044 159.1523613010662 C192.94086744453435 143.73066305538364, 192.8545444347453 122.19980113869748, 189.17167372633742 108.57676179748529 M190.41242940239383 159.10464097806354 C191.04221690298726 140.39735542905615, 191.31197782619464 122.31029718682652, 190.8740248785644 109.08596910735551" stroke="rgb(0, 0, 0)" stroke-width="1" fill="none"/></g><text x="220" y="140" class="id">id90</text><text x="220" y="97.5" class="id">2</text><g><path d="M248.35312991093468 109.5813612407298 L307.20437991380635 110.41279003451088 L308.9049615535569 158.03704852214253 L250.5090318231843 160.4590795034093" stroke="none" stroke-width="0" fill="none"/><path d="M249.84562801484665 108.01834889945235 C261.3404367968528 107.76228040850394, 274.11970286628815 109.45249757265847, 307.2963901930123 110.05485744709523 M248.539756941415 109.30907378167186 C264.71585515076566 109.9101361308084, 278.1830809422966 110.91858231206763, 306.1992050514923 110.44116545933426 M305.65301147896156 108.31801623540676 C308.3940028436929 127.31641429231043, 305.34194206856415 143.15356500098605, 307.33610475554013 161.87742190024574 M306.7327358015028 109.96761298038463 C307.4926565759124 126.66111175872062, 306.02250395901706 143.5854266507511, 306.3146175243904 159.1434752222398 M308.6475003924345 160.2238595718308 C289.3909077472541 162.13408126191172, 274.04551070828626 159.5298418410857, 247.48894808754775 159.9290924798223 M306.1258347230704 160.73050497563324 C287.27872292403964 160.65211952852616, 266.00067225832294 159.75646412237617, 249.87559779491485 159.0270969337237 M248.96927448807716 159.58237775042812 C250.88547632209642 148.0746870975801, 247.479315408962 138.1587975154935, 249.79322046118216 110.21639319373766 M248.05471906557528 159.3209100262559 C248.20296978363794 144.25726863801864, 249.68333132695702 128.9242996347895, 249.24905229116652 110.62646461147317" stroke="rgb(0, 0, 0)" stroke-width="1" fill="none"/></g><text x="278" y="140" class="id">id57</text><text x="278" y="97.5" class="id">3</text><g><path d="M48.8049001941228 23.14403278773507 L109.60440795887673 26.29173170998386 L110.123220540406 74.5921374273957 L50.26731560213784 73.81924808130735" stroke="none" stroke-width="0" fill="none"/><path d="M49.32683502069425 23.323373072274798 C69.78101243123385 24.848391995352944, 91.59353735181467 25.160636329554137, 109.89398001586143 26.35762589083396 M50.34351992566046 24.286129669099616 C64.4597856305846 24.890939223101665, 78.70691252237734 25.822810871303066, 109.978346075008 24.716621625629042 M109.41203717722931 24.317094158401 C110.22245349097064 39.024898353009114, 110.29404368763132 56.90196366063178, 109.86079270019631 75.40876182059733 M110.16337684290352 25.427313056831718 C108.83274523057848 42.877575432076235, 110.61804997494107 63.11259940909292, 109.53240858390107 75.48822764505407 M111.62520861158251 73.92902413663192 C89.65194162710686 73.49503071949188, 66.94591712845745 75.32671706492562, 51.88591717470308 76.7459882125982 M109.9355087287328 74.56861924954399 C97.20103543517283 74.47816946426764, 85.6084445386423 75.0508931914795, 50.087419807877644 75.93413809307539 M51.53213616168581 76.91684282952082 C51.78819143874246 62.892980042169775, 51.808874884411885 54.45891019713144, 50.90778333968066 25.236201649663094 M50.0267951421657 74.18759874353762 C50.34414782510445 64.2705890255003, 50.388394866099155 52.091013778123134, 50.2687318508197 25.224091613265742" stroke="rgb(0, 0, 0)" stroke-width="1" fill="none"/></g><g><path d="M273.9454407388716 25.996447998424053 L333.13229586778095 23.49350424139942 L331.1386182890087 76.41151835976754 L273.06747452699733 75.5680845870857" stroke="none" stroke-width="0" fill="none"/><path d="M270.0815456549312 25.951397694148508 C292.20925775802385 24.85267984846849, 312.6755163237721 25.238124393645823, 333.00231111720547 23.912987500009557 M272.21103528317815 25.461162587727983 C285.22455743146776 25.38999735902314, 301.0288751854477 26.21507215515542, 332.15960876493943 24.24678311198894 M330.5696812434341 25.146520972941904 C329.99092850472823 36.852574746750214, 333.7066664580568 53.43687383625051, 332.2361520697695 73.58898215082758 M331.40703895585057 25.63769043748848 C331.2783159618695 38.96878487077407, 330.84909312597944 52.52170710947784, 331.12777589875935 74.17225120516947 M331.60507037195725 76.31625926089869 C314.4635365782831 73.54468155906878, 293.9263079132482 73.51226481120125, 270.3108159223291 74.77117830546639 M332.1996594316294 74.9614738265482 C319.7506993530011 75.7015517818635, 307.19573360420884 73.9529939408331, 271.322491735343 75.29140818989714 M271.0919915863899 76.48789045451522 C271.8027030989708 54.619581654867254, 272.78157502489745 38.29735734583285, 270.91940993169715 26.90893711621569 M272.0782950901055 75.75505872034448 C272.0983341796013 56.534636395803744, 273.053819372883 36.46365374284721, 272.451691901275 25.335306739242267" stroke="rgb(0, 0, 0)" stroke-width="1" fill="none"/></g><text x="80" y="55" class="id">id84</text><text x="302" y="55" class="type">list</text></g></svg>