<svg width="357" height="225" xmlns="http://www.w3.org/2000/svg"><title>Python memory model diagram showing objects</title><style>
        :root {
        --fade-text-color: rgb(0, 0, 0);
        --hide-text-color: white;

        --highlight-value-text-color: rgb(27, 14, 139);
        --highlight-id-text-color: rgb(150, 100, 28);

        --highlight-box-fill: yellow;
        --highlight-box-line-color: rgb(0, 0, 0);

        --fade-box-fill: rgb(247, 247, 247);
        --fade-box-line-color: gray;

        --hide-box-fill: white;

        --primitive-value-color: rgb(27, 14, 139);
        --id-text-color: rgb(150, 100, 28);
        --default-font-size: 20px;

        --highlight-object-fill: rgba(255, 255, 0, 0.6);
    }

        text {
            font-family: Consolas, Courier;
            font-size: 20px;
        }
        text.default {
            fill: rgb(0, 0, 0);
            text-anchor: middle;
        }
        text.attribute {
            fill: rgb(27, 14, 139);
            text-anchor: start;
        }
        text.variable {
            fill: rgb(0, 0, 0);
            text-anchor: start;
        }
        text.id {
            cursor: auto;
            fill: rgb(150, 100, 28);
            text-anchor: middle;
        }
        text.type {
            fill: rgb(27, 14, 139);
            text-anchor: middle;
        }
        text.value {
            fill: rgb(27, 14, 139);
            text-anchor: middle;
        }
        path {
            stroke: rgb(0, 0, 0);
        }
        .highlighted path {
            fill: var(--highlight-object-fill) !important;
        }
    </style><g role="graphics-object"><title>List id84 with 4 elements</title><desc>Elements: id32, id10, id90, id57</desc><g id="object-0"><path d="M49.33937951167648 26.45102618330585 L331.62356611816534 24.83108701933654 L333.48162307598176 174.10204883925178 L50.935155934747236 174.53104477494122" stroke="none" stroke-width="0" fill="none"/><path d="M51.22345757039566 25.971910534344982 C154.12035087668866 25.156392536168102, 260.9405314533553 25.881413403523073, 330.52971707806995 24.804195009648833 M50.58236610367139 25.549742290768187 C158.3756502604358 23.28662837779393, 266.7939604930627 23.659110044687946, 332.419421633875 25.57148025043998 M333.10703969249937 25.018583575755688 C331.6950564493327 79.9618221525257, 332.97048520988966 130.64974427846641, 330.38335491879644 175.0831535527451 M332.5253649556436 25.919164896470164 C333.2314958871802 75.06983002025336, 332.7232322265118 123.72841168050365, 332.89016490465 175.68010718055444 M331.17612009068444 174.75771250535794 C219.7188925984754 178.01522954996494, 110.33443553700914 178.51023852773042, 51.3873159473609 176.14207902065132 M332.45287872740425 175.15434653881331 C223.43009037655722 173.53463633299208, 113.61476785004969 173.0978911366259, 49.29025693864884 174.28639716574006 M50.309517936265756 176.1028095508673 C51.28371164335738 133.94286748773428, 51.34255593843055 95.47567858626527, 49.03438022848575 24.986108820958584 M50.18941782516823 175.9644617056668 C50.60987840058699 139.8386008803423, 50.31483607658062 106.40495989863796, 50.511275284260215 25.994008499210913" stroke="rgb(0, 0, 0)" stroke-width="1" fill="none"/></g><g><path d="M76.48639410841528 108.49809614706167 L133.0095816857449 111.81964846520997 L133.15628671443307 161.16066107944053 L74.55462080838393 160.03875120598332" stroke="none" stroke-width="0" fill="none"/><path d="M74.92159041250282 108.64595422141461 C91.99512806650408 110.24598186125675, 104.36464578485437 108.44435867759363, 132.46607517024788 111.22076489139397 M75.70882991086486 110.35643786023132 C93.9858555525808 109.15655091095199, 114.05678382705428 110.3863484990418, 133.64629136744145 110.79089639739175 M134.89908701869174 111.96775379373452 C132.64267800636438 120.51021389762691, 133.97849435110135 132.25089950641475, 134.9612103081478 161.7504113813215 M133.45728608221683 110.35955128615267 C132.18863093909263 127.2222322455432, 132.27542970552807 142.38650952705626, 133.46845525764252 159.44866434015262 M132.91105231883546 158.09793214897653 C114.16873012421438 161.97081538836295, 94.58715033204611 159.01569321751788, 73.03954691112109 161.89442293503834 M132.37781766480373 160.5770291996918 C117.4240657285721 159.0900800692092, 102.81107890984411 159.07803201155784, 75.30564314572426 160.2293454404305 M73.17054122107561 158.05736598994847 C76.11168331967426 145.7646163308081, 75.51444728691109 131.8425034852065, 75.60118168903597 109.88013965273643 M74.49838459314267 159.57674474266472 C75.26090671019773 141.343849918991, 74.6601206496227 124.28985361364533, 74.34227469976899 110.16007715147393" stroke="rgb(0, 0, 0)" stroke-width="1" fill="none"/></g><text x="104" y="140" class="id">id32</text><text x="104" y="97.5" class="id">0</text><g><path d="M132.4448958943824 109.73746020296895 L192.30225127949726 111.03837704307817 L189.99298295123896 159.110234608813 L134.94295001933943 159.20880840353578" stroke="none" stroke-width="0" fill="none"/><path d="M131.67748792147577 111.48808242199478 C147.96978134440906 108.82188584783022, 166.59032724686062 109.01253580522922, 189.9098949226697 109.22667650686813 M132.30105110438416 110.30546748418301 C149.85197422592668 108.81509689087389, 166.7585062576801 109.12806430555972, 191.21483497392427 110.83759836120949 M189.28169248049892 109.30975785101796 C191.39285185264876 122.1521765269481, 191.29267041553268 133.85022488914015, 192.1598080500916 159.06168555911057 M191.18248624943138 110.87757748450842 C190.71995466931068 122.79146358791137, 191.15890236730027 135.11980791822853, 191.98613389067913 160.3116108488825 M190.23372706643366 160.93374267022872 C171.46385803417434 158.44245168799756, 149.3858359168376 159.15678677187486, 131.25221190704227 161.08947845767227 M191.7145197034181 160.42621501574286 C171.48353668403632 160.4895741924878, 150.88688691181258 160.58342502115678, 132.32171408472468 159.3688158877078 M133.42044142223213 160.1677179808455 C132.44915522096645 141.55979815210625, 134.9327046169754 124.44945447837179, 133.80962870374046 109.11316391739844 M132.4054719749151 160.14744591398025 C132.10772801124267 142.24707515552547, 132.7308063729125 125.40189384166239, 132.21893398706666 109.13234833911031" stroke="rgb(0, 0, 0)" stroke-width="1" fill="none"/></g><text x="162" y="140" class="id">id10</text><text x="162" y="97.5" class="id">1</text><g><path d="M189.4560657459849 109.26019641571074 L249.64465994542928 108.94895733403149 L248.41323843513672 159.51160670531547 L190.76429714662999 161.84204668866036" stroke="none" stroke-width="0" fill="none"/><path d="M191.8896769475407 108.40894240059154 C213.68805432243863 108.94135723154035, 235.40573806441438 108.62604128228253, 250.48584879654672 110.78041178456114 M190.82872641028908 109.09981264299515 C208.32905923743857 109.19557603837, 225.96536889580742 109.19763068965219, 249.194882721696 110.84034471005585 M247.35016542857352 111.22608736624865 C250.55683470453891 123.73992501315774, 249.62379605223413 141.0766898275603, 247.20370776112378 160.80616367442616 M248.89565732987876 110.35656400967504 C248.16604695991373 119.38444671051953, 249.29326752996997 130.9187512200159, 249.94186490075666 159.67360290842757 M247.76846105360661 160.99996895247065 C230.00117237587577 158.73573437905227, 214.69166893533693 161.23025289794964, 190.5944082499356 161.62471310419696 M249.1051134446302 159.340374089198 C228.61081415080636 159.30189670083007, 206.61106780835266 160.40630613466882, 190.96411530855428 160.14149150946878 M189.5428344178654 161.10303317440278 C189.33423730412002 148.43540905693715, 189.1121690963272 133.1680181221888, 191.83403851255588 109.46200311422783 M191.51495720708596 160.22287725379698 C191.41073582565085 148.7147161982943, 191.93338001701784 135.738792715846, 190.12005275624838 109.2702422354397" stroke="rgb(0, 0, 0)" stroke-width="1" fill="none"/></g><text x="220" y="140" class="id">id90</text><text x="220" y="97.5" class="id">2</text><g><path d="M248.43361496625803 108.42993838145131 L307.8321881089866 111.28566574408984 L306.2741962494807 161.85522196720933 L250.71770681971344 160.70012412892368" stroke="none" stroke-width="0" fill="none"/><path d="M247.67567983199788 109.77426337389097 C261.0983302524619 110.48222024419307, 272.30063425126417 108.28125413643487, 305.3897968887957 108.72528799809784 M249.80114076251502 109.7471172262881 C262.50248403780955 109.59925144114138, 273.80124288635204 109.44194253913487, 307.50984548727104 109.38466781938861 M307.53639200358424 111.8526590738335 C309.2294922268065 123.5134816126358, 308.1338364287936 134.25853236479068, 307.2925082165099 161.39917725323346 M306.0914696596069 109.59523136295047 C308.03671671094907 130.16789926196918, 307.77883788860845 149.531101923978, 306.9376375288655 160.30906216750896 M305.19707305196107 161.9368432805074 C289.0886269919123 160.04890547679952, 269.9654952553061 158.30306811798573, 249.92633800710846 161.05433145368846 M307.94826628030495 159.60655972076353 C289.3403895788957 159.6667999717939, 270.1146353858851 159.389473192637, 249.95249895048303 160.98629019168715 M247.62257175202367 158.09227887940455 C249.23849985985612 146.81072010077514, 248.4250572367549 136.80286909054027, 250.19874325294944 108.63747437610364 M248.46100443053368 160.35853712559197 C249.6289147705629 141.06180074501435, 248.18747854653876 122.79665151820538, 248.555305914035 109.7710043432517" stroke="rgb(0, 0, 0)" stroke-width="1" fill="none"/></g><text x="278" y="140" class="id">id57</text><text x="278" y="97.5" class="id">3</text><g><path d="M49.98016913765716 25.760027017842813 L111.76836359352383 26.269241125697874 L110.55022454844631 73.17586539927674 L48.79930811247348 76.5429639124289" stroke="none" stroke-width="0" fill="none"/><path d="M50.656487777728344 23.939791028114122 C64.2117573005053 24.31995516351479, 78.2982275980253 25.382233704439773, 109.1206518195176 24.197582980293554 M49.64714014948045 24.175379193795674 C72.15998862500948 24.044676737381593, 95.01744567806588 25.07346901278784, 110.64879678389238 24.42123464093161 M110.46294275596058 25.466228372510443 C110.85050621027814 42.87409742648212, 111.3709927903221 60.38598295503303, 110.22908222431646 75.83804962054998 M109.65359816516772 24.160151729976693 C109.93722148998475 45.15654435561892, 110.23157836832591 64.51993040737244, 109.31784915644138 75.14485759968977 M108.57858808994818 74.6419103641778 C85.28063454522794 75.73766763762258, 63.895184326180875 75.0273850071007, 50.1664290829384 76.95866730857877 M109.06098161621523 75.91218789973661 C90.86832339704567 76.01138271735113, 71.32510931599447 75.0330288296967, 49.069147379371266 75.62473170005951 M51.36481060536971 73.469860121635 C50.79484955170471 54.63031375419686, 49.4015168392609 38.75309694385123, 51.86355515015308 23.280133344662755 M49.99897395923417 74.7072852545982 C50.11354435073704 63.48293359182072, 50.76243654674176 51.648102471567434, 49.40855512332896 25.75127634082369" stroke="rgb(0, 0, 0)" stroke-width="1" fill="none"/></g><g><path d="M272.07124600079 24.95666433239277 L331.10615336800396 23.730096379842102 L331.4678221745574 74.44001349690545 L270.3166275426793 74.92101678737782" stroke="none" stroke-width="0" fill="none"/><path d="M271.94439082234464 25.94766625858091 C287.4099907191831 25.390502987772404, 302.8236970819814 26.314170294492847, 330.5594137588145 24.690112460712648 M272.2449725770073 25.501231982181025 C291.10891805777186 26.288227829687866, 307.6399782835718 24.779656680989056, 331.82283359899566 25.765841404867558 M333.2334559682983 24.590446722408576 C333.5929965680584 44.52465000083347, 331.25879698512534 63.10052613618267, 331.74163228607495 76.04343997733834 M332.3310362420225 25.848201607692292 C332.4723747596325 39.597926856871716, 332.06721477257094 54.89086207993654, 331.1301492605315 74.21625881737857 M332.81410140520796 73.79394919734875 C309.8686911321015 76.57830972894068, 292.1444440333033 76.24734411730938, 270.60609879501305 74.69633415233724 M332.66079312137083 75.9185580500275 C314.26149964874884 75.53269339040045, 296.5601029698654 75.82571373412232, 271.7505365614491 74.50910561809067 M273.30896641423413 75.65859356440228 C270.0983030330155 62.320035041203916, 271.37574797578634 44.78727162160185, 271.5152092285619 25.657506363755868 M271.83967935265196 74.9210638996967 C271.1930870731036 59.4175829784553, 272.2322284789504 43.72353421615358, 271.56879265180135 24.97786806052343" stroke="rgb(0, 0, 0)" stroke-width="1" fill="none"/></g><text x="80" y="55" class="id">id84</text><text x="302" y="55" class="type">list</text></g></svg>