<svg data-theme="dark" width="473" height="500" xmlns="http://www.w3.org/2000/svg"><title>Python memory model diagram showing stack frames</title><style>
        :root {
        --fade-text-color: rgb(0, 0, 0);
        --hide-text-color: white;

        --highlight-value-text-color: rgb(27, 14, 139);
        --highlight-id-text-color: rgb(150, 100, 28);

        --highlight-box-fill: yellow;
        --highlight-box-line-color: rgb(0, 0, 0);

        --fade-box-fill: rgb(247, 247, 247);
        --fade-box-line-color: gray;

        --hide-box-fill: white;

        --primitive-value-color: rgb(27, 14, 139);
        --id-text-color: rgb(150, 100, 28);
        --default-font-size: 20px;

        --highlight-object-fill: rgba(255, 255, 0, 0.6);
    }

        text {
            font-family: Consolas, Courier;
            font-size: 20px;
        }
        text.default {
            fill: rgb(0, 0, 0);
            text-anchor: middle;
        }
        text.attribute {
            fill: rgb(27, 14, 139);
            text-anchor: start;
        }
        text.variable {
            fill: rgb(0, 0, 0);
            text-anchor: start;
        }
        text.id {
            cursor: auto;
            fill: rgb(150, 100, 28);
            text-anchor: middle;
        }
        text.type {
            fill: rgb(27, 14, 139);
            text-anchor: middle;
        }
        text.value {
            fill: rgb(27, 14, 139);
            text-anchor: middle;
        }
        path {
            stroke: rgb(0, 0, 0);
        }
        .highlighted path {
            fill: var(--highlight-object-fill) !important;
        }
    
        [data-theme="dark"] {
            --highlight-value-text-color: #110875;
            --highlight-id-text-color: #6e4409;

            --fade-text-color: #BBBBBB;
            --hide-text-color: #121212;

            --highlight-box-fill: #EDB926;
            --highlight-box-line-color: #FFFFFF;

            --fade-box-fill: #2C2C2C;
            --fade-box-line-color: #666666;

            --hide-box-fill: #121212;

            --highlight-object-fill: rgba(72, 207, 173, 0.3);
        }
        [data-theme="dark"] text.default,
        [data-theme="dark"] text.variable {
            fill: rgb(224, 224, 224);
        }
        [data-theme="dark"] text.attribute,
        [data-theme="dark"] text.type,
        [data-theme="dark"] text.value {
            fill: rgb(144, 164, 237);
        }
        [data-theme="dark"] text.id {
            fill: rgb(255, 183, 77);
        }
        [data-theme="dark"] path {
            stroke: rgb(204, 204, 204);
        }
</style><g role="graphics-object"><title>Stack frame for __main__</title><g id="object-0"><path d="M23.226524963817027 24.01573716353499 L224.90984616664696 26.433347404938743 L222.9707819812486 473.05815060089174 L26.345963797979845 473.67437696215666" stroke="none" stroke-width="0" fill="none"/><path d="M23.72717322252937 25.518119818543187 C76.96516006452643 23.135054264109193, 131.3952775583635 24.559410661605508, 221.18823422497655 25.31505297116042 M25.941662073819828 25.667816550970628 C81.01092247232503 24.70774084948131, 138.2687152183483 24.222629315404145, 223.36089270812764 25.261099154511648 M223.78810180438848 25.943461587321877 C223.9362251783945 153.6257481476672, 224.51747017509578 281.16639891660463, 222.56049861330857 475.87449861057706 M223.17942352346998 25.256165387640614 C221.05497448026208 174.53857425899642, 220.6280880589794 324.1923368170802, 222.65770432604367 475.0269963343975 M224.59982674503456 476.8243210923351 C182.2510103790046 477.286584957392, 141.0710142455138 473.7929702916507, 26.44001943343912 476.92139489915434 M222.38997986681562 474.06506618085115 C164.37798511294028 474.4930370304385, 106.86743589458139 474.458515708557, 24.693321554739747 475.91331432982656 M24.67365868957408 474.29625129466933 C25.76136560586562 344.2279326201243, 25.976811822743922 213.5046311983548, 24.650210411814555 25.396885328683883 M25.480578444772544 474.71104588169277 C25.165470658865715 374.13440303221654, 25.012652217061152 273.05444476120044, 24.757379982193196 24.96283906330082" stroke="rgb(0, 0, 0)" stroke-width="1" fill="none"/></g><g><path d="M23.43732680467606 24.692891503369843 L131.70754091986686 26.91867458049083 L131.70976208697084 74.90824421780172 L23.530326826007865 75.62334441431817" stroke="none" stroke-width="0" fill="none"/><path d="M26.1745944228288 23.95009449180326 C60.03497771487156 24.30826068053198, 96.63545349071313 24.790606950044438, 129.9055547522919 25.857794721897704 M24.21454717459883 25.522331677885166 C62.74944641911969 26.929381410670917, 101.08273624427261 26.77374602208814, 131.020052242901 24.806451612367564 M131.82704645814206 25.325716834243117 C129.5950568631552 39.86155050803316, 128.54232455640144 49.461822600775385, 131.86928109905568 75.20681194347772 M130.06864741728893 24.23205032577749 C130.99276842843187 36.53419575607585, 131.02586462239347 47.19501708477488, 130.9593667567806 74.73841786034345 M129.03233879933546 74.9492987088802 C87.63679342811702 76.91892825980534, 47.39572854626325 75.91635686313809, 24.072874826507107 74.61053403497624 M131.21960590091908 75.74674172527973 C101.72287099599737 75.97088598072783, 71.24134805387544 74.71647644459296, 24.890187734656767 75.9185705268856 M26.013319027659364 73.63762557784877 C24.729936092736196 54.91882815618354, 23.713576947122174 36.88570580380842, 25.40793646069893 23.779454103056736 M25.876780483507552 74.35182268269111 C24.465661720522494 58.80914238003941, 25.507590925815492 44.00430745107985, 24.824074838465545 25.460507178784724" stroke="rgb(0, 0, 0)" stroke-width="1" fill="none"/><text x="78" y="55" class="type" aria-describedby="desc-0">__main__<title id="desc-0">Function name</title></text></g><text x="50" y="130" class="variable" aria-describedby="desc-1">lst1<title id="desc-1">Parameter name</title></text><g><path d="M149.1794226009955 98.01104874745272 L207.71882779488485 101.2411327992635 L205.84908120189147 151.3529793912206 L146.0855057942159 150.2090260359627" stroke="none" stroke-width="0" fill="none"/><path d="M149.45812062876044 98.85853346340357 C161.11138285829406 97.75440854198516, 174.57524700038385 98.50052572934906, 204.5990008849671 98.28095627852491 M148.48953403127433 99.0104770447165 C169.426238035863 100.34751910731934, 190.07813950805976 99.78070098140341, 206.33653205385676 100.50257924880822 M207.21318241594597 100.48613966946729 C206.37790944408576 118.23076481425639, 208.05181572293273 132.8098651429808, 207.4011221939871 150.65218658925772 M206.96608562171068 99.9890129495789 C204.818008163903 110.89525459194556, 206.32190088595226 124.21454927994766, 205.98684321988438 150.5988017276195 M207.7767439787313 151.628331508252 C184.45621139028935 149.1870017316542, 165.51778854921352 151.28762564470685, 149.9465805753786 148.4914250986114 M206.42220515341424 149.90482534466645 C189.5459993127709 148.77046360898842, 173.5937654520623 150.01294296440386, 147.7872691979039 149.2781588805109 M148.535279054744 150.06951702615655 C146.7676953025396 137.5729137476599, 147.59125899522468 122.60061012007229, 149.35482106142558 98.08159151573886 M148.56671762331428 150.18395216230064 C147.99949519645503 134.15200479675482, 147.88431026499373 118.07430825066143, 148.1309881169459 99.35015263185826" stroke="rgb(0, 0, 0)" stroke-width="1" fill="none"/><text x="177" y="130" class="id" aria-describedby="desc-2">id82<title id="desc-2">Parameter value</title></text></g><text x="50" y="205" class="variable" aria-describedby="desc-3">lst2<title id="desc-3">Parameter name</title></text><g><path d="M149.05120024816108 174.53653243313136 L205.77577152980837 174.38876499806972 L206.37380921593157 223.78243588864967 L147.73889579383342 223.06445424533257" stroke="none" stroke-width="0" fill="none"/><path d="M146.88250589318017 175.7322129855451 C165.40402688220752 173.59952815158982, 187.43033363189573 175.84757349258808, 205.89580355345734 173.73837656347038 M148.40963206016178 174.47878552650297 C164.24688620392587 174.48859954525543, 180.16037019536037 174.99747619296724, 205.81706695614758 175.47323974128258 M207.55085340967938 174.4625167223686 C207.64275532506858 194.58803552002797, 207.4311828420694 211.57362155547716, 206.25479594982835 225.78443271381968 M205.12120422065456 174.22042120713928 C207.14468660122668 188.4600208578062, 205.8365869484639 201.25068745580808, 206.66303877499706 225.11266300825451 M207.1979988814797 224.01665065425018 C182.21564805936794 225.51949321693397, 161.15415723481976 224.4990585258513, 149.3710577231314 223.07277283720265 M205.27893419977596 225.273994353849 C190.7593317650259 224.25963439488586, 176.17875614368785 225.15717871236944, 147.05478118360145 225.51989926210652 M148.7708888168909 226.77932600339855 C146.6143120293477 212.70768939467902, 148.55706492480178 205.13576225511534, 147.48379900136817 176.723526167662 M147.4025616276185 225.55509372252746 C148.02387103345464 206.97714770396146, 146.92690716721964 187.39855368160426, 148.50815074323302 175.3877320560478" stroke="rgb(0, 0, 0)" stroke-width="1" fill="none"/><text x="177" y="205" class="id" aria-describedby="desc-4">id84<title id="desc-4">Parameter value</title></text></g><text x="50" y="280" class="variable" aria-describedby="desc-5">p<title id="desc-5">Parameter name</title></text><g><path d="M148.21470342165063 249.97276542033342 L205.87899901669533 248.44605307755722 L205.1173806848146 301.46383167547395 L148.9913049440185 299.13199814161976" stroke="none" stroke-width="0" fill="none"/><path d="M149.97279738462055 249.42135343854883 C170.90043093688536 251.86705483531162, 192.91547150714115 251.28742270003718, 207.48233742782105 248.16965914357567 M147.32127924623467 250.4536951876959 C169.28346218148033 250.297138664045, 190.33511267472457 249.51099265471933, 206.83659111171042 249.70532767913775 M205.14039508647218 250.59410606920494 C204.97485531137806 265.982729493679, 206.2572415588443 279.5868442311543, 205.3379368242266 300.45297855890124 M206.23817727918367 250.24163580440617 C206.89172734636188 268.66478330640143, 205.71852076133194 286.6886803069007, 206.47405575868845 299.5242619134402 M204.4147707686409 301.44464998925406 C184.69610881293903 301.4986557175092, 166.09412686819144 299.9871644159561, 148.20609121144483 298.1554265272801 M206.4553538639349 299.7038108226296 C193.39760205021764 300.4402748707757, 181.18212353075396 300.70964753289155, 148.05300608606922 299.90859915767095 M147.74395042226143 301.3259121725837 C149.63032649238667 282.69724819948465, 146.0695805295553 265.7523227033934, 148.53310711892593 250.09650380619402 M148.2523432472603 299.5738784774899 C146.9300261658307 282.6509912134857, 148.49550534354753 264.99851025245465, 147.45249832823816 249.0125843119975" stroke="rgb(0, 0, 0)" stroke-width="1" fill="none"/><text x="177" y="280" class="id" aria-describedby="desc-6">id99<title id="desc-6">Parameter value</title></text></g><text x="50" y="355" class="variable" aria-describedby="desc-7">d<title id="desc-7">Parameter name</title></text><g><path d="M148.93278043514772 323.44384689551276 L207.01801033121657 325.48071444689776 L207.0944092756395 374.54664384238146 L147.10217470393897 374.6824633178428" stroke="none" stroke-width="0" fill="none"/><path d="M147.57488490814885 325.3541441683398 C168.92053392253302 323.9562117215914, 188.498334367502 324.89080458014, 204.89500751247354 324.33795260907175 M147.9494195237242 325.0723110245887 C170.18155828586023 325.03225257771544, 193.2887638408962 325.2170380138047, 205.86898026861797 324.1155578588471 M206.81906055807332 323.09278533948094 C205.24183238636655 341.8015157431657, 204.7538347562153 358.812076701659, 205.81026339671433 374.852803638799 M206.52042235147007 325.4901379387136 C207.09308023841842 338.48719028052324, 206.36612891305137 350.7529005540318, 206.07551946937716 375.86277005215493 M207.71522634497254 376.84821095412457 C190.0970308569224 376.7896594403047, 172.36157035066097 375.0892555920878, 146.1312286715185 374.84969565191926 M206.70184958333408 374.8392890635329 C186.49778873407772 375.7756698975424, 165.50563061389056 375.33004132986537, 147.32934579578458 375.1419130537207 M148.68077394376755 375.56027773800554 C150.0793553185222 360.3838852499969, 146.92271635234152 345.2090129926438, 148.94080592068494 324.197976300545 M147.73759092143334 375.3289807280086 C149.12994279914412 361.90894687906064, 149.2907216195805 349.35523915221745, 147.2586513301706 325.5019680013491" stroke="rgb(0, 0, 0)" stroke-width="1" fill="none"/><text x="177" y="355" class="id" aria-describedby="desc-8">id10<title id="desc-8">Parameter value</title></text></g><text x="50" y="430" class="variable" aria-describedby="desc-9">t<title id="desc-9">Parameter name</title></text><g><path d="M148.26336255134123 400.30114014941967 L205.69193050235916 401.8501978095495 L205.4447344659709 449.95473186489215 L148.19450029194167 451.0803538342888" stroke="none" stroke-width="0" fill="none"/><path d="M147.93976898545063 401.4146248038994 C169.73601062170908 398.18741581121117, 192.11302289080885 398.67564092760887, 204.82807812145165 399.3166572198738 M147.47499536870166 400.4780928771352 C161.71702041102677 399.21377577788905, 174.45853232746953 401.1328438590182, 205.8372147569054 399.69214196465447 M204.2910618956309 399.6705273883243 C208.18178117264256 411.5450043071573, 204.58184118602006 419.4027347784866, 205.5913244851086 450.1523277882011 M206.44794783384052 399.55211646478153 C206.32938079293424 412.1075622582683, 205.7295265070314 422.9794808860917, 206.03423510073694 449.87686430206605 M205.05322241734802 451.031875936573 C187.5914691040142 449.3161834359016, 165.87010831795075 451.3645541430311, 149.28068697502027 449.3852412222548 M206.9497044994631 450.23498474534233 C190.30415070842744 449.575493007295, 176.42161087395468 449.35087301155147, 148.3049644595576 450.83860710285535 M148.34249640932433 448.5348214585526 C148.3035173526145 440.0675419719874, 145.7961692899173 428.32563157624924, 148.71975462932713 401.3113241436677 M147.30906877168954 449.4231493518228 C147.49176523671184 438.291122297733, 148.31199158936784 427.5941349772585, 147.9125135617598 400.3220120529517" stroke="rgb(0, 0, 0)" stroke-width="1" fill="none"/><text x="177" y="430" class="id" aria-describedby="desc-10">id11<title id="desc-10">Parameter value</title></text></g></g></svg>