<svg width="473" height="575" xmlns="http://www.w3.org/2000/svg"><style>
        :root {
        --fade-text-color: rgb(0, 0, 0);
        --hide-text-color: white;

        --highlight-value-text-color: rgb(27, 14, 139);
        --highlight-id-text-color: rgb(150, 100, 28);

        --highlight-box-fill: yellow;
        --highlight-box-line-color: rgb(0, 0, 0);

        --fade-box-fill: rgb(247, 247, 247);
        --fade-box-line-color: gray;

        --hide-box-fill: white;

        --primitive-value-color: rgb(27, 14, 139);
        --id-text-color: rgb(150, 100, 28);
        --default-font-size: 20px;

        --highlight-object-fill: rgba(255, 255, 0, 0.6);
    }

        text {
            font-family: Consolas, Courier;
            font-size: 20px;
        }
        text.default {
            fill: rgb(0, 0, 0);
            text-anchor: middle;
        }
        text.attribute {
            fill: rgb(27, 14, 139);
            text-anchor: start;
        }
        text.variable {
            fill: rgb(0, 0, 0);
            text-anchor: start;
        }
        text.id {
            cursor: auto;
            fill: rgb(150, 100, 28);
            text-anchor: middle;
        }
        text.type {
            fill: rgb(27, 14, 139);
            text-anchor: middle;
        }
        text.value {
            fill: rgb(27, 14, 139);
            text-anchor: middle;
        }
        path {
            stroke: rgb(0, 0, 0);
        }
        .highlighted path {
            fill: var(--highlight-object-fill) !important;
        }
    </style><g id="object-0"><path d="M24.615239168326674 23.596528702005024 L222.20091822294063 23.363196607278702 L222.81983241367047 475.65559043493516 L24.623422493076596 473.2714800225557" stroke="none" stroke-width="0" fill="none"/><path d="M24.956309712697177 24.303959041775844 C64.0806157674246 25.932154570124496, 107.10841310956397 26.102784017572816, 222.386530105611 25.06977961272359 M24.563323769904073 24.72921916474228 C80.10638033865672 24.56802670509397, 135.49360151168247 24.34834251859096, 222.21361088778912 25.277328734766385 M222.5238290186044 24.477305639256738 C224.30367185484917 203.22217083762624, 225.35207500305035 381.5681556087202, 222.26879637249272 475.20284732406054 M223.44578523821602 24.57317896243855 C224.2646968288917 153.99066271925008, 224.55195062604466 283.09601740521214, 222.9666866047796 474.7820182188073 M221.83868902239988 474.0516766373313 C178.63979663735654 475.9617311595473, 138.53414888364614 475.1350429137287, 23.21547770773542 474.6491118518324 M222.6326845386101 475.9461145292903 C181.4084396884858 474.5677988858661, 140.26338411684975 474.5781440183324, 25.31815378220229 475.1110502040092 M25.171322022875966 475.817340976183 C25.28159123258332 315.1135950694904, 24.853129358627278 154.62253850605137, 24.074853141832843 25.02730153941124 M25.168111545825994 474.87002951625544 C24.611235926102747 373.03778872581887, 24.33909092411411 270.68088322962694, 24.966253413290243 24.62636866342685" stroke="rgb(0, 0, 0)" stroke-width="1" fill="none"/></g><g><path d="M147.32604105433683 99.97591408397352 L204.61776831211438 98.6467039298682 L207.24015510399954 148.83620587684885 L147.76215435958534 149.84499893214576" stroke="none" stroke-width="0" fill="none"/><path d="M147.7560235000788 100.29434456880773 C161.71051033306884 101.73206246943391, 175.20665602387257 98.70909059729453, 204.51182095818808 98.27346231500674 M148.13346687286773 99.07473979540882 C167.39922131017806 100.01777570123363, 187.22552094168006 100.41757625097591, 205.96955348975195 100.98744785352666 M206.60566499702122 100.3589645104137 C206.67442079053626 118.52820871618522, 205.62288592671536 134.75670148106812, 206.64585945376623 148.35156611628082 M205.2008184674116 99.00592952021313 C206.95939372064512 114.88415646184968, 205.45569064841035 127.9892507438452, 206.94876494041316 149.63696144805638 M205.04625463110685 150.47051663270892 C183.7818075021346 151.4253639183045, 163.00860518720816 148.80272016634905, 149.61951608630602 149.02944845263124 M206.03535229956518 149.8621596745204 C188.6022544446203 149.29424105146936, 172.4823040100215 148.72259097900468, 147.00109685658083 149.52895433507126 M147.41813515451332 151.6704455455802 C149.30811308961526 138.0202024219206, 147.54031255842293 128.61885780966432, 148.1271224358626 98.27174057204991 M148.26978939787745 149.37643672079636 C148.2805461759511 129.89799298833478, 146.96113141001587 110.90346328065519, 148.90668125669742 99.05381653839432" stroke="rgb(0, 0, 0)" stroke-width="1" fill="none"/></g><text x="50" y="130" class="variable">lst1</text><text x="177" y="130" class="id">id82</text><g><path d="M148.9309642844415 173.03328916894054 L207.20067713667402 173.2793793065335 L205.3449866979104 223.65045234249726 L148.92307747276794 226.82792301160433" stroke="none" stroke-width="0" fill="none"/><path d="M149.3818736727719 174.0602694875916 C170.27490983045118 176.02540400092414, 194.4595288949225 175.0970478522567, 206.44462422374446 176.50670092803114 M147.46810359861612 175.28579737112472 C170.56240832242992 175.05640547518078, 191.03274515566667 174.42009583718615, 206.07210318112908 174.6865033198017 M206.80271122615522 175.04946554871373 C205.95492828888314 196.0846459191546, 205.29875718370945 213.67227350426765, 205.37347809858417 225.57279566869857 M206.21373650065001 174.89797373941718 C206.02643777354626 190.31547353985172, 205.42036950072708 205.8563491509498, 206.61344561784585 224.58113124263602 M204.183430086554 226.54835201661038 C192.69106844953023 225.9233089251062, 180.05019988703663 224.8131546003215, 148.97723889290035 223.14805117112925 M205.89501369924028 224.30637649251196 C188.76697644489894 225.4589353819743, 170.70429808745575 224.59382527870247, 147.5772455548133 224.5585387205149 M149.9307425326632 224.29146022910314 C149.8087397355261 212.9788501777745, 147.92328858625308 197.22853868173377, 147.72373231137146 175.39525209333172 M147.35223721493222 224.90699514235786 C147.54712058380846 211.09975983542637, 146.73204457876176 196.11454476852154, 148.84524778079967 175.59206006440294" stroke="rgb(0, 0, 0)" stroke-width="1" fill="none"/></g><text x="50" y="205" class="variable">lst2</text><text x="177" y="205" class="id">id84</text><g><path d="M149.38814090090187 251.67850813378155 L205.1596972821536 251.93468778304975 L204.95950152819364 301.38460403334955 L146.5175541730917 298.9701823137423" stroke="none" stroke-width="0" fill="none"/><path d="M149.71341839472268 251.26023981828985 C161.6568424767889 251.3060479554843, 177.50989509121143 248.6365537429207, 207.30778260781943 250.84704279423718 M148.12722386197706 249.68111158464933 C166.1159286634617 250.54171389411127, 183.4827804303782 248.99770388138856, 205.30943125997567 249.37851696841668 M204.20604578232172 248.8407182686033 C206.29153135575862 269.2119024260522, 206.23563171545942 287.7996600250894, 207.312533822645 301.33515113272506 M205.73619927514164 249.99534878488498 C205.55660610682477 268.6424344886726, 206.9251684024129 289.15960004638, 205.8527667370432 299.17749477294973 M205.52498008815778 298.307612892297 C194.99019335366162 300.0302241683302, 184.15440779358545 302.04575935763927, 146.69919165264415 299.1353762660982 M206.3742486951594 299.2164104299984 C189.07759592122352 300.11433348122125, 172.38980934747843 300.62978674542586, 147.40425939180858 299.7189494777519 M146.18660763900354 298.17682551234844 C150.07452051366144 284.1395425356587, 148.768532650911 267.6563596931197, 148.5499347489288 250.10571238170047 M147.8855712133635 300.28420259101495 C148.2523533759985 281.0831447714574, 149.12156020347484 263.2123250311243, 147.3479721938119 250.0248680894329" stroke="rgb(0, 0, 0)" stroke-width="1" fill="none"/></g><text x="50" y="280" class="variable">p</text><text x="177" y="280" class="id">id99</text><g><path d="M146.19107334136652 326.09677917078295 L204.80003594089447 323.06946799426976 L206.5837514737929 376.4747855650254 L146.68779389416252 374.8879773816067" stroke="none" stroke-width="0" fill="none"/><path d="M147.0694919838111 326.11025802858353 C162.8984488697592 324.9741832960054, 182.61716367270657 323.4743153098212, 206.3477942392839 325.0230345811189 M148.06002476676892 324.8964506623753 C160.9756041151402 324.6412701475693, 173.70263227546462 325.4816475870634, 205.00047315133457 325.41744161335924 M205.5037694502904 326.04393091528357 C204.44180059477858 338.6549011943606, 203.57760104150674 348.5021434940603, 205.48968896793463 373.12214289189933 M206.84936170492483 324.5287307513985 C205.49906711134003 345.3324411398122, 205.6790991208801 365.3939411272782, 205.59498251202652 374.7411996794952 M206.33427915306243 373.62859384589143 C183.8980965832479 372.99038932771134, 167.51220350564742 373.1645506494906, 148.34756636000435 373.54698927300944 M206.87345078543333 375.15850945838645 C191.81971459985982 375.7767877187365, 177.42123278098174 374.8259895967677, 148.35221434152143 375.67591439234036 M146.0116113504629 373.7958081792041 C149.65137073194268 361.20535663361716, 149.90539944026895 345.46446267105796, 148.35184356422332 325.4951386945438 M147.4988697623821 375.2927719989976 C148.31158561378876 357.8808487350284, 148.74671294166092 339.4526565705989, 148.37959233983062 324.84098277286637" stroke="rgb(0, 0, 0)" stroke-width="1" fill="none"/></g><text x="50" y="355" class="variable">d</text><text x="177" y="355" class="id">id10</text><g><path d="M148.67050363020667 399.42183399884067 L204.17986249100414 400.1302036515617 L205.0051153963728 450.47855584071846 L148.5543558551697 448.1864343699175" stroke="none" stroke-width="0" fill="none"/><path d="M148.85296626753697 400.61227555273274 C167.48766241317475 398.02787592236587, 186.56643564011114 399.6548958190412, 204.2165812659906 400.1879024756355 M147.30666630432026 400.4384925288449 C161.30057196777642 399.92982108240375, 173.21966211002982 399.13560352270173, 206.7350806066255 399.8854223905802 M207.93254064372206 398.2532970026518 C206.4665326480469 412.2578078375749, 206.67758568526847 423.5204441290529, 205.91259074945157 449.1866953844226 M206.69383307053502 400.13689971347765 C206.22842226008422 418.88286639015763, 204.78956562075498 437.65139663466175, 206.0962400135856 449.1711208328358 M207.2060258830872 450.94763213282073 C187.08144272585508 451.9576751856781, 165.71077082518119 451.1453058996687, 146.42379925993004 451.8423353579508 M206.57496751856198 449.1073090420691 C188.80796902698884 449.47867021209026, 169.56893610510045 449.0412668599754, 148.23595520631642 449.4951297426944 M148.94891477338527 451.9976251312913 C147.27833838701875 432.69786170142334, 146.76180490022708 411.90153621655156, 149.51611849262753 398.5633323334085 M147.78267042210408 450.58176450954113 C147.38588088376906 434.48210508251043, 148.0447598015055 418.92016016985906, 147.73554897425976 400.9042169121505" stroke="rgb(0, 0, 0)" stroke-width="1" fill="none"/></g><text x="50" y="430" class="variable">t</text><text x="177" y="430" class="id">id11</text><g><path d="M24.35312887302034 23.527603754185446 L131.84076917650944 23.43429973675439 L129.25355231435142 74.92524215723499 L25.950521871159868 74.99018274385321" stroke="none" stroke-width="0" fill="none"/><path d="M26.259710941215346 24.385946688265594 C47.05542701576781 25.916524993292384, 72.02965028242178 26.37043962851166, 129.79054214841113 26.9837718263865 M24.833134061977113 24.566270112355465 C46.76524126159911 23.263413473480167, 69.48934386817331 24.594072849580158, 130.85143385755526 25.833952227095146 M131.75821128056268 26.259738501115116 C131.16421317758054 36.451955273460634, 131.07285897818423 49.17193333239341, 129.45759913680928 73.35664529222915 M131.45179977204143 25.77550758121518 C132.02346234021056 42.39604692272319, 131.89622301233942 60.819478522915674, 130.3918128026367 75.61651050483567 M130.28625102849406 76.36310511425593 C105.22600659406964 75.78260281058193, 75.20386024397489 75.40257817098913, 26.01081155961433 74.09072939493196 M131.3168893307282 75.42864588723462 C101.02468703083444 75.08468577851326, 70.12826457968777 73.91094619343019, 25.409688559071345 74.40183293956939 M23.35951019778036 73.9652401386855 C23.773829211535606 59.324363268415894, 22.907313032701534 48.41145956211473, 24.894920608296367 25.585484610285683 M24.098930877641465 74.54552142853734 C24.155779858865127 59.76289685967317, 25.082725592105525 44.290057360117615, 25.073963371738227 24.405852875752494" stroke="rgb(0, 0, 0)" stroke-width="1" fill="none"/></g><text x="78" y="55" class="type">__main__</text></svg>