<svg width="473" height="500" xmlns="http://www.w3.org/2000/svg"><style>
        :root {
        --fade-text-color: rgb(0, 0, 0);
        --hide-text-color: white;

        --highlight-value-text-color: rgb(27, 14, 139);
        --highlight-id-text-color: rgb(150, 100, 28);

        --highlight-box-fill: yellow;
        --highlight-box-line-color: rgb(0, 0, 0);

        --fade-box-fill: rgb(247, 247, 247);
        --fade-box-line-color: gray;

        --hide-box-fill: white;

        --primitive-value-color: rgb(27, 14, 139);
        --id-text-color: rgb(150, 100, 28);
        --default-font-size: 20px;

        --highlight-object-fill: rgba(255, 255, 0, 0.6);
    }

        text {
            font-family: Consolas, Courier;
            font-size: 20px;
        }
        text.default {
            fill: rgb(0, 0, 0);
            text-anchor: middle;
        }
        text.attribute {
            fill: rgb(27, 14, 139);
            text-anchor: start;
        }
        text.variable {
            fill: rgb(0, 0, 0);
            text-anchor: start;
        }
        text.id {
            cursor: auto;
            fill: rgb(150, 100, 28);
            text-anchor: middle;
        }
        text.type {
            fill: rgb(27, 14, 139);
            text-anchor: middle;
        }
        text.value {
            fill: rgb(27, 14, 139);
            text-anchor: middle;
        }
        path {
            stroke: rgb(0, 0, 0);
        }
        .highlighted path {
            fill: var(--highlight-object-fill) !important;
        }
    </style><g id="object-0"><path d="M23.636864649841137 23.472223732565233 L222.6702739524141 25.317678869773285 L222.73963240143533 475.3854262300908 L23.373965203903992 474.1703804836297" stroke="none" stroke-width="0" fill="none"/><path d="M24.75531273542006 26.2241124050442 C100.47027598153534 25.06611789105252, 175.58928719602807 23.217189205814066, 221.03253130286757 23.606959409180206 M25.051517901613554 25.526239930857926 C73.60415678256298 24.881245612715396, 121.65081306121976 25.521855500058162, 223.48697300324815 24.032896998093957 M223.36443129560539 24.84068281893249 C223.37893861908535 181.7641479431241, 223.90153933724994 338.31211882879774, 222.2336827399081 474.24736226036526 M222.68351041798493 24.773228133426606 C225.44294669277127 185.72946975114587, 225.03792697703483 345.082889094798, 223.14782586151017 475.41740109154597 M221.7345583300898 474.9354165771533 C159.11125455108478 476.185484960081, 98.23395436502962 475.6280428312156, 26.56496841414733 474.82937797576926 M222.9356905215576 475.54056966246907 C173.9685187715084 476.1974458556541, 125.52363237932394 475.70393289428216, 24.389408249545838 474.0093713641703 M24.753529570375086 474.9135925449375 C24.12250552669096 322.92478810643956, 24.407732680616668 171.2896012403094, 24.790748636600345 24.750447360812093 M25.44770930246109 475.3485726282971 C23.231657856732028 364.41238106830895, 23.15032001983556 254.06242794827935, 24.60217639523922 25.268104166801397" stroke="rgb(0, 0, 0)" stroke-width="1" fill="none"/></g><g><path d="M147.79022108136385 101.28170648590685 L207.3207976595887 101.03987682620836 L204.06589845239796 148.88650893796935 L149.1991500560389 149.64473324502902" stroke="none" stroke-width="0" fill="none"/><path d="M146.20015244570973 98.49389572968028 C169.25723332992044 98.8616982660896, 188.4166828562894 99.26660112429835, 207.73060020067942 100.76132396111306 M147.1985100640677 99.36948117465704 C171.68762704821833 99.65873258820808, 193.40815269353308 99.13314687711001, 205.1248455487533 100.35296407491859 M205.84401729072633 98.75682188577599 C207.00037583238688 119.10554435412257, 203.86214357880746 138.43471629929735, 207.3360652496337 150.21849831033367 M205.69468204848454 99.33871167679489 C205.78536274625614 118.37141738321179, 204.73279123022195 136.61118515275345, 205.15071519034186 149.85000257716328 M204.5973292983596 148.25729451022528 C182.82040260185474 148.0981281567854, 159.51492574182313 151.74057911447437, 148.15671072919122 148.92587679520068 M206.9667778923131 150.71912069414836 C193.15607331036364 150.83526720133466, 180.38666874462885 149.72595399503297, 148.99551759845107 149.93604817202794 M146.60337622821962 150.44607116836377 C148.93353398255783 131.72610786637503, 146.62857181993152 112.94204545944515, 148.62280435679634 100.96311939231981 M147.21496353936644 149.3112415677678 C148.33240669482237 134.87587928101374, 147.53714097339426 120.28143357018352, 147.44251170896047 100.89515855396324" stroke="rgb(0, 0, 0)" stroke-width="1" fill="none"/></g><text x="50" y="130" class="variable">lst1</text><text x="177" y="130" class="id">id82</text><g><path d="M146.16084216859466 173.89225483417434 L204.11587581826515 176.53733818992325 L207.24170835771227 224.2611620382918 L149.6985943084241 223.24453196608428" stroke="none" stroke-width="0" fill="none"/><path d="M149.81568656098395 176.22803759991928 C164.81755107215574 175.24455934541496, 181.39246720144718 176.49894185670715, 204.69333129911536 176.36387636372845 M148.3236714110925 175.23555057853852 C169.88406775191615 174.00657083182486, 194.56870039550412 174.20120150743026, 205.29125260630448 175.14908160953297 M204.28379569730217 174.3617186246312 C206.69967525347013 190.8786972568644, 206.22426025390791 205.8245068696065, 206.1078720716136 225.87485515395042 M206.66759968004075 174.10038163619177 C205.25102004452944 185.16984943465366, 206.061058859155 195.12917581965175, 206.09618148409544 224.63045109201366 M204.06053954814558 226.8115598474621 C187.43125284665706 226.1846849348983, 169.21183908354018 226.24984793238417, 148.96577068218542 226.9512088341142 M206.7856148378554 224.22320748212152 C191.26968793343835 225.0243612576777, 176.21113475997063 225.9934637967308, 147.33898525813692 224.38329703049374 M147.74943993781517 224.78808977912726 C147.51713283426375 204.27997215365656, 148.67334972361573 187.63413791464203, 148.57621236906553 176.70532872691686 M148.4882332277253 225.446971576464 C148.42536161744158 207.2211563680348, 147.30864219910455 189.49977849462599, 147.51684590824925 174.38961286037505" stroke="rgb(0, 0, 0)" stroke-width="1" fill="none"/></g><text x="50" y="205" class="variable">lst2</text><text x="177" y="205" class="id">id84</text><g><path d="M147.95733608014012 250.78004422142462 L207.03832676793775 251.2714374712727 L206.95976337464538 299.8430214408426 L147.19980789034935 299.4812004118455" stroke="none" stroke-width="0" fill="none"/><path d="M149.25738674573572 249.5488867438479 C165.3022808904035 251.97769001378904, 182.1563389401408 248.53477718326496, 206.2478737307553 251.0455247555741 M148.90840813494296 250.51053969861877 C170.81043022315987 249.07914335046254, 194.02849640376158 250.64402111062188, 205.03783310089807 250.87788656589737 M205.13367292125534 250.2123780407012 C208.18805382911017 261.4520252123186, 205.7997261435522 272.9291194507226, 206.73633822107865 300.82128116707685 M206.23385824483393 250.41136768376822 C205.57850436911014 262.4987697970237, 206.17217080142694 275.8396566875504, 205.32886780353374 299.7836902946513 M206.67769082776556 301.4284665907897 C189.88523544007109 300.5871397097007, 178.44757992050293 302.2951181682872, 149.6152991597543 298.77487808529406 M205.17859318605096 300.5116307884431 C193.6523126846851 301.2710472077374, 180.14046808059447 300.24050653341254, 148.74977116928335 300.31084658552277 M149.87667290575635 299.0268224454917 C147.9798586176847 280.300721437373, 147.94156387202145 264.3220654626988, 146.53633037717788 248.61713502421222 M148.27962256130377 299.0556126783995 C147.61392572714746 281.870853256557, 147.1383128809916 263.5846041780409, 148.46134440383523 250.00118306515216" stroke="rgb(0, 0, 0)" stroke-width="1" fill="none"/></g><text x="50" y="280" class="variable">p</text><text x="177" y="280" class="id">id99</text><g><path d="M146.72002442083922 326.99632995863647 L205.46963575454595 323.61864258042516 L206.4222511697972 373.5847223289145 L146.97309279474777 373.58474790729633" stroke="none" stroke-width="0" fill="none"/><path d="M147.80635836112808 326.3053550240094 C164.31818167449103 323.735223865455, 181.27076035142164 325.73451856287323, 204.75996829042018 325.37783251459166 M148.84081247884276 325.8812901109108 C160.26960420072666 324.0755459855552, 172.32741940400467 324.2698143683869, 206.75050706673983 325.3403234564129 M205.416941692312 323.53478178151175 C206.31331886955357 340.55782549439294, 206.39834266590384 352.36795723995783, 206.25779115293417 373.8156459866153 M205.10434417901305 324.35218559913665 C206.71099153998986 339.7610308609204, 206.7941913367134 356.92927533812986, 206.1281279752828 374.3980494614713 M204.13442480244467 375.49978033184215 C192.30182028116442 374.49709561999094, 175.15210067112776 374.0764428068849, 148.98404256158332 376.2920753300794 M205.50307735840374 374.85429601450016 C187.45227161713 374.090005149486, 168.0813157353314 374.7560417462556, 147.46882595060822 374.73826937965435 M147.51999043253898 374.2774509122905 C149.5797671087339 357.5290159013216, 147.45860980125047 340.66092236429273, 146.7606369960938 326.6215075262043 M148.41068196449817 375.88426504656417 C146.98291849229005 356.17363564769573, 147.05626364709224 338.20851999765125, 147.0406013166844 325.09657737183556" stroke="rgb(0, 0, 0)" stroke-width="1" fill="none"/></g><text x="50" y="355" class="variable">d</text><text x="177" y="355" class="id">id10</text><g><path d="M148.93356048096976 398.7503102382298 L206.32327610075785 400.8972659666981 L207.5943650227729 450.5024099336118 L149.61669856562156 449.315303361955" stroke="none" stroke-width="0" fill="none"/><path d="M148.2050794076973 398.4334997589513 C170.62898350169016 398.1622233853455, 187.80785946554226 399.8676298412677, 206.47513292371312 401.9888115321237 M147.33478113759054 399.0119954634246 C166.9034862408381 399.6066313035161, 183.2431511573559 399.58133262520624, 205.43921622993332 400.2549030649456 M204.74579135926808 400.4077510838634 C206.60897658311922 413.4739809945834, 205.1320013458535 424.99304000578877, 204.28158684467041 449.05904277237346 M206.3777960192651 400.07769021580407 C206.2568499317258 419.76212943152365, 205.91454301936594 438.1893269200691, 205.69203355469975 449.7108681479369 M204.8622635563393 449.5233553158314 C186.80342587438167 449.698134600771, 170.44186566404358 450.0614142308731, 146.7943500484786 448.5121609871561 M206.14237157897327 449.5417306490378 C185.19635484365944 449.4664466447363, 165.5888286378407 450.7209840723659, 147.82457305394448 449.96768659350965 M149.78443029600808 451.16553399679276 C146.23454821254356 434.9445226733535, 148.47997940285825 422.6408937275708, 146.10213707198946 398.0550972753704 M148.7292521052621 450.8835585440799 C147.7126139781933 430.62467201254407, 148.232656786608 412.39497960609305, 148.18139416693106 399.1746698853091" stroke="rgb(0, 0, 0)" stroke-width="1" fill="none"/></g><text x="50" y="430" class="variable">t</text><text x="177" y="430" class="id">id11</text><g><path d="M26.274625861059334 26.86539079179987 L132.71556033795258 26.789866403007498 L131.59323297942407 74.48792602168876 L24.24669728617458 75.2897574947612" stroke="none" stroke-width="0" fill="none"/><path d="M24.629099647699405 23.672213171502698 C53.20391913139355 27.094830275521332, 81.56439507442933 24.964803301604807, 129.14297435828905 24.4803109810644 M25.406212755431696 25.267978962524772 C60.90782450780344 25.486419205940656, 97.4048370272329 26.294615592305103, 131.11402962357118 24.427195659143102 M131.4644657176145 24.15682383066621 C129.90298004385312 40.55465072470534, 129.6916923619207 59.25707347348014, 129.17263841442764 76.03160261241402 M131.35395945017262 25.41512626681852 C131.65529917331307 43.782461978332194, 131.55964527940475 63.41098043824374, 131.96555552796323 74.01472851660374 M130.91970461819238 73.85883177147595 C104.30522804023519 75.50541557760171, 81.14341998947457 74.8654780300539, 23.79759920614834 74.37603668887407 M130.00952372365407 75.43399197431819 C107.7238097779186 76.52794469543763, 85.27630786504783 76.5707617598635, 24.578052365720236 75.74314174847662 M26.96094185961944 76.65548655510274 C25.676447409580447 54.88905769052929, 25.07318173362003 37.54449652109144, 26.150333593221262 23.44201376498744 M24.046967033591898 75.38291601328712 C24.346733429440043 57.1767324442207, 25.26142450204227 38.79557851732419, 25.724594894707238 24.260279614320403" stroke="rgb(0, 0, 0)" stroke-width="1" fill="none"/></g><text x="78" y="55" class="type">__main__</text></svg>