<svg data-theme="dark" width="287" height="217" xmlns="http://www.w3.org/2000/svg"><title>Python memory model diagram showing objects</title><style>
        :root {
        --fade-text-color: rgb(0, 0, 0);
        --hide-text-color: white;

        --highlight-value-text-color: rgb(27, 14, 139);
        --highlight-id-text-color: rgb(150, 100, 28);

        --highlight-box-fill: yellow;
        --highlight-box-line-color: rgb(0, 0, 0);

        --fade-box-fill: rgb(247, 247, 247);
        --fade-box-line-color: gray;

        --hide-box-fill: white;

        --primitive-value-color: rgb(27, 14, 139);
        --id-text-color: rgb(150, 100, 28);
        --default-font-size: 20px;

        --highlight-object-fill: rgba(255, 255, 0, 0.6);
    }

        text {
            font-family: Consolas, Courier;
            font-size: 20px;
        }
        text.default {
            fill: rgb(0, 0, 0);
            text-anchor: middle;
        }
        text.attribute {
            fill: rgb(27, 14, 139);
            text-anchor: start;
        }
        text.variable {
            fill: rgb(0, 0, 0);
            text-anchor: start;
        }
        text.id {
            cursor: auto;
            fill: rgb(150, 100, 28);
            text-anchor: middle;
        }
        text.type {
            fill: rgb(27, 14, 139);
            text-anchor: middle;
        }
        text.value {
            fill: rgb(27, 14, 139);
            text-anchor: middle;
        }
        path {
            stroke: rgb(0, 0, 0);
        }
        .highlighted path {
            fill: var(--highlight-object-fill) !important;
        }
    
        [data-theme="dark"] {
            --highlight-value-text-color: #110875;
            --highlight-id-text-color: #6e4409;

            --fade-text-color: #BBBBBB;
            --hide-text-color: #121212;

            --highlight-box-fill: #EDB926;
            --highlight-box-line-color: #FFFFFF;

            --fade-box-fill: #2C2C2C;
            --fade-box-line-color: #666666;

            --hide-box-fill: #121212;

            --highlight-object-fill: rgba(72, 207, 173, 0.3);
        }
        [data-theme="dark"] text.default,
        [data-theme="dark"] text.variable {
            fill: rgb(224, 224, 224);
        }
        [data-theme="dark"] text.attribute,
        [data-theme="dark"] text.type,
        [data-theme="dark"] text.value {
            fill: rgb(144, 164, 237);
        }
        [data-theme="dark"] text.id {
            fill: rgb(255, 183, 77);
        }
        [data-theme="dark"] path {
            stroke: rgb(204, 204, 204);
        }
</style><g role="graphics-object"><title>None id0 with value None</title><g id="object-0"><path d="M51.66295472441517 24.566712600343386 L250.50775441218565 24.12250781790685 L248.02449078526902 156.4239385675721 L48.59295272688941 153.40889782639164" stroke="none" stroke-width="0" fill="none"/><path d="M51.52119563839511 26.040516407933662 C127.50906642304095 25.643827992878794, 203.5474514084245 26.106949502982236, 250.93981907005357 23.906619215568163 M49.944706789932724 25.168573582191176 C100.12702736476855 24.524412513318083, 149.71426350510703 25.34035374021446, 249.41854941158024 25.082526002087924 M251.64432374173208 26.44305255641913 C249.63568530850017 62.39335810037442, 251.9572648797982 104.7130652164301, 251.4109048571904 154.97007391523488 M250.86076732181405 25.687499994705966 C251.72630776068925 67.61708714815533, 250.78706928931655 110.8420896311517, 249.06342903697643 155.6333888231261 M251.40174382495294 153.76383355519377 C170.11433956974273 155.54023247329297, 92.24420423063428 155.0444996122695, 51.26726274162834 153.2433428120051 M250.600762535777 155.72940390625138 C205.4377814419612 156.87242653614464, 161.99466041033668 157.2858499757765, 49.8966574930674 154.51534871723334 M48.17689556935925 155.482439621096 C50.74349223750307 105.14126152580309, 50.14594706509877 52.83027792713311, 48.3845366743966 25.870350858634186 M49.84753047139028 155.06650164339123 C48.94481352339945 117.4602447020484, 49.00128802949651 78.81115154073255, 50.510298511278506 25.943306341954347" stroke="rgb(0, 0, 0)" stroke-width="1" fill="none"/></g><g><path d="M42.27065800688822 18.581523653092816 L256.71324913529855 20.68220908051641 L257.79283509532536 160.92232770114768 L42.7963288934983 160.4276061405955" stroke="none" stroke-width="0" fill="none"/><path d="M42.92939892960361 20.49565783681 C104.76355659646944 21.083497697227997, 167.28764078177738 21.24237288061066, 254.8375783515234 19.080184603647687 M43.75513087654283 18.998734883242516 C120.34626588730501 17.692333412462677, 197.43578285242054 17.197203294873294, 255.66607535088895 19.665820502096324 M255.17483405812388 17.908579955999077 C257.1269126669534 74.0067181051585, 258.9694844773721 125.59708272889586, 256.9149696508377 159.46851355856296 M256.3074629305475 19.000864056742014 C256.27790747797553 48.29453176058743, 255.20423192722842 75.87458375589362, 256.75389519270925 161.11569436364312 M255.11634210256628 162.22913680700685 C172.3175902239763 161.03170674923982, 90.30615103898704 161.48013015727452, 44.600250731839516 160.83438319284983 M256.37766523807386 161.19596450981777 C198.42509827065234 160.3819950673354, 141.64458183283008 160.04962789430164, 43.600664627878714 160.75361189471386 M44.45222805937325 160.45747882646518 C47.11877588550495 122.35131070960185, 45.07717509761344 81.26126737023525, 42.573995286382264 20.565165917388654 M44.58111163035445 161.42601284637018 C46.398418621683305 132.8984947659298, 45.02152119198484 103.2874678565425, 44.767214466462036 18.075000512072858" stroke="rgb(0, 0, 0)" stroke-width="1" fill="none"/></g><g><path d="M50.35644526504893 23.334021110412912 L111.99544500578835 26.32255422778723 L110.6835234177936 73.80391373561764 L48.0555551559951 76.64550440329585" stroke="none" stroke-width="0" fill="none"/><path d="M49.41768532517165 26.161527190224454 C71.3581827377025 23.163316570388012, 93.49791017528572 23.239509165780248, 111.57819716147763 26.383656595235003 M49.58596488928929 25.278008692267417 C63.208699799467205 25.032294816670543, 74.80835747997821 24.749784525552847, 109.08457352060283 24.69481952395674 M109.67178799271926 25.856673560843475 C108.09153335226034 36.7345163668774, 109.24545219802464 48.36936821322578, 110.75496283500442 76.90080470262725 M110.32661810145416 24.35200439895574 C109.98553279022761 42.24840685842053, 109.28618394584423 59.94480527758911, 110.0186257577377 74.93787203491206 M110.5716504386467 76.21713654464558 C84.60203334379037 75.52332994545066, 61.0622136516308 76.46909641524516, 48.400199299992074 73.64525306509923 M109.26003333652514 75.87659907857713 C92.46625218984387 76.15570862492935, 75.3881193644521 75.24964160616882, 49.23795127975778 74.97074647108612 M48.18989705620273 73.78671486460952 C51.6017146845461 57.97611342161647, 48.40244366796034 37.32511963720797, 51.46763362934042 25.674295638035645 M49.25517413996723 74.47730735222221 C49.27244372841767 59.81451924416063, 49.73371559859436 43.80202779557484, 50.951485488360326 25.07433687424689" stroke="rgb(0, 0, 0)" stroke-width="1" fill="none"/><text x="80" y="55" class="id" aria-describedby="desc-0">id0<title id="desc-0">Object id</title></text></g><g><path d="M188.2709801862111 24.132056006298832 L248.95087118073639 23.916246559554423 L248.38643508919276 73.08585984893017 L190.81092247020416 75.69857363808592" stroke="none" stroke-width="0" fill="none"/><path d="M191.68966945567706 25.880261636744187 C207.7284628028991 24.64828820809244, 230.58865469864296 24.694110832084245, 248.4119475657402 26.992782928339125 M189.55685362623393 25.88610463180918 C206.52752795779782 24.500486308846725, 222.23984757996112 24.450573165549077, 249.35664182672426 24.14281988420283 M248.6728077015348 25.670916685081714 C251.21029080497567 42.26170785746667, 250.71352247636028 60.30467158468671, 251.68919398652855 74.8284507989173 M250.2407675067477 25.37884903332122 C249.49171679832796 41.884643433029176, 249.55134990814918 58.04040609667149, 250.6720919442885 75.73801231563279 M249.1590582811238 75.127182861863 C232.44249913572153 72.98126029499491, 214.61081424043778 73.35074116562409, 189.14765064192196 73.29854553992583 M249.39572455585446 75.71511828810512 C233.73702642205996 74.46306886344404, 215.3319442320381 74.37283871521535, 190.85749044183356 74.42225145710992 M190.9764004337474 73.02568988185573 C188.74523816563507 56.42902881279069, 188.85413203015676 36.182279831778835, 189.56045688514652 25.101200568862104 M189.3729199429238 75.21840889998292 C190.46221692884 62.50184235291388, 189.67371600029293 47.7230334333959, 189.86959037691247 25.73184669709604" stroke="rgb(0, 0, 0)" stroke-width="1" fill="none"/><text x="220" y="55" class="type" aria-describedby="desc-1">None<title id="desc-1">Object type</title></text></g><text x="150" y="115" class="value" aria-describedby="desc-2">None<title id="desc-2">Value</title></text></g></svg>