<svg data-theme="dark" width="287" height="217" xmlns="http://www.w3.org/2000/svg"><title>Python memory model diagram showing objects</title><style>
        :root {
        --fade-text-color: rgb(0, 0, 0);
        --hide-text-color: white;

        --highlight-value-text-color: rgb(27, 14, 139);
        --highlight-id-text-color: rgb(150, 100, 28);

        --highlight-box-fill: yellow;
        --highlight-box-line-color: rgb(0, 0, 0);

        --fade-box-fill: rgb(247, 247, 247);
        --fade-box-line-color: gray;

        --hide-box-fill: white;

        --primitive-value-color: rgb(27, 14, 139);
        --id-text-color: rgb(150, 100, 28);
        --default-font-size: 20px;

        --highlight-object-fill: rgba(255, 255, 0, 0.6);
    }

        text {
            font-family: Consolas, Courier;
            font-size: 20px;
        }
        text.default {
            fill: rgb(0, 0, 0);
            text-anchor: middle;
        }
        text.attribute {
            fill: rgb(27, 14, 139);
            text-anchor: start;
        }
        text.variable {
            fill: rgb(0, 0, 0);
            text-anchor: start;
        }
        text.id {
            cursor: auto;
            fill: rgb(150, 100, 28);
            text-anchor: middle;
        }
        text.type {
            fill: rgb(27, 14, 139);
            text-anchor: middle;
        }
        text.value {
            fill: rgb(27, 14, 139);
            text-anchor: middle;
        }
        path {
            stroke: rgb(0, 0, 0);
        }
        .highlighted path {
            fill: var(--highlight-object-fill) !important;
        }
    
        [data-theme="dark"] {
            --highlight-value-text-color: #110875;
            --highlight-id-text-color: #6e4409;

            --fade-text-color: #BBBBBB;
            --hide-text-color: #121212;

            --highlight-box-fill: #EDB926;
            --highlight-box-line-color: #FFFFFF;

            --fade-box-fill: #2C2C2C;
            --fade-box-line-color: #666666;

            --hide-box-fill: #121212;

            --highlight-object-fill: rgba(72, 207, 173, 0.3);
        }
        [data-theme="dark"] text.default,
        [data-theme="dark"] text.variable {
            fill: rgb(224, 224, 224);
        }
        [data-theme="dark"] text.attribute,
        [data-theme="dark"] text.type,
        [data-theme="dark"] text.value {
            fill: rgb(144, 164, 237);
        }
        [data-theme="dark"] text.id {
            fill: rgb(255, 183, 77);
        }
        [data-theme="dark"] path {
            stroke: rgb(204, 204, 204);
        }
</style><g role="graphics-object"><title>None id0 with value None</title><g id="object-0"><path d="M49.75382345597966 24.160275117886897 L249.581768690179 24.712066775019338 L251.84886693764486 154.79075618340468 L51.30066268138873 153.71742417721288" stroke="none" stroke-width="0" fill="none"/><path d="M48.41184948869283 24.643502637176777 C112.29499932201013 23.000666255677963, 175.23591631463154 25.37147633873582, 251.25926443435094 24.42183296109822 M49.66997108386718 24.203990549304258 C122.84877152028017 24.103462450917494, 196.72472120431112 24.975487987003913, 250.31085729249676 24.91828128651822 M248.00036258723557 23.076907575087624 C251.2570761811594 63.86305206774685, 250.5811826728661 101.09120557442002, 248.9262561945634 154.3551979893088 M249.99071060515928 24.144676105813048 C250.50303238680266 60.557816794008, 251.10569676933994 95.1025495659369, 249.14505913013033 154.4573770451562 M249.99675532740315 153.5311003338487 C175.4563410372634 156.26070430919927, 99.86875574438898 154.90252498148757, 48.63384570532243 154.34252847990885 M249.1639012237321 154.99245773074117 C173.53143864757314 152.8854410469699, 96.70230215377936 153.78205258890344, 49.16146909989854 155.1123800269984 M49.37572859521764 156.64564229631546 C49.348704492304584 117.99139563083816, 51.83134231408887 85.5872847781961, 50.89182658151093 24.120831525901426 M49.11111763057741 155.06300201940167 C50.75670800843878 119.55286821581969, 50.866247009288614 83.356436543929, 49.72437704325522 24.89681021030251" stroke="rgb(0, 0, 0)" stroke-width="1" fill="none"/></g><g><path d="M43.16448459065983 17.567944349378195 L254.22456568573142 18.443916064566576 L255.59697017820682 159.52100949552533 L43.32384542344686 161.05112550899693" stroke="none" stroke-width="0" fill="none"/><path d="M45.49907116140984 20.60794533868363 C92.312549824806 17.90154279370283, 139.30896812850594 20.016926672456645, 257.30472607410854 18.04750592155629 M43.754054808359875 18.632694491602475 C119.94291254042709 17.853722712721478, 194.61782378877584 18.37178039043111, 255.19090009121322 18.975357331640065 M255.56916282842218 17.0166476587621 C257.0250937948607 66.3955141912505, 254.38189157574243 117.53865495543837, 257.06464888301133 161.61120689428012 M256.1722874639414 18.96952356710215 C255.7540126832172 59.68044911526388, 255.28360570209063 102.00159273927899, 256.8317440222281 161.07636762861307 M257.22616305567107 160.2155062218849 C173.35508399481884 160.8638890177053, 89.72260558372213 161.6901931023967, 43.07555529765055 160.5082957976275 M256.85729667221125 160.46389994786693 C186.1254517386322 160.2786914308961, 117.50498566313874 159.966102919279, 44.26162141585994 160.14124334391744 M42.823761211018876 161.8974186964123 C41.771081721897886 131.23909751880726, 41.62170086347134 104.39497240802115, 43.551383476821236 18.107180931787205 M44.41052729670545 160.21183338130908 C42.877513695804424 122.55044613179237, 42.42533425372829 83.27768629070938, 44.41196028568873 19.60984093198432" stroke="rgb(0, 0, 0)" stroke-width="1" fill="none"/></g><text x="150" y="115" class="value">None</text><g><path d="M50.32523427029367 26.023026209351414 L111.55260930760574 26.562935721387564 L110.74890549612434 73.33989447013128 L50.5615530495917 76.97781099498772" stroke="none" stroke-width="0" fill="none"/><path d="M49.45622352246228 26.53499139782575 C72.24479074250542 25.42849109772443, 92.54183426705502 23.80798996017395, 109.44977032284281 25.731192421014356 M49.84060108550534 25.468096193664323 C67.63764996590187 25.380460632715074, 83.15391798963753 24.89488350798253, 109.23039113978626 25.420362903072363 M110.14199724815197 23.844213010787563 C112.21223789979096 37.11417815371106, 111.43952971876544 44.26498959217676, 111.62624746041828 74.6682842777333 M109.21982262344879 25.041568584722263 C109.41100043131897 41.10854263470497, 109.6276269276996 59.32100314121724, 110.49805960335516 74.84290991935545 M108.78925602773678 76.05021212611928 C98.41229624909097 73.14929780278895, 84.20789941165333 73.39398286845945, 48.17550047960515 73.66638432153803 M109.80251369855915 75.76092530479677 C88.4231283666399 75.76613654290463, 68.73109510797919 75.60701374452614, 49.115217060515086 74.7759767245626 M49.85664519057334 75.21225233188275 C49.9893648358537 61.64322896082337, 50.444236009911855 49.492756710326624, 48.09177103678998 26.527665435458424 M49.161537991565346 74.34083421115264 C51.00569756550557 57.114499089583425, 50.0694739935739 41.40390515685318, 49.03285996876432 24.278628051984022" stroke="rgb(0, 0, 0)" stroke-width="1" fill="none"/></g><g><path d="M189.71674309049268 23.230066989425254 L251.06293900195635 26.091267137623984 L250.41569214182394 73.1640202201852 L189.06986800695455 73.66316575643262" stroke="none" stroke-width="0" fill="none"/><path d="M189.7940747084561 26.95141436260877 C202.80258882815312 24.89893299582927, 215.31210932736732 25.147816348717, 251.52495084669295 23.711841898054168 M189.38849358516686 25.62012263056122 C207.7552553913059 25.60802013326068, 225.65254058849334 25.929822894008108, 250.63979596294067 25.894501656564053 M251.93619320305123 26.179350369296262 C249.33862307954325 36.96565294393338, 250.43918674200017 51.206913611934475, 249.46615518055012 75.64480266749487 M249.9226677856816 25.313952405838588 C248.94185988608143 37.48465418278251, 249.50401140699609 49.93619151098661, 250.12281550730677 74.6732632093562 M251.84564288779305 74.61311067367515 C235.19413705159388 75.006863975891, 216.86789074886582 74.14922668255664, 189.33417133080647 73.56795328571968 M249.00656909466258 75.99110258364458 C230.94944066299172 74.27072695572782, 211.7789691765965 75.24846604465185, 189.35732091137615 75.41583567484837 M189.60457953778194 75.85089263801936 C189.48112009469727 65.5789811266339, 191.34892302809766 51.85554248903584, 188.0764230997256 23.535984561446835 M190.70122173628508 74.44458834029875 C189.67644912021234 62.43556825684467, 189.86528119688316 51.460412854064785, 189.5664041362333 24.133095442124336" stroke="rgb(0, 0, 0)" stroke-width="1" fill="none"/></g><text x="80" y="55" class="id">id0</text><text x="220" y="55" class="type">None</text></g></svg>