<svg data-theme="dark" width="287" height="217" xmlns="http://www.w3.org/2000/svg"><title>Python memory model diagram showing objects</title><style>
        :root {
        --fade-text-color: rgb(0, 0, 0);
        --hide-text-color: white;

        --highlight-value-text-color: rgb(27, 14, 139);
        --highlight-id-text-color: rgb(150, 100, 28);

        --highlight-box-fill: yellow;
        --highlight-box-line-color: rgb(0, 0, 0);

        --fade-box-fill: rgb(247, 247, 247);
        --fade-box-line-color: gray;

        --hide-box-fill: white;

        --primitive-value-color: rgb(27, 14, 139);
        --id-text-color: rgb(150, 100, 28);
        --default-font-size: 20px;

        --highlight-object-fill: rgba(255, 255, 0, 0.6);
    }

        text {
            font-family: Consolas, Courier;
            font-size: 20px;
        }
        text.default {
            fill: rgb(0, 0, 0);
            text-anchor: middle;
        }
        text.attribute {
            fill: rgb(27, 14, 139);
            text-anchor: start;
        }
        text.variable {
            fill: rgb(0, 0, 0);
            text-anchor: start;
        }
        text.id {
            cursor: auto;
            fill: rgb(150, 100, 28);
            text-anchor: middle;
        }
        text.type {
            fill: rgb(27, 14, 139);
            text-anchor: middle;
        }
        text.value {
            fill: rgb(27, 14, 139);
            text-anchor: middle;
        }
        path {
            stroke: rgb(0, 0, 0);
        }
        .highlighted path {
            fill: var(--highlight-object-fill) !important;
        }
    
        [data-theme="dark"] {
            --highlight-value-text-color: #110875;
            --highlight-id-text-color: #6e4409;

            --fade-text-color: #BBBBBB;
            --hide-text-color: #121212;

            --highlight-box-fill: #EDB926;
            --highlight-box-line-color: #FFFFFF;

            --fade-box-fill: #2C2C2C;
            --fade-box-line-color: #666666;

            --hide-box-fill: #121212;

            --highlight-object-fill: rgba(72, 207, 173, 0.3);
        }
        [data-theme="dark"] text.default,
        [data-theme="dark"] text.variable {
            fill: rgb(224, 224, 224);
        }
        [data-theme="dark"] text.attribute,
        [data-theme="dark"] text.type,
        [data-theme="dark"] text.value {
            fill: rgb(144, 164, 237);
        }
        [data-theme="dark"] text.id {
            fill: rgb(255, 183, 77);
        }
        [data-theme="dark"] path {
            stroke: rgb(204, 204, 204);
        }
</style><g role="graphics-object"><title>None id0 with value None</title><g id="object-0"><path d="M51.06081553096725 25.012753968892277 L249.52506357930602 24.32330117743429 L248.48519809945145 153.47086159441977 L50.10869957479768 156.19881454936225" stroke="none" stroke-width="0" fill="none"/><path d="M48.48530559675198 24.3367425069278 C108.82069341323019 24.818236239114814, 162.88395811555097 27.24681846036883, 251.55885915679923 23.233931037466267 M50.42664717924327 25.10703840514832 C103.75592554849749 23.606665901225107, 157.9254562307252 24.723956444247705, 249.49153539324027 25.333364346947736 M249.8146036523015 23.111077346974806 C249.88806651302107 62.781571106138706, 252.5429292881152 102.96612966640065, 249.5772118673507 153.05180024475249 M249.76025500811278 25.81604209372298 C250.95157567667044 64.61805198115503, 251.8272386846339 104.61643640937238, 249.96904651000685 154.37859164765877 M250.8487211602695 156.1937708381418 C190.79212161079028 155.9954075567489, 130.76473534498123 155.32899661619547, 50.110875720108105 154.4165602088178 M249.36024019719054 155.15301710095534 C178.06554359846837 154.17703353173442, 105.28556568338621 154.3791585695592, 50.84511137327463 154.24168695944923 M50.47351645268615 155.12029010844006 C47.94018624836826 113.33318737308954, 49.65146910799672 69.3794185731322, 49.44023144709605 25.869518431891628 M49.70749176657447 155.28591772365957 C48.8259717894443 108.0805440557852, 48.796083229967735 63.23608734516591, 50.841162061922184 24.51458677086724" stroke="rgb(0, 0, 0)" stroke-width="1" fill="none"/></g><g><path d="M43.267304540804474 19.979023808647078 L257.38929425058865 17.58439028848774 L254.24657103846573 161.94689063396598 L45.3691999409251 159.2858297702778" stroke="none" stroke-width="0" fill="none"/><path d="M42.68427145487323 18.087548084295303 C99.36971891971874 17.936525059227442, 158.21303370943312 16.35726579209198, 256.13515087373474 17.482675307474878 M43.25065418931589 18.217910273749013 C118.78457251523163 19.989990552317952, 192.3804382559777 20.35936492672402, 255.4831070593987 18.62639691535435 M254.4200278725401 18.324770010626317 C252.8271655891037 71.65880153806013, 253.75452375911144 127.86152041215634, 254.1133021386297 160.58319197497497 M255.28532464099223 18.366432234487093 C255.42534107382696 67.5363812978197, 255.21468556740513 115.75281173753596, 255.04748123236848 160.9067834952345 M256.6039751998015 161.04822535511514 C183.35642534020081 161.30878952953958, 111.3166421672248 163.69394789058464, 43.645619461895386 160.7767129525406 M256.1739215285656 160.92937485151614 C179.81255628870005 162.7774852163537, 103.33933248104799 163.40369056647572, 43.91266890956568 161.71472253679138 M44.03967406265036 161.89936660908296 C44.25691604317232 119.68205970211098, 45.617204502465206 81.21063561194114, 42.06056414397847 19.250935600906416 M43.89230282902364 161.51829039529827 C43.009051168081214 120.28183633179519, 43.737854095826634 79.46710562319484, 43.52510085013761 18.646223839711254" stroke="rgb(0, 0, 0)" stroke-width="1" fill="none"/></g><text x="150" y="115" class="value">None</text><g><path d="M50.48458024331987 24.444300042187436 L108.90126894928267 25.235540350565763 L111.67477482105227 75.08125490147997 L49.249924246004866 74.01465346336744" stroke="none" stroke-width="0" fill="none"/><path d="M48.88071514646616 25.105023445975498 C65.58132812293294 22.876613971113812, 84.43310480729977 25.223550502189827, 110.15763996895849 23.045189438732276 M49.53850807606476 24.740027658834855 C70.74160459956542 24.99920177441867, 91.49863423411392 25.446112548439697, 110.34178837728672 25.09704395007413 M110.82289273080133 24.86784385757515 C110.50974795209657 37.89646829653452, 111.21464601944466 52.282097113567275, 110.11327725588893 76.76019694888959 M110.26586272291584 25.968324726452856 C110.53127483298893 36.75102779094203, 110.27779943317645 49.364468551268914, 110.34675728213948 74.77845468387065 M109.90492005738818 73.8035200879524 C89.08458989808813 76.38671117506783, 66.81266066592367 75.71427773594822, 49.92351806831466 74.57439503971403 M109.81263313363652 74.1463628822959 C87.70551702708528 74.63433668473247, 63.362973664348544 74.50295264663761, 50.62682133764371 74.88792291804346 M51.60514939288427 74.26319177645001 C50.42985939825794 58.97400681848015, 51.75805991156647 40.018459778718565, 49.81275262516936 25.29573847093935 M50.993362294890275 74.13661903238794 C50.09713487544927 59.054527935081474, 50.66809231522119 40.88099786197502, 50.07512597906555 24.96647755517478" stroke="rgb(0, 0, 0)" stroke-width="1" fill="none"/></g><g><path d="M190.82216951449126 24.268230965826167 L250.4005167411432 23.977233391271376 L248.33627447984497 76.44991300956607 L191.66158158164683 73.0632220256942" stroke="none" stroke-width="0" fill="none"/><path d="M189.23841815672068 26.218806612123842 C214.06093310617294 26.217519825797275, 233.19309975379662 24.90008237941251, 249.4010181670166 24.78584733592071 M190.59316439262113 24.477075999798362 C213.84576401623707 25.712341482679687, 237.86587914651793 25.319034603159245, 249.7503921283214 25.533190695090106 M248.94943522457854 26.456785578201742 C249.27134801066828 43.43997733715122, 251.8132919525029 62.88519344116328, 248.7470272219153 74.19441242439207 M249.08992090462098 24.04751036871171 C250.4620526884805 37.374283595304696, 250.5806705578865 50.003209720311084, 250.82072551635713 75.27589422260576 M248.06447472970223 74.30711792049011 C228.57652932520432 76.93785877928713, 208.70177286544515 75.47108319892602, 188.4903823948604 76.70405883806963 M250.87274195668817 74.62260528180164 C230.90618103958687 74.955843359859, 213.87777413780444 75.6137858226404, 189.7006028746862 75.86172637486055 M189.93875252600682 75.73769760698794 C192.23016664104193 62.030254520979994, 191.37738816913804 52.10724622393671, 190.64022296193096 25.42794226565617 M190.03027863290185 74.73796580187384 C189.3071292459652 54.91372900101494, 190.47606855147671 35.34399404425197, 189.4611008004812 25.988619488076537" stroke="rgb(0, 0, 0)" stroke-width="1" fill="none"/></g><text x="80" y="55" class="id">id0</text><text x="220" y="55" class="type">None</text></g></svg>