<svg width="287" height="292" xmlns="http://www.w3.org/2000/svg"><style>
        :root {
        --fade-text-color: rgb(0, 0, 0);
        --hide-text-color: white;

        --highlight-value-text-color: rgb(27, 14, 139);
        --highlight-id-text-color: rgb(150, 100, 28);

        --highlight-box-fill: yellow;
        --highlight-box-line-color: rgb(0, 0, 0);

        --fade-box-fill: rgb(247, 247, 247);
        --fade-box-line-color: gray;

        --hide-box-fill: white;

        --primitive-value-color: rgb(27, 14, 139);
        --id-text-color: rgb(150, 100, 28);
        --default-font-size: 20px;

        --highlight-object-fill: rgba(255, 255, 0, 0.6);
    }

        text {
            font-family: Consolas, Courier;
            font-size: 20px;
        }
        text.default {
            fill: rgb(0, 0, 0);
            text-anchor: middle;
        }
        text.attribute {
            fill: rgb(27, 14, 139);
            text-anchor: start;
        }
        text.variable {
            fill: rgb(0, 0, 0);
            text-anchor: start;
        }
        text.id {
            cursor: auto;
            fill: rgb(150, 100, 28);
            text-anchor: middle;
        }
        text.type {
            fill: rgb(27, 14, 139);
            text-anchor: middle;
        }
        text.value {
            fill: rgb(27, 14, 139);
            text-anchor: middle;
        }
        path {
            stroke: rgb(0, 0, 0);
        }
        .highlighted path {
            fill: var(--highlight-object-fill) !important;
        }
    </style><g id="object-0"><path d="M51.7061508598422 23.6231259569698 L249.8000343924177 23.57618019021539 L249.5897475228241 156.54269630442943 L51.04970944704718 155.83827856965723" stroke="none" stroke-width="0" fill="none"/><path d="M48.89678794473968 26.419138747271155 C93.69015024733979 25.632853415970438, 138.70284737416287 22.652786898967083, 248.92398351448492 25.033036003273267 M50.478963093226625 24.586628844636767 C110.9599401180776 24.75952853382335, 172.4715840998503 24.53052886472704, 249.54247949738453 25.37448715627335 M249.4599691180126 24.74265111482527 C249.16486352520013 71.15029915494624, 249.05424780914186 115.6533906297336, 249.4512569065758 154.84483893773185 M250.9608731745297 25.67058665977112 C250.2046039028866 52.193023889276155, 250.33273700741825 80.35241385159023, 250.5772801465998 154.7965637412557 M248.37003319964583 156.14869570611035 C199.06612619593477 155.18226752407887, 143.51026524708578 156.18425067548546, 49.674772307538035 156.4459505373559 M250.31821645611961 155.29322197651518 C188.80775353773728 156.32467710780168, 128.85246022884954 156.0084148205774, 50.147761745367134 154.47675363879242 M50.77332508000246 155.42689246281424 C51.205767799951225 121.19444102187282, 47.881228492634264 90.17840623339356, 50.15526126525114 23.25606217845247 M49.12986616572221 154.2516547403921 C49.96960789000543 129.20005202421996, 50.50623325184201 102.72970668583135, 49.61755767188683 24.14158778941202" stroke="rgb(0, 0, 0)" stroke-width="1" fill="none"/></g><g><path d="M43.47638390774188 20.63891864970396 L254.1015838088432 20.75947099737122 L257.08017787938786 159.20583544781394 L43.88607582584409 160.56310227805068" stroke="none" stroke-width="0" fill="none"/><path d="M42.37821342403723 18.315212313947384 C110.61275993249531 16.535158655551612, 176.91134022531537 18.8719955050792, 255.85227869538755 19.07222432939613 M44.56819268906964 18.580563748776516 C98.9431408100623 17.181391995827266, 155.44215582351595 18.152467513110125, 255.80398874860563 18.675220691272315 M257.7599756259982 17.077855300623053 C255.64179702116724 65.34198427364872, 255.9158545789241 108.43193028271993, 255.10571949105102 161.56825901165874 M255.353812034072 18.50540994435256 C257.0902912893753 55.328349175664066, 256.9948236062851 93.67621316426943, 256.7738248424545 161.33799457155195 M257.0990261934594 162.09127760050796 C202.7333249270956 163.45895643902813, 151.57120402679706 164.0435618195294, 45.71886369739491 161.97501548678298 M255.1835417146413 161.24015540951783 C196.86171916821704 159.777266284231, 137.21403835622303 160.28503093607563, 43.139186847610965 160.9785686630195 M45.034632796172744 159.58276428350337 C44.908410435357794 109.16449970286646, 42.646703895401494 58.1687768115195, 44.34798114347541 18.431790849053943 M43.8644474185309 161.434985373564 C44.39937181796217 124.55901829344853, 46.069882090763265 88.57325183292386, 43.201655317113264 18.380375011463194" stroke="rgb(0, 0, 0)" stroke-width="1" fill="none"/></g><text x="150" y="115" class="value">None</text><g><path d="M49.91890851054583 23.470351238680028 L111.7355663995763 23.048233483215892 L111.84925274993006 76.98148300426367 L48.573463522313034 73.80184312387583" stroke="none" stroke-width="0" fill="none"/><path d="M50.06701336146648 25.471172625851242 C71.97338757100353 23.794431081576317, 92.53295795673071 25.21354607510225, 110.260366957687 25.4950153842991 M49.054523151368876 25.513919601441085 C69.33684581185467 25.154369359027353, 87.70546006512204 23.93473093137689, 109.47955788683319 24.033010747960923 M109.06881595319916 25.670377709785754 C108.85737777060348 40.37085103386934, 110.10769257788547 57.83834445087238, 111.89096223393972 76.0240595736438 M109.70567403771523 24.97730852862632 C108.94904209922184 43.73818173951583, 109.19352598612193 61.16468766092218, 110.66810075246352 74.491157262912 M111.39494280167708 75.15937363420414 C96.92321730137091 77.24937299600307, 83.5716278085612 74.54013918379586, 48.513754425817815 75.48744058402725 M110.29162353897338 75.9788271091239 C86.69076037422086 73.72548752339112, 62.71395995920494 73.8268751925753, 50.12497761195818 75.0235426518996 M48.036367463908284 76.1834000284962 C51.60420703405425 62.9836123558874, 50.3187854025741 46.412861602737145, 48.53401741945897 26.90803425209156 M50.87464840000887 75.30749599750955 C50.63635026752983 56.897143251605854, 49.241557300592014 41.2344477152451, 50.55065876222069 24.864658680738074" stroke="rgb(0, 0, 0)" stroke-width="1" fill="none"/></g><g><path d="M190.24342883785596 26.32073743613895 L249.3607411608459 26.80121967353612 L250.08942133543346 75.69008963337127 L190.31204306040257 73.07827006804705" stroke="none" stroke-width="0" fill="none"/><path d="M189.2566955142868 24.092844193229226 C212.88659233874967 24.877330444273504, 234.51280156591304 23.27252755556257, 248.74134954979843 26.742101100793036 M189.65665598170443 24.859212264644484 C212.31249858424118 26.11754178687481, 233.17919476912928 25.695895496022388, 249.79793858121417 25.74567532712786 M249.45717803136844 24.261928263693108 C251.95325624395917 39.31699574418085, 250.8746916469462 53.48763583307928, 250.56647268171744 75.94261049464049 M250.0964852454926 24.152952787775927 C248.6808672886715 36.47311825326739, 249.56011918189574 49.094869405731664, 250.1226877393914 74.46733878372987 M248.8960577288476 74.95569855855318 C228.57316655949347 73.36169496164838, 208.19133303607623 74.53373823155273, 190.4676518785775 76.53370813329639 M249.4284883773369 74.10554367217362 C235.34152140570512 74.53384956035191, 220.6528077147198 74.78518288442433, 189.55166314336532 74.09933230706449 M190.6733805195545 75.40114769795053 C192.0140982545212 65.11528474045687, 189.56419298014572 52.990681834869335, 191.6286306254524 25.174439042121055 M189.54876682903668 74.90771047942674 C190.62100968383874 54.35179993236747, 189.56224857515548 34.18377352782647, 190.4175726536198 24.97488063849604" stroke="rgb(0, 0, 0)" stroke-width="1" fill="none"/></g><text x="80" y="55" class="id">id0</text><text x="220" y="55" class="type">None</text></svg>