<svg width="287" height="217" xmlns="http://www.w3.org/2000/svg"><title>Python memory model diagram showing objects</title><style>
        :root {
        --fade-text-color: rgb(0, 0, 0);
        --hide-text-color: white;

        --highlight-value-text-color: rgb(27, 14, 139);
        --highlight-id-text-color: rgb(150, 100, 28);

        --highlight-box-fill: yellow;
        --highlight-box-line-color: rgb(0, 0, 0);

        --fade-box-fill: rgb(247, 247, 247);
        --fade-box-line-color: gray;

        --hide-box-fill: white;

        --primitive-value-color: rgb(27, 14, 139);
        --id-text-color: rgb(150, 100, 28);
        --default-font-size: 20px;

        --highlight-object-fill: rgba(255, 255, 0, 0.6);
    }

        text {
            font-family: Consolas, Courier;
            font-size: 20px;
        }
        text.default {
            fill: rgb(0, 0, 0);
            text-anchor: middle;
        }
        text.attribute {
            fill: rgb(27, 14, 139);
            text-anchor: start;
        }
        text.variable {
            fill: rgb(0, 0, 0);
            text-anchor: start;
        }
        text.id {
            cursor: auto;
            fill: rgb(150, 100, 28);
            text-anchor: middle;
        }
        text.type {
            fill: rgb(27, 14, 139);
            text-anchor: middle;
        }
        text.value {
            fill: rgb(27, 14, 139);
            text-anchor: middle;
        }
        path {
            stroke: rgb(0, 0, 0);
        }
        .highlighted path {
            fill: var(--highlight-object-fill) !important;
        }
    </style><g role="graphics-object"><title>None id0 with value None</title><g id="object-0"><path d="M51.20707441740586 24.110621333879877 L251.55612536102913 24.573072791438296 L249.5565638032588 156.56229538621216 L49.86625049835851 155.24008899148487" stroke="none" stroke-width="0" fill="none"/><path d="M49.393171086893084 24.062761929996096 C128.483413582486 23.406841279779254, 202.58667014448142 24.25074383891018, 248.59010305499825 25.836034530085335 M50.29726516131938 25.043691583870295 C112.90966104273859 25.63966164834462, 176.88428216686273 26.53962365484727, 250.54069374116818 24.6358994468167 M249.0817835169723 26.737162831675967 C247.55240905138066 62.602507800211114, 249.4694901183056 100.72715460393805, 249.43935847267852 155.6865980408975 M250.942015488568 25.458405213022804 C249.68011853809028 59.910945288145605, 248.52378615473089 93.51769076582545, 249.42446082592073 154.4848126377895 M248.6136523141542 156.76098301603693 C174.95385394592176 154.23239856641607, 103.95502255849786 156.52373899185162, 51.701425639555055 154.794547169915 M250.75094921955773 155.71384590472033 C198.68387297481323 152.99794227365769, 149.48903723189252 153.68947682850884, 49.461488772414526 154.63757848921463 M49.060319043102425 154.37547085030891 C51.98750693811015 106.49880144913988, 51.84100149419087 59.373520227012996, 50.331304513766085 23.696994519282292 M49.955876932441086 154.088968981836 C49.782312169324165 120.44451859594359, 50.23747780544326 84.63711567637212, 49.00144106112328 24.57997865193785" stroke="rgb(0, 0, 0)" stroke-width="1" fill="none"/></g><g><path d="M42.09357410928835 20.020775529724382 L256.3723098402475 20.375749376688937 L255.58471973743508 161.63019136564333 L44.000819350040054 162.8263644515196" stroke="none" stroke-width="0" fill="none"/><path d="M45.3789294301329 19.48946959683165 C112.71051725656021 18.185869076832727, 185.24494778733364 19.153898768821097, 254.39490412255088 20.404022120786458 M44.57090539833301 19.07091470284789 C97.75045399363674 19.07842564386149, 151.10224123776706 19.834805718957636, 256.56660638929867 19.223399357508992 M255.6677413568458 20.13382967981603 C257.3345249791862 69.20453075355302, 258.72798259748834 115.46001952269593, 257.81205628372635 162.47746149335111 M255.33262662860102 18.608791234829923 C258.1628924283566 74.02992112787157, 257.32334876958834 127.9917855500258, 256.7065186325356 161.39084557590513 M255.13635642682195 160.12222656139676 C213.86972336239833 159.83460220891257, 169.48077182547445 162.68789434057686, 45.47213524705656 161.88634271974828 M256.30498848543516 160.36233150691035 C213.35881707957662 162.32895491197, 169.87364809527696 162.39050943843543, 43.12689424832668 160.21786520605875 M43.57700972975839 160.3525892087281 C45.098698414817676 113.43326503957971, 45.13632958500527 63.86545553579761, 45.342116824835855 18.68910414156887 M44.14939112471315 160.87180010877003 C45.19522522772599 114.27789765282714, 45.34831148953909 69.65733969752598, 44.13792891175289 19.41595482440371" stroke="rgb(0, 0, 0)" stroke-width="1" fill="none"/></g><text x="150" y="115" class="value">None</text><g><path d="M51.88873898935767 25.64606535827912 L110.7246870991755 24.257220430868312 L110.16750023641465 74.46032454023606 L48.684545032697145 73.46140261598173" stroke="none" stroke-width="0" fill="none"/><path d="M50.14473647277009 23.205801820341136 C65.14435907091996 26.288621371298944, 76.18702698587956 26.439282269450004, 108.79685241710392 25.79948915495316 M49.08010380919251 24.939566027530567 C69.75660139959864 24.706695675420193, 89.95109768489822 25.163522957658575, 110.5083907767693 25.307486421346017 M108.5928318036772 24.691152965667094 C109.9008900845981 39.01139167815971, 110.33542006460769 54.71230990685183, 108.89182649977732 76.83031901724978 M110.81461754997521 24.927047240694975 C109.3013122448881 39.33382289655713, 109.8445345867847 53.78435595699583, 110.44401525229074 75.64338177014415 M110.13347736874682 74.37368827627846 C86.12951021090551 75.48721468039625, 65.28589936633972 73.89949004959834, 48.30959864274035 75.79714895285665 M110.7976747632197 74.1681014412635 C96.50743622495759 74.81668428455505, 85.20582687746008 74.52272669247482, 49.4480627408033 75.06370633268273 M49.11971345100789 74.6942723572578 C48.921200079501006 65.40497377674498, 51.88323062098874 54.53818013940594, 48.86525757942777 25.226291114588587 M50.73215706184029 74.76852833592625 C50.93568517510495 61.41046041955793, 49.37467658178867 50.408609652229735, 49.66388003116851 24.15344753868877" stroke="rgb(0, 0, 0)" stroke-width="1" fill="none"/></g><g><path d="M191.21666505982583 23.729906497896607 L251.338486773447 24.03466306842606 L249.6089539256026 73.42331659765837 L189.64738897327638 73.13521741864734" stroke="none" stroke-width="0" fill="none"/><path d="M191.1489199919703 23.565006674671913 C205.6537538550359 26.82961467799087, 217.61999812412 27.44792554720385, 250.21673883406476 23.741114781260418 M189.8873048629111 24.14581441734222 C206.35830583678316 24.360185223642635, 223.64563578531178 25.13329062478973, 249.8876853169714 24.774626657455748 M250.29149024147222 26.007556929205986 C249.07067248948346 37.75159192554537, 251.21820852102064 53.34540009624238, 250.22351122459332 75.35946763419484 M250.71777833717732 25.167338135403575 C250.16407961378047 45.18974311543205, 250.47840241150462 63.395927821213505, 249.21006917104808 75.39581338681518 M248.8643859902276 76.7683712674714 C231.80363197690247 76.71852424146013, 210.9913377972911 73.54523192829963, 189.16763264608161 76.76691849158179 M249.51092706786608 74.30769554839263 C230.45563875751512 74.68917606614093, 208.74400669957583 75.10309134556921, 190.20826957003484 75.45131742734694 M190.35745218758458 74.06453625231465 C191.24969192012557 63.18500049985825, 189.08626331507384 49.60480778640425, 188.46384508660927 26.679520145436083 M189.04438770980227 74.85114707326436 C190.2502502085505 61.108513493516355, 190.34800334271407 46.72927190546925, 189.76372215698518 24.471441861518695" stroke="rgb(0, 0, 0)" stroke-width="1" fill="none"/></g><text x="80" y="55" class="id">id0</text><text x="220" y="55" class="type">None</text></g></svg>