<svg data-theme="dark" width="287" height="217" xmlns="http://www.w3.org/2000/svg"><title>Python memory model diagram showing objects</title><style>
        :root {
        --fade-text-color: rgb(0, 0, 0);
        --hide-text-color: white;

        --highlight-value-text-color: rgb(27, 14, 139);
        --highlight-id-text-color: rgb(150, 100, 28);

        --highlight-box-fill: yellow;
        --highlight-box-line-color: rgb(0, 0, 0);

        --fade-box-fill: rgb(247, 247, 247);
        --fade-box-line-color: gray;

        --hide-box-fill: white;

        --primitive-value-color: rgb(27, 14, 139);
        --id-text-color: rgb(150, 100, 28);
        --default-font-size: 20px;

        --highlight-object-fill: rgba(255, 255, 0, 0.6);
    }

        text {
            font-family: Consolas, Courier;
            font-size: 20px;
        }
        text.default {
            fill: rgb(0, 0, 0);
            text-anchor: middle;
        }
        text.attribute {
            fill: rgb(27, 14, 139);
            text-anchor: start;
        }
        text.variable {
            fill: rgb(0, 0, 0);
            text-anchor: start;
        }
        text.id {
            cursor: auto;
            fill: rgb(150, 100, 28);
            text-anchor: middle;
        }
        text.type {
            fill: rgb(27, 14, 139);
            text-anchor: middle;
        }
        text.value {
            fill: rgb(27, 14, 139);
            text-anchor: middle;
        }
        path {
            stroke: rgb(0, 0, 0);
        }
        .highlighted path {
            fill: var(--highlight-object-fill) !important;
        }
    
        [data-theme="dark"] {
            --highlight-value-text-color: #110875;
            --highlight-id-text-color: #6e4409;

            --fade-text-color: #BBBBBB;
            --hide-text-color: #121212;

            --highlight-box-fill: #EDB926;
            --highlight-box-line-color: #FFFFFF;

            --fade-box-fill: #2C2C2C;
            --fade-box-line-color: #666666;

            --hide-box-fill: #121212;

            --highlight-object-fill: rgba(72, 207, 173, 0.3);
        }
        [data-theme="dark"] text.default,
        [data-theme="dark"] text.variable {
            fill: rgb(224, 224, 224);
        }
        [data-theme="dark"] text.attribute,
        [data-theme="dark"] text.type,
        [data-theme="dark"] text.value {
            fill: rgb(144, 164, 237);
        }
        [data-theme="dark"] text.id {
            fill: rgb(255, 183, 77);
        }
        [data-theme="dark"] path {
            stroke: rgb(204, 204, 204);
        }
</style><g role="graphics-object"><title>None id0 with value None</title><g id="object-0"><path d="M48.19890926508598 26.678672142247486 L249.50940777233245 23.21291662442191 L248.3515560538916 153.840009298388 L51.08699936824379 153.2220730751713" stroke="none" stroke-width="0" fill="none"/><path d="M50.97190615364068 24.385272675458694 C107.03518457059216 24.043840037438454, 162.29409031724822 24.036240122212973, 248.50631039390345 25.443189791555884 M50.51112974075923 25.87021071467346 C123.1060279973801 25.658523464645747, 198.38888644920112 25.71819856044403, 249.91576023242428 25.500371160098975 M248.38218011703398 25.55229150517922 C249.14770587507178 66.18600651962669, 248.47122342360734 112.3125182833678, 251.545317209041 156.21163649226398 M249.67149129631161 24.426620519788084 C250.49500853684606 75.51428539172504, 250.41586668460877 127.60597584560342, 250.62851186122435 154.94877287455165 M251.62698034042043 156.4651784932584 C183.84553519172428 157.39550011896517, 114.561446734534 157.41867776981323, 48.83987671138075 155.3905953809079 M249.5152711401777 154.43466191090667 C193.44564900355812 155.4612955282987, 137.64790703512477 155.0909771064133, 50.492795101846994 154.27769282014478 M48.4656493119544 156.78476494743802 C48.22116000610613 114.12143795073672, 48.13595797289644 76.77498196453843, 49.38069225919334 23.4583014397739 M50.05496962594132 155.07808928154074 C48.8470191157065 122.65883798924182, 49.074668876455746 88.76010505479739, 50.48508661107606 24.53224332896402" stroke="rgb(0, 0, 0)" stroke-width="1" fill="none"/></g><g><path d="M43.47634793613853 20.41615069257911 L256.33719972016587 20.895031792101136 L255.4304505424819 162.112779807206 L44.80278310153365 161.23799990755188" stroke="none" stroke-width="0" fill="none"/><path d="M43.62986411226651 17.92238688158101 C98.02364258347899 19.503921291853654, 154.00476836932992 19.208689157681494, 255.86694963001025 18.484529788951367 M44.35036471121317 19.612654934711717 C94.62314760378896 19.28701791954042, 146.59651265412018 17.734337053191588, 255.52681389844406 18.383352127729697 M254.36455589547953 17.33274534456506 C258.3688316362616 50.59527981732486, 256.14662685035466 82.02661048868794, 255.7835441643167 160.3903947667262 M256.0478692200978 18.127967484442895 C256.5440070017905 66.92162808002362, 256.3969369899635 113.89331998160037, 256.26947568013287 161.07403301257122 M256.2646498300353 159.35303471791667 C185.98120137634746 162.42821180735388, 112.48880240010006 161.42835169741178, 43.30349209956336 160.12957086840248 M256.10062020159165 160.77129182661213 C198.5287282987158 162.09124620025767, 143.6122602588289 162.319537869803, 44.42847453111598 161.84815779590318 M45.744857958819395 162.15106879489224 C44.24894044151377 132.46895904849183, 44.879863934374924 103.14518789766822, 43.10157527055154 20.647134285624695 M43.01906128646028 161.01824761518193 C44.62793668451362 126.52492954058718, 44.0668920198817 90.27862655935179, 44.23143035371947 19.53920741469977" stroke="rgb(0, 0, 0)" stroke-width="1" fill="none"/></g><g><path d="M50.53387885520407 26.819584476852143 L111.03652075684978 26.665268832247015 L110.17965108851 74.8499012431738 L49.071167337866896 74.76018202732674" stroke="none" stroke-width="0" fill="none"/><path d="M51.122492211844126 25.063557460721245 C63.99504659068417 25.987935231720748, 80.66095558268582 22.721167978968452, 111.4562057859046 23.900778726950573 M50.84574768059542 24.333839478799984 C71.46235091871543 24.5330900426487, 92.15384205928574 24.587896190180057, 110.6712601170239 25.579666214467686 M111.50046023993464 25.819677691034745 C108.66123163910271 39.541002692830446, 111.0042914064772 57.42751759705189, 109.75027696643225 75.91885505959942 M109.06931945699107 24.389802494922602 C110.93045682456254 42.87637570022963, 110.90232224930922 59.77596743903335, 109.99493069563438 75.6611348764449 M108.10085160849394 74.28021578769437 C89.09427556040625 73.68816683442539, 65.85960995701544 76.48182512345237, 49.57469124128115 73.46146182132915 M110.83797575706065 75.34952387097026 C92.19730538746647 74.5962815742364, 75.29033982397854 74.91942284418535, 50.10843893488688 75.10837095722616 M51.336547557661596 76.49678493370202 C49.342210098746875 59.37462409699463, 50.745632304941516 46.03127371103826, 51.54840188521029 24.550054970035927 M50.386836747509804 75.27480263638809 C49.952427872257914 63.873952543095996, 50.754468416817254 52.00981406975393, 50.672739027949504 24.873628961556342" stroke="rgb(0, 0, 0)" stroke-width="1" fill="none"/><text x="80" y="55" class="id" aria-label="id: id0">id0</text></g><g><path d="M191.3051706862957 25.4414520334133 L251.4866307096379 24.71601542591199 L249.0908589198316 73.30510770440304 L191.67407309533462 75.9605432857868" stroke="none" stroke-width="0" fill="none"/><path d="M189.02873237331292 23.917524366155938 C202.49086024916798 24.19811266433717, 215.5487201986116 27.010941691864183, 249.08421852717535 23.448112318267174 M189.87503413462002 24.606719055432386 C212.2544521114205 25.946952451824714, 232.23473402922565 25.5916506021252, 250.09724979947052 24.28883770458244 M251.4950187624114 23.249454957169014 C250.53844880042166 36.30012791740093, 250.8817600072446 48.94721715410835, 249.22025100036763 74.20968462050298 M249.77985827766972 25.54023460438126 C250.81628832276175 34.932396362617965, 250.61609965367262 46.94787711345291, 250.30089969048376 75.48752681077072 M248.18831983138642 73.04215732550146 C234.9878063554328 73.74731594947362, 218.61090060328578 73.47897336465407, 188.87357763532822 76.80051799998603 M250.2027237541757 75.80348595440933 C227.66640935425085 75.46704277671536, 205.36754557600977 75.2300187586682, 189.2594934573392 75.77819182102026 M188.78655487339918 75.6095168521547 C188.29790386523499 57.70906837049436, 191.02437902085012 40.46022768812954, 191.02582738561077 24.76891917979293 M189.890085244195 74.6052707258865 C189.83440704672975 64.83541096931089, 190.86396951146722 52.379357239559866, 190.61823924124803 24.59420939265231" stroke="rgb(0, 0, 0)" stroke-width="1" fill="none"/><text x="220" y="55" class="type" aria-label="type: None">None</text></g><text x="150" y="115" class="value" aria-label="value: None">None</text></g></svg>