<svg width="281" height="205" xmlns="http://www.w3.org/2000/svg"><style>
        :root {
        --fade-text-color: rgb(0, 0, 0);
        --hide-text-color: white;

        --highlight-value-text-color: rgb(27, 14, 139);
        --highlight-id-text-color: rgb(150, 100, 28);

        --highlight-box-fill: yellow;
        --highlight-box-line-color: rgb(0, 0, 0);

        --fade-box-fill: rgb(247, 247, 247);
        --fade-box-line-color: gray;

        --hide-box-fill: white;

        --primitive-value-color: rgb(27, 14, 139);
        --id-text-color: rgb(150, 100, 28);
        --default-font-size: 20px;

        --highlight-object-fill: rgba(255, 255, 0, 0.6);
    }

        text {
            font-family: Consolas, Courier;
            font-size: 20px;
        }
        text.default {
            fill: rgb(0, 0, 0);
            text-anchor: middle;
        }
        text.attribute {
            fill: rgb(27, 14, 139);
            text-anchor: start;
        }
        text.variable {
            fill: rgb(0, 0, 0);
            text-anchor: start;
        }
        text.id {
            cursor: pointer;
            fill: rgb(150, 100, 28);
            text-anchor: middle;
        }
        text.type {
            fill: rgb(27, 14, 139);
            text-anchor: middle;
        }
        text.value {
            fill: rgb(27, 14, 139);
            text-anchor: middle;
        }
        path {
            stroke: rgb(0, 0, 0);
        }
        .highlighted path {
            fill: var(--highlight-object-fill) !important;
        }
    </style><g id="object-0"><path d="M49.863590146277915 25.921051208837785 L249.84130512247864 24.45882967574565 L249.97322194048203 153.55464029390055 L49.70924148023477 154.58735998635817" stroke="none" stroke-width="0" fill="none"/><path d="M50.40268659809399 26.119831454937124 C121.06278960255862 24.484583258893675, 194.21920151089105 23.428721135838217, 250.66714742958658 23.95664684594924 M49.96450126600869 24.516684285131024 C119.6303318712591 25.474514967789112, 190.95863496834127 25.76275836831004, 249.59645913552146 25.00377848862565 M249.61396557791417 23.255554473956973 C248.99748528316024 74.98966100080574, 249.95836713508297 122.2823464653965, 249.05443131748103 154.62050139773345 M250.46142310769324 25.989204866173075 C251.0063886979004 62.238287585885104, 250.61108901620725 101.14309863443482, 250.21322041825618 155.40702335196994 M248.72222022724156 155.59008121469162 C198.2319189620606 153.8604263062974, 143.5646937906068 152.81584967756731, 51.280619035641614 155.36138057046713 M250.42684353891272 154.69127825032834 C180.97212482807956 153.70480530287912, 112.18603399655325 154.0945669445408, 50.23183591938003 154.2805743510896 M48.80092234944014 156.83798226949213 C48.89078084876788 112.86618254777649, 51.52450886815378 75.07410319555706, 50.27359818009332 26.514017440260368 M50.047390281314584 155.55754351627587 C48.11743927187096 108.40969606469895, 48.7465128643881 63.82003702799647, 49.17099997038208 25.373387589823153" stroke="rgb(0, 0, 0)" stroke-width="1" fill="none"/></g><g><path d="M44.06374809273 19.197365126389663 L255.08027091173423 18.87391221229883 L256.5202334290852 161.3375936807053 L43.711036371657634 159.58357089248585" stroke="none" stroke-width="0" fill="none"/><path d="M44.40337874717788 17.60705010086569 C112.52804428965108 17.64039020123696, 176.84187177683958 20.344333001649495, 255.67489187581631 19.002561345396987 M43.245662034005946 19.00681555627454 C126.74830492573811 20.985606108352588, 208.48582958737117 21.086035726144996, 255.61250938591246 19.749392671837303 M256.8540206414518 20.813135468966603 C254.25185878658155 70.40595740190223, 253.54902420476006 119.4738257224, 255.15338490870198 160.1660639652223 M255.0787134001634 19.983678242583657 C256.9809239855666 69.86429307855046, 255.5299103407828 120.41648060594011, 255.25739074260198 161.15422384072707 M254.68775418555344 162.33736853147803 C178.9825792129603 160.50984098772417, 101.12238129720104 162.97726970606328, 45.33960651623328 161.76093076486043 M255.81156756124884 161.6928316210755 C179.61576968386177 162.9650198056402, 104.9665884574779 163.18948217731253, 43.623019007116575 161.6221445429274 M44.56720404432477 161.845920285966 C43.738542512452334 132.57723944863636, 42.22678385260712 99.36902021605039, 45.221934558608474 19.055564529182007 M44.876699566142676 161.74803506529446 C42.39316551655925 115.38140465341189, 42.436669997701955 71.10980643657771, 43.682912831459014 19.279880183616896" stroke="rgb(0, 0, 0)" stroke-width="1" fill="none"/></g><text x="150" y="115" class="value">range(0, 5)</text><g><path d="M50.99061806953492 23.87701758468687 L111.53607148870636 23.287596121491447 L110.93130793367129 75.02628000141486 L49.90247691415554 76.90958500346747" stroke="none" stroke-width="0" fill="none"/><path d="M48.722805234006124 24.597229415644268 C74.52542516756381 23.33761971477753, 95.3096109457968 22.971344358089226, 110.12046712990931 23.446109115406095 M50.14115823361381 25.744468953584715 C65.75553373841451 26.009135372609144, 79.64063113389052 25.369617566501002, 110.83787762386471 24.69869211428352 M108.34608613092594 24.221803595977367 C109.77213660383522 43.2374768641538, 110.05780148814156 58.29931237157479, 108.47444390205442 76.40570991306947 M110.551867714248 24.763701614687587 C110.17982434920424 43.823739920675514, 109.9492977862088 62.98791166829363, 110.76452887101138 74.07584861857761 M110.83326077412654 75.79145604280568 C86.58098059610892 76.29200977583157, 67.29434815705288 74.93771547202593, 51.71804637976634 76.28364004844674 M109.97961129009599 75.64407174842158 C93.19936504180936 74.31165318008111, 74.2327520984611 73.79867625610994, 49.83006175945175 74.13629483951969 M51.38440201972251 76.3116351941073 C47.69060730031694 53.09136679102305, 48.23293144010285 33.22596624265248, 50.16659766884809 25.35477404488014 M50.265505973606636 74.36692143386138 C49.407056859363436 64.75821488336231, 50.321759365073916 53.62840599427591, 50.47490659188891 25.326192361515595" stroke="rgb(0, 0, 0)" stroke-width="1" fill="none"/></g><g><path d="M180.1492776458354 26.100929614847303 L250.57285924874296 23.2367956302733 L250.8188167212737 73.55467347846793 L180.86354786225044 75.10714200675089" stroke="none" stroke-width="0" fill="none"/><path d="M179.5471134718584 25.855263991190824 C198.22016809508807 23.827382808746872, 219.14387297787997 26.40279757432885, 249.75196474509445 24.97758187767161 M180.8946273705524 25.685020330436696 C196.51559082508103 25.479827342571202, 212.84892844346737 24.682170752729952, 250.13426426060133 24.624922913272236 M249.80220721334618 23.719516017967642 C251.0638463582234 39.8337743101088, 249.5881126019436 58.874484927196804, 249.85792104783954 76.53961938351075 M250.39068782731997 25.39567460256687 C251.04440794617042 41.14123127047435, 250.12264897894005 58.14281286124416, 250.00647233076467 75.17582988863838 M251.92644022326715 73.74251629874766 C234.78510722813445 74.03959357152104, 220.93482858692923 74.07850931582718, 180.50420881803447 74.62387876029642 M250.6353315654291 75.4334450316995 C226.9546660848295 74.76999724732046, 205.04120042837667 75.6754909737695, 180.8681305594173 75.95234441190068 M178.98254460832842 73.94550024241683 C177.9345501339639 56.50314565821113, 180.43552837346934 41.52893735847361, 181.07293780349727 23.478303437883255 M179.11640382108257 74.45210701071957 C179.8324483776941 65.8235315440471, 181.36192718081884 55.43323310670154, 180.1403576633874 25.887899328467192" stroke="rgb(0, 0, 0)" stroke-width="1" fill="none"/></g><text x="80" y="55" class="id">id76</text><text x="215" y="55" class="type">range</text><script>
            function enableInteractivity() {
                // Inject the id value to object id mapping into script
                const idToObjectMap = {"id76":["object-0"]};

                function highlightObject(objectId) {
                    const objectBox = document.getElementById(objectId);
                    if (!objectBox) {
                        return;
                    }

                    objectBox.classList.add('highlighted');
                }

                function removeHighlight(objectId) {
                    const objectBox = document.getElementById(objectId);
                    if (!objectBox) {
                        return;
                    }

                    objectBox.classList.remove('highlighted');
                }

                function addEventListeners() {
                    document.querySelectorAll('text.id').forEach(idText =&gt; {
                        const idValue = idText.textContent.trim();
                        if (!idValue || !idValue.startsWith('id')) {
                            return;
                        }

                        idText.addEventListener('mouseover', () =&gt; {
                            const objectIds = idToObjectMap[idValue];
                            if (objectIds) {
                                objectIds.forEach(highlightObject);
                            }
                        });

                        idText.addEventListener('mouseout', () =&gt; {
                            const objectIds = idToObjectMap[idValue];
                            if (objectIds) {
                                objectIds.forEach(removeHighlight);
                            }
                        });
                    });
                }

                addEventListeners();
            }

            // Wait for DOM to be ready
            if (document.readyState === 'loading') {
                document.addEventListener('DOMContentLoaded', enableInteractivity);
            } else {
                enableInteractivity();
            }
        </script></svg>