<svg width="281" height="205" xmlns="http://www.w3.org/2000/svg"><title>Python memory model diagram showing objects</title><style>
        :root {
        --fade-text-color: rgb(0, 0, 0);
        --hide-text-color: white;

        --highlight-value-text-color: rgb(27, 14, 139);
        --highlight-id-text-color: rgb(150, 100, 28);

        --highlight-box-fill: yellow;
        --highlight-box-line-color: rgb(0, 0, 0);

        --fade-box-fill: rgb(247, 247, 247);
        --fade-box-line-color: gray;

        --hide-box-fill: white;

        --primitive-value-color: rgb(27, 14, 139);
        --id-text-color: rgb(150, 100, 28);
        --default-font-size: 20px;

        --highlight-object-fill: rgba(255, 255, 0, 0.6);
    }

        text {
            font-family: Consolas, Courier;
            font-size: 20px;
        }
        text.default {
            fill: rgb(0, 0, 0);
            text-anchor: middle;
        }
        text.attribute {
            fill: rgb(27, 14, 139);
            text-anchor: start;
        }
        text.variable {
            fill: rgb(0, 0, 0);
            text-anchor: start;
        }
        text.id {
            cursor: auto;
            fill: rgb(150, 100, 28);
            text-anchor: middle;
        }
        text.type {
            fill: rgb(27, 14, 139);
            text-anchor: middle;
        }
        text.value {
            fill: rgb(27, 14, 139);
            text-anchor: middle;
        }
        path {
            stroke: rgb(0, 0, 0);
        }
        .highlighted path {
            fill: var(--highlight-object-fill) !important;
        }
    </style><g role="graphics-object"><title>Range id76 with value range(0, 5)</title><g id="object-0"><path d="M51.853531275434825 24.96152439119167 L251.70233412059733 26.134015727623858 L250.9926598591779 155.45333619805223 L48.925705003974876 153.28603348965208" stroke="none" stroke-width="0" fill="none"/><path d="M50.37550920790853 23.786966341255283 C127.00791739618121 24.566024920454165, 204.48199226050303 22.89283879286547, 249.32267084511898 24.96425517253614 M50.6717587518942 25.742085809463312 C97.54747637888528 26.069079737948513, 144.54885108423025 25.147351573907, 249.47641295289125 25.662124681223492 M251.84779513325802 26.862733863057123 C248.76984042517472 58.653478760648774, 251.49236225137216 89.45395753546282, 248.54080897022092 155.16021806294407 M250.1656891181341 25.46225272777273 C249.34355814058694 70.94060041920142, 248.4995817224006 114.8171425861605, 249.15473091417402 155.53038781707494 M249.47176502015742 153.46725525971794 C206.54502492533817 155.82212552974335, 160.421866248236 156.18564435493775, 49.03416419016119 154.59113546428023 M250.56921577840887 154.42019973291494 C194.2043975209103 153.94323305538694, 138.13729442761357 153.71181944047498, 49.18662831022006 155.26789204499676 M51.008581981109344 156.5691487059087 C53.055045442251966 127.1271503196493, 50.19724691786021 100.55692865928609, 49.75870084795063 26.560364185838097 M50.66380626790717 154.1624102220697 C49.52717124108309 122.36514668551786, 50.401460505833754 90.21249286784442, 49.77360844646734 24.561727046330653" stroke="rgb(0, 0, 0)" stroke-width="1" fill="none"/></g><g><path d="M45.569480795897725 20.488045917351716 L255.3235819041435 19.261844685853298 L256.40489452633597 161.8820575202735 L43.872380894255386 162.3440018177712" stroke="none" stroke-width="0" fill="none"/><path d="M44.82750027514958 17.349756513059482 C121.06828003212276 19.09320396328821, 197.63469716505267 18.683392654667266, 254.64047430432242 17.541621231644903 M44.72369925907775 18.19012898286073 C106.26581852849036 18.851545416987424, 168.5032678325636 19.26057536734434, 256.325451006166 19.295086482217954 M254.81069222892114 20.5125415516236 C257.2848849432294 71.26000432061942, 254.99777999053086 127.88909351872084, 257.8515726506902 160.25585940957498 M255.55877553231988 19.86224506372947 C255.15088402907932 68.26465078406525, 256.591073033669 116.04406231382113, 255.2772198547223 161.3125872996559 M257.2963483669711 160.6326828640901 C180.35296507085306 163.03595053743862, 102.76382539591243 161.99130596458755, 45.55230867667485 159.6960875659014 M255.80361337666199 161.3392576467418 C207.55958147560605 162.65631019464672, 158.59196579978584 162.19779082416161, 43.29437757366984 161.04288388190508 M45.19420596111567 160.5878748704804 C41.86103710966369 126.20777294179284, 43.56441933103731 90.75090996276658, 42.64711810919219 20.899562022538674 M43.540743933790786 161.1954638180138 C44.952561386297155 131.5516744209771, 45.412325518386325 102.93533881195398, 43.85748099739549 18.53079827999664" stroke="rgb(0, 0, 0)" stroke-width="1" fill="none"/></g><g><path d="M51.95885840215823 24.83858483081063 L110.84676706563624 25.489743882423866 L108.82854323904276 73.80940132143049 L50.5646384412606 73.31540561422214" stroke="none" stroke-width="0" fill="none"/><path d="M50.1087234450789 23.503817089580032 C69.69339565446008 25.25073994642917, 85.87986525236893 24.490417330924405, 109.50542690281397 26.663073487495037 M49.76277695479687 25.299152319677127 C63.62350626145314 26.194275160733277, 78.55592135592558 25.65021958202649, 110.65101355430849 25.417845697944237 M111.59472674263462 23.905767171788735 C111.42576292346736 43.9379776254481, 108.36476702953306 65.55224596978809, 108.90917770332844 74.55726891158771 M109.46945351583913 25.336837263119765 C109.09373881458825 43.60785996239899, 109.45305677286149 63.4052314460481, 109.6367973625019 74.446259429194 M108.77259043031229 74.46024461987146 C87.92516322055768 74.7755918356642, 62.733679357843734 73.36743832310987, 51.574501785987536 74.98501326991459 M110.52379619586348 75.80774593949891 C90.45783426595806 73.91942290205019, 70.83705808281121 74.55409596319637, 49.06457315497523 75.9438236936172 M48.70992573905373 76.89503251899788 C48.694784987588505 58.57460564019787, 49.00342713497854 44.81814930755038, 49.04818263688205 25.08059957605414 M50.164382751912036 74.84537546027246 C50.24088068275516 55.95812420941054, 50.36785477402886 38.07575698663488, 49.99693150452784 24.641570674910867" stroke="rgb(0, 0, 0)" stroke-width="1" fill="none"/><text x="80" y="55" class="id" aria-label="id: id76">id76</text></g><g><path d="M179.8093574470543 25.18881959498192 L249.66393355586118 25.813954030162574 L251.8784857510128 75.33136885074639 L181.86979370313009 75.23225351471484" stroke="none" stroke-width="0" fill="none"/><path d="M178.01520393942215 25.207898124919303 C203.13115889741536 26.64140009010077, 228.78772915806454 23.828946389607367, 249.1113615919379 24.10648069323881 M179.22029277863194 25.190668706965376 C208.52769452219619 25.0525262702471, 234.83451108979975 26.514205081737135, 249.9852096692706 25.348314579335057 M248.12148361430476 26.267553831060138 C248.38013394051575 36.67912117082973, 247.98929642830356 48.91246239337068, 250.91602144403163 74.80977899605398 M250.27370944306725 25.92295212366768 C249.20090045217668 43.11737316857832, 250.92732124702005 58.88066162790508, 249.44208429716838 74.19351007305175 M248.93469070703892 75.91095145620159 C235.2740980400011 73.89224932807141, 219.54816020234412 74.93383186561596, 180.8525007980648 74.21495312990096 M249.12211982480775 74.78537320172586 C229.02045067506225 74.54553848493151, 209.9293491764597 74.20029918267974, 179.5947672368739 75.35299203205574 M181.91238487163477 74.95866188234416 C181.76629499107818 64.14292272729186, 178.99621432737888 49.3302881290477, 179.19125233361024 25.020180978483694 M180.02832707972917 75.43777060830304 C179.60330783817184 57.01673768746168, 179.2390705964816 37.39706940196871, 179.98849870782175 25.21826881662675" stroke="rgb(0, 0, 0)" stroke-width="1" fill="none"/><text x="215" y="55" class="type" aria-label="type: range">range</text></g><text x="150" y="115" class="value" aria-label="value: range(0, 5)">range(0, 5)</text></g></svg>