<svg width="281" height="205" xmlns="http://www.w3.org/2000/svg"><title>Python memory model diagram showing objects</title><style>
        :root {
        --fade-text-color: rgb(0, 0, 0);
        --hide-text-color: white;

        --highlight-value-text-color: rgb(27, 14, 139);
        --highlight-id-text-color: rgb(150, 100, 28);

        --highlight-box-fill: yellow;
        --highlight-box-line-color: rgb(0, 0, 0);

        --fade-box-fill: rgb(247, 247, 247);
        --fade-box-line-color: gray;

        --hide-box-fill: white;

        --primitive-value-color: rgb(27, 14, 139);
        --id-text-color: rgb(150, 100, 28);
        --default-font-size: 20px;

        --highlight-object-fill: rgba(255, 255, 0, 0.6);
    }

        text {
            font-family: Consolas, Courier;
            font-size: 20px;
        }
        text.default {
            fill: rgb(0, 0, 0);
            text-anchor: middle;
        }
        text.attribute {
            fill: rgb(27, 14, 139);
            text-anchor: start;
        }
        text.variable {
            fill: rgb(0, 0, 0);
            text-anchor: start;
        }
        text.id {
            cursor: auto;
            fill: rgb(150, 100, 28);
            text-anchor: middle;
        }
        text.type {
            fill: rgb(27, 14, 139);
            text-anchor: middle;
        }
        text.value {
            fill: rgb(27, 14, 139);
            text-anchor: middle;
        }
        path {
            stroke: rgb(0, 0, 0);
        }
        .highlighted path {
            fill: var(--highlight-object-fill) !important;
        }
    </style><g><title>Group of 1 objects</title><g role="graphics-object"><title>Range id76 with value range(0, 5)</title><g id="object-0"><path d="M48.509187302705826 24.129066188303547 L248.10785314105476 23.80860495082401 L249.95004000126437 153.65507335752605 L50.5622305699686 155.88860616607064" stroke="none" stroke-width="0" fill="none"/><path d="M48.29065287290858 26.66864770803462 C120.67259746040274 24.151796123009458, 193.36407148197256 25.709480604901856, 248.42602677483453 23.58646861110361 M50.39458609036337 25.40684707792791 C92.93479934381725 24.258537770032284, 135.21045771199516 24.187799950131787, 249.60386633167568 25.786623820825163 M250.40547899369042 23.3219800557272 C247.0837086358388 61.8177289356696, 247.2574742765824 99.14527936201951, 249.1847580927585 154.82362256632672 M249.6988282423204 24.087200787904596 C250.6816747337064 73.65603757266553, 249.38343401984963 121.61390882402543, 250.41301060696267 155.13912432397007 M249.261605183126 155.6396997454732 C171.4631203076001 156.34733340349334, 90.34765303914614 155.93389808140063, 50.25871258499099 156.54085694023792 M249.48159981880133 154.71546135238546 C193.9006202888124 154.32139319798324, 139.4367420353932 152.7587800682733, 49.56272667882924 155.01717651553918 M50.679780955792936 154.32195003973163 C51.873296706153965 111.90490876962322, 49.8441348438549 69.16124555969071, 48.11548170083073 24.214595593958354 M49.32325148819539 154.1537136598976 C49.316756490976786 109.30065550619558, 50.072896598030425 63.961132495751166, 49.07759419590123 24.02285849579636" stroke="rgb(0, 0, 0)" stroke-width="1" fill="none"/></g><g><path d="M42.67969180015895 20.368972725500445 L254.35761638543397 18.811477040066556 L254.34600756160845 162.92014437756978 L44.264248125592516 160.73409987416832" stroke="none" stroke-width="0" fill="none"/><path d="M44.03391782318483 17.257876756822018 C126.57015071717323 18.130562715436938, 210.14033533217656 16.39364743065275, 254.53841274486146 19.46040225072541 M44.20543979403524 19.64726561810819 C103.79555082091298 19.934426842461605, 162.6685721733552 19.540751280982448, 255.83440833390122 19.214664302512553 M257.4827626846111 17.470697469306632 C255.0114968648742 62.46873916573607, 254.91595370980548 107.77113413461066, 255.64114223829628 159.51417237965694 M255.2828047793021 19.21448719192717 C256.60980522739686 63.907683237687635, 257.54555032671453 107.56414038660859, 256.3887879918969 161.62903643098971 M255.49537926042143 160.92977441866097 C190.01126178771383 160.5531963375179, 121.521492764349 158.98450078879762, 45.01390339609666 162.65082029029668 M255.32744726826843 160.3319089833409 C196.36536553893635 160.69458698797808, 135.98474519855102 159.88836820093934, 44.69944846564307 160.70553144696697 M45.30376740442279 159.33945747245315 C42.23600412660796 107.10373795961195, 43.963832781415775 49.89834080622115, 42.317045561362846 17.751598835474496 M44.933587209192474 160.29313608992027 C43.6039337672832 130.42090645985414, 44.434080093137446 99.49028462994421, 43.37964115253278 18.247842044798112" stroke="rgb(0, 0, 0)" stroke-width="1" fill="none"/></g><g><path d="M50.94315828466917 26.673902945037383 L111.42837216722427 24.091010312726617 L108.59945474731171 74.15473755153204 L48.81172578835072 76.987186203204" stroke="none" stroke-width="0" fill="none"/><path d="M49.20509148121543 23.68897325926317 C64.16428250555768 23.329567999249385, 76.05792266933742 25.217891453203176, 108.81513223490963 25.272859107847623 M49.25321365793666 24.346804113813057 C73.01089505665641 23.741714270239022, 97.42122183004703 24.72665048836779, 110.78974650520992 25.22938153762481 M111.98884406202758 24.841017693450162 C110.28729320674289 43.13732323175804, 109.55759377548584 58.15523268583758, 111.84440924658414 74.61113964912312 M109.74092583657811 24.732647794848106 C110.66597895309842 41.113514452470795, 110.06152071188806 57.763627986434656, 110.46287367459433 74.13444346164182 M110.08824482813439 75.77368978437417 C91.53717225112595 73.37412765282545, 71.44358708276255 73.34597865176463, 48.27092182881863 76.88199561051283 M110.59790935203148 74.36029082389214 C96.05863596331191 75.87991234282441, 83.51021062817789 76.37845620619504, 50.73066706285667 75.64500759581614 M48.13711258332255 74.63732320706976 C48.530794063115714 56.449478089548464, 50.98801904277493 42.196343849080996, 51.33612384108751 24.51640749104204 M49.819365077880484 74.31109514863724 C50.7198923417126 63.26118506091656, 50.095496903834615 51.88927031302864, 49.59281939924313 25.498479801535282" stroke="rgb(0, 0, 0)" stroke-width="1" fill="none"/><text x="80" y="55" class="id" aria-describedby="desc-0">id76<title id="desc-0">Object id</title></text></g><g><path d="M180.2465508016566 24.206380431386837 L248.60922951262796 24.049799518478387 L250.45734499505053 75.82413407197039 L181.65903318642955 76.99054557450437" stroke="none" stroke-width="0" fill="none"/><path d="M181.39676405751868 26.940434650808154 C205.46427751294883 25.211798942074335, 234.60178092233977 26.843652835207166, 249.937232694238 23.68259844962116 M179.66828510291367 25.883307010963694 C207.5344072758213 25.10087654348503, 234.30891818302626 25.166247597984114, 249.73368766736127 24.846246637962377 M249.8254058543961 26.32296836100278 C248.80798830443624 43.786735065191465, 251.17154784901217 60.220113320485055, 251.96372724749935 73.6916339624314 M249.97110453037845 25.39620769432689 C249.53730731778435 37.43464895159355, 250.7467021175568 49.3967035115427, 250.12944720696868 75.67025826502639 M251.90920257539656 73.4765706081462 C226.32606392367327 74.41272746501474, 203.961010780993 77.20232395972735, 181.2290175756192 76.61897027571113 M250.02785981701922 75.14879878263075 C231.36698090894362 74.46477538274914, 213.19965033232523 74.92984613764266, 179.17455949581162 75.27157308625652 M181.7532950942051 74.89020271350583 C181.93595554063023 57.15478813628238, 181.84492285244932 42.356095776487464, 181.1492807427654 23.462192350495684 M180.8484950007357 75.61403104274886 C179.1227190426836 63.85830890549998, 180.28291458309334 51.88898362324916, 180.86629683583533 25.754667865615424" stroke="rgb(0, 0, 0)" stroke-width="1" fill="none"/><text x="215" y="55" class="type" aria-describedby="desc-1">range<title id="desc-1">Object type</title></text></g><text x="150" y="115" class="value" aria-describedby="desc-2">range(0, 5)<title id="desc-2">Value</title></text></g></g></svg>