<svg data-theme="dark" width="281" height="205" xmlns="http://www.w3.org/2000/svg"><title>Python memory model diagram showing objects</title><style>
        :root {
        --fade-text-color: rgb(0, 0, 0);
        --hide-text-color: white;

        --highlight-value-text-color: rgb(27, 14, 139);
        --highlight-id-text-color: rgb(150, 100, 28);

        --highlight-box-fill: yellow;
        --highlight-box-line-color: rgb(0, 0, 0);

        --fade-box-fill: rgb(247, 247, 247);
        --fade-box-line-color: gray;

        --hide-box-fill: white;

        --primitive-value-color: rgb(27, 14, 139);
        --id-text-color: rgb(150, 100, 28);
        --default-font-size: 20px;

        --highlight-object-fill: rgba(255, 255, 0, 0.6);
    }

        text {
            font-family: Consolas, Courier;
            font-size: 20px;
        }
        text.default {
            fill: rgb(0, 0, 0);
            text-anchor: middle;
        }
        text.attribute {
            fill: rgb(27, 14, 139);
            text-anchor: start;
        }
        text.variable {
            fill: rgb(0, 0, 0);
            text-anchor: start;
        }
        text.id {
            cursor: auto;
            fill: rgb(150, 100, 28);
            text-anchor: middle;
        }
        text.type {
            fill: rgb(27, 14, 139);
            text-anchor: middle;
        }
        text.value {
            fill: rgb(27, 14, 139);
            text-anchor: middle;
        }
        path {
            stroke: rgb(0, 0, 0);
        }
        .highlighted path {
            fill: var(--highlight-object-fill) !important;
        }
    
        [data-theme="dark"] {
            --highlight-value-text-color: #110875;
            --highlight-id-text-color: #6e4409;

            --fade-text-color: #BBBBBB;
            --hide-text-color: #121212;

            --highlight-box-fill: #EDB926;
            --highlight-box-line-color: #FFFFFF;

            --fade-box-fill: #2C2C2C;
            --fade-box-line-color: #666666;

            --hide-box-fill: #121212;

            --highlight-object-fill: rgba(72, 207, 173, 0.3);
        }
        [data-theme="dark"] text.default,
        [data-theme="dark"] text.variable {
            fill: rgb(224, 224, 224);
        }
        [data-theme="dark"] text.attribute,
        [data-theme="dark"] text.type,
        [data-theme="dark"] text.value {
            fill: rgb(144, 164, 237);
        }
        [data-theme="dark"] text.id {
            fill: rgb(255, 183, 77);
        }
        [data-theme="dark"] path {
            stroke: rgb(204, 204, 204);
        }
</style><g role="graphics-object"><title>Range id76 with value range(0, 5)</title><g id="object-0"><path d="M48.58803695779148 25.534205128279638 L251.48139874891376 23.873583933510556 L249.35520350860418 155.25456187334132 L49.841864442572 156.71808625826782" stroke="none" stroke-width="0" fill="none"/><path d="M51.48049562119916 24.440275438246722 C91.44183558803645 26.84913076315346, 133.78601913999128 26.2322749534409, 251.59540658183911 25.05909910687159 M49.78620356741388 25.243390790866588 C111.52425955200583 23.462690773861713, 173.90385781211296 24.3693440190004, 249.9625643411079 24.883130704667405 M250.98280081022023 25.095446410435468 C250.20527116627855 70.02590222470684, 249.01182904108865 114.80113169375058, 250.57248931561003 156.1184405685148 M250.75587222282869 25.88071281359303 C248.7425699641555 62.27194010223086, 250.22087580232807 98.0586814907587, 249.8213334653451 155.10489711567323 M249.19556420582234 154.92894219814295 C202.8851183590683 154.18479852569814, 156.71435141567906 157.51834703084353, 48.66217307551671 156.47960717281447 M249.68479758724794 154.41537092200699 C203.42352938252134 154.70629041359973, 156.80325869360576 154.46583887753218, 49.80538974696935 155.1082261047859 M49.351765720442756 155.69825131239764 C51.497564628341074 122.84916321912326, 49.24748159269955 88.83924984635804, 51.81061677459237 26.156694994503997 M49.4900076006689 155.916549379794 C49.56793769601892 107.20397255981725, 49.00489019350951 58.73495632899427, 49.1995826194399 25.734140829703467" stroke="rgb(0, 0, 0)" stroke-width="1" fill="none"/></g><g><path d="M45.22117846158016 19.157357545095763 L255.13998701563295 17.393348626409296 L254.96300812898585 161.82625320632508 L42.01883913661244 159.71366243152454" stroke="none" stroke-width="0" fill="none"/><path d="M43.2767806101004 17.574271176797943 C117.27966847124416 19.754528187671344, 190.85377783955465 18.63375111414509, 254.91193070712796 18.12169309709963 M44.27243950221634 18.141743451688274 C126.28443728968233 20.68023708157131, 208.7194528594754 20.218255897283278, 255.4211517561439 18.927002665697767 M256.8968278368012 19.643946545523185 C254.7175674735436 67.96086685571312, 253.37208396385935 116.61291145671281, 257.6899431610564 160.00139336686976 M255.37570943734855 18.022569219210318 C257.4376116392471 52.969118769057864, 256.0807898986195 87.26469050820329, 256.0076037838242 160.25509618304113 M254.5787140786043 162.0940208763468 C174.2094002325899 161.043162120576, 92.06406234987672 159.70716619928768, 44.610905607383856 161.0727587216868 M256.0033426951321 160.28321436648173 C205.53307293639378 161.98188692294903, 156.54412477172534 161.39993604415054, 43.476214026845554 161.6699246341112 M43.538494373493364 161.14886148732847 C45.1419401932279 123.82058186357959, 46.22809258209506 88.64712254298527, 43.18354281881578 20.335477443785873 M43.511211813637836 161.48940677025482 C42.361236065782144 129.64620881207108, 44.345039481054414 98.70450397246302, 44.75631132240606 19.91049422347067" stroke="rgb(0, 0, 0)" stroke-width="1" fill="none"/></g><g><path d="M48.69554143455425 25.773573708563063 L110.98183161736146 23.536177719047053 L108.43651224563267 75.41702539299135 L50.528928340463054 74.21308491898749" stroke="none" stroke-width="0" fill="none"/><path d="M48.73324224245051 25.765524393244664 C63.106130580229475 25.943047867094517, 73.37226212567056 25.122842850513056, 109.81783145844359 23.25581739221266 M50.706266297744165 25.89962744000243 C64.34999100699915 24.9514327503625, 80.00682988175046 23.71532167398058, 110.27327928182811 25.935612284581424 M109.69443009106993 26.89025254465708 C108.06378440705892 39.33617778338412, 108.24096936351145 54.33016993928773, 108.2816861393289 74.24249219453822 M109.33043955447164 24.717290867077615 C108.92981767652273 35.78608308211449, 110.03316410878423 46.80115760098027, 110.29843068604657 74.88983747700054 M109.8611650968758 75.78105990842856 C87.61353094765133 74.21742126997621, 66.64236299624218 75.96925753120892, 50.2592673605104 75.24716361568917 M109.61261130974277 75.76620181641438 C95.63643612906087 76.09700242987252, 81.91948395452405 74.61173912924157, 50.46827387253117 75.81275751981725 M51.19504685254408 73.07964750032848 C48.79537300069742 58.664357141267075, 51.64661707448827 39.80513361403655, 50.19869766290768 23.07807492379092 M50.929256195592025 75.6427511793732 C49.750106603552325 56.42276217244843, 49.0717287812467 38.49572503599258, 49.091002472464396 24.4642234997196" stroke="rgb(0, 0, 0)" stroke-width="1" fill="none"/><text x="80" y="55" class="id" aria-describedby="desc-0">id76<title id="desc-0">Object id</title></text></g><g><path d="M180.68044023856922 25.18682613045506 L251.37689398304585 24.007740534063757 L251.0164643999622 74.57345528481665 L178.24619134235738 74.22193581848761" stroke="none" stroke-width="0" fill="none"/><path d="M181.29890110115062 23.68599443421423 C198.2748497374624 23.792118216922468, 221.52192990511395 23.551249997889762, 250.0021621933363 26.74618838615526 M179.58524664552553 24.268555465891332 C198.38130517550047 25.182472439304043, 217.73774548608952 25.467616127968196, 249.92663057256038 24.62340801381666 M251.0358008007266 25.802502409086994 C248.74841495873724 44.059237094505136, 250.725946126339 66.28265992376947, 250.70906636179004 73.42979209008811 M249.90121063287765 24.129133222961734 C250.88324246688788 43.857840406387794, 249.83662209631353 63.14426956419077, 249.3736148876696 75.5267107445681 M249.82812206930677 73.87797484517668 C224.86208386357848 75.08877649984906, 201.24288377345493 74.32798275341806, 180.17821877646787 74.4966168332533 M249.92561828641396 74.06613008597428 C229.4894583423907 75.54830044729961, 210.57503913020653 75.51413985722806, 180.14913034244918 74.66854889550739 M180.5903300636062 76.27268492854915 C181.53917506337442 58.16960327015161, 179.27615592878698 37.05840461819173, 181.572855828746 25.174579340533562 M180.6159218306981 74.5871234093028 C180.30744028493896 62.7857471394115, 180.95146620465292 50.00780332987394, 180.71530293649542 25.83943075485864" stroke="rgb(0, 0, 0)" stroke-width="1" fill="none"/><text x="215" y="55" class="type" aria-describedby="desc-1">range<title id="desc-1">Object type</title></text></g><text x="150" y="115" class="value" aria-describedby="desc-2">range(0, 5)<title id="desc-2">Value</title></text></g></svg>