<svg width="281" height="205" xmlns="http://www.w3.org/2000/svg"><title>Python memory model diagram showing objects</title><style>
        :root {
        --fade-text-color: rgb(0, 0, 0);
        --hide-text-color: white;

        --highlight-value-text-color: rgb(27, 14, 139);
        --highlight-id-text-color: rgb(150, 100, 28);

        --highlight-box-fill: yellow;
        --highlight-box-line-color: rgb(0, 0, 0);

        --fade-box-fill: rgb(247, 247, 247);
        --fade-box-line-color: gray;

        --hide-box-fill: white;

        --primitive-value-color: rgb(27, 14, 139);
        --id-text-color: rgb(150, 100, 28);
        --default-font-size: 20px;

        --highlight-object-fill: rgba(255, 255, 0, 0.6);
    }

        text {
            font-family: Consolas, Courier;
            font-size: 20px;
        }
        text.default {
            fill: rgb(0, 0, 0);
            text-anchor: middle;
        }
        text.attribute {
            fill: rgb(27, 14, 139);
            text-anchor: start;
        }
        text.variable {
            fill: rgb(0, 0, 0);
            text-anchor: start;
        }
        text.id {
            cursor: auto;
            fill: rgb(150, 100, 28);
            text-anchor: middle;
        }
        text.type {
            fill: rgb(27, 14, 139);
            text-anchor: middle;
        }
        text.value {
            fill: rgb(27, 14, 139);
            text-anchor: middle;
        }
        path {
            stroke: rgb(0, 0, 0);
        }
        .highlighted path {
            fill: var(--highlight-object-fill) !important;
        }
    </style><g role="graphics-object"><title>Range id76 with value range(0, 5)</title><g id="object-0"><path d="M50.78080039090885 24.050718931008433 L248.31987185542602 26.464588424174732 L251.69433076246492 154.8256460521607 L49.27017630999276 155.97163944635187" stroke="none" stroke-width="0" fill="none"/><path d="M51.58432721530117 24.24626980404826 C118.98247438181068 26.728126415576448, 188.69439751461303 25.927237544399254, 251.68055495709655 24.55945365461327 M50.09041256785214 24.84040989931572 C118.4379766718507 26.424095996660782, 187.71405651413662 25.351819572954224, 249.34813426432103 25.56140199966811 M249.94350745756495 26.884383297943142 C248.43668739563805 65.41059969014162, 250.10972460923722 101.4353663623017, 249.02150995345045 154.42506233566723 M250.69488002712131 24.626630445568864 C251.1773312428646 70.58849875235165, 250.11669208053817 115.53736483357936, 249.2895787468845 155.378437970823 M248.9560239138285 156.3824767634736 C202.98949663200352 155.34155965517948, 159.730614554563 156.43769168757996, 49.06412290440435 155.24005379356183 M249.72215772733418 155.00643643041536 C209.74629313392518 153.31293126537392, 168.39640626555047 153.53911037486702, 49.133678650730346 154.11802908280407 M51.842275812203354 156.7132273441844 C49.626678844904916 118.89141818018278, 49.291766607899234 83.31860438282541, 48.72546818810131 26.781946931528864 M50.38445255381738 155.80760929546358 C49.912075135190655 128.09413818274328, 50.0028751814018 101.16908560485153, 49.15980986202914 25.472453451603982" stroke="rgb(0, 0, 0)" stroke-width="1" fill="none"/></g><g><path d="M45.14552809136733 20.614415452483588 L256.31909738934155 18.187444792606684 L254.17487136392785 159.92423795891662 L44.44513496089115 162.38555502885075" stroke="none" stroke-width="0" fill="none"/><path d="M43.34970431235529 20.201631386089783 C119.88115667694305 17.46718564950961, 193.9918561495962 18.035478562039724, 255.88555228897383 20.676621216671155 M44.467429302043826 18.495538600470674 C103.75026827066401 17.082208972383253, 164.86333687928587 18.145206784558912, 256.0948442221142 19.140473965503304 M255.16650393317653 20.346583997799925 C255.57315454357447 72.97846058436221, 257.2245929085884 127.9277246511097, 257.8926934143357 159.61224220572194 M256.00689572272205 19.767347881674926 C255.60771526023618 56.60618304866633, 256.1232263363867 92.77139496090163, 256.2327178824954 161.22993200418034 M257.0210667713014 159.70086305293776 C184.2095423952081 163.03647955469782, 114.75985057920961 160.75908429735463, 45.00356576627294 159.29045200121456 M256.3135511228087 160.44331208695615 C174.62090779814284 162.59761497555493, 93.68953420454913 163.40541125455678, 44.83877191758303 161.36754659555712 M43.02425492149759 162.03767548695677 C44.70488381364954 126.11280557817253, 43.3891366285497 92.93183676328229, 44.47963636488818 18.455857997954958 M44.83835064419441 161.378770340666 C45.23127681440649 117.98541680182609, 44.52931423245771 75.44643381792973, 44.93855653207583 19.424335606639755" stroke="rgb(0, 0, 0)" stroke-width="1" fill="none"/></g><text x="150" y="115" class="value">range(0, 5)</text><g><path d="M48.772751939762706 24.062762430977923 L108.48776837117595 26.298731103871003 L109.52126153830473 76.2110979552438 L51.70430052616523 75.01187068284752" stroke="none" stroke-width="0" fill="none"/><path d="M50.772282841925644 23.290058023650044 C61.14176619582272 26.452386439724044, 74.20880979444036 25.012102108397354, 110.54219038010915 23.06367150300956 M49.257022057237336 24.462710412926462 C69.93361782010457 24.945219369032923, 92.10048102370197 25.265215847828063, 110.67363889279375 24.98155829025592 M109.56208631229264 24.7501525399245 C108.98328952035796 35.764710378035055, 111.44782230042607 47.6151571504923, 109.88005360248559 75.73049938064055 M110.90953571037574 25.40267617258436 C110.20262481974304 40.47794273690599, 109.7037070190586 57.259484041249294, 110.47118778397993 74.79735435738624 M111.15366263053376 74.41103795367941 C96.43970229356232 76.83111794823253, 80.38020648117941 76.93748696081803, 48.82144387876592 74.25708943581883 M110.98054964921644 75.4239368424467 C96.07490031045121 75.00361591867362, 84.99000723499249 74.5572483836115, 49.762432589264144 74.22229793174151 M50.87770208282409 73.8587992743258 C51.69005848316145 54.48027412514067, 48.66508921359345 37.90102050826503, 50.47092407228614 23.985531060887514 M50.1947598977669 75.78762632304161 C49.70195885588881 54.425964688964484, 49.53683370973749 35.85767267539301, 49.69668573876211 24.367139955556983" stroke="rgb(0, 0, 0)" stroke-width="1" fill="none"/></g><g><path d="M178.79559535112145 24.113860097345913 L249.6470456659698 26.060854401012627 L250.2215591159359 76.71385270430557 L178.1536681248419 74.61426997774244" stroke="none" stroke-width="0" fill="none"/><path d="M178.65624987648147 23.400968157910718 C197.15267965581418 27.4631556228809, 218.0758381056472 25.123758693497134, 251.72206310651958 26.769505251609058 M180.85534164867727 25.3480381303408 C198.89305517225898 24.98249904156595, 217.04885277151956 23.527550002918694, 249.76270547553165 25.988043434568546 M248.61831821166854 26.555004883722972 C251.1996005190975 45.34697197693197, 250.60418798052376 63.833156008559385, 251.63050723792665 73.82418786346663 M250.22086456891432 24.766374787347285 C250.18438452546013 38.30080496983687, 249.73699843080044 50.12684009867736, 249.04691551478032 74.4981368821896 M250.92948248845525 73.83844364274675 C233.84839210738517 75.88352750022277, 219.90624327447358 72.95535471445932, 181.0163242204769 74.08905150381545 M250.4615101477065 75.56006578031422 C232.76704280023839 75.45846162351972, 217.81436533712605 74.12112433679141, 180.62229372015292 74.87868084452383 M179.11164897419934 75.97154103580263 C181.23564239849728 66.13121669788784, 181.12577211394373 51.91499754809821, 178.64606264210704 26.51788607361558 M180.84827149440633 75.36561182994983 C180.63333634756071 59.276130614946574, 179.90854187815384 41.54703081585592, 180.5681502257309 25.218241554840112" stroke="rgb(0, 0, 0)" stroke-width="1" fill="none"/></g><text x="80" y="55" class="id">id76</text><text x="215" y="55" class="type">range</text></g></svg>