<svg width="281" height="205" xmlns="http://www.w3.org/2000/svg"><title>Python memory model diagram showing objects</title><style>
        :root {
        --fade-text-color: rgb(0, 0, 0);
        --hide-text-color: white;

        --highlight-value-text-color: rgb(27, 14, 139);
        --highlight-id-text-color: rgb(150, 100, 28);

        --highlight-box-fill: yellow;
        --highlight-box-line-color: rgb(0, 0, 0);

        --fade-box-fill: rgb(247, 247, 247);
        --fade-box-line-color: gray;

        --hide-box-fill: white;

        --primitive-value-color: rgb(27, 14, 139);
        --id-text-color: rgb(150, 100, 28);
        --default-font-size: 20px;

        --highlight-object-fill: rgba(255, 255, 0, 0.6);
    }

        text {
            font-family: Consolas, Courier;
            font-size: 20px;
        }
        text.default {
            fill: rgb(0, 0, 0);
            text-anchor: middle;
        }
        text.attribute {
            fill: rgb(27, 14, 139);
            text-anchor: start;
        }
        text.variable {
            fill: rgb(0, 0, 0);
            text-anchor: start;
        }
        text.id {
            cursor: auto;
            fill: rgb(150, 100, 28);
            text-anchor: middle;
        }
        text.type {
            fill: rgb(27, 14, 139);
            text-anchor: middle;
        }
        text.value {
            fill: rgb(27, 14, 139);
            text-anchor: middle;
        }
        path {
            stroke: rgb(0, 0, 0);
        }
        .highlighted path {
            fill: var(--highlight-object-fill) !important;
        }
    </style><g role="graphics-object"><title>Range id76 with value range(0, 5)</title><g id="object-0"><path d="M49.37557310865773 26.88437128949341 L248.8787482244502 23.24127569763769 L248.3575139673048 154.2172562265116 L50.24456779030762 156.33276896001956" stroke="none" stroke-width="0" fill="none"/><path d="M49.80100353036521 23.625948090291843 C102.17644605226408 25.67839050435865, 155.33437259162667 25.982187403181037, 249.06650099752503 24.132200056925136 M50.07955414890078 24.472859822260983 C123.28322115111183 27.429221921696524, 195.85388509694593 26.913069271029443, 249.39568787411923 25.817023676426793 M249.30274713177974 24.421656340273206 C252.23463688644253 70.57680047765541, 250.64467458364263 115.8471939018326, 249.5450977797923 153.88789630352278 M249.30750971383037 24.594107507501377 C249.75661821884208 75.63117013181174, 249.02629442587565 124.53781824084099, 250.64131971535787 154.8112106671017 M248.9039817932267 156.46000615499972 C170.46038581778254 155.73113004586477, 90.87514150174403 154.99196205499842, 48.98222220574797 156.59236597805534 M249.84202686780307 155.08235040603125 C207.60310436590777 153.2654615989075, 167.3594486317205 153.76576920842115, 49.39001342843777 155.11317637623014 M51.374667213561295 156.71887031759488 C48.171099724426085 117.79778112446341, 47.8642429180082 81.88195240897444, 50.50311486875654 24.46321822713584 M50.89112250021925 154.33678086422802 C48.734583376296925 117.0874474449782, 49.06856124175993 79.17991365400445, 49.19907070946956 25.282600345716475" stroke="rgb(0, 0, 0)" stroke-width="1" fill="none"/></g><g><path d="M43.01287490371563 19.996159315416666 L256.199965692821 17.08401499395922 L256.9950657896975 161.22965345622882 L44.37649043095007 162.37885799740576" stroke="none" stroke-width="0" fill="none"/><path d="M45.2175014730504 18.592162411938542 C121.08822545305397 18.86822349689507, 197.08840736529743 18.994075708174133, 255.9220026307578 18.868298669363927 M43.495410428451315 18.767356685941742 C112.68752615688663 18.578218492603753, 181.71421913394192 18.165359412324126, 256.7921178449039 18.817557612923384 M254.74569523178118 20.696195579534045 C253.6485938284046 73.36895544860127, 256.23824754492927 127.1103484027985, 254.1499182311241 160.47069406872555 M255.00224476834188 18.047125036886236 C255.07410641582925 70.33640363972765, 255.399931092253 120.39781054260754, 255.18900487461832 161.6829664744085 M254.78969725078403 159.39024615103335 C177.9183313068445 159.30995596158027, 100.24718860424173 159.67256054449902, 42.57281577965916 159.6803843940034 M256.54720368228226 160.24073001916827 C189.06242759281838 162.0949179953629, 122.61388228917426 161.12356337543926, 44.48452398452075 160.66454055760724 M44.193383999987596 162.7245510700065 C42.552576423011416 127.3655896667271, 44.19967824778833 94.81963087225625, 42.32879192201928 20.85480239133146 M43.13210456659723 161.46807096121438 C43.037760844349556 111.93437581555094, 42.895339860536936 62.716118434744324, 44.23948745927986 18.99394959515638" stroke="rgb(0, 0, 0)" stroke-width="1" fill="none"/></g><g><path d="M48.40076217782786 25.27091462906943 L108.13811850575506 26.097636878022264 L108.97875163013654 74.83057763744819 L51.24786401603223 74.01881121798398" stroke="none" stroke-width="0" fill="none"/><path d="M50.665846768138174 24.686526116688885 C63.55861240514402 23.77465858125582, 75.03901204178622 26.181974199511842, 111.00019851195844 24.169283529903097 M49.72186146027794 24.198528909070355 C68.93866884337176 23.993112963616746, 88.57006805421253 25.139934703871432, 109.69561030127433 24.122952369026738 M111.70212288040354 23.333566285129482 C110.20532515281342 44.31858413591088, 111.34785824295618 64.38165395690196, 110.3827994946989 73.28788819622874 M110.92660585736202 24.339503690123337 C108.73565329307866 37.525184270558285, 109.26558369203904 50.19089562312732, 109.51125129949475 74.98937188109832 M110.93709760371279 74.85639372653 C94.33174418825568 75.76307216896224, 77.85208498067905 75.52330803409598, 51.54560543347725 74.01299052833345 M109.29763334472958 75.83573959842906 C93.18743267519412 75.0300819987773, 75.18590921332812 74.23356416912898, 49.57825417666602 75.40327661636123 M48.50252512547434 74.8752970083408 C49.7856638206895 57.85425308331743, 49.85072898806659 40.67108781157544, 50.95806408951475 24.653609781403112 M50.57074037523383 74.57101207848747 C49.077096740500906 58.30222571607427, 50.48025219884967 42.180080822588074, 50.04134311423294 25.36753579831837" stroke="rgb(0, 0, 0)" stroke-width="1" fill="none"/><text x="80" y="55" class="id" aria-describedby="desc-0">id76<title id="desc-0">Object id: id76</title></text></g><g><path d="M178.29584311864315 24.152172443971807 L251.80156452976274 23.506860067150125 L248.15322392237937 73.03385504257096 L181.06821241923421 74.00356937628482" stroke="none" stroke-width="0" fill="none"/><path d="M179.9303950268921 24.981998109884273 C195.92833009120872 23.519701078843813, 217.14095186398296 24.468254244219843, 248.42517125220073 24.175842811472677 M180.2991010878703 24.59303805507432 C195.49474896321027 26.300210827137107, 209.5016473665926 25.943300218700156, 250.32408635552176 24.30702713868568 M250.72042072983294 23.68032427326814 C248.08501266866898 36.86440420579335, 251.5136136529568 51.38013847684606, 250.57747218028285 76.60780380642584 M250.9119457159902 25.15890716125024 C250.1392929911874 43.71190455007881, 250.7645428331033 60.701139986155496, 249.8784934443729 75.79191895138763 M249.96121451181003 73.6840412270336 C230.11141223880648 75.54025545451145, 210.19707523152107 76.44689711469928, 178.0919528911112 75.40016575307428 M250.56870503879833 74.91088451358192 C230.70102045906353 74.9250967719806, 213.50140953114047 74.65719295648285, 180.82350223172187 74.00897678872687 M179.29453098765993 76.50106386917342 C180.30624998950643 61.22978547111803, 178.00651126478863 45.12478790972582, 178.39244775064 24.533548782869943 M179.4487967071384 74.30362899580403 C179.2912704247052 58.38093629671279, 179.21550576765605 42.336476279605186, 179.0903866827937 25.793598150486893" stroke="rgb(0, 0, 0)" stroke-width="1" fill="none"/><text x="215" y="55" class="type" aria-describedby="desc-1">range<title id="desc-1">Object type: range</title></text></g><text x="150" y="115" class="value" aria-describedby="desc-2">range(0, 5)<title id="desc-2">Value: range(0, 5)</title></text></g></svg>