<svg data-theme="dark" width="386.5" height="205" xmlns="http://www.w3.org/2000/svg"><title>Python memory model diagram showing objects</title><style>
        :root {
        --fade-text-color: rgb(0, 0, 0);
        --hide-text-color: white;

        --highlight-value-text-color: rgb(27, 14, 139);
        --highlight-id-text-color: rgb(150, 100, 28);

        --highlight-box-fill: yellow;
        --highlight-box-line-color: rgb(0, 0, 0);

        --fade-box-fill: rgb(247, 247, 247);
        --fade-box-line-color: gray;

        --hide-box-fill: white;

        --primitive-value-color: rgb(27, 14, 139);
        --id-text-color: rgb(150, 100, 28);
        --default-font-size: 20px;

        --highlight-object-fill: rgba(255, 255, 0, 0.6);
    }

        text {
            font-family: Consolas, Courier;
            font-size: 20px;
        }
        text.default {
            fill: rgb(0, 0, 0);
            text-anchor: middle;
        }
        text.attribute {
            fill: rgb(27, 14, 139);
            text-anchor: start;
        }
        text.variable {
            fill: rgb(0, 0, 0);
            text-anchor: start;
        }
        text.id {
            cursor: auto;
            fill: rgb(150, 100, 28);
            text-anchor: middle;
        }
        text.type {
            fill: rgb(27, 14, 139);
            text-anchor: middle;
        }
        text.value {
            fill: rgb(27, 14, 139);
            text-anchor: middle;
        }
        path {
            stroke: rgb(0, 0, 0);
        }
        .highlighted path {
            fill: var(--highlight-object-fill) !important;
        }
    
        [data-theme="dark"] {
            --highlight-value-text-color: #110875;
            --highlight-id-text-color: #6e4409;

            --fade-text-color: #BBBBBB;
            --hide-text-color: #121212;

            --highlight-box-fill: #EDB926;
            --highlight-box-line-color: #FFFFFF;

            --fade-box-fill: #2C2C2C;
            --fade-box-line-color: #666666;

            --hide-box-fill: #121212;

            --highlight-object-fill: rgba(72, 207, 173, 0.3);
        }
        [data-theme="dark"] text.default,
        [data-theme="dark"] text.variable {
            fill: rgb(224, 224, 224);
        }
        [data-theme="dark"] text.attribute,
        [data-theme="dark"] text.type,
        [data-theme="dark"] text.value {
            fill: rgb(144, 164, 237);
        }
        [data-theme="dark"] text.id {
            fill: rgb(255, 183, 77);
        }
        [data-theme="dark"] path {
            stroke: rgb(204, 204, 204);
        }
</style><g role="graphics-object"><title>Set id90 with 4 elements</title><desc>Elements: id36, id49, blank, id64</desc><g id="object-0"><path d="M50.31491979319265 23.00989554134967 L362.29521567817665 24.281777799697362 L361.4081404711104 155.1315687307931 L50.942542221684675 156.1097655058801" stroke="none" stroke-width="0" fill="none"/><path d="M49.69039426947133 25.826188472048095 C125.30787038302203 23.51497585553729, 199.2735940184776 24.82005991909666, 362.07780149260776 24.472793087075623 M49.44883170606514 24.861444538539377 C129.25931000286838 22.630472608744906, 208.45362990894472 23.400705047317167, 362.17399707256703 25.33100923509587 M361.33404819222153 25.076700812221073 C361.29003151671196 56.094128574003065, 361.1604130074899 87.27073532642137, 363.1639069985448 154.35511290736028 M362.4701152654169 24.10274878466741 C362.9479921401197 70.54432399160864, 362.377136753879 114.59039999169491, 361.8959660421173 154.53622076256926 M361.32233240694825 155.08190710743452 C260.56457371667295 156.83025069087026, 160.1472635617686 156.01269197632098, 49.23897667448762 155.39566710317632 M361.6144566465947 154.81041499162907 C290.0110579185428 155.00414426369963, 217.67533001270516 155.48979286975396, 49.7641941618993 154.63252250091605 M48.3996146756294 156.1278608962747 C50.33581040973975 126.8048273786764, 48.018456720628144 95.9966739290362, 49.107594494790575 23.291497822091824 M50.37428155315178 154.50566522209073 C51.09948944058506 106.64762927167318, 49.82002387176189 59.310000674505964, 50.6911966381948 25.75618324584283" stroke="rgb(0, 0, 0)" stroke-width="1" fill="none"/></g><g><path d="M74.8866265650942 90.99816582286974 L134.84052381400238 90.59404226426143 L133.02607432453783 139.6857072344085 L76.18466478883357 140.64107181356073" stroke="none" stroke-width="0" fill="none"/><path d="M74.08105975076253 90.8258220497375 C96.02360466850641 88.7446456931363, 118.01915347990392 91.10799423156686, 134.71751786302127 89.23944780466856 M75.82968333005952 89.16452533662608 C94.50502453701333 89.27027422117675, 113.06505434611586 90.38986636059285, 132.36691378278286 90.5772085688931 M133.10345497539882 89.53728978532936 C134.97553734123974 104.92198111732391, 133.21892649959463 119.66295650905113, 131.56444319120305 138.5758531066966 M132.6438538715141 90.10594328844958 C133.12045922025723 100.92076521228495, 133.17711441724796 112.41229855487431, 133.53233552783945 139.59485020310186 M134.08166989178895 139.5901099878952 C117.33165635933757 140.7796429263989, 100.75931134525705 141.73586744966778, 76.6429228301076 141.42257213273376 M132.2462020617908 139.6215464595287 C112.88482066616719 139.91619638018432, 93.7333186553499 140.04909067433064, 75.38782851030845 139.44373671181452 M76.2843891272587 138.43731904882807 C73.1734910153203 120.97823972032758, 76.48045062118113 103.28141470705769, 75.77799914589949 88.97636252757272 M75.10756206106628 140.27968669305676 C75.0609717801816 126.53065261527959, 75.81208693050833 114.09447502363021, 74.75672239051823 90.41385909811015" stroke="rgb(0, 0, 0)" stroke-width="1" fill="none"/></g><text x="104" y="120" class="id">id36</text><g><path d="M146.63882317854572 91.3617153362304 L202.9630614563858 88.91446670891533 L201.8909766639236 139.07986803096546 L144.47772807356145 138.5503846867226" stroke="none" stroke-width="0" fill="none"/><path d="M145.8062977857598 88.32358515136399 C162.67762787208358 88.01670151889915, 181.00836376168468 88.16956263557869, 203.8606198702646 90.14731455828823 M145.9939797220636 89.61509109767907 C166.88584248631216 90.36693340067069, 189.2971068437024 89.81306982149891, 204.08340183552724 90.96618068344253 M202.59701188242158 90.44187077655455 C201.2027301718758 105.08130449116133, 202.36980223665492 121.19159540771416, 203.5864677332504 141.9230073717727 M203.10040244940458 90.54968386989859 C202.94115760768256 101.99297678555021, 203.1188783763754 115.10514148692856, 203.98116766884286 140.5003501515952 M202.47281282738342 140.29340636696793 C188.5137977108205 139.75576214343633, 178.4951604814966 139.50570690782112, 144.93939729867944 139.41664146135363 M203.73733149151175 139.8124315193341 C190.92097333737755 138.79523996535679, 176.99984301654584 138.82798242966982, 144.64132771384917 139.93222509850924 M143.83736958123572 139.96065708909705 C147.11975035039072 127.1414143769206, 146.89998645577248 113.58411593468979, 144.58811411036626 89.18095781462092 M144.97115734499238 139.5363269873113 C146.38361896428796 122.5866528338387, 146.39874323807663 104.61452182882421, 145.6498042270355 89.16961809473057" stroke="rgb(0, 0, 0)" stroke-width="1" fill="none"/></g><text x="174.5" y="120" class="id">id49</text><text x="139.25" y="120" style="" class="default">,</text><g><path d="M214.34908823626947 91.31189913096986 L264.730172595199 88.58091442357406 L266.361104303118 139.68332331169353 L216.7085153199726 140.37449613414438" stroke="none" stroke-width="0" fill="none"/><path d="M216.34171567255137 91.7648823790528 C234.56605561270229 90.04229372000637, 249.8128414269053 90.59860613996926, 266.2079430125486 89.69560487087759 M216.27783429851428 90.85100111896477 C232.38878155929598 91.1617665867029, 251.15931910438812 90.21912682350778, 266.12850908429397 90.5222819185349 M266.7141595001839 91.7952650989935 C264.3733153258359 110.04281177175679, 267.28775739581516 127.0372944826119, 264.0350784080252 141.83638517502345 M266.6083096892094 89.18969881918461 C266.49797411226194 102.84124065880094, 264.91596267167824 114.4793003462739, 266.8137580000234 140.31517619163603 M266.96341898660796 138.06660929339358 C251.3990610554428 139.42884257584205, 231.88256655249577 139.4294097778653, 215.59982967609616 140.13738515662482 M265.612641053945 139.80497330846637 C255.26974396676152 140.80749007327975, 243.82335386787898 140.64894254110928, 216.76374665795632 139.50828601628842 M214.54567318760294 138.5273073322308 C216.58969854670522 129.2896819650874, 216.1884090629891 117.83797400543017, 215.4589449945976 88.61743556960538 M216.25623324754747 139.9904533826688 C215.77726039002818 129.70477107194247, 216.58278693769083 118.4639637178226, 215.3033807429208 89.30676599641805" stroke="rgb(0, 0, 0)" stroke-width="1" fill="none"/></g><text x="241" y="120" class="id"></text><text x="209.75" y="120" style="" class="default">,</text><g><path d="M277.1194688681267 89.9800675567135 L335.28596707306434 89.84627782342004 L334.9737278711222 139.7474346303873 L280.4164617269053 140.79611833301465" stroke="none" stroke-width="0" fill="none"/><path d="M276.8983040069301 89.28895104039161 C295.91907619508356 91.65811367380768, 307.94407732840705 89.31522174641037, 337.74451394523754 88.18858191718269 M278.16909607450856 89.77804573202211 C297.66458445858814 90.16961652150371, 316.88596635836393 89.2316742929535, 336.7768405340658 89.48504986182527 M336.8110535476957 90.8387512266556 C337.0095957569384 106.37058536035424, 336.66929562299975 123.1046678185557, 336.2639986318489 141.21729820206346 M336.5726597145253 90.53348333675466 C337.2036597873892 104.57180397234691, 335.8841863209099 119.03108690270865, 337.2057518094673 140.45316990627379 M336.88579629474606 138.5052555257747 C322.50680470607784 138.5270472370242, 307.68501214990533 139.1225066010021, 277.24047009709255 140.07507124317564 M337.46903044555677 139.5952658202816 C324.39015016085597 140.82191993730936, 309.9881930947614 140.07642891167458, 279.21341811828745 139.3188952147168 M278.5910695087206 139.44953519751442 C277.0709566801559 129.67710366148947, 279.4508723973663 119.51804637562805, 279.0955259597899 88.86883208999348 M277.546580447556 140.61709946067114 C277.88260306089506 120.89125597487431, 278.61788813851706 102.2255195566133, 278.9719355075489 90.9678635098915" stroke="rgb(0, 0, 0)" stroke-width="1" fill="none"/></g><text x="307.5" y="120" class="id">id64</text><text x="272.25" y="120" style="" class="default">,</text><g><path d="M50.68588005121378 26.825325544808614 L111.81409247811415 25.23618343441615 L109.63917497533629 75.19146653210237 L49.835535797886095 75.12855932305489" stroke="none" stroke-width="0" fill="none"/><path d="M49.49268852412571 25.030139739106136 C71.19018020209612 26.987482468555058, 89.22093689985816 23.71244185746263, 111.95633926660439 25.817265663507598 M50.501558942535574 25.27044740774037 C71.08204421361259 25.08809037747178, 89.9445097679127 25.019639262547926, 109.7328540689636 25.096853134313413 M110.3478909427935 23.866603391967956 C108.94501241678861 36.10273193397337, 110.18742689979013 51.2538291184512, 111.12612958295769 76.12903238817363 M110.23149697467558 25.347690424276273 C110.4766351630361 38.87514752451401, 110.24414439739415 52.963865190877634, 109.26019629647261 74.29386134153697 M110.11381344710395 75.22162801044152 C92.86514674375006 75.71360659950602, 77.95367342027893 74.27030890538474, 49.08031441478795 74.62760992691062 M109.74814118056948 75.21784508849765 C95.41814874041509 74.33778252875355, 79.67087422892016 75.59207270720066, 49.07696624525136 75.13825823776342 M48.58555758678466 76.60085501099564 C51.16461498310176 60.51945053048588, 47.85305545789193 44.19213440983716, 49.98415579908956 25.738841510511932 M50.03730600876687 75.38821952769187 C50.09361542794026 64.02377248187443, 49.656167638276656 54.55253273929205, 49.63855931409967 24.52170081590299" stroke="rgb(0, 0, 0)" stroke-width="1" fill="none"/></g><g><path d="M302.02979433696294 25.692588690385115 L359.55437662965846 26.917189280697887 L360.8859632638792 73.44557654581625 L300.76980451764814 75.18836105206049" stroke="none" stroke-width="0" fill="none"/><path d="M302.65976595416316 25.78746462309407 C312.9924507988786 26.611433597468373, 328.26919556094975 24.346047472435878, 360.6090440699064 23.054636034854187 M300.8491536853409 24.569821195855653 C318.1305103002284 26.030261257814082, 331.9329244351678 25.550885154699575, 360.6493266963434 25.583939138581595 M359.9322429437418 25.70127998822076 C361.6771639979722 37.92235814114235, 360.21415539021416 53.43360596125249, 361.4562748981673 73.99492546518506 M361.72362045027666 24.519950572632787 C361.0432734583611 41.0672824803568, 360.9240432769825 56.97713503155275, 360.83377601265886 74.50568186294173 M361.1721112885442 74.66548225856528 C338.73048108130257 75.09346170215841, 314.72377059483307 75.40813929711332, 299.7188561688023 76.68572162797841 M360.57823913621604 74.41032370644372 C339.4103117121633 74.31279178738195, 316.99783251433274 75.4060307259895, 302.0980513488276 75.51525015459715 M299.992742902718 74.3979639536448 C303.06708694647193 55.877290071923824, 303.392926640386 41.62784577470447, 300.93903460519414 23.672569095753765 M301.37563526237113 74.72719758673696 C300.96571871108813 59.18014853348941, 300.70057012955374 42.02299793876079, 300.8540526586514 25.596751825425002" stroke="rgb(0, 0, 0)" stroke-width="1" fill="none"/></g><text x="80" y="55" class="id">id90</text><text x="331.5" y="55" class="type">set</text><text x="62.5" y="120" style="" class="default">{</text><text x="349" y="120" style="" class="default">}</text></g></svg>