<svg width="575" height="205" xmlns="http://www.w3.org/2000/svg"><title>Python memory model diagram showing objects</title><style>
        :root {
        --fade-text-color: rgb(0, 0, 0);
        --hide-text-color: white;

        --highlight-value-text-color: rgb(27, 14, 139);
        --highlight-id-text-color: rgb(150, 100, 28);

        --highlight-box-fill: yellow;
        --highlight-box-line-color: rgb(0, 0, 0);

        --fade-box-fill: rgb(247, 247, 247);
        --fade-box-line-color: gray;

        --hide-box-fill: white;

        --primitive-value-color: rgb(27, 14, 139);
        --id-text-color: rgb(150, 100, 28);
        --default-font-size: 20px;

        --highlight-object-fill: rgba(255, 255, 0, 0.6);
    }

        text {
            font-family: Consolas, Courier;
            font-size: 20px;
        }
        text.default {
            fill: rgb(0, 0, 0);
            text-anchor: middle;
        }
        text.attribute {
            fill: rgb(27, 14, 139);
            text-anchor: start;
        }
        text.variable {
            fill: rgb(0, 0, 0);
            text-anchor: start;
        }
        text.id {
            cursor: auto;
            fill: rgb(150, 100, 28);
            text-anchor: middle;
        }
        text.type {
            fill: rgb(27, 14, 139);
            text-anchor: middle;
        }
        text.value {
            fill: rgb(27, 14, 139);
            text-anchor: middle;
        }
        path {
            stroke: rgb(0, 0, 0);
        }
        .highlighted path {
            fill: var(--highlight-object-fill) !important;
        }
    </style><g role="graphics-object"><title>Set id32 with 3 elements</title><desc>Elements: id10, id11, id12</desc><g id="object-0"><path d="M51.82277337137092 23.76822270155011 L548.4501933330706 25.88472441859079 L549.0759004960672 153.05606889691265 L50.793901423940284 155.85088969613767" stroke="none" stroke-width="0" fill="none"/><path d="M50.68911813791685 25.56308175547283 C246.35674296105725 25.231677711921698, 441.22476492405826 24.934511646128048, 549.9883816806397 24.41719674846425 M49.622668611562254 25.302699985439403 C222.94563201169422 23.845758171220538, 396.43200140912967 23.869316307555135, 550.1170846263665 25.244886403937077 M551.5281057711828 24.01454350937319 C551.2166424474676 56.31921370025529, 552.1929185923838 83.45957331639633, 550.1464268264805 155.73021702168464 M550.0696876526816 24.797173506878778 C549.4165797344809 70.0332528598647, 549.1666931207492 116.33803778109794, 550.2061342026598 155.8207002233569 M550.0925659152507 155.22140684399943 C432.9009919422877 154.31193676154086, 315.88490449259365 153.17001198673418, 50.286581858207995 155.63334298736902 M550.3269458717235 155.3922473454888 C372.52568292574074 154.5419963322798, 195.01444993842406 154.08017454860516, 50.30566993523303 154.72638183094017 M49.68554722269848 153.26072586391456 C52.08825355505139 113.1160279712279, 48.80441039367061 71.52548270562177, 48.837625437383366 24.576750575422682 M49.12187265537269 154.14157662005294 C49.85671592625403 118.22131121466953, 50.50504388874431 82.68196270548371, 49.289467403250875 24.030422094783376" stroke="rgb(0, 0, 0)" stroke-width="1" fill="none"/></g><g><path d="M76.76321854598064 88.18421091137449 L134.1180740531742 91.93951758816509 L133.80798698980365 138.87301133625658 L75.94498692467134 141.37669721943018" stroke="none" stroke-width="0" fill="none"/><path d="M73.39553749866005 90.91305483230353 C93.83974663498147 90.5145444141796, 114.31405519437085 91.96695280275488, 134.35934803046473 88.55431986482445 M75.50840888834183 89.16258824078481 C94.2560096805899 91.02656191249841, 112.08027868477035 90.70994175396959, 133.0539291620121 90.70376601762264 M134.8265346606757 88.07274929130776 C131.44020028499588 105.81516992044014, 133.94349429584653 122.58268852201918, 133.4149729149411 138.96505080385674 M132.69981743289674 89.40526388639982 C134.2691636408214 107.69318219108433, 133.19876629803494 126.86354200366313, 132.1822046875664 140.98323138703626 M134.74656100443926 141.8457163427117 C115.43866467602936 140.23796845651526, 98.36071942143606 138.88576942421238, 76.51362821287383 139.29992418933958 M132.86042540201527 140.81751173579084 C117.66480483792756 139.9554432560502, 102.49054765301427 139.75878754769366, 74.94510449866134 140.30501421318058 M76.2993453839212 138.8330736690977 C75.38530104394124 122.9007795147779, 74.85956713397587 105.98149371079937, 76.9878064656859 90.12851158570396 M75.28809631168026 139.7277119772654 C75.80019587346146 123.99997678929245, 74.07838643856614 109.87751651959846, 74.00692623970009 90.47606739795945" stroke="rgb(0, 0, 0)" stroke-width="1" fill="none"/></g><text x="104" y="120" class="id">id10</text><g><path d="M144.51192421793334 90.01341800815364 L203.29039368508637 89.67986850775624 L201.51583294585262 141.93318870891355 L147.1475572954795 140.46434381510377" stroke="none" stroke-width="0" fill="none"/><path d="M145.40049057803796 90.87348177839155 C164.08633107463805 89.79748144368745, 187.33012705248666 90.4730746425665, 202.3428298833359 91.28966490637474 M144.93293032169615 89.23473429571655 C158.66285925224673 89.4944052350186, 171.73601091876355 90.39472017380686, 202.80512404862907 89.08055848642815 M201.90567766339512 91.85856137893194 C203.20230541450005 105.75181105944446, 204.14117406817454 125.5750547948551, 202.64595368465086 140.48752694267944 M203.23519382295814 89.84504708913074 C202.49133797806337 108.59750517595866, 202.51897986896026 125.50420488718652, 202.548052111055 139.33210350476676 M202.7007349530265 140.91922402930143 C189.56232102865607 139.92723750193866, 174.40421873773988 140.56125726978183, 144.16530184285924 140.0760502989209 M203.93594226579296 140.74885555333185 C189.092800721817 139.87000290377063, 172.3237950698963 139.4551700773639, 145.70950831091056 139.3639473700548 M146.61385417484794 141.6474740224187 C143.91783901121173 127.06545394056995, 144.29810761070053 116.3527944189234, 146.34451816587475 88.7538966466064 M145.60875832884076 140.55707947135565 C146.68787451587727 123.43179654106777, 145.78966687419197 106.9360931118355, 146.49500697772325 89.70601929833512" stroke="rgb(0, 0, 0)" stroke-width="1" fill="none"/></g><text x="174.5" y="120" class="id">id11</text><text x="139.25" y="120" style="" class="default">,</text><g><path d="M215.86311330025663 90.26437424999867 L275.64119675545646 90.84727945897022 L272.04115074420827 139.14097785506218 L215.21128083418049 139.4484225962265" stroke="none" stroke-width="0" fill="none"/><path d="M216.25845308813965 90.28442054297659 C227.23591750778027 92.03433193585045, 241.80889548150677 92.13410786886129, 272.78744050989184 88.74029061469655 M216.71546995132155 89.85995198373112 C234.65630754155978 90.46998085771101, 251.87453094040538 90.05118252181694, 274.83345170798776 89.14188893328692 M272.03994085124424 88.84412279352951 C275.415747791832 110.78186030056543, 275.58619190033147 130.71358067532924, 272.1163626078386 140.71142275921872 M274.58650094354067 90.21155260267862 C274.15389839210997 108.3146568828888, 274.3309226593438 129.2855811206391, 273.3596236743673 140.25881634108313 M274.8274105273235 140.90344561584038 C260.18487805678603 142.00500020000803, 244.38921797489408 139.03911264674912, 215.90655579185403 141.96335252236443 M273.7394927880519 139.95880358413507 C256.6327043421823 139.21155638356166, 240.48918504321196 140.69312120499484, 216.9436134236428 140.44477452202773 M216.3338797397812 140.59579819035335 C214.83579698804363 125.89490374889913, 217.72021180608556 110.00129098025674, 217.7439471032548 90.63343401202643 M216.42537133088783 140.00961441259145 C214.74272973050822 120.16306168243604, 215.6162474455404 99.69773708101012, 216.28870038495415 89.21393721280356" stroke="rgb(0, 0, 0)" stroke-width="1" fill="none"/></g><text x="245" y="120" class="id">id12</text><text x="209.75" y="120" style="" class="default">,</text><g><path d="M49.7293312004615 24.82937615031969 L111.45870817989882 23.256466731710173 L111.57797153631373 73.97099294269205 L50.97073621484118 76.57530755705112" stroke="none" stroke-width="0" fill="none"/><path d="M49.611628384526284 24.35310776188534 C71.58872451836955 23.334034228804256, 93.49502363977975 25.00464167426292, 111.96756944431723 26.62725905066155 M50.95942699937485 24.424876988915873 C71.09138905614896 24.261213215018888, 93.66063062345795 25.152238244080568, 110.23313603919279 25.06111920036971 M108.25905090144944 23.005244208795396 C110.50631063934173 36.81093933571577, 111.1382383662259 52.03294081403166, 110.85063638565924 73.18155547533209 M109.6598082081988 24.941247189797693 C109.83158323519966 40.73723854026617, 109.39330149365517 54.27368452288087, 109.26680738299179 75.17387794583172 M111.35277621256148 74.76406310588864 C91.39543206245968 76.13904378415707, 70.11291394599246 74.62154938597003, 51.84816594485118 74.47599024268429 M110.3616752072375 74.96187844599643 C91.1434187812556 75.07767885119844, 73.09484903567015 74.20957718652555, 49.00152965398017 75.46267391878841 M48.34754959039851 73.0895038733514 C49.98281025139968 62.1185978072892, 50.384737675687425 46.669634911477914, 49.38112000491648 24.034979944191633 M50.047536594390756 75.10266959642348 C49.80808755193978 58.08230714439267, 49.89747860244207 43.80528728932547, 50.606425641177886 25.51220416835148" stroke="rgb(0, 0, 0)" stroke-width="1" fill="none"/></g><g><path d="M488.30590482145186 26.049296623326672 L548.3666666890732 25.86642760622807 L550.9767904850239 76.47770015780837 L489.9877052887441 75.66311981497658" stroke="none" stroke-width="0" fill="none"/><path d="M491.0553858472622 25.045074252953697 C505.4799180642282 26.537137184791582, 520.1330188438872 24.868354064242823, 550.0162350767284 26.493327531261073 M490.1178153973261 24.562330275520715 C509.33782285922143 23.736519569703148, 529.6110992582154 25.532815759847846, 549.3401984060448 25.13627749903818 M549.7291369526397 24.237038698375656 C548.7172490999106 43.42584327909552, 549.376002825385 61.747096369169725, 548.6900461443937 75.85372363603561 M549.9086216129623 25.312886162660387 C550.6070648007842 42.972041591352216, 549.6919874241611 60.26487946404444, 550.2260415839318 74.42268285121672 M551.5451586998394 73.207062904096 C527.8628857617019 74.81199330282524, 510.0033020857429 76.85513509280631, 489.0628292354186 73.1531580675145 M550.4791112956974 74.38477875671481 C536.9680969214921 74.37790377845855, 523.219439758948 75.29358650618224, 489.30989825263896 75.38489484950719 M489.8874120233734 75.22234420261104 C489.00896848631487 59.27394057574607, 488.20139078034504 47.856456507685124, 489.9004586460504 24.330678878642345 M490.2517967984642 74.65132014468229 C489.77670762932814 58.616077205182656, 490.48027645494346 42.012186439355595, 490.3145190978746 24.653679416135873" stroke="rgb(0, 0, 0)" stroke-width="1" fill="none"/></g><text x="80" y="55" class="id">id32</text><text x="520" y="55" class="type">set</text><text x="62.5" y="120" style="" class="default">{</text><text x="537.5" y="120" style="" class="default">}</text></g></svg>