<svg data-theme="dark" width="386.5" height="205" xmlns="http://www.w3.org/2000/svg"><style>
        :root {
        --fade-text-color: rgb(0, 0, 0);
        --hide-text-color: white;

        --highlight-value-text-color: rgb(27, 14, 139);
        --highlight-id-text-color: rgb(150, 100, 28);

        --highlight-box-fill: yellow;
        --highlight-box-line-color: rgb(0, 0, 0);

        --fade-box-fill: rgb(247, 247, 247);
        --fade-box-line-color: gray;

        --hide-box-fill: white;

        --primitive-value-color: rgb(27, 14, 139);
        --id-text-color: rgb(150, 100, 28);
        --default-font-size: 20px;

        --highlight-object-fill: rgba(255, 255, 0, 0.6);
    }

        text {
            font-family: Consolas, Courier;
            font-size: 20px;
        }
        text.default {
            fill: rgb(0, 0, 0);
            text-anchor: middle;
        }
        text.attribute {
            fill: rgb(27, 14, 139);
            text-anchor: start;
        }
        text.variable {
            fill: rgb(0, 0, 0);
            text-anchor: start;
        }
        text.id {
            cursor: auto;
            fill: rgb(150, 100, 28);
            text-anchor: middle;
        }
        text.type {
            fill: rgb(27, 14, 139);
            text-anchor: middle;
        }
        text.value {
            fill: rgb(27, 14, 139);
            text-anchor: middle;
        }
        path {
            stroke: rgb(0, 0, 0);
        }
        .highlighted path {
            fill: var(--highlight-object-fill) !important;
        }
    
        [data-theme="dark"] {
            --highlight-value-text-color: #110875;
            --highlight-id-text-color: #6e4409;

            --fade-text-color: #BBBBBB;
            --hide-text-color: #121212;

            --highlight-box-fill: #EDB926;
            --highlight-box-line-color: #FFFFFF;

            --fade-box-fill: #2C2C2C;
            --fade-box-line-color: #666666;

            --hide-box-fill: #121212;

            --highlight-object-fill: rgba(72, 207, 173, 0.3);
        }
        [data-theme="dark"] text.default,
        [data-theme="dark"] text.variable {
            fill: rgb(224, 224, 224);
        }
        [data-theme="dark"] text.attribute,
        [data-theme="dark"] text.type,
        [data-theme="dark"] text.value {
            fill: rgb(144, 164, 237);
        }
        [data-theme="dark"] text.id {
            fill: rgb(255, 183, 77);
        }
        [data-theme="dark"] path {
            stroke: rgb(204, 204, 204);
        }
</style><g id="object-0"><path d="M51.26240080611889 25.328906422000962 L360.5233464329013 24.51904807480016 L361.0836111402561 154.59417313784874 L49.532322111180214 155.81976637314395" stroke="none" stroke-width="0" fill="none"/><path d="M50.03055967644136 24.073770781159915 C154.37280985494425 23.205318149464155, 255.9089671746338 24.420813907166664, 361.4700703133467 23.845137320894295 M50.59760917517611 24.841574744303948 C169.98531990619043 26.537540691312934, 288.83856772989833 26.356102907195737, 361.75255007891576 24.820864104629866 M362.78312207499613 26.140030966974557 C361.4442768736084 52.64344442914102, 362.572762069301 79.24103856046702, 360.77607114865003 156.46093340615423 M361.77275872741257 25.6420637852017 C361.21606893233655 51.77999469772205, 360.5612640451838 80.5555972714061, 362.0416901977038 154.93151736288593 M360.8771315567077 153.66877718080133 C258.55901401411893 155.89772621442256, 158.60556615391877 156.08104648621114, 49.70207200529278 153.64884560738042 M361.38603266901487 155.1242372212289 C272.1696590309249 154.80866517113003, 182.63901429362056 155.637909755353, 49.530384012996905 154.38265520156384 M49.678490252796365 153.5419325878504 C50.225864930823185 115.77357164490334, 51.350071787415324 77.19856783712792, 49.41897457611023 25.98489877569258 M49.83830214994117 155.28165190611585 C51.65217198836389 123.9825706433933, 51.082943738836725 93.30310082262675, 49.434738979648344 25.058403371138084" stroke="rgb(0, 0, 0)" stroke-width="1" fill="none"/></g><g><path d="M76.4177342712228 91.58684136026235 L132.22872326070225 88.63046861338368 L131.9106523333097 141.25619972209196 L75.88078228095749 140.4132427913831" stroke="none" stroke-width="0" fill="none"/><path d="M74.2005734499817 88.93521898139383 C88.89387494971938 89.15271497707381, 106.78067014756613 88.43203838514285, 131.51623331458583 90.51205039514065 M74.3348884452595 89.91453879237118 C95.10517982767078 88.94351138072389, 115.43660564995263 88.53217399192903, 132.69437139577522 90.76573818368723 M132.74730781461432 88.99384339746098 C132.49117000563564 100.26622813256884, 133.39432611769564 110.60440354570665, 133.86852709809827 139.3974831576356 M132.99807668366142 89.00316109066715 C133.8285804771755 102.87587028330358, 132.63611514743383 118.17381492469032, 132.02077429093018 140.69345359479652 M131.7122010242416 140.00857858664278 C111.57156593363183 138.67847150355055, 89.21975409649527 138.67627370293687, 74.90323293298816 138.90974665232028 M132.25782196739064 139.61674579864345 C110.87489229834985 139.70810974999324, 87.67918897534203 139.6483577254531, 74.188010830445 139.4891785797547 M74.77442804082305 141.46720274379655 C73.2858400167737 122.63699344990474, 75.53342288445117 107.8873612221265, 73.00840338331531 91.87718272119552 M75.45085372951102 140.22258333098108 C75.98514795476383 129.62392689569617, 75.67671609530613 118.818673361965, 74.36659236371999 90.43342155400745" stroke="rgb(0, 0, 0)" stroke-width="1" fill="none"/></g><text x="104" y="120" class="id">id36</text><g><path d="M143.62611874752855 90.23999112700616 L203.7052917674706 88.6307831595278 L201.8103564803165 139.8080250177632 L143.6075589182456 140.17097568446414" stroke="none" stroke-width="0" fill="none"/><path d="M143.71770598454847 91.48116663013377 C159.55232200446594 89.0417725223532, 173.91689449116353 90.36748487172075, 202.28507701087307 91.49133366353782 M144.7559720863123 89.97827943173708 C158.5158066952613 89.85802844448654, 170.4788330855138 89.94482184629346, 203.14536165591434 90.38234062656286 M204.8466881265998 88.67058351196086 C203.7683163695138 110.42226387121104, 202.91874269079932 129.24022561024702, 202.8302611484416 139.39545495266202 M202.78710572849573 90.62596624556502 C203.02506257550226 107.62017948975684, 203.89510171288288 127.70478853856095, 202.76142628490427 139.44650434507727 M202.11140111248213 140.06424898352938 C183.63256966671625 141.58953561890243, 161.36888454768365 139.97782196274974, 146.2372546617245 138.60354142113377 M203.50664330962258 140.0162571910083 C181.45231805249915 140.9162530125391, 160.41503937299393 140.53976684006557, 144.92093621902288 140.91966806822768 M145.7161020462153 141.15235748002175 C146.29877475818336 120.74815157108497, 145.911424323852 98.93168162003295, 144.90649216223403 89.03530798283512 M146.27702317328774 139.34672784540544 C145.439904991663 121.80410175320782, 145.55803941843698 104.15349203524615, 145.49536004555813 89.69104633123854" stroke="rgb(0, 0, 0)" stroke-width="1" fill="none"/></g><text x="174.5" y="120" class="id">id49</text><text x="139.25" y="120" style="" class="default">,</text><g><path d="M217.40009142533117 90.93241997795378 L264.99024599295706 89.53307910043264 L264.597030392443 140.46876614197507 L214.31498941055474 138.42928532011612" stroke="none" stroke-width="0" fill="none"/><path d="M215.26404164796102 89.50232356808989 C234.93398983727528 89.95962942784399, 255.5379594305093 90.68547624118271, 264.80173084490997 89.87032009086528 M216.55441065125555 90.317324742743 C228.90275985172966 90.99110715579678, 241.72068892049862 90.75505576047357, 265.58864021816106 89.5926465237336 M265.4852919988785 89.8151208065993 C264.9713958766166 104.20561772241457, 267.60228777800876 122.00234429767785, 264.40250368059634 139.80844397451406 M265.6488385246657 90.73911744711592 C267.0314609409174 103.87433310584218, 266.5440027801637 118.33883624833926, 266.1511074984434 140.08778309356882 M265.4677629317552 140.94382161383993 C251.22758122179894 141.94084585549083, 234.80597180079124 140.91750735392978, 217.44944157502786 139.79582171117332 M266.1940444718031 140.98842262365667 C255.6920843623414 139.50935116096062, 244.37404973944217 140.5985886515758, 216.15616414028358 140.96124635767077 M217.70615365338142 141.19099178431208 C217.2405536146087 123.00121273878459, 214.27187829714362 107.30568493387173, 214.3556644948162 91.87435692982872 M216.91539846891965 139.4746596496223 C216.08198017445991 127.68237616610658, 215.93561654189318 114.75759266636302, 215.68861346559473 89.07696336256873" stroke="rgb(0, 0, 0)" stroke-width="1" fill="none"/></g><text x="241" y="120" class="id"></text><text x="209.75" y="120" style="" class="default">,</text><g><path d="M277.4575466077862 91.80897903202576 L336.2048624224421 89.98463768114908 L337.5318326057293 141.18282292549537 L278.1675216611656 138.39949832969262" stroke="none" stroke-width="0" fill="none"/><path d="M277.44517048032213 88.8952563724261 C297.58319776057954 87.82716232416557, 313.89806705563467 88.27458988219513, 336.5492909899906 91.8466154740064 M277.9875986398149 90.12855828481278 C296.3489326264273 90.7849502931943, 313.0481569982543 91.014688032686, 337.2558703202692 90.90926667594734 M335.74843128100287 91.56563725947727 C336.72927614353085 103.83931585427212, 335.8862778165324 117.26878194568741, 334.5604154781943 139.0318957654742 M336.28428443038547 89.86843731784575 C336.372292094048 100.73246728914276, 336.04444490598826 112.61073859691878, 336.2941480399522 139.6772647945224 M336.79958642821873 141.1753224796683 C316.23512192016716 140.65338246768502, 298.671755333793 138.76455692649745, 276.62004410276563 138.3782873158261 M336.84761252072565 140.26736048876074 C323.22346777983626 140.25478541163577, 311.0949142124345 139.56799293557532, 278.1629577832218 139.24029522359265 M279.56279649347465 141.39397465345297 C278.68085866870877 127.44788507013504, 277.7582848014043 119.36231039880379, 276.7540529502149 88.4716023871524 M278.2514413116548 139.134021966436 C278.3713526356256 121.92060604992602, 278.366429904989 103.08236694960598, 279.04622100358444 89.376718685864" stroke="rgb(0, 0, 0)" stroke-width="1" fill="none"/></g><text x="307.5" y="120" class="id">id64</text><text x="272.25" y="120" style="" class="default">,</text><g><path d="M49.159674970251494 25.10109998059989 L109.43900850479714 26.06286292969356 L109.84448906419183 73.52907446741244 L50.02736656007041 73.10842354395021" stroke="none" stroke-width="0" fill="none"/><path d="M51.56318395671969 23.554887876200162 C64.25898001818223 22.976032893612665, 78.12913917276441 25.24189406016086, 110.58581222582258 26.632034765148163 M50.27155593243803 24.69438510845038 C70.80688679535443 25.22857255724615, 89.88305618219876 24.539628529693815, 110.66198369703602 25.16493658552346 M110.40445856984076 24.129319413269087 C109.58414216121325 38.39943124738315, 108.97365944390991 48.89437573559707, 108.29253932213844 75.10498273122647 M109.56533019860152 24.115389398389762 C110.15662174337348 44.48472261377961, 110.4310947049274 61.65181522461718, 109.7833537007236 74.19888716335119 M109.2099322397767 74.09167361146451 C87.35808339161825 72.99779085155913, 66.54017003570314 75.41283895006455, 51.13995826984006 75.31505143644068 M109.5399722612133 75.29720910120452 C85.64027022536182 74.7368881177739, 62.395973073179945 74.62745740429362, 49.65129804248609 75.67738314179991 M49.54393680387755 75.67306405081754 C48.79556628166372 62.6527945369919, 49.64780468767605 54.79966219931237, 48.16554303133355 26.637447001409797 M50.59462241097579 74.94879223139554 C50.4663332428144 58.1842797846946, 50.30710245495415 39.37398735055925, 49.36202711990505 25.58232130396468" stroke="rgb(0, 0, 0)" stroke-width="1" fill="none"/></g><g><path d="M300.4696870919172 24.104899035839583 L362.01752512464685 24.842086110826276 L363.0689364384344 75.0239730179694 L303.3841841769752 74.37212189809622" stroke="none" stroke-width="0" fill="none"/><path d="M301.124103393366 26.36554362092764 C312.69417442084784 23.90530886760286, 325.0467631519346 23.54030062407724, 360.5472270497474 24.08458997880024 M301.700858002069 24.889776170906238 C317.1127615231895 26.052635152304507, 332.9619227340176 26.195957523704198, 362.3770601917604 24.35387521408865 M362.80372071903685 25.662323112666414 C362.8021727626306 38.638060070428836, 359.84070112422495 49.289811946841326, 361.6733582320835 75.2696782599759 M361.89881676003756 25.58242660164027 C360.483103099158 36.27760893590135, 361.29336713258976 46.80754503273469, 361.7601431421056 75.98596193336728 M361.51643130614616 74.27300727103554 C345.7821490745468 73.09080281846273, 331.5780669233618 73.41145044705883, 299.97189230075656 73.87241993587574 M362.0374600371289 74.80950349638437 C347.6890206026145 73.90303813950517, 333.4236518629049 74.19055276304914, 301.4324071355371 74.3109017551753 M302.9020150312538 73.64197048590907 C303.19160735458746 56.343545529778474, 299.9436465978998 41.93993198255127, 302.881072245347 25.901628898325463 M300.7358232046792 74.53715174990587 C300.29401268052334 54.87232628565129, 301.3662493063659 35.447663043481896, 301.0534970552986 24.51329952118053" stroke="rgb(0, 0, 0)" stroke-width="1" fill="none"/></g><text x="80" y="55" class="id">id90</text><text x="331.5" y="55" class="type">set</text><text x="62.5" y="120" style="" class="default">{</text><text x="349" y="120" style="" class="default">}</text></svg>