<svg width="386.5" height="205" xmlns="http://www.w3.org/2000/svg"><title>Python memory model diagram showing objects</title><style>
        :root {
        --fade-text-color: rgb(0, 0, 0);
        --hide-text-color: white;

        --highlight-value-text-color: rgb(27, 14, 139);
        --highlight-id-text-color: rgb(150, 100, 28);

        --highlight-box-fill: yellow;
        --highlight-box-line-color: rgb(0, 0, 0);

        --fade-box-fill: rgb(247, 247, 247);
        --fade-box-line-color: gray;

        --hide-box-fill: white;

        --primitive-value-color: rgb(27, 14, 139);
        --id-text-color: rgb(150, 100, 28);
        --default-font-size: 20px;

        --highlight-object-fill: rgba(255, 255, 0, 0.6);
    }

        text {
            font-family: Consolas, Courier;
            font-size: 20px;
        }
        text.default {
            fill: rgb(0, 0, 0);
            text-anchor: middle;
        }
        text.attribute {
            fill: rgb(27, 14, 139);
            text-anchor: start;
        }
        text.variable {
            fill: rgb(0, 0, 0);
            text-anchor: start;
        }
        text.id {
            cursor: auto;
            fill: rgb(150, 100, 28);
            text-anchor: middle;
        }
        text.type {
            fill: rgb(27, 14, 139);
            text-anchor: middle;
        }
        text.value {
            fill: rgb(27, 14, 139);
            text-anchor: middle;
        }
        path {
            stroke: rgb(0, 0, 0);
        }
        .highlighted path {
            fill: var(--highlight-object-fill) !important;
        }
    </style><g role="graphics-object"><title>Set id90 with 4 elements</title><desc>Elements: id36, id49, blank, id64</desc><g id="object-0"><path d="M51.69194501963617 25.319705254611584 L363.05624227906526 24.77527333505975 L360.8554037897396 156.9023069713698 L49.50255337200383 154.74870298520736" stroke="none" stroke-width="0" fill="none"/><path d="M49.774947169521184 23.68287072905366 C123.57832432342106 23.568216020244044, 195.51655979470095 25.030567946110793, 360.6928965733998 24.113496294029733 M49.53582476232455 24.50080250192422 C131.4631276348901 26.82215784102981, 213.10522598292556 27.311889946611732, 361.1545457400487 24.95608665589453 M362.5515870494891 26.48158993121487 C362.6462807559464 69.04534502101471, 362.69681371089877 118.3067721308975, 359.76146707736666 154.26862226194177 M362.33739345718345 24.8148680830285 C362.51087064476593 73.80484892747134, 361.81041098316865 123.96873850757366, 361.5165503961221 154.35336166433297 M362.0243239904209 155.28963885467255 C289.834151683269 156.55661731767339, 217.1945963541566 158.08414915385762, 49.20542281642187 155.28987438137995 M362.08827434578734 155.48677205723732 C272.2173538936149 153.00281701135356, 184.86706662062863 154.2147666877649, 50.08436305765358 154.63129195715723 M50.11790495678604 156.36556899332112 C49.54310504244888 118.25476336920183, 49.69374414293901 86.94407193932726, 50.25403540765505 26.037978487932087 M50.13234815139943 155.7104213254253 C49.53810565939154 115.05723614676121, 50.17301577966233 75.48957122712838, 50.92448877500266 25.965927822365444" stroke="rgb(0, 0, 0)" stroke-width="1" fill="none"/></g><g><path d="M74.24381893670699 88.72909402790245 L132.77661708096218 88.08471219700468 L131.70408742467436 141.59545221645294 L76.35425096325567 140.72878008722645" stroke="none" stroke-width="0" fill="none"/><path d="M73.86485980232685 91.84005948149203 C92.78769014077955 88.78195457274364, 112.58343996804072 88.64153189139941, 134.474127656445 91.59882071073913 M74.42747109251218 90.61596170930568 C89.34867053917782 90.84999750966881, 103.19959140305498 89.43432391576478, 133.32053293263294 89.04343287728959 M133.07410300128555 90.8048219812083 C134.54533391768757 104.79673818831921, 135.07121042005787 117.79717076262037, 132.40630394118205 138.87047616280526 M132.50859847475957 89.8851506260061 C132.7925030476497 101.07252219849433, 133.2799120705098 113.1447947818194, 133.09312614336287 140.99581085725018 M131.61655577183365 139.3438950999763 C111.93583443057878 140.92958059544915, 90.01712004104164 139.55500730537182, 75.1201011122941 138.26589912368016 M132.01705397637514 139.81331371996154 C111.26380619644956 139.493360940662, 89.73023153513526 139.70466607801282, 74.65724531569428 140.1331700178735 M73.37879329483378 140.14379272242388 C74.62220090113534 129.46348812731122, 73.28957538552419 114.7374676512345, 76.88921437291603 90.42029247723991 M74.07872173748993 140.28980617723894 C75.06809146673471 127.31045698021319, 74.83584079398912 113.07202285589669, 75.12454712770939 90.23834836160246" stroke="rgb(0, 0, 0)" stroke-width="1" fill="none"/></g><text x="104" y="120" class="id">id36</text><g><path d="M146.4963370129154 90.39987839644492 L202.63736030202534 89.33966804459075 L203.24982998248487 139.58402556018405 L144.07014187961371 138.54264564002406" stroke="none" stroke-width="0" fill="none"/><path d="M147.45045604969735 89.4510071747992 C158.2774500444807 90.36525067512252, 170.05950335548758 90.00825559585235, 203.31020396093444 89.13806120872341 M146.270037722136 90.82399874289442 C160.31898599566495 89.81504822923084, 173.51510921534086 90.30665217864943, 203.02966428431566 89.82200081698481 M203.40540673451468 90.68864627219754 C204.85104274123236 103.30019973106295, 203.60042919489223 115.94593325562393, 201.9673846100404 139.1351984365426 M203.5012309624368 90.40719420067744 C203.2838028694219 103.5412053613708, 204.17140198078272 118.95546310013667, 203.86630462468136 140.06224129512793 M203.01846759927992 139.89840675940025 C185.36808836873058 138.15341989490912, 169.7651256322687 138.29657223579161, 146.15845496253021 139.56688535250797 M202.613365861077 140.83169536481262 C181.59748730654445 140.0634795300486, 161.21230371858388 139.50611429644857, 145.88839124285204 140.46954240188484 M147.24204332639772 139.22792242427386 C146.7899536261713 121.22924523795957, 147.4232592904453 107.38262819421028, 145.2716838230458 89.42298077964622 M145.96793215444117 140.12254896368415 C145.33722791801387 127.63170172001391, 145.356183397946 115.57923603971106, 145.42370782572635 90.75949810708684" stroke="rgb(0, 0, 0)" stroke-width="1" fill="none"/></g><text x="174.5" y="120" class="id">id49</text><text x="139.25" y="120" style="" class="default">,</text><g><path d="M217.613665232533 88.75504276951644 L265.08913258207684 90.54479496037739 L264.4086022326903 141.89486563530423 L217.47783577063362 140.47880493375874" stroke="none" stroke-width="0" fill="none"/><path d="M216.89418577948854 88.75196965140823 C229.16201318231063 91.42939706104151, 246.54125375574267 88.47325998415553, 266.06981005685566 90.86642513735147 M215.8608771437282 90.42713551218726 C230.71372473409343 90.04870394175022, 247.22919725671488 89.87677371709322, 265.52624470759145 89.49139018944341 M264.1412617430106 90.23915085485639 C267.4579550606668 105.77754944638662, 264.1853875491628 125.95246485886969, 264.3742574598918 140.54531515598816 M266.8918086364882 90.71970402555797 C265.1864207518562 101.42945259535927, 265.85236544277734 113.25095552342724, 265.90557474774465 139.63091970964356 M264.360902388692 138.25944654081778 C250.7796041859291 140.45367907843234, 234.34633539759665 141.22749353893704, 214.92753092010864 140.30639031801638 M265.79256961064095 140.47799103020068 C247.01511198616234 140.14953386565884, 229.0121148299047 140.72425576591246, 215.9355495705738 140.0290739798601 M215.68391913992062 138.08718958489868 C214.22967014408658 126.59711474136365, 217.13518504281095 115.73616471165612, 217.2361251146933 89.80262751658155 M216.48283541950073 140.71196512921898 C215.80680931264519 124.24356956135196, 215.5848609758876 110.66334421994888, 215.00864815606445 90.27587971184897" stroke="rgb(0, 0, 0)" stroke-width="1" fill="none"/></g><text x="241" y="120" class="id"></text><text x="209.75" y="120" style="" class="default">,</text><g><path d="M278.70969173887414 90.5431306579253 L337.69118780565117 90.01274582404699 L335.2971618173773 138.7169406976783 L277.06061088485814 140.3138683328087" stroke="none" stroke-width="0" fill="none"/><path d="M278.8096992965121 89.54363957723652 C294.31807268734536 89.89747098531028, 314.2134324921272 91.91835069244632, 337.889518549102 89.13652148825719 M278.1377582837419 89.5397689766282 C300.74351980838173 90.32404757424004, 321.54802849871385 90.96163075459307, 336.37488031553045 90.82535036315221 M336.2082727543653 90.49853115396195 C338.17587650074086 107.39538201294636, 334.6983702292215 127.20261837628541, 337.95642103415094 140.97165248368947 M337.4335020407677 89.12878481595251 C336.8245645990351 103.06368810442932, 337.08125797670453 117.69082742606936, 337.4456610055027 140.6774346812641 M338.09143406618153 138.7527330785837 C318.46719239071035 139.85003140781828, 300.23695788574736 141.97550503799567, 279.2075256456649 140.10789958405567 M337.4631296051231 139.99824065532894 C320.9098299918814 140.42032462583495, 304.2354766581717 138.81785223204912, 278.89084388858936 140.90471884521918 M277.0130812972751 138.59649761763828 C276.6483719938148 126.18616538027766, 279.66033667604074 114.9341131809643, 277.2328293960122 89.1449938484362 M279.45615212435297 140.36558018800233 C278.55562461844295 129.78023012715335, 278.7699021658678 119.1797880015956, 278.20665251179804 90.28170521172639" stroke="rgb(0, 0, 0)" stroke-width="1" fill="none"/></g><text x="307.5" y="120" class="id">id64</text><text x="272.25" y="120" style="" class="default">,</text><g><path d="M51.43664541818887 23.250999383217156 L111.15229654753784 23.93768305644308 L111.56212953900334 75.65084384076235 L48.8912641766137 75.48195126365381" stroke="none" stroke-width="0" fill="none"/><path d="M49.49336206321046 26.040485728068674 C68.84181634349855 24.031370261973912, 88.56324512237364 25.211977765339086, 108.77676331780752 25.515003151157206 M50.32310901287279 24.85809494201812 C69.39806696408188 24.353099857688164, 87.30328308013395 24.71819088382527, 109.32403561272467 24.28813756452167 M111.56454488602938 24.976179267215056 C111.74044233700266 41.02472405146175, 109.73665758862802 54.27605975415903, 110.36230691629919 74.67564132766381 M109.79431195800126 25.99764320063781 C110.6923755639639 37.10797416627837, 110.9370205859485 48.493530896410014, 110.53568858314279 75.69370070387463 M110.24980344015034 73.69359037315385 C92.46654146058383 76.93139290940758, 72.24228602619394 74.57428072276218, 51.62268872916426 76.7781044798024 M110.99069200775611 75.92745306435828 C93.53798289619878 73.53650631269089, 76.20659721471046 74.09805852691726, 50.170191165984555 75.80912667253534 M49.1131224191805 76.0965793652988 C48.74616598985776 59.1958741376295, 51.77140575767115 44.35727095161083, 51.33247938893273 24.346594557474056 M49.96656378037832 75.11014799482841 C49.80185526701215 58.714411044952335, 49.554853096936064 43.854852805841865, 49.03288118678974 24.126182350436434" stroke="rgb(0, 0, 0)" stroke-width="1" fill="none"/></g><g><path d="M300.1292342626528 23.910087984035435 L362.7901772277688 24.455504755563513 L362.71258175779104 74.38028563729938 L301.86839962447993 75.43798414573249" stroke="none" stroke-width="0" fill="none"/><path d="M300.55282905082026 26.753093266901246 C323.6559525183532 24.20813214850641, 342.99260658590424 26.1581880693329, 362.6894336160185 26.6744222564553 M301.1185751731596 25.60411765542114 C318.01046467619574 25.31532462541853, 333.9898858269238 24.0749921966479, 361.3467411103486 25.864519025409496 M361.34105149205476 26.34012224773158 C362.81683667259074 41.577402595665575, 361.5208094548928 59.64782637870962, 363.3038610974787 76.17521082728558 M360.99754863943275 25.255156015420518 C362.22462495257366 41.198187132893835, 361.18206719391907 56.217420386219224, 361.3181479313686 74.55287867127599 M360.29318492989347 73.64972779688419 C346.8526179180489 76.06245685477663, 329.88852072343127 74.06695091615238, 299.5927642389611 76.24275013613783 M361.2020930339707 75.5568564281253 C338.916334254728 75.75103367833634, 315.1337678825306 75.04680400965641, 301.66798007481964 74.14068325492231 M300.7113782181627 76.62592345746341 C300.2643819639898 64.48176790750824, 301.2997569813721 51.31100774967716, 303.48404015693035 25.447134020712348 M302.2368862461392 75.7328855937908 C301.66241908361366 61.913238451607064, 301.33766019457397 51.218516060958805, 300.5913100969996 25.558793568622875" stroke="rgb(0, 0, 0)" stroke-width="1" fill="none"/></g><text x="80" y="55" class="id">id90</text><text x="331.5" y="55" class="type">set</text><text x="62.5" y="120" style="" class="default">{</text><text x="349" y="120" style="" class="default">}</text></g></svg>