<svg data-theme="dark" width="292" height="217" xmlns="http://www.w3.org/2000/svg"><title>Python memory model diagram showing objects</title><style>
        :root {
        --fade-text-color: rgb(0, 0, 0);
        --hide-text-color: white;

        --highlight-value-text-color: rgb(27, 14, 139);
        --highlight-id-text-color: rgb(150, 100, 28);

        --highlight-box-fill: yellow;
        --highlight-box-line-color: rgb(0, 0, 0);

        --fade-box-fill: rgb(247, 247, 247);
        --fade-box-line-color: gray;

        --hide-box-fill: white;

        --primitive-value-color: rgb(27, 14, 139);
        --id-text-color: rgb(150, 100, 28);
        --default-font-size: 20px;

        --highlight-object-fill: rgba(255, 255, 0, 0.6);
    }

        text {
            font-family: Consolas, Courier;
            font-size: 20px;
        }
        text.default {
            fill: rgb(0, 0, 0);
            text-anchor: middle;
        }
        text.attribute {
            fill: rgb(27, 14, 139);
            text-anchor: start;
        }
        text.variable {
            fill: rgb(0, 0, 0);
            text-anchor: start;
        }
        text.id {
            cursor: auto;
            fill: rgb(150, 100, 28);
            text-anchor: middle;
        }
        text.type {
            fill: rgb(27, 14, 139);
            text-anchor: middle;
        }
        text.value {
            fill: rgb(27, 14, 139);
            text-anchor: middle;
        }
        path {
            stroke: rgb(0, 0, 0);
        }
        .highlighted path {
            fill: var(--highlight-object-fill) !important;
        }
    
        [data-theme="dark"] {
            --highlight-value-text-color: #110875;
            --highlight-id-text-color: #6e4409;

            --fade-text-color: #BBBBBB;
            --hide-text-color: #121212;

            --highlight-box-fill: #EDB926;
            --highlight-box-line-color: #FFFFFF;

            --fade-box-fill: #2C2C2C;
            --fade-box-line-color: #666666;

            --hide-box-fill: #121212;

            --highlight-object-fill: rgba(72, 207, 173, 0.3);
        }
        [data-theme="dark"] text.default,
        [data-theme="dark"] text.variable {
            fill: rgb(224, 224, 224);
        }
        [data-theme="dark"] text.attribute,
        [data-theme="dark"] text.type,
        [data-theme="dark"] text.value {
            fill: rgb(144, 164, 237);
        }
        [data-theme="dark"] text.id {
            fill: rgb(255, 183, 77);
        }
        [data-theme="dark"] path {
            stroke: rgb(204, 204, 204);
        }
</style><g role="graphics-object"><title>Str id43 with value "David is cool"</title><g id="object-0"><path d="M51.28058739419961 26.144114366683965 L255.27816464194214 23.63317653619387 L256.8103491264927 153.92496532280325 L48.78941248808214 156.44431058661243" stroke="none" stroke-width="0" fill="none"/><path d="M49.305554494722465 26.25860185056541 C124.28446677022694 22.690030324781763, 200.53223870469617 24.8290678694883, 253.48487082563523 25.333691620022744 M49.124162555658444 25.47953722652599 C92.74171502372535 26.60982305213278, 134.1664600046897 26.453278146888785, 255.14523177186544 25.865257929161523 M256.1385758463734 23.866765304089213 C253.0011446119402 51.41192810855889, 255.19491515957293 79.1202885611905, 255.2050542240357 156.63031423085673 M255.51736846085265 24.51060106864331 C255.2344142463883 59.132800844709394, 256.445785952618 93.47387301127574, 255.58986721157154 155.6578350883685 M256.25360969593197 154.3724032491791 C210.59728986491174 155.67263107876943, 168.18563192681512 156.2482562990978, 50.58072154956798 153.24100769778713 M254.1819549273072 155.2524336973575 C182.46020168059889 155.8539015686515, 109.86244599673847 155.78761657220207, 49.60506525072378 155.57472937797723 M50.23432360841344 154.47415493250188 C49.01279080232551 109.68804504471139, 49.38927261274469 67.25967266426476, 50.28575544706763 25.88443863524525 M49.430722905269874 154.74962956428212 C49.912055985761064 123.75444029390883, 48.718204901985445 92.65106076367515, 49.19116682819907 25.27897313439436" stroke="rgb(0, 0, 0)" stroke-width="1" fill="none"/></g><g><path d="M43.7207770615218 20.191066473019642 L262.7952696401534 18.760643628321354 L262.0092788987356 161.3563094865238 L45.19728451028382 160.71345053569917" stroke="none" stroke-width="0" fill="none"/><path d="M44.74518561485526 18.707748023486058 C100.73656475553733 19.514879202082053, 160.08656048004664 18.13040112751233, 261.3001578570904 19.72426099841993 M44.4863406824579 18.982603666160788 C104.27730029031417 18.595046666393756, 165.2854293584164 19.427740365359476, 260.13573757291545 19.394324710426563 M260.31731446007893 19.66072418196905 C258.75446423030894 59.228005713183535, 259.2681182498538 100.55511942963894, 262.02215349267846 159.24374923387907 M260.12751835570344 19.811476302031608 C260.6437242817493 48.49428151235949, 259.1374776681279 78.96135946753745, 261.7127400936839 161.02676463997133 M259.91082897097306 161.10135131800183 C216.66142442319978 160.23142570809318, 169.37342442550627 161.16234128449992, 44.53222776412458 160.03850529520676 M261.7130349175114 160.70498834404992 C179.68707741138348 159.3505011806581, 97.42584062670817 160.0100927745715, 43.810121580127834 160.5165022138057 M42.743539210826846 161.35432118843954 C44.66168409811174 110.46886663971841, 44.96523225206866 57.203433303406754, 44.94041561282769 19.996871643453847 M44.626862805657815 161.66611248213013 C42.86062520312903 117.3118650844607, 43.783648848831376 72.59814600893843, 44.35923086103977 19.605604032951064" stroke="rgb(0, 0, 0)" stroke-width="1" fill="none"/></g><g><path d="M50.80420650296389 24.742491191826517 L109.34461619509034 23.09713613938716 L110.43577756705523 75.7671070933337 L51.41781136445165 74.44286499908003" stroke="none" stroke-width="0" fill="none"/><path d="M48.268233447308965 25.072695368736866 C64.72791252705244 25.982536911966054, 81.21318683017371 23.87303994854001, 111.85398038084878 26.388115127076045 M49.83859560875965 25.99211211266086 C69.54779879870352 24.660742005649457, 86.877100905696 24.291678401277238, 110.30115884071911 24.338131070202106 M108.46341155345385 23.408039104816062 C110.24656935947192 34.91821776417391, 108.50550770443017 48.868445314530526, 108.45452908357225 74.98479022310353 M109.19594138955665 25.35232048164 C110.66933894930241 39.299500823543696, 108.97989254949043 54.0873204652977, 109.72706218822412 74.30946872999947 M109.88160049896463 75.48102891405301 C95.00822482762753 74.70696333700538, 76.90140450280964 75.98384157858904, 51.264944735404185 73.47904826111643 M109.21362074646758 74.01012290377643 C88.57758289285212 74.19229836612888, 65.02330491621797 74.2836492457169, 49.219041094980476 74.58995058228143 M50.72086545248706 75.53467422246126 C50.156503606198186 58.31457867306513, 50.13830962722303 45.679032900735585, 51.6193026910948 24.461113514076743 M50.57036584720028 75.49013389247439 C50.34452628190989 59.32563443921298, 48.59745372713474 41.9120830313553, 50.581197016823936 24.497633160812235" stroke="rgb(0, 0, 0)" stroke-width="1" fill="none"/><text x="80" y="55" class="id" aria-label="id: id43">id43</text></g><g><path d="M193.35802463399293 26.33040089599678 L253.25994960113746 26.72074373746372 L256.2868138194971 74.41598625274563 L195.70414883984037 74.02757583242021" stroke="none" stroke-width="0" fill="none"/><path d="M193.59053924220237 26.748367635618656 C215.3776752171348 25.492081965923177, 230.8936471030929 23.795192599537305, 254.60966838936056 25.61514278231109 M195.65678944090786 24.973975692320703 C215.27617323002977 25.029729087874255, 235.02946482192365 25.472239392139468, 255.77675610704657 24.888241133623296 M254.8915327538445 24.46020503210168 C252.91202560417784 38.47160815632734, 255.8399993214941 50.51474785071204, 253.99477916872524 73.57413324718772 M254.53791212055611 24.43142408719073 C255.25633871693194 40.16611842224235, 254.56555534220624 55.34752273078296, 254.91695848931 75.45869936439706 M254.28278247031568 75.19759619333931 C235.43715146746933 74.63365325344002, 220.11775866307892 74.95757722658387, 196.90021821233634 73.26243859041826 M255.3623212905842 74.13675851875058 C238.62829125591787 74.19325148664973, 222.43969281386745 75.84369934475266, 194.8433664029613 74.1997617497803 M196.99875534353296 76.6195805695337 C193.0765231888894 56.59784548531114, 193.3745124145174 36.07060223347234, 196.63398188449884 25.854903605771995 M195.4312981620411 75.68766672727064 C194.87182798591033 58.00473642812384, 194.53408413519242 38.965751306376134, 194.25575235961688 24.293478260227662" stroke="rgb(0, 0, 0)" stroke-width="1" fill="none"/><text x="225" y="55" class="type" aria-label="type: str">str</text></g><text x="152.5" y="115" class="value" aria-label="value: &quot;David is cool&quot;">"David is cool"</text></g></svg>