<svg data-theme="dark" width="267" height="217" xmlns="http://www.w3.org/2000/svg"><title>Python memory model diagram showing objects</title><style>
        :root {
        --fade-text-color: rgb(0, 0, 0);
        --hide-text-color: white;

        --highlight-value-text-color: rgb(27, 14, 139);
        --highlight-id-text-color: rgb(150, 100, 28);

        --highlight-box-fill: yellow;
        --highlight-box-line-color: rgb(0, 0, 0);

        --fade-box-fill: rgb(247, 247, 247);
        --fade-box-line-color: gray;

        --hide-box-fill: white;

        --primitive-value-color: rgb(27, 14, 139);
        --id-text-color: rgb(150, 100, 28);
        --default-font-size: 20px;

        --highlight-object-fill: rgba(255, 255, 0, 0.6);
    }

        text {
            font-family: Consolas, Courier;
            font-size: 20px;
        }
        text.default {
            fill: rgb(0, 0, 0);
            text-anchor: middle;
        }
        text.attribute {
            fill: rgb(27, 14, 139);
            text-anchor: start;
        }
        text.variable {
            fill: rgb(0, 0, 0);
            text-anchor: start;
        }
        text.id {
            cursor: auto;
            fill: rgb(150, 100, 28);
            text-anchor: middle;
        }
        text.type {
            fill: rgb(27, 14, 139);
            text-anchor: middle;
        }
        text.value {
            fill: rgb(27, 14, 139);
            text-anchor: middle;
        }
        path {
            stroke: rgb(0, 0, 0);
        }
        .highlighted path {
            fill: var(--highlight-object-fill) !important;
        }
    
        [data-theme="dark"] {
            --highlight-value-text-color: #110875;
            --highlight-id-text-color: #6e4409;

            --fade-text-color: #BBBBBB;
            --hide-text-color: #121212;

            --highlight-box-fill: #EDB926;
            --highlight-box-line-color: #FFFFFF;

            --fade-box-fill: #2C2C2C;
            --fade-box-line-color: #666666;

            --hide-box-fill: #121212;

            --highlight-object-fill: rgba(72, 207, 173, 0.3);
        }
        [data-theme="dark"] text.default,
        [data-theme="dark"] text.variable {
            fill: rgb(224, 224, 224);
        }
        [data-theme="dark"] text.attribute,
        [data-theme="dark"] text.type,
        [data-theme="dark"] text.value {
            fill: rgb(144, 164, 237);
        }
        [data-theme="dark"] text.id {
            fill: rgb(255, 183, 77);
        }
        [data-theme="dark"] path {
            stroke: rgb(204, 204, 204);
        }
</style><g><title>Group of 1 objects</title><g role="graphics-object"><title>Str id43 with value "David is cool"</title><g id="object-0"><path d="M23.3904604723936 23.377388237731886 L229.52576464691305 26.73228816569428 L228.86860405080816 154.57062613556417 L25.708501335773075 153.44846336065388" stroke="none" stroke-width="0" fill="none"/><path d="M25.816060376133574 24.40183682653559 C65.55563233000353 23.18240850939353, 109.5408598903912 25.604164037151957, 231.13233795973838 24.566744252322444 M24.971812933784143 24.411022617162324 C77.36567523050013 25.316665375318404, 129.87042167113594 24.80625948518659, 229.30024865348162 24.34797217199568 M229.31532837784854 25.327050030858626 C230.29283012170694 57.02800119729905, 229.9887580619183 89.8223743941561, 228.34926355044664 155.48815585801546 M230.76463453890278 24.262841270948925 C230.96220958229887 70.3144206687073, 230.80888969288395 114.83986435910262, 230.83539463391523 154.01883547718867 M230.53176412194566 154.83596135563536 C170.85509995836335 155.4283197455489, 110.49781121001347 155.44232505652081, 23.256580034635316 153.8434903736499 M230.83209287305453 155.5731934332955 C149.1842027580557 157.0343560058424, 66.59542446440504 155.87978440228474, 25.008935825868587 155.24988661822925 M24.62272664994119 153.48426299890917 C25.62673725871131 120.31603025495801, 26.745777239890245 85.97806421376055, 24.573294374842497 24.964265309107915 M24.05165992282357 154.40559972314833 C24.150635049948406 116.90060509885097, 24.114213308935156 78.18163341840325, 25.1450219037778 24.996242276342638" stroke="rgb(0, 0, 0)" stroke-width="1" fill="none"/></g><g><path d="M19.199314970829796 19.89170608245729 L237.79450596689324 18.220903407636463 L237.5514103764469 162.85152166166532 L17.742104162081514 162.08928924187376" stroke="none" stroke-width="0" fill="none"/><path d="M20.46567898775683 19.884351822997196 C75.62540936736741 20.274527927076946, 132.0788035213258 17.832440300660842, 234.55297951164218 20.030013534999593 M18.866414903548726 19.38844387776539 C69.6694668321306 18.269541836087285, 121.99700086836678 18.36862901365616, 235.48970962395657 18.748490805863803 M234.17270224062744 18.583547092084142 C236.97077244447405 60.33715725073594, 234.1180032687074 103.03057275626344, 236.58523497828224 161.2174870293416 M236.569537637161 19.308778028818182 C235.8318923089011 54.01377669417809, 236.27642655271373 88.32614028446382, 236.28317998969433 161.4574155974497 M235.93315053960592 160.47976215149 C169.67103796665813 162.32790444704798, 101.73318129877453 159.92020286497348, 18.543406042981704 159.54727875610294 M236.82407662949484 161.74616095103144 C182.21347777390073 160.8471500854044, 128.43595470044502 160.45353360283, 19.55372184585958 160.47862837645494 M18.722663269349372 159.64501301218678 C20.167055148066233 119.56512902595705, 18.01097191819231 73.25081173119491, 17.310928962020384 17.005066027777413 M18.343756315648115 161.13760796795177 C19.644600688590476 120.40397988892539, 19.432657294385056 78.53171576351035, 18.519606983620932 18.034482666586033" stroke="rgb(0, 0, 0)" stroke-width="1" fill="none"/></g><g><path d="M26.872959696830808 23.013489009517258 L85.65832393827493 23.592564849301084 L84.0554965962686 74.68323996264245 L26.290633668532692 74.28750606490696" stroke="none" stroke-width="0" fill="none"/><path d="M23.115607603492922 26.41718708467198 C47.56051856709506 24.088875765854567, 64.656341497021 26.465688634276997, 84.95261321791801 24.448491554996572 M25.12450020494561 24.204323269723666 C47.16356701007087 24.999937388175937, 69.82071435780898 24.110069284097563, 84.64436977096102 24.13874752736964 M84.95576917847775 24.37236582839694 C85.89164766142221 38.805650539310236, 85.9576042773527 53.09521693102639, 86.96493461404765 73.16400202392366 M85.79567472538436 25.112659537048003 C85.03361187361584 40.36911304520172, 84.97537092745763 55.76648953586754, 85.25398272505774 75.06776351711171 M85.0682229243579 73.47329333073145 C69.85745264860698 75.62586273950826, 50.764482157870916 73.47749227863756, 23.126154077458697 75.11858539102843 M85.60699780352732 74.62791629152886 C64.2416219392432 74.27224873679137, 42.837981023106835 74.08715118883029, 24.207778490111227 75.03579160866828 M23.57411902809605 74.92742621206801 C25.03540295458915 58.28535030378242, 26.554735917463262 40.336633688912045, 26.245678280039726 26.911889318065928 M25.03373477030246 75.5385706959691 C25.48251292817478 63.51695603083362, 24.46882582139676 53.25535410509074, 25.348446914733284 24.936179924942113" stroke="rgb(0, 0, 0)" stroke-width="1" fill="none"/><text x="55" y="55" class="id" aria-describedby="desc-0">id43<title id="desc-0">Object id</title></text></g><g><path d="M169.95229155248106 25.33112259335074 L229.63383126505872 23.62991658960069 L229.50920921627397 75.83771228297952 L169.0203769584641 74.95510746900099" stroke="none" stroke-width="0" fill="none"/><path d="M171.3065330479945 24.826971029197612 C185.84383217160322 25.954682213582817, 200.4563312900682 26.660830020942086, 229.78268861977844 25.201645916949417 M169.09526500465338 24.75544438953381 C188.32835787247393 26.011942302234463, 204.86931503361475 25.43906222992878, 229.88683514136278 25.8898432067913 M231.69167355295124 24.672546565235713 C231.56391893020603 35.620049643578334, 232.06506318525697 47.929889704626106, 229.85346737103922 75.6462402741174 M229.46356119962496 24.855319996847435 C231.0109623259619 43.67686362728464, 230.22758742241962 61.357629123325786, 229.88000904574227 75.62609238310874 M231.2881641431364 75.398999580439 C210.79792525829322 74.09532478703954, 191.6411515117881 73.20533626383934, 168.39428997585478 75.44053008690587 M229.1159555458858 74.39614564146994 C207.48893934931516 74.18212340958688, 184.82843983574006 73.74041768342825, 170.74550020140515 75.9896936496259 M170.15277330936922 76.97233447958149 C171.1256208274704 61.91634433830284, 170.08154226724517 46.951405703138235, 171.92954776480747 23.286158822628312 M169.7448913644421 74.93425161688612 C169.51237877806872 54.229687125896525, 169.80974695427224 35.715422708165775, 170.74882459037426 25.011175845720267" stroke="rgb(0, 0, 0)" stroke-width="1" fill="none"/><text x="200" y="55" class="type" aria-describedby="desc-1">str<title id="desc-1">Object type</title></text></g><text x="127.5" y="115" class="value" aria-describedby="desc-2">"David is cool"<title id="desc-2">Value</title></text></g></g></svg>