<svg data-theme="dark" width="292" height="217" xmlns="http://www.w3.org/2000/svg"><title>Python memory model diagram showing objects</title><style>
        :root {
        --fade-text-color: rgb(0, 0, 0);
        --hide-text-color: white;

        --highlight-value-text-color: rgb(27, 14, 139);
        --highlight-id-text-color: rgb(150, 100, 28);

        --highlight-box-fill: yellow;
        --highlight-box-line-color: rgb(0, 0, 0);

        --fade-box-fill: rgb(247, 247, 247);
        --fade-box-line-color: gray;

        --hide-box-fill: white;

        --primitive-value-color: rgb(27, 14, 139);
        --id-text-color: rgb(150, 100, 28);
        --default-font-size: 20px;

        --highlight-object-fill: rgba(255, 255, 0, 0.6);
    }

        text {
            font-family: Consolas, Courier;
            font-size: 20px;
        }
        text.default {
            fill: rgb(0, 0, 0);
            text-anchor: middle;
        }
        text.attribute {
            fill: rgb(27, 14, 139);
            text-anchor: start;
        }
        text.variable {
            fill: rgb(0, 0, 0);
            text-anchor: start;
        }
        text.id {
            cursor: auto;
            fill: rgb(150, 100, 28);
            text-anchor: middle;
        }
        text.type {
            fill: rgb(27, 14, 139);
            text-anchor: middle;
        }
        text.value {
            fill: rgb(27, 14, 139);
            text-anchor: middle;
        }
        path {
            stroke: rgb(0, 0, 0);
        }
        .highlighted path {
            fill: var(--highlight-object-fill) !important;
        }
    
        [data-theme="dark"] {
            --highlight-value-text-color: #110875;
            --highlight-id-text-color: #6e4409;

            --fade-text-color: #BBBBBB;
            --hide-text-color: #121212;

            --highlight-box-fill: #EDB926;
            --highlight-box-line-color: #FFFFFF;

            --fade-box-fill: #2C2C2C;
            --fade-box-line-color: #666666;

            --hide-box-fill: #121212;

            --highlight-object-fill: rgba(72, 207, 173, 0.3);
        }
        [data-theme="dark"] text.default,
        [data-theme="dark"] text.variable {
            fill: rgb(224, 224, 224);
        }
        [data-theme="dark"] text.attribute,
        [data-theme="dark"] text.type,
        [data-theme="dark"] text.value {
            fill: rgb(144, 164, 237);
        }
        [data-theme="dark"] text.id {
            fill: rgb(255, 183, 77);
        }
        [data-theme="dark"] path {
            stroke: rgb(204, 204, 204);
        }
</style><g role="graphics-object"><title>Str id43 with value "David is cool"</title><g id="object-0"><path d="M49.794096744481266 24.951634806224757 L255.59742386646283 26.282849804978458 L256.4421094216939 154.65279121620463 L49.80376662125044 153.3342852887244" stroke="none" stroke-width="0" fill="none"/><path d="M48.90260950997512 25.236648594390395 C96.75298816979935 24.416444929187467, 142.4698401996346 22.666880923343896, 254.79306133163843 24.13124209580418 M49.57868966923584 25.439125630088544 C97.55377359115276 24.003334753589463, 143.26130623984227 24.230626031749022, 255.0636633523615 24.833282798127847 M253.2125463564653 26.14317595427831 C254.63347786304797 65.18816344307143, 254.34509401295193 103.56516757467199, 254.77137506749608 154.51612842577876 M254.2025708921024 24.479093581688797 C257.07935415790587 68.72384283556576, 256.89802078655816 111.926055120543, 255.43070287886738 155.18950951336817 M256.462393348073 154.27495174214178 C208.42157146757467 155.35614165769684, 158.13335934695863 151.91501547529327, 50.494657207276205 154.52402799841607 M254.36421362448363 155.82575126004386 C181.99345453070168 156.037058699484, 111.26138333843711 156.38854372493094, 50.41610684649027 154.88426718024897 M48.867220443362385 156.3730931568327 C49.21346465695027 119.99090644961548, 47.85066794215139 86.25906854111524, 48.137402078782955 24.18052073085067 M49.607828828894924 154.21654135099212 C49.766066754349765 113.83500705752287, 48.98436022246738 72.03879980540525, 49.451346578779834 25.691244680375185" stroke="rgb(0, 0, 0)" stroke-width="1" fill="none"/></g><g><path d="M43.20313625978751 18.684642179433823 L260.1638166544356 19.65534283287634 L262.360963919321 162.1314009251349 L45.14876024232629 159.66404064664817" stroke="none" stroke-width="0" fill="none"/><path d="M44.88827695227289 18.911974741356318 C88.35971948815701 18.56266090258878, 130.74093275186556 19.531847570857458, 261.250454793454 20.15516673596758 M43.47037359503627 18.644580981703502 C111.60691013898052 17.77706518073539, 177.52191169342913 17.471746129621383, 260.6428528710227 19.514762116840554 M262.4323251997192 19.530434607831562 C261.77250174419925 46.296625628778145, 260.55691993627096 76.20470396838402, 259.0161887271727 162.91979642982523 M261.5072177911425 19.359363041085448 C261.18437229629177 50.200984630104394, 262.8912883970454 79.61149370100992, 261.63327695007035 161.04358847534954 M261.2954311976476 160.15959213737517 C204.27399067147874 159.77470086200688, 149.23340355642958 161.68330779961119, 42.736097445808895 159.4902956320159 M260.8778484963479 161.63223792023163 C179.09922447696957 162.47325356013343, 98.46374600822082 163.03719551341516, 43.277597053358384 160.3269462930534 M43.11059304246678 160.68125341730126 C43.54195114003963 116.21882314898157, 42.08127795376093 76.25644874211434, 45.22591837172463 19.6053075026033 M43.666273611894496 161.88098988751344 C42.9126315016848 110.44890574451833, 44.24518586695801 61.770593100661564, 43.512464402448785 19.13736730867539" stroke="rgb(0, 0, 0)" stroke-width="1" fill="none"/></g><text x="152.5" y="115" class="value">"David is cool"</text><g><path d="M49.562792845295164 24.66842306275557 L109.73931521470725 23.49556689360809 L109.27678162104976 75.52962967733585 L50.558446086814605 73.56395680887522" stroke="none" stroke-width="0" fill="none"/><path d="M49.10220691614394 24.220269398134082 C70.53647993429507 26.233138886116475, 96.27378746186287 26.264683710785313, 110.65507254927952 24.861167955396567 M49.86031030556935 24.805928831424144 C72.44382028589057 25.65006175896452, 94.1642433252894 24.606046790387275, 110.47312287076238 25.365649050739027 M109.78986914217622 24.96702924129216 C111.03740963521531 42.97913163903175, 108.49696534361497 61.99436528494264, 109.69313085667193 74.80401786055472 M109.83018174149603 24.23023519578345 C110.96084576537001 39.831895679889755, 110.89267188157655 53.23391577199502, 110.58062680664881 74.63512606131594 M108.03242993213722 76.7914029579374 C89.37722174815795 73.35139281519315, 68.6290693512258 74.73847040186742, 51.878932017176666 75.423921223816 M110.69069911712002 75.92725243051217 C85.82115453713153 76.22839538973827, 62.994479893721994 75.82631093492222, 50.72613869254931 74.5509003204341 M48.866454875006625 76.64302772141608 C49.794806072454065 65.25444292577879, 49.22236270461563 54.44047238407649, 48.17968108523285 23.33511581666936 M49.74578651101933 74.58957418788832 C49.79846582980797 60.299503836239005, 49.68855561975182 44.051001471175326, 50.106088198825134 25.60590430705304" stroke="rgb(0, 0, 0)" stroke-width="1" fill="none"/></g><g><path d="M195.21251935406235 25.883088340367 L254.24292062701323 23.179043763299386 L255.80583809208142 74.46609396711249 L194.0050719642735 76.75917812635599" stroke="none" stroke-width="0" fill="none"/><path d="M196.11135706005572 23.37001405144396 C213.9263839179605 25.417611503046025, 231.3368456040069 24.964038251823798, 253.57869447443656 26.257532836207872 M194.76400917281808 24.816697867025525 C210.21198769306105 26.15132778755459, 225.7704586393349 25.836170689774114, 254.66686409619314 25.50900414789366 M254.6931996516092 23.27500603456989 C255.9907118347369 46.61303844184749, 254.496403152735 64.77080874736802, 256.50459431019107 76.8838878222895 M254.41335345986474 25.82625656189201 C255.37107127478953 45.11881899446557, 254.6289991423923 64.63668940977693, 255.9550866006195 75.63132416352936 M254.96859226571632 75.24215261708157 C240.55982212482715 75.43145803607065, 226.6444737409682 74.25996145949023, 193.68937860388385 76.35591343223862 M255.4612643363441 74.00390188880755 C241.83647559453544 73.89263471016596, 231.14957345919908 74.34544586395437, 194.1854146955491 74.04262814179593 M196.00338539921688 75.61795544674172 C194.34989960603946 54.767153908564794, 193.14778465340854 36.861053213922155, 194.4889078221201 23.880846595138557 M194.79071628050133 74.78954813398146 C194.80656211162417 64.07576246013824, 194.1675653660224 51.7837000621077, 195.25979811938365 24.6227515539555" stroke="rgb(0, 0, 0)" stroke-width="1" fill="none"/></g><text x="80" y="55" class="id">id43</text><text x="225" y="55" class="type">str</text></g></svg>