<svg width="291" height="225" xmlns="http://www.w3.org/2000/svg"><title>Python memory model diagram showing objects</title><style>
        :root {
        --fade-text-color: rgb(0, 0, 0);
        --hide-text-color: white;

        --highlight-value-text-color: rgb(27, 14, 139);
        --highlight-id-text-color: rgb(150, 100, 28);

        --highlight-box-fill: yellow;
        --highlight-box-line-color: rgb(0, 0, 0);

        --fade-box-fill: rgb(247, 247, 247);
        --fade-box-line-color: gray;

        --hide-box-fill: white;

        --primitive-value-color: rgb(27, 14, 139);
        --id-text-color: rgb(150, 100, 28);
        --default-font-size: 20px;

        --highlight-object-fill: rgba(255, 255, 0, 0.6);
    }

        text {
            font-family: Consolas, Courier;
            font-size: 20px;
        }
        text.default {
            fill: rgb(0, 0, 0);
            text-anchor: middle;
        }
        text.attribute {
            fill: rgb(27, 14, 139);
            text-anchor: start;
        }
        text.variable {
            fill: rgb(0, 0, 0);
            text-anchor: start;
        }
        text.id {
            cursor: auto;
            fill: rgb(150, 100, 28);
            text-anchor: middle;
        }
        text.type {
            fill: rgb(27, 14, 139);
            text-anchor: middle;
        }
        text.value {
            fill: rgb(27, 14, 139);
            text-anchor: middle;
        }
        path {
            stroke: rgb(0, 0, 0);
        }
        .highlighted path {
            fill: var(--highlight-object-fill) !important;
        }
    </style><g role="graphics-object"><title>Tuple id11 with 3 elements</title><desc>Elements: id82, id76, blank</desc><g id="object-0"><path d="M49.01714764299876 24.570745600737858 L264.10540682660223 25.783207804152156 L267.9266101416661 175.47037403185982 L48.666418224468686 175.55313448580884" stroke="none" stroke-width="0" fill="none"/><path d="M50.49200404743934 23.330076883610566 C112.2115995132697 24.607590861122816, 174.49468596231426 25.952599157272346, 267.08886589119953 23.63957145647174 M49.304151549798384 24.165167329518113 C100.78497616138073 24.81277587632926, 152.04684206131762 24.622111311740063, 266.6442532787282 24.291068870436657 M267.8792908485107 23.498042967346557 C265.0424131255137 84.86162293740959, 263.97818312235927 142.5331123047147, 266.00166136516447 173.36166962528188 M265.8102784786333 24.729695677690856 C265.8343112925845 77.92336761085434, 264.86162410775745 132.04452640359864, 265.16429828068203 174.8238662726243 M266.2271372797919 174.0904397907955 C216.16427883963334 177.4114007776528, 165.84658699661057 175.2250010930277, 48.922584399152484 176.54138432137262 M266.5858507583114 174.49954665624517 C221.80606268674111 176.7906800429755, 178.2616031541045 176.15589802427345, 50.520775306719365 174.24567098939113 M51.00208912563918 173.2090606398894 C48.05377189231513 125.1783470547834, 48.56914771157665 76.37974120029052, 51.022732559536365 24.943127395378625 M49.94454025930256 175.86150820005656 C50.31972712722321 145.3301544458936, 51.11113067025131 114.84423676697901, 49.16440875654531 24.770990848130655" stroke="rgb(0, 0, 0)" stroke-width="1" fill="none"/></g><g><path d="M42.75417961440021 18.439076707930674 L273.1209405285837 18.506920806754536 L272.531468402244 182.38005070784376 L42.007154215391886 179.55943345262753" stroke="none" stroke-width="0" fill="none"/><path d="M42.426926991555604 20.51009540166656 C112.3360995227967 21.249040914188818, 179.10529875355277 19.095074404892916, 270.5131739383425 20.259999209653337 M44.53296316014077 19.779171844453657 C123.08205105401113 17.296523874510687, 203.68793645761582 16.893315900400136, 272.081331405064 18.87657005060525 M272.46927243991473 19.510345001858088 C269.60767178023934 61.32078898919986, 269.78691743030174 99.88417621689501, 272.5170597215259 182.0949767011104 M271.6050273053497 19.33606890973528 C274.46035299950876 74.0967237502435, 273.3419582956351 131.1238155688063, 272.5239058523817 180.98602735440303 M271.881485222546 180.73068602851632 C211.50922786324733 182.99514063509162, 153.4507480039229 184.08397278374522, 45.311472680412926 180.76567276762304 M271.9947840376904 180.99496158255403 C211.9685025912861 180.4468030424609, 152.8124632427237 181.09350968463846, 44.32640793920847 181.01005617012788 M45.220552938741434 180.43688732401353 C43.880500544903526 139.94819798356207, 43.66253418239592 100.87351631552677, 44.175713284215966 18.456140737493435 M44.927849003095375 181.52384082321905 C44.075786073833534 136.9592459723781, 44.05729252083841 94.746634539648, 44.10850372526134 19.912174419422296" stroke="rgb(0, 0, 0)" stroke-width="1" fill="none"/></g><g><path d="M73.7423101401821 108.55153641219057 L131.84281169110167 110.43810441104198 L133.75515179648562 161.20710510222617 L73.52662675944987 161.41916046692145" stroke="none" stroke-width="0" fill="none"/><path d="M74.10142103404843 110.60430491525122 C90.96704851652105 111.65149492084859, 109.16842772286086 108.43766989649387, 134.18453929017684 110.56055226506157 M75.84068243931068 109.58424773683423 C97.43372400774369 110.2562881005536, 121.40778509629993 109.75740178870923, 133.71073460824562 110.31709439479418 M134.36487935575798 110.91044986195122 C134.03260442951563 129.67506644453383, 133.59287281260796 145.39453450341492, 131.1227281768415 161.22813262823294 M133.85355830920963 109.09591990036296 C133.11098666293827 120.56814910727937, 133.59575157958318 130.95604817488498, 132.49689262955167 159.00418980092883 M134.91860148050424 159.62094401022327 C110.74439066116132 159.57247230319913, 92.57448341747967 159.837760008663, 76.84911035147334 159.27394240024447 M132.39945610371143 160.44725466424376 C117.73841544983682 160.50986956965298, 102.7273438069465 159.97704902519618, 75.77123745036727 160.89315123074172 M74.78444757787605 160.15442701508596 C75.42077061435202 141.46668282356333, 73.84981444597723 120.3643636692758, 73.34288323881246 109.09413636105653 M74.79477407235096 160.92781890213826 C75.3725323845759 145.31891210294523, 75.96372201640996 131.85366623189407, 75.26670672660528 110.47128971938183" stroke="rgb(0, 0, 0)" stroke-width="1" fill="none"/></g><text x="104" y="140" class="id">id82</text><text x="104" y="97.5" class="id">0</text><g><path d="M132.45136678294983 108.75637011206858 L190.64452983011608 111.3426373241986 L191.75605108717915 161.2655957740596 L132.6168174890727 161.36715907040087" stroke="none" stroke-width="0" fill="none"/><path d="M134.32113836678033 110.42193504830254 C148.8059857296358 108.67438504578206, 166.0555122441487 110.07655061228638, 191.0593597084134 108.45753482010008 M133.83500229043796 109.39715293048003 C147.38740297891562 110.1982100493899, 162.11417557244246 109.66031330363948, 190.13849993327318 109.55469945871172 M189.2796647812365 108.30003468474607 C190.02172778259762 128.47299016712782, 190.6216687348123 144.05931567983217, 190.05185258308552 158.2004250954883 M191.8400100824951 110.43947799932832 C190.34624377811386 123.43012725471439, 190.18269397737504 138.80980079417094, 190.88897747802295 159.87251295612606 M192.090646224984 160.50741276686014 C173.76492951761367 160.63386421253543, 151.89081350889825 162.18521174874962, 133.28384852048075 160.51617992230518 M191.51426762740442 160.7697589461481 C173.76897672237277 159.8124218559983, 158.62377012159538 158.62678846146517, 132.34102508390782 160.76113243245246 M132.40460341425324 160.83458685573876 C132.01895601389748 148.06284318869734, 131.6295426954019 131.79479279093954, 134.80762846583343 111.98944632404778 M132.29740197246477 160.8797791310343 C133.62227444326427 141.41446985006607, 132.6733458823951 122.87206323320642, 133.81154085979938 109.9642114733866" stroke="rgb(0, 0, 0)" stroke-width="1" fill="none"/></g><text x="162" y="140" class="id">id76</text><text x="162" y="97.5" class="id">1</text><g><path d="M189.0510185727911 110.52659858709893 L242.55176222627352 109.34760812830653 L240.52275077273777 158.85357761740005 L190.7251101615667 161.74152646909508" stroke="none" stroke-width="0" fill="none"/><path d="M191.64502212124617 108.14497554553242 C205.35451545232524 109.26744460913363, 222.65578626607922 108.83629639688004, 239.77269208920532 108.87227591031078 M190.8266209149792 110.64044443326854 C203.65704231469144 110.82060542646424, 216.70131010202846 109.39248513934167, 241.10152879058418 110.37399867363841 M241.43944093603434 109.49453235895629 C239.66829811109946 123.06928263747754, 241.37729630156582 134.9586158993777, 241.44249869686442 159.66306013107516 M240.79250625996738 109.74197349033665 C240.3567079928811 127.54562286795235, 240.4213938594868 145.33141258931494, 240.24612232847423 159.45544637365273 M239.92657150597734 161.09783318552053 C228.07424040080213 161.23748799402767, 211.91455443079255 161.46834034977283, 190.44243088109428 158.18520812478823 M241.78716992327907 160.2930820223342 C226.82338639141653 159.27155367396202, 210.60108836086954 160.47084309281917, 191.33944087491108 160.9100485289915 M189.33095568725588 158.39636835966022 C189.1866109433729 149.87036445899366, 190.0215204473107 139.65522880025947, 192.29142137383704 110.75327922679946 M191.61151049242548 160.64238134326357 C191.70527951970354 143.06601197366385, 191.74904876479184 127.1567162292805, 190.669475160619 110.79122694438756" stroke="rgb(0, 0, 0)" stroke-width="1" fill="none"/></g><text x="216" y="140" class="id"></text><text x="216" y="97.5" class="id">2</text><g><path d="M51.672941666720035 23.682696364332692 L110.44921272271094 23.322279758160512 L111.48206202457014 75.26453941050893 L51.549084985746916 74.75759793019296" stroke="none" stroke-width="0" fill="none"/><path d="M49.99669135679936 25.474355245047875 C65.81534354114399 24.58249025906192, 83.25453664417968 24.40293684191324, 111.52692265355874 25.07768302990727 M50.808843977758436 24.80922786454577 C63.867921054012825 25.34131504232878, 77.74926780451887 26.040458537582595, 109.9596380661433 25.72260128423228 M111.71351964205843 25.72518342426817 C110.82157241464185 40.176148087125384, 111.03111748375107 53.6447383064659, 109.51867378617541 75.59730654200305 M109.96960547411092 24.23130833705526 C110.31969308782502 42.6072570739994, 109.60074723505971 60.41861425540007, 109.9727861305687 75.83574020152702 M110.06689943482647 74.07719555763732 C96.78236762663084 74.83802303694024, 85.61365265690067 76.27164410558807, 49.957657430473056 74.44014588568575 M109.64153943717001 75.19228849497614 C96.42250934644174 74.41401543345422, 84.4100170313564 76.07135730172158, 49.297513826778356 75.08062941012393 M51.02871929943377 75.96234562621994 C52.37176659004977 59.90895774458643, 51.386467928830655 48.76425964921317, 48.38287560669007 25.15356417978924 M50.11751789043822 74.12860283514742 C50.76459571569644 62.33161559523507, 49.274252036620766 51.634934747454906, 50.674617814374024 25.586826744412186" stroke="rgb(0, 0, 0)" stroke-width="1" fill="none"/></g><g><path d="M196.32636417393155 23.56805315123943 L266.18786537039324 23.912017617383206 L265.0345835470163 74.9278788623233 L196.11557185313245 74.1920226519996" stroke="none" stroke-width="0" fill="none"/><path d="M195.53775667535334 24.004299621451906 C219.32249139358004 22.762643098250777, 242.20063887064697 24.659981639860398, 266.9092931619257 25.119639257893688 M195.95151118299376 25.421065000790247 C220.75609609331792 24.31464817066579, 243.11866817491708 25.236810485269938, 266.5517620433232 24.521151775416712 M267.8189891541864 23.87467775597998 C266.55859342148125 35.713813826472126, 265.12059685142646 46.975624296338594, 264.7849404165755 74.96712689258278 M265.04081078561154 24.71394049396124 C265.5807988862022 36.195963719670395, 267.4285729340222 47.63863803600503, 265.4528828848589 75.54058582257726 M265.2183008259713 74.11082437639863 C239.823042679601 73.26184242477721, 211.96729562004276 74.32494102084566, 195.61346327056035 76.22362226700173 M266.2198429939147 74.36228136272018 C241.65720664103904 76.13403119908672, 216.42746773040398 75.38963205022652, 195.47459368294543 75.8056996536534 M196.29294565703705 75.97073316228813 C194.6200909566972 61.30692300244139, 194.21995533898007 43.80385435941422, 195.7524954210242 24.846874271194263 M196.3710957688068 75.28255816932233 C197.17903098221916 59.21652606382562, 195.6121000772378 43.916829490962414, 196.36498460322875 24.98362637530905" stroke="rgb(0, 0, 0)" stroke-width="1" fill="none"/></g><text x="80" y="55" class="id">id11</text><text x="231" y="55" class="type">tuple</text></g></svg>