<svg data-theme="dark" width="291" height="205" xmlns="http://www.w3.org/2000/svg"><title>Python memory model diagram showing objects</title><style>
        :root {
        --fade-text-color: rgb(0, 0, 0);
        --hide-text-color: white;

        --highlight-value-text-color: rgb(27, 14, 139);
        --highlight-id-text-color: rgb(150, 100, 28);

        --highlight-box-fill: yellow;
        --highlight-box-line-color: rgb(0, 0, 0);

        --fade-box-fill: rgb(247, 247, 247);
        --fade-box-line-color: gray;

        --hide-box-fill: white;

        --primitive-value-color: rgb(27, 14, 139);
        --id-text-color: rgb(150, 100, 28);
        --default-font-size: 20px;

        --highlight-object-fill: rgba(255, 255, 0, 0.6);
    }

        text {
            font-family: Consolas, Courier;
            font-size: 20px;
        }
        text.default {
            fill: rgb(0, 0, 0);
            text-anchor: middle;
        }
        text.attribute {
            fill: rgb(27, 14, 139);
            text-anchor: start;
        }
        text.variable {
            fill: rgb(0, 0, 0);
            text-anchor: start;
        }
        text.id {
            cursor: auto;
            fill: rgb(150, 100, 28);
            text-anchor: middle;
        }
        text.type {
            fill: rgb(27, 14, 139);
            text-anchor: middle;
        }
        text.value {
            fill: rgb(27, 14, 139);
            text-anchor: middle;
        }
        path {
            stroke: rgb(0, 0, 0);
        }
        .highlighted path {
            fill: var(--highlight-object-fill) !important;
        }
    
        [data-theme="dark"] {
            --highlight-value-text-color: #110875;
            --highlight-id-text-color: #6e4409;

            --fade-text-color: #BBBBBB;
            --hide-text-color: #121212;

            --highlight-box-fill: #EDB926;
            --highlight-box-line-color: #FFFFFF;

            --fade-box-fill: #2C2C2C;
            --fade-box-line-color: #666666;

            --hide-box-fill: #121212;

            --highlight-object-fill: rgba(72, 207, 173, 0.3);
        }
        [data-theme="dark"] text.default,
        [data-theme="dark"] text.variable {
            fill: rgb(224, 224, 224);
        }
        [data-theme="dark"] text.attribute,
        [data-theme="dark"] text.type,
        [data-theme="dark"] text.value {
            fill: rgb(144, 164, 237);
        }
        [data-theme="dark"] text.id {
            fill: rgb(255, 183, 77);
        }
        [data-theme="dark"] path {
            stroke: rgb(204, 204, 204);
        }
</style><g role="graphics-object"><title>Tuple id11 with 3 elements</title><desc>Elements: id82, id76, blank</desc><g id="object-0"><path d="M48.99055228747937 26.990544927524155 L267.9365712328621 25.823060840781974 L267.41722039492987 154.5935459358308 L49.15692518142366 154.49131509759187" stroke="none" stroke-width="0" fill="none"/><path d="M49.044190680337316 24.530757823358016 C123.07812096692983 22.517113622107676, 197.28529733358315 23.73820295334614, 264.2648755421663 25.931085885963935 M50.18434877176807 25.8237797649952 C103.38246074135215 23.04416220959849, 154.70277302074672 22.73679605174014, 266.434980782197 25.525497439917753 M267.8167602283845 26.537672506975774 C264.27623056890053 66.80720666057933, 264.13403016403487 110.39439773107631, 264.4231306536707 153.57104885282368 M266.5173256894744 25.113150046794143 C264.8600904831768 56.93905246704914, 265.5645512224122 89.27604427220847, 265.3777686978564 154.0992696721578 M266.4530968460191 155.0169155992637 C185.9220176788182 153.49540324459326, 106.44385565840979 152.25415449217252, 50.56438019060272 156.5213495085581 M265.384729232631 154.44682127913435 C188.24551405563298 152.8822655502828, 110.7640395759229 152.88487463936863, 50.73215514490632 155.34813687942537 M49.74182195026221 154.6616452224636 C48.60317793773723 123.44865693437163, 48.741568240916955 89.04621626623717, 49.67357019999476 23.369636169943526 M49.390223646084706 155.98757846880625 C49.98203685859424 109.72150696576348, 50.53282050827383 64.00073687658325, 49.094194428106825 25.05168413083865" stroke="rgb(0, 0, 0)" stroke-width="1" fill="none"/></g><g><path d="M51.821511215182966 25.276016150183487 L111.70990254047973 25.990700609302888 L109.65837632150465 75.56798765270626 L49.645104719691425 74.92674337024188" stroke="none" stroke-width="0" fill="none"/><path d="M49.22324773182227 25.562915676589007 C72.27041302709267 26.346590718639614, 93.12254284062858 24.339655192513835, 108.10687839763277 26.179287680962922 M50.88704878802756 24.95481699066158 C68.53464432519743 24.6651401514817, 85.11388407466352 25.198878660772046, 110.80484103355623 24.764753801635926 M110.20845274660674 25.424724124048236 C111.44235237191187 40.70815822318224, 111.43513049056273 58.427193136569635, 110.57200701771244 73.56485621031122 M109.82118685634347 24.71152469796685 C110.14120277715743 35.80471906441315, 110.89692266710946 46.429961937632, 109.79396144688909 74.571970547825 M110.81048981740854 74.04748317980358 C90.29301828201741 74.51941907518177, 73.5953612194253 73.53988681176699, 50.79334730387812 74.2724179068516 M109.30304810249389 75.86275960695319 C89.3923158044378 75.31796358509864, 68.91689604179328 75.41551217694241, 49.60720464507835 75.71012444190929 M51.31670049282972 73.02301792827777 C51.4918691546532 66.12026294811614, 48.9177815059495 54.02198114808421, 51.32277854438121 25.223837481166218 M49.41994761198695 74.51995634622074 C50.839983819651245 58.47274820353253, 50.468456791572265 43.516397714849475, 50.255760338820345 25.433568367957015" stroke="rgb(0, 0, 0)" stroke-width="1" fill="none"/><text x="80" y="55" class="id" aria-describedby="desc-0">id11<title id="desc-0">Object id</title></text></g><g><path d="M197.93905582002944 24.82053248787638 L267.0379291977137 26.215474834934682 L267.78900956705996 76.39003415268397 L197.19171757772338 74.48196377310697" stroke="none" stroke-width="0" fill="none"/><path d="M195.22909975024857 24.096303878652392 C212.15121120450385 24.3080202348084, 227.95327373503872 24.627334603315994, 265.3311445674372 24.70180833164911 M196.69772562224702 24.79935191977403 C211.938389084071 25.77539859063067, 229.1240697397692 25.58292939127313, 265.0410161467908 25.762747110179525 M267.97975952390954 25.78239009943638 C264.9494685622907 45.54478219517089, 266.09138871278856 64.48716528490056, 266.65837257110934 74.6534075642423 M266.61960715757016 24.3446393075487 C265.46739803851443 42.286902921689126, 265.4502352409776 58.726782249616626, 266.9629325951527 75.44887964753349 M264.5449490869461 75.38472172993394 C249.66022824362418 76.07262444843994, 236.87614254242845 76.6157468223431, 195.80994665304 74.05083646299603 M265.33913588430187 74.93475606571977 C246.0404387018651 74.04974626204951, 228.56755272959228 73.97776118011113, 195.24165433688185 74.47465348832735 M195.93093389078825 76.81793633391293 C197.34506083624493 65.84695430538692, 196.5270506672236 53.70036111928326, 196.8557610468292 25.86570050247869 M195.41885231722736 74.83053443751423 C196.5261837844739 60.57994212492229, 196.59541095922404 44.09795783745126, 196.80519728203151 25.63712888557633" stroke="rgb(0, 0, 0)" stroke-width="1" fill="none"/><text x="231" y="55" class="type" aria-describedby="desc-1">tuple<title id="desc-1">Object type</title></text></g><g><path d="M42.47608600606221 19.82673882042113 L272.8398733722375 20.235408213410462 L271.74252466360605 162.40110801392424 L44.2615381005678 161.82920264458" stroke="none" stroke-width="0" fill="none"/><path d="M44.94490820987612 20.199433675673944 C125.47893508371173 17.77008485291205, 205.88088008096275 17.906776862613206, 272.5824788995816 18.887166381282935 M43.84466221123694 18.485736318705776 C114.36103651521235 19.192747200948187, 182.7275354910158 19.211209349716743, 271.47096126870434 19.836034901627098 M273.71462529335616 19.87914221743299 C273.1206559421147 66.88727750777231, 270.76647195921583 114.33890671058914, 272.01510394062365 160.5317445558226 M272.0737500548167 18.46652916807629 C270.2959115651454 69.19644616656056, 270.29308957198356 119.44568399888372, 271.1518956355146 161.61571353572228 M270.998789576957 162.66806219452837 C205.88696479397979 161.53723864423512, 137.44987239969547 163.5419972023265, 43.52779180022255 161.1688438828351 M272.659271613643 161.23460203253626 C193.88844465834507 160.54071794404612, 117.32488844751488 159.67041376423373, 44.743985328490496 161.62606589054664 M43.85034291083272 159.1481592086161 C46.41142816922512 129.95819395863427, 45.74083396384779 98.77768506572129, 44.72932038701466 17.385962213298743 M43.62519608209891 160.81092743518167 C44.82543637898519 129.92060452460845, 44.097377062541504 100.08703551784103, 44.90758480371651 18.64111394800493" stroke="rgb(0, 0, 0)" stroke-width="1" fill="none"/></g><g><path d="M75.14235908940825 91.56661184335098 L131.6732918141076 89.16970850067851 L132.73766758850584 139.10561246270103 L75.19660694410076 139.88941941173988" stroke="none" stroke-width="0" fill="none"/><path d="M73.67302465626292 89.53798386061676 C88.04961657119577 88.39255814406887, 101.71554263003004 88.28997329385741, 134.96591759912317 89.20778736041548 M75.5672884281379 90.2064534593309 C92.51812057297136 89.32372715856131, 109.43122291746144 90.29825081272729, 133.3763444443448 89.9331660366722 M133.56668406852012 89.36386234244604 C133.6288393504351 110.73171479492713, 134.57401179035992 129.76726758653217, 131.71763420869348 141.08108407942265 M133.12406778208106 89.13438593859757 C133.4670982304462 107.8171052399197, 133.6873909724968 124.61060370552248, 133.6593206408531 139.52192180984218 M134.86569311543465 140.6167399210716 C112.15888492773311 140.68200288395735, 92.41569840835271 138.70722533272018, 73.15231342974096 140.08126008956305 M132.82345035769484 139.2292429271229 C121.06698001031839 139.84052975769904, 107.57770978412917 141.05555157841977, 74.58536045684187 139.73509259549542 M76.77859091385017 141.83008281143125 C76.12153814692924 128.18835500681848, 76.49073624554607 118.65725946065095, 74.7344126040582 91.4647068225658 M74.04386040492635 140.48401891650337 C75.49980575643593 129.8578078338143, 74.92680957526562 119.53091625146332, 74.83976192998941 89.53345700053673" stroke="rgb(0, 0, 0)" stroke-width="1" fill="none"/><text x="104" y="120" class="id" aria-describedby="desc-2">id82<title id="desc-2">Element</title></text></g><g><path d="M133.84678829240673 89.20714022632143 L189.7673906282043 88.15332816085159 L191.81100251371134 141.15709182662795 L132.51366095469947 140.70827008695056" stroke="none" stroke-width="0" fill="none"/><path d="M131.49682443580357 88.7413923080735 C153.78249557958307 90.12035823055054, 171.2445391298393 91.60767047114912, 192.15252701732996 89.16218966715701 M133.0254282257599 89.47466459757135 C153.49667903734021 91.18655632655853, 172.5301241026989 90.63512602109547, 190.19932773148852 89.55822176176352 M189.79069750199884 88.35131401824498 C192.5994590387364 99.83032444076144, 189.2469174331877 112.770027253211, 189.05074969596058 140.34652298854186 M190.83085655721138 89.4568597377694 C189.95032107754386 107.31881623899963, 191.67701332871937 123.75321802948126, 191.99948193403856 139.9051567360309 M190.80725919200242 138.8985977672604 C173.64439820151753 138.10203996002855, 160.452861735493 140.8914792000632, 133.4009960327722 140.30139245898815 M191.06387094233207 139.43789915617398 C167.4544632228943 141.05538929459144, 144.7222519500164 141.0072735551413, 133.4848819739824 139.5614025775911 M133.99026357611123 139.2159217558255 C132.86121549523477 126.64823344989942, 132.16239845466077 116.90725455362825, 132.69382086520696 89.48943320347824 M133.732263916236 140.766399591991 C132.60813877120208 127.65242556217656, 134.12269885471875 113.55679650395408, 132.04415056632837 89.88500938468641" stroke="rgb(0, 0, 0)" stroke-width="1" fill="none"/><text x="162" y="120" class="id" aria-describedby="desc-3">id76<title id="desc-3">Element</title></text></g><g><path d="M192.3369277740645 91.71843834990526 L240.8095995406237 91.00690191678422 L240.65129702177313 140.7398276450608 L189.8026346967795 141.66244767305622" stroke="none" stroke-width="0" fill="none"/><path d="M191.7225587390397 91.70140538754293 C203.44072912106148 88.53903393702977, 216.69283332831534 89.37515384744232, 240.8086712096149 88.29935888548044 M190.9380287281786 90.23693896871143 C202.18823572142108 89.59136229564567, 214.04303736884287 89.78889856114984, 240.35188017739978 90.54470855803326 M240.39321423306444 88.63350304019916 C241.4368183345434 105.16881404456267, 241.44279793096365 116.81052188299708, 240.59875473288537 138.3493122132514 M240.59177019900218 89.62120982142551 C240.07474713859665 110.61868892845324, 241.6140194730089 129.69121197705041, 240.4557653820553 139.23659688727474 M239.60215869788718 139.119234406107 C229.13695735091252 139.46348501911217, 212.2004448061013 139.02357712652633, 189.02815249070488 138.6889443471808 M240.26008340447925 139.70839724671902 C221.95670306200566 139.15928884154644, 204.2935200514814 138.9877776126765, 190.99436312365395 140.9095250921913 M189.6690335362664 138.70645697543767 C192.10688177457055 123.33966489576486, 192.75281978267896 104.16516725125904, 189.5748704559709 90.44590894328947 M191.50407802214716 139.59675271940006 C190.45830522801214 125.14063168975156, 192.05184139291435 112.37409774432027, 190.50429106611728 89.65856138057534" stroke="rgb(0, 0, 0)" stroke-width="1" fill="none"/><text x="216" y="120" class="id" aria-label="blank entry" aria-describedby="desc-4"><title id="desc-4">Element</title></text></g></g></svg>