<svg width="291" height="225" xmlns="http://www.w3.org/2000/svg"><title>Python memory model diagram showing objects</title><style>
        :root {
        --fade-text-color: rgb(0, 0, 0);
        --hide-text-color: white;

        --highlight-value-text-color: rgb(27, 14, 139);
        --highlight-id-text-color: rgb(150, 100, 28);

        --highlight-box-fill: yellow;
        --highlight-box-line-color: rgb(0, 0, 0);

        --fade-box-fill: rgb(247, 247, 247);
        --fade-box-line-color: gray;

        --hide-box-fill: white;

        --primitive-value-color: rgb(27, 14, 139);
        --id-text-color: rgb(150, 100, 28);
        --default-font-size: 20px;

        --highlight-object-fill: rgba(255, 255, 0, 0.6);
    }

        text {
            font-family: Consolas, Courier;
            font-size: 20px;
        }
        text.default {
            fill: rgb(0, 0, 0);
            text-anchor: middle;
        }
        text.attribute {
            fill: rgb(27, 14, 139);
            text-anchor: start;
        }
        text.variable {
            fill: rgb(0, 0, 0);
            text-anchor: start;
        }
        text.id {
            cursor: auto;
            fill: rgb(150, 100, 28);
            text-anchor: middle;
        }
        text.type {
            fill: rgb(27, 14, 139);
            text-anchor: middle;
        }
        text.value {
            fill: rgb(27, 14, 139);
            text-anchor: middle;
        }
        path {
            stroke: rgb(0, 0, 0);
        }
        .highlighted path {
            fill: var(--highlight-object-fill) !important;
        }
    </style><g role="graphics-object"><title>Tuple id11 with 3 elements</title><desc>Elements: id82, id76, blank</desc><g id="object-0"><path d="M50.121011952618126 23.608384677642142 L264.4151610056925 25.99322915810052 L266.4500042084574 174.49244284043334 L51.31924633523229 176.89894840565643" stroke="none" stroke-width="0" fill="none"/><path d="M51.1655652366151 24.46298702298267 C116.92553215363785 25.429910025281565, 187.71896548406542 25.869986489777673, 265.55086015542526 25.637348452973796 M50.80689984428231 25.80494519110302 C100.0677928088263 26.84694293328963, 151.55742847405963 26.64934568447942, 265.6938686402295 25.00556335788982 M265.79609811143104 26.498088625527956 C268.38833433347685 75.23274718387556, 267.5501744480225 120.83476394796146, 264.4834421294576 175.57886437622264 M265.480915711531 25.873826542704194 C266.8547170513976 69.12719930083114, 265.32930679049554 115.78614875087841, 265.5453297392429 175.10627676381492 M265.62792867652945 175.03814863146755 C220.23196655376856 171.9892474459368, 178.19206149435786 174.16917304118473, 48.85534245695897 174.86958876202002 M266.0759175858339 174.91207007389013 C209.33001561811014 173.51934834451478, 153.46569880967544 173.37750915774745, 49.225265406011005 175.66786411620052 M48.00821366611008 176.6222552290971 C48.64522833675328 136.7762084441964, 50.731179968852516 103.56032647756219, 51.732033499439346 24.642772895114565 M50.27603660922405 175.14518178598993 C50.49033424479905 131.3256029938277, 50.20508667532197 88.41066760798314, 49.929970631462 25.04623113728548" stroke="rgb(0, 0, 0)" stroke-width="1" fill="none"/></g><g><path d="M49.70597706815174 25.094307545686256 L110.2677900679743 24.67451357097466 L111.04425870042989 74.08647533592385 L51.30004421701786 76.65237879657056" stroke="none" stroke-width="0" fill="none"/><path d="M51.55866438334532 25.329412819919668 C66.90460530457744 26.094756055690013, 80.96326358479982 24.73101384750009, 109.5100411005457 24.568010083316608 M50.64765120340977 25.1651622678644 C69.79469685651645 25.39391108517452, 88.8169793470996 25.96344250311882, 110.58549494366967 25.67915532206955 M110.4317432046473 26.812133239915184 C109.90170467099038 42.86046560109157, 108.08878500729485 64.05628034082689, 111.15177444823169 75.54057865207395 M109.56172922196163 24.55777204274412 C109.37380197675536 37.478663448956205, 110.71381566757691 51.261659858091285, 110.45589420857097 74.3601158625045 M111.76859708010505 73.47302453420082 C90.31703648410979 76.16658807705211, 75.21536109563715 75.25953037820307, 49.92715651123075 73.84681358408606 M110.63134774569328 74.62134377828849 C86.33247948217316 75.30780979548075, 64.57115619162525 75.38564033038769, 49.172646295502666 74.1675710392322 M50.28123575190357 76.40272259576882 C51.61206284318087 65.20656952014683, 50.6193307252257 52.056322864072065, 48.59143294239401 23.219842189108938 M49.99580265666203 74.95595568125627 C49.165456219813954 55.7181246854538, 48.84820207990297 36.46397154480523, 50.97194795023306 25.321544067977417" stroke="rgb(0, 0, 0)" stroke-width="1" fill="none"/><text x="80" y="55" class="id" aria-describedby="desc-0">id11<title id="desc-0">Object id</title></text></g><g><path d="M195.60348871924094 24.113693976982354 L265.01532381984214 26.989791380048185 L265.1315278853945 75.01292477526181 L197.7115946508971 73.45391914309728" stroke="none" stroke-width="0" fill="none"/><path d="M197.94621390393965 26.719463242925727 C215.5002988800298 25.4055903419613, 232.84417496964736 24.743909760089423, 264.4592878085644 23.804565734627612 M195.69722240343617 25.106786987274216 C222.40663387470275 25.423603517929923, 248.69221614532415 23.99176171980902, 265.06520771483014 24.44142511214118 M266.0450021567135 24.704614535057658 C264.69928343987516 45.41945437261376, 265.3768800048076 63.381818508645175, 266.0587687677354 76.03355691287729 M266.00458367305447 25.5124983816748 C265.3374668083138 38.5063998315336, 266.51119542706033 51.48574782931465, 265.7540869018695 74.79491672595282 M265.0335415075496 75.91895072547 C247.04759662178844 74.88865432085677, 224.20243807632565 73.19155931409807, 195.9485989087212 76.1280497099498 M266.37695420201834 75.53196397757517 C250.31212053122897 74.93436474378348, 232.29208001226039 74.73439852568431, 195.60798799833233 74.51243699456086 M195.21637157670708 74.2231073803096 C194.64509720994045 57.59778891739591, 198.16204362760666 38.148761192536696, 194.8775284954528 23.920038888195585 M196.0494815276019 74.5417477198918 C196.68834255492132 64.46465484964551, 196.03259079862895 53.79321240225914, 195.69772255214326 25.3497828684077" stroke="rgb(0, 0, 0)" stroke-width="1" fill="none"/><text x="231" y="55" class="type" aria-describedby="desc-1">tuple<title id="desc-1">Object type</title></text></g><g><path d="M43.915759321490725 19.72471527773836 L270.9764341908158 20.000270039021338 L270.83965482519903 182.99017145279532 L44.857593290512916 181.08575096121706" stroke="none" stroke-width="0" fill="none"/><path d="M43.435314326046814 19.24891390281443 C116.36310822470348 19.347799868745934, 187.63598259833233 19.15447239200429, 270.6516002410476 18.86452279662863 M43.49791360436332 18.52526344623769 C100.91960848174712 18.356186054182714, 156.36405698607675 18.1048692364537, 271.84971962100406 18.537724518131466 M271.2013226332536 20.769336049415504 C273.0803628531069 74.90584480920381, 272.673328769548 128.99333515977153, 271.2838015543057 181.5568001401948 M272.28951614431145 18.459372688470886 C271.7073005942662 54.39771619514714, 271.43001160749714 88.8848935493253, 272.66582452456305 180.17134232510693 M271.6899955186808 182.47995265833853 C218.8647091195049 182.51552634553443, 163.89250613814983 182.5019531336273, 43.382137777900795 179.8299256309104 M272.2282190979523 181.00798809155182 C204.39369162429557 181.04553916681164, 138.03035129120317 180.70991630607475, 44.16496904490221 181.47849622320072 M42.73347985510002 181.60458616667466 C45.35792149870932 145.2875855474654, 44.01510525434591 108.5497356902402, 44.3054406997715 17.450640043243414 M44.191101045933245 180.87676601510532 C44.447390513016465 120.84407051812457, 43.39672331523372 58.24137888673764, 44.565476780876956 19.600698049073756" stroke="rgb(0, 0, 0)" stroke-width="1" fill="none"/></g><text x="104" y="97.5" class="id" aria-describedby="desc-2">0<title id="desc-2">Index</title></text><g><path d="M75.78140054214293 111.52735753980164 L131.12420908397638 110.9857451192016 L134.30506249402973 158.0761453664159 L74.29830718842756 158.29406369682138" stroke="none" stroke-width="0" fill="none"/><path d="M73.94389381628193 111.7567627626303 C91.73427929955393 111.47979265874045, 107.37328858116959 111.49635020381923, 131.38804238970258 109.29495359433147 M74.55757068468884 110.24674071334285 C94.28398739681285 109.21375881698711, 113.97823375048421 109.99700254420233, 133.97773214321458 110.34597902876412 M134.29125212593277 108.93000063834754 C134.16489255316137 125.82357982469406, 133.30994704451408 144.68239047523934, 131.75703574675182 158.0988123837869 M132.78041687957207 109.63612896921504 C133.24887839639945 124.56109339211862, 132.92582473563007 138.5169377315467, 133.53120973642498 160.85250035834667 M134.6788889547812 161.3344070148103 C116.83040339124706 159.66161925072763, 96.29670358871992 158.74527734830545, 74.08111150337282 159.59915451182525 M133.7860402112816 160.64234102331753 C114.70352464356125 159.7507938992853, 95.33247370746072 160.28482388643488, 74.65421029472382 159.1662045741965 M76.61616737229218 161.8080600390058 C75.08145463058642 142.69378538879275, 76.54108904153445 122.32292679610774, 73.88272371358931 109.0955951035063 M74.67520847778437 159.18921577536767 C74.69547896021822 140.70169429352097, 75.32711632227335 120.49044795300415, 75.49332577920732 110.44206764729533" stroke="rgb(0, 0, 0)" stroke-width="1" fill="none"/><text x="104" y="140" class="id" aria-describedby="desc-3">id82<title id="desc-3">Element</title></text></g><text x="162" y="97.5" class="id" aria-describedby="desc-4">1<title id="desc-4">Index</title></text><g><path d="M133.89425443512613 110.87420015870342 L192.58430620222364 109.44988014989484 L190.29048772756207 159.25473564502403 L132.19942870382326 161.06817524287965" stroke="none" stroke-width="0" fill="none"/><path d="M133.85554325374548 109.73874300099591 C149.26970568685812 109.74571691918551, 165.07975288382139 108.04687297552579, 190.9034751089486 111.64416865369327 M133.22269142645348 109.80713496743851 C143.98037002259835 110.62541831561053, 157.38932277627595 109.60654525612807, 190.60651582595364 110.78550671286663 M191.91010476366216 110.32157994691063 C190.62196615557576 122.52816927180598, 191.1157346157828 137.03631680534608, 191.2139398181649 158.32358797920247 M191.29994927972044 110.50771011789135 C190.13180942699356 128.16573183608276, 190.2562123964047 147.37985933801176, 190.10714193171592 159.90919111573052 M189.2873734504783 161.0634137983028 C171.00250570122384 160.05689209107587, 150.66273564667495 160.3727264261621, 134.51376106070356 160.05297754426044 M190.23302426570618 160.64627770081145 C173.28090176940987 160.04504846171557, 153.85987280970406 161.33692750123342, 132.09418723523044 159.7839261347642 M132.18107818518982 159.0459250562495 C133.3589964529835 141.60815820660332, 133.70278570048336 124.79932778923414, 134.30990737036214 108.05482296739936 M132.48403051041083 159.84048157418465 C133.87973027104903 141.16406129690736, 133.99575335482044 121.21483869239104, 132.63814520029385 110.146019817903" stroke="rgb(0, 0, 0)" stroke-width="1" fill="none"/><text x="162" y="140" class="id" aria-describedby="desc-5">id76<title id="desc-5">Element</title></text></g><text x="216" y="97.5" class="id" aria-describedby="desc-6">2<title id="desc-6">Index</title></text><g><path d="M189.62693940518957 111.32600113695909 L242.0391751495432 108.62015924215896 L242.210459784206 158.2788438705064 L190.6471375036809 161.88826870996473" stroke="none" stroke-width="0" fill="none"/><path d="M189.05572844057642 111.82376317122196 C202.72012643156907 110.09241654594108, 217.03216064861442 109.47437933339258, 241.69344196325318 109.83700683543356 M191.9671936940122 109.45653979141557 C210.08360354720529 109.41084841891134, 228.57560425595517 109.08303236432846, 240.88768539687135 109.83368136986424 M239.67088908077574 108.48569948127182 C240.37564399781508 129.6003052349439, 239.89700983452278 146.6087392139756, 241.1730975818594 160.3323856737734 M240.6450593185741 110.41492393456542 C240.57749816839413 124.4566273314559, 241.4745191157567 138.11465520980877, 240.78244093072905 160.69368605247675 M239.02295140826527 158.3545864951441 C222.4208343733611 159.92352318696837, 206.13480504109117 161.47231568189895, 189.5627013101893 158.3180546655699 M241.4584724186593 160.0597464640681 C223.0872219799448 160.75161639954362, 205.58250801431973 160.7602891890321, 190.38661105110546 159.1203097804652 M189.88186045316715 161.88675377933546 C191.7994335473071 147.3758364074438, 190.46258548502271 133.69877317864177, 190.0506109852773 110.79229743787215 M190.96076173573172 160.43178361734954 C191.3023789643797 144.95228802186975, 190.23870967547552 130.73255267737693, 190.0102821981458 109.15200031210318" stroke="rgb(0, 0, 0)" stroke-width="1" fill="none"/><text x="216" y="140" class="id" aria-label="blank entry" aria-describedby="desc-7"><title id="desc-7">Element</title></text></g></g></svg>