<svg width="291" height="205" xmlns="http://www.w3.org/2000/svg"><title>Python memory model diagram showing objects</title><style>
        :root {
        --fade-text-color: rgb(0, 0, 0);
        --hide-text-color: white;

        --highlight-value-text-color: rgb(27, 14, 139);
        --highlight-id-text-color: rgb(150, 100, 28);

        --highlight-box-fill: yellow;
        --highlight-box-line-color: rgb(0, 0, 0);

        --fade-box-fill: rgb(247, 247, 247);
        --fade-box-line-color: gray;

        --hide-box-fill: white;

        --primitive-value-color: rgb(27, 14, 139);
        --id-text-color: rgb(150, 100, 28);
        --default-font-size: 20px;

        --highlight-object-fill: rgba(255, 255, 0, 0.6);
    }

        text {
            font-family: Consolas, Courier;
            font-size: 20px;
        }
        text.default {
            fill: rgb(0, 0, 0);
            text-anchor: middle;
        }
        text.attribute {
            fill: rgb(27, 14, 139);
            text-anchor: start;
        }
        text.variable {
            fill: rgb(0, 0, 0);
            text-anchor: start;
        }
        text.id {
            cursor: auto;
            fill: rgb(150, 100, 28);
            text-anchor: middle;
        }
        text.type {
            fill: rgb(27, 14, 139);
            text-anchor: middle;
        }
        text.value {
            fill: rgb(27, 14, 139);
            text-anchor: middle;
        }
        path {
            stroke: rgb(0, 0, 0);
        }
        .highlighted path {
            fill: var(--highlight-object-fill) !important;
        }
    </style><g><title>Group of 1 objects</title><g role="graphics-object"><title>Tuple id11 with 3 elements</title><desc>Elements: id82, id76, blank</desc><g id="object-0"><path d="M51.228071043116906 24.88367331120425 L264.15057742541813 26.419472537858788 L266.0410191153336 156.2329099599701 L49.13125468069977 154.07319820333583" stroke="none" stroke-width="0" fill="none"/><path d="M51.39722015958037 24.701745140039936 C110.09518542775199 26.70371210544009, 172.01549160118 26.242829867795262, 267.2770869096396 23.392746594755405 M50.323570610532244 24.863703574853226 C94.0902047811399 23.747476064172023, 137.67453194940376 24.31841276736465, 266.6791489882201 25.66095992225497 M266.0571511021933 23.92065885006583 C266.48677781112025 64.53608855810167, 264.317415812508 109.2607761865931, 265.39964575209063 154.19770714369838 M265.8131919362175 24.16178338597359 C267.0576390002949 73.76829127655779, 265.82436095996997 123.71848196679184, 265.342341678402 154.80744177077594 M265.42708458289655 153.25482477180586 C208.8090207048499 155.64125430519167, 152.90099373118017 154.29357399939676, 49.81073740956276 155.57579551496332 M265.7796165381645 154.3554452900677 C187.1403974028618 154.63662776140825, 108.76597789810795 153.83380313885363, 50.23638332732584 154.96895669078245 M51.944544153119274 156.13246551343528 C51.2591591991533 114.85869550601181, 48.83363249724807 71.61410388451175, 49.08289156932339 23.18324479776107 M50.86434449655844 155.88388278207427 C50.80503258688147 113.98169687251307, 50.01804675733293 74.48309018370203, 50.21955849261355 25.92510189515567" stroke="rgb(0, 0, 0)" stroke-width="1" fill="none"/></g><g><path d="M49.676347590413336 26.4364816050821 L108.87743832265359 23.841846388125244 L108.1614890239647 76.2221421925539 L48.88547324535966 75.80476344584355" stroke="none" stroke-width="0" fill="none"/><path d="M50.69031496231044 26.04123724202479 C68.3948076098367 26.617660803861803, 87.93715719109782 25.713109512256427, 111.12868019776477 26.576137825503704 M49.304424143566415 25.953160996975193 C72.34978822699108 26.13924087842034, 94.60621636683842 24.84446410963728, 110.49655490687634 24.73026200014877 M109.4524150969588 24.18541029931305 C109.72432919486076 34.698956247230456, 109.28299690747333 48.557702743674426, 108.78024466904913 73.84638734999768 M109.87539405671507 24.89362169222854 C109.3422044106926 35.88173702265371, 110.88767538465116 45.68524640043594, 110.55590144272618 75.39952512031226 M109.69341955857448 74.8014644873204 C96.34368891473916 73.90543973575487, 84.40475681463603 74.13742040755363, 49.18508590226815 76.04498516983962 M109.49168815866948 75.58662121039627 C85.91160752594327 75.11765537255859, 63.57223332876505 75.07161080993342, 50.763427690221825 75.84719744508938 M50.497576293496294 75.05944265952297 C49.19460837024426 60.43609004759088, 49.341952193574855 41.67822452747758, 48.2339845524413 26.623515904509116 M49.65893686346268 74.660563166971 C50.37092455864267 64.08811584921705, 50.16199932435698 52.03563276788637, 49.35334861338275 25.91998624734944" stroke="rgb(0, 0, 0)" stroke-width="1" fill="none"/><text x="80" y="55" class="id" aria-describedby="desc-0">id11<title id="desc-0">Object id</title></text></g><g><path d="M196.6785840005442 25.985652977095953 L265.06775727902425 24.716046136928412 L266.568041112036 74.75783573284205 L194.51676843647493 76.90142567480527" stroke="none" stroke-width="0" fill="none"/><path d="M197.12423475252416 24.969039978278545 C212.60149395102678 24.325511842802577, 229.5151698757619 24.51480892987637, 266.2229251740246 24.987963961020036 M196.03521772450236 24.34588874045585 C222.46115579772695 24.531691844255352, 247.06802397812245 26.35754662701067, 266.9715702787147 25.34725490729074 M267.6485228535498 24.81438633628342 C264.125059797435 39.895942084579104, 264.6819061452407 56.31559192399504, 265.27797329368 74.24422133432275 M265.27347104949934 25.386001780415697 C266.22969247434787 42.13457581782068, 266.3544304682804 61.779556422807055, 266.8185123735598 75.00943462644426 M267.69722211579005 73.19601821455842 C246.8280226676826 75.95814595629842, 231.38467847154027 75.28394826149287, 194.74507150532276 73.08656149826707 M266.76297299258346 74.26152193947722 C243.8640128290822 75.64320318763708, 222.05100009509422 75.41819116302287, 196.6179193781284 75.93304387936897 M197.2072874394689 76.64565734568374 C197.83763010060724 61.149907401115065, 196.02619582252137 49.0789019405752, 197.0357852641548 25.396662155502117 M195.6254082658622 75.34931244806333 C196.63030527223282 59.6991518742923, 195.86906183001284 45.9993847039198, 195.81700371454747 24.068478974016962" stroke="rgb(0, 0, 0)" stroke-width="1" fill="none"/><text x="231" y="55" class="type" aria-describedby="desc-1">tuple<title id="desc-1">Object type</title></text></g><g><path d="M42.90208349942019 20.851609486159006 L271.8667372321034 18.653682187534038 L273.1340364631719 160.48964261653592 L45.55677197198512 161.32214076893982" stroke="none" stroke-width="0" fill="none"/><path d="M45.20890949068543 19.72675912076611 C91.65053637681882 21.942940578973896, 142.03655354201905 22.107986481421623, 270.8706396324825 20.05194540911975 M44.6003021112557 18.204677006688165 C124.83705138731095 17.362638401808603, 205.05526127149653 17.89405456653948, 272.8287148132353 18.64226414207161 M272.92886049468495 18.81526990519232 C272.56444933501456 66.0770335174043, 272.2149565148261 110.75004385525602, 271.69645455799156 161.3626749912054 M272.7844409917978 18.172975610650067 C272.3087128471229 54.91499214581063, 272.0722178469721 88.88862292473398, 272.40903279955637 161.74734554931936 M271.70072120516966 162.39133596914746 C202.00533295724065 162.75543818384676, 134.91790094714165 164.33964060696468, 44.144620918874814 161.9484714682574 M272.357904454922 160.3029243020055 C200.14594058511622 160.43365171907922, 128.6941916038313 161.30936432138884, 44.755047997069326 161.71921047827905 M43.006406156812005 160.01247693429062 C41.22141048458789 127.07758196311342, 44.23577659471721 91.68159478545499, 42.99568712847964 18.444342981266416 M43.9613403802235 161.32180858491972 C43.902553918025525 116.60945394782398, 43.65130134441885 71.7417213756365, 43.56276936337606 18.552605088631882" stroke="rgb(0, 0, 0)" stroke-width="1" fill="none"/></g><g><path d="M75.1256737540508 89.6307076333407 L131.8217381625555 90.49733198270224 L134.0584094095956 139.70497617398203 L73.34205471589486 138.01037715433876" stroke="none" stroke-width="0" fill="none"/><path d="M73.7997898689478 90.74682813404543 C92.8118178049933 88.31204032189669, 112.41988646258353 90.88158526281961, 133.19131016694712 91.79726542514274 M75.19957644908406 89.48987339328117 C87.4962484887847 90.4521523705467, 102.13128013455955 90.99225133350707, 133.64778985708872 89.83612570751855 M132.49165066435637 91.0691942882676 C132.89009816353408 99.82201529241011, 133.28255564236088 111.03864671253072, 132.28704629175132 139.55554460732355 M132.92201834968805 89.09058762842963 C133.2435540714176 102.84356076531901, 132.74536043009374 114.25842434595444, 133.2527199780883 139.17527318044748 M133.94029252345402 140.72044552848476 C114.34717750579543 139.8701486776931, 93.92275412324028 140.42533798172593, 76.6868202543092 138.65728581643614 M132.9392299133983 140.7251760732977 C110.2434360803342 140.4819120773133, 89.57755536128276 140.18134319175414, 75.91522325970199 140.67968721525938 M76.05690151722283 140.56512658034362 C73.96627814434028 126.43475639367449, 76.35636611081901 115.67076039218776, 76.78521050872517 90.59611535824267 M75.56894471354774 139.6326539459099 C74.6411957369872 126.83648324498584, 75.06490056365597 115.96847391620287, 74.69529513959061 89.29711858797967" stroke="rgb(0, 0, 0)" stroke-width="1" fill="none"/><text x="104" y="120" class="id" aria-describedby="desc-2">id82<title id="desc-2">Element</title></text></g><g><path d="M131.3273956733826 88.32301443837214 L192.95263814297726 88.30900715957208 L190.42265114969635 141.2229488018101 L133.19540743862834 141.7125814843424" stroke="none" stroke-width="0" fill="none"/><path d="M132.82140674395055 88.47307373573335 C148.76719624418178 91.43916914264946, 165.61386404058302 89.9252665780645, 191.72793274468341 90.8104565284916 M132.70763337721868 90.05656605448533 C154.81693062065787 89.12147506343774, 178.27837993724543 88.96031653353862, 190.33239259016455 90.15244783441798 M191.54028385499487 91.66323395774809 C192.54850068777125 102.67906984513661, 189.54902923512398 115.95664472509534, 190.53650879399507 140.42121300042837 M191.04508179435362 89.20526954035947 C189.69598769610414 103.98177283659483, 190.099765492857 120.2662496309059, 191.1742038990905 139.79407649273614 M190.58580479459022 138.15115767501675 C167.6951505497013 142.1001249338154, 149.3064588784194 142.20093594932217, 134.12356799531855 140.99215916426303 M190.1193129372419 139.5523665476904 C171.7431612286657 139.2275493870203, 152.56681021884015 139.15025594076448, 132.05642584646645 140.3137144339671 M134.8977332035457 139.0439524377975 C134.90968241074714 120.92547240083374, 133.25970322954493 101.8963001065148, 131.1256655198781 91.93842115416605 M133.19902041658318 140.88421863833426 C134.11356140636542 123.76081961866225, 134.41338299139676 105.84517137461798, 132.07380816388294 89.75214445498963" stroke="rgb(0, 0, 0)" stroke-width="1" fill="none"/><text x="162" y="120" class="id" aria-describedby="desc-3">id76<title id="desc-3">Element</title></text></g><g><path d="M189.60217490463708 88.46535204438041 L240.98496402110231 89.04227501239365 L242.30909964155092 140.455038570595 L192.4893853990735 138.53135651405918" stroke="none" stroke-width="0" fill="none"/><path d="M192.7582279584315 88.29582714670374 C206.43815172441802 89.30931409901567, 222.6014919791528 91.76894843193192, 242.2031588965798 90.7767894360667 M191.89725451634692 89.44590915828404 C203.98656760371992 89.35109266730366, 219.2053692156566 91.01202783541618, 241.6652820019402 89.43482734044288 M240.10900409798273 91.15547579820046 C241.59984690168633 104.15656692198625, 241.06592490755241 114.88056504166104, 240.09141529341787 139.23613074257645 M240.42424305767048 89.83100156983826 C239.91748408551967 102.65122787298422, 240.51001271285187 113.88543585060084, 241.32944670949294 139.45666143503183 M240.70159882911733 140.91560981765767 C223.4398244271422 139.4521857208419, 202.81858025425782 139.0829775679798, 190.68382527766988 138.02540169288488 M241.33508799308228 139.64903080878418 C231.28965237428534 140.25442178834896, 220.3885614446632 139.69389813268324, 191.47843412610868 139.11753746952186 M190.61827433524516 141.70730267933263 C191.08386607865378 120.96608309932898, 192.2438055476662 104.39882611126863, 191.33798354140973 90.85277354638755 M191.58929608841012 139.55742710419239 C191.79207199481243 125.95512337738501, 191.44809389777072 110.72958563775683, 191.33995983039122 90.52507337556706" stroke="rgb(0, 0, 0)" stroke-width="1" fill="none"/><text x="216" y="120" class="id" aria-label="blank entry" aria-describedby="desc-4"><title id="desc-4">Element</title></text></g></g></g></svg>