<svg width="266" height="225" xmlns="http://www.w3.org/2000/svg"><title>Python memory model diagram showing objects</title><style>
        :root {
        --fade-text-color: rgb(0, 0, 0);
        --hide-text-color: white;

        --highlight-value-text-color: rgb(27, 14, 139);
        --highlight-id-text-color: rgb(150, 100, 28);

        --highlight-box-fill: yellow;
        --highlight-box-line-color: rgb(0, 0, 0);

        --fade-box-fill: rgb(247, 247, 247);
        --fade-box-line-color: gray;

        --hide-box-fill: white;

        --primitive-value-color: rgb(27, 14, 139);
        --id-text-color: rgb(150, 100, 28);
        --default-font-size: 20px;

        --highlight-object-fill: rgba(255, 255, 0, 0.6);
    }

        text {
            font-family: Consolas, Courier;
            font-size: 20px;
        }
        text.default {
            fill: rgb(0, 0, 0);
            text-anchor: middle;
        }
        text.attribute {
            fill: rgb(27, 14, 139);
            text-anchor: start;
        }
        text.variable {
            fill: rgb(0, 0, 0);
            text-anchor: start;
        }
        text.id {
            cursor: auto;
            fill: rgb(150, 100, 28);
            text-anchor: middle;
        }
        text.type {
            fill: rgb(27, 14, 139);
            text-anchor: middle;
        }
        text.value {
            fill: rgb(27, 14, 139);
            text-anchor: middle;
        }
        path {
            stroke: rgb(0, 0, 0);
        }
        .highlighted path {
            fill: var(--highlight-object-fill) !important;
        }
    </style><g><title>Group of 1 objects</title><g role="graphics-object"><title>Tuple id11 with 3 elements</title><desc>Elements: id82, id76, blank</desc><g id="object-0"><path d="M26.910237530541323 26.49066146949603 L239.59893656419635 26.848634271667827 L239.9613728178935 176.78392897916382 L23.910071830398 175.9804651563385" stroke="none" stroke-width="0" fill="none"/><path d="M26.589860891834793 26.286129014618624 C106.14993741345114 25.17197965868723, 188.76116652774402 23.84199222692559, 239.29610664113383 24.351784830549228 M25.368835574289374 25.097213854967663 C97.47887363823554 26.162152210994474, 169.43311324102763 25.713090669915513, 241.44850769404545 24.56876858334622 M239.42158104404848 25.648001305365 C240.66527632065112 56.98621092355275, 239.69848012837855 88.42279777759148, 240.54229396292752 174.5283860032691 M241.72094864396857 25.159276049832506 C241.69232993538597 81.20107608307319, 241.82953849961922 135.9129130630657, 241.5655773866952 175.6027041315588 M242.3648085020402 176.4297007456159 C178.33990896253164 175.72015399200555, 114.36019196666585 175.7966489235577, 25.55737912338376 174.58278742246608 M240.89885455597454 174.4001593017659 C159.42506388826192 172.86616341053372, 79.01087834691474 173.3200216124396, 25.637456440151702 174.5497379012998 M25.47378443283606 174.73560981569435 C24.360232082825753 131.4656744644402, 25.521396219429178 86.07882293657347, 26.31687272714004 25.48907117083195 M24.26310081009068 174.35689913485604 C24.96595746023633 118.46270486914602, 24.862688815399387 61.69592356965492, 24.03767683261593 25.091644544950025" stroke="rgb(0, 0, 0)" stroke-width="1" fill="none"/></g><g><path d="M26.2274344325242 25.400197284627847 L84.0723424324821 25.292853503516344 L86.75257928335827 74.05652529195106 L23.416530924124984 75.10837787362038" stroke="none" stroke-width="0" fill="none"/><path d="M26.45909366569499 26.404477755696913 C44.06016102961453 24.883544641398732, 61.02036863845865 23.288372026449153, 86.03898255905412 25.853426189174243 M25.654094091978376 25.359407023915153 C39.37456702735533 25.43065121653738, 54.1091048809885 24.855867771388063, 84.62079008811673 24.94477368541024 M84.67054792316412 23.6982825598977 C86.10996632630074 35.7266927322669, 85.88629100911885 51.14293982355055, 83.96817226326682 75.82301563831473 M84.34268302456212 25.460547396763182 C85.43251165314365 40.66461174068086, 84.24886824835033 57.777567145619706, 85.39918194637869 75.8137532493678 M85.78740821253194 74.47877855769337 C65.11242370380933 73.48974569729664, 45.82006431052241 74.57723437456893, 23.04071703030779 74.53878689430088 M84.69494785384559 74.14461038339827 C68.56932909607362 74.8495385567607, 53.484993320553244 75.71621522268774, 24.333934507813673 74.21097587733648 M24.243261386616087 73.40935371691104 C24.05813390477987 56.88283013328841, 24.247593179738296 42.87596650997375, 24.182693753730018 23.388724281113205 M24.919962638851942 74.72733680875061 C26.30235848813943 59.08204903629018, 26.244601606003833 41.397866464889425, 25.027495659027483 25.736297872049786" stroke="rgb(0, 0, 0)" stroke-width="1" fill="none"/><text x="55" y="55" class="id" aria-describedby="desc-0">id11<title id="desc-0">Object id</title></text></g><g><path d="M172.62960866845816 24.25678771065523 L240.14018628161386 24.212426820883156 L242.6216072489679 75.38713703041503 L172.55489092423412 73.43586367485483" stroke="none" stroke-width="0" fill="none"/><path d="M172.39481976732816 24.16929713504385 C191.74289834062367 24.414355190776703, 212.13022233787984 24.335392230943157, 239.89802426006307 24.99894593989913 M171.59513145094522 25.68539497192192 C190.2444268622942 24.761591993278813, 209.6626759829997 24.51491629688702, 241.91210422755128 25.68076141320502 M242.55660510038504 25.283962590206535 C242.10626415721555 45.824371582662415, 240.42469968786443 63.852096665950754, 242.79765658691608 76.41850931557094 M240.45410926353867 25.808645232608782 C241.22978719865193 39.31669733510365, 240.26715777054608 54.36759043466021, 240.08030866376998 75.7130096178803 M239.00202001652482 76.80609755665678 C225.56492726347358 74.46355934472533, 207.49685711210634 75.60828182866102, 170.8485936139069 75.60417047330196 M240.30906972037917 74.52505047183163 C222.00178359250236 73.69132219328644, 201.93880636837318 73.69261687369571, 170.68780527737798 75.64337931224468 M169.31891443560403 73.9639440148298 C169.9981258801249 58.21203425686978, 173.20951316635367 39.039159040825595, 170.94129590016914 25.283156367149495 M170.47302009968408 75.3033701659916 C171.48068209986855 63.83503280818386, 171.17160760644043 53.47278975343577, 171.1879323506805 24.783572749941353" stroke="rgb(0, 0, 0)" stroke-width="1" fill="none"/><text x="206" y="55" class="type" aria-describedby="desc-1">tuple<title id="desc-1">Object type</title></text></g><g><path d="M17.510553606112666 17.843052435619853 L247.63436209737173 17.677652698381927 L245.38276033796635 179.09818897659125 L20.29762830815002 182.5947867395915" stroke="none" stroke-width="0" fill="none"/><path d="M19.6771945875794 18.58437853611509 C75.55246302693263 17.402215965421053, 129.02753942225473 18.416104547145412, 248.5571549313194 19.24713283198219 M19.54920940871486 18.356163530168566 C97.45656873283158 19.09762724135513, 176.75554304238904 19.47249470210058, 246.7758050751768 19.697225267081816 M247.03880234122298 18.30331822595082 C247.1956512249937 55.64818316786964, 245.3375541275732 90.51872697103667, 246.65874229567436 182.26165471040215 M247.26851776712857 19.065205924654933 C248.7859629884765 62.41168939702007, 247.68100351661337 104.9897613602224, 246.77557955355917 180.9105861986726 M246.83541402774887 179.44537169442654 C191.09907115835884 179.96184126957402, 134.47320293166447 178.39240783273908, 17.310034753440934 179.53289178937277 M246.39227831531468 181.77877035958508 C166.66562182111662 181.9956560905435, 87.06433842435263 181.04334486016631, 19.35523045060615 181.1373322672246 M18.480661549627964 180.9775443210218 C19.20613859314488 144.96182234921497, 21.542782668953656 106.49138424732486, 18.46264442502412 19.34023184338465 M18.80989710843244 181.76075908312703 C19.277101462568968 132.5776238362967, 18.11644951227501 83.47133839246133, 19.313909576616282 18.09869195607989" stroke="rgb(0, 0, 0)" stroke-width="1" fill="none"/></g><text x="79" y="97.5" class="id" aria-describedby="desc-2">0<title id="desc-2">Index</title></text><g><path d="M49.627183304709966 111.96981208452122 L109.43123402757733 111.85188904973243 L106.7154741302824 160.16030088262957 L51.45946907053922 159.59860620166063" stroke="none" stroke-width="0" fill="none"/><path d="M51.21598809168136 111.34596923560397 C73.33305720182844 112.1720372346327, 94.85362018235904 110.69739093021177, 106.91806581724575 108.17465626438327 M50.21607920072755 109.96766533343894 C67.51450413492537 109.51269303063847, 85.4264772752079 109.80793098770407, 107.23251688758025 109.24028525094528 M106.25458990944088 111.72162462892673 C109.06500204417668 124.48817723112984, 107.46466055820976 144.04604327881003, 107.87953941954748 161.3686515297699 M107.6083913402508 109.6705701458668 C107.618938702798 121.76770975674138, 108.04242160560358 133.8827487859173, 108.49362841134212 159.17537000260285 M107.29516090481935 158.81801598437363 C89.78931198771734 160.06385499988087, 73.49367613650381 160.386031515684, 51.058964321975175 160.95628355444836 M107.21136755422995 160.32529325648815 C94.61778784733269 160.0376073117809, 81.61073678238216 159.9835366428465, 50.16681441529508 159.23384354939802 M49.1630472480303 160.2019532261026 C49.845602775147604 141.78669776042398, 50.44982190388942 121.81292556265605, 48.27798633049127 110.81880310673026 M50.4465523026975 159.2855782788853 C50.40608263231416 143.07829177296676, 49.72932516261196 127.01233033365752, 49.22321207398716 110.5975314897063" stroke="rgb(0, 0, 0)" stroke-width="1" fill="none"/><text x="79" y="140" class="id" aria-describedby="desc-3">id82<title id="desc-3">Element</title></text></g><text x="137" y="97.5" class="id" aria-describedby="desc-4">1<title id="desc-4">Index</title></text><g><path d="M108.27700501487044 108.21523061189652 L165.5018305711098 110.85341685129958 L164.9931549598418 159.98559139297916 L108.68945642697581 159.62439761454633" stroke="none" stroke-width="0" fill="none"/><path d="M109.94814465518186 110.65271815156675 C123.45323542821448 111.5416355406758, 139.7319717727087 108.5945727813725, 165.46735449624575 111.52713471571437 M107.57248069848465 109.1537277187724 C125.64150128499875 109.1473236268044, 141.9544585755543 110.34693669163501, 165.98626921348915 110.41424309916052 M164.74416236286484 108.2857232656267 C164.8316928693001 122.2987092332188, 164.40534259806688 131.99265577787392, 166.8170144326406 158.9150758682246 M165.3550841601366 109.56090285398591 C166.3421997902597 126.99891106134616, 167.01684965174562 143.25546098224433, 165.30611329860847 159.18282670584662 M167.58010143700386 160.30727144066628 C147.32864136309806 158.98032721126185, 130.95263915753785 159.19859444618936, 109.43082792580459 160.30998280046464 M165.8107109401893 159.97778935651831 C153.40390518899096 160.5274104297733, 141.6232430598458 161.14335516156592, 108.46897580778136 159.39423333006397 M108.90729002868584 160.1168639627907 C107.51550031670432 146.5710360206189, 107.54880636169418 137.72138908602588, 106.37189327898363 109.12930943206315 M108.95081997248911 159.41445965180134 C108.13469981164044 143.43725554112166, 107.7153089234093 127.68512066540222, 108.73309461219166 110.64533112626171" stroke="rgb(0, 0, 0)" stroke-width="1" fill="none"/><text x="137" y="140" class="id" aria-describedby="desc-5">id76<title id="desc-5">Element</title></text></g><text x="191" y="97.5" class="id" aria-describedby="desc-6">2<title id="desc-6">Index</title></text><g><path d="M167.90760118078865 111.35035254169725 L214.85770421218126 111.30936679852559 L217.62364149607149 158.0055986428539 L165.91158276404283 160.03169201323107" stroke="none" stroke-width="0" fill="none"/><path d="M164.55802355700104 110.41269385674735 C179.25319858420357 109.7576644390808, 191.59181088870886 111.54118582526216, 217.44808863332148 109.33786835783576 M166.80729397493377 109.84712560557563 C182.24451267980706 109.99324441753433, 199.13124462466692 109.34223937224208, 216.83435339188006 110.96939904931006 M214.00685184733354 111.52502141966396 C215.95422822227462 123.880025761223, 217.23408233060272 140.53451292821583, 217.43059432585974 158.620278377114 M215.6405562846434 109.395415459665 C215.40684845897624 125.35742408659164, 215.90836989121405 140.85407780619497, 216.1956179274401 160.75071583211428 M215.355033075157 160.87739929601068 C203.08833339860885 161.18027206111472, 189.66521559008902 161.35666654297606, 167.82859610826813 158.975374259534 M216.6236852480547 159.6525181842535 C203.77103682568884 160.52059836077586, 188.81323406426657 158.89152323207242, 165.87989074132577 160.35193791545342 M167.10648097098718 161.47098958239815 C164.23648435470963 143.07869848199653, 164.68776931773718 131.02658528531094, 165.7029828530541 108.40028323752634 M166.75875806085386 159.14878080840748 C166.69504059584412 145.46112619322457, 166.00146634675122 129.65618484686019, 166.99464474044473 110.28854382340317" stroke="rgb(0, 0, 0)" stroke-width="1" fill="none"/><text x="191" y="140" class="id" aria-label="blank entry" aria-describedby="desc-7"><title id="desc-7">Element</title></text></g></g></g></svg>