<svg data-theme="dark" width="291" height="225" xmlns="http://www.w3.org/2000/svg"><style>
        :root {
        --fade-text-color: rgb(0, 0, 0);
        --hide-text-color: white;

        --highlight-value-text-color: rgb(27, 14, 139);
        --highlight-id-text-color: rgb(150, 100, 28);

        --highlight-box-fill: yellow;
        --highlight-box-line-color: rgb(0, 0, 0);

        --fade-box-fill: rgb(247, 247, 247);
        --fade-box-line-color: gray;

        --hide-box-fill: white;

        --primitive-value-color: rgb(27, 14, 139);
        --id-text-color: rgb(150, 100, 28);
        --default-font-size: 20px;

        --highlight-object-fill: rgba(255, 255, 0, 0.6);
    }

        text {
            font-family: Consolas, Courier;
            font-size: 20px;
        }
        text.default {
            fill: rgb(0, 0, 0);
            text-anchor: middle;
        }
        text.attribute {
            fill: rgb(27, 14, 139);
            text-anchor: start;
        }
        text.variable {
            fill: rgb(0, 0, 0);
            text-anchor: start;
        }
        text.id {
            cursor: auto;
            fill: rgb(150, 100, 28);
            text-anchor: middle;
        }
        text.type {
            fill: rgb(27, 14, 139);
            text-anchor: middle;
        }
        text.value {
            fill: rgb(27, 14, 139);
            text-anchor: middle;
        }
        path {
            stroke: rgb(0, 0, 0);
        }
        .highlighted path {
            fill: var(--highlight-object-fill) !important;
        }
    
        [data-theme="dark"] {
            --highlight-value-text-color: #110875;
            --highlight-id-text-color: #6e4409;

            --fade-text-color: #BBBBBB;
            --hide-text-color: #121212;

            --highlight-box-fill: #EDB926;
            --highlight-box-line-color: #FFFFFF;

            --fade-box-fill: #2C2C2C;
            --fade-box-line-color: #666666;

            --hide-box-fill: #121212;

            --highlight-object-fill: rgba(72, 207, 173, 0.3);
        }
        [data-theme="dark"] text.default,
        [data-theme="dark"] text.variable {
            fill: rgb(224, 224, 224);
        }
        [data-theme="dark"] text.attribute,
        [data-theme="dark"] text.type,
        [data-theme="dark"] text.value {
            fill: rgb(144, 164, 237);
        }
        [data-theme="dark"] text.id {
            fill: rgb(255, 183, 77);
        }
        [data-theme="dark"] path {
            stroke: rgb(204, 204, 204);
        }
</style><g id="object-0"><path d="M49.894452869225674 26.480468279196508 L264.9040496914743 26.331087683014314 L265.3201764683966 175.0488815352869 L48.94354482599213 176.36052723288114" stroke="none" stroke-width="0" fill="none"/><path d="M49.156172323817195 23.849543608459637 C99.72058782588776 26.77301706686328, 147.78767546784303 24.385718737569942, 264.3554403527661 23.66515058663754 M49.35520253259201 25.289681868360088 C114.55462572525971 25.52918701898569, 181.24650184245752 24.375170130201898, 265.6669656282114 25.79790719440945 M266.78932671020897 23.965896270770635 C266.22159550170227 83.36479725673519, 267.0806166517137 142.74118797736517, 267.3539336154358 174.51556359941833 M266.0561435881627 25.23833626441702 C265.6643536882772 82.44431845531165, 264.8462928336172 142.11732439741337, 266.44494829883143 175.58504169326127 M267.2443188180356 175.23720376239405 C218.38681773378275 171.81229642621062, 172.5929112187893 172.948088756527, 48.770514808162794 175.81759927511155 M265.7958643231334 175.00318535255641 C183.975295679313 174.49927123461046, 100.92103388550687 174.65563472497308, 49.15769504596729 175.6506157602981 M50.65954003464893 176.03836251280066 C51.462078613838095 138.91427245136126, 50.0321736496896 105.33061113485293, 49.98742252808786 23.68113777639514 M50.457357307152 174.91925448349062 C50.52691788157642 121.4828861987352, 50.557307988314214 68.47607228617126, 49.516808276739475 25.28699936741952" stroke="rgb(0, 0, 0)" stroke-width="1" fill="none"/></g><g><path d="M44.43777175753406 20.248760454177482 L271.6787830453742 20.922837912258114 L270.2533962731906 181.24269981065626 L45.56030105872534 182.797277747342" stroke="none" stroke-width="0" fill="none"/><path d="M42.70200756555604 20.43731298937193 C133.06335777057828 17.349673834104973, 224.241814053731 17.243639012484767, 270.9151943287754 18.831603098377954 M43.656234602199746 19.271289119187916 C120.31599119089746 20.121103794545835, 196.27510498699692 18.888731297682728, 271.57031936517933 19.736688766010644 M272.8817066177001 18.12387502536564 C270.48415086792755 82.53710102250145, 270.7251271733118 144.1508489282436, 271.62480796423336 182.4697240824526 M271.9615212734689 19.679486278097727 C272.17653596843905 78.17893495828207, 271.47855694293247 137.06611711859128, 272.6520562256274 181.55138332247083 M272.3795678448853 180.277150881291 C188.91016645968293 183.901949982648, 108.58799025541481 182.1485360311303, 43.64141615540725 179.53782440741116 M271.2648585776077 180.2532248373441 C189.56505315348932 182.23891907842727, 108.5925477788777 181.56700101116306, 44.7109158147324 180.24308159479085 M44.04729012181875 180.43435414906997 C42.36089227651284 144.50622900293737, 45.729556039872016 111.28920241512213, 45.39674400116503 18.606013190871423 M44.25646879013944 180.75887758220102 C45.30039781055396 137.62864259164922, 44.52046728052174 94.6229361285736, 43.74010022339749 18.312767791687772" stroke="rgb(0, 0, 0)" stroke-width="1" fill="none"/></g><g><path d="M74.1495575594608 108.12933075721486 L133.8263382710735 110.64245132678477 L132.918756677214 161.11474422463348 L73.52875166441933 161.51160527438873" stroke="none" stroke-width="0" fill="none"/><path d="M75.8510620134935 108.64656412763291 C89.6608206600358 107.87471152214204, 103.0149134952766 108.52795692653535, 133.36759580460847 109.76912110146598 M74.60190347312283 109.67270200758864 C93.71673384894301 109.76944030493463, 114.9943396748558 110.02183519115275, 133.20055102486447 110.5586130109913 M131.2918317127568 108.45664152310707 C133.99295106172008 127.46360703574354, 131.9504040740941 142.42354216989787, 133.39620571464505 159.50002805351704 M133.6774328396722 109.2060557014693 C131.71831884280547 127.55448271789331, 133.18442602639922 146.8937301616664, 132.79326163585327 160.3766367542553 M133.41727910675874 161.5526447731481 C117.64418028518949 158.49633600188793, 105.97934455832768 159.05178718257258, 74.1064428899328 160.86589943234313 M132.31298798962837 159.08305005913843 C117.95940411294804 159.66627163290525, 102.10076074824963 159.66424796918017, 74.86905263511208 160.31553800714022 M74.85765160468867 160.69609745231278 C73.65571065792844 143.77637543099115, 75.52271576816023 123.41908928421228, 73.29656054840308 109.74724314016963 M75.58178281513442 159.46985846756505 C74.32189424325463 148.6521835454716, 74.27700252329643 139.15832911643616, 75.30120141854718 109.0021915902384" stroke="rgb(0, 0, 0)" stroke-width="1" fill="none"/></g><text x="104" y="140" class="id">id82</text><text x="104" y="97.5" class="id">0</text><g><path d="M134.01242135235606 110.30930200563303 L190.98065194070801 109.20633584304935 L192.3982953625539 160.40591051746046 L131.8701164557717 158.54770591360486" stroke="none" stroke-width="0" fill="none"/><path d="M133.70950707642308 110.04495789559898 C154.29535410495828 108.61235496685534, 173.11861850598933 109.86710453754647, 191.3982010370343 108.7273779912763 M133.50478378260232 110.11009217732672 C152.3496211228846 110.8844560047703, 171.65045330434407 110.1797708773115, 191.9600687188077 110.02226592118276 M192.8037029902526 110.91889344626429 C190.17861146457864 128.40190053420483, 190.0091407761062 147.14257913537762, 192.69444328714286 159.65029591723896 M191.46296745998941 110.89364784411252 C190.82720491144806 125.72159690041794, 189.88518768137308 140.31677024289974, 190.93396158534412 159.62612764062578 M189.59070983898852 159.74268118602467 C173.22268722232582 160.87963274787734, 154.2149736961426 158.1700665471007, 132.85842175825283 158.52806350871492 M190.29177118840278 160.52565010507308 C178.70861840761856 160.25692901060378, 167.31710576569296 159.68721283226398, 133.26081023030014 160.60653981058644 M131.9436128831309 160.50383665221378 C133.31755726260585 140.71322363961036, 135.2396173220236 122.29569652214259, 132.6136580553076 110.70434208506971 M132.34299613291753 160.80626640120602 C132.70904770944125 147.19213431678696, 133.80195130202512 135.46461535180367, 133.4128371237879 109.0222328986537" stroke="rgb(0, 0, 0)" stroke-width="1" fill="none"/></g><text x="162" y="140" class="id">id76</text><text x="162" y="97.5" class="id">1</text><g><path d="M190.33472381939777 109.71570193988018 L241.14201674183107 111.84339955660796 L239.80696359144338 161.46642594696118 L192.8013592310429 158.84847168785834" stroke="none" stroke-width="0" fill="none"/><path d="M189.77032247263165 111.74221199971757 C207.04525018162158 110.78236172556308, 219.30918507892028 108.12994688963128, 240.8590890505753 111.70502210348471 M190.4322356991749 110.2015769441036 C206.836398796502 109.86945374999142, 222.46885137643363 110.64114317652331, 241.5910512499095 110.30161567179077 M242.80543057553245 111.51860607512778 C239.6663013399402 121.52633145468626, 242.8636614857717 131.6701195115931, 241.27888919061738 159.96341477160732 M241.63191666709105 109.99078773468656 C240.5865283790584 122.15653551456265, 240.96664071598204 131.7815621359001, 240.35698116254898 160.7579502674795 M242.3396569929143 159.8917866635587 C220.95919135513674 160.7645190692913, 203.84370355492314 160.5353187535772, 189.0922966505235 159.00701422404504 M241.6488391597315 160.88623200393718 C230.81082200370398 159.30853675942143, 219.7719238988538 159.76957786329885, 190.50939947004005 160.64049432587848 M191.138182685298 158.67918244239087 C191.31486409146473 141.35409391224306, 192.46322027843348 121.39255275509812, 190.38794541162312 109.7405461814857 M190.95184545010443 160.71106737863946 C190.5796602648973 150.27473663289882, 191.40446574154515 138.6043346032813, 190.17825356600352 110.9496240203071" stroke="rgb(0, 0, 0)" stroke-width="1" fill="none"/></g><text x="216" y="140" class="id"></text><text x="216" y="97.5" class="id">2</text><g><path d="M49.570290454308605 23.604457191354648 L108.73903724106313 26.985086424106527 L110.42197861387193 74.29690275907578 L48.70210928643772 75.13264654496992" stroke="none" stroke-width="0" fill="none"/><path d="M49.1333112851434 24.776265709660944 C65.31193180513259 27.336544759649883, 79.3889288767859 25.412468215213813, 110.58384659254692 26.983930172563227 M49.711486691099246 24.238701576448673 C66.36400497174442 24.202212882484226, 82.82472421719035 25.20865199495699, 109.50342384957925 24.897891270268694 M111.6578690790052 25.413580449536624 C110.8909481065938 37.061852225989405, 112.12003416513582 52.042699284678505, 111.10624692335794 76.45426882861773 M109.67793543143063 24.075529083584236 C109.42166327134714 36.03648635561478, 110.51629418858157 47.414357732067074, 110.62219347540909 74.89742119267406 M108.28600545465126 73.80926456164916 C96.75596079444031 75.17420360645276, 81.90125371288755 75.93093396433025, 49.58330231630181 73.47400611742354 M110.92734423318616 74.39091318768997 C93.6203534396101 75.30709464488469, 78.25369951831802 74.23919785079373, 50.52983744890422 75.52656989052808 M48.178043700133465 76.00398523247921 C49.708491095051414 62.874801979834324, 49.62859541685576 53.897733160669986, 48.46382383387053 25.74379672010036 M49.22438389577029 74.87073224330186 C49.91396433309936 57.78569670058355, 50.0296959969284 42.307972255935915, 49.94891984980999 25.697478301523514" stroke="rgb(0, 0, 0)" stroke-width="1" fill="none"/></g><g><path d="M194.66425295987545 25.084078275845805 L266.7375359550427 26.694513689964857 L267.44456082433084 73.20233737853616 L196.57921383821696 73.78219538168854" stroke="none" stroke-width="0" fill="none"/><path d="M194.65543421636227 26.91308381999255 C209.69709843426637 24.44341017981005, 227.20744444278358 24.054123049309965, 264.3517636544922 25.6228158590557 M196.222001608841 25.489577204932285 C211.90258655610197 25.890929676461848, 228.95796832150992 25.331732909418335, 265.1835305203481 25.710607857037107 M265.8374135579242 23.10481033614991 C267.4089339645124 42.71258209961732, 267.41381660823265 62.916490001405165, 264.3478132241301 73.8020614729963 M265.89753878239844 24.977364149426634 C265.1796941453502 36.53667621472098, 265.2286843982186 50.098816397959595, 265.82605050981215 74.13176224484656 M265.50291111465435 73.79557108938684 C246.07792643724972 75.47551157426183, 226.01602111758308 74.23353137897777, 197.06449317722547 74.33269674215123 M266.3256789879364 74.87612323167447 C241.74602002323226 75.02596393783831, 216.90538206269002 75.10120173284716, 196.06464244042195 74.21430150596863 M197.3529390390429 73.50637086408976 C196.7573156260613 64.45652911287571, 196.19041619910473 52.151953880325586, 195.18395070828527 25.066148462742348 M195.2215880136937 75.43449397569445 C197.22194552709166 55.979636986694025, 196.38186352377443 37.46446961090529, 195.0438711453183 24.525492867890705" stroke="rgb(0, 0, 0)" stroke-width="1" fill="none"/></g><text x="80" y="55" class="id">id11</text><text x="231" y="55" class="type">tuple</text></svg>