<svg width="291" height="225" xmlns="http://www.w3.org/2000/svg"><title>Python memory model diagram showing objects</title><style>
        :root {
        --fade-text-color: rgb(0, 0, 0);
        --hide-text-color: white;

        --highlight-value-text-color: rgb(27, 14, 139);
        --highlight-id-text-color: rgb(150, 100, 28);

        --highlight-box-fill: yellow;
        --highlight-box-line-color: rgb(0, 0, 0);

        --fade-box-fill: rgb(247, 247, 247);
        --fade-box-line-color: gray;

        --hide-box-fill: white;

        --primitive-value-color: rgb(27, 14, 139);
        --id-text-color: rgb(150, 100, 28);
        --default-font-size: 20px;

        --highlight-object-fill: rgba(255, 255, 0, 0.6);
    }

        text {
            font-family: Consolas, Courier;
            font-size: 20px;
        }
        text.default {
            fill: rgb(0, 0, 0);
            text-anchor: middle;
        }
        text.attribute {
            fill: rgb(27, 14, 139);
            text-anchor: start;
        }
        text.variable {
            fill: rgb(0, 0, 0);
            text-anchor: start;
        }
        text.id {
            cursor: auto;
            fill: rgb(150, 100, 28);
            text-anchor: middle;
        }
        text.type {
            fill: rgb(27, 14, 139);
            text-anchor: middle;
        }
        text.value {
            fill: rgb(27, 14, 139);
            text-anchor: middle;
        }
        path {
            stroke: rgb(0, 0, 0);
        }
        .highlighted path {
            fill: var(--highlight-object-fill) !important;
        }
    </style><g role="graphics-object"><title>Tuple id11 with 3 elements</title><desc>Elements: id82, id76, blank</desc><g id="object-0"><path d="M51.97334107703411 25.84963737348971 L264.84534334799866 25.263315231772353 L267.8688942517299 173.0381023384519 L48.837179542516 173.73015408473196" stroke="none" stroke-width="0" fill="none"/><path d="M50.824845164331414 25.914802615590492 C96.75639561736635 23.454204376258517, 145.39107657817405 25.045298326934798, 265.0595847846201 26.356957147035914 M49.64773160959126 25.7820222431546 C107.68792694031832 25.472574166724666, 164.37694302940736 25.52350189745479, 266.14636336720713 25.019503984380318 M266.91958632204023 25.203064571544616 C266.55101235478367 76.79962787313443, 265.81457979577 129.23112517614882, 265.9834175826797 174.21313624338444 M265.780622998305 24.06260860988367 C266.0371233040294 78.92258903789342, 265.54801997186865 133.0053167207159, 265.85602721396276 174.43644461171962 M266.83559243604446 176.57091037019012 C179.53601521321673 177.99090629679776, 98.06750441112209 174.71875437174214, 48.533397480964275 173.37419018877128 M266.64292691096466 175.51943735090455 C223.46291792249707 172.96641899851548, 179.2605426825262 172.9679664317456, 50.428902629331304 174.22741031425917 M51.87495236984473 174.9178992947411 C49.758379444011695 126.29829230288621, 51.92634015175955 81.1041947187199, 51.53475599914951 25.14418737174897 M50.84002847622103 174.98764548782714 C48.14662275139358 128.15735526031983, 49.93790890645431 80.41296506712786, 49.361507672924496 25.997812529130734" stroke="rgb(0, 0, 0)" stroke-width="1" fill="none"/></g><g><path d="M43.6290009494865 18.01915873828706 L270.6616721211515 20.887510574757442 L271.1686003662044 180.26878828407766 L44.772159417294695 180.77032736145816" stroke="none" stroke-width="0" fill="none"/><path d="M44.24538155053172 19.368154905666813 C116.20379895283364 19.175402458480708, 190.74107814380213 20.63201207238221, 272.1510913376815 19.163426695564695 M44.191132162139745 19.402304519536234 C127.9709472665683 19.732597182066787, 212.32282788611175 20.483849136218037, 271.2004797890552 19.727752410685305 M271.34269934286704 20.871177027665727 C271.22008197728223 71.69234341813639, 271.5466406442212 119.59740656026197, 272.18534322881766 180.1554019681934 M272.4499211154002 19.720535014688885 C272.7927527462153 75.16576659866193, 273.96614032473667 130.22177695634258, 271.05913745113287 181.6495214224974 M273.0333769251319 181.92982756578752 C218.4019604636408 181.08391345963088, 160.08124080513076 181.66744714164847, 45.688472938914174 180.62404906514382 M272.63026564280415 181.40214816164507 C187.83288992242927 182.42611348813384, 102.69403476350044 181.94941231408217, 44.740741495678954 180.3195795446959 M44.8415011062472 182.8365596435244 C44.2132096895284 141.69110489668384, 41.065069990901634 98.00045288792649, 43.95426559898785 17.492684004618635 M43.36892448159769 180.874451151055 C43.14956166651783 143.42173711121967, 43.07918899140033 107.28678574235414, 43.13340910179324 19.751591794457863" stroke="rgb(0, 0, 0)" stroke-width="1" fill="none"/></g><g><path d="M75.54145111268593 108.37891196289627 L133.41831117893855 109.13696422103246 L133.55853149620117 161.240823812922 L75.7542280490898 160.47652715691748" stroke="none" stroke-width="0" fill="none"/><path d="M73.31616940711194 109.23476163514607 C89.7899646888215 108.86201376019831, 107.79573230792454 109.76890442830707, 134.28656307393882 110.77571396291597 M75.09179139403949 109.46667129374315 C94.59858637888468 110.12357372151065, 117.05899268399905 110.02845615068736, 133.95928210243707 110.86591669564537 M133.15068037489132 109.43958471706868 C133.09475232475484 130.13982609042213, 132.7665602522224 146.6383910702482, 134.61750136117556 159.5751904836447 M132.62152645600864 109.22881364536964 C131.96022701280523 124.15071343514852, 132.30216868228322 137.3151673354548, 133.46003034497951 159.89696885312338 M131.61146722035585 159.3744398362683 C121.12842180147928 160.3106768091811, 105.0880975266891 158.74619152416116, 75.1637427900929 159.40242032150857 M133.02562543364422 160.67594819492325 C119.93857298530627 159.43134680916563, 105.8552415343976 159.68102119573035, 74.26135466749375 160.5970790837134 M76.58432223788499 158.68897806632873 C75.72358637051585 140.52994057990878, 76.74710953911885 122.11215771151946, 76.00340383829081 110.06911709900933 M74.5078220798002 160.42065488796507 C75.55278203154383 149.106807859896, 74.66801657252441 137.27978802816563, 75.34367769595656 109.515174027322" stroke="rgb(0, 0, 0)" stroke-width="1" fill="none"/></g><text x="104" y="140" class="id">id82</text><text x="104" y="97.5" class="id">0</text><g><path d="M131.296541923482 111.54796210162183 L192.35151107530754 110.02247224025501 L189.33198893477953 159.1597141594969 L131.27176537809447 161.4601037617404" stroke="none" stroke-width="0" fill="none"/><path d="M132.193069000526 108.62838052584495 C149.83303621500835 112.14333401287787, 165.41037256751926 110.57654608449181, 189.132298319973 111.04214251529918 M132.19945567176768 110.25842339385456 C154.8555120598217 109.87872418390276, 177.37909285885326 110.35017362521121, 191.7688124347484 110.12397923675815 M192.11994322426227 108.18446415946478 C190.49600044323086 118.6573512298831, 191.88852711594686 130.44893297280805, 190.39316794801158 159.98227637868447 M190.10565214127396 110.80789934421219 C191.01315243701345 122.26145562362363, 191.10012820077466 134.55645875390167, 191.4149742062158 160.17019798374008 M190.38643322743246 159.92711854498646 C170.41859685107013 159.92089168384214, 151.59994617905363 159.5476842908821, 133.21471660660774 161.3169279109738 M190.30022399829 159.65977243416395 C174.21317933448566 158.8726971789223, 156.48503422461206 160.61143280494522, 133.55092777477034 160.93767067531869 M132.62367748419774 159.85723757708087 C134.56669125712233 146.76475896461844, 132.0070066386304 130.56622456475674, 131.93083600052438 111.171143240153 M132.89648394053998 159.76818098222944 C133.08550846502007 148.0010544246519, 132.7068774274388 135.45611871345716, 132.6155748518462 109.25654285498238" stroke="rgb(0, 0, 0)" stroke-width="1" fill="none"/></g><text x="162" y="140" class="id">id76</text><text x="162" y="97.5" class="id">1</text><g><path d="M189.3655913521519 111.68914963302181 L242.11143361846263 111.80218927642072 L240.4246370482429 160.230526996274 L190.70412098055792 159.88803558614222" stroke="none" stroke-width="0" fill="none"/><path d="M192.20079662263282 111.41379036088667 C204.40735781332768 110.90447408810962, 217.21956863019773 111.92031228402364, 240.5764857377616 108.74201284536991 M191.270508396752 110.05337768080935 C201.91503511925916 111.03245101669414, 212.85165131434826 109.75996614642445, 240.9596094721925 109.29675875647182 M240.00949104890844 110.81230163457982 C240.47066653311356 130.99052391695952, 242.54830837188172 149.67341610083795, 241.71870226073844 158.2808199396824 M240.47956156090433 109.9290222691274 C240.52686669894427 127.64151732591637, 241.8307111275809 144.0602568820357, 240.7101623030611 159.78321338588768 M239.4742512551573 161.3228168199153 C227.8404544933799 159.9956537962443, 210.095792485811 160.32782510355483, 191.9572650568513 160.3839643067639 M241.8627856390588 159.3477608775268 C227.52646757730588 159.96104922527803, 212.76524650997462 159.6618388826714, 190.64524094879582 159.38605003763374 M191.44370428416272 160.44481360282893 C191.68341142041845 146.30425915036525, 192.51704407360762 130.73559019112267, 191.20958057793163 110.03612711213097 M190.67914610686725 159.09134702162112 C192.0635297112505 142.97404058758457, 191.17004014355427 128.1510426473335, 191.5723079331316 109.97274146609077" stroke="rgb(0, 0, 0)" stroke-width="1" fill="none"/></g><text x="216" y="140" class="id"></text><text x="216" y="97.5" class="id">2</text><g><path d="M49.90622191731592 24.352145356655928 L110.18235571098667 25.30659499529491 L109.82175322740935 74.76956776954606 L50.87094197127233 74.31916741014186" stroke="none" stroke-width="0" fill="none"/><path d="M50.99042856016061 25.320822326833596 C66.17849508298056 24.898254056195114, 87.13159707547624 25.988749801849526, 108.39673731841901 26.247090006025463 M49.231088310987246 25.986521281886546 C64.49839930213317 25.183572984341918, 79.85659718703671 25.186518685507384, 110.85048931346923 24.9184518721589 M109.45596924601134 26.553451047423874 C110.83232423100131 44.54323609302709, 110.77951224675824 63.30202527249962, 108.90507304110288 75.76918159303005 M110.83769520262327 24.925576050078234 C108.9606068494065 43.501035642579396, 109.48111137865305 62.23337383269876, 109.66199392335271 74.81838009633215 M109.87084507640012 75.2792959544633 C92.80978705566402 77.0234415769194, 74.58908208559508 77.06698158536, 50.55307213988426 75.40252487878504 M109.96872168535799 75.83751932340134 C97.16458633931333 75.11311879790621, 83.84420813953052 74.32723628336397, 49.43677000237914 75.11366747306079 M51.76969720302091 74.81288623365883 C51.77353561122531 57.04330173258113, 48.484873703560204 40.97235236507741, 51.94449778952095 23.360214874275364 M49.773457324453595 75.40519405465125 C49.366296045670126 61.269069502265054, 50.53110372473972 46.85035815772493, 49.21460429834478 24.951136351005204" stroke="rgb(0, 0, 0)" stroke-width="1" fill="none"/></g><g><path d="M197.07524698630976 23.737778428956204 L266.1290676065676 25.075807637878714 L264.4594817495712 75.33430292614032 L194.07430579661897 73.39209963518229" stroke="none" stroke-width="0" fill="none"/><path d="M197.30295476302015 26.784783389913862 C222.7243103710126 25.447013240076387, 251.16446145202877 25.094329831044544, 266.2333057733541 25.622851968817287 M196.83088774754327 25.11941773397348 C218.43500045419222 25.596444134347273, 241.0130748990592 25.783935162088135, 265.8541560458237 24.413828607166465 M267.226220090646 25.9032751806664 C266.34036703641584 43.669117861022734, 265.3152865813773 57.10478041363909, 264.6247923313184 74.09739222239283 M265.78407895850296 24.371336465933627 C265.2642984227452 40.60368968143065, 266.6933079879462 57.900586345654716, 265.91705349253806 74.39533872923033 M267.31470283775695 73.91676355604389 C240.58312919390173 73.03630060754028, 213.42436649242268 74.99438965359585, 195.84315312505757 76.23293363422691 M266.4886091196433 74.2851736613777 C250.89556743107738 75.38140561206184, 233.49426283772152 74.61992154098631, 195.58965259770966 75.37420321915393 M196.70086448565073 75.58255944507798 C197.56259066632276 63.51232930495834, 196.00956018023308 55.189688832347, 196.87983851424545 23.519959591130714 M195.82884659165234 74.21999928437401 C196.98646165178963 57.96476286517172, 196.15478151333943 41.40146153668496, 196.8993065532156 24.827353701848608" stroke="rgb(0, 0, 0)" stroke-width="1" fill="none"/></g><text x="80" y="55" class="id">id11</text><text x="231" y="55" class="type">tuple</text></g></svg>