<svg data-theme="dark" width="291" height="205" xmlns="http://www.w3.org/2000/svg"><title>Python memory model diagram showing objects</title><style>
        :root {
        --fade-text-color: rgb(0, 0, 0);
        --hide-text-color: white;

        --highlight-value-text-color: rgb(27, 14, 139);
        --highlight-id-text-color: rgb(150, 100, 28);

        --highlight-box-fill: yellow;
        --highlight-box-line-color: rgb(0, 0, 0);

        --fade-box-fill: rgb(247, 247, 247);
        --fade-box-line-color: gray;

        --hide-box-fill: white;

        --primitive-value-color: rgb(27, 14, 139);
        --id-text-color: rgb(150, 100, 28);
        --default-font-size: 20px;

        --highlight-object-fill: rgba(255, 255, 0, 0.6);
    }

        text {
            font-family: Consolas, Courier;
            font-size: 20px;
        }
        text.default {
            fill: rgb(0, 0, 0);
            text-anchor: middle;
        }
        text.attribute {
            fill: rgb(27, 14, 139);
            text-anchor: start;
        }
        text.variable {
            fill: rgb(0, 0, 0);
            text-anchor: start;
        }
        text.id {
            cursor: auto;
            fill: rgb(150, 100, 28);
            text-anchor: middle;
        }
        text.type {
            fill: rgb(27, 14, 139);
            text-anchor: middle;
        }
        text.value {
            fill: rgb(27, 14, 139);
            text-anchor: middle;
        }
        path {
            stroke: rgb(0, 0, 0);
        }
        .highlighted path {
            fill: var(--highlight-object-fill) !important;
        }
    
        [data-theme="dark"] {
            --highlight-value-text-color: #110875;
            --highlight-id-text-color: #6e4409;

            --fade-text-color: #BBBBBB;
            --hide-text-color: #121212;

            --highlight-box-fill: #EDB926;
            --highlight-box-line-color: #FFFFFF;

            --fade-box-fill: #2C2C2C;
            --fade-box-line-color: #666666;

            --hide-box-fill: #121212;

            --highlight-object-fill: rgba(72, 207, 173, 0.3);
        }
        [data-theme="dark"] text.default,
        [data-theme="dark"] text.variable {
            fill: rgb(224, 224, 224);
        }
        [data-theme="dark"] text.attribute,
        [data-theme="dark"] text.type,
        [data-theme="dark"] text.value {
            fill: rgb(144, 164, 237);
        }
        [data-theme="dark"] text.id {
            fill: rgb(255, 183, 77);
        }
        [data-theme="dark"] path {
            stroke: rgb(204, 204, 204);
        }
</style><g role="graphics-object"><title>Tuple id11 with 3 elements</title><desc>Elements: id82, id76, blank</desc><g id="object-0"><path d="M49.75201317448691 23.48765061200252 L266.2420668013757 25.342946063212 L264.8502493741007 153.7218477980512 L48.724008660869714 153.8175273914146" stroke="none" stroke-width="0" fill="none"/><path d="M50.21619751375842 24.9285299890121 C100.42538041697067 23.157454401401466, 149.84778692622513 25.01433288609021, 267.30413738286916 24.684742732072596 M49.648125313710736 24.133036864938138 C133.37574134322648 24.292819375514902, 218.6905844913151 23.247179284288773, 265.762512703082 25.2024707237734 M266.7590300885915 23.91833607067428 C266.4401810243668 63.29846921725293, 266.39218621813023 98.70751820731911, 266.0577091115126 156.09317348033588 M265.1065599044977 25.14427931997479 C266.66399453862635 60.27728252016828, 264.96738356754685 94.57699464529729, 266.8413455978442 155.0010027097411 M265.29083712105955 156.04168986328085 C187.0801348638057 157.66414249480653, 104.41202374687265 157.49870678068882, 51.63961934953853 153.44159266932456 M266.11644406547543 155.08702123209918 C207.02453260547088 156.0654516306148, 148.38988682548646 156.9560763353865, 49.61994086405811 155.02921184956315 M48.49649932401528 153.13807605590813 C48.465898898946264 127.04455456129499, 49.80730341906979 103.43474293667697, 51.34671670315423 26.77297095280017 M49.158147831431855 155.3748794249266 C49.19017496744441 115.6957865821715, 49.576684369072666 75.62036957902343, 50.04037189618537 24.21755980410788" stroke="rgb(0, 0, 0)" stroke-width="1" fill="none"/></g><g><path d="M44.38813027167452 19.828927546170704 L271.7533861956138 19.374352132547656 L270.74662961073534 159.5703337727873 L44.79862152101141 162.15446871238507" stroke="none" stroke-width="0" fill="none"/><path d="M43.58159747392207 17.71054309919414 C121.48781188705156 20.768206844241732, 196.72968672271614 19.041014328393004, 270.81709702779256 17.53407375268828 M44.762411468854765 19.767570337826836 C129.79274588204913 20.784470902929556, 214.47116879080716 20.641121830516276, 272.5924455898489 19.187408219099797 M273.44311356977397 17.937177515515952 C269.2766134841845 59.57922738568187, 272.23779803453453 101.81396749330452, 270.62892766678857 162.5294847070217 M271.83718420377096 19.43097355099664 C272.8669065952765 72.01509841443068, 271.7721776960801 126.05481376792171, 272.561496433583 161.7830580428903 M271.73975490931394 159.60382254630483 C192.3154085073223 162.14687992920156, 114.37146997811126 162.7263559321059, 44.77667765206141 161.74495277425126 M271.66209579058733 160.1656087881193 C185.7071906164689 160.13050764544533, 99.82133076436449 159.16576547246316, 44.42926669932373 161.22658249922145 M44.36541287921874 162.8715894481685 C46.984182527823386 113.33747853945303, 46.52955790353172 63.01131464368832, 43.86638814703509 19.689721075430533 M43.21212315873336 161.73125518402534 C44.68977694526128 104.38295505146657, 45.25794983543611 48.235023851581886, 44.17435624486832 18.268907039657915" stroke="rgb(0, 0, 0)" stroke-width="1" fill="none"/></g><g><path d="M74.21652411117985 91.96547055179737 L133.52592805349073 91.4239065782453 L132.2594137975504 140.07168391193616 L75.1548740228562 139.9214002928289" stroke="none" stroke-width="0" fill="none"/><path d="M76.93321049857477 91.97875743856919 C94.96599449108653 90.0549267309025, 110.99952600205305 92.39118822452528, 133.08244204005035 88.19557831099014 M75.14024637791185 90.57443851271577 C95.79199150529902 90.09435005023494, 115.75936703293192 89.10015843257709, 133.20548916750792 90.77109703624767 M131.46336189437125 91.26127594052251 C135.3463238187392 109.84230191582218, 135.02455586732407 124.69089117546788, 133.9338409683177 139.41872572060203 M133.92815237170095 89.89801131309221 C132.24393614120078 105.5617790476547, 132.96220176583157 119.67249835291635, 132.09423902902358 140.9927313946683 M133.22856757920147 140.74635328858253 C117.63419056472537 141.1402833227108, 102.70258464560762 141.26150903033394, 73.3682087882997 141.86314688293456 M133.66873155876834 140.019104166685 C115.79032134448244 140.00593764044962, 99.43506499359914 140.7467873399057, 74.74208967639716 139.4981541563016 M75.45254727282956 139.47192230938447 C75.18618290969415 121.87788659510619, 75.66761301147753 101.96780298036757, 76.87702367005494 90.92976501220693 M74.02512776867168 140.60975015551813 C75.61177165900756 123.80593894968875, 75.07863687558958 106.70095074365284, 74.96408995917952 90.6227591632825" stroke="rgb(0, 0, 0)" stroke-width="1" fill="none"/></g><text x="104" y="120" class="id">id82</text><g><path d="M134.95429797888997 91.20459912791182 L192.22785377245006 90.25693110374095 L190.52703583122968 141.61920360925467 L132.0188750162379 140.20217664985157" stroke="none" stroke-width="0" fill="none"/><path d="M132.8032305841581 91.41232493997965 C155.79369485871482 88.69757873595461, 176.7242560984548 90.54095343563189, 189.37664875275388 89.74909628184429 M132.60201250557066 90.05610167970686 C147.26012766828612 88.8346211908707, 162.43573589636054 90.39431489678199, 190.84068827209867 90.18882850007776 M190.6483348736821 88.12924697945762 C190.92972030935178 102.6892067355295, 189.76910621292146 117.52792854595076, 192.54581896279458 138.63524114343548 M190.89181712996992 90.4760503115404 C191.06843177241825 102.42777993997854, 191.16325322157965 116.30036786045542, 191.67013840125202 139.42897888345982 M191.04232682018454 140.98026754775023 C170.67894544409165 139.69245649891812, 154.71704449041763 140.68435486941016, 133.2227873491241 141.85132490628925 M190.2758865467366 140.48287240462713 C175.62686023467575 140.5847457969735, 162.44985723044906 140.55593136084366, 132.66000290871125 139.9267933773679 M134.87986041484817 141.05187210773306 C134.08148777694444 121.16862729740421, 134.40878328647557 101.89063650647817, 133.50625379740814 88.4246077041327 M132.60056576425274 139.50575589247038 C133.58265721062537 122.929286716647, 133.25553185285935 103.39525447529667, 132.7442046822661 89.56586269964116" stroke="rgb(0, 0, 0)" stroke-width="1" fill="none"/></g><text x="162" y="120" class="id">id76</text><g><path d="M192.46545140541681 91.10519646538924 L241.52920185527188 91.33955750403778 L241.18506956051834 140.9531115938192 L191.1693295202111 138.15085136807545" stroke="none" stroke-width="0" fill="none"/><path d="M190.79331294483677 90.95372586072708 C203.53175333296826 91.31687880945694, 219.6603452593363 87.90629228677074, 241.2422605858921 88.53587752966085 M190.04192567336685 90.68151537711418 C203.7319771088008 89.37128379124508, 217.70518818722772 89.0159828324643, 241.92044171602606 89.65077940359906 M240.05794917238546 91.49609148950394 C242.6048016915748 105.49318778112618, 241.67353454624174 124.73050084189899, 239.10963526525111 140.59503054868304 M240.3424083119945 89.29835073794216 C239.9785042703076 107.15304777996158, 240.27625407528487 126.50395967480297, 241.10674266399036 139.9380648167018 M240.74951814600934 138.33152394792359 C222.45038105155558 141.01956452125546, 204.96909933035914 140.26489831797488, 192.8821938822462 141.71550679753076 M241.41723376790858 139.1254027560057 C227.01677406080827 140.63372058223555, 212.80546975436823 140.79028324885417, 190.6392900133802 139.29641885309076 M190.87949476074775 141.10287937327467 C192.71657534694717 124.04942325144339, 189.9378029301598 103.9282985099804, 191.74876250631831 89.78276993552419 M190.4212680216227 139.13178114962332 C191.47162915563194 121.44490851084421, 191.56022591303406 101.60504554605447, 190.78464780839337 90.75886323559207" stroke="rgb(0, 0, 0)" stroke-width="1" fill="none"/></g><text x="216" y="120" class="id"></text><g><path d="M49.145419885470375 25.026802071695883 L108.570046865399 23.318680140492415 L108.17105113514472 75.0137107939767 L49.453993721140186 74.33187033390037" stroke="none" stroke-width="0" fill="none"/><path d="M48.27939843702417 24.180093176995506 C72.37709548118771 24.909202061049605, 95.84737402568464 25.665653680939148, 109.94867579545556 26.959840868438846 M49.63127387929921 25.954354030891494 C66.90241065301178 25.508149052726587, 81.68917670388518 24.411182277783666, 109.18967797217911 24.788075549561864 M109.73355255837974 25.214402709351162 C110.78123342236924 34.18046360675241, 108.94126065960057 47.83821103369951, 110.51347985334651 76.32839377638322 M110.92086037477598 25.078858238563072 C110.9757804754488 42.58271423873248, 109.32163426663728 61.5379732004928, 109.54117940790655 74.84959806766153 M109.3367359458039 75.8454940636577 C92.13215838670948 73.05959289609112, 72.59528249133733 74.1028000775991, 51.73541542949066 76.8091599163689 M110.64394414530528 74.82207989411074 C92.58855790769843 74.12614022001125, 76.61409805215122 75.00084639064737, 49.3072442730232 74.52773135207406 M51.27230331291108 76.62498896834647 C48.7590640655397 58.982606283860434, 50.361067403303565 46.25972746062779, 49.23939278301124 25.184861678846573 M49.79036579378859 74.9603734661498 C49.70807228830322 65.4801837848967, 49.544122601797945 54.71786975456654, 49.246669030855095 25.59634950360902" stroke="rgb(0, 0, 0)" stroke-width="1" fill="none"/></g><g><path d="M195.82432692657835 24.472913256684286 L267.980662264445 25.10809810165922 L266.1230320929881 75.74412330737239 L194.39278373380685 76.44249697574868" stroke="none" stroke-width="0" fill="none"/><path d="M194.2930391135891 26.495512332035478 C219.6454122120204 24.102709627067192, 245.43466162613348 23.29256579783874, 264.5368370418096 26.02363438159538 M195.59563830482617 24.6206526575929 C219.69810882176805 24.620232413948727, 241.17425081719827 24.38160252418009, 266.62995685375387 24.270706308273766 M266.45246549056213 24.92318803323394 C266.3312371457486 37.187439168958974, 267.303308728347 50.80301075802507, 264.8487560466393 73.14457186772655 M265.5928015897634 25.299599975607773 C266.06295455224006 39.401569787889876, 266.56622231593366 54.034185655680886, 265.4767777588057 75.6979149826802 M265.9596838308555 76.57436841261614 C253.63717905023137 75.11101267042002, 238.99855205544696 74.43385602787237, 195.64755529078025 73.76519926124232 M266.3537765315797 74.99893605183132 C246.5477180056468 75.51897455379878, 227.85027970203137 76.18220404604517, 196.4991002339039 74.45343506257768 M194.8264749686902 73.84039724111985 C195.08709859858718 59.214424766828834, 198.0752689209175 45.77200908420258, 197.8667878023659 23.503185331353524 M195.619474805408 75.69853945077533 C196.55259296305329 61.80159040648512, 196.4054825944848 47.67625013449132, 195.9528271899624 25.640017986219465" stroke="rgb(0, 0, 0)" stroke-width="1" fill="none"/></g><text x="80" y="55" class="id">id11</text><text x="231" y="55" class="type">tuple</text></g></svg>