<svg width="291" height="205" xmlns="http://www.w3.org/2000/svg"><title>Python memory model diagram showing objects</title><style>
        :root {
        --fade-text-color: rgb(0, 0, 0);
        --hide-text-color: white;

        --highlight-value-text-color: rgb(27, 14, 139);
        --highlight-id-text-color: rgb(150, 100, 28);

        --highlight-box-fill: yellow;
        --highlight-box-line-color: rgb(0, 0, 0);

        --fade-box-fill: rgb(247, 247, 247);
        --fade-box-line-color: gray;

        --hide-box-fill: white;

        --primitive-value-color: rgb(27, 14, 139);
        --id-text-color: rgb(150, 100, 28);
        --default-font-size: 20px;

        --highlight-object-fill: rgba(255, 255, 0, 0.6);
    }

        text {
            font-family: Consolas, Courier;
            font-size: 20px;
        }
        text.default {
            fill: rgb(0, 0, 0);
            text-anchor: middle;
        }
        text.attribute {
            fill: rgb(27, 14, 139);
            text-anchor: start;
        }
        text.variable {
            fill: rgb(0, 0, 0);
            text-anchor: start;
        }
        text.id {
            cursor: auto;
            fill: rgb(150, 100, 28);
            text-anchor: middle;
        }
        text.type {
            fill: rgb(27, 14, 139);
            text-anchor: middle;
        }
        text.value {
            fill: rgb(27, 14, 139);
            text-anchor: middle;
        }
        path {
            stroke: rgb(0, 0, 0);
        }
        .highlighted path {
            fill: var(--highlight-object-fill) !important;
        }
    </style><g role="graphics-object"><title>Tuple id11 with 3 elements</title><desc>Elements: id82, id76, blank</desc><g id="object-0"><path d="M50.69882840292182 24.515312904251257 L266.64207429686667 25.912841058385425 L267.0593718601227 156.99120737385644 L49.11249660619399 156.93753970481472" stroke="none" stroke-width="0" fill="none"/><path d="M51.52183855479863 25.054582966018742 C116.19665886866309 25.161775841470284, 181.33791310377484 27.65623785400647, 266.4107470701006 23.838684171359137 M50.12668911786412 25.68473065354237 C106.7879051494092 23.025791220249953, 161.5815513417116 23.607163037848093, 265.74638439558373 24.429055714806406 M267.4718710095676 25.952113814400608 C265.7362794485019 62.641025278471965, 268.80279326024294 102.83428327874033, 264.6342951171046 153.87671640507622 M266.31102715906184 25.682420843913082 C267.78036407689507 71.93330173758832, 266.81434616279387 119.11713099546321, 265.30116535789364 155.53549138173236 M264.3630179057522 154.68433813755263 C187.91226673208027 155.54479151450482, 107.02974621308688 156.62944943545077, 50.00839500182876 155.63864412544754 M266.29117290831556 154.80173276384016 C207.80400158333086 153.95507802990622, 149.7036120944587 154.47504057922364, 50.034816660106046 155.6934181481285 M48.44122456292296 156.56615128331163 C50.02093080861769 111.44136155624604, 50.19329325925057 65.39638276764663, 51.49023694137654 26.454227830579544 M50.93955007729188 155.83732870737035 C50.403532042231106 122.16487238040054, 50.880822944880656 88.24819926830263, 49.985548750934925 25.37981020328169" stroke="rgb(0, 0, 0)" stroke-width="1" fill="none"/></g><g><path d="M42.34087957073157 17.12385397373888 L272.68163095718864 18.542376903387485 L271.9494489243533 161.82858403668803 L43.74841721008277 162.49876786217035" stroke="none" stroke-width="0" fill="none"/><path d="M42.74059023724735 20.633885155048937 C121.19280760900273 17.039164778122284, 197.2769535564033 17.796356575278477, 273.64784990675605 17.9250063861189 M44.38883675394017 18.876844850966528 C106.27468587132206 19.42068017271308, 168.61266499077843 19.528108455425617, 272.4205527114336 19.80293360158094 M272.2254589164555 20.498132650675164 C271.60345001716115 63.125481481382096, 273.2335509024462 107.95906771487687, 273.27419274220944 162.3689350391112 M272.7889975839631 18.829353627324178 C272.58086218501234 48.96548890128431, 273.7491446820559 78.91694671092345, 272.0362878230863 161.51512841504132 M270.35242273848064 161.54359910516553 C180.20789712077334 159.34705624884353, 89.0294892306909 160.87074039627868, 43.53408878360545 160.85782183127395 M271.8101739064149 160.17865842239695 C195.06799325490624 161.09177391365463, 118.87636019671575 160.30496305031963, 43.56061180230315 160.5929227133838 M45.70636974507645 162.54648606281884 C44.06677784242122 131.48145786223964, 44.92418079962285 100.33097480349011, 43.24826027693573 19.520254257421467 M43.132096286209624 160.99554123459737 C44.68600227696443 104.98815392937239, 44.91494088149987 50.0747782394015, 44.70501890431732 19.077500643661704" stroke="rgb(0, 0, 0)" stroke-width="1" fill="none"/></g><g><path d="M73.69104482646797 90.10299432542412 L131.86796694459878 89.01335713594199 L134.5633786084967 140.90728622445098 L76.18607882775561 138.60811059004655" stroke="none" stroke-width="0" fill="none"/><path d="M73.66543050217788 90.37328255198933 C88.78625900201307 88.17757667935925, 103.81137239544887 90.48954641406733, 132.72437160593248 90.80461317033992 M74.26076886066535 90.26494412685003 C98.68654706053826 88.82656355198836, 120.30324635261498 90.18996217184956, 133.63280877650305 90.09127734289083 M133.82745805012917 88.67377322772917 C133.73278332295808 102.56389070300253, 131.24681898588594 113.20138102174121, 131.81808193270012 141.41138884829965 M133.39562185313562 89.9218931859407 C133.69681402850034 108.64340947443556, 133.67958821533372 125.14295732819964, 133.2258461422437 139.36467901941006 M133.98659407469984 139.54150170296936 C110.556083666147 139.48430350497955, 89.90287714964879 141.78450568022652, 76.06734014732038 139.44346355006252 M132.64357142023098 139.7507481706674 C110.41429479429152 139.7294566784193, 88.93005118249522 139.1957587802066, 75.22158915000882 139.1596573140293 M74.5766905854533 140.73510058328142 C76.20026386137982 126.10628588464407, 76.23357632509953 114.43051400643695, 75.46922902137466 89.30504853200283 M75.85967528180853 140.32015736026725 C74.070956305515 127.16090004134739, 74.22142150472557 115.40207445646972, 74.60776929647156 89.84199844519533" stroke="rgb(0, 0, 0)" stroke-width="1" fill="none"/></g><text x="104" y="120" class="id">id82</text><g><path d="M134.97151551081376 88.77906715051857 L192.1289239073039 88.82101907784525 L190.8607285243746 138.3181988443303 L131.40433620414044 141.1195181796489" stroke="none" stroke-width="0" fill="none"/><path d="M131.49883794649938 91.92763410425732 C150.11895833323018 92.09953611817168, 167.16303082062961 90.04338602916941, 191.11462641556938 89.81179833675118 M133.44277317647547 89.96811400625465 C155.42234669535105 89.5736023025023, 178.0727288691221 89.50437028119703, 190.85377628272346 90.43945468249139 M190.76021565112057 88.13502564002367 C191.8796543581184 104.44272059444161, 191.4986174823916 117.5987681685049, 192.7565904163923 140.9321982716864 M191.5711000281681 89.33636034544702 C191.42716758904209 108.56793603371153, 190.07120443985272 128.68453553376182, 190.31793029446666 139.70965817348093 M190.05651604324413 140.97414440949302 C172.46678035481796 138.26106705397916, 154.85175807141192 138.019938799702, 131.1386318286876 138.84468037175742 M190.47476842815607 139.14169691411482 C173.82794612539718 140.25670182257878, 156.8915017771173 139.60111534745798, 133.57517894598863 140.07128963434667 M132.13369649126733 138.1052293495744 C133.86945339393907 123.01862825161378, 131.90017598602213 106.53203046313453, 134.71055488508952 91.26518412993502 M133.4314067008747 139.3155069862671 C133.10331389445443 125.20496481400001, 133.29928431020994 109.2603937163805, 133.43822477230864 90.90951081013641" stroke="rgb(0, 0, 0)" stroke-width="1" fill="none"/></g><text x="162" y="120" class="id">id76</text><g><path d="M191.27424717525332 88.26371110378071 L242.21128001233038 89.3871719942125 L242.86171550004576 139.02434965676787 L189.42776760046016 140.73947570797299" stroke="none" stroke-width="0" fill="none"/><path d="M190.97938526442573 90.80340609130539 C208.63342874851955 91.26992343243641, 224.80573515301182 88.2630005067245, 239.4810725529446 89.87451671264154 M190.12835006888355 90.03556672744591 C207.58300659423634 90.00996945806908, 225.50704455433797 89.82238176210306, 240.9518809407937 89.17899922225025 M242.13873743079887 88.92835645837597 C240.89268193082987 101.7523759751221, 241.99320511694597 113.77466648969262, 239.2089723010704 138.64813145562306 M241.71788979519985 90.69512272112209 C241.69862160201532 107.50086072275913, 241.92851119246077 122.9870251213068, 241.8558636480388 139.01524224685642 M241.43974724973327 140.90447795864725 C224.10032738066351 140.66542083785464, 210.1291384789893 140.4973286814405, 189.60367671134716 141.4375631746587 M240.78986399829998 140.93723622936216 C225.1636725586226 139.20822793853344, 209.20017309661998 140.4246465335597, 191.66758225133643 139.06096341025247 M191.35186171463334 138.21442673740015 C191.91668445957663 126.21952041643314, 191.96765051325502 110.25267907266294, 192.35729424294993 91.71702153424839 M190.0992301008131 139.70927897808602 C191.2698058409443 123.24324277933587, 191.08913294116226 108.47538335829609, 190.68155296418138 90.5441697167366" stroke="rgb(0, 0, 0)" stroke-width="1" fill="none"/></g><text x="216" y="120" class="id"></text><g><path d="M49.58348936091955 25.917095707000204 L111.148014587577 23.90650190748219 L108.0036072493991 73.3897376708797 L51.947738119269104 76.03006846779402" stroke="none" stroke-width="0" fill="none"/><path d="M51.76407945273884 26.328639089753008 C66.24066512554138 25.52175715238466, 77.47443934328507 25.897450737956852, 108.73165540021034 24.143754369360803 M50.89477394431501 25.493695432400912 C69.22524947416733 24.20343704688655, 89.21698404961214 24.471950434974612, 110.71353474888835 25.53804006766941 M111.60257346686215 23.41180697729986 C112.0460930322213 44.1893852969826, 110.87033835467977 62.589687073024244, 108.74869064307909 75.36001306190485 M109.96054909950136 25.05261063371738 C110.08098099970657 43.37704169429768, 110.07113168244993 61.99837053660027, 110.68451099389375 75.76168100180833 M111.26672898645974 75.86464367706826 C93.62020094473436 72.90413380580331, 75.10145379245874 73.24405284196412, 49.336776395269744 74.5115800660071 M109.58231569930503 74.9588513071357 C93.6325239383341 74.77659525577643, 77.2100026699579 75.3709477398829, 50.48602406802259 74.54409374964142 M48.886815183059845 76.07680561926901 C49.398630635632585 56.434859218344215, 50.53767560082018 39.144119965230026, 51.40000692896571 23.382724738276853 M49.315118667398195 74.74360724934459 C50.19706493621083 61.97211044672416, 48.670892590765206 49.80355458850816, 49.527242751549444 25.558525729040518" stroke="rgb(0, 0, 0)" stroke-width="1" fill="none"/></g><g><path d="M195.70333804644184 25.592793293226514 L267.1390619279495 25.56265868447805 L265.15845401352885 74.91923741427479 L195.19271683068445 75.30286676788461" stroke="none" stroke-width="0" fill="none"/><path d="M195.8615484978922 25.767905896208084 C213.7165761725785 24.908362939703576, 232.1905772599961 24.200722940981215, 266.7589507709707 24.038063845142673 M195.07621207284572 24.64029126487924 C222.89363938927698 25.736714215511, 250.3621073205371 25.82587263335892, 265.17111885784055 24.421195027931365 M265.05698712864057 23.15808340965574 C266.61085190108633 39.34184923278287, 266.62364243968756 51.564065319879305, 264.3425936461401 73.79049179472592 M265.3138907586477 25.9464514682962 C266.56123091618156 43.21424874030502, 267.03635834238213 62.86176103180416, 265.409162663247 74.000882238784 M265.60805227811295 73.03194332781943 C248.70566971436884 74.51369209249646, 227.18433428822078 73.22225234075664, 195.49627311633827 74.46634153427257 M265.378025887385 75.30808249529109 C249.9963996670047 75.4268802959633, 232.7861671361635 73.87154423034025, 195.4038958911145 74.82850237673108 M196.62604673585147 74.48621064654216 C194.95488225737964 62.699402594164006, 194.69617735984502 54.116069951362206, 194.7684496197816 26.26378832994421 M195.01608132283295 74.5317931915317 C194.69836044488312 58.84876054729317, 195.685809485199 43.61848899436465, 196.59735964363318 24.836102498475363" stroke="rgb(0, 0, 0)" stroke-width="1" fill="none"/></g><text x="80" y="55" class="id">id11</text><text x="231" y="55" class="type">tuple</text></g></svg>