<svg width="1300" height="957" xmlns="http://www.w3.org/2000/svg"><g><path d="M641.3441219925969 100.19832793620594 C651.2765698138261 99.49142250503115, 664.4229600152848 99.75473955762725, 689.7263925313172 101.90269751305844 M639.2482692477934 100.93411951817241 C653.4191389533636 98.99959201101342, 664.8575768105137 99.86309397096046, 690.27101599969 100.33076562070518 M691.2185264959695 98.85738913356028 C689.580807583526 116.16620505416108, 690.2427497021592 131.27561470387465, 691.6477962992567 148.69816530640574 M689.7420560367912 99.39320532675323 C689.2003433085554 111.03573917560698, 689.3668424073289 122.9390586227114, 690.296588549482 150.83685065575773 M691.6528009844208 148.72930543978572 C669.9822408618495 149.48904769227246, 649.5271336976494 151.28469415354274, 639.226230016289 150.5449596189625 M689.8398370277927 149.64318664750888 C679.9585396221131 150.5111908140674, 669.7265191266706 150.23882290100562, 640.2194659358868 150.87117645066795 M641.9241393115647 149.0895372222654 C640.0318839224368 132.23881427664355, 639.101453609257 113.42102248220273, 640.0235459564071 98.38632728169131 M639.0301536472855 150.72506437099915 C640.6582924457215 133.84966136813088, 639.9792687273302 118.24189629722072, 639.5162748142062 99.11712309339957" stroke="rgb(0, 0, 0)" stroke-width="1" fill="none"/></g><text x="667" y="130" fill="rgb(150, 100, 28)" text-anchor="middle" font-family="Consolas, Courier" font-size="20px">idx</text><g><path d="M641.8191594692983 175.48055256874187 C654.9263219731679 175.15111504986604, 671.245704303885 174.6279802951561, 691.9467111261049 174.34521381752492 M639.4459868293137 174.17544696696638 C658.637300160174 174.52113454336657, 677.3796407973932 175.71613420390983, 689.51871580011 174.68021152467736 M691.2520464141886 175.25742308868283 C691.2662369200765 193.15747164546917, 691.3289441597426 215.19882395930097, 690.7326524310155 224.27358438567288 M690.5323871540305 175.96594790396944 C690.3354162248816 187.77236304139987, 690.7276002454362 202.4530826193417, 689.1123577339844 224.25705638795625 M691.4176993996068 224.04227555746144 C676.4548286364446 225.20801963935222, 662.7310625167664 225.4710175285742, 641.6891205154075 223.1210906160704 M689.5664843843953 225.0192567460132 C670.2635465619119 224.39643836026428, 650.4906199609554 224.47500217003682, 639.6992612067597 225.4043995582959 M641.7231043552199 225.59493404108974 C641.2241548705834 204.16381769542625, 638.7530312075903 183.19964690861886, 640.9847238810003 176.57166879818766 M639.6090957160872 224.56894892568124 C641.2013590848104 209.80981596620097, 639.5865568036571 192.6721875368996, 640.4662669973765 174.3570396220251" stroke="rgb(0, 0, 0)" stroke-width="1" fill="none"/></g><text x="667" y="205" fill="rgb(150, 100, 28)" text-anchor="middle" font-family="Consolas, Courier" font-size="20px">idy</text><g><path d="M638.7641589315966 248.03188875944556 C649.6761287551008 250.05383748944212, 663.3605770526451 251.8512250171677, 691.0047139432149 248.22688397799328 M640.8351476471606 250.34958957523108 C659.9976060962923 250.34091141769605, 680.3606445410583 250.26289350982745, 689.0114555553791 249.54458236518508 M691.8469148361104 248.11658699860612 C690.9060426478749 263.41802394132776, 690.0696775997521 276.57464826069264, 688.6580044019867 300.6084099266513 M690.6336817915543 250.69375058851912 C689.6536976539326 270.11786428150555, 689.3996675585846 287.77388844583345, 689.6304927125091 299.9906551958736 M691.4873978481677 301.171368303264 C673.8274470488952 301.4724918384461, 658.201853147825 300.68958179631977, 638.9135083245014 301.598877644416 M689.9105211402843 299.1952260304665 C671.1494383837395 298.8982158751392, 653.673103881923 299.2805952526454, 640.9361070415717 299.73230717961957 M638.9329928725966 300.7179653904521 C638.8211105626119 280.6259724372147, 639.889013168502 264.71196216479814, 640.0121076651625 248.32062962980172 M639.5206905647814 300.7768084972893 C640.8345677453766 286.58089378135594, 639.5758211498126 272.5119549740204, 639.2884539669382 249.1317262642791" stroke="rgb(0, 0, 0)" stroke-width="1" fill="none"/></g><text x="667" y="280" fill="rgb(150, 100, 28)" text-anchor="middle" font-family="Consolas, Courier" font-size="20px">idz</text><text x="721" y="130" fill="rgb(27, 14, 139)" text-anchor="middle" font-family="Consolas, Courier" font-size="20px">:</text><g><path d="M741.1473947843353 98.20076139477128 C754.4497632303361 99.75602531530544, 763.6421970758051 98.99371885935375, 800.4644256125406 100.21678715460214 M741.2445635733076 99.22787381343724 C753.2927003516479 100.32386261361953, 767.0367698930569 100.6152533376913, 800.1237594461068 99.28589653609357 M801.9933080903495 101.70528526615556 C800.1738823167871 115.24177707248987, 802.510891733615 128.86061992184446, 802.2911058234271 149.69689302547286 M801.9258082616197 100.23348298617296 C801.0837723778387 111.86243499947122, 800.9378907114428 122.71094031584008, 800.7325484411418 150.25099084619362 M802.2522835919558 148.24138814822612 C778.4095597252685 149.20569110522862, 761.3483400823827 148.59121503694922, 740.6640699838779 148.51088544204225 M800.0161081919317 149.23621858532658 C778.1893726735128 149.43484019018553, 755.958514515143 150.65086327367004, 741.3564159076642 150.1807789677827 M739.10400318034 151.15828199309277 C741.8698147677746 132.98515024143862, 741.6982222085118 118.07557690100099, 742.6216144069466 98.09023863497666 M740.1902687902647 150.4465485604807 C740.6143873252253 138.3227795393161, 740.3856134297408 129.37376788088247, 741.8962696650048 99.86011730610146" stroke="rgb(0, 0, 0)" stroke-width="1" fill="none"/></g><text x="771" y="130" fill="rgb(150, 100, 28)" text-anchor="middle" font-family="Consolas, Courier" font-size="20px">id81</text><text x="721" y="205" fill="rgb(27, 14, 139)" text-anchor="middle" font-family="Consolas, Courier" font-size="20px">:</text><g><path d="M741.5413505046466 174.59668745052738 C761.2750395411716 173.20156370870075, 779.6728127946135 176.38491068181006, 811.0543734391193 173.6359700896961 M740.4106299470011 174.74425135107555 C758.2236766828443 176.6008063461992, 776.1711588334178 175.6756496370145, 812.2614306247816 175.69728339020423 M811.0204243527576 173.28716910552242 C813.3563233837598 194.4087312083674, 812.6561531136535 210.52382293544613, 812.4539001469611 223.37903999040302 M813.7130357390748 175.38573828762034 C813.2126613167359 187.7686544019463, 813.2738103702695 199.9729804871609, 813.4883536465967 225.98658581132867 M811.0971118699074 225.3062438400353 C797.9800998026107 226.849248955102, 783.2411634056391 226.48562374258498, 739.908977223563 226.2941794612412 M812.7200464492631 225.72403908646675 C793.0793818853548 224.67114857982205, 774.7808723051912 224.63216286150492, 740.4713531989258 225.51270549393112 M742.3788043344024 226.16063225826582 C741.7419859933766 209.80916456542369, 741.0111673072234 194.12408562580495, 739.9274249353701 173.9516766701282 M740.2313010007541 224.39198413103165 C741.6312200765814 209.79776989261924, 741.2533398248514 195.6071710123249, 741.2787021701714 175.40367517163168" stroke="rgb(0, 0, 0)" stroke-width="1" fill="none"/></g><text x="777" y="205" fill="rgb(150, 100, 28)" text-anchor="middle" font-family="Consolas, Courier" font-size="20px">id100</text><text x="721" y="280" fill="rgb(27, 14, 139)" text-anchor="middle" font-family="Consolas, Courier" font-size="20px">:</text><g><path d="M741.691387808198 249.2500299973479 C767.6199740295875 252.535451456991, 791.3816376906626 252.2843160321274, 811.2940936915986 249.93027186923933 M740.420061962043 250.9236818340637 C759.2539232685366 249.73045907121514, 777.711263598214 249.58071679731555, 812.9516893176062 249.23783112941382 M813.6905742029776 250.89229405760568 C814.1371137329112 264.61156497077224, 812.8948341283308 279.252083768381, 813.1980860603346 299.44624641933893 M813.703516096661 250.0273671275781 C813.9869173314864 267.7158397590737, 812.8908780737206 287.1545739074288, 813.1100061889891 299.45521626499675 M814.2093099062805 300.8845553118565 C788.4560285461398 300.67295046210256, 765.9848273772483 299.46680630406274, 741.6482212757173 300.07566091740154 M813.1147286251594 300.4010307375687 C786.8117698516114 299.72064339499457, 760.7502415696048 300.02179866730296, 741.6702487602757 299.40340538811586 M739.3394235107527 298.3379120053706 C740.8779821799022 285.7569461823544, 739.9707154686628 276.84775188332105, 740.9033053689493 251.36929572415892 M741.5760512345912 299.11564732887933 C740.4038167948539 284.88222745755473, 740.3809546037726 269.5400929434143, 741.4867871965849 250.13921892959905" stroke="rgb(0, 0, 0)" stroke-width="1" fill="none"/></g><text x="777" y="280" fill="rgb(150, 100, 28)" text-anchor="middle" font-family="Consolas, Courier" font-size="20px">id121</text><g><path d="M614.0336939350705 26.678984424693148 C669.686426097904 22.48170278326152, 724.9495911830078 24.828839937302966, 825.3949071447789 23.833012450652813 M614.9442227333551 24.226086260002937 C665.0468216578572 26.44283647072509, 716.4116575764295 27.000980911644536, 827.5343939628259 24.593025524662746 M827.7683588812472 24.36108488723454 C828.6444101671955 138.15275613912894, 827.0764995363895 251.99234186162286, 826.4984230977099 325.42750024671057 M826.9982674849401 24.293560486268962 C827.6269470940584 87.85451140703456, 828.3043472592219 150.78424898471567, 827.6240228491635 324.2881068716864 M828.1720048408583 326.723234593542 C769.651603687669 323.04959083944397, 713.7577457580329 322.7971102933341, 616.6457909182317 326.03270701796424 M827.4835872778491 325.44225539159174 C752.9103189817781 326.71908523754837, 678.0801285013362 326.42184744554675, 615.8265303218474 325.45603503905994 M614.3976591121838 325.0194272054182 C614.0565517181955 213.93723995024024, 613.5677401500552 102.01533886814279, 615.9345485999182 26.447124481421792 M615.2039115743731 325.2054761299775 C614.2876625584083 263.59092208996634, 613.9871226328339 203.39427838787142, 614.8010832997917 25.718679796359087" stroke="rgb(0, 0, 0)" stroke-width="1" fill="none"/></g><text x="645" y="55" fill="rgb(150, 100, 28)" text-anchor="middle" font-family="Consolas, Courier" font-size="20px">id10</text><text x="797" y="55" fill="rgb(27, 14, 139)" text-anchor="middle" font-family="Consolas, Courier" font-size="20px">dict</text><g><path d="M615.0418704803009 25.462814434685548 C633.793768044115 24.878586740210984, 649.6080016525505 23.55550573902607, 675.2986440295491 24.973692842051413 M614.9659010096717 24.568404452728466 C632.1063756645005 26.054952844736796, 647.9635061933786 26.167099210149196, 675.2710681698911 24.1690076389101 M673.0727364600898 23.202296205035115 C676.7992738192428 40.46513984169154, 676.0835553001646 56.833190058676934, 675.2058220155451 73.11620319508705 M675.9505969756307 25.313757526305782 C675.5361999811726 35.95426368665354, 675.5495988388578 46.73752698830323, 675.1596709308562 74.22156897459465 M674.2427311845387 73.4010073744871 C658.7461094957973 73.00395920752834, 645.9361091593989 73.82175989920589, 615.3069663272952 76.3160534187822 M674.0844830813976 74.58507605410249 C658.0323865692012 75.14458175386977, 642.7299640940715 74.14050810130492, 614.2881230755561 74.20427256285846 M613.6285224221025 74.34514204378047 C614.0209731462801 54.259323492843336, 616.6313054497982 35.14636974078252, 614.8210419258866 26.271005475208298 M614.8431377804068 74.77886874757893 C616.3825453568644 62.23953714898584, 615.7976391168289 50.59400987538034, 614.0770283122836 25.734160987030357" stroke="rgb(0, 0, 0)" stroke-width="1" fill="none"/></g><g><path d="M767.2227461639152 26.56183940364468 C784.9595921184556 24.336657824580183, 801.9182852505841 25.176725734089764, 828.3310994978161 24.337500160542923 M767.0616819687475 25.502873004383087 C787.3591636181657 26.097095031109262, 806.3145344545582 26.29144707439016, 826.1475709914855 24.841887866857178 M828.7958189996775 23.16618208044845 C828.5165578940104 40.09587791640377, 827.9858075661109 53.6945402521003, 826.6973240158044 74.52487746806305 M826.2429939122594 25.2583789570308 C826.3560025263417 41.518280324218274, 826.9513662937029 57.12424280583224, 826.0630101735688 75.67835872281562 M828.9840299367215 74.06220927286664 C805.002849399985 73.9253069633877, 783.0980103920715 77.40978135750112, 768.0238163218428 73.93020821098841 M827.5334479157204 75.76002043217126 C815.1573329469765 74.80713519316369, 802.9061741679957 75.12327430930637, 767.7196298725959 75.73898278108167 M765.4841084652691 73.60366562072431 C766.7019877944374 58.079779603937745, 764.8307388469955 37.973014251715504, 765.5876065345685 25.255666101996752 M766.5033521277046 74.21858394695583 C767.9978318652326 55.93148843457835, 767.8013392459186 36.09010574741846, 766.2581439388632 25.820558791672163" stroke="rgb(0, 0, 0)" stroke-width="1" fill="none"/></g><g><path d="M840.9915163096226 25.63123498900676 C894.1344818500402 27.75678802617573, 947.8354970183449 26.967101350485045, 1039.90562722629 23.74679612347156 M841.1750998031539 24.900175627855507 C914.6154707376504 25.9980791688042, 989.533603493256 26.47175888232884, 1040.110799960356 24.788595224220373 M1041.7145788251407 26.661041502319765 C1042.0704017782036 111.60406249393468, 1040.9857014080642 200.8320222462196, 1039.0368355369617 250.3311075470026 M1039.1869676877993 24.760783549776285 C1039.8564919098255 95.2336871846235, 1039.456983485922 166.4449575201182, 1040.1461793966441 249.39145447241643 M1038.3001032078578 249.45730160162276 C987.0273404659808 250.3883521963472, 933.4641964601823 251.44882297490858, 842.3715876959146 251.99128904014242 M1040.139299844605 249.79563054463534 C972.0170840371079 250.95419982550513, 906.2808782070055 250.54055863532844, 842.4642378937376 249.0456261966546 M843.7001227393267 249.04160069066936 C844.6750387218866 171.50161155295518, 843.860187876323 93.16063463133062, 841.1627328329121 26.254448585372828 M842.2896544301507 250.53186885891392 C841.1628723634858 175.49380488066376, 841.2805306899012 102.50206661031491, 842.2553381317315 24.684937589169692" stroke="rgb(0, 0, 0)" stroke-width="1" fill="none"/></g><g><path d="M966.3056021192689 99.28393521608864 C979.2373387869833 97.84301705656667, 992.0347480262329 99.42978053346717, 1022.6625703236466 101.81600376401398 M965.5455353613261 99.85769870763743 C981.7989660665817 99.92385509077037, 998.4525762547854 99.18640008330895, 1022.7688655180682 99.57689931622396 M1021.9349408392324 98.18359004882231 C1021.4603215809844 115.15228124376722, 1023.6277898995749 130.74864255573746, 1021.3633750280189 148.3235178135717 M1023.3006946030563 100.33050540964464 C1022.1000503654732 116.73346865057572, 1022.1341425287935 135.75476501648566, 1023.8241677943727 150.54895085874944 M1021.505479390077 148.9313322113494 C1004.9993568601359 150.7509140280375, 985.6548444577086 150.2505958376984, 964.677099011353 151.5974965893636 M1023.25249541167 150.5540025930528 C1005.3809033753632 148.73710342566946, 986.9342728215639 149.91550467519852, 964.0381355463032 149.9775149490504 M965.9113270305662 151.44162136929117 C963.6473590994664 136.65481831332843, 966.6822525932896 123.65193944696158, 966.8370936779075 98.08891408905716 M964.3510448567658 150.905369180669 C966.1673456652455 135.43770735352814, 965.1781129602409 122.74113370466434, 965.0708330635365 100.04546082257289" stroke="rgb(0, 0, 0)" stroke-width="1" fill="none"/></g><text x="867" y="130" fill="rgb(0, 0, 0)" text-anchor="begin" font-family="Consolas, Courier" font-size="20px">age</text><text x="994" y="130" fill="rgb(150, 100, 28)" text-anchor="middle" font-family="Consolas, Courier" font-size="20px">id12</text><g><path d="M966.5268179279578 174.29963958863763 C979.4299463551478 175.4364991907256, 994.2890718019297 176.4991160262327, 1021.1380955538918 173.2539771857013 M965.2020180065549 174.45204362282138 C979.933093466784 175.25610807598645, 996.2687429164156 174.09716890164844, 1023.2579374001054 175.79853760318338 M1022.5610970787877 173.21277021713973 C1021.8669345283328 191.55252893919427, 1023.4112205852084 209.21724460149622, 1024.1166519844833 223.6209565848294 M1022.2973055529926 174.55850186663776 C1021.6846116060096 188.4015776535747, 1021.5393233420796 201.93815387433318, 1022.1087375393404 224.433848736997 M1022.8384724649965 226.9759577758351 C1012.2425523180351 224.35835637661117, 997.591463130347 225.76769074207238, 964.471946674499 225.2613954825846 M1022.0849976509201 225.03641591627007 C999.7863192859525 225.4395949653109, 979.1154775192294 225.67634963271635, 964.2886680011045 224.97342843362327 M964.2151335628063 225.9159079031847 C965.3236023019816 216.09626342017788, 965.4251230537071 202.21779862888252, 963.737410346358 175.38800029706977 M965.9639300450469 225.54163729701705 C964.5152214947319 208.03064325603128, 965.2475970125879 191.31273069329453, 964.0145696507428 175.36693603608612" stroke="rgb(0, 0, 0)" stroke-width="1" fill="none"/></g><text x="867" y="205" fill="rgb(0, 0, 0)" text-anchor="begin" font-family="Consolas, Courier" font-size="20px">name</text><text x="994" y="205" fill="rgb(150, 100, 28)" text-anchor="middle" font-family="Consolas, Courier" font-size="20px">id17</text><text x="872" y="55" fill="rgb(150, 100, 28)" text-anchor="middle" font-family="Consolas, Courier" font-size="20px">id99</text><text x="999" y="55" fill="rgb(27, 14, 139)" text-anchor="middle" font-family="Consolas, Courier" font-size="20px">Person</text><g><path d="M842.1825757660944 25.84379826267903 C856.9971780562162 26.229784284977598, 869.9615925427304 25.92149141486254, 901.4916868453356 26.369743378566977 M841.3797155282207 24.09397695654413 C857.3018412832016 23.731479246856537, 873.4678575636326 24.599580228330886, 901.4555643348831 25.22437282850283 M900.9948888758064 24.13558250266845 C901.2688412554724 43.06827138768862, 903.4001780997537 58.16917551946711, 901.1951895577682 76.08181260382865 M902.7264008604986 25.001514879038254 C902.70448596019 41.17478689912589, 901.0003710564524 57.64495433998252, 901.8456428534029 74.98478706941708 M900.884584811988 73.31498758820327 C884.515979371795 74.8262130117381, 868.3684508053323 77.41233621107024, 842.7997384286052 74.70656116551497 M902.6026394222466 74.94864552691509 C887.3278637544875 74.23423121388409, 873.0689688485414 74.98695475258012, 842.3410902293052 75.44856114720567 M842.6674914361585 73.65435436304551 C843.3960938301751 59.374194628141495, 841.079901634818 39.8786299892041, 841.4472938787636 26.53132768751418 M842.8839673929684 75.75747344095417 C840.9368138764005 55.11969472511526, 841.9385861949607 36.30978448409312, 841.5317061917748 25.337650409087566" stroke="rgb(0, 0, 0)" stroke-width="1" fill="none"/></g><g><path d="M959.1596495585537 24.51918099936124 C982.7905571849702 23.746462060833935, 1008.7947058278353 24.51949230711071, 1041.7233592901673 24.98946860918429 M957.4485686656107 25.146279331963072 C987.7084695220278 26.083312706668288, 1015.6872351664146 25.744370299173475, 1039.9694258843772 24.39720605614437 M1040.0583214803692 26.280528485069098 C1040.767614198238 35.9715995722076, 1040.6451967162302 47.62470374168478, 1038.2380869252736 73.16544089487289 M1040.2753709863296 24.473144898610393 C1039.2239394162252 37.2197763079097, 1038.6162196625012 51.40179764591646, 1039.87709632422 74.50818273140573 M1038.1885899928532 74.64663097428736 C1018.8073536349004 72.60247771495847, 998.3775555656935 73.46340518246575, 959.6294627959496 76.11468477237592 M1040.9947318888032 75.97010991530793 C1011.0386413647592 75.53436487910854, 980.5543891274482 75.88732064689506, 957.8181279462686 74.07198095038028 M958.588469928938 74.85588845640639 C958.9278250490518 65.5017250448383, 959.4592231972805 54.980437646565925, 956.6294341586203 23.610137393698565 M957.1732945355734 75.31722693116156 C957.4455888124477 60.90011808050371, 958.3263719761538 47.298832034847194, 957.596661888455 24.93642700947015" stroke="rgb(0, 0, 0)" stroke-width="1" fill="none"/></g><g><path d="M614.9724358414807 340.0825745139781 C695.5655777415309 340.51060177265356, 776.0438631620605 341.74767662503587, 896.4792426494604 340.9811563855137 M614.6903675295476 339.8436260956699 C694.7861716455016 341.06508059434424, 775.534612013845 340.9396495815544, 897.5054389165554 339.6365844395721 M895.0677582852145 338.46296563079636 C895.1448820697277 372.81178048408725, 895.1712076475202 402.5697878251742, 897.8406471688368 491.32848932873964 M897.4279418852892 340.7341625794306 C896.4156808274037 399.50682874393175, 896.2425643701482 459.5536478760797, 897.4842479612865 489.77712947625906 M895.6176641447237 490.21032985168785 C829.2784255776704 488.3992905588183, 759.9802183011467 488.0493600812329, 615.8172635642134 489.2385801775819 M897.2771283442336 490.19775046796155 C796.8897692573969 488.6266305464442, 695.0886144407926 489.50480595075237, 614.4750717231507 490.1590639543849 M616.9484144745192 491.2998344668594 C614.9315730235892 440.33209107499346, 615.3638663186732 390.58246595407127, 615.6523198014113 340.90676001896514 M615.0647574606994 490.34610561775435 C613.1553411671704 445.5306983671306, 613.1376574200925 400.6293677699043, 614.781788634276 340.2701649290048" stroke="rgb(0, 0, 0)" stroke-width="1" fill="none"/></g><g><path d="M640.0925703738563 426.39472161751576 C661.7493136382202 424.38370729044067, 685.9219561922487 424.45396485616607, 697.8928321290944 423.1155234200498 M639.3724144707867 425.7535194594726 C661.3592138635532 425.13517556328134, 681.4491763564888 424.5668148653564, 697.9610361860092 424.3992890105684 M699.7672772718743 424.8135593263265 C697.9251706427025 442.2236538601945, 697.5699838362535 463.8477883524537, 697.9907863663126 475.13589256965076 M698.9156738116202 425.60900962667 C696.9478551652418 443.8030714935605, 697.4572282343489 460.8513060779182, 697.6873711233351 475.89262412162094 M696.321047817774 474.32748018067207 C683.0593286511319 474.00212990521317, 664.521269525632 474.60176319024225, 641.9743100340633 476.6437355662259 M697.8647605034498 475.0614870828332 C675.8978168006174 475.82152844748845, 652.7167342077388 474.2341074969714, 639.5081794447077 474.40167578545606 M638.2588465484853 475.0391687894683 C637.906591213951 463.4004351405092, 638.9530449432339 451.9257274734363, 641.9063618445966 426.3412051426834 M640.7857683956929 475.93498624662567 C638.5375897228678 458.20583018380324, 640.0442627680422 443.7925338976596, 639.4694636138789 424.50042071812436" stroke="rgb(0, 0, 0)" stroke-width="1" fill="none"/></g><text x="669" y="455" fill="rgb(150, 100, 28)" text-anchor="middle" font-family="Consolas, Courier" font-size="20px">id32</text><text x="669" y="412.5" fill="rgb(0, 0, 0)" text-anchor="middle" font-family="Consolas, Courier" font-size="20px">0</text><g><path d="M696.0461324521102 425.119068923792 C712.4184240872529 424.6171350973921, 721.2025163181379 427.29913117285264, 756.6000772979941 424.9751325263249 M698.319850278883 425.4390719554869 C710.0065952804755 424.2211175621228, 722.2398760662237 425.1658231341755, 755.6170089353365 424.8365980079831 M756.4536805267912 423.3122138753177 C758.3363507995049 441.620082277558, 757.5635537798654 457.60923550846553, 755.4585543086122 474.6738756680508 M756.3383405276297 424.84800111495935 C755.537587247033 436.66051922625076, 756.3466692458065 449.08997803574454, 755.4455570653258 475.2959207777593 M755.4053030772183 476.43908478621813 C735.328549675261 474.46204763393484, 713.1029954331518 474.544375205594, 697.5492627088746 475.0204860683347 M755.2026099584605 475.9332804041311 C743.9216386974875 474.90878185340904, 730.79806782197 475.7302140771012, 697.713048508945 474.88689202681786 M698.598268672639 473.2788664138243 C697.7180703536626 460.35251269813585, 699.5420963345407 447.91992621390847, 696.9058601682758 423.93582941951047 M697.9914758742608 474.2678892173649 C697.4621875561918 457.2636267771697, 698.495440240074 439.04359053778256, 698.6391361437096 425.8779467010975" stroke="rgb(0, 0, 0)" stroke-width="1" fill="none"/></g><text x="727" y="455" fill="rgb(150, 100, 28)" text-anchor="middle" font-family="Consolas, Courier" font-size="20px">id10</text><text x="727" y="412.5" fill="rgb(0, 0, 0)" text-anchor="middle" font-family="Consolas, Courier" font-size="20px">1</text><g><path d="M754.2897935324581 424.0440721269418 C777.467478842118 425.7410897148172, 798.7325154725085 425.444910594832, 814.2482920647691 425.54825140994967 M756.2561636425177 425.97123939360006 C768.1933543701317 424.9604643268246, 782.2405983166897 424.56158725120105, 814.3575522968787 425.90679748799045 M814.7658178468358 425.88515378696326 C813.4096995155201 438.0862864016994, 814.5445902093415 450.60027640332333, 814.6758872053554 476.2445552061414 M814.1234215869151 424.88301629159736 C812.6958075274623 439.2873609399831, 813.224857792486 454.258682611869, 814.4849699024816 474.3212164125266 M813.397732061068 475.11595262300835 C798.2010651690995 475.7861463258004, 780.6449810056464 474.4381665318433, 754.4260691895862 474.2516375177718 M813.7097644902879 475.91907623320515 C799.1906182009405 474.32526776200507, 785.0832768666605 475.073415035598, 756.7653115745851 474.31749168421277 M756.985259885483 473.00128528288656 C754.8445472403332 454.24381132586075, 754.2083451254045 439.28443291714075, 757.3277774056876 424.60144534433346 M755.4682761432953 475.51155428168306 C756.9866106697581 455.65652412042505, 755.5111641072986 435.9741614024329, 756.5470747908181 425.97775225380616" stroke="rgb(0, 0, 0)" stroke-width="1" fill="none"/></g><text x="785" y="455" fill="rgb(150, 100, 28)" text-anchor="middle" font-family="Consolas, Courier" font-size="20px">id90</text><text x="785" y="412.5" fill="rgb(0, 0, 0)" text-anchor="middle" font-family="Consolas, Courier" font-size="20px">2</text><g><path d="M813.3674732861044 426.7001284150449 C831.8963665965209 426.94548837289125, 845.6342216358871 424.92204635993164, 872.461461426427 426.93750201735327 M814.0121026078499 425.84624774317456 C829.6705328788594 425.54438473830487, 845.2006557501032 426.00144812328125, 872.3212623882476 425.3808910451458 M872.3027078695065 424.57454861932223 C872.4485638048031 442.5325384375829, 872.5272759797833 454.9925514238819, 872.429119177518 476.7043005705228 M871.1793342401638 425.4027778347976 C871.4319450677358 441.0041699037397, 872.6616291125756 458.4356886289154, 871.1484473488646 474.15247361547824 M872.2260343818456 473.71920043566126 C858.9147317154358 473.140485957992, 848.5327648760281 474.76365335640537, 813.9766275118877 475.42539140725995 M872.1776090201172 475.60807328379417 C850.0309816018345 475.5694138284243, 826.1611555928284 475.8870968662544, 813.382272226059 475.6934850394412 M812.1189959539448 476.44635170139577 C814.1909028470452 456.847135602134, 812.8228506132729 441.04264278832466, 813.4475125790964 425.9117189789605 M813.8676817039486 475.90930718421083 C814.7844169978425 459.16043639695965, 813.6805790781193 444.46647262019934, 813.5404220472923 425.01231587715006" stroke="rgb(0, 0, 0)" stroke-width="1" fill="none"/></g><text x="843" y="455" fill="rgb(150, 100, 28)" text-anchor="middle" font-family="Consolas, Courier" font-size="20px">id57</text><text x="843" y="412.5" fill="rgb(0, 0, 0)" text-anchor="middle" font-family="Consolas, Courier" font-size="20px">3</text><text x="645" y="370" fill="rgb(150, 100, 28)" text-anchor="middle" font-family="Consolas, Courier" font-size="20px">id84</text><text x="867" y="370" fill="rgb(27, 14, 139)" text-anchor="middle" font-family="Consolas, Courier" font-size="20px">list</text><g><path d="M613.4343520316532 341.73494321107194 C634.6064573010075 338.8235056805422, 657.6887920614067 341.25633637121166, 676.5251618879286 339.5637475543502 M615.3993034084245 340.62125536206474 C628.4748296461763 339.32518818492986, 642.531638708541 340.0959643330971, 674.1266718211358 340.4000473037504 M674.3930189575681 340.9820833394044 C675.0962954619152 358.6712774705683, 675.6267663409328 378.31882154412995, 674.5267613830808 389.76758209686017 M674.1487429087014 339.3532065976116 C673.8535765165044 359.69483964448756, 673.8297019120301 377.3842460455993, 675.9668874322199 390.96593071035323 M673.3541533583856 389.00513969746964 C661.4038920082221 389.4574321189072, 646.0953917254669 390.1879505730947, 613.5029511106978 388.42706790610293 M674.9648003817455 389.31752443501665 C659.259781725947 390.3115959439452, 644.9367103663009 389.80605204280334, 615.7180892557503 389.3821500333508 M613.3036068316561 391.70379007142054 C615.8322076395241 378.19067606783545, 615.2514311288571 364.96135661206074, 613.9503806144435 341.01100482711195 M614.1421899780187 389.1283200428247 C614.2117879756174 374.128542093194, 614.3556619641295 359.26169425054087, 615.0566207896616 339.55028981848704" stroke="rgb(0, 0, 0)" stroke-width="1" fill="none"/></g><g><path d="M835.9136920066837 341.1865494124013 C847.2747260333143 341.0516842662115, 859.8659012104317 341.4933174861652, 896.5030544466606 340.3326178031429 M837.5051653252455 340.1445209235853 C854.4908962654109 339.4450083545559, 870.6435416440199 338.6201598439884, 896.5394338421025 339.3755522963761 M898.2300050275189 339.7257991271391 C897.8946118980163 351.449826869904, 896.9987925763453 368.102685065167, 896.4058241119994 388.4836006156097 M896.6629229942592 340.33917034597255 C897.9582465017608 355.7357301493985, 896.8779458329986 373.17623503007104, 896.5184348334213 390.92238734206126 M897.6387131104442 391.8710243474341 C874.6816726962005 390.547890193742, 856.7542709957256 391.605664068261, 838.3296950103887 390.81569319758086 M896.8999771560764 390.5916063247843 C878.2437537431737 389.7358601828765, 859.0710461168628 390.6749892134694, 837.3980429888351 390.3373782178279 M838.5859250187257 391.08858638175735 C838.5318600415337 372.19936447489494, 835.5044251551811 357.87302140742565, 837.2893152072522 338.6430310560946 M836.610479579168 390.34378573209545 C836.9808504877088 377.39893020187003, 836.6354516472128 363.9335870855491, 836.4815351411615 340.90876469374115" stroke="rgb(0, 0, 0)" stroke-width="1" fill="none"/></g><g><path d="M911.1682544370135 339.602727326138 C957.180427477477 338.33174997219623, 1003.1988798497302 339.51504455715553, 1112.2243520337236 341.23311599423226 M911.3081593467477 339.495235284412 C979.8724499325147 338.81908263481165, 1049.061570812543 339.30823916642163, 1112.0439475087173 340.7706917551442 M1110.2778498345006 341.87907519801286 C1111.4403121323653 380.1928573699644, 1112.2592446738226 418.16569974487953, 1113.0444320624883 468.56301056666484 M1112.1689592521748 339.83983661042845 C1111.0112949694087 387.12470423384457, 1110.5997496030323 432.3888022961963, 1112.7169016761593 470.75137714828855 M1111.0853719432437 468.77527194332424 C1061.2680216124381 469.38853356241907, 1010.7969037768631 468.4409058996, 913.7909926787246 470.4098872864027 M1111.2453968372251 469.31744495541426 C1051.5162203938694 467.71737676946697, 990.8955524811064 467.9211344524587, 912.1566518001853 469.5113124113428 M912.5663787878511 471.717016560498 C910.974091228395 442.59448410974215, 911.8922978851707 417.19597974894185, 912.620706716989 340.02414969337786 M911.9286199244159 470.8866832687141 C912.2690989710203 422.4175658792001, 912.0761425722983 376.43992980627917, 912.1036829101107 339.15553166753926" stroke="rgb(0, 0, 0)" stroke-width="1" fill="none"/></g><g><path d="M904.9532996974815 333.0559807139138 C964.0445465202649 332.87074004378076, 1023.8943316071325 335.2032052591245, 1117.0837486241157 334.75524030867797 M906.2478397374763 333.6090900464724 C981.3035086529118 333.4316007768528, 1056.0726610767476 332.36199397882973, 1118.3337129273668 334.39900128689027 M1117.0811467998124 335.0068564069818 C1114.6469303088486 369.1732612319515, 1114.7922715018906 406.5100954818572, 1116.1625181400361 477.2133207306087 M1118.242571033151 333.19324328033423 C1118.7191267928624 368.20731354164406, 1119.4595985528563 401.043405540571, 1117.155290835569 475.08799601141243 M1117.6381973791492 477.0423419985338 C1074.8430863797557 475.9660473441385, 1030.1036306848268 475.8494344485083, 906.3833236066819 476.75107477050517 M1117.622575231992 476.08691564744134 C1053.8718352563315 476.39326502553234, 988.4843683336114 476.67649033438624, 905.2404410963752 476.3339795703319 M904.820250770176 474.61444542420213 C906.201717020507 424.00453487991365, 903.7065827911165 366.83756702275895, 904.6161389758853 334.3075369420124 M905.5670217042324 475.43001279150747 C907.3762510521018 424.5504697957149, 907.8659372499365 371.0894520401605, 906.3312292173774 333.3618371266738" stroke="rgb(0, 0, 0)" stroke-width="1" fill="none"/></g><text x="1012" y="430" fill="rgb(27, 14, 139)" text-anchor="middle" font-family="Consolas, Courier" font-size="20px">1969</text><text x="942" y="370" fill="rgb(150, 100, 28)" text-anchor="middle" font-family="Consolas, Courier" font-size="20px">id19</text><text x="1082" y="370" fill="rgb(27, 14, 139)" text-anchor="middle" font-family="Consolas, Courier" font-size="20px">int</text><g><path d="M910.3445322933421 339.5597673586722 C934.7586140501576 338.54384389347797, 956.690351539463 341.19825056833685, 973.3073210396509 340.877648755614 M912.1121038397686 340.5126784206631 C924.1815801546949 340.1381303382387, 936.5501709208684 341.03421730072694, 971.8970090801471 340.231388831471 M972.6161117704681 339.7483468883232 C973.3286285374393 359.0991818185596, 973.0325678466281 374.81979001236397, 971.7684430066005 391.1427549549771 M972.2648948173465 339.38321288289825 C971.3562941067944 353.3672956191847, 971.3063737932866 368.20181288014925, 972.1055223322041 390.39343057280837 M973.311072080192 391.5158255330775 C956.3178121727909 388.81765387666417, 940.4652798573375 390.0647006095659, 912.8573848060812 389.3245194321164 M971.5881654406539 390.3992489030184 C956.5548376768965 389.477895645211, 940.6464386983173 389.33875251201204, 912.4779912059611 390.5654088145106 M910.2214292092095 391.0414450309511 C910.9734054641333 375.3819964243984, 912.4330561273381 364.51982366883396, 912.8382766284591 341.9351324105515 M912.0827108546933 390.07225134271897 C911.5993568423751 377.4926167050062, 911.5625245242044 364.03977258142277, 911.942435538899 339.4803791948061" stroke="rgb(0, 0, 0)" stroke-width="1" fill="none"/></g><g><path d="M1050.2248266805782 341.0105889051065 C1073.014417177726 339.9513393453572, 1091.225267511401 341.2931922396068, 1111.4287584726524 341.043072389263 M1051.0148764595947 339.1874902600931 C1075.3546966593926 339.59748200240756, 1096.5770861035721 340.99816205551633, 1112.4855304824544 339.52376656157094 M1110.7123376960178 339.55149416921813 C1111.2892001775726 353.4915503620822, 1111.2678840015894 363.2962946568444, 1112.8235838918622 388.93954982711165 M1112.8204530223725 340.0309599801029 C1112.4588601658932 350.67911776647634, 1112.0171152082335 362.2992877606689, 1111.3891846524482 389.9246128331961 M1113.6545100986552 389.39466598310077 C1091.3703233504682 389.2004208705542, 1075.3102441240196 390.2691341453311, 1051.335397895843 391.9294038020031 M1111.8308719905071 389.9687070787224 C1093.042359345733 389.9350074763272, 1074.9607465035963 390.0780414506093, 1051.0299982136808 390.8698437793861 M1050.640457430043 388.7950254971236 C1051.1274727942136 372.313293735041, 1049.7444323400346 360.2657558517992, 1051.2211240099077 340.3489657428456 M1052.0618849791733 390.55583689112734 C1052.2152882170012 371.7481846518002, 1052.4670122710493 353.57589534076374, 1052.2653178092032 339.9613088152729" stroke="rgb(0, 0, 0)" stroke-width="1" fill="none"/></g><g><path d="M613.9683541614962 506.4635277678461 C683.5389708426779 502.92375914608664, 754.4016918696149 502.45675095377493, 816.2971953328317 504.92196698254065 M615.8147986796275 505.4669633449118 C689.3017844348127 502.50161777069474, 763.6970034447003 502.9021668991813, 814.5273645737618 505.0793001038006 M813.2567438382565 505.33757089158934 C816.1757877863447 552.9843008004697, 814.3416434552001 600.2085587293672, 816.4249860766253 634.868139065907 M815.4376292089399 504.649314755644 C815.990872955208 552.3581913518565, 816.0528503481253 599.7834246222943, 814.3068466836726 634.8225824169788 M816.3892812296347 636.4470777298015 C739.0212092240595 635.3320224402382, 661.5337467242115 635.7759285172191, 615.7087126046233 634.2037411069273 M815.2562787071755 634.6432799831013 C737.1868162238097 636.7573648439891, 658.4148316097775 635.6093330078616, 614.9892491860886 635.8266418775737 M616.2869534602382 634.2241677197939 C615.6038850088506 599.5930869626691, 613.7214050352363 568.4506939668823, 615.3481521743716 506.7925108775414 M615.3738707895121 634.6391591579754 C616.0728715668763 596.0077385347472, 615.4007224162048 557.9516699057599, 615.477923894295 504.0199623752158" stroke="rgb(0, 0, 0)" stroke-width="1" fill="none"/></g><g><path d="M608.844366213137 499.1314241441899 C693.3676082770678 499.20929060241923, 777.3156652916689 498.81392549907724, 821.8442150017848 499.02150240862954 M608.9019875603175 499.56900758635584 C685.5985901029463 498.18041567925957, 761.4149981656101 497.91302446733454, 821.1749887125741 498.4647612595453 M819.0990158243845 500.5620102080789 C817.867706841202 537.8998850981561, 817.7855059393931 580.2457245168526, 822.5995007946592 639.6040665786765 M820.8711792591067 498.9765981818233 C820.0991439389219 542.2054115410222, 821.6064141948842 585.3490949127516, 820.1734681112365 641.9031531635188 M821.6283078448594 641.2050743688536 C751.7185826228865 639.5463271653848, 685.3822972008471 641.8373504969047, 608.786386750043 640.6994756149016 M820.7735184127044 641.4365906131185 C771.5634235560572 642.363576452863, 720.6044053915247 641.0309267155139, 609.2923813599173 640.934433779653 M610.3250594486464 641.4673588410699 C611.8664777841313 608.1148955165389, 608.7550308769975 574.4410724474093, 610.7404532046869 497.4545931464734 M608.0739512097813 641.1160296943735 C607.7423646404128 608.796955049554, 609.6352782470968 576.8477617830838, 609.9613877038393 498.11487191165014" stroke="rgb(0, 0, 0)" stroke-width="1" fill="none"/></g><text x="715" y="595" fill="rgb(27, 14, 139)" text-anchor="middle" font-family="Consolas, Courier" font-size="20px">True</text><text x="645" y="535" fill="rgb(150, 100, 28)" text-anchor="middle" font-family="Consolas, Courier" font-size="20px">id32</text><text x="785" y="535" fill="rgb(27, 14, 139)" text-anchor="middle" font-family="Consolas, Courier" font-size="20px">bool</text><g><path d="M614.5924494248043 505.0405321562825 C627.2218929680629 503.59029064978654, 642.6865349051924 503.4248534380554, 675.0844803557933 504.7855977009274 M614.5805844853273 504.3774965858447 C638.7408452876249 505.47115928993713, 661.2725135236115 505.1146908730343, 674.3876306838524 504.45703155116377 M673.5107572523532 506.30949120499093 C676.0025475675724 523.4137373430225, 672.9222742681808 544.4599695439343, 676.363193816842 555.1040077930601 M675.4254290940343 505.1650164586104 C674.8004663305618 516.8747725737783, 675.2185312997128 530.9861533942101, 674.9902594435846 554.2035964870653 M673.6124563631072 554.0508158410884 C653.860686779 555.0150965188174, 635.8943135409372 557.0082981844874, 615.5489697023704 554.8982339003098 M674.7187347308367 554.819474108245 C658.6815642149581 555.1121839397022, 642.3663702170581 555.634488685416, 614.0132565773837 555.1487644045936 M613.0569854211902 553.1540405410534 C614.0231831697249 537.8540243014033, 616.270936964675 521.4401038858763, 615.6941213924781 503.0795354135927 M615.8827770646677 555.2321733773656 C615.0457505501195 543.8743404717088, 614.8864103383986 533.350599304736, 614.2856445716326 505.8421777932302" stroke="rgb(0, 0, 0)" stroke-width="1" fill="none"/></g><g><path d="M755.1384386508836 505.18834107836636 C774.4106869372542 506.09899671989456, 789.2129532456911 503.4665533455582, 813.9550266594404 505.8033960880776 M755.3127917124231 505.3148810986269 C767.8211007028899 504.7024490756184, 781.6846135068918 505.5404363270365, 815.0226437393384 505.0220121148476 M816.5488562560223 506.0318616172606 C815.1273751456383 520.3981123452114, 815.5284726354095 539.2962549102643, 814.1251017014918 553.6506083526774 M814.1878344909709 504.26831954849865 C813.9748181682796 518.1235392394722, 815.2319949623469 531.745127352953, 814.4897507518626 555.2595469890666 M816.4259202327626 556.6080957570821 C796.7631851081595 555.5438402913094, 780.3207564490293 556.0754369787786, 754.3371403219454 553.3792885033447 M815.7810613322752 554.7840541534744 C793.9998009832503 555.0551903875003, 775.6487520382558 555.9573699043773, 755.08625669566 554.0230551138011 M753.3815928599487 556.6767483148438 C754.5114754080365 536.8460878872424, 754.0080377141745 522.0146611260458, 753.5434409009508 505.74093524123936 M755.5731593609702 554.1602387248895 C754.8701776428558 538.9354535571197, 754.2860531635338 523.9494620677808, 754.434077451178 505.6051335504724" stroke="rgb(0, 0, 0)" stroke-width="1" fill="none"/></g><g><path d="M840.7140258979184 505.0888184044999 C908.9237494154647 505.0855159848816, 975.0150527547687 505.69217006068357, 1040.8631660060446 504.53258981715487 M841.6177456089708 505.22607977025314 C900.1752540828544 506.32183693747106, 957.5863889124709 505.8818240530894, 1042.1635476562708 504.5343030947757 M1041.2362581800562 504.14992674367386 C1042.922790127933 557.4119818506989, 1040.2882897893614 607.6786713767956, 1041.0609063311063 636.5099217628979 M1041.93349998198 504.3604833336976 C1041.1052515275417 547.03305193338, 1040.8531245739607 591.1789546735533, 1041.757773369412 634.7590696566613 M1041.536859203345 635.091454628572 C976.4332264373952 634.329739217448, 910.8392285265154 633.4672467032443, 842.7911466084549 635.8685524501489 M1041.1530089122327 634.543452338064 C981.8769156234151 634.1519152559563, 922.1130267165275 632.9100640608428, 842.2330798483127 635.416336157292 M840.4380877097186 633.0821610342743 C842.4130354457427 591.7250745080225, 840.1036412490585 548.5026841407996, 843.8079095457299 503.0756012071744 M841.4610473585986 634.2798981134362 C842.5605546608175 594.410415613164, 842.9883365234547 553.8982327576908, 841.9972932042709 504.5898664434742" stroke="rgb(0, 0, 0)" stroke-width="1" fill="none"/></g><g><path d="M836.6059485034538 497.2816674180696 C902.0387033837213 495.8935200302249, 969.0319855102287 498.07817818655815, 1046.368427398363 500.6634675358112 M836.2554407553563 499.7375949223504 C892.1678141712927 500.38990222475803, 948.0184306682564 500.1807503827575, 1047.5007164879294 498.8022415315823 M1047.991742396964 500.76343533887785 C1049.9285860784278 533.9138921479034, 1046.5212436338422 566.4231342880499, 1046.514137781519 641.8775604925136 M1047.853268245799 499.0636763149553 C1046.1610563846154 554.2287444743198, 1046.2588441238793 609.6493591494094, 1048.8821061614824 640.2967367929438 M1048.9447973827196 641.5706252719408 C993.2932227927797 641.4253170129307, 940.8182990110445 643.5075995824254, 837.2991585815121 641.6167456716506 M1047.167517032707 640.9447239412638 C980.0297666860477 641.513417085403, 910.8094195802058 640.840703968804, 836.2287600053824 641.507327582132 M837.7504482207622 641.9738784498659 C837.5267763326644 597.8482172451066, 836.4768713948848 558.6926832582161, 834.8722000919712 499.0843840380665 M835.700967730351 641.3970094441521 C837.1105806931696 600.1598503838713, 836.9540003005083 558.416082887307, 835.3752507716889 498.0716245836175" stroke="rgb(0, 0, 0)" stroke-width="1" fill="none"/></g><text x="942" y="595" fill="rgb(27, 14, 139)" text-anchor="middle" font-family="Consolas, Courier" font-size="20px">"David is cool"</text><text x="872" y="535" fill="rgb(150, 100, 28)" text-anchor="middle" font-family="Consolas, Courier" font-size="20px">id43</text><text x="1012" y="535" fill="rgb(27, 14, 139)" text-anchor="middle" font-family="Consolas, Courier" font-size="20px">str</text><g><path d="M840.8878438128079 504.3954903042146 C867.532872125376 506.32901515353103, 889.5010816167085 504.18183076862846, 901.752798447302 503.2436696560847 M841.9004475320984 504.7597391275831 C864.2537015581171 504.0314447252931, 885.5475889248669 503.81186270422563, 901.9497261730066 504.7644136092003 M900.591830058793 506.8193281373405 C902.5277186762398 523.7457823305277, 901.9115214527488 537.1697563833651, 902.5110697144976 553.0551980236554 M901.7127157793127 504.9759397233499 C901.4831848179504 517.7914376165867, 901.1687477823384 530.7784655840791, 902.6160772204377 555.0700386975378 M900.4077417260046 555.7016937727002 C884.5130541884798 554.0658687668814, 870.7036936004662 557.1261542305743, 840.683415085354 553.5739512389852 M902.203122856168 554.367461267071 C883.3047015626217 554.8993987016918, 866.5449836609791 556.0683979815709, 842.031368924491 554.8098967389395 M843.2325311481275 555.7859674277928 C841.6757784272555 545.2967067378685, 843.8011557032866 532.6615804907082, 842.3759171135415 505.8322377672308 M841.164323647522 555.1786313147156 C840.7851870812923 545.0500330244673, 842.3629309826579 533.9927087065787, 842.6405032775933 504.4118102962032" stroke="rgb(0, 0, 0)" stroke-width="1" fill="none"/></g><g><path d="M983.4137343363719 505.2980146424144 C994.2043006340114 505.63103529722434, 1006.3121829514585 503.49323813988, 1041.1551071140973 504.4471006881742 M982.1130179739637 504.0547367415357 C1000.5573327377393 505.6230265299969, 1018.7081158344249 505.06788719946513, 1042.876370861539 504.88172238693977 M1043.4349542230434 506.69739085898317 C1042.1041437312606 518.2165991560071, 1041.173866487463 533.1051193416139, 1043.5941737506662 554.8294913928172 M1041.5418603396822 504.7904382874495 C1041.7108482169815 519.5150512046284, 1041.5858937241235 533.509356184475, 1041.629574472965 555.0933564115247 M1040.8452624868103 554.5410749868778 C1029.7196580424359 552.9579378485748, 1014.7087550630823 556.1596699272683, 983.0504637963941 555.9053376289651 M1041.843363738667 555.2198910824127 C1027.0716612597078 555.4256126167425, 1014.4074595545843 556.1396689844892, 981.5066556942248 555.2902720856353 M980.437695908308 554.4206443082296 C982.9599613813562 541.1341853930412, 981.6349870113813 528.7666797587508, 983.2746809828999 504.7953862463191 M982.258628496734 555.0837342173902 C982.4598973576718 538.7010244168438, 981.5352549764833 523.7282289627474, 981.6060614781401 505.4604629972837" stroke="rgb(0, 0, 0)" stroke-width="1" fill="none"/></g><g><path d="M1067.3096596157948 505.0981842861013 C1132.6618604870332 507.72445198734437, 1194.4673384374594 507.97237633638946, 1268.8986821717804 503.4373586305296 M1068.6111998623414 504.8489112494725 C1114.406925910952 507.0633724794776, 1158.7554462675607 505.82226087050725, 1269.7510058638368 505.24493439749654 M1268.8755671170607 503.07553932806206 C1266.7876747573025 540.3405270201706, 1267.4554371571585 571.434884905343, 1268.8314753003133 633.9745313857248 M1269.1908865893124 505.5768235836771 C1270.4261420331513 536.8606323724846, 1270.2858665608978 568.9454599398773, 1269.9185077699615 635.9162253289402 M1268.5535426424947 635.6773881303891 C1224.9138840185703 635.049939573418, 1179.0961936009576 634.563074373896, 1070.3774298458875 633.4902400393876 M1268.3976741187546 635.5631560991432 C1205.0704913226405 635.3993428239381, 1142.2527493820116 634.8281340666505, 1068.603423981312 635.1785697869964 M1070.6633739790045 633.2013229704532 C1067.2609003176633 605.7052731062631, 1066.8823100211582 576.7057944392398, 1067.9475872319608 506.4967625412381 M1069.8963092265399 634.8568481969398 C1067.762735435574 592.7763968085695, 1067.6081237871374 550.3071850853763, 1069.99665075431 505.85236349393665" stroke="rgb(0, 0, 0)" stroke-width="1" fill="none"/></g><g><path d="M1063.8575924877991 500.0901116876146 C1129.2285459642023 499.1227652667832, 1197.1405318765746 499.49473728162127, 1275.9671167473768 499.0115877900187 M1063.8441375228208 499.4078252964632 C1148.1833616758333 499.9469988449587, 1231.42468323367 498.9576098125755, 1274.30723732074 499.1337001004216 M1276.095656509516 497.94533033015796 C1275.4927188358538 533.3948892598493, 1275.079954790105 569.3474120179841, 1274.211730991648 641.471516660118 M1274.3132569216914 498.15382762890073 C1274.1360315748964 532.1203289015689, 1273.4460361726315 563.5475184674206, 1275.3047138622774 641.7647154549103 M1273.4230256347985 639.3977241426236 C1196.4442306380017 643.5526744980771, 1116.210223363471 641.1634126483331, 1063.6493303938682 642.044619966143 M1274.3803155786693 641.6483644657676 C1225.9950788701879 642.4026056207164, 1175.4243426316655 643.0078956966707, 1063.8340055025476 640.9680755422752 M1063.4710171969375 641.4848824722862 C1064.4791455221073 600.8062649605408, 1062.6983837342457 556.3609323560328, 1063.0992989441456 498.08035548045564 M1063.5007978058275 641.6987852897843 C1063.0782632284167 607.3295599694399, 1063.3798890019018 572.8708566826422, 1063.1361016910166 499.75951216558303" stroke="rgb(0, 0, 0)" stroke-width="1" fill="none"/></g><text x="1169" y="595" fill="rgb(27, 14, 139)" text-anchor="middle" font-family="Consolas, Courier" font-size="20px">"None"</text><text x="1099" y="535" fill="rgb(150, 100, 28)" text-anchor="middle" font-family="Consolas, Courier" font-size="20px">id13</text><text x="1239" y="535" fill="rgb(27, 14, 139)" text-anchor="middle" font-family="Consolas, Courier" font-size="20px">None</text><g><path d="M1070.53785528517 506.8637605172322 C1087.8037202085213 505.99577574906306, 1108.829836479028 506.6332487729238, 1130.7083440733306 503.27394067296694 M1068.7444853227003 504.43945628465656 C1092.1302259614872 504.5319915355827, 1115.9505253044726 506.12661840845374, 1129.9729683427918 504.53113422193627 M1128.8971371814407 506.85421862544246 C1127.6905215665001 522.3374615086867, 1128.4243034265369 537.0918796049033, 1130.3367749849447 555.8630355239543 M1129.1973776827192 505.6744012073873 C1129.0335604696004 521.9998861771619, 1129.4678819397602 539.6952429245504, 1129.8226535489562 555.2361026284186 M1127.7587509672485 556.8714728713567 C1117.4260568144327 557.3742066132382, 1102.7892188849505 556.4360360784979, 1067.6664554943954 556.5945678022124 M1128.4478062097457 555.7749212519235 C1107.6179443348315 554.432968149646, 1086.8802244948845 554.3197805962375, 1069.4246392755276 554.4362520252527 M1067.9735720027204 555.380226543023 C1067.6757171548122 537.4463343010133, 1068.7738552633873 522.137369186827, 1068.9537360992158 504.7116640153723 M1069.5864628496806 554.3591183980079 C1068.9029971678603 536.6163671267755, 1069.0392932201362 518.3790148787459, 1068.868382054872 505.8290422011866" stroke="rgb(0, 0, 0)" stroke-width="1" fill="none"/></g><g><path d="M1210.2274266101738 506.0493906169025 C1226.2646395266645 504.18316964765984, 1245.700097330021 505.01989490774247, 1267.8639912507363 506.07976698287274 M1209.1541073487233 504.4912266765183 C1224.2495335200845 505.37271712327447, 1241.567648418307 504.3094173604204, 1268.352815561973 504.3847583232946 M1268.8967892778098 506.31868841411733 C1270.8127762090644 518.9953583978341, 1270.473634547626 530.3132212872147, 1270.8560067057676 553.395821932538 M1269.2915650942307 504.4971037251749 C1268.7581386485929 519.7141554638297, 1269.5249528849126 537.0748936504264, 1268.2963713094039 555.7649271750279 M1268.74383270581 556.9635780698961 C1255.5520007562063 555.862314156799, 1239.465968951645 554.3684967452173, 1207.6912813835481 554.3815971005005 M1269.1454609323102 554.4034992883528 C1250.0225610544578 554.2202938840917, 1232.7721504216322 555.3597345727395, 1208.971908308311 555.2209727942866 M1210.677084193217 556.5094432195034 C1208.3015942052048 540.5475548198925, 1210.30073194621 525.8909742104529, 1207.9863956092533 503.4441983080183 M1209.8994755457356 554.0293595593108 C1209.8767383156683 540.1184432975531, 1210.2392475736283 527.4378612629539, 1209.4030930099495 505.1701640866998" stroke="rgb(0, 0, 0)" stroke-width="1" fill="none"/></g><g><path d="M615.248406004146 663.0568022478143 C688.6572659910173 664.2529957887966, 760.2542933669652 664.6075944741049, 896.1093533463476 663.468244052451 M614.9418460592565 661.4477092437511 C719.4863551961505 664.4172370037114, 823.252338601008 664.1696312234488, 897.3347072179474 661.3239682491472 M898.8202208844366 660.3436401137957 C896.9728707807398 697.7769978770783, 897.3166310086199 732.453305563263, 898.4396233486538 790.5237385723584 M897.5001501388499 662.4386165607931 C895.7821731627699 693.4914588159164, 895.7559265902373 725.6261298395532, 897.9330415041725 792.1970067989582 M897.6999672909502 790.6998776959232 C789.9408133186536 791.2865331555224, 678.480470745666 792.2759907842758, 615.7980406801272 792.9167003853579 M896.293210689444 791.5136951871503 C794.6478476850865 789.779920882126, 690.8684046844264 790.319461484534, 614.4923172193403 792.1609072362417 M614.0501393399627 792.9606802492228 C613.4744887758095 745.847367451183, 612.6617697066251 703.7133533247525, 615.2687770269281 662.6164120755091 M614.3996880014555 792.8849827484939 C614.1468108600504 745.2655627798318, 614.359488564875 699.4770317539136, 615.7632814469113 662.5184349883497" stroke="rgb(0, 0, 0)" stroke-width="1" fill="none"/></g><g><path d="M641.7288796583415 725.5329322392241 C661.6673658020088 725.6904133445533, 686.7462181258481 728.0582879512689, 698.8626268902847 726.3305226779694 M639.7555223505545 727.8375158968158 C659.8366820730179 725.6963383637445, 681.5448475480902 726.9772219704654, 698.5878064542089 727.0052938184472 M696.0118831011594 725.7637180899044 C698.3017438998924 741.2512115110314, 696.722860900107 755.2774551374256, 699.4376675190795 777.6217693197974 M697.7126481024648 727.2859659073681 C698.9494209152746 741.6479029805472, 698.9942183168853 758.391078719759, 698.2498726600032 777.4923073547182 M696.8471685752351 775.8787359584836 C681.8269043522118 778.3285314562773, 664.9936557070412 777.6707086482483, 641.9985020669669 775.1879203240666 M698.6168735634934 777.0398206520507 C678.1559244979998 776.7983148219532, 659.0682842833138 776.7440236506221, 640.6441434804331 776.1187254350131 M641.1383990925377 778.5026097612429 C641.5101672739137 764.9545022731479, 639.7065054935581 753.5398132520244, 639.4777819930687 726.5340515400511 M639.9021129100894 776.3193256104515 C639.5275565242456 765.3244531691888, 640.1063179591356 753.5623070764013, 639.0818025976326 727.467120700588" stroke="rgb(0, 0, 0)" stroke-width="1" fill="none"/></g><text x="669" y="757" fill="rgb(150, 100, 28)" text-anchor="middle" font-family="Consolas, Courier" font-size="20px">id19</text><g><path d="M699.4845429846705 728.8397417365586 C718.8787323571071 726.2099234497854, 734.919677635687 729.3684449680334, 754.6807068638801 725.5439457670367 M698.6546834015307 726.3915318268437 C710.6022623627838 727.9292722374179, 723.6442146189298 726.7894010453638, 756.1457415808061 726.261232347499 M754.1532088874229 725.618737823088 C756.7296104730743 740.8353151398713, 753.6793523329934 758.9197405860979, 757.0782176192524 778.340149360336 M755.8057300407894 727.2765019623026 C755.0664223960331 739.7670082914029, 755.4572083607618 752.5704121141719, 756.5061310424466 777.6280867954943 M756.5599272834704 778.9013069606095 C736.4569261913595 777.8577751346369, 722.7315073195049 776.4891865629446, 699.2524740383623 778.5924088765855 M755.581465896333 777.1402069348674 C741.2716899963026 777.2064948016329, 725.9288402608482 776.3613577749743, 698.1042874953616 776.3910403207566 M697.2171865055295 776.9593053624104 C699.5328971828126 762.5958999537755, 698.8213045168989 747.4485654204279, 697.9799806186483 727.1439259043459 M697.3612097979994 776.5392105941756 C696.9909491090243 761.1176166929661, 697.9456991574767 743.7380692431445, 698.9207075585155 726.1451661202095" stroke="rgb(0, 0, 0)" stroke-width="1" fill="none"/></g><text x="727" y="757" fill="rgb(150, 100, 28)" text-anchor="middle" font-family="Consolas, Courier" font-size="20px">id43</text><g><path d="M754.4711830337837 728.0917722012258 C773.6093366808094 727.0130211094042, 792.2433677587669 725.371399021746, 815.939739900467 727.7037059335435 M755.7747614032248 727.4466136211465 C775.8495899265462 726.7735804873994, 794.6238181259188 726.1983269798918, 814.4536042808834 726.0308722553228 M813.967860321937 726.1310927892783 C812.7690873116243 742.2311581255829, 813.6200867988811 758.2350139556128, 814.9182776970875 776.6029819374146 M813.7835210785694 726.1312475539921 C813.1923174204995 739.1985375580385, 814.1883587562118 752.7927433441528, 814.5515869068491 777.7536867360717 M813.5024414587956 776.5737181804278 C800.1859455981165 775.8957356178693, 781.2960224095342 778.0419843874689, 755.4607280023068 776.2209824451721 M813.1193709317554 777.773628635097 C790.2160504111216 777.4495509479873, 767.6579158426906 776.1553685359177, 756.0109540630805 777.2513337354546 M754.4739995981603 775.2709998295816 C755.362051389369 762.3097900749576, 754.7310134363327 744.2711707192193, 754.7620998814878 726.8490083046973 M755.4055204905999 777.7912115792788 C757.1422516183363 765.9302589398284, 755.6156231857951 753.9702447065183, 756.6288956354393 726.698820838844" stroke="rgb(0, 0, 0)" stroke-width="1" fill="none"/></g><text x="785" y="757" fill="rgb(150, 100, 28)" text-anchor="middle" font-family="Consolas, Courier" font-size="20px">id28</text><g><path d="M814.0992959626577 725.025318321534 C835.7791983401406 728.2925143071448, 859.7161958665821 726.9467740657877, 870.0286727271837 728.1315490587922 M814.2961506174631 727.0277738660341 C835.8078038391078 726.7465356158598, 857.7664794422348 726.6880936840713, 872.2209592391177 727.2710631111287 M870.2971066434319 728.941900837515 C870.1575778879325 739.4234018920213, 872.2673438933582 752.005652449735, 873.2157427985605 778.4529972090925 M871.9204346024319 727.8231969198262 C871.9752975055769 746.9878782085937, 872.4240691516212 766.7472729245815, 872.3574623882362 777.5478241428414 M873.8524666937642 778.2746092817137 C854.5932975570048 775.569034521362, 840.6686778080416 777.3854783235377, 814.2357019609728 778.5212172367636 M872.6326850380907 776.7010097197523 C858.4059719981428 776.8410434635973, 842.3966210927264 776.3645187955979, 814.6916722593837 777.7244985727568 M814.5972108936326 777.2064402661264 C815.8685957651658 760.2025154353784, 812.9367970137057 743.1661875904233, 812.8257726129259 728.6536724110005 M814.7628996454846 776.6881041240279 C813.2001247876937 758.3983108161474, 813.3462727957154 738.0751961753512, 814.499473773959 727.3499258017051" stroke="rgb(0, 0, 0)" stroke-width="1" fill="none"/></g><text x="843" y="757" fill="rgb(150, 100, 28)" text-anchor="middle" font-family="Consolas, Courier" font-size="20px">id49</text><text x="645" y="692" fill="rgb(150, 100, 28)" text-anchor="middle" font-family="Consolas, Courier" font-size="20px">id82</text><text x="867" y="692" fill="rgb(27, 14, 139)" text-anchor="middle" font-family="Consolas, Courier" font-size="20px">list</text><g><path d="M615.5426582203888 663.726563056674 C635.113337055844 660.8909156047176, 657.7495844009445 661.1217996177112, 673.8123700869696 663.2773812459686 M614.2191730850482 661.4279534292816 C630.2291723271144 662.2939673345053, 647.5824836476629 660.5991007265067, 675.3791442810325 662.7983029717096 M674.9313552400741 660.6487681315502 C676.6508928670559 671.8306598744266, 675.5039668154799 684.7153578621737, 674.9874732709193 712.3029344480543 M675.1970620556433 661.0446484724459 C675.6713943723253 679.5986884354193, 675.5430210362688 696.265429773042, 675.7499637658816 712.7066056874427 M673.1382500964478 711.9937392866264 C661.1112392610173 711.3688243617231, 644.0676795632344 710.8059999476359, 613.3050979465835 712.7152948117301 M674.4969763023154 712.1957331164452 C661.0116484692021 711.3580132799879, 646.0021176045758 713.0008463190517, 615.4319958284713 711.9463945028043 M614.0870870744883 712.249001486139 C613.2507381120369 697.6511635034242, 615.8876708393606 682.5956557948106, 615.8813307173637 662.6474352194911 M615.0599949288174 711.8505411256652 C614.6549428228191 698.5522144970697, 613.8037737136495 683.9106773081163, 615.7595468427287 662.8408180987313" stroke="rgb(0, 0, 0)" stroke-width="1" fill="none"/></g><g><path d="M836.3499046453528 663.0684542454946 C852.9303855775281 662.7810345952861, 865.7174584598579 663.539602191747, 897.8716426657643 661.318431483106 M837.4910084189664 662.1379057834461 C850.9834883611584 661.0679797429718, 867.0432488661213 661.9700140862699, 896.6523869366 661.8097959893653 M895.7714327942366 662.7604785230399 C898.2891181745954 679.72379879386, 897.1990675699092 694.5575929088284, 898.7651329136578 711.7204408540076 M897.8773407661976 661.8660944161044 C897.7964622842867 677.7806875870579, 896.855000003479 691.9980323149605, 897.9703006541571 712.5213325924944 M897.1567484886635 713.1278811896434 C878.5025140226105 712.5055350605535, 862.2257718300162 709.8218553705511, 838.8298143477239 711.8241894729374 M896.3131303020615 711.3872917766563 C883.3219601208118 711.0261110781508, 869.495935890717 711.0298434285254, 837.0519112461521 712.6463781039176 M838.8280723021965 710.0355200387929 C838.4389147502026 691.8767452960739, 838.0516285859437 675.1186700651385, 838.3288624045606 663.7804748010618 M837.7734918452707 711.5432137118039 C836.6685274549818 693.9643724347302, 836.4146981681481 676.58125493087, 836.7191469250729 661.1971856631629" stroke="rgb(0, 0, 0)" stroke-width="1" fill="none"/></g><g><path d="M912.3803567153225 661.2285732327204 C992.2121815970863 660.0862751162927, 1070.1930266331312 661.6573659945595, 1111.4151099380363 663.4975817172225 M912.12778416137 661.4266827536584 C970.3618899820655 661.8287439206889, 1027.9293700947044 662.2926688794483, 1112.7422150241127 661.7605730133729 M1110.095654070279 661.6250896273833 C1111.9718627418906 691.7544011695646, 1113.5751986987298 719.301531307994, 1113.513426118269 791.829372409895 M1112.9515287418903 661.2965263400192 C1112.463710701123 691.4369449232678, 1111.5070673257212 720.9176067884603, 1112.8238455748517 791.5729646224876 M1112.5694637477777 790.8575877602071 C1036.419741456735 791.6735783981767, 960.4780836985689 792.3034648773047, 911.7568878303094 790.7206772153909 M1111.953523512976 791.8852553568179 C1040.9836447301136 792.5096867872336, 969.7860764956108 792.3985393864946, 911.4384274512282 791.9571314385553 M912.6980336684172 793.8126392522066 C913.8012616595895 744.9088865012202, 911.2224736679642 696.8855965102551, 911.2861421325304 663.7414614237055 M911.0034332855809 791.3716538640977 C913.0245740986873 751.2995305558187, 911.4338144273061 708.7246531973921, 911.6778126197978 661.2576110489148" stroke="rgb(0, 0, 0)" stroke-width="1" fill="none"/></g><g><path d="M907.1639642380234 655.1895585423174 C981.0427753748872 656.4490408915498, 1052.6437206857163 653.0648975157806, 1119.1334697839675 654.583051620644 M906.056782442809 655.9471817234898 C964.8592042958569 656.9380490526121, 1025.445243304949 658.0230076435997, 1118.8144516254765 656.7230154754527 M1116.981688505176 657.0141463897058 C1117.9340400264396 707.8313518154499, 1117.2605739717733 762.0996822631371, 1118.9114646082785 797.0999215234045 M1117.6875519050232 655.8249587754597 C1116.3352345107385 705.0514961820262, 1117.897112603277 755.3621167985287, 1117.6804344345999 798.0705860861254 M1118.7909706861833 799.5673347551966 C1039.654700141027 797.1542385011365, 958.4085715019891 796.669278297215, 904.4303604236807 796.5897563674184 M1118.094500714471 797.2989226360684 C1049.1961952043325 798.8734262811549, 980.6768739659809 797.8825113214838, 906.0294324840374 798.3770543710857 M904.228693652941 796.1990223239915 C906.5748324031498 746.6499522378756, 907.0671310764563 695.038139337399, 907.6814307263032 656.4388116753277 M905.0374166023216 797.3738591087548 C906.0463597692656 752.3260748973893, 906.4331913646081 706.7766639099998, 905.4311468870424 656.6320601504975" stroke="rgb(0, 0, 0)" stroke-width="1" fill="none"/></g><g><path d="M935.9890385912399 728.540244683964 C956.8096355838292 725.0727669564827, 981.9449023749015 725.6811896071451, 996.5426551392088 725.498901703369 M936.004555561399 726.4711339101067 C957.9175985984078 726.2548647432561, 978.448900296624 726.3155220800217, 995.942006799142 727.0516538848399 M994.9156998688242 727.8996311348441 C993.1332212681862 740.6729977848273, 995.371586952349 756.9281785708479, 995.3204941293279 775.1959802196487 M994.0032975231809 727.0289487317812 C994.6307143431504 741.1299158715601, 995.5964934126943 756.2567349263451, 994.4174244346826 776.2693437089837 M995.5282752056228 777.511122213039 C974.7680421554328 776.75697799815, 949.2389869311795 776.9929943605366, 937.1269169045709 776.7669994409742 M994.1771256566324 776.9646914437101 C973.5846608925974 777.5647412871385, 954.3044790429863 776.334112228216, 937.6608667520936 776.2596146394241 M938.5831638299571 775.682406425958 C936.147908243596 761.558336436441, 938.5755860895109 746.9843965253601, 935.9611254872252 725.0040545297556 M936.8337385612022 776.6680074238012 C936.8816829058873 760.946866884825, 937.1977289399433 743.2636568933444, 936.9752600104551 727.5935689467291" stroke="rgb(0, 0, 0)" stroke-width="1" fill="none"/></g><text x="966" y="757" fill="rgb(150, 100, 28)" text-anchor="middle" font-family="Consolas, Courier" font-size="20px">id82</text><g><path d="M996.0219832984467 726.9409124013919 C1011.9440111942642 724.5980984832424, 1031.218944032848 726.6637656199317, 1052.9601737582452 726.6412003599379 M994.4484305756288 727.427877968702 C1012.1703587634718 726.2658935653847, 1030.902459194037 726.9620189529156, 1053.681579508288 726.0661557865022 M1054.9704310212876 726.5034330314419 C1051.8918789677784 745.6086197422146, 1053.423581127508 763.9657792078109, 1053.9053927568948 775.913081916768 M1053.8322527661353 726.0570806643391 C1054.12854066817 742.6776006895008, 1053.9407962386083 758.1422712833636, 1053.8995358524658 776.7233985219129 M1051.027589766665 778.8461337448447 C1032.265911375638 777.1576937497043, 1007.7358551921909 775.6143692522417, 993.5136828698315 778.2335919815969 M1052.0154759954073 777.6899921987258 C1035.5292939291992 777.2806558313398, 1017.8959298579059 776.6885275614695, 995.8520325942397 777.2302986010297 M996.122898917916 776.663119031284 C993.311362161272 763.9011616002161, 993.5115497185689 750.9884920265895, 993.9721102880968 726.5566316935979 M995.8819820347692 776.4689635512591 C994.5389445746241 765.0463588943383, 995.7586672329113 752.7310669789712, 994.669767548996 726.1065832351701" stroke="rgb(0, 0, 0)" stroke-width="1" fill="none"/></g><text x="1024" y="757" fill="rgb(150, 100, 28)" text-anchor="middle" font-family="Consolas, Courier" font-size="20px">id76</text><text x="942" y="692" fill="rgb(150, 100, 28)" text-anchor="middle" font-family="Consolas, Courier" font-size="20px">id11</text><text x="1077" y="692" fill="rgb(27, 14, 139)" text-anchor="middle" font-family="Consolas, Courier" font-size="20px">tuple</text><g><path d="M910.9233655896509 661.3701803714421 C931.0687660370587 661.8955550991454, 946.9745037500871 661.4056256617579, 973.348750531332 663.4801442368383 M911.6122263548933 662.2034086183792 C926.9545188833816 662.1462316122997, 942.6880398512521 662.2234454566616, 971.1047124234258 661.0002816876353 M971.380586407176 661.2760514723145 C970.4812904229033 674.5351410698852, 971.1252249633345 686.8668756231186, 970.6753981969981 713.0531927170737 M972.3597129611436 662.5539183957657 C971.3269804266228 676.3578230210886, 971.0352072136419 689.2438190659792, 972.0044496525773 712.8224884947462 M973.4752960163902 713.1262929721875 C954.1867062073454 713.0014601124578, 934.25767358402 713.3280909335879, 912.8600776153505 712.1729550091509 M972.5454437114557 711.4034039464333 C953.6088528817096 710.8021967277257, 935.8107359393913 712.0550789351399, 912.239396967357 711.870644451851 M912.2403568611558 712.4317686696868 C909.8061003308712 699.8938632075768, 912.1915406758841 685.5728712671073, 912.6010323077735 662.282232798638 M911.1895659931708 711.2276289669427 C911.3725623668502 697.7655853750349, 912.5077391849002 684.2593777697388, 911.2391529445157 662.2264809729631" stroke="rgb(0, 0, 0)" stroke-width="1" fill="none"/></g><g><path d="M1041.3197270759467 663.4974320038929 C1067.9160059503288 664.4230360443212, 1093.4372320380414 661.0063850842018, 1112.7289066674768 662.2576847789971 M1041.484874759702 662.8083783308496 C1060.5766047358102 661.4878518946864, 1080.4713371157738 661.4777250672787, 1112.6350946461635 662.1266858839308 M1111.1935549615634 663.6410487401045 C1111.6892521616953 672.6305186305934, 1111.9014488759537 683.8723608827968, 1112.2996542342746 713.2136469893871 M1112.4437739955351 662.6126696707902 C1111.5711507097785 677.4998806484739, 1112.3487798922113 691.1300709344532, 1111.0315405895958 712.0400873508119 M1111.9453890980897 712.7140752781314 C1092.1365706857991 712.6274322060216, 1069.466137957127 713.523387868711, 1043.6232039066758 713.5664614687057 M1112.6505376036555 711.4777719406145 C1096.5848244121878 710.5599788853744, 1083.0360738515435 710.8118241116929, 1042.4847503123253 711.9479601132457 M1043.7669332740425 712.0260894216135 C1040.6613746949938 702.6532329018892, 1043.519708627426 689.5208931407396, 1043.1183673932435 660.5167072176669 M1042.7471859965103 712.1523198328247 C1042.2141994442402 700.8746687147577, 1042.460401385223 691.2025862016956, 1041.3908028212581 662.5687934448275" stroke="rgb(0, 0, 0)" stroke-width="1" fill="none"/></g><g><path d="M615.6277765135521 806.0709218907227 C697.591566459903 805.9334142942071, 780.258434364557 806.6811439411154, 865.237722665254 805.7587120709352 M614.6346957840461 806.8984245812959 C668.2676560992306 807.0415474618961, 722.5894847036691 806.8772248503437, 864.0554332591862 806.2617886358184 M862.3698578078083 806.8456515652402 C863.8437426927111 833.4079151606722, 863.6690801771274 860.4796962479869, 862.8539948978628 935.8646323668133 M863.1013175741102 806.0670668957735 C862.6253580902674 858.7532962719373, 862.5444359020441 908.9311177535151, 863.2430623465398 936.4594603480422 M863.6107312236381 936.9317751910846 C774.6483839676644 937.0738420872343, 684.7101494784669 938.332234779138, 613.7061833345014 935.7106511349301 M863.7195288343207 937.3322610246294 C793.0725200421115 936.2651601674451, 722.8273931683264 935.0698910137468, 614.2085584832739 936.6668526854157 M614.9040373036748 936.6488936517064 C614.708888879638 884.4190816424759, 615.5619678942694 835.4266229406076, 613.0434100379513 805.2401189696855 M615.7651600046033 937.2620589192229 C615.3159867995329 892.7816674377635, 614.2242301627199 850.6327550098655, 614.7632610585445 807.0623146106229" stroke="rgb(0, 0, 0)" stroke-width="1" fill="none"/></g><g><path d="M639.9028245091417 871.166049139826 C661.3800289870118 870.2177309211058, 681.2635495107659 872.5278099070775, 698.9450975519449 870.8014732285617 M640.5775223805263 871.7413600010982 C657.2423134004766 872.0301957846128, 675.8414723046842 872.7547626171294, 697.689284938406 871.005798976103 M697.9971913256979 870.925671086724 C698.5564563853474 887.0857807329802, 696.9427969001438 900.5199024224821, 698.2241330583487 920.9295842450383 M697.107520039396 871.4819739675331 C697.7945974426991 889.4612139922718, 698.9494823164238 905.9682250557262, 697.7017018475112 922.2357641638229 M698.8521703266072 922.3898199534361 C683.0389897640655 923.8886261039851, 670.4359824804874 921.0368191644279, 639.2940368902326 920.7722956436884 M697.2641156082826 921.2598199603333 C685.6668755897189 921.6367908057368, 670.8110393815668 923.4586251233561, 640.9207551822585 922.169445663101 M638.0443009330282 921.1508888107318 C640.6392319485251 904.8655754102008, 638.6015982897678 883.7266918763888, 638.1657734908265 870.0084100618884 M639.0506819740763 922.0968154947982 C640.5119382728932 906.0807762475004, 639.028657950278 890.7993489764107, 639.434700723063 872.4044094696296" stroke="rgb(0, 0, 0)" stroke-width="1" fill="none"/></g><text x="669" y="902" fill="rgb(150, 100, 28)" text-anchor="middle" font-family="Consolas, Courier" font-size="20px">id36</text><g><path d="M712.4852953518381 870.6505073125543 C726.0222303403493 873.3990037298324, 736.5649058835791 873.5302813563908, 766.6298951877052 872.3064109144913 M710.5522873204393 872.291818623657 C733.0601572363522 871.4284832942222, 755.7869726930169 871.9544725716495, 769.4673436182749 872.0471845229016 M770.3274255386528 873.0779071442414 C768.0339301504303 888.5382485335451, 769.6609169911537 902.4271958872416, 768.586924050215 920.4309600349164 M767.6580694163483 872.8720696705606 C767.7906451388452 888.6871879055651, 768.2592552860783 907.8507438961068, 768.0120305560931 922.945819717044 M769.2220022713034 922.4465711238635 C748.07335228374 921.8240860003987, 727.7356956573435 920.9545699468732, 709.3693902062968 921.3917161287053 M767.6970272490701 922.7731612493914 C745.3461643727344 922.1648700027825, 722.9453391515269 921.9460674650292, 710.5340785378537 922.5573661660586 M711.9752489703015 921.9041433082602 C712.0041915689379 912.0251354457862, 709.6819257894444 900.6811700613655, 708.8783160101216 871.0228472045127 M710.7346214079279 922.8640366664284 C711.6842180185346 910.2899693352869, 710.9286159929911 897.6346476712988, 709.8915076169152 872.9181917956479" stroke="rgb(0, 0, 0)" stroke-width="1" fill="none"/></g><text x="739.5" y="902" fill="rgb(150, 100, 28)" text-anchor="middle" font-family="Consolas, Courier" font-size="20px">id49</text><text x="704.25" y="902" fill="rgb(0, 0, 0)" text-anchor="middle" font-family="Consolas, Courier" font-size="20px">,</text><g><path d="M782.523892040461 872.4485655962925 C793.5998675225006 872.9161043890402, 807.8003819430697 870.4173399604663, 837.2239102319987 873.053493390795 M780.3928262402053 871.103110322548 C798.4822871705777 871.9929947177144, 816.6671240690679 873.2670900425454, 838.6463946179873 871.3656398168433 M840.8037361324064 873.2258592739523 C837.1522117598984 886.0692885699735, 837.7533535342134 898.8300958607322, 840.6721831042548 923.2271870023937 M839.6737672519515 872.9610156719075 C840.0087249482834 891.5086404060053, 838.6611699059985 911.068984277171, 838.1779302631352 922.4270515609553 M840.5957376414361 921.5744681252029 C825.6240751070984 922.7521975971114, 811.4083957933183 920.8212592762153, 781.9024364050651 923.4111224806472 M839.1967643237984 922.8165040895758 C820.2975329631402 920.7134516307724, 803.4806544180368 921.0227206227912, 780.1532582804027 921.705841176823 M781.6879112854557 923.6435016851066 C779.7907532178104 905.2557843325247, 781.2695439284416 887.6021503754376, 782.2533425619174 870.5055190976462 M781.3718671452058 921.9682479266357 C780.1258041942671 903.4148762655569, 780.7545985258365 885.2826654979525, 780.1677683473692 871.23374534602" stroke="rgb(0, 0, 0)" stroke-width="1" fill="none"/></g><text x="810" y="902" fill="rgb(150, 100, 28)" text-anchor="middle" font-family="Consolas, Courier" font-size="20px">id64</text><text x="774.75" y="902" fill="rgb(0, 0, 0)" text-anchor="middle" font-family="Consolas, Courier" font-size="20px">,</text><text x="645" y="837" fill="rgb(150, 100, 28)" text-anchor="middle" font-family="Consolas, Courier" font-size="20px">id90</text><text x="834" y="837" fill="rgb(27, 14, 139)" text-anchor="middle" font-family="Consolas, Courier" font-size="20px">set</text><g><path d="M615.0899354912472 807.3149513254801 C628.8560944200126 804.8100586397076, 641.2325055000458 806.2098022699256, 675.6525293505438 805.7671460842804 M615.0358243134647 806.9119997072096 C628.1747813115855 806.2944030387773, 641.934152515911 805.9025952549792, 675.4836842012089 807.7920504522733 M676.2331073449421 808.4136432245053 C676.8809443536135 825.7251192120962, 675.856665200661 841.6512176540033, 674.1648246667233 855.4230479733594 M675.1481201964664 807.5083394547664 C675.2262249343999 824.2078708610444, 675.3650042696879 843.0032312912634, 675.6493165367103 856.8052058429939 M676.1968450036971 858.8404390431255 C656.9155158310107 858.1744239218483, 635.526906857346 856.2756712641847, 613.723975203619 858.7904212890943 M674.2556025068033 856.7594409785899 C662.0085223606977 856.1904661899308, 649.9455526539749 855.5338726856794, 615.4890354575183 857.7544687642451 M616.1565947030535 858.8153468336337 C616.3319389456528 839.9187784466284, 613.658290506558 827.8891942370536, 614.0547421067112 806.9177689172277 M614.2021911536509 856.1149553010298 C614.6970952610396 837.742000279223, 615.1563046304278 817.5772027632265, 614.236734001053 806.36197541966" stroke="rgb(0, 0, 0)" stroke-width="1" fill="none"/></g><g><path d="M802.8315064703203 807.1609896122009 C827.0664335659487 808.7652461837931, 847.431005278821 809.3832571899698, 862.5039283237833 807.8891679936979 M804.9520694414297 807.0256324526689 C817.2980278745315 807.1998562892221, 832.0543404770292 808.2623600391719, 863.1582462974943 806.9005950863441 M863.9800159572726 807.3708178005255 C862.8265680040483 821.8613078070662, 862.713022986477 836.4984820161677, 862.945211650912 857.3743086158266 M864.7823888931091 806.5100091599 C865.1398063992008 821.0670845431862, 864.4786377048958 833.4764823182389, 863.1834179398016 856.4634981547998 M864.1204566826317 857.7279171210487 C846.03529147606 858.959909973854, 827.2218065490525 856.626639545862, 803.8284658070809 857.4440978456134 M863.63287315817 857.1602867037851 C846.8654843947946 857.7433196088051, 830.8099518976233 857.341567752264, 804.5975439375576 857.3955304809446 M805.278360254419 856.2982870241152 C802.8923229274532 838.9190667406731, 803.5633595453044 821.0972199240628, 805.8011914538769 807.8964622417499 M803.8093300383422 857.8529376077587 C804.0174085903849 837.878339733625, 805.1326854898645 817.6957589794833, 804.1801824161129 806.0725577309871" stroke="rgb(0, 0, 0)" stroke-width="1" fill="none"/></g><text x="627.5" y="902" fill="rgb(0, 0, 0)" text-anchor="middle" font-family="Consolas, Courier" font-size="20px">{</text><text x="851.5" y="902" fill="rgb(0, 0, 0)" text-anchor="middle" font-family="Consolas, Courier" font-size="20px">}</text></svg>