<svg width="1173" height="817" xmlns="http://www.w3.org/2000/svg"><g><path d="M166.61747623889988 23.631238638914258 C238.5635076783835 24.848957805408837, 312.81791774096666 24.59155390882222, 362.5059351896932 25.6831906997552 M165.5683384319625 25.504135638720545 C219.0575642572126 27.241323377933448, 271.9561471862657 25.81430556186417, 362.00808397856497 24.84224398453291 M363.8266276241419 25.402599223835328 C364.8060282395376 130.81187007670914, 365.4100888635227 235.3824923098158, 362.6650283037769 474.9316166375301 M363.1113529369757 25.015009963021868 C364.95702865444673 159.8109241292169, 365.05367747413936 295.4042247463367, 362.61749250742525 475.4461735528226 M361.71260896361815 474.38941547529475 C310.8285087062943 477.28147797221584, 262.8732298031332 477.3143954516025, 165.02537810903118 476.8171453046068 M363.12556237760526 474.93830757628575 C287.4301444508115 475.9112795307654, 211.99103776411698 475.2879372925823, 164.7930261715551 475.0155999379583 M164.8645601611825 474.4152012286953 C165.44914891845605 348.3032439718429, 164.4391679492633 222.81062553415222, 164.41404802313053 25.21805572786863 M165.26225170575083 475.45761292022627 C165.30857260750267 381.096283175715, 165.4081702839926 287.4536552839454, 165.15150692221644 25.082731206374053" stroke="#000" stroke-width="1" fill="none"/></g><g><path d="M286.17876055318806 101.68460834523071 C302.14287117508815 99.9746810987467, 312.9362021013667 100.01020216560097, 346.1863624539346 98.68604887535051 M288.84646587091686 100.53849992118015 C303.7459112268861 99.93446496496573, 318.2703944114645 99.73633159880987, 346.31767574627753 99.80462636734589 M346.17333896614883 101.47660927669975 C347.986134449569 113.20494016109726, 345.9426169206469 127.12442864007694, 347.5511097099844 149.6499413595707 M346.890298758429 100.03470259174955 C346.13041850535194 111.87796087014796, 345.36164750301083 121.9971318405022, 345.91866760566916 150.59710564752731 M347.14714347958693 149.88152602669788 C328.3639225571854 151.14031245302175, 313.1213475492747 150.38922818349334, 288.0892600963964 148.7117377061317 M346.5165036549437 149.5031261704277 C328.86927448622106 150.11167820011224, 313.32177745321025 150.06128549187184, 288.0384193202786 149.21813437901525 M288.2007723109042 150.7097366967092 C290.2256930557341 134.18520843095263, 289.7345221644879 115.459361393038, 289.2187231742809 100.84251206784455 M287.15455726350353 149.11508841837002 C288.0352641214448 133.27452409598857, 287.515491771122 117.10992348373132, 288.54743068544565 100.87207797861925" stroke="rgb(0, 0, 0)" stroke-width="1" fill="none"/></g><text fill="rgb(0, 0, 0)" text-anchor="begin" font-family="Consolas, Courier" font-size="20" x="190" y="130">lst1</text><text fill="rgb(150, 100, 28)" text-anchor="middle" font-family="Consolas, Courier" font-size="20" x="317" y="130">id82</text><g><path d="M288.7001032010942 174.15679049062283 C301.66387108228514 176.61204437386246, 311.77798008608215 173.20055547397268, 345.1615715906383 174.87149198607517 M288.33760701130694 175.31842023848168 C307.82223012969496 175.11800720903048, 326.04656612377397 174.5877334422136, 346.0748105427986 174.48733702240173 M345.59018667093136 176.1040190728932 C344.5986141211756 191.28067195250856, 346.49982698057175 206.94461491843782, 346.29136583831234 226.2903695518675 M345.2170265426545 174.20004306439364 C345.734100467295 195.09482304041055, 345.22880335805615 215.54666589818336, 346.1878844338614 225.2611029016328 M344.15402247310107 226.7975470862804 C324.2231070300936 225.2043494684123, 301.8517996062955 223.0998730221574, 287.05282220844737 226.88098655926882 M345.79012952196445 225.5900098419538 C330.4416523121798 224.88665392619617, 314.7563569770227 225.35013704673113, 287.8167298692685 225.15450288527248 M286.936052630827 226.37262930277276 C288.3131947323124 211.76557056784986, 286.8718721192048 197.12876214275647, 289.3689255600912 173.27616491637482 M288.36365744972704 225.22741047047032 C287.6861168348255 208.81231874022959, 287.09382282570425 193.1148941724015, 287.36990571541344 174.45818162489513" stroke="rgb(0, 0, 0)" stroke-width="1" fill="none"/></g><text fill="rgb(0, 0, 0)" text-anchor="begin" font-family="Consolas, Courier" font-size="20" x="190" y="205">lst2</text><text fill="rgb(150, 100, 28)" text-anchor="middle" font-family="Consolas, Courier" font-size="20" x="317" y="205">id84</text><g><path d="M289.8836344506015 248.41665731540368 C307.29825275100256 248.46747798175315, 328.27098856259556 251.07803501009096, 345.98691667271487 251.44801096933048 M287.1637175465967 249.8525435367409 C309.91394617397856 248.8928414852534, 331.3820462807194 248.98058485502102, 346.8831385868977 250.81502562032858 M345.96080653871144 249.10351507369464 C344.99840449437573 267.94383311923497, 346.387974724275 285.99469384072177, 346.3295797905667 301.4925354475957 M345.0703002420815 249.67245048447504 C345.7043324890275 263.2517937299718, 346.045992207491 276.66190246873776, 345.4629590656249 300.9045095978429 M347.3134908365863 300.5282516484281 C334.81613147172345 300.09050285572397, 321.44410466368186 301.40703537140956, 286.42617909984045 301.7815805455668 M345.41804188845526 300.42102770126695 C329.0431547071964 299.41754300851784, 311.03339753346876 300.6917931213761, 287.6317853379835 300.6896472497056 M288.3071485243392 299.82631290522386 C286.1153922666337 285.23175663124454, 288.8164692777467 272.5781926012615, 289.974128172086 249.39141903823668 M287.21836813676765 300.1950648580578 C287.94927800478223 287.02214553661685, 288.6462693147545 275.84074285078225, 288.9747041623638 250.74907483671245" stroke="rgb(0, 0, 0)" stroke-width="1" fill="none"/></g><text fill="rgb(0, 0, 0)" text-anchor="begin" font-family="Consolas, Courier" font-size="20" x="190" y="280">p</text><text fill="rgb(150, 100, 28)" text-anchor="middle" font-family="Consolas, Courier" font-size="20" x="317" y="280">id99</text><g><path d="M288.94139901482015 324.37388678001025 C309.9003605323095 323.43588361093964, 333.1001160892619 324.6813007410339, 347.53654953420505 323.1089060458035 M288.699865505549 325.83265985720794 C310.52935015729213 325.5705428693895, 333.073229137361 324.34733465311234, 346.29267698417806 324.45832177946914 M344.65138138929603 324.40723842199776 C345.8990956269146 340.73203409287476, 347.10328267093274 358.53581976583143, 345.32492084316897 376.64580744322774 M345.8466646040726 324.30594609581436 C345.2101788664094 344.5048894891752, 346.5388757498651 361.1974559413949, 345.94326394403583 375.79639186346117 M346.8027890327221 376.586286154241 C327.6197240268541 373.54964479397177, 313.6803566820592 373.0310462679644, 286.12810364101585 374.1109329670592 M346.2708524828345 375.1950479800613 C327.8912355648736 374.9217907364378, 309.097942599824 374.8817214588791, 287.7089521167605 375.2532257299869 M289.1492950348721 374.71013671757265 C286.7684247565678 360.209267272528, 287.75758043658374 346.62527318214427, 289.39731871237836 326.4451389823302 M287.3332357833782 374.6478789209798 C287.06283996984865 357.96653756548693, 288.4228939000543 340.476119582636, 288.2743600682524 324.9083052409548" stroke="rgb(0, 0, 0)" stroke-width="1" fill="none"/></g><text fill="rgb(0, 0, 0)" text-anchor="begin" font-family="Consolas, Courier" font-size="20" x="190" y="355">d</text><text fill="rgb(150, 100, 28)" text-anchor="middle" font-family="Consolas, Courier" font-size="20" x="317" y="355">id10</text><g><path d="M286.8479556581141 400.27877514419123 C308.59698803932076 400.4050469011268, 327.895856668118 398.391301323215, 344.57703858490527 401.2012920092647 M287.0035757280693 399.67303349163296 C299.11863815544575 400.15152516594065, 311.6035183699004 399.8747514370682, 346.67047158283304 399.1306225170068 M345.39225090307235 399.4886617270786 C347.7713609266949 416.67164377948194, 345.2614129917837 436.6435660105208, 344.2813961885446 450.6978723637362 M346.3597992811668 400.38708820105376 C346.80743207042065 414.7667643703177, 345.93627263872025 427.79355931641516, 345.24235090781497 450.0014831401587 M345.0331011926662 450.69946006145295 C328.6850932102525 448.7572871251854, 313.12046514297737 448.81752770335856, 288.6112742607976 450.2522579291788 M345.3006476061542 449.67753886362095 C334.00931595235494 449.21210354703487, 321.20126735312687 450.6991875296579, 287.23656327730697 450.01530701906404 M288.64489360436227 449.54710939594605 C287.24317513761855 435.10120523431766, 287.5550232107093 417.83234282499626, 287.2574645507903 401.02126921585756 M288.35935392742 450.08599516318174 C288.44378518876545 431.0730823447444, 286.9129312584302 411.3260302338219, 287.8988734664527 399.55706806414014" stroke="rgb(0, 0, 0)" stroke-width="1" fill="none"/></g><text fill="rgb(0, 0, 0)" text-anchor="begin" font-family="Consolas, Courier" font-size="20" x="190" y="430">t</text><text fill="rgb(150, 100, 28)" text-anchor="middle" font-family="Consolas, Courier" font-size="20" x="317" y="430">id11</text><g><path d="M165.10669525933696 25.884941788211925 C200.95152366302133 23.920678780845975, 235.23161016140415 24.08579946015814, 271.5193337045943 26.522501668013398 M165.3572464450997 24.523173987253173 C188.4586483547463 26.076943348919837, 210.31176864223454 24.77592872476009, 270.72800185230227 25.882896330794736 M272.5238924507649 25.259340792141042 C271.5021833124625 36.32852533742215, 269.53855817849393 49.54265019235374, 270.46990211255775 76.97971408314704 M270.82497910453435 25.96637998743196 C271.0873724984819 40.12839194880312, 270.22977594201626 55.47081628004533, 271.5624985632463 75.95685459638764 M270.85463342148245 73.46313978278073 C249.21422222502693 75.60464777804438, 223.80590563471486 76.21524877158892, 163.9419908195017 76.21664637820675 M270.08675976584846 74.29933093404543 C243.2953065338059 76.26247629293695, 215.0145441783341 75.28066577251201, 164.2051767035697 75.52934515859495 M166.58043320474926 74.84329313468702 C166.57827845907227 61.5948702579025, 164.79230618217028 47.601200225852025, 164.37623222080737 23.792845867523233 M164.3825820513436 74.83774867361203 C164.12254307192518 61.752742175989624, 164.51403839599226 47.30165633446565, 165.49315838459364 25.870490207239094" stroke="#000" stroke-width="1" fill="none"/></g><text fill="rgb(0, 0, 0)" text-anchor="middle" font-family="Consolas, Courier" font-size="20" x="218" y="55">__main__</text><g><path d="M402.9144269085084 100.35017642575403 C413.5780583344572 99.97777180442304, 422.8729607209747 98.26482291802384, 452.3669929732148 99.58685736841602 M402.4362817492322 100.62987051107761 C414.2780270536246 100.67236095611867, 426.51723796925427 100.18912731270967, 452.77583746205397 99.52815549877275 M451.5484982814837 100.95601093711804 C454.6262141909868 116.17621175992538, 453.99058024300984 133.85085811273635, 452.38833030571095 149.18516649933724 M453.1396293436988 99.09241923213146 C454.1406874705674 118.51227512206356, 453.7543299039964 136.47962349966895, 452.99132958547307 149.41021020970894 M452.44875169038744 150.9367400895065 C440.0710520542451 151.41169142712627, 423.1930185658118 151.97121826764015, 402.68942823719476 149.97197389024052 M452.43683397760657 149.0033724853983 C433.9922824632157 150.50268362639218, 413.7982372358006 148.58462266596277, 403.89562138705537 150.76172425541495 M402.02328680654176 150.98020172380885 C401.6195447494679 137.47661128727313, 403.13336124314026 127.01672197911405, 401.369587373422 100.24778369788062 M403.78122555136093 150.41602441237404 C403.53773177865264 129.51847054799762, 402.60819446278606 111.1990211116103, 403.2029055066865 100.57323353229557" stroke="rgb(0, 0, 0)" stroke-width="1" fill="none"/></g><text fill="rgb(150, 100, 28)" text-anchor="middle" font-family="Consolas, Courier" font-size="20" x="430" y="130">idx</text><g><path d="M403.58762320363707 176.74040000750614 C420.4493666288777 174.55670704122014, 436.08258772548453 176.5571617826336, 451.08566989362157 174.0481193335127 M402.73386872930445 174.37395783647568 C417.6108043861605 174.0679082910858, 433.0849328187743 173.87206519327137, 452.9382955386232 174.8807547221957 M453.2983193942627 175.33420719821126 C454.9955384883968 192.1624587368086, 452.1329232421893 211.46317947592166, 453.3765231219642 223.86879788313195 M452.8450013429089 175.6251381948114 C453.33537901117774 192.39101684282002, 453.7999442154452 208.7142851810919, 453.8969400830838 225.05599720308274 M452.79964312159507 226.74200763059477 C437.69021709168896 224.3792974088852, 418.8985867452465 226.38866849579694, 401.32174141319916 226.38717941019743 M452.9698763552837 225.02507004168731 C436.22431063158507 224.45826637875447, 418.3696591231942 224.7818764855724, 402.7866287637157 224.30639722191987 M403.9632319557777 226.020052464123 C405.0960121412455 214.90061554500204, 404.2185351125492 204.937216842153, 401.19589483998396 174.71202683846866 M402.28678859665933 224.3982599201047 C402.5104394461929 207.57202488430843, 403.00851697998456 190.71980773198783, 402.39151776126425 174.1687381557328" stroke="rgb(0, 0, 0)" stroke-width="1" fill="none"/></g><text fill="rgb(150, 100, 28)" text-anchor="middle" font-family="Consolas, Courier" font-size="20" x="430" y="205">idy</text><g><path d="M402.787582259308 251.29225044840697 C420.15369130461545 250.43043323442748, 441.6696430555754 250.0383436966282, 453.6483641656474 249.9540141318731 M402.42203909721667 250.80518014748083 C415.70265949556835 250.9862988778588, 429.0114552865933 250.31293864666793, 453.83662938422685 250.25936886922648 M452.6211768081315 248.93741439056365 C451.8641634784048 261.37014868460153, 450.89133466181704 275.3912051206494, 454.1151772639976 301.8268369897117 M453.46611891347226 249.05652744469722 C452.26876307885914 266.70443935770504, 452.0204378964853 281.30623222644294, 452.7238781744225 300.90699001623057 M454.12164325806464 301.7867206788458 C437.1277724305827 300.70450076771675, 426.21911838456134 301.0750243461242, 402.77010971584303 299.74722753419115 M452.1063890614701 299.40217445614104 C437.05305203776277 299.493151865729, 419.01041790323535 300.37376178985204, 403.58215532679566 300.16388245779103 M404.88658941231864 299.7816442143503 C403.9906287319185 290.1021029421999, 401.9768720355678 276.98969576750056, 402.7262003172308 249.42078210661924 M403.46072013745504 300.76964601911214 C401.8213903857087 290.00853069883385, 403.6083998150739 277.4171940741131, 402.4624514186063 249.22722369397587" stroke="rgb(0, 0, 0)" stroke-width="1" fill="none"/></g><text fill="rgb(150, 100, 28)" text-anchor="middle" font-family="Consolas, Courier" font-size="20" x="430" y="280">idz</text><text fill="rgb(0, 0, 0)" x="484" y="130" text-anchor="middle" font-family="Consolas, Courier" font-size="20">:</text><g><path d="M504.31961225354604 101.98170992379919 C524.2748938742246 100.0653430409645, 544.1680049068707 98.45828868144933, 563.1523479117819 101.2839033699943 M504.9800788735599 100.5654790351007 C517.5677501160669 98.98831421320884, 532.6203353365299 98.83639894020259, 564.320838058887 99.86425038919141 M565.444636496374 99.22285884589832 C566.0493349730459 115.73375156659388, 564.3215053180579 133.22472125014679, 565.3751281163959 151.42025134609707 M563.6945197671203 99.92258736551626 C563.3685694183876 117.22260206431301, 563.8355608548953 135.01547001192534, 563.769632465995 150.2454217112546 M562.8963914761928 148.41782966617455 C542.348316728906 149.12546800576266, 522.4804922622839 151.25337163392962, 505.2980653240027 149.01368726713804 M564.5232212057384 149.01568891679804 C542.3264981631921 150.93928420276777, 520.291656568005 150.17494473088158, 504.2879023927728 149.17081706233898 M503.1353408568884 148.22003035881124 C503.93131257859045 139.49373002663202, 503.54358788955744 126.66234486793769, 504.8755563330727 99.01582033163822 M503.0571308044285 149.1536614347508 C503.647206575317 136.49680231212807, 505.11477794687136 123.56268520611748, 503.3484105025504 99.30815158132296" stroke="rgb(0, 0, 0)" stroke-width="1" fill="none"/></g><text fill="rgb(150, 100, 28)" text-anchor="middle" font-family="Consolas, Courier" font-size="20" x="534" y="130">id81</text><text fill="rgb(0, 0, 0)" x="484" y="205" text-anchor="middle" font-family="Consolas, Courier" font-size="20">:</text><g><path d="M502.19792462827445 176.4528330419775 C528.3035724054346 176.04825385522238, 550.0197501863789 174.10357219031624, 577.7678966317943 173.97860428999078 M503.5764599580365 174.93046913269626 C526.5580822544559 175.23760677505257, 547.2319881418726 174.36258096070378, 575.7458980304282 174.8087048925413 M576.7583800681417 175.98890942385248 C574.378225168621 191.72100586309915, 576.9946966536014 211.92768523458216, 576.3215954720512 224.94249597750877 M575.6947175609251 175.68769294168828 C576.4588615194212 194.59461691321025, 574.9926053467002 214.77472146347583, 576.4423314106914 224.50405693794835 M576.2483052805572 224.71187424720458 C559.3295897188488 223.9998069225297, 545.1645009720165 226.75092735172493, 504.16472205177814 226.09799180558346 M575.5760022944062 224.8223075386002 C557.0539382957529 225.6342342024016, 540.0369215050031 225.03736714734, 504.1773257321327 224.84299297236015 M504.23733601002 225.13972065877002 C505.8413730665381 207.80903634815184, 505.35546292746346 189.75088060634283, 505.88604389354043 173.28060263940336 M504.98194999149035 224.3391308864951 C503.5497959127656 215.80935622828483, 503.5376192302701 205.10459399678624, 504.9351697394545 174.82644205114292" stroke="rgb(0, 0, 0)" stroke-width="1" fill="none"/></g><text fill="rgb(150, 100, 28)" text-anchor="middle" font-family="Consolas, Courier" font-size="20" x="540" y="205">id100</text><text fill="rgb(0, 0, 0)" x="484" y="280" text-anchor="middle" font-family="Consolas, Courier" font-size="20">:</text><g><path d="M505.59353091214484 250.5182231178417 C519.0675089088917 250.51712066210322, 534.0559097852553 250.96150706971073, 574.2906550234145 251.81150341396463 M504.1060409806206 249.0083899455381 C527.0912064949327 249.52431679808748, 548.7074983629896 250.02716800079378, 576.293686323118 249.5581492477187 M574.3951061411301 248.17243382559576 C577.4771188856712 264.0835236083558, 577.4921480022937 279.90490348900767, 577.6205390067618 300.8460129522387 M576.5607066156232 250.82470274463796 C576.2221318483188 262.1895725760827, 576.1500694399969 273.0318922275917, 576.720151793589 300.6431868100119 M577.5886976811751 299.3926608124455 C555.0515182085778 302.34389672143476, 535.6714006038567 300.64044051841995, 505.18285591580553 299.8035107603727 M576.2419180222759 299.3435110839565 C555.7868873763517 299.9993388625647, 535.8595291459822 300.5585339414164, 503.1117869838318 300.6070454448463 M503.21833949649476 301.573650527709 C505.26932371410226 280.33556303759735, 502.298991131468 261.7690894651813, 505.52109561121995 251.22400445076443 M504.06329741401964 300.68739829120193 C504.0795266554501 280.3299977643185, 503.11024526841 260.85466322236465, 504.3791394649149 250.18995372873576" stroke="rgb(0, 0, 0)" stroke-width="1" fill="none"/></g><text fill="rgb(150, 100, 28)" text-anchor="middle" font-family="Consolas, Courier" font-size="20" x="540" y="280">id121</text><g><path d="M377.03595084767306 23.350529193477104 C426.16204563403556 24.230097474282612, 474.47776374889 24.45887394245625, 591.2008171403005 24.473283542031034 M377.44833060278637 24.78470153008066 C429.14308947580116 24.485701382706928, 481.66976904988235 24.524227283785844, 590.757262010699 25.071730077351436 M591.1461456054709 25.19687296513223 C591.2786579671416 116.66165471215271, 589.3999101822582 208.2716589557904, 590.9068343916327 326.1257164995081 M590.6045788080314 25.570766178836543 C591.1445122131715 140.81980952140808, 591.6816762191147 257.47350108370057, 590.109793162134 324.2845738123798 M589.0103942495839 326.23327557604375 C539.1224139875936 323.66447478912175, 490.1310675995024 324.62277602502087, 379.33808334234595 323.66542967274705 M589.3318307818413 324.8427732071535 C521.2749260373016 326.9539037151118, 451.5161582174696 326.2591903732116, 378.8301994906433 324.3404885029512 M378.6428875890128 324.41556950998694 C376.4082330458334 216.4266077155333, 376.78972995836665 111.15102061010981, 378.4245097914464 26.14536337327932 M377.7350054305035 325.0102074795855 C377.3506047038396 253.34049967997066, 377.80664195239854 180.25338423948983, 378.0202911080493 24.31135394047187" stroke="#000" stroke-width="1" fill="none"/></g><text fill="rgb(150, 100, 28)" text-anchor="middle" font-family="Consolas, Courier" font-size="20" x="408" y="55">id10</text><text fill="rgb(27, 14, 139)" text-anchor="middle" font-family="Consolas, Courier" font-size="20" x="560" y="55">dict</text><g><path d="M377.70102080738206 26.890929729038177 C395.3677004966064 24.969077161755877, 414.8082803270014 24.563972419368323, 437.0102437545707 24.292055830292103 M377.56319621170013 24.343063575474027 C393.0963802544876 25.775855969342647, 409.9518797204474 24.079628354958704, 438.88281836122565 24.565103212673908 M439.17972196492275 26.146419043591905 C437.9414000875863 39.84100111164906, 438.58869077287085 52.13430992139641, 436.8889554594045 74.7268457624059 M437.0692373005403 25.958377976273013 C437.586688650444 38.569182500844846, 438.5344450559991 52.75058542884484, 437.1843121604846 74.37217399882131 M436.03037432617066 75.7583562832049 C421.41876423739075 76.39509045576467, 402.6203792182796 73.98809985383616, 377.05825290869797 73.20743484979371 M437.73780075916727 75.77769785542105 C423.92158612791127 74.75127244952454, 409.9987390350306 75.76046461269583, 378.10861623043985 75.5587543441692 M379.9522929244412 74.59261666521923 C376.3165809675826 64.36974240904026, 377.68056705798665 50.64505023868995, 378.69856485412936 25.580218032558 M377.58332461723694 75.36769089473549 C378.1435544611683 55.40345602743564, 377.6460599404247 36.230663289783394, 377.3967252230137 25.176822827939546" stroke="#000" stroke-width="1" fill="none"/></g><g><path d="M529.1512429188984 23.239984214479186 C544.3722527931858 26.369951444691438, 555.8081408677941 24.306698685314807, 589.7433567785712 26.54763398409574 M530.7777180332204 25.550968617319743 C550.058871596955 25.008692368330514, 568.0293074478785 24.730181679510224, 590.1686756895347 25.058609624280745 M590.6153193746052 23.522618904346487 C589.0081310294988 40.46774493935891, 589.5264549156993 51.52966397859939, 588.7203251817297 76.46434965568055 M589.0085961594827 25.759315934619067 C590.5093916784939 36.35071044637461, 591.3294940967099 49.17200330073538, 590.7077206813533 74.12307890923533 M591.5950117224746 74.1715395966268 C565.3561063875546 75.50537463157242, 544.3050263222331 73.54072569948987, 528.6492546889779 76.42061748175236 M590.9020324465208 75.2045556076697 C571.5667928603388 75.00272512251026, 552.2505334398718 75.25943869926871, 529.6916301765834 74.3035749455919 M528.59806704421 73.62693130707409 C529.3010170910854 57.413134752900845, 529.5880576875142 35.63448314051612, 530.2939505073799 25.497759869348414 M529.8088368899657 75.42156792767848 C529.2828443125537 60.62351747984314, 529.0592423869335 46.61635979228085, 530.1122404801597 24.339117194569223" stroke="#000" stroke-width="1" fill="none"/></g><g><path d="M603.9407519829066 25.347543761835084 C657.8878937991872 25.561080700917813, 709.1352936009978 24.117529975394536, 804.1321421461421 24.275032938687026 M604.0253622098163 24.73819103692145 C660.9306391896489 24.589485498341833, 714.4664667501264 24.376405343911216, 802.3927189178017 24.976243253376076 M803.8091349352113 24.949341965440805 C802.0751356723894 101.10904307752385, 800.9441594491135 177.64356687111436, 804.020494461755 249.63024454832447 M803.5059315028972 25.07565228512395 C802.0669766531773 110.44015401086675, 801.9475785399449 197.0034459358602, 803.7383400040981 249.40382064055146 M802.7627307110871 250.07345219741273 C732.6733221256802 253.23951964708587, 664.9823635294991 252.8305467400286, 603.6852622350659 250.92780319248027 M802.462854347227 250.051077205429 C733.7301836967973 252.44838833880812, 665.6125400763539 251.9178607767519, 605.3707237300815 249.67321762701766 M605.1664943192266 249.39535203409406 C605.4941203829146 168.9189699699691, 604.8176819417503 87.2859251339802, 603.5722222802165 24.911756795690664 M605.0951262249299 250.34144967587767 C605.9155463640684 162.73423394963916, 606.8265887076071 73.28497321655554, 605.5992986325057 24.177795960675688" stroke="#000" stroke-width="1" fill="none"/></g><g><path d="M728.5504631848344 100.96429383647704 C744.9491693621468 100.62011548746085, 760.75794461661 98.89255783205441, 786.665587192561 100.85690468315262 M727.9539270590589 100.4586824848385 C750.6431722735017 100.45971410436677, 774.1338079747416 99.7652486004641, 785.9980218629493 100.56651107670562 M786.3708504387056 101.21979235530344 C788.0986505177663 115.34882553826645, 787.7911968496849 128.40659736129447, 784.557705802815 150.446610776011 M785.5134182376172 100.78179906257206 C786.0559030621466 109.50682117869958, 785.5989783477784 120.83471970403764, 785.5095600037772 149.70279089916048 M786.5028028352059 151.68310262805088 C768.007146645093 148.7255180066025, 747.2149979080604 151.41647941876755, 726.6403837292789 148.21101655385038 M786.8603583417861 149.00462689505142 C771.4013822243923 150.06386578946643, 757.2416748958719 149.22685016341717, 728.1367180486311 149.00723116322743 M726.1299402709296 150.53223357431904 C727.5037489456035 136.95644592885904, 728.3398116964372 123.58127235965742, 727.4222759374616 101.9253471954283 M728.5857996180351 150.15678445380811 C727.4358204171621 130.37920450861577, 728.2986511701378 110.00127399795247, 727.3478361471393 100.531257838808" stroke="rgb(0, 0, 0)" stroke-width="1" fill="none"/></g><text fill="rgb(0, 0, 0)" text-anchor="begin" font-family="Consolas, Courier" font-size="20" x="630" y="130">age</text><text fill="rgb(150, 100, 28)" text-anchor="middle" font-family="Consolas, Courier" font-size="20" x="757" y="130">id12</text><g><path d="M727.6409887185674 175.70611570818158 C750.9540874811165 174.50375636276573, 770.6633055936342 173.9244902736651, 786.3951301276765 174.84984721311358 M727.8870873532755 175.88769061263477 C746.6582735813316 174.0171476082288, 763.4745655796362 175.1080701705919, 786.5217161014325 174.35580214093665 M785.8332369875833 174.68360924136744 C785.9228917625308 188.85920050444332, 787.1646925272319 201.43726921545186, 787.2877168122606 223.91974931645262 M785.8862213622773 175.8896040887292 C786.2726628761662 185.8255110536584, 786.9227332990882 195.3766129599137, 786.016960237494 225.0785756667799 M784.0933420088462 224.50562595773806 C765.7749234993361 225.6935250874643, 743.0701424144416 223.05471612690252, 726.7431713426537 224.28980176974386 M786.7870925915289 225.56082107048275 C767.6806469635218 223.81299877653447, 747.9055109509897 224.69190601396474, 728.0561612414274 224.51991564033437 M726.3921994381061 225.50032115002534 C728.1447494452201 209.17499190428563, 728.7859938474202 194.1600677886482, 727.2079120162383 173.50261400308372 M728.7366721321257 225.18025766775864 C727.8343974230212 214.13050218122822, 727.3214239878471 204.82528408484367, 727.1160122719141 174.9015056573176" stroke="rgb(0, 0, 0)" stroke-width="1" fill="none"/></g><text fill="rgb(0, 0, 0)" text-anchor="begin" font-family="Consolas, Courier" font-size="20" x="630" y="205">name</text><text fill="rgb(150, 100, 28)" text-anchor="middle" font-family="Consolas, Courier" font-size="20" x="757" y="205">id17</text><g><path d="M606.3865310620208 26.620309988228044 C623.3400865274028 23.37078250861899, 641.4062526365702 23.53295848947292, 664.9882521840394 24.025810072839725 M604.0855376002498 25.255102929855486 C628.269412025018 25.586943930050797, 651.2241433610178 25.57620128706717, 662.7589276779669 25.418277505672965 M663.9901802767065 24.91847074865418 C661.8314876961879 40.942731100624, 664.1933357681739 59.79536793854256, 664.5047844670523 76.16758815239581 M663.5179170949717 25.532920898507964 C663.0249840204276 35.37882838094698, 661.9691388457036 45.32418498396691, 662.5851784527191 74.74235202600866 M662.5650959701338 76.31607201757124 C650.8759682785444 74.9095046027844, 634.8446693075321 74.91835883588938, 606.2791370073088 73.58241296921722 M662.3399008199234 75.25089290301234 C646.3081408945261 76.06641246604325, 629.8722805795437 75.53676228349678, 604.59398991259 74.35382243594961 M603.1750363382977 76.27968148836865 C603.7799730940557 59.95793125293308, 604.2458238779312 42.19869377221203, 603.3091876210242 23.534014708995294 M605.6621261879989 74.0680083093917 C605.6413195667424 63.566028947453916, 605.3748449850129 53.118833585341186, 604.647347962039 24.624383478839615" stroke="#000" stroke-width="1" fill="none"/></g><text fill="rgb(0, 0, 0)" text-anchor="middle" font-family="Consolas, Courier" font-size="20" x="634" y="55">func</text><g><path d="M166.22099779127294 490.65559984558337 C228.96121483146098 491.87280280355634, 291.972979328749 491.7394663703784, 448.39099818302907 488.5123650216773 M164.50338872313625 490.7291564678142 C233.00552489747102 491.1333685412155, 300.0951669366914 490.3989023046573, 447.4897021812782 489.2634182389097 M448.733409388983 488.7409957987754 C446.0281969499683 539.0958661189715, 445.7481635982967 587.147025657933, 445.5029408485112 638.7303537155092 M447.0125929984971 490.0548164929106 C446.1043415650371 547.9413544993382, 446.93832061645384 603.5208367987186, 447.38320116359705 639.7387303799115 M448.00728479622694 639.488159409564 C364.99335540114004 639.9221358426269, 284.9684122320893 640.9299887215046, 163.50346248914565 640.5065219639591 M447.2475029704287 640.0450871968087 C386.49163487884584 641.684097588829, 326.1023406797333 641.2713152151235, 164.43613499339614 639.6013546203733 M165.6153886342715 638.4889297635252 C164.60269482488977 590.5295155309083, 164.58607480782683 544.2996240263244, 166.77662659351458 491.57522514701185 M165.11061727298488 640.5689019820143 C164.49011151890312 590.2209170436555, 162.99738139726838 539.6632872037713, 164.68349134289116 489.30776107059717" stroke="#000" stroke-width="1" fill="none"/></g><g><path d="M188.29003769812564 575.3795517286594 C205.49659638144473 575.6685902153531, 223.39560366716486 577.1472042833038, 247.34825616665276 573.3960049797639 M190.4566075916593 575.6627197586151 C210.18973062170565 574.8460111699662, 229.52245738938183 576.0995011081279, 248.60701747495867 574.0321388604565 M249.74363385546553 574.1495108765455 C246.9352332759235 588.9573311087167, 248.57744662507494 607.8141399413864, 247.68159153176083 624.5331925441692 M248.76969592645875 575.9734286604304 C248.18368729353222 592.0727154685259, 248.39686037742868 607.6764458953966, 247.1774456323185 625.1353426021103 M246.21507810820677 626.9686297696041 C227.6099589216231 622.9042722297454, 204.10002196575925 625.608993084921, 188.64937441925377 626.830495543663 M247.78348806974833 625.3232710938364 C226.82641629273138 624.8995754124015, 207.61470348058378 624.8110578099443, 190.4058915263085 625.5204432822817 M188.7459360298432 625.9308363068459 C190.1865733929025 613.0062886655257, 187.97880603899702 598.700731059916, 189.5650921358185 575.9520843777246 M190.6186183695947 625.4028044678479 C189.24904417624865 614.3161900585698, 190.31054322763393 603.1418482966975, 190.93098659423583 574.0807123954953" stroke="rgb(0, 0, 0)" stroke-width="1" fill="none"/></g><text fill="rgb(150, 100, 28)" text-anchor="middle" font-family="Consolas, Courier" font-size="20" x="219" y="605">id32</text><text fill="rgb(150, 100, 28)" text-anchor="middle" font-family="Consolas, Courier" font-size="20" x="219" y="562.5">0</text><g><path d="M247.43717119032385 575.2571580956136 C263.4232173053469 574.7944092610821, 274.91079497557854 573.2304830711652, 306.9080757045875 573.1590608113996 M248.91554619693682 575.2603070308592 C262.7973682191554 574.3264190090002, 276.2840470811582 575.4329095313933, 305.90669887803347 575.31533036334 M306.01377569047867 573.7098211077782 C305.66854596193775 591.3809234203826, 307.62595419888754 603.7709024984263, 306.45514489610144 623.1509045092329 M305.02875118167964 575.0285502247499 C307.20105673645384 592.6948228168277, 306.94740042535864 609.4916940627957, 305.9384374617387 624.7445543773348 M305.2094435481688 626.089221651515 C292.7415101678708 624.7778520569192, 275.09629146637707 624.1043695581848, 246.92193468001267 624.0233709061268 M305.47472627255866 624.0058892441969 C285.30904500777933 625.0242432941442, 265.65904039696755 625.7882310120667, 247.74321067353668 625.4543991110843 M248.28936178334908 624.8937851543641 C246.78243670763965 609.0083756852915, 246.1716628680919 593.6313055267063, 249.925982706941 575.4129538107538 M248.84033603498378 625.1160732799445 C248.14281664558825 613.6824107172, 248.40502707118952 600.532374406905, 247.21645353373302 574.886129495583" stroke="rgb(0, 0, 0)" stroke-width="1" fill="none"/></g><text fill="rgb(150, 100, 28)" text-anchor="middle" font-family="Consolas, Courier" font-size="20" x="277" y="605">id10</text><text fill="rgb(150, 100, 28)" text-anchor="middle" font-family="Consolas, Courier" font-size="20" x="277" y="562.5">1</text><g><path d="M304.77737046692516 574.4046170450677 C321.27095282701504 573.5237667528919, 339.73691160925375 575.2207234128055, 364.00491987045444 575.4122716983741 M305.29493951330574 575.5475871792676 C322.17978835882286 574.2900177476009, 336.7090600787231 575.0534172387337, 363.8248879843027 575.2146320907448 M362.03231293518417 573.5858186635062 C365.2888648582721 594.3410486922552, 364.2655594958309 613.6735846586247, 362.77414519822923 623.7668802339628 M364.59110111365334 575.6689561329591 C364.7926808113385 594.1526096503711, 364.71895882906665 612.9319847351679, 364.8977692847781 624.1794211215147 M362.97757850063056 625.308347452795 C350.80122113278924 624.1301347700125, 341.6945393334868 625.2104875359074, 307.1337463821601 625.7094083165001 M363.1856779802313 624.4917921375608 C348.8819797656922 626.0249392338455, 335.1663216768463 625.1715450344227, 306.54377321334505 624.62631085501 M304.23198077092127 623.8656076155028 C306.26636994201834 605.1968606789089, 306.6266172860597 583.7915482833566, 307.9216562543471 573.5274495010725 M306.99542635653097 624.0204666981606 C306.5674002029298 606.8787254419533, 306.3768584803307 588.5931418508296, 305.62604188787463 574.4546213858958" stroke="rgb(0, 0, 0)" stroke-width="1" fill="none"/></g><text fill="rgb(150, 100, 28)" text-anchor="middle" font-family="Consolas, Courier" font-size="20" x="335" y="605">id90</text><text fill="rgb(150, 100, 28)" text-anchor="middle" font-family="Consolas, Courier" font-size="20" x="335" y="562.5">2</text><g><path d="M363.663723787916 574.6950392408252 C379.48526481650185 573.4885447640677, 399.60044559677226 575.958044333604, 423.61827067074876 574.2934138451076 M364.63968931634207 574.2536176403478 C386.84743026871837 574.270546674973, 407.98488562682155 574.1128137737239, 421.6394344537589 574.1589127349243 M422.2920195610883 573.6062559641634 C421.8694993785678 591.5690622623626, 422.477352704107 610.5636529663865, 422.85812276828705 626.5475199648882 M422.9295522518815 575.2761543228445 C421.5994788524349 585.7756012098722, 421.910660728137 597.1668964795524, 421.79741702983114 625.8337245010554 M421.117559209848 625.221752678618 C403.0973642030506 623.6147818336219, 387.3231398877531 624.8704418232992, 364.1013213360247 624.209252682329 M422.8785953670466 625.6169220143772 C400.4547278837937 624.7362756817403, 378.3315802225364 624.5558920263908, 363.9773777332438 624.1906302105378 M364.480290238049 623.7725736254084 C364.70814250031503 608.3528666573343, 362.7528051677598 590.4786782079772, 363.79854490183374 574.836663835935 M364.4546701422041 625.6798505447913 C362.7941181443715 607.2017767854461, 364.4938228782504 590.2328428300282, 363.6797491362472 575.1392275794685" stroke="rgb(0, 0, 0)" stroke-width="1" fill="none"/></g><text fill="rgb(150, 100, 28)" text-anchor="middle" font-family="Consolas, Courier" font-size="20" x="393" y="605">id57</text><text fill="rgb(150, 100, 28)" text-anchor="middle" font-family="Consolas, Courier" font-size="20" x="393" y="562.5">3</text><text fill="rgb(150, 100, 28)" text-anchor="middle" font-family="Consolas, Courier" font-size="20" x="195" y="520">id84</text><text fill="rgb(27, 14, 139)" text-anchor="middle" font-family="Consolas, Courier" font-size="20" x="417" y="520">list</text><g><path d="M164.86473623086678 490.327833376812 C178.57314745444413 489.96708993705994, 195.56637819489927 491.54725653975765, 223.19452251618665 491.905467063226 M165.27168498901617 489.77286805086374 C185.8485045300486 490.5526756568507, 206.4676274670004 490.65370916229654, 224.63254698667404 489.3871466736137 M223.99925641153024 491.0375340075457 C225.31964041522025 509.7313763818365, 225.6044959431985 527.109702223478, 226.28891974335275 538.7679225973685 M225.91331979286926 490.0867316847584 C225.34900861925635 505.09088050767696, 225.18734086627285 520.9521153572158, 224.92065710911353 540.5926453272301 M226.3158960218801 541.0741353083843 C201.88942725102865 538.4530421085457, 180.78620027879668 537.5549846040368, 166.82164829935954 541.8436679934765 M225.09265118593663 539.8525915551129 C212.23520086924594 539.4318305269568, 201.30495111597898 541.2975016503236, 165.57579268909964 540.5544295244479 M163.0370070640456 539.7173258835302 C167.01482784962647 521.9910801915014, 165.1747385819541 501.20831356103565, 165.45564957646596 489.0868099451831 M165.81440360368563 539.7661325436774 C164.56185908859828 520.432913284245, 165.51138891471825 502.5933071595835, 164.67328010120053 490.58452113319015" stroke="#000" stroke-width="1" fill="none"/></g><g><path d="M385.5938141382411 488.83003077772145 C410.19774756396987 489.0936034978169, 432.7964814245579 491.62130687433626, 447.7733429702912 488.12051070730035 M386.6728449458669 489.0397813807149 C406.9488476674095 491.07977305332224, 426.75734389757616 489.9997217472621, 446.3345134638471 489.1578655987805 M448.7461864264593 490.7966999228449 C447.06491362460906 510.80824539217525, 445.34364233160375 527.6889967761797, 447.3573488498869 540.1145737091088 M446.58773775417916 490.3345565650254 C447.5909241519784 508.22549968311324, 447.41489297658353 526.6713667560972, 447.0892616690694 540.5928661739546 M446.72740466245943 540.041691619862 C433.1412762082027 538.3925932155888, 421.8776645034306 540.9749622459079, 388.3045838661203 539.7552582863622 M447.3982016474724 539.0467210383847 C425.683209262676 539.9987255811882, 406.0961297108623 540.6987760342377, 386.2316185776046 539.5116066826334 M388.6562436540378 540.741905518819 C387.58639685464226 524.1018148343555, 387.3076880806268 510.84967324234947, 386.8034692831224 490.4305067344958 M387.42406952577744 540.9655876205317 C387.17786874846774 523.8517691819509, 386.515616274162 508.8513849481863, 387.92796331944123 490.9279932875724" stroke="#000" stroke-width="1" fill="none"/></g><g><path d="M462.73839404233485 490.2648477196942 C505.04510170845595 490.62650761476186, 548.0956523553413 489.096404998202, 660.4647327840653 490.2568013688481 M461.7886423767746 489.1584108738678 C535.4460336857959 490.5013020669036, 610.7355548324527 489.7542947023571, 661.4381030833545 489.99498464134143 M663.667706167003 491.8924557866035 C662.1469532400085 538.0120021710296, 664.5368311514692 590.0931238698342, 660.7472301410247 618.6969384652793 M662.3990176980473 490.76622279657033 C661.7502115815698 526.8007879060524, 661.1168129755034 565.890287641689, 662.1319139255944 619.8512163219006 M662.4857798969954 620.252473175214 C617.7288231595697 620.0090973249236, 569.7333062404613 618.6848361021955, 461.166431177283 620.2126219453056 M662.8688537230581 620.553922456485 C603.042410727131 620.4756695300864, 545.1287759906922 619.5887108496424, 461.5893178240094 620.6744371827059 M461.76985409314534 618.9538106066966 C461.6120176448022 581.4530558455375, 462.61995327028524 545.3103396104547, 461.5780250428893 490.5459266202938 M462.39120866131054 620.4302140251723 C461.7663940714073 589.4929008473159, 461.33429792109735 558.5732902754968, 462.1587043245415 490.37199213299806" stroke="#000" stroke-width="1" fill="none"/></g><g><path d="M455.7672998210087 483.507129304998 C523.5038744796595 483.3179742826975, 588.6510834447129 482.43234401196884, 667.7102625222622 483.9186091397974 M455.2031092793938 484.2770712620955 C501.06952423711124 484.3636925045254, 546.7759806649544 486.0091517054899, 668.7641262183829 484.8498444281126 M668.0397060654806 482.9364934568719 C667.5660050264894 536.5854937683139, 667.4097118261541 586.9191389084566, 669.8095898901067 625.8938571678403 M668.5108694985161 483.79671366361407 C669.7834584350877 531.2978174010841, 667.9042226681061 577.1127320060436, 667.4143365419217 625.5762527313663 M669.3814036294673 624.4363935631229 C597.9188009951333 625.2620060231447, 530.4750068895119 623.7884935861267, 456.0703520438559 625.9154254065676 M667.6544883988228 625.9260323636927 C608.0180843961342 625.2199372540093, 547.6850733775309 625.1680733577273, 456.540980131763 625.8342458829488 M457.80393493859094 627.8464872329547 C455.5982481422708 582.9802464805546, 456.1149846072316 542.2266700621806, 454.9792964405012 484.6771505778249 M455.0264702531775 626.5517254632048 C454.9508170533012 573.6407115247015, 454.66945997419685 520.8635822900493, 455.8871085407601 484.57730833597026" stroke="rgb(0, 0, 0)" stroke-width="1" fill="none"/></g><text fill="rgb(27, 14, 139)" text-anchor="middle" font-family="Consolas, Courier" font-size="20" x="562" y="580">1969</text><text fill="rgb(150, 100, 28)" text-anchor="middle" font-family="Consolas, Courier" font-size="20" x="492" y="520">id19</text><text fill="rgb(27, 14, 139)" text-anchor="middle" font-family="Consolas, Courier" font-size="20" x="632" y="520">int</text><g><path d="M461.3585867005472 490.3435004412696 C474.6602175579575 488.66355930163695, 485.9271871011316 492.0993424864177, 520.7972248438246 491.67243535212504 M461.8054565206713 490.47653065317115 C485.2166481927216 490.5980895432154, 507.40542796074647 489.7180945848092, 521.9447512100095 489.91498480813345 M521.7054762273464 488.2340997170755 C523.2433434798259 500.0702172667533, 520.7699228808399 511.4411542966448, 521.204306605716 539.8112808672842 M521.9620089033498 490.19611908154116 C521.3112527520414 504.5142641535196, 521.0385229520341 520.949818286574, 521.2012142080553 539.0074979320107 M521.2238307309583 541.7059320402044 C497.27488469652474 539.3029478252597, 472.95185336664855 540.2400736538056, 462.01231861527936 539.5669738998342 M522.1831180738697 539.9540044566395 C503.5943465498252 540.2772199460187, 486.77888933317774 540.1580756580818, 462.4848216777572 539.0882179974009 M460.47580179303236 540.8478458581833 C460.4172333278239 526.8156980936363, 460.5790915953407 510.40763349901783, 463.1896402153458 490.4906215374343 M462.94804955684555 539.8954462433143 C462.6408313458743 529.6259503789488, 462.41341753318227 516.6540841341423, 461.67636742866625 490.03599948720085" stroke="#000" stroke-width="1" fill="none"/></g><g><path d="M602.5010105073617 490.39571744950825 C616.9857903950748 489.2655195173816, 630.6281170786837 491.6377340222003, 661.2236475092869 491.4173199635875 M602.7132955070296 489.5518326921049 C621.757146238635 490.60120951726657, 642.56427649342 490.0615524804943, 662.5982806841253 489.629873293878 M660.8743131724406 491.36583813755476 C661.6728864223851 501.81896415496334, 663.3261174779026 512.8117826263219, 662.3247478315293 539.3619967914707 M662.879575968246 489.7734280668857 C662.0840556072129 506.68732913330956, 661.5134851970122 524.0107603232412, 662.7662512623401 539.2047068746356 M663.886301576742 540.0070997417222 C645.8611788583826 540.4735171438358, 631.6189030281919 539.7872034329512, 603.8497072541658 541.4101284295829 M662.5333555838041 540.6908626868164 C644.8019193078467 539.6369876035156, 627.9024588160911 540.1047541764011, 602.0519617147274 539.5361517588022 M601.6658506964645 538.767895653563 C603.65579295612 530.7517328709333, 600.450706475871 516.1612432195207, 603.8094238467119 490.4625112520368 M602.476990638952 539.6693331491321 C602.9224938936678 522.795660151756, 602.9974212972377 506.9599262972463, 601.3989450936853 490.45605619772283" stroke="#000" stroke-width="1" fill="none"/></g><g><path d="M690.1527040878603 490.301418498765 C759.3390688453572 490.6105985167762, 830.4367776013185 491.2087346892898, 887.8697468437025 489.23231912187003 M689.8098328299353 490.28143287025154 C752.735491245941 490.06440670248537, 816.4275635001876 489.568288911749, 888.6640249654158 489.5842226612179 M889.8334368452898 489.3350039991283 C890.4733461080934 541.8285459611579, 891.10033578174 589.9820990713717, 888.3116936143589 620.6376059749681 M889.7684142534715 489.7322749615304 C888.5058999024232 538.2819359619635, 889.3276153741234 583.6438332938623, 888.4948387122948 619.4129157194669 M888.9406154466444 619.0828306854121 C838.4656709517702 619.2264311116944, 790.9904772701044 621.1130557250094, 690.2114351153476 619.6986250057442 M889.4599345244143 619.681845691355 C830.5621152043651 617.9351776390367, 773.9892750882094 617.7588640717225, 689.3018175687629 619.1901935773878 M688.6180629190175 621.4857897777171 C690.7370888632158 592.1383159825723, 690.0492619955241 562.3737038980714, 687.7295495985762 491.24213278015463 M689.4494603791094 619.049514865986 C689.8821656199551 584.2811674789679, 689.9373846507269 550.5741199962566, 688.7049624633256 490.41642287773453" stroke="#000" stroke-width="1" fill="none"/></g><g><path d="M684.046552754744 483.89372739320504 C727.0404319873205 485.29380137891457, 769.834714924439 483.04131527641533, 896.0675157014604 483.4414903026504 M683.3702723512263 483.79856503166866 C734.4742768379875 485.2607281490743, 786.1589351174507 485.37506895381205, 895.6087376102977 483.1332134578768 M894.3819339468838 483.9402274438759 C892.8733240874592 523.6358615541304, 893.7070112808009 561.5085405861385, 896.2451217254211 627.7939415557478 M895.6932715631161 484.63372110751993 C894.4117410990763 513.4935309523053, 896.1206701871174 540.862072650897, 894.1654839470888 625.5800321976491 M894.5256527507299 626.7580247313106 C843.6556115427367 623.3643852778706, 795.9267225664321 623.3905531296883, 682.081404743858 624.7816807144981 M894.2999930533754 625.2131069001175 C848.306222181897 626.6917951134844, 802.5267673725803 625.6772250658004, 682.8882619303306 625.5537770823443 M683.7770431813013 627.3984743824353 C685.0586597416642 574.2522741434484, 682.3434055630215 524.9455997090631, 682.3116513446391 484.51629281873727 M682.8258542971606 625.0392603620892 C683.4103679140198 576.7575382919484, 684.5847762924313 527.487852548923, 683.573012790895 483.5266120870064" stroke="rgb(0, 0, 0)" stroke-width="1" fill="none"/></g><text fill="rgb(27, 14, 139)" text-anchor="middle" font-family="Consolas, Courier" font-size="20" x="789" y="580">True</text><text fill="rgb(150, 100, 28)" text-anchor="middle" font-family="Consolas, Courier" font-size="20" x="719" y="520">id32</text><text fill="rgb(27, 14, 139)" text-anchor="middle" font-family="Consolas, Courier" font-size="20" x="859" y="520">bool</text><g><path d="M690.2367858925799 489.82778647083114 C703.5414228930907 488.5415955864543, 715.8829362914549 491.6004334925965, 750.0962873277555 488.27323443057804 M689.6639538728771 490.99586458489983 C704.4815507838166 489.6649677080457, 721.5761653975172 488.79479754095433, 748.5429737012427 490.28799575630785 M750.1909582855437 488.809456675735 C748.2122147223483 505.1186600555743, 750.7941560104209 518.0568141311804, 748.640220075637 540.1789930866383 M749.8398193995329 490.6358602092714 C748.5800828030427 503.1211014307744, 749.1131448184491 516.5048940357461, 749.0679549503462 540.2360758596527 M747.6289005335951 539.6226239303834 C733.5166271690296 539.6852346860123, 718.5907965189687 538.0015451347225, 690.9621187083452 541.2642685127015 M749.6886867931981 539.5270139017389 C731.8612149416433 540.4633750981731, 712.4443779209249 539.9991459693828, 688.623992429419 540.9053332860888 M687.6496038656862 540.0416975128053 C690.645926713669 526.6727270164595, 688.2872816825374 513.0754285342697, 689.0341908667203 488.70563747267784 M688.6019364292456 540.4148471458624 C688.3319016518744 524.4202737594906, 689.3835671365148 507.46331074825093, 688.1729477567292 490.3817546728927" stroke="#000" stroke-width="1" fill="none"/></g><g><path d="M828.0953495722382 490.34948316085666 C841.7222463511733 491.3840934779193, 858.0195587544853 490.3508381618302, 888.823754606275 490.9674231234691 M829.8999524355095 489.50098365022944 C842.357413369902 489.6758242786441, 856.2804996819785 491.27300134445125, 889.7677604286739 490.48296344678374 M890.0375228791481 490.47448856808774 C889.3003716070158 501.0159694922621, 888.7093577879551 514.1349559013635, 887.8851378580309 540.1804111847885 M888.1415415084067 489.2722295656359 C889.8270001320682 500.56983540059224, 889.771469434864 511.41339307682614, 889.4639935865741 539.432630979757 M887.583423888285 539.6340308229175 C873.992014346033 541.2701625543809, 859.1459132657458 539.6363900534875, 828.3460212129254 539.3993522981443 M888.0213766284085 540.7546490520781 C876.8323532049044 540.0671812029117, 862.9043616843543 539.0339648071586, 828.2139051578514 539.0608200390008 M827.2317097921577 541.8095471643675 C830.7510493167032 524.7324275912988, 828.1752869529591 511.7955227191221, 830.105326486107 490.09308865708454 M829.4682798400455 540.146261107213 C829.0168616041946 529.5967413781076, 829.7348026099521 517.5059751731509, 829.9326823512512 490.3877526047103" stroke="#000" stroke-width="1" fill="none"/></g><g><path d="M914.3010049202658 489.7797869114093 C992.1994892395126 490.96894834959295, 1069.8925389846743 492.7277301452697, 1117.686936259043 488.9488310530079 M916.6242799725403 489.908702098049 C994.1970572391423 492.2134617107793, 1073.8221895341178 492.2397145702208, 1115.235894764419 490.61879307669585 M1114.186860411565 490.8943648001046 C1117.978990467478 529.0710152785815, 1117.911148920068 573.1262731531618, 1116.6411909624499 620.7790364980568 M1116.2461307892809 489.7763414990592 C1116.8094881206007 538.3212383601533, 1115.0422915720794 587.5494450488443, 1116.9721974745987 619.9947840426777 M1114.7781728606026 619.7070293385312 C1040.4112768012772 620.4896571268737, 967.7425238036141 618.3193836698142, 915.0721784377079 618.6628308370981 M1116.372880941536 620.4438485866344 C1059.6262692461403 618.7906081453461, 1002.6193467097288 618.0005838145802, 916.1751912014022 620.4513856575105 M916.6607629461821 621.4971167196835 C917.0810367693954 579.8421869392608, 916.2035547154044 539.0508057221475, 915.7930612397109 491.24628114349434 M916.7875563883111 620.6558913780173 C914.8434979210807 584.8000082339505, 915.5827822649792 551.7524863065217, 915.6633442513424 490.77219827021776" stroke="#000" stroke-width="1" fill="none"/></g><g><path d="M911.3511038685014 484.9102707295422 C992.8999620008839 486.9516944901851, 1077.6013809268743 486.1357139608287, 1123.4199710066216 483.1992140830719 M910.8666253855972 484.26954938001177 C984.9646675159003 485.7886594375664, 1059.3925434067537 484.8041873930995, 1121.8686887920032 483.13222200128706 M1121.3028163220972 482.6269271416118 C1121.0503693378353 513.3857209625918, 1120.6491147010843 545.5941762888839, 1123.0314117677265 627.0180777064123 M1122.9218081742194 483.22549696622036 C1121.0001680682649 519.4075536248057, 1122.8252422243595 554.9666989918381, 1121.7593471113805 625.4723166069306 M1121.5309165965045 627.5778701621429 C1073.5623339226481 627.9847424206761, 1026.7125539676886 626.3420142404842, 910.9541051290852 626.917931877353 M1121.977578436404 626.3619202482344 C1069.177964141296 627.0278079702215, 1015.6684274389012 627.8922470331942, 909.7236429077761 626.3634193209194 M909.8133495282343 625.2795316317852 C908.5079713043466 588.9927920469855, 908.0740240391423 551.2082256467326, 911.382224412738 484.0382896080855 M909.5424584893415 626.1392097250098 C909.8856403174427 587.2683975594058, 909.3450462172575 547.8087397225911, 909.3946086848676 483.5079843878682" stroke="rgb(0, 0, 0)" stroke-width="1" fill="none"/></g><text fill="rgb(27, 14, 139)" text-anchor="middle" font-family="Consolas, Courier" font-size="20" x="1016" y="580">"David is cool"</text><text fill="rgb(150, 100, 28)" text-anchor="middle" font-family="Consolas, Courier" font-size="20" x="946" y="520">id43</text><text fill="rgb(27, 14, 139)" text-anchor="middle" font-family="Consolas, Courier" font-size="20" x="1086" y="520">str</text><g><path d="M914.3730802491507 491.4053774731802 C936.899844605468 488.36007451157053, 958.4165692161681 488.8938582368862, 974.6648714165111 491.58646516524175 M916.4452341910124 489.44233161667887 C933.8728989485787 489.22501692306855, 952.2870247163706 490.00659172971694, 975.302569369177 490.0324139701278 M974.3774725194792 488.1972532474402 C976.9550364751691 507.3352103960383, 976.1201712897819 521.8216574227853, 976.6880879349874 539.2545662898822 M976.1376568130423 489.92267817315616 C976.4736962920933 500.83158194299995, 975.3831408186393 512.2303220640317, 976.5515413555848 540.4494254469403 M974.7413625541582 538.2273360945909 C952.9667732664132 538.3203268685909, 930.9678798346256 539.9264230700254, 915.5954281108945 540.3570111058278 M975.5984693721571 539.7183696443954 C959.151733407479 539.3314481919899, 943.2607516590294 540.9079993674881, 915.1568944546528 540.1183472382992 M916.0941639196102 538.466621268166 C915.7683844747316 527.00968518831, 914.9407925375338 510.7674792640701, 914.9753474720769 488.74651315724617 M915.884281031679 539.5502421750823 C915.1300442380463 530.1437986052972, 916.1173900165538 519.5603261817691, 916.9498018423744 490.29391831025845" stroke="#000" stroke-width="1" fill="none"/></g><g><path d="M1056.834494808721 489.74373996381536 C1075.723220147524 490.6923725432675, 1092.932687708926 492.3032622803635, 1117.067631558647 488.1688710347569 M1055.784414115328 490.84016013054907 C1076.9188321131003 489.4335932215161, 1099.3851739689833 489.21413552216546, 1115.2656375163438 490.68647644623036 M1116.3648164540054 489.9601159673192 C1115.9002868681305 510.1570124821747, 1115.5628411348735 530.1513292424904, 1114.9483670040431 541.7282646534887 M1115.5422032933388 489.38162484518807 C1117.303140983934 509.3784752911118, 1117.1130069108715 529.6831133023635, 1115.569194648774 540.6032050340051 M1116.3223087077529 539.9778696255265 C1100.8614242678132 540.6107121377504, 1086.0265848360727 541.0500750120759, 1057.6484375292644 538.1010037792892 M1115.6901129220828 539.7979256140698 C1097.0514440775962 539.8826982006212, 1077.2689745042883 540.2948555762954, 1056.0550258109529 539.1436352988087 M1054.6566797687742 540.2817177589212 C1057.1388659295555 525.6013173693294, 1057.276638665638 512.707313430475, 1055.686813563537 488.4095701414426 M1055.9408461097198 539.3163055727715 C1056.4216869568922 522.4654975852222, 1057.074010974595 503.11277768897605, 1055.5151378797377 490.61772033441474" stroke="#000" stroke-width="1" fill="none"/></g><g><path d="M165.0681426010946 656.703010818039 C209.6906545510077 655.0204692710736, 250.17776726567155 658.4093637652412, 366.3466206183981 654.3046736707681 M165.54443416022363 654.2701546174643 C233.17290254121315 654.8967059647077, 302.0317909249923 655.483785304371, 365.4224500301024 654.3269230082211 M364.9975030410105 656.018061534118 C364.89999991822094 689.784555166152, 366.24337208956024 722.3794930209912, 366.5843375771887 785.4249148242682 M364.8664423296653 655.7948833263425 C363.5729146475545 704.5508999975913, 364.8364335309795 755.2911372919244, 364.52518479585353 784.686331071575 M364.69101427082313 785.517206349687 C294.72642356117274 783.5610614968529, 222.18406796504766 784.6264912635729, 165.29061451646783 783.574851401535 M365.1744874651448 784.9476946620795 C324.34664586896486 785.2583264705017, 283.5049999766023 784.7950341723612, 165.63445960210896 784.1066153706644 M164.5257980528875 785.7166231595207 C166.94462247428004 744.2963315308937, 167.12301243862228 701.9760447512418, 166.56438402637696 656.6269064055898 M165.7955511017933 785.4082421698176 C166.0204359870046 746.1960262170462, 165.2355924994755 705.837414984413, 164.2708422614538 655.2233820457257" stroke="#000" stroke-width="1" fill="none"/></g><g><path d="M157.50138780786918 649.3315176512538 C228.16837890522308 649.8724197858746, 297.66850514624804 650.6798421380315, 371.9608008010386 647.4353494900303 M159.58233123627357 649.878144445738 C243.76761609291177 651.3664642012222, 326.8025296793978 650.7967401922762, 370.54946995128427 648.2866405720384 M372.01011966282095 648.549092671931 C372.84627805176626 703.6373546865975, 372.546373442418 758.9371081468073, 370.5018708662561 792.1139250116082 M370.4406937130815 648.401734809475 C371.85275301627667 703.9578473717744, 372.0748684315327 760.1231462088048, 371.68226008364314 791.0462198486529 M370.0204279892821 792.3584576634888 C326.39248595156494 790.6006959952783, 282.9751604435101 791.1764124034272, 157.26475139146066 791.3058754692488 M371.4538323168734 790.6347442139534 C306.13397379475293 791.8379879346395, 241.50188442179865 792.3116389794866, 158.4953457341933 791.4434935372374 M160.54724637866798 789.3113114373066 C158.74904155261862 743.4451473093073, 160.08879937336167 698.3529007609288, 160.70674776195114 648.0279411751237 M159.580495607781 790.1671879021078 C158.25080387327674 755.6042328993594, 157.8469767450251 721.3191728037885, 158.18644752746425 649.4765199977329" stroke="rgb(0, 0, 0)" stroke-width="1" fill="none"/></g><text fill="rgb(27, 14, 139)" text-anchor="middle" font-family="Consolas, Courier" font-size="20" x="265" y="745">"None"</text><text fill="rgb(150, 100, 28)" text-anchor="middle" font-family="Consolas, Courier" font-size="20" x="195" y="685">id13</text><text fill="rgb(27, 14, 139)" text-anchor="middle" font-family="Consolas, Courier" font-size="20" x="335" y="685">None</text><g><path d="M164.12699019549282 655.976989199528 C177.45452967342342 656.8335890614727, 190.45182190279445 655.5692010477155, 225.47843715034034 656.9465717845676 M164.4379049788388 654.6155155342767 C182.9481726850748 654.9522713261067, 202.48673620756628 656.051231262948, 224.16251355334037 654.7170487858467 M226.37936774224775 654.2790749624324 C224.71185021135958 666.515369875115, 224.93296284817725 677.7870884500386, 224.3510163151034 706.1216903584108 M224.1526033660792 654.7587981878725 C225.94511632099167 664.4688249770726, 226.05620115033088 676.3880629125025, 225.31787861477054 705.8034612408359 M223.11104856802677 703.9179259324051 C204.00790373060875 704.8534669155457, 186.26004819605066 704.7151922938403, 163.4629121321519 705.9890352261308 M224.16111057498523 704.7875984288307 C211.98805293275754 704.8047956459095, 199.54389704363095 705.6744275395259, 165.24908859717084 705.051821929609 M165.74512302619112 704.1665189993005 C165.93768651600055 689.5576786839758, 165.44667591643326 675.4059922542572, 165.97278990496417 653.7311600835513 M164.61715100558715 705.2496268030976 C165.7139979212477 692.7393702653396, 164.52271731341736 678.6927715219647, 164.1152561784534 655.8102686259424" stroke="#000" stroke-width="1" fill="none"/></g><g><path d="M304.5928508312291 653.7604144188898 C321.3238889160579 653.5074978352387, 337.4232396312097 656.076507904381, 364.33326554521864 654.6896528654433 M305.4418835203443 654.482233277922 C323.5794280723822 655.1511982316234, 344.09266613593627 655.8260751646366, 365.54975170380965 654.0208092084874 M364.84844460506383 655.9348144285764 C364.4511956048814 668.9369571494623, 363.88477178066154 677.8246909326039, 363.1603119102894 706.4656052506859 M365.05731304036783 654.949610286061 C365.0610670704385 675.0552266308011, 363.93356938503166 694.9853348692964, 364.7232791848282 705.3018251202493 M366.58460258286834 703.7530221573223 C352.4994486981732 706.3413110244871, 340.1821400209816 702.8683494018485, 306.91709665586933 706.2851381978381 M364.69435834639245 704.8595891993574 C343.83696985843 705.7824133392274, 323.89295232281887 704.0626889673465, 304.0854415571863 704.2531905927701 M304.6927836506268 704.623766175412 C303.8029555320942 692.1319717671258, 304.6398020285494 677.0333623200762, 306.7754211629542 653.2314002171315 M305.7834226193754 705.180052676387 C304.89144046518356 685.9403439478465, 305.64122834785746 668.8572760479975, 305.12083498827644 655.4606585419143" stroke="#000" stroke-width="1" fill="none"/></g><g><path d="M393.32546974585415 656.1726244172825 C489.47685074930143 655.638585073642, 585.9815197848251 655.4954907473103, 673.1215840420186 653.9501628532627 M392.0559802866746 655.3775215854097 C496.352877410372 655.1766973841653, 600.639431713728 655.7363234583352, 673.3341461109949 655.4385200768072 M674.9685429493295 654.0217362665428 C676.408071143663 688.3317983155429, 674.7302926310114 725.8152715799628, 672.8758215753429 786.5281035480195 M674.2797060668156 655.9429517197211 C674.2353128935043 696.486502248876, 674.8013879874935 736.7237325549926, 674.3007120622856 785.4692806534742 M673.4958449003781 784.0153775007035 C605.4253229893653 784.7414004077212, 534.9004041746834 784.6107119063189, 393.1695214125017 784.1854898657776 M674.0829251663215 785.6750905620421 C582.6623334040981 785.4474999925098, 491.90998013808166 784.3418905807818, 392.6913109282513 785.2851892786236 M391.6922858310263 784.2238832870818 C392.41307439496194 749.3287400878938, 391.9908577329033 716.6198354976592, 390.77872039949335 654.7927097842196 M392.82241017152626 785.4163497308978 C391.8606112746752 759.7319683124333, 392.0334814286783 732.1674975676365, 392.21121480580706 654.1365308128907" stroke="#000" stroke-width="1" fill="none"/></g><g><path d="M416.8588227329405 719.194055700718 C435.32244336120715 721.5000091925167, 453.6469059825877 721.382635583009, 475.5286921317464 718.4413234813086 M417.35922913168116 719.9561009773715 C436.8108201201735 720.2873760032295, 454.0382298828864 719.6123753039892, 475.20919681315434 720.0859178602246 M475.04268938895865 719.6854946713516 C476.0530074299364 735.4995190144268, 475.727468040516 748.8194755764555, 473.1824246706735 768.8591146143278 M474.67479381525453 720.0483845816517 C475.0575569355421 737.9153677462728, 475.39953353351825 756.0735065773428, 474.26086043001084 770.8572375295504 M475.4245910142529 768.12165106028 C451.1717912802982 768.2507644449408, 429.10305113287353 769.3681817995214, 415.7714348252986 771.7969921293248 M475.21453912773484 769.0904136329175 C458.28517668456624 769.6446740475438, 441.8153644374739 770.2101398226521, 416.6005877433432 770.9581510689638 M416.13750536469286 771.6463290885722 C416.6970667288816 753.9886130989723, 418.4094137895662 737.4626075605825, 418.39135532762276 719.7392145181735 M416.78657484966743 770.2369036550429 C416.47407088745734 751.9800206855858, 416.54570672981737 735.074210800935, 417.647935356368 720.2784254884986" stroke="rgb(0, 0, 0)" stroke-width="1" fill="none"/></g><text fill="rgb(150, 100, 28)" text-anchor="middle" font-family="Consolas, Courier" font-size="20" x="446" y="750">id19</text><g><path d="M475.2862662041964 720.1214676655827 C490.0563698414018 719.4385195124983, 509.84386574673215 721.4405062670664, 532.4433194605763 718.3137261890977 M475.457891556542 719.4043831316889 C498.2234262412071 720.8816910708374, 519.350845956281 720.1025390065074, 533.0920190522133 720.5792279634504 M534.9425869133642 721.6080780424389 C531.5471131989353 736.3247465247207, 534.8514455952055 751.7416218744579, 534.1703894821244 768.2758118742329 M532.4338623551304 719.4749599248707 C533.5326681236222 738.8181068923037, 534.0999178285216 757.3102693671709, 532.8316799714245 769.8302672201291 M531.8457032979292 769.7104808362333 C512.0673689060081 770.4503639809408, 492.35620493035464 767.6580043281672, 475.9267449603981 771.0736090971403 M532.6411172682328 769.1813674373187 C515.319896392236 769.5903244587938, 495.6992501938767 770.6236093834202, 474.7387816266913 769.7214526794742 M476.32846722880845 769.2210682443697 C474.81812610854547 754.1507490500824, 476.935726029268 739.1627241365182, 475.16361763046916 719.0837348114636 M474.2155898013368 769.2138123337674 C474.9721776502517 755.6430883070755, 474.3405628159454 738.5791010553414, 475.2077915325479 720.5259554997203" stroke="rgb(0, 0, 0)" stroke-width="1" fill="none"/></g><text fill="rgb(150, 100, 28)" text-anchor="middle" font-family="Consolas, Courier" font-size="20" x="504" y="750">id43</text><g><path d="M532.2459681793566 720.0112969576429 C546.9968132971861 719.2076225679709, 560.0659719866214 720.2992912601993, 590.2682038453449 720.923588973476 M533.2525712881633 719.8971107076951 C548.7857907247485 720.5869204543028, 564.6131408773894 720.4520791883773, 590.9767953111648 719.9169447155535 M590.8803796235115 719.1791563906207 C591.6724789737095 737.6010828457711, 591.0026907752894 757.5750350431515, 589.1299510358224 771.5260657825529 M590.080803823344 720.1690160415046 C591.9387361249047 730.9500229442474, 591.2488038403469 740.6270514720836, 591.7537278727268 770.4782467028712 M590.372903681392 770.8644886584102 C571.9344621736884 771.0083126911801, 549.3719335375355 769.5118386243138, 533.4243999682592 768.3425725496681 M591.8279205892455 770.5945727805433 C568.6192987876555 771.1624023430837, 544.938875652509 769.7904101492112, 532.4148367978722 769.8290213170862 M533.5776817352514 768.7147636394221 C532.6396700721317 754.7517756882871, 531.718805815883 734.8573209203281, 533.7387822586877 718.1913573743135 M532.8030713848389 770.3647316277778 C533.843315274605 754.8404364692743, 532.76298968056 740.1737176485652, 533.7659316673873 719.7783471344893" stroke="rgb(0, 0, 0)" stroke-width="1" fill="none"/></g><text fill="rgb(150, 100, 28)" text-anchor="middle" font-family="Consolas, Courier" font-size="20" x="562" y="750">id28</text><g><path d="M590.4089002164056 721.5375057466323 C604.8986984856275 719.3944070168857, 624.0395979152813 720.8528381692835, 647.665221512607 720.1899101731526 M591.3238049235998 720.6702563297832 C603.2412691612425 719.569750037321, 615.655077669635 720.3800048607329, 649.780311519794 719.7341736406719 M648.8628837807452 720.463034421376 C647.8786788750689 736.6952926065758, 649.9552950018017 749.1346731169077, 649.863721089982 769.4574678114707 M649.0349976311214 720.5895400922175 C648.9071407204204 734.6172899955308, 648.4565528158528 750.0049767784534, 649.3705862142953 769.3894561282136 M647.8582915882619 769.0743146692573 C637.6770743150512 770.8288894577278, 620.8791736530717 771.6922900359119, 592.3093457958701 768.5427274820652 M648.2689739556059 769.0935739531236 C633.5369724763847 769.4779470035928, 617.8262720038541 769.5543451254613, 590.4117954053429 770.504285541926 M592.2497022793008 770.4128887802664 C591.1203429179167 750.6869399916075, 591.0644160697018 729.1440629642399, 592.2831942558352 720.7212197043633 M590.5642122405959 770.8125283870256 C590.2038942743411 751.0620521395676, 590.6350284414602 731.7637076566057, 591.9699437130793 719.2075893659604" stroke="rgb(0, 0, 0)" stroke-width="1" fill="none"/></g><text fill="rgb(150, 100, 28)" text-anchor="middle" font-family="Consolas, Courier" font-size="20" x="620" y="750">id49</text><text fill="rgb(150, 100, 28)" text-anchor="middle" font-family="Consolas, Courier" font-size="20" x="422" y="685">id82</text><text fill="rgb(27, 14, 139)" text-anchor="middle" font-family="Consolas, Courier" font-size="20" x="644" y="685">list</text><g><path d="M393.8643767627514 656.1186631230986 C407.07672947983735 656.3419927808482, 423.7483935948552 655.4128194744723, 451.67929189605456 656.2143454577053 M392.27286698156473 655.9320285644518 C407.25287592886724 654.4604990780965, 422.2500957414237 654.586009838382, 452.0470783849396 654.0881552179989 M451.71398204604236 653.5901917695228 C450.20111781168555 671.8580592039242, 449.8291527024102 689.7165236504807, 452.55488664331847 705.2778774471409 M452.65703351367324 655.3521560322002 C452.2693246670685 668.3516647793116, 451.19548531879224 681.1095802013268, 452.8781086218135 704.801517941257 M451.31025979780946 703.5857693740477 C430.17839485355347 707.1641455632471, 407.7190060079095 706.7752790388058, 391.19241448408263 704.4739607590574 M451.2275886574132 704.0002766109109 C428.37211185582737 704.7892621365365, 406.2844077403976 704.6014977027309, 392.5876367548534 704.7321717524192 M390.2538161252894 704.9039863514333 C390.3628693762415 690.0082088984808, 390.27784126603314 675.5280083748256, 390.1131909967559 654.8726362211064 M392.8312013418118 705.1987668144483 C391.9215317060974 686.8796833993819, 390.8219264338282 670.0289936955587, 391.7563754871325 655.215532544891" stroke="#000" stroke-width="1" fill="none"/></g><g><path d="M612.8557078861331 654.8085960563676 C627.6964630331252 656.4963325256634, 639.5460624010248 656.5064210207229, 674.0985667195488 653.2654926490301 M613.9607924539348 655.2866374136069 C633.6688691289282 653.8267092908029, 653.1446518084826 654.2941443252454, 673.092073186178 655.8420838422294 M675.7538379305022 656.3222713806882 C674.0623522666604 666.734745854876, 674.7628254395188 676.1102751523141, 675.9091840532606 705.326959170907 M673.7045062788171 655.8654297175491 C673.5765120680034 668.3523051912264, 672.9906354511228 681.1642624717688, 674.5140487662859 705.0620657019576 M675.7976695792756 703.1089387520502 C661.8140613084754 705.7325325742173, 647.5792986970183 707.4433169322172, 613.5029311162823 703.0771062831661 M674.5953369519107 704.3742485341228 C650.3261988543422 705.8504662801637, 626.3736536939078 705.9775939908212, 613.9135818368648 704.6290468182625 M615.4256299384865 706.7735821586909 C612.6003975455822 694.0914550290029, 613.1881306211965 678.7626917292182, 615.9641263802747 654.3738116810226 M614.4721228743231 704.8698864400363 C613.8185623822644 687.8746042766655, 614.0449279404286 671.5582914606449, 613.3910401173952 654.9795395807536" stroke="#000" stroke-width="1" fill="none"/></g><g><path d="M688.844954542755 655.512202526637 C757.7577323482095 657.923113958589, 823.1463822725242 656.4755353568227, 888.3408634187358 653.5990678623779 M688.8593213125562 655.6287204836619 C756.0371579367819 654.5502442109135, 822.4636438452691 653.7473000125096, 888.1889984571723 655.3478574112895 M890.3892472464439 655.2336111458596 C889.0205339739346 701.9359610888672, 886.5741724931881 745.1367906714809, 887.6298661909404 785.1325042912213 M888.5334445477303 655.5668373906756 C888.574848189448 698.170651930038, 887.4567808295222 741.2340327279636, 888.8432641605118 785.644822289368 M889.2485228731757 783.8914581097304 C811.6957502557126 782.5640209044585, 734.7379067456932 784.7461684959818, 690.7677336109832 783.7203237617996 M889.0941160992992 785.8119254200666 C832.743896678319 784.9109626764417, 776.3715098209389 784.9365504997296, 689.1655625917869 784.4918901858017 M689.7946633987527 785.1299835334557 C691.0628797098361 735.9693104181549, 691.130707562448 687.4377878737002, 689.8176318581895 655.6008091515822 M689.8377978008381 784.769150219255 C690.7355721222164 740.0294862823862, 690.8624852431298 695.4861234244747, 688.4689135792197 655.8873448612775" stroke="#000" stroke-width="1" fill="none"/></g><g><path d="M683.00415396663 647.9271470644904 C750.6581194603508 649.6826020161919, 819.5168274973363 651.8665378549154, 895.7426517142526 650.4043835132852 M683.3760976051013 649.6977104618189 C737.3237678598692 648.153767739565, 792.2902711079441 648.3292925521639, 894.4990721738471 648.2661457832677 M894.4087601747166 649.7501722415348 C897.1636620614879 690.6687392954382, 895.5120672021824 735.3537837903189, 893.4727855901082 789.2192794360022 M894.3145835298561 648.7199995691377 C895.905991823589 695.83481735091, 896.5894803157814 742.0044997494263, 895.2259449811884 791.3825864107204 M895.5770486381684 789.375504726121 C835.3643580199896 790.5175738077925, 777.1713200017942 789.598078293948, 683.3683031343975 790.9627528679936 M895.1804383334339 791.0063598026913 C840.993283217898 790.6782021920857, 785.9241517827685 790.7989931905093, 683.6462020897268 790.7516093837316 M682.9193272543037 789.8917337684779 C683.2424321894214 737.0446786916524, 682.1301288214444 686.2702713707977, 682.7793096863472 649.3927664974401 M683.1847739275867 790.3422154531863 C682.1340530863683 755.4976433881517, 682.7619692953086 719.7852513247083, 682.7627461485914 649.7859229322572" stroke="rgb(0, 0, 0)" stroke-width="1" fill="none"/></g><g><path d="M713.2219111929971 718.551548825335 C735.2252011626156 717.6925725377149, 757.0718868559818 721.4119109056277, 773.0838128268318 718.0926676755873 M714.8252938602254 720.2062103356053 C733.2908240433968 719.7594738800528, 751.2570974329392 719.3431614124806, 771.9033311273267 720.8274659740563 M773.1574361492183 718.9474253913276 C772.9152058620816 737.1906655948187, 773.8231608417065 751.8187294531215, 770.0907834678948 770.2477549658076 M772.4339798015372 719.7450054250764 C770.9280811597628 735.3114377898468, 772.5036624933941 752.6335405939699, 772.1679812724507 770.6312748201432 M771.1930327536531 768.46771053236 C751.1521715728175 769.1767209057462, 735.9358067087368 771.0502756720634, 713.6466871886975 768.4855702564604 M772.5786712518913 769.3289017037325 C759.2908306475285 770.3685897632911, 745.5499445985361 770.6047193120094, 713.4186035498592 770.3237601503047 M715.6259898822301 768.5401990915459 C714.9173293854285 751.2978756727795, 715.3166351812469 734.3555463994102, 713.2756550321742 718.9673526073366 M713.0482501774339 770.313665822052 C714.9704967964208 758.358616611634, 714.0884244535386 747.1124362268091, 714.1217062350469 719.4002346284303" stroke="rgb(0, 0, 0)" stroke-width="1" fill="none"/></g><text fill="rgb(150, 100, 28)" text-anchor="middle" font-family="Consolas, Courier" font-size="20" x="743" y="750">id82</text><g><path d="M772.8874896923005 718.8312433756138 C791.7095128078522 718.9516947815813, 811.7072217575617 721.2983414650809, 828.3291293432823 721.3933307869114 M771.0820078979457 720.6611531695927 C792.0562051151065 720.2858737201221, 810.3047594252474 719.2656031166593, 829.6926031721811 719.9111534144052 M829.1118331120156 719.9212059817063 C829.2647194571933 729.3712500685822, 829.9561638590098 742.0873106239015, 830.9607882830552 770.9026788841103 M829.0934504549666 720.885384733371 C830.8602257979531 738.4618436928841, 830.8542231599758 757.9043767763094, 830.3615674381111 770.6820230087804 M828.1980981640157 768.9953676026398 C813.2874235504987 770.5559005504614, 794.7490257122201 768.6472442947115, 772.5211833089788 771.5863795323297 M829.5527045466647 770.2950861095904 C807.9565446983449 769.8942925286408, 787.5441761025949 769.2170169655154, 771.4923727088959 770.2536644606596 M773.4155699344357 770.51734433912 C773.21355469201 754.5192405843934, 773.910159458237 738.8475092043309, 771.8226323468372 720.0833241850871 M771.2796372465725 770.4930947415905 C772.1915842944469 752.135912094697, 772.5518744982785 735.4086892545187, 772.2655763252691 719.44869887144" stroke="rgb(0, 0, 0)" stroke-width="1" fill="none"/></g><text fill="rgb(150, 100, 28)" text-anchor="middle" font-family="Consolas, Courier" font-size="20" x="801" y="750">id76</text><text fill="rgb(150, 100, 28)" text-anchor="middle" font-family="Consolas, Courier" font-size="20" x="719" y="685">id11</text><text fill="rgb(27, 14, 139)" text-anchor="middle" font-family="Consolas, Courier" font-size="20" x="854" y="685">tuple</text><g><path d="M687.1567575576803 656.1112029623413 C706.3570461312694 656.0431360918601, 723.7501407488669 655.920565867647, 747.1544938953512 656.4068868155964 M688.4561008738505 655.9948168599853 C711.4130105646723 653.9933117353887, 733.8347299143226 654.9914971445055, 748.8442775711567 655.2878866808733 M747.6247638659946 654.5920392394054 C750.4779675255993 666.4065180695922, 751.2001086473105 681.5910780158373, 748.5301838464044 706.9286350692413 M749.4016694461441 655.4777319806892 C748.3504274324833 665.472441800836, 749.7930411757127 675.5912588825685, 748.0246817938709 704.1040022420162 M747.5834914045622 705.5961935868223 C736.693176650179 704.8803725136465, 721.5674200976788 705.6128092707618, 688.3850268789305 706.3041116065875 M749.1225228887889 705.2917160556957 C727.1689146383665 706.1249950676206, 703.4550699188682 706.2068236057681, 689.2844782267713 705.4565748708377 M688.8703401140654 705.5756711811638 C687.7487625480392 687.1444745036986, 687.621983766198 670.5589755959097, 690.4387276368096 656.9677449627949 M688.3329020577718 705.4105950013087 C688.5774994391217 691.3558053237384, 689.4442892291593 678.2913123242067, 689.203976723817 655.4021549436004" stroke="#000" stroke-width="1" fill="none"/></g><g><path d="M820.3399381807639 656.5580124259122 C836.8087692727585 655.063080791036, 857.158286152664 654.9851868234181, 887.4696954412716 653.2683327541682 M818.9406645660596 655.0562464641569 C835.546327215426 656.2139028493903, 851.191152621204 656.0642245940227, 889.6410902868504 655.8876473800063 M888.8896375094582 656.8951769174383 C889.1421267777337 666.4458441757215, 889.0141081952117 680.0017943893622, 889.4748006127941 705.0732359504059 M888.3628008020986 654.047217374561 C889.1771981878388 673.5573179350401, 889.7068061843256 689.3664352445942, 889.5354770158841 704.2682471089352 M887.9297513213968 704.5456827016461 C863.0878180414509 703.6927712995337, 832.4570204106992 703.4698405905239, 820.1609696171457 706.2725368136058 M888.2003437248172 705.1770822948391 C865.7682169851331 704.6797731081494, 841.7894801401196 705.2716839733721, 818.9647855924893 704.0219239778386 M817.7965585126381 704.5515131110981 C818.485147128007 692.0884432944164, 819.4584940624617 680.1002330369362, 819.3616856356069 656.7460682770181 M818.871926390042 704.8850376115275 C819.592394737785 690.106816809887, 819.2827284953289 674.3096850235539, 819.6068638445835 655.2597758837651" stroke="#000" stroke-width="1" fill="none"/></g><g><path d="M904.3247105940715 654.8287617985089 C963.3004051598796 653.4029209466001, 1021.1586524067677 653.0916657783933, 1153.4666284983716 656.4817628894514 M903.8912281348105 654.3329818715927 C959.6837470562376 656.9287605067184, 1016.6223738927364 656.3428124359829, 1152.6965685486994 654.9609820176248 M1152.5601340323099 655.8836831361549 C1153.550214532608 704.9493295817387, 1152.7509745778127 755.3541967749101, 1153.611191086405 786.1140984721724 M1153.3762600463135 655.589636043163 C1152.3553950602586 690.1910367856021, 1151.294173355893 724.4184030356777, 1153.725488256309 784.6542783333635 M1152.0884820685794 783.7376217268686 C1080.9238348472652 785.1254681713305, 1006.230678051811 784.4098954615059, 904.8071358706851 784.6051246824687 M1152.4236920889148 784.3058701005242 C1086.0365814908216 785.7057986708544, 1017.4731954554613 786.309588331793, 903.3973046617261 784.78585067159 M902.8343588186725 784.3724781972765 C902.4740120251358 752.3469721706614, 904.760732756163 714.936850575887, 905.4905502680605 654.9362076022474 M903.9048562072634 784.6372862896708 C905.3406862777437 740.0741301584877, 903.908306532571 697.263964998304, 904.0301359083629 654.9672063141062" stroke="#000" stroke-width="1" fill="none"/></g><g><path d="M928.2962519013198 718.3924649264234 C941.820576487023 717.6720441717295, 952.5810514685911 720.9091020520768, 987.2177965639124 719.4265957009947 M928.5592111022371 719.681598401068 C947.8092398590823 719.1272555830084, 966.0086011568178 719.1214348149349, 987.3766658977718 719.5561710926324 M987.7303322884957 721.006339311497 C988.4651649563282 735.4465535682759, 986.6443873845469 746.1495902933588, 986.8446560447803 768.3902480057146 M986.7961826684112 719.5664070606229 C985.8921952951947 736.1376338290992, 986.5190992185684 750.952950787261, 986.2712700108714 770.2511203832272 M988.3040313310447 768.5660516631324 C971.2995024313981 769.8541138871668, 953.366313719123 768.3546633951003, 930.2523688927276 769.8001669288107 M986.3033851369647 769.8846559382428 C963.1707461673237 770.4704793048352, 941.4205787273665 769.8527501817898, 929.2632299045762 769.1920778597158 M930.8682800485071 771.806112752894 C927.5695714931016 756.3666977119839, 929.1692122371448 740.8798149781855, 927.807340260643 719.5476036770905 M928.6223494070988 770.1316815830364 C929.1831620454758 754.1042713568718, 929.4288350784582 737.7058683003297, 929.1916191343819 720.9167730423115" stroke="rgb(0, 0, 0)" stroke-width="1" fill="none"/></g><text fill="rgb(150, 100, 28)" text-anchor="middle" font-family="Consolas, Courier" font-size="20" x="958" y="750">id36</text><g><path d="M1000.4070577635849 720.2799209558301 C1015.1557127915444 718.3435616161214, 1029.0656233143604 718.6795888421831, 1059.0918901233956 720.3840171001183 M999.241343834788 719.167275469846 C1013.8671146429238 720.7239398838973, 1028.8111366099183 719.6443227252955, 1057.983687057271 720.4430456767304 M1058.935848486139 721.3456615691155 C1056.9965429449737 738.0589387361675, 1056.9221787128877 760.3544064184451, 1058.8956806399397 770.1227272401647 M1058.2541678907041 720.6574511649387 C1057.6272396183028 734.7332877724265, 1058.3023671879027 750.3610437064544, 1057.5898475965712 769.8610774379721 M1055.6836904395032 770.3188580916419 C1038.3131594977845 769.5110911671279, 1016.0573918313987 770.5864474308456, 1000.1134226129415 771.8278970524633 M1057.194246879421 770.6094535129151 C1040.1253363166245 771.278639401351, 1021.8829050666593 770.2622881878666, 1000.0757363558058 770.095205708187 M998.2857808718765 771.4578642018173 C998.1455090196363 748.6327095745456, 999.6578706939972 729.8678746967505, 1000.7214022649044 718.1418121309238 M999.0283058696908 770.9370400962426 C998.435539478085 751.7010561258036, 998.590495121857 732.1758663726534, 1000.3410559685522 719.3605378545803" stroke="rgb(0, 0, 0)" stroke-width="1" fill="none"/></g><text fill="rgb(150, 100, 28)" text-anchor="middle" font-family="Consolas, Courier" font-size="20" x="1028.5" y="750">id49</text><text fill="rgb(0, 0, 0)" text-anchor="middle" font-family="Consolas, Courier" font-size="20" x="993.25" y="750">,</text><g><path d="M1068.6609844978218 719.8110146954596 C1087.8362279748296 720.9327948073255, 1106.5468983560013 721.8402732915775, 1126.1935328974837 719.0544508256535 M1070.5990418678648 720.679441672322 C1083.6533137487925 719.9899618203682, 1098.6865946326602 718.6857448931032, 1128.4767035009763 720.3087608871938 M1126.0432636959874 719.5734596799456 C1127.8828484838393 738.6322045315613, 1129.5841516106746 752.5206925329267, 1128.5882436060776 770.7745267007646 M1128.8494866828255 719.7430826377218 C1127.9350490425913 734.6903420348917, 1127.1484267899898 747.9494206069305, 1127.3389948320032 769.4863928382225 M1129.4815786039612 770.7777637514472 C1113.441564704148 770.2728665456275, 1096.7509980629675 770.4859458102942, 1071.42560646533 769.8468695736134 M1128.4900085480388 770.5179054980999 C1111.8454137590618 770.5891465656009, 1098.067793100854 770.7388261957769, 1069.2448692640398 770.5413058317923 M1069.5847299811621 771.883992809125 C1071.2698822992656 760.830419283532, 1071.5252627215557 750.1742690158741, 1069.9454603428023 719.9811857737466 M1069.579369506473 770.5740063705035 C1070.9514353506368 758.0066405653995, 1071.2800653797526 744.5330279052312, 1069.0586034740174 719.0835586148856" stroke="rgb(0, 0, 0)" stroke-width="1" fill="none"/></g><text fill="rgb(150, 100, 28)" text-anchor="middle" font-family="Consolas, Courier" font-size="20" x="1099" y="750">id64</text><text fill="rgb(0, 0, 0)" text-anchor="middle" font-family="Consolas, Courier" font-size="20" x="1063.75" y="750">,</text><text fill="rgb(150, 100, 28)" text-anchor="middle" font-family="Consolas, Courier" font-size="20" x="934" y="685">id90</text><text fill="rgb(27, 14, 139)" text-anchor="middle" font-family="Consolas, Courier" font-size="20" x="1123" y="685">set</text><g><path d="M904.1026778421489 655.4361476913658 C927.9235632106071 656.7086129377021, 951.9267829463835 656.4736227557254, 965.0610473927319 656.241241835593 M903.8612981603097 655.8387921125847 C923.7603844032071 655.6132095239001, 942.9294882472071 655.0372983727932, 963.5859597955282 654.0324723377821 M965.4219709365434 656.9590774038069 C966.2942491548306 672.9829434163531, 965.8401490273552 689.6790526087588, 963.6090484667839 703.0739549733039 M963.0263402752591 655.7772765968728 C964.9092504158962 670.5021389884314, 964.5421085571552 685.4209637476963, 963.7278834230393 704.9850856254749 M965.5241021585896 704.4230731901472 C947.0779275631638 703.0919862682082, 932.2589120364886 703.9115037067145, 902.856544468675 705.0751869975076 M963.0626697743148 705.0256575218569 C941.5274407074995 706.3261833645787, 920.8014656418923 705.0763799945936, 903.1033143596417 704.6492994122425 M903.6234109399109 706.0439754454634 C903.6770658556206 689.4787577546127, 903.0849705075035 669.2717579889803, 905.6067347456367 654.9175709748057 M903.8563010584829 704.7270246418535 C905.0432566785026 694.5778662125323, 903.6330860299394 683.2278877306438, 904.6657668713194 655.7518924104179" stroke="#000" stroke-width="1" fill="none"/></g><g><path d="M1091.350187389126 654.6714911525663 C1109.2703333176366 655.3796365786664, 1126.328712602881 654.4055396776283, 1153.041021439706 656.3072567151947 M1092.8154791040497 654.8880490172842 C1106.9241248599742 655.2269842421523, 1122.5884093382028 654.2489745163014, 1152.9397946994447 654.36635672715 M1153.726275649343 655.6709550095875 C1150.9782030904896 666.0957235893161, 1154.5888623387577 676.3554743278754, 1151.981653424157 706.8981844848355 M1152.7497707921066 654.3396942315394 C1152.8720589431737 664.9173364349126, 1153.0113213969335 676.4184148913392, 1153.9396577148489 705.5459001805007 M1153.7367388576022 705.7652212393892 C1136.5587867528868 703.5630977361219, 1115.400625024459 706.7642774845443, 1093.3808571670938 704.5818805840094 M1153.7893456239988 705.0426599200671 C1130.3124075319702 706.0824678640093, 1108.73041019287 705.0259209799905, 1092.1712663902838 704.5554192134827 M1093.1862393920885 706.1257636231536 C1091.8955641946552 684.9854743565776, 1092.3382266017272 665.8966754818267, 1094.5056260886306 656.9223257510765 M1092.5990998596747 705.0563488102889 C1093.8477050981871 684.4351625533955, 1093.2638194772592 666.1812895623993, 1093.2826704681283 655.0103082071555" stroke="#000" stroke-width="1" fill="none"/></g><text fill="rgb(0, 0, 0)" text-anchor="middle" font-family="Consolas, Courier" font-size="20" x="916.5" y="750">{</text><text fill="rgb(0, 0, 0)" text-anchor="middle" font-family="Consolas, Courier" font-size="20" x="1140.5" y="750">}</text></svg>