<svg width="1300" height="1450" xmlns="http://www.w3.org/2000/svg"><g><path d="M31.303686394240092 11.719009296116605 C72.2421286848875 10.178336755888271, 109.98025892509006 7.824934558619242, 227.77936040681735 8.829957572482167 M30.046561355174898 10.733841093816931 C77.03073104592414 10.185147030851514, 121.43359832733552 9.75273859795564, 228.17030090924368 10.744125753205768 M229.53050968819952 10.517368685990927 C231.00074457778456 103.25305298845765, 230.7237058997835 198.62202647483878, 228.0836054239499 460.6290781225429 M228.75756000969935 10.02278086929931 C230.8354826510097 163.91382458830506, 230.58276070828722 317.79844532251343, 228.8061014882781 459.587121842071 M227.94676581823808 458.6978994332896 C179.53281098634295 462.26627366186216, 131.15332197042565 462.1035991318924, 31.686772760613543 459.1099703300522 M229.93353923460398 460.2774364856519 C180.02542671839498 460.08486900469967, 131.25339351461693 460.27711526758276, 30.309060924435464 459.1052662027619 M30.72728848325729 460.4178184564605 C30.831595680937337 285.6356087435122, 31.74174143777867 112.21849646879797, 30.383469973354813 10.727632616558743 M31.42230368613667 460.0106688460084 C32.80164641929223 360.56800729814563, 32.64105717750057 260.9206939827694, 30.59588869984276 10.124944000911281" stroke="rgb(0, 0, 0)" stroke-width="1" fill="none"/></g><g><path d="M153.81477862342734 85.83801008844303 C173.26137105129587 86.61587219206126, 193.62442469471006 85.89652704455376, 210.83691531977456 83.5747698413738 M153.29669666923408 85.74601471434545 C173.02295184593444 84.38911368623526, 193.3581352385886 84.88684705765775, 211.10554861460267 85.59947697758157 M211.3461353942251 85.22216017121897 C211.85826450694472 102.28760978600607, 212.9073557976009 121.64393166084169, 210.05405335319864 134.52552874576065 M212.38713571876005 85.30414580595254 C212.8738271423459 95.91523869004116, 211.64531214525783 105.84962254245782, 211.0582449585283 134.8681784368358 M212.47462798727665 136.83585495302663 C193.70205704229525 135.82623665171937, 173.02553760664762 135.3805805752996, 154.36786141089553 135.5242059891964 M212.68350949597874 134.82494876217157 C199.87211432094063 134.5719199749725, 185.46441780994985 134.24943795746725, 153.6648290534133 134.17783652845026 M154.8778879611299 134.32936620537595 C152.01234186180346 125.12313565786998, 153.9973431039225 113.95223993872693, 154.04773083401625 84.46434979363968 M153.24387649921775 134.27981656121793 C153.472679194945 117.09363323662724, 153.13163308573615 99.76825329356569, 153.92298634991997 84.84136965006178" stroke="rgb(0, 0, 0)" stroke-width="1" fill="none"/></g><text x="56" y="115" fill="rgb(0, 0, 0)" text-anchor="begin" font-family="Consolas, Courier" font-size="20px">lst1</text><text x="183" y="115" fill="rgb(150, 100, 28)" text-anchor="middle" font-family="Consolas, Courier" font-size="20px">id82</text><g><path d="M152.5174372851933 161.50636628113352 C176.85501356992538 159.29385444616645, 200.37732011803664 161.24673491469392, 210.09248559031911 160.16536112498068 M153.48771580467846 159.51915182663458 C169.40102815086283 159.51189960360023, 183.79278993226154 159.66842766331533, 211.96068547951393 159.95186986172814 M213.93908976568923 158.14748387683014 C211.77442553415042 172.939153936087, 212.50678712011361 181.5665402268129, 211.65225690031286 208.63025257463818 M212.2521729270767 159.3475514270083 C212.10307840217448 175.88236958922107, 211.78360705120647 189.87730467501981, 212.12432503067697 209.72616219389266 M212.4204733192156 210.85431564267282 C194.43456091619518 212.38515354164988, 180.34404110886203 209.18414024921637, 154.50101345735706 209.08503952366712 M211.8639374830166 209.62108085389588 C198.3588659277287 210.1263333478774, 186.15958889059934 210.60651676141615, 153.03158517275028 209.04780062969553 M152.11030593911573 210.7613203765887 C155.95221444853541 197.22411232339613, 155.69498358422067 189.3775686045067, 153.6018539813635 161.6146460931123 M153.36064471618704 209.87226916160154 C152.61019200048634 200.01185825428394, 153.37012153609473 188.76269403236074, 153.45395957716306 159.0840780988436" stroke="rgb(0, 0, 0)" stroke-width="1" fill="none"/></g><text x="56" y="190" fill="rgb(0, 0, 0)" text-anchor="begin" font-family="Consolas, Courier" font-size="20px">lst2</text><text x="183" y="190" fill="rgb(150, 100, 28)" text-anchor="middle" font-family="Consolas, Courier" font-size="20px">id84</text><g><path d="M155.03204928826665 234.3624259604931 C170.58710642735443 236.49891173776234, 190.25404244948587 233.9401021339067, 213.2992398385162 233.40253477234216 M153.3798429999798 235.32081201774275 C170.43742044540585 235.70775360286024, 188.51480312464096 235.7216267780545, 211.59298348580057 234.65542361623494 M212.54150167040515 236.80479309765352 C212.8961916850705 248.53550115787235, 210.543286194534 264.77336388801245, 210.55267747244528 283.40875464712343 M212.08934435337665 234.20499965936222 C211.99500222749242 247.17278697284118, 213.0750704471833 258.72658036572886, 212.5828830730503 285.07856935092684 M210.70697387181545 285.3003059769452 C199.15550626712118 286.8082680380331, 187.33114815753095 286.1830075131998, 155.88200855212222 283.07635895342065 M211.96922055756218 285.36510391929335 C197.18036135321944 284.88862301591166, 184.49930431119552 284.91602507853815, 154.67835728888664 285.27424974621607 M155.64736405950723 286.74205100799713 C152.83848981743085 267.1476809421682, 154.2434133983208 249.9046791794032, 154.90026874820353 235.51421948025353 M153.77321091807875 284.14014183535585 C152.93361025175295 274.26050446668853, 153.8135418055517 264.31457306051135, 153.41984934283315 235.65024938897835" stroke="rgb(0, 0, 0)" stroke-width="1" fill="none"/></g><text x="56" y="265" fill="rgb(0, 0, 0)" text-anchor="begin" font-family="Consolas, Courier" font-size="20px">p</text><text x="183" y="265" fill="rgb(150, 100, 28)" text-anchor="middle" font-family="Consolas, Courier" font-size="20px">id99</text><g><path d="M152.60767343959802 308.6660341551026 C174.43669432619689 309.07388958066946, 200.27459584949958 308.3920678485167, 213.13223553152287 309.27615817183136 M154.0649201866243 309.72869264656305 C168.07157317722266 310.24439921854736, 181.2769612325928 309.83421319492936, 211.27497442834812 310.6298798230243 M213.63446007495503 310.4702755486695 C211.98022679957333 322.9844876030059, 210.75581318941937 334.5615516337979, 213.97056250062636 361.70408102448977 M212.2632281948386 309.016576272658 C212.77008250500987 322.77807406740936, 212.62558068952708 336.6768862814837, 212.40307682534032 360.2361151453992 M212.79318761832647 360.27711853840447 C196.39707299667046 361.54708006454445, 182.60377986189783 361.21941073004757, 152.73448344700583 361.84689667851956 M211.45699401546636 360.71738539198776 C191.56339365905012 359.2482459654089, 168.35762412579987 359.2339217399618, 153.2001245216491 360.9193520504728 M152.360500089611 359.01874432053296 C153.68742810328553 344.64999233166077, 152.67395885839738 328.7796251057675, 152.45083046567984 310.137325119743 M154.23739991598927 359.5894750415697 C153.61390595528496 349.0077548735039, 153.16860775119713 337.73211673481603, 154.062846993436 310.2937209103852" stroke="rgb(0, 0, 0)" stroke-width="1" fill="none"/></g><text x="56" y="340" fill="rgb(0, 0, 0)" text-anchor="begin" font-family="Consolas, Courier" font-size="20px">d</text><text x="183" y="340" fill="rgb(150, 100, 28)" text-anchor="middle" font-family="Consolas, Courier" font-size="20px">id10</text><g><path d="M152.12436849599115 384.54616890191596 C174.03378509383074 383.33809084154603, 189.60304292405667 385.82204055249167, 213.91368076168297 383.10187833734636 M153.42484752817887 384.9488550105986 C171.76353511823842 386.45984685340875, 187.6904258310699 384.7141730697723, 211.37342979530862 384.49298597573113 M213.49755461775143 385.585009093459 C214.02831547514353 395.4724319128799, 211.07059419284036 409.36616637207686, 211.07988238696296 434.8928474500546 M211.77689892047198 384.12897939283494 C213.15110239271544 403.96552317843856, 211.57827724660316 425.4633008708901, 212.8308279628376 435.4141453943955 M211.9990701657786 435.72965627608454 C189.60821794549153 433.7195420690598, 168.79381819328998 434.42143402885887, 154.2753326755788 433.7056007249189 M211.74008538734572 434.6959595717429 C189.71266447839136 435.1053829056995, 167.09552361118162 435.3712967079579, 154.71015819240037 435.13416260158476 M155.61624927023328 436.8822815484617 C153.83219393668452 415.21131551323384, 155.18796628294825 399.26279450424823, 154.59879480990554 383.1804456750582 M154.53651793693405 435.2709441440546 C154.0134173982506 419.7757937015297, 152.86699701393223 402.7424160104255, 153.9061279568628 385.6318893210321" stroke="rgb(0, 0, 0)" stroke-width="1" fill="none"/></g><text x="56" y="415" fill="rgb(0, 0, 0)" text-anchor="begin" font-family="Consolas, Courier" font-size="20px">t</text><text x="183" y="415" fill="rgb(150, 100, 28)" text-anchor="middle" font-family="Consolas, Courier" font-size="20px">id11</text><g><path d="M30.686199822866634 8.932202849348677 C57.55229930984716 10.598268716240282, 83.29833291763723 11.235325160389394, 138.18696465445973 8.249927241432957 M30.629163549731924 9.168550337238187 C58.94416017992843 9.852953460064786, 86.69241719678676 10.053623293879328, 136.20500634666817 9.760603274928993 M136.25018008995542 9.166337594188892 C139.23427814484253 28.05002661720573, 136.97513739105608 44.60595845916253, 136.30120593118673 58.08712120373989 M137.21006367063598 9.1799133788188 C136.1618452123739 24.443508762336492, 137.9306874138839 38.10336073190384, 136.10617343272767 60.12857457606565 M135.61858684868554 59.9006117683747 C97.73949008012903 61.207194651784334, 54.54851951658328 60.258143882733755, 31.636743781315182 60.91600731072118 M136.4998882528969 59.57163702092518 C103.26933957139755 58.02797917869731, 71.15474894801471 59.372024297258484, 31.974103157629578 60.78979819099227 M32.59552283606323 59.66771348724003 C29.420093749808004 43.62458959419227, 29.962911775476194 29.09286976664326, 31.420248514743648 10.507338304718122 M30.06410713304816 60.12190421221138 C31.922296272495274 47.699407706683196, 31.247959607588573 35.7699205656595, 31.994192431748164 9.186236192123648" stroke="rgb(0, 0, 0)" stroke-width="1" fill="none"/></g><text x="84" y="40" fill="rgb(0, 0, 0)" text-anchor="middle" font-family="Consolas, Courier" font-size="20px">__main__</text><g><path d="M30.53387334073181 458.51334254621264 C82.9586989964653 460.0828019358511, 133.07426571457728 462.33204197804173, 228.31725054069733 461.8813577227705 M30.175195898014053 460.77924274343354 C86.31499536860252 462.89401510724457, 139.8371584948476 461.63039014097575, 229.2403230543689 459.85411850143635 M228.16205569106273 458.88524651091683 C228.89795796884917 525.3801038384896, 230.37334648203924 592.9817822814047, 228.96285229833518 683.5608276507938 M229.27158854344864 459.7585457779412 C227.79281285681395 516.8626351753358, 228.18556071026947 572.0764717695351, 228.5406204517215 684.2569120485077 M228.95150495207267 684.737081631611 C165.5145032080623 683.3984929621636, 99.88589807441257 682.7933273400907, 31.623295652506666 686.9037337674232 M229.2790456133053 684.8352099841323 C151.3914070176655 683.4628139469944, 75.34769508290424 684.3175466445372, 30.349204784254685 684.3844894014655 M31.449525754891805 685.4041018420127 C33.31164973604081 610.9382245602552, 30.74222406981608 536.6343201625924, 29.550058818344617 459.3205886524773 M30.2531076806185 685.456705056343 C30.212003192388252 636.7388866788817, 29.52801249780313 588.4064893591855, 31.207276932460918 460.535223491221" stroke="rgb(0, 0, 0)" stroke-width="1" fill="none"/></g><g><path d="M155.86203926295008 534.6266039294612 C168.51680687912693 533.7595144474102, 182.53171739618634 534.4500966587511, 210.8406457415154 534.3889261047328 M153.86069839075378 535.3283904786774 C170.2576661223354 535.2454724494415, 186.7688554620762 535.147463350285, 211.7684046470121 535.9229603121216 M212.28429873856297 533.9437828895605 C210.38245299179286 554.7040229123946, 214.04284170129174 571.8575644252297, 211.9681024783382 586.800951505056 M212.48604108351475 534.1904201633135 C212.5692584230458 554.5496023613036, 210.8573355185918 574.3766701632711, 211.80959501523242 584.5464467944192 M211.98595639958597 583.3161247480596 C194.65468164208625 584.8970495519526, 172.43933116742454 587.0709959639349, 152.58389469833773 585.6705848576638 M211.4844212504597 585.0265795683504 C199.0868912750524 585.1551458581176, 187.30968649072884 585.6631684593817, 154.31087531210343 585.0657637028847 M153.4502694432644 586.7801736910731 C153.6614971843677 565.5052751756631, 152.21061298075884 545.5589338956052, 155.91968244247374 534.4581229723855 M154.66947392535968 585.863515017835 C153.2219128991864 570.6932049009595, 152.8761707166014 558.9894405251773, 154.64991856320555 534.1626603898562" stroke="rgb(0, 0, 0)" stroke-width="1" fill="none"/></g><text x="56" y="565" fill="rgb(0, 0, 0)" text-anchor="begin" font-family="Consolas, Courier" font-size="20px">age</text><text x="183" y="565" fill="rgb(150, 100, 28)" text-anchor="middle" font-family="Consolas, Courier" font-size="20px">id12</text><g><path d="M155.9091889891039 609.190663091174 C172.38394376255619 611.4926387946323, 190.77072633769916 609.2448876491023, 212.60414966406424 609.257903367472 M153.48590689650507 609.3918682201107 C168.9585689341391 609.5013719560752, 182.5319996427194 610.3376975621632, 211.37324657012914 609.0689939398559 M210.05323213240177 609.1427814475139 C210.32433114605217 630.5597019520993, 210.56561086735354 650.4057108889343, 213.1674982532215 660.5665639887787 M212.9099060671178 610.6690802807605 C211.76552931090205 624.6303054680172, 212.02013915301643 637.8779874331229, 211.12079443648435 660.654797037222 M211.12280078321186 659.3123287760045 C189.13800361270924 660.9561208599796, 166.50315755876954 659.507645576636, 154.5040072896012 658.9325297479836 M211.02858483410535 660.3574397672992 C191.1042621692332 661.1410400228318, 170.94892311780612 659.4026820051171, 153.2892484615966 659.7485683926056 M154.58360330794036 660.3087827561262 C153.26489122408276 647.5294359943927, 154.38391951794793 636.3056832757275, 154.42124350343292 609.9535277621919 M153.3596120734021 660.5407577059195 C154.58464853362398 646.7240112140403, 154.07552102773596 632.3942849953527, 154.8165468024137 609.6988609469654" stroke="rgb(0, 0, 0)" stroke-width="1" fill="none"/></g><text x="56" y="640" fill="rgb(0, 0, 0)" text-anchor="begin" font-family="Consolas, Courier" font-size="20px">name</text><text x="183" y="640" fill="rgb(150, 100, 28)" text-anchor="middle" font-family="Consolas, Courier" font-size="20px">id17</text><g><path d="M31.527117779955933 458.21939600558204 C50.17526314137927 459.95012393594544, 69.12982356571199 462.0891579943603, 114.91965905391021 461.377627309782 M31.405527791574162 459.28693186487675 C56.38440683033184 458.5688989185043, 81.6014844571544 459.1911794813243, 112.75865706490342 460.10714853842313 M111.58622786513489 459.8372268012718 C113.3910675181785 474.6028359368094, 111.27369401757913 488.63558500714504, 113.05004100321123 511.45978799703585 M113.51140228595598 459.05058328918557 C113.4783663335288 475.3152963539509, 112.22419681611305 490.3438945299142, 112.24108845398587 510.1853994198998 M112.35416366208277 510.4390703921965 C95.6802900956836 508.8313504028972, 75.03875449045835 508.20677333009957, 32.40639572380538 511.0869508290137 M113.8119250759237 509.6520806536338 C88.97783524767952 509.5620881599902, 63.89443686450105 511.3839142578361, 30.70610952061186 509.58898994082034 M31.09345144754704 510.8845655968989 C29.72248783815166 498.0789537646588, 31.195521739489145 485.68651387122327, 29.670340082461095 458.5600583772024 M30.441610549399996 509.43411106324373 C31.894831980315992 493.50416395711574, 30.742627460446265 478.64524465020764, 30.492246829428307 459.6089155071038" stroke="rgb(0, 0, 0)" stroke-width="1" fill="none"/></g><text x="72" y="490" fill="rgb(0, 0, 0)" text-anchor="middle" font-family="Consolas, Courier" font-size="20px">Person</text><g><path d="M32.920510289175795 685.8181839513486 C88.78289905636828 686.8321490418605, 148.93460614137058 687.562735760836, 227.18361826631195 685.6888062075972 M31.59794946654867 684.3981545020995 C108.89960573713913 683.4694179936555, 187.50933600407024 683.3824137638534, 229.41130960733324 685.1624270721494 M229.639396107159 686.3377068141104 C228.33843512949517 736.012838726978, 228.92509361797028 785.7170079101704, 228.2783530132554 911.3566241046133 M228.66166714409255 685.2207457403604 C227.8673873298741 769.0761107558205, 228.38048067053518 852.4107591332153, 228.90518306712752 909.2096979116086 M227.5406783453476 911.496365954632 C153.6995469736024 908.8817801588893, 79.08109987352152 908.8645130041734, 30.989578101669554 911.6331253522125 M229.0242334346926 909.762141274392 C153.95586233232916 911.0166070927736, 80.27328800183666 910.5715936264579, 30.117313117853456 910.8720278229656 M32.216974932902254 909.3684348985124 C30.972855228160185 837.5148677018927, 28.52959444183637 764.25455352019, 32.667237605481894 686.3545168016727 M30.498756379534775 909.1624765053668 C30.442195298914918 831.1735455030632, 31.582959932700437 754.0312499088292, 31.633478976732036 685.2832619227481" stroke="rgb(0, 0, 0)" stroke-width="1" fill="none"/></g><g><path d="M155.36503836539856 758.7548221047282 C166.18174628037053 761.1435011400953, 181.37315853217837 760.0615777308406, 202.97667558601478 759.9221898086965 M153.83303394672504 760.5965049949397 C169.82565781347512 759.8742083881275, 186.9774755675281 760.3381186242057, 204.30420791665637 760.2459032187112 M202.73648280678046 758.0276919836889 C203.46566480188935 776.1289089123786, 203.679888359729 792.3273008229996, 205.38140883589082 809.9426239447984 M203.0293758279306 759.4957636000427 C203.63554368277838 771.6225646982599, 203.63740067846857 783.9345132404677, 204.60417212409746 809.3257810494766 M204.44658737976272 810.0643277267206 C188.9741036894298 808.118057618314, 173.90272941245618 810.6782864758891, 152.21159402819708 809.749405208129 M203.6293603785271 810.5160887046037 C189.73051542734095 809.5549553812649, 175.62785175426987 810.1195956935463, 153.37844259078759 809.766652525266 M152.85185520087043 809.6197048168432 C155.26642104097098 791.4870514254571, 155.8524522604096 777.5812452550163, 153.33969419959257 760.7313194407656 M154.5259703790504 809.0707470991669 C154.31355599111365 791.6940717077176, 154.5935577661147 772.8725556133106, 153.84028129089117 760.742480068482" stroke="rgb(0, 0, 0)" stroke-width="1" fill="none"/></g><text x="56" y="790" fill="rgb(0, 0, 0)" text-anchor="begin" font-family="Consolas, Courier" font-size="20px">age</text><text x="179" y="790" fill="rgb(150, 100, 28)" text-anchor="middle" font-family="Consolas, Courier" font-size="20px">id2</text><g><path d="M153.12647979809242 834.5428755116374 C178.07883838766082 835.2118699878439, 199.53173169996492 836.4972644261655, 210.33990814270112 836.5877094967581 M153.5092079513 834.2549792428939 C167.36395758392757 835.2954139311109, 181.14806856083106 836.1657064566374, 211.60375986884267 834.1052643277194 M210.8866819885537 835.0716334244266 C210.97563823692366 850.4388411969376, 210.79645821565367 865.5650200029419, 212.42335206593376 885.9858446752971 M212.7456747069082 835.0999610311366 C210.94060476124207 844.81743254126, 210.7666123607527 856.0186804091785, 211.9923848693055 884.661582845026 M211.67152438799295 883.8048501754733 C198.5597111342575 883.9043368758115, 180.06349184389663 886.7670158156969, 153.03998693958118 883.4645379451646 M212.68216229007206 884.0764944284884 C197.56458041202146 884.435764952765, 182.60812263813835 884.83389645103, 153.19171980804205 884.435424027975 M155.4386656060963 885.9018065760476 C153.21921599127919 871.7521336094928, 153.32451392184163 857.6850267141072, 155.6341668871446 834.6338001787957 M153.04282593727237 884.3720590529671 C153.5739894226628 865.6210265162006, 154.54387942295077 845.9754754657034, 153.8081690353515 835.6640395378673" stroke="rgb(0, 0, 0)" stroke-width="1" fill="none"/></g><text x="56" y="865" fill="rgb(0, 0, 0)" text-anchor="begin" font-family="Consolas, Courier" font-size="20px">name</text><text x="183" y="865" fill="rgb(150, 100, 28)" text-anchor="middle" font-family="Consolas, Courier" font-size="20px">id94</text><g><path d="M29.314822372413875 683.7733137323776 C54.04135940580848 686.2050136894998, 77.19779159006234 683.3387469454743, 111.53836453341661 686.8703769772225 M31.81612871484594 685.629320721972 C56.813451652877475 686.0215598264405, 82.70416466387573 685.2200176652156, 112.82182065536271 685.3629905433464 M111.68158350468667 683.6468687848879 C113.3320695330084 697.2305898221194, 111.86263078309005 706.6137614268546, 111.45422130827636 736.6991060032698 M112.62781142795873 684.4881786379833 C113.44208869700327 697.6087119284188, 112.659994096663 708.9551307435622, 113.16336123165631 735.393111572269 M114.92171772257717 736.4037744558876 C93.70676444580248 734.1765920632942, 74.6975568727827 734.2156777340467, 32.464798380935356 735.2737642217112 M113.12063621445026 734.2334773657153 C89.76503702621575 734.4916760363936, 66.11185387810775 735.344535137021, 31.602846784033485 735.1485683445375 M31.026327063131568 734.9648827793694 C32.77226356516774 722.9954861915464, 29.11797469652315 711.9937875330365, 32.18492737161906 685.7451922409397 M31.708751263426414 734.6436340612804 C31.084863278716515 716.5786318251951, 29.750086396375014 696.669633396645, 30.414914545601945 685.5161000225638" stroke="rgb(0, 0, 0)" stroke-width="1" fill="none"/></g><text x="72" y="715" fill="rgb(0, 0, 0)" text-anchor="middle" font-family="Consolas, Courier" font-size="20px">Animal</text><g><path d="M31.03563933859489 909.6994755761709 C78.28978039451546 912.1796837379877, 122.6795613965656 910.546242161367, 227.93672645738536 910.5742006457544 M31.771805924147948 910.6759070441823 C108.12234109797268 908.4775279393155, 184.7439516018018 908.4604891483391, 228.71639495914332 910.4671456655421 M229.3030463568946 909.2161364775383 C228.73586683533102 1062.8079847683698, 229.41880923052156 1214.8465543563352, 229.22124716185522 1360.7656110198877 M228.7358974118187 909.5685570139765 C229.40252976948761 1040.134257139142, 229.57407307124413 1169.9559254881806, 228.64275190112528 1359.9467133184105 M227.77070022484028 1358.6957329631148 C156.76163509675237 1359.9017016900368, 87.67230614188198 1359.70774746962, 29.873183637707744 1360.2771280783384 M228.86491592250871 1359.3605141123082 C159.83580916243065 1360.4264007727352, 89.61536833459668 1360.887102456332, 30.312495598959224 1360.7533932086883 M30.90864820042878 1360.801124630992 C30.059237832241102 1269.043978345477, 30.087576116493572 1177.3206979949564, 31.198503812522127 910.9484145774394 M31.092889383132935 1360.0607630204681 C31.949880619762922 1220.1052192553518, 31.84054147424694 1080.3974645466521, 30.769486090282662 910.0380735695238" stroke="rgb(0, 0, 0)" stroke-width="1" fill="none"/></g><g><path d="M152.05408685058464 983.0462147520184 C164.2162722174621 986.9856557332384, 176.19673740332135 983.7453631518433, 213.0090832600915 983.0239371743872 M153.39034282881937 984.0128541176242 C176.31379134629233 985.9116373238938, 198.0068378861857 984.9789677757498, 212.62940335334224 985.2148993135978 M211.7356057156193 985.4631070663393 C210.4591976153688 997.0491894300762, 211.5917140430032 1010.8948833563592, 212.56984288037953 1034.8938227765893 M211.11747596274378 984.1896095122106 C212.1897963933726 1002.8855317381228, 211.72275414094716 1018.2283178819198, 212.8871212661633 1034.8056289430651 M211.74391985336553 1033.8862702948338 C187.09204513695545 1034.7602886164111, 164.95871387746757 1035.288440925646, 153.44068768981566 1033.9487882130359 M211.7202112900074 1035.8802255226892 C199.19087226121033 1035.8469080219113, 186.73501039030012 1036.1754484001665, 153.2201715271836 1035.782982371456 M152.6988785270947 1034.7580344835606 C155.24299908942007 1016.4605697659466, 153.69297886792538 1002.6174503284107, 155.41832938335048 986.6125086561705 M153.2878767469926 1034.1124008574131 C154.48543866243637 1017.2034119970303, 153.0592033630305 998.9925108757112, 154.72439397558446 984.7410263974015" stroke="rgb(0, 0, 0)" stroke-width="1" fill="none"/></g><text x="56" y="1015" fill="rgb(0, 0, 0)" text-anchor="begin" font-family="Consolas, Courier" font-size="20px">lst1</text><text x="183" y="1015" fill="rgb(150, 100, 28)" text-anchor="middle" font-family="Consolas, Courier" font-size="20px">id82</text><g><path d="M155.62593780565481 1061.8470348993876 C173.55485057403985 1058.0848941628153, 191.6599309993197 1060.9343138458662, 212.06547191981355 1058.0859939403902 M153.4224904576641 1060.1927379633953 C174.29705331308568 1059.5560367721766, 195.54490343373703 1059.3686242823808, 211.96891441380632 1060.2818836815636 M213.87389904988046 1060.0170872110907 C213.59826285364312 1076.85319284598, 212.26814649598353 1097.967506205441, 210.89751836398264 1110.4722735479024 M212.14024400110895 1060.2410702155948 C213.01612214674938 1074.034943065405, 212.86319420664327 1087.7759445878132, 212.0189251516709 1110.6015212009163 M213.2289585200602 1111.4206837709262 C196.82961902379895 1108.6082166454596, 186.08707895326694 1108.4807842977818, 155.36511001888266 1109.4079210935138 M212.09686599450393 1109.8335583272005 C191.59373725277564 1110.9640186316997, 171.058445012192 1111.1259117269935, 154.8896620096517 1109.0857925743196 M152.39107880606838 1109.6022408508372 C155.71932701557802 1097.7854984689823, 152.90248607780865 1083.54198374832, 154.0429264074918 1061.2295812679242 M154.1404846502334 1109.2894491483505 C154.1994386195755 1093.938913798891, 153.64664654926412 1077.776043973737, 153.97760890605755 1060.5072622953974" stroke="rgb(0, 0, 0)" stroke-width="1" fill="none"/></g><text x="56" y="1090" fill="rgb(0, 0, 0)" text-anchor="begin" font-family="Consolas, Courier" font-size="20px">lst2</text><text x="183" y="1090" fill="rgb(150, 100, 28)" text-anchor="middle" font-family="Consolas, Courier" font-size="20px">id84</text><g><path d="M155.3285027397772 1135.205642537442 C174.9017733981199 1133.5045679667032, 198.12473201918112 1136.355070568895, 210.4370572176288 1136.6910648358014 M153.3007133238071 1134.5611920514984 C173.26914602131825 1135.354895540261, 192.50928307781547 1134.4317813774978, 212.55262627089462 1135.8043003217815 M212.68470381811292 1133.852637392455 C210.85868302472255 1145.8610792478516, 213.87997240019808 1159.799631377289, 211.455770222292 1183.635244189117 M211.9973977449775 1134.5707041909984 C212.32394599200356 1149.2611984732018, 213.09684253206632 1162.1990814530045, 211.5139469471144 1185.8518435256697 M213.32096702118207 1186.4754801403294 C187.54422354771205 1184.2242859146218, 166.82002242498976 1186.5139690416388, 154.5760903071603 1185.6540393619196 M212.5428212809879 1185.954050407668 C197.58161709647942 1184.3272595436513, 182.0985578426685 1185.4712593550696, 153.554906281251 1184.7267680903688 M153.53104699421533 1185.1101391290172 C155.44362246969564 1168.629750047755, 152.7104625116377 1146.8485492884752, 155.98002951215722 1134.9795778313362 M154.3525084659272 1185.6453450783058 C154.837746809622 1170.0609855680466, 154.4798661849985 1155.3225056295018, 153.50681051500925 1135.7683058355772" stroke="rgb(0, 0, 0)" stroke-width="1" fill="none"/></g><text x="56" y="1165" fill="rgb(0, 0, 0)" text-anchor="begin" font-family="Consolas, Courier" font-size="20px">p</text><text x="183" y="1165" fill="rgb(150, 100, 28)" text-anchor="middle" font-family="Consolas, Courier" font-size="20px">id99</text><g><path d="M154.63605462651293 1209.6957034481538 C170.2889268567271 1209.5715314261845, 182.92182864984414 1209.0181639258149, 212.90646546754573 1211.4159661647698 M154.96935755265645 1210.2691118244747 C171.48347873703239 1210.1705582662535, 187.9880058964686 1209.361200629395, 212.3393625455732 1209.3789064014786 M212.02438212433702 1209.6492770383834 C213.3810720422744 1226.1973616481764, 212.51383107267108 1243.3110930611113, 213.9834691021919 1258.6574423737748 M211.66730677061238 1209.1921677345429 C211.56796142641488 1221.4633620801728, 212.79063523555456 1231.9099620215768, 211.31320058821657 1259.1208371116563 M210.73482637462664 1258.9483663391823 C189.63143214141894 1260.8346313446214, 165.52761034372134 1259.1913854607255, 154.01212866609657 1259.918259919642 M211.63436704250918 1260.8539770230318 C190.2604232311609 1260.6468409912613, 168.93347399272065 1260.726479322979, 153.27405978698093 1260.1680263106998 M155.48516067065896 1260.4865072651717 C155.68832479875212 1241.4485864612152, 153.1272631113462 1222.469825011051, 154.63077362960647 1210.6324471433472 M153.3189594862794 1260.7760304884446 C153.91598981540704 1250.3360806299559, 154.2666309242712 1240.095492344774, 154.76638637993025 1210.3014852162362" stroke="rgb(0, 0, 0)" stroke-width="1" fill="none"/></g><text x="56" y="1240" fill="rgb(0, 0, 0)" text-anchor="begin" font-family="Consolas, Courier" font-size="20px">d</text><text x="183" y="1240" fill="rgb(150, 100, 28)" text-anchor="middle" font-family="Consolas, Courier" font-size="20px">id10</text><g><path d="M153.31962538384062 1283.5510891932997 C166.721112137825 1284.8204884823213, 177.4348638736411 1282.765328651752, 211.0990726345431 1285.3164171278572 M154.38600548849848 1284.66392909936 C171.57638012029875 1285.242866399922, 189.44693809684426 1284.1512321920566, 211.92651730118172 1284.3988052310133 M210.71098211954197 1285.03042683828 C212.09461838603968 1303.7584404906486, 212.58408914864037 1323.9628585738544, 211.40649419771992 1335.5804782509956 M211.64873661111804 1284.9281231634154 C210.87233886958612 1298.1815768138895, 212.00104139064317 1312.594567546887, 211.32671732008185 1335.5452345788378 M213.04292313984632 1333.6053856543967 C188.39381925593955 1335.9874610579975, 167.19332388630752 1334.0488999046552, 154.7208244091331 1333.8570741832216 M212.4499941316094 1335.781359108913 C198.43997063601313 1336.0230549192504, 183.4007471861799 1335.494706948524, 154.24936336398778 1335.7587707149899 M155.0692743526614 1336.4881658334727 C152.30839860964326 1316.494062101742, 152.5645026878738 1302.126389398156, 155.03577773785523 1283.1080895014127 M154.22505114609257 1334.7030384080563 C153.0940019145362 1315.2664653114202, 153.82815092148854 1296.2681785943428, 154.3623040143439 1285.2407891169423" stroke="rgb(0, 0, 0)" stroke-width="1" fill="none"/></g><text x="56" y="1315" fill="rgb(0, 0, 0)" text-anchor="begin" font-family="Consolas, Courier" font-size="20px">t</text><text x="183" y="1315" fill="rgb(150, 100, 28)" text-anchor="middle" font-family="Consolas, Courier" font-size="20px">id11</text><g><path d="M32.56814533777032 910.3580854828714 C56.024556804404966 907.441103935707, 75.95057705101188 908.9929270544112, 138.62291704109379 911.6561095699799 M31.923598814061922 909.5990931112851 C54.280547483988315 910.3553407502496, 76.17374287293369 910.2841358561368, 137.4544573090109 909.6872536792647 M136.75834957425442 909.1814824517448 C138.55859128497946 920.7636293523578, 135.45055647009139 928.7175069474278, 136.5286790246278 961.3746894478802 M137.74333407604763 909.6722299645063 C137.76686464125282 922.9834736016545, 136.85289635179498 936.6057394854698, 136.61886908922156 959.8687486846557 M138.37596989932658 961.5789526594001 C116.74030486174942 960.8421722210604, 94.66975090695846 960.1230503749988, 31.388824365416518 958.6100011988215 M137.9655151822033 959.0919975775494 C106.57963533608326 959.0212592456159, 77.70415958236515 959.2732459096542, 30.87103793129109 959.8856252374655 M30.23222205055687 961.4502849115117 C30.899223660004452 948.7070884196877, 32.03340561111523 939.7739686027096, 31.66329423960256 908.7800537117342 M31.142531292803675 959.8470976223623 C31.074358094573714 946.3299610238331, 32.243483398265 934.750611702151, 31.753829873527412 909.3512471753463" stroke="rgb(0, 0, 0)" stroke-width="1" fill="none"/></g><text x="84" y="940" fill="rgb(0, 0, 0)" text-anchor="middle" font-family="Consolas, Courier" font-size="20px">__main__</text></svg>