<svg width="1300" height="1480" xmlns="http://www.w3.org/2000/svg"><g><path d="M23.835992360408255 28.065599779274187 C103.10021031057596 30.250189691372306, 182.30000881966401 30.177905231837073, 222.61721355953597 31.998492733226563 M25.933902913951172 30.12473635405615 C98.00477761317478 31.171337347062718, 170.84983631784718 30.66987274808076, 223.9339174958222 30.01503993698121 M222.66618649852936 30.518921670884588 C221.70680023625505 202.89294951776193, 221.21723713755273 377.9784399880658, 223.25207564026536 479.63879721443175 M222.5303118011025 30.418919652465604 C222.74335155209738 169.67518475514044, 222.58626358630534 309.27213370686263, 223.0677014951611 480.0929230283474 M223.74217683720192 479.18148518027226 C143.94345182431218 479.5913029668508, 66.04446091766553 477.5816902326096, 23.362278517005763 479.40998615352214 M222.972725323123 479.4280870050976 C168.32468980122206 479.46812607246784, 113.39060860523938 479.81062652505443, 24.699973804636603 479.1202534513885 M24.627170216536662 479.83524927255763 C24.577915154797992 372.03104218251883, 23.75814520175382 266.10136345271, 24.861987102163226 30.641855456204762 M25.345505495096603 480.3036249318973 C25.43938740266965 347.3925106672103, 24.979284358658184 215.64425987818132, 24.634996696204528 29.984741181694215" stroke="#000" stroke-width="1" fill="none"/></g><g><path d="M147.37920720572566 106.64542879706696 C164.702546265366 102.61933017963477, 182.3439344000489 102.70874795532771, 206.96330208803917 105.00520476089183 M147.13843192697857 104.88366453897447 C165.8524937862462 104.56205996914795, 183.78814594683433 103.79544428597984, 205.0480008123333 104.3942196695908 M207.39141292933832 105.88967183005943 C207.23276329492134 122.06469625330656, 204.43004911174117 142.12423306003913, 206.13462829753044 154.23085855000127 M205.36861797065623 104.04067964369489 C204.96748812910812 122.642424748022, 204.6345695924012 141.05621343783892, 206.21591617801676 154.1325945905228 M205.14419867901688 154.00312957863216 C193.40731123255048 155.0538672095076, 180.1378848822853 156.50826665112064, 147.13883153291673 155.84425212900908 M205.22996242274033 155.24655191958394 C183.28675723209855 155.05207398166849, 161.06503732610187 154.37404632552378, 147.8006477938606 154.93024976270627 M147.25030913558237 153.5298012784656 C146.9917064128491 142.69126268783015, 147.9427966530316 126.4715675867362, 147.00674288212116 103.99036425924851 M148.43671303814534 154.26347363968569 C147.77025911197998 138.7768039240155, 148.45708531393873 122.51591014531337, 147.37408245865885 104.79894880789668" stroke="rgb(0, 0, 0)" stroke-width="1" fill="none"/></g><text text-anchor="middle" font-family="Consolas, Courier" font-size="20" fill="rgb(0, 0, 0)" x="50" y="135">lst1</text><text fill="rgb(150, 100, 28)" text-anchor="middle" font-family="Consolas, Courier" font-size="20" x="177" y="135">id82</text><g><path d="M147.03289667298782 178.54429568409324 C168.96834535922736 181.7627647637025, 190.03725221746356 181.42758237281146, 204.85777355073176 180.56342385300707 M148.34669381586346 180.49124183814018 C164.06760870907712 179.87495636478468, 180.84022613517502 179.96563910822968, 206.5694652404143 179.14632376571288 M204.2315405202944 181.81695685544952 C207.30622214968602 194.89775654506658, 207.86079217568806 210.62866122070128, 205.5329518395791 229.36772706954523 M206.12965651945566 180.05554378579822 C207.18594571203082 192.9376218241952, 205.72507807572532 204.0797448763048, 206.11810944187715 229.67164051755276 M205.1704597957549 230.73711479243576 C182.1064754090753 230.25931056113484, 162.06120494837964 228.1284794238265, 148.1227418301907 229.6167205621177 M206.00479043096297 229.42503111225366 C191.05268781900736 230.1316560371768, 176.0009586672739 230.19064639899983, 148.33182643301066 229.18463505016936 M147.89420705026643 231.99905246179625 C146.8816592821993 216.99875986995357, 149.61234114649224 204.08492233795548, 147.9570784000617 180.4371746471057 M148.8280737141379 230.49336808811873 C146.74094549918044 216.9020918307462, 146.89112156100597 204.68910172009578, 148.10170033151132 179.45645189836918" stroke="rgb(0, 0, 0)" stroke-width="1" fill="none"/></g><text text-anchor="middle" font-family="Consolas, Courier" font-size="20" fill="rgb(0, 0, 0)" x="50" y="210">lst2</text><text fill="rgb(150, 100, 28)" text-anchor="middle" font-family="Consolas, Courier" font-size="20" x="177" y="210">id84</text><g><path d="M147.1015514417746 254.61359354267952 C169.553339860961 256.01321829684707, 193.65161983987872 254.69487100530077, 205.0270773203623 256.72422417425577 M148.3094608379223 255.9911336865796 C170.44933474579557 254.85312812509162, 191.53733239083502 255.0524241572728, 206.12224190733554 254.69706899937097 M205.6405309635486 255.74129433551715 C207.4692599784796 269.3672988649, 204.826005650906 279.2386569035668, 204.62129409381546 306.86846394375857 M205.91894444839104 254.10586894709297 C205.82850159846723 271.3468189708201, 205.70434245153908 289.88618318032815, 206.63395719875956 304.7379356042469 M205.37007411240705 304.88819996485785 C186.76919012908283 303.5271480564776, 168.9126789157284 303.6335918914359, 148.3234414770086 306.3917209646727 M206.31792135593645 304.358350621923 C190.49989575427296 305.47767328535843, 175.30958424761195 306.357483451312, 148.11007171957027 304.9823646797499 M147.29132297799302 306.91245521968426 C149.07736875608575 285.9987865407424, 147.8940366711629 269.72308293595603, 148.47201573829517 254.49586749504724 M148.0287276723954 304.3045328076575 C147.17583361436277 289.9077314561577, 147.89874599058416 274.6133206784047, 147.71058605729138 254.23119841410136" stroke="rgb(0, 0, 0)" stroke-width="1" fill="none"/></g><text text-anchor="middle" font-family="Consolas, Courier" font-size="20" fill="rgb(0, 0, 0)" x="50" y="285">p</text><text fill="rgb(150, 100, 28)" text-anchor="middle" font-family="Consolas, Courier" font-size="20" x="177" y="285">id99</text><g><path d="M146.36834075745625 329.3950194271265 C161.84570022578555 328.4068212956734, 174.57322937613674 329.1099030457465, 206.62970236228063 328.943817073794 M147.9943792819268 329.4555683289072 C162.8621286286325 330.29283369224174, 179.01572446431018 330.31154741854215, 206.2620312335623 330.8407113003907 M206.44696095893153 329.49820438393874 C204.18829374942467 341.06965237076156, 203.88006785353923 353.68094912013834, 205.6029642985269 380.35131230722686 M205.3480939418145 329.04833409435156 C206.62015611189747 343.2084073323544, 206.59796846699703 358.2966256567887, 206.1717247541349 380.11624018671023 M204.85848728633442 380.150372012112 C190.04271652979497 381.00844096463425, 173.55932706506502 380.58480322010695, 149.93022975923805 378.1431085006326 M205.15595285267526 380.52895034769426 C186.326306808534 379.9987499740665, 168.42399641938664 379.4155512035911, 147.42413438601864 379.75876119668396 M149.03187254576582 379.48048440819815 C150.03783370440934 361.66393201775566, 150.17815487357714 344.7164350117855, 146.38581681031943 331.6996757462048 M148.71715375755952 380.82193011129334 C149.02961206825512 368.95866662474185, 147.9842924929578 359.28098352657025, 147.00630523424118 330.26496097327436" stroke="rgb(0, 0, 0)" stroke-width="1" fill="none"/></g><text text-anchor="middle" font-family="Consolas, Courier" font-size="20" fill="rgb(0, 0, 0)" x="50" y="360">d</text><text fill="rgb(150, 100, 28)" text-anchor="middle" font-family="Consolas, Courier" font-size="20" x="177" y="360">id10</text><g><path d="M148.0073165034352 404.3110616068504 C164.89894215549265 403.43106014896506, 181.33132266483074 406.6352635884677, 207.88331560876256 403.37833646984006 M147.34465119219632 404.2046229500468 C160.7647080646901 403.6420936945881, 172.03371257393655 404.0281779334661, 206.38080381630775 404.09956049847364 M207.40289481681907 403.12513541648445 C205.4087300722582 421.7630166417576, 206.53921278975784 442.18014894281436, 204.6013073368601 454.151370050806 M206.25327704309862 405.40922139374715 C206.58092532631466 419.79892186697805, 206.28967294293815 434.6668972884066, 205.31903705988904 454.2250521159343 M206.28672481596502 456.38238738692246 C185.06413912319232 456.0237167700162, 166.99147647777434 455.5753167221109, 146.9163898862495 454.50070232439384 M205.82760059067743 455.98976468691626 C185.29377834301826 454.8473473867573, 164.5262208005031 455.6687202949607, 147.43079585957867 454.2993349887013 M148.25936475688283 455.0965296317752 C146.25880914334311 442.65314585150225, 149.4437259076573 430.0045638279798, 146.77837510324017 406.2386239959286 M147.91223784072793 455.98389100453744 C148.0025508153326 440.57521900064773, 147.9072350999627 426.61551484645753, 147.53632139256302 405.32613581443286" stroke="rgb(0, 0, 0)" stroke-width="1" fill="none"/></g><text text-anchor="middle" font-family="Consolas, Courier" font-size="20" fill="rgb(0, 0, 0)" x="50" y="435">t</text><text fill="rgb(150, 100, 28)" text-anchor="middle" font-family="Consolas, Courier" font-size="20" x="177" y="435">id11</text><g><path d="M23.76872923600885 28.898116624115257 C65.46783166244215 29.973419178871673, 102.61128253706659 32.31779931407059, 129.9716203000171 31.724360493087445 M25.3831183633991 29.993334363700733 C55.27906103176378 29.272884563468907, 86.35501072598812 28.9940787256902, 131.66471815050514 29.068912469752924 M129.7312697281551 30.04463469082073 C131.92741142436188 49.414367308917555, 133.28484408884748 68.6935052548842, 132.78272770227704 81.02085616667915 M130.6555564386887 30.225591709884252 C130.698469809206 47.170259626116156, 130.9889418354969 64.32833000087015, 131.34523545719617 80.25919872569568 M129.2943342503927 81.61628668220281 C88.1061857907394 79.28134030477672, 49.56023957115384 78.12034169638446, 23.376443679519802 80.22588236178599 M131.35763105364074 79.67325147358648 C106.3166082054619 80.28176198189587, 80.20897626392242 80.40100121492434, 24.995967956216184 79.55228464991961 M26.090379326789236 81.48702418613055 C25.00896440089654 59.8175466154609, 26.4531549822997 41.16612842124508, 26.021638535398566 29.384835608374033 M24.974538485441364 79.34165109969287 C26.35711008535011 60.18677795634484, 26.151462056406903 40.69435688755198, 25.833893707330983 30.614941036181076" stroke="#000" stroke-width="1" fill="none"/></g><text fill="rgb(27, 14, 139)" text-anchor="middle" font-family="Consolas, Courier" font-size="20" x="78" y="60">__main__</text><g><path d="M23.00088121517213 480.3775008609585 C72.91552405052333 482.9453283758363, 121.09674332792295 482.32988986481314, 223.94297247324855 479.71839671744414 M24.085319673697818 479.95638780334883 C77.27767911255611 481.55267703971725, 129.01908962750886 480.46346132319707, 222.12552646407505 479.3929665351455 M221.7823076443561 478.55213282376627 C224.8094126181343 537.489186143454, 223.82052872816396 596.7748222188516, 223.3792782865914 704.3264168783049 M223.49444571381167 479.3111761701551 C223.88855819272163 538.225716250045, 224.24208609002324 597.3717143376787, 223.32682707754927 704.660069886634 M222.99422582183806 706.6409415778687 C161.02691462412776 706.7356370679091, 99.72004524551215 703.5267878745664, 24.543431595861506 703.349834124526 M223.53136150428816 705.2471100511556 C165.7634210911318 707.0518762719475, 110.45522729028482 706.3140673618801, 24.395171535953022 705.6210841544188 M25.676995188100545 703.3487065478508 C23.819046666287573 646.3687086357846, 25.584669125492827 592.0586691920352, 24.852309699010917 481.0949349238835 M24.69627130951045 705.6345837353931 C23.922518665564404 628.4871649353162, 23.710627721800567 550.3945503180249, 24.796940924470817 479.9231708307303" stroke="#000" stroke-width="1" fill="none"/></g><g><path d="M149.50509965030193 555.2159208946978 C170.6707950986677 554.1858253085701, 192.64314126350268 555.6139116184639, 206.50801969493452 556.3819922787962 M147.52191818811247 554.338624356095 C167.2129506289234 555.8434141398341, 185.0642455191449 554.6841900263056, 205.16224472103343 554.7715240559928 M204.05815179057615 555.0378667884229 C206.00870749836352 573.01654977586, 205.70633580009525 590.731886514228, 204.83163344291412 605.0781990897508 M205.10740372630684 555.9527019099396 C206.1839220012361 567.8995417377926, 205.11023985924214 580.3927871102647, 205.48920954757295 605.067527552243 M207.6651030366838 605.7973311643689 C193.56419494119467 603.628335851929, 180.34930508808787 606.0624720363782, 147.0092632978669 603.7614964721337 M206.2538184161676 605.5659365076215 C189.3460168899627 605.0144474184226, 170.9585733417815 605.5202687438441, 148.79530387883804 605.9640771640288 M149.43770437134194 605.3213476150994 C148.18926522369358 587.6518946046999, 147.4819869151482 570.0754687852803, 146.02584903178007 554.8812724680472 M147.86751877790863 604.8294430979603 C148.64441690821016 595.2155138717169, 147.58674470616586 585.7104690652691, 147.7122807498228 554.6469235406232" stroke="rgb(0, 0, 0)" stroke-width="1" fill="none"/></g><text text-anchor="middle" font-family="Consolas, Courier" font-size="20" fill="rgb(0, 0, 0)" x="50" y="585">age</text><text fill="rgb(150, 100, 28)" text-anchor="middle" font-family="Consolas, Courier" font-size="20" x="177" y="585">id12</text><g><path d="M148.7910682278047 628.5085462204623 C163.05995745940828 629.8927713382052, 178.26329383178282 630.1985040188998, 207.66630611415926 628.657585957548 M148.7593550972028 629.839461560491 C168.1458369936134 630.8225296730621, 189.86018713908274 630.2777913940052, 205.59956489320328 630.5695338540711 M204.24789705807407 629.8294459865875 C204.9157576528803 644.2654414264147, 204.9030651736919 661.7148412789917, 207.99950170789245 681.6622366236837 M205.69873177483112 630.2850833596173 C206.45308348214712 643.434082844218, 205.74745781538647 658.2608476086751, 206.0341504767043 679.2646117299776 M206.1081989021918 678.1134663559777 C183.61701128460575 679.1060712698534, 162.59142390382956 679.0845362928475, 146.90351296013625 680.3784954986086 M205.2575087078832 679.5959911589393 C187.2844379761395 680.0086278019912, 167.94572020162937 679.9373590681375, 148.19284933786918 680.5940235049993 M146.68887046996494 679.7893965230786 C147.9553010353589 660.8088044532647, 148.8179778634609 643.582251370693, 148.43847400150224 631.8029683995378 M148.72035962664071 679.2362566728493 C149.40894232620255 666.1654869646694, 147.46354609440436 650.2330913095894, 148.4963357185407 630.3272064472442" stroke="rgb(0, 0, 0)" stroke-width="1" fill="none"/></g><text text-anchor="middle" font-family="Consolas, Courier" font-size="20" fill="rgb(0, 0, 0)" x="50" y="660">name</text><text fill="rgb(150, 100, 28)" text-anchor="middle" font-family="Consolas, Courier" font-size="20" x="177" y="660">id17</text><g><path d="M25.239701074700378 481.0481383349969 C53.58487435522599 479.3657586672747, 79.8608396453224 481.0100692556193, 105.21307489445248 480.0001807578756 M25.75214372793345 479.5265982207208 C53.108983842007476 478.99401684113684, 79.12316318203935 479.82781765824797, 106.93841426558056 479.4957747003322 M106.72314726227239 478.54950182106677 C107.58252225895339 496.10794499693236, 105.61469303331315 511.14813887740485, 108.91692731219855 528.8203964037019 M106.12700179030251 479.976853726149 C107.45418862941852 494.8627962110826, 107.24955471232474 509.1658802627811, 106.38696330363278 529.6154458867372 M108.89988559917713 529.640201274987 C89.44617175108039 530.0456398634046, 70.5734184574982 531.165959834025, 24.712765590586088 528.4621100042498 M107.34041643215672 529.4872804214274 C89.53519307612868 530.4251166674251, 70.30774187214875 531.2117679394262, 24.66768363993559 529.2741229073991 M24.794094767053554 530.4481502414077 C24.736567957198258 518.8248649093545, 24.88455027437774 505.9245859419251, 25.66882593009705 480.74179106297464 M25.305196799876008 530.732251713423 C25.180223845384855 514.7479582132557, 25.271855606021774 499.95926459787665, 24.73891084761723 480.1441862371781" stroke="#000" stroke-width="1" fill="none"/></g><text fill="rgb(27, 14, 139)" text-anchor="middle" font-family="Consolas, Courier" font-size="20" x="66" y="510">Person</text><g><path d="M26.009395902177154 705.5356027180753 C88.54751931912891 706.6412874271714, 154.6605646977137 704.8408473791894, 221.60560354763052 705.393155388305 M24.651721280977046 704.1030489688427 C78.03614457965446 702.8179010519749, 130.14934978692122 703.035472181388, 223.0364727182442 705.0353139319698 M222.0834001018267 704.175243383616 C220.86602716369154 763.1084138345092, 224.28316653995665 819.7293384901511, 223.89682232797682 928.5683047538138 M223.2248628524199 705.2608042944389 C223.61806024717745 757.987067212101, 224.0799332703115 810.8990141139682, 222.4618287097107 930.7696002388717 M224.258489003541 929.6335414758688 C166.6844671229444 929.1712096519896, 108.04886608454659 930.071002067043, 23.411227333084906 929.3766168446632 M223.8793673227916 930.8287272685749 C145.05789945808422 927.5236994320127, 68.88144076562311 928.3059954770048, 24.875408765046384 929.5838348021595 M24.178580817432827 929.2401940751155 C24.031035343933482 873.1172034340325, 23.330349678165113 816.9346013159485, 23.667520875698052 704.9060241961248 M24.1993676519734 929.6337753730061 C26.42310948853624 841.6632905948113, 26.6044381740228 754.5091638778383, 24.925543415014083 705.1287086750159" stroke="#000" stroke-width="1" fill="none"/></g><g><path d="M146.62553906005832 781.7783468759162 C165.12481066168297 779.0146136584403, 183.93033192479473 781.425152624591, 198.72882562133597 779.4680119252668 M148.5383081888079 780.4450646773513 C164.12861508649277 779.3794536240206, 179.7540078954762 780.1668682197735, 198.82756323290687 779.8544102406527 M197.72792406513724 778.1750026862273 C198.5535371834221 793.2581899072396, 198.85743910698488 807.8175200876204, 197.0243103925797 828.6610710548915 M198.2932014484295 779.5289315321725 C197.9248169896179 792.4289768305882, 198.36506313809778 803.2988125451354, 197.12994813401752 829.6747495753505 M198.04224858214042 829.4898445417272 C186.48216871282509 831.8725824177001, 177.469153673451 831.7164673165883, 147.14326594680503 831.5266205283401 M198.15438155984094 830.0220131376508 C186.31767985604344 830.4722072733455, 174.90520369580025 829.801649492361, 148.41557440055752 830.6784420863153 M146.3661382635083 830.7842233657332 C147.48026416722692 818.2195854260889, 149.75025614040158 805.8224526910567, 149.0513758871517 780.5560785975352 M147.0197433896618 829.3830574868698 C148.37945201680898 811.0859115592829, 148.48908224759708 792.2332457462676, 147.802453991477 779.2768445204232" stroke="rgb(0, 0, 0)" stroke-width="1" fill="none"/></g><text text-anchor="middle" font-family="Consolas, Courier" font-size="20" fill="rgb(0, 0, 0)" x="50" y="810">age</text><text fill="rgb(150, 100, 28)" text-anchor="middle" font-family="Consolas, Courier" font-size="20" x="173" y="810">id2</text><g><path d="M148.36050422718347 855.9919465520878 C164.9382016049552 855.528445625655, 181.94982602687088 853.946329210133, 207.35676787134724 855.6935034962956 M147.9563552694741 854.5706004546216 C161.21260125175456 853.542993625074, 174.88807381649386 855.4142214506012, 205.46208956499098 854.1125025293766 M207.26109402016135 853.2286189943898 C206.19865566687903 870.5051910354567, 204.2016328354784 885.602664779368, 207.8659330912201 904.1164618478963 M205.92902438203765 854.6104549627689 C206.10604752984446 874.9670752933373, 206.55896532125547 893.2799201274346, 206.14618654861044 904.6977492168862 M206.66158127484832 906.0579847778762 C189.38988648039657 903.3792405509699, 174.46493412925238 906.8228594140419, 149.19111164456515 903.8832678878547 M206.5917443400535 905.4779470234073 C187.24372966476363 904.7320454225472, 167.34385244543628 905.2310791724451, 148.34234278346804 904.0277535935119 M147.11681572098982 904.0802327411285 C146.32312677697715 892.3482348874112, 148.8229573089231 884.1695510918952, 146.8690105675046 854.9805821994001 M148.1752814588936 904.0455143483125 C148.61362808647263 893.2596883452386, 148.23504899872955 879.5804979051155, 147.95752038376557 854.8411431957126" stroke="rgb(0, 0, 0)" stroke-width="1" fill="none"/></g><text text-anchor="middle" font-family="Consolas, Courier" font-size="20" fill="rgb(0, 0, 0)" x="50" y="885">name</text><text fill="rgb(150, 100, 28)" text-anchor="middle" font-family="Consolas, Courier" font-size="20" x="177" y="885">id94</text><g><path d="M24.152904962797606 704.510425856084 C47.8266665454259 706.4241525498551, 74.48204613549906 703.1344887657503, 108.45461355290233 705.588134477682 M25.54943183990369 705.4322858138715 C46.075981830132214 705.8740723601754, 66.65923031604184 705.4383898558561, 106.58824397229006 704.9352880926943 M105.99072515646402 705.0069492120488 C105.33026241462527 724.2033581287667, 106.71721792627827 741.6537484616166, 107.98685706655024 756.4200116120578 M106.40740646648852 704.7384064634608 C107.27507626432782 724.3058203247609, 106.81143007435857 744.9664947342534, 106.65235658413505 754.1699836175686 M105.3544457131458 755.5676816546279 C83.28385973675651 753.2644999897791, 60.0915963433024 754.0429272869115, 24.66241269854485 753.1607642568099 M107.22646869927534 754.1899433628707 C74.93921285549065 754.3185895302037, 43.22972856651493 755.6368521541377, 25.031758327302157 755.7632512564601 M26.372441397415677 756.78801910687 C26.86520090584714 744.1130272807551, 27.39496215268433 731.1028146980376, 25.619607288473954 703.7481219623235 M25.068729599002133 754.5317240760783 C23.72023750043418 743.0660709921408, 24.099730462080508 729.6492659698878, 24.298993510092878 705.3408368358514" stroke="#000" stroke-width="1" fill="none"/></g><text fill="rgb(27, 14, 139)" text-anchor="middle" font-family="Consolas, Courier" font-size="20" x="66" y="735">Animal</text><g><path d="M26.253588836991206 929.9321735926748 C72.02299852831666 930.1338265994466, 115.82177896311919 931.071030387577, 221.41926103098592 928.9090901654454 M25.042160670578294 930.1443298723134 C66.95569668181841 931.4980570326222, 106.7950616840388 931.7525392211184, 222.74267380182056 929.0155951167641 M223.88576145814238 929.9751468290845 C222.85879651046494 1084.195091624711, 223.48244598984584 1237.6004844888507, 223.71649984166427 1380.313453237564 M222.9950626032286 929.9281709719633 C223.38327579883844 1045.5118592427975, 223.58477769329096 1161.5594412402036, 222.56382688073086 1380.446822203202 M221.96295565866467 1379.5228057834481 C169.3053640354083 1381.306334222109, 115.30381981196948 1381.542108051587, 23.385785669404598 1378.3784074595735 M222.92034654210931 1379.8946444162161 C178.55258269565903 1380.7674786336906, 132.817685800967 1379.5935759212853, 25.500283559157076 1379.5876351666168 M24.34458538626982 1380.9177121079617 C23.754062897323795 1242.1247490564622, 24.359517368386342 1103.284638077755, 25.52259975859763 930.309477597228 M24.815300691121667 1380.015472947469 C24.18322276158921 1209.1116612998142, 24.130392518045735 1038.5127477188244, 24.619440812433368 929.5705561557963" stroke="#000" stroke-width="1" fill="none"/></g><g><path d="M148.71829860390764 1003.4207084266706 C167.8928209960451 1004.0172141915441, 190.02310975729222 1004.5691271885955, 207.19724523881075 1004.8268189247634 M147.89712416274548 1004.1175399620932 C161.40701555341371 1005.6237448977176, 175.44032904179184 1004.4437805908968, 206.8201138500174 1004.7070183051859 M205.49509314451836 1003.0240775968281 C206.52427724405663 1018.5473662412585, 207.6997600653468 1034.0092949283212, 204.1564656887438 1056.5482818959297 M206.9912466156861 1005.3365143130432 C205.63572692393333 1017.258349616533, 206.28122374266707 1028.6111890103869, 205.87850102516285 1054.2266638194055 M205.56314175604243 1053.2599470001023 C184.40661722151214 1054.3385192643386, 162.4315005008695 1056.4116363541161, 148.74343980629524 1056.9342301467711 M206.66656287200234 1055.4904683451584 C184.61795123112074 1054.6243387056209, 163.67422674332494 1055.1349227536632, 147.9629459657024 1054.0380763478854 M147.25008325954806 1054.5058579774459 C147.43959135160623 1039.643862361892, 149.42514060841276 1023.6048004829738, 148.59428423470504 1006.2373134604095 M147.7812589485983 1054.0047603537032 C148.32680357815457 1042.331637176593, 148.18933338636944 1027.6452835135099, 148.9754391366217 1005.2536099319573" stroke="rgb(0, 0, 0)" stroke-width="1" fill="none"/></g><text text-anchor="middle" font-family="Consolas, Courier" font-size="20" fill="rgb(0, 0, 0)" x="50" y="1035">lst1</text><text fill="rgb(150, 100, 28)" text-anchor="middle" font-family="Consolas, Courier" font-size="20" x="177" y="1035">id82</text><g><path d="M146.0478953674308 1081.395447036077 C166.06943175265897 1079.9793025794256, 181.61250365173723 1078.6015689707365, 205.1707937060393 1080.6439828780765 M148.44579493595052 1079.6750536651675 C167.37432395106012 1079.203843296937, 185.593117463017 1080.1386920812804, 206.8022420434387 1080.509705677496 M205.07820534398067 1079.0623555274008 C207.37427047172125 1093.2114317985074, 204.06175043084997 1108.9512706007204, 207.90237077426806 1128.1079762895931 M205.1914176919638 1079.5736042710605 C206.0856214201309 1092.9591186179725, 204.55051212416728 1106.5555156922503, 206.25358986148493 1130.774967461353 M205.0444888894908 1128.2617263303134 C190.73807634372616 1130.4818750358847, 171.25182197414406 1132.0421930615405, 146.74792668334965 1130.9893285669968 M206.75754016569456 1129.3120264496042 C188.61800469432188 1128.8112787309954, 169.28286751428269 1130.3952127149148, 147.4209073998099 1129.664531130752 M149.58799112709298 1128.8404513725498 C145.8069709312637 1112.0037466339845, 148.04259750715798 1098.7498642161295, 149.5529269007419 1081.4198644366218 M148.67837551316387 1129.471399347072 C148.0673191106146 1113.988529345074, 147.29964666937147 1097.2438460434591, 148.33994338250426 1080.7823982296522" stroke="rgb(0, 0, 0)" stroke-width="1" fill="none"/></g><text text-anchor="middle" font-family="Consolas, Courier" font-size="20" fill="rgb(0, 0, 0)" x="50" y="1110">lst2</text><text fill="rgb(150, 100, 28)" text-anchor="middle" font-family="Consolas, Courier" font-size="20" x="177" y="1110">id84</text><g><path d="M149.98872567170176 1156.7047475329869 C164.00307172851313 1156.8232489213763, 179.54150231045395 1155.6993950211224, 207.10698800228556 1155.8930868092648 M148.68170274492422 1154.3198679550826 C170.6643861932818 1154.1812498654317, 192.80192676708205 1155.3889292035865, 205.32354036362807 1155.0381024103147 M206.84440128127906 1155.849078650626 C204.7734122235338 1167.7802053305957, 205.93443440291676 1182.523611264638, 205.26271333307662 1203.5131242837292 M205.7890300735634 1155.6375981093545 C205.23747742218134 1171.1596329669117, 205.94254095091338 1186.927688510367, 205.60370616035976 1205.3640763762348 M207.11918698655427 1206.3671774224074 C182.070363503596 1205.2511444891009, 161.01459181334545 1207.2522079973496, 149.37081762477354 1205.9168393998223 M205.4071281816087 1204.34045443206 C191.9298579714426 1204.3226303087995, 178.92945459080815 1204.4369182091552, 148.0032226068914 1204.1858224508744 M147.8167548528538 1205.7040066900508 C146.1686875683866 1190.5608991796116, 145.93006058753932 1174.1147186491905, 146.21913304454193 1155.6505098004222 M147.8582108338014 1205.4713783127786 C148.07229257718222 1192.3087685146415, 147.36685533027153 1178.8861958517114, 147.49493941715335 1155.5733705904324" stroke="rgb(0, 0, 0)" stroke-width="1" fill="none"/></g><text text-anchor="middle" font-family="Consolas, Courier" font-size="20" fill="rgb(0, 0, 0)" x="50" y="1185">p</text><text fill="rgb(150, 100, 28)" text-anchor="middle" font-family="Consolas, Courier" font-size="20" x="177" y="1185">id99</text><g><path d="M148.64751646552514 1230.3174586442708 C164.2200656904306 1230.4421710874085, 181.66835936516136 1230.357836273859, 205.42824826396705 1228.6801442840126 M148.7244751129736 1229.6303937819443 C163.8425173861662 1230.5719634837865, 179.81895570106028 1230.633493701025, 205.7232861084902 1230.7559641253958 M207.16051618351298 1231.9113131253662 C206.64918108103325 1242.2769191653585, 206.47550930612869 1252.6382709651361, 206.59432710997623 1279.396405539113 M205.18008384586264 1230.8299858038654 C206.31489861467725 1245.9377191605304, 205.47250384879274 1262.324729254948, 205.00160714151036 1280.4738736712923 M207.0317538948081 1278.3924531495322 C188.13124810093484 1277.82762679275, 169.75673469645744 1281.5568126579958, 148.14343901382358 1278.3610608129025 M206.23092240493747 1280.005897988102 C185.10455122647818 1280.1708518393534, 166.66080164099085 1280.3749572345341, 148.58908493265966 1280.3195018927877 M149.40407093354054 1280.9847607246008 C146.92378751101543 1261.0746759112133, 146.04950209777263 1238.7325462396639, 147.40445494250096 1231.6369140530778 M148.76915080899616 1280.9766097202971 C147.37047704588514 1266.4295896508313, 147.45768527932498 1254.9696945404132, 148.87863451459586 1229.9158586226322" stroke="rgb(0, 0, 0)" stroke-width="1" fill="none"/></g><text text-anchor="middle" font-family="Consolas, Courier" font-size="20" fill="rgb(0, 0, 0)" x="50" y="1260">d</text><text fill="rgb(150, 100, 28)" text-anchor="middle" font-family="Consolas, Courier" font-size="20" x="177" y="1260">id10</text><g><path d="M146.33051594411342 1304.541010561782 C159.61020398762133 1304.948552232246, 175.27686935189726 1303.6937813585384, 206.7776923385246 1303.4450905920578 M147.69787033273442 1304.6169267500698 C170.45423854786267 1304.560378950252, 192.3703360577841 1305.2776211185603, 205.7137449781993 1304.6906088558267 M206.92191015805386 1306.9265885029192 C207.23943433646255 1316.567944476895, 204.19756345119535 1332.7059571023708, 206.63830484352818 1355.1778034215743 M205.1329426591366 1304.0589673193992 C205.53753648927486 1318.4234211928122, 206.0508058681521 1331.8725428988544, 205.04679705035252 1355.666397200829 M204.64069917539504 1355.9664886247472 C191.55375093336843 1355.1183763756023, 181.63125885848663 1354.4945746522437, 148.84333570188045 1354.7325661896339 M206.8393434972383 1354.0687379490187 C188.247756443746 1353.768735685036, 169.0076315279797 1355.047333993311, 147.1148416564764 1355.2804629824286 M148.4646555485639 1356.1419164028753 C149.00014812177594 1336.3909959624925, 147.80970749368325 1316.2449280261956, 149.09331558074086 1304.246701330143 M147.31540449793607 1354.4366016787799 C148.3451206966826 1337.5698300559977, 148.59335688349 1319.565946692973, 148.01661817544175 1305.263458183969" stroke="rgb(0, 0, 0)" stroke-width="1" fill="none"/></g><text text-anchor="middle" font-family="Consolas, Courier" font-size="20" fill="rgb(0, 0, 0)" x="50" y="1335">t</text><text fill="rgb(150, 100, 28)" text-anchor="middle" font-family="Consolas, Courier" font-size="20" x="177" y="1335">id11</text><g><path d="M23.400887612560318 930.5809147288466 C55.303486580875806 928.0693540201177, 85.35292616832699 929.7341827895489, 132.37642188724467 930.9062571289971 M24.35912808461536 929.6476825538589 C66.08054284042143 929.4952185457404, 108.38219101961353 929.2490305966267, 130.72581628771803 929.314014155567 M129.1688767979296 930.706525095218 C132.60463880274602 949.8531089163899, 132.44183964190242 968.9889573104596, 130.81269538969408 980.479292154804 M131.95914532042022 930.3361144818281 C131.932107007758 940.1446959496461, 132.09025540323984 952.0108668916426, 130.72984909410567 979.5462788158301 M129.63206169427636 980.2699153916762 C93.81199179594212 979.1337552868713, 59.46631825615451 981.2037532117349, 26.761506882171986 978.9446149820456 M131.66761815312853 979.3202183694627 C92.33161344053138 981.0760204303442, 55.38492786341372 981.1229268636538, 25.131724762406282 980.5320074346623 M26.69447877462067 979.6742226541039 C25.750758895841958 964.0203027929883, 24.932045845949123 947.9383640497832, 24.373114225404663 931.5541599428365 M24.8980407619661 980.6879463440683 C24.99925003867064 962.0104921183344, 25.14116385629954 943.192002978405, 24.089223468504247 929.7145818317848" stroke="#000" stroke-width="1" fill="none"/></g><text fill="rgb(27, 14, 139)" text-anchor="middle" font-family="Consolas, Courier" font-size="20" x="78" y="960">__main__</text></svg>