<svg width="1300" height="797" xmlns="http://www.w3.org/2000/svg"><g><path d="M32.80668504448106 11.358481820827098 C82.72005969824758 9.0204251509798, 138.21333784940913 6.629189662797645, 230.69144892399044 8.068823237748006 M30.61752340499611 10.2323569364529 C84.42784172573151 10.756699448478457, 136.48651934660066 9.259886570867444, 228.22931995941903 10.520347321114565 M228.8368323817019 10.956438347760274 C226.24458307618562 101.63797905059215, 227.28056513026058 195.64314159093348, 229.75640415791207 460.48703757153953 M228.58878081005858 9.881040395485227 C228.56922367160865 101.88820390625469, 228.24028081731404 193.27048204594325, 229.29152407446765 460.47597792422243 M227.91038355473952 460.00034170320265 C181.72018862570243 458.94123970826024, 135.47987815837985 460.2200679029009, 32.5536131065361 459.49014726361196 M229.06868514743957 459.5745274021694 C172.13193423707943 459.00730720232576, 115.3151726067116 459.06791516711894, 30.21096650466013 459.28001460716183 M30.251553357835242 460.0204969720601 C29.421413922099223 305.6615063188962, 30.023501740336073 153.87609655219956, 31.684192743225445 10.28223082821436 M30.726296562969363 459.80926686236927 C31.24776632599108 303.7756942712035, 31.72847094889247 147.97320009882, 30.69983079107522 10.01354370093612" stroke="rgb(0, 0, 0)" stroke-width="1" fill="none"/></g><g><path d="M152.89615252020482 84.63172047168938 C168.48346203269165 82.98461469012477, 185.4211455178171 84.537360261632, 211.19553374835542 86.17385382087586 M154.4802560298748 85.77576175228135 C166.93810907902233 83.87960618262025, 181.74687273274674 85.2478220711831, 212.1615812231085 85.9466387413619 M210.0004539379347 86.63678061017593 C212.8256841635996 103.55963961246917, 212.27605978043417 122.4206569386947, 210.6379135201955 136.70143554757038 M212.76994968985468 85.63990699527434 C211.2458153766015 97.33807221480755, 211.97824329432 107.18382607768447, 211.02863775640074 135.93682453325331 M211.08973954250098 136.97552050538238 C195.07050884166753 133.45025851056042, 182.07520755987852 134.73403386942078, 152.50113668569225 134.8066440752939 M212.8637034118096 134.8757770778025 C195.91749742690718 135.4136708258149, 181.55620597782263 136.11627608348968, 154.58895480579835 134.37180489672852 M154.2813505096239 134.73223569118008 C153.90323180799783 118.27643461294697, 152.5934297506819 99.05952323763312, 154.96377424679008 83.5703821836344 M153.58683745795668 135.6322404499827 C154.28724101442253 120.75676570569178, 153.60055903056016 103.86863959655636, 154.85877003757966 85.30186159604509" stroke="rgb(0, 0, 0)" stroke-width="1" fill="none"/></g><text x="56" y="115" fill="rgb(0, 0, 0)" text-anchor="begin" font-family="Consolas, Courier" font-size="20px">lst1</text><text x="183" y="115" fill="rgb(150, 100, 28)" text-anchor="middle" font-family="Consolas, Courier" font-size="20px">id82</text><g><path d="M152.87296775315642 158.33796339180608 C167.28274797772355 158.99881380462338, 180.27070604675106 159.0356261671483, 213.12957991003918 159.29628552532012 M153.6037041611623 160.06128798589992 C165.72758005193552 159.0555218663132, 177.71826290338933 160.11251891734108, 212.57310304664387 160.64014402823338 M213.12505351144884 159.37863629483664 C210.65598297655418 176.04658477132432, 214.00625551260592 189.56270616148913, 210.2346205086504 208.015459149647 M212.47225276830767 160.40191190923994 C212.42952221838675 175.06920955989602, 212.91931232279606 190.59222863360083, 212.06044747151225 209.02498983077925 M210.36180552228117 208.08454869848225 C190.22824406666888 211.37807641022795, 169.16348605162048 209.1998546844338, 154.49746188863278 211.6812940375895 M211.52710025544928 209.05248444428875 C194.26263414211047 210.0071967540444, 177.48946040653271 210.57594350303864, 154.8874132591863 210.7472547672807 M152.1064796319249 208.94680740504353 C152.30348992662297 193.59140155439013, 155.45409171217074 178.42583904835033, 154.14745110507224 159.99217173187094 M154.104056734199 210.89728988841432 C153.22625857752317 196.85207702876056, 153.52014517923718 182.67218771773145, 153.88406480565934 160.94259144262122" stroke="rgb(0, 0, 0)" stroke-width="1" fill="none"/></g><text x="56" y="190" fill="rgb(0, 0, 0)" text-anchor="begin" font-family="Consolas, Courier" font-size="20px">lst2</text><text x="183" y="190" fill="rgb(150, 100, 28)" text-anchor="middle" font-family="Consolas, Courier" font-size="20px">id84</text><g><path d="M153.11132930443915 235.43186947808408 C175.68396147894552 236.4524514771652, 192.6711027960333 236.97067180075084, 213.2949283044003 234.4895298043077 M154.14860002557 234.30498136493338 C171.65034874542846 234.94601935829778, 189.23284972223055 235.68641616770938, 212.1455280303928 234.82438286096163 M213.33705870741304 234.72737769461966 C211.03729429195604 248.89734084844767, 211.59489907908068 259.42605576320904, 213.0650081475528 285.00030907480243 M211.72928124382102 234.53204600680323 C212.79879455551014 255.5877032230243, 212.80854563853188 275.7231154733986, 211.86888106543827 285.5841265582825 M211.55921988691017 286.55589448449814 C192.31198120803336 284.53955384227504, 170.45096642175778 284.1360032223833, 154.93091722735082 286.56799335863167 M212.29059140804955 284.8621973784633 C189.0931115641811 285.34470707905234, 166.01190850807154 284.1730674093284, 153.83099136130923 285.46722212235136 M154.25169102122805 283.3351465793914 C155.42050766929395 270.8711706535296, 152.96703949047884 260.7808827090345, 154.07694342937336 234.88203396544867 M154.6402209979589 284.4404691917726 C153.74805696874424 267.24610159872884, 154.6774445946469 249.7258531815611, 154.65860515303746 234.95379939879697" stroke="rgb(0, 0, 0)" stroke-width="1" fill="none"/></g><text x="56" y="265" fill="rgb(0, 0, 0)" text-anchor="begin" font-family="Consolas, Courier" font-size="20px">p</text><text x="183" y="265" fill="rgb(150, 100, 28)" text-anchor="middle" font-family="Consolas, Courier" font-size="20px">id99</text><g><path d="M153.78129065422132 308.26172702607766 C173.64431029721072 309.96232611072355, 195.93837140153866 309.3569629092426, 211.07229162927223 309.56486291065926 M154.6923764544163 310.1597703146238 C169.03176282047122 309.560823455202, 183.91368742434707 310.0856696499797, 211.94156910364654 310.5666825682422 M213.22178619100546 308.3489914465423 C210.86867745049926 326.4245283009227, 211.28570864978403 343.0061516023834, 212.44878039692193 361.52822496584326 M211.5290845740572 310.580202644228 C212.3074907038526 327.4708976510947, 211.3029653888756 344.722965796336, 211.9202664416428 359.7710099683221 M213.5203017931832 360.71303506732573 C196.83568729842693 359.1497582740496, 186.22483712830552 361.9824298313605, 153.50400027474456 360.87265164462605 M212.34598566273795 359.5179991630446 C198.91542083962997 358.6934825978297, 185.25524553414095 358.68734170775923, 154.33052787967216 360.25663235657476 M154.3574806576194 358.86564393697313 C152.18947844190438 345.6651928301562, 155.48749546248922 332.2291684488392, 153.1663913309428 308.0332494052936 M153.78696099351947 359.75774201297037 C153.11315469653988 346.7261521855406, 154.84381337647966 333.71052540304566, 153.51470490744506 309.5625597029059" stroke="rgb(0, 0, 0)" stroke-width="1" fill="none"/></g><text x="56" y="340" fill="rgb(0, 0, 0)" text-anchor="begin" font-family="Consolas, Courier" font-size="20px">d</text><text x="183" y="340" fill="rgb(150, 100, 28)" text-anchor="middle" font-family="Consolas, Courier" font-size="20px">id10</text><g><path d="M152.66358488125204 385.5055714950563 C172.40154050813365 383.5279351092936, 187.65449879401842 385.7882147528257, 213.76572732537016 384.4832779884985 M154.8238046362726 385.76465711239865 C167.81510302223694 386.0806153537378, 183.24693430854919 385.02823669884253, 211.1740283270288 384.6100440460222 M210.0205743378078 385.06643452460264 C211.15453068170913 396.3304862957927, 212.18357777833873 407.0406257571332, 211.38965187843021 435.75349283092936 M212.62419416206683 385.94422938147585 C212.13524577550416 397.20772066973217, 212.81175123180736 411.2267954313244, 212.58809755428547 434.118093080943 M211.36382910126704 434.91409118990555 C190.6995616029208 434.1753459694747, 171.5555812259384 433.6318047712107, 155.70043395096144 436.4962146143672 M212.32523032333984 434.0890884177545 C190.2317424326196 435.47195956312015, 167.79872022019714 434.8857912114074, 154.98235776077746 435.58408562031997 M154.23130383039117 436.09109904903795 C156.19947126806403 419.6797036712296, 154.16229921928286 401.8229324908658, 154.91600224336386 386.69775696379673 M154.34890446719473 435.52675696517963 C154.68905623934293 422.3975178523433, 153.53929469013187 407.75969306510314, 153.16087233749593 384.27944662922056" stroke="rgb(0, 0, 0)" stroke-width="1" fill="none"/></g><text x="56" y="415" fill="rgb(0, 0, 0)" text-anchor="begin" font-family="Consolas, Courier" font-size="20px">t</text><text x="183" y="415" fill="rgb(150, 100, 28)" text-anchor="middle" font-family="Consolas, Courier" font-size="20px">id11</text><g><path d="M29.070741004404933 10.103239389246937 C65.87373403044238 8.63893785856468, 101.90252575368037 12.202956465629175, 135.2350700380987 8.498123148122895 M30.926858819943728 9.268614622759092 C55.2436342073126 10.801794198336042, 79.50966313739927 11.457791073465803, 136.14128222121724 9.24126121455532 M135.66803900592998 11.429465053950917 C135.6284916326493 30.679331695771303, 137.94646642803724 49.88019044459488, 138.6917270073169 59.37350766859232 M137.69790288422888 9.989721656544218 C136.33150793958086 22.023660210756827, 136.816482273064 34.02680544688437, 136.08104417744866 60.91218222266409 M138.6347172496883 59.21432706184528 C97.45814398520304 59.435285834803, 55.145748073108976 59.87194915864823, 29.69611450687205 61.33785851433208 M137.28806041379215 60.64827873340628 C107.49174172249542 59.5572604290351, 80.02423303949804 59.88242224635666, 30.11432896236861 60.12051631402065 M31.782326116471857 59.846448286676655 C30.37082086555781 42.425231328164365, 32.48580013420466 26.628191621916084, 32.92624330536597 8.304144776895342 M31.717644838446997 59.882078251617976 C31.747052089614613 47.980585984707105, 31.303295933969626 36.85808795322372, 30.821276887693635 9.950436191687857" stroke="rgb(0, 0, 0)" stroke-width="1" fill="none"/></g><text x="84" y="40" fill="rgb(0, 0, 0)" text-anchor="middle" font-family="Consolas, Courier" font-size="20px">__main__</text><g><path d="M29.5182540241184 458.9489011651872 C105.25846490525885 456.7547588357278, 183.2762231149525 457.18736859700095, 229.91291237467678 459.6530098858739 M30.188658140335317 460.4229820447911 C107.26478652703383 459.0586668818796, 186.19282466306464 457.60122835689253, 228.6215071016576 460.8286422964969 M227.50366540968588 461.255329296558 C229.93966221095263 530.424066419773, 228.22503264810305 599.8072037049635, 229.18976941534567 686.6426013410777 M229.6665979394464 459.20346322553496 C227.64318223779418 536.4456004753134, 228.352895112969 614.9530262500805, 229.54804994210383 684.7643944937281 M228.79002956823498 684.7775837146218 C171.51801472247138 682.1513568736382, 114.0820580346312 683.023679397996, 31.650757604961868 685.504655080257 M229.66021274843098 684.3182129824597 C172.69469392629105 683.747135778761, 118.47542964632488 683.789820833471, 31.14754787266036 685.4988584065162 M29.467993995808364 685.6704456344783 C32.67737024818894 608.2691751881399, 32.206671283240595 528.6795112556648, 29.77336354922323 458.86646729961535 M30.250687771150268 684.9599280876791 C30.847389141273478 639.4834783247594, 29.703754416172544 592.5963657651754, 31.005657984318596 459.16774922549655" stroke="rgb(0, 0, 0)" stroke-width="1" fill="none"/></g><g><path d="M152.5888705675527 534.7786591979187 C170.56834026680147 536.3845195141582, 183.13091077858587 533.5431666913687, 212.13816686995557 534.547753176803 M153.185734712926 535.0400037894785 C174.05855498664963 535.0475630776418, 192.64340701801953 534.4911134606249, 212.7116468657744 535.277040757798 M210.9455991965256 536.5171736978907 C213.45905872805739 552.5079450761575, 211.60082187306668 568.0449499460801, 213.8555767761129 583.0259685270712 M212.76553867746316 535.3452967324436 C211.69681049028384 551.100152579464, 212.4340789080219 566.4408003995046, 211.44914898800647 584.8213519619796 M212.32287457655758 584.6070206658758 C196.63832695821608 584.0099202796719, 178.7204657133288 584.0181432622292, 155.6287508280085 585.6433091332289 M212.62737861986227 585.1220470006516 C190.31314870315003 585.3637882473042, 170.41428118147607 584.2014414149352, 153.63239618742148 585.6110159667929 M152.38794950516777 584.6008729940218 C154.67140587457797 574.6471632856703, 154.59316482902548 564.182651867119, 152.85960335241185 535.6740717487085 M153.6183628909295 584.3579738047372 C155.1742196028863 568.9488027683274, 154.8352385266365 552.4573834565009, 154.56244399801258 535.0643194128099" stroke="rgb(0, 0, 0)" stroke-width="1" fill="none"/></g><text x="56" y="565" fill="rgb(0, 0, 0)" text-anchor="begin" font-family="Consolas, Courier" font-size="20px">age</text><text x="183" y="565" fill="rgb(150, 100, 28)" text-anchor="middle" font-family="Consolas, Courier" font-size="20px">id12</text><g><path d="M154.8119731290668 611.7458102696363 C167.17677532557278 611.9105810731452, 180.91228511527925 610.1117466289535, 213.9986249458035 610.0303631171964 M153.8791477794928 610.833860128785 C173.75033938968363 610.3817214234715, 192.4113505971659 611.1616875629095, 212.34033392772741 610.3534333598775 M212.03410814856298 608.2517486341101 C213.21558889256792 624.2763843623952, 211.68557553516018 638.172987830086, 212.57590087351267 660.3215109852894 M212.1435318699238 609.8483442683249 C212.53928939341407 621.1801174167404, 211.86814892559238 631.2382095602726, 211.91943109844397 660.6717532586007 M210.66974222922494 661.1018315853341 C189.77130477423353 658.2907247225804, 169.76203213947724 661.1769220499297, 155.7633533015208 661.3123019243582 M212.2984446548171 660.1250044943342 C191.66699157791044 660.5202208304885, 171.14634687656067 659.544563984909, 153.28759651294962 660.0424711766485 M154.8626032439616 661.1154535854583 C153.35222094798996 638.3670469239121, 155.1303297593426 619.2288962272777, 155.13180786966828 610.3595754947593 M154.2635729304668 660.2661247359359 C155.10310591440333 648.532020561989, 154.7603711835857 638.4826092328879, 153.14725283863496 610.8059437276405" stroke="rgb(0, 0, 0)" stroke-width="1" fill="none"/></g><text x="56" y="640" fill="rgb(0, 0, 0)" text-anchor="begin" font-family="Consolas, Courier" font-size="20px">name</text><text x="183" y="640" fill="rgb(150, 100, 28)" text-anchor="middle" font-family="Consolas, Courier" font-size="20px">id17</text><text x="61" y="490" fill="rgb(150, 100, 28)" text-anchor="middle" font-family="Consolas, Courier" font-size="20px">id99</text><text x="188" y="490" fill="rgb(27, 14, 139)" text-anchor="middle" font-family="Consolas, Courier" font-size="20px">Person</text><g><path d="M29.50765742778706 458.8068847857751 C45.24144907036043 459.26151443425204, 58.16108822133046 462.2040561465063, 89.03635036626935 460.6311246233307 M31.362765025242602 459.19075286701786 C44.20460582958117 460.4268472824225, 58.50095121268694 460.9404940345373, 90.33735232648317 460.11744843394956 M89.5383714792835 458.08490588387764 C90.1077072977814 474.6164788503733, 91.55802477312068 488.0222321795389, 91.1806025541647 508.54182413070527 M90.42158118436254 460.6473112940218 C90.60068143547976 479.62543503286344, 90.66211813743719 499.1646949430611, 90.77987152300028 510.101833298709 M92.49294067318603 508.0909820830286 C76.49804774316604 510.6982393688493, 62.85707995385644 511.3798459244195, 30.251066828587533 511.53624891813814 M90.17854048279378 509.4177888469682 C74.09258105859038 509.8144913684102, 55.667203556650975 509.0556674633524, 30.483431935579606 510.03833141603326 M31.07047997099397 510.2875695199806 C30.766401021288214 492.5526474838528, 32.3570591924318 473.60843266815044, 32.961090366653664 460.76451535560994 M30.427337978967312 510.91803732422517 C31.439950349893063 492.30317243104446, 32.439254364715794 473.9626996621873, 31.28403767535801 460.67981134670003" stroke="rgb(0, 0, 0)" stroke-width="1" fill="none"/></g><g><path d="M146.76791565018155 460.8609119525171 C173.10389581559923 459.4187369800264, 197.70964582613595 459.89923807042624, 230.0139838358269 461.1472852903409 M147.43464932546507 460.30513235223543 C169.2314396155887 459.7937117292654, 192.19238054551394 459.6034919117585, 228.669765051652 459.73818695803857 M227.75459444965966 461.13363881218805 C229.93503364435006 477.9133589264931, 227.60588850154363 499.9966566714356, 228.8074815916055 510.4851837573689 M229.6300534043428 460.381499925089 C229.84922718226062 475.06949358882434, 229.56477207845325 488.20977390132305, 229.31148682483433 510.66520500311515 M230.85090263705067 510.7298250863573 C203.26806765527436 508.2688180691386, 175.14363159663424 509.4123217205788, 148.3913110525158 511.38919990856414 M228.55101071302312 510.22271369745044 C201.45842744415754 510.1992378476793, 175.16943789465904 509.6396998585072, 147.97745009523578 509.4321687992837 M147.44860080391538 511.87777952261126 C147.56833294611857 492.9325395632366, 145.2134236143292 477.39964040261435, 145.74858966586044 459.51827626777975 M146.70230099040174 510.5360009066153 C147.13204925836465 489.92606492745944, 145.70581459028688 470.9786035003974, 147.38336430664194 460.83612431661396" stroke="rgb(0, 0, 0)" stroke-width="1" fill="none"/></g><g><path d="M310.08380773851184 100.92872802471787 C323.0381290673379 99.57559240316954, 334.8590985708495 100.24976345785318, 361.0768414598673 99.03795870457571 M309.088889511009 100.25062643945535 C328.30615063981986 100.4983953027416, 345.9093863139297 99.12492651985058, 359.0547296827535 100.2960790640429 M361.38053741621735 101.30064414224721 C359.97993468281635 113.88365685193466, 360.74366527419363 129.24906664972443, 360.4068373624904 148.1614863686403 M360.60939011294244 100.84177791776345 C361.0601978257605 118.59634354335239, 360.92623256909144 137.71893682237874, 359.94776324750126 149.1420184380263 M358.3517086400718 150.72542081803803 C347.6015382887211 151.28965540431827, 330.1039242764766 149.6102638694186, 311.63623633424305 148.43434784870396 M359.995182023911 149.3219849710453 C342.5399974975063 150.19881812276742, 327.5082588234317 150.13076156322296, 309.1076546371652 149.90698860891143 M308.24962281525666 151.31739892487346 C310.58535409824 140.54349884387292, 308.2101823847872 128.80248418343032, 308.7661159159039 98.22744831253097 M309.710373925426 150.78555908276968 C309.27184794824495 132.80539185456797, 309.64634873097856 114.1764845404931, 310.5272377449705 100.7353802986174" stroke="rgb(0, 0, 0)" stroke-width="1" fill="none"/></g><text x="337" y="130" fill="rgb(150, 100, 28)" text-anchor="middle" font-family="Consolas, Courier" font-size="20px">idx</text><g><path d="M310.2447051564562 173.73946633721027 C327.59780633198545 174.33321400608608, 340.089131560219 175.62818495809717, 361.2779952097141 173.4273224048008 M309.8278268915107 175.75681027311683 C327.44729146784056 175.62156114639365, 345.416889990969 174.3190930484675, 360.82847438277963 175.92100818279891 M360.29969581856096 175.27766372350803 C360.885890227819 188.98186042383298, 359.6018112451644 205.1284616215364, 358.5369834811839 223.1119303178713 M360.97512560610653 175.80324684666778 C359.1675860774386 186.38196288665586, 360.74793726184333 197.32236578829608, 359.0626946440107 224.24381034088796 M361.79790700552275 223.1822249371635 C348.96864171087077 225.55340985218496, 337.89963070836126 225.47338157106222, 309.440839620146 223.84703921744722 M359.5145246622402 225.42298650708227 C341.04419699882243 224.50069738749957, 322.521531022541 224.46464334335124, 309.9979361780268 225.18805874967595 M309.1833224278458 223.46291320789496 C311.46628951670476 208.1337635974595, 309.290569603727 187.72878163864198, 308.0613179875789 175.81799076119475 M309.12833087117804 225.96154837768694 C310.9267191195363 210.19664778873312, 309.8194167343996 194.32119915083268, 309.3533476483371 175.20052759796627" stroke="rgb(0, 0, 0)" stroke-width="1" fill="none"/></g><text x="337" y="205" fill="rgb(150, 100, 28)" text-anchor="middle" font-family="Consolas, Courier" font-size="20px">idy</text><g><path d="M308.03175839208535 249.49001102854734 C322.0861181385476 248.29258807860364, 331.12352755007106 248.34263700985855, 359.82819565230767 248.5756418523623 M309.3329746170422 250.72822780812862 C328.5790053004527 250.40417277410728, 348.8056698370368 250.45779976807373, 360.4119627020876 250.8021566321467 M358.72436303479947 248.90114328902365 C360.49044105615616 267.7914954173189, 358.8400448726471 288.2882098234214, 358.94207108152233 301.3481749849205 M360.27661899881736 250.37841387164812 C360.2007516579508 261.359853313203, 359.48025119662566 272.5149507227583, 359.8827655674718 299.357441989408 M359.58115667559997 300.68338021329953 C340.75757863573784 301.89594879071007, 321.91724108970266 300.4314135535112, 310.6975971369455 300.3642448048052 M359.1445263829227 299.28712681322247 C345.603428914918 299.7077089965254, 332.44103523073363 299.24048802252895, 309.73211699503844 299.6263945930407 M308.46456904374384 298.74836270638554 C311.1052290946634 286.6269905785443, 308.08275215458673 270.89359164498944, 308.56671618005845 249.7901752057262 M309.78696087713513 300.957752919555 C309.60292609012055 284.9779148314234, 311.0998296552142 268.7118413782088, 310.5262184549383 250.0353229696741" stroke="rgb(0, 0, 0)" stroke-width="1" fill="none"/></g><text x="337" y="280" fill="rgb(150, 100, 28)" text-anchor="middle" font-family="Consolas, Courier" font-size="20px">idz</text><text x="391" y="130" fill="rgb(27, 14, 139)" text-anchor="middle" font-family="Consolas, Courier" font-size="20px">:</text><g><path d="M411.9716085102653 99.0028949859828 C429.9242053826141 101.32205353130709, 449.788127928007 101.65453187390203, 472.96915268380303 98.32549194567186 M410.345016840201 99.74125310078911 C425.18018404271106 100.51021430505213, 438.96331343178036 99.07620259867282, 470.1473216944479 100.9488312683825 M472.96487240126703 99.2703706577813 C469.5684113615646 112.49501964623707, 470.28069086159024 123.94982030021612, 470.51927877662473 149.63384414799373 M471.3693844467535 99.53075504208206 C469.922272818194 118.57576172780566, 470.7232518917148 137.3299952570797, 470.12667812323673 150.83313154423413 M470.90229504669475 149.22383803951098 C455.7689866411515 151.24236135421376, 440.1242416913965 149.5145399858443, 410.68393599798895 151.69546262454543 M470.0143649879022 149.38130861936398 C450.9460226014519 150.85832683880702, 429.9213110350628 150.03199996644952, 411.70500446960784 150.25473330988225 M412.78130331980464 150.53720083866875 C411.9674239967794 131.6394244116566, 411.5549144134605 118.12993063349066, 411.819529474109 98.53064891268002 M410.3962240539811 149.53989191422866 C411.6083775361166 139.8524893131024, 409.80105689326393 129.02958941446906, 411.4504980068812 99.58638235832596" stroke="rgb(0, 0, 0)" stroke-width="1" fill="none"/></g><text x="441" y="130" fill="rgb(150, 100, 28)" text-anchor="middle" font-family="Consolas, Courier" font-size="20px">id81</text><text x="391" y="205" fill="rgb(27, 14, 139)" text-anchor="middle" font-family="Consolas, Courier" font-size="20px">:</text><g><path d="M411.2379779453501 175.26427260655643 C427.2330785843861 174.3149516315611, 439.35375952295595 176.27402734080084, 481.9272956757933 173.04419366376783 M410.227423257855 175.8912848624304 C433.3581674614331 175.97972672880596, 455.1168470174462 175.5442815747897, 482.7785012909949 174.1630177310773 M481.74617447211534 174.15763338302366 C481.2540821732382 189.79586177164666, 481.20180463169373 206.7012073686192, 482.3905857599776 226.39328404400703 M483.95373963299886 174.62639240126083 C483.64517778586946 193.53266948704777, 482.6634089043884 211.3740759285963, 482.685592608215 225.53161365356246 M481.28330997330556 224.3048807877837 C465.93145137654426 224.02179344506249, 447.40344004655697 224.32735683918781, 410.3174964259948 224.92126671896744 M483.76624264169055 224.93829796374732 C456.21653105532556 224.7665260035373, 428.0675719819118 225.6418323925595, 410.77823019365934 225.3889589366531 M410.6933952116276 223.13563225174357 C411.60016138186637 208.59511865467707, 410.64216657245794 190.50359921645298, 410.77736022289724 173.66675222288248 M411.8798375434611 225.9973461579152 C411.04972722838886 210.43406683166913, 410.87985218157235 195.37013671157038, 410.0410568232629 174.3709580011122" stroke="rgb(0, 0, 0)" stroke-width="1" fill="none"/></g><text x="447" y="205" fill="rgb(150, 100, 28)" text-anchor="middle" font-family="Consolas, Courier" font-size="20px">id100</text><text x="391" y="280" fill="rgb(27, 14, 139)" text-anchor="middle" font-family="Consolas, Courier" font-size="20px">:</text><g><path d="M411.73149643426615 250.0148583188131 C427.8466099206329 251.26283501978372, 441.3463114147489 250.75940975182326, 484.3988423159391 248.59389947782716 M410.1302816002841 250.2371953323225 C434.4794895492608 249.6013319177913, 458.2915335926229 248.8628354982253, 482.197651512769 250.41579878615548 M482.5580962087829 251.28520337575117 C483.4493299438223 261.2516145034771, 483.8660941595136 274.03524097099694, 482.2991479395776 301.98944425341193 M483.14480365595534 250.78750911294853 C483.15825184767596 263.9172521428829, 484.32376517759064 275.6129770202919, 482.48292778605116 299.3450575355749 M484.6168174627239 299.79556383777157 C457.67484080307634 301.2904874575831, 432.22527542619343 302.1654508126818, 410.3397462175318 299.69885769769076 M483.5004648167857 299.1296158292409 C454.00651858351733 300.9047083968009, 424.7703259735253 299.86543652183536, 411.8054496413927 300.0707608448201 M409.7783113794102 301.4556904301926 C410.1637869808982 279.598481068504, 411.1218306148659 264.6392334962458, 411.742496872908 250.60372347330707 M411.03199271531867 299.33298141948035 C410.91955924558516 288.39891257962506, 412.19677499291566 276.5026527052752, 411.41493786592514 249.3992605811178" stroke="rgb(0, 0, 0)" stroke-width="1" fill="none"/></g><text x="447" y="280" fill="rgb(150, 100, 28)" text-anchor="middle" font-family="Consolas, Courier" font-size="20px">id121</text><g><path d="M285.73999791452013 26.449515196556693 C342.1228655778538 22.38431164568711, 403.05562480324204 23.453225557802252, 498.05167896036966 23.916913298750593 M285.7267195201422 24.696596432537415 C352.7326967294495 24.35476064703382, 420.03309298523686 23.541703265232513, 497.0232252127747 24.472662115645125 M495.6692614336659 24.19456395289908 C495.3237893642958 87.34812099240816, 496.51100632886227 149.29639976780123, 497.36586367719934 324.7104210172033 M496.58691950418785 24.937417980717346 C498.35336410759965 104.5167613100931, 499.31353969908105 185.18535057372134, 496.6346095286598 324.2701413642772 M496.6068453736842 325.8140335633697 C451.56808755699797 326.01910684751874, 409.12202610480233 326.4203298984335, 286.5641313482695 326.21996603526554 M496.67577320291366 324.78955400547386 C426.3142708577356 324.13075420280484, 357.67123198643225 324.03526508816026, 284.57847528407984 324.7376900934093 M284.64334330257793 325.55370294264424 C283.8391998208926 235.97824391639102, 286.0003745095387 148.72570623448274, 285.59282597358134 26.073721462400574 M284.8225073264496 325.02304183933154 C286.59042001862906 208.4058058726873, 286.689097890991 93.11852123324898, 285.0176316850731 25.062502148015138" stroke="rgb(0, 0, 0)" stroke-width="1" fill="none"/></g><text x="315" y="55" fill="rgb(150, 100, 28)" text-anchor="middle" font-family="Consolas, Courier" font-size="20px">id10</text><text x="467" y="55" fill="rgb(27, 14, 139)" text-anchor="middle" font-family="Consolas, Courier" font-size="20px">dict</text><g><path d="M286.7402440335944 24.047155785583936 C305.76737898645155 25.255510666068748, 325.01496023653556 23.717049481042658, 346.91467876310696 23.630126938633197 M284.6293187732795 24.129014826796002 C302.5869157737028 26.20690445749255, 320.4891502852715 25.52489843313559, 344.7371736824226 24.927196896524606 M345.0673166110697 23.238437413974523 C344.21828116448603 41.041590480882434, 346.31051785182405 53.373167401008146, 345.3851930083558 73.29142452446158 M344.0854090653541 24.008509254179756 C346.3090283325537 38.464283670070245, 345.95348699521554 52.56782302662007, 345.4313437713915 75.22043102528833 M346.2318980559212 76.7237944444162 C333.633554205427 74.06435076949043, 319.22178975598933 76.29645878740021, 283.72130291043425 75.86435038209206 M345.4393131210607 75.02266661080026 C324.9438011380389 74.6835678854661, 306.56211744823594 75.92646160729413, 285.8203911148175 75.96193122249625 M284.87817156627506 74.612612734534 C284.97633399938286 61.221526733082534, 285.2238368952106 43.71986427718604, 284.3177490949293 24.372430814375868 M284.89063740746724 74.72208701460858 C285.1612610609605 59.82647361919041, 284.9577759437424 43.06363898934406, 284.2097631424585 24.943697782870892" stroke="rgb(0, 0, 0)" stroke-width="1" fill="none"/></g><g><path d="M438.5286967633412 26.74251816694925 C459.1488193076539 26.524674123625104, 479.109016032179 26.321744870546773, 497.85576539393486 26.951184080962527 M437.1715093761171 25.26490813068573 C454.47368163237394 24.78568913383504, 473.39593653950925 25.132447279878804, 497.428177683319 24.93543828662251 M498.66100680699213 24.508598975686187 C496.2100012766623 44.055025137108004, 498.88128524413605 58.22077827763485, 495.5714878930513 74.90116522582372 M496.308178020077 25.980955735104462 C496.3851621116542 43.65332976087279, 497.1798723718257 63.27188414755452, 496.0265710934592 75.79729559922113 M497.05134941305977 75.44916122671192 C473.75650188108176 75.93814423535281, 447.3697470784377 72.76628822867612, 437.9902223302683 73.26367362736225 M497.88822981272585 74.25862327273819 C480.52326863696817 74.60389078467813, 463.1609447364291 74.47366120897482, 437.78204959835233 74.84956808269177 M435.25737198528714 76.61492406438745 C435.63459595184474 56.571165599891806, 436.93851059462014 39.97704113864919, 436.30678064963394 26.56140082497282 M437.2484146114281 75.44623430194179 C436.6253342779414 57.49733955979424, 436.5318335047078 39.15704500944694, 436.5770878237773 24.37371936602297" stroke="rgb(0, 0, 0)" stroke-width="1" fill="none"/></g><g><path d="M521.3817821263218 26.39232057146174 C584.8761890047464 27.05544179672556, 646.4848540689852 25.254070598214852, 802.9551102437044 24.720540961955862 M521.2701271233931 25.524455206538217 C610.834212512827 25.516735946442807, 700.9694284674977 24.486976704671985, 804.6625368200563 24.2881471732986 M803.7502243736916 23.629552244126046 C802.246745389068 58.269151399505056, 803.9483781198182 86.97433075064853, 803.4107779248374 173.68871439319935 M804.2343739075285 24.38173036805653 C804.2891936804838 59.80922439482184, 803.6129865696689 95.55974173123302, 804.0532595033587 174.29314584927565 M805.2847556673202 173.4936149763209 C724.6563671192749 174.1359057903155, 645.048098265822 174.1637463283773, 520.8553309020107 175.17551409376128 M803.9518443790623 174.41852953781145 C710.0332710111732 174.85642862786807, 615.1529833008473 174.95461893915237, 522.03149797645 174.93219131576814 M520.2029164942245 173.94382014828017 C519.4280490172944 124.04187374445179, 519.4569980304597 72.7845768871718, 521.1581625866494 23.124274686226883 M522.1119295042696 175.7713811234881 C521.835189582444 134.08493990899242, 523.0711583608474 91.55716153863666, 522.9561847764064 24.427161532566178" stroke="rgb(0, 0, 0)" stroke-width="1" fill="none"/></g><g><path d="M545.4899546441322 111.77898619918246 C570.8691271353999 110.52865404248044, 594.8700097323463 108.89625882408643, 603.8241198036836 108.84953034331039 M546.9954293136095 109.84437505289287 C565.2669702145363 108.97659126527444, 583.5706749803411 109.99061130730249, 604.8112747596288 109.40025924573267 M605.8042603298945 111.81283417958925 C603.4980406332033 126.1930039027784, 603.7725740844506 140.6130446285683, 605.3428996718745 160.83610881028358 M604.974341437173 110.24426470011514 C605.1714687936313 120.58404543569748, 605.2133453733106 130.01436246576588, 604.8808346209798 159.03038364668248 M606.2611165074662 158.17166854205811 C581.2328695126938 162.00152486728516, 561.0309586553017 159.600813913259, 545.5422977259719 158.03603192329456 M604.4827869997969 160.35025844879405 C585.150265296857 161.0059637657032, 566.1532986632042 160.12974962769223, 547.5108634997622 159.132576848387 M545.3064670510828 160.07657097830895 C546.6844509616732 144.5212509104151, 547.9132334750922 128.2628958806047, 546.1425198261524 111.38283055776637 M546.0269824078526 159.07055022608398 C546.2498231547933 150.10339871636933, 547.555321121138 140.30099381286075, 547.9566165860538 110.34118382093878" stroke="rgb(0, 0, 0)" stroke-width="1" fill="none"/></g><text x="576" y="140" fill="rgb(150, 100, 28)" text-anchor="middle" font-family="Consolas, Courier" font-size="20px">id32</text><text x="576" y="97.5" fill="rgb(0, 0, 0)" text-anchor="middle" font-family="Consolas, Courier" font-size="20px">0</text><g><path d="M603.5435900394731 111.35471376261664 C625.9782139134637 112.13420572699887, 645.1645909291142 109.19367360986763, 664.3760075229153 110.41440773706253 M605.8117050642171 109.19650545784127 C623.802174087609 111.087433007166, 641.108012190272 110.85480593352891, 663.6002901314477 109.26609354385117 M663.8507588810687 110.60085153770333 C662.7193124539344 129.96731550974636, 663.4265830324546 148.35103119680954, 664.716327574059 159.75922633881916 M663.7310983132594 110.20463094978295 C663.5123405630166 119.54853546047018, 662.0822445228059 131.30898735589108, 663.9211494961366 160.83603476903988 M661.170422127036 159.89696939700912 C640.2821182504293 160.77521027260374, 619.7227222085065 161.35468703180186, 605.5493724855113 159.23665477472792 M663.9373502959459 159.15210509863226 C646.0312205967831 161.17529181537904, 628.2384045073567 160.36255655010925, 604.113833266218 160.16467140498645 M603.9460298948196 159.58935599188035 C606.060677797553 150.36774032637555, 605.0497735804128 138.10385161121218, 606.9134699684828 108.1980138734087 M605.6228589139636 160.51580217304675 C605.1885075776357 144.88220555839882, 605.4026639409209 130.8857540270602, 605.8735169396243 109.11807421384074" stroke="rgb(0, 0, 0)" stroke-width="1" fill="none"/></g><text x="634" y="140" fill="rgb(150, 100, 28)" text-anchor="middle" font-family="Consolas, Courier" font-size="20px">id10</text><text x="634" y="97.5" fill="rgb(0, 0, 0)" text-anchor="middle" font-family="Consolas, Courier" font-size="20px">1</text><g><path d="M661.379877245255 110.28045691015576 C681.8868749121964 110.11843874200537, 704.804719570215 109.07725043274183, 721.2798645252708 110.15496453277099 M662.4109357199451 110.45585550463778 C682.4754711008567 109.90787531891027, 700.0418395142976 111.42434294895799, 720.7518179306865 110.97396168305171 M721.2235256960836 108.11859321382002 C719.2350131617999 121.0512036075881, 720.8745823987938 135.62827595198615, 719.4342317064579 158.11566428478403 M721.4968549987128 110.17102431453574 C720.2170984512808 127.99759926753582, 720.8133125208691 147.1706918525026, 721.9810135486973 160.34617966640616 M721.5522694885238 158.19320992607857 C704.3872417399784 159.5503308169889, 688.4813974470474 161.04677188895718, 661.9752172963452 160.77452246985325 M721.2213268002519 160.11356477656724 C705.6812574814346 160.38952678299478, 691.5322323972891 160.42026239857114, 663.6478341849395 160.77173134410427 M663.4163980390833 158.92997501279538 C664.2308646540866 145.3002607138737, 664.3556375935997 129.52472341286062, 661.9855220765334 109.28737260717908 M662.2447565750223 159.1514682593866 C662.5815165393934 141.52857285097298, 663.4968373910732 123.115914391804, 662.9271226872297 109.29667556522627" stroke="rgb(0, 0, 0)" stroke-width="1" fill="none"/></g><text x="692" y="140" fill="rgb(150, 100, 28)" text-anchor="middle" font-family="Consolas, Courier" font-size="20px">id90</text><text x="692" y="97.5" fill="rgb(0, 0, 0)" text-anchor="middle" font-family="Consolas, Courier" font-size="20px">2</text><g><path d="M722.9811192460897 109.04555618180727 C740.6770333163896 110.9309585553808, 757.1095389192926 109.90931658910539, 780.2239140683275 109.69983236656519 M721.751454972495 109.55585912704319 C735.4468317561472 110.05205605063722, 749.3643544907987 109.31774824791711, 778.4006603212566 109.63786252132594 M779.1213241000785 109.11165047483509 C778.4346141792004 125.55904809903085, 777.0354656962157 136.20407623301628, 779.8390519979916 160.88818986684052 M779.7658254043446 109.28053203605357 C778.2511219498417 128.36159235683584, 778.2359384947913 146.69384242433603, 779.3566149279006 159.43468285160222 M779.5279927134551 159.067115177262 C758.5623689825055 161.84101746672823, 739.3817374431896 161.3337456326296, 719.4806567821792 160.9648463682565 M779.8215140442211 159.51760458100682 C761.4550928194323 159.87212553975047, 743.1671977609354 160.1330879761388, 720.3914645854707 159.5271516715243 M719.7591397268559 158.08399132846762 C719.1221999519308 144.31925275953242, 720.1950208106621 130.8777685676442, 719.0752778427866 111.18272815285184 M721.4734685374286 160.72167102194766 C721.8875861655298 140.27683859582163, 720.4590228091445 121.0888835544195, 720.4586819357287 109.02513510255888" stroke="rgb(0, 0, 0)" stroke-width="1" fill="none"/></g><text x="750" y="140" fill="rgb(150, 100, 28)" text-anchor="middle" font-family="Consolas, Courier" font-size="20px">id57</text><text x="750" y="97.5" fill="rgb(0, 0, 0)" text-anchor="middle" font-family="Consolas, Courier" font-size="20px">3</text><text x="552" y="55" fill="rgb(150, 100, 28)" text-anchor="middle" font-family="Consolas, Courier" font-size="20px">id84</text><text x="774" y="55" fill="rgb(27, 14, 139)" text-anchor="middle" font-family="Consolas, Courier" font-size="20px">list</text><g><path d="M520.0690718416021 26.75240148578197 C543.3063614085453 26.57026045904957, 565.8800357048524 25.985955347097157, 583.9422901757963 24.58250920399092 M521.352662874042 25.46736879632695 C544.6306887131404 25.443568981740906, 569.0010063540014 25.142646020695363, 582.8447608870791 24.282605814708443 M580.498057541806 25.6668702150213 C582.0598831501885 44.07901953176984, 583.4437400306512 60.62891689103128, 582.4412932651634 74.35760478564133 M581.3679861376983 25.914722768444395 C580.6438117948039 39.271861792591984, 580.8972051005513 53.09806917166288, 581.2686924924367 75.17192107576919 M580.9006632301822 74.94396571577522 C557.0731064003187 75.8253912573322, 537.4082161322532 73.76091504372361, 521.3811081644006 76.68784315098921 M582.8083059914526 74.48228446273889 C558.7101766228834 75.24681233062316, 534.5231177114158 74.23573148169595, 522.1115065927976 74.1646601512196 M521.3711255801982 74.50966599351933 C523.098223973222 60.89705186700831, 521.224602310776 41.952892904588964, 522.4439711160132 23.8063910016038 M522.1224942387882 74.72664847770614 C520.7348487147146 61.961793564059704, 520.7820821387126 50.290625459210894, 522.8380738773113 25.621408313370257" stroke="rgb(0, 0, 0)" stroke-width="1" fill="none"/></g><g><path d="M744.3824261539347 24.594496429517033 C764.4484183868328 25.086200329201457, 786.8406888333166 23.653880194708158, 802.1822935665358 24.416675753743487 M743.7831990748663 24.34511136361274 C756.4934394677482 24.309069525108413, 768.4716030069412 24.310728635620652, 803.4980549550503 24.00254666309103 M805.935615320373 23.333567291227308 C804.4260276648952 41.36905215102942, 803.7728639899663 58.02768181211201, 802.9851090608194 73.19776641960541 M804.707682161281 25.00936403374838 C803.5481256871809 43.27672815961754, 803.8055318270115 63.0642358023962, 803.2816840229146 75.59535193837145 M805.4025481263432 74.44399912421306 C782.8316056778499 74.37028755738723, 761.8029159346195 74.13065798412019, 743.3906315872497 76.75157394473999 M803.2422411529013 74.59521556455793 C781.8169512908049 74.60975513096307, 761.4778787626138 73.94159411882848, 743.4171144905476 74.76389986824532 M744.7304608318366 74.09622904675179 C742.3151916091226 60.37973129300583, 742.8604100414282 44.82285195439563, 742.2821420301607 26.728271537144703 M744.8102152892229 75.87181746911116 C744.4688226859162 57.284874342705365, 743.9102724283633 41.85545620835334, 743.2390597973063 25.461717434015938" stroke="rgb(0, 0, 0)" stroke-width="1" fill="none"/></g><g><path d="M828.0074076166804 24.095448568668203 C896.1972429982931 24.133934148801234, 961.1098646680576 26.32372797372895, 1030.0797520039255 24.245943133065524 M829.4087429960207 24.651772784979872 C878.4344225779039 25.26894110804336, 926.6368956211951 25.514252389690515, 1029.6935473897975 24.40766847147429 M1030.5170739105859 25.449926818154204 C1028.2606582455146 65.89985098937912, 1031.0231260654962 104.46930544629497, 1029.3321286530681 153.6546295532692 M1029.8018015275309 24.262836050755354 C1028.4487126155348 64.5799354395134, 1028.2025048648834 103.46392064711195, 1028.0191075345183 155.96078307567453 M1028.8524080087623 153.75078645548544 C979.5667638303576 154.531436029821, 929.0577770302729 151.72118965477935, 827.4460059083185 155.5533746948922 M1029.5998148124918 155.46694122897148 C983.1220975041937 156.07963346034845, 939.0769693074739 154.77200235468288, 829.5694949146151 155.15271613899293 M830.8017755355505 155.85867558324827 C829.2510709388298 113.11459991927536, 827.1896773448384 68.32494558774904, 827.0830712344531 26.90847436175688 M828.8197683859495 154.38911361559025 C829.0486872621202 121.92320852983357, 829.6927718515565 87.90137574683189, 828.0440342774841 24.86168292311045" stroke="rgb(0, 0, 0)" stroke-width="1" fill="none"/></g><g><path d="M822.0188668883534 19.302013400804857 C885.5658891663587 20.5275982141936, 948.295143265248 20.54913513315901, 1034.5831935514648 20.138433701204374 M822.9544933043541 19.349712090995794 C878.9630223946067 17.343381987928076, 936.3882616035878 17.583041879636376, 1035.3495971495024 18.854394370931995 M1033.0797034812665 20.97677232562053 C1035.4667629620956 70.06960485217868, 1035.9148289630575 118.72966362047538, 1034.8647848428348 160.64957752742265 M1034.424995100238 19.98650535028528 C1034.1288785919653 63.09748875440583, 1034.678007107236 109.06663233851108, 1035.6362502326413 161.72947639235815 M1036.1513856799804 160.34945080187728 C982.8401907005385 158.71569980209944, 932.7126370489033 161.65659691457262, 824.0249353061793 161.01815397535654 M1034.6553755193715 160.3850826284499 C964.4687935985061 159.38810474033383, 893.0138623538403 159.85463094671564, 823.7302987508759 161.5129511920528 M824.1257387464719 159.93450276984356 C825.8797630278426 130.39093082853552, 824.2811439615348 100.28082260662083, 824.6039107009852 19.246012465150166 M822.3450648944532 161.97629245519025 C823.0684373394223 121.17591864088789, 822.0185077514107 80.49552961650933, 822.2919952579139 19.36008620484604" stroke="rgb(0, 0, 0)" stroke-width="1" fill="none"/></g><text x="929" y="115" fill="rgb(27, 14, 139)" text-anchor="middle" font-family="Consolas, Courier" font-size="20px">1969</text><text x="859" y="55" fill="rgb(150, 100, 28)" text-anchor="middle" font-family="Consolas, Courier" font-size="20px">id19</text><text x="999" y="55" fill="rgb(27, 14, 139)" text-anchor="middle" font-family="Consolas, Courier" font-size="20px">int</text><g><path d="M830.9540984403358 24.410821579767607 C848.5689584641502 24.881017038769617, 868.4631187562162 25.454561452595815, 888.8922341910767 24.31715467574687 M828.693731164782 25.768223295769825 C843.0951253256629 25.496705818290724, 855.3936261165242 24.624486494821017, 889.3647536199717 25.867573303487912 M888.4755622603495 25.863170920409438 C890.8490163362958 39.90804977870096, 888.6106354825525 54.19076361059366, 889.9746486219047 75.14921554182796 M888.2029184961846 24.352691877298252 C889.3647090651298 37.09179864306753, 889.1594449955128 48.26854811267854, 889.2129747586463 75.30518164281743 M888.9646199915768 76.07453842745272 C876.1856795280896 73.40853272351225, 858.391604243476 75.08209387529928, 830.1912181869491 75.02724653754932 M889.5210647801894 75.74234342028802 C867.6732521969043 74.79535648545713, 848.5688808330749 75.48532575769659, 829.6858082526608 74.88270422145581 M830.4171529856889 73.27486809632921 C830.3218099279724 55.077188984067114, 829.6275528529279 37.63652711939525, 827.9629378768332 26.201243579101966 M828.948184809318 74.18723587032062 C829.5638343662011 59.12350421214374, 828.4762798785417 43.990616459807754, 829.0697669694642 24.521324532476257" stroke="rgb(0, 0, 0)" stroke-width="1" fill="none"/></g><g><path d="M969.7479910341557 25.049068103051503 C991.6671714248107 24.92420451595345, 1013.7449089801871 24.786638788616706, 1029.1635158920492 23.057309095676572 M969.276793440593 24.02758427099148 C986.5872009141007 25.961450944304, 1004.2367387032011 24.51784482853857, 1028.7830439266943 24.975516588671635 M1030.368565461177 25.381021228486414 C1030.3761562309694 43.762385583701096, 1027.294512521601 61.16258199142348, 1030.71948705387 73.30042816411745 M1028.0176439921393 24.91136990430687 C1028.7772645969183 41.54114022588074, 1028.9828290408298 59.4979257485678, 1028.2071352456583 75.01410800193183 M1028.8075344066674 74.31348921763012 C1017.1547873034433 76.70383415585201, 1004.5237501752388 73.37019200877052, 970.667778546531 76.0486021694842 M1029.1019280909566 75.90236343318573 C1014.9433409850781 75.90791664942289, 1001.6926561695453 75.59324824101485, 969.5341851065399 75.66482582117175 M967.7950141776315 75.480854091408 C967.543313498384 62.386008720389086, 968.0382857986833 44.53413623069029, 970.9901298511036 26.931611091972158 M969.4130929683636 75.79905454355136 C969.5052843397451 58.95505617807077, 969.7396227552175 43.12639858450608, 969.5394802062664 24.220994314484827" stroke="rgb(0, 0, 0)" stroke-width="1" fill="none"/></g><g><path d="M286.3711695097361 350.04632148926254 C343.32421981275763 350.87678207706, 402.03081240999956 349.16786539121705, 485.44479399149515 351.03423826373586 M285.6571039224697 349.52800469692903 C326.30139613043383 352.31695197865986, 367.7497498196913 351.78236274252384, 484.83889585750467 349.93612548137435 M484.68551735959034 350.59205916761863 C484.26792331433796 388.62197222631966, 483.82666022602046 427.37031864191476, 486.9106354638766 478.251907140716 M484.55262020287984 349.7712230936135 C484.65976415165045 387.21566852082344, 484.1337456978198 424.6343172000725, 485.7271104196098 480.34227008771273 M486.38062883707414 478.2524532688493 C416.01019305260746 481.5880678470974, 346.20178843750233 479.01195049304613, 284.5195958336766 481.1419702964899 M485.6282977528505 479.9128743199455 C405.2362708101406 480.2073980509298, 327.6663087191845 480.9101649162222, 285.3897829427915 479.41389533855454 M286.0712203477125 479.5314843716042 C285.69678926780347 438.75018076946054, 285.4463241148404 397.36300370456917, 285.7542155726495 349.1691735771244 M284.2011498717092 480.2711056388049 C284.92864405454196 433.5760719794316, 284.3723396562717 387.61524526012295, 284.66503427417496 350.08704696139705" stroke="rgb(0, 0, 0)" stroke-width="1" fill="none"/></g><g><path d="M280.4298558649082 344.98095308173697 C323.4126311018244 344.59099713180495, 372.70695748889153 343.66087448269144, 489.2556466542866 343.93309426687966 M279.21686267116957 344.28246556003256 C349.12651277613276 343.2666422356365, 421.1169508862042 342.9620385222157, 491.0250412877278 343.96202073821865 M491.2968371592217 345.1271915560795 C490.4228956672611 388.60553611983426, 490.1342282225246 432.67906400549947, 491.94529840340584 486.713324349049 M491.31494976013323 343.2309953229336 C492.09913355611104 389.20219640221325, 491.4042586608697 433.3065526174226, 491.11129682982914 486.6991076414761 M490.1441424260731 484.94022155339223 C444.30954735008635 488.3289118200018, 397.8133941671621 487.811315147662, 279.84818019282153 485.1370128081157 M491.6602757447393 486.73244286638055 C409.8151572362818 485.93332308029295, 329.0884346926251 486.9060747448562, 278.14402921850746 485.7638055447747 M278.8662148229863 487.86700511338404 C279.4262794217345 440.7969925298515, 278.7997461849417 393.041148862464, 279.843652142857 342.73912369011254 M279.7767333655752 486.74790987219427 C278.5956400811758 449.05971926253295, 278.7815402314571 410.30940179490705, 278.92096315349306 344.1413442646243" stroke="rgb(0, 0, 0)" stroke-width="1" fill="none"/></g><text x="385" y="440" fill="rgb(27, 14, 139)" text-anchor="middle" font-family="Consolas, Courier" font-size="20px">True</text><text x="315" y="380" fill="rgb(150, 100, 28)" text-anchor="middle" font-family="Consolas, Courier" font-size="20px">id32</text><text x="455" y="380" fill="rgb(27, 14, 139)" text-anchor="middle" font-family="Consolas, Courier" font-size="20px">bool</text><g><path d="M284.70949865264316 350.8004040564191 C304.7279648653141 351.1876604079555, 328.3919837369888 352.28141206124076, 345.3379581212729 351.7339103285416 M284.73348948761674 350.11107936835197 C301.776650021429 350.51827308751575, 317.47526958238035 350.15208949165293, 345.3427049138788 350.4307154630951 M346.08285163557724 351.7042447795349 C346.4692038354438 368.9065845611907, 346.9868432412807 388.4936490484915, 345.98112079493427 400.73246725424633 M344.9670290512021 349.4135767317674 C345.79623987716525 362.48815495512076, 345.139748185748 373.45912806253654, 345.55261326000993 399.67403717192434 M343.4016663536616 398.39801357641704 C322.6420055456787 402.310178605996, 298.4500883307892 400.7072284707271, 283.26846632722885 400.8890839223986 M344.63500870223976 399.6672928741425 C331.87001857065013 399.9650449185031, 320.40093577191664 398.8592398340661, 284.576731398189 399.717828526914 M285.8808398775621 401.14808546478787 C283.5781257498804 382.22564258180324, 286.4251364252398 364.09090130804816, 286.89287489622035 348.99977336675056 M284.38282231288645 400.1770434388824 C285.6655352167695 388.82238977594415, 285.5842941178515 378.521251118128, 284.49561812229814 350.8888356772533" stroke="rgb(0, 0, 0)" stroke-width="1" fill="none"/></g><g><path d="M426.5742848915286 348.9727889252712 C444.81995987581485 348.83270068740103, 463.9617616299413 349.61315831420586, 483.04937662575315 348.4360530948077 M425.99519847631933 350.1665387663114 C437.9737017997617 351.07551912507154, 449.16036981803506 350.44449657184003, 485.93852109771103 350.9134899818475 M483.5946088658592 349.69033993561976 C486.5898248259521 371.126374614728, 484.3148560563555 388.7544029235671, 486.9746465103527 401.51593986814476 M484.7544846827834 350.4162627664745 C485.43763073242917 362.99737228118437, 484.7692969188065 375.21515926071294, 485.7514492228165 399.58895628542365 M486.1046529965584 401.89321847900715 C472.10741828206636 399.56342445596243, 456.43633979088645 401.96286401085206, 425.59874111028796 401.72453864694126 M484.34375370204634 399.8256428153543 C467.9796944714982 401.0355664290162, 451.29829798023746 401.1932868876811, 425.51681486297633 399.54894339892144 M424.8829739799825 400.91415790175523 C427.0885080385005 389.69953538359977, 424.10382207633563 378.56258921058117, 423.8160032044247 348.19055027767797 M424.385187022577 399.6349664826622 C425.5891751508002 383.2245420125162, 425.23324713088203 367.78029478139905, 425.4824517870937 349.1495100976896" stroke="rgb(0, 0, 0)" stroke-width="1" fill="none"/></g><g><path d="M521.9830899143992 349.8134163934299 C577.6102164740447 352.1375186877752, 630.9582093277284 349.9301694057553, 723.1674909329023 349.7422255689656 M521.4997959771805 349.6874803914489 C571.721796267012 348.7898411406794, 621.5852375920514 349.24796694084506, 722.2315765738838 350.89221944569147 M723.9649872920096 351.17941553902114 C719.8173173251002 395.9223847031162, 723.5571022689963 441.4647461974936, 721.7043283127564 479.10685787436745 M721.7478819961207 350.9583572019906 C723.7833172946351 381.6874307762729, 723.1546857659408 415.71681539337425, 721.6783604534178 480.0461375772981 M721.9292456769371 481.32295459013466 C643.8470153785694 478.21074425292215, 564.5099876286672 479.6430591694029, 521.6781580566719 478.21451864505485 M722.2565561345489 480.2638180806835 C672.2445663851072 482.06995336029956, 623.42428340808 481.72413207709553, 521.709607597877 480.04086613359095 M522.8810672812465 480.65734825341565 C520.2014841166736 440.32032164914455, 521.3349640665297 398.74831913382843, 523.5808610659159 349.6957154100765 M522.5398033702547 479.54354709773907 C520.330065114143 429.78753431486945, 520.5006657434309 378.1964755619001, 522.2402533682916 350.92790223571" stroke="rgb(0, 0, 0)" stroke-width="1" fill="none"/></g><g><path d="M515.7439401442622 345.5124649381478 C581.0773590530589 341.46583141124506, 644.8844821380544 343.78614128083524, 726.9475706542464 342.506622543709 M516.3007433026671 343.62713100054094 C580.1920683288247 345.5110472173291, 643.8251367241796 345.44025055086945, 727.1548206632644 344.2934818893527 M727.0661352174836 342.02721838821486 C727.8577285547716 393.20846224458245, 729.9226801711574 445.128918625888, 726.3329199276717 485.91968603444394 M727.6153026662967 344.0182355527379 C727.8100206170086 392.11468726198746, 727.7409115046762 440.7981587830326, 728.5938085236218 486.1854879445128 M728.5944535483158 487.50716942925294 C674.279747790865 485.2542594773705, 624.9796483717137 486.8479143149244, 515.7542508932171 484.4776732239618 M727.9807659022184 486.51335193410733 C660.3657800424119 484.225506970693, 590.7372702287228 484.99135523020675, 516.7591328757055 485.3569567755683 M515.3868785896246 485.4787413168176 C517.6361892080315 448.563142980708, 517.6739108144753 408.9367719121527, 516.1217537508599 343.23575114095604 M516.8315157731589 485.85453249317106 C515.5671532793235 446.97610019980146, 516.7335081570914 408.94314446697996, 516.8084723581575 344.4360875163661" stroke="rgb(0, 0, 0)" stroke-width="1" fill="none"/></g><text x="622" y="440" fill="rgb(27, 14, 139)" text-anchor="middle" font-family="Consolas, Courier" font-size="20px">"David is cool"</text><text x="552" y="380" fill="rgb(150, 100, 28)" text-anchor="middle" font-family="Consolas, Courier" font-size="20px">id43</text><text x="692" y="380" fill="rgb(27, 14, 139)" text-anchor="middle" font-family="Consolas, Courier" font-size="20px">str</text><g><path d="M523.4448198321571 348.83894387861193 C536.2317305048844 351.89154639572814, 554.0913679981892 350.3425176039107, 583.5757764804071 349.50602675492894 M522.9629770747381 350.52432280537687 C535.8226960866483 350.0663562559989, 550.8259026569675 349.6041002679944, 581.7674650701152 349.7024765540322 M582.6922971653538 350.3984870153712 C581.263721254849 365.5267516528523, 582.5267543366292 382.25617055005506, 583.7008703252025 401.42754314714256 M582.2052679118192 350.24150738283134 C581.8365642540037 364.81420230718226, 582.4492252604284 378.5536677441876, 582.4392157056984 400.4179570613473 M583.9463751977604 399.3308384158316 C564.0697386390888 401.97763364479783, 547.4076454223259 400.95139492716527, 521.176033595363 399.9839694888611 M581.9088438702893 399.06878651324485 C567.2702523766067 401.3784322616527, 551.696333788752 400.2554564725057, 521.2012403920306 399.41911707958144 M520.6738789108855 399.4392245471209 C521.2382413545372 382.8158757878168, 523.0188135296738 362.8177650406261, 521.5725197029043 351.83209604500456 M522.4971130092814 400.9867283919376 C522.335164595121 381.27317444248604, 522.39755391207 361.91328164485816, 522.4983602688758 349.57165208476744" stroke="rgb(0, 0, 0)" stroke-width="1" fill="none"/></g><g><path d="M663.180338098698 350.075059489981 C674.9885890398313 350.56073291040633, 688.7989851178816 349.88956916002087, 723.9238854903062 349.9576835482436 M661.4136573694828 350.35308802208067 C683.1472794336502 349.7988279447674, 703.729735300231 351.1537112809774, 721.9104998970168 350.52006039387686 M723.8856408260979 349.7436229459293 C723.0259726086869 359.43464491277604, 720.8362483757259 369.9499244189973, 723.9821572163343 398.3949798911924 M722.8890302855986 350.97867062306494 C722.9347645926968 363.6057570533397, 721.5956233609058 376.15502473230123, 721.5726089954994 399.27920177967627 M722.643322563389 399.01685836725005 C706.3037860325844 397.70578597765103, 689.2794718272589 399.4393269149238, 660.6623945100565 399.6180525971597 M721.7733798937422 399.6363130794373 C698.2288254305871 400.0315866071482, 674.6638307949803 400.00734425307775, 662.2112618979309 399.4741340206936 M661.2910970352204 398.7590899623303 C661.366783754965 389.838030471467, 660.7167477638477 379.11594385537006, 661.2482938424174 348.0089868371045 M661.9491833912384 400.50573770901934 C661.2348382258953 380.68821614400593, 661.5727794793708 360.92380650250095, 661.2539570277888 350.4507153420474" stroke="rgb(0, 0, 0)" stroke-width="1" fill="none"/></g><g><path d="M760.2789388758741 351.3712900032125 C835.0370210506494 349.3997388642895, 909.8825315776388 349.28516006726386, 957.7714515404044 351.46631474383736 M759.3007146779846 350.2740497978947 C809.5700922056079 349.08113062629104, 860.5567780392662 349.9805291921666, 958.2239724533028 349.31665374359716 M957.8650561725894 348.4816755690626 C960.1657965756417 389.8989784409057, 959.5962982717668 434.58920912434314, 958.4600368173718 481.79472892339436 M959.9168527024598 349.21755812996105 C958.0756759377579 393.4677324069671, 956.7678251412106 436.0164247139383, 958.8016712544897 480.8828792616084 M958.3309127163285 479.1130700066072 C899.9360248801513 479.6529695288358, 841.317835665327 478.44911520653045, 758.3974282173987 479.7495297896877 M958.6110975621758 480.6334454945383 C907.5254593486644 480.3516624267221, 855.1076952765511 481.1823754413594, 758.8933237347412 479.13841094173415 M758.2959057337034 479.2301686778776 C757.0106332833698 447.3128690799465, 756.9231582310628 413.07628768501695, 759.703754238343 350.4544234758475 M759.0713043514145 479.6791103905081 C759.2567199392868 443.0009229414178, 760.8562853414032 405.2524963616799, 759.2643328037765 349.87310568103504" stroke="rgb(0, 0, 0)" stroke-width="1" fill="none"/></g><g><path d="M752.7857521999413 344.36607906639387 C800.0017726981522 341.854724841355, 849.3386725626439 342.85479547510874, 965.091211160073 345.7061625861658 M752.4054973741406 344.80084998369284 C806.7156032396117 345.4316118339376, 859.5533072468752 345.4094099195958, 964.2073327235566 344.71837074314175 M963.8413974934657 343.9186169231147 C964.5162999088766 374.39879421691387, 964.5655761782023 404.24513046930804, 966.6896395464638 487.278156122451 M964.745853019426 343.51869262771214 C965.0946660107555 395.65712255452746, 965.4747737866994 448.522568224425, 964.1068007094719 485.4933772275042 M966.2928499701453 484.81496429736126 C893.3699544055132 485.6488320887419, 823.118417551702 484.757920379745, 751.2916319790395 485.15844165300706 M964.1697245197927 485.5024379422957 C908.9502879534285 484.893061276382, 853.5776743623929 484.5478467201564, 752.6205748702976 486.4754263263376 M751.2209988700738 484.783813310723 C754.0785380655955 450.9000168278067, 752.6205591252649 421.40976667480567, 754.3039530059882 344.39136015171243 M753.1925873444053 485.1972935753793 C750.9674354866676 455.07179271620697, 751.1626297347351 423.5677343785375, 752.5949220498753 344.431950596054" stroke="rgb(0, 0, 0)" stroke-width="1" fill="none"/></g><text x="859" y="440" fill="rgb(27, 14, 139)" text-anchor="middle" font-family="Consolas, Courier" font-size="20px">"None"</text><text x="789" y="380" fill="rgb(150, 100, 28)" text-anchor="middle" font-family="Consolas, Courier" font-size="20px">id13</text><text x="929" y="380" fill="rgb(27, 14, 139)" text-anchor="middle" font-family="Consolas, Courier" font-size="20px">None</text><g><path d="M760.462680664651 348.8314147186248 C774.9671199324073 351.5042456732165, 789.9574162856692 350.25271249278694, 817.3299854798422 349.31686540860943 M759.7494107716216 350.2631209650114 C773.4116172180252 349.76538305900243, 785.2579039220903 350.7930382464964, 818.0823782767332 349.57497810537825 M819.5552353559826 351.913188924716 C821.2175144627488 364.0368661421081, 820.8490324924579 374.23069155051394, 817.9831170133062 400.595764017032 M819.5203467093014 349.3878104971747 C819.440912895629 367.9217193416661, 818.7031169006682 385.77741241464594, 819.9767232828034 399.85601528423456 M818.7617759060884 401.80428461263006 C796.2204430627853 401.58367535851124, 774.1962856221292 400.33723966846554, 759.5588721878515 400.6949818162159 M818.3923529877131 399.96754322044444 C798.9457782093209 400.56995579356686, 778.1971436372543 398.72834677221925, 759.5797989445385 400.36316738383687 M757.6566392848688 401.4278717865771 C757.5188007591977 388.5651405149626, 757.1038225170607 379.4445432081509, 759.6848783811427 349.94554347981625 M759.0774043733734 399.57154371140456 C759.3780686322066 383.3354103256511, 759.4055900693286 367.2972302369173, 759.9401811757226 349.1567712388828" stroke="rgb(0, 0, 0)" stroke-width="1" fill="none"/></g><g><path d="M899.69723657332 350.8816477776263 C915.5149167961484 349.64348369742936, 929.1841453642479 348.20998484700823, 957.0083571772109 350.9346979599704 M899.410911713884 349.9686357565875 C911.5599022294546 350.5907051731187, 923.0751876711766 350.7989101156075, 958.0350911298508 350.3954184344618 M959.6238433012808 349.4765926986617 C957.0606280317421 365.27472973888297, 959.3219743379714 380.06038886833926, 957.1282556201152 399.95731273759014 M959.0466040632929 350.1231627287026 C959.6974087710596 361.0593353744778, 958.5607964334343 372.98409889787075, 959.1280184848622 399.32895286399145 M959.4219033191378 399.9740375387869 C934.1620816768936 400.6482962877597, 914.4724722535592 398.4399429787097, 899.7541720195042 401.96652434271476 M958.4581560291737 400.9254508461357 C939.1077536801154 400.2188688097068, 920.682584226857 400.4978986542261, 898.3743898420233 400.5197292356433 M900.0268558837795 398.1832992191339 C899.9519465938272 388.83598095918194, 898.2525655195959 373.487580389454, 900.8356998421209 349.24315525215013 M899.5434468542106 400.7273625890887 C899.9897806567687 382.4550877869185, 899.6480843740733 364.1173949772, 898.3518236080198 349.97922347509365" stroke="rgb(0, 0, 0)" stroke-width="1" fill="none"/></g><g><path d="M284.199629320118 517.4181945371056 C389.99462646102245 518.7061428373834, 495.0374590908023 519.3354144982742, 565.912240961066 516.7356094753823 M285.5317047195613 516.7713416261405 C351.71663981109083 516.5157661860227, 418.9104398224951 515.7437481608724, 566.9950786528216 517.1608114623338 M567.3366326913933 517.4244679075268 C567.9489541472094 552.8832282500226, 565.9599928060624 586.0774444626621, 568.5703413733029 647.2238846023789 M566.1552379261551 516.1445872516169 C568.886399670267 557.5960027922305, 567.5442630510765 599.6134816859634, 566.3835019459273 647.1177509034479 M567.682596817454 646.2627996177923 C483.2530664362057 646.5945277948426, 397.5930178313352 645.9452585449895, 285.4455348374927 648.0838595330932 M566.957719821566 647.3324319238077 C471.21741503109325 649.43235827068, 376.3909442242905 649.7869390728919, 284.5685019444282 646.6918246889701 M283.041192807257 648.4318426781207 C282.14549137618707 599.9737876502633, 282.86422101515774 555.0632739492155, 286.85909370454544 518.0067670756985 M285.30993057661885 647.542497811313 C285.6418024931969 608.2200761819538, 285.5071785205625 568.8567068584957, 285.506388881656 516.272815107625" stroke="rgb(0, 0, 0)" stroke-width="1" fill="none"/></g><g><path d="M309.97116325578605 582.6439201102025 C331.07788736980103 581.2974181563198, 350.8796353281504 580.3012275614952, 366.91626549659975 581.1360790241171 M310.01355931087693 581.312348012519 C325.7586184304815 582.6956565619454, 342.7224591775312 583.3087073958233, 368.3995848134842 582.5545769970505 M366.7042259347995 581.7114396311716 C368.6464887651356 591.1631922112059, 366.3229140777401 603.2351890698152, 369.1491415850756 631.3008073274705 M367.3185700238294 582.9881119327435 C367.8302893834523 601.5938024045944, 369.0690490832501 618.8165162286325, 368.85015708008495 632.9820900430991 M368.8464376820883 632.530775546162 C348.44826395841955 630.7814848832508, 327.0724020689131 631.6254732036203, 309.3478677798715 630.2670870099048 M368.2023126657885 632.565161886826 C351.7725309348132 633.0153966657456, 334.0075615577214 631.3052389623336, 310.4548770973608 631.6933815466966 M308.9215581374501 630.8316962585388 C308.8689536848602 614.0762662754822, 308.8559799470586 596.9178136146386, 308.6272727049154 583.6451954818158 M310.5670217034154 632.2424115936202 C310.2194139267087 622.3679352804656, 309.8814881150658 611.8581354185674, 310.5663071634134 581.7185964656964" stroke="rgb(0, 0, 0)" stroke-width="1" fill="none"/></g><text x="339" y="612" fill="rgb(150, 100, 28)" text-anchor="middle" font-family="Consolas, Courier" font-size="20px">id19</text><g><path d="M367.79874649914075 582.7029105170934 C384.3604981966702 580.9081309485925, 397.9949915813907 580.3449160243448, 427.14990307572714 581.5335062115497 M367.0003298103483 582.8812151647235 C381.413512265154 581.0233091847206, 397.6846430845105 581.9156914292535, 426.6311699650124 582.9924659067166 M427.67761073727235 581.1020200793 C426.25173578908215 597.8614134299953, 424.84470382919375 608.6197721562186, 426.5624998380351 633.6088635720278 M426.849745345798 582.819143400013 C425.41129636266237 601.5468510963216, 426.4716275049151 620.0282319286858, 425.1616799390819 632.6693309739416 M426.0861119750971 631.4012319356742 C410.0040197194745 632.3809825552573, 390.0476937338204 631.5190826049994, 369.60250121453856 630.0214975937685 M425.7109356604872 632.5477886354159 C407.95799963402516 631.6814233953925, 388.06952005050096 631.8240179382218, 368.43654460499977 631.643886931061 M367.3383799582763 633.5690098864704 C365.70437631627203 613.4961005642782, 367.2397786510167 598.8890229958976, 366.4629539471805 581.5849975496242 M367.11475684151736 632.8262641133279 C368.3838199977758 614.4761356850127, 369.36199482141234 597.0397009041443, 368.51530715944847 581.1326100942898" stroke="rgb(0, 0, 0)" stroke-width="1" fill="none"/></g><text x="397" y="612" fill="rgb(150, 100, 28)" text-anchor="middle" font-family="Consolas, Courier" font-size="20px">id43</text><g><path d="M426.54468062685316 581.1643346505367 C444.56630866108435 580.7502241621947, 464.5417692030863 582.9929406529068, 482.3229644659303 583.9264971552775 M425.3412548227881 582.3472171373463 C440.11156328680937 581.9380909956903, 454.84550915083355 582.2817343822422, 484.2162577033583 581.2248163824283 M485.76948503621634 580.6789509646387 C485.52682401362284 593.7583911122706, 481.9503747310848 604.1965122548679, 482.30635792866394 632.5698926535682 M484.558615609858 581.3378991259451 C484.46377332684267 592.996733884352, 482.69500776696174 603.5599257944116, 483.70570000053664 631.2444048653034 M483.82060034158417 631.2737328520775 C468.92844950151215 632.4925372796037, 456.4910792315163 633.826109314073, 424.13480688383805 633.4379602650885 M483.7603769131012 632.4605806748832 C465.8098290838688 631.8865279520164, 447.9164338127326 632.3986200873546, 425.1078178298416 631.2277967331462 M425.0183955585235 631.5296203368769 C425.7144737053038 619.2772127085473, 425.4841870019964 610.027255010712, 424.36193081414626 580.8668735065182 M426.84916146967754 632.6881957898091 C424.74983076453583 613.1374711679831, 425.6784263433438 592.8929710145133, 426.26025089011233 582.9814300836659" stroke="rgb(0, 0, 0)" stroke-width="1" fill="none"/></g><text x="455" y="612" fill="rgb(150, 100, 28)" text-anchor="middle" font-family="Consolas, Courier" font-size="20px">id28</text><g><path d="M485.2381782923964 583.6968026884567 C501.67053825585936 584.2298270759502, 523.6503732115607 582.3898708036985, 543.5614261729296 581.9280538221552 M484.30853462498237 581.4372318297546 C497.8745200316844 582.3759881536002, 511.9277764534605 581.9417083507278, 541.8306587536126 582.489343013542 M543.5130254403333 580.2388465253174 C541.6994387035794 592.9967913925103, 542.1312373188523 605.6582852465496, 542.7065931706783 633.8946686809443 M542.6460839182358 581.3813323256351 C542.4629831767338 598.7292716887998, 542.3111484656347 615.4089280171534, 541.8745597852806 631.158950320467 M540.9614962871905 631.8103940552403 C530.5156013066162 633.4552969722268, 517.9774256510242 633.1258573238924, 485.4207925848081 633.8381074037225 M541.4094007298729 631.6713818855936 C523.1604419284029 632.2450997729273, 504.81415212830206 633.4013678440489, 483.47292213949237 632.0384345710464 M484.32589443497847 630.1670872480187 C482.13716372561333 619.0755235365056, 484.58717192381147 606.3847365139362, 484.0907557354269 581.2814113575125 M483.94282026995427 631.0536802568971 C484.50664469659205 617.6731214896795, 484.48789674466906 603.3706963015852, 484.40524320618897 582.0599250899568" stroke="rgb(0, 0, 0)" stroke-width="1" fill="none"/></g><text x="513" y="612" fill="rgb(150, 100, 28)" text-anchor="middle" font-family="Consolas, Courier" font-size="20px">id49</text><text x="315" y="547" fill="rgb(150, 100, 28)" text-anchor="middle" font-family="Consolas, Courier" font-size="20px">id82</text><text x="537" y="547" fill="rgb(27, 14, 139)" text-anchor="middle" font-family="Consolas, Courier" font-size="20px">list</text><g><path d="M285.3049317966362 517.283340251649 C304.9551950187426 516.6337609623391, 322.3517961309776 516.1212038489244, 343.71907589764436 517.2812504496779 M285.46000891466855 516.8920318112768 C308.485064356324 516.8167824969988, 332.0241653545034 518.1096901555803, 344.8889444892501 516.8305003440192 M343.56399411926384 518.2898393413299 C343.87183701484105 526.4829037131759, 345.2305720766698 539.4251704451335, 343.2299956569866 567.1367301203403 M344.8973173296554 516.8522151598177 C345.9710820878618 533.9061913155816, 345.4674517693769 551.6848538246537, 345.6733230090035 567.7745173302683 M345.48029675221125 567.4435594878648 C320.333972869367 568.2119989564252, 298.1978895123683 565.8679606070137, 283.93916780497136 566.9352314104669 M345.38127227839055 567.8030513896244 C328.3709326739767 567.6200822727101, 313.207117783418 566.8827938131025, 285.6239137913945 566.0257138629516 M284.21911679579387 568.8803470833479 C283.4334131053026 551.7916387641172, 285.23639221960985 536.748904239887, 286.53587774573595 515.5837558422163 M284.6276306516989 566.1196321244088 C285.43702067876865 554.1052648774473, 285.54386139066736 539.4195835032382, 284.41620649815604 516.6773450643511" stroke="rgb(0, 0, 0)" stroke-width="1" fill="none"/></g><g><path d="M506.3360446635605 518.7787787430246 C520.0046187643447 515.3531667304452, 532.6932228174913 515.2627293901977, 567.6579709696557 517.2546020129234 M507.3365068355365 517.8571432726618 C526.2651304838212 517.2754966585345, 546.0543917091078 517.6736960449587, 566.8260910225156 516.2396404440263 M565.1572160788577 517.2995299139416 C566.4346201134923 531.6003849470565, 567.6587157140328 546.6360871201731, 568.684486914029 566.4897813556028 M567.7517113560608 516.7865671586269 C565.9239279834994 531.9983535184408, 567.3853802365965 548.92648621063, 567.1747884242391 567.6989271272952 M566.392572389385 566.3077803503555 C550.9973899682902 568.0273125546545, 534.4352180965019 565.5935174728367, 506.3994537164283 568.4029144051821 M567.7869302840152 567.4452070620969 C542.3409932786823 567.283199836696, 518.6161763348954 566.8003823419792, 507.00852843489326 567.209212854365 M505.1534230467653 565.3671533081742 C508.53014854595597 552.6590466097185, 509.15366383733533 543.0868980697194, 507.57015014573795 518.6359584807764 M507.38030393731935 567.427382315449 C507.04057830827435 548.3819805250907, 506.171591828244 529.365223614654, 507.88513756477727 516.055783321231" stroke="rgb(0, 0, 0)" stroke-width="1" fill="none"/></g><g><path d="M593.5405488976219 518.1873167895179 C655.5280945505626 516.85156718081, 720.8610775778993 517.4218336677671, 791.9525457552813 518.1276768369022 M592.6553443482262 516.2023342583436 C647.1631572345515 519.6100166227982, 702.0967267096156 519.6054947607706, 791.9119475299345 517.6003143296887 M793.3509069609387 517.2257159911405 C790.628011970802 562.458754093817, 792.5308982145173 610.0855945411233, 793.6864755338705 647.4211373295842 M792.9248072184648 516.5564479380694 C790.6192761581069 561.5413893704294, 790.0284130576795 607.1159940317397, 792.4062845509338 646.2098200305865 M793.7249829387509 648.4510977643735 C742.3472913358326 646.8215422358647, 690.7360495317268 647.8885037665412, 592.5957809403473 645.4637969722899 M791.5559423002729 647.2595456761886 C731.008460069365 647.7686535780498, 668.2319742992154 646.5417749841046, 592.7529802301914 647.30389909459 M591.9456628546841 647.566243908947 C592.2592033036364 619.797596309687, 592.8900209657594 591.7748214115544, 593.5016600175957 517.4103198471186 M591.7026132177517 646.799792104514 C591.4456211406181 613.1517639626284, 593.1248423256886 577.0588007718607, 591.1397370870594 516.3381722032772" stroke="rgb(0, 0, 0)" stroke-width="1" fill="none"/></g><g><path d="M587.4194640235401 509.34977807758986 C654.1295986002857 512.7984775262812, 720.5824177437379 513.3086038092245, 798.3404559119967 510.4263029437173 M585.7636523923995 510.17650799717836 C666.6812127466641 512.0753208610279, 748.4337991600214 511.6633197739983, 797.8956763896174 510.7263849393529 M798.2549387976261 509.6569241536268 C799.264884083649 553.9517684963224, 800.072263317777 598.5217785330934, 798.4036841760615 652.4548443400702 M797.9635790513073 511.3465179550665 C797.7882559375548 552.4568489720654, 797.8782234867444 595.3339469879448, 798.0916052642718 653.9466774906732 M797.4425496348447 653.3039753928882 C715.4470991738002 651.04800214198, 633.1448398825793 649.9493890703462, 586.219308047707 653.7318901674474 M797.7256858826031 652.8946797064707 C754.0019794292022 654.1377342564267, 708.600918995974 654.1525972731547, 586.4463736194193 652.5390763043611 M585.7726061702144 654.4636651348687 C589.2172583219112 599.1403300530072, 587.5602183270004 539.5572645986382, 585.6050109719183 510.6806025535937 M586.2532542705367 653.6383656241111 C584.418139906684 604.4845252061926, 586.124040163609 556.6622017953722, 586.9502040111704 510.5363540070657" stroke="rgb(0, 0, 0)" stroke-width="1" fill="none"/></g><g><path d="M618.5720994056468 583.3125498202875 C636.9463265261306 582.2954512324133, 657.6653170891649 581.9687226057446, 674.2071329654701 583.0880970473747 M616.3104121307118 582.3319678708176 C631.9691791611376 581.4255245993517, 646.8001545664241 582.5104829591305, 674.929856769815 581.615753633943 M674.012233937899 581.2179404246906 C674.581339967428 601.1151919171566, 676.449729103917 615.7184389931206, 673.1044706336103 631.6135186359002 M674.571020532283 582.8023321473578 C675.7262098707405 591.8510318144108, 675.7712033515922 603.697582750132, 675.0848340895299 632.7783164531135 M674.7076692902455 632.6022274023815 C661.5289780996517 630.9491914693389, 644.6762439640975 631.4366968288258, 617.194651872721 631.1574366253859 M674.3989694431109 632.2390904431824 C654.5479934734957 632.0489402038363, 634.1449314185901 631.5786076912339, 617.2124024114552 632.9908006880609 M617.4007832887847 633.438739818635 C616.9866462658421 620.0343820247236, 615.8789223332352 606.8829435585249, 615.7236128054258 581.539758289856 M616.0502177827943 632.8884973183821 C616.0491917334837 620.5775939127262, 616.7736489793389 609.3614171490228, 617.7048359352417 582.0378982432022" stroke="rgb(0, 0, 0)" stroke-width="1" fill="none"/></g><text x="646" y="612" fill="rgb(150, 100, 28)" text-anchor="middle" font-family="Consolas, Courier" font-size="20px">id82</text><g><path d="M674.886865003015 581.4713220980047 C690.4905719307976 580.3870451015041, 702.7080238054684 584.1255366049293, 734.9544491158792 583.1795696166853 M674.1463700645538 581.0845738600152 C696.8353100740219 582.5509957312785, 716.8978825370781 581.8892650154137, 733.6067228089429 581.806236217212 M734.0347350377652 580.7227667223123 C730.9320171164732 592.0751468648729, 731.8716243250481 604.0795736577289, 731.3169196508446 631.0158441706135 M732.5716953284211 581.4087369746637 C732.8846621579476 592.9972777509887, 732.3996577793268 602.9010949852013, 733.3665427540027 631.3464925232373 M732.47227689785 630.363570070726 C714.5809437905306 631.6143000684934, 694.2690128357164 631.0736483894854, 673.9001985896127 631.859636514975 M732.8052306811464 631.5061864954305 C720.0786958882707 631.1523169010309, 707.6160422262959 631.7859950349854, 674.1091007160671 632.4141369279675 M673.9125330506153 630.9528233533515 C674.872532881341 613.6114831858397, 675.9766718030064 598.1682024986869, 675.380988372302 583.4415834219226 M674.9307843439611 631.1311865326962 C675.9780320777209 613.7283024522684, 674.6728078854031 593.7858346243759, 674.4527485891475 581.5933583311019" stroke="rgb(0, 0, 0)" stroke-width="1" fill="none"/></g><text x="704" y="612" fill="rgb(150, 100, 28)" text-anchor="middle" font-family="Consolas, Courier" font-size="20px">id76</text><text x="622" y="547" fill="rgb(150, 100, 28)" text-anchor="middle" font-family="Consolas, Courier" font-size="20px">id11</text><text x="757" y="547" fill="rgb(27, 14, 139)" text-anchor="middle" font-family="Consolas, Courier" font-size="20px">tuple</text><g><path d="M593.9930897098411 516.691627569845 C615.425448275083 517.0612720228391, 634.7375925059695 515.5794799932308, 653.846014777735 518.0944295040423 M591.9301908852651 516.788846786946 C610.2975429185105 517.8914461618117, 627.7314253158479 517.2395010159227, 652.5601401910258 517.2024994414716 M650.384317259758 518.2131345248883 C651.2262669924303 535.2116076294682, 652.8528060631625 548.7727021112445, 653.6657334292988 566.9146016221767 M651.4075169519565 517.248572875744 C652.10218386475 530.7851567208769, 650.9881648230978 545.2743702991047, 651.7169199283547 566.2312252711112 M653.3097018516461 565.2041167117346 C634.3400078821761 566.2464254113038, 620.6512928890594 567.68250632616, 591.7818982549245 568.9895339417433 M652.0592905171173 567.4380638011432 C638.3108991997776 568.0850212890126, 624.9140286974522 567.5473186081971, 592.0587742681774 567.9084777928963 M592.7556547281658 566.7348184376399 C592.5859467575747 550.3384012873329, 591.6899624500659 533.0652003139908, 592.509156744261 518.7628000884476 M592.791654085874 566.9851460095716 C591.4367328410814 548.2765410673449, 592.5774423174443 530.821228943696, 592.2566089583142 516.0982685946382" stroke="rgb(0, 0, 0)" stroke-width="1" fill="none"/></g><g><path d="M722.6531416805418 516.2169516912611 C737.1158803335395 518.1046470351879, 754.624552566003 517.031412876484, 792.2977516698573 515.0433120715389 M721.0093308675181 516.537149836442 C744.1317564848126 516.7414828394532, 767.3142021380617 516.3890017510425, 792.6190203354347 517.2478308233068 M791.4358708438207 517.681365013509 C790.8012401954576 532.958527840912, 792.4845106762841 550.9220826329682, 792.230888102357 566.2034623935241 M792.5840713301883 517.4171783010579 C791.547343990539 528.8936937441749, 791.6103968272678 542.2657832837625, 791.0287617351037 567.3339349939231 M791.1779766891718 568.5660894153635 C771.8803143574993 567.8804747021679, 749.038503649981 566.9659360691616, 723.032786417946 566.2664561515568 M791.0755366628196 566.4955415522985 C771.0435777368558 567.4792619493111, 748.6817980927766 567.8378084916657, 722.4161804830188 567.8420526875732 M720.4562259228215 566.8172353427162 C720.2702668882619 550.2543795304582, 720.7299651396169 538.2977337680952, 723.1266695740464 516.3272916351309 M722.949315556011 567.0704848423994 C721.217068657816 555.6438558972812, 722.4401872790389 545.4871020562342, 722.4404873325905 516.87790800823" stroke="rgb(0, 0, 0)" stroke-width="1" fill="none"/></g><g><path d="M816.1716483142997 516.2298567580023 C877.9294217370107 516.284241368683, 943.2639159576743 516.0751298505011, 1067.1993353515443 518.1374494814388 M817.2173019940235 516.2012165123324 C902.8493568205657 516.0459409835511, 989.3859105541164 515.3215208773556, 1066.2016723536547 517.1084839750678 M1064.1602892160672 517.0372638513304 C1067.0864749151474 561.148331197795, 1067.1943132061008 606.088194256879, 1065.6624595229353 647.6384689036134 M1066.8902232100627 516.4434537898071 C1068.2564697508317 567.4880115198698, 1067.9127574050165 620.7079500942225, 1066.3228727668734 646.4085224712117 M1064.7680329535378 647.9063845668858 C996.2979925915827 648.2055283122423, 923.94214381228 649.9568166732253, 816.5834441538067 647.8581458595582 M1066.0035335005368 647.2805194720302 C979.2804811962217 649.0036938434376, 893.9507299828829 648.8551760664126, 817.1445158788432 646.745644696832 M817.8854436528193 647.9923980834907 C816.9292543185832 597.7675143583418, 813.8578454499526 550.3683036910046, 815.0752198817353 516.7775077647973 M817.0177323909415 647.3885986306194 C817.2553199500337 615.6780473509971, 817.9750120066276 583.9092903950835, 816.4082352628712 517.7243046740331" stroke="rgb(0, 0, 0)" stroke-width="1" fill="none"/></g><g><path d="M840.7922333069198 581.5409793864472 C858.7774678903265 581.9747543672268, 877.9344491154236 580.3564357897598, 898.8296658453654 581.2352096793434 M842.1262224673474 582.5430028959406 C863.7062711684515 581.3798112687856, 885.2869268184983 582.402475370734, 900.9070683181279 581.1891773477341 M898.6753793464655 580.7953485676128 C901.6772818959868 596.7139226858344, 899.1059217435122 614.5054193504208, 898.8039964684033 631.2937711059595 M899.5156953162087 582.48742485181 C900.2196229592959 595.6939024286161, 899.3335424895063 608.7433132714823, 900.3882770722273 632.2103366333274 M900.3993308304014 633.124484688628 C882.4840830566211 631.8239910890244, 864.4788911145455 632.6739390406169, 843.8096011664152 633.7330602726421 M899.6165847192266 632.9667835466034 C880.6895848584701 631.8296370392184, 859.6670010519313 632.6266182021994, 841.7180954300968 632.1191674184356 M840.9405229384303 632.5774173339935 C839.9196410538268 618.6753231754151, 840.8487309199801 604.3338866390071, 843.9911492419747 582.5927679507831 M841.7830737281513 632.6406696799704 C842.0360379251256 619.1254950604551, 841.3670636900038 606.2007584710263, 841.1722872742732 582.7176293209708" stroke="rgb(0, 0, 0)" stroke-width="1" fill="none"/></g><text x="871" y="612" fill="rgb(150, 100, 28)" text-anchor="middle" font-family="Consolas, Courier" font-size="20px">id36</text><g><path d="M912.5743187455902 580.67601598712 C930.4508396236863 580.5183995543125, 949.3386123238508 582.3640610435394, 970.7639130274628 581.0987593602135 M913.0936782174434 581.0191764292789 C932.9335932897762 581.7126758403663, 952.321371121854 583.1989374246854, 970.1227092949496 582.2107000473142 M970.502344605431 582.44259299592 C970.277313009584 593.2814260969218, 970.4962496184723 600.7541426974082, 971.4572647932564 632.1683212382703 M970.1889974921183 582.1576226971838 C971.9558771154685 597.3136357898679, 971.0371347949612 610.6874868404063, 969.667854036248 632.9504679788896 M969.1409964706693 631.8140544138927 C951.6272052314592 632.4178510400449, 929.6690554105265 632.6756036815837, 912.0839716798773 633.1571989199133 M970.9691835778359 631.6858574419756 C951.3769221514386 632.5566336980112, 933.1110668056706 631.1110161397836, 912.9993081400983 632.4750349673538 M912.6208997447329 633.580725976579 C913.3727992578205 615.8764923909763, 911.6841379974684 601.0555019279615, 912.216534041856 580.040175697091 M912.3860437804592 631.6667798077755 C911.7577179703568 616.1111660397005, 913.1695649745112 600.734869903992, 912.5346222171323 581.6168934605715" stroke="rgb(0, 0, 0)" stroke-width="1" fill="none"/></g><text x="941.5" y="612" fill="rgb(150, 100, 28)" text-anchor="middle" font-family="Consolas, Courier" font-size="20px">id49</text><text x="906.25" y="612" fill="rgb(0, 0, 0)" text-anchor="middle" font-family="Consolas, Courier" font-size="20px">,</text><g><path d="M982.4018012577181 583.5787933735193 C998.639319613891 583.2435029901726, 1016.5484576254988 584.1924972003651, 1039.0524553484065 582.820442846805 M982.4697746313253 581.42449187333 C1005.959877789519 581.0789723079444, 1029.1954363493471 580.5352271639334, 1041.2533153287502 581.2186798370235 M1041.6015271756253 581.1794144424523 C1042.0249868731933 593.1573465111, 1043.1612129224618 604.6042973798413, 1041.9395548389812 632.6986708799537 M1040.4145767332993 582.489142217804 C1041.4782093273495 593.4537945574901, 1040.0635082314602 607.1372191093643, 1040.3137506928433 632.0907045326189 M1042.1080185793192 633.692531008126 C1018.6564114271321 634.0209172862229, 998.2487890039387 630.8984770375857, 984.4112507120243 633.6183920529564 M1041.0716683905905 632.248174581516 C1023.4518735147533 632.164370784318, 1006.5459546368598 631.6314613821421, 983.892484917248 632.2378168979191 M984.3472669561968 631.1918224188072 C981.5292975566691 620.4168941320021, 983.4244927060853 612.1390579948376, 983.2999300624156 582.7451823997192 M983.8894310190436 632.121050548766 C983.2607870303333 620.1880766006612, 982.4047652354701 606.9457274413592, 983.3862603127437 581.470164313585" stroke="rgb(0, 0, 0)" stroke-width="1" fill="none"/></g><text x="1012" y="612" fill="rgb(150, 100, 28)" text-anchor="middle" font-family="Consolas, Courier" font-size="20px">id64</text><text x="976.75" y="612" fill="rgb(0, 0, 0)" text-anchor="middle" font-family="Consolas, Courier" font-size="20px">,</text><text x="847" y="547" fill="rgb(150, 100, 28)" text-anchor="middle" font-family="Consolas, Courier" font-size="20px">id90</text><text x="1036" y="547" fill="rgb(27, 14, 139)" text-anchor="middle" font-family="Consolas, Courier" font-size="20px">set</text><g><path d="M818.3894427274396 515.7536529882819 C832.1797898006803 516.3255519435629, 850.9250560933343 518.4324297976899, 878.0385469153385 515.5916987092284 M817.6255284247562 516.1056434844106 C829.47045584737 517.0424588568115, 840.2243878165496 516.7964892086674, 876.6284314142601 516.2056852470419 M877.0528898348263 518.092573010763 C878.8050450168344 529.8739921538856, 875.6473525089425 545.1544083404455, 875.2998693731982 567.7794918819935 M877.1321179251659 516.5627767218921 C876.7361490353679 534.9802794699282, 876.9406505296845 551.7426415336912, 876.4530329743319 567.7349172434347 M877.3288987551811 565.3959049064542 C857.6477048355196 568.6629616249526, 838.4140758666033 568.2355938232178, 817.5338788169054 565.9492670319421 M877.7605795770639 566.5014176465806 C857.056148500883 567.1718686127039, 838.3528937428023 567.0955329637686, 817.9912178696978 567.5299359107581 M816.3977299396797 567.5970980545972 C816.9858073761276 550.2909920358, 815.872276173716 531.1102313317381, 818.4592425478008 516.2169859120062 M817.9964513443218 566.8657289309473 C816.0632211398716 553.0158628554188, 816.0542898525345 540.8982374716411, 817.5839956422864 516.123953451331" stroke="rgb(0, 0, 0)" stroke-width="1" fill="none"/></g><g><path d="M1007.7391653755244 516.4708837288612 C1019.6775037122216 518.688220685419, 1035.0274820256725 516.9864505478934, 1066.2702386916835 517.6218596926731 M1005.0533510547377 517.0139562155686 C1024.9740680948569 517.4862967023314, 1043.2688687844184 517.4269439370075, 1065.7937600696146 517.8498210789865 M1065.0129429771416 515.3766862158332 C1066.8383907374994 528.6742410207447, 1064.9367496534062 538.8743664959484, 1065.5138705816591 565.8077520292596 M1066.3405545244361 517.3964037369666 C1066.3799263218386 527.9831572744185, 1065.4469734876054 538.3209457598779, 1066.2054459673345 566.6187199951888 M1066.3042792647893 566.1325871904094 C1053.0390263074742 566.6716139126191, 1042.8043627674258 567.2899333083687, 1004.7673050877186 565.8781264121765 M1065.2216147559004 566.3029496304279 C1049.0020499712323 567.7689710259399, 1030.6342898721566 566.4787829060958, 1005.4630624507729 567.0330716941784 M1006.3260263622874 566.2342040426092 C1003.783965098508 552.8836934493322, 1006.9972054184034 540.6104150879398, 1004.5167975302154 515.643136516709 M1006.8401125362326 567.6813747556681 C1006.2513542488982 554.5085921032205, 1006.4672089082784 540.1706305828618, 1006.5200285932374 516.4059704765502" stroke="rgb(0, 0, 0)" stroke-width="1" fill="none"/></g><text x="829.5" y="612" fill="rgb(0, 0, 0)" text-anchor="middle" font-family="Consolas, Courier" font-size="20px">{</text><text x="1053.5" y="612" fill="rgb(0, 0, 0)" text-anchor="middle" font-family="Consolas, Courier" font-size="20px">}</text></svg>