<svg width="1300" height="1100" xmlns="http://www.w3.org/2000/svg"><g><path d="M26.603631523736606 199.49837273371213 C78.4156412144923 196.82645441712452, 131.41027220332313 197.58349454948197, 224.57975460934256 200.91783780312917 M24.11421639590772 199.62283940208454 C104.25313573557497 199.91944544567494, 183.04655656894732 200.24157309296214, 222.38156463261208 199.09929741903707 M222.53949998761996 200.41038142301096 C221.45662368947228 356.93959270753606, 221.8247265798069 511.83369570004083, 223.27288636822658 649.9688062039043 M223.25426071945012 200.39372947901208 C221.7213434468817 342.2710770304932, 222.15437888081902 484.31095159593036, 223.05050040571098 649.5693342303335 M223.4721088793494 648.1858557270165 C179.90367142798576 648.0746833365789, 134.83146468797915 650.4949318506314, 26.352374269552023 649.4989874202187 M223.65380209422136 649.8184451537159 C173.0551787002906 650.3523458638011, 125.73495513876495 648.8565357135282, 25.280289056234487 649.0472464587499 M24.433052473316675 649.8919176383432 C26.88463412261049 553.7176043099246, 26.648848432289316 455.383630296654, 24.657319788153146 200.6843902939572 M25.106239625059118 650.2248702059251 C25.74713396259172 535.3366448006047, 26.32386260746847 419.52615839431746, 25.469094733439412 200.11640245744684" stroke="#000" stroke-width="1" fill="none"/></g><g><path d="M148.0573342726181 274.2377448061154 C162.45751977803903 273.4514254131384, 176.65031732152167 276.64883638655255, 207.59555873930992 276.6855911592815 M148.37944255688154 275.2104029903739 C165.84390169522356 275.86651753543373, 183.24963082415587 275.2511474615283, 205.99252340371632 274.34813955588885 M204.69156433133972 275.1337438528703 C205.89983520820684 285.5122172374551, 204.87217967278522 295.4049631554625, 204.33123547945593 324.76172166572655 M205.20477332343805 274.42934450344495 C207.40091450793454 289.6693473548501, 206.2473543805889 304.1504739278843, 205.64846143896784 325.8313216873033 M206.45296776593563 326.9620792403655 C192.39709155669937 322.8902250206178, 180.3348608409492 323.50660047960724, 147.2335770540682 326.8540964050542 M206.74886609229236 325.80040113176824 C184.5114272602596 325.13377359092743, 163.76702434875645 325.43846119016547, 147.19215518073395 325.9239252244304 M146.02723449297415 324.2573130975569 C146.89085019435993 311.42762925025795, 149.4676276557329 297.12708972741893, 148.99535561477538 273.083755864844 M148.58059507923198 324.17679379895065 C147.4215080062125 313.3231135068993, 148.43025894203572 302.43160593281806, 147.89119208094846 275.74261774821395" stroke="rgb(0, 0, 0)" stroke-width="1" fill="none"/></g><text text-anchor="middle" font-family="Consolas, Courier" font-size="20" fill="rgb(0, 0, 0)" x="50" y="305">lst1</text><text fill="rgb(150, 100, 28)" text-anchor="middle" font-family="Consolas, Courier" font-size="20" x="177" y="305">id82</text><g><path d="M149.84834306343478 349.93624328676316 C160.82588076930645 350.95153451513175, 177.36089125489303 350.32117872992865, 207.95829085559166 351.16367698064767 M148.05256701651408 350.30588107512773 C171.3941009395162 350.0479839791889, 194.7423706998892 351.2089117215053, 205.58828244882665 349.9196881984672 M205.68832583721837 349.99662793258653 C205.67910041281084 368.34192982880535, 207.65407037827234 384.08994289402233, 206.29507186881145 400.18368856517856 M205.21764880124277 349.8914808096613 C205.42242788974363 362.2652590086533, 205.3312248596504 375.09243642711857, 206.2977232334587 400.0643690095187 M206.3726404788028 401.0086517573866 C188.92060096177016 398.3041597011325, 175.1810471586248 400.33613427569105, 146.66852920040526 400.8933025373505 M205.04379018287693 400.7029680087231 C191.6533174116496 400.76806506198596, 178.58987990792002 400.0027493637642, 148.99198093730953 399.77819538944186 M147.20142023739854 400.0559161740354 C147.0098280892754 383.10369780115565, 146.0800356750324 361.361671317206, 149.3755320697684 351.8943171749968 M147.88090311475528 399.5322406796898 C148.43539687845444 389.6364346132274, 146.62402849548872 378.25307965354267, 148.48850227082585 349.4911168180385" stroke="rgb(0, 0, 0)" stroke-width="1" fill="none"/></g><text text-anchor="middle" font-family="Consolas, Courier" font-size="20" fill="rgb(0, 0, 0)" x="50" y="380">lst2</text><text fill="rgb(150, 100, 28)" text-anchor="middle" font-family="Consolas, Courier" font-size="20" x="177" y="380">id84</text><g><path d="M149.00679419409448 425.1613362378694 C165.62757582019435 423.08562304240587, 179.10980091702172 425.31008293643066, 206.1321069797842 423.98157458705737 M147.17302324771597 424.1514448160143 C161.37376761306626 425.48616337098116, 173.72340062806347 423.97770950228903, 205.40452811679953 425.0197755686627 M207.02151479609117 426.70071190999545 C207.26321145755406 438.2079601209276, 206.94394462056948 448.5401240248453, 207.0295610614811 474.24201038256774 M205.21082926520143 424.1236919344968 C205.77702189149448 438.2603562925025, 206.18910014472115 450.9449241895004, 206.1867416132723 474.55627246741676 M206.28061562864147 476.83982731783146 C182.40640052750086 474.4277978111144, 161.16767430675256 477.15928988354113, 147.02183227223514 474.66687524682294 M206.99632290380742 475.0953264960202 C193.8265241509508 475.48803288185474, 182.11581457896622 474.24454829636204, 148.97945304114003 474.02516215663394 M148.32440205479608 474.6355052707077 C147.36449175220577 460.61852618640063, 148.6241436224346 441.08146069326506, 149.24196073647133 424.41067348866653 M148.22422355230083 474.3433438067196 C146.80675446026902 456.88402236275414, 148.5490524637019 437.5495265633319, 147.2218259674199 424.30674943255417" stroke="rgb(0, 0, 0)" stroke-width="1" fill="none"/></g><text text-anchor="middle" font-family="Consolas, Courier" font-size="20" fill="rgb(0, 0, 0)" x="50" y="455">p</text><text fill="rgb(150, 100, 28)" text-anchor="middle" font-family="Consolas, Courier" font-size="20" x="177" y="455">id99</text><g><path d="M147.2085683407661 501.3729901188598 C169.9966306965411 500.76952921325864, 191.24938787226625 500.3894372311769, 207.96423391531943 501.2910526984855 M148.06383725362937 499.548832153194 C160.35845903401213 499.3845512370266, 174.888342967157 500.6600756304619, 205.4946952745694 500.2007181695727 M205.64780812638085 500.5331523190393 C205.92636468570564 518.6093429767752, 207.27071499641517 537.2257817204337, 204.04435478750364 549.7510941607886 M205.17956858389732 499.8110442065971 C205.86537916971997 516.3581187657405, 205.84125089598183 531.1949672789369, 206.97867507341462 550.6674285571671 M207.67446053213092 551.0232502251846 C182.1879367093063 551.1912322251386, 162.14148598054544 551.63381749992, 148.31176274487015 549.3018928445719 M206.29224264294987 549.7118951574193 C187.32100237452613 550.02473558374, 169.637873450045 548.8997238504598, 148.55837302291678 549.3994402645789 M149.16405573730046 549.2102780361669 C147.2557144607581 536.1094653672919, 145.95202416748114 525.4377074027973, 148.93432492205574 499.1900196840305 M148.104894140159 550.5410470586866 C148.24115493227464 536.6103886293185, 146.5421925353556 524.2887172906209, 148.44347848651324 500.0424866837862" stroke="rgb(0, 0, 0)" stroke-width="1" fill="none"/></g><text text-anchor="middle" font-family="Consolas, Courier" font-size="20" fill="rgb(0, 0, 0)" x="50" y="530">d</text><text fill="rgb(150, 100, 28)" text-anchor="middle" font-family="Consolas, Courier" font-size="20" x="177" y="530">id10</text><g><path d="M147.48654582238734 574.4449307433019 C160.5301682638669 574.0506454698502, 175.40681881521175 575.2368211072366, 205.12426256792907 574.180162213088 M147.55278598706008 574.3462213504575 C168.82220553535208 574.2514447934121, 189.36725131862087 573.6161568727106, 206.01798462586294 575.0382576210843 M204.84046603608752 575.5711169067791 C203.8380133265179 593.3516380242947, 207.69152655705793 610.2987350177283, 204.06843558494845 624.3153078260518 M205.17465983804732 575.0329465824186 C205.35861563570253 588.1693718231621, 205.00140000257747 602.7318846982283, 205.89621869615374 624.8934836099055 M207.0634485364452 625.7330214795176 C193.25421047908586 623.4997171353397, 177.91096130352176 624.6567198601726, 147.6252916809184 624.4876984096204 M206.88043198732626 624.1182164986495 C184.7145548243558 625.2995126924262, 163.85665515446735 624.3890383635523, 147.761607825837 625.2161849841863 M146.49420300899055 625.2913971471081 C148.10977602052614 615.1030451526163, 146.9432601655067 606.1239316679123, 146.92798793900928 576.2836294807847 M147.82971314561416 625.9169869732879 C147.46470143609196 608.5223754629153, 148.45682224809136 592.04534582784, 148.4757291405802 575.7372735784221" stroke="rgb(0, 0, 0)" stroke-width="1" fill="none"/></g><text text-anchor="middle" font-family="Consolas, Courier" font-size="20" fill="rgb(0, 0, 0)" x="50" y="605">t</text><text fill="rgb(150, 100, 28)" text-anchor="middle" font-family="Consolas, Courier" font-size="20" x="177" y="605">id11</text><g><path d="M26.791115386738525 201.81389752632066 C46.345275512805884 201.22711645839638, 66.5935874918159 198.04748353045696, 132.34917879027103 199.80848340229858 M25.927789878974373 200.7048921032954 C48.73485176067036 199.69550559875813, 72.48643805335243 199.5970027360721, 131.8980592305627 200.85316411148247 M129.71305588695546 199.80921362699183 C129.5396258940031 214.23484359603867, 132.34189216191953 227.41447619884138, 131.25359127361008 251.62502358122978 M130.20526935221758 199.47110037081345 C131.0295932078497 213.84408233296824, 129.88982128058095 228.3169816765475, 131.46815006171224 250.41007833862622 M131.9693807456724 250.93917320939804 C96.18809395540623 249.1795503194579, 65.36159763689415 249.07312375768706, 26.47071272166633 250.2361022281121 M131.65579564148484 249.28177447944935 C92.84428943800376 248.53453531976257, 54.69728670805899 249.9045983755611, 24.504595779961285 250.44098262118922 M25.831616779289106 250.02320084047062 C25.12413649711595 234.79462577269408, 25.46827571174865 217.67523867050804, 24.31156132673458 200.6008221790165 M25.289500695942387 250.02387753451706 C25.033689289316975 233.20141894633906, 24.7284164932939 215.51631270572076, 24.93660303669363 199.02860149417074" stroke="#000" stroke-width="1" fill="none"/></g><text fill="rgb(27, 14, 139)" text-anchor="middle" font-family="Consolas, Courier" font-size="20" x="78" y="230">__main__</text><g><path d="M350.96116869476367 10.997159243551893 C420.1882052826541 8.727413200447756, 492.3632144878862 8.952756362287289, 548.5563055777745 8.724153375036343 M349.40779256964714 10.387933339050099 C406.97075409158924 7.755178267169633, 465.3687622348354 7.938869797121242, 548.2562430164396 10.444365780167782 M549.5060737220772 8.387371757883425 C546.415514833792 58.22313301567768, 545.828208320807 109.08135563874147, 547.9887278591954 234.1855847133269 M547.3722422356891 10.186623867718549 C547.6485489884274 70.81539806584173, 548.3559096236733 132.72028455065194, 548.2851878571246 235.70827727264046 M548.9556039593738 236.01921244510638 C482.19380738100904 233.7437153149948, 415.1544821158034 231.5730460403315, 349.5270747395529 233.19093913051626 M547.9650545612618 235.19779638330553 C486.5253882951791 237.12408174748563, 427.4990346639494 236.36452816140292, 349.7454672381676 235.23702439104514 M351.1681818400542 236.17387254296762 C348.9638307918931 148.17516058637082, 352.04964885305856 60.66233774856967, 349.70153909188934 9.151482456341457 M350.8495914981291 234.41288053522155 C349.39887469294587 164.07563931548253, 349.3638798927813 93.61192961460682, 349.444523762775 9.840925885777162" stroke="#000" stroke-width="1" fill="none"/></g><g><path d="M471.19889657426654 83.68927807900657 C489.1435996034762 83.51372601771283, 507.53532764996055 82.9378661941188, 530.9965465378699 85.73574721944797 M472.9510384955357 85.09388308468695 C487.0097377797843 85.46284019046333, 499.8894133227492 85.61675754328253, 531.4796977718283 85.24489280025878 M530.7542455202386 84.03309420645002 C532.4387072246698 98.3337819670664, 532.5832163590952 113.68560012882406, 531.2381632756935 136.5277145382997 M530.3526468845904 85.42843384785832 C530.5529491240201 96.85810920933046, 531.1448920086395 108.89108867073863, 531.5823339446144 134.0259810050743 M531.4533567039919 136.70796191654327 C518.741890923733 135.7976156440844, 506.35911295983533 134.68726384137753, 472.4510762088622 136.35971397010184 M530.1130504354612 134.31143476186534 C511.3410152733322 133.7400369414816, 490.5789457642124 135.3142707322234, 473.98880201949623 134.34379889482796 M473.6622484449533 133.8174745514509 C471.9312076801378 122.39119168035938, 470.7949574766744 111.51311371655902, 474.67023256267134 85.6541271989459 M473.24874175758725 135.5275315372381 C471.5837291595052 116.83964153572684, 472.296385270697 96.22532824007833, 472.6123450085386 84.91580419914126" stroke="rgb(0, 0, 0)" stroke-width="1" fill="none"/></g><text text-anchor="middle" font-family="Consolas, Courier" font-size="20" fill="rgb(27, 14, 139)" x="375" y="115">age</text><text fill="rgb(150, 100, 28)" text-anchor="middle" font-family="Consolas, Courier" font-size="20" x="502" y="115">id12</text><g><path d="M471.41169125260643 158.81538469983332 C492.34884984184805 161.03931801525326, 511.11504783686047 159.16707126837804, 530.4657811468518 161.50845381630458 M472.3740738817199 159.55119981327658 C490.5168656988127 160.04077464125416, 509.3905345293325 159.51990780253556, 531.9324652721157 160.33725496304322 M532.8486746766904 159.45087673812498 C533.0456604667594 174.11324055839754, 531.9266884305989 186.29054522350026, 530.020593961609 210.59426675818344 M531.3036030039092 160.82882429503587 C530.6507357760238 175.06714531952895, 530.5913137351774 188.0183314509008, 531.9481127229708 209.05010432852544 M532.8541525347905 211.1025895356698 C517.4693358736471 209.7926337852124, 502.1649941104639 211.9430105534461, 473.6864980449784 211.9443943689791 M530.4817595946522 209.55897896102724 C507.29676267403084 210.79786005639497, 484.51988199663606 210.848842361163, 472.5698416194447 210.1619360720048 M472.7467608962155 210.71573761388453 C475.28146679364346 189.0885366242117, 471.73921158679354 170.64138132057906, 473.9305907418301 159.55574239564885 M473.5176852228396 209.69312855084894 C473.3092150385876 197.61215035422023, 473.24302577439244 187.56998018598236, 473.0332077762943 160.11063283268325" stroke="rgb(0, 0, 0)" stroke-width="1" fill="none"/></g><text text-anchor="middle" font-family="Consolas, Courier" font-size="20" fill="rgb(27, 14, 139)" x="375" y="190">name</text><text fill="rgb(150, 100, 28)" text-anchor="middle" font-family="Consolas, Courier" font-size="20" x="502" y="190">id17</text><text fill="rgb(150, 100, 28)" text-anchor="middle" font-family="Consolas, Courier" font-size="20" x="380" y="40">id99</text><text fill="rgb(27, 14, 139)" text-anchor="middle" font-family="Consolas, Courier" font-size="20" x="513" y="40">BLANK</text><g><path d="M350.4611303564689 9.772031798842608 C369.2542417534881 9.542181252190073, 386.4644411838239 9.143598844158717, 410.75525162422724 11.433306222313057 M349.9655457652864 10.554548033281625 C364.74414329016963 10.733489006878132, 380.3476126598055 8.869723581114815, 409.1505671955804 9.17263103542174 M410.58814699524726 8.668869742236328 C408.5983658903703 25.60310793858488, 410.11055387081853 44.23796735697414, 409.2699075737926 58.42709805455006 M410.7831811009511 9.95321369784326 C409.54096731161223 23.41066581046156, 410.77126203022135 37.76789636481922, 409.6196833957897 59.80486830849726 M409.7179649088911 61.76246251917457 C393.062298432953 60.8969750492845, 373.752728261518 60.09187554485027, 350.59033667909625 58.561419527601906 M410.92016713241094 59.571387615265195 C397.4125673061507 59.62904289624821, 382.96240770007444 59.713168543554275, 350.1186970515106 59.28890288898792 M350.22020831043847 59.668274322624754 C347.64530786582253 48.27656274568127, 348.89205848714397 39.05059656110196, 350.0681656414133 11.91455083081693 M349.4067032239471 59.00309773689994 C350.56651489394255 49.1141639523426, 350.2282174274464 37.11696597576609, 350.7841424592085 9.056704687796087" stroke="#000" stroke-width="1" fill="none"/></g><g><path d="M476.48405160324836 11.839810819003368 C492.01443671309664 9.307589909453272, 508.2056423845787 9.562438943640155, 548.7874881081879 10.082770093367078 M477.38370344923123 9.610491067872832 C500.4594056029995 10.044136027005319, 521.9844863947602 9.341422034914931, 547.212117109411 9.89578640160916 M549.7949884328751 10.878645065940386 C548.3777595780098 27.02489043424248, 547.6242728126621 44.70499184783061, 546.5999922210754 58.034091257370065 M547.2285167351091 10.163588673535706 C548.1879271957911 21.263178501420303, 548.4678641093446 31.36040837802395, 547.6387986478156 59.381618555266385 M546.2088118683671 59.592935207485155 C533.8572240091023 60.95537173017145, 516.7153888023415 58.77323687228486, 477.39056370323897 60.151464757653336 M547.0945967920916 59.96615939295765 C521.0537080514965 60.21843167400486, 493.9972323708733 59.91756376652186, 478.87258641989723 60.085967059625965 M477.1038051505126 60.71186427826631 C476.9961493511753 48.6362745263094, 478.5110822813705 34.29593769927215, 479.5687533582818 10.542142916709283 M478.21492091320073 59.18582287704119 C479.3766792364734 42.19316412075021, 477.6533457069484 24.582521863252936, 477.075788801385 9.015445083332466" stroke="#000" stroke-width="1" fill="none"/></g><g><path d="M351.56332394826035 348.34979117564524 L632.4600221796353 349.7312139978133 L632.2468130522649 481.0191112165236 L350.42606965771324 478.45490898076014" stroke="none" stroke-width="0" fill="red"/><path d="M349.0962284995935 349.4370404640218 C450.393186837989 350.35775492955736, 552.0499793098066 351.5459358139818, 631.3110277189272 350.54396064451004 M350.75348180900016 350.3393514630966 C427.6641031805155 348.3557706758317, 506.5380070754557 348.2258779150568, 632.7318261099115 350.41662247943276 M630.2181613095655 348.2735809445615 C631.9121095365924 377.5104346675107, 631.7253130274528 403.26813152301656, 633.7148678564517 481.51331032965703 M632.7092714474667 350.9284226030197 C630.5099457705971 379.82480598554315, 631.0027225182253 408.5494051069594, 631.8434778530334 480.82244614956795 M633.2719609894399 478.5561320957127 C555.6566494233546 480.9657924535081, 481.4410049187167 483.42810338832294, 349.2249393300108 479.86980123161015 M632.1235720850286 480.4704373048591 C538.3797951193632 479.1865348170821, 445.08581213400623 479.6776190401825, 350.36540149015656 479.90038509810665 M348.18787500425714 479.2183941400842 C349.9717673649385 445.60070390245465, 351.4520201150597 410.55716840967455, 351.1330263853599 351.09510643873597 M349.14063533815676 479.1228126404298 C348.3603105753824 436.51118810979324, 349.44897796632785 392.13960600754507, 350.28717576156714 350.38347684477037" stroke="#000" stroke-width="1" fill="none"/></g><g><path d="M373.7084068886719 413.05333273019386 C390.68504428464513 413.49550398053384, 407.03203428699516 414.0955211380095, 434.7423610581233 415.50496346984437 M375.03569874366605 415.4098318257593 C398.0749750962803 414.96693611321433, 421.3293601971235 415.3921563863338, 432.31569963205897 414.24755230176834 M434.6299310060922 416.1435992583137 C431.58673843115406 429.99891688454596, 431.52376506119435 445.7360332473659, 431.2339933771844 465.04582844362966 M432.5723435355228 415.3026876988786 C433.6780546654255 428.6634348978406, 432.41053088829136 443.3531314761888, 433.8933501253818 464.0027507031351 M433.49528265908697 465.6550892184684 C418.8348319971856 465.50463506726254, 407.4913302940376 463.38547152853596, 373.6770537993415 463.2564464422714 M432.9113357673389 464.23428679875104 C421.9334556677721 465.3387429991294, 409.5786297332043 465.7585132994723, 375.73851868999674 464.5444456547747 M373.0291397829331 464.34431831545464 C375.2808958127695 445.84264497405553, 373.72366851267344 425.5972810489862, 376.18506066977164 415.8857535970769 M374.94717611184177 465.9762266598636 C375.42012286708723 452.25775573799956, 374.6619103166171 439.52906183309545, 375.1710619598896 415.2274290021952" stroke="rgb(0, 0, 0)" stroke-width="1" fill="none"/></g><text text-anchor="middle" font-family="Consolas, Courier" font-size="20" fill="rgb(150, 100, 28)" x="404" y="445">id19</text><g><path d="M432.10086782938663 413.29325652931294 C454.17754629842307 413.3465646379865, 478.1697023573345 416.6147815631386, 491.9822285460405 415.617602302847 M433.1589676253019 414.84499817521004 C443.97411813549326 413.715518207837, 456.32855596906563 414.20581281376127, 490.58615239596867 415.00831640739443 M492.3234685554796 415.92137161984675 C489.13114944567894 431.23883730281864, 490.69638847876286 445.2189515408298, 490.9080050075084 466.2137962553336 M490.140084446899 415.5550285607663 C490.5624456566522 432.73328124747724, 490.39543380334305 449.86350296538376, 490.91992179591034 464.7434940002588 M490.989586927428 465.7469661021948 C470.9309721908896 464.87978902896714, 446.0459454530665 464.7074028492436, 434.79800487111186 466.91407891245495 M490.69051765118166 465.26705172795795 C472.45713205746534 464.6764087697533, 452.33520342062195 464.6701200463073, 432.10873926153056 464.90047272896703 M434.63921779152776 466.269967968765 C434.1137972319473 450.7188035728648, 431.3447572902462 434.0385874746236, 431.7265479528638 416.9783795665131 M433.4358171300713 464.13191253136654 C431.7346135623324 453.74970743907556, 433.14423385210637 444.51850981440117, 432.4298255505059 414.8772899592613" stroke="rgb(0, 0, 0)" stroke-width="1" fill="none"/></g><text text-anchor="middle" font-family="Consolas, Courier" font-size="20" fill="rgb(150, 100, 28)" x="462" y="445">id43</text><g><path d="M490.06421326670625 415.98254055019373 C504.7773953601822 413.81723391750677, 515.0794638757965 414.531877158961, 549.7995984534883 415.9021674662827 M490.4266506613282 414.1043380484359 C502.5286604454744 414.54206382699, 515.8092236346565 414.9023610675238, 548.9799320528122 415.0335132261591 M547.4830400183486 416.72588981819024 C550.6325462184175 427.21181331100775, 549.643384573182 437.28838909443067, 549.9510495600643 465.98693623989885 M548.2763943933415 414.99617230491754 C548.2422105109338 428.936645837153, 549.5268079809484 441.0138939962857, 549.0709867422511 464.3578734701574 M549.2802106753286 463.38238529358927 C534.5773095993577 465.58618809785185, 521.3103633429171 464.61756888339266, 492.7001917481398 466.699762521654 M548.1243341815102 464.677486732654 C530.9256403886828 464.06058824181537, 513.915887069631 465.2538837008003, 490.76348744710526 464.7175767116272 M489.24389093595266 463.0084150054619 C490.76482928665564 449.9038837665745, 491.90124620776396 430.75677909555594, 492.2033176589663 415.921661133304 M490.9620729486984 465.45054503409034 C490.4293295100573 452.4067266776576, 491.46103578677025 440.58131547787457, 491.82712946744465 414.4445877060738" stroke="rgb(0, 0, 0)" stroke-width="1" fill="none"/></g><text text-anchor="middle" font-family="Consolas, Courier" font-size="20" fill="rgb(150, 100, 28)" x="520" y="445">id28</text><g><path d="M550.3422285978438 416.01756495545385 C564.6639267502537 416.25175278219444, 576.1795773226972 413.6303086077262, 608.7456706803387 413.5653652825102 M549.1938099163757 414.62684186766995 C565.2036005799276 414.8629688162941, 580.8904766794424 415.8638768427276, 606.488988727633 414.7928575599093 M607.9102193108461 413.0710818342835 C606.8444774557771 429.9354437073185, 606.4136078782334 443.9022814348, 605.0847334468283 463.51828464517445 M607.2076969255666 415.85212631346263 C606.1517429815451 434.1978664403501, 605.8475596607746 451.9125489379931, 606.7691393162679 465.9844708391447 M606.832910207807 466.3653900911786 C586.3780557116698 466.25319813030774, 567.3489785672828 465.62680675087466, 547.3697699417214 465.8885218788608 M606.4005509023843 465.0068520794406 C588.5722266219626 465.4371504313819, 569.222515503193 464.0483134835653, 549.1722638539884 465.2157016455067 M550.2215503273266 463.6083810412654 C547.7051539052043 448.09039373364385, 550.2994156301312 431.56408016462757, 549.9590600486915 416.16895044138846 M549.8602521641494 465.7331433442549 C549.3693812913717 446.3492517264827, 548.5671042436445 426.12034371238803, 548.5366843210604 415.7004393367979" stroke="rgb(0, 0, 0)" stroke-width="1" fill="none"/></g><text text-anchor="middle" font-family="Consolas, Courier" font-size="20" fill="rgb(150, 100, 28)" x="578" y="445">id49</text><text fill="rgb(150, 100, 28)" text-anchor="middle" font-family="Consolas, Courier" font-size="20" x="380" y="380">id54</text><text fill="rgb(27, 14, 139)" text-anchor="middle" font-family="Consolas, Courier" font-size="20" x="602" y="380">list</text><g><path d="M350.3652181117291 348.0150408205162 C370.64011744660155 349.4631317164628, 394.14910543753814 349.14089952712015, 408.7698454652891 351.93291690839874 M349.6460119539481 350.4300916067972 C368.23979196817777 350.5101258535429, 386.8619201123667 350.3439271220961, 410.6640646725179 350.6504934838052 M410.40422102629583 351.587604645208 C409.64047261924884 361.24368417517695, 409.11418102363285 368.97987992334555, 408.3162051543891 399.9784739115831 M409.8503310329844 350.95420471374956 C409.6262729537403 363.96047836167514, 410.7145002884649 378.46478952382404, 409.15678288100077 400.2079540068376 M409.26842502037584 398.4865123497071 C393.8137489215776 401.1990287123577, 377.8489843001983 401.1046605066221, 348.38416155754226 401.9940919898354 M410.42122727868184 399.45076785694255 C391.45540550751036 400.70825619192175, 375.0922832998887 401.33124012550155, 349.4697349574362 399.64762344830064 M350.2050720708176 400.7880543524606 C352.01352209024753 382.592096660284, 350.53244492087026 363.38381244569587, 350.78853925200286 348.0261980214713 M350.24862687727943 400.4628939220974 C350.21509418260484 381.2247181194464, 349.26934696227863 364.33233882397417, 349.6723896392303 350.49976739492496" stroke="#000" stroke-width="1" fill="none"/></g><g><path d="M571.6774245206376 349.70920187060904 C590.9765000080278 350.67680067049923, 609.1991486547373 351.9471548409811, 632.2922294305998 349.3089976845157 M571.5040102005096 350.94020697861083 C584.5752109722418 349.5769157485539, 597.3795165244957 349.3012507968545, 631.3097483774498 349.7998350414307 M631.8414319923359 349.22646694588866 C630.4274504559033 364.4372245488354, 630.0069976989819 380.17664969168067, 632.5266686820856 400.35047997636013 M631.2096692424019 350.02361536742944 C630.7801805082521 370.1581549968574, 631.5285898338029 388.9411783085366, 631.7736567421765 399.82192409424835 M632.1764154344803 401.2285660666846 C611.173921086881 400.36547124307856, 591.2673717055236 398.6033996259786, 572.1595354926495 401.1814557966651 M631.6908624018497 400.66198789656073 C616.0065585433008 399.86769306196004, 599.2205568479803 400.58041491924354, 572.3922327115007 399.2953670223161 M571.325364162154 399.99866566902045 C571.7487091827884 391.1961994091088, 569.685638698394 380.27529976673804, 572.108739577398 348.42372201221417 M572.2485027846003 400.632029102508 C570.659281658617 379.8490110860628, 571.9571462388539 359.95427841788216, 571.598296125603 350.03629278332886" stroke="#000" stroke-width="1" fill="none"/></g><g><path d="M351.08767790717883 599.8818139252996 C409.7449927601453 602.0550435445829, 468.79169622055446 602.276375939805, 630.7833425582656 598.6479236598304 M349.28064081780644 599.4580751288299 C413.8276158492414 599.6545688513638, 477.32896052464264 599.9566530840762, 632.5079122755664 599.7275029670948 M631.5301855679511 598.8417567259788 C630.0383406576133 632.2804137241739, 630.3419056236021 668.6764567395238, 630.6937391775147 749.8674443734034 M631.5378889419596 599.6568682379119 C632.9074675744044 637.8695937155096, 634.1731374227187 675.3292966167435, 632.4624278422086 749.2930986973781 M632.8540942046235 749.3058742259437 C553.7062742727317 747.1098131913529, 472.7216525671945 748.0828995839131, 349.4586579909184 749.4371792449658 M632.7075327059563 750.07266258221 C572.2252411856817 749.6599086806197, 512.6491325042401 749.5672659083137, 349.24220173349727 749.6674593497364 M350.8683204388079 748.2536788077061 C347.336801840728 695.2908173894238, 347.5415294551547 641.419895613182, 348.37719564345434 599.8989213983593 M349.32087299628756 750.7809823029905 C350.4435644634087 697.0992602213845, 351.29593207674924 644.2191403617475, 349.70011361367517 600.405946808662" stroke="#000" stroke-width="1" fill="none"/></g><g><path d="M373.52106475228544 685.2206815131404 C397.999909149611 683.6104863268179, 419.3874794567031 686.2848522410379, 431.7732118951222 685.869128307725 M375.7585494161436 685.6554389804928 C395.4769318020725 684.406613649091, 415.85183367650603 685.0829765646417, 433.7307516699475 684.1463264725378 M434.1921135897572 686.3242064033658 C434.4774028388749 699.8568860228474, 434.2752842607762 713.7527333037326, 433.13332337968194 735.2115817913764 M432.2208189493704 685.7209221306529 C433.6352990607924 701.6247729754268, 432.6508341828503 718.8158396171387, 433.21044971416586 734.504159929728 M432.71009221675723 733.5940206183792 C416.4573094303792 735.7719070755687, 402.2985573515237 735.5638476427374, 373.00980957688876 734.9186301074884 M432.0529764318296 734.179258561115 C419.846650953711 735.2137936564436, 407.5559947548736 734.6147590295986, 375.3540702397339 734.3624202099041 M375.5794692867912 733.0283998547355 C373.4908124565695 718.1764093447445, 374.5687452575765 697.9536018363677, 373.3203512776808 683.2064724627103 M374.9041798888848 735.7094225285906 C375.92679684688375 723.2901926366588, 374.8363246123859 710.5102893441688, 375.7497590563986 684.5041996075352" stroke="rgb(0, 0, 0)" stroke-width="1" fill="none"/></g><text text-anchor="middle" font-family="Consolas, Courier" font-size="20" fill="rgb(150, 100, 28)" x="404" y="715">id32</text><text fill="rgb(150, 100, 28)" text-anchor="middle" font-family="Consolas, Courier" font-size="20" x="404" y="672.5">0</text><g><path d="M434.4124706654141 683.7609896098649 C455.16343682155673 686.2546959198571, 475.03150621981325 686.8864403019858, 490.9193544356918 683.73547769167 M433.2075020879926 684.7784127092289 C453.9360467927412 685.8249940377865, 474.94015401609266 684.9981688556127, 491.98880188230015 685.0655799048944 M489.9962264571166 685.3003225265142 C489.7642014941531 699.8661159242367, 492.441988152747 718.6929539587611, 489.7006598428291 735.7078635275623 M490.64328277249643 685.9405295159746 C491.05383630197423 702.9391266260607, 490.6460104193669 721.826430379744, 491.9498232073006 734.240330564758 M489.6292991937393 733.0758805249135 C480.12048745116545 733.4152520470301, 467.0227116028343 736.3057931789402, 433.897556509013 733.4294925216163 M491.69420454686167 735.0371485633148 C467.92649891177257 733.6083206942884, 444.7172872982476 734.7577370485789, 432.48887651936576 734.9357938157523 M434.6619227204117 736.9880310486238 C434.7209954795215 715.9501405429681, 434.9403870586582 698.2543796481696, 431.93819542742847 684.4772667276791 M433.6185018952962 734.0224662579421 C433.01607071742967 723.6374527363057, 433.8313741368701 710.2547442019145, 433.52158524189895 684.4481818300281" stroke="rgb(0, 0, 0)" stroke-width="1" fill="none"/></g><text text-anchor="middle" font-family="Consolas, Courier" font-size="20" fill="rgb(150, 100, 28)" x="462" y="715">id10</text><text fill="rgb(150, 100, 28)" text-anchor="middle" font-family="Consolas, Courier" font-size="20" x="462" y="672.5">1</text><g><path d="M491.25843701937464 684.2343575208604 C504.0856518746757 686.4018640295716, 514.191268719518 686.7033652461394, 549.0336028725255 685.5606369041103 M490.72030485700446 684.0523977091984 C512.6235020232305 684.919084755227, 531.928646559056 684.1736681262228, 549.1106130091675 684.8653056195147 M550.5741396063338 683.6216484724575 C548.0387098506776 700.309154878008, 547.5542141394519 719.0278035428378, 547.3493992847494 733.0799228105244 M548.3198829585741 685.8499219932983 C548.6003224891764 698.2989218524687, 549.9608543396901 714.3367459953512, 549.9836721188904 735.0345806136805 M550.543315959165 734.3615203250133 C532.6645560032504 736.213474348604, 512.6285525598674 735.6587587828284, 492.30658310548444 736.8148697485215 M549.0913033980902 735.5835468563871 C537.2544936422864 734.5859839824791, 524.3038881238543 736.1250642736167, 491.17512853574397 734.8567793402177 M490.90012639257395 733.2022223911732 C492.35513943768024 722.6069608184378, 490.2037333947603 707.9440022059172, 489.1688624892627 683.6920305420833 M491.5675359700016 734.221513186961 C490.1405733389226 717.649056022518, 490.8805986984462 699.5613246993572, 491.2635127025012 684.3646022839847" stroke="rgb(0, 0, 0)" stroke-width="1" fill="none"/></g><text text-anchor="middle" font-family="Consolas, Courier" font-size="20" fill="rgb(150, 100, 28)" x="520" y="715">id90</text><text fill="rgb(150, 100, 28)" text-anchor="middle" font-family="Consolas, Courier" font-size="20" x="520" y="672.5">2</text><g><path d="M547.0600741678645 686.3396092840356 C561.9634910463992 686.043920402454, 576.8603216006127 685.4763534729539, 608.8195081699047 684.6204834980854 M548.9123617290286 685.9357555682249 C563.2527967362214 683.889017319299, 579.0965114588101 685.5217631127048, 607.9601727624042 684.0991659205798 M606.2707003184722 685.826632416029 C607.7202064331077 698.2449278659922, 607.9274197714083 712.4222863334197, 607.2711485389426 734.2001158459854 M607.8051563678088 684.6708094600646 C606.678873749542 696.5887883661721, 606.3577758274143 709.3861408722927, 607.5275222828825 734.6256830495998 M608.0779905055961 733.6361670168847 C595.1178089288501 735.931977621462, 579.3991073439719 733.7769272336151, 547.8954969644044 733.0597369309255 M607.0763841061196 734.7532476504313 C594.9068473224338 735.7002914109787, 584.2581014155197 734.8630015763395, 549.4993717523897 734.4556639282491 M548.2221305893606 735.0990471399286 C547.6357743099145 719.348676511183, 547.8964248310732 706.8702011603121, 547.0767262525115 683.7824215793463 M548.6675743427345 735.0663338095168 C548.5837252373698 716.883925445073, 548.5063968843193 698.6414197481303, 548.1171686688267 685.777467912149" stroke="rgb(0, 0, 0)" stroke-width="1" fill="none"/></g><text text-anchor="middle" font-family="Consolas, Courier" font-size="20" fill="rgb(150, 100, 28)" x="578" y="715">id57</text><text fill="rgb(150, 100, 28)" text-anchor="middle" font-family="Consolas, Courier" font-size="20" x="578" y="672.5">3</text><text fill="rgb(150, 100, 28)" text-anchor="middle" font-family="Consolas, Courier" font-size="20" x="380" y="630">id84</text><text fill="rgb(27, 14, 139)" text-anchor="middle" font-family="Consolas, Courier" font-size="20" x="602" y="630">list</text><g><path d="M349.4886311960521 601.9653809185844 C364.20228455486455 601.607129898234, 377.54631706263825 601.9522617594794, 408.1160965404131 598.269561752205 M349.54184851001077 600.8334047794144 C367.5352003819768 601.0672591943307, 382.8239855458516 600.4799467539883, 409.7231175036824 599.6888121702226 M408.36122237462536 598.7836757126204 C408.20053575631033 616.5242880003713, 410.2409077636104 632.1026414337358, 408.97607097537156 651.804179388897 M409.02683820084803 599.6647207944718 C410.0159449385848 615.3375742139021, 409.40939839271846 631.1015535831956, 410.05396331678196 650.1161618340772 M410.143036957138 648.1499176561107 C388.3610012493791 649.025763199951, 371.7163785934653 648.1880512407355, 351.06131747937286 648.2967375860055 M409.8996694488607 649.794056602528 C394.0094041126676 650.4099511276828, 379.9995424948998 651.0779346998193, 350.0623819249128 650.8335604035849 M351.4836124876635 651.1586484451776 C348.58583713421297 637.9033003451432, 349.5505566534483 624.3169271667686, 349.3162131113786 601.7769973008443 M350.9811994544626 649.7412669322061 C349.29158159118293 638.924828074005, 350.14309227310514 629.9282655417807, 350.1190459912324 600.1434361861862" stroke="#000" stroke-width="1" fill="none"/></g><g><path d="M573.3320221393445 600.7353274264163 C586.312405019889 601.2486108130652, 597.9797070052743 602.17248087709, 631.6645222767894 600.5787683211187 M572.764542812875 600.2975685849766 C587.3037868005955 599.8778207262602, 603.581129207798 601.0271277514491, 632.5990234241983 599.1146622118141 M630.7115891231377 598.0521816320767 C632.9084400468603 620.0041434096745, 631.1719508969752 637.1512116324801, 633.8213785780495 650.6549398809154 M631.0342941523082 600.1691220079215 C631.7362957287701 615.6232450620695, 632.9183520130601 631.4321965286019, 632.6262425187964 650.4988054813111 M631.3213779193993 650.5658071592298 C611.9192790278171 648.9370679471826, 592.8145674627427 648.0940505976974, 573.529273319189 651.1749992990347 M632.2683859061174 649.6327953750053 C617.2680389535893 650.5086684744274, 601.7783774992262 651.350595681346, 571.0865681544706 649.7813395515483 M573.3996795180059 648.1097164144664 C571.7637511085245 637.5943351295484, 570.3462286642065 623.0372644206905, 570.2819913205747 601.2764851752879 M572.7105952494898 649.3883979270894 C571.6705716828169 636.9067297669554, 571.478059946307 622.0096179308365, 571.7069083737942 600.3231395191042" stroke="#000" stroke-width="1" fill="none"/></g><g><path d="M751.7299665249294 10.336478396006806 C818.4700691952239 10.561699041578532, 883.7531748711239 9.564379937269628, 951.3484260430828 11.084790127005913 M749.6220187490577 9.535775997487839 C821.592368945432 9.38032522890333, 893.4326665771744 9.25025039674734, 949.675931997609 9.836113917615958 M951.7953252510026 9.187460281921318 C948.6069875397707 35.19786134463053, 948.957011822214 62.52610494642402, 951.1036968351242 141.55451697726764 M949.3324965065881 9.537433237368308 C949.2345290535487 48.18123007753431, 950.0792215218206 84.57514579368245, 949.1952669190564 139.03414202195017 M949.3926162372693 140.10172589050794 C884.3439931123313 141.77515726039533, 821.2539677412572 141.07035777766689, 749.6624167769043 138.53343738650466 M949.1908587192413 139.7384290344422 C907.948612603543 142.1988630704128, 866.8041780927833 141.9284882934142, 749.476489619598 140.63495995289796 M748.0095296784071 138.96996511583814 C752.0924034526283 90.63996247628899, 748.4983905863858 38.83365957837619, 749.1730894327656 11.14133648291325 M750.2847925485288 139.7554014701538 C749.2774772750764 98.1298917233166, 749.5318105379893 56.76927742238558, 749.4368912160156 10.032603801928689" stroke="#000" stroke-width="1" fill="none"/></g><g><path d="M743.6534148674423 3.8734856184299535 C797.4868366817412 3.615033774332398, 849.5625604692426 2.1539840016356293, 957.4470494477557 2.316076799463768 M743.7487406117365 3.9836372786362153 C790.8533184761044 3.7471564305743774, 836.7909783432224 4.475753146122301, 955.9844969412381 3.1591920531052207 M954.2254364756137 3.219693268482585 C958.1206352433653 47.23997413362558, 956.957641009058 89.48560533181025, 955.0951182095386 146.03366981827511 M956.520516673113 4.844906039070349 C953.964222134077 49.00306367917321, 954.4514602737208 93.22800849238823, 956.0992661750855 145.40515276514398 M956.9643289436623 145.924869689471 C897.5385109864375 147.24885854005572, 836.5362037390935 146.5667486067017, 744.1917585343381 144.83811396886742 M955.5262977199998 145.483629198546 C898.6439516354271 144.55653653858394, 842.2531846109132 144.64689200887304, 743.6798491652946 146.7602754242054 M744.2025283357424 146.24784805609713 C744.4462998652666 111.80720342215496, 744.4900488615971 76.20303780626124, 743.293084476919 2.6525478315404154 M743.6727953119166 146.39306879509442 C742.9638113089776 103.5467350390035, 743.6174070037946 61.61812628837929, 744.2291969081336 4.517714445702126" stroke="rgb(0, 0, 0)" stroke-width="1" fill="none"/></g><text text-anchor="middle" font-family="Consolas, Courier" font-size="20" fill="rgb(27, 14, 139)" x="850" y="100">1969</text><text fill="rgb(150, 100, 28)" text-anchor="middle" font-family="Consolas, Courier" font-size="20" x="780" y="40">id19</text><text fill="rgb(27, 14, 139)" text-anchor="middle" font-family="Consolas, Courier" font-size="20" x="920" y="40">int</text><g><path d="M750.2657893004616 10.962790575706777 C767.021649870992 11.101699701429077, 779.793311006063 11.947838489612582, 809.3939564286931 11.980632992168182 M750.5898933450005 9.673502977492332 C773.5960888916645 9.642132093231748, 796.5979444079858 10.556486373828179, 809.4007262780231 9.70986955584859 M808.0954403471734 8.987328604255678 C808.6480832113103 28.889400214087807, 810.0866443566065 47.3844375705894, 811.5832765322264 58.01435523428114 M809.7708785856057 9.316253316876654 C810.7157593434189 28.513634769060573, 810.4299410935444 46.601265964668706, 810.3896714392062 59.645945691024565 M811.1872069596357 59.82963882829922 C792.3183197228442 59.34836799142374, 771.8020597685066 59.0406320053903, 750.5774404423242 58.6373862840407 M809.6301135466132 59.912287934963324 C789.9405621705386 60.33320189681198, 772.2078544447074 60.73357440530493, 749.9548349528245 60.087516845909846 M750.2900455170089 59.137970955870756 C751.3326682875867 42.472726598579605, 748.5962268588005 25.04943881201175, 748.8646894083048 8.11286169740373 M749.1426475810814 59.97875026752164 C751.2921056366044 45.664199644490964, 751.4351812930803 31.770706247192674, 750.2791932544075 10.155479918673873" stroke="#000" stroke-width="1" fill="none"/></g><g><path d="M888.4421589845822 11.458478126597534 C905.8163479523504 10.636641404389174, 919.5902705254971 8.7877220284273, 948.1646001269138 11.584295676230283 M889.0775649274592 9.933551604676039 C909.2325890089568 10.111179561607678, 930.5262379568596 10.641239228714872, 950.1590854079955 9.94077021114575 M948.034742706431 10.784830945966277 C948.9666690352657 26.44353648736593, 951.6139572342747 40.63438161968582, 949.6141860780547 59.092887460069306 M949.0539569986115 9.065879633403556 C949.6240146995867 27.17648026864526, 948.9929312006262 45.573101621287854, 950.8044787923621 59.35345019952935 M951.594599791817 58.78323094438067 C929.0180013640881 59.01144582822358, 910.4480948426091 62.00399193082379, 889.0971156307471 60.385219160159636 M950.4520246436699 59.469160677820184 C933.7507469977916 59.483315683776304, 919.0718961295802 60.39792995804743, 889.669518971196 60.99409451492568 M889.3946449721004 60.4645156701851 C888.9965955458274 40.60850627612527, 888.930286697355 26.103881400461702, 889.4125554631285 11.1469289854055 M889.6914378200287 59.694803710905816 C889.8667905539014 40.3100858498861, 889.0266644185588 21.10628159717904, 890.8670189619797 10.143396768712865" stroke="#000" stroke-width="1" fill="none"/></g><g><path d="M750.5455514459585 250.42812296826048 C827.7632528677441 250.72858502583725, 905.9243687994496 250.15586416722246, 950.3672582381759 251.27277479413885 M750.2500492004889 249.95860552745873 C828.8158638915708 247.65326434731597, 906.8097089094991 249.0743450653614, 949.7233686617162 249.94430842335623 M949.7787222447741 251.79096146090134 C949.3576765095211 302.9207560211718, 948.2144517282982 352.25634411015614, 950.2320799238482 380.2088138917896 M950.9654922039691 249.44517066089347 C952.0507679547113 277.19348063887753, 951.6050026126138 303.3015360127037, 950.3403097186776 379.99119061123133 M949.8301373800531 378.90878362886673 C878.5383236534879 378.4386942616851, 804.8384458819592 378.93253811271086, 750.4642911248238 379.14414630302645 M950.8472939179608 379.2631773287705 C887.3470866778619 380.2112954552419, 822.8648406302146 380.31476016369965, 749.3245760526634 380.52888383025254 M751.6260250077065 378.3905803477299 C748.0670108034001 345.8339236872791, 747.5879722063589 315.1983145396004, 751.3972403941525 251.01923399689557 M749.5154257874175 379.0268888854548 C750.6362925455793 352.0816081299716, 751.1720577330767 323.7459941715591, 749.0154286196951 250.31568863932057" stroke="#000" stroke-width="1" fill="none"/></g><g><path d="M743.1259197284354 245.31767092835636 C810.5493710395883 244.8230065009433, 876.2484624544893 244.4090645372557, 955.1606257650881 244.26372225835584 M743.9984028958073 243.47160224487462 C823.0380385668936 244.0672473764434, 899.736928767991 244.5499842764856, 956.5517792895179 244.35482823128214 M955.7191095104009 243.88246297777584 C957.8388006345043 291.4431276883112, 956.3344642089808 336.4788870949308, 955.8127679162659 387.07051683230225 M956.3012648022014 244.7359510677752 C956.7486805591591 285.46159891113905, 955.3625361471093 328.1149411661985, 956.8950736803154 385.88741047977635 M956.3999685141506 385.6292522515842 C900.907521185817 386.5752913542361, 848.3021653921306 385.704774051175, 744.4272644240743 386.44694623191515 M956.5856689119208 386.00889768731776 C879.8394283115125 386.58563957902015, 803.2656527183523 386.8358749487786, 743.5477408791555 386.14489417807357 M742.6217595122304 387.4206391680052 C743.085766481924 348.54881382367023, 742.5496154344846 311.9091964113631, 743.6375639896191 245.01431374557117 M743.5730446336346 385.91732169566643 C744.680040964278 346.4088999174549, 744.6196944395401 309.20497093676727, 744.0380627706068 244.21470418608126" stroke="rgb(0, 0, 0)" stroke-width="1" fill="none"/></g><text text-anchor="middle" font-family="Consolas, Courier" font-size="20" fill="rgb(27, 14, 139)" x="850" y="340">True</text><text fill="rgb(150, 100, 28)" text-anchor="middle" font-family="Consolas, Courier" font-size="20" x="780" y="280">id32</text><text fill="rgb(27, 14, 139)" text-anchor="middle" font-family="Consolas, Courier" font-size="20" x="920" y="280">bool</text><g><path d="M748.4154606101798 251.60216778675536 C766.6393950968323 250.35049717948607, 788.619120572806 250.66435203901472, 810.0455164154192 250.52585056500033 M749.863037906825 249.06116790804984 C773.1205147995115 249.28359040272247, 796.4936897467534 249.79533700590505, 809.6251382628284 250.5088207522183 M809.4646951875322 248.78571293278378 C807.9788029400826 267.2509498990568, 810.3547572624383 283.86201976242006, 810.9270100808031 299.12397618248343 M810.0682991219818 249.55114306102772 C810.3915767296447 261.70383328248926, 809.9967312172176 273.755643554199, 810.4164314531653 299.8997659880126 M808.4454052855933 299.8803377383812 C787.1251409647366 300.02932841749976, 762.7912650385412 299.8588426013485, 748.0329439619092 301.5084236252897 M809.7301181169835 300.2125196477378 C794.6062383155836 299.80149038616247, 779.5235428642702 300.4646452990604, 750.0063148969613 300.32794540685035 M749.2276988769719 298.20033192291584 C750.1847449257467 281.016647793727, 751.569458362633 266.87963818460173, 748.9436942032168 248.16901635487156 M749.2577423124561 299.81051557347854 C750.8018773157677 280.4777395811851, 750.6542585277687 263.5419848456496, 749.596824461838 249.88777016263546" stroke="#000" stroke-width="1" fill="none"/></g><g><path d="M890.1150279801469 251.1911987854888 C909.5072711361896 250.12000624432264, 931.1112631801819 249.06494080874552, 951.5059991072198 250.64471293844827 M890.5029864796268 249.65174943365665 C912.9447206866358 249.13819357704364, 934.9996512082346 248.6258578496804, 949.9288598972645 250.38912124056867 M950.8788257477987 251.0067866024366 C948.387129895014 265.4038119218265, 949.5201887017181 278.98610412306715, 948.78908790764 301.9037137815992 M950.7969987010525 250.14657567896313 C949.9714878992048 267.37384081265066, 950.2106375249363 284.07102230468246, 949.1268119844957 299.1690141155168 M951.470709722658 301.48104857527505 C934.3785770258917 300.11350575504235, 916.5084021293317 302.388944450569, 891.0312478931381 300.27443010297105 M950.6843519164939 300.0502979101792 C930.9466271189741 300.0041292944915, 912.6599943974297 299.6837789614315, 889.7390357913232 299.4856830763711 M891.1800993552297 298.09954729123854 C888.3683501443788 287.7839659194246, 891.4851425500989 275.8900042254556, 888.2358004803294 248.46501241009523 M889.9490138324986 300.24416533124514 C890.650349154055 283.79875267398063, 890.7158960797419 266.23237282616316, 890.4506077186703 250.9299973965147" stroke="#000" stroke-width="1" fill="none"/></g><g><path d="M749.7089726835083 500.19803444951543 C829.0700605631853 499.9815248059626, 909.0576719193426 499.45132423669145, 950.2611553951215 499.7065762622804 M749.856571436142 499.8276338356148 C801.2747468370503 500.16679186634406, 852.7786634736942 500.3869078188542, 950.1374763076516 499.84977257566027 M950.2551106702831 500.3869461313855 C950.2777660517344 547.8197348949572, 949.9631017105388 596.0734393231814, 950.1650954481786 630.2251484708547 M950.0290735082959 499.9048689258597 C949.8539497233618 549.0077423102553, 950.0200650716997 597.841987829359, 950.1588069294903 629.9723148416125 M950.2976898435604 629.7171589207379 C896.3492378926252 629.9899888661906, 842.0013933082754 630.1112874725205, 749.7950371586617 630.1066278192463 M950.0986678213601 630.1656203743969 C893.110905255233 630.1540234114606, 835.8765033477307 630.2854788934892, 749.9157044162 629.9477434336037 M749.6092241745512 629.6670147720024 C750.0936140769603 596.8620184851078, 749.6649288847542 564.4327725250108, 750.1100496188544 499.9917818683682 M750.0171966082785 629.9022925403038 C750.1338526241628 583.4430229674994, 750.161366361263 537.0962554000486, 749.9293344934955 499.98123284532426" stroke="#000" stroke-width="4" fill="none"/></g><g><path d="M745.3862354284323 492.4066744416938 C821.8396366724289 493.3159672333262, 901.841722392944 494.15792807856167, 955.7672355559929 492.6623100926705 M744.2616900098039 494.09691005079253 C807.1856905023666 495.2604208186557, 870.361096693472 494.65516440052176, 956.8694507209933 493.17713887006073 M956.6687732538708 495.43844201447564 C957.7971384871918 549.1816484234072, 955.9837529685327 607.4563132392356, 954.8855866230463 636.2234710705443 M955.5106090177613 494.02783320513925 C955.7867638400861 548.5550098249136, 954.1046898524853 603.3776353604078, 956.1743969980685 636.4965228157997 M955.0026173793586 635.9756019588204 C894.1003105166668 636.7012883735711, 828.3991587497704 634.1787478853416, 743.2782430789672 634.5268837896738 M955.3114445671995 636.2532459260558 C911.9121243977987 637.1939214560241, 867.522668064287 637.5706025579746, 744.1510652950179 635.478867728075 M743.0608342121568 636.0354459344977 C743.7554507952781 594.3410000154098, 744.2193430624421 551.3898392043836, 745.7998232087381 495.3281333973719 M743.5312475597516 635.7985839629871 C744.6367814603838 589.8579282465108, 743.9017101819946 542.3233983556618, 743.4554873801543 493.7818991584713" stroke="rgb(0, 0, 0)" stroke-width="1" fill="none"/></g><text text-anchor="middle" font-family="Consolas, Courier" font-size="22px" fill="rgb(27, 14, 139)" font-weight="bolder" x="850" y="590">"David is cool"</text><text fill="rgb(150, 100, 28)" text-anchor="middle" font-family="Consolas, Courier" font-size="22px" font-weight="bolder" x="780" y="530">id43</text><text fill="rgb(27, 14, 139)" text-anchor="middle" font-family="Consolas, Courier" font-size="22px" font-weight="bolder" x="920" y="530">str</text><g><path d="M749.9461835071684 499.62500375233566 C767.6594076510577 500.0905129602245, 784.3092698059295 499.8826763681333, 810.1803454281319 500.2461592859422 M750.1422693961304 499.81532732711656 C767.3495659437089 500.01286231698134, 784.188599889247 500.1900293984574, 810.1240017008731 500.0708772953033 M809.9611208882234 500.18204823308196 C809.7220446964895 518.5062344411054, 810.3703826620664 536.5207691487724, 809.7663048304315 550.0452427736917 M809.956294867964 499.8191870799382 C810.0377542850496 510.391095416259, 809.9762448757523 520.6173347865647, 810.0740809867423 550.1611035966483 M810.186686029357 550.0613074913746 C790.3254619110747 549.6882714804331, 771.4594027389425 549.8479278999181, 750.1603109523945 550.1600111290221 M809.8868827305087 549.9825194017856 C796.7047285796976 550.0251784608844, 783.3389091729189 549.7436497737929, 750.0489932016233 550.1255198685091 M749.9021353746549 549.6357807967848 C749.8663873675375 539.5826034236167, 749.7644235072689 529.2610622705321, 750.389953322432 499.95364225344736 M750.0855703666857 550.0804080168317 C750.1856057221136 536.9882653762375, 750.1831685743822 524.3310971705524, 750.0136879870006 499.9984862938449" stroke="#000" stroke-width="4" fill="none"/></g><g><path d="M889.7277582830926 500.07078962830354 C903.8540408677796 499.58207412157094, 917.771333532055 500.1866561566842, 950.2612371550522 500.35119799701414 M889.8229615395433 500.0894408095642 C902.2330063034452 500.13245725285674, 914.2638801506791 500.10974815668897, 950.163652455819 500.00603584851075 M949.974154879039 499.8148491421757 C949.7454259448549 518.6720439941888, 950.1289392144533 536.9404787870558, 950.0470497480574 550.0357083749351 M950.1184384366692 500.1095016918784 C950.0277592050033 516.6551364678736, 949.9667676433828 533.217654586803, 950.1708372357434 549.8728937731084 M950.1815830074937 550.2647423623999 C934.1042225426912 550.3211136967944, 918.3688463344021 549.6994594611633, 889.7966366511615 549.7223697695379 M950.1938797258505 550.1854234372778 C933.2639028307864 549.8976724215261, 916.153687719187 549.9033655134119, 889.9189101058369 550.0396102555674 M889.8259918824151 550.2481391287956 C889.892860307832 538.2710626212222, 890.236767807205 526.516461531148, 889.8918078489635 499.8689402566819 M890.1980378995987 549.9983793678593 C890.1895472866082 536.5410161462034, 889.8655466217979 523.5908281545375, 890.1511972031171 499.8910445701386" stroke="#000" stroke-width="4" fill="none"/></g><g><path d="M1050.9613903649367 40.36466825023709 C1097.6655181863994 38.86189162689771, 1148.8759604299744 38.59237681232399, 1251.0914902659051 41.34030060988457 M1049.7667104970633 39.50174579476498 C1114.4938766418059 41.16801137524012, 1179.1203241366834 40.51461463223677, 1249.4859128237258 39.77315237541642 M1249.408852060125 40.304616904245464 C1251.277912459379 78.80600602869194, 1249.0369369351095 117.85409474245292, 1251.9229435165203 169.22870618491982 M1249.573522135055 39.75950040282618 C1251.8692118522006 77.44366913220587, 1250.3957799980635 113.99522346126356, 1249.6617611052761 170.24596831790606 M1249.502828864763 169.72562905299046 C1205.6455724983566 169.85089211192863, 1161.0768502983651 169.3976619679971, 1049.1789454377433 168.3184010789674 M1250.7328787213787 170.79580240380804 C1201.6132395427574 168.88419033894832, 1153.2577651243896 169.39447120366086, 1050.6159495028935 169.19548036668266 M1048.5883624462556 169.2377259866193 C1051.413567440848 135.39661231206978, 1050.0765596202211 99.02190105685499, 1049.5842049806529 38.653577407934016 M1049.5994596260718 169.2639195430474 C1050.5003629277358 136.84471145124735, 1051.8349871527266 101.91898115957623, 1050.4186422695088 39.65596232451783" stroke="#000" stroke-width="1" fill="none"/></g><g><path d="M1043.3506534066848 33.13073314768226 C1111.6002137352027 33.254670672597584, 1175.9130970318513 32.78218830580877, 1255.419097401824 35.70736835881948 M1043.9225632893827 34.11720968508422 C1105.5611097358496 34.95841699715239, 1165.8603792348515 34.21141696163404, 1256.6468985651231 34.224814188581476 M1255.699577930701 35.57074261472786 C1255.3882704256957 72.06068747763152, 1257.0730544671958 105.94222937767184, 1255.4499758448437 176.67874847415845 M1255.6499048630646 33.91130619586649 C1257.573758429871 64.95838214147305, 1256.8886821186595 97.28203200576942, 1256.76549772249 175.21526440801705 M1257.3834892645548 174.68372273105123 C1194.4190251662142 177.92763260932537, 1131.9265672209171 175.83218254656316, 1043.8119206257586 176.93583585212755 M1256.8475683543893 175.34254206073297 C1212.7820201953828 175.08142445626493, 1168.7629766798775 174.08741518757063, 1044.4516076939717 176.19808585602217 M1042.9913142413347 177.35923995987704 C1042.6899550738951 124.97819594115684, 1041.7179581741534 74.78307575715262, 1042.046015291247 34.13854962068881 M1044.8239340191894 176.25290204422527 C1044.8225448290684 130.05868792709552, 1044.6559895031064 86.9676897185588, 1043.2520494173793 34.92257599323449" stroke="rgb(0, 0, 0)" stroke-width="1" fill="none"/></g><g><path d="M1073.0784719453795 106.01651615248369 C1087.3197549213453 104.02767355118574, 1102.2805552527539 106.13290720542336, 1131.5600871661134 106.3525702265588 M1075.0271863234889 105.93032839777693 C1090.4715194633093 104.89655444543499, 1106.6764852846134 105.09030545825172, 1132.6032207725727 105.26880921433505 M1131.7820269739473 105.11779053040341 C1131.4032721364356 120.6255626431834, 1134.15761315446 136.42470429792718, 1132.2564312742581 153.66057616716776 M1132.093834186358 104.84795069637983 C1133.2694695520972 122.39672527219892, 1133.7816561456684 141.85962537674072, 1133.7172256867648 154.734533563658 M1132.4086936409055 154.54690869135732 C1119.969153576409 153.20743802816008, 1103.4308107671648 154.15766566543397, 1075.1371192338943 153.17762315777168 M1132.322127634945 154.20253939266888 C1114.024533683436 156.5264478400577, 1094.6536367980582 155.44276222711616, 1074.6582150588863 154.23922234046628 M1073.597736052552 154.85493588832622 C1075.564926121953 141.49204315674615, 1076.7244456543144 123.57879269873008, 1076.1764693319753 106.80647995054645 M1074.4903473374407 155.3560683572308 C1075.1912375909578 139.62137678888493, 1075.8842979344745 123.6600118132594, 1074.44338283191 104.7078909284856" stroke="rgb(0, 0, 0)" stroke-width="1" fill="none"/></g><text text-anchor="middle" font-family="Consolas, Courier" font-size="20" fill="rgb(150, 100, 28)" x="1104" y="135">id82</text><g><path d="M1132.9842630345001 103.40175055105985 C1149.7642087936758 105.10410918658559, 1167.5923042122495 103.57960515503426, 1192.211340961214 105.58557952685743 M1132.4315145957614 104.44037399824762 C1149.6732292991828 104.3561957703667, 1163.636856961095 105.46227314707872, 1191.321195383944 104.08150697669429 M1190.5022471747545 103.08240607148227 C1189.9174105039085 114.2775790111748, 1191.2064054262783 126.02981961860404, 1190.115942800509 154.50686901605596 M1191.6298077742338 104.06664294806863 C1190.226087677517 120.98657768706109, 1190.9978795525894 134.39393809862568, 1190.3023758775719 155.3573364116024 M1189.0529800154561 155.36486128634522 C1174.7512858485672 152.63193639115178, 1154.3647146863486 154.4578156981091, 1133.347087982229 154.86298626892082 M1191.5461118591288 155.34635872378476 C1169.7617263381283 156.13996253172718, 1148.8338045653077 155.58918016768968, 1132.2081483873683 155.90266712911608 M1133.2430999356832 156.42934091717416 C1134.7575501640108 142.7740347378716, 1132.9686993063065 133.53157224018287, 1134.5529703274979 105.7512331599745 M1132.9389759521566 155.18424020268253 C1132.1366649107295 137.4707681366986, 1133.1372484696365 121.3174285826378, 1133.0128739536801 105.10760099859435" stroke="rgb(0, 0, 0)" stroke-width="1" fill="none"/></g><text text-anchor="middle" font-family="Consolas, Courier" font-size="20" fill="rgb(150, 100, 28)" x="1162" y="135">id76</text><text fill="rgb(150, 100, 28)" text-anchor="middle" font-family="Consolas, Courier" font-size="20" x="1080" y="70">id11</text><text fill="rgb(27, 14, 139)" text-anchor="middle" font-family="Consolas, Courier" font-size="20" x="1215" y="70">tuple</text><g><path d="M1048.7786501127205 39.69691009326956 C1066.7194358636089 40.61712006246389, 1080.3928106448 40.8768781385537, 1111.6231045353304 40.936575886991946 M1049.4905685313631 39.25416006876456 C1073.7031479062252 39.5067885126532, 1096.9537701547324 39.26845431222403, 1110.7895443977854 39.11149806094023 M1109.4038185089828 39.77221146881967 C1111.2487804852558 53.42502157970764, 1108.1180334113303 66.15677550151864, 1111.6704220235094 90.00155803212546 M1110.734442002159 40.12386270851557 C1110.0836318155098 54.61046916576973, 1110.0685994597227 68.72671900760304, 1110.6590395281517 90.93944126980354 M1110.5160600339207 89.96709238227253 C1088.0413899755576 91.52635731854292, 1065.5767244790366 88.6397567568041, 1048.5302356769191 89.65171645674872 M1110.0968370643566 90.2803837490298 C1093.001450981289 90.99588694247278, 1075.0888000970865 90.86652014589731, 1049.328740588141 90.44708025350629 M1049.4997411600184 90.01081412506056 C1051.026927041302 72.06386176128184, 1050.8119394077999 50.88668623812758, 1049.6680925357027 40.623559742119596 M1050.59688453103 89.77351162832271 C1049.056202934399 79.79362609512069, 1049.5578246809164 69.10380268411829, 1050.9090432637533 40.28124313628593" stroke="#000" stroke-width="1" fill="none"/></g><g><path d="M1179.906826966993 39.924693652184764 C1201.4050417740812 39.342085120219835, 1218.2334258935336 39.12593506735699, 1249.137831903801 39.42982446251076 M1179.5583381366669 39.49736398843813 C1203.0713891903483 38.86206727929105, 1225.7440878752868 40.44632560102743, 1250.9418223576354 39.01482656107317 M1249.421057526063 39.96698991984734 C1249.0542509164318 57.51046612522103, 1250.42833584902 72.64319901347518, 1250.5896275908635 88.65817415175808 M1249.13448115438 40.663116906068545 C1249.8032319287827 51.72770762099633, 1250.2206920798549 60.994605412030786, 1250.0418896397018 90.6836753758247 M1250.6453099937664 91.5194067555837 C1228.2618002147901 91.56722345101034, 1205.0600757682994 91.17605940725663, 1179.856614859018 91.62083494705782 M1249.7783583802006 90.16861318500017 C1223.8094678611146 88.57814837876853, 1198.285095685359 88.60225123278218, 1180.4833642177632 90.82888661643766 M1180.3318923255301 91.9901076074114 C1180.0050459842491 78.54107481550328, 1179.8744237589935 68.31618117921138, 1178.0156249419363 40.55193004939001 M1180.579536005979 89.42472515770056 C1179.1319461964417 72.1417297216364, 1179.5751456934377 54.93018392432689, 1180.368283512977 39.56897627349522" stroke="#000" stroke-width="1" fill="none"/></g><g><path d="M1050.4202477968765 258.6345091073908 C1142.8410661308617 255.06885449113818, 1237.9905874239212 257.5669329451344, 1295.7404905026453 262.8769709994803 M1051.545451904159 260.52281551679226 C1103.4189398631693 263.43460183542055, 1159.3483890342836 264.53389215473004, 1297.6522323659728 260.22828254407415 M1295.7576005787143 258.99059683564644 C1299.5628526781943 288.77859639610057, 1302.762237773611 318.2393843419048, 1297.2109739758212 391.2831136424434 M1297.9259782164463 258.13427899978996 C1297.0854115504444 295.83220662490766, 1299.0656734662196 327.77754969331585, 1298.5649451989589 390.3871139311015 M1300.2991173899597 392.40407887168436 C1203.7971195346418 388.4107050445396, 1104.7132802392503 385.82418828234137, 1046.7550928301441 387.05930913852285 M1299.4576945410836 389.3843889434678 C1200.06392270288 385.9864036502653, 1102.0608771171499 387.27430689309466, 1049.892206630713 388.5368361847561 M1050.143676010587 392.1266496642724 C1048.893812091361 358.84783064365996, 1048.2842014932037 327.2706237920809, 1051.6510530830797 257.77199699479513 M1048.4245073654922 390.669973343936 C1053.4386235614234 346.5987333836489, 1052.038200602758 301.5083394515978, 1049.524637750281 259.660152421286" stroke="#000" stroke-width="0.5" fill="none"/></g><g><path d="M1076.632727620597 324.69098197190095 C1090.2369793585997 323.6513522434977, 1103.0180391582162 324.2559848562218, 1132.1378083240672 325.92319324957907 M1075.3188150819547 325.0276402393739 C1091.3426688224695 325.70311990403616, 1106.8377151686475 323.925302101904, 1132.2458464387337 324.3252566294566 M1133.0349616583446 326.46739544818234 C1133.2624486304287 337.38119115068514, 1131.6449322273902 348.64039450923667, 1132.3686031743139 373.17813384997703 M1133.3749189621751 324.40354058801375 C1132.8928381507594 337.8041306775428, 1133.2602943923628 351.03316231614775, 1132.4350129195393 374.95770130956583 M1131.883617863666 376.2963504504657 C1122.7473451159158 372.77176625841327, 1108.0687614855333 373.339150892089, 1074.2613793902676 373.24270363934966 M1132.9235559862707 375.53421480523343 C1112.6862633575174 375.1169765573055, 1091.2674264088312 375.59746225677753, 1075.4584639737684 375.0488087922954 M1076.9780147492095 375.5286861580556 C1076.8535473626907 359.75490592336615, 1074.7790444270477 350.0003293453851, 1074.0751790943523 326.462707261786 M1074.7115686038774 374.14333684464157 C1075.2742628102724 356.0543478180541, 1075.45625325679 338.3409552453318, 1075.0100722966872 324.591273942021" stroke="rgb(0, 0, 0)" stroke-width="1" fill="none"/></g><text text-anchor="middle" font-family="Consolas, Courier" font-size="smaller" fill="rgb(150, 100, 28)" x="1104" y="355">id36</text><g><path d="M1144.9867321959466 325.2614230824019 C1161.134751456697 324.0253633188982, 1176.0244907761275 326.47062829980564, 1204.1941514175794 325.0290021428577 M1144.9154706559746 325.20633172363944 C1160.5882290469972 324.8128805390196, 1174.467165854274 325.2968690385533, 1203.7415885589714 324.71612603303606 M1204.4509488282818 325.8879034453317 C1204.8505852403837 339.49816845181283, 1202.1318866649008 357.2593175556165, 1202.74908106734 374.7612651011164 M1203.9354860770316 325.47995757857404 C1203.3684250648246 340.3137565879657, 1204.336989031925 353.4629371595797, 1202.7755498084657 374.7311301757261 M1203.3339164145737 374.3349067770616 C1182.9580604006107 373.926905275391, 1161.0279397779448 376.6272391718051, 1146.039234885356 374.23042540944766 M1204.198301546944 374.8604226923464 C1190.6088913309036 376.43326736790414, 1175.218751223946 375.3759565615989, 1145.0738478213548 375.5906941842691 M1145.6799513346273 373.10222694579346 C1145.7354248145923 357.97223349778386, 1147.6940525723285 339.02397172480914, 1146.43386427431 325.8110576229165 M1144.5871512464144 374.6107674415836 C1145.8233053202339 355.41319643690537, 1145.6807809513055 335.8859988500861, 1145.777414396559 324.02470253169565" stroke="rgb(0, 0, 0)" stroke-width="1" fill="none"/></g><text text-anchor="middle" font-family="Consolas, Courier" font-size="smaller" fill="rgb(150, 100, 28)" x="1174.5" y="355">id49</text><text fill="rgb(0, 0, 0)" text-anchor="middle" font-family="Consolas, Courier" font-size="20" x="1139.25" y="355">,</text><g><path d="M1216.2531994612584 324.1894106879066 C1234.1432106164784 323.75908572467455, 1249.1922744655324 324.7271742591859, 1274.2370702721057 326.7994885248862 M1215.3201674863828 325.66586392799104 C1227.9641365806788 324.347183308381, 1241.2856395470492 324.8644521847526, 1274.445309218692 324.83115472720385 M1274.3734521326153 323.45249041837064 C1272.9051316942744 338.4382372021258, 1272.8585963828073 355.7759291123691, 1275.6472297930545 373.4959576057854 M1273.7828765873053 325.715396121429 C1274.134769287944 336.24585089770807, 1273.448870789852 347.24416158270077, 1273.677016599426 374.1579428245394 M1275.5016524593284 373.38809280656466 C1256.5551076284387 374.07766848685776, 1235.075538104809 376.4970516335503, 1214.7954672016576 375.2197820451503 M1273.7805389247014 375.1550335839315 C1253.636558338268 374.99970941979683, 1234.6352212329402 374.2114853182258, 1216.4690550907458 374.339372822622 M1215.8574480603106 374.796714980825 C1213.6254361073513 358.70716485092265, 1213.8734538948338 347.3499276211789, 1215.5057395254612 325.5613394364392 M1216.0276932614704 375.5687832829316 C1216.1231886482226 358.0832260878128, 1217.0020142331925 342.2916617419524, 1216.6300462191598 324.11304129699454" stroke="rgb(0, 0, 0)" stroke-width="1" fill="none"/></g><text text-anchor="middle" font-family="Consolas, Courier" font-size="smaller" fill="rgb(150, 100, 28)" x="1245" y="355">id64</text><text fill="rgb(0, 0, 0)" text-anchor="middle" font-family="Consolas, Courier" font-size="20" x="1209.75" y="355">,</text><text fill="rgb(150, 100, 28)" text-anchor="middle" font-family="Consolas, Courier" font-size="smaller" x="1080" y="290">id90</text><text fill="rgb(27, 14, 139)" text-anchor="middle" font-family="Consolas, Courier" font-size="smaller" x="1269" y="290">set</text><g><path d="M1052.02423805686 259.8662245462885 C1063.1999663404047 257.62174213489044, 1082.702124202145 257.46515884860196, 1113.8847572374386 257.99575003745656 M1049.2009900341097 260.03750016096484 C1062.580782228793 259.78968663420125, 1079.333323229218 262.3835598024481, 1111.785042620706 259.90859865856953 M1111.1406359077819 257.81111541191547 C1111.9826695108352 274.9815090132747, 1111.3519916757373 283.1055425695186, 1106.3090057036916 308.8233375661418 M1111.712186369743 261.03005146690384 C1110.1586896786253 280.07729711668964, 1108.6445283846174 301.0261081332491, 1108.877956795335 309.96004090832906 M1106.264923493774 310.8821934333741 C1096.147059952199 306.39161760333315, 1070.5067979201003 305.85817470270996, 1047.5374052436262 306.00404476026137 M1111.9128646692839 309.85136034693465 C1084.7993566138246 308.8473187677196, 1060.7482788179545 311.0503963703835, 1048.056117913845 308.2784480159843 M1053.6796070738274 307.15314985082244 C1051.5436469782767 298.82142383068674, 1046.386164880792 282.6471563757813, 1046.6241005652628 257.9704513539492 M1050.2355166601415 311.88629812896494 C1049.0609810988058 292.86167792876324, 1050.023825508896 278.5848719684586, 1049.8152225455208 261.93698703722214" stroke="#000" stroke-width="0.5" fill="none"/></g><g><path d="M1240.700274840517 256.28568043290505 C1255.5729150988707 264.074574054564, 1273.8481508740085 263.5378121755229, 1301.861158561377 261.4832951068894 M1239.2525073627212 259.4778833874988 C1253.3390828530733 259.2017670445387, 1271.6103892149943 258.2708522341114, 1300.557273795269 261.0762082998339 M1298.4004774507418 263.3431889105921 C1298.1924091001981 282.1303900115583, 1296.0396072021688 301.2940285658488, 1300.6536239132006 311.02350332871805 M1300.4791731784217 260.88091295672734 C1297.8656896792827 269.78756467102374, 1296.3568712111494 283.9984105321473, 1298.2319640572707 308.41841694915604 M1297.7900429042259 306.70204223799203 C1277.5346888246083 307.9471720292146, 1263.1117836753415 308.3987413314531, 1236.2756488517484 307.99457286119116 M1300.0046198150744 308.79216978803527 C1281.1284657662302 310.23508514959565, 1263.3836593520641 311.61846904723956, 1239.5421930333623 309.26763156085207 M1238.5401732957494 310.56790319088424 C1238.5608998520768 292.71614244369124, 1235.0036945736035 272.1628164095796, 1235.5047719114336 257.21151690988376 M1240.1285694351736 308.514668809253 C1239.6361588707573 296.8005087484389, 1239.896598603819 286.9891786541094, 1240.3680291151238 261.75219755228795" stroke="#000" stroke-width="0.5" fill="none"/></g><text fill="rgb(0, 0, 0)" text-anchor="middle" font-family="Consolas, Courier" font-size="20" x="1062.5" y="355">{</text><text fill="rgb(0, 0, 0)" text-anchor="middle" font-family="Consolas, Courier" font-size="20" x="1286.5" y="355">}</text><g><path d="M1075.7336009577361 573.46102835271 C1092.9296307176833 575.8814151327103, 1114.1587834875347 574.4074230007103, 1125.4232602460845 573.0368227095419 M1074.639575061309 575.9117977200342 C1085.544124177714 575.1364294369242, 1096.730606353888 574.6741249271305, 1124.3744259422622 574.2320829367696 M1123.665902116452 573.6991747505768 C1124.2202446472857 591.291851922809, 1126.0236624144218 612.510377429527, 1124.7171827984268 624.6651716019092 M1124.7104398118545 574.3360652967399 C1125.5569502377648 589.2202370597195, 1125.0710101746865 602.223181925372, 1124.4783702974491 625.7297441591302 M1126.3943050866462 624.9988890357911 C1112.1927082978987 624.2455926724002, 1102.7536601891065 625.5609776404327, 1075.6376822769425 626.1096037873541 M1124.8772559270749 624.4114817910214 C1114.183262048833 626.380815368741, 1103.8072264593422 625.2088684833428, 1074.5101269550041 624.507878390059 M1075.1358548811734 624.1343360521756 C1077.213742844457 610.6328282670713, 1077.4000879588618 595.4568678226332, 1073.1205707548731 575.461930431841 M1075.0747001843501 625.7590911319169 C1075.1923044071382 611.3744039658409, 1074.691807516451 599.7223346489163, 1074.2287342056525 574.9025742950828" stroke="rgb(0, 0, 0)" stroke-width="1" fill="none"/></g><text text-anchor="middle" font-family="Consolas, Courier" font-size="20" fill="rgb(150, 100, 28)" x="1102" y="605">idx</text><g><path d="M1073.785715678429 651.0553679583746 C1085.9192097800935 651.2195145984251, 1100.3764276782551 650.1320754792711, 1126.5606469545269 651.7963355616787 M1074.4978368258683 650.7683459717031 C1093.1900340682705 650.204379588853, 1112.9630542702296 649.6505351815388, 1125.6007905786348 650.2742651330548 M1125.1545329114904 650.4746385127459 C1125.981393983456 670.4769824097322, 1123.7261419909166 686.5099924154688, 1126.0629705423362 701.8165851037993 M1125.637311708367 650.8218386486699 C1126.0245833824 665.7372254498214, 1124.9881737802643 681.368518554188, 1124.0718764046596 699.0058744263339 M1126.0258887391517 701.604098321794 C1111.078335743795 700.8330979375505, 1099.318670917715 698.4178893435702, 1075.8407835711776 701.9262210523306 M1125.8985114912987 700.9385486046516 C1110.653387646568 699.3803774795928, 1097.7814755746151 699.6287056843616, 1074.6182553636586 700.1961976676694 M1075.7325363085504 699.0946935798493 C1075.886426354405 683.0262870912053, 1076.3585502127216 665.8842196247322, 1075.1036437628013 651.0109766337475 M1074.714815196124 700.9224385879937 C1074.6193435074888 687.2273947297624, 1075.3149866700899 671.6153606313492, 1074.0632396875162 649.5651107454921" stroke="rgb(0, 0, 0)" stroke-width="1" fill="none"/></g><text text-anchor="middle" font-family="Consolas, Courier" font-size="20" fill="rgb(150, 100, 28)" x="1102" y="680">idy</text><g><path d="M1074.2814043231288 724.2924518978891 C1095.722553041682 726.9384321012805, 1115.8841153668773 726.6708196199265, 1123.7317591753306 723.6615661770842 M1075.8226336504422 725.5019723509 C1089.5396589241152 724.4772567476741, 1101.8947587810528 724.3306912567886, 1125.1948721153294 725.4581518303477 M1125.9696006660758 725.1589755506246 C1122.7601085274541 735.894925789889, 1125.866611206123 747.0163082470714, 1123.7645996477615 775.9117482901635 M1124.9045409128414 725.8496754672384 C1123.854228351244 739.147620448181, 1125.021866531713 752.6505834105708, 1125.8132870666584 775.9475622979872 M1124.5110903616026 775.0081252691623 C1111.8566486761756 774.624408448463, 1096.5236157403654 776.4646393345809, 1076.0465514736002 776.3780822164637 M1125.7748674105721 775.9025933707755 C1104.8502061971205 775.1211890997366, 1086.7880704234283 775.5388191503588, 1075.1671247131824 774.6882274783753 M1074.8610693144255 776.8058151035768 C1075.0618717893908 763.6938602312204, 1076.6289441936435 753.9023508969759, 1074.7843527005973 723.8345990983545 M1075.722460172908 775.6579303601936 C1075.4121520013541 760.5988487550595, 1075.7497444073952 744.4527013002725, 1075.0262914566056 724.7891222843465" stroke="rgb(0, 0, 0)" stroke-width="1" fill="none"/></g><text text-anchor="middle" font-family="Consolas, Courier" font-size="20" fill="rgb(150, 100, 28)" x="1102" y="755">idz</text><text fill="rgb(0, 0, 0)" x="1156" y="605" text-anchor="middle" font-family="Consolas, Courier" font-size="20">:</text><g><path d="M1177.4957864359262 573.0008666760967 C1193.759270748923 574.8833793499581, 1211.2135950360441 574.7690176950418, 1235.1166154975397 575.622473007486 M1175.7094427330844 574.8670041481515 C1194.0253704127967 575.636884408601, 1212.181373099458 575.6510249315407, 1235.3119257043725 574.1968850544062 M1237.70394691252 576.414413702171 C1237.9323810015335 593.053479750204, 1237.6636772035065 615.0407792066565, 1236.7793158259503 623.8579288846411 M1236.5726437666158 575.9130411799349 C1236.0660400406437 593.2257021886624, 1236.8855182096684 611.1183162468379, 1235.5498966051873 625.0315799269702 M1236.9037219033594 624.0191203897184 C1211.055159158531 627.1661789515676, 1187.0019285186465 624.8599955804033, 1177.1630886518521 624.9026664944171 M1235.6052890331218 624.1971106945932 C1214.36637498563 624.30930594136, 1191.3418580803725 625.1481683424055, 1175.231541195403 625.1328371745489 M1177.6524163982317 623.2962362093907 C1174.9926911140865 611.2006336337357, 1174.9523657441168 596.7236339353464, 1174.9001985309542 573.3548770270065 M1176.6375240206212 624.6215829394099 C1175.8577031774462 609.0676782167766, 1176.752903673934 594.2576671092896, 1176.0662666433634 575.0150652723703" stroke="rgb(0, 0, 0)" stroke-width="1" fill="none"/></g><text text-anchor="middle" font-family="Consolas, Courier" font-size="20" fill="rgb(150, 100, 28)" x="1206" y="605">id81</text><text fill="rgb(0, 0, 0)" x="1156" y="680" text-anchor="middle" font-family="Consolas, Courier" font-size="20">:</text><g><path d="M1176.887666998675 651.3326118402648 C1192.5652562535345 649.1595709567304, 1211.5352489934705 650.0014390578591, 1249.7651990214015 648.9819843222836 M1176.6188497924536 649.8797374723958 C1191.7461426718314 650.0844088138967, 1208.7320610800589 650.4586872973971, 1247.1040500681415 649.3949834747849 M1249.757474762712 649.1252828456907 C1246.9201123842859 660.9533649465342, 1246.468918875236 674.0968687913359, 1249.3391389500082 699.4626058196691 M1248.6450984077214 649.0320705251936 C1247.8996440946282 660.6902742417625, 1248.0311138621275 669.4140928819475, 1247.5067458082392 700.4778868731377 M1247.1653333790541 701.1982469762377 C1222.1146568219822 699.8144763100347, 1200.0591693993297 699.5315926819194, 1176.6308619026638 700.9400440624706 M1248.794808186543 700.2812143296519 C1230.6254394831976 700.1034540708583, 1213.6160216984576 699.0241498695635, 1175.4058634829084 699.4793129658233 M1177.5931113415543 699.8484945665324 C1175.9409866537908 681.9275572019853, 1174.567843188774 668.0903879443728, 1174.6162476104646 651.0013456914977 M1175.16767557325 700.004252610685 C1175.254889429174 687.3657018279297, 1176.8963919131963 676.5236109866611, 1175.2992073771936 649.653856049576" stroke="rgb(0, 0, 0)" stroke-width="1" fill="none"/></g><text text-anchor="middle" font-family="Consolas, Courier" font-size="20" fill="rgb(150, 100, 28)" x="1212" y="680">id100</text><text fill="rgb(0, 0, 0)" x="1156" y="755" text-anchor="middle" font-family="Consolas, Courier" font-size="20">:</text><g><path d="M1174.3846286037747 725.9764119111812 C1199.3232201691064 723.3400924403454, 1222.1305715121816 723.3423432830954, 1247.1092017935619 725.2669714864726 M1176.5499064137582 725.896355603098 C1202.2709760343732 723.650616457353, 1228.4191745539767 723.6447744243503, 1248.2730195004403 725.333880667158 M1247.6581830346129 726.1035179293945 C1248.677642656572 743.5306925136972, 1249.3981983219642 758.83228643449, 1247.7749465611942 775.953523039963 M1247.5881194005578 725.8950114452379 C1248.8551434973333 743.0874225725022, 1248.2377716331152 761.1482165442882, 1248.5555071204717 775.3519136242634 M1247.2155108151821 773.9722336529852 C1230.4809601704396 776.7912205580482, 1211.1612801518436 774.5362868844638, 1175.9820818720973 776.0587506218227 M1248.1505812960856 774.3478374055929 C1230.626107711203 774.522440307536, 1214.4899522961412 774.1841080933167, 1176.4333753252486 775.353894769126 M1175.6439814117039 773.6125070760431 C1177.6529098387898 763.3947122883337, 1176.3678115319722 754.0150385074385, 1175.7151814395024 726.0179130083873 M1175.5354336243272 774.9862331430903 C1176.111718726779 759.873439609507, 1176.1808925660557 745.0750609189554, 1176.8137960655392 725.0329584877849" stroke="rgb(0, 0, 0)" stroke-width="1" fill="none"/></g><text text-anchor="middle" font-family="Consolas, Courier" font-size="20" fill="rgb(150, 100, 28)" x="1212" y="755">id121</text><g><path d="M1050.5708219262556 499.02963665752935 L1262.0578667649074 501.9862853238495 L1263.201766342411 799.3148099925834 L1050.7182189025582 798.5378603259934" stroke="none" stroke-width="0" fill="red"/><path d="M1051.3819408978036 498.7556324244938 C1105.590115527223 500.2793476045768, 1159.0073423824824 499.12993269289024, 1260.8144848117183 498.8255423564019 M1049.5559613670755 500.607740115399 C1125.156814800687 501.11789024081463, 1199.4999221817327 501.73092746717066, 1262.6853071515463 500.08044575309566 M1263.3301099738862 500.7246765328893 C1262.2167880983252 595.978015859628, 1263.9621629579904 694.4650295135175, 1260.7486499939225 800.377571970238 M1262.2046500037675 499.77274099331623 C1263.041603724015 562.1531018402756, 1264.2321360593023 624.0720774250508, 1261.8225923347056 800.066926878774 M1261.8647130361405 800.4016374376652 C1181.6922332032802 802.7786395236043, 1098.262850338942 801.8175091421455, 1049.8332933061397 800.0414158157863 M1261.973935414449 799.6014977744231 C1183.209252169766 798.6420274830108, 1103.5117879754594 799.1438810029297, 1049.2352743177576 800.8468824092442 M1050.4229829465455 800.768022386469 C1048.8565466912457 693.7949540364149, 1048.9529096075564 589.4476130213417, 1050.1091873650823 500.06415647251885 M1049.3995667375536 800.3036505464127 C1048.3401691687839 714.5858513013354, 1048.337651514005 628.8947092282648, 1050.0608206879972 499.943933614858" stroke="#000" stroke-width="1" fill="none"/></g><text fill="rgb(150, 100, 28)" text-anchor="middle" font-family="Consolas, Courier" font-size="20" x="1080" y="530">id10</text><text fill="rgb(27, 14, 139)" text-anchor="middle" font-family="Consolas, Courier" font-size="20" x="1232" y="530">dict</text><g><path d="M1051.714851244808 500.0635016999538 L1109.7539911746364 501.34264761532927 L1109.6338800438514 549.546546875545 L1050.365371996607 548.9204172183579" stroke="none" stroke-width="0" fill="red"/><path d="M1049.4984152645864 499.02693558922954 C1068.8805358858785 499.16963716798904, 1085.4202562885368 501.52475289822394, 1108.1287679916238 499.9461759158291 M1050.5141112034669 499.20260537579816 C1072.8953181957272 499.4492072253502, 1096.3204479744202 499.44026088340087, 1109.2244624856362 499.45930653332596 M1111.6305879547888 498.940541812084 C1110.4160578459205 513.4951516185058, 1111.948404649789 528.7694678876554, 1109.3909805433868 550.1780523534649 M1110.6205737982707 500.4146091179347 C1109.1922324003936 509.8892371647008, 1110.402945667005 521.6653597267442, 1109.2606323492448 550.8507076429543 M1109.4983970104067 551.8622175912993 C1097.9416379843 551.3029187308398, 1084.0377420924212 550.7805617471299, 1049.2517912381359 551.9517437159864 M1110.5380640072565 549.7841268320556 C1094.2514146400713 550.1115936604873, 1079.5014988511866 551.2000907480434, 1049.7744098190233 549.1217371782556 M1048.516973261191 551.0994959200416 C1050.3333078168591 539.2338291506345, 1049.1174631030874 525.5581725000816, 1051.479315921478 501.04843027922436 M1050.2177798965834 550.8415313062881 C1049.3255826836446 530.530989549787, 1050.4167642026064 511.3775200070162, 1050.5903529869781 500.0508312037413" stroke="#000" stroke-width="1" fill="none"/></g><g><path d="M1201.6529198762694 499.8091494421794 L1263.1822165579727 501.33621951545297 L1261.5806744005838 548.917979975094 L1201.4853401200824 550.1080455242626" stroke="none" stroke-width="0" fill="red"/><path d="M1202.419685874486 499.73804036851243 C1217.5364924331955 499.76352686528026, 1231.97810698711 500.06282263949305, 1260.5526099294511 499.6485801591451 M1201.6853569410252 499.0124481665844 C1215.361061862526 500.506777497275, 1227.272011168748 499.63197383743005, 1261.235184729639 499.972903549916 M1261.8041278575786 498.98265855526125 C1261.913480440359 516.6133032159063, 1263.195109954458 529.321674762277, 1260.957616143096 551.4418585843329 M1262.0332850227385 499.51307306342795 C1262.1785318468137 513.8965969327002, 1263.0374771196734 526.374422988015, 1262.5119500338574 550.9747216983505 M1260.9932652883465 548.0612165486604 C1240.3672110685245 551.0372957704747, 1221.3863068540795 550.4083489946207, 1203.6465410541464 550.3605217211286 M1262.3584641905406 550.8577746079867 C1239.9095094427469 549.2444412834813, 1217.4748955150696 548.8803600197662, 1201.8342853547788 550.7291316208413 M1201.0201858641938 549.1589325894441 C1200.3014711564874 539.2796105403072, 1202.949096267954 527.0319709601724, 1203.138228672315 500.7128236718696 M1201.23420280588 549.6698755351067 C1202.3676097629716 532.0028881853452, 1201.4883567037118 513.9747189186851, 1201.1587290325551 499.53881562954683" stroke="#000" stroke-width="1" fill="none"/></g><g><path d="M749.7462896601912 748.8285668237029 C818.2677626855415 750.1083464934879, 885.1582618124455 747.8383290682941, 948.7123304207923 750.5591483159712 M749.9007811201809 749.7619723829747 C790.825924040767 747.4900090361858, 831.8902082762762 749.0875139774156, 950.1653049477997 749.2771253019068 M949.9282928297271 750.9267166660637 C949.1285939040902 787.7697567505953, 949.7246062048644 827.5934684642837, 951.1262883391414 881.5691709569186 M949.4960986758397 750.8879930310582 C951.5110902230194 794.4552933417425, 951.5156312920134 837.4836508283882, 950.371547565643 880.0793831928667 M949.513759566671 881.4343923391714 C892.8601942884573 880.3609970319594, 834.4455645128673 878.0087646257209, 751.3328612026867 879.2982087866733 M949.3577611295003 879.4090272302526 C906.1046405270905 880.9977461652065, 862.172236376397 880.678485578428, 750.1299148979723 879.8723937481456 M749.5986305366034 881.5163663899281 C752.6111289425778 845.0727377533861, 752.0560956305279 808.677207067915, 749.9980205383746 751.0787657498574 M750.5551009488216 879.6560504768895 C750.1516418260414 833.2781421755684, 751.0849131927503 787.7228497403992, 749.0847165505675 750.3144003324616" stroke="#000" stroke-width="1" fill="none"/></g><g><path d="M744.3195741842685 745.0253879633724 C793.927346982381 743.7002958317067, 844.8572597752884 740.719457425665, 956.9178845954686 745.4061805000126 M744.5394224692973 743.9053246131039 C812.826903171214 743.8992823626314, 882.04797822443 745.1163135129838, 956.2372543288949 743.872658117508 M957.9735262630724 742.8163117915684 C955.3569346605975 785.4041006172838, 957.1076016917096 830.4414805153285, 957.4032170041985 884.4895208757408 M956.1448103634959 743.9510161653984 C955.0313762135191 792.2111773680521, 954.7137579192078 841.0869727934044, 956.529785663561 886.3995250872805 M957.3813861884898 886.3249529191529 C910.993042417512 882.4686733408203, 869.1765341520651 884.4229799958327, 744.5884707894938 885.8197850213786 M955.7436614508214 885.9776544481736 C899.0536829518776 885.7146492285366, 842.1532773227601 884.2716333678372, 744.2777063837117 886.5032756900695 M745.180175959883 885.4797876864108 C743.7093451445577 844.7449566098085, 744.8686258679163 800.7093711162752, 745.3784432880302 743.5379889735693 M743.8187047068614 885.6325355545849 C743.9966995445747 836.3383673453155, 745.392367912536 787.2278264291558, 744.2818720923826 743.4535264843529" stroke="rgb(0, 0, 0)" stroke-width="1" fill="none"/></g><text text-anchor="middle" font-family="Consolas, Courier" font-size="20" fill="rgb(27, 14, 139)" x="850" y="840">"None"</text><text fill="rgb(150, 100, 28)" text-anchor="middle" font-family="Consolas, Courier" font-size="20" x="780" y="780">id13</text><text fill="rgb(27, 14, 139)" text-anchor="middle" font-family="Consolas, Courier" font-size="20" x="920" y="780">None</text><g><path d="M751.8544997569251 748.4997112503206 C768.1215091435489 748.4157594780888, 785.1806067843077 750.2638737048076, 809.3056064487583 750.2377897612691 M749.0979591637927 749.9162101525278 C765.1212971451743 750.5397467795425, 778.2326484993679 750.3270389832395, 810.0136390700313 750.7321750897759 M811.0260326463239 749.7485086989185 C810.0953344798711 768.7771782503705, 809.5364774725022 785.4789934701731, 811.8526809156427 798.2338929521386 M810.2585923852605 750.461798202446 C810.1685482842923 769.2103872557042, 810.3721525270317 787.4290345495325, 809.9564696998722 799.0879934188857 M811.3942897129779 800.3525336371777 C795.8113351710639 800.7003096336158, 781.0081772444946 800.2696301117528, 751.2674578172687 799.5525187453538 M810.1632408349766 799.9324489110502 C790.3766419889789 800.7432064210774, 767.9019570608167 799.4354289081822, 750.6920797481606 800.8159482999728 M748.5085181482442 798.8278860529005 C751.5738310461431 785.3264145176429, 749.7798819617223 770.9792572416338, 749.8099773816333 750.6645795433758 M749.1263960784158 799.0382441331121 C751.0734819702144 783.6467990746268, 750.7707562260528 766.9498087592625, 749.701130071219 749.9239972722588" stroke="#000" stroke-width="1" fill="none"/></g><g><path d="M891.59229539899 751.8168912140293 C911.2960619979 752.234955867198, 933.3761427907663 750.5175334219554, 948.9249938128328 749.5407757071266 M889.7093833656919 749.3027259713679 C910.7580903697232 750.6435895566824, 932.3770399092152 749.012363065289, 950.752587284692 750.5334498901332 M950.3831107305057 750.8450566631673 C951.0738588730047 766.7352742820756, 951.9896742065594 779.6340138306862, 950.9094130527856 800.4761514686627 M950.3668437417115 750.6834041225468 C950.2007500781818 768.7920566672942, 949.1103793217577 786.6663971004918, 950.5231152588823 799.1010478733391 M951.0765048442554 801.499225360737 C938.0304823793339 798.6016672952497, 921.8948757033517 799.0873565997236, 889.6100631175904 798.6796503205431 M950.162793167229 800.782844507975 C926.3978168157241 800.4844206469237, 903.5140653538049 800.1824756542129, 890.5305596517599 800.8297854283605 M889.395100634751 800.6550604091152 C891.4431297336901 786.1704963191752, 889.940405076627 772.1610574703902, 888.9159859474531 750.6763873508839 M890.4651519479114 799.0997595482239 C890.2825450148167 784.1846506820992, 889.0565524196145 767.0139047900021, 889.0745045350978 749.822550262607" stroke="#000" stroke-width="1" fill="none"/></g></svg>