<svg width="1300" height="800" xmlns="http://www.w3.org/2000/svg"><g><path d="M25.758846233583817 31.61651003588237 C73.97976440139432 32.73503635317274, 120.40465025438922 32.09285754867586, 223.79073975995163 30.163580248540203 M25.847386202470553 30.56846762383022 C84.92842857445545 31.364171253737275, 146.74138027754196 30.63532953667818, 223.68173634124005 29.639750150526886 M222.79736464541918 29.640219499952508 C221.31464002390408 195.99480526392372, 220.85130998006935 362.7142938933678, 223.41151834867026 479.6945479834817 M223.23182164697874 29.678267218413296 C224.2433015084808 134.86979278651708, 224.82490698643207 240.51364033564417, 223.09487745666675 479.95614849482166 M221.90662722430932 481.64358704318016 C148.61654750070807 479.8237417110198, 76.86519329462489 477.9495602714352, 26.31479482084025 479.42861318397235 M222.70985900506113 480.65010017833754 C148.0486052150661 478.29024351679936, 71.47376878365641 479.8316154489209, 24.36988519374668 480.08429560951805 M24.545274424655304 479.67063054919015 C25.311350151919466 330.75800749433256, 25.352955873008817 183.5925176155796, 25.917472761934572 29.885030708584843 M25.033926668403907 480.47585616698973 C25.3234711930487 384.8785006036883, 24.462649270792237 289.44863872918035, 24.745867149317217 30.44247183577078" stroke="#000" stroke-width="1" fill="none"/></g><g><path d="M149.11205469071953 104.21970775869168 C164.78676739375555 103.64542849630809, 179.47268077000567 105.14800121716262, 205.75629832350606 104.9854843107434 M148.50622746439163 105.77235644256676 C169.05555657620872 105.20873943477868, 187.8688505593873 104.59755610400661, 206.07889340447414 104.62438097316908 M206.02709572827433 103.90472483641037 C203.96712782466864 118.91954185120953, 207.578730987839 131.65805908220352, 205.89361217853238 155.3261727956062 M206.40469254208486 105.44435951257809 C207.27948583585473 120.58526552995872, 205.7283636797145 135.47798202341613, 206.8632884569773 154.8163062042754 M207.51829575132788 156.87147110812128 C188.01341389268435 153.68324304068517, 168.58907097755727 156.89425015355565, 148.72721938398817 154.29982568001537 M205.08144273569138 154.2028826158816 C183.0591132408595 155.65874886041564, 159.48795454686234 155.63703203014657, 147.19012203647344 155.12277376013853 M149.4164642977297 154.66367596761097 C148.42921735476108 137.0143159546308, 145.67500101095473 124.66365179842737, 147.40088972403166 104.8231005064596 M148.54324675731146 155.06878791807077 C147.73099621092044 144.4802138239963, 147.0080681311114 134.1583720281464, 148.982174729427 104.36478002798027" stroke="rgb(0, 0, 0)" stroke-width="1" fill="none"/></g><text fill="rgb(0, 0, 0)" text-anchor="begin" font-family="Consolas, Courier" font-size="20" x="50" y="135">lst1</text><text fill="rgb(150, 100, 28)" text-anchor="middle" font-family="Consolas, Courier" font-size="20" x="177" y="135">id82</text><g><path d="M146.8633320457998 180.2818503610368 C163.24481005859573 179.85045799882772, 180.20622253392466 178.70803419084322, 204.71997789734252 179.54780123449285 M148.5876189651137 179.57024214416379 C167.20411305006428 180.2963839037286, 187.1758913317995 180.22071014877793, 206.17361641338994 180.74608582760533 M205.05343380440155 180.22761732557206 C205.5027297571326 194.15527351984582, 205.46656715031483 208.9765782819226, 207.01130993645404 228.16454209573507 M206.60315203146956 179.40597247543357 C206.09446334643752 192.53367314285526, 204.91287739840698 206.48975827348312, 205.09753331435377 229.19425639223346 M207.14226752147047 228.17542274377905 C194.9426841440459 231.20773683878542, 182.59161976135985 232.01495859954113, 147.5952124872738 229.50576490985935 M205.362063800366 230.48218840186001 C191.436935482205 228.84601347549352, 177.06184155530977 229.76673493839175, 148.13101129152605 229.2485404300067 M149.74794044096805 230.2904871648774 C147.63703735602266 212.4203798510067, 147.8789570278325 196.31689975309038, 146.17492102677568 178.18866224348997 M147.9068191959821 229.84282955280335 C148.0171906692802 217.78806095984322, 148.56636165231322 204.77296439870508, 147.3667452299048 179.23711951667337" stroke="rgb(0, 0, 0)" stroke-width="1" fill="none"/></g><text fill="rgb(0, 0, 0)" text-anchor="begin" font-family="Consolas, Courier" font-size="20" x="50" y="210">lst2</text><text fill="rgb(150, 100, 28)" text-anchor="middle" font-family="Consolas, Courier" font-size="20" x="177" y="210">id84</text><g><path d="M147.79455239388386 255.76169859950804 C162.09845915184235 255.1953147106921, 173.46568907130882 256.10240676722896, 204.57520428634479 253.31070897219303 M147.2147550920816 255.5941380322399 C162.77826979056508 255.47627053999685, 177.27272842967352 254.98420980890353, 206.21679813825784 255.3993681170042 M207.20669727878808 254.28548400947776 C207.7537997022491 268.5143614063486, 207.58053673975792 281.99816168201926, 204.96638448729755 306.0675904769767 M206.71049164014494 255.27703724939485 C205.9647672040816 273.67215252136344, 206.51373843909494 293.9187647125981, 206.58440728913948 305.72773382843997 M207.1119586606008 305.1078797129023 C186.0111603451801 303.99104510169894, 165.78503070782915 303.277541617785, 147.35246822964822 306.38347940009214 M206.63571545733785 305.682771728241 C187.13083788278766 304.56826175880786, 168.41886999370467 305.4327150514243, 148.69129315551402 304.91782505511645 M147.43664047661107 305.4869685527298 C147.52722591406422 293.38491247954926, 146.1298225193685 281.0686020296639, 147.53370297068668 255.47837255522694 M148.48310857190603 305.20182529437756 C148.36258024484397 290.23835921528706, 148.32730988323897 274.2000381597742, 147.99444705735047 255.96585269093748" stroke="rgb(0, 0, 0)" stroke-width="1" fill="none"/></g><text fill="rgb(0, 0, 0)" text-anchor="begin" font-family="Consolas, Courier" font-size="20" x="50" y="285">p</text><text fill="rgb(150, 100, 28)" text-anchor="middle" font-family="Consolas, Courier" font-size="20" x="177" y="285">id99</text><g><path d="M146.00932825420455 328.66378302189247 C169.62058957379114 330.41108463516235, 191.97577518427582 329.8513663298291, 207.6902928091634 330.18258424629295 M147.15371604790914 330.7720901801111 C164.63283548650193 330.94466712991846, 180.77597673807833 331.1924269207023, 205.59639779591504 329.16453188019926 M206.89787573809335 330.26443463902064 C206.9047919348826 342.36257018461936, 204.4195568039444 358.7359337165686, 205.05288836612775 380.2267334365223 M205.30356156983078 329.9825064660465 C205.48288667728363 342.2408701595387, 205.06433109556727 354.49780947881993, 205.4966914206636 380.491666167037 M204.37495059165335 379.3099338660802 C192.6905572787218 381.24244289983034, 177.53554330753562 379.1000127891803, 146.53672469288784 380.71562519838625 M206.06203685619136 380.0294498963034 C189.50451312018507 381.3387498005348, 171.17550170918892 379.89530107243286, 147.7426222554369 379.5683780524417 M147.2600398501247 381.455796151454 C148.85989059663183 365.5954045702273, 150.29024873100803 349.4315534568182, 148.14576925331403 331.3322422033194 M148.42837329576813 380.60178285552706 C148.4544269947234 370.7545070190221, 147.73989446428487 360.70338905232, 148.35976349471179 329.48780522380184" stroke="rgb(0, 0, 0)" stroke-width="1" fill="none"/></g><text fill="rgb(0, 0, 0)" text-anchor="begin" font-family="Consolas, Courier" font-size="20" x="50" y="360">d</text><text fill="rgb(150, 100, 28)" text-anchor="middle" font-family="Consolas, Courier" font-size="20" x="177" y="360">id10</text><g><path d="M149.2177358709881 403.67936134973417 C170.9476883203124 403.64550491439417, 194.9118453047 405.9903437330526, 207.8043760664323 405.7913425511999 M147.1179499982088 405.06337765372734 C164.80586136473954 405.1096162397681, 181.0954100873694 405.3632935189991, 205.60798560953705 404.716541488546 M204.3550711280858 403.0249009121715 C207.14379030336835 419.20241371963675, 207.22200919565327 432.40019161497185, 204.5570129270308 453.2674843700727 M206.70442371528097 405.3485800600438 C204.70791496287845 415.77600850834915, 204.83713852667123 427.43825464641037, 205.4349624970043 454.4348320661248 M206.30451051292908 453.22629026617005 C190.8633816339234 455.2780564662678, 174.54467044828982 453.1398844745834, 149.2147535976086 453.3012994617179 M206.4241561585271 454.94098664073823 C194.1581982498108 455.21492932995113, 181.49686243103446 455.4237308564758, 148.81188860085763 454.50494174307676 M147.21192722463365 455.45472751295097 C149.68220575455862 445.33854872440554, 148.24830857915012 432.5558103599801, 149.98036598144975 405.3820526574649 M147.276806306121 454.22623028055773 C148.59629348891687 443.8854796094444, 148.74227637906142 432.4437134399851, 148.19769819666095 404.421011362104" stroke="rgb(0, 0, 0)" stroke-width="1" fill="none"/></g><text fill="rgb(0, 0, 0)" text-anchor="begin" font-family="Consolas, Courier" font-size="20" x="50" y="435">t</text><text fill="rgb(150, 100, 28)" text-anchor="middle" font-family="Consolas, Courier" font-size="20" x="177" y="435">id11</text><g><path d="M24.018578653898825 31.494200669929842 C58.08503813657365 31.547757746415584, 91.22936003077095 31.19193609378368, 130.0257232815909 29.396449501906854 M25.757289944936378 29.840325819025715 C60.904851568726315 30.6085968563686, 97.9189719024638 30.861605378173007, 131.05323748223168 29.316999262685687 M132.19786837864737 28.174192200599602 C132.5495975620455 46.43272903318403, 131.38252353713202 58.8306615139133, 131.28382814494645 79.66745654894412 M130.85339396256686 30.14227371669809 C129.80912421485283 45.356742579767285, 129.7834946466535 59.77684810219535, 131.47375985753214 79.64691248093615 M129.94403806304695 80.45056075458817 C90.46600474589428 82.08289890387931, 52.47008460768869 82.21439908322395, 23.138964973653657 81.94231992451783 M130.2307907853635 80.93263678842405 C106.86185648875941 80.97311216549188, 82.56020180974072 80.19082996238897, 24.802523278435235 80.59865656124067 M24.760460373593663 79.26008723169826 C25.58645798902786 67.36871116555821, 23.145268519474378 52.569274373987994, 25.274528006633783 31.75453145281167 M25.148227922006665 80.35336581847712 C24.71759926158883 65.910806476683, 23.824300017981805 51.48089682042456, 25.26722911203234 30.452034885518835" stroke="#000" stroke-width="1" fill="none"/></g><text fill="rgb(0, 0, 0)" text-anchor="middle" font-family="Consolas, Courier" font-size="20" x="78" y="60">__main__</text><g><path d="M23.605949371243156 479.41233984714466 C98.40358227698923 481.66774625009225, 172.25277342769633 481.0923489017264, 222.4566193077849 479.18775099709194 M24.154757900101842 479.439916335089 C86.06163659791032 478.91560658574633, 149.68273616098244 478.69244622563497, 222.05186374250965 480.9979727905766 M223.0762205175476 481.15270830609415 C223.17601203153572 558.5326346392033, 224.916705712908 633.7753101403842, 224.30754596586863 703.8586088097505 M222.81035012779657 479.9534638283084 C221.53634509595605 545.764663686557, 222.05460469584392 611.2532008146108, 223.17558875880025 705.7527954542128 M221.1648619405669 703.9427808497486 C161.0825612957918 706.4090009401638, 98.26984688358652 703.574527776833, 25.52115030027482 703.0880654909196 M223.30904785333416 705.3692606961833 C165.8280232319854 706.1819538900545, 110.39135374207399 705.5735009816989, 24.23435366500206 704.4155922601196 M25.514899977702534 704.5221533669348 C24.64655920672303 657.9372859144448, 24.51631931261737 609.4025898150692, 25.41467298246827 481.4540617122921 M25.705746891456847 705.590985738052 C24.265283044628802 636.9615623771159, 24.818905734331867 571.1059466612229, 24.91145924678808 479.2405269524946" stroke="#000" stroke-width="1" fill="none"/></g><g><path d="M147.42670456930506 556.6104502067233 C169.99745959183647 554.55146025525, 193.50448612339815 555.3566915071941, 206.46685211526986 556.2520045103257 M148.16122385038642 554.8028549382929 C166.10131415328019 554.9607071882522, 184.83465491646598 555.8459124546478, 206.86463831920412 554.0401473511072 M206.88582664496494 554.2848212295689 C203.67516072575856 574.2147745921309, 204.18980801073943 591.3915404436267, 204.02455539755658 606.9466656307789 M206.87354899443358 554.3670022249786 C206.77930714580566 565.3809250408351, 205.91110392041153 577.6059343356181, 205.60048498236594 604.7989024273337 M204.9006193046147 603.6871376391642 C192.49259310951197 604.4589428576693, 176.5942131553029 604.2256240751095, 146.23112105599927 606.7193057907865 M206.44532705170332 605.5635278259361 C192.23198313846882 605.2316165842834, 178.1078068923355 604.8097376461728, 148.96566138684818 604.2828113294931 M146.18777856501706 604.6912987455629 C148.30599107859948 596.7526617258335, 147.6503163067216 584.6468370823642, 147.7933580782704 555.0128009405188 M147.47837443464968 605.0855192776629 C147.7791456146165 590.5196868929621, 148.17569211885242 575.3531568424081, 148.3294273162459 554.50025884252" stroke="rgb(0, 0, 0)" stroke-width="1" fill="none"/></g><text fill="rgb(0, 0, 0)" text-anchor="begin" font-family="Consolas, Courier" font-size="20" x="50" y="585">age</text><text fill="rgb(150, 100, 28)" text-anchor="middle" font-family="Consolas, Courier" font-size="20" x="177" y="585">id12</text><g><path d="M146.87949760450948 630.5430590653892 C164.10333977533 627.8648615838658, 183.257702112205 631.3578812186333, 206.399537345159 630.5237869083609 M148.8897077491695 629.8722715745565 C169.81321599023153 629.9560571437834, 192.4316607796864 630.6477972223036, 206.85712305913046 630.8702714357634 M205.00729429519717 631.6548369081404 C205.74538938373829 646.2828187791199, 204.8265684415438 656.9212298025914, 204.55717375905155 681.8494800838478 M205.65201259586746 630.6125638748598 C206.21999616884543 645.7015829250286, 206.62181317613906 661.5285764117045, 205.15213200357246 680.2988009085673 M206.57970507472362 681.5813011132682 C191.62438754166334 681.3775927196521, 176.2243102673852 680.0809792125917, 148.0698071838293 680.275635041625 M205.93218649108434 680.5447975888649 C184.34065168889356 678.9420617067099, 161.52628276057558 678.790995111273, 148.94160105424993 680.8258617472177 M148.77275901679351 678.838684602387 C147.65603609525638 670.903359011252, 146.46626542024936 660.0495624158929, 148.66990574305245 631.585721379786 M148.94298572280934 679.8929711013867 C147.42003181248967 660.9904867372472, 146.81818612375324 643.447290829086, 147.74495997982012 630.9373348801952" stroke="rgb(0, 0, 0)" stroke-width="1" fill="none"/></g><text fill="rgb(0, 0, 0)" text-anchor="begin" font-family="Consolas, Courier" font-size="20" x="50" y="660">name</text><text fill="rgb(150, 100, 28)" text-anchor="middle" font-family="Consolas, Courier" font-size="20" x="177" y="660">id17</text><g><path d="M23.35744532119414 481.20638566036985 C59.65631286363949 477.7195331265798, 89.62652163390956 480.51511670860134, 107.02107737961151 481.47481245376554 M25.78223220852169 480.0844498754784 C54.962979854121464 480.89368995212794, 86.38096775890888 480.0922937436402, 106.41217381149018 479.1874492392184 M106.92746396574378 479.0570282169905 C106.57281701730496 498.13140521756657, 108.8301379230417 511.49698829297824, 108.58920303364741 531.0519458788814 M106.81792051343064 480.6753416205599 C107.60780912012682 491.29817089524664, 107.86869224957381 504.3259865847241, 106.52337609657901 530.879022922072 M108.43978755159523 528.108098488212 C81.89716832846099 530.9463480674148, 54.73104151571403 529.8272324317529, 26.298007283284633 529.0565390708011 M107.45377850077612 530.3599671715203 C84.4572601636945 530.6949790222211, 62.8074154254916 530.4120596320345, 25.895628545539786 529.3773487395073 M25.03465931413418 529.0067308319701 C26.83387209770403 518.8745552620514, 24.870008146384706 508.4058219762095, 26.790353252217756 480.3443098877248 M24.33411052693109 530.6608441543672 C24.42870194615124 510.47883529211333, 24.317521095562256 491.67742835635033, 25.170797369671707 479.45849538042796" stroke="#000" stroke-width="1" fill="none"/></g><text fill="rgb(0, 0, 0)" text-anchor="middle" font-family="Consolas, Courier" font-size="20" x="66" y="510">Person</text><g><path d="M23.601855257228827 704.1316268111468 C83.66461762876195 705.2249502626116, 145.79026789058878 708.0170173295865, 221.78124592437774 706.7207704129946 M24.941779923832303 705.821377981051 C67.33326457026072 706.1836421374716, 110.70499598554468 704.8813766988858, 222.1183241779316 704.5393935439893 M224.6445654086145 705.0907972219351 C222.06880770782362 779.2651701675042, 222.42799830532098 856.3450821145548, 223.98998453582675 929.0663117519923 M223.53791851012235 704.8859488801443 C220.93016213856788 765.081909505383, 222.05583218083302 823.7810808419024, 222.17139024086245 929.9637034676575 M222.67818640691846 931.581868276841 C184.12225529497908 931.4124150347741, 141.68612440923468 930.077504597044, 26.997420223194734 931.8036948515577 M222.56665147320334 930.9341482971124 C184.0379691338968 928.3958172488747, 143.04003722954917 929.2042863367104, 24.2254956318453 929.3902672148225 M26.430014396977263 931.3678938850726 C27.8572920347903 849.3926013934484, 27.154319088606297 766.500268509225, 24.388980249487098 704.307534238131 M25.725343928383555 929.9297096871251 C23.350163466063027 873.8532443686844, 23.231228315458008 817.395261951503, 24.74339294849779 704.7360894766125" stroke="#000" stroke-width="1" fill="none"/></g><g><path d="M146.1943402845135 781.5357437851998 C164.26788729525748 780.0835403534068, 183.67094215464343 780.0283263938857, 199.27561994761354 779.1203565707976 M148.86353224035742 779.2675021800443 C161.62457617646152 779.2683829979254, 173.0910527262893 779.6005470793788, 197.49604321721924 779.7570636779919 M198.20016233892923 778.5451555956628 C197.9865631683049 792.9311482775499, 198.6373054478768 803.379628418346, 199.7651162962913 831.9146081217871 M197.22243245389322 779.2045488675816 C198.35777988613904 793.1675259671265, 198.25542349035908 805.353049714191, 198.01734536225968 830.8892655106433 M197.5059435374129 830.5211224353137 C188.69193212716294 831.2374966417699, 177.8648574374947 831.298909548075, 149.82464352826997 830.8256443255098 M197.73468797495272 829.9100538172534 C182.56695489876475 828.9682583776971, 168.868176740032 829.052925997704, 148.89539649993122 829.5030803011103 M148.24815488735516 829.7455493068336 C148.73109121544567 815.9535666867484, 148.3884702803871 804.0478830790113, 149.8820164861896 781.6369709488762 M147.57044604903217 830.4283102274252 C148.08465101636577 815.6136796531066, 147.49985228933994 800.6576352413285, 148.00501178209697 780.3729958982541" stroke="rgb(0, 0, 0)" stroke-width="1" fill="none"/></g><text fill="rgb(0, 0, 0)" text-anchor="begin" font-family="Consolas, Courier" font-size="20" x="50" y="810">age</text><text fill="rgb(150, 100, 28)" text-anchor="middle" font-family="Consolas, Courier" font-size="20" x="173" y="810">id2</text><g><path d="M146.11387124414796 855.4195781060595 C169.23193374050155 856.7500434122933, 190.0001953346454 855.8140192403437, 205.7497648358244 854.1749227585727 M148.04757734684938 854.0316471192698 C162.82155942707 855.0754293891292, 175.4871976353261 856.3109143025753, 205.69960402465807 854.2722746230086 M207.23628055529846 855.5350348595517 C207.8780865084664 868.0519258814844, 205.6709650831295 883.1342379529137, 206.92229024771305 903.3116815246964 M205.20251293412014 854.2574345656533 C206.28761404008034 867.4800993432165, 205.20100062216818 882.7098940056568, 206.46594963101685 905.7457526942546 M206.7340225088035 904.5282778316237 C191.56057860521253 904.7426120626105, 177.22123435972378 903.3039600288843, 147.3024780461334 905.8472680295891 M205.05259657219014 904.5351167482257 C182.0881490170389 904.4392918708651, 159.8203124008578 903.6498154585523, 147.3925561237304 905.8734266309812 M147.98911751475515 906.6953820502928 C146.06924472050116 887.6344601857024, 146.35612812332906 867.3069640787797, 147.4846597067591 853.5488276533019 M147.65790495310617 904.7493518484156 C149.1920649290853 886.475308100309, 147.9936649817597 866.752473934484, 147.1541142062837 855.5729263959785" stroke="rgb(0, 0, 0)" stroke-width="1" fill="none"/></g><text fill="rgb(0, 0, 0)" text-anchor="begin" font-family="Consolas, Courier" font-size="20" x="50" y="885">name</text><text fill="rgb(150, 100, 28)" text-anchor="middle" font-family="Consolas, Courier" font-size="20" x="177" y="885">id94</text><g><path d="M23.116950803940906 703.4557532352507 C53.01973196211708 703.6839295213009, 78.8904844631411 703.835443155826, 107.98546083231348 705.5701123533877 M25.844376314135182 705.4990401571877 C43.11407847725172 705.2868643243818, 63.346602242421554 705.5099165315838, 106.04390961703042 705.8107353045849 M105.50226675994777 703.2686964429703 C108.4440279351557 719.5457628601647, 108.18822557936288 734.3245891569156, 105.92715251998733 754.2427398806173 M106.16168331377796 705.9781969264543 C107.41078853248335 722.3494623291355, 107.55227966705517 738.4193037571152, 106.39032609870964 755.567037695593 M108.50941897312376 755.4500307250094 C86.9172087860768 753.3524046055807, 66.16170726457919 755.1588215619282, 24.85525825243819 755.4849145722806 M106.1427655411309 754.3843004592212 C78.72653403976264 754.702047576106, 52.1400026581631 755.2642831374985, 25.295317001499246 754.7349657134894 M26.87352421507942 754.2238855879716 C23.92135376634773 739.5875660847145, 25.84273361227023 722.2662920710626, 26.45164512993587 704.0326998570047 M25.684164193495853 754.5343249426284 C23.87111247517542 735.4909007232658, 24.754303416406966 717.626321936075, 24.52269560041175 705.5813113167484" stroke="#000" stroke-width="1" fill="none"/></g><text fill="rgb(0, 0, 0)" text-anchor="middle" font-family="Consolas, Courier" font-size="20" x="66" y="735">Animal</text><g><path d="MNaN NaN CNaN NaN, NaN NaN, NaN NaN MNaN NaN CNaN NaN, NaN NaN, NaN NaN MNaN NaN CNaN NaN, NaN NaN, NaN NaN MNaN NaN CNaN NaN, NaN NaN, NaN NaN MNaN NaN CNaN NaN, NaN NaN, NaN NaN MNaN NaN CNaN NaN, NaN NaN, NaN NaN MNaN NaN CNaN NaN, NaN NaN, NaN NaN MNaN NaN CNaN NaN, NaN NaN, NaN NaN" stroke="#000" stroke-width="1" fill="none"/></g><g><path d="MNaN NaN CNaN NaN, NaN NaN, NaN NaN MNaN NaN CNaN NaN, NaN NaN, NaN NaN MNaN NaN CNaN NaN, NaN NaN, NaN NaN MNaN NaN CNaN NaN, NaN NaN, NaN NaN MNaN NaN CNaN NaN, NaN NaN, NaN NaN MNaN NaN CNaN NaN, NaN NaN, NaN NaN MNaN NaN CNaN NaN, NaN NaN, NaN NaN MNaN NaN CNaN NaN, NaN NaN, NaN NaN" stroke="rgb(0, 0, 0)" stroke-width="1" fill="none"/></g><text fill="rgb(0, 0, 0)" text-anchor="begin" font-family="Consolas, Courier" font-size="20" x="50" y="NaN">lst1</text><text fill="rgb(150, 100, 28)" text-anchor="middle" font-family="Consolas, Courier" font-size="20" x="177" y="NaN">id82</text><g><path d="MNaN NaN CNaN NaN, NaN NaN, NaN NaN MNaN NaN CNaN NaN, NaN NaN, NaN NaN MNaN NaN CNaN NaN, NaN NaN, NaN NaN MNaN NaN CNaN NaN, NaN NaN, NaN NaN MNaN NaN CNaN NaN, NaN NaN, NaN NaN MNaN NaN CNaN NaN, NaN NaN, NaN NaN MNaN NaN CNaN NaN, NaN NaN, NaN NaN MNaN NaN CNaN NaN, NaN NaN, NaN NaN" stroke="rgb(0, 0, 0)" stroke-width="1" fill="none"/></g><text fill="rgb(0, 0, 0)" text-anchor="begin" font-family="Consolas, Courier" font-size="20" x="50" y="NaN">lst2</text><text fill="rgb(150, 100, 28)" text-anchor="middle" font-family="Consolas, Courier" font-size="20" x="177" y="NaN">id84</text><g><path d="MNaN NaN CNaN NaN, NaN NaN, NaN NaN MNaN NaN CNaN NaN, NaN NaN, NaN NaN MNaN NaN CNaN NaN, NaN NaN, NaN NaN MNaN NaN CNaN NaN, NaN NaN, NaN NaN MNaN NaN CNaN NaN, NaN NaN, NaN NaN MNaN NaN CNaN NaN, NaN NaN, NaN NaN MNaN NaN CNaN NaN, NaN NaN, NaN NaN MNaN NaN CNaN NaN, NaN NaN, NaN NaN" stroke="rgb(0, 0, 0)" stroke-width="1" fill="none"/></g><text fill="rgb(0, 0, 0)" text-anchor="begin" font-family="Consolas, Courier" font-size="20" x="50" y="NaN">p</text><text fill="rgb(150, 100, 28)" text-anchor="middle" font-family="Consolas, Courier" font-size="20" x="177" y="NaN">id99</text><g><path d="MNaN NaN CNaN NaN, NaN NaN, NaN NaN MNaN NaN CNaN NaN, NaN NaN, NaN NaN MNaN NaN CNaN NaN, NaN NaN, NaN NaN MNaN NaN CNaN NaN, NaN NaN, NaN NaN MNaN NaN CNaN NaN, NaN NaN, NaN NaN MNaN NaN CNaN NaN, NaN NaN, NaN NaN MNaN NaN CNaN NaN, NaN NaN, NaN NaN MNaN NaN CNaN NaN, NaN NaN, NaN NaN" stroke="rgb(0, 0, 0)" stroke-width="1" fill="none"/></g><text fill="rgb(0, 0, 0)" text-anchor="begin" font-family="Consolas, Courier" font-size="20" x="50" y="NaN">d</text><text fill="rgb(150, 100, 28)" text-anchor="middle" font-family="Consolas, Courier" font-size="20" x="177" y="NaN">id10</text><g><path d="MNaN NaN CNaN NaN, NaN NaN, NaN NaN MNaN NaN CNaN NaN, NaN NaN, NaN NaN MNaN NaN CNaN NaN, NaN NaN, NaN NaN MNaN NaN CNaN NaN, NaN NaN, NaN NaN MNaN NaN CNaN NaN, NaN NaN, NaN NaN MNaN NaN CNaN NaN, NaN NaN, NaN NaN MNaN NaN CNaN NaN, NaN NaN, NaN NaN MNaN NaN CNaN NaN, NaN NaN, NaN NaN" stroke="rgb(0, 0, 0)" stroke-width="1" fill="none"/></g><text fill="rgb(0, 0, 0)" text-anchor="begin" font-family="Consolas, Courier" font-size="20" x="50" y="NaN">t</text><text fill="rgb(150, 100, 28)" text-anchor="middle" font-family="Consolas, Courier" font-size="20" x="177" y="NaN">id11</text><g><path d="MNaN NaN CNaN NaN, NaN NaN, NaN NaN MNaN NaN CNaN NaN, NaN NaN, NaN NaN MNaN NaN CNaN NaN, NaN NaN, NaN NaN MNaN NaN CNaN NaN, NaN NaN, NaN NaN MNaN NaN CNaN NaN, NaN NaN, NaN NaN MNaN NaN CNaN NaN, NaN NaN, NaN NaN MNaN NaN CNaN NaN, NaN NaN, NaN NaN MNaN NaN CNaN NaN, NaN NaN, NaN NaN" stroke="#000" stroke-width="1" fill="none"/></g><text fill="rgb(0, 0, 0)" text-anchor="middle" font-family="Consolas, Courier" font-size="20" x="78" y="NaN">__main__</text></svg>