<svg width="1300" height="912" xmlns="http://www.w3.org/2000/svg"><g><path d="M79.78083927749705 48.41921943091459 C129.44427532007342 47.65331181360575, 177.72360927376397 49.04308737884138, 276.5453677431135 49.097623384640954 M79.4082337575083 50.15752521178851 C135.9401409214784 52.29477731060919, 193.14109997157337 52.06052754471174, 277.14018245736673 50.75960790575476 M277.1210335119101 50.54253382310594 C279.85907018944886 151.7791474549409, 280.8730067476976 254.80998191812483, 278.9498532858037 500.38357020076774 M278.3168226240168 49.73000456523179 C279.9240214472187 192.19569536170508, 280.2904536616168 334.28557418438123, 278.4114636405141 500.3572714474406 M277.2932377653422 498.01078827557967 C229.11466319162216 501.33388855114316, 179.2199465022055 501.7023515122273, 80.62992502417978 501.1447045922994 M277.84980036819127 499.80050594350695 C231.48281601106655 499.3650491176368, 185.45797041772067 499.32563390363094, 79.52855409849207 499.9709860552901 M79.58412685569982 499.56326372754285 C80.01926932868736 365.69925256098145, 80.29479703073052 230.63981796367733, 79.89932952631361 49.268214601456584 M80.42473956773532 499.71553583217144 C79.79890470235782 399.93358226485026, 79.98437471128148 299.8314349760575, 79.93849633303758 49.89493771904653" stroke="#000" stroke-width="1" fill="none"/></g><g><path d="M203.199069705432 125.32902113637282 C217.79632275086325 125.80712811814831, 230.03574257206003 124.44743576809775, 261.69470513829634 125.9270169036621 M203.98398956427337 124.64715378442334 C222.0841620652479 125.72546107662986, 242.44666362537606 125.82808070764119, 260.2778029764485 124.0749145799862 M260.16495510043626 126.3012066166013 C262.5825617447638 136.68230672642747, 261.9756953363125 152.45426830923586, 260.7173757629966 174.1894630940195 M260.69941262310874 125.85294817271766 C260.2915233649502 135.87435704749038, 259.962331463994 147.24330367078824, 260.8955477484302 174.12006846975183 M260.8511708856872 176.8788327095586 C237.8504050648319 175.09275761281867, 217.27579744543135 175.8931658629585, 201.3953267940469 176.508253665036 M261.01643413589244 174.15764876702812 C238.6805644984127 175.00975675464687, 215.8098315805314 174.22247050463656, 203.3821359467795 175.15710261343452 M203.38182558518753 174.91415802240954 C201.24746204264744 162.94668838671703, 201.34733939941069 146.54829040543012, 201.3584758620993 125.68666218932219 M202.55071502059104 175.04806167752244 C201.78239528034896 164.38778673091957, 203.03423452373286 152.97460477649756, 202.04798914109395 125.26408014760969" stroke="rgb(0, 0, 0)" stroke-width="1" fill="none"/></g><text fill="rgb(27, 14, 139)" text-anchor="begin" font-family="Consolas, Courier" font-size="20" x="105" y="155">lst1</text><text fill="rgb(150, 100, 28)" text-anchor="middle" font-family="Consolas, Courier" font-size="20" x="232" y="155">id82</text><g><path d="M204.23972117337328 200.9629211788136 C222.7835866749992 201.57271816556448, 242.75489177437183 200.2070030437088, 259.201551564053 201.4717385000458 M202.09688962426807 199.20243335425903 C224.2031927367854 201.0333044885922, 246.33297128621786 201.33349469408785, 260.9993346283589 200.81073628655767 M262.8584287193297 201.00155132944255 C259.99389330506773 211.62854090851795, 262.42134766340166 221.9412097140263, 260.15613584064556 251.1604917909713 M260.2296462100226 199.31418498515768 C261.3608775798667 212.3538397928643, 261.575557368323 224.24822179187396, 261.55641667003437 250.90223922330551 M259.90931833127615 251.79290192113413 C241.6049296663702 251.05804444092104, 219.59085019020617 251.0996277477574, 203.84682001063422 249.07549146640852 M261.29604528109496 249.17372665692972 C246.53738568853817 250.2904821987456, 232.71516733808113 249.8367525706746, 202.99383620374596 249.38006231151567 M202.4140358814336 251.4782747238499 C202.59628895544165 231.62918166371847, 203.7238473185287 209.92073281762387, 201.50059978183722 201.05203463633273 M203.7235799998842 250.79608899376856 C202.64887310296055 235.92777237840085, 202.53579672013888 222.7293292563808, 203.3732233432972 200.81716744676604" stroke="rgb(0, 0, 0)" stroke-width="1" fill="none"/></g><text fill="rgb(27, 14, 139)" text-anchor="begin" font-family="Consolas, Courier" font-size="20" x="105" y="230">lst2</text><text fill="rgb(150, 100, 28)" text-anchor="middle" font-family="Consolas, Courier" font-size="20" x="232" y="230">id84</text><g><path d="M202.87356421990006 276.60851030173643 C220.32815518074418 276.6866892533251, 238.204036248376 276.4984110248654, 259.61612810530863 275.86717423339456 M202.66121725612922 275.1670535703512 C219.5988903485926 274.9176271172583, 236.04092474824515 275.2740979413896, 261.5955896933137 274.99729238641896 M259.31499326909716 275.2609515181448 C259.39905153196196 288.17063776967325, 259.80412372310246 302.61187318894963, 262.50430645855664 323.430938481459 M261.3246100642522 274.131819141508 C261.2971190915704 293.19094941597217, 261.9579939894983 312.1947463678786, 261.231600328264 324.0344104508243 M262.70061829544125 325.2778672641826 C243.51779794883038 324.0229161312752, 224.3643675114408 325.38982801189934, 204.72517043033827 325.612282680968 M260.1096825626509 324.5539188349442 C243.17772514087775 324.5366203700549, 224.77780303539407 325.1746315826104, 203.17329025269078 325.3866089140726 M203.78344726103956 326.24121572067054 C205.25426620608135 306.8501673473613, 204.02949668096585 284.0072550142109, 202.64248062318325 274.164151377453 M202.38709222096057 325.92279304006803 C203.94001155277522 306.6279950392351, 204.34937600625446 287.49256414766194, 203.40066622490727 275.0103355702088" stroke="rgb(0, 0, 0)" stroke-width="1" fill="none"/></g><text fill="rgb(27, 14, 139)" text-anchor="begin" font-family="Consolas, Courier" font-size="20" x="105" y="305">p</text><text fill="rgb(150, 100, 28)" text-anchor="middle" font-family="Consolas, Courier" font-size="20" x="232" y="305">id99</text><g><path d="M203.86021241709867 349.9086684858315 C216.19528427797425 349.0748703974686, 234.04053145342576 352.0370983066029, 259.5101964296553 348.7702889265469 M203.5397599041687 350.1253102188912 C216.53976663873758 350.85647827711625, 232.10595996900835 350.28633371138943, 260.8185831275709 350.7972946347835 M262.61226135896686 351.92838698786795 C259.5895301744228 358.9655052611728, 260.3824913234983 368.6476465147098, 259.4182769596653 399.69460221131317 M261.4375744834345 350.75598653443456 C261.5630171184124 368.4017150731159, 261.4857863959802 385.8829468475949, 261.7533959024071 399.98055279389627 M261.26996271224317 401.84330510757195 C245.53313685408307 399.2759136999495, 232.64265747787326 399.41951976411053, 203.17517111803159 401.1330037425745 M260.87826183575976 399.92417315243154 C241.92776368726118 399.6350978738479, 222.96830570867104 400.48334456309846, 202.1266206777257 399.6048726218144 M202.11382776227944 400.1737190492994 C203.72162747201727 381.00996487793753, 201.54588511237253 363.164080708801, 203.72478056870017 348.909307492354 M202.85210073711596 400.33420528493684 C202.738178031918 386.0050983310953, 202.98635568444823 373.34277539107563, 203.4026428134935 349.81638127641037" stroke="rgb(0, 0, 0)" stroke-width="1" fill="none"/></g><text fill="rgb(27, 14, 139)" text-anchor="begin" font-family="Consolas, Courier" font-size="20" x="105" y="380">d</text><text fill="rgb(150, 100, 28)" text-anchor="middle" font-family="Consolas, Courier" font-size="20" x="232" y="380">id10</text><g><path d="M204.74731873179397 424.37647636561877 C220.3935367659701 425.79901770754344, 232.19666317735064 425.84148718263515, 261.65161896174584 423.85359770344434 M203.3928703885271 425.0049060743089 C221.3127740125624 425.58795726755665, 241.8317509804283 425.7294463449845, 260.749055652959 425.28749967477563 M262.52355410839124 424.62142903152926 C259.61380337401397 443.1121790257215, 261.49122440868655 463.19364253852524, 259.45839503726364 473.3810102978858 M260.3271403745632 424.1444221912447 C260.2213816629228 443.33835069091356, 260.3011745126983 460.76432518945353, 260.69253821951486 475.3417655152516 M262.667162161212 476.4907448896685 C238.3669275741392 476.3487758726292, 215.21327141409154 476.71182766235785, 202.4351887040107 475.47246462606216 M260.6498527645603 475.71205236702576 C244.2038968710457 474.8148806014739, 226.9310629323535 474.48243053469076, 202.22194911546651 475.604923004815 M202.7668344934586 476.7305060599911 C200.93266522919834 464.52655074656616, 200.9276860095222 454.6543874486908, 204.83312919502083 424.84489631352085 M203.50055019177304 474.5036544805018 C202.43445262175786 460.53944274239547, 203.238877042884 443.96803067935474, 203.90909078733262 425.53519754176494" stroke="rgb(0, 0, 0)" stroke-width="1" fill="none"/></g><text fill="rgb(27, 14, 139)" text-anchor="begin" font-family="Consolas, Courier" font-size="20" x="105" y="455">t</text><text fill="rgb(150, 100, 28)" text-anchor="middle" font-family="Consolas, Courier" font-size="20" x="232" y="455">id11</text><g><path d="M81.5650358736517 50.9835339108328 C106.57833878671586 49.99457794780639, 131.05441325024518 50.62966554989157, 186.59571769491572 50.16312583432415 M80.86225847367848 50.69658672377363 C115.240679059339 50.7116524312881, 152.5504089457329 50.97423098129058, 185.13422467013464 49.251392592443935 M185.9907377917494 49.01695898351579 C187.31331739372905 62.96834545488898, 184.32255212359627 78.58783555109571, 185.3737535238681 100.80583965750867 M185.97062506393758 50.38876960647691 C186.52613582386095 69.03433259598667, 185.87394885993916 89.80167750299283, 185.66728134129588 99.24085011614225 M187.69774554523516 98.55662729131296 C152.99727598846022 101.35547287364234, 120.10481208740057 102.36558951568985, 80.67752170835041 100.09611981470184 M185.81843600552955 100.06884141815763 C161.8287661530743 98.43080909827427, 139.8187263646354 98.86229794109659, 80.60233883861757 99.1003675434316 M79.83098266717347 100.43347886181705 C79.99519074170037 86.81601176113384, 79.59799864977293 73.80542621231352, 80.21943800955911 49.011983279607634 M80.31755317730169 100.64937568758891 C81.02747587448569 83.17060603904551, 79.24362437154463 63.86460838073899, 80.26517164855743 49.45389144259094" stroke="#000" stroke-width="1" fill="none"/></g><text fill="rgb(27, 14, 139)" text-anchor="middle" font-family="Consolas, Courier" font-size="20" x="133" y="80">__main__</text><g><path d="M81.76777393878274 498.5788852449747 C143.97028922841295 500.33671223731733, 206.95921744142913 501.0677104465846, 277.1419691972782 498.9354241559165 M79.17626488948922 500.453990935693 C147.71913403249476 499.7313564458293, 216.51814047201788 501.3285714311618, 278.3807548862291 499.85405851844814 M278.0879231302749 500.70140155963884 C278.9224493649117 579.085475479989, 278.5955200954556 660.3281789494441, 277.1345181993589 724.7207314003736 M277.3166948551551 500.25629669379373 C279.4844202813932 587.8351383197348, 279.0838900707519 677.8560762198439, 277.46171468083645 724.9179572090684 M276.5000071897657 725.8796607764748 C214.94203525734065 724.3992990172725, 152.26020896744174 727.7793228493723, 78.0469625740728 725.7665368865778 M277.8930497077628 725.4600624521539 C222.54338292404196 723.9501758821918, 166.76054020497452 723.1871111072288, 80.30080753299447 724.8548208166894 M81.63651074229762 723.5100666373575 C80.33094777466302 639.4060170505293, 81.61999002052505 556.4817414005317, 80.51818085369976 499.44573852831894 M80.85728627981115 724.5772644312628 C79.495621271289 672.7947472987742, 80.17991190803792 620.9046723523852, 80.23235722256402 499.74375199838903" stroke="#000" stroke-width="1" fill="none"/></g><g><path d="M201.77253387982364 575.9428516830708 C226.61856641930032 573.2029521428701, 249.94143803383432 573.2390657840846, 261.9261576912904 573.1394951782386 M203.95325949187614 574.1231920366167 C221.34858403942036 576.3226484085186, 239.19033083646391 575.3094129171625, 260.71375557449227 575.8174232941934 M260.62512484531044 573.8914320143336 C260.33341151010444 586.4360354078015, 261.8566993816774 594.9773243143408, 259.40736426094196 624.2966395049033 M261.13190243117236 575.1464633862182 C260.2245547272062 589.4502173277253, 260.76623300811053 606.111885152913, 260.11975808308847 624.3098651250201 M260.56294994554463 624.64590000893 C239.47376547412452 626.3948999598001, 213.26327849731 624.9177179351367, 201.78826058231812 623.5692598640511 M261.89955023018945 625.8544886870994 C240.79349454609093 625.4554305315061, 220.0823796041531 624.2791842831807, 203.04732140956315 625.5006680546686 M202.4732614371667 626.4581530598064 C202.08157864940674 615.5969898388523, 201.8801163347888 603.0215787315731, 202.50284395870327 574.0186921435134 M203.92204335975728 624.4440703964957 C204.1054490841556 610.4716560246662, 202.89485608988556 595.3897943992887, 203.37424983888957 575.8616202348286" stroke="rgb(0, 0, 0)" stroke-width="1" fill="none"/></g><text fill="rgb(27, 14, 139)" text-anchor="begin" font-family="Consolas, Courier" font-size="20" x="105" y="605">age</text><text fill="rgb(150, 100, 28)" text-anchor="middle" font-family="Consolas, Courier" font-size="20" x="232" y="605">id12</text><g><path d="M203.99218841263945 650.9533489462152 C220.5676508774886 647.9746867806239, 236.8996470559092 647.9051027163462, 259.07470797294053 648.2449636756766 M202.2017741983184 650.0847618690941 C214.78917242073123 650.4572522521112, 226.97908883071904 650.7543717293155, 260.13815586198604 650.1009961238713 M259.09162268872626 649.586802847701 C259.7931210962389 665.2580334394852, 263.18344679978526 681.8726123298891, 261.85206463768026 698.2591800253542 M260.42748890856905 649.9143991126616 C261.43066051324337 664.3038001312117, 262.0039586637793 679.4767079900537, 260.3107842719081 699.0052834517285 M262.59544481152636 701.5526413122154 C247.11553801336422 700.0269940679791, 231.63588642677217 699.8782305379553, 202.1298306590701 700.1281965384675 M261.2269637317782 699.096794640125 C248.44232847869205 699.4786338038602, 234.99263706816126 699.5856566005285, 202.94239177167657 700.5796395821296 M203.0154474682316 700.0747774890283 C204.0817895270801 686.5542834770589, 200.5419333073995 670.8484504445917, 202.21388204571844 648.6891603559749 M203.2906527374126 700.6357759959868 C203.07421843144033 684.5705081877885, 201.8771270846321 670.5684358446556, 203.6050424620598 650.7108931472968" stroke="rgb(0, 0, 0)" stroke-width="1" fill="none"/></g><text fill="rgb(27, 14, 139)" text-anchor="begin" font-family="Consolas, Courier" font-size="20" x="105" y="680">name</text><text fill="rgb(150, 100, 28)" text-anchor="middle" font-family="Consolas, Courier" font-size="20" x="232" y="680">id17</text><g><path d="M79.5128979458141 500.12438944889044 C98.63992847851264 500.6646390106836, 113.47102140014331 500.8280389786549, 138.0660673565429 498.919321565757 M79.46991494323306 500.87232788403753 C96.4336364937911 499.4439442867945, 112.53684586117907 499.64932362720145, 137.68233316043842 499.0186071415666 M137.01175445622425 499.1007731161124 C139.24080974756947 512.7254777093486, 138.97918879665716 524.5538096462425, 138.19898248264133 548.570401409719 M138.12429752579595 500.5044536449447 C137.78850006197766 514.5261040505087, 137.78281421429932 528.4915846350934, 138.3925588423745 549.8895786112791 M136.14923658362682 549.0664275759582 C116.8958913698829 550.4968119736188, 94.2401582728306 550.3609342932526, 80.15963789535402 549.9757268448222 M138.17848277831558 550.0263249511198 C123.75193800338845 549.4936591068548, 107.43852097170279 549.5185380203272, 80.09346066149352 549.4012345376369 M78.19995176682689 551.6638685552484 C81.77813374060544 530.8081547251846, 78.24542242355 512.0965827986174, 81.2080192995944 498.4993534628188 M79.32007591896571 550.6818541481089 C79.64946418081396 534.4732940317424, 79.920070819175 518.4849270770063, 79.3238809772706 500.9051191861051" stroke="#000" stroke-width="1" fill="none"/></g><text fill="rgb(27, 14, 139)" text-anchor="middle" font-family="Consolas, Courier" font-size="20" x="109" y="530">func</text><g><path d="M319.27917831309895 51.1244633454239 C385.8479360860364 49.5199874881335, 453.4063117673065 49.058508794529104, 599.6411849046632 49.6637374059005 M317.8830429308126 49.2855681175947 C375.80693583612674 49.539721871687185, 435.2913627999107 49.887326595306874, 599.3148616670838 49.32388805428348 M598.5826716757516 49.39467146909291 C598.5962157736425 100.42746695205965, 599.7798976854099 147.20183140786494, 601.2501413267519 179.34309083430813 M599.645192860212 49.659720975277615 C601.1613563339932 76.71264640946697, 601.3331589463779 102.9141353601959, 600.4656140601024 179.3770466652675 M600.6033542145364 178.4882550987581 C510.06418915178614 179.42706817094128, 420.0261331115577 178.0778555418572, 317.4112180003363 180.20035262852016 M600.3877571398516 180.76101007466025 C541.3310468985334 181.02722378798904, 482.8497735277841 180.13358339716638, 317.3831933500683 179.65965581125374 M318.52535158963855 179.13054640173152 C315.85414377309917 138.46186612452763, 317.7682702812417 96.98350930498067, 316.6695203362159 48.318716693007474 M318.9443475177685 180.34043963497822 C317.9353060869353 130.4229654339164, 318.3502771775853 81.97108430803017, 317.39720729644847 49.53399394773266" stroke="#000" stroke-width="1" fill="none"/></g><g><path d="M343.8491887428627 114.67831209395588 C365.81001219710083 113.96219966394692, 387.88163562323626 115.84508097713861, 400.12927396885397 116.85914616616343 M343.9859662171597 114.19452323083893 C364.03451516402333 114.25706793321064, 385.1687737986487 115.71490010937225, 400.3217252764786 115.81073954238019 M400.4577230953517 113.08258452499382 C399.203718911337 133.17713410116176, 402.90445286638464 155.21295184801465, 399.7006384928741 165.48837427806802 M400.0045508151648 115.7907181356309 C400.6411354673548 133.7617462298807, 401.06356858780833 152.61417009820195, 400.4323056038316 164.29098406573678 M399.7917851441546 165.61277150040848 C383.2847595816428 163.7999834889029, 362.5362842823061 164.93773762717865, 342.66185467574553 165.42867824718812 M400.50423158807655 165.2719494456512 C385.0656614656632 165.70979561860315, 369.3289771181423 165.3284601576338, 342.07112956065254 165.7641668636479 M341.2353320217306 166.68589818309994 C344.3804504633594 150.10845019633595, 342.35497573417445 138.6345134364592, 342.189363411191 116.67193864924562 M343.3158258410192 164.71279697458576 C343.60800582335685 146.9371365162742, 343.36731068859024 129.46546396759857, 342.359618782886 115.32272378567613" stroke="rgb(0, 0, 0)" stroke-width="1" fill="none"/></g><text fill="rgb(150, 100, 28)" text-anchor="middle" font-family="Consolas, Courier" font-size="20" x="372" y="145">id19</text><g><path d="M402.3262094140764 113.80072004927477 C422.1721442958533 113.79332405543396, 441.976753518501 115.59941266258659, 460.06926444478205 116.66403566688486 M400.8538360914644 115.86208026059788 C417.4992547192082 116.05979969610229, 435.33630387552955 116.13813572239765, 459.9136411326207 115.115245009875 M460.6636778139034 114.97401857489925 C458.48271697716916 125.53200255714398, 458.39441690167064 138.86858590080303, 457.1705182382492 163.9933109223483 M458.6104583369784 114.29025034271419 C458.5235236867676 134.34430197256088, 458.47559224771595 153.78079836528116, 458.23766692888626 165.43935774792493 M458.30415667464524 166.1551728607879 C437.6958907986203 164.18451214647143, 418.4857193896641 164.53092330062816, 402.2668862403152 165.25234704849282 M458.287689206922 165.3288662392288 C446.3343062730605 165.50079867718364, 431.04641978185657 164.2280367144235, 400.1556704627118 165.2690161642799 M400.14100955475 165.52866204175785 C401.19593690063175 148.45823963893588, 402.2869708290086 133.47276530940547, 400.6708038818139 114.31758745254518 M400.05167080283394 165.59724763084785 C399.96729315425955 153.95892206231156, 401.58315359750367 144.70775463558593, 400.97256205350874 115.58089610843405" stroke="rgb(0, 0, 0)" stroke-width="1" fill="none"/></g><text fill="rgb(150, 100, 28)" text-anchor="middle" font-family="Consolas, Courier" font-size="20" x="430" y="145">id43</text><g><path d="M457.3425911455591 115.82909780513441 C474.993636871035 115.98877732462391, 491.27149096473113 116.4890957475011, 517.7945138326967 113.1601163329701 M459.5535306751974 115.99356409743172 C478.2968936197631 113.6274373353802, 496.755880270411 115.35212020979786, 517.4611940408894 114.09255107639596 M518.612780149963 114.99308520737036 C515.8526970767822 126.37850231854998, 515.6385368084156 142.49211243013642, 518.0147715337449 165.43017440386953 M516.858376601432 114.26268873000627 C515.8420364161234 124.49177757395778, 517.6397583981483 135.08201670166355, 517.5562782951008 164.04205411073517 M515.9163855897249 163.57382764507238 C499.07665306788766 167.02849206018655, 481.6821373795883 164.2606716158048, 458.1870910621367 163.8135348709663 M516.5154234609201 164.71691084134534 C497.5675384549609 164.58277128921083, 478.8593316202476 164.55914353354342, 458.5184975773452 164.21224042286522 M459.3305526111314 165.46275831564662 C461.0320925413831 147.36770076982057, 459.7351540271683 127.1790359279069, 460.35243806914065 116.80316558719282 M458.8228727165883 165.38208846763197 C458.3019177400921 148.7280859516915, 459.007590468122 131.73301504924555, 458.0863014617174 115.57534717386432" stroke="rgb(0, 0, 0)" stroke-width="1" fill="none"/></g><text fill="rgb(150, 100, 28)" text-anchor="middle" font-family="Consolas, Courier" font-size="20" x="488" y="145">id28</text><g><path d="M517.8429521341883 114.87390549418313 C530.4129400793677 113.71229854574038, 541.7124396459405 116.72134405560318, 575.9387109894377 113.15430847457418 M517.57131555429 114.95447663113983 C537.731142098145 115.62598807457152, 557.2536362170376 115.50949090879732, 574.1191843584795 114.51706302213 M576.0138904373671 115.90039186936932 C573.2104567787173 129.93056080372716, 574.6219958674956 148.40733595029516, 574.2466857548268 164.9868634067528 M575.6797975879775 115.10997821561897 C575.4895015537962 128.5948319084572, 574.6650490309785 142.32149383029656, 575.4992457574056 165.20578894419523 M576.9945725646389 165.94474262329263 C563.6267478880162 165.49291916015832, 548.1283885005814 163.81081538998637, 517.6750324946029 163.66288789243373 M575.1983984551423 164.89126771797913 C554.3503501524681 163.70483491473186, 532.9602350629101 164.04049616270322, 516.9237705525646 164.33451972362388 M517.369415253814 166.7637584056971 C516.9080918639135 146.69986731442935, 517.4955729111964 127.82382344088754, 516.0294231195603 115.89229960258403 M516.3558677496179 165.80100543355397 C517.0048282358143 148.9432544997436, 517.7490637151193 132.467213221797, 516.0679561573426 114.75648143613549" stroke="rgb(0, 0, 0)" stroke-width="1" fill="none"/></g><text fill="rgb(150, 100, 28)" text-anchor="middle" font-family="Consolas, Courier" font-size="20" x="546" y="145">id49</text><text fill="rgb(150, 100, 28)" text-anchor="middle" font-family="Consolas, Courier" font-size="20" x="348" y="80">id82</text><text fill="rgb(27, 14, 139)" text-anchor="middle" font-family="Consolas, Courier" font-size="20" x="570" y="80">list</text><g><path d="M319.2139301518417 49.60139313669137 C337.43275025467835 48.9988222462729, 356.85924856687615 51.95069105303449, 376.8657795555987 49.26009541144745 M317.98014051090047 49.015786983156 C332.8552430002759 51.38297144522681, 347.59814199157864 51.471334869019636, 378.27696010007855 49.79363160902249 M376.988568939884 51.300791695814674 C379.4620079269856 62.191179658676276, 377.93300819806905 74.68941287890117, 377.8116635855103 98.96727546202673 M377.7274165220206 50.052746217732135 C376.93590751807284 63.510022275979324, 378.10007574896844 75.64853840702345, 378.7422420877042 100.55665100322015 M379.93125860482144 100.80968314523707 C355.73432094591175 98.74720954118332, 332.3014546828741 98.47986285285933, 319.26020598797936 99.243239190211 M378.0116298132816 100.78273292324968 C363.35599219244676 100.6857644930035, 347.2667514970809 100.21562616214455, 318.34609546916454 99.01302881583517 M319.51104426582305 99.00635985517872 C316.97616008914883 81.2808129615371, 319.5859605966668 66.03147827288414, 316.55630904237773 49.08693933845872 M317.02219596114946 100.67828920075063 C318.0222669011827 87.2096941445313, 318.9282479484706 75.45892961025771, 318.2483294458052 49.8693646762989" stroke="#000" stroke-width="1" fill="none"/></g><g><path d="M540.6622476761601 50.64651216986258 C557.7505847781243 51.80516868035068, 577.2582659190709 51.158408016336615, 598.3857149892958 49.38184307777978 M539.7831121218145 50.032264230359296 C561.030024267549 51.37079789821189, 582.043474933425 50.68613226623856, 600.10229087765 50.75520824033421 M601.23370708637 49.83607366569221 C601.1147186669439 65.93437016791128, 599.1542303503203 79.83807544386012, 599.1783807072823 99.16843893864085 M600.0788398720744 50.5341532690064 C600.7095909958834 65.90123044788996, 600.769237255276 83.60744754983617, 599.4509699654964 100.64329151336273 M599.6559240743231 101.28162809062496 C581.2108306034319 98.03936519226133, 563.4524959048686 98.46911635257638, 541.662447064917 100.96133064505273 M600.5945233931416 100.74387582975959 C579.628892238992 100.68301460529067, 557.8073793104132 100.31431989079329, 539.2902182553471 100.36651380113516 M538.493065757078 101.40076881366433 C542.3554765504024 85.94594380754383, 539.6744732104238 75.27291236928338, 541.3616752237182 51.26744959816845 M540.6648222099536 99.71259826337838 C539.3601843230084 89.82241009787039, 539.3347997012843 77.52500837264229, 540.6616129434655 50.56161955397562" stroke="#000" stroke-width="1" fill="none"/></g><g><path d="M659.3602180014877 50.0556430388286 C744.2376106089387 51.82963931537648, 829.5061145273443 51.63274170778066, 940.8512794701912 49.72961534921003 M659.7566362495593 49.92704955677085 C744.268674671151 51.73319243273252, 827.9358234737632 51.450384163238866, 942.5416652043283 49.49532924759748 M940.1282223695036 51.68497805118823 C940.4378404065881 108.35055657812781, 942.5906351523082 168.57428145408528, 941.0171660192157 199.4851911033612 M941.668265230411 49.02057870404376 C943.6471727726768 80.56900409105094, 943.0271367593784 111.19346147777325, 941.4251788646717 200.4655664756552 M942.9736067099273 201.10218868754043 C852.648109674598 200.01437151592359, 760.2534163349474 201.05404864869288, 661.0761620023843 200.66685781781294 M942.4120659375997 200.158264622815 C839.8820067417518 198.72343493259734, 737.9450223674481 199.39219587946903, 659.9280345455296 199.63158674808554 M660.0485211480237 199.8693451251571 C660.4593719427933 166.87238357921973, 661.1526573058565 134.628158936047, 658.3007758463746 50.26203056596601 M659.2615515680887 200.36870957586189 C661.1695810007712 154.71282572888015, 659.6816976368433 109.51263429432164, 660.7961648454333 49.00954468790112" stroke="#000" stroke-width="1" fill="none"/></g><g><path d="M683.8600570126828 136.4541091737433 C708.1907113092847 134.13003465024698, 733.044717153214 135.1772082516835, 744.4852477872515 135.7460189438519 M685.6750251845856 134.98933545812972 C702.6238098128575 135.4209345256491, 719.248408172274 134.60801501603405, 743.795712157696 134.6189722263346 M742.1495893994432 133.47619900257757 C740.8590363943073 148.07771509424143, 742.7131597327569 162.4659555814865, 742.4137057024785 185.87632203749493 M743.6581916948281 134.98570018948908 C741.8480873358664 147.82832325182338, 741.8508098307839 159.27292454770554, 742.4607806098426 185.14265713392615 M742.4602396079415 183.02386666916416 C727.1080456136053 183.41979375256747, 706.3380121084928 185.43386514594084, 685.7388206439877 186.8866887085005 M742.4953440703788 184.07195323409155 C727.6431984389228 184.12964652824664, 714.5868680026324 184.19530836043654, 684.9078285189659 185.4280759842336 M683.381253388411 186.02009857181193 C685.7193854411773 167.52631504362853, 684.0536502573017 152.97076311131164, 684.1961451229232 134.25488580302707 M685.0272757012783 184.3777978970794 C685.5534515196854 172.59234159924455, 685.6552515687741 160.27607760785796, 684.1343682584048 134.16883579303587" stroke="rgb(0, 0, 0)" stroke-width="1" fill="none"/></g><text fill="rgb(150, 100, 28)" text-anchor="middle" font-family="Consolas, Courier" font-size="20" x="714" y="165">id32</text><text fill="rgb(150, 100, 28)" text-anchor="middle" font-family="Consolas, Courier" font-size="20" x="714" y="122.5">0</text><g><path d="M743.1786788358636 134.6989661746244 C754.9420064960301 134.23563261353337, 769.9291714922106 135.75583496121132, 802.1200957690289 136.40579253864274 M742.2754336002151 135.86615549979606 C761.873605198462 135.43266805358311, 779.306145852396 134.64668148667837, 800.9490151948872 134.52419764682193 M799.9749822923515 135.9380233151418 C803.2116554006124 154.33410136863694, 801.7659739175363 170.68552714000938, 799.6755046341924 184.39969737709848 M800.3571722779637 135.34461525419687 C800.8825575503693 148.90485059581798, 801.2641367444651 161.24195987379613, 800.1871848523151 184.31455030752863 M799.7600387175012 185.6460601948509 C781.8075496239968 184.71903488628502, 760.6236806538075 186.1761767514257, 743.1224164169271 184.35493301059742 M800.8642692864249 185.80809758539507 C785.6983591260365 185.60024272853317, 770.6198145881044 185.5093735436529, 742.5724738068398 184.6673149651079 M742.3997503692075 184.03210982496157 C742.9194828164393 170.26136950005363, 741.4579594393633 152.46858057935276, 741.953059772678 135.17775712972167 M743.2844948184618 184.59954601571985 C743.3332315180076 173.70225010611156, 742.374879872314 163.4328205693902, 742.5969474053381 135.41884402976441" stroke="rgb(0, 0, 0)" stroke-width="1" fill="none"/></g><text fill="rgb(150, 100, 28)" text-anchor="middle" font-family="Consolas, Courier" font-size="20" x="772" y="165">id10</text><text fill="rgb(150, 100, 28)" text-anchor="middle" font-family="Consolas, Courier" font-size="20" x="772" y="122.5">1</text><g><path d="M799.7661028597947 133.4180904259076 C821.8648977588904 135.88660797799835, 846.6441006121873 134.17670982027926, 860.3810503035778 134.43050559552887 M800.1879440215747 134.79853070970782 C821.3273883306347 134.3744448174694, 840.788307208482 134.30375983795636, 859.7351637292181 134.2348426967207 M857.7317245873661 136.5899786332063 C859.3752187915982 148.70152885440032, 860.3058952880187 165.5294871635807, 858.8163233148849 183.34851827272863 M858.0559078252174 135.34448113281516 C859.6104870575739 147.33663910002926, 858.3232402636363 160.02991858731963, 858.0709148553478 184.24710396860766 M859.4312171860772 185.11542980089843 C834.2952373363036 185.69244160706594, 812.1023987818223 186.2826083683334, 802.8666901758112 186.86000811313528 M858.2517462867394 185.55721596011372 C844.2128004455611 185.73148728827226, 828.3329532779986 184.90253089036167, 800.8625105344933 184.72515188946764 M799.7957595492959 184.75666137069845 C802.7028256466414 166.05745656289605, 801.20993982677 143.3685693094516, 801.3661255273479 136.43792977158748 M800.0951366880057 185.27392763870657 C800.8542536470788 170.07035809653584, 800.5837964946257 156.2104099081366, 801.5307816779613 135.24363115395525" stroke="rgb(0, 0, 0)" stroke-width="1" fill="none"/></g><text fill="rgb(150, 100, 28)" text-anchor="middle" font-family="Consolas, Courier" font-size="20" x="830" y="165">id90</text><text fill="rgb(150, 100, 28)" text-anchor="middle" font-family="Consolas, Courier" font-size="20" x="830" y="122.5">2</text><g><path d="M858.4316812809875 136.3590060700563 C876.5833164265614 133.40047089132887, 892.010281497197 135.9855598566782, 917.133569384451 135.13447514569555 M859.1571345589339 134.56570145630414 C871.7906309746605 135.4807120358591, 885.0828751178636 135.89462056655128, 917.8642461292807 134.3193020918133 M916.5928180461627 133.53070255150467 C916.2044175877306 154.02599045867348, 917.3671298761222 174.50541445288658, 917.6353782430768 184.62981972829462 M917.8587222243298 135.92066035907138 C917.9549780238314 151.28788782615536, 917.9625562827722 167.49661907102342, 917.3424959627863 185.16430004467298 M917.6652929646903 184.24195652401275 C901.3523775516296 184.0270406552769, 884.7337535377713 183.7493969717818, 859.8716729101819 185.49693255204835 M917.5729556749949 185.8990491432501 C896.6394954170181 185.15461416529357, 874.0374521919128 184.06325197523225, 858.3998330294276 184.11053112009662 M857.4766561441795 184.69525559088083 C859.1397501808381 169.69318472241585, 858.1771824827498 150.99231343129313, 857.5705147092907 135.2568983240245 M859.566901187195 185.62054618424852 C858.3937034133548 170.7180858276139, 858.4081444292867 157.7695880877947, 859.4188203574614 134.6218251030951" stroke="rgb(0, 0, 0)" stroke-width="1" fill="none"/></g><text fill="rgb(150, 100, 28)" text-anchor="middle" font-family="Consolas, Courier" font-size="20" x="888" y="165">id57</text><text fill="rgb(150, 100, 28)" text-anchor="middle" font-family="Consolas, Courier" font-size="20" x="888" y="122.5">3</text><text fill="rgb(150, 100, 28)" text-anchor="middle" font-family="Consolas, Courier" font-size="20" x="690" y="80">id84</text><text fill="rgb(27, 14, 139)" text-anchor="middle" font-family="Consolas, Courier" font-size="20" x="912" y="80">list</text><g><path d="M661.4175626713976 51.87119149043482 C681.8098313032522 47.912408981200464, 706.2972560898965 47.875193825321006, 721.143140422966 49.17457417278265 M659.6710794689187 49.66980204588312 C675.3620133722441 49.24630787613853, 691.9640065547487 49.60792955575406, 720.6990531608128 49.632853677644185 M719.781939042919 48.75396097404914 C720.1511762209233 71.60162132638222, 722.3363932334782 88.59050407234733, 718.6691606171346 98.36768265280199 M719.0449332029696 49.349326103503955 C720.3222869198516 60.25947464839648, 720.8408859127692 71.64422903382201, 720.8754411764257 100.55717548137216 M720.2723252938126 101.15406908412497 C701.4513138889971 98.3346864535926, 683.0997515776409 100.470643600865, 660.8364432898794 99.28705422718062 M719.1223648230853 100.73882203215148 C706.8044466485215 99.85281352722996, 692.9305638932557 100.64289738404615, 660.1898142259295 100.27825514847784 M659.7408404096685 100.71101313766209 C659.594770365188 89.0326169023574, 660.1542424028033 80.48316209537894, 661.3072637936037 49.5235844131905 M659.6032823768674 99.27910204131655 C661.0211552593601 82.58766772342844, 659.6818257673497 65.20687334307799, 660.1002958980916 50.7013482134464" stroke="#000" stroke-width="1" fill="none"/></g><g><path d="M883.1281039688267 50.71952567674417 C903.8089850331845 49.920430384115676, 923.6894196429542 49.03415130930672, 940.5823374212526 48.652712983713805 M882.130222293224 49.110182274207745 C905.847864092363 50.29242379356618, 927.9250477920006 50.999886009297946, 941.5502867269585 49.76591368698639 M940.9175270820349 49.290057376757844 C941.4744386256746 66.38577927507825, 941.2989838545877 84.63203714667861, 943.5650071007313 99.59288386392548 M942.5746717098801 50.44513278926776 C942.6026136410784 59.736604451228196, 941.7725037842768 71.4417822435775, 941.2401212722447 99.40815183168374 M943.5174357396344 101.11891264651601 C921.9466536851448 98.57957910069078, 903.8176682698862 100.82644077178934, 880.6275435681149 98.51754087001383 M942.0727729278684 100.31014339681094 C923.8251522631004 101.04553446455247, 903.6947731120994 99.99382081248754, 881.9445987763484 99.49928359308596 M882.396598049571 99.95619235328977 C879.8359638726046 80.27536521567349, 882.4676761997874 64.47079432763549, 883.8456950872535 49.37183849943115 M882.4528827572962 100.7795903119605 C881.427182128427 85.30599320839839, 882.6252033192724 69.60863278290428, 881.3933745369908 50.996761651358895" stroke="#000" stroke-width="1" fill="none"/></g><g><path d="M1000.7163655857952 48.62627000379615 C1072.1099199053237 48.498988580994016, 1144.26958483918 49.23786790072692, 1201.4783922718884 51.04216258642013 M1001.472892135584 50.164089615388015 C1059.654875138796 49.995864546263185, 1118.2022905523045 49.236962240371085, 1202.6262030176638 49.17126336937809 M1202.1200648971196 48.46819711835599 C1202.8201082782764 78.96575871929757, 1200.4461585195863 109.09265994212575, 1200.413706349706 178.53691292605916 M1201.974133811934 50.6549666451315 C1202.604824625674 76.94614381489568, 1202.7691711346756 105.12396569763203, 1202.141125616868 180.6034359769395 M1200.7216769455697 181.54621907864052 C1154.5207730587076 178.94280968906332, 1110.828655251486 179.01614700028026, 1001.7257457827209 180.59513390923544 M1201.5026508072667 179.5452897247489 C1149.1111368344234 179.37458680948916, 1097.3349461054925 179.90234720638526, 1001.345728606982 180.13671839596287 M1001.0402619615172 179.29503043429682 C999.8879001910451 135.79278438951354, 1003.0679822589769 93.52988274049667, 1001.9474569326239 51.38264233003964 M1002.8903500240557 180.6075070463487 C1002.8853229466939 144.66124833672055, 1002.0386882677147 109.35147750257677, 1002.5916985805156 50.819188361286336" stroke="#000" stroke-width="1" fill="none"/></g><g><path d="M995.0239652920917 44.99183389867322 C1046.4575753379909 42.717218267061405, 1094.835318238944 44.324071798136536, 1208.9664086928365 42.69579518472658 M996.2126679502032 44.39903239652861 C1064.7116508788645 44.41010199517984, 1132.8735382132174 43.38923462626937, 1207.959225189834 43.86745314924069 M1208.353370753744 43.167534263020826 C1208.0933904604901 79.1730104805873, 1207.0424712700844 117.7925819155077, 1206.9826270589278 184.45367779835394 M1208.3335449951696 44.391013308661854 C1206.5000409358593 93.60575338472431, 1207.1728772118615 140.6081761132506, 1207.421352106507 185.3530147647005 M1208.513258339957 187.2290632986238 C1145.6264865118067 183.95515400289992, 1080.3137930694502 186.00574253943242, 994.3290496532967 186.91608657642735 M1207.658086484189 185.84146840080155 C1152.9231132314528 186.41950459951423, 1098.2891678222097 186.52378876247514, 995.5788685934486 186.70447608054621 M995.2982214242326 186.83100897515448 C995.8787448781147 132.65941059120456, 995.4968479589047 76.88023694148178, 997.1872180460965 43.37234965901206 M995.1429172965334 186.04714199493782 C996.0712094331026 143.7673932181876, 995.2803969906008 99.38166236605188, 996.3292391391494 44.491923147225734" stroke="rgb(0, 0, 0)" stroke-width="1" fill="none"/></g><text fill="rgb(27, 14, 139)" text-anchor="middle" font-family="Consolas, Courier" font-size="20" x="1102" y="140">1969</text><text fill="rgb(150, 100, 28)" text-anchor="middle" font-family="Consolas, Courier" font-size="20" x="1032" y="80">id19</text><text fill="rgb(27, 14, 139)" text-anchor="middle" font-family="Consolas, Courier" font-size="20" x="1172" y="80">int</text><g><path d="M1003.5537896087715 48.93040056157615 C1016.0612168807716 50.09800371840088, 1030.999024556151 51.120626470205295, 1062.2221148433107 48.27166045791673 M1002.7519867174553 50.81021792086885 C1015.5679254045135 50.40958738791923, 1028.7826012552266 50.53993866972242, 1061.7697243569107 49.219800679352765 M1060.7868167171675 49.78607015412565 C1063.5571136442843 61.19713367871917, 1061.2167846326108 71.6780943305276, 1062.2357792691803 100.06752595372312 M1062.832079268157 49.84383268736053 C1061.961050548537 68.98132235784946, 1062.6371887201044 87.99696400034117, 1062.5468492352425 99.35476431410198 M1061.7739125861856 101.26370211023153 C1044.6428748644817 102.04241172220489, 1030.251321909273 99.00354885303823, 1003.5811906198301 101.75059330361796 M1061.6163927009711 100.88993007275799 C1041.6376696613274 101.25603358226448, 1020.1238567126269 101.31472238399365, 1001.1076642141804 100.62948870728923 M1003.5888266254956 100.96581537845636 C1001.4285179350139 84.86605123143772, 1002.7231714589279 64.80252027801869, 1001.1603587083841 48.37749637215197 M1002.8829207155816 100.76846828853911 C1002.2230964235056 84.53961182119534, 1002.1977276628411 70.1939212739208, 1001.968862307589 50.16229039316243" stroke="#000" stroke-width="1" fill="none"/></g><g><path d="M1142.8352830837594 50.1171616936447 C1163.5755666458142 49.04656637060093, 1182.62540613096 48.54668935568238, 1200.9481475791938 48.94777881348867 M1142.6590327425415 49.052134945943145 C1159.9283138764672 49.47873317856806, 1178.7660025829962 50.850045775249335, 1202.7066802379927 50.340158165041565 M1203.408608542682 49.73181889719363 C1201.7557938768991 62.45163632749629, 1202.606518385363 71.02439836430827, 1201.453008011487 99.98661347101304 M1201.134552457309 49.83872958121774 C1202.4069282169717 68.11692804116291, 1201.5127070123542 86.61144963294574, 1202.126417271543 99.08267168291077 M1202.9891439877488 100.57275668949467 C1179.74647588027 99.41041447393367, 1158.7155320688942 101.94697412111309, 1143.1890784556197 99.96352354614154 M1202.0548108526837 99.82155365628154 C1182.7015363817918 100.32088899078241, 1162.2840199910102 99.12417929698425, 1141.9491964320443 100.3441347035745 M1140.8164446612936 99.05799626760586 C1141.0170790588968 86.25467828609392, 1142.6615483505987 71.81802338058783, 1142.3067588523247 49.78920988252683 M1142.9404402688583 99.02751051560827 C1142.8045818207218 86.25783378912416, 1142.3702090524032 70.39972706355829, 1141.8607179532828 50.33649058679969" stroke="#000" stroke-width="1" fill="none"/></g><g><path d="M317.51880607535224 258.5675602803271 C386.7578178561663 260.3250333695016, 459.0260345498676 260.67284747946456, 518.752257940855 258.72506320392864 M317.19292825364664 259.55975968894387 C367.93375544124797 260.90269887940485, 418.5949009361611 260.9408436076865, 517.7990007683659 259.1598518396524 M516.9178257926865 259.1329173850645 C519.5434527588584 310.9983483375671, 518.2959859885783 364.4289338673379, 516.3416277945694 389.83724001936366 M517.0811997683019 259.46086835509726 C516.6475637843819 298.1628698234517, 518.3543176753818 337.13954223511564, 517.3622769607782 390.7648750953647 M517.4167919342653 390.1833469496376 C439.9138413201242 391.3245142080274, 363.1464163621999 388.6349547251568, 316.20906082750025 391.5605799250488 M518.4560231166857 390.1226372322705 C475.66624468671466 388.82415109930326, 433.9658714682837 388.17187871517524, 317.16677055927545 390.6588849049506 M317.2422197636117 390.5689540220944 C319.29085072491085 355.22960059425213, 320.2236543616429 321.9453317272648, 319.0467468146038 259.0310042564178 M317.8606258100241 389.67033252228725 C318.6258810336797 358.356085439087, 318.7204160515388 325.58666145714324, 318.9010787255872 260.0744288855984" stroke="#000" stroke-width="1" fill="none"/></g><g><path d="M311.46912270314357 253.84566572177422 C380.098940442728 255.94507146760265, 450.9116672902 256.9304750993678, 522.5374333106669 253.36823676967074 M311.1647126936464 254.03268593758148 C378.9555954461618 251.76438071909013, 446.20686155387034 252.61704948365409, 523.2139880637332 253.78127052243087 M522.4673114927347 253.33313815030164 C522.4944754182595 293.8040063135987, 523.8783264302888 328.0214191444316, 524.2002140045226 396.4538424950324 M523.4526673433775 253.71202431625758 C522.803444249148 310.733531475057, 524.4599144587297 366.1614409012196, 524.7607263039326 395.89533373953117 M522.8579366293194 394.27868066613195 C453.0690119682773 396.1519212788142, 379.50567314587215 395.4619899187177, 311.1790223748611 396.3119511569451 M524.6812355196789 396.52411944115784 C446.4067544322471 395.1739455428249, 367.38017281234664 394.75044929915066, 311.92451534673785 395.7643537284205 M313.21661095312606 397.7008747035466 C311.32772396088876 358.020617099142, 314.64627316451714 319.27609126504325, 310.2806172987206 255.7311326221087 M312.0457859634059 395.53916655301583 C312.85635100594834 366.5980488689742, 312.8084313240808 335.95191663261306, 311.793279709284 254.59164232483903" stroke="rgb(0, 0, 0)" stroke-width="1" fill="none"/></g><text fill="rgb(27, 14, 139)" text-anchor="middle" font-family="Consolas, Courier" font-size="20" x="418" y="350">True</text><text fill="rgb(150, 100, 28)" text-anchor="middle" font-family="Consolas, Courier" font-size="20" x="348" y="290">id32</text><text fill="rgb(27, 14, 139)" text-anchor="middle" font-family="Consolas, Courier" font-size="20" x="488" y="290">bool</text><g><path d="M317.3386352517083 260.74426865248154 C336.227838059367 258.20221470628155, 355.9252503811429 258.8672649819948, 379.4722844447652 261.04603058856287 M317.27352409096864 259.4855447014578 C341.41410610404404 259.9140601704148, 363.14302471829427 260.6231149194623, 378.27566734403695 260.515981412177 M379.6880994182789 260.48158814286 C379.3719109067753 273.7300777906841, 376.2530222230496 290.079961334682, 379.40125245012706 309.95355997068583 M377.44025199507587 259.3338982381573 C377.2675410278011 273.4222319255663, 377.17226923161616 287.1259798204908, 377.73845471975056 310.2743204752918 M376.479298308186 310.77517536329395 C359.46270154468857 310.2266465983671, 344.2781410185029 309.51711382207907, 317.2250632078365 311.411050737598 M377.0436968994151 309.668927595845 C360.63920604653276 309.62346680286333, 342.20836855872057 309.8204601959399, 317.76902210496587 310.16106959448433 M319.5671567261188 309.4770863195018 C318.2564071723982 297.03960850408004, 320.44255468576677 281.6561570323354, 317.35287828267445 260.26521493510614 M318.3203245034999 309.31547677291996 C318.9456885895736 299.5573432299833, 319.43570214891577 290.05732358040945, 317.08339581646766 259.1224364282621" stroke="#000" stroke-width="1" fill="none"/></g><g><path d="M458.5730035330186 261.9320471620444 C476.48910557727953 257.81776355329833, 496.43255481489285 260.9986696649271, 516.2125112021499 258.07172816731526 M458.5717164170235 260.75375546490307 C474.1182194201939 259.32207983711703, 488.5893330684875 260.6921456254317, 517.3220534158827 259.3551420976756 M518.584306866192 261.74855750647873 C516.0520361086121 272.35183238270935, 516.9887033417114 284.9532514028085, 517.7825541491256 309.25848956445435 M517.5166567887009 260.5350882353574 C517.3836900673682 271.2674608294068, 518.3139748356764 281.55413340071306, 518.7828152506581 310.04548498839586 M518.5376246915588 309.20414175853875 C495.10349824924464 311.87332226078837, 469.4100750508869 311.3823875144261, 456.13839460673836 308.91307091922545 M518.8542753901095 309.7253918399305 C500.46417390405674 309.50738676339944, 482.49571676365485 310.0265748486372, 458.413150709241 309.90156206003337 M459.2219011674768 309.0544493775076 C458.21880297645595 290.404961456849, 459.21480435478355 275.1845596755173, 457.1704431773515 261.4510146592168 M457.5511043225182 309.46836436453447 C457.4936325062541 291.3274840398143, 458.7376163853677 273.938141107365, 457.76071066074473 260.05642025909646" stroke="#000" stroke-width="1" fill="none"/></g><g><path d="M589.6933050813559 261.5729100131594 C655.0602824719186 260.4991313989681, 720.9735407325468 260.94155830495345, 789.4685499301825 260.4564264330784 M589.3045984260368 260.0593325457933 C665.0001592616061 261.85032704653327, 739.6264455993977 262.1404490428115, 790.0208416233303 259.15107329048357 M791.1511057239486 260.3009874193782 C791.5590596597923 311.41387637451993, 788.2551703711204 364.16448121181367, 789.2609848044643 390.26070904003626 M789.8873833785274 259.3080662115405 C791.8357189555611 302.27362264271153, 790.9158968164761 344.37817034745154, 789.1482274395324 390.4462236861865 M789.6418355182689 389.31710086095626 C731.0412508108428 392.07494434620367, 672.7512344454933 389.2104428233386, 591.6245181881407 389.71964932144147 M789.3559461761492 390.33796350458925 C721.8357695736762 388.32474579778767, 654.2574217289366 387.69792435859586, 589.6013998915125 390.81462632607787 M588.5989231176417 390.6715274001268 C590.7152187421232 359.4344598905123, 591.4621875573895 330.850800488717, 590.1515217516502 261.8729977767918 M589.8360704143172 390.1184534153806 C590.1886748552631 356.2178964677662, 590.6226779131965 321.08978639725905, 590.3367967676458 260.32888799127215" stroke="#000" stroke-width="1" fill="none"/></g><g><path d="M584.7118220198169 254.7279931756733 C644.0866990790979 254.0241504813827, 708.950292028129 252.39075389664674, 796.0019747219388 252.69144033691398 M584.137787006239 253.53526400904397 C629.998696795545 252.63709870555107, 674.8383564125559 253.01864533336553, 796.1142284610165 253.28202397551996 M797.708015488428 253.02442465793982 C797.0160295892111 308.7831860377289, 795.4787942662227 360.0418975819583, 796.4537136456466 395.13336528570613 M795.7193352907221 254.1879464494512 C797.9963148418119 293.73229155257286, 797.6848358549526 331.0838694307412, 796.3431985878156 396.1052637107756 M797.1863642504936 395.75697770538704 C744.5304110096325 395.33147149945756, 690.6080049639418 394.7732426963904, 585.399200475076 394.5339039108489 M796.1268768363568 395.18434190193807 C737.506243770563 395.72074239094064, 678.5763214449039 395.5044320927912, 583.6190389163802 395.1999071757436 M582.746309575569 394.83282382959965 C585.407030022524 360.0494035532857, 583.4554325603043 320.785397947736, 585.1356652468337 253.66165235907548 M584.2305551625401 395.96676475602817 C585.3309664000186 359.1757478657023, 585.1321578114298 321.5572903415602, 583.2963093490633 253.57961667836838" stroke="rgb(0, 0, 0)" stroke-width="1" fill="none"/></g><text fill="rgb(27, 14, 139)" text-anchor="middle" font-family="Consolas, Courier" font-size="20" x="690" y="350">"David is cool"</text><text fill="rgb(150, 100, 28)" text-anchor="middle" font-family="Consolas, Courier" font-size="20" x="620" y="290">id43</text><text fill="rgb(27, 14, 139)" text-anchor="middle" font-family="Consolas, Courier" font-size="20" x="760" y="290">str</text><g><path d="M591.1595679483449 260.8513813863921 C601.759846568898 261.636896023842, 616.7711239306659 259.1401632187558, 648.2233881656842 258.0878568611836 M590.7215834900206 259.79882936587205 C608.6495945390946 260.5818764548153, 629.3040547168163 260.1231042645844, 650.097381784031 259.49164156142075 M648.6062517286257 261.01496259348784 C651.2165888633108 281.07383760948693, 648.4620011908017 299.92209525582905, 650.5139980593387 309.47791023704156 M650.5301067128524 259.6266242296423 C650.0770646748606 274.75910069096585, 649.2922482266852 289.05121864636055, 650.5142995377141 310.1231057997694 M650.4385891198158 310.9558076674544 C634.7874611567963 308.6544027948832, 616.8669830648026 309.45707606792723, 589.7745710632362 309.3342296628793 M650.2443997396201 309.39317317927964 C634.6289013991105 309.9007621053123, 619.49941682456 310.5372308980561, 589.8665171671407 310.5881501165993 M588.0396162148052 308.4056306695406 C591.9360192676447 295.22746755394184, 589.8705154698271 277.34467259373594, 590.3245123579632 260.97512977075235 M590.9403707667094 309.618538569704 C589.2286111106094 293.53468512999433, 590.5638731150514 278.6149230718495, 589.9221212879108 259.15889469076745" stroke="#000" stroke-width="1" fill="none"/></g><g><path d="M728.6805998725453 259.97870258608015 C742.607668580581 260.4467275876341, 757.8745688902205 262.25844132452187, 790.5730141870359 258.9867112153655 M730.6493676105547 259.17266162284506 C747.3216361494041 259.93711336805205, 761.7035581702881 259.4933079754409, 789.7038641176908 260.4598855166928 M788.9712610564651 261.00603040773245 C788.8232648133081 273.44390911372585, 788.8900528402831 288.57132840693595, 788.1434257038455 311.370709149153 M789.9217089755924 260.78283829147546 C790.82654901467 279.57670750534425, 789.7760249328596 298.2699102517761, 790.0241426620703 310.2117672721181 M789.6276435450229 309.6728054265214 C769.6247909086821 311.32274301824935, 748.0197393185065 310.89663087241996, 730.8667394188171 308.6802469823649 M790.8565061037841 309.78035462505306 C772.7964187490849 308.4733433686297, 754.8594410907374 308.8475265895684, 730.2771322018486 309.83772468204484 M728.4460199392117 308.31500134593415 C731.0066244086973 296.45076812349237, 730.6800176860135 281.4151107535329, 731.1494452738949 258.09107585819 M730.004817948834 309.75723445791516 C729.8086090720806 294.8402507991195, 729.3802088570895 279.9274525197357, 729.2311038689173 259.22428105896364" stroke="#000" stroke-width="1" fill="none"/></g><g><path d="M862.6366705624056 260.03932453981605 C911.0408618377807 261.83984423572065, 962.7780801810908 260.89277101682137, 1060.8413896703632 260.6783029199832 M861.909331043664 260.5366615004902 C925.3019882837253 259.6272016510846, 988.5901060357584 260.2828675019918, 1061.4604107389787 260.5187688825481 M1063.5354854042605 260.2060142254722 C1064.5362544213278 291.3001176669792, 1062.2388473608587 324.56703519323685, 1062.1319498287257 389.64860200618995 M1062.6193001835297 260.4739343711122 C1061.8093162591988 311.0531205538421, 1062.0764512075723 362.2961794173139, 1061.6697449219987 389.03995586366176 M1063.6705496820355 388.88982241732776 C997.8182523095661 392.26281317880995, 932.955500224525 390.89263840344205, 863.2581373814952 388.447160746325 M1061.6615438095816 389.29661594790576 C983.0348571015297 389.0147733442999, 906.2062171637424 388.78951446422514, 862.1658459233114 389.97651649552137 M862.956231769505 389.2302211720908 C861.1973969905998 352.33378378273807, 862.5698481963453 314.68273746929304, 863.6135256129254 260.7149877630009 M862.6584900715741 389.02797349261726 C860.0490333057861 342.94832699323774, 861.7403627241919 296.7471945073648, 862.8081430692082 260.32341021720424" stroke="#000" stroke-width="1" fill="none"/></g><g><path d="M857.231869124464 253.43713980854412 C916.5806726877072 253.26845764472486, 977.7029096512108 251.90434873770005, 1066.9447315726504 254.28296963610632 M855.6777581319373 254.8700830067098 C900.457680150049 254.57255578221657, 946.5768665076921 254.69242549408938, 1067.9816721631405 254.30616899937198 M1068.129796308979 255.93457164545856 C1066.9585571151626 303.01017056541656, 1069.7283693279537 350.5488476318033, 1067.5698993850265 397.15561887120816 M1068.651309461972 254.85294715501087 C1068.7368069678248 300.24695874509945, 1069.3857887502413 347.32734987177014, 1067.8606361997386 395.50790557992667 M1067.7785437499526 397.40095473542294 C986.3457213428766 396.52249030241256, 908.7762980977262 395.4928117520671, 854.6635467687148 397.5811902426378 M1068.5502818135653 396.72161659159684 C989.1707186834525 393.69910942061534, 907.9386105046034 393.808985595088, 856.0362591664018 395.74395364049354 M854.8900769323633 396.76029331479447 C857.5533995144668 364.5842025454774, 855.7591574129053 332.8548583287895, 854.3386856626414 255.16752476044078 M856.2972441825998 395.3708097610528 C856.152477882026 340.4511303330173, 855.913396264716 282.71017572558003, 856.2567499951479 254.77262140963222" stroke="rgb(0, 0, 0)" stroke-width="1" fill="none"/></g><g><path d="M887.1609046494797 325.05224102853657 C903.1386411942658 326.41925812205903, 920.2461350898176 323.1227551683298, 944.461448436295 323.01173418048484 M887.2719702069311 324.2839335488433 C910.1134047186379 325.018672951977, 933.7440309027205 326.14905584249453, 945.4048713841038 324.9125797916137 M943.417053784369 324.9745752134664 C944.9467841089961 342.6810985581951, 946.4768882613881 358.5509207772758, 943.8415396459103 373.8550826459756 M944.5141391579399 325.023300346294 C945.7133541889988 337.0635077151632, 945.0982453696367 348.40128838321135, 944.0547136686986 375.0730116758352 M944.2757513373635 373.8313597926394 C926.5181352570779 376.1350314472785, 903.6305285386559 373.3616026236274, 885.0301728897881 375.07383608879286 M944.7991484152082 375.7748312142299 C931.8278273142915 374.8144695241155, 917.7883939641579 374.8518465183208, 887.7236058924464 375.0114540460189 M885.587486127769 376.669121584799 C885.7696512962754 359.16095549215186, 888.283309866033 344.07619130083265, 888.9468972255075 325.9584447054104 M887.3764757583707 374.15433697531705 C886.6320014984329 362.239993193002, 886.2704907024988 350.25416440258743, 887.5499169221622 325.606064117573" stroke="rgb(0, 0, 0)" stroke-width="1" fill="none"/></g><text fill="rgb(150, 100, 28)" text-anchor="middle" font-family="Consolas, Courier" font-size="20" x="916" y="355">id82</text><g><path d="M943.7960785200934 324.4457445442998 C955.4544072526672 323.96317018086876, 967.9285161015388 324.93231356400287, 1001.0409585314493 326.55738954622154 M945.0433697063438 325.1179491659833 C966.2350928480591 325.69564834083064, 986.7345000566096 325.1441266363807, 1002.2876428694368 324.89344571599383 M1004.3101002906953 323.2406162248382 C1002.0856375211692 342.2987552874971, 1003.4303926647355 362.17130940287, 1004.0108617037622 375.06889137302073 M1003.2632434981181 325.11001061348014 C1002.1292786115467 342.8571066734364, 1003.0305154923747 363.5998353550118, 1002.1595292822572 375.25733620680944 M1004.4721744776701 373.4588893901293 C984.634899193701 374.7474589580454, 966.8408019538449 377.1228276530365, 946.4915121068086 375.95117883923695 M1003.4234975000147 374.4174811637741 C982.8301654957737 375.40178247477076, 962.2060767543267 374.7271379479528, 944.5022627548517 375.8935782539671 M945.3111842269174 376.2979005345398 C944.9452973309174 359.3022540166279, 943.8686573761933 340.09004254381955, 943.3816770587088 325.59269344094264 M945.3742375024027 375.11493350501274 C945.1199475636871 360.8762179119617, 945.4467036149836 347.6354318979633, 944.1094215320776 324.82531306532456" stroke="rgb(0, 0, 0)" stroke-width="1" fill="none"/></g><text fill="rgb(150, 100, 28)" text-anchor="middle" font-family="Consolas, Courier" font-size="20" x="974" y="355">id76</text><text fill="rgb(150, 100, 28)" text-anchor="middle" font-family="Consolas, Courier" font-size="20" x="892" y="290">id11</text><text fill="rgb(27, 14, 139)" text-anchor="middle" font-family="Consolas, Courier" font-size="20" x="1027" y="290">tuple</text><g><path d="M860.7940687467076 260.3954079344623 C873.253640645721 262.13310255399944, 886.8432495559508 261.29349575786193, 920.6553409943289 258.5917462012386 M861.296166492443 259.2319487915634 C874.6438521173488 260.02986847697514, 888.642346298524 260.09376458245873, 922.1045232763471 260.90161917932386 M922.7602794581977 258.18323606780666 C921.8280423701874 276.5022786925308, 920.8278123360751 297.06799987405856, 920.0896384891025 309.62403852011994 M922.2974054283028 260.72912422449247 C922.434036810802 271.7390096730602, 921.3165014219205 284.44245386975604, 921.2163210782833 310.28593038361424 M923.6461743490373 311.8964915298168 C909.499230484066 309.31191061129556, 891.938509032179 310.3338557613564, 862.4052596922425 310.55977179968295 M922.4903784074419 310.6090911336297 C903.0840892494195 309.16873136725036, 884.3874946328345 308.52399670559794, 861.6865103120853 310.8383385533832 M860.5846456987174 308.59569767716783 C860.3352326300247 292.29881398027635, 863.1619051219087 277.3524164358701, 860.9123365451784 259.2434194552433 M861.0958185777605 310.5690107768672 C862.2993258954959 299.93521470689666, 861.9122455995692 287.9260654996632, 861.5543958710576 260.17806026868925" stroke="#000" stroke-width="1" fill="none"/></g><g><path d="M992.361093512666 258.5622981417665 C1017.4858826301639 260.350953153386, 1043.574512917151 260.509741528354, 1061.1497546751411 258.39868124684745 M991.768436055136 260.72048660413515 C1005.929597396433 259.73224710673804, 1019.7331375728423 261.04090737263346, 1062.2212984980856 259.48730881620327 M1060.1083574174222 259.24892249073457 C1062.8956848485045 269.4063730723803, 1064.22064857454 280.0458030490661, 1061.0959944028564 310.3702586336002 M1061.1933160485103 260.89844095046 C1062.7938639292395 280.2089154366603, 1062.645675428041 300.69274873440565, 1061.289097646382 309.67109360189187 M1063.1785556606758 308.63762370401076 C1043.486391918738 310.15904395242393, 1028.4229427118469 309.66589613178337, 992.0285656901923 311.5533141585974 M1061.9723627671979 310.32472519616925 C1037.2462323529978 311.2845597256194, 1010.9498450525539 310.5510781258913, 992.1858922073728 309.59025413236543 M992.813480983625 310.914119508604 C993.4785236898807 294.6355851620715, 993.5963233688467 279.8489166416201, 992.3234270777122 261.52796780615677 M991.99805475624 310.82948651441484 C991.2617648275526 295.6085951956536, 991.5367082192851 279.59762561065116, 992.4012789293622 260.2467773054374" stroke="#000" stroke-width="1" fill="none"/></g><g><path d="M319.4123500407281 462.32063603526416 C369.75871920243105 461.34314180092025, 421.4653606529156 461.55355149020727, 568.5425831371597 462.6126206778965 M317.8942016038994 462.0265835423077 C396.3149099429288 461.4305967184627, 474.12142029000324 462.05946162751644, 566.4382055614094 462.18535264566816 M567.3652914970909 462.5866117871002 C568.5921517000777 502.86571848277066, 565.083478049946 549.0750731129707, 568.2237005735473 593.965759245815 M567.1632995829931 462.88976098767 C568.2581107859005 494.3538578218317, 567.6423529139311 525.7265784133336, 567.9847916559003 592.063407937773 M565.8214735314341 591.965126350607 C491.29690436563726 589.9003454497033, 414.5833352851148 589.8993976609231, 318.6533750415605 591.7825731633895 M567.7079716275678 592.2819227953225 C499.4936893511323 592.2849145743072, 431.404819272017 592.1667386926043, 317.41461093888506 592.5820109660771 M319.51114709189903 590.1466597346532 C317.96556508432013 545.598864809627, 316.2812613866791 496.81197207335566, 317.5356491630638 462.8457638503157 M318.5834343030052 591.0176911298108 C319.07850908199146 540.5123841513098, 319.5047933592754 490.1921846887098, 317.9417725040573 461.50605004460755" stroke="#000" stroke-width="1" fill="none"/></g><g><path d="M342.3714895581692 526.8887186827077 C356.505511538486 527.5370051722953, 368.14381523317275 526.6915828842918, 402.4798856340098 527.3588938736567 M342.77317672385107 527.1949326987094 C364.66232997220123 526.8867769656791, 384.64221867048764 527.2379495910146, 400.38862401753516 526.5505326098612 M400.069306486546 526.3161482410773 C402.0159753013688 540.9761121165154, 400.99534390433877 559.3339393558732, 401.25098383055825 578.8425210505173 M401.8560368512168 526.5090370835484 C401.9404511504356 539.5277275850252, 401.3776770016452 550.3540756526, 400.12191797904296 577.4345550982409 M399.8847040374962 576.1105026161225 C379.35372904650313 578.0485853014449, 355.72270519858495 575.4799054546595, 344.06372610359665 576.1976540204776 M401.62535391464195 577.1226770420192 C380.15132817509175 576.1955406345389, 360.50760543721253 577.5949179769071, 343.90189658410355 576.2777056870202 M344.07688251956864 577.8948442244654 C341.0650811961249 562.5440742994753, 341.49626193148544 547.5256887472066, 342.6127594364591 525.4826477136073 M342.5435060758009 576.2947646761842 C342.59517028197666 559.4055013992177, 342.214926024469 543.2584800055591, 343.4360421126905 527.1916531490219" stroke="rgb(0, 0, 0)" stroke-width="1" fill="none"/></g><text fill="rgb(150, 100, 28)" text-anchor="middle" font-family="Consolas, Courier" font-size="20" x="372" y="557">id36</text><g><path d="M413.5830374744159 526.3353168351415 C427.71330697169265 527.1435486023323, 440.4811684661325 525.4221198530759, 471.23062686780673 528.1517671199432 M413.573567891044 526.9628048417719 C430.4874365888067 527.6346716570782, 446.02206469778264 526.3615315962115, 471.30542400923423 526.0860241054087 M472.6027615008841 527.8237143820857 C470.4038361548633 543.125177792886, 471.0997279662736 558.3263139192394, 472.44538779476704 578.6949016611768 M471.36716692845505 526.5492067639262 C471.0673434060095 539.7346973599496, 472.4711184260008 551.392833581484, 470.6571351417659 576.2023604586302 M473.4628009960066 577.2899901254824 C452.20781245882023 575.3162605004662, 431.67399979007047 575.8636852726789, 413.8127392216502 576.4102761748456 M471.5687412404972 577.1495573209614 C459.80184145991836 577.686952241917, 448.0743873107914 577.1424257616984, 412.6636719062858 576.8278722958314 M413.74514339152773 575.6888686601978 C415.01655931812286 560.4145181954286, 415.3228170862903 546.2112929363452, 412.52892453399613 525.7393851028836 M413.2093790766682 577.7663425804216 C413.94632343720804 561.0197551567287, 413.10157223575476 544.7816299166474, 414.2380325648764 526.3577065230008" stroke="rgb(0, 0, 0)" stroke-width="1" fill="none"/></g><text fill="rgb(150, 100, 28)" text-anchor="middle" font-family="Consolas, Courier" font-size="20" x="442.5" y="557">id49</text><text fill="rgb(0, 0, 0)" x="407.25" y="557" text-anchor="middle" font-family="Consolas, Courier" font-size="20">,</text><g><path d="M485.34755442705307 528.2752106093141 C500.68039570083914 525.4845350920776, 515.8861980810632 525.7647480317518, 541.6004095282113 525.2567092295844 M484.6761771598122 527.531745369531 C507.0282334574619 526.6753104100262, 528.0506530590513 526.8457669096389, 542.9343686813592 527.3685726775043 M541.0927040215502 525.3507202740316 C542.4302201640295 540.6834572297782, 543.1534139564019 556.4447183360132, 543.1429139530582 578.6858237322385 M541.6053565592704 527.0726024288178 C541.0028145024174 543.77305877305, 542.2335417656856 560.2908755761525, 542.7708140712012 577.6575171758342 M541.0765228825636 577.4690408405056 C525.9872862414941 576.5393949192749, 509.0456075023038 575.5133998411804, 484.669930615408 578.759546959669 M541.0989723338702 576.0806827139944 C523.3464799040663 577.4323877949784, 504.1912782983003 576.6259438514555, 484.9063841163337 577.2085183402133 M484.6805445134886 575.7075727614997 C485.6744904642081 561.3925557707455, 482.223962753522 545.5046913842515, 484.5521191699813 526.7239726253174 M483.10226454869314 577.2363960656163 C484.0424995153255 565.5343190191837, 483.6644119870067 555.021779991954, 484.81633793607676 526.8143502759937" stroke="rgb(0, 0, 0)" stroke-width="1" fill="none"/></g><text fill="rgb(150, 100, 28)" text-anchor="middle" font-family="Consolas, Courier" font-size="20" x="513" y="557">id64</text><text fill="rgb(0, 0, 0)" x="477.75" y="557" text-anchor="middle" font-family="Consolas, Courier" font-size="20">,</text><text fill="rgb(150, 100, 28)" text-anchor="middle" font-family="Consolas, Courier" font-size="20" x="348" y="492">id90</text><text fill="rgb(27, 14, 139)" text-anchor="middle" font-family="Consolas, Courier" font-size="20" x="537" y="492">set</text><g><path d="M316.580436474762 461.4438015523829 C337.31332104568565 463.5376659546641, 353.25947500351793 463.3117100660003, 377.8455441563029 462.0469075681688 M318.06533224743737 462.98532051242245 C340.96450720001445 461.56330631017363, 365.46544821501925 461.2956845910875, 378.53355154274504 462.05610204419855 M379.61137396684205 462.16188547457995 C380.02365071846697 471.9212538059638, 376.8948714760248 484.66294214581256, 378.52614595373194 511.96129719538186 M378.0305949083803 461.5701819226056 C377.7239145766512 472.22012867166944, 378.73283484203745 483.06412764281754, 378.334467311869 511.09692463748047 M377.3680866892853 512.0019083458113 C357.9950081185405 512.4812588548108, 337.3426639264039 510.8768875622217, 318.59998899101305 510.50502425917404 M377.5551423811967 511.22154028321086 C360.11560506298605 512.1601431569917, 344.7388394527451 511.5508050785051, 317.0998138086452 512.0673277499637 M318.7779201496313 511.91896721901264 C316.4398964875991 502.12426057427376, 319.7642792620641 490.76760615678876, 316.4838133113139 462.57905258763617 M317.8291018016491 512.130330026031 C318.55372051723435 492.6135059436939, 317.6045054777183 473.3882130916124, 318.7504997114532 462.057186681294" stroke="#000" stroke-width="1" fill="none"/></g><g><path d="M505.25348868446997 463.3942107625134 C518.5365819355643 462.49258534244893, 531.2918319139962 464.2912006491928, 565.3157899361503 462.13950176137496 M507.7935338079637 461.9441935760702 C528.399869130998 462.7892760629359, 550.4888955248346 462.35779167447936, 566.0661751663594 462.08565906488786 M565.5580672857673 463.66422941798675 C565.8906677048317 473.3415467099121, 564.9107396167565 486.01475243311455, 568.1015427559674 510.019504812127 M566.3373791295852 461.15095404325035 C566.181759494069 474.1454599627404, 566.9575398427523 485.57541502546206, 566.4674121802357 511.45166124416113 M566.2765626167469 512.0563253462022 C553.2800618596827 511.18179756611477, 539.8514320736463 511.66088605564477, 505.53772266129397 510.97770800398695 M566.5931941364344 512.9291649437403 C555.0533022859419 511.2445523800916, 542.4584907147098 512.5221491564853, 507.33571096586616 511.6221251858537 M506.851954253833 511.6418851460235 C508.5330117541264 496.7386562134913, 506.53343142316976 481.3789298383889, 508.841769648958 463.8194657663863 M506.391326986981 512.596995839578 C507.42379646115086 497.1645834509367, 507.74416071799965 481.59972540701676, 506.24047110044756 462.91133141462734" stroke="#000" stroke-width="1" fill="none"/></g><text fill="rgb(0, 0, 0)" x="330.5" y="557" text-anchor="middle" font-family="Consolas, Courier" font-size="20">{</text><text fill="rgb(0, 0, 0)" x="554.5" y="557" text-anchor="middle" font-family="Consolas, Courier" font-size="20">}</text><g><path d="M650.6305421589345 535.7052327768777 C669.3924503542013 537.4271796005797, 690.6026535428349 537.5402476405901, 701.9568836548929 535.1919283412724 M651.8503969565232 537.4933282294675 C670.5509886795312 537.4176473837146, 689.772943883575 537.6752829904577, 701.9576578065825 536.5378435940764 M703.1573900673227 536.3919459912603 C701.3329395095049 551.6574259233073, 702.7872357561786 564.1484189663079, 701.7234240244771 585.1201865764978 M702.0361548642048 536.868468136864 C702.9508004245146 553.8495410404604, 701.7579127125282 568.7619886055196, 701.3847167928969 587.848910724239 M703.3706335013326 587.1036407462649 C689.0952603943242 587.3442875549663, 678.6604495310296 588.4858877514146, 650.6486762332725 588.3627353001634 M702.0480968079275 586.6190897167525 C685.3825694570886 587.9494475621158, 666.9307587455158 587.580372506841, 651.07943167866 587.0747080318089 M651.8312662747 588.6366065559927 C650.2234755546779 570.3034433620245, 651.0065202570692 555.8327757866415, 651.1882534095582 537.121992046984 M652.7158540349103 586.8066809072038 C651.2462740175673 568.7398674311836, 652.5419658929976 550.8786779537508, 651.4833404657438 536.8886433524938" stroke="rgb(0, 0, 0)" stroke-width="1" fill="none"/></g><text fill="rgb(150, 100, 28)" text-anchor="middle" font-family="Consolas, Courier" font-size="20" x="679" y="567">idx</text><g><path d="M650.864305244611 610.9170925345892 C669.3004672686592 613.0774508424038, 690.825366448463 611.9932869722379, 703.352090589934 610.4908255177194 M652.827707986706 612.3042854515529 C668.0287012623767 611.8665626530399, 681.9666237543883 612.2997461749758, 701.3705265306729 611.9133886222425 M700.7400115706232 612.2345326921995 C702.0302220374447 630.1507100451483, 703.1290807711015 645.1402034128635, 703.7178898539769 663.6530776239099 M701.4919369844325 612.5548159381054 C700.8872069883081 625.2830847229791, 701.510833856431 636.9851977160474, 701.9641589510675 662.6836612226334 M701.4560392418426 660.1222418001768 C683.5738106499717 664.2997732050392, 663.4987655636855 661.6138230756604, 652.8961134986789 661.191614024669 M702.6580711047917 662.9631961680241 C686.7280812641319 661.6966399753451, 671.3680162280709 662.9899923387435, 651.8681247253153 662.0985828787692 M650.4434560896439 660.2762548916592 C652.6336382965758 645.0763893657212, 651.8576838403029 628.255487450278, 650.420318087782 612.7047475580083 M652.5242392482552 662.099316728127 C651.1117710315281 642.4152819965342, 652.3636979071875 621.8536521881153, 652.0744884814084 611.9967143494841" stroke="rgb(0, 0, 0)" stroke-width="1" fill="none"/></g><text fill="rgb(150, 100, 28)" text-anchor="middle" font-family="Consolas, Courier" font-size="20" x="679" y="642">idy</text><g><path d="M652.0982220937221 687.9974076554095 C668.7715246617664 687.3337660853682, 685.6801924997061 687.0725033191284, 702.7366154320767 685.0254072419015 M651.7818409684792 687.6707152475508 C668.1737428224219 688.2566939392304, 682.645964317931 688.1963410089804, 702.5895247787523 686.5415681426149 M703.0216389725922 686.1929021671317 C700.8237215673104 697.2033087227518, 700.7973549664126 708.843252726471, 701.805462607549 737.4045940106926 M701.7939447619614 686.3698819881956 C700.8055043260302 703.8996481718772, 700.8262381396272 723.1030946069474, 701.424344920689 736.0387264564434 M700.8038439468883 738.7712449483267 C690.8030102057103 736.8958892232123, 674.8534831775448 735.7434658947781, 652.4038790835352 735.8418206784582 M702.6221174077072 736.0786640679689 C689.9806890774788 737.2123091276911, 678.5103754704355 736.9485165377338, 651.4963718156204 737.8685764135561 M652.7253994835474 738.8997829577668 C653.2267558907665 716.2831362285842, 653.1283875982251 696.0344501615988, 652.3275896738558 686.7906718041896 M652.5502947264557 736.1388024510974 C652.0889601983937 726.6308200718498, 651.1752257915144 715.5589579955856, 652.0171797071102 687.5586598866836" stroke="rgb(0, 0, 0)" stroke-width="1" fill="none"/></g><text fill="rgb(150, 100, 28)" text-anchor="middle" font-family="Consolas, Courier" font-size="20" x="679" y="717">idz</text><text fill="rgb(0, 0, 0)" x="733" y="567" text-anchor="middle" font-family="Consolas, Courier" font-size="20">:</text><g><path d="M753.6389095384003 535.4956146807322 C774.2641577298001 537.24239386508, 793.3602547447881 535.2524754915648, 811.8701726409888 535.2312002600339 M752.2386471950922 536.9028469906935 C767.2163643417769 537.4403376905872, 781.5524804822257 536.7510906238097, 812.5727723016778 537.8491578620426 M813.1935181712076 538.6985195125676 C812.1303289143585 546.9015304826463, 812.8771106906331 559.3605225412105, 812.9584844623132 587.3595258982514 M812.9315456430343 537.4208442810129 C812.7271603700005 547.5470761305836, 813.245289512181 559.1163409229647, 813.9252088145632 587.1711399515466 M814.7354702538038 588.6326610001913 C788.7237675461627 585.1825149385581, 766.2486887143012 588.5907738753054, 752.1211617881037 587.3502035844523 M812.5244678411536 587.4250011903599 C794.5101029262592 588.1489423853749, 775.0940003493779 586.6311768218341, 752.8945985279622 587.561930077718 M751.7623491621636 586.2722453596598 C753.929880896434 574.915664284294, 754.5610288095157 557.8978078200721, 754.1684251798156 538.9451490099804 M752.8301238549386 587.1768941759626 C753.6350544995292 570.9854804572043, 753.5946793683302 554.9092236113747, 753.80369392223 537.936080931141" stroke="rgb(0, 0, 0)" stroke-width="1" fill="none"/></g><text fill="rgb(150, 100, 28)" text-anchor="middle" font-family="Consolas, Courier" font-size="20" x="783" y="567">id81</text><text fill="rgb(0, 0, 0)" x="733" y="642" text-anchor="middle" font-family="Consolas, Courier" font-size="20">:</text><g><path d="M751.6502322267984 610.4588996361013 C776.0804235888294 611.5072479431784, 800.9359998462675 612.0938613130355, 826.371096141583 611.8390780239096 M752.6229944089822 612.9058875501811 C774.284262919079 611.3873265562183, 796.7349086252079 611.1996204328128, 825.8811593452053 611.4474413067337 M823.5684965975702 612.2709617463885 C825.1346971535628 623.3980444030975, 825.642543497473 639.2128472710608, 825.557376732489 660.8709040543868 M825.4051822304536 611.2444676299236 C824.5778248959554 631.7954651095882, 826.0430650515003 651.714203314348, 824.995027796151 661.9365638969513 M823.4184823147222 663.6314598976894 C807.7939459732964 661.2971394581101, 791.7128389085264 660.1801540321429, 752.1389624235409 663.0507333556608 M825.9163064497545 662.0444866332822 C804.0557254560738 661.6629279312732, 784.7276773547593 662.2401769409173, 752.5916537990138 661.4971622251396 M754.2772870216128 660.6274568871537 C753.4323311225571 647.7627410735514, 753.2388862335885 637.5569112238669, 752.3654205153065 612.2853852697583 M752.0031636670163 662.7053267785468 C752.1742545222365 651.8145122334057, 754.129860120717 641.1136521252968, 753.298218156512 612.0299067230178" stroke="rgb(0, 0, 0)" stroke-width="1" fill="none"/></g><text fill="rgb(150, 100, 28)" text-anchor="middle" font-family="Consolas, Courier" font-size="20" x="789" y="642">id100</text><text fill="rgb(0, 0, 0)" x="733" y="717" text-anchor="middle" font-family="Consolas, Courier" font-size="20">:</text><g><path d="M753.1722455602147 687.832801280761 C779.5489617071404 684.5981414070031, 802.5124025704051 687.844926173152, 824.4957178910864 687.4344921659875 M752.9838114394128 686.6639917499882 C777.0060222580314 687.3707717509842, 801.3692817693741 688.0503463936722, 825.8809281165975 687.0992816780339 M823.8174073222208 686.347627844018 C825.2647882999667 701.1821672884257, 826.849950083008 717.7544965985155, 823.2462212359183 737.5903197550124 M824.3005837048559 687.1772484293942 C825.153869093121 706.0629265098124, 824.5974568246161 726.4563616363827, 824.769671314609 736.1281242615803 M826.4747966002057 738.8091408052939 C805.1511438203387 736.0181224769285, 782.1761473609107 735.9371675174248, 751.306752868642 738.6129206219713 M825.0832728259452 736.4379905366341 C800.5640568838354 737.9282225796345, 774.5033908952596 738.237738110328, 752.6436564900886 736.9273747946723 M754.0935014737295 738.7924836773863 C752.3086586911684 725.3946942530899, 751.3057235228803 713.0733398284003, 752.695012060669 688.4021692937927 M752.6239329993324 737.2177048887262 C753.0587989917101 724.5314685287644, 753.0446991928312 710.8856897939565, 752.4979710312616 687.8531843172824" stroke="rgb(0, 0, 0)" stroke-width="1" fill="none"/></g><text fill="rgb(150, 100, 28)" text-anchor="middle" font-family="Consolas, Courier" font-size="20" x="789" y="717">id121</text><g><path d="M628.2043639608443 462.5524441405947 C688.7115953959542 463.1282776102396, 749.9336026261865 463.0475188517539, 837.9749710547795 461.0333588081029 M627.4364476140765 461.2562366225492 C671.5301407223428 461.4936203034245, 716.1937164444582 461.47894403389677, 839.3274645379486 462.8215356965813 M838.0077696854455 462.71983100346426 C838.9946909872862 541.2604892071206, 840.8243704519589 620.2736111108712, 839.5871233960813 762.7264283300348 M838.2739611069379 461.483219644185 C838.7232290616321 530.0899384832442, 839.1198966240987 598.6218938368794, 839.6128431609775 762.6344305186623 M839.7981789540127 761.3785409725781 C789.8900700660807 761.8319771489007, 742.462599282733 763.1483781702609, 628.5881387656517 761.4329467137161 M839.1711683280263 762.4106835057895 C774.9260324791405 761.6939892031813, 708.677494040813 762.3288879546103, 626.1711089426288 762.7476646292783 M628.4174337275222 762.3461322058588 C627.3828783477937 694.272588749355, 627.5450723748975 624.6302666043839, 626.0865790875896 461.98323162665434 M626.4880311013386 761.4273972864961 C624.8115437044012 643.2373217623152, 624.8811251550658 524.4660033854519, 626.7880534804398 462.5265162623687" stroke="#000" stroke-width="1" fill="none"/></g><text fill="rgb(150, 100, 28)" text-anchor="middle" font-family="Consolas, Courier" font-size="20" x="657" y="492">id10</text><text fill="rgb(27, 14, 139)" text-anchor="middle" font-family="Consolas, Courier" font-size="20" x="809" y="492">dict</text><g><path d="M628.7648467303452 463.89185895506296 C647.8396364393718 463.29245779271986, 667.2800038764357 459.7606523568547, 688.7762455340549 461.6092522511701 M626.6672903553937 462.31004000421757 C649.3511980284679 462.03055722775736, 670.5746756273943 462.1396981861708, 686.3490000310954 462.08882153000343 M685.3937218624264 463.33465166738057 C685.4702113406379 473.3631748358444, 687.0793276511351 480.9806183444884, 685.6212060578404 512.0309246130269 M687.926286772005 461.0803245452541 C686.8741084961539 475.1198325285655, 688.1514729158213 487.52807847417915, 687.0232417216037 511.976264309221 M685.15567417647 513.2491705646707 C662.5238333184526 511.79163276575804, 641.5463364727652 513.0015805470275, 625.441944717012 510.56929061450404 M687.4234273248082 511.5137777273701 C668.5497572731911 510.98768140961556, 649.463036311033 511.65663480878663, 627.1868697006678 511.9926010226777 M625.6687776621399 511.83241633955123 C626.3830543151065 499.92482157561403, 625.6806262529144 484.9298208794227, 626.3316525813976 460.56451265065294 M626.9433084550695 511.8236057998888 C628.2640731959962 501.53040139345063, 628.1074516022501 491.9723995860056, 626.3312738550528 462.6715396122513" stroke="#000" stroke-width="1" fill="none"/></g><g><path d="M780.6911849537245 462.7668456930839 C793.382480760418 460.5776281516032, 812.1971156321417 462.83651196504917, 839.5817259956739 463.5257918945199 M778.839463824405 461.9069787697583 C801.7850400169223 462.47350036941873, 825.9598722683598 461.5236094129848, 838.3968235918005 462.9928261461914 M837.6887536398294 463.17511168841537 C840.9991178149738 479.92796768361086, 839.0730868027518 495.97769166952935, 837.3316073687421 513.1917599046774 M838.1410408096257 462.96340182227203 C838.7990683706719 480.60026761284644, 838.4511864808455 500.7329542809716, 838.0101649460297 512.4844299291867 M839.5819612571613 511.21138572054616 C815.5544746185849 511.78275377937246, 790.8577659905211 511.56339773867603, 778.7223127530698 511.34475361604177 M839.1770422219857 511.1279355888396 C817.1351387151209 510.87673440190304, 794.7455985942044 512.2499963882942, 778.775112744104 512.3663325452179 M777.4764788403947 511.4834829087621 C780.2890059584664 499.69678067985194, 778.180831877009 486.18444833295536, 778.2424357991372 463.3929710562026 M778.5073745994042 511.2146720744011 C778.0764411648804 491.9637957403364, 778.3114768545136 473.31898068036105, 779.9410129666262 462.46719502015407" stroke="#000" stroke-width="1" fill="none"/></g><g><path d="M898.637076802173 463.0498961898444 C952.4413018862688 459.6086213795002, 1009.5573722678263 462.57234332355023, 1100.5337088103975 463.2956355718144 M898.2760954615027 461.50315193542065 C978.9849722310372 462.16864881713803, 1057.9829268570854 462.76804572435196, 1098.6428734050398 461.40258022753625 M1097.293431793384 463.60857030770296 C1099.173980266202 505.4445930765401, 1097.135035394719 546.3024880728877, 1098.9252640492114 593.315151468128 M1099.2373819993966 461.8608020233637 C1098.2747115070458 507.243613913942, 1098.2870887922315 550.6441979938272, 1099.0367965672485 592.7437374744836 M1098.5938808862045 591.5000895251947 C1044.384400974887 591.8705754254106, 994.1438985304163 593.997345482923, 900.0015945842824 592.8534523934403 M1098.840218856865 591.5261296597787 C1056.8962461454437 590.5742309261593, 1016.4217203005213 589.5939579167658, 899.1737504315474 591.8598276178434 M898.3586039592536 592.7281552432612 C897.100951160127 554.3326716117747, 898.8906840736854 516.3253436152628, 899.4049097642536 461.3219449554112 M898.2364534936589 592.5470651042083 C899.6854086095244 560.8034706595021, 899.9176350785261 528.4245597998521, 899.9555529024872 462.2465165683213" stroke="#000" stroke-width="1" fill="none"/></g><g><path d="M892.5517538763775 454.99325467261906 C975.1147336278283 453.45017177617007, 1057.2748686654186 452.8314974619688, 1105.937362644968 454.24699913622084 M893.0890776099181 455.41021281984393 C945.7386497677959 455.7454826492092, 998.4950170841897 456.26072434573376, 1105.2668930346938 455.6739485398276 M1105.1434399697387 454.197882147264 C1103.2625396889484 498.09653743085937, 1103.8820806333242 543.7587827458543, 1105.6543165182943 597.5515844722194 M1104.249593081196 455.8372710461408 C1104.5066283199485 505.600141919173, 1104.8061918091935 554.2076179513289, 1104.978158682107 598.8947512215823 M1104.5312192707086 597.8114748214177 C1024.5713564744362 595.6922040860696, 946.0577655912502 598.2624206717538, 892.0629567095101 597.9198303673842 M1104.8972150488594 598.7738382925542 C1061.6501958770182 597.0323648381342, 1018.5800600410053 597.0404287609239, 892.3291797384404 598.7970467653848 M894.9409499514956 596.2948844951966 C892.1025949208387 571.3335294509186, 892.7949126088754 540.6361291416965, 894.7424989079833 455.375884442737 M893.1330040654009 598.567732176064 C891.1201298408768 563.6527186341996, 892.6202989790321 529.0296452093831, 892.5565454133623 456.0654179901485" stroke="rgb(0, 0, 0)" stroke-width="1" fill="none"/></g><text fill="rgb(27, 14, 139)" text-anchor="middle" font-family="Consolas, Courier" font-size="20" x="999" y="552">"None"</text><text fill="rgb(150, 100, 28)" text-anchor="middle" font-family="Consolas, Courier" font-size="20" x="929" y="492">id13</text><text fill="rgb(27, 14, 139)" text-anchor="middle" font-family="Consolas, Courier" font-size="20" x="1069" y="492">None</text><g><path d="M897.4126754925286 462.5334657205592 C915.2153620277418 461.22586960050904, 932.4586181149893 464.29949943588196, 959.5388337130898 463.02513865314563 M898.0083019309632 462.11285544600577 C920.0258603786666 462.85756394317656, 940.4587526467616 462.1883865952395, 958.8719522925944 462.63761571790553 M957.0659430826829 463.6837237542716 C959.8038558919188 473.743931970735, 957.4397396554863 483.679583424841, 959.2465954321962 513.0772342032076 M959.4325193454594 461.15481492613134 C959.1469887964539 481.32543214397344, 959.645091352182 499.24760251885283, 958.3053621532423 511.07431228498643 M960.7032264495161 513.749251754839 C946.6281495285409 512.994496176041, 934.1242535040199 510.4020176576994, 898.7954376582893 513.0827196659767 M959.6785703894635 512.1528971709188 C939.1908703445541 512.7833523937479, 919.2268149105923 512.8944310812174, 899.7801117095838 512.2548031153952 M898.7337685239409 510.0237916846386 C899.412864731853 499.0545824167152, 897.5991288411076 483.82386611411044, 900.0796770913324 460.42117541597224 M899.3653505724358 512.3949714808464 C898.1475201101872 494.66082037387866, 899.2521518621992 478.11283044584326, 899.657712042088 461.60709492145" stroke="#000" stroke-width="1" fill="none"/></g><g><path d="M1038.6715543929956 460.10347031312017 C1056.5749339839476 461.8728711242512, 1070.7442349078256 462.6371605651239, 1097.3566340588022 460.51090984282376 M1039.8005786982667 461.29626307325634 C1061.9514040485715 462.2466183574157, 1084.6210661344296 461.58467346460344, 1099.7336109966689 461.5746040251498 M1098.8948190283318 462.298942940668 C1100.559679633037 480.4626540201323, 1098.0545087348517 502.3318828366071, 1097.454817605504 511.6020002013768 M1098.2565815130993 461.0427493047956 C1098.951106639446 476.7672777426307, 1098.9949023891495 491.7050838130622, 1099.1277442931575 511.76592126215934 M1100.9805630879475 511.337286037041 C1079.4078802359008 511.0431418347336, 1058.2784492577014 511.2005824840967, 1038.4766857442644 513.2708605329218 M1099.543939136046 511.39968573843265 C1084.074396700306 512.6619826330606, 1069.9165787275754 511.3092745190835, 1039.49222988419 511.77687930760175 M1039.6017167272178 513.7841695963243 C1040.2884275199285 492.2783930014719, 1038.138994517113 474.2212342756498, 1040.497414018972 463.25161368380856 M1039.5166348251626 511.5016621058586 C1037.9240870427896 497.2813263725059, 1038.6219872737383 484.0886670778151, 1039.0130258644042 462.2423345011903" stroke="#000" stroke-width="1" fill="none"/></g></svg>