<svg width="1300" height="1189" xmlns="http://www.w3.org/2000/svg"><g><path d="M80.24531279155272 50.56099826318741 C143.8624476723694 50.88606245730269, 203.14006829098867 49.51729294314248, 277.55644285764475 49.279528312635165 M80.03890967114535 50.896607736389086 C154.35273398019007 50.69584304743303, 228.80878777751764 50.82705896236061, 278.5270395517811 49.11271069368896 M278.3299244897567 49.9896394332194 C277.30727427171996 184.8052609331881, 277.15424471935034 320.7520691262292, 277.8501083621508 500.51425846008675 M278.0852963414952 50.006086886756435 C276.5921329052892 153.392153070936, 277.0297512898314 256.9684112381946, 277.9594947758672 500.0032731878463 M277.45156809421263 498.17637414713613 C218.8449587726522 498.5220473903481, 157.06974557893804 497.3951633968498, 81.3067871043781 501.31763607653653 M278.96487108738773 499.7375479073721 C207.0629733473808 499.84190158458733, 134.55181665964164 501.0464506910047, 79.4881001784872 500.5858996026912 M79.37720941689876 499.85401549052034 C78.29562122145752 358.50848113989014, 78.93689914765781 215.1836875884732, 80.21372786525905 50.54799425717338 M79.58335307976455 499.82818174819886 C81.5044115545992 331.9734443999288, 81.73303480895659 163.8461896747797, 80.4017400764999 50.39097026254761" stroke="rgb(0, 0, 0)" stroke-width="1" fill="none"/></g><g><path d="M204.4699505344588 123.91079055636163 C222.17438182358188 124.18980265063313, 241.3357742227817 123.50158311998169, 261.93781994055854 125.08940267628599 M202.4478284530321 124.76659851938247 C216.13973467300846 125.0866618967086, 230.30103020936554 125.67454930477196, 260.40485996682656 125.20214710941283 M260.6781445357909 124.13132883536204 C260.6263787504256 140.77062813892428, 261.60365637963986 153.32042489045648, 261.52264817247834 175.98367719827684 M261.8155950688088 124.4049891580625 C261.026396462005 135.9091611549183, 260.5353337768045 146.60885093990163, 261.7380953398147 174.26239573257686 M261.9117245644984 175.37661777500458 C242.71765998582433 176.81705835706973, 226.9751551957618 173.8519079684848, 202.39727007302423 176.66732578943612 M261.92813081647864 174.66978458259288 C239.02186543807562 174.96501248717973, 218.14809076967978 174.77046991230117, 202.09456196984152 174.26482540972427 M204.927772787058 175.5159873814724 C203.3373613371199 164.73246201811386, 203.96256903238117 152.52541175179155, 202.2371317843703 126.51891867641146 M202.10681648880694 175.9991141913971 C202.89468434821418 157.7962745656988, 203.95124610655972 142.24569397372753, 202.16971239131448 124.14119498465652" stroke="rgb(0, 0, 0)" stroke-width="1" fill="none"/></g><text x="105" y="155" fill="rgb(0, 0, 0)" text-anchor="begin" font-family="Consolas, Courier" font-size="20px">lst1</text><text x="232" y="155" fill="rgb(150, 100, 28)" text-anchor="middle" font-family="Consolas, Courier" font-size="20px">id82</text><g><path d="M201.27264092023378 201.73134072631368 C215.4010631412615 200.91096409181304, 226.1355678731768 201.93092412025217, 259.1244104610264 201.35123789044005 M203.4270853724221 200.56909395766016 C221.71329125727723 199.48896664560908, 240.2849782590976 199.25159938490688, 261.85313373404887 200.81678177444195 M261.9567708895288 201.03241383394962 C260.078296577415 212.96909318826778, 261.1422982482055 223.07285023721118, 261.91609623869226 250.8325692156186 M260.2405905930823 199.19193898614762 C261.38856911191914 212.14298439998993, 261.1287803073436 224.81388964639314, 261.5065103556513 249.5365719190494 M262.4436933310965 248.24781323895388 C248.04370534952943 250.42313159457984, 235.7649664255799 251.86453806286133, 203.00047519906553 251.1578171643199 M260.21151038470543 250.96178469299352 C244.5559647598356 249.59762443681814, 226.48797577139933 249.91361419166213, 202.4391849691549 249.24722560207329 M201.39599409629474 248.1438966868717 C203.60465496873437 236.0143599986407, 203.08758256552755 227.67005395086673, 202.91290623478 198.29945639632416 M202.08716903098932 250.7685152108002 C201.8884386986255 234.98837870246066, 202.21671477507326 220.7656193274234, 202.63165884967847 200.27915425880494" stroke="rgb(0, 0, 0)" stroke-width="1" fill="none"/></g><text x="105" y="230" fill="rgb(0, 0, 0)" text-anchor="begin" font-family="Consolas, Courier" font-size="20px">lst2</text><text x="232" y="230" fill="rgb(150, 100, 28)" text-anchor="middle" font-family="Consolas, Courier" font-size="20px">id84</text><g><path d="M202.6581407676739 274.9315379656635 C220.14718460164767 274.9155736589939, 238.96464657610463 273.31381003176693, 261.970796947772 274.5945562246891 M203.5187293336264 274.84002645128123 C219.29681190618774 274.0745226163789, 236.39533517203432 275.010908068298, 261.92748982737214 274.71794416100585 M261.404093825513 275.92538702158356 C259.2336430224474 291.80647484983007, 259.5200314454102 310.58086965941743, 260.8185053628459 326.21700666027255 M261.6385929898322 275.98467621781305 C260.467639049846 287.486657623979, 261.50728663772003 300.76244498631206, 260.5234127160882 325.87080652188666 M259.88299857852763 323.6687982814415 C248.90325518726323 323.7002922470042, 236.6168952191024 324.2765118072333, 201.44065547913166 325.2395028196414 M260.02249291802457 324.36491666910587 C247.03232439979504 324.124785134089, 231.3946239627186 325.4778185873796, 203.08318212914472 325.36503504689415 M204.1391286124567 326.8781979212156 C201.6387007969016 309.5675709921714, 204.00564410391655 296.3161426383752, 203.2891069031182 274.7516573163904 M202.5525542680588 325.07721329248807 C202.57627827931316 312.48875930527527, 202.1253505231286 298.7295363794232, 202.16087496182257 274.7055245391935" stroke="rgb(0, 0, 0)" stroke-width="1" fill="none"/></g><text x="105" y="305" fill="rgb(0, 0, 0)" text-anchor="begin" font-family="Consolas, Courier" font-size="20px">p</text><text x="232" y="305" fill="rgb(150, 100, 28)" text-anchor="middle" font-family="Consolas, Courier" font-size="20px">id99</text><g><path d="M201.87839812021082 349.81105007125564 C224.53635710001362 350.2820170881697, 247.88931626210623 348.593971907686, 260.50089021770054 349.13034590480686 M203.0511325102037 350.8399231694498 C223.34583239306886 349.79420994599974, 244.54751972857423 349.97476457869885, 261.2028255605465 349.3222383924871 M260.71637517203055 350.4342806739065 C259.39237297194325 364.0256163267109, 262.6464976692341 376.0670607766533, 261.3066938325226 399.82114697261335 M260.1930695956708 349.68700887136805 C260.40953397405815 368.20271504825763, 261.4010918050232 384.738911956753, 261.2188323023096 400.95084530564225 M262.474221999835 399.4270846668622 C250.00816455333518 402.28390850709764, 236.15553734812934 402.3114923156868, 201.25200135670096 401.75496057068443 M260.4995079425115 399.3588800841015 C238.38670320231824 398.9630682625711, 215.3359868926353 400.14759355665393, 202.00612915100263 399.682844145874 M204.79612596577005 399.9624062525145 C204.382505573187 390.7399545420845, 201.89361428958503 376.2831929255213, 204.42517372345338 351.6058078867509 M202.1707226217418 400.41900591674386 C202.66305747353556 388.4203636999944, 202.99363988644077 375.07727962493357, 202.1575394721038 349.3451132988879" stroke="rgb(0, 0, 0)" stroke-width="1" fill="none"/></g><text x="105" y="380" fill="rgb(0, 0, 0)" text-anchor="begin" font-family="Consolas, Courier" font-size="20px">d</text><text x="232" y="380" fill="rgb(150, 100, 28)" text-anchor="middle" font-family="Consolas, Courier" font-size="20px">id10</text><g><path d="M204.28426520446624 423.8791804328844 C217.04935741806318 423.39112960028615, 228.91208136784448 424.51282296413217, 262.3864731573671 423.4093035407585 M203.00075364114542 425.01999886065335 C223.85476956766243 425.7314410239381, 244.9090249263453 425.07638418542774, 261.7783111681409 424.95218753054087 M260.87146422923826 425.83027837744237 C262.0788943757612 444.6726026260316, 260.1026932305075 460.49899685449014, 262.16962476973333 475.6879191457509 M261.6794764578773 425.0962241230193 C260.2055022016922 440.9190461690336, 260.05194407761263 457.75425940584256, 260.4793780741838 475.3700048654075 M259.19812317859567 473.05306561497105 C242.3351253764093 476.3734199271903, 219.6904479126659 474.177253715302, 201.9104219683778 475.15092799808565 M260.4638551484579 475.44233066605375 C241.72579117609143 474.68797712404495, 224.642059175148 474.8672338420164, 202.26320403353427 474.9817123700638 M204.3499821600894 474.6550038643488 C204.30528534391672 459.9071926316735, 202.90512206814466 446.41640857479507, 203.1902215627119 425.2994896329693 M202.34873040893987 475.43623620295125 C203.13135701234242 455.9831889273487, 201.96130409233933 438.93219683599085, 203.68672159490956 425.25911297116846" stroke="rgb(0, 0, 0)" stroke-width="1" fill="none"/></g><text x="105" y="455" fill="rgb(0, 0, 0)" text-anchor="begin" font-family="Consolas, Courier" font-size="20px">t</text><text x="232" y="455" fill="rgb(150, 100, 28)" text-anchor="middle" font-family="Consolas, Courier" font-size="20px">id11</text><g><path d="M80.98826848267576 49.47083045734415 C119.54970861822181 47.69321990726309, 159.66079345777916 47.97588465091354, 185.86935308172102 51.403760723619285 M80.8346128036692 50.35697225735176 C110.2552068551869 49.423997032760695, 141.95074888641807 49.443506320278445, 185.75233416851785 49.120762894584104 M186.09570610301793 48.25937071843353 C185.8980812721679 66.48374002735514, 188.24714489222083 81.04991838648999, 184.50587567968955 100.88840173543986 M185.90385886691917 50.999520869667215 C185.23512550199655 66.7686682868889, 186.12044861508122 83.73738534589882, 186.8975756764046 99.50737734263802 M184.22523821776898 100.02963646451595 C149.7740242824157 101.444756334798, 116.73765313369624 100.2136956263717, 78.19336322402626 99.33549982942301 M185.8694490616792 99.93011226406293 C152.477866766555 100.69496234339444, 119.58409740868325 100.54368269484468, 80.1716836625213 100.12311165013665 M80.35586838004423 98.12946835331098 C80.31443251216056 85.72547252955364, 79.26470834151503 67.01955314060099, 79.1716041811433 48.42008993752203 M80.3188081633431 99.99847990149144 C80.30348160743478 89.64052360758963, 80.96604781884271 79.99381850156158, 80.7102755960756 49.51018030835061" stroke="rgb(0, 0, 0)" stroke-width="1" fill="none"/></g><text x="133" y="80" fill="rgb(0, 0, 0)" text-anchor="middle" font-family="Consolas, Courier" font-size="20px">__main__</text><g><path d="M319.12149429533827 51.21194079371861 C377.74996727981255 51.86555906731419, 443.09345301521745 51.66980658039339, 515.2722119427939 49.995296656395595 M317.53263818341884 50.021884451687534 C362.8482457524376 49.731930811686944, 404.84052125718927 48.518387189876094, 516.4328267341256 50.66910415743588 M516.5623676790981 51.584715760610884 C516.9293765642865 112.31295987247056, 518.1076537930493 171.7449692585021, 514.5267588071922 273.9080848063735 M515.420312048191 49.981189902877254 C517.3156442963001 126.4490831644605, 517.4411571497842 201.94477305996097, 515.7680351418799 275.4318616137907 M517.2486179957599 275.3988767086835 C442.08004038669185 274.9515894007156, 368.9291836346833 272.6747475289789, 318.50768479608473 276.6843610149648 M515.5759324121187 275.28855292463646 C451.0807641552251 274.43316002516025, 386.62930867390077 273.30662376276814, 317.2892711680739 275.07940854073485 M318.4796102929117 273.61163794348363 C318.1273142993576 215.18507895334244, 319.8180908447667 152.77072249248295, 316.33357599955997 48.80437751040128 M318.8439947206763 274.2740289077664 C317.69578806149383 212.02139554285785, 317.1599190653209 150.39403899798228, 317.3034330938681 49.90971845915464" stroke="rgb(0, 0, 0)" stroke-width="1" fill="none"/></g><g><path d="M442.48163397448104 124.58976848857306 C453.3221373677242 123.29911471324698, 468.65280673267307 124.11878135893046, 498.36380448402883 126.80884213760494 M441.0430812234987 125.00300381417681 C464.66432638486117 123.86192423035484, 486.7941653323428 125.13984774205558, 499.1268666909643 124.7442636772561 M500.83917994060187 126.67914506726989 C497.5073304385379 143.34231394708536, 499.19422370653257 162.79769692682711, 497.6687009797724 174.65687153187676 M499.7383221745677 125.21218706604401 C497.7896446149179 143.3842908966497, 498.75190907443124 161.19718782153427, 498.4502078394257 175.57962054728674 M499.6072878327411 173.52686240085285 C479.10891223333783 173.52577178458523, 459.25223091445895 173.49000572172534, 442.0892684323518 176.93957065351967 M498.56602689776156 174.27341876861706 C485.8670887333048 173.87609262820786, 473.8546145493319 174.7148925333814, 440.87239187008066 175.77741984878776 M441.0905600600526 175.91405720110015 C441.6639835456757 162.10216309329994, 439.5091480119062 150.28373501531178, 440.4358592625679 123.25516609093694 M440.7783009710955 175.56303227754216 C440.1286259044552 160.96035884088525, 440.15840781454006 144.69205279700597, 440.1142521198803 125.00993221476533" stroke="rgb(0, 0, 0)" stroke-width="1" fill="none"/></g><text x="343" y="155" fill="rgb(0, 0, 0)" text-anchor="begin" font-family="Consolas, Courier" font-size="20px">age</text><text x="470" y="155" fill="rgb(150, 100, 28)" text-anchor="middle" font-family="Consolas, Courier" font-size="20px">id12</text><g><path d="M441.0564197171084 199.1796839516987 C456.45604908382234 198.36664568349522, 475.59804508476327 200.29170630283113, 498.9962852119149 201.09058533685987 M440.7465079995552 200.3535101204362 C464.2160112101057 201.4340495560239, 486.70847570474166 200.85304740639089, 498.0675597222063 200.61632954047758 M497.60048233096416 199.968376439954 C499.0958989937618 213.26743944525404, 499.4964490267931 229.56628690665332, 499.1793401995318 249.7530038108915 M499.5753501441651 199.34733631668234 C499.0365251416454 211.26218212865155, 498.0500157368777 221.7877966534974, 498.96510534387164 249.3651454563856 M497.43313353122574 249.68662178169203 C483.8399972369146 249.64284011921805, 471.0427637160963 249.91748797230366, 440.7088076912891 248.60043371126795 M499.7219539543591 249.32835000567962 C478.01621669629327 250.29530030615553, 456.5701861684834 249.50482639194465, 440.3573783782913 249.96761517448354 M440.5808370864626 250.44470581895442 C442.0357818277433 231.47362147601777, 442.1572466442693 212.57962916491408, 441.2006628172322 198.4512814189066 M441.8643046946447 249.98242294522547 C440.45916649023957 232.95046439239988, 441.26734650313375 215.4483119442787, 441.61363348025174 199.14400219372493" stroke="rgb(0, 0, 0)" stroke-width="1" fill="none"/></g><text x="343" y="230" fill="rgb(0, 0, 0)" text-anchor="begin" font-family="Consolas, Courier" font-size="20px">name</text><text x="470" y="230" fill="rgb(150, 100, 28)" text-anchor="middle" font-family="Consolas, Courier" font-size="20px">id17</text><text x="348" y="80" fill="rgb(150, 100, 28)" text-anchor="middle" font-family="Consolas, Courier" font-size="20px">id99</text><text x="475" y="80" fill="rgb(27, 14, 139)" text-anchor="middle" font-family="Consolas, Courier" font-size="20px">Person</text><g><path d="M317.17421359689456 51.00073959915922 C333.1698725394876 51.29989580749769, 347.5753431277567 48.66344631768996, 378.967530050961 48.416493198199284 M318.9261964383034 49.30756437873376 C342.2250900197764 49.59604844127703, 365.115686253614 51.204339713164146, 378.3244769161037 50.21071739371343 M379.9079971146499 51.42447760650765 C377.02420942287256 69.5188221334408, 376.65694825500117 84.7509639512885, 377.1065197968242 98.41410514679015 M377.9480432516117 49.38299634340678 C377.4129200558525 64.12115713506316, 378.869311517434 80.05353895819827, 378.85984459506125 100.33546564042884 M376.7136739718339 101.9143122169738 C362.50993998190853 99.34159095430832, 348.6575644961379 99.56803639446177, 318.6867332171834 98.86972568839849 M377.99972666719884 100.8145596206687 C360.1547473243689 100.66608586054407, 343.0613933250145 100.24898076457451, 318.36567446992575 100.00540778738316 M319.7807733002419 101.50941359403393 C318.3919565799636 87.04981449742108, 316.74831306738577 77.48942907924948, 318.5172067995752 48.40212359062459 M318.42704470968886 100.8269452300565 C317.72102140579796 90.37421386614281, 318.3307683927581 78.27125564326518, 317.33595951837594 49.92475827794104" stroke="rgb(0, 0, 0)" stroke-width="1" fill="none"/></g><g><path d="M433.82641477060304 49.66698238112413 C456.31989180460107 50.671996422538854, 476.41487539072125 50.6623988726125, 514.3886400053249 49.79186859377548 M434.550542485019 49.78140808942091 C460.3875279488823 48.91275661183744, 487.70388443098346 50.62140614794944, 516.6201099228509 49.06786064803736 M516.118718072411 48.17102988215714 C517.5364031668881 63.14951019302311, 515.2379172549415 77.13364058326255, 515.1193370234522 100.21950590458303 M515.5093646189856 50.265492410054506 C515.4256210025412 65.95729836936984, 515.3805629115199 81.80330457697269, 516.6712688706934 99.3163034510289 M515.5127733205907 100.19420670022639 C492.52108037836564 97.9654972666445, 470.8685399419785 98.80206233921777, 432.49419794447897 98.95224165247035 M516.7886559621601 99.69490253580037 C490.59108217767715 100.80086158209009, 462.8312580995609 99.55626124641957, 434.54072823408205 100.24252373750875 M432.6387266783003 99.68425761606339 C435.01160261624625 84.01582465486658, 434.8641941020456 67.03909460670958, 433.63296116867787 48.16987230341032 M433.5950551644784 99.77879687288737 C435.0008341615884 84.56373871359148, 434.76035506330624 67.74974591666613, 434.6487864988923 50.41889972414134" stroke="rgb(0, 0, 0)" stroke-width="1" fill="none"/></g><g><path d="M575.902368612501 49.61202805194829 C680.2926058514165 50.61504907257167, 783.1416814601896 48.01952859125173, 856.4978103889875 50.82636508149893 M575.2722049838757 50.21329275237925 C683.4947172271495 50.96044420751137, 789.9222933773076 51.35334016505963, 857.347552032345 49.79927317575243 M857.5858434312968 51.39731693839814 C858.3146923285711 82.48664045793946, 857.245530499857 110.82090089032944, 856.9476100067509 179.37622547703953 M857.2189632730771 49.37759378719751 C858.9961073256119 100.39113162167179, 858.9423351426888 153.180648582647, 857.5255430812854 180.85475952235743 M857.8123512669462 181.13946486286184 C787.7260872900678 182.07966465914313, 716.09689508356 180.7362370233819, 575.2377179942562 178.76148772063303 M857.2406946783929 179.69161758772552 C760.5254337236096 182.3160496197678, 662.8612378073783 181.13877044721454, 576.1096224020004 180.2576255359565 M577.3537442844784 180.01667938312568 C576.047217098352 145.3398279225706, 577.0905398802244 108.99684258222483, 574.940858447407 51.58517757362869 M576.9889326862759 180.45168267787008 C574.8916441655479 150.1276958598411, 576.0036758164998 119.50005234772674, 576.3284242830068 50.53024558368966" stroke="rgb(0, 0, 0)" stroke-width="1" fill="none"/></g><g><path d="M600.3981886233362 113.23173720567246 C614.5329120945647 116.10607712312027, 627.2589885619791 115.4820395726119, 660.2289975922349 114.18538003849645 M600.2936958911148 114.91971975999493 C612.7098392984716 115.31840493671646, 625.3251280674345 116.05482984390196, 659.8961768131766 115.24818865010711 M658.421325176905 113.73879816910203 C657.9142911408076 133.74941616880258, 661.226918726231 156.56634476576187, 660.8958024819636 163.49617509452085 M659.0106290169231 114.35658338597403 C658.2484432838386 126.30458222969254, 658.783243460621 137.646940554672, 659.0394672770374 165.00238447127734 M657.9268601306843 165.15942524502307 C639.1004753680343 165.58725483677432, 615.5698154138747 163.8489544394376, 600.2313252824807 166.73583550718791 M659.9749610244601 165.43200950900078 C636.807817171474 165.87542857732572, 615.2339354172959 164.0744859825774, 601.8563166773724 165.55882433149822 M599.6039870408782 164.2079592932518 C599.5823867276106 151.8310007988699, 600.0461794028939 140.97873294335932, 601.6121230908404 116.97890353834634 M601.9416244179577 164.71475728878372 C600.6643930730736 148.43998889998417, 600.9082258298394 133.1318630913119, 600.155603862231 114.16878886360415" stroke="rgb(0, 0, 0)" stroke-width="1" fill="none"/></g><text x="630" y="145" fill="rgb(150, 100, 28)" text-anchor="middle" font-family="Consolas, Courier" font-size="20px">id19</text><g><path d="M660.581871325493 116.76213280337748 C681.8298496698244 116.25429790165836, 702.2911787956242 113.78087268907636, 718.3202496069309 115.24795735631763 M659.856348394261 115.01217718100652 C679.5387909774385 115.09178409908415, 702.1560999230913 115.28559304666157, 716.1973722516016 114.8778333351143 M718.351391342032 116.26882458017171 C716.3701802256921 128.72644191214923, 717.6202094233198 138.84075417556605, 718.3881399448029 166.174417113848 M716.220720110609 115.23807738752448 C716.9060193828602 132.10694775763363, 717.773457537113 150.45348548017316, 716.6708700315927 165.62257455119556 M716.4199074621345 164.6528058921285 C695.6683739134006 163.3943027222174, 675.2574874681555 166.5154271142262, 658.2420946962197 165.63565259181115 M716.7448699346617 164.70765456440313 C703.9310050646671 164.81468616788246, 689.5940840759498 165.16024777408145, 658.1422392411262 164.68301509033168 M659.5822436103763 165.12296109585537 C656.9689936177901 151.49133716950715, 657.082074366525 133.54103082584248, 660.364235177985 114.50765990938734 M658.420500553579 164.67224524520927 C659.1878411535549 152.00326274252095, 659.6496441927894 140.42986460969982, 658.6852537084876 115.56809031037923" stroke="rgb(0, 0, 0)" stroke-width="1" fill="none"/></g><text x="688" y="145" fill="rgb(150, 100, 28)" text-anchor="middle" font-family="Consolas, Courier" font-size="20px">id43</text><g><path d="M716.4914483872747 116.76003959078278 C732.4866498462246 113.67957792635396, 750.3574507565085 116.15758448331047, 774.8228442496081 114.61071860224241 M717.6913704941813 114.04428597715109 C735.1472459553978 115.3902664598246, 751.5805404699543 116.22442529259106, 774.9955065694137 115.85967714110897 M776.2766347889159 114.45196057915405 C774.4919320436934 135.61504749286604, 773.9017893248348 154.71743110473113, 775.4596119759217 163.62008867554675 M774.294938465522 115.37376639195342 C775.2204634119513 130.40776981065537, 775.4933663903155 147.20706801722127, 775.5371475392317 164.38051096977551 M776.2705747488857 165.1884306911545 C758.6860627076426 163.23089743422383, 739.4633763464076 162.93427384416216, 716.8094248220531 165.72918786118885 M774.8907337091867 165.77630224110527 C757.3481642780343 164.8973046962286, 741.5455113252569 163.66785294108513, 717.9945186040546 164.66998879699702 M718.1659355925797 166.2538855433766 C717.1377116164133 149.44998333498276, 718.2293307644519 132.8250522155888, 716.8561325949829 116.10148817457237 M717.0106219189661 165.74541946192753 C717.7210752041261 148.99893524042207, 717.8525693774686 133.12557876355513, 717.6415529784317 115.53912164608285" stroke="rgb(0, 0, 0)" stroke-width="1" fill="none"/></g><text x="746" y="145" fill="rgb(150, 100, 28)" text-anchor="middle" font-family="Consolas, Courier" font-size="20px">id28</text><g><path d="M776.2547968481048 113.14918722585733 C796.9456103076622 113.21934574821822, 822.285692979813 116.42065766448196, 833.2665169335775 116.841007956266 M775.669048071651 115.88954766452031 C787.4486322577206 114.8082753910635, 801.8248192390414 114.15879813086556, 832.1441104239283 114.02462580628719 M834.1564859924331 116.55058421167345 C832.4925581654142 126.37717748816824, 833.9390227730094 137.31210583446983, 833.6959436072068 163.09153712626417 M832.2529414473382 115.6520796753995 C833.8715940785557 130.2644019882538, 834.1405938528197 146.50736168733692, 833.4358761519629 165.52289510810655 M834.4097545453981 164.84434759937892 C814.9113339269337 164.46514818977673, 794.5054149898788 163.60975533358888, 773.6852625769324 166.69450223617451 M833.4033364452918 165.45160510774357 C816.8394313175885 164.1333996961705, 803.089668405527 165.41539010391915, 774.4755013170311 165.80302409126207 M773.8957731264538 163.93713590200076 C776.575521021135 146.28929405938902, 776.4542487439471 128.94085811487938, 776.471988123052 116.31317891898371 M775.4278264800564 164.29577581619836 C775.2870089595007 155.2250126719314, 773.894756971319 144.34656505233522, 774.2725398496739 114.78075565049151" stroke="rgb(0, 0, 0)" stroke-width="1" fill="none"/></g><text x="804" y="145" fill="rgb(150, 100, 28)" text-anchor="middle" font-family="Consolas, Courier" font-size="20px">id49</text><text x="606" y="80" fill="rgb(150, 100, 28)" text-anchor="middle" font-family="Consolas, Courier" font-size="20px">id82</text><text x="828" y="80" fill="rgb(27, 14, 139)" text-anchor="middle" font-family="Consolas, Courier" font-size="20px">list</text><g><path d="M575.8733945049967 48.06469165317 C595.1179453903759 52.18290595126823, 609.1406329813605 48.90479628519314, 637.9696072920871 49.78330547597479 M575.0883054073454 49.440931163631184 C598.3543106049917 50.808142284575034, 622.0567822502637 49.62502905959165, 635.4309465101335 50.71677322976896 M634.555840866981 51.2201754780684 C634.7263037030403 60.826206897792375, 634.7239711682602 75.00559326420704, 637.1349474429989 99.81417657506262 M635.8145083925791 50.665788510951465 C636.5344652274023 63.51628319193641, 636.8836456747925 77.73856254737973, 635.5305371756133 99.21289248857084 M634.7477909310953 101.53607079628657 C615.5888336503467 100.09939650630979, 593.27501816804 97.90600317885155, 574.2783985860503 99.40219320040906 M636.8288636197052 99.25785458371533 C613.8537554677874 99.59188548229423, 592.0473976648307 100.34426509619804, 575.3102905319091 99.85469197770308 M576.2888972398754 99.69778853254103 C576.3943841959363 79.41742196113226, 575.9025786858064 59.24145460274948, 574.8147353963175 50.16911458347687 M575.7844242301602 100.42241130757625 C576.5728674492163 86.96382981422106, 576.3391457125573 74.58138962804786, 576.8478624785431 50.37660930548173" stroke="rgb(0, 0, 0)" stroke-width="1" fill="none"/></g><g><path d="M796.3099139106874 50.10673296163036 C818.2431687128574 49.2235079475018, 837.9920628238725 49.30256103050375, 859.5768669681564 51.25506416868341 M798.4586649968163 49.938468386592696 C810.1598534120232 50.781145134798834, 824.6864196151631 50.439487073223574, 857.6313370021663 49.39461441468446 M856.4316502384448 51.411066877231065 C858.0998125281909 64.85736961784598, 859.6837544827241 81.65636656919493, 857.9839114427035 101.85143367730136 M858.4828248127542 50.08905094438776 C857.9521668396691 66.88711418504101, 857.9742722718547 86.18343284088779, 858.7665535436523 99.5521059647518 M858.217159895966 98.3311162126766 C841.3240142357654 101.02057549875627, 826.8490390719874 98.51227056822276, 797.9420761563167 99.52071573277607 M858.3934017144899 99.34978040043356 C838.4062601067241 101.34570362627892, 820.0710048749726 100.03795169640814, 797.4839646898821 100.16866063982236 M798.5685132741895 101.54410593259794 C798.6087251247568 85.68628409776079, 799.8128534674128 71.2749737345358, 799.5701909466042 48.095737410283014 M798.1283927969577 99.40264245967572 C798.4094232879035 81.97985207229394, 798.3313564760617 63.43705635482478, 797.7366700138787 49.686331134894644" stroke="rgb(0, 0, 0)" stroke-width="1" fill="none"/></g><g><path d="M919.4144308054391 49.01386556143037 C1016.420636612086 51.47478608501038, 1116.563093138971 49.791857782295104, 1200.6461052642537 51.027917353725236 M917.6648898047147 50.296893446225056 C1027.446790888791 51.08018333899969, 1135.5844672118424 51.64877287704473, 1200.526948658345 50.55412410876497 M1200.8467667710242 48.591585687907795 C1201.7760611016952 111.14991358337446, 1199.3636088966252 170.8412956864875, 1199.497095895022 199.18430980496416 M1200.9741595467976 50.80600063976475 C1198.5576934062865 99.01321405734026, 1198.213726613979 148.5452951130694, 1200.0546036620951 200.1015109757032 M1200.037834909238 201.50054024105685 C1136.6024520887258 202.19434541446023, 1074.6162272623567 201.71819293140155, 918.7799681877187 198.71433858126352 M1200.002394816875 200.00896156230223 C1123.0811418791432 201.42792906295443, 1046.1245189798788 200.75377193142558, 918.2918149605679 200.2388592658563 M919.7176460420035 198.7202483897701 C915.9476638671932 140.93577695694907, 915.8674743008957 85.19450680943444, 916.8465579172334 51.11467717576514 M917.8244236071909 200.06515673108703 C919.0592670162614 166.2885961775141, 917.5543543349738 132.3841462337491, 918.8694311574149 49.70785139433667" stroke="rgb(0, 0, 0)" stroke-width="1" fill="none"/></g><g><path d="M942.6350625686068 133.60849341550158 C959.7198776111351 136.14239213826224, 979.5259048751165 135.27550893756342, 1001.2300921698703 135.9228953070024 M943.5497956473678 135.97358128781048 C964.2717085561197 134.55263994109183, 986.8967518322952 134.7954626776867, 1001.8364047255849 135.04230832221464 M1001.3816486795288 133.33745670143202 C1002.3316237653914 153.92500899585355, 1000.5861397258832 173.33315867791472, 1001.4677197043852 184.83224795844347 M1001.7866020241029 134.9993458787755 C1000.911169760695 155.05690709263445, 999.7294595893719 174.53259266396333, 1001.7294303057985 184.15563188899958 M1001.6917645111891 186.41228246754054 C979.9288158933425 184.86648427112698, 959.0222275670666 185.02940196759462, 941.2541028347689 185.8961163418846 M1001.6749018901392 184.36174581263455 C990.0243485631263 183.640061509841, 976.7730992153047 184.24095363305761, 942.0629084399313 184.01460011891965 M941.8903416867463 186.54321391041438 C943.7833770268734 174.73011932895028, 945.3993163860736 161.4000189470459, 942.5226711104084 133.08029662326763 M942.0440969506802 184.67202914029502 C942.9029090323567 170.9539727537487, 943.1340966389337 155.2547864198741, 943.5087166619495 134.88956275222148" stroke="rgb(0, 0, 0)" stroke-width="1" fill="none"/></g><text x="972" y="165" fill="rgb(150, 100, 28)" text-anchor="middle" font-family="Consolas, Courier" font-size="20px">id32</text><text x="972" y="122.5" fill="rgb(0, 0, 0)" text-anchor="middle" font-family="Consolas, Courier" font-size="20px">0</text><g><path d="M1001.9059715378978 134.95223876260224 C1019.626366714984 134.0151525573786, 1034.881460206796 136.08982371653917, 1060.3585434815204 135.47823839179182 M1000.6411956391283 135.19987546093316 C1023.2254079174174 135.40917826249495, 1044.8969077776853 134.3335552160294, 1058.544090852206 135.75006864334404 M1058.2331093518567 133.89263972607918 C1059.656481948303 147.0485634868407, 1057.8936829879474 161.53302351309463, 1060.0406148381646 184.54551947446845 M1059.1239557236538 134.3702895765005 C1059.2579280549012 145.77597340493512, 1060.0940668527485 155.72785924434962, 1058.2174102643125 185.737240253993 M1059.8987025695535 186.88791302959405 C1045.0076797524277 185.89070510971447, 1030.1774906048308 187.28334570667445, 999.7485412622747 186.63684475184664 M1058.6068758318727 185.67968433954172 C1045.393267277106 183.75725355409793, 1030.710033403528 184.9621070385119, 1001.0069065919876 185.21421902287813 M1002.8913458220891 186.6798839692872 C1002.9997828519449 167.10027491101258, 999.6248079718156 150.23009753788284, 1002.8511583171673 135.6683435131048 M1000.5320360150548 185.7596109188312 C1000.7605557014956 175.1458262641101, 1001.4219521270363 164.5685490409734, 1000.1498490477964 135.9459138179095" stroke="rgb(0, 0, 0)" stroke-width="1" fill="none"/></g><text x="1030" y="165" fill="rgb(150, 100, 28)" text-anchor="middle" font-family="Consolas, Courier" font-size="20px">id10</text><text x="1030" y="122.5" fill="rgb(0, 0, 0)" text-anchor="middle" font-family="Consolas, Courier" font-size="20px">1</text><g><path d="M1059.1499043586132 134.3617147224956 C1075.4012775374742 136.67377821773647, 1094.661787310861 135.07599828461136, 1118.792832369547 135.0567775249342 M1058.653883999966 134.88995653487507 C1077.6506534413536 136.0910203483612, 1096.6742144146203 135.06996517090366, 1117.7343523661134 135.05967715574172 M1116.366407295769 133.92917368457327 C1115.0763784732478 151.53181992824864, 1118.0819068426465 163.15771434471486, 1118.8273086838644 186.145412926856 M1117.4557554447213 134.21655448848747 C1116.8450709251258 152.52257124252807, 1116.154980184342 167.98609481391856, 1117.426320283915 184.19189781461893 M1116.4649588399122 184.57104030432654 C1099.549933907753 184.50589474955277, 1080.0065226071379 184.15090512586414, 1057.0676449026425 185.73525952450345 M1117.8767473309565 184.24708660117668 C1099.9061360832766 185.2981042771926, 1081.5122920319934 185.17250248584173, 1058.7615361396863 184.30343060788647 M1057.202217138975 183.02109411617482 C1057.5231741230639 169.59642364017893, 1060.0648248403406 149.81116890542015, 1060.795460453904 136.87802327850153 M1059.8776351673416 184.08104067595804 C1059.8499243696695 167.99354976523668, 1058.9818759231587 151.4219423870496, 1059.3546112044608 135.87174192382398" stroke="rgb(0, 0, 0)" stroke-width="1" fill="none"/></g><text x="1088" y="165" fill="rgb(150, 100, 28)" text-anchor="middle" font-family="Consolas, Courier" font-size="20px">id90</text><text x="1088" y="122.5" fill="rgb(0, 0, 0)" text-anchor="middle" font-family="Consolas, Courier" font-size="20px">2</text><g><path d="M1118.2426382728506 134.85984330530036 C1137.8023188314262 136.76381554896074, 1153.2829864148284 136.81996201110218, 1175.8207570369607 136.25833301785738 M1116.517522072218 135.75434340159626 C1129.307080575006 135.21583098893117, 1143.3190157477266 135.01791070500656, 1174.094546760081 135.60566080955405 M1173.8749149204466 133.8776056691614 C1177.2162302435777 155.26644679153145, 1174.6335558590076 175.399334199491, 1173.7002972809385 183.97428404888132 M1175.5469845232396 135.16097862455308 C1175.3908132845872 146.49554154283564, 1175.6091354909581 155.7749572426417, 1174.131590103172 184.72514044226875 M1174.6167331155634 185.36477047410762 C1152.3917807880503 183.12760651886796, 1131.9950055100667 183.9423959922784, 1117.3930251831691 183.32301082127424 M1175.493237622859 184.1474925073985 C1161.6206531810349 185.94645253910758, 1146.73999372667 186.18480345767804, 1116.908889743601 184.00434983221768 M1117.4015519193 185.18108292263688 C1118.133855933014 167.00684966969564, 1117.2847738612038 146.78497834117195, 1118.359614175481 135.32120542186223 M1117.8148366872156 185.73230560762627 C1117.7306370819515 174.8553211893328, 1116.243881087481 164.46497873284417, 1116.1099444669997 135.37580971664144" stroke="rgb(0, 0, 0)" stroke-width="1" fill="none"/></g><text x="1146" y="165" fill="rgb(150, 100, 28)" text-anchor="middle" font-family="Consolas, Courier" font-size="20px">id57</text><text x="1146" y="122.5" fill="rgb(0, 0, 0)" text-anchor="middle" font-family="Consolas, Courier" font-size="20px">3</text><text x="948" y="80" fill="rgb(150, 100, 28)" text-anchor="middle" font-family="Consolas, Courier" font-size="20px">id84</text><text x="1170" y="80" fill="rgb(27, 14, 139)" text-anchor="middle" font-family="Consolas, Courier" font-size="20px">list</text><g><path d="M919.3160848950425 51.7879335451484 C939.0406790578877 49.039034137475305, 962.822681963231 49.97749573767869, 977.0744257343862 51.70091523203726 M918.4048791177985 50.51062282409222 C941.6405918784691 50.56141185863731, 966.1491735595362 49.56718492457838, 977.3750246924137 49.95889528974146 M978.3546975463057 51.49070587967592 C979.0088701287857 69.99652862560113, 978.7202302297998 87.97235196096119, 977.9406897383076 100.58925544618302 M977.015714506025 50.221873114085284 C978.3568930455319 66.17785515399895, 977.8978650131365 83.46955031287446, 977.9310992443245 99.089742205537 M978.6661779266904 100.442514661001 C959.3448762478722 101.00071306823223, 941.6804487159367 98.34020184049992, 919.4399795208593 100.05359285023988 M978.4138958047007 99.61384631584195 C962.1555105910528 100.17570704220633, 943.9443149067262 101.08883822987622, 918.6204696039609 99.11241126466572 M917.8560723879864 98.30123596826161 C919.5142976023957 86.65101901324292, 919.8527438231654 70.30217172526106, 918.5548539480345 49.15254338241139 M918.3372300588886 99.41070880388341 C918.6508635629524 90.47106993152838, 918.0363113365227 80.29872997438142, 918.3301129092229 49.21886548118289" stroke="rgb(0, 0, 0)" stroke-width="1" fill="none"/></g><g><path d="M1141.8952268256241 49.58985350202708 C1159.9718137526927 48.36717905989452, 1184.736180103972 50.76954806191576, 1200.8099612455808 50.26915118187004 M1139.8022346452476 50.10661795061064 C1156.3186050628078 50.0081529493141, 1171.5448751019721 49.73436330665815, 1199.948601743916 50.298226710641195 M1201.4118558423613 50.34914083103427 C1199.9997653709283 68.8868947264262, 1199.5885971567268 85.45855030144054, 1199.8482850780122 98.72166098076688 M1200.109008316568 49.388207549347506 C1200.4677051490257 62.93273977717475, 1200.5395944376633 73.45746432908733, 1200.203719465885 100.4427853182264 M1200.543639610044 98.35380111452052 C1179.7726228429751 101.05508305882933, 1159.1726730780786 101.05282716019255, 1139.5665902865176 100.61684425914669 M1200.328883358312 99.24422225298015 C1181.2715416848723 101.46744594974597, 1163.0454599197153 100.79022687552511, 1139.518995720525 100.91488890838211 M1141.1512642706987 99.61813091656357 C1140.482785605309 82.62591676861855, 1140.6141981018816 65.60033427291674, 1139.5525979834583 50.0041875330422 M1139.7211423964768 99.83984521673372 C1140.3030358161025 90.18849032644539, 1140.8889376202437 79.74607512784516, 1139.2943447786568 50.887733543565425" stroke="rgb(0, 0, 0)" stroke-width="1" fill="none"/></g><g><path d="M316.2568760683618 334.44128609893494 C361.895695592738 334.27026338878176, 405.93160976527224 332.72128347044253, 518.1540515990528 336.61093503511813 M318.3119477517766 335.2194103616009 C370.5087606958404 333.8567159116617, 420.8301300258384 334.7118209763066, 518.7098879343023 334.2320030007982 M517.2951617407223 333.5202843052517 C516.2973121406621 375.43328038097445, 518.4954831192761 414.19334447663243, 518.0458337985162 465.4405437729466 M518.5461313238034 335.0950052464212 C518.8410360964577 374.61861371673655, 517.7928705261552 414.90743318721087, 518.7409652974053 464.48869103172615 M518.4515507519013 466.188023749203 C471.55537712349957 465.2030637548317, 425.31367416080957 463.60010091287705, 316.43838171970367 463.6544969925067 M517.542521971085 464.8057327782353 C459.6327565933633 466.1624197167457, 400.93945594434064 464.71677934744577, 317.92194960873496 465.03913635203594 M317.1901678126907 465.0328890565613 C318.29494886965995 425.43581698594767, 318.95243051006855 389.2252601209833, 319.80287045913263 334.4578696668571 M317.9302006136586 465.1848060398215 C319.67611066942266 428.1441417688684, 319.45366688029566 391.74860825427277, 318.18375575531735 334.7729283581683" stroke="rgb(0, 0, 0)" stroke-width="1" fill="none"/></g><g><path d="M310.40147579266625 328.2641909877818 C365.0408535021764 330.1249083502935, 420.07039121483325 330.796903396336, 523.2610413629583 330.635126185724 M311.2557954647456 329.0157733735864 C374.9556739609608 327.72361052805167, 437.94086104180207 327.1362573031177, 524.5433557960862 328.8581843954648 M523.7462289775053 330.1079989556368 C522.7699816909898 376.1904258085467, 523.6853003282836 428.7548057144228, 525.3224388578445 472.2095317742391 M523.7586667140471 328.71267253746527 C524.5816099773278 378.7256895977972, 524.5425169823264 428.4672076281646, 524.2687065273043 471.5988679667281 M524.721049795776 472.35687223720106 C446.6303900278146 471.3079919349841, 367.8558094182159 471.06402290552165, 310.3875886757346 470.79293130342734 M524.6296044267083 470.1916995616715 C477.4273188188557 469.7221478705222, 429.6677649766904 469.6978288096308, 311.7815921924676 471.7966400899417 M311.66717361573404 470.8378382335094 C311.4011418516049 424.210515428432, 313.8369732664039 379.7952717440707, 310.5207561426415 330.3885744403546 M311.3938188183123 471.2565398298137 C312.03477525210883 426.08317326244185, 313.3902611586783 382.607429954972, 312.69774556012834 328.79335669999284" stroke="rgb(0, 0, 0)" stroke-width="1" fill="none"/></g><text x="418" y="425" fill="rgb(27, 14, 139)" text-anchor="middle" font-family="Consolas, Courier" font-size="20px">1969</text><text x="348" y="365" fill="rgb(150, 100, 28)" text-anchor="middle" font-family="Consolas, Courier" font-size="20px">id19</text><text x="488" y="365" fill="rgb(27, 14, 139)" text-anchor="middle" font-family="Consolas, Courier" font-size="20px">int</text><g><path d="M317.0397931512642 333.28163538890584 C339.979336716104 333.8579640715081, 358.7232580338896 336.2711680456476, 377.38496266937574 333.30597996970533 M318.4229465995706 334.0539052876623 C332.0245844207126 334.97503939259747, 346.5385373786471 334.0253375939191, 377.3574652695463 335.09381215607107 M376.8781442911394 335.30742825580114 C378.02093382275285 353.6488907278349, 378.0429594633909 373.80866414228274, 376.9092125407656 384.3827568008963 M378.6784589875307 335.467483136794 C377.49817039121405 353.3152533784453, 378.7981671508474 371.7436935918739, 377.9993888991689 385.826129556111 M377.2646353678182 386.93715094251627 C361.99537490723 385.47470269324776, 343.67962697028 385.74335655622275, 318.1790154875727 385.5433013828396 M378.62736204619125 385.36286597381604 C362.06753116711576 385.4824606273813, 346.0853853870442 385.3890602024442, 317.4108998151162 385.17770944900536 M317.002056297663 384.07021546179243 C316.6871400341885 365.5316923701871, 318.49523950665235 350.3339243666233, 318.95985357392465 333.2124029453709 M317.8548084724587 384.74048416501995 C317.2982975738422 367.8239792892451, 317.2162159078765 349.45263984605754, 318.30266440883213 334.74025172367254" stroke="rgb(0, 0, 0)" stroke-width="1" fill="none"/></g><g><path d="M459.55481809631095 335.54270566211125 C480.57824783722924 336.77556676092314, 501.0380321796035 336.1608699127867, 516.9466762150653 333.6696899878138 M457.04931427422616 335.2062420963562 C471.2392651886132 335.8987559541667, 486.9953994464695 334.94484734847606, 518.494918099655 334.3155741895286 M518.4171428073107 334.37620896406327 C520.0207527113923 344.3509335801964, 516.960842810207 355.5307233489445, 518.4133480972173 385.07518711146514 M518.5394206159915 335.31732630177754 C517.5855084437237 353.0396746528187, 518.3485830689174 369.79933276832116, 517.2145337648536 384.05647478399635 M518.9430315420857 385.36328711296164 C503.2238768450791 385.256424973954, 490.635918171999 384.04800946908847, 457.87984498147284 383.9258799841458 M517.8854749182963 385.56754954715313 C500.4938682640124 384.59097834830794, 482.78797840524885 385.89683430095147, 458.0881192701967 384.7127526714622 M459.84935779528394 383.0189547863026 C458.8125087039614 374.7030902009842, 457.8590250936876 360.24532145898934, 459.07731767489247 333.91793329369614 M457.24116749970045 385.1352276536 C458.7108296007861 369.78520599873525, 457.2128699647303 353.81576070267295, 457.5933185052842 335.2249165876257" stroke="rgb(0, 0, 0)" stroke-width="1" fill="none"/></g><g><path d="M589.9550318002316 335.7881633103275 C669.7239824285616 336.5608549668284, 748.7555887492742 334.4523726380432, 789.0092621287648 333.8921905433812 M589.408274943111 335.48294194403184 C638.649354551659 335.531798231847, 689.0925439150873 334.68950661582335, 790.2031189515002 335.6958758633253 M790.5250705421868 336.21570423875414 C790.1368233858176 365.2935742924469, 791.9996371839864 400.32065200359153, 788.5517322634092 463.5954565751429 M790.2634356893476 334.90290372628186 C789.3024316764836 374.71678506280597, 790.3068216677392 415.03418876294904, 789.5968770027365 464.0649347483578 M790.1601641831747 465.36157502453676 C737.6505154837297 462.80344941859966, 688.1396948315446 464.77103840604104, 589.306259087268 463.7988675540657 M790.387831243758 465.85677507669516 C715.6159484893175 466.75984015863395, 642.8206220730868 465.9411604897512, 589.4343073434794 464.82947311502136 M589.7459878407558 466.41129357944885 C591.34978485692 424.33217890821, 590.7401151484448 385.6427491666481, 590.3905565865547 333.8695716223079 M590.0590221229899 465.35328412828034 C591.7907269857341 414.9702968689675, 590.6924142675191 363.761443451345, 590.626503527891 335.9242088513697" stroke="rgb(0, 0, 0)" stroke-width="1" fill="none"/></g><g><path d="M582.2775234886774 329.41849412422636 C662.0329089527952 328.1475733194975, 740.8837767256414 328.90901689375653, 794.6898369094065 328.69861466356866 M584.3019221487277 329.5932664057088 C661.0406189019932 330.7066943003766, 737.3704106660315 330.31545463730026, 796.861475009406 329.2101987190981 M794.9291077148289 329.4100954490809 C799.0435389889552 372.74463744672096, 797.1970719625367 414.7900394969217, 794.3987935420049 472.33378793771243 M795.6380218670315 328.44095692719026 C797.0626460234212 374.20450292484486, 796.7087177586343 420.1125203307172, 795.5912672168752 470.5315802122241 M796.9860045256189 471.3663202210104 C732.6304454532452 472.114710202053, 672.7553805315677 470.45258037839324, 584.5113827695334 471.6775604365007 M795.5139136736648 470.2510519212663 C724.3241225988717 471.8353179367582, 652.9464354463034 472.933007431115, 584.2782935832283 470.54020562542036 M582.5412555019924 469.0968707427191 C583.8140852316377 441.12407555648366, 583.6275363431776 412.3811414613399, 582.9710983871149 328.9644522968018 M584.4682117523233 471.637482485926 C583.0466523269288 425.6637193837285, 582.4170169135436 379.74103221967295, 584.0536269715054 328.29345172256797" stroke="rgb(0, 0, 0)" stroke-width="1" fill="none"/></g><text x="690" y="425" fill="rgb(27, 14, 139)" text-anchor="middle" font-family="Consolas, Courier" font-size="20px">True</text><text x="620" y="365" fill="rgb(150, 100, 28)" text-anchor="middle" font-family="Consolas, Courier" font-size="20px">id32</text><text x="760" y="365" fill="rgb(27, 14, 139)" text-anchor="middle" font-family="Consolas, Courier" font-size="20px">bool</text><g><path d="M589.7021377050033 336.50200129952145 C615.3141524200006 335.71197975492447, 637.1786032311913 336.3480873680932, 650.814323462124 333.8270136587743 M589.6961154258448 335.1583264070258 C609.5910000876411 334.4114658862044, 630.9318197283491 335.0611256540492, 649.4637978592651 334.79853174243544 M650.5814742302028 334.90219961230065 C648.2995860203762 352.63732037216556, 649.8676551462587 368.3801090649017, 650.3854126924687 384.76094677185995 M650.0967241799981 334.31953882998243 C650.0349810480103 354.47676127004075, 649.1477361730232 373.55526935225964, 650.4189184884099 384.22031433590973 M649.4024667123897 386.8437651099464 C628.6446540280889 382.6786796077545, 610.6667358695893 382.67801481398556, 588.6628558812552 385.2022598658497 M650.0727958601019 384.1699927234147 C635.6819296969343 385.4534918063898, 620.2956321042589 384.8668069582143, 589.5991297514616 385.80419061067295 M591.7114362730053 384.38371237765335 C589.4951411487367 373.6394513340935, 589.9740719134383 359.28045122119755, 589.6325788919717 333.60183110087615 M590.8750876085976 385.49409289247853 C591.0227562114239 373.7257576244231, 591.2706041174059 363.2873178518374, 590.670406345679 334.69136398974433" stroke="rgb(0, 0, 0)" stroke-width="1" fill="none"/></g><g><path d="M731.5894899484598 336.7868929953998 C751.4266319180606 336.71589333377875, 769.0243170556499 334.8570519775458, 790.6872246494706 335.6689459681378 M730.3957832327226 334.6340150993827 C744.0295359173489 335.4266550555387, 757.1129319801975 334.4883988359853, 790.0929756120028 334.76898036424916 M788.7405718937445 335.478450443908 C790.6719202991546 348.99506405294096, 790.0478799459224 362.5181248849729, 789.2228774317235 384.9899096627484 M790.8591907067047 334.1978096939399 C790.1364462570702 348.4953154793207, 790.9713750962322 362.15495800764126, 790.5716148148863 384.4543182216439 M789.2303328923939 386.35902632189305 C767.5871601232645 383.6456287074811, 745.3808864638733 385.9586179879251, 728.3375691618338 386.4459586421162 M789.5379448928103 384.3584832024305 C770.2750588093703 385.244112363324, 751.5673463598516 384.7163745181767, 730.9672587967585 384.1321199176755 M729.7289601837067 384.03565047608936 C729.67769857354 376.73529148222883, 728.1269131707278 362.9721232459278, 729.0763861409864 334.8293805919026 M730.457827471978 384.64574277827904 C729.4617805905201 374.7266791205359, 730.579176986079 365.7417972697626, 729.9225121061695 335.86958942684646" stroke="rgb(0, 0, 0)" stroke-width="1" fill="none"/></g><g><path d="M863.7286348653829 334.6552993129388 C933.0623794147228 336.62764247198595, 1004.4734158292177 336.80929221048683, 1063.061331027743 334.59579773724886 M861.9027644624284 335.09007742006713 C912.1900764246675 335.0031236282561, 962.449355720811 334.5705252553182, 1062.8438074780852 334.4550274284158 M1062.1380758399491 336.44695359489384 C1060.0322521229411 364.0198157062629, 1062.164604414767 389.8588263683105, 1060.423558114369 463.5327859282281 M1061.3559215594764 334.3860486557195 C1061.0742304222783 365.1317224965804, 1062.4353817928866 396.6012861888416, 1061.0862845039626 464.58295962952275 M1061.3226033245091 463.684150242063 C1011.5077254831588 463.32624379739167, 960.4913089394154 462.52670090364336, 861.8978794892657 466.51211138228086 M1062.649985032063 464.48876522537483 C1022.1254665525598 465.24144041918424, 980.4097294418766 465.6499888572664, 861.1455517730637 465.760730438773 M861.8098819033444 466.76280766531306 C862.3322608884972 411.7019398947276, 862.1870631391022 361.9805859116351, 860.7812514092006 334.96992052221543 M861.112911613496 464.69713041185395 C862.5651705753062 420.55449220430194, 863.2991503839005 375.1206632949395, 862.702837768802 334.79265226807695" stroke="rgb(0, 0, 0)" stroke-width="1" fill="none"/></g><g><path d="M857.3534901591062 330.6833291314977 C923.0033256763637 328.61623707665166, 991.0865635749245 330.4403204858126, 1069.451515029017 330.1945520541033 M855.9534719670866 329.78550203435327 C930.6675420495476 329.3026228992701, 1006.2964663942057 329.3255827111093, 1067.7054080934581 328.12351905825204 M1068.6280128809037 330.0990648169025 C1066.8363989703562 368.8069787255577, 1067.2379611644578 411.16111434752247, 1066.015364824302 469.362706752884 M1067.3324615819106 328.6247670532573 C1067.3379265925912 368.8980459655497, 1067.1816800561537 408.8338855430695, 1067.9381315254516 470.0638138290605 M1068.5672366939637 469.55416836247065 C1011.4028265961119 471.3884473611045, 954.8586771774644 471.78539539453175, 857.0291404508694 469.87735134034256 M1068.482092279823 470.2751582404197 C994.9381908074538 471.60320384685105, 920.5341836668733 471.17772936846916, 856.8578684417301 471.2066749271473 M854.0243463363902 470.3957878339346 C854.6365980073718 424.17963742005287, 855.1360162083118 381.53349542853726, 856.5311952159293 328.20753527467525 M856.7434101385551 470.5488279159127 C856.787752230151 428.3059682396091, 854.99529245472 383.7177363668798, 856.6211338017969 328.4423844253034" stroke="rgb(0, 0, 0)" stroke-width="1" fill="none"/></g><text x="962" y="425" fill="rgb(27, 14, 139)" text-anchor="middle" font-family="Consolas, Courier" font-size="20px">"David is cool"</text><text x="892" y="365" fill="rgb(150, 100, 28)" text-anchor="middle" font-family="Consolas, Courier" font-size="20px">id43</text><text x="1032" y="365" fill="rgb(27, 14, 139)" text-anchor="middle" font-family="Consolas, Courier" font-size="20px">str</text><g><path d="M863.4053376741281 336.81792485046293 C874.6793555924612 336.08375649186934, 890.7100884145872 336.6888806744173, 923.068425623238 334.8272324837347 M861.9027627475396 335.87159877559577 C882.9082584283889 333.9049163971659, 902.450843401228 333.83968239020385, 921.9091481325218 335.5583161579487 M922.84955762227 336.5014107773661 C920.601321754063 355.0718421850686, 922.2692901590162 373.4456478269214, 923.4726247884347 383.9407122575888 M921.830945711401 335.4669196214174 C922.0041436786119 354.2762200979849, 922.9016655648471 371.70916158094934, 922.263110943668 385.70682534809487 M920.5663817099951 384.15395940625893 C900.5749387008777 384.92434233762106, 876.2193672198426 383.92462200734707, 860.9643627165449 386.1011031556011 M922.0353274715604 384.1838796262 C904.8860824955327 384.9424585700875, 887.0489769564161 385.3848860739803, 862.5838815294599 384.91648700909514 M862.9156343362923 384.37910063811216 C860.8331219243992 367.8849869332138, 862.4866632302072 347.6274385631342, 863.2945429042345 335.46718407292724 M862.9883708422313 385.7943192303038 C861.5713158068731 367.7702617567863, 862.8907620118316 350.0382361394266, 862.6242015377568 334.4517042211775" stroke="rgb(0, 0, 0)" stroke-width="1" fill="none"/></g><g><path d="M1000.8924559402955 333.77980610044887 C1023.9793434431546 332.77989975498593, 1044.1284204555575 333.9524446718049, 1063.1267988233474 335.879382691345 M1001.1322605154131 335.02011436441427 C1021.0686869854715 334.36145643631806, 1039.7220868927723 335.55249739553824, 1062.6529237680356 335.3569879123517 M1060.376204507755 334.316832492465 C1062.344895203907 351.3789268791457, 1061.1080660497344 365.10606361181283, 1062.1001758460745 385.83831568561385 M1061.4286640266832 334.9401313716021 C1062.9022966325413 348.99901638997113, 1061.206223311922 363.7479504325428, 1062.2974881641903 384.004473647819 M1061.672077515407 383.27011016251697 C1040.2018403927584 384.9369222103937, 1020.0259022761132 385.0128064512515, 1001.4898897844819 385.05256479065827 M1062.2080172091162 385.3667381291883 C1046.168354945199 384.25660746372404, 1031.5356801996663 384.30378177288145, 1001.6589012191582 384.28487852124056 M1001.7721719958281 383.17359553722457 C1001.0530584687876 368.5843180233183, 1003.57563842424 354.8507323007029, 1003.8646664902857 333.2079137898315 M1001.4352922886111 384.949700193331 C1003.3967914216062 367.2428553351233, 1001.4946184126262 350.8355850148637, 1002.548992936584 334.4539831841184" stroke="rgb(0, 0, 0)" stroke-width="1" fill="none"/></g><g><path d="M318.45262506339014 535.8734882696708 C389.5502511234397 539.4066547842581, 458.6906903598518 538.9432827492756, 516.3144022773118 537.2086342729648 M318.36248219481797 537.0434826600778 C389.650602767189 537.1118802552596, 461.4378043097726 536.0461183079165, 517.7373306680473 537.558434722548 M517.708943867821 537.0588599006387 C517.0132850294593 582.8803648707928, 516.4815465389895 627.0046289548305, 518.3479373853324 667.8721977019101 M518.7925110099119 536.1375661750249 C516.9612644713677 571.3033441174251, 518.2882634504202 608.0222112264115, 518.7152513974694 667.9313769097132 M518.9135479000383 665.9653593787259 C448.19473603595975 666.8059956774433, 381.2760178308446 666.6381061926261, 318.07736367274924 666.7667494187376 M517.4325409612823 666.4731541986539 C467.8661123837503 668.3328830521527, 417.96556753558855 667.0559888214844, 318.30723740267644 666.4317405727189 M316.6223448052782 668.8228823836056 C317.3687250608885 624.1305132481774, 318.5976476946344 579.2220952455613, 318.1261882008842 536.5240310686628 M317.61880876349835 666.9927829674214 C316.9563590556804 625.9682630317511, 316.2407492431775 585.9778340623963, 317.45865890256107 536.7020439536198" stroke="rgb(0, 0, 0)" stroke-width="1" fill="none"/></g><g><path d="M310.84124806929117 529.7960199390444 C368.6070302302008 531.9641258282816, 425.4675233781657 531.2223753912084, 524.2362149175822 532.1767403894097 M311.8788880479803 530.5278353008925 C357.21037308193155 533.4092422319442, 403.103659581487 533.4461336161203, 523.2776715752923 531.5013603850239 M524.6851158780898 531.9579460779705 C524.1141944829006 571.8307536301465, 524.6127446938094 613.187820536309, 525.2286032019696 674.2991569261376 M523.236454816379 530.3260002017284 C524.4312491506031 561.0079200477511, 525.1846328599931 592.8998709479572, 523.7768895240744 672.259333898258 M524.0800970958685 671.5208989593041 C456.33833367795137 675.7548904389455, 390.8329082468563 673.2967860316753, 310.502264808824 673.0656027649754 M524.1212236988773 673.4175980817271 C476.81091420941743 670.8280063267291, 430.1981052729395 671.1113428438829, 312.8406590285674 673.8481438894199 M313.92196925838175 672.9127909634229 C311.08223305711545 622.0915050391047, 312.37433137997624 568.5157955535358, 310.11579827103395 529.8990331024326 M311.2850585426131 673.6089553588572 C313.7035411766042 638.2687765068544, 312.4532132131264 605.6109777870864, 311.47225203899114 530.0240000635731" stroke="rgb(0, 0, 0)" stroke-width="1" fill="none"/></g><g><path d="M342.37945438174125 601.0188863464111 C362.90656586137817 601.0646121171682, 385.39603376077554 602.7079134939005, 401.00523238107337 600.7472425055792 M342.7067430577374 602.6362008442345 C365.50976250934593 601.7667161449353, 388.6149941498149 601.8272894109492, 400.3721090049691 602.7304653638853 M402.1069216907813 601.3834738597344 C399.3773019381636 620.012005410042, 401.75624042271255 635.0972068766615, 399.5946057510551 653.2985166476376 M400.25179946826546 602.2221331574912 C402.0701031383625 621.2121296693255, 402.2247563404651 639.1754794068951, 401.9864426577791 651.8823649842985 M402.57209565216607 650.071994335862 C379.8824778681038 651.3523894930316, 357.35274935387775 652.9140957282931, 344.67499141320593 652.4699520709445 M400.68963347225946 651.0134410054412 C388.045777679087 651.8662962391323, 376.6882818642125 652.1837072397149, 342.0837466077848 651.4158860239108 M343.8179325936312 650.326007537817 C342.03285463682346 635.5972036511447, 342.13987326520197 618.7332280939581, 342.63311013238246 603.146740291461 M342.86377128783613 652.4769237970384 C342.93797571268254 637.1456594929142, 342.67125786700416 620.3471541374558, 342.0699818372981 601.9265287457704" stroke="rgb(0, 0, 0)" stroke-width="1" fill="none"/></g><text x="372" y="632" fill="rgb(150, 100, 28)" text-anchor="middle" font-family="Consolas, Courier" font-size="20px">id82</text><g><path d="M400.081725034674 602.9311438224249 C419.9783624814603 602.6587323101984, 440.62248027931287 602.6056479767536, 460.15026727835215 602.7164924857123 M400.933601812095 602.003644511517 C422.0480142219151 600.7414035046249, 442.38230403115307 601.7693752461012, 458.71560698348924 602.5838237058665 M460.6094545909298 602.7451202105967 C459.84659329025186 611.3799248075, 459.2912589806828 621.5336062511374, 457.7542810369992 653.000309738891 M459.6310186569391 601.9916876023367 C459.3114672677133 613.8672268181732, 458.65998288341655 627.2842087585148, 459.192979379873 652.9971026614439 M459.5396713686927 650.0381223310147 C441.16717413396026 652.7225753605425, 421.5795068820941 651.3201934109602, 400.13821849788917 651.9281930940905 M458.8767353376213 652.6124087948165 C445.8287413970942 651.117612587291, 430.69315352919534 651.8479772630645, 401.01758568764416 652.5842033536387 M400.92572036319723 652.0859979923656 C401.5049668309207 631.2900133278711, 403.07450192714555 613.4021825274915, 400.96353691619896 600.7016346909 M401.84678752315966 652.2168341813084 C399.96874421290596 634.0645407676956, 400.1089787901993 614.803515636618, 400.666404204026 601.0357992570288" stroke="rgb(0, 0, 0)" stroke-width="1" fill="none"/></g><text x="430" y="632" fill="rgb(150, 100, 28)" text-anchor="middle" font-family="Consolas, Courier" font-size="20px">id76</text><text x="348" y="567" fill="rgb(150, 100, 28)" text-anchor="middle" font-family="Consolas, Courier" font-size="20px">id11</text><text x="483" y="567" fill="rgb(27, 14, 139)" text-anchor="middle" font-family="Consolas, Courier" font-size="20px">tuple</text><g><path d="M316.958830419691 537.713734573827 C340.81832937190745 538.9939470143546, 364.7398321861784 536.1942921942318, 379.5775286743892 536.8793315069489 M317.6552699225658 536.301334431636 C332.25576440626014 537.9334784701206, 344.7377411029688 536.3577952585734, 377.6656251410462 537.1391036042725 M377.7348887404141 537.1326821910274 C376.3755689360511 553.8174293224647, 377.9769922108042 569.9448263571178, 379.54557537965326 587.1405456029995 M378.5052783412908 537.3916409868013 C376.6220312500807 556.0613325609229, 377.8986226536855 576.0570953854204, 377.52791949602516 586.3991509176033 M379.7938709352882 586.5633905145746 C359.446051188268 585.9840738607377, 340.90318034755154 584.8603565850871, 317.3769420641618 585.9102885551861 M378.55577107246984 587.9874352275245 C362.2485426632152 587.7625321226025, 344.70480190624795 586.5991665567045, 317.32307055686346 586.7887750672796 M318.45784742027524 585.23367163432 C319.94062414614217 570.1175906962025, 318.7984840120138 555.754313072182, 319.9101285583361 536.901742084745 M317.5664448382441 587.5225867378508 C317.32217440338735 573.0095976730623, 318.5557551182331 557.0527154398746, 318.18606427588344 537.4681304685084" stroke="rgb(0, 0, 0)" stroke-width="1" fill="none"/></g><g><path d="M447.58040400484805 535.7153758495137 C464.3314157187403 535.3554074174301, 477.18837766827465 538.4086184892552, 519.0756536759251 538.1942610165892 M447.0317771222512 536.4844565581724 C466.3955118064907 536.9980575175609, 484.7500262746273 537.0578350210817, 518.2055751434062 537.5013363549334 M516.2510424690422 535.6944459591878 C517.822082405916 551.9770287102223, 519.0915189884906 568.2590891692026, 517.522324494772 585.6786042702698 M518.7369731827804 536.864625177681 C517.597565150295 548.6801658635234, 518.505600875557 561.7230417581561, 517.1282153983964 587.3563585526914 M517.6257526376484 586.2486691323447 C492.88068873936015 588.4662329648236, 464.1295793526369 586.7853416708269, 447.48961932284914 586.6103927761578 M517.9443924712933 586.0306767166812 C495.24319825860744 585.9618547752951, 473.7957251469923 586.5319263130266, 447.5710417004 586.9357997524413 M448.5679967554034 585.5262415820731 C446.43570015223224 576.1590022509656, 449.08011068806053 561.553686646374, 446.3645381377001 538.5815027696966 M448.9891196868933 586.798141615161 C448.58400175233686 577.1330064979531, 448.7870489451974 565.9639906237229, 448.5812244958259 536.9491149375184" stroke="rgb(0, 0, 0)" stroke-width="1" fill="none"/></g><g><path d="M577.7868818818098 535.5029831255475 C658.2852293510753 533.9005153975356, 739.2215781633091 536.3314388523723, 827.1428136149925 537.1108464753063 M578.7344652739588 537.0431487904186 C641.7662860222858 535.4401526291115, 705.3574405110959 535.3361585594168, 827.7880306393981 537.1058620072748 M826.8024744455059 538.1339331844039 C823.9339395810046 582.7764954478964, 825.1631773665933 629.5652685562906, 827.0565397653595 667.5779702970661 M826.6788375634716 537.0739946399817 C828.0016739647739 565.8086495390558, 827.8400519561528 595.2372222161774, 827.2520675393025 666.0007916004053 M827.8661520373752 666.0114399693167 C740.978610413266 668.6178211412293, 653.521900987095 667.7091812740614, 578.9873467397051 666.9218129208159 M826.6633097122938 666.793259665974 C762.8133873424716 665.4208560595105, 696.8533800249635 666.5782095050474, 577.7535725264042 667.6473754190245 M578.3703560736068 668.079000546153 C577.5236606811088 635.0251761568036, 580.6786795992049 603.7248908773557, 578.4001149350937 537.5984986293755 M577.3193166628324 666.4786660895772 C580.01047530656 615.4037675051878, 579.2739381401274 564.9364664369791, 578.2784504674854 536.2372411401733" stroke="rgb(0, 0, 0)" stroke-width="1" fill="none"/></g><g><path d="M603.8876189142685 603.5150999323557 C620.6455557057454 600.0713917668012, 640.5612991973843 602.0855315258744, 659.3476657881687 600.6316312403112 M602.5021907334265 602.2501718334689 C619.2606863263914 601.384954811073, 634.3475617813643 602.429130403839, 660.4046151289475 601.2788082812311 M660.1450377801941 601.6864373866658 C659.1858588125789 620.686905436379, 659.7215785229137 635.4724053226121, 659.1425072886703 652.8978081854513 M660.1011874381746 602.0247295201445 C659.9344573978204 615.4683349308357, 660.6600282125164 629.6969754033407, 661.7552346932827 652.2629094630647 M661.7424882674551 652.8131839180601 C648.1432886909531 653.7739716865668, 637.5850406861566 651.927377651719, 603.283466750872 653.0619410656549 M661.8721239104555 652.8611552408237 C641.841354620782 652.0204582353165, 621.5349296380338 652.0497458248626, 603.2171537081155 651.9921564257558 M602.6781221147978 652.3781106392889 C601.5455007619332 634.4787132625079, 602.2977044351295 618.6221952844536, 603.7661883526149 601.2274381028232 M603.0559796051001 651.8165771714354 C601.9261486687901 640.4026419895863, 603.0602456979547 629.5003298742561, 602.7488198333932 602.1490689123538" stroke="rgb(0, 0, 0)" stroke-width="1" fill="none"/></g><text x="632" y="632" fill="rgb(150, 100, 28)" text-anchor="middle" font-family="Consolas, Courier" font-size="20px">id36</text><g><path d="M673.7899838781675 601.5877319320476 C685.4038566792173 603.1495974556053, 700.4020612853797 600.9493399805654, 732.8331542854894 601.8064889723137 M673.1919965164651 601.087073395 C686.1180871996595 601.6039385888239, 698.2802816333445 601.6501160308565, 730.8404914784041 601.4342417756394 M731.9204087503074 600.3664770709177 C730.7522895605217 618.5798254786529, 731.6784415475099 632.9027456351242, 732.9773680239782 653.7151026903264 M730.9022900222054 602.4194571246779 C731.4576034761564 611.3314890198485, 731.3671739888379 622.8179827806014, 731.8922427059518 652.4220337408125 M731.6200171381264 652.7280887522543 C712.3441705069085 653.0743614607865, 692.5645618695031 652.2734999106686, 674.1998796321128 650.0736817665704 M731.2327549892437 652.1670581063836 C716.1475832360175 652.6934565939027, 698.7521688897822 651.8346187498244, 673.0486965637257 651.6150665921085 M674.6964243342738 651.5919229748241 C674.895638995263 641.5401390306794, 672.9122463040842 625.5543606203837, 675.4979837150074 603.4207879174955 M673.42110807611 652.4369558861597 C674.3621911052588 640.154405531759, 673.1118352313243 629.1194379063237, 672.9688959007697 602.8962254877772" stroke="rgb(0, 0, 0)" stroke-width="1" fill="none"/></g><text x="702.5" y="632" fill="rgb(150, 100, 28)" text-anchor="middle" font-family="Consolas, Courier" font-size="20px">id49</text><text x="667.25" y="632" fill="rgb(0, 0, 0)" text-anchor="middle" font-family="Consolas, Courier" font-size="20px">,</text><g><path d="M742.025139095087 603.4798712756169 C762.201653947686 602.6580770145935, 786.0103290016675 600.8476752261761, 803.2981846180934 603.6820113233616 M744.2686424545157 601.1058078817616 C757.2037918501054 601.681612522175, 771.3318016458813 601.0726866350338, 802.7374054603672 601.5304710094715 M800.6485353341648 600.0880894239131 C801.7791159852783 619.8664598915345, 801.8826630392529 641.0379948626672, 802.819953944241 651.2653180165091 M801.0098926257775 601.6785847969335 C802.3792214376233 621.0533612773743, 802.0944400062917 637.6825071156827, 801.0376817880675 652.8135909946004 M802.6346811270208 650.899906157997 C787.0445945541851 650.4042317965439, 771.3411450777776 650.2494446345708, 743.9155202004926 652.2711358005653 M801.6982486560972 652.8428610444187 C779.6091461306474 653.294140687276, 756.3234608035848 652.783590707127, 743.0910489569867 651.5172932070025 M742.3929903442701 653.3593723108379 C742.4615483175265 636.8342142447723, 745.0717501607243 624.4329196284699, 744.450313110355 600.1931147058667 M743.5571753233315 651.2926483752733 C742.7605819877823 638.7697871214962, 744.3688384857602 624.5595610387229, 744.0954510887183 601.0794022648073" stroke="rgb(0, 0, 0)" stroke-width="1" fill="none"/></g><text x="773" y="632" fill="rgb(150, 100, 28)" text-anchor="middle" font-family="Consolas, Courier" font-size="20px">id64</text><text x="737.75" y="632" fill="rgb(0, 0, 0)" text-anchor="middle" font-family="Consolas, Courier" font-size="20px">,</text><text x="608" y="567" fill="rgb(150, 100, 28)" text-anchor="middle" font-family="Consolas, Courier" font-size="20px">id90</text><text x="797" y="567" fill="rgb(27, 14, 139)" text-anchor="middle" font-family="Consolas, Courier" font-size="20px">set</text><g><path d="M577.4133262677699 537.5913840713728 C594.2602919790098 538.4610585633175, 612.4468934694453 537.7588853220591, 637.7347707346036 537.7217426337069 M577.8291415774755 537.3568000917131 C591.1481004631092 536.5570652944031, 606.1064290455217 536.5575768884527, 637.5921274464789 537.5484824122335 M639.0048407460681 535.6260481989718 C637.5393650772672 554.5531060123734, 637.6191247437283 571.1888026341989, 638.2950917278853 586.0266438137913 M638.7544493750198 536.4555081626557 C638.219207350598 554.8569118094925, 638.2038990551348 572.1846883958042, 638.4532593038492 587.7842839335163 M638.0104620053813 587.6370485904472 C619.7387876040372 588.7663607702829, 601.1310791421138 587.0300910779674, 578.9057655287919 588.4082990275504 M637.644306706546 587.9439830623728 C623.5128940533452 587.1138266514041, 607.53762568314 586.2050838291004, 578.6977116320769 587.6079347523319 M579.5093562442355 585.296124113299 C578.7282007366878 569.455173917662, 577.2719033758987 548.9165037505163, 579.1178157740154 537.3507419717912 M577.9640241736923 587.8004603934637 C577.3775906985001 574.0916775055686, 576.8926255816747 558.8673447851484, 578.1717965258281 536.6535371542233" stroke="rgb(0, 0, 0)" stroke-width="1" fill="none"/></g><g><path d="M768.4699219259761 538.9279369339225 C788.2076395887102 535.1512206488421, 812.9292384851407 535.2378430244441, 826.9141644061733 536.6848197602003 M766.6348737328079 537.4072603164549 C783.9356021686943 538.0442989672882, 798.5809351464658 536.6606839720284, 827.9172698566776 536.3467463477068 M826.3969339804588 538.4871323607109 C825.1568783636596 552.8937209737798, 826.4537667044895 566.2059957619176, 828.6509758044626 588.0006578589249 M827.8870382056083 536.5018152943527 C827.084963144388 555.2950794235076, 826.1320219800151 573.0757515492213, 827.7217250587494 587.0093474352327 M825.2706842429003 586.0877436373709 C806.1345064132339 586.9685599313422, 787.1273146823099 586.624800919764, 766.0097877222465 588.367997108453 M827.410712873996 586.2582362830451 C806.0844628470048 586.761481969887, 786.2227367342007 588.1654344590617, 766.2333410592847 587.8173438293269 M768.3592638248582 586.590368503643 C767.695031184817 572.9697316989767, 766.11159463974 560.2786213391923, 767.8329047721668 535.5909684192676 M767.6262254710095 586.1960647749115 C767.2972025679627 571.6570444967606, 766.4380878052505 554.036937942009, 767.7745952599619 537.699990375997" stroke="rgb(0, 0, 0)" stroke-width="1" fill="none"/></g><text x="590.5" y="632" fill="rgb(0, 0, 0)" text-anchor="middle" font-family="Consolas, Courier" font-size="20px">{</text><text x="814.5" y="632" fill="rgb(0, 0, 0)" text-anchor="middle" font-family="Consolas, Courier" font-size="20px">}</text><g><path d="M913.5319365055049 612.2090741010184 C922.9515314820443 612.2384566296947, 937.6717188878508 610.3540544052101, 963.8073155260892 610.2408795271858 M911.6800754972829 611.4756729269218 C932.3547267628244 610.917544237171, 950.3462665551518 611.0801139052169, 961.7576334547447 611.9471724628519 M963.2016531922848 610.5413858402699 C963.1483621157437 624.4471321613863, 960.7109436999306 637.5105095514341, 962.326000923603 662.409685440308 M962.0232142478771 612.5706821624983 C962.5677717167042 624.8788097487231, 961.7228150407097 638.6405797731217, 962.0878044632732 661.933533295374 M962.7800136767264 661.5852599245645 C948.6457763506685 662.4991406659017, 936.4458803178176 660.5298395163836, 910.4736849192604 663.270387058034 M962.9647310105092 662.881518304045 C950.7267133971297 662.551333180946, 938.1527247531718 661.417819880444, 911.5706011714924 662.8354467680866 M910.6218756372288 663.6943040796473 C910.498921124959 649.2961779025435, 913.7294166158612 640.02347129093, 913.6429565076635 612.73899116967 M912.8322486075544 662.9343930745122 C911.2301594479702 647.3016667512856, 910.7468756348859 630.3243517281933, 912.5275756817183 611.6341983332572" stroke="rgb(0, 0, 0)" stroke-width="1" fill="none"/></g><text x="939" y="642" fill="rgb(150, 100, 28)" text-anchor="middle" font-family="Consolas, Courier" font-size="20px">idx</text><g><path d="M913.8324377540724 686.7783775321716 C921.8286185380817 688.0418285691376, 932.8907830124552 687.2287044374661, 962.2714687614248 685.5469170794498 M912.5009888004643 687.0889315357499 C929.6353243932887 686.7907091400845, 947.1624694023482 686.8521244397105, 961.162286268895 686.0360318613187 M961.6870637671844 685.2043183068819 C963.3346985886789 698.6428251275776, 963.03231063258 711.4112964385871, 961.5225755531477 736.1949737819341 M961.8297271560762 687.9486464479924 C962.3565305325969 703.1080534331544, 961.7171146387766 719.9486880454642, 962.5666399545125 737.9094573482513 M962.2175775312553 737.9362146632642 C950.0872332366129 736.3954536702366, 936.5098950356496 737.2992951239805, 912.1100725196851 736.8024203012587 M961.4367698733603 736.2532642214467 C947.1944651077279 736.6808438193156, 932.6497095776784 735.8352675770952, 912.9918846373914 737.2313223964976 M912.4096493538239 737.433602491922 C912.9534251612615 725.2959133180468, 912.9659777460192 712.7588460531418, 912.6656475360833 687.5988502606624 M911.9654775834115 736.4481715126864 C912.3678416246488 718.7949614864798, 912.0120561055884 700.156483683112, 912.2804301037319 686.6400074593488" stroke="rgb(0, 0, 0)" stroke-width="1" fill="none"/></g><text x="939" y="717" fill="rgb(150, 100, 28)" text-anchor="middle" font-family="Consolas, Courier" font-size="20px">idy</text><g><path d="M911.8374788618183 760.0743452186341 C930.9713769897049 764.1584196812912, 952.973633950082 760.4924276225488, 962.0823366267311 760.5042317892071 M912.0084030333396 761.6192314847987 C930.4375578655793 761.5918015817309, 948.5642880918031 762.599746289392, 961.789969689576 761.4518980135831 M960.9282286392705 763.8427841629364 C960.599584948373 780.1009620083423, 960.156790882077 797.1776381882263, 961.2473284156782 813.6695511543062 M962.0468447390057 762.7046052365757 C961.7503051021957 779.5315962782105, 960.9872854561532 795.6156552522626, 961.7403932515276 812.005661483697 M962.5274156187922 810.4168119263114 C947.7053950423469 810.350277136181, 930.0598950462035 812.1307076403142, 911.1070081249428 810.1049818194043 M961.2787894248736 812.3857742603598 C951.0648811393386 811.2722237982119, 937.8797480020165 812.4762580771062, 912.9897528381197 811.3040407085803 M913.4980612862666 813.4438047789013 C912.3719669593575 800.2948495291831, 913.5179038170415 789.6147473890887, 911.9982450811217 760.6429016577931 M911.8004109107919 812.8784770568982 C912.3513900604528 797.8298448608831, 912.6672979651942 784.3660122000001, 912.0016798353157 761.172839270808" stroke="rgb(0, 0, 0)" stroke-width="1" fill="none"/></g><text x="939" y="792" fill="rgb(150, 100, 28)" text-anchor="middle" font-family="Consolas, Courier" font-size="20px">idz</text><text x="993" y="642" fill="rgb(27, 14, 139)" text-anchor="middle" font-family="Consolas, Courier" font-size="20px">:</text><g><path d="M1012.2433077503198 612.2973278216689 C1032.361925118239 612.8402084682064, 1049.6747665814078 610.4520762134954, 1073.7100832077829 611.363095235542 M1012.0449763220838 611.5258036953378 C1030.3729127153006 611.0008632199821, 1046.4259168451729 611.246670442193, 1073.850603106892 611.5227892132465 M1071.0266253603456 610.6074742960689 C1071.214074510072 625.0150378681586, 1074.3366029663528 642.1369302709538, 1074.3079894981117 662.7956686302063 M1073.6757970452422 611.1604836705152 C1072.4596134004087 631.195082154693, 1072.2431510259537 649.2317585299089, 1073.8681360824553 662.9937691779481 M1072.9631997418421 663.4054140358041 C1055.1835357985856 661.092592299924, 1038.0050284438162 663.4035416466098, 1012.9294919415131 663.1753480019474 M1072.5711844252687 661.7980055875289 C1056.288249166068 661.4798675388241, 1039.49075184124 662.4847854989667, 1013.2820651199487 661.5179975224444 M1014.5538799529132 662.099890113301 C1013.1885977640029 644.1377339510466, 1013.9161612489911 625.197973552963, 1012.8821828662759 612.6381642833372 M1012.8751966539369 661.8084167220617 C1013.5988092280503 645.8092701245928, 1013.4373986942545 630.8525135642061, 1012.9164183047652 612.7213051233817" stroke="rgb(0, 0, 0)" stroke-width="1" fill="none"/></g><text x="1043" y="642" fill="rgb(150, 100, 28)" text-anchor="middle" font-family="Consolas, Courier" font-size="20px">id81</text><text x="993" y="717" fill="rgb(27, 14, 139)" text-anchor="middle" font-family="Consolas, Courier" font-size="20px">:</text><g><path d="M1014.2664815492974 687.6323621688933 C1040.093459129114 687.7138591093237, 1065.3789451190817 687.3718970245125, 1086.4133177455083 686.1682830739792 M1012.0236115770109 687.8303654490962 C1033.3545243136261 685.4844717790405, 1055.5208463812803 685.9398109391303, 1084.9176224897467 686.6913672394232 M1086.8962722916224 685.6699811019346 C1084.4116873858295 708.0474223601544, 1083.1976161371717 725.8373146313571, 1086.7623842507128 738.302664920608 M1084.6964562882988 686.2984229058634 C1083.7153351047637 699.1357671975461, 1083.9954650410111 709.7372101174668, 1085.3994445152712 737.7786210687896 M1085.4649329101255 737.2082638675528 C1067.410123196118 738.9745738598274, 1047.740400949191 736.2247023375081, 1013.8623935001939 737.3309021097032 M1085.5203926964994 737.1542044103035 C1057.5023656637807 737.5285633471098, 1030.5600191445396 736.5174841473721, 1012.5950865217008 736.4347825573674 M1012.0863407169953 735.3356222729707 C1013.7382367340384 725.2688039132943, 1011.417420539028 713.9552502551469, 1011.1515232623246 686.1856251056428 M1012.1813895654242 737.278545416253 C1012.5028349999376 724.1980140047422, 1013.4219330698842 710.0341878717436, 1013.4787961047124 687.0923980065159" stroke="rgb(0, 0, 0)" stroke-width="1" fill="none"/></g><text x="1049" y="717" fill="rgb(150, 100, 28)" text-anchor="middle" font-family="Consolas, Courier" font-size="20px">id100</text><text x="993" y="792" fill="rgb(27, 14, 139)" text-anchor="middle" font-family="Consolas, Courier" font-size="20px">:</text><g><path d="M1011.0543230750052 761.5772369073744 C1038.6444036063392 762.7502815292768, 1065.959317995708 761.8402196320212, 1086.1470421332006 763.9366582324166 M1012.8846071925263 762.6241525040417 C1039.7584665305985 760.4699588970827, 1067.3679201753512 761.2021548997886, 1085.8275140629219 761.3332943090062 M1086.0136841934916 760.0288595347266 C1086.1048939015968 772.6079558901628, 1086.1672375848398 784.6076214682645, 1086.9983418460208 811.9806514032081 M1085.752708887698 761.830391851886 C1084.5716028096226 773.6527270908962, 1083.8602505466913 786.4048678358175, 1084.7965999083528 811.5813432650957 M1084.1148546155068 812.5398368750942 C1062.0086791163353 813.2848861884161, 1035.0564087635685 813.625813034785, 1014.1659661290125 810.8026180840383 M1085.6779578466726 811.9181569738363 C1059.0960338601171 813.3953511912335, 1033.7949353321362 811.9473669244705, 1012.6805475270368 812.4811510657146 M1014.3751342356775 812.4755331200541 C1013.5816229390523 794.9838806513875, 1011.8926855660569 776.4021392542746, 1014.0464097515264 762.8785056310924 M1013.9948768310422 812.2934856584392 C1013.2518688341448 798.7010005483672, 1012.6113895755449 785.2590454452487, 1013.929183568604 762.5822100227463" stroke="rgb(0, 0, 0)" stroke-width="1" fill="none"/></g><text x="1049" y="792" fill="rgb(150, 100, 28)" text-anchor="middle" font-family="Consolas, Courier" font-size="20px">id121</text><g><path d="M885.7063812852658 537.802732511283 C936.1687783433011 538.7338919013342, 988.5884955660291 538.4301827468204, 1098.2826886319956 538.2442692964739 M887.465768042323 536.3777338187452 C957.9517164398902 537.9695844458402, 1028.635809065363 538.4181939048087, 1099.4785853978321 536.4344462954089 M1097.600221455698 536.1771084195576 C1099.498323164006 603.2285018755397, 1100.5505888055875 669.4121142520543, 1099.5497913937782 838.346381031266 M1098.8863058655074 537.6303913052565 C1101.28570725661 651.8630183167546, 1100.3804209884736 768.0510604282481, 1098.8955711792453 837.6926109321724 M1098.865145640213 838.3436291145271 C1022.2965240192301 833.6202217271489, 949.221661358577 833.7117683564963, 887.7789752466379 837.8679088139179 M1099.7871360913705 836.2189335832154 C1029.1274189201165 834.7243265317588, 957.9941635231345 835.9693456496578, 886.995856997635 837.1427013603035 M886.9340499980747 836.2913238999859 C887.6211869121357 726.8107498390125, 885.8108241505776 615.7882488372182, 886.740474700089 537.5741980819334 M887.6759381935102 837.5375438986977 C886.4858796411274 753.4378696269079, 887.4255703463562 669.1346103141368, 886.5916809642086 536.8239241898307" stroke="rgb(0, 0, 0)" stroke-width="1" fill="none"/></g><text x="917" y="567" fill="rgb(150, 100, 28)" text-anchor="middle" font-family="Consolas, Courier" font-size="20px">id10</text><text x="1069" y="567" fill="rgb(27, 14, 139)" text-anchor="middle" font-family="Consolas, Courier" font-size="20px">dict</text><g><path d="M887.3533976733565 537.543875772587 C901.7254884947318 538.0746474973814, 914.808325870207 537.5001588897845, 947.5640129959123 536.7468229707193 M887.3495461147609 537.69238330269 C907.8190849665127 537.3973914299849, 928.828064959108 537.6261814785278, 947.1579654509491 537.4243199665314 M948.9758012091178 537.8088247307318 C946.2041774427869 550.8962442745108, 949.0084867445919 564.1754118187579, 945.8300827817609 586.7278234102516 M947.0539419435108 536.0225622765855 C947.1179866789865 554.1502648598764, 946.9785035553018 572.8986499138585, 946.7329277386087 586.7540708969285 M945.779789336261 587.5315511982925 C926.9897504367873 584.7088537453959, 906.4631732026676 587.4463395531758, 886.8489264881139 587.1975881081432 M947.5711188411296 587.2932229246438 C927.7080749484807 586.0610695198621, 908.252900823689 587.2936643424237, 886.3707956425873 586.6551974310986 M886.1145793641335 586.0703331055288 C889.3004746735029 568.1781817198356, 888.9489452305286 551.4847858594671, 887.4150766811396 538.3435215196523 M887.3079960721313 587.87895186636 C886.0189157711974 571.24431901187, 886.6466286015176 555.3086137860618, 887.127454848608 536.5505360352424" stroke="rgb(0, 0, 0)" stroke-width="1" fill="none"/></g><g><path d="M1040.620503020545 537.9015258087911 C1054.2419717742623 534.8965873642203, 1070.2260733503756 536.1471062473815, 1098.992342592868 538.8216595180623 M1038.6191128667435 537.1864965134693 C1054.4292527139949 536.396169064261, 1067.6715319522648 536.5840989685776, 1099.8583773615653 536.8387956488029 M1099.2309641286001 537.6272257767641 C1098.368182806128 553.8921339812497, 1098.0224965064756 570.7516969199155, 1099.1850390989089 585.7328974947856 M1099.5261145813972 537.1288758163083 C1099.042754619139 555.58580628658, 1098.8957111321201 573.9603246626497, 1098.8211373505299 586.3918978629146 M1098.8341706624929 588.6562165970594 C1083.6893211703643 587.0619494999848, 1069.150366243679 588.7545240314874, 1038.724499468372 588.9797570209789 M1099.6481216383393 587.8960111552552 C1081.244254617854 586.0193427585089, 1061.9331510253191 587.3929998918854, 1038.56333964195 587.1775741959141 M1037.10360522856 585.6876014385805 C1040.7242142340397 575.4127644715767, 1039.2593262425382 562.6501409166563, 1037.128451173823 538.9570006425135 M1039.9214105668907 586.4950361717378 C1039.022821535073 569.376186043404, 1040.157553511954 550.7115096941444, 1038.436697018291 537.5395581888696" stroke="rgb(0, 0, 0)" stroke-width="1" fill="none"/></g><g><path d="M318.86862751512854 897.8919100890474 C356.80154501281174 896.5215793034664, 400.28084619375176 899.9067787998727, 519.6122120236402 896.9656955177117 M318.4708838255382 896.6068364585497 C367.19357048134265 897.0104310443384, 417.0423822553053 897.1280235652067, 518.3426091309151 897.591223055406 M516.2149196115764 897.0546960197591 C518.7340513573025 947.4479101827251, 518.4223686910993 999.4864313030635, 519.9365779842427 1025.8425125712554 M518.8661841467533 897.9275325281135 C516.2964564094705 930.0516644608404, 518.1608707110681 963.5453142608235, 517.0917852276062 1027.4383054770078 M516.8317816333426 1026.4194296599862 C474.27421564582835 1026.0620242282628, 428.7313336106339 1027.9448495984614, 316.2976079030301 1028.0878199586411 M518.4400479781549 1026.589834584384 C447.0924396079073 1026.6622737842804, 376.8531667517909 1027.3048825927945, 318.24642939185543 1027.8024687010404 M318.45958231309163 1028.5432767817827 C315.6203065759989 982.466745298051, 317.3916937392039 936.8524801632839, 319.1918258329728 898.6439040161977 M317.67830312144 1027.0105209924884 C317.6667364399517 993.7513964138761, 316.74913232501524 961.1679467606733, 317.07368355557156 896.1130702937758" stroke="rgb(0, 0, 0)" stroke-width="1" fill="none"/></g><g><path d="M312.481003771681 889.6295768587876 C391.0773064654536 891.6421457110531, 472.039776541818 892.6593261284676, 524.4051398894663 890.4055112183424 M312.54283355430294 890.421928399342 C366.7312100491078 888.8784902987499, 419.6809432464227 889.927732038225, 523.6174675133005 891.3333209619404 M524.6121176091259 890.9462803034627 C522.72903239581 946.5145600170888, 525.7443981781706 1003.3562217587383, 523.3795157684854 1034.1255433524075 M524.8901501728554 891.7975118334797 C523.5103787823377 937.5673727718355, 524.822693755469 986.3193857904611, 524.8176547969215 1032.478945784085 M522.4283554344861 1031.9087356128516 C445.567207323614 1033.467647361777, 364.1716876764132 1034.7018528827784, 312.6755665035004 1032.3582060435854 M523.3398276385683 1032.172469837441 C449.948000628937 1035.0666706896623, 377.3161185198421 1034.4967985060055, 312.2331983512696 1032.9428381476803 M312.9646868729753 1032.1392832642787 C310.51830409654565 986.3890020294034, 312.5115438908952 939.5560881640007, 312.7622705605375 889.2657349843444 M311.11418788955797 1033.4937931977115 C311.9384224482928 989.1844265582354, 310.22349379623614 943.5610293224609, 312.6663724262083 891.9245933175123" stroke="rgb(0, 0, 0)" stroke-width="1" fill="none"/></g><text x="418" y="987" fill="rgb(27, 14, 139)" text-anchor="middle" font-family="Consolas, Courier" font-size="20px">"None"</text><text x="348" y="927" fill="rgb(150, 100, 28)" text-anchor="middle" font-family="Consolas, Courier" font-size="20px">id13</text><text x="488" y="927" fill="rgb(27, 14, 139)" text-anchor="middle" font-family="Consolas, Courier" font-size="20px">None</text><g><path d="M318.8378550364154 896.1945661833925 C331.57141009625934 897.8987731608189, 346.544106343559 897.3037308795301, 376.5616778400248 895.8998534124779 M317.3691437027428 897.5953084912543 C332.97799908602144 897.6249765763552, 347.7295344333917 896.8839367200375, 378.16335045296404 896.1972984523289 M378.4917520240079 898.3359195773984 C375.5337131734841 912.1271834087975, 379.05697758759686 926.8628632951178, 379.6582054111778 945.1558915730541 M377.6626087261039 897.523027923619 C378.55139370026444 912.8511591322601, 378.2865844496687 928.9760783173341, 378.47230742144893 946.2104369389336 M379.96820571876316 945.8781450857616 C365.58938517186135 946.1704057989749, 353.2916693441181 946.3906340057621, 318.75020844901104 947.3519899834815 M378.8838872242187 946.166455860314 C356.0252553975675 947.7808734564455, 333.42127375871416 947.7636184622397, 317.51863278560813 946.95008419934 M316.83550067315747 945.8749492073717 C318.9637317397685 933.028513403924, 316.7504216415852 914.574278639771, 318.28371885750147 895.0283954912996 M318.67822188770884 947.0765591763218 C319.18171683038105 935.0240779814025, 318.6134386471895 923.6983723590768, 317.64777168609544 897.4769595350149" stroke="rgb(0, 0, 0)" stroke-width="1" fill="none"/></g><g><path d="M456.51681428348365 897.9958359682668 C474.0569294934131 895.4809169178166, 485.7879097918366 894.761517317728, 516.9258295998067 897.4997733555109 M457.03756679222863 897.0928590451928 C470.94865974762604 897.8260950563774, 482.74174228635286 897.4944179710229, 517.389145898013 896.2525321877093 M518.6630801371031 895.9605546149901 C516.4071655000995 912.9108771041208, 518.995295196481 930.273298774897, 517.5002395016854 947.7507936115558 M518.0079042189391 896.5541292896091 C516.9091099111449 906.4825414380526, 517.5972182565215 917.7030836112536, 517.1333336682861 946.0349878345233 M517.3478885591389 947.7393127974794 C497.38780712358874 946.9380793318103, 474.492894159329 948.7837830344066, 457.67781710690184 945.4326908912858 M517.8459590565565 946.582924955497 C498.77983816898774 947.7491507692513, 480.44002302473274 946.7283923421572, 458.1772498861301 947.9785106424555 M456.5310975359164 946.5294685956566 C457.184929271819 938.2983089168932, 459.3327006704217 928.8111223478387, 459.7266186914153 896.4370948228504 M457.81671959702146 946.9252417919415 C458.6736153849318 931.7241563218588, 457.52516527262117 918.7842860289014, 457.086655815438 896.0455727355452" stroke="rgb(0, 0, 0)" stroke-width="1" fill="none"/></g></svg>