<svg width="1300" height="697" xmlns="http://www.w3.org/2000/svg"><g><path d="M309.87945289270084 101.17769209708494 C329.3040910794286 97.77491072222371, 344.43412660021056 100.13994460386616, 359.29798536529154 99.92852332118721 M310.46828548171567 99.02566842945194 C327.8603590862973 99.31052213291804, 347.0967769865151 99.08520949989996, 359.5074155613351 100.1725727976369 M358.58689638991274 98.65288117492135 C362.17949816164935 115.37532014483331, 360.54900648286304 133.1097428674655, 359.8133082622509 148.0234367858627 M359.3877042103822 100.8223658058121 C359.96595363227897 115.66407662174696, 359.86374312602874 130.2891444975605, 359.2471056680247 150.8563856614405 M358.4931286743237 149.70604806761338 C349.37170410525005 148.201156991954, 335.64478982297305 149.50480177943376, 308.89829015352194 151.27995183493056 M359.37133619673523 149.05100589362397 C348.87551894957295 150.42436450872586, 339.2014457082547 149.6561235537993, 309.10666713456783 150.81902507159361 M309.9795334894386 149.4632388855326 C309.0600419773829 136.6852995094984, 310.95685295036753 122.16415111696679, 308.7314496635772 101.56917010336319 M310.7317982307202 150.58555684178154 C309.14175660297127 131.0901253213802, 310.6450560789578 110.42162273990506, 310.78730297606404 100.85708265366954" stroke="rgb(0, 0, 0)" stroke-width="1" fill="none"/></g><text x="337" y="130" fill="rgb(150, 100, 28)" text-anchor="middle" font-family="Consolas, Courier" font-size="20px">idx</text><g><path d="M308.659982708522 175.67795388092955 C325.086913034515 173.02133520985467, 337.0937805541561 172.83316269922952, 359.6044260611734 173.00057240892224 M309.0752124612628 174.8611062230126 C326.93817250228454 174.8084679365781, 342.7411340553498 174.38264768955, 359.2083088141565 174.96463403136815 M361.23561390817514 175.00667639024786 C359.5170590465363 185.28033213751706, 361.9061499176904 200.51435690009976, 361.5160541257713 224.57367489285633 M360.4928631735741 175.28476080532957 C360.5487196143241 190.38879179669644, 359.58956387767194 205.47819405147808, 359.2781534151429 224.37922803192797 M359.108940471016 226.7356475549934 C338.45656125832414 223.6246783188417, 319.073996472484 226.46504800654392, 311.530736079257 224.70182488424032 M359.9115213717448 225.47424528718105 C347.7898126157031 224.18546858483398, 333.83029007456116 223.84998075912216, 309.0519395559453 224.2292003771407 M309.2775123500641 223.27180089753938 C310.83771565419886 211.5563369787888, 310.0474424696533 201.41032806002505, 311.1896305145229 175.5640539264791 M309.2170453701856 225.4909216732764 C309.2989009078168 210.9016291969053, 311.2073276932958 198.07938431973247, 309.7642145544936 175.21706230308274" stroke="rgb(0, 0, 0)" stroke-width="1" fill="none"/></g><text x="337" y="205" fill="rgb(150, 100, 28)" text-anchor="middle" font-family="Consolas, Courier" font-size="20px">idy</text><g><path d="M310.44540238729195 251.5441740234514 C320.1840264662104 249.70066348999657, 330.9019762625565 250.7444632519628, 361.9481380583249 251.90540779281918 M310.3218511540973 250.5562936995105 C329.6380364356271 249.42748406505467, 348.3311564271797 249.90792224542454, 359.2985016795586 250.65729344720654 M358.2720900860048 251.3094847351955 C360.23816834646397 265.2332642685901, 361.30501825026414 279.78860069060596, 361.8473340361736 301.5904985864284 M360.8423338342443 249.94506017403128 C360.87156716541614 261.76831799570226, 360.52423891228034 272.27145576691044, 359.11880306910666 299.7484292771943 M358.66007406554155 300.58304182145554 C344.2685815206018 300.90921818180453, 328.07745312711035 298.4212480193782, 309.74287121050986 299.95607283908794 M360.23076898848825 300.81533396063475 C341.1312091247818 298.6515199828205, 320.68234680623027 298.8355385727728, 310.3462032166499 300.9220048182801 M311.84142354433243 299.9910577440596 C308.7409702025234 282.6526852571361, 310.4081479376645 269.20887951143555, 308.4971929635854 251.25471557796894 M310.4814786751466 300.59779811613686 C309.1171146233054 287.5325130907598, 310.10327892290326 275.06364906774536, 310.64801755356433 249.86874186670104" stroke="rgb(0, 0, 0)" stroke-width="1" fill="none"/></g><text x="337" y="280" fill="rgb(150, 100, 28)" text-anchor="middle" font-family="Consolas, Courier" font-size="20px">idz</text><text x="391" y="130" fill="rgb(27, 14, 139)" text-anchor="middle" font-family="Consolas, Courier" font-size="20px">:</text><g><path d="M409.63861797343446 100.68038489108955 C430.22905097085635 99.98560233655358, 448.48985406855667 99.4555966418358, 469.81506660534245 99.4621688500046 M410.20443646379033 99.34814856232812 C427.07368856181057 100.4198997206463, 444.10590791384254 99.24017285370194, 471.4183921716672 99.48550960058506 M472.9823857053652 100.40326151129277 C468.9351630056746 110.25448265129292, 470.5961590422069 122.38999471797592, 470.69163607181713 148.233164532451 M471.47380507116577 99.313436050551 C471.69612884165394 111.594017631174, 470.4997250790528 123.34747794653616, 471.86221655088815 149.89862943260053 M471.6628726483625 150.01199640925412 C455.05345742022365 150.88737505684736, 440.3276886943883 149.5088757659347, 409.33635071767935 148.36445685362557 M470.70415452166964 149.69873793569715 C447.4458226410216 149.4858279715879, 424.5488028956831 148.93303885682278, 411.7665547116834 150.71243719359734 M410.9943230561164 148.1576452246501 C410.29013405782274 135.2947006890318, 410.3775076703037 115.80383331010243, 412.77458129544124 100.21792813239544 M410.955593339827 149.47241303454257 C411.8548364101231 132.20076199463807, 410.7386608923805 111.98491173146209, 411.0568262639042 99.39407435228765" stroke="rgb(0, 0, 0)" stroke-width="1" fill="none"/></g><text x="441" y="130" fill="rgb(150, 100, 28)" text-anchor="middle" font-family="Consolas, Courier" font-size="20px">id81</text><text x="391" y="205" fill="rgb(27, 14, 139)" text-anchor="middle" font-family="Consolas, Courier" font-size="20px">:</text><g><path d="M411.7574832402732 173.71103042487832 C432.90595512163634 176.0928987313247, 453.40950109069627 175.87208295057638, 484.12730377863534 176.2707436972945 M411.3851161675836 175.9777475827941 C439.01311374991803 173.9285096442333, 467.5425781280105 173.59446537996973, 482.9547194934365 174.4111686419533 M482.06036478900495 173.51895567343507 C483.10373875239026 186.9698306305486, 483.99264264567313 198.86972860300975, 482.8554134088026 223.83750638092502 M483.44442291329875 174.1578931864517 C484.29351776231357 186.57853670159835, 483.1340935856015 199.15145979008608, 483.9173258498031 224.45664146549623 M481.80078387632307 225.7598897871813 C459.64471267917224 223.63047881772806, 430.9229168469251 225.7949501348042, 409.6333397453509 223.1405905178868 M483.47527761719635 224.64923848699328 C458.0031025694403 225.07475518440924, 434.307143749362 223.98884414078245, 410.4427598685462 225.6498710901642 M412.4268292353049 224.93862103116328 C411.2640578240194 209.48060273341446, 412.076980770299 195.5508584745826, 410.1034769226268 173.8546511442316 M411.4628556385984 225.94591003775972 C411.30156535140736 211.39787457697034, 410.70923584520654 195.38636144279275, 410.74020643988246 174.88193659834408" stroke="rgb(0, 0, 0)" stroke-width="1" fill="none"/></g><text x="447" y="205" fill="rgb(150, 100, 28)" text-anchor="middle" font-family="Consolas, Courier" font-size="20px">id100</text><text x="391" y="280" fill="rgb(27, 14, 139)" text-anchor="middle" font-family="Consolas, Courier" font-size="20px">:</text><g><path d="M412.7679481792142 251.2315119269748 C439.0045267109562 250.498599423808, 466.48010879537895 248.4398081342069, 484.7044386562673 251.8374553773998 M411.66318002002976 249.40832251888415 C432.5998419018956 250.25545640785128, 453.1034401808474 249.87601996817187, 483.08176465121073 250.17263679561597 M484.4915994631055 250.73072780927674 C484.59971143321576 260.85295374921196, 481.18868987151 275.88425556037475, 482.2612433329733 298.230823437765 M483.9682672103074 249.76588617122346 C483.14936743024816 262.472269798558, 481.85831222919006 273.7102337003797, 483.33033484700763 300.08552751365687 M481.4548183934167 298.9591389864719 C461.83940567097795 297.9495781509595, 444.77544878420787 300.3821185316039, 411.91170862851635 300.9235147143729 M482.6145661888375 299.9690094209166 C467.6405100792014 299.7485165845669, 454.3428383245687 300.0372308884244, 410.40459086004205 300.62770441764616 M410.84656306344476 298.22597684006973 C409.15619947168494 279.63420027570857, 412.43004736677517 261.06295603857376, 410.125604062784 250.76554040922528 M411.143287708781 299.3624715022867 C411.13810349330987 289.2129555640887, 411.1886569381011 277.40041443318586, 410.30491983958916 250.04731838897018" stroke="rgb(0, 0, 0)" stroke-width="1" fill="none"/></g><text x="447" y="280" fill="rgb(150, 100, 28)" text-anchor="middle" font-family="Consolas, Courier" font-size="20px">id121</text><g><path d="M285.5521011365636 24.36900194218372 C346.5289236864178 22.494934585267206, 407.01080489828627 24.104498136275776, 495.33476845410786 26.267423176261993 M284.42170815023866 25.750347789095542 C343.4616264537913 25.38441961177367, 401.25030126691 25.246001581390217, 497.686908194146 24.326979293034263 M496.0028184910917 26.340021608108938 C496.3653663949132 121.70140127256602, 497.9983209286468 220.06416518270706, 498.44901535338755 326.3483071307273 M497.02077644874817 24.844134115258655 C496.55927704581364 120.59632032490866, 496.6126994302962 215.57787024902456, 496.36059955913396 324.6812562053936 M495.713956316582 324.47866080332255 C426.3500991121014 326.9428767600186, 355.540247334432 326.4641692668557, 284.37349187318574 326.62529589574035 M496.9962152037644 324.79477386468295 C430.6704966405019 325.0030263305629, 365.77021777798217 324.21929933429305, 285.7110521769462 325.4645011955644 M285.2295735786267 323.5541909029614 C286.6011699859067 228.3852410159126, 286.45918552444743 134.07526292544964, 284.27935534410085 26.457074336635955 M284.87754762192753 325.46762694837844 C282.88367719507613 247.71460102892428, 282.75707788426035 169.72593768557917, 284.4848732368549 25.14513763166003" stroke="rgb(0, 0, 0)" stroke-width="1" fill="none"/></g><text x="315" y="55" fill="rgb(150, 100, 28)" text-anchor="middle" font-family="Consolas, Courier" font-size="20px">id10</text><text x="467" y="55" fill="rgb(27, 14, 139)" text-anchor="middle" font-family="Consolas, Courier" font-size="20px">dict</text><g><path d="M285.88432346898094 25.51647247873771 C301.81219668650914 25.383779744479398, 321.3210486828621 25.41704038385344, 344.3973456522714 25.77023763471014 M284.6592530734998 25.932467122887555 C298.1396892963666 25.190641352941107, 312.853563821178 24.45153708345615, 345.11686140619474 24.626128155092857 M345.2380592263687 26.3437506362969 C346.2770739777198 43.18899759812749, 344.9970928644819 65.12272730169283, 344.5542920754695 73.3868936471452 M345.8703162782002 25.79204673485008 C344.42042298420154 39.25990498510502, 344.25383677652337 54.79625472923603, 345.700725733466 75.30422765944513 M346.45071461782817 75.25407649102429 C331.9277332294826 76.47415255301323, 317.1144803481773 76.12624306045733, 284.65318684564267 76.04244396688617 M345.4455378349285 74.66533530258945 C321.5011272678278 75.45018346380866, 299.2921394852935 74.63853800500468, 285.52984708965545 75.53377898853815 M283.137406394559 76.41590283537778 C286.1183157119751 59.44104365969175, 282.8430503049343 43.66660896408122, 285.0337767008862 26.77388290075534 M285.6290684169228 74.51166349676559 C284.87622719058123 58.70368500106174, 285.28611628362256 42.294769068023655, 285.81374901929803 25.859170276172748" stroke="rgb(0, 0, 0)" stroke-width="1" fill="none"/></g><g><path d="M436.23039651812627 23.507699728941194 C459.7383259347789 25.76660720254809, 479.56206081935073 25.208221861582032, 495.1974561410148 26.145391664245906 M437.4126079408243 25.829848510736916 C450.83549492965767 25.4991744982684, 464.2482593952475 24.3552153352451, 496.49850238707575 25.713376917696696 M498.05939619247823 24.877249412551762 C495.52496665734185 44.151577670887285, 497.5808351542262 61.5623136846964, 497.86637008749915 76.42712622600615 M497.58478914775196 24.592534834045537 C496.50748158417923 42.183787449404896, 495.92243441475154 59.93818180890301, 497.3781231714707 75.71919713177422 M498.5670603396299 74.04890412488115 C477.0561325507646 75.286025555234, 455.4680984538623 75.75661898710104, 437.9794670627141 74.92642515577289 M497.7337253895597 74.83890701445453 C479.9907438662862 75.10300655516323, 461.3531711210518 76.05618400154681, 436.6223935134668 75.90110425658617 M436.6886772470498 75.99470012950894 C437.71065816885226 57.78254323909163, 436.6606805098042 43.26595787389817, 436.59765649079475 24.667654368667872 M436.0611718189267 75.51148224587868 C437.2899151214926 60.24006016196134, 436.74473901299837 44.88397992297813, 436.68657969103594 25.412647215395378" stroke="rgb(0, 0, 0)" stroke-width="1" fill="none"/></g><g><path d="M520.453728415868 26.672992180045068 C586.4972507310466 27.2326946543047, 647.4604041183352 25.137540578640778, 721.5232192951833 23.32713456606693 M522.7521040420409 25.547308214824135 C584.0931208627508 26.996578987428233, 644.796260842943 25.305274760875143, 720.9548284073556 25.35548909170792 M719.3547373929168 24.98766267727615 C721.4410251417006 70.20890373462643, 718.899953942846 116.61750025310147, 718.6602312821515 250.74563707397752 M719.768921771046 25.23539048268338 C720.7180792012813 103.05997193900401, 720.830890295115 179.51552601545163, 720.7131514528448 249.9957531044111 M720.4008912944389 248.01665372336956 C647.8699738910631 250.21426681043297, 577.5731113593018 252.08360727374935, 523.2250211949569 251.8730286113884 M720.3279050720673 250.62031573466763 C676.0503858007608 250.6346133833797, 633.563961884252 251.2435739470097, 522.9798778230135 250.81956000289395 M523.6667463757354 250.51258452677493 C522.0755672993653 195.78106885101874, 522.3293356833107 142.86572656126214, 522.6149911281017 23.5631817027349 M522.5725560305036 249.75230485507257 C521.9539096129847 162.10476291385, 521.8949169662399 73.51789073747175, 521.6594671922494 25.367238266609814" stroke="rgb(0, 0, 0)" stroke-width="1" fill="none"/></g><g><path d="M643.0140899087388 98.03960551247104 C662.1041432573529 101.26260898915542, 678.866925542334 101.57686782519211, 704.555202400102 100.52656685385585 M644.6964897857202 100.10086542634384 C667.5093593873767 99.91210034888492, 690.6964182306449 99.25263195768424, 703.8354640349808 100.27351221841985 M702.4854111586193 101.68787748684656 C701.7175595509507 116.06401799368672, 701.3832466937445 132.30185106755806, 701.5233163447733 150.98414629415066 M702.3989205985507 100.17816655328957 C702.2031458956072 111.57589392093124, 703.92924784487 120.90361970181375, 703.1589532701444 149.37123787440245 M702.8499413904397 148.24231277262152 C683.2091789507324 152.21662978316178, 658.7068459528239 151.09991535220226, 646.1638150931731 151.3049195827782 M702.5023167288405 150.05224523422334 C683.8721010544356 149.49922224327514, 663.9242989845378 150.52857774912687, 645.5576713109946 149.2608979426243 M643.1002574276152 150.65536476295605 C644.6784201724485 130.89638394354265, 645.396399316253 109.8197883932266, 644.3706382743331 101.77407060066157 M645.26784315064 150.0215925585543 C646.0383122926876 134.45363982804966, 645.030231968101 121.36164511848264, 645.7475543208838 100.75812328197273" stroke="rgb(0, 0, 0)" stroke-width="1" fill="none"/></g><text x="547" y="130" fill="rgb(0, 0, 0)" text-anchor="begin" font-family="Consolas, Courier" font-size="20px">age</text><text x="674" y="130" fill="rgb(150, 100, 28)" text-anchor="middle" font-family="Consolas, Courier" font-size="20px">id12</text><g><path d="M645.3780404687526 176.93884577696394 C657.7598921596849 174.01874951371403, 669.4081340023833 176.43016274678834, 704.6226129573887 175.34927926154836 M645.9804098114296 175.82258473001434 C668.0469843508977 174.5884662968779, 689.8627063306352 174.4031631211239, 703.327846724337 175.79064187769708 M702.2439324044791 176.90370228026794 C703.8372734218219 186.5043120178024, 701.553416772067 199.57336479849323, 702.5855814714478 223.15401520348445 M703.8177861268505 175.49360230681373 C701.6406549673362 193.00158979340404, 702.4301335227485 213.08044876399973, 703.0034053585542 224.4596966126966 M701.3244904378009 226.71772875570736 C681.1549807139336 227.04921435504497, 663.2043446296093 224.19144343555814, 645.5172002204206 225.3990731332793 M703.8780968076278 225.97481351246714 C690.1159522867208 224.31356876254353, 674.7219109288708 223.8174454727081, 645.3149048302153 224.12596932926252 M643.6833803401572 223.73005047043438 C645.0260682583288 214.46116658558665, 643.4097537119085 201.27839680920079, 645.1046998617952 173.56001507469833 M645.9736518378388 225.82569745262822 C644.9659936955966 208.11843038507084, 645.5426121917917 189.35139585105375, 645.3897186450451 175.30689009235468" stroke="rgb(0, 0, 0)" stroke-width="1" fill="none"/></g><text x="547" y="205" fill="rgb(0, 0, 0)" text-anchor="begin" font-family="Consolas, Courier" font-size="20px">name</text><text x="674" y="205" fill="rgb(150, 100, 28)" text-anchor="middle" font-family="Consolas, Courier" font-size="20px">id17</text><text x="552" y="55" fill="rgb(150, 100, 28)" text-anchor="middle" font-family="Consolas, Courier" font-size="20px">id99</text><text x="679" y="55" fill="rgb(27, 14, 139)" text-anchor="middle" font-family="Consolas, Courier" font-size="20px">Person</text><g><path d="M523.6793175593044 25.880473663686477 C537.1193792215073 24.079446531091467, 555.6836287442003 24.204311138700987, 581.511712980269 24.73610267689318 M522.089964452194 24.598205986562288 C545.1936837896214 26.26305531482516, 568.5141469639966 25.20306136321669, 582.9477500966616 25.99822075036206 M581.2401157860882 26.4037778262937 C584.3303267195371 40.62570309977243, 580.7964726987825 57.47726345551827, 583.5273404957568 74.45822645575447 M582.8883690585881 25.293941486814184 C582.771466063564 43.50057862948307, 582.6725888513273 60.76049380788152, 582.37178870386 75.78583801355957 M580.2957436543044 74.97409856005822 C564.9309081749291 73.43676378649322, 548.6378134320662 76.50232049652814, 523.6820256640337 73.75796275657238 M581.8453957112682 75.83314933001037 C569.1345349936282 74.67071694132912, 555.080296834177 74.39784970551594, 522.1071354609913 75.06376468105985 M520.8006786601553 76.16272414784987 C522.8882933401575 62.075806057028686, 520.520014699597 47.62577875907425, 520.1859920398348 23.904012075397453 M521.1595522220906 74.82274709279972 C522.395213754377 55.457354467746725, 521.8432597447033 37.124039754362975, 521.7697652616192 24.36865038376358" stroke="rgb(0, 0, 0)" stroke-width="1" fill="none"/></g><g><path d="M636.5436450909431 23.041867335523033 C656.2013287871675 25.923403793693133, 676.723356161469 25.60032683690823, 720.195160437172 24.298479395150707 M637.9128593808642 25.34633389784729 C664.4183155618222 24.23390789606614, 691.9848775244424 24.488358192996056, 720.6285271000162 24.460108478429007 M719.3441955713196 24.361723370981714 C720.356296324992 44.1315656909817, 719.1458296211631 62.62298885653616, 719.9909900963565 73.48294494254982 M719.1167521234021 25.55241669968172 C719.7468186131767 42.72554903713952, 721.0410881844526 62.17233780937842, 720.8590485474631 74.87580284301538 M720.5003960618722 75.58485145178604 C696.4505789413764 75.58162099031085, 676.3168105102562 76.35281837333663, 638.4926052423672 76.61937361047254 M720.1807198353955 75.41969358574345 C690.4416602312762 73.81259700049185, 659.834630591029 75.03578725147584, 638.9158094254101 75.14044951972492 M639.4063001683261 73.00742296687721 C639.7697322058084 56.68560313213515, 639.1339575709768 34.92200389255206, 636.354481657146 25.603911871592047 M638.841381345672 75.05646813626682 C637.7885718870871 56.60074408061865, 637.5651025532475 39.13136612128131, 637.5648160996188 24.599187668212394" stroke="rgb(0, 0, 0)" stroke-width="1" fill="none"/></g><g><path d="M745.6348878813363 24.751226077433135 C829.6968456861105 23.511543672818092, 910.1066715090562 24.189980289786607, 1027.6735037966032 24.787967156786483 M745.5355059785445 25.487885474079768 C835.2359886544451 25.410043144028176, 926.0827022328451 25.025479586246966, 1026.566553372286 24.492571635958427 M1028.0284618288424 26.812532888017348 C1029.0413629598463 78.51235746166594, 1025.967720965915 135.80232558552288, 1026.734062009904 176.61173364872462 M1027.8822348493845 24.196448701155326 C1026.9219914203475 60.28351123093855, 1028.1024496057357 94.53291964197436, 1027.0904130967306 174.85273378451944 M1028.1915339765887 176.48391444491781 C919.6311729439008 176.71420549294496, 814.7740930515363 176.4402682182802, 744.2380239390051 174.8968403757076 M1026.4439290761109 175.45331791034783 C929.4240402208892 176.84055820605013, 830.0949478988473 176.85605780925835, 745.5781791687557 174.96089317281778 M746.1395590741126 175.1297620571135 C745.0357017390714 124.27334551876442, 743.0914141894207 73.09288944839024, 746.8303136055015 23.508786549463437 M744.0297905019739 175.2404077318582 C744.6824722234429 130.2698728689345, 744.0778206569853 85.07402127863651, 744.6933499200933 25.595361280829543" stroke="rgb(0, 0, 0)" stroke-width="1" fill="none"/></g><g><path d="M771.1401197053314 111.81713201740014 C782.7097019585549 111.09019134384171, 800.3306320815989 109.6716526340329, 829.392814838552 108.50701460103926 M770.7130011588782 109.52100729147568 C782.7077690339889 110.96373600040934, 793.553584685655 110.16474975053048, 828.9193291948053 109.29756172866176 M827.0186505786016 108.83351760539301 C828.8029493126774 120.16293001220802, 827.2575168041157 131.83819877183316, 827.6040502763443 158.78490603065163 M827.8782335919 110.05444930366522 C828.8928813862652 123.18525439856398, 828.9304948551901 137.21689282983414, 827.8485046178967 159.69580980839052 M826.7279302575181 159.39648690048574 C808.9819081311165 160.068648476522, 784.9217106972351 157.89624819183834, 768.5341096392827 159.72722637964802 M827.3730916567023 159.6095029409303 C814.7111200779091 159.98465049252667, 800.7203162925526 160.88011932094116, 769.8650003561859 159.36807177102398 M770.4406228440561 158.81482132789358 C769.1870038769961 142.24936474819648, 769.2239955130212 122.74004603388151, 771.3102631390466 109.40887003753738 M770.6939045038553 160.19206789115498 C768.7291101531282 139.9788603067749, 770.2982736192391 121.58141529350614, 769.6867766645254 110.67369653366552" stroke="rgb(0, 0, 0)" stroke-width="1" fill="none"/></g><text x="799" y="140" fill="rgb(150, 100, 28)" text-anchor="middle" font-family="Consolas, Courier" font-size="20px">id32</text><text x="799" y="97.5" fill="rgb(0, 0, 0)" text-anchor="middle" font-family="Consolas, Courier" font-size="20px">0</text><g><path d="M828.0077325152052 111.70154679121829 C846.4499105780658 109.04836802139702, 865.2638123097931 110.9609323546348, 885.8435282311519 110.65803789078359 M828.7002824140653 110.30728960039677 C847.0018114988414 109.38620538454401, 863.8314677937855 110.65527370814358, 886.0456196028716 109.7400460319339 M886.5704869084716 111.6275282787977 C887.304798990043 121.27251697410074, 886.1700481959499 133.57585464661275, 886.8407844707309 158.64169947419956 M885.5704323438853 109.57615021593843 C887.173584744881 124.96915314830363, 885.5345480569925 140.75185601115837, 886.2346197631097 159.89950700069085 M887.7476431448077 160.3043934698073 C872.920610482511 160.55374643815261, 859.129602050458 158.86397137918095, 828.784734400034 161.74939873806 M886.6359232378878 160.57958801016298 C871.9031259849253 160.18306933770742, 857.4409646546115 159.1818435364583, 827.8518786069305 159.9034151755867 M826.8835210818563 160.69320347276206 C826.5155444600587 148.89952614952907, 826.6242748727603 134.2735662383268, 827.6294385042623 109.65931531395057 M828.9741048051254 160.16550666381312 C828.784303234922 141.87491884011706, 828.667871410744 125.57594675244547, 828.3125392872132 109.45718267901836" stroke="rgb(0, 0, 0)" stroke-width="1" fill="none"/></g><text x="857" y="140" fill="rgb(150, 100, 28)" text-anchor="middle" font-family="Consolas, Courier" font-size="20px">id10</text><text x="857" y="97.5" fill="rgb(0, 0, 0)" text-anchor="middle" font-family="Consolas, Courier" font-size="20px">1</text><g><path d="M887.3386749985629 108.02310955315532 C903.3695713819095 107.70530006455724, 923.9829032654659 107.72226087670747, 943.7587714236515 109.62363581802475 M886.7991858924566 109.67999800633334 C901.81046622001 110.05289551210006, 915.5920067251404 109.65852777162326, 944.3836682555129 109.1231418071199 M942.1946466247389 110.35610644830805 C945.0747299046914 129.14075043727448, 945.3726486980759 150.04733662731684, 945.0432151719725 159.6965080558606 M944.2625790271252 109.27976960179284 C944.53136646723 123.47607183526205, 943.5137947904695 136.80245058479022, 944.8200725259248 159.8022654495453 M945.911184675188 159.35048041815253 C928.2123649037796 160.11337471053878, 912.5838479889508 160.8016751113623, 885.7598399865611 160.17484815901335 M944.6599213078108 159.78523297533673 C923.8547738007887 160.48673752478112, 903.3122089844371 160.65790367662402, 886.3769388697076 160.27930421351033 M884.9536325906984 160.56517197512485 C884.2730160804662 144.86682304759378, 885.6152809491944 130.13418519769405, 884.6999699429576 108.15998890187387 M885.3769923463702 159.2891540079993 C885.1957702405787 150.36665059109046, 885.7782271726351 138.75330971053774, 886.0362891896823 110.50783002097053" stroke="rgb(0, 0, 0)" stroke-width="1" fill="none"/></g><text x="915" y="140" fill="rgb(150, 100, 28)" text-anchor="middle" font-family="Consolas, Courier" font-size="20px">id90</text><text x="915" y="97.5" fill="rgb(0, 0, 0)" text-anchor="middle" font-family="Consolas, Courier" font-size="20px">2</text><g><path d="M944.0400450100421 108.40756398391996 C959.6581391173269 110.74536007570462, 977.3784411537563 110.6637913316588, 1001.2826372177448 111.01533941476467 M943.5697894473525 110.97557646849752 C959.1354270370055 109.60302641197283, 974.2718607527562 109.12595190313705, 1001.2554250827859 109.77087190214168 M1000.5747901251323 109.90519550905259 C1001.5497115309297 128.81690880690942, 1003.7109146319375 146.45682228733395, 1002.8814486155036 161.46217609327877 M1002.693615276369 110.43755430081048 C1002.4120097540615 121.97191549497873, 1002.0143752422654 132.25478432675467, 1001.3252486609041 160.68906109131865 M1003.4813781086107 161.1080104769572 C989.704147866703 161.55985067520334, 978.7064835425418 159.34130996798015, 944.144350185617 159.0998518922158 M1002.103005443717 160.80521867357294 C980.7826660983001 159.95521797915075, 959.5279483092168 160.2749666094723, 943.5170683739158 160.0561221524878 M943.8949738442582 161.40955784674773 C942.5002165009932 146.98971536787514, 945.1505710232257 135.51140454762347, 944.5848884751147 109.75292662089365 M944.3624740132539 159.38703711866762 C944.6946964334305 145.1048155621681, 944.7809046339277 128.11989702022143, 943.5224026899589 110.9121128513888" stroke="rgb(0, 0, 0)" stroke-width="1" fill="none"/></g><text x="973" y="140" fill="rgb(150, 100, 28)" text-anchor="middle" font-family="Consolas, Courier" font-size="20px">id57</text><text x="973" y="97.5" fill="rgb(0, 0, 0)" text-anchor="middle" font-family="Consolas, Courier" font-size="20px">3</text><text x="775" y="55" fill="rgb(150, 100, 28)" text-anchor="middle" font-family="Consolas, Courier" font-size="20px">id84</text><text x="997" y="55" fill="rgb(27, 14, 139)" text-anchor="middle" font-family="Consolas, Courier" font-size="20px">list</text><g><path d="M746.7477407789225 24.425398656258892 C761.0024065338881 25.073534072768247, 774.5075899446088 27.07661932105944, 805.6027698561328 24.752904992225332 M744.7054402739016 25.154116344755657 C763.3105956229658 26.212466045209005, 780.7957106281663 26.103628298586216, 805.5817137511228 25.206985372413268 M803.4472052638274 26.306139466165078 C803.9039115420384 40.639118063371356, 803.7048905411292 57.350648375365225, 803.5795504121758 74.57276348570889 M804.7042202433024 25.304114473371733 C805.488717528979 38.58392262169566, 805.868427697388 52.34521339768236, 804.3044228078007 74.1165651078958 M804.3817599484222 75.91244838535053 C785.4917977928474 72.84711957404139, 764.6861977654174 73.15054664793485, 746.6846023989442 73.45638555253473 M805.8596986637881 74.70243197503937 C786.4951793836884 75.23997856267796, 765.4211219562084 75.01713556956742, 744.4285035778865 75.57001030641992 M745.914695001408 74.34205851550577 C746.8379727189033 54.74332440266379, 746.425744250829 37.13290556143504, 744.6909991702043 24.64011800813821 M745.5262416233084 75.39827457458422 C745.66813028094 58.34255100316182, 745.6738320330975 41.18139014093619, 744.6750310580975 25.998997976886024" stroke="rgb(0, 0, 0)" stroke-width="1" fill="none"/></g><g><path d="M968.5951836184616 23.056342206971216 C987.2920038551958 26.018518629566465, 1006.3515575408703 24.632333589704984, 1027.1514314582607 26.076556302272007 M967.0363144588517 25.743415557631714 C983.7885123915885 25.938181031287748, 1001.7934337771829 24.807218798768684, 1026.7922547260785 25.947165002122556 M1027.2053023547155 25.97000742782795 C1027.306911738585 41.631511129179685, 1028.7105117612923 59.29983319960616, 1028.1591298397834 74.7600398489437 M1027.4637310094583 25.76180043334168 C1027.7123055809518 42.04835411727187, 1027.2357041366258 60.44869379038654, 1026.2475320852707 74.19206935348106 M1025.6432902955487 75.70142168294251 C1010.5950536065267 73.9841488764112, 993.432160755248 73.53527572025918, 968.6688847392786 73.86048839325784 M1027.0886643636309 75.3385828054584 C1008.19308645584 75.06764829391959, 990.7980547106187 74.88797499273984, 967.76547040425 74.6685943649622 M966.7368942838518 73.57607367907214 C965.4770957488806 62.46720176045265, 969.0586947673986 53.646761085710295, 966.6254865947832 24.674587190357183 M966.494429693579 75.09284697225597 C967.8468603207637 57.58624458691203, 967.5847788787352 42.056441222839226, 966.3936367843817 25.0940976258276" stroke="rgb(0, 0, 0)" stroke-width="1" fill="none"/></g><g><path d="M1050.6578795747089 24.234280730449345 C1105.1785335958255 26.630232764397192, 1162.239178619548 24.078004010032295, 1252.1156169574274 23.359137834215176 M1051.9946399844573 24.17262071293978 C1104.2886740284496 23.941590397415425, 1156.828042602424 23.76479257145064, 1252.0855194201204 25.40191735431911 M1253.4288048666137 26.221924196672248 C1254.387371624275 59.12429491177356, 1254.322521302364 90.11541577916657, 1252.083263458126 155.18680066052497 M1251.8249369835087 25.16326766139469 C1252.1085649817726 51.19231138975963, 1252.8417040875586 78.54776187246776, 1252.6771607638505 155.36373657515315 M1251.2674554300077 154.04592292421634 C1183.492396739922 155.22375884673022, 1112.7688110316285 156.4853091899526, 1051.8306900010462 155.5133180142015 M1251.8715867155622 155.21636069398681 C1209.7919536267893 157.17799018711534, 1169.0142309031826 156.74323779328554, 1051.6710910690538 154.5123610077635 M1052.5594697201147 155.17604866925623 C1054.1940696386341 117.93363098325692, 1050.6728203323933 83.17499378593867, 1053.0344341036646 24.42156642214222 M1051.4718003352218 154.05900780207577 C1051.6291151026128 114.2994698422141, 1052.0249189849828 72.31452203263488, 1052.7124536559813 25.774998530280108" stroke="rgb(0, 0, 0)" stroke-width="1" fill="none"/></g><g><path d="M1047.1560929852485 18.809327723354922 C1125.6727160784676 17.48586034669758, 1203.3489869216955 17.592598532998622, 1258.9421077251995 19.437755236322573 M1046.8660033431784 19.036437532817047 C1123.9407845192193 18.34342060625901, 1200.4414880176519 19.960141432047966, 1257.2290672388358 18.3831508715768 M1258.6436988809035 17.752565833535243 C1260.0707031770175 49.18949515780763, 1257.083200208274 80.50388078422333, 1256.0093544143745 161.60866316666497 M1258.063713363071 18.999181854209485 C1257.611031739493 51.26645350045649, 1257.2624926136616 84.78353967410155, 1257.5658023765468 160.00512782599088 M1257.2775827173175 159.8561141204712 C1214.874657302991 162.54412033966972, 1168.5664166739355 162.2287353533036, 1047.6452125658 160.39921836305402 M1257.1632294818198 161.36988468197427 C1196.3392567828353 160.8894324014661, 1135.48694699379 161.24756217119057, 1045.7971985640327 161.10891820841263 M1046.5792258130377 162.14350349271407 C1044.7192500277638 130.10873016498667, 1042.924444038961 98.43470449076666, 1047.5775470211736 20.264957494273595 M1045.3495500329752 160.08373117214117 C1044.6549693165646 115.12269648793013, 1044.3827516355227 68.0251395449877, 1046.4615928717465 18.35616343448595" stroke="rgb(0, 0, 0)" stroke-width="1" fill="none"/></g><text x="1152" y="115" fill="rgb(27, 14, 139)" text-anchor="middle" font-family="Consolas, Courier" font-size="20px">1969</text><text x="1082" y="55" fill="rgb(150, 100, 28)" text-anchor="middle" font-family="Consolas, Courier" font-size="20px">id19</text><text x="1222" y="55" fill="rgb(27, 14, 139)" text-anchor="middle" font-family="Consolas, Courier" font-size="20px">int</text><g><path d="M1053.6682548037315 25.51031132133035 C1072.7518595656798 23.703824193213656, 1090.9067479978296 23.994153936985153, 1112.3210946987801 24.274761152301924 M1051.481400914414 24.45684951429893 C1068.6998761831635 25.309328059168557, 1085.9726444400364 24.47599809856717, 1111.4153472687603 25.02059433678308 M1110.5184180165838 24.437653227869294 C1113.5626056215544 36.927749504545595, 1111.300235564687 48.848950402553236, 1112.1217550839394 74.48889827283514 M1112.2596505668469 24.395609215476007 C1111.1205482079006 40.37561054510788, 1112.4459292143724 57.697798514855336, 1111.726280263725 75.42903052492395 M1113.2831453277136 75.86966712354365 C1091.4523549218059 72.91022316721359, 1075.6275414976474 75.36851842300952, 1051.036830043713 73.12921184437548 M1112.755022649104 75.53372762413747 C1098.567797333583 75.03914555801838, 1084.6732290974264 74.86643541980166, 1052.3842784503095 75.58154493042915 M1053.8468794936557 76.85097590856132 C1050.915819605773 63.99755165348316, 1053.3158042675009 55.638821139977566, 1050.3144166216775 24.282314593318638 M1052.9179574827465 75.22855290368473 C1053.0010731827817 59.7106061249915, 1051.0204647281546 44.110621853631216, 1051.7127068676364 25.33656047212929" stroke="rgb(0, 0, 0)" stroke-width="1" fill="none"/></g><g><path d="M1193.2195401026206 26.50604283712066 C1204.2433182218306 26.746322826346553, 1218.8956241035764 26.254336161459932, 1252.864275829746 26.428439962421486 M1191.8735634986356 24.122741882978577 C1206.249742829326 24.964133346477755, 1221.3779560605253 25.36724576047888, 1251.3806792301657 25.120691175125348 M1251.7374923209918 25.212566398935877 C1252.5292503174792 40.631066157336235, 1253.4743844869356 58.38524532290887, 1251.1553875473317 76.21014892655296 M1251.058503621888 24.419388099058764 C1253.3653592026037 41.81547548790288, 1252.5982510183505 59.429375777874625, 1252.2514628962663 75.51360763423459 M1250.5633893270006 75.91478025526612 C1236.3860734997943 73.5623969665953, 1224.5631139527811 76.31096610625306, 1190.7145519722083 73.08819097531222 M1252.0304070589307 74.43399709397139 C1229.6568902579654 75.17600353626666, 1206.5093304297875 74.28653735913207, 1191.6781052612694 74.50622909365386 M1192.5267472317814 75.8703545959175 C1191.0913252556106 55.99844308075337, 1192.7277202328237 37.274817128282486, 1190.1170479624634 23.140367010815297 M1191.00593167366 75.95651955238559 C1192.4472652602203 63.40730081800999, 1193.1979193344223 53.071829901757226, 1192.538515487747 24.390593115489416" stroke="rgb(0, 0, 0)" stroke-width="1" fill="none"/></g><g><path d="M285.388799508282 348.5085106321111 C341.7798176872455 347.1929033154081, 401.3621965180771 347.0823693633814, 484.50471876758735 348.6725471704928 M284.3806093034925 349.3766438206481 C358.18489220146654 349.2332222776646, 431.41515138811366 349.3934823311263, 484.97796195042565 350.60431538923535 M486.8339640855546 348.8985022378577 C484.10896158554783 385.97770295308226, 484.9550822814475 422.96428822219775, 483.3061517676862 478.7359178427123 M485.07684243779687 349.8910843311213 C484.8443239579746 383.6639474239529, 484.66114775265333 416.565685848096, 484.20439283224374 480.67865038903204 M484.7514299038602 479.10286483628965 C437.5569786647016 479.79955663065914, 390.72043280072324 478.67970162164653, 286.69835364037846 480.65187503297034 M484.47476868857876 480.8994993708143 C406.9687194224558 480.2081246514079, 329.66382065928855 480.35158900518496, 285.82667188845807 480.38135154835396 M283.4188966379272 479.1864896882968 C286.6574615642023 450.1544247327794, 284.696274111561 426.12428489242154, 285.51606885547034 348.0317322457705 M285.58341250400014 479.8179393450331 C285.63682998673045 441.3257718203654, 286.3633572420022 404.12927217499055, 285.7867557273643 349.98005155241583" stroke="rgb(0, 0, 0)" stroke-width="1" fill="none"/></g><g><path d="M278.64803019388205 344.21384333513015 C352.4445970130289 346.6825872928921, 427.55153552561546 345.9235957252659, 490.6196451090546 344.6398741893674 M278.85361012383686 344.2226244244379 C344.85621340705296 344.80987450582336, 411.8837579678105 344.26604059193704, 490.37537535926134 344.3266419627741 M489.8586844713902 342.2796775402982 C489.9620857938442 385.3544060672918, 489.6794783268825 428.8902190318598, 492.54474583943266 485.38523415397043 M491.34588675828303 344.62254250913895 C491.66417248490677 400.4757673541991, 491.55773739521334 458.30810697173547, 490.40550160715736 485.87468044563184 M492.2372404836471 485.78192781005055 C447.8086221212884 485.1196823319036, 404.6999643800532 485.255419871061, 278.5016877867402 486.9217968331149 M490.38358016439076 486.8543337553821 C421.4203597049503 484.37811937949556, 353.1062567524691 483.6361549933819, 279.18631723691044 485.4440862835664 M279.96761544889 484.9698035033095 C279.99992313293325 452.47463107640385, 277.67450575837114 417.96125407778754, 277.14026846293547 342.19828133789827 M278.8250807749291 486.42770520358647 C280.80074488407536 457.126861325026, 281.11029699653653 427.93567566088205, 278.42006292271213 344.9994880133878" stroke="rgb(0, 0, 0)" stroke-width="1" fill="none"/></g><text x="385" y="440" fill="rgb(27, 14, 139)" text-anchor="middle" font-family="Consolas, Courier" font-size="20px">True</text><text x="315" y="380" fill="rgb(150, 100, 28)" text-anchor="middle" font-family="Consolas, Courier" font-size="20px">id32</text><text x="455" y="380" fill="rgb(27, 14, 139)" text-anchor="middle" font-family="Consolas, Courier" font-size="20px">bool</text><g><path d="M285.62886148581214 351.59443247522694 C299.63843084960223 350.276433775252, 313.2212107410938 351.7393487401915, 344.33868889307075 348.5784968097271 M285.74371506600386 350.51728533750935 C307.8262931819011 350.31973975371096, 329.6519726586573 350.2602650667297, 344.26329734204074 349.4556317290633 M343.4742613583575 350.3536979813737 C345.5036941635719 361.48242528614605, 345.6966221465824 374.2443877961379, 343.1179599615814 400.1473679025366 M345.61256899424774 349.1901050147886 C344.9629145151425 367.4892011939823, 345.9751473433875 385.1524261953614, 344.40866774019463 400.4961318689824 M346.5792421716235 399.2421322564707 C331.02278557334694 401.5408897464709, 318.58767715671246 399.8871734490865, 283.7160385187113 401.27334620170643 M344.18240491769086 400.60031565112575 C329.86316397531397 400.98147312125917, 312.6267708218855 399.3894788274716, 284.61222195948756 400.97371831106193 M285.5773752674419 399.8909958880749 C284.0431019067187 388.973207304389, 287.12693749091324 380.5007572034581, 286.04011800084356 349.64040901225707 M285.5211735186778 400.2694717152613 C285.04286802201193 389.33066655393196, 284.71509570300327 377.24566426107316, 284.3206529317924 349.62594102484775" stroke="rgb(0, 0, 0)" stroke-width="1" fill="none"/></g><g><path d="M426.3339114891064 351.75640847484794 C438.31289337986203 349.6516561030272, 452.92675913828685 349.9866465929323, 485.133430620829 349.33234468257115 M424.95529691852374 349.08219381642743 C447.7800294006917 349.25270269699337, 472.3420462484877 349.01541002074026, 485.5235276550745 350.25018679402285 M484.5970266489826 351.531458042333 C482.80958308388676 365.77834491226344, 485.87508315987685 378.01350965605053, 484.91100174988975 400.71031811951616 M484.7779834362138 349.0899523505844 C484.5148532663533 367.4648317754655, 485.7537805373211 384.5347485362106, 485.570783394819 400.76979379248917 M483.96233234184103 400.9496572712374 C469.7044231748517 399.634877337652, 454.46733773130507 400.2256807824049, 425.2127122893161 400.23213942585426 M485.24612633599645 400.9421522880055 C472.84417774567163 400.3369266687541, 460.11273548631203 399.12976032710856, 425.7993332776259 400.4939182502316 M426.7907910437309 398.6778971138959 C424.9101228620027 386.8166681901561, 426.1817213716652 370.7156363406383, 426.29647123094463 351.0677443690812 M424.02084947070426 399.61890137662033 C424.788116270843 389.80368944964, 425.487795683247 379.877119315332, 424.36831817336287 350.4177382472269" stroke="rgb(0, 0, 0)" stroke-width="1" fill="none"/></g><g><path d="M523.7014602473727 349.8948022622723 C572.3338174073411 349.86901010023945, 626.0438102647488 347.6170883253559, 722.1652823692232 351.64399009455167 M521.2416694287673 349.85593064823394 C562.841579810743 349.9878113013436, 605.5994905477584 348.3347140502266, 722.55697172343 349.19786174958716 M720.9329373832874 349.62144257272695 C722.9076476817534 384.63120512649084, 721.140008278519 416.8475557942754, 721.8228802155256 481.4235148557136 M721.101591328163 349.49813372305863 C722.6988216640126 378.2829383175519, 722.107090930755 405.1091696541374, 721.7804662499348 480.41687451800686 M722.6112996089519 480.0278975560841 C663.872439334843 481.3051385047546, 606.6586503150374 481.3185380136503, 523.2499068478014 481.10919295926516 M721.8081608383923 479.8138067025076 C645.0192311943742 479.4076178903437, 567.503344967828 478.27191753422, 522.2790964973884 480.19194067819933 M522.5661688099843 479.67216800272587 C524.3419842629203 439.6122989648654, 523.5790193819973 400.61905439040004, 521.7657039489775 349.56104867067074 M521.0942347044819 480.4342648888223 C520.4993016846666 446.9662038069146, 521.2672436135567 412.97455251708635, 521.7530624282981 350.07146387704233" stroke="rgb(0, 0, 0)" stroke-width="1" fill="none"/></g><g><path d="M515.0954441311826 344.5984213186015 C570.3185522559763 343.15855785636467, 624.1438521508804 344.33093111669996, 727.9573050064685 343.2969902395987 M515.7276565747992 343.24368807353926 C590.4126505610444 342.99422464246703, 662.5938502423747 343.53912439704135, 728.5695668024998 344.1356171437998 M729.3080144738 342.82908114486094 C728.0336499320501 380.65374172219936, 726.7063956295616 415.14165275416406, 727.2061315409633 486.7944455060493 M727.1330097310979 344.4877194825181 C727.8780280117971 388.210415289165, 727.9165185760685 431.09881683850625, 728.917625472999 486.08981788033935 M727.107230958366 487.3861558715974 C671.5300929402457 485.7447899994593, 611.902354815106 488.0635383142772, 515.5569362793789 485.56227369031683 M727.7668839700821 486.437884683355 C660.6439533088477 486.95746344107454, 593.1921171386634 485.916609872704, 515.8390270736534 486.3266050756186 M514.9081705295403 485.0298980995649 C515.8649886064788 431.10871719427, 518.6701173987954 377.4160512428002, 515.021530976576 343.39794927501066 M515.1250450380329 486.3313670364066 C515.7958198959317 448.5903441935572, 516.8760446949593 411.71254478106414, 515.8947358077851 344.54258382757456" stroke="rgb(0, 0, 0)" stroke-width="1" fill="none"/></g><text x="622" y="440" fill="rgb(27, 14, 139)" text-anchor="middle" font-family="Consolas, Courier" font-size="20px">"David is cool"</text><text x="552" y="380" fill="rgb(150, 100, 28)" text-anchor="middle" font-family="Consolas, Courier" font-size="20px">id43</text><text x="692" y="380" fill="rgb(27, 14, 139)" text-anchor="middle" font-family="Consolas, Courier" font-size="20px">str</text><g><path d="M523.3854815412195 349.22395779014676 C541.6702644045772 350.55037258699457, 560.4877170557988 349.73097428583566, 583.15348900886 349.44139806955616 M522.1548745355153 349.6544173647915 C545.5239104836796 349.792975664674, 567.7068845364979 350.212007600221, 581.182553805997 349.0268432437752 M580.823627294967 349.7355431058805 C583.7011498910089 368.4849611905298, 579.9036180391588 382.2541170016224, 583.1879929322612 399.7224062283931 M582.8424402775541 350.61550801089066 C582.5623004832266 363.3440262991133, 583.1613241760465 377.73964258775237, 581.5658400506471 400.66529394452084 M582.5654946188223 398.5988762492246 C562.4028012149167 401.12658997435585, 540.0185387500857 399.0315267777408, 523.2520556844802 401.77768768177555 M582.6144618191759 399.490700784745 C564.9430133984079 399.3683017315013, 547.0168317794175 399.61603224061787, 521.778083003945 399.95284037820704 M521.1007714381285 400.5659954125546 C523.1158772646546 387.9859516085332, 521.050036574476 374.1391808506201, 521.1831982485439 349.36923626102373 M522.0163254441886 400.66355974500675 C521.4121794639061 379.5351165418682, 521.4498075897623 359.9186703077199, 522.8675934578076 349.90220475029776" stroke="rgb(0, 0, 0)" stroke-width="1" fill="none"/></g><g><path d="M663.49724790438 349.47368940910457 C685.2050589881122 351.54129262057336, 706.4078634260856 351.4286403699626, 721.1617864789246 351.9256050344395 M661.9707121071253 350.92812830743253 C675.8009292556385 349.0977520091924, 692.5241811855052 350.2106952448202, 722.3907839071068 350.60990732015966 M723.350612983611 351.60981336893786 C723.194865724544 359.15856327492753, 720.6061037802788 369.4607027530695, 720.5173670976179 398.7026777842994 M722.4913465099568 349.8918186420877 C722.3889785145587 361.0423126026599, 721.3282174647297 371.8527040834983, 722.316093976296 400.2938331482113 M720.7847363579182 399.5860453646215 C703.7839749963689 400.227058260321, 680.5612428262674 399.8615133904686, 660.5791851823528 399.47816038953516 M721.9227658593633 399.43081867439327 C698.892201340161 400.33204853775993, 675.6632476902918 399.6677894670657, 661.0469549796147 399.9432170093479 M661.4276832024543 400.8025075208088 C663.5177415668342 383.6142403642677, 662.9236110704024 370.3084842523893, 660.9253594571506 351.67089186461044 M661.1611310165437 399.52489434628507 C662.6225000172515 381.04207901314993, 661.89436350391 360.5956126350296, 661.0897953009332 350.2635632093898" stroke="rgb(0, 0, 0)" stroke-width="1" fill="none"/></g><g><path d="M757.8942180032169 348.7804750546312 C814.2431177691835 349.7497758089192, 869.8623225291273 349.55047872823496, 959.6409547471263 348.2087554166198 M759.2125261391873 350.6590415042461 C808.1174172155552 348.5493792410299, 857.6202711049909 348.13346866582054, 959.0139506221578 349.59796536171183 M959.658959180873 350.0577777866761 C960.6567317275214 388.80839033046055, 959.6559410099504 426.22521983917443, 960.0527613177808 479.4697798239977 M959.3073496253787 350.7536923544375 C959.9102616948352 382.34009428159163, 959.6153756914582 415.968656752219, 959.1825155204313 480.5902455842403 M960.6699937868974 481.70180039192945 C889.3796819016655 483.2124704907657, 821.9302440751145 480.49131576537843, 759.1995529175201 479.55050859241055 M958.3009147533969 480.8244571658087 C913.3807885882582 478.22148739859745, 865.6213245461014 479.1153153167629, 758.7678677312094 479.8514341290858 M759.7169322074791 478.2538734352707 C756.5387883130343 427.6535401582895, 757.7115486468458 378.7582725726546, 760.5974555055801 351.0171049653701 M759.8215311690171 480.0656548440472 C759.1955516142432 434.31159199688517, 758.8846102877286 389.5106436762801, 758.7575180871934 349.5072829709239" stroke="rgb(0, 0, 0)" stroke-width="1" fill="none"/></g><g><path d="M752.656935499622 345.1241695555975 C834.0471571761158 342.8151491944756, 910.5538323456581 343.80636003287566, 966.4970658585294 345.20899098209577 M753.7546606371855 344.21102513593326 C810.7102123307073 344.73170910246137, 868.4944636981942 344.08419098547085, 964.8671253982786 343.9877686802096 M964.7002894760078 345.84822130300284 C964.6888294053923 383.3927491658841, 966.6767152861108 424.1379063906695, 964.5204415314128 486.2101805558381 M965.0951106789518 344.46277397387905 C963.5132192903512 400.4775624057911, 963.4606546724799 456.05871174668937, 964.0981312505887 485.6732295335005 M966.0451733301782 484.90493231405026 C885.7198972124714 484.47286626194324, 809.6304896651828 486.303732135762, 752.055160033209 485.76748083511734 M964.4232485920771 486.5790544886726 C914.882550180477 485.94444977795473, 865.0217980953639 484.94212167459114, 752.5779016504134 486.87272618113855 M752.921943211398 486.84406857282386 C753.7165475492972 452.4545812020024, 750.705394436098 416.7586995754357, 752.6528050576804 345.9142654276789 M753.3445384157347 486.2446778339075 C754.296185737443 456.79102332868604, 753.7597961834922 428.2489308516334, 752.7568712110959 344.4368437487987" stroke="rgb(0, 0, 0)" stroke-width="1" fill="none"/></g><text x="859" y="440" fill="rgb(27, 14, 139)" text-anchor="middle" font-family="Consolas, Courier" font-size="20px">"None"</text><text x="789" y="380" fill="rgb(150, 100, 28)" text-anchor="middle" font-family="Consolas, Courier" font-size="20px">id13</text><text x="929" y="380" fill="rgb(27, 14, 139)" text-anchor="middle" font-family="Consolas, Courier" font-size="20px">None</text><g><path d="M757.6285875342387 350.771653503278 C772.4448133682632 350.31704258891335, 785.7692161280901 352.19626798149045, 818.2814864333095 349.3945851210509 M759.3640506154867 350.3156656091814 C774.4391995268924 350.91079793395016, 790.3522117333561 349.4915022364746, 818.6412991179697 350.0223185849629 M818.005842278022 349.1138596125287 C817.5313179863266 369.33863233044593, 817.9354410172639 385.72663333417887, 819.836624394057 399.1824312044756 M819.569331955923 350.43080233458755 C819.3680943158921 370.81982940756257, 818.2177961395602 389.77462242234736, 818.4165792516815 400.5691656111425 M819.8717537459503 399.6570936907577 C799.4141156726911 401.5840467669273, 776.0858301426472 401.818334911728, 759.319339845889 401.20599158792595 M819.7490819192765 399.318963126934 C795.8604812211038 399.607068181698, 774.4226840750418 399.48629928420553, 759.131777574195 399.8221542525803 M759.0659098545682 400.39744235628524 C757.3141083461751 386.51102311923216, 760.0682302163066 368.18093629174206, 757.8624122852611 349.6996562291863 M758.2787410513525 399.1027559566192 C759.5415506177338 388.33499385153806, 759.3774846002203 378.0744123681426, 758.0132179610339 350.80528585945484" stroke="rgb(0, 0, 0)" stroke-width="1" fill="none"/></g><g><path d="M897.5263435687941 348.57052921285486 C915.9285027671675 351.84090214387373, 936.7045265340321 348.03762019165106, 958.5798191699399 351.28917537247185 M899.6507214059042 349.2850605337734 C918.4788464117709 349.87022847027237, 938.0491946580916 350.3691685972534, 959.5958621043159 349.7742688668747 M959.6481358737968 350.55804976105037 C959.3191202488598 363.04773396080316, 957.6564072967751 373.44962274696, 957.0764195856032 401.36233545014596 M959.8434706434987 350.7857836829764 C957.8700214451131 363.68649267628143, 957.6810171084686 376.93568757149933, 959.3356947945139 400.74775428565664 M959.6336643397968 398.94869712947366 C940.0857249522983 401.41371726999, 924.7262745025441 399.1914534943938, 897.8153000299283 400.3739828619441 M959.6192069621463 399.636655881272 C937.3545440226917 401.07215450140984, 914.5321876044896 401.34986498856057, 899.4183719190253 400.1951834721236 M898.6887277811843 398.9452520701512 C897.4656022754757 380.33262745906245, 898.5540148714007 362.6643379707967, 900.3092709140666 351.41167243662164 M898.0427681752211 399.88874224115597 C898.8832085056104 384.48919699331975, 898.8047863289313 369.82458823616753, 898.3714230311544 349.484009679742" stroke="rgb(0, 0, 0)" stroke-width="1" fill="none"/></g><g><path d="M285.8942203091692 515.7410147824357 C353.8190176020061 513.839353887822, 420.9312690813561 515.7319906110963, 566.8626138699326 517.755683663246 M285.4211850796852 517.1689707261218 C357.44589298237815 516.6342667214595, 431.8080753448106 516.2175858510774, 567.3989942678242 516.7640496750082 M565.2783104251462 518.5627877513292 C566.0391814538339 562.3068243582452, 569.0982824313127 607.2241016058003, 566.3624294991253 645.7752367830329 M567.2764901160613 516.4929658338767 C566.4019324467397 560.4933825442117, 566.0615083667515 605.0064761565337, 567.0051557973372 647.5090361503569 M568.3515241495112 645.9832137949033 C466.7060514540072 646.0665392650947, 366.39948844326364 646.4948010630975, 283.6112925630999 647.9617338321569 M566.4803335830248 647.0477545530923 C501.269911439659 644.8209252832132, 434.7902422146029 644.4078740011338, 284.80242223015074 647.1680100072747 M283.60130016322023 646.5914921506055 C284.41744252113665 611.4793315514248, 285.67349468615043 575.7767198282596, 284.14250646521907 518.0989317604958 M285.0608631769393 647.8281235124672 C285.1872780850763 615.3927889463135, 284.8542886139784 586.1619733248059, 284.46355475039167 516.9071773442737" stroke="rgb(0, 0, 0)" stroke-width="1" fill="none"/></g><g><path d="M310.2610192377717 582.6334665851765 C323.17612429922383 582.5630802904979, 335.2248763460385 581.0822725763968, 369.16727962612146 580.4550421798309 M309.70390199954323 582.7279782536848 C328.3729316339831 581.1040675254011, 348.2492007579515 581.7904240703555, 368.9053897932594 581.5582410726408 M366.7476607692046 582.1669675818407 C369.95953142394296 594.155186236942, 368.5787582573587 608.5038090590133, 367.78798602239937 632.2560703696678 M367.6782768107086 582.5997210992432 C367.4166320006779 599.1049879394535, 367.2392028857589 613.809197502686, 368.98760266523425 632.4260083083776 M369.15328310753756 632.8280894823736 C354.7563632305034 634.0077881352007, 340.27419766448594 632.4226294935937, 308.0512287110091 631.4253164034303 M368.954125156157 632.8375521759139 C348.96068639826706 632.5952532506611, 327.55003188072 631.2215805289303, 309.4350295377846 631.282541093761 M310.7481811239765 632.1023271701999 C308.4295793784371 613.0512409442654, 311.18529469141953 596.5358517741165, 308.217886337279 581.5495922284018 M309.1929839768102 632.7425993626988 C308.9769597499069 613.146211171669, 309.55597441815496 595.3227505360139, 309.8079257985445 581.3980832491292" stroke="rgb(0, 0, 0)" stroke-width="1" fill="none"/></g><text x="339" y="612" fill="rgb(150, 100, 28)" text-anchor="middle" font-family="Consolas, Courier" font-size="20px">id19</text><g><path d="M368.2639481050251 583.1863305106252 C382.5574381958144 584.2665768616885, 400.021962295811 581.5955370746882, 424.7627878425628 582.5997685284553 M367.3453942787394 582.2917169374803 C386.9426099513876 582.4150627507214, 407.5256429556048 582.1115886946318, 425.7823866090768 582.9422125375262 M427.71792054039025 580.7888242843693 C428.05264081207144 596.8869245576592, 424.28033242093875 606.6609772729839, 427.5137428725035 631.1996577548106 M426.00500874497493 582.3160388762034 C426.6622163683718 596.1992484239237, 425.5276129558187 610.0831946878824, 425.2026793337367 631.2048363460464 M424.6616975165138 633.505345694835 C408.5690042420072 632.2386987023344, 390.9710659783685 633.0405923033686, 368.0853159624452 632.0133651510123 M426.07499255746836 632.4066103037004 C413.61522639501595 631.8918188453666, 401.29896187278194 632.1868782713726, 367.05514930571127 632.6948750024432 M369.15032535732405 633.5709484693048 C366.29312357144727 617.8170815773055, 369.36253653499335 603.092924267353, 366.2163155358572 583.0002162620057 M368.2790146852967 631.5328872768723 C368.97371292614577 612.4046609451761, 369.2482546041461 593.6333199315573, 367.37336343155135 581.1927405112937" stroke="rgb(0, 0, 0)" stroke-width="1" fill="none"/></g><text x="397" y="612" fill="rgb(150, 100, 28)" text-anchor="middle" font-family="Consolas, Courier" font-size="20px">id43</text><g><path d="M425.8604955056203 581.5549298598445 C449.487397802066 583.3363981523988, 470.65342534404135 581.8373749073933, 483.59600180447995 582.2960141245665 M425.7113313349226 581.5720411633254 C442.6997617756516 581.2395460103934, 458.9031865164805 582.0360272391656, 483.94573970755255 581.9605831069875 M484.55393944285333 582.6229558951114 C485.94264506404585 601.3192260363613, 484.62837879313963 619.7134824246007, 485.00207023906444 630.7495041696799 M483.6061990551526 582.0231935680681 C484.634999532043 599.7879666199623, 484.81074179112613 617.3827801037355, 484.7137588371851 631.087862112 M483.1624621758133 632.9639257137874 C465.71166422462557 631.2404591641041, 445.67548994514897 632.651753847014, 424.0407723815707 631.2465276499618 M483.7076370898197 631.1697141763422 C468.3728243002752 631.4588685036063, 452.39615829464117 631.3655321725129, 425.075740246783 632.8355231098343 M426.02326823417945 633.1776037652769 C424.68661910710927 614.1371788546627, 424.36078827889565 599.7566162399085, 425.6101493547473 583.6399098445797 M425.26499110326387 631.1659591987576 C425.91584987615875 618.4126705051947, 425.74443562315395 603.8815179979646, 426.05999779758764 581.3010755712805" stroke="rgb(0, 0, 0)" stroke-width="1" fill="none"/></g><text x="455" y="612" fill="rgb(150, 100, 28)" text-anchor="middle" font-family="Consolas, Courier" font-size="20px">id28</text><g><path d="M485.0982360845815 583.282295240235 C500.71449431238716 581.1693077123736, 515.1333332136431 580.8537501060663, 542.5778392083889 582.9967890012601 M484.29165657085036 582.0290665583295 C503.5721162667011 581.4969128524814, 522.9231153688164 581.7113248067711, 541.1117561415757 581.0732363671664 M541.3437836937404 581.0401428116024 C540.2308263310322 602.5783655453549, 540.1852939532098 621.7012749087422, 541.4163493338679 631.4491627363157 M542.260546287111 582.3186807773963 C542.2323712899644 596.0590470672512, 541.513643039523 609.7867949802041, 542.210689552018 631.3588235699897 M543.65245398603 630.3612996090762 C525.940157059589 633.513062787899, 514.202912840941 631.9479675105806, 485.3475356244997 632.3427277313128 M541.5532527468753 631.2619857677332 C524.5364501869043 631.8022333121773, 505.2382342129821 632.0633962622576, 483.1793048931882 631.6851339914783 M484.9323297726505 630.3494058526542 C483.1104913063145 618.4797899493377, 484.14112863515004 600.0450919596813, 483.4015284729128 580.1565400912402 M484.03895658338126 631.9138911880731 C484.5696016552073 612.1604496687331, 482.87316557172903 591.30563230216, 483.63298828896393 581.8700638283038" stroke="rgb(0, 0, 0)" stroke-width="1" fill="none"/></g><text x="513" y="612" fill="rgb(150, 100, 28)" text-anchor="middle" font-family="Consolas, Courier" font-size="20px">id49</text><text x="315" y="547" fill="rgb(150, 100, 28)" text-anchor="middle" font-family="Consolas, Courier" font-size="20px">id82</text><text x="537" y="547" fill="rgb(27, 14, 139)" text-anchor="middle" font-family="Consolas, Courier" font-size="20px">list</text><g><path d="M283.8794277193827 515.1581816237809 C304.52483280913526 517.7849047367869, 326.3541548728355 514.8567205687236, 343.44519817871503 516.3262430924083 M285.2479124350612 516.0679068378698 C301.443526841822 516.2189268379796, 317.2971767268996 516.1894277864519, 345.59457370220315 517.5532377033808 M344.0923620976624 517.4592931583592 C342.96300262425785 536.0284949610206, 343.41649374440607 554.6468990235978, 346.25137483775416 566.16199317786 M345.58950628696596 516.5502448121833 C345.8172294369934 531.663537518809, 344.66385625678237 544.612260728092, 345.37314555141063 567.4169648870536 M346.85641999017577 568.3977151395102 C330.9164546974063 568.2271084505394, 315.7075308807962 564.9997473425959, 284.4975407570787 568.0246012367809 M344.21827608072005 567.6856352090668 C324.7405658267105 567.0425997824761, 303.15335611544566 566.433811439671, 284.0109182587359 566.3123398413137 M285.6018715582937 568.0614420239842 C285.273229376883 551.3459299438526, 283.80055817129517 539.5505561350379, 283.18329300064636 515.7677441932074 M285.83061429507717 567.4102728229086 C285.35889171177826 554.4931791388029, 284.8437169258007 542.437089077282, 285.2096214883522 517.6945375341191" stroke="rgb(0, 0, 0)" stroke-width="1" fill="none"/></g><g><path d="M508.4135484621106 515.6951647912455 C525.6083568996855 516.4543617587179, 543.460950686916 515.3275369787242, 568.0131163870108 517.2644631789292 M507.04036308488656 516.0114512333292 C522.8788210930809 516.6288859634392, 537.7061293214343 517.0519606947544, 567.558732302531 516.8540715794294 M568.2029671926407 518.7112853567182 C564.9018387117184 534.687721044918, 568.029417384796 552.9376146113453, 567.5607588215901 565.2725427816755 M567.8082256965121 516.2050524155466 C567.4281417285765 536.2575168641358, 567.1503115619188 557.3236893078407, 566.5368640529261 566.7218164947781 M568.4113550013748 566.1229126253671 C549.5187253348498 566.4378168283265, 530.8523820062106 569.2011213570305, 507.8179531198724 566.8021550967835 M566.6283444730373 566.4783895683543 C549.1682996563584 565.9581230092886, 532.6145101482276 567.4103607804002, 507.91142558557976 566.7777606106389 M505.474447297625 567.8780943257209 C505.4034080183606 557.5304770133401, 504.7997504734757 544.7318038377974, 506.34690766563614 517.5327781233445 M507.89130106847506 566.4252974538599 C506.49135159809117 554.7012703146207, 508.1346552017124 544.4921276358075, 507.27110329203396 516.9209962079889" stroke="rgb(0, 0, 0)" stroke-width="1" fill="none"/></g><g><path d="M590.6478928842826 517.5975300623926 C647.0648077400203 518.1711699536802, 703.9892649848596 516.7642531584027, 792.3560024564372 516.7290826092249 M592.090557736133 516.9112114289107 C666.2712260228278 516.8126828787944, 740.4130005412372 515.6702356019632, 792.5850584280258 516.1784133278716 M791.1524732212903 515.0463420891508 C794.9518669527087 563.3707173154356, 791.8322624067952 614.0063003768737, 792.7484898580449 646.66656710363 M792.7004396662468 516.2231490746756 C794.0812616292657 550.5841915024661, 792.2242337286013 584.0996383529741, 791.31513762983 647.6525146570019 M793.0136016215922 646.1285303276385 C732.9033532349765 647.2379378522776, 677.5870147569135 646.8091962934205, 591.6303242042312 647.2028165575423 M791.2561633996028 646.4187777158584 C748.8541018187308 648.2082646834077, 704.0878966908325 646.8808863406325, 591.4889726255147 646.1269297410205 M593.3322978976678 647.5234763106523 C592.6540078566876 617.3398196351703, 589.739948569385 586.9247054793178, 591.1277504293165 517.1087869015175 M591.0548101810986 647.8252609093466 C591.992717324891 598.0131265513967, 592.5535070282518 551.3046638067988, 591.4969984513754 517.8922679692945" stroke="rgb(0, 0, 0)" stroke-width="1" fill="none"/></g><g><path d="M585.9683798610316 510.77972235886233 C649.0045355901567 509.2859509001266, 709.136942104705 510.6719601173285, 796.7006134925642 512.0366020232177 M586.2548952883361 511.0688865670925 C667.7126223791068 513.2351761781042, 750.216733956491 511.9967830981442, 797.8851469704307 510.90673035022684 M798.1425610253684 512.5362712484828 C798.5311613833017 557.4388822624069, 799.5130688955069 606.4842508063293, 798.3860947813406 653.8374176437102 M797.7703639772382 511.8190772315715 C798.766845428695 549.8700150966413, 799.388646163149 589.6041454453272, 797.1981515484042 652.3351903217539 M797.8956386648027 652.1798821433521 C747.5813865359374 651.0123161759911, 694.3417544186885 653.5544107703543, 584.5854480472454 651.7948130103146 M797.9291725330779 652.3925785184714 C747.6948888986826 654.2109223634671, 697.9169291529522 654.0093220370918, 586.2638984090048 652.3840529140482 M584.7272396159215 651.0014674630545 C587.5600175977287 623.0927791259551, 585.7137779448439 594.7234675040845, 584.0129633846491 512.3755185679779 M586.4166571449305 652.9046373194076 C586.1054248469513 608.7403497238505, 586.9027557246773 564.4603336216071, 586.4515801536259 510.1618845657722" stroke="rgb(0, 0, 0)" stroke-width="1" fill="none"/></g><g><path d="M616.7207451034136 583.3472122788507 C640.0648284564896 581.8844896162589, 659.4160022611127 581.0697541018807, 676.2945294292548 583.7623734881714 M617.7117241111852 582.5829266729672 C634.1023613525367 582.5672811370929, 651.0702074116319 582.7100203714374, 674.5047990782188 582.8714760104995 M676.6207337976874 580.5192534981476 C676.2342109928634 595.006691197651, 676.2037682766532 611.1862352964037, 673.7182339404534 630.677657294088 M674.8016623866697 582.9580769296564 C674.4433533511856 599.6052954432183, 674.6935295347125 616.2593620662635, 674.2590681091401 632.4745125743074 M675.757803204223 632.4492543453229 C651.5126207359793 633.3105223403134, 629.3464308611497 632.9793875228435, 616.0691341771652 632.1221806904475 M674.0575070957799 631.8596747216656 C653.0629481769065 631.5888217924296, 631.8079053676344 632.2704104613947, 617.0697937898135 631.3413653417764 M618.205763278871 630.7359073642076 C616.7018431936124 614.3286218261727, 617.7047001897009 595.2692672493093, 617.3237233111023 583.7983349147631 M617.9543331054887 632.7610261063252 C616.9565561137983 615.6160903552917, 617.3735208015776 597.6516386673889, 616.1409981583113 581.6109757591621" stroke="rgb(0, 0, 0)" stroke-width="1" fill="none"/></g><text x="646" y="612" fill="rgb(150, 100, 28)" text-anchor="middle" font-family="Consolas, Courier" font-size="20px">id82</text><g><path d="M676.5418578501877 580.3131928927621 C690.5172991067245 583.2724785670378, 702.8735990818315 579.5605446800189, 733.0891266025883 581.4941062294487 M675.8396057193191 582.2128836585802 C697.1435180205839 580.966206975669, 719.9154467491514 581.251988262832, 733.4129808486148 581.012506237037 M734.216002808529 581.3489946473395 C732.4575075816998 600.0830029420272, 735.2007356322598 614.5257175200062, 732.2999733274785 631.3574085381874 M733.5746228045305 582.0999457732975 C733.0243915510847 595.9960068624088, 732.7581687151911 607.1730887195006, 733.4859825434005 632.3874728763121 M733.9202192012851 630.6873693636005 C719.4575580774047 630.6475390831512, 709.266438833772 633.7281320363519, 675.0022220907483 630.614022852467 M733.6044513753307 632.1548201178601 C718.869535015894 632.5750670811344, 705.8922608944897 632.6162020304452, 674.4584578143612 632.6035729513311 M673.9419568195106 630.9806708364283 C675.2268144403797 619.9362498235374, 674.7671383047445 609.7021945190384, 675.5113916327524 582.8449226310302 M675.3198031844759 631.1061238388166 C674.9935984500378 618.7160161550605, 675.3060677837025 604.4462005085793, 675.9828402648811 582.5555058750242" stroke="rgb(0, 0, 0)" stroke-width="1" fill="none"/></g><text x="704" y="612" fill="rgb(150, 100, 28)" text-anchor="middle" font-family="Consolas, Courier" font-size="20px">id76</text><text x="622" y="547" fill="rgb(150, 100, 28)" text-anchor="middle" font-family="Consolas, Courier" font-size="20px">id11</text><text x="757" y="547" fill="rgb(27, 14, 139)" text-anchor="middle" font-family="Consolas, Courier" font-size="20px">tuple</text><g><path d="M590.8425600264139 515.8969707812907 C603.5176479508617 515.8235460792752, 617.1692272887124 515.6705349234069, 653.1707646369083 517.8857171521415 M591.5923963762816 517.8590537040395 C609.0841769198216 516.5924616986866, 625.3478082367651 515.7461817394164, 651.3335552589433 517.1945669011336 M653.838395197479 517.7610175818281 C652.4418154352278 529.7034425448525, 650.0851703782589 541.4351808620654, 651.472104562908 565.2038722842876 M651.5682016164438 517.3396157064858 C652.3086771471646 531.342239856788, 652.1127420767515 547.367381527449, 651.4480953274016 567.7615834265692 M651.6304532306388 568.1506731856983 C628.8994655043246 566.3401575288856, 606.0240950265819 565.2797234264302, 593.293236156208 567.1081464231064 M652.501610692201 566.0953899674097 C631.7152627780938 565.7733341740477, 609.845912137945 566.2138167124409, 591.777459325531 567.1352798426864 M593.9419794654818 565.5623065536126 C591.6309924496277 554.6890470413142, 592.3814837864848 538.1489181346307, 592.9928775847696 517.752956908054 M591.5289723121598 566.6485373531964 C592.4921993576697 555.7880525443388, 592.2994287179921 545.0958326779759, 591.206697525258 517.4063555090653" stroke="rgb(0, 0, 0)" stroke-width="1" fill="none"/></g><g><path d="M721.6927165125262 515.7804622831941 C744.2153433149774 516.107611980306, 770.8944989436789 515.4150429623686, 793.5624639379886 518.1446862853004 M722.6609074443367 517.043107243171 C746.9923151460673 517.6005315906975, 771.546585644131 515.8388716526572, 792.629271714792 517.7830727631997 M790.6752290123679 515.5025382791686 C793.0457417436742 537.4182947934793, 790.7268452681539 555.7963354928012, 791.62227516867 566.011899361388 M792.914375808969 516.7343016096753 C791.2893489125962 533.4590359951998, 792.8882715601914 549.6386484387913, 791.5294905239715 566.2472750805432 M790.9926867251703 567.6350174961665 C763.9332216699023 566.8387756842386, 736.87998916618 565.4831596855043, 721.9663071413044 568.5310561937955 M791.3005104847505 567.3370782238201 C771.6636765512199 566.3536706243069, 750.9829605992111 566.7173998123712, 721.0087632478205 567.5406619199829 M722.7192141371538 568.8304961464809 C721.5351769874259 548.9593607577644, 722.1550353931196 533.9647043664642, 721.7727359942079 518.500541374703 M722.2828896419032 567.4434104618122 C721.2281873733285 556.4597388490293, 722.5450159681822 546.3581822231304, 722.3393969339257 516.06584836889" stroke="rgb(0, 0, 0)" stroke-width="1" fill="none"/></g><g><path d="M816.3463544094265 518.2281551005248 C893.2056108026051 518.3536621740334, 968.4897281505392 519.0893853536112, 1066.1798019587927 516.1373031683045 M817.1666667222116 516.5643390875895 C867.5659057008278 515.8414816520515, 916.9417921033273 516.7949064162756, 1065.7512287972354 516.1962431010915 M1065.539558494391 517.5313469255764 C1067.6113129512207 556.6605447110594, 1066.2462720798521 595.7344275230864, 1065.743326913124 645.9933604692287 M1066.7567329656756 517.6018959030278 C1066.2749789915763 544.8153866567035, 1065.7140425219363 573.1626613861065, 1066.847078966072 646.0286978867799 M1067.1713256398139 648.3736128174256 C990.2411651657616 648.3343480810242, 914.1223678038494 647.9189941474835, 817.9550627936292 648.5839795093415 M1066.136496016856 647.3259224817385 C982.386543721597 648.9643907161745, 900.4435033137204 648.0377759631082, 816.628926455686 647.2543150679326 M817.8988127011638 647.225368376293 C817.3988203748473 614.4169128228385, 816.561122797933 582.0343371709371, 815.4105421346068 515.7470396862825 M816.9217722833321 646.8296440316645 C815.2159212662489 601.7211112717278, 816.7752489225953 556.1024079569224, 817.2725656248186 516.0352599146291" stroke="rgb(0, 0, 0)" stroke-width="1" fill="none"/></g><g><path d="M841.9344029450999 582.0769490362411 C860.735259514797 581.3845744293591, 880.2450395871656 582.860338122071, 900.0437721904925 580.2833862569972 M842.6015116951645 582.2989484755901 C855.604558869078 582.5500101243301, 868.0778731802501 582.1612538916316, 900.5428804972487 581.0652514437751 M901.0517621109786 580.5305209638818 C898.9898029436187 595.3552059403194, 900.3670714348905 605.352482674237, 900.8527080456456 631.2182204866126 M900.1267318391801 581.0829464122359 C901.064312018226 598.5505524044831, 901.1075204704073 614.8595115400374, 899.2228760840646 632.7079835335938 M901.9628468720099 632.9351974839279 C887.8030093683819 631.9359160251936, 875.938609428498 633.3904105347889, 840.5518350932979 632.1203958297099 M899.0807642712408 632.3276645577554 C887.1276325712814 632.6359486595512, 873.5790441906697 630.9829244177503, 842.1552975566699 632.559570137664 M842.0671277363635 633.6876771455196 C842.176894564073 611.7232644755679, 840.0344917426067 595.0895985603735, 840.4354823113162 580.0462787651646 M842.3822262680101 631.0733615302064 C841.30200403486 619.343089747853, 841.2795788180783 606.5286957846474, 841.1991524753074 582.5108308779567" stroke="rgb(0, 0, 0)" stroke-width="1" fill="none"/></g><text x="871" y="612" fill="rgb(150, 100, 28)" text-anchor="middle" font-family="Consolas, Courier" font-size="20px">id36</text><g><path d="M914.2852385192476 583.3339864042347 C924.5652496021252 580.5273532916633, 938.3601654097976 582.4450423697195, 968.6578602914578 581.0424203232765 M912.4582120418307 581.3061658622344 C929.9048739633229 581.5056067321957, 946.9337663105439 581.3384391707907, 971.3289704572514 581.2193843402027 M970.7323446024096 581.8283818952771 C970.8483265881988 599.2880731566356, 970.9572576951396 615.1802715208149, 969.8765845120621 633.5049803088589 M971.0913952936188 582.6463844119017 C970.227254012642 595.0222752338873, 969.8256146095827 608.8362721219214, 970.1459571843327 631.8046366365237 M972.4490648552103 633.9665571337353 C948.567441246643 632.908643256144, 926.338349710856 633.5025544424087, 913.8427670932688 631.7149325847553 M970.501067264952 632.4163671027259 C958.9360993147147 631.0328427896719, 946.7855788824206 630.579861988536, 911.7090455281024 631.7887850827914 M911.2813759603117 632.5591635018037 C910.9681073176118 618.4473444810368, 913.2448638471079 602.8074875784373, 914.263867007626 583.0885817397163 M913.3137955312872 632.4506149844677 C911.9230000712329 617.0499054257533, 913.5682310613411 602.1541771397114, 912.9722668692139 582.2347115825322" stroke="rgb(0, 0, 0)" stroke-width="1" fill="none"/></g><text x="941.5" y="612" fill="rgb(150, 100, 28)" text-anchor="middle" font-family="Consolas, Courier" font-size="20px">id49</text><text x="906.25" y="612" fill="rgb(0, 0, 0)" text-anchor="middle" font-family="Consolas, Courier" font-size="20px">,</text><g><path d="M984.194866087682 581.6176844262523 C1004.1723658371748 580.2961970324212, 1024.3863528379231 580.4103001862399, 1040.6124977837253 581.7324099926566 M983.4815271066681 582.085921953466 C1001.4925189161986 581.8447669302985, 1017.6431941206374 581.5558723477625, 1040.6840102245542 581.2149328620156 M1042.5245673132927 583.0296985350852 C1042.770841291905 596.8051894372732, 1040.8526618378457 610.476383617814, 1039.7927932813416 633.9451311354935 M1041.7506058733604 582.9390620733185 C1040.7957110551456 596.2882913737585, 1040.579318784985 608.9302889747431, 1041.9343657462466 631.9625396860093 M1039.2245913013596 631.8564742421753 C1021.6098306039523 632.5215414179997, 1002.0167021044207 630.5753328629472, 982.450884289116 631.2840085072522 M1041.6260005863583 631.8986625956286 C1022.8059539526364 632.4963465888071, 1003.4298910360963 632.7093610712349, 983.7693545301352 631.7794704947004 M982.0791979976375 631.4241065763842 C984.1389933563539 617.44349565488, 982.6229408558634 602.9357836987845, 983.0805728307294 580.266822823263 M982.7920557809098 632.1175284932053 C984.3453604744554 616.5934798145336, 984.2595018005634 600.4320022951415, 983.6164818412935 581.4540573530829" stroke="rgb(0, 0, 0)" stroke-width="1" fill="none"/></g><text x="1012" y="612" fill="rgb(150, 100, 28)" text-anchor="middle" font-family="Consolas, Courier" font-size="20px">id64</text><text x="976.75" y="612" fill="rgb(0, 0, 0)" text-anchor="middle" font-family="Consolas, Courier" font-size="20px">,</text><text x="847" y="547" fill="rgb(150, 100, 28)" text-anchor="middle" font-family="Consolas, Courier" font-size="20px">id90</text><text x="1036" y="547" fill="rgb(27, 14, 139)" text-anchor="middle" font-family="Consolas, Courier" font-size="20px">set</text><g><path d="M815.8704195308213 515.7143252884256 C835.3711324389704 517.1969767465368, 854.4578910515767 517.4975561479467, 876.3133383180017 518.5073385713662 M816.0665838096951 517.2694994405169 C838.6694093254323 516.5626143853178, 861.0809938238006 516.3955944253287, 877.2145139982567 517.2254653093722 M876.5842170625383 515.7969935609644 C877.659065202178 530.9950719364675, 877.8475655393036 541.8679202699554, 877.8670121257585 566.050220397885 M876.727089997334 517.256306931573 C876.7222292077904 529.9010367170987, 877.9317943692569 543.5728957635567, 876.8228711569371 567.0620404618995 M877.1537781558167 567.1453963585432 C852.3607105856412 567.7452788720396, 829.6531315592568 568.2096377360429, 817.084511451557 568.4767403225017 M876.1809691451259 567.4549430638846 C863.8297249327072 567.3138803567298, 851.5391124533594 565.7458236150273, 817.4425993790959 566.7049794067063 M818.6877202323701 568.9646778303198 C816.8982499454656 552.3494955830498, 816.7289634933855 539.9534446938898, 817.3747604915329 515.0471877685752 M816.3098557739315 567.2711634135331 C818.0539538092607 553.5769935159532, 817.2635621562199 540.5064895340437, 816.7579906211236 517.0555424489584" stroke="rgb(0, 0, 0)" stroke-width="1" fill="none"/></g><g><path d="M1004.8120438659996 517.5472552033004 C1028.9664626866431 517.8202339580688, 1054.431570894997 514.9135506441872, 1064.2266729784724 517.8862136125188 M1005.1160767010999 516.7140925021833 C1018.2058818592485 517.0995558450487, 1029.3963647792223 516.3235390885015, 1065.4545357768402 516.7035902628647 M1065.7889291980273 518.6558171137297 C1067.5970922129343 534.2575443628201, 1067.7078913281605 549.4211947845463, 1067.6598857835547 565.7239031808002 M1066.597475594372 517.0465052312503 C1067.0206524651142 534.4052508447902, 1066.7222404772772 551.2362585455705, 1066.1640976100343 566.2802855565432 M1067.1828403132722 566.1848909820579 C1052.497492550541 567.6830412351578, 1035.327697024732 569.4655062148873, 1006.2832847770961 568.5344360022802 M1066.100175995837 567.0089294561542 C1052.539678066831 567.5093360684916, 1040.477911056213 567.2993882305467, 1005.2376839267469 567.6163913322227 M1006.4808755798583 565.5977789143989 C1004.8174594053961 556.3706565587257, 1005.48269412459 544.626077073826, 1004.867063633654 517.1818714080091 M1005.5497524262012 567.8534281035968 C1006.3249128864253 549.6260471659793, 1005.5890247840928 533.7877014728215, 1005.5837404626053 517.0032508422382" stroke="rgb(0, 0, 0)" stroke-width="1" fill="none"/></g><text x="829.5" y="612" fill="rgb(0, 0, 0)" text-anchor="middle" font-family="Consolas, Courier" font-size="20px">{</text><text x="1053.5" y="612" fill="rgb(0, 0, 0)" text-anchor="middle" font-family="Consolas, Courier" font-size="20px">}</text></svg>