<svg width="1300" height="1100" xmlns="http://www.w3.org/2000/svg"><g><path d="M23.755752365818903 199.21806680427713 C101.32720272306479 201.8412532459154, 173.8495834888165 202.75986672628585, 221.7538046191721 199.43419675723268 M24.800337187907008 199.60441896188033 C84.65260596696878 198.34570731114775, 144.33776434083475 197.60835159222594, 223.55462933144557 199.15305278037374 M222.4431974300253 200.29672442383819 C223.33834059471627 346.3392543031756, 223.7558942522703 492.42283175824184, 222.4347709525598 650.0537085601557 M223.45931265959945 200.44866871871844 C221.38528484413973 314.5002530421121, 221.16795249759747 427.85297708005527, 222.5727140244754 650.354591838413 M224.64715989715725 651.2394730434437 C170.2149665987911 651.8058919990721, 117.43972293200075 648.3725021186772, 25.577243085954564 651.7398311298533 M223.41232433123852 650.2610161757225 C178.31510487444726 647.807182596006, 135.28476297486395 647.8684428277653, 25.67847858967197 650.8437813809418 M24.436424211203523 650.118534095979 C24.817846584591603 483.22933776602116, 24.097131552687337 315.48949571055, 24.661568735609364 199.87803925564305 M25.143975408665607 650.1784870977971 C22.87870172335872 522.7073012144432, 23.150706000913804 394.83551753426883, 25.267309946164463 200.07886610082815" stroke="rgb(0, 0, 0)" stroke-width="1" fill="none"/></g><g><path d="M149.68937321091312 276.5675209771517 C170.87083631406193 275.9401091889896, 192.59207132461054 276.14407699246044, 204.29539583534432 273.2081450259822 M147.81628048068572 274.5950704337266 C163.1524940794984 274.7499101001489, 178.43648133019406 275.7343939299489, 205.0802292591124 274.0720548219851 M204.44015867001525 274.7055398643224 C207.1338530216152 287.49667620790416, 205.54785947429386 297.05384667405997, 206.34893416328612 323.30762181677244 M205.16384325525007 274.51351894667476 C206.92042209414018 290.3162322824925, 205.60336465404635 306.89988359906323, 205.1845083383005 324.7096968632076 M206.1150300483715 323.0787054759196 C181.44072400060404 325.57447714085106, 160.84524561406144 324.46758900718055, 146.85828816208326 323.9876653148139 M205.6677243984868 325.79839338761 C193.8297911066728 324.0624599419258, 181.15115080615445 324.6567780010377, 148.360991855804 325.3203459983423 M147.16714563614343 323.3900674436172 C146.6760151202708 312.990159074322, 148.5903363816045 299.1376323121203, 146.52569233950047 275.0879085536812 M147.15391578606247 324.61965328283986 C148.3423205392907 306.4285511420983, 147.09825547709178 289.6779423852789, 147.20575646105289 274.5232363104192" stroke="rgb(0, 0, 0)" stroke-width="1" fill="none"/></g><text fill="rgb(0, 0, 0)" text-anchor="middle" font-family="Consolas, Courier" font-size="20" x="50" y="305">lst1</text><text fill="rgb(0, 0, 0)" text-anchor="middle" font-family="Consolas, Courier" font-size="20" x="177" y="305">id82</text><g><path d="M146.54530883341155 349.7434915393964 C168.31801472904002 350.12636409769124, 189.58403191005752 350.63484815988977, 204.99196309314618 351.6755397304415 M147.04240965900692 350.29586095492414 C167.65422423520997 350.25647961234387, 186.26756766206444 350.6349328092996, 206.65202501614857 350.0140427563995 M207.87273200548177 349.74135491659746 C205.44379018351597 369.32480160318494, 207.05542315856917 383.3470572145007, 207.32297999465996 400.6967431848454 M206.49434848889013 350.46293983785773 C205.83209173056605 366.6510134719279, 206.3323951180759 383.87031528605206, 206.0100712618421 399.1747048162828 M207.26808242317182 401.9288241297492 C192.25043018082675 398.7759556084702, 178.14061868750167 400.3595098512907, 149.05069938070193 400.1612038304392 M206.62386923368658 400.4737017240144 C191.99380213919767 399.4658596863767, 178.74245335929834 399.56363316923284, 148.55426660561173 400.67089089030424 M147.59158737251585 398.12976325621696 C148.7124572756961 379.69656506456744, 149.18130257176458 362.8428763318911, 147.75270767747742 350.5204597376602 M148.70746213133253 399.7545431078762 C147.79076706355977 384.7189587363038, 147.32505067240504 367.9579549521729, 147.605663274193 349.85208219165185" stroke="rgb(0, 0, 0)" stroke-width="1" fill="none"/></g><text fill="rgb(0, 0, 0)" text-anchor="middle" font-family="Consolas, Courier" font-size="20" x="50" y="380">lst2</text><text fill="rgb(0, 0, 0)" text-anchor="middle" font-family="Consolas, Courier" font-size="20" x="177" y="380">id84</text><g><path d="M147.1981014852583 426.4743252998531 C160.04754492644764 426.0559885961374, 173.02034767573937 424.7791567039294, 207.05147064914942 425.3411764489191 M147.33860877865536 425.63830660866887 C166.7180670981711 426.03415150368835, 186.0148042867859 424.90914667173195, 206.4292034324293 425.2856240598908 M207.8364926821844 425.0339084458629 C205.75832453025956 445.50148159046233, 206.52212290613255 466.12833036433915, 207.7975285261537 473.92214594816795 M205.3016772783082 425.2009749218921 C206.34828440213104 436.518554935522, 205.3930636453334 446.8308889371147, 206.42563047781044 474.8512911190571 M205.63897229950695 474.5302260630314 C190.4159852696284 475.1343284581598, 170.80242332387394 474.43672021230475, 147.9602725091841 474.2735363891897 M205.97560426713804 475.9237011526316 C186.38953299838596 475.05615540521626, 167.73217573295045 475.11293266388327, 147.09593119204789 474.11234099177295 M148.9205403201463 473.47729840480116 C149.435789495683 459.02634898787403, 147.1282278070939 446.2613625725256, 147.18931934030317 426.93949019915607 M147.90924169598796 474.71568432076697 C146.89206190526454 455.7394691520891, 147.49540487018135 437.10859420335333, 148.14353662904122 424.2851431516139" stroke="rgb(0, 0, 0)" stroke-width="1" fill="none"/></g><text fill="rgb(0, 0, 0)" text-anchor="middle" font-family="Consolas, Courier" font-size="20" x="50" y="455">p</text><text fill="rgb(0, 0, 0)" text-anchor="middle" font-family="Consolas, Courier" font-size="20" x="177" y="455">id99</text><g><path d="M147.49645484731815 500.40250627266425 C170.77032604411917 499.73132868717374, 193.93852454817016 500.9453951567413, 206.30006478862728 499.1488057517573 M147.66307020570986 500.7159710735991 C160.21842997850868 500.5398888255555, 174.3821573391031 498.66147994123895, 205.45172999567166 500.3155762199107 M206.83448507726183 499.7460127896774 C205.82601941410795 516.5159035211879, 203.9519316376857 530.3412276207113, 206.35808939191662 550.1814495696943 M205.4784549445252 499.7502915542015 C207.15322026849873 510.76924160980866, 205.66609685493097 522.3231747936917, 205.26348358574117 549.6345041137492 M205.0643329660798 548.8877498060319 C190.643290575719 549.8839257191592, 174.57229228952477 547.8933842565775, 148.64636926750103 550.8922954153239 M206.47482244600556 550.7534412704968 C192.67246007906053 549.6734374505553, 178.26407604258054 550.3617415561322, 147.7700311223165 550.8730173065435 M149.15210885805013 551.0337056756704 C148.63463166113166 532.4987428088128, 149.83098351778992 517.9523752320791, 146.265713386421 498.42281564894313 M148.22759453423907 549.1502211791943 C147.33548278260147 533.1345433535993, 146.6774529974372 516.0357240369812, 147.20760927516093 499.37660796333927" stroke="rgb(0, 0, 0)" stroke-width="1" fill="none"/></g><text fill="rgb(0, 0, 0)" text-anchor="middle" font-family="Consolas, Courier" font-size="20" x="50" y="530">d</text><text fill="rgb(0, 0, 0)" text-anchor="middle" font-family="Consolas, Courier" font-size="20" x="177" y="530">id10</text><g><path d="M148.51295222049515 573.1313205815724 C162.9795514523728 572.981820129688, 177.2088172132794 573.6093944504066, 204.72702823067505 573.7236238330005 M147.60119530952184 575.5764202692651 C163.48069246888997 574.8105876168942, 181.39562657144793 575.9570254586413, 206.4793173253606 575.8248636022693 M204.5271283315824 575.4955120088575 C207.75690485722703 596.2372196675536, 204.49227917554248 612.7282872548025, 205.02465260049837 623.5586664477103 M206.37538734215326 575.0351118015556 C206.48194274592342 584.568734483199, 206.91610980787212 594.9441201197916, 205.55974100528914 624.1868744220284 M207.5645683253721 626.6963081073294 C183.3265871370567 626.6646486696819, 164.50804455048814 623.8808584394051, 146.05173822756439 623.3317599370065 M205.99457519325748 625.3256324938073 C187.22700622194228 625.0634229784747, 169.68294646459853 624.6816844808684, 148.22437874133783 625.7329743147958 M146.19899402019192 625.3128189654262 C146.903799831688 607.8980692905332, 146.9760326573716 589.7398428240924, 148.35085213766374 575.3951614114591 M147.49834475145937 625.9206545517148 C147.83960258525406 612.5498192394105, 148.7733190277581 598.2102619664281, 147.21785638068096 574.7723895081658" stroke="rgb(0, 0, 0)" stroke-width="1" fill="none"/></g><text fill="rgb(0, 0, 0)" text-anchor="middle" font-family="Consolas, Courier" font-size="20" x="50" y="605">t</text><text fill="rgb(0, 0, 0)" text-anchor="middle" font-family="Consolas, Courier" font-size="20" x="177" y="605">id11</text><g><path d="M25.957935146184923 201.6495962482188 C60.97582390613741 202.12764486682937, 99.57010685504981 201.18411460925105, 132.20817459479184 198.57230056162823 M24.668672476509617 200.99701581667495 C56.48858157134255 199.96591180299876, 87.61718447290019 199.76807253775294, 130.56043166878763 199.90213050959153 M131.88149191578728 198.76042039593978 C130.5011002696538 216.6252367577742, 132.57118880455494 231.82681251582625, 129.42364486071057 248.04473135775837 M130.31181833940911 200.90714082831195 C130.30381321305163 215.0734829297405, 130.21956879144426 229.6729065001952, 130.4259984529682 250.29963725355248 M131.75231863930702 249.58183902115852 C108.69007395004627 249.32011934240916, 82.94176424457376 252.33889293909974, 26.363598565578116 251.4260673228685 M130.29163366365594 250.14058242189586 C91.82975610429179 250.66415469819256, 50.66167880040034 250.67449522422893, 25.80000685776526 249.05233825848043 M24.13551525829691 248.23647463280074 C24.663996142312662 230.16236702101693, 25.744204406792118 212.60959944018512, 24.544605518833546 198.8227534908788 M25.850253554683633 250.54634177818474 C24.094768081225343 232.2912679296843, 25.698440041553784 216.20499168516042, 24.338963340750663 200.71163880514052" stroke="rgb(0, 0, 0)" stroke-width="1" fill="none"/></g><text fill="rgb(0, 0, 0)" text-anchor="middle" font-family="Consolas, Courier" font-size="20" x="78" y="230">__main__</text><g><path d="M348.44921621444314 10.529578738112095 C409.4297886124042 7.953470226149995, 464.9310917893286 9.817086969698039, 548.3952924744676 9.202380777407017 M350.8403069995713 10.955224237411052 C402.17527006902037 7.939656250859423, 453.60437333313996 8.628913019212327, 548.1902430127034 10.367995601066124 M548.268018971481 11.062984240140066 C551.4573078162225 91.13315016567199, 548.8238673448777 168.59254455373917, 547.2451566263397 235.15295118468956 M547.9020156386359 10.59999602988318 C549.6154605170797 84.07805291209219, 548.9182077328701 156.86050461024556, 547.4339699515632 234.5417541604553 M549.0745376731128 235.99865774368837 C504.22189085719697 232.96110085782655, 458.18772357634913 234.89629148602188, 348.8685245752583 235.54192882702492 M547.4679540669015 235.1541419676887 C507.10316235768795 237.54010977635465, 467.31763059961315 236.5427834969734, 349.8439938931106 235.034733418811 M351.57273106617254 236.25431077461383 C350.40133190598993 176.92276795325662, 351.63678291974406 120.8083450212935, 349.90224763022024 9.781641897759142 M349.3339174163171 234.62383661097337 C350.8102383245942 170.35154342410206, 351.12150042620027 104.75490548321754, 349.9015174534007 10.492896482855423" stroke="rgb(0, 0, 0)" stroke-width="1" fill="none"/></g><g><path d="M474.50552145936206 86.97735334411506 C493.8272234444534 83.08184521897775, 514.5779162459484 84.88379079791281, 532.9470169250218 85.75234451164762 M473.4021256936903 84.71813800075556 C492.4032892037749 83.51669894526059, 511.882364019752 84.98418353894202, 530.9697949495754 84.8376001865888 M532.9089380640909 85.31228939470374 C532.9151733885244 99.79485130988856, 532.087299695019 114.70790917087182, 529.5365749374139 136.93330003847439 M531.7460539065095 85.85502679007516 C531.465237456512 99.17619581258631, 530.5969732252269 113.3218599661462, 530.1191008221604 135.1210875289674 M531.7893106417736 136.65141059583456 C514.8180089593247 135.99764838863194, 497.63468702622873 134.88495732706062, 473.4594955343084 136.8069486232633 M530.3474750722776 135.91426759442524 C513.5732746487987 135.06091372674993, 495.21581682829947 134.65651198097603, 472.14921076219855 134.1025336855082 M474.06901024544214 135.79033878297284 C471.07428492733334 119.2584353254379, 472.81117801478933 100.65935155947675, 474.7872044931398 86.98204565406226 M472.9492380963204 134.4649469203545 C472.92109018946843 121.27482321171638, 473.54443085275443 107.87873750775414, 473.2892835478674 84.8254271947714" stroke="rgb(0, 0, 0)" stroke-width="1" fill="none"/></g><text fill="rgb(0, 0, 0)" text-anchor="middle" font-family="Consolas, Courier" font-size="20" x="375" y="115">age</text><text fill="rgb(0, 0, 0)" text-anchor="middle" font-family="Consolas, Courier" font-size="20" x="502" y="115">id12</text><g><path d="M474.0356537509053 158.29598969795808 C484.7526132026354 159.9369470384198, 501.0516696221193 160.64558475197305, 529.1421308994485 159.73640006492718 M472.75848506056235 160.49072464213322 C490.7082461430508 159.65803967470762, 508.0434193041165 159.38537048995352, 531.90956984622 159.12998386916445 M530.3948498575438 159.2879709271889 C530.0926016300053 173.46385689798663, 531.0464481047131 187.22443536620926, 529.8080130555608 209.43592076891613 M531.7105565496115 160.88344226534167 C531.2727002615015 176.79759658045603, 530.644110838247 195.2735960444052, 531.0611126530131 209.46669865562265 M532.2858568442255 208.75428483199283 C514.594023976851 210.46927135586654, 493.84022931518473 211.35830418099602, 473.2471100471586 211.2465961990104 M530.2542050417542 209.21605917930026 C516.3216510509271 209.88703218533874, 502.6552218744109 210.60995424073587, 472.8584224488559 210.50834684569458 M473.7260951218131 211.54046132952826 C473.77839364601397 196.70093381314874, 473.2901834290161 181.3303186634121, 473.69027461686534 158.9808437022521 M472.63586823780423 209.3754608062324 C473.79838235958755 192.21843832488133, 472.38765328403895 173.02656970845084, 472.9858324273796 159.99402655002288" stroke="rgb(0, 0, 0)" stroke-width="1" fill="none"/></g><text fill="rgb(0, 0, 0)" text-anchor="middle" font-family="Consolas, Courier" font-size="20" x="375" y="190">name</text><text fill="rgb(0, 0, 0)" text-anchor="middle" font-family="Consolas, Courier" font-size="20" x="502" y="190">id17</text><text fill="rgb(0, 0, 0)" text-anchor="middle" font-family="Consolas, Courier" font-size="20" x="380" y="40">id99</text><text fill="rgb(0, 0, 0)" text-anchor="middle" font-family="Consolas, Courier" font-size="20" x="507" y="40">Person</text><g><path d="M349.6588095801015 11.603271458328706 C361.12785280073217 10.415555996458242, 374.364687476749 11.576997743671454, 408.44641816823196 9.776798504753119 M349.41084786234654 9.847457321396568 C370.73341792629384 9.894161372894654, 393.1124641849799 8.541286091760348, 409.6348197343372 10.27933335073807 M409.5844937960318 10.267686295750579 C409.1634950575711 20.215268350928255, 410.4436780739935 35.075610518423396, 408.79952736993727 61.82226427675392 M409.4566740410285 10.134055488028965 C409.1817721866281 20.78617971228572, 408.96553205936203 32.797138169201, 410.2997382865156 59.156173775586375 M410.0011095997957 59.655759535161515 C396.18909037692777 61.98625432486909, 379.38704092321467 60.08315897261992, 348.3771199132627 59.25396385228373 M410.22252997617 59.97915941591644 C394.475273232232 59.681920902084116, 379.83527948316316 60.788190156165825, 349.34611688276647 60.78192164932452 M350.74530722312824 59.26435903796803 C351.62459533236444 45.47862291464525, 349.2325760645742 29.11667885595112, 348.52998163313316 11.6385285858222 M350.59466537855775 60.17055026090438 C350.72402864882173 45.315184391718354, 349.4146671230681 29.144974117913993, 350.7201342630656 10.63292541874269" stroke="rgb(0, 0, 0)" stroke-width="1" fill="none"/></g><g><path d="M467.619859077243 8.317614618135263 C485.0514806824127 9.172691583162589, 502.084520242336 9.746753270448975, 546.2712012627046 9.291695509983219 M466.49944598681407 10.809598410216637 C498.6355254613787 10.473558920263217, 530.3211933168286 10.899629250634167, 548.5004129752589 9.816106167344003 M549.9582201665852 9.767022773914167 C548.0392079543344 28.22141347703873, 549.952302157103 49.558954817809976, 546.3782451674294 59.92394882034004 M548.030480921724 9.227898935243829 C548.0021803810089 26.859029791535495, 547.2319158091447 42.89691967235665, 548.07335781232 60.85110172055178 M548.7585634517804 61.41173066386224 C517.9060146428118 58.74055502412086, 486.4743776795262 60.18487273779964, 465.15780744782217 58.76146079511248 M548.3601563106563 59.659623737056336 C519.3942679810386 60.535007503511686, 491.0429886562474 59.42537924838165, 466.64722516143763 59.33901948856109 M467.2980075901071 60.87425149419607 C467.4835010197924 49.43832054793798, 465.88570420268303 37.04702473284378, 465.8790557402764 10.185325389507058 M466.74228640786805 60.218192897754975 C465.8648666786523 40.753262656211156, 465.9867090003963 21.613035785549158, 466.4003853478164 9.665839138504243" stroke="rgb(0, 0, 0)" stroke-width="1" fill="none"/></g><g><path d="M350.709078596354 348.4745099253931 C437.8377763883618 353.1791667503296, 526.653028479312 352.94620788754196, 630.7143432723853 350.0534248090438 M349.9936880757691 349.33952677041407 C432.8114554249592 350.30146802304415, 516.3184942097286 350.6568834159049, 632.4741136674226 349.4449880376255 M630.8032692614128 348.0245483152644 C630.4761633041572 382.72517634943955, 632.9727764175445 417.16502374011367, 633.9679767447046 480.26438699360585 M632.5077245327324 349.1684849786421 C631.5017483354609 376.26590787413386, 630.5925840242002 403.378376187082, 632.8971046550384 480.0819688863668 M631.8873508812427 479.23559275142065 C534.6679156037 481.7624550579608, 437.75506658754216 482.22186660668257, 349.3979438429056 478.73298366643496 M631.3309456624013 479.42181355792457 C539.8905862031942 481.7652550398498, 446.6797978182782 481.65764074224154, 349.6026280348982 480.1307750230505 M348.9403221192683 479.02708223519926 C349.3792262388781 441.8638190090403, 348.76556602271353 402.86678838783087, 348.7650163105963 348.7941456345988 M349.07702393654284 480.2830165085586 C350.1343202190631 441.7046706092084, 350.2362582607346 401.5347005382485, 349.09546953413 350.4282442855113" stroke="rgb(0, 0, 0)" stroke-width="1" fill="none"/></g><g><path d="M374.00444096292193 414.20059523200274 C389.708732779473 416.6219308598874, 406.1358080966962 413.03983720638706, 433.67097944443714 413.70510367236216 M374.1837539348047 414.1012400493375 C393.6831900490733 415.5296188042439, 411.0147904132766 414.67474708943143, 432.0486915765817 414.9810672146065 M432.43605372646266 414.0262864061746 C434.4755268651003 435.6309942462806, 432.1747725622452 451.2654598304873, 433.23030991331154 464.4688953658441 M432.29522598794244 415.53280370965615 C433.6271198776362 426.93867905866813, 432.7465921760794 440.6967221333253, 433.527869787925 465.30576345266167 M434.95066419873234 464.0044789937651 C410.9838786256778 464.96817921338044, 394.3044763839406 465.18975823317453, 376.48093399416683 465.3127097072774 M432.7874781992918 464.31116214990345 C415.97913111289887 465.7942757600341, 401.5339941999739 465.9492881922105, 374.31457049564585 464.85761928104756 M376.83798919301404 463.5635515216616 C372.9108921753394 454.8364457884562, 375.7177710806433 440.11039996970766, 374.9545988138072 413.00251983446896 M374.9414288605215 465.89608156492005 C375.8802568589757 448.97279159262683, 376.1450446362182 431.9147988826361, 374.2689328423383 415.5012674698358" stroke="rgb(0, 0, 0)" stroke-width="1" fill="none"/></g><text fill="rgb(0, 0, 0)" text-anchor="middle" font-family="Consolas, Courier" font-size="20" x="404" y="445">id19</text><g><path d="M432.2491197354261 416.65780164855715 C454.9026859955621 415.3669141558789, 475.5967730061119 414.4075991913123, 491.5363487891447 414.8038471762391 M433.9944755987106 414.0153566145208 C455.76933308940914 414.8411199453908, 477.86708038800117 414.5180389919795, 491.59590845061507 415.87893709871906 M490.3156806597679 415.712023393607 C490.102553014647 427.96439492520324, 490.4790322788948 440.6450380439197, 490.87494551731436 466.3023029557598 M491.91786668295333 415.6172443373373 C491.3864247017873 434.8805592560303, 490.11592835049527 452.2301329164381, 490.2556755812652 465.3881973126593 M490.44958838543823 466.75044790124144 C470.6689506360892 466.3872810722228, 452.2063928608334 463.40639781825325, 431.43248837400114 463.0354982338454 M490.73254042969717 464.62608330558817 C472.5656815961274 464.6215752791619, 455.5314083488939 464.93737232580077, 433.64341418637133 464.52419347017246 M432.3491187880542 464.4259577759232 C434.00828451821104 453.14869909021405, 432.006754207708 437.09860494698086, 431.9723278771085 414.43591889899784 M433.66116729969536 465.2889581829106 C433.2737409947698 445.88692219019384, 432.42666664459233 427.0484322615395, 433.91201635944907 415.1160148116432" stroke="rgb(0, 0, 0)" stroke-width="1" fill="none"/></g><text fill="rgb(0, 0, 0)" text-anchor="middle" font-family="Consolas, Courier" font-size="20" x="462" y="445">id43</text><g><path d="M492.06239829362187 415.42417286417214 C505.47167735414416 416.0678392580828, 517.6239297996051 414.1937203140963, 550.9441593156672 414.0470919209531 M491.8387492538804 415.8597225403905 C505.9946251733017 414.76804545859176, 521.4026568375025 414.41087563358536, 549.5804290782386 414.28131192704933 M547.9687123624749 415.5658698155939 C549.3967324736985 429.60648720882807, 550.459515979504 443.7655670966405, 547.0566888824403 466.5114288749111 M549.7773411906179 415.2313781940231 C548.9683005230253 425.39126961444276, 548.657036243522 436.59315870644303, 549.9510254579369 465.82862598549696 M547.6963277474388 466.82225458888456 C531.5633097929748 464.39084022913664, 512.2226054814537 464.2547549632835, 491.9533067543412 465.2975627677714 M548.7156118697807 464.51244279346867 C534.4345587728486 464.6627628358925, 520.3218838740465 465.9556020211759, 490.5699378606993 465.74027735189793 M489.3514041807602 465.25688266653555 C490.69892816871686 453.8569264261736, 491.95016723745385 441.1305281295126, 489.1224825162378 413.76544118880986 M490.3941304685088 465.71022174374065 C492.1111897492319 446.11784166570385, 492.1037213778449 426.8999727888939, 490.7938803674106 415.5370859414842" stroke="rgb(0, 0, 0)" stroke-width="1" fill="none"/></g><text fill="rgb(0, 0, 0)" text-anchor="middle" font-family="Consolas, Courier" font-size="20" x="520" y="445">id28</text><g><path d="M547.9549784203568 416.76720828750285 C566.0772154459628 413.3935561176308, 579.6977848498115 415.0899133923306, 606.0459496175145 416.34879065494755 M548.2169674483463 415.5337701847958 C565.6447832140575 414.40760259669116, 581.460906927616 415.71227193390746, 607.9530383912761 414.1735632631167 M605.4137163124111 414.7043244611351 C608.2108236224241 429.81621996625415, 606.648293757021 440.9543171682934, 606.0970841461215 466.03271562742736 M607.3663808479449 415.4064641985978 C606.9900933707733 428.013024005156, 607.2174695977046 441.9611756227541, 607.5270585168939 465.1451093340689 M608.7195800759715 466.86030292725917 C585.4302050163612 465.59209999699095, 567.806095124325 466.1924190791729, 548.6131845137595 465.8970490474745 M606.406553733277 465.2872435972184 C593.3872100517272 465.73553385412396, 577.8405275393483 465.3191836018845, 549.5158998135184 465.9077199923662 M549.0178181871047 463.4238186981434 C547.7173625890388 445.0747348975575, 549.4423935336673 427.10786979561703, 548.0819387860461 414.32811871737727 M548.4249123582221 465.45481337016525 C548.8005502341927 453.5108864723557, 549.1382008544304 441.1541854751219, 548.543026872578 415.3584153088622" stroke="rgb(0, 0, 0)" stroke-width="1" fill="none"/></g><text fill="rgb(0, 0, 0)" text-anchor="middle" font-family="Consolas, Courier" font-size="20" x="578" y="445">id49</text><text fill="rgb(0, 0, 0)" text-anchor="middle" font-family="Consolas, Courier" font-size="20" x="380" y="380">id82</text><text fill="rgb(0, 0, 0)" text-anchor="middle" font-family="Consolas, Courier" font-size="20" x="602" y="380">list</text><g><path d="M350.5936201034898 351.46991665958757 C372.4246388644156 347.7657712966366, 392.7831438995701 348.8920561912481, 411.3553776049464 351.81686756606933 M349.94980885561347 349.49596290577995 C371.50370257020285 349.6924807699467, 392.45259698594157 349.5716697926125, 409.9737666200428 349.16516856352683 M408.25569887480435 348.7818511014881 C411.90011252794073 361.98272371330415, 410.9235538458431 374.6964246147771, 411.5239303137134 401.124078237854 M409.8053799650827 350.4465885025849 C408.7811219806777 365.1288116748678, 409.08657574042945 381.25783767010387, 410.0304853036067 399.59239073108347 M409.1699376555507 399.17906887958486 C392.9960774919653 400.60302505063606, 371.9520687651204 399.29956423255055, 349.50777782780517 401.71347608233003 M410.4966642167157 400.29175059027705 C389.97150987156925 401.0708611146628, 370.32625984770095 400.09747375850685, 350.8720196195462 400.37593774500294 M350.34458454156464 398.1819133586402 C351.6096537826459 385.5744875445919, 347.9562037458105 370.0344747637964, 349.1558570687134 348.3903050351323 M349.66537485329786 399.9237338473089 C350.10518345763285 389.1488030786773, 349.90794603065626 378.8449459358406, 350.3016225927786 350.28739071516486" stroke="rgb(0, 0, 0)" stroke-width="1" fill="none"/></g><g><path d="M570.2882254071689 348.59508358962125 C591.0710602960585 350.751302444076, 611.8528662659357 349.62406534336026, 632.6849992087967 351.4574685622699 M572.5838711113291 350.3628468666916 C585.9625254857616 349.80796998694177, 599.4910519953847 350.48067648448887, 632.928691707478 350.85787860833227 M633.3084463027387 351.64524041841673 C631.6902023114823 361.70097907074097, 631.3992610897357 373.9652318687843, 633.4830688115709 399.5903237622306 M632.1398243949548 350.7666145360304 C632.9168339130065 369.85605548456476, 631.8358322717182 389.48546578734505, 631.1319012509468 400.25797920325795 M632.1700752736145 401.46000237927245 C616.997493278438 400.5092401992402, 602.1392130498457 400.75405636078756, 570.9744850324859 398.6796043070085 M631.1637861162185 400.2248907645584 C607.8375683765626 400.4606711600661, 584.1041475457686 399.89815502500255, 572.2144126153814 400.7020611973812 M570.7887681932677 401.5695665000614 C572.0979941878597 388.8330386418376, 573.7569886509663 376.23416501283026, 570.6607143602871 351.0718266060568 M571.449579467238 400.41164664378266 C572.0666895401828 384.64582503252836, 571.9824814730591 368.66065913746286, 572.3407071984248 349.5437565734695" stroke="rgb(0, 0, 0)" stroke-width="1" fill="none"/></g><g><path d="M350.99664940402744 600.3021542178512 C453.7632992986035 599.6886766065854, 555.9970328588222 600.0617653969487, 632.548172530641 599.623174116225 M350.2341681816235 599.2903596306719 C429.75470686773065 600.180173101347, 509.62137334239526 599.3360326115351, 632.2960535423613 600.546199485097 M633.8037482889955 598.2179908297591 C632.5921283156716 629.8422938242544, 631.5670078993858 661.7969240690018, 630.6127905656817 751.8037458431112 M631.3344931068573 599.6900964183562 C633.4921020117257 655.9467210405977, 633.1324363862695 710.6811780188544, 631.1404043580212 749.2427628809544 M632.1104014665569 750.5913716585045 C523.4749981720577 751.075733460543, 411.9324380585885 751.3966251738171, 350.48276799567594 748.5811292975811 M632.5362444969167 749.6697919443302 C563.6900623186508 749.3384735743591, 496.48970560659353 749.783388120122, 349.70449705578386 749.9136739682309 M351.3606910373718 751.6081616453552 C349.7908860833534 693.7225459450261, 350.70057466454443 636.5616033678499, 349.2307786135944 599.0830722001128 M350.3576454590809 750.5044387194463 C349.6024005544503 690.1189604020892, 350.3570367927229 630.7161903891298, 350.5794028818482 599.4551781426912" stroke="rgb(0, 0, 0)" stroke-width="1" fill="none"/></g><g><path d="M373.6832814994764 686.762121722567 C388.64624509281833 686.2122941159976, 399.2963440106581 683.4554173568721, 433.82794239414727 683.2339809139057 M374.19884624668424 684.3477136718333 C393.2538681366094 685.1323964390198, 413.62026504402553 685.2243518849773, 433.8547641787868 684.4354701104464 M433.03707448281466 684.6257099264994 C432.3601614582582 696.0954324062519, 433.82173837359966 708.470967387456, 433.6108529392461 733.9034738346564 M433.12499646238837 684.8437206304088 C433.2578030170703 696.5240476506996, 432.43277849079163 708.2424860163342, 432.091305660497 735.3404584415872 M433.07752563165934 733.284378936982 C415.9440005224164 734.2199930989191, 399.6234061988327 732.8870205650757, 374.0304914566434 736.352499276548 M433.91187247070405 735.956840734356 C419.5182318632877 736.20296052901, 407.4878417027543 735.7953622402958, 375.83072188680444 734.6377661388116 M376.0294906898342 735.0020016452822 C373.9167000098472 714.526278853982, 376.01480651423356 694.6624297873126, 375.66793298913143 684.9219063894295 M375.12346379119776 735.9121530798341 C374.9476002928683 719.7791033362253, 376.22062707397373 705.1288508032073, 375.0365141162297 684.8898982666371" stroke="rgb(0, 0, 0)" stroke-width="1" fill="none"/></g><text fill="rgb(0, 0, 0)" text-anchor="middle" font-family="Consolas, Courier" font-size="20" x="404" y="715">id32</text><text fill="rgb(0, 0, 0)" text-anchor="middle" font-family="Consolas, Courier" font-size="20" x="404" y="672.5">0</text><g><path d="M433.2026822912049 683.073979426608 C445.9395269834713 683.96548243942, 456.4335719465105 685.3316008651591, 489.0909652960301 684.2572888419026 M433.77962353277445 684.7689314610602 C446.0791884509116 683.8484129807489, 459.5435499521021 685.0296223995912, 491.03274349321197 685.5623109156562 M491.18817820179544 686.8387462421811 C491.79470510337694 698.6756452101394, 490.981692620435 710.0878260076711, 490.63425670600054 735.3190542644041 M490.55281981888123 685.1637070801908 C492.04314370503596 696.3468762280038, 490.6874832210362 706.0883398182717, 490.80763341319613 735.5064444414121 M489.5863631575102 736.6064774531305 C476.93358889437707 735.6967100030707, 463.91356088085934 734.1819472992511, 434.29008261275163 735.3160276554468 M491.41030386657576 735.9551236025711 C480.0049732164783 734.9349825436501, 466.74922944453164 735.3740611759139, 433.3044740672517 735.7588208113616 M432.7797294860195 734.6258666533952 C433.40791462711985 720.5876657749182, 434.0587959081879 710.9477620123812, 434.2233352031315 683.1328006305288 M432.1165899363463 734.2932630385883 C432.01150649069405 722.6631798527975, 432.114886376362 709.7828358715549, 433.9698177455957 684.5078833197218" stroke="rgb(0, 0, 0)" stroke-width="1" fill="none"/></g><text fill="rgb(0, 0, 0)" text-anchor="middle" font-family="Consolas, Courier" font-size="20" x="462" y="715">id10</text><text fill="rgb(0, 0, 0)" text-anchor="middle" font-family="Consolas, Courier" font-size="20" x="462" y="672.5">1</text><g><path d="M492.5411636580983 683.3607778243568 C505.2514044682078 683.7198572029674, 518.9809120902434 684.5103048954269, 550.5153201775312 686.729560042418 M491.3939979580866 684.3365145576565 C514.6159117895363 685.1074023866628, 536.8966588096814 684.5121572637288, 549.2690223186418 685.5819306379982 M550.7112615875976 684.1759778803453 C547.498775900815 703.0081725068286, 550.2139415852034 720.1017930698698, 548.1728014346953 733.8950406821137 M548.3695310989752 685.5233434271586 C548.9531267801741 698.9354407469698, 549.8236250095649 711.0219072947876, 549.0976143083416 735.7293181988726 M549.2844600802376 736.4411472219568 C527.1942970712388 733.1257609372984, 509.2852698693141 736.7185927948805, 490.4236860775733 733.4504149765772 M548.7400012924346 734.927590884316 C532.2082197592227 733.5431217580596, 515.6848234030988 735.0137065587827, 490.1496701017693 734.608236928488 M492.49866066752463 735.2871789362226 C492.2177981155094 717.4171722611561, 492.7755974795302 699.8123424905627, 489.72822812138935 684.1283796525132 M491.9003975261387 735.0521524454541 C490.99676825815527 715.1392755168534, 490.9426759219039 695.9118174919051, 491.4428966995482 685.8287524778862" stroke="rgb(0, 0, 0)" stroke-width="1" fill="none"/></g><text fill="rgb(0, 0, 0)" text-anchor="middle" font-family="Consolas, Courier" font-size="20" x="520" y="715">id90</text><text fill="rgb(0, 0, 0)" text-anchor="middle" font-family="Consolas, Courier" font-size="20" x="520" y="672.5">2</text><g><path d="M548.9020731250582 684.8212386984379 C567.8416255487523 687.0486670077082, 587.7750157215249 683.9407861774868, 606.449989237794 685.5482648790511 M548.0803662956864 684.7192092255488 C570.6921056394327 685.0928100746069, 593.6015564829743 684.3139096429466, 606.6307513878851 685.0595686327326 M607.0668935891503 684.0594748525423 C608.2914865460681 694.7880134723687, 606.9802707160319 706.1505610905158, 605.1180201734016 735.7753033831525 M607.5360258411034 684.9874995592904 C606.9370170168057 696.0714078390503, 606.754836507859 708.2100363543548, 606.3656754282472 734.8801038258309 M605.8532682969347 736.3288637354639 C592.1010020237926 735.8984061917881, 580.1514089506813 735.1814910217474, 547.1446627584828 736.9474465953741 M607.7821847082155 735.7861203900753 C586.9020200712403 734.7973251510246, 568.7754033491531 734.5602383618644, 548.228449470767 735.9909853776765 M550.3254655576648 733.355392142586 C547.8072780919582 715.3153428356571, 547.9616376684066 698.5560966657264, 548.6972247546935 683.4933777060904 M549.4594558890483 734.7060518479835 C549.5443321795325 724.7959586037722, 547.708282873441 712.6649919485783, 549.8584305347873 685.9275537410109" stroke="rgb(0, 0, 0)" stroke-width="1" fill="none"/></g><text fill="rgb(0, 0, 0)" text-anchor="middle" font-family="Consolas, Courier" font-size="20" x="578" y="715">id57</text><text fill="rgb(0, 0, 0)" text-anchor="middle" font-family="Consolas, Courier" font-size="20" x="578" y="672.5">3</text><text fill="rgb(0, 0, 0)" text-anchor="middle" font-family="Consolas, Courier" font-size="20" x="380" y="630">id84</text><text fill="rgb(0, 0, 0)" text-anchor="middle" font-family="Consolas, Courier" font-size="20" x="602" y="630">list</text><g><path d="M350.5488919396869 600.3028993947617 C368.1116725191431 602.0118372797253, 385.1432397333402 601.1957890764489, 410.26771777952126 600.6667635661324 M350.5162610871583 599.0410364119083 C367.9775654557765 598.8175446912016, 385.97469110872777 600.021762009441, 409.1976544458955 600.9813771595653 M410.194207095244 601.3988185014464 C407.6389682685364 618.6515434979935, 410.0818691741357 636.2050346985388, 410.8721251648667 650.4026514022688 M410.37573331858397 599.4764412465196 C409.62950567874236 617.3660010794132, 410.1660525957732 634.2329886535179, 409.30277767961223 650.2010125405187 M408.89078993005944 650.5075096061872 C391.4505658189308 648.5799806116213, 370.78541847151774 648.4335988843569, 350.97227813487683 650.5504690241415 M409.469666130948 649.4937861436913 C393.715392048088 650.2278596798992, 376.1424294290087 649.7243466326264, 349.5012840248641 649.5904485347933 M348.786522753165 650.0079386583508 C349.57389710888094 630.955100286638, 347.8981803984215 612.7814014744271, 348.2764912964917 599.8743864233551 M350.95276380189637 649.2884335162584 C349.05226859847164 630.223187440898, 348.91252164841046 611.0002978201069, 349.56136404606224 600.8539587645971" stroke="rgb(0, 0, 0)" stroke-width="1" fill="none"/></g><g><path d="M573.5612858654596 601.5666579549054 C593.6919768636986 600.0017385012051, 617.7702689849528 597.578651850702, 631.2244543897268 598.5326864355275 M572.7873592557643 599.2629093201434 C593.1155582624725 601.0611853257275, 615.7182715590965 600.147431519689, 631.250841746349 599.4363993220796 M633.4371821483503 600.5320721245444 C633.1955979510377 615.7947412350079, 633.5419101934417 631.6916285371016, 632.3439289754763 649.1799882952013 M632.6370872050821 600.0942280209139 C632.553740896574 613.8687831045407, 631.9659702158075 625.9797350074894, 631.7415636643987 649.2573630541934 M633.6668868770238 651.0820671677203 C615.8454421710077 648.9178200055372, 600.1035576334971 650.4928938938069, 570.2550920351016 651.9550143737133 M632.0771257364339 649.2684659275994 C614.9821557756828 650.4321865514322, 595.898500097596 649.9241465594012, 572.4259031616925 649.032726290839 M573.9281543475311 648.6037583765592 C572.3766866674541 631.3661213155794, 570.4101431757433 614.0355587213211, 572.6755450407923 600.7474527727599 M572.6187464927694 649.8847234671606 C571.5389876550962 634.6615076084153, 570.9987146356415 618.5985520064008, 571.8198686984232 600.5257933914229" stroke="rgb(0, 0, 0)" stroke-width="1" fill="none"/></g><g><path d="M748.6349857986598 8.384712576733683 C801.3729516859103 8.020423549990943, 853.7203877838308 8.111802205727345, 948.86730888167 10.605645814360223 M749.9585495955688 10.316497561387909 C821.4361322985525 9.034308936967143, 895.3293855920228 7.57081015352218, 949.1080584228109 10.88385846290637 M948.8946271739679 10.165538736431476 C949.3049260853563 46.28915398577014, 950.6492982546633 85.69959999252602, 949.8584981288948 141.36782984164807 M950.1635453300694 10.425703973083744 C949.2866378277005 43.19913258013438, 950.3215095529406 76.67486434584454, 949.8416046293946 140.26994840739002 M949.3378475208353 140.48783176753884 C898.0620543505322 142.23764541078828, 848.223835868091 140.18110159494756, 749.606271465842 138.6030898020715 M949.7830104255818 139.91095993404483 C899.2849661303848 138.36673800157658, 849.679454042681 139.01830380641564, 749.1461588379437 140.0923561224308 M751.5195848848597 140.66926432008415 C750.5724763412504 110.06494301658036, 748.4354725427194 83.55291373734097, 751.3366162037081 9.832473032262591 M750.9910706542513 140.80285446417187 C749.1800544421619 97.05139848552321, 749.5721178956356 55.94509076282281, 749.8067768382037 9.503968566360015" stroke="rgb(0, 0, 0)" stroke-width="1" fill="none"/></g><g><path d="M742.5392431966669 2.960793562935333 C824.3060591550891 3.953816162561181, 904.3868949323914 4.084278441844348, 957.3317786097581 2.9346109111680185 M744.4048859169783 4.42617389495764 C822.9464840299354 1.495198795592497, 902.8669352826169 2.3812000721697504, 955.7770846300517 4.068460512380336 M954.8661648122893 4.115894985409547 C954.7369530425634 46.41336005211181, 956.461707811076 91.31500884249874, 955.3572962427431 146.28226832794104 M956.598220627253 3.735957742441926 C957.5496297137331 45.48056217623734, 957.0703864395031 85.14803179151338, 955.58967074668 145.59936534009455 M957.6748308273669 144.78051860716 C912.8243229979627 147.1772178816205, 866.3881772237645 146.5565499547513, 744.7794807837715 147.6387279702491 M956.7761073125567 146.86407708577985 C902.557861850084 147.08794720981487, 851.4429141689085 146.86141184559995, 744.6777878891173 146.87766684152933 M745.8807253657433 147.52719777730448 C744.3100905240901 95.78223595400053, 743.1933377731721 48.230882907723554, 742.6369067284196 5.812215186794347 M744.668194373522 145.51653115497098 C742.6587757035614 113.79693787881551, 744.0165481680373 81.73719343855463, 744.5396205552952 4.49645772696307" stroke="rgb(0, 0, 0)" stroke-width="1" fill="none"/></g><text fill="rgb(0, 0, 0)" text-anchor="middle" font-family="Consolas, Courier" font-size="20" x="850" y="100">1969</text><text fill="rgb(0, 0, 0)" text-anchor="middle" font-family="Consolas, Courier" font-size="20" x="780" y="40">id19</text><text fill="rgb(0, 0, 0)" text-anchor="middle" font-family="Consolas, Courier" font-size="20" x="920" y="40">int</text><g><path d="M751.7941415096979 10.640401440544498 C768.6021670125535 8.59070541539645, 782.5741736558127 8.378015982139683, 808.2049045902181 10.567968720760447 M749.9101276977701 10.974887499955742 C770.186081535913 10.134974686565236, 790.3519634511018 9.965864981016882, 809.4085674149429 9.14028288910732 M809.554246887938 11.764101662310058 C811.8340208537638 21.412216959773787, 811.0479850870321 31.75010797629892, 810.6384633354825 58.335578552185545 M809.8039156065113 10.109892794353897 C810.1041026178531 24.971601175450992, 809.1212720350977 38.687953912876445, 809.9946919286673 59.99328186996284 M808.7660316310665 59.661602679743744 C791.6512261583848 61.398573171460086, 776.5090250213152 60.318922875199604, 750.4931515062433 59.89063659140479 M810.7292575356005 60.94510459053559 C795.6473463919983 60.701816370753946, 782.7081798093956 60.50737810668075, 749.4316140294319 60.14948682011228 M749.8832863245872 60.85593044394823 C752.2532667750276 45.846438949661845, 750.1424518614626 29.174067550561332, 750.5912275897122 9.665601744149072 M750.2054084500849 59.10765348088376 C750.9483381129386 45.05483576439531, 750.7881164386445 30.455700121241886, 750.2809858227253 10.583776367070932" stroke="rgb(0, 0, 0)" stroke-width="1" fill="none"/></g><g><path d="M890.7699456781694 10.062791837688525 C905.1184233762696 10.235306076483884, 916.2025510271205 12.187388749612051, 950.8373798269323 11.193876052806292 M890.923931647619 9.759738451669847 C902.0590091160817 9.86703351750143, 915.910936805634 10.280009104090952, 949.1891665532826 9.884833759729622 M949.2784624155373 10.925237683642235 C951.3096577930838 29.528659674142425, 950.7161965816883 47.94773255500225, 951.1507596437979 61.88240229182231 M949.7765502149831 10.31214701245827 C949.7996381624679 23.51094137340602, 949.8120509810113 34.989305614115544, 950.4155332578872 60.71739732918396 M951.657075161566 59.86990815523324 C934.3308526085627 60.566471835035884, 919.0789492390775 59.23004128444049, 888.2686015364799 59.24435674466647 M949.4883646841749 59.80508221048535 C936.9560725469856 60.208724563825996, 923.1852614414857 60.94658485146638, 889.6864148330455 59.17953718629299 M890.8942007962505 61.47703262582714 C891.4528551017335 43.025151794957466, 887.9322038721301 27.074026815616286, 888.9848298562106 10.051099499889563 M890.2386406028041 59.75989248323385 C890.5283737883939 41.027790471597775, 891.0292969520167 23.717236539018085, 890.5216857779733 9.177396596361406" stroke="rgb(0, 0, 0)" stroke-width="1" fill="none"/></g><g><path d="M748.5049415438775 251.09364038069805 C801.8755384023242 248.9238049785232, 850.1973789642489 247.75211420342242, 949.8300447064425 248.39323345603063 M749.284298680658 250.0338064887795 C808.550156876932 248.60348137138317, 867.6204417803108 249.46175045679055, 950.4789719736832 249.75954434961642 M950.9592629855038 250.48738104450774 C951.2302993005094 298.8044077923819, 950.8702496096766 348.6321933778546, 948.7452684495398 380.48109140372065 M950.2158305647603 249.7330115553302 C949.5916300941005 286.6197285500129, 949.5692862680868 323.9803286187757, 950.0398516170578 380.6443423762729 M950.0879272773852 378.96112844738406 C880.0442976238431 377.33540999429215, 809.7495882199613 380.4931951376132, 751.4004430918417 378.8650168778844 M949.8100044971679 379.3401765031959 C883.5395307747674 379.6085212357255, 817.6831945937047 379.6191191069065, 749.1303120117022 379.65824910703327 M750.3627015537962 379.36292285727313 C750.3876215778249 345.14295999331733, 750.2485340982903 307.23819923651865, 749.0397189957678 249.75247488984405 M749.0982649875428 380.1194432356795 C749.0664294696912 349.950515893372, 749.8760918847386 319.9555807423475, 749.6593525039412 250.21370011001346" stroke="rgb(0, 0, 0)" stroke-width="1" fill="none"/></g><g><path d="M744.7702492488237 244.345327092444 C810.0022055007103 245.0129493189743, 874.0051848559687 246.30888610362578, 955.9619173829526 244.39065356167802 M744.3499363366482 244.21021619717982 C817.5990993555928 244.85742017949096, 891.2720803050092 243.87709986558232, 956.5055001806301 243.59304201689872 M954.7147301228014 243.99062637089978 C956.9707418790189 295.15180872642065, 956.1106619415237 348.3784744256361, 955.0819565221093 385.0740164076574 M955.3831148430588 244.28395368890617 C956.16785635584 288.0441723362059, 955.6149383456687 330.55882326695445, 956.6843289186198 385.67145296666456 M955.5560893438499 384.4585384008572 C907.9102978679371 388.723903934617, 857.2712187461715 387.3568864151667, 745.0902266608031 384.64677198165555 M955.8385894576344 385.14892717327774 C880.7992500510094 385.93576834175167, 803.8679283701669 384.9705596688666, 743.4894418081232 385.59277420338464 M743.7993021728141 384.463366271463 C743.9732465618667 349.8404567601045, 742.5214039868083 310.1402159869388, 745.6220836243639 242.62086845592637 M744.5872097129045 386.0477392182403 C744.2798583356364 357.7213825803596, 745.1811435864979 329.4865779038968, 743.5631654560761 244.20975590174663" stroke="rgb(0, 0, 0)" stroke-width="1" fill="none"/></g><text fill="rgb(0, 0, 0)" text-anchor="middle" font-family="Consolas, Courier" font-size="20" x="850" y="340">True</text><text fill="rgb(0, 0, 0)" text-anchor="middle" font-family="Consolas, Courier" font-size="20" x="780" y="280">id32</text><text fill="rgb(0, 0, 0)" text-anchor="middle" font-family="Consolas, Courier" font-size="20" x="920" y="280">bool</text><g><path d="M748.6869260052096 250.18355534466374 C766.9253832363194 248.95122434520084, 782.1081373569893 248.98527318854414, 809.1765049807419 249.24073331928403 M749.1149091497576 249.47786780758182 C764.694517064382 249.6314389026095, 777.8370205406917 249.6684455600152, 810.0180143189314 249.592510549311 M810.1865539802535 250.90875519687305 C810.8387035802659 261.865974270121, 811.591783842021 278.18009152578463, 809.3910834413905 301.1478325334555 M809.2693496003544 249.6206065579854 C810.5256424143269 265.9089091735773, 810.123776775194 280.00631728859213, 809.6623388086673 300.43289626669593 M811.9530957110409 301.130450293149 C790.7117790584164 299.10497888284414, 774.9470006393667 299.9709841365017, 749.8715887886747 301.69669390233355 M810.9875195188695 300.3816813536781 C791.3619225669545 299.5526690541614, 772.347864351322 301.20904095897146, 749.5807954484089 300.6824285632347 M751.3336226432459 298.0737713014885 C750.3505680713118 282.5115284760192, 748.2419586094331 265.65147211862507, 749.5235091166742 251.57561006357366 M750.5813758048932 299.7112227905629 C750.2932218842305 283.106687145389, 750.7912656825928 267.3889671817691, 749.7473341154814 249.25638745441694" stroke="rgb(0, 0, 0)" stroke-width="1" fill="none"/></g><g><path d="M890.949802497662 248.30135935648642 C908.8661787397382 247.75865377411034, 928.0503066328171 249.22702232150522, 951.5606273234766 249.7602004808809 M890.4379889456543 249.97798171581732 C904.984557016113 249.8677945238946, 920.9145273488399 249.3419912391783, 950.1075941567302 250.32181267605563 M949.2539532619437 248.55814308210833 C948.3827241509332 261.77439769810445, 950.0341005727776 277.54907436725233, 948.7440515190829 298.5601766382761 M949.1633253217325 250.8356879902541 C949.5398183195321 261.0846844202645, 949.6875888055994 271.14139851034133, 949.7189942676821 300.57514620609254 M950.5500059737193 300.7565611520276 C932.3996126095147 299.11875592231615, 916.546930290494 300.7461874878027, 889.3384129356627 299.3237856075302 M950.0313841175325 300.3016956545743 C933.1812274933036 300.084712366636, 918.069189332105 300.6975656285678, 889.7250156041587 300.12489657493205 M888.9423716978865 301.3372318214448 C891.5616085345434 284.87890495511016, 891.9728700794512 274.42534148163395, 888.3662053857028 250.07576572846187 M890.7012794553783 300.02480972666575 C890.2683578404054 288.8418824164019, 889.5479407234016 277.51818082727027, 889.2573079023631 249.65033766319183" stroke="rgb(0, 0, 0)" stroke-width="1" fill="none"/></g><g><path d="M748.4941732133286 498.78702239113807 C810.6645688312447 499.97628740984266, 874.312072169559 499.5498455891247, 951.7497643300889 500.9221426901173 M750.2337863383752 499.60062852234825 C810.3276382347111 498.4497776104311, 871.8193383510119 499.0382620445586, 950.6021975438168 499.9604707518976 M950.2077280319879 498.9885927296422 C950.3323475576838 547.112908383932, 951.2323041403245 594.715534103166, 950.3614138950923 630.5520546731816 M950.0232555124162 499.657173074132 C948.7538349534627 543.659316698527, 950.125330064827 587.6997974086688, 949.2956068854717 630.996060375393 M950.5653721705671 631.4216464166083 C892.3526602075832 630.764254381919, 837.149254054979 630.6811830428242, 750.8111264234999 631.191087450586 M949.2925797287262 630.8920886002725 C886.4680980692768 630.4750281940603, 822.9421780684378 631.3740627961167, 749.8293237427445 630.7327815886954 M751.7624953855625 629.5061481635975 C750.647688525437 596.3386775143233, 748.6450637152476 565.1099802455585, 748.8226768263949 501.6438692014247 M750.946607980943 629.8041075580592 C748.9587632349815 602.8245458860216, 750.5280433788331 576.8318898551647, 750.3500110795825 499.5368405142696" stroke="rgb(0, 0, 0)" stroke-width="1" fill="none"/></g><g><path d="M742.6030343239229 493.9220696359388 C792.6993576732456 493.66597612039874, 844.8798228029713 496.4020054446837, 955.0590843932524 493.2929984748914 M743.95688214934 493.6934283391482 C813.1049718713475 493.37711789887993, 881.2306667430036 492.79581221167757, 955.27850302074 493.52654539789444 M957.4372362680475 493.1262125221455 C957.3660615955259 550.1826293486898, 955.2368254552779 603.2533046912457, 955.1417296018975 636.5265042540576 M955.5585612190295 494.2030827704556 C958.2400200228064 551.3340701822442, 957.7646323279989 606.1744146466839, 955.5346276613333 635.0737443579415 M954.7829895429174 636.3688354849489 C874.1821911745853 637.1403943492436, 791.4285806722394 638.6492581129986, 742.7305391125496 636.5271514703545 M955.5331645081387 635.4172226642414 C894.8539873037641 636.9143406586916, 833.7397686817612 637.6165825821279, 744.0236591687544 635.6593231474318 M743.1463970922368 634.0374012323337 C741.3211428773305 600.2303113413241, 744.6065677747412 564.0511617098814, 745.9613194533139 494.2058060147021 M744.2342536727592 635.8711625157866 C744.7847032695714 586.9584339818041, 744.9387432749718 537.6531686310346, 743.9698296366631 494.2236420231852" stroke="rgb(0, 0, 0)" stroke-width="1" fill="none"/></g><text fill="rgb(0, 0, 0)" text-anchor="middle" font-family="Consolas, Courier" font-size="20" x="850" y="590">"David is cool"</text><text fill="rgb(0, 0, 0)" text-anchor="middle" font-family="Consolas, Courier" font-size="20" x="780" y="530">id43</text><text fill="rgb(0, 0, 0)" text-anchor="middle" font-family="Consolas, Courier" font-size="20" x="920" y="530">str</text><g><path d="M748.5885742389535 498.1274287257659 C771.1735893656573 498.6790428705439, 796.6345724697247 500.19499765973376, 811.583554916078 498.2116620879149 M749.8369746854746 500.8090804935883 C772.4749157999171 500.9549643188955, 792.6199467697302 500.5305652292069, 810.0456990923336 499.4501645072141 M811.5624882647959 499.92463958236135 C810.1508095773881 514.5166379219087, 808.4994995149507 525.4465257041154, 808.3098064868198 549.3687339283938 M809.1938347624272 500.48059591301177 C809.4357317076071 515.3613344939619, 810.0145332639534 532.429330448331, 810.1301014113958 549.192430371471 M811.7652115179434 549.8158834093857 C790.2250888983373 550.6746906560896, 773.12153243573 549.7124860387155, 751.5855091475481 549.4878292854713 M809.71325040221 549.4172813562808 C796.5846930215755 550.4303771303012, 780.9289121169335 550.6351886555217, 750.7589758441287 549.3095930706336 M750.3687428200867 550.535628421319 C752.0790026249208 535.7311344616952, 750.1467430518807 522.0678435192872, 748.3433300734624 499.6669098273721 M749.5739294566066 549.1091463943595 C749.0128099074084 533.5964410496671, 748.9507468153982 515.9995154085973, 749.3739739661958 499.3679472745838" stroke="rgb(0, 0, 0)" stroke-width="1" fill="none"/></g><g><path d="M891.5282947035487 501.3258993184668 C906.1164724088434 500.1648169816758, 919.2804303128728 498.54258913978, 949.7108824326934 501.4013346072701 M890.0014512184912 499.98718465133544 C904.226492675642 499.9980667846395, 919.9872909487334 500.11969800765917, 950.5019187339676 499.51466704193365 M949.8285582310342 500.0708069245095 C949.324188735316 517.4835356829311, 951.6228149976672 533.4292638635296, 950.5653911893396 551.6163160372416 M950.9797497753628 499.1861039109334 C949.116009258616 511.7546555867126, 948.6848810496468 522.5605492324437, 949.6031754162701 549.0636785116934 M951.2206913934032 550.9822055505268 C935.1985069031975 547.9587724638423, 922.7948433884897 549.2280835906286, 890.0604688639323 550.6613007789206 M950.4478929638519 550.7961298658234 C932.6418198475313 550.5853443452944, 915.2566035357277 550.7613882692725, 890.7593078239315 549.8519787939966 M889.9303677132486 551.9276084496951 C890.7458032282809 539.5719201866723, 890.1994516931337 526.797826802461, 891.323993892914 498.07161469362643 M889.2173495846389 549.597913680472 C889.0569852089322 532.3028426069486, 890.5287965875435 516.6005021057133, 889.5754275344474 500.85491777191027" stroke="rgb(0, 0, 0)" stroke-width="1" fill="none"/></g><g><path d="M1051.6701940692183 40.419194727099764 C1115.1352802859758 37.694055307573265, 1178.8101684241271 39.000362435916436, 1250.6361559865718 38.32469222942348 M1050.2257817787533 40.37801357544316 C1107.7071483737923 39.08682415593612, 1165.7272840170053 38.390948500175874, 1250.153753525305 39.86036369380901 M1250.6025188715846 38.702273426852564 C1248.7943064352146 78.74050572680721, 1249.3155670817814 120.02246901841036, 1248.3012495204514 171.87661538079192 M1249.4852553281714 39.32768868521572 C1249.849892587106 87.96033666060208, 1250.4867871403612 138.5848508886206, 1250.4811866154014 169.59740996848834 M1251.6702833118263 171.78138754908585 C1196.1025281678214 170.0076434594451, 1140.41275381571 170.91915470209625, 1051.3471801694245 170.10325337771292 M1250.2534500438724 170.83492248975756 C1172.596884283306 169.6784455941567, 1093.8270982482898 169.43494349890616, 1049.440418364455 169.81759210547634 M1049.499144764801 171.81826690266578 C1051.1766592933955 134.59837958227388, 1049.5055595492347 95.82997761720245, 1048.3689732366488 40.19648556007687 M1049.5782255738632 169.4086911437877 C1051.5596376688932 139.17635666383487, 1051.07128363402 108.73597423562981, 1050.307053717646 40.63263871716206" stroke="rgb(0, 0, 0)" stroke-width="1" fill="none"/></g><g><path d="M1044.3211814596482 32.38380516300094 C1103.1543715332289 32.76468635006768, 1161.2491941445976 32.3121351277582, 1256.2160880064189 34.24525329987006 M1044.6012610207679 34.58374838874167 C1117.070982017201 33.490134588290104, 1188.5040700859267 33.43613813418016, 1255.8548089878025 34.78556643746606 M1255.6819652685515 35.86590063927845 C1256.4243238548142 74.08329307594221, 1256.4356928266723 113.08918321703582, 1255.9735760836386 175.47728454714212 M1256.5879199408453 34.952174383905465 C1257.3490183951278 81.52780221087896, 1256.5917573385948 128.61333504031828, 1256.2462286484683 176.82480940665153 M1257.1970429944638 174.77009595845993 C1187.3609670944397 175.86152428483086, 1114.3187806671406 177.07567472162847, 1045.7359789275768 174.9209602517194 M1255.6738544437562 176.6163795537222 C1194.0529304587556 175.94049015419773, 1132.2849169658693 175.04123778565778, 1044.3434069324871 175.5712297951217 M1045.9839985081726 174.8212894765999 C1044.3984565555575 121.7113718411227, 1045.3933306112804 63.35085736349574, 1042.9159583262638 34.388493360974856 M1044.9067158825717 176.3449704194234 C1044.674146206862 140.9671743154044, 1043.3246366611568 106.68712814211135, 1044.2115325428038 34.299472448609976" stroke="rgb(0, 0, 0)" stroke-width="1" fill="none"/></g><g><path d="M1075.8677535396553 106.09012660784855 C1096.1935099288485 105.8168148586716, 1113.859882026855 103.40689222713057, 1131.1533599831216 105.87881694446034 M1074.6149358406974 105.71843182464755 C1091.4872042085374 104.35092610496447, 1109.0132818078453 105.03289819722775, 1132.4171639817387 105.3265613015031 M1131.6110978593822 104.66045958936768 C1131.5985369902965 121.74138473827243, 1132.4199317101416 140.50632400877205, 1134.1163044728057 155.1581019311182 M1133.5581652833714 104.4059275514909 C1132.455332627107 121.89182711008914, 1132.497819194724 139.53115656731867, 1133.5654084605378 155.6512433186326 M1132.11210577138 154.56707043587582 C1115.7740591280751 155.44309832301144, 1097.9623761738385 155.8080624800117, 1076.6959835930224 156.05317291710122 M1132.6884359729547 154.54173289692577 C1114.7409154000193 154.7060661406383, 1095.110790591041 154.68888520623594, 1074.3231321546834 154.56707092809506 M1073.4031973092333 153.8708213035018 C1074.9139581562074 142.537895084294, 1076.133797463136 132.11858405382162, 1075.186715590656 106.78612654609478 M1075.146772884972 155.52721282783028 C1075.0626953537624 139.57614562232868, 1074.7200153796823 124.5254879767055, 1075.0064861438284 104.26780221528453" stroke="rgb(0, 0, 0)" stroke-width="1" fill="none"/></g><text fill="rgb(0, 0, 0)" text-anchor="middle" font-family="Consolas, Courier" font-size="20" x="1104" y="135">id82</text><g><path d="M1131.2239042799042 104.75289871384138 C1148.033672180696 103.94205359562844, 1159.2899679823815 103.82801305266628, 1192.2371495974082 103.57897465636583 M1132.2730175971055 104.92444604112336 C1150.8014606318045 105.02601319278853, 1166.730411870395 105.15075220114083, 1191.7790111880206 104.22482423203274 M1189.510255358237 105.68423339695141 C1189.9243619641934 121.03047332063753, 1190.7158842166334 138.8405958801844, 1189.8456477077923 154.362651241506 M1190.8181049502657 104.11827306607147 C1190.9668389879964 117.91512336203479, 1191.2629417998655 132.21589681717447, 1190.0819118114484 154.0065876181439 M1191.885756121609 154.7942750764967 C1178.4869057005533 156.82765666141606, 1166.9953619587284 155.00943723468703, 1132.5864515367316 153.3101878114042 M1191.49522611415 155.4465036641066 C1172.5677426574543 154.06503394674627, 1155.1400685629126 154.0050376424769, 1133.1805517237005 154.38084974670286 M1131.5312327979736 154.08798918566686 C1133.488168540815 142.82101427692493, 1134.1031342583826 132.54178404070836, 1132.8264014333797 104.79818044099011 M1132.290537452681 154.86866214964743 C1134.1329439633305 137.15603829104805, 1132.7550907244474 119.47467735360571, 1132.0000821751116 105.75852620509475" stroke="rgb(0, 0, 0)" stroke-width="1" fill="none"/></g><text fill="rgb(0, 0, 0)" text-anchor="middle" font-family="Consolas, Courier" font-size="20" x="1162" y="135">id76</text><text fill="rgb(0, 0, 0)" text-anchor="middle" font-family="Consolas, Courier" font-size="20" x="1080" y="70">id11</text><text fill="rgb(0, 0, 0)" text-anchor="middle" font-family="Consolas, Courier" font-size="20" x="1215" y="70">tuple</text><g><path d="M1050.6187647411928 38.54306253174973 C1067.3476623218905 40.62498907650701, 1084.4921387872164 38.75720639672422, 1109.1386999052809 39.11273245785431 M1050.82103289183 40.47956548810616 C1062.88657743549 40.0187167674893, 1077.3283846820666 39.47579681259688, 1109.979650949781 40.1336576741536 M1111.737078570797 38.57652978725121 C1108.0848972211784 55.078074026621266, 1108.955187614657 69.96064971679866, 1111.909226770648 91.02000962986254 M1110.6505812411117 40.439050211058394 C1110.317558017278 55.847345913844755, 1109.4676525622428 71.64187664113206, 1110.1157388310155 89.10682123394643 M1109.425604584418 88.15884005734931 C1093.393398769476 92.1706529226894, 1080.7173576013085 92.12523304708441, 1049.2279001313123 91.12967318344452 M1110.6113583200047 90.25708084139768 C1098.3533038338262 90.49396684955265, 1086.2375008853828 89.88474037591732, 1049.1504255271968 90.63798314775369 M1049.6195082243516 91.68586355208967 C1050.228551201135 72.88585792322786, 1052.1711085379259 56.60481400678629, 1051.8910554555953 41.99644790371459 M1050.1484197423872 89.14926083625639 C1050.2991521556842 76.70133316235153, 1049.5107744597708 63.539258965805736, 1049.3814296448936 39.981577593980205" stroke="rgb(0, 0, 0)" stroke-width="1" fill="none"/></g><g><path d="M1181.365652371254 40.00200559795383 C1193.6520416726028 38.52708591377359, 1210.8767252161035 41.406033544540506, 1250.757680858696 39.1393805539297 M1180.6966158047674 39.653467400785274 C1199.1208491596474 39.492528997096045, 1218.1343981950022 41.045176306887214, 1250.6048119169743 39.9904745237442 M1250.6783690329455 39.49799022116164 C1249.6598719544784 49.43473977998498, 1248.479423765432 59.96687164221326, 1250.9837353641456 89.11526145127365 M1249.6939563981452 40.14649392137293 C1250.9846945939735 52.94167483079906, 1249.0584830284722 64.57769540461206, 1250.1695004819017 90.3652279723907 M1250.4478401073152 89.16499843765487 C1223.189610808303 88.42866608123047, 1196.3371247876976 90.81465699352403, 1181.358588851611 89.1613871081481 M1249.5913261375106 89.24241909773494 C1231.3674660652903 90.07116808337103, 1214.4304842825236 90.20393366124749, 1179.843566751056 89.16246764233638 M1179.2072271130785 90.76129833051235 C1182.110475789702 78.94348377962072, 1179.061724186657 67.92107588723985, 1180.171526776067 39.749824992113304 M1180.752735829101 90.04395578087419 C1179.7664538478011 71.04799637351942, 1179.1594298977705 52.57925455093519, 1180.5969390067366 39.01465122621275" stroke="rgb(0, 0, 0)" stroke-width="1" fill="none"/></g><g><path d="M1049.6387344201703 260.6134785399551 C1130.595662002933 260.8410494744438, 1209.1483603305164 260.01237612480895, 1298.549395211375 258.8761558317 M1049.5284311969806 259.60842311604284 C1137.7894548331844 261.62657590194334, 1224.4254214438188 260.72902681526796, 1299.6001367075742 259.59205621838714 M1299.165350596453 260.01510270235707 C1299.6903500896726 309.4899770416122, 1298.1339207468757 361.0891726450058, 1300.3041641051088 388.20480779415 M1299.2059087321768 260.3967433778341 C1297.721842369705 302.79002222876187, 1298.4936772786969 344.24839120897195, 1298.1331102475558 389.1888881627513 M1297.8319316844188 389.3621908031711 C1210.2845424720128 389.19613013649774, 1117.942251035334 389.42338429119076, 1051.2698832180201 391.06318121048645 M1298.3464393167328 390.2016565087541 C1202.0668689857503 388.8391242006862, 1106.3410954404605 390.4081502136013, 1050.1525419644308 390.3348427711328 M1050.6244951239678 389.37212587364905 C1047.3889158550303 343.18029223419194, 1047.4881226157838 294.35210918009557, 1049.2526790031595 258.52601551011975 M1049.155773950656 390.43013341046424 C1049.5158752185205 353.7878383544021, 1049.375894665196 316.96919907586886, 1050.5821886933672 259.6949201719367" stroke="rgb(0, 0, 0)" stroke-width="1" fill="none"/></g><g><path d="M1076.180699253406 323.6180273928147 C1085.7496213675706 324.1790977490912, 1099.7842340260845 325.6632466263937, 1131.1515875626465 325.5457611192758 M1074.736647901373 324.8095706617999 C1086.256975555187 324.9086456514455, 1097.7324115036406 325.87919726016446, 1132.3124894987868 324.39275187412676 M1134.0804899677394 325.3198118125056 C1134.0802920213623 340.4017740720427, 1133.858542835269 359.17486241512296, 1133.8201381548913 375.35905520301253 M1132.6398106648219 325.9506876984177 C1133.927538422834 342.5900916147119, 1133.2322903582453 358.3838101426205, 1132.833921769349 375.80400228709635 M1133.8852780984867 375.479977281547 C1114.2466974765548 374.55514455874044, 1090.9588753224277 373.2919319881483, 1075.9257724473107 376.4886905871314 M1133.394688941696 374.75193820422834 C1117.856969954917 374.5534904181671, 1100.5319145958342 375.3501374702829, 1074.3546332386024 375.88264854411227 M1075.4845740335388 376.82665668442263 C1076.9978781917046 358.59034806976814, 1074.738887613625 337.2505107934077, 1075.3711475759358 325.92728567309473 M1074.9604452676108 374.32783184910784 C1074.6988041924128 363.38598584627437, 1074.3732406584904 352.3887927389457, 1074.3065074077456 324.84644444850477" stroke="rgb(0, 0, 0)" stroke-width="1" fill="none"/></g><text fill="rgb(0, 0, 0)" text-anchor="middle" font-family="Consolas, Courier" font-size="20" x="1104" y="355">id36</text><g><path d="M1144.8022830040775 326.23056923748504 C1163.8112308673808 323.94551477246677, 1179.354489350692 324.7603990264921, 1201.5148273990553 326.16920977657423 M1145.6571323955377 324.47042981223836 C1161.2262801749423 325.81135769296264, 1178.204745832709 326.2720719447384, 1203.934594760043 324.0449997016315 M1203.4272754676215 325.288517483437 C1204.7053832838835 342.1263714919089, 1202.4482519648222 361.2615962299206, 1204.6750950435 375.6094937697095 M1202.648461892979 325.5999425012846 C1204.0403987505476 337.8634290162701, 1203.3056775605405 350.77249576406683, 1203.975955095655 374.9334162186207 M1203.7223498532621 374.8673291596923 C1182.7113425606328 375.8926455321781, 1158.9291815888405 372.78459747588886, 1145.6833270051363 373.28995066309625 M1203.2757074141136 375.97815097418027 C1186.1987725154274 375.0226396833942, 1169.197251474939 373.6594891991698, 1146.0939931763746 374.57832374077304 M1143.5145228567974 376.6919081451113 C1146.3307954640018 356.74170706952214, 1146.306268902719 340.2156430946386, 1146.6779043117524 323.43162285735815 M1145.8371722966153 374.2958303434949 C1144.946432805498 357.79622252922115, 1144.9353513552226 340.50004923935853, 1145.206011455376 325.7881938007305" stroke="rgb(0, 0, 0)" stroke-width="1" fill="none"/></g><text fill="rgb(0, 0, 0)" text-anchor="middle" font-family="Consolas, Courier" font-size="20" x="1174.5" y="355">id49</text><text fill="rgb(0, 0, 0)" text-anchor="middle" font-family="Consolas, Courier" font-size="20" x="1139.25" y="355">,</text><g><path d="M1215.7391010227736 325.2198822521397 C1237.636864728055 326.3780003131183, 1257.01703673985 324.4605559321564, 1274.7498936103455 326.41031557683954 M1215.2858243926128 324.7490536447104 C1227.307386963543 323.7873571323533, 1239.1890638660784 324.1479174796159, 1273.1843073872017 324.66279613877794 M1273.6517799878043 324.36612152007046 C1274.4038496386443 345.83922238854416, 1274.5043498700907 362.2703733643361, 1272.1805051003535 375.6037605597728 M1273.8984761331237 325.52341040896926 C1274.9434492714702 338.04379730248235, 1273.514968491852 351.40045016297074, 1274.1541216735827 375.7277926930946 M1273.4083595422412 374.5198578391572 C1251.0015381016945 376.22848535775114, 1229.369323728148 375.54658190686047, 1216.75420786831 376.4817327936301 M1273.0531324693072 375.89827059110445 C1259.5344853400054 375.5241520719709, 1245.4772417247186 374.17755262358446, 1215.023112033553 374.4082783235652 M1217.8944235920305 373.72286488549577 C1217.614223825569 358.29151018398494, 1214.8267231679129 342.6834282352341, 1216.3151832167885 325.7595680092733 M1215.5785367991484 374.6916739792558 C1216.1296155099903 361.9603558937381, 1215.747836304602 349.5737379464012, 1215.1553689928094 324.87959595701165" stroke="rgb(0, 0, 0)" stroke-width="1" fill="none"/></g><text fill="rgb(0, 0, 0)" text-anchor="middle" font-family="Consolas, Courier" font-size="20" x="1245" y="355">id64</text><text fill="rgb(0, 0, 0)" text-anchor="middle" font-family="Consolas, Courier" font-size="20" x="1209.75" y="355">,</text><text fill="rgb(0, 0, 0)" text-anchor="middle" font-family="Consolas, Courier" font-size="20" x="1080" y="290">id90</text><text fill="rgb(0, 0, 0)" text-anchor="middle" font-family="Consolas, Courier" font-size="20" x="1269" y="290">set</text><g><path d="M1051.5901742756967 260.82400649892924 C1062.3797853428512 260.2046035984, 1078.081927602577 259.6026316193215, 1109.7716892140672 261.5293759797447 M1049.6378573535842 259.03619434988315 C1068.64806955765 259.4450847104711, 1088.7607134138523 259.7700155268161, 1109.071407743655 259.91374426468445 M1110.7093301218808 258.8992950017135 C1111.0170718944453 277.38744706638454, 1111.5170756127015 297.434290740693, 1109.6528752996685 311.76041776944675 M1110.6011851058495 259.0831213983093 C1110.5695886475341 272.8772182133353, 1109.3044375087254 286.7996230226015, 1110.448563215297 309.622625375208 M1108.230985836867 310.10718349876043 C1086.1558277241058 308.2230563898366, 1065.155536581163 310.443048352993, 1049.821533289645 311.8178763760533 M1109.5491888717431 309.3810849137545 C1095.0222273911882 309.1343318217561, 1080.890984751317 310.25938793841664, 1050.0064684534955 310.4483601642575 M1048.1137091386329 310.7977395798922 C1048.1703595262409 297.9047267912864, 1049.2248235999464 286.8709174259172, 1049.9150874830916 260.24100990145496 M1050.1561385352363 310.75088487074555 C1048.5642982743143 293.12727969571944, 1048.9694064062596 276.62143276724106, 1049.9864617029887 259.25671561078167" stroke="rgb(0, 0, 0)" stroke-width="1" fill="none"/></g><g><path d="M1237.4008122499197 258.7115667573222 C1256.5529567073056 260.88360923330464, 1271.5362499800663 260.69139145080874, 1298.0047978114005 258.2613148119695 M1239.0766659557733 259.8806220027119 C1254.6288836364456 260.56901946922625, 1271.572589426885 260.56549299367794, 1299.6926823709211 259.1533484635958 M1297.2038768369803 261.17812507729275 C1297.1763101081463 281.77229076176104, 1298.405805981253 298.1617353343434, 1298.5003243026476 311.0789149560676 M1298.975304858227 260.1846133107175 C1298.4894103407423 276.4091787460816, 1300.0699922809556 293.0485725360758, 1299.6837804879838 309.01945755608375 M1299.5251005197454 310.14137148073956 C1285.7694100289834 308.47922376803865, 1273.9573778295564 308.62304144586454, 1240.6324094240726 310.35856356436636 M1299.732929817588 309.9423776465016 C1281.078804399415 309.8564720147247, 1260.7094832764665 311.02922994775713, 1239.5902123734938 310.3881995029452 M1238.9664740491655 310.78405530025265 C1240.349636210254 291.66953037881746, 1240.834198074211 274.75190961774297, 1237.4639099390547 258.45988528915603 M1239.5089414197112 309.9220841965367 C1238.4382148866166 295.4066312692776, 1240.276448698195 279.91502369628597, 1238.443975041847 259.6236965441931" stroke="rgb(0, 0, 0)" stroke-width="1" fill="none"/></g><text fill="rgb(0, 0, 0)" text-anchor="middle" font-family="Consolas, Courier" font-size="20" x="1062.5" y="355">{</text><text fill="rgb(0, 0, 0)" text-anchor="middle" font-family="Consolas, Courier" font-size="20" x="1286.5" y="355">}</text><g><path d="M1073.3601062745797 574.7753586600162 C1092.908551358029 575.6437389409501, 1115.089184787786 576.5082236212445, 1123.0086112681145 574.1289785735515 M1075.5388745551013 575.8526673048528 C1090.0181699709633 575.6163552397967, 1105.3398152991883 575.3710513767269, 1124.6528771919495 575.6187024790208 M1123.6185844432991 574.9065114220451 C1126.6388278765132 589.8411109597511, 1124.5326077952318 603.5573737150337, 1126.6292503310008 626.4078188083562 M1124.037800603945 575.845789507742 C1125.9926456774604 584.7560765230493, 1124.7355831424445 595.6067921686816, 1124.970514072209 625.8081223241663 M1124.1665558867269 624.8696363512693 C1110.4471078138945 625.9230236926303, 1096.5398753270729 624.5203122983517, 1075.596707775256 624.2444394544649 M1125.8130854649476 624.3308606874144 C1106.6137808078415 625.8061202903276, 1086.7163269406963 624.6300084646502, 1075.2422943056433 625.2950059045536 M1075.2820315527385 625.5915604876722 C1076.1492165693544 608.7423472698282, 1073.658858793165 592.531657450788, 1073.4147350881701 574.5075605574921 M1074.6078784245553 625.7916862270257 C1074.5306273478966 614.6828893390193, 1075.70107553634 601.9378326899913, 1075.6872906987887 575.078718987404" stroke="rgb(0, 0, 0)" stroke-width="1" fill="none"/></g><text fill="rgb(0, 0, 0)" text-anchor="middle" font-family="Consolas, Courier" font-size="20" x="1102" y="605">idx</text><g><path d="M1074.716187837111 650.3514498053793 C1092.549654822075 649.6044052540085, 1107.5991004083944 650.4139088547018, 1125.1784192835692 651.1376675602618 M1075.7244119367283 650.9305975447725 C1086.019421216022 650.1536530861309, 1096.1633387373895 650.5624377329982, 1125.6081938255186 649.3609243618941 M1123.6277485260252 650.8575305127092 C1124.395891412412 667.2255686214365, 1122.9440924754863 682.8282638960773, 1124.2294100156485 700.610689661269 M1124.158132917786 649.981662023258 C1124.1939320538027 667.5938306285336, 1124.3684522568483 685.6883906407462, 1124.2887631652297 699.9333966697849 M1126.714785045939 700.9465115826035 C1107.537238006878 700.7046069323407, 1089.4698670287032 701.7425027108162, 1074.7543645633916 699.4321565534494 M1124.3800927071857 700.7017259483105 C1109.4645099252448 699.7160829180502, 1093.503379384491 698.7197393446706, 1075.2811457541154 699.4629670586896 M1075.7189677418426 701.2772381816297 C1072.746021159358 688.2252477022287, 1073.0285471330133 677.2016731612068, 1074.4926953369607 650.2558219703069 M1074.9442046680879 700.766153726468 C1075.4987418799585 688.2972235253338, 1075.1038184295332 675.0427495827387, 1074.5993183887647 649.7560366410399" stroke="rgb(0, 0, 0)" stroke-width="1" fill="none"/></g><text fill="rgb(0, 0, 0)" text-anchor="middle" font-family="Consolas, Courier" font-size="20" x="1102" y="680">idy</text><g><path d="M1075.9892031194536 723.6792147780802 C1088.6292760617023 724.5977302467363, 1105.8968870124652 726.9416379358174, 1126.3108346551865 723.6292872768646 M1075.575764775861 724.5150340553266 C1087.0562622492841 723.9593361130026, 1100.0475146097635 724.9956773940372, 1125.6308447222666 724.0596493197328 M1125.4317146450628 726.1204548938742 C1123.776286917729 738.687797234037, 1126.5799850586704 754.690531500427, 1123.4674141137264 775.2186702167921 M1125.730231018602 724.3381515265979 C1124.4454888385003 741.9268822380835, 1124.4439749879296 760.5084934671459, 1125.1489730821108 774.9448714644824 M1125.9195994002018 773.7557600955995 C1108.1678122354901 776.1159724836182, 1089.706769653948 773.0784826136145, 1075.4142955619513 776.4256116543717 M1124.4016200927142 774.6469164919781 C1113.453510363427 773.7381610648672, 1101.389156698546 774.876842948018, 1075.7568136544817 774.2836032928321 M1076.7040363661638 773.1249623596678 C1074.2360738184202 760.934121278068, 1076.7098700420056 743.7843741511534, 1075.703274718698 724.6740801061286 M1075.132199798243 774.5768303157455 C1074.8519829051384 760.4801215508708, 1073.679384625033 747.8416481815548, 1075.6161903656991 724.8900923139196" stroke="rgb(0, 0, 0)" stroke-width="1" fill="none"/></g><text fill="rgb(0, 0, 0)" text-anchor="middle" font-family="Consolas, Courier" font-size="20" x="1102" y="755">idz</text><text fill="rgb(0, 0, 0)" text-anchor="middle" font-family="Consolas, Courier" font-size="20" x="1156" y="605">:</text><g><path d="M1175.5415322358015 573.9953595131881 C1194.7406646982793 575.1379628086585, 1214.10257417863 575.3915233616153, 1235.363586062852 575.8466565354928 M1175.3645348265072 575.0642637293482 C1194.9283164830485 574.8260180708469, 1213.5750684195084 574.3736379857579, 1236.2977502301494 575.043301378599 M1237.8653327115217 574.0241986300566 C1235.8793708278642 591.1823037104995, 1236.946975680152 607.2692926059393, 1234.8485442905758 623.0509984804606 M1236.4323410886934 574.1136045851997 C1235.7330788857048 591.6813317080827, 1236.2662650809477 606.5823550759679, 1235.2246332878672 625.9090749638867 M1234.657301682785 626.7952567189767 C1221.0960700337755 625.8852471920762, 1205.3574269688672 623.9369660945946, 1176.0432062900056 624.615989683257 M1235.4152935246623 625.5834144551235 C1218.2190854041194 625.851005902499, 1199.9662570616485 625.5978515485356, 1175.4070149910513 625.9778716717775 M1175.1104622793962 625.7401838071561 C1176.2654184300752 604.5992530797834, 1177.1340460202866 587.0132065043105, 1176.1268666323072 574.8412538374511 M1175.7200114095 625.3154761355522 C1176.6931379902207 610.2393315254541, 1175.5039848495458 595.0677937729073, 1175.3374089346487 574.3791317859077" stroke="rgb(0, 0, 0)" stroke-width="1" fill="none"/></g><text fill="rgb(0, 0, 0)" text-anchor="middle" font-family="Consolas, Courier" font-size="20" x="1206" y="605">id81</text><text fill="rgb(0, 0, 0)" text-anchor="middle" font-family="Consolas, Courier" font-size="20" x="1156" y="680">:</text><g><path d="M1177.9886896646512 650.6648303839652 C1190.5985068338273 650.4359732826376, 1207.2455226928212 650.6878697248842, 1249.3191038907685 650.8297094767762 M1175.272719158497 649.2813039930371 C1204.8630119544034 649.7879318324834, 1232.3488197782165 651.0177274017873, 1248.2122687823908 650.7724398513585 M1247.119216531525 651.0344875261754 C1249.3223470554458 659.1665111052498, 1249.757234375367 671.3229759533994, 1247.6642741441406 701.8350743548182 M1247.8402345215957 650.8581878304531 C1248.3140103208582 663.3891696317311, 1248.4344632860882 675.1437362900788, 1248.4256075522044 700.6175201917343 M1249.8958013951444 700.4589290060212 C1221.4236673481646 699.4624519205629, 1197.1801526943195 700.4908045337484, 1177.2961779029345 701.8179462873015 M1247.437886070606 700.3575282358127 C1219.9552233758327 700.7612158825934, 1191.822054022927 700.9036276710781, 1176.445066740584 700.3713040312953 M1174.6094804273982 699.1055578459631 C1176.1402156511006 683.4846381905833, 1177.7521994941028 665.4035444084734, 1175.0830114855255 649.9631015057643 M1175.3804089231658 699.9753917916563 C1176.4715726087024 688.8195740158019, 1175.5243673525808 678.6152498194939, 1176.6185984673432 650.8950807473307" stroke="rgb(0, 0, 0)" stroke-width="1" fill="none"/></g><text fill="rgb(0, 0, 0)" text-anchor="middle" font-family="Consolas, Courier" font-size="20" x="1212" y="680">id100</text><text fill="rgb(0, 0, 0)" text-anchor="middle" font-family="Consolas, Courier" font-size="20" x="1156" y="755">:</text><g><path d="M1176.7497609306492 725.4311340830465 C1198.4643249292926 726.6649769291474, 1217.4747292775912 724.4185161330224, 1247.7661392420873 724.8273155077459 M1175.3378355114166 724.947871292637 C1201.9661068294722 725.1069960118866, 1228.425774228511 725.3698775557526, 1248.2371240973898 724.3552629746193 M1249.479900368704 724.2926514805876 C1248.853658063599 737.4977599675259, 1246.7188331549683 751.4709305917547, 1246.4048739942154 776.7986758618357 M1248.2634737412636 724.6029964110995 C1247.481353952969 743.1331776549468, 1249.3174174196117 760.0859987372293, 1247.030094108528 775.6454107540345 M1246.0533632831252 773.9934362132451 C1223.2514703549473 773.9704114101195, 1199.780887168691 773.5913580160561, 1177.9859257747771 776.9966026055207 M1247.93727319828 775.3260696211744 C1219.9571373348208 774.4313232596447, 1193.1015457334781 774.5038124131707, 1175.128316480758 775.8837728338946 M1175.0830438519845 774.007966881684 C1174.435567406915 761.0871220666978, 1175.9264175632547 750.5733727900652, 1175.1282888928317 725.0764168110679 M1176.9338603475128 774.6691016622283 C1176.5894774351382 755.5161819636436, 1175.6575842228494 735.5307009810347, 1175.8294645828512 724.167654497773" stroke="rgb(0, 0, 0)" stroke-width="1" fill="none"/></g><text fill="rgb(0, 0, 0)" text-anchor="middle" font-family="Consolas, Courier" font-size="20" x="1212" y="755">id121</text><g><path d="M1049.454033823 500.02131619123406 C1112.448041042157 502.2086340876305, 1175.3691830692158 501.9383070372141, 1263.5198636369162 499.0998745837004 M1050.4273999785867 499.4131258950622 C1131.0936626888852 500.55583953234753, 1213.5740981603567 499.7458109695535, 1261.2709478278407 499.7899066717487 M1262.7460770686944 500.9489460433434 C1260.677450281392 611.2788822820108, 1260.832712056121 722.9411456487987, 1263.1338989703884 800.6838199008412 M1262.0017079593388 499.6929160055827 C1260.7936842862468 600.6517369062777, 1260.998506424044 701.3115248516193, 1262.0135187071373 799.4367425304181 M1261.6710185805455 801.3864742591584 C1192.8716111107094 802.5655787076422, 1121.9538199886395 800.4081331154803, 1048.875456455599 799.8054751873444 M1261.4430244453838 800.1142853525977 C1201.9800181825935 800.7584749511315, 1141.920722584278 801.1114445455794, 1050.3043627005975 800.3531749601781 M1049.7297043342078 799.0038047063989 C1052.116637901442 716.1592343006281, 1051.3196554855726 632.5382846722614, 1050.2975600373825 500.01857371186054 M1050.3473676407925 800.1451618304711 C1050.2374643951516 699.5324037694257, 1050.3772827286016 597.7924825292325, 1050.4228406022637 499.64279278485134" stroke="rgb(0, 0, 0)" stroke-width="1" fill="none"/></g><text fill="rgb(0, 0, 0)" text-anchor="middle" font-family="Consolas, Courier" font-size="20" x="1080" y="530">id10</text><text fill="rgb(0, 0, 0)" text-anchor="middle" font-family="Consolas, Courier" font-size="20" x="1232" y="530">dict</text><g><path d="M1050.6403178158387 500.25771662917117 C1067.1644391897946 498.2632088542715, 1082.5793827722591 499.7567762576409, 1108.682023834163 501.91620604580095 M1049.1035950945306 500.5694652925908 C1065.6395159914964 499.7264491716127, 1079.738227252155 500.1458579598057, 1110.0357503074463 499.13485500645663 M1111.4936267401802 500.01437115441576 C1111.786392972554 517.1713132766251, 1109.1513175277828 537.0978297401191, 1108.2167979494584 549.9736285270161 M1110.2477632282728 499.95013407675526 C1109.5045599285331 512.3199643041988, 1109.0921825222983 522.7448050646871, 1109.9488501743406 550.2916222934603 M1110.1801748431735 550.6317885244066 C1091.4789544388152 550.0164716207594, 1073.161094828766 548.7387399496271, 1051.777025535797 550.4223796327445 M1110.1196713274696 549.0130494963608 C1097.4368848143997 548.9543391909311, 1084.153885088062 548.8518686441158, 1050.135106060107 550.7864802599616 M1048.6246790591442 551.9726922726113 C1049.8020252330798 539.7311936720581, 1051.0951582782136 528.7870553343148, 1048.038737142641 501.1960805185345 M1049.1850180262884 550.8505688573765 C1050.8654014414362 539.1629288938454, 1049.4972782081313 528.9983618091761, 1050.77107575779 500.4161132906762" stroke="rgb(0, 0, 0)" stroke-width="1" fill="none"/></g><g><path d="M1202.3962897157498 498.6345101608735 C1224.550158997602 499.5826725151636, 1242.9314006748316 501.3053182786382, 1260.1909479000917 500.0619141950446 M1202.311404722972 500.1348452001801 C1220.6692816715645 499.85389329996474, 1239.3613481978139 498.7202532308321, 1262.65841251483 499.92839491399667 M1261.1596231524154 501.28402947411456 C1263.6405083481507 514.27275048865, 1260.535856959257 529.7220515343791, 1263.9032467178008 549.0382909108863 M1262.9633340513665 500.43659524306327 C1262.2708145256338 519.0821310158402, 1261.6023489087825 540.5035212684702, 1262.6354580658979 549.321701301191 M1263.176736559895 550.733085608019 C1241.841932777062 548.3531990463272, 1222.2675214307521 549.8040640383033, 1202.7496933740356 549.9389761678749 M1261.0164279404582 549.1103627878454 C1243.4937939753852 548.9401982200849, 1225.976464775393 550.3258124930154, 1202.1920285695944 550.1616642282447 M1203.6510608797114 549.5339825942422 C1203.9371986440362 539.1137475088858, 1201.9872305735287 528.2750692104702, 1201.7072494386957 501.44525013572706 M1201.2443893055815 550.0080642490027 C1201.976961299346 531.6250955378978, 1201.020417974689 515.2133357400946, 1202.2990837535392 500.35372485402524" stroke="rgb(0, 0, 0)" stroke-width="1" fill="none"/></g><g><path d="M749.0420499696351 750.4681782589515 C815.4256669742986 749.7106188103642, 878.6791656202024 751.3830335199439, 949.3270928341439 749.6505439598269 M750.6297208483377 749.9089726521539 C813.6356156034309 751.8720382378044, 876.9255887647582 751.3901843316303, 950.0757742530989 750.1324697450003 M949.8387359803819 750.636399199124 C951.5940509903352 800.9290127483895, 949.3804743718795 848.8808313313515, 951.1782237496735 880.8381684982501 M949.302815482829 750.1599808508273 C950.2942695957798 798.8798954203471, 951.2997408734243 847.9886423186564, 950.6429963506383 880.6377276101163 M950.8465119553979 878.6389627202173 C895.2077451446804 878.218522632061, 840.5726705132591 878.2934245440183, 751.5887228729518 879.1251711741392 M950.8245971010779 880.8457910340338 C890.2146287603413 880.426744540152, 831.5246625349391 880.3767945150777, 749.5446532201677 880.269659078371 M749.7167009420516 880.5182774916252 C749.8441677078846 835.084705770076, 750.5610719896503 788.0912130503691, 748.4869171020164 750.5906469399354 M750.8507852054297 880.5748620425511 C751.0999610099905 832.6775326039316, 750.2242361869531 785.742760053857, 749.2721698406208 749.0962145755287" stroke="rgb(0, 0, 0)" stroke-width="1" fill="none"/></g><g><path d="M745.3557618314428 743.6163221458715 C809.5652497704253 742.5634999184157, 877.2375571132462 742.3325455006902, 957.3310392810533 742.8944180930619 M743.8138764967335 743.7863401282901 C804.2366433729429 743.3354717940554, 863.5794846353077 742.9414232051572, 955.5395353033921 744.8635763196481 M954.4835578194495 742.7754261162704 C956.3446544307546 795.7704284206477, 954.4329530898517 845.8539273826145, 955.8622289442752 885.4438242554395 M956.9089899124251 743.8686576948716 C955.279880329647 781.6597533572337, 955.2846681649431 818.6587223534922, 955.1072279073553 886.7732029313429 M955.5278700842955 886.3940983733823 C896.1803961723621 888.0571925445438, 838.187463027737 886.9756658058963, 744.477328734538 886.6448511070998 M955.6424819602339 885.5732255767 C905.6013050970597 885.7408310601139, 854.9780662313846 886.2341262010912, 744.7207467215327 886.6061033445014 M742.7229732853796 885.820006121928 C744.3469016372713 841.01508193678, 742.094128218285 794.3076612759859, 745.6086559651695 743.9330859940619 M743.2904926292189 886.229763366388 C743.4984952015938 835.3432077816055, 743.1360836723717 784.3176335681337, 743.3135279890383 744.5721367172736" stroke="rgb(0, 0, 0)" stroke-width="1" fill="none"/></g><text font-style="italic" x="850" y="840" fill="rgb(0, 0, 0)" text-anchor="middle" font-family="Consolas, Courier" font-size="20">"None"</text><text fill="rgb(0, 0, 0)" text-anchor="middle" font-family="Consolas, Courier" font-size="20" x="780" y="780">id13</text><text fill="rgb(0, 0, 0)" text-anchor="middle" font-family="Consolas, Courier" font-size="20" x="920" y="780">None</text><g><path d="M749.8073266981963 751.4342614995489 C761.8214194774732 750.4825255801195, 776.8735995489434 750.0591972995007, 809.7173224426285 748.1289953033161 M749.8363728986385 750.4279814287186 C769.357947873981 750.4565251777813, 789.0401755831754 749.533461378059, 810.0798627935071 749.5305665230231 M808.8138195459735 749.4703741436015 C810.2036428838163 760.2490866317435, 809.2348742419995 772.3517025432692, 810.296809276436 798.4237915802153 M809.2302220444917 749.872668254373 C809.1471106962349 765.9002221049446, 810.7073059791925 783.4463878118002, 809.6679131945175 799.4549636917302 M809.0058840451852 801.6155504213449 C791.3935573994128 798.7437680452332, 771.541193153492 801.893657966778, 750.2026476132125 801.2932379865447 M809.7826307135867 799.4197210796705 C792.0301418465771 800.7728771066802, 775.3205476291923 800.1627745380721, 750.5498237432228 800.0663365851866 M748.9491176620417 801.4719441558643 C749.7292268972484 783.9766653530114, 749.5060024073956 772.593268886232, 750.7345690842523 751.2811211191311 M749.7114015070703 800.8407527536579 C749.5642461500904 780.1610180949472, 750.9253924355228 761.9561365852568, 749.3671983901353 749.9722092704989" stroke="rgb(0, 0, 0)" stroke-width="1" fill="none"/></g><g><path d="M891.8284869098696 748.2657648509312 C909.0294320433586 750.6995958102005, 926.6878946307367 749.3435886627857, 949.0116714461985 748.9462819694446 M889.6214072413243 749.309709810637 C911.4213699018281 750.1660465144237, 933.9885777345049 750.8421846041372, 950.5541875107765 749.6770943281824 M949.7439168804927 751.0447059041843 C950.2861816564372 770.6612993834818, 949.3468250364585 790.290559034642, 948.0622543360654 799.1672739777139 M950.8588580703291 750.5656065129464 C950.7503807826305 765.0428577417381, 950.5351713333888 780.997752671767, 949.6562641174276 800.1672051049416 M951.9313642147359 801.5118734395807 C931.3725602792525 798.1583266281662, 910.3812969485678 798.4771865347931, 890.1055768162303 798.6050990020373 M950.5710353180464 799.3663386130189 C937.6029524709362 799.9731100791482, 923.688860060134 799.2243793129178, 890.2060348778355 800.3282897742223 M888.7219654744988 800.2541343850961 C890.1748017537252 787.4117850635416, 889.1047401294504 775.3198061138297, 888.4314451012516 748.9739754712592 M890.2116686108023 799.8991455941657 C891.2014276244897 787.3110514830588, 891.2841183956401 774.4721287829083, 890.1558898402777 750.5001664817654" stroke="rgb(0, 0, 0)" stroke-width="1" fill="none"/></g></svg>