<svg width="1300" height="1055" xmlns="http://www.w3.org/2000/svg"><g><path d="M20.502177320047753 31.892695316175715 C96.99879029260354 28.673726331508703, 173.2271358202905 27.568374496903797, 218.9325658632829 28.82193734993495 M20.832670537228093 30.075692673409673 C86.19793430653678 30.87401629293484, 150.9572081944594 30.097446869246106, 217.20782219131925 29.331385441347297 M217.04966770514125 30.898937297329788 C220.01964157110154 135.64586108315714, 219.52219355534916 240.345944328234, 217.79896576122562 479.3405017321243 M217.89540848607578 30.431525200408032 C217.87491527601446 131.30686954516176, 217.9624855426865 232.27034839409157, 218.30348851567229 479.748781152667 M217.78330390062496 478.8430760565487 C159.63315664045334 482.8072694192094, 105.82103717471699 483.1236170626588, 19.800184477731932 481.3584739000452 M218.53336659880642 480.65067006634996 C146.96486758087357 479.3899993087536, 77.45451675675571 478.1325968286619, 19.04251030533746 479.74812475320624 M20.800064885663076 480.2637389418952 C18.432153117597093 360.9869412807736, 18.53045428807632 240.05797525275776, 20.335062581606135 30.749543553997064 M19.957775395280404 479.6227747347373 C20.618137176834033 358.7748610511262, 20.665300226439083 237.3881090427707, 20.302768749471994 30.47717910000289" stroke="#000" stroke-width="1" fill="none"/></g><g><path d="M144.57456210612511 104.49518741826245 C160.86109957554166 106.08870908248025, 176.936893697691 103.12574966583576, 202.478790344241 105.00926850674838 M143.088167334909 105.16640494788052 C156.58495900621463 103.59648684188545, 170.7110208397204 104.18678258096644, 200.6429381774046 105.69214245402469 M200.59385078090344 106.16113184973173 C202.87377671874458 121.71084166615279, 202.75901690512995 137.9471229351493, 200.300600436607 154.5061170369934 M200.7416717630766 105.9922306151742 C200.66388456601757 118.16394223192223, 202.15034439414734 132.96915282579243, 200.47912156979615 155.18366212389603 M202.23043823379544 155.46327420988845 C186.0212609067213 156.51533753400818, 171.13568591513445 152.74269123770648, 141.53563049926117 153.5891513916022 M201.95518458607052 155.11213091411102 C178.63358626314732 155.61264818542907, 156.94166947877673 154.99322862864653, 142.7657546687956 154.9499427093614 M143.6463153096038 153.3586979795111 C141.38172476572635 139.87304682154945, 142.57376404716058 129.60249679224864, 144.6638218480373 104.67888327924697 M143.65298615414562 154.5896174801173 C142.80764514869813 145.2993515574228, 141.90895021088932 133.93017977453596, 142.89293488698635 104.25032100271714" stroke="rgb(0, 0, 0)" stroke-width="1" fill="none"/></g><text fill="rgb(0, 0, 0)" text-anchor="begin" font-family="Consolas, Courier" font-size="20" x="45" y="135">lst1</text><text fill="rgb(150, 100, 28)" text-anchor="middle" font-family="Consolas, Courier" font-size="20" x="172" y="135">id82</text><g><path d="M143.33083187569375 180.9237047282207 C156.86975981173583 181.7493071018137, 168.5153043192589 180.48984479607472, 200.22327423811493 181.72748714961696 M143.73529057314468 180.99720373507617 C156.38077705863518 179.8889124976499, 168.71433830789258 179.0664708896825, 200.23425312220346 180.63814590090004 M202.4699613849379 179.35419553151388 C202.8688121428019 191.49417510545172, 202.98200294647648 200.38385422552622, 201.61988848052135 229.6935815491731 M201.64357552136826 179.51788457843665 C200.91057066865793 196.0667361940756, 201.0683788224286 211.10483480177834, 200.45573398295508 230.0164820765398 M200.43177249570107 231.07718653090419 C178.00670875086763 231.8256518858502, 158.0217521548697 230.20005386057252, 142.8601662487716 229.30632336670644 M201.51948035482965 230.0541924929141 C186.96704873548003 230.9073066439713, 174.9453880959748 229.65308065001545, 143.16913872642456 230.68859410902442 M144.19128526970968 230.30891732908168 C141.59973671753505 215.83702848308388, 145.00037108264212 202.18110915846256, 141.65922455206027 178.48106239739474 M143.4091549142682 229.88570448773572 C143.86109894344816 212.61100421764192, 143.93001222571002 196.39927393489327, 143.94305727831392 179.792969791608" stroke="rgb(0, 0, 0)" stroke-width="1" fill="none"/></g><text fill="rgb(0, 0, 0)" text-anchor="begin" font-family="Consolas, Courier" font-size="20" x="45" y="210">lst2</text><text fill="rgb(150, 100, 28)" text-anchor="middle" font-family="Consolas, Courier" font-size="20" x="172" y="210">id84</text><g><path d="M144.66869370407827 254.20922337500903 C163.67951575161206 254.38807721445932, 187.61429753114663 255.47029658158826, 200.3796380127881 256.04398691255034 M143.62966969732403 255.73914893327918 C157.58780499279112 255.52955388601848, 173.63634569209452 254.29028611240147, 201.45240435385625 255.91184672343994 M201.58750829353679 254.46024008282507 C199.32946897369192 267.1690183132729, 201.2651352930286 276.8412464426856, 201.16481241531343 303.5892039047185 M201.2713737907437 254.46586708619793 C200.87201734866957 272.40606980637864, 200.75143270995125 290.0845504043736, 201.93834015436767 304.36353909077974 M199.06533327203968 305.78220009420806 C189.97784735367662 306.9588447217667, 175.89356165482977 305.8737281561441, 141.75262305303497 304.87109036460987 M201.34154374041432 304.5213125273586 C188.09156262488563 305.1453742776113, 176.02364750718323 305.64428469098095, 143.73959405610293 305.7036105765213 M142.99152545598432 304.38808495448893 C142.35847249863318 293.4040439108543, 140.9708133077049 283.37735273259256, 142.96106182752007 255.3217230858023 M143.48966817734672 304.0583399608881 C143.06603597131965 291.3291395289613, 142.9009086172395 275.91427320354353, 142.21868994312916 254.24188890122144" stroke="rgb(0, 0, 0)" stroke-width="1" fill="none"/></g><text fill="rgb(0, 0, 0)" text-anchor="begin" font-family="Consolas, Courier" font-size="20" x="45" y="285">p</text><text fill="rgb(150, 100, 28)" text-anchor="middle" font-family="Consolas, Courier" font-size="20" x="172" y="285">id99</text><g><path d="M141.78122195695119 331.50409714252476 C163.40855266351537 329.0120340259073, 185.83525783235476 328.33097317837513, 199.7126454655528 330.594229514164 M143.29028522285233 330.37292209036883 C164.40112376919643 329.75497041406555, 184.78202415119105 329.9044897837507, 201.67329770704674 330.94816748644024 M201.24499623150902 328.19430635249915 C201.11060843803185 346.6926137540575, 201.71913054691487 363.07419126004913, 199.58093452809857 381.014664177773 M200.52757986281375 330.2518743684082 C201.01910925703834 347.5210981740836, 200.97980986216027 364.8052106046729, 201.5031999905041 380.53461431182126 M202.97509014940786 380.40584309265 C177.34979371933338 378.30095387871415, 157.51666590727828 379.3488576111774, 142.99773195930672 378.7788839592146 M200.37231953609876 380.3053673146533 C188.83152459278284 381.04965823055386, 176.00312802736138 379.62194591975265, 142.55927790365934 379.9395361244178 M141.10562419331205 378.05182542180916 C142.60038150466963 365.21558784387935, 145.12647274760096 354.17865957435777, 143.26860501097912 328.4621884253286 M143.13397653487772 380.3042662124123 C144.19266522117272 362.4625355981802, 144.2431705955982 343.09198481600174, 143.03371593359813 330.1648417860829" stroke="rgb(0, 0, 0)" stroke-width="1" fill="none"/></g><text fill="rgb(0, 0, 0)" text-anchor="begin" font-family="Consolas, Courier" font-size="20" x="45" y="360">d</text><text fill="rgb(150, 100, 28)" text-anchor="middle" font-family="Consolas, Courier" font-size="20" x="172" y="360">id10</text><g><path d="M144.5984152816451 405.84788419770246 C160.40447664827823 403.59172711483575, 178.18111116182703 404.40249022847644, 201.78611068337273 405.88692677826356 M142.6312522533312 404.46989805175576 C160.9188264327357 406.0662851395913, 177.60602816171067 405.7722999842083, 201.72324353216894 404.34549838553164 M200.0885879792473 403.36040959548995 C201.05693583053267 420.34561849898193, 202.90045345177847 435.93691243237373, 199.47810199999844 453.58801761548403 M201.9866249227182 405.03840450051445 C200.92598544283763 419.8455067399168, 201.83339428093075 435.61411084372065, 201.98747873422084 454.5182983057707 M202.0548570931144 454.8936550409729 C183.75151677349632 455.8227093773962, 163.43208461680769 453.66621986833957, 144.78364159075647 454.9211724311409 M201.47808243509766 454.66354357303953 C188.1154138251646 455.3622688916212, 177.8429455216663 455.15035792110376, 142.05239614806402 455.8093927818915 M142.82941170315965 455.9170899973338 C142.57979142319442 438.00949808484467, 141.06227685128547 419.3769385898446, 141.08709511227167 404.20975442620403 M143.98429480341534 454.4284341534005 C142.0420103163093 442.8072206647305, 143.47586528181122 429.41521546072863, 142.30887271675056 405.4031710887113" stroke="rgb(0, 0, 0)" stroke-width="1" fill="none"/></g><text fill="rgb(0, 0, 0)" text-anchor="begin" font-family="Consolas, Courier" font-size="20" x="45" y="435">t</text><text fill="rgb(150, 100, 28)" text-anchor="middle" font-family="Consolas, Courier" font-size="20" x="172" y="435">id11</text><g><path d="M21.0462979456482 29.401666723813726 C54.27477975349886 28.69408387204495, 85.66834989168748 27.596369755790516, 125.93992587873647 28.774292139249816 M20.298691739112474 30.046228150780887 C57.548702345566305 29.36772666315755, 95.65077002996503 29.457243988784878, 125.74808519164 30.741413840252072 M126.81597117482454 31.14805263299562 C125.71946912699404 43.79842623351533, 126.88527341485363 60.25297696204919, 124.42440791626458 81.1727960317107 M126.93383386451528 30.248306043440476 C125.66124489455908 45.42828189810402, 126.31634604568704 61.8073100462722, 126.21972343574288 79.96679121167512 M125.67298726433937 79.54177279728904 C98.78265011511385 78.27891512558789, 70.62429175453886 78.23373871695094, 21.02833077159154 80.32835209589572 M125.84237439949857 80.70694866239481 C84.11704631718459 79.07703919316985, 43.00290269514858 78.7223175583787, 19.333010445713462 80.70892900781139 M20.446762555228823 80.01393324638158 C20.61308792663266 68.63427115649307, 20.945613413159947 54.10820649501013, 20.149134810136314 28.617480661809502 M20.33014551833201 79.57769560589033 C20.958418859092173 68.56190023785643, 20.2434541243196 58.13023782641199, 19.61443949573281 30.384083471420468" stroke="#000" stroke-width="1" fill="none"/></g><text fill="rgb(0, 0, 0)" text-anchor="middle" font-family="Consolas, Courier" font-size="20" x="73" y="60">__main__</text><g><path d="M19.86965083832553 679.0285712219884 C72.13036159435174 681.0133308871985, 121.42269606452582 681.1060788249092, 219.79886796457916 680.0297137466405 M20.750985012360044 679.3732178000619 C62.173472625214835 680.9313350267914, 105.12913944360787 681.9032208282299, 218.56284173954992 679.7991071755016 M217.7657222285005 680.5627274514837 C216.840028973172 750.2747823768618, 217.15419804619967 819.8653322412493, 216.49956129549489 905.7644491586252 M218.1865709575798 680.8400204171402 C218.75528962610514 769.7896331016115, 219.09628198333476 857.9542630600583, 217.44132087446854 904.9446723218707 M216.25937845008505 905.9983210170082 C151.898874554478 904.1557210275868, 80.85359221459338 902.9405209980641, 19.17829155663622 904.6986904482368 M218.62331585338066 904.576295626115 C177.8247771750636 905.0035852197007, 136.55307747115336 905.9125799486491, 19.431650276928032 904.8154679543742 M19.399017105613204 904.4939169487745 C21.36380388625305 848.5593620992938, 18.338906486922163 789.6345989798187, 21.37515213548033 680.2691345061735 M20.678026478636134 904.2670557363244 C20.82972631113345 835.6859368420409, 21.04603553351067 767.3957059697057, 19.248007679167493 680.0717073574165" stroke="#000" stroke-width="1" fill="none"/></g><g><path d="M142.02348726830556 753.4879062635374 C165.57698216084518 752.7115167651784, 188.3538551057491 756.1829207713658, 201.64859288578663 753.3776051135476 M143.62404584736322 755.0041355665284 C164.56325583758593 753.9742744977001, 185.69142502044662 755.5923421298072, 201.87662015931437 754.0445886036656 M200.4752855164021 755.9747521613994 C199.15688716895906 766.1441618443955, 199.5170319976362 779.5453866586323, 199.79778031302385 806.3837664125424 M201.6237431150714 754.9394101820326 C200.26845038388768 773.0699602815384, 200.47103296394886 790.7768683422186, 201.91064964400599 804.8751304557387 M199.75208473546576 805.8741041617374 C180.12400911905803 805.7456832700911, 158.56280806330042 806.7943039991859, 142.9674853082585 804.987195429466 M201.52943041576538 804.9232337657651 C180.90619122134993 806.1159130432558, 161.22269548289432 804.3823613191216, 142.66928264537748 804.7157996757527 M143.1027905046316 803.9310872852743 C141.43846467208039 791.438437338427, 143.34772199470646 774.7066587585167, 142.8379867753412 756.5815715571147 M143.5696553765742 804.2613739580378 C143.396063370529 786.744348242183, 142.9851104124722 770.7392255610249, 142.77608416832174 755.9402189906917" stroke="rgb(0, 0, 0)" stroke-width="1" fill="none"/></g><text fill="rgb(0, 0, 0)" text-anchor="begin" font-family="Consolas, Courier" font-size="20" x="45" y="785">age</text><text fill="rgb(150, 100, 28)" text-anchor="middle" font-family="Consolas, Courier" font-size="20" x="172" y="785">id12</text><g><path d="M143.43323832384002 828.3913374486316 C154.4154070124847 829.1870229090482, 168.04550283075156 831.388429516494, 200.6637756020664 831.1543418210446 M143.5879961405133 830.1564133129025 C156.29762724434207 829.2429547697712, 168.69760639512313 829.5361335891213, 201.4163975282866 829.480402903569 M199.70277619845547 828.2681698762628 C199.094801888118 844.4706372844488, 200.0940176580763 854.585296548722, 202.31371812123245 880.2470966887107 M201.22803604425383 829.4310589429301 C201.21500290552257 849.6075220313824, 200.73043971079366 869.6714940615561, 200.00526950819113 879.2813164418611 M200.66054877635642 879.8534841150757 C183.35786178071638 879.042825060435, 165.98966644879795 881.9470860446448, 143.43492292912012 878.4296819446456 M201.13987903820365 880.9671146924321 C183.70627984399724 880.7653114401526, 166.74624113591054 880.0279215729279, 142.29354543248365 880.0173581049618 M144.42625354605264 879.8804913606384 C142.88318466969446 863.3197134742483, 141.74957453153914 846.8991091640711, 144.95649070640454 829.3413563619312 M142.01064628811557 879.741766472227 C141.9537318921804 869.4279001722252, 142.73705100774484 857.5093499682449, 142.10200002823717 830.0193864777124" stroke="rgb(0, 0, 0)" stroke-width="1" fill="none"/></g><text fill="rgb(0, 0, 0)" text-anchor="begin" font-family="Consolas, Courier" font-size="20" x="45" y="860">name</text><text fill="rgb(150, 100, 28)" text-anchor="middle" font-family="Consolas, Courier" font-size="20" x="172" y="860">id17</text><g><path d="M19.22865956626398 678.704362713165 C33.08724287192246 677.6996671868067, 49.21114821375176 679.9342191388415, 76.63826705340456 678.66121462047 M20.582100906838377 679.994211524219 C34.32624024708131 679.197650554476, 47.242292997711374 678.6951196569441, 77.3287110524728 679.8437822617693 M78.58295134625156 678.5981141099721 C77.60851411746461 690.4929037186205, 77.47334585167457 701.3021169716039, 76.82083190991348 731.0601467300417 M78.51887630919207 679.6369690514423 C78.13595026466504 697.4173003581591, 77.9947350053329 715.6251795989435, 77.28389314645227 730.7883573299005 M77.54707490864695 731.8014139483703 C65.50095164567732 731.2067728645686, 49.91470311675237 730.6336979527924, 18.92831455270194 728.9367054547832 M77.01921045976788 730.0346130148505 C64.05310707447993 729.4459897248066, 51.401292786547586 730.3742083769795, 20.839518931657516 729.5444675343708 M18.65861435336431 731.4527539054551 C19.36397207218111 718.7336760451348, 18.97012407150317 705.9456933799902, 20.849518038457877 679.6096063419158 M20.20126351015688 730.7511293807954 C19.796736234198963 716.3203220489647, 19.744629121725573 702.2989488335511, 20.19243979304554 679.1692777579221" stroke="#000" stroke-width="1" fill="none"/></g><text fill="rgb(0, 0, 0)" text-anchor="middle" font-family="Consolas, Courier" font-size="20" x="49" y="710">func</text><g><path d="M256.62472423586433 30.038875139090756 C369.84164322277854 27.922243555785563, 483.7881976277104 27.729680066884786, 540.3938106224861 28.668334188731997 M257.33016675396124 30.468345909796337 C330.53711811823644 32.43357497565353, 401.3596763045021 32.663686260018615, 539.560811459973 30.30005956387097 M539.5982751446867 30.265794656936663 C542.1660234426244 70.46140938586942, 539.4407958010099 113.72189644449003, 540.2371442005548 158.9797236570533 M539.0357387432681 30.256346268172866 C540.4142288978032 79.02186872068566, 539.6080284398488 128.70390333990434, 540.6038056070302 160.13373345335208 M540.5054895352641 160.22378399605643 C474.33076558985147 158.78374045515324, 412.1699957457348 158.76046717195004, 256.52881712823165 159.68684476617872 M540.6561654073689 159.48542790467675 C471.2234326128418 158.7482959277502, 400.71673023859483 159.03181291263078, 258.33902761909206 159.3058215809366 M258.2222597313935 161.26272985388883 C257.4484285682327 124.20868358684659, 257.20316506686584 85.53436566922815, 257.07651916737404 31.68883669027884 M258.4769659457577 160.69730241375873 C257.1172362283068 133.2083296442479, 257.8450547018899 105.16613108759381, 258.39734921941977 29.96245304227731" stroke="#000" stroke-width="1" fill="none"/></g><g><path d="M282.10354894032986 96.74864049171099 C295.96731651047116 93.95612679932972, 306.40371996695336 94.33273409461802, 342.11958972247277 93.28902748759391 M283.47415382423117 95.411939227203 C295.0516351313043 95.4513535453474, 308.18018941352176 96.07708883442123, 340.2849499337886 94.78089205286439 M339.04716606806494 95.87362965589438 C340.61963274605034 112.45047622308621, 340.14111084539616 127.62482855084943, 341.22675939696296 145.49412342334725 M341.87394013716215 94.93735013789316 C341.26064898880526 106.94634864865812, 341.75994576669024 120.34708321497143, 340.60056881051463 145.06023870768058 M342.5408939383765 146.8218730260564 C324.4407217600623 145.11584580541563, 309.3703999642556 144.36991414851713, 284.7698304336747 144.00691220968778 M340.26250192064117 144.31047418655407 C320.81203840873053 144.77159456967615, 302.1945987952749 144.23665701166053, 282.1879228837959 144.32377848831223 M284.8902750741361 143.53280967022056 C284.4107516719794 134.15772840636174, 281.65075098033316 122.24301253716109, 283.14421890493554 93.37682661246279 M282.62449935918005 145.8537767147406 C282.898750135506 133.5046852864065, 282.9878271424107 123.18582158358919, 282.65630723105374 95.06428173609604" stroke="rgb(0, 0, 0)" stroke-width="1" fill="none"/></g><text fill="rgb(150, 100, 28)" text-anchor="middle" font-family="Consolas, Courier" font-size="20" x="312" y="125">id19</text><g><path d="M339.29713885068054 96.05735620614358 C353.91590788809714 94.54752840406083, 368.9467749375185 96.77979627132419, 400.519305401192 93.02439263823828 M340.8585286890781 95.96427347331745 C357.36067749524693 95.10857059417837, 375.12655729390764 95.48715156370008, 398.3944989219196 94.56538194844434 M397.76065945850803 96.4898594742798 C397.5914086236009 109.70378514157537, 397.1774102081219 123.94069957806632, 400.75914762866114 146.23995458662466 M399.83530270884654 95.58371299470726 C397.5537510715282 111.68165125480876, 399.12330697212974 128.59774326476136, 398.70658185144333 144.37178276512316 M397.72645408486375 145.89395567606581 C375.3352008572106 145.98045078322926, 352.8478029444865 143.6345671424271, 342.34334972064664 143.11058376774315 M398.3404641437947 145.97628000242148 C377.65900612498064 145.9153515088531, 353.94850130076077 145.30177099821069, 340.96165329087415 145.4270593435502 M339.1749110759166 146.5831350525359 C341.6624917598199 126.5197977238128, 341.9182693713153 109.77249700653137, 340.99840203385344 93.87009204059132 M340.95178824150514 144.12477745668636 C340.25765896056765 132.8705469399481, 341.7004734382795 122.86981674784633, 340.4891739982425 95.5131708060593" stroke="rgb(0, 0, 0)" stroke-width="1" fill="none"/></g><text fill="rgb(150, 100, 28)" text-anchor="middle" font-family="Consolas, Courier" font-size="20" x="370" y="125">id43</text><g><path d="M400.86452790403035 95.5001964720601 C415.22799456031004 95.60554477151408, 428.98775189005204 93.97745229256893, 458.7615475920704 96.83933505430709 M398.65675737655954 95.23066079296377 C412.10725083895113 94.186029590827, 423.3224757850842 95.55289099839976, 456.9702150657636 95.14635873875147 M455.1301100303815 94.01336899792862 C458.5434260459811 113.16679995983202, 456.2106969295178 127.66651943158617, 456.76461651973045 146.94907880873114 M457.57776085712396 94.9207842028554 C457.47457925280935 107.45984327007905, 456.9787185635679 120.31551692491021, 456.20767603373076 144.9229234813633 M456.1909263254285 145.5920892109346 C438.6103342678866 144.03332688179094, 419.6875765512404 143.6737629602971, 398.9522832651184 145.48083432944532 M457.1659381205661 144.34348602126138 C443.18383323563194 144.95181890424206, 428.5167404812406 144.15159592897487, 399.087666921897 145.37436801095475 M400.3204956513244 143.36456406516604 C401.13289739394594 130.4123821114141, 397.5176856410967 116.81019959694324, 399.46017063116324 94.67833601981333 M398.90647126257835 145.5462532303957 C398.0027546591074 126.4013194086401, 399.5986052151644 108.8984487492843, 398.73483680658103 94.84686671056083" stroke="rgb(0, 0, 0)" stroke-width="1" fill="none"/></g><text fill="rgb(150, 100, 28)" text-anchor="middle" font-family="Consolas, Courier" font-size="20" x="428" y="125">id28</text><g><path d="M455.3317953650022 94.66785053187581 C479.39310833447166 94.15980916326235, 498.3742238633452 94.1960670798249, 513.9347706614531 96.81116941313506 M456.115433312385 94.19503085258943 C469.661242286067 94.02327356712425, 480.54624829452246 94.65202418396585, 515.7422697292111 95.7627015803762 M513.4988295387817 94.73918983694283 C514.8587580328312 103.98203918171868, 514.995648035417 115.43033541826388, 515.9486276769996 145.81451527001389 M514.2094504451408 95.95058197751223 C516.0561335252107 113.04978507904582, 516.1202468581779 132.82492969083978, 514.1948742250737 145.8399442533159 M516.1820365368421 143.44696708090012 C497.2960980599606 146.64315771319653, 477.56262675683837 146.521925399559, 456.88169529457565 143.68106920988419 M514.5610431708453 144.65761895358904 C500.9958931362348 145.2459049263912, 488.0666353979413 146.277074714313, 456.2340193933499 144.60002129935108 M456.01768475494595 143.27040977064735 C457.6142690250192 128.65912704966948, 457.9402071607636 112.27332960769328, 457.5422983730107 93.56784340258301 M456.77566683541414 144.4997442496557 C456.874025869368 132.6718159474689, 457.2273618585738 117.64280982658974, 456.9693585716488 95.58885302149791" stroke="rgb(0, 0, 0)" stroke-width="1" fill="none"/></g><text fill="rgb(150, 100, 28)" text-anchor="middle" font-family="Consolas, Courier" font-size="20" x="486" y="125">id49</text><text fill="rgb(150, 100, 28)" text-anchor="middle" font-family="Consolas, Courier" font-size="20" x="288" y="60">id82</text><text fill="rgb(27, 14, 139)" text-anchor="middle" font-family="Consolas, Courier" font-size="20" x="510" y="60">list</text><g><path d="M256.11284629382413 31.00570863320234 C282.3504327485946 31.27314390668543, 302.1401575667532 28.488185534291663, 319.893417790962 28.321550811806333 M258.26280976394935 29.325058131503575 C278.5930880697347 30.58652087644497, 300.44735808067435 30.616289332679457, 318.9552521845156 30.69492309051197 M319.2483503071633 31.13152312034162 C316.4751462653848 45.90028838979445, 318.79230394688943 59.27782991270575, 316.21445974110577 78.42661240449138 M318.48520867581675 29.574704906961724 C318.56342256223326 47.535246334202554, 319.02636415660055 65.01783066230176, 317.33087318553146 80.96430314941692 M316.7071277320558 79.56501644422589 C302.9870705177894 77.51430790976721, 284.65189618460414 80.59649838418788, 258.72206833542054 80.26277969910275 M318.22723515137784 80.18642107593925 C300.1937918687209 80.96165127707567, 282.06771446634144 79.68333331260726, 258.0855059564913 80.53385116512014 M259.57822368148044 78.10122927466966 C258.80196233649355 61.74882446765886, 256.28504514924276 41.714924548476745, 257.1557188948693 30.32934977928609 M257.4646337887211 79.44897995327042 C259.2782529806827 68.71870771501153, 257.6442412801774 54.826757380008914, 258.6214420348503 29.50537026739149" stroke="#000" stroke-width="1" fill="none"/></g><g><path d="M478.5268718678946 30.62678068410978 C498.1303543868597 31.045394349402326, 516.4580073441745 29.364835143098727, 538.1278367795231 31.644150528128442 M479.9554404558064 29.16318877404927 C493.8704298206935 30.394899955094317, 509.33106765218736 29.821165533828434, 539.858050088604 29.847089350810382 M539.1669247584956 28.55910634036521 C538.9959298503929 45.72662394090594, 541.5184727061918 62.13191278516679, 539.8810262004225 78.56613067177157 M539.2624147365811 29.944918650354843 C538.827262301802 41.04040677225837, 539.9456784482105 49.818466096098476, 540.8231252277706 79.08431194753628 M540.0574625013193 79.76073560168614 C522.1680775565352 79.67251312178556, 499.14344111756657 81.52653319877692, 480.20529908281634 81.39778976482026 M540.6840224755997 80.22383649437242 C526.3737907870133 78.48256463132643, 511.84604366535194 80.10845650975617, 480.89684221278173 79.83213002882083 M479.77962726875484 79.92287156998103 C479.0047006970457 63.09207415723866, 478.5881075807213 50.96934036284637, 480.6395798849663 30.99514943969229 M479.76830649024106 79.96271148046901 C479.5019150048488 67.3377070484124, 481.3154867638621 54.981422431878606, 480.14283694980105 29.70554714664756" stroke="#000" stroke-width="1" fill="none"/></g><g><path d="M570.6646240330897 29.946071667604084 C640.8639569557126 28.537426649803567, 712.3159179002663 31.265911450103605, 852.2158154124772 28.745270786195245 M569.5124383559727 29.793600558210493 C663.680963219435 29.185017046626044, 758.9124954022316 28.2654899588966, 852.3293732847388 29.98843742784688 M853.1177154105989 30.116165719878566 C852.2549188925659 76.7871734631279, 854.106109814618 125.49687888451767, 851.3014794434346 181.5595555477676 M852.403794626826 29.14410579373097 C853.2593282109507 62.55853401210557, 853.1786087081573 94.72098864413834, 852.2445221882435 180.51778454320916 M851.5439479712228 181.1787809809777 C793.6132663323236 179.68904321571054, 736.2841969116072 180.3492599825272, 570.6310976129707 179.16152749139974 M852.5578526267856 179.98701315340926 C786.6666024803866 181.01870167923113, 722.516807647212 181.68804943858626, 569.7185421346604 179.584502743004 M570.0302386148938 181.96941066439584 C570.6554640994838 145.4359644255699, 569.2712453617561 113.59967462477125, 568.4347820220088 29.000825839142973 M570.3833089761085 179.54886483215165 C569.0743516884997 132.41120121142086, 568.0856626339437 84.50966522795133, 569.4632799703159 29.079188400421508" stroke="#000" stroke-width="1" fill="none"/></g><g><path d="M596.0288714240329 115.38605120242644 C614.3504225376848 116.59231604316003, 635.5233182428426 113.61102786934744, 652.5483729268321 113.68461862700404 M595.0993094355956 114.05986660717916 C611.6725486119773 115.70035820918129, 629.3053021710363 115.25334155642467, 653.7481719311203 114.24388187023354 M654.2263007932702 113.1015754420165 C651.6292125608732 128.7176422079789, 653.5486597462158 143.3330619925151, 651.5601545322872 165.5949012424194 M653.3505532862287 114.096631003342 C652.691045487916 134.5091735825986, 654.0036248731496 153.72645342284392, 652.126201587046 165.45953528705633 M653.1444067756881 164.7720931907568 C631.3360914909655 162.98602953495498, 612.7682268390045 163.92582875306587, 596.8710645950451 163.80645682324177 M653.4343199408994 164.03524124863694 C641.3276886203729 164.33661099278086, 627.6456830354759 165.54205321586065, 594.1156654064328 164.36305494827175 M596.7271902574757 166.79007237770548 C595.1553693519679 154.54757568920783, 593.7506521959696 143.58743183319473, 593.2788073217672 115.92822209461912 M595.0319295455993 164.94661462002125 C594.5693760449353 148.22411501709414, 594.8802757224131 129.9585978407266, 595.6667926773005 114.50835400786765" stroke="rgb(0, 0, 0)" stroke-width="1" fill="none"/></g><text fill="rgb(150, 100, 28)" text-anchor="middle" font-family="Consolas, Courier" font-size="20" x="624" y="145">id32</text><text fill="rgb(150, 100, 28)" text-anchor="middle" font-family="Consolas, Courier" font-size="20" x="624" y="102.5">0</text><g><path d="M653.1357049370467 114.06684083358161 C669.3703358195122 115.8981857773318, 685.9764898080861 114.87109880753266, 709.6463305312922 116.67024291719699 M652.8696333167064 115.94243794870071 C674.4239655565865 114.83592621238972, 696.8299611791252 114.84143527426266, 710.4014929633942 115.78919513146126 M712.1307807945149 116.16451113550573 C712.1687100135345 127.45112727389902, 711.8613342146741 144.04976978114865, 709.0205183691176 164.95034849312748 M710.5113944161657 115.9771389894108 C710.6580182218485 127.22677405736798, 711.8079625814416 139.60522296937972, 711.0316385623067 165.17895889238466 M709.4587382660993 163.8429428306736 C692.700941287637 163.860903411332, 676.4596177164407 165.50824140918968, 651.1887390450561 165.0671273295324 M710.5374673475635 165.31203453647493 C690.4954770448558 165.6284103818716, 668.1047736021449 165.25201251538596, 652.9591603050893 164.81340137598363 M654.1185821371998 164.10984814196945 C652.5363396052322 148.1817019446455, 651.770648212624 130.73731061252133, 651.3573962165314 115.72158854557352 M652.5097796887787 165.22563653191187 C654.1419419798847 150.54794097208514, 653.7284023529445 137.04355144867512, 652.7865339965608 114.24639878457819" stroke="rgb(0, 0, 0)" stroke-width="1" fill="none"/></g><text fill="rgb(150, 100, 28)" text-anchor="middle" font-family="Consolas, Courier" font-size="20" x="682" y="145">id10</text><text fill="rgb(150, 100, 28)" text-anchor="middle" font-family="Consolas, Courier" font-size="20" x="682" y="102.5">1</text><g><path d="M712.1175580806115 116.83405953951092 C731.2667417709015 112.93557088059106, 748.2265746545169 116.06673424012367, 769.6883904790018 113.17475196528805 M710.3845041052979 115.35465513052606 C726.1195312002977 114.58691237704465, 743.09347605685 113.69982697252637, 768.8534695598588 115.58077781957763 M770.5775228910207 114.08496447296416 C769.0259669363841 127.32314438059134, 769.7628391093455 142.93379636436487, 770.6289180698404 165.59530775364615 M768.3490562768344 115.70930881211994 C768.859280904901 130.32206388700038, 768.1692338475438 143.4101753895095, 769.0651074650075 164.9559335186501 M769.4555530159458 165.6099761227624 C754.7823069166939 166.90783552036999, 743.1259910552246 164.16150439180592, 709.7394987751842 165.43720005007717 M769.2786183467102 164.43738985856527 C755.2453164711358 164.9253654809916, 741.1349231462445 165.62814412870628, 711.8184079643403 164.61299040272922 M709.3083165702761 164.23432450196802 C708.8072800848955 147.75802841350009, 710.7946990313795 131.88548733623898, 711.1768783668036 114.01914744153645 M710.4940322909218 165.376212888336 C711.4438714763413 154.33822663843432, 711.2664533109332 142.02667631386078, 711.3529882153383 114.3514198397978" stroke="rgb(0, 0, 0)" stroke-width="1" fill="none"/></g><text fill="rgb(150, 100, 28)" text-anchor="middle" font-family="Consolas, Courier" font-size="20" x="740" y="145">id90</text><text fill="rgb(150, 100, 28)" text-anchor="middle" font-family="Consolas, Courier" font-size="20" x="740" y="102.5">2</text><g><path d="M768.1028855204924 115.31870240026609 C782.1150088560407 113.09044419347016, 797.9829512867177 114.73616881415151, 827.532422607694 116.4440693923657 M769.5597495292282 115.7189620956297 C788.393520398471 115.70749698392545, 806.0293218606107 114.97670856394151, 826.7881089529745 115.06151757304363 M826.2930992454598 113.77357712392056 C825.3428701025815 128.31580462775165, 826.4329767500076 137.5548837313378, 827.0530742888565 165.81438828407798 M826.084809173522 115.17013151567376 C826.2727126583738 129.1818653891349, 827.2360663671866 143.90057729408613, 827.5876936469298 164.17278106382204 M825.462112377018 166.54837680079163 C813.5480824357581 165.44929263590683, 803.3949757437103 164.10872033117465, 767.2676365583941 165.17331838100029 M827.7564115190179 165.14793145730576 C810.2498383732992 165.29946679232435, 794.3728410561752 164.7357089390854, 769.3117229999185 165.9718075403822 M768.051247152808 163.7660318504076 C769.7382408163512 151.3907642548567, 768.8206229609315 141.76552803300916, 769.3244353608663 114.40763104919324 M768.0631418741883 164.84004642810328 C769.5059578067672 147.87731622360857, 768.8629339248215 128.66579824148525, 769.300476289415 114.26811279485764" stroke="rgb(0, 0, 0)" stroke-width="1" fill="none"/></g><text fill="rgb(150, 100, 28)" text-anchor="middle" font-family="Consolas, Courier" font-size="20" x="798" y="145">id57</text><text fill="rgb(150, 100, 28)" text-anchor="middle" font-family="Consolas, Courier" font-size="20" x="798" y="102.5">3</text><text fill="rgb(150, 100, 28)" text-anchor="middle" font-family="Consolas, Courier" font-size="20" x="600" y="60">id84</text><text fill="rgb(27, 14, 139)" text-anchor="middle" font-family="Consolas, Courier" font-size="20" x="822" y="60">list</text><g><path d="M571.4653281310395 29.1307981833533 C585.4414717500614 28.345074922592644, 603.053397509168 30.813820750105222, 628.4825547229887 28.41174490167203 M570.593903192904 29.891271272418237 C588.5791297154557 30.696226457116797, 606.8989967280072 30.168568277426697, 629.9888113887025 30.009104171078587 M631.9133774369199 31.94916040763116 C631.5548006101538 45.98667621556369, 630.6354068408947 59.18176255182696, 631.6038882296939 78.18906719739915 M630.7050040735033 29.12288199449535 C629.500173162047 43.1862475333074, 629.888626946066 57.718520220328024, 629.6297343647324 80.47566920982953 M629.9177899238692 79.20101440251776 C611.1020999782698 80.25927071962104, 595.9206510902633 79.18043870721343, 569.520430917333 79.7453437623407 M630.503871399082 79.17102667957799 C610.3375683583807 80.26469224808126, 590.127579757358 78.82585591147809, 570.2397685721702 79.37829511974778 M569.1266452815045 80.33487465504997 C569.0033741762181 63.084621034705584, 569.3519013889417 49.13434163613821, 569.3626540900201 30.939507026850926 M569.875895132119 80.9485929770621 C569.0123568387821 59.82468707661288, 570.0227023759229 40.875002007005875, 570.9222408842511 30.15803420944275" stroke="#000" stroke-width="1" fill="none"/></g><g><path d="M793.5408006811454 30.52426739609524 C805.9524104052736 29.693843217928965, 822.5424959071813 28.77928962056727, 852.0931599109886 28.053081307398596 M791.111589325537 29.119479330868735 C814.7815863699749 29.219681995547376, 837.9806664204584 29.948710879971436, 852.9839782030529 30.94318426737574 M852.9116206114851 28.71549370570056 C851.1532895708273 44.3926232881755, 852.9242489173671 62.976829247521295, 853.4598168946299 80.46196214391756 M852.8345961561222 30.20244283694521 C852.0149477578942 44.42983645704584, 852.8037557654978 60.194104999181, 852.7457538467457 80.95471107721177 M852.2763190664559 81.9136419731413 C829.9090214031647 81.71814334270579, 803.1779861643082 80.12613115052318, 790.3796161058592 80.25806236607585 M852.006868771697 79.16981198285293 C828.803162730007 79.93630800158594, 803.3723929320789 79.07393627051817, 791.2748085311304 79.06981709472936 M793.492389960378 80.33393209174017 C790.809933146017 63.84965580008498, 794.0029507293782 49.19951991418347, 790.0135619712225 29.90628769936888 M791.0333845348262 80.47072707167627 C792.4101704979433 62.6943124218777, 792.1959774836452 45.915831932962476, 791.3728362976902 30.06109337637005" stroke="#000" stroke-width="1" fill="none"/></g><g><path d="M883.5210272384227 29.97007774960477 C953.2336809091958 30.161107711630184, 1026.6399787827997 29.566018529132613, 1080.6023231402637 31.51656411968106 M882.3473022450289 30.53127488924749 C928.2423624346943 29.675674722466614, 973.9653360760017 30.381655642239558, 1082.3848187247615 29.94742145134521 M1082.6418156316518 30.933029352332326 C1081.0958714945848 71.97629821816612, 1081.0526720420912 114.02344762795884, 1082.7412513542138 161.27105599044415 M1082.5451929385167 30.7282379639474 C1082.0438902462008 71.95915210720308, 1082.2947038603234 114.8467420956303, 1082.1506032494667 159.8990989695376 M1083.260207335525 160.20211477026987 C1024.861312222542 159.36160377085162, 968.6991048891134 161.55893790385224, 883.4106692706802 161.54370357630629 M1081.4440188421534 159.28387670640907 C1032.2268970321365 159.02258192002228, 983.442464613264 158.45175049400495, 882.6156778329014 159.60254438579994 M882.5322681114098 158.51941222865037 C883.3767048810591 124.75626902703812, 881.429888043635 85.61730998088198, 883.7864617185618 30.43206743151972 M882.5417156001174 159.07737728145324 C883.5916182769492 112.03511364230401, 883.609861364039 66.29249979521042, 882.6646916319398 29.610733364954207" stroke="#000" stroke-width="1" fill="none"/></g><g><path d="M875.5555885128017 25.13357329476282 C948.4813969061643 22.898765883487386, 1024.2144403285758 22.628567629612323, 1087.662271049658 24.346426242082853 M876.1322582109877 23.48716351750348 C956.5471777538859 22.382175439171704, 1037.6711488407961 22.38809582433852, 1088.5270848066073 23.791407030643203 M1087.8496774353 25.31799188941654 C1086.005332544545 80.50860316198029, 1086.691362695792 137.6823022894263, 1087.0851925349023 165.4810250757409 M1087.8267319449587 24.229631952357636 C1089.3134774405569 56.4868718328571, 1087.842695222856 88.9343574607906, 1088.0430598468874 166.5134396418269 M1086.2602326207775 166.33620424944775 C1021.0392904125468 166.6687808321864, 956.8614028461843 164.87561175638592, 874.3957981188823 165.33841118174288 M1087.453285150939 166.10263261958698 C1043.4137130674458 164.86678272641743, 998.919513211021 165.42092689156357, 875.464363896122 166.15245820134137 M874.3089420484687 165.4961538934331 C875.3452960514038 114.47336594007245, 877.4559354019196 62.37536162244838, 875.7537350238122 23.298020460217387 M875.2272553430879 166.33675689389594 C875.002734476096 132.25578705959947, 875.1883719216427 95.73550151173822, 876.7734707615406 23.046244839131926" stroke="rgb(0, 0, 0)" stroke-width="1" fill="none"/></g><text fill="rgb(27, 14, 139)" text-anchor="middle" font-family="Consolas, Courier" font-size="20" x="982" y="120">1969</text><text fill="rgb(150, 100, 28)" text-anchor="middle" font-family="Consolas, Courier" font-size="20" x="912" y="60">id19</text><text fill="rgb(27, 14, 139)" text-anchor="middle" font-family="Consolas, Courier" font-size="20" x="1052" y="60">int</text><g><path d="M881.1876196379625 28.310246369113322 C900.8559347768078 30.833881217133076, 921.5145610577878 31.23850303992348, 940.2744920889202 29.259567060527345 M882.0739822750885 29.11974889627115 C901.9741226439625 29.379942494606794, 922.958809219665 29.196699703517517, 942.7894265268869 30.307149050329496 M941.1274965951687 28.343716662313827 C942.8779406178252 47.68310859936007, 943.2484960748259 65.44587104906807, 943.7252222651828 81.29472601534458 M941.6443879602566 29.28684401112279 C941.5929498597502 41.43456093870991, 940.771700628718 53.35489221336585, 941.823384484387 79.01807040552006 M941.0720344896336 79.28939115061152 C918.9021573038842 81.3368448719792, 896.3969051048621 78.215956702374, 880.7595514725092 79.25847877312242 M941.8571656342928 80.11200657895375 C925.2618703241056 80.00381344033235, 907.6918887942403 79.23953130518407, 881.6792020179898 80.4598178087258 M880.2423203172812 80.2507244253434 C881.9098114237911 68.77386099986362, 884.2077569271345 57.79532722344084, 880.7819426709187 31.149614150502487 M881.5218036897553 79.97088468565765 C881.2379360926714 69.35921749703301, 882.4817259086229 59.49443429734194, 881.6506641510969 30.736940452633732" stroke="#000" stroke-width="1" fill="none"/></g><g><path d="M1021.1494995366072 31.242152224103485 C1039.6032904805027 31.420119182833552, 1055.0730927702323 29.042349794602995, 1080.2160515957883 30.768317221152795 M1021.2019726351896 29.49888116755617 C1037.9133232713116 30.94209793604959, 1053.9895221027903 30.64781579675936, 1082.3890608446945 29.726300519947188 M1081.5495154634364 30.62580187464043 C1080.548228901352 47.784126465791076, 1080.0417843541386 65.18256741438088, 1081.991413057637 80.7014576954998 M1081.5630643845636 29.542608290814083 C1082.1656867468455 40.169903433608226, 1081.427555016656 52.47227674135909, 1082.3749647154732 79.33532438673879 M1082.9401602329292 81.79911337479155 C1061.5621164436666 81.11068184704452, 1037.7246204703263 80.62810467241569, 1020.4253471386802 80.24405777182129 M1081.5470232658615 79.93543276360839 C1065.2343913552313 80.65931340073325, 1047.8405638100892 80.16223314150581, 1021.3312459787968 79.3021547176016 M1022.8023799776081 81.92960504047757 C1021.791429544133 66.64171828823166, 1023.7975971762853 57.50070369249546, 1021.8009405140739 29.88721497131839 M1021.240018752777 79.5207573965189 C1022.4807732273927 60.237289316986995, 1022.0784714677635 40.96983135805429, 1022.2272219514766 30.00242286863375" stroke="#000" stroke-width="1" fill="none"/></g><g><path d="M258.3376950192241 211.76170511348673 C338.9825549235786 210.53168783283542, 416.6674866963103 210.4381397931788, 459.15047267314685 210.83536591103547 M258.5433376198934 210.11724355602377 C324.0403866795333 212.14779935326195, 388.70399371347725 211.96578535694417, 457.222886342548 209.47047053231185 M459.53039030233685 208.64135664743708 C456.96375567039075 256.37480956793235, 455.7707746353382 302.17933953773445, 459.06305731480126 340.66762609193273 M457.1900478956336 209.52988269797058 C459.1678314390374 258.44941013863905, 459.6158417468819 308.60151213867437, 458.213172180684 339.70972826585177 M458.3420857164417 338.8248395757478 C400.0781930567495 340.06911364042355, 343.7895757394168 336.9153485927938, 257.1116130251332 341.26567623288895 M458.4330574992052 340.868230569966 C409.01155720472644 340.7975261666891, 361.94923390967955 340.9905283486486, 257.87510295308334 339.64751094851215 M259.8148196088965 340.8969924736221 C257.58356148955704 308.01473096446864, 255.70753903929185 271.75780518686827, 257.0486628220791 208.35400689796631 M257.5327060046468 339.44812997128156 C257.04179407397703 292.38831877667695, 257.9813488659746 244.04461055855108, 257.7641810163786 209.97712242344798" stroke="#000" stroke-width="1" fill="none"/></g><g><path d="M253.1840613240826 202.8586072887412 C325.8101668769119 202.90074021432585, 402.3733593411043 205.0148845144036, 462.42942034176184 204.5505861671536 M252.08690738681926 204.76130422855428 C299.3107132115272 203.05494143754728, 348.7107111769521 202.286312170852, 464.670430442077 203.52144838871914 M462.50160049202736 205.6372699261941 C463.1840533648341 254.4103591615518, 463.27480031052033 303.00954413405196, 463.4024384274293 345.07243996635407 M464.86137854777536 203.75815107645624 C461.74688153897256 250.48534348702034, 463.40942711949424 296.89237972017395, 463.0597014780168 346.55198364966554 M463.29679381395727 347.2934143476263 C394.4431246638493 343.74861789465547, 329.11712116269445 344.4048214810318, 252.12660322564975 346.67460351842465 M463.91540600538275 346.1369058219424 C393.0521983003249 346.9520430853819, 320.9237454201588 345.5029984221999, 252.64058933684547 346.3116946152273 M250.29879553637377 344.9320475146042 C252.22022664997587 293.35649865480883, 249.86246452219535 238.20535602248347, 253.69052741725756 204.21331274697246 M252.1943747319854 346.98983711010953 C252.41684825416908 304.3655150974356, 251.16153526521757 261.30202829113006, 252.85922120515045 203.28354667774988" stroke="rgb(0, 0, 0)" stroke-width="1" fill="none"/></g><text fill="rgb(27, 14, 139)" text-anchor="middle" font-family="Consolas, Courier" font-size="20" x="358" y="300">True</text><text fill="rgb(150, 100, 28)" text-anchor="middle" font-family="Consolas, Courier" font-size="20" x="288" y="240">id32</text><text fill="rgb(27, 14, 139)" text-anchor="middle" font-family="Consolas, Courier" font-size="20" x="428" y="240">bool</text><g><path d="M257.1745899379754 210.4868512698798 C275.31394919012257 210.7702837903778, 292.4675569787375 210.7768264975761, 317.77589285872614 208.46676381635305 M257.9832676123841 210.99402242463148 C276.06482808458014 209.72827725105708, 293.45638912933447 210.22334235834626, 318.3204198829651 210.72603316126333 M319.5110697957273 210.31125060072017 C317.29688387710405 229.43445656980361, 317.7365908196 247.66132704565283, 317.5273760028175 261.64479866017024 M318.5308546141628 209.62599967238006 C317.0142767415135 222.35580691812848, 318.3662699005962 236.72483415103846, 318.0478762629284 260.08771772477587 M318.73909501364807 260.47383397362455 C296.4089723119938 261.2865159413435, 273.1380087124818 261.9449400552286, 256.96188481373326 260.5256573106425 M318.17284190765645 259.71913026092506 C305.386531549389 260.3755734522726, 294.749759415516 259.02105841112007, 257.1755752133685 259.91573580597446 M259.5103010971595 258.3232817707143 C256.33999705183953 239.36993713806362, 259.1840020376458 220.1388507612409, 256.21207924222847 209.24413765283455 M258.1346308490158 260.4974397452273 C257.4764205067794 248.60832874650745, 257.74845833810383 234.86036440690577, 258.96605365828515 210.08262594709257" stroke="#000" stroke-width="1" fill="none"/></g><g><path d="M398.03528127421225 210.7736472284278 C414.70610956452015 210.5564527317759, 428.3030992492633 209.97130986124824, 459.01048326221286 211.45161557436722 M398.03295851290994 209.222003080867 C411.3702454873575 210.10858029776995, 424.0675981815813 209.13823492921136, 458.9014873485275 210.75110418168833 M459.5473755266812 210.01853970846247 C458.24024066563294 223.54342749128685, 458.45502504395125 237.84973605148429, 459.80888984154586 258.7841989064274 M458.4030127926778 209.1120602658867 C458.04274680553164 224.71777841239768, 459.16305987813246 241.44393241695738, 458.8091672668179 260.4318241913685 M457.1139197179334 258.08872564304744 C441.02510074163536 258.3386819106215, 419.9337242305481 258.811435503264, 397.5753938682468 261.33682324709787 M457.47885883471565 259.692197624004 C443.5018758061723 259.3942854964754, 426.64628793372435 259.1541913526633, 398.72665033661735 260.8893424945048 M396.5145775062645 261.59269418060563 C399.9047469214974 242.39685150444504, 398.3074516895606 225.06264728816532, 396.43323938484383 208.78431015654763 M398.1183881182897 260.6479382325442 C397.67718856121206 239.5728927369745, 397.5773649447041 220.72114037969942, 397.48445659100724 209.61053108993636" stroke="#000" stroke-width="1" fill="none"/></g><g><path d="M501.6237310107594 210.92494712209933 C558.2829814087245 209.22276888372903, 613.5056395723386 210.19609708205923, 700.0148890752135 209.69534909519817 M499.59494688061966 209.36927210625578 C561.1795501302865 209.97993123930203, 621.6027095629261 211.1147839936335, 699.620828528314 209.61242233403712 M699.9738436233874 209.98627539855562 C698.3374233461353 239.62095472087736, 699.9451968762186 267.9241293349711, 699.558998919855 340.45079846360557 M700.0270440965502 210.22919792914794 C699.2096669031771 250.27384297447819, 700.3178874438163 289.7399714733726, 700.3776926950108 339.1078108217136 M698.8008969750383 340.3481205876409 C644.6229946847316 338.6061171005458, 591.5515443517078 341.0533352274818, 500.73271786095586 339.3575621979657 M700.5666722045936 340.20510357409177 C622.0523784626832 341.419144905364, 542.7119434415181 340.40917799558406, 499.34175628843826 340.8405804254097 M501.64581005763625 340.86968937549113 C499.03245706801397 310.9050253906694, 499.4361814919441 284.87688719923017, 498.63065641866496 210.16637436977354 M500.0265612282798 340.8290304630255 C497.77121783312987 300.62843779619215, 498.96566627421873 260.7791320137224, 500.90541804177866 209.51477941677751" stroke="#000" stroke-width="1" fill="none"/></g><g><path d="M494.47224770341955 205.0580448210887 C573.4286392471967 203.48336325536258, 653.2680661957073 203.61168906693945, 704.9210029476138 205.71839649978867 M493.67156518017947 204.69357008338557 C568.6812936767143 203.16717898810245, 641.3813199398829 204.25125712093316, 705.8035778996049 203.5577456109647 M707.0650698248994 202.0144216018705 C703.7812531294602 243.28774239007507, 705.062141487995 283.7576478030438, 707.4026552548596 345.55082209878714 M706.8083853784088 203.15992537918243 C707.5526501943509 248.70766093465872, 706.4316947634677 292.0922258798207, 705.7362067819917 346.2866088862686 M706.4968813455127 347.58926270599545 C650.6637926213496 344.3401717769043, 596.7820773496975 346.2999708501841, 492.6394935679633 346.9665244469698 M706.7045025099458 345.77814848396014 C634.1828318069976 346.7875900804848, 562.6823336801466 345.8250439220449, 493.7310531266254 345.2871127324787 M493.95688439013867 344.91268135051706 C495.1583540924051 307.46173478344275, 493.49654984616404 265.9885380740124, 492.61474186441905 205.78414790690127 M494.74875361496964 345.60228617951117 C493.7796416854983 294.12847227454046, 493.87902058596075 242.88000779968075, 494.7618160519102 203.9475276748576" stroke="rgb(0, 0, 0)" stroke-width="1" fill="none"/></g><text fill="rgb(27, 14, 139)" text-anchor="middle" font-family="Consolas, Courier" font-size="20" x="600" y="300">"David is cool"</text><text fill="rgb(150, 100, 28)" text-anchor="middle" font-family="Consolas, Courier" font-size="20" x="530" y="240">id43</text><text fill="rgb(27, 14, 139)" text-anchor="middle" font-family="Consolas, Courier" font-size="20" x="670" y="240">str</text><g><path d="M499.33138187732567 210.41029104299548 C523.4215165454212 211.8861968539313, 544.0388482795491 208.64478131783738, 558.5887377018787 208.69036058798062 M499.5812265763341 210.71674660617487 C521.4642772425264 209.33643869128608, 543.5377437193482 210.5915778168415, 559.1226417112421 209.7433857310765 M561.1616902108459 211.8652103091902 C559.0446935864863 220.47478130963404, 561.327030470429 232.34718948808887, 560.7508731200177 259.0597975388852 M560.2526458782479 209.84484644274963 C560.1331887274692 225.44469790131734, 559.2607910334468 239.15032204036174, 559.1063917849664 259.93298801265877 M561.6345254910237 259.9640279379117 C538.0235062153108 258.9264360506063, 517.904324145343 260.4608434078413, 501.3824159276454 259.18880656039994 M560.026785968669 259.7509908473312 C538.4166452404353 260.38931772070936, 516.613815271855 258.7854799950243, 499.15180401487925 260.76369877999457 M501.95865603619876 258.4736889892558 C500.39241163060956 244.1150911849467, 499.42821176438713 227.92061506099037, 498.9980080126605 209.18189590911268 M500.81294165710335 260.6164405369398 C500.1882066401176 244.6700746889097, 500.02400068688775 226.80002027403387, 499.0575395849241 210.20352523884105" stroke="#000" stroke-width="1" fill="none"/></g><g><path d="M639.6120642734976 208.98732271409017 C662.2429468354718 211.82520700129177, 688.3039894096909 210.48910220495594, 700.1968178084132 209.1262628462724 M639.5200462638168 209.23095211178176 C662.8044596065045 211.18586021336912, 683.4967626049286 210.66799932782027, 700.8712201245525 210.7182983738362 M699.325008538028 209.7932783617381 C698.4849041058652 228.62721841501778, 699.2460309740991 244.98914988015443, 701.0970324370218 258.00546616205486 M700.627374312793 209.7171988988361 C699.4813296932977 229.59992925025287, 700.864123508401 248.9320233915879, 700.4545558760483 260.7421607781754 M701.7273309840939 260.70308001297826 C677.535410150196 260.56175374402756, 657.6638874606398 260.09943894179264, 641.3891757757387 261.02785229492525 M699.0378539803481 260.7868665846426 C685.270226759339 258.8472614468869, 670.6301043713495 260.4587564166793, 639.5630238733117 260.04322840908986 M639.3105550306797 259.17200302570166 C639.2482547526503 243.84635845038687, 638.8048987229171 232.6909792835048, 641.1517138844835 208.95559176822334 M639.7811061473102 260.97185228765045 C639.9849002753033 247.60849004831377, 639.5671766361959 233.1277042129035, 640.9594008598467 209.4522439287063" stroke="#000" stroke-width="1" fill="none"/></g><g><path d="M741.3114266500255 209.75488738534412 C788.0616939385616 210.312283477744, 831.6896646927632 211.04552465618275, 942.7538116664484 209.11490868245096 M742.2966463218504 209.73805881680408 C787.0022600781462 209.65992648384412, 833.1500801639295 209.87461398097489, 942.7523279431508 209.40905271827685 M940.9785054626934 210.74873983131832 C942.9634029640478 243.086000292428, 941.2799797126385 274.2677573169339, 940.9638865300245 341.84985014025136 M942.1635781078071 209.15990608578238 C943.8924991683192 241.13194964916542, 943.8162379907072 270.31747522777783, 942.8415239189156 340.1741429159 M943.2190317875214 339.7665109563134 C867.0069461138527 339.71524695654364, 792.1906626390141 341.006520304907, 740.4165462616813 340.3555090174146 M942.0511526737912 340.84324258777235 C899.0672916897591 340.99462573242647, 856.4966729966523 339.8346036781596, 742.709911663666 340.58701389740224 M740.5642286322112 339.3289220545542 C739.0814781604813 308.6975737253493, 738.9956915059397 281.7718688018779, 743.5820780256549 211.83406205780437 M741.5027778725654 339.3518390710004 C743.73239308151 309.4738096820217, 743.0512629430957 279.67984379356756, 742.074132329641 209.44147176109166" stroke="#000" stroke-width="1" fill="none"/></g><g><path d="M734.6650181022951 203.51910666063833 C804.8720053649444 203.5620012305594, 874.3775235553479 205.2811352978902, 948.3269845798242 203.1469708838616 M736.6293018818724 204.87557783086922 C778.4043768422646 204.10495024064696, 822.745892730204 202.99658509730483, 948.3570193137131 204.78400389607714 M947.3984402961585 205.7402310130007 C949.1682941899874 241.20347185005633, 949.4221178669626 274.20296276645746, 948.9921336221075 345.7089761558361 M948.799901435703 203.84025037118562 C949.85269508966 248.03289108169815, 949.6983915417807 291.63784463402067, 948.8221829459997 346.53134088047756 M947.4268621526898 346.6536300025522 C903.2161807007028 343.3891583690774, 863.0004496879382 343.3242122163258, 734.4783816070078 344.8720654211709 M948.5411445294344 346.009670644929 C888.5688832369092 346.76286531417554, 828.8092110999892 346.28401822693905, 736.010232086465 345.38284272867725 M736.9043664573483 344.67747320000495 C735.7730966785731 291.78957835634964, 735.5232871071132 241.92489021841428, 735.0909174843354 204.6086931456647 M736.8305494141105 345.7356422309166 C735.535704079347 310.9837228811447, 734.3642557425978 276.8547331561403, 736.950109707748 203.66104666383833" stroke="rgb(0, 0, 0)" stroke-width="1" fill="none"/></g><g><path d="M768.0841390124041 273.3286651749907 C784.9416276220268 275.12599716445914, 805.4483902232032 275.6428838881093, 826.4024432029803 273.16046635582506 M766.0323975883696 274.66244823986193 C788.3781341290943 275.5575983002966, 810.6679024862494 275.4429928287076, 825.7022386071355 274.040473851739 M825.485976171615 276.2579297955608 C824.7210200770076 292.348568456886, 825.6625904521463 307.77911804774317, 826.2557837238468 324.52721913320084 M825.1335535085612 274.0680376095751 C825.0589220512447 294.01079044122264, 824.6801512944896 311.844842744859, 825.8085905880716 324.74655449907266 M825.2333179473825 326.6662093779254 C813.051957645798 324.58017880491496, 798.9769803275457 324.8567838661699, 766.0179931875081 326.3632131071084 M824.8236270137422 324.05162630443766 C803.1797141501681 324.53246264537694, 781.3166389622505 323.5765423829233, 766.4874449110735 324.3046839313373 M766.1777536476753 326.53707716740666 C765.1490545833694 312.0965807834646, 766.655477445949 296.75605513537215, 767.0079007726216 276.34571612221225 M767.849287620376 325.5935219100909 C766.0539292865748 308.7049199632322, 766.5541342282661 289.90509766797476, 767.0525445713023 274.98720119060806" stroke="rgb(0, 0, 0)" stroke-width="1" fill="none"/></g><text fill="rgb(150, 100, 28)" text-anchor="middle" font-family="Consolas, Courier" font-size="20" x="796" y="305">id82</text><g><path d="M824.6928940750245 274.60161546232183 C840.7504807864206 275.04623437451556, 859.589236762779 276.82962054787487, 884.8350985137182 274.65962661915603 M825.7737493201264 275.34365309656135 C846.536188996338 274.81416269343674, 867.5732881771867 275.3446308756006, 883.978964769623 274.67270076246194 M881.6011087892001 276.1272558374748 C883.409538171812 293.18869298580216, 882.3662728587833 308.4958892537169, 884.8459370757922 323.5970348595053 M883.8144692851138 274.3810075092337 C883.1755370723118 289.6207321112446, 882.9309258564049 303.76217622886367, 883.7017425549202 325.92828918948067 M884.3575980989925 324.56926854522055 C865.9277385877895 325.5503016157601, 849.0379735435546 324.4852790047087, 824.9937291729162 324.589512063001 M883.2285807565564 324.71236470578464 C864.6125967674079 326.4203838638765, 847.7397330268551 326.03843342201714, 825.3057047308826 325.4747811621345 M825.5791276041627 324.8924340019957 C824.4373001073851 308.38400455453694, 826.8081542391413 290.6972973237124, 825.4586592106914 274.4328811538044 M824.6408930430958 324.9176500816223 C824.4848535369632 306.3852685940172, 824.2050880294153 289.37522168310977, 825.4540413044078 274.05768377843157" stroke="rgb(0, 0, 0)" stroke-width="1" fill="none"/></g><text fill="rgb(150, 100, 28)" text-anchor="middle" font-family="Consolas, Courier" font-size="20" x="854" y="305">id76</text><text fill="rgb(150, 100, 28)" text-anchor="middle" font-family="Consolas, Courier" font-size="20" x="772" y="240">id11</text><text fill="rgb(27, 14, 139)" text-anchor="middle" font-family="Consolas, Courier" font-size="20" x="907" y="240">tuple</text><g><path d="M741.8163580012675 210.1404206129286 C761.5853461626344 210.1798293058863, 780.0792857638352 210.66639233129166, 802.9700000088939 208.48038867911183 M742.4611112474568 209.89140789713278 C763.8646501248073 209.27795692556023, 783.7876770875977 209.1506465742806, 801.1975832845892 210.23739781045833 M800.7671914191258 211.45799302607867 C800.3956597763472 228.82888917425356, 800.788824521391 248.25965728511457, 801.3360498542696 259.93339046365 M801.2032600602203 209.73320814700102 C802.786631739984 220.31778390946067, 803.1366210898999 230.3464304307384, 802.9404704708991 259.4623725173047 M801.9543185164252 261.04687582722846 C789.2215006944219 260.9734831130218, 772.445563060282 258.8222764489854, 741.1005908155148 260.16497115527807 M802.4326225988932 259.2827413907452 C784.9140014661127 260.93407948791815, 767.4889057475484 259.43246491794747, 742.5819540584788 259.3280124462896 M741.0012382853378 258.6619379641093 C742.7609637084516 245.69197234184088, 743.9344824178994 228.19607801939236, 743.0677815034843 209.56265521274563 M741.9828941850399 259.3785161797602 C741.2162462386849 244.81840715094583, 740.7570858251079 227.43858536676802, 741.0615709703256 209.77968959342172" stroke="#000" stroke-width="1" fill="none"/></g><g><path d="M873.9207456672995 210.09959486363857 C896.3513290895021 207.63376157302153, 918.5412796002563 207.61652916172605, 943.7685961622384 210.44414729006624 M872.3170641805301 210.22568114000433 C896.4510496601322 210.22668863304654, 919.2545541074377 209.1139364487532, 941.4786592533352 210.0346919781526 M943.7752931762773 210.40576187670473 C942.5952315122282 221.41776237710195, 941.7238729307616 233.33976475903893, 940.4405945643734 260.17398893242216 M942.4549906739253 210.64580831904442 C941.9333343092692 224.7635700003197, 942.1617303156224 238.1283631421973, 941.2926775524865 259.64234530691215 M940.5721667634939 260.637572968776 C926.452411924513 259.1538937553345, 908.6161773385166 259.1888573885135, 873.288243174767 260.0567529055749 M942.535055266558 259.09445681126857 C923.5333258670865 260.1063793328081, 903.324618704574 260.27463779067654, 871.8538698385528 259.0465509476159 M871.3301913373421 260.27054541902044 C873.9320828372973 249.1093792022605, 873.0236891500845 236.85558308934887, 871.6822624340193 211.70874894372665 M871.1534967461786 260.15647857471566 C871.4201654547921 247.2892521019366, 871.6337615077213 234.01481859019458, 872.2199107753759 210.68172578266567" stroke="#000" stroke-width="1" fill="none"/></g><g><path d="M971.2579019172373 209.936451555986 C1030.7774331805201 211.24951701039245, 1089.6131590333675 212.914382487792, 1220.3253509282279 211.2395716634694 M972.0982349915485 209.62469405577153 C1026.5864359162608 208.89923598248728, 1081.2684441801139 209.16035056259906, 1221.7643306610305 210.77201605456344 M1222.5424539505243 209.00857746951172 C1222.361417938502 247.27771484378707, 1222.5539441855346 288.61181813301084, 1222.2961677249846 339.9407840788743 M1221.7326545717215 209.37502567133834 C1221.3449906324038 239.3976403534413, 1220.43832979998 268.08568939598257, 1221.0842300161073 339.84365634952644 M1219.7119940779658 340.26451916438134 C1166.825855939609 341.3486018405537, 1110.337577080539 342.1333579278566, 970.3713795726785 339.60001047357554 M1221.1223659322782 340.34813348791397 C1123.600415923263 339.53025266492807, 1027.7413919064627 338.96129715008396, 972.6002649529752 339.42654742050524 M971.5209367615995 340.68608490921633 C971.6000541177201 291.21411591017585, 972.2705260017054 240.7143948106135, 972.3810314426821 208.6702029531944 M972.0445818319428 340.0235096979048 C971.2190583387666 288.6405597821272, 970.9336423423384 237.6429073749693, 972.1911114262107 210.81092467547498" stroke="#000" stroke-width="1" fill="none"/></g><g><path d="M995.4697976044853 274.3692180001806 C1010.7883373597434 276.7623082628279, 1024.8600205836835 273.7041840917036, 1054.766090896094 276.49633009212687 M997.7943197632542 274.8632788957601 C1011.3227141439572 274.7382463673694, 1024.424224389926 275.0656680840957, 1054.9770829630068 275.5203070923982 M1054.1695033803705 274.04156015717314 C1054.2529586257522 293.0000251081494, 1056.9488196691066 311.29303234909327, 1053.7750129538447 325.67760728581914 M1054.8720751559285 274.6865345932104 C1054.785464670555 287.95265706746704, 1055.6503597906167 300.23485826055884, 1055.993583055197 324.7315703788474 M1056.6541589741212 325.58352971309847 C1042.430374752982 326.7996358233977, 1030.2418748654072 325.14310183742623, 998.4707886013339 323.2529939348667 M1054.59175534162 324.33483851014466 C1039.1258487350863 325.38385019164605, 1024.9678299768912 324.62809511936484, 997.4872635158551 324.72194599129733 M995.836721941838 326.7779363933389 C996.5954404225838 311.0830066468468, 996.1481925578004 294.6506775566953, 997.072825409685 276.10817957711237 M996.9064135584862 325.4735290925846 C996.4249502965216 307.84215194601467, 998.0290655600438 292.95309337390967, 997.0440627710941 274.5609364584045" stroke="rgb(0, 0, 0)" stroke-width="1" fill="none"/></g><text fill="rgb(150, 100, 28)" text-anchor="middle" font-family="Consolas, Courier" font-size="20" x="1026" y="305">id36</text><g><path d="M1066.1944728548292 275.18230374766154 C1080.4855831381476 276.2640104636041, 1091.9071331525276 276.95428015212207, 1124.7532881896784 275.1558775944872 M1067.1688699527203 275.10801829293587 C1080.2709028229483 274.7844385765656, 1094.0628945977412 275.27070481520866, 1125.794792173035 275.8612622629961 M1125.8235616243098 275.8669485444171 C1127.363086897914 285.868093972552, 1126.9872949779144 298.70704599449937, 1126.580163628641 323.6287148732184 M1126.1627831435817 275.79002345634177 C1126.3745365169789 294.39478626315866, 1125.535194219345 314.3715036373296, 1125.912835879554 325.16450661601044 M1127.3619270559698 323.30841393120835 C1103.3753783385655 323.4938965838683, 1082.391198272413 323.9536164573131, 1068.413943966986 325.55974315768384 M1125.3924509535002 325.41246598534815 C1109.0033794314095 324.6706661253301, 1093.0688450686434 324.7242248916545, 1066.6947846742653 325.45690393139546 M1067.5977979757624 326.2727363835877 C1065.7448938682292 311.4507693000914, 1066.0201719266868 297.2384085385082, 1068.3184574907623 274.8255251103818 M1066.566297446952 325.4297708224985 C1067.0343251512993 306.42187461962703, 1067.9214094334684 289.2175804745906, 1067.6219276327413 275.7414929813085" stroke="rgb(0, 0, 0)" stroke-width="1" fill="none"/></g><text fill="rgb(150, 100, 28)" text-anchor="middle" font-family="Consolas, Courier" font-size="20" x="1096.5" y="305">id49</text><text fill="rgb(0, 0, 0)" text-anchor="middle" font-family="Consolas, Courier" font-size="20" x="1061.25" y="305">,</text><g><path d="M1139.9656486785443 275.9767756857248 C1154.7322591142035 273.83217194908303, 1169.8222315179044 273.41971451538944, 1196.8422121381495 276.34377309161505 M1138.3183283471928 274.8074673274066 C1156.1245756766048 275.4070052161139, 1174.1061306249233 274.80095470547343, 1195.7404719903805 274.1270856313598 M1195.9990828304085 275.0157123127492 C1196.0133294702268 287.6047994149885, 1196.3707362587288 296.07179347251156, 1197.0508390487557 324.7900676551673 M1195.1820002315733 274.21252748739477 C1196.4387756124336 292.41805893812204, 1197.0319816575657 309.71530998708647, 1196.3585772826518 325.413549539177 M1195.481314174527 324.5962346866021 C1182.315841728673 324.5429520130997, 1167.217566595222 324.22234979138517, 1137.256914575564 325.9794048653398 M1195.768363920455 325.87667631481344 C1179.8156298461474 324.4312570245943, 1161.7904405891538 324.4875910527935, 1138.7462882414081 325.3690419744754 M1137.6224665895584 325.64682894316616 C1139.04650684985 306.6019996556817, 1138.5166600678988 288.66017206699047, 1139.480966939422 273.31699150063787 M1138.1188431984572 325.14893805467017 C1138.9272600423603 309.09048352071744, 1138.3235780494292 293.16672574578075, 1137.4873932849368 275.64112540204223" stroke="rgb(0, 0, 0)" stroke-width="1" fill="none"/></g><text fill="rgb(150, 100, 28)" text-anchor="middle" font-family="Consolas, Courier" font-size="20" x="1167" y="305">id64</text><text fill="rgb(0, 0, 0)" text-anchor="middle" font-family="Consolas, Courier" font-size="20" x="1131.75" y="305">,</text><text fill="rgb(150, 100, 28)" text-anchor="middle" font-family="Consolas, Courier" font-size="20" x="1002" y="240">id90</text><text fill="rgb(27, 14, 139)" text-anchor="middle" font-family="Consolas, Courier" font-size="20" x="1191" y="240">set</text><g><path d="M972.8064074156154 210.41020249076013 C990.2554411778762 207.64827916060636, 1013.1617640079788 208.47539139183195, 1033.5968175710334 211.53320178898093 M971.7428943182975 210.2504981159302 C990.800919868576 210.58869969562258, 1011.037437406554 209.5902039284962, 1032.11134653108 209.83745875204085 M1032.423873615042 208.68970695758682 C1031.5980877185834 222.28075403409267, 1032.6174734715603 239.8981744045083, 1032.3752350499794 261.93174292110393 M1031.2520014405143 209.88611174988384 C1031.7580330503179 225.08152913868517, 1031.739037161426 238.45880185527116, 1032.6878282294072 260.1558046523664 M1031.9847387284476 261.43612065928824 C1013.1427285891758 258.9665830240672, 996.062363674633 259.9325832242214, 972.1548873720536 258.2798694383352 M1032.785363600943 259.54273119903 C1012.5879177405014 258.63131367914866, 993.6908206431826 259.2210984683538, 972.9169423719121 259.84313344314353 M973.9281488402524 259.1123172671425 C971.3741069310911 241.17402332504147, 973.6734486506728 221.06087459230605, 971.8201878181146 209.4950075336388 M971.156417892024 259.1265093179067 C972.7599001620088 242.70870774891594, 970.916059700838 225.46422465088799, 972.6174213282429 209.8347479962471" stroke="#000" stroke-width="1" fill="none"/></g><g><path d="M1162.0644328540625 210.9000027877881 C1174.8473714368747 208.1903857751528, 1189.7099543428026 208.0407740685376, 1219.0126750149748 208.6381379167331 M1160.2613841747823 210.88366885362393 C1179.5945411744417 210.9211504686265, 1197.7033879103171 211.42364790792016, 1221.099165859302 209.83268978989602 M1219.7951215340809 209.10221117144198 C1220.6816097923124 226.69145535350847, 1219.3575999801299 247.57752208981125, 1220.3123563433187 259.5651940503191 M1221.3157593659018 210.8489914431887 C1220.3199282781165 228.6661137426816, 1221.1266392537818 246.31192662030122, 1221.3740966892033 260.6719744603701 M1219.3534900853535 261.6775705118656 C1196.0511580573057 259.77365610103516, 1173.4402155189262 258.66576960325233, 1162.9835690042103 260.16857643973924 M1221.482927869892 259.9602434616696 C1206.1976670297179 259.2405678368864, 1190.1585514824917 258.86530514364824, 1161.034410537962 259.5516540135097 M1160.6111354834643 258.7097698598624 C1160.8113245842198 244.0760058810826, 1159.3679280472136 231.52687186124206, 1159.8028348897142 210.22652642274684 M1160.9565936601957 259.26191148953626 C1161.0833333555336 245.932607454748, 1161.2664100623974 233.49684437578154, 1160.365690313593 210.55173690856873" stroke="#000" stroke-width="1" fill="none"/></g><text fill="rgb(0, 0, 0)" text-anchor="middle" font-family="Consolas, Courier" font-size="20" x="984.5" y="305">{</text><text fill="rgb(0, 0, 0)" text-anchor="middle" font-family="Consolas, Courier" font-size="20" x="1208.5" y="305">}</text><g><path d="M281.5324949231696 456.8093616706222 C299.615443162175 456.4778948233538, 320.9681194943474 458.47200310530434, 333.27049709503103 457.39855757333083 M283.7299195288118 456.7096707824529 C296.21942514016973 457.3018574191452, 309.1487865338138 457.478559298436, 332.68574698384924 457.45950679129095 M333.6881524758919 456.7412380388291 C332.3862003618784 468.56361205456113, 335.3769333585859 480.20662813637836, 331.7694042030421 507.30520105183103 M332.09170309056594 456.24663540513245 C332.52888020564006 476.4627049266528, 333.441339087769 494.1917514982003, 332.4196337718206 507.580804726344 M331.95928680401016 508.6597868658808 C315.4530005653122 508.11211135909616, 293.02810561755035 505.54168206034643, 283.3121407956124 507.38168434293806 M333.8899254837271 506.4308003410046 C320.68909380894365 506.024254076341, 308.2428122544323 506.290561986919, 283.8258097230827 506.86262696539524 M284.28190842656903 507.5106907149788 C284.73329113189914 491.5040289105819, 284.5304063984778 476.9576955728805, 283.6943268445375 456.97989246481615 M283.82108572724894 506.858326615136 C283.8738605608682 490.16223908040075, 282.72292632600534 471.04990268012284, 283.2323254885217 457.1572385542957" stroke="rgb(0, 0, 0)" stroke-width="1" fill="none"/></g><text fill="rgb(150, 100, 28)" text-anchor="middle" font-family="Consolas, Courier" font-size="20" x="310" y="487">idx</text><g><path d="M281.00573250405796 530.2856946441827 C303.1685945505635 534.3391580447475, 324.3236314095743 532.4957723910505, 332.48730764487374 532.1142393838898 M283.296678305562 531.7526158206397 C299.1437291763518 531.6270330105369, 313.2897430011325 532.1412734438225, 332.61175397312206 532.107078720886 M331.07683948725787 531.1832250816161 C333.1143881215065 550.2013511178595, 333.78533202161844 573.0333640756135, 333.47292755832933 583.3380392129627 M332.98606473747304 531.43925020687 C332.73321737178685 548.9090249847609, 332.9802979188191 566.4637486263941, 332.4835443778294 581.1619206417156 M332.4366372072529 580.1928210259105 C321.9754093620467 581.7066192583337, 308.3413620057768 580.037203438461, 282.7422132349921 582.4741506533304 M333.223389854174 582.3849048040844 C315.2648601434008 581.934779072333, 296.7403632974821 581.6179745262575, 282.1062191952351 582.4164869039531 M281.9930983583601 582.2166709537541 C281.7108211687004 562.0464398793957, 281.8119978976192 540.6288081009964, 283.8309587164074 531.92703624121 M283.48182720222064 581.2993848965112 C283.53483210073927 568.6647680432244, 282.4238113569718 552.6055744844116, 283.08710900914383 531.446886715728" stroke="rgb(0, 0, 0)" stroke-width="1" fill="none"/></g><text fill="rgb(150, 100, 28)" text-anchor="middle" font-family="Consolas, Courier" font-size="20" x="310" y="562">idy</text><g><path d="M281.05986310360186 607.4213365047086 C297.904919565015 607.3698349737592, 316.5543983737401 609.2521911066289, 334.7997148288758 605.3369727673727 M282.2945893988058 606.489615829322 C295.6172322986026 607.4555785704589, 309.07325478667184 606.9689215263758, 332.0508840457946 606.431272425526 M331.64064589382747 607.6359978748469 C332.34145328563176 620.2312107048176, 334.04425129516557 631.6065944927313, 331.1968411903521 656.3218424299304 M333.1565661053661 606.3252611931774 C333.9619436801647 619.271543308841, 332.9755475288568 631.9571214104359, 332.27532457874815 657.5594197163389 M334.7154361487227 658.1464810546644 C319.4880390685272 656.3229542996671, 306.30576085509773 657.2790422806333, 281.1526474765411 657.9701748221405 M332.132626257278 656.0432390274427 C319.68476846381725 656.4131405171443, 304.9798782929682 656.5031383847029, 282.34034540056933 657.3059298186499 M283.4776912580533 657.7131148135784 C282.56185337265265 639.2962094218016, 284.49266511374407 621.9429952746142, 282.0260808104612 606.0041636331616 M282.69101244615206 656.6977216988655 C281.6387926027586 636.9525837470618, 282.91371035229497 618.6875798077111, 283.0852189822592 607.8089442493055" stroke="rgb(0, 0, 0)" stroke-width="1" fill="none"/></g><text fill="rgb(150, 100, 28)" text-anchor="middle" font-family="Consolas, Courier" font-size="20" x="310" y="637">idz</text><text fill="rgb(0, 0, 0)" x="364" y="487" text-anchor="middle" font-family="Consolas, Courier" font-size="20">:</text><g><path d="M385.26376933910973 455.6329646129126 C401.9470861784416 454.4896895271072, 414.8866210437883 456.87815296793053, 442.2313221508184 458.3168174157152 M383.4507181120755 456.23661608229855 C401.6128187543929 456.20506735906116, 417.3046186231592 455.74774830726574, 444.74992035779354 457.53867340309284 M442.31227684480547 457.83117565986703 C442.2112627670336 472.26557047017786, 442.4565944300828 489.9334532859585, 445.4866429653392 507.25136260877593 M443.90131676013374 456.14461043941526 C443.52499164292743 468.8296824004676, 443.9387646023212 481.76785863841843, 444.83273820948517 506.92674513768327 M444.18182475927455 505.4122485719764 C432.45685258673836 505.0417308663493, 418.0335693188631 505.94214123369636, 383.570897797048 506.1928272640347 M444.4768577068177 506.9748328598061 C422.1787000374533 506.19975620603384, 400.79262388700414 506.5461033473757, 384.15178511495986 507.312674536399 M383.72265489588165 506.18389446733863 C385.01118205349405 489.77237999304873, 383.702273104969 474.7196586034243, 382.4673838301728 458.75459164655575 M384.39814556160724 507.4848929534689 C384.79422785599695 487.1668115062726, 384.50378911472677 469.7342325432639, 383.0730517160321 457.5092869880892" stroke="rgb(0, 0, 0)" stroke-width="1" fill="none"/></g><text fill="rgb(150, 100, 28)" text-anchor="middle" font-family="Consolas, Courier" font-size="20" x="414" y="487">id81</text><text fill="rgb(0, 0, 0)" x="364" y="562" text-anchor="middle" font-family="Consolas, Courier" font-size="20">:</text><g><path d="M385.08281917207364 532.2195016407969 C398.87942519427133 531.3146418010142, 417.8080637447636 532.4530277619708, 454.16997310539085 530.7808324318383 M383.19217601076355 531.0240456054057 C402.6666982007082 532.3678449905727, 418.6162336604597 531.6155539372788, 455.147293392216 532.8123192032856 M457.7414000700299 531.0576758666731 C457.01275516247784 552.2251664987106, 456.78411406128697 569.115394767941, 454.7958197147006 581.0454226670942 M455.62874194260934 531.777105101221 C456.298414374213 545.298064055866, 457.19616092506243 556.9829025787427, 456.03834492721137 582.1239250236067 M457.9372941484205 583.8575878402066 C430.52569387438894 580.3668483108889, 410.495045951351 581.0744255638286, 384.98065864731626 581.697215378529 M456.081817699432 581.3815932151748 C437.96398574649334 582.1356544393288, 421.56633639589165 582.1489214465713, 384.41975961692475 581.3152706984629 M383.9936519144527 581.1348576117408 C382.8072915737471 562.063896529387, 383.60698568368076 546.6209794908623, 382.51305085600137 533.7974649204194 M383.07295226596193 581.2382038287528 C383.9249214952515 571.2275772828056, 383.6599067717841 559.9702430859923, 383.01101277499134 532.1461494223887" stroke="rgb(0, 0, 0)" stroke-width="1" fill="none"/></g><text fill="rgb(150, 100, 28)" text-anchor="middle" font-family="Consolas, Courier" font-size="20" x="420" y="562">id100</text><text fill="rgb(0, 0, 0)" x="364" y="637" text-anchor="middle" font-family="Consolas, Courier" font-size="20">:</text><g><path d="M382.45708878567535 605.9711133243865 C400.612381329826 606.1178037060987, 415.7623171324131 606.3166848489742, 455.859144471912 605.8188266966365 M384.5311295222594 607.588303875259 C398.9031732954087 607.5350273599632, 415.60043391613505 607.6424205448084, 456.62183512777887 607.8353334692803 M455.4115698839365 608.2025503179847 C456.2616590535287 624.2722212643604, 454.5946972142237 643.8240182554814, 454.3761499825048 657.096155243119 M455.1879806795778 607.0393080016617 C456.4208287242346 617.8005954171517, 456.2082989567543 627.7087630686128, 455.39106449306786 656.9299449723136 M454.15910285944085 655.5021193261615 C429.94167258338496 655.3937884788778, 402.4682315212012 656.6293959726794, 382.4975760535399 657.4850196626978 M456.1509092724819 657.8761872878828 C439.84470116994913 657.5586487355487, 424.479992021128 656.8735108843717, 384.04184523808584 656.8136510046121 M385.9738581618563 657.4389335045448 C384.22872989794985 643.3204768331419, 382.43253855882455 633.4834522395, 382.488272557901 607.163055539265 M384.11806415503725 656.1403691834661 C383.5499905360076 640.9598578696315, 383.50484972778423 624.7418125322883, 383.9568866988874 606.0928949825845" stroke="rgb(0, 0, 0)" stroke-width="1" fill="none"/></g><text fill="rgb(150, 100, 28)" text-anchor="middle" font-family="Consolas, Courier" font-size="20" x="420" y="637">id121</text><g><path d="M257.93397054257633 381.2933794045303 C302.7811440954464 382.5302943028424, 348.4178147133565 383.05239604073466, 468.9372595371471 383.64238172526336 M258.3098372316841 381.7325879092724 C331.5384059680884 383.4137601526223, 403.9368892228275 383.7237866150373, 470.48380160194586 381.85317821705684 M469.77822903072354 383.0185572088753 C471.58151400932013 442.6017773453571, 470.2283862782566 504.229917394408, 471.3903406001808 683.2580914384902 M469.5585788829616 382.0306710509135 C468.47203217675855 472.4641672458116, 469.0914969131858 563.997608588484, 469.57917468761065 681.41706913118 M469.8073997616994 680.5390243380461 C417.07204014760777 684.1101308407656, 362.4601173964045 682.1434455415886, 259.642718165803 683.6497931147435 M469.81770825440793 681.4648599893945 C388.95917578157554 680.0037850333222, 305.86372789569384 680.4882636138514, 258.4865850034066 681.4123938593041 M259.2857138780685 682.3779618920241 C255.56917146762004 612.9754708751177, 255.82594008194081 541.7981751450685, 258.259542125507 382.1993368830868 M257.70707315314644 681.5719327352392 C256.4403161863339 583.3586603044182, 256.76360413783067 483.48974469839953, 257.57928650314415 382.1503070566967" stroke="#000" stroke-width="1" fill="none"/></g><text fill="rgb(150, 100, 28)" text-anchor="middle" font-family="Consolas, Courier" font-size="20" x="288" y="412">id10</text><text fill="rgb(27, 14, 139)" text-anchor="middle" font-family="Consolas, Courier" font-size="20" x="440" y="412">dict</text><g><path d="M258.47793397834243 382.05098788557956 C274.3247411424995 383.8725442963636, 289.2783333705461 382.6795449279877, 319.2236778859263 380.5639197596661 M258.4501382493221 381.2090233071014 C281.39743267786037 381.3292461266344, 304.6711105317748 381.41434011450116, 317.2071095273619 382.93283596472185 M318.88512533559464 382.93636378232156 C319.70101587052824 400.2107809718183, 316.98446055578614 420.12087916744815, 318.10824457348434 432.7159060608719 M318.5662638463363 382.0623504381708 C318.3363982098736 399.68201920617184, 318.51947676594244 416.71153423458253, 317.7580789743241 431.20524799022826 M317.3384034633904 433.38677618793395 C296.72132833787833 430.6466693850698, 276.34422032780606 434.04135591374785, 259.42593860285206 433.32653799934315 M318.9023226874526 432.4992420413605 C298.83505905249143 432.1692650929442, 279.1328779514617 433.1849450812923, 257.3710284644077 432.36102722304736 M259.36748105014914 431.2386633514704 C259.06944438921386 414.75583743374, 258.01306797425974 399.10292839256414, 257.8810414071104 380.1665988948093 M257.2236764467845 432.45825555355634 C257.0043603607089 415.2749224024547, 258.211604592884 396.93853814907914, 258.62656911376416 381.4479233670611" stroke="#000" stroke-width="1" fill="none"/></g><g><path d="M409.55110363172844 383.9585194694259 C432.65311413465645 383.0963005857088, 454.5145694488193 380.86677830081834, 469.36766342304816 380.17912072540804 M410.0730069318532 382.7617598681883 C425.86810045305907 382.9347259702103, 440.30817171242893 381.8908397003022, 470.05550781371653 382.02704505983587 M471.7449303407989 381.94671964956825 C471.03511239707876 392.1446000468853, 468.3576833334255 403.59340266361716, 471.35482436111005 431.8029545795574 M469.05102686203804 382.04529959021477 C470.5853199330705 399.3502763183675, 469.8394202905497 417.4149358948052, 469.19645699884137 431.1355705904172 M471.8739547475387 433.51083216920307 C454.1212042125272 430.7695310175302, 441.81782270277154 433.4418860762419, 411.44329856647545 433.14529169463077 M470.08933324500174 431.1003224640627 C457.90993658124916 431.7268152880133, 446.1148861711996 431.54943439993673, 410.9970572159436 432.8242407507492 M411.8288855516174 433.0933157627214 C409.5809797460914 416.5822512459102, 411.21814210002486 402.24034518723755, 408.92069375661913 383.8821897245241 M410.77021224133716 432.92147377834556 C409.0636705116857 417.51035074750666, 410.85794734452963 402.592677817769, 410.72664499438275 381.759312774527" stroke="#000" stroke-width="1" fill="none"/></g><g><path d="M499.76932255157055 380.9241289058121 C562.1788376334721 381.28970667729595, 622.1001079577567 383.1026229295339, 698.6798191693516 381.40877056806147 M499.879870304913 381.87143102325643 C560.2126302163113 380.39022562764376, 620.3231027736866 379.8699490639217, 699.5066465169166 382.03199262382924 M700.4482819945306 381.4106354227148 C701.2027145908456 419.1612088152649, 699.8582572476806 459.61444189553595, 700.084020471391 513.6862225879618 M700.2756065090604 381.0450662517852 C701.2818434488573 432.38101801826133, 701.0602719710604 480.80173608903397, 700.1794313243812 512.0985046603786 M698.8419956351528 511.3474485599002 C621.7186691117744 513.6353197210375, 546.0509843261076 511.3547132603109, 501.42203051380307 513.2151220525458 M699.618091322095 512.8475086010784 C641.3907152041728 512.5182247886543, 581.1576868381175 512.1296399850758, 499.10237970064844 512.0946572581101 M500.1276465762932 513.6098076462384 C499.5781453297881 475.022075697967, 497.33065595812855 439.0797459000122, 498.29330418339276 383.096552694236 M499.5466950572089 511.0636702734174 C500.66967249327195 477.8401650554155, 500.1862110588491 443.60941061944044, 499.1465977082374 381.7938438748834" stroke="#000" stroke-width="1" fill="none"/></g><g><path d="M493.3590241079207 376.4500004600984 C566.742737009362 373.7278857005529, 638.9598221099164 373.0788977960929, 707.1977019599174 376.15696969634354 M493.1720752137022 376.0642247039429 C560.2129363410081 376.22118668213693, 624.4318402596958 375.79910076816844, 705.4513132552474 375.442656175516 M704.7863658616612 377.0311083911074 C705.5378980940953 418.91877414378814, 705.1712571382517 457.0408868949983, 705.3699494331015 516.953891877314 M705.7687291609632 376.2568447521946 C705.3480985948256 415.6472570583869, 705.7998641844526 456.45304269629776, 706.1731205263955 518.7008277320019 M705.8423583449796 517.5075436263832 C626.6110249214358 519.6701844613448, 550.0603450253086 518.4115129447842, 493.6287333802746 518.7969733952987 M706.2096841568208 517.7288405492047 C638.6945742346071 518.1585700932056, 571.025155643044 519.0288663268584, 494.595420427239 518.1198011871309 M493.6377478683079 519.0612186457585 C494.8812485517719 487.82449849105416, 493.73397448693953 458.07517428756876, 494.156774189375 376.69507211431403 M493.6788464094617 518.824655328132 C492.44355877911164 470.07664807953705, 493.1476682941082 419.6805332123394, 494.8999675156104 375.2846881751511" stroke="rgb(0, 0, 0)" stroke-width="1" fill="none"/></g><text fill="rgb(27, 14, 139)" text-anchor="middle" font-family="Consolas, Courier" font-size="20" x="600" y="472">"None"</text><text fill="rgb(150, 100, 28)" text-anchor="middle" font-family="Consolas, Courier" font-size="20" x="530" y="412">id13</text><text fill="rgb(27, 14, 139)" text-anchor="middle" font-family="Consolas, Courier" font-size="20" x="670" y="412">None</text><g><path d="M500.55470592351935 381.85581674922935 C515.2574224835666 382.30145985141326, 530.4167868811376 381.15885542370523, 559.9548104098548 382.8784422446558 M500.8651901265765 382.10302959862815 C522.8855610192886 381.8302467693019, 546.73776596894 383.1464137334776, 559.2962165221771 382.73093895234825 M560.7954391178839 382.6226965956359 C559.166787180587 398.1172391981499, 558.6078439885165 409.9363464142331, 558.8496085038274 433.10039592847306 M560.293432638042 381.03456569148585 C559.9639305581181 397.55958727287276, 561.0734055874439 412.1540834284153, 560.8626279528751 431.72184406426845 M559.1949215501747 431.95180561668917 C548.6979855641815 429.703406381966, 533.7490288943148 432.3708447609807, 499.07266496592445 431.0010837003989 M559.3652641445593 431.11270923179757 C543.3327038184934 433.37552178156204, 527.4982511100466 432.0619915462489, 500.8361142650917 432.3692839271018 M498.10718001191697 433.8189973177255 C500.09151313881483 421.445854459375, 498.4286089299266 407.1754290799756, 500.62602042924465 380.98351143076803 M500.36653554848243 431.1873735345885 C500.3632040403735 416.88719473148063, 499.6754368362431 402.69485940031745, 499.8327357303067 381.8679360700713" stroke="#000" stroke-width="1" fill="none"/></g><g><path d="M640.4701556195049 380.02391413973874 C654.3421099704889 381.4232877840821, 667.8902920736291 381.7744213425043, 700.4455387697799 381.4642989919238 M640.4320604629839 381.1821793439865 C652.9380473784753 381.58233062198747, 666.5892832357797 383.28477370817075, 699.4629214721837 382.4869927091046 M699.7237453052816 382.9190505061502 C702.1240414545761 401.3634831621052, 701.2451226712391 420.5812439177697, 698.1298924335259 432.7840929698881 M699.4975333371433 382.8898509640547 C700.5283385842037 396.5986759143369, 700.9873130316116 411.445345561594, 700.5657284107758 431.0299189316545 M699.6160843012921 430.44122192269634 C686.4733560706045 432.9797737057007, 673.4030742074891 429.70800707604315, 639.35504534607 432.46135561809325 M700.2203046875263 432.74378357858745 C679.9051397935116 432.4529045228218, 659.6074114375261 432.21047239593173, 639.949101256858 432.7130344908547 M638.4769127953779 432.8442149379287 C642.2043109832442 417.58463496356507, 640.8307998241017 404.7305078164634, 638.4891656286544 382.885338083552 M640.8173884341837 432.01141757470646 C640.5900853693445 422.4650977016814, 639.2922137044451 410.63132292516457, 639.9336258171262 381.1563704361388" stroke="#000" stroke-width="1" fill="none"/></g></svg>