<svg width="1300" height="1326" xmlns="http://www.w3.org/2000/svg"><g><path d="M18.555182028903847 29.866218344722526 C83.97470110560752 29.49178645746005, 146.20085873957078 28.233149283846632, 216.51809524818276 31.93053564596573 M19.778566298130258 29.47807959925894 C79.37096190658285 30.473599763823252, 137.37851380016787 30.79016542690995, 218.72971334401 30.093681958324886 M218.12310686332088 30.894174070482553 C215.4283383743722 169.4100700105036, 216.77267282379597 309.00544391569144, 217.03554417568876 480.7297689201381 M218.40086367667016 29.682459204018432 C220.0021888797926 183.79363143194112, 219.94110785165765 337.1681137318601, 218.16133216726178 479.6371498851534 M219.9721820589802 479.4974848638058 C161.90986526833512 480.8289247180428, 107.5609528218134 481.87728595203674, 21.526603582943444 481.7666638638432 M218.8325284732251 480.93846375549 C158.25907196922134 478.5811312515164, 97.08666739116921 479.1419971441, 20.38856984873002 480.1914739593316 M19.74150403201018 480.72350280055093 C18.656459745261657 336.53765704829317, 17.094368484316842 193.79641750613268, 20.543896658832967 30.30293568730433 M19.956940791681546 480.08212044663446 C20.365400855797485 367.6031091893489, 20.84948885421697 255.02832285769603, 19.622387956437116 29.92250165542006" stroke="#000" stroke-width="1" fill="none"/></g><g><path d="M141.07576836260657 104.05321021112343 C160.20357198936176 103.79957692408848, 177.95888606906522 105.67095520147592, 200.99088935277507 103.75554036302272 M143.26496513945347 104.69829610610105 C156.43750859166772 104.2017290472368, 168.87402249867736 104.55290334204884, 201.88016958016527 105.8695932354046 M202.46546482001665 103.29239882193843 C199.41833417278923 117.52511044660459, 200.61652189140383 126.62782433076265, 199.54094135415627 153.19044180528704 M201.58313918352883 104.37050544406144 C201.7958926742502 117.23960234713381, 201.10535846823396 130.383778480129, 200.83076051187166 154.42383306212255 M199.90642120416584 154.08903277295298 C183.02739032213285 154.0658484325052, 162.8550316548011 153.526193673286, 142.0404660363085 154.57576755184655 M201.690254548692 155.71024970924643 C185.45231567429624 154.66926799193482, 171.524161207256 155.0619514475685, 143.1455697955773 154.06265763883107 M142.21634501895178 156.1484908752284 C142.87193811827277 134.76750552936835, 145.04843935721007 118.24144839507643, 142.22965300380076 104.22740935462774 M142.28242686001568 154.9206733997879 C143.57927481766117 136.28020273023228, 143.65890075020684 116.50406004387192, 142.45102620313418 105.4028984276081" stroke="rgb(0, 0, 0)" stroke-width="1" fill="none"/></g><text fill="rgb(0, 0, 0)" text-anchor="begin" font-family="Consolas, Courier" font-size="20" x="45" y="135">lst1</text><text fill="rgb(150, 100, 28)" text-anchor="middle" font-family="Consolas, Courier" font-size="20" x="172" y="135">id82</text><g><path d="M143.88444129123698 179.59323766259405 C162.3104095232014 181.07725506884884, 184.08199151193682 180.93331039066595, 201.4752258216511 181.03452012333167 M142.91374132069868 180.6829210039715 C159.360063684865 179.57363667208608, 177.95303867073457 178.98431673984499, 201.3326204375347 180.29240302842095 M199.32140966371605 180.6618780856827 C200.08318194785517 195.68984846936476, 202.28266071660113 215.06916038486997, 199.5350280660582 230.3566334218066 M201.38000578737402 179.00292913868344 C201.69195527546304 193.54804772622637, 200.40023559273516 207.73867493059672, 200.55711546424237 229.46964873813602 M201.1605355399401 230.98576082889437 C183.17722400715834 228.65075878641906, 166.35716591474588 229.48911422010693, 144.55173811347368 229.69674912115107 M201.0110405052055 230.0634730683523 C185.9784940546141 230.49012922283424, 170.24606348579846 230.00879215638489, 142.97520449244104 230.6816287560025 M142.38382039582223 228.26105606878352 C142.9630077501839 211.20635922366375, 141.07695648965398 193.4402718156353, 144.73992813790352 178.8510522515142 M143.7869593133603 229.69511757885647 C141.89856150406902 209.99861441714347, 142.45296878172562 192.05422654034933, 143.36130527620287 179.6714680699923" stroke="rgb(0, 0, 0)" stroke-width="1" fill="none"/></g><text fill="rgb(0, 0, 0)" text-anchor="begin" font-family="Consolas, Courier" font-size="20" x="45" y="210">lst2</text><text fill="rgb(150, 100, 28)" text-anchor="middle" font-family="Consolas, Courier" font-size="20" x="172" y="210">id84</text><g><path d="M141.25719314555212 256.8600266788668 C157.7901777359338 255.66235278898208, 178.2243419668704 256.88690072750455, 202.70805405109118 255.83914408337705 M143.42396052172575 254.83336323546465 C162.1802973944705 255.75476599372482, 181.64894940314963 255.5961719287431, 201.88193961277887 255.30095667104266 M201.0114684803109 254.5624542973555 C202.63327118055884 271.71977277750574, 200.9877308552794 286.2942576323204, 199.38405692561602 304.564929182169 M201.28899056357537 255.53409182282132 C201.55836012736904 274.16869378925674, 200.5517973717304 293.4613390865917, 201.74145193752977 305.6280317407098 M202.73123132999314 304.45638374344526 C186.3025461904059 306.0419775698987, 172.47198689408532 305.01920912819975, 143.70612333194177 305.8202650183996 M200.10525578503467 304.16049610226685 C182.20179811763657 304.71798598023565, 164.44193160742228 304.97687289393286, 143.20700672282834 304.0159771617552 M141.77531705962818 306.0722773208662 C142.30674900596077 294.98278557054016, 140.93746553392285 284.9640046882482, 141.36041341165446 255.62338782891905 M142.06711899520383 305.3356885448792 C143.83790860960684 286.8559537352436, 142.81536499330048 266.34677879433235, 142.55120383989822 254.54785061688355" stroke="rgb(0, 0, 0)" stroke-width="1" fill="none"/></g><text fill="rgb(0, 0, 0)" text-anchor="begin" font-family="Consolas, Courier" font-size="20" x="45" y="285">p</text><text fill="rgb(150, 100, 28)" text-anchor="middle" font-family="Consolas, Courier" font-size="20" x="172" y="285">id99</text><g><path d="M144.7683615483501 330.31560350644855 C162.4153094366371 327.6468271973502, 182.93336433825226 329.23164278527133, 199.44928888961795 331.70952968709787 M143.37817599095595 330.24079954208787 C165.43324174773443 331.0994398986115, 185.72499580123733 329.50154699311724, 201.18047583965625 329.6302039333872 M201.98390687558552 328.8674606533116 C200.5875101941796 347.6017223872819, 200.52471554622727 362.64762288028135, 202.2074333040787 378.31413542058925 M200.17523348491062 330.2699330808479 C199.9452006697581 348.71039616022426, 201.22519799721312 369.8157346692961, 200.62206197995206 380.42788005226714 M202.46874051776362 380.65263345122446 C189.87159720195228 381.75742549358415, 176.73004025527055 378.71572158106454, 141.90138672876864 380.8491275405135 M200.75005159474782 379.7100589367733 C188.60628638214374 380.3760908160387, 177.84779574701426 378.92186226611904, 142.81683244238377 379.7744851494664 M141.38676086719147 380.8718985115274 C142.00274385706956 365.0828084090712, 143.130936578654 348.6824706948462, 141.034584269903 330.0907089739972 M142.40850395920222 380.8050586679282 C142.07765949892777 363.3705012831375, 142.21219149017034 346.3279344473809, 143.06614159757262 329.54660963769476" stroke="rgb(0, 0, 0)" stroke-width="1" fill="none"/></g><text fill="rgb(0, 0, 0)" text-anchor="begin" font-family="Consolas, Courier" font-size="20" x="45" y="360">d</text><text fill="rgb(150, 100, 28)" text-anchor="middle" font-family="Consolas, Courier" font-size="20" x="172" y="360">id10</text><g><path d="M142.22531619320569 403.5575043413868 C164.68906686011053 407.32837208908126, 183.99269520481602 404.89281333699586, 200.30589610131312 405.53897884910486 M143.35971015238476 404.3459474935808 C165.1652421966462 405.74142839800135, 187.723767553991 404.9731941139099, 200.35816082627437 405.7046695956684 M200.66664557898713 404.43279434872477 C201.36793880640855 418.5334697080162, 199.90304306284295 436.64110424721827, 200.9321684428501 454.6817978138993 M201.37475807374457 404.73979596599344 C200.09059615370572 420.2949600874532, 200.25576213040335 435.72642458180803, 200.89855634785448 454.595185149935 M202.1482005781378 455.36733410614255 C180.75940092281428 453.6790638840297, 162.01384684315997 453.7326466218885, 141.3872888578976 454.08425192926273 M201.2054838959719 455.8137105651167 C177.63948922167285 453.56846132946526, 156.4527793322635 455.29413056485475, 143.69602217422738 454.5119596604722 M143.71420973934698 455.2483116052545 C141.28515799329693 437.13145492826646, 142.553694741364 416.7522855965161, 142.32303783731965 405.6651562074305 M143.65824697341773 454.06257015016274 C142.09895623534044 437.39611567533683, 141.89643056997522 418.33938348207096, 143.00200694405348 405.53091939545294" stroke="rgb(0, 0, 0)" stroke-width="1" fill="none"/></g><text fill="rgb(0, 0, 0)" text-anchor="begin" font-family="Consolas, Courier" font-size="20" x="45" y="435">t</text><text fill="rgb(150, 100, 28)" text-anchor="middle" font-family="Consolas, Courier" font-size="20" x="172" y="435">id11</text><g><path d="M21.034034986769765 30.976308238155053 C57.41786197568482 30.72323302780283, 93.1001183883229 29.0808136709313, 124.7181044494858 29.689143251534276 M20.59515218356667 30.612483535637452 C45.588000385413224 30.643617711323856, 70.59194242887386 30.756709073639584, 126.56281434204283 30.56133331139528 M124.1849063732877 28.42637454208905 C126.87033319816919 47.52828049262819, 125.72676337120392 68.65186558397488, 125.16101619820172 79.8129664987375 M125.51808649978342 29.84289360294235 C125.98573347889884 49.71839456130324, 125.747348067715 70.27718918698557, 125.01694213766763 79.20850894959835 M126.732053932003 79.54699527163176 C102.04520503700616 78.98339893438533, 80.88085652549779 80.53450184108377, 20.58014310881522 81.11306135119675 M126.9799173422403 79.09036784040234 C92.17127398154942 81.20938865626195, 57.391610004861505 81.4348960674796, 20.816649569337418 79.24605109895339 M19.242744995458736 78.84768510601467 C18.976583861739186 69.0008570224802, 19.15840882197547 56.79528397746617, 19.505826752960893 28.23683254382287 M19.83991131813201 80.53056944570767 C20.258472026587242 68.62666121916472, 20.07202378627494 58.53027162943371, 20.806232756735955 30.455246360388486" stroke="#000" stroke-width="1" fill="none"/></g><text fill="rgb(0, 0, 0)" text-anchor="middle" font-family="Consolas, Courier" font-size="20" x="73" y="60">__main__</text><g><path d="M18.50675082638801 979.4042881211525 C94.24455387335479 979.0034654654803, 166.61394154617867 979.3072496919636, 217.3442506095771 978.2067598917694 M20.962967120902682 979.8317150044262 C65.73898039132403 982.8044637849118, 112.63164380689193 981.8947963958141, 218.8874843443905 979.950257299978 M216.97915158607404 979.0959663729474 C217.2319986948296 1056.7392302555772, 217.05258578228708 1133.8595240493485, 218.12222398334964 1203.749558160347 M217.59265897349877 980.3043341295856 C220.2472352327441 1062.9513158985333, 220.08025610567628 1144.8848214311508, 218.74185221110147 1204.533723925775 M216.49445298410765 1204.7047196365115 C169.58378747487586 1202.8106553838948, 119.45621898526814 1204.3971564409946, 21.582447542538187 1204.9463958969754 M217.11359037408334 1205.397642951188 C143.86782013248936 1205.88240716747, 67.24358484156491 1206.6304647153086, 20.73907812998844 1204.3229785757612 M19.854731655689193 1206.6782030485188 C20.4460601588989 1143.058727175681, 21.547835839848226 1081.185662219001, 20.731797391115705 979.5272672961464 M20.547402788692736 1204.9947728351674 C20.068319630555003 1132.7966601412418, 20.186468004269656 1061.4005340045796, 19.935888320147587 979.4578687964313" stroke="#000" stroke-width="1" fill="none"/></g><g><path d="M142.78848923525928 1054.6566286237103 C159.24597540241643 1056.2785059401338, 174.17484928810433 1055.926893690885, 200.24039934729825 1054.011287966989 M143.5775531360626 1055.2826614246494 C158.52899733699616 1054.9214562928828, 173.79939547411144 1054.7455599155674, 201.03366613968262 1055.2771106444884 M200.12968409323705 1054.623858876146 C202.4199453439059 1067.5750515760567, 201.91352940523757 1076.380797597363, 199.96311599429188 1105.3081648809366 M201.40518538164773 1054.2192650629847 C201.11443534854092 1066.5381499157147, 201.64871711760534 1076.6852207675176, 201.56325554484872 1105.3600735515745 M202.5281122192805 1105.8314022255352 C187.49830841793255 1105.0620871793435, 174.82915079360808 1104.0563076479582, 144.60177444725872 1106.3804662165849 M201.64909960327924 1105.5623369809364 C189.16320621153545 1105.1472852216739, 178.27770409166644 1105.1471329884441, 142.33791814767366 1104.9740372627982 M143.2056474427634 1104.3434530613695 C142.32792650779515 1092.0479107017536, 140.6845252911824 1074.8748017192827, 144.04885290698152 1054.167209487869 M142.7557227442873 1105.4970616774194 C142.48139077921584 1090.2314838861141, 143.69394461217988 1075.9395249253512, 142.90461969296638 1055.4386538574604" stroke="rgb(0, 0, 0)" stroke-width="1" fill="none"/></g><text fill="rgb(0, 0, 0)" text-anchor="begin" font-family="Consolas, Courier" font-size="20" x="45" y="1085">age</text><text fill="rgb(150, 100, 28)" text-anchor="middle" font-family="Consolas, Courier" font-size="20" x="172" y="1085">id12</text><g><path d="M141.6850501496686 1128.0614263346138 C157.23700539515764 1129.2486951014578, 169.40023369059395 1128.6038048783118, 199.39472607236164 1128.7606811721848 M143.68993884528385 1129.8409536118008 C163.44569902321794 1128.9188765326182, 184.47687381199646 1129.9176378095378, 200.09638757117773 1130.1082120089372 M201.80032760045327 1130.6501115741507 C201.87731821995118 1148.2289106007088, 201.8149272156809 1169.599321815393, 202.94852813284285 1179.4273358938046 M200.81343070718574 1130.649487871004 C201.44072328610153 1148.7709138872378, 200.71604332668377 1166.6762422617592, 201.47530997358606 1179.5413529637299 M201.85236314024718 1178.2877490978226 C184.15005660397716 1180.5331107723953, 169.38531472467983 1178.9709667649965, 144.06757166726717 1178.969924293419 M200.86829770049064 1179.2280914562073 C181.01631579874444 1180.684246617294, 163.55740697603258 1180.1850471996866, 143.02112744390993 1180.757683257391 M143.99701947146974 1181.7682680098355 C144.96108401756948 1167.034406276186, 143.63723338076485 1152.2196176969946, 143.56645276269722 1131.025643746456 M143.39280051940634 1179.0508021254527 C142.27245385039578 1166.4201003114736, 144.13684396770333 1153.7670880138483, 142.9398754265971 1130.9546085097159" stroke="rgb(0, 0, 0)" stroke-width="1" fill="none"/></g><text fill="rgb(0, 0, 0)" text-anchor="begin" font-family="Consolas, Courier" font-size="20" x="45" y="1160">name</text><text fill="rgb(150, 100, 28)" text-anchor="middle" font-family="Consolas, Courier" font-size="20" x="172" y="1160">id17</text><g><path d="M21.673076952575197 979.5513578532492 C37.415001256728154 978.1186819874213, 59.55210679536554 981.557901365254, 79.55615611710452 980.8826459232721 M19.872097833852415 979.4130478112342 C39.36929126299342 979.956439866457, 59.06155578869881 980.7866177693063, 78.84289686807813 979.3548526780659 M78.77600039916481 981.5148762739286 C76.45377801564148 991.6800643064697, 76.83935756151178 1005.1934790415802, 79.07191461678443 1028.6157225857785 M77.05488459633591 979.7125722140826 C78.08820024425309 991.7782788965577, 77.31212742158031 1005.1331964098678, 78.83683689003924 1030.5474545265981 M77.36614526954607 1031.9571335691467 C53.86468797819715 1031.2371784168529, 30.70607709788014 1027.9954981682185, 20.76990779666795 1030.8388162072542 M78.0292008293736 1029.5031431512411 C56.18877104230363 1029.9042538984368, 32.32209531401419 1030.6665261507528, 19.039303750790648 1030.30028877085 M19.809885599412 1029.6139011995801 C18.423219174231182 1012.9052577453845, 18.197378726438227 998.2463724165835, 18.490873700391262 980.1088949671349 M19.340940672732735 1030.8815350914188 C18.886200553857428 1018.2306938345075, 20.01557415114962 1007.8534095529025, 20.41838136570419 979.0843768158724" stroke="#000" stroke-width="1" fill="none"/></g><text fill="rgb(0, 0, 0)" text-anchor="middle" font-family="Consolas, Courier" font-size="20" x="49" y="1010">func</text><g><path d="M761.2656894032397 30.01442099116291 C838.2121689828779 26.497137979873667, 918.7008507995978 29.10060202832865, 1041.6073242296723 28.892570530739455 M759.4523429964245 29.47565588989515 C854.2455887137356 28.196157686259127, 948.9293926150864 28.07921261733528, 1042.2382360510455 29.91131350198347 M1040.7958793001262 29.316510117324697 C1042.9396039666567 60.90331624819977, 1039.9838274431495 87.72943024320709, 1041.6556779828697 159.09327135682824 M1041.65942193444 29.5248929737495 C1042.763350440348 55.78908171447006, 1042.3767299868193 83.1349013676102, 1041.1818086632861 159.33910344299701 M1042.9933338162652 159.03618590805485 C973.9697427604202 158.74768903331923, 904.6096457047872 157.78519164996217, 758.7935628869091 158.62677618157093 M1042.5408073299034 160.50457034533093 C947.8698430359736 159.81704671667293, 854.3009388818699 160.52765103566074, 760.3507211039006 160.53073112414566 M759.4072694192619 158.17869928843214 C761.5141674090208 118.9057748717468, 758.507888045433 81.85093884400275, 760.4809975919934 30.921034652228226 M759.7744200786768 159.59736490004428 C759.2862041026042 128.38744361213796, 760.1987072563762 97.46213544646652, 760.9742838046042 30.899897368540774" stroke="#000" stroke-width="1" fill="none"/></g><g><path d="M786.4691112801324 95.94055650907035 C805.1837975098057 96.13994385921058, 822.9107901818275 94.2639371669595, 841.2473776646744 95.85966393008673 M784.8296649608003 94.8399414747335 C806.6441936511159 94.72463564530966, 827.9827826827227 94.60972335723754, 843.815786626203 95.71726243623948 M842.9555796359832 93.29244161357175 C841.9642126678483 111.57395033102945, 843.0304918815359 129.82678703032352, 844.8056246890837 146.0607790200354 M842.8652522741563 95.67886990578624 C841.6720743655429 113.56920590678278, 842.4856406436109 130.89885842907407, 843.1090590762796 145.6287847176455 M843.422431102171 144.09698039747735 C831.6899633050458 146.5978050721516, 816.9557133817714 146.53527543686545, 783.6996348356967 145.83194231158933 M842.4361627524634 145.819819457314 C820.4348856978145 145.06653810901855, 798.9645407575699 146.25034961319633, 785.6748346029185 144.2405975204795 M783.5596588561889 143.86674145824296 C783.7111976784554 127.06967655206952, 784.105822951593 110.83198855045197, 784.799939333979 93.31988352679737 M784.6592148325365 145.30278454662349 C785.5463258116916 129.28241320189417, 785.763055898549 115.81585697859083, 785.7548720824057 94.76929603387559" stroke="rgb(0, 0, 0)" stroke-width="1" fill="none"/></g><text fill="rgb(150, 100, 28)" text-anchor="middle" font-family="Consolas, Courier" font-size="20" x="814" y="125">id19</text><g><path d="M844.5587587868952 93.90829865301725 C863.0059366067456 95.45218468539262, 882.7640178601678 96.52793003921533, 902.0652647648136 95.95724898402042 M842.6709238801405 94.6690826753677 C860.8199559107688 96.11628202039883, 877.134208885881 95.98641945941549, 900.253691169439 95.68096595977542 M902.4166191422851 93.58717279877347 C899.3169652878945 111.6645061782579, 899.9642559445018 126.89810541091695, 899.5210455959557 143.0912130122281 M900.6887279024919 94.27977765288709 C901.8136289445921 108.60120962291423, 901.6380030598568 122.09544711807901, 900.4630956324545 144.38200310972013 M900.6322110349183 143.47814907588648 C883.4588238138631 145.29693336313358, 864.3536926610373 145.9350300011467, 844.6517763950137 146.92531960817843 M901.3694517343241 144.24298063619716 C887.1669110989084 145.37958774233795, 872.7057964119455 143.56511909196732, 842.0190398244821 145.17657174189014 M843.5553013920626 144.76840622313972 C842.3609766590994 136.05615555990462, 840.9227709308938 124.5797847683526, 844.8329150766778 96.18263973013984 M843.2775865248682 145.9406629770825 C843.2963034951666 131.43727619584078, 842.0757324305251 119.06252088314527, 842.7763375349841 95.90238844707574" stroke="rgb(0, 0, 0)" stroke-width="1" fill="none"/></g><text fill="rgb(150, 100, 28)" text-anchor="middle" font-family="Consolas, Courier" font-size="20" x="872" y="125">id43</text><g><path d="M901.4718910466775 96.23618003777963 C918.4118938432615 93.4517364572005, 939.9603967177071 94.50332736999486, 957.9004831022409 93.14733002337744 M901.5229793010888 94.07849822383304 C917.9891762823603 95.38383336125675, 934.0557733615954 95.58090555485435, 958.9337750291994 95.41419079540083 M957.4649822989267 96.29172509368587 C957.9700675446088 112.06316531995186, 960.141755810971 128.00164558098328, 957.1543244090018 146.5796444780619 M959.1054690685165 95.17833199327778 C959.4880324470955 112.91491855070231, 958.4324944690168 133.13970530542457, 959.18885169072 144.10761526294627 M957.0548419321213 144.3081006702431 C937.9231491953431 144.08103996527356, 918.3891027227844 143.43005684558946, 899.3554242084831 145.409511865432 M958.4074187742929 145.01364738327476 C936.7513593773716 145.9886865726073, 914.5786785875938 146.37555860113687, 901.7765009053402 145.7683582136198 M901.4946599679486 146.20407351975877 C901.7875452515343 131.338795460015, 900.6117706284479 118.7882872836454, 899.2766272392113 95.68384291303609 M900.1572377449305 144.26525451051393 C900.1980853061777 130.26218028926317, 901.114792346989 115.73744561082157, 901.2442167999961 94.42625093739082" stroke="rgb(0, 0, 0)" stroke-width="1" fill="none"/></g><text fill="rgb(150, 100, 28)" text-anchor="middle" font-family="Consolas, Courier" font-size="20" x="930" y="125">id28</text><g><path d="M959.1799717792762 94.68540538629853 C972.1303072357296 94.06846714069445, 983.5887241756888 95.83760040450503, 1016.5492712900005 96.23444148327347 M959.8240824093652 94.00782912498688 C981.2481887860789 95.30706036059564, 1004.271991435667 94.35097593086056, 1017.4620909908566 95.70788942576732 M1017.0530243896162 96.86921643420679 C1015.1239621842454 110.07141553834254, 1018.2261117327098 126.06649042350708, 1017.7744311428607 143.61870582155544 M1016.2590206483254 94.49952927104435 C1017.2346016750189 109.19245589656565, 1017.3834648714183 121.127176598996, 1016.2314701954958 145.8826815717957 M1017.5268603201952 146.00674597623023 C1001.5899347760616 144.51433508133587, 986.8403098318003 146.2345737730633, 957.97309961643 143.18045083849978 M1016.5331756527522 144.00724875482928 C1001.5043483739481 145.03077253793407, 986.8346797721114 145.6372470534214, 959.0587597423505 144.6931798844734 M958.6003596354906 146.4461922001177 C958.1366298262575 127.9963654537298, 957.2942291585234 109.21109332690484, 957.5018257319261 93.72833822257803 M959.7419639660608 145.71954903142125 C959.198632596283 130.97775237872378, 957.6927807024583 114.69787817690423, 959.4792231562677 94.00935759636957" stroke="rgb(0, 0, 0)" stroke-width="1" fill="none"/></g><text fill="rgb(150, 100, 28)" text-anchor="middle" font-family="Consolas, Courier" font-size="20" x="988" y="125">id49</text><text fill="rgb(150, 100, 28)" text-anchor="middle" font-family="Consolas, Courier" font-size="20" x="790" y="60">id82</text><text fill="rgb(27, 14, 139)" text-anchor="middle" font-family="Consolas, Courier" font-size="20" x="1012" y="60">list</text><g><path d="M759.6061736248706 29.498064318073844 C773.6846587277228 30.443886653382076, 787.0961306353418 29.864382500557035, 821.975968687014 30.847942733733994 M759.9067573920681 30.42045542222171 C780.8804474794481 30.971929347887922, 800.6885760301692 30.41496898735001, 820.7197944558051 29.525083757110128 M820.3526910191428 28.08613899658185 C821.2661125575232 43.12288337837992, 821.5882159859591 56.99513319050811, 820.5250145104886 79.80073249227878 M820.3390504334554 30.566823801678854 C820.2919220991314 44.832004225078485, 819.9744933735893 58.874362892925184, 820.9921558294708 79.03464331303583 M821.452334784641 80.19741790959574 C805.0755132247587 77.99396259143005, 793.3782729903475 78.3599741213733, 758.4984442259394 78.27556143539037 M819.9852397948804 80.2056107185849 C807.5590797417435 80.6435037038627, 795.0761872773054 79.10171951892153, 759.8681858906058 79.59132206766377 M761.6782993063805 80.64703758696213 C758.9017175527189 61.913446109252604, 761.4676783192242 42.896372770518134, 759.370289084801 31.98908629426076 M759.1570795453683 80.00470186339496 C759.0300515449842 59.914388930358456, 760.2563109600865 40.940306944649166, 760.2140682960596 29.875601826877826" stroke="#000" stroke-width="1" fill="none"/></g><g><path d="M982.2550883714558 30.42282894526046 C1004.2456211286229 27.96279931065265, 1025.4856859251786 29.824190512564105, 1041.3142213179387 28.759848162796196 M981.8335444680663 30.961178374057642 C998.7676635529087 28.577344680227508, 1015.1586268567601 30.330231477278666, 1042.3493058998756 29.006756140262507 M1040.6923753760161 30.621908782799025 C1041.9101524724317 48.76612474822193, 1041.5457575908006 69.6479855713934, 1042.829842282896 80.8148830235331 M1041.3022700444617 29.901433076571205 C1041.788980084631 45.45811993015358, 1042.4709712533056 61.060066895953845, 1041.8128495400554 79.70075858052395 M1041.7154271094773 79.58190413529701 C1027.1875680083358 80.82585278136929, 1011.4904791672712 78.1155829850887, 981.5161207860538 80.00484988332991 M1041.5793830222572 80.4409848481512 C1020.433641825874 79.04448847360528, 997.9908057148945 79.97955732214248, 982.9440247232085 80.6289469434816 M982.8320046397315 81.06081940405907 C980.428386935781 69.82248084291933, 982.4622648147788 53.990738316089576, 983.1834160615413 29.728055802913367 M981.5684145251546 79.32698342380591 C982.1327460721407 61.511878181994994, 981.2226012042049 44.84983434550061, 982.0051529828855 30.914257035716286" stroke="#000" stroke-width="1" fill="none"/></g><g><path d="M760.2330107835143 188.77433711378936 C831.5159573537425 189.87719400839603, 901.9282229553439 191.23624826943293, 1043.1396347755574 190.06020965941659 M759.653789751338 190.23297645108923 C843.3992146402542 190.27840694493796, 927.9780273758465 190.58270604560906, 1042.4931531985696 190.33690148510473 M1040.8791323326159 191.60630927882204 C1041.8314231876452 224.0577519653984, 1042.2888712788367 255.6506182692423, 1043.3337694470063 338.53723859602366 M1042.944508221117 190.54223867024285 C1042.7859822248863 221.20134265029589, 1041.2874348605637 252.69156877002374, 1041.937781320979 339.51898804595027 M1041.7519834625996 339.5928745437134 C973.7154123229353 339.7261189205154, 907.7967489202525 339.9876773226598, 758.9162953624159 338.7888412300072 M1041.942824960531 339.80543447685693 C984.5804203363839 340.58725017163897, 928.1601621863249 341.67490460278094, 760.1438560410136 339.9446721580643 M761.0850159880019 338.01977735551793 C762.2068393564234 294.58478014428295, 759.7564538992714 247.470321621183, 761.4453265047695 189.0906708145756 M760.2876602661536 340.93918249472785 C760.2242772845838 294.8749113499448, 760.2011359009367 248.94912800724433, 759.7706250276779 189.0943602176202" stroke="#000" stroke-width="1" fill="none"/></g><g><path d="M784.6621156296062 273.7045234647011 C808.8829629008509 276.1508150366439, 828.2941835463633 276.5578475272786, 843.5600449273082 275.9015626854602 M785.3595605179158 274.08221319264567 C808.0609817527674 275.63359950252254, 828.7399314998916 274.7491257642006, 843.1269798815698 275.10188212984735 M843.4382309666162 273.42868716733034 C842.267936704339 286.9116822767191, 842.8620666132715 302.4369213437886, 844.4599452118324 323.86930004082996 M843.7976355896537 274.99068216357307 C843.1838123209577 286.63108251489643, 843.357605012678 299.17767903729106, 843.8412854188427 325.54785603103795 M842.2758647673146 324.8230516234751 C832.5465797832994 323.04568135068985, 818.457584563095 326.1387141568631, 786.6671936270254 324.3193871825781 M843.2793049719066 324.94002969586114 C823.3301986749685 325.64276716988445, 802.0930147735763 325.437233621323, 784.2066873486095 325.4973232941016 M783.5941357608076 325.1664186950552 C786.1946281510873 310.6686226749947, 786.1403014995564 293.41855717599805, 783.8793158342199 276.50305349123533 M785.0970612472692 325.34972130577574 C785.7293175664711 307.0804699862551, 785.2841088037161 288.58684231737357, 784.4978802631174 274.195063482614" stroke="rgb(0, 0, 0)" stroke-width="1" fill="none"/></g><text fill="rgb(150, 100, 28)" text-anchor="middle" font-family="Consolas, Courier" font-size="20" x="814" y="305">id32</text><text fill="rgb(150, 100, 28)" text-anchor="middle" font-family="Consolas, Courier" font-size="20" x="814" y="262.5">0</text><g><path d="M844.6079768392303 275.4748991306025 C859.2949524816771 274.11861023825986, 878.9835435491077 276.09624284289623, 899.5287916557933 275.27034303079057 M842.2629235505271 274.07774507756153 C865.8258238519179 274.58366751419015, 886.6986886407184 275.1660471563656, 901.3631562101633 275.42234549300434 M900.8237604806147 276.08416129868334 C900.3425473111604 287.8287103891662, 899.9078079589922 300.89913383399335, 901.8759839329894 323.8102327138112 M901.4286223798474 274.3523686161835 C902.1123116258973 293.80202703363886, 900.8463584790329 311.23656804529253, 901.8655744950008 324.1397583035514 M900.5375499442727 324.58868037535666 C876.5557015338866 325.60086422319057, 853.6895978825494 326.4135055547475, 844.0096559996729 325.5553872857594 M900.2300938990184 324.2553168518158 C877.8239950900753 325.21872396912204, 854.260896415455 324.8887596242887, 843.617315595751 325.51409115862504 M844.501703623269 323.10723939214296 C844.1257797631056 305.1525198480934, 842.5010712733991 286.7144490903867, 844.1905625388486 276.49471813772635 M842.698147232499 324.0017927726076 C842.2742006779814 314.4373039498055, 842.470267933493 302.1419410853401, 843.5817880235518 274.34641543028096" stroke="rgb(0, 0, 0)" stroke-width="1" fill="none"/></g><text fill="rgb(150, 100, 28)" text-anchor="middle" font-family="Consolas, Courier" font-size="20" x="872" y="305">id10</text><text fill="rgb(150, 100, 28)" text-anchor="middle" font-family="Consolas, Courier" font-size="20" x="872" y="262.5">1</text><g><path d="M899.4054589301751 275.744049711407 C914.2892987932707 272.7884213566892, 924.8423523394031 274.63109472911884, 960.5265847234544 273.8741027468276 M900.547599021925 274.9259273256192 C917.8318505263461 275.6477805797097, 932.833384096232 274.55897480873017, 958.3185323346522 274.9904902126848 M957.3746797905944 276.7719365100795 C960.9922705966106 290.44612100323474, 959.0044714515839 302.8006599748412, 957.9547287480613 326.4349178804867 M959.6287165188692 274.0644754735822 C958.844455284892 292.54512718645793, 959.0065147195936 309.46193514159637, 958.0656610331603 325.9282832475731 M959.4900570117936 324.8597324088651 C943.3289573983872 325.1569464912163, 924.664171647512 324.63735238418866, 901.7274243818608 323.47590577897097 M959.1800387451215 325.12498824419475 C940.7853443245626 325.0541940168835, 922.4038226982431 326.18687250542, 901.7083099302583 325.38992967174374 M901.3556212331157 323.040432840326 C899.8118256134858 310.7861178218509, 902.3849781388743 294.0102984452398, 901.9117176689455 275.4004848797968 M901.9406223093526 325.0023445383075 C900.4032739089172 313.42137253551397, 900.1308760838762 300.3511722081366, 901.3450945060058 274.1439531055688" stroke="rgb(0, 0, 0)" stroke-width="1" fill="none"/></g><text fill="rgb(150, 100, 28)" text-anchor="middle" font-family="Consolas, Courier" font-size="20" x="930" y="305">id90</text><text fill="rgb(150, 100, 28)" text-anchor="middle" font-family="Consolas, Courier" font-size="20" x="930" y="262.5">2</text><g><path d="M958.468712551493 276.56348190601375 C974.2000688551761 273.04191578963673, 987.9334911254053 273.07129885236105, 1016.7291051401991 274.4766303157228 M959.7434538282124 275.5916176539183 C975.9903323424159 274.8066168720675, 992.0763254411656 274.19365831374245, 1017.5875151920327 275.4872675988295 M1017.6707887282233 275.2598108768766 C1018.4958795534949 288.8085111172939, 1018.4318237207814 303.9773805641235, 1018.2785997762245 324.6140206461008 M1016.0823715288711 275.7938133417885 C1016.5881853931401 292.73119607562916, 1016.2616718178436 310.03081195343935, 1017.6820319551998 324.4583769855911 M1016.2747811602238 326.74690061543606 C1002.8816084978539 324.72030119877843, 985.1677814450605 326.94059435650814, 958.322732278757 325.7128057866093 M1017.2222114982017 324.4542240380048 C995.5352133112857 325.16471119113896, 973.4298690725019 324.92076336851716, 959.7470194898714 325.7107884200701 M958.2408284564995 324.28681850651753 C960.1089500060867 312.5520961004134, 959.8030476479942 300.59049285086223, 957.7860460673 274.4301042286573 M959.9934915523954 325.7936466908009 C959.0183928449651 313.3307507554158, 958.6847796818954 302.44578151394114, 958.3703990157985 275.36382690360654" stroke="rgb(0, 0, 0)" stroke-width="1" fill="none"/></g><text fill="rgb(150, 100, 28)" text-anchor="middle" font-family="Consolas, Courier" font-size="20" x="988" y="305">id57</text><text fill="rgb(150, 100, 28)" text-anchor="middle" font-family="Consolas, Courier" font-size="20" x="988" y="262.5">3</text><text fill="rgb(150, 100, 28)" text-anchor="middle" font-family="Consolas, Courier" font-size="20" x="790" y="220">id84</text><text fill="rgb(27, 14, 139)" text-anchor="middle" font-family="Consolas, Courier" font-size="20" x="1012" y="220">list</text><g><path d="M760.7243550433259 190.873085004657 C772.5835290297911 189.98408786389396, 786.922989783002 190.0430031055311, 818.5812596740643 189.72797056978726 M760.9039854093704 190.16094998727732 C776.9084095442325 190.98478313688625, 793.3195542964422 190.01794937544136, 820.8524282213557 189.7989775926627 M821.3909488841327 190.04387625033857 C820.9438886869874 204.88849216770916, 818.2990556385857 222.57255207209997, 818.7613878150145 239.64387404462673 M820.0256557220978 189.09380242736262 C819.6269444841272 200.17697314088076, 818.563383455348 211.2287114437141, 819.6185293364797 240.45017425125098 M820.5581878405459 240.42076699528215 C804.9034733511777 239.32627085263655, 790.1132242885925 240.46308163651534, 758.7039045395612 239.07181587715547 M820.8058482762046 239.69813346441876 C799.1088886163312 239.19957529133112, 778.7281305824242 240.250658945822, 760.8176202125358 240.31431067353338 M760.6227145295561 240.60325940886702 C761.3063631676224 219.5369270146971, 761.7547786534005 200.77372378684478, 758.252587185015 190.680746450996 M760.9228333945925 240.97177164901765 C760.252424234031 227.61757653554147, 760.4983205837885 214.61264257000963, 759.8851991699548 190.00068143800368" stroke="#000" stroke-width="1" fill="none"/></g><g><path d="M980.1003726311117 190.81190854156853 C1001.9978021146047 192.1098209425131, 1018.1825367510731 189.5973331323599, 1042.553829003626 188.99003020029315 M982.0423128062404 189.24210194189806 C994.7140524346561 190.20971630938973, 1009.0285581454455 189.2605009483622, 1041.9574080154769 189.62697969185015 M1041.036695765086 190.9309467362363 C1043.251786355969 203.4568688835545, 1040.8073239131002 217.8341223438913, 1040.0295354249054 238.2898704049119 M1041.5515382046347 189.8311147335049 C1041.3346046795812 200.49235917403198, 1041.2024278566948 211.35447004825036, 1041.7455914252982 239.30983378143415 M1043.4474126404161 240.19221781505445 C1026.7373535466081 240.91353743653468, 1012.2655176993009 238.87330419105726, 981.8139752396818 240.8442239344369 M1042.5209608777288 240.45774662833227 C1028.123955357027 239.71012435315325, 1013.9198775395244 240.7336519148615, 982.7441037033309 240.43569247566597 M983.5157605220008 240.16182143318508 C981.7843953262145 226.23059433200044, 983.3061614420407 214.29346765669607, 981.3658104501994 190.19313396659592 M981.3561657488045 239.54409985127344 C982.2458532606454 219.6279400944436, 982.0618964912986 199.9325418379008, 982.3333271796589 189.58275735813478" stroke="#000" stroke-width="1" fill="none"/></g><g><path d="M761.1977332687466 371.77719076329845 C806.0312474381802 369.1229072370386, 851.7152745646529 369.7842494295607, 960.634280475092 370.6753119136239 M759.4393226933169 369.6018394663448 C822.8078788274026 368.72298630784917, 883.505151156126 368.7708727916605, 959.9878755058636 369.75987353744415 M958.5006680399365 369.19634259104674 C960.8920928041741 410.8636741005155, 960.3331882859906 454.2993531100252, 958.45862519348 500.73594777768267 M959.7128817962109 370.493609770379 C959.3474333346498 402.87940403675134, 959.9954615626078 436.12770280206144, 959.9055720891021 499.4739543046711 M960.3995862791528 500.8645200888733 C903.6316920531712 498.7344813784664, 848.7312531211337 497.0820371500501, 761.6108185873221 499.3163588767328 M959.8253271188705 500.38738901522197 C912.5992907684862 498.62820981615704, 865.6528954060201 497.3564983323724, 760.335126400457 500.2739059350962 M758.4756192100809 500.9622330168738 C759.3434742602361 471.9380562970275, 759.6103368513135 446.82648573710276, 758.3732938445756 371.3688570315455 M759.5861826844059 499.2243729743498 C762.1539685328166 450.2093316220463, 760.9070271150136 399.5702240915714, 759.8906366281159 370.98010835365136" stroke="#000" stroke-width="1" fill="none"/></g><g><path d="M753.2967520002636 363.76314329179235 C824.7961071684449 362.52446916809987, 894.6109326843514 361.6502550091461, 964.5627639250878 365.0818246778303 M753.3806830855111 364.61519283244 C802.6594593216392 365.0785887395049, 851.9755357164914 363.6007176210424, 966.6278473764627 364.3699376668594 M964.9551979784819 363.20814334910995 C963.1347793367014 404.0612071034616, 963.241585641064 443.3798783258575, 967.5622003080159 506.2310481145701 M966.2561741750671 363.7607902546344 C967.4214399763974 416.12578536456687, 966.6185842623956 468.80467019030925, 966.2468107199052 505.3951372108724 M966.5797979794627 504.61251254493766 C891.7596255505667 505.7877930276321, 820.6407135249696 505.70107007480743, 754.5913884173103 504.64810475925844 M966.1535873925703 505.7402403744975 C906.6926606313608 506.0904454098186, 846.6583714334096 505.84184670267484, 753.5612087646523 505.33443954417635 M752.1469935651428 504.32122947547634 C754.689466926377 464.1163651768922, 751.9469952221825 423.88878859407384, 755.4494774135392 365.6636818419691 M754.0372457720097 506.63237696191646 C755.0929146876849 468.319465525786, 754.1071390359515 430.66593949139457, 753.2911974747468 363.76147527945994" stroke="rgb(0, 0, 0)" stroke-width="1" fill="none"/></g><text fill="rgb(27, 14, 139)" text-anchor="middle" font-family="Consolas, Courier" font-size="20" x="860" y="460">1969</text><text fill="rgb(150, 100, 28)" text-anchor="middle" font-family="Consolas, Courier" font-size="20" x="790" y="400">id19</text><text fill="rgb(27, 14, 139)" text-anchor="middle" font-family="Consolas, Courier" font-size="20" x="930" y="400">int</text><g><path d="M758.483138715503 369.9607891992473 C776.6798541581603 371.61962913138035, 792.8593963143617 371.36324919951016, 819.6616657444324 371.47809807314684 M759.9364220686323 369.7843039076644 C781.946892672531 369.7818638377571, 802.5504264640863 370.069241231197, 819.423229187057 369.96983504324527 M819.2753131935673 369.78472162674154 C819.2429795221816 380.4349004145131, 819.0028052801902 392.5416738624109, 818.2845486327876 419.84356524084814 M819.4108434227202 370.0896222922696 C821.006816119978 387.7995828309173, 821.0625214358623 406.3672024384252, 819.7959101789422 420.02522474991616 M819.6096503007027 419.5462825619856 C806.3348638041982 420.10408263212554, 789.6736651011942 420.39076630945584, 759.5847866965441 421.11182221870456 M819.8046153836059 419.121349114394 C796.1097413740531 420.29008109511074, 774.1369156330405 420.5173634300419, 760.8286079499442 420.8935618080948 M760.7959587926036 421.5160146363968 C760.0894227832609 405.6446810672154, 760.4468363031824 394.9339174527756, 759.8984179825551 371.64585085503165 M759.5177151382742 420.30004089572634 C760.7405180557826 407.21860423426483, 760.0407834420876 395.74508767313245, 760.7880223395631 370.88598994549085" stroke="#000" stroke-width="1" fill="none"/></g><g><path d="M898.8505907307485 369.9237242078126 C910.8317693049742 368.1675777202542, 925.7935578731597 370.02639785068806, 959.0504898594021 368.91929915340063 M899.5885809042642 370.7155602947264 C920.160373401695 369.1713926919269, 938.3216561501797 369.5553861215229, 960.0806244025902 370.68531413606786 M960.9891752160806 371.27529661166824 C959.7490929384145 383.1760080704469, 961.04319076378 394.5419812724824, 959.6991277875596 420.3493403168815 M959.9023246155151 370.13685749500496 C961.1841216349011 383.28003413643415, 960.6914118483461 397.16641080246643, 959.2548319510285 419.89168273016605 M960.4521879922535 420.37823666643925 C945.3867761455291 421.99591225583856, 929.3887494201947 419.0825605891419, 901.6659115045321 418.57425159289704 M959.9185782360211 420.2882953124087 C946.629107779507 420.7217129925876, 932.1745440243166 421.155172726796, 900.6048922467521 420.6437155828554 M898.4596003154412 420.9637284727005 C901.7464592313684 408.67173567563066, 899.7854309820877 395.03537603320837, 901.1838801759343 369.9568183597966 M899.2053580778354 420.57348200481914 C900.9562125206871 405.3989085206943, 900.8427884393124 391.8814321796479, 899.6698746929894 370.1449835790247" stroke="#000" stroke-width="1" fill="none"/></g><g><path d="M1003.4891015202472 368.6994223841419 C1059.1777900234208 370.42098815576725, 1115.4498161523752 370.14412345528984, 1203.6166220918376 371.67838876706537 M1002.2038132282644 369.3173488633475 C1063.1205461993031 369.25122969124857, 1125.942962565675 369.41073777050656, 1202.116491739764 369.9906868796645 M1203.2857280645665 369.9363991545851 C1202.0106664252446 415.4602248592524, 1199.8128249094466 463.0153784863444, 1203.9506001115528 498.8839657704791 M1202.8279511593466 369.2486328633744 C1199.9702562199504 402.61318417162744, 1200.5103461751578 436.49253852798665, 1202.8842227985126 499.7399750156556 M1202.7059308244095 500.46351897515916 C1138.9309071348907 500.39328953552894, 1080.6512984741817 501.1805630431563, 1000.8787576047534 499.9652760493156 M1201.5784332714322 500.28737185380413 C1137.4796711258741 500.16306384936087, 1074.82393343727 499.90113821666614, 1001.8185356106297 500.13412320313927 M1002.5420901729656 500.897564405048 C1003.0045341411995 457.466461784405, 1002.4670005579442 418.6434641241157, 1000.9234513843223 368.3793075642042 M1001.8536274823603 500.4462108268417 C1002.2464393498441 468.0756501412568, 1002.269323193562 437.63302848090535, 1002.6184278530736 370.96828575413315" stroke="#000" stroke-width="1" fill="none"/></g><g><path d="M995.7132289966443 363.61230394773423 C1073.705597375073 363.1844210228719, 1152.567423484294 360.758452119983, 1209.582239319013 365.48545949452773 M995.1569769569605 364.00207287668064 C1049.0293333960142 363.66790330987357, 1101.0140306989501 364.070453722359, 1207.1274114673213 364.31409848001306 M1206.7551736265655 363.43536493793215 C1209.0554815405771 402.70219311174503, 1207.6755639026903 440.38424838325744, 1207.9923988859039 504.5208088621071 M1207.986029357072 363.14424699928344 C1207.620998287914 401.5404748654403, 1207.3639795569 440.8121696494776, 1208.408777554656 506.2496601020015 M1209.3983455756795 507.1620300422592 C1165.710472301185 508.135611890178, 1123.440960892819 508.6988657614524, 996.7996382623448 505.0315933767933 M1208.7451292957996 505.7788600013208 C1124.5301619434456 507.4484434367596, 1042.0655144590355 506.5815766798916, 996.226552419662 505.12942015525664 M994.8178569397331 504.21545628715273 C996.8727337858811 464.51128976529304, 996.7093459947439 419.0871475173016, 997.6065225655049 363.6755125678913 M995.725869080147 506.04467353130974 C996.2631245116462 472.43357986820934, 996.9722778887564 437.22520061101164, 996.4207158310741 364.49659874683226" stroke="rgb(0, 0, 0)" stroke-width="1" fill="none"/></g><text fill="rgb(27, 14, 139)" text-anchor="middle" font-family="Consolas, Courier" font-size="20" x="1102" y="460">True</text><text fill="rgb(150, 100, 28)" text-anchor="middle" font-family="Consolas, Courier" font-size="20" x="1032" y="400">id32</text><text fill="rgb(27, 14, 139)" text-anchor="middle" font-family="Consolas, Courier" font-size="20" x="1172" y="400">bool</text><g><path d="M1003.1108260548666 371.8310417698907 C1025.390414908789 367.8847700857702, 1044.4266733497648 370.65588246888206, 1062.705485019503 370.5793160443272 M1001.6240963483702 370.9616401188743 C1022.3159545417479 371.02811909898594, 1043.4394555855827 369.5415468103752, 1062.659278593586 370.3541751772577 M1062.1310143957685 368.12731198920176 C1062.2390048220634 388.2181553091846, 1064.005898505825 403.8929317394016, 1060.0049740995073 418.40119629403824 M1062.9876330333468 369.20310071482044 C1062.4637071027694 388.3547181054716, 1061.9029482758685 407.9198532776795, 1061.160307438332 420.0487959517542 M1063.1058734301523 419.4730250934566 C1048.69328187489 419.63488250367556, 1036.304659118968 418.2491918198341, 1002.9029337716328 418.8243263371912 M1062.248948979297 419.0108076809662 C1049.0352932847686 420.5114820888708, 1034.9381959987904 420.40283069094926, 1002.6745611136123 419.0706561167307 M1000.3536931977155 421.51499889339493 C1002.7327349071095 398.78537962333274, 1000.9660709518814 380.74715686093964, 1003.9229796960274 368.3575900118924 M1002.3835835686638 419.3587860058078 C1001.4022673206173 406.07276493947796, 1002.627480852274 392.318569539543, 1002.1180383919241 369.09568644579974" stroke="#000" stroke-width="1" fill="none"/></g><g><path d="M1141.9202437015406 369.7279202971855 C1154.8934991793978 370.92465414936754, 1172.1135157137812 370.38007997906436, 1203.9555814461944 371.3569501435901 M1141.7033514412253 370.2785062906732 C1157.6667751007155 368.93026964123555, 1174.7672882609083 368.48928707324734, 1202.5678644706175 369.1981849271098 M1201.8753313011694 371.3745805532276 C1199.950225668939 382.09934255293194, 1199.9493051851139 396.4340747927173, 1201.9453611262302 421.8058266693509 M1201.9640283295564 369.1865523436348 C1201.5889137994614 383.4901640288348, 1202.1013441233276 397.320527245834, 1202.4545907983827 420.68177740451506 M1200.5046289345835 420.524097830613 C1180.293236617947 421.11883761297764, 1156.64147306936 420.543712471676, 1140.2248435370066 419.15992639380295 M1202.9457388501178 419.4551860715262 C1177.8655542837434 419.48346225016286, 1154.210157695145 419.4542906961242, 1141.6730185792187 419.94202685835234 M1142.523993519107 421.80660095653354 C1142.6525757766303 401.5355525567864, 1143.6520683326085 380.807262625775, 1140.7550127241832 368.2979711083522 M1142.4783182986537 419.9838145363777 C1141.8464553110066 408.24165964665417, 1141.8023579561434 397.1868836960859, 1142.0321852811915 369.03932951100376" stroke="#000" stroke-width="1" fill="none"/></g><g><path d="M758.2953580568812 541.7557732972658 C828.2795332805864 542.4711000376602, 897.9807889305011 541.3975571809583, 960.0444817731792 540.5621967775663 M759.3387723596564 541.21784362798 C824.8982435148756 539.385549075839, 890.4321846159697 539.8290301124628, 959.3192343110688 541.328583830542 M961.4228358363606 540.8931340355904 C962.15389818441 590.3026944599994, 961.6792345815513 643.5409336910661, 961.6976583476355 671.354589179565 M959.1691176516257 542.8585572822468 C959.2024440474837 591.1265370192198, 958.909675632005 641.3359222998865, 960.8620719296259 671.1431170043895 M959.9338868823917 672.8726425224296 C906.4616128684684 671.9395063419831, 855.1136884268636 671.9523693229067, 759.7828666823581 672.6067079657514 M960.8442939618368 671.7909518773843 C881.0355768420977 671.4980409549946, 803.2455831685039 671.6998631789435, 760.0013023954298 671.178620189289 M759.0712152913303 672.1561632135518 C761.7759473457412 644.0759128646484, 759.1361388766182 616.3145637732692, 760.9126574117743 543.6565941096251 M759.9508204282905 671.2789412970569 C760.1681310958596 625.9412532059682, 760.4554670796758 579.9390986963464, 760.6103474172925 542.9793178778418" stroke="#000" stroke-width="1" fill="none"/></g><g><path d="M753.8648044499656 536.9158727800772 C833.3602906808464 537.8685765138397, 912.9362497098497 537.0064015092172, 966.1528398965854 534.7500166253166 M754.8346121881467 535.4196711219271 C804.6661102875498 535.1808909904372, 856.1857197214953 535.779156197104, 965.2804847805882 535.2580521862751 M964.8826289185813 535.0441144877103 C967.4074223293666 578.9117112880948, 967.4401328007851 622.9353727203785, 964.3588872229125 677.4414742013379 M966.4128544237483 535.083876445869 C966.8439412098605 577.2526292584923, 966.5079208894017 618.3346143636206, 965.0164573910371 678.5038046737703 M965.5986785855337 679.426442517673 C884.2899923392072 678.0997900051046, 803.5793272842344 676.4049872296542, 753.1180047274817 678.4073829943986 M966.2506370352413 678.6943699359601 C906.2231071784574 679.5117279479905, 847.449519670225 679.6582369684053, 754.8654800661433 678.3880518256151 M755.7114206494907 677.7363498501741 C753.4139518417384 624.8263525392937, 751.859054082515 570.3409258598152, 752.1799445436756 534.7661333210164 M754.7041595488694 678.4795310338066 C754.6031643506008 647.878218263567, 754.2704355517475 615.5058184968905, 753.9331723573421 536.8506151834553" stroke="rgb(0, 0, 0)" stroke-width="1" fill="none"/></g><text fill="rgb(27, 14, 139)" text-anchor="middle" font-family="Consolas, Courier" font-size="20" x="860" y="632">"David is cool"</text><text fill="rgb(150, 100, 28)" text-anchor="middle" font-family="Consolas, Courier" font-size="20" x="790" y="572">id43</text><text fill="rgb(27, 14, 139)" text-anchor="middle" font-family="Consolas, Courier" font-size="20" x="930" y="572">str</text><g><path d="M758.2276577286385 542.3686200688949 C780.34016072462 541.7621733730131, 801.5714348779854 542.5421988131027, 821.4975769223647 542.9087504692699 M759.1419794510514 542.8805631424752 C773.3459394319408 542.7383660125286, 785.9841514797157 542.7064043503809, 819.0878394438321 542.3622692545687 M818.737257666355 540.783418549202 C819.9957686444566 553.5616977920411, 819.5098761495224 562.3522735402728, 821.1165805397661 590.9956829432223 M819.4932889667497 541.2228116921083 C819.0098366320955 555.9384462959329, 820.1550194606583 568.9710618110518, 820.0548170835149 592.9591275840721 M818.3749903865228 590.2966242446555 C805.816241948864 591.3951694300647, 792.3475053448187 592.1332624158144, 760.3498295064645 593.8093460913814 M819.154214604585 591.319592174773 C807.4827743260472 592.4437820379931, 794.8128884160207 591.6728636114366, 759.469116111233 591.1552156196472 M759.9307660342264 593.743765553113 C758.3277398655218 577.1712270858163, 759.7472716358789 565.4263017435106, 760.8990319568064 543.2913647279748 M759.1291799355644 592.9992762703055 C760.4879778215504 577.9130927884188, 759.5804338691431 563.8882291266642, 760.2349918015756 542.6599366396104" stroke="#000" stroke-width="1" fill="none"/></g><g><path d="M900.6326182801064 543.0004802931014 C925.0366313622286 540.4163248584869, 947.9538011195845 540.499517077353, 958.812145145796 541.6096216576001 M899.6429081829762 542.2285254518491 C924.1148393958637 542.2185562405, 947.262117213719 540.8394373236667, 960.533798638577 541.7039329241402 M958.8718742846261 543.693078963221 C958.9309022766055 562.4938284717041, 960.703326156204 578.9706689235488, 960.1508729457373 592.1488019064827 M960.6807006327025 541.2358275803946 C960.0626742361442 552.2340932026417, 960.175583322641 561.760099430063, 959.5184296115452 591.2627165663412 M960.538547414518 593.8031541310336 C945.0461211469114 590.2817501173677, 929.4976233901812 590.3519985350464, 900.0057720631559 592.7040992262813 M960.091538591012 591.8738033710767 C937.5971760073975 591.4988013737145, 916.7474177721774 591.5409555541476, 899.2319789187206 592.3629484654651 M898.938561092742 591.7755868992117 C898.8340773341957 572.1573405160113, 900.2278901856411 550.4622170725552, 899.8732552200502 540.0696770901284 M899.5817047121118 591.134927747969 C900.3514182497494 577.3166406308151, 899.0905143342918 564.7080239713755, 900.4844466109155 542.1125788141799" stroke="#000" stroke-width="1" fill="none"/></g><g><path d="M1001.4800924379387 542.0659122640485 C1062.207827916992 540.1007923115792, 1123.5942343102756 542.031584145921, 1201.750528876869 543.041022083343 M1001.3670434152921 541.5526259026848 C1060.653266396838 542.3071220169135, 1118.5461408245965 543.2866192587015, 1202.8721401610403 542.4965536446684 M1202.4641956391301 543.8987026087884 C1202.6225967900243 577.1866506468812, 1203.743236933998 618.13370118598, 1202.735481700078 671.3966503317446 M1201.0619260907297 542.1192591469861 C1201.227975441731 582.7052776145772, 1201.8497286737968 624.3211113745417, 1202.4700899788188 671.670252001814 M1201.2416142879379 672.4972810542216 C1126.091672055902 672.2391602433572, 1048.8980731187644 673.1301443399732, 1001.263683090434 671.0572757990117 M1202.4208280478315 671.3463741621731 C1142.4258069004923 671.1813680947257, 1083.2684043213465 672.0962581236787, 1001.9548455255236 672.8849520190145 M1001.2477450489565 671.4106765671114 C1003.7070024606953 620.5288674103668, 1000.6795046639171 571.3441065155604, 1002.0725045584027 540.0990968665493 M1002.0244696974571 671.3855286032688 C1001.7273399297683 629.3061768213759, 1001.8421274781048 587.1225386120698, 1001.6881622234357 541.943802582393" stroke="#000" stroke-width="1" fill="none"/></g><g><path d="M996.034822620236 537.0124535407554 C1043.132393997493 535.7548877062518, 1092.2731821685888 537.4020740338119, 1207.1237451897914 536.5465309320198 M996.8108735396529 536.5663566637875 C1063.3977604183988 535.7573321263945, 1131.4200537754925 536.1876894411243, 1208.7732016903444 535.9325418699593 M1209.6254342978214 537.8341047798431 C1208.303820592859 571.7165204798544, 1207.1583477924146 606.2274782940631, 1208.1476802367433 678.7586995538398 M1208.7353546511652 535.7703639584051 C1206.2404372122144 590.6973828115549, 1206.6103974142575 646.0992282403076, 1207.9733752247598 678.6740623662203 M1209.003263623887 678.6614878602961 C1161.5071306105535 678.2022162685083, 1117.5060827372638 679.5205296216113, 994.9967126487977 677.7860159380829 M1208.1201527391122 677.3703549079302 C1159.046358282071 679.2636585244127, 1108.6087040446164 678.1097147202994, 995.8786469353682 677.7492949521287 M994.0204422026753 676.2274145041076 C995.8245878830079 645.4769713079768, 996.5227969480053 615.8286187027933, 994.1533422924505 535.5307272682747 M996.9944101496399 677.9113962231213 C994.1818207953995 623.9717741888203, 995.3082311153553 571.1813260818859, 996.3640853365044 535.020929588551" stroke="rgb(0, 0, 0)" stroke-width="1" fill="none"/></g><g><path d="M1027.03070994892 608.7725839095547 C1045.014088480692 607.6935816646588, 1066.6707702534427 605.4682288870715, 1085.5448595995786 608.0249210609444 M1026.6968440496526 607.4750628615278 C1049.3734622876912 606.485274117338, 1070.5257274390929 606.2807848238051, 1085.9482139530578 606.3273817757373 M1083.295837690454 607.6400431999651 C1084.094576541666 619.6617846992916, 1083.169959058347 629.6920883227353, 1083.0234730100076 655.0700633418857 M1084.974309778763 606.086435297502 C1085.1901188036675 625.384806229205, 1085.849865971797 644.8977046397779, 1085.0440865793953 657.864391207896 M1086.410612178317 655.559650036725 C1070.6078173971855 658.9187740135466, 1051.5939475340238 659.1811155674123, 1026.2357349122994 657.4766569866637 M1084.1667683032117 657.8957730294763 C1070.2395759900767 657.5085443922916, 1056.456545783309 657.7909595851179, 1027.3499898454418 657.2533104205498 M1026.1064715727696 655.2240868746035 C1027.7748720063807 646.0649367433823, 1026.3571757619115 633.360922174089, 1027.1343189827232 605.4401075577132 M1026.561687292828 657.6447800885926 C1026.416753194188 638.660823801408, 1027.7303895481004 620.2137809714319, 1026.4150134743004 607.3844877947541" stroke="rgb(0, 0, 0)" stroke-width="1" fill="none"/></g><text fill="rgb(150, 100, 28)" text-anchor="middle" font-family="Consolas, Courier" font-size="20" x="1056" y="637">id82</text><g><path d="M1084.8308246471834 607.4525153506328 C1098.3487362039464 608.0465464344232, 1109.430253476096 605.979447650346, 1141.3565010978239 606.1922173969587 M1084.6359077926654 606.3732743856128 C1096.6909161182946 607.8682747974266, 1110.2656524208305 606.7922239252312, 1142.4952689820354 607.9905954611484 M1143.8144114484496 607.8852683710403 C1142.6392733059802 616.1877538471124, 1142.2751698077886 627.3775434516808, 1141.4398871557628 658.4391358848416 M1142.2643841838767 607.323530759015 C1142.413868913322 616.8947671792545, 1142.1605115990008 627.8881677526116, 1142.7024073220066 656.3157002524454 M1144.8935396097295 657.1333368211332 C1129.3117603493213 655.8303641140774, 1119.6048791770322 656.4309920009584, 1084.8277701929908 656.8259984218374 M1143.629222518707 657.1076522404519 C1131.1041742932919 657.2400421491016, 1117.6573903365618 657.5162448272773, 1085.7884223563074 657.3436879981462 M1083.9089142362684 656.7091488913455 C1086.1839693889826 638.849894494359, 1084.3406640527958 616.0052925079103, 1083.7521033677056 606.9540440259424 M1085.5545195845123 656.6524134075672 C1085.498858872138 637.7453844670559, 1085.6602744911113 617.7959139509848, 1085.1957324242912 606.1794854709137" stroke="rgb(0, 0, 0)" stroke-width="1" fill="none"/></g><text fill="rgb(150, 100, 28)" text-anchor="middle" font-family="Consolas, Courier" font-size="20" x="1114" y="637">id76</text><text fill="rgb(150, 100, 28)" text-anchor="middle" font-family="Consolas, Courier" font-size="20" x="1032" y="572">id11</text><text fill="rgb(27, 14, 139)" text-anchor="middle" font-family="Consolas, Courier" font-size="20" x="1167" y="572">tuple</text><g><path d="M1001.3677575345234 543.0721067334995 C1019.7788973332409 542.6787826085202, 1040.4308390115914 540.7431268281036, 1060.9252025446806 543.8850969691457 M1001.2839994727049 542.9085060467077 C1019.8882718208173 541.5058391376563, 1037.16434648844 542.8757675510461, 1061.5858098333786 542.1283445366289 M1060.7018216838392 541.8683460459454 C1063.6827051921946 556.6138571005055, 1061.6823472602423 570.5683516792137, 1060.25801373546 590.0098812386559 M1062.8217173424434 542.2359297328687 C1062.3971292556678 557.3270763858874, 1062.2032953371638 572.0720848958623, 1061.144896744283 592.6537662436481 M1062.4076272345242 592.5976004042741 C1043.5812080290848 593.6436794501976, 1021.5343469629153 591.3503302366631, 1003.0874197927744 590.3516540102784 M1061.948837019371 592.4017605153032 C1040.2691190119579 590.9837959616098, 1018.3161831448366 591.5285312705128, 1001.151227587852 592.48057792295 M1000.6293357714341 590.4204142848797 C1003.8690098481504 571.2674885489768, 1002.0276492315156 551.3025527346176, 1003.8865263581874 543.4279342345849 M1001.7573462237923 591.0938336068086 C1002.3254376556406 579.0519128518728, 1000.5905559346942 566.1750037631089, 1002.8461810056614 542.293275062568" stroke="#000" stroke-width="1" fill="none"/></g><g><path d="M1133.4873867900053 541.5144741100357 C1151.4528724680654 540.334370829319, 1172.530940865227 542.614644091823, 1202.117754145752 542.0496171737421 M1131.6486821025346 542.4771402951073 C1158.0011722759816 542.4932077687108, 1184.7189708264978 541.4579524031311, 1201.3424907598774 541.3279329063196 M1201.0224529599252 542.6971214267757 C1203.7233873221696 554.8410148144739, 1200.722561375143 568.0873699354976, 1203.285339801657 593.0609422283636 M1201.7964159998567 541.4546985742052 C1202.650651072143 561.6999094910738, 1201.7207821725651 581.2628563037994, 1201.9139145825332 592.4382894113163 M1201.7925829497199 591.4556916535412 C1179.727548189298 592.0007872450153, 1162.986096154504 592.5756230500867, 1133.603016703869 592.1488875406492 M1202.0055783844368 592.678414871766 C1175.0524295895743 591.9049132607568, 1146.5180787276538 592.041000942019, 1132.2374327416323 592.4480351788868 M1133.956788683694 591.2128898660346 C1133.385808444818 577.8898263467194, 1132.3341682948246 565.8147003650587, 1130.4113943167715 541.812549385024 M1132.9562083209212 591.4718809844463 C1132.7903212970632 580.4047768153495, 1131.4676408217824 567.6632223652125, 1131.819773478505 541.3469804105943" stroke="#000" stroke-width="1" fill="none"/></g><g><path d="M759.1031763242361 712.4273686308143 C855.4429808968242 715.0134457608356, 953.2419359290543 714.6632094889007, 1007.3762307892815 714.5257715154085 M759.4032750409847 714.0947721380297 C840.4315113498213 714.9564651101139, 921.4085558148618 715.2701698750748, 1009.0404674729274 714.3580211139591 M1009.0969954120554 712.6047684406252 C1009.6510205275009 755.0554204040916, 1007.4392218158272 795.3711102773666, 1009.3107847094293 844.9204584720786 M1009.4267372487842 713.619937644916 C1007.1644597324521 744.9605820371954, 1007.9556764071957 775.4348877003385, 1009.3286616145792 844.501910662772 M1009.6488004895258 844.3419536455591 C932.396091742439 843.1452751238144, 857.6815956107471 843.8016234691082, 760.5403714887949 842.8241382209625 M1009.3654545460083 843.5690404033786 C927.4457338244129 845.2490366042159, 846.3729404313433 845.4750114037901, 759.4639653988554 844.7280751800004 M761.8172655014428 843.4226745075072 C761.523868588638 813.3391989364109, 761.2568291364194 777.91917811851, 760.8896300702846 715.1852122380479 M760.4691904567903 844.8343163084472 C760.3146454058608 802.377122952232, 758.7698450061619 759.3136139501831, 759.8021051777812 714.5009258018259" stroke="#000" stroke-width="1" fill="none"/></g><g><path d="M784.430872871556 777.2864932289673 C799.9799236999497 777.2063357079197, 815.6757372257949 777.1322215612375, 841.6472538728979 780.8607706187995 M785.5487648026589 778.4006092682824 C803.3533364907435 778.6510849056557, 824.1427585552057 777.5490774301084, 843.8004126971626 778.8148533139245 M842.8531634137404 778.162779084918 C841.5957653438278 796.4263834324344, 844.4766357524214 808.6289566095908, 843.1709554117602 830.129821514062 M843.7627750873488 778.3142879296569 C843.6272496217299 790.9408983753468, 843.6064884147783 802.3998645982072, 842.7552874763868 829.4011832011921 M843.9448381947867 829.384221626004 C824.7899919696509 829.9894172065367, 808.046133520642 827.6375115096365, 783.4991327848418 828.7737003029309 M842.8355523315636 829.2547903073649 C820.2474802383367 829.4802886874286, 796.165058874968 828.6387397822223, 784.150980048619 829.7455947195181 M785.0862331254768 828.6970529026396 C787.0114234932701 813.6670337895997, 786.2267136963022 797.7363429434466, 784.9840548178526 778.3699055244543 M785.6530481104844 828.4763270335712 C786.1353396768676 812.8068766139154, 786.4103369953862 796.6063574957252, 785.9510652748254 778.0404279488074" stroke="rgb(0, 0, 0)" stroke-width="1" fill="none"/></g><text fill="rgb(150, 100, 28)" text-anchor="middle" font-family="Consolas, Courier" font-size="20" x="814" y="809">id36</text><g><path d="M855.2915573473758 779.944499962599 C869.7405940584778 778.1373926557477, 883.3835128596405 778.1520278001848, 913.4218048893337 777.5580737181123 M855.9644350708353 779.6020478155134 C867.9304080128302 779.3508648791143, 878.4438590373937 777.6283979011705, 913.3278342081334 779.2449617102247 M913.0496657133207 779.4141723642797 C914.168043663865 797.8654815731114, 912.0696128693442 814.573624661901, 912.4795656592183 827.278868759521 M914.407986139908 778.8574237324915 C913.7862644701469 797.187044982029, 913.25128520937 816.8572249294665, 913.2966898088125 828.89973099167 M911.5906964263614 827.7620005652751 C898.8037220106687 830.2715993671233, 883.0250300246079 829.9134839852815, 856.4348023210222 830.9358890349018 M913.7221021182708 829.9296789255095 C899.6609329753956 829.3217586568977, 885.6403739803936 828.4332338399248, 856.3215290837322 829.5122219168734 M856.7927309283286 830.7102713595225 C854.6910221495658 808.5224351590325, 855.8324879463968 791.2040247816078, 856.345568390517 780.8679714945489 M855.7958752683961 829.0007269764058 C855.3044512600271 812.3512836848594, 855.5562932842441 795.005721315785, 854.9273304364415 778.897580433786" stroke="rgb(0, 0, 0)" stroke-width="1" fill="none"/></g><text fill="rgb(150, 100, 28)" text-anchor="middle" font-family="Consolas, Courier" font-size="20" x="884.5" y="809">id49</text><text fill="rgb(0, 0, 0)" x="849.25" y="809" text-anchor="middle" font-family="Consolas, Courier" font-size="20">,</text><g><path d="M925.4978663841064 779.9105982008166 C948.6417174045022 777.8033968541955, 971.1295078822837 778.5875734539953, 984.4339399704098 780.1912990076813 M926.1005248421668 778.3177219024175 C938.3974706887608 778.9466118792595, 951.2434812142203 779.7848685475697, 984.7090930600007 779.2237447965914 M983.0177331204903 777.0193829028428 C986.3179419287305 789.7169492898446, 986.1247581784941 804.4924906177093, 983.3485920349191 830.5199959115317 M984.3147170419953 778.754179161554 C983.5308831569066 794.9527177407815, 984.6154468044934 808.6530656948144, 984.3602460230044 828.0579218248052 M984.9713080209981 829.4511116907947 C965.9495585977699 828.4425689425741, 950.0894814671248 828.824270168132, 924.3036477367161 828.2727838521113 M983.7779294572573 829.316668216769 C961.8258785946381 827.6412568356416, 938.5766762493024 828.2455642939427, 926.6212219219125 828.081747686011 M924.4861857759898 830.2780224001547 C927.0630619058436 810.2364338699479, 924.5026019829155 791.3244802992117, 925.6247762696415 778.788145830895 M925.5193219511997 829.6200664640934 C925.5143944075211 816.93662298169, 924.9902569387691 803.226785003187, 925.2219868048853 779.3070689658188" stroke="rgb(0, 0, 0)" stroke-width="1" fill="none"/></g><text fill="rgb(150, 100, 28)" text-anchor="middle" font-family="Consolas, Courier" font-size="20" x="955" y="809">id64</text><text fill="rgb(0, 0, 0)" x="919.75" y="809" text-anchor="middle" font-family="Consolas, Courier" font-size="20">,</text><text fill="rgb(150, 100, 28)" text-anchor="middle" font-family="Consolas, Courier" font-size="20" x="790" y="744">id90</text><text fill="rgb(27, 14, 139)" text-anchor="middle" font-family="Consolas, Courier" font-size="20" x="979" y="744">set</text><g><path d="M758.9189630383065 714.7063631288852 C777.6174169577823 715.49257453337, 798.3729950513654 714.0712911394038, 821.1304135810788 715.6439644482513 M760.8861915602458 713.3867790343255 C780.2044817408233 714.8264194225089, 799.9041356750162 713.7389808109953, 819.2163084417585 714.8948955032776 M818.2082078688628 713.4747116540399 C820.8801421341096 731.8311557053071, 821.341825844145 750.2817086890434, 821.9124037476379 763.8922042038313 M819.0529422689507 713.2276596702453 C819.5544649315515 726.3686679597236, 818.9089094304309 741.1473376778531, 819.1269199408333 764.1009009590108 M818.8942321688091 763.9855019916405 C807.7518794827754 761.9989348284043, 791.4138877139312 763.4254836399082, 759.061580849507 763.4890682437768 M819.7977538928534 764.8343438551917 C798.7764941323228 763.754016288694, 779.8073573270275 763.9032094014233, 760.3053077572227 764.3608631158294 M760.3163295806776 764.5741773915199 C760.929407496482 746.0421851777497, 757.6938046378584 731.6336263361029, 758.8665404310226 715.3430476973542 M760.1868729949148 764.2374484618157 C760.0327191720933 747.2817966841124, 759.507118605865 729.3481574918492, 760.8777672650364 714.2840676878424" stroke="#000" stroke-width="1" fill="none"/></g><g><path d="M947.6396305041402 715.3666913388804 C968.068419562012 712.6379982449424, 985.4608213261472 712.9685906441408, 1008.5253338228381 712.3211804828783 M949.6460230173171 714.9005946283621 C971.81717639746 713.3720803363757, 994.1551537865339 714.4820876409698, 1008.805887735343 713.5802094755339 M1008.4029849197779 713.6065867289057 C1009.8304693245054 728.379638074048, 1008.0535624682901 744.272142317635, 1010.3179249254601 762.5191424049377 M1009.6562111718417 714.6562619689521 C1009.2261788020325 730.714587503972, 1010.1684040947109 748.5566927743588, 1009.707903319896 763.9655020744157 M1007.3479597115042 763.54097293916 C989.2236830547035 761.8953192167983, 969.1262476364337 764.9751423561801, 947.0621629242861 762.9674715364158 M1008.8852415289846 764.1445097851902 C994.7141952904619 762.7175868196501, 979.9554311382078 763.8776848596333, 948.4680585004245 763.9442449213831 M950.4532690137946 765.1448653918171 C947.0534878564172 748.9239527698351, 947.10419269083 731.7548241093286, 948.785565338455 715.5550623153739 M948.1499342594209 764.827780968112 C949.787593530962 743.7135780635917, 948.9495397258049 724.9370695765796, 948.1701457294963 713.6820680909609" stroke="#000" stroke-width="1" fill="none"/></g><text fill="rgb(0, 0, 0)" x="772.5" y="809" text-anchor="middle" font-family="Consolas, Courier" font-size="20">{</text><text fill="rgb(0, 0, 0)" x="996.5" y="809" text-anchor="middle" font-family="Consolas, Courier" font-size="20">}</text><g><path d="M1064.2082009345884 788.0408331285663 C1076.0382512311169 789.4363143948535, 1093.2566223462125 790.0441090840658, 1113.7139517563367 789.3690863830151 M1064.5772088338445 789.4401228773615 C1076.8224617303226 789.0497500642672, 1088.6644118088136 789.1101636462895, 1113.8717120008846 789.1700772067925 M1114.3420068862638 789.6366607877632 C1115.8701973354837 809.1515517308882, 1115.6920519301245 824.7873276179711, 1112.4053230004413 839.7934835493353 M1113.3363973582402 789.5585884972305 C1113.510613085405 803.0560975048201, 1115.1479644094293 819.4003293476491, 1113.8802986817875 839.3665616968075 M1115.1399875696666 837.2674413550955 C1097.7929890815517 840.6697530361527, 1085.6357370052797 839.6329026469077, 1063.0119230284702 840.1120043040835 M1114.8502917775609 839.9830490762319 C1100.5941956925956 840.2275787051333, 1085.1265929131275 839.5778227956289, 1064.706051640917 838.0127762412957 M1063.3501848448466 839.3983472889666 C1063.8114240545576 827.0728334308598, 1065.5347068164792 819.3180733099115, 1062.8818504728195 788.86033340331 M1064.0411111659816 839.0593436100734 C1064.8624020586112 821.257691636278, 1064.0056302691899 802.5410145974726, 1064.6828314446357 789.4164720328424" stroke="rgb(0, 0, 0)" stroke-width="1" fill="none"/></g><text fill="rgb(150, 100, 28)" text-anchor="middle" font-family="Consolas, Courier" font-size="20" x="1091" y="819">idx</text><g><path d="M1062.4208686285783 865.2600504850109 C1082.7362707444659 864.8779429869894, 1101.6620095195706 863.3191111349661, 1113.6033852667556 863.474484132587 M1064.2114592819457 863.0235606718139 C1081.3747396465494 864.7331322354271, 1096.9095142094934 864.813381143255, 1114.429654885554 863.1427145151498 M1115.6668871678778 864.9536860002748 C1114.6537116743218 878.7442643852771, 1112.9332676298147 892.6958509092591, 1112.3084266332025 915.7948391116925 M1113.6868295193467 864.0211467817385 C1114.5735580198748 882.0543685690034, 1113.338544549151 898.5933999285763, 1113.0147556684763 914.6654070179856 M1115.1803478609515 915.3063669478386 C1094.127593097704 914.818092748019, 1076.157597818212 914.3034447467245, 1063.4760411348818 912.5380753611341 M1113.7941581091177 914.0412179809018 C1095.551619106907 914.363739313235, 1078.6548114677375 914.2042361602735, 1063.788160481151 914.7365355651717 M1064.5967974308817 913.2971375385316 C1063.5549373150307 896.6735437217732, 1064.9224289868291 882.9740746097198, 1064.9847549900462 864.7950353376586 M1063.874888641409 914.5221938834915 C1063.5033283893388 904.1124029664915, 1064.715262838829 894.7091913897071, 1064.670445093631 863.3512614056336" stroke="rgb(0, 0, 0)" stroke-width="1" fill="none"/></g><text fill="rgb(150, 100, 28)" text-anchor="middle" font-family="Consolas, Courier" font-size="20" x="1091" y="894">idy</text><g><path d="M1065.9817149779758 939.2089720383568 C1077.8200913162052 941.0733362671539, 1089.723790055767 937.9320426533756, 1115.1244829084344 938.780197393879 M1063.8283805075719 939.5272542698442 C1075.1407670914423 938.9500228227805, 1083.754087939775 939.9849559314364, 1113.5725728412726 939.3408539675073 M1113.504082838702 940.6452307008406 C1111.9046257065586 956.1574507054232, 1113.9836666935216 970.9612286557061, 1112.6381566275409 987.4135408064537 M1114.9266474977696 939.0285295337659 C1114.1612978180708 956.9697452103029, 1113.2738322155835 974.7337996079118, 1114.816503615612 989.5411162116899 M1115.9214545770626 988.7341669951049 C1097.9426247886615 990.2970493266116, 1082.9498569790373 989.353715669365, 1062.359606602189 988.5959853803864 M1113.2334812949985 988.1496348302713 C1097.4878589857192 988.5025428417218, 1080.2062194715522 989.5578515463836, 1063.0524597917477 989.4166036186293 M1062.7950795710694 987.9408262860078 C1063.2253296393608 977.3288885848821, 1063.928459110967 965.3002526346557, 1064.8015514199399 939.7075623927587 M1063.4262430134734 989.1219872362572 C1063.7491272333755 972.3894300437303, 1063.8742992214177 956.5083491402837, 1064.7684301152156 938.6195426848905" stroke="rgb(0, 0, 0)" stroke-width="1" fill="none"/></g><text fill="rgb(150, 100, 28)" text-anchor="middle" font-family="Consolas, Courier" font-size="20" x="1091" y="969">idz</text><text fill="rgb(0, 0, 0)" x="1145" y="819" text-anchor="middle" font-family="Consolas, Courier" font-size="20">:</text><g><path d="M1165.787167900608 788.6320944504218 C1181.6065054127607 787.6114297357942, 1197.9719191062757 789.8792307642381, 1224.1391843782872 789.8474417343359 M1164.758805230148 788.1881575719707 C1182.6461480049506 789.9527564842111, 1197.8961189742895 789.5358642966796, 1224.4110624031894 788.6476082446966 M1226.851248099326 788.0223682027311 C1223.1784437280962 809.0669810612684, 1223.013223628947 827.024741468407, 1224.1539538011166 840.9158664838105 M1224.2069865529702 788.9158195554655 C1225.698645000416 802.5574159647059, 1225.0260162703594 817.8618267836091, 1225.6695405822204 839.003840372679 M1225.2567429983253 839.4012549565748 C1210.8858158340877 839.0894410576307, 1194.4843774443218 837.2933698905258, 1165.3133730645827 837.681351054829 M1224.0272714489633 839.5083634653026 C1201.3922507061895 838.1573206936158, 1179.0984632638992 839.10436248219, 1164.776962026622 839.507045121429 M1166.055049533291 839.30741084404 C1162.812436095819 821.7742473240664, 1164.7505471062836 804.9647182840819, 1163.3776963684757 789.6218617497218 M1164.9992655372166 839.7407963071826 C1165.5428802590689 821.6942982394894, 1164.9182892309532 804.1645522594374, 1165.5327108116992 789.0876867268938" stroke="rgb(0, 0, 0)" stroke-width="1" fill="none"/></g><text fill="rgb(150, 100, 28)" text-anchor="middle" font-family="Consolas, Courier" font-size="20" x="1195" y="819">id81</text><text fill="rgb(0, 0, 0)" x="1145" y="894" text-anchor="middle" font-family="Consolas, Courier" font-size="20">:</text><g><path d="M1164.9576930474896 865.830493462178 C1179.8218796568212 864.0761393312149, 1196.3861376179686 862.4138779334523, 1236.558240783495 865.1972869346563 M1165.2388319188658 864.2503468089789 C1184.9302492430863 863.1917543147518, 1203.644059620462 863.3021059010341, 1236.2319298432146 864.1881763289596 M1235.2841244474116 863.1719818048033 C1237.7192632308097 881.45940932638, 1238.0162764870593 894.3093362907997, 1236.473824818842 912.9070120684696 M1236.8826605473284 864.4467229717067 C1237.4900683916992 882.7373562542393, 1237.73146184168 899.3568198292515, 1236.143723482458 913.9462407081094 M1238.2499756717555 913.333165387971 C1214.3460046270936 914.3602361609895, 1190.5252532014317 916.4738579801742, 1166.1527071681228 913.6725284244436 M1237.6092026159604 914.1931078390334 C1215.9864776105069 913.6222026042958, 1197.2853357679664 915.0782285910349, 1165.6183209065514 914.4580041443471 M1164.392128953522 915.9999811545867 C1163.9796389718722 902.4726278222864, 1165.2294479019465 892.3436285215295, 1163.535371937512 865.1415639265687 M1165.6262250686016 914.8783924070045 C1164.7433178034742 894.829435121221, 1165.5491079650842 873.8609898993328, 1164.3797068172169 864.6282929810734" stroke="rgb(0, 0, 0)" stroke-width="1" fill="none"/></g><text fill="rgb(150, 100, 28)" text-anchor="middle" font-family="Consolas, Courier" font-size="20" x="1201" y="894">id100</text><text fill="rgb(0, 0, 0)" x="1145" y="969" text-anchor="middle" font-family="Consolas, Courier" font-size="20">:</text><g><path d="M1164.866194656135 939.300317807446 C1186.8534846701348 939.9916735658447, 1210.4508665587214 939.2158842531403, 1238.9489551564218 939.6825584777439 M1164.4668489971311 939.4588133902361 C1181.2312765043039 940.2099156260327, 1198.141049168227 938.5069424082628, 1237.584973958239 939.9876887953105 M1238.306449478529 939.4194213433126 C1239.2704615776288 951.2337173866235, 1235.6711839522293 961.5384677014393, 1237.4195883510051 987.9858802537335 M1237.3621647319894 939.420671512649 C1236.4087712325438 948.9257836714279, 1235.9955868623592 958.4338743723443, 1237.2622098254521 988.7523753286775 M1237.9162666618263 987.3202968481557 C1214.1162661510384 989.722039834114, 1187.5300306271233 988.9776270293885, 1163.0388642518371 988.1592761204539 M1236.9977311145226 989.0443848399054 C1215.8114313957606 988.0413960920972, 1192.9091120664978 989.2207121946898, 1164.4369653940403 989.7020481372225 M1164.6390796567655 988.986762092379 C1166.1541557351627 975.2044492867569, 1166.5899147142813 966.211338465471, 1163.4667363788917 938.2748988437119 M1165.0886749393917 988.0114538330064 C1165.8901925952368 979.2127574244618, 1164.614547062598 967.9825254471647, 1164.249053704265 939.5559264347436" stroke="rgb(0, 0, 0)" stroke-width="1" fill="none"/></g><text fill="rgb(150, 100, 28)" text-anchor="middle" font-family="Consolas, Courier" font-size="20" x="1201" y="969">id121</text><g><path d="M1040.1496117497525 715.1989937450718 C1093.3415735009444 713.6927658380413, 1144.1380360602066 713.0561622597712, 1251.4299126083633 714.9152385309136 M1039.5683475786273 714.656409909949 C1110.2007342595805 713.2249967957882, 1179.7382736935726 712.2458722863229, 1251.5883290289569 714.5683910075487 M1249.5581416654536 712.7303326955573 C1253.1672737154609 784.7511493035317, 1251.7007160277637 852.5877494047015, 1251.9038666158488 1015.1778912629546 M1251.2366707509634 714.4758481918482 C1252.4589548503484 802.8984459212854, 1252.3563688765717 892.3937293056708, 1251.0120466217957 1014.2566312272778 M1249.8757374269417 1013.1308059985212 C1195.4884333758982 1014.6298830725183, 1142.1811308958215 1012.442103634163, 1040.7112111350898 1014.4036554455895 M1250.289967580342 1014.851070964009 C1203.7657775126934 1014.9419112001946, 1154.8319319030138 1015.8561539915346, 1039.0531984139898 1013.152410099788 M1040.0912868602172 1015.1616171823083 C1041.9994417200305 925.3779992510736, 1041.2144078664676 836.8206537937463, 1040.4154006361498 714.1724979472045 M1039.3165617855198 1013.4448598280554 C1038.3253746957116 910.66452308604, 1038.692969967156 808.6030826210261, 1038.314533307128 713.5466245573949" stroke="#000" stroke-width="1" fill="none"/></g><text fill="rgb(150, 100, 28)" text-anchor="middle" font-family="Consolas, Courier" font-size="20" x="1069" y="744">id10</text><text fill="rgb(27, 14, 139)" text-anchor="middle" font-family="Consolas, Courier" font-size="20" x="1221" y="744">dict</text><g><path d="M1039.1503974381174 715.2352506759405 C1061.5448864540583 714.6884411615285, 1082.721968637269 715.9116472687545, 1099.6047990460393 715.5353983126024 M1039.3071056329495 713.5041185507073 C1054.5407692089166 713.3835533856545, 1068.6071622091602 713.849836118144, 1098.022734261695 714.9158417130212 M1097.6905814825761 715.2147594684477 C1101.0525993669457 729.3239643714695, 1099.2219683109445 740.6526925513847, 1098.4918554623553 764.9799774013482 M1099.126245196613 714.3443817151335 C1100.0206540274892 732.5425458676821, 1098.5986966852595 749.9798759946802, 1098.7709966955235 764.7828326597221 M1098.840232965789 764.6979175485794 C1077.6823754055688 764.8249965598003, 1059.6464813780897 764.6259128807825, 1038.8107858347073 765.5041933498431 M1099.8454797265485 764.244576234361 C1080.5638908399003 763.9212441503722, 1062.6976214000854 763.1596137499264, 1038.2941770586813 763.2964969722279 M1040.0585918755448 764.4659256612333 C1038.3185401871706 747.6815339231002, 1037.3960165080553 726.2534656052401, 1039.701090654169 712.0426996840484 M1039.0279443400482 764.0857883605114 C1038.5381889982307 749.1251098889167, 1038.9157433444036 732.2242085554947, 1039.6338846795331 714.7495824074051" stroke="#000" stroke-width="1" fill="none"/></g><g><path d="M1189.824133559957 714.8376204467734 C1212.4463064755016 714.0750269951162, 1231.4961056696147 711.7205682904091, 1252.2700094198094 713.8197439481963 M1190.5557222962223 713.846424764537 C1204.684441295047 714.3754717716943, 1217.1385297277925 712.4878624104576, 1251.8531901064712 714.8621976403774 M1251.1684188530887 714.440786330307 C1251.3709341110296 731.0857337866968, 1249.1910518458203 748.3767507427032, 1251.6824942639241 765.6111940589057 M1250.717398586957 714.915965919618 C1250.6513307042678 730.593740604051, 1251.0301011214697 745.9745777783987, 1251.3872413923443 764.2729334441312 M1250.7278718579994 765.1311122807558 C1231.853668640942 764.9619475670016, 1215.8780593423205 762.8802610433468, 1189.1453523336413 764.4520968037237 M1251.2370202993654 764.9133954771546 C1233.3083607955493 763.5209410356715, 1214.5935907580526 763.378288849947, 1191.1958816352803 763.6997663129989 M1192.8798614914763 765.9064796615045 C1190.9472221663038 750.9632459307843, 1191.9727643821755 736.3591113976223, 1189.0111825935585 712.7207737372228 M1191.609471248675 763.8846411059072 C1191.151836649173 750.7634674893154, 1191.3905920195245 736.2863738261439, 1190.2090603102138 713.6864732577199" stroke="#000" stroke-width="1" fill="none"/></g><g><path d="M761.7152698105517 1043.5341100184546 C806.8452927424912 1040.9811214547628, 851.7278302847461 1042.8603828200673, 959.3561097437733 1043.0697556585615 M759.6179021221748 1043.8844577403072 C839.3970316242812 1044.2650177533756, 919.1035484873973 1045.4219261404912, 960.5573833315347 1044.3662509656456 M960.2578474548978 1042.6881294944915 C960.8980594951157 1072.4838186501158, 958.8126587556906 1098.7245456680514, 958.267568732955 1175.7865561972353 M960.3738552734615 1044.717959384249 C960.3311226404849 1077.6465065368182, 960.6641650070538 1109.1845239038828, 959.5213355772075 1174.3137550341448 M958.4559968979413 1174.5911591448819 C905.9614303916504 1173.8661701338362, 849.0439276027761 1174.4404649255773, 761.5814058538107 1174.789858174448 M960.4988555593071 1173.2671671681492 C898.1865732849603 1171.854402957319, 837.0459786352521 1172.862312925595, 760.7131935724307 1173.7710612178466 M760.4537274446943 1172.4579647027601 C758.5000506873888 1144.6369846874989, 758.9162203508213 1111.8274141658287, 761.4596991070899 1045.9946677148378 M760.7904590322296 1174.1560485778764 C759.3281983582361 1127.175837936339, 758.8587528735051 1082.7541677895765, 760.787169750832 1043.3056520202617" stroke="#000" stroke-width="1" fill="none"/></g><g><path d="M754.5215045085001 1037.5636552489827 C808.6589216865082 1039.2462393892965, 863.0631073821868 1036.3329996141345, 967.7360924993974 1037.4476979887045 M753.1975990594834 1038.2625182785157 C829.0367773961678 1038.259255280928, 904.4067188581145 1038.8136174969652, 965.4226134200244 1038.283550339572 M967.5024922047988 1038.7590987655 C964.2969636794761 1081.1804585565037, 964.9078584913294 1121.3941518561169, 967.0371380922767 1179.5449877839758 M966.245996910269 1038.3038599794004 C964.8372701858704 1078.6011330262145, 965.8735517183844 1118.5433738789245, 965.771700567415 1179.384745206152 M967.5245605275001 1178.760365935266 C913.4981670302119 1180.3165163293531, 860.7538608187584 1180.382761726806, 753.4906324529071 1181.3886302685814 M965.9296739949068 1180.6427849521585 C891.6791428330458 1179.2849367510205, 818.2406853332843 1179.6506762232864, 754.3332851964543 1179.37406189656 M754.0243258375048 1178.9964045341696 C755.9300535586756 1128.1604303467525, 756.736772596271 1073.139816441789, 752.346794334477 1037.1959814942693 M753.6150668316351 1180.2051509916632 C755.3144149554938 1147.191373804576, 754.1883135127639 1114.7927428009818, 754.5763237491446 1037.0042269791531" stroke="rgb(0, 0, 0)" stroke-width="1" fill="none"/></g><text fill="rgb(27, 14, 139)" text-anchor="middle" font-family="Consolas, Courier" font-size="20" x="860" y="1134">"None"</text><text fill="rgb(150, 100, 28)" text-anchor="middle" font-family="Consolas, Courier" font-size="20" x="790" y="1074">id13</text><text fill="rgb(27, 14, 139)" text-anchor="middle" font-family="Consolas, Courier" font-size="20" x="930" y="1074">None</text><g><path d="M759.8579947606178 1043.7924673499388 C777.0030824732531 1042.8266257409489, 793.5587771704844 1045.024679252075, 818.162607672549 1043.762836348005 M759.7295195720424 1044.6446923343829 C779.4507104815885 1044.0600335048982, 798.644105246234 1044.6070624864626, 820.1172620871055 1044.3320094930266 M821.4860081113989 1043.5035036372565 C818.9900659349968 1061.335267267534, 821.2851774092245 1081.8941740167172, 819.413133371093 1094.1659205559533 M819.4427425711792 1043.6123275239602 C820.3222592546365 1062.9596612251296, 820.9042724747778 1082.6482424335934, 820.4589249985042 1094.9513575918506 M819.6087639519155 1095.952104975989 C799.1326870905198 1093.9068422934283, 783.1462518468944 1092.3009719979966, 760.195558209677 1095.8948637618664 M820.6554371537931 1094.607511443135 C799.8919484696725 1094.33970046215, 779.2631638007631 1093.613538958463, 759.2772364310748 1094.7098691076592 M761.5233848647819 1093.173396824204 C758.5615290664352 1078.7658252328483, 759.0059075416715 1059.0879745136472, 759.3747468038173 1043.5694175602505 M760.9537673006552 1093.4888746899665 C760.0055337028626 1080.5702705922122, 761.177933557552 1065.4939809077703, 760.0642551049922 1044.339792539318" stroke="#000" stroke-width="1" fill="none"/></g><g><path d="M901.0187305792854 1044.6239490572893 C915.0643866193259 1045.1755271249503, 933.4316678452643 1044.9307203783749, 960.6261625836604 1044.6599062411428 M900.4897844308902 1044.7993799667574 C914.7499326960537 1044.2871251698737, 928.5646655220165 1044.1484962303205, 960.4623629127989 1044.2300593601237 M960.7195819059751 1042.2208569752802 C959.0036205730818 1055.070670776746, 960.1420408462866 1066.0757773492378, 959.8080978824274 1094.24850046319 M959.0659186400603 1044.4111634018177 C959.3578898092961 1055.0702498126795, 960.5099174227649 1067.4391425028539, 960.1972469512453 1094.4687683561215 M958.8250863324505 1095.375470672944 C935.7586718029896 1094.3038062278117, 911.2701539433267 1096.4771321557444, 899.7838948443803 1094.3216033542758 M960.8024955702299 1093.7959643512586 C942.1884477834438 1093.945962793448, 924.5483714199241 1094.6968151379795, 899.5382767525272 1093.43123933783 M900.9886725055424 1094.374518925986 C901.3994760131569 1077.7991127421406, 899.2904543252096 1062.2490046684302, 900.1626667299937 1044.0720836695973 M899.8631902860757 1094.5766908989633 C901.0913878498407 1079.0927925216843, 900.4185033250488 1064.1751072269647, 900.8805520663706 1043.0013281333147" stroke="#000" stroke-width="1" fill="none"/></g></svg>