<svg width="1300" height="1189" xmlns="http://www.w3.org/2000/svg"><g><path d="M79.98737861432653 48.93805523412656 C151.43963812665444 51.692522940308926, 221.11314648777895 52.94419598244562, 279.54877520250466 50.07611012598136 M79.61600885031112 49.01922982459072 C136.1242590158913 48.4991010532613, 194.80052211014822 47.399226726215524, 278.33428988315984 49.510960570142004 M277.2147121154295 50.106392868498155 C276.994076246067 167.05213718666926, 276.8811080292499 284.3896719077275, 278.19279978001254 499.18708919019275 M278.33623960741994 49.68172824429327 C276.4646373181107 221.54993832254956, 277.0537010915844 392.9621537320778, 278.12890035433435 500.36359293939074 M277.8518140242127 498.1207056764543 C206.0452730233462 500.0609286096817, 132.342899040823 500.70414640768615, 81.12382484958468 500.48872687977735 M278.5074176745843 500.37214450098895 C212.6977380011446 498.46278901855976, 148.44346666533232 498.3909346424772, 79.26661032251778 500.43285387557813 M79.7249243589711 499.2697818517148 C78.2058434042912 393.25987719918896, 78.60883158434842 285.14553623756825, 80.71004240254018 49.608192309328 M79.98070573893231 499.6288115987758 C78.4965137511236 345.1401614251344, 78.23856788850183 189.9607033553567, 79.69136999498481 49.80047207718604" stroke="rgb(0, 0, 0)" stroke-width="1" fill="none"/></g><g><path d="M203.95204546046216 126.48630461733552 C225.65779787653196 125.33336802012533, 246.7615289029564 125.03011655123039, 261.43878663518313 125.92495572272252 M203.01778562281777 125.01021585565177 C217.63362417490288 125.03098635671934, 229.96086757578337 125.22746919681138, 260.5173356343344 124.80523864183216 M262.11691701103894 125.43404349058916 C260.43158602871017 135.5538567475925, 260.1919311895924 146.75415649163222, 260.5190390885267 175.84728909111166 M260.3935408190548 125.86304784382827 C260.12912433549366 136.04409203374132, 260.59314861705775 146.8726698681264, 260.09426930031253 175.4861857386764 M262.0725253192769 174.28806367951876 C243.63513146594255 175.8564708568702, 227.35986825574682 173.91000065231216, 204.77828862099284 173.38885012171957 M261.30244915657465 174.68461502129458 C245.54147560734046 174.94447584283995, 228.89937065239096 175.1012454465518, 202.46525568090595 175.63949979766625 M202.48879484546924 173.75382825272354 C203.23669304001913 163.4153176855052, 204.69865595810728 153.86478801093494, 203.0859607948588 123.75317821985897 M203.1031633045054 175.7466153771743 C202.8025313070098 155.91292577322656, 202.88629716066364 136.03707862191192, 203.58187146127526 125.42958716350006" stroke="rgb(0, 0, 0)" stroke-width="1" fill="none"/></g><text x="105" y="155" fill="rgb(0, 0, 0)" text-anchor="begin" font-family="Consolas, Courier" font-size="20px">lst1</text><text x="232" y="155" fill="rgb(150, 100, 28)" text-anchor="middle" font-family="Consolas, Courier" font-size="20px">id82</text><g><path d="M202.0693554949679 200.8811396080715 C219.3773223198728 200.88238769054652, 239.64349555600583 201.57756456815312, 259.9299627988226 201.8729954259327 M202.3580822424983 199.80275249815463 C215.70141563367088 199.29039157713476, 230.8851647413453 199.55670472611868, 260.12773890839065 199.5507901774631 M261.3599339008145 200.2182578760467 C259.804282529695 215.75627346651504, 259.0987446516712 228.0369199851765, 260.6879989065149 251.5346444388766 M261.75166843937785 199.556737487512 C262.42007360047324 210.76372284623272, 261.7639727565935 222.84761872359584, 261.24777505325505 250.1900806034859 M262.27512730175084 249.5053440386281 C247.20929425829436 252.4715905335512, 237.52054820490255 251.57985126875036, 203.87231719134633 248.2324383156556 M261.1450243141413 249.7199518461527 C244.7763784042079 249.03675072834073, 228.11428819257642 250.4462882155514, 202.2037684286023 250.8751673761713 M204.1305447275172 250.03207065562282 C203.30384928907597 230.97726500309795, 203.70145828227183 211.17743123312954, 204.53453020563063 198.01221353120914 M203.82317821973783 249.0131985647819 C203.8825889103314 232.274281689323, 203.15569323297925 213.01098881754174, 203.21285547433885 199.1447167578039" stroke="rgb(0, 0, 0)" stroke-width="1" fill="none"/></g><text x="105" y="230" fill="rgb(0, 0, 0)" text-anchor="begin" font-family="Consolas, Courier" font-size="20px">lst2</text><text x="232" y="230" fill="rgb(150, 100, 28)" text-anchor="middle" font-family="Consolas, Courier" font-size="20px">id84</text><g><path d="M204.44319923638642 276.4154864728489 C223.94070146434981 274.9115172618867, 246.77935931984013 274.94881210445567, 260.1935939279073 275.61855197965264 M203.2313181869478 274.7922337789862 C215.232899625704 273.7760987748171, 226.20521654824083 274.9187967661042, 261.8449485336757 274.26252754895336 M259.0932359419663 275.3640940144679 C262.1772853660546 293.195072706284, 262.1965530986622 308.2281581143569, 261.374756371906 325.6556298123224 M260.8702204197863 274.8306823114286 C260.5802533314966 287.0310365117131, 261.50105242447427 301.24571552062577, 261.08119311044663 325.01963274437423 M262.74483309585037 324.0280881885979 C245.0306713545674 325.5625912335862, 231.56591704503123 324.67864944438315, 202.61319721187473 325.69223482989725 M261.7972996984655 325.9746339809983 C244.8797197315097 325.5462184099019, 227.4683613971678 323.7211956261003, 202.1070247992532 325.3866080564612 M202.707149411885 326.0236562192583 C201.0196144368324 314.69234613802024, 201.64400216012015 305.05525486518917, 204.29447986857852 274.9747144239848 M203.07735856542143 324.55505154581095 C201.77369300077314 305.27985845924985, 202.46540165360037 285.12600744713666, 202.23930130326357 275.6737537114666" stroke="rgb(0, 0, 0)" stroke-width="1" fill="none"/></g><text x="105" y="305" fill="rgb(0, 0, 0)" text-anchor="begin" font-family="Consolas, Courier" font-size="20px">p</text><text x="232" y="305" fill="rgb(150, 100, 28)" text-anchor="middle" font-family="Consolas, Courier" font-size="20px">id99</text><g><path d="M201.0258473007674 350.71426844739204 C213.67017450306332 351.71725839094495, 227.90281170638457 349.1294020829392, 259.0376704779746 348.8248744132829 M202.85440979049727 349.67142180741433 C223.78134848345127 351.32250506310373, 243.3742583878213 350.20104805443503, 261.55945323761784 349.2569331490413 M261.0457224217834 350.1022603271601 C259.1840636565123 360.760047813828, 259.2052952556493 375.2039451114745, 260.3534378798585 399.5992468308107 M260.59719689573666 349.7953511511464 C260.66646476688175 363.2518627861356, 260.5477171335352 376.896540137299, 260.67701574438905 400.4199276571748 M259.3803405369774 399.1478918162018 C245.15127645568398 398.43189718561, 226.94310347502568 401.900949312855, 202.11417819723238 401.19202442783944 M260.4284908862936 400.86534593322466 C239.34231814787725 399.62655990928414, 217.52438925521122 400.1607634955747, 203.36055700952915 399.50867490252 M204.36377189482488 401.07974843387325 C202.02969792217385 380.7810384114124, 203.88424031876332 364.9300974091272, 202.91899158420853 351.65746027511693 M203.91939488348171 400.4392750739559 C202.58582362997183 389.93569651354676, 202.34863805461222 378.47518680483313, 202.20425453978137 349.6056639991237" stroke="rgb(0, 0, 0)" stroke-width="1" fill="none"/></g><text x="105" y="380" fill="rgb(0, 0, 0)" text-anchor="begin" font-family="Consolas, Courier" font-size="20px">d</text><text x="232" y="380" fill="rgb(150, 100, 28)" text-anchor="middle" font-family="Consolas, Courier" font-size="20px">id10</text><g><path d="M202.58387687618546 424.92968876542733 C216.80350648228097 424.05054217155794, 226.88904989995947 423.130298870666, 259.751746014156 425.33053385512886 M203.556127107867 424.23139251627947 C218.16092502375056 424.99300025328444, 235.3224582300044 425.20695537450075, 261.1921148127215 424.89714990106614 M260.93546687673347 424.4353884541662 C262.119547919135 443.2247272067958, 261.06396937370994 465.79113685745733, 259.59154254961044 474.54643789223945 M261.212117812954 425.06683410057474 C261.5181200536112 438.19252412027066, 260.48790491494844 450.32267237377874, 261.5388309083879 474.2978593625768 M259.39386967422075 476.7371971886958 C238.799645036934 476.3681196895537, 216.09539022545772 474.37567722550176, 202.77992345958066 473.5472488568998 M261.5664107502393 474.8895792443904 C248.6952440466692 475.6232312180586, 234.74929028064696 475.0790173559947, 203.1453662603384 475.88289402535344 M201.38744891718284 473.94198757784164 C203.85731014450673 456.9096223660086, 203.9510496337536 441.4716778094322, 201.65860769785414 423.4481386469712 M203.0680300024751 474.3604699974403 C203.79886985776335 458.7226048731568, 204.0609132397644 442.81874139131776, 202.27593678874567 424.9153559934724" stroke="rgb(0, 0, 0)" stroke-width="1" fill="none"/></g><text x="105" y="455" fill="rgb(0, 0, 0)" text-anchor="begin" font-family="Consolas, Courier" font-size="20px">t</text><text x="232" y="455" fill="rgb(150, 100, 28)" text-anchor="middle" font-family="Consolas, Courier" font-size="20px">id11</text><g><path d="M78.45459235868637 50.514974211125505 C115.76976201600553 48.198579226487524, 154.1211522479646 49.25982176118185, 186.69460720504006 48.741319589126014 M80.3502082560543 50.127648478584945 C115.82854737916902 49.267944549109615, 148.94024041041075 48.825521280892985, 185.56640923019162 50.99034752110309 M184.1643613497957 48.09133608688546 C185.04383641111679 66.92679079726136, 187.1708317958969 85.98711319105857, 185.5226293067034 98.22716758276843 M185.52521964317214 50.61715135095457 C186.62242667882023 66.5658630256215, 185.65267989560496 84.37524278685756, 185.01522671058598 100.18668383043753 M185.46476030817732 98.76769092115393 C148.8613902389426 101.79853072925768, 113.60883071946803 102.7776467816233, 81.85031849322368 101.12496891473516 M185.9228560902582 100.51571625841625 C157.62446927363342 99.04671340876814, 128.22177617322703 100.7424079044169, 79.17843445086183 100.55627398780324 M81.26426362585475 101.16828376887744 C81.8256359758083 87.72117866405922, 81.20489860264499 74.32951938311396, 79.53602049444189 51.48641228195312 M79.15703084871508 99.56898625278976 C79.81344027064212 85.6885594053972, 79.54155853549832 69.12689317535433, 80.94827311146445 50.70036063133533" stroke="rgb(0, 0, 0)" stroke-width="1" fill="none"/></g><text x="133" y="80" fill="rgb(0, 0, 0)" text-anchor="middle" font-family="Consolas, Courier" font-size="20px">__main__</text><g><path d="M318.83922527904235 50.34443879351127 C374.2837445945699 50.333837001586396, 431.346924152711 50.87984680848831, 515.3128518639363 49.69274563124643 M317.18097917406556 50.38029135165698 C366.01234813638155 50.641601987982234, 415.9999617845653 52.126996446585366, 516.2243482504122 50.33110543420897 M514.4924147361671 49.45812508426042 C516.2171243666845 129.71342972243693, 516.5471677928398 211.26990815026386, 514.2975956365335 275.128660378233 M515.2511375321992 49.594467435132266 C515.0494748635583 110.13319576100588, 513.6210700182869 169.37983927565273, 516.0537132588531 275.3810106039496 M514.3624608549479 275.10826198218206 C448.58236253773873 273.5061390638263, 378.16973893155716 276.04089026535684, 318.35887582918133 275.690362251768 M516.2158676000431 275.39729058627256 C472.89650062342116 274.9408219642125, 427.74109662574585 274.67066337144814, 317.7329740013203 274.3007504625281 M316.70827706587846 276.507116106366 C316.3832593053788 198.0293426024958, 315.4344178962128 122.02677775709486, 318.1021323003141 51.22484418795626 M317.7515482134381 275.550815937421 C317.6041736789855 195.85241975620136, 317.07033956173717 117.89060971317002, 317.42665245178677 49.964359742972796" stroke="rgb(0, 0, 0)" stroke-width="1" fill="none"/></g><g><path d="M440.7776281228818 123.92350799037273 C462.759824733562 123.94509216909178, 485.55419017619175 124.57793299171135, 497.72107699129054 126.66246044636107 M440.26753962656426 124.85207264544783 C455.0679331823935 124.1530329987932, 467.7880095420864 123.69546379276994, 498.3478329828291 124.44643621647317 M498.0093275985942 123.59121848451032 C497.40038507183544 135.58531348982297, 500.12615510279227 143.69274081759048, 498.99501396395607 175.2093939045843 M498.0080650109018 124.82721390995692 C498.9327417114606 139.70271319096287, 498.6517968309491 154.77587693125366, 498.6838475174841 174.4772966561204 M498.1143373414169 175.27872587029648 C485.3674511378942 175.54215343118852, 473.0486513347529 175.85168202798442, 440.35572771279243 174.98733516471083 M499.5256218197361 175.9768360012552 C487.2241692223759 173.788086864932, 473.58731118658926 175.13788629661857, 441.77902787301156 174.3209574232439 M440.5733851639419 175.96909299075574 C439.97965189236396 161.76183371552753, 441.56172980657135 146.97298209618637, 442.6250688551544 123.98552743667659 M441.2453282976932 174.05383937320383 C441.5424972379615 157.50692427313194, 440.3281539830203 142.43760152023614, 440.0843950846083 124.6971272750144" stroke="rgb(0, 0, 0)" stroke-width="1" fill="none"/></g><text x="343" y="155" fill="rgb(0, 0, 0)" text-anchor="begin" font-family="Consolas, Courier" font-size="20px">age</text><text x="470" y="155" fill="rgb(150, 100, 28)" text-anchor="middle" font-family="Consolas, Courier" font-size="20px">id12</text><g><path d="M440.5948087114833 201.30903526560235 C459.92832950646954 200.58447630384345, 475.1723364271096 199.1615457184015, 500.5951311819828 200.82476207201134 M441.57444700249783 199.86379613574186 C462.73866039095986 199.56962506538144, 483.53948066640675 200.1795184352144, 499.1569884634174 200.6605198772402 M499.8805876590989 198.6493670343761 C500.31671440304 212.00798980360406, 499.515309404688 227.82881230076003, 498.77329120020636 248.32326105761877 M498.1544494423621 200.83270510046484 C498.9208366343101 219.85214235575572, 498.9622939204565 238.30978962724, 498.67369733974573 249.65992443843552 M500.78528900949215 251.48354625864096 C484.5195233481412 249.77566913211015, 467.1485681297113 249.9135623659911, 441.18641648565716 249.666697241299 M499.58642285141445 249.78029343633168 C486.7531917355547 248.80811647246915, 473.3547613157173 249.31119779593055, 440.99210426800124 249.2443464675875 M440.0966935134334 250.63379922301323 C441.1063129225628 233.99823345271164, 441.6450445483929 216.61722561950103, 442.32892011591366 198.5204638627486 M440.7183741103771 249.73771925363644 C440.8657955806321 237.0154688006453, 440.8403148569815 223.27668785781458, 440.6698213402377 199.14453646639353" stroke="rgb(0, 0, 0)" stroke-width="1" fill="none"/></g><text x="343" y="230" fill="rgb(0, 0, 0)" text-anchor="begin" font-family="Consolas, Courier" font-size="20px">name</text><text x="470" y="230" fill="rgb(150, 100, 28)" text-anchor="middle" font-family="Consolas, Courier" font-size="20px">id17</text><text x="348" y="80" fill="rgb(150, 100, 28)" text-anchor="middle" font-family="Consolas, Courier" font-size="20px">id99</text><text x="475" y="80" fill="rgb(27, 14, 139)" text-anchor="middle" font-family="Consolas, Courier" font-size="20px">Person</text><g><path d="M316.1060061496024 50.281101495826526 C331.81886204264043 50.0836844678508, 344.5758784277249 49.908691269484414, 377.39613059776747 51.298616825977646 M318.09671432919174 50.77476016368637 C341.0933957526365 48.93333490956401, 362.2760984844172 48.780219212783955, 377.62394817494635 49.98132210727077 M379.110665528388 50.599759948907106 C376.1821764891302 64.37043195029419, 379.23211340864515 80.24156983276718, 376.5695220691314 100.89819957907662 M377.5620112008304 49.96834546839658 C378.6475586715792 68.47729084370347, 378.3780036177011 85.88666938885407, 377.36798767756454 99.77470068131565 M376.77131265275534 98.83022746417564 C357.20037942560083 100.89527072843357, 335.2967598246038 101.0345919296137, 317.86257904126325 98.72636437937877 M378.3021585631682 100.56300890571579 C365.340707538349 100.85547850338222, 352.4929484023459 100.96418636034315, 317.09348979912534 99.68125126186261 M316.04110998277616 99.58043042785903 C318.1821067882258 89.15950357286464, 319.27629264827016 76.7569339933292, 317.33465959722844 51.82536946574894 M317.2702905856336 100.75929363393115 C317.6998140339505 82.04614187389836, 318.2490455164641 63.33797145126192, 317.10936682723576 50.13127152596593" stroke="rgb(0, 0, 0)" stroke-width="1" fill="none"/></g><g><path d="M434.91762114339156 48.84756673811053 C464.9163211398728 50.52640728692616, 494.3854602614994 48.66767566186149, 515.7832550285485 50.22246251548284 M434.288060837552 49.47217641313373 C455.6260715986859 49.34946962659262, 476.22916609746716 48.767763719190235, 516.3036467572887 49.67095010177242 M514.8031644624041 51.98228723037187 C515.6112248745355 64.98002913946422, 517.6271806428798 78.3689955938638, 515.4426393864607 98.81285761784623 M516.9184193834011 50.86962804640584 C515.290815002854 62.58896064216144, 516.6739102218195 77.83982850807213, 516.0535866230051 99.54275491377001 M515.2987729019833 100.13613452099831 C493.1331375380786 98.08806492630976, 469.6187590973383 98.26323288673343, 432.8861917692646 100.50261099203867 M515.2763763617229 100.72743892478611 C488.526933881696 99.20076319892267, 461.7231090088998 99.8880756056403, 434.7208280530301 100.71467204442037 M432.6218305480771 99.41460162706747 C434.572012892015 88.38810121275066, 432.07681191917254 75.77715676693737, 434.03000603965603 50.83138923038043 M433.7673861037249 99.18946500677829 C434.7625614590364 79.21176547098547, 433.9182271056056 60.34614469216189, 434.804390423134 49.80613636270876" stroke="rgb(0, 0, 0)" stroke-width="1" fill="none"/></g><g><path d="M577.0966286153612 50.36171119729787 C680.9346212778503 50.25365788811685, 788.455700754756 51.109751133551015, 857.8050376305022 49.18764748050966 M575.9919408390376 50.35427068804654 C673.6001148862388 50.68408739969721, 772.515498479925 51.058138913236334, 858.7221751191677 50.31914997135782 M857.3477018580693 51.66406547322623 C857.766111378181 80.52377052553663, 857.3675200874876 115.27232659258854, 857.3390068028367 180.58776053993475 M858.157672033417 50.23315065633172 C858.1282512908596 82.2817465306654, 857.1188284042228 112.93374994396648, 858.6018159140909 180.48379924515407 M857.618096518923 179.17506631366535 C781.4741691578735 181.64862776412676, 708.4073888361944 179.12985264749383, 575.8294571871227 181.01084990908086 M858.1171592775178 179.47658295983834 C783.4635238263332 181.66732776825359, 709.1640602819608 181.08009971568072, 576.4043919317156 180.6259642583014 M575.2627518232155 180.64065690610673 C575.884101042566 126.66356264067619, 573.4998815411305 77.38937761402617, 577.5335375276272 49.59464271039132 M575.2012289112229 179.26433428740924 C577.2495364534227 130.61133734742165, 577.0132434753959 81.80708278775694, 575.0326041996999 49.93070559709399" stroke="rgb(0, 0, 0)" stroke-width="1" fill="none"/></g><g><path d="M600.3476999034199 116.31413978327015 C616.7928295245811 114.37298005653925, 635.7201115238018 113.30102479334941, 658.390492746698 115.072415271895 M601.2202657658263 115.12129116873163 C618.6405945305659 116.1197220310624, 635.047665954524 116.17353791355958, 658.6761773409874 114.58479876065692 M657.2689844754245 113.77488538010552 C657.9313184106832 128.197200928499, 658.0178451774597 142.5613611180516, 659.7431586501448 163.10302746667787 M659.8908321503013 114.46313211380138 C658.3929850606368 127.40314085358827, 657.5558177859414 138.48544853894134, 658.6873492886017 164.4527022551846 M660.842292376133 165.93392772248038 C645.756387372708 163.17631103508145, 635.6788918282668 163.61568513558782, 601.7580840188601 166.1510563965957 M658.6475615407154 165.585900658537 C639.3386354406605 164.95747568110426, 619.900199949084 165.8882960687904, 600.1894068172971 164.9475850700647 M601.1264166236763 164.87057942467132 C598.7531576483368 155.36775193580533, 600.3253268716048 141.9925707237684, 599.6746341506124 113.59239485120781 M601.6697639859289 164.0505689986615 C601.8177584248839 152.54593389028864, 600.6507127151611 140.50606728124637, 600.9216793471713 114.44205437800923" stroke="rgb(0, 0, 0)" stroke-width="1" fill="none"/></g><text x="630" y="145" fill="rgb(150, 100, 28)" text-anchor="middle" font-family="Consolas, Courier" font-size="20px">id19</text><g><path d="M659.4432613682512 115.81954455698168 C673.6058331799699 115.92890457005481, 685.6843481822704 112.93171811634835, 717.0897573737502 115.78365621000606 M659.9922764576363 115.33260112416573 C674.7923514262219 115.34282136525103, 689.9693265660397 115.19641184051363, 716.5421622599044 115.44500194508372 M717.4291816640039 116.01393887974196 C717.8526588327304 131.54569424597588, 717.9236792403303 148.3792295509943, 718.7478395646623 163.76719659558498 M716.8305701130688 115.58603845500724 C716.2263835377945 134.42767734047356, 715.8640944016646 154.7261367780187, 717.1016529263537 165.9265646136739 M717.5249467021729 164.0691413241881 C697.7176550628641 164.32754190708408, 674.9112552225298 163.0336594722306, 658.4651366499584 164.59337672363654 M716.2171384705617 164.32995526307363 C700.1475053755214 165.25005083308164, 682.6337130107706 164.84302672264843, 658.250059203096 164.60252218366955 M659.0801118279633 166.504045201573 C659.949904430282 150.9923054389216, 659.2703508149139 139.3357006852352, 659.3977167966636 115.88269487126989 M658.6712740361759 164.82837919407484 C660.2225277141227 151.10209552493885, 658.9360681478611 134.86528955649564, 659.7984144505374 115.02311114098467" stroke="rgb(0, 0, 0)" stroke-width="1" fill="none"/></g><text x="688" y="145" fill="rgb(150, 100, 28)" text-anchor="middle" font-family="Consolas, Courier" font-size="20px">id43</text><g><path d="M716.0179286115978 116.46602195735584 C731.761056661091 114.76363004833271, 750.6669241952843 114.14510844336843, 775.9954090310873 114.7323959357233 M717.7331619380108 114.03375830014538 C734.177156152997 115.46679660196142, 752.7599210409519 115.96769903870454, 774.7611003425502 114.67992446863451 M773.1882437893295 113.39988658028874 C774.6979724976471 127.63807686166871, 776.0697229456396 144.2965940031702, 775.5079334309924 165.96062229162126 M774.5852429587537 115.00466604474865 C774.9690343669661 124.45454392789183, 774.2117946927248 136.08016347361772, 775.9850938531122 165.38898626290626 M774.3918883514552 165.13848988093088 C755.8191251922443 164.60834994315172, 741.2789438578151 164.70214473321886, 717.6216464256992 164.6181267409851 M775.8164605451178 164.35392889427342 C764.0910471734938 165.7667745927211, 751.956873967538 165.56412876801775, 717.4682957269773 165.77827356288745 M715.9891058863468 165.23513863659196 C715.2630881158368 146.9335313574655, 718.7232319514605 128.15019920602884, 718.0764745677606 113.45603424882977 M716.0349294525488 164.3967791128022 C717.7620576786165 146.56501990873147, 716.7792548917344 127.04974046062738, 716.8662264721241 114.37290393707104" stroke="rgb(0, 0, 0)" stroke-width="1" fill="none"/></g><text x="746" y="145" fill="rgb(150, 100, 28)" text-anchor="middle" font-family="Consolas, Courier" font-size="20px">id28</text><g><path d="M775.7765046611298 116.28360427428412 C793.8010261636683 113.79874790047167, 813.1439313714426 117.2487470921718, 832.1347938862399 114.95118034323282 M774.4113613493736 114.0297196438799 C798.2572444843447 115.39973333452993, 820.7600723508791 115.8595060579753, 833.42433840632 115.4480930901077 M834.9518006729893 113.51991783276698 C832.0979298348285 127.56779150275187, 833.9456804640511 139.48990405599105, 833.8959465924271 165.92430075945992 M833.3307487380243 115.82463989744717 C832.9285962323456 134.83451387614582, 833.1535022013276 151.91290548048138, 832.2523671481532 165.1932303017701 M832.7160751376815 163.40386351380636 C821.6682547577024 165.76557304889008, 809.4735139965026 163.61898194832548, 774.9643349610319 165.09821166297257 M833.7931950558557 165.84617071426405 C811.0754483494842 165.02695147513197, 789.5786865045525 164.63279604211613, 774.5198213078467 164.88000685351264 M774.6639744693455 166.6641413429486 C775.8617936418552 150.53294099321047, 773.4801770447434 136.3751224867071, 775.7441598930924 114.00687175017485 M774.1589926483533 164.5977323909331 C775.0755949219559 148.37394172487015, 775.705228662662 131.53423331412844, 774.6071800999481 115.13894309849366" stroke="rgb(0, 0, 0)" stroke-width="1" fill="none"/></g><text x="804" y="145" fill="rgb(150, 100, 28)" text-anchor="middle" font-family="Consolas, Courier" font-size="20px">id49</text><text x="606" y="80" fill="rgb(150, 100, 28)" text-anchor="middle" font-family="Consolas, Courier" font-size="20px">id82</text><text x="828" y="80" fill="rgb(27, 14, 139)" text-anchor="middle" font-family="Consolas, Courier" font-size="20px">list</text><g><path d="M576.4693084079098 49.68680141091234 C591.9479651484685 50.51828792331428, 603.9043170211479 48.68448979662955, 635.2884790650866 48.563491555218896 M576.0661416730898 50.396312457625264 C590.9078390663911 50.472984439659776, 604.8126852887649 49.785300386522124, 636.109348007465 49.46517877212112 M634.9526246489299 50.053153181825934 C634.4900230620773 64.5506251670577, 635.5284212006295 83.80963257081488, 637.6361644165789 101.49729527359466 M635.8241700907307 50.02687675522576 C635.5583337422725 63.97255525667153, 635.4858452096677 77.77877337998417, 636.8396919658156 100.51076625645689 M635.6688116628333 98.50864775097526 C610.9732436945682 98.97717104330943, 591.7475758846042 99.97397312364645, 574.2887881819659 101.19507098725786 M635.8981549587207 100.75408387337126 C621.849333166251 100.3231109887007, 607.2414318110568 99.52334705109294, 575.8800827288811 99.22360523437739 M574.9495571102547 99.05516356597771 C574.931785165874 82.23426834851107, 576.4707946582192 60.87855676986596, 576.7390949495783 51.745115383544565 M575.123458088555 100.37329603899776 C576.168717734495 80.08508033385236, 575.9451384682555 61.152062046593684, 575.6365898632225 50.21879495351172" stroke="rgb(0, 0, 0)" stroke-width="1" fill="none"/></g><g><path d="M796.5926803408973 51.22743666083193 C817.502201476725 49.984475072037924, 838.6256430683025 49.01339329461632, 857.7997560032799 49.7851416380393 M797.8559152018526 49.206530283771876 C815.1939409429622 48.794632162567936, 833.4863479308589 48.92637039914334, 858.6341034566149 50.295282228140515 M856.9895418808044 48.70878965955082 C857.6380576471003 62.44895878733196, 859.6725804124685 74.25101506188031, 858.7780777644532 98.73193431789512 M858.2601159686502 49.31160819482232 C856.7827434909583 62.99875451337234, 857.2180702042849 74.03773739833778, 857.5425303112523 100.75138513287912 M859.3992675878309 98.04421799775132 C841.0577166691282 99.42772267726755, 824.4430821325831 98.45075310914586, 797.7932264635539 99.48902579675337 M858.6319798107154 99.42347583386027 C840.8764984817892 100.58794994493942, 823.3703105234891 100.95352119424199, 797.9587792859487 100.11181378712101 M799.479334415309 99.64797262786942 C796.3326980207789 86.76032014946682, 798.7188830734742 69.77296150321294, 796.0412176193573 50.52243880944155 M797.2484126840932 100.45774581491385 C798.0564760275579 82.73192429868865, 798.1071774942442 68.24274758794807, 797.9971025633357 49.598779630360454" stroke="rgb(0, 0, 0)" stroke-width="1" fill="none"/></g><g><path d="M917.8326070150456 50.0821063312622 C1021.6584550530483 50.23014801254515, 1126.351027513364 48.93145254579249, 1201.2186251077728 51.281802801633546 M918.442685445742 49.57099088112482 C1025.4822146750994 48.78059470505741, 1131.6131726487283 48.85478306239227, 1199.558431428689 49.290977803306326 M1199.8085667284815 51.92212762996944 C1199.096911864471 100.88418282492269, 1200.31146641047 152.42620254462463, 1200.7570414241718 199.31748631918944 M1199.707507508434 49.53235770453834 C1201.4102524376462 108.69555636739899, 1200.1800618027096 168.03968958538985, 1200.8583829621589 200.3887354519732 M1198.5402067144219 201.3113396175733 C1121.8088961377825 200.17261030105294, 1044.410572441461 199.3399318249821, 918.1612746816721 201.48227836878735 M1200.479863907742 199.60400892248305 C1131.892717867358 202.7029486060313, 1063.3266598603122 202.50031243174317, 918.2902444377661 200.45521739242434 M917.9975162445985 201.29095181274909 C917.9347018019488 155.35058233745474, 918.6768078941783 114.3725736604519, 919.7703673341658 49.59545035055531 M917.4686597592458 199.1079025256149 C917.801706075867 159.88952997187053, 917.20068493367 118.89131447070653, 917.7318185135498 50.36494384662938" stroke="rgb(0, 0, 0)" stroke-width="1" fill="none"/></g><g><path d="M942.5537256031932 133.0420213959646 C958.3943390708771 134.6151663388727, 973.3864898583906 135.09041508667013, 999.7059738048804 134.10508585280152 M943.951886651063 134.76457815308447 C965.6074095770514 133.95376193047645, 987.3914191710476 134.3668486036684, 1001.0292637685436 134.30408333013324 M1002.0342075376914 136.23690151024428 C1001.7454849125037 151.94831298339787, 1002.6985074920983 168.84176353727736, 1002.3521993173097 183.52854512830788 M1000.2822954960932 135.88203020209616 C999.6379811334589 152.88303796361078, 1001.3001659684014 170.27405464995132, 1001.0882292049683 184.58829248637946 M1002.1877016357085 185.6868200935567 C987.8284324275855 186.47310138350278, 977.6594325887535 184.83484457683284, 942.6344876486269 185.1946560790304 M1000.4178306653241 184.60211504743737 C979.796873368296 185.13456651670236, 957.5579563248734 185.91667823154316, 943.1829009108872 185.7482802810089 M944.7113188978606 185.44359140276552 C941.3845111284679 164.84358617000936, 941.3835350145308 148.48701165229056, 944.898911508264 135.91780739190597 M943.7523972334046 185.78149347563578 C943.6453940987207 167.1545208610246, 943.4504436098434 150.58205472113843, 942.9898975904356 134.0945901400883" stroke="rgb(0, 0, 0)" stroke-width="1" fill="none"/></g><text x="972" y="165" fill="rgb(150, 100, 28)" text-anchor="middle" font-family="Consolas, Courier" font-size="20px">id32</text><text x="972" y="122.5" fill="rgb(0, 0, 0)" text-anchor="middle" font-family="Consolas, Courier" font-size="20px">0</text><g><path d="M999.834574998696 136.4392823134072 C1022.7780023555866 133.5551901349296, 1043.60208025093 137.16729258143283, 1057.274421382699 134.37627584995198 M1001.5306421341918 135.76925713182106 C1023.5637112731797 135.4536379822654, 1044.18835860154 135.75711045178082, 1059.0341142286275 134.96572451332452 M1057.8943568575557 133.80142244475974 C1060.3871697861032 153.76525323182406, 1057.609051991664 170.945128809525, 1060.1342895843848 184.58279739277603 M1059.462397929857 135.09005222948008 C1058.5978481907182 144.39907774744802, 1059.6749028830964 154.34909690277382, 1059.0366442950544 185.58941920288422 M1058.249081784851 186.89766313349512 C1038.4005864457229 184.73095494918826, 1017.0992485947368 186.35527742194114, 1000.4318738851626 183.01044589152454 M1058.0967716047714 184.87357202400065 C1035.4429878824012 185.29944506457664, 1011.9635427594254 185.40899733393343, 1000.4926802157064 185.96608574182022 M1000.1453802463942 183.78328512839775 C1001.7156555069188 167.90974952499343, 1002.2079054935497 149.30271472707182, 999.081628148725 136.08509528309293 M1001.6852972814032 184.5113539713156 C1002.0593699289079 174.04392446947992, 1001.4462977204171 162.82306319291007, 1000.8116744843908 135.4065445848558" stroke="rgb(0, 0, 0)" stroke-width="1" fill="none"/></g><text x="1030" y="165" fill="rgb(150, 100, 28)" text-anchor="middle" font-family="Consolas, Courier" font-size="20px">id10</text><text x="1030" y="122.5" fill="rgb(0, 0, 0)" text-anchor="middle" font-family="Consolas, Courier" font-size="20px">1</text><g><path d="M1057.156773928601 133.69831022349032 C1074.3376271787413 135.34262304224538, 1092.8307478189638 136.83049798364044, 1118.5210226337722 134.89741632284367 M1059.832825625716 134.91144157033608 C1073.2425689555826 134.26800445177747, 1086.0920597292727 134.83368192069292, 1116.9443356289823 135.07170308504237 M1115.3338572026285 134.46073696309412 C1115.5562899419176 148.86970141212586, 1118.112887678713 160.078237874628, 1116.9324625551706 185.60380452854682 M1116.4615550729482 134.02953844255464 C1116.4672449645811 146.14646853979832, 1116.4943692764282 156.13660374188575, 1116.968567243633 185.97697894686354 M1115.9842995278966 184.34785434144243 C1099.8938559082162 184.98912977960887, 1081.1338787999425 183.82167089798634, 1059.4527581454972 185.32806602158868 M1117.852738718147 184.89153560965593 C1100.3822913590318 185.55359642044144, 1082.527191955476 184.91494076996975, 1059.3047397801167 185.4904156535713 M1060.1357595910101 183.9290373754525 C1060.3315975667927 175.0861099613178, 1059.0238438413196 166.5122601586609, 1058.7324996104337 134.7367987568271 M1059.0173158460423 185.14065059770985 C1059.6985641241724 169.04484833543995, 1059.8896729389107 153.4482236627986, 1059.676127781082 135.55971728339202" stroke="rgb(0, 0, 0)" stroke-width="1" fill="none"/></g><text x="1088" y="165" fill="rgb(150, 100, 28)" text-anchor="middle" font-family="Consolas, Courier" font-size="20px">id90</text><text x="1088" y="122.5" fill="rgb(0, 0, 0)" text-anchor="middle" font-family="Consolas, Courier" font-size="20px">2</text><g><path d="M1116.3849039967265 133.43481642549213 C1133.6000983331871 133.82518084315424, 1153.378308025189 137.06869755032773, 1176.5903236371453 134.47035038523666 M1117.6262887005612 135.33619589709033 C1130.8770488539321 134.13232238000148, 1145.7340182040837 135.48601831008696, 1174.985129945216 134.37443269368302 M1175.4481311603986 136.88478187692164 C1176.5485727585199 147.03210095060922, 1175.854885809335 158.47626586679885, 1176.901523452894 185.48567702651164 M1175.7122064594469 134.48838203818255 C1175.9890619682271 151.29755154621353, 1175.480749486748 168.92433669390078, 1174.643570442549 184.83081864374034 M1175.9736237150187 183.23636558710675 C1153.6617826774934 183.4554074770855, 1132.6978400785583 186.1142754075154, 1117.2807360285803 184.8347551200515 M1174.6978193477953 185.05301579358763 C1157.6046890191126 185.16358747218834, 1138.7564367269345 185.72939455425242, 1116.845596585838 184.3364244969587 M1118.3185581221667 185.8928414874205 C1117.7746240461918 167.75070092925404, 1115.617673629867 153.24449396175146, 1115.5245785047798 134.63345319520764 M1116.3353849981056 184.28381680897576 C1117.8922037770644 171.90904086542562, 1116.4531238556256 158.9583058952245, 1116.3692676590106 135.73866968579702" stroke="rgb(0, 0, 0)" stroke-width="1" fill="none"/></g><text x="1146" y="165" fill="rgb(150, 100, 28)" text-anchor="middle" font-family="Consolas, Courier" font-size="20px">id57</text><text x="1146" y="122.5" fill="rgb(0, 0, 0)" text-anchor="middle" font-family="Consolas, Courier" font-size="20px">3</text><text x="948" y="80" fill="rgb(150, 100, 28)" text-anchor="middle" font-family="Consolas, Courier" font-size="20px">id84</text><text x="1170" y="80" fill="rgb(27, 14, 139)" text-anchor="middle" font-family="Consolas, Courier" font-size="20px">list</text><g><path d="M919.430170225412 51.25160818512859 C939.6317748757134 49.31983649475405, 956.5690139283147 49.00686100312893, 976.8631855727058 51.48296292966281 M917.5077808374681 50.37455117815483 C935.1058862957208 49.70634752400198, 953.4089395981961 50.14115547674133, 978.0121390035349 49.40761880835618 M976.3160867795608 50.7106276331532 C979.1127706188148 65.01311248198219, 978.3757887332893 81.4379343858469, 977.9585765607928 99.18045189563894 M977.4175724767011 50.24211995321374 C978.8185781189865 65.29764523620351, 977.6081726254779 81.23255437964129, 977.1856490286161 100.97833648458051 M979.9181303598182 100.03541487505488 C965.0877866677914 100.87615932517315, 948.1877576155672 97.60696127539732, 917.2161026510307 99.06984569968833 M978.1642423097787 100.69354900621063 C962.8640432455762 99.49072208852189, 949.1623776927313 99.90609880273657, 917.9408629655977 99.12586471177617 M919.2954308846007 98.77204193302128 C919.8207285300819 80.31852761906514, 918.1026154225492 63.779938260982, 918.1067152288376 50.79342548924178 M918.0874419027128 100.482380776717 C916.7611096928533 81.67268670142323, 918.3507460737367 63.66339431334537, 917.7714300802178 50.98285923581321" stroke="rgb(0, 0, 0)" stroke-width="1" fill="none"/></g><g><path d="M1139.1580122760256 49.58705487880405 C1160.1667301380762 50.040095559416486, 1178.5220926404443 51.40712376666585, 1199.9020426786824 51.541170244887304 M1139.5375609759624 50.41160344961622 C1153.6072378236843 50.454238910647724, 1167.3723800967966 49.91350807981638, 1199.8133819637933 50.43616293289559 M1198.4929797857544 48.19875979096767 C1198.8569109712741 63.76209659058093, 1201.0216507713653 75.24024302373469, 1201.1330314066738 101.38800355522233 M1200.7225700629906 49.40725130166566 C1199.5146224595512 60.056738295361704, 1199.2444087923632 71.82587877264332, 1199.5850372361729 100.75571626565204 M1201.1084445606502 99.92097365231076 C1178.5300768451427 99.70138487084382, 1158.3731828746531 99.0465057259021, 1138.4203882264192 99.4102035342507 M1200.371319107929 99.51997889036548 C1186.0210814804916 98.90227352827017, 1171.4561055828049 99.89449379276026, 1140.2780700745952 100.38297404577466 M1140.6020859652356 101.45865217020813 C1140.5398743855226 81.18356977255468, 1140.7462023188652 58.39108597280434, 1140.5195579656443 48.08627349814591 M1140.4611233209334 100.02345313069307 C1139.5982591702348 89.19934452687689, 1139.1601383598224 77.25090246505339, 1140.310138987372 50.24868670324974" stroke="rgb(0, 0, 0)" stroke-width="1" fill="none"/></g><g><path d="M319.5727627627164 333.70940569858976 C373.7168743430971 336.2169386548821, 431.9107443084743 334.66831766993374, 517.615850762245 335.9707548876364 M318.15126836958956 334.83297546627324 C393.8493858041953 336.7534577212296, 469.4965350736623 336.5054964611277, 517.5400391881659 334.295825877173 M516.0225040449133 333.57921734136136 C519.4313705768626 372.5794566594029, 520.1027492382595 412.85271131017953, 518.0248765160502 465.5903599532938 M518.1344094526087 334.2289361412694 C518.8360611687325 371.7525901640938, 517.9916274279111 410.30837171237744, 518.3771646295472 465.28820361311506 M517.5123611422754 463.9937681157319 C455.04201738799816 465.36492946710007, 390.33634861104963 463.2703387507771, 318.3672186057161 464.77682553503064 M517.8401679392758 465.1490242121917 C449.05592370684303 466.8707414639183, 381.98757431087915 465.6562636615408, 318.26161924184623 465.1486221649261 M318.2014227607141 465.22285583237283 C317.3808410602195 419.30610319203385, 317.78995819519355 373.24199541701495, 319.80474004926094 336.3390745408708 M318.5754308596159 464.0603718472091 C318.2522558587222 434.6100630056554, 318.1630323768972 404.74815377673326, 317.07468641960776 335.5717015893543" stroke="rgb(0, 0, 0)" stroke-width="1" fill="none"/></g><g><path d="M311.530320198537 329.6002340443873 C359.9448265305458 332.11596752383497, 405.26041197866573 330.78175843293894, 525.4589593763733 328.33434939267283 M311.6591030733418 329.00620299937 C378.1397642580672 328.57160803376183, 444.9680576879578 327.03350071428684, 524.334784844054 328.9483618592494 M524.898328290818 328.73764347111927 C526.2025323195802 358.25943498332146, 524.1799477722424 385.1965070011594, 525.88273170406 470.9410799984778 M523.3655300387957 329.9363711775564 C523.903779138279 382.6867576641938, 524.136576764552 435.06318597386496, 523.4372380589265 470.33472919681964 M524.0995502778538 472.1611541931746 C445.56476386519984 471.9226961335883, 368.9201771276494 470.6111376253747, 311.60954874221306 472.3936057508145 M523.6842704006749 471.67801913466286 C474.4149018134104 471.4786507557677, 424.79881819168287 471.09643403811435, 312.0172872280135 471.76238082834954 M310.1565656350158 470.0085803435616 C312.3212620835338 421.6847542004159, 309.09664711867975 375.3503425123446, 311.9375038952276 327.0491910712237 M311.0414364730483 471.43206811934454 C312.18086707080613 415.35884576738204, 313.76049226712246 360.62409739999055, 312.93465521308093 329.33066401783043" stroke="rgb(0, 0, 0)" stroke-width="1" fill="none"/></g><text x="418" y="425" fill="rgb(27, 14, 139)" text-anchor="middle" font-family="Consolas, Courier" font-size="20px">1969</text><text x="348" y="365" fill="rgb(150, 100, 28)" text-anchor="middle" font-family="Consolas, Courier" font-size="20px">id19</text><text x="488" y="365" fill="rgb(27, 14, 139)" text-anchor="middle" font-family="Consolas, Courier" font-size="20px">int</text><g><path d="M316.78342827777936 335.9063659659587 C340.9846059239159 334.23032115339697, 361.9344945313534 334.66269457388273, 378.0213046232083 336.9230642350254 M318.3172638391467 334.8678264175808 C340.70910271609523 334.7282457833659, 363.994457284908 335.8296096810461, 377.0955157468258 334.48638453451866 M376.39814298765083 334.2605747685655 C377.15081387376455 343.9775397699765, 379.58542832918397 356.24499535199396, 378.06113760761804 385.64478765533005 M377.72028376530835 334.48561763034917 C378.4080515635895 352.88551599450955, 377.8551236351995 369.47220941433505, 377.6446107790693 384.71843636801805 M376.95231652269933 385.7845957768901 C357.9133844915584 385.9463756258021, 337.3316265762247 384.1886989927422, 319.9439997546758 386.35351623319315 M378.00840569733424 384.0478278768965 C355.69885370212114 384.12453155021535, 334.51644058446266 383.9262857739542, 318.8236816805991 385.97845369194573 M316.81332762606917 386.1984560866132 C316.814923659612 368.94340918136794, 315.8315407128131 352.0639931493691, 317.134135860951 335.0712856648143 M318.70188819945906 385.22936490688716 C317.2247042137 372.8503110310326, 317.2930266042627 362.9809290115102, 317.5708937396733 335.15318612902394" stroke="rgb(0, 0, 0)" stroke-width="1" fill="none"/></g><g><path d="M456.91451962336464 336.2068120768267 C480.0058835439499 334.0709412556699, 500.8976265928752 336.2110402315544, 519.3134366217167 335.53003486863935 M458.05120522876894 335.3809319707561 C470.0018980556526 335.2867666867075, 483.9894178617401 335.8409626847424, 518.5650734467605 334.22404291569165 M519.6366784308751 336.3534886415554 C519.4622610426485 345.36635427044996, 519.6155925644897 356.61093018161705, 518.8836178715222 384.50949525937096 M517.0234804173982 335.19414349855225 C517.3074303023392 351.4171423530872, 517.6988750190922 368.35930799320914, 518.5373415916373 384.61414403767753 M519.1067217634004 385.19670180791735 C494.3638961206601 387.2532539355332, 472.09472176393064 384.6767880261613, 457.89046851112175 383.2252765777604 M517.6899810678929 385.7911845831277 C496.29890261830695 385.41887210389547, 473.65539469058837 384.0833805247044, 458.63889600226616 385.9555631584037 M456.02378450793077 384.6936937621109 C459.63135707877 369.5791482512798, 458.44152983503096 353.5613432647516, 456.42246347607664 333.2762373377844 M458.1257500053829 385.75606904166864 C457.6153794534199 366.72123526666667, 458.13691520553033 348.99572596850663, 458.39697934938744 334.92497064354455" stroke="rgb(0, 0, 0)" stroke-width="1" fill="none"/></g><g><path d="M591.0878850536116 333.3098243794652 C669.3923007140564 334.00859475486607, 745.7325438626484 336.96873842035774, 791.020930953134 334.1269998436939 M590.4931191114508 334.22277281334647 C634.582429171191 333.7265955798387, 680.5179409921117 333.9662003088735, 790.1761688230773 335.6862852932443 M791.7040016682403 333.81494705796973 C788.7973097069873 366.7064672956246, 789.1813627259603 401.18500454290233, 790.5254533680602 465.9306003922574 M789.9235794790341 335.6228863487759 C789.7657882293507 376.81602713364407, 789.3112223385682 418.7660748745039, 789.0116431958068 465.5563222338674 M790.6135884521896 464.41218799110277 C718.5669505585195 464.9914169803154, 646.7102685683794 465.0626294755005, 589.7999337224053 463.993671322809 M789.5321952744406 464.96599552912267 C745.0105072350218 463.7018152651978, 701.2944200069793 464.31486113645155, 589.6339434951135 465.3959078633532 M590.7668604233776 466.33949547714207 C590.6234400898522 418.2300937601837, 589.9741743052338 371.18311870339295, 588.7682084559555 336.4079941220656 M589.9106275665524 465.3792408783203 C589.6210098482475 430.61986602570835, 589.1328187608846 396.8946433667552, 590.3524899200443 335.9105910319489" stroke="rgb(0, 0, 0)" stroke-width="1" fill="none"/></g><g><path d="M582.6178486185377 330.7446047840501 C661.9483728422683 329.7274222667426, 738.1009669820968 328.84109812321714, 795.28806533716 329.8490458364584 M584.8609013416915 328.5253125613431 C655.2881369891351 330.0970021687084, 725.4380234801845 329.4293440563103, 796.6363148744678 328.4635937181279 M794.9158041202969 328.94794657445766 C796.2706922360438 383.6715623228622, 792.5895914857889 441.89562523159765, 797.6401086711644 469.9921908697143 M796.3176097086922 328.46732191213414 C795.6823591788802 365.2546376778479, 797.3039456793712 401.2238410410551, 796.1965940394633 470.3531071732488 M795.6870865734084 470.6770631305635 C720.1085079067016 471.2830471027729, 643.2545504638816 468.3664226606294, 584.756872179264 470.4231185629947 M796.3373843317406 471.16682866587365 C735.953495761964 473.16661943919985, 675.4932293769181 472.0321403448786, 584.1426225410868 471.6767582809364 M583.0082040466292 470.1139172344504 C581.5861152022518 436.21042495323525, 584.4244448652264 399.92783005125773, 584.748798888745 330.40995763883274 M584.8336210019837 470.8436015841727 C582.422261331316 425.3506783340729, 583.5974718451911 378.2444382143521, 584.9440377056379 328.7207481151617" stroke="rgb(0, 0, 0)" stroke-width="1" fill="none"/></g><text x="690" y="425" fill="rgb(27, 14, 139)" text-anchor="middle" font-family="Consolas, Courier" font-size="20px">True</text><text x="620" y="365" fill="rgb(150, 100, 28)" text-anchor="middle" font-family="Consolas, Courier" font-size="20px">id32</text><text x="760" y="365" fill="rgb(27, 14, 139)" text-anchor="middle" font-family="Consolas, Courier" font-size="20px">bool</text><g><path d="M588.6271178750582 333.52784736835844 C609.2737453136438 335.28627081106725, 630.4411305605589 337.18217303091615, 651.0986640824563 334.84808933746586 M590.2743568773416 334.98918295861154 C612.3988456639839 334.7112887255404, 635.7812652483855 335.389873367179, 649.6368982299936 334.0234140660071 M648.8652507296592 333.2385256872911 C649.0587485009275 349.07851858950227, 651.2106649469029 362.1111371209279, 649.4568740280844 383.0367968463532 M649.6068446286719 335.8789850116348 C649.1791426561572 346.6955120218178, 650.6060983447335 359.94655102156185, 650.3265060245901 384.8977809319141 M650.5753823304834 383.7052008275781 C630.3885907513248 385.99226839612066, 612.7150781743643 383.8600569224553, 590.4785003868365 383.7581723742109 M649.111124674344 384.9955155608508 C629.2687266314576 384.7873503124513, 611.1546092050978 384.6000562014216, 590.1449295253585 384.0016910247575 M590.0868192613151 386.8141520548408 C590.7701948021256 370.0837853909278, 588.2668253741155 360.46761495005404, 588.3222688657679 333.98132130885114 M590.6497301351031 385.22752923019567 C589.2141517847853 373.8507733911345, 590.0577178794537 364.4850813897158, 589.9159303884138 334.3658087089966" stroke="rgb(0, 0, 0)" stroke-width="1" fill="none"/></g><g><path d="M729.2405300481954 335.9812878952992 C749.9707718514626 337.28290163646693, 770.0842538462168 335.23573704655615, 789.4036814103528 336.18408865642886 M729.9679218748221 335.52509738499253 C743.5163580086103 334.784495884547, 755.4896455649408 334.64980845803734, 789.7352626988878 334.8839374440443 M788.0958096901152 333.77833963395256 C792.0338207010607 350.31045449579096, 790.9358084289958 366.3129923408587, 789.499376998378 385.212623292611 M790.0102784562671 334.04104848384327 C789.1498694145512 354.549620230269, 789.2523849384222 374.21470133523866, 790.0130532804385 385.15595262425893 M788.4895016951293 386.8080432556502 C769.429413231673 385.90837634980295, 748.6698321650674 382.94188411822176, 728.133123276306 384.83573841972503 M789.58546961915 384.6286939537568 C768.1350937709142 386.009205698015, 743.9028167848371 385.76907831986813, 729.8292889871527 384.262958670428 M728.7317501859561 385.20101811852754 C729.9367696560938 369.4963727044475, 729.5543658364967 350.38706934031876, 729.191055846758 336.1923054159339 M730.3247019473704 384.8067681489096 C729.8285206404576 367.14568478333024, 730.972128359077 348.73066524825833, 730.336085332002 334.52091873486324" stroke="rgb(0, 0, 0)" stroke-width="1" fill="none"/></g><g><path d="M860.5031703895357 333.4916829296097 C918.3541927011134 333.67434375187116, 974.5591263571613 334.8484202230877, 1061.2351108047599 333.86446640595324 M861.4276443007705 334.68648887822553 C920.3579204773629 335.4365078472429, 977.3964484128351 335.76628405660364, 1061.8681862466017 334.6337036320989 M1063.1549256576918 335.36639880156724 C1061.8222897310127 366.5816979670052, 1062.756774910712 395.57703119973974, 1062.7361211768612 465.7366805956881 M1061.3362274530407 335.46953660887436 C1063.1968152895975 383.9982912748038, 1063.2556027825183 432.90186500544974, 1062.6456089070773 465.8739805837485 M1063.6309866122313 463.54841947901275 C989.548586060581 463.7174813191295, 919.15028223319 463.5861820323884, 862.6410283269017 464.4386945749407 M1062.0321767222697 465.35942336577415 C991.0886598399695 464.8823518723969, 919.9778612012642 464.55543538167666, 862.004512051029 464.7838624531646 M863.1552248074006 465.31472214384775 C861.7938923881308 426.6205760359056, 859.5007546785494 383.77310766044985, 861.4910626950032 334.6152594040534 M862.1211184375517 464.3323993877535 C861.1114025701249 434.00789329118925, 862.1191259126157 402.7106330890535, 861.8139754727046 334.37069044583035" stroke="rgb(0, 0, 0)" stroke-width="1" fill="none"/></g><g><path d="M855.7642331785079 328.11849931526456 C939.9322744820159 327.0663780936795, 1021.3087237106863 327.4806731569108, 1067.781723540285 329.87901481904134 M856.2643836093426 329.56294999231136 C914.9857165259605 329.04087950799175, 973.5170475221012 328.86358127591114, 1067.2920614334635 329.5083922611901 M1066.276730628966 328.9498910339809 C1067.3816984811804 362.75198678071797, 1067.3488512386439 394.2815814012225, 1069.769502611587 472.29415086814566 M1067.3567123039986 328.3692061151291 C1066.6010712952823 379.26884443519634, 1066.8512914330731 429.7727860828021, 1068.169996080474 470.0222964522835 M1069.600353475387 472.3892856651539 C996.2901671940662 469.7391382037757, 924.12328850873 470.8827471732541, 857.5353726388163 471.4298347067084 M1067.6209211086227 471.18171697960827 C983.3836757256 470.1768907850691, 898.3594346901364 469.64419899527275, 855.4475554672474 471.8737079007631 M854.5180661183199 469.3297120727989 C856.4132374818944 424.04840617102496, 856.9071159426336 376.9546628437627, 855.6700226824485 328.6980669454015 M856.1123988801812 470.0304297401713 C854.6790946933547 431.3023423136726, 855.9470231214258 392.9944345239618, 856.1003615848787 329.5695582774779" stroke="rgb(0, 0, 0)" stroke-width="1" fill="none"/></g><text x="962" y="425" fill="rgb(27, 14, 139)" text-anchor="middle" font-family="Consolas, Courier" font-size="20px">"David is cool"</text><text x="892" y="365" fill="rgb(150, 100, 28)" text-anchor="middle" font-family="Consolas, Courier" font-size="20px">id43</text><text x="1032" y="365" fill="rgb(27, 14, 139)" text-anchor="middle" font-family="Consolas, Courier" font-size="20px">str</text><g><path d="M863.2580356145132 334.60409118142275 C876.6446452935994 334.0014628233679, 894.4616918109061 336.0206176819217, 922.0322337690499 336.4147937458757 M861.8659748559764 334.5740640757278 C880.6819111454128 335.21080590876977, 898.6421699398895 335.6684852764672, 921.9631633433315 334.94528235944546 M922.378534213494 335.1460614213008 C920.397098119796 353.46083498570886, 922.0259619853671 370.4102410999469, 922.4576473065447 386.1386698173672 M922.6179523599391 334.73238566943604 C921.4242972748541 349.768933417059, 921.7680491444704 365.1564549931845, 921.0578919570331 385.33742087524274 M923.3691511247864 383.68737127082784 C900.7015239081686 384.35626799145456, 880.1418944538342 384.1588465334749, 860.6080534742348 384.70021744959195 M921.9524377882186 384.0647196242459 C908.3930632533311 386.15292988374495, 896.3918052456929 384.7334776079686, 862.9514371348789 385.15436895848524 M863.9641020259347 384.455005746959 C863.5965930828254 366.45553999359976, 863.2259504260946 352.7004449837461, 860.3700473122677 335.0123173051053 M862.7425123779537 384.01623509606026 C863.0529649924226 374.20492757323905, 862.8178066337457 362.2676260194381, 861.7011477139819 334.6166181942934" stroke="rgb(0, 0, 0)" stroke-width="1" fill="none"/></g><g><path d="M1003.2394196824197 335.6499725702894 C1025.515825114782 337.1049470225533, 1046.340370221504 335.2859118122255, 1060.4958507256135 336.9146373582691 M1001.3003192617549 334.928219633285 C1025.1885212565396 334.70424728311735, 1049.5798242909896 335.5813400006243, 1062.440897958911 335.7754636147149 M1060.6968753972503 333.76533305273733 C1063.5554704799292 348.6864656636665, 1061.0484540803827 360.43815216352795, 1060.393638989215 383.3306464716537 M1061.9871051193043 335.9426888033545 C1062.3824815379603 348.59458710121095, 1062.8112269029862 362.5187345476495, 1062.3747786813606 385.37126132846043 M1063.9834293719025 386.0693570579868 C1045.5491455161555 384.1165146746913, 1026.734562001873 386.043311399845, 1002.9732413623777 383.93017542851385 M1061.5356980935076 384.69253704801395 C1041.7121749886135 385.29342370511716, 1020.9110558059645 385.6188356208761, 1001.1640335891518 384.06112804614816 M1000.4022151795899 385.0079145767749 C1003.5639243747308 365.8058428597853, 1001.6858520159399 345.90399163259997, 1001.3751290146886 335.18099231407416 M1002.7283241936004 385.39297036830584 C1001.5810247864614 371.96124950162323, 1001.3013620666018 359.19344524115155, 1001.1536569011929 335.2753680531423" stroke="rgb(0, 0, 0)" stroke-width="1" fill="none"/></g><g><path d="M316.92057689857364 538.7021465100199 C391.82762122696533 535.0926977679609, 461.8877948659368 537.6040068677801, 519.0817771247417 536.8516658623123 M317.3276838508773 536.4076028253511 C364.1718834273933 538.3503282381562, 411.9024933353094 537.3185775588736, 518.4538815007705 536.9624054312679 M516.128405141463 536.0937930956867 C516.3002198142252 565.5208995908268, 518.2492927051812 596.57264704907, 519.8913180692259 668.5919280739711 M517.1235387501774 537.9744795982574 C517.9813824429393 568.843175261544, 517.9072041111746 600.247759011938, 518.2507161424757 667.0062355953538 M517.3181161334851 668.2816813904936 C445.55021407986294 668.9692205965034, 373.3418012814622 667.2677225395644, 317.85040416267543 667.9067323961383 M518.511874790424 667.4779909418361 C442.76453341360485 666.386271250146, 366.3028704496712 667.092529872375, 318.24408240554845 667.6128273826937 M319.7782210805184 668.0891476763048 C317.9078890585508 636.006618275018, 318.6825979139512 607.5541763814454, 319.9154653211481 537.6321912636243 M317.5547415377109 667.7331208395805 C316.3495374186794 623.1675477491082, 316.36883494230824 580.7295048669754, 317.29495278888027 537.4057207128287" stroke="rgb(0, 0, 0)" stroke-width="1" fill="none"/></g><g><path d="M311.28869231780095 530.7360621847621 C393.84241704061867 529.8403892506362, 471.6516750848345 530.166409028462, 525.0917779315255 530.9394820452803 M311.69223874132587 531.1379732036364 C373.24845589130837 529.529832253162, 433.25032734267467 530.0030083797776, 523.6689902404518 530.9056889954014 M522.6037846134514 531.3619737101221 C523.2533023094727 577.9406320844421, 522.9751626833978 626.1480723815815, 524.4400611590365 674.1225832307126 M524.55148029301 531.3678446683452 C521.8711727974132 573.0003341092521, 522.4301927926774 616.4551583117964, 524.0822390500056 672.7620903660121 M522.7870607175339 671.8576953960342 C466.8617377001796 674.0349884192842, 411.44814733182426 672.6033844141003, 311.4648668856334 673.471438691845 M523.6611916952365 673.3350196128363 C481.18141890767396 670.9110792436114, 438.35294560511494 671.9827222385144, 312.33391919601456 673.5951901997944 M310.32829369065746 672.8907913612165 C313.1397033254381 620.1540760280251, 310.44069673575245 567.4528065971782, 311.23830928901526 530.5114525141414 M312.742726501247 672.3649580895126 C310.3425968522078 625.3491472925364, 310.479618579784 577.5966551735647, 312.4806822281755 531.4995526803623" stroke="rgb(0, 0, 0)" stroke-width="1" fill="none"/></g><g><path d="M342.78563079611587 603.3387630238254 C359.1469673490011 602.6367999233954, 372.52171466759614 603.6555311611569, 400.79288436504953 601.7665700066216 M343.93003583876134 602.4858496535319 C365.21943980074735 602.943277650117, 388.33423495431435 601.2221361328762, 400.4502786282251 602.0222968269189 M401.86527709601916 603.1649418585276 C400.67446250825685 614.4711170483292, 401.2183146963861 626.3224429333927, 402.58650074908684 653.2524901728432 M400.73822468725524 601.1388360540045 C401.44751079508376 622.7476952607074, 400.6227822245414 642.0947895843507, 401.56046471411236 652.9941279774483 M401.9577627333927 650.82214144139 C385.027170335291 652.4708284667618, 366.87697239422096 650.3946317997777, 341.4038290329371 651.9298092525913 M401.07115102105735 652.0647850082411 C380.7250173750511 652.1278953499858, 362.25725916656893 652.030372629228, 342.9428193046603 652.4898035645691 M342.7691914947901 651.860949209936 C342.0910957546682 635.8924195051187, 341.1830896282419 621.9003812922862, 342.3343619887157 603.7922249339301 M342.9902513308211 652.7703334975912 C343.4831126878891 632.4351694410925, 343.6031419264902 614.8262704065268, 342.54119501115593 601.4143058779787" stroke="rgb(0, 0, 0)" stroke-width="1" fill="none"/></g><text x="372" y="632" fill="rgb(150, 100, 28)" text-anchor="middle" font-family="Consolas, Courier" font-size="20px">id82</text><g><path d="M400.9469740726082 601.0357310418252 C418.2237153212153 602.762595216745, 432.8703680846486 603.0301487173857, 458.0670292220056 601.1409343338089 M400.94139068688537 602.8634169854831 C415.1682067735279 601.2612496129765, 428.8692201946932 601.8457805361919, 459.08121221636776 602.7011765906051 M457.87777044414224 603.893130828093 C460.79672192075844 612.9260916109481, 457.8170679221331 629.4429404678742, 457.6052998780238 653.5579114628662 M458.4138133707565 601.8604150991581 C458.9779927038521 617.0493312353359, 458.4633338978531 631.5198573454509, 459.01082240548095 651.7793019837852 M457.20435079185347 650.2574200032004 C442.57153343924966 651.0856075873469, 425.3738597427287 652.7311994682009, 402.0951948287634 651.6681948745 M459.0093640451742 651.2236791062645 C445.8401561333879 651.278721834935, 432.92303922322657 652.2071964988504, 401.99843201474 651.5800235578613 M401.2259082464354 653.673020531038 C402.74368083149403 642.1866848719133, 401.5590123828196 631.829070217795, 402.90688400495475 600.7882538794674 M400.8318521613955 651.2436094553481 C400.73292313825044 631.2275005425133, 401.44986198907293 611.8912828991612, 400.56648249699003 601.2025921815327" stroke="rgb(0, 0, 0)" stroke-width="1" fill="none"/></g><text x="430" y="632" fill="rgb(150, 100, 28)" text-anchor="middle" font-family="Consolas, Courier" font-size="20px">id76</text><text x="348" y="567" fill="rgb(150, 100, 28)" text-anchor="middle" font-family="Consolas, Courier" font-size="20px">id11</text><text x="483" y="567" fill="rgb(27, 14, 139)" text-anchor="middle" font-family="Consolas, Courier" font-size="20px">tuple</text><g><path d="M319.8651363694521 535.3679513655454 C334.9988452468182 539.1596234978587, 347.6688970566581 536.8343890301477, 377.1296760235413 536.2610317704243 M317.6107268147119 536.3935163230385 C341.1617960332388 537.7853872742902, 363.9588858383084 537.4094058108241, 378.02195133478466 536.2640748063316 M376.77532189264565 537.8789350384021 C377.4502433713492 554.32794169809, 379.6337691716034 566.4155921899962, 377.48242936481284 586.5058470596532 M378.54758128479716 537.076631764928 C377.3936314310599 554.2864588522978, 376.8574078650212 573.1808637458989, 378.9266583019532 587.822531097601 M379.0819004434845 585.9037987444151 C356.1982651105095 586.4597696312059, 334.9671900253871 587.1221450795088, 319.885840125246 586.851324055383 M377.72238625168825 586.5900765054174 C354.9039201246246 586.6035647323317, 330.76745812828153 586.4259374103867, 317.6702543100805 586.1286688292599 M319.40761901492533 585.9889581122468 C318.637189834691 571.6898972344313, 319.6209596699233 560.0922006134203, 317.1656886233835 538.4551225856369 M318.63261362710097 586.5855395015238 C317.43232561895036 575.8491931364822, 318.6055089793997 564.6127458326118, 318.20165245872215 536.774974464207" stroke="rgb(0, 0, 0)" stroke-width="1" fill="none"/></g><g><path d="M447.9409608843425 537.8386085357099 C467.442414052559 536.0843235992389, 490.62463257248896 536.0541575503594, 519.2854929494131 537.4564025304054 M447.11233349639105 537.164359961744 C463.1586816761889 537.1175900912501, 478.10403169908943 538.1677904432186, 518.3371770073473 536.5802066390905 M519.2612998541596 535.889210181596 C515.9696020192525 551.9829033561132, 516.9800531031431 571.6982235662003, 516.4069507720943 585.9284714782751 M518.8031128169919 536.6004648831075 C516.9210727907304 552.2944846614917, 518.0870453827448 565.9348113730148, 518.829236011571 587.6797284085716 M516.4854959407115 588.6493727739792 C500.53996133070257 588.0747321436445, 488.6358520520273 585.4298456199458, 448.75331464360767 587.6528310955073 M518.610159833571 587.1808583441648 C496.0412678735297 586.6461714623707, 473.63243467222713 586.7974917589898, 447.99045495278096 586.8222082053431 M447.45810718531516 586.3083657499934 C446.99539864019357 569.4467548092192, 449.0660348344751 550.454015796024, 446.7775556705452 537.614351313484 M448.3551024192315 587.2600332418994 C449.08298968178315 574.7403909451846, 448.29882486123086 562.2635676650964, 448.408647627533 536.9553018624479" stroke="rgb(0, 0, 0)" stroke-width="1" fill="none"/></g><g><path d="M578.8919604166316 537.0644561788785 C655.0868545218414 536.6217840841418, 736.4984381474331 538.4589775419669, 825.5639944264534 536.2550793142107 M578.7237529712521 537.4046856567894 C636.7760599852818 538.2551961892368, 694.4429501102421 538.0782342822503, 826.2939537617403 536.7015876958018 M825.7669239523021 536.8143861440518 C826.5146273761022 574.722767583337, 827.036684359146 615.2903511255797, 826.1450043581916 665.576956852656 M826.1951192696181 536.0575970837823 C826.0944814211582 565.8470992167944, 826.615284368912 596.2720017382507, 826.1725716832485 666.2834086366886 M827.6826467828622 666.272170531362 C737.0337933944102 667.2067227077683, 645.1117645886577 669.7413239382299, 576.5666144311983 666.7995326688447 M827.0138942475044 666.2900828559684 C752.4704741635701 666.6508676802237, 678.7834918444188 667.1474826596485, 578.4666039026936 667.4169087754264 M577.7460481982852 665.91053059954 C580.2633383252669 637.6842668926921, 577.5575753411387 605.5740938384944, 577.6619064165715 537.227433483827 M577.4530258149213 667.8082657566451 C578.6894747101065 621.8839044401436, 579.0807781232622 575.8498967785579, 578.054699817838 537.0648889382143" stroke="rgb(0, 0, 0)" stroke-width="1" fill="none"/></g><g><path d="M602.1102206740547 601.7414016655658 C624.8539610624453 603.1747443357888, 644.1192962163278 600.3657160821975, 662.9683069126825 601.2489317019489 M602.9660592950116 601.8305072663413 C624.1644429985768 601.6110094589523, 648.2144909319974 602.3510847243924, 661.2720174117039 602.4519021485781 M660.2517678992231 600.1594703397571 C659.2461091155558 620.9159253040397, 659.1188805542915 637.5878870614401, 660.9266643346458 650.8547945305908 M660.2073878130518 602.0259910885158 C661.5445599842675 615.4152980707652, 661.6900350579804 627.0666790379425, 660.0642585283932 651.3189702518968 M659.6587942950853 652.0801831141924 C640.5270788873845 651.5538153960665, 615.2943630548915 650.0681054658328, 603.2562801921798 650.4528224748252 M661.373280767367 651.5013886070292 C648.5584191494561 652.9129864749872, 637.5241502072189 652.9329346975609, 603.178302706914 651.2425125374892 M601.3207153354185 651.6363995221166 C602.9015642874043 641.7102707529227, 605.149472017829 626.4897198562232, 603.2158677524822 603.9325253749737 M602.0384909848453 652.2292458519379 C602.0688166132799 635.6402657202809, 601.8203554436327 620.6596652598436, 603.0218131561073 601.798129653776" stroke="rgb(0, 0, 0)" stroke-width="1" fill="none"/></g><text x="632" y="632" fill="rgb(150, 100, 28)" text-anchor="middle" font-family="Consolas, Courier" font-size="20px">id36</text><g><path d="M672.5260919806013 600.8057028684827 C686.4590546977853 601.3859484318416, 699.6509570497586 602.0260036199027, 731.7503961396195 600.0064854365269 M673.2552157483614 602.6282364867778 C694.2514309708283 602.2436523600571, 716.0442673299483 602.9178778218309, 732.3195425228455 602.0533961311861 M731.7939114891979 601.2608467800419 C731.0407998084698 615.7909129914771, 730.9920527823648 624.9725290638047, 732.3266099984326 653.8751555952871 M730.9648362876726 601.9902766178795 C732.5828844692091 611.86163734033, 731.4845987946142 623.7492132832816, 730.9899929766267 651.4150526453996 M731.4343716724863 652.0429394084107 C719.1387244595246 652.8018649508839, 708.5245903079407 653.2868046879389, 673.3772597890355 650.1885617860481 M731.1527802887628 652.6386384857235 C715.289262314347 652.5018617371799, 701.1240642844339 651.4723381737654, 672.9973666088727 651.0617119014253 M673.655847815389 652.8109427465408 C674.1047704447174 634.6432140365326, 675.8839479607616 618.8851221919904, 672.5648877792133 601.6078567869714 M674.1152973939053 651.1192506292476 C674.7021690366842 632.407770874108, 673.6390348402725 611.6975602810877, 673.517483393726 602.080082967109" stroke="rgb(0, 0, 0)" stroke-width="1" fill="none"/></g><text x="702.5" y="632" fill="rgb(150, 100, 28)" text-anchor="middle" font-family="Consolas, Courier" font-size="20px">id49</text><text x="667.25" y="632" fill="rgb(0, 0, 0)" text-anchor="middle" font-family="Consolas, Courier" font-size="20px">,</text><g><path d="M745.6885051074502 600.9317192544446 C761.1344701735982 603.4209037644348, 778.62491811804 600.598034073962, 802.5055492170708 602.0216737668883 M743.0959049134993 601.3379494726611 C758.3013312567372 602.1382530594867, 772.5737698654649 601.455732832415, 802.6780443555813 602.3101754307476 M800.0841765492627 600.1612358637203 C802.1188252609468 615.3417476255572, 799.6594452406264 631.6918846117857, 802.6134263433357 653.3070180984804 M802.4949099735497 602.8011104782851 C803.2885855561248 621.6668498743636, 802.2059447655066 641.0702868926866, 801.3761632984052 651.0767355748713 M800.7737871410776 650.5210543355106 C782.2274977986826 651.8917191763042, 766.0400801402898 649.8993527458827, 744.234842910029 653.4599434708632 M801.3649837101724 652.545579528499 C784.1274504366988 652.8261298231781, 767.4833013569131 651.6015175269243, 744.0411595420683 651.1448130188382 M743.999704019127 653.9740076948013 C743.2888478552578 638.959230433972, 743.9051419178011 621.919769530538, 743.0166996303747 601.5797387595582 M744.6462355486408 652.7582444298889 C745.0353000699856 639.1277432002943, 743.6951239726495 627.6373328134719, 743.4666570244926 602.4045808242204" stroke="rgb(0, 0, 0)" stroke-width="1" fill="none"/></g><text x="773" y="632" fill="rgb(150, 100, 28)" text-anchor="middle" font-family="Consolas, Courier" font-size="20px">id64</text><text x="737.75" y="632" fill="rgb(0, 0, 0)" text-anchor="middle" font-family="Consolas, Courier" font-size="20px">,</text><text x="608" y="567" fill="rgb(150, 100, 28)" text-anchor="middle" font-family="Consolas, Courier" font-size="20px">id90</text><text x="797" y="567" fill="rgb(27, 14, 139)" text-anchor="middle" font-family="Consolas, Courier" font-size="20px">set</text><g><path d="M577.1636643076027 535.3333459697377 C595.0990768568071 537.7609370738433, 612.484664235332 535.6642778960204, 639.5490677710858 537.2695357000388 M577.3835544722223 537.3451655640632 C600.5357152014008 536.7981005639507, 623.5770967125275 536.3753352703088, 637.1381841635244 536.7475169115319 M637.2402051766601 538.3345368083773 C638.7460911568926 553.7259318822058, 636.5126219613984 569.9541426858227, 636.0206314217791 585.3701363798605 M638.2059707689518 536.0240235370248 C637.1455688516315 551.7280993583674, 637.7114449453699 565.4645164645572, 637.8857567803782 586.3617731363242 M637.9550310509849 587.2818609971833 C619.1809907631057 588.3672727859259, 599.0289171984425 589.0263284546057, 578.8110243807723 587.8997807424889 M637.8351948259362 587.3477609359786 C623.668627964391 587.946328659853, 609.9188608737433 586.9535461568943, 578.5418821891714 587.7864402292355 M576.6129043716227 585.3124649279325 C578.389363935997 573.3135593536414, 576.1564867283354 564.8024261205609, 576.4391416622982 536.8597291666338 M578.5791811074317 586.5551958334333 C577.9761048957282 571.3439838989494, 576.9296007777966 555.9824793370086, 577.2210803041462 536.1980653245867" stroke="rgb(0, 0, 0)" stroke-width="1" fill="none"/></g><g><path d="M767.2508849426216 537.4680581137577 C787.032896807301 539.3573969611244, 802.8730724798507 535.5854286010979, 827.8087677354175 537.1668401857546 M766.6874213819661 536.8667183673268 C778.4400576300376 536.4201435419013, 791.2357931620912 537.6663603676856, 826.0665718863729 537.0902109788132 M825.8374600191704 535.0540814028805 C827.2325620774947 547.3547137841003, 824.9351945932224 558.1186798379176, 827.3460154574038 587.1380875705033 M826.5695560450501 536.3117477741238 C828.408009919085 550.8622539301523, 827.9169469503598 565.5710175203616, 826.4301033935806 587.7832799422407 M825.1214104317237 586.90891758785 C814.8977862657789 586.489434043325, 799.9920678146398 585.6525159158878, 766.5440260537624 585.8878493775402 M826.3918759096337 587.1117938514859 C810.6556945481645 586.828893324463, 795.8362840486774 587.6132919422073, 767.6611708563971 586.1781559799673 M766.371663775714 587.326732309175 C764.8377962262143 573.5891048722349, 766.2428428730244 561.6314463894814, 767.1706280948802 537.012432497348 M767.1059013489333 587.3602491558948 C766.4429369936631 575.2311786744965, 767.6338943932712 564.8007213253126, 767.3821093406109 536.1146646307706" stroke="rgb(0, 0, 0)" stroke-width="1" fill="none"/></g><text x="590.5" y="632" fill="rgb(0, 0, 0)" text-anchor="middle" font-family="Consolas, Courier" font-size="20px">{</text><text x="814.5" y="632" fill="rgb(0, 0, 0)" text-anchor="middle" font-family="Consolas, Courier" font-size="20px">}</text><g><path d="M911.9626010648759 610.0447237048304 C929.717085337281 612.7320143778958, 943.5353755992514 612.1767802172596, 962.7782044143551 611.6108463555283 M911.1158558095353 612.4671062690908 C928.4800103506371 612.9054682137195, 946.1863189105436 613.1080906721339, 962.2631696524137 612.060005894007 M961.7136102517833 610.3260749409657 C963.2806145837508 631.1013057763955, 963.4184485227565 652.0581322801784, 960.6042399874158 660.8630337538746 M961.054406598904 612.9647327315068 C960.9574701308376 629.7312543360949, 961.3671433327496 648.3366788329922, 961.1022620688008 661.0975825919791 M961.336170397013 660.5838517834932 C946.1603492470372 661.8858119494519, 931.0685811489197 660.3504272881423, 911.464862993643 663.7767279798998 M962.0438708636635 661.8400843370033 C942.1119589497426 662.220746681155, 923.6824574432507 661.9414432694062, 911.8732406943207 662.2870588210807 M910.4627284190997 663.7314500731248 C912.7052337050714 648.2608260284537, 911.6609597142782 631.0310650328186, 910.065871400009 611.9155661289388 M912.4228468762233 662.0707367314692 C912.4555920580525 649.8860991853538, 911.705031652936 638.4775995598039, 912.87274733782 612.5427029694354" stroke="rgb(0, 0, 0)" stroke-width="1" fill="none"/></g><text x="939" y="642" fill="rgb(150, 100, 28)" text-anchor="middle" font-family="Consolas, Courier" font-size="20px">idx</text><g><path d="M912.8027728460021 688.9110679004367 C931.5850986380428 688.3522084807228, 950.9120348431655 687.0290698173409, 962.0283377508792 686.326900636672 M912.6366549679155 687.1605903627559 C927.8655579395826 686.2933168372559, 941.6636951268051 687.7300391598621, 961.2484705342598 686.7048946955235 M963.451847902856 687.6966113040087 C962.9389211983632 698.8067212568292, 960.8189506601495 708.8076687023428, 963.639952798045 737.4066161164956 M962.1797570275177 687.6245402342302 C962.0112242925948 701.030981718877, 961.6594687732218 715.8944922587012, 961.2250864683475 736.7520988858479 M963.4131779711131 735.358412601738 C944.9180767314343 736.2867535736133, 925.3079322266501 736.3135188949507, 913.8837567267386 737.0595093641357 M962.1506514240166 737.7590807505753 C949.7082633457833 737.4863777819907, 935.8264216166251 737.1798574727239, 912.1836669735462 737.8619925368463 M913.2714582208944 736.0571949511306 C912.8406129055229 722.5432558022599, 910.2052090710524 711.7476979527889, 911.0748701589058 686.3988830553302 M912.8648574680203 737.2189295584861 C911.117092471493 724.7358356671045, 911.2804776937131 711.6473985073774, 911.6073473421515 687.6814409621311" stroke="rgb(0, 0, 0)" stroke-width="1" fill="none"/></g><text x="939" y="717" fill="rgb(150, 100, 28)" text-anchor="middle" font-family="Consolas, Courier" font-size="20px">idy</text><g><path d="M913.5224949613786 760.5978401027874 C929.6029240410992 762.8618054193427, 946.5854937812193 762.255623483711, 961.7828960304458 762.2407510144369 M911.270228147016 762.3075997156096 C930.2595224943759 762.4441195644816, 947.5304394747945 762.5147083832975, 962.5837703063484 761.5360436637226 M963.657440652308 763.1810321743045 C964.1010845416043 780.6160563215454, 963.1011270563101 797.0355710247188, 962.3657838368986 810.4867982308805 M961.3978018507037 761.5291749515574 C962.4154625515126 772.880670952776, 961.8590031932035 782.0793352878752, 962.4308007210631 811.6241173589851 M961.5714748312855 813.8111489694267 C950.7022533991013 809.8969917730526, 939.0110043075615 810.583585042329, 912.5380795719836 810.9571693722738 M961.6319600241342 811.0556660362166 C947.4404345738724 812.0145348571642, 933.4585969610201 812.2153321637646, 911.6250095753827 812.5799232213417 M913.6060307928093 810.1657612755156 C911.950999143678 792.0432002895064, 913.9420710042244 772.1518002693441, 910.62183997149 763.8080172034132 M912.9290540706295 812.5034969055844 C912.4086228050104 801.7080572837117, 912.230051071228 790.5908435852662, 911.1057530771674 762.3152599148171" stroke="rgb(0, 0, 0)" stroke-width="1" fill="none"/></g><text x="939" y="792" fill="rgb(150, 100, 28)" text-anchor="middle" font-family="Consolas, Courier" font-size="20px">idz</text><text x="993" y="642" fill="rgb(27, 14, 139)" text-anchor="middle" font-family="Consolas, Courier" font-size="20px">:</text><g><path d="M1012.1236818373886 610.6363094129173 C1026.4950122000532 612.9851965662541, 1039.1307100397855 610.4771857292639, 1073.3512325617965 612.0493575010338 M1012.6334666141892 612.8886570769663 C1026.090075715731 612.9551576141918, 1041.6419261911058 611.6300562188388, 1073.7691753260217 612.5636530154217 M1073.7377855982086 610.7867884342767 C1074.6429933387114 629.3870803612186, 1072.1507720276986 650.1889680590815, 1072.7150161767772 662.7350200807058 M1072.9960107091554 612.3286010256104 C1072.3060043617581 627.8349114292394, 1073.8668556408006 642.9796522867451, 1073.534771693493 661.9806765601362 M1072.1824069977158 661.8425150312057 C1058.8822927960593 663.4554621997444, 1040.7091488066555 662.0336018504125, 1011.1630272251302 662.3403782921463 M1073.3055697452548 662.0237203780583 C1050.4762656007067 661.6764150055538, 1027.4432996940934 661.5238109965209, 1013.1411743932878 662.5081517738167 M1012.0644160799853 661.2266590326693 C1011.137059166639 651.0628205798853, 1014.2807900090194 638.2944854423021, 1013.9845300241217 612.8352634321897 M1013.0742271774404 662.604529680489 C1012.2068949315113 643.4644583834742, 1013.1188610736632 623.3086483564939, 1012.5506588941711 612.4865569569694" stroke="rgb(0, 0, 0)" stroke-width="1" fill="none"/></g><text x="1043" y="642" fill="rgb(150, 100, 28)" text-anchor="middle" font-family="Consolas, Courier" font-size="20px">id81</text><text x="993" y="717" fill="rgb(27, 14, 139)" text-anchor="middle" font-family="Consolas, Courier" font-size="20px">:</text><g><path d="M1011.8820603922043 688.1288673522566 C1039.2678313086594 687.3884267356569, 1066.831523558683 685.9050584337788, 1085.1249040102132 687.8571741378294 M1012.6875556585197 687.1858394241082 C1033.2609110375056 685.8147061918484, 1052.8949566132121 685.8655816999869, 1084.2208399312162 687.1661314146735 M1084.8371194768401 687.2645508272059 C1085.1000830899702 697.7872129910895, 1084.8378955183675 710.0003762340859, 1085.4735160742832 735.5367916157866 M1085.0678543172378 687.2237793304496 C1085.7519773923214 701.3572535538065, 1085.938335021113 716.297410863945, 1084.7057289642755 737.961513034649 M1084.718063398249 738.2493470550164 C1068.9769632920602 738.0126199613444, 1049.6635113790653 734.9483004770103, 1011.5634737412905 735.8576279720493 M1085.0326324983669 737.4788561714814 C1068.1240358037896 737.3207054672946, 1050.798196173454 736.1196975410328, 1013.7023103394775 736.0260369759717 M1014.0276683888926 736.3145177303414 C1011.246899070583 723.3343945819336, 1010.5339338063787 707.0729540335142, 1012.8499453677716 685.7808153962229 M1012.1042780704888 737.764327538969 C1013.8084420937075 722.3730532005037, 1012.9953717797375 705.5438564816181, 1012.2631777469971 686.2260811690853" stroke="rgb(0, 0, 0)" stroke-width="1" fill="none"/></g><text x="1049" y="717" fill="rgb(150, 100, 28)" text-anchor="middle" font-family="Consolas, Courier" font-size="20px">id100</text><text x="993" y="792" fill="rgb(27, 14, 139)" text-anchor="middle" font-family="Consolas, Courier" font-size="20px">:</text><g><path d="M1014.3439237364175 762.2130029131513 C1037.9974423996573 760.7580183382005, 1064.2983319523705 762.5020845588645, 1083.5363798069498 761.1569852382584 M1013.3576763949682 761.9109939874211 C1039.7298900588157 762.3223492923403, 1068.5465571567227 762.0160721404402, 1085.8345379989164 762.1147473005449 M1084.4185900566608 763.7203175558444 C1085.4267119390695 778.0303013536226, 1086.1564853447458 791.8130791619433, 1083.5294678251055 811.3850679834458 M1084.7848453538095 761.6786891784558 C1086.2759044163358 781.1249164761689, 1085.7356853870358 801.5312790309104, 1085.2387806285813 812.8434338049867 M1084.7835179359981 811.6951926198038 C1060.4283973791441 813.5390191644439, 1030.8267415408516 812.9113007169219, 1013.5477896894365 811.8215176669801 M1084.5081934474051 811.3976775928294 C1066.1947240072911 811.7154765053195, 1046.973757160357 811.4494572948946, 1012.8924692528093 811.9920237104342 M1014.6869474872118 810.4751974007107 C1011.3583208283902 796.0299058732405, 1012.9410745737384 781.6665173642155, 1013.4031101550917 763.1929325807845 M1012.2494643534044 811.2162084036859 C1013.2178236142504 800.3761526416271, 1012.8299668905098 788.9986937092866, 1013.1494627961061 762.381857551226" stroke="rgb(0, 0, 0)" stroke-width="1" fill="none"/></g><text x="1049" y="792" fill="rgb(150, 100, 28)" text-anchor="middle" font-family="Consolas, Courier" font-size="20px">id121</text><g><path d="M887.1277280883473 535.3332113638133 C936.7723887939816 536.7841188214894, 990.5829297596537 538.0033071532588, 1097.5635435671475 538.7455134447487 M887.584513093446 536.9311328405006 C938.9138815837198 534.952781196378, 989.6316820915214 534.8464226334366, 1099.1311622858843 536.677203381848 M1099.9763456795124 538.3270585119101 C1099.0444470637274 615.2009992133553, 1101.7110685301586 693.1766315833397, 1100.250534342546 835.9640100654574 M1098.928568466475 536.5148373092468 C1099.917787911268 638.8488423004449, 1099.9210092842259 740.17243970867, 1098.829199272017 837.4818819991514 M1100.57753405621 836.6052930929937 C1052.6916642286842 836.5818456660722, 1010.2161112994576 836.3100940345812, 886.3271942658164 837.1596383594145 M1099.3191932866878 836.2277440729407 C1056.0801487825877 837.0515871139318, 1013.5909930579912 837.4378792340929, 886.9980457336223 836.9532149413544 M888.2523935210916 837.5049744982736 C883.9852490161953 719.1206173695092, 885.8310694146517 597.6806546957024, 887.6755355721255 536.1184839269129 M886.9280194861551 837.449030837597 C888.2435304616795 776.2244719454458, 888.6848469768282 716.4041632487349, 887.4212943432858 536.5544189766042" stroke="rgb(0, 0, 0)" stroke-width="1" fill="none"/></g><text x="917" y="567" fill="rgb(150, 100, 28)" text-anchor="middle" font-family="Consolas, Courier" font-size="20px">id10</text><text x="1069" y="567" fill="rgb(27, 14, 139)" text-anchor="middle" font-family="Consolas, Courier" font-size="20px">dict</text><g><path d="M886.7358992801338 536.1846294070259 C903.6588377962931 534.8339380835159, 924.0949774602934 537.5996603330499, 945.1586052177983 535.9919026075478 M887.6054755514607 536.6276791423326 C909.6138825022832 536.1033759226516, 933.160265051933 536.1967763543248, 947.6525962919077 537.7254453167938 M946.5650554404447 538.6956660204678 C948.977267300811 546.9908167914382, 949.0182822724125 560.0176712885026, 946.6734737959772 588.1920937624102 M946.0141754729319 536.0010575401305 C946.4474608505305 546.6528798914954, 947.0448595711838 557.1906290683885, 946.717961243411 586.5223511586782 M945.9594896699125 587.0409126396853 C928.9474518637772 588.4385595922299, 909.8652153687619 589.0137257147643, 886.8307746497036 586.3110174113738 M947.5275960370077 586.0437432845733 C933.3124856088623 586.2101632591837, 920.7302206981655 587.4707973565797, 886.4499682688016 587.9308438545379 M887.0404717413255 585.2133028788663 C885.0784194197837 572.9975085409114, 888.3326263265639 557.3993086942257, 888.7868623529216 538.4781426291437 M887.5257749611477 587.9255792187452 C886.7322311669928 574.6251362317481, 887.8687561776384 561.8992149734922, 887.3692803479362 536.8948940309415" stroke="rgb(0, 0, 0)" stroke-width="1" fill="none"/></g><g><path d="M1040.3747472781738 538.9053293454076 C1053.2819647031715 537.4289203703264, 1072.089582867076 536.8620541369626, 1098.8406652938052 538.4028830416366 M1039.9645526788718 537.691718046416 C1053.9213655405265 536.4439074928125, 1068.2509085128781 535.732622820183, 1099.4187081346695 536.8176242770494 M1100.0993532947812 538.0910950065913 C1100.36416119073 550.9650687605998, 1100.355089468536 568.370523970507, 1099.7045111201141 587.7458317986853 M1099.40918006525 536.5103534127575 C1098.911352167213 549.3268958151888, 1098.6705599737015 560.3990298090908, 1098.8869665854531 586.5492788335183 M1100.7483560667401 587.3185596631334 C1080.2283510508676 588.2011920339485, 1060.330947031936 586.5203922932544, 1039.6908625889607 587.7241265316758 M1099.203370637995 587.4316038720998 C1079.0119611321593 588.0374149803002, 1061.3971258332551 586.5763223699598, 1038.3431417714608 587.2452325146078 M1038.7983711881484 588.3324250312809 C1037.0604600207596 574.2950813144822, 1040.7046187463748 561.4913415415508, 1040.9901598174295 538.481597673573 M1038.1237506052275 586.7989360942147 C1040.0623270925437 575.4618677639004, 1040.2569905295002 563.8698560692676, 1038.6175451044355 536.9213570290334" stroke="rgb(0, 0, 0)" stroke-width="1" fill="none"/></g><g><path d="M316.9634644031539 897.6322025379727 C358.6302872306006 894.8210744458277, 400.03753432036785 898.178156229283, 518.2115604485316 898.2582971953461 M317.72363869488163 897.5942903900329 C386.5569550320444 897.4981343373361, 454.40237889634074 897.8666110882184, 518.7669817173868 896.690532938538 M516.5625184110328 895.2977503569284 C515.5632976797541 941.7381822222969, 519.2722377141646 983.5472914963242, 519.8310615025101 1027.2393456490124 M518.1056999023301 897.9379282749464 C517.914597895327 933.8881503791279, 516.396469209056 969.6818069078248, 517.8165596269379 1027.9866878234336 M519.0883236217451 1027.4926736654547 C471.875956948474 1026.8806570760157, 428.0739511638433 1028.0903117237592, 317.36465273055325 1028.4084032890148 M517.4286092209554 1026.7874543370351 C442.0015800459409 1026.8977526497615, 365.164830144238 1027.6912893955603, 318.65974901434737 1027.848300905572 M318.32590122534464 1026.9331946123978 C316.4700649812302 987.6952667175526, 316.92300038445865 952.0921222732596, 316.5870392599038 896.8407828830051 M318.876154237966 1026.1686991827708 C318.6438002232474 985.3886827085333, 318.78497701136706 945.4974592073563, 317.8840729338358 897.7598653134144" stroke="rgb(0, 0, 0)" stroke-width="1" fill="none"/></g><g><path d="M312.9975159963077 890.1919229062696 C387.6643082169288 890.3257143174357, 465.77406292000416 891.0922820037867, 523.3194927132419 892.6040130728414 M311.85303025494403 890.8359740965317 C392.7214102575387 892.3797091387631, 472.891487265066 891.4919104221896, 524.5015306669804 890.3644581251384 M525.3175546234185 890.0780502185287 C522.5164584349096 919.789451118295, 522.8491609278813 948.9922587147668, 522.9642707747147 1034.7808961778926 M523.3003282075904 890.2978588989178 C522.6753407489758 939.2496342060138, 523.6153885721434 989.5698626441289, 524.7016417430374 1033.6172456228617 M522.5809481315856 1032.1745962123443 C460.109411243255 1033.2636608663656, 397.98576958438497 1032.0972975728782, 312.87285598656536 1033.6956831281173 M524.5460889009461 1032.702729397698 C455.87658008827333 1033.3705523343551, 387.5921564434654 1034.387910738592, 312.5531600082694 1032.5615527771376 M310.4406380222271 1032.7405749824911 C312.50502902379833 989.3071212113414, 310.55485066422335 943.2030002729568, 311.0237547172332 890.7794005449272 M312.28924548622683 1033.470359653353 C310.62435656077946 986.6423692712079, 311.95813520992647 939.8480365181665, 311.0401746861962 891.942278994076" stroke="rgb(0, 0, 0)" stroke-width="1" fill="none"/></g><text x="418" y="987" fill="rgb(27, 14, 139)" text-anchor="middle" font-family="Consolas, Courier" font-size="20px">"None"</text><text x="348" y="927" fill="rgb(150, 100, 28)" text-anchor="middle" font-family="Consolas, Courier" font-size="20px">id13</text><text x="488" y="927" fill="rgb(27, 14, 139)" text-anchor="middle" font-family="Consolas, Courier" font-size="20px">None</text><g><path d="M316.0444525489343 895.3220703701373 C339.93482309724595 898.6410468858737, 361.8649606774309 894.9122637347657, 376.19923236513165 895.4027715122312 M317.9575476412275 897.1686576233944 C340.4962451034247 897.2020876871592, 364.82295140832724 895.788575999675, 378.48200091568225 897.8052385716352 M378.09937575559223 896.9151380899764 C378.6870014937609 913.856420735868, 377.0162820998113 932.0493972139017, 377.21126217933056 946.8778081495282 M377.315675065198 896.3025486013611 C377.7757331227657 907.4878590778432, 378.1257331877094 917.6438848316062, 377.5692843373554 947.2160960233648 M377.6816174251448 946.16398590674 C359.5797193483416 946.0953509584898, 340.80957011441114 945.951852775442, 318.0101169610339 946.5030598003045 M378.03435252790104 947.7190515872414 C355.8572414902859 947.1532407754091, 331.72174268284977 947.3230866911308, 317.8536479022505 947.252916398122 M319.5813351510151 945.9068135785449 C316.41173031383323 936.7423868614618, 318.2141778759342 924.2873310792468, 319.75124058517514 898.2226814349664 M318.8654812852679 946.2037544732527 C317.5022769189708 933.2870290205583, 317.2459310491486 919.85044933147, 317.35937555704555 897.9841772489605" stroke="rgb(0, 0, 0)" stroke-width="1" fill="none"/></g><g><path d="M456.01381565216684 898.5031167612846 C475.71849711392974 897.34051310893, 495.3622496327424 895.0652929019151, 519.6196263046122 895.2333478818808 M458.4011789831581 897.6652005658938 C469.64175410256274 896.9747475794173, 483.77821503472626 897.2618778335354, 518.5817407334176 896.8902461359003 M518.3125868941431 897.0349372779582 C519.9154830225064 913.1657859367054, 517.8486820546699 928.2443744512277, 516.6716180470863 946.0082521957704 M518.2472664135757 897.232401444399 C517.7276464337137 914.880916919764, 518.0635275146535 934.2814663226555, 518.0248035387157 947.0807312730519 M516.0684219725035 947.2389826354731 C494.30076228196174 947.3051322491101, 471.4980131111829 945.1344105745571, 458.6596481795847 946.2627443887367 M517.8720355810474 947.5060999753265 C501.34403488553795 946.4995606528599, 482.95501322512797 947.5173370040299, 458.2697804424341 946.1362717298458 M459.0093726941889 947.383755770363 C460.20971797190737 928.6350503455974, 457.47550321279954 910.3667022332003, 456.03534018772837 896.1542562122933 M457.87847103937014 946.7422204830013 C457.5918210306373 930.9130545489613, 458.27102508714734 916.239249573632, 457.73270255913775 897.952313919936" stroke="rgb(0, 0, 0)" stroke-width="1" fill="none"/></g></svg>