<svg width="1300" height="1100" xmlns="http://www.w3.org/2000/svg"><g><path d="M11.36289905157318 8.306312112559297 C75.05355768863637 10.615600197589876, 145.39580951437054 10.65888272021413, 206.0596070540204 8.137418266617926 M9.855210537722005 9.015169216503708 C75.76493099718196 10.476014147867716, 139.02273397637416 11.598866389117, 207.94621561754417 9.298036050830433 M207.66577252181295 10.570575305782244 C208.47057787765618 75.84752018482565, 209.2501417943005 140.76124906660795, 208.99560938205954 235.49930286366433 M208.1998330057625 9.680913006254139 C209.26414319227166 72.17643978590569, 209.40924257666433 133.79111441744573, 208.42313149558325 234.85282496943785 M208.60871758606854 234.18375903392857 C156.4391705375566 235.5707818361281, 107.92893681597876 233.6563972224049, 11.954353082834153 236.19791528178513 M207.10528524419604 234.91533849078345 C138.4546075589164 235.24515833881256, 68.95662715559436 234.89903415944627, 10.26164799552302 235.81286445923772 M10.182117693950199 234.38364662755131 C10.842820428557234 182.80253972704818, 9.02920448897001 130.38673071518727, 10.868521897054402 8.433387543367655 M9.490406469394133 235.20398627189363 C8.401375556563305 151.86333655466814, 8.388691270651371 67.0244593819193, 10.535079168743817 9.926719300326582" stroke="rgb(0, 0, 0)" stroke-width="1" fill="none"/></g><g><path d="M131.70258662377506 86.89643901480831 C152.01914589776882 85.43494080422519, 175.6445817357826 86.78810333642741, 192.14180026561485 86.93197292607238 M132.95484270562943 85.05605749287722 C155.32064055893036 84.73537273975698, 178.16505625699034 83.85372269027427, 190.89104627192913 85.81269305403004 M191.6815637760593 84.02873958476339 C191.79504807329315 103.96967560036718, 191.33155988934323 123.27940452384054, 191.31392637133564 135.70234989503794 M191.50258448319005 85.6492710189406 C191.79117922188894 102.08103614212186, 190.41128821115362 119.73493922332909, 190.29271130130743 134.37566138324826 M191.20597496093922 136.9378087705577 C177.87243879507747 134.9240049935078, 165.13758231376713 137.2609535814526, 133.48999341441527 133.86959231893775 M190.41670538601045 135.02216220279692 C175.3353829242645 135.87434974818814, 161.13789942471956 134.23909108671947, 133.6174121914579 134.28740618703026 M133.48897951007982 133.11895109650354 C133.51351920073796 121.2513322365373, 130.98004623229266 106.12189059954798, 131.38894364464193 84.86639384157145 M133.36240726805684 134.6795027138068 C133.27899586027092 115.9364338618347, 132.57546188931087 97.92469849593823, 132.15409079168793 85.10379276520902" stroke="rgb(0, 0, 0)" stroke-width="1" fill="none"/></g><text x="35" y="115" fill="rgb(0, 0, 0)" text-anchor="begin" font-family="Consolas, Courier" font-size="20px">age</text><text x="162" y="115" fill="rgb(150, 100, 28)" text-anchor="middle" font-family="Consolas, Courier" font-size="20px">id12</text><g><path d="M131.48467520179236 161.07825436631023 C155.9442696231004 159.39890085036888, 178.30368504063125 159.2853402575813, 191.19291722140312 160.75767202077904 M132.91304027581296 160.8620021358342 C155.23768900654085 160.6123332786781, 178.07111907705394 160.6267203248962, 191.37694368149798 160.07186791941936 M192.8668658709481 158.13491915753914 C189.28881862154512 174.10560693368916, 189.2908683240245 190.12846571315893, 189.7704228430586 208.30463353229487 M191.36089621649322 159.7477496860137 C191.23545826978207 178.22307358504392, 191.27303928476115 196.80341147036106, 190.49361779642126 210.09450463865895 M189.12296335551886 209.02740924387496 C174.08274225886825 208.42453578340516, 156.32980643881277 210.86486191643905, 134.55209828070744 209.18121456347794 M191.5648828201729 209.7135029007014 C179.66849917372335 210.99329160746376, 166.5599272411983 210.84362152926911, 132.7722766245718 209.14556660799323 M133.36802260111753 209.50381815448333 C131.62238418622653 198.81872214264507, 132.32021340541348 185.29904718893778, 133.99978671721138 160.540714870938 M132.0373715009714 210.04850469098974 C132.5653323610273 197.6230773786112, 132.30252520161378 188.04461249874876, 132.68399829682195 160.91485222801003" stroke="rgb(0, 0, 0)" stroke-width="1" fill="none"/></g><text x="35" y="190" fill="rgb(0, 0, 0)" text-anchor="begin" font-family="Consolas, Courier" font-size="20px">name</text><text x="162" y="190" fill="rgb(150, 100, 28)" text-anchor="middle" font-family="Consolas, Courier" font-size="20px">id17</text><text x="40" y="40" fill="rgb(150, 100, 28)" text-anchor="middle" font-family="Consolas, Courier" font-size="20px">id99</text><text x="167" y="40" fill="rgb(27, 14, 139)" text-anchor="middle" font-family="Consolas, Courier" font-size="20px">Person</text><g><path d="M10.133971202256017 8.488135886702523 C28.242891104501 8.626924689316263, 44.62567185291506 9.588144469332718, 70.56321259025265 8.008809478510457 M10.256980949914112 9.376654229537632 C26.98347252919256 9.821476710669002, 44.94162577900447 9.511388611588412, 70.30749658029085 9.420546769135514 M70.85335068095493 10.566064989857935 C68.71468053837431 18.994004016033426, 71.6072104224141 32.21590563172005, 71.27988029068239 60.536008801629706 M69.96759590316732 9.167635532581839 C70.1311831766406 20.696474053340005, 69.93183747065102 33.06050281235199, 69.03219350169879 59.980129132089246 M69.9999919172059 59.95363817033708 C50.05121991972306 60.32524543975092, 27.41725011847212 59.98154806947954, 10.329370366205335 59.72431012588985 M70.75287700499568 60.00701998767455 C50.84166942877913 59.883814494992535, 30.27275117895133 59.35953489558937, 9.134382562633547 60.72868846002293 M10.730978828489008 61.670007114163354 C9.414761961311008 46.06825820044118, 11.688573128113198 34.63390993372162, 8.26903924914092 8.849878770599137 M9.830755953309247 60.31371369111402 C9.318436706538922 41.577470092318165, 10.641493657377383 22.82227876760772, 10.640080734699067 10.528887811471172" stroke="rgb(0, 0, 0)" stroke-width="1" fill="none"/></g><g><path d="M126.5558752448638 8.166942224229476 C154.7526040656567 8.259792298878507, 184.07912018828472 8.25544222503396, 206.21208375304687 11.758745153009514 M125.89864602378655 10.265172520358167 C147.77551321028065 9.531287991129942, 171.43679767383475 9.505020375469098, 207.7316460660815 9.139109352261189 M206.20839133220517 9.96371389689303 C206.66950910408875 19.30888570772793, 207.95936938276336 32.182867805102084, 209.65025235121425 60.551500583505316 M208.96406174999245 9.57441472964777 C208.86494401629727 26.951421627339656, 207.45035145771928 42.63758956872183, 208.8451164544356 60.61289466041966 M207.80055822011232 60.961807856530896 C182.20617054981534 59.52260446022807, 156.168969165356 58.43610183528811, 124.65831866769092 59.94785130333187 M207.75222832095707 60.66505033275219 C186.76124047556934 60.9107724017638, 163.81628019228796 60.22934419285039, 125.40303328654322 59.03809629954044 M124.00538871693512 61.561840285245935 C126.32586282706913 49.43482091061063, 127.62232026654156 35.398380220020364, 126.62136901564779 10.191827851091059 M125.62606231595271 59.62981597414263 C126.2567011582185 45.28424087424018, 125.95834516760226 31.26962292133851, 126.84325309659887 10.617514726068816" stroke="rgb(0, 0, 0)" stroke-width="1" fill="none"/></g><g><path d="M9.443807720842024 348.98356215892625 C59.370879725617975 352.8075609833403, 113.5156811281912 351.64427159692053, 174.53514462273895 351.46484199005954 M9.389132260086845 350.5112215772208 C43.17125409862617 350.7560241792534, 77.69297997646181 350.04590221009227, 176.74537888024818 350.2746413636144 M177.0587600709758 351.46379348590057 C174.2951916944451 400.8805127500492, 174.44249426269667 452.28261347626835, 176.31933836013917 573.9084776173343 M175.6701257776162 350.7826459815667 C176.56799546662592 410.3634768276021, 176.7097032836332 468.6720598096559, 176.3880807009466 575.6010368121632 M174.65116298885633 574.3413837076745 C113.28272882519627 576.8458107685186, 46.146559522872884 575.6805470109948, 8.410913633113378 576.5234421453454 M175.2558251343203 574.7228632782659 C139.9108148513712 573.9517225171238, 104.81622998999518 573.6606006615956, 9.397718810185438 575.0563528129484 M8.391521645494159 575.2083475886318 C11.201305079566408 492.83236080589904, 9.898504759631232 409.54577454774267, 9.084559315940172 348.6495368162796 M10.582061629189788 574.942634192635 C10.728060494612665 485.1807391259811, 10.413695891871336 396.38132769242014, 10.48111509674814 350.6541419311871" stroke="rgb(0, 0, 0)" stroke-width="1" fill="none"/></g><g><path d="M99.08598893566588 423.7384903188749 C125.34168887527794 424.78907262403476, 145.6110884223979 426.3603273887674, 157.85721853994255 423.7417558769492 M101.14993978328062 424.72118544789686 C119.22602908324183 424.39269854778064, 135.59536310979266 423.7310051071882, 158.69168267379442 425.1342503465503 M159.70930119186502 425.26133756949343 C160.24625056415746 437.1422179054433, 159.23511655400787 449.53578774247103, 159.10774680167063 474.2981556333091 M159.54173688280875 424.51327329420803 C158.5865102267744 442.7436753083486, 158.2687179800795 459.00637586741937, 159.15394999739735 474.6921902828482 M157.23761895037578 473.7819492481485 C141.53188581979998 474.9614447425397, 125.83334908553374 474.0248197569039, 99.65131485212827 475.27763200097104 M159.0465615138621 475.5425596299887 C142.71852016643876 475.65115410545394, 124.74724302404702 474.30193623914084, 101.84859674853142 474.7753657768764 M100.52055166864736 475.75767754779275 C101.43812615297523 461.06435736915637, 101.1420023924357 444.50912906414163, 100.94827966126256 425.39485149389515 M101.75054092076437 475.6033045833498 C101.42508375390476 455.018990020255, 100.23052510719074 437.12836726180007, 100.85537233931625 424.513003013206" stroke="rgb(0, 0, 0)" stroke-width="1" fill="none"/></g><text x="35" y="455" fill="rgb(0, 0, 0)" text-anchor="begin" font-family="Consolas, Courier" font-size="20px">a</text><text x="130" y="455" fill="rgb(150, 100, 28)" text-anchor="middle" font-family="Consolas, Courier" font-size="20px">id31</text><g><path d="M102.94351155716885 500.3933226471231 C115.85597035128077 501.6266903914787, 127.10860918900214 501.8119109852104, 157.46968111757863 501.68359191342455 M100.79280904273199 500.34658967770173 C123.53580411698522 499.6873272034534, 144.026047981007 500.0952062141502, 158.38852452653762 499.80895018472773 M160.7584579848544 500.44710801029277 C159.96452616137714 518.2974163897372, 158.75334000853286 534.0159874674572, 158.24054736798573 549.920973533191 M159.54396934446996 500.1796317297501 C158.20384215977953 509.93686982024354, 158.67873831739252 520.1343175262404, 159.65379829948057 550.0972867459475 M158.97235190253144 551.1577964386397 C144.32871253483816 550.4451673697992, 126.95872982571133 550.9738205590281, 100.20413867313047 551.819720289364 M158.97825098306436 550.4033641971421 C141.381151133355 550.0797589909545, 124.52291749822419 549.927227008349, 100.37180425591353 550.396037253425 M99.1905260502306 551.954500340683 C100.15528856231899 533.1925908001294, 100.95294264761188 515.3954773201186, 102.39400805538624 501.7494671963374 M100.43633083023278 550.8500614970765 C100.16288902735336 532.3318500203064, 101.753637946176 515.1289890710766, 100.51161786912843 499.2385914786605" stroke="rgb(0, 0, 0)" stroke-width="1" fill="none"/></g><text x="35" y="530" fill="rgb(0, 0, 0)" text-anchor="begin" font-family="Consolas, Courier" font-size="20px">b</text><text x="130" y="530" fill="rgb(150, 100, 28)" text-anchor="middle" font-family="Consolas, Courier" font-size="20px">id27</text><g><path d="M8.90643081472098 350.73117448965064 C50.55547197294195 349.25367468652985, 91.5830809903795 348.2003859242829, 116.59627126770975 349.85177030621384 M10.281601038977476 349.2000214767932 C51.28907659552349 349.85339759303423, 92.26468153687114 351.0747491554077, 115.87554774304243 349.9282071319448 M117.41178648553749 350.51806357968303 C116.51872278000333 365.6574565751923, 117.65730450788135 379.35576999742767, 117.82046803799201 400.3988425022159 M116.41627742600699 349.9305826890204 C115.33658539884476 362.55916490327843, 115.50259598235259 374.34308788116624, 115.15407733759706 399.3440487494079 M117.39286579561411 400.6499056134335 C87.90738008354998 400.52091210410316, 62.855538564420655 399.8781172207544, 8.23593949771425 400.61732663294566 M116.82410441134633 399.3255460471715 C83.02467350716596 400.9853889384573, 52.385668020358786 400.27755654290274, 9.627316347673133 400.7759305918771 M11.173535049229143 401.0463374467475 C9.417523898502512 384.3904098187052, 10.297890799314647 373.1114198097229, 9.55864181845336 351.0562050200793 M10.10478768875427 400.07158971474956 C10.559740362516736 385.4219585408102, 10.091454878879196 371.6132532688518, 9.677031725927453 349.148255421903" stroke="rgb(0, 0, 0)" stroke-width="1" fill="none"/></g><text x="63" y="380" fill="rgb(0, 0, 0)" text-anchor="middle" font-family="Consolas, Courier" font-size="20px">__main__</text><g><path d="M9.823250991675947 601.3707428506607 C110.64465263532621 598.3850796015773, 212.67985196388088 599.9834097421493, 293.48453200893465 599.6818767041078 M10.639815367737611 600.6761734942521 C107.61752988343649 599.5243856331867, 205.87624405989578 599.6414322619477, 292.16961061434137 600.0658672386653 M292.3562463855026 600.6154441534305 C293.60257530234014 624.4704904552497, 293.0224454266583 651.2161620735543, 292.8008566440925 731.8483483088694 M292.37697747184694 600.3346911609775 C293.4765705698555 634.2975323974447, 292.6820087802521 667.516443269924, 291.6171791619674 730.360200609858 M291.23242357644756 730.4859514991991 C232.499315572746 728.804999228712, 173.65205284931406 729.5449072797247, 8.944893171201869 730.9647160646055 M291.9798797187058 729.424453228912 C231.26971412559428 731.1498593128338, 170.70466759694844 731.5484884264829, 10.375779362455761 730.5594119577311 M11.398805438450115 731.9211547882662 C10.130682239642464 690.7540318042479, 10.185998157590124 648.2720551736214, 9.946030986989221 601.3982929027578 M10.605336418968335 730.9166531447428 C8.975269816084824 701.7405965066293, 8.796140628319286 673.354120089101, 9.91779981997271 599.5620396838032" stroke="rgb(0, 0, 0)" stroke-width="1" fill="none"/></g><g><path d="M34.28268064314916 666.0664045944351 C47.709365092785475 663.6293798084339, 57.027855917657966 664.8208399629444, 93.84874093941592 665.3278848956442 M34.728192828476615 664.9540629934384 C47.866217546749894 664.5521981785088, 60.46382808718256 664.8549192748537, 93.38792882183705 664.2986196606396 M94.28539427895092 666.9296352986629 C92.84636300137645 679.795437780409, 91.73310560481052 698.1461976137997, 93.57023528470275 714.3612081936664 M92.48374708598125 664.2928220385004 C93.53468584839123 679.2807456705842, 93.96059503683448 694.2127796058152, 92.44468893322417 714.5735976888972 M94.86249346816848 713.4644526219482 C73.52004300257067 714.054456063653, 51.82654128165267 714.3083709890067, 33.80734516862974 715.1066545639824 M92.97472685474615 715.808833535344 C78.8199867951138 714.49358484496, 63.398296428046216 713.9426985123058, 34.69447263507813 714.362865054477 M34.01107090125932 714.2239471647353 C34.41501440695028 704.3476787485918, 35.87170158603681 692.8391865141291, 33.89928608590145 664.1800386687007 M34.51207917290962 715.4392534777473 C36.076139497183526 699.7861287846797, 36.0392371759907 683.4875857044084, 35.760601545797684 664.2133061509145" stroke="rgb(0, 0, 0)" stroke-width="1" fill="none"/></g><text x="64" y="695" fill="rgb(150, 100, 28)" text-anchor="middle" font-family="Consolas, Courier" font-size="20px">id19</text><g><path d="M92.36349295587338 664.9871376096005 C106.53892367475666 664.6590430598426, 118.19809751530939 663.4952369915923, 152.77384148623898 665.7683851414519 M92.64249047714975 665.5210218783923 C112.41004306950754 663.9205449917944, 133.64272861933262 665.0587118012598, 150.90783336644057 665.9541039850565 M152.77351899082518 663.9017692858461 C150.34411428202557 683.2334925471421, 150.643726391481 701.0666544058189, 152.01478663548335 716.7326294728742 M150.3991328571472 664.7209888791878 C151.60284427142912 677.5783715679586, 151.35452598745192 691.7096557859633, 151.97718761808977 715.352702853703 M151.69280256540566 714.3279887845703 C134.88747969495589 716.1610295927471, 120.13270086303963 717.1218428766057, 93.8844372006547 716.1127221677801 M150.21128846746885 715.688744377546 C135.30782670762596 714.8527733857454, 120.1247961862458 714.2066160686821, 92.9804900415797 714.551255981192 M94.91010894437314 715.3405835667044 C92.21176438684138 703.4540325360222, 94.41394996098664 693.5843080296457, 93.03580507108818 664.2432437306032 M93.0019971431549 715.4134730673159 C92.35100777279636 697.894210058214, 92.21599081473833 682.2446190725794, 92.98395895905325 664.9134330107097" stroke="rgb(0, 0, 0)" stroke-width="1" fill="none"/></g><text x="122" y="695" fill="rgb(150, 100, 28)" text-anchor="middle" font-family="Consolas, Courier" font-size="20px">id43</text><g><path d="M150.6492387891236 663.4077380700563 C166.5575995145901 663.901537417847, 185.48882167549868 663.8417448181989, 208.98704902414735 664.8575569465235 M151.12150626143566 665.4953478222401 C168.13537613248485 665.7285356454397, 185.35321463459852 664.650476872173, 208.99164447292716 665.3413821642039 M210.85405122156683 665.8458307661655 C209.78684543894224 677.7567059508623, 207.31834190089643 690.836486353973, 208.6225418206582 716.3175981686101 M209.458202102146 664.2136506216146 C209.22704157960115 677.7933030366747, 208.28536761083092 689.8388309938009, 208.22565046963618 715.6754897330557 M209.46795935573599 714.4828860663099 C191.20110012617556 716.3504380148235, 173.17394488675694 714.4031162069962, 151.9580794225222 716.5510063601522 M208.42857499132992 715.9047568125748 C187.3416167291688 715.0622712135341, 163.64661988368974 715.5844318527974, 150.2189015483234 715.7673502972448 M152.56155470081347 715.3175797139335 C149.95237968399084 698.9954645323335, 151.6746992410635 682.2479578829094, 150.70971099380986 666.726054190071 M151.16837528740282 715.4115831356376 C151.0144269042449 702.173130268954, 150.371016645018 689.1813935617703, 150.385919589636 664.7552517430078" stroke="rgb(0, 0, 0)" stroke-width="1" fill="none"/></g><text x="180" y="695" fill="rgb(150, 100, 28)" text-anchor="middle" font-family="Consolas, Courier" font-size="20px">id28</text><g><path d="M207.82452412642093 664.3191218524482 C227.05495116818867 664.2605172788811, 248.6169086208171 665.4803372443641, 266.7248340399845 666.1146832679846 M209.6672803635578 664.704289228897 C229.75024002508977 665.0879828341075, 249.5985459624792 664.7750914123515, 267.22335560220614 664.4004382660961 M266.8355674982357 666.6531045980701 C267.0411836833843 676.6096047735997, 265.93840082226706 686.7125186004265, 267.85097861719373 714.5167512248667 M266.31976234182923 664.1778209583293 C267.1653815445764 683.9887998686282, 267.44306093000364 704.7476595687842, 267.90230749062897 715.3576547077494 M267.20824264387653 716.0838296799925 C252.10990944715098 717.1316776624429, 241.43146724166536 717.0273154298355, 209.2402037548515 716.3163279252218 M267.8281335255226 714.4566046510495 C254.366471484338 715.3462838766045, 242.038567634204 714.9414564040953, 209.96079145851314 715.94617307637 M207.15527719444935 715.6255474269581 C210.71644200857003 699.2174679243599, 209.96403624581336 684.52021291225, 207.8558319146114 664.2987129121886 M209.26216102440415 714.8584434028412 C208.14757021419283 704.5092505060019, 207.97104771656515 692.4895648158555, 209.935108526038 664.690887939637" stroke="rgb(0, 0, 0)" stroke-width="1" fill="none"/></g><text x="238" y="695" fill="rgb(150, 100, 28)" text-anchor="middle" font-family="Consolas, Courier" font-size="20px">id49</text><text x="40" y="630" fill="rgb(150, 100, 28)" text-anchor="middle" font-family="Consolas, Courier" font-size="20px">id82</text><text x="262" y="630" fill="rgb(27, 14, 139)" text-anchor="middle" font-family="Consolas, Courier" font-size="20px">list</text><g><path d="M9.499323152301601 599.2265444976256 C24.66175290021967 599.9007455214405, 37.98110928215557 598.44927204827, 71.4721529970505 598.6983976192635 M9.8687149295904 600.8368462910165 C25.776868781633546 599.7324128331284, 40.93731074147329 600.5971042982998, 69.53341052409384 599.1911201466114 M70.87331355208781 601.6627022567192 C71.95551600636725 615.9758292151291, 69.70875802702824 634.5397907279549, 68.92095290830451 650.2227768793557 M70.42492652025349 599.7129777733923 C69.83467297319962 618.4473221770733, 70.27453416186526 637.6961557682979, 70.61793606499288 650.631961123106 M71.27944605038321 649.1845031457862 C55.89750590406754 650.5249819695111, 42.80721401275063 648.8084235200307, 11.315147790170368 651.580667228121 M69.20814017377427 650.1665216494488 C55.061800218592566 651.1755256178745, 41.44338375671727 650.8692797861696, 9.746379066132452 649.3787669809218 M11.217307439735974 649.3354050470075 C10.29228038794436 640.2392462600126, 8.010214985955017 629.5873817384596, 10.128125629103511 598.0530237653322 M10.187688602900838 650.6740307760004 C9.863607285634927 632.342100352241, 10.663209231210665 615.0447077481109, 10.891042608553931 599.3249616886827" stroke="rgb(0, 0, 0)" stroke-width="1" fill="none"/></g><g><path d="M232.77391620521115 599.306626911703 C251.75103148879197 601.5080336823216, 275.3194230780752 598.9338908948488, 291.5365713102166 599.4043824146763 M232.77106173834017 599.5307389486959 C244.90745381152124 600.2252047990376, 258.57991529232885 600.1679877788574, 291.11097167636126 599.7215715914349 M290.10995343013224 598.1467491418214 C292.3637843224571 611.3584851372821, 291.19576654198596 625.5864847043163, 292.6221498063833 648.3319119961811 M291.099816893343 600.35238557355 C291.8996282848993 612.848862391032, 293.18214014479963 623.50253878106, 292.3413885398806 649.8412687529268 M292.46991147606036 649.6234725731971 C279.1226879367237 648.8858633573832, 263.50774982162585 648.0112700978997, 231.13325395557746 651.0973723395484 M292.2501413590642 649.7976704098602 C279.34816223556817 650.8606790644429, 265.89691472276024 649.607445691302, 231.59753285304177 650.414603232466 M232.27864860460687 648.057011409129 C230.6676467280629 628.2738674786178, 229.88010987478756 608.4506230528054, 230.23055797604795 599.0684386765469 M232.08511922371753 650.2425824325277 C231.92886384042478 631.9113331191305, 232.84810578616802 611.7323795959145, 231.02101791024748 599.8543475564072" stroke="rgb(0, 0, 0)" stroke-width="1" fill="none"/></g><g><path d="M349.50982462829876 10.707005379931346 C416.5508224786723 10.369889960934781, 480.5570028035782 11.246329518678031, 632.1395253151194 9.709744010085608 M349.2454745933353 10.13228169665533 C430.8366252913257 9.109203233120308, 512.6365972088656 8.90353578409229, 632.2680923450288 10.174071568990628 M631.4368604434767 10.532486344191069 C632.2836869296457 54.93468784770341, 631.5957779109305 96.10835113916438, 631.4996097468558 159.09576728984794 M631.099582797974 9.757403015079058 C632.4172044663402 44.960193828691146, 632.6802977033192 77.66392438064257, 632.4176225863316 159.87935872762256 M632.9537165880524 161.16363928954098 C563.0865801584334 162.09620590796146, 498.0352103482594 161.08005775360255, 348.9008248869164 159.2376421894495 M632.040224467978 160.3135510674543 C549.0325454303025 158.5653374889584, 466.42556747473157 158.27173150646303, 350.674401621323 160.27444079087454 M349.1424508614335 158.59768173268245 C348.7552308950207 103.29328014445012, 350.916355207826 48.635612744859415, 348.3794105904337 11.732987328923771 M349.51371782215756 160.02137187419618 C351.80045685205084 113.22445182806011, 351.5426794727203 66.72980475862371, 350.5591558050536 9.10518950659532" stroke="rgb(0, 0, 0)" stroke-width="1" fill="none"/></g><g><path d="M376.5140438804198 95.65434272606939 C391.5461498824394 96.23850732079973, 404.6445513391165 93.30453257470494, 434.2586592583525 96.53962908787604 M375.98391041183584 95.34000806663417 C389.75322802638993 94.79700273275063, 405.94395144221454 94.23836625637921, 432.439447860246 95.60689876035501 M431.40628266484407 93.72983808186899 C431.8073308932397 106.55146232887414, 434.16267287781847 116.36834994607365, 433.7051503363873 145.84556314651152 M433.0144550889506 95.2154317617108 C432.6254480442179 108.68930820818271, 434.26018031274833 122.68111986658812, 432.5580922460021 145.29978915825973 M434.98668442847077 145.8467514963363 C411.5761352822998 145.76331162077142, 391.275094255712 146.67756675461038, 376.8043405531112 146.4195046322346 M433.67110490791356 144.32650400140318 C411.7445831286041 145.78204185021485, 391.17527488523484 145.8712811720069, 375.70860383853056 144.25278122730003 M375.9209679586858 144.1770922772447 C374.9074415546158 126.22431890656584, 373.1098171459125 107.90156610532392, 374.736036204974 94.3618844630314 M375.2211134385181 145.14553670332648 C375.9870385390412 129.81345673043847, 375.32393102399595 115.7293992864599, 375.32545190041606 94.27744951346865" stroke="rgb(0, 0, 0)" stroke-width="1" fill="none"/></g><text x="404" y="125" fill="rgb(150, 100, 28)" text-anchor="middle" font-family="Consolas, Courier" font-size="20px">id32</text><text x="404" y="82.5" fill="rgb(0, 0, 0)" text-anchor="middle" font-family="Consolas, Courier" font-size="20px">0</text><g><path d="M434.01286993044107 93.78616309797309 C444.44546288943474 94.47275855818451, 460.114782216285 95.38408295775022, 492.944301933656 96.70364738461832 M432.7066208246563 95.95145926235291 C455.148150085454 95.66090235881933, 477.9246160258116 94.53969199786074, 490.3237095380453 95.84859149111905 M489.60448016928694 96.25376974147791 C492.7276295027234 104.31603345361962, 490.7387834849879 117.68569410514316, 492.0560428917166 144.2046915834196 M491.59461718257205 94.64789942974832 C490.98940770948843 108.04239829610584, 491.5927875415008 123.8128087833915, 491.4238809903141 144.0201695739989 M491.7364926581091 145.58655581045474 C470.98682473404114 143.78127534306984, 451.9878643113888 146.96492830151672, 433.48747083857097 146.39074595815669 M491.2264299882118 144.97281914471526 C474.5294910900642 145.85448128732696, 457.18930095468255 146.2403769151653, 432.9494508657451 144.3557142598871 M434.89661530266073 145.99211914138826 C432.78635063242035 132.61234721255056, 434.3729993835765 119.54536183011693, 431.821578959717 95.96739891418974 M432.775253904905 145.81316760553216 C433.94564376256534 131.66989340254045, 433.18934156043366 119.1864135484238, 433.9263196142321 94.37798102982237" stroke="rgb(0, 0, 0)" stroke-width="1" fill="none"/></g><text x="462" y="125" fill="rgb(150, 100, 28)" text-anchor="middle" font-family="Consolas, Courier" font-size="20px">id10</text><text x="462" y="82.5" fill="rgb(0, 0, 0)" text-anchor="middle" font-family="Consolas, Courier" font-size="20px">1</text><g><path d="M492.15336867685096 96.42973965998787 C506.7098427995817 96.57744451496501, 520.7886997434819 96.34610871465253, 550.9692022195541 96.58003272658637 M491.5009583483148 95.08840400565035 C511.53245612134066 96.34623002208173, 533.897542432624 95.67301949536413, 548.4285613100104 95.4905882136921 M549.4602161458209 96.71967082735829 C547.5708222960054 110.02136214331288, 548.4794382948792 127.09439133994167, 547.138726021788 143.76490017802965 M549.484952318049 94.11127743952457 C548.7694474264599 110.8295716862989, 548.6822594625107 128.46398429351322, 549.8699342063791 144.84177932428878 M549.002352051595 143.95227697767098 C532.0240179910894 146.28941821040667, 509.97451074278075 142.7249001179492, 491.74123321510365 145.29181110039002 M548.5537748034601 145.35839467014668 C533.9079249843951 146.33976619344543, 517.1471131723612 144.59958521782465, 490.70848043117013 144.3898521548266 M490.9129541785349 144.24561344136166 C490.8919079986797 127.37884247829919, 491.8693275470275 111.99245404940959, 489.4835731070048 94.52494216224856 M491.39192214941454 145.90749822348067 C490.4324805220371 132.10694373712644, 490.65294818487666 119.16188102324068, 490.14657654044765 94.81613177922844" stroke="rgb(0, 0, 0)" stroke-width="1" fill="none"/></g><text x="520" y="125" fill="rgb(150, 100, 28)" text-anchor="middle" font-family="Consolas, Courier" font-size="20px">id90</text><text x="520" y="82.5" fill="rgb(0, 0, 0)" text-anchor="middle" font-family="Consolas, Courier" font-size="20px">2</text><g><path d="M550.4821408720435 94.60865122694035 C563.3691733541602 93.96126529003035, 580.1426190964044 94.89303083008357, 606.0680925112005 96.66501340232915 M549.4366167967161 95.61780042762138 C564.1650147328376 95.02315327138457, 576.8954236547956 95.58366052536064, 606.9789568241536 94.59666534841264 M608.4893465106305 95.85487987464694 C605.2709414640128 114.83589901667862, 606.3392616444137 133.83262229339687, 607.638021306091 143.80381234532257 M606.1870025014322 95.36517541320899 C606.7067442578568 110.56946918857662, 607.2444760346888 126.04966659284857, 607.2446781397618 145.9072441593292 M606.0804040812227 146.63477957153364 C591.6205399242359 144.47807409036722, 579.1513770973497 143.09046965873705, 547.6415335220744 145.52964522062538 M606.6138664088262 145.91648882901734 C594.333092650711 145.65824272728437, 582.1982566960489 145.30355636377547, 549.9008291188898 144.56719304723185 M549.9940605487553 143.46298531365872 C548.4573226044886 127.29678051289925, 548.1298111650077 109.62580878968012, 547.8983256872723 95.93220396611379 M548.8360368292872 144.17207743118598 C549.17712498884 128.94390712283163, 549.9447463641891 113.95955779894129, 549.1208248521293 94.21725626152681" stroke="rgb(0, 0, 0)" stroke-width="1" fill="none"/></g><text x="578" y="125" fill="rgb(150, 100, 28)" text-anchor="middle" font-family="Consolas, Courier" font-size="20px">id57</text><text x="578" y="82.5" fill="rgb(0, 0, 0)" text-anchor="middle" font-family="Consolas, Courier" font-size="20px">3</text><text x="380" y="40" fill="rgb(150, 100, 28)" text-anchor="middle" font-family="Consolas, Courier" font-size="20px">id82</text><text x="602" y="40" fill="rgb(27, 14, 139)" text-anchor="middle" font-family="Consolas, Courier" font-size="20px">list</text><g><path d="M348.9391567702783 11.162355285546251 C365.94517888071385 9.849505152461163, 382.2492023852692 9.637964691632963, 410.51224052820606 9.620580469795808 M350.9315955006288 10.815770731814823 C366.548882020037 10.602003752280897, 384.2122807338015 10.558276413929544, 410.14869615975414 10.169532712159748 M410.85053831917463 8.843976979213824 C409.8480569195705 24.59661102345953, 408.8135468645691 35.85873715876941, 408.75493480774924 61.97346769806627 M410.21210013720747 9.571066559827816 C409.8821270696311 24.92142236005546, 409.9159405037642 39.02609620349935, 410.7674301441593 59.68610243869854 M409.7602723015646 61.57616868482892 C393.8347011062715 60.449236797967686, 381.1051415436896 61.085310520134676, 351.5628433021858 59.62546832501874 M409.8299386559079 59.10106197255904 C388.96171783794136 59.66954948177783, 367.12680747711295 60.76102715744864, 350.6075205651888 59.85732986865141 M351.22815215339784 58.04811062117298 C349.95904176305163 47.71748536733554, 350.2303635681403 30.312473949815445, 348.5391849215998 10.704114784274324 M350.65335522712775 60.07141585482082 C350.6645801017145 44.41903600039351, 351.0095478319011 30.280417237546466, 350.8170643474117 9.82804059161278" stroke="rgb(0, 0, 0)" stroke-width="1" fill="none"/></g><g><path d="M572.9468485731888 9.949395999842686 C593.7842546518829 11.434312355898438, 615.3272810390027 11.283590922323274, 632.9487524164659 11.211211083410493 M572.0150442971359 10.874897647960712 C588.2576889670571 9.50154712891248, 603.5704716722391 10.364262508842272, 631.151123468257 10.542007255317335 M630.3896301195655 9.951705383012795 C633.1011047918804 24.743341866812234, 633.0844563005425 39.07005946106606, 631.3888757393245 59.37766362731213 M632.6660484718731 9.376883151752512 C632.6418334700053 28.9081710221233, 632.3050098909558 47.33862354183773, 632.5672499439016 60.83629654853358 M633.1711927433855 58.73409978128287 C617.4291699661734 61.239182187410535, 599.6628721346128 62.05675453252013, 572.4144777188321 60.723073383935564 M632.9130248919602 59.47212426697132 C616.0789628673026 59.77583846503108, 600.0048657846778 60.64825704866234, 572.079899338808 59.88719729922108 M571.1005272317234 61.8409325130908 C573.2671005873556 43.04966499272683, 572.2385635940932 29.144664402447887, 570.1915203835686 11.726615044504154 M572.2350641412318 60.95367485400374 C572.6556197449885 48.74690448138003, 571.8576295962027 39.1332878102404, 571.0140381254278 9.473670604621592" stroke="rgb(0, 0, 0)" stroke-width="1" fill="none"/></g></svg>