<svg width="1300" height="912" xmlns="http://www.w3.org/2000/svg"><g><path d="M78.02553729321029 49.73589650141121 C148.5130675166979 50.05636967686057, 217.73491299270427 48.84894812308972, 276.86274566876364 50.3331007201995 M79.45213823551569 50.61611634803145 C149.7499642983101 48.78486622806579, 222.40311081661173 49.44212630759665, 277.5973944870421 49.22793673107421 M277.0685646346577 50.24793131538245 C277.3289453072897 217.87424686024445, 277.76402488786124 386.81791859993007, 278.0631574103055 499.9906798722857 M278.3545806925575 50.45666960699426 C279.52900596500217 146.4232192865308, 279.3340165724304 242.06430744872148, 277.98536485065097 500.3021962599239 M279.4036225111354 501.89881703163303 C223.58865347493943 498.2974770064276, 169.21360441396126 498.23723121962723, 81.94554522535589 500.5147022526086 M278.6045457461718 500.7056363093023 C204.29342598457092 498.0421704009878, 129.2656322187246 498.2340579373958, 79.1313821984578 500.9537726981614 M80.7518938401201 500.43344884069995 C78.91012232122824 375.2406581457691, 79.10485487435616 249.59998771726137, 80.59239185057446 50.374227277616654 M80.07031942376567 499.83154624583267 C81.52402975518622 342.93597595286434, 81.40580155931602 185.1414028234375, 79.94978793681474 50.13325554686956" stroke="#000" stroke-width="1" fill="none"/></g><g><path d="M201.12976490921614 123.97001626387701 C221.58569940612483 123.25348204796461, 244.52076626956435 123.1955208775833, 259.7728856842585 124.09948368808196 M203.5075304589272 124.58940250908503 C224.19315078477877 123.91072227022094, 244.6373083129627 124.22011289137983, 261.6141995897682 124.44283621301754 M259.2875916942104 126.2100729358903 C261.5974469977552 142.47195849404295, 261.3635022605414 155.79802010149825, 261.81786921182476 174.423397043093 M261.17560318305647 125.93323011986529 C261.34198936999485 144.0312145490418, 261.43989946921056 164.0657446849506, 260.01620418634786 175.96755368106446 M260.2365252170874 176.53940114941415 C245.9120426869652 177.05010044900555, 230.6929776807606 176.20854292222, 203.89622693575348 176.42137987884067 M261.42446184518855 174.72613462627606 C241.9320900322944 175.95625810788349, 222.22000609156106 176.01803975721026, 203.55369307882924 175.252035503406 M202.7826606498723 173.88459868684694 C203.31340333492471 155.52617843207463, 204.58911787453718 137.97767851466756, 203.87858435879653 123.33210325819735 M203.03422758458208 175.4804297769764 C201.69652809765435 159.52528383586304, 202.40801774146396 143.99147233808344, 202.08389720116975 124.22086861495097" stroke="rgb(0, 0, 0)" stroke-width="1" fill="none"/></g><text fill="rgb(0, 0, 0)" text-anchor="begin" font-family="Consolas, Courier" font-size="20" x="105" y="155">lst1</text><text fill="rgb(150, 100, 28)" text-anchor="middle" font-family="Consolas, Courier" font-size="20" x="232" y="155">id82</text><g><path d="M201.30758767991298 198.7430085688019 C217.56797863144544 200.0050325450849, 234.67013103553228 201.05126266689913, 261.7679954151718 201.46381220477704 M202.9644242856215 199.5579077360057 C217.56465948683666 200.26185675580996, 232.66190255582944 200.6714396268395, 260.08620387230656 200.03309355138524 M262.6396768575112 199.71628830917632 C259.27501643238054 218.51189289887938, 262.4779423405447 233.96435323402338, 259.8795812860504 250.9217647386109 M261.42367633552806 199.8257980296324 C261.2806846029506 216.96666728917145, 261.9876501563745 233.7082896943623, 260.723066404389 250.94274102007094 M261.12950813441734 248.7401853184555 C243.91059326764736 251.44798103896863, 225.99348642247568 249.06020940720916, 203.19812267288737 250.9350886426934 M261.8000349031764 250.757720344841 C240.41815171634738 249.6886051705462, 217.95807194043448 249.6471460905364, 203.12837074997177 249.24849201109723 M204.02414983993376 251.52316308152163 C201.13013516561986 236.7084259627543, 204.89573788404496 222.06906984022234, 203.01221089098956 201.10733802031254 M202.7318671673974 249.1666491691574 C203.6394826385634 235.40257694832903, 203.1572185321991 221.1651315079949, 202.23509051616244 199.8936803431239" stroke="rgb(0, 0, 0)" stroke-width="1" fill="none"/></g><text fill="rgb(0, 0, 0)" text-anchor="begin" font-family="Consolas, Courier" font-size="20" x="105" y="230">lst2</text><text fill="rgb(150, 100, 28)" text-anchor="middle" font-family="Consolas, Courier" font-size="20" x="232" y="230">id84</text><g><path d="M204.17420871157424 275.8255274583079 C220.00251636051664 274.1233179033825, 241.255726518769 276.3487479848035, 260.90512708201555 274.34522144693454 M202.44558572683553 275.7260581089413 C220.946499518261 274.0973041698704, 238.9965025718721 275.87628605639884, 261.5600359407496 274.53974520201643 M261.5421400971552 275.0538377621109 C259.82267378886854 289.1136958609205, 261.36059285456747 302.70215259860225, 260.4933979515529 325.1283081401409 M261.24744295050647 275.5948765285025 C260.44932828217 286.10141098176666, 260.2794309437849 295.88212142509724, 260.492073716388 324.0926441073527 M261.7129128000422 325.82987342167064 C247.89932624379284 325.51149089941174, 237.57730792375236 324.13125236474826, 203.98355017143552 325.69881876168466 M261.92945725166464 324.4955423847935 C240.4656166186732 325.16369012973996, 219.81570011352858 326.13451475118177, 202.25450259094282 325.9021094275277 M204.70530290627548 323.3319510607903 C202.40632320012847 314.2491152043169, 203.27217628155495 299.5099358521111, 203.10180957895616 274.4901308677094 M202.5934658274364 324.0991292316431 C202.70298537823805 312.80206158040806, 202.93206110592524 299.428821188702, 202.16736956662743 274.02665222188847" stroke="rgb(0, 0, 0)" stroke-width="1" fill="none"/></g><text fill="rgb(0, 0, 0)" text-anchor="begin" font-family="Consolas, Courier" font-size="20" x="105" y="305">p</text><text fill="rgb(150, 100, 28)" text-anchor="middle" font-family="Consolas, Courier" font-size="20" x="232" y="305">id99</text><g><path d="M202.54802982893563 349.7241561620129 C217.81313503044433 349.9072890327454, 235.73607772901585 351.5618248015422, 259.0339170511602 349.7115094856353 M203.79519789614972 350.0517077278189 C216.5682812515561 350.29116913546306, 228.68577327064065 349.21948817906764, 261.14404368972936 349.4466875938468 M260.54332411717706 350.7834917542909 C261.48734411266366 365.7751301735755, 260.6244861000117 386.40406269111065, 259.2673624528309 401.38869485960555 M260.6187685481495 350.3494896007529 C259.94866550437735 364.50583267510876, 260.4841313162552 380.29650691436956, 260.20822273704096 399.62525258651925 M260.8744227978467 401.57161652696135 C243.33447711687836 398.13038065189943, 228.41001499402705 401.41710032256793, 201.90298162687853 398.77561186771 M261.29381724656326 400.77597882946174 C246.79096620847312 400.7438258383986, 234.16970651960784 399.52850571126555, 203.4486646714058 400.134863495366 M203.47305085197152 398.90241864389736 C202.33656960519826 386.6052779163478, 201.8427117322406 372.99171299066387, 201.0256121881807 349.89469951659004 M202.72828191646863 400.9703510228522 C202.14008693155523 380.2754909676454, 203.30105598048027 360.32440912528756, 203.0693550233929 350.3376767706786" stroke="rgb(0, 0, 0)" stroke-width="1" fill="none"/></g><text fill="rgb(0, 0, 0)" text-anchor="begin" font-family="Consolas, Courier" font-size="20" x="105" y="380">d</text><text fill="rgb(150, 100, 28)" text-anchor="middle" font-family="Consolas, Courier" font-size="20" x="232" y="380">id10</text><g><path d="M203.68897680869898 423.4779202665423 C224.12759007188484 424.15219079212255, 245.82552291276653 422.7287259851084, 262.32653499392654 426.7556825409854 M202.28655830811675 425.50682657216703 C217.8439983943743 426.0756793081984, 235.07602119420253 424.65608023355674, 261.39632018407025 424.5652160099735 M259.1796607763596 426.2615508191227 C262.6438625966688 434.5350253376943, 262.00190021230384 448.4109210747494, 261.324115172141 476.98269537952064 M260.90455404601505 424.69964685905836 C261.5086415465263 435.4447178705837, 261.65472937523606 445.0852659267019, 260.70006168735864 475.5184735440436 M262.91931416919846 473.51631515955603 C242.81840189555763 474.36427938280826, 220.13275408810827 475.83522913209265, 204.43006342253452 475.5278662622808 M261.1895839992149 474.1610624701328 C241.7601018134793 475.8816054770726, 222.7368430922539 475.5713483087531, 203.0592901674591 474.8950949248247 M201.84527005714995 475.6119837389117 C204.64556914184627 460.5210991490047, 203.92045633377515 441.44327694892786, 202.545819169284 424.2004958183544 M202.17187654004317 475.0720167446632 C202.9373170698987 460.5596320570608, 202.0500781667378 446.84285322047253, 203.42588509463974 425.98885018318146" stroke="rgb(0, 0, 0)" stroke-width="1" fill="none"/></g><text fill="rgb(0, 0, 0)" text-anchor="begin" font-family="Consolas, Courier" font-size="20" x="105" y="455">t</text><text fill="rgb(150, 100, 28)" text-anchor="middle" font-family="Consolas, Courier" font-size="20" x="232" y="455">id11</text><g><path d="M80.78639153237626 51.98956773495533 C121.09032560044366 49.15631273227841, 159.4141403742691 48.69713718046129, 187.2098763073094 51.07098115030819 M79.34950706988785 50.18068660862568 C109.06358916150329 51.32179726868836, 137.1958545934193 51.17691233158067, 185.0441752694934 49.98829812521121 M186.6135624534178 50.38136578799327 C186.71630912955456 68.60351155019585, 186.38769154815262 84.79599688719867, 186.19133672595163 99.37644810174498 M185.79306073033703 50.090323289346266 C185.32370363733045 68.24742680224546, 185.9393224901497 84.79013462662984, 186.67467721900854 99.05756710626127 M186.50420606424223 101.13024892001951 C166.29330739471365 99.1087291035224, 143.3882897090444 100.17477825197052, 81.38360825502595 98.53958773616766 M185.66318810789747 99.8292056020237 C157.7692521812274 98.84444225698302, 129.84438182091165 100.00024963539401, 80.9826940801372 100.21813148881135 M81.41221019333238 101.77715053379127 C79.3807060153483 82.7351325002093, 78.22550610355344 62.70283414664565, 79.09727728179213 49.83215488647572 M79.05030745719202 99.87031918999338 C78.87902737851127 81.74995194092895, 80.49752971352271 62.709699951760214, 80.48832297179595 49.8904439172412" stroke="#000" stroke-width="1" fill="none"/></g><text fill="rgb(0, 0, 0)" text-anchor="middle" font-family="Consolas, Courier" font-size="20" x="133" y="80">__main__</text><g><path d="M80.2614138159459 501.07739687770606 C120.39345323344254 499.9842777555817, 165.05874665753998 501.43456862647326, 277.5355279741221 500.66806668961937 M80.0715880770066 500.785479905013 C152.26121440753332 498.0722975671554, 222.47040499928306 499.3082318720607, 278.57164287696287 499.25903489246747 M278.99498016046647 499.02576666003336 C277.3402825624742 570.069856941138, 275.95799759574766 639.9880079982837, 277.6914724198615 726.2677571090888 M278.1974573386985 500.32834189792607 C279.13444492163154 578.5474088309738, 279.3607509433392 658.8503609395575, 278.1041887709736 724.268182994151 M278.1575757798892 723.5897468517906 C203.25059350160436 726.1225285653959, 127.91923574399185 722.9909525032643, 79.9003171891 725.2750005454325 M278.8782506621465 724.1061444563612 C214.37614385073368 726.136681104873, 153.0720965611274 727.4247275078801, 80.29780807167391 725.9328261928702 M80.2268384380378 726.1235658650676 C80.53697249858372 634.760290662251, 80.53425973401774 546.5620039610329, 81.26824840138674 499.4520643777814 M80.11394170511385 724.4538615384298 C78.69704263191214 648.8883907984355, 77.9247498995129 573.6509672623251, 80.3429528578657 500.3232488290223" stroke="#000" stroke-width="1" fill="none"/></g><g><path d="M203.98145676062464 574.2959799489096 C219.24927056200468 575.8275252041915, 237.3406336364279 574.8057937542434, 260.00596929539887 576.1790222487863 M203.7988139967681 574.2522903224815 C223.90224242620602 574.5116496997886, 246.86579481903797 574.0745157739019, 260.5774833423897 574.8066101389671 M260.0843667012751 575.9249587637152 C261.7099301458389 588.1782059150538, 260.5556029759857 604.5981491134175, 261.0016220056815 623.2843460479002 M261.412969140976 574.980574298234 C260.5508777224344 588.8110276497579, 261.24193464655735 600.8560887222243, 260.1137681828172 624.5551391630734 M260.0303382905318 624.610539806902 C245.96481527972654 626.0584371647385, 232.086190460724 625.712210869816, 204.61532581903504 623.2291203146673 M261.5025481678231 625.4593177934792 C238.9105585917131 624.6712308686158, 216.29052500459983 624.4096413980105, 203.84123929862204 624.0320509916081 M201.44680275039195 625.7266288268104 C200.92812862860075 608.8640664057557, 202.12398392514473 593.5396881527096, 203.91465921969365 573.7497959751898 M202.67107236773955 625.1423882303538 C202.70147493189154 608.9638052183614, 203.1223162703374 590.7207308365086, 202.87139197692886 575.8333124293283" stroke="rgb(0, 0, 0)" stroke-width="1" fill="none"/></g><text fill="rgb(0, 0, 0)" text-anchor="begin" font-family="Consolas, Courier" font-size="20" x="105" y="605">age</text><text fill="rgb(150, 100, 28)" text-anchor="middle" font-family="Consolas, Courier" font-size="20" x="232" y="605">id12</text><g><path d="M202.6694114895118 649.6917457580106 C220.07133806642446 650.8777113025612, 237.23490168848463 651.3841081584901, 259.38755218763015 651.3549738930432 M202.71148578208823 649.397300241039 C225.0665872564576 650.5253087054306, 248.77179271007464 649.2480728514541, 260.34392675838984 650.3692409177403 M259.02251437312674 650.0565992341808 C260.34054983916684 668.8815816117232, 262.5486683903872 688.4828850362287, 261.5904710712675 699.5356431857075 M261.1798391942792 650.9565751282996 C260.69480634531135 661.7011052575289, 261.8212432607269 674.2802938667738, 261.78804840485043 700.5901390654458 M261.78918316486653 698.8843358619575 C242.57394344646428 700.930210346467, 226.69580648867006 700.5162823329841, 201.76672475894435 701.176605845141 M260.94660552844005 700.5015545267943 C243.9521532892519 699.6435546200482, 226.88241132642472 700.1201961775052, 202.88173717099622 700.7623086162454 M201.33636218968982 701.5291239264576 C202.7948554109064 681.9220847125401, 202.26984001492838 659.1716732094338, 203.80657468649605 649.0642527480976 M202.25354240317958 700.1946186071765 C202.39774224041292 682.3596337214694, 202.71635864565346 665.4178421534219, 203.09354163826512 649.3289782212194" stroke="rgb(0, 0, 0)" stroke-width="1" fill="none"/></g><text fill="rgb(0, 0, 0)" text-anchor="begin" font-family="Consolas, Courier" font-size="20" x="105" y="680">name</text><text fill="rgb(150, 100, 28)" text-anchor="middle" font-family="Consolas, Courier" font-size="20" x="232" y="680">id17</text><g><path d="M78.17569244506457 501.534211814264 C96.50506260592695 498.6014169526452, 111.79247507300522 498.7079586130447, 139.03131078295993 499.62741879955115 M80.11704632204187 500.61626749923954 C102.5905996279032 500.8199322012203, 126.53510566869069 499.6016594709916, 137.85294528059183 499.35670519953305 M138.38603387026686 499.8585663693738 C139.99349863319236 516.4738005719414, 138.3944924202358 531.9360574195907, 137.36096868212954 550.8453216415286 M137.48545844468038 500.47423311477337 C137.37489480109505 511.90706401776856, 136.81859426392955 526.5503884855813, 138.88068485333463 550.6685792843103 M137.12230562534967 551.6487855678607 C123.91559394669687 550.7623399992511, 112.74998274642606 548.951885202975, 78.19404579227334 548.359890635527 M137.2065218589242 550.76532267167 C124.89552904668102 548.9938458975898, 114.59059211818088 549.7347319738508, 80.37871800048833 549.813892426245 M80.72655440278126 549.2929545690276 C81.54880880488768 532.1870352347306, 78.53599887583661 519.3437955571743, 78.72472851136122 499.9671137979962 M80.22797678795305 550.8906688019094 C79.14345053960197 529.5802267701101, 80.26845707055817 510.9014855594237, 80.76019824561855 500.2874814470522" stroke="#000" stroke-width="1" fill="none"/></g><text fill="rgb(0, 0, 0)" text-anchor="middle" font-family="Consolas, Courier" font-size="20" x="109" y="530">func</text><g><path d="M317.05716842753003 50.090102584242885 C396.9378893258312 46.57667355414774, 474.79148113838664 48.61072295893038, 601.0024291673224 49.75249663565724 M318.69213270952923 49.85088823554038 C383.84385307229087 50.76649658121953, 449.0810956599997 50.04489207414099, 600.4594281050329 49.43004397893558 M600.9505297302347 48.64414854553911 C597.2769226790649 94.90368345422299, 600.5642039214441 143.4912344473913, 600.4210486687849 178.0807136913452 M599.4855152693782 49.570165963021296 C600.3476802417014 82.59569238006654, 601.0699185088775 117.03624938221024, 599.1622109941349 179.44814848475502 M599.5698027092113 180.89825279489784 C536.6348595848935 180.12670711527042, 470.4193197804352 179.41156406398218, 316.51599116840185 178.50084589053367 M599.2739235816316 180.139298769187 C537.4491365372018 179.23112459733017, 473.70684813355854 179.7696453046093, 317.6616231562854 180.26806112388456 M317.7282417531159 179.71721052278045 C317.9285566155116 130.5928061365097, 318.6226894479992 77.74375376614324, 318.35220469908626 49.174734247261334 M318.8399473478647 180.29952503186544 C318.97345678918606 150.36919865538593, 318.6335633081868 118.37942804522365, 317.5414345678673 49.54492212248603" stroke="#000" stroke-width="1" fill="none"/></g><g><path d="M342.72876080469246 114.22225300906175 C363.02947237027973 116.67133114404227, 386.19412350854606 115.5672569966936, 401.0701316797294 113.30554018578262 M342.5529239578751 115.20409240385987 C355.67541504337277 115.11274153705783, 368.55955903821496 115.37145048856556, 400.37602471317456 115.41847635250558 M399.19928191253143 116.37792074573898 C401.5037840530015 130.5058416499582, 399.5392753194981 144.9140481265068, 402.3583935765383 165.4587975987007 M400.46443519517516 114.59173986380038 C401.1538685736861 132.0768781183777, 400.67267311198594 150.47819262034093, 400.6137839894038 164.86234567033716 M399.02343607442776 165.773646773115 C383.1481340229484 164.82035215866912, 364.28744126731726 163.81605910837817, 344.173535228107 166.0963074252467 M401.94169109187635 164.5044222987924 C378.2088244347087 165.5123463954812, 355.52639245877293 166.3473371406309, 343.8953666442045 164.62747677815793 M344.74299163625875 163.20450575711845 C341.0524212307152 154.4923893665527, 343.8382718084593 142.6568011712615, 341.90004545454383 113.73418845856914 M342.51261269055493 165.95018927866414 C343.19025233139746 154.19705738128212, 343.7389234751969 141.7437518770152, 342.87012428071137 115.18208638651171" stroke="rgb(0, 0, 0)" stroke-width="1" fill="none"/></g><text fill="rgb(150, 100, 28)" text-anchor="middle" font-family="Consolas, Courier" font-size="20" x="372" y="145">id19</text><g><path d="M399.8630932021153 116.10545078989281 C418.40092656574717 113.39397235234478, 432.78231957061655 113.88226738279216, 458.8949263874646 114.84876790256902 M400.60932219852054 115.79980953460924 C417.03499997609987 113.8342928617521, 433.7342910721757 114.31130126473367, 459.52375750366053 114.67071435541656 M459.00420690334397 113.12876798346576 C458.89428748484124 132.02969188235846, 457.7434106000056 149.20761180890634, 457.37142358882926 164.5733575562395 M459.6845546753085 115.51850689137429 C458.6696352612878 131.33688977691645, 458.654790121388 148.88059718861595, 459.12081675103684 164.1440220490958 M458.619912239177 165.81263205007127 C437.55329585150497 165.86923767085847, 414.754068757246 165.5201729861218, 402.37096088614163 163.61454738049676 M459.1121282171705 164.0774509132191 C441.2048999773304 164.40484679510837, 421.92510787299796 164.78206786900336, 401.1235660087479 165.65748591611458 M402.18065493997057 163.3777027660156 C399.91660140846164 154.82157564169947, 401.1627221303724 142.13877704686172, 399.35605911049913 113.3454635842201 M401.61483599310117 164.1478349757735 C401.1387241741222 146.488979247749, 400.97398546946596 129.370183768114, 401.489948439038 115.04067578885683" stroke="rgb(0, 0, 0)" stroke-width="1" fill="none"/></g><text fill="rgb(150, 100, 28)" text-anchor="middle" font-family="Consolas, Courier" font-size="20" x="430" y="145">id43</text><g><path d="M459.20949253426653 114.10307647937853 C476.2265122852517 116.19085776081543, 490.91539317285543 116.5928325479222, 517.9002966924845 116.26134470395446 M459.5464408144882 114.69020009422916 C475.00107952949514 114.21733013173964, 489.444377941549 114.28217174668683, 517.7218765753586 115.70372514934272 M515.0740385211412 116.49396091875654 C518.4393734992084 126.86962431400725, 517.4470498338433 140.9996925069038, 515.1438867041006 163.35249801484525 M517.6258660621224 114.73047319705348 C517.7496419400937 133.8768786322326, 516.5628883019383 154.54246025150482, 516.0444089639072 165.9080097787491 M517.6652575059276 164.3381220449494 C497.29989974878106 164.79380912849177, 473.43546197388974 164.8341042866248, 460.0244706557699 163.89103201168706 M516.5765967869819 165.9662832836729 C493.19764231764844 163.9719273831018, 471.29818796020874 164.57003000808768, 458.5435725166881 165.09454144685708 M460.30559684897094 163.93369738345956 C460.99693777375785 144.13984965609748, 458.64251319812286 124.28779332311342, 457.670254721425 115.1552824601635 M458.7092812047129 164.473602449756 C459.8418688355361 154.35115611278616, 458.31243164803544 142.77573772364494, 458.31208463684226 115.11388284337349" stroke="rgb(0, 0, 0)" stroke-width="1" fill="none"/></g><text fill="rgb(150, 100, 28)" text-anchor="middle" font-family="Consolas, Courier" font-size="20" x="488" y="145">id28</text><g><path d="M516.3184691755138 114.8195352106165 C533.049306753027 116.21842829811415, 548.2315361368563 116.3657712881459, 573.0705407363386 116.13449865644448 M517.5420815094944 114.6254781888036 C528.3806817627992 115.10418133370167, 540.2779328619094 115.4963620611199, 574.1361603470892 114.5919262802267 M575.989885414716 116.73691414329542 C573.4668354474162 134.81329075656436, 576.5820902957845 153.02667165594826, 574.324966500666 163.69497918945882 M574.1755723438301 114.35898597416576 C574.2024129227235 132.46709161229447, 575.2327378012141 150.00553901263962, 574.9153381481211 165.20470652846114 M574.375816750397 165.9559596835801 C562.5825774637223 165.31034924929668, 547.5255483458216 165.5397006475246, 515.4086151145199 164.43043422147548 M574.6609584523397 165.93291320433883 C557.7364140907558 165.31200531992673, 540.660642859204 163.78140799681017, 516.936818913973 165.19602963353486 M516.503752035716 164.34238796816484 C517.7804062845095 146.36923712105485, 516.7732462560365 129.4371447383419, 516.5046394537729 114.2688582459067 M516.673878271312 165.31206154690278 C516.7418788597118 145.7991854387673, 517.3828655903144 127.95537887885766, 517.164271837666 114.06670939338042" stroke="rgb(0, 0, 0)" stroke-width="1" fill="none"/></g><text fill="rgb(150, 100, 28)" text-anchor="middle" font-family="Consolas, Courier" font-size="20" x="546" y="145">id49</text><text fill="rgb(150, 100, 28)" text-anchor="middle" font-family="Consolas, Courier" font-size="20" x="348" y="80">id82</text><text fill="rgb(27, 14, 139)" text-anchor="middle" font-family="Consolas, Courier" font-size="20" x="570" y="80">list</text><g><path d="M316.50709351032106 50.96678992366981 C340.884495981731 48.82749302758993, 360.0851593145187 48.78614523050284, 379.34397219848404 48.83504567869555 M318.9809579924367 50.831718110114075 C335.66764118499356 48.97308205014062, 351.96721351977106 50.49508473404199, 377.02849007013845 49.42639732137932 M376.45160216573754 49.58768328215888 C377.6511012851414 62.07185032453744, 377.22407419448336 74.07244665587339, 377.12942229995235 100.3365210491753 M378.7979762769078 50.60580392676803 C377.32351351681245 69.2687344906605, 377.45246087757283 87.50470132294107, 378.1379992239857 99.51914322568065 M377.2139342590029 99.48792720617698 C356.771475305105 98.2987785269042, 332.01820159407396 100.3017489166746, 318.0849086477087 101.58523595828134 M377.6681777444991 99.98305841477605 C363.7261398484751 100.92513734677256, 350.6051368798413 99.87014324847448, 317.0325156224741 100.82030768678565 M317.4022239621818 101.66486191326014 C316.4010632022277 86.26329649538508, 319.35015765249045 77.0150170283075, 319.7929777135002 48.73783072639541 M317.75645595325324 100.4711182789072 C317.3336947029324 81.25616439541128, 318.01404181286296 61.15087777853725, 317.99496522667624 49.04045439985161" stroke="#000" stroke-width="1" fill="none"/></g><g><path d="M539.0471936265408 51.934279242495585 C556.22279340687 49.146836443557454, 573.3086173058052 50.944609701347204, 600.3913102503848 50.906966448424704 M539.8536630782016 50.65266623942573 C551.8751818018411 50.71513525420703, 564.0949508605358 50.041568075608794, 600.0096456799184 49.952475000904336 M601.4721727351246 49.52575015123148 C598.4407861753673 59.910749921438, 599.1610837108592 73.6339796982417, 601.0741507513247 101.58084188433709 M599.2040242389743 50.93207210453841 C600.818797064741 63.526698588734206, 600.9776984450496 74.9005962414547, 600.8816180337765 99.36358400247198 M598.5186406711832 98.09405340849501 C575.8097686752642 98.66092528463457, 554.5893867716197 98.65211738297394, 541.8148690153013 98.13889113718193 M600.664482970491 99.11713220420756 C585.7807063542316 100.52122831711773, 570.7647877783869 100.45635401433408, 540.4950060216822 100.72850606986158 M539.2101578558769 98.50329077804716 C539.249385700262 87.41395067063975, 539.4993997264825 72.3371963937192, 541.7385323336613 51.97783235471762 M539.6151390199057 100.08284203802751 C539.4210929555828 88.90578869451456, 539.4187893209903 77.30094169693456, 540.9563105806751 49.261513585819436" stroke="#000" stroke-width="1" fill="none"/></g><g><path d="M658.6727581546265 50.41962013377964 C743.0261647026347 52.857069365048275, 827.3695922778263 52.73945360757387, 941.2919353936555 49.92601690788867 M660.5043521168174 49.409166673213164 C725.6691409337601 49.27642924919063, 790.2947667988132 49.52496815127987, 942.5095418804834 49.253046946409064 M940.4335132118659 50.46021349181674 C939.3410365735499 105.08238815111285, 938.9794186862715 156.0781395962527, 941.0143719388681 200.92984991809644 M942.4512289598483 49.00532083975106 C941.6594209302846 108.03963701123529, 941.5349855803979 165.77862316316077, 942.1651051400471 200.1126208700969 M943.2998130782447 201.03783284636984 C861.5923126843232 198.60179148745155, 778.8676872460588 198.7882821948264, 659.9793001647843 199.75457294341578 M942.386015968308 200.02991114458396 C877.7265322372355 198.70463967163687, 814.3911753230003 198.19460438924176, 660.2631131981248 199.77517193294213 M661.625373226216 200.16576399291634 C659.1867797750114 162.19132381139883, 659.0182241522573 126.21190339108415, 661.9476933074311 48.413522143792036 M659.8294019568825 200.0206495812515 C658.8542654326213 140.8889488114783, 658.9500885651076 79.75076715204823, 659.1251350761333 50.10969344135435" stroke="#000" stroke-width="1" fill="none"/></g><g><path d="M686.0137281505586 133.96331847304023 C702.887454594763 135.1758500428263, 724.060057840082 135.44851968902364, 744.5226331494 134.1767783256781 M685.0484928937486 134.37658180636288 C701.3522082913021 135.60095257387758, 716.5608358655466 135.99150033413108, 742.6928542881561 134.10554423865057 M741.0068163090506 133.74105161666708 C742.2366582152221 152.91291164671506, 743.7570856567729 175.6432077748712, 743.8350785222648 185.22781268351343 M743.6315607471564 135.16295729448646 C742.4834680995463 151.75438769901515, 742.0371092249964 166.79785805442646, 743.4358568141439 184.17875833173895 M741.1759324812649 186.782938219924 C720.4716123103394 186.1005936760634, 701.8577436935146 185.2071480375723, 686.8889381919023 183.91599907563358 M743.1687455958844 184.97868762071178 C724.8897425837868 185.55676184579966, 706.8088291345937 184.08459794531427, 685.9585258601559 185.34199388682856 M684.7524431326332 184.01981242382197 C684.0290978281467 172.77472228775318, 685.6930987730854 160.69845011867426, 685.8771397420285 134.13083207025122 M684.225077569371 185.22256685531673 C685.6723933117737 174.42157818997404, 684.3582739331646 162.44563854366754, 684.3756702155655 134.9978424133187" stroke="rgb(0, 0, 0)" stroke-width="1" fill="none"/></g><text fill="rgb(150, 100, 28)" text-anchor="middle" font-family="Consolas, Courier" font-size="20" x="714" y="165">id32</text><text fill="rgb(150, 100, 28)" text-anchor="middle" font-family="Consolas, Courier" font-size="20" x="714" y="122.5">0</text><g><path d="M742.3730971209565 134.51174215399539 C763.4868143978514 137.2033984055044, 781.361853885242 133.9224804553975, 802.6306922992495 133.49320737925422 M742.6603696464857 134.65701331133928 C754.6840137105878 135.65675460505415, 769.1819219510725 134.54105462359524, 801.9411004415036 134.56706833704646 M802.6841382458283 133.65943473878988 C800.7218177417899 150.2114068821368, 799.6663697956897 168.33869583611244, 802.1695987261646 185.0501764070727 M800.3421935093187 135.95440670591873 C800.5299572880724 147.8814724669437, 801.4530166127153 159.5339479161523, 800.811462967262 184.63852657754583 M802.0272138036066 185.05638190599745 C789.1899376812553 184.37600378834443, 776.8383076475121 183.87609369854832, 742.6964096503117 185.46481692466315 M800.0191909820464 185.5150383536279 C779.9794244202685 185.44904123116277, 757.6177491579216 185.67146605159726, 742.5875010842669 184.8409165389242 M744.1119047865772 185.13185787289856 C741.4735369390703 169.75406430696216, 743.945281457816 153.01380282022768, 743.6313773303033 133.77238266724243 M743.8845169864354 185.17844549645048 C743.0053542751554 171.5755873548995, 743.5363084854944 158.70622947934842, 742.3210473896416 134.34185447181673" stroke="rgb(0, 0, 0)" stroke-width="1" fill="none"/></g><text fill="rgb(150, 100, 28)" text-anchor="middle" font-family="Consolas, Courier" font-size="20" x="772" y="165">id10</text><text fill="rgb(150, 100, 28)" text-anchor="middle" font-family="Consolas, Courier" font-size="20" x="772" y="122.5">1</text><g><path d="M799.4755194455034 133.36263038971484 C820.6076913119816 137.02519655381758, 836.3743074346619 133.90757261934456, 857.410376076 135.44678190416667 M800.955866964502 135.33774253885267 C824.0884365103808 135.45911129733756, 845.5538748128673 134.8233070813887, 859.4545292607015 134.4867812982735 M858.4015022949436 136.66168077645185 C858.0567628999862 147.6187504017375, 859.9071083429046 159.56916294188952, 858.2079525910647 185.61300617990085 M858.7112870395978 135.43178978474575 C858.6651147773588 148.64218661565454, 858.0910235023189 163.77013786840112, 858.2193399158411 185.8105136163857 M860.8790679911499 184.7458573080898 C839.6824481935257 183.72124626445105, 821.6061374234599 186.11494953460493, 801.5590740822277 183.81061132349785 M858.8179540149414 185.15079717246462 C839.7142083663766 184.98152686102097, 818.2277824628359 186.10056393738824, 800.6928712869794 185.79245934476074 M799.8031309479824 186.419135422195 C801.1357783335715 167.07333519191133, 800.1991939397499 152.25204938864763, 800.2601976206718 136.0792371900815 M801.6602865913079 185.96401872961897 C800.1393616285978 175.29583943096432, 800.5636753693597 164.46122903393098, 800.6049236006395 134.10542440812213" stroke="rgb(0, 0, 0)" stroke-width="1" fill="none"/></g><text fill="rgb(150, 100, 28)" text-anchor="middle" font-family="Consolas, Courier" font-size="20" x="830" y="165">id90</text><text fill="rgb(150, 100, 28)" text-anchor="middle" font-family="Consolas, Courier" font-size="20" x="830" y="122.5">2</text><g><path d="M857.744032078852 135.47284190690277 C876.3268858442091 136.38902990981492, 894.1582002719713 135.48642295204326, 918.5171937810425 136.92506439888447 M859.7803565427208 134.2564668177523 C873.1588404200912 134.57220979173712, 887.2349906907664 135.88946206233302, 916.6848863314159 134.83300246082672 M917.9580182044604 136.39526407480005 C916.7913400926325 147.8052176853628, 918.2897931795029 161.28689162754884, 918.2377578850554 184.54467180792037 M916.4830154649967 134.61562949214874 C917.1382605005771 152.54666259945614, 917.9676088649811 170.83806932112532, 917.7728087502718 185.55748219172136 M915.7719950426509 185.1109683881073 C894.6165366438493 182.98675854558618, 874.8423067091737 183.45245103815705, 857.3443567520925 183.55300236202456 M917.4885504722957 184.53083615362817 C898.4227799243085 184.6019006848215, 879.673340553756 184.96578091513652, 859.7108309115326 185.3778336414718 M860.2004120673735 185.63207120667042 C860.1066513914259 171.74127428781543, 857.763406332173 159.0059401483987, 860.3921154567947 134.35211409538425 M858.5935504051358 184.08356824428296 C859.1235010160622 166.03357685355166, 859.8884854761754 148.40575789086722, 858.4523202113451 135.81272274586144" stroke="rgb(0, 0, 0)" stroke-width="1" fill="none"/></g><text fill="rgb(150, 100, 28)" text-anchor="middle" font-family="Consolas, Courier" font-size="20" x="888" y="165">id57</text><text fill="rgb(150, 100, 28)" text-anchor="middle" font-family="Consolas, Courier" font-size="20" x="888" y="122.5">3</text><text fill="rgb(150, 100, 28)" text-anchor="middle" font-family="Consolas, Courier" font-size="20" x="690" y="80">id84</text><text fill="rgb(27, 14, 139)" text-anchor="middle" font-family="Consolas, Courier" font-size="20" x="912" y="80">list</text><g><path d="M658.355371060493 48.02637169152184 C680.1332924452886 51.759112287066586, 696.0743916790351 50.644791651003956, 720.5265011616867 48.36684517558658 M660.5130973389504 50.39177599750013 C677.7465915081302 50.14479830226324, 696.2257923954401 49.28887210079892, 719.8595783707457 49.435695898014025 M721.9958842990469 51.18316267658689 C720.5588739074963 62.528136487084495, 719.1429690840635 77.85011349012197, 718.38090192631 101.76908613830851 M719.5309100954713 49.50240436716794 C719.9345322735321 63.516433404154675, 720.5994236356353 78.46655395887464, 720.4050985828609 100.78299183914882 M720.2570807355938 99.42471829094471 C707.1281419480367 99.84940172361631, 694.0683656071418 99.31438259032342, 659.1158756401203 98.43610772268975 M720.3022579750901 99.97021248190595 C700.5696402410881 101.08847751426191, 679.9216614325545 100.00322513985466, 659.9684609765054 99.32345223745207 M659.3262311348793 101.18782361895083 C659.292831475219 88.77024250127239, 661.7315710984317 77.32850469024758, 660.2767393546236 48.62567784829407 M660.9628027369727 99.94578561400701 C661.1596375838261 82.69526911039075, 660.2899638608991 67.38269783969889, 660.9397895131681 49.55327061855777" stroke="#000" stroke-width="1" fill="none"/></g><g><path d="M880.8933223674695 51.444050480893296 C899.0417821016364 51.67173209454185, 919.5089929774815 48.810044302284965, 942.0699532691077 49.54840451550729 M881.4010967620668 50.37196029093343 C894.588272939708 50.53872277126289, 908.6227975770861 51.171559867409925, 941.6993582989849 50.114245654370905 M941.5854991852945 48.9874826908573 C942.7763373467998 71.20999799455615, 940.9818643192199 90.81520462297641, 943.1692710986739 98.6004935191676 M942.9305259116372 50.46239400133142 C941.0916212512549 69.3124720080498, 940.7416495508777 87.27701961085391, 942.3880318340005 100.97776806391444 M943.8491565129474 101.84107174548127 C919.3071232665995 101.19523402160297, 898.9314322080764 100.58116088738825, 880.8722259971743 98.16989064679697 M942.1021288947978 99.32553269959749 C925.4961191051578 100.05873334835714, 908.8117082712339 99.54778854160051, 882.8310897913091 99.99274080029089 M880.5622561599898 100.20674478222244 C883.0371647748862 89.1907626940182, 881.0629856582262 76.40768868905715, 882.8808680706134 48.63773977256847 M882.3762167183431 99.39564337929649 C882.0616855160574 88.49127032584579, 882.4153349131847 77.77677392684241, 882.6586204102848 50.145948722299266" stroke="#000" stroke-width="1" fill="none"/></g><g><path d="M1001.9598953381563 48.20498867536882 C1072.7889342676083 48.02663366833739, 1141.1840472357173 49.139313822805356, 1201.0836024464215 49.121647349496975 M1002.207354325778 49.97496569158915 C1057.6829931760124 49.21250282424251, 1111.1561164859831 50.04102669584452, 1201.7101623678402 50.75400583637371 M1202.8230613510914 48.95446283203064 C1201.5883881777434 93.6872340069232, 1203.228238404705 138.13612316798282, 1201.6773661289567 179.06739018772996 M1201.5945642855725 49.948137345736015 C1202.5971445795228 77.884236559667, 1201.493996438823 105.32714501720932, 1201.0066088737367 179.4683871222905 M1202.4748114407362 179.92893183096308 C1156.8855390240321 182.56319911266928, 1113.1005762070029 181.8261903970438, 1000.4161680631285 178.20411887688874 M1202.4953168803775 179.75892222161073 C1138.8918858427987 179.31170073865223, 1075.910853580869 178.43172022843635, 1001.8761865111342 180.04571314150053 M1000.141404220744 181.59547634694925 C1001.1157779888985 149.98679525220155, 1002.0556032691769 117.28468748392409, 1001.3000817456257 48.06328944043809 M1001.8570220268737 179.68435640468596 C1001.9102664331775 150.7303084332256, 1002.7898360646848 121.37136015017266, 1002.7267559491307 49.78026672151025" stroke="#000" stroke-width="1" fill="none"/></g><g><path d="M994.5436601947022 42.806645578626124 C1039.9708011921762 45.04584777565048, 1084.7985995733873 43.24134309736231, 1207.9931290972745 43.444182705798305 M995.7711209623343 44.74119705718188 C1065.0535263307088 45.21340006232699, 1133.235178076968 45.33321687455257, 1208.0194414235339 43.39925256374532 M1208.6036492297674 43.85944842627498 C1209.5784532897762 84.68505108127651, 1209.8245343411552 124.24587651112644, 1208.8857607221116 184.90767535310704 M1207.5573870878654 44.45045781972887 C1207.5438418693636 89.3698468478272, 1208.0046681379217 134.1338811023163, 1207.2800887413052 186.85521936771957 M1209.2886816658277 185.40690301173169 C1137.9940681599069 187.50997700507676, 1070.0257492404949 186.39678918527494, 996.5873598917345 186.6819587845093 M1207.4382812214344 185.88793831249666 C1157.210076446503 187.72484389744398, 1106.9378642130328 187.52652818851163, 996.8255422183884 186.81862874026314 M997.2835025451288 185.38877594827287 C996.3898322261447 147.6948747169938, 994.2803026232435 109.66901911985342, 994.9448416319813 42.23412319892544 M996.9600348033393 186.2056327728246 C997.2420578471435 151.40637260799548, 996.5112631478183 118.19157535560164, 996.1610968757997 44.2149352932242" stroke="rgb(0, 0, 0)" stroke-width="1" fill="none"/></g><text fill="rgb(27, 14, 139)" text-anchor="middle" font-family="Consolas, Courier" font-size="20" x="1102" y="140">1969</text><text fill="rgb(150, 100, 28)" text-anchor="middle" font-family="Consolas, Courier" font-size="20" x="1032" y="80">id19</text><text fill="rgb(27, 14, 139)" text-anchor="middle" font-family="Consolas, Courier" font-size="20" x="1172" y="80">int</text><g><path d="M1000.4705778293493 49.745734469828975 C1020.3513151520156 48.72474780927849, 1038.0826083010804 48.72142441091917, 1062.1732907570101 49.75241311220287 M1002.340604806408 49.53902318275742 C1022.4564709955861 50.43009517148064, 1044.4304482842344 49.57563121469298, 1062.1892546702156 50.87248942829066 M1061.650472575378 50.12993144967034 C1063.117403024377 63.04438699280334, 1060.5904849503136 72.48183928523972, 1060.073215065627 101.11448991800182 M1062.5418602406519 50.00182865275863 C1062.994968266566 69.14078033927983, 1062.5818172335942 89.9635365621894, 1061.468520268352 99.5008050549019 M1060.565552304222 101.58116240537572 C1040.6155140222936 98.48243808521693, 1017.5759305095859 101.07905494578922, 1001.2158439519483 100.66565524199994 M1062.9464628565397 100.34225723083561 C1046.2954247329549 100.82489957874634, 1029.952839499187 100.667092218294, 1001.5523876152208 100.39116411797148 M1000.7899816406092 100.52615205538487 C1001.1870027778004 84.42999245288819, 1003.1922727940049 68.2557766042997, 1001.9462646505881 48.24330384343272 M1002.150164267548 99.0262788892052 C1002.529496385594 88.05678542080562, 1002.1620042055226 74.51512335003095, 1001.7627321137062 50.25871839139453" stroke="#000" stroke-width="1" fill="none"/></g><g><path d="M1143.8362073299718 48.35497270398467 C1159.7857594886668 51.14197885306472, 1180.6239733758969 52.1027672988151, 1203.4088694128409 50.7576473116214 M1141.7581653924824 49.70427632485971 C1162.872893762518 49.87381065987917, 1184.2900047242736 50.91661458902658, 1201.9730644981178 49.39569485704554 M1203.0804882229468 50.92107496017167 C1200.4473716378131 61.28433237958343, 1201.0908893876333 71.34382473313705, 1200.366999528111 98.06143071794075 M1202.833855728401 50.05925879606963 C1201.7057721155359 66.38093951017224, 1201.9349067102833 82.65949637597488, 1202.9412393291896 99.61466929208164 M1203.7834398904183 101.15989968973253 C1182.6554209914427 100.99559590973121, 1161.2752154418627 101.7507449329601, 1143.865526244435 100.63756967811584 M1201.2898689072226 100.89869041092217 C1183.9641479043703 100.30177672280166, 1164.7113030079681 99.15452561936831, 1142.2815454766776 100.8844351999812 M1143.427575261724 98.27493160527875 C1141.288516039465 86.92200086999691, 1140.6200182460063 74.08955687449523, 1143.8007898075641 49.82228590572703 M1141.7995516816256 100.0191456838863 C1143.1757495278357 81.57526103413025, 1141.7266936111675 62.37038674601665, 1142.8143604589668 49.54843191888457" stroke="#000" stroke-width="1" fill="none"/></g><g><path d="M319.27068697885363 260.0694741272583 C369.29978320715173 259.8343074239367, 420.9805699002934 259.4723689244268, 519.5309850498242 259.3938940115327 M317.7703169013535 260.6234599130154 C384.2639200822459 260.12894321712116, 450.67319715544676 261.6955017533247, 517.5138442746485 260.28351406876897 M518.8595728690836 259.41392308065275 C517.2720146922624 295.6973497089769, 516.739405258501 328.64018731513545, 519.9642064930085 391.5717354223442 M518.8308886103883 259.2354767105145 C518.2909451820731 310.7590487024348, 518.1886067363083 362.5518291388384, 518.9658135908489 390.1161921525979 M517.041980490665 391.04052473635517 C474.1546510399008 391.38402900079234, 432.4409022903568 391.281542454952, 318.2567518452767 388.4890601575844 M518.4985869652003 390.88155624390595 C460.54148707053633 391.2585878797416, 403.966669535517 390.57220368264575, 318.1669909139563 389.17731279416995 M318.32747563530535 391.911400295207 C320.75973734818325 355.56547649444343, 319.7510876738126 319.34938551184945, 317.4087913264545 260.41050082489613 M317.74897981885823 389.82740473879915 C318.19448632746935 339.01480622914414, 318.1750754780036 288.9667924995151, 317.01805972211855 260.15825726170976" stroke="#000" stroke-width="1" fill="none"/></g><g><path d="M313.6843830823853 254.702259220268 C355.3236177272777 254.35920953015903, 397.6280328343391 252.8046968710777, 523.6147934349256 254.78806887776878 M311.28403653676804 254.0316658295121 C361.74800908685563 254.08692911596717, 413.13441919390095 253.2106846255375, 524.8718606572418 254.2257876527603 M523.6155602341422 252.58837753538575 C523.6841340387347 290.1445624546536, 522.5080973454154 324.1732836231869, 522.838710077799 395.19060036816256 M523.0692148111468 253.96911063948184 C522.3422458380968 292.45439339123334, 522.3935553218648 329.9457148644732, 524.5348420727297 395.4876430479533 M523.870663977677 396.8096151729711 C467.74854989116363 394.9958044291426, 411.48021058389173 395.14808840920847, 311.12750727591924 396.1421523425734 M524.1120220560028 395.4094754995721 C452.3436697489113 394.31636040393056, 381.328861714047 393.8194208969506, 311.80786160322003 396.488321327845 M311.3323890461384 394.3208043945292 C312.05318066382745 356.08762267748847, 309.43157579034374 316.8148543415181, 310.2500892761546 255.9506396515885 M311.63465764873985 396.9459883581681 C313.86988719399227 349.5329171812325, 313.4934682386757 301.3750618011866, 311.0745831004022 254.18749239595653" stroke="rgb(0, 0, 0)" stroke-width="1" fill="none"/></g><text fill="rgb(27, 14, 139)" text-anchor="middle" font-family="Consolas, Courier" font-size="20" x="418" y="350">True</text><text fill="rgb(150, 100, 28)" text-anchor="middle" font-family="Consolas, Courier" font-size="20" x="348" y="290">id32</text><text fill="rgb(27, 14, 139)" text-anchor="middle" font-family="Consolas, Courier" font-size="20" x="488" y="290">bool</text><g><path d="M316.6079603942496 260.4459828813265 C342.45628536622957 260.7916243231021, 363.07272955165735 260.56193751491287, 378.3357414893534 260.50263103197614 M317.5094554324639 259.52409706805986 C339.16951552363855 259.48863956311465, 357.7928570024814 259.9098202581272, 378.7588960500115 259.552238655617 M377.1808092981605 258.7219236060716 C376.134729778809 271.21265408757233, 377.6967341236227 279.5550106264718, 377.0943964792672 310.6518973900853 M377.0215756329496 259.3142430758791 C378.20554112072796 276.89542810965776, 376.6181286454236 292.3363131351419, 378.77326368618736 310.307204093338 M376.3606854441613 309.85433350732916 C367.428338497482 307.8527709545266, 354.3010538399275 310.9656038080829, 319.14667539925546 311.2815765491938 M378.5539218338641 309.4118459899198 C358.11023766642955 310.3700495222877, 337.9337537309755 310.13965876062673, 317.14522498233384 310.86412228912855 M316.09936040963345 308.6363859613441 C317.97402741193343 289.2213599228253, 319.4484864593553 269.45053476339115, 319.94868528686044 258.3745388323537 M317.4758333154497 309.14168886741567 C317.0804530421816 291.6375354814466, 318.7374183070809 272.86269387184467, 317.05966854286095 260.4508367268529" stroke="#000" stroke-width="1" fill="none"/></g><g><path d="M458.09021633628896 261.30685348118675 C474.08844084590345 259.32801866861735, 492.6171972968304 259.4854531850348, 517.1151183032159 261.80282685817565 M458.2508508639124 260.728430007696 C481.8809698568273 260.63010372943864, 504.8392004612691 260.34997315223114, 518.2826882743298 260.46685257994557 M519.5472976385373 261.0062701197448 C518.7948598980267 271.5492986559252, 516.8009255275136 279.0934687595278, 518.6938899634382 310.9010858951952 M517.7429820768615 259.9046069599985 C517.2285438686447 274.56405022957136, 518.1993040476716 287.57845564646937, 517.1285040627134 309.00019471767746 M519.550271350119 310.1596409636275 C502.5169361867821 310.7988689694269, 490.02237302172233 311.9530207651984, 456.7399560343772 310.23273577839694 M517.1110334231803 309.95909056970015 C504.4594869787673 309.15971911050514, 489.6526351926729 309.81828377731813, 457.7143366749611 310.2931934269812 M459.94803206688886 310.09403945075667 C458.999204998921 289.9489340575003, 458.20528436584647 273.07485412845983, 459.5225004185547 258.0303136889513 M457.2197991974029 310.6411002018957 C458.3851268393904 291.30577339269587, 458.6717600584935 274.23474817299865, 457.0133501953219 260.3419138959834" stroke="#000" stroke-width="1" fill="none"/></g><g><path d="M590.5444929616569 258.55791307723774 C635.8184583512893 259.096420520676, 684.6573422115158 258.84161551301236, 791.4716995273775 259.25478185964766 M589.3593862163885 260.7087699671825 C652.5338945181793 261.38794915660304, 714.2105794648506 262.102095476435, 790.7380338478487 259.34876197528916 M788.3620743825819 261.7249610347786 C788.9636657010818 310.36437333353894, 789.7540921582855 364.5035899249722, 791.937305967646 389.8563810272783 M790.3663614298359 260.70260547512476 C789.234968301607 297.21419294932974, 789.3882533507617 333.01036466995356, 789.840026717155 390.33479034336756 M788.8175220842719 388.834958620485 C733.0353839250533 391.1908874094708, 678.0568653922267 390.1570266977181, 590.6353655116167 390.54375031662147 M789.5476476127062 390.836967892448 C726.2666976996171 388.47477634485074, 662.9593452384307 389.1952610085396, 590.6930989377248 389.51025032703444 M588.068028407709 390.0213577529201 C590.6603612872535 349.18917925284234, 590.8766716569381 306.70691104836936, 588.6640614688927 258.3795593855854 M589.9117937140834 389.9888590537131 C591.2791682870181 338.29295273906087, 591.7957612265383 288.1011813357475, 589.0874992337679 260.72439395519586" stroke="#000" stroke-width="1" fill="none"/></g><g><path d="M585.034176937281 255.1794469678543 C643.2971743440422 253.34588271253872, 705.5736596300418 254.65596516308617, 797.1715012492466 254.40265276697585 M584.4658976788199 253.29827870200634 C642.9661665249708 254.98174468279697, 701.7981873355623 255.50197449545342, 795.9033823594559 253.8561273000118 M797.463133835374 255.04357190972325 C793.9130680010471 306.7180323737758, 796.2176039067517 358.38966916855844, 796.7616270404683 394.1767704156129 M795.114123989969 253.0272067867637 C795.0631921324934 305.6439988943164, 795.5986586387052 357.58060251615484, 795.7793205425432 395.7072707934397 M794.8890371087159 396.38187031865954 C716.2123684957071 395.78533722866734, 634.7389578033325 398.317123895997, 583.6136440066963 395.1330860281999 M795.1701182893576 395.73480189919843 C717.4331742044786 397.0200308639954, 639.0832669627835 397.75083590768133, 583.2360778122626 396.45153853817936 M585.527087366524 397.42721753891016 C584.9002994803054 354.2655048970055, 583.0800994081602 313.50300899132895, 582.7620703875901 252.6720967598672 M583.5512347647463 396.7551585876925 C585.1911125308711 343.70141306819295, 585.1382608402947 293.19959184019746, 583.5826893856542 254.10688972569628" stroke="rgb(0, 0, 0)" stroke-width="1" fill="none"/></g><text fill="rgb(27, 14, 139)" text-anchor="middle" font-family="Consolas, Courier" font-size="20" x="690" y="350">"David is cool"</text><text fill="rgb(150, 100, 28)" text-anchor="middle" font-family="Consolas, Courier" font-size="20" x="620" y="290">id43</text><text fill="rgb(27, 14, 139)" text-anchor="middle" font-family="Consolas, Courier" font-size="20" x="760" y="290">str</text><g><path d="M590.8170275879432 261.5822830182176 C606.2592895327653 258.1628405037152, 621.9662090893625 258.09881048423813, 649.4476637458179 259.69550091776244 M589.8023006709275 259.9380889406339 C609.6025253973467 259.9835819473955, 628.9920312201846 261.31945400392, 649.7217309859451 259.75196404285424 M650.0150865671532 261.7025108309499 C649.6388490356827 280.1390321547262, 649.2784585968092 299.33462451078344, 650.7586247256395 310.633454661133 M650.5292169996361 259.60117479168497 C649.012619300652 276.622047761742, 649.3086782369861 290.51873637618496, 650.7561988323042 310.87512637309106 M649.3805528469144 310.44004063047 C633.4015392884489 312.16665102529595, 618.1065664193981 308.59166436513084, 589.2364623074039 309.7566534051612 M649.9865886764436 309.30881717373495 C625.50744118818 310.3123555498569, 602.2662702599308 310.2605267526938, 589.2057168444495 309.4417235599589 M590.4072064374053 311.2386645012138 C590.8556172148237 297.8602953417794, 588.8956452133984 282.7384116251264, 588.9832964031394 258.0215364745571 M590.140110265618 310.41694884204986 C589.8816362571703 298.6980704780499, 589.6626133671336 287.2445316839018, 589.4037618383531 260.78951772647923" stroke="#000" stroke-width="1" fill="none"/></g><g><path d="M730.3867665509072 261.9882934812427 C740.523887636437 258.43646260435355, 755.8260058391419 257.7706862270334, 791.3963868157397 259.9042523584502 M730.8627237289485 260.6079006263734 C752.57749555485 260.6986196291832, 773.056809240264 261.278432892664, 789.104926267169 260.0271328418713 M788.8943915892168 260.61881304714746 C792.1991927177914 273.28358047115546, 790.4510949205629 284.6237997810802, 791.6214636469443 311.140115259374 M789.7632230338137 260.5953324635574 C789.5821198713317 271.0588797709285, 790.8396615685818 283.0958931535835, 790.1411163783515 309.2417553248784 M788.1701376802071 308.50979110012526 C777.0006378952158 309.23027848058746, 759.6908298505538 311.5786833883935, 731.0400934900523 309.5610386565786 M790.7855293482913 309.4277023132546 C773.5473010993268 309.22458674383995, 756.41564905973 310.3869308101166, 729.2023623255909 309.04318185690306 M728.4525981438974 308.44779130187464 C728.441806140031 291.7724788974413, 728.540509140657 276.69922319227373, 729.105741760355 260.1366510965752 M729.0088468357054 309.9855359864731 C730.810307800099 293.322646754707, 730.9676078646697 276.7028404998824, 730.9846185067954 260.1595017930669" stroke="#000" stroke-width="1" fill="none"/></g><g><path d="M862.1326272532231 259.1645219771504 C930.6859363795583 261.01159299706353, 997.4050670547297 261.19735897855304, 1062.8632870794088 258.9257504946306 M862.7145876242804 260.7004020609464 C939.0476757087114 259.9537840215573, 1017.5310229245746 260.8455061881462, 1062.5321032468114 260.0068344461359 M1060.9137844511292 261.9935917040443 C1062.2084131414733 288.71520316552346, 1063.27676706067 313.29817670677505, 1061.1218904279685 389.6943435964444 M1062.8468802230757 259.95194527220656 C1062.5911492726455 297.7907555971617, 1063.2438981170912 335.1415491511935, 1062.5141147727825 390.31741875722054 M1061.5980207175312 388.3822509451839 C994.018561792105 392.45784767585064, 924.9791962707087 390.0114478852454, 861.5077431131922 388.24416527706614 M1062.8061618957054 389.7328493759459 C995.5636990020024 388.99204098252034, 928.7720267588326 389.54331892361944, 862.5355578168999 389.7463176146058 M863.3143043145217 389.0785807339862 C864.9542180391103 361.74571339191186, 862.9174906275881 331.9646527381764, 863.7016813460115 260.68697722536547 M861.888886488106 390.92790785792175 C861.3185061973944 360.8824579518285, 862.0093320957396 332.75225261025383, 861.6130869597838 260.6664296800515" stroke="#000" stroke-width="1" fill="none"/></g><g><path d="M856.5312813412922 254.33635808058517 C899.2587495768416 255.25523852199854, 942.7162415599322 252.75662938937862, 1069.3119959603769 252.42432156137843 M856.0814358978073 253.94253582626413 C905.4343876673713 254.44039316776588, 954.2621770776151 254.19320054985454, 1067.9661847267919 254.65462751192214 M1068.9866360726053 255.438725462318 C1069.3032529234758 287.5376325593766, 1068.262996116788 323.82795042202315, 1069.8864848257845 395.0464870708205 M1068.3242706999406 254.528183777308 C1068.64197992977 296.83012390883, 1068.4934688688331 340.8122373777867, 1068.3513796427346 396.084180907401 M1067.4510235541777 395.22893392138053 C993.8377463127057 395.8940235657186, 921.3701962150216 396.0805058658092, 854.5835445378646 395.19656474299114 M1068.7024122005312 395.2682633021448 C994.3569174574056 396.6474875706813, 922.0552539850955 396.9631608117259, 855.1976447139959 396.2026013693939 M856.2048217269448 397.0457106267675 C854.0723028894226 348.1958183381699, 856.8451371266675 300.0510565923421, 856.9424374249513 254.494377037109 M856.9833323012376 395.054743692819 C857.0045295062947 344.9960247836411, 857.469419887954 295.07060527276474, 855.7924838635361 254.8376424464704" stroke="rgb(0, 0, 0)" stroke-width="1" fill="none"/></g><g><path d="M885.0068860481913 325.8230296242163 C903.8969773059246 326.464137106299, 918.9363749046353 323.7017370103588, 944.9856370516385 325.3373135829892 M886.628673375045 325.8600243004367 C910.4225128589762 325.06123311804794, 932.8905421935492 323.9464601232846, 945.4409629720077 324.71771593521555 M943.4160815741715 324.21097587960907 C945.7075861295975 342.78158111595263, 945.8418011043001 363.8177329808462, 943.0519910147779 375.32281979387824 M945.2907029465628 324.3586917333975 C945.1055704239604 344.13598814617006, 944.4874448876689 363.72524603077983, 944.686119176878 375.54888667851213 M943.3461910408636 374.2069934035799 C923.6346598005767 374.08765878496035, 903.1703606639923 373.64152234764765, 885.1901280371734 376.4188136225509 M944.933393435862 374.8081912512881 C927.8413167565058 375.3957364433796, 911.7813798503389 375.74759643506565, 887.5655986342914 374.06561146133686 M888.5051887291447 376.91183655370565 C888.0199699818888 359.1259300522401, 888.6100171043631 341.177212770244, 885.254488769833 323.03175750654964 M886.7729918479423 375.0638034343867 C886.3765298435586 355.49726674897744, 886.4849169611263 336.0607939816032, 886.6193004315759 325.9165455270959" stroke="rgb(0, 0, 0)" stroke-width="1" fill="none"/></g><text fill="rgb(150, 100, 28)" text-anchor="middle" font-family="Consolas, Courier" font-size="20" x="916" y="355">id82</text><g><path d="M943.4409605158454 325.94675438967204 C964.0266903083176 324.83883511081325, 984.8458387546824 325.0820089379661, 1001.0022513067958 323.5897691878392 M944.5629090785393 324.326648176981 C959.8998502538993 325.72128355345933, 976.4786141933299 324.546410796772, 1003.0848048019589 324.04558797911056 M1004.3632416464319 324.5784102639769 C1004.3632581051402 339.0663880024095, 1003.7852225194708 353.15414026519704, 1001.4010943967627 374.72058112071903 M1003.2052654343063 324.81624388659367 C1003.616831772177 342.88026124461845, 1003.6380901059694 358.9365983211867, 1002.0573088162135 375.1184954358146 M1004.9010803907462 373.8405736617877 C980.9860393147511 373.67826698332186, 962.6155746996243 373.9409461918357, 943.932900674396 375.0041389249527 M1002.3612703137524 374.0545974201661 C989.4055217599372 374.347734543303, 977.2497292565497 375.01303018768914, 944.4613525994919 375.5009806639925 M944.7735237265708 376.7419934279311 C946.5229562650459 355.6240735365715, 946.9493216711834 338.3909191033075, 944.1499793241965 323.89734679893195 M944.0025753252045 375.2509692353398 C944.1905089286611 356.8669539968174, 945.9283633080936 338.22401241467617, 945.6093248752425 324.7490373842945" stroke="rgb(0, 0, 0)" stroke-width="1" fill="none"/></g><text fill="rgb(150, 100, 28)" text-anchor="middle" font-family="Consolas, Courier" font-size="20" x="974" y="355">id76</text><text fill="rgb(150, 100, 28)" text-anchor="middle" font-family="Consolas, Courier" font-size="20" x="892" y="290">id11</text><text fill="rgb(27, 14, 139)" text-anchor="middle" font-family="Consolas, Courier" font-size="20" x="1027" y="290">tuple</text><g><path d="M862.9493601124142 261.22154664162144 C877.6818732769485 260.64131870029837, 890.7604895935514 261.11962000502814, 922.8141743199678 260.16149375627754 M862.1325446845408 260.97884752296545 C879.4593574412589 260.69683208775126, 897.3130397788536 259.87642863944404, 921.0924902323652 259.5452480633832 M922.1009996997807 260.0677850693414 C922.7544008843073 274.2477575491417, 922.579621441343 286.85902569034346, 921.1566424596597 311.2374754098231 M921.700689024452 260.98912016360765 C922.0250910936591 278.16315524359123, 921.9258002239258 294.15726146629015, 922.9128421755202 310.5107091015498 M921.6786342514401 309.12176327669204 C904.0251898830006 310.5698841836178, 884.4565649510608 308.15842584869694, 861.4662215967263 308.6704594331577 M922.0645656339403 310.9651254532309 C910.4204088622998 311.01869911908733, 896.8878122141759 310.0883574327069, 861.6875455507769 309.7324643686483 M862.1367235943028 309.93307367008146 C860.5145970527936 295.63388199310276, 862.3863449376584 280.6405459922739, 861.7290862928984 260.5534782933502 M861.0372083564494 310.0077747209727 C862.0231577889621 294.4826688961151, 862.0001557645703 278.9723759325298, 862.5404617043343 259.5980931939703" stroke="#000" stroke-width="1" fill="none"/></g><g><path d="M990.2490717873313 259.15638469642283 C1006.684847345429 262.129784775387, 1020.554365118069 259.92857185946013, 1062.5781656855659 259.2380545417383 M992.2798800767353 259.67741711208583 C1010.1620223205108 259.6288429456316, 1027.1782321686644 260.5319412355127, 1061.815384285152 260.57278187096284 M1063.560204820903 260.5010847234504 C1063.4889485715846 276.1124533227866, 1062.3466580207364 294.35679576873116, 1061.961745880775 310.3391574164495 M1062.5523925338236 260.982676870535 C1061.499180745321 270.8574875602059, 1062.5822659604491 280.2810340544429, 1061.9864401031862 310.1648966919921 M1061.027281714883 310.01883704547794 C1045.5150354057698 310.0385511023496, 1030.7727220733534 309.84274992523984, 993.6235463032622 309.7521818982593 M1062.632387496847 309.52444129068743 C1035.8630718627514 309.8714465000185, 1011.4796681176333 310.55604114339695, 992.032035258953 309.5788455679563 M993.227220043607 311.2567397114003 C992.3967787081439 298.69552576442254, 990.8912038705965 286.75194432569344, 992.224457011343 260.5503429262449 M992.4929529137244 309.58904032300006 C991.8234237241254 297.41232583805083, 992.7260891444505 284.20825639511946, 992.6510782044288 259.2192655593836" stroke="#000" stroke-width="1" fill="none"/></g><g><path d="M317.5005660539449 463.1659571778073 C413.2803016965193 460.1630230481719, 509.14040723349456 460.0896874744379, 567.522800308716 460.58865591913434 M317.8018576062377 461.31327716770807 C401.514416807989 463.47672268593504, 486.3780820629328 463.33458811433064, 566.722458621026 462.4166725339257 M565.8656443995008 460.2524310680706 C566.051888301613 496.60413124903823, 566.61949245005 533.1588629450944, 566.4652021082346 591.5416444443372 M567.2164291176692 461.9209961113678 C566.5236249447727 505.3530249460165, 565.8870116084144 547.0629931818215, 567.213702256536 591.4121139494565 M566.9133977771144 592.8556631822013 C506.30630684769255 592.3328975712997, 442.50116101143954 593.1579806645195, 317.83798535490155 592.0341703000721 M567.5590576897374 591.5170658094357 C510.85857994785636 591.4811988877527, 455.12215379859276 591.2360346298676, 318.449257182824 591.2322484269216 M318.7589398569297 592.4152471514076 C315.43109393694454 552.181979468657, 316.79810678967783 512.6616372804021, 316.27371154335583 462.22305316751266 M317.08493883781296 591.5129214919401 C318.07527988833385 550.4308853470739, 318.3599697818732 508.885098975844, 317.46773585955924 461.45208347375683" stroke="#000" stroke-width="1" fill="none"/></g><g><path d="M344.8144622430614 528.7922895179263 C363.08866021677505 525.415524236776, 380.921455581442 527.6786577515571, 399.2512765125426 528.9317685462659 M343.1290683983805 527.0780490808929 C362.79358966263726 527.305829331438, 381.5286597074503 526.3906662226151, 400.1888060137516 526.1933708717456 M400.45502579369213 525.737402342653 C401.2195310010503 537.0312706786966, 402.3490235116586 548.3270241242232, 400.1697682241374 578.3936919290726 M400.12800242799375 527.2483255491502 C401.1362529796445 547.5313444363472, 400.9685290194474 567.7647316307001, 401.48199221318447 577.6487592471663 M400.4397172421061 575.9449041083035 C377.7133255428204 578.6624169565807, 356.45915373049553 576.642853113175, 341.1755387154955 577.2420591378242 M401.0002907231693 576.1372436328425 C387.9380119669118 577.1594365136749, 373.82596941866456 577.5054471598156, 342.04611038362845 577.1883166761568 M344.0027088309085 577.1145155919157 C344.30435529322835 564.9812957362907, 343.95079808057227 556.0682986431635, 344.8163199180986 528.1681737733629 M343.89303610807116 576.2291204570303 C343.2543188078858 562.0726756184296, 343.05027386824213 546.736118969045, 342.5210915091716 527.4607384528521" stroke="rgb(0, 0, 0)" stroke-width="1" fill="none"/></g><text fill="rgb(150, 100, 28)" text-anchor="middle" font-family="Consolas, Courier" font-size="20" x="372" y="557">id36</text><g><path d="M414.1772192501043 525.1370189309332 C435.25171744049226 528.9012350723381, 451.64029981401575 529.3975224516237, 472.94317827987345 528.4168629527936 M413.75976616112115 527.9271642562072 C434.61984503692935 526.1817926584258, 455.67994337745074 527.035494718963, 470.95900956412424 526.4944993896986 M470.89777281311893 526.9799264360358 C471.01628389212067 543.5840825775126, 471.59853074349434 557.8806869509732, 472.6342186749767 576.6963581850481 M471.32614450275463 527.095689398034 C470.8469819152145 543.8601254304161, 471.0437080378846 562.1480474838314, 471.70814797158425 577.8821938512829 M470.8028859453126 578.8632396095813 C453.1154826497401 574.5721670925498, 436.3851194685245 576.8644900329251, 413.22268484329135 578.3965965159304 M471.5921944314417 576.0089777057569 C448.95726680082754 578.11198648365, 426.2093148732183 577.0008441514659, 413.47634052360496 576.8006936249162 M413.6745849733267 578.6457416671046 C411.990169366672 562.5874144324407, 414.4571256899783 548.8571426386021, 414.3595863522878 528.0786725084977 M414.338944231507 577.1241206849426 C414.15822234488013 557.8944661861499, 414.3290571231098 537.833321811447, 412.9492677672996 527.6581782232704" stroke="rgb(0, 0, 0)" stroke-width="1" fill="none"/></g><text fill="rgb(150, 100, 28)" text-anchor="middle" font-family="Consolas, Courier" font-size="20" x="442.5" y="557">id49</text><text fill="rgb(0, 0, 0)" x="407.25" y="557" text-anchor="middle" font-family="Consolas, Courier" font-size="20">,</text><g><path d="M485.335863138261 526.6614453952966 C496.41606671262895 527.0779037053427, 507.38658029478046 526.1727191664681, 541.9237714097561 527.7126044641763 M484.12859981289347 526.3721278629556 C504.2249714795589 527.1612153407733, 523.0157285753207 526.0552838916074, 542.3743091090782 526.1245783840633 M543.7197564652685 525.7330619577212 C542.5413153441144 540.5585660467258, 540.6433752129848 550.1624612147353, 540.8504767448255 575.5019250998499 M541.5039301538851 526.1531888261906 C541.3713887816907 544.4730059196002, 541.350872828267 562.7679272183042, 542.2551431431882 577.0665086320607 M543.7273624306687 577.8662296096651 C521.9093478617278 576.9346237187633, 500.1849088984692 577.1729906619179, 482.2052147679797 578.2530256851663 M541.491818290214 577.1544893827565 C527.9780302098509 577.418005571322, 512.850265224734 576.3690120124514, 483.25875664957897 576.4027319197189 M484.4053965126496 576.2711664558107 C483.8355916837836 567.129767725329, 486.3971625816021 557.2318470914149, 482.53619630990545 526.3588845793042 M483.9791079632685 576.6156445773826 C484.2504551185023 556.1699575923711, 484.52933672157957 537.6162754981814, 484.9182560038643 526.4833126162035" stroke="rgb(0, 0, 0)" stroke-width="1" fill="none"/></g><text fill="rgb(150, 100, 28)" text-anchor="middle" font-family="Consolas, Courier" font-size="20" x="513" y="557">id64</text><text fill="rgb(0, 0, 0)" x="477.75" y="557" text-anchor="middle" font-family="Consolas, Courier" font-size="20">,</text><text fill="rgb(150, 100, 28)" text-anchor="middle" font-family="Consolas, Courier" font-size="20" x="348" y="492">id90</text><text fill="rgb(27, 14, 139)" text-anchor="middle" font-family="Consolas, Courier" font-size="20" x="537" y="492">set</text><g><path d="M317.35601692589375 461.06262972406535 C337.2545630428179 462.8484469296001, 357.6442085998483 462.3574295728055, 378.47915686417423 462.63371863242065 M317.7837407478113 462.61689269587123 C333.8840489778138 462.5222108739787, 350.61292904204385 461.59658294961565, 378.6316564240204 462.92949610894595 M379.2606232338398 463.02371351288724 C376.86522177441674 472.78160790719625, 377.78958879902444 486.10638414352513, 377.4832588871136 512.8893692588043 M378.989877344132 462.0274878259324 C377.0886970818937 479.9734700569239, 377.0205185536094 495.7140301664536, 377.73293455897766 511.284942959871 M379.51139984541305 510.81208661795665 C361.91703602433955 510.6027083096057, 346.7065551322193 510.4362354759626, 319.2318530243976 510.0241288091758 M377.19775059805113 512.6894428927144 C360.38186020542537 512.5538661261648, 345.01934746295717 511.5599624747688, 317.03149167366496 511.7570754158655 M319.3523802132946 513.5306834924274 C319.6356238649996 499.689244454437, 319.59609686393 485.35656584169897, 318.7769440332053 461.4359465113762 M318.57718409879817 512.3126940042449 C318.3011005882632 501.7557437742755, 318.93383603843006 490.44170598511363, 317.8799095954271 461.7908386723595" stroke="#000" stroke-width="1" fill="none"/></g><g><path d="M507.0552856256443 460.49579265156814 C524.1536523561521 461.859202340807, 538.7721597585828 461.75983190583247, 567.9209151996345 460.2817754291034 M506.7159686637235 462.8617613828975 C523.1001479098048 462.72573525599, 538.8722957384588 461.84096588095326, 567.5224913042188 462.95839007675136 M568.8965631933979 462.9271736986272 C567.2459965614281 482.5715401216983, 568.8746996322294 500.0361263839916, 568.7070060405683 512.0498129172803 M566.0489162296262 462.03767764611126 C566.9219604121316 479.50064516610985, 566.8237514889432 496.19460964443016, 566.1562253700363 511.49988053453757 M565.531498977344 510.9051651859798 C544.7781684751258 513.8926753474682, 523.7644579986453 513.1779801046897, 506.54705411271766 512.2253662553577 M567.5524370306331 512.9751632989918 C551.6000267930934 511.0844320912997, 535.0995766727432 511.8544559144083, 507.0753590800735 511.93238580783117 M508.78447955811305 511.3357041502173 C507.5313602174214 497.82403142047684, 508.97149387009296 486.1410612179962, 506.455637081148 461.8175962757407 M507.3976269649818 511.34875075086995 C505.7413722478628 495.60346246003263, 507.13783789203285 478.75326001864755, 506.2993536572507 461.592915959892" stroke="#000" stroke-width="1" fill="none"/></g><text fill="rgb(0, 0, 0)" x="330.5" y="557" text-anchor="middle" font-family="Consolas, Courier" font-size="20">{</text><text fill="rgb(0, 0, 0)" x="554.5" y="557" text-anchor="middle" font-family="Consolas, Courier" font-size="20">}</text><g><path d="M653.2996653289016 537.9544521151747 C672.5845983885229 537.0080754127035, 689.867579483743 536.2460893579743, 700.8035775132589 537.017182327518 M651.5689887046794 537.2678321615533 C662.9019147070417 537.8577135804067, 673.4949930208646 536.999015012608, 701.5589479642898 536.9853130103334 M702.9298862471585 536.7944005408295 C701.1655393994741 550.5165328772057, 702.7845696756882 559.292333491146, 700.0755746688126 587.0159891699471 M701.3136953002721 537.2037005153799 C701.0066342221393 549.7561552764292, 701.6132304894608 563.8983828337639, 701.171123017486 587.7821077331953 M700.9582384970423 587.8079005617823 C686.630276742592 587.6130505351884, 670.4570215185521 588.2180749384626, 651.5796090431091 586.1153195386987 M701.833595456407 586.728693236449 C690.288296949751 586.4467314421694, 677.8031248954426 588.1298580729047, 652.064948891427 587.7653337779052 M650.6051750484022 588.7197273971591 C652.7750518368225 574.0714136236078, 653.229521534409 563.3270079537424, 650.9814393037324 538.823134982063 M651.6156551173854 586.8001170365897 C651.9757006572412 571.373086336074, 651.5647801447303 557.8133747135743, 652.8887075093179 536.3967028039743" stroke="rgb(0, 0, 0)" stroke-width="1" fill="none"/></g><text fill="rgb(150, 100, 28)" text-anchor="middle" font-family="Consolas, Courier" font-size="20" x="679" y="567">idx</text><g><path d="M653.3850645395936 611.3769449639129 C662.972007636895 612.4968793625404, 674.9458109399067 610.4162405303658, 703.4673705896975 613.853060350289 M651.8630979566003 612.3593246544953 C670.3809311477946 611.767972197438, 689.5244248826612 611.9458020609368, 702.7737231133358 611.7251257855559 M700.2862879846631 610.1589559343339 C702.7006765745414 631.8641114085282, 700.421640376578 648.1416037852373, 700.9003131256288 662.2380032038569 M701.0026059790002 611.707062394009 C702.2062377899595 627.0707248025154, 703.0263699947262 642.6937809512948, 702.3192693922498 662.4407269357489 M702.9179408134614 661.0497662747744 C689.8107530507536 660.8231430352299, 675.396518108697 662.9615843418485, 653.0537799968711 661.6089883424654 M701.7727883842856 661.0416055382472 C690.6400726369317 661.6113660253149, 679.282582483845 660.7675502082917, 652.1759863861311 661.2039091386531 M653.1103289658581 663.0141313585975 C651.8122226063268 649.3290182489209, 653.3668103708366 639.7357593064432, 653.8539870678707 612.589780277473 M651.5213968588324 662.7687314947915 C651.0620205428839 649.1165864006759, 651.0173211802736 635.2452751881434, 651.5238179243428 612.8617058965563" stroke="rgb(0, 0, 0)" stroke-width="1" fill="none"/></g><text fill="rgb(150, 100, 28)" text-anchor="middle" font-family="Consolas, Courier" font-size="20" x="679" y="642">idy</text><g><path d="M650.0454181687547 685.3783190164723 C667.4705192094126 685.5776165412038, 687.4595947738848 687.61948904555, 700.5269347183868 688.529435337119 M652.3020590856161 687.4031449063325 C667.7728391129874 687.2266688093035, 684.8349559208522 686.2551542199244, 702.2450148169587 686.0169571812211 M702.8701797579597 685.7023003909579 C700.4315906166592 702.9464318293582, 703.2475245511379 716.8176321917433, 701.6906131365295 737.4427693407542 M701.7956737995589 687.0257969710993 C701.2961645947478 703.148534576191, 702.1689975760735 721.7857230849734, 702.9927823357245 736.963474117542 M703.6105593928731 738.2710233289378 C683.37610060661 735.780127535768, 665.5752729049339 737.3399438708852, 650.3207625928098 735.2609542290014 M702.8839262748293 736.4482259561778 C683.7930766433406 737.4279643121873, 664.1235965040398 737.2047877015109, 651.9364712246801 736.9899384390465 M652.8174785919655 736.2683954434607 C653.4071827047313 725.0285046643648, 650.8015939945218 713.3252096329071, 650.4808226539966 687.0065100274207 M651.75252879322 736.8187370937214 C651.810386006835 722.9239177943177, 651.5225297047072 707.1900500292514, 652.5683469045862 686.02968809989" stroke="rgb(0, 0, 0)" stroke-width="1" fill="none"/></g><text fill="rgb(150, 100, 28)" text-anchor="middle" font-family="Consolas, Courier" font-size="20" x="679" y="717">idz</text><text fill="rgb(0, 0, 0)" x="733" y="567" text-anchor="middle" font-family="Consolas, Courier" font-size="20">:</text><g><path d="M753.7845803529176 536.618514284671 C775.5721851126789 535.9201872979608, 797.3417732542362 538.6547494424549, 813.5530661134852 537.8884620296769 M753.182140329047 536.8039784937586 C769.8479056383613 535.9795247310755, 788.1077248301788 536.527835547778, 812.7307931649235 536.4856350543681 M812.2751238095414 538.5944175739289 C813.0472970908168 549.4429181994761, 811.8500686811165 562.8609642560862, 811.624343822255 585.4156087913858 M813.303298108387 536.0957484839885 C812.3670029435447 551.468306190139, 812.7580179835501 564.6016635897148, 812.3893439609442 586.685281696024 M811.7015975962884 585.7136361367085 C800.8747107617039 586.9773212699644, 788.3605605246076 587.7243380624005, 751.4773646886387 585.5260994684952 M812.9695960506205 587.8498023368024 C800.8484982872553 587.4288650771041, 788.8561490031659 586.4735836549286, 753.9522140573158 587.5568962542874 M751.8176344016541 585.7316129174449 C751.410149637189 574.8297800622789, 752.2297379926256 560.1200405344204, 753.5047418274262 538.0208339511115 M753.6532892669794 586.9127811745233 C752.665607203007 574.241759450728, 752.7161353429115 562.8859688406526, 752.3123885978675 537.3510471446531" stroke="rgb(0, 0, 0)" stroke-width="1" fill="none"/></g><text fill="rgb(150, 100, 28)" text-anchor="middle" font-family="Consolas, Courier" font-size="20" x="783" y="567">id81</text><text fill="rgb(0, 0, 0)" x="733" y="642" text-anchor="middle" font-family="Consolas, Courier" font-size="20">:</text><g><path d="M751.8678386976856 610.6008868402927 C781.1399440490392 613.7421863089113, 810.8280202621013 611.6809563016612, 825.0407997939808 611.2616656199912 M752.8610907665739 612.1672696620515 C769.1722939413146 611.982167048841, 787.1808115393522 612.1039299597452, 825.4576557913945 611.4573578390059 M823.2616254935787 613.6173023272029 C823.0310100203463 624.6851454433715, 826.4073792294566 634.7627486770525, 823.0662727166622 663.3655404040315 M824.0928480985859 612.0360868799177 C826.316450124261 627.0273035565439, 824.5828747334617 639.9559650721069, 824.5336421305545 661.7070891908007 M823.4940055843266 660.5299713310588 C808.6559921728698 660.5692888439117, 790.8792374820451 661.3981839787505, 754.6299386480782 663.4609057288767 M825.7943655717257 662.9145196414436 C802.5271820297936 661.487791992399, 781.2162924329281 662.5142229791605, 752.7116271112446 662.7759936924372 M751.6342481097154 661.0143545615888 C752.0707449549795 649.6381371143452, 754.4028085165756 634.6330300500234, 754.9526861317427 610.5795170363334 M753.5192273256318 661.0594317242264 C753.0180263231491 647.0124858452866, 752.3184386380781 631.8439144217441, 752.8543415709033 612.7745701289988" stroke="rgb(0, 0, 0)" stroke-width="1" fill="none"/></g><text fill="rgb(150, 100, 28)" text-anchor="middle" font-family="Consolas, Courier" font-size="20" x="789" y="642">id100</text><text fill="rgb(0, 0, 0)" x="733" y="717" text-anchor="middle" font-family="Consolas, Courier" font-size="20">:</text><g><path d="M751.4324395231665 686.5532773109522 C768.4292215552875 686.3050112004045, 784.1711216084612 685.2998460051743, 825.4951180739331 685.62798288372 M753.0632365576428 687.409407493836 C777.3624627230208 687.0989029460013, 802.4980191122061 686.477327646751, 825.5563636809007 686.96223466463 M826.8255257624375 687.2471226853769 C825.646347577939 701.8313573231096, 825.2639793725014 713.7026154268793, 823.4447190779254 736.1434933869418 M824.6000507432175 686.5208038389718 C825.8334556983563 699.4902168110127, 825.0902501665983 714.4255667797355, 824.306471472029 737.1838780158428 M826.6451099402296 735.5609724129532 C801.5906503821907 737.438388665762, 781.2931501911374 738.0515315193189, 753.5087057582837 736.0934445016447 M824.0930744048376 736.2714088488594 C797.9856875252115 735.3977492300229, 770.4354809043996 735.8497627785304, 753.1045356259949 736.597505328819 M752.1521278672584 738.1564833893977 C751.1995864194125 717.1020161113014, 753.6604482565297 702.2404865096044, 751.2823639666334 685.6302074362571 M753.0356453182152 736.2866746837643 C752.9424383636882 717.9463565812679, 753.2598378302355 699.2107753407596, 753.6417864102802 687.9145906007218" stroke="rgb(0, 0, 0)" stroke-width="1" fill="none"/></g><text fill="rgb(150, 100, 28)" text-anchor="middle" font-family="Consolas, Courier" font-size="20" x="789" y="717">id121</text><g><path d="M626.9975244144459 461.6751737975804 C683.532930450352 462.097966620722, 742.6266155084816 463.2811012790957, 838.5003992607752 461.64984577823753 M626.5831597057494 462.0192045015838 C708.4181010101437 461.6260127994032, 789.256199029418 460.7633365848432, 838.8130969646985 461.9244946907598 M838.7540039753072 460.81135524621203 C840.7395849001417 524.886131737175, 841.5322681660217 589.9759508690937, 837.581960081495 761.2491234031329 M838.7584978856544 462.4134640039832 C838.8731107705612 532.2339021325732, 839.7592371438325 601.3769302651168, 839.2334668959836 762.5949544934906 M840.55182538468 762.7458571395791 C780.1452961916452 763.0025359773257, 719.2777065725317 763.3057569926578, 626.0054327700883 762.9804582475887 M838.7318144700856 761.3232837844457 C771.4357004897216 761.3478305929414, 705.6010102323751 761.1854972761229, 627.4024494264586 761.9675257455895 M625.6862264105433 761.1402240270487 C625.5921123874531 665.2619517929757, 627.1198404159999 569.7104701192246, 625.8709218752319 463.4486363196606 M627.0198567411242 761.8782359339106 C626.1720022656704 661.013960157721, 624.915830573771 562.0968811745083, 626.6813483741719 461.83214077886146" stroke="#000" stroke-width="1" fill="none"/></g><text fill="rgb(150, 100, 28)" text-anchor="middle" font-family="Consolas, Courier" font-size="20" x="657" y="492">id10</text><text fill="rgb(27, 14, 139)" text-anchor="middle" font-family="Consolas, Courier" font-size="20" x="809" y="492">dict</text><g><path d="M625.4592786081166 463.42346543972485 C647.5401976822907 463.0056148885816, 670.9359203103483 462.66220541502815, 685.9258002424328 460.4574010722493 M627.3787863461852 462.9334064198178 C641.0809211540196 462.95665790998055, 654.4254382601574 462.02073310046666, 687.392399609212 462.2869699306729 M688.7160308885612 462.03462052471644 C685.6805964961469 472.7661457781003, 687.5069277937896 487.9438644096494, 688.6471365679818 510.9751654153026 M687.2942895152671 462.16430085491635 C686.9197033738761 479.3435342417391, 686.3665782079348 498.38952550357425, 687.3868761785733 511.9676363856747 M685.5695245970242 511.9265394864675 C667.9637638229813 510.48904175663756, 648.2442850631159 512.7192934272282, 627.1548841077266 513.2872250460664 M686.8551188908249 511.8931402891497 C666.6478963394214 513.5061491921706, 644.7873984883929 512.8974401409655, 627.593960362494 511.96678164581476 M626.0886793280622 510.00848277147367 C626.9372707647037 493.7100384810571, 624.9272196460623 476.3563415435292, 627.6498886995944 462.50999391924404 M626.7213154098986 511.50814482283727 C626.0317458428596 492.8273616973925, 626.1599698007714 473.5437062230883, 627.0080207859828 462.39975910732744" stroke="#000" stroke-width="1" fill="none"/></g><g><path d="M780.5834978415032 461.71747664747267 C796.5545795052353 462.49781722261616, 809.6829808162834 464.36099034264913, 838.322030825094 462.5963077755974 M779.0455812596573 462.98163756084546 C801.7728934029999 462.57659012820574, 824.1247143133176 462.1009542639553, 839.1014290874398 461.31160044595003 M838.8385466971159 462.05473705293014 C837.3082949513891 479.45571737929026, 837.9279250280199 495.3788293620689, 838.9953982138045 510.4637615547327 M839.8339683570823 462.9050148217204 C839.185841151747 476.6972384940793, 839.6379624213816 489.6378457515489, 839.5199122626362 511.8556963547892 M839.9639638200366 512.4861347531755 C814.6992598759233 511.5617848652444, 792.0678379225653 511.4327071378838, 777.7090654446246 513.1885101937493 M838.1128806790276 511.13069378813407 C823.7696172482634 511.489224393951, 806.7750547988738 511.2506104828173, 778.4032502657965 511.2945351956932 M779.7058996712093 513.8864563529459 C779.4409378981297 502.554589270673, 778.6684679826361 491.04305984837254, 779.2981178477804 463.0479487322995 M779.4529897779798 511.79244459580985 C779.6524548479043 500.3432952244338, 778.9546795712353 488.97814836205686, 779.9125813560768 462.34843882432466" stroke="#000" stroke-width="1" fill="none"/></g><g><path d="M897.3396385690526 462.008173200566 C943.0388991448389 461.6919626952855, 987.370103448903 461.8506918462158, 1098.1223494530507 460.5446448358794 M898.6252066071726 461.70615569346955 C940.6330117859737 461.87376253792763, 982.1167050102687 462.02451147381635, 1098.2316473809524 462.1648247866774 M1097.0603406243317 462.71285029565837 C1098.0264842556626 508.1066874054379, 1101.2866099343555 554.6382194035609, 1100.04221116818 593.1005010980618 M1099.216188563229 461.514879489532 C1098.90984107302 510.0066357692805, 1100.1356638950335 557.8259812219197, 1099.2087101409793 591.0318163361316 M1098.022087129364 592.2065047948408 C1031.332548674225 593.0021871772044, 964.9315434195757 591.2809929831564, 900.5569619752173 593.2072084108082 M1099.016194558259 592.4216446126768 C1052.105135834166 590.4914179103164, 1007.0408559165118 590.8934019337663, 898.7113013786701 591.8071096955996 M897.7658901327425 593.4705459882599 C898.4814048057711 541.4981045311537, 897.7608232942653 491.1876372076555, 899.2651845125176 461.62729078022466 M899.1869311435395 591.3748244925753 C897.7761705642506 558.425353227657, 897.6572528785512 524.0289942489295, 899.2661991760596 461.9505332251221" stroke="#000" stroke-width="1" fill="none"/></g><g><path d="M892.1702116483286 457.2976100602761 C962.5296595117665 454.4864855226819, 1031.4766029244051 454.6048177208508, 1106.5241502494046 454.8863444363344 M893.3055654243321 456.7128367955159 C945.0600219807839 455.5048348531964, 998.7502089249014 457.0655012629642, 1104.155196164831 455.38544566783224 M1104.622355046545 455.5764043290086 C1103.166129288306 505.28615577017155, 1104.2790820826337 552.711302796214, 1103.1035076108271 597.3011350163725 M1105.3575313697086 455.99767042764074 C1103.4024543404657 499.518582409844, 1104.3324192975138 544.953003150897, 1105.3746798758352 598.4418278738826 M1104.9495838892776 596.5634790186683 C1034.9195479858581 595.0464714442344, 963.7892512663666 597.1603536092119, 892.8346823704431 598.30256447708 M1105.4118257837658 597.4921865745433 C1037.8502975635154 597.2740892801614, 969.854070320802 598.3405299767761, 893.5132883881786 598.1851525731947 M892.0948387670976 599.7724661270527 C892.5959773492893 553.6372321720733, 893.0690030723518 505.7735218829189, 893.0611779154846 454.3175249657482 M893.2475570161166 597.8787749027896 C893.8431967959104 561.5088179726552, 893.487156647849 527.2932545496369, 893.1815369892165 455.2695730655042" stroke="rgb(0, 0, 0)" stroke-width="1" fill="none"/></g><text fill="rgb(27, 14, 139)" text-anchor="middle" font-family="Consolas, Courier" font-size="20" x="999" y="552">"None"</text><text fill="rgb(150, 100, 28)" text-anchor="middle" font-family="Consolas, Courier" font-size="20" x="929" y="492">id13</text><text fill="rgb(27, 14, 139)" text-anchor="middle" font-family="Consolas, Courier" font-size="20" x="1069" y="492">None</text><g><path d="M899.9621692878908 462.62051503150957 C922.4419495207649 461.33543079342877, 946.4818630096153 463.5794848650368, 959.7631521389718 461.4258109296222 M898.751939746974 461.47532522716165 C919.3817493249662 460.87606985684926, 941.1933540164707 461.88941912453686, 959.0258980746529 461.48967077267514 M960.9499269388888 463.45791199299987 C959.5707295466182 472.9331771184959, 960.8077774519619 482.51790422591637, 957.0621179884716 512.0258867899338 M959.0654732806294 462.0330705316868 C958.7437913534485 475.983857186948, 958.0745007286877 490.0815834184618, 959.2874566581102 512.0169117714075 M960.740674529601 513.728108131935 C946.3326973878177 513.0092749061635, 931.6173638404797 511.74725164210514, 899.894222540002 511.06838108624453 M959.1627370345086 512.3619407894814 C941.0156422149519 512.7018686022838, 922.9321620565671 511.4287085620335, 898.6868983418785 511.8754112934839 M899.5168468560148 512.2501903074516 C897.4668223362047 492.29041590412214, 899.8578615133827 473.84766066818247, 897.8593537287568 462.7713475717349 M898.4454794753709 511.5275800818721 C898.1638275191623 491.7038481255068, 899.2128889320044 473.25804444564017, 898.980620495683 461.3780256511433" stroke="#000" stroke-width="1" fill="none"/></g><g><path d="M1040.9456274713953 460.5719068966934 C1053.235733083341 461.591994880516, 1068.5201966890738 463.6010148282853, 1100.8456752640973 460.61107399799204 M1038.6750758038559 462.26301928680954 C1060.0516416679638 462.80639885873666, 1081.048875928305 461.65765225116905, 1098.4501341814375 462.865283717184 M1098.3933237378544 461.61436980058016 C1097.5865402726859 479.2467428678017, 1099.6320176568784 491.70368856347864, 1099.3290721987566 512.8282719206812 M1098.0346495203232 462.02173388346847 C1098.7713856210303 479.82336994491084, 1099.7091491381323 496.72261007410367, 1098.9665929666512 512.4577264321512 M1100.9684254287763 513.7740944857944 C1083.0046540334608 514.0319579696303, 1070.914874971601 514.1262470258274, 1038.4074941733336 511.4807715123544 M1098.83268430465 512.5173144655771 C1075.2286844570572 512.0103476398532, 1051.7102442221324 512.3878631557111, 1039.0434475671632 512.7088413133765 M1037.430729879818 511.76146259947006 C1040.4728223816364 499.61466016589736, 1039.5349751507028 489.8250000289943, 1037.503371603756 460.4557573551402 M1039.2008654618364 511.1394180237518 C1039.9633016572843 497.0170351717544, 1039.184655859616 480.5644491933936, 1038.3225150752855 462.1398927371045" stroke="#000" stroke-width="1" fill="none"/></g></svg>