<svg width="1300" height="1100" xmlns="http://www.w3.org/2000/svg"><g><path d="M8.776669792714436 11.83053622384276 C75.01932917799004 10.367188123313358, 141.3919976446098 10.977223000097974, 207.13893414143257 8.69422951813474 M9.363557488361296 9.350935469142113 C60.31024985977856 11.966373506346757, 112.09263156748139 12.286665503950488, 207.50304582936576 10.779634978056718 M208.2969576857198 9.934952519150933 C209.4142526481094 69.71754682133563, 211.29099732876668 126.63451060410843, 207.06470127869684 235.42807273945832 M207.82718139917864 10.471833580295915 C207.0879066141684 68.7859126426886, 205.83457154170867 127.74845404195123, 207.3537610953272 235.2902744834529 M209.38951966713816 235.72065631118002 C165.64896658325273 235.75320135098457, 125.96821397487692 235.78117565873666, 11.544474004794672 234.40046511416688 M208.047290588107 235.2530565272147 C133.32096516574939 233.13707256087167, 60.93741416653157 232.87370050697663, 10.613401423401552 234.56754817911224 M11.071605413489058 233.62289784211305 C9.834120087175293 167.4703442205748, 10.204081267689174 98.73506447839314, 11.478710668728423 9.352251765473413 M10.169758360449634 235.48744358428186 C10.512556775441599 172.34653389889397, 11.324787630405542 108.78537592952549, 10.191021557095409 9.817834029247672" stroke="rgb(0, 0, 0)" stroke-width="1" fill="none"/></g><g><path d="M133.4676881622307 86.72796773837165 C150.93062042952687 83.48962429214646, 168.37738864190837 85.85455095663198, 192.58180132457343 85.46137083105411 M132.57700082717793 84.59817461833181 C148.56542586156746 85.7389596500413, 163.04274507099166 85.59872612884993, 190.0115306337351 85.24569922576504 M192.72850389821443 84.80678347233138 C191.2830597936562 96.85488646101638, 190.79718786553093 109.2834903945185, 191.37482116603474 134.64100738797129 M191.55777909137808 84.43759458293525 C190.38644369513244 96.29660015100157, 190.48106911662495 106.75204728400972, 191.89060681231808 135.10881640683442 M189.68955151605053 133.36423402631877 C177.43877362276632 134.9000392999953, 165.91649187111278 133.6534114171934, 133.95072110326154 134.2361286581095 M190.1834691437493 135.21214379267371 C177.61261421662786 135.21115345333834, 164.7406044272199 135.128828703145, 132.75084866337286 134.68976927303717 M131.2734987108589 134.99040847339097 C131.4740463739856 123.76248105447306, 134.13337819957752 110.09705730391767, 132.53094133313294 84.45071185851006 M133.2554050669337 135.04484350133643 C133.7566896700014 121.09018520327105, 132.23407112983222 107.98354140313386, 133.22305456826294 84.75197242774198" stroke="rgb(0, 0, 0)" stroke-width="1" fill="none"/></g><text x="35" y="115" fill="rgb(0, 0, 0)" text-anchor="begin" font-family="Consolas, Courier" font-size="20px">age</text><text x="162" y="115" fill="rgb(150, 100, 28)" text-anchor="middle" font-family="Consolas, Courier" font-size="20px">id12</text><g><path d="M134.63433618447607 159.20917511642836 C146.6420281908524 158.24605869278741, 164.93872919759661 158.854522266059, 192.90018085307412 160.98095799713963 M132.3863296702983 160.50469318083685 C144.9221692296161 160.12587796731125, 159.05196286806284 160.3191106261422, 191.8059398521691 160.7542451717325 M189.47588709389493 159.33040864403702 C190.53723389166797 173.77587080399525, 189.5850517940024 191.23786569806674, 189.77436016981025 209.64857893846212 M191.19906018216307 160.27285855072938 C190.71507466737225 173.91544499656283, 191.58261815534004 185.68157019833367, 190.89913651604317 210.90026417137824 M191.85136869629926 211.1188868877177 C170.20127631242957 208.94791090176807, 148.60304022858065 210.74080726839045, 132.8711836653151 210.45791639489565 M191.48922636948623 209.7878048782852 C173.6123689845491 210.07866810542717, 156.9898443241857 209.904499365626, 133.00494920477865 209.8440746737352 M132.75420820940428 211.6430520482683 C131.46782667204022 191.3763628074227, 134.62350033462323 174.81888868929283, 134.20621501265316 159.7370484099176 M133.37713411363228 209.75202414985236 C131.9801436784978 195.34662275045883, 133.07447301663188 181.63563307555037, 133.24834815101676 159.47343922987605" stroke="rgb(0, 0, 0)" stroke-width="1" fill="none"/></g><text x="35" y="190" fill="rgb(0, 0, 0)" text-anchor="begin" font-family="Consolas, Courier" font-size="20px">name</text><text x="162" y="190" fill="rgb(150, 100, 28)" text-anchor="middle" font-family="Consolas, Courier" font-size="20px">id17</text><text x="40" y="40" fill="rgb(150, 100, 28)" text-anchor="middle" font-family="Consolas, Courier" font-size="20px">id99</text><text x="167" y="40" fill="rgb(27, 14, 139)" text-anchor="middle" font-family="Consolas, Courier" font-size="20px">Person</text><g><path d="M8.169867992847603 10.363183275382367 C31.48384691059624 9.050115614761106, 51.22136035771789 11.518636164619792, 69.10974763091646 10.866897674661221 M10.627414124370786 9.477020298495837 C31.86569371570994 9.65138350023286, 54.01823546005761 8.690717142547658, 70.0963040377044 9.429889851158936 M71.40854868035457 9.869207981136643 C71.97534441917338 21.72926148019676, 70.76896605327485 32.050298382689334, 68.6013771716368 60.802781252182385 M69.13998451933355 9.685972531210037 C69.77432566077592 23.01597192032063, 70.98822285628724 37.472542297654556, 69.83825667492792 60.21093419615433 M70.45052161361932 61.035039180407566 C50.374228429519604 58.43614244086211, 35.04684889218856 58.60191286368457, 11.712927577531726 61.24958771612008 M70.43950444386465 60.79486118245609 C49.33144851326124 59.34646632423086, 28.690105791432234 60.11526084458633, 10.717338901695182 59.46536311248984 M11.435466826511199 60.329878249421284 C8.986601182368524 47.738540825191485, 12.096305837156713 39.422676989099514, 11.93825986200692 9.353549547405326 M9.163177822531669 59.1529985283108 C9.890299851269967 46.24273284857869, 9.940472295420955 31.439611557323538, 9.226234400344405 10.005777646166926" stroke="rgb(0, 0, 0)" stroke-width="1" fill="none"/></g><g><path d="M125.39860287824797 10.235984169479028 C146.3704372808355 10.044799561608002, 165.83396815294466 11.424496371857305, 209.34053049845107 10.793367739817583 M125.14662167724434 9.829424623708741 C147.30079192387393 10.777417326519302, 169.59611376494755 10.436081176181965, 208.85484840758448 10.63992799225143 M209.1082945094048 10.28668821595215 C206.66844721812816 24.919649691526413, 209.5556691564258 39.924093567586795, 206.91486583821305 61.08598545437183 M208.87312070837913 9.956549569138435 C208.08579270263166 26.75689770829935, 208.1173411771124 41.87756538567114, 208.8649892896352 60.61327560742531 M206.42824405718034 60.99610467958359 C189.68754196159512 59.85714525187135, 168.9502372753724 57.960359110467245, 126.15929399359621 58.318072108630204 M208.1945524470141 59.96439175515559 C183.13344319311776 60.62477464438145, 158.39296543243128 60.30722208522983, 126.14217219091756 60.96334863932968 M127.16209986693029 61.57564413421839 C126.45867607922474 43.22907553397187, 127.16527640160402 26.467135689692608, 127.81045517709327 8.969363368652196 M125.2624280207094 59.117724162071816 C126.07907461473052 40.858671709655034, 126.39025980039372 22.27378196235955, 126.83023010926077 9.570244381363398" stroke="rgb(0, 0, 0)" stroke-width="1" fill="none"/></g><g><path d="M9.578834749235195 351.87353251159544 C74.11409503794029 347.94224923943966, 136.65474461845415 348.3159965234912, 175.1824388818332 350.6536801084801 M10.203796048219338 349.41496171014404 C63.31345496566673 350.55277660470887, 116.3981525034873 350.7278625663161, 176.80197071120475 349.3755295053727 M176.0151384611381 351.20938430679774 C175.93289222398712 406.7557287012275, 173.5622650025908 461.03123381271394, 175.37878570719045 575.987996079698 M176.48847397490312 350.46005786869387 C177.90471980059527 425.5314773861248, 176.52616144771542 502.28574568179783, 176.312182059096 574.9969017548591 M177.58297965931968 576.277502836064 C143.84325335266993 575.0694725338137, 110.2217450833046 577.1185895175803, 8.626171330280048 576.6222358814098 M175.43397648223154 574.1769408280632 C112.69444409141228 575.215253941011, 48.90283106623514 575.4709281078204, 10.140062767578613 574.5415505170844 M8.849969248445882 575.9676877528469 C10.24150598297838 495.040254576938, 9.862458481228146 417.6379486520717, 10.53558808878096 348.35363210730424 M10.357071858696667 574.5992898211204 C10.563166696730187 510.42236670744427, 10.540294703313311 445.96804423594557, 9.945522380543766 350.8427515592968" stroke="rgb(0, 0, 0)" stroke-width="1" fill="none"/></g><g><path d="M100.86102570603023 423.32175543116864 C118.44290408036179 424.7081579305064, 140.13097922883094 426.5821265085708, 158.4070043564816 426.19614567026053 M101.2131033761354 425.24631367053973 C115.44709591619652 425.2444267514838, 128.522752591962 425.89424773561797, 158.47591490061944 424.92011801773697 M160.3494849415312 425.91618291634626 C159.1823513589115 437.06794816841256, 158.9768368768244 446.88267002713746, 160.49167704586148 475.1081755228711 M158.99417333015356 424.2063873351017 C159.54620837404485 437.0137802320003, 158.9088385596763 449.5781471945562, 159.16987011090364 475.63640132495317 M160.23234017465765 474.2033374167051 C139.1500946714546 474.9241734485084, 115.80460316304226 476.1789653084888, 101.57551675109369 474.44723767025386 M158.67394317245757 474.37239667387064 C136.37165450182943 474.879816341844, 113.47581002821303 474.61403966905766, 101.21723516060408 474.59188602380993 M100.64344291392808 476.45124684389316 C100.77160205241086 456.17169336710714, 101.06962479086641 436.9962623881874, 99.12833581456361 425.82275605752943 M101.23206676945073 475.0052795531969 C101.83575328019181 465.57208041954374, 101.21048538780744 455.3402192491405, 101.33697297826605 424.4586942801324" stroke="rgb(0, 0, 0)" stroke-width="1" fill="none"/></g><text x="35" y="455" fill="rgb(0, 0, 0)" text-anchor="begin" font-family="Consolas, Courier" font-size="20px">a</text><text x="130" y="455" fill="rgb(150, 100, 28)" text-anchor="middle" font-family="Consolas, Courier" font-size="20px">id31</text><g><path d="M99.267972051007 499.4264149216574 C120.37843494490217 501.5706208924014, 142.57504037718041 500.28506330279527, 159.89338603132182 498.16391476270314 M100.973831980148 499.0746958635733 C117.59965992756555 499.55594744442317, 133.1179771822867 500.436430095107, 159.5680995232464 500.66274636282014 M158.5433903650594 500.95433548249537 C157.17747058240036 518.54728505963, 158.11024149738412 541.0630875465712, 159.2222810227514 549.6192632597953 M158.04208481479563 500.3074027627541 C159.5810176954404 509.28800465100767, 159.2254294905019 520.9299794491506, 158.654058812304 550.5250375614602 M159.06836065986388 548.3419113435904 C139.1838413636123 551.5547049520608, 121.39088948572183 549.4075338071316, 102.00321701212708 548.5913632998959 M159.46789872732757 549.3394548616178 C144.67868370675836 550.6978151121137, 130.50169574229056 549.1506709217007, 100.4059327316044 550.116299308809 M100.9683183780391 551.1510401014942 C101.62681902974671 536.1721468109928, 101.78604122840034 521.1404492093226, 101.28592165860576 501.97909272626293 M100.63181737765385 549.5249104695858 C101.74436072273409 532.505040641644, 100.84516821904755 514.1498272967568, 101.39575283425089 500.3931480397081" stroke="rgb(0, 0, 0)" stroke-width="1" fill="none"/></g><text x="35" y="530" fill="rgb(0, 0, 0)" text-anchor="begin" font-family="Consolas, Courier" font-size="20px">b</text><text x="130" y="530" fill="rgb(150, 100, 28)" text-anchor="middle" font-family="Consolas, Courier" font-size="20px">id27</text><g><path d="M11.949710294415365 349.37717970403776 C37.56087277752371 349.2680148674659, 68.57479705303874 348.35946733601224, 114.22433744205652 351.86272950151675 M9.152596314404713 350.9891393886521 C46.34354751525283 349.6606432281414, 84.05613771189137 349.9121642380313, 115.83061654625449 349.0194773575987 M117.75540787934456 351.53010596289147 C114.01513932766218 368.43490052824484, 114.74700332916323 387.9053759264766, 117.77664422080818 400.457348412194 M115.54528819630309 350.2796360865472 C116.34528993492081 363.9758889315985, 115.8740877173934 375.6722395068641, 116.96359453557392 400.188228450025 M114.36878558040108 398.4133865800041 C83.56891903506636 400.7900712620527, 52.03279794503084 399.3279965079816, 11.396434437221313 400.92425738477453 M115.78565758457707 399.6406570399522 C95.25223804554258 400.3690620770625, 71.9010878942434 399.80967652765986, 10.724695539341234 400.47649716416936 M9.120200571906135 400.7158871808999 C10.507961224503994 381.36634437850137, 10.176889071660145 366.149450366547, 11.79807676029681 348.8974518828243 M9.059983476920829 400.14198352381044 C9.147312823799679 380.88134392881636, 9.09955099619538 359.5380727298969, 10.858441752046666 350.92858180380165" stroke="rgb(0, 0, 0)" stroke-width="1" fill="none"/></g><text x="63" y="380" fill="rgb(0, 0, 0)" text-anchor="middle" font-family="Consolas, Courier" font-size="20px">__main__</text><g><path d="M9.629488532965972 598.8838118165808 C67.97618160307464 600.8852798719867, 128.24188311172082 600.8238235136247, 291.9796350592156 598.5113945489917 M9.88246032499147 599.3062901267257 C80.92633700835925 600.5175544605744, 153.07812083590017 599.9453859176158, 291.7361449688167 599.8716884064993 M290.22243560275604 601.9505324929944 C292.2949832072617 629.1085886840909, 291.23854772772336 657.0127882110797, 293.72414234851334 731.1149713436406 M292.92257317392097 600.1280081542211 C293.32977489651216 639.3964229396197, 292.54017152356283 678.2672264951467, 291.7461483375117 730.7415515117597 M290.5029904256814 729.3665016539956 C203.59198224053574 728.9695999081838, 115.36461019098975 729.071585334184, 9.58107428345218 728.8414442708099 M291.42908609953304 730.5962611130318 C229.05655440249308 732.7045640786065, 167.52364559681445 731.3109772921651, 10.701128784160817 729.3721578738423 M8.342888761522998 730.2067514937785 C10.80376953168976 697.423609526093, 10.483541731312481 663.1747905045995, 8.665031988440617 599.2792373310399 M9.256258914313552 729.70681464486 C9.42467164131042 700.993602189851, 8.33767611687475 670.973258839896, 9.644952222843731 600.196717280704" stroke="rgb(0, 0, 0)" stroke-width="1" fill="none"/></g><g><path d="M35.948995513408576 664.4079792768966 C46.41659122428055 663.1330875979647, 61.15019047908279 663.2517319174395, 91.29853283561748 663.6477070805555 M34.8473617977769 664.780494039091 C49.6302142437057 665.5173321571901, 64.78966160208675 665.6768033241005, 92.57437755015337 665.1145430659734 M94.19532735284984 666.5210483177368 C94.19724319069874 678.0116729872196, 94.40295147892495 687.8459850660468, 92.67249087918671 716.9758770483544 M93.23968049785486 665.2280628253577 C93.67915443387686 682.898907669071, 92.85742079345528 702.270145807985, 93.44614059363036 714.0317561980612 M94.33574817452029 716.2766325658573 C81.03607197636143 714.8661528766202, 66.37942037861924 715.0871698875209, 33.54001186778032 713.0115373804455 M92.06112297147634 715.1592518939123 C76.2912784769781 715.6508498235105, 58.18315400121038 715.0757931610967, 35.4206052916608 714.1965503741503 M33.92639632006457 714.9750132968134 C33.953504188310106 696.4815567278271, 34.83527772884977 683.326401012505, 36.09988272478132 666.9614547585845 M34.12139785947845 715.6275751518591 C35.15064552193592 694.7211328255103, 34.19613825021881 675.9565092952002, 34.72892083173472 665.8822425148521" stroke="rgb(0, 0, 0)" stroke-width="1" fill="none"/></g><text x="64" y="695" fill="rgb(150, 100, 28)" text-anchor="middle" font-family="Consolas, Courier" font-size="20px">id19</text><g><path d="M94.07841470403058 664.871203511385 C107.98416009718896 662.9807125475105, 121.96887553377032 665.485895552641, 151.27870085257618 665.8525826947673 M92.32989575429998 664.7634493966162 C113.99435171504213 664.8169814492635, 135.30072068820473 665.0563722315642, 150.81342759778101 665.8402385888857 M152.62214802999821 664.1631022141959 C149.25316226067554 677.286969919906, 149.87241296554276 689.2935111345854, 149.15197939432628 716.3143701606211 M150.9613182197277 665.560618297579 C151.20010598538784 676.4537831434665, 151.0517930767553 685.8390751236208, 151.55978402373512 714.2473899736411 M151.5383638467854 715.5785793120509 C128.86602972866453 713.8567684825287, 108.32670887257247 714.7256080270357, 92.29484173289808 716.8672633159458 M150.0559730089402 714.7573868443798 C133.04009366159187 716.2998288788159, 114.08650120935202 715.8046495459778, 92.61882205886063 715.9214346409956 M91.40355064947065 714.3904800638344 C91.80900840699074 693.9092779867618, 92.29757147440294 677.3906559137222, 94.25722902791887 663.1824770569483 M93.35167071082428 714.1014604029424 C93.26556650161383 701.8783271627208, 93.09730604785594 688.6872435999, 92.90894830114635 664.26045871957" stroke="rgb(0, 0, 0)" stroke-width="1" fill="none"/></g><text x="122" y="695" fill="rgb(150, 100, 28)" text-anchor="middle" font-family="Consolas, Courier" font-size="20px">id43</text><g><path d="M149.01815663500687 664.6893066412089 C173.53209085396327 663.6734453318224, 195.14388434490394 663.4647268557088, 209.99094061258103 665.0353189003121 M150.14197262018592 665.8084133520933 C164.32757525183436 665.3994304835893, 175.6537086103409 664.016901649674, 209.60169901299471 665.3213640388527 M207.60593753447753 665.0933398200242 C207.0870535200687 684.7736937851928, 207.14730755394527 702.7918589858467, 209.85662394559282 714.9021501317571 M209.23056731677127 664.7948342484196 C209.12994606914495 682.3668386596994, 209.16667368933562 701.5214477910253, 209.1449417480079 715.8122393486466 M210.46707575043268 715.7298536994368 C195.4903432345156 713.8731342182506, 178.45707521267644 713.7359844065586, 151.92390727177428 714.6373338266496 M209.31894668832086 714.1036727709147 C195.50349401465238 714.4594959604573, 181.47744162164736 715.641633753884, 150.39405913546676 714.1178192076225 M150.4574965105063 714.5788583945363 C151.18359821595536 705.0844251916523, 151.90497173265638 691.2416905668268, 149.66840387375046 665.6646165254406 M150.8633816324993 715.1725361692546 C150.87258993357406 703.846827588319, 151.74101713828637 692.4775015966956, 151.26775581543572 665.3131740367822" stroke="rgb(0, 0, 0)" stroke-width="1" fill="none"/></g><text x="180" y="695" fill="rgb(150, 100, 28)" text-anchor="middle" font-family="Consolas, Courier" font-size="20px">id28</text><g><path d="M210.28155629242477 665.705001234315 C226.54702648235812 663.1518075037892, 241.41833986672827 666.55194486996, 265.8605927688393 663.1713193878377 M209.25481980389466 664.2334395062982 C220.48681569560398 664.0413756322919, 233.5218427302827 664.2676888976017, 266.6550712254935 665.8172285119574 M265.035876290561 666.5047929809771 C267.89320109745165 686.5061182105852, 265.4420582831923 702.9358897972727, 266.62312050973287 716.6493980193783 M267.0456002334808 665.3183089053965 C267.8780450074214 681.3157357440037, 268.23012970336174 699.3464317984482, 266.9010796898919 714.8468143224082 M265.2375079999762 714.8044359777641 C243.27442306700465 715.0449478402645, 221.94593767394113 716.3412981080884, 209.0265523814693 715.4036038719219 M266.2079258010513 714.0225528841411 C248.1681868671047 715.8529087223765, 230.60223082419833 715.3119353147916, 208.0618730755156 714.2693258879807 M208.96112632027686 713.5398408340611 C209.1530819507181 700.667478708933, 210.53532514224796 684.399786847713, 208.8446362213789 664.943501029115 M209.61915537349972 715.5150880057798 C209.78588202535556 700.1663064991499, 208.53944939865616 685.4793289578497, 208.00862106666233 664.3407731455092" stroke="rgb(0, 0, 0)" stroke-width="1" fill="none"/></g><text x="238" y="695" fill="rgb(150, 100, 28)" text-anchor="middle" font-family="Consolas, Courier" font-size="20px">id49</text><text x="40" y="630" fill="rgb(150, 100, 28)" text-anchor="middle" font-family="Consolas, Courier" font-size="20px">id82</text><text x="262" y="630" fill="rgb(27, 14, 139)" text-anchor="middle" font-family="Consolas, Courier" font-size="20px">list</text><g><path d="M9.567979168029838 598.3557114998853 C30.207722601197986 598.3604446632859, 51.279220338442926 598.1715934378605, 69.33744185739125 601.1927817361068 M9.999956253183504 600.5258563544503 C26.228709422385354 599.9248260843698, 41.72584175664095 600.0749841731907, 69.41488622250202 600.1842532441086 M71.99253383674079 598.179724537254 C71.62616977056213 615.1769218268515, 68.97818932190118 632.1711880433863, 71.45141158675446 649.4053525003068 M69.83802350401795 600.3089850038825 C69.69671985531106 616.7687456446048, 70.36901690712739 633.9771351227121, 70.79013564209556 650.9882051001495 M70.13284864384487 648.505679526657 C57.372219095815886 649.4531659455357, 43.9083177417712 648.8883337761578, 9.786446031837912 648.752144566964 M70.73275745693154 650.4820285348756 C55.39557612599358 649.1030079348474, 42.168919133644636 650.0679410040071, 9.325065475589236 649.0185328815388 M8.870531561021796 648.1409157617643 C10.609024319221767 641.2008527828411, 9.782234714719845 628.8309380022665, 10.737264841710061 598.4134235102039 M10.833850900088304 649.2009395532777 C9.85529680986565 631.8558739483461, 10.431762483214001 615.0472169791138, 9.54013478518499 599.9370343113333" stroke="rgb(0, 0, 0)" stroke-width="1" fill="none"/></g><g><path d="M230.13529422666 601.2538274378907 C255.2960177380115 599.3355473152739, 277.80929222276717 601.9002132783004, 291.3428294103645 599.1675510097014 M231.54218659255875 599.9843394755097 C254.02900123207803 599.2738146210148, 277.809595005627 600.5234072578847, 292.0327500439309 599.8082947866211 M293.59257780797907 600.1015403551577 C293.5513374832268 618.4617499022975, 292.22392571421557 641.6249179352706, 290.91514839976793 650.1786476381792 M292.181787616255 599.0420755837685 C291.7837028938581 612.0508229637678, 291.35718529392483 625.8251534322275, 292.23791866220085 650.8118919408066 M292.1809311282237 651.443921063715 C271.15113645344127 649.7056589374248, 253.8795362605149 650.4894535895938, 231.95119813163362 651.6851716839259 M292.8605298475232 650.6810411589571 C273.7955405519948 650.7764919441013, 254.47667333099645 649.6370077699014, 231.84016610989696 650.4042946389065 M230.47876944603993 651.4033333634303 C232.16020970734564 634.8573774547586, 231.3378659242885 619.841180630314, 230.62385647620363 598.7332614018702 M232.39960349470837 649.6177630773097 C231.79096815152914 631.1204580112349, 230.62277184640888 613.4602351703369, 232.62803128806618 600.4052161185887" stroke="rgb(0, 0, 0)" stroke-width="1" fill="none"/></g><g><path d="M351.0512314023402 10.938521723430396 C412.38637962648903 10.181438922986818, 473.46657293861756 11.816592933981703, 632.4603150785363 9.661030409309452 M349.4437886793866 9.336956435632336 C444.2423731075936 10.94784497963962, 539.390173379514 10.778473044567331, 632.1996398452605 10.158134027830934 M631.8960004743758 11.29385823920223 C631.8959328426268 61.70398383437659, 632.2528399658067 113.79784357828734, 633.544038253801 158.35661093324822 M632.540911844801 9.329675323360286 C630.6072782233618 47.11195317698418, 631.7616544979043 85.61394152661278, 631.6974234426413 160.7476202915102 M632.8100667491871 161.49820863928625 C565.9762287021257 160.01237908754106, 496.1154777479662 161.55092209310325, 349.0625724587618 160.47641653660978 M632.1872018309948 159.41801121508664 C561.496363230366 160.03555210449343, 489.3404693104831 159.4596373578876, 349.50143782558797 159.75423445632197 M351.4815600316039 160.97457215210375 C350.6493248715822 109.13080751562646, 350.49917734468505 60.13595127615777, 348.3208071307749 11.17434096253891 M349.88814694134606 159.97970690748818 C349.11027513384084 101.75718576195197, 349.0861450161634 45.956660425339884, 349.89701788297424 9.725996694103715" stroke="rgb(0, 0, 0)" stroke-width="1" fill="none"/></g><g><path d="M376.7238955847547 94.11303603115898 C397.133565558859 93.55586420212863, 419.65334542951547 95.21651688940075, 432.1999375568885 94.00645941913369 M375.5632008897918 95.03367845720358 C387.99389608102 94.18416715108393, 400.4144501678562 93.60594285007265, 433.83898194611453 94.8841530232918 M433.23376218862666 95.0320412070082 C431.0089419455334 106.9543763404548, 434.26475778210295 121.61078377383089, 431.7813259496487 146.30891632564817 M433.44044082179005 94.16792234932291 C433.9751057717361 107.48022700204423, 434.14706370364996 119.11085445747919, 433.8091085021749 144.05925725256478 M432.46955432738935 143.03335577637316 C421.64127014064894 143.10038435800624, 409.75258941117323 145.19848952554742, 376.38194839656137 143.05354182081373 M433.02718691424576 145.16009117833926 C417.2015432871888 145.29455532309058, 400.68135273683436 144.65387574694242, 375.65821803126204 145.36031138209597 M374.63807849621236 146.42111785019455 C376.4255132278082 133.76633460367293, 373.75280988217094 120.41947376746668, 375.82959170564203 96.45713857382151 M374.498135724466 145.2171378351134 C375.51004448612144 125.48257694343613, 376.22458641790774 106.01525646337096, 375.5817335007482 94.13132377844754" stroke="rgb(0, 0, 0)" stroke-width="1" fill="none"/></g><text x="404" y="125" fill="rgb(150, 100, 28)" text-anchor="middle" font-family="Consolas, Courier" font-size="20px">id32</text><text x="404" y="82.5" fill="rgb(0, 0, 0)" text-anchor="middle" font-family="Consolas, Courier" font-size="20px">0</text><g><path d="M433.45068646063993 93.56024460026231 C454.6676946813418 94.36098098949427, 474.5538944238814 94.10189853933231, 490.8056367132027 94.05205029624524 M433.6037630993654 94.34012605059745 C452.6799236578225 94.17626050220562, 474.90325920422663 94.92992136860293, 490.81503391372604 94.40276215870075 M492.9563714247779 93.77349863251767 C492.22495629712483 113.55484153067471, 488.99257234656494 134.52685265268727, 490.102035319013 143.99372088452316 M491.71480592378344 94.40249350040318 C491.45702053423054 110.43182953832641, 490.6006062456166 125.56960795891315, 490.82889668164927 144.7856339494436 M490.0633800735077 145.2394736793227 C470.114133380994 146.6402403805448, 450.85621641298013 144.68928986281347, 431.7156408046513 145.64332576247287 M490.5963981468228 144.10591500390623 C469.50690870599556 145.10305987274705, 447.3249907249886 146.44601573658446, 433.76624643972417 145.45214382636894 M434.1012609201405 145.6802087385811 C434.8883760345299 131.4619514433091, 433.6293035431313 119.0927538201488, 431.0463385934701 95.42170387400638 M432.92870311269724 145.91580946139868 C432.8714343335297 124.52170650665755, 432.55390542574673 106.4513852525758, 432.30900586276306 94.75617783359485" stroke="rgb(0, 0, 0)" stroke-width="1" fill="none"/></g><text x="462" y="125" fill="rgb(150, 100, 28)" text-anchor="middle" font-family="Consolas, Courier" font-size="20px">id10</text><text x="462" y="82.5" fill="rgb(0, 0, 0)" text-anchor="middle" font-family="Consolas, Courier" font-size="20px">1</text><g><path d="M492.9279564078969 94.80644742760187 C505.77375259440623 93.8690015421044, 524.4127732558333 96.55464429464381, 550.7387741324602 93.10865602061668 M490.65607707994167 94.02148782995242 C508.087726739104 94.44492248015419, 526.6387190120123 95.81909801062058, 549.1367119516711 95.04770271392265 M550.8611801117833 93.43689285733608 C549.925083589432 110.72116390545192, 547.7900684139117 127.15764461389585, 550.7784624067438 145.5430732234916 M549.0924418881231 94.98698028402771 C548.2843927366243 106.47705623840551, 549.242374961582 117.49378463311423, 548.1664936135826 145.92466941312603 M548.3069955394955 144.22914175850664 C530.8831488157318 144.35293170233197, 510.1662107498685 145.2701081566182, 491.8305965553904 146.01473701267227 M548.647952043163 145.5030479702498 C537.34030964841 145.20868908936595, 525.2094036197982 145.92740352323705, 491.51682748186204 145.43448557716866 M492.1483310540731 144.70244445625082 C489.41513367080887 125.19042760973198, 492.76043860834454 105.97493116423442, 492.90130636238194 96.00995795781641 M491.80131985117276 145.42990714715125 C491.5956658140402 132.31565084300487, 490.10442047176883 119.58079780745659, 490.65808076076524 94.66691962104584" stroke="rgb(0, 0, 0)" stroke-width="1" fill="none"/></g><text x="520" y="125" fill="rgb(150, 100, 28)" text-anchor="middle" font-family="Consolas, Courier" font-size="20px">id90</text><text x="520" y="82.5" fill="rgb(0, 0, 0)" text-anchor="middle" font-family="Consolas, Courier" font-size="20px">2</text><g><path d="M549.6050924206329 93.07636074771126 C568.5232814433068 95.40767210733942, 587.5579835740988 94.854940725554, 605.3586056274303 95.3306727489259 M549.3547973648327 95.72669622825374 C561.3233056503058 95.74706855917188, 572.7407859976402 95.49555071064852, 607.8046444708594 95.10488931062349 M607.9428377594451 95.02599658551796 C608.1677275404771 104.25352311106842, 607.5468323471483 115.91003892274978, 608.443394189841 146.87883916671134 M607.1446126340729 95.3371526719662 C606.9641933734223 106.44838724964589, 606.3811829951769 118.43500066448965, 607.8860448640903 145.66540980418614 M607.287911882281 146.848832114758 C583.9409339958482 143.97771361742306, 562.8701421460303 146.34864472862165, 550.0212760918805 143.42631341994266 M606.1362677987834 145.0099904739377 C583.5467702825629 144.31123809181645, 560.7656457087153 144.34113803483626, 548.1363612004303 145.04629963350698 M547.9544224060727 146.88808109738744 C548.7239309440231 131.03040401624634, 548.4922446217462 120.04450539421478, 549.2097689051656 95.54336818836123 M548.0577955493945 145.60885534092142 C549.4272435727868 132.48636405019974, 549.6252329042043 119.37401218335374, 549.0581340671066 95.7265796138375" stroke="rgb(0, 0, 0)" stroke-width="1" fill="none"/></g><text x="578" y="125" fill="rgb(150, 100, 28)" text-anchor="middle" font-family="Consolas, Courier" font-size="20px">id57</text><text x="578" y="82.5" fill="rgb(0, 0, 0)" text-anchor="middle" font-family="Consolas, Courier" font-size="20px">3</text><text x="380" y="40" fill="rgb(150, 100, 28)" text-anchor="middle" font-family="Consolas, Courier" font-size="20px">id82</text><text x="602" y="40" fill="rgb(27, 14, 139)" text-anchor="middle" font-family="Consolas, Courier" font-size="20px">list</text><g><path d="M348.48806545673466 10.804477015154777 C362.67033665668066 12.174831402803616, 378.3423509475473 11.322355013586126, 411.3288168752913 10.922079952864657 M349.1683960663585 10.837671494749705 C363.4731934982896 10.186032209771383, 377.8106859121969 10.521182576244493, 409.1427426863096 9.950487836917578 M409.5042255344782 8.190999122756445 C410.0273186950938 28.00514525331534, 408.3734279569086 46.52398131654577, 408.3400787804975 59.845111173603975 M410.1485504188059 9.288353646082786 C410.75231704138184 20.842137269307198, 409.0805762459665 29.610163760526675, 410.97942540827864 59.48931260314005 M409.3731338276201 59.38680278039746 C390.02822269880164 58.35340874809029, 372.9947246169331 59.137249243067835, 348.3788757996564 58.06643498432247 M410.2738545202837 59.790823177685816 C394.62182022269167 60.36917962453742, 381.59819112671715 59.22528082402961, 350.3661196483777 60.286156253830036 M349.3608895955108 60.84822123788513 C348.4155022576502 46.30928709034933, 348.47827073907933 29.67798367075747, 351.23504228529964 8.941809340693426 M350.5341294356491 60.06560013147512 C349.6792191952349 40.138966196325235, 350.55839173226025 22.933813751598247, 349.5149643773422 9.653978530993507" stroke="rgb(0, 0, 0)" stroke-width="1" fill="none"/></g><g><path d="M572.72261507086 8.070296615945189 C589.9135669639869 11.41679941331122, 611.679259314559 9.348868904315601, 630.0594079247505 9.583695562856242 M571.5901020486941 10.330734698274082 C587.4638617589628 10.328295969329627, 604.4846221234582 9.86905158172258, 631.9559458219775 10.216456332382307 M630.7908826857146 9.688098645389342 C631.6182380161246 25.80602344961377, 630.9390648869825 38.455385971503, 631.854832901373 60.79109925921048 M631.6597268108027 10.727070877881212 C631.7362621125003 27.09716113969056, 632.4615823188745 43.055711099788674, 632.6496440201529 59.42389594843544 M633.1558954007312 61.89100063063685 C614.203497134814 58.993348455140136, 600.1324366603064 62.380845127678285, 571.0558039589874 59.25810093653774 M631.2284073496265 59.85854471613815 C609.092078039785 60.336571048806185, 586.6644952134767 60.1372162199903, 572.7779827485252 59.07917729126811 M573.9919711571297 58.423420120515246 C574.3891281662909 40.834554800142996, 573.6072139262458 24.361217182730755, 571.804902760099 10.551402099742457 M572.026048354954 60.278392793557714 C572.7062253583888 41.67438882937656, 571.5892514616099 21.962708639659116, 572.9268208803747 9.142491232640001" stroke="rgb(0, 0, 0)" stroke-width="1" fill="none"/></g></svg>