<svg width="1301" height="957" xmlns="http://www.w3.org/2000/svg"><g><path d="M640.9817546584026 100.86281909259229 C653.0765129632002 98.69034811381012, 664.0292932190071 99.1794735611621, 690.0139202280492 98.15230170442747 M640.4641539680953 99.70527897230619 C659.3341915267195 100.34388764502603, 680.0591269930562 99.85468262162054, 690.229151046727 99.86924469563168 M691.4399696661028 100.14403094541618 C689.1934790643999 114.08392162021839, 689.1041929186603 126.54170784635055, 688.9897510421807 151.56513017641151 M690.5374355843765 99.21174224157221 C689.1454059268642 113.07451488884993, 690.5054599253419 125.6874222905007, 689.1569413594095 150.4817249151062 M688.0023690130038 148.82018011517616 C679.0348938014381 149.70537953048134, 664.3258927555274 149.68081944332917, 640.8405791651217 148.63940235250743 M690.476456870885 150.4967160980825 C674.3363867089239 150.73488666779545, 657.9600553211831 149.5806611544312, 639.5075199909601 149.6251876836324 M638.0741784968546 151.08258543691932 C639.7710626664561 140.5934476147585, 638.8343905783797 128.2108088653906, 639.9831696804716 101.90622834465985 M640.202356155124 149.24092672122268 C638.7047821763385 133.6611370939083, 640.3622021360018 118.67308885318562, 640.8085295652666 99.98269853291161" stroke="rgb(0, 0, 0)" stroke-width="1" fill="none"/></g><text x="667" y="130" fill="rgb(150, 100, 28)" text-anchor="middle" font-family="Consolas, Courier" font-size="20px">idx</text><g><path d="M641.291559363288 175.08753777862353 C652.486065815504 173.97924215567747, 666.4829841779672 177.15768730428067, 691.1988527979876 173.8861084173703 M640.8461775058187 175.8510360910186 C655.352565840818 174.64326261646536, 671.1167525173034 175.48814051802998, 689.2497569619245 175.73886186730027 M691.3422244008541 176.0559200880244 C690.3763150745382 189.20687598359555, 690.7806248861649 198.6015238361419, 691.2839676453652 223.05462119066544 M690.858103710752 174.5910640206825 C690.6642269552657 193.98214525454912, 690.6500631149161 214.10057227405142, 689.8273505248516 224.10316375639655 M690.1311057580912 225.18973897591763 C675.657729160578 226.62289819286056, 657.1960613519354 223.6978281341265, 640.5242293893849 226.42812459121677 M690.9271912967107 225.85186383431883 C672.850496150748 224.49271098028848, 652.961015446996 225.0135163848424, 640.2660364900229 224.62860267534884 M641.4172522768393 224.3632815904101 C641.2457317801762 215.05944085013496, 638.0093054431458 202.8321788310136, 638.6894605116285 175.7224477939654 M640.1436619388387 225.72345121365157 C640.5681468693643 210.8628005516947, 640.0173979391226 197.0530384950456, 640.8285524457465 174.37884486730556" stroke="rgb(0, 0, 0)" stroke-width="1" fill="none"/></g><text x="667" y="205" fill="rgb(150, 100, 28)" text-anchor="middle" font-family="Consolas, Courier" font-size="20px">idy</text><g><path d="M640.1264069906186 251.61301025019674 C661.7234136553 249.75741977069362, 678.9936603362967 250.86757796643911, 689.7367691914661 251.65022101799482 M639.5238482555106 249.27503826126386 C651.993344589879 249.68126883587988, 664.9530948953086 250.75476088177115, 690.318413405564 249.7682876738506 M688.0138949947742 248.29355365939887 C689.33454108459 268.0139345021845, 691.8346647081624 290.01455345747246, 690.7892587622609 299.08012398352616 M689.0731157104074 250.87572790996603 C689.4581153812161 269.67978861389855, 690.8626991118485 290.0160535597226, 690.5149387591881 300.4970366880267 M688.6041330867856 301.60516632781315 C670.1368069486706 301.41452821429806, 651.8960845784778 299.24786256892565, 640.3225153019816 299.7397001194705 M689.6636972480766 299.6942394948121 C674.9165268355392 299.2432922334717, 661.5207005829113 300.684297253529, 640.0930259717235 300.18778939268816 M641.4195467712436 301.11576517534843 C639.6018025272713 290.5153133348481, 640.7915145643752 278.10582556057216, 641.0879509415149 249.28599783112574 M639.1286355341826 300.7161939204983 C641.2856061784086 286.3360002258948, 639.6663551183306 274.79617078395404, 639.1722935722156 249.4624192067348" stroke="rgb(0, 0, 0)" stroke-width="1" fill="none"/></g><text x="667" y="280" fill="rgb(150, 100, 28)" text-anchor="middle" font-family="Consolas, Courier" font-size="20px">idz</text><text x="721" y="130" fill="rgb(27, 14, 139)" text-anchor="middle" font-family="Consolas, Courier" font-size="20px">:</text><g><path d="M742.2001415531822 99.82708266258315 C757.7577746799096 99.3705234868178, 779.9899246870173 100.72294910635394, 799.0918136965448 99.67132893575311 M741.1192646419063 100.29313921923107 C756.4086030756135 98.66318278045382, 772.2383162884413 99.65355330807627, 801.0667918039072 100.74050183640978 M799.3468597860248 101.72171284815796 C800.5466098544857 119.72852848189171, 802.0024365532599 140.7034638921105, 801.6416252692819 150.41555286790611 M801.2642342079592 100.83320510428977 C800.7747607611024 119.52687651266568, 801.7065091251711 136.87817545823464, 800.6608474142008 150.27779196334342 M800.5223758544698 149.9642982714363 C786.3555708901457 148.26868988910365, 772.5720988335628 148.96355608573936, 740.9621527663159 150.22160180788384 M801.419905142557 150.188374799005 C785.5015697992666 149.0002826658754, 771.6856900787733 148.52174822619864, 740.3726632157419 150.3018633195988 M742.2340589199083 151.5321363405182 C741.1082559408064 130.67386316622373, 741.4774253764127 114.24087453763364, 742.28410612074 98.17409811164774 M740.0428418119382 150.73350590607055 C740.0096236869535 131.13845876238855, 741.0851993142356 112.29396682917906, 740.2855191338119 99.60659880371738" stroke="rgb(0, 0, 0)" stroke-width="1" fill="none"/></g><text x="771" y="130" fill="rgb(150, 100, 28)" text-anchor="middle" font-family="Consolas, Courier" font-size="20px">id81</text><text x="721" y="205" fill="rgb(27, 14, 139)" text-anchor="middle" font-family="Consolas, Courier" font-size="20px">:</text><g><path d="M741.7669344576119 176.58823568709275 C763.3392919218712 173.87755834425036, 785.6637139943143 174.73765106603634, 813.7275669736723 174.4706475299251 M740.0611521596907 174.59313125514177 C760.5764638473461 175.82198900549025, 780.1996498986823 174.1821636915392, 812.6595103583273 174.91956287325524 M814.5575165919056 173.70553212416226 C814.3283937639046 191.60098255015785, 813.7732210435902 205.90535626203018, 814.2082459194189 223.6890412411371 M812.6527115964882 174.86746013755018 C812.4667631467755 188.80133708204568, 812.8985069527554 201.3936099663004, 813.5258855245751 225.3957276127726 M814.6834415554957 226.22081293669316 C792.528368816555 226.47426417404557, 775.275934541094 226.32428670436698, 742.6433160367624 224.3961979945171 M812.8638531724044 225.27057320739917 C797.2129252441339 224.35302090267677, 781.8434454567189 225.5343552303207, 740.6327010601722 224.46416465504333 M739.4612056706878 223.5907004063294 C739.6280120138975 208.85731194839914, 740.6722502090863 192.82578929369555, 739.1935190873406 175.13000298656436 M741.9715235956569 224.04422490431648 C741.3779187623301 208.40214535557573, 739.7194583930428 190.18703989381982, 741.8605295286753 174.85926771586065" stroke="rgb(0, 0, 0)" stroke-width="1" fill="none"/></g><text x="777" y="205" fill="rgb(150, 100, 28)" text-anchor="middle" font-family="Consolas, Courier" font-size="20px">id100</text><text x="721" y="280" fill="rgb(27, 14, 139)" text-anchor="middle" font-family="Consolas, Courier" font-size="20px">:</text><g><path d="M740.4664420440464 250.6926945430332 C767.4570434125613 248.72080040878086, 795.0968355073429 250.59269995521123, 811.3086271612235 250.90329134105164 M741.0961458678123 250.5841236255941 C759.8688630889516 251.0212276037396, 777.0242111947588 250.31724810995036, 813.3194700889346 250.53133271413384 M812.4707446570037 248.59897280267677 C813.6587931682342 262.4332863454607, 813.7499017604175 276.67103763600386, 813.8097115566441 298.57513895929367 M813.8189880408174 250.28467236337139 C812.9690521809173 262.28009349977776, 811.8183998968193 273.30133706558024, 813.9522966080938 299.4979165465925 M812.3849167747992 300.9139523203689 C793.2769173399834 298.35096131705046, 770.0264350170498 300.0048941546144, 739.9448914346376 299.1451920803523 M813.7638291657122 300.0379940073413 C793.3491383251796 298.8717888887275, 772.5269966673742 298.7286964456431, 740.3242858729392 299.3429084236818 M740.2813609328643 300.47937315700796 C741.1837664853646 285.9304048871557, 739.6773887388276 273.33575303124985, 739.0112189635133 251.87009479912243 M741.637076794032 299.14588825444 C740.4149876305097 289.4530601585766, 741.4586014109095 277.2676560434743, 740.5655495947161 249.20915567817093" stroke="rgb(0, 0, 0)" stroke-width="1" fill="none"/></g><text x="777" y="280" fill="rgb(150, 100, 28)" text-anchor="middle" font-family="Consolas, Courier" font-size="20px">id121</text><g><path d="M616.4135542864926 24.383573978101335 C697.1836495456583 22.16801858473208, 781.4920090801555 23.025956992354466, 827.8033173429947 23.633293278251056 M615.8306595747495 25.609632113966622 C669.4002766751075 23.158268501240425, 724.0160785296146 24.025859977909562, 826.4874912106443 24.761034058774385 M826.9336333776321 24.926245920155257 C827.0137399119491 102.49005779085172, 825.72524333685 182.06732464559374, 827.1634474150601 323.8969086681543 M826.6427576758399 25.722908601435094 C827.2953515256518 112.1641994741449, 826.8135314934067 200.5875260613332, 827.6083838302496 324.46419710047127 M827.3075475214963 324.2472599619442 C774.6772219706497 324.9073848472505, 719.9498371507354 325.91894176866526, 614.3992843715431 326.1868704451407 M826.4707575751863 324.8793914048385 C748.2012714374339 326.2190245093945, 668.7935864441383 326.6795934807937, 614.4443866241743 325.6975177356623 M615.2714848378566 325.15975091986127 C617.991866730726 241.5004012190946, 616.8700758606238 156.00964663672767, 614.5969655023147 25.55294050296323 M614.4094325709668 324.8881766310629 C617.025771877268 213.6125817843192, 617.3076871189162 102.02051153087531, 614.4101151864595 24.470601763770432" stroke="rgb(0, 0, 0)" stroke-width="1" fill="none"/></g><text x="645" y="55" fill="rgb(150, 100, 28)" text-anchor="middle" font-family="Consolas, Courier" font-size="20px">id10</text><text x="797" y="55" fill="rgb(27, 14, 139)" text-anchor="middle" font-family="Consolas, Courier" font-size="20px">dict</text><g><path d="M615.2108136173115 24.37044085387479 C635.9042641277618 26.938217507922957, 659.2641957540371 25.319544346438388, 676.050212392924 24.075216265608873 M615.1262410922719 25.3872126262157 C634.0064457185274 25.04141709995114, 651.2442634909256 24.72746465392982, 675.518671450283 24.14818801415702 M676.4314253411837 25.155266679944273 C673.7487121253783 35.22083222142435, 674.2942350568546 44.01413256461184, 674.404277890125 74.13260231573136 M674.0876584670607 25.165591272482388 C675.9266596105499 38.32979035605922, 675.4781464663189 51.64049680312134, 675.0577000793794 74.45340349163438 M676.3157945310088 74.29105501573615 C651.68774431852 75.32592797104581, 631.7574684520737 74.21220827437112, 614.4285882306732 76.1682748693504 M674.8921163756653 74.86833806104843 C653.7108660768575 74.67202223914425, 631.0044546530252 74.46992676017592, 615.0366978019669 75.33284095479284 M615.3869228497243 76.05179156365517 C615.3607309772373 59.40217873845462, 616.974765828955 48.734531237287584, 613.7357345365169 24.71195014461922 M615.1712162809744 75.17646235980395 C615.6085449483564 58.692423680827744, 614.1971231831153 43.37410717315846, 614.351380624915 24.11153250908266" stroke="rgb(0, 0, 0)" stroke-width="1" fill="none"/></g><g><path d="M765.8194479326364 25.923207014574682 C789.067915440372 23.064331673227517, 810.6056269279769 22.993443753025623, 825.7771035489013 25.827725696931722 M767.7833879016592 24.9010554428422 C787.8851016282509 25.055035071641313, 807.1164361751246 25.010635910735235, 827.7024859060308 24.706855116229516 M827.6793216686686 26.13606473227288 C826.4332862749628 44.574532383551066, 827.0908590780992 64.6423835739498, 827.6148174227147 76.09028380056657 M826.253061253044 24.51673502422277 C827.7385121378151 35.56190536411808, 825.8866564697119 48.640976286411785, 827.445437259681 75.88423363950237 M825.8330871123543 74.62943359979492 C804.2282498688728 74.23722871506078, 784.1861544586405 74.17366447061909, 766.4730898110478 75.68668737677619 M827.4270901333764 74.78932952802104 C810.3958545660597 74.51005697286385, 793.5334174467292 75.30885777524526, 767.8545508228967 74.04965433480383 M765.623121050402 76.01157647072685 C765.8882492038974 60.83714335941843, 766.1028355675877 43.60996570011581, 765.1729097104632 26.77481143691548 M767.3778151435481 75.6159179661152 C767.8300489765217 62.72943398468569, 767.7235318071457 52.58759974384372, 767.5516251913089 25.270308920203917" stroke="rgb(0, 0, 0)" stroke-width="1" fill="none"/></g><g><path d="M843.4926766381761 26.3939264976019 C902.230083518352 22.874570424259574, 960.1475088026131 23.213249996486496, 1041.7076794962165 26.26635574094812 M841.3436357551184 24.615519651591683 C893.1636829540064 22.906096318912184, 943.1731338876333 22.500585858795684, 1039.770882931351 25.503389764933402 M1041.3363891825597 24.566605021794796 C1038.9930098131622 72.85041876002019, 1039.3496607296015 120.53775410869834, 1039.023155447558 251.70373989857126 M1040.441013812087 25.526429071538264 C1039.9790494216238 85.5315885989087, 1039.6789093474179 144.49581167376607, 1040.439507925263 250.45207017771796 M1040.4182112485682 250.5954459817474 C985.4665064114155 250.62547414236727, 930.0613986426272 250.3783603464729, 841.4478013491579 248.34960358282126 M1040.237020901724 249.73426298059988 C992.9925320974133 251.61264279431154, 945.1282190903363 250.83505219307736, 841.4732594698952 250.18685001037758 M841.9359532359157 250.25646089527942 C843.0234867324756 188.03263924944758, 840.7104986006393 126.79109425992698, 842.8558803678833 23.749869604486122 M841.9282479176242 249.62953831659362 C840.063462492274 192.11930300695505, 840.1710463634784 135.3839646237782, 842.3858709655988 25.44555537931888" stroke="rgb(0, 0, 0)" stroke-width="1" fill="none"/></g><g><path d="M966.9444910502432 98.82547315610712 C979.0166556765791 100.84158871352614, 992.9771079930127 101.13413945953323, 1023.8598602157464 98.95760073418397 M965.07109264127 100.08787066674671 C983.4381185549383 100.47255250075735, 1002.8370172390065 101.154347957841, 1022.2395495518826 100.54398064179797 M1024.8717382242403 101.28903585883647 C1022.8241706324725 116.15189482629351, 1023.1383411261244 133.47668969276563, 1022.9704109858192 149.421625386591 M1023.575218349051 99.48231544109203 C1023.1406706978397 116.92035978560207, 1023.5879199044167 133.9320161037855, 1022.21591113876 150.09116377600685 M1024.6945485237954 149.2466117236398 C1004.1697999199894 151.70129567479336, 983.1808046423557 149.1370694205309, 964.7824061071788 150.04846423092525 M1022.1732718184767 150.26796154394782 C1003.6567509044476 150.5467124230224, 986.0413937422882 149.13338779899803, 964.5883261939654 150.04598636598357 M963.949416383986 149.5719095438541 C964.8621423906385 131.736670351667, 963.6702609707868 111.0213286677996, 963.2262064914745 99.01529703232859 M965.2512079040288 150.29997040958258 C963.952511159535 134.2407059702603, 965.8692161152094 117.75025049940638, 965.8339520695761 99.86766817481826" stroke="rgb(0, 0, 0)" stroke-width="1" fill="none"/></g><text x="867" y="130" fill="rgb(0, 0, 0)" text-anchor="begin" font-family="Consolas, Courier" font-size="20px">age</text><text x="994" y="130" fill="rgb(150, 100, 28)" text-anchor="middle" font-family="Consolas, Courier" font-size="20px">id12</text><g><path d="M963.847032851804 174.2384717441667 C979.9542178277703 175.351704775877, 991.0320146075344 173.9215109698395, 1023.9336236871524 173.30083975305607 M964.7793303535191 175.18034620924777 C980.4817508528292 174.4966951230227, 997.0059913255582 175.28032670474929, 1022.2850872998796 175.07315799377687 M1021.3548899902862 173.78655192507085 C1021.0274114326384 188.86277499404758, 1024.912253797497 199.85920738064567, 1022.0007992489574 223.6812596161308 M1022.7788849137127 174.47190514631006 C1022.4869081588087 188.65936362245642, 1022.0571862338757 201.55883093341663, 1022.2817410325753 225.9675999769386 M1024.365151529279 224.3266128515865 C1001.8773944473193 224.8385263882474, 979.893764689765 226.31250664821064, 966.6269247170366 225.51864131727825 M1023.2172944393608 224.95029610132562 C1011.4950451797063 224.41638669328552, 998.1548526016664 224.83182310674758, 964.4771673924033 224.85031704291288 M963.2350972174951 225.90451688606265 C965.1178119812728 208.79293929644277, 965.4009177714589 194.20917448413988, 963.6517777450773 174.39916363875457 M964.0059260009286 225.49340961859218 C965.9663859480286 209.07121003351634, 964.6088404545527 195.27519089826572, 965.4819623231294 174.01363906426246" stroke="rgb(0, 0, 0)" stroke-width="1" fill="none"/></g><text x="867" y="205" fill="rgb(0, 0, 0)" text-anchor="begin" font-family="Consolas, Courier" font-size="20px">name</text><text x="994" y="205" fill="rgb(150, 100, 28)" text-anchor="middle" font-family="Consolas, Courier" font-size="20px">id17</text><text x="872" y="55" fill="rgb(150, 100, 28)" text-anchor="middle" font-family="Consolas, Courier" font-size="20px">id99</text><text x="999" y="55" fill="rgb(27, 14, 139)" text-anchor="middle" font-family="Consolas, Courier" font-size="20px">Person</text><g><path d="M842.509888560428 25.18187645628083 C856.1066810747425 24.19060103787217, 868.6754104284171 24.798697736127803, 903.831057086443 25.953016186709025 M841.1068551346556 24.36211695254556 C861.6431740430247 24.260314512351343, 882.7780732200322 25.493315900811165, 902.136879165243 24.701334752413757 M900.8860366973203 24.858752028711443 C902.062656932038 40.068978961430304, 901.9977570148011 54.18417500332338, 900.2652323075342 75.99097182025012 M901.4864885767224 24.49895204064309 C901.3874064497911 41.14492653130235, 901.3495450495882 58.80890063829199, 901.8129320906467 74.02897431694443 M903.2154496151123 75.49567855955866 C884.1816493498575 73.41119472026422, 867.868068245451 73.39166046095208, 840.2344710672442 74.49536819600988 M901.5566421048551 75.06920871837153 C890.5003927128458 75.7825150962723, 877.5034989116648 76.00807763316206, 842.276772275486 75.02182359375858 M841.618950458718 73.09969650672025 C842.4636435707599 56.36135336127925, 841.6641993646045 38.091217795009186, 840.9918895462723 25.22047747399703 M841.02032889334 75.92408725440734 C842.6751119474591 55.23018966814195, 841.8088169921512 37.0403848331284, 842.6286399815205 24.811699432055097" stroke="rgb(0, 0, 0)" stroke-width="1" fill="none"/></g><g><path d="M958.2215183529878 25.751066743312617 C981.2259352675634 24.79563733306817, 1005.4328203987858 26.352756684758855, 1039.121102479334 23.766002106423798 M957.1450518138993 24.19993458556887 C977.7753903941167 24.575946892960992, 997.0683170823878 24.53576328177203, 1040.0326623337692 25.319903852629636 M1040.6843271980247 24.780891122354408 C1037.8309098976874 37.96002507166966, 1038.1897290695854 53.52666711066749, 1038.2065270312596 73.99970469393939 M1040.7796824385098 25.80649798315575 C1039.3467292474033 37.14508233570172, 1039.7970388661026 48.01591750010429, 1040.3579364659543 74.03947453651904 M1038.081817125051 75.47421886610577 C1014.6749065501216 74.4494047461613, 989.7288788119511 74.88093676691786, 959.0931277485836 75.61827949399671 M1039.0725526956764 75.09047406628636 C1021.3162787723561 73.70461437588973, 1000.525666677349 74.65935596302207, 958.6079438674624 74.68304444929643 M959.1432287440546 75.8913641781556 C957.851074821348 61.54712324446686, 958.2579385112457 47.20816788723725, 959.3685923405664 24.78415677084633 M957.3420703108341 74.10656163553887 C957.3989785350126 59.29827608979174, 958.933361490074 43.16302586513953, 957.9542598082493 25.211599814318603" stroke="rgb(0, 0, 0)" stroke-width="1" fill="none"/></g><g><path d="M613.5141412718929 340.94449319045356 C677.3530659254268 339.4156027233282, 736.4986394563134 337.41290327487263, 897.4806932061807 340.4681052219489 M615.6756912917351 339.7774364790126 C696.310901137888 339.05703843996395, 776.6978372769202 338.8798085500131, 896.532824385824 339.7463247523146 M896.9372807387055 338.64695683468295 C897.8403406461008 393.6109129904869, 899.9724451293955 443.3843851896945, 896.9379714749073 489.467463202345 M897.4211773867586 339.48887341326287 C896.4266142377785 375.9006783937468, 897.5226629904133 410.4286043549351, 896.6378694341068 489.6853637188849 M897.464804036167 490.12054984001486 C799.1904262706623 491.04128964527206, 701.5588368532781 489.91723096207755, 614.9419922764004 488.6647670207673 M896.4402013939934 489.6666188932735 C832.0397005505214 490.29224427965465, 767.3145650644394 489.37901430496356, 615.3207644250131 490.5014288756407 M613.974373860583 491.49325778095607 C614.2141773847176 434.7417547058545, 615.6402379789195 379.5965743209003, 616.2193442637102 341.9878338712377 M614.6424684839002 490.11994778635903 C613.0327656807432 432.10076639360244, 614.0863137232576 374.7384457629933, 614.0923902157773 340.70426796876484" stroke="rgb(0, 0, 0)" stroke-width="1" fill="none"/></g><g><path d="M641.307000632726 424.5647662209725 C656.589047100669 425.5716840588256, 669.8807363085209 425.74013796807736, 696.8039132251416 426.09027975857225 M639.5802016582531 425.3991375804314 C651.8469069840468 425.3132709029178, 663.9629707786198 424.35077632021375, 698.7215742786844 425.8030501553727 M697.4822160438547 426.11945621133117 C699.189372938658 440.5084231993508, 699.5359897173502 457.63294962168305, 699.3523889829394 475.0173692956109 M697.0652893786408 424.4767837529964 C698.583865212728 435.23065841740856, 697.4429684822649 446.7062196730562, 698.9581578197666 474.9356866487783 M697.4512983085365 476.01612435229146 C679.5812707832322 477.0400548983447, 659.3306204855411 474.069427260504, 640.1542917951327 476.5427123667897 M697.5790880876623 475.0083929014934 C681.6478665490564 474.53253191658996, 666.0417029862211 475.8186540541151, 639.1522168696318 474.93700330395524 M640.4306420091082 473.69381203653444 C637.9488511773169 457.42421790348556, 638.7948304473152 436.9855712585066, 638.348501942753 425.00202569557825 M640.5328588748401 474.0206068757317 C639.4485505835825 465.3676213662256, 640.7017973469045 454.30373945407626, 639.3598708396345 424.6176598276737" stroke="rgb(0, 0, 0)" stroke-width="1" fill="none"/></g><text x="669" y="455" fill="rgb(150, 100, 28)" text-anchor="middle" font-family="Consolas, Courier" font-size="20px">id32</text><text x="669" y="412.5" fill="rgb(0, 0, 0)" text-anchor="middle" font-family="Consolas, Courier" font-size="20px">0</text><g><path d="M698.9171766607676 424.3993621774328 C710.9040802917336 422.7777254900948, 725.9007786525353 425.0225643892332, 757.2345630700011 424.782221862232 M698.2240824228113 425.5400592893978 C713.3360293004272 425.3339882621068, 730.3718127254542 425.6744670454532, 756.9056071438945 425.9838499590861 M754.6919241727132 426.86638057642625 C757.2521287481796 440.1527670644377, 757.2904202930345 456.97607459139783, 754.0529424298905 474.04553698591894 M756.7406533164736 425.5054186389061 C755.0423105115082 443.32040324559364, 755.2038119844276 462.4868281583266, 756.6607244420836 474.342699789544 M754.659883143488 473.0658998125232 C738.0125708137817 475.66481804308336, 721.4606404840339 473.9829921647823, 697.7845725319472 475.9319233339224 M756.370490370787 475.2778687455242 C737.2957936864832 474.88637650009247, 717.137790336108 475.056780292299, 697.5706998779604 474.6754555277886 M698.3532095455172 476.3413071726233 C696.5118726538776 464.6895798070761, 696.1361767366008 450.9121930488907, 698.2194198886056 424.30684880014763 M698.4705330580324 475.11208082243314 C698.0873132514209 459.7534564505683, 699.3188676480252 446.13415023749155, 697.9151490548919 424.42674103348264" stroke="rgb(0, 0, 0)" stroke-width="1" fill="none"/></g><text x="727" y="455" fill="rgb(150, 100, 28)" text-anchor="middle" font-family="Consolas, Courier" font-size="20px">id10</text><text x="727" y="412.5" fill="rgb(0, 0, 0)" text-anchor="middle" font-family="Consolas, Courier" font-size="20px">1</text><g><path d="M754.7154748645892 423.8155280589991 C772.9358220669698 426.3336954703208, 792.426514980938 426.3843648922873, 813.6903638822399 426.01562279647817 M755.5004946050128 425.3214882309616 C774.7154674043628 425.22447252310445, 794.5726787781452 424.439197170828, 814.7530431196224 424.8454327244816 M813.9656251093154 426.50550697443174 C815.0480754394857 442.57715315822475, 815.6365734195176 458.26929642895, 813.2832902343531 473.78673375923387 M813.009974133786 424.06320720960997 C813.9570324296186 442.56334870568685, 813.5402166824375 458.3121859865841, 813.5817946081102 474.9097340450571 M812.5964896272687 474.5312430455774 C794.7033755423943 475.1157834814445, 774.423447940711 476.1583214762988, 756.2809329091214 474.58876804704573 M813.1455002660409 474.75804883087005 C792.1486131445619 474.0418246434424, 768.2737929666947 475.30673687443044, 756.6317656093807 475.8471078806761 M755.7860120720898 476.86170279462135 C757.0760249406205 456.82261391258646, 757.592470829257 435.63232073445863, 757.2992991153328 426.55615840940845 M756.0333547655091 475.95460111381925 C755.7040471561806 463.6549965456874, 755.2608842143876 452.1221759840982, 755.2705766618927 425.79137184982284" stroke="rgb(0, 0, 0)" stroke-width="1" fill="none"/></g><text x="785" y="455" fill="rgb(150, 100, 28)" text-anchor="middle" font-family="Consolas, Courier" font-size="20px">id90</text><text x="785" y="412.5" fill="rgb(0, 0, 0)" text-anchor="middle" font-family="Consolas, Courier" font-size="20px">2</text><g><path d="M812.6039106402934 426.2605834911641 C830.1005220001188 422.93172109457504, 847.226808735642 423.04142376327843, 872.1802409068274 423.2544768096019 M813.5307614799109 425.6018646368847 C828.4196742532337 424.777220482156, 842.3203452420313 425.49909879756325, 871.4992595420068 424.4363953825257 M872.3643232833655 423.5105479234029 C873.3619328533904 439.36480047822795, 873.9596596250865 451.50367867988405, 873.2834117235028 474.721926197493 M872.9227169718088 424.5996684439726 C872.9983527811634 441.7134968960947, 872.2555172873109 458.6588396145757, 872.6534008359529 474.2419433101268 M873.9286832961649 475.1075377245211 C851.1504874260131 475.44608895630483, 834.1065072321969 475.53475805985977, 815.4681546950151 474.21088221646295 M872.4539258884718 475.6254436529729 C859.1324648335018 475.54474759588436, 846.8031355649574 475.1047822159293, 814.3686643727892 474.3237232985753 M815.541537564928 476.2218067349707 C812.9030971813489 464.7919138860574, 812.9918248586077 453.03665147006734, 814.5628430943509 423.7189652975312 M814.426566752767 475.3208432138382 C813.1317402501668 464.48867755309954, 814.4297819742386 454.604023595374, 814.0281870280811 424.4371428836964" stroke="rgb(0, 0, 0)" stroke-width="1" fill="none"/></g><text x="843" y="455" fill="rgb(150, 100, 28)" text-anchor="middle" font-family="Consolas, Courier" font-size="20px">id57</text><text x="843" y="412.5" fill="rgb(0, 0, 0)" text-anchor="middle" font-family="Consolas, Courier" font-size="20px">3</text><text x="645" y="370" fill="rgb(150, 100, 28)" text-anchor="middle" font-family="Consolas, Courier" font-size="20px">id84</text><text x="867" y="370" fill="rgb(27, 14, 139)" text-anchor="middle" font-family="Consolas, Courier" font-size="20px">list</text><g><path d="M616.5614940240155 341.66156121602626 C632.3230942168523 341.1605126975149, 649.7972872361325 338.42570765067967, 673.4631544492553 341.0068859137688 M615.5192102917498 340.6176674321981 C627.542964660088 338.6413047893574, 638.7152705222568 340.35810840998715, 674.9160560812031 340.73183688164136 M676.7888308911366 339.19306853360604 C672.9115524090923 357.41842771190863, 675.2079176921193 379.03924492624174, 675.5992119675046 389.0103662006368 M675.5004168849064 340.71068720178954 C675.3896804923825 356.7690440403857, 675.0928342472062 374.17588711459183, 674.4237405035873 390.94774676279627 M673.783202941963 391.9898262569443 C657.3626532658889 390.26485208042084, 642.1671083014401 389.9025725682702, 614.026885222687 389.3356983465736 M674.4178523317704 389.67028476813726 C651.1462104074883 390.62491009515327, 628.0948024893277 389.7011993713585, 615.3795884495854 389.34439277342756 M613.9964980544034 389.59975752849084 C614.8622722126897 373.9259459672011, 615.7616417394103 361.5510244301428, 616.7903211792162 340.82107951974075 M614.5896516958878 390.666830177168 C613.7217133853427 378.2737195913046, 615.3394116425491 368.4916682187397, 614.0500675021252 340.56990630576104" stroke="rgb(0, 0, 0)" stroke-width="1" fill="none"/></g><g><path d="M835.8646025581271 340.47254901169873 C858.4509847313858 340.50104567426365, 874.8990864204085 339.21025943383927, 896.4636273844961 340.04554200857564 M836.0384588525885 339.71847135685823 C853.578276299493 341.1437526365605, 871.768516698012 340.00985971741994, 897.4177511406948 340.94160224146503 M898.0680919507869 339.8784513137096 C895.9958443812225 358.7731697984168, 897.1512118005454 375.89663709578343, 898.5965540104391 391.75384632221653 M897.5047133528057 340.93638305931813 C898.1794486027928 351.07636952734845, 897.8354203271666 360.86709336203137, 896.7225841820476 390.95121119584314 M897.2551441903097 388.51679967790227 C882.049166391127 388.55078824618795, 863.1207079847288 389.3393563065732, 836.3658830216767 389.14983374219366 M897.5296913050943 389.47403434708525 C884.4134339146631 390.6977616401407, 870.476058628404 391.13787883735955, 837.062577630738 389.8218143548068 M836.1043484178232 390.9615245586117 C837.4888389823146 371.5494962226077, 835.430409791456 351.8316448766389, 838.3156887073332 338.3612819162957 M837.3939550234807 390.9149228203791 C836.1960161790767 377.67346735093867, 837.0979585828928 364.99018782451134, 836.5737359804548 340.14736034319384" stroke="rgb(0, 0, 0)" stroke-width="1" fill="none"/></g><g><path d="M912.386816155999 340.0191738333255 C984.6789101089925 340.3789692897888, 1057.0894314310713 341.2905586855049, 1112.4758742493962 338.43393783944066 M912.7025970794172 339.54177758953307 C959.9938582745606 339.4572250434836, 1006.9279408963429 339.4592914028975, 1111.477769478205 339.10750025203544 M1112.218692908622 340.70147780216246 C1112.0188637812762 378.5797003203952, 1111.413101777865 418.39542895575073, 1113.7344257823984 471.070523215029 M1112.1981372533476 339.09734085867115 C1113.9557531488745 387.07920245836084, 1113.3823632394005 434.47658546494006, 1111.102233718512 469.07359668177446 M1110.9764103558489 471.7041914857307 C1042.6914565822922 469.18802054559495, 969.709722142042 468.684593502462, 910.6898860674781 468.7049343627459 M1111.611392226719 469.66332436721876 C1061.049379387409 470.768517932163, 1008.1856189981133 470.31518462108676, 911.2382828956806 469.5750819540112 M911.1114118550611 468.90187024513256 C912.7825732057661 419.72361316759896, 910.5866221789826 365.12428003085074, 913.5877885400536 341.88655334578783 M912.4878354977973 470.94143932958065 C912.0729594987686 432.5018770080574, 913.1488213371006 394.8643341544515, 912.1063027726472 340.67885099149487" stroke="rgb(0, 0, 0)" stroke-width="1" fill="none"/></g><g><path d="M907.3958605738407 334.6820849931304 C981.1764735422964 334.15250160740914, 1053.866047087421 337.2132815984229, 1116.5971660369362 334.2531495037184 M905.9501001773281 333.93619680647384 C959.1698395611378 334.3301161372853, 1013.2764622255572 335.33812957754895, 1118.8790645140784 334.45138442452236 M1119.5753561485355 332.6749839053256 C1116.8645761939435 369.23958096687454, 1119.3308566356857 409.76665510478296, 1116.2096110960815 474.2569870426774 M1118.6506053953317 333.8216194014085 C1117.1573560532638 374.54365111018046, 1117.9766710299011 416.32211533520797, 1118.8063162643916 476.748974237771 M1116.9973381280345 476.59777770835944 C1048.75828798433 473.5319699626219, 981.6624459122726 473.92654981308453, 906.8878319057451 475.9725511780594 M1117.150578911341 476.44578488643805 C1072.7704962220896 474.4123173479417, 1029.0549030751004 475.47154852228937, 906.6962227317264 475.20086844221765 M906.9196404828297 476.4341763227007 C906.869117494842 425.48909177622255, 905.9230470495721 379.04269071145876, 904.2770005101961 333.95580863492864 M906.9079189676081 475.69875177790414 C908.1537982830237 431.1297386943287, 906.3339190532857 387.1722629202688, 905.8537864142799 334.03737647740087" stroke="rgb(0, 0, 0)" stroke-width="1" fill="none"/></g><text x="1012" y="430" fill="rgb(27, 14, 139)" text-anchor="middle" font-family="Consolas, Courier" font-size="20px">1969</text><text x="942" y="370" fill="rgb(150, 100, 28)" text-anchor="middle" font-family="Consolas, Courier" font-size="20px">id19</text><text x="1082" y="370" fill="rgb(27, 14, 139)" text-anchor="middle" font-family="Consolas, Courier" font-size="20px">int</text><g><path d="M913.3619620656765 340.7523554023454 C931.8556756474961 340.9556735325154, 951.9585268217846 339.89277876688993, 972.5922366868334 341.3739991179136 M911.1313114849734 340.9678925009759 C927.6359362325904 339.8709550851, 943.8099534953121 340.4427915473698, 972.9411295784215 339.29432973309406 M973.0263345577997 340.92462630658014 C971.1467200206234 353.19344730302555, 972.9751825269595 366.2071367733253, 971.6169965890679 388.4447824484468 M971.935103873185 339.2346359641459 C971.3676349810577 353.38307584525364, 971.6012475566596 368.2599312829721, 971.60445176861 390.7349870168839 M970.1900984785311 389.8063068939431 C960.8756880065857 388.1206309974068, 946.6090646118859 388.2978359182359, 913.4983099395358 389.3505452080456 M972.124072460971 389.70682331209844 C950.6183914691353 390.2507981982097, 930.1712397884713 389.99570463005364, 911.7720270835749 390.52069935543665 M910.2135794536445 389.86679078001544 C912.7660505874369 373.5563275340337, 911.0293887125704 357.90195717263396, 910.2970605322204 339.50469168547767 M911.8264473857681 389.9099432416051 C912.5854439777002 373.2134378947144, 911.7718392716649 356.03213839114323, 911.9018320919962 340.6452718942861" stroke="rgb(0, 0, 0)" stroke-width="1" fill="none"/></g><g><path d="M1051.8487864392039 341.8187508150535 C1071.790386629105 339.716547776139, 1090.433085258279 338.1055769580686, 1113.8267022323532 338.9884265882132 M1052.3817549274652 340.2696693833173 C1073.958252954273 339.68493995969123, 1094.5555650168023 339.80570786712764, 1112.6734171778999 340.1387953897754 M1110.8783559489539 341.53324726554786 C1113.9836693892025 354.1692097617198, 1111.6794731385487 363.27281910465933, 1113.047711137752 390.8810426559079 M1112.5594209555934 339.5297370253438 C1112.010746071941 357.61854979649377, 1113.0376483698187 373.8431511845987, 1111.581245846971 390.47282282199507 M1110.9546740611027 388.3902964720118 C1089.0641651872681 387.763800054209, 1067.41666091428 387.7530074863386, 1053.3257799698804 389.5922821707263 M1112.8923752100843 389.4172400139685 C1088.3171992324637 390.9634766544176, 1065.0678126252137 390.74876634481836, 1052.182137309356 389.74586991501036 M1050.574872303703 390.3709872379366 C1052.6771806081758 374.10644524262403, 1051.1027765619856 357.0407872031815, 1051.9099008446753 339.5323707171043 M1051.076342260792 389.8398204038599 C1050.779404520402 376.8290086783113, 1050.8087250648568 363.59743562774344, 1052.292080467065 340.2103201855516" stroke="rgb(0, 0, 0)" stroke-width="1" fill="none"/></g><g><path d="M614.2328872212157 505.5764155069732 C687.7854878677211 504.01712908639934, 758.9173409397515 505.0246243868375, 815.2408540690777 506.1368988730754 M615.5270550622523 505.0164913862301 C681.95254013814 503.2012961302462, 748.1640281330407 503.25046507798174, 814.9585796325724 505.6864501466584 M813.0940433418778 505.4052591894878 C816.676719256243 530.8813313356162, 816.1121250660042 562.3813019939267, 813.9306356830978 634.1055996842776 M815.2476308169755 505.4391730447017 C814.690100178583 552.8935937401694, 814.4823106129979 600.2641919787244, 814.6303644689212 634.2415728398054 M815.8011883834752 635.9151711641048 C763.0146362017696 634.6582443973161, 714.3110686004555 635.765598799807, 613.6040205990015 635.5886853965351 M814.5055644400044 635.480505738017 C773.6645344301064 634.8040555852505, 733.5315389370367 634.5296397464584, 615.1002073308857 634.2970275214802 M616.0457540573342 634.6037891188867 C616.0309681712743 594.3469978275086, 614.9319631067494 551.1722974869887, 613.5235130023635 504.9999759497926 M614.6714082819002 634.685066505495 C616.4024605508479 606.840764007131, 616.6359501670266 580.0554794706943, 615.8501267760795 505.2464404212427" stroke="rgb(0, 0, 0)" stroke-width="1" fill="none"/></g><g><path d="M608.2554617592364 499.0147864030027 C688.6845929425463 500.2853958408495, 766.1828392759978 501.39015689119583, 822.0848266729503 500.4015643399806 M608.6338773968479 499.6817413030494 C686.9887701455685 498.2732664652911, 766.4931622224424 498.26223065697377, 821.5067517879753 498.8595856371024 M821.4539207101623 499.7332667734968 C821.7253534351006 535.9647856554, 823.4340537239809 575.798100970815, 821.9131907384659 639.5891400180227 M821.9988685561306 498.8242308579468 C822.1155958644281 528.2359809476786, 821.4226334665984 555.2091720609661, 820.973969034836 640.7399518971462 M822.5358069760949 642.2291870112964 C738.3545409523393 642.0477726237261, 659.9662690634452 643.6089891310585, 608.5635612440655 639.4500246388682 M821.4718604602746 641.7125195857109 C756.1784313287118 639.6546328901146, 690.2672848414776 639.4496580251273, 609.1370682945734 641.169246559797 M608.8469787371224 642.5501578463553 C607.6703799159028 589.5038777330725, 610.4503433816511 535.9792031904849, 609.1145167786954 500.5190602522368 M609.6099692288456 640.7312630073071 C609.4161630533324 603.3251601995744, 608.7862246028551 566.8682481484958, 609.4078832040927 499.1749700832068" stroke="rgb(0, 0, 0)" stroke-width="1" fill="none"/></g><text x="715" y="595" fill="rgb(27, 14, 139)" text-anchor="middle" font-family="Consolas, Courier" font-size="20px">True</text><text x="645" y="535" fill="rgb(150, 100, 28)" text-anchor="middle" font-family="Consolas, Courier" font-size="20px">id32</text><text x="785" y="535" fill="rgb(27, 14, 139)" text-anchor="middle" font-family="Consolas, Courier" font-size="20px">bool</text><g><path d="M616.713530351264 505.8223386399424 C631.0729973374438 506.24421856606887, 649.3570560780219 503.7965121729623, 674.4193774017043 505.0476412631409 M614.8177136034237 504.1808320570933 C630.957158357733 504.49245879627983, 648.1833548489767 504.2886156185826, 675.3319747737868 504.29144640306276 M676.2443075817382 506.2507969246121 C676.123510446923 519.2141870457675, 673.6645360296232 534.1630693744215, 676.9528331337484 556.8199253112982 M674.7841906026342 504.02620213922324 C675.1715830389234 519.5600849146114, 674.8776301544808 532.8221939389924, 674.5854613155407 554.309675678589 M675.7593989761326 553.1170795033458 C652.5914309213995 555.7096530232224, 632.6446807380664 556.6393742725315, 613.6553131739142 554.7866452414623 M674.3124691109376 555.8626503850146 C660.2516600709253 554.3956180105225, 647.9764873206531 554.4021919478089, 614.6884193037748 555.4179901346765 M615.5825647743426 553.9015679031844 C616.5480596821568 534.8209879168077, 616.9238821603569 518.6407381542209, 613.881878587368 506.90870923533146 M615.2514262486347 554.8313486478188 C615.8110023946664 541.6257491327109, 615.1797862541065 527.0176331964442, 615.624315315343 505.2230730522941" stroke="rgb(0, 0, 0)" stroke-width="1" fill="none"/></g><g><path d="M753.0611010241525 505.30910114545145 C773.9099653703895 504.3241609588252, 793.9337950669302 505.2998898545202, 814.2427778355345 504.5568636522425 M755.2299966130515 505.4235192477744 C778.7484206815008 504.3273091001473, 801.5105809941208 504.84460213590705, 814.156255354816 505.85905615332393 M814.955151761182 506.8218165815939 C815.1853393188435 523.1635040793418, 815.8259989660013 541.4147689939612, 816.1369228635406 555.1905352267436 M814.9435012868241 504.72946787713096 C814.8045767748301 521.1519119795566, 814.1174891759827 537.9488956993356, 814.573965454359 554.9430768432221 M813.6991214400191 553.6490313047701 C793.4291960083311 554.0652486245734, 775.7798318812587 553.2188088564147, 756.8695703223176 556.9927053868699 M814.2741454556108 555.3872433815905 C798.0228618688659 555.3321936688625, 782.092875115363 554.6414081441078, 755.9603943407415 555.5305736482709 M754.2128764729016 555.3006280957572 C755.7964706055958 538.2689365989567, 755.3443632899388 521.2262732048451, 754.7072869913967 506.6917504102227 M755.6868558476198 555.3509385328979 C754.8274008792986 543.6228375572301, 755.1139199046468 533.8938886003806, 754.4975357520991 505.0527775739963" stroke="rgb(0, 0, 0)" stroke-width="1" fill="none"/></g><g><path d="M841.499742565855 506.57410254449167 C881.5922292787004 508.16674365545407, 923.2370459751388 505.14025227504374, 1041.2588035035385 504.40854237867654 M841.6131243962292 504.8463730853121 C915.5639886940771 506.1425273488576, 990.912717805274 506.9043164932832, 1041.769949788677 504.428406794648 M1042.1920222243575 504.54549392127035 C1039.061633729087 551.473113610905, 1042.0946684600115 601.4697970684362, 1041.717959005932 635.7380673036004 M1041.4314363106896 504.81762784478497 C1042.4806232228166 540.3386529531296, 1042.3265641570888 573.2388935233039, 1042.2146639182888 634.3920625815026 M1041.985361563681 634.7608824040342 C961.5472523467446 635.7819826798731, 884.5756969136198 635.5958516768486, 840.9462210925769 635.7644332717776 M1041.753967522359 635.7252929546557 C966.9753101352333 635.0033258560333, 892.5178914288269 633.9944050881463, 841.5694539702683 635.189922992772 M840.6761162642563 634.0499166933597 C843.1993403984649 587.4859776406572, 843.5338235887441 539.1842132894253, 843.3860504841228 506.59225219442357 M841.9541202569927 635.9334519857618 C841.0894267395524 583.7423014295568, 839.787417841022 532.7805077087114, 842.5703939494458 505.1471886717254" stroke="rgb(0, 0, 0)" stroke-width="1" fill="none"/></g><g><path d="M835.765986307926 497.93898036943466 C906.9591886721407 498.2486647084708, 980.5952807767063 499.1964489228863, 1048.4192617481308 498.48744434908144 M836.0361065413352 499.5732558026008 C904.7758809279298 497.9569938379841, 975.6551066271855 498.6678511302882, 1047.9356839454615 499.5265841386804 M1048.4809291985146 499.41220914327425 C1048.1281851140068 530.1463638744326, 1046.3865226976575 560.2336928459241, 1049.0191533812722 640.6447642267982 M1048.8202416616537 499.36807866011765 C1048.568391818408 551.9385182544523, 1048.2649143833721 603.5967639792233, 1048.3416138634882 641.0591789426815 M1047.2668369616658 639.8151621171463 C973.3024845939899 638.8815776027369, 898.79553262545 640.830038365928, 834.9570861628109 641.4085413014677 M1048.4953848599619 640.8595688241096 C998.229920470707 642.2079116714506, 947.2621759838969 643.2946955699679, 835.478493818627 640.5043772986828 M834.8564985154799 641.7142167174823 C836.7013635785663 588.6233353644427, 836.8761260031957 535.2138454188078, 835.4801183270807 498.44853772150776 M836.9516421132281 640.4444641586398 C835.4457712638999 603.6784204596416, 835.7728960968487 566.9142863473725, 835.6488689679442 498.5607615493388" stroke="rgb(0, 0, 0)" stroke-width="1" fill="none"/></g><text x="942" y="595" fill="rgb(27, 14, 139)" text-anchor="middle" font-family="Consolas, Courier" font-size="20px">"David is cool"</text><text x="872" y="535" fill="rgb(150, 100, 28)" text-anchor="middle" font-family="Consolas, Courier" font-size="20px">id43</text><text x="1012" y="535" fill="rgb(27, 14, 139)" text-anchor="middle" font-family="Consolas, Courier" font-size="20px">str</text><g><path d="M840.0553103138566 505.92714136995255 C856.933864930084 505.7702287713622, 872.7042140562573 504.14386412279475, 903.4209637647326 504.2710814032952 M842.0237542401755 504.977765476288 C857.0019615966442 505.4354289793472, 870.3509819305752 505.7974237601044, 901.832596756048 505.1964321470268 M901.5945644084941 505.7815107709749 C901.3779183280459 519.7856618785245, 900.4138650907882 538.6533046048569, 902.7579357572897 556.7859790642573 M902.6395587637113 505.8119258990493 C901.6745753104453 521.7778720686446, 901.9689972630081 537.7292404399388, 902.2172729684743 555.8861271488787 M902.9496416655256 554.7185044820328 C888.4290547674285 555.410886564104, 876.0697166285972 553.8520483892559, 840.3042953211402 556.9909505604719 M901.9690773364729 554.4029491883911 C887.590337146664 554.7048384973691, 872.2867271507941 553.7500845635246, 841.2293891049893 555.1936043718814 M843.382690814845 554.7709989382598 C843.6391019620705 542.8884336221225, 842.7168863643402 532.4658408825856, 840.848056327984 506.27965043448944 M841.8661018136319 554.4986226189956 C841.6197718064449 536.2687397148624, 842.0535318515563 518.5049527323364, 842.2964016608084 504.9639075516542" stroke="rgb(0, 0, 0)" stroke-width="1" fill="none"/></g><g><path d="M983.0922182694386 506.9647590276128 C999.7073819615645 505.73637574916194, 1012.9084905714222 506.1541879036579, 1040.6496180656334 506.2624126578776 M981.7143570145988 505.34639320387515 C1002.7370632248193 504.121911233957, 1023.8745975815374 503.9544471842466, 1041.3795728289047 504.2168343510145 M1040.1235704942972 505.8995684600286 C1041.8516559431168 521.0343210765843, 1041.3151519339815 536.513240233439, 1042.0006141454583 555.438686939811 M1042.835204484753 505.0501974841929 C1041.8082469671506 524.4884312273393, 1042.3102528355764 543.6455709489798, 1041.6793038049486 555.490558549962 M1040.7666783475183 553.9012315183433 C1021.7884020275466 553.2369945692275, 1005.0972996691725 553.0519800096502, 982.1853061149804 555.6738191392344 M1041.5786172235328 554.638054638814 C1025.8012056717662 553.8499844230795, 1008.7794067844786 554.6877137674643, 982.6974223959013 555.2481634434308 M981.5684958706462 555.3994925668482 C983.3945977082087 533.4945013612097, 982.4170067671499 516.1274411944879, 982.1889856685851 503.1758891323425 M982.981868961837 555.6993039902788 C981.0002320046937 535.9477059319552, 980.9155048534773 516.5007361379941, 981.934418828603 505.3383569772032" stroke="rgb(0, 0, 0)" stroke-width="1" fill="none"/></g><g><path d="M1070.7171613960834 503.2240016859887 C1117.6411139919376 504.42782816479934, 1166.4080638872908 504.0080169515016, 1267.674524436724 505.88201307888664 M1068.6362104160235 504.6805289111948 C1146.5815113691783 504.0678984699657, 1224.8856541654065 503.86149360654855, 1269.5077281234849 505.56555803318025 M1270.3483625240144 504.94859082124344 C1267.255329877611 537.360638041044, 1270.8257273403776 575.0464352693891, 1269.9146526559687 633.2946483121439 M1269.236381236481 505.6838464523711 C1269.6420247017131 533.3693707136102, 1270.0791403904855 561.1587003682072, 1268.3875986085452 634.445024541439 M1268.2258300455462 635.2002993962196 C1205.135188614894 633.3546600613713, 1138.717589067659 633.2078462296955, 1068.037900164064 636.2495024019526 M1269.3443604151562 635.1961051851811 C1226.091634494567 636.175501592909, 1183.8923980893408 636.3697578148009, 1069.8943058926693 634.431707108526 M1069.492564948879 635.8314345034493 C1067.3478750661272 604.3492775252452, 1069.4017651088373 574.9875023079834, 1067.6581352450075 506.9601664212105 M1069.4564278637238 634.2801097855614 C1069.3511594095582 604.4966169883598, 1068.648754883854 573.3220417772328, 1069.9768892127438 504.42839456342347" stroke="rgb(0, 0, 0)" stroke-width="1" fill="none"/></g><g><path d="M1062.2845696126426 499.17527130689774 C1146.8775144281367 501.8374165128831, 1229.0274692836963 499.1127169838587, 1276.1454511225083 498.832239800009 M1063.8309007397272 499.294771273483 C1146.2484407486816 499.11348624302275, 1230.0430629482412 499.08638655177333, 1274.5251757354426 499.19382500480395 M1276.4351463006974 499.7041329789527 C1276.0969252170003 550.4995886538894, 1274.13305310613 605.9961019068758, 1274.4212807967085 641.579454082344 M1274.463113532604 499.6938218118894 C1276.4233934359543 550.0203202730582, 1275.1307399949392 602.4656705199698, 1274.76353853319 640.1293148748117 M1275.2202076766393 641.4892468225341 C1209.0459163279618 638.0870630344189, 1142.668499214866 639.388050088089, 1064.1627281947385 640.03294798904 M1275.755035462188 641.781533678282 C1220.0879452102379 640.7457580405011, 1163.9511383405093 640.054000446952, 1063.4925005605637 641.4616218552288 M1061.3036912967204 640.4706991328702 C1062.1810976896836 601.85514651107, 1064.758999991209 557.2018129022701, 1063.1948266679203 498.530954349953 M1062.0607897684565 641.4993884537005 C1062.8183514012019 591.8002926960207, 1062.3694480659656 540.4461500695455, 1062.3721072707754 499.62923255418656" stroke="rgb(0, 0, 0)" stroke-width="1" fill="none"/></g><text x="1169" y="595" fill="rgb(27, 14, 139)" text-anchor="middle" font-family="Consolas, Courier" font-size="20px">"None"</text><text x="1099" y="535" fill="rgb(150, 100, 28)" text-anchor="middle" font-family="Consolas, Courier" font-size="20px">id13</text><text x="1239" y="535" fill="rgb(27, 14, 139)" text-anchor="middle" font-family="Consolas, Courier" font-size="20px">None</text><g><path d="M1069.567125687016 503.1762444707808 C1090.7006148157507 506.15039120521703, 1118.002416279253 506.14976563497925, 1127.1033754847754 503.6118711376493 M1069.9140070205724 505.6768590067864 C1081.6892153459296 505.03918920759713, 1093.7587329673152 506.18666174354905, 1128.7958081197366 504.4572490784924 M1127.065697517495 503.5720494403009 C1127.6993385199057 516.2667032046521, 1128.7320734543302 529.202839725057, 1130.4253087908319 556.5065213634578 M1129.3223307674705 505.38036627194236 C1128.9083984823808 516.8826974565673, 1127.983775523031 529.3903215521865, 1128.2022853910516 555.1463017254749 M1129.2004501947947 556.1655507886949 C1114.0648526598868 556.4714078109039, 1097.0724236088736 556.6987842940122, 1067.4005108493025 556.2927371144341 M1129.5670198188238 555.6381461237294 C1115.1785266997385 554.5671129742323, 1100.7715338225469 554.9922950484905, 1069.7758566846026 554.6646513876602 M1068.9047128185935 555.8390649549841 C1070.9802482925036 543.5282156695877, 1069.056780778479 528.9585508200221, 1068.053973968973 504.95719651433956 M1069.7733587715775 554.116735913171 C1070.267029269184 543.4457702869526, 1070.2313642604304 533.1703743719714, 1069.9237486412812 505.78785599042794" stroke="rgb(0, 0, 0)" stroke-width="1" fill="none"/></g><g><path d="M1207.4309396469268 504.01044591738713 C1228.0817500509509 506.19081666090415, 1247.8224501303998 502.46229384925454, 1268.6845461665725 504.29956399255985 M1208.2789472392144 505.3780798438602 C1228.9915944924553 505.0526232312168, 1250.898278155013 506.1530836171232, 1269.7613780187269 504.40412883183564 M1268.4032005737265 505.2502299510109 C1267.8677979318174 514.0607345568992, 1267.5360383389705 525.953862059236, 1268.0784349101903 556.5704974711817 M1268.6681328118168 505.4967831358511 C1270.3673658038983 520.1895532406211, 1269.0768874482278 535.7895442178307, 1269.8954516976778 555.0026820857314 M1269.776883413805 553.609251579663 C1245.2364725782375 557.0179848710939, 1225.7639139820756 556.5672563706022, 1209.1080353907732 555.1065725424812 M1268.4127890758893 555.4670917453079 C1251.4781995282715 555.1491226192832, 1232.5636156405142 555.3595851152364, 1209.718394574948 555.7947387555544 M1208.9416770315606 555.1479035669073 C1209.5165799830463 543.6590863500116, 1210.391152870406 533.6975828676669, 1209.8082694178895 506.0726750668623 M1209.0968146813927 555.8524777689803 C1208.6137911397022 537.8548460582282, 1209.6491459368253 519.5872881517962, 1209.8589924007692 505.35653287376306" stroke="rgb(0, 0, 0)" stroke-width="1" fill="none"/></g><g><path d="M614.104640966595 662.8166125512951 C704.4323737508544 663.2658037036354, 795.837145199271 663.04091923834, 895.6273404202234 663.4184700949775 M615.035172169582 661.5566255842012 C677.1544616828851 661.1720230470399, 741.0081776540329 661.9635317750939, 896.3326067149707 662.4518671611901 M898.2263906288422 663.3493920497068 C895.1943941775673 701.6482605955599, 896.8079806354675 739.5088475371841, 898.0122630159015 790.7685264883193 M896.4427102218738 661.5994102670584 C898.6374637623675 712.1181943103768, 898.1415418153875 764.5823976829003, 896.4064734105444 792.3123023941024 M895.4846622204133 792.4061709158264 C818.2424170266615 793.2488012280126, 742.6830792743464 791.3179414531162, 615.1620482319781 791.782989108445 M896.294110622772 791.6009879149728 C822.3205836155923 792.9701121325257, 748.476882058427 793.0125467759975, 614.7047496591268 792.3435323839589 M614.1566099404068 792.410543302731 C614.160959713103 755.2393889227717, 612.6386766879832 720.2129648708088, 616.6239321367407 661.2951926594899 M615.0569260227433 791.0445666543669 C616.0247348919881 750.719808012782, 617.0058277152135 711.5777181933299, 614.1725305301093 662.4817047605595" stroke="rgb(0, 0, 0)" stroke-width="1" fill="none"/></g><g><path d="M639.0072474034532 725.623157994104 C658.2583771041581 728.264345501405, 673.4254787353561 725.7021173855095, 699.6996194730607 728.3567333558317 M640.6936098084675 726.1283676944894 C661.7426590637729 726.2355177691504, 681.8308009254821 727.1528806292318, 697.9856683151195 727.4818215538099 M698.8792358708724 727.9248060582056 C697.0254273617177 737.9994727264201, 697.464553334047 752.7740871180323, 696.3113559581914 778.3259961047546 M698.8055514972231 726.8064989690489 C697.8745440012484 742.5083109066776, 698.8291773240829 756.6224579919309, 698.3803019021094 777.1638375886491 M699.7872143017208 776.3793842157121 C684.4651012177635 774.8207387208648, 667.2003446032228 776.8086018417944, 639.6215013559563 777.6514030870169 M698.8430120620535 777.6442263699705 C678.4224366827212 775.600572217076, 658.2281910057168 776.8543308457168, 639.9259059245829 776.0786749810309 M639.491728937475 775.4235232931403 C640.1601571049259 759.1987650081345, 640.3299461064248 743.8650305899131, 639.1462566854735 728.8404787863966 M640.5656985732796 776.143869624083 C641.0692419516145 759.2161899588568, 641.1906304320277 743.1168479393025, 639.7036821412595 726.5439373196034" stroke="rgb(0, 0, 0)" stroke-width="1" fill="none"/></g><text x="669" y="757" fill="rgb(150, 100, 28)" text-anchor="middle" font-family="Consolas, Courier" font-size="20px">id19</text><g><path d="M698.323009904111 726.3874223135869 C719.6276567421542 727.7527415297792, 737.9112938195765 727.3188823462692, 756.9822106498889 727.0380666720941 M698.4160479447768 726.613177025887 C717.0537576916159 727.590201181683, 735.6707720673799 726.4790253612488, 755.7403638063782 727.5191215524004 M754.5999151955094 727.5665674078577 C757.6384792228739 742.0236507718168, 756.9119615720687 758.6338898575525, 754.1041914444214 778.8196032034658 M755.3177901922081 727.7401451790065 C756.011074194626 741.9529560718543, 756.5055117266426 759.2539876200658, 756.1095826087638 777.8734477922035 M757.2660709660048 776.6160381978796 C735.4246570259727 777.471214423634, 716.230265165808 777.8114747928208, 698.9442999332509 778.8480094067176 M755.4061890494434 777.8153707039762 C742.2512148724476 776.7658409415005, 729.924940853569 775.9052405200134, 697.5298205379999 777.671591414238 M698.3925539087677 776.7492565762371 C698.9140422389082 757.3171576848325, 698.2579935769802 741.7314175946514, 696.8786350800074 728.0142445819778 M697.834050498111 777.9819007341831 C698.2933798952465 759.7778705430593, 698.1751306435509 741.3830213243554, 697.5630792302991 726.6071299614445" stroke="rgb(0, 0, 0)" stroke-width="1" fill="none"/></g><text x="727" y="757" fill="rgb(150, 100, 28)" text-anchor="middle" font-family="Consolas, Courier" font-size="20px">id43</text><g><path d="M757.7993210065717 725.7954088567792 C773.2448258636056 726.1755544484313, 788.4964395593531 727.3721856335733, 814.7551798594773 728.651351816941 M756.9487296980427 726.4277034716582 C777.539615344409 726.3913802382499, 798.6367897602789 726.4926519360059, 813.5988528548286 727.7300729230963 M815.8151262975487 727.2181703485624 C812.3510263865102 747.02740178907, 815.5337102046069 764.4866396145798, 812.2898900301942 777.7700033942158 M813.3042279849105 726.4566438202822 C814.5175713747666 739.0927769970042, 815.1117110027559 751.0820985328345, 814.8914837314574 777.9797493870899 M812.143416062783 776.7790303469018 C799.2937566486148 778.0464060327786, 786.6611089521986 777.6234551647838, 757.3117559356181 775.3881227382427 M814.212928740828 776.8950492322421 C796.1341462827074 776.6896611519319, 777.1582807271495 776.02832462535, 755.2350264989572 777.7814906240143 M755.4891825852902 776.7684680172206 C755.6464324543618 765.6514000733586, 757.296218885098 752.3358773734006, 757.7253381634082 726.3990707245807 M755.8562020833717 777.9752051120485 C755.4915041499784 758.8231820503271, 756.4900750964657 741.6259699385897, 756.7274644100136 727.1433564995248" stroke="rgb(0, 0, 0)" stroke-width="1" fill="none"/></g><text x="785" y="757" fill="rgb(150, 100, 28)" text-anchor="middle" font-family="Consolas, Courier" font-size="20px">id28</text><g><path d="M815.3501497019724 725.2725824231122 C833.1599882083308 727.329610953708, 850.6325031936587 727.4355108023926, 871.0247931445315 727.4515155153097 M813.7702911568578 727.8187206540247 C831.855276635651 725.7429523612017, 850.1815553470813 726.64583916815, 871.6491455702871 727.0713065534757 M870.8489983090739 726.6836012759992 C872.5587273999265 738.1305484334268, 869.844169748726 749.2280088778788, 871.9700385632873 777.0917491185119 M871.1046401747102 727.9847015538055 C872.804188048635 743.9571298097642, 871.9146731551737 759.7827585891322, 872.9537355423628 776.7646100314622 M873.2495738719878 778.0396848712869 C857.8648398338069 775.3324951926228, 842.6371788488182 775.6460268983814, 812.0802688070676 776.0550792081323 M871.8733927089581 776.1139404414643 C855.4833875519165 777.5061474161836, 838.7724345432663 776.4284307964456, 814.2317130990534 777.3128893709662 M814.7813494800013 775.24050487782 C812.4221673451746 761.6871013861792, 815.4009308987869 742.61087529002, 813.676626957237 726.6509328079086 M813.6560631115021 776.3665516716123 C813.749405622064 758.0928912559644, 814.077705388829 740.0244219633726, 814.4538847984519 726.8557100004103" stroke="rgb(0, 0, 0)" stroke-width="1" fill="none"/></g><text x="843" y="757" fill="rgb(150, 100, 28)" text-anchor="middle" font-family="Consolas, Courier" font-size="20px">id49</text><text x="645" y="692" fill="rgb(150, 100, 28)" text-anchor="middle" font-family="Consolas, Courier" font-size="20px">id82</text><text x="867" y="692" fill="rgb(27, 14, 139)" text-anchor="middle" font-family="Consolas, Courier" font-size="20px">list</text><g><path d="M616.2092203746186 662.2416397052713 C635.1744215093763 663.0053918865577, 657.0235526655557 661.9245388249337, 675.5888857919717 662.3429728885992 M614.3885243954319 662.4532337053989 C638.7394411787144 661.3922225605718, 661.8790493334091 661.6155311735026, 674.1917720375034 662.8803474040765 M674.3874499470738 660.6742524037913 C675.0794559803463 672.8397747895008, 673.3537639730376 687.2627734451901, 676.344659473151 713.9878891244128 M674.6373646759887 662.278544605991 C675.0665740690594 675.9419991579063, 673.9126694038065 687.3685669947575, 674.9535447201866 711.1227811365914 M676.5830638561283 712.6270596204413 C660.3674050107534 710.3166661591838, 650.3412707408648 711.9460201311846, 614.5357404484569 713.1147648093139 M675.3504701666735 712.6492918332027 C654.7396868424116 711.4941633290492, 635.3248922943146 712.2256797380232, 615.1452104417937 711.5415546967988 M613.9361825377026 713.7074419877669 C614.9594024514863 695.8621002248718, 614.2215703850427 679.5302511097501, 615.0922554218495 660.4206280312591 M615.5602229468014 711.3523819560262 C613.9128736531412 696.1960908810493, 614.1025218696634 681.7189196817453, 615.0899657998523 662.8876638840985" stroke="rgb(0, 0, 0)" stroke-width="1" fill="none"/></g><g><path d="M836.27810739767 662.252835610726 C854.5925857612943 660.7574428499254, 871.397878644875 663.9292108179229, 896.0447439315785 661.6696490350519 M837.0004695182508 662.0046470422737 C854.2892880927227 663.4674371686995, 870.8875605241003 662.4519923566804, 897.1978878646239 662.9510245599686 M895.558821338692 661.0483602388941 C899.1180164273878 671.3362827728671, 899.2549648313641 681.5499873329277, 897.0475498632984 713.2692577387636 M897.2980394206039 662.1200779713187 C897.4857402010146 680.8833429729217, 896.7378247774881 700.5512986208263, 896.226883787382 712.6485131794067 M897.5665172246783 710.7991255100459 C885.675129834576 712.3376064282736, 872.803011624704 712.3926007114384, 838.2837598944272 712.044238560062 M897.0873023958827 711.6705826504391 C880.2683376992376 712.8068451225187, 861.618759971194 711.8167436145742, 836.0591414789392 712.3733973472805 M837.3985837972236 713.0862180595699 C836.8453430610783 691.6295165160861, 838.7289998169218 675.3631761314543, 837.8397562556953 662.9426979255707 M837.9811841650569 712.5198851716409 C837.458987254104 693.3754702405543, 837.4750931440794 674.4705073006979, 837.2079858381264 662.282387251798" stroke="rgb(0, 0, 0)" stroke-width="1" fill="none"/></g><g><path d="M912.6844181404186 660.3749175636925 C990.0634121031351 660.3275955268743, 1072.9082774847693 660.1888305025433, 1111.5472675959143 660.2805890988695 M912.600140544538 662.1664424891758 C978.1899308631108 661.2169276313406, 1043.458147813465 660.7501124367675, 1112.336950183757 662.0149351209068 M1113.6012442390568 661.4113122137364 C1114.996670704841 713.6909851973264, 1112.6682361381588 765.2574812066104, 1113.6032047216872 790.9543742218708 M1111.432483922069 662.172856699421 C1111.3964143910066 702.9444073940389, 1110.1654339667898 743.7784011034429, 1111.7833753513466 792.8616978349222 M1110.8339148018292 793.7138675695894 C1072.8610962676948 791.195773925161, 1030.6565990373954 792.1199406112032, 911.0804223518937 792.4519790452215 M1112.6154463795406 792.2596105507434 C1037.459803538414 792.4377060939493, 962.8228612887552 792.8821486910288, 911.7400366320721 792.6533159605344 M912.6098000854608 792.2358432537469 C910.305631922147 756.7546969412099, 910.4148397243381 719.1128550065735, 912.8881739035834 661.8107898568096 M911.0827005446007 792.7214192948846 C913.0707231071204 750.6715765252455, 912.5470201449115 708.2867072644874, 912.6578677712653 661.0118897440368" stroke="rgb(0, 0, 0)" stroke-width="1" fill="none"/></g><g><path d="M906.1552348087822 655.6213331057999 C950.0522609351267 654.3295641577257, 996.4337983041153 655.2928250317301, 1117.2899348794476 657.5054648322705 M906.4009397696011 656.1377098036658 C949.5422633496012 654.9864712498614, 991.9301848741823 655.2823690291073, 1117.4133822703357 655.1975870610142 M1116.499807689738 654.2420253411161 C1116.0031108040077 707.310933492359, 1117.5699678175276 760.8392412706258, 1118.2696067247075 799.4384069774832 M1117.4760929165889 656.3566900635027 C1117.619157774323 693.6679366663933, 1117.2126245070283 731.8921120313404, 1118.1572213062263 797.2108045960736 M1116.8261342131093 797.2903140879862 C1062.9940391239238 797.1982065620375, 1011.0225673836525 796.8412772137274, 905.8080304239826 799.1810276733156 M1117.629257419947 798.7499646162688 C1034.6153623887799 799.8268635951824, 951.1810373951098 799.0597788852082, 906.0778709815283 797.3909443541584 M904.4152628687964 797.0088214837521 C905.6770418601576 766.9660768844789, 905.9416621053311 733.8530517455661, 906.976618206449 654.3874631220654 M906.3834637169145 797.5385093024225 C906.2932680832917 753.6077547020641, 904.9088398350426 709.0360031031462, 906.0789993326727 655.5325745135117" stroke="rgb(0, 0, 0)" stroke-width="1" fill="none"/></g><g><path d="M938.0630598619593 727.1435207758192 C956.0293416078952 726.2046541017188, 973.9986404720677 726.2211577660431, 996.406177643498 727.5040226626594 M937.0137047175907 726.2976536258514 C949.1616063438246 726.6422677962257, 961.2488685028268 727.080959997491, 995.0473994585959 726.2099101278976 M993.638152482379 726.3644952575237 C993.7340540284039 736.3966020310284, 995.6750197823318 750.8762121986395, 994.925869954783 775.441523866983 M994.0600840046282 727.2344257470855 C995.1495264658549 745.2564932542933, 994.5993846667175 761.9423512398917, 995.4615294289606 776.6095003694048 M994.5259398177975 776.4659364739688 C983.4975298723981 776.6333174388816, 969.0279739567694 778.1212892577348, 937.3070690203033 778.1237509685959 M994.2442642725721 776.0895417249253 C975.9621788014131 777.2563628754415, 957.3219746048536 776.064476870437, 936.6876934866053 776.2095802993066 M938.7000530308541 776.3829746956444 C938.2140898467512 762.578897286041, 935.7725232741986 745.431874702148, 936.4270888262711 725.1273538728512 M937.7336509767798 777.356267488663 C936.5628948815773 765.9955360532938, 937.4336472493407 755.8636707815423, 937.7722694361103 726.5294249900276" stroke="rgb(0, 0, 0)" stroke-width="1" fill="none"/></g><text x="966" y="757" fill="rgb(150, 100, 28)" text-anchor="middle" font-family="Consolas, Courier" font-size="20px">id82</text><g><path d="M995.3569803496777 726.6612666652483 C1013.8534176780278 727.4483064134296, 1034.9040796408206 728.9243503463052, 1052.549580962226 728.4417883533268 M995.0974787657874 727.4940364964228 C1017.0913269003122 727.2895058391227, 1040.006262279075 727.5947582128816, 1053.3768952676903 726.9072971352882 M1054.6425821145642 726.4669000966194 C1051.6747838841193 740.5807019205711, 1052.8718885053688 755.0313358606802, 1051.6678846417003 775.2332052944062 M1053.9861284691785 726.9452078689399 C1052.7209619375997 740.2815881016326, 1053.9051018207645 753.0688635783044, 1053.2187123774636 776.8933884043549 M1053.9865429043678 775.7704567012543 C1033.094600106313 774.791472603887, 1014.9217407577069 777.4564086958211, 994.7223110227151 778.8814130892779 M1053.6933557631114 777.1328599133757 C1031.2429277071603 777.9779664930159, 1009.0546961693526 776.9527278131653, 994.94567481993 776.3676026392039 M995.8624038758359 777.771549473611 C993.968614820461 760.0133230114645, 996.0705439554648 742.2874846269299, 993.9550575870666 725.3785220525453 M994.7712388226552 776.7349739399576 C995.7535899319608 763.8822562570776, 995.5220808495144 753.4796264540888, 994.5190329565155 727.031512545633" stroke="rgb(0, 0, 0)" stroke-width="1" fill="none"/></g><text x="1024" y="757" fill="rgb(150, 100, 28)" text-anchor="middle" font-family="Consolas, Courier" font-size="20px">id76</text><text x="942" y="692" fill="rgb(150, 100, 28)" text-anchor="middle" font-family="Consolas, Courier" font-size="20px">id11</text><text x="1077" y="692" fill="rgb(27, 14, 139)" text-anchor="middle" font-family="Consolas, Courier" font-size="20px">tuple</text><g><path d="M913.3577423382138 660.9382413716348 C928.0040966272693 661.960893849277, 948.8041072833616 663.2460391141742, 973.0912244784471 663.9005167693969 M911.0208246123028 662.9884499073861 C932.0673308247004 661.8722307421884, 953.1914880562634 662.7264919591601, 972.9486385622002 662.0563417846125 M972.4673073719206 661.88742636611 C973.5017982219272 675.956350847388, 969.9854463613657 694.0270318033657, 970.4412149669521 712.7930605161295 M971.8731010056002 662.2588526751632 C972.0869537418774 681.3970961735977, 971.4363729028055 701.719884659774, 972.1582132489849 711.7772737300662 M973.8274158960369 713.5772444353249 C952.1195868070324 710.8310661762164, 935.3703558292336 710.3333046406893, 912.2651294651736 711.3964838653558 M971.9750928606262 712.7656066074844 C950.9300721029779 711.6852563511984, 930.7101427495392 711.6715452593196, 912.5932767372515 711.4461523804115 M911.2455317346535 712.6005132618906 C911.8679504220902 694.6950973355666, 913.5657418066297 674.7105141994502, 910.3729714654512 661.2249380560369 M911.8776367396024 712.7268058128817 C912.6016774700863 697.9063738366987, 912.8517050983227 685.7724886862375, 911.0423477360156 662.5960388759739" stroke="rgb(0, 0, 0)" stroke-width="1" fill="none"/></g><g><path d="M1043.513407573425 661.0733712954482 C1069.4655888139057 662.0155655048712, 1097.369109573656 662.3773033403149, 1113.5839190600454 660.2088882459232 M1042.2895912437816 661.0051629258379 C1058.5004580660882 661.9657842331144, 1076.1276239128836 662.0101460820209, 1111.619944905663 662.2100745461938 M1111.0478245290356 663.0983435269184 C1113.221678250647 674.7916791508735, 1111.9398983324854 688.9309525157495, 1111.2655053293652 713.3507484118015 M1111.4903081984285 662.7209554920138 C1113.461026783786 677.3185515007185, 1112.3825408154505 694.0636867306301, 1111.4691950370875 711.7968596321551 M1112.1675670992752 711.4264731170615 C1097.8562203909446 711.8451179210516, 1082.6962481999592 713.247353220358, 1040.1257383513137 713.6697893490343 M1112.8995395506442 711.0305883743151 C1094.970061087308 712.084524263375, 1079.1642556055015 711.3251925714014, 1041.8304871076223 711.6478537875482 M1043.8469356656547 710.8859348498028 C1043.569280977383 698.6187901510276, 1043.156306302427 685.1690826957442, 1041.6856194273232 662.9789097230874 M1042.9588854087651 711.1326087864056 C1042.345868646738 695.3516846040823, 1042.1593145083184 677.9568589552631, 1042.2015076723164 662.3706470198172" stroke="rgb(0, 0, 0)" stroke-width="1" fill="none"/></g><g><path d="M614.9547551026864 805.8732452285433 C711.5628496225017 806.8451047719049, 809.5888036902043 806.7449714585006, 863.0661684083151 806.515137602075 M614.9127973806261 806.6184734534755 C666.9700494471971 806.5203298678633, 718.7694228613555 806.346735225413, 864.2935443828362 806.3631143071188 M863.323587545161 808.1562188762226 C861.4744094755927 853.8189270763072, 862.0367556960241 903.6407460282014, 862.549893161988 937.0534096840844 M864.7247819549455 806.6679714489402 C864.1984961326726 846.4098092569079, 865.7655262957644 885.3917655460413, 863.247264074187 936.661740781544 M864.2652606000674 938.115702591848 C775.9505416315324 936.5542140017337, 690.546589292217 936.7302474114838, 613.6257413724791 937.5057800666958 M864.1955783345908 936.9262074013614 C800.8771880558414 937.0622094958153, 737.3540167168684 936.8327849281994, 614.8824902356853 936.2473914077167 M614.7328355753212 935.8142655772283 C615.5753189318133 903.2347318747063, 617.7623612019299 869.8935765941077, 613.2268457510697 806.356057506694 M614.5985507827497 937.0779865629431 C615.3525812550577 899.6749107401896, 614.8103704761342 863.512311837734, 614.7738856828221 807.394594909349" stroke="rgb(0, 0, 0)" stroke-width="1" fill="none"/></g><g><path d="M640.2245858401211 870.7668888309785 C660.0245522360811 872.2495160642544, 677.8570605875749 869.958187391345, 697.5494257276639 873.8987286266578 M639.1607794486702 871.1737040943738 C657.0006116000793 871.1204974123831, 675.2337108743965 872.0975774038038, 697.5820357361772 871.4709004779119 M697.7931230112557 872.6654289905761 C698.5260422286544 884.1449091063538, 696.128439377103 897.9839096703769, 699.0664113084433 922.8576332030442 M698.9529724472123 871.113029207729 C697.9870212446976 888.9919195658908, 699.2291077872674 905.3333201070623, 697.638827757518 921.897435730633 M699.463590765713 921.5832576798992 C685.0152360237487 921.6340182776845, 669.384821181579 923.7738058443778, 641.7241761615493 922.7972878176922 M698.5756837268377 921.2785525709387 C679.5056806262263 922.1459810741786, 662.1305463552859 922.0774950312059, 639.6113407441221 922.5953979201487 M639.5255121258491 921.0909890438298 C638.3689917179249 910.4051106258257, 638.4439807712738 896.8151045131193, 641.9043219663328 870.9482019890719 M639.667502650929 922.3751543830888 C639.9575717375908 906.9728324016381, 640.726831091263 891.7250921193543, 639.3338311368274 871.4546362792408" stroke="rgb(0, 0, 0)" stroke-width="1" fill="none"/></g><text x="669" y="902" fill="rgb(150, 100, 28)" text-anchor="middle" font-family="Consolas, Courier" font-size="20px">id36</text><g><path d="M711.5223014174736 872.5440137920675 C723.4391574135112 872.7652679786046, 735.5033259777362 872.3132827871831, 767.5197371427771 870.7684763828981 M711.4844493821473 872.8290888957715 C723.9133222805215 872.4703564664445, 736.9280688385583 871.634114626065, 767.6260601808651 872.3321232259165 M768.835289883514 870.3895067081769 C769.7323821443988 886.9540825120534, 768.8410164852928 902.4192912657334, 768.9874119926791 921.9377580722085 M767.6412507155574 871.6849119234068 C768.8993869330071 887.3051716437502, 768.8551410288751 902.5876815355801, 769.4080433455903 921.2155975696348 M767.302429472579 921.6089759759398 C752.6164414425107 920.9832944820058, 733.4848792890015 921.1793779260096, 708.922864913217 920.0038839988893 M768.364699225781 921.469462983952 C755.1537966082313 921.6912223212147, 742.5379378092446 921.7299943676015, 710.5639955958227 921.6454864348127 M708.7587308139822 922.0680280538164 C709.9158596874843 908.1689437505821, 708.7090092308631 891.6691266171498, 709.6783725432764 871.220670731301 M711.2691584678605 922.7069661112074 C710.7791139095475 910.9335408551781, 710.4718169825354 902.0184577669813, 709.7006046330209 871.0459055261134" stroke="rgb(0, 0, 0)" stroke-width="1" fill="none"/></g><text x="739.5" y="902" fill="rgb(150, 100, 28)" text-anchor="middle" font-family="Consolas, Courier" font-size="20px">id49</text><text x="704.25" y="902" fill="rgb(0, 0, 0)" text-anchor="middle" font-family="Consolas, Courier" font-size="20px">,</text><g><path d="M782.3312264125065 870.555319636162 C795.791398018348 873.8330168829115, 815.0753170649664 870.35437884679, 837.6767318154242 872.6652167042278 M780.9046020582409 871.0552000696024 C802.9048304696964 872.2838039598837, 823.1160483163359 871.2167408223632, 839.5747216673979 871.238260957393 M839.0923496019317 873.284595437023 C840.0023165179748 885.1460934937087, 837.8652343098094 894.2777354950778, 838.4122310356885 920.2344324490043 M839.0786692204391 872.843110815611 C839.4551848728161 885.7375539330014, 838.8616728310693 896.7334791707194, 838.3762361330275 922.5671498771617 M838.3198094197337 921.1849242005907 C821.4764755704263 922.1624281097478, 806.2267902473553 920.2245049883396, 780.3225209960434 921.4236479641839 M839.6998704429739 921.2418102808994 C827.1507711172102 921.3577470284763, 812.8296518579717 921.1356261680234, 781.0842206445177 922.341732130539 M782.1555927588684 920.3619524509708 C779.9936075520792 906.4813055963964, 781.2068796857842 890.2857828087662, 780.7503182456787 870.7613405913438 M781.3997636192674 921.4668515947162 C781.6969638184553 910.566909233035, 779.9915957246252 896.7034063683577, 781.8620083040447 871.0364739682109" stroke="rgb(0, 0, 0)" stroke-width="1" fill="none"/></g><text x="810" y="902" fill="rgb(150, 100, 28)" text-anchor="middle" font-family="Consolas, Courier" font-size="20px">id64</text><text x="774.75" y="902" fill="rgb(0, 0, 0)" text-anchor="middle" font-family="Consolas, Courier" font-size="20px">,</text><text x="645" y="837" fill="rgb(150, 100, 28)" text-anchor="middle" font-family="Consolas, Courier" font-size="20px">id90</text><text x="834" y="837" fill="rgb(27, 14, 139)" text-anchor="middle" font-family="Consolas, Courier" font-size="20px">set</text><g><path d="M613.9152917295382 806.1986636554697 C629.4045105945629 805.0711010859875, 639.6046971961665 806.9037089020188, 673.8710116684558 806.4560722903591 M615.274917759281 806.0760586988147 C634.6127515277808 806.4418886874529, 655.3579273250012 805.5564918942374, 675.3863649823554 807.1663112951792 M675.302727108057 808.2078255881671 C673.5902812640206 822.9044098530904, 676.9924144201972 838.5704581425769, 673.6919206797212 858.7527889306156 M674.4834940440452 806.5409555939242 C675.9161504520332 821.7181726567218, 674.6179638306863 837.3549970615691, 674.7512037290979 856.5423421546857 M674.4191213585166 857.41813669438 C659.2701355332224 856.8075554028659, 642.2220142977333 857.3244865457965, 616.1805970597691 855.4277969727102 M674.6822259221368 857.8486838171885 C654.0154523331505 855.9056926500958, 633.0312409989458 856.6606149267676, 615.985483410844 857.7697080234296 M613.8580756224783 857.9483897860995 C614.1284516450941 841.4944567499504, 615.644877560358 825.1403722480915, 616.2727277475594 808.5780444020244 M615.9329519962743 856.0573938426096 C614.5774335126664 841.201921133194, 614.7147084723152 825.0795625043712, 615.4314965135585 806.614899060363" stroke="rgb(0, 0, 0)" stroke-width="1" fill="none"/></g><g><path d="M802.9356585534217 805.2943158630594 C822.3869928220394 806.9299348087678, 837.7720785465576 806.5822743081674, 863.241682863445 805.6146455512561 M804.2717179182849 806.4493910702679 C821.7237822345169 808.0597936381904, 839.2688947551657 807.2723656598502, 863.6266477734331 807.2517725182136 M864.8388076478344 808.27129999604 C865.3937520520725 825.2080111532404, 863.5075020739798 845.6475373134904, 863.4257229179857 856.3176978289248 M864.4223763501917 807.3360046238349 C865.1147367760943 825.8187858198089, 863.7236406063843 844.8820943965836, 863.1385681010032 857.9923466156426 M865.6294463445621 857.3347404941569 C842.824612679545 857.2303699702054, 820.9562243592808 856.9380823325428, 802.4018391020434 858.7244379886772 M864.8148102933795 857.3195914292643 C844.7560361437661 856.4631680119676, 825.3838222733933 857.8219061745675, 804.7741601453686 856.5663931618948 M802.3018785619652 858.485844676046 C805.0997894114475 842.3242023998838, 803.2137830777517 828.2412534939032, 804.5103350462321 805.1400101163795 M804.2797689329592 856.1708030353527 C804.9504688819229 839.1657732853901, 803.6455028623815 820.4159081966245, 804.6207259633118 806.7637546564904" stroke="rgb(0, 0, 0)" stroke-width="1" fill="none"/></g><text x="627.5" y="902" fill="rgb(0, 0, 0)" text-anchor="middle" font-family="Consolas, Courier" font-size="20px">{</text><text x="851.5" y="902" fill="rgb(0, 0, 0)" text-anchor="middle" font-family="Consolas, Courier" font-size="20px">}</text></svg>