<svg width="1300" height="1100" xmlns="http://www.w3.org/2000/svg"><g><path d="M10.795254398023161 8.727881126887151 C78.70705782015231 10.91028690971534, 144.70646629773077 7.138662504182779, 206.85943433733684 10.627342983046477 M10.520307394304014 9.177649043271103 C85.29232401372796 8.646120159891732, 162.27101052570913 9.554040428215274, 207.61254146250414 9.526317537184982 M207.01500342395778 10.901952613412476 C206.8733440764426 80.51040410369495, 207.57652797960156 153.14023369902716, 206.5666597043764 235.21395733197625 M208.0959380885362 10.562248519537578 C206.77049598777873 70.54666909548692, 206.90149217869575 131.6171328973947, 207.61826140915812 234.55566663380836 M206.15733323944505 235.351433898659 C159.4617298845878 236.844407473654, 112.10606342541232 238.07048155537765, 8.623696551874572 235.56775543126759 M208.83765609497243 234.79284946044726 C135.63144153204712 234.3451514960976, 65.23738369027642 233.72562462335384, 10.701696184587828 234.22619602507436 M9.44398409407341 235.01730183275856 C9.375663882373546 168.8240932371856, 10.08700918244769 102.11503773020743, 10.24280898243483 9.26980657410252 M9.214295338292708 235.03631937094838 C11.677628634342089 180.53838498867552, 12.46493544434461 124.55772531811597, 10.70086277289314 9.351951039831324" stroke="rgb(0, 0, 0)" stroke-width="1" fill="none"/></g><g><path d="M133.37502352940317 84.57562461925653 C151.2547113963215 86.47285334785967, 167.6105888457267 85.59584169838844, 190.56905402418306 84.35837388249632 M133.01320608830179 84.84381507802415 C156.17430406479414 86.25231580673722, 179.41864568612917 85.36393838185562, 191.18682106106505 85.3456295214749 M189.5237558865427 83.19206686469622 C192.07014251256481 103.57595678645204, 193.1724882346824 123.80971401699466, 189.6842906312414 136.00945961672554 M191.45935474034005 84.75281886536037 C191.288301303811 98.228443211597, 190.71088735180737 112.66695406057883, 190.26588802936064 135.90940720550705 M192.46151794763637 135.4084497451537 C171.03570827273109 133.5015862984387, 154.73098292838202 135.36396723650375, 134.13103179613893 136.7526891882198 M191.07933991876993 135.57631747316117 C167.81107351967682 135.860589882385, 146.18826060067948 134.5272402915436, 132.034078191589 135.82416341549438 M132.07064372863613 133.17446271418734 C132.3381077165795 117.62201683680753, 132.03192936018564 101.11680952989433, 131.63784385033946 86.19091894615693 M132.67003748569684 134.84042141375454 C133.31793195401102 120.5107421869072, 133.54334069646626 106.41734034260887, 132.39883989112548 84.47599512745586" stroke="rgb(0, 0, 0)" stroke-width="1" fill="none"/></g><text x="35" y="115" fill="rgb(0, 0, 0)" text-anchor="begin" font-family="Consolas, Courier" font-size="20px">age</text><text x="162" y="115" fill="rgb(150, 100, 28)" text-anchor="middle" font-family="Consolas, Courier" font-size="20px">id12</text><g><path d="M133.85212716215102 158.94573484640037 C152.6241720058814 161.75770408158098, 174.3027523363134 160.70066394105203, 191.21801067063655 158.74379978476176 M133.79182545334754 159.2629950989938 C149.47115043680068 159.49371489746676, 164.8962165034989 159.65412830194833, 191.99270046157113 160.25752811942752 M191.18105803318488 161.47683226270732 C190.33674600923834 177.21797866063304, 190.28521352521054 190.4889150158073, 191.84345130127267 210.5575406164936 M190.5767452209355 159.88017616744995 C191.47920905783909 178.52021966357339, 191.59073955777362 198.53343050594228, 190.58446007492682 210.95281228554805 M192.87445825425246 210.1417856960237 C174.36313287618208 210.82024264879564, 153.56798306624566 209.4824292464457, 131.1557383713418 208.05830687354722 M190.28984331471094 210.29891498036872 C176.31806082707186 210.11546146410058, 162.70528803772552 209.9504319449177, 133.2264209734634 210.84328823962227 M133.5577447646206 211.17771130244438 C131.2179818825879 192.6128771880841, 131.15429634386973 178.59926454449575, 134.86270314785116 158.32493666818897 M132.2308482964067 209.58279192305864 C133.70271586142974 198.80372928960307, 134.00505105282005 187.7312733897083, 133.4660225339624 159.4992966629639" stroke="rgb(0, 0, 0)" stroke-width="1" fill="none"/></g><text x="35" y="190" fill="rgb(0, 0, 0)" text-anchor="begin" font-family="Consolas, Courier" font-size="20px">name</text><text x="162" y="190" fill="rgb(150, 100, 28)" text-anchor="middle" font-family="Consolas, Courier" font-size="20px">id17</text><text x="40" y="40" fill="rgb(150, 100, 28)" text-anchor="middle" font-family="Consolas, Courier" font-size="20px">id99</text><text x="167" y="40" fill="rgb(27, 14, 139)" text-anchor="middle" font-family="Consolas, Courier" font-size="20px">Person</text><g><path d="M9.138138180648559 9.185674432189419 C30.660379946582307 11.668720570204924, 50.81304272306953 8.877796870989837, 69.75388162370584 10.492198868296352 M9.015406316527937 10.02882299659735 C32.643522783007434 9.660979488196782, 56.76766778888596 10.320775275730838, 70.34446456608154 10.251898740644336 M68.28092418669871 8.374102301879718 C69.45484727905377 22.172963226618524, 72.29615659435306 34.326935286125405, 71.85792040276151 59.19071140679011 M69.19290598594077 9.851222299573223 C70.05472201808524 24.382344910339434, 69.87543500128507 38.718493613543735, 69.26989184771624 60.39151820505989 M68.88486744201266 60.933090877290795 C48.38266291317405 59.710071079397466, 24.968257895057853 61.835882852572865, 8.864534734309977 60.40918516086595 M70.07924476518586 60.02590322810569 C52.96384004256897 60.17028748493144, 37.65217559978929 59.17786454366814, 10.844938498734209 59.685886120814175 M9.178725396087273 59.61718195171613 C9.934508455619678 46.11558545775859, 11.622770864257088 30.16184144380116, 9.312866197204578 11.731513484392185 M9.340977667114844 59.53639067141118 C9.517907205876723 45.37561881256418, 9.90170941079045 28.918464263863374, 9.958431761097566 10.762809879912302" stroke="rgb(0, 0, 0)" stroke-width="1" fill="none"/></g><g><path d="M124.68588639008189 8.676388944746076 C156.08388224301578 11.96974664455502, 186.3927812348675 8.233985276288305, 208.60696235721537 10.865795654287476 M126.95117717523352 9.988861320893886 C149.40839976409433 9.687834776435091, 175.2351927742937 10.787300653402793, 208.5195443231623 10.108147040378766 M207.56623865134773 11.437654818413057 C210.00088580796944 21.723372239024087, 207.36774106349668 36.3944038780561, 206.64737786547556 59.52563062914414 M207.61892921940225 10.132961026416556 C207.38333933369287 20.130686269162993, 207.1596375783475 32.24711607819224, 208.87980370592933 59.39268308808217 M207.12731850082048 61.46712509836288 C175.6614791696317 59.51307391867476, 146.21050829421148 61.67358704838563, 127.64862792447029 58.48493630851225 M207.78601888828612 60.39062496914927 C175.92232694794663 59.77432017559481, 145.49024636673875 59.562878349278215, 125.29144214275259 60.369154734010785 M125.05012837424154 59.94402298014157 C127.07542201569454 48.86589821986395, 127.85897439807724 38.07835688022235, 127.42908078395143 11.048250457652571 M125.09100450757992 60.06946433851086 C125.91062291652592 49.137590972446674, 126.11672326248726 38.13675272417808, 125.16224317060049 10.94046027650384" stroke="rgb(0, 0, 0)" stroke-width="1" fill="none"/></g><g><path d="M8.362760554806279 350.4650036218412 C50.195533754002064 350.6873624467959, 89.82160857625625 350.159926896053, 174.87447977753988 349.37531692959664 M10.009107705312736 350.5283120984632 C58.82716591106789 348.2523759276626, 106.28423816678928 349.8112783081751, 176.17739657644498 349.56006246361744 M176.25604888749746 351.50416663746364 C177.99670678242032 405.5466070210176, 176.9770277619972 461.17292166658035, 175.14711381118767 574.55649305237 M176.78348517165205 350.03512921257516 C175.6535688176984 411.51478897053704, 176.20488537747627 474.0547921218463, 175.97805640721293 574.3402744096257 M176.03288988108793 576.2285396323246 C117.01958294710778 574.4935322587777, 55.99083143711489 572.3044042494761, 8.917233088022456 575.5404127629529 M176.51938296887843 575.4215055006249 C140.91371974518435 574.3611538037912, 106.701741925857 574.1876981859682, 10.566189970287988 574.5783145423499 M8.457798088099505 576.2309187800442 C12.58138559357302 510.96316603056835, 10.32575868851882 448.1061988471331, 8.331932955665494 350.51061928924065 M9.506676705403628 575.1009807665015 C10.517881887021511 490.2853006750262, 9.983688795958876 405.86349906071746, 9.813758397144294 349.4302174013788" stroke="rgb(0, 0, 0)" stroke-width="1" fill="none"/></g><g><path d="M102.48850195955052 423.53657599683265 C117.51800500980909 423.73889859207816, 131.95566979184767 426.73803455876345, 157.19231537847202 424.4809993037552 M100.9498980834216 425.3383475799872 C120.63771895141781 425.521383890967, 140.00435068542856 425.58404501090354, 159.05350547322118 425.1230515560381 M157.12807777129623 425.80186872691183 C160.8035791798257 439.3194150873466, 159.33993769365972 453.1176621622963, 158.08606251405698 473.4621776291335 M158.6674312753592 425.3928653379014 C159.9378701940056 437.6250389634922, 159.30003281785085 452.6608460901971, 159.04809707932475 475.264640072575 M160.9685525891786 475.848890833333 C143.65170833406196 476.409239893764, 129.17719567255384 475.88407361174734, 100.04788499119415 475.6120692250175 M158.13401879535414 474.3394988778906 C142.750128605501 475.8764636302444, 127.89199425414463 475.731121081479, 101.51246022447327 474.8963286960026 M99.02483027343146 476.4834632387577 C98.87158678221432 454.8065170502492, 100.98044295388434 435.80439296410276, 100.77653865690534 426.6079382465952 M101.46350811351365 474.61843774001045 C101.19354562891444 463.92293593193284, 100.49380393925153 453.14729575848503, 101.62123693950635 425.8984203998489" stroke="rgb(0, 0, 0)" stroke-width="1" fill="none"/></g><text x="35" y="455" fill="rgb(0, 0, 0)" text-anchor="begin" font-family="Consolas, Courier" font-size="20px">a</text><text x="130" y="455" fill="rgb(150, 100, 28)" text-anchor="middle" font-family="Consolas, Courier" font-size="20px">id31</text><g><path d="M102.95426786026746 501.8347875581674 C118.93355528369034 500.0134567783739, 141.60750834615087 498.96127648763525, 158.67024544688502 499.70341503595625 M100.79320033538673 500.4057223297045 C117.22028410469575 501.1975368919699, 131.06667112331886 500.4481739399409, 159.27484269911864 500.18214399739657 M158.2845680053984 499.7352577406073 C157.9557709247385 515.1850892704936, 159.4159634560956 525.9888258333239, 160.57458172720857 548.4721721238221 M158.3982063064768 499.1870157391561 C158.0549935840051 517.1232156834463, 158.84231617917462 535.0663560175373, 159.52554358504372 550.5112176301039 M158.73659854210078 551.6945638249448 C147.84466752020705 549.0195248048302, 135.33563752937562 548.723936892356, 100.94422662099969 548.7234441768102 M158.10817930700426 550.3079740024394 C143.43429923912976 549.3136843382396, 127.11118684913563 549.4155008882932, 100.31127516501707 549.9832334533945 M101.73578521631777 551.5101492350533 C99.43091920484486 539.0106729255402, 98.62920618579125 527.705362743734, 100.1279022375736 501.7870162110819 M100.65332554612935 550.1417039787926 C100.59119091429038 532.311426842112, 99.6381659227913 515.5046562781474, 101.35708616813315 499.0000555471127" stroke="rgb(0, 0, 0)" stroke-width="1" fill="none"/></g><text x="35" y="530" fill="rgb(0, 0, 0)" text-anchor="begin" font-family="Consolas, Courier" font-size="20px">b</text><text x="130" y="530" fill="rgb(150, 100, 28)" text-anchor="middle" font-family="Consolas, Courier" font-size="20px">id27</text><g><path d="M11.997366812779402 348.84794881819755 C43.04341074901945 352.3429016454742, 75.66741818523452 350.37543586001334, 115.5548469911011 351.69238899351035 M10.592032836908947 349.1995081307467 C48.935678027318126 350.51909204623564, 86.438197909863 351.40726723275924, 116.03953443405366 349.222352588037 M114.36776494950124 348.0841994541373 C116.23036861498636 365.0511783367216, 117.44895468371861 383.2609388074973, 114.09905591261433 398.6541699637787 M116.03533809375001 350.37703930814615 C116.25160826436243 365.67937844266805, 116.84502418696503 383.1674227260915, 115.20138726004569 399.18538179338555 M115.68923981793142 401.1145165438582 C91.22547603200852 401.2524323831438, 65.35426701013286 397.89771691166624, 10.695771243416676 400.9490099894016 M116.31637988166601 399.85474954471766 C76.58630077666282 400.88111669772434, 37.717864068272846 399.46105361810334, 9.862709613591825 399.6288235683137 M9.161106853829503 401.8153367856601 C10.956052617390085 385.35142111882726, 11.230744965441216 367.21460822527496, 11.778245628338535 351.5673433667442 M10.242105646539054 400.67114432377286 C10.24842130643969 386.33625770263586, 10.35076622618541 374.973204841201, 9.90356501385935 349.79464167243134" stroke="rgb(0, 0, 0)" stroke-width="1" fill="none"/></g><text x="63" y="380" fill="rgb(0, 0, 0)" text-anchor="middle" font-family="Consolas, Courier" font-size="20px">__main__</text><g><path d="M10.87261254853402 600.9199518859613 C94.05203591780946 597.5766819885667, 174.46940422957067 596.5077342411491, 292.36818813299516 600.1902468727076 M9.275080113292557 599.2499879022638 C81.60091096848303 602.30000931259, 153.65217933595204 602.3786569116927, 292.1916577799395 599.8421678107959 M293.0975091368199 600.4313353252636 C293.3466951018728 646.7098919195506, 289.6928733578764 688.9741583823931, 291.69282157549884 729.5365907098612 M291.50959940695475 599.4454019577411 C293.0919305036353 630.7750217961513, 293.74580185804297 661.2435529719955, 291.0984493312434 729.8794469728908 M290.7395643265127 729.4103622912447 C214.9415219199232 730.5419035912392, 140.67404461864177 730.1478270377982, 8.79765923537404 729.636014426754 M291.75944652372567 730.5869520433021 C215.6597378247114 730.4375529083503, 137.87812658146987 730.9272901084275, 9.718277540372284 729.9618755585715 M10.223436709410294 728.7095473010493 C12.354221630658412 699.589079256467, 9.34074683146235 672.6056217931012, 11.851556542887455 598.9662478856638 M9.379478898238188 729.1310328350124 C10.512183758632716 680.4887866228308, 9.850111907965399 629.6973094206869, 10.508785793349283 600.5008649025565" stroke="rgb(0, 0, 0)" stroke-width="1" fill="none"/></g><g><path d="M34.646265272043735 665.0299082248916 C53.524702270700104 662.5267227353787, 73.47102047071508 663.5372710296324, 93.458230740589 663.7322702198317 M34.05758020677799 664.0871311748763 C55.857120506693974 665.7677247773088, 77.67900317806448 664.7788866318967, 93.97793519965981 664.4576777754356 M94.54672531662317 664.4799117955205 C93.52715769432386 674.1477560531522, 93.87088670960127 687.4094320318911, 93.23936968662179 714.260311794123 M92.01584798472754 664.6401004613967 C92.71788031922023 678.5358134621821, 92.88055102478106 690.711970587194, 92.79039248099178 714.7968521210657 M93.89696669046461 713.5492214898089 C75.63215029838861 713.2723664657011, 56.57717561470069 715.4133368450294, 33.07700917250929 715.5521454940698 M93.62270554340674 715.8869935553088 C72.10449631288743 716.108976816299, 52.33676099266137 715.340448139604, 35.82251435053613 715.8752941038124 M33.85139028329075 716.0582518232706 C33.409155964248534 704.0933271853297, 33.472871448440785 690.9135969030697, 35.76394374316835 666.3118084834608 M35.71104851244979 715.9541624900156 C36.06183639952424 699.0011403221306, 34.71610808291218 680.4756460007153, 35.10024440552677 665.5230058106816" stroke="rgb(0, 0, 0)" stroke-width="1" fill="none"/></g><text x="64" y="695" fill="rgb(150, 100, 28)" text-anchor="middle" font-family="Consolas, Courier" font-size="20px">id19</text><g><path d="M92.24405564981923 663.3502530393171 C104.00097891090137 666.6874128066488, 119.12655474527355 663.8942687993439, 152.42862431239826 664.8512595143633 M93.93153632008428 665.3216746013485 C113.66104124847821 664.7391802133645, 135.55530432536608 664.8081305193388, 150.90886744945013 665.4392150708289 M149.45211162305006 663.4003447831582 C152.4325586653354 681.3664377009729, 151.36835981168346 699.459703454243, 151.78733910777376 714.9666471501049 M150.9252254193133 664.9408814837342 C150.1107909800006 685.0992293532718, 149.9724048355046 703.784787378949, 151.04956951686046 715.2118721324402 M152.4482178739097 715.8083709115089 C131.59045154098018 714.367617134154, 113.73331944621862 716.9569208990816, 92.84122612941036 715.5886779907922 M151.29506623804235 715.9598205533845 C131.2528677063507 715.1421577650237, 111.82189354114087 714.8445136837463, 93.26823402794315 714.817799506729 M92.44493130792881 716.8257789867298 C91.79857866717565 698.9544003891967, 93.64462353046098 679.8721422056238, 94.66657852790333 664.2170341456307 M92.74043754875757 715.6506477318633 C93.49748154431572 703.9179474937932, 93.04099797874078 693.2423710499555, 93.6582120421524 665.9468426818793" stroke="rgb(0, 0, 0)" stroke-width="1" fill="none"/></g><text x="122" y="695" fill="rgb(150, 100, 28)" text-anchor="middle" font-family="Consolas, Courier" font-size="20px">id43</text><g><path d="M149.82292843003123 665.4775019809247 C169.35336097479646 664.8851424506837, 186.70968220337232 663.0184154214253, 208.32877073872035 665.8779072379214 M150.30110722340115 664.7237022456378 C171.3468989401819 664.7135209056785, 192.1505863323937 664.377361816397, 209.12160636703018 664.4497684791309 M208.07343774918047 665.0186877561182 C207.83895479462552 681.8526541065394, 207.73829102404218 699.3358625352772, 209.70761844183946 716.5489138121942 M208.4212689573835 665.5557367839033 C208.92961857405115 678.2054103114972, 209.324834105634 692.9258244795597, 209.90177799185116 715.3407492959196 M209.91118021438095 713.1182706148064 C197.60639309792134 715.9641207086795, 184.19079224704709 713.4469468311604, 150.4404726869389 715.62529752285 M209.6514450272667 714.2791307558404 C192.9471819259556 715.7658346644198, 177.23884949582072 715.4683846790844, 151.49722176881525 715.9777709954411 M152.88592911331605 715.916286454275 C150.32221398848492 694.2064025185192, 149.6271067033333 674.315116123179, 150.13626264909703 664.7812242914238 M150.13634705970262 714.3470932307449 C150.313861699255 698.3938570240985, 151.7212578988065 682.7004029057416, 150.7676148609061 664.1858663413078" stroke="rgb(0, 0, 0)" stroke-width="1" fill="none"/></g><text x="180" y="695" fill="rgb(150, 100, 28)" text-anchor="middle" font-family="Consolas, Courier" font-size="20px">id28</text><g><path d="M209.4361385747114 663.4746115843817 C226.17529574406697 664.3730960386799, 244.4830938031029 663.9009511205722, 268.092178932272 666.3390584892587 M208.4663724132202 665.0721828218296 C225.41568691876228 666.533501813428, 243.56270068992131 665.495406972285, 267.05653867885735 665.0914643945821 M267.35765068507027 664.7218653081668 C269.3554804406071 679.5292218193716, 266.32024296058745 696.0196655805719, 268.23186213854734 714.4945722862005 M267.93089640312326 665.8591929763624 C268.0123878776892 684.3025761110571, 267.73889498615824 701.7772161996265, 267.22508963195935 715.9391644042705 M265.2809350590873 714.529326027519 C252.6003417304047 714.2765423608588, 238.22147895899658 714.015293228679, 210.99853857633747 714.8799971534121 M267.68170329212074 715.4684923487874 C251.6069610468875 715.2771692234389, 234.439969304112 714.1024601839571, 209.7487573544099 715.9068455977202 M207.43475292530513 714.6426760772788 C207.43260106756676 702.2697340206365, 209.32430087774995 688.5637913868098, 207.56617894789215 665.6654549995623 M208.61664418865624 715.2743163159724 C208.72941682459142 700.1464549571605, 209.93381074616786 686.2846060079714, 209.54839840194842 665.849247348132" stroke="rgb(0, 0, 0)" stroke-width="1" fill="none"/></g><text x="238" y="695" fill="rgb(150, 100, 28)" text-anchor="middle" font-family="Consolas, Courier" font-size="20px">id49</text><text x="40" y="630" fill="rgb(150, 100, 28)" text-anchor="middle" font-family="Consolas, Courier" font-size="20px">id82</text><text x="262" y="630" fill="rgb(27, 14, 139)" text-anchor="middle" font-family="Consolas, Courier" font-size="20px">list</text><g><path d="M10.594892280352141 600.7213489490789 C28.641173758971643 601.4562415319643, 43.735618321148706 600.4112730798013, 70.9191692845823 599.0631911355263 M9.821184422166862 600.1545816637837 C27.60835331131677 599.4584767396918, 45.3254020256563 600.6119113014972, 69.072813045246 599.9234098621496 M71.96384646752448 601.2710540118396 C68.51236816484452 611.984315711448, 68.23969967507173 623.0726701104217, 68.82384431858394 651.2338009625922 M70.51466759886401 599.1120917153459 C71.32081940995806 619.9563847636856, 69.59087608873637 637.7219058232666, 69.96065286821424 649.5467508967553 M71.47687079617307 651.7649670344115 C58.09694273258971 649.8653090122352, 45.24454073441346 650.0796905008178, 11.935321359898296 648.4162208899952 M69.72985372132365 649.8531306690929 C52.27042506147869 649.9451718661642, 33.54503815973978 650.6453416497012, 9.363034000266776 649.8228451404486 M11.144795321100784 649.4266889511291 C12.272560874645338 636.3998093970977, 10.295923751102265 623.9525428082851, 10.99667994877783 598.5215864391084 M10.751753959214044 649.5432299288592 C9.047113475041193 636.6075837630863, 9.55289132678102 621.5237518923462, 9.39393183344838 599.5233673607936" stroke="rgb(0, 0, 0)" stroke-width="1" fill="none"/></g><g><path d="M232.162013378542 600.7659329045781 C248.03671207838084 601.1163065627618, 263.01504884578867 598.8610715733239, 290.2902225289548 598.782259984552 M232.44206746226803 600.2835191200382 C250.08148237607455 599.1514501934823, 266.0219890040472 600.6465751659898, 292.0332556797682 600.3371310215747 M292.952793692751 599.946211300961 C292.58669740310125 610.6911888842113, 292.5239164936799 620.7670269042324, 292.2314038650874 651.0459482342047 M291.61168217635435 599.6684468250469 C291.4124387534404 619.0879861276461, 293.0506354617014 635.7055993325554, 291.7454783039094 649.0819950879979 M292.3149714884608 649.7475263743618 C269.25887104620955 650.7689702279949, 248.32486631468583 651.4871423968156, 232.57223755929624 648.94726717578 M291.65880833155563 649.4725435158855 C280.1940572577041 649.7871797026645, 267.0432715620481 648.9049627313987, 232.6084016795776 649.1133348593061 M232.00281892367605 651.1667329946971 C233.0386561619746 637.5719415585833, 233.66830238064614 624.9452952649136, 233.1976379266382 600.0733940862301 M232.5069130292343 650.5432034124357 C232.67796493389764 630.3790105023185, 232.74818096057948 610.6489551714656, 232.77661586774298 599.429424715404" stroke="rgb(0, 0, 0)" stroke-width="1" fill="none"/></g><g><path d="M350.04402291018886 10.285830326667156 C447.7983959736442 10.422751500396764, 543.2807385073514 12.817520365208974, 631.3996483842794 10.129997053919453 M349.42388194357096 10.329144172027181 C460.76437359559145 9.307197944964223, 570.5572755760777 9.185860017774107, 631.9172081833212 10.364627525715342 M633.1173849609788 11.239397850632237 C632.8559383150996 57.44288832229349, 632.33253349224 106.98326975209294, 631.5535315337575 158.73659871124076 M632.454873208767 10.071518843913278 C632.202160518907 62.59185615868244, 633.2731499709855 114.27188932247697, 632.7543880195568 159.69997391044416 M631.6798169512966 161.019988993645 C568.0281537784283 163.29809814808553, 504.48323646042587 162.660199488894, 351.08341978208387 161.20274255591778 M632.3814785521911 160.24817122968346 C521.8032778972402 160.05927697775314, 413.1336054501174 160.8985360410723, 350.03442630733554 159.91442848139727 M351.66319931329616 158.32496686187105 C350.458242291764 119.46159185269433, 349.90824271936117 76.0063147184128, 349.6762940574013 10.956888947522657 M349.609209846021 160.95825853342964 C351.50621718256485 121.32378330605758, 351.5355657144043 80.9816838035643, 349.2409405456821 9.43436004436281" stroke="rgb(0, 0, 0)" stroke-width="1" fill="none"/></g><g><path d="M375.6680114370588 96.83768718501993 C398.8395803138075 94.33788785443457, 419.2696814691771 94.39475228515252, 431.1627858776836 94.063507310556 M375.48497891990496 94.8230503223312 C388.16383485333887 93.92369866088366, 403.4295132840789 95.90058611947175, 432.06338390960127 94.51649372793825 M432.2596783195332 93.00481654675932 C433.2378773667734 112.85547696937948, 435.1197337635718 131.01616310204827, 432.3358688441156 146.94016078709842 M433.3152370665758 94.77637390166633 C433.715699256166 111.090931716524, 432.6776775445254 125.83884045976875, 433.2203550082516 144.74234386088833 M432.22797477868914 144.17920504273818 C414.3129032737975 145.37174344804376, 392.8118001207379 143.01746505541826, 376.56413646433003 146.51538041927384 M432.58927464823444 145.4053862732126 C421.2501252054571 144.89779789871446, 408.45155199868145 145.99699468974526, 374.1326517042877 144.22300048194307 M376.5477838910425 143.50024392049275 C376.37274593568986 127.02347003533961, 373.8998500329106 112.20084741771548, 375.79392645759674 94.73867956323936 M375.6707159878994 145.4297894054034 C374.78990611547033 127.9119916978347, 376.0439276018678 112.07989205389848, 375.03858661006944 95.70002745440696" stroke="rgb(0, 0, 0)" stroke-width="1" fill="none"/></g><text x="404" y="125" fill="rgb(150, 100, 28)" text-anchor="middle" font-family="Consolas, Courier" font-size="20px">id32</text><text x="404" y="82.5" fill="rgb(0, 0, 0)" text-anchor="middle" font-family="Consolas, Courier" font-size="20px">0</text><g><path d="M431.07493965570086 95.96527053231615 C451.24979671137703 92.91697120326482, 467.5843880495486 94.41262293900098, 492.00034024076183 96.37063335600025 M433.9315853371453 94.84481566282068 C445.79463649369416 96.04105828269965, 459.0719545267548 94.47783950465742, 491.80704528627626 94.7495714927779 M489.12427752629856 95.79955942879496 C492.03821494236934 109.05907472153643, 493.2705950543477 125.49861411840757, 492.4267437393339 145.27216151887728 M490.24306379671555 94.85467805749812 C491.3336662968565 105.99807628781511, 491.833154011109 116.67203190937825, 490.0205666675724 144.86149915731522 M490.55423132632524 145.52134772792664 C477.16057792692635 143.2815419369704, 465.0380992961114 144.91718339480968, 434.1782602027993 145.51421834235376 M490.4486020314429 144.08977574968043 C472.749856259059 145.86248761351794, 454.6019559130112 145.65466713129462, 433.8952702354678 145.791533138292 M433.7849435345583 146.45451167849185 C431.64784200425584 128.95121594803499, 434.0883993431755 112.01793317949986, 432.61351664447255 93.63045033767436 M433.2053609890207 144.9555955097169 C432.450770501761 125.24682722889109, 434.12495228344267 106.01916952068102, 433.507912620282 94.72512302974542" stroke="rgb(0, 0, 0)" stroke-width="1" fill="none"/></g><text x="462" y="125" fill="rgb(150, 100, 28)" text-anchor="middle" font-family="Consolas, Courier" font-size="20px">id10</text><text x="462" y="82.5" fill="rgb(0, 0, 0)" text-anchor="middle" font-family="Consolas, Courier" font-size="20px">1</text><g><path d="M492.45800503026663 96.23461416543381 C510.7786551944447 96.18314389149346, 531.0066513521801 95.25908539543583, 550.1971075592735 95.82237716277504 M491.94037589398323 94.66235267265174 C502.8325607323255 95.19902383545727, 514.5286868590453 94.52495079084615, 548.5220609565235 94.57238518829983 M550.3689782517074 96.41028154415493 C547.6692187343742 108.90092208817379, 549.3237775421223 125.54446523161496, 548.7667477693543 146.08182133591635 M549.5132270208155 94.47503241344263 C548.1649429342928 109.46400668637116, 548.9873804392032 124.60256947703749, 549.6977329862434 144.79057996807353 M549.5678292385485 145.3305039669368 C538.4903315046696 146.4847755335644, 525.2989922485452 144.7715760343831, 491.46027353719234 143.4088172977692 M549.9304416244406 144.53075232488777 C531.089877332637 143.9545633723632, 511.79920698383575 143.94557739653345, 491.0036966037881 145.71466528235132 M490.33269501829216 143.50692048645215 C491.35809947152325 129.06075207770874, 492.405826028875 107.75793520498819, 491.871079669061 94.19303602082468 M490.2871274283219 144.85580300565718 C490.99469803878674 132.3060929792497, 491.7513486773794 122.41646691998645, 491.8271626560056 94.2749250446433" stroke="rgb(0, 0, 0)" stroke-width="1" fill="none"/></g><text x="520" y="125" fill="rgb(150, 100, 28)" text-anchor="middle" font-family="Consolas, Courier" font-size="20px">id90</text><text x="520" y="82.5" fill="rgb(0, 0, 0)" text-anchor="middle" font-family="Consolas, Courier" font-size="20px">2</text><g><path d="M550.4815678151199 96.92155569779844 C566.9934915259081 94.43820976301814, 582.7409094330992 94.87781035025714, 606.3599446535363 96.0808248013632 M548.1975712225491 95.85567990669657 C571.9677309248056 94.74064835033684, 594.2272025141858 95.62848184441462, 606.443502126205 95.60492879520793 M607.3980688301904 96.44162565156475 C604.9429662909828 111.72080992362409, 605.1861328707447 125.08715712253107, 608.7737783617987 146.78791701734636 M607.7272861449037 94.92073548398622 C606.560697902397 107.55438456726662, 607.4001094521572 121.0687818375041, 607.1323458729009 145.8595582840044 M607.4014789535764 143.21118290790815 C594.0025557468978 144.36998106510018, 578.2004664959337 145.45984804188674, 547.505015399964 146.17567794475633 M607.8092783378905 144.96904743349745 C590.2220328908471 144.27154634624648, 571.8894007578494 144.21274191946495, 549.7050141859336 144.0482748825018 M549.7842773945292 145.53810936102627 C549.3108952081824 134.31308067409051, 547.2699484213225 124.12845650029288, 548.3202685125793 95.47227256160072 M549.8280443813384 144.06560865008632 C549.9558294050714 135.5470979613828, 549.5767041857529 124.24727682409527, 549.6516750359607 94.87855146274394" stroke="rgb(0, 0, 0)" stroke-width="1" fill="none"/></g><text x="578" y="125" fill="rgb(150, 100, 28)" text-anchor="middle" font-family="Consolas, Courier" font-size="20px">id57</text><text x="578" y="82.5" fill="rgb(0, 0, 0)" text-anchor="middle" font-family="Consolas, Courier" font-size="20px">3</text><text x="380" y="40" fill="rgb(150, 100, 28)" text-anchor="middle" font-family="Consolas, Courier" font-size="20px">id82</text><text x="602" y="40" fill="rgb(27, 14, 139)" text-anchor="middle" font-family="Consolas, Courier" font-size="20px">list</text><g><path d="M351.81721166532526 8.893029693015212 C366.311717114402 11.295154121034944, 386.0278613002399 11.076135649202453, 410.6519563632754 11.85175395908523 M350.3196874680713 9.366819461398126 C368.8926462227683 8.959561638783468, 388.578620989065 10.023157353096835, 409.3706818072279 9.865767468457772 M410.32068632666017 9.574650604125726 C411.5534815828855 28.431114039243226, 410.735209876208 44.79712511511066, 408.75056093076665 60.81405076172163 M410.20226749576966 9.866786281631356 C410.312008744313 22.054092019589604, 408.9959019104529 32.97016051771367, 410.398287361888 59.47280318433034 M410.0819018282836 58.96407119898737 C389.6830827216144 61.189315614389706, 368.32648123787845 60.32506950942438, 348.5750800573711 61.7618600386196 M410.9271049820773 59.506656584368415 C396.3035209414657 58.76801047327568, 382.81366913232665 58.77796288459266, 349.07054623192 59.424212476436715 M351.61532738849263 58.405769374934366 C349.78629800756283 41.17116358238472, 351.98501355772686 23.733903243235428, 351.15539861507267 8.281710369095265 M349.37259702449774 59.56772160121623 C350.9079281558584 46.95568310785812, 350.69032687397106 34.14987884052065, 349.8505690150847 10.288654442280759" stroke="rgb(0, 0, 0)" stroke-width="1" fill="none"/></g><g><path d="M570.6948897392243 10.415013296384263 C590.7822112366445 10.086646491808985, 610.4758266481854 8.347291982002453, 632.7154760623489 8.114739257051031 M571.1716030323652 9.94427298463828 C593.4214535425612 10.426274183120398, 615.1334807013042 10.468870015689298, 631.4267849944016 9.015439983600757 M633.3477819311624 8.22185496550528 C629.6482007897674 26.781231550426973, 633.2172039258705 46.416004356610465, 630.7386875029404 61.61370656923096 M631.0011089332531 9.838571468620028 C632.1036289973687 24.37088985518522, 631.7687646722142 40.026098537476486, 632.3052906290475 59.85360860684803 M633.5785347852147 58.4645738100082 C611.2190183280112 58.95536794235419, 589.4763964903027 59.371562785871255, 572.1399307758967 61.02125427485554 M631.0572263502064 60.33788754116891 C614.3559662448731 60.847568051084636, 597.3527074368487 59.89453120924537, 572.0436102645651 59.56281268925549 M570.8053007557148 59.06436851094692 C571.9012700611686 40.465225675308936, 571.0627419129409 25.540866663090455, 570.4794896295413 11.9183254315877 M572.3339490849328 59.98791654847918 C572.2098217876759 46.49953758061743, 572.2006644944611 32.63728582308551, 572.2459516052955 9.343586002417167" stroke="rgb(0, 0, 0)" stroke-width="1" fill="none"/></g></svg>