<svg width="1300" height="1100" xmlns="http://www.w3.org/2000/svg"><g><path d="M10.843458422837438 8.526425167886892 C76.9815717845508 10.481356673211476, 147.8002166511512 10.291891014575452, 208.31120745980402 10.005250461633336 M10.33297584236 10.757931247705468 C55.954410871048516 10.534828839376996, 101.75859014755629 10.335451849383947, 207.613432008688 9.279378666434539 M207.79038978013048 11.151256859470852 C205.57620753341598 64.31773943808481, 206.84233508907937 117.01096282877934, 206.9150344051831 234.71365034778745 M207.82566678454995 9.818919581978562 C208.58040066112326 60.980680550762166, 209.19949007876798 112.0755389473068, 208.05394357019696 235.64689673923823 M206.52041496639757 235.9811794279917 C164.52762393473455 235.13196527004698, 121.93889417397014 238.64696686521768, 11.107888828945942 235.81531024355627 M207.32402875136071 234.82809976358536 C147.00926882413316 234.51420187568317, 85.21677202150764 234.262631912871, 10.576593720162082 235.72720462085638 M10.44975268051812 236.31018574736558 C7.064785719883368 147.24270203200535, 6.482600224814133 62.40094339748838, 9.69633040718198 11.34376168519665 M9.354112811520691 234.64589058032027 C7.875112595311706 181.41493599654038, 7.583531022231789 128.5397256329035, 9.4933316976594 10.493485044304268" stroke="rgb(0, 0, 0)" stroke-width="1" fill="none"/></g><g><path d="M131.74544926790318 83.58603669116476 C144.586608953414 83.71330229273514, 159.74747196000058 85.29673121739071, 191.4487066281436 84.88180570103144 M132.4191378188736 85.02363504184747 C144.63699867408408 85.44134546416362, 156.97776259675743 85.51977831252044, 191.15479696056573 85.29820768525718 M192.10198522097488 84.96277833728738 C192.4577280987464 102.42591759584761, 189.27838847633257 120.0051211436988, 192.86366409523734 133.11081646380018 M190.01737815075091 84.67729397643058 C192.07490637594736 94.16949021110516, 192.05207166327327 105.14547278459224, 190.61278172093907 135.3383115697141 M189.86831958516314 133.85323747463715 C170.6070357322453 135.5789489220107, 146.71218225187468 134.96144531014536, 132.42080958944203 134.04176636225384 M191.86618859520698 135.63589845037183 C172.44829878689313 134.28226143574042, 152.71285230801297 135.01542200970894, 132.70320830230787 134.32480580155624 M133.0459695611231 133.61494077481404 C134.463828095291 120.07735997896468, 132.1102322402898 103.94103907424083, 132.6167896701322 86.99617121925704 M133.5435442621107 135.98473857071744 C131.83078411189217 123.83203448938555, 133.57112987219384 112.90791540430232, 133.4069623217008 85.84157388419175" stroke="rgb(0, 0, 0)" stroke-width="1" fill="none"/></g><text x="35" y="115" fill="rgb(0, 0, 0)" text-anchor="begin" font-family="Consolas, Courier" font-size="20px">age</text><text x="162" y="115" fill="rgb(150, 100, 28)" text-anchor="middle" font-family="Consolas, Courier" font-size="20px">id12</text><g><path d="M134.21543785072714 158.9507897414401 C145.72296668040397 158.46034122236975, 158.10622309833408 161.0509165399902, 190.82757220488955 161.60079249655786 M133.01142623137184 160.91856105333602 C151.67601777165055 160.885759049062, 168.63691669037212 160.89990764157739, 191.04321388763213 159.01162440840156 M190.177140420684 159.38608103355477 C193.12969308233534 171.08942542485474, 191.30148988357388 180.86925040717276, 192.58910760936237 210.63575748113146 M190.3241041315943 159.5033459521156 C191.72695688166158 178.4526305563287, 192.1575492165826 198.55524767228331, 191.82154434446275 209.96311214089584 M191.78532211616215 210.90810577189816 C170.60556801868486 211.23059130274657, 149.93688046435105 208.675671457021, 134.33412650474722 211.71932085505665 M191.96552717441335 209.39355071159983 C171.65833994229706 210.64682097286558, 152.9781390222947 210.348108085709, 133.98949864794497 209.65729384714942 M134.32400610957527 209.17432762479453 C132.5784412127023 195.9592552246616, 134.00533707448685 179.76589520331962, 131.1667844429399 159.05487001051273 M133.3055167325464 210.7338695922969 C131.84057863831308 196.80928384418448, 133.45910638852953 184.1001099966899, 132.45593985789094 159.9398429085014" stroke="rgb(0, 0, 0)" stroke-width="1" fill="none"/></g><text x="35" y="190" fill="rgb(0, 0, 0)" text-anchor="begin" font-family="Consolas, Courier" font-size="20px">name</text><text x="162" y="190" fill="rgb(150, 100, 28)" text-anchor="middle" font-family="Consolas, Courier" font-size="20px">id17</text><text x="40" y="40" fill="rgb(150, 100, 28)" text-anchor="middle" font-family="Consolas, Courier" font-size="20px">id99</text><text x="167" y="40" fill="rgb(27, 14, 139)" text-anchor="middle" font-family="Consolas, Courier" font-size="20px">Person</text><g><path d="M11.839907891979387 11.597505030380898 C25.26691157493847 10.755325075904363, 38.537771311629335 8.27398108100447, 71.27942107496155 9.86308458095799 M9.073733123287639 9.424765991861731 C26.405532659053375 10.788946663225445, 43.9047294222691 10.44142501584054, 70.46668154657074 10.180995445963289 M71.37198239919931 9.714708081870008 C71.5223450178296 28.385530784965255, 71.58284473075743 47.05251343234755, 71.23288465629935 61.30381799109418 M69.09142418424872 10.37742950650648 C70.29867236357134 28.13903570008186, 69.11991150952132 48.33860195295913, 69.74612329361172 60.14464388574669 M71.0201973783168 58.967492772229164 C55.93264218858072 59.243497341108466, 41.80081391471604 60.06817988559954, 10.675204990071101 58.7565969958528 M70.96144133758578 59.72235968428863 C45.95242073462991 59.82093099295092, 24.08481472492167 60.232289245336275, 9.724563794021543 59.66779695473449 M9.712997983241966 60.6892216868492 C8.893422042081433 49.06406674259152, 11.894063041067295 36.67247273475248, 8.509367080951252 10.970124924336293 M9.29035142836094 60.5978037932347 C10.222550362791143 40.85279145790457, 10.206767040038601 22.813079638889114, 10.392320871083164 9.824145815123671" stroke="rgb(0, 0, 0)" stroke-width="1" fill="none"/></g><g><path d="M125.35773645245801 10.137257897737113 C146.22390850890974 10.207983951884145, 168.36445737410247 11.539131311515938, 209.8984031954808 10.192385989826088 M125.13404162381325 10.79112828903724 C151.45992095892663 10.933806324090277, 178.79610754993175 9.3883214100217, 208.32503274738374 9.134813445938374 M208.52832779514594 8.39564440051225 C206.38640404566326 29.756550959949358, 208.95794559060388 50.18300033995683, 208.8162846355723 59.753305499061156 M207.6592159510744 10.468227783941563 C206.59078893337474 25.660063173579175, 207.708127376396 40.07979891362435, 207.47745648312392 59.014498998057995 M208.01813748636138 58.38059110344014 C187.9744377987596 61.57716869806159, 165.36592967317654 59.561326258294976, 127.90251594581707 61.677701537989606 M208.19356303243424 59.59504726056243 C184.21799431877017 60.48671584846777, 161.13619979657122 60.670607702327914, 126.84578075821369 59.25417193133969 M124.45323611740386 59.58955833372379 C125.5246526428 44.49086236758829, 126.53131874468252 27.58643041816722, 124.74055690031979 8.840331467128298 M126.28184240762775 59.971244177893425 C125.90858651827777 47.18040894015622, 125.50919521078268 35.92667437313614, 126.77575659408777 9.137964637023556" stroke="rgb(0, 0, 0)" stroke-width="1" fill="none"/></g><g><path d="M10.332983533771799 350.1897976825367 C56.87156794256341 349.5828826898013, 102.70227556641592 348.44520374718184, 174.62085763355446 350.1719739546635 M10.33340562681667 350.2283508696129 C59.40773415183926 348.1744698389904, 107.09525478215117 348.3216117891945, 175.92340499507938 349.2176066573207 M177.4216403964265 350.26951408306917 C176.4747895196822 412.79124003865434, 178.0422733028874 475.27903222259806, 175.12794073570203 573.933437791517 M175.6489432051688 349.3761425889147 C178.18824488325185 404.5681108692059, 178.05025714569433 461.16788269205784, 175.73091244070946 575.6996117991275 M174.93083709767066 576.7971997395703 C139.48230021391237 575.6482854195565, 107.95485570687696 574.0750713899702, 10.426043697534435 573.3070047093626 M176.658072316881 574.6591513654568 C125.12285251331876 575.0098124851442, 74.10747347527236 575.3036960374372, 9.487474122511959 574.5698009061484 M11.108313165200961 575.2687079409094 C9.38984852046185 497.44894488555684, 9.417909852062216 420.90532927112736, 10.181268492271988 350.97636080415435 M9.75076965357253 574.7321921509222 C11.147312318762678 514.3451647107075, 10.699361767782696 452.51104062051996, 9.944363526180156 350.4258327814454" stroke="rgb(0, 0, 0)" stroke-width="1" fill="none"/></g><g><path d="M101.46358861793948 426.0813229717826 C123.3124981748754 422.7828940896335, 143.69493222383005 423.36296618588744, 159.2996324566912 425.4437447591002 M100.3842976748353 425.37983304372517 C120.25317959182465 424.47069675835456, 137.24022132917204 424.061781204444, 158.39023836116473 425.79782366263026 M159.35799468620607 424.7501259549278 C158.72456798515827 442.36146451793917, 157.83658534498028 464.7323969272898, 157.4229872378238 476.1426468203078 M159.31052691998298 425.38792882746606 C159.29635605022685 445.49254483976574, 158.62485812757598 465.5653484043913, 158.11091127535204 474.1769930825744 M160.18396488895775 475.4504554737677 C145.221479817752 475.8654657014474, 130.97802680774114 473.494050299043, 100.395869658008 473.4985677269589 M158.49606234787586 474.4117142848936 C141.48348149846183 476.1873544602166, 122.50830452875026 475.90948080185, 100.41243259416183 475.7807018943325 M102.25706279142067 474.0917082660158 C102.06923406798967 455.2843899863263, 102.28571073838292 437.0993608171104, 101.4197871717862 425.2538823969189 M100.44755436361885 474.9639138965518 C100.28996343575662 461.39648001663454, 101.35944339265737 448.69377532772296, 100.73580215670077 425.18260592857183" stroke="rgb(0, 0, 0)" stroke-width="1" fill="none"/></g><text x="35" y="455" fill="rgb(0, 0, 0)" text-anchor="begin" font-family="Consolas, Courier" font-size="20px">a</text><text x="130" y="455" fill="rgb(150, 100, 28)" text-anchor="middle" font-family="Consolas, Courier" font-size="20px">id31</text><g><path d="M99.004519555742 500.9557699356634 C115.10068360985625 498.75835979360534, 124.91169863999522 501.6232686017086, 158.65727561451575 499.44105045335556 M101.05508560124466 499.2844034853735 C118.52073068094695 499.7075140084875, 136.15454113932142 500.706132728759, 159.68263990627668 499.9721982958667 M158.15365942735474 501.05000721476216 C157.74633248840678 518.4587785551471, 160.7350952292525 534.8169876228587, 159.99552827430446 549.3104184690233 M158.4364716677393 499.04625307056637 C158.97520706529033 518.5581039301743, 158.4426543471922 539.0353977029406, 158.83631608843388 549.4303512510064 M158.61991167407157 549.9376569437865 C147.09693123991713 551.2485720876806, 130.11357362606293 551.0514036086764, 102.55860242735015 551.4907483601082 M159.60070627362776 550.6362561532645 C137.8437510240528 550.0055429278699, 116.24338114544628 549.626383647523, 100.91223593691112 550.510499131761 M99.97079151544851 551.9283726500785 C99.9668933267755 536.6172810750217, 101.47719849044792 522.4251031325012, 100.80444246140459 500.08425048304474 M101.89648708404899 549.1713175578403 C101.60994371478158 533.8546153355501, 101.09140280444024 519.0068722777895, 100.702910521213 500.802777785033" stroke="rgb(0, 0, 0)" stroke-width="1" fill="none"/></g><text x="35" y="530" fill="rgb(0, 0, 0)" text-anchor="begin" font-family="Consolas, Courier" font-size="20px">b</text><text x="130" y="530" fill="rgb(150, 100, 28)" text-anchor="middle" font-family="Consolas, Courier" font-size="20px">id27</text><g><path d="M10.927963738733148 349.451745050655 C48.45898407567838 348.0642377691779, 85.03205669925967 349.3050557854749, 115.08344651552918 348.322857319793 M10.10951445769191 350.6377140367846 C31.07939472014341 348.93408937103965, 53.775866694934656 348.3954513933705, 115.95393610297519 349.76073290895204 M114.8029846795594 351.59031496288617 C117.67354243417923 363.08195076541324, 115.52531215955923 376.6809831447407, 117.18363763048893 401.9096077291531 M115.88976777324794 349.56818052926775 C116.27249114276597 365.3501097371192, 115.34829835773532 379.6601280819512, 115.64681997621392 399.2798163570636 M115.59231148159225 401.19523377156355 C85.88645284690419 400.5386048167519, 55.31740269966737 401.27147076194683, 11.732375828973396 399.26880232201677 M115.20090207931605 400.4263135169105 C87.7807650030351 401.63106759960795, 58.223713265739725 400.6794198011996, 10.953903624639848 400.5867284079501 M11.11152714809899 398.0378247780582 C9.584928919132489 390.3580908479801, 9.57925364999474 378.61288622472, 9.857472157459428 350.93259553770014 M9.262313537480566 400.59450496690175 C9.415210963224053 384.26189284410543, 9.684632859415574 370.63066441193513, 9.445426730758815 349.80898306952827" stroke="rgb(0, 0, 0)" stroke-width="1" fill="none"/></g><text x="63" y="380" fill="rgb(0, 0, 0)" text-anchor="middle" font-family="Consolas, Courier" font-size="20px">__main__</text><g><path d="M9.415042772020785 598.8122074237581 C82.46235617129145 600.1412258080359, 155.7341603602631 601.1152663597205, 291.59815929874964 600.7257503673561 M10.540224438697708 599.292555175019 C72.95533451460368 600.703429310908, 134.91024671362132 599.7997026600386, 292.238620933465 600.0969156380922 M293.83304112153604 601.1465769142472 C292.228765527815 638.7999209737164, 291.0289485947675 680.0598411735266, 292.52999851240537 729.158057529177 M291.4755981695656 600.0363369106475 C292.12104181700687 626.4702665865514, 291.98735958155703 653.3489320232308, 292.7433748695365 730.7414648066293 M291.65578541808 730.9317569427765 C196.41076543638746 731.6297394772968, 101.20776285977115 732.2252551372495, 9.409314553329603 730.6191848182069 M291.24812211255767 730.6519668540501 C207.77178158324105 729.0492025294208, 123.52242535566855 729.1144686616435, 10.757664219773318 730.0407833895403 M11.085228995831192 728.3991732660489 C9.64276596733064 679.9521381890328, 10.366517712251742 631.7416434747628, 8.55331910029424 600.2780817583422 M9.403345371254638 730.8722196116787 C10.275631566953415 701.2521109622078, 9.713950501486174 673.5426623181058, 9.5499621347879 600.1307917254815" stroke="rgb(0, 0, 0)" stroke-width="1" fill="none"/></g><g><path d="M33.523202852012986 666.2677847294862 C49.651054144195925 663.489806484405, 61.805215314238794 664.1498702575365, 92.16916804917663 666.3693584293195 M35.48884143928174 665.2094083915745 C53.93862782538455 666.0990840180049, 70.8597692585134 664.5404440223645, 93.54986872396348 665.2299009434139 M94.40733002311258 663.4013060294071 C93.90088476878984 684.9972096636366, 92.01516318425071 702.7822448157503, 94.79550306162214 714.6580800821548 M93.77315508362257 665.1480698512894 C92.340891729279 682.094225041788, 92.10262269416475 701.4402713498297, 92.78410067535583 715.3576128575787 M93.66862629490724 716.4046754895162 C72.24465466828815 716.7690615081416, 52.17028229617963 713.1579954449385, 36.01188137846095 716.0632691578907 M92.03397722344361 714.6550029480208 C71.08753939235143 715.0218959453933, 50.86534072725322 715.5938704932896, 35.13183423068779 715.9443301157323 M33.857113100367776 716.8908482657978 C35.0117343812543 700.3890932363527, 35.26879954057068 681.0770294234084, 33.713290972367695 665.2503998790279 M35.94061340311941 714.4766649641516 C34.28927556859692 699.3160981383729, 34.07232415904811 682.6981785828107, 34.56553817794167 665.8316914779911" stroke="rgb(0, 0, 0)" stroke-width="1" fill="none"/></g><text x="64" y="695" fill="rgb(150, 100, 28)" text-anchor="middle" font-family="Consolas, Courier" font-size="20px">id19</text><g><path d="M94.08472758816818 665.9508820611148 C115.43208424686823 663.7787932706838, 138.55537970191526 664.645560185394, 150.05198227698568 665.4404919230686 M93.12353995939235 664.6022843197263 C105.7527310907784 665.7729362347399, 118.03689676971644 665.7794382275941, 151.37289404219973 665.8750888363955 M149.81094622355621 664.5636653948018 C152.31450690521308 684.5104749896099, 152.51602263852072 700.5604323261804, 152.4399905715229 713.5787800635604 M151.23723337434413 664.0275961445831 C151.35033788295837 680.8855732273756, 150.7363614479331 697.3752456164341, 151.22237851235315 715.4426335808217 M149.40087241510713 715.0766225289206 C138.12818914339402 714.203378902212, 122.48615980719264 716.0247045057068, 93.01352321873233 715.4284508928806 M151.70186379859507 715.7649224485597 C133.60117786790772 715.307400999986, 114.57487695634867 715.4591037947728, 93.26021508131213 715.8580962568452 M91.05130602434215 713.6356936053724 C93.37649032127368 704.2386315896982, 94.50748911974304 693.4586489911522, 91.31471969519187 664.4639686267412 M93.28893364246618 714.1907182118669 C93.71163277846725 699.5425181107762, 94.45704371049088 685.5764101955067, 93.86539406423576 664.5333140956499" stroke="rgb(0, 0, 0)" stroke-width="1" fill="none"/></g><text x="122" y="695" fill="rgb(150, 100, 28)" text-anchor="middle" font-family="Consolas, Courier" font-size="20px">id43</text><g><path d="M151.5751475712302 665.9335282762727 C163.98816712768695 663.5754166126893, 176.63403918819895 666.4068015286098, 207.17432915657943 664.045556393037 M150.99942109879456 664.0924507801382 C168.58990569774807 663.8702189568396, 186.9711887700576 664.0349876537365, 209.2752417853842 664.2156258830756 M209.5585807865118 664.2030882749657 C208.97389760494846 685.5335814637234, 206.95485173872436 705.153335515813, 209.0106236429582 716.1115692274572 M208.17412655191032 664.1542033701671 C208.94072689234463 681.7676915467441, 209.0332588057396 699.2930094942353, 208.83904007302866 714.0953029729238 M208.460640060578 716.8993838502445 C196.72068841856554 713.3711044431786, 184.9694964874852 715.7294707225403, 149.5700260801909 715.589060933252 M209.23397562145215 714.056623310905 C193.2181261994764 715.2975475589486, 176.64529799149514 715.773719560436, 150.83754891168823 715.1627274498242 M149.6273418056763 714.194826430675 C150.1859018927002 699.268823481251, 150.80316701965657 684.2724136991459, 150.4605020829285 663.09632221708 M150.85100330676437 715.2990191863629 C151.23706010836088 705.4164526721885, 150.14593702112248 693.782537028079, 150.64420586704486 664.1697965084005" stroke="rgb(0, 0, 0)" stroke-width="1" fill="none"/></g><text x="180" y="695" fill="rgb(150, 100, 28)" text-anchor="middle" font-family="Consolas, Courier" font-size="20px">id28</text><g><path d="M207.89358950074478 664.9355252426818 C223.1577005748385 664.2588199128764, 233.65476783538233 662.7293671878396, 265.39914102394846 666.3413804891821 M209.97238772627654 665.8604340408097 C221.29305234348038 664.295558032783, 232.8289234667012 665.4430700029229, 266.03173857148533 665.8935127332737 M265.54345365717006 664.13957844849 C266.82719907050176 683.8801150522543, 268.6834320886683 704.88018423209, 267.316206351207 714.6406610469604 M267.9587378750955 664.1432642075426 C267.62333393596435 682.1543989910346, 266.51553129291796 698.9428798438413, 266.689006448988 714.380522398024 M267.4615392296428 715.1284230357794 C251.65119871708467 715.1513747623536, 238.40024521293657 713.350030072483, 207.71746844664574 714.0299446187327 M266.0396608113039 715.6444098751938 C245.8448112616322 713.8073727148025, 226.161497799775 715.3753028067116, 209.88859056474686 715.5321488111741 M209.76665316264237 714.2158210243527 C207.8669984312686 699.7810837786114, 208.59791704823655 687.5117417194589, 210.99697586179187 664.5753130007403 M208.48384265732767 714.193543190952 C208.8347316771151 703.0459806637077, 208.40512610619652 690.6351766306249, 208.6306048746247 664.9999238682876" stroke="rgb(0, 0, 0)" stroke-width="1" fill="none"/></g><text x="238" y="695" fill="rgb(150, 100, 28)" text-anchor="middle" font-family="Consolas, Courier" font-size="20px">id49</text><text x="40" y="630" fill="rgb(150, 100, 28)" text-anchor="middle" font-family="Consolas, Courier" font-size="20px">id82</text><text x="262" y="630" fill="rgb(27, 14, 139)" text-anchor="middle" font-family="Consolas, Courier" font-size="20px">list</text><g><path d="M8.92439016466814 598.8163022543454 C29.993916032035166 601.0959759776197, 50.393506600449996 598.662998005138, 71.37414325641713 601.693401072994 M10.54393542236832 600.5769934189718 C23.67422227182502 599.6022035443885, 38.388514377335675 599.3311268784771, 70.79242974777914 599.3309959443361 M69.43726067510745 600.711163169753 C70.58378298638567 609.6822708969971, 68.5169430284866 620.9551151962991, 71.82861724605823 650.8430518626162 M70.18407377145152 599.354896936502 C70.46135537597897 614.9276107401274, 70.77302442723256 628.5983126115375, 69.43591044486223 650.965142175114 M69.08503308036758 649.4630775950072 C53.01608908936076 651.0170591468407, 37.76890231200956 648.9219689408644, 9.505935372615117 648.0401873630046 M69.04297210594383 650.9593830685747 C51.607941403484055 650.8789517669287, 34.63163944725073 650.5503011599394, 9.098198933092693 650.244740975689 M11.908854403461305 651.9660363825777 C8.660019656396155 634.2227486129859, 8.818337920816264 618.6944703445283, 8.39799290626274 601.4762093249155 M10.517206477569282 649.0086714547624 C9.95758119344356 635.4939437089456, 10.608211715272752 622.4846849388481, 9.543687649866222 599.5036575265709" stroke="rgb(0, 0, 0)" stroke-width="1" fill="none"/></g><g><path d="M231.66397314942225 600.9559545302996 C247.26013429666077 598.6110047982738, 260.43154685348935 600.2082348388586, 291.54792658925743 599.3808123076075 M232.9774130218326 599.2335048272276 C243.6668611369097 600.5206526480301, 257.029410844124 599.5765333946073, 292.78215329213054 600.4488913691764 M292.7388598762079 599.5331014819005 C290.65176497266754 619.8278921127904, 292.367955813713 638.0893426274115, 290.02359655622587 649.256807935421 M291.30994228183715 600.2142843115864 C291.29229028565857 619.1709253166828, 290.9038586620765 637.4117003034872, 291.85516942024174 649.6037041842312 M293.39615574201684 649.3257402483175 C273.16065180288206 651.7285894269305, 251.81439690008915 648.8080434808489, 230.5179011256274 649.129622152027 M291.7906614568873 650.1546915051356 C276.6037344663319 649.6174101024161, 259.6928679623217 649.4594654154195, 231.08459810705372 650.9943294267924 M230.27218319432495 648.6107443972119 C231.93431645497267 635.2348813842503, 232.2965084049106 625.0391938349422, 231.07381743393057 600.6654245178945 M232.07633614414547 649.9404597898016 C232.62916045170718 632.0159257368973, 230.9868980778023 613.6516300402399, 232.51479352444545 600.958459693499" stroke="rgb(0, 0, 0)" stroke-width="1" fill="none"/></g><g><path d="M351.2141477073969 9.005466955242541 C431.625171953454 12.763337360588388, 517.0241974483156 11.304304999036445, 631.1473927093642 9.7888731853001 M349.94207057708786 9.871426504193648 C416.2649649354527 10.068100505762892, 481.6301786046624 11.341381774036964, 631.6488469470888 10.176334190465294 M631.4234716237423 9.851965143511624 C630.0852355970997 65.12125280367235, 628.8808595036229 118.05360234599024, 631.8498436471991 158.5170022950937 M631.8535493316936 9.187654454440384 C632.5057598594879 56.21893122403458, 633.1049156044216 100.79859664404937, 632.9757472113455 160.44383099305398 M632.8331675896677 159.41468902737842 C551.4673182724955 157.92875875412165, 470.6655048467216 160.1385720031943, 350.5483486167422 160.7963981446737 M631.3591879501851 160.69457263587668 C544.9435916013646 158.525960196524, 457.9883318232738 158.4139227376591, 350.44072218264273 159.82129745679404 M349.2530560877914 158.96077140702573 C348.06119354112053 101.9815593925669, 348.5087489185193 45.83515683515521, 349.62819537287294 8.797742483002548 M350.28595775449094 159.22297898395988 C350.61922963312264 121.99713949283003, 350.8823337492579 85.27476367721442, 350.5560798706288 9.529463679113084" stroke="rgb(0, 0, 0)" stroke-width="1" fill="none"/></g><g><path d="M373.49939962183157 94.48444686118643 C390.1042782646294 93.09601415759694, 407.9248330029206 93.82821032271914, 431.486485413188 94.26643328516867 M375.2617447081528 95.38420764176375 C393.78925385042174 93.84238187437929, 411.74279867385 95.53416907505195, 432.6088634650081 94.77242607925442 M434.96550546544285 94.73371388113505 C434.74247474394207 113.10067178107407, 431.25139868734857 128.811090103976, 434.1535052723274 143.46991581880437 M432.3443101737574 95.4923086295314 C432.47435876533905 105.27677762097181, 431.8242666508093 114.6263029062686, 432.3304040888483 145.74767825505543 M432.15918254089246 144.56124042119728 C410.7790417631889 142.90044453105307, 388.99106748277273 145.6128052140102, 373.64283552529696 143.95446282788583 M432.9207399472521 145.06635229733504 C416.2423982605978 145.59140812075245, 398.11390803372836 144.36016978980246, 375.48355208187337 144.159620650223 M376.90900947979225 144.50882452094604 C373.91934714044896 133.96418047749245, 376.71511486916717 125.06235798540844, 376.1248630694416 96.24646700159505 M374.78074363240296 144.19012118838296 C375.88152571380266 132.29861910282443, 374.7529887528527 119.5379918277423, 375.95205606287897 94.96686358394955" stroke="rgb(0, 0, 0)" stroke-width="1" fill="none"/></g><text x="404" y="125" fill="rgb(150, 100, 28)" text-anchor="middle" font-family="Consolas, Courier" font-size="20px">id32</text><text x="404" y="82.5" fill="rgb(0, 0, 0)" text-anchor="middle" font-family="Consolas, Courier" font-size="20px">0</text><g><path d="M431.91494105711706 95.35245885111772 C447.9718065790378 94.17159260959183, 463.97842549788146 94.40316320015104, 491.41620499820897 96.58064612448739 M433.66487699410254 94.64938209620539 C444.5917803369481 96.00117434397936, 457.21497402928236 95.25293093546419, 490.9856116080153 94.61288443554433 M492.54691722867466 93.89951805110249 C489.42728686254554 108.43166731524283, 492.15311420764596 118.40510203107858, 492.66129507586334 145.69026954340046 M491.17707179509586 95.69566126053851 C491.3045186168597 111.68561323039968, 491.43904738299995 127.82506186443348, 491.4926360945753 144.4973776799849 M492.7775757709254 143.923551240853 C476.9008788139918 146.9620601554706, 457.8159986892844 143.31530666005094, 434.58677281901396 146.09101494252602 M491.0716033950496 144.8152124307245 C479.6208485649024 144.73689244739444, 466.3516820093979 145.32259846903057, 432.113867453019 145.2082918389841 M432.98963531528017 143.21366955923105 C431.92608037779985 129.16745114317223, 433.5152578709376 113.02853234256342, 434.85326273425505 95.28085314578844 M432.7985140458432 145.2291681338313 C432.31491104909475 129.1549805529459, 432.8608911895875 112.10971795190517, 433.2073907854694 95.63277445864998" stroke="rgb(0, 0, 0)" stroke-width="1" fill="none"/></g><text x="462" y="125" fill="rgb(150, 100, 28)" text-anchor="middle" font-family="Consolas, Courier" font-size="20px">id10</text><text x="462" y="82.5" fill="rgb(0, 0, 0)" text-anchor="middle" font-family="Consolas, Courier" font-size="20px">1</text><g><path d="M492.3835218214488 94.483159364009 C512.6960199240034 95.41864498803706, 534.6156485610342 96.47517030902858, 547.1496067834646 96.51164063343997 M491.89122795325295 94.26237147689098 C506.9042719297097 94.98983364631086, 522.2389509409699 95.66389027829824, 548.642253909418 95.89927111070406 M548.4302716689264 95.14412826676832 C549.9005960375589 115.94459325494054, 550.0629691969922 135.54101724598473, 549.3259037174014 143.19495840635958 M548.5400474264037 95.54522653039355 C548.4330055573274 115.54566108822347, 548.5245659820755 134.98608678768503, 549.111435777525 144.78159913604011 M547.5633559625737 145.76800658115948 C525.6066268141462 144.87098466679484, 502.4954542706801 144.45383429163473, 489.016690304125 146.11616742538234 M548.5513445598204 144.7471767941568 C535.4658710111711 145.67567844041483, 522.5546576294132 145.11355128406302, 490.7515758872337 144.12341615964175 M492.2108183890557 144.2815926733634 C492.48752642076863 130.82907336540572, 490.09053879472157 114.8194829060586, 491.08385214577214 95.07732218919568 M491.7894468707719 145.21210747149632 C489.90825391000527 125.21511293606436, 490.5977768562918 105.6547877936079, 491.5873965434062 95.5830569391996" stroke="rgb(0, 0, 0)" stroke-width="1" fill="none"/></g><text x="520" y="125" fill="rgb(150, 100, 28)" text-anchor="middle" font-family="Consolas, Courier" font-size="20px">id90</text><text x="520" y="82.5" fill="rgb(0, 0, 0)" text-anchor="middle" font-family="Consolas, Courier" font-size="20px">2</text><g><path d="M550.2802121222006 96.9311856273065 C567.0045574884265 96.50642543792593, 584.6512423431026 93.80453654660258, 605.012570073604 96.557159756069 M549.9911372124411 95.71065728574152 C564.503846683775 94.83640972471375, 580.4675562388584 94.5390914158249, 606.5798544733436 94.59765132474253 M607.4745560632939 95.92139834756046 C607.7364758137962 108.88812228012083, 608.2078962937878 124.39295738982545, 608.0085335822614 143.0492813760855 M607.0430462940178 95.70542359487449 C606.5389955912474 115.2409439575825, 607.5551820590581 133.5542515908798, 606.2997876976644 145.03276411926103 M605.8022699470763 145.02926386932938 C590.105515245981 146.4682734296198, 578.1341366253864 146.58316904428276, 550.3725384855717 143.29941326777876 M607.9625870677021 144.98314856883232 C594.6832234887502 145.49856524574255, 579.9039640963596 144.03479142884535, 548.5302465953115 144.75373772478588 M550.6950653501686 143.7713454644295 C551.032552466183 128.38248460125968, 548.783497825681 113.60179677502389, 550.4695774835478 94.65367146598645 M548.7461200592562 145.64982695159352 C548.6662327844407 126.44559211019471, 550.0143161750724 107.156759915391, 549.8913458109545 94.69026111668671" stroke="rgb(0, 0, 0)" stroke-width="1" fill="none"/></g><text x="578" y="125" fill="rgb(150, 100, 28)" text-anchor="middle" font-family="Consolas, Courier" font-size="20px">id57</text><text x="578" y="82.5" fill="rgb(0, 0, 0)" text-anchor="middle" font-family="Consolas, Courier" font-size="20px">3</text><text x="380" y="40" fill="rgb(150, 100, 28)" text-anchor="middle" font-family="Consolas, Courier" font-size="20px">id82</text><text x="602" y="40" fill="rgb(27, 14, 139)" text-anchor="middle" font-family="Consolas, Courier" font-size="20px">list</text><g><path d="M351.032207931981 11.712570018672457 C365.8603939187779 9.342926583010147, 380.31855198239805 8.282574795534119, 409.314053794958 9.619926047502151 M349.9326259108102 10.132700856052688 C368.90191956942374 9.31297261598135, 385.46302447683195 11.000346805460577, 410.22994310495966 10.90459525999256 M408.54794187306413 11.89734325467844 C410.37470727680153 26.501804513291027, 408.8224068439533 39.13072628378014, 409.14834971598884 61.24024639982216 M409.60758426102007 10.189296757896495 C410.40478506522413 22.641713530988184, 411.0847995372185 34.79808761698944, 409.30844125277724 59.307157205067156 M411.49697309013555 58.05631622110181 C387.3487513845246 60.31296093230017, 369.0749286206596 58.154663729170395, 351.9308657983593 61.31210811078842 M410.6361801110776 59.2588084334311 C398.0161220458768 60.71797308820069, 384.9430715695668 59.68051202074044, 350.8298819095263 60.07779533074144 M351.79210925992817 60.24599064747033 C349.98159964721447 47.36665709207832, 350.4785821072807 35.05541501562928, 350.60351497497965 9.126983334391458 M350.2336466793538 60.739615328243275 C349.584680963273 41.75089334190632, 350.10825526510376 24.417911142452883, 350.6407721643588 10.129881936303846" stroke="rgb(0, 0, 0)" stroke-width="1" fill="none"/></g><g><path d="M570.008632426238 8.457638137046136 C591.599865242707 10.402947425387321, 606.6270100778287 10.787861862102234, 633.0603706391694 8.227453443905889 M571.9124152400383 10.204805625298665 C591.2030472488551 10.31187285824277, 609.344814049883 9.337021612721884, 631.4005520271517 9.465103252294249 M632.0558994273922 9.468191854390682 C633.2206080416258 22.144819255452376, 633.914690287258 38.93317187180702, 631.0529582102392 59.32661811376656 M631.0541312879128 9.36481420462111 C633.0063442632348 21.335668985801377, 631.8014108848585 32.72676619140385, 631.4827383744291 59.30677438474096 M633.2765669910856 58.63812727465885 C613.7564780568657 59.76451277468215, 599.2741597823377 58.09325787760862, 570.7641934872123 59.712735401607624 M632.1855104218541 60.50300130148911 C607.6602328514024 59.06378294763467, 584.5055282288961 58.64456858502294, 572.014873940889 60.53008469563211 M571.687926113179 58.89751636763758 C572.9334664563831 46.85149939062749, 572.4746654802155 31.01315484454144, 571.4578988064445 8.549226229183388 M572.6733110246232 59.31668756148838 C572.018203450661 40.861947458129364, 571.7694886649381 21.140068362541754, 571.6032075904108 9.306718513173962" stroke="rgb(0, 0, 0)" stroke-width="1" fill="none"/></g></svg>