<svg width="1300" height="797" xmlns="http://www.w3.org/2000/svg"><g><path d="MNaN NaN CNaN NaN, NaN NaN, NaN NaN MNaN NaN CNaN NaN, NaN NaN, NaN NaN MNaN NaN CNaN NaN, NaN NaN, NaN NaN MNaN NaN CNaN NaN, NaN NaN, NaN NaN MNaN NaN CNaN NaN, NaN NaN, NaN NaN MNaN NaN CNaN NaN, NaN NaN, NaN NaN MNaN NaN CNaN NaN, NaN NaN, NaN NaN MNaN NaN CNaN NaN, NaN NaN, NaN NaN" stroke="rgb(0, 0, 0)" stroke-width="1" fill="none"/></g><g><path d="MNaN NaN CNaN NaN, NaN NaN, NaN NaN MNaN NaN CNaN NaN, NaN NaN, NaN NaN MNaN NaN CNaN NaN, NaN NaN, NaN NaN MNaN NaN CNaN NaN, NaN NaN, NaN NaN MNaN NaN CNaN NaN, NaN NaN, NaN NaN MNaN NaN CNaN NaN, NaN NaN, NaN NaN MNaN NaN CNaN NaN, NaN NaN, NaN NaN MNaN NaN CNaN NaN, NaN NaN, NaN NaN" stroke="rgb(0, 0, 0)" stroke-width="1" fill="none"/></g><text x="NaN" y="NaN" fill="rgb(0, 0, 0)" text-anchor="begin" font-family="Consolas, Courier" font-size="20px">lst1</text><text x="NaN" y="NaN" fill="rgb(150, 100, 28)" text-anchor="middle" font-family="Consolas, Courier" font-size="20px">id82</text><g><path d="MNaN NaN CNaN NaN, NaN NaN, NaN NaN MNaN NaN CNaN NaN, NaN NaN, NaN NaN MNaN NaN CNaN NaN, NaN NaN, NaN NaN MNaN NaN CNaN NaN, NaN NaN, NaN NaN MNaN NaN CNaN NaN, NaN NaN, NaN NaN MNaN NaN CNaN NaN, NaN NaN, NaN NaN MNaN NaN CNaN NaN, NaN NaN, NaN NaN MNaN NaN CNaN NaN, NaN NaN, NaN NaN" stroke="rgb(0, 0, 0)" stroke-width="1" fill="none"/></g><text x="NaN" y="NaN" fill="rgb(0, 0, 0)" text-anchor="begin" font-family="Consolas, Courier" font-size="20px">lst2</text><text x="NaN" y="NaN" fill="rgb(150, 100, 28)" text-anchor="middle" font-family="Consolas, Courier" font-size="20px">id84</text><g><path d="MNaN NaN CNaN NaN, NaN NaN, NaN NaN MNaN NaN CNaN NaN, NaN NaN, NaN NaN MNaN NaN CNaN NaN, NaN NaN, NaN NaN MNaN NaN CNaN NaN, NaN NaN, NaN NaN MNaN NaN CNaN NaN, NaN NaN, NaN NaN MNaN NaN CNaN NaN, NaN NaN, NaN NaN MNaN NaN CNaN NaN, NaN NaN, NaN NaN MNaN NaN CNaN NaN, NaN NaN, NaN NaN" stroke="rgb(0, 0, 0)" stroke-width="1" fill="none"/></g><text x="NaN" y="NaN" fill="rgb(0, 0, 0)" text-anchor="begin" font-family="Consolas, Courier" font-size="20px">p</text><text x="NaN" y="NaN" fill="rgb(150, 100, 28)" text-anchor="middle" font-family="Consolas, Courier" font-size="20px">id99</text><g><path d="MNaN NaN CNaN NaN, NaN NaN, NaN NaN MNaN NaN CNaN NaN, NaN NaN, NaN NaN MNaN NaN CNaN NaN, NaN NaN, NaN NaN MNaN NaN CNaN NaN, NaN NaN, NaN NaN MNaN NaN CNaN NaN, NaN NaN, NaN NaN MNaN NaN CNaN NaN, NaN NaN, NaN NaN MNaN NaN CNaN NaN, NaN NaN, NaN NaN MNaN NaN CNaN NaN, NaN NaN, NaN NaN" stroke="rgb(0, 0, 0)" stroke-width="1" fill="none"/></g><text x="NaN" y="NaN" fill="rgb(0, 0, 0)" text-anchor="begin" font-family="Consolas, Courier" font-size="20px">d</text><text x="NaN" y="NaN" fill="rgb(150, 100, 28)" text-anchor="middle" font-family="Consolas, Courier" font-size="20px">id10</text><g><path d="MNaN NaN CNaN NaN, NaN NaN, NaN NaN MNaN NaN CNaN NaN, NaN NaN, NaN NaN MNaN NaN CNaN NaN, NaN NaN, NaN NaN MNaN NaN CNaN NaN, NaN NaN, NaN NaN MNaN NaN CNaN NaN, NaN NaN, NaN NaN MNaN NaN CNaN NaN, NaN NaN, NaN NaN MNaN NaN CNaN NaN, NaN NaN, NaN NaN MNaN NaN CNaN NaN, NaN NaN, NaN NaN" stroke="rgb(0, 0, 0)" stroke-width="1" fill="none"/></g><text x="NaN" y="NaN" fill="rgb(0, 0, 0)" text-anchor="begin" font-family="Consolas, Courier" font-size="20px">t</text><text x="NaN" y="NaN" fill="rgb(150, 100, 28)" text-anchor="middle" font-family="Consolas, Courier" font-size="20px">id11</text><g><path d="MNaN NaN CNaN NaN, NaN NaN, NaN NaN MNaN NaN CNaN NaN, NaN NaN, NaN NaN MNaN NaN CNaN NaN, NaN NaN, NaN NaN MNaN NaN CNaN NaN, NaN NaN, NaN NaN MNaN NaN CNaN NaN, NaN NaN, NaN NaN MNaN NaN CNaN NaN, NaN NaN, NaN NaN MNaN NaN CNaN NaN, NaN NaN, NaN NaN MNaN NaN CNaN NaN, NaN NaN, NaN NaN" stroke="rgb(0, 0, 0)" stroke-width="1" fill="none"/></g><text x="NaN" y="NaN" fill="rgb(0, 0, 0)" text-anchor="middle" font-family="Consolas, Courier" font-size="20px">__main__</text><g><path d="MNaN NaN CNaN NaN, NaN NaN, NaN NaN MNaN NaN CNaN NaN, NaN NaN, NaN NaN MNaN NaN CNaN NaN, NaN NaN, NaN NaN MNaN NaN CNaN NaN, NaN NaN, NaN NaN MNaN NaN CNaN NaN, NaN NaN, NaN NaN MNaN NaN CNaN NaN, NaN NaN, NaN NaN MNaN NaN CNaN NaN, NaN NaN, NaN NaN MNaN NaN CNaN NaN, NaN NaN, NaN NaN" stroke="rgb(0, 0, 0)" stroke-width="1" fill="none"/></g><g><path d="MNaN NaN CNaN NaN, NaN NaN, NaN NaN MNaN NaN CNaN NaN, NaN NaN, NaN NaN MNaN NaN CNaN NaN, NaN NaN, NaN NaN MNaN NaN CNaN NaN, NaN NaN, NaN NaN MNaN NaN CNaN NaN, NaN NaN, NaN NaN MNaN NaN CNaN NaN, NaN NaN, NaN NaN MNaN NaN CNaN NaN, NaN NaN, NaN NaN MNaN NaN CNaN NaN, NaN NaN, NaN NaN" stroke="rgb(0, 0, 0)" stroke-width="1" fill="none"/></g><text x="NaN" y="NaN" fill="rgb(0, 0, 0)" text-anchor="begin" font-family="Consolas, Courier" font-size="20px">age</text><text x="NaN" y="NaN" fill="rgb(150, 100, 28)" text-anchor="middle" font-family="Consolas, Courier" font-size="20px">id12</text><g><path d="MNaN NaN CNaN NaN, NaN NaN, NaN NaN MNaN NaN CNaN NaN, NaN NaN, NaN NaN MNaN NaN CNaN NaN, NaN NaN, NaN NaN MNaN NaN CNaN NaN, NaN NaN, NaN NaN MNaN NaN CNaN NaN, NaN NaN, NaN NaN MNaN NaN CNaN NaN, NaN NaN, NaN NaN MNaN NaN CNaN NaN, NaN NaN, NaN NaN MNaN NaN CNaN NaN, NaN NaN, NaN NaN" stroke="rgb(0, 0, 0)" stroke-width="1" fill="none"/></g><text x="NaN" y="NaN" fill="rgb(0, 0, 0)" text-anchor="begin" font-family="Consolas, Courier" font-size="20px">name</text><text x="NaN" y="NaN" fill="rgb(150, 100, 28)" text-anchor="middle" font-family="Consolas, Courier" font-size="20px">id17</text><text x="NaN" y="NaN" fill="rgb(150, 100, 28)" text-anchor="middle" font-family="Consolas, Courier" font-size="20px">id99</text><text x="NaN" y="NaN" fill="rgb(27, 14, 139)" text-anchor="middle" font-family="Consolas, Courier" font-size="20px">Person</text><g><path d="MNaN NaN CNaN NaN, NaN NaN, NaN NaN MNaN NaN CNaN NaN, NaN NaN, NaN NaN MNaN NaN CNaN NaN, NaN NaN, NaN NaN MNaN NaN CNaN NaN, NaN NaN, NaN NaN MNaN NaN CNaN NaN, NaN NaN, NaN NaN MNaN NaN CNaN NaN, NaN NaN, NaN NaN MNaN NaN CNaN NaN, NaN NaN, NaN NaN MNaN NaN CNaN NaN, NaN NaN, NaN NaN" stroke="rgb(0, 0, 0)" stroke-width="1" fill="none"/></g><g><path d="MNaN NaN CNaN NaN, NaN NaN, NaN NaN MNaN NaN CNaN NaN, NaN NaN, NaN NaN MNaN NaN CNaN NaN, NaN NaN, NaN NaN MNaN NaN CNaN NaN, NaN NaN, NaN NaN MNaN NaN CNaN NaN, NaN NaN, NaN NaN MNaN NaN CNaN NaN, NaN NaN, NaN NaN MNaN NaN CNaN NaN, NaN NaN, NaN NaN MNaN NaN CNaN NaN, NaN NaN, NaN NaN" stroke="rgb(0, 0, 0)" stroke-width="1" fill="none"/></g><g><path d="M309.9929574845839 99.06719333886353 C322.7165507804421 98.28002537717678, 336.4613951669872 101.84625347311257, 361.52051239518227 99.34461750601147 M309.94407773501763 99.7831932567521 C327.6226206348247 100.9496149441905, 347.21589747837686 100.35937832267338, 359.60900866194675 99.31364197623206 M358.0244203863942 99.72936010420506 C361.3262872722156 121.41618673653669, 359.44556036023147 138.98521421451122, 360.49151406352627 148.6178951176682 M360.2161719250509 99.20508055158093 C360.06019065021025 119.00838077180015, 359.6738558272491 138.93229238607108, 359.18923271689823 149.51468320904743 M361.5915558004101 148.2405631137083 C344.94845494408054 150.87593150145793, 331.0416005495137 149.9709769275996, 311.2795377101581 151.73129094165762 M359.95095455457545 150.6711533436511 C348.30746027975374 149.77556982151464, 334.4360101067518 149.23798732421992, 309.2129028534952 149.8983839614294 M309.29235699151616 148.74097300644192 C309.18631507401506 138.25421229974503, 311.529646320425 122.82862951141983, 308.8585417764404 100.21648877276444 M310.00599773082286 150.9658820860084 C309.233077261101 130.68612072178573, 308.83734898282415 110.4352354544967, 309.9647853658848 99.92054615444711" stroke="rgb(0, 0, 0)" stroke-width="1" fill="none"/></g><text x="337" y="130" fill="rgb(150, 100, 28)" text-anchor="middle" font-family="Consolas, Courier" font-size="20px">idx</text><g><path d="M308.4605332298593 175.68458353010035 C323.28813583578994 173.45696607880197, 334.2852325708692 177.0517167055038, 359.4705418717261 175.11899149315266 M310.56622744736 174.00825149872693 C320.11792320690415 175.35727820085637, 329.94055558700427 174.43360026937762, 360.14367234981637 174.31612313030504 M358.9913646744069 173.0389376685184 C361.1078603305551 188.49515737166712, 360.385119597549 200.32534271029655, 359.6796458395637 225.97686851009507 M359.90045144050725 174.90489975976243 C359.4770098790255 192.05256263854324, 360.08128635958315 211.4878858344961, 359.77866267479783 224.03005114090604 M359.19554452627256 223.95166771140475 C345.3915877808283 225.51266674624125, 330.9061414741931 225.1354194985225, 308.44162689893415 223.61437953546354 M359.7453915670279 225.99480974520964 C343.85109249689873 225.1497474828783, 327.5331552162135 224.7272492738706, 310.5197840851908 225.5519334896013 M308.28205478945796 223.77826213887 C311.45204734306736 210.93076120951704, 308.8791864782189 198.04673909933058, 309.30658105189156 175.87383124724659 M310.0516682377102 224.63036313951426 C309.7868259221037 209.40960805049397, 310.52876258629766 194.88788444613323, 310.5432730580087 174.4757429948097" stroke="rgb(0, 0, 0)" stroke-width="1" fill="none"/></g><text x="337" y="205" fill="rgb(150, 100, 28)" text-anchor="middle" font-family="Consolas, Courier" font-size="20px">idy</text><g><path d="M308.2124103215991 251.22384829411683 C327.1853188471504 249.9074130325552, 341.2923376109811 248.63306642204867, 360.2068391992375 249.02099221652514 M310.193471481438 250.82720424959132 C326.06589498897114 250.94915661610406, 342.504096358816 249.94338871078125, 360.6736464736183 249.03445595351516 M361.77784250734754 251.0363395513649 C361.3300680419769 263.3003977997885, 358.55984693772 274.34171540497874, 358.984500849241 300.6586033697187 M360.45466170982 250.96229059905303 C360.83960566333485 267.3874735147831, 360.8591276200522 284.85698014740063, 360.63947551750596 300.6057595498901 M359.4412127212243 298.31401672336716 C345.040626533332 299.53645006982424, 328.1396688981161 301.69363994562104, 309.36075156547645 300.01731597874397 M360.9918691382046 300.49288291552756 C348.2957899212193 300.02893656085865, 335.1385153906513 300.9966896767126, 309.8812746518148 300.09036684199015 M310.9838357897359 300.1371268114949 C309.2647144421123 290.0380410434151, 310.30225280475173 278.27043127110653, 310.2269805515597 250.0341528192267 M309.2710488762343 299.51837393692244 C308.94696788643427 281.76750845772136, 309.4124505330011 264.08911686200895, 309.92866036403376 250.16712597067743" stroke="rgb(0, 0, 0)" stroke-width="1" fill="none"/></g><text x="337" y="280" fill="rgb(150, 100, 28)" text-anchor="middle" font-family="Consolas, Courier" font-size="20px">idz</text><text x="391" y="130" fill="rgb(27, 14, 139)" text-anchor="middle" font-family="Consolas, Courier" font-size="20px">:</text><g><path d="M411.80224817369157 99.01301456985078 C425.6335078313783 99.38812664132325, 437.73668185652764 99.63305521348005, 469.7726293475384 100.0863179303178 M410.80287071872294 100.65589630979854 C431.48521181614984 101.36251359868001, 453.4003117088739 99.42537612399528, 471.19505127471297 99.62871499324798 M469.8135316737021 98.49749270582996 C471.37733773404136 110.74672587805338, 469.36988687902806 122.52980777469637, 469.4642764697219 149.4882746104491 M471.0914537488506 99.84702377945587 C471.7052066924695 118.4116387497514, 470.0532114904435 136.1711257048963, 470.76599804639835 149.14020460282177 M469.75924855349115 149.457744385705 C455.89634421561016 150.7166084135197, 443.96645730022675 149.41392692930495, 412.5516643566847 150.06224029715307 M471.67483592687336 150.1296407257611 C448.85608349837224 149.6556809021531, 427.95223175068253 151.35418393605556, 411.93536551164505 150.93847369585535 M410.6828171607968 151.01296121323034 C409.62103006253756 128.76256170585737, 412.99278527624745 110.36955820852492, 411.1268225787099 98.95682473966966 M411.8782186502098 150.2493275812555 C411.15874672759065 136.239010531481, 411.00829398269576 123.99402613398618, 411.9812776201846 99.6442662089095" stroke="rgb(0, 0, 0)" stroke-width="1" fill="none"/></g><text x="441" y="130" fill="rgb(150, 100, 28)" text-anchor="middle" font-family="Consolas, Courier" font-size="20px">id81</text><text x="391" y="205" fill="rgb(27, 14, 139)" text-anchor="middle" font-family="Consolas, Courier" font-size="20px">:</text><g><path d="M412.9368600658936 174.15558185530338 C427.88669892241705 175.087575158987, 440.5005165609867 173.4860816653162, 483.4620231449063 174.71082731797577 M410.83725081802663 174.49480794618137 C433.7205562329227 174.50955567184715, 454.7793573857933 174.3391556040464, 483.7306019354395 174.36856477501615 M484.9988734077517 176.2992792042797 C482.16683813218145 188.0020151145574, 482.07823882995325 205.42743877962397, 481.8912403971528 225.2657719895793 M483.9324281785509 175.43222785962305 C482.0050723605693 190.34146465760807, 482.98942783722487 206.6754062428599, 483.1352409514721 224.20379395542633 M482.83287610280723 226.4586218593048 C457.1381402502627 222.90493169107475, 436.29045663471936 224.51198329147314, 411.2429012500906 226.04447736424822 M483.20574805895427 225.45654372718178 C467.77178623906144 223.92259181695837, 451.4107316947588 223.8530136407756, 410.27120256571664 225.8513109541289 M412.1753020296401 224.3842402837535 C410.99239210172567 212.33140918901498, 411.8836275673377 197.80970380312897, 411.0813330824039 173.13434624454092 M411.03169488583 225.44956071069817 C412.20960030023815 205.41411512286606, 411.5400086954226 186.63335257244634, 410.0258410859979 175.06710871786754" stroke="rgb(0, 0, 0)" stroke-width="1" fill="none"/></g><text x="447" y="205" fill="rgb(150, 100, 28)" text-anchor="middle" font-family="Consolas, Courier" font-size="20px">id100</text><text x="391" y="280" fill="rgb(27, 14, 139)" text-anchor="middle" font-family="Consolas, Courier" font-size="20px">:</text><g><path d="M410.2923812723469 250.9249932123605 C429.03429220265684 249.8686563467052, 449.0131292629577 248.66868407298796, 484.7034643306868 250.7289602721928 M411.8660227189653 250.92673780035418 C440.4956395913823 249.77629059321984, 467.9312701192445 250.98751055099498, 483.06013233324444 249.6674493501068 M482.0242572215922 248.51872020905978 C482.16328641505436 267.2976452166771, 480.95673052202784 286.4628925466232, 484.0682654930399 299.8617375148056 M483.94516354070566 249.3434372888107 C482.55322543031866 260.22650250500715, 482.0629638403502 271.91794244463983, 482.94513936451847 300.4289516020934 M481.7754423862592 298.3391625993776 C467.05341180603045 299.1013948157714, 450.98269300596564 301.1751318465329, 412.42300494332653 300.7594145934868 M482.30885808546225 299.82117069530375 C462.2834207151511 300.97196317855344, 441.7707711993747 301.36269697693444, 411.17235895824246 299.3302899076128 M410.1984597387964 300.0028662661462 C410.62700868732026 287.6362674753668, 410.61488565024825 275.06565742728833, 411.7742587249739 249.22339874954122 M411.559773344627 299.18924967797886 C412.13066335497155 282.94034886546433, 411.8655101107086 265.961407979604, 410.39084229580243 250.69529199647732" stroke="rgb(0, 0, 0)" stroke-width="1" fill="none"/></g><text x="447" y="280" fill="rgb(150, 100, 28)" text-anchor="middle" font-family="Consolas, Courier" font-size="20px">id121</text><g><path d="M285.9437604988778 24.67919891044712 C345.4232902288994 25.203796390776706, 403.59201337958166 25.070228767664076, 498.5782071540642 25.09417699997404 M285.6704714645213 25.003726857894616 C328.5841500146983 23.46650157661398, 372.8801292729829 24.63863927306525, 497.0905505777277 24.944135038413926 M496.5012053196999 24.519635022841637 C494.6145617978638 143.06055505971392, 495.2458462771048 261.37474216587276, 498.3776820665386 323.5658512125573 M497.51326760491276 24.882717376669337 C496.11499983470446 92.53990372026655, 496.149889145432 161.77243353380308, 496.74740128452146 324.84297592750653 M495.6064742408652 326.496332191344 C437.12248295319495 323.64762871511243, 376.93875504593893 323.3596484029401, 283.2526262184441 324.3787942383347 M496.5639740295864 325.4292983282925 C441.52693568442066 325.39689182049386, 384.49213098509 326.36270659898423, 284.7749374073345 325.1877996671168 M284.8080848379466 326.44872926302537 C281.775206547064 258.51000314121154, 283.3070901187309 193.83444984616486, 283.9627607854396 24.4279882165209 M284.50970157982977 324.39108531542286 C285.22123726711857 250.7885462625936, 286.300879240394 175.79246173046087, 285.24232161715815 25.064143065715374" stroke="rgb(0, 0, 0)" stroke-width="1" fill="none"/></g><text x="315" y="55" fill="rgb(150, 100, 28)" text-anchor="middle" font-family="Consolas, Courier" font-size="20px">id10</text><text x="467" y="55" fill="rgb(27, 14, 139)" text-anchor="middle" font-family="Consolas, Courier" font-size="20px">dict</text><g><path d="M285.75200873450825 25.755783643899754 C296.9747537982039 24.593335575852763, 309.5654442204826 23.444927894712592, 346.75276116723524 24.520252500882563 M285.7780974771991 25.193456044673134 C297.22402603656315 26.42433078496686, 309.6343011456841 26.494507074775854, 344.117249486309 24.97814763378071 M345.1243839654274 25.798535973967525 C343.5555106358169 43.660108496310684, 347.37555418613226 59.45423044781564, 346.34631842297364 75.15040596596658 M344.2174385464627 25.746416121906496 C345.02620105033765 42.09924245210526, 346.1273451410189 60.309536770036146, 345.6450253839642 74.85260608747751 M343.7253372302158 74.40556863549583 C324.31129732010197 73.5017916831413, 306.0624915916909 73.54426408143863, 285.52093742811786 73.43462692400622 M344.5017431939055 74.18787576978275 C328.8137237570033 74.56363272550892, 312.24046110564024 75.76796831491667, 284.6173843000398 75.58994829267853 M283.6281651553419 73.48508837983951 C285.45127669156943 63.47481830400199, 285.43475040229686 52.40153857912996, 286.77307755504324 25.94817695633579 M284.7966886104555 75.98896162425281 C285.2290011017643 62.491996285599456, 285.7975258315547 48.698004635380265, 285.8846813829982 24.75774005943363" stroke="rgb(0, 0, 0)" stroke-width="1" fill="none"/></g><g><path d="M437.72386643336483 23.440692100737568 C456.71871878224005 23.86572987907512, 477.1397972608238 25.41789502735762, 496.55347887859386 25.61909601720967 M436.9485632417718 25.957892514593343 C454.4011297996904 24.74724888655333, 469.7617643246645 25.391454166442667, 496.34694480833457 24.30655476954336 M497.5274578129524 23.71573169963151 C498.54898358114394 35.23152942822351, 495.4295380207936 48.253792984448346, 496.51651389909136 74.23456215064029 M496.84616567292295 25.743968601480397 C497.18727818882945 38.63506681610735, 498.1134538945402 50.349041425723534, 496.3772856924205 75.46450583173056 M496.9172128388514 74.74115010918756 C476.36992397708195 76.21464703451257, 452.8913036851647 73.3490122649903, 435.35622234636736 74.61211366582455 M496.3371153097434 75.76267436974959 C476.9693428700807 74.74279078348812, 458.5700215483944 76.0432467198869, 437.9670848270901 74.6826289651707 M436.46972808171466 73.54912393253214 C436.69518811459534 56.676586718798966, 435.57101433108005 38.23322774535247, 438.3983650471951 25.412947443084924 M436.8485929629571 74.65527153343557 C437.2519997847632 56.62377320866459, 436.65059746838836 37.482984974248986, 436.4025634160185 24.9473987752062" stroke="rgb(0, 0, 0)" stroke-width="1" fill="none"/></g><g><path d="M523.1668184735418 24.83100101199208 C619.5411837297545 23.300026162786434, 717.1927005472643 24.984885096464915, 804.336700441167 26.317289896041462 M521.4083295496529 24.549540365178764 C593.7711547902678 26.835563808455838, 665.3772736868816 26.223779463014502, 803.8273707513121 24.759322543510038 M803.7248150620599 23.14838293065821 C803.3418238165967 71.24236125708555, 803.3945080195119 120.44757705586002, 802.9648932088003 173.60077741313674 M804.9434389871782 24.38630718176281 C801.9114455056211 76.72207682763485, 803.6992310353528 130.13512335511945, 803.5501352525827 174.9366741138951 M803.2080390595198 174.5036356891124 C734.8680373163511 174.20721302529935, 669.2084488941161 174.60934097040828, 523.4522106870237 175.01261073237055 M804.3196898731355 175.4622953309595 C725.9536311936291 175.7424178064234, 649.4978483190054 174.75993997109077, 521.5377027360198 174.29804196449285 M520.371255708575 174.44633002413073 C525.117786225446 133.1435077874974, 523.9400945134748 91.41534298380681, 520.695399203794 25.324495290074545 M522.3554335928568 174.2794506595894 C522.2534358644326 118.75922456952645, 521.8848728829013 62.90426976340851, 521.187304059503 25.834332337415297" stroke="rgb(0, 0, 0)" stroke-width="1" fill="none"/></g><g><path d="M545.1484478456015 111.46867409611491 C570.7446844772356 110.89919319776327, 593.0193338058394 111.22257844265482, 605.9156016076696 110.13779191826055 M546.4538209659804 109.84177373583553 C570.5160748030171 110.18694037620797, 594.0252221293941 110.62289261206178, 605.4176785139595 110.20846838874287 M605.2846320982384 108.00471862778824 C605.6402709114521 122.37065860902206, 605.7077243225139 137.8745145847738, 604.2235732293167 158.00755678268487 M605.0058712250159 110.37011098299227 C606.3506380258169 126.06664482398342, 605.6637425790645 142.0399839512226, 604.3781258451623 160.95353004952662 M606.7468813775273 158.1215188817596 C584.5396255896134 158.15692755627674, 562.2030887566588 161.27870226877874, 547.4411817383015 158.32098787152268 M605.2307913326298 159.98686011209003 C585.8660448166951 161.1678398610597, 566.3683243008655 159.3433457083192, 546.2906723011561 160.91182610375714 M547.5227465514829 161.75031132145543 C546.6450827230872 149.91805416398313, 545.5101747615812 135.0716676773566, 546.7995044816926 108.03078238402952 M546.6690638623428 160.8006197231432 C546.405344349585 148.82091249898718, 546.5839178918978 138.9195157686644, 547.7911377235783 110.79563540538226" stroke="rgb(0, 0, 0)" stroke-width="1" fill="none"/></g><text x="576" y="140" fill="rgb(150, 100, 28)" text-anchor="middle" font-family="Consolas, Courier" font-size="20px">id32</text><text x="576" y="97.5" fill="rgb(0, 0, 0)" text-anchor="middle" font-family="Consolas, Courier" font-size="20px">0</text><g><path d="M606.5564746662446 109.32186999098924 C620.7668439716638 108.28751176473011, 635.8628166881009 110.2000247170616, 661.7183142611569 109.18904772599413 M605.8278526802053 110.37589372504955 C625.7150992291457 108.68556627321112, 644.5751645163264 109.19946106708834, 663.6067859109017 110.51563317140271 M664.7153416990815 108.61160895017979 C661.3469673754943 125.3199818979227, 664.7634865172736 141.76125394965212, 664.4640632202444 160.38188953838826 M663.5365782185474 109.62462063406676 C662.805447201095 124.37260282302607, 662.6076744812617 138.3275098434958, 662.902092883433 160.59792952646836 M661.4517224759556 160.3469544051777 C647.3345972856017 159.26198052919258, 628.7652049178746 160.63775946616678, 606.8124223597188 160.92289396052968 M663.7858964511429 159.0751017343955 C643.4301554441844 159.0915606244033, 624.0633439605832 159.12709551870222, 604.1381992696782 160.99641536693403 M605.5281694469286 159.10199172584333 C605.6061917390473 142.6091098932433, 603.1094177870285 128.56457437094284, 605.4660384144827 111.87836491054615 M605.136094458876 160.22024252373495 C604.3517462239985 147.63524109533847, 605.3291786242271 136.10847711998386, 604.5619691724573 110.48121230577675" stroke="rgb(0, 0, 0)" stroke-width="1" fill="none"/></g><text x="634" y="140" fill="rgb(150, 100, 28)" text-anchor="middle" font-family="Consolas, Courier" font-size="20px">id10</text><text x="634" y="97.5" fill="rgb(0, 0, 0)" text-anchor="middle" font-family="Consolas, Courier" font-size="20px">1</text><g><path d="M661.6221845583224 109.58542975466152 C681.6224843289499 110.4256973038503, 700.1628396130992 109.27466780939513, 719.8261895243536 108.48498888291334 M662.9266725451597 109.18967368358065 C685.541680167582 109.66430563852008, 708.1860838552561 110.31076684881796, 720.4885016777428 109.09441651557087 M722.762220369373 108.52509243725702 C719.8437483923228 125.49191051983863, 722.3742696054612 139.98172135248512, 719.1642149744913 158.384822375188 M720.049695441359 110.9134739829498 C720.3837494588901 122.81613092637382, 721.4443179497772 137.76536993781684, 720.9169976743159 160.7590530573565 M720.6079168746878 158.77441260044162 C700.5638971379468 160.83592175711038, 676.7104514069371 159.16269047906815, 661.8317921239706 161.00400915640702 M721.8556312556165 159.62784874097494 C703.4961631819033 159.88201601986276, 684.6630050958861 159.73810273323977, 662.8866910558311 159.15981349115648 M663.9976909543897 158.02594213235366 C662.7978571478499 140.15136554736824, 665.030136739687 123.12097063441801, 662.7433992179932 110.05456700564652 M662.280460665324 159.86078665415482 C662.4222502057137 140.64487309041783, 663.0732298946517 121.72684746351021, 663.632911281014 110.01536381168671" stroke="rgb(0, 0, 0)" stroke-width="1" fill="none"/></g><text x="692" y="140" fill="rgb(150, 100, 28)" text-anchor="middle" font-family="Consolas, Courier" font-size="20px">id90</text><text x="692" y="97.5" fill="rgb(0, 0, 0)" text-anchor="middle" font-family="Consolas, Courier" font-size="20px">2</text><g><path d="M721.0842772911056 111.02129926060415 C739.0275215383541 109.3820810864753, 756.5935660455114 110.52641352058863, 780.5574316801201 109.64574202793165 M721.6006662880453 109.89703295304072 C743.3473334728635 109.27883345042868, 764.549242377792 109.47631464970645, 778.2357593060401 110.12922922596807 M777.1330271685146 109.50560280703931 C780.2041566859014 124.95721570047792, 778.0892279359292 138.97100470855608, 777.3195462908835 161.5113059107454 M778.2838996852505 109.10447997021554 C779.4810092481421 126.11578620245493, 778.0950884832212 142.9214202658639, 778.6445765539067 160.2483331011493 M780.8821150242827 158.79525258662983 C764.2097816552433 161.66933056734592, 750.974800604774 160.07572563676123, 720.4942031525151 159.32826691818266 M778.9680493449562 160.7879566637726 C767.7318163351675 160.13194163727533, 754.8031427468411 159.93078928484917, 721.3377967788781 159.6203609510229 M719.0692952367776 160.04022154010022 C720.0795132630052 142.3232053510872, 719.4911098490988 125.32736670119996, 721.6197846675489 111.12428534371317 M721.1527805718955 159.3125634521867 C721.0970935515844 140.81057983374433, 720.7632038360912 120.9712558216538, 720.830794207569 109.98338704658681" stroke="rgb(0, 0, 0)" stroke-width="1" fill="none"/></g><text x="750" y="140" fill="rgb(150, 100, 28)" text-anchor="middle" font-family="Consolas, Courier" font-size="20px">id57</text><text x="750" y="97.5" fill="rgb(0, 0, 0)" text-anchor="middle" font-family="Consolas, Courier" font-size="20px">3</text><text x="552" y="55" fill="rgb(150, 100, 28)" text-anchor="middle" font-family="Consolas, Courier" font-size="20px">id84</text><text x="774" y="55" fill="rgb(27, 14, 139)" text-anchor="middle" font-family="Consolas, Courier" font-size="20px">list</text><g><path d="M523.931261380416 24.57332258689864 C544.6228559933343 25.69884143539548, 568.0815022261347 26.00597277278659, 580.6683892717308 24.164800157264025 M521.9530304056307 25.663453513928022 C543.6313999262651 24.659802681256387, 565.7448240736919 26.143186821039777, 581.6846186775726 25.575064254226852 M580.2506276241928 23.19210369880896 C580.9955731983518 46.12747139210586, 581.2069801043486 65.1229964214923, 582.1930777892521 73.30710846928936 M582.8428419741396 24.819356394668542 C582.3006635022069 39.96082949649704, 582.310331232712 55.36036579988022, 582.282117216324 74.27131462229781 M581.5985696058874 74.59026854874625 C561.2340354351418 75.66111849548354, 539.5419272725643 76.22223385750009, 523.4977039476759 76.18822080260358 M582.7202905765139 75.38086382128299 C560.2912469699215 75.27901622048593, 539.2874529184834 76.16366388079514, 522.3822254530056 75.22816247289973 M522.2104446991995 73.42610767464288 C523.6418113420827 62.4265746896476, 521.4426356981271 52.75844840952655, 521.8735311116496 24.88646590063598 M522.6427785548887 75.78925012829059 C522.5204351799922 54.91543262720763, 522.033011382429 36.40180160645329, 522.282657693146 25.890857018103272" stroke="rgb(0, 0, 0)" stroke-width="1" fill="none"/></g><g><path d="M744.58887858679 24.220329404230064 C765.0854649872637 24.796705354508674, 788.359704524092 25.969354830922388, 804.3755560418583 26.822776630048075 M743.1796883990602 25.164556576763754 C768.3026018618352 24.463813394199573, 791.7313139238054 25.440321876910396, 803.7161455886544 24.530310152840983 M804.7755493311817 25.623115369790607 C802.4999233040356 41.36534429853939, 806.0761688718749 59.934474674050094, 805.1501883053996 73.40374005461567 M803.28500374732 24.95836113165392 C804.3117141990587 40.91129003339222, 805.2289411397691 59.293130674673996, 804.4083935148504 74.95152211504049 M803.3411149549249 74.4410453982276 C785.1570840198602 73.7372259827237, 766.3653065582008 74.1355703824649, 745.4858940034378 73.65467289432519 M803.361523095307 75.48904892010904 C787.1443625005252 74.15127989510619, 769.2694533434686 75.40299320051477, 744.1718487259994 75.86937133894943 M745.4421054719176 75.57132570113978 C742.9429748527549 56.9676420948975, 744.3891431030959 38.32895401254874, 742.9039798412495 25.877602632740718 M744.7183842958243 74.94613360734061 C744.8127657752403 62.73568829995033, 744.0643321943387 51.82785329452516, 744.1919210466422 24.179044179799675" stroke="rgb(0, 0, 0)" stroke-width="1" fill="none"/></g><g><path d="M827.886410181191 24.924937952075773 C886.6031462344532 23.754636760321926, 944.4493116805656 23.86417608187792, 1028.9328965926934 24.601322686665018 M828.5707131764276 25.865406965073444 C887.712774759539 22.859484733713426, 947.6661072789344 23.04390940696237, 1028.3477176432164 25.098177148442357 M1028.0656037935369 24.664525934133565 C1029.4279674167033 65.44830252697919, 1031.0667028948267 105.3710211323852, 1027.8396643783274 153.03510047987888 M1028.8354062254234 24.50661336957787 C1028.7696670787736 62.9174022996859, 1028.8217143881336 99.7615966385976, 1029.484027096841 154.95235132720296 M1029.8809937705762 156.4953964951923 C988.5722022247911 154.4041267719385, 944.809428158203 153.27692118575422, 828.3868098491153 156.78404382122702 M1028.4454697866063 155.41905213333425 C969.5321575932878 155.48167577376628, 910.2435010576305 154.07645010804234, 829.232667840675 154.80437346956663 M827.9009037957161 155.08435635419795 C827.5571431657154 120.15159582065499, 829.7291081885805 86.73314898729521, 827.4569548208186 26.165124744730882 M828.1272804474486 155.9171438959398 C828.8572168634083 118.51132123516325, 830.3107306932968 81.42574537991125, 829.1467188582931 25.904892318304615" stroke="rgb(0, 0, 0)" stroke-width="1" fill="none"/></g><g><path d="M822.7400928575834 18.86933141810512 C903.445278019542 18.389292045603593, 985.9580299832523 18.976763283072234, 1035.5147162214892 17.826623052773 M822.1630840241246 19.699748410966016 C891.9982886440572 20.165022813473758, 959.329717138822 19.59331528955932, 1035.298614771704 18.64148795127338 M1034.2489596681871 18.46702501137051 C1035.7556615775025 51.862434926589906, 1033.4952014040389 84.22674999178096, 1036.6629308087372 159.3729093570697 M1034.5815476155133 18.296298869863723 C1036.6066633544083 48.9017411765411, 1036.8319979249775 79.88932823102125, 1034.6974402010574 161.15509422351263 M1033.5875298531002 162.1954953489236 C950.1181000210822 159.70218385444306, 866.7755558133472 159.456765979041, 824.4004370906433 162.49082346108366 M1034.892424774655 160.20431108268835 C962.5189687883308 160.19619271760763, 889.6278687089787 160.8229682739651, 822.3064300460259 160.86365489211437 M824.3690883461618 160.2846550894322 C820.6115429061008 108.24350736662537, 822.1594133895206 54.22107659709412, 822.0154552970602 18.4132823241376 M823.1553772672474 161.4523041945111 C823.2525006806072 126.32424334778406, 822.4925337908173 91.70409006661522, 823.4698246202736 18.478236712061847" stroke="rgb(0, 0, 0)" stroke-width="1" fill="none"/></g><text x="929" y="115" fill="rgb(27, 14, 139)" text-anchor="middle" font-family="Consolas, Courier" font-size="20px">1969</text><text x="859" y="55" fill="rgb(150, 100, 28)" text-anchor="middle" font-family="Consolas, Courier" font-size="20px">id19</text><text x="999" y="55" fill="rgb(27, 14, 139)" text-anchor="middle" font-family="Consolas, Courier" font-size="20px">int</text><g><path d="M827.109745766121 23.162240321244475 C849.5034905343568 26.559086439587, 873.9694743452379 25.549406532383546, 887.1864234948314 25.810324698926653 M828.7206801313474 24.0898647180047 C849.9077265502984 24.642936107037198, 869.4268996851321 25.760890029497077, 889.0518340472969 25.398576440574214 M887.5526107969835 24.033740045483995 C890.9902265340075 44.923745753492035, 889.6429399971137 62.061660514675616, 889.6306086262424 76.33753887910309 M889.4157825768496 25.636995069289696 C888.2915768106723 44.158673131944376, 888.5081432873633 61.53387863150225, 888.2349482768265 75.77010886095604 M887.7377611463222 74.823386769666 C874.3134578467383 75.23794118942482, 859.7630364845382 76.77416529000872, 828.5430032212919 74.77095551281678 M888.4679160630441 75.33384200915562 C876.187726311655 74.40337995716105, 863.6523011457102 73.98752387993089, 828.4567341016889 75.40745558056155 M828.354667854835 74.17700543941669 C828.3233904093096 63.2690778984726, 828.9904504845899 50.47059005466946, 827.0510802617881 26.452205527091138 M829.5105360050017 74.20190019564701 C827.7844204275901 62.85381892624383, 829.4005317330018 51.91275710888768, 829.533281908504 24.23227299679382" stroke="rgb(0, 0, 0)" stroke-width="1" fill="none"/></g><g><path d="M970.0302383359885 24.192504261864542 C992.6591852344374 25.73684249466736, 1014.5252417943608 25.277307822426067, 1029.7781935862972 26.595915395112964 M968.1538592131302 24.684575144101608 C986.6448840161102 24.822577809970884, 1005.8615419079847 25.106297211751578, 1028.0309186478564 25.47888254670233 M1030.9333445373097 26.729423964559434 C1028.8653160023753 42.90378681896978, 1030.3661506251856 62.64541793554736, 1030.4627128656666 74.28938757477971 M1029.4657502678506 25.31864979811358 C1029.0203632147134 36.64634733141641, 1028.8713232667235 47.941925673788425, 1029.8338109292188 74.95830740041116 M1028.9566943480102 76.35653653712315 C1015.5091742394882 77.42947381067009, 998.7895682453945 75.45862204797336, 967.0363273364798 76.26550802198102 M1028.068069994599 75.24085492815793 C1008.0574936326797 75.74833518032641, 988.3705675184893 74.42360134439066, 969.8175296235944 75.46560123054233 M969.3638372526412 74.25026164288802 C967.9402097512889 62.293997478553614, 970.0511602702545 54.1258471608891, 968.9644542982296 26.302411217806103 M968.3741299095028 75.97059826832802 C969.5244961179565 59.01114078563798, 968.2673194658981 40.39540523207938, 969.3282827232784 24.901619155931346" stroke="rgb(0, 0, 0)" stroke-width="1" fill="none"/></g><g><path d="M286.1350500039078 349.5483232386672 C328.82728954463266 346.96171426354135, 370.4438840795755 349.75908813061085, 486.7370449658612 350.3580154366523 M284.5100523431684 349.8775162630996 C354.4215388708469 348.52689555131445, 424.52692163190244 349.7271580692369, 484.8462657803189 350.03018645510707 M484.20464690607577 348.0540592848931 C483.833435990612 394.2111012059421, 484.9669302519615 442.7127940858879, 486.7888492142013 480.65068371283223 M485.1600656900201 350.11040207411946 C484.22615221688443 378.1288753564914, 484.32746178625865 407.8390863873935, 484.9117280566256 479.76155016982125 M483.3838933512229 480.41762774147867 C405.49790296983855 481.43830331509974, 325.91322863992417 480.1691188106529, 285.89552751749534 481.3946660967813 M484.2633971882897 480.30246229856556 C419.32622207689934 480.7519480264808, 355.73384897879447 481.065819306038, 284.29734231549907 480.37894620035473 M283.9636366884239 479.3329094101384 C284.8042322689939 429.53080095612097, 287.173713118524 381.3574695397674, 283.02561699933244 350.49480002439765 M285.2009431499725 479.7874085451007 C285.7521599907861 454.6580690552104, 286.3329196453527 426.56950150862764, 285.16200424136684 350.1786697116037" stroke="rgb(0, 0, 0)" stroke-width="1" fill="none"/></g><g><path d="M277.34017707592 345.2675833820294 C350.61192563904007 344.56568724770005, 423.39658931837255 344.4694802348728, 491.777448902989 344.1857538512916 M278.33424396672103 344.4108979338491 C325.6654360911343 344.4707039446197, 373.97743060355583 344.5196202584774, 490.22110936236464 344.756107077762 M492.0740920181738 345.691722211337 C489.32242263137334 391.71174605710814, 488.9126892778223 436.11668534107463, 492.51360780619814 485.55384192417455 M491.60042006656494 344.6650243601548 C491.9863362145479 396.09343744281824, 491.93063515753613 447.40202962488706, 491.48483398835504 485.55309985152303 M491.59259183273974 486.28291664635896 C438.6233908746691 488.54503065850497, 383.58290371445446 487.0042156282539, 279.97946084061937 486.89253933677617 M490.9104020660716 485.3493804403989 C424.8833847125525 483.9100526112267, 358.778679045693 485.42794921367283, 278.16537099079324 486.4838560081093 M280.9982821191591 487.64020253970364 C280.28540861706665 445.00631224457584, 279.77595451585984 407.260639020016, 278.08893111998856 345.16718530999447 M279.1321047643133 485.21938853818705 C279.39096889402816 445.38140685636876, 278.51064582938307 404.0490794085172, 278.01734777799885 343.3054448299784" stroke="rgb(0, 0, 0)" stroke-width="1" fill="none"/></g><text x="385" y="440" fill="rgb(27, 14, 139)" text-anchor="middle" font-family="Consolas, Courier" font-size="20px">True</text><text x="315" y="380" fill="rgb(150, 100, 28)" text-anchor="middle" font-family="Consolas, Courier" font-size="20px">id32</text><text x="455" y="380" fill="rgb(27, 14, 139)" text-anchor="middle" font-family="Consolas, Courier" font-size="20px">bool</text><g><path d="M286.6690420732739 349.6509315402769 C298.7820206322253 349.3992197576153, 312.90589546757536 350.392261578944, 344.7557300429203 348.54458517632827 M284.45757083560113 350.9961079655867 C301.2978648730655 350.39808643780526, 317.774474383499 351.0607635336643, 345.3045668743592 349.49801979233433 M344.12608787400364 351.194797845219 C346.5504473440297 361.71494675229286, 345.6845601372083 374.4460015864197, 344.8496865178254 398.0473890347149 M344.8260198092832 350.54870228426813 C346.15728912615714 365.26194969575477, 345.9566598375825 382.22774852060417, 345.61302963840706 400.3264660371575 M346.1240294049889 401.16158352278535 C327.80780390535534 397.817962292051, 315.29322707533845 398.8652467690218, 284.25767078002 399.83840485125705 M344.17725613447385 400.3236584077097 C331.04158630201033 399.1074477436998, 319.6047462259355 399.07749334921743, 285.6464660386652 400.4890926839035 M285.51022645156576 399.48001564726775 C284.7814272075877 386.5048254569232, 285.4092919236809 369.0768561434615, 285.22047099958604 351.8666174164694 M284.57643835155403 399.7020054912256 C285.56197359465295 380.99512353414946, 284.7780288744522 359.8026705194955, 284.04675230605403 350.77857492067244" stroke="rgb(0, 0, 0)" stroke-width="1" fill="none"/></g><g><path d="M424.97308036857925 351.5430727562909 C442.81864043214745 349.64052507063104, 466.3293472230034 349.9439925211619, 483.67860300372155 350.10084286658366 M424.96452159403833 349.01927649717555 C440.5380383525006 350.67538659543726, 455.8909191540744 349.73801680418705, 485.8959968749447 349.7331346825864 M485.03759548281505 351.4803002095392 C485.38585578265184 364.18096539433765, 483.24780957548023 377.4338444828747, 485.3495544410121 398.3468947325442 M485.7778843250998 350.19911149171435 C485.2201987327316 363.52120046731136, 484.81660136544923 378.5543269376658, 484.31149884597255 399.5781218130368 M483.05877076634687 400.85277334287036 C467.0889326489174 400.6453669958555, 445.7702703405384 400.5465328063591, 423.49272307273634 400.3004165546021 M484.3331603239667 399.01521100075286 C463.5820686045509 400.14964161386155, 443.24593364548326 399.82731391185007, 424.99294141152853 399.6057132196745 M423.5886440472317 401.3514278578578 C426.5063531670986 387.56542171685953, 424.90234532215925 377.54202279590004, 424.9611690909682 348.29377211231565 M425.6574280987286 399.7617976220824 C425.42687076165413 381.6670334080776, 424.4288401409103 361.2936045293823, 424.2082644034244 349.90999799305956" stroke="rgb(0, 0, 0)" stroke-width="1" fill="none"/></g><g><path d="M521.051675410647 351.4474323785403 C591.0246742150478 348.1586123531754, 656.4972798726858 350.8972589726742, 723.5369306488258 350.8947190025869 M521.2225820141783 350.0201474261546 C586.8192376303689 350.82270682583794, 651.2109314202435 351.1038920331919, 721.661629676347 349.93326608749646 M720.0833910145872 349.2533346563732 C722.1253073717305 387.1150593015122, 723.4866909513986 425.00844408742785, 723.0140288004477 481.31276733439006 M721.312425010101 349.21585917710087 C722.1782481705285 382.89771920885, 721.5072457509294 415.25593515983445, 721.1529788553491 480.8722277484554 M720.8691592823577 479.96475776611135 C656.4129419634821 478.6406973261547, 589.4612692950832 479.92829403807, 521.8504341916506 480.2906053080628 M721.4827677475052 480.26259981521514 C658.5687726916406 480.8652682142268, 595.1546624113051 481.1287365660067, 522.785586017314 479.4005324722212 M523.9169130265137 481.35505881159474 C523.3549872908212 454.0805029733285, 521.4017023392427 423.5881395393872, 520.4761319381888 351.5449784638405 M522.0150590492016 479.8394114487368 C521.9675773258449 431.6320285065656, 521.8855186628412 382.81289167579735, 521.0729893775685 350.8561095831027" stroke="rgb(0, 0, 0)" stroke-width="1" fill="none"/></g><g><path d="M515.1282487051941 345.2565698737306 C581.9450464657698 343.1287597521698, 643.8985470971809 345.7111780149513, 728.275430702761 344.31453429433776 M515.8886461796691 343.9127535852475 C574.7584831177329 345.43513026804004, 633.1437151075414 345.21180533623794, 728.184753704793 343.51293388699077 M729.0577776794155 344.4996759080176 C728.9733478254102 372.53238514699035, 727.1493417416855 404.66597971980167, 727.3297271272436 484.6820100124996 M728.0670562129692 344.5424050960764 C728.2118061726845 379.5584735240682, 727.0801133342183 416.0089003792932, 728.4253566758942 485.38686643356357 M726.5881015263534 487.1583620280603 C648.532840766529 484.3552350623608, 570.9389496721433 487.09043140119513, 516.6418577621345 485.02936566706705 M728.6798016154831 486.41232334542934 C676.8104130507721 487.97233453498205, 627.0605330586728 488.05620015670434, 516.5326438864571 486.51560196205025 M514.7299859745337 487.1130424507745 C517.3159140359493 453.9871150724105, 516.8258117294484 425.22126974571296, 515.5479637014665 342.1594074115322 M515.1739443256799 485.98903191475284 C516.6488195252826 439.83398613127827, 514.7545519122788 392.30518696521955, 516.9641255964955 343.90455357359065" stroke="rgb(0, 0, 0)" stroke-width="1" fill="none"/></g><text x="622" y="440" fill="rgb(27, 14, 139)" text-anchor="middle" font-family="Consolas, Courier" font-size="20px">"David is cool"</text><text x="552" y="380" fill="rgb(150, 100, 28)" text-anchor="middle" font-family="Consolas, Courier" font-size="20px">id43</text><text x="692" y="380" fill="rgb(27, 14, 139)" text-anchor="middle" font-family="Consolas, Courier" font-size="20px">str</text><g><path d="M520.6544824562351 348.4004043845525 C536.8777449402347 348.260181326522, 549.7221481971108 349.38581206051794, 581.297196346841 351.2515735551273 M522.1767553275803 349.16796999649716 C538.7778356978636 349.88301023410236, 553.1890216555389 349.63700936680203, 582.645058318442 350.7937389044492 M580.5828930768232 350.34179430988684 C580.407045004463 366.0805125613142, 581.4312428484756 383.12505910201287, 581.2116372212921 398.01354696641835 M581.6944925449724 349.06388815815575 C581.4625814595245 362.9395568988318, 582.8666235637222 374.6691011470168, 582.3479975682262 399.81231572738585 M582.1045074686516 398.1031602236316 C559.9096697754505 397.634080182685, 535.9743938457349 401.43410720245373, 523.2013983323023 401.1712403059106 M581.1059127886853 400.3308464273081 C564.2291877593631 401.2931792559581, 547.236482763988 400.5892251869754, 522.8851495370782 399.8275499465699 M523.0082672156469 399.03379672284126 C524.3157575471961 381.90810602867236, 521.7485501125786 360.33883423575065, 522.8696659036398 350.16789307714964 M521.3043663471253 400.34258824324644 C521.302526125627 379.2667562615289, 521.293714513008 361.2164159035369, 521.3196055691415 349.37159773699443" stroke="rgb(0, 0, 0)" stroke-width="1" fill="none"/></g><g><path d="M662.7669914435097 348.040707740962 C676.0329281893269 350.2964862253762, 692.6269847904587 347.92746742294935, 722.0895607380734 350.9872298874828 M661.9100949883415 349.51175933203973 C683.5290916318809 351.4981826100885, 704.1200856150351 350.09631590165253, 722.0057962439982 349.1701185302485 M723.6204037227914 349.990243958279 C722.4584841606408 364.16796577866825, 722.2140401681885 376.6101363682232, 721.4887257144233 399.6479620873728 M722.2570541617225 349.5406984140503 C722.9399037574532 360.71223492646317, 721.5369180703013 372.4876579216209, 722.8197242004017 400.4250664625781 M722.1295053545467 400.9385659999072 C705.9431511919319 401.57027461719457, 689.0488827850654 401.8457521420109, 663.0431837864627 401.8028702045472 M721.5744119804709 400.78199905892257 C708.7504950317795 400.53960115608356, 697.1379846587952 399.37968268674683, 662.4691121735768 399.6889676691243 M663.937849899463 400.8373039999528 C661.3356372565495 384.8818463368725, 661.5187354296279 364.18523924654363, 661.267622535655 351.5570453142647 M662.0236891850433 400.3888822504857 C661.1474637923203 390.42703338267256, 661.4100574013773 379.2182148741799, 662.7527105485332 350.2349901284864" stroke="rgb(0, 0, 0)" stroke-width="1" fill="none"/></g><g><path d="M760.1924679842319 349.3923691757617 C821.9503938699658 351.20754870065116, 887.9805206498605 350.9327485302108, 959.886267246743 348.73143544806175 M758.9918951744024 349.2567574517351 C833.9082975833993 348.39531166151755, 908.397782534107 348.401059469828, 958.794557141424 349.8409827642329 M960.6803305576458 351.4080272787552 C957.979002398833 393.44930933217546, 959.9046149840656 437.8372671372283, 958.5042565097802 480.9656724652275 M959.4738176857634 350.3418215299852 C958.6401379958722 393.1090680308909, 959.2009518599726 436.13854334876044, 958.1852891091708 480.218422924661 M957.6366501466566 480.4288173301895 C889.1495341618071 480.08881842324274, 819.0696206273985 478.42648750142763, 759.9692241610331 479.17906386449175 M959.6001566925258 480.07649857311696 C902.340382125871 478.7947465086995, 847.7161389084308 477.85966771955435, 759.8413825897637 479.8591425165967 M758.7038891900988 479.9172297749 C758.3263939329812 448.5053636996332, 757.5333537311081 413.3300230706001, 757.1385563324617 348.798372615301 M758.2288098057973 480.09167313443675 C759.6758075963342 445.7367598027013, 758.0435099894142 410.07194314477823, 759.3586912058638 350.22783334099074" stroke="rgb(0, 0, 0)" stroke-width="1" fill="none"/></g><g><path d="M751.4563811723299 344.3048189509444 C814.5900044396997 344.5820208887428, 875.5758675720434 341.43401645701255, 965.0833808229729 342.48931211808764 M753.613124526898 344.8361028436591 C795.9119310407133 342.6955509466218, 839.0157644106229 342.43620459170927, 965.6376486644152 344.23147348342417 M964.7997127779511 343.8663547521624 C964.2524612296844 393.9971266818424, 964.5859018267291 442.430289808089, 964.28488845356 485.3477775081844 M965.339909391604 344.1406135159805 C964.7653906632816 383.8427933210856, 962.9146199221874 424.9356555933086, 965.6862068433223 486.01761092615715 M964.5331572336868 487.0999812142906 C897.4277522915387 488.76455337961465, 828.8078064124146 489.24329328703203, 754.6569202081104 486.4308440892293 M965.8045049752711 486.62153794056474 C914.3044074602308 486.5619560880422, 865.3221798739022 488.11045560700893, 752.5381316942004 486.81104667524437 M752.984127382411 484.6750117406463 C751.2913604812537 454.00144388264215, 750.5785426546312 424.2736249698901, 752.7069269692336 343.54162748977404 M753.3106229018065 486.3774863360345 C754.6674403680458 447.67373493632664, 754.4587941366634 409.26590341936344, 753.8598742642898 344.5382057162609" stroke="rgb(0, 0, 0)" stroke-width="1" fill="none"/></g><text x="859" y="440" fill="rgb(27, 14, 139)" text-anchor="middle" font-family="Consolas, Courier" font-size="20px">"None"</text><text x="789" y="380" fill="rgb(150, 100, 28)" text-anchor="middle" font-family="Consolas, Courier" font-size="20px">id13</text><text x="929" y="380" fill="rgb(27, 14, 139)" text-anchor="middle" font-family="Consolas, Courier" font-size="20px">None</text><g><path d="M760.2270232497091 348.04816497164086 C782.83000886419 349.83057201976385, 806.2488548901174 351.0310238509212, 817.4286839330348 350.7275306900191 M759.8624961274402 350.76025288970385 C773.2219592245012 348.9288724133878, 788.332323284388 349.41177167349326, 818.4219272598622 349.8227045655324 M817.7888071944983 348.5231816113861 C819.0143514731476 366.93025811945444, 818.0315915981802 380.9502833525307, 818.3102898433831 399.48218181376546 M819.7795283460486 350.7696354913865 C818.6526233969621 368.33295676679046, 819.2676157160574 388.31267701078826, 818.2442139578571 399.71153165523845 M817.4840680901781 400.1131891978895 C798.4084375478336 400.0606199888029, 773.9838790969678 400.723874810936, 760.2850968238208 400.13532492231064 M819.1844034078217 400.03598944208335 C797.87293908023 400.2464933454059, 776.6784484458486 400.4653158150335, 759.0298034167628 400.95251724366415 M760.5025255043017 400.64795733188254 C759.3596223706307 383.64989915322315, 758.7858068098004 363.59127026507, 759.7312687555499 350.2728093765536 M758.1327672608552 400.9025612659483 C758.8541919878543 386.3210597400391, 758.4242258459585 373.0618467064258, 758.4202748025319 349.7354673012709" stroke="rgb(0, 0, 0)" stroke-width="1" fill="none"/></g><g><path d="M900.1622183264825 351.6381608144502 C914.6286805144446 350.785646925886, 928.0313127159793 351.84559361850853, 960.7529714090803 351.2264132078874 M899.303854298239 349.58916573886574 C914.2992089503379 349.20903217039034, 931.989575243541 349.6706322308823, 959.4618639908621 350.8042411374468 M957.2521870074407 348.50896310874555 C958.124865313213 360.1331598389215, 958.637350859191 373.2907149184173, 957.1023719458913 399.14303910617434 M958.725853579688 350.69206936146463 C958.3854815640728 365.743739121985, 958.1935570694625 382.04638077489585, 959.2394543435132 400.18715846621524 M959.0248953767575 398.5832825737015 C941.2304169068972 399.3040666647447, 922.6819628248508 400.16207005677927, 898.5214608312843 401.4008942549005 M958.8357195695511 400.7894216241661 C937.3576076739058 400.07687116262974, 916.0047199884573 399.6954293876983, 898.7655978587225 400.62606897657287 M900.1463751604786 400.75448017119584 C900.4185633927078 380.0612386120999, 897.1846948126232 362.3012024287909, 898.3139481430997 349.6842149216531 M898.1570598504828 399.25164764823654 C899.9293971645213 388.88189593723445, 899.2170790608545 378.22970313531084, 898.1845438009345 349.1059506645013" stroke="rgb(0, 0, 0)" stroke-width="1" fill="none"/></g><g><path d="M284.70843087501015 516.2703141753703 C352.16289799988897 516.0328172383355, 421.7438207273324 516.3658873559741, 565.9739609336023 517.5947946289208 M284.5709407623585 517.5709517670399 C363.47072696193976 517.7823193936122, 443.81179903145295 518.0448027348648, 566.5330106175439 517.3798855386005 M565.3401405185886 515.7402242813985 C567.2697950816561 552.5377481923325, 567.9574623254205 593.2519727059105, 568.5141613410606 648.647459465742 M566.595531827274 517.5361767681193 C566.1174445178706 566.344566176952, 566.1383222255818 616.1098119646467, 567.5515084645667 646.5634362551378 M568.3364241460656 648.3382957969253 C465.5633550161 644.8657497857916, 362.4225002317068 646.0523103193201, 285.5879229139497 647.8963532492215 M567.7046126280478 646.823974947989 C507.8257632501609 644.2217868766866, 449.2168887166528 645.4528099442639, 284.56840376333656 647.3282841799354 M284.3047085989259 647.3981185474294 C282.4773390866491 594.1049628092452, 282.78598879247664 542.2867392250241, 285.677679317298 517.9788070578392 M284.01219448897234 646.8151921775607 C284.7778769312615 606.2953561932245, 283.93657278499575 564.5381466003217, 285.6649769564004 517.5547638034003" stroke="rgb(0, 0, 0)" stroke-width="1" fill="none"/></g><g><path d="M310.77425483428135 583.3096465828578 C330.8486156161673 581.2364087440369, 354.4204093542838 580.3194794082465, 369.11484538085347 580.9973086750349 M310.2389827270196 582.5353840067016 C322.8263752149805 581.8937921477205, 335.43755460161015 581.6587162596238, 368.0123217418365 581.8958403843366 M366.59288153546845 580.854010557811 C368.33874116136235 597.756562919769, 368.9465867917367 617.4601576370225, 367.5570351755603 632.6300890300914 M368.0525235747487 582.5201419721133 C368.6511944201518 596.6834210754812, 368.9623234838631 613.0499935552181, 368.55181450394645 632.600321506383 M369.79371427890186 633.2262559025371 C345.7981876301608 632.1034674262137, 324.5019199198237 630.535077053247, 308.80532289868154 631.687277524576 M367.1778374556057 631.5093684242771 C353.7994092615531 630.8286942017988, 338.49809645839173 632.079284269569, 310.7724463678084 632.2590492915385 M308.7103308557687 633.3374382135896 C312.1996801286598 618.7617545877742, 311.7103271834701 606.3235301121726, 309.77155939030047 581.6839150831362 M309.04033431709604 631.0248987325289 C309.2003845214602 611.3667944971436, 310.0181403013437 592.833004565778, 310.2333531186951 581.1400667178796" stroke="rgb(0, 0, 0)" stroke-width="1" fill="none"/></g><text x="339" y="612" fill="rgb(150, 100, 28)" text-anchor="middle" font-family="Consolas, Courier" font-size="20px">id19</text><g><path d="M367.8125615883587 583.6334719505447 C381.5511633142599 580.9045670364575, 392.4526066499361 581.9299588958536, 426.8782213028183 580.7566528280709 M367.99704073368054 582.366165373274 C382.018919113072 581.9894604575163, 395.12633994204276 582.1564864660742, 426.8140085371565 581.5469414677171 M427.5840206589414 583.6349763076386 C425.6119630351281 594.052588288235, 426.01673504190694 607.4178809513041, 424.03119460615164 630.4846154995378 M425.16361178156507 581.1321802073976 C426.0394198336952 593.2814393599839, 425.0905824360961 605.4766232814194, 426.15050947257356 631.4928453840822 M425.89016093468587 632.0407491227649 C407.8210124189658 634.1577676522053, 387.52313482890355 632.7574257608387, 366.96211692154407 630.0406559322664 M425.8642982033536 631.143775879966 C405.7012094317744 632.3289007568453, 385.7148695930092 631.3505773416762, 367.82151888463096 631.3703504237857 M368.2092892356547 632.2619448212456 C369.190486416673 611.6344457462554, 368.14036245608446 592.1171041528362, 368.1389194586724 582.7742381874251 M367.54180465898384 631.8414394745024 C367.75066526295325 615.3058864190932, 368.1920161063368 601.3480113861173, 368.4522959035068 582.0543512831094" stroke="rgb(0, 0, 0)" stroke-width="1" fill="none"/></g><text x="397" y="612" fill="rgb(150, 100, 28)" text-anchor="middle" font-family="Consolas, Courier" font-size="20px">id43</text><g><path d="M427.94763174183674 583.2574468382577 C443.1880118738486 582.8999651871352, 459.88161040970266 582.2525359214833, 483.4687139619721 580.0172663649341 M425.4378721375725 581.4470860999924 C444.63934410385497 582.150850014835, 462.2028933451116 581.8217399969988, 483.67754463853 581.8502235640127 M484.1868353977777 583.6815660722054 C485.4589747226596 592.2011937239652, 485.25238528374064 604.617621805229, 485.36479312061687 630.038544802891 M483.8708406343819 582.1226198861802 C484.9418637548456 599.2477836551168, 485.03036748058287 615.5342506145914, 483.28737312255953 631.6418546563436 M482.8624364809037 630.6291958260259 C463.3768630672951 633.1731159735857, 444.7096337035013 632.454552510659, 427.0218100396541 630.0845505835013 M483.5500621748605 631.225521050081 C464.64374197825487 632.2746709111465, 446.37172335694186 632.2054985276063, 425.01738654404465 632.1124966432642 M424.8845012724622 633.1093493703473 C424.4942695544082 614.1997010380779, 426.68568624998306 595.7483188152987, 425.3495511923873 582.3942780199226 M426.0491295039628 632.7199151756483 C425.6967607329944 613.919645933025, 426.7028415734889 594.8822801261379, 425.8248028429176 581.8362737460122" stroke="rgb(0, 0, 0)" stroke-width="1" fill="none"/></g><text x="455" y="612" fill="rgb(150, 100, 28)" text-anchor="middle" font-family="Consolas, Courier" font-size="20px">id28</text><g><path d="M485.0556114170195 580.9695071316613 C500.87172007378666 581.6316795222373, 515.7351861262872 583.2125834045228, 540.1937765136186 582.7571988281779 M483.2944502416849 582.3578110002035 C500.92242864448514 581.9216611766277, 517.4867075641567 582.083749254228, 541.9485456686192 581.9597608048147 M541.3495822903351 582.4988545206319 C541.6794396486963 600.6354382272908, 540.80262021024 621.9950181562792, 542.829832704687 631.8289580681352 M542.8085526121725 582.1727390687975 C541.3599925642916 594.4572214882365, 543.2054941510323 606.4790301574949, 541.0609591066138 632.6083222009705 M543.199139631561 633.7803086818677 C522.6538873109804 633.5252106441249, 504.3176479072045 632.7583769756767, 485.0206881907593 633.4609496802575 M541.2480155279193 632.2521302416726 C526.2047116032252 632.3397229523852, 511.85732457108764 631.2727232544465, 484.34191345703283 631.2139302555079 M485.2634093932308 633.0916145290287 C483.6262176223435 619.5468028838272, 483.9762933760097 606.2633536576943, 485.83235888217774 583.6396481497823 M483.57538243172826 631.0556784381918 C483.4127124675009 617.9276236246171, 483.1520421793184 603.4691210014714, 484.01322875855124 581.495035752807" stroke="rgb(0, 0, 0)" stroke-width="1" fill="none"/></g><text x="513" y="612" fill="rgb(150, 100, 28)" text-anchor="middle" font-family="Consolas, Courier" font-size="20px">id49</text><text x="315" y="547" fill="rgb(150, 100, 28)" text-anchor="middle" font-family="Consolas, Courier" font-size="20px">id82</text><text x="537" y="547" fill="rgb(27, 14, 139)" text-anchor="middle" font-family="Consolas, Courier" font-size="20px">list</text><g><path d="M284.7669124403089 518.1440125406489 C295.9613732291924 517.3136580600957, 310.515671392147 518.1450291389413, 344.0331135315002 518.1797615329592 M284.88632371994186 517.5650928420313 C300.24431895057893 516.281489590543, 315.11133462655005 515.9876617804376, 345.7443188912614 517.1868353513028 M344.87363622676327 517.7191643808603 C343.8581939705594 538.1058280536768, 346.1286642687462 557.8878079967551, 344.0583959929369 568.6800363739865 M344.2444589699908 516.5266650067034 C344.542499935197 532.6888338422162, 344.56387887142654 547.1995736054361, 344.7298441965467 566.1926911289196 M345.6973125372449 566.583430344922 C326.82934707147615 565.5681094239011, 305.9015902486783 568.2172803605976, 286.2545228823594 568.363108493316 M345.9868719858606 567.802721911777 C324.40489104569224 567.824937843988, 303.46985604050553 568.0381179150047, 285.7702101488308 566.9177785880793 M285.7408653525847 565.3370148789933 C283.71602464194825 549.6565778849039, 286.3745154825475 529.1346368022655, 286.17828384899246 518.7861062894028 M284.4252730074906 566.4744750226816 C284.5861260434931 550.1416315445847, 285.0501800185212 533.8843349850831, 284.1341482180072 516.7078369812442" stroke="rgb(0, 0, 0)" stroke-width="1" fill="none"/></g><g><path d="M508.1300767097956 515.3807366309817 C529.0084170632895 515.4790515123715, 554.6375402066111 518.0354168657025, 568.904632119356 517.4132389191566 M506.72557272453747 516.1080122916673 C521.0780354939744 517.051909355246, 534.7278482337712 516.8386632288224, 566.5621449841775 516.4870849300158 M567.0930387974188 515.6060829442567 C566.867508867104 526.9149972374088, 567.4397071921751 540.0539987463013, 567.9942139782777 566.0537634044842 M567.3586156292979 516.5612103856777 C566.8711899562436 529.3535624411304, 567.6619001056047 541.6384223062896, 566.0870243862203 566.7053384933092 M566.3150219081103 566.4232727750503 C552.0737467965056 568.0520746972647, 542.9045107877077 565.4180550964248, 505.98277946256894 567.8706491880573 M566.5006314348984 567.2553325702993 C551.5924742734982 567.0429530467471, 534.7387840213944 567.640511099329, 507.66020947299023 566.0628357153043 M507.2710242310337 568.2760384542146 C507.68159410214423 548.742847985326, 506.45031063035316 525.9718298384342, 508.3327816358904 516.0229423693083 M507.7712520714098 567.8592389145873 C507.1142722575085 547.5936008742427, 506.2371325601062 527.792224500178, 506.77850375206833 517.4973430102733" stroke="rgb(0, 0, 0)" stroke-width="1" fill="none"/></g><g><path d="M593.6915772412042 516.1844101490276 C661.945441116859 517.9664823808589, 729.3191198353625 518.20974666559, 793.1196024006458 517.3681617149497 M591.6680497415782 517.5175293317218 C651.969757228709 515.9541681166784, 711.3269170260068 515.494719217631, 791.6281085216539 516.6549856349924 M792.3227617930376 516.2867109737509 C793.6514411169034 554.2047463340654, 791.497023949156 594.4184020079108, 791.0614294045413 645.4266918009585 M792.4301268602762 517.7809718300675 C791.6121449712011 548.5121158479317, 792.6936475760393 580.6344853646582, 792.2637956097138 646.5162318491742 M791.2110614784914 647.1153676194767 C726.8412898170045 644.6995439901593, 662.3000943459109 644.8811181458746, 590.6128753215712 645.6586922604904 M791.2276550884945 647.7786646583835 C741.1306877143163 648.3940202624499, 690.3155486391016 648.6285359034497, 591.4910368231998 646.387849961367 M592.8407343800338 648.1770977473433 C589.4249142475336 605.73461478658, 591.5861326613938 564.3703820917885, 590.1001336844084 518.8900331819552 M591.9063699163644 646.9095311468421 C592.019716980982 608.6280083393134, 590.669330140322 570.4117735345947, 591.892076254072 516.2260840171284" stroke="rgb(0, 0, 0)" stroke-width="1" fill="none"/></g><g><path d="M586.2322932259796 511.7735975938748 C651.1659676273508 510.65145176874313, 718.1888680639711 510.4373759953547, 798.941609036275 510.45942511972584 M585.5932360354982 510.21174376250826 C639.7711010657586 513.160514508926, 692.852378867731 512.7470551282057, 797.9425352597026 510.53270603244556 M799.8824505142403 509.6430680417458 C798.3702952951442 564.9542401647433, 799.0094175586231 622.328164396828, 798.2544046860323 654.6458553529817 M798.5996976877558 511.29945931868025 C798.046320345514 557.6559532012556, 797.7395328757864 605.8592845034266, 798.6301911549316 652.7575876749906 M798.7695885767511 654.3480043742719 C722.932543124258 653.3478223701418, 651.6661672477238 655.0488860939804, 587.2859352911711 652.1922943362605 M798.0302190681385 653.5734847859097 C715.9090074738328 652.4203691461535, 632.50513543417 652.3019927398759, 585.6585001378229 653.5814546503893 M584.0498357843846 652.7460019256827 C587.3068914266549 613.3005553336344, 588.6845962837732 577.2469658393348, 586.0795363555274 510.02463216616275 M585.870618822956 652.1538443030455 C585.5717265091674 623.7747093016204, 584.4751452539066 594.7632840554307, 586.5624016561163 511.0164273376762" stroke="rgb(0, 0, 0)" stroke-width="1" fill="none"/></g><g><path d="M617.8949538361885 582.3898816224846 C634.7966671710891 584.0992327743004, 653.7751023206603 581.986291773696, 675.0021434352902 583.4584094137109 M616.9896097423682 581.9037432325003 C630.0522260313667 582.0303888953168, 645.0844887430376 581.865210325247, 675.304583225332 581.6981590670531 M676.548499834236 583.333881354013 C675.6675571687975 599.3246763397204, 676.9058564134642 620.3347310381931, 673.0513670503806 633.6658056235452 M674.7293820175825 581.3122330910053 C674.5624601476687 599.8544207480935, 674.97270407434 618.0949515324536, 674.4677385408602 632.7109112570032 M675.7125369034806 633.7826829537779 C660.0422708768998 633.3860238325612, 639.7658762030402 629.7738034940194, 615.3601375595287 631.0222117113412 M675.5196326669229 631.8971023977264 C658.0531124233079 631.2091096595213, 640.384619313359 632.3424327582613, 616.6995224867978 632.1328984134898 M616.4794743510699 630.8553458358357 C617.2505719353019 620.9531825301236, 615.8674843408596 610.0641329658772, 617.277746354845 582.7566265429457 M617.1977160848058 632.5554877917763 C616.725014933627 619.5731304792553, 618.2405838878058 607.7058471895559, 617.5600220581639 581.2287919908237" stroke="rgb(0, 0, 0)" stroke-width="1" fill="none"/></g><text x="646" y="612" fill="rgb(150, 100, 28)" text-anchor="middle" font-family="Consolas, Courier" font-size="20px">id82</text><g><path d="M673.9568537524053 581.1472113014223 C690.500733044695 581.9214755354612, 702.5283913304114 582.7400490737257, 732.1072754504053 580.2918996107371 M674.2600890760898 581.2831072331376 C686.4000676885842 581.2252060899831, 700.3966564024713 580.9722936033515, 732.0274407549326 581.3166771048383 M732.5103207419555 582.8003740751184 C731.5986891712075 599.6481863175966, 734.3546440481821 613.3897794794831, 731.4051441503506 631.9190780905537 M732.5918334840316 581.9466286554351 C733.0396471585503 595.5353499156234, 732.2745156622841 609.9215614768914, 733.551629760924 631.6928223918959 M731.0945582665569 633.2340908286859 C710.4778525454924 632.6025437012343, 691.6587178008242 633.0684891137183, 676.4578260807483 630.2865316859975 M732.3026101766328 632.8345332863095 C715.4228922340214 632.6646231489518, 695.4109385141438 631.1569000281125, 674.851557612412 632.4296996078872 M674.5346793959174 630.4627420468092 C675.5964259841236 616.1500718024502, 676.5878725454389 597.3741644908822, 673.2073491432232 582.2096818692811 M675.0107891987846 632.174500634214 C675.3034010921826 614.9602950549317, 675.2731275499497 599.7191583561693, 674.5052622950735 581.8332714238693" stroke="rgb(0, 0, 0)" stroke-width="1" fill="none"/></g><text x="704" y="612" fill="rgb(150, 100, 28)" text-anchor="middle" font-family="Consolas, Courier" font-size="20px">id76</text><text x="622" y="547" fill="rgb(150, 100, 28)" text-anchor="middle" font-family="Consolas, Courier" font-size="20px">id11</text><text x="757" y="547" fill="rgb(27, 14, 139)" text-anchor="middle" font-family="Consolas, Courier" font-size="20px">tuple</text><g><path d="M591.9505680673625 515.7323208952395 C614.0320761541395 516.6601386984787, 633.9879169488704 519.0638074204269, 650.0933819656781 517.9324261015037 M591.4926028701968 517.1280359544347 C611.6606389955583 517.826684593848, 632.0305080670981 517.4660522421202, 651.5782863664995 517.4169856328793 M652.5045260083904 516.1862747308721 C652.5891977709064 530.2328758436681, 650.4476984446562 543.3900739889266, 653.1414146340985 568.4673276899808 M651.9153965984733 516.7566863560406 C650.8836660608068 533.5083040378282, 652.2117987911307 550.9516423995767, 651.0798442136755 567.310657480866 M651.3924500555327 566.9489300492057 C630.0750151564816 565.9129049024274, 612.2295854237782 566.7771978200187, 593.966951942763 565.8398655307568 M652.8800989394955 566.7484916159276 C636.9549295881563 567.9563465031562, 620.7545357098211 567.5969366677111, 591.0664038323471 567.4463873337282 M591.0484627433674 567.0151468001793 C592.8648203724644 550.8638160973961, 592.2470224401044 530.4688302704365, 593.1600430568634 516.4304111904162 M592.8402089185581 567.9130703362408 C592.9077181087644 556.1450593458469, 591.8767121459837 545.2258047790002, 592.9142421089322 516.6579886049545" stroke="rgb(0, 0, 0)" stroke-width="1" fill="none"/></g><g><path d="M721.8862165310497 518.4146203055019 C742.3233313759068 517.6571738441819, 763.1376255250939 517.1620289771653, 792.8168077203713 516.1693174731438 M721.5083598335497 517.1119512466358 C737.265171040898 518.0502002058996, 754.5069347084187 518.1796277386871, 791.0987885468179 516.1912713035184 M793.7969664360817 518.3926531919426 C793.4806656331383 526.2979211165219, 793.7851000965608 536.2978117289322, 791.2758325338298 565.5727050000022 M791.9632579535859 517.0686002305963 C790.9390558395407 536.3768728414145, 791.5898220868445 555.2061002871297, 791.8400556710001 567.0062791928283 M790.1322073834954 567.3515713724205 C766.7812995946772 565.9369481729324, 744.8395716336937 564.6942470787911, 722.1075908297336 566.2916787927261 M791.0446307233645 566.5288690883432 C766.8752733207965 568.1525027690067, 742.8229090229822 568.4076561922604, 722.0655032696916 567.8984798557603 M723.5534831148677 567.2778717535823 C721.9264861483869 551.789587771675, 722.4324324056197 538.8333104561414, 720.61219792787 518.6692291606521 M721.9589217761517 567.4899377264414 C721.8310114310992 553.6722785997015, 722.865392575666 541.1048490810001, 721.4876552516546 516.2699098121839" stroke="rgb(0, 0, 0)" stroke-width="1" fill="none"/></g><g><path d="M816.3020956533989 515.6539919148172 C899.0976323023914 517.9815907667464, 979.8421398487637 515.60172984755, 1066.3557656916805 516.9050929462969 M817.0430794743762 517.6148422070333 C897.0333796868949 518.2616455865278, 978.1429274995328 517.6807986625769, 1066.2871103687453 516.1908851461016 M1064.39146015721 517.0098614258599 C1063.4580632527623 547.109120974316, 1066.7668062589419 579.0907392079217, 1066.235488282672 646.2540648986153 M1066.3633235791033 517.0975567710627 C1066.1610110335546 554.3830014025191, 1067.0595912113827 594.1711241454915, 1065.8041415623447 646.9283857265044 M1064.5227167066123 646.5312926912163 C972.6496754726062 648.3610472785896, 881.3735705820953 646.91340624118, 815.9049582122226 647.5809127870115 M1066.1396726143562 647.7652998835705 C1008.064635504778 646.9502606268223, 950.2514414358958 647.2374637351377, 817.4369052828127 647.7366472780953 M818.8080163347986 648.5717217181531 C816.417020846747 607.6919330882482, 818.1647846555251 568.6766711177322, 815.4649737989139 516.0012550726017 M816.9180434652562 647.5412494794813 C816.750507569057 614.1202948919072, 816.0868502122242 582.1341153365976, 816.6981283432367 516.1792949732275" stroke="rgb(0, 0, 0)" stroke-width="1" fill="none"/></g><g><path d="M841.8084784723184 580.2252386350141 C860.3988157153331 582.3121391630267, 879.2554606965516 582.0813552451758, 898.0116944807136 582.2906523005208 M841.1304881118438 582.3903657371635 C857.5397787755986 582.3621265246039, 872.6678565886536 582.4433685121519, 899.3534460053555 581.4100929702204 M898.7275974097034 582.659389774314 C898.7090537869893 601.9659862503605, 898.2711895315547 618.2546623567209, 900.451117942736 631.0493968689017 M900.3480482092143 582.0445678468585 C900.342787244446 597.1215160050549, 899.6797625713867 613.3483559706607, 900.9909823253839 632.821960134069 M901.6537974767199 630.9810190036042 C876.8524639127218 629.9165786520115, 856.2690520750153 630.961633179248, 840.6593437358767 630.501696742086 M900.2030836378306 631.3075691874158 C888.4276205816245 630.8328681667294, 875.6017079196478 631.0886926570645, 842.6624914006364 631.4338544996913 M841.6278633153714 630.2565125032097 C843.9240867573722 610.5996714326232, 840.9404070651975 592.6519595355104, 843.7475792336247 583.595451641698 M841.3958489814879 631.1398351532907 C842.2400124535841 612.3222944437861, 840.9620757945588 592.3230732753663, 842.0938631773265 582.7438539119123" stroke="rgb(0, 0, 0)" stroke-width="1" fill="none"/></g><text x="871" y="612" fill="rgb(150, 100, 28)" text-anchor="middle" font-family="Consolas, Courier" font-size="20px">id36</text><g><path d="M913.1176655494921 580.8666469496758 C927.2173168086962 581.6300431816995, 941.7144492982195 583.2891909448861, 969.9165317233317 580.2846625956798 M913.0784147856721 582.5428384530544 C926.7650677622499 581.486876650669, 942.1407930569496 581.8300554204518, 971.449511292153 582.5896993437316 M971.5077013434151 583.6899489990608 C972.5408478807054 603.1746810290199, 971.9034220035038 620.9727678303245, 969.399245444737 633.2624785672992 M970.4510405899839 581.5710152896286 C969.7948539098794 601.4773964675113, 970.4617060885644 620.9112738769919, 969.7371787766498 632.3704715192522 M970.5895489840527 630.8860343601201 C959.4149478703 632.2254485015022, 948.250668612984 633.4658022275463, 913.5755557000111 633.3689207445806 M971.2489952197103 632.719039280576 C956.939381531994 632.2815081677877, 944.8858902030565 632.0785712035737, 913.3646551824667 631.4818059080951 M914.117410949687 630.2312695520984 C910.9523587310904 610.1453169565957, 910.5300041840513 592.6901540036108, 914.1692220289578 583.4400613668067 M913.3542822712187 632.2559588620602 C913.3815930708129 620.3626171332274, 912.6687202706775 610.7741750385625, 912.1596654231337 581.2718856288944" stroke="rgb(0, 0, 0)" stroke-width="1" fill="none"/></g><text x="941.5" y="612" fill="rgb(150, 100, 28)" text-anchor="middle" font-family="Consolas, Courier" font-size="20px">id49</text><text x="906.25" y="612" fill="rgb(0, 0, 0)" text-anchor="middle" font-family="Consolas, Courier" font-size="20px">,</text><g><path d="M983.9465746207218 580.4199859310686 C997.6905012515491 583.2085682744229, 1009.0977651138369 580.2705096870455, 1041.1126965177305 581.3161358271418 M983.7378500044265 582.3404153853517 C997.7525474184389 580.7585520661602, 1011.6827505368431 581.9958300009878, 1041.667902052016 582.2837211614077 M1042.9432628004145 580.9597866443113 C1040.0052984688152 603.0914530767916, 1042.586976924536 621.5692529638952, 1041.6685164674036 632.8933781450378 M1040.2680123474395 582.0616836346727 C1040.7189773679006 598.0800364435702, 1040.4732511218094 615.3399647455461, 1041.080960536869 632.0796127210847 M1040.1912137903307 633.115282580004 C1018.9863253369499 630.2948404969032, 995.9418916647309 632.3961902759823, 983.7213221229995 633.6066087967369 M1041.170450912101 632.6630016192373 C1025.2053750010837 631.9346084965337, 1008.3451444298839 631.547689333167, 983.0540739915064 632.8564829605723 M984.3296702874401 631.831173578619 C981.8384825262468 619.2534884226184, 983.9500747237001 605.0552324660003, 983.2655487260087 580.5583653017525 M983.2606947987314 631.4907318991475 C982.6780432170324 612.7668986240285, 981.8394552369596 593.1812189234482, 982.0983913928452 582.1159586699624" stroke="rgb(0, 0, 0)" stroke-width="1" fill="none"/></g><text x="1012" y="612" fill="rgb(150, 100, 28)" text-anchor="middle" font-family="Consolas, Courier" font-size="20px">id64</text><text x="976.75" y="612" fill="rgb(0, 0, 0)" text-anchor="middle" font-family="Consolas, Courier" font-size="20px">,</text><text x="847" y="547" fill="rgb(150, 100, 28)" text-anchor="middle" font-family="Consolas, Courier" font-size="20px">id90</text><text x="1036" y="547" fill="rgb(27, 14, 139)" text-anchor="middle" font-family="Consolas, Courier" font-size="20px">set</text><g><path d="M817.8012330539362 516.9669721433643 C840.4568397096908 516.2483914464518, 862.6688940307165 518.5883172506401, 875.0079767838791 518.2822017841514 M817.8672736023615 516.7307186440968 C829.9556757967578 515.9835349037247, 843.8373028095987 517.4697209859767, 877.2271690009878 516.8594985499011 M875.3360175323487 518.060692569918 C878.4886078695716 527.4517368822106, 877.8891989038789 540.1086875680437, 877.9604684928879 568.2838373359439 M876.9065393534283 516.5533935478975 C876.9136865710605 535.3308406301369, 877.231400311406 552.1980301876162, 876.980928681376 566.8127969980952 M876.7595037834615 568.4212713952905 C865.7872387180226 565.2760759550193, 849.7686337690725 565.1876250131218, 815.0245786065384 568.5867452255031 M877.2484289669939 566.984113228981 C859.7022915073878 566.755846652492, 841.5207812588646 566.9107353128036, 816.4137576383608 567.4391149937402 M817.726577274815 566.1313914485762 C816.1112270182324 554.713269044409, 816.239502853818 542.02966105273, 816.7989834990261 516.000922590936 M816.088413246499 566.9524146201189 C818.1718691378453 555.4506276296261, 816.9923429623551 541.6358666789341, 817.9767104724631 516.4158503572052" stroke="rgb(0, 0, 0)" stroke-width="1" fill="none"/></g><g><path d="M1004.2432557252704 515.1974139162757 C1019.9290056908629 514.7993754684223, 1034.6028282025427 515.8237368039469, 1064.8117403874926 515.9444262183576 M1006.22544202656 516.9375835315373 C1021.6331506863831 516.6855368748195, 1039.1220396020708 516.9452663871293, 1066.073356026423 516.3125503643112 M1066.1683898100616 515.9972359794618 C1067.3019400089056 535.9856946107152, 1067.6527363070934 554.6933640642791, 1066.5880869353248 567.1105569653806 M1066.341897844311 516.933730378107 C1065.9402697460982 536.0454809976543, 1065.3989066493284 557.6924952903206, 1066.6227403872049 567.1977104037447 M1065.4333141052648 567.9749310794323 C1047.6295567804773 565.6889303659756, 1029.0202053114028 566.6857028738117, 1005.0635520173133 566.7910267370899 M1065.2119530910934 566.7111219978291 C1052.8986801984615 567.3791035097605, 1039.166669258035 567.936154080755, 1006.9603754566796 566.9590428860648 M1004.1561982628638 566.991823579849 C1006.682492320173 557.1379759471631, 1006.7427544023884 542.685224104057, 1004.6818483702318 517.2528037998541 M1005.9068052090372 567.9250406784383 C1005.7621756515011 556.5828680766688, 1005.2921167368046 544.6978247207154, 1006.5552463393494 516.7030595593482" stroke="rgb(0, 0, 0)" stroke-width="1" fill="none"/></g><text x="829.5" y="612" fill="rgb(0, 0, 0)" text-anchor="middle" font-family="Consolas, Courier" font-size="20px">{</text><text x="1053.5" y="612" fill="rgb(0, 0, 0)" text-anchor="middle" font-family="Consolas, Courier" font-size="20px">}</text></svg>