<svg width="1300" height="1100" xmlns="http://www.w3.org/2000/svg"><g><path d="M23.169548833664717 201.73076436860921 C76.69468221171668 200.4846701867176, 132.6783961183919 200.97435028128436, 224.01044153239508 200.66867791661912 M25.66229342676812 199.50459644571248 C77.73521770661661 199.45920341667414, 132.20474846195393 199.5138005477613, 223.91734925598362 200.42855748629475 M222.54235551941176 199.59595058347753 C223.22210322602382 348.9205080322692, 223.8842110687488 497.7567023865334, 223.30701931016654 649.574790573201 M222.9296678465919 200.1487752510385 C224.38374492868564 364.6748772376123, 223.93160404716642 528.3487724957015, 223.1102400917121 649.7565539994035 M222.05496318812257 651.4464839817231 C160.47154996644764 649.713940795333, 94.46869078476566 650.1560657723395, 26.907471810034302 651.2809608501198 M223.09659772049912 649.122159547964 C179.93717914265912 650.7688792920396, 137.00138237369066 650.9868622795581, 25.073633905490134 649.8943653439162 M25.769343646703746 649.1394688486055 C23.88862198100068 511.0743234397104, 24.437048676337835 373.14941456981865, 25.888548775913776 199.2790582343779 M25.289913230095333 649.9828235236716 C25.860518974406958 525.9363727530284, 25.722334246553974 401.17620651469224, 24.6315801227841 200.10666321574254" stroke="rgb(0, 0, 0)" stroke-width="1" fill="none"/></g><g><path d="M148.880066314411 275.466978293548 C167.0196175240182 276.91621210764504, 186.5431773010688 273.20515270949227, 206.73108437587746 276.34282611949135 M148.70315443284022 275.24520362848136 C164.8580383860433 273.9927594665423, 182.96293260019831 274.265674035448, 205.11166802551955 275.0675105563451 M207.20622906285288 276.9178417801542 C207.0464223545278 294.7352881408488, 205.72760551331712 310.8832299648958, 205.6068201413307 324.158899327028 M205.4826532651522 274.53147252766024 C206.43421286233544 284.9928773495424, 205.1865536104191 295.06261503839227, 205.11579373264163 325.17979753149785 M205.70893026349376 324.87636811456156 C190.91429312712236 323.23492200851376, 177.75117176136 325.52017468361333, 146.24510843194486 323.10977825648854 M205.70100876217234 325.18583183395253 C186.59120853457986 325.69986377974124, 169.25164440598206 325.57923102989963, 148.8472816579347 325.03884718917556 M148.74557258732526 324.11017110577757 C147.97171107341356 314.73628265472945, 147.73802136812472 303.656390298067, 149.9291739425848 273.89572204011057 M148.91642052463132 324.1746094584904 C148.43242887668725 315.73396246086475, 147.96138118403528 305.7464074342136, 147.95429299508172 274.75366591719535" stroke="rgb(0, 0, 0)" stroke-width="1" fill="none"/></g><text x="50" y="305" fill="rgb(0, 0, 0)" text-anchor="begin" font-family="Consolas, Courier" font-size="20px">lst1</text><text x="177" y="305" fill="rgb(150, 100, 28)" text-anchor="middle" font-family="Consolas, Courier" font-size="20px">id82</text><g><path d="M149.19740327064017 350.98356541922766 C169.4548046587633 351.79702675702356, 193.36530769010767 350.7385197559247, 207.09591382161491 350.0725645569972 M148.3297520815087 350.69252037614655 C166.67886252957854 350.91753819753717, 183.95905915964062 349.66735641020773, 205.4387452286698 350.4046492140555 M205.67033952555903 348.0017865891995 C205.77750841835388 370.44253312729705, 206.0199954234122 386.89437416735694, 206.00062237245436 399.51478808374156 M205.62880188727908 350.7203513037628 C206.2449350671039 369.33350829079444, 205.45972694341296 389.2369363830387, 206.02330223299901 400.9739566478804 M206.81604725266052 398.96303120853395 C186.49679156098702 399.4099075958224, 167.6859226526288 398.28654976892534, 148.76611666114016 401.07463617790967 M206.30928058513524 400.2098126665543 C188.00591049142946 400.5759982575267, 170.01260189204837 399.21654237220463, 148.83106265223572 399.18386285198767 M148.4284189695024 400.2920765355944 C147.38810117464524 387.325265250059, 149.4391348907377 375.39945265691017, 146.59295063259944 349.5009065119019 M148.5599778528266 399.93868145148707 C147.42580998254815 385.7833483656356, 148.64863007505497 371.25224942147264, 147.6313099203341 349.3550894676733" stroke="rgb(0, 0, 0)" stroke-width="1" fill="none"/></g><text x="50" y="380" fill="rgb(0, 0, 0)" text-anchor="begin" font-family="Consolas, Courier" font-size="20px">lst2</text><text x="177" y="380" fill="rgb(150, 100, 28)" text-anchor="middle" font-family="Consolas, Courier" font-size="20px">id84</text><g><path d="M147.21219487224548 424.4477508675653 C166.2701109390317 426.7520783747056, 184.1229680237484 424.1278319303223, 207.66905854390413 424.09602497962385 M148.50165689680352 425.23947997955304 C164.4355602191789 425.41107162046103, 180.63059064821726 424.52895689287544, 205.08170951813898 425.9741465434811 M205.90503421286897 423.8506465877225 C205.41833920214907 439.5264770653795, 204.48824474230778 451.5966456288653, 206.2151367416197 476.3555424386384 M206.82748194121658 425.2840452685124 C205.85069753660858 437.2443491506415, 206.34952908719484 449.4139463632654, 205.25255206467548 475.78524662053974 M204.37856587537914 476.41612795350346 C189.05197846214315 472.832670477546, 173.48410223512127 475.00609467304827, 148.07896483158345 473.80463277407625 M205.6826543930423 474.2942813025075 C186.75806647796693 475.1153975382722, 168.38364869699438 474.35044778217747, 147.4409955337439 475.8366745949704 M147.58488961809712 474.73798767748923 C148.15124470972893 460.66131279476923, 147.48839912879538 446.63827583582594, 147.33297583940006 425.8504753420638 M148.02131279670112 474.1431987706613 C147.54384618068352 462.25691338730763, 148.80394538080265 450.0604232550369, 148.6116144665864 425.1158355066349" stroke="rgb(0, 0, 0)" stroke-width="1" fill="none"/></g><text x="50" y="455" fill="rgb(0, 0, 0)" text-anchor="begin" font-family="Consolas, Courier" font-size="20px">p</text><text x="177" y="455" fill="rgb(150, 100, 28)" text-anchor="middle" font-family="Consolas, Courier" font-size="20px">id99</text><g><path d="M146.24318659702055 500.71597963951103 C164.62061861441344 499.28171571125904, 182.65617832268202 501.84608469016484, 205.77078726237943 499.1354583795438 M147.82482409243661 500.9986209864405 C165.66385267405045 499.8553178449894, 183.3823814968333 500.6051878658002, 205.5535015431604 500.32308940564934 M207.81377616479247 501.6616455678167 C205.2771946529673 519.532912300097, 206.0237106388396 535.0271934529791, 207.53638171682226 549.9476944867347 M206.7132238542122 499.8938445367861 C205.92419169955707 511.4376737821734, 205.58287974205516 522.8200797865863, 206.32457575767756 549.1759126517445 M204.38166166395283 549.1927624342342 C185.38849170658744 550.2333200114468, 164.18383358800622 551.4153057102804, 146.43366265383145 549.6246917649081 M206.4344614139417 550.9558026419862 C191.98566108313298 550.5001159953194, 178.1994723714843 550.5567792669459, 147.52774623261226 549.9740988068754 M147.89229904610758 549.3046166020548 C148.24470236256525 534.6340330353504, 149.6189173120621 521.8444888937782, 149.2766268889222 498.23169820210563 M148.5110946405987 550.1701093235051 C148.31911410347556 538.4663787681764, 147.8930481493168 528.543589161026, 148.72991441431992 499.3181632727014" stroke="rgb(0, 0, 0)" stroke-width="1" fill="none"/></g><text x="50" y="530" fill="rgb(0, 0, 0)" text-anchor="begin" font-family="Consolas, Courier" font-size="20px">d</text><text x="177" y="530" fill="rgb(150, 100, 28)" text-anchor="middle" font-family="Consolas, Courier" font-size="20px">id10</text><g><path d="M149.96508497616597 573.5515475355686 C163.319193498822 572.8731168189205, 178.90488448286175 575.0710936523665, 204.3418723990418 574.0866769823081 M147.49541227832302 575.5914173632938 C164.81688703222005 575.6439765304796, 180.1551571125862 575.1660510497271, 205.24327487470433 575.3276450756355 M205.4738786528563 573.6324456520217 C204.29464649910193 585.9584294593396, 206.21739335099127 597.6684002024871, 205.63463830654032 625.523788434101 M206.95135126355484 575.2665999842594 C205.56751601642833 590.0340838895386, 205.631419251662 606.0768733814689, 205.75337059290416 625.7206687161145 M207.09779326875096 625.8290282952681 C181.5887519992456 623.5953029325038, 160.6774643720023 626.2410080112951, 148.2520279446286 624.5608110802144 M206.0556829033356 625.827572057882 C185.89004417084243 625.4472824624147, 167.74769611175017 624.9152712306884, 148.64192296140786 625.7403281748054 M149.0833282828642 625.3981301875153 C148.54845736099236 610.8347629869397, 148.93469062856366 599.0741307400136, 146.7308620492059 576.8159988627905 M147.8813421655414 625.4720167925442 C148.31064419547639 605.98443177977, 148.17627427485073 589.098717518517, 147.59245660166755 575.411506893821" stroke="rgb(0, 0, 0)" stroke-width="1" fill="none"/></g><text x="50" y="605" fill="rgb(0, 0, 0)" text-anchor="begin" font-family="Consolas, Courier" font-size="20px">t</text><text x="177" y="605" fill="rgb(150, 100, 28)" text-anchor="middle" font-family="Consolas, Courier" font-size="20px">id11</text><g><path d="M24.134744024980915 201.05330893401973 C63.21481520294972 199.609039951681, 104.97875394927618 201.80062676398433, 132.5857165759616 198.58798322415745 M25.21251881684652 200.55205693317174 C48.99963096228042 199.15728214521016, 74.03904383720969 199.435305244761, 131.9563083182819 199.628022952037 M130.7644612079706 198.08737669915945 C132.66340483245781 210.4354526277652, 130.67731280013757 224.54723358755953, 129.46423662478503 250.34473472916696 M131.92049045660306 199.83287373493835 C130.9678739113496 210.50632304068486, 131.34850184470997 222.1127328878889, 130.2104369274069 249.0513602777131 M132.6513464067909 250.43666582863142 C100.17571235498738 250.91605086745716, 70.94278930055788 249.32087919156712, 26.46489858498427 248.3182132852219 M131.28525336944008 249.4267763649207 C102.07760213938593 249.9972781551911, 75.4526841275405 248.54316853037096, 24.96846738969558 250.5491027191079 M23.506747165063405 249.73241793604834 C27.27362895572163 239.7774356720931, 24.62685307256196 225.42552885498307, 24.19738302518078 198.83349813527096 M25.31622608426062 249.48767108617523 C24.606013003343396 232.84616635379834, 25.715527218539922 217.99883278697465, 24.62079382905741 199.41003103879905" stroke="rgb(0, 0, 0)" stroke-width="1" fill="none"/></g><text x="78" y="230" fill="rgb(0, 0, 0)" text-anchor="middle" font-family="Consolas, Courier" font-size="20px">__main__</text><g><path d="M351.20434503920484 10.78258369154931 C429.1395674702558 9.38231169028678, 509.3347952796929 11.542615262828392, 549.2149419365941 11.107255888743527 M349.4660579210657 10.026394023121458 C401.7420149512182 11.445477402797293, 454.5588664719415 11.89179591355278, 547.7842128686775 9.723616563593367 M549.1917320209822 10.608876962343617 C547.3192184716828 64.91659733203605, 547.6612463800014 117.63005296683356, 546.7951353165569 235.5790425170966 M548.5658873543455 9.46435329813162 C549.3996461985752 66.21767884798295, 550.2845147296232 122.28180194960402, 547.9635326388385 235.21505316903708 M546.7688164417219 234.3959693187733 C491.6729629299238 234.82802310591345, 439.07456831426293 235.13882549269212, 350.97104932118293 233.68513860887506 M547.642806047479 234.244398172039 C488.75044012138545 233.9687887876975, 431.0837186832556 233.86834459515876, 350.4441809814164 235.46092939449483 M350.8221937754324 236.1999037173822 C350.4757773608618 155.80986937398487, 351.82556334492074 74.71564842501517, 348.4098631625993 10.185024870524915 M349.55445697282954 234.2072374656529 C349.82766530517836 186.5961651823589, 349.17620232008085 138.06319644784958, 350.08208515564246 10.06976796096559" stroke="rgb(0, 0, 0)" stroke-width="1" fill="none"/></g><g><path d="M472.0963995976542 85.83995247636109 C488.80684291421494 84.87129705360374, 505.7783659211328 85.38461415802193, 529.5186080156445 83.52510916405592 M472.41740479280685 84.84778797682081 C494.81954797850227 83.6644199266222, 515.6211542670601 84.60661105807145, 530.6412627086395 84.3578095420883 M529.7694623047578 83.60459786196974 C530.1714547515095 101.4955002237008, 529.6624516145596 120.07540816134798, 529.1786117589014 135.16963559196077 M530.6351404737742 85.03055090216829 C530.9687767143106 98.43366154941906, 531.9677866775024 111.7393704992101, 531.3482912989936 134.36562854597557 M529.7567610048918 133.41351691564017 C512.542037803402 133.60899376241971, 496.91561808163635 137.39887100391078, 473.125792122305 134.42152602374568 M531.1245253034393 135.75429291970002 C513.2938953888449 136.02507695470973, 494.8812694632372 135.33120704044134, 472.67362209109683 135.83081879989427 M472.42645832162106 136.7943705706906 C471.9956279640423 125.62054522359699, 474.12663725347625 112.80739928730705, 473.71854115009717 83.32428207422893 M473.60656965976034 134.08890920048464 C473.3531561498392 123.64918344290804, 473.7242199270208 113.00534638955622, 472.79424745164863 84.64652225813599" stroke="rgb(0, 0, 0)" stroke-width="1" fill="none"/></g><text x="375" y="115" fill="rgb(0, 0, 0)" text-anchor="begin" font-family="Consolas, Courier" font-size="20px">age</text><text x="502" y="115" fill="rgb(150, 100, 28)" text-anchor="middle" font-family="Consolas, Courier" font-size="20px">id12</text><g><path d="M471.8049429737166 159.05121933988443 C496.2152799948767 159.94706409589048, 516.459724254959 158.3998885925359, 532.1584084233965 159.29398758894533 M472.43272293200243 160.05977487788823 C491.4261063823748 159.74781437133188, 508.04810311400774 160.75978929103064, 531.0698176304836 160.2438847808981 M530.4739006445728 158.53164206158755 C530.9455337030336 174.42844490809802, 532.1291118174213 187.80512416570716, 530.9298785354737 210.39667773514273 M531.3561555151114 160.14667646973686 C531.8000598178929 174.98927078267783, 531.2054987920965 188.236320690199, 530.3708796801274 210.84400708527565 M529.675923017139 209.55127410332133 C515.2873257293526 210.12157684485422, 497.344871173684 208.73666310251863, 474.38190777367026 208.13434732588334 M531.4274894704155 209.5651402562493 C516.9714129017713 210.28784315583147, 500.42728365677743 209.72128105982372, 472.2026736944182 210.5148934862396 M472.4598318171367 211.17615045343672 C472.34503411038423 195.2763272541875, 471.99902247410876 178.59155645641414, 471.07985160628533 158.73913602036356 M473.93111825157325 209.35081093685747 C471.8987759312177 195.50607271037424, 473.3732268428342 180.86413383060466, 472.2836742662483 159.79050964670148" stroke="rgb(0, 0, 0)" stroke-width="1" fill="none"/></g><text x="375" y="190" fill="rgb(0, 0, 0)" text-anchor="begin" font-family="Consolas, Courier" font-size="20px">name</text><text x="502" y="190" fill="rgb(150, 100, 28)" text-anchor="middle" font-family="Consolas, Courier" font-size="20px">id17</text><text x="380" y="40" fill="rgb(150, 100, 28)" text-anchor="middle" font-family="Consolas, Courier" font-size="20px">id99</text><text x="507" y="40" fill="rgb(27, 14, 139)" text-anchor="middle" font-family="Consolas, Courier" font-size="20px">Person</text><g><path d="M351.8472512496282 8.913520251605796 C371.7955238856018 9.552064212135377, 394.5086822902012 9.579098108609987, 411.0969576188782 11.07007278059829 M350.2735434642427 9.26556117552379 C362.85744790270167 9.647441263201365, 377.22392903473605 9.519508086618403, 410.8243942823616 10.885658600910437 M411.60829948992165 9.382579259071392 C412.44098378996136 22.506070109541213, 411.29909397055343 30.929072536309086, 411.1423931825044 60.02274755980623 M409.0272685764668 9.911441306883955 C409.51190722445307 23.92318276642124, 410.6272547178696 39.74482456637948, 409.5339095095287 59.15668824991402 M408.8729824477709 60.74986845974029 C384.88327247183855 59.79716211263534, 363.55967646223485 61.113390137487876, 348.0569149676895 61.59314838622251 M409.83663388546125 60.30749775520922 C393.8032312099281 59.45047633623933, 379.4648331426536 61.15830936601347, 349.9531710306673 59.330619704709456 M350.3937503126548 58.792031462809085 C349.93475399112293 47.589957018673374, 351.58413590639526 30.934443071845156, 349.21849227301914 11.886030990101146 M350.20611210634837 60.860575052638644 C350.38757150659313 42.2577562376611, 349.00852266912455 24.98579553907149, 350.6910248838033 9.283797595829748" stroke="rgb(0, 0, 0)" stroke-width="1" fill="none"/></g><g><path d="M465.6929365243532 8.167192991799377 C490.9359454742197 10.153542052007975, 517.4141087261208 8.369672976874678, 549.3229084735383 9.543184108655717 M466.4956555392528 9.657380386652129 C491.09727593545426 9.365765588903432, 518.2852799388927 8.978532953188266, 547.6750379875368 9.707153612583932 M548.9477315809016 10.348126154665021 C549.9774309977753 29.630204248478798, 549.0902193060422 49.812631812683776, 549.2048595395812 59.8802267867036 M548.1990488802832 9.181356267174094 C548.295787837341 25.53142021725922, 548.6497839000247 42.760069614020715, 548.100665985486 60.36592689179356 M549.6971583943415 58.25150168636116 C523.4874739995428 59.83049122098309, 498.4468141290766 59.480948815147784, 464.20928796539704 58.1762849147635 M547.9871624708126 60.461503777488616 C527.910648222467 60.20247421505686, 505.2667187148354 60.65004646714607, 466.07814071294825 60.31314739307074 M466.58929001923696 60.71397107083834 C467.3817473824238 50.46009519272615, 464.8298308462292 38.299520497209265, 466.9602736565255 10.832514352804168 M465.61458453626886 59.23414052254929 C465.082462602378 41.19007634493253, 465.22144175914354 20.270311487391375, 465.5666125525272 10.584782563864731" stroke="rgb(0, 0, 0)" stroke-width="1" fill="none"/></g><g><path d="M349.7153731867653 351.3905420062359 C456.79749720215085 349.7690821148755, 562.2637443083237 347.3964604956961, 632.6618404755923 349.280668009099 M349.6847719056143 350.4280013265187 C448.7979101127393 349.9840942464164, 547.753141425697 350.4273787178248, 632.7104839321871 349.7627229822492 M632.0879801135238 349.57977800081665 C630.6524714940537 396.67459432114174, 631.7334988639997 442.02767730341606, 630.3586114771477 479.50634793077785 M632.9245134500618 350.29205366321645 C631.6864205663634 399.6687223803369, 630.0291497388729 450.1384693353375, 632.6948158363831 479.124335233732 M632.1799325353703 480.3041244017957 C535.3916653738029 480.98528108525113, 437.384215051884 481.0368657501263, 348.5887315257868 480.6965216697568 M632.4023007843208 480.4325684060667 C552.4306084728337 481.47722455777176, 471.4794181340974 481.8038284401613, 349.48764338964315 480.5783861093556 M349.37085610253274 480.11356953109834 C349.13254947179826 445.5755323507791, 348.7943141042452 407.22086772049283, 350.0539071886599 349.4010867809294 M350.57922820785507 480.3519259888694 C351.85579966951883 434.3397712036892, 351.33365808054236 388.9000095838811, 350.5089182321894 349.4616626379349" stroke="rgb(0, 0, 0)" stroke-width="1" fill="none"/></g><g><path d="M374.88784692479527 413.86934536573006 C397.314950832748 415.25858637858244, 416.998256349082 414.3946892702288, 434.0547484364024 414.2691949203731 M374.7163329375026 414.9431108958375 C394.9845523432202 415.0631664998, 415.7406759172842 414.9607456253406, 432.87747260210944 415.5425622595464 M433.0086016864847 416.81092713956684 C434.84640815375496 428.0704802209892, 434.44918409658044 440.7719298722757, 434.92590143795326 465.70660042196425 M432.9355651445219 415.1644628395033 C432.5969009514993 434.70046103898517, 433.53567800846827 453.17883962339107, 432.4317650022425 465.74159635599506 M432.3465496797872 465.7965372267283 C414.05922817326024 465.7272926166391, 398.99211100860504 464.7656648239778, 375.6200540652759 466.11566824016666 M433.4160581166333 464.44925623685003 C412.2556529893224 465.09669237701473, 390.4851410777829 465.36178175413283, 375.5424002947886 464.6402936217053 M376.0956759556967 466.4478982724121 C374.14746708240835 456.8763170933921, 377.03677554725596 444.0591194319494, 373.90573911456636 416.0889123478196 M375.0257641295424 464.2489998682224 C375.4222137870561 447.8138056595868, 374.8650249518213 428.6846571021073, 374.03793013213794 415.7254874344303" stroke="rgb(0, 0, 0)" stroke-width="1" fill="none"/></g><text x="404" y="445" fill="rgb(150, 100, 28)" text-anchor="middle" font-family="Consolas, Courier" font-size="20px">id19</text><g><path d="M431.1396020283287 413.26572928989054 C448.34709238057565 415.6968768373638, 466.19986604339397 413.30351543649107, 490.764538367466 415.71808718953207 M433.0572613718574 415.2308416560005 C454.36415357649935 414.64616166019243, 476.19108088172413 415.3851447198617, 490.2704888353638 415.2818407804678 M489.0097220149327 413.31143641345244 C492.6985042019279 432.6699166036951, 490.9126294969426 449.1041423489466, 491.7895300329085 465.11215906501144 M490.1759339411428 415.1446101206307 C491.5160807987564 426.9923177870895, 489.8957727954913 436.6149617651203, 491.34940163540927 465.4563894402672 M489.7759654368955 463.3690861797483 C469.1522341134246 465.6005518180403, 449.21110206520507 466.07381767168624, 431.15610011926043 466.17614525073367 M491.2145119169137 465.1303908260588 C475.35171940420037 466.2765671306394, 459.8546348320416 465.43671699460305, 432.98375675545486 464.9248517810467 M433.09658681804234 466.90170084426614 C433.6042341498053 445.79617255666875, 431.09212742200714 424.39251833974913, 434.7943620135547 415.1185333138537 M433.3618599353432 465.6455584273015 C432.8250614146415 451.512998785078, 433.9982709095172 438.8057317950165, 433.27306525254704 414.0378566827747" stroke="rgb(0, 0, 0)" stroke-width="1" fill="none"/></g><text x="462" y="445" fill="rgb(150, 100, 28)" text-anchor="middle" font-family="Consolas, Courier" font-size="20px">id43</text><g><path d="M490.2965639795059 414.6335275627926 C510.596881635886 416.5570845623893, 534.0607724986705 413.1267792738442, 548.7620661348911 413.48754667856673 M490.94335592674173 414.2646534656777 C503.5476201325023 414.24622952945424, 517.3580959417886 414.3967736864507, 549.6783478149549 415.4544626420819 M549.1963087630204 415.9811269719131 C550.2553271923153 432.88423035424086, 549.1124396653985 448.94241059558436, 548.8462753183239 464.9642434577689 M549.7078335565342 414.288975842523 C548.7858387120235 432.1971875587937, 549.0409537524005 449.8355365424023, 548.8072831582513 465.0829026956261 M547.7344808081689 463.67197773833334 C533.1596867433992 464.925742083803, 514.5642052040602 464.84122598176697, 489.2875551262367 465.6605285447933 M548.778127301479 464.7578628181587 C531.6687359935792 463.9057815497899, 514.4240992712453 463.52390551625916, 491.62747579067053 464.711835993801 M490.14188698326524 466.04801593526145 C488.60103103718177 445.84133352268077, 492.5082533765163 426.5340947794368, 489.15850535508514 415.1181100299822 M490.4689199642416 465.0390938311925 C491.20148151667024 446.94916361674325, 491.028915174363 430.7703112222254, 491.2510098046979 414.79943758396075" stroke="rgb(0, 0, 0)" stroke-width="1" fill="none"/></g><text x="520" y="445" fill="rgb(150, 100, 28)" text-anchor="middle" font-family="Consolas, Courier" font-size="20px">id28</text><g><path d="M549.1602544074467 413.3898107477238 C566.2756624111366 415.11690249094755, 583.7788484433554 416.30342239277576, 605.3306438724167 413.7640523053275 M548.874129733687 414.1950315137716 C562.8189423478799 414.8301743434799, 577.5695557291908 415.76806961349615, 606.5785497710204 414.1278261572071 M606.8471511854248 413.558089357174 C606.2620656764975 430.63929704459485, 607.515400741882 450.84926650190425, 605.3703868184103 463.6368626780552 M606.308643454649 414.67490269392147 C607.1994079212675 427.695599517122, 606.6555362793986 442.66242926634476, 607.2772992809951 464.67904027717185 M608.6536377246417 464.5061105466615 C595.7409176843533 465.1326942474289, 581.3552453508978 466.0723494532338, 549.9388471347474 464.0466342703559 M606.2063722068737 465.36736645318757 C587.910744904098 464.36907112389446, 570.8581322265644 464.65003657901474, 549.3112852211501 464.48748768557397 M549.5291505038218 466.67108233401433 C550.1066620817887 453.8294417045006, 549.2568979264747 445.35989158575825, 550.6174009279299 414.18713730503845 M548.2509637769091 465.52828267602933 C548.3909352562789 452.233337092448, 549.2265121937876 439.7908725836553, 548.322439056814 414.94138376189125" stroke="rgb(0, 0, 0)" stroke-width="1" fill="none"/></g><text x="578" y="445" fill="rgb(150, 100, 28)" text-anchor="middle" font-family="Consolas, Courier" font-size="20px">id49</text><text x="380" y="380" fill="rgb(150, 100, 28)" text-anchor="middle" font-family="Consolas, Courier" font-size="20px">id82</text><text x="602" y="380" fill="rgb(27, 14, 139)" text-anchor="middle" font-family="Consolas, Courier" font-size="20px">list</text><g><path d="M351.21271981717615 351.3295724359483 C364.2249584669334 350.8521798782132, 378.7990839469159 349.2352671856705, 410.53412354070747 348.47459458383963 M350.62144020696144 350.9935882051757 C368.41668356425424 348.8585417656536, 387.1115892996138 348.817865871465, 409.2036503603724 350.4018859235839 M409.1379754413591 351.2862905791604 C408.9026702661252 368.68506652876425, 409.3941877951088 381.8046478140747, 410.2452363284687 398.6332023900658 M409.95372930264745 349.0090736300575 C410.15004937473685 369.60756509250774, 409.9868713136676 389.76566326639994, 410.72832058205614 399.7117388426156 M410.33287560503646 398.53309894739056 C385.49969727688864 399.02851522455023, 363.05402965263704 399.0818280766613, 349.07354612764857 398.63309011035244 M409.2899070884631 400.29954157058324 C389.7325121705981 399.9040981873781, 371.5661790457133 400.7052837174003, 350.814002967229 400.88330638702905 M348.94666787960506 401.87586827074495 C351.2309604403793 388.8830833733698, 351.4178593750934 376.5152902242244, 351.60282822568297 349.16712711490976 M349.3780488270787 399.24365142215345 C350.6485055667564 388.2743741196798, 349.22000307783065 376.52647600516104, 349.79079500491474 349.9586777651423" stroke="rgb(0, 0, 0)" stroke-width="1" fill="none"/></g><g><path d="M570.9597989894216 349.6382790494977 C595.2033702073417 349.9264406439349, 615.7548118443731 350.88945565120906, 630.1513237728783 350.09025441677124 M571.8432094092227 349.16461515674075 C594.406046525732 350.39715665034015, 618.464810138871 349.17671177680495, 632.669523055721 349.93994539373824 M631.4728652370034 350.64043143033905 C633.2568163884174 362.2431378413717, 634.0580477885488 377.5260579657712, 631.9834718580415 398.4815335510451 M631.3419530497882 349.5114998423756 C631.2936592694864 359.61412000779023, 631.7840826009963 369.45726942744574, 632.5445310468895 399.8743823812246 M630.75261547176 401.1037517367685 C612.5358547593524 401.28746301817023, 589.8350842310754 399.1946383939427, 570.6707752519171 401.331743628039 M632.1074212819832 400.6745101693037 C608.8164889179162 400.5972269805241, 585.5831752967798 400.92555057026414, 572.578573607257 400.2666611369648 M570.1043335667168 401.40182147974593 C572.7571444009961 382.3189143486806, 572.5557176948735 360.23011055386155, 570.7922829301539 350.9285247659016 M571.0592495538675 399.8872994561635 C572.716649118346 384.4410257555004, 571.6670443152701 368.88831849450827, 572.9848359150023 350.594166004056" stroke="rgb(0, 0, 0)" stroke-width="1" fill="none"/></g><g><path d="M350.20580276732335 601.3837897287901 C431.49147193013926 602.332684765589, 511.6517872717355 601.7462318985558, 631.4753263635806 598.8994150800746 M350.4030916013918 599.4123178704501 C441.31975111561894 598.3064515663965, 531.9608880606839 598.0546917128117, 632.4074570278976 600.4716148300895 M631.8706050820929 598.7978220069695 C631.4618744428349 639.9874295324778, 631.1305558177589 680.8189165882097, 631.1950257181607 749.6768471514496 M631.9420343578597 599.9695925765625 C630.641482939499 639.8077777219828, 631.0402596110105 680.476468770053, 632.9250437782396 749.3914912107781 M633.2262956184186 749.9539900167014 C565.0091493026398 747.7022820564558, 495.49772613164345 748.8508024057086, 351.45116987643195 750.0589806921961 M631.9988994764461 749.7751713390733 C530.9109855253212 749.6570690026346, 428.08406546409566 750.3773874651826, 349.3734751520529 750.2179743858532 M348.83150584433315 751.4384673750083 C351.96214342912936 717.5411885688362, 350.1176075038107 683.6707277035468, 350.822149597635 600.8063751567169 M350.31461812351284 750.3434692790976 C350.17888124306967 718.7370667425378, 350.3505386444751 688.3289234736833, 350.98416386696243 600.514147172267" stroke="rgb(0, 0, 0)" stroke-width="1" fill="none"/></g><g><path d="M375.5327328670987 683.4315397382504 C390.8344387838439 683.2442754450997, 408.87499708767604 686.1066063420012, 434.4028885858742 685.4922955517635 M375.86651275936396 685.2701312164633 C386.1288984452579 685.7693787932834, 398.4246283864326 685.463583406675, 433.1754099035056 684.124743473947 M432.9936444779069 684.4873816719179 C431.63833117557067 700.662088631909, 434.0506490893206 718.5766740026268, 434.4761243379143 734.8373059234041 M433.86934739529636 685.4452443418935 C433.4330079897383 696.5658983918547, 433.97952994414396 709.6861317533678, 432.15250516833345 734.2904307593246 M433.5997115856192 733.7757067150139 C413.1415603801507 735.2001534417027, 392.8927566881438 736.8629188337617, 374.19742970866275 736.3233687329208 M433.5535177764115 735.4530650246041 C415.1213533431878 735.3316243556956, 396.5073403535507 734.8985068126193, 374.2721949216549 735.2326061834817 M373.25334804460886 736.9030827467637 C376.4612085924802 720.190152545248, 376.42994998765994 707.9917059007719, 376.04753418964054 685.3978992191874 M375.06607793465145 734.0935328762563 C373.8818199907788 716.012771575323, 374.1386403818091 696.2426965470705, 374.49060346951774 685.2562226344304" stroke="rgb(0, 0, 0)" stroke-width="1" fill="none"/></g><text x="404" y="715" fill="rgb(150, 100, 28)" text-anchor="middle" font-family="Consolas, Courier" font-size="20px">id32</text><text x="404" y="672.5" fill="rgb(0, 0, 0)" text-anchor="middle" font-family="Consolas, Courier" font-size="20px">0</text><g><path d="M431.45254273291164 685.0378870002203 C454.8096427588145 684.6294276035916, 475.2665907541451 685.6412503743793, 490.19459204172335 684.0089424085606 M433.5847032986819 685.6434429046898 C452.63278557861224 684.9544362984824, 473.79634206578385 685.7234711075473, 491.7947840337068 684.3756569354141 M489.50095505684476 684.2793829031505 C490.9232464273666 704.7836018244201, 492.84354269768437 726.3774678844383, 492.8668798788461 736.1029132738789 M490.8312586647164 685.2929245988115 C490.9370672711894 697.6571638362294, 491.3821231707316 707.9400291068858, 490.2192018390248 735.5685571722205 M491.48878001907025 736.742696524122 C478.87188837523564 735.7881382685623, 464.50558735277355 736.7870984524588, 432.23066194819705 735.5970317002913 M490.7635287695775 735.2051273218168 C477.59332666476666 735.8785968387135, 464.4527562340108 734.7061160261908, 432.0562597148432 735.4877955882389 M433.4581473270575 733.3767743140976 C433.5619386302421 719.2956151075067, 433.43174372706886 704.3940572543869, 434.53020417410613 686.5871700145447 M433.2128008211496 734.2479523112643 C432.8987516203408 718.0984761974744, 432.6199624527694 703.259848940857, 432.55474781089356 685.5218685094624" stroke="rgb(0, 0, 0)" stroke-width="1" fill="none"/></g><text x="462" y="715" fill="rgb(150, 100, 28)" text-anchor="middle" font-family="Consolas, Courier" font-size="20px">id10</text><text x="462" y="672.5" fill="rgb(0, 0, 0)" text-anchor="middle" font-family="Consolas, Courier" font-size="20px">1</text><g><path d="M491.12002413364536 684.5097435357983 C511.7376079494576 685.712390373509, 532.8449344572857 686.5207817085787, 549.0923988066944 684.0554719349238 M491.2576243453231 684.8108288057192 C511.64021874756804 685.0980956505935, 532.2846580060221 685.0826079175881, 548.4523836016058 685.1641401713209 M550.0018408242287 683.9868644130988 C548.9592696935827 700.0592470478454, 548.2317948258255 717.5852434124182, 550.131659532264 733.3259573781351 M549.2111786700758 685.5710768793322 C548.7274040104572 700.007720962841, 548.582073571499 717.2197336445416, 548.1146922017119 734.7373036875321 M550.0224998380064 736.5652955428206 C533.2024934498056 733.468303450528, 521.4135002467034 733.929810273541, 491.30034134406975 736.4726658130678 M549.050898375102 734.7770354817922 C532.6000027524955 734.8736746536717, 516.9855010964719 735.51324856462, 491.49262598645277 734.439762607063 M490.5938589768308 735.0458166186402 C489.14273161287974 723.6075338557328, 492.8689575712367 707.195137991555, 491.008184103843 686.341768006753 M491.21470113731857 734.8554293407208 C492.139399150036 721.2196432220298, 491.19203657338323 708.783280036098, 491.7150347620175 684.1950007242103" stroke="rgb(0, 0, 0)" stroke-width="1" fill="none"/></g><text x="520" y="715" fill="rgb(150, 100, 28)" text-anchor="middle" font-family="Consolas, Courier" font-size="20px">id90</text><text x="520" y="672.5" fill="rgb(0, 0, 0)" text-anchor="middle" font-family="Consolas, Courier" font-size="20px">2</text><g><path d="M547.6509732067344 683.7407460113427 C562.6350509983358 683.4875901140448, 573.1195241806041 683.9039673594693, 605.0380766281928 683.5411674922984 M548.4518174925303 684.1275723919092 C567.2817221737449 685.0012167655702, 585.0908478236486 684.2901874235166, 607.5997934727777 685.791616005985 M607.1605142988044 686.8796131205912 C605.2343978192304 703.1967206041287, 607.9438329459529 723.9253788937918, 608.7476439489315 734.0597352660025 M607.0187447986024 684.3929787550261 C605.9046275706526 701.9304218404898, 607.3012963483275 716.4857453761226, 607.5243061359122 735.9787443728387 M605.724723502752 734.142385683773 C585.4020521805177 734.8849371913517, 565.0806975292633 734.1261641279988, 550.3147566198181 736.6496054311114 M607.6374785411815 734.697784032658 C590.3920759956725 736.142647643271, 573.1893941667674 735.1553419566261, 548.3271449142056 734.0885823379837 M550.8328785870627 733.2085387240436 C550.8277687003864 718.6169438711272, 547.3549589036105 703.9167015007572, 548.8523828791689 684.8041482470181 M548.687446558715 734.650672353564 C550.0180136454228 723.8373850389095, 549.7200126712346 712.8034653995758, 549.7142377976018 685.1474119014487" stroke="rgb(0, 0, 0)" stroke-width="1" fill="none"/></g><text x="578" y="715" fill="rgb(150, 100, 28)" text-anchor="middle" font-family="Consolas, Courier" font-size="20px">id57</text><text x="578" y="672.5" fill="rgb(0, 0, 0)" text-anchor="middle" font-family="Consolas, Courier" font-size="20px">3</text><text x="380" y="630" fill="rgb(150, 100, 28)" text-anchor="middle" font-family="Consolas, Courier" font-size="20px">id84</text><text x="602" y="630" fill="rgb(27, 14, 139)" text-anchor="middle" font-family="Consolas, Courier" font-size="20px">list</text><g><path d="M351.20089074705663 599.3181087359989 C368.07407775027167 600.7702791026152, 383.4763406024577 599.5290257038721, 409.71204308842414 598.2490735449541 M349.2477304099432 599.3062934926368 C362.3391818684788 599.6367956986613, 375.82920336831984 601.286027977339, 410.23044801308475 599.1758223688372 M409.6115346250468 601.6245385301623 C412.24253724885415 612.7139931967906, 411.1725134158686 626.1790492206142, 408.3146851023177 648.8777737384887 M409.4325576591416 599.8861121274136 C409.55873192960144 616.2254817523368, 410.6957403287482 632.9072650793278, 409.1723083045614 650.1465475975325 M410.8042751980805 650.4716724481204 C390.6136242178669 649.768294496474, 372.9788624450094 650.1099776193216, 351.1920970467109 651.5794645707973 M410.100881090606 650.8216110521302 C395.2026480758233 650.2180374286169, 381.5196318870796 650.3581324387872, 349.19526518114577 649.6053660869238 M350.3677642820893 649.4166848898042 C349.4930775083133 634.4966785486959, 349.23009512341736 617.1338579875311, 350.1659774089286 598.5942610471784 M350.0381525953224 650.7606598804945 C349.017877951421 637.6678349315529, 349.38063334541965 624.5110405339369, 350.5992453151706 600.8634733275806" stroke="rgb(0, 0, 0)" stroke-width="1" fill="none"/></g><g><path d="M572.4514009906894 600.1352517190621 C585.7491133761955 600.0252812421597, 603.0710414381635 600.5884729455925, 633.8681214652262 601.9212892829873 M572.8740686344258 599.9052841576848 C592.0573380464297 599.368702924779, 613.635266384497 599.3758642873548, 631.6618250741872 600.984711298635 M632.8053280547945 598.3194873139003 C631.5561721680061 616.2220580118038, 629.848369689432 636.8476503147726, 631.8887161304744 650.6940857982577 M632.2210518297838 600.2991512478383 C632.9348209665404 618.1960878210831, 631.021788393171 634.4991903232626, 632.5134110147202 650.3832462801316 M631.7333681599861 650.528147837198 C615.4190980663828 649.3491710520636, 601.9409768627502 650.6309563434484, 573.2131599250785 649.6922059185622 M632.110490005173 649.1771861129077 C608.8340595306888 649.8026156852063, 584.695217772031 650.4374706358019, 572.4909661047558 650.7789156878773 M571.3556011730525 650.9856848894802 C572.3581746481901 639.8855668556611, 571.4539173067798 629.2773254428565, 571.0951292546548 599.1809186769 M571.1846726674235 650.3768162738962 C572.0708162142713 630.4269877457348, 572.335524187297 612.4418448273628, 571.7455506146323 599.218657998354" stroke="rgb(0, 0, 0)" stroke-width="1" fill="none"/></g><g><path d="M749.293585181669 9.601778986641746 C819.6697798448429 8.43634013897265, 890.0180070950225 7.891253075874829, 949.1473142699053 8.474548236175655 M750.3156528117997 9.464726490847701 C812.0950927975045 10.847653129382433, 873.5091769585787 11.489490604045423, 950.2817241553129 10.17356209599305 M948.7736653142514 11.296439906105995 C950.9090180387063 43.54035439374377, 948.8274672634592 77.58121611285408, 951.3183057763612 140.0725384940216 M949.2003365591764 10.000011542434894 C950.1553274966808 41.3958882416063, 950.3798105777375 73.45036681741999, 950.0362429351073 140.07508392346116 M951.4092844319817 138.6231952388547 C887.9533825586948 137.8907805434832, 829.2369430016187 138.52028115830888, 751.0534195775748 138.20833893609077 M949.7896789673761 140.59380162400194 C906.8540106046222 139.94864858978957, 864.539697621192 141.1035402205443, 749.9202077505778 140.72502248890325 M748.3077996935574 141.6835799221444 C751.06092684 96.6323201733426, 750.0360873133274 52.02977425698323, 748.5268559439573 8.958907910957251 M749.7699718997488 140.46706017857582 C749.1715863125253 99.25210115131975, 748.3849327050673 59.500059769424084, 749.949755355156 10.666260576139072" stroke="rgb(0, 0, 0)" stroke-width="1" fill="none"/></g><g><path d="M745.736083408456 4.134674235828003 C816.1796566956314 2.4836829437279175, 886.751001102597 3.435946079362474, 955.7678496215458 5.194011579870476 M744.6477477422679 3.648182512513579 C787.1800029759806 5.973228715288712, 830.7722124469441 4.872053700012419, 955.7524514570376 3.650003721032372 M954.7390755691048 3.8685136148591486 C955.6652542604093 52.16019529711542, 955.5442533294122 98.3962693953218, 956.583236487467 147.64523708113157 M956.4894227830811 3.365333250203082 C956.1388373015942 50.60321533527366, 956.1509115437728 97.85847739556121, 956.8371707080801 146.68433290256027 M955.5412557228775 144.5399938541024 C895.9726177481031 143.38897760039563, 833.1076988119872 144.34796365628054, 745.4529484743842 144.96179625554723 M955.2337814431078 146.16212476836517 C873.1430636894167 146.96639034018327, 790.4142494949024 146.68286823898384, 743.7950195319195 146.78118368310433 M744.6103331298588 144.4929724071012 C745.3437817145633 91.22915732357792, 742.7921012665576 36.054286532420306, 744.1144590854294 5.3057703358388135 M743.559150131195 145.39919816783188 C742.0191416368832 117.66168803328614, 741.8646552675212 88.30929615481617, 744.8654202393415 3.069832950472944" stroke="rgb(0, 0, 0)" stroke-width="1" fill="none"/></g><text x="850" y="100" fill="rgb(27, 14, 139)" text-anchor="middle" font-family="Consolas, Courier" font-size="20px">1969</text><text x="780" y="40" fill="rgb(150, 100, 28)" text-anchor="middle" font-family="Consolas, Courier" font-size="20px">id19</text><text x="920" y="40" fill="rgb(27, 14, 139)" text-anchor="middle" font-family="Consolas, Courier" font-size="20px">int</text><g><path d="M751.7681302259384 11.09140039293058 C765.9528235828125 8.318281126841773, 783.749210260044 11.486879165885654, 808.0761588271188 9.794894031778595 M749.8385566542079 9.546519738580583 C770.3442270296651 9.018479941377018, 790.5289344477915 8.86026420948487, 810.7135525276022 10.407860154784295 M811.511734779655 10.79502979299021 C808.2433868776577 27.697329605814353, 809.962489208001 48.696655919693725, 810.8951078147263 61.02272917337716 M809.6602489241913 10.278744885219492 C810.0150581227941 24.868350420127516, 809.7860492761453 39.097710680769985, 810.7518171251112 59.12843482793634 M808.0406973875693 60.82668064063807 C791.5635453420433 59.21839317329965, 773.3737253014561 57.97646783250139, 749.6345363962372 59.254073694512854 M809.9032595111541 59.57650530460595 C786.4353578168315 59.804441465682785, 761.9164141105323 60.405090823561544, 750.5272500722803 59.84220176260449 M751.3063917510408 60.04377304103383 C750.8215011180292 47.760212137619305, 750.8211413458354 38.59277313524854, 751.186680174035 8.819072294118193 M749.5281972015326 59.459385501788944 C749.0109338209139 41.948189606892946, 749.6282961886839 23.443857622771173, 749.1585914431545 10.486069085628055" stroke="rgb(0, 0, 0)" stroke-width="1" fill="none"/></g><g><path d="M891.386836794716 9.963850395859911 C910.8655173903617 9.646908941149807, 931.4122104890307 9.190063041399878, 949.7282370960896 9.413006996177439 M889.04259452171 9.234957408944155 C907.1167325813484 9.87716421602017, 925.6023236419925 10.27844288333577, 949.754456368087 10.647978643099565 M950.1087950738334 8.836215551182626 C948.4950741469711 22.488510876993853, 951.7152302000418 32.68670140728953, 949.891694521694 59.64005294396556 M949.3369437818018 10.596402579486078 C951.0979200671352 28.33600454630339, 950.475740201903 44.58383201259983, 950.3001180687687 59.88337052696365 M948.7722949368516 60.266225380514605 C928.5429843670886 59.240445671901654, 909.8861715768504 59.15761705971634, 889.3395055853292 60.32172249353139 M949.2338523958109 59.92013882104768 C936.9131885337739 59.31685947820744, 923.1881993907417 60.74205407275756, 890.8249604638795 60.17524687895863 M888.0433905437145 60.4525114079082 C891.6161482359131 43.587402734937086, 892.2227958898761 29.502748207598454, 888.651112235801 11.010591714020427 M890.641926030041 60.62043458803246 C890.5877954843226 39.653779193840876, 889.6877701220899 20.107083483019707, 890.1749699909676 9.574596484319262" stroke="rgb(0, 0, 0)" stroke-width="1" fill="none"/></g><g><path d="M751.4421967560529 251.6800597141815 C829.1189577466469 247.04558597431756, 907.9769908786556 248.0688064436889, 951.32515500252 250.0626082531213 M750.5010340291749 249.9653036480809 C791.3272164002746 250.89938656223993, 833.4049217956994 250.4953275811016, 950.0577287730446 250.43079605437808 M951.5004665615221 248.11916112910123 C948.6388639319898 283.82867114002045, 949.7758911930057 316.64999053986855, 948.0654654506433 378.5264813180796 M949.560549115137 249.47011112131543 C949.8643982587183 278.1541527056185, 951.1066081276932 303.45537397567034, 950.2101720123629 379.9798266597724 M951.0293803707416 380.7195406662104 C873.5340907544006 380.5545950355077, 801.9174017845479 382.3241823758651, 748.6111254149147 379.03688087821274 M950.1756834350882 379.16776951820026 C872.6352285931188 378.6910176770352, 795.3679779804282 379.52259490536994, 749.9191193710782 380.5349417402231 M748.1601648394085 379.48434708245986 C749.0542200945087 350.029691203674, 752.6139647509451 322.32133969183184, 749.5181558377554 250.88589037922284 M750.0784898184437 380.41431417016344 C751.8312414556127 350.3046339430227, 750.4240079482591 322.67822449722377, 749.4794430497197 249.71455994851718" stroke="rgb(0, 0, 0)" stroke-width="1" fill="none"/></g><g><path d="M745.2176119423943 244.31866326132172 C794.7085606403797 241.77467843874717, 848.1660761124654 242.0430752735837, 957.143788364206 243.67239020623288 M743.8452444985596 243.79631208782772 C827.9225689239923 245.06790577855134, 911.6321028427303 245.62963548472513, 956.2240371252345 243.437206988847 M954.5042431686413 242.9290677659817 C955.2925800078314 283.83812971057887, 955.7220356549856 322.8101055905493, 954.2319269700467 387.0602866863621 M955.0065145672371 243.32482333199917 C956.824422735935 287.11806451133873, 956.3762729697683 331.75041701377114, 956.6842134200357 386.63398022660806 M954.3318772947871 384.8124513225477 C889.3310902088041 388.26528979275105, 820.1635937677838 386.4355360643442, 743.0767339106173 386.0339315999487 M956.7385277402716 385.4646624212405 C896.8082381551703 384.51430798806723, 838.4936589617688 385.19978067313343, 744.1534593826696 386.6195814733579 M744.6467997636473 385.6200248274025 C743.3401204212007 347.7607678055794, 744.3153093159157 309.58728915585067, 742.6805990969658 242.68962503360814 M743.9740997165751 386.8843984958406 C744.8110234576834 348.1944964494418, 743.1214684913059 309.95771426302537, 743.4411635325032 243.47759075867097" stroke="rgb(0, 0, 0)" stroke-width="1" fill="none"/></g><text x="850" y="340" fill="rgb(27, 14, 139)" text-anchor="middle" font-family="Consolas, Courier" font-size="20px">True</text><text x="780" y="280" fill="rgb(150, 100, 28)" text-anchor="middle" font-family="Consolas, Courier" font-size="20px">id32</text><text x="920" y="280" fill="rgb(27, 14, 139)" text-anchor="middle" font-family="Consolas, Courier" font-size="20px">bool</text><g><path d="M748.9542234989433 249.96657284489356 C772.0875827316554 251.45689244503768, 792.2342457783986 249.34738872420039, 808.9733316946117 251.5472591173812 M750.9231442234928 250.54986565588473 C772.8166594764399 249.90813779909482, 797.8714601265775 249.23658663195695, 810.272097384219 249.96310686557229 M808.881040211887 251.49323806648187 C809.721422807085 265.2604321398261, 812.0693723725539 281.4423292786057, 810.1358427588004 300.844584316776 M810.5214070213838 249.6972862121375 C809.364992421936 267.9092757238917, 810.3270681242308 287.136165393842, 810.6046154440133 300.4600755884595 M808.6482746947744 298.16725122646045 C789.3890211937296 300.4683611514985, 773.7096734065738 298.014427255019, 749.4440229795164 300.2706526877687 M810.5993261175415 300.1086047639773 C788.9461509686479 298.7347372227301, 766.7312191921234 300.5099854082655, 749.8661592325009 299.08730654234927 M749.4789007242608 298.5640875582226 C750.5398830652197 285.4903825232178, 747.9740867315518 269.57979394680973, 750.3532374435016 249.69607920631026 M749.5124890314626 299.5126515948777 C750.7575798490972 286.280195062866, 751.0181559894091 274.682662725713, 750.2054058554895 249.69531562039322" stroke="rgb(0, 0, 0)" stroke-width="1" fill="none"/></g><g><path d="M888.2121235206419 248.83160253793304 C914.3403683398162 248.30225890331013, 935.0107159732519 250.62007301315205, 949.8807731769349 250.46760136876597 M889.6732913297438 250.80786109631265 C909.9738477388752 250.53577628141187, 931.1208291361828 248.97060651350205, 949.4590317493813 250.51899120626493 M951.1454798647042 251.32091312526586 C948.1220242720237 261.0241878850228, 949.1829975222352 274.08140455779244, 950.764340140036 299.00698629776565 M950.6131317920789 249.01690363631837 C949.9875283093976 261.9753391700148, 950.3878449941471 275.21493496265157, 949.9150988128574 299.3673799509476 M949.3174460784609 298.07147930682197 C932.7904572263624 299.06551936166227, 918.160258455325 301.5171659418094, 888.2946157125145 298.08193147763524 M950.373702165867 299.70121656721295 C934.4308515497559 299.52688094939003, 918.5238293912003 300.591293930883, 890.4713457214706 299.7529921719448 M889.5819554498197 298.9148526293519 C890.4852396538203 288.3023464522525, 889.3064273510208 274.1679868101266, 889.2535566549337 248.5714448640841 M889.0118785352186 299.3186645350056 C889.2334991345886 281.00593493790325, 888.7041391104888 261.15962828333585, 890.2733412918521 249.95555951171724" stroke="rgb(0, 0, 0)" stroke-width="1" fill="none"/></g><g><path d="M750.0407616936166 501.1784163008509 C819.2327639789657 503.0924826774855, 885.4483735281891 503.31002007297855, 950.4883664958835 498.4534204136468 M749.1493977165135 499.63411032488466 C820.0677528543823 501.02282550998535, 891.7810208519858 500.7657630041759, 950.6005471080663 500.82574057579336 M950.7399137528499 501.9068416615301 C948.5716619176287 537.6895380357475, 952.2145042710441 575.2225714823172, 951.7590744473574 629.6892012999638 M949.1693885082865 499.2249356145884 C950.1375956215777 549.054049580162, 950.5226978998498 597.2239403874293, 949.704239344087 630.6367515745537 M948.9559111097782 630.5246645418796 C873.6035393450738 632.135261286124, 795.5120153366819 630.8603859192962, 750.8924673720277 631.3487813939753 M950.5252074330942 629.3397115867906 C873.743434067872 631.279392320666, 797.5024876638854 631.71437641847, 749.1940129236672 630.4670666632281 M748.876694694977 631.4726136813631 C749.3542968671967 592.8499716017459, 748.2831398239456 554.7093055804986, 748.8685321639588 499.4152706433232 M749.9143282966712 630.0974409059045 C750.1582265513168 597.4801297943044, 751.129997945166 564.8708296836681, 749.2257065411544 499.1516464276743" stroke="rgb(0, 0, 0)" stroke-width="1" fill="none"/></g><g><path d="M744.5189826867675 494.0262301727398 C812.0745672149422 493.1129532045367, 880.179703388696 491.6203056608012, 955.38056461585 493.02380712285736 M743.9677378884862 494.1070921931549 C816.318086720205 494.27667008219856, 889.3234357490121 494.56151951439347, 956.3275481724362 494.57090543170176 M954.7406873880618 494.69797735018227 C956.8325646212883 543.3117399809153, 953.9120952149174 589.0167687735794, 957.7031281864157 635.5437697862034 M956.5272097806517 493.1201393592905 C956.5698628879943 527.0629086839734, 956.5222699306331 559.2545940516678, 955.0679391435334 635.6007292483054 M955.5247447522415 636.1504191545341 C887.1729024369588 639.2113594011844, 817.0470108294184 636.4317204081684, 745.6933774018584 634.776996227805 M956.788493605428 635.8216362466796 C887.4534207224411 636.8421161512014, 819.8618568453154 636.9759732105498, 744.1640581208222 636.6049984454427 M744.1550444119232 636.4360533380523 C746.2938680619648 590.2406806965954, 745.8694274978487 544.5075444755121, 744.5665202871421 495.5956093742152 M743.508906627295 635.5373916194044 C744.0526168236057 593.7104928143398, 743.2535659748546 551.1772543368738, 744.7709856584505 494.80223749191015" stroke="rgb(0, 0, 0)" stroke-width="1" fill="none"/></g><text x="850" y="590" fill="rgb(27, 14, 139)" text-anchor="middle" font-family="Consolas, Courier" font-size="20px">"David is cool"</text><text x="780" y="530" fill="rgb(150, 100, 28)" text-anchor="middle" font-family="Consolas, Courier" font-size="20px">id43</text><text x="920" y="530" fill="rgb(27, 14, 139)" text-anchor="middle" font-family="Consolas, Courier" font-size="20px">str</text><g><path d="M751.6721621285086 500.13620314690104 C760.5422537164199 498.97019028102676, 776.6094487769815 500.1124715163555, 811.3364857276944 498.32015055189567 M749.8785940196799 499.4240568164022 C770.2426832593126 499.4130955173948, 789.7843686800755 500.3067408105856, 810.6727093104279 499.64464930217616 M811.643672431019 501.02478762879224 C811.3056329355001 516.2709577850894, 808.4449194297573 533.3120949147184, 808.7730496160846 551.3982235084852 M810.8593645166468 499.3142009840392 C809.8401920994102 512.8431127815566, 810.7032970384597 525.0456327150143, 810.7802063249851 550.7635899868164 M809.2680121650901 549.2884208843016 C787.5009569414168 550.1174181154779, 769.131728034853 549.5620842789876, 751.001788675493 550.8595853425005 M809.3421356317818 550.868067880511 C795.5552138588781 550.4054006758995, 781.1126387371429 550.7823130961337, 749.447924176612 549.2726227979548 M748.9240381333435 550.6957158747879 C748.4272958116343 533.2667559004518, 748.9225916011352 520.7644665604946, 748.5061123983016 498.6884511221701 M749.4530350724168 550.0894037551745 C749.3866318392492 538.3950229745219, 749.7880753343093 528.7569163820782, 749.2812248107044 500.39740788272627" stroke="rgb(0, 0, 0)" stroke-width="1" fill="none"/></g><g><path d="M890.2842610009224 498.89986809925745 C907.89343770489 501.16834050278976, 927.1691660418198 499.53471907104813, 951.839429588624 501.39366450740056 M889.1305454399894 500.8689277128979 C909.8109049056911 501.4336969459237, 930.0454726949546 500.6021035660493, 949.9031444512493 499.4790057669164 M948.430466182731 501.63862986265895 C950.7469653624746 517.1919548787334, 948.6562705169023 533.1101763267156, 949.251686456562 551.831666685164 M950.1196071923476 500.548865018562 C950.5748301119685 519.2599895992632, 950.1714136554892 538.9447282835295, 950.4612656900914 549.076744561241 M949.4374376778288 551.4853241057464 C935.8916389704043 551.3467070981178, 924.8058960690917 550.3193753917701, 891.5288414361696 550.0365004863388 M950.210250645133 549.2858497279274 C928.0516046748885 550.082611638848, 907.063643664301 548.558650751114, 890.2188589139914 549.7164301288066 M889.9380317326801 549.7941710697985 C890.6500861603837 533.5598702946917, 889.0272921884911 513.0865139149163, 891.3543200176681 499.26918916329936 M889.9790701119572 550.1214162942159 C888.8646911593875 538.9851558061246, 889.1315250996512 526.8274293974457, 890.703703447681 499.9324035846086" stroke="rgb(0, 0, 0)" stroke-width="1" fill="none"/></g><g><path d="M1051.1496244323464 39.73908455066334 C1088.8147894503973 37.16408353532853, 1131.2079716702067 37.763129461002315, 1249.5251638915158 40.288168880303736 M1049.7060297469905 39.403990034203815 C1112.7963539656587 40.19956570035077, 1174.5603893407676 39.488508932326006, 1249.138306327477 39.91911448539603 M1251.2525239125314 40.562551508839235 C1252.1808740136585 75.2465432287772, 1250.3137781196388 114.70927571195831, 1250.0971060358293 170.21799560088257 M1250.2231716678436 40.565556567856284 C1248.4760412680976 83.3218958401984, 1248.6364776962387 127.40153306612699, 1249.4736396510903 170.34107976334732 M1251.4466415197742 170.75529036552317 C1186.9975594222753 172.4892119259956, 1122.1612398157642 169.87493607185382, 1049.03819217161 171.1429789614535 M1249.9800402681537 169.9202425455512 C1176.1432610585423 169.83831826979446, 1100.3343423779256 170.09430945906405, 1049.18438274777 169.61465903601342 M1048.8678642468785 168.92288117245144 C1051.6208079584978 133.1584092652211, 1052.2229301280277 99.88907166896051, 1050.049461632998 41.271292477829405 M1049.4960687225869 169.7443484994579 C1049.0320581657927 122.58103249494978, 1048.4689224276667 73.50717675971073, 1049.3293553986446 40.562521557774616" stroke="rgb(0, 0, 0)" stroke-width="1" fill="none"/></g><g><path d="M1045.1449193668004 34.17660727877285 C1105.633196432418 35.01356678003437, 1169.773002991539 34.046032182899125, 1255.5308648599455 32.88578471561342 M1044.3303241566555 34.3468415594259 C1121.1740693933452 34.98883612072598, 1199.0587519935211 35.56485488802533, 1255.6217768023412 34.03528018133465 M1255.552303871864 34.63779396198637 C1255.4449713466736 90.88888294903536, 1254.6811792726407 145.99173264889748, 1256.124181713623 174.5259960816614 M1255.6955927061786 33.29165139231344 C1257.0136979330887 62.66035799319693, 1258.3122172360465 91.62720974068661, 1255.02200542587 175.9585540178728 M1255.280138955737 176.4700549798368 C1200.0939503605537 174.13482066551916, 1145.7016662973983 174.00180343410045, 1043.1959873950434 176.6173843102008 M1255.8077051239943 176.46156353738792 C1194.3298280048805 178.38729022210714, 1133.3781881608793 177.33224450156715, 1044.6421318871458 176.52277763696532 M1044.9948429806616 177.69318569553036 C1042.930479720826 127.38147741804738, 1043.7008013804455 80.85888519167806, 1045.7247435611027 34.69990892948402 M1044.7865471959167 176.55228661461624 C1044.9278612501316 120.28979580784997, 1044.2574822004738 62.08748429521918, 1043.3147998979266 33.821607431134616" stroke="rgb(0, 0, 0)" stroke-width="1" fill="none"/></g><g><path d="M1073.461486646522 104.36992408299005 C1085.876169499987 105.42021576443987, 1099.5400707371673 104.90309367494199, 1131.868113507001 104.23582557563518 M1074.988226154279 105.67772706712856 C1088.9018442558183 104.94904248611202, 1101.5996850107092 104.42479554846975, 1133.9672374486086 105.78385863441625 M1131.940841832642 105.74417676361467 C1133.6035861578698 122.48760096926353, 1130.8567117325629 140.9029584138198, 1134.8639000344765 155.8928294709811 M1133.92803161164 105.79163450439167 C1133.6960378528206 123.95415995580477, 1134.0334513923758 141.76058075100764, 1132.3969613296197 154.75964305350004 M1132.307540617703 155.49678427371043 C1121.1316601123642 154.0333820758688, 1108.3975500103643 156.56732446786643, 1074.2800398019294 153.78975327152162 M1133.100988577947 155.3500306027923 C1114.4055889801612 155.28691281724238, 1096.3976005548861 155.20645627757327, 1074.2278553563083 154.02011422686465 M1076.7873296798477 155.77648153452077 C1074.8571416549762 145.47055150712808, 1073.4923644502423 136.92678922229388, 1073.1559819787497 103.03037546111099 M1074.0541327408112 155.98266352502137 C1075.0948965262296 143.43123849803757, 1075.3336027138478 132.06404876467357, 1075.9130116485474 105.89280963140612" stroke="rgb(0, 0, 0)" stroke-width="1" fill="none"/></g><text x="1104" y="135" fill="rgb(150, 100, 28)" text-anchor="middle" font-family="Consolas, Courier" font-size="20px">id82</text><g><path d="M1132.3259608840328 104.9708389502678 C1153.3239790236794 103.9115584061973, 1176.6089612309888 106.41290394972683, 1192.3968450926411 105.32298789610692 M1132.145778249584 104.3085410381493 C1146.8786689780204 103.60055093856572, 1160.8645839768374 105.42100615107498, 1190.3081314244 105.79498151783301 M1189.5687531014705 104.31739071625675 C1191.4679723856866 119.045709326145, 1192.0250482464687 131.3611157376739, 1192.9610046270295 153.58107860287575 M1191.1644571668821 105.5446823669308 C1190.772371539586 124.95692854462027, 1192.3720469792038 144.61902361801396, 1191.223296090559 155.82862465385327 M1190.9488496142117 155.5643100571175 C1172.6875909252371 156.28837773585525, 1153.3718939511514 156.02159364915585, 1133.900705588039 156.49397599434425 M1191.529231768404 154.16242672771494 C1172.7714069287345 155.37980837981536, 1155.960997752221 156.06684830819967, 1133.9041117471252 155.0823849672487 M1132.1567258527868 154.9664648571275 C1133.0533514010615 136.69749400647973, 1134.6818058835731 120.17899726147542, 1133.875088192234 105.6019856933808 M1132.4181624063385 154.90410416319548 C1132.0438345736877 137.31892632630385, 1133.4357895507721 122.18166265270312, 1133.5345593931365 104.48753025885864" stroke="rgb(0, 0, 0)" stroke-width="1" fill="none"/></g><text x="1162" y="135" fill="rgb(150, 100, 28)" text-anchor="middle" font-family="Consolas, Courier" font-size="20px">id76</text><text x="1080" y="70" fill="rgb(150, 100, 28)" text-anchor="middle" font-family="Consolas, Courier" font-size="20px">id11</text><text x="1215" y="70" fill="rgb(27, 14, 139)" text-anchor="middle" font-family="Consolas, Courier" font-size="20px">tuple</text><g><path d="M1051.7321002692975 40.2160897137321 C1072.9381324260698 38.53155565393309, 1091.654707441707 40.605333563069834, 1110.9498111584062 38.462766677019545 M1050.1080032868629 39.3836985168723 C1066.0702538818996 39.157331214782104, 1083.2997057933044 39.45570719059595, 1109.4761564634214 40.99223494375805 M1110.2473020664283 41.99496312332109 C1110.2726432920654 54.998217991855185, 1108.5137987633127 74.25703525711607, 1109.672837058696 89.38184306900386 M1110.7157623132812 39.2926753743722 C1110.688582791067 58.80035775429895, 1109.5522507893306 77.05004093176, 1110.9934211331597 89.6358512610447 M1109.428591069614 89.34303852422093 C1086.1304786010005 90.79560989291795, 1061.9322231583546 91.82836257732215, 1049.2990993698195 90.4231672867251 M1109.7769133609495 89.8526952043522 C1089.7607573869425 89.64583916963554, 1069.6600673669175 91.29229365033987, 1050.6353206662209 90.21068803626719 M1051.1703529477927 91.3564025351583 C1049.8326091824342 72.28071072533187, 1049.421862941264 59.01342904964032, 1050.9068871843408 41.78697625972998 M1049.0131457456714 89.81609160206318 C1050.0291937872803 69.6403949059199, 1049.700928596274 50.37609334988387, 1049.22448508052 39.91509984604225" stroke="rgb(0, 0, 0)" stroke-width="1" fill="none"/></g><g><path d="M1179.5270322177703 40.68312368499463 C1197.8592541204982 40.67888297573913, 1213.4237977991675 39.683972364769225, 1251.838379458443 41.727930809109026 M1180.6717892914137 40.86262153710107 C1197.753168312343 39.937866841823926, 1213.452922927373 39.028129794631596, 1250.7575642337024 40.06161054852081 M1251.031136111414 38.394125415341115 C1251.2839144493626 52.29779182571696, 1251.3484440585266 64.34142921302028, 1249.013729743805 90.89216716147337 M1249.6184900356336 40.50902580967982 C1249.8629020521887 54.273576236444, 1250.1634129730544 70.31729204460855, 1249.449054293407 89.34189719192143 M1251.9584198679038 89.17288408988605 C1233.9282768004898 89.93752183650663, 1218.0673465807063 90.25159547137011, 1180.5634411213314 88.3206697687117 M1250.1331622014718 89.4808822734451 C1233.0370975700664 90.52495605561286, 1216.1961489270018 90.53873101371138, 1179.9935630371967 89.12372683343065 M1178.7983052193592 88.26035128580122 C1181.4255971092557 77.17283366363516, 1181.999278086579 67.57714453009481, 1179.3123885087223 38.67295406456912 M1179.5772317240503 89.77486245484415 C1179.1976796022032 80.04294570466023, 1180.2246135250714 67.7616006597772, 1179.2563719242528 40.723541905366176" stroke="rgb(0, 0, 0)" stroke-width="1" fill="none"/></g><g><path d="M1050.8335976163848 259.6923434389567 C1101.417385054479 262.73418297132844, 1155.7893721890323 261.39292655418444, 1299.444612343635 260.82123510415727 M1050.2149156925514 259.7016797734017 C1135.646191258124 257.333809599969, 1221.7059672441728 257.44199699670924, 1299.1568936844003 259.46899066739337 M1300.9035023014394 258.7530897169169 C1298.9605893153746 307.555070649479, 1298.9414314827638 357.5989145648125, 1297.6954858534505 391.74761246046273 M1298.7340106574168 259.94783532017175 C1300.253063157802 295.4210971483138, 1300.4156352851974 333.29139913943555, 1299.2917131189877 390.49225425293116 M1298.3403373682097 389.49441622767756 C1213.934173536154 388.6419294597085, 1130.3029752402515 391.0442201697496, 1051.0924209676405 390.321079098309 M1299.0863429303229 389.87729885013323 C1248.6733224750988 389.04699969014285, 1197.311957263469 388.96411739771054, 1049.656965787294 389.2776221128042 M1051.635301536498 389.197008547028 C1048.7011500924516 342.3932275988956, 1051.2885167463191 294.73281826307124, 1051.2470932045742 261.3204851739494 M1049.3649219130286 389.1457309243653 C1048.667256514328 351.03336765031105, 1049.8412640357317 313.3074600069422, 1049.155693250255 260.98821556999053" stroke="rgb(0, 0, 0)" stroke-width="1" fill="none"/></g><g><path d="M1074.9873143048533 323.95498363533284 C1096.964739978796 323.6121166363983, 1115.7895872336267 326.51366950009765, 1134.9901024966343 326.73772333295335 M1075.3495874915059 325.51238787643985 C1095.3649610260477 325.4749547568579, 1116.8221614855902 324.54375504186106, 1133.454459412219 325.65699981134253 M1131.4299737184779 324.2474386341175 C1131.3268548802773 337.6557034007621, 1131.0135991049845 353.04737789687726, 1133.5307757831395 373.7960778875751 M1133.9918884413892 324.9549778771686 C1133.8008051855245 341.80554920188297, 1133.7309270954095 358.96999268715814, 1132.1605313615187 374.29946911341307 M1133.9470444191318 375.0354173229669 C1118.567668701301 374.3814065052477, 1103.2939712250684 375.3886958777665, 1075.9763081877636 375.6847012394826 M1132.0823332549596 375.28456465573197 C1119.0206452953323 373.5534664443045, 1102.7219475147547 373.5078352382042, 1074.2617378451866 375.02297393493353 M1073.2491257228257 375.6038478802712 C1075.537156159227 361.5493640011333, 1074.399584553235 343.83689406523655, 1076.6219615316843 323.223020862413 M1074.485026594204 375.54468208411004 C1075.0689006378377 355.76839206339525, 1075.177816239393 334.5340921457041, 1074.64132215798 325.3191101343092" stroke="rgb(0, 0, 0)" stroke-width="1" fill="none"/></g><text x="1104" y="355" fill="rgb(150, 100, 28)" text-anchor="middle" font-family="Consolas, Courier" font-size="20px">id36</text><g><path d="M1146.6534571222026 324.20284798449467 C1160.152238408406 323.48307013750104, 1172.7876188473144 326.3041959751063, 1203.393386069037 323.33691393234733 M1145.5098872028043 325.41099620418873 C1162.1240927034082 324.78355170960106, 1178.1992957982773 325.31967586742996, 1203.806856982539 325.76381212111716 M1204.1175023684993 324.75891072957484 C1204.5619762095725 343.09062078642114, 1201.9166795591432 357.6279345653452, 1202.0126072522794 376.82217055355346 M1204.0753608730374 325.4531291635679 C1204.2305232181343 336.2994763422322, 1203.2114149641284 347.5217427907223, 1203.4198762120168 374.23003463161194 M1203.37409010866 374.70414222221655 C1186.7361188225034 374.38395702007256, 1168.1275102323825 373.5221472575029, 1146.781889105923 376.77539119218443 M1203.7825441842385 375.2917315068048 C1186.7953491415046 375.29801768371635, 1171.5692093299256 375.4067526577525, 1145.8131970453214 375.17680373642946 M1146.865855018103 376.6207867024765 C1146.2750246136993 363.1011024889886, 1144.7916909158694 351.2206710427324, 1147.1287056758185 323.18651109459114 M1144.5430414638447 375.01576229369306 C1144.4711928599859 362.3861968077401, 1145.892542842095 348.2956374864164, 1144.585978264399 325.19574037305716" stroke="rgb(0, 0, 0)" stroke-width="1" fill="none"/></g><text x="1174.5" y="355" fill="rgb(150, 100, 28)" text-anchor="middle" font-family="Consolas, Courier" font-size="20px">id49</text><text x="1139.25" y="355" fill="rgb(0, 0, 0)" text-anchor="middle" font-family="Consolas, Courier" font-size="20px">,</text><g><path d="M1215.6916254538555 325.922584126451 C1230.4519677890926 323.3753405947411, 1246.6127313403244 324.309649006699, 1274.1193356284098 324.2503541172502 M1216.8834151044803 325.30548053574876 C1231.3336552157461 325.4747918149465, 1245.373071424478 325.6837031806517, 1274.688981974068 324.5644038588954 M1275.6718650610403 323.84194578969226 C1272.4684449101962 338.5227798424896, 1273.3395849204849 349.0984678808092, 1272.7890932316277 376.55446529329396 M1273.7777416287217 325.12219862142706 C1273.439229882236 336.53283033381604, 1274.4065426322406 349.6808545965295, 1274.2292478733018 375.3366375786337 M1274.8562424623556 376.562662851741 C1253.308683175036 375.3125420618602, 1232.6889495606379 374.8400480308641, 1214.644276779411 376.49460013886704 M1274.8416240077288 374.7175795314164 C1252.4415911665633 374.08842448748345, 1229.4942884979437 375.28634077730607, 1216.3200235730333 374.9432023141001 M1214.7794729035568 374.3131611892414 C1214.0180586264037 356.91077835670353, 1217.176216142217 340.93102698681827, 1214.9522717007146 324.9863224565874 M1216.037290811743 375.48949422973277 C1217.1149332277112 357.2132781901738, 1215.4196169418271 341.99880921505235, 1216.7811706111409 325.5930551954416" stroke="rgb(0, 0, 0)" stroke-width="1" fill="none"/></g><text x="1245" y="355" fill="rgb(150, 100, 28)" text-anchor="middle" font-family="Consolas, Courier" font-size="20px">id64</text><text x="1209.75" y="355" fill="rgb(0, 0, 0)" text-anchor="middle" font-family="Consolas, Courier" font-size="20px">,</text><text x="1080" y="290" fill="rgb(150, 100, 28)" text-anchor="middle" font-family="Consolas, Courier" font-size="20px">id90</text><text x="1269" y="290" fill="rgb(27, 14, 139)" text-anchor="middle" font-family="Consolas, Courier" font-size="20px">set</text><g><path d="M1050.9980347831345 259.1691898244553 C1060.570992555757 258.5549875439479, 1075.9333446022395 258.7930268625319, 1109.3961075145623 260.89495562655634 M1049.151162582755 260.0519552409784 C1069.6150318398509 259.386325511062, 1089.0923197125219 259.88190890947226, 1110.0920874913575 260.0276497571869 M1109.2131946666586 261.5285964224407 C1109.9308637877293 278.2714593841964, 1111.9194521863626 296.7148567719119, 1111.7857525194306 311.5144512247562 M1110.8329415756666 260.4615963302091 C1111.0521348816362 275.5785705796473, 1110.274777073868 290.5160255955318, 1109.914067400967 310.78634665336523 M1111.0932366116679 310.8012744314641 C1092.5753004009025 309.53171998137356, 1073.4228045400062 309.7836475162997, 1048.0755186885824 309.43200103463965 M1109.9820613581435 309.14241870330915 C1088.3810409627606 309.34145254211217, 1066.2168548055542 309.3436378182573, 1049.8753893123455 310.44682506419815 M1049.196328248075 310.603940908565 C1050.4091970428663 292.24062927488444, 1051.2677473825217 275.12530202417787, 1051.1423241165767 261.9447877282012 M1049.2596760870867 310.4552081713552 C1050.6835022406462 297.76744024140663, 1050.2406991981338 285.7705375056856, 1049.0659710063385 259.4952306659832" stroke="rgb(0, 0, 0)" stroke-width="1" fill="none"/></g><g><path d="M1240.7969402524052 260.36269228127924 C1252.5167252117462 259.49006135442886, 1265.9221715790734 261.63965345880115, 1300.4708076722832 261.106034696871 M1238.5482971868469 259.8707089506143 C1261.8945520574466 259.65375043050295, 1283.9169252402976 261.01299069210035, 1299.305948757021 260.5051893428949 M1297.7755744118458 259.56068728651957 C1298.932669673301 272.7466673916429, 1298.3787972555197 282.66868423114, 1299.4945916579657 310.8649516387398 M1298.9496888846475 259.8856868909745 C1299.2269388543891 278.6951430203274, 1299.014798753071 297.91496470025464, 1299.5675314874932 310.82924031898943 M1300.3308012929383 311.6330790505689 C1277.8532979931563 311.0143857350257, 1257.190992330381 308.3462596310611, 1237.464509740788 308.8292513687053 M1298.3133211487982 310.4999976092304 C1280.8086826775466 310.1172482528238, 1263.8026228059257 310.58200150882243, 1239.7067015108892 310.546675871271 M1238.7179657326215 309.1426105688128 C1240.92328817436 294.2470541198713, 1237.513547116162 279.0593133156588, 1239.3211741867397 259.8247405901473 M1239.79317886795 309.412462862055 C1238.2281320457464 296.61921780882346, 1238.906829176854 283.4189054664058, 1238.6286799252086 259.6816259160917" stroke="rgb(0, 0, 0)" stroke-width="1" fill="none"/></g><text x="1062.5" y="355" fill="rgb(0, 0, 0)" text-anchor="middle" font-family="Consolas, Courier" font-size="20px">{</text><text x="1286.5" y="355" fill="rgb(0, 0, 0)" text-anchor="middle" font-family="Consolas, Courier" font-size="20px">}</text><g><path d="M1076.2350608686043 576.8618574718397 C1089.2625328243166 576.1212415717625, 1106.333108808081 575.9970453537659, 1126.812386477132 575.8515672329792 M1074.9586118488219 575.8617543755547 C1090.3709334883335 575.4659157787905, 1107.2483746739765 575.4446197526073, 1124.9029997493997 575.8205215990941 M1125.0999588876477 575.6189958974669 C1125.5436015439075 585.0312498234684, 1125.51990785785 596.1144043453678, 1126.4215903788665 626.890413442156 M1124.3070288041215 575.3805228798573 C1125.073552019961 587.609785202083, 1125.4873329889524 602.2214211723455, 1125.1819669367494 624.6662621658776 M1124.381140679025 624.9386677288871 C1108.1590843226472 626.864814303401, 1088.5059720438403 623.570989902257, 1075.1410268243405 624.3005074442589 M1125.957951089898 624.7401002818101 C1109.747437157925 624.8536411035028, 1094.3428102393054 625.6395552563987, 1074.8907834295364 625.5593803553892 M1075.2196258137287 623.1599770476475 C1074.8834993495464 611.4925513855719, 1073.723006757185 596.4042469594991, 1076.2789251153708 575.4503559823123 M1075.998109422762 625.0278711065512 C1074.6973136043 607.3792016880825, 1073.8135513719762 587.2367058019281, 1074.8395234016657 575.8819572092641" stroke="rgb(0, 0, 0)" stroke-width="1" fill="none"/></g><text x="1102" y="605" fill="rgb(150, 100, 28)" text-anchor="middle" font-family="Consolas, Courier" font-size="20px">idx</text><g><path d="M1074.984083844205 651.8337333787881 C1087.5299133959722 652.126108682804, 1097.7034266105704 651.1677725585732, 1125.3691288861874 648.6409063663739 M1074.5297697876342 649.1649994310364 C1094.8293295408698 650.6629023627669, 1112.4904802707513 649.5985933422579, 1124.7151920816968 650.152502206165 M1123.403725830606 651.1923944567507 C1124.6862645313865 667.4040447375827, 1125.141410453118 683.426915238925, 1123.7204456497486 701.6162336337002 M1125.6199807789028 650.4701471995421 C1124.580871213999 660.7904214274097, 1124.5688099183242 672.6993763569129, 1124.1858835147182 699.4975022556416 M1126.0826567914312 698.9390304413381 C1112.6381908106578 701.2200245874667, 1097.4230389972356 698.3330332805035, 1073.694636551961 699.8736726061904 M1125.0915679301115 699.4506978123653 C1113.4330761293031 699.0413673318218, 1101.5390070433511 698.9329612069012, 1075.0060684587215 699.9252111543476 M1076.6741659451598 701.8202486547259 C1073.7773712381518 681.2743079849872, 1074.9456599458385 662.2159291211814, 1074.195646488575 650.6748868314722 M1074.607338904023 699.590734059439 C1074.8640988824814 689.0852557549343, 1074.045166606849 676.79803248136, 1075.2197731402703 650.6926382867059" stroke="rgb(0, 0, 0)" stroke-width="1" fill="none"/></g><text x="1102" y="680" fill="rgb(150, 100, 28)" text-anchor="middle" font-family="Consolas, Courier" font-size="20px">idy</text><g><path d="M1075.2446808412542 725.9796477143959 C1087.6600417841435 725.5353723421596, 1096.5384651757986 724.8971414420421, 1124.6099320195567 724.7310778319111 M1074.7579252251203 724.0883308306841 C1092.0983195333902 725.4285697294722, 1108.7569312893725 724.6775065897267, 1125.5504825914666 724.0955116501464 M1124.364996308479 724.8670417367888 C1125.010849117571 735.7719735983604, 1125.8535133373546 744.7257904476121, 1125.384492432421 774.6421840226016 M1125.5724118650214 725.2782467277473 C1124.7748708907052 738.6729932737574, 1125.9000420897387 749.7016093540955, 1124.3221223164671 775.3054453574355 M1124.2810139834378 774.7670321797599 C1110.217193457735 775.2096163375762, 1098.354098580316 775.2022479542982, 1073.3565260485666 775.9568734378743 M1124.2003767058793 775.5522362183402 C1110.0041968486967 773.8590932239575, 1097.6490714136678 774.512669287295, 1075.1520815150268 775.6510184070228 M1073.6117320403146 776.1058824758971 C1073.097497928706 765.934137268258, 1076.1456704747918 755.5836889080387, 1075.2754009309226 725.896598756907 M1074.3147285403916 775.1470730985426 C1075.071891214463 759.4144630502279, 1073.5505139288925 744.7215087939069, 1074.3347873461355 724.7241322350208" stroke="rgb(0, 0, 0)" stroke-width="1" fill="none"/></g><text x="1102" y="755" fill="rgb(150, 100, 28)" text-anchor="middle" font-family="Consolas, Courier" font-size="20px">idz</text><text x="1156" y="605" fill="rgb(27, 14, 139)" text-anchor="middle" font-family="Consolas, Courier" font-size="20px">:</text><g><path d="M1176.0880597097535 573.6489815725402 C1195.640968254657 576.5704825230252, 1217.6806718763396 576.4573273541074, 1236.3919431093225 575.6480654976937 M1175.134698333908 574.5150637164402 C1194.2374414047647 574.2155483294557, 1213.8541892800592 574.3505632300142, 1236.0218184970267 575.2343313992039 M1236.780421650819 576.1889657568355 C1236.325942206347 588.651738362861, 1234.8117753394736 603.1788205458178, 1237.5418463071392 625.0958101778527 M1235.4643048343196 574.3801519617598 C1236.3048795824516 589.9062294185994, 1235.6564585902834 603.2285567440738, 1235.0564359224388 625.8529212263029 M1237.2195921617426 625.8755105826938 C1211.3766293522956 623.3904507544548, 1188.879415731517 623.850993321241, 1175.904104131342 626.1119907384079 M1235.2694559216557 624.2130368007538 C1219.6642219867242 624.1315977005357, 1204.9709934540099 625.273793214572, 1175.8654676522506 624.5420029022849 M1177.3277833244172 626.3423781927887 C1174.7154311197414 614.0597347060465, 1175.1536949306599 601.5980240043918, 1176.3125858907495 574.3997169150176 M1176.8135999812635 625.1512231340232 C1175.3064404145828 614.0866923972194, 1175.6170705979564 604.0166274614589, 1176.5220682348197 574.861472608786" stroke="rgb(0, 0, 0)" stroke-width="1" fill="none"/></g><text x="1206" y="605" fill="rgb(150, 100, 28)" text-anchor="middle" font-family="Consolas, Courier" font-size="20px">id81</text><text x="1156" y="680" fill="rgb(27, 14, 139)" text-anchor="middle" font-family="Consolas, Courier" font-size="20px">:</text><g><path d="M1175.753857576517 648.5094964491836 C1190.0126325602926 651.9331723211691, 1207.5951204817788 652.1607300466924, 1249.8453821961255 651.4475411321744 M1176.8114492905434 649.5366554146278 C1197.8819960649148 649.4945981750851, 1221.4192805550003 650.016610523785, 1248.9881020669204 650.4251003638941 M1247.738571505211 651.0731234974368 C1248.6024690847003 659.921984879816, 1248.734301811642 672.8994815103975, 1248.0114163745723 701.4524243909896 M1247.8843871952006 650.7263738056624 C1248.9475893488736 666.3562454869392, 1248.405373818645 680.8515134599292, 1247.888449374385 700.9275237616597 M1246.831801935969 701.039280816678 C1221.67505793995 699.2018258844031, 1193.0449898425427 699.8826141226502, 1174.503989554597 701.4173038255776 M1248.1505832088228 699.15031158106 C1231.5553442048124 700.7851069264314, 1214.8515055815674 699.8725772616331, 1176.2169879303126 700.5796902852562 M1174.5494746943318 701.8645325365453 C1177.6937388586603 685.735493670553, 1176.2420261097482 675.2451769769684, 1176.3247047722593 650.350265806219 M1176.2199116971829 699.4853006486327 C1176.419734263105 684.7240224326434, 1175.9842077127275 667.600025021005, 1175.6699714214144 649.1143599702277" stroke="rgb(0, 0, 0)" stroke-width="1" fill="none"/></g><text x="1212" y="680" fill="rgb(150, 100, 28)" text-anchor="middle" font-family="Consolas, Courier" font-size="20px">id100</text><text x="1156" y="755" fill="rgb(27, 14, 139)" text-anchor="middle" font-family="Consolas, Courier" font-size="20px">:</text><g><path d="M1175.0412473148008 723.3831240313933 C1205.77468261735 727.4001704852153, 1230.7601157974239 725.9495412923303, 1247.5858677590059 723.3622059261771 M1176.6663065712978 724.2070360059253 C1192.857178124674 725.7606905588776, 1211.921877314428 725.746050756235, 1247.5808938088333 724.1401712784058 M1248.4462570873345 726.8412273268266 C1247.7857309496007 737.7712805854542, 1247.7423754236079 746.5811081363853, 1248.6183736772275 774.6460402355782 M1248.8810386823016 725.9110295480061 C1247.076913374154 742.3700141081921, 1246.76336318887 760.0364664283994, 1247.0393331278383 774.4863377147909 M1247.9857406976982 774.4838472410263 C1229.450512095742 774.9373585231858, 1215.2030160992701 773.7216465790125, 1177.5278741798802 774.8635839268422 M1247.2906065088114 774.1479171789475 C1223.5402914424178 774.4935641651464, 1199.894953468569 775.6792742051617, 1176.0239830366886 775.6251890467393 M1174.219878744924 775.4951169880227 C1174.9368924540265 757.6389205196723, 1175.781085179803 740.8307587435993, 1177.2705926266221 724.6282543750291 M1175.6281806656657 774.1851455812393 C1175.6154836029823 762.1381857284766, 1176.0703825226262 749.2238387846623, 1176.3499541976798 725.4499231671548" stroke="rgb(0, 0, 0)" stroke-width="1" fill="none"/></g><text x="1212" y="755" fill="rgb(150, 100, 28)" text-anchor="middle" font-family="Consolas, Courier" font-size="20px">id121</text><g><path d="M1050.3292878009495 498.885141594122 C1105.7961478469517 498.5495752104998, 1160.0159999486834 500.0392517779891, 1263.430825591127 498.9613840297808 M1050.0513532700909 500.14497641129543 C1099.8066488322313 501.25843674858703, 1148.771533269307 501.97741433146473, 1261.9348050422095 500.68130363894613 M1262.7093874799389 499.69764830479903 C1263.0569905758143 591.8574980996531, 1260.6884621577697 683.4534096697232, 1261.5578360454745 800.0913641882622 M1262.3049788266228 499.72612356858184 C1262.718886937778 592.0061406726387, 1262.8215933527154 683.7981087972745, 1262.427927148098 800.4883536230012 M1262.4538114699271 800.0487757927073 C1199.3880906214124 799.1711110279432, 1134.3245534564492 800.6315018941416, 1049.9264655823065 799.0200957472313 M1261.3248455862397 799.5315583403132 C1179.4264356866054 800.784277898191, 1097.5208649086176 801.7600857938055, 1049.981799902135 800.2962678382698 M1048.9418254067803 798.8026867364829 C1051.7197303063385 712.0954531811341, 1051.7369984544857 625.2897267574342, 1049.5784336168667 501.25400156032674 M1050.4758920850825 799.738539766852 C1048.4770954838496 689.3689292502221, 1049.2665896015305 578.773311850462, 1050.6286488581145 499.843451983859" stroke="rgb(0, 0, 0)" stroke-width="1" fill="none"/></g><text x="1080" y="530" fill="rgb(150, 100, 28)" text-anchor="middle" font-family="Consolas, Courier" font-size="20px">id10</text><text x="1232" y="530" fill="rgb(27, 14, 139)" text-anchor="middle" font-family="Consolas, Courier" font-size="20px">dict</text><g><path d="M1048.2018984106012 500.75913714379067 C1069.874620689172 499.7059775387141, 1091.9208446648504 501.56661749299576, 1109.457775753889 501.3564182978258 M1050.5575952317724 500.5475721286735 C1065.9928447375155 500.1875171734356, 1081.8899381963988 498.45393210129373, 1110.4824073013876 499.45179784988795 M1108.0372331369426 501.84349485267694 C1108.3575187860172 517.6476476258958, 1108.229749891336 538.837128473722, 1109.8738656557828 551.8114447026301 M1109.7605098497722 500.3259736982362 C1110.2404744308747 513.1302600804972, 1109.8799601262117 526.9124794887259, 1109.7578380841521 550.4701711657846 M1111.4037679341548 549.5668264398613 C1091.9151156543167 549.6765906041022, 1070.369211399167 550.9818063094913, 1051.7476597299546 548.4289843109078 M1110.2951908199582 550.3441556663524 C1090.4196539404393 549.2413289677661, 1068.5553520969104 549.3537904995885, 1050.899026138375 549.1998674509122 M1051.2326967860633 549.7975401593769 C1049.7422398796682 536.0726932445552, 1049.3417310970412 525.9018174645962, 1051.7451773294056 501.7829288925338 M1050.085053129771 549.2140782722915 C1049.026409171363 537.9231991649586, 1049.9632605202542 525.0384913860061, 1050.6465657572214 499.90835298768354" stroke="rgb(0, 0, 0)" stroke-width="1" fill="none"/></g><g><path d="M1203.4446339563212 499.85541107384745 C1224.3549626104968 499.9284548120762, 1242.1815612883704 499.30805366384044, 1261.0455857808925 500.78282674630736 M1201.8247293567279 500.8608287478769 C1219.6603064897442 499.49242064344793, 1238.2081371118416 500.16959700429396, 1261.0296972125948 499.8619899077272 M1262.6222924350297 499.36021274889913 C1261.3589612656813 515.5850883151238, 1261.8119438953702 533.9424203674405, 1260.0123890946684 550.9092912982969 M1261.1144179128162 500.2451455548487 C1262.3576061588453 513.8524649049963, 1262.6124843037187 527.7884667210028, 1262.7429744487488 550.1970364318566 M1263.8717304370678 551.2316295839358 C1239.8102733315066 547.7822337635192, 1222.0716500254443 548.0197410576536, 1200.2241376244265 548.027590808114 M1262.8380362903047 549.5898766869933 C1249.2867857443102 549.3537574808701, 1236.8123460043382 550.4136089562517, 1202.8891479048752 549.3816510298843 M1201.511763769632 548.491042424026 C1203.4638019869062 532.8123492993087, 1202.2378326899172 513.7488834912022, 1200.443248380724 501.6546547299838 M1201.9766013627532 549.3868652909093 C1202.7626898575002 535.5125311930319, 1202.5155078826215 520.9666642637707, 1201.5798270627063 500.55646290725764" stroke="rgb(0, 0, 0)" stroke-width="1" fill="none"/></g><g><path d="M749.7431896943158 751.2997766095363 C809.4530409486182 752.7270697618283, 866.9011246107498 751.9202064291427, 950.0852603069956 749.6729968040386 M749.4042556022831 749.8539706090811 C828.6875633533273 749.9988231205137, 907.8553426129588 750.6124149677202, 949.2980055052269 750.2464110296319 M950.9770586950041 751.3865544388335 C948.5376201758778 785.8442010071118, 947.3192461780445 822.511627575438, 949.1942480109267 881.4197947016536 M950.0956322394867 750.8319040901293 C950.0889395835501 790.3855859757729, 950.0660256688615 831.6550520229542, 950.2075739874698 879.6886632955935 M950.305882814505 879.1161479694039 C892.0791981885384 877.4182512111247, 831.8209749174894 880.0936982032831, 751.0338418781948 879.5741665379918 M950.2781311877142 879.5650626985342 C905.5892161639732 880.0908348623551, 861.2598412767671 879.8464962335286, 750.2194110878137 880.1669287444442 M748.4532004944984 880.1020305707973 C750.5815556506354 842.6858617659838, 750.7658018480066 805.7570645825277, 750.4705874452443 751.8825946214462 M750.2067850080804 879.1301271454245 C749.2663310005 843.3565744698154, 749.0059631350964 807.1576042982311, 750.5388357260907 749.3338452411283" stroke="rgb(0, 0, 0)" stroke-width="1" fill="none"/></g><g><path d="M743.0644555848787 745.48640788092 C789.172927937479 745.0326574736127, 836.073233540635 742.6762460824797, 956.3995634171658 742.875701912016 M744.2215567549363 744.2809408495671 C790.4549160836417 744.1716603947433, 836.864405767464 744.1414439371475, 956.3930171875498 744.1085863797026 M957.0755140605942 743.5435595224009 C955.4288819804151 792.9266216522052, 957.854798347642 840.6817029628785, 957.7441224205241 887.3166270675524 M956.6448430637655 744.9295746276189 C957.4828912559408 785.6740847403041, 957.2541582131419 826.452235163885, 956.5495290092504 886.0926649338824 M954.9632442969539 887.0868766483519 C873.8411580355626 886.4128146739021, 794.4511504842791 885.2421643555957, 742.2678936632093 886.535188685321 M955.5865777824123 885.6061823363805 C909.6438563749734 886.91931841078, 861.8190360089475 887.791623125966, 744.2310784116904 886.4402047793114 M743.7043798995417 884.0866586079119 C743.6391978360332 841.9658549130753, 744.0249176794227 798.6376311211214, 744.743108115496 743.2837539610044 M744.7803171963837 886.0183241337697 C743.5983736191455 851.4913766812624, 743.5228726359478 817.2341773870271, 744.3878272913306 744.7928210557332" stroke="rgb(0, 0, 0)" stroke-width="1" fill="none"/></g><text x="850" y="840" fill="rgb(27, 14, 139)" text-anchor="middle" font-family="Consolas, Courier" font-size="20px">"None"</text><text x="780" y="780" fill="rgb(150, 100, 28)" text-anchor="middle" font-family="Consolas, Courier" font-size="20px">id13</text><text x="920" y="780" fill="rgb(27, 14, 139)" text-anchor="middle" font-family="Consolas, Courier" font-size="20px">None</text><g><path d="M751.036442233527 751.9824887411996 C760.9935498346312 749.9407973242545, 776.4412552840744 751.5448633494548, 811.4239231971736 748.4728934675678 M750.3308068747672 750.6227199571 C772.5409868358707 749.8083626104996, 795.8494038392043 749.0229927187958, 809.753000042901 749.8096809636481 M810.202924484747 751.6251013997598 C810.7589047430406 766.7799890161265, 809.7367219286087 781.8216516193454, 809.2125814767126 801.3346390650942 M810.6417578886478 749.1913108020641 C810.4044847020666 769.1967872921634, 808.8166268495746 789.4362528636375, 809.5814029978094 800.0320333141935 M810.9955405068963 798.137115502706 C795.3882552406318 801.235753550046, 780.7233583536748 801.9538696223284, 749.8501862001982 801.5078656632057 M810.3295730177848 800.9492011580079 C791.8058761688312 800.843983525693, 772.0017119131585 800.2013439476839, 750.7654808117367 800.6119226280202 M748.1545355354633 801.8474668748091 C748.6477377267389 788.4844602589187, 751.5062934183929 778.3777306086159, 750.5714954008714 751.5264523984827 M749.9388907438215 800.338262901546 C749.6555159877012 788.7847549579822, 750.5142172396536 778.6052299236745, 750.9021826067108 749.430709329033" stroke="rgb(0, 0, 0)" stroke-width="1" fill="none"/></g><g><path d="M889.1583219935005 750.0885365090342 C901.3687096939378 749.9284003981571, 915.8324916868063 751.691876009987, 950.9904551361375 750.042361202571 M889.6184801522519 750.9458490234764 C913.0513560311485 750.0179101513355, 935.9825383413602 749.2253022960243, 949.8292100662997 750.2587827708344 M950.8632164144512 751.829221165862 C950.2376527249638 764.2233911982502, 948.558548335365 780.9601765679787, 949.9512141252621 798.9191506417685 M950.6538605356693 749.2561794492756 C950.7267763527652 762.8528715051956, 950.1871827712085 773.454899033564, 950.6688824605604 800.1700242496852 M948.063096396865 799.979863682827 C930.9408204231835 798.1677715723945, 916.5348146838113 798.8607032647081, 891.3311578584996 800.3160683971964 M949.6563898016929 799.7665052711658 C926.8274887630348 798.7480707426056, 904.9638321210349 799.930680663116, 889.3825940625256 799.5157658683595 M891.1065981855852 800.0074616797472 C890.9664780973404 781.9213976930225, 890.5292836549536 759.399511630766, 888.3759411530169 750.6694410121996 M890.4255984238176 800.7976544733676 C890.7026338816572 789.3983165689248, 889.1494252616944 778.725585217227, 889.7982585878412 749.3757899083736" stroke="rgb(0, 0, 0)" stroke-width="1" fill="none"/></g></svg>