<svg width="1300" height="1480" xmlns="http://www.w3.org/2000/svg"><g><path d="M24.11970459659936 30.15356216658377 C78.14033960504847 27.280041696515667, 133.62105591236457 28.10472554504578, 221.08684478778014 28.911940217497403 M24.79234251670372 30.384425718085495 C68.08817998719336 30.082834111441983, 110.40307514820904 28.981401647483736, 223.40786665857433 30.481918816321024 M222.31316267277805 29.217268140434644 C221.77962530321972 174.92556984479742, 223.34268994249257 321.8917106485754, 223.89001485727522 479.8745333387124 M222.77110367417805 29.670926032294716 C223.36283572305072 184.85813531936688, 223.33476146182474 338.8686539680366, 222.79996913372477 480.2703037364195 M224.43852230328935 480.0564743893832 C176.6870362324858 478.62519185489975, 127.20708250607308 478.50542927749837, 23.36337039648654 481.88466091299887 M223.6617277190617 479.9524257641694 C162.0145349642537 480.15677668020834, 101.32736677925767 480.9443522919463, 25.18163932585481 479.40556487860084 M25.214560340264832 479.80620207087884 C24.53948752985059 385.293502075504, 24.596250890577117 288.62822146726944, 25.223413403304413 29.483513526361765 M25.15726345037194 480.11596380976096 C24.425890207512825 366.0175611195634, 25.179858871450854 252.73955829874174, 25.229033523688305 29.998158943177323" stroke="rgb(0, 0, 0)" stroke-width="1" fill="none"/></g><g><path d="M148.5794856048448 106.1087370053666 C170.26833462417892 104.7271733771945, 190.11855720047987 106.23121523794795, 204.54460215862227 103.97263090693016 M147.03874489507388 105.30278318405185 C168.6269739131987 104.60481121571199, 188.25340220210796 105.57802263362406, 205.46737197291472 104.71195815502566 M207.95184905248527 104.67940316943398 C205.7760265256845 125.44573657060354, 207.49870070493523 142.85222106799563, 207.0408455480978 153.19909268054155 M206.64495060384542 105.20670725771399 C206.92127151655552 119.03677823701652, 206.19904725995576 131.3224226934794, 205.15158490159456 154.2229668120746 M204.36344547958524 153.4290320968838 C189.07627861195155 155.69256136092977, 172.35984680990492 155.64386944114264, 148.87760085054038 153.57203923564734 M205.0185820721362 155.77831270702617 C185.5225376927446 155.99953582555773, 165.43106439471958 155.46764999201136, 148.4143698818319 155.355238063617 M149.99735828537194 155.59761179292644 C146.43702002778275 140.67422042936948, 146.4520904078597 127.68473645754915, 146.92109971812988 103.1329561272403 M148.4063950927472 155.6761960381301 C148.00642808577916 135.93241560449138, 147.2818373972141 114.93487375706522, 147.01625995041067 105.76096217022376" stroke="rgb(0, 0, 0)" stroke-width="1" fill="none"/></g><text x="50" y="135" fill="rgb(0, 0, 0)" text-anchor="begin" font-family="Consolas, Courier" font-size="20px">lst1</text><text x="177" y="135" fill="rgb(150, 100, 28)" text-anchor="middle" font-family="Consolas, Courier" font-size="20px">id82</text><g><path d="M146.97128904113944 181.9815631466704 C169.09511483389056 180.81345833557765, 194.8316943220717 181.40647510286877, 207.44032219410906 179.47777770399836 M147.4266167992598 179.05820265447946 C168.65599268337607 179.0691828144055, 190.05222163472033 180.272590076652, 206.15493457185835 180.657487611214 M206.80212733192857 178.43289757718716 C206.49690787514712 195.42376436529332, 207.20595626183183 212.79056234351575, 207.74587959999812 229.73361359980973 M206.93107730652955 180.06098203360344 C206.34879284130005 197.91103289314552, 206.25882203246942 216.7111514399519, 205.66312676540653 229.9867742458364 M206.91639198506886 231.96269901239833 C184.33791523107425 231.52976296142506, 163.3562022479175 229.7719241207995, 146.4333503937944 228.61208452770222 M205.0844297571088 230.4250242628889 C191.52924224380737 228.80427590818547, 175.55502347941265 230.7069159770816, 147.2059181802816 229.10465936252126 M148.3691306784779 231.86539020873812 C146.5593276977453 211.7092630738209, 148.79901224709184 191.0766836776806, 148.01955251851297 179.29336658508294 M147.8064264122512 230.9177850283664 C149.25865686809783 212.2413543771013, 147.910775114441 197.08122818376057, 148.2128531977231 180.7040995654161" stroke="rgb(0, 0, 0)" stroke-width="1" fill="none"/></g><text x="50" y="210" fill="rgb(0, 0, 0)" text-anchor="begin" font-family="Consolas, Courier" font-size="20px">lst2</text><text x="177" y="210" fill="rgb(150, 100, 28)" text-anchor="middle" font-family="Consolas, Courier" font-size="20px">id84</text><g><path d="M148.21689248767376 255.23636142978674 C168.47144580669843 252.91567516764084, 187.81858720699566 256.42797304406963, 204.85672307240782 256.75788507609633 M148.30946874776663 254.9874761369922 C163.09994247170977 255.19499905977608, 177.38464733772705 253.75843808740925, 206.2075971469041 254.5949206052541 M206.7986345802997 254.00406784592286 C205.11542875332586 268.91127812629253, 205.5160790996671 287.9071724146363, 204.97137623456683 304.3695710197421 M205.80848838539828 254.6200268231787 C205.3008790359749 266.8483421109833, 205.30263003387017 278.67640814937346, 206.22367301006787 304.3496126237877 M206.1383838126439 303.9450424462425 C187.1676910414935 304.43521329728173, 168.8874632599156 305.18707723006963, 148.6717601590882 303.8535004688318 M205.93797875147763 304.7899458175551 C194.4230246645909 305.02763728771447, 180.9037538355629 305.6516008321132, 148.47207479250088 305.89440888404624 M146.80185413945208 303.6724047087842 C149.53318748479614 287.8824478624517, 149.66057072379994 267.75622641952975, 147.26934820564605 256.198893101841 M148.76015290474584 305.29540126249094 C147.54518943285387 285.7460600386969, 149.04025065132183 266.205780777932, 148.7432646759391 254.91537323584484" stroke="rgb(0, 0, 0)" stroke-width="1" fill="none"/></g><text x="50" y="285" fill="rgb(0, 0, 0)" text-anchor="begin" font-family="Consolas, Courier" font-size="20px">p</text><text x="177" y="285" fill="rgb(150, 100, 28)" text-anchor="middle" font-family="Consolas, Courier" font-size="20px">id99</text><g><path d="M146.71007820591657 328.5575299745334 C160.80066518729427 328.67453620708227, 172.59922404811363 330.1665898997769, 206.2310302655467 331.7967334100099 M147.63937871490157 329.4526707852719 C161.11380188824052 329.47628509374454, 176.2677311067058 329.0078749424414, 205.81914348030907 330.43252321389497 M205.1240255805561 330.23609819802556 C205.92042686814742 347.51995130181643, 207.37886220287382 362.9010556099642, 207.01892245733444 380.9520783729484 M205.45522969539797 330.0082674010989 C206.48498053805426 341.85091648466664, 205.47089381294612 353.4553593303495, 206.1249769204863 380.2859393471247 M205.64804462812506 380.9220084722424 C182.784573284209 378.9608459935735, 160.87107958636128 377.8890159291472, 148.30888219455 380.25966456443894 M206.24347443535038 379.58951404086923 C192.2913813755558 380.41307414173326, 177.55148689505555 380.69179645126275, 148.6925042030718 379.99627948948574 M148.90614771863983 381.64657556712 C148.58474303681223 368.922046981807, 148.56160451194873 354.6870522409303, 146.90311427050506 328.79492488012255 M147.19647468338732 379.75057085556836 C147.80101485251697 362.86706262503475, 148.15748721019494 344.8385536165373, 147.36016833112103 330.903937804883" stroke="rgb(0, 0, 0)" stroke-width="1" fill="none"/></g><text x="50" y="360" fill="rgb(0, 0, 0)" text-anchor="begin" font-family="Consolas, Courier" font-size="20px">d</text><text x="177" y="360" fill="rgb(150, 100, 28)" text-anchor="middle" font-family="Consolas, Courier" font-size="20px">id10</text><g><path d="M147.51937958703593 405.0848838392258 C171.7451601476115 404.83685073682335, 191.29850772503332 406.7077275767858, 204.2631557048518 403.3175945132982 M148.77307628257782 405.7059546375585 C160.75022894876707 404.8321383068753, 174.11813961650077 405.13062157521097, 206.72143578097717 405.15568657163476 M204.98673872884825 405.73873532028244 C208.21091771309761 418.87321102211644, 205.1633030307635 432.3511160879304, 207.29173399995852 453.554856549412 M206.722374397197 405.36519932107524 C206.05775621495135 424.74942465290684, 206.791182307997 445.0676927114343, 206.45445268366896 454.9978766817646 M204.23672174206484 455.94964925645615 C185.90308163677008 455.8054111141594, 168.33042951497336 456.76062017461476, 146.8993350442909 456.5541196514652 M205.78451184355276 454.5495881976304 C192.994835622895 454.6492260140813, 178.9046965968739 456.11018638278387, 148.2611169372404 454.0990437166847 M149.050836703941 454.5528787746194 C149.17166735936243 445.0200249412295, 148.33825022106012 433.4319828556418, 146.61337122927236 403.56956488519586 M147.34863120769086 454.9131555458295 C147.7691927196705 440.9181941859021, 147.13095569501084 427.01140958566634, 148.703701636868 404.2730721296927" stroke="rgb(0, 0, 0)" stroke-width="1" fill="none"/></g><text x="50" y="435" fill="rgb(0, 0, 0)" text-anchor="begin" font-family="Consolas, Courier" font-size="20px">t</text><text x="177" y="435" fill="rgb(150, 100, 28)" text-anchor="middle" font-family="Consolas, Courier" font-size="20px">id11</text><g><path d="M26.885666530729665 30.65588581179977 C62.44289969194714 28.43057786253921, 96.88250617849431 31.32734131347864, 130.15417189950395 31.757905222341208 M24.21055972535896 30.40093198322177 C67.6581456292943 30.687923969257156, 108.95750541775328 30.926923289027282, 130.60396440384687 30.225402943829508 M131.69801135377986 28.915978519046316 C130.98091216915913 49.97993716123051, 132.71480534223568 68.77143944031229, 129.72335450987663 80.01332667707568 M130.7748909133951 29.37395285470951 C131.34581567084402 42.34375915011441, 131.17422497062648 53.056007312495275, 131.632393095899 80.14389064685042 M132.37912759180307 78.95770582165738 C96.0085062371137 79.7191582372987, 58.94581749078502 77.78157916312183, 26.555126717376012 81.19125038489457 M130.51860414559147 80.7819634215465 C103.65235350339842 81.69507904994327, 74.18436405624306 80.464342242774, 24.6415830243874 79.21049952953004 M23.809664584251774 79.58777093923297 C24.193143835633037 67.21439184067155, 23.013791502411433 56.21138116001491, 23.352244272583686 28.52334115070294 M24.859095163522852 79.71754284909615 C25.18423463281416 69.91397845427939, 23.728982432723768 57.83432139146848, 25.67228721980895 30.234222269890317" stroke="rgb(0, 0, 0)" stroke-width="1" fill="none"/></g><text x="78" y="60" fill="rgb(0, 0, 0)" text-anchor="middle" font-family="Consolas, Courier" font-size="20px">__main__</text><g><path d="M25.00909887443209 480.34379836942134 C89.9721423490252 481.99295758506867, 156.1166339361998 480.8412997841457, 222.40691377445586 478.54042238802776 M24.516110173397838 480.30312996162104 C85.3130692464087 479.0835706426823, 145.66589080314296 478.3848154530462, 223.785016600902 480.2213476093119 M221.6741188205051 480.16967954302794 C223.48099510555446 535.7670922609042, 224.44282479079232 590.052341326932, 221.96403913398842 705.4523078188739 M222.9750024266183 480.6688460803063 C224.61403337446518 543.4720627974233, 224.60667698959438 608.9364158775568, 223.7949057118493 705.1010050136804 M223.24688818388313 706.5240493651112 C153.96294811667767 703.2603971989223, 79.13179762672719 705.4440797593612, 24.408401731759326 703.3712547218522 M222.38455819720318 705.7713035937176 C144.56114357503708 703.8791020081954, 65.64143670605824 705.2417734425732, 25.54880571895846 704.8934234250902 M25.862985455439986 705.6375776590426 C24.69792323864682 649.3641022722126, 24.78158871763535 594.2198285079595, 25.290827630724916 479.21489528405385 M25.521483217841247 704.4581364453422 C24.99469857434786 626.3594643667732, 24.196947934326346 548.7255300075141, 24.725766124643187 480.5339612642156" stroke="rgb(0, 0, 0)" stroke-width="1" fill="none"/></g><g><path d="M147.00530182983167 553.0914574797789 C169.60725160553096 553.9315665530206, 191.43708485771177 556.3674808661103, 205.15354786105667 556.4370504760692 M147.61895450574798 555.3018794699975 C170.37818523069748 555.6668917968533, 192.56553012637517 554.7664116780259, 206.46320546577186 555.7223034160784 M206.70277374385407 556.0841442872065 C205.52676904884314 568.3256564391199, 207.75097596731405 578.901503038625, 206.1353617134309 606.5369997815903 M205.9920000741393 555.1401179735086 C205.27713894806166 569.2928253842049, 206.23874364577802 581.8950991785325, 205.7355219256319 604.6505615818298 M207.24950423744008 604.6743346008071 C186.7416040979959 605.1080192945077, 168.71287825484686 606.5680222986363, 146.49590367849476 604.1945665630054 M205.38832339439466 604.5020634455423 C189.43861240963298 604.9292317496815, 170.45426846690322 605.7798188369142, 147.6272596939627 605.784449591512 M147.77697640969976 605.574595442602 C147.2725467814334 591.8016602352828, 146.18565098995566 578.7447610760472, 149.54875048091762 554.9524609981498 M148.0940957794653 604.0396848522608 C148.89927243753536 584.3877787357599, 148.6150875026439 565.7497716617931, 147.78313643780976 555.6015954272443" stroke="rgb(0, 0, 0)" stroke-width="1" fill="none"/></g><text x="50" y="585" fill="rgb(0, 0, 0)" text-anchor="begin" font-family="Consolas, Courier" font-size="20px">age</text><text x="177" y="585" fill="rgb(150, 100, 28)" text-anchor="middle" font-family="Consolas, Courier" font-size="20px">id12</text><g><path d="M147.4107907540419 631.8127383409518 C162.1424771038862 628.1211528857427, 176.02672521783325 631.4266978978739, 205.2593224802555 629.1225694683806 M148.56459173772703 629.233074967476 C161.8561074079793 630.3131297870116, 176.08312907647962 629.7187577236637, 205.80348884734138 629.6179669612934 M206.1825075771483 631.7431159278524 C207.37104857165514 642.8800373747432, 204.50304341304545 652.7655816269282, 206.7988837903071 678.3749931632865 M206.28941178423557 630.2856226536535 C205.13938652489338 643.3414367637811, 206.7479332117922 658.9306233756782, 206.01979207966008 680.3427726096163 M204.55714370156917 680.1627761672731 C187.46191834570755 679.4639919122855, 165.24906589333736 679.7669346573871, 147.85018497995398 681.1016783708104 M206.8611394738296 679.2696752684914 C188.9228199540015 680.9275485988328, 171.07583389221733 681.0044862265632, 148.54572986259672 680.5874895645926 M149.75142800052996 679.0049164245066 C148.55439475119314 665.542876627484, 149.50293540074836 652.0263453697669, 146.29239688162676 628.6370422797042 M147.48771518828482 680.4857836663527 C147.86208132010916 668.1530992734713, 149.2365450485762 656.6217935677889, 148.62950797003467 630.1531745709058" stroke="rgb(0, 0, 0)" stroke-width="1" fill="none"/></g><text x="50" y="660" fill="rgb(0, 0, 0)" text-anchor="begin" font-family="Consolas, Courier" font-size="20px">name</text><text x="177" y="660" fill="rgb(150, 100, 28)" text-anchor="middle" font-family="Consolas, Courier" font-size="20px">id17</text><g><path d="M25.64018733826273 478.2002765659325 C52.866221894240056 478.17408695800077, 81.14012549359657 479.4350116882922, 108.65978330667389 478.0037272520475 M24.963726101325125 479.2177260727492 C48.98962162853821 479.6450388582457, 70.917457475293 479.9382106203454, 106.28661187143467 479.4471910313284 M107.97511599510052 481.4430759469738 C107.15503716112822 499.90920576060637, 104.98375537812285 516.89266356354, 107.30393243341459 529.6578907873044 M106.83633542958441 479.9581196187451 C107.78978182942367 497.2674278930584, 106.9075420867614 513.7587939756946, 107.53846060712962 529.0578806486386 M105.00106590582213 530.8409782571164 C79.11360322595476 531.5022975674522, 52.097827947086664 529.2305352071725, 24.736294578452043 531.6702822689921 M106.29709831483692 529.3550690928633 C82.27820085697397 530.1651785252117, 56.50171476555795 530.9087307465732, 24.622493600366433 530.9011976550833 M24.57548616045501 528.323994406199 C23.984073923754224 518.8137767479905, 26.648494136539224 506.2279883415359, 25.979055503214052 478.44831647363253 M24.307018240384817 529.6817536290201 C24.709287251364284 509.16689494794025, 24.20808064678922 490.8177897944892, 24.68385925657047 480.0717837927711" stroke="rgb(0, 0, 0)" stroke-width="1" fill="none"/></g><text x="66" y="510" fill="rgb(0, 0, 0)" text-anchor="middle" font-family="Consolas, Courier" font-size="20px">Person</text><g><path d="M26.14504161593199 703.7613335230021 C91.27151510591202 702.9997773141447, 159.8171375331839 704.8272324061484, 224.3295840761093 703.9200411829576 M24.984035148813007 704.9327952321424 C68.62819434431496 704.7362830729966, 112.06385467756726 702.9313747099175, 222.18948227445466 704.6791635405634 M222.05709238080007 706.6624299601606 C224.7292804029054 789.1322607345693, 224.06921127683535 874.4246989360929, 223.46187483594662 930.72115677254 M223.17961314550138 704.3890566373959 C222.68604425475294 783.1166027843846, 222.73440134954424 859.875433413994, 222.26671240208688 929.7866218178632 M222.8495727983426 928.8014473932797 C176.7712866843175 927.2797534096098, 133.07904065123196 930.2211299279475, 25.39974098832711 930.9032959489945 M223.73623350712538 930.8208232740344 C153.16668447134197 930.2550974454563, 81.49341798033808 929.015565699693, 25.97238438361837 929.5263154502323 M25.027510379258914 930.0169773190852 C24.563803316653992 876.0490750706825, 22.975563331679748 824.3303678385262, 23.4989610920987 704.4548082396343 M25.79808613985117 929.7587823057804 C27.350237735961155 856.9235126879347, 27.508696482828224 784.6770844501655, 25.782054507215783 704.2537016857209" stroke="rgb(0, 0, 0)" stroke-width="1" fill="none"/></g><g><path d="M146.67571222597573 780.2177557545183 C161.45129380632798 778.8128895597284, 175.1711524718529 778.4343432652403, 199.74928532640635 780.3201753895885 M147.96327330891307 779.6329197514891 C160.00849756172656 779.0153680830081, 170.38213421397927 779.5800234583245, 197.8068305266159 779.6871380097015 M199.36743763287075 781.3774526598069 C198.08019054367784 794.6747668908581, 198.49551294889167 812.4168557222724, 196.38631842016284 828.0651373811166 M197.7298331081023 779.7834206051615 C197.22211165755465 796.4658683153485, 199.04530286587692 811.6168354917028, 198.9972360546279 830.1444984201228 M198.53041901798997 828.4194613858571 C179.32203626993953 829.1497105642719, 157.9485558704206 829.4496749105751, 149.22866856803768 830.8753401216462 M197.4686741776006 830.9814837733315 C182.33359095169914 830.1048640769748, 168.2506281871222 830.7357152405181, 148.09767524914128 830.2400526406982 M146.29040986309485 829.3301262624932 C147.88479906157593 817.1855228834754, 148.86001588355742 803.7228266239019, 147.56163746874918 780.0548473582174 M147.13423741608304 829.208894109506 C148.44393462155574 819.0533438160206, 149.1002727184199 808.9295737281885, 148.7760030569019 779.3583677530108" stroke="rgb(0, 0, 0)" stroke-width="1" fill="none"/></g><text x="50" y="810" fill="rgb(0, 0, 0)" text-anchor="begin" font-family="Consolas, Courier" font-size="20px">age</text><text x="173" y="810" fill="rgb(150, 100, 28)" text-anchor="middle" font-family="Consolas, Courier" font-size="20px">id2</text><g><path d="M149.27946510352194 854.280206578607 C162.012766405231 854.9311512037982, 177.85215952560165 856.5749579771422, 207.49154598335025 855.2968714711217 M148.94126166812893 854.7626673325776 C163.24675486057396 855.4534359474566, 177.95430109232402 855.4642126786233, 206.5670659588309 854.1741293170089 M205.30042896672762 854.1896029843343 C206.3775136499481 864.080562123718, 207.24000988173935 876.5659873116847, 207.18386578695194 904.3125634407235 M206.7785114569996 855.6730696228389 C207.33071831403095 867.1890806004474, 205.54922568454467 877.7747890898455, 205.08545480057398 905.5273000426635 M205.30650423964107 904.8853372266702 C188.00960961098116 903.1103292624467, 173.78868378203066 904.7033423514331, 149.27933204216436 903.9596460065673 M205.92970388373251 904.2849725816843 C189.24831023152265 905.8616053541858, 173.2003352684507 906.19451440001, 148.01693739242216 904.5869918152689 M148.95584373503212 906.1026030517558 C148.71184180941194 891.6544040645306, 148.0744452749519 879.6902685441426, 148.1782910797295 853.8627518597777 M147.51266448060997 904.8673356571654 C148.28964816328556 885.9898222967108, 147.43160379318934 866.7149592146194, 147.45672976026242 854.9238210461397" stroke="rgb(0, 0, 0)" stroke-width="1" fill="none"/></g><text x="50" y="885" fill="rgb(0, 0, 0)" text-anchor="begin" font-family="Consolas, Courier" font-size="20px">name</text><text x="177" y="885" fill="rgb(150, 100, 28)" text-anchor="middle" font-family="Consolas, Courier" font-size="20px">id94</text><g><path d="M24.4543951603305 705.7976713680454 C55.01443977163955 702.8434231305238, 90.74878728590436 702.9193720377564, 105.83230635294325 703.511494754374 M24.447534882907966 704.9659487235632 C55.584312214380105 705.0624842959375, 87.48745480890254 703.7881383726763, 107.0304289412942 705.8955157678686 M105.88589956912642 703.3682210656426 C108.58527218683243 724.8774272442199, 106.74527849849056 743.9656293978505, 106.71450280685661 753.6749483630773 M106.80154089567954 705.409190131652 C106.82494296422645 722.7469988528981, 106.23770867974399 738.6162614849021, 106.8553426460213 755.1773468720926 M108.71061795088254 754.5909280998828 C80.86308794007948 753.2591662748126, 57.57309751464952 753.5893948203515, 25.536411325831004 753.2354777029568 M106.24936114576765 754.3826801611818 C89.43800250487604 755.7282825839098, 69.5740879191847 755.0549633133195, 24.27941161544312 755.1933624543843 M23.263901292427857 755.0786702524528 C24.38354504879154 734.7583138336291, 26.383132112574785 713.2787629109322, 25.55245748775065 704.8553485074418 M25.697541052246816 755.4516006545203 C24.269041414021576 736.9362516669188, 24.57957873806295 717.3038971426425, 24.061117678147696 704.2458351861859" stroke="rgb(0, 0, 0)" stroke-width="1" fill="none"/></g><text x="66" y="735" fill="rgb(0, 0, 0)" text-anchor="middle" font-family="Consolas, Courier" font-size="20px">Animal</text><g><path d="M25.510028648724607 929.5933663428542 C100.80723578146213 928.303095312749, 175.60599592235843 929.4166434127083, 224.96084390345132 929.062295544364 M25.185552068756905 930.617396445651 C101.93313123647333 931.2998325911365, 178.2405430319578 931.886663233842, 223.5306260400214 930.5029892681076 M223.4281386986196 930.7319936002638 C223.46024527770052 1106.8084781135512, 223.5844075533718 1283.6721667528286, 223.24892796225575 1380.6299424067427 M223.18459281095892 929.6938008646404 C221.82988800950824 1090.1677334599635, 222.49407823167834 1250.5618570934912, 222.95018274752093 1380.4277131596189 M224.21381771075679 1378.7998898177827 C180.11298545895582 1380.9470654820193, 134.97012177989262 1380.1525441022802, 24.219606758939868 1379.325179358091 M223.76840293989264 1379.1851753840992 C146.7944889740327 1378.6652700579627, 70.10140856163547 1378.0810637694622, 25.72995104791139 1380.5060046237097 M25.962931174518488 1380.1454212760332 C25.87577725093527 1238.288138702153, 24.19074657259204 1097.3944421105855, 24.282423972968203 929.7625392262609 M25.270906088118387 1380.355647273384 C25.347215680162392 1228.798885689202, 24.95158851119873 1077.7436724467832, 24.645755488477732 929.6920380406508" stroke="rgb(0, 0, 0)" stroke-width="1" fill="none"/></g><g><path d="M148.51649213275053 1006.5652591414851 C169.93189324523146 1004.0303823101186, 194.33839129203523 1004.2461655930827, 206.75577278872404 1004.6512612879267 M147.11781565205692 1004.0340814597755 C164.65620276362125 1004.5978846620369, 182.14380760013552 1005.0702569217684, 206.95748445436644 1005.8368986444447 M204.46069734959224 1006.9961236049579 C206.42679131691366 1016.6096022552715, 203.97006793458695 1030.351550971889, 204.86408214604984 1056.7132694624277 M205.70068949654433 1005.5559306558088 C206.3644796008348 1017.8000010046925, 205.74123228193125 1029.7841834597943, 206.54883089527766 1054.4425709657578 M207.2026160701232 1054.6538966914604 C184.8175650150827 1056.7559564395694, 161.4652498098017 1056.6117108727535, 146.61305975868552 1055.2773382573785 M206.27889508030225 1055.3055571438608 C190.39660115783167 1056.0253386065328, 173.87518326909026 1054.6979228456646, 148.72462853542595 1055.4890158687235 M146.47234020205744 1055.842617598642 C149.1538452086488 1036.8060597053177, 147.56361481002904 1020.058595811932, 147.1346187860556 1005.6362270282498 M148.27044718752657 1054.6905202635112 C147.65338058634853 1038.45969298889, 149.23218340252936 1024.3960110261498, 148.80409238118384 1005.7777337793777" stroke="rgb(0, 0, 0)" stroke-width="1" fill="none"/></g><text x="50" y="1035" fill="rgb(0, 0, 0)" text-anchor="begin" font-family="Consolas, Courier" font-size="20px">lst1</text><text x="177" y="1035" fill="rgb(150, 100, 28)" text-anchor="middle" font-family="Consolas, Courier" font-size="20px">id82</text><g><path d="M149.84702801147864 1081.4858000433896 C165.74607033993672 1080.198928926741, 183.25328373147966 1081.3129067027257, 206.66907195077735 1080.8811539691724 M147.34237595675543 1079.4872305478166 C168.50041339774714 1079.5421581132057, 189.98453509387315 1080.4789738948373, 206.88591373571583 1079.5580769084986 M206.29228586849177 1081.2004077926772 C206.3450179305524 1090.8265874346673, 207.09345880883905 1102.8802886002952, 207.32012871210412 1128.5857002663906 M205.16434703347704 1079.520907285468 C205.26675232966195 1095.6772969474378, 207.1445983401222 1110.4185760307646, 205.02256675103416 1130.0164035992268 M204.89143758014524 1130.7986990016072 C187.04022929625316 1129.7567673087287, 167.0834786211389 1130.7816334841207, 149.68178562717856 1128.8060599708274 M206.2718683637567 1129.6438198463945 C188.14206683085135 1130.7153567304226, 172.5210267525302 1131.009380179612, 147.2563658066471 1129.0189363802137 M148.67144694496238 1131.5648189032338 C146.00532005958897 1112.836711113618, 148.11360385979125 1098.055134730577, 147.68471111945502 1081.3219084916484 M147.83262134881323 1130.036567022048 C148.21420164170397 1115.4896559166048, 147.68914519946875 1102.026370189269, 147.1036060062943 1080.2930585785516" stroke="rgb(0, 0, 0)" stroke-width="1" fill="none"/></g><text x="50" y="1110" fill="rgb(0, 0, 0)" text-anchor="begin" font-family="Consolas, Courier" font-size="20px">lst2</text><text x="177" y="1110" fill="rgb(150, 100, 28)" text-anchor="middle" font-family="Consolas, Courier" font-size="20px">id84</text><g><path d="M148.7041318601067 1154.1950994504691 C169.1857914240818 1156.3420810634348, 186.77528857655267 1156.2608953426247, 205.6885085445708 1154.7399854285877 M147.84987173167474 1154.608697392489 C171.42679371917404 1154.6691071194707, 193.40770159790807 1155.6619579321373, 205.50040075892102 1154.2321917144016 M204.76373304151542 1156.7588328847494 C205.34933014528025 1167.0869771565278, 204.77532823930574 1182.69167906315, 206.3551065643585 1205.5660905396242 M206.67068544132255 1154.6956373146018 C206.5634051113929 1167.4765140526886, 206.90811744643992 1178.861385047844, 205.99779061627407 1205.2737673371523 M204.22746127113535 1203.0088394192774 C191.31340812632914 1204.9580242800548, 177.25834310549118 1205.0147517652163, 146.02190806502554 1205.7835000932246 M205.10322285675468 1205.8393132238116 C188.53328148468788 1204.5058931240603, 172.58107272222583 1205.002557891953, 148.6027214718821 1204.7332884501916 M146.36851997286476 1206.6541979884962 C147.8082795620465 1188.532202891043, 149.13949316399282 1175.5941226103291, 148.5912197397305 1153.3861570915046 M148.5999439939924 1204.1849351324847 C149.10004434524507 1184.2139572161325, 148.70754230033864 1164.961678791646, 148.71515755149397 1155.012280002434" stroke="rgb(0, 0, 0)" stroke-width="1" fill="none"/></g><text x="50" y="1185" fill="rgb(0, 0, 0)" text-anchor="begin" font-family="Consolas, Courier" font-size="20px">p</text><text x="177" y="1185" fill="rgb(150, 100, 28)" text-anchor="middle" font-family="Consolas, Courier" font-size="20px">id99</text><g><path d="M146.87179917025674 1230.6381804247255 C170.80261504569475 1228.1639783627948, 190.65778863501205 1231.538477614977, 205.42863209980092 1231.1772195819644 M147.47697868393357 1229.0132082725434 C162.12305113287906 1230.1744969535907, 178.96227349688132 1229.9490657617794, 205.33517797779024 1230.6772385548954 M207.17300899023317 1228.4467630911868 C204.57644843328896 1248.8859515464121, 207.08244867308701 1266.878923818541, 206.4550809663132 1281.8379210742253 M206.80692688440203 1229.6484347646121 C205.8380267311675 1244.6851227360191, 205.63347790753218 1259.2489933840827, 206.50692954218462 1280.5718414789915 M207.0223355349546 1278.1153258494028 C187.07043109679367 1280.9524444154179, 169.21123752071264 1278.4542216203797, 149.1433966849121 1280.0073954857655 M205.7864942515113 1279.2425043885637 C186.23320942743473 1279.5986091531272, 164.80307806684246 1280.4093419706812, 148.24883112502602 1280.4084346018144 M149.69528285237553 1280.7066776861254 C147.38016405813343 1260.1283219292886, 149.327510968552 1242.8613166425314, 149.81108163598526 1229.5944947832904 M147.6089284503349 1280.2751981479498 C147.52581865606027 1269.4978090846425, 147.87640362498314 1258.1239411365925, 148.74869142983746 1229.5101854887805" stroke="rgb(0, 0, 0)" stroke-width="1" fill="none"/></g><text x="50" y="1260" fill="rgb(0, 0, 0)" text-anchor="begin" font-family="Consolas, Courier" font-size="20px">d</text><text x="177" y="1260" fill="rgb(150, 100, 28)" text-anchor="middle" font-family="Consolas, Courier" font-size="20px">id10</text><g><path d="M147.70231220495347 1303.0654934092559 C167.43983088163304 1306.5388606335357, 184.91759241859282 1306.2210948326751, 204.9619789046265 1303.278363137577 M148.80712098725084 1304.4921574134949 C161.6917125322063 1305.4327654402184, 175.65546402666928 1305.3637019199587, 205.59869162387662 1304.9664846127357 M206.42466659261635 1304.482118660757 C204.6384926369837 1325.3157169376934, 205.11569200638607 1340.9807551184983, 204.56554471166595 1353.9773799666368 M206.8537926419429 1305.241210661796 C206.36049784988015 1322.8866209169653, 205.86325715839575 1340.4841554015532, 205.28531171972594 1355.167861898054 M207.63288086541814 1355.3471943185898 C192.77371023211415 1353.467938888262, 177.42939709744408 1353.4228529773577, 149.1549337451116 1353.6432870892872 M206.06807266054574 1354.7079699151807 C190.19430731810857 1354.4644742683502, 172.60440080820314 1355.0950714734313, 147.15504773305048 1354.0971968864824 M146.5128567854253 1355.8710862673374 C146.8077012918266 1344.3110542853226, 149.69616323436736 1330.6168247782568, 149.71119555064385 1303.1349443200131 M148.11734183009864 1355.8107079083236 C147.88125382325094 1341.3197920446182, 149.07552676520697 1328.8008238701755, 148.87507459304345 1304.7022107492935" stroke="rgb(0, 0, 0)" stroke-width="1" fill="none"/></g><text x="50" y="1335" fill="rgb(0, 0, 0)" text-anchor="begin" font-family="Consolas, Courier" font-size="20px">t</text><text x="177" y="1335" fill="rgb(150, 100, 28)" text-anchor="middle" font-family="Consolas, Courier" font-size="20px">id11</text><g><path d="M24.66933312712788 929.617979662375 C66.39481162469754 929.6565335234924, 105.92313826689336 930.3830516435405, 129.4644595023373 929.1403790355872 M24.594949648583054 930.8464265960008 C50.9231263494284 928.3488206225743, 76.69894215793515 929.7771434169413, 131.71835525998895 929.4067447950102 M131.79804306740775 928.079157750196 C132.71672005306684 942.2154429450222, 129.7101786832853 953.6742329236843, 131.77134532572745 981.3613059717827 M131.12083915042908 930.0898386777534 C131.1418011238614 947.9413985749795, 130.91501182947448 964.5687475695502, 130.05957153255753 980.9551916866155 M132.2046825525794 979.0475837445797 C109.81112592122959 981.1254349141952, 87.68339103443047 979.2389639183106, 24.631509391487114 980.912971950212 M131.1014265073895 979.7773366721926 C108.64179437401164 980.031107267728, 85.97586195562288 980.4157501109565, 24.287436014215267 979.7908921692773 M23.47410576313603 980.8826599764211 C24.902673811308375 965.2720884093117, 26.476667851546427 952.732574589762, 24.77449554531539 931.5127553017008 M24.016898223677746 980.3150689151241 C24.7564102040348 968.0343115586229, 26.04715894030168 953.938292219889, 24.575449635402762 930.5222179096463" stroke="rgb(0, 0, 0)" stroke-width="1" fill="none"/></g><text x="78" y="960" fill="rgb(0, 0, 0)" text-anchor="middle" font-family="Consolas, Courier" font-size="20px">__main__</text></svg>