<svg width="1300" height="822" xmlns="http://www.w3.org/2000/svg"><g><path d="M20.308960688098235 29.88406869912004 C77.8052020488137 31.185888968297505, 132.22370000170366 30.42279269011998, 218.8817153259228 31.379828375753053 M20.005379293405156 30.7336693160712 C73.74310059214339 29.315146646012867, 124.67382544419515 30.563455062071817, 218.09556131168978 29.61552273546901 M218.74998074425682 30.36527406590517 C219.74357505869565 157.95660021378964, 219.3662531969973 285.6606978802493, 217.16600321070786 479.87673142173793 M217.55588549186828 29.53692940945087 C218.7127957337673 181.17078856186515, 219.04494546529455 332.3960815394064, 218.15043442925779 479.88280604345687 M216.52585231412823 480.31170839746625 C167.46957538800214 481.1283485482729, 116.56304780852645 481.2016502524922, 21.63381152297524 479.37245906373806 M218.19982542259174 479.9868781338293 C170.82392155928588 478.67587816567317, 123.53729820737935 478.444300908616, 19.602917235944016 479.6999315325126 M19.693007396324038 480.07817525259577 C21.356251820980084 361.99720101567954, 21.89868510183657 241.84099654370218, 20.897905420079805 30.39355985128302 M19.79657710536447 479.73599324348135 C20.506247418638758 330.26958734465575, 20.249643504288414 179.93811553419522, 20.194275131832672 30.254565647515065" stroke="rgb(0, 0, 0)" stroke-width="1" fill="none"/></g><g><path d="M143.4993398986312 104.06191199143542 C157.76877348446354 105.00816662262567, 175.59507832927153 105.79254430041013, 202.51957266908374 104.55815174663536 M142.06058801858592 105.57324006124705 C156.33977184000412 105.42922326002541, 170.55014733949122 105.00033950544582, 201.54312312353593 104.66514304732151 M201.45619762579642 103.66850428525608 C199.5181113141157 119.46530778979455, 203.18063960741156 129.8122317769766, 201.81693672527288 154.89643188325684 M201.47364528290558 105.57286222542172 C200.7783226157595 115.15978123626284, 201.92257386941736 126.61847636112627, 201.3654130037633 155.90509200108139 M199.57049813046086 154.6697458335801 C188.80457285106763 155.42850143299393, 176.58322302729644 155.72376938660096, 141.83202453395592 154.68762206409943 M200.0592215734402 154.3664575634964 C186.74749031413458 154.87194570661026, 170.52629249922148 155.71683556322645, 142.6654745696505 154.01663891454706 M142.58733808274326 154.9458020867599 C142.01323520143507 135.4587953168634, 142.67672916075009 117.74300126836535, 141.54742792715015 104.57856392469161 M143.5732229102493 154.32399566855008 C142.41285093695106 136.69363035913204, 142.56082307351568 116.29426189039816, 142.2823804169893 104.93608881148737" stroke="rgb(0, 0, 0)" stroke-width="1" fill="none"/></g><text x="45" y="135" fill="rgb(0, 0, 0)" text-anchor="begin" font-family="Consolas, Courier" font-size="20px">lst1</text><text x="172" y="135" fill="rgb(150, 100, 28)" text-anchor="middle" font-family="Consolas, Courier" font-size="20px">id82</text><g><path d="M143.96784041638327 178.12605110156656 C156.37169466782208 180.30920751647298, 169.89746311172982 179.90863737059158, 202.76956036176 179.13386496698683 M142.3934057401202 180.06989099577459 C161.51023948612468 180.41016453326617, 181.8924915875388 179.89320116299146, 200.64654595371547 179.46591804127323 M201.10833804724703 181.16060383366911 C199.02514207995162 194.66899292733612, 200.23973880667538 212.90302595056536, 199.53067250599844 230.80428755578345 M201.91901543752684 179.92580098167488 C200.56044039005934 193.5518037203384, 202.0459761957548 208.3427865825043, 201.5215922839566 229.71027904318728 M201.61040495630036 229.45479698104356 C188.98806987554636 229.72267535771573, 176.01732595034886 230.86007114459488, 142.04645335343164 229.17376167351702 M201.78367798259018 229.39132217183 C182.3663217556724 230.55656707177155, 162.64138365758524 230.0570349451489, 143.45047038253352 230.73983100315544 M141.27861167870492 231.03498733585147 C142.85515064106676 216.31716229764777, 144.1943943860437 201.9272060474472, 144.5426986913144 181.50124355106112 M142.98213930978199 229.0787194813528 C143.5240090506324 215.70009936781273, 142.740553837671 200.15937427362428, 143.06209353380103 180.9594925994785" stroke="rgb(0, 0, 0)" stroke-width="1" fill="none"/></g><text x="45" y="210" fill="rgb(0, 0, 0)" text-anchor="begin" font-family="Consolas, Courier" font-size="20px">lst2</text><text x="172" y="210" fill="rgb(150, 100, 28)" text-anchor="middle" font-family="Consolas, Courier" font-size="20px">id84</text><g><path d="M143.53700760281825 254.54098698602505 C160.72532168345015 256.1923679023987, 181.51304746285447 256.8331731786339, 199.81937387486272 255.78402011174688 M143.53018238301118 255.74137822177687 C157.18939142410866 255.08447552019206, 171.67468680358348 255.63044506219657, 200.70172705896834 255.13049202479795 M202.46304384356327 255.29836121444515 C199.96176032074015 270.0452891664183, 198.9842240269464 282.30266967269705, 202.48655646470363 306.5871167847536 M201.33155899676328 255.09579761203474 C202.16991914501784 264.699763581557, 201.61037269091952 275.12852238737116, 200.10286663627886 305.27586454382157 M202.9172043122913 306.5364784145821 C182.21252819689886 306.15584526842974, 166.6548609973886 303.6012225515086, 144.25159707732038 304.931923213264 M201.81403395088037 304.29563370964996 C178.67180049257334 304.7326830772334, 155.18983726528208 304.5935554065995, 142.35555990069736 305.7799765110592 M141.85088100471128 305.595110916845 C142.42255321063988 292.7058230802827, 142.66927955087948 277.3291434665006, 141.6934926177809 253.58754166857915 M142.44812435904242 304.59483104019097 C142.48455554553598 294.31720690785136, 142.3757443431543 280.6988585766721, 143.3663360808587 255.6548982785251" stroke="rgb(0, 0, 0)" stroke-width="1" fill="none"/></g><text x="45" y="285" fill="rgb(0, 0, 0)" text-anchor="begin" font-family="Consolas, Courier" font-size="20px">p</text><text x="172" y="285" fill="rgb(150, 100, 28)" text-anchor="middle" font-family="Consolas, Courier" font-size="20px">id99</text><g><path d="M143.676590840887 330.2442500222284 C165.85031182820856 329.31316716344634, 187.5796069069338 328.5979680030286, 202.85100462139198 328.68236913458406 M143.90023598344038 329.83485977522264 C163.5991231026548 330.91401294004703, 183.98020884706042 330.8587995579006, 201.4683681316212 330.69172497882874 M200.13495112752864 329.23589757205247 C202.4512775566061 343.05781310535485, 201.9312452747539 362.108944246241, 202.98832071865834 379.45404785470123 M201.48754307506834 329.96093285890777 C199.75110451761773 346.3057500556973, 201.05485283172217 363.6784099115574, 201.90001633198258 380.2633209310299 M200.58113724233593 378.1680314781582 C181.68619692268874 379.98478377886795, 162.7748320025561 380.1750722418257, 144.82943001487004 380.13573210614675 M201.08580673598593 379.72962688741785 C183.43600749326194 379.35656407134985, 167.0995830995286 379.5201683359491, 142.3037150963401 380.33359431951794 M143.14356934863306 380.8086966609084 C140.99827131767614 365.53225775136247, 143.48733785248572 350.7785766412634, 142.8568940224133 329.0217413685099 M143.30657537947897 379.04958915345486 C143.54472771814366 366.7073041565809, 143.43282828063687 355.160703360351, 142.74150088463534 330.3148985561557" stroke="rgb(0, 0, 0)" stroke-width="1" fill="none"/></g><text x="45" y="360" fill="rgb(0, 0, 0)" text-anchor="begin" font-family="Consolas, Courier" font-size="20px">d</text><text x="172" y="360" fill="rgb(150, 100, 28)" text-anchor="middle" font-family="Consolas, Courier" font-size="20px">id10</text><g><path d="M142.6037604292028 403.79608690295464 C157.3395030795445 403.1021753135484, 172.95334162010627 406.29168845773944, 200.30503877935834 403.41664243691633 M142.41607017222705 404.7919206269798 C162.2805608293433 405.44660906244644, 178.9535877015609 404.4981851401822, 201.15116163694708 405.96482758029765 M200.71326827719417 405.2187045408225 C201.24687935587633 423.3590303966713, 202.3095318678363 439.9219686842631, 201.53433818337297 453.0779512546927 M200.99471746649823 405.83660112170134 C201.66274414239098 418.4024124416372, 200.79574889589372 431.26296377444334, 201.20995172546893 454.15282568817815 M199.08137763949472 456.9615415273441 C182.69034151823715 454.2766824675486, 167.21815761685886 454.59022723863103, 141.6671359964361 453.4758206678674 M200.39795373520008 455.5648739919859 C186.49451276936958 456.07001921548584, 173.5425931238046 454.71305115977816, 143.05341529184483 455.89912659548554 M141.34372923919295 453.83231953506845 C141.12148345535752 434.17712509331943, 141.80013107788147 417.1608191531368, 141.72447716087763 404.50306683269025 M143.8060037589982 455.4370176490936 C143.48314272038346 439.8267894840582, 142.91654145074537 423.1967450399345, 142.50812969203687 405.55588654348816" stroke="rgb(0, 0, 0)" stroke-width="1" fill="none"/></g><text x="45" y="435" fill="rgb(0, 0, 0)" text-anchor="begin" font-family="Consolas, Courier" font-size="20px">t</text><text x="172" y="435" fill="rgb(150, 100, 28)" text-anchor="middle" font-family="Consolas, Courier" font-size="20px">id11</text><g><path d="M19.524465180215074 31.830119889927186 C44.13799155375351 31.20404470709313, 66.33948134010244 29.5348187835763, 126.27946861324152 30.64454085999339 M20.642478419172893 29.57270949865137 C41.01626468605891 30.10883195955059, 64.12831035229195 30.211285217504983, 126.66521942191329 29.07423159556735 M127.79370220654276 31.133803307085735 C126.3752782243524 47.52978539345338, 125.46804730887303 62.117727865291215, 125.22331574997767 81.55915385352439 M126.02299508897393 29.343872735267155 C126.99465571814842 41.18746675561778, 126.01582107473224 52.57339905081247, 125.21814407134025 79.52715094300557 M127.55380501352957 81.52388714938057 C101.63197272105003 79.92286062637127, 76.73893984240951 80.58750799749438, 21.124827073451353 81.46057581865973 M125.53275448263572 80.31604686630452 C84.31296124710282 80.08802902111856, 42.218329608177235 80.29549230694106, 19.992907949520472 79.56635606611295 M18.19453131619791 78.81999174461704 C18.905501553236345 63.610463340944996, 19.578336876398126 49.49783164748738, 20.708549091754975 31.901606870931445 M20.04531405080079 80.72454894502548 C20.61783033945177 64.68053845548715, 18.8528231848848 48.21113339213087, 20.04768396283108 30.46859734171818" stroke="rgb(0, 0, 0)" stroke-width="1" fill="none"/></g><text x="73" y="60" fill="rgb(0, 0, 0)" text-anchor="middle" font-family="Consolas, Courier" font-size="20px">__main__</text><g><path d="M20.1489983152193 480.7352832738264 C67.9023385999644 477.4737858601304, 112.1047044478678 480.044981618734, 216.5667633672468 479.5917762230802 M20.417116391526477 480.4068287817694 C60.58981401876663 479.52076349396805, 99.427805829444 479.86463471574973, 218.48013694879143 479.76892286899107 M217.95818572241038 480.1415272674375 C217.67158027986022 563.4635180850672, 217.74053071382323 650.5703668776312, 216.8940585927082 704.3941965557215 M218.8345290068359 479.55122794793937 C218.67479975719013 538.3751441062208, 218.593586330071 596.2387371026972, 217.48156569554803 705.1239002211008 M218.45024594581417 706.8925433882274 C162.820987880843 705.3980471288519, 107.5565575295869 704.9134037400826, 19.279934102904765 704.4737585653186 M218.2507850180723 704.0763247698006 C169.0232097550606 705.7316033082406, 121.81779767728959 707.0604555393111, 20.900348811912643 705.6623115381432 M21.195804513200727 705.7588820712327 C18.28473006853437 620.7979328563397, 19.01059073455333 534.0083106132901, 19.0486894275931 480.21417991684564 M19.32287623099352 704.5258440596353 C21.670659823059662 653.8870337866707, 21.44843952954845 601.3571601884805, 20.4059376205557 480.3533118537088" stroke="rgb(0, 0, 0)" stroke-width="1" fill="none"/></g><g><path d="M141.43482525916826 555.2983134771247 C156.27542199084584 557.0822881387105, 168.56350283521232 557.137472878083, 202.3901017755466 555.0788701341031 M142.0293102529743 555.4072131433104 C166.24195128960193 556.5448631916586, 188.93196584877865 556.31986811031, 200.0785548926164 554.5506369056135 M201.37077546646128 553.3100624218218 C202.80629694906364 571.006995585603, 201.71863876096896 584.3923406855063, 200.72177066893693 604.2556534807737 M201.01129612656618 555.7718957227885 C201.70461542432986 568.9189543486067, 201.21751509615567 583.4186776817509, 200.04812963055124 605.2886821277953 M202.62529546412276 603.7684776197729 C189.93142679238403 606.301100007019, 176.2115028291237 604.0681194334295, 142.61127844944767 606.9570072474723 M200.41635807940435 605.1312498482188 C182.8369505553959 605.3072122021689, 164.39179106030306 604.8655702251958, 143.4683259053777 604.4712550593217 M144.7700638602999 605.8148367425237 C141.11443269852373 588.697285393589, 143.74924711858404 572.1181937621114, 143.3391914747645 554.3589661167456 M143.66026642134705 604.6299345921303 C143.5013045705877 587.1560205744139, 143.86544683843593 568.7591014000989, 142.44450023402322 555.0762847558033" stroke="rgb(0, 0, 0)" stroke-width="1" fill="none"/></g><text x="45" y="585" fill="rgb(0, 0, 0)" text-anchor="begin" font-family="Consolas, Courier" font-size="20px">age</text><text x="172" y="585" fill="rgb(150, 100, 28)" text-anchor="middle" font-family="Consolas, Courier" font-size="20px">id12</text><g><path d="M141.94928546094835 629.7798474951157 C157.3809451204241 628.5358922699568, 173.3293290877032 628.0113229700571, 202.1278515872329 630.4985768588726 M142.9923696905838 630.937695055211 C166.32658829882482 630.1303049441191, 188.305140299411 630.7130732381605, 201.09715823470262 630.562601490178 M202.21180993422976 631.5067824057372 C203.0790008012511 645.1592175635252, 202.34056006097344 661.8806216136887, 202.359186887688 678.6502928156106 M200.81635769740004 630.6762069809752 C200.91673936541795 648.662843157959, 199.75294613131047 668.513523354127, 201.73042789784859 680.3653309396653 M202.8251014909201 680.3994036564459 C186.15441020306736 678.7395361022513, 168.40192052129962 677.9980290684755, 142.95831315120486 679.5223984984922 M200.55213801633937 679.6275489172269 C182.10099202395796 681.4195087205336, 163.27715576885305 681.5165464252627, 143.92634545408717 680.9180512357875 M143.40092807860358 678.1153919517491 C144.47118897525172 667.2701571237488, 145.05770961760896 659.7789776817029, 142.12405599963432 629.9300774580062 M142.8983823031994 680.5512508172438 C142.99600163161156 662.6539651901772, 142.76199609327978 644.2609080887054, 142.47634215556423 629.7767561849157" stroke="rgb(0, 0, 0)" stroke-width="1" fill="none"/></g><text x="45" y="660" fill="rgb(0, 0, 0)" text-anchor="begin" font-family="Consolas, Courier" font-size="20px">name</text><text x="172" y="660" fill="rgb(150, 100, 28)" text-anchor="middle" font-family="Consolas, Courier" font-size="20px">id17</text><g><path d="M19.545767682831514 480.69691199163225 C39.470169014951836 478.38901092457417, 58.78863200214731 479.1072100733622, 79.21964940998929 481.3726989285283 M19.55923411251127 480.9474752639665 C32.924564184516086 479.6137044065418, 43.58278133434177 478.7840406445317, 78.94946450352215 480.46489510885425 M79.2963316589389 481.01916832957386 C79.75588778526226 493.97277507279193, 79.9978016498029 509.64192334984494, 78.65371523205175 529.2092864589723 M77.84997050876653 480.2411590498818 C77.44111891516823 491.0163465017745, 77.65878209231666 504.1008407532698, 77.66077849568293 530.1638291312394 M77.81675167140197 530.0203569194588 C57.089651748613804 531.7728030716373, 38.08825673967787 528.8105611162271, 19.47928145091764 529.8451152393436 M77.75148635455446 530.9530588434085 C61.249510600163006 529.0655774436052, 43.106308952414224 529.6739689453295, 19.673563213780742 530.0892065342437 M21.955080310018417 529.6362366415178 C19.684660598563465 513.4947541908117, 19.08348073902257 500.25649594218066, 18.333082920090757 481.6038033028291 M20.796163145915504 529.597474650672 C21.06103839301183 519.175519008407, 20.25616378329905 506.416495497283, 20.275615797789737 480.4050591735105" stroke="rgb(0, 0, 0)" stroke-width="1" fill="none"/></g><text x="49" y="510" fill="rgb(0, 0, 0)" text-anchor="middle" font-family="Consolas, Courier" font-size="20px">func</text><g><path d="M256.68402984217147 30.23731702266157 C326.71944097244864 29.79592431445109, 393.95576689407704 29.632047709002382, 541.495905197551 28.639492960444677 M258.23437722557384 30.386642203413874 C358.2023024429566 29.612912855133445, 459.6077287068878 28.878818254518954, 539.6683304480329 29.817023458024476 M541.9188580045632 30.173042184448583 C540.9344859555375 72.04928398941065, 540.3016594856667 116.04851913405543, 540.3270399264529 161.30872000999935 M540.6778599560399 30.59749283935143 C541.1323020691173 77.78323488117945, 540.427838477117 126.43017676161404, 539.15864509383 159.67383329652708 M539.7743864250014 160.4623344736735 C465.50728344574793 162.29997401065611, 389.535887119467 160.42114597935924, 259.13806081584573 158.80549384521356 M540.4953203485948 159.77231920747994 C464.96429060106584 160.58645855816667, 390.16955354097126 159.64753165174747, 258.3030336052538 159.6056420106766 M259.1725634838742 159.02435085855285 C257.07494030536714 126.65074059447655, 255.2390953048562 93.48930184614755, 258.7640789412981 28.441571059113024 M258.411858558195 159.2140244154158 C257.2181409280621 122.34021136583078, 257.19473378270516 82.68554110104154, 257.6091769121716 30.20912778702351" stroke="rgb(0, 0, 0)" stroke-width="1" fill="none"/></g><g><path d="M284.5061633266837 95.76870399501207 C297.17385625659944 96.89916819370113, 310.0261805504652 97.01673118302439, 341.45277414814785 96.66405654978888 M282.9694989983746 95.07451148264829 C295.14536952103157 94.44529243971336, 306.8515701497107 96.07951896795635, 341.6558108491003 94.58087694246973 M342.28013843033654 96.93179773816428 C339.2027798734708 113.3432837598955, 341.4845707830963 135.45441298317468, 341.8385880710746 145.94769797256626 M341.00916373844814 95.2176117277391 C340.71347070112427 108.90084575510134, 340.374180859218 121.68694027716532, 340.7662844732156 144.3065405458688 M341.4659035961668 143.0296185997325 C317.6286225016514 144.18137397149985, 297.1616387007657 144.43010946674895, 282.7852229412801 144.0270407136717 M341.2485054526169 145.46003864941338 C326.3839201210699 145.277164786071, 309.9292195157916 144.4189774034013, 282.2593097868633 145.6005146346564 M282.5607161944557 144.1078616006703 C284.8406387980449 132.61700591619197, 282.5162958839609 117.50329124986222, 283.5564082313405 94.51010447326313 M282.3688087233709 144.1131881071509 C282.78996678980565 130.68484892573093, 283.06004771682404 118.23972817834132, 282.7878636544262 95.00594819701828" stroke="rgb(0, 0, 0)" stroke-width="1" fill="none"/></g><text x="312" y="125" fill="rgb(150, 100, 28)" text-anchor="middle" font-family="Consolas, Courier" font-size="20px">id19</text><g><path d="M342.48458474123777 96.75417541081286 C354.31728537211194 95.29894980979205, 371.88504706781526 94.6153764025694, 400.8486635193768 95.20775419593708 M341.1103357394087 94.74599159228308 C352.8274014289315 96.10171132481833, 365.94377917046694 94.97595849257897, 398.20212577274975 95.29267736617085 M399.86205807644234 96.56606064829825 C400.11341289582435 110.94042232126739, 398.7552384672718 127.98960511231533, 397.2683924781212 145.37204796141694 M399.174584604052 94.75117612843488 C398.29375053857086 109.26378242331468, 399.72871024355777 121.27751761030703, 398.0932843486928 144.4996366536512 M400.1755039247545 146.74286208215088 C377.0959986652166 143.47809161640657, 357.8376861308972 144.84696765468516, 340.84601618787747 144.2694631971173 M399.4333095386819 144.92143558214926 C386.52069202975304 144.89386847420297, 375.02751605566414 145.302268628857, 341.8541247137262 145.21719184740073 M340.1198456776543 143.50158511474015 C342.0578046957723 128.71097445341263, 340.408596628737 113.05706811089593, 339.23581383393787 94.87661997790228 M340.43159076437104 144.06950655533765 C340.95347602551715 133.82612325502595, 340.661664753738 123.72563028097744, 341.30699423851047 94.14086914266258" stroke="rgb(0, 0, 0)" stroke-width="1" fill="none"/></g><text x="370" y="125" fill="rgb(150, 100, 28)" text-anchor="middle" font-family="Consolas, Courier" font-size="20px">id43</text><g><path d="M398.41959858848554 94.92593513999711 C416.13108140572626 94.27530019138001, 433.85612926725713 93.97091659520522, 458.71751038563036 94.01375718577624 M399.68796836479333 95.35441274681051 C411.5468744427062 94.97077168490877, 424.49325843136603 95.26009238619498, 456.30449099905076 95.36425335184222 M457.6441534589582 94.61160341314302 C457.43792301269445 104.67542577584535, 455.5038669798206 116.3281339359634, 458.4744613071315 143.44598077497923 M456.3069448853959 94.28660324918198 C455.9693188864929 112.70328701509975, 457.2901987452181 131.61533746868446, 457.3717973442969 145.2227233295195 M456.95525711670456 145.57851861056835 C441.7464468473754 146.48798581011022, 425.7572479237801 146.97406541499188, 399.68279262869 145.33150091480204 M456.02665707327674 145.82082660399368 C444.5295122870677 144.95239582317984, 430.75520731634646 144.27472637298322, 398.29672541540526 144.18028208082558 M397.22075514151345 144.69443822353935 C397.301679652829 132.9386828656813, 397.2017717968258 120.71098638333531, 398.4244916195931 94.47514010671915 M398.5177052036794 144.6272820254587 C398.27611820943974 125.60980628932104, 397.756708327508 108.09053525346262, 399.57971001049344 94.09210801591065" stroke="rgb(0, 0, 0)" stroke-width="1" fill="none"/></g><text x="428" y="125" fill="rgb(150, 100, 28)" text-anchor="middle" font-family="Consolas, Courier" font-size="20px">id28</text><g><path d="M455.86467326885696 94.02629416702067 C473.6417420777139 93.05000208285884, 485.85280654389135 95.60664646832717, 515.3164930550063 93.47572766480303 M457.7987207121667 95.50525966256771 C475.62453566772336 94.65802636460701, 495.2242257238154 94.18130170435396, 515.3281135779241 95.21424819061771 M513.6310093951603 95.27431070817714 C516.5020490543 112.85340745262681, 515.9902708077939 130.09389472184213, 513.9823414284009 143.09300113348908 M515.6830034020977 94.37065246298582 C515.1185271378183 110.81284105340104, 515.3099380264089 126.84358945500153, 514.5657420580866 145.2287361161061 M513.079676983588 144.69969344540388 C500.0584287192048 144.08273275169913, 483.7030640344358 144.89035191754274, 458.67581742637907 146.10487148978746 M514.100832501126 144.3951652219661 C502.16859954341163 143.94783605308825, 487.94491534817723 145.11303507706677, 457.7767260079963 145.0876462080935 M457.47568109273175 145.12879730819284 C458.0161727394018 130.22481921259248, 458.2659537298946 113.62526125291286, 455.9858254544164 95.55062420166107 M456.761345354913 144.57807495677648 C456.3336286112762 128.06322720253795, 456.5021294354639 110.8383149732427, 457.25227408123146 95.6218811801261" stroke="rgb(0, 0, 0)" stroke-width="1" fill="none"/></g><text x="486" y="125" fill="rgb(150, 100, 28)" text-anchor="middle" font-family="Consolas, Courier" font-size="20px">id49</text><text x="288" y="60" fill="rgb(150, 100, 28)" text-anchor="middle" font-family="Consolas, Courier" font-size="20px">id82</text><text x="510" y="60" fill="rgb(27, 14, 139)" text-anchor="middle" font-family="Consolas, Courier" font-size="20px">list</text><g><path d="M258.5103230922133 28.947740256072464 C270.3992081762531 31.468375515978376, 283.8847473586845 28.337432236050038, 319.8118303247805 30.20454661405806 M257.6688282870699 30.81753111638197 C282.27227086999625 30.133670054394454, 305.7646766024049 29.499410945077447, 317.0436098033805 30.775911265111564 M319.10277722888543 29.936132633589924 C319.0199917399451 45.150634554520096, 318.2549039059226 57.37552359660542, 316.8358395127607 78.56948623375114 M317.52519896172083 30.12166311445892 C318.6720502941358 49.21434620519352, 317.02117652713 68.8278786855945, 317.6169418895896 79.50055136206403 M316.13326808690084 79.9735430491154 C304.91844143605294 81.12106552268705, 290.98356984104316 79.45271340235944, 258.596175906564 78.05023713727606 M317.1122411881273 79.75881316627923 C305.26214598159146 78.98819642629495, 293.3586773061136 80.61217871375504, 257.36186867987533 80.67128066675603 M258.08647118607695 80.32668196127145 C258.8238709509549 66.04694317369544, 259.2642987676785 50.600939259073726, 257.30015868377194 30.27376617054214 M257.9231492411672 79.1476454894353 C258.1500425331539 64.67736492983818, 257.1942860342593 47.38814950814865, 257.7315750412065 30.538087594726214" stroke="rgb(0, 0, 0)" stroke-width="1" fill="none"/></g><g><path d="M479.41712738967766 30.361367618798443 C497.1857883094828 31.908617722824328, 512.507422972723 30.158255665748445, 541.7346959358118 28.74982961285488 M479.84697074764375 30.41227867470396 C501.8090011047363 30.418796082037872, 525.8898195477838 30.29115138026983, 540.366402551967 30.729082040733505 M540.3369779891989 30.622107704632818 C539.6487784490654 46.64789796905162, 542.0735248081404 62.23443054237282, 539.6709295060576 81.78522311336123 M539.364488615218 29.229204748975885 C540.4611786987498 47.66370934053939, 539.9657625495041 65.0680406092751, 539.6839016558235 80.30408604965747 M539.0453545907659 79.06893326303434 C515.6415695441215 79.46725371188549, 492.31510247861115 78.74554264790224, 479.9861890269869 81.81306392746879 M540.4419316066737 79.82486629145939 C520.7152484674986 79.37149362163404, 504.37994026597414 80.18622195285587, 479.6267503272883 80.7057219175876 M481.81243032553795 81.76295533842668 C480.56823908010205 61.87928832661373, 481.6861181419726 41.27684797187299, 481.1956458935766 31.65574269111768 M480.8415949890984 79.99968430505825 C479.29518051020375 64.04404681093985, 480.1039905594664 48.200362967080984, 479.988985525543 29.41388376935467" stroke="rgb(0, 0, 0)" stroke-width="1" fill="none"/></g><g><path d="M569.9813443441702 29.862850876609627 C649.1542967786191 30.14347891684086, 729.6835100631287 30.924729547728063, 852.9344288894359 30.913359708433724 M569.3066644489687 29.577578156746892 C640.0285583845517 29.97475675480026, 709.0626530649032 31.03060461928012, 852.3286160243633 29.62518493835581 M853.3795594604358 28.257190212552228 C851.1683080724437 74.46080699986004, 852.2171211115474 118.96447997896978, 851.8426814403774 181.85168524999523 M852.9446503172887 30.056992883077424 C851.4312341185941 78.93626189000368, 852.2946897532943 129.07409884737265, 852.9238303016025 179.5408250523423 M852.2765126848923 178.6525422136897 C755.9906579012022 182.4952758433306, 658.8866817241807 182.74312482257048, 570.3037446183014 179.90535885096193 M851.4921221793375 179.99974612016752 C780.9371808489428 180.8108059846208, 710.088291365338 181.51819880466996, 570.6361793804759 180.54486657479515 M570.0695875287468 179.2690444473772 C567.2742946609186 141.41578028527042, 567.4721646881661 103.31509241750058, 571.8713342351505 31.18455204800047 M570.3678293971209 179.72452886831277 C570.1479141908292 130.29905681739336, 571.0682962775275 79.33401098188696, 569.0189134422405 29.950422157520897" stroke="rgb(0, 0, 0)" stroke-width="1" fill="none"/></g><g><path d="M595.3362806928328 113.19275109611048 C608.4624038117311 116.66825225309951, 624.209916143935 116.46117297976741, 654.6906921381945 113.78387698250167 M595.1992944477853 114.73690086488361 C614.2543929420974 114.30178576745926, 633.191902847746 113.48430619008556, 653.5175704997565 114.98992937127441 M653.0476688406135 113.09309859531318 C652.1147021155299 134.61511605546482, 652.4918144644497 150.2336054170138, 653.4852393526455 164.5439795192362 M652.8352107357431 114.41219818901833 C652.5575160579323 130.66634652911344, 651.941772561715 145.17553220948034, 652.4813035657429 164.1772011218732 M651.6767302494414 166.47693697940716 C633.6306807388523 164.5151419992794, 615.3379482357806 163.4891880409964, 593.6615189977097 166.3535389485797 M652.198691593868 164.7618102306592 C632.5483425409557 165.72718137402546, 610.9547431099658 166.03630392544724, 594.2183284539284 164.54662717085984 M594.1720202881443 164.92200514804395 C596.7902804061755 145.93435874050883, 596.4704644811949 131.46431301077857, 593.5993356737408 113.36985485724412 M594.1685860728171 164.28007517003664 C594.4675054728348 148.33253142860963, 594.7347713232577 133.66919280689893, 594.0909975804658 114.90767232569735" stroke="rgb(0, 0, 0)" stroke-width="1" fill="none"/></g><text x="624" y="145" fill="rgb(150, 100, 28)" text-anchor="middle" font-family="Consolas, Courier" font-size="20px">id32</text><text x="624" y="102.5" fill="rgb(0, 0, 0)" text-anchor="middle" font-family="Consolas, Courier" font-size="20px">0</text><g><path d="M653.7850767956188 113.05891847895312 C663.8857577180639 115.23930016149251, 677.7698337051958 114.68263918155552, 709.63706284222 115.49779024509384 M653.6590128743358 114.54754850208212 C671.2554369307886 114.49360982241504, 687.889831450491 114.6109801959351, 710.2570072598971 114.55539687664543 M710.4063576784574 115.63553727832232 C711.7808433789863 128.14563814751622, 711.205625010532 140.20795210831017, 712.4912209651382 163.27950360490254 M711.0992618355934 115.04508894620065 C710.1639807394434 130.3844674291841, 709.9256404482999 146.0466417528507, 711.8708547531098 165.75869594785038 M710.9132303676107 165.26618013579358 C692.4171835790634 166.8194394348036, 675.681877982629 164.11053510625024, 653.3856999822638 165.50081324410633 M711.359655767827 164.38563381442933 C696.674972315002 164.70468564571723, 682.0782600499772 164.7770747627291, 653.3129304226494 165.67581614320162 M652.6300597751176 163.5720929678144 C650.677637343066 151.96308719190202, 653.3398269318021 141.08771958770168, 652.6885755894673 116.33154431581693 M652.7354493762567 164.54966367269847 C652.5996112640103 146.33955118508047, 652.2231391577562 126.30345750218649, 653.6398925563766 115.6688273241523" stroke="rgb(0, 0, 0)" stroke-width="1" fill="none"/></g><text x="682" y="145" fill="rgb(150, 100, 28)" text-anchor="middle" font-family="Consolas, Courier" font-size="20px">id10</text><text x="682" y="102.5" fill="rgb(0, 0, 0)" text-anchor="middle" font-family="Consolas, Courier" font-size="20px">1</text><g><path d="M712.0988204220937 113.02594352114268 C724.2475048245572 115.88128006824431, 735.9002953016333 114.49897056520277, 769.5283977181552 116.89907507503561 M710.067276320376 114.4643550602387 C728.782561321417 115.0591186456361, 748.8730284980867 115.91445724189683, 769.8947581592905 114.18434240381289 M767.6955615236401 114.00645570354537 C770.9252238911714 133.08351740779614, 767.8256791870064 146.6151381830646, 767.1717987459795 163.67816311269303 M769.1047557363402 114.55337310162152 C767.7162918106665 132.86386050318487, 767.8831304723299 150.0054012414495, 768.3176282708944 164.15036691204259 M770.4474316430922 165.67609068077087 C755.2547739679151 163.39162404403754, 743.8580210756769 165.6940012334826, 709.1327699180534 163.579422252287 M769.1450355577921 165.961516487423 C756.3733795889082 163.74170284631322, 743.2210287201879 163.83536330952816, 711.9661074518497 164.69222248249866 M709.7956136140413 165.67493267481095 C711.4320961630681 147.29742062932797, 709.4209377838905 126.37921145304199, 710.4253789811199 115.92505063964306 M711.3524806634158 164.16159784414134 C711.713883499794 147.4945185689405, 710.6377526287641 128.27047199020376, 710.2457764612454 115.45502681451185" stroke="rgb(0, 0, 0)" stroke-width="1" fill="none"/></g><text x="740" y="145" fill="rgb(150, 100, 28)" text-anchor="middle" font-family="Consolas, Courier" font-size="20px">id90</text><text x="740" y="102.5" fill="rgb(0, 0, 0)" text-anchor="middle" font-family="Consolas, Courier" font-size="20px">2</text><g><path d="M768.1643204809322 113.97557349848144 C781.6178881258352 116.43873210640096, 792.1652136003254 116.28118415146024, 828.5019924626921 113.2542639562394 M769.5318929306881 115.99332994753104 C787.6786778539843 113.48183943895219, 805.1943527831272 113.53920047855031, 826.440268083196 114.32429292773416 M825.8728246689244 116.16252846943947 C825.9686057950277 132.50694289574864, 827.3702535638853 145.94984754875168, 826.1086710338424 166.18172111105912 M827.0952926493252 114.3382387355863 C826.180064990885 127.81307999716819, 826.3566765065848 139.2170095158052, 826.2282861680244 165.87776932063568 M827.6413819504976 166.09698910506674 C806.5716764681596 166.44646907049903, 783.8312854572144 164.0633356878793, 769.0759891103277 164.37906294614638 M827.2764075826457 165.52910809355794 C812.3251147953848 164.65849756025827, 798.4685111483169 165.62260563516767, 769.0121163579146 164.18648562811043 M767.5976572535765 164.13263776963626 C770.2732405718042 146.94574665060918, 769.0301495172212 126.8322805961737, 768.6722461346725 114.41176443473707 M768.4088349874208 165.99148576287504 C769.3361169561498 152.08674122064835, 770.0085800241511 139.13260691349916, 769.4189766718139 115.61306040260253" stroke="rgb(0, 0, 0)" stroke-width="1" fill="none"/></g><text x="798" y="145" fill="rgb(150, 100, 28)" text-anchor="middle" font-family="Consolas, Courier" font-size="20px">id57</text><text x="798" y="102.5" fill="rgb(0, 0, 0)" text-anchor="middle" font-family="Consolas, Courier" font-size="20px">3</text><text x="600" y="60" fill="rgb(150, 100, 28)" text-anchor="middle" font-family="Consolas, Courier" font-size="20px">id84</text><text x="822" y="60" fill="rgb(27, 14, 139)" text-anchor="middle" font-family="Consolas, Courier" font-size="20px">list</text><g><path d="M570.905056883744 29.93815105978979 C592.5976715835312 30.215162010359474, 611.604838196098 31.69411688293323, 629.8697808635701 28.090652240238605 M569.5970949608723 30.917613263913868 C582.2745199326304 29.65952106935032, 595.3213627112823 30.74582065847266, 630.2656014061675 29.54408654477146 M630.5796842052944 30.40163214222842 C629.914340531935 44.728235174372905, 628.6470577087762 56.14130311528051, 630.0915779849282 81.11351543912025 M630.5551964049837 30.070445256681165 C631.1783380438175 48.262112963188216, 630.6800987074977 65.40461028559699, 630.8093593096172 80.62604868816243 M631.1276481212442 81.77267518015701 C612.4872288655273 80.98703632966469, 599.4785236297881 78.11236252014125, 568.9798530840931 78.93362191183392 M630.5634417131066 79.85151501784418 C615.485225809494 79.67409362295886, 601.6267988833665 78.99151974625251, 570.0924523459125 79.60738868135374 M570.9807123861494 80.21506435518805 C570.7992294161212 66.43686677157379, 567.7735869929265 54.01081919675682, 571.0892538252843 29.50916371051136 M570.4797224404801 79.73933313585292 C569.5774323431199 62.33478998143828, 570.3655537831221 46.088268786004136, 570.3310303630927 30.85527676041869" stroke="rgb(0, 0, 0)" stroke-width="1" fill="none"/></g><g><path d="M792.5639559987409 29.769265042976173 C811.3440398198218 32.08770599020848, 827.7435487890385 30.00505378423499, 853.3374309806895 31.948884642633036 M792.6063099964372 30.9700271578434 C806.9659453768472 29.966400968504306, 821.1920920380769 29.341545355427122, 851.600438595885 29.63707719120654 M851.6020553751094 30.99091325988669 C852.8383267899446 40.6549488323757, 852.1737923280649 52.96436705475383, 851.7869930813401 80.78738507395997 M852.9125007308262 29.3676656306679 C852.3154997473085 40.683956971135, 851.274416878779 51.35298930134484, 851.4610671774813 80.72504436623825 M850.4220385473994 81.51062371912948 C835.374026736464 80.4173014897855, 822.4560132907736 79.92016820662799, 791.3333261110182 80.42795024059212 M852.8392865352711 79.14879259721637 C835.1249409939743 80.35014390804193, 817.621923121614 80.9450814331252, 791.7797160085144 79.73953314660031 M791.9946698714637 78.59719831447858 C790.704698145301 64.32573032132481, 792.784681044458 51.94859689651529, 790.2869384208757 31.99040563693437 M792.6712040606175 79.1224790153142 C792.577325089385 61.2185373341412, 792.7427494352917 44.773750282166304, 791.8902547575594 30.343372675333548" stroke="rgb(0, 0, 0)" stroke-width="1" fill="none"/></g><g><path d="M880.545280852531 28.661471473601004 C947.4652182297779 30.297126258874368, 1012.0595007968768 30.925481738196595, 1080.402419027638 31.23608262835729 M882.5647134934184 30.7480372330885 C946.2786813490657 28.330996379686386, 1009.710596841479 29.462391931191167, 1082.881041065892 30.487028281311904 M1081.2373711496086 30.961476860988768 C1080.8718510111116 70.56279651988528, 1080.9434879742553 110.07470564712015, 1081.2267270541083 159.5090434113052 M1081.3155363165438 29.62378849395077 C1083.4110393199353 66.56071449902414, 1083.7112697806317 101.91477898874972, 1081.9964553964937 159.48241573094305 M1083.3863487316191 158.4589523930619 C1029.049652266033 162.77244302788935, 975.4347474776716 162.8462210018283, 880.5453927301756 158.7349208855295 M1082.892130249739 160.49991544262713 C1012.9963376594594 159.079641117187, 944.1135075717519 157.80468504572406, 882.3825906920661 159.77393772396138 M881.0219466095448 161.81082951127 C883.661222170297 113.40192545461807, 881.1864890665261 67.69555899167437, 881.3018199455101 30.248794469351434 M881.0543481119201 160.1308810228753 C881.2016132895736 125.69651896329114, 881.0300297476329 92.02680765828374, 881.6064073590873 29.84367582160698" stroke="rgb(0, 0, 0)" stroke-width="1" fill="none"/></g><g><path d="M874.2591791520496 23.995281170209562 C961.8221990147699 24.599246607568773, 1044.680005572541 24.838404925350787, 1086.6286136061067 23.124003745780353 M876.493637699413 23.16357461873187 C934.9732394231136 23.473895418690134, 994.0089184421103 23.67030347659004, 1088.5629623523687 23.97514888167885 M1088.1086539799828 24.95229080559584 C1087.0520298100087 73.43473088648759, 1089.979306097044 123.04988248567949, 1089.5474467129 165.96544503926145 M1088.6671336679776 23.036296617805256 C1087.7529919104 78.48345615512386, 1087.1090341484507 134.63373146786856, 1087.2109180254758 165.1834965934614 M1087.4039995700798 164.9987281235237 C1027.9600957115906 168.41984141941575, 969.3698353648655 166.6435189939273, 876.8606014004407 165.20749587149447 M1087.623209371954 166.02332246609632 C1017.1994432988673 165.64183270102498, 948.1367956976459 165.38214045985507, 875.697561865546 165.88435749528725 M875.5172774696249 165.82992647601716 C875.2306328654959 117.6348103272228, 873.4546225255937 68.59169185327426, 874.7263103771741 24.28081077573207 M876.9720354027291 166.73837271459075 C876.6779368779564 121.23936680557173, 875.7112105294252 76.16973464184203, 876.4494980839752 23.833725829399064" stroke="rgb(0, 0, 0)" stroke-width="1" fill="none"/></g><text x="982" y="120" fill="rgb(27, 14, 139)" text-anchor="middle" font-family="Consolas, Courier" font-size="20px">1969</text><text x="912" y="60" fill="rgb(150, 100, 28)" text-anchor="middle" font-family="Consolas, Courier" font-size="20px">id19</text><text x="1052" y="60" fill="rgb(27, 14, 139)" text-anchor="middle" font-family="Consolas, Courier" font-size="20px">int</text><g><path d="M882.7325293899603 29.99319347772915 C898.0017115550099 31.00090564225939, 913.2038269447761 31.707430420733314, 942.1730070013743 30.041301216235112 M881.079473062478 30.705012751491704 C899.1344958429522 30.06537289101486, 916.3586132838882 30.293527226421983, 942.9836375380628 30.59930857621359 M943.1660969177935 29.806848283143477 C940.7074671472907 45.908469520822365, 943.2434191634928 61.77472143775062, 940.2797676924948 78.79458689851631 M942.7578635406925 29.19527496248988 C941.7741873495769 43.56404321365705, 941.3275787968834 56.131145577576575, 942.2648807163481 80.7834055303653 M943.6344566058887 81.88890942057168 C921.5061183566722 78.83768075879574, 895.8331813608892 78.56152247983256, 883.9228814957435 81.2506475812478 M942.7694612220031 80.27157029751766 C921.4460299041056 80.19885140162609, 901.9954841903491 78.69260783846053, 881.824198548688 79.7060456609712 M882.3813407983488 78.61394690064496 C882.8118131614895 69.47527530089246, 880.2782350969869 59.61954571655525, 880.2562774071569 31.549300812927584 M882.0402260933557 80.71829851084746 C881.7744826798972 65.0698429066309, 880.6726609881457 50.28906624599497, 882.5529619995411 30.05741957812307" stroke="rgb(0, 0, 0)" stroke-width="1" fill="none"/></g><g><path d="M1021.6762148785976 30.821267780625195 C1040.4811163698578 29.08831802297734, 1059.3896890912836 31.02692731596507, 1080.3984416345277 31.790443497115042 M1022.6938118389895 29.237989889255637 C1044.44856906064 31.33799837182069, 1068.2381139186311 29.68417111967183, 1081.7916525949545 30.860997594340272 M1080.1184066437313 29.903371640962657 C1080.997592217055 47.50132686218563, 1081.757046754571 61.940412832671505, 1080.4251341332533 79.86543411907587 M1082.3511818996112 30.665522016830252 C1083.2976614763213 48.15909074133029, 1082.243876085789 65.77274991243858, 1082.6519253302006 80.36612960031547 M1082.337458712568 79.08563030057297 C1062.638647542943 79.55354993252939, 1045.7852057914201 80.41703353151759, 1022.4987413177471 78.46785461885098 M1082.9741058314135 80.26672206532842 C1069.6326296326165 78.9922143455896, 1058.2566216884038 79.86085675722931, 1021.4987612425103 79.33218706545041 M1023.6012764481248 80.85468174847645 C1024.0730471305974 66.83232098770334, 1021.0989292815731 54.388757350414636, 1022.9766458576481 30.59240882622319 M1021.1659282148971 80.15724690321025 C1021.9190960314328 63.45449725521652, 1021.832272836961 45.29888403079821, 1021.197150721183 29.479295327785223" stroke="rgb(0, 0, 0)" stroke-width="1" fill="none"/></g><g><path d="M257.9467555038306 210.85081857345813 C318.0004145091912 206.48682584477322, 376.1844788242531 206.59509256220178, 458.84605999056305 210.08632438702006 M258.6821741068302 209.62073661142517 C306.97720230214435 208.87926557507907, 356.65661033539993 209.07852933795004, 457.72241271917125 210.2218316853942 M458.0678759505051 209.5913189567672 C457.31297636626977 251.84739673497702, 455.54845943392337 296.4157956660702, 456.5950672404359 340.9699209994635 M457.00698293967184 210.41782677055892 C458.3613306333802 260.6244980646606, 458.16643729625633 311.17711538471116, 458.103760781465 340.0363295089389 M457.02205871591667 341.3424646087875 C386.6703266907078 338.03557713704885, 314.5107792590415 339.0606083712153, 257.37865916502153 340.90148581885484 M457.81531409600086 340.6830943698477 C414.1979976610133 342.34643271204885, 370.14220822595274 341.1850527079476, 257.6844963368926 340.0200339277733 M256.66093813396753 338.5636907070715 C259.0476254364389 302.6111669455367, 256.29946382001094 262.60070749355793, 258.19082132282443 209.56965025660597 M258.62831612964453 340.5494132298502 C258.80956443370025 289.0161033511678, 258.91105870124085 239.75202037463816, 257.20866583642254 210.23727470133468" stroke="rgb(0, 0, 0)" stroke-width="1" fill="none"/></g><g><path d="M251.71438732938185 204.25807388593893 C304.86835205748633 204.37337066006216, 355.0168224650326 202.7429825386783, 465.21626813578007 202.4371046413737 M251.36030514930997 203.12803105250714 C309.5619376530456 203.7754333837422, 367.8197742645973 203.53249800405803, 463.7953890158156 204.4041838942367 M464.028599612373 204.59210209775725 C461.3982043558281 238.0039801808065, 462.2737474530997 271.9718779095127, 464.1059851333222 347.24393905677147 M463.9578865226712 203.83371471557 C465.15657316127744 251.41996465367546, 464.20083795813235 300.05191996669885, 464.6299311867361 346.17142520079324 M463.1834071593402 345.4383129324596 C392.684825368246 346.09497859207147, 325.2345358698772 346.1170071011224, 253.24279895689406 345.3557081743592 M463.6957624502858 346.7029148738395 C388.9777071774593 348.5883912780761, 312.54597957254043 348.6346675767922, 252.83067200212767 345.7311703214684 M253.68029782941272 346.9777303795605 C253.71630786706393 315.1153731407301, 250.70969268920118 285.46189142558853, 252.37830165211372 205.3105601679381 M251.13970759261812 346.02381895295605 C251.89640468328744 305.8531941404197, 252.67790030385618 265.8140686171814, 251.14291940640462 204.86359676311554" stroke="rgb(0, 0, 0)" stroke-width="1" fill="none"/></g><text x="358" y="300" fill="rgb(27, 14, 139)" text-anchor="middle" font-family="Consolas, Courier" font-size="20px">True</text><text x="288" y="240" fill="rgb(150, 100, 28)" text-anchor="middle" font-family="Consolas, Courier" font-size="20px">id32</text><text x="428" y="240" fill="rgb(27, 14, 139)" text-anchor="middle" font-family="Consolas, Courier" font-size="20px">bool</text><g><path d="M257.20597073466405 211.62714423113994 C276.9299474150308 211.59249405687024, 295.5657018772644 208.18970806802065, 318.9629958228795 209.35350842865967 M257.3266563406358 210.8870569246525 C275.44367084390984 209.74129706050726, 294.1585260222424 210.68974694395877, 318.235677755746 209.0512555667211 M319.6436640955831 210.85660391235078 C316.53939281182795 225.54290479571154, 316.73869285117024 239.0389085035676, 317.4033754102777 260.2304335640675 M317.68301303693784 210.86994137817658 C317.5166500820062 230.78450636612908, 318.31312524989113 250.32840216214632, 318.8789602608923 260.6314746255872 M317.5463637979119 258.35494539227415 C304.79888434383855 259.96979149820305, 291.0496528890189 261.309556881342, 257.65083986256855 260.58405122944555 M317.295766657763 260.83877003211376 C297.83678722209237 259.8127763755503, 277.09998766080724 260.3214314691115, 258.59850413602726 260.5125603188931 M257.0112104441707 259.41407373735024 C257.4964861252083 247.49210650385015, 256.0292576130677 236.40863135558217, 256.9302676556632 209.62851324691084 M258.030240293974 259.51246674623144 C257.77791759805064 246.0414326810269, 258.386493066827 231.67963158386306, 257.46670233268554 209.83621215071275" stroke="rgb(0, 0, 0)" stroke-width="1" fill="none"/></g><g><path d="M398.21887510146564 208.11027310412257 C408.15891481368476 210.85253039136038, 422.14118541484106 208.23930662085405, 459.8273254647925 209.10979534541346 M397.1884413123591 210.02133753554565 C421.8653132398279 209.86718447450608, 445.0958797271802 210.19226889087076, 458.7408873719722 209.44658720049293 M457.0649810720053 209.17118140367327 C457.5827129208827 222.3226441675689, 455.6293512636217 233.42172094711063, 459.8929535635681 258.6480347935735 M457.42166235219577 209.28960862653136 C457.2542995367894 225.24239673270554, 458.5431613386014 237.96048209849044, 458.31264834082253 259.46405905094974 M458.18306860695725 261.82984960506417 C440.5084244954341 261.90905779759146, 420.3356663696876 259.6910088165006, 397.9897034470071 261.60655057512224 M457.33488279309876 260.907233478493 C440.359003339781 260.76345916903045, 423.07428935264016 261.0176671792433, 398.6568397580241 259.6659830291145 M396.8312761342597 261.00599701294595 C396.81982385847635 242.74490868016704, 399.31735009171115 226.11180517615398, 398.4443549409733 210.46956107703826 M398.83691684163426 260.18039829447207 C398.87142450530195 245.69884280213643, 398.34225899789334 230.32495617108515, 398.9000362833184 209.87650205060754" stroke="rgb(0, 0, 0)" stroke-width="1" fill="none"/></g><g><path d="M500.3933663959249 210.916531085931 C564.6565213578447 207.58313304102273, 630.1790263803891 207.51415545792324, 701.4622226998063 210.90469976822715 M500.74595328117323 210.4006452896516 C577.621051844848 211.6907431357012, 653.2291121148565 212.29091907831722, 699.3542939507906 209.6821514795375 M700.9552835216857 211.43766380147446 C701.6372784285907 256.7657274499074, 702.3720250672428 303.5042309917206, 701.3074107974279 341.48867946871394 M699.270937090785 209.82089178178228 C698.9520818631827 241.21805662491704, 700.3136382852682 273.2534357232585, 700.0368369348857 339.68316885975446 M698.573465589555 338.3028488480922 C631.5953408024045 340.7379177825615, 559.3354660108809 341.69411306906875, 498.4490970428233 341.77495714863926 M700.498098174536 340.39385710440024 C647.6607959451396 338.51915015601907, 595.5356454086772 338.5774793758058, 499.32666417983535 340.38542650988506 M501.0139255644592 341.39276484719545 C499.08482516753105 299.5836877112529, 498.551779738163 255.39401783264367, 501.632198269975 208.49099719971505 M500.5852197124142 339.8785174537831 C501.1564896761501 303.68399237150993, 499.7108778326672 269.2072378349258, 499.4911009533398 209.18446886998484" stroke="rgb(0, 0, 0)" stroke-width="1" fill="none"/></g><g><path d="M492.397821625085 204.85305575539695 C543.9023904460939 204.92668025774358, 595.3773942219141 204.62543796736526, 704.649639547191 203.08767934992628 M494.84050758572863 204.273351904161 C550.6497236016053 203.55454589249427, 609.384792535459 202.6921290304154, 706.6409778343981 204.6977063592183 M707.6233064316073 202.11567704107003 C706.0043010036026 248.71317013800834, 705.2969553594443 292.39385272517814, 704.8432588181562 345.85681154008523 M706.3313389159391 204.5758756224547 C706.7246077296577 245.4247079437863, 706.3197302180359 287.7729134869638, 706.0378785565621 345.53272222413955 M706.550974176574 345.45090854113636 C629.7917491131736 348.7217173967823, 553.4015138905597 348.7477561232784, 495.08963252135027 345.91640669511025 M706.825763094755 345.58547747451024 C658.5432233025754 347.1090646691325, 611.3067278851337 345.9959436472178, 493.7440165820757 345.4468475932697 M494.35566066861077 345.6430681811574 C492.4644963116948 299.68835176937984, 495.2612276286358 253.09987575585046, 493.22638801981657 204.8025714369322 M493.39321697618806 345.7940723164809 C495.0271550877468 310.67568031278034, 494.4791676831454 275.3165129718993, 493.2521312427883 203.53920504209043" stroke="rgb(0, 0, 0)" stroke-width="1" fill="none"/></g><text x="600" y="300" fill="rgb(27, 14, 139)" text-anchor="middle" font-family="Consolas, Courier" font-size="20px">"David is cool"</text><text x="530" y="240" fill="rgb(150, 100, 28)" text-anchor="middle" font-family="Consolas, Courier" font-size="20px">id43</text><text x="670" y="240" fill="rgb(27, 14, 139)" text-anchor="middle" font-family="Consolas, Courier" font-size="20px">str</text><g><path d="M500.70764931205355 210.8303285907658 C513.8074046728785 210.2947602623917, 526.376975829052 212.1684622426696, 560.1355060941623 210.35518402227797 M500.0549594848892 209.84036375698116 C513.4055890104669 208.81220844969187, 527.4881955525592 208.80230827899305, 560.4928277167523 209.1564349169088 M560.2067461545104 209.2768853932308 C558.6362916829004 218.8443351199304, 561.2091556425003 228.39681592568746, 559.8628596066146 260.2476997264002 M560.8432304404068 210.06176223244495 C559.9887965872308 221.13720348417598, 560.3127303853971 234.482406634881, 559.6575855664512 259.3834000947241 M560.9850152289866 259.7610625870243 C539.3048449660373 260.624282379299, 520.7004182135487 260.47678228866886, 501.5689191375078 261.2791507528098 M559.7732928544592 259.44944300967336 C540.4572555168038 259.95043083542413, 522.527365964401 259.52637065026727, 499.16944329955703 260.01418675118504 M501.0765191583707 261.45989410929104 C500.75894226165974 250.834289298383, 501.910951240126 239.11569652274576, 499.54134881805834 210.7098805937313 M500.51845643911105 259.06368264018323 C499.3217713364684 243.95607385702834, 500.0570129827913 228.07876449925118, 499.24806303549985 210.54688994375073" stroke="rgb(0, 0, 0)" stroke-width="1" fill="none"/></g><g><path d="M639.6439713721542 208.04985357804057 C658.3703125723601 208.83309750990267, 672.1301002094348 211.0189437828376, 699.454184297752 211.40718908083616 M639.9323825963322 209.7430195808964 C658.9093627505836 209.62762459537353, 677.4926578097695 210.5675460512083, 700.3600655874552 210.1571702194004 M700.020731575824 211.24719819279355 C698.6657425815691 229.25758488470137, 699.5253930471602 247.89517732575317, 700.7152070936888 260.53241635646873 M700.6561313987754 210.2866240853624 C701.0767951514049 225.1863349947614, 700.9293870019258 238.47281587443794, 700.1609427798808 259.68254763064283 M700.360733215788 261.39389421875626 C680.1716515988096 260.8860539039331, 662.4184442017281 259.7038891925582, 639.1295332262893 258.5648813673022 M699.9463010567778 260.7473383814802 C684.0110844969189 261.5630285242647, 668.1846242134831 261.2270643822469, 640.0819303392468 259.80669432751614 M640.4839082360285 258.1646412276012 C640.447556895893 246.48725778932828, 639.6449974779131 237.49344916635187, 641.2978983297439 211.09428679870143 M640.1092124886162 260.7544167576937 C639.9165516339827 240.75272237775937, 640.4689789506875 221.3915854116648, 639.1634914594221 209.67360173103341" stroke="rgb(0, 0, 0)" stroke-width="1" fill="none"/></g><g><path d="M741.2276289493717 210.14807853725605 C787.0511521123292 210.13223412120792, 828.5461855702316 212.4187764053926, 941.7364475392641 208.71111679175962 M742.4706382390548 210.83570201433702 C806.0943975856075 211.30819552187725, 871.1133291561599 212.18157617233962, 941.1334312453463 210.74428806742483 M941.4592632477068 211.5308609538687 C943.6697563436276 238.4829742385831, 942.6763641990093 268.65545145005234, 941.1504058872849 339.6013604350777 M941.9241808162739 209.79174053181632 C941.5957139850112 236.3340338923169, 942.3548721644925 261.7677304577204, 941.951186840836 339.4292328563361 M941.967599140674 340.29337531405764 C890.4760695979858 337.24454999321335, 836.5144266764424 337.14834516414186, 741.2152771874419 339.46574174999256 M941.2161155128659 340.2344202189044 C879.8469740075353 339.18721031774504, 815.2462455143434 339.6163716933998, 741.5826806894358 340.8566582261889 M742.6024001938707 338.90625444557804 C739.8157983984411 307.44119567813715, 741.631467054384 277.4495914160893, 740.9547046721774 208.76916856899783 M741.0766106857499 340.35397274567566 C742.4046102748534 307.2921778269906, 741.3568842987969 275.40413630448734, 742.7009597890388 209.10133349228823" stroke="rgb(0, 0, 0)" stroke-width="1" fill="none"/></g><g><path d="M737.3010067759753 205.32887389676168 C819.5743099554936 202.94575689869603, 900.3335593838189 204.2540347529905, 948.7452353748063 202.90967799844304 M735.495438677986 204.32560812853265 C805.45425563428 204.67129459789047, 875.4044773042166 203.26362386384912, 948.4109636366251 204.35109634082687 M948.5540524451685 204.21082620828832 C946.2455150086474 257.0789171894261, 946.8114127613198 307.97591536273325, 946.2403249712255 346.52898748968937 M947.1694042316568 204.58558693537793 C947.842584743589 259.9905028236353, 949.3049974818263 315.2804099586334, 947.8222276426176 346.32987303008474 M948.6044080321146 345.210367192664 C878.4329344413087 347.3043756969607, 808.247652334834 347.76298656069844, 736.9715393834973 345.6986282556739 M948.6618825739608 345.2698631201245 C898.9237763305954 345.74565356044343, 850.2452972469059 344.794444079817, 735.7058145232612 345.4993155461142 M734.2517987595103 344.1656479435343 C735.6410961145052 294.60566789224004, 733.8375784969601 243.12302310245607, 735.9036749876494 204.26935496851303 M736.1420596822613 345.31217843891613 C736.7601028478406 292.5713734615729, 736.1609887185843 239.54618616106166, 735.0193592579374 203.0149244283794" stroke="rgb(0, 0, 0)" stroke-width="1" fill="none"/></g><g><path d="M765.0268867383272 275.0227204309532 C781.7227211787048 274.34306562107076, 794.7259374119185 275.5897148219134, 825.2847756864637 273.62180376334106 M767.0510012462654 274.4221950361424 C779.5149078823248 274.3998538299008, 791.8920241787764 275.14663054375666, 825.6911759571536 275.0739912057262 M824.67133460935 273.34097276302515 C825.7637994212126 291.06472470000597, 826.4074546454094 305.20199412891355, 823.7728484559799 326.6669777355886 M825.5163836435322 274.4964241741748 C823.9426656442444 284.7952315804596, 824.4807821821998 297.13531671354474, 825.5925003155224 324.37678770529254 M826.7243598428415 323.0772507702748 C806.4956709564443 326.39986563575843, 787.7520136093686 325.9209944662606, 768.3744625283673 326.2428286810261 M824.7724395633649 324.05740935955885 C804.6780350571821 324.3615334280662, 786.8821616317641 324.69869924427513, 766.1080039480796 324.7375142216634 M766.8896763095705 326.48570890444023 C767.4838269905043 305.73383658190966, 765.0337027802151 286.39899822817443, 765.0946677827081 275.50951674334027 M767.0322603499148 325.52396496387377 C766.8506800961691 308.15757431837164, 766.9916169866212 292.87910046043106, 767.6604140335313 274.0512381602559" stroke="rgb(0, 0, 0)" stroke-width="1" fill="none"/></g><text x="796" y="305" fill="rgb(150, 100, 28)" text-anchor="middle" font-family="Consolas, Courier" font-size="20px">id82</text><g><path d="M825.6530463391443 276.5969348487144 C838.0398218655868 274.5765793097167, 849.5769288076375 274.4344536946577, 881.5445634232897 273.38877413590546 M825.0643220265196 275.9599806920889 C838.9834632765443 274.9874733814864, 853.2336840268082 275.4929942877538, 883.0258893977197 274.4113145775648 M881.1788801953546 275.3304638434053 C883.6171218264398 292.5129516921523, 882.9178530071762 308.6866464847705, 884.0009819296315 324.6421867921126 M883.4404406204858 275.6434273756513 C883.2632811594651 289.87935231397057, 882.5568860110052 303.0320394384741, 883.8015744975207 325.1831221669059 M882.1190553857883 325.4339626679843 C869.8261658178099 323.24394000311946, 855.9170366413786 326.557843832651, 826.5344151486318 323.2665982753218 M882.3978188557908 325.9915332103184 C868.9531790555511 325.4967507475529, 853.4715132949842 325.0557738288025, 825.6593321004866 324.66769338741886 M826.2968974594837 325.5507296251006 C824.1881844615817 308.1485788848529, 824.5719414618545 292.97687578922677, 823.454630782305 275.8367515382113 M825.9407463194543 325.78101115223996 C824.9789058955578 307.57845308209556, 825.5243398918356 289.4476330795247, 825.7547777223945 275.41719035868283" stroke="rgb(0, 0, 0)" stroke-width="1" fill="none"/></g><text x="854" y="305" fill="rgb(150, 100, 28)" text-anchor="middle" font-family="Consolas, Courier" font-size="20px">id76</text><text x="772" y="240" fill="rgb(150, 100, 28)" text-anchor="middle" font-family="Consolas, Courier" font-size="20px">id11</text><text x="907" y="240" fill="rgb(27, 14, 139)" text-anchor="middle" font-family="Consolas, Courier" font-size="20px">tuple</text><g><path d="M743.1206531416095 211.15608061968604 C765.744458621174 208.2617293281111, 785.2129522034791 211.27614489263908, 803.458501932243 208.6644182525087 M741.6668391167221 210.1340821807765 C765.9657637430768 209.47378053094525, 787.4483098834731 209.00028912914377, 802.0045653783139 210.2325701768671 M801.3762151937863 210.63893591467507 C801.5531644055756 221.05565144471475, 801.2013048479903 229.82863151885786, 802.469232029402 261.4742433608945 M802.4854646438872 209.10528531263282 C803.08020687506 221.8457339953605, 802.0394057341434 233.8549155550261, 801.8025297096679 259.1640028517288 M800.3328978449334 260.53754588374534 C781.021268768582 260.3838898445878, 761.9694932352912 259.1904697256777, 740.2005057718062 259.91461671661716 M802.9256414324931 260.18913675365 C784.452999321714 260.47875583100813, 766.797085923698 259.1983926342356, 742.31221963061 259.10689223143976 M743.5701573339439 258.00246554969533 C742.5444879361912 241.73877926209443, 743.9393189246579 223.06609909428474, 741.8754329056435 211.16724776734628 M742.7601001979033 259.5011386182504 C741.534570685354 240.69302960231917, 740.7711165861375 223.12828267834988, 741.1713125464692 209.0928964446541" stroke="rgb(0, 0, 0)" stroke-width="1" fill="none"/></g><g><path d="M870.2566679996069 209.74871078766563 C891.350355018019 209.32608371237814, 913.1822292823981 212.24837879221894, 942.3632316548798 208.3605615848381 M872.9567272796828 209.4477797028505 C894.1282201577246 209.15187345234628, 916.4855312801185 209.22695653943273, 942.6262657174044 209.81315036541764 M943.3132930940463 211.091334391799 C942.0278532235459 223.40657139367306, 940.6715074311736 239.58525117840068, 940.6363224511194 261.66985599752644 M941.6465044596262 210.4844136139622 C941.5066452851221 227.11996779464624, 941.772489565687 245.13043038794942, 942.2967950664723 259.8980037360726 M942.524862066319 261.7849242742904 C916.3577000016593 260.5669168024959, 889.7459774787155 260.8082266172854, 871.5329764928027 258.55090467279706 M941.6703535142409 259.2843551593377 C928.1270428671969 259.93061827202064, 913.2648487469886 260.9551538587198, 871.6601837566056 259.1409990081087 M870.5644078029155 261.9253400632872 C870.6803377341643 249.70370367165808, 873.640113763448 234.8704052516654, 870.2300071161327 210.55701195127358 M872.249554192231 259.50331577682 C871.5725603510764 241.27835146335352, 872.9636431578579 221.2315651222276, 871.7634246067383 210.63171257012843" stroke="rgb(0, 0, 0)" stroke-width="1" fill="none"/></g><g><path d="M972.5282147480458 210.56950694567965 C1038.4128078771844 207.08204689280157, 1103.7188735370617 207.64660194555807, 1220.5758250173012 209.18826937434875 M971.1825033689317 209.36099993840244 C1028.3968741801784 209.99462112167473, 1086.4030787780412 210.4483840555596, 1220.274525530551 209.8185908660885 M1221.5809425723542 209.88616472144395 C1220.8002027794491 242.87510942884117, 1222.2164724070062 271.6300651500786, 1219.834979525004 338.2587242766163 M1220.395811253353 210.76237889645472 C1221.8291681895753 257.18534038834656, 1220.8328140301655 304.33905465970275, 1220.2638919761303 340.21500988979176 M1219.5138351719854 338.3943922054342 C1141.0626794356115 338.8270603966366, 1064.4159450866678 339.1315756181978, 972.7920304697599 338.8643280217701 M1220.1872632915652 339.85479263894945 C1151.5141981328566 338.48353513550217, 1083.9416215827232 338.9953055884962, 972.1289898940261 340.68639337453993 M970.8586057960156 340.2787260083454 C972.5169503049669 309.06541578551605, 971.7894240397418 279.13441799061457, 972.4128468783304 210.99595374448674 M972.3343122475734 340.34892196070587 C973.3655112211552 289.0077942261043, 973.2436314901829 238.74462491713726, 971.0309222985303 210.44965287221436" stroke="rgb(0, 0, 0)" stroke-width="1" fill="none"/></g><g><path d="M995.5534144459716 274.8082894487969 C1015.2587334798718 276.41874140615363, 1033.923617449374 273.11038267971685, 1054.4974151368394 273.66523527699695 M997.218768748923 275.7636955059996 C1016.9020110073379 276.1298494902629, 1037.9351603212651 274.74605052938097, 1055.136348245224 274.8226134079554 M1053.1438102795848 273.4669721782218 C1057.0950266165403 288.5964339558374, 1056.9019961042727 302.02963269320867, 1054.1162978245402 324.18608455086115 M1054.7943838143315 275.2703494481377 C1055.325570892676 291.57444969396846, 1054.2431131071232 307.18663796032746, 1055.4132124086213 324.868412062346 M1055.7187458154124 323.4855064665212 C1042.3943743374716 323.56215988123256, 1031.2385947686366 323.1821632812211, 997.7268378214524 325.9617810602327 M1054.2255626327806 324.3991283756763 C1037.6498561075102 325.9568444248412, 1020.279947667066 324.87933693521705, 996.8340794756994 324.30222205289476 M998.2161446456812 326.74316330618797 C994.9517829973544 307.93717698517804, 995.3847344074178 291.72825988457174, 997.2781585445819 275.73362169051006 M997.9726426483502 324.4877310415355 C997.60241692775 310.0313062173847, 997.223443305623 293.97793816328675, 996.4773655553971 274.11788461461975" stroke="rgb(0, 0, 0)" stroke-width="1" fill="none"/></g><text x="1026" y="305" fill="rgb(150, 100, 28)" text-anchor="middle" font-family="Consolas, Courier" font-size="20px">id36</text><g><path d="M1069.3633707154916 274.9153060578009 C1080.0459560146235 275.401464719555, 1095.3627471387433 275.99154986389203, 1125.5011066947716 276.5438946887598 M1067.7523398231874 275.7309869264652 C1090.0121607022963 276.2561746380329, 1112.1292481066562 275.74518970894763, 1124.5775181424572 275.1143591716367 M1125.9469269322944 274.2674143913234 C1124.5805060774571 287.1443078000548, 1125.2967374813634 300.3473173700148, 1124.1013773975824 324.36080255970404 M1125.6116406436392 274.4246320090969 C1124.6063047287437 291.7144177721858, 1126.0480847891495 307.56538776213745, 1125.4957077662764 324.04470013241126 M1124.9786641322319 323.6695140271309 C1110.7010529106915 324.3996781450483, 1098.211959846945 326.8311281550293, 1068.9148085354325 324.99889254275695 M1126.2346942388344 325.21298530337543 C1103.9772328775398 324.9570929603932, 1080.9079119792455 325.4499531674763, 1067.1550990404255 324.98641941173565 M1065.7244551861693 323.521810325991 C1066.4204406709177 311.99568562959314, 1067.1464215367566 303.0906055645476, 1068.5259639549704 276.4667204908282 M1066.5583071921603 325.17667421096024 C1067.8209129613194 310.7170766622969, 1067.405716167133 294.70324642055346, 1066.858002818879 275.82591031385516" stroke="rgb(0, 0, 0)" stroke-width="1" fill="none"/></g><text x="1096.5" y="305" fill="rgb(150, 100, 28)" text-anchor="middle" font-family="Consolas, Courier" font-size="20px">id49</text><text x="1061.25" y="305" fill="rgb(0, 0, 0)" text-anchor="middle" font-family="Consolas, Courier" font-size="20px">,</text><g><path d="M1137.829359710182 275.0560356986556 C1161.147902548334 275.2701906704415, 1182.0681303158708 276.05465265272153, 1195.028049963759 275.5486036152305 M1138.0035343307868 274.81763771547634 C1154.3197303599413 274.4924397896953, 1172.1755123088344 274.46093644327954, 1196.9407668142142 275.9821632833134 M1197.7873118015484 274.45133083530015 C1196.3340961686924 291.26665063065275, 1195.3280389517959 306.7669648325646, 1194.4206262549715 324.4307256810995 M1196.348237084741 275.639948282857 C1195.0932153603599 288.7761213657526, 1195.5741816896102 304.4590081892459, 1196.3921357276517 324.1457014124478 M1194.771042952768 326.04370727658664 C1175.4091522523938 324.82833403165057, 1152.5506512836423 326.55077634824994, 1139.9965064925639 326.3142341933835 M1195.8021085911296 325.6845809264552 C1172.6969503788655 325.05188422990454, 1150.0080602834873 324.19861668907316, 1138.3866103606097 325.57759264888523 M1136.8634270660805 324.4035220415259 C1137.9066037667915 311.5633640993991, 1138.457207333659 297.30494582259587, 1137.1252455465903 274.0633116120762 M1137.2089876041634 325.15887710325944 C1138.254227324094 306.29023537403106, 1138.0389065261465 288.67190450491603, 1138.281984117097 275.3124602121445" stroke="rgb(0, 0, 0)" stroke-width="1" fill="none"/></g><text x="1167" y="305" fill="rgb(150, 100, 28)" text-anchor="middle" font-family="Consolas, Courier" font-size="20px">id64</text><text x="1131.75" y="305" fill="rgb(0, 0, 0)" text-anchor="middle" font-family="Consolas, Courier" font-size="20px">,</text><text x="1002" y="240" fill="rgb(150, 100, 28)" text-anchor="middle" font-family="Consolas, Courier" font-size="20px">id90</text><text x="1191" y="240" fill="rgb(27, 14, 139)" text-anchor="middle" font-family="Consolas, Courier" font-size="20px">set</text><g><path d="M972.1819989239899 208.00099439153308 C985.1188685011065 209.98193816983945, 996.398017158436 208.18025122265917, 1033.134873661153 209.78754118096987 M972.4375965755627 210.08192747944742 C992.0251718002294 209.37409416509578, 1011.1783618365035 210.34772535160158, 1031.988258757749 210.2709205574321 M1032.73309114041 211.39105620256544 C1032.2068840913096 228.5344229668659, 1031.5489259583642 250.8549822206569, 1032.9872871491511 260.7942519037496 M1032.5357853833696 209.55145629668988 C1031.4038209638109 227.96440969219947, 1032.7519107863336 246.50807830193702, 1031.1901276471813 259.88938257473023 M1033.5035720135952 259.8672291399853 C1015.318700005363 261.53866532213283, 1000.9037400559712 261.6695771291809, 973.3293966448424 258.083912861311 M1032.202110296377 260.78046087465384 C1012.4056056579778 259.44393289004825, 992.0064923184649 259.14696832622184, 971.3302065797685 259.6988907734486 M973.0041866269759 260.55917806048325 C971.2238371556164 248.9475762097347, 972.8617398308385 234.7820545445724, 973.4389998829255 209.18356780505079 M972.5068672016214 259.4387347324085 C971.8566164356223 241.70170514234252, 971.4682156426874 223.07123145888917, 972.1835540463264 210.71318429792925" stroke="rgb(0, 0, 0)" stroke-width="1" fill="none"/></g><g><path d="M1161.6997418514104 208.63429946665005 C1174.0433078474025 211.38380069767672, 1188.1649498274385 211.2441720293227, 1219.5774436412694 210.01041473543754 M1161.003860195353 209.63102306541762 C1182.430373746296 210.73983172087338, 1205.160856208944 209.66977812867887, 1220.9776542108045 209.92640882315288 M1220.8625359270347 209.39350983357136 C1221.68828887749 225.970679744344, 1219.0422831824874 237.8934352346227, 1221.0225799788443 258.08192095192464 M1221.8842867786275 209.66887920000025 C1221.835517124782 224.77311136241275, 1221.500207399818 240.7871223616027, 1220.3851843316963 260.2193092001764 M1221.4803682054903 258.0688004961885 C1200.5107806964218 260.94892922667555, 1176.9210405512556 258.3978606257837, 1159.7087804637981 261.78511895081647 M1221.1059917746024 259.36220332210235 C1209.420658635279 260.2751418078405, 1197.2859056633097 259.5379737044911, 1160.440591737923 260.8468271789939 M1161.1197411571952 258.16594990070865 C1160.5666514773347 239.22450023071556, 1160.5498960613388 219.77094254385804, 1159.3920652759082 211.39571950988739 M1161.0483783380337 259.9278540467406 C1160.499259315212 245.8391702685377, 1160.3016365540775 231.12186832932184, 1160.76801595314 209.62294159312452" stroke="rgb(0, 0, 0)" stroke-width="1" fill="none"/></g><text x="984.5" y="305" fill="rgb(0, 0, 0)" text-anchor="middle" font-family="Consolas, Courier" font-size="20px">{</text><text x="1208.5" y="305" fill="rgb(0, 0, 0)" text-anchor="middle" font-family="Consolas, Courier" font-size="20px">}</text><g><path d="M284.9722157403502 457.3116081955792 C296.5857456131387 456.76070623595876, 311.58204846501843 458.4221966477569, 332.38831070778315 458.63207451657183 M283.0086322333652 457.6466216999363 C292.22055479063954 456.6053596460109, 303.91427103573125 457.4303982459207, 332.17969442012503 456.6101037434549 M332.41686579040754 458.75840210264045 C334.0137792033805 476.0559945498469, 331.4890451989575 494.13149051705454, 332.9640736882556 505.1913543846828 M333.1616572639041 456.4197332922227 C332.69535972947995 474.17326239585157, 332.3124066692592 493.95517806483235, 332.1072833113465 507.8248565486145 M334.4702556159003 507.1521527466001 C316.66282028380255 505.52909386221, 303.61335215669015 507.49482629068694, 282.4556528704498 506.8570206658871 M333.8177752027862 506.3162313402715 C316.4537673898254 507.9113427556965, 299.2455198101273 508.0460752814206, 282.8265147492348 507.2811942689968 M283.94768068856473 508.2448651214349 C283.13683180353905 492.46829784053926, 281.2412584138191 473.9209271487499, 284.18739938395413 456.3581998618029 M283.06802106924414 506.33136005458607 C283.52027139686163 494.51883578429505, 282.7674936734316 480.06075462787425, 282.27015221606104 457.5306107699034" stroke="rgb(0, 0, 0)" stroke-width="1" fill="none"/></g><text x="310" y="487" fill="rgb(150, 100, 28)" text-anchor="middle" font-family="Consolas, Courier" font-size="20px">idx</text><g><path d="M284.87024747128106 530.8583785757731 C301.30867726658465 532.2565736818129, 320.39173322624566 530.4235644745462, 331.1413422739607 530.0868407152285 M282.06213184074295 531.0916507309713 C295.57712972861896 533.1103876501816, 308.2552533119552 533.3587528580804, 333.37324619135865 531.3652955168282 M333.65129676051777 530.1680359355362 C334.94842153261 547.5621028491586, 331.8070457786742 568.6737824033142, 331.0077804777923 582.5202101984668 M332.78810116719865 532.5992535242416 C333.7085558707441 542.639324352621, 333.6595398584399 554.6243154166582, 333.2653202714758 581.3152981105866 M332.74728400832305 582.2287845683726 C313.09319554105093 582.3565843501377, 296.4518002334013 583.7197130066108, 283.1253233090382 583.2820465852104 M332.1857938428588 582.5267859675764 C316.9649353719392 581.3994637109047, 299.7025904243446 582.2411993311622, 282.0937302217674 581.4480153852987 M283.98425629393813 583.6171075480719 C281.4964236692684 565.4995435258145, 283.57198328960294 544.2091142271374, 284.1658618091005 532.7493545724706 M282.16198564350844 581.3864940241967 C282.2119130575547 569.3204421534568, 282.51891855122045 556.0219942064683, 282.9823524511566 531.7748900929917" stroke="rgb(0, 0, 0)" stroke-width="1" fill="none"/></g><text x="310" y="562" fill="rgb(150, 100, 28)" text-anchor="middle" font-family="Consolas, Courier" font-size="20px">idy</text><g><path d="M284.7476907720173 607.9883315839828 C302.5655663550941 605.562764397696, 321.91351813803686 606.3315966375293, 331.82636351097324 606.8219095108834 M282.03796082222334 607.158765998306 C297.4670175120021 606.3025101872017, 313.86333425694323 607.2521241239712, 333.2990550398809 606.2055407113811 M334.9242249436433 605.2250272011139 C332.4028274422521 619.9630875010618, 334.33946502726184 632.2532468554831, 332.56312348506697 657.5289472912717 M333.0656213201225 607.3166474474394 C333.0417818422744 625.6691958059753, 333.9052576923471 645.182073705402, 332.1674706664207 656.5162855212324 M333.2839218019975 655.4077972841253 C314.45672183435346 656.4174486617376, 294.2268406033354 658.0487882715911, 283.57246298234236 656.4380255649869 M333.2807055083671 657.4549478174996 C313.418908110843 656.7112202151886, 294.8698842005952 656.6071455123388, 283.53180581223603 656.5240690404232 M283.64353776751204 655.6969919095434 C282.52870225651503 645.9120746168495, 283.4958741472276 631.0542714064705, 282.61160072317625 605.2276831660305 M282.82821336052115 657.0317675991372 C282.6707075900698 642.6899907892081, 282.6973607982674 630.699211919968, 282.4074891649201 607.573720029824" stroke="rgb(0, 0, 0)" stroke-width="1" fill="none"/></g><text x="310" y="637" fill="rgb(150, 100, 28)" text-anchor="middle" font-family="Consolas, Courier" font-size="20px">idz</text><text x="364" y="487" fill="rgb(27, 14, 139)" text-anchor="middle" font-family="Consolas, Courier" font-size="20px">:</text><g><path d="M385.5094073554916 455.07147445044 C399.34633620525665 458.62046971639467, 411.0843398334273 455.85151898712434, 444.7634300380936 456.57578410531545 M384.80759155176304 457.5042055983727 C402.8414213261218 456.5321310206465, 419.13626302130285 456.8222269516344, 443.4056297562123 456.020228073585 M443.42332279606484 457.55968209315137 C445.1492164884896 471.5654432886215, 444.1806307265246 488.4882809714885, 442.7607933355795 508.66341198271397 M444.06570697072834 456.6967631499275 C442.71555216323657 468.14768481094575, 443.4715039394897 480.47538250035797, 443.8572602476207 507.83121171080023 M444.93636736669663 506.4283695543251 C432.05871752197186 508.1777543224569, 418.0170084597729 506.86573420221885, 383.20568541825514 505.9894714772262 M443.96751187163187 506.1647143394603 C427.1474097177914 506.84873802126083, 411.77700682326685 507.84675179728544, 384.48854365106735 507.38454031271465 M383.5442342613331 508.3142010891967 C383.0277917956648 496.78712908072623, 384.80740039222707 483.8936410919476, 382.7867131788392 456.2767605325135 M383.97283846143563 507.56739133535314 C384.63079405451634 494.6703000266472, 383.5878460782643 480.8488681784086, 383.6655612797201 457.0078408571972" stroke="rgb(0, 0, 0)" stroke-width="1" fill="none"/></g><text x="414" y="487" fill="rgb(150, 100, 28)" text-anchor="middle" font-family="Consolas, Courier" font-size="20px">id81</text><text x="364" y="562" fill="rgb(27, 14, 139)" text-anchor="middle" font-family="Consolas, Courier" font-size="20px">:</text><g><path d="M384.03831905144494 530.3661619892881 C403.891170233239 529.8589429987125, 423.9150014787005 532.1162269665588, 457.28513776832347 532.0396566136344 M384.9018291714365 531.2414623086505 C406.7418020410792 532.5109561744308, 428.80159103182444 530.7645529564, 455.0830769391083 531.863842586592 M454.73320224917825 533.7860797976679 C453.8877741568194 546.7255591383109, 456.46706529263184 559.83871320697, 455.3721096014576 580.3525804820104 M456.74534706762364 532.8119290711055 C456.25420869170085 544.4113207172098, 455.1183154767406 556.4722758680302, 455.9702097955577 582.519992134743 M455.0114989754599 582.9916104697675 C428.30849453616366 581.9639051080059, 398.78942712978716 581.3670554107878, 382.9542156582984 583.3387048583172 M456.88652336664535 582.2234521576003 C435.03121496023726 581.7860485565897, 414.3736080750249 582.0944184637402, 383.3178268340003 581.5364562622807 M383.6304613611407 583.8668906691717 C383.59236645043256 568.3635583671113, 383.5466360680643 555.9221292658832, 384.67511353459815 530.2214707965212 M384.32639046537 581.0022726237448 C382.77732732421435 564.0688728289497, 383.95626446433243 544.8688635980297, 384.3236752790392 532.7756893586499" stroke="rgb(0, 0, 0)" stroke-width="1" fill="none"/></g><text x="420" y="562" fill="rgb(150, 100, 28)" text-anchor="middle" font-family="Consolas, Courier" font-size="20px">id100</text><text x="364" y="637" fill="rgb(27, 14, 139)" text-anchor="middle" font-family="Consolas, Courier" font-size="20px">:</text><g><path d="M385.76197316051775 607.5774858578197 C409.6854593831779 606.4681538298852, 437.6451879060777 604.6576599531169, 457.44577860946066 606.1787364835087 M384.6274883585668 606.4929027719077 C406.9667920186742 605.3396256248329, 429.56935652651674 606.2557431450667, 455.9905117597448 607.6777159757369 M456.7978714934697 606.2513718096218 C455.2895363546621 621.9711855609401, 454.2698232121416 639.926361009742, 457.1904390272879 656.1505664827697 M455.31087022365534 606.8947265646691 C455.67539740035375 620.0609546481938, 455.1568095075525 630.5584070199409, 456.6876509136839 656.3149308618729 M454.74511965492246 657.3964795661424 C438.7869572155513 655.8592896456847, 424.4536680699357 655.4545311978885, 385.07126951950187 655.9212879384216 M455.34208084518 656.707397571289 C437.87627391974513 656.869578954086, 419.3963972941775 656.7238669781489, 383.2653095688606 656.2848881834125 M382.2530619032006 656.7872166730722 C384.9413446379816 647.6361756497025, 384.5437578051537 636.553012065894, 385.69270692120364 607.1709230864324 M383.9327691756652 656.5796712256296 C383.73543039579863 643.1307319005135, 384.53922829584013 628.1625578546993, 384.948947145997 607.1222300430454" stroke="rgb(0, 0, 0)" stroke-width="1" fill="none"/></g><text x="420" y="637" fill="rgb(150, 100, 28)" text-anchor="middle" font-family="Consolas, Courier" font-size="20px">id121</text><g><path d="M256.84358780404415 381.4641221941718 C318.4228021594944 382.6746390721024, 383.52264728275753 380.7050275702948, 468.44077663811 380.34889376456465 M258.17602828342615 381.47894203971896 C322.9866479563542 381.35964303742514, 390.29751120761546 381.92213915419575, 470.76959873992485 382.3250641032415 M469.7760875153477 380.8070266276098 C470.5271067045142 489.3072637837127, 469.74820140972326 595.8769290448449, 469.13893338317337 681.8643915880123 M469.6435913865017 382.04288595996036 C469.4095047760936 474.05647450123826, 470.7457552105205 565.1851360520137, 470.11611564276797 682.2638312095128 M470.8253117255615 682.3642629368645 C423.0625275210274 681.5776325893481, 377.44750892212915 679.1568525066112, 256.8880501131541 681.8914827557661 M470.3776064169518 682.6009562546711 C420.770236671007 681.0011473099673, 371.1054520185136 681.1726468063735, 258.37573256866096 682.3273540480689 M257.3172355306706 682.1869324442621 C259.6774196949615 590.4327596130196, 259.2473192621485 496.02757151907406, 257.8747628910467 382.0403200166748 M258.5931210791852 682.3025060359549 C259.4686274443511 611.241928726801, 259.0417900818848 540.6829504920898, 258.4408386525304 381.8150828159716" stroke="rgb(0, 0, 0)" stroke-width="1" fill="none"/></g><text x="288" y="412" fill="rgb(150, 100, 28)" text-anchor="middle" font-family="Consolas, Courier" font-size="20px">id10</text><text x="440" y="412" fill="rgb(27, 14, 139)" text-anchor="middle" font-family="Consolas, Courier" font-size="20px">dict</text><g><path d="M258.56297247171443 381.0323026686128 C275.1747800685382 383.0243019473046, 293.4098145649128 382.21873784153877, 318.5268396634749 383.8910249874247 M257.98153651211123 382.25157559245173 C272.0931004879635 381.58513416350445, 286.56771500311675 381.66628676943117, 318.96027586695277 381.6090164109607 M316.56210776337787 382.53154585044666 C317.62269131325115 391.6694061098772, 317.069749686721 401.6198647674463, 316.5855743068107 432.05850595543245 M318.7987570054464 382.99087273552647 C318.04829396712654 397.55546707020693, 316.97153433735343 412.29185375572484, 318.1419606916859 432.60992542158624 M319.1682677032765 433.4831019014672 C305.0154648740154 429.78685731249993, 291.36096721793905 431.3154397783335, 258.18432759842904 433.7735719937839 M318.6641360083415 431.3170078437926 C295.500431975392 432.1837677895229, 272.1835335161988 433.2146940456073, 257.610454366124 432.81001360829606 M259.7604436487358 432.4019465368453 C258.42438871879517 417.72097679823446, 256.6521895807374 404.59828296382767, 258.0725902574013 382.0772234896568 M258.9014918860846 431.99082398776545 C257.84811393146936 411.7278720262175, 257.76711723925786 393.52428329444007, 257.7462066943217 381.0375134930455" stroke="rgb(0, 0, 0)" stroke-width="1" fill="none"/></g><g><path d="M408.89301517365874 382.61433382039127 C431.27802931455045 383.25889475308867, 455.284622680126 382.1016838143789, 469.2293356153589 381.11113817101995 M410.9209444659024 382.6641622931842 C423.70963035694723 382.6311182139942, 435.0902680322746 382.31934935508747, 469.7927181487692 382.4447939655441 M468.35040646340263 381.958587493427 C468.9193008777804 391.9757673624189, 471.6601807281876 401.4336728783996, 471.2206173254685 433.7596517035128 M469.57118849556974 382.16969858731005 C470.45005834853106 395.6737868226423, 470.0797361375966 407.80692984437366, 470.3420815109582 431.2513753404639 M471.1712480143089 430.20663937857796 C453.92386785307457 431.2515690976902, 438.9922056797957 431.6210700089424, 410.9581882427948 431.8286001686808 M469.5593396545202 432.81860080317034 C456.95916627659653 431.0375674972937, 443.87403506354156 431.0791765965088, 409.3244186818736 432.7282380584496 M409.25841572990004 430.6894979415119 C411.66074256347184 414.7398164833311, 410.2256034644108 395.1506176333287, 411.70198864512406 381.3442164295047 M409.50833428794255 431.1350373351502 C410.17905729154415 415.6420722683678, 409.4752350163366 397.65280415543106, 410.9597655748464 381.66794558844185" stroke="rgb(0, 0, 0)" stroke-width="1" fill="none"/></g><g><path d="M498.97070537941033 383.7801671759082 C568.9902454352138 379.7240393950012, 636.8861740234402 379.9106078429378, 700.1987111951115 380.674628611723 M500.52896253176135 381.2319551651542 C559.3794589127073 380.5341984668339, 619.3915393524267 380.88376864894286, 699.9687468515697 381.2989587925962 M700.5786641716044 382.98863404774676 C700.4319830756189 415.7661279330871, 700.595031347 449.8036172461772, 700.2239749909473 513.1830853049644 M700.9369814469436 381.3370026992405 C701.8808903421136 431.7519571943001, 701.1928970837076 481.9856154703153, 699.4030684791165 512.4114018962222 M700.5007973619745 512.3569621956054 C651.7956953055891 510.0961778630473, 602.0614558997039 510.4500905171219, 498.42367458001627 512.5698646394022 M700.4637691649359 511.6586032144931 C657.3595024210807 511.91725576836836, 613.2804986837427 511.8958019184778, 500.7134028512854 512.8489119869079 M499.3018629973102 510.63118382228913 C500.1926799952534 483.79539072276543, 497.93014346314374 457.8235130318353, 498.4761203441891 383.91796801171654 M500.2305476222961 511.3395642354612 C499.81198479792124 472.55061175785363, 500.3740311070983 432.5806164816506, 499.66787929969314 382.63400304266474" stroke="rgb(0, 0, 0)" stroke-width="1" fill="none"/></g><g><path d="M494.04832726276095 375.7855374081345 C571.2140045434624 377.02431502581425, 647.7965272339351 376.57479834091123, 706.4836080484789 374.8624805079104 M494.3359063494602 376.8196609546653 C553.135587263635 377.75249618252315, 613.3597702771877 377.28663378330947, 705.2981598847417 376.1436214284182 M707.2549901924959 374.1588443482583 C706.1037662589243 419.73298910431, 704.253774057332 465.6910067871817, 705.9455496609573 519.7723501344656 M706.498224115558 375.48715109850514 C705.2809573478404 429.49235957551423, 705.2975672528579 482.0003498873882, 705.2124414740798 517.28684717086 M707.1239312265432 519.0405431819526 C646.5414829331633 518.65906024999, 589.3459071822898 518.6451725943899, 495.0155096222166 518.9392311811348 M706.7466989509898 517.529816873508 C626.7489339288218 519.2279144368705, 546.4316902424046 519.7886576734073, 493.38424548128233 518.8575050401113 M492.14091532330184 518.6316834728768 C496.2189351695162 471.02586305192244, 494.7307262794458 423.70191787129403, 494.8551150181236 375.1762080618511 M493.13465584371346 518.8882598486671 C493.6639646645137 472.4973302189164, 493.7654093147409 428.04156119888455, 493.9518474574241 375.47759676488585" stroke="rgb(0, 0, 0)" stroke-width="1" fill="none"/></g><text x="600" y="472" fill="rgb(27, 14, 139)" text-anchor="middle" font-family="Consolas, Courier" font-size="20px">"None"</text><text x="530" y="412" fill="rgb(150, 100, 28)" text-anchor="middle" font-family="Consolas, Courier" font-size="20px">id13</text><text x="670" y="412" fill="rgb(27, 14, 139)" text-anchor="middle" font-family="Consolas, Courier" font-size="20px">None</text><g><path d="M499.3608048340107 382.23783369608145 C511.631908921457 380.6761976012413, 528.0899505215231 382.6165083143718, 560.9688690626095 382.57912048208334 M499.06018654346985 381.40314020191175 C522.9898246423321 381.62072482371224, 547.6029185455128 381.47062462075536, 560.3997607908973 381.36798090097165 M558.1561225666304 381.56122814602827 C561.4054899287983 399.7953648492738, 561.0380946189207 413.02021511515454, 558.7553361855702 433.57484148052686 M560.521843194283 381.6197922304084 C559.4007948080396 391.72413568810333, 560.1940109448648 401.1940733172085, 560.969110853934 432.0212501227577 M561.0030665567826 431.4278813091095 C539.4083901050675 432.65209388945823, 515.6146325318738 434.2345300158391, 499.55772246576623 430.5995686879557 M560.6399373129128 431.087646391605 C546.49779675114 431.15895316773594, 533.8177025943393 432.21331015533065, 499.53461569181593 432.8431627919564 M501.5430804035432 432.9061910364055 C501.4421717719034 422.1868618822439, 500.5291448886666 408.42358244221157, 501.8973858002865 382.47058689674805 M499.2451539095775 431.74279247303116 C501.32329597309223 413.1380015111725, 499.7733786202318 393.0884489946615, 499.658414536638 382.3649998017089" stroke="rgb(0, 0, 0)" stroke-width="1" fill="none"/></g><g><path d="M641.7116448274465 382.535882175272 C663.4430794800028 380.5798043200497, 686.8636935039152 384.2374886746476, 699.6221528841556 382.6862760690762 M639.7208817773777 381.34043491866026 C653.7579695316527 382.01062046847926, 667.5970180770817 381.13107598741954, 699.0503398581862 381.8113759107099 M700.7298925699552 383.793338682633 C701.4424376132824 395.7875126184934, 698.421463482723 412.83627845011756, 699.7592585463477 433.99420282549215 M700.6079536410039 382.04807163268356 C700.0639899399127 396.1990185208065, 700.4451604406735 409.79623177830445, 699.9224715850131 431.1291312759978 M698.9035142840966 431.1120663317235 C686.0604137054645 432.2639336053719, 674.1528578776869 430.59489385308666, 639.3371671345683 430.3668982629622 M699.6998779257872 431.85223623901487 C681.0291050370649 431.707351120417, 662.1442142114098 432.436034600449, 639.1107843173374 432.0690715297285 M638.5267038735452 432.17152016278436 C639.0767484570255 419.6888665450473, 640.0667704943191 412.015359406155, 639.9913214511017 380.44025977507494 M640.1633521415865 431.15162092922276 C640.404357946838 413.88967954709227, 640.2846669753176 397.81360780032065, 640.6848189445802 382.3158053576132" stroke="rgb(0, 0, 0)" stroke-width="1" fill="none"/></g></svg>