<svg width="1300" height="1100" xmlns="http://www.w3.org/2000/svg"><g><path d="M25.622239261902603 201.71094483358866 C66.34449939422312 202.04179714316572, 110.90286550080477 202.27244372703595, 221.75772446567717 199.37461893666068 M24.763796818433057 199.40808810519715 C95.63728472308117 199.28980264426497, 164.5824931741819 199.4314494181092, 222.61627650092325 200.26397113117184 M223.102805151191 200.17941956864743 C221.76440280689073 325.8881839311128, 222.6053496138184 452.143028873418, 222.19073820618075 650.8067556736439 M223.46930366418167 199.66841359615626 C223.08741417523342 322.2964623028589, 223.1826750727573 444.4385698754698, 223.46049951140762 649.5521934730398 M224.62892932673108 648.0183470735121 C169.2819239230912 651.6944892600435, 117.95166626688014 649.930032999341, 25.181606684079057 648.7485080428005 M222.16834836082046 649.0467879530693 C177.235268638616 651.9497476516024, 131.61612817097452 652.1063356531793, 25.889385697006695 649.9345214155005 M25.82069584702512 649.1202090769667 C24.759206821484657 516.4591857703326, 23.316459563048383 383.91234049151933, 24.401021203768742 200.42468876440262 M25.280616768372962 649.8215590244884 C24.462862837973663 534.404274913438, 24.60558980634902 419.0953535633415, 24.708389437855775 200.3756367263339" stroke="rgb(0, 0, 0)" stroke-width="1" fill="none"/></g><g><path d="M149.9368567850952 276.8979349001337 C166.54044008167753 274.0104612504994, 184.58761174838477 274.48735615264934, 207.01265046830207 275.71343800380504 M147.18291114632675 274.47649058337015 C166.49436378713807 275.49564148895746, 185.3069516446578 275.2171638011731, 206.98550122496832 274.42798480208893 M205.02360552004416 273.8692398754532 C205.43737057099426 293.56981989881405, 205.74633855333843 307.8677907473458, 205.07482579239976 323.7429339230936 M206.68704974237497 274.5159804327359 C207.1429547549164 285.373115074917, 206.91527407011193 297.03961864237436, 206.48248424860378 325.7039556469119 M205.7902875134371 324.56448677743185 C185.85233372882988 326.6394947444045, 169.3204231964117 324.15061615626007, 148.6390683725216 326.36952124672183 M206.13675805108477 324.16675008729953 C194.68107884649424 324.9809619248566, 181.90535021549846 323.94448366910603, 147.64616771126634 324.23187743328504 M146.1935713358537 323.2109785514469 C147.37167324998865 307.7690587814364, 147.35929517311868 290.2024963664266, 147.20592578920557 273.88027562810214 M148.46085310365626 324.64074339219604 C147.75429221967997 306.7740509925185, 147.08036106154202 286.8320724038331, 148.18147248460136 275.04262123750914" stroke="rgb(0, 0, 0)" stroke-width="1" fill="none"/></g><text x="50" y="305" fill="rgb(0, 0, 0)" text-anchor="begin" font-family="Consolas, Courier" font-size="20px">lst1</text><text x="177" y="305" fill="rgb(150, 100, 28)" text-anchor="middle" font-family="Consolas, Courier" font-size="20px">id82</text><g><path d="M146.7035974654733 348.04865931223753 C167.41934469838873 348.59735984104015, 183.65924496261 349.24358009086853, 205.29484197279436 351.3274936355653 M147.76691231996207 349.8708013238146 C162.07229009221345 349.27477242787074, 173.365214717333 350.13348744918477, 206.4376380741729 349.83846148214013 M207.17312480349725 351.04602014748104 C205.6214969074569 365.1609789118375, 206.4843423583359 380.97303633924025, 204.39280999545198 400.1323563099259 M205.5715810773466 349.57640884058634 C206.34220152480208 359.9681614891354, 206.14137210124912 372.61461819570303, 206.8136271677192 399.4573901196482 M207.81756005413084 400.60400468686777 C190.27609885389626 401.1235697354746, 170.95424449681195 399.129645517001, 148.19486605200655 400.69866515611665 M205.47238299908977 400.05684774581067 C183.21978528730918 400.1005358426493, 159.59057922628557 400.06808776731964, 147.44703745117266 399.95869173256676 M148.42744457450877 401.3697108384781 C148.09837173281605 381.95842144520253, 146.46521399275895 365.5439216182535, 147.07273588355923 348.90318441698537 M148.99032785852577 400.27720439570066 C148.71634848605638 384.7759101093956, 148.73000417561957 371.8226415914176, 147.37050946424912 350.9275822758281" stroke="rgb(0, 0, 0)" stroke-width="1" fill="none"/></g><text x="50" y="380" fill="rgb(0, 0, 0)" text-anchor="begin" font-family="Consolas, Courier" font-size="20px">lst2</text><text x="177" y="380" fill="rgb(150, 100, 28)" text-anchor="middle" font-family="Consolas, Courier" font-size="20px">id84</text><g><path d="M147.86024241003855 424.3663383467877 C161.3805684038092 427.3184060551382, 171.25446259972736 423.6935661792468, 205.0707494489371 426.85495078325795 M147.89480655690443 424.17314589702835 C162.32524464084315 424.4412583252233, 175.9164092182965 425.23965557523854, 206.50624985392804 425.3445123922623 M207.84298894327256 423.535780935552 C205.50756163829055 437.17113014549443, 208.15649356818992 449.82562637873764, 206.95167175397225 474.618956460899 M206.44997719582565 424.10160106932574 C205.59804064971678 443.0975743232622, 207.37158138616036 462.0781869405028, 205.5088807946821 475.493341572831 M204.5897435154996 474.672042092642 C194.45743196174178 472.62285737386856, 180.9642095038942 473.04627138567827, 147.55684002368756 474.55940013612855 M206.6061762436952 475.6587359502318 C189.95798439445159 474.6474937253734, 174.8351949359986 475.0076713587617, 147.38104710376382 475.74804085069 M147.61018688692465 476.1208864214334 C146.20303642816495 463.8479582852376, 149.66298443518792 453.6479156444202, 149.36258575340366 423.6896660387049 M147.76560690475048 475.08236048069534 C148.92690225651114 456.68632679329863, 148.80772977175747 438.47113280440715, 148.567239592282 424.67432474837665" stroke="rgb(0, 0, 0)" stroke-width="1" fill="none"/></g><text x="50" y="455" fill="rgb(0, 0, 0)" text-anchor="begin" font-family="Consolas, Courier" font-size="20px">p</text><text x="177" y="455" fill="rgb(150, 100, 28)" text-anchor="middle" font-family="Consolas, Courier" font-size="20px">id99</text><g><path d="M148.0066027306155 500.2248674541821 C169.52700180484726 501.5143851090724, 193.15380060280629 501.0458409787844, 207.34325685880742 501.0483564058027 M147.7760155336661 499.24524551832315 C162.33666154246916 499.45532519825395, 177.72597266132726 499.64853176777996, 205.6664241205876 500.05285930564673 M204.08440892062796 499.841011616507 C203.91541951534052 514.3861723690793, 206.74762877084314 528.2728232484868, 207.45004614598065 548.578209298064 M206.94429700404768 499.022309891208 C205.72075504127776 511.5218928357125, 206.33412182084112 522.3185492384442, 206.8014287397173 550.7319478083419 M205.07245312045671 548.3283837521058 C190.35277826848963 550.1269218916492, 174.6109158388255 552.0390445647049, 149.6860411150833 550.9667018473203 M205.95677900376404 550.2211214142468 C184.7516504373694 549.9881510061414, 163.95831714503248 550.2262486513364, 147.65251309125526 550.7945020513557 M147.93443878623444 551.4802919594036 C146.3158558696875 531.1282813641328, 148.96323197367732 513.5419149016741, 148.7927144998215 498.53579866650597 M148.99918377059822 549.3147095873002 C146.80036168234088 533.5871871632279, 147.7710436450633 517.5811762212006, 147.30631338790377 500.2060478799132" stroke="rgb(0, 0, 0)" stroke-width="1" fill="none"/></g><text x="50" y="530" fill="rgb(0, 0, 0)" text-anchor="begin" font-family="Consolas, Courier" font-size="20px">d</text><text x="177" y="530" fill="rgb(150, 100, 28)" text-anchor="middle" font-family="Consolas, Courier" font-size="20px">id10</text><g><path d="M148.70663813410977 576.873085984613 C170.83530950715976 575.3533750278673, 190.28026646365296 574.0895783714914, 206.1948957678676 576.4930688889373 M147.98459265127556 575.5544008525848 C160.67372416752386 575.3777484096413, 172.21990524988163 576.1730170898187, 206.6832416080768 575.7606572826303 M204.8203877438519 576.8432743960146 C204.538226454568 587.92438765439, 208.0589246798209 600.0654112676102, 204.74499284702554 624.9202292859613 M206.832142477995 575.148877588688 C205.67793700124338 591.4428161124964, 205.73334965134396 606.4781708045631, 205.16953454151664 624.4285982629049 M207.5665035798471 626.1161821432315 C194.01844886366234 626.4879101057097, 179.26391207421793 624.24699892262, 146.66760376115758 625.640204309556 M206.33974260557991 625.6213496058451 C190.2798746586691 624.9238652235216, 175.39865781362235 624.549588356472, 148.59029557844892 624.9450966917569 M149.43140447979619 624.8375539092867 C148.48685744386742 610.5048486739562, 148.12093869710338 594.178143786094, 146.4928145653544 573.3924897135254 M148.09786575120637 625.6112046014606 C147.38090858574313 608.5929402622494, 147.8468135224271 591.8385778159101, 148.19334484187814 575.5908452837051" stroke="rgb(0, 0, 0)" stroke-width="1" fill="none"/></g><text x="50" y="605" fill="rgb(0, 0, 0)" text-anchor="begin" font-family="Consolas, Courier" font-size="20px">t</text><text x="177" y="605" fill="rgb(150, 100, 28)" text-anchor="middle" font-family="Consolas, Courier" font-size="20px">id11</text><g><path d="M24.27322760418867 199.50263842499703 C45.93313603109148 200.76871639364893, 68.52163375820803 201.36504974329785, 132.55076289693613 198.40444009007896 M24.6803710303477 200.82777160622902 C51.25303507803694 200.30801018245262, 76.86886347002857 200.48175797080492, 130.28511708511212 200.32168202799025 M132.04450750307757 199.13262970705603 C130.23881991245042 218.33638086458018, 129.00876919117658 230.95940820779737, 130.13237112308727 249.76636991076833 M130.3960565934973 199.17714496072688 C130.50386092603298 215.2682023739088, 130.6417604908853 228.96090203489223, 130.66017210263675 249.750046390352 M131.92532957032384 250.89705815363902 C108.35062475112777 248.90158637330887, 86.6475755787732 250.85345930183303, 25.999659425451558 250.22151355868533 M130.46406912716768 250.703224016911 C90.8130283643411 250.47779340981253, 51.66518262881203 251.1633339367791, 24.305743738934225 249.13142963310523 M24.16294568075284 248.64331331962737 C23.69254320888138 236.4274371637489, 23.632535257084342 222.31091798381394, 24.390174364522228 198.69342842573502 M24.475208590725924 250.93158133656638 C23.697685317665933 231.82337983123438, 24.546947817462105 212.50875940893866, 24.891061797767794 200.3266353056613" stroke="rgb(0, 0, 0)" stroke-width="1" fill="none"/></g><text x="78" y="230" fill="rgb(0, 0, 0)" text-anchor="middle" font-family="Consolas, Courier" font-size="20px">__main__</text><g><path d="M348.167384591034 11.644321160163063 C408.8407265003851 11.225437315815315, 470.6985342367626 8.661737475122681, 548.8736712126224 8.27753380604443 M350.5061105655967 10.94482927666948 C406.5459380695503 12.722096100851939, 463.7635149736179 11.168414980557703, 548.1308598731732 10.159688757029873 M549.1012227007728 8.496262463905103 C547.3783552256413 77.19713147863963, 547.2720510806134 143.0452283218095, 549.406360103754 233.9491622710727 M548.0853806393746 10.368200894469073 C546.6677506459472 64.21943398733649, 546.107611530112 116.97993815830476, 547.784723775616 235.7344466319304 M548.3483896362047 235.49539736158286 C509.48123548891044 235.12320903243327, 466.0259193037616 235.37168225650254, 351.7688025016046 235.17758179649041 M548.1981279033057 234.3739027726488 C483.45821815590534 234.43132070570147, 419.38982886724483 233.3992903930948, 350.9465737911248 235.43440086179396 M350.85935629465126 234.19815845289793 C347.16823660073976 186.94880895593568, 346.87494262028156 138.1319842541463, 350.2426005751331 8.448486030610823 M350.5733771671738 235.30849811323233 C348.7434095079981 158.18037036439512, 348.24117934576276 81.70595286036811, 349.4256455008864 10.631946247035996" stroke="rgb(0, 0, 0)" stroke-width="1" fill="none"/></g><g><path d="M474.9818764172338 86.35892063988194 C493.4624437034486 84.03182221937519, 511.9585963326897 87.37068387317895, 531.5807905997559 84.11139254249223 M473.1792971534108 84.32138647720485 C488.35411794624224 85.66911620526925, 505.3859481385109 84.88975699360336, 530.7282248987628 84.63152842420003 M532.8968401259253 85.39667558467909 C529.2591751291925 102.5225584349006, 529.8079963876716 124.58398369562042, 529.1516622390718 136.95325472233768 M530.2897712790062 84.30110577739383 C531.378633331879 102.77835500354469, 530.5207519390091 119.32486979972916, 530.7716184116756 134.93879851421408 M530.5100817671406 135.16493637254516 C510.0638060462219 134.54980564346107, 485.44020658067745 134.17045828093728, 472.0145807860708 135.3234012377867 M531.8088143433445 135.39060777366694 C511.4381958994908 136.22876001060328, 491.0285802088898 134.60927832270744, 473.4892719088622 134.48375151967676 M472.6991170567335 134.6246564030557 C474.25186722374826 119.52389450915139, 470.8386223434341 105.02289589952183, 473.19114587061625 85.83446944763907 M473.70574779361294 135.99236069560337 C472.5898888471065 124.26530332439145, 473.5583168825893 114.34428871689637, 473.29011904036713 85.19008287687332" stroke="rgb(0, 0, 0)" stroke-width="1" fill="none"/></g><text x="375" y="115" fill="rgb(0, 0, 0)" text-anchor="begin" font-family="Consolas, Courier" font-size="20px">age</text><text x="502" y="115" fill="rgb(150, 100, 28)" text-anchor="middle" font-family="Consolas, Courier" font-size="20px">id12</text><g><path d="M474.1883203136175 158.71894895992978 C490.8970351292106 158.6302294965219, 506.0253326583421 158.44864260143126, 529.709206143466 160.63736090493651 M473.890572500348 159.00124843154228 C494.4947998727336 159.4914257449705, 517.0276390848645 159.08227369404972, 530.8643294404669 159.18647917042082 M531.9135306020061 161.4219348692088 C532.8126827709154 181.74110591654346, 530.4521088272681 200.285370220892, 531.293054333581 209.98327985018432 M531.1416385594401 160.7189568524674 C531.124027809611 170.4508950962611, 531.2009460756433 182.37197716389704, 530.450916381449 210.52707577371376 M529.0168521970619 209.51352021969868 C516.5635956504717 210.33128979674348, 499.14153153055355 210.0871025914265, 473.4856845142216 210.12496443040155 M531.9927397495605 209.71222000786113 C512.5106630655192 209.26230564074618, 493.17887148468213 211.01303846410548, 473.3837717819615 209.43007957012117 M474.3158954680809 211.60516864238264 C474.58636411271783 200.73878263458715, 472.79611792380496 188.27640402609458, 474.5123629880108 159.73588801775622 M473.353667367746 209.38360519019878 C473.5115085447898 199.08423412438196, 473.31331772102106 187.68570062049906, 473.9530570168553 159.89667702444203" stroke="rgb(0, 0, 0)" stroke-width="1" fill="none"/></g><text x="375" y="190" fill="rgb(0, 0, 0)" text-anchor="begin" font-family="Consolas, Courier" font-size="20px">name</text><text x="502" y="190" fill="rgb(150, 100, 28)" text-anchor="middle" font-family="Consolas, Courier" font-size="20px">id17</text><text x="380" y="40" fill="rgb(150, 100, 28)" text-anchor="middle" font-family="Consolas, Courier" font-size="20px">id99</text><text x="507" y="40" fill="rgb(27, 14, 139)" text-anchor="middle" font-family="Consolas, Courier" font-size="20px">Person</text><g><path d="M350.3373000661009 8.044382174764964 C372.40040302512864 11.247714738190691, 391.29591168084386 9.182202162570302, 409.3104713222443 11.439593705861231 M350.60280173206996 9.846258728837828 C367.0485631780387 9.841515739427553, 385.5215359517516 9.040096738255603, 410.9986522067555 10.839291874564989 M410.8646251425168 11.53595921480319 C409.44753022247295 22.061232887245172, 410.05617508729375 30.290628165652787, 410.21841260947105 60.64314092908348 M410.24781580752233 10.489102261748334 C410.92246247934685 26.063532583050964, 411.1488367352114 42.036568335603796, 410.1302133747671 59.378090527308885 M411.2792062411486 59.789961091433106 C386.4260048150541 61.73839092225095, 362.17186152046514 59.35009911331707, 351.22598449162075 61.12958156684961 M409.4275435622901 60.97990621274858 C386.8117934768594 59.39100170420552, 365.26594182641736 60.05985759696691, 350.960238265605 60.21368879917624 M350.1311884643507 61.01158604022851 C352.16557378434635 39.62095696319099, 352.14986988797676 21.833320892708702, 348.1159760551616 11.27813494327939 M349.3362382125836 59.34248736900881 C350.1972635239557 45.54197794163699, 350.44156045313025 32.07066710396395, 349.75650217775575 9.57631770500501" stroke="rgb(0, 0, 0)" stroke-width="1" fill="none"/></g><g><path d="M467.05444995048526 8.784541239601406 C487.91026589253124 8.36773367831248, 511.95021350250954 8.727663828862227, 548.4051751513297 8.4751781412543 M465.5862997565304 9.993982283773143 C498.1858836296151 8.895668325157056, 531.4870479491842 8.540859142197155, 547.6139301440472 9.698421250675459 M546.5473436832192 9.455610417155665 C550.3257237787574 22.772816252962343, 548.4814100123759 36.78384739939802, 548.3658735730137 61.95983696596791 M547.1391956984402 10.808367823464064 C548.2017636462109 23.22728666027034, 548.2588301885075 34.78106152623935, 548.7284429387611 60.53325021039336 M549.8520871177059 59.80553346954819 C521.1210076683424 61.017124228878814, 491.07382899770715 58.358638903023156, 467.97770496931935 58.499304248009764 M547.2421746129154 60.19578414393868 C531.5312994355685 59.493059027739946, 515.2673203389003 59.34671093700798, 466.2472405811325 59.67756433595535 M466.70360829900153 61.37245224902269 C467.4330383169113 46.34772758318429, 467.21650935718947 33.705002346751584, 465.4853209517234 11.83201929410984 M465.803980078981 59.96714499240929 C466.01428708876136 45.800581686566225, 466.14389455384384 30.462210557982118, 466.65317230288184 10.471294700746816" stroke="rgb(0, 0, 0)" stroke-width="1" fill="none"/></g><g><path d="M350.23792411188396 348.6695106173407 C437.5347046247606 350.8812338011434, 521.3021770629501 349.6254276044301, 631.7318099112165 351.17396876579807 M350.70163116817355 349.3030897988347 C443.7968393953265 349.6170896285634, 537.0111351861025 348.6319873095797, 632.4838230075505 350.17675044211825 M633.1526720590361 351.99899780489034 C629.8260205917122 386.4394992395854, 629.5786924248118 422.24365017113405, 630.5715696222956 479.63563489270155 M631.4797355056332 349.64851191471047 C632.4061078396599 397.2984369899597, 632.9910994148446 445.4571707040574, 632.7557666773583 479.40434566926234 M633.0525596305284 480.33266726515393 C542.0563891879099 480.71792169293707, 449.86849403652013 479.87616007568766, 350.4765672825366 478.93761465803453 M631.5398300598349 479.9193966698382 C528.0949515973793 481.9836926917875, 423.9937119385627 482.0477609084386, 350.4377429709789 480.12067382375767 M351.68624386587845 478.9366606061167 C349.13418388552685 444.0526167341417, 350.33289321043134 405.28708682327346, 348.21661797848304 348.730457149427 M349.6491765976854 479.849688638887 C351.17831873848326 433.65643608843675, 350.8906344438175 387.45585216695474, 349.25373641498317 350.52360987761193" stroke="rgb(0, 0, 0)" stroke-width="1" fill="none"/></g><g><path d="M374.3312823338452 415.8036040222491 C392.62074678361864 416.11181079839474, 410.3923196162138 416.1944244155433, 434.21930211154097 414.00901900643606 M374.29662913034457 414.81261493929577 C394.9546354004283 415.7458648449541, 415.648382242197 414.32660841158776, 433.177249054266 414.71792861206205 M431.16051215335074 413.8315629816836 C431.9805765702663 431.0603111085155, 433.7272384896889 450.7758436115179, 432.8259848032888 466.30983155919284 M433.5357641034086 414.85865762602606 C434.1327643135161 433.5367548691488, 433.07469247547533 453.04916531595984, 432.27309591180773 464.1838996702336 M433.7895953636979 463.1643710706279 C410.5963037126647 466.991266394184, 392.1281142850014 463.85344973741786, 374.4539617301753 464.67108016566704 M433.1959893861016 465.9868124184535 C413.8239768957009 464.11750491770937, 394.64700429894486 465.0522688715994, 374.41703466657424 464.33753720283835 M376.4212871132599 466.5406857524591 C374.561873696853 446.3439351561416, 374.7229127904427 426.3619830683333, 374.91364363788574 415.6595967973536 M375.36243956306475 465.24959078429265 C373.82777440213323 451.0874851845075, 374.8834880606275 436.9477058671564, 375.76827922885695 415.07541505151926" stroke="rgb(0, 0, 0)" stroke-width="1" fill="none"/></g><text x="404" y="445" fill="rgb(150, 100, 28)" text-anchor="middle" font-family="Consolas, Courier" font-size="20px">id19</text><g><path d="M432.53132229804237 414.3816294748879 C451.03585221556074 414.8565081478967, 467.2100871181707 415.27066054443736, 492.8683183890872 415.457422771632 M432.9058535148996 414.7644971895819 C445.18813323212976 415.74665190942983, 458.06452560717224 414.35247564619044, 491.672755846848 414.8955274970866 M489.5669077443599 415.02803169056466 C490.56497039391513 436.3854117887868, 489.0657962553239 455.16205455837223, 489.47142055178574 465.5792656762644 M490.337169066283 415.57857740603936 C490.6280884520861 426.4293617063615, 491.9857973938471 438.40176996543016, 491.0754357106355 465.2241123004659 M491.594146269763 463.84507514193797 C474.60921645903886 463.43672740439916, 456.1517272815913 464.6677023838288, 432.6042337260507 464.6877982211795 M490.0264086804883 465.392477959325 C476.03719877701957 465.3888198410401, 460.01926037566744 465.77222910253045, 432.64680556477737 465.54870306707556 M433.2044126186693 463.8220196467877 C434.2120653985826 455.5939737014129, 433.5175953847358 442.8109418109495, 434.6788544221912 415.4252371223131 M432.4823712829742 464.8747484279242 C432.2383980999233 449.50175523360696, 433.10309217593266 433.3602207439654, 432.21455618721035 415.4620168029542" stroke="rgb(0, 0, 0)" stroke-width="1" fill="none"/></g><text x="462" y="445" fill="rgb(150, 100, 28)" text-anchor="middle" font-family="Consolas, Courier" font-size="20px">id43</text><g><path d="M491.4245771814971 414.23573272447976 C503.638105763999 416.66301659743164, 515.3045481089929 413.9180754003033, 548.7630373420053 415.20727050779476 M491.7320872638468 415.4582121158759 C509.81870771564996 415.3055731182062, 527.710293932212 414.49294402639566, 549.4623502400666 414.13733766742536 M547.1294937884898 413.76482036778657 C550.2803762597665 428.95971897116857, 548.7492612204524 444.52266448912815, 550.4149604504731 463.2921754845387 M548.8307267733609 414.16685570883993 C549.4342550432666 427.487625724635, 548.1130707898956 438.6851068068097, 549.6920853416868 465.88364186519624 M550.2912452337315 466.28534177526836 C529.2680519714415 465.95223073538835, 508.55967603518076 462.5479659562491, 492.9273471912657 465.18350717893264 M548.7428584352282 464.25856807389096 C527.631864045738 465.5052939145377, 504.42951909633877 465.0077420780171, 490.0063027550543 465.3490160071401 M491.06808505616567 464.2486229281903 C492.36401761228393 449.8049504724169, 488.88278110843595 433.9693093403986, 491.9158694723626 415.37569473233395 M491.7692470206384 464.0263520733304 C491.7184096205531 446.8303579057946, 490.7817565057825 427.4804879134286, 491.0570151214109 415.4331298345782" stroke="rgb(0, 0, 0)" stroke-width="1" fill="none"/></g><text x="520" y="445" fill="rgb(150, 100, 28)" text-anchor="middle" font-family="Consolas, Courier" font-size="20px">id28</text><g><path d="M549.6333247983171 414.37643214745424 C570.8381496981483 416.4448212218601, 591.2548642733545 414.2979744296006, 607.7534594786936 413.51571121293875 M549.6527967167906 414.45280309754145 C563.7837063591697 415.9162676881861, 579.379426149705 414.32483608631367, 606.341822626475 414.60816511977816 M605.4653136782923 416.2203852097532 C608.4838674543847 435.1732503238389, 607.5953809676851 452.9739113334128, 605.1008564342701 463.82306943179225 M606.8691274582974 414.82974167840325 C607.9496581988357 425.67562336028885, 606.3828500475994 436.85796257213553, 607.3699169952291 465.1392071169681 M605.3128832100736 465.0156574703706 C589.2004055361792 467.02744650172997, 568.2812959758197 466.35026793446207, 550.0773684884131 466.0597891018908 M607.0571018380537 465.8293581898808 C591.3291989799261 465.4260876318629, 575.2057119622372 464.72099704303037, 548.6219112452284 464.4680299664961 M549.5340983644944 466.25318749947246 C548.828646267668 447.31400545326096, 548.2809753858265 430.4970337692418, 549.0350880927564 413.19696434048245 M549.0199628368154 465.04727467655187 C549.3507203352859 448.538869740884, 548.8153687446395 431.7827735465131, 548.1597906003452 415.07034217157064" stroke="rgb(0, 0, 0)" stroke-width="1" fill="none"/></g><text x="578" y="445" fill="rgb(150, 100, 28)" text-anchor="middle" font-family="Consolas, Courier" font-size="20px">id49</text><text x="380" y="380" fill="rgb(150, 100, 28)" text-anchor="middle" font-family="Consolas, Courier" font-size="20px">id82</text><text x="602" y="380" fill="rgb(27, 14, 139)" text-anchor="middle" font-family="Consolas, Courier" font-size="20px">list</text><g><path d="M350.9468239142254 349.5377981463165 C370.1016669253588 351.2722336991719, 392.15283334519006 348.5924870827079, 411.35444386494726 349.00607855202725 M349.52107059263426 349.1456118738263 C363.5248141715545 350.5357598095607, 377.6079876352783 349.6096622053787, 409.37871822173076 350.8751606576994 M411.3284744322821 348.52697100178614 C411.19527295027876 362.2654403523141, 410.4983877239464 379.1367689744807, 410.46884869695816 399.6756615644741 M409.89840291103883 350.4874075113512 C409.7153579260492 360.2676895719852, 409.91821546520106 369.8534759685224, 409.1654200495217 400.50904216244265 M410.2150198444675 399.37352333742734 C393.2563748705443 401.6450887636002, 378.5548338404558 399.37229445683846, 351.48116568967316 398.269703851388 M410.10575056850064 399.6572775209353 C386.72904720542596 399.6129207359345, 364.5797631270056 400.55454726042007, 350.86977639072705 399.27200844449385 M349.05826750374354 399.3155548468233 C350.0667310343662 386.114143984718, 350.2275296522058 371.7682588485722, 350.4396832968044 351.0141457666102 M350.6127855335236 400.1119261164641 C349.4262265330412 388.4872527991453, 349.3454536690498 376.6799779974345, 350.26145259308487 349.3981110431606" stroke="rgb(0, 0, 0)" stroke-width="1" fill="none"/></g><g><path d="M573.7245623643744 348.89543799039956 C584.7656310993758 349.24298336180374, 600.3705493577016 349.9430313551529, 631.124152363636 350.95848777972054 M571.2251131397189 350.01255164436157 C590.0845506833289 348.67561695726346, 609.5722597432008 348.54997800765756, 632.7344862733746 350.6231544294585 M631.4863521368563 351.05534088952396 C634.3405509416522 369.95222514926, 631.121746917735 385.8860549027665, 633.4512800499939 399.27246605781255 M631.6088508466929 349.8391927104659 C631.9843271950695 366.6431697360677, 632.1417944904077 382.3697453740668, 631.2646991483848 399.1829623765921 M633.094415462127 398.85488686080697 C615.3821266971146 399.6626583006029, 594.6590540140623 400.12868880679963, 573.582091389344 401.79994370991903 M632.2555486907606 399.1095304281296 C617.7158678545638 399.0266014100211, 603.0714835083865 399.94721172219636, 571.9212990846094 400.7886624431723 M570.453162764232 398.3980882184779 C570.5459898160925 387.6372499940045, 571.2889658211124 373.2994069018958, 573.7227600853071 351.6839020040856 M571.3888439428255 399.16047025553485 C571.205741911913 381.6958292932057, 572.1882116859447 363.17795876404597, 572.4858461419328 350.924374853112" stroke="rgb(0, 0, 0)" stroke-width="1" fill="none"/></g><g><path d="M349.27264179554516 601.4682694506475 C416.4954134574806 601.188484815902, 480.42333455719563 601.5545386792265, 632.7680924710261 600.0550850866952 M349.54019790971785 600.4459536578281 C457.2817927501601 601.4185862894221, 563.3730098705013 601.26893179255, 631.7208862969818 600.3863070433067 M631.7096260766474 600.8513431148775 C632.180130039343 650.2539607345219, 633.8721243858768 706.1714262271935, 632.0738281154484 751.2482536547475 M632.9071853014309 599.1743216924663 C632.0727715122342 647.1289828929711, 632.165619739019 693.3796086982611, 632.2454372646747 750.85062486943 M632.873007309815 749.7635919478789 C524.9856032623687 751.9979121644556, 413.8755604151039 751.7094292912483, 350.87480256527095 750.5864427926655 M632.5533719620895 749.2858675890526 C553.0823712778 750.665590992226, 475.30215038138414 751.4078277433657, 349.9557885966274 750.0746312922148 M348.70701289958606 751.0539291255113 C349.66165534827877 709.9257513417169, 349.2113720965364 667.6761755511629, 348.8458119912007 600.0004206945947 M350.0284338542976 750.630444473846 C350.28599330965335 718.1221801520617, 351.1952909794888 684.489000625383, 350.58977942252915 599.6655535630955" stroke="rgb(0, 0, 0)" stroke-width="1" fill="none"/></g><g><path d="M376.2954800538469 685.7344978325668 C389.5945855913358 685.3952535129125, 402.43526802493506 684.8393046852434, 434.62113369919996 684.0934797241979 M374.95020761653257 685.1596348041727 C386.24799028048494 685.7237744353066, 399.29961668199115 685.8893064341221, 432.98265392988543 685.7608170962129 M434.7021527990743 684.7051004749703 C433.78286353939455 702.052557539225, 434.3664054816712 722.4465502731107, 431.7138539928355 735.7465328925293 M432.7217421478825 684.3322458207739 C433.0000280123754 702.383916425884, 433.16273852571896 719.8290652020953, 432.1322915520621 734.9707232117872 M434.41948361291446 733.2751579516671 C418.40753508117217 737.1146296710077, 406.5855526780049 733.3770730455841, 376.1210086093849 735.4825073967473 M433.7382314677178 734.4835217595012 C418.82501476133785 735.3562673502685, 402.55363886475703 736.10125057735, 375.12681587943325 735.0912754058669 M374.0639590967942 735.1083001717781 C376.23792766464686 719.4443372099679, 375.8106129303026 705.4017975911149, 376.83372983909294 683.2794845574341 M374.9989261737018 735.3260769804682 C374.49955777649745 715.8288172400977, 374.37105045133944 698.6345771011481, 374.00297603187147 684.8633022487484" stroke="rgb(0, 0, 0)" stroke-width="1" fill="none"/></g><text x="404" y="715" fill="rgb(150, 100, 28)" text-anchor="middle" font-family="Consolas, Courier" font-size="20px">id32</text><text x="404" y="672.5" fill="rgb(0, 0, 0)" text-anchor="middle" font-family="Consolas, Courier" font-size="20px">0</text><g><path d="M431.2706932756888 686.3525268319218 C449.8187660302469 686.4574427214839, 464.0068493285408 686.3749552080523, 491.1015544088886 686.4227822977875 M432.2435069550922 685.3919176504224 C452.5985629527815 684.262182267082, 472.2751886617756 685.1555176256579, 490.7411624055164 685.7558482227994 M489.4660019869495 684.7072606608357 C490.9889157838248 700.7276317309191, 490.2313351177898 719.8181827984502, 492.35378023583183 736.1017858391289 M490.9447926426592 684.160024474881 C492.14685835432925 695.2409525179866, 491.6186156759532 706.0338998738472, 491.16977182995873 734.0557787526694 M490.5506421061669 736.9078780600945 C474.0784334747322 736.6488320029063, 455.88699853996843 737.014865833485, 434.70713936966416 735.5582640882686 M490.0829647726414 735.9927101492791 C474.992891350669 734.8090103382, 457.86497412105746 734.9408559103721, 433.3288948552006 734.3959169084739 M431.7096871058271 734.210270174146 C431.30782061421155 724.1681936904397, 431.20210545547536 714.5081182035416, 433.0006175544855 684.9722172852281 M433.86635591750854 734.1310628789699 C432.790069300865 721.0754680581235, 433.3951431808226 706.4488592354295, 433.9664244474867 684.415355786149" stroke="rgb(0, 0, 0)" stroke-width="1" fill="none"/></g><text x="462" y="715" fill="rgb(150, 100, 28)" text-anchor="middle" font-family="Consolas, Courier" font-size="20px">id10</text><text x="462" y="672.5" fill="rgb(0, 0, 0)" text-anchor="middle" font-family="Consolas, Courier" font-size="20px">1</text><g><path d="M491.91643063236256 686.1151853166351 C507.45091707179716 686.9000394841089, 523.5075262972688 686.9356500733528, 549.2951437436874 683.5477305715225 M491.25310912315894 684.0116887119647 C511.9472762845969 685.1916507886322, 532.2077245367535 684.930666436137, 549.3247538424424 684.6513718227449 M547.5107397757998 684.5641315742894 C547.621942318651 695.5434636048307, 546.8542576913524 709.2363847137932, 547.5773537891547 736.9280463960253 M548.05437515783 685.8640872135833 C549.1977248544978 696.2312944109617, 549.6438367226253 708.0772933839525, 548.6786001103252 735.5684331025404 M548.7321090439025 733.6290747968577 C528.931183889149 735.2955932000139, 509.2412325402726 735.7325846796198, 490.5716265598546 734.0116260284109 M548.7403457735352 734.0594582705005 C534.7572044898363 735.3017632463902, 519.6203039843675 734.7125527527163, 491.98596601430137 735.764966350866 M489.65223880346736 733.7966946168563 C492.0772204675922 718.1717764149224, 490.7827678893598 698.1303108404986, 490.14714104841937 684.5394965037332 M491.80893861368685 734.0115505838932 C491.6240940701497 724.3251218370705, 491.27001605541284 713.978239355098, 491.22114734575143 685.288990323071" stroke="rgb(0, 0, 0)" stroke-width="1" fill="none"/></g><text x="520" y="715" fill="rgb(150, 100, 28)" text-anchor="middle" font-family="Consolas, Courier" font-size="20px">id90</text><text x="520" y="672.5" fill="rgb(0, 0, 0)" text-anchor="middle" font-family="Consolas, Courier" font-size="20px">2</text><g><path d="M548.9023682106497 683.3649859166383 C566.5185321948766 685.9832581733041, 581.478739758009 683.2636701644999, 607.7004317017717 684.7479767109195 M549.3936495577881 684.6207759506643 C560.9404636722657 684.6146978409297, 571.9659514133676 684.1308457287022, 607.8870463276058 684.339737781295 M608.3897250311578 683.6978711775117 C607.5408803777268 694.6310000756035, 608.3222112958915 706.6341311220827, 608.0325215500667 733.3310210488335 M606.6941400765054 685.564896451131 C606.748348815455 697.4148179205853, 607.6533551950499 712.0824670982048, 606.3138292366069 735.9902726321104 M608.4397732113982 736.1802579606359 C591.8340376110435 735.3315891307064, 576.5474360739139 733.2335925963481, 548.377248949742 733.2623903333706 M607.4739802690426 734.1593643531987 C586.0793241322999 735.5623152030272, 567.4044216119527 735.378150479591, 548.7815328719997 735.9651175677274 M548.0773132329391 733.1124895766593 C550.4926830361248 721.329955297013, 550.0466323945546 703.71719966999, 548.0627944729451 685.2033990234969 M549.1195076909887 734.6484786419497 C548.5373890705011 721.5329230708456, 549.6426686428131 705.715345581306, 549.2347565175014 685.5129955460425" stroke="rgb(0, 0, 0)" stroke-width="1" fill="none"/></g><text x="578" y="715" fill="rgb(150, 100, 28)" text-anchor="middle" font-family="Consolas, Courier" font-size="20px">id57</text><text x="578" y="672.5" fill="rgb(0, 0, 0)" text-anchor="middle" font-family="Consolas, Courier" font-size="20px">3</text><text x="380" y="630" fill="rgb(150, 100, 28)" text-anchor="middle" font-family="Consolas, Courier" font-size="20px">id84</text><text x="602" y="630" fill="rgb(27, 14, 139)" text-anchor="middle" font-family="Consolas, Courier" font-size="20px">list</text><g><path d="M349.18207199919715 601.0817960003591 C362.6507194023695 602.2086302121517, 374.95234201736594 598.6765026603618, 411.4411336367323 599.8707646011235 M350.5448309519158 599.5423600764149 C362.98671564414303 600.2573005884324, 375.3766457210788 599.6761451246535, 410.7512685417102 599.6932766182729 M410.6806913703324 600.9733192173086 C411.67895531662685 617.2989208398012, 411.7064226671001 637.3941589465612, 411.2821668302887 650.3383578355797 M410.7358501383623 600.1383880268683 C410.12701512470744 616.1529685138123, 410.41599659351897 631.5740943165172, 409.09809423905807 649.5839066101603 M411.96183116607784 651.3260088487287 C393.51999373343847 651.0833715351346, 377.78666040046664 651.0000141639293, 349.3930233197998 649.5396976107983 M410.50231156785156 650.720333147996 C385.6030477056488 650.0279328827062, 362.862279060893 649.3684657000229, 350.664148624145 649.6444480196858 M350.47571451124 649.2969936125781 C349.54778848110135 635.5172494119271, 350.63986611169383 619.6897781739295, 350.15060215742426 599.0479947369728 M350.2010986616422 649.7890259260023 C349.7292339494371 631.6207041786973, 350.2715333216568 615.1707633417028, 350.74840335775787 600.2168976730495" stroke="rgb(0, 0, 0)" stroke-width="1" fill="none"/></g><g><path d="M572.531946781781 599.670136679934 C591.6717058863505 601.1559969952004, 611.4344678588719 600.787438894769, 630.3272221731295 601.6010142322635 M571.241225448513 600.5720919209152 C589.875750582001 599.7472690253275, 609.3139380080422 599.74721802981, 631.9904965470452 599.4165300815545 M630.8281340711993 600.2689325677545 C631.0459502285273 617.5914409160015, 630.5537202943918 632.5885774375485, 630.8167152711815 649.3214618034394 M632.6931495133209 599.8955030231918 C632.0440109824938 614.7478260064564, 631.2296986267662 627.9875183610956, 632.0539745155879 649.6162481071788 M631.1059243824515 651.109000265466 C614.4774026692561 650.0789128195001, 599.5616717876297 650.3951355920483, 570.101747701221 648.2878740342716 M632.3958219640873 650.931922766018 C612.5297693651656 648.9466847279785, 595.3776227492023 648.7233382174253, 571.7865201466757 650.4323598763857 M573.2044875124524 650.5039187589482 C572.5486839788829 632.3025823307754, 570.329280317525 615.6481145331769, 573.1310748510865 601.5745192520659 M572.0097619437189 649.8124208765722 C571.3395881372685 634.433514875953, 572.4505774808976 620.3784641523347, 572.7141899701323 599.9471472486297" stroke="rgb(0, 0, 0)" stroke-width="1" fill="none"/></g><g><path d="M749.7672810309591 8.301906850654552 C831.1980096077474 9.629147087629148, 909.0529554374068 10.643709713791319, 949.7807548934321 11.75414681741272 M750.0089184288402 9.883071676218727 C826.9982085695578 11.40810406713287, 905.4739690930514 10.82772070469146, 949.6061509861363 9.606045796476192 M948.3155559694959 11.380187142766449 C950.9521209625282 61.82777047380371, 947.5618998470684 110.55251022684318, 948.3983771688467 141.99941996698084 M949.7934968429932 10.238683257798215 C949.3141146474446 40.118400260823265, 950.2145260336172 73.05591409483708, 950.0529610164872 140.74788681540124 M948.744096637244 141.5818404254118 C892.9727523673059 138.79042512378814, 834.8337524405928 138.2851671858104, 748.8316511366428 139.6643674058235 M949.8552107602732 139.5709956899203 C906.466563833242 137.80541895303043, 863.1666564010928 139.30156278777116, 750.7943921895375 139.83840489363595 M749.7814728080589 140.88972423071036 C749.332109798831 92.42552193433089, 750.0093870279891 47.61986436337505, 748.4733112532776 11.87165135292432 M750.852026421009 140.30468086464595 C751.3705556620995 89.46266989609943, 751.0578958233467 37.31096106967021, 750.3235929584348 9.181829602743282" stroke="rgb(0, 0, 0)" stroke-width="1" fill="none"/></g><g><path d="M744.8323785215381 5.7262416985369775 C801.9254566784706 1.8755371353457926, 863.5466904306957 1.0888305111294563, 957.4266375044346 2.9888355980513874 M743.697835801197 3.1556679503378167 C798.6841134579294 5.869190820129408, 851.7993268557158 5.11842900402777, 955.4141130302631 4.1005848358055665 M954.814390790601 3.239568096724348 C955.1593757659397 48.157647157583625, 957.354627291542 92.71557175978339, 955.5950798286796 146.80936467826072 M955.4691840566841 4.273814183030553 C957.4386820554357 48.432245841526246, 956.5842432445829 90.7106272267844, 956.1434364054248 146.0530610441122 M956.4238385651488 146.2866701426491 C871.0219225876201 148.19384125624467, 788.0271923997378 145.51889800517804, 744.207128069175 146.36522882948515 M955.6084036286906 146.606512311336 C895.768112506687 145.33587823074708, 834.4108406002584 144.8735201546889, 744.4341278951589 146.00117565443614 M745.1205090967735 145.91501980681164 C746.6147209438229 98.45817935966737, 746.565311278252 49.80045587007842, 745.4087715041281 4.0669087006916955 M743.5378627795989 145.9813720431576 C743.5993460219377 91.60462595941046, 743.0072203548435 37.03770668863509, 743.6463904292584 3.5722202783489707" stroke="rgb(0, 0, 0)" stroke-width="1" fill="none"/></g><text x="850" y="100" fill="rgb(27, 14, 139)" text-anchor="middle" font-family="Consolas, Courier" font-size="20px">1969</text><text x="780" y="40" fill="rgb(150, 100, 28)" text-anchor="middle" font-family="Consolas, Courier" font-size="20px">id19</text><text x="920" y="40" fill="rgb(27, 14, 139)" text-anchor="middle" font-family="Consolas, Courier" font-size="20px">int</text><g><path d="M749.0170620952471 8.617457468448482 C771.0918153057221 9.961103079148268, 794.0918491920629 9.903266076189261, 808.9124518068359 9.604921919680542 M750.7921052808769 9.573220479857962 C773.018538864814 10.055026975935764, 796.154297389623 10.642155080826978, 809.5400305452008 9.104463330030576 M809.0386314411535 11.374299358105903 C808.4840498461737 31.565180007960365, 808.7087351377546 48.62174713920742, 809.5102215090835 59.4038946359976 M809.6947959210344 9.092429335818906 C809.775472906633 29.9119440786315, 810.3603052863216 50.82699932103327, 810.6041189014667 59.966022557269945 M809.3977644755129 60.273956850125316 C793.0674344222446 59.65983135955271, 778.55884197425 59.88090198118494, 749.2611420358116 59.93261217334194 M809.9599363429319 60.36174148747815 C789.5217730262846 59.18003595770584, 768.7174313874916 60.37458918236889, 749.220028786325 59.573096668650805 M748.618373074002 58.86965028575368 C750.2618450986778 44.9009726025298, 750.6641866600081 27.028092361916343, 750.2524937017434 8.416897309283078 M749.8693570230754 59.5436431272953 C749.184219248415 46.58800845442165, 749.6281603529239 34.662626981286884, 750.8091696483218 9.650030236525367" stroke="rgb(0, 0, 0)" stroke-width="1" fill="none"/></g><g><path d="M889.1042722660786 9.425095462682933 C903.6586205169414 9.65286856780897, 915.1466658063391 11.045388036939528, 948.8321698193959 9.34551654827049 M889.8398096935665 9.733097457130746 C908.0023732750527 10.133050368443675, 925.9929401091803 8.986964780707691, 950.3948702974418 10.383645796892445 M951.5505912225489 11.720644829669626 C951.5037861237047 29.405942604557257, 950.4215546975383 48.80392755783048, 948.9790925152483 61.773777757294745 M949.6945610458137 9.817484479522514 C950.29875830448 22.628108892671932, 949.6553205909523 35.97650755053168, 950.014860812602 59.31962122341553 M950.8363463816238 60.84929759886756 C927.3761405290613 60.35828459209916, 905.9896229125115 57.65331111802929, 891.5562127155446 61.60348750298473 M950.0948595790245 59.49045525472261 C928.2529017814442 60.18795277022501, 903.997875396627 59.942488537149885, 889.2079292184635 60.75472396120956 M891.1376103680644 59.307555656307635 C889.9442980426721 41.48106629314232, 888.1926589527073 19.040497697995374, 889.4335601098877 9.973541747994066 M890.2138223948435 59.87813515084625 C889.741296885519 40.94079679480849, 889.4841152404277 20.434558623909858, 889.5175888595355 10.391559836744669" stroke="rgb(0, 0, 0)" stroke-width="1" fill="none"/></g><g><path d="M748.5323060821232 251.43078129547902 C791.835960109491 249.02535098210208, 833.0247724195501 251.52111890315967, 951.6658792006443 249.15591316329983 M749.6477519794946 249.29858538186716 C814.1732121485056 249.10051873641183, 877.6044921339025 248.33677634990744, 949.4224520347701 250.03942552666035 M949.3778247659031 249.23366970813635 C950.4922954836788 283.97831866462366, 949.7854575584181 321.20905511709105, 948.2064562822596 381.4263326651557 M949.2000238896578 250.61802462824522 C950.3905737590028 284.23395850674234, 951.8329692469605 316.40897139878444, 949.4724048572549 379.9399218657322 M949.8820990115651 381.26093002174497 C890.551094882885 382.45723241593254, 832.7567455007489 382.433213286316, 750.1869252052994 378.90463682078104 M950.8674149389446 379.56515335723975 C871.9288470056681 379.88039185099234, 793.151836246492 380.23911557651513, 750.173740432986 379.2616104863033 M750.005321811067 381.7733444852791 C748.8408529887324 335.8635974348169, 748.4665236738815 288.93419836707767, 749.1076608410935 251.04042751279474 M749.5812287555926 380.67717863753404 C749.157051416701 337.2725751667027, 749.0040221623977 295.738773114775, 750.3156784443509 249.096988720768" stroke="rgb(0, 0, 0)" stroke-width="1" fill="none"/></g><g><path d="M743.1874984806128 243.9667206556644 C804.5101223990982 243.9215481046314, 863.0641495098096 242.6716487528096, 955.4577627357871 245.5228868290232 M744.1204126896502 243.4082900192605 C816.6260146780517 243.72027183287085, 888.4986033628865 243.79951143625817, 955.32083471691 244.54722560417883 M954.3519992127245 243.04625759744744 C954.8756672544773 281.6274393458321, 954.6493447597358 317.2005425795818, 954.9201842381374 384.33049638034083 M955.0364017675779 243.80099967874432 C956.3163089918603 291.95573839024536, 955.3589824094148 338.7252121255246, 956.9534298914053 385.8267814569638 M956.0723690276338 385.29478991368336 C903.482719499474 384.2703679521556, 849.83532875015 385.5517326864343, 743.0780873350927 386.6144209048968 M955.4746734065197 386.34117003187566 C897.6967153974266 386.0759285111695, 839.9652337813619 387.64719174891866, 743.1941901023191 385.2745386054275 M745.1891244538438 387.17134426583965 C745.1892807199296 337.85948197378326, 745.50417907555 287.4788372681744, 743.2662581341704 244.3246792366462 M744.2180652130259 386.8745430642017 C744.8257208336044 348.35295813907175, 744.4483092220413 310.8326770018337, 743.0131180588041 243.14446990667759" stroke="rgb(0, 0, 0)" stroke-width="1" fill="none"/></g><text x="850" y="340" fill="rgb(27, 14, 139)" text-anchor="middle" font-family="Consolas, Courier" font-size="20px">True</text><text x="780" y="280" fill="rgb(150, 100, 28)" text-anchor="middle" font-family="Consolas, Courier" font-size="20px">id32</text><text x="920" y="280" fill="rgb(27, 14, 139)" text-anchor="middle" font-family="Consolas, Courier" font-size="20px">bool</text><g><path d="M749.0272673905708 249.85344156037755 C772.3491919148071 249.7546342646006, 795.8866090921146 250.9526426934996, 811.2306095427675 250.73583156714932 M750.9056874574293 250.49785302689284 C771.9234316209795 250.67551990019464, 794.077667463526 250.40997480251545, 810.965474842907 250.23863619218156 M810.7251904394207 251.35122791090734 C809.6379400017148 262.71808273343134, 807.9315268622997 272.2802724349544, 810.2248047628634 299.5574449127495 M809.0227504187994 249.81266199915123 C809.0955563308427 262.4323913827994, 809.2797661797159 276.7550487463325, 810.8241951859266 300.62767380386765 M810.1224435936523 298.80844125785774 C791.29439581282 301.61616885532703, 768.9069707634279 300.86627933997613, 750.7407520214502 300.1914484919626 M809.5308225714164 300.28900342355826 C789.1399203537304 301.2217404944107, 767.1468474009612 300.7363798444386, 749.3462836096148 299.43653312534065 M749.6170161598969 300.25480748456977 C748.406898299727 283.14377456231097, 750.3280289137278 268.7967897827984, 751.8975365715172 250.31993271863107 M750.0313246469626 300.3689638266319 C749.8216136961122 287.3577453188376, 749.8835837742528 272.6732337273665, 749.1617206997425 250.19407577130397" stroke="rgb(0, 0, 0)" stroke-width="1" fill="none"/></g><g><path d="M891.6941897915954 251.42800072289097 C911.9456589570597 247.92607359137264, 929.3139015384456 251.23399919392276, 948.1810278162948 249.63918291276747 M889.2129124357027 249.01796776808567 C903.780469803819 250.3651641000167, 915.9347951711653 250.4266377032904, 949.0714424902607 249.8688099350971 M949.8287662620792 250.0991905984959 C951.5101184230715 260.45377834792066, 951.0116863286994 274.1335743221247, 949.9993421490262 298.7880220009516 M950.0068180771734 250.2240866105306 C950.5900494547076 263.4530529401091, 949.4172924893254 279.3327134632888, 950.7095193995217 299.4092264652066 M948.6431882881353 301.1583468345565 C932.3721438488664 301.26204544313515, 912.0331954207177 299.20422378370273, 891.5862259324294 299.28329323967836 M950.0790734221099 300.94424682310597 C935.2372476461476 298.94086904076255, 920.4901031216154 299.4614282586326, 889.9980417178716 299.3282270521244 M890.8960432027137 299.5958023368988 C888.7019773923452 289.5389302882546, 888.5517629561351 278.9795162145549, 888.3739554088477 249.76808360161044 M889.0446816519724 299.9831150910333 C890.1805593830219 288.40890412648844, 890.2891244602885 274.7709559781614, 889.8574426013854 249.83574562463622" stroke="rgb(0, 0, 0)" stroke-width="1" fill="none"/></g><g><path d="M748.5545320466656 500.37517069944136 C810.2427265842804 498.6786167587543, 869.9806332839898 497.687223037383, 949.6363029977392 501.59054289057616 M749.4324325510089 500.40467714165874 C803.8618161811861 501.6652817703746, 857.8975289180255 501.61488477335007, 949.311779652739 499.3819053628721 M948.1952531741738 501.48018278092724 C949.9571575873377 529.5437346980351, 950.7728788530314 556.1369865171475, 950.5730535102005 630.8014259923884 M950.9356286674455 499.4316412116615 C950.0758501557282 529.8329040699549, 949.6727082811626 561.6027199042713, 950.3985473910939 630.9220527516106 M949.4677198168034 631.5571286541824 C901.5471617102563 628.5198074534936, 854.7109663511028 627.5451729518694, 751.4689826286858 631.1163031615092 M950.115712217329 630.299800373247 C878.6170269916764 630.3158502512133, 807.6133125828898 628.9806247250706, 750.5305084616566 630.5236797746807 M748.293613756057 631.6530975778627 C750.6386119261776 598.4718703353665, 748.5840027825751 571.3348946643785, 750.3280517983894 500.7582440221881 M750.966743391459 629.8508433924346 C749.3331321428235 582.1261877626246, 750.1504209136283 533.7999636341539, 749.6319028386131 500.4566606360505" stroke="rgb(0, 0, 0)" stroke-width="1" fill="none"/></g><g><path d="M744.005221612617 494.0372033071476 C806.0190554270358 491.12002299756375, 870.2555934995448 492.94308476639753, 955.9512354746887 495.1523958390898 M743.8079017444004 493.1240115864036 C815.7828408227878 494.3461543075985, 887.6339268204663 494.5332747808577, 956.4000619116746 494.194442647235 M957.8937990660328 493.9212216751026 C956.5101785373222 542.3632347948164, 957.9930428602518 592.7344310430365, 954.4373049951648 636.4481740599456 M956.0495344918429 494.525269359373 C954.5662234964897 546.3345719304408, 955.3756285781615 598.3040920168008, 956.2765729038537 635.5338254818382 M955.2471174088605 636.1056053418489 C895.7980824210753 633.1501516132939, 837.1959150187365 633.5946229489888, 743.5054223636128 637.2006333331792 M955.1969561783536 636.0695024541651 C870.7478967240163 635.6545997831475, 786.9026630282417 635.2371908815123, 744.3619576753581 635.5344645628649 M745.0725077178017 636.3109862667872 C746.1256968879966 591.9724249202915, 745.9151568714282 552.6033508068434, 742.5447183809512 494.49995196185495 M744.0952113937049 635.5105504030336 C744.5819163784412 604.6931664746132, 744.9898472055779 574.52547542988, 744.4504758289193 494.31809901089554" stroke="rgb(0, 0, 0)" stroke-width="1" fill="none"/></g><text x="850" y="590" fill="rgb(27, 14, 139)" text-anchor="middle" font-family="Consolas, Courier" font-size="20px">"David is cool"</text><text x="780" y="530" fill="rgb(150, 100, 28)" text-anchor="middle" font-family="Consolas, Courier" font-size="20px">id43</text><text x="920" y="530" fill="rgb(27, 14, 139)" text-anchor="middle" font-family="Consolas, Courier" font-size="20px">str</text><g><path d="M751.176750575912 498.04496861893585 C768.842907300703 500.9695269185866, 785.0515526417456 500.95666750334004, 808.5209573454756 499.1797293391248 M750.7137512596752 499.4892051674753 C763.6548175446644 499.79924626509865, 778.2376618745969 499.0538526045843, 809.3231845691122 499.39994481542703 M809.1580446703424 501.6114688153587 C810.8619657342485 517.7977547917787, 809.4783163110721 530.56738049799, 809.2416750190804 548.2539909179723 M810.2446723637187 500.9654322933678 C810.69179152127 514.7299054009512, 809.294404736987 531.5821056368532, 810.6173041413977 550.2493541071267 M811.3742300468091 551.0102479028594 C789.1166815197852 551.2423607957658, 766.4790633364321 550.5661449751937, 750.9832119737183 551.0604023214622 M809.9621351764765 550.6088462956135 C794.6842491185779 551.3204292167962, 779.4628451613901 549.6996470050108, 750.5885694036372 550.8204486540851 M750.5777760401658 551.8846172437804 C751.3578668981526 535.6202761293741, 751.2741814995735 516.241629858257, 750.3081661452512 500.7923041557652 M749.2460896351477 549.4076255576749 C751.344833245382 535.1561205188254, 751.3593091660757 520.9327494444423, 750.5138970450672 499.48788157372695" stroke="rgb(0, 0, 0)" stroke-width="1" fill="none"/></g><g><path d="M890.9603783399667 499.8239032919886 C904.5577463233075 498.22804990800876, 918.3897083256772 499.44366009034235, 948.3256465154869 499.42031248285787 M889.1750833272538 500.70685900500047 C913.6306593421074 500.5179911666835, 936.9113770131986 499.60666135998383, 949.6672435298274 499.76849034355354 M949.7771948877237 501.90351880778735 C951.1958785144016 515.0466298848531, 950.0999756409233 531.2688791260531, 948.987627306621 548.111059236731 M950.3994306875644 500.3380284406765 C949.4570270171824 514.8717160194237, 949.6551853314543 530.9740544136426, 950.691021918244 550.1335344102591 M950.3832863723384 549.2570960086092 C928.314365727978 548.9951531944828, 907.8226196624447 548.8130114764825, 890.3583497544901 549.5408605900558 M949.6641389491228 550.2703655119548 C934.7602925144786 550.3660396767071, 918.985078724748 550.2307109348536, 890.9113621762614 550.3518548512174 M891.8961992221949 551.2232956927121 C889.583935291066 532.4111729307004, 889.8183662960494 516.3588380622716, 891.8391491998033 498.6859145892853 M889.2233279650249 550.9051814308444 C890.2189143621767 536.2409647512445, 890.8990403912269 520.4751372215154, 889.3596712708438 500.47800252190683" stroke="rgb(0, 0, 0)" stroke-width="1" fill="none"/></g><g><path d="M1049.5533783232936 40.14996717490379 C1128.4113947298736 40.12257969098148, 1203.903766526032 42.894744513141426, 1251.5509655773399 38.41960572454664 M1050.2420774206194 39.38613935544875 C1129.2530403136252 39.318114136018416, 1208.635784632855 39.036125928549794, 1249.532744945445 40.04384886380154 M1248.9167523935123 39.35459075795721 C1251.782156049595 67.73748353830176, 1251.5879971074473 94.82307547082397, 1249.5173893526535 169.74480481193063 M1249.6713731441575 40.585736630015056 C1249.7198305636628 90.08127085961944, 1250.1247565241295 141.05624001862327, 1250.1849202472188 170.10773406398087 M1249.3089345132223 171.63152538125476 C1202.8719226213157 167.6188163818171, 1153.5378091343287 167.15639100080392, 1051.1128352323103 171.62366895437674 M1249.8800749968193 170.69854104702497 C1200.5857889554782 170.2826930172126, 1152.4322628077064 171.9096044028773, 1049.904981073293 169.5823506666974 M1049.3154828067459 169.34736385129398 C1050.1287874625714 136.5940184546062, 1049.9117892141921 104.14563967233197, 1051.0908793824788 40.83916741518808 M1049.0676421797884 170.55196112700875 C1049.0098567570117 135.77538877958676, 1049.9245459367946 100.76758468450305, 1049.6291024186426 39.82460434245441" stroke="rgb(0, 0, 0)" stroke-width="1" fill="none"/></g><g><path d="M1045.294488547952 34.5993840747593 C1086.2259346459844 33.59883912772015, 1131.010133707928 35.164056495483266, 1255.8250352669634 35.245734870176584 M1044.3722501400969 34.09769075749201 C1092.8514633791503 32.834520389549716, 1142.2697379247809 33.927124382148484, 1256.8413042383565 33.25377983288482 M1254.9994230033642 32.58007716081363 C1253.3088194767347 64.55486572963338, 1255.9435874662408 92.24089990051583, 1256.67468470192 174.78877204393854 M1255.045206888038 33.349818681553224 C1255.7548002033652 83.91880259535415, 1255.800704429489 135.00643206801212, 1256.691997354545 176.2611999017882 M1254.4324760053287 175.23157226385135 C1203.20069318385 174.77881474359938, 1147.7304539942122 173.3921236971513, 1043.7862254433037 175.2468419344365 M1256.5935338867725 176.00051766361594 C1209.9745454227666 175.27952740964943, 1161.6245604349208 174.63717817925095, 1043.3821899094119 176.61149235659013 M1044.898157361166 176.23188974556356 C1044.0982746394798 136.2033109302643, 1045.0231629900538 95.16174527236464, 1042.5390451237797 33.97844390583298 M1044.6778234544734 176.47828191105566 C1043.9146778746133 130.19864277628932, 1043.7362556323305 83.76195255323596, 1043.7186347592205 33.3433094279431" stroke="rgb(0, 0, 0)" stroke-width="1" fill="none"/></g><g><path d="M1076.3157753160226 103.18374459331697 C1085.6855294732102 106.0087683053096, 1101.0760322184212 106.4561316761874, 1134.5058611850973 105.95406175173015 M1074.4312801931248 104.36589232832878 C1088.3345703456616 103.8875046963718, 1099.9997176728145 104.44009429472626, 1133.0927276171724 104.86685411670452 M1133.3188812629937 105.7660283927071 C1133.3598996968926 116.98602884207519, 1131.6064121334166 131.24408563725916, 1132.1942588667316 156.03561193978902 M1133.6775438729462 104.2319874068339 C1132.4078718666012 122.08389130787565, 1131.942859608651 137.92012362287312, 1133.2942431195486 155.49441569349474 M1133.0004801530386 156.74284575431005 C1115.0912582925512 154.8951395520261, 1102.6429942487275 154.07868973070498, 1076.8293411721409 156.1142255380617 M1132.395395821802 155.29029021379912 C1117.543901458433 154.94673606660254, 1104.453564605957 154.85204943676686, 1074.5099816049942 155.4339126453137 M1076.465980651246 156.02046761542562 C1074.3213840490357 141.39106888850668, 1076.304203689525 132.19787606788248, 1076.5720255779634 103.78433103819668 M1075.2115762897322 154.7172927501907 C1073.9603608600664 144.94162766264785, 1074.3060880093951 132.349070916342, 1075.9659670810308 104.33376716528021" stroke="rgb(0, 0, 0)" stroke-width="1" fill="none"/></g><text x="1104" y="135" fill="rgb(150, 100, 28)" text-anchor="middle" font-family="Consolas, Courier" font-size="20px">id82</text><g><path d="M1133.6378495322238 105.77543637887509 C1149.117982774981 104.3487606664443, 1165.896018980821 106.01157482519879, 1191.6105214454315 104.5752754740733 M1133.9719927884807 105.23641690789694 C1152.0206355341918 106.10569653571957, 1170.4396037144652 105.08761371416664, 1191.51722619881 105.99922835729703 M1192.080803986807 104.98647053180909 C1193.0978022410566 119.36447678964817, 1192.2827409445124 133.41899393263822, 1191.3992761451436 155.9022773613587 M1191.2224598430603 104.5698530380918 C1190.9220063352627 118.70211882522034, 1190.6553046447434 134.8109163693384, 1190.790814623956 155.94276030044645 M1189.5682338742345 156.6708667919741 C1170.0116013282466 156.61674869857984, 1152.7238695649562 153.70927067830186, 1131.8580057469123 153.2872205198604 M1191.3951438013426 154.24085192710731 C1167.8284630229407 155.5058531228291, 1145.8376361927103 154.53506140108445, 1132.243413181393 155.00260154665688 M1133.9274091667946 156.118720862958 C1131.4416858054442 140.79611277759557, 1131.8744466535834 125.58270847479677, 1134.7513707128458 106.02638026444045 M1132.3032017132382 154.39609379489852 C1132.3672900805402 144.82914206979495, 1132.0093645861368 134.93992303488812, 1133.2717225896001 105.07138574773444" stroke="rgb(0, 0, 0)" stroke-width="1" fill="none"/></g><text x="1162" y="135" fill="rgb(150, 100, 28)" text-anchor="middle" font-family="Consolas, Courier" font-size="20px">id76</text><text x="1080" y="70" fill="rgb(150, 100, 28)" text-anchor="middle" font-family="Consolas, Courier" font-size="20px">id11</text><text x="1215" y="70" fill="rgb(27, 14, 139)" text-anchor="middle" font-family="Consolas, Courier" font-size="20px">tuple</text><g><path d="M1049.687846679205 39.374255593072775 C1066.3996837857628 39.55472736324434, 1082.434101275628 41.02902934992171, 1108.7722295302447 39.0637634208804 M1050.737995732832 39.983921463238474 C1071.4677338206382 40.4938905472781, 1094.1936405333931 40.50054602962487, 1109.4647052371015 40.603148330110216 M1108.5989038509006 38.057503959965835 C1110.7739989903534 50.9566478890972, 1110.4061157381327 59.75323159754164, 1110.7902581073529 91.9114886028666 M1110.2524276352965 39.087617325353996 C1110.7466196035564 53.27797442362388, 1110.2948915409136 65.90339063902697, 1110.7383789121036 90.75090357313599 M1110.8632289771647 91.38169447025247 C1093.287121700406 88.11867913564329, 1076.5968869693977 88.96243333380231, 1050.3914565097407 88.4208520991705 M1110.3727200619098 89.29958998698443 C1095.7746531802281 91.09927386654061, 1082.2330487093711 91.20867990676193, 1049.584179930293 89.82451295011766 M1049.784545510576 91.14379283557341 C1050.8786773243507 75.92475181240228, 1050.0777687549316 60.32732426884963, 1050.709624547357 38.79086362653152 M1049.6803031844493 89.34070166306908 C1050.695689517729 78.57285199335823, 1050.7323293689878 67.94611874303082, 1050.9828378361715 40.70804163318825" stroke="rgb(0, 0, 0)" stroke-width="1" fill="none"/></g><g><path d="M1180.9911504286092 39.535585316593256 C1205.7556179302371 41.82863642482682, 1226.353352113507 42.390637058946766, 1249.8161919789084 39.64309021368413 M1180.3129664492162 40.52858139769558 C1202.1375035706578 39.96469142824477, 1222.5075416916347 40.956042888104456, 1250.682824480143 39.232814847802075 M1249.697510292875 41.645127075715884 C1249.0836576782215 50.43678558648237, 1251.0198913102195 62.97064215657518, 1251.391259146716 88.80742506538942 M1250.498925146134 39.896139992324926 C1250.4491763148176 56.82156360778985, 1249.087094588802 73.30824737218528, 1250.0681499058576 89.17096908421473 M1249.913960249817 91.88681240379603 C1225.2980055258142 92.190499831785, 1204.1119064728377 90.28619203247422, 1178.5155353225396 91.56597312195424 M1250.9054539776675 89.60196002621932 C1231.471990422494 90.15122572811573, 1212.9096699025777 91.35421662849586, 1179.7046178012044 89.89071078371595 M1181.149134412067 88.82456847428574 C1179.4530878384708 78.40655284844846, 1178.6608721567243 61.95459825599561, 1181.080096030901 41.85291968656889 M1180.909953604013 89.11619996493003 C1179.980425489054 74.78759683143821, 1178.6979356319391 59.66178502624741, 1179.3836798748473 39.5679455625787" stroke="rgb(0, 0, 0)" stroke-width="1" fill="none"/></g><g><path d="M1051.3299106569664 259.18843880038236 C1111.208710244402 256.5994706241397, 1172.6190620897085 256.51879477005843, 1299.166259975805 260.11684973757855 M1050.3107249082784 260.7727755031593 C1124.4230704921908 262.29061038200126, 1197.6273965108887 262.09894790058996, 1298.4597896402943 259.44056780311087 M1300.1315972122748 260.0046526122955 C1298.903637499485 293.6270714051245, 1298.6709800741148 325.3289868385143, 1297.5886717715016 391.5458419541068 M1299.2420871681031 259.6893809171013 C1297.8157127771194 303.6286115825117, 1298.5609960332636 349.5203662967473, 1299.9937401204795 389.7956078518901 M1298.5569065498025 390.6436492546867 C1246.8133963335324 390.7017330219802, 1192.1464430351962 390.9123094427366, 1049.5375441222109 389.61560434245604 M1298.2871422334158 389.9165671419021 C1242.8501972728852 388.5149360663635, 1187.4755666415476 388.6400108332617, 1049.5083798798285 390.67659977290987 M1049.1152785064205 390.1276352340811 C1048.1803221584037 341.2485571200279, 1051.010598978991 289.9138458551034, 1050.6881181896447 260.7479512178909 M1049.0951934372865 390.8665831229492 C1048.312460903423 343.2353962853654, 1049.6220264734325 295.097198270476, 1049.678991789385 260.447709921378" stroke="rgb(0, 0, 0)" stroke-width="1" fill="none"/></g><g><path d="M1074.5806046789069 324.7240678105534 C1089.5000991833558 324.4245250648018, 1106.436633162094 325.6700940984144, 1133.7222210944003 324.8204551969483 M1074.2869633375567 325.17036419833863 C1087.6181013296775 324.62604073196815, 1101.386058541914 324.6397975396133, 1133.4890294197542 325.73593550338103 M1134.3409793764795 323.41171913142125 C1132.6821091490444 341.58607210919746, 1131.117666706116 360.22922306509764, 1133.1955082486963 374.90564196545876 M1133.8776532801978 324.72645713865944 C1133.9205337877358 343.7442400100363, 1132.477467892248 362.30529944514416, 1133.6491728603091 374.2803438882313 M1132.2645559307348 375.1307155574643 C1114.1116032911962 376.12416188721704, 1092.9129704128165 373.3814303093184, 1074.1162959343267 373.7006966720292 M1132.934680505875 374.3654936386538 C1115.5210310386287 375.26530523900453, 1098.4933133971526 374.63520662699653, 1074.3090602620885 374.67698741925034 M1074.3101629693786 376.63027030158355 C1074.9384549870185 361.8653817859771, 1076.4328541491693 350.8437562789662, 1073.2824601296093 325.4922765126916 M1075.4045125764153 374.6091277089219 C1075.0891558131207 359.0522432460454, 1075.8465789344928 342.7048702852665, 1075.310471181503 325.45977377187677" stroke="rgb(0, 0, 0)" stroke-width="1" fill="none"/></g><text x="1104" y="355" fill="rgb(150, 100, 28)" text-anchor="middle" font-family="Consolas, Courier" font-size="20px">id36</text><g><path d="M1143.9081083275842 323.1421725103926 C1165.62869429659 326.2750910239205, 1182.8161228442032 325.35454543728207, 1202.0622105068824 325.6856737142905 M1144.7309159003648 324.29669671441303 C1165.5138173058199 324.7551369093938, 1183.8167338371984 325.8507023756692, 1204.3462115496334 324.1452480160949 M1203.8019544547794 325.6567329514912 C1203.300577297247 338.62498399729805, 1205.0353113934648 349.26641662816553, 1203.3865131107048 374.0068192578454 M1204.426228391953 324.87341823907417 C1202.5481417579344 343.33167496961556, 1202.8763060570118 361.84362248082215, 1203.0311718312244 375.76908276945676 M1202.9497598419648 373.48552123329006 C1183.252352676058 372.69990819586474, 1159.2024465416373 375.4346670143529, 1145.9087773791214 375.89571120692904 M1204.2272947679216 374.6230500039352 C1181.9980896466654 375.3724213881576, 1162.4948444053196 374.31479732553873, 1145.5855467357212 375.40973356270786 M1146.4280583174586 374.2883348010088 C1146.0370173076865 353.83188048976314, 1144.391820131766 335.29337605833257, 1147.0426649434348 325.67906958027504 M1144.7712476393185 375.1765548286263 C1146.678308318699 355.26616174411976, 1145.0428592670123 336.5068218515288, 1144.7573178705904 324.89334944310497" stroke="rgb(0, 0, 0)" stroke-width="1" fill="none"/></g><text x="1174.5" y="355" fill="rgb(150, 100, 28)" text-anchor="middle" font-family="Consolas, Courier" font-size="20px">id49</text><text x="1139.25" y="355" fill="rgb(0, 0, 0)" text-anchor="middle" font-family="Consolas, Courier" font-size="20px">,</text><g><path d="M1217.9798612176555 324.4822840043447 C1233.7105520586103 325.4621895585855, 1251.304805426518 325.68052498750825, 1274.4855575369188 323.92200711120825 M1216.1502788481846 324.5670188185138 C1237.067130256916 325.52863423177183, 1257.5209543322262 323.95426266521355, 1274.5490590321526 324.52418673289117 M1273.6764320016784 325.7683653542847 C1274.6657385270507 338.6164615888724, 1274.2276995131854 356.00379197306955, 1274.0008744088113 376.4487135799807 M1273.145870707263 324.7585626829813 C1273.814155144539 339.3945677976922, 1273.7141471048076 353.6431213481065, 1273.9907895490069 374.6906579423781 M1275.62029687224 373.4435319002723 C1260.2854546247684 376.0535094108482, 1247.9118639135627 373.78246524640304, 1215.8491515448675 375.1094959849454 M1274.710343788075 374.5685962971954 C1255.8229056563523 373.61755233683436, 1237.9641453942693 374.7088548613886, 1215.4667060996098 375.50535951634083 M1215.260497573016 373.89840197356864 C1217.887076665791 362.99447769697673, 1214.5594161655417 353.4146157602072, 1217.616162849618 325.5293729671723 M1216.6850833222638 374.7132866697272 C1215.0294636074284 357.70066592831995, 1215.6572566946563 338.9343902273049, 1216.43831690452 324.90843828920265" stroke="rgb(0, 0, 0)" stroke-width="1" fill="none"/></g><text x="1245" y="355" fill="rgb(150, 100, 28)" text-anchor="middle" font-family="Consolas, Courier" font-size="20px">id64</text><text x="1209.75" y="355" fill="rgb(0, 0, 0)" text-anchor="middle" font-family="Consolas, Courier" font-size="20px">,</text><text x="1080" y="290" fill="rgb(150, 100, 28)" text-anchor="middle" font-family="Consolas, Courier" font-size="20px">id90</text><text x="1269" y="290" fill="rgb(27, 14, 139)" text-anchor="middle" font-family="Consolas, Courier" font-size="20px">set</text><g><path d="M1050.0328500449273 261.89991826693233 C1063.8893264079172 260.0270716915398, 1081.5941460333918 259.3909533604662, 1109.4208530617134 260.5196040874947 M1049.415493607416 260.1233441894158 C1064.0144481212785 259.8172838209256, 1079.587806425815 260.19982204788846, 1109.9361462769982 259.01915711930974 M1111.8840578017234 259.2707695787603 C1110.3692832764168 275.9534615731665, 1111.6747389688808 293.47550369309045, 1108.3267185094423 310.0475817284084 M1110.3114564878904 259.18963254266646 C1110.0342514891224 275.4781071162628, 1109.8930858421525 291.79561919535564, 1110.6796218961624 310.37548709658677 M1108.8626434628488 309.6312601009076 C1094.9943064863282 308.97827214725385, 1075.6767230636515 308.8324048740621, 1049.1377453883229 308.6316257304786 M1110.2547393236907 310.95272596054167 C1091.337149072229 310.3695183546408, 1071.3999492122243 310.44931335917374, 1050.6697081694056 309.1633274424593 M1050.7907381035777 311.3368593946298 C1049.078350547593 290.0245334717828, 1048.6953858885693 271.238051799546, 1049.0246000272418 259.011456771715 M1049.5147957600038 309.75704024633166 C1051.00810427029 296.72133002072883, 1050.3571887867276 284.33208303443257, 1050.6626279983532 259.79399841458513" stroke="rgb(0, 0, 0)" stroke-width="1" fill="none"/></g><g><path d="M1240.7586445359902 261.265756273095 C1256.4800291259048 259.87405994452865, 1273.0716478505367 259.479179471634, 1298.5685313733466 258.0657526131173 M1239.7168180365234 259.2493639207683 C1256.4775736853655 259.86933667889616, 1273.369484887543 259.7490162059329, 1299.6281064581249 260.6989850035684 M1300.0981191137914 261.3440808512394 C1297.7198167735253 278.44213124346396, 1298.2257774392654 299.22825019138764, 1298.4093817050052 311.7486412412146 M1298.4890974331515 260.1161008387131 C1299.9901426331703 274.10793254881935, 1298.531072814214 288.37797449744164, 1298.0251732216072 309.03917936853315 M1297.036989289137 310.57432529292953 C1277.254739471473 310.89501564714897, 1255.7587702234343 311.47762000134765, 1237.8112759790697 311.24374161080857 M1299.9129714286032 310.68227975466334 C1285.3789018598877 309.2241750981068, 1272.1233497115552 310.7160011333812, 1238.6262744522483 310.54032095556676 M1240.6267989849966 311.49055316588664 C1237.1639950242568 294.40883320681013, 1238.7035476218289 279.4726395116625, 1239.3282500913347 258.0069846465091 M1238.3706525345851 309.21641313030216 C1239.815457162079 291.52164696319824, 1240.4388112741447 275.1058611815229, 1239.5785635726122 259.67355899193126" stroke="rgb(0, 0, 0)" stroke-width="1" fill="none"/></g><text x="1062.5" y="355" fill="rgb(0, 0, 0)" text-anchor="middle" font-family="Consolas, Courier" font-size="20px">{</text><text x="1286.5" y="355" fill="rgb(0, 0, 0)" text-anchor="middle" font-family="Consolas, Courier" font-size="20px">}</text><g><path d="M1076.649228045471 574.7771301199422 C1091.9552699091394 575.4430558532673, 1105.5619336750717 575.7381921934475, 1123.9348051831628 575.3042635934775 M1074.5176816609282 574.3800918133953 C1092.0829494350478 575.2375908131128, 1110.2493533542806 575.5504445771423, 1124.7636902200768 574.690619654726 M1125.8405706181065 576.2954453499693 C1125.924585722941 589.1740209497528, 1126.627784182397 604.0306455403683, 1124.0214934457053 626.0656806072523 M1124.5706480811446 575.663333090648 C1125.885653970283 590.2873439586042, 1125.926733966867 606.4262580636363, 1125.0128903507534 624.1110538832953 M1123.4604914603613 623.4528264908175 C1105.8469707456038 623.822689576494, 1086.8201036259838 626.4463431174092, 1073.9106974245453 623.2474358239552 M1125.122631354066 625.0228477028555 C1107.20772444351 625.6911052120306, 1091.0551757667913 625.1391794682224, 1075.75902579075 625.0580167345302 M1073.4679941347226 625.7156888316529 C1076.7527439627017 616.5313508238168, 1073.687296066469 604.9578080775256, 1073.1720522634362 574.5259989589275 M1074.6038530115889 624.0001504083345 C1076.1972981519984 612.8521375102614, 1075.333638823265 599.8431976662179, 1075.9387842623019 575.3772419194524" stroke="rgb(0, 0, 0)" stroke-width="1" fill="none"/></g><text x="1102" y="605" fill="rgb(150, 100, 28)" text-anchor="middle" font-family="Consolas, Courier" font-size="20px">idx</text><g><path d="M1076.6164704433609 651.0359209682642 C1094.1271878897821 650.3522116010215, 1109.1320930497227 649.0248435408076, 1125.9863661935854 648.3797082582427 M1074.2234919314137 649.7001311727365 C1086.0015249297637 649.2734533747554, 1097.5437429706233 649.4029197127967, 1124.3452659230588 649.9149611092894 M1123.207507140436 649.6652795464717 C1123.3263109178354 660.1269336293453, 1124.5051497244665 673.6540326777857, 1125.248941975628 698.7697784470066 M1125.3058252470405 649.7700258417086 C1125.5871140533238 660.6578681616427, 1123.986780690905 671.1841561760099, 1125.0405882919229 700.7693966483184 M1124.5972413915415 700.1567974236543 C1110.623295241987 699.3081272654193, 1093.4327030335307 701.419885211479, 1073.703268415206 700.6717754455254 M1125.3771966508252 699.6587881758539 C1108.5442004592908 698.7924127593843, 1092.718157525409 700.2155512317823, 1075.2545080225254 699.7239549503823 M1076.4340380025958 698.4328152976777 C1076.4477131070873 685.2203834743469, 1072.73623510492 672.2521215087584, 1073.4267427449909 650.0886725851439 M1075.1908379835693 700.4211331591514 C1075.7815802591742 682.7677832182382, 1075.028119544489 665.9659980299625, 1075.4380502673123 650.5743053849967" stroke="rgb(0, 0, 0)" stroke-width="1" fill="none"/></g><text x="1102" y="680" fill="rgb(150, 100, 28)" text-anchor="middle" font-family="Consolas, Courier" font-size="20px">idy</text><g><path d="M1074.4149579206592 726.0852956488003 C1086.67815358672 725.247045628854, 1098.058441728867 725.288797023672, 1124.1887450059885 723.6071657622681 M1074.7029045578686 724.1789340690265 C1087.7938933090315 724.3518931696505, 1100.7502298496713 725.8005921756293, 1125.1217994627527 725.770627395143 M1125.0583917075896 726.2517419872187 C1125.926280202922 743.0528203803927, 1123.5132342641045 762.9811116259724, 1125.358870629799 775.2536392032183 M1124.049575545119 725.872535076948 C1124.4726528144204 736.4979635593256, 1125.3159619660255 748.8785146724274, 1125.8755575426194 774.1969349708162 M1126.7939966825531 774.7273439815581 C1106.1784641898298 774.5363255836877, 1088.423757097888 775.4123839260078, 1074.9419827476206 775.7320434008235 M1124.3630236180795 775.5661302693838 C1110.2949900781468 774.3828505452407, 1095.1332568945127 774.4452227494082, 1075.5870815786868 774.7537814422193 M1076.3357983513329 775.990851921705 C1074.413939519473 758.048482487506, 1076.770994553296 741.8114027496218, 1076.1269209331665 725.0241866378768 M1075.2858361145081 774.1107946414066 C1074.591160866896 759.4351721527886, 1075.073690232667 743.7110636122543, 1074.2849425940958 724.6699040426486" stroke="rgb(0, 0, 0)" stroke-width="1" fill="none"/></g><text x="1102" y="755" fill="rgb(150, 100, 28)" text-anchor="middle" font-family="Consolas, Courier" font-size="20px">idz</text><text x="1156" y="605" fill="rgb(27, 14, 139)" text-anchor="middle" font-family="Consolas, Courier" font-size="20px">:</text><g><path d="M1174.5830602023311 576.2732927754582 C1192.0191015711757 573.6413345716103, 1210.5755875371397 574.1826436928765, 1237.8039760357399 574.3108248376093 M1176.9140377610654 575.5641056515783 C1200.6660902392077 574.1464414031678, 1223.6878842376632 574.4450165305399, 1235.2187792953066 574.9709978582077 M1234.0945229911927 575.6619517213352 C1238.2301373564758 584.0234877742637, 1234.937772536109 596.7919563189032, 1234.8873628623633 623.5849546421798 M1235.604812428097 575.9833263018734 C1236.3874036874238 585.5015341136424, 1235.667707297369 595.4700736615488, 1236.1449458538082 625.1962836126467 M1237.9160901330943 623.0215620084484 C1215.60501133033 626.5568857046081, 1196.749004738473 625.7219565068805, 1177.1019298733765 623.6477547498517 M1235.1102226832254 624.8420160328837 C1221.3241875180017 624.910600590917, 1207.4075541284617 625.5542542660313, 1175.325047553364 624.0207726461153 M1174.1862056820091 623.7304444679374 C1175.0007824022473 607.2098258065902, 1176.8456390192343 586.7775456166808, 1175.215792608758 575.083364421611 M1175.2902384471106 624.6919101784974 C1175.6146512403056 605.6233374194677, 1175.7646154496006 587.3868238531078, 1176.3165659827066 575.0517942774707" stroke="rgb(0, 0, 0)" stroke-width="1" fill="none"/></g><text x="1206" y="605" fill="rgb(150, 100, 28)" text-anchor="middle" font-family="Consolas, Courier" font-size="20px">id81</text><text x="1156" y="680" fill="rgb(27, 14, 139)" text-anchor="middle" font-family="Consolas, Courier" font-size="20px">:</text><g><path d="M1174.2276270886678 649.6792533814255 C1193.9832882216988 647.4081651896861, 1210.1231377820782 648.0724989486412, 1248.8539744101822 650.0452766903412 M1176.9680930507125 650.5248393393407 C1193.3369570294556 650.5625342218657, 1211.7650083952483 649.1978581802239, 1247.1201298521225 650.3413607420325 M1246.3460555222687 650.2286221896086 C1248.0741096605097 663.7649232372346, 1248.828476897468 678.7906483907223, 1248.0271040479647 700.5560810377485 M1247.7695839758194 649.2759229328038 C1247.8278254615436 662.1656158223544, 1247.8811927340766 674.3188733212385, 1247.288479483899 699.0630278511359 M1247.2249960895028 700.9899710564199 C1232.7672924594897 700.0297742806447, 1215.831532742967 699.2943956313807, 1177.816712704202 701.1531912643801 M1248.1038817569292 699.5732036080058 C1229.6453473996858 701.4868231901844, 1208.8362839456317 700.1593491357689, 1175.9633870513924 700.3620318360347 M1176.38886806919 701.3067084876642 C1173.647999998756 686.8685492687583, 1174.8952882397225 677.5354561171978, 1176.1880695103114 648.3048415767356 M1176.9045528491088 700.1927678567754 C1175.750593878084 681.0059704190951, 1175.5809182516969 663.9141041441367, 1175.6703433780488 649.0510081083697" stroke="rgb(0, 0, 0)" stroke-width="1" fill="none"/></g><text x="1212" y="680" fill="rgb(150, 100, 28)" text-anchor="middle" font-family="Consolas, Courier" font-size="20px">id100</text><text x="1156" y="755" fill="rgb(27, 14, 139)" text-anchor="middle" font-family="Consolas, Courier" font-size="20px">:</text><g><path d="M1174.393045912592 726.1002951551611 C1188.908111684751 725.6336126110366, 1206.8248152062922 723.0510707037627, 1249.4103809096093 725.0228659819238 M1175.9373594764602 724.5800366503341 C1191.397517308544 725.6261880006732, 1205.8668940571742 725.7490557970686, 1248.7252459630854 724.0061575094537 M1246.4611553269322 726.9037704826127 C1245.5739110306008 737.5353918243762, 1246.058727522195 746.268773275485, 1249.438190297352 775.4178357468058 M1247.5562200795446 725.8311638883674 C1248.2196317261003 741.6143204131996, 1248.9074792957415 758.7300804213243, 1248.0941156144766 775.4263101672327 M1249.4547581354004 776.1718932864878 C1226.1225043859745 776.0989936873741, 1202.259911937505 773.372359833409, 1175.792632731154 775.9586796289437 M1248.829494139171 775.0862854146302 C1230.0328257512372 774.7422237997883, 1211.635352402113 774.4237245944826, 1176.1426725299164 775.4544776236803 M1175.5603818314623 773.9972339699788 C1173.6431362782328 765.8695893271223, 1175.7319056975593 755.730120620166, 1176.2545861627116 725.1924461801663 M1175.491484119442 774.3084813270563 C1175.614309977534 756.0893962437534, 1176.3012425444936 735.9886011059342, 1176.7731276702677 725.2053109022295" stroke="rgb(0, 0, 0)" stroke-width="1" fill="none"/></g><text x="1212" y="755" fill="rgb(150, 100, 28)" text-anchor="middle" font-family="Consolas, Courier" font-size="20px">id121</text><g><path d="M1048.5398085182267 500.53977067006946 C1120.3469598630497 500.08367188037647, 1191.5185545252314 502.4550580373896, 1263.2169599642875 500.9606579408825 M1050.3817324563352 500.4930737148844 C1129.451949082264 499.0430044882472, 1209.4025465182876 498.8293643883244, 1262.546407365311 499.1609731569795 M1261.0243281670375 500.9389152938516 C1261.6751699230767 607.3697023449189, 1261.531757374348 716.8832931651912, 1262.7162807165948 800.7567133744705 M1262.1335997456686 499.3137156720376 C1259.8907218026607 578.7749171852654, 1260.0791271987678 656.5355961343803, 1262.4289214851544 799.9334211564842 M1263.1168243447376 799.931573246772 C1195.2801233306586 801.9200308823574, 1125.3067868576093 799.3954088020116, 1049.3068453508504 800.4815403013157 M1262.6672496270971 800.7619070986544 C1214.5365764747175 799.2243959272247, 1167.5362931252914 798.0903255196988, 1049.405612123852 800.1298988443097 M1050.5253294649815 799.7906971738438 C1050.6035820484917 723.3543198221143, 1050.9262620006784 649.2187466874259, 1049.5693736633011 499.83120330704276 M1050.0132387146184 799.8619087708229 C1049.3650605897997 720.5611050368625, 1049.5362363662348 641.4566712613484, 1050.0725342606474 500.7139101339579" stroke="rgb(0, 0, 0)" stroke-width="1" fill="none"/></g><text x="1080" y="530" fill="rgb(150, 100, 28)" text-anchor="middle" font-family="Consolas, Courier" font-size="20px">id10</text><text x="1232" y="530" fill="rgb(27, 14, 139)" text-anchor="middle" font-family="Consolas, Courier" font-size="20px">dict</text><g><path d="M1050.8932412614229 499.76920843091216 C1065.4109171973064 500.6116655066131, 1086.0251099212642 499.40730413387587, 1110.0702214546993 500.43389003699895 M1050.929731106175 500.07560557816146 C1069.3275830928944 498.9124788912821, 1088.4058382368062 500.5369324393301, 1109.7997758990102 500.6657820530301 M1110.8114031901077 500.1025228915681 C1109.0444949832981 516.7819972744231, 1108.4521821202268 537.9600164323138, 1111.0054259624446 549.6373802832821 M1109.8703947723166 500.56061702159997 C1110.3036652147966 519.1197480867673, 1109.2525074041719 538.6611369913368, 1110.0173727817642 549.9271697477429 M1109.8511586796571 548.5644995868558 C1085.4356613913812 550.5307730180979, 1064.3454682095053 549.3450807757761, 1049.6031014362793 548.7372790493221 M1109.6263007789696 549.7104914793133 C1089.6603352930435 550.2751612265295, 1067.9342107312348 549.1513824684615, 1050.8995274628576 550.4117866644577 M1050.7296197023004 549.6284138690163 C1048.1626398268309 532.9845912924168, 1051.3289005936235 520.2442935284633, 1050.978021512134 501.4158186049434 M1050.4767408251341 550.2760288207876 C1049.8677714671471 536.8018701535254, 1050.1515303553126 522.1956233394427, 1050.574260060411 500.8935229989747" stroke="rgb(0, 0, 0)" stroke-width="1" fill="none"/></g><g><path d="M1201.4174062635993 501.2437875376142 C1216.7343062673715 501.30979317392746, 1228.598590201952 500.6151726249477, 1262.7000148950835 501.6838735396075 M1202.5693679787955 500.71341059500037 C1223.4063504476956 499.098294230405, 1242.7277053736268 499.65718098725046, 1262.1029801928769 500.1700657658467 M1262.252188526807 499.97732842021526 C1261.6977149287923 520.5817648983403, 1260.2502294761618 536.8454397036522, 1262.7688341047863 550.4305526834742 M1262.417461979805 500.3869586083718 C1261.3092260043838 518.459767072488, 1261.6239012089259 537.2317498035038, 1261.6866260021084 549.3571710993347 M1260.5176843128527 549.9614173240393 C1243.386368729069 548.460522721304, 1223.7454582366945 550.7196789199585, 1201.3054990000905 550.086653286814 M1262.124945591903 550.9896470418776 C1248.2978726185402 551.0602051794609, 1235.3210031688252 550.3857931005177, 1202.142305990293 549.9559768584554 M1201.4247912796543 549.563827826067 C1203.2217893890625 531.9850716768667, 1200.599885956485 516.2499222672536, 1203.5494152987033 501.5157163337796 M1202.4468054603794 550.8550320572972 C1201.4502304780565 535.3555777013016, 1202.8180878862618 518.8448954539876, 1202.0050207055451 500.2798776965525" stroke="rgb(0, 0, 0)" stroke-width="1" fill="none"/></g><g><path d="M750.7712561357838 748.7929146136045 C823.8473922147379 749.6888805094069, 895.4344518892511 751.741224451554, 949.5098419001865 749.8684136730351 M749.210652839384 750.5609011661827 C799.6839040600123 750.240898518765, 849.3924889429898 749.2187775296021, 950.6595398175274 750.7763550546224 M950.8361155942167 749.6559889711029 C951.4036438520782 782.805995923788, 949.0252663045651 816.2735927264423, 949.994285320232 879.4748007879822 M950.8455498494371 749.043435333885 C951.8229013247931 785.5402567349452, 950.6601076212613 821.4717816330103, 950.9111276065881 879.6035011205271 M948.9276241877026 881.2856609426866 C897.838457176737 879.4056804783614, 842.9593317154643 880.9504663696075, 749.6624484758407 881.3877732533069 M950.5679718890489 879.3215178127432 C895.5922235159102 880.2548336578283, 840.3541762175853 879.9434810929489, 749.8062099029538 880.3561359665205 M748.4627785312277 879.588652631795 C750.9940262668554 836.071597923037, 751.1606926117539 793.2660531424931, 749.8396869268539 749.115728656597 M750.0673798567296 880.8221158860412 C750.9497592448809 836.6054579315155, 749.5752246474881 794.9419934834641, 749.1741861895839 750.8884426197717" stroke="rgb(0, 0, 0)" stroke-width="1" fill="none"/></g><g><path d="M744.7551599902821 743.007165196944 C822.2727790747156 744.7579950003787, 904.7632026233059 745.130330187079, 954.559449877663 742.7764695887817 M744.8351406006285 744.4010032001496 C802.9356269517616 746.5915383084487, 864.0135853823443 746.2009953080745, 956.854891590364 744.487896011005 M954.4522871639256 743.2738545500455 C956.3642539147113 776.6948679003333, 954.693241388371 805.9120656524669, 954.820738897532 885.6500146522837 M955.6258352848791 744.259085402172 C955.6680840625446 784.760888830515, 955.4985934926432 827.8558005201523, 956.7811433903205 885.342171003149 M955.9647345028029 886.1896074674812 C900.3189125597901 885.2216569706242, 840.5056173302626 885.9412919009973, 743.3429028359001 886.2821784227519 M955.4740377461309 886.1602905000703 C883.5992056695792 887.012671383568, 813.004531148358 888.0232451123917, 743.7693536351601 885.7729436596422 M744.2739883811153 886.1967992967373 C743.056910927887 856.3106017623422, 743.4742569160438 824.9591476588095, 743.9603599822774 743.1858029462735 M743.4595113214925 886.0685759926729 C744.9410221179518 832.9437778489372, 744.6594950118792 781.4645311142688, 743.8885213156658 743.255686281492" stroke="rgb(0, 0, 0)" stroke-width="1" fill="none"/></g><text x="850" y="840" fill="rgb(27, 14, 139)" text-anchor="middle" font-family="Consolas, Courier" font-size="20px">"None"</text><text x="780" y="780" fill="rgb(150, 100, 28)" text-anchor="middle" font-family="Consolas, Courier" font-size="20px">id13</text><text x="920" y="780" fill="rgb(27, 14, 139)" text-anchor="middle" font-family="Consolas, Courier" font-size="20px">None</text><g><path d="M750.1957860238689 751.0022567761 C764.1858852865113 749.6071898466432, 776.2623278178503 750.9271404839901, 808.5883872657614 748.3077976963883 M749.0018516446981 749.3418997031305 C761.7295755403891 749.8821611377775, 775.1537715209778 751.0463370782571, 809.1086536625784 749.0842404256446 M811.3808364411233 749.2801513332128 C810.6868469163869 769.057259836992, 811.0568803826125 785.5743594860228, 810.696200428775 801.5164576524528 M810.21245609397 749.6416569639762 C809.376483328859 765.4528791476242, 809.5096648720645 780.5866893137804, 810.0782295207439 799.8076322688929 M808.262045530725 798.8925755842066 C788.1510717739942 798.1130472918934, 767.3751021204654 799.4030256033643, 748.9819403551085 800.6715845111905 M809.3779939978896 800.6077283924232 C796.7242041913532 799.9401587259936, 784.4855463540722 799.7935439559003, 749.8633148313326 799.2364566425465 M748.5301986289343 799.5005855117136 C750.1472715697722 787.3759514616308, 749.8448006489497 775.6088737528187, 748.9305475649002 750.467449324867 M750.2800150478688 800.8607701994825 C750.4392465851439 780.6510660501463, 750.8881279862552 761.2133586157735, 749.1731853492562 749.7520555669479" stroke="rgb(0, 0, 0)" stroke-width="1" fill="none"/></g><g><path d="M890.0437623247082 750.0595381943925 C909.0159854353387 751.4726614346243, 930.609631716611 751.5592096156029, 949.2618462380847 748.3748620304127 M890.1647937174172 750.7150737234125 C911.4858122161884 750.0340422850805, 933.5958200818915 749.6383678249445, 950.6949864745588 750.0660366644244 M950.1055746854297 748.7758714360109 C949.8080997246916 760.4795213413657, 950.6021651693733 773.1852391331307, 949.1191019067222 801.6545389136805 M950.5693152846663 749.9586018194761 C949.9404575308031 766.1299440593333, 950.5579053359108 783.8472764209243, 949.120140592883 800.941754818681 M948.4014204976237 799.0429566352769 C933.4347654839264 801.63293518256, 915.9463270390431 801.5327794482284, 891.624348864964 801.7300920223787 M949.4886099233148 799.7948164632604 C926.2525803572408 800.349121143414, 904.8406209767112 799.1826971709552, 890.2846555984504 800.2410829499668 M888.3736069831433 800.4488838066796 C890.1222720296549 783.7385093127727, 888.2607781585695 769.86288724198, 891.2618307983093 751.7970161826611 M890.6299136241025 800.6027134661397 C889.2306264110986 780.4486746860962, 889.6218319049466 760.6080359997692, 890.22335919111 750.7905015865366" stroke="rgb(0, 0, 0)" stroke-width="1" fill="none"/></g></svg>