<svg width="1399" height="992" xmlns="http://www.w3.org/2000/svg"><g><path d="M25.732584977573914 198.37330676064389 C92.60344880605028 197.1911107569347, 163.83856014259248 197.5974953836231, 222.28456729262223 199.0630761227849 M24.42379831930373 199.36752249798687 C87.30596521551509 201.2837197535166, 150.61985065817484 201.55184083809385, 222.7283265248134 200.81619520908646 M223.7883986991009 199.5386744475805 C221.46039158408306 362.16692391899284, 221.53085412526283 525.6558905308933, 223.41795807915307 650.3200097032786 M222.7086867939945 199.82062153660678 C224.6659556332639 359.7999081990305, 224.43303977933587 518.9794447872159, 222.61592848321934 650.2960025927204 M222.65558141702522 651.4213006791196 C178.61761375584106 652.5432214714294, 136.36068076262288 649.3603084312, 26.134809745695026 650.1871086823193 M222.3186894082277 649.5683698349579 C143.2211380461137 651.5444746379407, 65.3637494662487 650.310871137381, 25.51802193820103 650.9472766085745 M24.598193697368806 650.3201590608057 C27.39545144107326 474.30395470977174, 26.48046695407151 299.4427357257193, 25.450184562731053 199.90973029349783 M25.399751667775874 649.6432784905305 C23.38598622809672 495.9594314775556, 24.125448116498955 341.18643082243983, 25.38167447924366 200.12987378420942" stroke="#000" stroke-width="1" fill="none"/></g><g><path d="M148.5863614757943 276.11487727442903 C170.52304957022093 276.41597213960836, 191.368670647135 275.54398529391636, 206.08740528916968 274.5513011362883 M148.31960802723864 275.08845593935314 C162.00188821168095 275.0894822301759, 175.63769677628042 275.7215408545704, 206.33603748559557 275.2707232781083 M204.94009923667662 276.4918669088843 C205.78529092842192 293.4669984033608, 205.14610758913742 308.4333501869482, 206.76376712689216 323.6822632040973 M205.70498670137073 274.36280092934555 C207.21928222238665 288.5484587159533, 205.69334615937146 303.58126089469647, 205.55596138147757 324.28372242542025 M206.17730282119928 324.74863087393203 C189.40734993441757 323.53010152075353, 173.55281254839159 324.5646673915262, 149.0124290645038 324.8974641975738 M205.56026480146957 324.53946659545625 C186.43999162396162 324.82918460726466, 168.31128680449805 325.56371051409377, 147.54853281264084 325.4892007014691 M146.63157294776119 325.3166335763438 C149.35699858723635 311.7637097290975, 149.93472966909496 299.9015685603237, 149.00848086444856 276.05287532888724 M147.5820275078241 324.9321399480692 C148.77195544640023 309.1142144616048, 147.20201556044572 294.63378677102963, 147.37318593489815 274.95999246058545" stroke="rgb(0, 0, 0)" stroke-width="1" fill="none"/></g><text text-anchor="middle" font-family="Consolas, Courier" font-size="20" fill="rgb(0, 0, 0)" x="50" y="305">lst1</text><text fill="rgb(150, 100, 28)" text-anchor="middle" font-family="Consolas, Courier" font-size="20" x="177" y="305">id82</text><g><path d="M149.88471920885826 350.300683367156 C166.78387111666026 347.665539292814, 183.54514768479015 350.43882824539986, 204.95062481369365 350.9307833699002 M148.76377567049704 350.9479017474832 C163.4680646715728 350.18413723077157, 180.7088329513376 349.55470385115575, 206.67607838366737 350.6616873813983 M205.31486095917737 349.3829362894066 C206.86517799139006 361.1289131491361, 206.54795992163017 373.3956522461723, 207.49544402628905 400.2342649731595 M206.56671276960887 349.88470189277405 C205.76021441251436 369.3082402212546, 205.5501053765604 388.2629997711986, 206.98904081593003 400.9516173489647 M205.97783798533374 399.40026383555016 C189.6582596537908 399.1899986374076, 172.70129642860465 400.339238439413, 146.9988320022437 400.9468460873735 M205.54226330826282 400.30817763637975 C187.130922260657 400.0260739886968, 167.18935898485205 399.8773823117987, 147.67336343790032 399.33387585643817 M147.31035168378108 401.4620343972445 C147.5975097605867 381.9368707581864, 147.27528523417593 363.50573559012963, 148.95548149951819 349.75241791274516 M147.13193072842796 400.1464776728212 C146.91003790334764 383.2289459626872, 148.15758178955096 367.4557205798404, 148.85280275408473 349.12289495021315" stroke="rgb(0, 0, 0)" stroke-width="1" fill="none"/></g><text text-anchor="middle" font-family="Consolas, Courier" font-size="20" fill="rgb(0, 0, 0)" x="50" y="380">lst2</text><text fill="rgb(150, 100, 28)" text-anchor="middle" font-family="Consolas, Courier" font-size="20" x="177" y="380">id84</text><g><path d="M149.10244945102005 423.875793923002 C162.11954995488978 425.8401485794221, 173.5210906564876 426.4414241161386, 207.2442011796481 425.7230753183662 M148.60048049320136 425.79215663737006 C166.4388984075162 424.68143651083477, 183.08998076198765 424.0468413684787, 205.6075172427572 425.1840113630893 M207.3970002168118 423.29176873009476 C207.5987170738191 436.9372884956607, 207.23076332635648 449.51566727919, 207.22205603830253 474.55787449973485 M205.2039845823038 425.9031981631149 C205.11945787443221 441.02871020493194, 206.4041420455568 457.9389362708708, 205.8534432480262 475.83509789922437 M205.78072618900958 476.4842517214185 C188.70264861810708 476.9124855527183, 171.03985795034785 475.3650605270716, 146.91930344531679 474.8125020031009 M206.69538782042028 475.9140364042062 C183.94239149134756 475.90523988974314, 161.16112758930137 475.23799662041336, 148.44601101806202 475.0959135862265 M149.76463476561992 476.21634908813206 C146.54677219791495 462.6790278487475, 148.50300260886527 452.3190528326613, 146.41050756602823 426.93107158691765 M148.8075484607019 474.9362734548273 C147.2135501386437 458.633486374483, 147.6070562148225 441.99918258697835, 148.95597982868102 425.11253878679173" stroke="rgb(0, 0, 0)" stroke-width="1" fill="none"/></g><text text-anchor="middle" font-family="Consolas, Courier" font-size="20" fill="rgb(0, 0, 0)" x="50" y="455">p</text><text fill="rgb(150, 100, 28)" text-anchor="middle" font-family="Consolas, Courier" font-size="20" x="177" y="455">id99</text><g><path d="M149.66535361360502 501.71338613548664 C169.65190056799304 500.227937529171, 189.85917135580152 501.7451323392641, 207.58757065477448 499.6000901834506 M147.09125203537366 500.3405789291869 C169.69508756830226 499.54086923223275, 192.94284858583205 500.9865719391232, 206.19828990607823 499.6512708906489 M204.7881037733421 499.4865014720745 C204.5274310764994 511.28102854428147, 207.00787417717896 526.6060622874897, 205.6768566442094 550.6320711965357 M205.47888026290994 500.81369169478205 C206.1445797677699 519.467043398475, 207.18876215989872 539.310969228028, 205.892111646661 549.017309809545 M205.63044248061024 550.8060825572497 C190.51994012771866 548.0846060370847, 176.62045410613663 550.7107072464794, 146.5933970476448 548.5453670824614 M206.68526418858605 550.1786638506804 C185.17185477361002 550.9616672314506, 162.4840730231963 550.7363718301634, 148.957022192855 550.266630858286 M148.47428966650304 550.5464723562615 C147.12067533019373 530.7445541460322, 147.47684588705968 514.4120329361772, 147.56929889921648 499.2197439434051 M147.205320633181 549.4758054781846 C148.554354350694 536.3976745286631, 147.31034291368425 524.3736919568731, 147.03762998556851 500.47626569033434" stroke="rgb(0, 0, 0)" stroke-width="1" fill="none"/></g><text text-anchor="middle" font-family="Consolas, Courier" font-size="20" fill="rgb(0, 0, 0)" x="50" y="530">d</text><text fill="rgb(150, 100, 28)" text-anchor="middle" font-family="Consolas, Courier" font-size="20" x="177" y="530">id10</text><g><path d="M146.1704995419007 574.2785082508211 C161.7721168501075 573.9416154328292, 171.51748427999306 576.039840554053, 204.0182474520016 574.1855848031031 M148.78231403445 575.315966241632 C163.7086316925231 575.9275619253557, 178.63570583920313 575.7397670479816, 205.35141369983145 574.4256712585484 M205.28336452752274 574.9566431093832 C203.59204304174236 590.0898379586083, 205.5770812780309 605.7016333212167, 205.451347870828 623.7760079601948 M205.17213276710055 574.5997871565767 C206.72707607506274 591.1421555572626, 206.64258297880315 608.8604034434804, 205.0416860945665 625.6440501878527 M206.20157966340327 624.0281828524962 C184.42195216378428 623.6348904336012, 162.87549517025786 625.6228945657257, 147.6586840623207 626.6331687747717 M205.77892738454935 625.5298851641451 C193.8911715667373 625.5638524670447, 182.2409155964452 625.3331368176852, 148.13368030200772 624.1255254682758 M148.26580526320694 626.4659339174327 C146.89386587716444 603.8896994462244, 146.47115227730728 585.7104521155915, 149.98771365375768 576.3495065051407 M148.1489169245982 624.9371915698139 C147.6430376627892 607.099207162607, 147.17493208739958 589.0987704726487, 147.0697953186182 574.8016290652446" stroke="rgb(0, 0, 0)" stroke-width="1" fill="none"/></g><text text-anchor="middle" font-family="Consolas, Courier" font-size="20" fill="rgb(0, 0, 0)" x="50" y="605">t</text><text fill="rgb(150, 100, 28)" text-anchor="middle" font-family="Consolas, Courier" font-size="20" x="177" y="605">id11</text><g><path d="M23.63016411655807 201.06644403590903 C64.48417360465704 198.25549722831752, 108.03352640270015 200.10846129489576, 130.1744714997562 199.3894141340056 M25.953070723381447 199.7560505800288 C64.49457599848482 200.96184223022752, 105.97552004041496 199.71172175713951, 131.33202079433616 200.67424303949346 M130.18516422751892 201.12038349517007 C132.62438758061666 213.1060677643957, 130.12519276240553 226.01087690309052, 132.82247371532253 248.63684286012375 M130.43988368371035 199.31015381118382 C131.97373509420643 216.82144773392966, 131.65623204990015 233.11123941401763, 130.16880081365753 250.2051734206174 M129.80832891124308 251.24263894488092 C100.11087569805173 248.35169078411192, 70.44306846391926 249.20479311486082, 25.97794159539282 250.435906068265 M130.81742942122668 249.58998341983832 C98.0287493385378 250.6489699599427, 64.23112512528327 251.2150007316153, 24.384399121701566 249.6448900118175 M25.93519172607465 251.30773824932533 C26.150978635779342 237.42534811844396, 24.018026883178237 225.74652518285268, 24.519192393137175 201.0126417864971 M24.274531732517097 250.11246867869005 C24.13523999420433 230.86455688899426, 25.63559687172461 210.97797264491555, 24.549369155121116 199.1117951376" stroke="#000" stroke-width="1" fill="none"/></g><text fill="rgb(27, 14, 139)" text-anchor="middle" font-family="Consolas, Courier" font-size="20" x="78" y="230">__main__</text><g><path d="M350.8536442161343 9.227608051847334 C401.4986412990955 11.681147182133628, 456.9508984590612 12.254237830101047, 546.2415215485506 9.52446915576958 M349.4839646377281 9.703779487980778 C399.76939367477115 10.806327081828533, 447.9791725479111 9.972009306900011, 547.010420991294 10.624038845490576 M546.7228338448687 10.140665614351564 C547.8791264987063 86.11222624524612, 549.0451149772974 159.7021038995121, 547.10822415456 233.6517346315075 M548.0979567486389 10.234267291391815 C546.455134193517 94.30091880311886, 546.4459065765751 179.1936972329158, 548.1164089057136 235.08387472201082 M547.1938550542973 234.03288932983563 C480.1231912665302 236.6012109886685, 413.58140853040965 235.08919508007173, 348.19180781034163 236.56741609361112 M548.1333087193319 234.75554968101181 C478.85148652399084 235.98195505392127, 411.4233019464137 236.9145985521342, 350.5428427366989 234.32527937179037 M349.697270849885 235.32530655665232 C351.5791954488558 157.45518928351945, 348.5411381681288 82.9834861336571, 350.89168703044004 10.764307358646601 M350.72934497212344 234.41218921866968 C347.87385768555794 183.56148494790762, 347.93831311627764 131.81921526318854, 350.8470389839601 9.9110822812709" stroke="#000" stroke-width="1" fill="none"/></g><g><path d="M472.55883861128694 83.74738898958464 C486.76569764830606 85.00318622066645, 500.71816660403357 87.19229659795216, 531.4080948744972 85.80504168372383 M473.4360430635011 84.40088900722594 C489.5052289054512 84.07789286423589, 505.340689593175 83.86349994514488, 530.0165989394858 85.74000549223229 M532.1627725807176 84.92024234287587 C530.7361204407632 100.8256991770886, 529.6622138644032 112.42954457307488, 532.730515880568 133.03243198662733 M530.8133826923087 85.64962488023383 C531.4700256754281 96.98476546065393, 531.3425585470153 111.41346496175423, 531.6189073423888 135.43556181459405 M531.2246270251196 136.19229810536436 C517.5022910009639 134.4716424635182, 503.8674965820647 136.423225386903, 471.39980577095355 134.9573820326094 M531.0056885813343 135.78325343645656 C514.7827438575871 135.56810372650511, 499.5567031135267 134.98904927131852, 473.80311102207975 135.1886677580337 M473.95511978295775 133.35225997324864 C472.85534397144386 118.1486175083583, 473.6495488549873 98.17813336831134, 474.2396856614483 83.06632545394787 M472.6670168595775 134.18022162711642 C474.04548775038467 120.6729758857512, 472.44907009237005 105.67850753888737, 473.3451628009622 85.39037014028244" stroke="rgb(0, 0, 0)" stroke-width="1" fill="none"/></g><text text-anchor="middle" font-family="Consolas, Courier" font-size="20" fill="rgb(27, 14, 139)" x="375" y="115">age</text><text fill="rgb(150, 100, 28)" text-anchor="middle" font-family="Consolas, Courier" font-size="20" x="502" y="115">id12</text><g><path d="M471.90908656852184 158.6436680801058 C488.75351982073585 161.56334131993304, 505.73087152951655 160.6054003110606, 530.4419730748009 159.8034829742557 M472.421059218527 159.0355354065619 C491.7377520427319 160.40368519013808, 509.3686322565859 159.5998004184427, 531.2138271445294 160.23365385606064 M530.8902489967426 161.96094398541604 C533.3276878085634 179.743842119954, 532.7401144025677 197.0145068759576, 530.5880244875281 209.91634325598025 M531.2387075276771 159.4987240304301 C532.1081599852799 173.54669925191163, 531.4508803588878 188.36425504919612, 530.7074217431658 209.08084694320775 M529.4931210686112 211.23964811420822 C514.9754055044165 209.71096984552955, 500.64205237446777 209.7739161320535, 471.44712774838143 208.82856337032538 M530.4087737716607 210.9677881045162 C510.92195917404666 209.59850549195315, 491.185601767182 210.54301118405652, 473.3924718345943 210.63344300445826 M473.13131345095366 211.99352499125183 C472.4419929234563 192.5324642142841, 473.6219362086446 176.90179554035782, 471.8874669487542 161.94519923615036 M472.72666993869683 209.5346169635532 C473.1544971346124 193.46762165378985, 473.20117163958525 174.44161769885906, 472.9446128821313 160.8717090306702" stroke="rgb(0, 0, 0)" stroke-width="1" fill="none"/></g><text text-anchor="middle" font-family="Consolas, Courier" font-size="20" fill="rgb(27, 14, 139)" x="375" y="190">name</text><text fill="rgb(150, 100, 28)" text-anchor="middle" font-family="Consolas, Courier" font-size="20" x="502" y="190">id17</text><text fill="rgb(150, 100, 28)" text-anchor="middle" font-family="Consolas, Courier" font-size="20" x="380" y="40">id99</text><text fill="rgb(27, 14, 139)" text-anchor="middle" font-family="Consolas, Courier" font-size="20" x="507" y="40">Person</text><g><path d="M351.2275883881495 11.962970295559948 C369.04759839172937 11.423153474699745, 384.62261694266056 10.09983715516114, 410.5772065521652 9.709498231108515 M350.68186895126627 10.352887302679175 C365.107802958531 9.226021388371162, 380.28394722221464 10.131290381976253, 410.7961719792285 9.594660623905085 M409.5628144075397 11.123699827023444 C409.92638272592455 31.084302794487694, 408.5110284644941 49.93848986305058, 411.59365055209577 59.490397042472296 M409.5412089841587 9.815494616210936 C410.10761279378903 27.9577309145985, 409.45898394632434 47.15884832367362, 410.16781924379825 59.32639040893958 M408.6129005736575 61.828253494045704 C389.80065942237303 58.40704652292006, 370.90268293730804 59.544480229608, 348.1969704421535 58.52860902875039 M409.8904734756135 59.91465438632391 C395.80269322733983 60.16801748177319, 379.3696410968869 59.19203620343554, 349.21791192017855 59.46705778764715 M349.05770004492433 61.05561351891807 C351.19060646032693 39.432339329651754, 350.3445851775147 23.10629166353199, 351.07435385114815 8.309391122468679 M350.2681060009429 60.03563628538633 C349.8661625549525 49.09973400148707, 349.31916638996296 37.44193164354569, 349.29573824263116 10.444262213547537" stroke="#000" stroke-width="1" fill="none"/></g><g><path d="M466.9814385414417 10.751267482926565 C484.02008268021126 9.507560777576552, 503.943608406322 8.812957250221686, 547.0152062602942 9.352333101626565 M466.34189255846997 10.548502671021158 C495.5272582323937 10.416501481740239, 523.2384923887687 9.219573666884916, 547.4543781945512 9.171410584976005 M548.5131326523859 9.387663653403326 C547.6361024768769 24.162231126003498, 550.2478444055758 41.47851247477355, 547.3022419811145 60.25371028047368 M547.47003499408 9.546108580372884 C548.4820473399107 26.93149846187989, 547.3570063243467 44.250504094282086, 548.1885538528242 59.80039843981535 M546.5647725440614 59.603627039614366 C532.4089816749138 61.56606024453101, 516.7987749561289 61.371586284699866, 465.3681769431943 59.889554264863705 M548.6287342601255 60.32038829667321 C520.4975660721128 60.34057681070025, 492.8688696889061 60.873434997493916, 465.2222953785888 60.03654558124058 M466.5567903223981 58.668022354200176 C466.6649079669904 44.82204683786492, 466.76179185879374 28.441022562819775, 466.4502364355839 10.612192225161982 M466.5748684991934 60.98004507558538 C467.05408358260195 48.395191730931536, 466.11665062620904 36.8097759883531, 466.71250682446254 10.319640392990696" stroke="#000" stroke-width="1" fill="none"/></g><g><path d="M349.983336865836 349.5451458671108 C414.8634394667626 352.65439025926736, 482.41317769463865 353.0192780687711, 632.2078722868605 349.8250260662818 M350.32048623091555 349.9582205211067 C440.0881162935165 349.5666744974093, 528.5004687750694 350.59721957411114, 632.0443603390884 350.7318434682097 M631.6711610800173 349.70624276810304 C633.690787154813 380.67044936995575, 633.4395221794658 408.62948408983215, 630.6223961395303 479.34157643171415 M631.995060405971 350.06287770397887 C632.2348855941314 396.7292976888166, 632.5693592584424 443.1188512929091, 632.438429028884 480.7990695577581 M630.5223927750524 478.838965380814 C553.9807006760944 482.92146146315935, 478.04023633725456 482.7903183124137, 349.86984511371895 481.36698383345333 M631.3183512760211 479.7368814133612 C533.2280520136734 482.18688278610165, 434.1893553816503 481.52251126319476, 349.2797294536001 479.4864416618803 M348.1432457661262 480.17373494748404 C349.08847825143886 449.2414462891816, 349.0846259162078 418.0437858960443, 351.69166435575437 350.87972111729727 M350.88913456745365 480.26669353337616 C349.3843203541896 443.1487202155228, 349.6099451290958 405.78074443895866, 350.0352953264865 349.2578503627421" stroke="#000" stroke-width="1" fill="none"/></g><g><path d="M376.0717840298637 414.8277012729604 C394.3289435239864 412.9118807936366, 418.8929522025981 413.7767537929885, 433.3283362680537 413.58566807447824 M374.5401711664387 415.49602001806085 C393.58957383453543 415.25037436729974, 413.177880629537 415.2870285064772, 432.8366649530001 415.20635639423756 M433.514892082433 416.7723263290299 C432.5575160171469 427.6997969481778, 434.05667825703193 435.6043217064553, 434.0980783532697 464.7278318106433 M432.0160304731472 415.80504208933763 C433.4110241130231 429.632780027465, 432.82095619594213 444.0620408239189, 433.112449336576 464.39413789121807 M431.2267008654975 463.2433656758287 C411.1859286308696 463.9300527678408, 386.27720808727173 465.7194414050457, 375.03840122551975 464.5706302831654 M432.12832199435 464.04760202780693 C421.3609140382757 465.7537851209585, 410.3357548412819 464.2775340931183, 375.00196704299543 464.7295572645997 M375.634209956542 463.9967912799591 C376.80232174333406 452.51935870661106, 373.5409717063807 441.0749908534237, 373.7732364704688 414.128509614954 M375.1466406971411 464.324397465796 C374.63765041700066 448.64083574783257, 376.0079484187309 431.7334892554828, 374.5383790673386 414.16451183012487" stroke="rgb(0, 0, 0)" stroke-width="1" fill="none"/></g><text text-anchor="middle" font-family="Consolas, Courier" font-size="20" fill="rgb(150, 100, 28)" x="404" y="445">id19</text><g><path d="M432.5900432989834 416.3751314935249 C450.1282748007543 413.9458930885022, 468.19307609343707 413.71770362543737, 489.79533704431327 414.0773422038198 M432.70176649944784 415.928944271756 C451.55836585756055 415.7550938200881, 470.6104595286577 416.33770147278267, 491.26880448120494 415.86595241698507 M490.53831125410323 413.38827561818357 C492.73193617235984 434.9673353869622, 491.2123396502947 453.8372230370684, 491.29821290150187 465.21925795026715 M491.53514031844395 415.2531644664068 C491.05938946960134 433.91787907454295, 490.0339698921989 451.0900282404992, 490.3127666368497 464.765949741371 M491.7717762832227 464.2058106319969 C475.31570104090554 466.8129096087113, 462.1306405123073 465.7617142033669, 434.2091237214876 465.28280247656517 M490.2440594428439 465.74026760312927 C477.5787038215569 465.3991905379948, 463.220208156857 465.5844335836459, 432.6461524039537 465.025907853252 M434.48005387057975 465.40537132141407 C434.088017802745 452.18868287802024, 433.40224094736067 437.2490291365064, 433.4625973786881 414.70172211213514 M432.4687355845584 465.5042981922082 C433.5767890618287 452.4428032423972, 433.4381136102916 440.487068724867, 432.1856863370704 414.6331394703314" stroke="rgb(0, 0, 0)" stroke-width="1" fill="none"/></g><text text-anchor="middle" font-family="Consolas, Courier" font-size="20" fill="rgb(150, 100, 28)" x="462" y="445">id43</text><g><path d="M490.870284157666 414.24990599257256 C510.0064257065136 413.8408834503549, 530.3258029128701 412.80131356922334, 547.1130705654914 415.8796785783678 M490.3243011589331 415.70712417391405 C510.81747817178666 415.7660966324834, 530.1363192575814 415.0916500141315, 548.5185652460149 414.11423208169657 M547.1442130540597 416.1343528254538 C549.1733248023463 429.5745154390127, 549.7768501856574 443.3945998308274, 549.1857333855196 464.1106565707232 M548.8660118506215 415.8641900650492 C548.7234774242808 431.9172002506736, 550.2721957330644 446.75797183692737, 548.5983082266613 465.9807475960495 M548.6805676101361 465.57672187213126 C536.1085100926317 463.35200525891935, 522.8677815262165 464.41176804334225, 491.9281888242095 464.398443554749 M548.5596947266133 464.997938206979 C531.985656413449 465.13654009282266, 512.9199844768808 464.0830979179502, 491.4286374677857 464.742648994217 M490.24328542830074 464.79212503462804 C492.1146122095694 451.7245852627785, 489.8014421814395 441.94305577516917, 491.0299915132842 413.5712527211429 M491.5926648755994 465.22022595594325 C490.1115258527859 449.03017803044145, 490.03850689907983 430.4054243857382, 490.3042805554867 415.6851472681695" stroke="rgb(0, 0, 0)" stroke-width="1" fill="none"/></g><text text-anchor="middle" font-family="Consolas, Courier" font-size="20" fill="rgb(150, 100, 28)" x="520" y="445">id28</text><g><path d="M547.6326030024118 413.5795162518017 C570.4496250135858 416.2480898849995, 589.6730087916043 413.19794772144866, 605.5270616617472 414.00209258840897 M549.841921520105 415.60176936767647 C561.247373017256 415.81707989992674, 574.4872386252595 414.2640726907172, 606.2004147140988 415.1849829323102 M606.4493923003362 414.00421592460617 C609.333736044135 425.1851719022699, 607.9071533461755 434.0147212541261, 608.5675322469772 465.60505409257155 M607.1410394624057 415.8695538100291 C606.3626356826917 433.17961681871463, 607.3091154736683 451.1526469382345, 606.4367073543694 464.0178174435829 M605.5226862436084 465.8780983482203 C589.4531166327048 466.14011111945297, 574.9217716781671 466.24231720388536, 548.8822467317523 465.61546183548404 M607.4388845280217 465.20085915942667 C592.6573391440963 464.89445008563627, 579.23700180215 464.6076027011753, 549.8490647086818 464.2593612041939 M549.2457791975711 464.4439237064238 C547.4782406660428 446.9408166375223, 547.389935208094 427.5897440527407, 549.3997408878128 415.4366693102172 M548.8582773507642 465.4743739781282 C548.849247168933 452.98124652686374, 548.8157984822224 440.57388783757386, 548.0105127734794 414.3723406006869" stroke="rgb(0, 0, 0)" stroke-width="1" fill="none"/></g><text text-anchor="middle" font-family="Consolas, Courier" font-size="20" fill="rgb(150, 100, 28)" x="578" y="445">id49</text><text fill="rgb(150, 100, 28)" text-anchor="middle" font-family="Consolas, Courier" font-size="20" x="380" y="380">id82</text><text fill="rgb(27, 14, 139)" text-anchor="middle" font-family="Consolas, Courier" font-size="20" x="602" y="380">list</text><g><path d="M351.23210910679603 350.7292214330609 C367.8619490047698 350.2903759495957, 390.31449390818324 351.06963344192894, 411.79791210673415 350.51940436635425 M350.25255262455283 349.2738863536799 C373.39326537040796 350.3877488690141, 395.908590684124 350.8220595103443, 410.55041976639103 349.77889158207495 M409.8678933460145 349.28107536125015 C412.0746339679592 367.07088847784206, 409.1798339466827 382.9684787750281, 410.006636363109 399.3967847909853 M410.2398002904583 350.82406538495377 C408.9993594836596 361.9135806685012, 409.7224455033131 375.45492339207095, 409.8819075107564 400.90321406087645 M410.10152969164363 398.8736206957333 C394.3986548289574 399.621158234823, 376.7724497937786 401.81453497628695, 349.66971456678453 399.69237798062306 M410.4632063009467 400.70327238637 C388.28363980514337 400.1953791249427, 367.21569762499274 399.35466596925596, 350.8457469389588 399.0434538458018 M349.27710605987835 400.4978025342834 C350.38642318662977 386.45560294433113, 349.3913840129368 376.0013283266834, 349.29340970026874 350.6763717126074 M350.34239215942875 399.0249996908095 C350.2037410126404 382.83871222771205, 350.46833160702624 365.7662183441475, 350.168952887196 350.1922027771227" stroke="#000" stroke-width="1" fill="none"/></g><g><path d="M570.676062678931 350.9855042503296 C585.3947662881587 349.0396048601316, 598.6635542539165 351.5826912271108, 633.3141968501025 348.0564600098814 M571.7099650900036 350.7380303108404 C594.2404215591633 348.4788724145074, 618.8724598452868 348.6914509146928, 631.1731645569499 350.9144858753157 M631.9907073407098 349.72359485551215 C633.722064602213 368.7634152274678, 632.0537495213961 385.00046083430067, 632.6687777898434 399.2732055567594 M632.6096972957802 350.03411713848305 C633.051479499449 366.1082411141159, 632.4177615477417 382.42541873974125, 632.5595062327086 399.7596338137763 M632.979925615611 401.993301028563 C610.1975015955624 399.2818236073864, 589.1650785037157 399.81723761427895, 571.8738763264421 399.77660248277385 M631.3432448482531 400.8348791235699 C607.4241134717615 398.7374739488978, 584.8181685717066 400.17910414285495, 571.542077530178 400.98976845841946 M571.0196084856216 400.50204069488717 C572.1832254943297 385.67242068034807, 572.176174953657 375.0870741859594, 570.1151129143705 349.4774740702765 M571.1041592777398 399.4428450383547 C573.3021201290259 387.06952119329765, 572.2656053523926 376.1762125006935, 571.5141186317163 349.8626779993904" stroke="#000" stroke-width="1" fill="none"/></g><g><path d="M350.27313289142336 601.3637894318318 C448.1995555975947 597.9444632753192, 544.2880384817431 598.7709587426598, 632.7793635920275 600.5921277263571 M349.33538229813286 599.4086346054124 C428.44527768025364 599.1381073587382, 505.34189426770394 600.086507576258, 631.8292020797013 599.5117673393684 M630.0373600298924 598.8452673209639 C634.2081134087795 642.77461263316, 631.6486478059755 682.7341601950183, 632.3466260807483 749.1288230568131 M631.0118700827942 600.3505818598331 C634.1909146635165 639.1580060672295, 632.9617478575765 679.6501038939589, 631.8294795536466 750.0228210998997 M633.1707082452251 751.2629258312433 C565.076581496456 750.3676466535462, 498.9337627112531 749.8806397533386, 350.8631282012474 749.9193304546686 M631.8903227569693 749.5538861256132 C529.5800472337542 751.3900776764532, 429.0639672073026 751.0699932231793, 350.1764329345275 749.7627295736357 M348.8773290405129 748.5062552347867 C350.46116014290214 689.8457006420624, 350.7616474465751 632.7264771566087, 350.0040003889539 598.6997322180858 M350.53270444264115 749.8073609970511 C351.21993008696097 710.1993744960163, 350.42830127590986 672.6856279817439, 349.0513903066403 600.8861644365015" stroke="#000" stroke-width="1" fill="none"/></g><g><path d="M374.1235143356849 683.6686357902461 C398.64654863124673 684.9699528407472, 418.0567777079487 683.5224214405703, 432.6904874209897 683.1738749796851 M375.5571845590345 684.9234599463724 C390.3713717916857 685.8622556798709, 404.97584200600056 685.3783958061198, 433.2117896230453 685.5960360111873 M432.115577670772 684.7425532764117 C431.4562529514946 697.2104925830245, 432.0153458075477 707.9449647971953, 433.1889105216578 734.3473603668984 M432.0530990730302 685.9126962025211 C432.94397020223397 696.776653993924, 431.8295642046301 709.1745825252206, 433.4404820702695 734.1681398220356 M434.6711049424296 733.2670656316197 C409.83511507787364 737.0627535359799, 389.9483168045048 735.218707778769, 373.8806002824865 733.4520785178423 M432.9338217389509 734.1038220263247 C412.42242662369017 735.7679475269023, 392.14777185048285 735.7958361786253, 375.6425735490018 734.1711600382804 M374.7977759719407 735.0425614497165 C375.4480077754661 720.5622685798568, 373.57626048517534 704.5533575506339, 376.2043846969366 685.2947627395457 M374.7005606158647 734.9912962301863 C373.9483046927299 722.0899616223663, 374.79559288383393 710.7306070296727, 374.7210317508861 685.0764834099552" stroke="rgb(0, 0, 0)" stroke-width="1" fill="none"/></g><text text-anchor="middle" font-family="Consolas, Courier" font-size="20" fill="rgb(150, 100, 28)" x="404" y="715">id32</text><text fill="rgb(150, 100, 28)" text-anchor="middle" font-family="Consolas, Courier" font-size="20" x="404" y="672.5">0</text><g><path d="M434.8983640363807 686.979304663472 C454.5357414853331 684.7158649184069, 479.32657535076805 683.5118130562445, 490.02958101571886 683.9099184459313 M432.96131580768923 684.232191912005 C452.2040158794531 685.2611424048531, 471.74716026483856 686.1367126400254, 490.57509488033804 685.1715624462013 M489.7291191199725 686.3363352546547 C492.61907111887604 697.9739183242342, 491.4954484055624 714.8081038999585, 490.0038939488575 735.5419488943054 M491.9237984319429 684.7578578171499 C490.5111896441309 695.7450714364944, 489.83140492738056 707.116926200662, 491.54274420387884 734.7790268471307 M490.22585900496153 734.7266577371702 C477.10371965233685 733.6639066594608, 464.47131825099916 734.5606335188968, 433.9539558169027 735.5093427924448 M490.5886693724326 734.6473958495035 C471.42137417327865 734.6586137015867, 450.51282614277443 735.0964240242421, 432.82316522546614 735.4150016567417 M433.3805045654922 734.5506618998312 C433.4893723080774 716.6864453732453, 434.29626207858075 695.661335541053, 434.57315892435645 685.1500750360912 M432.1738159409995 734.1349650894614 C432.42265558619704 717.5413396733659, 433.1456512804939 701.8369566170148, 432.1323329194021 684.6329661981822" stroke="rgb(0, 0, 0)" stroke-width="1" fill="none"/></g><text text-anchor="middle" font-family="Consolas, Courier" font-size="20" fill="rgb(150, 100, 28)" x="462" y="715">id10</text><text fill="rgb(150, 100, 28)" text-anchor="middle" font-family="Consolas, Courier" font-size="20" x="462" y="672.5">1</text><g><path d="M490.8534275190166 684.8880028164606 C509.548546754679 686.3314508088451, 528.3648715398107 684.1762871314947, 549.8177767656445 685.0046345586102 M490.0355329798468 685.3733491210519 C510.12039721798686 685.2199395093915, 526.6564469294291 685.9195332209483, 549.1848459642623 684.8200843965174 M548.8841413752261 685.5870487207559 C546.7730634775777 699.3427830268835, 549.5393571858529 715.048140382677, 549.3922299522624 734.0423053664042 M548.589893111688 684.4859076335856 C548.5190214735946 697.724150050556, 548.28401388788 709.7621769035368, 549.7580172941107 735.6676948366404 M550.136302656674 736.8134785496007 C525.7710368060873 732.5460360514841, 503.6857528579182 736.2385246097668, 492.7950661781548 734.404510153222 M549.9306496119443 735.3220128395556 C525.7961304623035 736.2919569595558, 503.12012128995815 734.6280417001947, 490.4310384967259 734.7026804613544 M489.81495441573196 736.3988272949066 C488.62038934719743 725.4474670287805, 489.9861499723516 714.6832384923912, 492.07295477444995 683.6434370005775 M490.7851631283368 735.591577523359 C490.77868444655786 724.8906190048427, 490.7370359942446 712.7522283783419, 490.75754392223644 684.597191183931" stroke="rgb(0, 0, 0)" stroke-width="1" fill="none"/></g><text text-anchor="middle" font-family="Consolas, Courier" font-size="20" fill="rgb(150, 100, 28)" x="520" y="715">id90</text><text fill="rgb(150, 100, 28)" text-anchor="middle" font-family="Consolas, Courier" font-size="20" x="520" y="672.5">2</text><g><path d="M550.8058681272498 686.6211056513864 C563.5127324462962 684.0518499212176, 582.0310526140813 683.0008718738021, 608.8481062472057 686.2021089322243 M548.0969866680401 684.9085363625331 C570.4381805848506 685.5964600581982, 590.3413140305254 684.7761240126046, 606.6562890552793 684.1325962041025 M605.2175580207694 685.6856910593192 C606.9457462583821 698.1224123927931, 607.2790713168156 712.3157869467162, 606.522046383075 736.7073044863072 M606.7629193851886 685.8854304531974 C607.0128458746245 697.3943029139127, 605.9682040813 710.2280779523164, 607.6736394479952 735.1214831187572 M605.6581361840772 734.2282043359435 C594.8107294671805 733.9078696571526, 577.9775826218547 733.222289635758, 548.7486234922816 736.8418462351377 M607.1074171217006 734.4277989543093 C588.3598572412874 734.6837775034173, 568.7911071120349 734.9819452278887, 549.4272608843752 734.9296627757045 M549.6018261035045 736.0009017529026 C548.6039044236157 721.937587949119, 550.871816973752 708.525005342023, 550.7906009125564 683.5821846555166 M549.2051966937795 735.1500224642231 C549.9271888497997 717.9046795234888, 548.4799464113621 702.0446834881416, 549.9075334735427 685.0853359179353" stroke="rgb(0, 0, 0)" stroke-width="1" fill="none"/></g><text text-anchor="middle" font-family="Consolas, Courier" font-size="20" fill="rgb(150, 100, 28)" x="578" y="715">id57</text><text fill="rgb(150, 100, 28)" text-anchor="middle" font-family="Consolas, Courier" font-size="20" x="578" y="672.5">3</text><text fill="rgb(150, 100, 28)" text-anchor="middle" font-family="Consolas, Courier" font-size="20" x="380" y="630">id84</text><text fill="rgb(27, 14, 139)" text-anchor="middle" font-family="Consolas, Courier" font-size="20" x="602" y="630">list</text><g><path d="M349.7158441538242 600.5271051567695 C368.3383304447233 600.0082357033316, 386.67234148569196 601.6473648179169, 408.11648717481756 600.1677076405571 M349.63651384431074 600.8954665739815 C370.55070195392614 600.644518437404, 388.91311896503885 599.2225542291098, 409.710473312093 600.6148456660289 M411.2765072233657 598.0983560755639 C411.47033619427657 614.7803527115605, 409.5421811855607 628.6895085593536, 409.1618465818054 648.1281435066292 M410.9954875395658 600.6370211581675 C410.7590743998325 613.8376176366011, 410.57493321109695 627.2309731235804, 409.1878799283058 650.5724825433957 M409.4415407691833 649.8928081372201 C394.0760427829422 650.8503330378554, 375.25252383443063 650.1151929505478, 351.2130186657036 650.5059748020017 M409.5389511744742 649.2507447480772 C389.6592008373044 651.0091555358526, 367.5881791714072 649.8903309635903, 350.19171942785107 650.0178649793789 M350.4171118708609 650.825916066162 C349.71645415165966 631.7471976941303, 347.9006600363883 608.6058223272516, 348.07171917217306 598.8474231851488 M350.2093058932917 650.9908274005336 C350.98275192563364 633.0675079191105, 350.5093163402257 615.9795422982842, 350.8370830076836 600.3221055599621" stroke="#000" stroke-width="1" fill="none"/></g><g><path d="M571.8915570720693 600.9650135960096 C591.4691044621424 599.0296305450629, 608.8031381225776 599.3552838487645, 630.5529497909378 598.819648469075 M571.5239582335385 600.4663049719168 C593.6531577730233 599.5155014558519, 616.0332012255508 599.6141787862178, 632.3934373938401 599.5562007039267 M632.6310799494187 601.2539169590358 C631.7790213459899 613.8639651237798, 632.1914788587097 630.274267342966, 633.5571628274103 649.12457360283 M631.5891348848746 599.0619037789717 C632.6917276985961 616.1619360372788, 631.0941199652856 631.8909069970586, 631.3503951913201 649.199337228165 M632.1405641676293 651.7431490180431 C610.1778620145355 649.022948112727, 593.2237952064138 650.7361895174644, 573.0010437685285 648.2892761788507 M632.0195560630955 650.7613738652688 C618.5913205201722 648.4908039348794, 604.1205385527262 649.6718312354163, 572.2180894111517 649.9194780502892 M571.1301500610579 649.5330946295313 C571.6683625097686 640.2967727131103, 571.3729378952344 627.6551390608518, 572.0909260231729 600.8303433847271 M572.1074394446946 649.2372470634248 C571.9326986237494 639.5469026674261, 571.2073376171627 630.6228907008161, 572.0327935447341 600.2797722668189" stroke="#000" stroke-width="1" fill="none"/></g><g><path d="M750.67367715241 8.739276850924218 C792.4592299207629 9.510394953305426, 833.9398766274213 7.218189841783413, 948.2122886116272 8.715368915760937 M749.4986444021558 10.128006294195346 C795.9202579236236 11.159199751079537, 842.8911849430466 9.874427875885221, 950.4737939595951 9.493358611198227 M951.5540091340264 11.242016727861063 C950.7249568892042 34.233478911011275, 947.5852058798602 61.993046705974315, 951.4755676405193 138.4467819802906 M950.439738459512 10.32634222163198 C947.932937213335 39.875579028785694, 947.9116712071769 68.61677591318974, 950.5333924634807 140.86636132919608 M950.0770464696619 140.62287042968165 C892.1239958308289 138.76203610454937, 837.5916844252836 139.74030209445687, 750.2584334407178 139.55062244887137 M949.3716946096156 140.28379398974135 C901.0386590929897 139.353732204039, 853.001915457839 139.50776949376566, 749.7774091722998 140.61323293718397 M748.9489184260607 140.388651923022 C748.9992044160401 91.47465795315723, 750.6340943000529 44.037610858749105, 751.0973715441106 8.716524352473588 M750.2821826582444 139.67569912062197 C750.2654173400875 102.5608755239924, 751.080991773902 66.33693323434606, 750.6670807286096 10.939604959539441" stroke="#000" stroke-width="1" fill="none"/></g><g><path d="M743.16253987928 4.3588892220355815 C797.6317578494483 4.188278791462595, 852.3952458727083 4.971878181082271, 955.1603625700324 5.56330602161307 M743.624487489585 4.013040419397035 C802.7661576964906 5.536280064230591, 862.5416438431499 6.16800958644484, 955.6432215184362 3.390444584193499 M954.3487698258645 3.4783066779485754 C958.0058884675216 35.140268270281645, 956.2908611202507 64.82552419594874, 957.6372019277662 144.98284391030705 M955.8997115791648 4.712848336637022 C955.5996373481321 51.03047271072496, 956.9360707649357 98.420356480429, 955.8593152374555 146.62269503946442 M954.3561392912495 144.62102248881752 C902.0707852284102 144.57241010126347, 850.2841493850582 145.05570091808363, 744.7791523363878 146.21843449322338 M956.8503499666508 145.60757760647982 C879.9504041326098 148.1009230373124, 802.8524174789053 147.75049104131963, 743.9376492887014 146.45861473804752 M743.6050496211809 144.53082438002258 C744.8296422795669 110.21994191325473, 745.8872606310078 79.92850584578692, 744.81845359517 5.763541095773532 M744.6853680975058 146.82519479814118 C744.5629782630463 105.45899324774052, 744.3979303500995 62.46789551049008, 743.0217004074452 3.1632917367876483" stroke="rgb(0, 0, 0)" stroke-width="1" fill="none"/></g><text text-anchor="middle" font-family="Consolas, Courier" font-size="20" fill="rgb(27, 14, 139)" x="850" y="100">1969</text><text fill="rgb(150, 100, 28)" text-anchor="middle" font-family="Consolas, Courier" font-size="20" x="780" y="40">id19</text><text fill="rgb(27, 14, 139)" text-anchor="middle" font-family="Consolas, Courier" font-size="20" x="920" y="40">int</text><g><path d="M751.4960229883691 11.070470495229632 C771.3643196743318 11.654606224305523, 792.416081830521 8.855609095646486, 809.1821745642809 8.578143256847053 M749.8624680488423 10.193084911231571 C763.8067102297903 10.893950374278283, 776.8841788778634 11.10711716319736, 810.070555390965 9.446448661295504 M809.0254890590171 11.213188290146277 C811.4567388834253 25.317770405827183, 810.7667083201897 45.21122982166332, 808.4634315559017 60.57210464134558 M809.4906212395287 9.174364756837416 C809.9507415879897 20.208948983421568, 810.9022621731257 31.661130546955796, 810.1621664904904 59.359739146536924 M810.4522162561724 58.48638385149161 C788.3725168159417 60.13269401557329, 763.4284930363289 59.57204897070585, 750.7461951735892 58.12762202572439 M810.6966578286962 60.88516603014303 C790.0033062169948 59.41208836424222, 770.5694033126475 60.220943958984314, 749.5699022114245 59.98672293769015 M748.3520304897567 60.60282445099986 C749.6379123149256 44.07122072221872, 749.4962703164166 29.888498757907023, 748.4769783213314 8.411077151037823 M749.9973292720285 60.94290037714271 C750.8019772014085 49.4192981799963, 750.2090590143804 39.38732306750125, 750.4581831410216 10.204551787900785" stroke="#000" stroke-width="1" fill="none"/></g><g><path d="M890.9051074478613 9.617643901322376 C906.2361127698576 10.013969391812426, 923.1653791997293 10.690540553683185, 948.453854358144 9.211252930768595 M889.9056296849702 9.172644214910303 C906.0607171118221 9.760522513527885, 919.4956614413907 10.648168166418419, 949.7390880314745 9.324029878016262 M949.5305843593156 8.709210724001498 C949.6407382522367 27.805144403864226, 951.820553380904 46.93269643829666, 951.0974847893885 60.80931718662045 M949.3210354749726 9.281325855727708 C950.0689463028839 26.195373949122793, 950.1201295087725 41.629026961889046, 950.7110250969226 60.158550118033446 M949.6023509537088 61.0981368838947 C930.920567032489 59.843264730920744, 916.719133391828 59.56394102434151, 888.3885014215182 58.57944407556691 M950.7988449855524 59.82291589807138 C929.8138733463734 59.933057525050074, 910.5118607679245 59.71381772894667, 890.3504708372185 59.01615443947156 M888.8637746434683 59.69487200763963 C890.8752862532328 47.07769892814484, 889.7149333376607 37.59604650099263, 889.4770985646857 11.93200553729247 M889.7812869849373 59.028084676221276 C890.9637914745956 48.62077948101191, 890.0101279794666 36.58411262218553, 890.4797203751262 10.829238289160104" stroke="#000" stroke-width="1" fill="none"/></g><g><path d="M749.4766743982301 248.54842930061935 C809.4604602796326 249.52799468332248, 866.5952991123468 249.60594834241542, 949.190410150876 248.8218895540143 M750.7077522772723 250.53166282409606 C800.5325807804472 248.99382088874367, 849.5358156016453 249.2716717491442, 949.2980224015294 250.13050462012785 M951.6818836333792 248.27860904705753 C948.63744703779 300.1796743644404, 949.1159061425437 350.75187603250896, 949.3411365156518 381.44636003946437 M950.9554768855655 250.32886500728077 C951.5906031393217 293.91609666554706, 951.367687098073 337.1325373074714, 949.1951998952296 380.62219714141776 M951.3126928703067 380.288312201963 C883.3297906923198 382.06343336735534, 816.3431740343701 379.2492657812522, 750.5299379524878 379.8879812411199 M949.8821086303924 380.5053229470807 C897.8106017548342 378.9923372264269, 844.8497783427696 379.16609382994346, 750.3825236010948 379.1948737495371 M749.6023586574612 378.09321557528585 C748.8531917711348 343.22237458343443, 748.5533987077812 303.1784284319713, 751.8336197564031 249.9184146493514 M749.3732372266204 379.89192148886013 C749.8115597094035 334.24566672536747, 749.0557134582987 290.36139191802243, 749.3658111542505 250.8517729582037" stroke="#000" stroke-width="1" fill="none"/></g><g><path d="M745.6195045843451 242.874059625178 C796.4657323972905 243.74553358479244, 847.449615440853 244.63797825223662, 957.576883369597 244.7454218811441 M744.301958274927 244.00682631532212 C806.0531171439396 243.4872738124021, 867.3096886990897 242.39696192160775, 956.7371460426527 244.60825381608942 M954.0933519377452 242.63865569552624 C955.7081807405706 296.3861583567145, 954.6295387327939 353.4564644354886, 955.8854154664766 386.8169131858006 M956.3974021302774 244.498746987986 C956.9566600698572 296.6553963365093, 957.1732859587087 348.98484021762386, 955.4479819838621 386.2266432813647 M955.6882219466853 387.2760857824003 C903.1965156598745 387.63796130319537, 849.0882537053042 387.5952927204451, 742.3377347148357 387.0586421636404 M955.4569709620663 386.2543281683598 C878.4900684621314 386.03341192868584, 800.6577372923198 385.3879074282359, 744.8428958876989 386.4984380803466 M744.1280963864614 385.51370749103995 C744.2216946883981 332.0422307570936, 745.3188983875623 272.65085730056757, 743.141491366625 244.9243993593685 M744.0160104150102 386.42075920409667 C744.8408357905063 345.99394712724217, 744.8398938808865 308.014328638482, 743.8829405992982 244.11646230375524" stroke="rgb(0, 0, 0)" stroke-width="1" fill="none"/></g><text text-anchor="middle" font-family="Consolas, Courier" font-size="20" fill="rgb(27, 14, 139)" x="850" y="340">True</text><text fill="rgb(150, 100, 28)" text-anchor="middle" font-family="Consolas, Courier" font-size="20" x="780" y="280">id32</text><text fill="rgb(27, 14, 139)" text-anchor="middle" font-family="Consolas, Courier" font-size="20" x="920" y="280">bool</text><g><path d="M750.8033768172833 248.77562638449805 C771.2405712219883 250.3272895353352, 794.5364124474286 248.11068686432517, 810.8109260342235 250.2619877073791 M749.9835557008768 250.24063644680206 C766.8013242715355 249.8322962592294, 785.1069180698103 249.70068520353078, 810.9989672708575 250.3126351909885 M809.4995825209104 249.53631775394282 C809.1825662576996 266.88325048447797, 809.0935313377842 285.8302725736083, 811.1928903580231 298.6675789229856 M809.7871731914698 249.34256819983818 C810.4245634871126 262.61828258804064, 809.9644517773376 276.3719080020774, 809.6830657965072 300.83116318873056 M811.8995241950555 300.72905674182897 C789.3321445080131 299.08659176039407, 766.4919471488174 299.19262268431396, 751.6901464347031 298.7768748135844 M810.2305062216474 300.24207036088285 C795.8659854034262 300.51623315632054, 781.5869690299603 300.0362831258427, 749.1758873243753 299.9426984852989 M749.9868990733431 298.5833485141394 C750.8727724290693 278.42340324588497, 748.6646912125184 261.6103744639114, 748.506949837042 251.01974646102593 M750.3376250313217 300.36223410151376 C749.7529355441001 280.085950269149, 749.1500555755802 260.6406618957415, 750.8210608674077 249.26571744965986" stroke="#000" stroke-width="1" fill="none"/></g><g><path d="M891.2757515240429 250.67788822335172 C909.6059749631398 251.01915478581319, 927.8186047625015 248.96599713473802, 950.6635720218588 251.53656295320346 M890.0805412929026 249.40828240984965 C901.7303000168839 250.3193164478498, 915.3733663946737 251.32375717227322, 949.0025154119862 250.60922007362336 M948.5043931208578 251.67419827374857 C949.9239586584355 265.20947728418133, 950.0795454579574 281.55629179243016, 951.2653849953837 298.2045603894819 M950.8567693497862 249.9772912383386 C949.841611122987 263.77032397838985, 949.5012956991501 277.31600634878214, 949.3635467004108 300.56580796838995 M951.5044996779595 301.47211492884554 C931.7419610550787 300.9712673921059, 912.3796941929243 300.03301813731906, 888.6245037874085 301.0967029272243 M950.2465682749698 300.07345625796717 C935.1105256942957 300.59380392672733, 920.5304931074162 300.9143342995712, 889.4981810987031 300.33931427566864 M890.8101003682634 298.99957901326155 C888.1675255007442 283.9079608567066, 888.855912715458 272.58414758618494, 889.798030204296 251.44054044863566 M889.309814598791 300.56723679101935 C889.8585674641403 279.4618105545816, 889.3995531403309 259.73725418805003, 890.2237998856535 250.9994879633164" stroke="#000" stroke-width="1" fill="none"/></g><g><path d="M749.7097216387033 500.1193375514895 C811.3934126864198 499.3774975527492, 872.0281759191777 501.0330202079749, 948.4591336669122 501.00267700435336 M750.5884901310174 499.4324601921826 C820.111985594863 500.0796983178082, 891.2007940195897 499.79089007332186, 949.8851911906344 500.1337996065704 M949.5909053475538 499.66693636597364 C949.895855520993 544.9907658135281, 950.399906073478 589.3875334163926, 948.8909386167728 628.0664738777043 M950.6468562797442 499.7734388801439 C950.001647175089 543.6469135652311, 948.9563978449106 585.4605516944482, 950.9435039165145 629.944752222263 M951.1017306047395 630.3275138579172 C876.8304406594542 630.929933667175, 803.3012740104675 631.9224005401488, 748.8674773311045 630.2065486566878 M950.0191458371909 629.3014738063368 C895.2593447335867 629.8213307308606, 839.4491714177527 630.0229171247817, 750.6603457794549 629.6231722251334 M750.3887147963517 628.0302807179751 C748.7225065839558 589.2916782455492, 750.9699521875863 551.5817627861392, 750.8257567681726 498.11586042295716 M749.4442147709383 629.0573832631769 C751.1819233600652 595.4547847701334, 750.3996915832411 561.1742980558578, 749.8433138959024 499.15636632899805" stroke="#000" stroke-width="1" fill="none"/></g><g><path d="M744.5482385852174 493.3055557824517 C788.6294501813151 494.194389100524, 835.7319654474322 493.37118219408956, 956.8935420626038 495.07898304371116 M744.5578799632909 493.29431939633594 C826.9362485141289 491.98055423452234, 909.3497507576789 492.07627166129294, 955.7533838006731 493.87140999130554 M956.0163730276932 494.2928896955986 C954.824073589182 532.6486885902739, 955.4906575492112 572.063032194485, 957.842519541026 634.3345552582721 M955.7166309167626 493.09799805693774 C955.7187457226506 522.2984144940032, 955.4493193912098 552.0249290439351, 955.5144778025817 635.2260920678252 M956.4995451135412 635.4647668138547 C873.1860573592887 638.5357506192071, 791.3885528040333 636.3106274359516, 742.9354235826399 635.8501050351532 M955.9783689710874 636.7724718318477 C885.8329211259295 636.1045986092081, 815.2881746931752 635.0999515559718, 744.0836747418765 635.169398749553 M745.0671592933895 634.217567026948 C744.8939452813408 607.2934880022215, 744.7008464311274 575.8810808857189, 743.9386221384123 494.0930655334727 M744.7547645102445 635.1688117187667 C744.045209679072 591.6709836483627, 743.514297204145 547.7948440275476, 744.5355111106091 494.8737205617453" stroke="rgb(0, 0, 0)" stroke-width="1" fill="none"/></g><text text-anchor="middle" font-family="Consolas, Courier" font-size="20" fill="rgb(27, 14, 139)" x="850" y="590">"David is cool"</text><text fill="rgb(150, 100, 28)" text-anchor="middle" font-family="Consolas, Courier" font-size="20" x="780" y="530">id43</text><text fill="rgb(27, 14, 139)" text-anchor="middle" font-family="Consolas, Courier" font-size="20" x="920" y="530">str</text><g><path d="M749.0228199053495 498.15733000209383 C774.5410940178897 500.06646410870684, 797.0573384785022 500.5198119216143, 808.1575312458494 500.94084792359763 M750.120770393931 499.2147500750312 C765.3211207463526 500.44848482900545, 780.6328855308406 500.5907906732941, 810.3559142210873 500.7919987695812 M810.657778188334 501.01904610799846 C808.4654083675267 509.65236393087145, 810.3785830879315 523.6192222065688, 811.8930696035659 551.1174439867311 M809.4234411585721 499.1912756141905 C811.1356637162136 519.8250676379232, 809.6046289252698 540.4106689045111, 810.5515637643847 549.1903844005733 M811.8052601833028 549.0213931731142 C791.7151222988966 551.3526528141336, 771.0088226104831 550.0541604154909, 751.6215910992353 550.1245583401785 M810.9443889426707 549.7348254208376 C791.5083921209873 549.1764578214, 775.0789927257506 550.6517252851684, 750.9557172143996 549.027403890434 M751.2327244770808 551.7550870304592 C751.8722365165908 538.8545828675817, 750.8385757546431 528.5826331127963, 751.7331763254982 498.528611517573 M749.5847610299165 549.6407844217981 C749.1991940438015 538.5131654843475, 749.9125297515309 527.6641226058355, 750.9308645592672 500.8948305843041" stroke="#000" stroke-width="1" fill="none"/></g><g><path d="M888.2304477112563 498.3087869972844 C906.6153805780764 500.9264400418265, 927.5366846278744 499.7454715854112, 948.8072822965826 501.0243485385408 M890.2659418997081 500.6029375386298 C910.4986147280496 499.70989832109825, 931.4602752510588 501.03629617242217, 949.614978355605 500.6431415747514 M951.1254105316942 500.501313095096 C948.6644019961332 520.700408426741, 951.0467843903982 538.0280964231787, 948.3189878425634 548.2761675467435 M949.477120740855 500.0895391082895 C950.8337411044864 519.0246364477061, 950.8682973111314 538.83574105916, 949.2303541987766 550.70069755883 M949.0105046397074 551.7761810394749 C936.3321703930777 551.5946854868192, 918.7988787585981 548.5067737442768, 888.8985435242437 549.0256344092804 M950.7470647837987 549.325665534591 C930.9245093100246 551.0148239278502, 910.0114246760681 550.981921937661, 889.0736343106136 550.8880772929612 M890.4708116303378 551.2617125902988 C890.4436051506555 531.2492615556466, 890.1381025539147 511.58291536141667, 888.4174466084022 498.72120411767145 M889.5663277698776 549.4409225422439 C889.6090536708434 537.1745442997726, 889.1912977705439 522.535266994554, 889.2308531108404 500.520322050216" stroke="#000" stroke-width="1" fill="none"/></g><g><path d="M1048.3716093952569 38.84858641348662 C1122.8554725895713 40.03168427470198, 1197.3587207887383 39.15625353813734, 1251.148222075037 38.696840136593046 M1049.114260240775 40.79019951857105 C1097.6547511522933 38.306712287328615, 1145.7729261451161 38.85264148645773, 1250.6085593549294 40.23722222416425 M1250.2235648502506 40.23716550996605 C1252.2765110768312 69.75617133091772, 1249.959502609344 102.00842810122522, 1250.765992620645 171.7061519785854 M1249.5195529366415 39.41451988311704 C1251.3219739605272 83.93790193180372, 1250.9269751359402 128.22601519874087, 1250.0017964282326 169.4772158211076 M1250.1885971423003 171.13974066022882 C1180.4846235506209 169.2540291797673, 1113.226651039983 169.5482497055406, 1050.0904083711073 170.72359575212246 M1249.4078475126587 170.66738623889222 C1208.5796247335697 171.0530861464128, 1167.555502939158 171.00413525529163, 1049.4700214960496 170.3477398389646 M1051.3792622804833 168.32379119234187 C1049.915963376286 141.69364437338302, 1046.9963479163234 112.1870666574876, 1049.7312444609893 39.48115757586375 M1050.6602683671872 169.65525164208557 C1049.3696265233752 118.28077619550788, 1050.9328842268687 66.32997609384074, 1049.656266671334 40.38327899805385" stroke="#000" stroke-width="1" fill="none"/></g><g><path d="M1043.6791057858954 34.37193063100027 C1098.4871830357274 35.97064251642536, 1148.725548783528 35.96156645998505, 1255.6227221521622 32.31685222189211 M1044.2500968945124 33.77979020809996 C1116.8300706779712 33.27260441046296, 1190.2950593718228 31.975691382696773, 1256.8354905414799 33.379949718948374 M1256.9443420088628 32.11012701229292 C1258.3544108970327 81.29646620868365, 1255.7623562954886 128.02281298078825, 1255.7475218877348 177.4219558484703 M1256.545352566765 34.87134803493374 C1254.021703623229 89.10090244953773, 1254.6265843285723 142.702188896405, 1255.879522194195 175.1821053152857 M1255.1207706593657 176.0219756329956 C1209.6049099672175 177.91798231856012, 1158.7526181529133 177.9999055150137, 1043.0815163243149 176.68123410096507 M1255.824651124627 175.17106008625044 C1187.0337196695032 174.28039662219396, 1119.498955713026 174.78979135645022, 1044.5788450164198 176.5527522786007 M1042.92321893709 175.9546348558766 C1044.654807583091 122.42139841823892, 1042.934225158384 73.08580704919414, 1044.312021410755 33.225419148784624 M1043.0405660760202 176.42055687022122 C1042.8536217675164 144.53031080972514, 1043.4960687221242 114.91598064780239, 1043.8708716494434 34.01563038891584" stroke="rgb(0, 0, 0)" stroke-width="1" fill="none"/></g><g><path d="M1075.8024910830363 104.87496869889574 C1095.4444315938617 105.70689164517245, 1114.7602104482785 106.81617645740886, 1132.0812877613623 106.60461967813333 M1075.50962258621 104.39508202866385 C1092.7329915459259 104.5581447037072, 1108.9520988717359 104.85295782579027, 1132.9369253738168 104.9640499503578 M1134.7966543857817 105.64618706445059 C1132.8041118258275 122.35719112289466, 1134.7667835252776 141.06231122001066, 1132.8873893682858 156.0108701353553 M1133.6849014756224 104.39590033476892 C1133.357641828133 123.82229685692018, 1133.318503123621 142.88222854581483, 1133.7930442612296 155.2021977184786 M1132.9880825151797 154.95574547866414 C1117.653172698878 154.553830311652, 1100.2258474209934 156.37867472122056, 1076.9853207457538 154.38707984721904 M1132.7361044946829 154.73854132372497 C1113.5526665259608 154.98838114102205, 1092.7848163172268 155.94574313870865, 1075.8553523245416 154.00931362402977 M1073.5476706902389 156.34956144826316 C1074.069925871456 138.87109050683017, 1075.690926249652 123.45594007607528, 1075.6069695771698 105.4957000693 M1075.644125015243 154.79915825675403 C1075.1860091732199 139.62158443470622, 1073.704852980064 123.11147593421434, 1074.328472992922 104.72801727429601" stroke="rgb(0, 0, 0)" stroke-width="1" fill="none"/></g><text text-anchor="middle" font-family="Consolas, Courier" font-size="20" fill="rgb(150, 100, 28)" x="1104" y="135">id82</text><g><path d="M1133.0172524153174 106.03693525371823 C1155.1973928202788 103.4529276450555, 1175.0578883411588 104.4475002528869, 1190.3575518277235 106.2207636735063 M1133.794672647279 104.07496126726156 C1155.5875963148653 103.84305237427745, 1178.2123894847052 104.97509322288971, 1191.781583314211 104.32353718856709 M1189.464305337633 105.51818796827189 C1190.7161410574777 115.27262887609751, 1191.905367051668 128.2846518387376, 1192.421535739035 153.00140338950948 M1191.9904924871555 105.31997408472319 C1191.2108874367214 123.69922139362086, 1191.5192187368489 143.22050331693384, 1190.8767880201933 155.1791977051417 M1189.2647053169728 153.34041523027904 C1172.2025301326212 155.26724721145578, 1150.1466934782459 154.77389266558214, 1131.7231237771352 154.7302313799701 M1190.1800954391808 155.82320551870117 C1177.2786807190696 156.03506590662144, 1162.6546438651844 155.48989198567193, 1133.5461758980462 155.0415164991102 M1132.1160246093602 155.51507928325606 C1132.0830088312655 143.42987058120164, 1134.9716046897695 130.86102270675937, 1131.1732003576092 106.2803980309587 M1133.907044906956 154.7954793914164 C1132.8936616192843 140.20727712345266, 1134.2350330267172 123.67694252252801, 1133.372654162234 104.69032344902789" stroke="rgb(0, 0, 0)" stroke-width="1" fill="none"/></g><text text-anchor="middle" font-family="Consolas, Courier" font-size="20" fill="rgb(150, 100, 28)" x="1162" y="135">id76</text><text fill="rgb(150, 100, 28)" text-anchor="middle" font-family="Consolas, Courier" font-size="20" x="1080" y="70">id11</text><text fill="rgb(27, 14, 139)" text-anchor="middle" font-family="Consolas, Courier" font-size="20" x="1215" y="70">tuple</text><g><path d="M1049.3564502824952 39.5889795637844 C1066.1329672872864 40.37223645428587, 1083.976828549033 38.64627760807523, 1108.0811776612825 40.25490219464565 M1049.0854903943523 39.40338007461418 C1072.1982910650472 40.11746641197005, 1095.6095641530492 40.38141185271153, 1110.9824205449288 40.88246505695835 M1108.5089220623634 38.30681616824977 C1109.5956904852876 51.941099966107316, 1110.011779652682 62.57639143807434, 1108.0725675228516 90.82721948153034 M1110.9418388592178 39.63608998579773 C1109.9964195262571 54.141628115001176, 1111.125929304104 66.61224066724687, 1109.1526640910188 90.3299722479306 M1111.943967115182 89.46590539546392 C1093.73436878599 92.02600882449764, 1082.1413670075367 90.77290602700204, 1051.871495528832 90.4415917139444 M1109.9213431328753 90.62209866634008 C1086.909929159645 90.60665291036449, 1063.129297752387 89.93452197943351, 1049.9910991373708 90.93493991053506 M1049.8083632773673 90.29166454021265 C1050.3809864816633 78.30459041543456, 1049.1538538078607 67.64896507087526, 1050.930146507684 40.52899806404818 M1050.6367611285557 90.75645061618478 C1049.1619150637364 76.11095738675809, 1050.134688184285 61.267652179268424, 1050.316184889697 40.57626696039368" stroke="#000" stroke-width="1" fill="none"/></g><g><path d="M1178.2652117888908 38.45973908042962 C1201.6327367637502 40.6400287112816, 1222.7265524446134 41.57554820720556, 1250.8361062327679 38.166678561309666 M1180.6476452452014 39.91336629115574 C1204.2624634128367 40.77412356122563, 1228.7732416594908 39.361471314649286, 1250.9292556668934 39.35463592303363 M1251.2358316356622 38.25552693592843 C1247.5681377655924 55.168109583257916, 1250.401844922913 72.96626113121343, 1249.279226518692 91.40226607988531 M1250.2211230993637 39.36327361032303 C1249.0128812662322 50.8154925795262, 1249.0444479926025 61.486172613882175, 1249.918027877927 89.6001318288098 M1249.5050032461963 90.83882381367935 C1226.5041595619855 90.33440792515113, 1201.8422236729036 91.54184447641661, 1178.1565269690125 90.24822629903167 M1249.1195577134092 89.77657367209552 C1231.2806698522936 89.84944195576817, 1214.8001258791905 88.89110433163361, 1180.885607964676 90.9273087994493 M1180.2330533986215 88.13751507617981 C1178.5708351564397 74.94219840940794, 1181.356166300599 57.361676872400565, 1181.3394700279189 41.7161026074433 M1179.4714937482713 90.04888498393797 C1178.6405566479937 70.88064772982473, 1179.16787496103 53.313064055590154, 1180.7717007102524 39.98183473245551" stroke="#000" stroke-width="1" fill="none"/></g><g><path d="M1050.2582927659892 261.31044194258664 C1126.5187720683352 259.33036836476975, 1203.9595822607735 260.01597475982635, 1300.6171250298419 259.1936883743681 M1050.5175437834105 260.394326238425 C1113.227006697339 260.4467518280673, 1176.2532753751354 259.44173899953057, 1298.4660249674862 259.2149174619925 M1300.8031103951269 260.2824696927043 C1300.0795142194177 312.93131765182807, 1300.254440911922 363.6455758505731, 1300.1828173536578 391.70683561816276 M1299.0780508748483 260.1228379877628 C1299.4393020855898 286.8329997794407, 1297.738016693373 314.6009411475106, 1298.066408930222 389.5169814484536 M1299.9109264456486 390.4858901614591 C1230.927936378884 392.5301676550422, 1166.3709732307452 390.6072934506782, 1050.1053313171672 391.4492606532702 M1299.3054089256618 390.3312637165402 C1218.842619760709 390.806226512606, 1139.3952226512101 392.3437702640854, 1049.883102100654 390.0190195539085 M1049.1939282922403 388.47828623859533 C1048.405116091248 358.4597179616454, 1048.9991327582015 326.01205375615433, 1048.0343241496387 260.0345311091501 M1049.767026933478 390.9451683796579 C1048.0740842897717 352.819026131646, 1049.485323464653 316.59681185093507, 1049.4112191498873 260.7053568843835" stroke="#000" stroke-width="1" fill="none"/></g><g><path d="M1073.7289368188449 323.15396090693713 C1089.8321037779858 323.99691721347267, 1103.8506004544006 324.9170148978803, 1133.5103932346121 323.04730404953534 M1074.0472593979478 324.75636230974766 C1087.847640650111 324.6174283396785, 1101.4052106977904 325.94398086598756, 1132.9151538861179 325.35598096334894 M1132.658005163645 326.4509411315526 C1131.8001065525154 343.4846994618378, 1133.5840086956212 364.42072617769634, 1133.0650436308883 373.7069949843647 M1133.4096254605486 324.0143534135045 C1132.7513100790952 338.4829809730617, 1132.9422849188177 350.1344130735809, 1133.8059692546958 374.05251139352674 M1131.888811983361 373.79857274584043 C1119.3911162056968 376.3744584682313, 1106.1349470873715 374.3010209932058, 1076.0349965515115 374.7747530513571 M1132.1420422279032 374.73133101696516 C1117.7317534035199 375.30659236992096, 1102.3254009313416 374.6929827765811, 1074.5773614506957 374.06953106185125 M1073.6190866084776 375.07574709919436 C1077.0526467689574 362.71340044666755, 1075.4054129596516 355.021532212629, 1074.0935971880833 323.7907818771675 M1075.4051836996289 375.90749912817074 C1076.0097142679483 361.1461117022692, 1075.645110660426 348.81599274787044, 1074.0379118330377 325.1038999472738" stroke="rgb(0, 0, 0)" stroke-width="1" fill="none"/></g><text text-anchor="middle" font-family="Consolas, Courier" font-size="20" fill="rgb(150, 100, 28)" x="1104" y="355">id36</text><g><path d="M1145.619765197419 323.8862705743889 C1160.1798672263965 326.7436819536137, 1178.9978068812816 323.40378776922597, 1202.0858882760606 324.83793423447855 M1145.5698458458583 325.8732802402733 C1163.9595651017871 325.2072447040209, 1180.1988676698911 324.28153122878393, 1204.0130650064423 325.08564339639713 M1204.3665305781237 324.8514434648023 C1203.155712234627 342.67423069849815, 1202.7599720452386 360.36151363037754, 1201.8926120107105 376.1143969341274 M1203.179717130021 325.46211475533005 C1202.94011364552 340.38977871379336, 1202.960348589602 356.49319370427355, 1203.4193686240712 375.6273693900758 M1203.523880504508 376.35644761284766 C1188.8613484519756 375.1020063676095, 1174.0833163547406 375.65964334728596, 1144.8711698195818 373.0623774466781 M1202.8977848853551 374.2481349801623 C1183.0220167000607 374.44256201246964, 1162.3220508038517 375.2388718016272, 1145.130800672146 374.2270497775922 M1147.118076151695 374.1750847326839 C1144.7525169898022 361.8845909457838, 1144.630614454674 345.24083687861656, 1146.1667555377076 325.0703780064109 M1146.0765464579067 374.00395086430296 C1145.2768847864168 359.66787725321603, 1144.9734652354723 342.0929784566809, 1144.7712731398485 324.8613511232716" stroke="rgb(0, 0, 0)" stroke-width="1" fill="none"/></g><text text-anchor="middle" font-family="Consolas, Courier" font-size="20" fill="rgb(150, 100, 28)" x="1174.5" y="355">id49</text><text fill="rgb(0, 0, 0)" text-anchor="middle" font-family="Consolas, Courier" font-size="20" x="1139.25" y="355">,</text><g><path d="M1214.1414854401341 325.65388979462114 C1227.7318403422628 324.5056870314473, 1241.020754062108 325.1923939958644, 1274.19691644671 325.92267971640996 M1216.6118080615051 324.47657128959986 C1228.024686862013 324.7295997590896, 1241.3780899590247 326.2236717339784, 1274.609751861328 324.7348531460157 M1272.903017398829 325.56135054362 C1272.1837290896694 344.70609693848894, 1274.3331597187678 360.18883884394745, 1275.2792755596458 374.3650138609333 M1273.0255805317654 325.7937756719348 C1274.5791058129623 336.6509117191059, 1273.0828229385982 350.6168861875649, 1274.9530587431898 374.2747743196555 M1273.863625726754 376.8258924036552 C1257.7147264968978 375.4283572984266, 1239.1406633238134 375.2734377074494, 1215.5615579454168 376.77700378706527 M1274.1153505993725 374.5392164903026 C1253.0007805870953 374.33547285102384, 1231.4600128515644 373.73940567427695, 1216.27981596939 374.7439634618933 M1216.6285007844222 376.3715419405495 C1217.2043938000654 356.42098696869306, 1217.6433511300625 336.1821382521581, 1214.8124882246586 324.13565965066664 M1216.2477236138898 374.1674495147001 C1217.1755280792086 357.5838991603841, 1217.2060288224523 338.25407695903135, 1215.9205581508786 325.967430263931" stroke="rgb(0, 0, 0)" stroke-width="1" fill="none"/></g><text text-anchor="middle" font-family="Consolas, Courier" font-size="20" fill="rgb(150, 100, 28)" x="1245" y="355">id64</text><text fill="rgb(0, 0, 0)" text-anchor="middle" font-family="Consolas, Courier" font-size="20" x="1209.75" y="355">,</text><text fill="rgb(150, 100, 28)" text-anchor="middle" font-family="Consolas, Courier" font-size="20" x="1080" y="290">id90</text><text fill="rgb(27, 14, 139)" text-anchor="middle" font-family="Consolas, Courier" font-size="20" x="1269" y="290">set</text><g><path d="M1049.1318090995683 261.5979529031028 C1066.4418351135619 259.74207232790945, 1078.0255054355562 260.1560544300132, 1109.7858352107005 260.28877517292324 M1049.8497536616392 259.1954478366838 C1071.046124632028 260.0615707955572, 1090.7002199067902 258.7058632733072, 1110.6046072468778 259.92995874709237 M1111.2645777306093 258.5392557429488 C1111.0053945650275 270.55624688184844, 1111.130681612144 281.85467135388535, 1109.0408619470086 308.425075112908 M1110.82596904386 260.8180738567042 C1110.2019253590606 270.743774536775, 1110.845629401174 281.3924992098981, 1110.9051350115003 310.62226877524154 M1110.492988988513 308.3252207876206 C1095.6300731828687 309.51210871543776, 1081.566818150817 308.740686925046, 1048.5418768550671 310.32387349821715 M1110.9863381524358 310.18082779565117 C1092.5172680297783 310.89588082824343, 1074.1148369655543 309.90056503468344, 1050.3005524913665 309.3896831647556 M1048.8812658301106 308.8902632874993 C1049.3412939308687 301.05062536494125, 1049.9111828705745 288.40336125807136, 1050.7714026310039 261.25678164646087 M1049.453442627592 310.8912274223232 C1050.6203159172428 297.1045180499161, 1049.215321045152 283.067598283384, 1049.4383257168647 259.9541938621834" stroke="#000" stroke-width="1" fill="none"/></g><g><path d="M1239.7591009376324 258.3772039885963 C1255.7138907922829 259.67226191866837, 1271.3072634551834 261.6966087248076, 1299.0793905489825 261.26224645655054 M1238.4494843114098 259.7793572038241 C1259.4600694249523 260.9042511551143, 1281.9613639501379 260.19468991403545, 1299.2506483415557 260.9251282588203 M1300.190870010215 261.3835270117307 C1298.6066914988505 278.23812487238973, 1299.8848959360919 294.6766935363642, 1297.615924859421 311.88922422418426 M1298.5807423575611 259.272671933609 C1298.3083296841783 277.0383880370864, 1298.8723611393816 295.2852215574572, 1299.8817905511323 309.95621043726527 M1297.1199493122222 310.78944438254683 C1283.2862641527745 308.6793539842466, 1262.334786073853 311.25127310890684, 1239.9436017777969 309.8884230026034 M1298.309148899126 309.5377876238205 C1276.4865541504535 309.8214494758427, 1254.525545207413 310.7004745761724, 1238.1007138144198 309.1296092605462 M1238.1389589839484 309.23612407077803 C1239.0976245032707 297.9739433303259, 1239.370545527249 284.0956008313413, 1240.7488112469864 261.46463314610645 M1238.0509204092193 310.55096372876443 C1238.9111507493865 297.3283318826846, 1239.371398251287 284.4158427610925, 1239.4825794451563 260.5453058869386" stroke="#000" stroke-width="1" fill="none"/></g><text fill="rgb(0, 0, 0)" text-anchor="middle" font-family="Consolas, Courier" font-size="20" x="1062.5" y="355">{</text><text fill="rgb(0, 0, 0)" text-anchor="middle" font-family="Consolas, Courier" font-size="20" x="1286.5" y="355">}</text><g><path d="M1075.6454617018937 576.7240251461924 C1092.7813472762148 575.7168818375037, 1111.88926363538 575.0746691657096, 1125.5177253263375 576.2975911992066 M1074.8899442281615 574.5507642692606 C1085.748018245932 574.0998076368974, 1098.1610242680836 575.2817414743241, 1124.7188487011526 574.4505490604611 M1125.6936462020567 575.7595262434578 C1126.6799076257535 592.3814645267468, 1124.5578490225084 608.0417871423884, 1124.6556782554946 623.6946404192652 M1124.8836154515961 574.8912161630141 C1124.3249718022491 590.0284897716685, 1124.7829073140767 603.2309464615219, 1125.0070551199692 624.5439099122004 M1124.235381127223 625.2844924512949 C1112.029394779268 626.2691008611456, 1100.3708570285228 625.9277426605913, 1075.092731354373 623.0291158148814 M1124.4452499875622 624.2675982664166 C1113.4689762871956 624.7880001551741, 1104.305405827159 625.4099005159657, 1075.3731714414125 625.4231382203618 M1073.1096812871572 624.9375254011766 C1077.045589007595 615.1502613013398, 1074.9545220971563 603.4037847336523, 1073.971608611304 576.1567760765568 M1075.0712821828092 625.700078595066 C1075.0072678202002 610.0298684997452, 1075.6067017417208 594.0405176494925, 1075.5286191114733 575.6260791476307" stroke="rgb(0, 0, 0)" stroke-width="1" fill="none"/></g><text text-anchor="middle" font-family="Consolas, Courier" font-size="20" fill="rgb(150, 100, 28)" x="1102" y="605">idx</text><g><path d="M1076.3466554477413 650.7022016341202 C1088.715275363256 647.7172001133463, 1101.587060820463 649.4885355721946, 1124.9721415985764 650.9423340538557 M1074.0572393873076 649.8445250182568 C1087.458127389054 649.172907778178, 1098.3515172356358 649.870738391747, 1124.6763519782523 650.2460354205361 M1126.2053431154766 650.3000011120937 C1127.1127896597382 668.3658031912258, 1123.9947809651273 687.1317065708001, 1123.2304781711257 699.2278140222578 M1125.0030806141654 650.5117564945084 C1125.6648599138402 668.4626015217422, 1125.359184543374 685.3161783429452, 1124.3192935185218 699.417618166092 M1125.0233486281786 699.9484135443167 C1113.4510348320107 702.0384969486881, 1102.8344279692535 700.3323615433221, 1074.633046134328 701.9626007559715 M1124.494316941153 699.2403600883372 C1107.047196574864 700.7734705170084, 1090.0845744414398 699.7637028314924, 1075.8608200802296 700.4794660190663 M1076.0336581105075 700.4845472712215 C1074.1317292808822 681.0952742828595, 1073.6490947859731 663.5516671055459, 1076.351941185513 649.3174792453443 M1075.9028542092708 699.8531632895605 C1075.2802248842759 685.910926110819, 1074.161229414764 671.604468626274, 1075.7761203403832 650.7649872956008" stroke="rgb(0, 0, 0)" stroke-width="1" fill="none"/></g><text text-anchor="middle" font-family="Consolas, Courier" font-size="20" fill="rgb(150, 100, 28)" x="1102" y="680">idy</text><g><path d="M1076.7330052095178 723.7014006172116 C1087.361915289681 724.7980217801688, 1099.8044838679232 724.006345651493, 1124.9067381508323 726.4113576980053 M1075.2073608266264 724.604615916484 C1087.9851352179473 726.2044582065943, 1101.521906060729 725.5976412328059, 1125.0970452204922 725.0001350812645 M1126.713153507449 725.3142344650735 C1125.062937499194 746.2438115907603, 1123.5443329699613 765.068623608827, 1124.1050796110353 774.1845501439917 M1125.0377298669011 725.8688898990791 C1124.7636047196308 743.5682750807666, 1124.6770475904882 763.29176465528, 1124.4346877383466 775.9722120565721 M1126.2652812353758 773.2814645001786 C1109.039705732594 774.2374192283066, 1095.3264544867648 774.557310055653, 1075.0094715235396 773.8602193765114 M1124.4623175320032 775.877684206268 C1106.714359835348 774.9101702084457, 1086.0214652863078 775.9410321425751, 1075.5358731890135 775.8146886366094 M1073.2690453632397 775.9689235734107 C1075.6218177824894 760.9840234172736, 1074.6619403557586 744.8899225174581, 1074.369901557412 725.5942874344549 M1075.6167050309625 774.6541857274219 C1075.6411682755684 758.4275359755303, 1075.6377388210522 742.3476671286784, 1074.971884451712 724.1791088995694" stroke="rgb(0, 0, 0)" stroke-width="1" fill="none"/></g><text text-anchor="middle" font-family="Consolas, Courier" font-size="20" fill="rgb(150, 100, 28)" x="1102" y="755">idz</text><text fill="rgb(0, 0, 0)" x="1156" y="605" text-anchor="middle" font-family="Consolas, Courier" font-size="20">:</text><g><path d="M1176.5908168818148 573.3757010105442 C1192.048370790587 574.9734722591633, 1208.793328839724 575.9082883780703, 1235.6732189113582 575.2208777184776 M1175.7555250639446 574.2482191141376 C1197.0388672605584 574.5405088776563, 1218.69457143118 574.9207889504868, 1236.9867101162079 575.7652044698478 M1237.8011126054446 576.0875251257748 C1236.5811390763631 588.2714643667533, 1234.953611155568 598.0941159147944, 1234.913541958508 626.8719048095395 M1235.3279316342755 574.8207695834623 C1235.761823587938 587.1389328204883, 1236.590531312241 598.1691091267005, 1236.059170634607 625.3951916084454 M1237.5722675479992 624.943173060888 C1218.1001778501036 624.2224653813761, 1201.7835480286374 624.0364614742197, 1174.624988433413 624.8238832754479 M1236.928366030905 625.683800506178 C1212.3013138013791 623.8599144269838, 1187.8873655364312 624.5589585556888, 1176.535558478031 624.6922249985446 M1177.860530197383 625.8681147884151 C1177.9097361131178 608.6579321569836, 1177.4089825162912 593.9071118208968, 1175.2900759025306 574.1170429585532 M1175.3940067608003 624.5959414356271 C1174.6508045998992 605.9152028601226, 1175.0507365466615 587.4617184785264, 1176.6754300874074 575.8050682085366" stroke="rgb(0, 0, 0)" stroke-width="1" fill="none"/></g><text text-anchor="middle" font-family="Consolas, Courier" font-size="20" fill="rgb(150, 100, 28)" x="1206" y="605">id81</text><text fill="rgb(0, 0, 0)" x="1156" y="680" text-anchor="middle" font-family="Consolas, Courier" font-size="20">:</text><g><path d="M1177.52689539596 648.2799718905198 C1200.367228027654 650.5492016980747, 1225.0949317556865 648.1523525932708, 1248.1053443105786 648.2537987607972 M1175.7696715130553 649.1671368849643 C1198.2349634164207 649.9960103966027, 1221.1296816392055 649.635699245434, 1248.3748448574065 649.3928825264449 M1247.089702177705 650.5159966938749 C1247.9918430340012 667.0505632071211, 1248.4507324440797 685.417269616657, 1247.2108331418365 701.7062464979316 M1248.8147283329497 649.9675646149815 C1248.1048357380441 666.9496007441896, 1246.856736248601 685.0576928637272, 1248.7845483596475 700.0257506257697 M1248.0403271392834 698.994858623734 C1229.88082773661 701.3046454835352, 1210.4187212384845 701.3871351368584, 1177.5804908865925 700.1442578840058 M1248.2974018757102 700.0953020265289 C1220.845043323839 700.9618719159968, 1194.2489975515464 700.9283419214569, 1176.769589880587 700.8107385488256 M1176.638103989429 698.8387787510457 C1175.6877177461147 685.045658137779, 1174.1109944509426 674.6808620540392, 1175.3667514635922 651.6327249620896 M1175.4321800484388 699.7109843380222 C1175.8736948526212 685.7091026961207, 1175.7417529360926 670.2405340365117, 1176.647624891506 650.9659819940949" stroke="rgb(0, 0, 0)" stroke-width="1" fill="none"/></g><text text-anchor="middle" font-family="Consolas, Courier" font-size="20" fill="rgb(150, 100, 28)" x="1212" y="680">id100</text><text fill="rgb(0, 0, 0)" x="1156" y="755" text-anchor="middle" font-family="Consolas, Courier" font-size="20">:</text><g><path d="M1177.7340594824157 723.7970436200325 C1203.8978299252296 724.2437982765183, 1233.8716070086768 726.5404930987438, 1246.7412158370817 723.716029074383 M1176.1402747715686 725.7989987124062 C1198.9826079359311 725.0322179322468, 1224.0895035243082 725.7512014734721, 1248.5441359451588 724.8663709475751 M1249.3098835743144 724.2377874265717 C1247.3854369473286 737.6759763491885, 1246.4096179702299 752.750467295688, 1247.2051838216962 774.3067359799469 M1247.6304568557816 725.914957409713 C1247.5028809217024 743.7170869068482, 1247.533350184033 763.2402793487192, 1247.0795819960397 774.4227492841637 M1248.837357448515 776.9442427969261 C1219.439217604194 777.2369009103692, 1196.5021422312277 775.337093159711, 1174.8590720456882 775.239016912105 M1247.1461166720449 774.8696849489173 C1221.1559375472827 775.3374879714063, 1195.1218108855317 775.6656403878762, 1176.5096137098847 775.5609814750198 M1177.2786278547558 773.6244646691522 C1176.1595526661586 760.6714101659677, 1177.5080606524239 746.1038139644005, 1175.9520912681985 724.5602381726426 M1176.3998454604337 774.4123284415022 C1174.9973144433404 755.812812791799, 1176.9059249869745 735.4251394694218, 1175.2395505391944 724.3108792511509" stroke="rgb(0, 0, 0)" stroke-width="1" fill="none"/></g><text text-anchor="middle" font-family="Consolas, Courier" font-size="20" fill="rgb(150, 100, 28)" x="1212" y="755">id121</text><g><path d="M1050.4580058847687 498.7653586134773 C1130.5905397199188 499.7008212939157, 1207.9987302056372 498.007472320376, 1260.8496099517731 501.2111662687915 M1049.6688662625131 499.69820542331723 C1127.3285231783038 502.53854464809046, 1203.651911123677 501.06295798212307, 1262.2831083190056 500.5411504069666 M1261.5572485536388 499.33058090656783 C1260.0773626510143 616.5563886285204, 1258.8139862069218 735.5552180618081, 1262.2119276616913 801.1331784088035 M1261.917948072644 499.76581506483615 C1259.5812328050094 587.6908953463349, 1260.531283567307 674.7472801399954, 1262.2113180065176 799.3486717826447 M1262.516295760632 799.2443635645344 C1179.3560096644603 796.6092139021509, 1096.4602600981575 796.975178341307, 1048.9426135180222 800.1135378554328 M1262.3680621742026 799.6317222121763 C1185.2146028738819 801.1162749789673, 1107.8324883858659 800.6894581013786, 1049.3904460106778 800.210560174019 M1050.2987379298777 800.7014322725945 C1050.0035313618896 722.9171095770973, 1048.6786113286284 646.5093649998189, 1049.1681104670593 498.678375929727 M1049.8932694061878 799.8282240050032 C1047.9500084003023 731.3704639299996, 1048.2264231255056 662.4638497649212, 1049.7773734202965 499.57691731097935" stroke="#000" stroke-width="1" fill="none"/></g><text fill="rgb(150, 100, 28)" text-anchor="middle" font-family="Consolas, Courier" font-size="20" x="1080" y="530">id10</text><text fill="rgb(27, 14, 139)" text-anchor="middle" font-family="Consolas, Courier" font-size="20" x="1232" y="530">dict</text><g><path d="M1050.9802171866838 499.6570912478125 C1063.125526908066 500.810587492811, 1079.027298803089 497.53640124016465, 1110.0180016123445 499.7697505711126 M1050.2204920034324 500.61205966342925 C1064.025337654462 500.9321019722969, 1077.0493822495305 500.49902873858593, 1109.6855726141594 500.03509004569395 M1109.8178114801092 498.49418917254445 C1108.499586142089 517.6882654229676, 1111.9334615301927 532.7020979359614, 1110.6232938358594 549.9356829930999 M1109.2718393547511 499.8432051899747 C1110.5456140543674 512.3211391532391, 1109.6700820947879 522.3456385867039, 1110.4939066998763 549.1404508741927 M1109.2839792646953 549.8866761368653 C1097.7162131307248 550.5251326665137, 1082.938834664435 550.3569771210639, 1048.6150588128908 548.3358147854361 M1109.2638411697976 549.6236033464044 C1088.818165525256 549.359155835947, 1068.490903267648 550.0854956351612, 1050.7056617230114 550.3344158884214 M1049.181304681109 551.8067183830975 C1049.1568853584718 532.2885713408707, 1050.5970247775256 510.7247225358984, 1051.8000051531583 500.5489079493939 M1050.8238893419566 550.1134972863075 C1049.7669492025511 532.0436555101544, 1049.3482508291602 514.4359466360398, 1050.9281957528556 499.0584531990036" stroke="#000" stroke-width="1" fill="none"/></g><g><path d="M1200.6879965033208 498.8363839715161 C1225.6884994168506 502.18791316965, 1247.4643215337894 500.28888283843474, 1262.6453674113568 501.21249289331655 M1202.2556205880194 499.1933568583906 C1225.4929595890308 499.1386887657798, 1246.9224242286512 500.2172307501097, 1261.569857062064 500.40912776136304 M1261.1661767010175 500.24313630306204 C1260.1761958891614 514.0034823324798, 1260.3400266862157 526.2275171487261, 1262.1047312817407 549.5340872325481 M1261.622988303866 499.0391487646411 C1261.6950330321165 512.9920656480908, 1262.2358991073775 527.8525200670415, 1262.117071520402 549.8252271413442 M1260.5785985028335 549.7340961011824 C1244.0019290988218 549.5472126788771, 1223.6550753911872 549.6386383093943, 1200.1911642438763 551.6125529335892 M1261.0214738367858 549.9699345817942 C1239.5943188439005 549.7225368930195, 1217.6700076954094 548.7457266318852, 1202.7618002601873 550.2744485557611 M1203.8512144518786 548.0481407961393 C1203.6349566236627 537.3415916100618, 1200.415398297941 526.1463562197312, 1200.6695085395365 500.7020514514767 M1202.5545577469209 549.0628591968838 C1201.5128823040316 530.8187476246404, 1202.7506953024185 513.4870791948468, 1202.3040549809748 499.3672539962044" stroke="#000" stroke-width="1" fill="none"/></g><g><path d="M748.4575967807311 751.2934662654509 C802.1957541521929 750.8218719868162, 852.0370259233795 750.0209259600408, 949.6827127969957 751.7293258494717 M750.2180604117658 749.4704233052756 C828.8170193437571 748.2533110043464, 906.735892057165 748.3858627565698, 950.0318669938803 749.2005702336527 M949.9211160366008 748.583602650512 C947.802873847754 781.0863442038566, 950.2504579776339 808.8013050714039, 951.5723662596318 881.9221163111379 M950.5364243787498 750.9068465302068 C948.4659187327151 794.1533560950745, 949.1689242325984 839.7578205070658, 949.8392025186857 880.9721586981644 M949.786204484036 879.5371663312737 C899.8495285235828 878.0466403574226, 846.4804746916544 878.2743973700007, 748.6722427675654 881.7903930432323 M949.2726978459274 879.9262474900708 C898.6546676927586 878.5917785215979, 847.4213524166141 877.9286681280383, 749.6037236646977 879.9404017659172 M749.7438611971131 881.996804563493 C750.553894782817 834.5312106545683, 751.1869416143882 788.4197705310356, 750.5690716716574 748.4504643630545 M749.6828956808474 880.5892750073148 C749.9125871294871 845.8836543928968, 750.7115045204567 810.3676927500834, 749.9881565422749 750.0987577060527" stroke="#000" stroke-width="1" fill="none"/></g><g><path d="M742.724419228631 744.1442531645205 C817.1995873089005 744.2876610640956, 891.765797441025 741.2487106278661, 955.2076273128006 744.8194378727319 M744.7639599124533 744.7594731263649 C789.0139639959431 742.1779882560548, 835.2844264349623 743.480526378901, 956.6042173417989 743.9766959328763 M955.4021107092638 745.8539900465455 C953.9710505276771 787.4313965141607, 955.6931149932699 831.4687285746301, 957.1333119006496 887.7685361588382 M956.3138447649939 744.7546810490682 C954.673644299966 775.4828172458255, 954.4487567597362 805.6340448482647, 956.077685387517 885.5041124908255 M957.6124545666191 884.9521368200303 C885.7085096301894 886.9770180266589, 814.6090053259587 884.9514829168289, 744.2452631477664 884.9228104582886 M955.4304020977994 886.8234805978547 C894.5699936151768 887.7676891715164, 834.4107110758663 887.8920269332936, 743.5576404826242 885.739252669164 M743.7819670067042 887.7431435839085 C746.3187337999973 847.8217138502455, 745.726509018452 811.1334519783543, 742.6413944459421 745.7852356964661 M744.3991023913078 885.2798900919806 C744.5982706204363 830.1396133087412, 744.6641184980966 772.4602796063756, 743.2035880131199 744.8141903047645" stroke="rgb(0, 0, 0)" stroke-width="1" fill="none"/></g><text text-anchor="middle" font-family="Consolas, Courier" font-size="20" fill="rgb(27, 14, 139)" x="850" y="840">"None"</text><text fill="rgb(150, 100, 28)" text-anchor="middle" font-family="Consolas, Courier" font-size="20" x="780" y="780">id13</text><text fill="rgb(27, 14, 139)" text-anchor="middle" font-family="Consolas, Courier" font-size="20" x="920" y="780">None</text><g><path d="M749.4124477115753 748.5484195739192 C770.8129318414958 749.9379752768575, 792.045112407418 748.4977314386207, 811.4016259704482 750.0254784987105 M749.1794582002897 749.0474476132432 C771.6430210346286 749.0006619841282, 794.7157409798484 749.9291588139736, 810.419414512043 750.0073055555721 M811.6618519221861 750.3713676945625 C807.9770227067761 766.438063458841, 810.7259897803783 779.5963010731899, 808.3652822927563 798.8474247575056 M810.0272258971288 749.7515901563423 C809.3289836054378 762.237554640508, 809.1026427873866 776.9088196889194, 809.7585520118665 800.0276513321382 M810.6327475960279 799.5259335127198 C795.322554092009 801.0440062586367, 778.2350317229187 800.945991064377, 748.1319753014117 800.4032484777899 M810.5415809380165 800.5848874069317 C792.0830647594852 800.6291786153713, 775.0550663639284 800.6979423739028, 750.8796428327993 800.6533901483664 M751.972409743492 801.8278432442961 C751.3873785043417 785.7757733471453, 750.0436120029748 772.2661531394883, 749.451720151907 748.1119190681604 M750.9037151526794 800.2953701200806 C750.7762958441242 788.8023800574533, 749.799105900181 778.1206157504188, 750.801307728946 750.512618899688" stroke="#000" stroke-width="1" fill="none"/></g><g><path d="M890.288917059494 751.0285265900555 C913.286294195918 748.9609420109595, 931.8670573457417 751.3262618229834, 949.441897198054 749.370595396287 M889.4671503640765 750.0608563103865 C903.1939790573266 750.2827159701226, 915.4000620645631 749.2506492567799, 949.4689661719244 750.5050148826923 M949.4663508550694 751.1008960968819 C950.4244147375674 770.9727667565422, 949.399619162655 790.2905118873614, 950.7680220730211 799.3137943291373 M949.8217484291308 749.7809608641912 C950.9039716198713 764.5125089374862, 950.6727407298234 779.2427710509486, 950.3371727540508 799.0233084681464 M948.1277632055167 798.520138879267 C932.5387704102474 801.7756145421281, 912.3505189086309 801.3725266317409, 888.3511307745716 799.8140862041677 M950.7252550534603 799.0383035253692 C928.8568446346525 800.567256536314, 905.5741124019394 799.4170117672681, 889.3699372314329 800.1527603913713 M888.1879207989549 799.9477327123884 C890.932713517447 786.3152759796079, 889.0121460136329 774.5334122899858, 891.4311021594066 750.763638112811 M890.7421299771105 800.3274226531253 C891.1666164626008 786.1488034891332, 891.160411808467 772.6177613446744, 890.2376566431188 750.0836945329632" stroke="#000" stroke-width="1" fill="none"/></g></svg>