<svg width="1300" height="1000" xmlns="http://www.w3.org/2000/svg"><g><path d="M23.045878322130392 23.29845618143404 C66.02828123517276 22.635210334675744, 106.70527965377308 23.38648047587745, 224.33774102653405 23.83273000182017 M24.00763254266951 24.484600031624623 C77.51688139967466 22.56529702546151, 129.91682981325195 23.547422444583837, 222.0241539368796 25.885987848264282 M222.68068620258518 24.658221575467685 C224.07946084313122 178.82429123729068, 224.56138753044866 332.6016301014394, 222.78889616425076 475.4430890234688 M222.63394530286166 24.737957366428468 C221.2268533903849 127.4040377132001, 221.59241157141378 229.63608630774291, 223.12801442574178 474.8469816093532 M221.44032716252298 473.9968132846639 C176.17608401296496 477.5773619576217, 128.73940974389467 476.17429474840867, 26.66616832931464 475.87906033511695 M223.62371717296986 475.3208319412549 C182.75707301415395 476.47036346724104, 142.58989513610928 476.8725892653507, 24.310376720034117 474.1697375638091 M25.467208278762197 475.2329381687683 C25.908782929934524 375.7539779693933, 25.53043934947813 277.60678331624797, 25.495897395678444 25.03116785799881 M24.677616217412982 474.7548354468192 C25.186877557509515 349.92513027530435, 25.262293073708562 225.2642794971975, 24.52427749609476 25.226825605698725" stroke="#000" stroke-width="1" fill="none"/></g><g><path d="M148.61793859733964 100.69870355748911 C168.43638515032683 97.91497980478697, 187.28365111078324 99.71673315629943, 206.62293570451777 101.38291551711518 M147.85183627241565 100.07831115806012 C170.37281411444567 100.29720176871962, 193.0303831360771 100.70867309128323, 206.94573441565922 99.26209317311748 M205.2453258095055 98.45788825343205 C207.29930885757472 108.87936070056398, 208.26819974571217 119.4567346560819, 205.06905439102079 151.4384460509454 M206.84861079374608 99.44143081276768 C205.30124489077082 119.5554483341573, 206.37557902435574 139.31545423701436, 206.49174227167327 150.47690738384054 M207.78094132536583 150.44725984507153 C185.00387007768228 150.37978827927583, 164.93471263686706 148.0968124866348, 149.2525273216233 151.2777218886922 M205.02328054793875 150.5566775525201 C185.42539398059597 150.3170460331567, 165.7593455943158 149.37656647877424, 148.27763088245112 149.94880765050524 M149.78123613304953 150.79878288866627 C148.03040676514217 134.32597543142, 148.531010901777 117.47484733724387, 146.60328194240907 98.16219104189004 M147.46988377232395 149.01461475782747 C148.43832867229946 134.29848882326206, 147.026819053999 117.55275416283399, 147.2889064283937 100.7892507809706" stroke="rgb(0, 0, 0)" stroke-width="1" fill="none"/></g><text text-anchor="begin" font-family="Consolas, Courier" font-size="20" fill="rgb(0, 0, 0)" x="50" y="130">lst1</text><text fill="rgb(150, 100, 28)" text-anchor="middle" font-family="Consolas, Courier" font-size="20" x="177" y="130">id82</text><g><path d="M148.91757736806986 176.24933668205682 C166.0146264632422 174.26932967000633, 185.52169179076301 172.86368472333209, 206.8982452461163 175.4215775200653 M148.78197880286353 174.4368273837894 C162.4633633766122 176.0755131420441, 175.7599192309831 176.15681472625212, 206.9530046449888 174.71195588902071 M204.28560828884534 173.82603795946142 C207.386407010366 185.78820569629596, 207.954592729095 200.33200782263478, 207.30039591479894 225.16726233496317 M205.74480069653885 174.71550309778445 C206.2498156637264 191.3319795856289, 206.09165398419404 207.9490772695343, 206.74905124006412 225.1815499445458 M206.19001491965068 225.49571368361816 C188.40789026709726 224.40966750302866, 174.38371990675088 227.34410191559735, 146.23084238697763 223.30434698784285 M205.92295438873268 225.73142768446007 C192.83008844837084 225.82239848455404, 179.0931616243992 225.12546816234087, 147.83755580189978 224.16180922364157 M149.27728677578537 224.60279369725538 C148.512307100825 213.74002866985853, 147.40010405914109 201.70612434742128, 147.01286165508643 175.81171422076335 M148.07776161379843 225.9051183033991 C147.35009948042563 210.06442840166542, 148.39706796523112 192.59976829545047, 148.26362469520797 174.15127077834214" stroke="rgb(0, 0, 0)" stroke-width="1" fill="none"/></g><text text-anchor="begin" font-family="Consolas, Courier" font-size="20" fill="rgb(0, 0, 0)" x="50" y="205">lst2</text><text fill="rgb(150, 100, 28)" text-anchor="middle" font-family="Consolas, Courier" font-size="20" x="177" y="205">id84</text><g><path d="M147.89846797350503 249.06045368517226 C160.9485477174622 249.6029874734603, 174.90218505371647 249.31869206548794, 206.7521883091847 250.72637963048706 M148.48583786792926 250.81446040814822 C167.23892693208157 249.32825895421468, 187.88660840116202 249.88295057150364, 205.98232413828174 249.6445580817169 M204.34667629295123 249.810450687863 C207.9599347562721 266.20368221117, 206.20068184220176 284.69837207412087, 207.24535058569867 301.2434223896065 M206.93483070347594 250.69665426682928 C205.6192875676478 261.11033067456356, 205.7807248330109 270.6542324883195, 206.84323059719844 299.8705784236464 M205.643385603335 300.48461928544 C194.2444673687083 301.2407811259356, 180.34341216429002 300.25176389665853, 146.71725638438195 300.1062399127319 M206.74753681936312 300.47944831989537 C183.3388029259568 299.2386457563854, 160.97378492471321 299.57878572813024, 147.34631401836265 300.47177548201773 M149.18077964056036 300.9004694990985 C146.80442757347285 287.09103701815917, 148.9717600456805 276.95312839368836, 148.10017951789888 248.31172201826197 M147.34635331641178 300.30333207134026 C147.38185972562795 282.802355035388, 147.40126875619276 263.28463696739334, 147.9532552088015 249.5536476314779" stroke="rgb(0, 0, 0)" stroke-width="1" fill="none"/></g><text text-anchor="begin" font-family="Consolas, Courier" font-size="20" fill="rgb(0, 0, 0)" x="50" y="280">p</text><text fill="rgb(150, 100, 28)" text-anchor="middle" font-family="Consolas, Courier" font-size="20" x="177" y="280">id99</text><g><path d="M148.40336193585887 325.3678679861362 C164.20481314368652 325.7417471446004, 183.38901637518478 325.6869639713058, 205.86520308589579 323.2957329368113 M147.38650674785714 325.7370930037796 C161.3304108615958 324.4838575752142, 173.15669895089965 324.89255928360086, 206.24066078521057 325.303791201682 M205.67126006775922 323.3657949033676 C204.76646406791585 340.4499195550036, 206.58370714864233 354.170068935695, 205.6963025743045 374.03221212312064 M205.63606932346286 324.95010418738553 C206.53679636447694 343.95946118219024, 205.74247753948293 365.258104117335, 205.25807520372982 375.99804602394823 M205.56314992848408 376.72655347953594 C185.46858326541195 375.45793954248404, 161.50879123264585 375.5242071093011, 146.83195545550393 375.8338032217473 M206.9710876955892 374.26633676764783 C191.10549479804 375.47367537021734, 174.11328429543988 374.5650329977527, 148.65604628632653 375.4854805861541 M148.23008350374863 375.1257534826207 C148.0033936704854 364.0422870589273, 149.22981431227268 354.023779868189, 147.98228350717534 323.7977877799631 M147.53878141975312 374.53949737737844 C148.5302750161085 359.2560116870446, 148.50171707831728 345.78772564998695, 148.7379920133247 324.10003149264895" stroke="rgb(0, 0, 0)" stroke-width="1" fill="none"/></g><text text-anchor="begin" font-family="Consolas, Courier" font-size="20" fill="rgb(0, 0, 0)" x="50" y="355">d</text><text fill="rgb(150, 100, 28)" text-anchor="middle" font-family="Consolas, Courier" font-size="20" x="177" y="355">id10</text><g><path d="M147.03032509174446 398.27874036075946 C160.39263990004645 398.03929245875133, 171.43817141628693 401.62782934060357, 207.4465694891322 400.0602033864974 M148.3427693899948 399.0455989870927 C170.35770218861865 399.49986794485443, 192.82821471241422 399.11071563903045, 205.44342958575817 400.79657792082986 M207.49975499040175 401.36490886715484 C207.5553987292115 415.7337457132083, 206.68691494032146 432.48849576183727, 205.97747180122605 451.0187104084252 M205.9835027204783 399.3316290950738 C206.72406138751103 410.377203767762, 206.5922177232218 421.1104169194207, 206.67114249779203 450.2524611579233 M206.30097797137392 449.3309553575402 C187.94218373168252 449.18473677585104, 169.30728826915657 449.21085177668886, 146.82915198331523 448.2112505002669 M205.16349358485186 450.76288683408706 C186.30200617509678 450.4721140189027, 168.9025354139619 451.1439220753263, 148.20166549813962 449.74874054713473 M149.46616580896955 450.46405410664283 C147.26448618348434 436.53791998419996, 147.76627526555336 422.8052617078349, 148.7111801400254 399.99986799406116 M148.59176882748753 450.91658009681464 C149.12284845920408 435.92672648251414, 148.58696184094305 423.4419450204625, 147.09613566923431 400.28546744183944" stroke="rgb(0, 0, 0)" stroke-width="1" fill="none"/></g><text text-anchor="begin" font-family="Consolas, Courier" font-size="20" fill="rgb(0, 0, 0)" x="50" y="430">t</text><text fill="rgb(150, 100, 28)" text-anchor="middle" font-family="Consolas, Courier" font-size="20" x="177" y="430">id11</text><g><path d="M23.782536744878428 26.00956803948597 C60.891109353160495 26.683687282067176, 100.2139053819467 25.23335665879332, 132.29935521485567 26.21734972868909 M25.052272792925105 25.94514526936401 C62.423585433885535 24.997542416665993, 100.32969677352054 24.725806475344626, 131.79120922426705 24.568816992457318 M129.21205972825658 24.27785057003489 C129.8036455939254 38.31048472542974, 131.27638891743763 54.336281501094355, 132.4292321681375 73.03491897257358 M130.44671238386593 24.408028158986603 C131.69613735330864 38.47666097003248, 130.61201289058286 50.610340568176156, 130.28406534543402 75.00127692998781 M130.42761607799284 74.00833247612006 C93.00430255920105 73.38836046728171, 54.58852863210466 73.34945190886002, 24.945224456347194 76.61358439641263 M131.19947118029225 75.83435195994615 C102.71438671154046 75.43434521007259, 74.75158106482925 76.26836865245188, 25.155972983236683 74.24967369753458 M26.487663623333912 76.57450434049828 C26.12470019856991 62.792797770169464, 22.994484987343128 53.882990746739914, 26.91927315178829 24.891921497747752 M25.290837045386844 75.69666037156006 C25.09560874090687 55.58317754769748, 25.105419895785403 37.45556039589462, 25.919380823239866 24.543599250133344" stroke="#000" stroke-width="1" fill="none"/></g><text fill="rgb(27, 14, 139)" text-anchor="middle" font-family="Consolas, Courier" font-size="20" x="78" y="55">__main__</text><g><path d="M25.52153839806289 674.9620257939955 C67.01316641074476 674.2956276111074, 112.99347363228416 674.481694528804, 222.2071793272304 674.0709182723647 M24.506404136208502 675.4906914794103 C64.99145820661151 673.0059174037777, 104.31410530978013 673.4771218052982, 223.2520832209203 674.7172133366545 M224.666931945989 673.4169467800044 C223.49654916793872 761.961201578838, 222.0128268872801 844.9595003833583, 222.90644680149583 899.2964173352168 M223.49752909187 674.5996862874734 C224.06908969027134 760.4727890906677, 225.43528965220645 845.0955599544542, 223.6297995399425 899.4494717947397 M223.9429582118835 899.8010692397818 C168.83516207963075 899.8102612605171, 117.90983666021314 898.6657585276176, 23.17395071850465 900.3095779259427 M223.61597810198313 899.2285063314093 C182.66294649945974 900.7517733687343, 140.2572278482487 901.1861657306418, 24.575297375831056 900.4496644991518 M25.37305214647302 900.8483073648782 C24.75202406518623 824.4851069933856, 27.520145814510737 749.0015631317865, 26.518323843175253 674.42035910495 M24.665567063235702 899.1523227625348 C27.55008019601883 854.4594214300793, 27.311051630665652 810.582889713294, 24.93767293136896 675.6684773462873" stroke="#000" stroke-width="1" fill="none"/></g><g><path d="M147.00580282838231 751.5698300412814 C161.51821210139056 750.607746257088, 178.13284947063414 748.1495202558369, 204.67391837093595 750.1753967677147 M147.87550315490077 750.4136218469463 C169.03757400637997 749.8212596500776, 190.40622045063313 751.419448294003, 206.12390580046485 749.7664277613857 M206.66380238955065 749.736365800533 C205.574263376134 768.0318186635644, 205.88358922415273 782.96428875105, 207.99789664841933 799.0969957880365 M205.18039002269228 750.6252220885481 C206.9728928397877 769.4409664126937, 206.62818101023674 787.7561059769696, 205.08290184664958 800.4630033019989 M206.4671033626059 801.7176356168204 C181.13938589715875 801.3931001397136, 158.73860250627374 798.2212358848973, 147.74445938232353 801.7383539884604 M206.54188596485494 800.2704322306795 C193.3508074232831 799.8345547676572, 181.18937060161727 799.4957050878872, 148.4684607390658 800.8102038985352 M148.5849108751956 798.5477490420651 C146.96297186076748 780.3391842183213, 147.69246728258543 763.9829222753841, 148.66415488788476 750.0355075716443 M147.62612855369062 799.8071847961002 C148.45177307235855 787.9588138459427, 148.08513765253494 776.9966905962636, 147.9538160837293 750.1015380825133" stroke="rgb(0, 0, 0)" stroke-width="1" fill="none"/></g><text text-anchor="begin" font-family="Consolas, Courier" font-size="20" fill="rgb(0, 0, 0)" x="50" y="780">age</text><text fill="rgb(150, 100, 28)" text-anchor="middle" font-family="Consolas, Courier" font-size="20" x="177" y="780">id12</text><g><path d="M148.52946468690814 826.2545870059699 C166.70858719201755 823.7785733490969, 187.30012392620912 822.8395728175307, 204.41622863747844 826.133874351387 M148.79994016590638 824.3509468333328 C171.40537162332438 825.8763666401368, 193.12486882716146 824.7680191725403, 206.3072778209695 825.2654036057716 M205.76431440320655 825.7867468797492 C206.36189809605202 843.0829709052698, 206.87987469228327 862.7512596516432, 205.5658385333197 873.9667660823916 M205.22042124674013 825.4367065842572 C205.16737827580474 840.1955360998211, 206.63286663469626 855.5505305636531, 206.86089647118598 875.7070893378425 M205.29465565844018 875.693169333957 C191.37007588297647 873.7479980215177, 176.73447277041313 876.8555969340555, 149.717096118576 873.8469358240409 M206.812946246143 874.4298181335645 C183.45231644123834 874.397549626336, 159.35785302376982 874.1184862814248, 147.1717119494692 874.190537743133 M149.58965738017952 875.3693822944973 C146.38148000834255 864.4296649682526, 149.08029491507742 849.3608838158705, 149.2052003822862 826.4676117972224 M147.87805275704162 875.8526299289306 C148.06422779103588 857.7101716789084, 147.66979630170457 840.9426958814678, 148.16060766546562 825.3967567927101" stroke="rgb(0, 0, 0)" stroke-width="1" fill="none"/></g><text text-anchor="begin" font-family="Consolas, Courier" font-size="20" fill="rgb(0, 0, 0)" x="50" y="855">name</text><text fill="rgb(150, 100, 28)" text-anchor="middle" font-family="Consolas, Courier" font-size="20" x="177" y="855">id17</text><g><path d="M23.140127058161287 674.0906749227383 C45.992002336581315 676.7393070688471, 71.19946127562184 673.529852918835, 84.48514764666533 676.5194702962536 M24.627036876952232 675.153604058069 C40.89893820755814 675.4526707875204, 57.88672302919897 673.9605448753512, 82.45637282396294 674.8690868360153 M82.5940539644491 675.2564093696614 C82.66696382034047 689.1173176754315, 82.95750674864084 704.3138357721061, 83.72721687117009 725.7191779689194 M82.05770513244872 675.530668305415 C83.6091937394803 690.9546727254173, 82.00667474252607 706.2894996263001, 82.57873520019824 725.0349800455014 M82.56582981854807 726.4564058582037 C61.471468504092336 726.0728834643792, 38.24884405463589 723.5629930842566, 26.409997150997324 723.6086582861346 M82.0741410718715 724.9165857228102 C63.724282838160825 725.1483600074777, 45.02206462506477 725.1604578783514, 25.266166468843306 725.6930181591601 M24.39362773103384 723.4798507404383 C23.983990626330474 711.4078193677207, 23.374028006680767 695.5618009698505, 23.499999581428547 675.576668060434 M24.39246000921378 724.7999991177687 C25.56884546822086 712.1539250135556, 25.255778589474964 698.8467290310983, 25.796491802803637 675.3120367063964" stroke="#000" stroke-width="1" fill="none"/></g><text fill="rgb(27, 14, 139)" text-anchor="middle" font-family="Consolas, Courier" font-size="20" x="54" y="705">func</text><g><path d="M257.36954696542745 25.151653091148404 C334.83087937470236 25.29236009704038, 413.18895563915805 27.543599769243084, 540.6168370456611 25.42995835722916 M258.4193530576325 25.306937675209532 C322.5556198057788 23.698544892305858, 386.4709224609129 22.48944181665822, 540.3114816816408 24.38758614090801 M540.7927364284049 24.28143010507911 C539.6919011567163 75.33559946034707, 537.1878056718964 121.63055350912012, 539.2369109491267 153.69328899702214 M539.5817850602471 24.446126356420898 C540.8534525265903 72.46504238465279, 540.126226706463 119.85153317475351, 540.151176812553 155.72162544020338 M540.2034411353543 155.74557025816904 C478.75779174218815 156.61068598553513, 415.92356853578434 156.2904909517243, 257.5587692810918 154.81623591710007 M539.3993926130121 154.92365542455477 C461.6221381522128 157.00636330539794, 383.7448072061089 156.35494567498873, 258.263229928976 155.1729709356047 M258.45278610514015 155.58143693661503 C258.6954039894548 105.58330699984526, 259.55332297825197 55.391972856215915, 257.3385141494189 25.062857104776015 M258.1609716775351 154.15263505286202 C257.66905505204517 126.1535281890356, 256.82533159383587 98.295018804764, 257.1036301638494 25.073960435646132" stroke="#000" stroke-width="1" fill="none"/></g><g><path d="M281.7093747811659 91.00778381737408 C303.62067875224363 90.03858234237924, 325.27925264203384 91.09839285293494, 339.18383496925856 90.41606050951671 M282.4621504759081 89.97537148999999 C296.9870980465023 90.58129399585714, 311.73731362832194 89.21355224105594, 341.79885825328176 89.35900533531097 M341.4327548862169 88.89508605538416 C342.35052342820717 102.8769446414868, 340.6622151484875 118.54990899599056, 340.6961771818423 138.979515034803 M341.6829555123951 89.84916339216036 C340.8420187447292 107.51967157319919, 340.3497503220763 124.85885475094099, 340.72531280157125 139.06429840330088 M340.517970199579 141.90340866621233 C316.9402959010248 139.37557577118113, 295.35754670153227 139.22801320176453, 284.97053355958934 141.98337278952877 M341.969323168299 139.33069226682406 C325.5124521385628 139.14582132494306, 311.0362408626859 139.19550088227132, 283.9306171944971 139.56798815242792 M283.2212524353478 140.03428638336771 C284.34788193774483 126.05099634603805, 281.8025917092689 108.43211965281361, 281.78495658054965 88.63467319483406 M283.09816067727627 139.2068293945575 C281.62236188826625 123.18025745081863, 281.5867875641034 108.35634127810096, 283.03716378051996 90.40254843711863" stroke="rgb(0, 0, 0)" stroke-width="1" fill="none"/></g><text text-anchor="middle" font-family="Consolas, Courier" font-size="20" fill="rgb(150, 100, 28)" x="312" y="120">id19</text><g><path d="M340.97661508667886 90.11781688262114 C357.53194537150443 91.23468857875505, 371.7892298292856 90.54026656615355, 399.364037516071 91.4568447030026 M340.5649514664888 89.41560023299385 C357.52468454553417 90.2790772891678, 375.67062178075037 90.25397118406043, 398.55797024494075 89.01301874079209 M398.94563981862996 91.95848358687743 C397.960382093368 107.81348871316725, 397.2161336411894 120.72869403454665, 400.00595612398297 140.0029575570561 M398.62894448001776 89.97736283465717 C399.57644181673214 103.62938549714782, 400.0760292562597 116.50922508443072, 399.1172955874742 139.26537053357993 M398.69122075238 139.50919686656943 C386.0852197446893 140.60479113129855, 374.4268864525988 138.61261451554915, 341.56874544309244 140.89943272148366 M399.2023244376414 139.67606205908825 C385.3144194481814 139.6051652505691, 369.63612270892696 139.41824659469788, 340.0454366245574 140.4157901705312 M340.25098145561515 141.06162477109822 C342.4775457107119 125.62942501795656, 342.89589307486665 112.50478095586263, 340.8217934607256 91.67786454788987 M341.38019159232584 140.11322615099587 C340.12834838877444 125.08291235135768, 341.6021417035331 108.80517635878417, 340.3166062785741 90.63700935498689" stroke="rgb(0, 0, 0)" stroke-width="1" fill="none"/></g><text text-anchor="middle" font-family="Consolas, Courier" font-size="20" fill="rgb(150, 100, 28)" x="370" y="120">id43</text><g><path d="M398.3868197389487 88.60159332111981 C414.13255161094025 87.80235378746922, 429.1407459578685 90.10578636881247, 457.91939497658484 88.27138473490359 M399.1908262993391 89.5962333137436 C410.40087362992307 89.98033750037564, 423.38649403520054 90.41601494694493, 457.3134616761763 89.62286724407649 M455.0636745896077 90.42764909060732 C456.16001834260163 108.27766107224983, 455.91747788748023 128.39672982985795, 455.8960136002906 138.06423601439548 M457.87764486049304 90.42978020165714 C457.3906475113541 105.07212276204535, 456.35963058971504 122.64010452526352, 457.9300299542939 140.72888011506808 M456.47177144114255 139.44721200964008 C436.3663571263179 138.2128820005383, 418.8214645891328 138.90119440736174, 400.26889041666936 139.5463936447961 M456.06846208222885 140.67326584828308 C445.27250024539927 139.08779401314837, 433.36178906130226 140.61959710408416, 399.79087825425626 140.84638901946357 M398.4778109306358 138.4086399463283 C399.3007901228188 122.00515507256848, 400.6528155044872 105.90072614038597, 400.1704562716542 90.87421837841151 M399.40245027396463 140.97542125823225 C399.3450785673846 127.43738197267533, 399.20050022512174 115.13959336157122, 398.124002674777 89.13695535301372" stroke="rgb(0, 0, 0)" stroke-width="1" fill="none"/></g><text text-anchor="middle" font-family="Consolas, Courier" font-size="20" fill="rgb(150, 100, 28)" x="428" y="120">id28</text><g><path d="M456.1598195399724 88.38256378211544 C476.67317149300294 89.0814908262666, 494.8123224989394 91.85628456627765, 515.3265429765022 90.41706463570735 M457.6329200317813 90.63243599497088 C474.89400724975775 90.04159039017715, 493.4325481405762 89.6655616125313, 515.7051771815754 90.688750631246 M515.1618113273584 89.50122003039044 C514.7894718259963 102.28277327393172, 515.1480321382328 113.85953958106053, 515.2291573510142 141.87731199771446 M515.3383905543814 89.23735907903091 C515.1998261261601 104.95872001208109, 515.7202541966858 118.82943646270567, 514.8156022665938 140.74968974118227 M516.0364074069115 141.95394977125815 C496.6583107813958 140.32394825781202, 479.7137857696833 141.7836477550668, 457.7353901657736 140.47240966044194 M515.5543933594366 140.36025401952162 C495.9758310211587 139.80521354151662, 478.6129484412722 140.53282780252823, 456.8034769037217 140.6416909806311 M455.11317458239915 141.06287632726293 C454.8467686849861 121.82581717811122, 455.228962201731 101.51527365065941, 456.5610580898337 89.98683379815726 M456.35749169220634 140.90499688363607 C456.2227679907116 122.40561465554492, 457.23954659832464 103.48972575225014, 457.87686417813114 89.0347481860331" stroke="rgb(0, 0, 0)" stroke-width="1" fill="none"/></g><text text-anchor="middle" font-family="Consolas, Courier" font-size="20" fill="rgb(150, 100, 28)" x="486" y="120">id49</text><text fill="rgb(150, 100, 28)" text-anchor="middle" font-family="Consolas, Courier" font-size="20" x="288" y="55">id82</text><text fill="rgb(27, 14, 139)" text-anchor="middle" font-family="Consolas, Courier" font-size="20" x="510" y="55">list</text><g><path d="M258.49613238741443 24.103203145518854 C275.6239815249833 24.801468236731576, 296.27003492092956 23.215013280783708, 316.9388626004085 23.637750685105324 M258.855147520214 25.096939942022438 C279.27323657770484 25.258528288009295, 300.9299475767943 25.366801079782626, 317.38057684886536 24.742765331521355 M317.4500736573801 24.819406734939726 C320.1750914212268 37.21797425421723, 317.1548353906683 53.67345609008275, 318.4507062185834 74.86269578456839 M317.7638117223447 24.05551696580028 C318.24605849859785 42.236482830148574, 318.68311712850226 57.23346932893231, 317.2508241482526 74.23712955682011 M318.12163109655387 74.11957176448472 C294.18240309978614 76.29368542753777, 269.09456250870903 76.33769834088793, 256.27048678694774 76.82203832341717 M318.4014697082053 75.43197492036444 C300.76497595275475 75.19456930976226, 280.9275609303444 73.97264388780815, 258.1995013987193 74.26087225498966 M257.79434345655176 76.74751966327584 C258.087486380027 56.71770459515991, 256.5642076744374 36.57346430927785, 258.59802463704705 25.09088325757165 M257.8608772742693 75.60725134095229 C258.0844154099976 59.04111605197853, 258.8927130933381 45.699773264613555, 257.62500246677706 25.68803774541558" stroke="#000" stroke-width="1" fill="none"/></g><g><path d="M478.5687937471079 23.135281851821947 C496.97333443408246 26.402939356962403, 515.432262886196 23.944142247682557, 539.4064321625152 24.973389345217477 M479.86250924562506 25.66159452576568 C503.39134242100727 24.87386999896758, 527.3121016943926 25.302338065061132, 540.429838548681 25.93936591978748 M538.3415886563505 25.118912239915502 C538.8152823436045 44.74134818142726, 539.5679189622415 62.142228583872075, 541.2905577237808 75.19966624199058 M540.4746624310097 25.836015958773455 C540.7375607338205 40.85757801082043, 540.5096680514922 56.2213562409615, 539.6662702787528 74.74979031286753 M539.2208629039205 76.25843706606872 C520.2327276285176 73.88561933346539, 503.43549460438237 73.98795418369707, 480.3097303154971 76.79643829936437 M540.1571048592169 75.2113796103077 C524.3688088661567 75.72373018072388, 509.0520584590774 75.50313096571513, 479.633987580309 74.26707307610043 M479.7474947730593 76.1638228597275 C478.00460030977706 54.98388883540949, 479.2073423398526 36.01836704419728, 480.9550179510625 26.634500248791262 M479.54360809045966 75.63250405210849 C480.9117122720816 58.54736212055346, 479.6061804411175 43.00523198991423, 480.48997776224587 24.78443952869125" stroke="#000" stroke-width="1" fill="none"/></g><g><path d="M571.1315006509087 23.756471000840865 C635.0398598774509 25.321283399403335, 696.4731194110171 25.972176338906124, 852.0758716006145 23.636077248907682 M569.9564187157837 24.482985058109634 C677.6063787795307 25.869129225941432, 786.1839734077824 26.323832235214294, 851.9212323553622 24.440995452207694 M851.2696599579616 23.015596566535443 C852.3520576470236 58.82400548158875, 851.7004760881267 93.81280838715337, 850.0597279431431 176.4980116043436 M851.6227795150002 24.681091619894698 C852.7043233702434 56.81527383540681, 852.3249078036102 86.46949097550443, 852.2503045585423 175.83644607679307 M851.4662519592276 175.61051267331794 C753.7247205894911 172.73805016790502, 653.5247036671157 172.7770989075301, 571.2562148786897 173.92819361214094 M851.8880469264425 175.71098558746215 C748.990155095323 173.94526430582297, 645.0675208062239 174.5919305777211, 570.2546501970039 174.45862570938587 M570.499796571246 173.6915224210316 C570.0577950613418 142.18543539300984, 567.5494068023207 107.34542427451285, 570.6773728689157 24.213181803208418 M569.0137754713754 174.37541127158394 C570.33813067247 143.69822817993457, 571.1371168085848 111.82088462669705, 570.6186789437375 25.94563381051886" stroke="#000" stroke-width="1" fill="none"/></g><g><path d="M594.4353603003417 108.09949770490098 C611.6742096035515 111.87857407962768, 629.5746067486605 108.72281615736293, 653.7826308881865 109.66444536286389 M594.0241574855216 110.04893655379554 C618.2525004022255 110.15943721010613, 640.350992282908 109.4105595609534, 652.0362327061335 109.60961398282996 M654.9554783525642 110.14721501735906 C652.1165129326273 128.3882384001272, 653.3537298961727 142.04250131245783, 653.1822486880254 159.12340401752343 M652.2382174290185 109.37325910686653 C652.3726409169581 128.18929168341558, 652.8329259415864 143.63421992178652, 652.6068215779856 159.14350540036722 M652.4452965363872 159.54817456816292 C641.0803994576034 160.5823303598557, 627.9501516719296 160.64037083796265, 596.1825274120728 161.09333548191535 M653.721593122437 159.4977262558654 C640.4596288196843 159.7725042413117, 627.5938226033232 159.82840500777957, 594.5349855259536 160.23033903231536 M594.5542193309116 158.61601323056715 C597.0343322891042 148.55952628907914, 593.4316714244279 136.91419239594237, 594.189307177084 108.4374679943637 M594.2948111966349 159.37588779943093 C596.1520217698047 145.74801658937952, 595.1666345577753 130.00555579178882, 594.8778175135755 110.97855902134577" stroke="rgb(0, 0, 0)" stroke-width="1" fill="none"/></g><text text-anchor="middle" font-family="Consolas, Courier" font-size="20" fill="rgb(150, 100, 28)" x="624" y="140">id32</text><text fill="rgb(150, 100, 28)" text-anchor="middle" font-family="Consolas, Courier" font-size="20" x="624" y="97.5">0</text><g><path d="M654.4103172286965 109.4338456751051 C670.6234573437347 111.1953803994167, 690.0910325808824 109.57085823122206, 710.9298260743244 111.15140285851791 M652.0061656437122 110.50078922009705 C665.7026418430041 108.89888000071834, 680.0168976456638 110.31067696760854, 710.9800403650007 109.42407361226026 M709.8573375414871 111.726192822801 C710.4847331069151 124.47016671930305, 709.5720996859375 134.34669292695577, 710.4625893578212 158.50775681654375 M710.6047617768484 109.22707605389124 C711.2757190292881 128.816148664727, 711.1768854819638 146.77052008716015, 710.7215388425368 159.63779463607077 M711.811374373986 161.98171426995063 C692.9594697812894 157.83413761026367, 673.0695662257489 158.3812494121621, 654.9908866816692 161.9437385389173 M711.2951295989144 160.57432775572764 C698.6933565022805 159.93317449019298, 686.6280965933054 160.20120329466798, 653.8840031895938 159.35032830874286 M651.4715008276925 161.04346372459133 C653.3178668960733 142.24738861332509, 655.3234093382702 124.8102538863296, 653.6958727113386 108.97028117043604 M652.9512091733121 159.63471435794986 C653.4521907400108 149.01323482949422, 653.2852376864597 136.94836008224075, 652.3172296213027 109.37377799179967" stroke="rgb(0, 0, 0)" stroke-width="1" fill="none"/></g><text text-anchor="middle" font-family="Consolas, Courier" font-size="20" fill="rgb(150, 100, 28)" x="682" y="140">id10</text><text fill="rgb(150, 100, 28)" text-anchor="middle" font-family="Consolas, Courier" font-size="20" x="682" y="97.5">1</text><g><path d="M709.7005599986676 110.05151166436983 C725.0546747131307 110.66501928396325, 741.0135998029266 110.63199951204027, 769.3251838628512 111.46371122018438 M710.0927126493461 110.59563318053905 C727.4406839919795 110.93572680354357, 746.3293082062489 109.23785007859209, 769.7739489117346 110.76517487824395 M767.9636720789852 109.4033398291982 C767.7074614601697 118.63037110963933, 768.0836001933226 129.18536546404192, 769.385627733104 161.18778347900405 M768.7965697150828 109.65530981833233 C769.1100463762342 123.78561465567748, 768.1250302250901 136.81305060484286, 768.632658130354 159.47009195605858 M767.3019609311993 161.73656970875234 C745.1289790845491 158.24700306835706, 723.6148904641814 158.34043496740475, 712.137943411396 159.3200347496137 M769.7549670854495 160.03873412950168 C753.8948024430682 160.54940703092578, 736.839649140572 160.3008868241497, 710.1675681812017 159.76366727617707 M710.8243724459827 161.01013695325625 C709.5031058877073 141.7709409194488, 713.1275618719188 128.13668966095082, 709.1435575912905 108.49585007717894 M710.330727374174 160.9274369519435 C711.8204029063837 140.97602573656084, 710.5207006131129 121.4123790274363, 711.5708064634996 110.34555967829996" stroke="rgb(0, 0, 0)" stroke-width="1" fill="none"/></g><text text-anchor="middle" font-family="Consolas, Courier" font-size="20" fill="rgb(150, 100, 28)" x="740" y="140">id90</text><text fill="rgb(150, 100, 28)" text-anchor="middle" font-family="Consolas, Courier" font-size="20" x="740" y="97.5">2</text><g><path d="M770.2806764707515 111.351984494039 C782.6788948526037 109.96578008861736, 795.7352580823991 111.09994390977377, 827.481617901918 108.33965653452654 M768.9766344963554 110.91127884023979 C784.5954414312063 110.12047342132513, 800.4482617683148 108.84639378075016, 826.9423211595735 110.4362952707907 M828.8267985389979 109.98716109792346 C827.4939800710081 128.91952718454783, 826.7773234615537 146.12710441869683, 825.4325569965786 160.9665303607945 M826.8159114184646 109.85259386596127 C827.6775874265925 127.82255295629926, 826.1335476398448 147.32222013431556, 826.8675534254476 160.38899714667517 M827.0044949360024 161.9260434383838 C809.232311337178 160.71031154553657, 786.1674798884542 159.98193673031122, 767.804569425859 159.59209448560532 M827.4992766277 160.1444727921291 C806.0141992957086 160.0811032540967, 786.3019145843112 160.8498576028067, 769.3178958634434 159.17798520436082 M770.9381898853449 160.81969710807346 C768.58400152951 148.98466820234148, 768.0981640639502 136.06378887043311, 767.6194731157361 110.34935138418409 M768.7458914742941 160.44302740353328 C769.0867947842448 148.7100777530361, 768.2187448038242 138.81549617714194, 768.4647366864135 109.1556160084828" stroke="rgb(0, 0, 0)" stroke-width="1" fill="none"/></g><text text-anchor="middle" font-family="Consolas, Courier" font-size="20" fill="rgb(150, 100, 28)" x="798" y="140">id57</text><text fill="rgb(150, 100, 28)" text-anchor="middle" font-family="Consolas, Courier" font-size="20" x="798" y="97.5">3</text><text fill="rgb(150, 100, 28)" text-anchor="middle" font-family="Consolas, Courier" font-size="20" x="600" y="55">id84</text><text fill="rgb(27, 14, 139)" text-anchor="middle" font-family="Consolas, Courier" font-size="20" x="822" y="55">list</text><g><path d="M569.9831368820988 25.87666217317586 C588.5889479838988 27.394959148867162, 607.3026888635404 24.900204151513723, 629.4061993855337 26.2159403802574 M569.4000783895598 25.52149239297251 C582.7558361169656 25.725548538900156, 597.285727808152 24.37266941325895, 629.6143846814847 24.847351358914402 M629.637601797625 24.62538184832452 C631.228770551625 43.359014793054776, 631.3212229951806 61.06598507773131, 631.1091462475679 75.41361295265388 M629.9182020055279 24.795979950363375 C630.9239050144257 35.91330423263769, 631.3369081894452 46.137383476204974, 629.8878430799036 74.19499377618249 M628.0453727345703 73.7787500935345 C615.3250572971402 73.29592862725693, 604.0269927612377 73.31443060644253, 568.2616195261971 76.89176557424997 M629.1196623498199 75.6859748892896 C614.3462074405508 76.22918920169393, 597.7178124329774 74.63645722927342, 570.323193847318 74.80184169887241 M570.699529181086 76.05362857806068 C569.9470675540316 62.2238449905389, 570.5021157721288 51.0459759426166, 569.4976308226188 25.137183341859274 M570.3369585244404 74.13494589928618 C569.3683983736455 62.054625783801136, 569.6881156616874 49.80075532673117, 569.5388631115562 25.23467382907843" stroke="#000" stroke-width="1" fill="none"/></g><g><path d="M792.9125841638208 23.0629432676989 C806.4576539885637 24.62426856944606, 819.6279765941662 25.423254937856434, 850.2715000845799 26.812978934139736 M792.2189412262827 25.802190528994725 C815.0098922353717 25.51842431294614, 839.3041583980906 25.9129313064048, 852.8096206962165 24.172811040711743 M851.1244143539988 23.00546902893866 C853.5880860709929 41.8870109900709, 852.0376811621535 59.042427944407564, 850.5603290207665 76.68920122728822 M852.6218142064893 25.225029782829015 C851.8462058135756 42.60606009865438, 852.2380787642578 61.8365877560576, 851.7564402726971 75.48307657665332 M853.2517759557959 73.61697100129183 C836.3485288846498 74.4899310296176, 816.9879641035392 76.22061183963979, 793.3297030176539 76.5696691844832 M852.2327792508191 74.28899770943187 C830.0895139960592 74.07531646581812, 809.2626297015628 74.06021231183729, 792.9319005430802 75.74207882027594 M791.4124270085799 76.403928456363 C792.769045876589 62.87841699704976, 790.2425663661256 55.301590332978215, 790.1483276669408 26.461630547587063 M791.4695840990565 74.77615581352461 C791.736832928962 57.15695183908042, 792.5305395556014 39.289526381432154, 791.3010765586334 24.185759853299487" stroke="#000" stroke-width="1" fill="none"/></g><g><path d="M881.1518968138319 25.200082682400033 C946.3083577787746 26.03661075740934, 1014.1761614874906 26.909075645680254, 1083.6798930191974 25.764184730150358 M881.4767899629396 25.756022146804593 C950.6557481828899 24.506638875039812, 1019.5102546742295 24.30673076474974, 1081.414410996683 25.053701317438467 M1080.7437196342948 24.452923258231607 C1083.6839950761555 56.7738028624679, 1081.0631510021894 85.54917406408137, 1082.4130215616617 155.75494895482728 M1082.7046371887257 24.518586787521635 C1081.7444311205359 64.1191948373973, 1081.6416061463497 101.8596946640109, 1082.5835515894853 155.69131934275234 M1083.558005965011 155.55586807664363 C1023.8780698070184 156.3783577644195, 963.6792606266978 155.3997260252763, 881.1244786412035 156.49868490026736 M1082.197896025744 154.51766940061535 C1042.693759443625 153.013081586797, 1001.8497781674546 153.0222377027059, 882.8785814057785 155.76344323227076 M882.3603261500486 154.1148275078605 C882.3401875221339 113.41314864015284, 882.7615798138336 70.28241556378988, 883.2059422203228 25.25788504293069 M882.7615365953279 155.66011644671684 C883.7524991940517 120.13823025011435, 883.8081456314085 83.7084673090672, 882.4199499611278 24.09546856605401" stroke="#000" stroke-width="1" fill="none"/></g><g><path d="M876.0636399851148 17.317052682552383 C935.1891306204019 22.18054776956483, 995.5151334678654 21.057492302668873, 1086.4134409083235 20.592336423592993 M876.7512421417072 19.60664729725027 C940.4410072486197 19.829317236939264, 1006.2361165439567 20.80835217645645, 1087.280633180995 18.396680312589034 M1086.546127100143 17.026448357886284 C1088.274890122577 54.48624423787661, 1090.0128303594183 90.06984194604811, 1089.47170910586 162.00064357502106 M1088.850285375683 19.543849290531146 C1089.6327364430254 61.910907440830854, 1088.77056643608 105.92486300327836, 1088.4913559346876 160.81774595140007 M1088.7609357038039 159.3201182759045 C1009.1308028033822 162.3477114764512, 925.4790789781841 163.46341714052306, 875.9172577677773 161.08975072215642 M1088.1972923858298 160.81795913670925 C1035.2672055285711 159.6546381542128, 984.2120224999692 159.61327996607508, 875.8301018908614 160.3793514846575 M876.189991195196 160.84167465284744 C875.206130456271 119.4345635332864, 874.9175476814131 81.101571667553, 876.1453845195068 18.28119725661198 M875.5339343954768 161.97067561009962 C877.1386741175521 114.49110793785508, 877.1348573958443 66.98413211556529, 876.7257044295797 19.425535804653602" stroke="rgb(0, 0, 0)" stroke-width="1" fill="none"/></g><text text-anchor="middle" font-family="Consolas, Courier" font-size="20" fill="rgb(27, 14, 139)" x="982" y="115">1969</text><text fill="rgb(150, 100, 28)" text-anchor="middle" font-family="Consolas, Courier" font-size="20" x="912" y="55">id19</text><text fill="rgb(27, 14, 139)" text-anchor="middle" font-family="Consolas, Courier" font-size="20" x="1052" y="55">int</text><g><path d="M883.6303714034567 26.497030861188392 C905.374514103308 26.06835002290102, 924.330801698603 24.89862247245801, 941.3554478106386 26.830385607527127 M882.106095985961 25.91115521817881 C896.3758079202804 24.163791209649236, 909.3404942763136 24.685487258986715, 941.3735689839033 24.641362702046024 M941.6408942365357 25.517270101097928 C942.0415256109936 35.42483722330104, 943.2264263053098 48.42561541515515, 942.1480876543242 76.52796953743851 M941.5296811400358 24.49821446820453 C942.1310487660725 39.54787675803435, 941.4931368489565 54.71829942692379, 941.3690530099417 75.15004333605741 M942.8947642220685 73.49684478392386 C924.2249085688888 74.84883290019911, 906.0871148396542 77.01026478585563, 881.287309245108 76.98345916931677 M941.0546869508889 75.01701650240015 C921.1863578726579 74.86633785391128, 898.4964460004807 76.26174601704254, 882.8775307141511 74.81092416087132 M882.7821830070324 74.44735124637576 C881.527364485885 60.50264858392371, 883.6901362987899 49.11445778092337, 881.2268821859063 23.97278629862643 M882.8914173990721 75.06597447174184 C880.8838659748127 61.78748927961143, 881.264306339929 47.70111632702699, 881.602627839389 24.03068138318725" stroke="#000" stroke-width="1" fill="none"/></g><g><path d="M1021.8323371153133 24.935813189021296 C1043.828838422499 26.39451352533793, 1070.5347596941233 23.008031041008653, 1083.514163078893 25.953242467860463 M1022.0385427264836 24.29853242074978 C1043.1488668754027 24.56014144543557, 1065.501920866863 26.158488347538686, 1081.0594072326162 25.405471656212868 M1083.0204356926486 24.33214650212412 C1081.5255696572228 41.944041841342425, 1081.3926672852397 61.15813559234491, 1080.3327085246476 76.86627224517986 M1082.7449531248963 24.672583889668996 C1081.988938141801 45.34916290122281, 1081.8183680297604 63.04630813683389, 1082.9633783444476 75.67727379914568 M1082.2678825844275 76.6676578360874 C1063.1499643856937 75.42091537781445, 1041.8165316425625 75.98300413780991, 1020.6527623837952 75.75016743469537 M1082.8580272412203 74.60106065069023 C1063.9752799017642 76.05393880863411, 1046.4872601970853 75.14771036045764, 1021.655067811873 74.247894821854 M1020.0804411540115 76.03199413411457 C1022.3255516935392 60.4608087289935, 1023.5958965109561 48.483891666629646, 1020.9251075515022 24.690179599930627 M1021.921210903468 74.84196283962643 C1022.2080415153682 60.32565653618457, 1020.8054341073873 48.01534218093683, 1022.3961602081458 25.29094335989235" stroke="#000" stroke-width="1" fill="none"/></g><g><path d="M256.2027269602144 254.07136997221707 C310.63923915685575 253.91996270728782, 365.3371066154766 253.60105019534544, 459.35844221995893 254.36336480271694 M257.74749355392305 254.59737423949804 C332.58617663958864 253.05777551372177, 409.21189585185516 254.43533727563096, 458.18607505829857 254.27069590871264 M459.7407811667932 255.19519826646854 C458.97346336266673 287.3745606238887, 458.76314018230676 322.75711736533043, 457.65649836677954 384.34755099158406 M457.5678540440065 255.08221623283728 C457.0994010503422 296.4338395357481, 456.1606594283546 337.3321945689372, 457.08371832995056 385.7914170639184 M459.2709558820814 386.2634248522244 C413.3882011549773 384.24427106049137, 367.16994991021 383.37229957532696, 257.53532087351357 384.6982297367898 M458.5409918141884 385.8882636651946 C387.16683594226953 384.07353066836544, 315.716820811029 384.31765077086834, 257.9761345329767 385.0784874487451 M259.8454121866385 386.44027758448954 C260.1166305596343 348.2557739923434, 258.1244493758074 313.33468163886215, 258.31609346524766 253.30382641921707 M258.6591336608504 384.3026507097538 C257.9203488189761 353.3317510499092, 257.8510315630761 322.18701727011944, 257.5733002387224 254.78279634699018" stroke="#000" stroke-width="1" fill="none"/></g><g><path d="M252.71495616942227 250.233607312326 C314.3989389875887 250.49501310231827, 375.31821148894704 250.2080169940543, 463.4268435058216 248.2532581384315 M252.27510181270284 249.13810309410476 C326.50062359595285 250.19877141808797, 401.2524296468461 250.48674301389963, 464.13467667144937 248.89174136746095 M463.20638707782723 250.82034063431774 C463.2475820232328 296.03200487856185, 466.8431496395518 345.6625277958089, 462.4011244872499 389.56010665698227 M463.41329955573246 248.55535970230827 C464.54691016609564 287.528455944589, 465.0633407174843 327.64539285292034, 463.3218516894611 390.18020827914114 M464.9595568221647 391.8489521775744 C396.1941645255368 392.71119438939576, 328.46575707040284 393.35779867704235, 252.90627914558607 391.02624198100534 M463.810860230873 390.8518370084583 C398.46811024403615 391.24615908179425, 330.8803977437588 390.9993398065029, 252.2173496799059 390.8119427673991 M251.5207344557271 390.3781356410333 C251.43370084934176 350.74627375626545, 249.3630821087862 307.27447001412014, 251.7437672740422 249.25411163542114 M252.84219226770125 391.0485845220207 C251.12700785826715 354.42517525858614, 252.06440593493545 317.7378829462858, 251.27897036160806 249.7067899435559" stroke="rgb(0, 0, 0)" stroke-width="1" fill="none"/></g><text text-anchor="middle" font-family="Consolas, Courier" font-size="20" fill="rgb(27, 14, 139)" x="358" y="345">True</text><text fill="rgb(150, 100, 28)" text-anchor="middle" font-family="Consolas, Courier" font-size="20" x="288" y="285">id32</text><text fill="rgb(27, 14, 139)" text-anchor="middle" font-family="Consolas, Courier" font-size="20" x="428" y="285">bool</text><g><path d="M258.0754646201293 256.2986801492997 C278.00080781724137 254.960974589255, 298.4054252861266 255.63345039814962, 318.03846272735507 254.6813994130548 M258.4680058360195 254.75990398167298 C273.44783050272173 255.16742533402024, 290.0606585362293 255.69673206049757, 317.3972084029918 254.2258519608312 M319.1238154755954 255.25168254277227 C318.4962149078183 267.15446093714746, 318.29092016956105 277.49902460718323, 318.8371164527813 304.4185913398978 M318.59116434914614 255.7162580530364 C318.53355930389773 268.4495369584279, 316.8759264507341 282.4095681714101, 317.26671677043277 304.8203795570403 M317.3984025675827 303.670477537145 C295.6116350869475 306.4891623505059, 276.9755753665385 306.15152251147373, 257.87659522842046 304.8501633774374 M318.2208532280037 304.73006799447154 C295.6458049870326 304.91379987963256, 274.767528636223 306.00453578335697, 258.25902289125463 304.3978064911444 M256.67306152004545 305.9339818700862 C257.212197865557 285.0915880284608, 256.4192146329475 264.10151599440945, 259.73367259651025 253.43443437189143 M257.1373512691557 304.81408082699596 C258.68295925561927 292.0343285451013, 258.1417971289407 280.15843472493395, 257.0422344537326 255.00310494965248" stroke="#000" stroke-width="1" fill="none"/></g><g><path d="M397.6259775872404 255.97334437542543 C415.95036660880993 254.93688370581495, 431.97755332850016 255.1903325261285, 458.2605515933543 254.95288959038803 M398.46808491109283 254.70324258824533 C413.727881886874 253.67225970755123, 429.9741453071673 254.78355844673933, 458.75487047420864 254.14685616606604 M457.672967765696 256.5624470901584 C456.5155929711699 271.4238236931452, 456.49255986362454 284.1467480841467, 456.737618931959 304.99924007763224 M457.0828273246593 254.26758539006167 C458.7099478457178 272.51905819094463, 458.0016279805976 289.4471278990505, 458.7144229996471 304.4296528030035 M458.4702382444439 306.17647765360755 C440.4328834487794 304.2834581102509, 423.7467408914138 304.6679050749552, 399.8228436294658 304.47660883577294 M457.7659343281031 305.5077935251803 C438.73532205435555 305.7244194018283, 417.506200540481 306.3215426755881, 398.0769939475118 304.9213330746325 M399.2136220418899 304.54479910366393 C397.9329688768606 285.13535723141956, 399.8571854823172 266.2510838984092, 396.56630275582677 253.33670864707727 M397.85340611918997 305.029656101953 C397.2311162047603 287.33766223865365, 397.1877406476704 269.71947461935895, 398.09569656772743 255.2759522856981" stroke="#000" stroke-width="1" fill="none"/></g><g><path d="M498.7973958185418 255.1341678461797 C558.1249609141731 256.0699106943477, 618.7437316323839 254.64487717777988, 699.5287541021055 253.68313486849726 M500.53553449177394 254.64736940827686 C567.3612143428963 255.76247235405276, 636.5140539491576 255.00013508114543, 699.612946081831 255.03000167497095 M699.608644121 256.2590374962312 C701.7384691004773 306.6842749243239, 701.4639776344098 356.3618709957524, 698.0259168087155 384.2478676352268 M700.6950930396539 255.6624028093987 C700.3616147949019 300.0304993907423, 699.4844507250436 344.79591262229894, 699.5056703765331 385.7664011740536 M701.2120316130245 384.9801437303588 C627.581116721728 384.77535673224213, 557.5225579360349 385.20176810701105, 499.4497753008138 384.07449943998415 M700.3348291064023 384.5170428311964 C646.0556321652834 385.51828522722263, 591.4348778524366 386.74327989613715, 499.5656626635218 385.87556296951124 M499.57539424946935 386.2500183889038 C500.35454893699216 335.9032453296313, 500.7739532180313 284.1049904213311, 499.6515881414992 255.5497852972961 M499.8401900229564 384.13622803206715 C498.94340452135754 349.16393817484277, 499.0311149825463 312.1408388498906, 500.35211015349864 255.29869262832688" stroke="#000" stroke-width="1" fill="none"/></g><g><path d="M494.1545593264435 250.5502040092216 C564.3851213774567 251.81533457888636, 635.9301437818741 250.64338849853044, 706.1571553329071 247.25488359853534 M493.4440360205437 248.2677934825911 C578.7244484135973 248.52191030411814, 663.9955882495149 247.65968339444493, 706.2400194771687 248.8930917996111 M704.0198916048859 250.93542395612454 C705.951107531327 297.21701629909165, 707.2576497758412 345.4897168521779, 704.0891671575906 391.4173623845145 M706.5234264270994 249.78555059544567 C706.3921747410894 285.53654715859494, 706.2909986365862 320.8283250005326, 706.7847428383164 391.60225559146966 M705.3758039612487 390.578415674897 C621.1687478795608 389.71514874840705, 539.8428329057742 391.22284563608474, 494.8068664284562 389.56391084407255 M705.8982707858364 390.4714667829507 C640.21198086328 390.86128814695974, 575.6015688041139 390.8096908982706, 494.12520452555304 390.5938748506984 M493.1137243434317 391.68777895299394 C495.6392989871684 349.5903405490586, 495.08673050839525 304.12845009329175, 493.05798326184066 248.71961214765477 M493.0974963179448 391.3247083782896 C494.0665843349075 342.95068035007, 494.8940091047732 296.6600891361858, 494.25699889952796 249.22309340138824" stroke="rgb(0, 0, 0)" stroke-width="1" fill="none"/></g><text text-anchor="middle" font-family="Consolas, Courier" font-size="20" fill="rgb(27, 14, 139)" x="600" y="345">"David is cool"</text><text fill="rgb(150, 100, 28)" text-anchor="middle" font-family="Consolas, Courier" font-size="20" x="530" y="285">id43</text><text fill="rgb(27, 14, 139)" text-anchor="middle" font-family="Consolas, Courier" font-size="20" x="670" y="285">str</text><g><path d="M500.4054377325784 255.77344488848414 C516.0551836315549 256.10335722892387, 532.3182725367091 254.51536328345983, 559.19986357562 253.92595774525853 M500.52657928152627 254.2794650951875 C520.5377574966168 254.59252764950097, 539.9541288570013 254.82932068880825, 559.9984005854732 255.5107414416117 M559.5160977629783 255.3033962879341 C561.000688116325 272.6926023808229, 559.872386752972 293.24517900498483, 559.8054444906766 304.1597851108531 M559.3954276377466 254.01739485009313 C560.3884084065782 273.7122746143236, 560.3333725472078 294.1537978111013, 560.41841063504 305.97761366635194 M561.8859259217052 306.4545545302801 C545.490648079902 306.08808935813755, 532.5162930904689 303.24560776789303, 498.10219844256653 304.55427474289263 M560.0614712484083 304.5934457518676 C545.0668554030805 304.72277615040974, 528.1850911672162 304.1571680075178, 499.6777418846119 305.96105191583223 M499.8319537083189 306.82503776146905 C502.1940367838539 288.5594977235802, 498.81906335618265 267.42856113231574, 498.5066819912517 255.01603636790475 M499.3003297533454 305.4747156947501 C501.39038318428055 287.69312727349785, 499.6365765139841 268.0694385601225, 500.27493489175254 254.34744088987748" stroke="#000" stroke-width="1" fill="none"/></g><g><path d="M641.0975489281411 255.04311243702537 C661.3480866906258 253.54561664372105, 686.9702807954995 254.18513733427525, 698.3767113039225 253.43474109740689 M639.3932882931578 255.882079967748 C662.4283910960086 256.23308426951104, 686.4939504756312 256.08444587280906, 699.9051654406703 255.5164402376205 M699.8191228702923 253.80118681275692 C702.2185721951216 272.9242068764914, 699.3394734262807 293.59488596802504, 699.6685070008203 303.2907766960581 M699.3019281558093 254.07839811333395 C701.133764398283 271.7147623263046, 700.3409481737784 291.0705344329933, 700.0261886176664 305.8139499442971 M698.6580408784843 305.8881404721373 C677.1213742641589 304.54129635709364, 652.7876571596695 304.5294835457038, 638.164208658101 304.49535790466877 M699.2016226191706 305.81473069573497 C677.5371015580982 304.3900031429838, 656.326079289093 306.1583470348927, 640.4689620612922 304.2238565175121 M638.0396015637914 306.07363663868085 C641.0814223559581 293.18986271631644, 638.1795955170222 279.4676445806041, 638.3437760155994 256.247054243038 M639.5190601738146 304.203367271051 C639.6182077824383 293.0711956666533, 641.0965712016957 282.81388821605805, 639.7319049966151 254.88677278760636" stroke="#000" stroke-width="1" fill="none"/></g><g><path d="M973.5549832223103 253.2848366236929 C1038.8756865504438 254.52278765624078, 1105.796527900593 254.29085806805622, 1172.6856314528982 253.8767817485613 M971.7612089159365 255.39646443195912 C1036.4379475475257 255.04889787231284, 1098.3370266024194 255.0031698731457, 1171.1062988333206 254.9237296481887 M1172.4856537741694 254.64540962514482 C1171.6862497843956 285.1001264014133, 1174.3717319708037 311.5800055471786, 1170.8782362230672 385.4675496602706 M1171.1886193508692 255.37826547344105 C1171.9022907106794 287.76293214720476, 1171.4565685886687 322.02216226444705, 1171.5668018568495 384.2095603428681 M1171.6834498645546 383.9106928630328 C1104.5278060974342 382.87828364526314, 1039.4071251832615 382.64699405715436, 970.4977744904702 384.27867498928083 M1171.5192663392952 385.82800443483615 C1120.8502572695436 383.85060153641297, 1071.5681137995698 383.844199327554, 972.6353320684237 384.7492638895812 M970.8720463934569 386.2993613918832 C973.7160453234608 341.1680997068534, 972.3064656070775 294.17964098679346, 973.0827184355721 256.18671541710665 M971.4891719479949 385.66368877304075 C971.5651299709215 334.00576753320826, 972.4143616042113 281.3951443047944, 971.0033953491112 254.28875843983548" stroke="#000" stroke-width="1" fill="none"/></g><g><path d="M964.5582585109744 247.91934243792113 C1022.3488043310817 248.50989556745176, 1078.6750977614788 250.4330621808537, 1178.2238666990509 249.40478312719893 M965.1471879229867 248.27615057453087 C1017.308759073489 249.5470373567507, 1067.7498500868383 250.38698275864806, 1178.0463194504057 249.6906808148486 M1177.178515459356 249.55355010401365 C1177.819993401452 288.3232707699705, 1178.1191771058282 326.45138298025915, 1176.2687740108104 389.3041215689519 M1177.4387001564132 249.96325100866545 C1178.9804818371379 293.5904919920652, 1179.0646848377662 339.63334778093935, 1178.7564341026173 391.9811982449367 M1176.2734021622437 391.61802063200605 C1121.939748164155 393.08864596185254, 1066.0726547963664 390.41505148909977, 967.6608143957988 392.5032541141676 M1177.873050124015 391.1065844377406 C1103.0987645367557 391.76737166605585, 1026.4905598699631 391.12458372613247, 966.7091332637485 390.9116079458897 M964.0719589482551 389.86948321628773 C965.8036011941236 361.81443312809023, 964.2658873366088 330.3945058309598, 966.327855850239 249.83712583178064 M966.6409175321415 390.56425089793936 C965.2080748070907 361.5431924163787, 965.8605487902137 331.4525161223155, 966.4902557152916 248.39912055288016" stroke="rgb(0, 0, 0)" stroke-width="1" fill="none"/></g><g><path d="M997.227312474707 321.7678467061195 C1011.4842915166793 319.1400852735506, 1023.1153448478282 319.13690748761417, 1053.9774952465198 319.4103890975736 M997.1128101283917 320.5018736017016 C1019.2288972623579 320.1938942098318, 1041.3067913434334 320.5726795997993, 1054.1886766456478 319.31022778036726 M1054.3620495875518 319.49317221633737 C1055.774722196561 338.45954829991007, 1053.543413991363 356.731778611277, 1056.4276959103127 370.29895589593735 M1055.8744495785959 319.8292961228019 C1055.6788413258905 333.59369484020687, 1055.3667873951856 347.72968094272056, 1055.5248716826372 370.3828949967797 M1056.0043387306105 368.5963960583979 C1038.2294591953162 368.99676603481373, 1023.2034485631563 371.2495177412412, 998.4463152269856 371.21546443510175 M1055.2810812250925 369.53987959817147 C1039.269428303442 370.5802449912878, 1024.4353156884345 370.26650997257275, 997.3911884606058 370.42384134311305 M998.3884671575361 371.8651583204755 C994.8851546586825 356.39462326987973, 997.2725544914847 342.0805602991547, 997.9334153671989 320.3082689584913 M997.7102927371676 370.3935827355392 C997.2419002623285 353.669108496342, 996.1950949304179 337.92611633560676, 996.2698425916223 319.4835542978433" stroke="rgb(0, 0, 0)" stroke-width="1" fill="none"/></g><text text-anchor="middle" font-family="Consolas, Courier" font-size="20" fill="rgb(150, 100, 28)" x="1026" y="350">id82</text><g><path d="M1055.2458387791323 318.6286083682783 C1074.4245675826755 320.135077111381, 1092.5070083667097 320.8062757244322, 1112.5925254927852 319.1326951954671 M1055.0094841797636 319.4386950357239 C1074.936681590663 318.7026816556513, 1096.7642521319176 318.6478101960781, 1113.54256207491 319.1965994382743 M1112.7931913062628 321.1831740161377 C1112.2153100000933 338.93558865890407, 1112.6539774681 358.4885177814987, 1113.3563697587795 370.37249530702655 M1113.657780315919 319.15822472680725 C1112.745155537641 334.290014545788, 1112.6287955161881 349.87743017699256, 1112.751942097149 370.3779567570298 M1111.8253358036322 368.6426653960007 C1097.5830444636501 368.1270677522741, 1083.4330961718788 368.40247702279504, 1054.812813965862 369.6981740874757 M1112.9647290723087 369.2822316555676 C1093.1340121274686 368.66650963084777, 1073.6882497201068 368.94322901752554, 1054.7988787271813 370.4295164496746 M1054.8427867000962 369.3318733788945 C1054.0922048359757 352.6110197936144, 1055.5624880578866 339.18873161198184, 1054.2299601440857 321.9554033332644 M1054.5377992274973 369.95573735159365 C1054.9335438590238 354.73539480909096, 1054.4665439799455 337.94360288045164, 1054.6474872275621 320.5844147138161" stroke="rgb(0, 0, 0)" stroke-width="1" fill="none"/></g><text text-anchor="middle" font-family="Consolas, Courier" font-size="20" fill="rgb(150, 100, 28)" x="1084" y="350">id76</text><text fill="rgb(150, 100, 28)" text-anchor="middle" font-family="Consolas, Courier" font-size="20" x="1002" y="285">id11</text><text fill="rgb(27, 14, 139)" text-anchor="middle" font-family="Consolas, Courier" font-size="20" x="1137" y="285">tuple</text><g><path d="M973.91051944453 254.3828082470966 C994.824133981135 254.64961403546545, 1017.6297505137459 255.7094468220289, 1033.201349907734 253.77477848661115 M972.7887767517699 254.57537168168358 C994.5109433857787 254.8597184267566, 1015.9199532442933 256.367686558978, 1032.455379747879 254.91399839580376 M1033.0845303335698 255.58359361623693 C1030.5992597338566 270.4353202626998, 1032.008403034921 288.06537972857296, 1033.200221588053 306.3885736423374 M1032.3924753157382 255.81926657145797 C1031.0401550803592 272.8208695427105, 1030.8347880068432 289.4443637818565, 1031.7645981704682 304.57798849121355 M1031.8232107731435 306.43429591845177 C1009.7462710793327 305.19295426125336, 983.3775387757271 304.48662404451704, 972.5537222717123 304.4865725179348 M1031.9121281473697 305.52434266719575 C1008.492294793482 303.9424725128367, 986.0693565918144 304.08075654280236, 971.3208673528117 305.33068649633634 M970.0930622458411 304.0860342539768 C972.0655203890325 292.77177171417765, 973.3881916810941 282.38493342576805, 970.7907834032748 255.20815982408573 M972.5977986782752 304.8567836834332 C972.0494454127816 285.1723855636593, 971.746327597314 267.75941503052803, 971.5168699159568 255.63993606521456" stroke="#000" stroke-width="1" fill="none"/></g><g><path d="M1100.0220699908546 254.30806676503252 C1119.0709312300585 255.49175315347233, 1137.9419333097712 255.3398915953508, 1170.556816557313 254.07325649153196 M1101.0951772895091 254.30708648618298 C1124.5098025192372 254.71115770380231, 1148.292266200519 255.21147038841005, 1172.6343971557685 255.07026486185376 M1171.6951825993297 253.12946510555847 C1170.8921992366834 270.2852579692574, 1171.4519708926096 282.5914330964567, 1172.0263726554015 303.1126185154815 M1172.4969382800305 254.8334680837741 C1171.7118541655486 267.89667373729003, 1171.5294079899124 280.7927692162303, 1172.9645267985702 304.04127562932234 M1171.0701763984243 303.46050173136206 C1149.5211014600186 306.8100590539911, 1127.205536940426 303.30086182569386, 1103.6063091689487 306.24457895176505 M1172.043453228752 304.04299223411317 C1148.8383518996247 306.1586373814708, 1126.4925500942666 305.5436307074133, 1102.047511015778 304.41153308622864 M1100.6473895654538 305.9166036428002 C1102.2413239886084 291.2898264968455, 1100.1749836050585 281.9532439260203, 1101.2857836928426 253.9856843712149 M1101.8448637789127 305.85676798450277 C1101.7862591487155 288.3092222263723, 1102.4482247664164 269.8079690379325, 1102.49681345301 254.21585196382907" stroke="#000" stroke-width="1" fill="none"/></g></svg>