<svg width="942" height="275" xmlns="http://www.w3.org/2000/svg"><g><path d="M176.74363021625004 24.284400420113787 C232.22637300899672 25.826354737562703, 290.993588403722 25.27122993789693, 372.45951286087757 24.048958050689137 M175.39973479572134 24.018026144338222 C228.303634247697 24.317622407599124, 282.4279767715656 25.2536536109841, 373.2169452179241 24.894213475926232 M372.61351451903255 26.58527178900785 C372.4783022534214 75.24043462561023, 371.90290053268313 127.89720264684955, 372.26259285414403 248.93687216309212 M372.4690512877886 25.450137723282722 C372.17459354731955 104.06399201411644, 371.5581521748149 181.61151238528421, 372.26885762303084 250.39550583859636 M374.6288620020248 248.5248675949423 C307.76062816235066 250.02974533608128, 240.61338215117658 253.4687139982505, 174.44089356025975 251.31414246078216 M372.90473760789837 250.66586072592065 C314.72010737057417 250.74743014627768, 255.25985532990475 252.36868320914562, 174.57023227761368 250.51627429262572 M174.5617321593199 248.47739265227415 C175.22384244039938 200.09743218071503, 174.01369864737694 151.86446065150847, 174.32075659947236 26.1076325205533 M174.25783650555587 249.53181718463998 C176.48287401603872 167.08721797562615, 176.2871189357637 83.97096390712262, 175.05976945575648 25.504522342627947" stroke="#000" stroke-width="1" fill="none"/></g><g><path d="M299.7011431655473 100.5714254429632 C308.5011349650751 98.57207697484677, 321.54898884014926 100.08287047236308, 355.3981895901677 99.62475218517046 M297.80359724667017 100.42416440596148 C312.4168470471086 99.0285879690131, 324.9020395485004 99.46005644578437, 355.9656897157224 100.4593736085934 M354.5277938910862 99.65695636638688 C357.42354937679323 114.79801229666444, 354.30845085085343 130.76543608436245, 354.9978968056203 151.96307734132995 M355.3805960134263 100.09310676095433 C356.1484411589446 118.2377067669001, 356.9898014241939 137.71538452760038, 355.12934127839424 150.1434338040004 M357.4072769319711 151.4988284448442 C336.61279485964775 150.99307858596978, 322.40586661538657 149.99967207830878, 298.62202688981967 148.63886073418513 M356.2282626542362 149.45235144308046 C338.81181480272056 151.27600086366405, 323.05291091522344 149.73746876393724, 297.9783609012799 149.42805061294865 M298.8012356403858 148.5663709607356 C300.20691468591247 136.52137884071203, 298.39791378562734 119.19411705843287, 297.0107425125431 99.68120253493291 M298.7453406759867 149.5660236014789 C297.7909093747449 131.14084170249063, 297.35416659179884 112.77199518685799, 297.6246606429062 100.83059126934108" stroke="rgb(0, 0, 0)" stroke-width="1" fill="none"/></g><text text-anchor="begin" font-family="Consolas, Courier" font-size="20" fill="rgb(27, 14, 139)" x="200" y="130">age</text><text fill="rgb(150, 100, 28)" text-anchor="middle" font-family="Consolas, Courier" font-size="20" x="327" y="130">id12</text><g><path d="M299.2772475035734 174.75755654363704 C318.180049481338 173.43378449204124, 336.8725659916957 175.0303138510248, 355.7698363644149 176.7746329488036 M297.1518177719186 175.73674471550459 C313.35734055299827 175.75901326089945, 326.93791842134857 175.7911170973491, 356.90829448838014 174.63992172749195 M357.15897119556615 175.19187448350664 C357.8219280927791 196.17400199350365, 355.19780565112944 213.25171645240974, 357.0129794268636 224.4149416388604 M356.6625930234881 175.56914580665344 C355.7214030287677 188.36314661953307, 356.6163087942503 202.15253084502334, 355.54981189952855 225.01895453808376 M357.3824929547719 223.04525016341918 C336.76032418928486 223.70762675662377, 318.8728431387546 224.8141487259073, 297.9476754311425 226.61076399967527 M355.38049240708716 225.25286272683408 C334.88777835008347 225.58989629171833, 315.4163025478653 225.18416298760954, 297.32168624606703 224.30339132936663 M297.23339705821616 225.0464802833946 C298.76592269393046 214.36182592189715, 298.7292449526892 200.74105825834795, 297.7253035736997 173.85577408749273 M298.66673917786807 225.1713441756296 C298.69406800728547 211.07882406257573, 297.79055915710467 195.61954048480095, 297.7974446492616 174.90985023647852" stroke="rgb(0, 0, 0)" stroke-width="1" fill="none"/></g><text text-anchor="begin" font-family="Consolas, Courier" font-size="20" fill="rgb(27, 14, 139)" x="200" y="205">name</text><text fill="rgb(150, 100, 28)" text-anchor="middle" font-family="Consolas, Courier" font-size="20" x="327" y="205">id17</text><text fill="rgb(150, 100, 28)" text-anchor="middle" font-family="Consolas, Courier" font-size="20" x="205" y="55">id99</text><text fill="rgb(27, 14, 139)" text-anchor="middle" font-family="Consolas, Courier" font-size="20" x="332" y="55">Person</text><g><path d="M173.98636482352927 25.733059035990767 C188.9752796706821 24.999618715417277, 202.95456543157468 22.811192901048212, 236.7101051682497 25.019278251541166 M174.81559657417924 25.15298010394971 C195.43929401784354 24.173395498184707, 216.46958607354696 25.063666564770216, 234.24114525052576 25.010816889262653 M233.53908979978146 25.74960254425562 C234.12419711075833 43.29959759080506, 233.89233400700786 57.76557621678427, 233.46523528942956 76.4474425038202 M234.36103786682543 24.290617556282303 C234.6155992740037 40.71686937532514, 234.44790640331348 57.743006464436576, 234.07748412002144 74.73826590646095 M236.78830193743943 74.68356768879096 C216.93470458278372 75.2351244779872, 197.4773629691221 77.30261625606705, 174.36034217640324 74.68275201895305 M234.6135320280546 75.31477165286663 C213.76284540817713 75.21077527535328, 192.06649491484836 76.08909367715813, 174.43745535401254 74.9498697552067 M175.61796378670192 73.9045427373585 C174.0522434872064 59.86835498963786, 173.190244689118 49.01101322486024, 173.83891534110418 25.229401798509727 M174.5396270781295 74.50020846689026 C174.66960109516694 57.18016433481679, 175.73716809377783 41.060100912981696, 175.16915193628952 25.415419039360614" stroke="#000" stroke-width="1" fill="none"/></g><g><path d="M289.97570696387936 26.655275600850963 C309.7270204085382 25.069361558784774, 327.40096991811646 24.246508232512912, 372.24304198626623 24.45074048903331 M290.4510356606452 25.0910137427783 C321.4191233381274 24.829517860308243, 352.9060298995055 25.063337809211447, 372.4593981581207 24.152836505957335 M373.449881615812 24.081514231446448 C374.06790538335014 36.97017502523122, 373.5942102938587 46.524785744672606, 374.2356718028163 73.1238919554474 M373.6571972625104 25.30742221253344 C372.16952403591864 38.179498313589406, 372.80753597900855 53.16054070594663, 372.44910311364697 74.47706404388734 M371.72506587388074 74.58626417697961 C352.5150143094319 76.56933337991556, 328.69587645697493 73.03860220698736, 290.73049494585143 73.12158559616009 M372.9168576385217 74.84721283290233 C351.38850114735203 75.26990975250828, 330.7138727845468 74.11254042567647, 291.750114946214 75.18480020480831 M291.59851791152107 75.28642982134994 C290.0854288441089 62.50147395840612, 292.5391888208215 53.68732157080568, 292.10177416567893 25.511426728330697 M291.034594520299 75.61659241924886 C291.40636911482267 57.51531713805232, 290.8065469095511 39.35824790796549, 291.4559569265239 24.028624485897545" stroke="#000" stroke-width="1" fill="none"/></g><g><path d="M398.4516813204887 23.271759147222653 C457.3725972253997 27.57143469604923, 513.524606165322 26.541399729084475, 599.6713232374152 24.916836359814848 M397.9330201259906 25.55710435791717 C460.0482729100555 24.11229794520906, 519.8736839873526 23.595621190934104, 597.421117550563 25.06867134196589 M598.2025417627146 25.706081345734226 C596.68021648874 53.67377475299526, 597.8792692481055 83.6234045254583, 596.0009422031525 155.4096584546893 M597.5838325445815 24.309207524744657 C596.9003464122308 68.18903872138331, 598.4733796185715 111.01857677980239, 598.9861739078735 154.63106787524228 M597.1407558445754 153.7960364156219 C547.3954570033717 153.7376190744586, 499.895597466567 152.72776059721465, 398.79805261676574 156.63348034799776 M597.261326929925 155.03137893440788 C550.3629192271737 153.76261543461314, 504.6995135177983 153.69746773857747, 397.84312424386 154.1426056421889 M399.6111131512052 155.85781221310296 C401.0309378280519 104.79208069382659, 400.86022441414593 55.91554305234811, 396.9002789718003 26.75491324043736 M398.33443271649963 155.384476310319 C398.89254487212173 122.2503397164569, 399.20129353145654 91.2786377048486, 397.0475298519446 25.71079961378275" stroke="#000" stroke-width="1" fill="none"/></g><g><path d="M393.4466874914451 17.5008992328518 C459.13500483974804 18.437404065843364, 527.0389807255087 18.05479015820819, 602.8294344102867 20.509949219331205 M392.5439083551914 18.186843168953708 C449.30521261987553 20.796123977804122, 507.7468099025661 20.37338054775472, 603.1892118670218 19.29292041990064 M602.4385734133318 17.67765445502948 C603.1540579029046 48.745720918117, 604.1542225331408 80.47640193309797, 604.6158703290672 160.96702308749892 M604.7750761478392 19.42020527802505 C604.2534348747314 69.50531486993403, 605.9682142225415 117.86367073154496, 604.043755158799 161.87996588283434 M604.0384918361743 161.9308132478129 C536.856313716666 162.4489576688318, 466.70711039956 160.48864922502818, 393.0596155470974 159.28794062379313 M603.7162638239101 160.4293236840409 C522.5552186688066 160.23144552353318, 441.1225402175554 159.71623116153157, 391.8499548141386 161.04182375598936 M392.70134221300145 159.76873589907652 C393.89886805746704 118.8638825724235, 394.34383596288023 74.45169293551763, 393.2033346616705 20.35981541950595 M392.0652112280101 161.5589849759783 C391.6175737919122 111.2474312271161, 391.7073131788812 61.18026464793598, 391.87690155429175 19.091721468863398" stroke="rgb(0, 0, 0)" stroke-width="1" fill="none"/></g><text text-anchor="middle" font-family="Consolas, Courier" font-size="20" fill="rgb(27, 14, 139)" x="498" y="115">1969</text><text fill="rgb(150, 100, 28)" text-anchor="middle" font-family="Consolas, Courier" font-size="20" x="428" y="55">id19</text><text fill="rgb(27, 14, 139)" text-anchor="middle" font-family="Consolas, Courier" font-size="20" x="568" y="55">int</text><g><path d="M397.5983160937394 24.075618297208933 C418.58645806543876 26.66585717702868, 440.1863069707056 25.34482078225101, 459.6496909714883 23.578358982617672 M397.5865807141271 25.904839380431547 C416.84404042185315 23.766605572057742, 437.8893567627385 25.097860163797968, 457.1206837750747 24.0784816195725 M458.6756723454352 26.423342593621435 C456.8487394399932 44.53790587968689, 459.76169235244515 61.67960265443218, 459.03257857548624 74.44649058226534 M457.7880726244178 24.8127706114025 C457.1773566306347 43.47630577459369, 457.80092229358155 62.5072702245848, 457.3273731172673 74.46190639735107 M457.0416466447224 75.82174889957085 C433.0662613847343 74.9380188090158, 411.5306518500809 75.9447820131297, 397.13330664529997 74.42003952758303 M458.55703869155207 75.6112144290838 C443.80625670002325 74.83370878318999, 428.7937489745328 75.04519396226932, 397.83267289096426 75.27760745215821 M396.0340167408993 75.87593656175419 C396.28283853039824 55.943615414886395, 397.5762403607299 37.14489696592112, 397.31518074862475 23.42009188311061 M398.21377251962264 74.3015541532659 C398.82963233843196 58.54778805394058, 397.70622117960914 42.265913337752075, 398.00003274458084 24.511052621227698" stroke="#000" stroke-width="1" fill="none"/></g><g><path d="M536.5257538995024 26.941777369442075 C553.3993769417898 24.169504150624142, 565.1677313568418 25.865223891792276, 596.0062991128582 23.439194027848053 M538.5776532971762 24.058352672897417 C551.0550871349909 26.457089913978738, 564.7606941939015 26.13243684820354, 598.0733335722665 25.69295490130577 M597.1640679523173 23.690353733150097 C597.9605659249866 42.5259087897859, 599.0532452405625 61.657981144157894, 599.9571847534394 73.39819542481779 M597.3377226037752 25.36683567765714 C598.0849123656544 34.971155690119915, 599.1505303601233 45.42475632983046, 598.9645775252766 74.68819045842028 M598.5985129642718 74.9195546624716 C584.2215218075465 75.9761532552899, 572.7169791235373 72.94905186072005, 538.3327749824541 75.73067148578005 M597.4618357362409 75.97595369216128 C574.8042253167373 75.28983985674722, 553.1340438352987 75.31656448097003, 537.2461300429543 74.40006980611463 M538.1299879446568 74.82635936526603 C538.8028951784758 60.223765172877386, 539.7896607782909 44.683272194914075, 536.3651201776144 25.153301199654983 M537.3741737759254 74.36398723569859 C538.2470120224352 59.42757256347264, 538.0684847439701 44.632964390011395, 537.8833779452688 25.947372145503017" stroke="#000" stroke-width="1" fill="none"/></g><g><path d="M635.0521541379269 25.143377018882152 C704.0160167995303 26.032835451788547, 776.8347546921237 24.290945954464927, 916.5208733544985 24.662060739386792 M634.9237029766249 24.723132282920186 C707.3994578064312 25.746865906630344, 780.8150831401887 26.06708382724819, 917.3479416115674 25.152264907048217 M918.7056461132814 25.177354474054304 C916.9368269464366 56.32902600781637, 917.1134506494858 89.91966933179556, 917.4739294124556 154.12592889542094 M916.8855671794486 24.56899484176422 C917.8161985051065 69.60758336845873, 917.7207387247748 116.37813462642447, 917.9771557879533 154.08076863689195 M916.7355108980719 154.66726638454492 C833.5380953306815 154.35148216609977, 748.1868348929656 156.3574571464853, 634.0179126463298 155.34504699328556 M916.6024192848757 155.41956649382422 C847.9484917801644 155.17081169606868, 777.7512444448796 155.36384116305223, 635.264308386727 154.57285987333245 M634.0891291987185 154.21840529860873 C635.184575624023 127.93903036012094, 637.2472935788364 96.63283647922812, 636.3239490396209 26.044991724091293 M635.3695786647268 154.53338303370032 C635.4914521792041 103.06274905803613, 635.271615235003 51.87917365097359, 635.6830549726076 25.736276427432806" stroke="#000" stroke-width="1" fill="none"/></g><g><path d="M661.6372684469385 88.38907226858137 C671.6080710004794 89.65457602664421, 684.0573619751375 88.16983675236415, 718.5401225004671 89.05450958129454 M659.8217243033 89.62439495900914 C682.2257634199481 89.87246515020058, 705.4882573955275 90.04926807907164, 717.3287979706231 89.85800008806308 M717.3395100440238 88.68809595555936 C719.2273112158737 102.84608257617843, 718.3511386164092 115.12925812128522, 719.7807054147926 140.27699850819707 M718.8003648138198 89.8922138630986 C718.0033695585863 99.74991918175108, 716.8476100867407 110.39736522813597, 718.7798323085954 140.08145437447283 M719.3941988707674 141.162271928802 C705.4864347636998 141.368216062628, 690.5556085546303 141.59480113355355, 661.9334236469052 140.97685170392316 M718.9187080863752 139.27442127207246 C698.659269696806 139.89615931987544, 678.7363731726316 139.5978541463092, 660.658976525715 140.64563895093207 M659.8976990882708 141.23831759574628 C660.8102564002186 120.01252075044705, 660.4665342885236 101.49766336340595, 660.4062836461135 88.91187914176714 M659.3760680063702 140.67979715899804 C660.1214703578905 119.91381124550934, 660.5177514441857 101.1466605337176, 659.7618314435144 89.50046978919963" stroke="rgb(0, 0, 0)" stroke-width="1" fill="none"/></g><text text-anchor="middle" font-family="Consolas, Courier" font-size="20" fill="rgb(150, 100, 28)" x="689" y="120">id19</text><g><path d="M717.6618089872678 90.65360369350802 C739.5721226617243 89.79661846005853, 762.3184817506665 91.43582550672504, 774.2230889789669 91.80584103529232 M718.4139911393654 90.58510253202759 C736.6884856932282 89.0745571571022, 753.6372421099911 89.89664552312608, 776.732576225487 90.25154137037369 M774.4398100213261 91.23688437247594 C776.8957521445453 105.84141255018085, 776.7430242803381 119.63557208021662, 775.3202121926771 141.40706573945894 M775.4524324048891 90.0068293074944 C776.5132264160658 105.80942126421026, 775.3599873530369 122.99705299468368, 776.5682263504353 140.49314418625445 M774.8032409132734 140.48612698233828 C758.6627596896835 139.42498108583206, 739.1886244970873 139.8994705649855, 717.3849548360213 140.33277020682016 M776.0757120102625 139.2797385336497 C756.65482330481 139.76336668240583, 735.9665428462222 139.836203636206, 718.8785977032912 140.55247020869768 M718.6956272296969 138.1642146807234 C717.9879056477149 122.35431366766353, 717.6077215225766 102.81851052904634, 717.0702174842719 90.15911836621706 M717.8953471043397 140.7351695709195 C717.1107745287214 127.78248532725605, 717.9795340845899 117.16930046413151, 718.002861607133 90.50724453988255" stroke="rgb(0, 0, 0)" stroke-width="1" fill="none"/></g><text text-anchor="middle" font-family="Consolas, Courier" font-size="20" fill="rgb(150, 100, 28)" x="747" y="120">id43</text><g><path d="M776.9012721816571 90.06976380371387 C792.8281888312049 89.51274158380636, 806.7093588273364 88.71809422811198, 834.4570184549831 89.64388316428666 M775.3843847325661 90.44178103529468 C789.3981171965497 89.33774218047819, 801.9933227021538 89.52276502227336, 833.7409949196012 89.98783430718049 M834.4266100528048 88.74669861303224 C832.3861405658424 101.00897800636608, 833.2337066137862 115.10428585364906, 832.3487948950776 140.8298068417055 M834.8058532500295 90.43356627537572 C834.5987976093229 106.27454791893587, 833.9097612828256 122.93511422910684, 834.6920363023468 140.6306145863446 M833.2361938085324 141.82348619216933 C819.9338067202016 140.54448663743426, 802.9637475296618 140.23905957508657, 775.0432817686208 139.0223115442079 M833.1203348954818 139.4157909973383 C814.2329107776567 140.49570444569267, 796.1843505229174 140.17623282755358, 776.2407241066526 140.12281352980307 M777.72304355671 140.38809437022167 C776.0597474079036 123.9054019484479, 774.6570306375885 103.70572590978436, 776.3454488192878 88.86808229043405 M775.7449946968457 140.34179046232714 C775.0830837987196 121.28094039170334, 775.0783095917301 103.26855206797899, 776.9913204321426 90.9957992278126" stroke="rgb(0, 0, 0)" stroke-width="1" fill="none"/></g><text text-anchor="middle" font-family="Consolas, Courier" font-size="20" fill="rgb(150, 100, 28)" x="805" y="120">id28</text><g><path d="M832.1949505043614 90.11791126206768 C846.9245577776819 91.67046301056605, 859.6377618827612 90.5489732790982, 892.2704667345387 91.11304750944619 M833.7867538263017 89.59614192768319 C857.6462968717104 90.85639281096121, 879.8318207838503 90.96044059276431, 892.0764183678019 89.15543801066953 M891.7413095305812 89.41368621131453 C890.8519267323856 107.99380648888524, 889.8067044319118 128.91965122709942, 893.779802108495 140.33480172386044 M892.6950409966438 89.41515120744698 C890.8414796358381 101.27215474383937, 892.5154240779486 114.80638249431186, 892.7332064705204 140.23671116195564 M891.9594546249317 139.76491525657946 C876.0599592210967 138.55986082728344, 865.0196801063468 140.4079433989932, 832.7909901129278 140.84691005558363 M891.2908910066252 139.38357961733337 C879.6741287266109 140.08063820092778, 867.0935642851107 139.91975039718983, 834.7482838192792 140.24242691289427 M832.5874710319288 141.2691176847322 C833.9443989458326 125.6732172002074, 833.0817680898869 110.98065600895907, 833.965941562701 88.51647098026876 M833.4438152761297 140.7622854719362 C833.8908009411529 126.17656081910539, 834.5441785823919 111.07432520108645, 833.0056444882343 89.09899075546952" stroke="rgb(0, 0, 0)" stroke-width="1" fill="none"/></g><text text-anchor="middle" font-family="Consolas, Courier" font-size="20" fill="rgb(150, 100, 28)" x="863" y="120">id49</text><text fill="rgb(150, 100, 28)" text-anchor="middle" font-family="Consolas, Courier" font-size="20" x="665" y="55">id82</text><text fill="rgb(27, 14, 139)" text-anchor="middle" font-family="Consolas, Courier" font-size="20" x="887" y="55">list</text><g><path d="M636.5506700723498 26.678179254573173 C659.2288339328369 23.188105751488422, 681.4728858705575 25.232662114008416, 694.877664830317 25.035284659310793 M635.3651757392327 24.95108871863762 C653.0408642754622 24.48756103123047, 673.3292568960509 24.05596376895045, 694.6695541990003 24.26547293865068 M694.9851686505353 25.257040471690363 C694.5790006651383 44.835763790063794, 694.9739140961393 60.648292357624065, 695.0374815290078 75.88940635718157 M695.4039844509979 25.40309183861698 C695.2709910342251 36.83070836931058, 695.973213089916 50.306919376955534, 695.7099439221751 74.76909951654534 M696.2840022296101 75.6559258008996 C681.1623433794958 74.83845552564854, 668.6817424015726 74.06930906902663, 635.4302102828755 74.20332178966181 M694.797359941278 74.5069567940979 C676.8734471369811 75.03417838029135, 658.1342501953308 75.79270739925826, 634.5682166138531 75.20702919765873 M635.7872586372966 73.86582186997103 C637.2195562522588 58.951132030322086, 634.1506689130175 38.074403737864436, 636.8894059890364 24.366540392707268 M634.4229195128949 74.19855915751221 C634.1306482583118 60.307759993335495, 635.9657316209757 45.774927931147076, 634.1083280262106 25.198472207783265" stroke="#000" stroke-width="1" fill="none"/></g><g><path d="M856.8053875257515 26.73561516188776 C875.6736712242247 25.991303778508488, 892.7852917139588 26.936177606864653, 918.6241044253694 23.95132742287041 M856.6418872417685 25.026221501444734 C876.7926867706212 24.85392435159544, 896.8013951831774 25.733089758447008, 916.6502345411819 25.206739290833305 M916.7047923828097 25.931889118592377 C915.7564472182021 38.850566235674535, 918.8854529139055 53.5483649458296, 915.3165324674084 75.4731024647117 M916.1191962312558 24.783872717395717 C916.5572544868911 45.579352908796615, 916.4572001929793 63.70984820244867, 916.7049474989345 74.39239794929239 M917.6168159009009 75.8761942537344 C900.7196593720972 73.97458262894455, 881.8394911540374 73.12050072975151, 857.3437157917721 76.94802590082017 M917.9067137570127 74.78810557614882 C897.2619054851826 75.84693522238672, 878.207117763852 74.61674719771369, 856.2497922287006 75.84299250329967 M856.2024379118809 76.95602707107912 C855.7099816237543 59.48234042153635, 855.8689391256884 48.35337641477272, 855.0620274102797 24.824504276361687 M856.0691917517669 75.48572793068787 C856.6446764475617 62.573066082414, 857.4790797862131 49.57607028139636, 857.5978153793371 24.99661865315634" stroke="#000" stroke-width="1" fill="none"/></g></svg>