<svg width="1148" height="647" xmlns="http://www.w3.org/2000/svg"><g><path d="M191.5923837756779 101.94145420332345 C209.3337037945667 98.32529184041567, 228.42592506181248 100.99001999080113, 238.43900736118175 100.97874659877147 M190.14829109866176 99.908759058895 C204.88363104688997 99.63272070726178, 218.26087061696344 100.09841266885076, 240.43744677276598 99.36769508610571 M240.66838133005473 100.76357498966429 C241.7127719055893 112.22042090267388, 238.59198587140997 122.41744758817144, 239.40549624119757 151.46357855316774 M240.7669647377057 100.51795170819867 C240.63226676251148 116.54993687890014, 239.43342381769455 132.16473367882523, 239.42659765088223 149.0875128362623 M240.52775182256292 149.24546075733394 C229.09385306703302 149.62570068862118, 219.6962265612418 148.2180766161598, 190.18891015830206 148.83383258145025 M239.7255885900588 149.68385903161163 C229.8360687980568 149.73391691565718, 217.18704065226783 149.84389799430926, 189.39081306060845 149.056644247252 M188.81520053017275 151.07297314311316 C188.5311139811345 133.55751010113156, 188.74996451317745 114.67983225153753, 191.45348798373143 98.78919846331274 M189.23451874478695 149.35866123632212 C189.6851009005516 136.6819527923451, 190.68903854638967 122.08050636397896, 190.1579554732572 99.0256086862523" stroke="rgb(0, 0, 0)" stroke-width="1" fill="none"/></g><text text-anchor="middle" font-family="Consolas, Courier" font-size="20" fill="rgb(150, 100, 28)" x="217" y="130">idx</text><g><path d="M191.1905048868654 174.31834062194395 C206.83812410395862 176.54278046971035, 220.93608484495488 174.51615466367096, 239.6546556406972 176.53302324909575 M189.71953739982177 174.2098838780918 C205.95601268926077 175.25272600389548, 219.4115108719978 174.88741759461894, 239.6776390662273 175.50394843354832 M238.72094131434307 174.31320681095468 C241.83914348848856 188.706660779439, 240.5512697242292 198.80554511075547, 241.0071872875693 226.58173402406948 M239.35282335240692 174.98181577033185 C239.7566831603171 192.5063020748862, 240.95050601422423 209.6072949113687, 240.70738446561958 224.08711472223868 M241.36295444386204 224.34832607364447 C224.88037296675782 224.22555913374023, 213.04059094231346 225.8216165972468, 189.88212062386668 224.18565557472917 M239.56650084839796 224.9311574877303 C221.9810995066328 225.92791633926524, 206.16586759625574 224.90936962337284, 190.1187675955949 224.18353838256309 M188.3117980674338 223.16197779435214 C189.11859204561372 212.6184553178928, 188.40094429954883 201.56936758021143, 190.87756773303894 176.58500158516767 M190.4317095086091 225.1993422189931 C188.8272977550829 209.1547561539842, 189.07675127917332 194.41339279369691, 190.3848176158858 174.8330121896384" stroke="rgb(0, 0, 0)" stroke-width="1" fill="none"/></g><text text-anchor="middle" font-family="Consolas, Courier" font-size="20" fill="rgb(150, 100, 28)" x="217" y="205">idy</text><g><path d="M190.94337670588493 251.00928614843374 C209.36203088936657 250.82947188480784, 225.60750679310232 248.76425713359444, 238.5686035686118 250.75493551673225 M190.98898615556328 249.03207781766218 C206.16279322064744 250.28559213682632, 219.61074850601815 249.1973811587845, 240.3886925971628 249.38212199035672 M240.88752417672825 250.53968096261315 C239.891577595151 266.2818184332254, 240.69576922164137 283.6515145190746, 239.89598097202915 298.5841541011974 M240.30299842633562 249.4095451172418 C239.81304979674084 264.5763682594318, 238.63432205559718 280.1785103435385, 239.45855556733576 300.2758030531207 M239.44808474889115 300.77176625749985 C223.79107417619556 301.27869190958893, 208.1212636761743 301.7958396295723, 188.8915259369856 299.95644647654757 M240.94060290254257 299.14289321738977 C225.14050914289786 299.5812176371675, 211.9561033530489 300.63460382975586, 189.06031324344158 300.85265570206957 M189.84197949721204 298.93979876483246 C191.92709594146686 283.01280136921577, 189.0494750456957 264.52111328071334, 190.82152398116304 249.9572000433939 M190.65542159344776 300.2743116025007 C189.26220010410987 279.5677868181277, 190.2665188985833 260.45818710870947, 190.66118428638268 250.59271710544172" stroke="rgb(0, 0, 0)" stroke-width="1" fill="none"/></g><text text-anchor="middle" font-family="Consolas, Courier" font-size="20" fill="rgb(150, 100, 28)" x="217" y="280">idz</text><text fill="rgb(0, 0, 0)" x="271" y="130" text-anchor="middle" font-family="Consolas, Courier" font-size="20">:</text><g><path d="M291.8547859870404 101.61697593792765 C309.3902509646661 100.94066002647017, 326.27020547398814 101.11321622781115, 351.13402577349916 100.0278023045982 M290.4398578181061 99.425298653216 C306.98949654373166 98.75450856146368, 322.1587644150442 99.36137054878077, 350.05028038966776 99.36405451311379 M350.2315561479208 99.60675335491543 C349.9625789501105 113.1652736101009, 350.21073110027345 129.06129724215998, 352.832480728681 148.06340923173582 M351.9198927406977 99.71901979884375 C349.6631353921038 115.04217610474181, 349.6233322150125 131.39086397050121, 350.624855381066 149.8633916474133 M349.2797562712274 148.71512796892307 C337.15321991132487 148.29678398175395, 320.98406391576196 150.84087620010618, 289.0685401627253 148.0874389642793 M351.5668242105477 149.74600253808276 C338.693692679595 149.58798612807203, 324.50716006892344 149.75128205256337, 290.078469154311 149.1275434612054 M289.0699943903692 148.6225856753379 C292.01756711874015 135.63686005744466, 289.88691432041105 122.20498541849781, 290.18666215649546 101.08712492199211 M290.67278118362134 150.19290142055866 C291.1758971282684 130.8882119134786, 291.9244477588324 112.66251420705622, 291.2373914681357 99.07201983968932" stroke="rgb(0, 0, 0)" stroke-width="1" fill="none"/></g><text text-anchor="middle" font-family="Consolas, Courier" font-size="20" fill="rgb(150, 100, 28)" x="321" y="130">id81</text><text fill="rgb(0, 0, 0)" x="271" y="205" text-anchor="middle" font-family="Consolas, Courier" font-size="20">:</text><g><path d="M291.59748863637367 174.25720303037306 C310.8788977689879 177.30843289979404, 335.1221011727918 175.69534426841508, 364.80183825647083 174.1315828344214 M290.29964130398366 175.74621080284808 C311.8867180745218 176.34901058330456, 330.7158081726684 174.7077344525048, 363.76565860363746 174.39763971499835 M364.67527085083657 174.20562812664147 C362.69534285928114 189.23855109051917, 363.6047419105569 201.17043393576736, 361.7589012016238 223.94061473791973 M362.1380263825637 175.8564678010666 C362.1157108363338 187.3096353399622, 363.1317153616891 200.83637687124477, 362.04032109140405 224.93508771352825 M361.3458609060427 223.77617980850798 C343.0568180176049 225.80001860593657, 323.0052232268801 225.48940054754928, 292.9136897274046 225.45027535107988 M362.7332711354407 225.2818491875399 C334.433029112252 225.37987877678106, 304.6585227396996 225.7132984884779, 291.6659966142166 224.45168314981623 M289.6297860567732 224.9698335843116 C289.8737698546715 211.82475423243991, 290.29946837229636 195.28176291562286, 289.76955479658636 174.02952246713943 M290.1978323933133 224.1192243037738 C291.4653220538215 207.80434525901748, 289.79037629493683 188.96790847726223, 290.27190575330815 174.98425843739764" stroke="rgb(0, 0, 0)" stroke-width="1" fill="none"/></g><text text-anchor="middle" font-family="Consolas, Courier" font-size="20" fill="rgb(150, 100, 28)" x="327" y="205">id100</text><text fill="rgb(0, 0, 0)" x="271" y="280" text-anchor="middle" font-family="Consolas, Courier" font-size="20">:</text><g><path d="M292.8094923944773 248.08575476836367 C308.3639313886332 249.46728342195797, 327.86817388303433 249.59266747093795, 362.4043978692652 250.27311159431002 M291.1043130388959 250.01198489076214 C314.81845922965675 250.84850100668038, 339.90986042609165 250.98068068463488, 363.2962149882235 249.1558414409092 M362.9903015096377 249.52717158377115 C361.1838136870638 266.50664029421284, 363.1045529994849 280.38058145677263, 362.69629887992363 298.37378504670266 M363.8712210426426 250.32573501353156 C364.16213869912787 263.4058005380713, 363.96906884809164 276.07717876739287, 363.2799631711833 299.1487861839038 M361.7743457629975 299.39055134165596 C343.7234900506375 299.9366375523839, 321.89158064934264 302.2809907888654, 291.3711521179236 301.8120095988522 M363.7157845589825 300.18913098946365 C344.229970849225 300.47927939139, 323.9659710486164 300.6459197983115, 291.4476641253111 299.8004883265069 M291.83023579620306 299.6859432097269 C289.62964173460887 288.81188240871495, 292.12248073997256 275.44217437808464, 291.85055089305155 249.67642547490766 M291.1050204573581 299.7135339122086 C290.3394673135789 285.8291750760841, 291.19352278548354 273.10435449214094, 291.6344776289256 250.14942435020225" stroke="rgb(0, 0, 0)" stroke-width="1" fill="none"/></g><text text-anchor="middle" font-family="Consolas, Courier" font-size="20" fill="rgb(150, 100, 28)" x="327" y="280">id121</text><g><path d="M164.16950160715052 23.82545408461592 C217.93304321266123 24.38246233110002, 268.5680256066804 22.905341348292357, 376.3687723936236 23.347804503152762 M164.32409809883646 25.393571722046836 C225.09269394710657 24.39641479935586, 285.53977944833883 24.528327977633733, 376.937933299306 25.742375097757847 M377.33071377179596 24.65021408644912 C375.14561313044595 130.53937231366774, 376.7987146656628 236.53353771373804, 377.3092709704097 324.3123425544394 M376.6943137996732 24.929122189514857 C375.833683226349 99.49716216241613, 375.9082965906133 174.24514853075902, 376.81681863417685 324.3831440915216 M378.25378799533394 325.97093727376847 C305.0331793083466 322.38457107477075, 233.80655951458596 323.77896821337754, 163.40561380882835 326.1363977676227 M377.4303528245428 324.4980556106098 C333.0372796260545 325.48461350273186, 287.7287784730434 325.56637954530225, 164.5555240408844 324.5067408061072 M165.27949754151527 324.213248934088 C165.4047175588358 244.32266216379546, 166.00872450672443 161.712489782064, 165.14878171029383 23.72687854479658 M165.45643604578308 325.05182891359345 C165.35122760088555 239.539606543211, 165.43956719372946 154.38795770591315, 165.51909037953556 24.916672570756035" stroke="#000" stroke-width="1" fill="none"/></g><text fill="rgb(150, 100, 28)" text-anchor="middle" font-family="Consolas, Courier" font-size="20" x="195" y="55">id10</text><text fill="rgb(27, 14, 139)" text-anchor="middle" font-family="Consolas, Courier" font-size="20" x="347" y="55">dict</text><g><path d="M166.04285051453957 26.268714712208325 C184.7490899113186 25.105350398510673, 206.1238763045945 23.254071781100897, 223.37002007219763 23.768871406208156 M165.3716114867189 25.473993444421147 C185.45863248633233 25.748076714700616, 203.47009053489506 25.837942296421414, 225.22695023392586 25.931913759452723 M224.5282998880232 26.164597748127527 C227.2202031837791 41.806222761869925, 223.95917227179052 61.95713606937889, 224.28817889633703 75.37243579775358 M225.5632392155356 25.932150525744248 C224.28500357013786 42.602998732747196, 225.0067014756017 61.27535813480181, 225.29426916534018 74.08415626205256 M224.1740962874133 73.95873542989274 C206.59979558884135 76.56317365245597, 188.7363814114711 74.05569050540238, 166.69687229036634 74.64787900180627 M224.29048403164902 74.8380225429766 C212.38220473752492 75.34620671205958, 197.2956265055664 73.50389757441545, 165.95185824876285 74.19436118951545 M166.28224832792938 76.54213117412075 C165.20169239831577 60.21138839716575, 164.72140324608512 42.37427349166546, 165.70802673031818 23.89864291284566 M165.22531694551756 75.52842110332887 C164.67818294769705 54.76222102241235, 164.68834432450737 35.381409059167225, 164.14071618092984 24.99340331132502" stroke="#000" stroke-width="1" fill="none"/></g><g><path d="M318.0795062680809 24.906792576254393 C333.07678190440004 26.93722959023772, 348.1548790137109 23.889664614416695, 375.390339886923 23.66013908915311 M316.95255473505466 24.131286713710693 C329.5734198613971 25.47518871590016, 342.7927243080294 25.300326053016363, 376.9077646168408 25.903673850286825 M375.7278291653153 24.544477030771795 C376.04118216078587 35.410302762087866, 376.30038228539405 48.48380764311483, 378.52621938182017 74.63899040871452 M376.45830044573836 25.696195455081828 C377.5094102983141 43.185837665211395, 377.6690498938271 61.994002501625666, 377.87260027100774 74.44443877138526 M377.41708815670205 76.19923293174588 C360.25916814791884 76.22532321598406, 341.86446468836914 73.78362104408238, 318.41787017984984 74.45854310354099 M376.7927056616262 75.25045903678446 C358.952183142331 75.46201574504265, 338.72053223942095 75.33467716101633, 317.7453073595444 74.04311730027975 M316.8086377063853 75.59679190335093 C315.92408611869496 63.812549381125216, 314.8762538245488 49.63265807069009, 316.20050304002285 23.19880836234803 M317.7404716387269 74.71128318042469 C316.2394778271343 63.996882329786516, 316.1398441779758 52.58243628211945, 317.6616067900934 24.552676534920934" stroke="#000" stroke-width="1" fill="none"/></g><g><path d="M393.3430121163076 25.85311587246384 C462.5060007799513 22.54293997492002, 530.1305711396335 22.012576934495655, 591.441455610306 25.610054225535023 M392.6913204440484 24.062734410701555 C461.5756864493007 23.99492871905444, 531.5427794120245 22.782694931026832, 590.0996518400756 25.29746104660507 M589.524272206624 24.54488546117027 C588.9489620913225 109.62707480883275, 591.1893254077905 195.65541531693975, 588.7400072027684 248.970229852913 M589.1633662910491 24.355091576275655 C590.2567058483355 94.38296469521062, 589.9291255938481 165.02852360631078, 589.7845255741686 249.79354306966792 M588.3744541096897 249.99501029546755 C528.4695865821403 250.09885082155037, 466.50889223934803 249.4507729375474, 392.94635117488025 249.00239747089705 M590.0706382632856 249.2883685220183 C527.1745232788641 250.4965753395099, 464.7720718815122 250.0159797043809, 392.1599640222937 250.94761376195453 M392.64092979349755 251.09833691932312 C391.7076010839743 202.28972248513674, 391.77054957376873 158.75452909604437, 393.19468919851204 24.128623091679003 M392.44033611435475 249.72428357351922 C391.7438938724477 163.8162489054817, 392.33171791120736 77.99206497233565, 392.14884117316916 25.588170246828412" stroke="#000" stroke-width="1" fill="none"/></g><g><path d="M516.6864459923964 99.51228572758444 C535.416719831181 101.77915613424425, 557.685041311928 101.31909020834745, 573.9544621531992 100.53267039778163 M515.4261659808623 100.58029449887741 C536.7963112444588 99.96318560362108, 555.712651183969 100.1512530273269, 573.8236573242627 99.36610676418795 M573.4428520850081 99.83776644312759 C575.143714523005 118.91441639655876, 572.6718069748498 135.48434350777254, 571.8059657370504 148.95969524350394 M573.0091349788904 100.56195033321238 C572.3074506257994 117.65125918831171, 573.6451996699018 134.51644686475257, 573.56244670108 150.11822181913755 M571.9638367304908 148.1809048112939 C554.6799501435603 149.01985443490864, 539.5030333450363 149.45962383781654, 516.5141570439156 148.30738387996573 M572.1327789773354 149.17014083192336 C551.8320787688305 150.68007745188564, 530.1616893597592 150.68459708243319, 515.5580423051399 150.33194911545144 M515.5372858176223 148.07040059919217 C515.6981100327687 136.26027471829613, 516.3126375789643 120.35276568657693, 516.68079101374 98.57652615835234 M515.7604303636415 149.8273429526679 C515.8046313165188 134.08508406475644, 514.3245494630694 116.0466432171666, 515.6940273793684 100.20304473494011" stroke="rgb(0, 0, 0)" stroke-width="1" fill="none"/></g><text text-anchor="begin" font-family="Consolas, Courier" font-size="20" fill="rgb(27, 14, 139)" x="417" y="130">age</text><text fill="rgb(150, 100, 28)" text-anchor="middle" font-family="Consolas, Courier" font-size="20" x="544" y="130">id12</text><g><path d="M516.0264417400253 175.28315410874515 C527.4507669562709 174.3255681336403, 545.493608312525 173.57914244719316, 571.3880447902555 174.7901155792952 M514.8944319318967 175.9828433707142 C536.930050345018 174.112692748089, 560.0914110756897 175.78947606581204, 572.9788249877884 175.63883720919713 M571.9909245627048 176.59186325079978 C574.797701087882 192.25644274011574, 572.0115280674951 210.5816667654515, 573.3811271751284 226.15689201270703 M573.6270946073234 175.64020331921307 C573.5998475751746 194.03398793626272, 572.6154596148632 212.9182076552377, 572.2365598365748 225.66867734849563 M572.712068132792 223.2320668730618 C559.3956039210623 224.93559514509153, 550.0606813898966 227.21793654234006, 513.0145597815928 226.81559802171034 M573.2484106751883 224.9985975621786 C558.5904172804792 223.90087056149088, 544.4806444015064 224.91246920898084, 515.5042405864782 225.0240971491495 M513.6242252536632 226.35027170567326 C513.408853844831 213.6701360702384, 515.9572670423507 200.957729296195, 515.974197598814 174.03405804360008 M515.8415338108176 224.76172842483987 C514.5596678318109 210.70289069986023, 515.526356112287 195.23935312946588, 515.8453837474759 175.60200096485536" stroke="rgb(0, 0, 0)" stroke-width="1" fill="none"/></g><text text-anchor="begin" font-family="Consolas, Courier" font-size="20" fill="rgb(27, 14, 139)" x="417" y="205">name</text><text fill="rgb(150, 100, 28)" text-anchor="middle" font-family="Consolas, Courier" font-size="20" x="544" y="205">id17</text><text fill="rgb(150, 100, 28)" text-anchor="middle" font-family="Consolas, Courier" font-size="20" x="422" y="55">id99</text><text fill="rgb(27, 14, 139)" text-anchor="middle" font-family="Consolas, Courier" font-size="20" x="549" y="55">Person</text><g><path d="M390.90226330611324 23.35167353539139 C405.97157155306604 25.735620057155806, 421.0339476149116 22.47171113228856, 452.0402114960575 23.508225268201674 M391.6414365563504 25.382502184643528 C412.75099969918705 24.35323257922965, 433.7452016513176 24.401686792159097, 451.19207730345687 24.461480644166382 M452.7585560766548 24.876610671740828 C451.0902692113398 45.497888829245255, 453.28122597259096 63.953569288360605, 451.3067604351858 76.08383370293205 M452.1033966577416 24.07397058394562 C450.9424390848431 39.66341714177692, 451.9726601814788 52.41072325255485, 451.69707272625 75.84535710544942 M450.38660548698994 75.96034645222906 C437.0500646325867 74.25836376653236, 422.5417945870703 75.18017941076093, 392.498091704512 73.1834449682602 M452.734755249242 74.69960202767246 C434.11519106021774 74.88683794075273, 415.2287758400439 75.31908524435907, 391.146991510757 74.38018483677503 M392.72641174736293 76.15204075670297 C391.5978700535905 55.94086659448751, 390.68091002139147 40.18563328478323, 391.1477011127939 23.677859142704563 M392.87793690667235 75.30949898754513 C391.65882832202254 62.25572284959922, 391.2877699636465 48.15480257599163, 391.60148189432596 25.752660284316903" stroke="#000" stroke-width="1" fill="none"/></g><g><path d="M506.51927468608096 24.994164921709157 C541.987366059996 25.76524879321519, 571.8161885142626 24.556669628102448, 591.4226709503098 23.833667090699578 M507.26357481622273 24.401744099334426 C535.5828545761253 23.57407233588171, 564.1591252963415 23.8328527043081, 589.9502932030232 25.70845434448228 M588.7403448907683 25.42665294966784 C590.3353365440191 42.49209275814547, 590.3122485818345 64.96087293974512, 588.0987760404214 73.69802943579703 M589.2391282199237 24.67840539621011 C588.9533218657041 43.44985752181161, 590.0426408659778 59.2079209176882, 590.2893908570666 74.98336144833007 M590.9711941324009 75.44900705482166 C562.0163131343248 76.35947398955663, 535.3526655367478 75.3234069881124, 506.97973628737986 75.00435305915121 M589.7958160704571 75.20688790564672 C559.4889144113174 75.21916693173355, 527.6062882285291 74.06445823584899, 507.4188979372667 74.2079628540291 M506.14954582845525 75.08894904423539 C507.08985486533976 61.199166955856505, 506.66413043627983 43.02055956918713, 508.5496714690617 25.312821454843384 M508.2114999156427 74.64489149453605 C507.26099140244855 62.790567366886336, 508.3597098114574 50.21261392744642, 507.34214894832826 25.930263489363046" stroke="#000" stroke-width="1" fill="none"/></g><g><path d="M605.0291774235459 25.051753387745524 C684.2234389662833 26.452702241763912, 763.5328594124309 25.35633157660771, 887.5245678621988 24.74671599702546 M604.6255849453315 25.71404218026028 C676.69072758649 27.573705925618857, 748.1885161914624 26.514347240152414, 887.0747032917483 24.6365401798362 M888.0613613817467 23.164333226413966 C887.1877334876879 65.66613868209747, 887.9614798925331 104.37502466738565, 885.7711989858461 173.9830556702053 M887.4167998061723 25.762823420589488 C887.1990284627357 69.0565386461036, 887.4013043691078 112.31314347125041, 886.179782910458 175.74716317918762 M887.244618751824 174.62125514722726 C827.0100414229338 177.10899503836274, 767.871372519836 176.5941101192518, 605.6467037348546 173.5246153997702 M887.6148443038492 175.26674071820946 C793.3540966969808 175.762674575134, 698.1955088883738 175.20321817264696, 604.2751966910174 175.10867558967976 M604.3130435016524 175.85518616555575 C604.3838160867964 123.54041622340907, 608.2008299312615 68.07660508258805, 605.6024461077208 26.375248509914464 M605.7978803121088 174.4023453014518 C606.5470285019651 140.75318481474838, 606.087555747286 103.86947687868793, 605.2421319768893 25.83731948076546" stroke="#000" stroke-width="1" fill="none"/></g><g><path d="M631.5428195289891 111.07378347064139 C643.9375127822531 109.81368067893871, 657.6629149925183 111.94738150478727, 688.9114813714119 108.60034050774321 M630.7259664709273 109.57440416607388 C646.6567417947118 110.44103841236162, 661.9481944318746 110.36978043491347, 687.398561657206 110.54998697294867 M686.7358989376224 110.74082440174524 C685.6503476627115 121.55720274816719, 687.7511930591937 135.79508629429014, 689.751498221744 159.06893835905356 M687.5336624457988 109.9703145649335 C687.6142739048736 121.6613554387589, 689.1948853941216 131.570021316354, 688.9096878681379 160.60796839693444 M687.618209439304 160.58358067278368 C670.865518042959 162.1305941166477, 649.9853633902369 160.48516769842465, 631.2034733089938 160.5385560906117 M687.1130842520565 160.98771021405892 C675.1799520080812 159.75857966595277, 662.9828040902156 159.30600980275142, 630.640255006235 159.50066684729575 M628.7990839067256 160.07233624292348 C630.0883443085571 147.49223405713693, 630.7566668356724 134.78258354800778, 631.6896331073649 111.73240676607642 M629.7174407643743 160.79911467345033 C629.7912626253309 142.37720849757005, 630.5365683210014 122.56418457132696, 630.5843801729267 109.55767525837342" stroke="rgb(0, 0, 0)" stroke-width="1" fill="none"/></g><text text-anchor="middle" font-family="Consolas, Courier" font-size="20" fill="rgb(150, 100, 28)" x="659" y="140">id32</text><text fill="rgb(150, 100, 28)" text-anchor="middle" font-family="Consolas, Courier" font-size="20" x="659" y="97.5">0</text><g><path d="M686.5755915580005 110.38702153206057 C700.6530141766568 111.23464938040755, 717.4813171826331 112.00895358640577, 747.9215468991175 109.0552417216005 M687.6647050808465 109.32230173039446 C703.2040662562963 110.55977482207503, 716.6057926569954 110.59193911498743, 745.7631117531794 110.20633398657779 M746.4103305466826 109.50108518990227 C744.3019695652907 127.29238440890714, 747.1334536982156 142.8441655563749, 747.6108963361834 161.27933190440712 M745.7573221897958 110.91562707894843 C746.9592100050753 120.52331898885397, 746.9736582248958 130.75096090686918, 745.9880257131118 159.33508511481767 M746.2695043488912 159.29514421537698 C727.2366408713084 161.3036437017237, 709.8851226607402 158.86463889714864, 689.2964888557577 159.30043921276837 M745.0295588466271 159.44459852733362 C732.3151613569614 159.80312330421413, 719.7145179621945 159.1007527526697, 687.2189328391719 160.16909184909557 M689.3344156147974 160.3679055564518 C688.6269412485937 145.0034160983299, 686.4667124853927 132.67754624563332, 687.9885105960165 111.61068539649915 M688.3763397284067 160.51231198652806 C688.5701069954023 150.22550919074484, 687.7835848474374 140.2971294135475, 687.9260885814083 110.83964858502188" stroke="rgb(0, 0, 0)" stroke-width="1" fill="none"/></g><text text-anchor="middle" font-family="Consolas, Courier" font-size="20" fill="rgb(150, 100, 28)" x="717" y="140">id10</text><text fill="rgb(150, 100, 28)" text-anchor="middle" font-family="Consolas, Courier" font-size="20" x="717" y="97.5">1</text><g><path d="M744.5201387621639 111.80004507651195 C767.0703544142252 107.83329847336687, 790.4481803357049 108.28641428837452, 804.8512791955774 109.08295047453271 M746.7837001078916 110.1622452920779 C767.5782056581866 111.03370561304263, 788.060384953521 110.27325644791887, 804.5048794659227 110.27090643384118 M802.4126080702777 108.1996851421136 C805.2173313291013 125.96698008667573, 803.7656912553224 146.1617884246189, 802.2909487584931 160.69013120433846 M804.6998741483071 109.1825303112028 C804.9222455080495 122.70227703085062, 804.7618242819237 136.60947370405128, 803.8285595164824 160.47650316941332 M802.195871949203 159.6291022429267 C786.1853947088548 158.08429182838262, 770.2751385091851 159.14372082051145, 747.4999528389278 159.13548315791022 M803.9308167016948 159.47976113220884 C788.114259379602 159.070343151373, 773.4016634507822 159.85296601848637, 745.740284695672 159.28181932356887 M744.9689638651602 158.04951904859306 C747.1751526526562 142.95240993529407, 747.0222276227042 123.85186112147618, 747.8178918270728 110.9557349565816 M745.8701522563683 159.44611298001757 C745.6540373954667 147.61514609688646, 746.2079973882501 134.78815987909564, 745.570046306637 109.26182846047031" stroke="rgb(0, 0, 0)" stroke-width="1" fill="none"/></g><text text-anchor="middle" font-family="Consolas, Courier" font-size="20" fill="rgb(150, 100, 28)" x="775" y="140">id90</text><text fill="rgb(150, 100, 28)" text-anchor="middle" font-family="Consolas, Courier" font-size="20" x="775" y="97.5">2</text><g><path d="M805.7688513325287 111.71809419852374 C823.161666751951 109.75950934439118, 843.2419931545562 109.86773900726777, 860.2745282599183 109.61657807346407 M804.8265615252797 109.18632833921355 C820.2907227816124 110.39549132289929, 836.7245466275481 110.13361048999799, 862.3202434900041 109.57171620684674 M861.4847363686487 111.64365115895237 C861.5650373418075 124.33003610950604, 861.8440160034054 139.80382049576846, 862.446883234439 160.9170216743343 M861.3271216103662 110.24537882792104 C861.0904713728061 122.80345395831878, 861.7381162997883 137.49226133140928, 861.3947386421437 160.1351523551037 M862.4701579286532 161.44842115033663 C842.0252242515073 157.84289891731973, 817.529340008476 157.79833617224784, 802.6241118429551 161.26393122096192 M861.4122271083497 160.71219885057587 C849.5041075784919 159.94996577550523, 836.5474194509244 160.346047073943, 803.2707436477759 159.74762293342275 M805.2613639079265 159.79814831621678 C802.7574603775421 147.114931198165, 805.3085762017744 135.68996962066916, 803.2428324547906 109.30899104997224 M803.7290326166881 159.22414428246992 C804.3892918196918 146.44589987402813, 804.078087784207 131.26863271379057, 803.165464338633 109.15508775383334" stroke="rgb(0, 0, 0)" stroke-width="1" fill="none"/></g><text text-anchor="middle" font-family="Consolas, Courier" font-size="20" fill="rgb(150, 100, 28)" x="833" y="140">id57</text><text fill="rgb(150, 100, 28)" text-anchor="middle" font-family="Consolas, Courier" font-size="20" x="833" y="97.5">3</text><text fill="rgb(150, 100, 28)" text-anchor="middle" font-family="Consolas, Courier" font-size="20" x="635" y="55">id84</text><text fill="rgb(27, 14, 139)" text-anchor="middle" font-family="Consolas, Courier" font-size="20" x="857" y="55">list</text><g><path d="M605.9728910842506 26.396050170569413 C622.0029500374319 24.56785524103514, 637.2252827466085 26.49364554648187, 666.3611234566249 25.097238028247478 M604.6429315725492 25.848728709602426 C625.0954978917208 24.621647778246732, 644.5888938848519 25.487269363528377, 664.3253941571236 24.118826363915744 M663.997492028361 23.067778064928007 C664.303185974989 36.61292660210711, 666.5622293548328 49.23983593162748, 664.9221731380364 73.7320651743482 M665.7719424373379 24.408769146246797 C664.2750960491094 39.05575395854362, 665.013097730145 50.84744225485899, 664.3278423780098 74.78498231159305 M665.8663064714699 74.36508595087545 C645.0082556418035 74.24835118478471, 624.3930013371214 74.62850676038893, 605.4586498521408 73.78042930286168 M664.6736452202637 75.26258968232558 C646.7806634156312 74.79573162176307, 630.3829867343906 74.58704162183106, 604.6727374373617 74.64596165817674 M604.9732401108674 75.65135129991398 C604.3497297704716 64.29059722598208, 604.9195837617125 50.7582592915616, 603.7265571885807 24.911039289757593 M604.8103618219777 75.00350625925192 C605.3356569308127 57.18900743860323, 605.2072643322323 38.1730198611625, 604.2135458392668 25.205435736035806" stroke="#000" stroke-width="1" fill="none"/></g><g><path d="M825.972087363375 24.788422112368323 C837.7232441704188 25.479291161281395, 852.9671918984227 24.20097771516965, 888.9300089863985 26.920240043594514 M826.7381333111141 25.268794408750203 C849.277486021825 24.858376227994558, 871.3417155040739 24.33632404562544, 886.0382567400047 24.896504707015147 M886.6034835962702 23.36974911752195 C887.3528345563817 37.46207426529665, 888.1373489782651 46.70661682520954, 885.0519297211758 74.92675374505744 M886.7767749806956 25.43756431434175 C885.7657311847464 37.46893303199586, 886.562496926548 50.791763596400685, 886.6985399779812 74.237822390772 M887.5581962561445 76.97066298598455 C872.728385232918 75.80841743550894, 857.560634432252 77.01680715563268, 828.5295837288288 76.03626817324964 M887.5762803006277 75.07363315448859 C873.3856791682739 75.6589545676458, 859.1495555504448 76.08261075573952, 827.7996903933068 74.37372069463882 M827.5756381342773 76.58561622426646 C827.6058795502349 63.012362633104004, 828.8630340997082 52.246446716278236, 825.3899577008538 23.995057273380695 M827.6044994285444 75.50836263581404 C826.4447580061711 58.70092550978521, 827.0438030026959 41.57726417231576, 826.1285726977152 24.36719379904053" stroke="#000" stroke-width="1" fill="none"/></g><g><path d="M901.4041655070102 25.23319570274001 C981.5896590781695 22.131733116994276, 1061.11934608469 23.099402758141903, 1100.721138368324 25.138774720886698 M902.5102131258848 24.68622807522101 C943.698825264787 27.11136215772616, 983.3261595015704 27.065900508929982, 1101.6667871488098 25.805260218589304 M1100.3239058531105 23.779850116883516 C1102.8850894466493 72.28020471769399, 1103.2170432041694 121.3818235576996, 1103.7838532130281 153.26483959858757 M1102.4263433541435 24.39581159556603 C1102.4249243943423 65.43869429455815, 1102.037579334252 105.90104362468391, 1101.2419977139245 155.67018033970055 M1103.4171999383902 153.2211659250206 C1021.4645143483474 155.93813800208338, 943.9481503650715 154.8177613852313, 902.4128583021676 154.90567115572813 M1101.9160866917152 154.973924421848 C1030.9905882473806 154.26927097783445, 959.2206758524428 154.36192887117613, 901.8700181274678 155.23071329415154 M902.8196943471343 155.80895986652996 C901.8161966802487 128.57258183522222, 899.711400362623 99.18390291341917, 903.199505556019 24.59106646120597 M901.0382838141496 154.7297221303937 C902.0590236053488 112.90353204398855, 900.5515003833225 72.6495553902262, 901.2403349668192 25.37622985476045" stroke="#000" stroke-width="1" fill="none"/></g><g><path d="M897.144569900727 18.012361688567015 C949.9581483513064 19.460272213770928, 1001.9578707014792 18.36986103419062, 1107.3275702345975 19.97635274606926 M895.211875242949 19.32172073640643 C964.2102911733225 19.141794765137348, 1033.6965982383408 18.78556455264532, 1108.2860289727093 18.6690308538376 M1107.1398146094466 20.984857947534298 C1108.46015287759 53.32530458071289, 1109.1832922796407 90.07104597484026, 1107.9961389360788 160.12113830431434 M1107.8232990092913 18.773768921917934 C1106.9865213480557 53.4880481960269, 1106.6831817221828 85.61962370842254, 1107.715499955688 160.47973900110784 M1107.041428965513 159.4047767485425 C1035.1739403204524 160.930133740878, 959.7944791452179 161.17407329452567, 896.9488707983412 160.1478136565521 M1107.153530026401 161.82744436821417 C1024.1179465164487 162.1478023245607, 939.4816921305435 162.80528997050277, 895.9443901692752 161.15904027852872 M894.9272970349183 160.85350693653857 C896.9164753382333 111.9471086561994, 894.9083374761016 64.48205009628553, 895.1143510014781 17.917067743460702 M895.3223046531567 161.619923207339 C896.7880585085552 115.75060457404973, 897.5013066513335 69.88602937513564, 896.6673822667017 19.782917571680613" stroke="rgb(0, 0, 0)" stroke-width="1" fill="none"/></g><text text-anchor="middle" font-family="Consolas, Courier" font-size="20" fill="rgb(27, 14, 139)" x="1002" y="115">1969</text><text fill="rgb(150, 100, 28)" text-anchor="middle" font-family="Consolas, Courier" font-size="20" x="932" y="55">id19</text><text fill="rgb(27, 14, 139)" text-anchor="middle" font-family="Consolas, Courier" font-size="20" x="1072" y="55">int</text><g><path d="M902.6041941369504 24.92015999727914 C922.584576657735 25.407254563154666, 941.4439306537879 23.853568900324557, 962.3397318495887 23.37186040473783 M901.8551426053509 25.07455599795449 C917.2101206233374 24.66598591424125, 931.025015775144 24.936911104851713, 962.03858131634 25.238108991891036 M962.4168566872048 24.26926392226065 C963.216305252191 42.3766074394201, 962.7351016296367 62.73059953881715, 960.9805214330029 75.8182063331019 M962.306141515367 25.926668210493148 C962.3659403053261 38.27523388032654, 961.6091377738645 52.433606910450195, 961.4747720901825 75.47264352537024 M962.69855164327 76.42838188073947 C945.6552500571112 74.92830562925406, 930.651807473774 74.95583138788965, 900.0953017399746 73.99045720153417 M961.1041517374963 75.36312668641277 C948.1029517947665 73.58029344563766, 933.8620418441369 74.01195962178112, 902.7915450307089 74.15878646104095 M901.1481637777005 76.40753366046681 C901.2445472201748 54.617226594351074, 903.7619180490799 37.51824080960913, 902.7719102426903 25.670805653082528 M901.9855916658353 74.22850066287418 C901.7067374760248 59.96012002613308, 903.2716564144138 43.56026623649486, 901.653652870972 25.767944522055107" stroke="#000" stroke-width="1" fill="none"/></g><g><path d="M1040.8852448574391 24.98587443131605 C1061.2004831402903 23.65061720861599, 1080.1148460915842 25.306629144728706, 1102.5064395473073 26.668513241419575 M1042.54225102293 25.537105663517234 C1057.1961325045454 25.77325033848068, 1073.5495765980709 24.70657014545101, 1102.8658143257612 25.96009761510998 M1100.165870421243 23.60686760478928 C1101.920282624332 34.53861083042123, 1102.829278507587 49.0838701277405, 1101.6462926918625 73.91627722064058 M1101.4997117990201 25.402574369301952 C1102.0746888548072 37.65297525345814, 1102.100349993893 50.992455189959195, 1102.2798672077208 74.17929705268187 M1101.9617629864294 74.15951461873122 C1079.7766694917982 74.08517620821151, 1052.6709904045565 75.5122949509691, 1040.8506629602919 73.65361199044571 M1102.341123215869 75.0346875725305 C1085.3517892966736 73.84267817569733, 1069.704943976325 75.22091287015407, 1041.6912655233525 75.52593652544708 M1041.4850499873226 76.38992336945903 C1043.1576878458068 56.1555743086583, 1041.8747886804879 35.706356996499295, 1042.9729949914997 25.018398964581543 M1041.67582307433 74.16987105333159 C1041.1693068440234 63.43557556166107, 1041.5425893600543 51.79496778954359, 1041.2792073740093 24.60134352258193" stroke="#000" stroke-width="1" fill="none"/></g><g><path d="M163.99672685043558 340.72468325356084 C211.67955388871252 340.96128481926837, 259.2130046181063 338.0813832903722, 365.1978941431674 339.63659984384435 M165.41884424926482 339.4074649902555 C232.1514671464976 339.28433561205685, 301.2772668494855 339.35094126098255, 365.1074988206476 339.9374260541298 M365.80465312706497 340.80637581539077 C365.2816020669627 367.7338243888214, 365.2335818768768 396.33991753738866, 365.30868928173646 468.77482668658195 M365.89924791208773 339.13816930305694 C363.0885544075644 385.1826393373953, 363.5349695645755 429.65440862488697, 365.6917805424858 469.9004690502597 M365.8009592659367 469.16961572711983 C303.51659394892636 469.1213891168258, 239.85615546409096 468.348971621434, 166.46565260627037 469.4115178935401 M364.99884663956266 469.36830653229566 C289.9977893087451 469.99460877624415, 215.06103002663477 470.00088770468886, 164.16530597482424 469.6031536499918 M165.54448755633578 468.68756259018966 C166.72187822082174 418.51140833117057, 166.36010556144956 368.3957834020124, 163.52179302269514 339.5321400571967 M165.55722644772283 470.3438521247524 C164.84473014266675 421.1190667719066, 164.42068002865844 370.0787903747572, 164.84331913857233 340.3021811941675" stroke="#000" stroke-width="1" fill="none"/></g><g><path d="M159.84894199324262 335.12397628157777 C224.4363655309543 331.8936565145295, 292.155712638631 330.8035362276495, 369.8670513939589 333.18957706379126 M159.5541788612647 333.4985432083307 C235.46067047551844 333.5883011335303, 311.5741752154563 333.0663541506175, 370.7715589379068 334.3883274574054 M371.1101871895362 334.5134108919771 C369.7472807659704 364.723147185759, 368.6516643396476 400.42818658301786, 371.0380551325022 477.58456877291906 M370.5963576616461 334.6276785113867 C371.51059735038285 369.0097176763343, 373.10579160324016 401.68676196929664, 371.97345142271257 476.22597538613905 M371.06491986698416 477.64046349077626 C294.6129588438237 474.58055658290664, 216.27850021150127 475.1288096566274, 159.77825989810654 475.5978897081852 M370.9863465599858 475.76842722841695 C313.47615428367834 477.09541670381714, 253.801903264115 477.0699065052934, 158.21723014027776 475.24445987739267 M160.93300331308185 475.4548963313908 C158.12577487627638 447.40509360428547, 159.69115271084758 417.5044118855285, 157.342411824343 334.22045123359595 M158.68560909380903 475.75073260079176 C156.99285197458596 435.66925804698457, 158.64036112381325 394.1917821763942, 158.51605938705663 334.46606984487084" stroke="rgb(0, 0, 0)" stroke-width="1" fill="none"/></g><text text-anchor="middle" font-family="Consolas, Courier" font-size="20" fill="rgb(27, 14, 139)" x="265" y="430">True</text><text fill="rgb(150, 100, 28)" text-anchor="middle" font-family="Consolas, Courier" font-size="20" x="195" y="370">id32</text><text fill="rgb(27, 14, 139)" text-anchor="middle" font-family="Consolas, Courier" font-size="20" x="335" y="370">bool</text><g><path d="M166.21336670476927 339.2750876720427 C176.50806488075554 340.0101394756079, 191.28037145140794 338.5473566074711, 224.7449399185579 338.44134545180344 M164.9966410757532 339.4234545877442 C185.31150512017726 339.6959990533473, 207.5077804467348 341.1103300250738, 224.6117883388807 339.5926470277677 M223.69052094927682 339.6849497890186 C227.1801114552406 349.4347660597587, 225.8512642704393 362.203490411855, 223.81911873455738 390.8799125433623 M225.87278485711934 339.7372580684703 C225.36753730419997 350.8085905695921, 224.01392138508749 363.2626760675273, 224.84264342182803 389.1060923431695 M225.6568251464671 389.68147312979266 C210.70890933351316 389.4608654258597, 200.76984200050325 391.5759528953086, 164.6989036372934 389.8879942630377 M224.62638720794683 389.9757047304377 C204.42888042598727 390.2328831079905, 185.80166330019037 390.68423235118246, 164.32215935268252 389.1684088406692 M165.83645791093068 391.694824754928 C165.134682099346 376.5841801339339, 163.21698487896347 359.60823307316065, 163.74349280575134 340.7252315585565 M164.37648624282832 389.4315884723593 C163.81142435480743 378.899467132671, 164.75196555217303 365.9255177832728, 164.06006679603033 339.5003417387928" stroke="#000" stroke-width="1" fill="none"/></g><g><path d="M303.96986399630345 340.47083666206083 C317.7736015619361 339.59050896796816, 329.2221362620083 341.56828807150265, 363.19092117280644 341.5117278646329 M305.9744683863119 340.01679715202255 C316.70805852326674 340.3597961838576, 329.35826753286324 340.16462107458466, 364.5794355905575 340.906134818772 M366.0844498659965 341.27171255204183 C363.3009559430238 354.3436403554928, 363.703837625784 372.03801675949074, 366.87146691560474 391.17564453074215 M364.2672969495191 340.4967186488019 C364.4844733575119 359.9850797007771, 364.7178649034374 379.2868816009933, 365.7515255256845 389.9241896591101 M363.2590054865996 390.4436086058341 C347.25052443621723 391.4084497886209, 326.9251131261696 390.45260361623986, 305.9937734607585 388.18222906721246 M364.4268109195395 390.279016146243 C344.0733522002799 389.8103122235711, 321.3185268748502 389.43746174198486, 304.0832639297265 389.4293144486225 M304.79108263212896 389.38583300643774 C304.5323746605354 377.7709870248426, 305.49091645236194 364.3344319800899, 306.85786377405617 341.8102936166481 M305.2959653093962 390.28289387533744 C304.9418288385716 375.76150894926553, 305.2821654550677 361.9655019115425, 305.2491214519695 339.67959289596564" stroke="#000" stroke-width="1" fill="none"/></g><g><path d="M390.21261906214664 341.5428590925135 C448.5707409474398 339.1327025967728, 509.18084746957527 339.11144130546785, 590.2088867068326 339.8688513898735 M392.23517409956696 340.71869198232 C433.96589781126767 339.55583328551154, 476.96876186598007 340.5028856834098, 591.2867368034232 340.31474257281553 M590.0454184210583 340.2620070025001 C590.9774246815425 377.86649857220743, 592.741725851424 417.5311410179803, 590.4109129360407 471.952600856096 M592.8503934774353 340.56317431692264 C590.6083125395932 379.64857215835286, 591.6477415327895 418.62100868702896, 592.3576478635374 470.74148049994375 M592.5286892340525 470.1276875061974 C531.4571986860783 468.55571515470893, 470.6303321223601 469.3028380264709, 393.2953929864924 470.25262498646964 M591.2747210711756 469.5005991578913 C531.693892766917 467.84907991309353, 471.9512195906126 468.09680768635263, 392.72745676207484 469.37546624001806 M390.0714490977773 470.7675397357771 C391.418238190743 424.40732767820685, 392.0080492032241 374.5215386606026, 392.67315988264465 341.5920987705504 M391.2916680547843 470.2937912240249 C392.4576912291927 439.38715830906693, 391.74802182531585 409.75625169991343, 392.2205888633676 339.4856738381008" stroke="#000" stroke-width="1" fill="none"/></g><g><path d="M387.6297529564116 335.23774509707033 C470.067145335245 334.2899734411074, 553.0365256163038 333.5571014098808, 597.0974320588948 335.28635023124406 M386.7980872701581 333.5753215067158 C467.41746380718985 335.5665793750663, 547.5875150118467 336.39487133301054, 598.4013679847585 334.1835104468617 M597.2074904229258 332.7935847828595 C597.8002454960347 382.9227935496507, 597.7057604379676 431.9843162703377, 596.2755196429565 475.2174837375722 M598.3832892628071 334.58922136313265 C599.8798278309574 375.46935461990273, 599.1391695512568 419.11621040021, 597.3632668469846 475.41229629180464 M597.1213946406609 474.5184750710642 C529.7071212636357 477.0183950213887, 462.109101772635 476.1303756088032, 386.7767194383603 474.3412379891673 M598.0635173726414 476.61325926973575 C548.0478808729706 475.0548332159587, 497.2680793635599 475.1580085573946, 386.0065976511532 475.1882801644452 M385.82018414119335 475.78179740226295 C388.12010782478717 420.78304838717725, 384.89352732944235 364.1129768796004, 385.581892420508 335.9454389401603 M386.4865818492545 476.8104872635449 C386.2185610721414 436.27273666427874, 387.6674915726369 396.4851053409317, 386.22259205856744 333.9413112154923" stroke="rgb(0, 0, 0)" stroke-width="1" fill="none"/></g><text text-anchor="middle" font-family="Consolas, Courier" font-size="20" fill="rgb(27, 14, 139)" x="492" y="430">"David is cool"</text><text fill="rgb(150, 100, 28)" text-anchor="middle" font-family="Consolas, Courier" font-size="20" x="422" y="370">id43</text><text fill="rgb(27, 14, 139)" text-anchor="middle" font-family="Consolas, Courier" font-size="20" x="562" y="370">str</text><g><path d="M390.38547888210337 341.1539295530107 C412.89167421242007 342.00732802281357, 434.44201728564474 339.66628826658507, 450.2453134519104 339.0008950953082 M392.64852882194486 339.1494297302169 C404.716302447079 340.5243231703501, 416.24610945234997 340.40329550885406, 451.7342578563471 340.2032564670145 M450.42939379446926 341.06963131582665 C452.74507273389696 356.28271241920805, 451.5667111679921 368.51721434358, 450.76008238565305 388.99759630079797 M452.59717291530444 339.8798552828898 C450.92140963725836 356.7076877547942, 452.27038856323213 372.71154964289065, 452.9701966119442 390.92938895484 M453.6895878746623 390.6676084908586 C432.2816753026784 390.89241525928946, 411.2023855014122 388.3769217482148, 393.7369793003727 388.0393813966132 M452.82226229374606 390.85465909053687 C439.30539866107597 388.6924552103408, 425.65190173236226 390.1217908907637, 391.4281219327337 390.12342915927456 M391.5836712757524 390.11398779443266 C392.9448757295047 370.37361264240826, 391.82403728120596 352.63823230160585, 391.04795547380684 341.280773802365 M392.4778183664902 390.7211846438887 C393.145871671123 370.4144784073626, 392.3563888536261 351.50336378221135, 392.23903325919974 339.5536294117843" stroke="#000" stroke-width="1" fill="none"/></g><g><path d="M533.2115221621926 338.72882642864096 C552.625934949159 341.70068889747256, 568.3166573241709 341.5499492115239, 592.1246701860103 340.49803010100806 M532.3584436016457 339.85696840123103 C547.8917937885562 339.9220818496579, 563.0975059725916 341.18385523394994, 591.0872445777406 340.4834809964302 M590.1852618254896 338.3732903442863 C591.1829942965134 358.85998472006213, 593.0656011651906 377.66086500450467, 592.2890784468599 391.35334685651316 M591.9598136115883 339.2806864056619 C591.0982153904455 354.62839402291524, 591.6593300349797 369.319584892872, 591.7140624268338 390.391283788442 M591.4002035204634 389.8102244988876 C579.3733657560181 388.73420183852033, 566.7324753907707 389.3302834916731, 533.4632289277312 390.0280129387806 M592.6225881279971 389.9461032556927 C571.7386578720814 390.52997947500825, 551.5529062222669 390.0280074641128, 531.8300052983567 390.84115177177824 M530.7637018007568 390.8981033944038 C534.1792446666891 375.6451591993755, 534.1599733384318 359.2854330149449, 531.6622479997046 341.90698324807244 M532.5584422363329 390.1922550858922 C531.2557485819935 373.069966003097, 532.8256425542822 357.7269598351529, 531.1342497681903 339.6070603748244" stroke="#000" stroke-width="1" fill="none"/></g><g><path d="M617.3205943762212 341.4667265097708 C674.2083727741909 338.56014424134594, 727.3045340037321 338.0831661814863, 820.7638535232495 341.25993167823515 M618.5364676418232 340.7050188697913 C695.6478973132598 341.49034934422735, 771.3817861150113 341.5399970229187, 819.8019710758066 339.82712915826414 M820.8636214152684 341.18978887212694 C820.7328674704819 367.7631548489836, 818.3613326504709 398.6394847406849, 818.671497449969 468.1305108215482 M818.4774404441811 339.32434060072455 C817.7749936511403 378.2521158975526, 818.487432671539 416.2095917306291, 819.8603685299449 469.71704747485927 M817.9908767772329 468.86081926791223 C764.6792858659005 470.26807982396906, 711.5058072435329 472.0008834974366, 619.5389216945624 468.85261427425473 M819.4252566117266 469.7753527884017 C742.7673170026283 467.3525842621567, 666.2258236650157 467.77960928176407, 619.8352845332103 469.80954219999114 M619.7344235713626 470.0585433355948 C621.878031140172 436.08332541443707, 618.5320143333082 400.5006576069177, 619.0680933547495 341.78838005522834 M618.7411906060947 469.7245067293744 C618.0109041987926 442.9968330064153, 619.3803091012003 416.1099770224303, 619.7783573480267 340.1507451715938" stroke="#000" stroke-width="1" fill="none"/></g><g><path d="M613.8808364210532 334.93492214423765 C671.960580825494 336.05771442330456, 732.7714000517153 334.0604017896336, 823.4398080025985 334.17242005770146 M612.7587075345958 334.4135487911803 C672.2147283565708 334.07144428759284, 731.9598107605235 335.1248049312848, 824.544061452753 334.0518993248872 M823.7827124096392 334.1278118517647 C823.2335144571881 379.4775578657661, 826.3439959461608 422.77166592725484, 825.328727561567 475.8098121122252 M825.6377602396391 334.9128376173279 C826.5733567424672 366.6636580950773, 825.7907216407775 398.5252358176393, 824.0935382322863 475.8088269086877 M826.062136702178 477.4443576550005 C779.6257924332889 475.4684801725586, 736.2671754917376 474.0655514681838, 611.9779292370002 474.9047702733681 M825.3878672652191 475.379481517523 C743.0298845264587 476.87981180287153, 660.1168746135874 475.8761255068866, 612.1335662201324 475.92359596485016 M614.7966030621046 475.40952902854804 C614.6965673587001 438.93212509292886, 613.1123529671504 402.5291957663509, 614.6977758577586 334.3229231262475 M612.9677438079024 476.1305651075687 C612.931140646696 438.509932748122, 614.204677517535 399.0271084316562, 612.9170738941737 334.4844174173495" stroke="rgb(0, 0, 0)" stroke-width="1" fill="none"/></g><text text-anchor="middle" font-family="Consolas, Courier" font-size="20" fill="rgb(27, 14, 139)" x="719" y="430">"None"</text><text fill="rgb(150, 100, 28)" text-anchor="middle" font-family="Consolas, Courier" font-size="20" x="649" y="370">id13</text><text fill="rgb(27, 14, 139)" text-anchor="middle" font-family="Consolas, Courier" font-size="20" x="789" y="370">None</text><g><path d="M617.2771742353439 338.8624488666173 C642.2795678462179 340.1408602392662, 666.3901748740028 339.93194973399824, 678.5079321591136 340.550145971775 M618.0583130266567 340.2359510128618 C643.8039190509942 339.2316146206654, 666.3700818919281 339.92097629742636, 679.954400548136 340.59730853986224 M680.9310530383984 340.89650845676545 C679.0793447021356 357.5496245962839, 680.00268611564 376.6634628247848, 678.819344807288 388.44063865174786 M678.2175558936722 340.7206513952188 C678.8549512851013 358.48867489879194, 679.4841558365089 379.245634618585, 678.1051486097044 390.8120832583538 M677.603015991348 390.70061709710575 C663.8015034972104 388.3598776090335, 643.7545464381625 391.0028789340114, 617.6265391246832 390.4693962633928 M678.0768901762665 389.1280760610726 C664.2817641274985 390.6279393309326, 650.8976704813249 390.4232298177982, 619.6548434059091 390.8376859037194 M619.0808343442199 390.12226632406197 C620.1791297926146 378.5025423771464, 619.7477334256458 369.21227617056235, 617.9002916584691 340.03389376065815 M619.328678264461 390.2611858989206 C619.8793374818406 373.97417856824075, 620.0715222728777 359.61951279862825, 619.9222573533431 340.14302515668635" stroke="#000" stroke-width="1" fill="none"/></g><g><path d="M758.850228010914 341.179798106921 C770.4525171138515 339.8487622613117, 784.8825946630362 342.16182689579534, 820.5211216321828 339.86209508743764 M759.9237291360188 339.8820320834516 C774.1041827952447 339.38403882903737, 787.0615831504757 340.2159145199909, 818.4516437256805 340.39064571755983 M819.009756157516 341.191172111613 C818.7570936957042 355.39208614041667, 817.0383503731299 373.8153500355942, 817.6821970280454 391.10814531028683 M819.760237672321 339.49030647944465 C818.5227808827773 354.6602774903127, 819.6707683760123 371.3889629865743, 818.0482006316039 390.6737078389591 M818.5876585143747 389.82326802666165 C801.2053738493543 390.2880383152973, 783.9267108272844 390.7409257372507, 759.2279712921979 388.1214534093065 M819.4627272989571 390.9767396168252 C802.1015703699087 391.0058633397631, 783.4034149856169 390.2666095888079, 758.4831476560265 389.9776515463327 M760.0554891131806 390.1722898045709 C759.986385365981 372.16396338021076, 759.0912859693748 355.6255607134641, 760.4984483968713 341.3479148727234 M759.0678677325193 390.1572860378893 C759.3409464289874 379.3856807218148, 760.2384443083658 367.3731810622435, 758.9176993444901 339.5982121591462" stroke="#000" stroke-width="1" fill="none"/></g><g><path d="M845.9615389586154 340.3427965474493 C903.5903706931892 339.3955321971588, 957.4029060363237 338.1402608369505, 1128.2470055896795 338.7929004339925 M845.6009772021404 339.4485392796026 C954.0795073536532 340.65328658388927, 1061.7646160758075 341.0537456705195, 1128.586597670218 339.6641482942542 M1126.8844778869557 340.90489107579316 C1125.0546377235694 378.4603977316669, 1125.0080132494538 412.55882234814237, 1128.7227805137434 470.65026151721366 M1127.1438868045068 339.59026828054533 C1126.9851459919134 392.2295896409616, 1127.0645002150181 443.71447735986715, 1127.8257620142347 469.5814089430838 M1128.5356486324547 468.760400898557 C1054.953042219644 470.89006066150495, 981.789436931678 472.0211481099158, 846.649722957209 470.98245211931385 M1127.4201142719403 469.74972544370195 C1026.1517736421406 468.51997113740833, 924.2952073999592 468.3483054010157, 845.6533543736678 469.80321831300665 M847.9375341996857 471.52412056848084 C844.9099777793627 433.74014589577206, 844.9857948261745 394.6931065603535, 844.1660166541556 341.5326074650976 M846.4431940109129 469.79157797871176 C844.8973854637428 430.9608067694406, 845.598217780337 390.62891089017614, 846.2267025216762 339.5225559332405" stroke="#000" stroke-width="1" fill="none"/></g><g><path d="M872.494329183352 405.9789738221309 C890.5893123385737 405.27678728907, 909.9571234807355 406.15839619155304, 929.2116313762556 403.66413994873545 M870.5883188550198 404.2790794410167 C891.3414998171557 405.49267730133636, 910.4489158877374 404.49522849960715, 928.1444285194707 404.4955969092448 M927.3067524505211 403.31602555448075 C930.2129715827382 419.9663723803449, 929.8680623659052 431.784961985233, 929.8773703974927 455.0676928839997 M929.0223543481014 405.6637273672567 C928.9699304141849 421.8890018149542, 929.4120180822464 438.88086617173946, 928.9640253526262 454.4862843977778 M930.807236489603 455.7264149350148 C911.3893531830204 453.82159039797466, 892.1679503106116 455.9468880314629, 869.6362542250613 454.9202840568498 M929.9979689335895 454.7368007420947 C909.9551506894992 456.0716747492688, 891.1866105920427 455.32336340115995, 871.6191588738459 455.7007182827676 M872.0307494368202 453.15202014902826 C869.8814316330336 437.4092965170675, 871.5187775411465 421.02086430241826, 870.9379840387502 405.76971016641136 M870.6666108883653 454.01747480174095 C871.8378855346515 436.1123783564805, 871.7620685042418 418.9635651021435, 870.8262339745069 405.7373244794688" stroke="rgb(0, 0, 0)" stroke-width="1" fill="none"/></g><text text-anchor="middle" font-family="Consolas, Courier" font-size="20" fill="rgb(150, 100, 28)" x="900" y="435">id19</text><g><path d="M928.4563796371509 404.26382250462166 C944.8043512373417 404.8665198529596, 959.3750189374786 406.35705906464926, 985.6228277520443 403.86478276171357 M929.1573726404009 404.3001515488409 C948.378175659576 405.5766746412473, 965.9293946686338 404.7098929683832, 987.029497533503 405.63802745358123 M987.1450705953563 403.23936442053656 C987.1917431876989 423.29926200358227, 986.4142802518236 436.91779309101213, 987.6005882968824 456.9964410817837 M986.921975075825 405.02949623059266 C986.4996064878966 416.09611050429237, 987.0371469177488 425.63025116970795, 986.9516689542921 455.6920977876748 M985.4033260332496 456.62710102599715 C974.0152035084831 454.78335087623503, 963.2786939539063 455.89374542661596, 927.4210649757662 453.0432069435664 M987.2224708082571 455.11051579792377 C963.4829916907862 455.1891953853993, 941.4702827890764 454.5632305647104, 929.0394906448324 454.545297115085 M928.9497302592689 453.1287424935339 C928.015963123531 438.82591842593337, 927.8635679457915 425.13645409492034, 930.3857579333832 406.1096305254315 M929.4467414552792 454.9438948337807 C929.5085100550559 434.8774755928949, 928.410984593768 415.00219977787856, 929.1478697629427 405.4079054423196" stroke="rgb(0, 0, 0)" stroke-width="1" fill="none"/></g><text text-anchor="middle" font-family="Consolas, Courier" font-size="20" fill="rgb(150, 100, 28)" x="958" y="435">id43</text><g><path d="M988.3066176934534 404.7997549802508 C1003.7634571047428 403.5314447783885, 1021.5609982044265 405.52042320631097, 1045.5715373173764 405.70523193833947 M986.7710074630319 404.54165858097997 C998.5051236030719 405.27931837296387, 1011.0759781569366 404.74006985142637, 1044.0532892853416 405.7129023738568 M1044.9697558218866 403.38810530410615 C1045.2396719664332 417.88825198793705, 1046.094198989248 428.1167063057631, 1045.7259966646418 453.08259850539525 M1045.234572569991 405.72997938000475 C1044.835178391616 420.6100034146894, 1044.6720574381418 434.74757317107935, 1044.6567862712602 455.62662245470625 M1043.3374310202162 453.2499665487199 C1028.928921174597 454.1396218424895, 1011.5411993006902 455.66503741966864, 986.2966999089848 455.34907547306466 M1044.0493622943688 455.1650315020346 C1030.7754344193725 456.22163512147085, 1014.9749093476279 455.4926632599687, 987.2665433240508 455.489563273504 M988.9959272824499 455.142705919524 C985.3849004313158 442.72954430598264, 988.4458439564637 426.19536785085904, 987.1857424703437 406.9632459198444 M986.2111646124592 455.2263561286293 C987.2953299125263 436.6007879394689, 987.9634931726795 418.3729458046607, 987.9273807610649 404.4211266158614" stroke="rgb(0, 0, 0)" stroke-width="1" fill="none"/></g><text text-anchor="middle" font-family="Consolas, Courier" font-size="20" fill="rgb(150, 100, 28)" x="1016" y="435">id28</text><g><path d="M1043.9783956752528 406.27141749272863 C1066.124445571553 406.3028628951779, 1088.2985760272647 406.6203293140772, 1102.8000165610297 403.19142086406174 M1044.7588515733644 404.0791004436519 C1058.4455145031875 406.17537672028936, 1071.3112766467864 404.79400282578166, 1103.1320129072114 405.22416382785815 M1103.6665617321917 405.40513542432643 C1103.4587473768356 419.6389321661809, 1103.4348126327477 432.90775556573135, 1102.8611488794568 456.6282102330539 M1103.2404629103307 404.29978100710355 C1103.4981861780195 415.804031449658, 1102.935658202358 426.57304086190163, 1103.582490950841 454.6655005834781 M1101.5208058533785 456.47493427416566 C1092.79177858182 456.2896931974896, 1079.8672063712313 454.2957367078547, 1045.5222866285808 453.4870667285964 M1103.8166796854548 454.03402466000426 C1090.5020225471342 455.0347029522181, 1077.7439093132743 455.4603135050972, 1045.2294995993952 454.680466689095 M1046.942563895939 455.6894727153006 C1046.9637174198583 443.0086603333534, 1043.7232255842223 432.91110142146687, 1043.9352043921926 406.3875337674641 M1045.153748754126 454.0678665645944 C1044.8988633057686 439.32609752692593, 1046.3073439579423 424.25843383679046, 1044.5880564214003 405.624119583856" stroke="rgb(0, 0, 0)" stroke-width="1" fill="none"/></g><text text-anchor="middle" font-family="Consolas, Courier" font-size="20" fill="rgb(150, 100, 28)" x="1074" y="435">id49</text><text fill="rgb(150, 100, 28)" text-anchor="middle" font-family="Consolas, Courier" font-size="20" x="876" y="370">id82</text><text fill="rgb(27, 14, 139)" text-anchor="middle" font-family="Consolas, Courier" font-size="20" x="1098" y="370">list</text><g><path d="M845.5981753925647 341.6549925777512 C859.6495389865491 341.2085633124271, 873.9407596795555 340.5366375641624, 905.7399733713979 340.7575403503685 M845.4227236195627 339.3668558719638 C864.4302907600543 341.20261788344504, 884.2265029193411 341.01941085152396, 906.6908506837923 339.7874668822417 M905.411493091618 338.1256810566621 C905.7145910179352 350.0153362655544, 907.3191036797284 359.1448527657666, 906.3951984819832 388.66407377971825 M905.5429871053394 340.2232371669445 C906.7160856534966 350.45337375640264, 906.227227073285 362.83882888457555, 905.7668974308008 390.00161816354336 M906.5415685621873 389.0233549610926 C891.5467149782373 388.132396786456, 874.4594430925199 389.29128619629756, 844.054710013531 391.51977900682346 M906.4933173552438 389.17600679174114 C886.5947581521699 390.7483127890911, 867.2265258816893 390.70316740555836, 846.7846975269019 390.7041315530222 M846.6063519663858 391.500302358681 C846.0737817586473 379.9587489881663, 846.8114822620266 367.563427619178, 845.9046234663958 341.17766327534684 M846.4809459409331 390.1195439950862 C846.0289175787236 379.0400760805581, 845.6162549650888 368.04252403746284, 845.4459009068995 340.03041580459393" stroke="#000" stroke-width="1" fill="none"/></g><g><path d="M1066.43737601913 339.47443101261337 C1088.8521140221787 337.8279059138077, 1110.6528981661743 339.47971685812365, 1129.510349353607 341.61551161247434 M1067.7882543389921 340.35074282297944 C1087.6260466751537 339.9437012140192, 1109.7559065191667 339.64002694031905, 1127.2578032862796 340.6638866560667 M1127.4458944977996 338.8844330951469 C1128.7377003181089 358.447678233119, 1125.936214149721 378.14844797496727, 1128.913359403537 388.0287620596783 M1128.0699220105773 339.2621107006069 C1128.5983866327033 355.02318135062177, 1129.0349473996525 367.6935942245964, 1128.1185517546448 389.0688726504946 M1127.816688341489 388.54592125280493 C1108.6320354468985 391.6383581906157, 1089.1981294355357 389.2222757973938, 1066.998757205533 389.7519145125018 M1128.838868981375 389.9322029462158 C1112.4178155172378 388.65156180926607, 1098.377096142291 389.14218948533426, 1068.1375206667026 390.132820442326 M1066.9293813666968 391.0822126427639 C1066.3913642962063 372.84618040789053, 1068.7882322046516 351.30016424390647, 1066.4768622067652 341.69669237342947 M1067.5709234205358 390.6203146566714 C1068.088518678059 371.07851998020664, 1068.7366291179787 352.91100147126264, 1068.0625827836604 340.5126290601932" stroke="#000" stroke-width="1" fill="none"/></g><g><path d="M165.65747142196315 495.8024116877583 C225.6451782741168 496.2671483592742, 283.9522158209225 496.97950151304906, 365.54921225971145 497.6790950143839 M165.20937065492234 496.92284526850614 C235.29529366724213 497.9673763538281, 307.51763663965056 496.7016822445047, 365.85396001657364 497.6970525617104 M366.21187825606165 496.5970437642001 C363.67785855711054 526.2043638675515, 365.5841513802635 556.8041771646158, 366.64988623060486 628.9700245194244 M365.00220862582955 496.26811523118124 C363.9521801425169 536.9692981184226, 364.87130224712786 575.7316589090656, 365.72934654396397 626.4330941964832 M364.8802975473619 627.8654025334379 C320.1242476970208 628.2770846616655, 275.59989112716335 629.0987787631545, 165.993356218721 625.9807256620652 M364.38329980320174 627.8823821904424 C324.05939289340483 625.750250058538, 282.2210491269024 625.3287499600647, 165.61857258244262 626.6889484737272 M165.25611263817876 626.4215474039702 C164.72372797141972 587.7353669220198, 166.0513637504412 551.0015206043305, 163.95060864138006 498.6500086678569 M164.75040471757845 627.5394748092855 C165.0065027160589 579.5539970276976, 166.8798733192702 532.5086391350766, 164.9270971373395 496.03378529748454" stroke="#000" stroke-width="1" fill="none"/></g><g><path d="M158.587782091876 492.2913198784864 C232.9185176474768 492.32156601396616, 309.15432468614637 490.15591893352655, 370.9088410915075 490.6140127802114 M158.8976335531361 490.61011717607585 C216.431036661801 490.23024388937085, 273.8783261676357 488.97828751478204, 371.38609120096766 491.37960359236763 M371.58555253894394 489.62006124184023 C371.2930867651791 532.5127544943907, 368.64420459186283 577.7784679475694, 369.6824903174741 633.6934997656514 M370.5222232707376 490.44701209834926 C371.8021141687355 546.3280095396099, 372.01313386967433 600.4763582527925, 370.2257415437149 632.1506588729076 M372.1283285963505 632.8781347095124 C286.77246516906104 633.593940570079, 201.86333187008702 633.0299047217751, 157.78159821373424 633.1807134201849 M370.7849085380095 632.3542459374898 C294.527348590128 633.6244375449899, 219.30491637075843 633.1623131357453, 159.47643235932125 633.1173738063718 M157.23956932229 631.5816124306252 C156.38457843393974 575.7273128676679, 158.1041045893496 517.9762135176929, 159.4496025461797 489.1746261706206 M159.16132074272963 633.6438483816065 C159.97856929958118 595.3289531861808, 159.8265195418806 556.1034633992397, 158.29760126288997 490.4506253210569" stroke="rgb(0, 0, 0)" stroke-width="1" fill="none"/></g><g><path d="M190.75393303925472 560.7670636561735 C213.48901856055744 561.233633556482, 236.95469146247947 562.9419935429585, 248.74823120291518 562.9022745284855 M189.33767696570092 561.7011449966194 C205.0853509143559 563.0879845189503, 220.15840073918756 561.6488801438799, 247.27675389666035 561.3272591082452 M247.94259636772995 562.8890128183358 C246.72918208733321 579.0880564339649, 249.3055864383429 597.5243882666236, 246.98407941583957 612.1853701130342 M247.97871356767817 561.9122735554157 C248.709696717079 574.2009910883555, 249.13182457080129 588.201726691534, 248.07895964628113 612.8329874876899 M249.9821165837936 610.8584195477316 C227.14595747310292 610.4945134849496, 206.91253760297408 610.1122970224055, 191.35882369336272 613.2278466456975 M247.66423204691307 611.2467004808011 C235.4816078131388 612.090172813415, 221.51269984375395 611.54379595613, 190.52159244637272 611.3184919023333 M188.21932726952693 610.897180822032 C188.4572520237106 592.8276856727136, 188.87116042738492 575.0688844643855, 190.67019346498995 563.88297285443 M190.36732669187728 612.9248908189389 C190.21878930707692 597.7332615250422, 190.88223622508644 583.2280046261117, 190.58957513953342 561.5123047823056" stroke="rgb(0, 0, 0)" stroke-width="1" fill="none"/></g><text text-anchor="middle" font-family="Consolas, Courier" font-size="20" fill="rgb(150, 100, 28)" x="219" y="592">id82</text><g><path d="M249.1022546528358 563.4145984318997 C264.5500839275859 562.3932725005774, 277.50229886029035 562.772909556343, 304.58358521395076 560.7151602991253 M248.8097730885256 562.762464283757 C268.0016990293617 561.3130824903161, 288.20377717435235 562.2783594996085, 306.6257137920788 561.0828676701309 M306.52579327726073 561.4819499676307 C307.04569913770104 574.4549966314175, 306.9943486685952 588.2147108301809, 307.84457574062526 610.1188226295413 M305.0197311214015 561.9237561955164 C305.3017517189369 573.5998240480576, 306.56690238834534 585.9296738488755, 305.31207413093836 611.4092018916316 M307.0288202329085 611.7135703692334 C290.98261572647266 610.4045487945883, 277.12853059317763 610.4429651477559, 246.18053220178527 610.5191970461334 M305.8384580904805 611.9619264284482 C293.2434115943777 612.0232544717944, 281.95233878268374 612.9873747619536, 248.01812269345868 612.4051105685762 M249.79903484307604 612.0238790486993 C248.75029148102905 596.0629666401654, 247.73666683225227 579.24658537824, 248.44852842163002 561.0864212761531 M248.57646353691763 612.795475116275 C248.56545049371994 595.994646361787, 247.22990185739536 582.4930718292719, 248.11773021399168 562.9734357709607" stroke="rgb(0, 0, 0)" stroke-width="1" fill="none"/></g><text text-anchor="middle" font-family="Consolas, Courier" font-size="20" fill="rgb(150, 100, 28)" x="277" y="592">id76</text><text fill="rgb(150, 100, 28)" text-anchor="middle" font-family="Consolas, Courier" font-size="20" x="195" y="527">id11</text><text fill="rgb(27, 14, 139)" text-anchor="middle" font-family="Consolas, Courier" font-size="20" x="330" y="527">tuple</text><g><path d="M166.74440908253447 497.74793713034086 C184.7397806572797 497.2367509884991, 204.79733944677233 498.6190037148238, 226.72455582360232 498.29200736389464 M165.91384464102413 496.77387125256 C185.38925267063178 496.4557372916698, 205.02999399693275 496.28058860371374, 225.17060019422527 497.31160674811406 M226.65175001056778 496.39977955575245 C225.4523093212475 512.9668222260607, 226.42084300149114 528.1834941708074, 225.1056616416911 546.2023656210091 M224.4619849254688 497.0133660352058 C225.7942791388797 510.80542334292556, 225.01317716652693 522.4835917698529, 225.44044708844834 546.841812116513 M223.55600055884224 546.2213832849774 C201.45491940581644 545.2702596375351, 180.5106039869814 545.1048472346165, 165.80473942580417 546.5184912592216 M224.25163269923303 546.5119185727409 C200.83289077876884 546.7441803843708, 176.7633848295823 546.7817261192016, 164.53926880450845 547.5167342649747 M164.77817089824896 548.6246469437802 C165.90565961982847 530.6967282536532, 166.21287313738424 511.27844380877906, 166.5826146631099 497.5233997177216 M165.53014456787292 547.0475599527133 C164.43067689940082 532.0627469329722, 165.3623657139807 518.8731732697075, 165.63996079757632 496.74078965257604" stroke="#000" stroke-width="1" fill="none"/></g><g><path d="M296.30837787393097 498.87877470547164 C317.37327694250797 499.0124964293852, 341.0360954071915 498.58674499785366, 363.3388247737472 498.9689962117499 M294.6297664132218 497.19934254491403 C311.5099028598514 496.4474648996988, 329.84214914054235 495.87729606493633, 365.6878549974589 496.8465180293523 M365.7107036966515 495.20327565454244 C363.4807376829393 514.7280873746746, 363.9324335774962 537.3977899049684, 366.9272663038777 546.5827857284607 M364.6037595244679 496.32030388681613 C364.4835258101062 509.6118293188715, 364.63969136705674 520.761157129361, 365.5339324026719 547.2996463525304 M363.66271817807734 546.0391674716249 C349.331993858422 548.6672272220054, 327.93775893770584 545.9391667095352, 296.95325598885626 548.0984265605102 M365.7525959617079 547.4697533075656 C340.05370152050557 547.3992748417797, 316.4371807191423 546.8263151542292, 295.20614403852267 547.2785523662905 M293.77551397057937 545.1451392549654 C295.09345615999194 530.6509174855807, 293.26204383120125 515.7440788283038, 294.28668951071495 497.94273417155216 M295.2174389365056 546.9298306134303 C296.03987131204286 536.6103607684706, 294.6846187708697 525.0428180666288, 294.3980988766582 497.2395251031442" stroke="#000" stroke-width="1" fill="none"/></g><g><path d="M380.5614143079737 497.8948352550021 C428.91183180054395 494.8235014631875, 478.40670133455296 493.84856678396517, 629.1098736049123 496.295459672541 M379.3339683491007 496.3803007493305 C433.3212042453827 497.1648764888577, 488.25272408191006 498.658518020191, 628.9641107666632 496.9114449473615 M628.8471993488532 497.66586874693195 C629.6511199833537 525.8203665212201, 629.4737468671105 549.7413875216457, 629.173619857366 625.9697616365975 M629.2677370290761 497.25751950762225 C630.0388565642492 535.0708011324973, 629.6109043342284 575.0376095955852, 628.9793080902089 627.4715094863539 M627.9096969165045 627.8952465202912 C534.4861594803272 626.1221553159766, 441.42373484817284 626.2239301471533, 379.7004427546408 626.7527694012953 M628.5489108123879 627.375524014317 C544.4034475716652 625.6352208344127, 460.86585131912324 625.8357441142202, 379.3088959917035 626.3189375544979 M379.74761435469856 625.3132569730357 C380.7645858734315 594.4445894231634, 381.16666501160364 561.0899592099695, 379.8463694257094 497.143021119593 M380.9256796851188 626.663710442383 C381.9451877347107 580.0585467188946, 380.67094812555126 532.4719943026518, 379.2508487383847 496.5042111357267" stroke="#000" stroke-width="1" fill="none"/></g><g><path d="M403.47596559942303 562.5258163064574 C418.4956881428157 563.3717346606355, 434.06316442831206 560.9372004411639, 461.9604346341636 563.9776100420651 M404.3634519899468 562.7624499535103 C420.82544723256683 561.5442272861706, 438.0997864774974 562.8795169274239, 463.1276249784006 562.3862247181855 M464.9873487410053 563.8381833782744 C462.16545723303057 577.0796083626024, 462.37209929700407 596.0031148788214, 463.3885757813313 611.695580140374 M463.66317238752606 561.633037372726 C464.17637164556186 574.5258131864074, 462.6351164359367 586.7530990317432, 463.81825724933753 612.1549902345058 M461.61135745587995 613.06538764427 C441.9380511764381 610.0849654669144, 421.0981771839534 611.30646353988, 404.8286308770937 613.2558907527765 M463.3419726366146 612.9827564693462 C448.8749313030173 611.7274525463519, 433.4517862278573 611.7757316664029, 404.00569287394535 611.0251652129991 M403.43356800323784 610.6444340347653 C405.36653250368965 600.038138444105, 404.86963456977304 584.9054714033572, 405.0549790924763 563.6117239020199 M405.9234306204864 612.988145657811 C406.1192549268351 601.804804187464, 406.1353974870228 590.3603902088098, 405.4421230140227 561.4697589230146" stroke="rgb(0, 0, 0)" stroke-width="1" fill="none"/></g><text text-anchor="middle" font-family="Consolas, Courier" font-size="20" fill="rgb(150, 100, 28)" x="434" y="592">id36</text><g><path d="M476.7013351933963 561.5745465419421 C487.3299846234401 561.1100925164352, 500.229778770714 559.7983918749296, 531.675234889985 560.0515718742065 M475.2452214539478 561.773527053937 C493.55324742066625 562.5381017816674, 510.64302031833165 561.2372086249101, 533.7054710384213 562.1667187800551 M533.9803580917024 560.1910062673056 C533.7283187946412 577.5623891885441, 534.9319523378114 588.6111760270226, 535.4929052588332 610.7388055315388 M534.4892908420803 562.2209452394379 C532.6465853914168 573.8553589528284, 532.6164540310907 585.5140301276283, 532.6197302514457 611.8875573643609 M532.3745881483732 613.9631391730805 C516.9439026204835 611.8384506364441, 494.9022129767503 610.7327229560334, 476.68882359478965 611.3653471885553 M533.3736220954889 612.9147743928617 C516.0063344734542 611.6768786451806, 499.24449311963656 611.7913790710008, 475.46608493850795 612.3494180909321 M475.14179829239987 613.5161373490823 C475.9988077622432 595.0729008520395, 475.68831587489996 575.7326675560168, 476.77722450290287 563.6163608469292 M476.34297528576104 611.6182157191461 C475.65446266632694 600.4147202356213, 474.5265122596313 587.5270962131273, 475.0392210053903 562.747337115981" stroke="rgb(0, 0, 0)" stroke-width="1" fill="none"/></g><text text-anchor="middle" font-family="Consolas, Courier" font-size="20" fill="rgb(150, 100, 28)" x="504.5" y="592">id49</text><text fill="rgb(0, 0, 0)" text-anchor="middle" font-family="Consolas, Courier" font-size="20" x="469.25" y="592">,</text><g><path d="M545.7534398301044 561.6977965066682 C566.4502540944715 561.3627348194917, 586.6114960383708 561.4903122605788, 604.6470052006257 562.2150752161941 M546.8302369694255 562.4509958809107 C560.9056412719281 561.7982335264578, 576.9972892046789 562.5855979040299, 604.1455637781714 561.3042670481648 M603.3071271655131 560.466678541338 C603.3427389052555 574.9360879072768, 604.1897425767212 587.824278339057, 602.6587742114255 611.6838642563952 M604.0925264066744 562.8696484209959 C603.4450008230535 573.5789134232232, 604.3260867717418 583.4714694021533, 603.5592577459043 611.1981087698015 M602.9909448945436 610.6477016406417 C584.8027967488341 614.1333980511612, 562.5731836328796 614.0511457424828, 545.7152791425103 612.7338844153137 M604.5917766762149 612.6581889728074 C588.5023246049409 611.3487681353137, 572.8361671582392 611.7197723492382, 546.8799982295486 611.81224481653 M545.255699557185 610.4596893923208 C545.4147525361202 594.3634682598505, 548.1017291322322 576.9551706531728, 545.0907048562299 561.0965797329959 M545.4115512062948 612.1302187681225 C546.7843212517905 598.5633116870972, 546.6029686627985 582.3911327867643, 545.1478809698262 562.8994531524211" stroke="rgb(0, 0, 0)" stroke-width="1" fill="none"/></g><text text-anchor="middle" font-family="Consolas, Courier" font-size="20" fill="rgb(150, 100, 28)" x="575" y="592">id64</text><text fill="rgb(0, 0, 0)" text-anchor="middle" font-family="Consolas, Courier" font-size="20" x="539.75" y="592">,</text><text fill="rgb(150, 100, 28)" text-anchor="middle" font-family="Consolas, Courier" font-size="20" x="410" y="527">id90</text><text fill="rgb(27, 14, 139)" text-anchor="middle" font-family="Consolas, Courier" font-size="20" x="599" y="527">set</text><g><path d="M378.94016468261725 497.8205269023422 C404.0525633849272 499.04207782700956, 425.7796807205521 499.3727177933736, 441.39200889997227 495.56530094787803 M379.29372170150936 496.08742529014796 C397.78801416546486 498.1343579182511, 415.8960480813589 497.4799983527131, 440.3954069900178 497.79034261208824 M439.38091212656053 495.78931333891603 C438.90117982361556 513.556117144793, 441.1414823776292 530.4344394555559, 438.29568967495464 545.2055554336931 M439.39537680515053 497.52935259596114 C440.85685645355693 512.715454342728, 441.4408849567892 529.2380142717926, 440.6090064392276 546.3156628469434 M440.60280576861885 546.0567191814815 C419.4759472725327 545.8620739446798, 399.7572964715867 546.6273172103611, 379.67195027865404 548.64910266849 M439.8505083954944 547.0349243214417 C416.5282822196244 547.3847653014076, 394.28141200640755 546.8322545205752, 380.9811414232313 547.1457019646847 M381.9522114111843 548.620231865384 C378.3847896927867 533.3634817687574, 378.0379160431867 524.2834229944439, 378.615854639052 496.5006669420598 M379.38171097128014 547.6483970778545 C379.73011304221825 532.9092078809321, 380.8033856458591 516.364171222132, 379.27671881023366 497.2362050224442" stroke="#000" stroke-width="1" fill="none"/></g><g><path d="M567.239322372436 496.4964836789984 C587.8816183506528 495.57293532864855, 609.1676175265335 495.6532281177093, 629.765565200976 495.85113372663415 M569.0647118811377 496.293545213896 C585.3520756803937 497.6210000283134, 600.4649500158793 497.7579537557008, 629.5697686737932 497.58219476575835 M630.6447680561872 497.1290949737472 C629.5289694973943 506.87258242531885, 628.5140806210278 516.8288399565594, 629.4651130247804 546.3545964631436 M629.1216775048739 497.59895005795704 C628.8048734361558 511.32752471373203, 628.2603968332586 525.6384858208447, 628.7909195121623 546.5141765612387 M630.486777732161 548.5385354397579 C606.4572226620504 547.3833705461954, 586.4339201245566 548.3338175852822, 567.4184063397944 548.2678303794642 M629.9218858278639 547.1624453185348 C613.9034746808529 546.4996486599129, 599.3229467370504 547.0633047103967, 569.3267770198136 546.9001696783795 M567.7809619805208 547.6717693764258 C571.0954524083883 533.2788096925751, 569.2351661985184 517.5957692458966, 568.1765693878622 498.27646706177404 M569.8223394451403 547.7123788274858 C569.5235875750633 534.0206052935032, 569.0349603750808 520.8297642136876, 569.6976208033761 496.2839977262016" stroke="#000" stroke-width="1" fill="none"/></g><text fill="rgb(0, 0, 0)" text-anchor="middle" font-family="Consolas, Courier" font-size="20" x="392.5" y="592">{</text><text fill="rgb(0, 0, 0)" text-anchor="middle" font-family="Consolas, Courier" font-size="20" x="616.5" y="592">}</text></svg>