<svg width="1300" height="800" xmlns="http://www.w3.org/2000/svg"><g><path d="M24.195178369485472 23.705242438487037 C96.4499389705043 22.88461493687742, 167.90650188347212 21.97161849315245, 222.4491341594336 23.275090929786682 M24.072538097951956 25.82109753177278 C74.40260795028415 25.985900193216946, 124.60615139303286 25.735021747358285, 223.23305817333207 24.231866584205697 M223.81925150411473 25.526624817325377 C220.72563762354164 153.32779382037725, 221.2423933611091 282.1069352109164, 222.90521502323347 474.693330989668 M222.57882599829958 25.409319787018223 C221.42843888050547 151.4553754128011, 221.85796493700985 278.9383620787014, 223.319955215559 474.8435507886189 M224.15377502567884 475.78313225380276 C152.43866282622494 474.48686823297413, 83.20584939705739 473.87936826688093, 25.76196794003368 473.3516694093221 M223.85072910397267 474.5285815659779 C154.18544552704114 474.40125216594953, 84.00330978985563 473.9442642950779, 24.825875821956807 475.36957642776457 M24.5261866188898 475.2479161778507 C22.678151715386228 309.7709223255003, 24.153409440251256 144.006085421034, 24.641459908941943 24.787228823639854 M24.68946006359465 474.66620922733966 C24.065643938326392 374.50565708657865, 24.65895047318986 273.9923845181524, 24.900226942905096 24.920876777932836" stroke="#000" stroke-width="1" fill="none"/></g><g><path d="M148.71757295457903 100.2487384378729 C166.21142766774588 99.67179104836822, 183.39501106326918 98.57489748821237, 207.35597390845507 98.12304344498888 M147.37325586624294 100.71510900362516 C164.96188127917304 99.64266325959237, 183.17815716397234 99.71742508071704, 206.2481831346148 100.367582180475 M204.66615352523277 100.29437713542848 C204.76928950510532 116.5895947801964, 206.02923754545452 136.31409447940166, 204.48176453791342 148.7577798294035 M205.1447359379894 99.79275312477968 C205.9923270092303 111.7626734896053, 206.02567555693102 121.68603822239751, 206.63923936473944 149.1686753430315 M205.68729070029866 150.34592425581926 C189.94572419979355 148.07326698045725, 170.24798546205187 149.12880501064296, 148.79827533460056 150.3494107658474 M206.63540416310775 150.1613761050124 C185.98793825663626 148.71531481280883, 163.92304352940678 149.68640783168618, 148.00095613514898 150.6553372893894 M148.47534872283035 150.66558725995873 C149.00204123052015 132.73858789473297, 147.56011702279076 119.69662138070868, 148.68485547587142 98.72479787319268 M147.96220692009703 150.65679938710522 C147.39278224093798 136.6994774222726, 147.6529171043659 123.45794493913259, 148.01133882099447 100.28196183832927" stroke="rgb(0, 0, 0)" stroke-width="1" fill="none"/></g><text text-anchor="begin" font-family="Consolas, Courier" font-size="20" fill="rgb(0, 0, 0)" x="50" y="130">lst1</text><text fill="rgb(150, 100, 28)" text-anchor="middle" font-family="Consolas, Courier" font-size="20" x="177" y="130">id82</text><g><path d="M148.78921641263344 174.08603341804448 C168.7636113315559 174.93475999466602, 185.9924353052584 176.51627490256644, 204.85708528215628 173.752603528284 M148.4802242658328 175.93337793481618 C163.68133547290125 174.39502640989065, 178.33202960410523 174.06674730959276, 205.64145860275428 175.65182293536367 M205.12814167517328 174.95506918827837 C204.384028678129 189.62528721475064, 206.3132098065787 201.12991393628414, 204.52421235020867 225.21560001368877 M205.64544817429902 174.16473822070793 C206.9043239658316 187.59044423860897, 205.48682281028704 201.68816827781095, 205.9772861163243 225.51798340656208 M206.3819887335921 224.8485351826732 C186.9502671481814 223.3087145727845, 166.60819376807623 225.9995683483945, 149.83525412521809 224.13036778405734 M205.62565676244571 225.09721849541216 C193.3266591458893 225.50688633130628, 180.66585260484618 225.38618432948758, 148.43686454349213 225.9964620090354 M148.34916732653954 226.06916365329866 C148.12175915804144 203.8469022265739, 148.7983376238357 184.79173343649845, 147.9489550291982 176.39951969170238 M147.18296341439185 225.67614819653386 C147.0937305670389 211.8212446391797, 147.8284253448261 199.9479968179393, 148.53777575853093 174.58838627499028" stroke="rgb(0, 0, 0)" stroke-width="1" fill="none"/></g><text text-anchor="begin" font-family="Consolas, Courier" font-size="20" fill="rgb(0, 0, 0)" x="50" y="205">lst2</text><text fill="rgb(150, 100, 28)" text-anchor="middle" font-family="Consolas, Courier" font-size="20" x="177" y="205">id84</text><g><path d="M146.60997659869543 248.48461474959925 C166.82725060418062 250.17812129585906, 183.24920166324645 248.8168740877616, 207.7682976395448 251.55608858023476 M147.22024020372828 249.84483201618613 C161.48341641621178 249.45261840695517, 174.31548754308366 250.713906331535, 206.85407497039517 250.72365820860358 M204.49746025437662 248.72333583302253 C204.5469060494505 263.12007543460385, 207.87664358186095 280.40065560567075, 206.1825017124833 300.98902632689413 M206.99279595007204 249.28831563768563 C206.10085028051517 264.7945809978707, 205.53899005393183 280.20892991183007, 205.76805644188886 299.29646308699034 M207.30711109111775 300.3280945006813 C188.00984051312963 300.28003957207613, 171.48388297382976 299.7770974410485, 146.1748072536097 301.310447559843 M205.0857972998732 300.54637689039663 C185.04025145238245 299.5397143721698, 166.04214598974409 300.1878947435389, 147.32373868468568 299.6538132785473 M149.9160790334722 301.5034204691845 C147.76564257898968 281.1368080172369, 146.36978507560661 259.29290884514035, 147.81272087421252 248.28215844596838 M147.09539107326466 299.1797618923237 C147.34651591477308 281.77860881062725, 148.55197410208888 264.3399578894409, 147.66108441730753 250.15236740300003" stroke="rgb(0, 0, 0)" stroke-width="1" fill="none"/></g><text text-anchor="begin" font-family="Consolas, Courier" font-size="20" fill="rgb(0, 0, 0)" x="50" y="280">p</text><text fill="rgb(150, 100, 28)" text-anchor="middle" font-family="Consolas, Courier" font-size="20" x="177" y="280">id99</text><g><path d="M146.452962763321 326.02132859232563 C169.47821476653013 326.55674547020396, 192.98240201373343 326.6335834408701, 205.5944736852325 323.1475002819207 M148.9437542355931 324.23226973333396 C166.370761332708 325.0779332997938, 186.6836205603175 326.0720775366573, 206.92054509371923 324.735618661326 M204.21819949506514 324.5764804063709 C204.19588656030555 342.9822097691833, 206.26739902071913 360.99587156902516, 204.3091137852892 375.213349659552 M206.11235771043957 324.35585215443723 C206.26549922830316 336.3551435650448, 206.34494188501583 346.2111942304904, 206.6902464103027 374.8602502155714 M205.52790210812276 375.857614811481 C187.32589930044253 374.04881786983105, 166.7590538880871 373.7436239264288, 147.98458151992764 376.75266823203583 M206.26291517439816 374.4580289965726 C190.21293137294285 374.9601525227478, 174.65279042644954 375.11750779536357, 147.23783116456042 374.3229066173829 M147.94854013945167 374.2087452022669 C149.2281191175814 361.05771987998725, 148.0614020883378 344.7798256303497, 149.79722280663086 325.68098136639475 M147.97055847108444 374.25245764285205 C147.6365102091797 358.63371661906086, 147.39274081798374 343.11709997015123, 147.6850010157363 325.5828970624945" stroke="rgb(0, 0, 0)" stroke-width="1" fill="none"/></g><text text-anchor="begin" font-family="Consolas, Courier" font-size="20" fill="rgb(0, 0, 0)" x="50" y="355">d</text><text fill="rgb(150, 100, 28)" text-anchor="middle" font-family="Consolas, Courier" font-size="20" x="177" y="355">id10</text><g><path d="M147.68663747510408 400.73120020677817 C169.91808421576084 399.26966605109124, 189.56798146138166 400.69921221248984, 206.54517678425134 399.21051285943037 M147.96983622785646 399.8856805154577 C161.1333656158665 399.4265941338165, 173.56332342744287 399.8058789655966, 206.31839259945298 399.5992907777526 M204.161980049465 401.9385581219593 C204.89035120253243 412.6112289254594, 204.34555873031718 426.6113754857109, 207.48691094095656 448.0186121003333 M205.33199820709925 400.74898368893184 C206.79884583465818 411.03118393159605, 206.1409953572541 422.05901434807953, 206.7796216515417 450.2379977649769 M205.69213885978346 449.4307721205505 C190.58874783572486 451.25909441318424, 176.109993410488 450.59384070978575, 149.15188256919294 450.67284297039845 M205.77076912210086 450.48629536609997 C192.66200076265335 449.2598243507269, 181.18804622988358 450.5848154064717, 148.99432693467713 449.8142872139921 M148.84660372478126 451.6127271301386 C149.47899924091016 433.595010060593, 147.65902270266153 413.37160684455637, 146.26428524062698 400.74914718601747 M147.7710274771543 449.3022453869924 C148.00505011381625 437.4329576895322, 147.2868248817614 425.47582688171235, 148.40498640307678 399.51470958908754" stroke="rgb(0, 0, 0)" stroke-width="1" fill="none"/></g><text text-anchor="begin" font-family="Consolas, Courier" font-size="20" fill="rgb(0, 0, 0)" x="50" y="430">t</text><text fill="rgb(150, 100, 28)" text-anchor="middle" font-family="Consolas, Courier" font-size="20" x="177" y="430">id11</text><g><path d="M23.94804298424369 24.898576821302157 C55.290094788258685 24.24925368270514, 83.05906048033162 24.963890247423834, 131.70440902764676 23.16920606523975 M25.84948426526138 24.097586870300212 C60.711355324001595 24.70505480157509, 93.96644285030735 23.319839423755955, 131.90174006382665 25.205622291798633 M130.42290063347977 23.90598658913898 C129.62941127678909 43.19404746522805, 132.7402680631079 63.310050786456635, 129.61017224818585 75.46526411757736 M130.06310432812063 24.17521079641367 C131.62169952680554 44.27684355623522, 131.16015107180715 61.93294770805222, 130.65755587333436 75.9233225803739 M131.27243168537606 74.90422701204729 C99.07263083715785 76.84889749537578, 64.29057994995279 74.59587326317333, 23.040357094208137 73.69143269517747 M130.68401025223665 75.05785623085316 C94.33248460861262 73.79308036191169, 58.264386339596776 73.95328257427431, 25.90048361600601 75.45517335069346 M24.85576608603532 76.7532858200605 C26.861606807433652 62.224041134898584, 23.579524829026383 49.53155889132471, 24.10464865162069 24.910269958574048 M24.419646162163005 75.54966188879493 C24.18813493994787 58.85825736939787, 24.427118821888406 43.50888300997117, 25.475432561978927 25.110787652860296" stroke="#000" stroke-width="1" fill="none"/></g><text fill="rgb(27, 14, 139)" text-anchor="middle" font-family="Consolas, Courier" font-size="20" x="78" y="55">__main__</text><g><path d="M25.66308060115985 476.4697447840257 C69.44498117428405 476.70668067967085, 112.30736814141778 477.4223947194465, 222.30057009550617 475.016854309719 M24.048265857546923 475.0709789322022 C100.07928438714129 473.9971758335359, 177.18475117143814 474.3563470113908, 223.15620015798584 474.1234672130365 M221.34445689164252 474.4040445674324 C220.8348442863104 561.0756250331132, 223.61465835220721 644.658459360711, 223.86405967140115 701.287797819027 M223.60605591471705 474.709938785121 C221.07644747731845 546.7227621512795, 222.01640189530184 619.1477008088258, 223.74942246664537 700.7216319361039 M224.33743579190602 699.2678142225506 C164.7407908029993 702.3737669109408, 105.29362262403048 700.4954529314091, 23.689539882820114 700.6774768787097 M223.01619104143788 700.167416998761 C180.2725183882857 702.0705081882368, 138.72760814930783 700.5059338675183, 24.23409537207251 699.2870753385871 M23.30457833076553 700.2717493044022 C25.198550878219393 631.8989302709721, 26.87945443526464 567.0092694265857, 25.938023160945004 473.48560052986585 M24.176089688456567 700.2128171646359 C23.246004984341987 629.4395996818611, 23.91907061502978 560.6577163579428, 25.342608450660222 475.0116983594425" stroke="#000" stroke-width="1" fill="none"/></g><g><path d="M147.32230125259426 549.71619725982 C162.1838075570676 547.9854753326725, 180.27660367114854 551.1438810309145, 199.7776764580839 550.8989012555006 M147.70392072916158 549.6900837429674 C157.94891998402164 550.546165413217, 167.45067427044313 550.356453420346, 197.90167332196503 550.0526944651601 M197.75034134730885 548.6359243329415 C199.12326907051005 564.1622497472199, 195.57360454928795 579.6947378412309, 199.96452072430338 601.8410665501331 M197.3424583609488 549.811152019411 C196.96154580712854 569.8537441904862, 197.21138040187924 589.4977665064451, 198.90380812089867 600.9929298801915 M196.19146900086537 601.7880796772346 C184.3679503361785 597.9062899249572, 171.82896615521395 598.5987772857841, 146.8873954538469 599.0100976347995 M197.4759343908313 599.3530197254888 C182.10537037763044 598.9480886515136, 165.78260221748928 598.6470300867445, 148.45256591103472 600.9239304755748 M146.69829227164809 600.5163138951382 C149.4206876506585 582.1014727626501, 147.80649912698073 566.3752236859068, 149.5578959627805 548.248208982042 M147.67249883159533 600.5357902158737 C148.622984930908 582.4048183179387, 147.28185290810248 567.6025271845397, 147.85317148755422 550.7264579082187" stroke="rgb(0, 0, 0)" stroke-width="1" fill="none"/></g><text text-anchor="begin" font-family="Consolas, Courier" font-size="20" fill="rgb(0, 0, 0)" x="50" y="580">age</text><text fill="rgb(150, 100, 28)" text-anchor="middle" font-family="Consolas, Courier" font-size="20" x="173" y="580">id2</text><g><path d="M146.1598639885626 626.2515555628673 C168.21359338186699 625.0214775045432, 192.0559204969377 626.5017995762037, 206.84658952278033 626.5020025704193 M148.9841755132569 624.58707531416 C167.84639636905706 623.8960214869152, 184.97046676751057 623.9329178266096, 206.76403945718098 625.6021692785464 M204.3370303166211 623.5453067315129 C207.53819948485872 638.5311093627711, 204.5211720398589 654.8472650253765, 206.29898492162326 675.320307850887 M205.6329742381211 624.0421838789047 C205.4160667769131 636.4813945693363, 204.9357155208835 648.1562983613109, 205.55674425360058 674.6748785863196 M207.37672450325988 676.1067548680567 C190.25992737575785 676.0806722088806, 176.36940283904076 674.6327956901167, 148.73958167637116 676.9286299553307 M205.74074429518538 675.8735717028113 C187.24586144386416 674.9933095967353, 169.38678700788145 675.8369834734752, 148.52378185240082 674.306850971183 M149.25553595396124 673.9918900454255 C146.26904214923397 662.6032915140771, 147.8422739280712 652.0776847389831, 148.98300637168515 624.4012284807739 M148.51921840372302 675.6030993232724 C148.25321482809028 663.7063221057691, 146.78217836612555 652.4714031269474, 147.98295838319126 625.0981263919733" stroke="rgb(0, 0, 0)" stroke-width="1" fill="none"/></g><text text-anchor="begin" font-family="Consolas, Courier" font-size="20" fill="rgb(0, 0, 0)" x="50" y="655">name</text><text fill="rgb(150, 100, 28)" text-anchor="middle" font-family="Consolas, Courier" font-size="20" x="177" y="655">id94</text><g><path d="M24.902659491346807 475.0730427800057 C57.905123564817295 475.5379282561804, 87.03031319458577 476.3570643006397, 105.79476032560504 476.25472323134795 M24.347337267097053 475.1521523215904 C43.90713441303003 475.2947342382016, 64.85499405198797 475.48058901973144, 106.06660322689204 474.5381056246153 M107.80236747197135 473.1893889801271 C108.80536323646271 488.61867684667226, 107.91983834823087 502.69134099610085, 105.3742474354787 523.16097132845 M107.82125912761236 474.4596227243121 C106.87879032528527 493.7323398461819, 107.28490478146111 511.48260615270726, 106.16350003103017 524.3420653786967 M107.90828890898511 524.4738844085011 C75.90840825270915 525.3005186242902, 44.065465968006094 526.2901595005293, 25.719985370963144 525.6594075818787 M106.3495945304357 524.0234072300465 C74.17723523536347 523.8925122006137, 43.15338437052933 524.1581050480651, 24.852184250515435 524.4683520890117 M26.393677176364044 523.4977087218825 C26.525554583829507 508.6132186634487, 27.241660398607625 489.89366471513677, 25.813786411349756 475.39684900041624 M25.12767233214042 525.7922704953495 C24.35003199201067 511.19975921329586, 24.717269906154264 495.43906553310165, 25.603524921328695 474.38555764035056" stroke="#000" stroke-width="1" fill="none"/></g><text fill="rgb(27, 14, 139)" text-anchor="middle" font-family="Consolas, Courier" font-size="20" x="66" y="505">Animal</text></svg>