<svg width="1300" height="805" xmlns="http://www.w3.org/2000/svg"><g><path d="M21.260857618839495 28.50119711145465 C96.81149891771975 31.524431113492543, 176.51685568764734 29.27626942551548, 219.0405273478863 29.226618179364397 M19.030179642361873 30.65350439403518 C80.33032683878048 28.40937792420257, 140.18909576862538 29.530952216711214, 217.7558003971995 29.621040341120338 M217.28127311433698 29.43290244874133 C218.73243740566835 130.73888431410822, 217.7395154534415 232.90436317944688, 218.12144628226403 479.4888064945925 M217.65848450281385 29.711292571474562 C215.9043386563305 189.20876902618411, 216.0108936296011 347.7200058274361, 218.34927632795038 479.58640531401136 M216.85760895196822 480.1453554854423 C175.15296224353904 478.61284833441056, 134.98250538582022 479.6069111468996, 19.326381710776786 478.6892023426312 M217.72796366964434 479.3602017847504 C146.93730477200737 480.03342032970926, 78.41528350375407 480.8412052158864, 20.504678353991018 479.79125091235557 M20.809652473889074 479.5414708199568 C18.379418699192552 341.3342440946817, 18.6981855151752 200.95431180470902, 20.196617445434534 30.4363703821844 M20.339045554477096 480.3767499291332 C21.337812135107466 315.7427408768754, 21.493896189917 150.11021597832038, 19.63111910010851 29.74787889777807" stroke="#000" stroke-width="1" fill="none"/></g><g><path d="M141.51193877210062 104.92493536904092 C158.85454332748532 106.55969677664027, 173.9656979411841 103.79623781863526, 201.86992234300226 106.77448433687934 M142.12499937298466 104.90305412358276 C165.64708041057125 104.93212658145697, 187.05543192078017 104.08246071092381, 200.4367078898173 105.21459173944203 M202.19089726663634 103.74237288900153 C201.0388792892897 120.71256571264578, 202.0696057572069 138.39065361087063, 202.15039998465096 153.11948778239753 M201.78377153845094 105.75606494893304 C202.19984678392586 121.73150354960529, 201.68427834904512 139.09414559919136, 200.1449768799329 155.82694203365787 M201.57335222566755 155.28264031892815 C187.09403506127057 154.6792988253831, 174.58180115051263 154.77537336350701, 144.44751988692926 155.30746424134318 M200.69202254499945 154.38662402275796 C185.84382893225217 155.62227114010406, 171.43114992408903 154.8282653776198, 142.72370243579613 155.30688470135382 M141.82722413060762 154.66621098162048 C143.83778496495688 137.58336006562016, 144.29884917445128 117.32098661357921, 142.89004704074566 103.94956260636559 M142.55118297079727 154.2004471324015 C141.8996063348193 134.91070388288654, 142.21380235856637 116.60930012674429, 142.0064999340653 104.0435152045495" stroke="rgb(0, 0, 0)" stroke-width="1" fill="none"/></g><text text-anchor="begin" font-family="Consolas, Courier" font-size="20" fill="rgb(0, 0, 0)" x="45" y="135">lst1</text><text fill="rgb(150, 100, 28)" text-anchor="middle" font-family="Consolas, Courier" font-size="20" x="172" y="135">id82</text><g><path d="M142.95383090155642 181.22988101482585 C165.04508182946444 178.47138259876954, 181.87448942645807 179.243867496262, 201.6169175412398 179.60659297449078 M143.44262553031237 179.5264751140134 C163.45275774464687 180.12818935038337, 184.5292445566414 179.42987339822753, 200.32496944655708 180.46109975657424 M202.9862260887378 181.02747708074884 C200.0771192498172 199.32531423653452, 198.87932111527462 214.02106837198298, 200.77589661647372 229.72577585821966 M201.28668813626714 180.96128932931447 C201.45712729693022 196.47667970381644, 200.08714899838466 211.0098367195697, 200.46605093766445 229.4904390366557 M202.43916519415146 230.02985120465826 C181.1678302916582 229.87962326364084, 159.94262041171928 231.24982922851484, 143.21492509291124 229.82904734530058 M200.64768765142904 230.0031076452071 C180.7526394313605 230.94588536229563, 157.8190999186563 230.16836518855382, 142.43490409416506 229.99132972378143 M141.6193734798299 228.9747453510123 C142.00234025160051 218.43288137090528, 141.45733438036507 207.12036890676038, 142.49775331456604 178.9166519331329 M143.3925998868508 229.2239025844282 C142.0225406130852 217.18993179957644, 141.99873420053044 205.51431899912072, 142.99578831361242 179.86767832400344" stroke="rgb(0, 0, 0)" stroke-width="1" fill="none"/></g><text text-anchor="begin" font-family="Consolas, Courier" font-size="20" fill="rgb(0, 0, 0)" x="45" y="210">lst2</text><text fill="rgb(150, 100, 28)" text-anchor="middle" font-family="Consolas, Courier" font-size="20" x="172" y="210">id84</text><g><path d="M144.72847269348813 255.87013461677475 C162.68255904194407 253.53280958980693, 185.54155581912025 253.57281472380143, 200.24288417313738 256.2420080859857 M142.02028191002432 255.03653565218596 C155.44408133728234 255.6455988400902, 169.37768793826982 255.33611257174795, 201.15547216617662 254.02273104237022 M200.69268913482287 253.6824728785136 C199.71365509498045 268.99241913837886, 202.10265056886843 288.0680239808783, 200.45439303976332 303.89793425554694 M201.65086303863433 255.72075275388798 C201.31533445958792 268.22353140212203, 200.061346300864 282.56547982369386, 200.87952811241345 305.71381273166327 M200.24656153444633 304.67559119169755 C180.10834601345823 303.67282255178594, 158.25105057748857 305.23666427569816, 143.69888103645738 304.5563780404848 M200.5282760798511 304.6657052593837 C186.79767852597683 305.1264809003437, 172.65963528576887 305.1376914381018, 142.13338955282182 305.49342141996345 M141.8557327788586 304.100906458655 C142.84831077366692 293.7259580582543, 140.88794064042474 282.7763930441892, 142.98104585654104 255.69200514968713 M143.85354437951847 305.07305649362144 C143.9131018008158 286.66170177434424, 142.63557803022056 268.4082701436346, 143.39107791100238 254.41395181171686" stroke="rgb(0, 0, 0)" stroke-width="1" fill="none"/></g><text text-anchor="begin" font-family="Consolas, Courier" font-size="20" fill="rgb(0, 0, 0)" x="45" y="285">p</text><text fill="rgb(150, 100, 28)" text-anchor="middle" font-family="Consolas, Courier" font-size="20" x="172" y="285">id99</text><g><path d="M144.79686315906542 328.7040849492161 C166.47169909153797 331.0853560428257, 189.39374258159782 329.46012599280795, 199.42286606504743 329.69005869188095 M143.47249450785174 329.87906674493115 C161.5416736070835 330.3972320211464, 178.69123256807148 328.6514240268005, 200.5264836525777 329.32892880444984 M200.60754526550008 328.2846009279263 C200.2953715416221 346.3735652781894, 200.700778483715 366.8519242137216, 200.9676153696989 380.9761969428768 M201.46943593193106 330.2456222334528 C201.88838238348632 347.8467615801353, 202.13197973795837 366.87364291723355, 201.6589867714319 380.65999481474637 M202.81620709117254 381.272235505425 C184.71863092767012 381.0815317452505, 171.4844807751775 378.6214692753348, 141.18540525337372 378.2165428466918 M201.53995164169376 379.2050416711378 C177.65520640413706 380.0025351014764, 156.38527951497696 380.9028699581763, 142.231203841536 379.9592384520647 M142.7338536748378 380.5319249868269 C143.16969986174226 368.0612617762866, 143.8186558383709 355.575876656881, 141.50809768985746 329.39251849983975 M142.66289267649148 380.27226462775053 C141.84080653659538 360.56024958112107, 143.2541396314327 341.76001768541914, 142.3439615481839 330.67249471475435" stroke="rgb(0, 0, 0)" stroke-width="1" fill="none"/></g><text text-anchor="begin" font-family="Consolas, Courier" font-size="20" fill="rgb(0, 0, 0)" x="45" y="360">d</text><text fill="rgb(150, 100, 28)" text-anchor="middle" font-family="Consolas, Courier" font-size="20" x="172" y="360">id10</text><g><path d="M144.96369006438402 406.6544689523377 C156.12715040634743 404.5224101768521, 171.02883608501227 402.8371827131956, 201.09931164476686 406.03434529752633 M142.6562278949854 404.92225233108945 C157.9487190425084 405.4505922246925, 174.17185377996424 404.5687812435875, 200.66033586949638 405.1658715087595 M199.10411537720745 404.42380374579164 C199.19350037038967 417.43224190093315, 199.91138303213157 435.37351658524585, 199.77309970012723 453.5198912589879 M201.6041626386447 405.8360840439984 C201.36965679048845 419.55553718542944, 201.05313881480458 432.5468503570238, 200.3043920715467 454.4830959714924 M199.5628399028586 453.26940093103747 C184.19896605914357 453.38949519288866, 164.75326522274082 453.4804908682172, 141.37333000058638 453.25801473047466 M201.29717624102713 454.11022184435814 C187.20294605069128 454.62597662521, 176.1674742934447 454.1920090742426, 142.88006440220224 455.61875212645293 M143.63612075402176 454.46813517825154 C141.4946269658886 435.8933186568816, 144.71556545149312 418.94054180601455, 144.5185926520424 406.2435319486742 M142.51392082462823 455.7251196443086 C141.94065699087227 442.5018296685013, 142.27480379127564 430.39055818691793, 142.09167970752486 404.10195632963513" stroke="rgb(0, 0, 0)" stroke-width="1" fill="none"/></g><text text-anchor="begin" font-family="Consolas, Courier" font-size="20" fill="rgb(0, 0, 0)" x="45" y="435">t</text><text fill="rgb(150, 100, 28)" text-anchor="middle" font-family="Consolas, Courier" font-size="20" x="172" y="435">id11</text><g><path d="M18.994427508716544 31.76842735886833 C46.529548110174126 32.0020988258386, 77.70682601308825 31.564269654329987, 127.40591901084693 29.285209280572424 M19.113565201541437 30.91164909091659 C59.59236202725487 30.641134084039063, 99.75444995230666 28.922682438919693, 125.35105311701771 30.60291837040938 M124.84529210839631 28.728625484897925 C125.20134085573976 48.987964632962644, 126.56534375789235 69.34681237860372, 125.62517190004175 79.69571896960142 M126.13375851580325 29.216847129117998 C126.11866631070211 48.21824832367455, 124.87898060390377 67.08668296276396, 126.46459835421845 80.87243706160875 M127.69762922729768 80.17028089527581 C84.75454738035326 80.92597519442755, 43.119018865442364 78.52481033694187, 18.97295722812734 81.41556930282567 M126.03231962343044 80.6802557766489 C86.85959181798825 81.230480155721, 49.542477137928664 81.52957064881258, 20.043793341742965 79.03006277891811 M18.188700681408577 80.29862590437344 C20.786515487290803 60.26487692067048, 21.10177880179147 43.154673896514474, 20.507669404555305 28.54894354847469 M19.838122614805414 79.0339194106194 C19.158019430797196 63.24242628552975, 19.517815514583685 45.89144156471897, 19.002227471481813 30.4998882395773" stroke="#000" stroke-width="1" fill="none"/></g><text fill="rgb(27, 14, 139)" text-anchor="middle" font-family="Consolas, Courier" font-size="20" x="73" y="60">__main__</text><g><path d="M20.36755177993188 478.06691891125314 C72.591700118908 480.3588549011905, 121.11570868696502 477.5228800805367, 219.8166727519241 478.92458718168035 M20.1680721256795 480.00150110248245 C91.10420681770302 481.1152147419256, 162.73303169282408 481.22140055794443, 218.36495015504838 479.2514077870437 M218.9256620299579 479.66326692661 C218.56752398948464 561.1859723447784, 217.9078190556892 641.4413334983866, 217.2411077882934 704.7673278600007 M217.30897584179812 480.61529739392756 C218.4522795229087 569.1770543644004, 219.5090036341436 657.6486608402176, 218.36724685215702 705.3767638383902 M217.15881905552328 703.4925003151375 C142.58841322457332 702.788543622737, 68.22388128818002 703.7186551929218, 21.370132699288657 705.5602227019069 M218.74530226505792 704.8424099245467 C167.14245336086097 705.9209711593376, 116.92218692751683 706.2656947213104, 19.03442014625057 704.8791490044634 M21.654834433463137 705.067178320175 C19.340361445645375 627.1473228596609, 20.86911686674141 546.7855107741027, 20.85958347505051 480.2211117996553 M19.611932980484475 705.0039990626765 C18.778760206976774 632.4920171886292, 18.621314855977207 560.0686590830259, 20.616352760915728 479.161755877194" stroke="#000" stroke-width="1" fill="none"/></g><g><path d="M141.94104603198528 554.2667636258852 C158.56060849008674 555.4727381795395, 171.21198331653179 553.0277135545733, 199.68270609487806 555.6134431895784 M143.3270672898063 555.5954326274621 C162.2770861803413 556.2161847237077, 182.16917961762866 555.6275159389412, 200.82554624543613 554.3766929607079 M201.6148774580569 556.9723873997928 C200.40797381187892 571.3289058957524, 203.10614309331777 588.1713226817479, 202.34027505114952 604.9200415624463 M200.42485717490032 554.2675692383671 C201.3008870106385 571.5544814618303, 200.77579898735652 589.8961933940138, 201.11069813992071 604.8896893441474 M199.0858380115499 604.1028360007981 C180.33385676248741 603.9537457041226, 157.36369345201524 606.2495092110518, 141.1669831242965 605.1103221029105 M201.63347742825943 604.0500149893785 C181.06280496307775 605.5347168966387, 159.36888111722678 605.3344259500506, 143.10982445875712 605.7466439756248 M143.7042054634342 606.9219645809624 C141.90661396275718 591.2133533522671, 143.0089586694683 580.0122676537173, 143.4527086882424 556.8946235296875 M142.65446827006974 605.5180951830242 C142.3372017464419 591.6741616301625, 142.39176176918627 576.5297825151055, 142.54620146378585 554.669970174621" stroke="rgb(0, 0, 0)" stroke-width="1" fill="none"/></g><text text-anchor="begin" font-family="Consolas, Courier" font-size="20" fill="rgb(0, 0, 0)" x="45" y="585">age</text><text fill="rgb(150, 100, 28)" text-anchor="middle" font-family="Consolas, Courier" font-size="20" x="172" y="585">id12</text><g><path d="M144.42133272472486 629.7995324361463 C158.36525309331313 628.2151376297087, 178.61148213815625 628.8710658317532, 202.00698820458018 630.758490179147 M143.70711002982367 629.9196024494705 C158.31864515138136 630.8822472791142, 174.63837134749983 630.3160453840879, 200.98555742753973 630.516681678772 M201.8136023324891 629.3123893036939 C201.93557569561756 643.152439909853, 200.01394740216668 661.4595107058803, 202.92826148550085 681.2774243077802 M201.05575658263598 630.8310864170853 C201.01147094689 647.6077187972423, 200.9307856423213 666.2287990194937, 200.34560563559282 680.7488067076413 M202.84938344486216 681.2797139390092 C185.09715439375702 680.2787432727706, 170.81581620619474 679.4648143974599, 144.4831321102427 681.3086048666719 M200.1600482804769 679.2592445388711 C184.98795324470092 680.0619193975206, 171.20598804958516 679.8077879855646, 143.7932155766562 680.5543342465418 M144.65573799250345 678.0675098152144 C142.18332660072596 667.5986980655694, 141.9227860338982 659.4851540270416, 144.34661543451847 628.407245356143 M143.42882987501312 680.1437561876445 C143.59946291880652 667.5390682082018, 143.4288759655076 656.1341476574605, 143.1877795099803 629.8053404288406" stroke="rgb(0, 0, 0)" stroke-width="1" fill="none"/></g><text text-anchor="begin" font-family="Consolas, Courier" font-size="20" fill="rgb(0, 0, 0)" x="45" y="660">name</text><text fill="rgb(150, 100, 28)" text-anchor="middle" font-family="Consolas, Courier" font-size="20" x="172" y="660">id17</text><g><path d="M19.580108832194526 479.88112929758717 C33.46444743613091 481.02347800050137, 46.79705762461074 481.1869709734178, 77.12807739245811 480.10612125025744 M19.64731214516034 479.57173021124095 C36.45852671021672 480.56493948340574, 52.60744618281572 480.3851946105679, 78.87175724248155 479.408968042729 M78.39403871579218 480.00319047863763 C79.99367203029878 497.33830800738065, 78.81888943580167 515.900342427018, 78.78087075795062 528.9330402094786 M77.19624385850908 479.6991666218824 C78.49785312006419 497.3383942395464, 78.71312617924758 516.6319906666477, 78.83037462658643 529.86835315094 M78.82488746238249 529.899030233983 C61.14924163517361 529.2343022875141, 41.759423867349945 530.2372084258424, 21.485039605103765 530.7293758652627 M77.35472646258124 530.1695895664767 C59.45050441648856 530.1780830948023, 41.40992061881387 529.6389581174559, 19.169640126761028 530.7874185299472 M21.544222869665212 531.9235688009381 C20.80855542992577 510.90243699702927, 19.400303505279012 494.3981805699102, 20.203274540374853 478.723031459011 M20.032223032110036 529.8691478616273 C20.478863747110992 511.94551932194315, 19.9149213555077 493.61909427166717, 20.23874563388689 480.07331263480603" stroke="#000" stroke-width="1" fill="none"/></g><text fill="rgb(27, 14, 139)" text-anchor="middle" font-family="Consolas, Courier" font-size="20" x="49" y="510">func</text><g><path d="M256.7414776124961 30.086758087248427 C314.98877831641533 29.04462005640251, 372.3158567752704 28.71599096133783, 459.1950533564451 30.68288248717823 M258.59232816205196 29.894783167587835 C322.7938613461709 30.289311847257473, 389.9268325343044 29.375099720984515, 458.0393437078644 30.357727912806624 M458.69046828003593 31.559079682509726 C457.04137883758364 69.88070868680734, 455.97899059412833 111.17067927488574, 458.9364154251629 161.09783816342798 M457.0572913511748 29.7526812954096 C456.91249431342277 67.71796555785092, 456.81373342826015 106.90752266837309, 457.6568722383599 159.9885951996694 M458.63543312678166 160.41107551886532 C398.99125799598244 159.5135747784001, 337.1505632371276 160.8130413393863, 259.70314089512635 158.61854911260363 M457.40713031554355 160.18740438586752 C410.82916307354174 160.0748884058333, 363.5605183405399 159.40196947040045, 257.1849609970159 159.90762179223768 M256.2606838777851 159.81082183368082 C257.5552578823823 117.34085281983494, 256.7473939454482 72.32512374049828, 258.7395688953181 31.445628466654206 M258.072456632103 159.65734750880858 C257.81393007732265 119.55969315559366, 258.88412841597176 78.84218879742552, 257.3593265094457 29.953989374316734" stroke="#000" stroke-width="1" fill="none"/></g><g><path d="M253.06210722641703 25.74706109958685 C331.5589540565272 21.80599516939684, 412.88966066787737 24.137452117313202, 464.65804704126987 24.485017961793563 M251.28123982608517 23.573011844615472 C296.8564401038871 23.387657263221076, 342.40504047411645 23.12694253388844, 463.69421322141733 24.804537307376684 M462.0734808204681 25.765999279798635 C464.28944826546467 62.986376469741295, 462.48353544050786 105.40378023522246, 464.6179915525503 165.24121968732445 M463.85548846692086 24.59408842550317 C462.6102199828871 69.05791157294568, 463.58417559876955 115.3612626999028, 463.9753599545117 166.10822423270943 M465.308742213503 164.36210400047176 C380.3602077094453 163.44938053134874, 294.96659593844873 164.25534265178862, 252.00473048291613 166.77194225853384 M463.955449542361 166.01937087768724 C394.8990118335386 166.75492696601881, 326.7603201644358 166.92014008233235, 251.3046612010176 166.69705655250212 M252.93742883559952 165.1766215565759 C251.35725463152133 118.53164648315607, 253.0281111684709 68.30962287401407, 253.3812826814847 25.804005967854778 M251.07345492576738 166.38285228603752 C251.75736921406858 109.96628999006019, 251.07725305029663 55.76546204406132, 252.1752506868274 24.251002441196928" stroke="rgb(0, 0, 0)" stroke-width="1" fill="none"/></g><text text-anchor="middle" font-family="Consolas, Courier" font-size="20" fill="rgb(27, 14, 139)" x="358" y="120">"None"</text><text fill="rgb(150, 100, 28)" text-anchor="middle" font-family="Consolas, Courier" font-size="20" x="288" y="60">id13</text><text fill="rgb(27, 14, 139)" text-anchor="middle" font-family="Consolas, Courier" font-size="20" x="428" y="60">None</text><g><path d="M257.5766862160725 30.72345212938305 C277.8876611149715 31.028193651001096, 296.61917843574406 28.534102792815865, 319.94059283451213 29.19208410169097 M258.0459058200949 30.220150254778606 C272.6778487097546 29.639890357652085, 285.56419745988956 30.37090497061137, 318.4282149553654 29.678137901965368 M318.1068618158164 31.865856787408465 C316.3041434492495 46.79619995926632, 319.81698435835614 67.68734265089265, 317.913089880952 81.78754059309577 M317.9862648903847 29.27973465410688 C319.08146516303253 48.96895847318347, 317.9672162731787 66.74669764298821, 317.7378654657479 80.39440106485335 M318.49426569318246 80.20941605724298 C298.1464201802313 78.64093629405255, 281.604677670618 80.14483026792027, 258.2237364082821 81.33760298932977 M318.98246599454063 80.40543587587553 C294.37094118536794 79.74551650336107, 272.2457280658081 79.9133279758871, 258.9418229222437 79.92314770967165 M259.85434293926306 78.37248474864624 C258.8487024434575 62.55947974269742, 258.47416841764766 45.050027032478745, 257.658834339231 29.78421364912286 M257.95011864177764 79.98248356894443 C258.5379971255279 65.21954870745627, 257.600446611693 50.11495747649892, 257.17037394448755 30.847290164147594" stroke="#000" stroke-width="1" fill="none"/></g><g><path d="M398.42645635593425 31.335080130431425 C411.692254219464 30.01209975402148, 423.6777683602296 28.711308390388965, 458.9936264215297 29.328092019619568 M398.48268569874534 29.243165814270103 C410.3036924466515 29.953216179524745, 422.8790432638728 30.376983100833698, 457.75251140432033 30.050985842305543 M459.4467112345223 29.84778161462476 C457.249030146996 47.40473994491244, 459.01010346862887 62.75501477793113, 457.6177496608093 80.21761286240364 M457.03654925343113 30.833958585806634 C458.4530137376817 48.99228403818898, 458.4053924454693 69.91579441695329, 457.3383730126249 79.41842242456778 M456.43581528223 78.9039919824964 C445.3296292461945 80.7522144872312, 430.6116757198538 80.19875319686477, 396.69042991281543 80.31700313694209 M458.64042854318916 79.67645714964094 C436.73705180285646 80.0275848555034, 416.7692754850799 80.849218514529, 398.2261467304997 79.76334309963757 M397.37082754732495 79.72274088357871 C397.6439417728898 63.88445800316904, 399.33281647500394 45.13651631824016, 398.89585818664847 30.032382288581765 M398.41149102745266 79.95951650160275 C397.3157053800968 69.61110989427804, 398.08377004236775 59.52055603543408, 398.06345219946155 30.126472949626194" stroke="#000" stroke-width="1" fill="none"/></g><g><path d="M500.73189592945266 28.749806282406603 C604.6808705956108 31.357910080714102, 709.5381251581155 32.125856770405605, 782.2604765380152 28.624975179097902 M500.20704989964116 29.682234382738145 C585.9205231118625 31.651902051525486, 672.5089229898402 31.746597125470878, 781.7504830720376 29.730117565228056 M780.1774851627856 30.449833375168694 C780.4008279787322 64.74572671569915, 780.3098088106686 98.51643655161998, 783.5484172202814 181.75295352770848 M781.5262545360564 29.299132813947175 C780.9167921545184 80.56076694148496, 781.7689164609939 133.1408082997783, 781.9920797612275 179.4915937226192 M781.6651190624798 180.69132400220886 C685.1200223663994 179.30650286689618, 586.3981739799153 178.85501641001045, 501.21029246888355 181.0040475351286 M781.7365459104337 179.63355859147816 C702.2586063222944 179.26155408910816, 622.9863078010995 178.6006140397849, 500.68170139858563 179.8083738730069 M501.98949439330715 181.48986158498184 C498.84234986956295 121.4314621435904, 497.94374031853044 66.93044488360884, 499.969747060864 29.37021093168921 M499.083762395644 180.68301899967028 C500.6362362210783 134.02571966771697, 501.07991141008796 87.56376344075028, 500.70190462829146 30.843898404360253" stroke="#000" stroke-width="1" fill="none"/></g><g><path d="M523.9408851435434 115.70207994571848 C544.500852444231 114.3564154606133, 559.5228345461325 112.75461643429914, 582.1985950644124 113.88992330825187 M525.0764873530833 114.44162582008887 C541.1372492691504 115.52948795077545, 559.2047714302116 115.82888663306522, 582.9866913510707 114.15540496337944 M581.568044742951 115.73372698698337 C582.7660438276583 132.83965195981915, 583.8350712075422 152.87112684738187, 584.0993376536317 163.25830438207032 M583.0599941623229 114.15582484573913 C582.4864085998321 127.46259785538392, 582.1060969918275 140.44457890123908, 583.6439862003339 165.35191131693722 M583.5503396862072 164.42319728720193 C571.035160328035 166.51256746455613, 557.2993887089629 167.26707149658642, 523.0372367086592 163.81261246360754 M582.7464907661735 165.27692587935402 C565.7172118179259 164.82420507456092, 550.3460589076237 164.328384802381, 524.3124901820614 165.73540948971706 M524.2881506891554 163.90206522683752 C525.1430346726444 151.18023967099828, 525.8801376516894 135.52004584471328, 523.9770847799813 113.55021664787401 M525.8773035893674 164.01117913968739 C525.1420564491023 153.01685233437135, 525.7966920572168 139.7442187225325, 524.4568548698804 115.23505864793809" stroke="rgb(0, 0, 0)" stroke-width="1" fill="none"/></g><text text-anchor="middle" font-family="Consolas, Courier" font-size="20" fill="rgb(150, 100, 28)" x="554" y="145">id32</text><text fill="rgb(150, 100, 28)" text-anchor="middle" font-family="Consolas, Courier" font-size="20" x="554" y="102.5">0</text><g><path d="M584.0310139379226 116.96692163405189 C601.7771562410126 116.01652643462356, 617.3275723335145 113.594910258575, 640.2935443669725 113.51537054227224 M583.9631482032736 114.32806464751478 C599.1758099048562 115.5579126450501, 616.844744878156 115.00316747245364, 640.0448151477603 115.64014957383344 M642.8123248617146 116.16189816154157 C642.6956228417271 130.46910652478832, 642.5152961464067 147.167198318367, 640.1986111662181 166.12657686963695 M641.5580371096557 115.22207719847371 C640.3955350673154 133.47585842592653, 640.6602544928086 153.6719183700057, 640.6657421305717 164.50716565161898 M639.6728671703806 166.36368830083774 C618.8670186223784 166.2498074627755, 596.3593835969235 165.5299673871778, 583.2877965404933 166.74486771376505 M641.5978606363776 164.63971621117335 C628.1464642896442 164.45829372850736, 616.9675351869968 164.96028916594454, 583.3864184083459 165.86405232147376 M582.4245168698677 166.7567852953232 C582.6141277422461 154.27322080284492, 584.5640591277821 139.34659234444626, 583.3183227026489 113.06786574555454 M582.4471077705954 164.13857210316306 C582.3808116217278 146.44887522550587, 582.9062048150763 126.82828352559386, 583.8756317141195 115.2697764117183" stroke="rgb(0, 0, 0)" stroke-width="1" fill="none"/></g><text text-anchor="middle" font-family="Consolas, Courier" font-size="20" fill="rgb(150, 100, 28)" x="612" y="145">id10</text><text fill="rgb(150, 100, 28)" text-anchor="middle" font-family="Consolas, Courier" font-size="20" x="612" y="102.5">1</text><g><path d="M640.3153605027759 116.06410245884777 C660.5198478680843 114.64751149882393, 680.049727597422 113.68991497179809, 699.9974931133771 115.77714921480938 M641.5101932420085 115.92365694917773 C659.3434399846549 116.00941441934775, 677.9107223549132 115.89375323450835, 699.300440115973 114.94939662867924 M697.5839808612756 113.46001925833856 C701.1922352966376 131.88149837188138, 701.1323520465382 147.10170822181686, 699.3221598878876 165.48822984844657 M699.1287990888525 114.27755355786991 C698.0123543482098 131.37731691613436, 699.4360471242214 148.82609443986584, 699.499247830166 164.61211029444848 M697.4621587290203 166.25253979663373 C677.9818398600876 164.60772418422206, 658.6769763376102 164.62345389709628, 639.5637761254884 166.3358105096521 M698.3637921286048 164.81421342222612 C683.0686765482773 165.69853682169287, 666.4737302002936 165.3112426055041, 641.0140061927202 164.1807867438164 M639.4995582628983 166.51425070533534 C640.7990900842192 151.22677531168506, 640.2265696526348 141.1475918425376, 642.1533054932586 113.64561490406018 M641.5321192502569 165.33607758655023 C640.1859371479736 149.60650952687413, 640.3106060710721 133.54394752831192, 641.9398229065733 115.04453114681921" stroke="rgb(0, 0, 0)" stroke-width="1" fill="none"/></g><text text-anchor="middle" font-family="Consolas, Courier" font-size="20" fill="rgb(150, 100, 28)" x="670" y="145">id90</text><text fill="rgb(150, 100, 28)" text-anchor="middle" font-family="Consolas, Courier" font-size="20" x="670" y="102.5">2</text><g><path d="M697.8754721403951 113.83439803351162 C720.6328033743079 116.07059213917408, 745.4159492882627 114.10696915328357, 756.1337096769565 115.79434523025512 M698.4220090926003 114.12774509692348 C722.6073047733875 115.19013945266738, 745.4537228702884 114.28899902778583, 756.7483932194643 114.4855900401073 M758.4836516982458 114.01850049065906 C756.8031624166549 128.2178164650853, 755.6719530954662 141.80233188564173, 756.5511998734495 163.342711333867 M756.2589099377626 115.2345674367184 C756.7348450373838 125.78933892474791, 757.1304014566684 137.3228258147603, 757.1448352405251 164.58972832910544 M756.6045336577173 163.6572670954887 C745.0641766002718 164.9280472030774, 732.5725234261587 162.99235726582108, 700.0063538884109 163.433362405114 M757.523811780528 165.5915944362361 C739.1958740611046 164.47505193792716, 721.1444382641071 165.06420008095705, 698.0979309304174 164.82431916385048 M697.6713747772023 164.322530352542 C698.9993953700009 154.59424762434298, 698.5502874634784 143.1386200360143, 698.0742951801868 113.57090809154556 M699.3113329488602 164.44911965374217 C699.2325022780217 147.15499366809777, 698.2573982297121 128.50724365845682, 699.4042756984288 114.52537452561964" stroke="rgb(0, 0, 0)" stroke-width="1" fill="none"/></g><text text-anchor="middle" font-family="Consolas, Courier" font-size="20" fill="rgb(150, 100, 28)" x="728" y="145">id57</text><text fill="rgb(150, 100, 28)" text-anchor="middle" font-family="Consolas, Courier" font-size="20" x="728" y="102.5">3</text><text fill="rgb(150, 100, 28)" text-anchor="middle" font-family="Consolas, Courier" font-size="20" x="530" y="60">id84</text><text fill="rgb(27, 14, 139)" text-anchor="middle" font-family="Consolas, Courier" font-size="20" x="752" y="60">list</text><g><path d="M501.3098187019021 30.169821810861023 C519.7682281857525 30.780133056697142, 537.1024483874132 28.603682569502794, 561.4292808221305 31.299701776704076 M500.48243130919127 29.053765317374886 C515.8801736280758 30.382419407801542, 531.382195310344 29.964256601786843, 560.8863790137057 29.056439252369785 M559.462605701268 30.72102013265091 C558.7204635547595 41.624505288374586, 557.9097161780641 57.20849357645232, 558.4186418587349 81.58024233796115 M559.8179162956884 29.216858395771123 C560.4916045147605 46.59000120693523, 560.0928308554375 62.05230306061959, 559.5493068725656 80.07478738186032 M559.8866453285059 80.7337422297654 C539.528389703729 77.77506261310577, 521.3816462649569 80.4566496471463, 499.9317632601775 78.93851086748695 M560.6108811772083 79.59395637281666 C538.5388626670422 80.39499654526841, 516.4454337916776 78.75294469666679, 499.3317514219352 79.85676083681437 M499.349832985378 78.59351537934336 C500.68295967446903 62.39477905867871, 499.83942340535737 39.88111893461301, 501.5478423255659 31.949677948381673 M499.6301563491684 80.07892154080126 C499.5430689012666 64.36143762192549, 500.19042498121064 47.643618424259444, 500.12999993054143 30.159048432397793" stroke="#000" stroke-width="1" fill="none"/></g><g><path d="M720.3733010299735 29.77569859562232 C743.1355694458281 28.662574001113885, 760.5871014346853 28.809426887768694, 783.3988660367155 31.587950455745084 M721.9170555090352 29.722370870191533 C742.5821162556044 29.846008453546805, 761.7528320458373 30.633223858686225, 782.5114237475109 29.383048609054043 M781.3222900113318 28.692824315490792 C781.2361276192737 40.54255434330463, 782.5792905768666 48.57768719197848, 783.3169957764319 78.07380002503794 M782.9701486495553 29.41834026232746 C780.9941504813952 47.246160278600776, 781.5031996023077 62.84488042427464, 781.2524571465601 80.2900440596099 M783.0364794638816 80.23458940407272 C763.5920234622865 79.93290577113086, 744.2166352539427 78.67247864692504, 721.7033330742663 79.40790283140119 M781.2620823349839 79.0388233306541 C764.2748344709865 79.64668839835707, 747.8083959891729 80.30099481801703, 721.0806472520646 80.57114329276794 M721.1860048612086 81.3864946514867 C721.4391746629691 61.03116023860601, 722.119012735807 44.16989320792964, 723.9762930591173 31.957281883441457 M721.3807724301694 79.60160367436104 C722.1414567236527 60.16998666741176, 722.1703677550386 39.77891210987953, 721.0075496721582 29.217752023397825" stroke="#000" stroke-width="1" fill="none"/></g></svg>