<svg width="1300" height="822" xmlns="http://www.w3.org/2000/svg"><g><path d="M18.475384936871762 31.379671636723756 C62.44148947426262 28.053048396919678, 105.44119035123217 28.869936604462023, 219.65637921917914 29.870499139800852 M20.47083209585604 30.620281666181466 C66.40980108631115 29.640521333219997, 113.81121106792435 30.17377085806539, 218.85298750653683 30.501006546727474 M218.17453459270385 30.440536617451354 C218.48525387411877 184.3097887416307, 218.01741276759765 338.13486004560997, 218.7511323562356 479.9547330036947 M218.2573977514039 29.690776003647883 C217.28286981093643 146.435927798243, 218.11000572666654 263.08137335982093, 217.67449131214045 479.91593814151076 M216.26102450655355 480.4205365096951 C172.38338150617673 479.47319128575174, 122.49290159552561 480.312209711218, 18.612507516825723 480.92271942121863 M218.1869492741226 480.96107964104306 C170.34582666886774 479.0838832882979, 121.32962774209778 478.5963058389187, 20.935516369586825 479.5667138042667 M20.122345844873966 480.2074040660064 C22.291421113547788 362.69457774196087, 21.564510486840394 245.35011200843027, 19.061225352486648 30.29525751067658 M20.280512305450035 479.5533904529595 C21.181180457312085 335.3068528967397, 21.79638741327484 189.91241918843778, 20.211841556637257 30.39896182237769" stroke="#000" stroke-width="1" fill="none"/></g><g><path d="M144.49994685557417 104.43431918964444 C162.74795197605488 105.38982398094323, 183.6617491172136 105.7822759106231, 200.51646194654086 104.63011587585432 M142.9016614372877 104.22759635338132 C165.00607025271498 105.14355901805604, 184.4629923301513 104.83663414869675, 200.02111247826895 104.9617009902212 M200.61014588909427 103.59001330116837 C201.16856246005017 123.80941119782413, 199.41582034839342 140.48970902051857, 199.84314072150187 155.9381808719344 M201.46732437349254 105.89650156145521 C200.46796743701265 121.99182649903112, 200.96037471308244 139.80446962788767, 201.67618165863286 154.14400316849296 M199.03592856654342 156.57044192803068 C187.62229276027014 156.29122841438846, 174.78521704074518 154.38064360334835, 141.7723580889985 155.8375310026047 M200.73583387451922 155.04446383622656 C186.0021165626 154.89430560581073, 171.88827066160007 153.52395225968348, 142.39895276662983 155.85981889680534 M144.86074302363454 156.53430745415514 C143.13724879804408 140.41998827398584, 142.20945941155304 125.94466458451734, 143.30990474693166 105.24776158792612 M143.3656381694134 155.13860732615908 C142.88682989383966 137.53321106747282, 142.21034746581262 121.86611783194542, 142.99519133143264 104.24185370530931" stroke="rgb(0, 0, 0)" stroke-width="1" fill="none"/></g><text text-anchor="begin" font-family="Consolas, Courier" font-size="20" fill="rgb(0, 0, 0)" x="45" y="135">lst1</text><text fill="rgb(150, 100, 28)" text-anchor="middle" font-family="Consolas, Courier" font-size="20" x="172" y="135">id82</text><g><path d="M142.17458518787583 181.07607181237734 C159.208864162701 179.88875805615902, 176.2648638626466 180.93696866791535, 199.03478789816285 179.3315818622249 M142.9280048182629 180.36144131875932 C163.63583453437485 181.39253702529157, 183.25160354807784 181.01735523563332, 201.76550278161216 179.84520131884202 M200.57487647279495 181.60389556251064 C201.04675748698287 191.96466127459246, 202.87485342749687 205.39695253825653, 199.93283435141458 230.284812940711 M200.33708937502772 180.63062093698005 C200.3229914555538 198.14793227727122, 200.5776960253007 216.62594601767313, 200.30589633005405 229.80798602847972 M200.20588962366088 228.53163915225403 C179.5223174123712 229.38540985153094, 161.26032557312823 230.99147793435654, 144.27784620161145 230.5281232353585 M200.63870842462035 229.93832585830145 C188.37933390775424 230.81479491223456, 175.5443180701572 229.5875361196872, 142.31635094930107 230.3336587859609 M142.1564395560657 230.81881290090217 C142.5072881664561 214.7630882532438, 144.06235492979943 194.52013183922327, 144.20744526592347 181.99068787996347 M142.95633020555323 229.4591808153729 C143.78090086785411 215.29221732718594, 143.66062247515273 202.95700796736813, 142.10509547652978 179.5981165322497" stroke="rgb(0, 0, 0)" stroke-width="1" fill="none"/></g><text text-anchor="begin" font-family="Consolas, Courier" font-size="20" fill="rgb(0, 0, 0)" x="45" y="210">lst2</text><text fill="rgb(150, 100, 28)" text-anchor="middle" font-family="Consolas, Courier" font-size="20" x="172" y="210">id84</text><g><path d="M141.71366633179463 255.92238853172873 C161.05512396451135 253.56415208397408, 183.7549552760414 255.01815020527127, 200.1193312512072 256.86519087920186 M142.09493691945474 254.8255559381212 C158.20186486734596 255.33931350984807, 173.23107125873727 254.76141439364835, 200.0943325505204 254.38058843651933 M202.03090375623563 253.23157080635593 C200.4092751837792 274.208444717634, 202.60057442156227 294.3098197274371, 201.96598474835002 303.11113028489234 M201.91274402476932 255.12856029859213 C200.24508792578393 265.9108050844373, 200.44140225283329 275.7237494566954, 200.30808478266258 304.54456336730385 M201.3581773353684 305.9431865256353 C182.25035487429528 305.5241936336967, 161.4430077179806 305.0691388246065, 142.89935417744502 305.5066159391944 M200.53926833719453 305.5854053161019 C183.25638003273073 303.9314801264189, 164.66056872720205 305.61426862802904, 143.64902332818556 305.7563523909691 M142.8425217662134 304.08687926609684 C144.52044980015475 286.9537317540041, 144.6649096903637 267.56299050509165, 142.51197505852042 253.28927778861512 M142.24844781759757 304.9605552831174 C143.1767567759719 293.2269888886716, 142.56424401740907 279.730856535826, 143.6143029981252 254.9374678100384" stroke="rgb(0, 0, 0)" stroke-width="1" fill="none"/></g><text text-anchor="begin" font-family="Consolas, Courier" font-size="20" fill="rgb(0, 0, 0)" x="45" y="285">p</text><text fill="rgb(150, 100, 28)" text-anchor="middle" font-family="Consolas, Courier" font-size="20" x="172" y="285">id99</text><g><path d="M141.90564153989618 331.62999342629234 C166.35350401335234 328.73509473551604, 187.8004252639319 331.22938132888396, 199.719081266668 329.60709762142744 M143.55105343069536 330.77848546378084 C160.0952931818267 330.39738551473187, 177.885326594779 329.53064344552376, 201.77055408190415 330.58196841999444 M199.97606836303154 328.8657924778246 C200.82114866829534 349.519979536243, 202.88012769395283 365.67200951746594, 200.67570759690156 381.2006810208052 M201.94016891509935 329.0669836330613 C201.84974715057407 347.65415144419035, 201.636563112975 367.08084132557843, 200.35600566983757 380.86903217858645 M199.8202882474041 380.0068767379619 C186.0191478895736 378.44223250599947, 173.4114596924497 379.0333129498863, 142.57893288785166 380.98427225522636 M201.88780145086767 379.04228272254966 C187.3112180086133 380.1897009315659, 174.79928121141342 379.14140529641, 142.00474182579578 380.8695039278763 M143.73625626883154 381.0550248902881 C142.69231770761502 366.0534243964108, 142.13066516483053 353.4065614251982, 141.98125189532738 328.17842268286773 M143.86202450332792 379.9908453592461 C143.16596015449534 364.3848532288935, 142.0309888679018 351.29540878909967, 143.0005117419792 330.12371010077084" stroke="rgb(0, 0, 0)" stroke-width="1" fill="none"/></g><text text-anchor="begin" font-family="Consolas, Courier" font-size="20" fill="rgb(0, 0, 0)" x="45" y="360">d</text><text fill="rgb(150, 100, 28)" text-anchor="middle" font-family="Consolas, Courier" font-size="20" x="172" y="360">id10</text><g><path d="M143.92699918786582 404.9292591130403 C158.05356709259243 403.9109330999795, 176.42926184352447 403.77024430904424, 200.50247583417064 406.4781849839532 M143.3177931666637 405.4921125068197 C157.6126602117552 405.81677017818686, 173.77150956871418 404.346511745612, 201.31068775258797 404.94621700543723 M202.49289974461283 406.3015416978103 C199.28723266884103 421.79387395144676, 199.61749690612638 441.64680960963915, 201.44175116008816 454.60739763456945 M200.8571675126864 405.11282469800784 C200.99964500992124 421.93941760725363, 201.0515531989056 440.95777226340726, 200.51877826937374 454.0797208916467 M202.7988627870122 456.04358131841116 C182.45224149296124 453.66847975190564, 166.49091168610272 454.8633593099348, 143.35282455301646 456.6171221765025 M200.17573328704748 455.5773847870437 C179.6506700929305 456.0173517412648, 157.6289995984645 455.08476852230694, 142.553005149281 455.7680418847363 M143.63833671538748 453.3272255872923 C143.98110037702625 438.6671878210258, 144.4747101317573 428.0685162386947, 143.3876879226702 405.0588655136158 M143.02782040583276 454.41624385336314 C144.19274397129254 441.732090744237, 142.54327661515464 429.1699416127199, 143.48147167786468 404.9314598516586" stroke="rgb(0, 0, 0)" stroke-width="1" fill="none"/></g><text text-anchor="begin" font-family="Consolas, Courier" font-size="20" fill="rgb(0, 0, 0)" x="45" y="435">t</text><text fill="rgb(150, 100, 28)" text-anchor="middle" font-family="Consolas, Courier" font-size="20" x="172" y="435">id11</text><g><path d="M19.678903059407197 28.455020278232883 C57.52544718536786 29.556878456779547, 92.33494618486328 27.686692473338045, 127.8460990523836 28.745013123273107 M19.33534893613853 30.001389303380854 C41.69761537499823 29.92117321759656, 64.3251177415279 30.900863151859387, 125.98019148734215 30.758020977603106 M127.34124802299958 29.253069153783887 C126.02237616737209 45.19324917706432, 127.40531508667604 57.10945941214573, 124.87231634872268 81.70612213626549 M126.74610913356942 30.928916540633008 C124.90548933299164 44.67849821205225, 126.1335298492821 58.72283070653377, 126.9827238427774 79.42389274022388 M126.7646856243895 78.21007534062215 C85.035632147413 79.38938467770618, 46.18289280828 79.80776324713298, 19.89153559737412 78.35696215566587 M125.09040443486 80.03646532140488 C95.85825716827284 79.04040173528075, 66.73227394192948 79.29219831067688, 19.217411767611686 80.48087354813853 M21.80042633189623 78.32585688858123 C18.04506604283254 61.89405989914526, 21.365293267243768 39.50180219054678, 19.413163931596443 30.069396960841516 M19.143873305954546 80.76680777825747 C19.294504706306487 63.7433512171722, 19.764453427781323 45.2955617267014, 19.642444231575322 29.494829430242042" stroke="#000" stroke-width="1" fill="none"/></g><text fill="rgb(27, 14, 139)" text-anchor="middle" font-family="Consolas, Courier" font-size="20" x="73" y="60">__main__</text><g><path d="M21.462569964433523 478.38273179869503 C89.23948341246107 481.7676619815519, 156.54841665332094 483.04409692667696, 219.04021567446543 481.9087605196913 M19.02078036219125 480.28579839050576 C89.64767243114375 477.25987065663236, 161.32306357809094 477.73755255195357, 218.12190702731996 479.77801386865474 M216.3166046922992 478.7158924721863 C217.80858733117412 558.6429447292458, 217.63427294434734 635.3109640077867, 217.455381054062 705.3687393871272 M217.59265315939126 480.25925872197666 C217.43204285825792 532.4965421532987, 216.6804232686715 585.4515187137367, 218.81717155821966 704.3657468035329 M216.24206266009145 703.4606860708253 C169.29542068209275 704.5923717778393, 123.08507527387918 704.6974823942995, 18.86382250815307 706.1614740883991 M218.5566705716782 705.0159064964406 C178.4930772697024 707.3397745744066, 139.06110875722288 707.4268178274651, 19.32254890623291 705.7062730957712 M20.46327776566048 703.4915592981225 C18.668476388964894 616.2117154636264, 18.289267189032593 529.9738112314709, 19.813993454423233 480.3178950126841 M19.626457108190916 705.7729645990095 C18.80205058866397 626.282057758308, 17.708424334349925 547.8055995924251, 19.858916719873825 480.58964853280935" stroke="#000" stroke-width="1" fill="none"/></g><g><path d="M144.76845228144435 554.7326590127441 C162.3442489524311 555.5464459146559, 183.78135464327386 553.9424065717403, 199.42645083089576 555.2745608570817 M143.88954886016504 555.2495477880133 C156.87242193832503 554.9373978693797, 170.57612437972466 555.1244767793881, 201.8534703973892 555.5509329957948 M200.97211147157313 555.802797188245 C201.48864074481224 564.352893749001, 200.65907921053693 577.3447583915764, 200.58657978901172 606.2493735914848 M201.0480127269784 554.9463721102211 C201.38455386498387 571.4436737925855, 200.8645570140232 588.0363522960565, 200.29200915323082 604.0055874407493 M200.67222926696164 603.4391306284355 C184.80042806318596 604.3383199947157, 167.35504252352902 604.398055935905, 144.74577727504655 603.1189054041542 M200.3266248696934 605.6412106009129 C178.75353088028118 604.8435208182881, 155.21567037962936 605.6711125836192, 142.57692093453863 605.3192423068461 M141.15896733226938 606.8897700406706 C141.9136606390113 591.3624398500838, 144.18395118413187 576.9130772777565, 143.9691946650653 556.713937124372 M143.29526180207705 605.7008508875588 C143.3573622007967 588.2628217886619, 143.4221857246543 571.2421338447695, 143.59015776088827 555.4965744913617" stroke="rgb(0, 0, 0)" stroke-width="1" fill="none"/></g><text text-anchor="begin" font-family="Consolas, Courier" font-size="20" fill="rgb(0, 0, 0)" x="45" y="585">age</text><text fill="rgb(150, 100, 28)" text-anchor="middle" font-family="Consolas, Courier" font-size="20" x="172" y="585">id12</text><g><path d="M142.20868236326385 628.2957384737016 C159.7867193143403 629.5137124293141, 181.69196265024243 629.2122953128287, 202.75051378716412 629.1091121734086 M143.77353723068336 630.8309496109612 C158.52607273364538 630.7706281615896, 172.8149914260182 630.952912019044, 201.0254571240576 630.1835269423112 M200.93070160961858 630.8329837473697 C202.51136829388653 646.3217784967763, 199.46274944860556 663.3997556548043, 201.23486399905693 679.6115550711917 M201.58615036428284 629.5494012016967 C200.54825687672633 644.3294505044822, 201.44985509051838 658.9639063064461, 201.92712366241733 679.0312878205691 M201.26233407602075 680.1160870410088 C186.72207986567435 680.7392103591297, 175.40686342919997 680.1347003524751, 141.36857718438137 678.8933065886775 M201.30865891948915 680.477614342372 C179.9749890551037 679.5101215534306, 159.3052447401405 679.5623558334197, 142.9064837067772 680.882204941344 M142.37474774670937 681.3484307625179 C144.90597647837987 663.008914306795, 142.71096287238325 642.2255198060633, 142.3986770866907 631.6907748997514 M143.9424707849619 680.3715256750033 C143.1430642717442 660.7936259980667, 142.4603139650607 642.2296333492238, 142.16594577272494 630.2958664314286" stroke="rgb(0, 0, 0)" stroke-width="1" fill="none"/></g><text text-anchor="begin" font-family="Consolas, Courier" font-size="20" fill="rgb(0, 0, 0)" x="45" y="660">name</text><text fill="rgb(150, 100, 28)" text-anchor="middle" font-family="Consolas, Courier" font-size="20" x="172" y="660">id17</text><g><path d="M21.654836834865865 480.4717104938814 C30.98511447107689 478.21753962219145, 44.71658709239702 478.24910984926794, 76.16486473874188 478.4437419053541 M20.41697888358658 479.27900652933346 C32.522412233000175 478.9992582368383, 44.400507925135 480.01142889686156, 77.62398057431234 479.89491955418333 M77.32467760020546 478.1770235999615 C78.04411833223446 490.3122855196331, 76.68968040191679 501.25973982339485, 78.72471753827253 528.6149781703516 M78.58371764034487 479.5934553004682 C78.28688698924144 496.64115015127, 79.0001997407689 511.1308658844123, 77.87388726823055 529.8508251441273 M78.11383650032003 528.0430031172383 C59.16269441156587 529.943210543158, 38.67149090448722 531.4643852282665, 20.120569136823445 530.4495848669031 M78.67239854897599 529.1125507505714 C56.59296889175274 531.0277443953137, 34.67691635046391 530.3323786300948, 20.412810004973142 530.4495909025563 M20.380879162355924 529.300343715808 C20.17868556614719 516.2915280429922, 19.70436226773358 503.0210439581367, 18.327525582558938 480.09418688248206 M20.825042738093874 530.573422630649 C21.221290064890965 515.2344174602613, 20.099273262419945 500.8020794991781, 20.96937802169194 480.65593924656685" stroke="#000" stroke-width="1" fill="none"/></g><text fill="rgb(27, 14, 139)" text-anchor="middle" font-family="Consolas, Courier" font-size="20" x="49" y="510">func</text><g><path d="M284.9440419093744 104.54200959168305 C300.4549984815046 106.00190436080851, 314.2755941624288 103.31258294797917, 334.17255660115256 106.61361503607951 M282.7020999075325 104.03094594457667 C300.4265675598335 103.8755136062035, 317.04659913795564 105.26596006498427, 332.8309709783148 104.3705979764967 M331.0001133154458 104.80273352348738 C333.61961374931064 117.30091686191281, 334.6766019878299 127.1484691703631, 332.17759594884683 153.83789650928946 M332.6513696582185 105.14478456923503 C332.2817575736862 121.88330058959372, 333.1026268823278 140.33110411916817, 333.59636207607116 154.17677872387773 M333.94472892793635 153.59672083774538 C319.77893098821517 153.51114205580123, 307.9337848674961 156.75735705388095, 282.05736921877605 153.50232492666547 M332.21844063003414 154.87880268415665 C321.87440475263065 156.4197655456162, 312.68099477736115 154.95142678035324, 283.8998568969183 154.52923978685737 M284.7687324202349 156.0346937692297 C282.59310090919564 138.41593539746276, 283.9032344859362 125.5038437313713, 284.9991567737947 103.13692384026378 M282.9294881889218 155.69810557505312 C282.77965494860274 139.8155897295953, 282.1584342608819 126.1959164193348, 283.7653236250177 105.09546666697331" stroke="rgb(0, 0, 0)" stroke-width="1" fill="none"/></g><text text-anchor="middle" font-family="Consolas, Courier" font-size="20" fill="rgb(150, 100, 28)" x="310" y="135">idx</text><g><path d="M284.09064113894954 181.2774876578873 C301.18995149692097 179.3579415699701, 318.4087089901641 177.85048137930445, 333.20868821005246 181.90013526878013 M283.9217266250132 180.80155381626193 C300.6493110130272 180.46474436443285, 319.56116717258664 179.41316867204293, 333.5582383238644 180.84175014683572 M332.3891700022605 180.07193369032595 C334.9877747618893 194.70743769501755, 335.23342772010955 205.02004270233178, 331.8240427088507 231.11002298021563 M332.4968163607417 179.4463940286288 C332.79014583855155 194.3293905215503, 332.2239724000648 208.2640309475313, 333.0456385172548 229.29140353089423 M331.29114282193626 228.82478987781323 C317.66990917093426 229.26670759314393, 303.9721724293567 231.70008181534493, 282.73014782126285 230.5817795664497 M333.47644982897816 230.1809973130847 C318.86112916790967 230.99676761290993, 303.22734821936876 230.34512560292538, 282.34281378701405 230.2978305771904 M282.54851084081923 231.08833862705765 C281.35045166735944 208.07223715610556, 281.18089767643755 188.78404465185324, 284.16634262626417 180.67848648894625 M282.7393747467851 230.1681501834079 C282.608438517884 218.24274650638083, 282.80438081833273 205.34984963386358, 282.99919930088504 180.40025269370201" stroke="rgb(0, 0, 0)" stroke-width="1" fill="none"/></g><text text-anchor="middle" font-family="Consolas, Courier" font-size="20" fill="rgb(150, 100, 28)" x="310" y="210">idy</text><g><path d="M282.80739128473624 255.92144258255775 C294.797155373899 255.09906338353127, 302.4022417908563 253.46117579421687, 333.4143618144358 253.33545098963359 M282.0379782153296 254.3081631517228 C296.64522611456437 254.42557025044871, 309.39100367942785 255.3312886864099, 333.1873889631037 254.77829459345378 M331.8925474164975 254.69902634350728 C335.02428491216307 265.949910219253, 332.3222472711674 276.21420530191443, 333.8393465513056 304.9360911368342 M332.9146481339099 254.41195004679832 C334.1345921682839 265.29846914104286, 333.348548553224 275.2304810779474, 333.5400511519226 304.9941386487642 M332.1798600419914 306.7871203746503 C320.7291290739151 303.8821714955417, 309.8858996046407 303.6447443445601, 283.4626741530862 306.1930586377194 M332.6957046477507 304.8787469549442 C316.6505902553561 305.9159553468348, 299.9463238486305 305.5191625356491, 283.91961795176513 304.5433385883989 M282.86570045016094 306.98830573486936 C284.40270467099157 291.16669958461875, 284.0031146005221 275.99296208644694, 281.52920429688464 253.09830811164525 M283.68059436175866 304.9479211041834 C282.5527435843682 293.60139026987326, 282.6607101870925 282.5149975080203, 282.96831008259414 255.65557012764634" stroke="rgb(0, 0, 0)" stroke-width="1" fill="none"/></g><text text-anchor="middle" font-family="Consolas, Courier" font-size="20" fill="rgb(150, 100, 28)" x="310" y="285">idz</text><text fill="rgb(0, 0, 0)" x="364" y="135" text-anchor="middle" font-family="Consolas, Courier" font-size="20">:</text><g><path d="M382.15463897421523 105.88408333241208 C399.39618867707884 106.47149493301939, 416.1512742680053 105.82208841899212, 443.5988127327638 106.45505095008232 M383.13215444024456 104.73862302478564 C396.38270383531193 105.48891059253982, 407.6490565045641 105.2384978693402, 444.6472969344702 105.13279761012946 M444.2282124846746 105.21497835126885 C442.71451049545425 121.58216495171901, 443.9305979914224 139.54929877559968, 442.8675214582318 153.48404177664833 M444.45692680394427 105.15936231392952 C443.60852168665485 119.49593882771252, 443.81053415211187 135.0813741183522, 443.54887756547475 154.284054782922 M445.763754705996 156.97032470093097 C428.690539971664 155.40661349342614, 417.89275530966796 154.66886331117803, 385.6655151639962 156.88548058644446 M443.2626050157124 155.9974986754579 C427.9798615395286 155.61659999105302, 412.1040522459439 155.15160745624016, 383.1294569949765 155.8187025526747 M382.0963424542101 154.62095883003877 C385.69851406412397 137.0248836600208, 384.37013254892196 113.67869727205732, 383.8924336430153 106.29259040762696 M383.30229864271 155.19725440694862 C385.0839573962238 136.0797267638849, 384.8294759656421 117.25114908580117, 383.4695571014569 104.50143452109174" stroke="rgb(0, 0, 0)" stroke-width="1" fill="none"/></g><text text-anchor="middle" font-family="Consolas, Courier" font-size="20" fill="rgb(150, 100, 28)" x="414" y="135">id81</text><text fill="rgb(0, 0, 0)" x="364" y="210" text-anchor="middle" font-family="Consolas, Courier" font-size="20">:</text><g><path d="M383.7344363872668 181.22921817775304 C411.0083888780736 177.3279680450661, 438.36476421470553 180.1491376605549, 457.4128617081554 181.38362775064982 M384.7145851774436 180.80231410506278 C400.78489791679743 179.90918216305678, 417.805188400692 180.70653235534903, 456.18321030986993 179.83615521111184 M456.3766467489134 178.01214056293733 C456.30670778844393 193.85714889248706, 455.0296492336719 206.4472071710868, 456.57065822118125 228.3226505421346 M456.21683030350164 179.0136061118516 C456.28048668594226 191.10457502330613, 455.0995640843832 203.26223764407408, 456.1566814521748 229.5576207324471 M457.895695093569 229.6774869353442 C435.624994834089 230.30858698063076, 411.19332797303286 229.02489813382525, 385.1819509774939 228.56179468231093 M456.6388690044707 230.36596215724833 C437.107774130046 230.8949837120023, 417.85690314414916 231.39014803357085, 384.3930462633996 229.1644619655007 M382.90291182970833 228.08261587767512 C383.01895259979284 214.71214845670457, 382.22696194835885 201.91729249624788, 383.33316751970807 180.65854896408788 M383.9161935029243 229.5046502545229 C383.2296221485007 212.33229589534795, 383.48907365672864 193.27763941459182, 384.39363733358 179.47379230873403" stroke="rgb(0, 0, 0)" stroke-width="1" fill="none"/></g><text text-anchor="middle" font-family="Consolas, Courier" font-size="20" fill="rgb(150, 100, 28)" x="420" y="210">id100</text><text fill="rgb(0, 0, 0)" x="364" y="285" text-anchor="middle" font-family="Consolas, Courier" font-size="20">:</text><g><path d="M382.43171826547643 255.05465391950483 C410.3050757543043 254.38237239360188, 436.56483572822634 255.92430420798473, 456.5772785785996 254.8618751819665 M383.18382788428147 254.4895757171604 C399.8159400732278 254.71039037040984, 414.16577903174317 255.3751517131211, 456.49317865609925 255.2980815326798 M456.95387654840994 255.89893936024313 C454.89828655478516 266.2313274689774, 455.5416282646939 279.137611351398, 454.69348070490486 305.30787070742196 M456.3791013939004 255.319362830456 C456.2876948401088 265.6022325629812, 455.6781978265915 275.9093998475257, 456.63341984000493 304.14041132365344 M456.7046378019443 303.9721553180825 C437.79102042048976 303.85653441133707, 418.06990908927867 306.0394282221026, 382.2623141679766 304.4275439230253 M455.5929128135047 304.5693365317249 C428.12945292100505 304.0964107654589, 398.86184773223965 304.6315229674627, 384.952642721623 304.43280020021035 M383.7829665925217 304.75006964292334 C385.6689287074812 288.151910012231, 384.6077123073487 269.63054068313323, 384.88597353450075 256.7182209190731 M384.96147609688205 305.93405294778773 C383.13027187151135 286.68174670363345, 382.8304905368141 269.3889345740945, 384.1961901428178 254.76784070080868" stroke="rgb(0, 0, 0)" stroke-width="1" fill="none"/></g><text text-anchor="middle" font-family="Consolas, Courier" font-size="20" fill="rgb(150, 100, 28)" x="420" y="285">id121</text><g><path d="M259.1993149852371 30.219876246464995 C305.3575356457785 28.468784759313237, 355.28961530888216 29.777545404852372, 470.3171619790593 29.87169371108791 M258.7482754017455 29.96389586463526 C313.2586892109696 29.480065024078456, 368.50045679547367 30.19711679794559, 469.5627030512365 29.531394280043855 M468.78863638442203 29.012599532638394 C467.21278395720344 144.28070187559123, 468.3266251243274 259.2647960166695, 471.0131845337432 330.4479044201829 M469.47739164497244 30.58771546928475 C470.51873183117794 147.92224592942867, 469.7568165955206 264.7490248876614, 470.30258909356104 329.6856072760789 M469.4549530847948 329.40313620754114 C410.71940240512646 329.57891644323587, 355.09473288337125 329.11862201923344, 257.0113180021482 330.72718183210463 M469.5523661702178 330.8080392719652 C401.9806462082233 329.6658612036083, 333.62845675910677 330.0600865469519, 257.44355598852434 329.1443712150899 M256.63076677992734 329.12694201497055 C256.5389094089475 215.66231017494889, 257.2464484908059 99.71677637311289, 258.70508889374105 28.698575980752366 M257.7817684292919 330.5649642510769 C255.97815843327336 268.92041382002157, 255.36447978123883 208.0394172706071, 257.28426695635005 29.662672507287635" stroke="#000" stroke-width="1" fill="none"/></g><text fill="rgb(150, 100, 28)" text-anchor="middle" font-family="Consolas, Courier" font-size="20" x="288" y="60">id10</text><text fill="rgb(27, 14, 139)" text-anchor="middle" font-family="Consolas, Courier" font-size="20" x="440" y="60">dict</text><g><path d="M256.2783612175873 29.48778028553932 C270.29916855887313 30.279788210206878, 282.7228741459766 29.187379503410668, 317.84525076113397 28.404153046013377 M257.57018937284096 29.590845705482266 C279.8120998556538 30.252636253621276, 299.83709596898 30.741095122541637, 318.71587138537967 29.083310650293516 M318.54716893014046 29.354435885570943 C318.5341354744995 47.620250717481056, 319.53246173931547 67.79667834418657, 318.76399806180484 81.47416401607387 M318.0948752143766 29.81011654046864 C316.8632669854065 44.76575478860344, 317.71780788845587 58.94109785131931, 317.91272772071534 80.00441136005495 M316.1543235820067 80.48551062576612 C296.3899796757446 80.9520694553409, 273.9861335307626 77.6513108779142, 258.58208518443774 79.81818908133789 M318.9569572418529 80.00347995348176 C306.1038739511804 80.64058560886791, 291.78634386926865 80.42920165801073, 257.0013263423011 80.62896735766434 M258.1142381634514 79.16219494002891 C258.37528425272046 68.51766782252389, 257.810759364794 55.30665086426735, 259.89577228974315 28.150568604263047 M258.27259610975364 80.54040266840396 C259.15742695135674 68.82898941105955, 258.71768558197726 57.312680458777415, 257.060300176709 30.03843722912466" stroke="#000" stroke-width="1" fill="none"/></g><g><path d="M411.8795413656551 28.897491731525502 C426.5403255783163 31.87937174009336, 448.52549324057867 30.637253217036122, 468.1752693191068 30.164929438873557 M409.7864305627233 29.67608841996996 C427.4214774074376 30.45504202102163, 445.2381309397623 29.797982124109357, 469.89966307528437 30.183555297860714 M470.10737209141297 31.34757645362717 C469.2320500500503 41.25004102303365, 469.9958310421111 51.82899004103949, 471.94494185910344 79.52751574107452 M469.18484685192146 30.070390088393193 C470.3099184944009 45.72162639520206, 468.5651531540132 63.942087304276214, 470.5779395169835 79.1441009208708 M469.0126099005378 80.27700706521226 C450.3495444132977 81.32160895899084, 430.78053035905424 78.53481419014133, 408.5713029818862 80.49425962158288 M470.9693038384325 79.14721266266267 C447.6105964691454 79.78254782268398, 427.96778968087534 80.47156322084396, 409.4566469443897 79.54895511569693 M411.5872844115536 79.4044030145252 C410.38295099316815 60.725680776770346, 409.1533154758266 41.40641245427674, 409.5120478365263 31.937213714570937 M410.72127061245726 79.77625673976839 C409.77751701139533 60.8516123946054, 409.7299259230394 40.78078254520019, 410.1769619686803 30.83872704505299" stroke="#000" stroke-width="1" fill="none"/></g><g><path d="M501.1880167401191 30.04155546478395 C562.5017924446253 30.16644411451353, 627.0969866401362 31.72105933171157, 700.5921122277394 29.09718347790222 M500.05918769243306 30.207083672378438 C542.2594126331252 29.585691723034486, 584.0380784471253 28.773736744967266, 699.8917186548748 30.285959636745122 M700.3310747419144 28.264175108336794 C697.7369423530309 69.80088001762589, 698.9866299064388 112.6845101064227, 701.5828905253409 160.91314689993774 M700.333939747131 29.30496332989693 C699.8041177910404 76.96872944618961, 698.8792232457475 125.72164365890849, 700.5379109781662 159.79722672565595 M701.2879796893902 160.02096590157242 C648.925322715492 159.97267490404568, 598.6216772108629 161.14610689346807, 500.66740907044976 161.09993273593756 M700.1126968899322 159.19424500429594 C625.8388625374932 160.45277069308545, 551.181593635991 159.90003013404927, 500.53757986394595 160.44066372461035 M500.62191530433523 161.55055981642948 C498.48676026312563 126.56802882609931, 501.6848118670121 95.66832527272018, 498.3437385654793 29.702233610325003 M500.12296121516437 160.9267248178263 C499.8701322556476 132.91751716424383, 499.5040010697007 105.66029893127191, 499.3273741780844 30.521323786544208" stroke="#000" stroke-width="1" fill="none"/></g><g><path d="M494.2495594248168 24.686677114902302 C548.409976713405 24.284177205653158, 601.315579814949 24.173891418358277, 706.2274159709029 22.730665214386697 M493.50999214357233 24.307008057427534 C551.6914267126795 22.11414149491413, 608.1563647037775 23.35697753726917, 705.3223505001281 23.71301083666644 M704.1252734617381 22.12612333069563 C705.0988181541777 77.25386448716212, 708.196023270949 126.41449090257423, 707.7850076620274 164.5263813187719 M705.5191391554697 23.573961986052712 C705.6703591949122 73.12388298985515, 705.2585286991564 123.29054507158222, 706.1570788437272 166.9842305261927 M707.2090060715228 166.93520382597035 C628.9775576151217 167.6568126278616, 549.6594336419407 167.56654522594863, 495.3176483431249 164.63893009628543 M705.8678723173022 165.72779236022765 C631.4950174369582 165.53373417825932, 557.7016131253798 165.90381494091875, 494.541839202488 165.18103008301026 M492.7422485028038 166.7075183684261 C492.5885976581331 128.9204183566153, 491.96337460260736 90.61548742473111, 495.48609772140975 22.73785821335175 M493.4769001028878 166.08244755985567 C493.1253991777772 136.81239391739837, 494.30719666781295 109.24349773275198, 493.77647217254315 23.239999452649943" stroke="rgb(0, 0, 0)" stroke-width="1" fill="none"/></g><g><path d="M526.182256742685 94.85744431782655 C539.4354558501389 96.46139692453707, 556.2039752148542 95.36328710450869, 583.3232053637125 95.09913955355466 M524.4612409215081 94.49212810649433 C538.5329528162368 95.28172931817652, 553.1484645660462 94.48441634429611, 583.252171918873 94.68461479061683 M584.4637403424568 94.88338066294521 C581.1121519967014 108.60986037053344, 582.3507703938473 121.58391284091012, 584.5800038821457 144.3162504810241 M582.6998887497766 94.62990888179229 C583.1802597235129 113.71149852750911, 583.6112814850673 132.8412136094028, 582.086911914151 144.99864494403263 M582.2371326696891 143.1477680356159 C569.1271448380871 143.0259240226579, 555.9548960103182 144.3542835662039, 526.0809373765514 144.63539542362764 M583.3968327032109 145.15816828566443 C566.9627578888109 144.76895381675743, 551.8496845286578 146.25564748828631, 524.4445633786514 144.94964494852547 M523.9086580252624 146.12456701568496 C525.6195043337476 126.85030889576949, 524.431102024235 111.52032953401729, 525.316406460724 96.13949958761333 M525.3710206119146 145.55417680310256 C524.5786356180349 127.98929426162869, 524.601899079562 111.85063008308121, 524.9719356848444 94.20910136060257" stroke="rgb(0, 0, 0)" stroke-width="1" fill="none"/></g><text text-anchor="middle" font-family="Consolas, Courier" font-size="20" fill="rgb(150, 100, 28)" x="554" y="125">id82</text><g><path d="M584.2449573791785 93.50340900107574 C601.3076659303548 94.0936718769471, 620.7433700166151 93.49809949109839, 642.9586905958125 96.7650228561917 M582.1660039280912 94.14007005562459 C598.8557441508334 95.44252822006679, 614.7138864042772 94.64267871097745, 641.550349858982 94.5733768491477 M639.4721773066626 93.05986977052515 C640.8456420148999 107.90571327834282, 639.5029944489083 125.27298140857289, 640.9318851761768 146.88290655254218 M641.6156744821558 95.1549466257854 C641.592374462572 104.59058420308872, 640.582604333412 114.77053058165995, 640.0485036856788 144.68553545805713 M642.4488676707017 144.06410452798067 C621.001499701478 143.05934111898242, 601.9563280448223 145.9625990688354, 584.642148846929 145.08248598880084 M641.9178393234716 145.22896724752502 C620.6388622810113 144.4207987000113, 599.2954422471877 145.15367261529428, 583.8453759111842 144.909834433719 M581.9602800247727 146.96531887106175 C584.7479582572194 128.6221506104468, 582.5540774725085 113.63015341298075, 584.8987093484 96.39612088214514 M582.5078606093753 144.6948504387667 C582.8904876981524 130.337527191237, 582.7581267067461 115.12160489963487, 582.568030361858 94.30852138146926" stroke="rgb(0, 0, 0)" stroke-width="1" fill="none"/></g><text text-anchor="middle" font-family="Consolas, Courier" font-size="20" fill="rgb(150, 100, 28)" x="612" y="125">id76</text><text fill="rgb(150, 100, 28)" text-anchor="middle" font-family="Consolas, Courier" font-size="20" x="530" y="60">id11</text><text fill="rgb(27, 14, 139)" text-anchor="middle" font-family="Consolas, Courier" font-size="20" x="665" y="60">tuple</text><g><path d="M501.50894994281435 30.542289363422622 C521.0698268897296 29.786014517097197, 539.1171583865109 29.926856719911708, 559.0460813447758 28.56203608388534 M500.1834895116936 30.26963526666599 C512.5292480257365 29.893043267142474, 524.8790331857333 30.25382401793767, 559.061660069216 30.949416017900486 M560.7902075516793 30.065941848000342 C560.3608593837364 40.062691537415766, 559.8924932428035 49.42545217045842, 559.0389600505503 80.1035646304507 M559.019297278238 30.273245332665525 C559.6881135298503 42.17356500816746, 559.6243833573784 55.53349818673593, 560.9073166468309 79.73689332055291 M558.5005206954839 81.83319775854137 C539.4677296489434 80.38517094606631, 516.7123394583119 81.27650084922969, 499.34061136863744 80.16598140489774 M559.5940654989895 80.37926242916949 C546.0409322389113 79.15249231950888, 534.3775454725019 79.66223899678289, 500.15751878757413 80.09660495732531 M501.59350579623646 78.97411036969606 C499.3757535116619 64.1672480412704, 500.55990941583536 45.869262671893026, 498.02247656878126 30.491045363445245 M499.4876173724839 79.89074717059849 C499.5514987050036 65.26142891015972, 500.1430523057424 49.66374708167748, 499.2499358613873 30.44739026486553" stroke="#000" stroke-width="1" fill="none"/></g><g><path d="M630.8182160291401 29.162508204084126 C648.0765554855006 30.88010921348693, 667.0712907940102 29.257077187544265, 698.0024539074577 30.703669049325832 M629.7585541207426 30.193319544635106 C650.9001285542826 31.233989209512917, 672.558519268267 30.10606110113132, 699.3701324555788 30.76384352546056 M699.4298835054045 30.553544993865806 C701.524564943873 45.59574173531622, 700.7911837671326 65.20241157981253, 701.4495389698005 78.55067740612749 M699.3928220710408 30.734960407353856 C699.5814280751654 44.92934093699141, 699.1072812249532 59.22813151276007, 700.6312325311837 80.52091476952683 M699.5577587796129 80.43496007129987 C675.0328486699964 82.1343492938574, 649.0084302049264 80.88478655252028, 629.866296416477 80.68174431422995 M700.1537685222811 80.33665187144003 C683.2824779064783 79.02767008563022, 667.7131786856044 79.06263594151991, 629.2040119678577 80.5091101624495 M628.7107456419791 81.78260708332255 C631.8143165632771 58.723636798261644, 630.9908012549739 41.20608836002414, 628.5395728885248 29.294238915233887 M629.9568494549651 79.91295707582171 C630.1075843595053 61.89565238473439, 629.0505335784334 43.0505281520165, 630.4147270774571 29.1935931172885" stroke="#000" stroke-width="1" fill="none"/></g><g><path d="M729.0784188524115 28.72848521832396 C789.589253928597 29.851377372058813, 847.4150927700874 30.861794000106645, 928.4478325660955 30.61914188113814 M730.2964879439745 29.2092738652315 C808.6345659497804 31.301514563333217, 888.7409239027708 31.50953484461397, 930.1845658725376 29.193211397930153 M930.2394232089583 31.456269961163393 C930.3035140524984 81.1274940359209, 931.6880799701582 130.22400072750406, 930.9717771142654 161.3512294113194 M930.2171860734 30.672438053821264 C929.6406485524125 65.85501953510337, 928.7961416666645 101.51542621015797, 929.446957829334 160.1216728273256 M928.6943540960574 159.87150827817212 C856.4345344653447 159.93128622937203, 783.4959174737315 160.08237446323756, 731.4725305999888 159.86590790896295 M929.1689619709606 159.65782641054733 C887.3112088308944 158.84720247996836, 845.3246384522485 158.48151039946725, 729.9632080669642 159.99180296780884 M730.4667859986455 160.37146972463086 C729.2684900108748 115.25418589064579, 729.056300747852 71.42318079147103, 730.9858082100176 28.168008870037596 M730.8436304032931 159.19491009217043 C729.8305300082798 112.58848979531206, 730.5702875652526 64.67363435331413, 729.9675180316032 29.205419133866286" stroke="#000" stroke-width="1" fill="none"/></g><g><path d="M724.854164815337 22.871604915818885 C794.1584468467677 26.507012186975285, 864.9868984349073 23.771437568407517, 934.9355414060618 23.044842223100268 M723.5168458417758 24.453554377222773 C787.6056043168196 23.498264296588168, 852.0171572309918 23.02295732886201, 936.2290216139507 24.680407773058544 M934.2749557985285 22.573751530541966 C933.0734634189864 65.60255382379005, 933.4113753613381 103.19120256437763, 934.9792415128858 165.2571631553142 M935.6846247683867 24.399349483173793 C936.3861533384211 60.48402155591567, 938.1078257858308 97.85931854950171, 935.6559819368654 165.53417111361176 M934.4088916129917 164.35643874334633 C890.4881006237943 167.4802178493157, 843.2585595710648 165.49110574792664, 722.7619958257553 165.27235293955323 M936.2348375831534 165.4213889623512 C871.3449866500637 165.7280463372652, 806.2368000155019 166.11157822670916, 723.4242957245992 165.88233272432637 M725.5418953841887 165.59892937627853 C722.2318932197587 130.3885933441121, 723.663998916049 93.48151099659513, 725.990954193531 24.415824087314355 M724.396979444537 166.5180597863796 C723.4184902923613 130.1980216045012, 723.4327037847551 93.15605750371266, 723.886955632427 24.998950071703668" stroke="rgb(0, 0, 0)" stroke-width="1" fill="none"/></g><text text-anchor="middle" font-family="Consolas, Courier" font-size="20" fill="rgb(27, 14, 139)" x="830" y="120">"None"</text><text fill="rgb(150, 100, 28)" text-anchor="middle" font-family="Consolas, Courier" font-size="20" x="760" y="60">id13</text><text fill="rgb(27, 14, 139)" text-anchor="middle" font-family="Consolas, Courier" font-size="20" x="900" y="60">None</text><g><path d="M729.2438153941227 29.741221103438626 C744.4334753048805 28.338512813638296, 755.5466316961272 29.071892920915673, 788.6573936471037 29.99354891041859 M730.4840702558166 30.88441803083445 C752.430047170558 29.221651322630365, 773.9128268586633 30.397956687331444, 789.8295355305827 29.89546668814465 M788.0742546757252 31.144724509382684 C788.9537272545024 48.86541101056562, 791.5706074107372 64.27259425538628, 788.8640379465631 80.06863862848047 M789.2371181293114 30.761306691938657 C791.2533055441356 45.038222209904575, 789.3491192137292 61.87549308725129, 790.2039073628563 80.96236337659859 M790.8350953174314 78.2342016372365 C772.075238851534 80.48786297803908, 751.3281295133507 78.90526305423492, 731.0950759926059 81.32274780205108 M789.1722452154439 80.58220304552856 C775.3334420733491 80.50268107102644, 760.6971114986409 80.02961950574753, 729.3771048198713 79.4141799583168 M731.8651096750408 78.77978389737441 C730.9729629755885 62.042255693618145, 730.6260577537832 45.63850130117258, 728.018163202091 30.531594664403883 M729.3617256069016 79.45286013107282 C729.4988615309483 63.685289089412464, 729.9263989711344 47.15252738438293, 729.7308391598934 29.327642463167926" stroke="#000" stroke-width="1" fill="none"/></g><g><path d="M870.6442948340086 31.69286818432681 C885.244843392331 31.702449770844886, 899.7976129479885 28.052695578220607, 930.928240359273 29.758073698867193 M870.5834472792237 29.308389557433884 C882.5611009724563 29.33596284887276, 894.9783287432455 30.305347381875666, 930.3077623215371 30.83238073618698 M928.9489302907008 28.54066224916623 C928.4537150481924 45.60474776224478, 929.5515002878304 57.46953756490048, 929.3999057384824 78.68241710354648 M930.0140730555295 30.023473115252933 C930.448517399871 43.879548841911905, 930.7058370542533 57.78221812837634, 929.9832496852008 80.16565023519199 M928.313948109871 79.31748881847311 C913.6632277451432 80.02885689236318, 895.66813008932 80.40697072296472, 868.96011394915 81.59369058014535 M930.5384277941482 80.49154145581996 C907.5401985718232 79.7004922794493, 885.9607111542606 80.48374599753734, 869.6515971999681 79.64899490532254 M870.0182551367371 80.51924459010644 C868.2392149882136 61.69315488848913, 867.9655749880222 43.09606586342998, 869.3036271062795 30.65774134922971 M870.2351604975917 79.41810714150552 C869.1061759186341 64.04168645457348, 869.3652927714985 50.43058345058493, 869.2890703055117 30.450247132858962" stroke="#000" stroke-width="1" fill="none"/></g><g><path d="M970.9170954506703 28.52429615885208 C1041.276078292243 31.292652092177736, 1109.9244919968385 29.394858984173347, 1171.4545683579918 28.385439376160694 M972.7322875747116 30.482000084336555 C1032.5598556219165 31.763101627465993, 1094.0059378881074 31.362650437158628, 1172.3152821708104 30.506624992371275 M1171.055757822571 28.895739710011657 C1171.4651494693317 76.95735191859896, 1171.3505601866352 124.60672266062642, 1170.384635991946 161.9202332520443 M1172.940801387087 29.45383664211906 C1173.8467679226521 63.62135571071843, 1172.2740318073347 98.57304220122127, 1172.554951069396 160.95730295488804 M1173.0024136295049 161.1218112185088 C1122.4175478524153 158.59910891383217, 1075.5377804778022 158.67655307068932, 973.1270637595312 158.20760718170584 M1171.2400826729179 160.75723802334412 C1113.1478849958762 157.59322376308262, 1053.3864451271272 158.94061986054717, 972.6448842167183 160.826381873662 M970.8075689248743 161.17256415728164 C970.7430034460933 130.12329542317676, 974.0466600931953 96.92772181655876, 973.3844199943561 29.993070859574907 M972.8155971287931 159.2411006935792 C972.1335028390453 116.44767278176656, 970.8301861389225 74.57235926063198, 972.2412382748288 30.547341384731343" stroke="#000" stroke-width="1" fill="none"/></g><g><path d="M965.0606812081361 22.954135568657918 C1011.6847075388331 23.28337058468096, 1060.9571390805984 21.091332236735635, 1178.243920102936 24.556673423257415 M965.2023324932235 23.654367813006765 C1037.4800726080964 25.865437315583975, 1110.134006020773 24.603139374617992, 1177.3824752404396 23.394267473929073 M1176.6724574880104 25.31334463027373 C1178.145139813186 55.57393091871438, 1175.6420150664733 84.40539638020333, 1178.7243973583545 164.4820635098969 M1178.6593641593558 23.56788357885846 C1178.2473175101666 65.53287972599048, 1178.7968490417063 104.58914273787222, 1177.17817986017 166.77767223834923 M1177.6600759141945 164.4443414225218 C1134.9044048307119 166.42365083768354, 1089.9966920665715 165.63643304102493, 964.93476153761 165.10421343408868 M1177.4659096882608 165.98680684600956 C1132.0044823883418 165.61315600890154, 1085.8507078459695 165.63314023870123, 966.3540427792302 165.91223014351746 M967.5468552539975 167.9864775274279 C964.8690074690522 118.11153312659886, 965.338538244427 67.6082835535303, 967.3383909457531 24.966194452617447 M966.560123490374 165.8199215801902 C967.7047585671967 113.61340706084059, 966.5278443548842 60.708870296615345, 965.536552901013 24.39083726728945" stroke="rgb(0, 0, 0)" stroke-width="1" fill="none"/></g><text text-anchor="middle" font-family="Consolas, Courier" font-size="20" fill="rgb(27, 14, 139)" x="1072" y="120">1969</text><text fill="rgb(150, 100, 28)" text-anchor="middle" font-family="Consolas, Courier" font-size="20" x="1002" y="60">id19</text><text fill="rgb(27, 14, 139)" text-anchor="middle" font-family="Consolas, Courier" font-size="20" x="1142" y="60">int</text><g><path d="M973.2169980755409 29.055455476438325 C987.5858099601729 28.498695744901372, 1004.5879964471927 28.635890242123267, 1033.7129549842512 29.41706740197958 M971.3990884635379 30.328056399336422 C984.9510063502852 30.05828964571237, 996.758001675518 30.52033303019149, 1031.9454181873057 29.254818591151448 M1033.2935978585065 28.61966350927257 C1031.1037107734228 43.58472208037296, 1034.3699139224395 56.42977726345638, 1030.986137673148 81.70919777079496 M1032.7143597800587 29.06959552351507 C1032.008522677766 44.605585812257495, 1032.6213343951642 57.12869865282277, 1031.0799905085223 80.94823595797887 M1031.7510848355967 80.14904695875069 C1018.2618218057904 80.9831714542733, 1007.2809958524822 79.47225739035252, 971.8538279574497 80.85678017452125 M1032.9437260659495 79.61258952567603 C1010.6696381289063 79.81715955100897, 989.6276291616055 79.89081057880696, 971.4599108468257 80.15238620828143 M972.6411527834263 81.39600691594354 C971.2746377566889 61.043483766655726, 973.6508303306198 42.412118235007114, 970.2924915552811 29.95447577119611 M971.2715116413193 79.6694732901044 C971.8050331986467 68.0129644616122, 971.5599335596795 55.33602644986521, 972.7628173609487 29.299079788782592" stroke="#000" stroke-width="1" fill="none"/></g><g><path d="M1112.6873038648962 30.645719791022987 C1136.7082478203329 29.146144986339127, 1160.1120306622165 29.746831717848206, 1173.6082464078513 31.28062928394277 M1111.4446344017547 29.958383723051806 C1129.1840259648172 29.13306322382411, 1144.7657858738548 29.26930599372102, 1171.9022707951308 30.418906127375998 M1173.9873795872936 29.944383564407637 C1170.126391825715 47.867487549544535, 1171.6054498277426 65.48705224539418, 1173.6322520488063 80.11985889258341 M1171.0755969753507 30.89781354433609 C1171.4912657816465 44.170614172793954, 1171.9518294440065 57.77666467885065, 1172.9840672276268 79.08058582258126 M1173.6510928605671 80.71231828946603 C1156.5070728594253 81.45174290438004, 1143.3792304263675 79.80234096267147, 1113.447569829223 81.47525802138946 M1171.4035637114416 79.13220801044974 C1158.4940540526045 80.47677934466292, 1145.7008252546902 79.59161134197902, 1112.1841004325663 80.77758869524071 M1112.067684795117 81.1738034602026 C1112.5883445810227 60.341246904701855, 1112.4993808520094 40.30357628666631, 1112.5510842666943 31.51690061736407 M1111.5333856874784 80.65721747402281 C1112.3364060566685 60.82171452307609, 1112.4935656866892 43.248690780843525, 1112.2069838477398 29.401221718074005" stroke="#000" stroke-width="1" fill="none"/></g><g><path d="M257.1988236682664 359.85579782163023 C312.64976807286877 358.991749584803, 367.7591874499889 356.6869934242975, 458.0125833775845 361.4108876132683 M258.4394672895258 359.1132196915614 C310.614437379113 359.99224345523754, 362.4768080919775 359.84232954998737, 457.66569268118036 360.2577249008846 M457.8510285141189 361.2600548282337 C458.4522435440114 402.1224890873572, 456.2126020275697 440.67991726457035, 456.3215553172117 490.723107274015 M457.51844414640743 359.11477821274235 C459.62855936407925 409.72340268414695, 458.19288401440633 459.0015944402631, 458.1471103990493 490.72365867370985 M458.85812001118 488.46806401892195 C399.4556675101758 492.9689678210752, 344.7876932014155 489.6678515016834, 258.312159074691 488.8689046865085 M457.7132476882057 489.59010202379034 C391.8933846333955 490.4082687993769, 326.58510210990914 491.34786560829116, 257.8963468629251 489.3092092894192 M257.20092202760577 489.6900021340818 C259.56794870570025 462.853935546063, 257.0321496594114 437.84011226374423, 256.63534580743504 360.03661164389075 M258.4603016415075 489.96734157529806 C257.30886699919256 439.41458938351275, 257.1763952343264 389.46625205005614, 257.12516340863255 359.7333330378666" stroke="#000" stroke-width="1" fill="none"/></g><g><path d="M252.9469261854056 355.61719798546795 C312.683217557188 354.6153066969778, 372.2982319298773 354.9609511929269, 462.60442169073895 354.37205972207784 M251.3195853925608 353.90119864184805 C315.05429835638273 353.6119575610471, 376.741363076004 354.0934944457096, 463.58529505235265 353.364298900653 M464.1407227012935 354.45157134793953 C463.90181936219636 384.2768860784971, 464.439871176112 413.33819790144486, 464.54504325635054 495.90287757760626 M464.27627850570997 354.4796156172586 C463.4993080870496 392.9317298116641, 462.81233255065644 432.05402830992216, 464.25796006323975 496.7240027553143 M463.06154089822843 495.5020045441786 C392.39546770666834 496.58947395486376, 322.0597994345606 494.44434112635395, 250.92018100003352 495.9736046153139 M464.0648946201463 496.0954943444879 C389.6809125031887 496.0975905794994, 317.2475509010121 497.35405575669233, 251.780701222583 495.1249813521462 M252.6680286956291 495.5481112458906 C254.1324177497439 453.20783579288684, 252.8231148058328 408.1287414714721, 252.4898443713179 353.6062116259787 M251.23774900959663 496.4602278847761 C251.4173258719656 444.7283706419527, 250.85054209477065 394.61878320609054, 252.91315113979903 353.11073767022884" stroke="rgb(0, 0, 0)" stroke-width="1" fill="none"/></g><text text-anchor="middle" font-family="Consolas, Courier" font-size="20" fill="rgb(27, 14, 139)" x="358" y="450">True</text><text fill="rgb(150, 100, 28)" text-anchor="middle" font-family="Consolas, Courier" font-size="20" x="288" y="390">id32</text><text fill="rgb(27, 14, 139)" text-anchor="middle" font-family="Consolas, Courier" font-size="20" x="428" y="390">bool</text><g><path d="M257.0604166353013 361.78048934814313 C270.13880475377107 360.9325972130586, 284.5825951826726 360.3271154724224, 316.3925825716613 358.739877049138 M258.0381220435013 360.24707282500765 C280.9587526111834 360.38396400468883, 306.09770122228673 359.13859377596935, 317.51209019230225 360.1531316775696 M317.52091675294963 361.6711542364455 C315.62120290180343 380.9083636470152, 317.3616700380541 401.1623131362851, 316.2866996436444 411.1081695714508 M318.27169978873405 359.4636530597016 C318.3044776193245 377.665856410901, 318.47531568693194 394.08564006265453, 318.76440649266686 410.0666404849294 M319.78244868292296 408.5747133295876 C297.4742004822672 411.9961733123473, 275.30938194269095 409.0410617399463, 256.92387273317155 408.04262977313834 M318.49307810622014 409.6680006243567 C294.73101013397394 409.64573817101217, 273.3181907696235 409.88110934335276, 257.97964961630714 409.2422418343382 M257.03659497852044 411.3639770084428 C256.8330960437871 399.17762034606017, 255.82726971180395 388.0999128212889, 257.35903804002936 359.5760493914628 M258.6161187461531 410.33609021164403 C258.10117075398415 392.2716764998124, 258.0712815559944 373.6330279182334, 258.29779316238756 359.82241295670843" stroke="#000" stroke-width="1" fill="none"/></g><g><path d="M399.54781391973415 360.1188439205783 C417.0961494208579 358.43292393013024, 437.0167542502494 361.16511795408934, 456.0775177093543 359.32230020314506 M398.3659107479543 359.37212599170516 C421.3698328859963 360.7060813883309, 442.8762282776147 359.96234933515836, 457.31884243248675 360.5833572904116 M458.1931917724127 361.676821215475 C457.15527931579214 379.500442152449, 459.7919727877492 399.3596058098535, 458.3109363722546 411.8374327625193 M458.63065482136875 359.876126034322 C458.91091167380347 372.8562197585287, 457.2126792717211 385.0358764480165, 458.0416894128866 409.4071252860363 M459.2004554610814 411.36182380300846 C446.85773177672746 411.7884156422083, 432.75774568509394 408.74888214377927, 396.87370866094733 411.9361795866118 M457.0051461681177 409.33160435190774 C435.1743784925234 410.5472157689009, 414.51823231079743 410.1056673749883, 397.9277725364211 410.7502668423386 M398.8602893576585 409.8215476040228 C397.33430239875975 393.4678270960009, 399.3183925445774 373.4210769661895, 396.7683882703 358.73309431779376 M397.0384937255422 409.19942927709474 C398.58774173567514 390.3991708275638, 398.63972956109404 371.2858930795317, 397.9237903132356 359.6986512997812" stroke="#000" stroke-width="1" fill="none"/></g><g><path d="M499.79019865066425 361.46606779076984 C551.2112133264594 358.4453398495512, 599.3573674846206 360.0309493169411, 699.7476156829563 359.29624196459775 M500.65953277433823 360.24218384403866 C551.4855589712344 361.2642049803961, 602.5940451424691 360.4903682171306, 699.6758397089653 360.3218344291211 M700.7591488991027 359.0515940597294 C699.1917911587842 395.572284634914, 700.9653844255455 428.1684272355596, 701.5191022753078 488.17054296705936 M699.9781699768012 359.48389850471807 C700.0309227407887 386.43217021854775, 699.808637853017 412.87985000669295, 700.5906253140379 489.0187157107778 M701.37241935087 491.4943536250734 C654.1459820316347 492.79564831730846, 613.3192827958895 492.90235151755485, 500.6753116656038 490.2541230658459 M699.4724712615036 489.9727386328913 C629.3870868157156 490.6289326332452, 561.2904188670345 489.7384394113679, 499.34991412487256 489.65766755146154 M498.18799015668844 491.3695575652528 C502.33861707963143 443.7578453839262, 498.984600837682 396.0721289626414, 499.8583150135989 358.99471286873637 M499.6766859051771 489.1606966241325 C501.55529182967064 450.70436348656636, 501.70815608351757 412.62450359255297, 499.6539419718518 360.4915909986718" stroke="#000" stroke-width="1" fill="none"/></g><g><path d="M493.69920110540596 354.28366925391373 C563.221190096563 352.34215583965937, 635.942410017771 353.9097661642811, 705.7025415208566 352.3802626748777 M494.22602618491084 354.61462423721696 C554.3607568011307 356.0984564107589, 614.5923513772859 354.8663345727245, 705.715619451873 354.24006146817044 M705.3813264912468 352.55308655513966 C704.3177713072504 392.7588043144191, 705.1108755875681 432.3700996500635, 704.3189742123227 495.8654897755826 M705.5922064716616 354.4186901775955 C705.8257851055522 407.17859275409063, 705.9052439799711 460.92750212616875, 706.593111053752 496.13254802079314 M706.7301660208454 497.17033666584194 C628.8160398481334 496.18943743774344, 552.229330523366 498.3383270810419, 494.83848512694914 497.27473150299073 M705.7497377057238 495.5245906951285 C631.2936755080682 495.7774223771257, 557.7503812411694 496.02764750744365, 493.79491970702554 495.55406396108987 M492.40010118676366 497.61357736621216 C492.5499832562912 464.37712913324907, 494.412194364302 428.202927106558, 492.2707343012598 353.460894237037 M493.36257616009016 495.38728511847853 C494.8491598660136 457.3040407390561, 496.08140363678973 417.2958367336982, 493.5667958384528 354.1859429919006" stroke="rgb(0, 0, 0)" stroke-width="1" fill="none"/></g><text text-anchor="middle" font-family="Consolas, Courier" font-size="20" fill="rgb(27, 14, 139)" x="600" y="450">"David is cool"</text><text fill="rgb(150, 100, 28)" text-anchor="middle" font-family="Consolas, Courier" font-size="20" x="530" y="390">id43</text><text fill="rgb(27, 14, 139)" text-anchor="middle" font-family="Consolas, Courier" font-size="20" x="670" y="390">str</text><g><path d="M501.8947250580711 359.5177295225416 C519.8757878796805 358.616503007303, 537.4004490362355 362.11606315307455, 558.6717545474756 360.75489351673923 M499.90067240444677 360.08412630792213 C513.6285135383412 359.5883528565265, 527.697827036647 360.5494336965263, 559.8517338928576 360.9437943575486 M559.3507810661719 360.8035232441948 C559.1097787035048 371.38798202719494, 558.5273089090213 383.5668541666653, 561.2457365378962 409.2999756417827 M559.9731907086023 360.9251390752987 C560.2397042320821 374.30104234884374, 561.27143815031 389.56283163408654, 559.7013944819269 410.5444022646679 M561.6975165485467 409.4575139585509 C539.3602700111203 411.95610433115905, 522.1050792980323 412.23719933052035, 500.9482683248081 411.20449472240193 M560.2001443288539 409.341083794125 C537.0267613224223 410.02789628102033, 512.7236258866184 410.3519447676443, 500.28699661014815 409.5716477628529 M501.26147735364106 410.1117164968481 C500.59644385087495 397.2465296821792, 498.64290589676875 387.1943787821124, 500.8559881296993 361.17610545034 M500.0618269514062 409.35406145340727 C499.61902351549736 393.2876474670986, 499.3091572276977 379.28157060679297, 500.46633014527504 359.8254237593787" stroke="#000" stroke-width="1" fill="none"/></g><g><path d="M639.6259815613604 358.59404886016915 C655.8700457885654 361.6827559558852, 671.4384566609566 358.81160361797015, 698.5725068564468 359.23111311146806 M639.2729999400202 360.82331479333595 C655.8081438582846 361.19020682928226, 670.12073831408 359.29794479456393, 699.3523412604612 359.1575348955195 M699.7344775429187 359.02448859459105 C698.4239953409563 371.8228219607437, 699.8024645450018 380.85653059714116, 698.0529008014776 409.5651727223854 M700.673626821843 359.02214879247646 C699.1268159865971 379.13272928124445, 700.0886306026484 398.5298243487376, 699.3212305712121 410.01153462768343 M699.7476357569543 410.70765824278794 C680.9354420936869 409.2200524791442, 661.2512602914471 411.4735427914953, 640.9547262083075 410.0725120306675 M699.2568221461869 409.9829369397268 C676.5363896486344 408.99836748435973, 654.1926527619892 409.4876822046336, 640.4539447123119 410.28934564754667 M641.0965169988823 411.0876037723649 C640.4994681729911 398.54961069529116, 641.6078367834268 388.7900229746379, 638.769061609784 358.62999432310744 M640.7832715790204 409.272064324901 C639.9145252191506 390.06814849339, 640.3687355471321 372.6656581085475, 639.9214287188694 359.94215768673524" stroke="#000" stroke-width="1" fill="none"/></g><g><path d="M741.286679865633 358.6118013665269 C851.3065001751477 360.959637724457, 959.4329444211772 361.33664868389815, 1024.6452876586384 360.26284777804966 M741.7333971099732 359.7080897140541 C825.5187130881884 359.6553510386378, 909.244743767112 358.49085407600325, 1023.7105472032845 359.2505644706497 M1024.4902117676097 360.6673255204105 C1023.4133350066444 397.8762618440746, 1021.3672815280523 437.6771609245851, 1022.2978984099175 489.583462866717 M1023.7598809979104 360.80631435192566 C1025.1029218330657 407.32559216735206, 1024.1775191967758 453.5695163804051, 1023.7551465232845 489.3566564897772 M1023.0828586714854 489.54293240062253 C915.681230166044 490.2917037909991, 803.6848564600697 491.292365302609, 740.6371489954433 489.5144293820043 M1023.73696249979 489.8997204364713 C929.8785227388399 489.0534072287139, 834.8613427715451 487.91323798436486, 742.2402155856927 490.02110851585087 M743.8145676262232 490.5665732620158 C740.4862774677185 440.68110686477166, 741.4250548341304 393.66777201009995, 743.3694220688305 358.8881027732983 M742.2480505212255 490.61364647888587 C743.1747678787385 461.52608278832855, 741.7193473480369 432.94408027326375, 742.6455807692308 360.4049385829674" stroke="#000" stroke-width="1" fill="none"/></g><g><path d="M766.569618206624 423.8468630321444 C783.5902985802693 426.22235163307886, 804.4513527248907 426.4743395021028, 823.1764256157404 425.4190465950689 M766.9843934390051 424.20808147419166 C782.1125672515653 425.2748230497105, 798.273503884185 425.82443307681854, 825.4669636058856 424.80585674895286 M826.6429455886756 423.31263045980006 C826.4078092305879 437.28074560743187, 826.2114073383294 448.12389896507653, 825.2305748320665 476.4823256821948 M824.5353426564819 424.77057388473145 C825.7918206217712 440.22752247975166, 825.7587774524046 455.89797805413383, 825.5887858868442 475.8995361633541 M823.4298063644809 473.09300624167275 C802.1334526246882 474.0487367318795, 782.1070017113598 474.69325332034583, 766.1868388680531 476.3266072774226 M825.1029556589665 474.4311543567015 C806.9063774959317 476.23092720644314, 786.3542788185368 475.95075317581694, 767.7473116395796 475.31523078129413 M767.1562848679109 473.42486715043043 C765.1672571582258 459.8840221583013, 765.3382836589035 446.47674695754847, 768.1374804576403 426.6249436016944 M767.6587625656348 475.53930447844317 C766.713625680797 462.7540896791815, 767.6658137516487 451.472040531815, 766.8851741806177 425.6111866398669" stroke="rgb(0, 0, 0)" stroke-width="1" fill="none"/></g><text text-anchor="middle" font-family="Consolas, Courier" font-size="20" fill="rgb(150, 100, 28)" x="796" y="455">id19</text><g><path d="M826.4444738843968 424.93924923838244 C841.5118564153834 424.29999065337995, 855.7696809134245 422.7161965138458, 882.8234898638198 425.00514362624494 M824.1313990919975 424.3543806535187 C840.1090867918522 425.54777417462407, 853.6488002542702 424.6752660293831, 882.910299075413 425.0630354723054 M884.1780756623002 426.10451404009945 C881.8193740794223 441.0823988409026, 882.585271076705 454.49821606128813, 881.156899353652 475.89436443378537 M883.3213117655847 425.28058482689966 C883.9672045916977 435.57266531756545, 882.2557410685508 447.82636794091553, 882.8950959578806 474.28942388058806 M882.4793490573678 473.9360836814188 C862.6714238550345 475.177113321651, 842.8601783294195 475.05237196898844, 824.6109237872357 473.98434645269924 M883.1339488620451 474.4379665449157 C860.9137381360691 474.3684761066197, 839.8487227078259 474.2770181337445, 825.6678686277897 474.77037133582724 M823.1925503565402 476.61264553781683 C825.9693802956482 462.7466132569307, 823.4423409169505 452.2309915644936, 825.968970140673 426.6510254525241 M825.8981243803472 475.7407062438662 C825.3596724512477 455.07584246795267, 825.2470280213546 437.6528319719725, 824.9112261168742 424.7099420491332" stroke="rgb(0, 0, 0)" stroke-width="1" fill="none"/></g><text text-anchor="middle" font-family="Consolas, Courier" font-size="20" fill="rgb(150, 100, 28)" x="854" y="455">id43</text><g><path d="M883.8942033474442 426.77205316888546 C900.7749381891516 425.22088729061227, 916.7409189861687 426.0187584038406, 940.0354210631249 424.75359008544683 M883.5761582408828 425.2418956430111 C901.7130028594427 425.88659310573104, 920.4187338141758 424.5174771515169, 940.2115092915407 424.7713401770503 M939.2686747285104 423.2073569561348 C940.4385641750007 439.9890541880891, 940.6090942122938 455.28041474272277, 941.605863171035 473.41709060244006 M940.8304789514839 425.66310052345176 C941.8491640683228 438.48269269597216, 941.7096436828392 449.86211897102567, 941.291070768757 474.0186595902744 M939.2324443972221 475.23224657793946 C920.7059968707296 476.62199068376117, 899.4748368960642 476.2809062658363, 884.8171469829811 476.501286808876 M940.2706955420018 475.8719418259472 C927.3307138796629 476.16227284617696, 912.1274941797536 474.50492243888107, 882.8418047967821 475.3748349689657 M883.0734447045468 474.6043841147811 C881.7768364182717 465.3905929940664, 883.6405655026053 454.90841715720603, 882.7345820740614 423.3410754104816 M882.2091503554824 475.0220742018589 C883.3694176223204 463.8045059922813, 883.6832801051255 452.1705016990669, 883.5131132554227 425.5530258483036" stroke="rgb(0, 0, 0)" stroke-width="1" fill="none"/></g><text text-anchor="middle" font-family="Consolas, Courier" font-size="20" fill="rgb(150, 100, 28)" x="912" y="455">id28</text><g><path d="M940.5498232883733 424.8320370203037 C963.8200321722554 426.11265246072804, 987.7150042978881 425.87503869823314, 998.8356877634466 423.620386491823 M940.6340744338728 424.442608190169 C954.4665724982715 424.4683030872367, 969.6922133851713 425.83299972661325, 999.7818005554113 424.7569604378148 M998.853621771819 425.3455357345795 C999.1548960916717 445.86757054272175, 1001.1281659350393 463.3081749448863, 997.0847772161975 473.7748184188247 M999.9185855266933 425.3006065920809 C997.8752103489207 435.9402283551955, 999.4617587060868 445.93743705162535, 998.5551142686487 474.66515003877277 M999.1541491796663 474.47940311290466 C976.9177249790615 473.7030006384636, 953.6182987819242 475.1682426419746, 939.1266324090673 475.74859561500057 M999.2717998026609 475.44784882132245 C984.9890054712864 473.60928114508295, 969.38706573711 475.1292679727814, 941.4468663369806 474.7965834191998 M940.2615828020031 474.5699590984529 C941.7589212723548 462.88784404941003, 942.3219419338411 448.7085085237109, 939.4264075350644 426.999215770184 M940.9911767667866 475.5014685995413 C940.4379506752308 464.47035109726414, 939.9821201242569 455.42166468762275, 940.7956601579227 424.9169423472051" stroke="rgb(0, 0, 0)" stroke-width="1" fill="none"/></g><text text-anchor="middle" font-family="Consolas, Courier" font-size="20" fill="rgb(150, 100, 28)" x="970" y="455">id49</text><text fill="rgb(150, 100, 28)" text-anchor="middle" font-family="Consolas, Courier" font-size="20" x="772" y="390">id82</text><text fill="rgb(27, 14, 139)" text-anchor="middle" font-family="Consolas, Courier" font-size="20" x="994" y="390">list</text><g><path d="M740.1578733243468 359.9495193907798 C759.0338296469062 358.74543454360474, 779.8321181013948 359.278618582352, 803.9371112217653 361.1101012566789 M742.4166917628149 359.5555609836448 C756.331890331522 360.52402779996925, 770.1842094401969 359.6418739155162, 801.1868525611568 359.13882166047557 M802.3345820402116 360.8176871273331 C803.9889179674067 379.5349725266118, 801.3438472560604 398.55770187161613, 802.3354263893469 409.4524862741037 M802.61855614334 359.9495369806011 C802.3858490314398 379.6724570622186, 801.442811982088 398.0640566159451, 802.7634439783814 409.4956651379313 M803.414407247448 411.38253798377656 C781.9481134352897 407.8870591234435, 764.3295526922061 410.9242515381383, 740.0830802818475 410.3656994623316 M801.6757258446128 409.2632166449172 C785.9483962313551 410.4524019466778, 769.2188289710971 411.3894584298597, 742.3523282877126 409.40292224640297 M740.2923524237685 408.29325529870647 C743.424314056068 392.6519988140506, 743.5202199935239 380.29367819536907, 742.7646168346358 358.705539448008 M742.7582523605473 409.07460957931863 C741.0787837841485 398.39964830060563, 741.392274062927 389.0550213013741, 742.2165113068678 359.6419806899947" stroke="#000" stroke-width="1" fill="none"/></g><g><path d="M962.6719319661005 359.39568957350843 C981.1952854902606 362.0620898897487, 998.6160123058793 359.34960030164547, 1024.294004309326 358.9475655067103 M963.6221530725354 360.3073252015071 C985.2537722768673 359.801937626312, 1006.350972784682 359.35607489492816, 1024.0506626491597 360.930482180653 M1023.1053821097314 360.24722246886125 C1025.7941233385911 370.82642882893396, 1025.6030228501063 384.72394230543074, 1024.9271619470085 411.6661980995963 M1023.3830262678384 360.3844826254707 C1023.9876521640534 372.5414981164833, 1023.8069743282729 385.32522045022466, 1023.1718983288271 409.2337232443232 M1023.8959997931818 409.2688732188647 C1003.1091842052774 408.6104155815821, 983.2600213064532 409.7717089226548, 965.639989533397 408.5099476455768 M1024.5332044868392 410.7877345258851 C1010.0886809173386 409.507510037688, 996.3741074138882 410.5046864453133, 963.3037783390464 410.80870751864217 M965.0919023298443 410.9393202571856 C965.4016041226932 395.26999485622815, 963.5176695328809 378.03319321088014, 964.6340416481511 359.48097162393503 M963.1908860167775 409.88147126044186 C962.9703532721858 390.6560536929684, 962.9994832871088 370.852041578285, 964.8573810875222 360.56235840341094" stroke="#000" stroke-width="1" fill="none"/></g><g><path d="M258.80663080121485 530.5990036055114 C316.52111337118487 530.0515484653827, 376.50021387307333 532.535254476007, 539.4739896381684 531.580621729097 M258.7041152563903 531.9197242319844 C338.14594941232707 532.7610766152886, 416.5941014117407 533.8189836048767, 539.6582668537516 531.8525768421513 M538.472283055803 530.40293493088 C539.0591531670431 579.0040078584788, 539.767484392618 626.7030550097815, 538.4659569280299 683.186771602438 M539.5223381789044 531.755470439771 C541.0770989756583 566.3759369550417, 541.5380897670965 601.4099073563576, 539.1204755438067 682.6183621941652 M539.7151175449807 681.9514406322634 C441.15176305854243 681.3573445654945, 344.3127050025354 680.0628568626396, 257.83636017395185 680.4799566165223 M540.6956477356273 681.4507391903212 C436.94534298731554 680.5560736028675, 334.0639373160556 680.2004970026941, 257.41119178376897 681.4389240273925 M259.2086070029484 683.7517278988828 C258.74008534806995 636.0389494444499, 255.2058724190621 586.2413904693049, 259.08479580332516 532.7559003961409 M258.67436971089194 682.2891969064133 C257.95659952964854 644.6371905224202, 258.22035170671035 605.2273323757586, 257.9592045556093 531.3265166332027" stroke="#000" stroke-width="1" fill="none"/></g><g><path d="M282.9221347162352 617.0288080957408 C300.88818871125517 618.189947497523, 317.51531639977253 618.668413497495, 342.63073949653983 617.894130514466 M283.27952471381496 616.5064023313105 C298.09427833041553 617.7434032195196, 312.2254324922094 616.7686003766701, 340.4652702227173 616.4258442989934 M342.7045163113809 615.7299990242532 C339.90846864535746 628.6407073444647, 339.2225549055641 641.2737112955896, 339.39218063566005 666.5445247583222 M341.43904756734275 617.4421428105808 C339.7358079924966 636.4806307578074, 340.8909577509541 654.182194361048, 341.4455681477508 666.8679856165365 M342.8196574461391 668.3111610770226 C316.3861134192727 665.4538507394012, 295.06472265511775 665.5004160513586, 284.83223451098377 667.2753230650195 M340.66660962336454 666.3534608208181 C322.4083817511784 666.4616724422556, 304.03558586073393 666.8984568249915, 283.43982491473867 666.6346153892019 M281.55323784189613 668.709983683584 C283.03709144559315 653.6652712740957, 283.50602357608045 640.5491721367042, 282.0206769523635 617.8874653215445 M283.1644124079088 667.2674343588621 C282.49549499825486 651.7318306960901, 283.2256409112514 636.8861371986427, 283.2628582155016 617.9946901273704" stroke="rgb(0, 0, 0)" stroke-width="1" fill="none"/></g><text text-anchor="middle" font-family="Consolas, Courier" font-size="20" fill="rgb(150, 100, 28)" x="312" y="647">id32</text><text fill="rgb(150, 100, 28)" text-anchor="middle" font-family="Consolas, Courier" font-size="20" x="312" y="604.5">0</text><g><path d="M340.53290681179556 615.5185222538375 C359.974627547801 616.3251636996092, 377.4341817950326 615.4198818726022, 397.4823997187576 616.628081019366 M341.2310292678016 616.3580235914451 C363.3222451057453 616.5928301336024, 383.58575011958953 617.7759430781542, 399.4748292157859 617.072325687283 M397.45881811975676 617.7464665129266 C400.4926404768793 634.1544103150809, 397.41554593910547 648.9760192384707, 398.62191551970244 665.2605249157087 M399.47041630457204 616.0157884746245 C398.6776557316372 636.6486951011653, 399.8201511233192 655.2674558976793, 399.3982822577164 666.6630216727668 M398.93052244918186 666.9184315702013 C383.77414868436284 665.9107704566459, 365.77875948945695 668.5201785846407, 342.8015737156383 667.0108531318938 M399.58125058369 667.0058933854073 C383.3987905779008 667.5800764815077, 370.2312800077151 667.88309093912, 340.29705893842623 666.2584468637606 M342.85732593221877 667.7629842294702 C339.380216275621 649.7118660457072, 339.4617654951784 635.0331237337541, 339.44077395581917 615.7665481239778 M341.1145791537006 666.6756850496294 C340.5208251941066 652.7881492588724, 341.6316495445943 639.9019304390712, 340.2277765833906 617.7137924371455" stroke="rgb(0, 0, 0)" stroke-width="1" fill="none"/></g><text text-anchor="middle" font-family="Consolas, Courier" font-size="20" fill="rgb(150, 100, 28)" x="370" y="647">id10</text><text fill="rgb(150, 100, 28)" text-anchor="middle" font-family="Consolas, Courier" font-size="20" x="370" y="604.5">1</text><g><path d="M400.2489765660549 615.0788813318942 C419.346409277073 617.1865196824097, 434.64424936499773 616.2058971720568, 456.66692597846924 618.482277798036 M399.8320408127139 616.41397835907 C411.02287323705445 617.2944319864156, 422.600286236857 616.5224837551801, 457.0660314414639 616.6737341163491 M457.3636735769067 617.3732758213197 C456.8065901050374 632.0961999931313, 458.77293288510685 644.8618448013756, 458.25412816735354 668.9007341420239 M456.49157107372673 616.5375698106001 C456.86261157319234 635.1421821794981, 456.57194625474574 652.2776450600284, 456.4164210350256 667.4786419519572 M455.74443973223185 665.2625594565425 C444.8014872647963 667.6841716834476, 428.6561329847354 667.0610281813813, 399.76960280869525 667.7727172911369 M457.9892467262705 667.1665987526819 C436.1425960227984 666.684176988668, 414.48785633712447 666.6811130824053, 399.2928001125071 667.2580900645713 M398.0858371933654 666.3469410616735 C400.1062625950466 651.1596730016491, 399.5754466350727 634.8778678140477, 399.45045427186125 615.673941856205 M399.0601917576544 666.8995393619529 C397.78859747931466 653.5885401649346, 398.0061201065335 638.2083652085706, 398.1078102835791 617.4675466060088" stroke="rgb(0, 0, 0)" stroke-width="1" fill="none"/></g><text text-anchor="middle" font-family="Consolas, Courier" font-size="20" fill="rgb(150, 100, 28)" x="428" y="647">id90</text><text fill="rgb(150, 100, 28)" text-anchor="middle" font-family="Consolas, Courier" font-size="20" x="428" y="604.5">2</text><g><path d="M457.3303392336587 616.6748674629241 C476.1606828004496 618.4310078420016, 496.29255714014636 618.8480975934843, 515.2129509045701 615.3650581542933 M457.76225264366684 617.811625418388 C476.5326711435404 616.3162020071547, 494.9847102598163 617.552157807987, 514.2702457654289 617.8577702402091 M514.8495038373516 617.0481503467557 C513.882528653485 633.7169434279605, 514.5794317027778 652.1019419421831, 516.6756037198456 665.5006727162641 M514.0617153912681 617.54187372744 C515.1148912992606 628.66893404208, 515.1022465451505 639.5946912355905, 514.1363177407381 666.3060964072564 M515.6073077616273 665.5043200566095 C491.5833704211073 665.0567243795668, 470.5783229819091 664.9287380613505, 455.76236610689875 665.8781614590946 M514.5424622608319 666.8874897805981 C492.9738523981684 666.5498716218466, 470.16117206719207 666.499766933675, 457.1359107423704 666.7282792994055 M455.3150226471923 666.0364667411767 C457.1946713324094 648.7544689359486, 459.0532815533217 629.6138232256458, 455.72637201676207 615.9646936898997 M456.280944227743 667.3747029065531 C457.6345862154926 654.1453948749752, 458.09461873588344 642.5759394342666, 456.99065703914096 616.8484235438561" stroke="rgb(0, 0, 0)" stroke-width="1" fill="none"/></g><text text-anchor="middle" font-family="Consolas, Courier" font-size="20" fill="rgb(150, 100, 28)" x="486" y="647">id57</text><text fill="rgb(150, 100, 28)" text-anchor="middle" font-family="Consolas, Courier" font-size="20" x="486" y="604.5">3</text><text fill="rgb(150, 100, 28)" text-anchor="middle" font-family="Consolas, Courier" font-size="20" x="288" y="562">id84</text><text fill="rgb(27, 14, 139)" text-anchor="middle" font-family="Consolas, Courier" font-size="20" x="510" y="562">list</text><g><path d="M258.12262515034575 531.3541043907746 C280.14172628751993 533.0946010009343, 304.34768077188824 530.2050767922742, 319.2671524788738 532.1858393482844 M258.8782203322105 532.6774903283587 C274.8819761462108 532.9288419463855, 290.2957356826985 532.3782831295996, 317.3292618209945 531.6390094614557 M317.5441339687648 533.4886340103535 C317.9072377420263 545.75406987706, 317.26530118355026 560.0168528093703, 317.9972792948078 581.1339539413987 M318.6505152081293 532.8655471166675 C317.87255912927805 543.1519012269812, 317.62258661825376 552.8258131540024, 318.12119501259684 581.1811331649441 M317.9782404794431 580.6866618433628 C301.74317967625734 583.4412489825635, 283.5583515143459 582.8290151222661, 256.8231645949449 580.2051672598423 M317.03767680047434 581.5485854336356 C303.96769699823176 582.3226017955916, 289.51640276574716 582.4931402714315, 257.98399487510613 582.3733153398044 M257.8201948279089 580.2186329325779 C257.67139403586026 564.018818732815, 257.78386298924204 546.098044951279, 257.7751673149583 530.0146011333394 M258.6197563003887 581.4887779296507 C259.03287525216797 563.0068996252706, 258.3960025707213 545.5059266811764, 258.1717496751309 531.9646491393122" stroke="#000" stroke-width="1" fill="none"/></g><g><path d="M481.14604762474556 531.342799355931 C503.46997735511724 532.7639296966356, 522.0371372664353 533.5727463890571, 538.1245303307205 532.2650873340119 M479.350410821458 532.5679960445948 C502.85237656063623 531.1366012664134, 525.6193346539535 531.5075343061893, 539.0137934031991 532.0249655307039 M541.3954024710235 531.1680368115528 C540.693727906259 543.6077290968705, 542.349252081346 553.5822904703066, 539.0532799788093 583.0240106772595 M540.0751181756696 532.799405192373 C540.1338705400926 543.2720117646913, 540.9731774875698 555.5848869283756, 540.8429366182124 581.5469906128855 M540.6665261249595 582.6068388210056 C520.1938197240644 583.5956517305733, 498.2709866620078 580.4471961213773, 479.47576594196227 583.7812646028202 M540.1767315467735 581.7219114139399 C518.2156124530927 582.3861745593066, 497.31828128989997 581.3411020118854, 479.3225778938562 581.8946366847443 M478.59507954624746 582.7891721401238 C479.329331639479 561.0778003581454, 481.8433572426401 541.6616165090495, 480.1484348430254 531.8532680398034 M480.68679762966025 581.3474507591353 C480.5041860906491 570.936471161825, 479.94851222639846 559.879013160198, 479.6779159331524 531.6062647332895" stroke="#000" stroke-width="1" fill="none"/></g><g><path d="M569.83300782475 531.9989745778184 C621.9714792055235 534.6071075057617, 671.8461210158679 532.5567879596822, 819.9226080692014 531.2529020596055 M569.6175072283394 531.8038448356716 C634.2329888041965 530.094064813994, 697.054733924303 530.7312157907692, 818.8705036081165 531.4849270792168 M819.4548501147565 532.5606461373335 C817.0119609993607 564.8819212194755, 817.9195245049337 597.6319439761294, 819.8512971131019 660.2253924272151 M819.8114705720072 532.5871463089135 C819.6769149365292 565.1706671307695, 818.6238646813298 599.0092284636146, 819.6725664052392 662.5014004715687 M820.5093289672446 661.5760186731615 C733.5670531522277 662.373333798587, 644.8139407202165 663.2762515647073, 568.887007813351 661.8049237860521 M818.8471662499528 662.6175242598665 C739.3774660967858 659.9688644406385, 660.7528899443462 660.3581194281137, 570.3460704123077 661.6731258632501 M571.1642446720282 660.1919436854329 C569.1501205361556 616.3745893066101, 569.1628232151735 574.5630363644135, 570.0383054992128 531.3778725420943 M570.3677433052064 661.9762513483822 C570.3731350021578 620.608195495453, 569.9901903828941 579.2787341477755, 569.970606420434 532.4448252787935" stroke="#000" stroke-width="1" fill="none"/></g><g><path d="M594.2655021760509 597.2313136887473 C616.8965812500506 596.3216197788778, 638.3973699408735 598.6125698711157, 654.3967470554375 597.1296604259554 M594.0784695676485 597.2086432749958 C615.552125909278 596.5378412292563, 637.9373435407017 595.9625565774955, 653.1866061159042 596.106018956732 M654.1208308171658 595.07554323239 C654.6147134758063 611.6813012436323, 651.2911155256354 621.0783496638471, 652.6584745724372 647.4761413737413 M653.928729824221 597.7352463832618 C652.2202014344589 607.887083790471, 652.9256597398037 616.789034883357, 652.6365423065199 647.9429155778101 M654.8216171598278 647.7930376703677 C635.264746492815 645.4948000798222, 617.9747750459496 646.2650998169146, 593.271612755687 646.3398759340633 M652.6065111720279 646.7355654622372 C632.1010373070023 645.8577372066479, 612.7945469980316 647.4207928172145, 595.6696723506693 647.2502307106453 M596.3495438767527 648.1955090987091 C595.4746797607005 632.0747225281139, 596.0146893191987 617.8495818385376, 593.2526180581845 597.4952293657342 M594.9447826107398 646.2066522450779 C595.5191300160274 631.9251559125398, 595.2641968862988 617.6581829783042, 595.7195207301014 597.1994579519455" stroke="rgb(0, 0, 0)" stroke-width="1" fill="none"/></g><text text-anchor="middle" font-family="Consolas, Courier" font-size="20" fill="rgb(150, 100, 28)" x="624" y="627">id36</text><g><path d="M664.8394885593026 596.909689420951 C685.3129980965458 595.9650107911935, 705.6664858468883 595.8491141890004, 725.1572366613611 595.0453336960578 M665.6216545856647 597.85570647749 C689.020050094312 596.6771085344641, 711.5312479797004 596.630031994309, 723.8023657905693 597.7487206972478 M722.6647678066887 597.3110005624624 C723.8291021870882 614.0583912888994, 723.7765050445889 635.1502899223597, 724.8422105521759 647.6437156851237 M723.5635978486464 596.7352012385554 C724.5094285106251 616.9782829760038, 724.0912089009626 636.5424807930752, 723.9456841249415 647.7941321290197 M724.0993751885396 646.483703484801 C705.1436665624934 647.9230393420498, 690.2966846026901 648.6517534284594, 667.3493883737715 645.1385455237843 M723.7049960683221 647.8430660018355 C705.0678933210261 647.6660805079271, 687.0312996603125 646.3417921246948, 666.194986547503 646.7583571398459 M664.5812156779299 645.5878004805954 C665.7461096932519 627.4734688027083, 664.6651881674194 606.0795508476864, 666.768643293408 597.2062384540175 M665.1645130886651 647.731275162694 C664.9056208267592 628.9916733558941, 665.6605360991177 611.349816679604, 666.2859125326363 597.0526428462132" stroke="rgb(0, 0, 0)" stroke-width="1" fill="none"/></g><text text-anchor="middle" font-family="Consolas, Courier" font-size="20" fill="rgb(150, 100, 28)" x="694.5" y="627">id49</text><text fill="rgb(0, 0, 0)" text-anchor="middle" font-family="Consolas, Courier" font-size="20" x="659.25" y="627">,</text><g><path d="M736.6990540443702 597.2388635258519 C757.4361902998038 596.2984720651955, 778.840286810393 598.1827990604224, 793.115719113047 598.0020786505216 M735.6601358932073 596.5919988865816 C753.6418898649404 597.5096365968839, 771.5383934918727 596.2489994735209, 794.5523653907342 597.9632337648985 M794.9288121617401 595.7976587329482 C793.9369364037838 611.2213485274374, 793.4046608837031 629.6713471378727, 792.5532601689596 645.6338146966624 M794.1581320968642 596.0354600003598 C793.4066606449206 615.7232977059358, 792.8609593155167 636.9058408131448, 793.1571917120294 646.7357091158624 M794.1776558497173 645.5991972052309 C769.7237434277478 647.0648470259351, 748.8135092949268 645.132094989871, 735.5498476377943 645.9375516212648 M793.6201158021165 647.2148374919868 C771.8426351347363 646.4276309576186, 752.1333221748519 646.560252522626, 736.6435150455842 646.7035424836532 M736.9641314330632 645.7937823246849 C734.8335665429902 629.6377999305466, 735.4502187255971 613.4908696713796, 734.1383943107724 595.6210458425264 M735.9239713347372 647.7549289940458 C735.109383666571 627.6439487781721, 736.0607807849975 609.3167467780578, 736.2712262494617 597.5486026604899" stroke="rgb(0, 0, 0)" stroke-width="1" fill="none"/></g><text text-anchor="middle" font-family="Consolas, Courier" font-size="20" fill="rgb(150, 100, 28)" x="765" y="627">id64</text><text fill="rgb(0, 0, 0)" text-anchor="middle" font-family="Consolas, Courier" font-size="20" x="729.75" y="627">,</text><text fill="rgb(150, 100, 28)" text-anchor="middle" font-family="Consolas, Courier" font-size="20" x="600" y="562">id90</text><text fill="rgb(27, 14, 139)" text-anchor="middle" font-family="Consolas, Courier" font-size="20" x="789" y="562">set</text><g><path d="M570.6226766397796 530.564386117042 C590.0320369857178 532.2032357759762, 610.4081708838007 533.0580235593352, 630.8690528865127 530.6127431246855 M570.6928361298495 532.7143659070557 C591.556534641077 531.6003930862939, 611.7806492556931 532.4642246412036, 629.1326323542723 531.4851641115099 M631.559280508518 530.7473868818896 C629.8424351397346 544.5936051252062, 628.8574540884883 554.4080074887585, 631.8560598200372 582.5953021919119 M630.1547207151254 531.6012764195746 C630.3163424931444 546.8587357143073, 631.077013213395 561.8947725423827, 630.5511806311401 582.7471564231997 M630.9388757963163 581.8641013772703 C606.9319179308287 582.2665090875502, 582.6812185465459 581.2214476983072, 571.6255979107162 583.9759981614909 M629.0753076384306 581.428222103205 C609.7158715397069 581.4832313771562, 590.0436222045117 582.9406688481063, 569.6223152882443 581.0645884665507 M568.3661194850308 583.3229934433732 C571.3987472669722 566.4970113992837, 571.2279472529425 550.6867287126172, 571.7953259962007 532.373395342573 M569.1692719640255 581.41550397187 C570.2657533128553 564.2732242328337, 569.3347772090176 546.1993372334242, 569.9345374874745 531.0676859454377" stroke="#000" stroke-width="1" fill="none"/></g><g><path d="M760.9378501739228 532.7759248520214 C775.0170241883932 532.6942337822181, 788.9265477373309 532.0153633676324, 818.8558271016549 530.3179745730307 M758.4123680918603 532.2023684470207 C777.1678280020938 533.1138217138656, 793.6593950217436 532.8507949573325, 819.6029277781655 532.0875791556743 M819.1153943650846 530.7072770272729 C817.8928567933317 542.4878424613947, 818.767194795627 555.982398900448, 819.5987306634175 581.7076993130194 M819.2614384623221 531.6716029751971 C818.0606221138488 543.3710518309127, 817.9531187864046 556.572383846521, 818.8374350175233 582.0127531457063 M818.5138045833248 580.4857895310324 C799.2174790958996 580.0816502441335, 779.0653914185606 580.6774534574523, 760.2805913550558 583.1584621880728 M819.4803668131518 582.8186772564624 C800.5941722720792 580.9620499867992, 783.7022969735337 581.3600914374374, 758.741427833325 581.2753513063365 M759.0264668155737 580.748528703825 C757.5477940193717 564.7856794154168, 756.9712307151605 545.5009501637223, 759.5080807904781 531.6025899942745 M759.2056557189916 581.4830185535998 C759.5448505560613 563.0687341854999, 759.8036065215769 544.3376474897823, 759.4235189924082 532.1479066183965" stroke="#000" stroke-width="1" fill="none"/></g><text fill="rgb(0, 0, 0)" text-anchor="middle" font-family="Consolas, Courier" font-size="20" x="582.5" y="627">{</text><text fill="rgb(0, 0, 0)" text-anchor="middle" font-family="Consolas, Courier" font-size="20" x="806.5" y="627">}</text></svg>